{
  "header": {
    "keySignatures": [
      {
        "key": "C",
        "scale": "minor",
        "ticks": 0
      }
    ],
    "meta": [],
    "name": "",
    "ppq": 480,
    "tempos": [
      {
        "bpm": 72.00002880001152,
        "ticks": 0
      },
      {
        "bpm": 25,
        "ticks": 75360
      },
      {
        "bpm": 45.000011250002814,
        "ticks": 75840
      },
      {
        "bpm": 25,
        "ticks": 76320
      },
      {
        "bpm": 60,
        "ticks": 76800
      },
      {
        "bpm": 54.00000540000054,
        "ticks": 77760
      }
    ],
    "timeSignatures": [
      {
        "ticks": 0,
        "timeSignature": [
          4,
          4
        ],
        "measures": 0
      }
    ]
  },
  "tracks": [
    {
      "channel": 0,
      "controlChanges": {},
      "pitchBends": [],
      "instrument": {
        "family": "piano",
        "number": 0,
        "name": "acoustic grand piano"
      },
      "name": "W. A. Mozart - Requiem K. 626",
      "notes": [],
      "endOfTrackTicks": 1920
    },
    {
      "channel": 0,
      "controlChanges": {},
      "pitchBends": [],
      "instrument": {
        "family": "piano",
        "number": 0,
        "name": "acoustic grand piano"
      },
      "name": "Corni di Bassetto in F",
      "notes": [],
      "endOfTrackTicks": 76800
    },
    {
      "channel": 0,
      "controlChanges": {
        "7": [
          {
            "number": 7,
            "ticks": 0,
            "time": 0,
            "value": 0.7559055118110236
          }
        ],
        "10": [
          {
            "number": 10,
            "ticks": 0,
            "time": 0,
            "value": 0.3937007874015748
          }
        ],
        "11": [
          {
            "number": 11,
            "ticks": 0,
            "time": 0,
            "value": 1
          }
        ]
      },
      "pitchBends": [],
      "instrument": {
        "family": "reed",
        "number": 71,
        "name": "clarinet"
      },
      "name": "",
      "notes": [
        {
          "duration": 0.8298607791666655,
          "durationTicks": 478,
          "midi": 67,
          "name": "G4",
          "ticks": 10080,
          "time": 17.499993,
          "velocity": 0.3779527559055118
        },
        {
          "duration": 0.8298607791666655,
          "durationTicks": 478,
          "midi": 66,
          "name": "F#4",
          "ticks": 10560,
          "time": 18.333326,
          "velocity": 0.3779527559055118
        },
        {
          "duration": 0.8298607791666655,
          "durationTicks": 478,
          "midi": 69,
          "name": "A4",
          "ticks": 10560,
          "time": 18.333326,
          "velocity": 0.3779527559055118
        },
        {
          "duration": 0.7777774666666666,
          "durationTicks": 448,
          "midi": 65,
          "name": "F4",
          "ticks": 11040,
          "time": 19.166659,
          "velocity": 0.3779527559055118
        },
        {
          "duration": 0.7777774666666666,
          "durationTicks": 448,
          "midi": 71,
          "name": "B4",
          "ticks": 11040,
          "time": 19.166659,
          "velocity": 0.3779527559055118
        },
        {
          "duration": 0.829860779166669,
          "durationTicks": 478,
          "midi": 64,
          "name": "E4",
          "ticks": 11520,
          "time": 19.999992,
          "velocity": 0.3779527559055118
        },
        {
          "duration": 0.829860779166669,
          "durationTicks": 478,
          "midi": 72,
          "name": "C5",
          "ticks": 11520,
          "time": 19.999992,
          "velocity": 0.3779527559055118
        },
        {
          "duration": 0.8298607791666655,
          "durationTicks": 478,
          "midi": 64,
          "name": "E4",
          "ticks": 29280,
          "time": 50.833313,
          "velocity": 0.3779527559055118
        },
        {
          "duration": 0.8298607791666655,
          "durationTicks": 478,
          "midi": 63,
          "name": "D#4",
          "ticks": 29760,
          "time": 51.666646,
          "velocity": 0.3779527559055118
        },
        {
          "duration": 0.8298607791666655,
          "durationTicks": 478,
          "midi": 66,
          "name": "F#4",
          "ticks": 29760,
          "time": 51.666646,
          "velocity": 0.3779527559055118
        },
        {
          "duration": 0.7777774666666701,
          "durationTicks": 448,
          "midi": 62,
          "name": "D4",
          "ticks": 30240,
          "time": 52.499978999999996,
          "velocity": 0.3779527559055118
        },
        {
          "duration": 0.7777774666666701,
          "durationTicks": 448,
          "midi": 68,
          "name": "G#4",
          "ticks": 30240,
          "time": 52.499978999999996,
          "velocity": 0.3779527559055118
        },
        {
          "duration": 0.8298607791666726,
          "durationTicks": 478,
          "midi": 60,
          "name": "C4",
          "ticks": 30720,
          "time": 53.333312,
          "velocity": 0.3779527559055118
        },
        {
          "duration": 0.8298607791666726,
          "durationTicks": 478,
          "midi": 69,
          "name": "A4",
          "ticks": 30720,
          "time": 53.333312,
          "velocity": 0.3779527559055118
        },
        {
          "duration": 3.2777764666666798,
          "durationTicks": 1888,
          "midi": 64,
          "name": "E4",
          "ticks": 46080,
          "time": 79.999968,
          "velocity": 0.3779527559055118
        },
        {
          "duration": 3.2777764666666798,
          "durationTicks": 1888,
          "midi": 69,
          "name": "A4",
          "ticks": 46080,
          "time": 79.999968,
          "velocity": 0.3779527559055118
        },
        {
          "duration": 3.2777764666666798,
          "durationTicks": 1888,
          "midi": 66,
          "name": "F#4",
          "ticks": 48000,
          "time": 83.3333,
          "velocity": 0.3779527559055118
        },
        {
          "duration": 3.2777764666666798,
          "durationTicks": 1888,
          "midi": 69,
          "name": "A4",
          "ticks": 48000,
          "time": 83.3333,
          "velocity": 0.3779527559055118
        },
        {
          "duration": 3.2777764666666798,
          "durationTicks": 1888,
          "midi": 67,
          "name": "G4",
          "ticks": 49920,
          "time": 86.66663199999999,
          "velocity": 0.3779527559055118
        },
        {
          "duration": 4.111109466666676,
          "durationTicks": 2368,
          "midi": 70,
          "name": "A#4",
          "ticks": 49920,
          "time": 86.66663199999999,
          "velocity": 0.3779527559055118
        },
        {
          "duration": 1.6111104666666591,
          "durationTicks": 928,
          "midi": 63,
          "name": "D#4",
          "ticks": 51840,
          "time": 89.999964,
          "velocity": 0.3779527559055118
        },
        {
          "duration": 1.6111104666666733,
          "durationTicks": 928,
          "midi": 68,
          "name": "G#4",
          "ticks": 52320,
          "time": 90.833297,
          "velocity": 0.3779527559055118
        },
        {
          "duration": 1.6111104666666733,
          "durationTicks": 928,
          "midi": 61,
          "name": "C#4",
          "ticks": 52800,
          "time": 91.66663,
          "velocity": 0.3779527559055118
        },
        {
          "duration": 0.7777774666666772,
          "durationTicks": 448,
          "midi": 67,
          "name": "G4",
          "ticks": 53280,
          "time": 92.499963,
          "velocity": 0.3779527559055118
        },
        {
          "duration": 3.2777764666666656,
          "durationTicks": 1888,
          "midi": 63,
          "name": "D#4",
          "ticks": 53760,
          "time": 93.333296,
          "velocity": 0.3779527559055118
        },
        {
          "duration": 3.2777764666666656,
          "durationTicks": 1888,
          "midi": 68,
          "name": "G#4",
          "ticks": 53760,
          "time": 93.333296,
          "velocity": 0.3779527559055118
        },
        {
          "duration": 3.2777764666666656,
          "durationTicks": 1888,
          "midi": 65,
          "name": "F4",
          "ticks": 55680,
          "time": 96.666628,
          "velocity": 0.3779527559055118
        },
        {
          "duration": 3.2777764666666656,
          "durationTicks": 1888,
          "midi": 68,
          "name": "G#4",
          "ticks": 55680,
          "time": 96.666628,
          "velocity": 0.3779527559055118
        },
        {
          "duration": 3.2777764666666656,
          "durationTicks": 1888,
          "midi": 66,
          "name": "F#4",
          "ticks": 57600,
          "time": 99.99996,
          "velocity": 0.3779527559055118
        },
        {
          "duration": 4.111109466666662,
          "durationTicks": 2368,
          "midi": 69,
          "name": "A4",
          "ticks": 57600,
          "time": 99.99996,
          "velocity": 0.3779527559055118
        },
        {
          "duration": 3.2777764666666656,
          "durationTicks": 1888,
          "midi": 62,
          "name": "D4",
          "ticks": 59520,
          "time": 103.333292,
          "velocity": 0.3779527559055118
        },
        {
          "duration": 1.6111104666666733,
          "durationTicks": 928,
          "midi": 67,
          "name": "G4",
          "ticks": 60000,
          "time": 104.166625,
          "velocity": 0.3779527559055118
        },
        {
          "duration": 0.777777466666663,
          "durationTicks": 448,
          "midi": 66,
          "name": "F#4",
          "ticks": 60960,
          "time": 105.833291,
          "velocity": 0.3779527559055118
        },
        {
          "duration": 3.2777764666666656,
          "durationTicks": 1888,
          "midi": 62,
          "name": "D4",
          "ticks": 61440,
          "time": 106.666624,
          "velocity": 0.3779527559055118
        },
        {
          "duration": 3.2777764666666656,
          "durationTicks": 1888,
          "midi": 67,
          "name": "G4",
          "ticks": 61440,
          "time": 106.666624,
          "velocity": 0.3779527559055118
        },
        {
          "duration": 3.2777764666666656,
          "durationTicks": 1888,
          "midi": 64,
          "name": "E4",
          "ticks": 63360,
          "time": 109.999956,
          "velocity": 0.3779527559055118
        },
        {
          "duration": 3.2777764666666656,
          "durationTicks": 1888,
          "midi": 67,
          "name": "G4",
          "ticks": 63360,
          "time": 109.999956,
          "velocity": 0.3779527559055118
        },
        {
          "duration": 1.6111104666666733,
          "durationTicks": 928,
          "midi": 65,
          "name": "F4",
          "ticks": 65280,
          "time": 113.333288,
          "velocity": 0.3779527559055118
        },
        {
          "duration": 1.6111104666666733,
          "durationTicks": 928,
          "midi": 68,
          "name": "G#4",
          "ticks": 65280,
          "time": 113.333288,
          "velocity": 0.3779527559055118
        },
        {
          "duration": 1.6111104666666591,
          "durationTicks": 928,
          "midi": 61,
          "name": "C#4",
          "ticks": 66240,
          "time": 114.999954,
          "velocity": 0.3779527559055118
        },
        {
          "duration": 1.6111104666666591,
          "durationTicks": 928,
          "midi": 66,
          "name": "F#4",
          "ticks": 66240,
          "time": 114.999954,
          "velocity": 0.3779527559055118
        },
        {
          "duration": 3.2777764666666798,
          "durationTicks": 1888,
          "midi": 63,
          "name": "D#4",
          "ticks": 67200,
          "time": 116.66662,
          "velocity": 0.3779527559055118
        },
        {
          "duration": 3.2777764666666798,
          "durationTicks": 1888,
          "midi": 66,
          "name": "F#4",
          "ticks": 67200,
          "time": 116.66662,
          "velocity": 0.3779527559055118
        },
        {
          "duration": 1.6111104666666733,
          "durationTicks": 928,
          "midi": 64,
          "name": "E4",
          "ticks": 69120,
          "time": 119.999952,
          "velocity": 0.3779527559055118
        },
        {
          "duration": 1.6111104666666733,
          "durationTicks": 928,
          "midi": 67,
          "name": "G4",
          "ticks": 69120,
          "time": 119.999952,
          "velocity": 0.3779527559055118
        },
        {
          "duration": 0.777777466666663,
          "durationTicks": 448,
          "midi": 65,
          "name": "F4",
          "ticks": 70080,
          "time": 121.666618,
          "velocity": 0.3779527559055118
        },
        {
          "duration": 3.329859779166668,
          "durationTicks": 1918,
          "midi": 65,
          "name": "F4",
          "ticks": 70080,
          "time": 121.666618,
          "velocity": 0.3779527559055118
        },
        {
          "duration": 0.7777774666666772,
          "durationTicks": 448,
          "midi": 60,
          "name": "C4",
          "ticks": 70560,
          "time": 122.499951,
          "velocity": 0.3779527559055118
        },
        {
          "duration": 3.2777764666666798,
          "durationTicks": 1888,
          "midi": 60,
          "name": "C4",
          "ticks": 71040,
          "time": 123.33328399999999,
          "velocity": 0.3779527559055118
        },
        {
          "duration": 1.6111104666666733,
          "durationTicks": 928,
          "midi": 64,
          "name": "E4",
          "ticks": 72000,
          "time": 124.99995,
          "velocity": 0.3779527559055118
        },
        {
          "duration": 4.16319277916665,
          "durationTicks": 2398,
          "midi": 60,
          "name": "C4",
          "ticks": 72960,
          "time": 126.666616,
          "velocity": 0.3779527559055118
        },
        {
          "duration": 4.16319277916665,
          "durationTicks": 2398,
          "midi": 65,
          "name": "F4",
          "ticks": 72960,
          "time": 126.666616,
          "velocity": 0.3779527559055118
        }
      ]
    },
    {
      "channel": 0,
      "controlChanges": {},
      "pitchBends": [],
      "instrument": {
        "family": "piano",
        "number": 0,
        "name": "acoustic grand piano"
      },
      "name": "Bassoon",
      "notes": [],
      "endOfTrackTicks": 76800
    },
    {
      "channel": 1,
      "controlChanges": {
        "7": [
          {
            "number": 7,
            "ticks": 0,
            "time": 0,
            "value": 0.7559055118110236
          }
        ],
        "10": [
          {
            "number": 10,
            "ticks": 0,
            "time": 0,
            "value": 0.5118110236220472
          }
        ],
        "11": [
          {
            "number": 11,
            "ticks": 0,
            "time": 0,
            "value": 1
          }
        ]
      },
      "pitchBends": [],
      "instrument": {
        "family": "reed",
        "number": 70,
        "name": "bassoon"
      },
      "name": "",
      "notes": [
        {
          "duration": 0.5694442166666668,
          "durationTicks": 328,
          "midi": 57,
          "name": "A3",
          "ticks": 480,
          "time": 0.833333,
          "velocity": 0.5669291338582677
        },
        {
          "duration": 0.15277771666666662,
          "durationTicks": 88,
          "midi": 52,
          "name": "E3",
          "ticks": 840,
          "time": 1.45833275,
          "velocity": 0.5669291338582677
        },
        {
          "duration": 0.7777774666666664,
          "durationTicks": 448,
          "midi": 60,
          "name": "C4",
          "ticks": 960,
          "time": 1.666666,
          "velocity": 0.5669291338582677
        },
        {
          "duration": 0.7777774666666666,
          "durationTicks": 448,
          "midi": 57,
          "name": "A3",
          "ticks": 1440,
          "time": 2.499999,
          "velocity": 0.5669291338582677
        },
        {
          "duration": 0.5694442166666667,
          "durationTicks": 328,
          "midi": 60,
          "name": "C4",
          "ticks": 1440,
          "time": 2.499999,
          "velocity": 0.5669291338582677
        },
        {
          "duration": 0.2048610291666666,
          "durationTicks": 118,
          "midi": 57,
          "name": "A3",
          "ticks": 1800,
          "time": 3.12499875,
          "velocity": 0.5669291338582677
        },
        {
          "duration": 0.777777466666667,
          "durationTicks": 448,
          "midi": 62,
          "name": "D4",
          "ticks": 1920,
          "time": 3.333332,
          "velocity": 0.5669291338582677
        },
        {
          "duration": 0.8298607791666663,
          "durationTicks": 478,
          "midi": 56,
          "name": "G#3",
          "ticks": 2400,
          "time": 4.166665,
          "velocity": 0.5669291338582677
        },
        {
          "duration": 0.5694442166666667,
          "durationTicks": 328,
          "midi": 59,
          "name": "B3",
          "ticks": 2400,
          "time": 4.166665,
          "velocity": 0.5669291338582677
        },
        {
          "duration": 0.15277771666666684,
          "durationTicks": 88,
          "midi": 52,
          "name": "E3",
          "ticks": 2760,
          "time": 4.79166475,
          "velocity": 0.5669291338582677
        },
        {
          "duration": 0.7777774666666675,
          "durationTicks": 448,
          "midi": 62,
          "name": "D4",
          "ticks": 2880,
          "time": 4.999998,
          "velocity": 0.5669291338582677
        },
        {
          "duration": 0.8298607791666663,
          "durationTicks": 478,
          "midi": 56,
          "name": "G#3",
          "ticks": 3360,
          "time": 5.833331,
          "velocity": 0.5669291338582677
        },
        {
          "duration": 0.5694442166666667,
          "durationTicks": 328,
          "midi": 62,
          "name": "D4",
          "ticks": 3360,
          "time": 5.833331,
          "velocity": 0.5669291338582677
        },
        {
          "duration": 0.15277771666666684,
          "durationTicks": 88,
          "midi": 59,
          "name": "B3",
          "ticks": 3720,
          "time": 6.45833075,
          "velocity": 0.5669291338582677
        },
        {
          "duration": 0.7777774666666666,
          "durationTicks": 448,
          "midi": 64,
          "name": "E4",
          "ticks": 3840,
          "time": 6.666664,
          "velocity": 0.5669291338582677
        },
        {
          "duration": 0.8298607791666663,
          "durationTicks": 478,
          "midi": 57,
          "name": "A3",
          "ticks": 4320,
          "time": 7.499997,
          "velocity": 0.5669291338582677
        },
        {
          "duration": 0.5694442166666667,
          "durationTicks": 328,
          "midi": 64,
          "name": "E4",
          "ticks": 4320,
          "time": 7.499997,
          "velocity": 0.5669291338582677
        },
        {
          "duration": 0.15277771666666773,
          "durationTicks": 88,
          "midi": 62,
          "name": "D4",
          "ticks": 4680,
          "time": 8.12499675,
          "velocity": 0.5669291338582677
        },
        {
          "duration": 0.5694442166666658,
          "durationTicks": 328,
          "midi": 60,
          "name": "C4",
          "ticks": 4800,
          "time": 8.33333,
          "velocity": 0.5669291338582677
        },
        {
          "duration": 0.15277771666666595,
          "durationTicks": 88,
          "midi": 59,
          "name": "B3",
          "ticks": 5160,
          "time": 8.95832975,
          "velocity": 0.5669291338582677
        },
        {
          "duration": 0.5694442166666676,
          "durationTicks": 328,
          "midi": 57,
          "name": "A3",
          "ticks": 5280,
          "time": 9.166663,
          "velocity": 0.5669291338582677
        },
        {
          "duration": 0.15277771666666595,
          "durationTicks": 88,
          "midi": 55,
          "name": "G3",
          "ticks": 5640,
          "time": 9.79166275,
          "velocity": 0.5669291338582677
        },
        {
          "duration": 0.7777774666666666,
          "durationTicks": 448,
          "midi": 53,
          "name": "F3",
          "ticks": 5760,
          "time": 9.999996,
          "velocity": 0.5669291338582677
        },
        {
          "duration": 0.8298607791666672,
          "durationTicks": 478,
          "midi": 50,
          "name": "D3",
          "ticks": 6240,
          "time": 10.833328999999999,
          "velocity": 0.5669291338582677
        },
        {
          "duration": 0.5694442166666676,
          "durationTicks": 328,
          "midi": 65,
          "name": "F4",
          "ticks": 6240,
          "time": 10.833328999999999,
          "velocity": 0.5669291338582677
        },
        {
          "duration": 0.15277771666666773,
          "durationTicks": 88,
          "midi": 64,
          "name": "E4",
          "ticks": 6600,
          "time": 11.45832875,
          "velocity": 0.5669291338582677
        },
        {
          "duration": 0.5694442166666658,
          "durationTicks": 328,
          "midi": 62,
          "name": "D4",
          "ticks": 6720,
          "time": 11.666662,
          "velocity": 0.5669291338582677
        },
        {
          "duration": 0.15277771666666773,
          "durationTicks": 88,
          "midi": 60,
          "name": "C4",
          "ticks": 7080,
          "time": 12.29166175,
          "velocity": 0.5669291338582677
        },
        {
          "duration": 0.5694442166666658,
          "durationTicks": 328,
          "midi": 59,
          "name": "B3",
          "ticks": 7200,
          "time": 12.499995,
          "velocity": 0.5669291338582677
        },
        {
          "duration": 0.5694442166666658,
          "durationTicks": 328,
          "midi": 62,
          "name": "D4",
          "ticks": 7200,
          "time": 12.499995,
          "velocity": 0.5669291338582677
        },
        {
          "duration": 0.15277771666666773,
          "durationTicks": 88,
          "midi": 57,
          "name": "A3",
          "ticks": 7560,
          "time": 13.124994749999999,
          "velocity": 0.5669291338582677
        },
        {
          "duration": 0.15277771666666773,
          "durationTicks": 88,
          "midi": 62,
          "name": "D4",
          "ticks": 7560,
          "time": 13.124994749999999,
          "velocity": 0.5669291338582677
        },
        {
          "duration": 0.5694442166666676,
          "durationTicks": 328,
          "midi": 56,
          "name": "G#3",
          "ticks": 7680,
          "time": 13.333328,
          "velocity": 0.5669291338582677
        },
        {
          "duration": 0.5694442166666676,
          "durationTicks": 328,
          "midi": 62,
          "name": "D4",
          "ticks": 7680,
          "time": 13.333328,
          "velocity": 0.5669291338582677
        },
        {
          "duration": 0.15277771666666595,
          "durationTicks": 88,
          "midi": 52,
          "name": "E3",
          "ticks": 8040,
          "time": 13.95832775,
          "velocity": 0.5669291338582677
        },
        {
          "duration": 0.5694442166666676,
          "durationTicks": 328,
          "midi": 56,
          "name": "G#3",
          "ticks": 8160,
          "time": 14.166661,
          "velocity": 0.5669291338582677
        },
        {
          "duration": 0.5694442166666676,
          "durationTicks": 328,
          "midi": 62,
          "name": "D4",
          "ticks": 8160,
          "time": 14.166661,
          "velocity": 0.5669291338582677
        },
        {
          "duration": 0.15277771666666595,
          "durationTicks": 88,
          "midi": 52,
          "name": "E3",
          "ticks": 8520,
          "time": 14.79166075,
          "velocity": 0.5669291338582677
        },
        {
          "duration": 0.15277771666666595,
          "durationTicks": 88,
          "midi": 62,
          "name": "D4",
          "ticks": 8520,
          "time": 14.79166075,
          "velocity": 0.5669291338582677
        },
        {
          "duration": 0.5694442166666676,
          "durationTicks": 328,
          "midi": 60,
          "name": "C4",
          "ticks": 8640,
          "time": 14.999994,
          "velocity": 0.5669291338582677
        },
        {
          "duration": 0.5694442166666676,
          "durationTicks": 328,
          "midi": 63,
          "name": "D#4",
          "ticks": 8640,
          "time": 14.999994,
          "velocity": 0.5669291338582677
        },
        {
          "duration": 0.15277771666666773,
          "durationTicks": 88,
          "midi": 57,
          "name": "A3",
          "ticks": 9000,
          "time": 15.62499375,
          "velocity": 0.5669291338582677
        },
        {
          "duration": 0.15277771666666773,
          "durationTicks": 88,
          "midi": 63,
          "name": "D#4",
          "ticks": 9000,
          "time": 15.62499375,
          "velocity": 0.5669291338582677
        },
        {
          "duration": 0.5694442166666676,
          "durationTicks": 328,
          "midi": 60,
          "name": "C4",
          "ticks": 9120,
          "time": 15.833327,
          "velocity": 0.5669291338582677
        },
        {
          "duration": 0.5694442166666676,
          "durationTicks": 328,
          "midi": 63,
          "name": "D#4",
          "ticks": 9120,
          "time": 15.833327,
          "velocity": 0.5669291338582677
        },
        {
          "duration": 0.15277771666666595,
          "durationTicks": 88,
          "midi": 57,
          "name": "A3",
          "ticks": 9480,
          "time": 16.45832675,
          "velocity": 0.5669291338582677
        },
        {
          "duration": 0.15277771666666595,
          "durationTicks": 88,
          "midi": 63,
          "name": "D#4",
          "ticks": 9480,
          "time": 16.45832675,
          "velocity": 0.5669291338582677
        },
        {
          "duration": 0.7777774666666666,
          "durationTicks": 448,
          "midi": 56,
          "name": "G#3",
          "ticks": 9600,
          "time": 16.66666,
          "velocity": 0.5669291338582677
        },
        {
          "duration": 0.7777774666666666,
          "durationTicks": 448,
          "midi": 64,
          "name": "E4",
          "ticks": 9600,
          "time": 16.66666,
          "velocity": 0.5669291338582677
        },
        {
          "duration": 0.8298607791666655,
          "durationTicks": 478,
          "midi": 64,
          "name": "E4",
          "ticks": 10080,
          "time": 17.499993,
          "velocity": 0.3779527559055118
        },
        {
          "duration": 0.8298607791666655,
          "durationTicks": 478,
          "midi": 67,
          "name": "G4",
          "ticks": 10080,
          "time": 17.499993,
          "velocity": 0.3779527559055118
        },
        {
          "duration": 0.8298607791666655,
          "durationTicks": 478,
          "midi": 63,
          "name": "D#4",
          "ticks": 10560,
          "time": 18.333326,
          "velocity": 0.3779527559055118
        },
        {
          "duration": 0.8298607791666655,
          "durationTicks": 478,
          "midi": 66,
          "name": "F#4",
          "ticks": 10560,
          "time": 18.333326,
          "velocity": 0.3779527559055118
        },
        {
          "duration": 0.7777774666666666,
          "durationTicks": 448,
          "midi": 62,
          "name": "D4",
          "ticks": 11040,
          "time": 19.166659,
          "velocity": 0.3779527559055118
        },
        {
          "duration": 0.7777774666666666,
          "durationTicks": 448,
          "midi": 65,
          "name": "F4",
          "ticks": 11040,
          "time": 19.166659,
          "velocity": 0.3779527559055118
        },
        {
          "duration": 0.7777774666666666,
          "durationTicks": 448,
          "midi": 60,
          "name": "C4",
          "ticks": 11520,
          "time": 19.999992,
          "velocity": 0.3779527559055118
        },
        {
          "duration": 0.7777774666666666,
          "durationTicks": 448,
          "midi": 64,
          "name": "E4",
          "ticks": 11520,
          "time": 19.999992,
          "velocity": 0.3779527559055118
        },
        {
          "duration": 0.5694442166666676,
          "durationTicks": 328,
          "midi": 55,
          "name": "G3",
          "ticks": 18720,
          "time": 32.499987,
          "velocity": 0.5669291338582677
        },
        {
          "duration": 0.1527777166666624,
          "durationTicks": 88,
          "midi": 60,
          "name": "C4",
          "ticks": 19080,
          "time": 33.12498675,
          "velocity": 0.5669291338582677
        },
        {
          "duration": 0.777777466666663,
          "durationTicks": 448,
          "midi": 59,
          "name": "B3",
          "ticks": 19200,
          "time": 33.33332,
          "velocity": 0.5669291338582677
        },
        {
          "duration": 0.8298607791666655,
          "durationTicks": 478,
          "midi": 55,
          "name": "G3",
          "ticks": 19680,
          "time": 34.166653,
          "velocity": 0.5669291338582677
        },
        {
          "duration": 0.5694442166666676,
          "durationTicks": 328,
          "midi": 62,
          "name": "D4",
          "ticks": 19680,
          "time": 34.166653,
          "velocity": 0.5669291338582677
        },
        {
          "duration": 0.1527777166666695,
          "durationTicks": 88,
          "midi": 67,
          "name": "G4",
          "ticks": 20040,
          "time": 34.79165275,
          "velocity": 0.5669291338582677
        },
        {
          "duration": 0.777777466666663,
          "durationTicks": 448,
          "midi": 66,
          "name": "F#4",
          "ticks": 20160,
          "time": 34.999986,
          "velocity": 0.5669291338582677
        },
        {
          "duration": 0.5694442166666605,
          "durationTicks": 328,
          "midi": 57,
          "name": "A3",
          "ticks": 20640,
          "time": 35.833319,
          "velocity": 0.5669291338582677
        },
        {
          "duration": 0.777777466666663,
          "durationTicks": 448,
          "midi": 62,
          "name": "D4",
          "ticks": 20640,
          "time": 35.833319,
          "velocity": 0.5669291338582677
        },
        {
          "duration": 0.1527777166666695,
          "durationTicks": 88,
          "midi": 62,
          "name": "D4",
          "ticks": 21000,
          "time": 36.45831875,
          "velocity": 0.5669291338582677
        },
        {
          "duration": 0.777777466666663,
          "durationTicks": 448,
          "midi": 61,
          "name": "C#4",
          "ticks": 21120,
          "time": 36.666652,
          "velocity": 0.5669291338582677
        },
        {
          "duration": 0.8298607791666583,
          "durationTicks": 478,
          "midi": 57,
          "name": "A3",
          "ticks": 21600,
          "time": 37.499985,
          "velocity": 0.5669291338582677
        },
        {
          "duration": 0.5694442166666605,
          "durationTicks": 328,
          "midi": 64,
          "name": "E4",
          "ticks": 21600,
          "time": 37.499985,
          "velocity": 0.5669291338582677
        },
        {
          "duration": 0.1527777166666624,
          "durationTicks": 88,
          "midi": 69,
          "name": "A4",
          "ticks": 21960,
          "time": 38.12498475,
          "velocity": 0.5669291338582677
        },
        {
          "duration": 0.777777466666663,
          "durationTicks": 448,
          "midi": 68,
          "name": "G#4",
          "ticks": 22080,
          "time": 38.333318,
          "velocity": 0.5669291338582677
        },
        {
          "duration": 0.5694442166666605,
          "durationTicks": 328,
          "midi": 59,
          "name": "B3",
          "ticks": 22560,
          "time": 39.166651,
          "velocity": 0.5669291338582677
        },
        {
          "duration": 0.777777466666663,
          "durationTicks": 448,
          "midi": 64,
          "name": "E4",
          "ticks": 22560,
          "time": 39.166651,
          "velocity": 0.5669291338582677
        },
        {
          "duration": 0.1527777166666624,
          "durationTicks": 88,
          "midi": 64,
          "name": "E4",
          "ticks": 22920,
          "time": 39.79165075,
          "velocity": 0.5669291338582677
        },
        {
          "duration": 0.5694442166666676,
          "durationTicks": 328,
          "midi": 64,
          "name": "E4",
          "ticks": 23040,
          "time": 39.999984,
          "velocity": 0.5669291338582677
        },
        {
          "duration": 0.777777466666663,
          "durationTicks": 448,
          "midi": 65,
          "name": "F4",
          "ticks": 23040,
          "time": 39.999984,
          "velocity": 0.5669291338582677
        },
        {
          "duration": 0.1527777166666624,
          "durationTicks": 88,
          "midi": 57,
          "name": "A3",
          "ticks": 23400,
          "time": 40.62498375,
          "velocity": 0.5669291338582677
        },
        {
          "duration": 0.5694442166666605,
          "durationTicks": 328,
          "midi": 62,
          "name": "D4",
          "ticks": 23520,
          "time": 40.833317,
          "velocity": 0.5669291338582677
        },
        {
          "duration": 0.361110966666665,
          "durationTicks": 208,
          "midi": 67,
          "name": "G4",
          "ticks": 23760,
          "time": 41.2499835,
          "velocity": 0.5669291338582677
        },
        {
          "duration": 0.1527777166666624,
          "durationTicks": 88,
          "midi": 62,
          "name": "D4",
          "ticks": 23880,
          "time": 41.45831675,
          "velocity": 0.5669291338582677
        },
        {
          "duration": 0.5694442166666676,
          "durationTicks": 328,
          "midi": 62,
          "name": "D4",
          "ticks": 24000,
          "time": 41.66665,
          "velocity": 0.5669291338582677
        },
        {
          "duration": 0.5694442166666676,
          "durationTicks": 328,
          "midi": 64,
          "name": "E4",
          "ticks": 24000,
          "time": 41.66665,
          "velocity": 0.5669291338582677
        },
        {
          "duration": 0.1527777166666624,
          "durationTicks": 88,
          "midi": 55,
          "name": "G3",
          "ticks": 24360,
          "time": 42.29164975,
          "velocity": 0.5669291338582677
        },
        {
          "duration": 0.1527777166666624,
          "durationTicks": 88,
          "midi": 64,
          "name": "E4",
          "ticks": 24360,
          "time": 42.29164975,
          "velocity": 0.5669291338582677
        },
        {
          "duration": 0.5694442166666605,
          "durationTicks": 328,
          "midi": 60,
          "name": "C4",
          "ticks": 24480,
          "time": 42.499983,
          "velocity": 0.5669291338582677
        },
        {
          "duration": 0.5694442166666605,
          "durationTicks": 328,
          "midi": 64,
          "name": "E4",
          "ticks": 24480,
          "time": 42.499983,
          "velocity": 0.5669291338582677
        },
        {
          "duration": 0.1527777166666624,
          "durationTicks": 88,
          "midi": 60,
          "name": "C4",
          "ticks": 24840,
          "time": 43.12498275,
          "velocity": 0.5669291338582677
        },
        {
          "duration": 0.1527777166666624,
          "durationTicks": 88,
          "midi": 65,
          "name": "F4",
          "ticks": 24840,
          "time": 43.12498275,
          "velocity": 0.5669291338582677
        },
        {
          "duration": 0.5694442166666676,
          "durationTicks": 328,
          "midi": 60,
          "name": "C4",
          "ticks": 24960,
          "time": 43.333315999999996,
          "velocity": 0.5669291338582677
        },
        {
          "duration": 0.5694442166666676,
          "durationTicks": 328,
          "midi": 62,
          "name": "D4",
          "ticks": 24960,
          "time": 43.333315999999996,
          "velocity": 0.5669291338582677
        },
        {
          "duration": 0.1527777166666695,
          "durationTicks": 88,
          "midi": 54,
          "name": "F#3",
          "ticks": 25320,
          "time": 43.95831575,
          "velocity": 0.5669291338582677
        },
        {
          "duration": 0.1527777166666695,
          "durationTicks": 88,
          "midi": 62,
          "name": "D4",
          "ticks": 25320,
          "time": 43.95831575,
          "velocity": 0.5669291338582677
        },
        {
          "duration": 0.5694442166666605,
          "durationTicks": 328,
          "midi": 59,
          "name": "B3",
          "ticks": 25440,
          "time": 44.166649,
          "velocity": 0.5669291338582677
        },
        {
          "duration": 0.5694442166666605,
          "durationTicks": 328,
          "midi": 62,
          "name": "D4",
          "ticks": 25440,
          "time": 44.166649,
          "velocity": 0.5669291338582677
        },
        {
          "duration": 0.1527777166666624,
          "durationTicks": 88,
          "midi": 59,
          "name": "B3",
          "ticks": 25800,
          "time": 44.79164875,
          "velocity": 0.5669291338582677
        },
        {
          "duration": 0.1527777166666624,
          "durationTicks": 88,
          "midi": 64,
          "name": "E4",
          "ticks": 25800,
          "time": 44.79164875,
          "velocity": 0.5669291338582677
        },
        {
          "duration": 0.5694442166666605,
          "durationTicks": 328,
          "midi": 57,
          "name": "A3",
          "ticks": 25920,
          "time": 44.999982,
          "velocity": 0.5669291338582677
        },
        {
          "duration": 0.5694442166666605,
          "durationTicks": 328,
          "midi": 60,
          "name": "C4",
          "ticks": 25920,
          "time": 44.999982,
          "velocity": 0.5669291338582677
        },
        {
          "duration": 0.1527777166666695,
          "durationTicks": 88,
          "midi": 57,
          "name": "A3",
          "ticks": 26280,
          "time": 45.624981749999996,
          "velocity": 0.5669291338582677
        },
        {
          "duration": 0.1527777166666695,
          "durationTicks": 88,
          "midi": 60,
          "name": "C4",
          "ticks": 26280,
          "time": 45.624981749999996,
          "velocity": 0.5669291338582677
        },
        {
          "duration": 0.5694442166666676,
          "durationTicks": 328,
          "midi": 58,
          "name": "A#3",
          "ticks": 26400,
          "time": 45.833315,
          "velocity": 0.5669291338582677
        },
        {
          "duration": 0.5694442166666676,
          "durationTicks": 328,
          "midi": 60,
          "name": "C4",
          "ticks": 26400,
          "time": 45.833315,
          "velocity": 0.5669291338582677
        },
        {
          "duration": 0.1527777166666624,
          "durationTicks": 88,
          "midi": 58,
          "name": "A#3",
          "ticks": 26760,
          "time": 46.45831475,
          "velocity": 0.5669291338582677
        },
        {
          "duration": 0.1527777166666624,
          "durationTicks": 88,
          "midi": 60,
          "name": "C4",
          "ticks": 26760,
          "time": 46.45831475,
          "velocity": 0.5669291338582677
        },
        {
          "duration": 0.5694442166666605,
          "durationTicks": 328,
          "midi": 57,
          "name": "A3",
          "ticks": 26880,
          "time": 46.666648,
          "velocity": 0.5669291338582677
        },
        {
          "duration": 0.5694442166666605,
          "durationTicks": 328,
          "midi": 62,
          "name": "D4",
          "ticks": 26880,
          "time": 46.666648,
          "velocity": 0.5669291338582677
        },
        {
          "duration": 0.1527777166666624,
          "durationTicks": 88,
          "midi": 57,
          "name": "A3",
          "ticks": 27240,
          "time": 47.29164775,
          "velocity": 0.5669291338582677
        },
        {
          "duration": 0.1527777166666624,
          "durationTicks": 88,
          "midi": 62,
          "name": "D4",
          "ticks": 27240,
          "time": 47.29164775,
          "velocity": 0.5669291338582677
        },
        {
          "duration": 0.5694442166666676,
          "durationTicks": 328,
          "midi": 57,
          "name": "A3",
          "ticks": 27360,
          "time": 47.499981,
          "velocity": 0.5669291338582677
        },
        {
          "duration": 0.5694442166666676,
          "durationTicks": 328,
          "midi": 62,
          "name": "D4",
          "ticks": 27360,
          "time": 47.499981,
          "velocity": 0.5669291338582677
        },
        {
          "duration": 0.1527777166666624,
          "durationTicks": 88,
          "midi": 57,
          "name": "A3",
          "ticks": 27720,
          "time": 48.12498075,
          "velocity": 0.5669291338582677
        },
        {
          "duration": 0.1527777166666624,
          "durationTicks": 88,
          "midi": 62,
          "name": "D4",
          "ticks": 27720,
          "time": 48.12498075,
          "velocity": 0.5669291338582677
        },
        {
          "duration": 0.5694442166666605,
          "durationTicks": 328,
          "midi": 60,
          "name": "C4",
          "ticks": 27840,
          "time": 48.333314,
          "velocity": 0.5669291338582677
        },
        {
          "duration": 0.5694442166666605,
          "durationTicks": 328,
          "midi": 63,
          "name": "D#4",
          "ticks": 27840,
          "time": 48.333314,
          "velocity": 0.5669291338582677
        },
        {
          "duration": 0.1527777166666624,
          "durationTicks": 88,
          "midi": 60,
          "name": "C4",
          "ticks": 28200,
          "time": 48.95831375,
          "velocity": 0.5669291338582677
        },
        {
          "duration": 0.1527777166666624,
          "durationTicks": 88,
          "midi": 63,
          "name": "D#4",
          "ticks": 28200,
          "time": 48.95831375,
          "velocity": 0.5669291338582677
        },
        {
          "duration": 0.5694442166666676,
          "durationTicks": 328,
          "midi": 59,
          "name": "B3",
          "ticks": 28320,
          "time": 49.166647,
          "velocity": 0.5669291338582677
        },
        {
          "duration": 0.5694442166666676,
          "durationTicks": 328,
          "midi": 63,
          "name": "D#4",
          "ticks": 28320,
          "time": 49.166647,
          "velocity": 0.5669291338582677
        },
        {
          "duration": 0.1527777166666624,
          "durationTicks": 88,
          "midi": 57,
          "name": "A3",
          "ticks": 28680,
          "time": 49.79164675,
          "velocity": 0.5669291338582677
        },
        {
          "duration": 0.1527777166666624,
          "durationTicks": 88,
          "midi": 63,
          "name": "D#4",
          "ticks": 28680,
          "time": 49.79164675,
          "velocity": 0.5669291338582677
        },
        {
          "duration": 0.777777466666663,
          "durationTicks": 448,
          "midi": 56,
          "name": "G#3",
          "ticks": 28800,
          "time": 49.99998,
          "velocity": 0.5669291338582677
        },
        {
          "duration": 0.777777466666663,
          "durationTicks": 448,
          "midi": 64,
          "name": "E4",
          "ticks": 28800,
          "time": 49.99998,
          "velocity": 0.5669291338582677
        },
        {
          "duration": 0.8298607791666655,
          "durationTicks": 478,
          "midi": 56,
          "name": "G#3",
          "ticks": 29280,
          "time": 50.833313,
          "velocity": 0.3779527559055118
        },
        {
          "duration": 0.8298607791666655,
          "durationTicks": 478,
          "midi": 59,
          "name": "B3",
          "ticks": 29280,
          "time": 50.833313,
          "velocity": 0.3779527559055118
        },
        {
          "duration": 0.8298607791666655,
          "durationTicks": 478,
          "midi": 57,
          "name": "A3",
          "ticks": 29760,
          "time": 51.666646,
          "velocity": 0.3779527559055118
        },
        {
          "duration": 0.8298607791666655,
          "durationTicks": 478,
          "midi": 60,
          "name": "C4",
          "ticks": 29760,
          "time": 51.666646,
          "velocity": 0.3779527559055118
        },
        {
          "duration": 0.7777774666666701,
          "durationTicks": 448,
          "midi": 59,
          "name": "B3",
          "ticks": 30240,
          "time": 52.499978999999996,
          "velocity": 0.3779527559055118
        },
        {
          "duration": 0.7777774666666701,
          "durationTicks": 448,
          "midi": 62,
          "name": "D4",
          "ticks": 30240,
          "time": 52.499978999999996,
          "velocity": 0.3779527559055118
        },
        {
          "duration": 0.7777774666666701,
          "durationTicks": 448,
          "midi": 57,
          "name": "A3",
          "ticks": 30720,
          "time": 53.333312,
          "velocity": 0.3779527559055118
        },
        {
          "duration": 0.7777774666666701,
          "durationTicks": 448,
          "midi": 64,
          "name": "E4",
          "ticks": 30720,
          "time": 53.333312,
          "velocity": 0.3779527559055118
        },
        {
          "duration": 3.2777764666666798,
          "durationTicks": 1888,
          "midi": 57,
          "name": "A3",
          "ticks": 46080,
          "time": 79.999968,
          "velocity": 0.3779527559055118
        },
        {
          "duration": 3.2777764666666798,
          "durationTicks": 1888,
          "midi": 60,
          "name": "C4",
          "ticks": 46080,
          "time": 79.999968,
          "velocity": 0.3779527559055118
        },
        {
          "duration": 6.611108466666678,
          "durationTicks": 3808,
          "midi": 51,
          "name": "D#3",
          "ticks": 48000,
          "time": 83.3333,
          "velocity": 0.3779527559055118
        },
        {
          "duration": 3.2777764666666798,
          "durationTicks": 1888,
          "midi": 60,
          "name": "C4",
          "ticks": 48000,
          "time": 83.3333,
          "velocity": 0.3779527559055118
        },
        {
          "duration": 3.2777764666666798,
          "durationTicks": 1888,
          "midi": 61,
          "name": "C#4",
          "ticks": 49920,
          "time": 86.66663199999999,
          "velocity": 0.3779527559055118
        },
        {
          "duration": 3.2777764666666656,
          "durationTicks": 1888,
          "midi": 51,
          "name": "D#3",
          "ticks": 51840,
          "time": 89.999964,
          "velocity": 0.3779527559055118
        },
        {
          "duration": 1.6111104666666591,
          "durationTicks": 928,
          "midi": 59,
          "name": "B3",
          "ticks": 51840,
          "time": 89.999964,
          "velocity": 0.3779527559055118
        },
        {
          "duration": 1.6111104666666733,
          "durationTicks": 928,
          "midi": 58,
          "name": "A#3",
          "ticks": 52800,
          "time": 91.66663,
          "velocity": 0.3779527559055118
        },
        {
          "duration": 3.2777764666666656,
          "durationTicks": 1888,
          "midi": 56,
          "name": "G#3",
          "ticks": 53760,
          "time": 93.333296,
          "velocity": 0.3779527559055118
        },
        {
          "duration": 3.2777764666666656,
          "durationTicks": 1888,
          "midi": 59,
          "name": "B3",
          "ticks": 53760,
          "time": 93.333296,
          "velocity": 0.3779527559055118
        },
        {
          "duration": 3.2777764666666656,
          "durationTicks": 1888,
          "midi": 50,
          "name": "D3",
          "ticks": 55680,
          "time": 96.666628,
          "velocity": 0.3779527559055118
        },
        {
          "duration": 3.2777764666666656,
          "durationTicks": 1888,
          "midi": 59,
          "name": "B3",
          "ticks": 55680,
          "time": 96.666628,
          "velocity": 0.3779527559055118
        },
        {
          "duration": 3.2777764666666656,
          "durationTicks": 1888,
          "midi": 50,
          "name": "D3",
          "ticks": 57600,
          "time": 99.99996,
          "velocity": 0.3779527559055118
        },
        {
          "duration": 3.2777764666666656,
          "durationTicks": 1888,
          "midi": 60,
          "name": "C4",
          "ticks": 57600,
          "time": 99.99996,
          "velocity": 0.3779527559055118
        },
        {
          "duration": 3.2777764666666656,
          "durationTicks": 1888,
          "midi": 50,
          "name": "D3",
          "ticks": 59520,
          "time": 103.333292,
          "velocity": 0.3779527559055118
        },
        {
          "duration": 1.6631937791666616,
          "durationTicks": 958,
          "midi": 58,
          "name": "A#3",
          "ticks": 59520,
          "time": 103.333292,
          "velocity": 0.3779527559055118
        },
        {
          "duration": 1.6111104666666733,
          "durationTicks": 928,
          "midi": 57,
          "name": "A3",
          "ticks": 60480,
          "time": 104.99995799999999,
          "velocity": 0.3779527559055118
        },
        {
          "duration": 3.2777764666666656,
          "durationTicks": 1888,
          "midi": 55,
          "name": "G3",
          "ticks": 61440,
          "time": 106.666624,
          "velocity": 0.3779527559055118
        },
        {
          "duration": 3.2777764666666656,
          "durationTicks": 1888,
          "midi": 58,
          "name": "A#3",
          "ticks": 61440,
          "time": 106.666624,
          "velocity": 0.3779527559055118
        },
        {
          "duration": 3.2777764666666656,
          "durationTicks": 1888,
          "midi": 49,
          "name": "C#3",
          "ticks": 63360,
          "time": 109.999956,
          "velocity": 0.3779527559055118
        },
        {
          "duration": 3.2777764666666656,
          "durationTicks": 1888,
          "midi": 58,
          "name": "A#3",
          "ticks": 63360,
          "time": 109.999956,
          "velocity": 0.3779527559055118
        },
        {
          "duration": 3.2777764666666656,
          "durationTicks": 1888,
          "midi": 49,
          "name": "C#3",
          "ticks": 65280,
          "time": 113.333288,
          "velocity": 0.3779527559055118
        },
        {
          "duration": 1.6111104666666733,
          "durationTicks": 928,
          "midi": 59,
          "name": "B3",
          "ticks": 65280,
          "time": 113.333288,
          "velocity": 0.3779527559055118
        },
        {
          "duration": 1.6111104666666591,
          "durationTicks": 928,
          "midi": 57,
          "name": "A3",
          "ticks": 66240,
          "time": 114.999954,
          "velocity": 0.3779527559055118
        },
        {
          "duration": 3.2777764666666798,
          "durationTicks": 1888,
          "midi": 48,
          "name": "C3",
          "ticks": 67200,
          "time": 116.66662,
          "velocity": 0.3779527559055118
        },
        {
          "duration": 3.2777764666666798,
          "durationTicks": 1888,
          "midi": 57,
          "name": "A3",
          "ticks": 67200,
          "time": 116.66662,
          "velocity": 0.3779527559055118
        },
        {
          "duration": 1.6111104666666733,
          "durationTicks": 928,
          "midi": 48,
          "name": "C3",
          "ticks": 69120,
          "time": 119.999952,
          "velocity": 0.3779527559055118
        },
        {
          "duration": 1.6631937791666758,
          "durationTicks": 958,
          "midi": 58,
          "name": "A#3",
          "ticks": 69120,
          "time": 119.999952,
          "velocity": 0.3779527559055118
        },
        {
          "duration": 1.6111104666666733,
          "durationTicks": 928,
          "midi": 48,
          "name": "C3",
          "ticks": 70080,
          "time": 121.666618,
          "velocity": 0.3779527559055118
        },
        {
          "duration": 1.6111104666666733,
          "durationTicks": 928,
          "midi": 56,
          "name": "G#3",
          "ticks": 70080,
          "time": 121.666618,
          "velocity": 0.3779527559055118
        },
        {
          "duration": 3.2777764666666798,
          "durationTicks": 1888,
          "midi": 48,
          "name": "C3",
          "ticks": 71040,
          "time": 123.33328399999999,
          "velocity": 0.3779527559055118
        },
        {
          "duration": 3.2777764666666798,
          "durationTicks": 1888,
          "midi": 55,
          "name": "G3",
          "ticks": 71040,
          "time": 123.33328399999999,
          "velocity": 0.3779527559055118
        },
        {
          "duration": 4.16319277916665,
          "durationTicks": 2398,
          "midi": 53,
          "name": "F3",
          "ticks": 72960,
          "time": 126.666616,
          "velocity": 0.3779527559055118
        },
        {
          "duration": 4.16319277916665,
          "durationTicks": 2398,
          "midi": 57,
          "name": "A3",
          "ticks": 72960,
          "time": 126.666616,
          "velocity": 0.3779527559055118
        }
      ]
    },
    {
      "channel": 0,
      "controlChanges": {},
      "pitchBends": [],
      "instrument": {
        "family": "piano",
        "number": 0,
        "name": "acoustic grand piano"
      },
      "name": "Trumpet in D",
      "notes": [],
      "endOfTrackTicks": 28800
    },
    {
      "channel": 2,
      "controlChanges": {
        "7": [
          {
            "number": 7,
            "ticks": 0,
            "time": 0,
            "value": 0.7559055118110236
          }
        ],
        "10": [
          {
            "number": 10,
            "ticks": 0,
            "time": 0,
            "value": 0.47244094488188976
          }
        ],
        "11": [
          {
            "number": 11,
            "ticks": 0,
            "time": 0,
            "value": 1
          }
        ]
      },
      "pitchBends": [],
      "instrument": {
        "family": "brass",
        "number": 56,
        "name": "trumpet"
      },
      "name": "",
      "notes": [
        {
          "duration": 0.8298607791666667,
          "durationTicks": 478,
          "midi": 57,
          "name": "A3",
          "ticks": 0,
          "time": 0,
          "velocity": 0.5669291338582677
        },
        {
          "duration": 0.8298607791666667,
          "durationTicks": 478,
          "midi": 69,
          "name": "A4",
          "ticks": 0,
          "time": 0,
          "velocity": 0.5669291338582677
        },
        {
          "duration": 0.8298607791666666,
          "durationTicks": 478,
          "midi": 57,
          "name": "A3",
          "ticks": 960,
          "time": 1.666666,
          "velocity": 0.5669291338582677
        },
        {
          "duration": 0.8298607791666666,
          "durationTicks": 478,
          "midi": 69,
          "name": "A4",
          "ticks": 960,
          "time": 1.666666,
          "velocity": 0.5669291338582677
        },
        {
          "duration": 0.8298607791666668,
          "durationTicks": 478,
          "midi": 62,
          "name": "D4",
          "ticks": 1920,
          "time": 3.333332,
          "velocity": 0.5669291338582677
        },
        {
          "duration": 0.8298607791666668,
          "durationTicks": 478,
          "midi": 74,
          "name": "D5",
          "ticks": 1920,
          "time": 3.333332,
          "velocity": 0.5669291338582677
        },
        {
          "duration": 0.8298607791666672,
          "durationTicks": 478,
          "midi": 62,
          "name": "D4",
          "ticks": 2880,
          "time": 4.999998,
          "velocity": 0.5669291338582677
        },
        {
          "duration": 0.8298607791666672,
          "durationTicks": 478,
          "midi": 74,
          "name": "D5",
          "ticks": 2880,
          "time": 4.999998,
          "velocity": 0.5669291338582677
        },
        {
          "duration": 0.8298607791666672,
          "durationTicks": 478,
          "midi": 69,
          "name": "A4",
          "ticks": 3840,
          "time": 6.666664,
          "velocity": 0.5669291338582677
        },
        {
          "duration": 0.8298607791666672,
          "durationTicks": 478,
          "midi": 76,
          "name": "E5",
          "ticks": 3840,
          "time": 6.666664,
          "velocity": 0.5669291338582677
        },
        {
          "duration": 0.8298607791666672,
          "durationTicks": 478,
          "midi": 69,
          "name": "A4",
          "ticks": 4800,
          "time": 8.33333,
          "velocity": 0.5669291338582677
        },
        {
          "duration": 0.8298607791666672,
          "durationTicks": 478,
          "midi": 76,
          "name": "E5",
          "ticks": 4800,
          "time": 8.33333,
          "velocity": 0.5669291338582677
        },
        {
          "duration": 0.8298607791666672,
          "durationTicks": 478,
          "midi": 62,
          "name": "D4",
          "ticks": 5760,
          "time": 9.999996,
          "velocity": 0.5669291338582677
        },
        {
          "duration": 0.8298607791666672,
          "durationTicks": 478,
          "midi": 74,
          "name": "D5",
          "ticks": 5760,
          "time": 9.999996,
          "velocity": 0.5669291338582677
        },
        {
          "duration": 0.8298607791666655,
          "durationTicks": 478,
          "midi": 62,
          "name": "D4",
          "ticks": 6720,
          "time": 11.666662,
          "velocity": 0.5669291338582677
        },
        {
          "duration": 0.8298607791666655,
          "durationTicks": 478,
          "midi": 69,
          "name": "A4",
          "ticks": 6720,
          "time": 11.666662,
          "velocity": 0.5669291338582677
        },
        {
          "duration": 0.8298607791666672,
          "durationTicks": 478,
          "midi": 76,
          "name": "E5",
          "ticks": 7680,
          "time": 13.333328,
          "velocity": 0.5669291338582677
        },
        {
          "duration": 0.8298607791666672,
          "durationTicks": 478,
          "midi": 69,
          "name": "A4",
          "ticks": 8640,
          "time": 14.999994,
          "velocity": 0.5669291338582677
        },
        {
          "duration": 0.8298607791666655,
          "durationTicks": 478,
          "midi": 76,
          "name": "E5",
          "ticks": 9600,
          "time": 16.66666,
          "velocity": 0.5669291338582677
        },
        {
          "duration": 0.8298607791666655,
          "durationTicks": 478,
          "midi": 62,
          "name": "D4",
          "ticks": 20160,
          "time": 34.999986,
          "velocity": 0.5669291338582677
        },
        {
          "duration": 0.8298607791666655,
          "durationTicks": 478,
          "midi": 74,
          "name": "D5",
          "ticks": 20160,
          "time": 34.999986,
          "velocity": 0.5669291338582677
        },
        {
          "duration": 0.8298607791666655,
          "durationTicks": 478,
          "midi": 57,
          "name": "A3",
          "ticks": 21120,
          "time": 36.666652,
          "velocity": 0.5669291338582677
        },
        {
          "duration": 0.8298607791666655,
          "durationTicks": 478,
          "midi": 69,
          "name": "A4",
          "ticks": 21120,
          "time": 36.666652,
          "velocity": 0.5669291338582677
        },
        {
          "duration": 0.8298607791666655,
          "durationTicks": 478,
          "midi": 76,
          "name": "E5",
          "ticks": 22080,
          "time": 38.333318,
          "velocity": 0.5669291338582677
        },
        {
          "duration": 0.8298607791666655,
          "durationTicks": 478,
          "midi": 57,
          "name": "A3",
          "ticks": 22980,
          "time": 39.895817375,
          "velocity": 0.5669291338582677
        },
        {
          "duration": 0.8298607791666655,
          "durationTicks": 478,
          "midi": 69,
          "name": "A4",
          "ticks": 23040,
          "time": 39.999984,
          "velocity": 0.5669291338582677
        },
        {
          "duration": 0.8298607791666655,
          "durationTicks": 478,
          "midi": 62,
          "name": "D4",
          "ticks": 24960,
          "time": 43.333315999999996,
          "velocity": 0.5669291338582677
        },
        {
          "duration": 0.8298607791666655,
          "durationTicks": 478,
          "midi": 74,
          "name": "D5",
          "ticks": 24960,
          "time": 43.333315999999996,
          "velocity": 0.5669291338582677
        },
        {
          "duration": 0.8298607791666583,
          "durationTicks": 478,
          "midi": 57,
          "name": "A3",
          "ticks": 25920,
          "time": 44.999982,
          "velocity": 0.5669291338582677
        },
        {
          "duration": 0.8298607791666583,
          "durationTicks": 478,
          "midi": 69,
          "name": "A4",
          "ticks": 25920,
          "time": 44.999982,
          "velocity": 0.5669291338582677
        },
        {
          "duration": 0.8298607791666583,
          "durationTicks": 478,
          "midi": 62,
          "name": "D4",
          "ticks": 26880,
          "time": 46.666648,
          "velocity": 0.5669291338582677
        },
        {
          "duration": 0.8298607791666583,
          "durationTicks": 478,
          "midi": 74,
          "name": "D5",
          "ticks": 26880,
          "time": 46.666648,
          "velocity": 0.5669291338582677
        },
        {
          "duration": 0.8298607791666583,
          "durationTicks": 478,
          "midi": 57,
          "name": "A3",
          "ticks": 27840,
          "time": 48.333314,
          "velocity": 0.5669291338582677
        },
        {
          "duration": 0.8298607791666583,
          "durationTicks": 478,
          "midi": 69,
          "name": "A4",
          "ticks": 27840,
          "time": 48.333314,
          "velocity": 0.5669291338582677
        }
      ]
    },
    {
      "channel": 0,
      "controlChanges": {},
      "pitchBends": [],
      "instrument": {
        "family": "piano",
        "number": 0,
        "name": "acoustic grand piano"
      },
      "name": "Alto Trombone",
      "notes": [],
      "endOfTrackTicks": 76800
    },
    {
      "channel": 3,
      "controlChanges": {
        "7": [
          {
            "number": 7,
            "ticks": 0,
            "time": 0,
            "value": 0.7559055118110236
          }
        ],
        "10": [
          {
            "number": 10,
            "ticks": 0,
            "time": 0,
            "value": 0.6692913385826772
          }
        ],
        "11": [
          {
            "number": 11,
            "ticks": 0,
            "time": 0,
            "value": 1
          }
        ]
      },
      "pitchBends": [],
      "instrument": {
        "family": "brass",
        "number": 57,
        "name": "trombone"
      },
      "name": "",
      "notes": [
        {
          "duration": 0.777777466666663,
          "durationTicks": 448,
          "midi": 60,
          "name": "C4",
          "ticks": 18240,
          "time": 31.666654,
          "velocity": 0.5669291338582677
        },
        {
          "duration": 0.777777466666663,
          "durationTicks": 448,
          "midi": 63,
          "name": "D#4",
          "ticks": 18720,
          "time": 32.499987,
          "velocity": 0.5669291338582677
        },
        {
          "duration": 1.194443966666661,
          "durationTicks": 688,
          "midi": 62,
          "name": "D4",
          "ticks": 19200,
          "time": 33.33332,
          "velocity": 0.5669291338582677
        },
        {
          "duration": 0.361110966666665,
          "durationTicks": 208,
          "midi": 67,
          "name": "G4",
          "ticks": 19920,
          "time": 34.5833195,
          "velocity": 0.5669291338582677
        },
        {
          "duration": 0.777777466666663,
          "durationTicks": 448,
          "midi": 66,
          "name": "F#4",
          "ticks": 20160,
          "time": 34.999986,
          "velocity": 0.5669291338582677
        },
        {
          "duration": 0.777777466666663,
          "durationTicks": 448,
          "midi": 62,
          "name": "D4",
          "ticks": 20640,
          "time": 35.833319,
          "velocity": 0.5669291338582677
        },
        {
          "duration": 1.194443966666661,
          "durationTicks": 688,
          "midi": 64,
          "name": "E4",
          "ticks": 21120,
          "time": 36.666652,
          "velocity": 0.5669291338582677
        },
        {
          "duration": 0.361110966666665,
          "durationTicks": 208,
          "midi": 69,
          "name": "A4",
          "ticks": 21840,
          "time": 37.9166515,
          "velocity": 0.5669291338582677
        },
        {
          "duration": 0.777777466666663,
          "durationTicks": 448,
          "midi": 68,
          "name": "G#4",
          "ticks": 22080,
          "time": 38.333318,
          "velocity": 0.5669291338582677
        },
        {
          "duration": 0.777777466666663,
          "durationTicks": 448,
          "midi": 64,
          "name": "E4",
          "ticks": 22560,
          "time": 39.166651,
          "velocity": 0.5669291338582677
        },
        {
          "duration": 1.1944439666666682,
          "durationTicks": 688,
          "midi": 65,
          "name": "F4",
          "ticks": 23040,
          "time": 39.999984,
          "velocity": 0.5669291338582677
        },
        {
          "duration": 0.361110966666665,
          "durationTicks": 208,
          "midi": 67,
          "name": "G4",
          "ticks": 23760,
          "time": 41.2499835,
          "velocity": 0.5669291338582677
        },
        {
          "duration": 1.1944439666666682,
          "durationTicks": 688,
          "midi": 64,
          "name": "E4",
          "ticks": 24000,
          "time": 41.66665,
          "velocity": 0.5669291338582677
        },
        {
          "duration": 0.361110966666665,
          "durationTicks": 208,
          "midi": 65,
          "name": "F4",
          "ticks": 24720,
          "time": 42.9166495,
          "velocity": 0.5669291338582677
        },
        {
          "duration": 1.1944439666666682,
          "durationTicks": 688,
          "midi": 62,
          "name": "D4",
          "ticks": 24960,
          "time": 43.333315999999996,
          "velocity": 0.5669291338582677
        },
        {
          "duration": 0.361110966666665,
          "durationTicks": 208,
          "midi": 64,
          "name": "E4",
          "ticks": 25680,
          "time": 44.5833155,
          "velocity": 0.5669291338582677
        },
        {
          "duration": 0.777777466666663,
          "durationTicks": 448,
          "midi": 60,
          "name": "C4",
          "ticks": 25920,
          "time": 44.999982,
          "velocity": 0.5669291338582677
        },
        {
          "duration": 0.777777466666663,
          "durationTicks": 448,
          "midi": 58,
          "name": "A#3",
          "ticks": 26400,
          "time": 45.833315,
          "velocity": 0.5669291338582677
        },
        {
          "duration": 0.777777466666663,
          "durationTicks": 448,
          "midi": 57,
          "name": "A3",
          "ticks": 26880,
          "time": 46.666648,
          "velocity": 0.5669291338582677
        },
        {
          "duration": 0.777777466666663,
          "durationTicks": 448,
          "midi": 62,
          "name": "D4",
          "ticks": 27360,
          "time": 47.499981,
          "velocity": 0.5669291338582677
        },
        {
          "duration": 1.6111104666666591,
          "durationTicks": 928,
          "midi": 63,
          "name": "D#4",
          "ticks": 27840,
          "time": 48.333314,
          "velocity": 0.5669291338582677
        },
        {
          "duration": 0.8298607791666655,
          "durationTicks": 478,
          "midi": 64,
          "name": "E4",
          "ticks": 28800,
          "time": 49.99998,
          "velocity": 0.5669291338582677
        },
        {
          "duration": 3.2777764666666798,
          "durationTicks": 1888,
          "midi": 64,
          "name": "E4",
          "ticks": 46080,
          "time": 79.999968,
          "velocity": 0.3779527559055118
        },
        {
          "duration": 3.2777764666666798,
          "durationTicks": 1888,
          "midi": 66,
          "name": "F#4",
          "ticks": 48000,
          "time": 83.3333,
          "velocity": 0.3779527559055118
        },
        {
          "duration": 4.111109466666676,
          "durationTicks": 2368,
          "midi": 67,
          "name": "G4",
          "ticks": 49920,
          "time": 86.66663199999999,
          "velocity": 0.3779527559055118
        },
        {
          "duration": 1.6111104666666733,
          "durationTicks": 928,
          "midi": 68,
          "name": "G#4",
          "ticks": 52320,
          "time": 90.833297,
          "velocity": 0.3779527559055118
        },
        {
          "duration": 0.7777774666666772,
          "durationTicks": 448,
          "midi": 67,
          "name": "G4",
          "ticks": 53280,
          "time": 92.499963,
          "velocity": 0.3779527559055118
        },
        {
          "duration": 3.2777764666666656,
          "durationTicks": 1888,
          "midi": 68,
          "name": "G#4",
          "ticks": 53760,
          "time": 93.333296,
          "velocity": 0.3779527559055118
        },
        {
          "duration": 3.2777764666666656,
          "durationTicks": 1888,
          "midi": 65,
          "name": "F4",
          "ticks": 55680,
          "time": 96.666628,
          "velocity": 0.3779527559055118
        },
        {
          "duration": 4.111109466666662,
          "durationTicks": 2368,
          "midi": 66,
          "name": "F#4",
          "ticks": 57600,
          "time": 99.99996,
          "velocity": 0.3779527559055118
        },
        {
          "duration": 1.6111104666666733,
          "durationTicks": 928,
          "midi": 67,
          "name": "G4",
          "ticks": 60000,
          "time": 104.166625,
          "velocity": 0.3779527559055118
        },
        {
          "duration": 0.777777466666663,
          "durationTicks": 448,
          "midi": 66,
          "name": "F#4",
          "ticks": 60960,
          "time": 105.833291,
          "velocity": 0.3779527559055118
        },
        {
          "duration": 3.2777764666666656,
          "durationTicks": 1888,
          "midi": 67,
          "name": "G4",
          "ticks": 61440,
          "time": 106.666624,
          "velocity": 0.3779527559055118
        },
        {
          "duration": 3.2777764666666656,
          "durationTicks": 1888,
          "midi": 64,
          "name": "E4",
          "ticks": 63360,
          "time": 109.999956,
          "velocity": 0.3779527559055118
        },
        {
          "duration": 1.6111104666666733,
          "durationTicks": 928,
          "midi": 65,
          "name": "F4",
          "ticks": 65280,
          "time": 113.333288,
          "velocity": 0.3779527559055118
        },
        {
          "duration": 1.6111104666666591,
          "durationTicks": 928,
          "midi": 66,
          "name": "F#4",
          "ticks": 66240,
          "time": 114.999954,
          "velocity": 0.3779527559055118
        },
        {
          "duration": 3.2777764666666798,
          "durationTicks": 1888,
          "midi": 63,
          "name": "D#4",
          "ticks": 67200,
          "time": 116.66662,
          "velocity": 0.3779527559055118
        },
        {
          "duration": 1.6631937791666758,
          "durationTicks": 958,
          "midi": 64,
          "name": "E4",
          "ticks": 69120,
          "time": 119.999952,
          "velocity": 0.3779527559055118
        },
        {
          "duration": 3.2777764666666656,
          "durationTicks": 1888,
          "midi": 65,
          "name": "F4",
          "ticks": 70080,
          "time": 121.666618,
          "velocity": 0.3779527559055118
        },
        {
          "duration": 1.6111104666666733,
          "durationTicks": 928,
          "midi": 64,
          "name": "E4",
          "ticks": 72000,
          "time": 124.99995,
          "velocity": 0.3779527559055118
        },
        {
          "duration": 4.16319277916665,
          "durationTicks": 2398,
          "midi": 65,
          "name": "F4",
          "ticks": 72960,
          "time": 126.666616,
          "velocity": 0.3779527559055118
        }
      ]
    },
    {
      "channel": 0,
      "controlChanges": {},
      "pitchBends": [],
      "instrument": {
        "family": "piano",
        "number": 0,
        "name": "acoustic grand piano"
      },
      "name": "Tenor Trombone",
      "notes": [],
      "endOfTrackTicks": 76800
    },
    {
      "channel": 3,
      "controlChanges": {
        "7": [
          {
            "number": 7,
            "ticks": 0,
            "time": 0,
            "value": 0.7559055118110236
          }
        ],
        "10": [
          {
            "number": 10,
            "ticks": 0,
            "time": 0,
            "value": 0.6692913385826772
          }
        ],
        "11": [
          {
            "number": 11,
            "ticks": 0,
            "time": 0,
            "value": 1
          }
        ]
      },
      "pitchBends": [],
      "instrument": {
        "family": "brass",
        "number": 57,
        "name": "trombone"
      },
      "name": "",
      "notes": [
        {
          "duration": 0.5694442166666667,
          "durationTicks": 328,
          "midi": 60,
          "name": "C4",
          "ticks": 1440,
          "time": 2.499999,
          "velocity": 0.5669291338582677
        },
        {
          "duration": 0.1527777166666664,
          "durationTicks": 88,
          "midi": 57,
          "name": "A3",
          "ticks": 1800,
          "time": 3.12499875,
          "velocity": 0.5669291338582677
        },
        {
          "duration": 0.777777466666667,
          "durationTicks": 448,
          "midi": 62,
          "name": "D4",
          "ticks": 1920,
          "time": 3.333332,
          "velocity": 0.5669291338582677
        },
        {
          "duration": 0.8298607791666663,
          "durationTicks": 478,
          "midi": 56,
          "name": "G#3",
          "ticks": 2400,
          "time": 4.166665,
          "velocity": 0.5669291338582677
        },
        {
          "duration": 0.5694442166666667,
          "durationTicks": 328,
          "midi": 62,
          "name": "D4",
          "ticks": 3360,
          "time": 5.833331,
          "velocity": 0.5669291338582677
        },
        {
          "duration": 0.15277771666666684,
          "durationTicks": 88,
          "midi": 59,
          "name": "B3",
          "ticks": 3720,
          "time": 6.45833075,
          "velocity": 0.5669291338582677
        },
        {
          "duration": 0.7777774666666666,
          "durationTicks": 448,
          "midi": 64,
          "name": "E4",
          "ticks": 3840,
          "time": 6.666664,
          "velocity": 0.5669291338582677
        },
        {
          "duration": 0.8298607791666663,
          "durationTicks": 478,
          "midi": 57,
          "name": "A3",
          "ticks": 4320,
          "time": 7.499997,
          "velocity": 0.5669291338582677
        },
        {
          "duration": 0.5694442166666676,
          "durationTicks": 328,
          "midi": 65,
          "name": "F4",
          "ticks": 6240,
          "time": 10.833328999999999,
          "velocity": 0.5669291338582677
        },
        {
          "duration": 0.15277771666666773,
          "durationTicks": 88,
          "midi": 64,
          "name": "E4",
          "ticks": 6600,
          "time": 11.45832875,
          "velocity": 0.5669291338582677
        },
        {
          "duration": 0.5694442166666658,
          "durationTicks": 328,
          "midi": 62,
          "name": "D4",
          "ticks": 6720,
          "time": 11.666662,
          "velocity": 0.5669291338582677
        },
        {
          "duration": 0.15277771666666773,
          "durationTicks": 88,
          "midi": 60,
          "name": "C4",
          "ticks": 7080,
          "time": 12.29166175,
          "velocity": 0.5669291338582677
        },
        {
          "duration": 0.5694442166666658,
          "durationTicks": 328,
          "midi": 59,
          "name": "B3",
          "ticks": 7200,
          "time": 12.499995,
          "velocity": 0.5669291338582677
        },
        {
          "duration": 0.15277771666666773,
          "durationTicks": 88,
          "midi": 57,
          "name": "A3",
          "ticks": 7560,
          "time": 13.124994749999999,
          "velocity": 0.5669291338582677
        },
        {
          "duration": 0.5694442166666676,
          "durationTicks": 328,
          "midi": 56,
          "name": "G#3",
          "ticks": 7680,
          "time": 13.333328,
          "velocity": 0.5669291338582677
        },
        {
          "duration": 0.15277771666666595,
          "durationTicks": 88,
          "midi": 52,
          "name": "E3",
          "ticks": 8040,
          "time": 13.95832775,
          "velocity": 0.5669291338582677
        },
        {
          "duration": 0.5694442166666676,
          "durationTicks": 328,
          "midi": 62,
          "name": "D4",
          "ticks": 8160,
          "time": 14.166661,
          "velocity": 0.5669291338582677
        },
        {
          "duration": 0.15277771666666595,
          "durationTicks": 88,
          "midi": 62,
          "name": "D4",
          "ticks": 8520,
          "time": 14.79166075,
          "velocity": 0.5669291338582677
        },
        {
          "duration": 0.5694442166666676,
          "durationTicks": 328,
          "midi": 63,
          "name": "D#4",
          "ticks": 8640,
          "time": 14.999994,
          "velocity": 0.5669291338582677
        },
        {
          "duration": 0.15277771666666773,
          "durationTicks": 88,
          "midi": 63,
          "name": "D#4",
          "ticks": 9000,
          "time": 15.62499375,
          "velocity": 0.5669291338582677
        },
        {
          "duration": 0.5694442166666676,
          "durationTicks": 328,
          "midi": 63,
          "name": "D#4",
          "ticks": 9120,
          "time": 15.833327,
          "velocity": 0.5669291338582677
        },
        {
          "duration": 0.15277771666666595,
          "durationTicks": 88,
          "midi": 63,
          "name": "D#4",
          "ticks": 9480,
          "time": 16.45832675,
          "velocity": 0.5669291338582677
        },
        {
          "duration": 0.8298607791666655,
          "durationTicks": 478,
          "midi": 64,
          "name": "E4",
          "ticks": 9600,
          "time": 16.66666,
          "velocity": 0.5669291338582677
        },
        {
          "duration": 1.194443966666661,
          "durationTicks": 688,
          "midi": 55,
          "name": "G3",
          "ticks": 18240,
          "time": 31.666654,
          "velocity": 0.5669291338582677
        },
        {
          "duration": 0.3611109666666579,
          "durationTicks": 208,
          "midi": 60,
          "name": "C4",
          "ticks": 18960,
          "time": 32.9166535,
          "velocity": 0.5669291338582677
        },
        {
          "duration": 0.777777466666663,
          "durationTicks": 448,
          "midi": 59,
          "name": "B3",
          "ticks": 19200,
          "time": 33.33332,
          "velocity": 0.5669291338582677
        },
        {
          "duration": 0.7777774666666701,
          "durationTicks": 448,
          "midi": 58,
          "name": "A#3",
          "ticks": 19680,
          "time": 34.166653,
          "velocity": 0.5669291338582677
        },
        {
          "duration": 1.194443966666661,
          "durationTicks": 688,
          "midi": 57,
          "name": "A3",
          "ticks": 20160,
          "time": 34.999986,
          "velocity": 0.5669291338582677
        },
        {
          "duration": 0.361110966666665,
          "durationTicks": 208,
          "midi": 62,
          "name": "D4",
          "ticks": 20880,
          "time": 36.2499855,
          "velocity": 0.5669291338582677
        },
        {
          "duration": 0.777777466666663,
          "durationTicks": 448,
          "midi": 61,
          "name": "C#4",
          "ticks": 21120,
          "time": 36.666652,
          "velocity": 0.5669291338582677
        },
        {
          "duration": 0.777777466666663,
          "durationTicks": 448,
          "midi": 60,
          "name": "C4",
          "ticks": 21600,
          "time": 37.499985,
          "velocity": 0.5669291338582677
        },
        {
          "duration": 1.1944439666666682,
          "durationTicks": 688,
          "midi": 59,
          "name": "B3",
          "ticks": 22080,
          "time": 38.333318,
          "velocity": 0.5669291338582677
        },
        {
          "duration": 0.361110966666665,
          "durationTicks": 208,
          "midi": 64,
          "name": "E4",
          "ticks": 22800,
          "time": 39.5833175,
          "velocity": 0.5669291338582677
        },
        {
          "duration": 0.777777466666663,
          "durationTicks": 448,
          "midi": 64,
          "name": "E4",
          "ticks": 23040,
          "time": 39.999984,
          "velocity": 0.5669291338582677
        },
        {
          "duration": 1.6111104666666591,
          "durationTicks": 928,
          "midi": 62,
          "name": "D4",
          "ticks": 23520,
          "time": 40.833317,
          "velocity": 0.5669291338582677
        },
        {
          "duration": 1.6111104666666662,
          "durationTicks": 928,
          "midi": 60,
          "name": "C4",
          "ticks": 24480,
          "time": 42.499983,
          "velocity": 0.5669291338582677
        },
        {
          "duration": 0.777777466666663,
          "durationTicks": 448,
          "midi": 59,
          "name": "B3",
          "ticks": 25440,
          "time": 44.166649,
          "velocity": 0.5669291338582677
        },
        {
          "duration": 0.777777466666663,
          "durationTicks": 448,
          "midi": 57,
          "name": "A3",
          "ticks": 25920,
          "time": 44.999982,
          "velocity": 0.5669291338582677
        },
        {
          "duration": 0.777777466666663,
          "durationTicks": 448,
          "midi": 61,
          "name": "C#4",
          "ticks": 26400,
          "time": 45.833315,
          "velocity": 0.5669291338582677
        },
        {
          "duration": 0.777777466666663,
          "durationTicks": 448,
          "midi": 62,
          "name": "D4",
          "ticks": 26880,
          "time": 46.666648,
          "velocity": 0.5669291338582677
        },
        {
          "duration": 0.5694442166666676,
          "durationTicks": 328,
          "midi": 57,
          "name": "A3",
          "ticks": 27360,
          "time": 47.499981,
          "velocity": 0.5669291338582677
        },
        {
          "duration": 0.1527777166666624,
          "durationTicks": 88,
          "midi": 59,
          "name": "B3",
          "ticks": 27720,
          "time": 48.12498075,
          "velocity": 0.5669291338582677
        },
        {
          "duration": 0.777777466666663,
          "durationTicks": 448,
          "midi": 60,
          "name": "C4",
          "ticks": 27840,
          "time": 48.333314,
          "velocity": 0.5669291338582677
        },
        {
          "duration": 0.5694442166666676,
          "durationTicks": 328,
          "midi": 59,
          "name": "B3",
          "ticks": 28320,
          "time": 49.166647,
          "velocity": 0.5669291338582677
        },
        {
          "duration": 0.1527777166666624,
          "durationTicks": 88,
          "midi": 57,
          "name": "A3",
          "ticks": 28680,
          "time": 49.79164675,
          "velocity": 0.5669291338582677
        },
        {
          "duration": 0.8298607791666655,
          "durationTicks": 478,
          "midi": 56,
          "name": "G#3",
          "ticks": 28800,
          "time": 49.99998,
          "velocity": 0.5669291338582677
        },
        {
          "duration": 3.2777764666666798,
          "durationTicks": 1888,
          "midi": 60,
          "name": "C4",
          "ticks": 46080,
          "time": 79.999968,
          "velocity": 0.3779527559055118
        },
        {
          "duration": 3.2777764666666798,
          "durationTicks": 1888,
          "midi": 60,
          "name": "C4",
          "ticks": 48000,
          "time": 83.3333,
          "velocity": 0.3779527559055118
        },
        {
          "duration": 3.2777764666666798,
          "durationTicks": 1888,
          "midi": 58,
          "name": "A#3",
          "ticks": 49920,
          "time": 86.66663199999999,
          "velocity": 0.3779527559055118
        },
        {
          "duration": 1.6111104666666591,
          "durationTicks": 928,
          "midi": 59,
          "name": "B3",
          "ticks": 51840,
          "time": 89.999964,
          "velocity": 0.3779527559055118
        },
        {
          "duration": 1.6111104666666733,
          "durationTicks": 928,
          "midi": 58,
          "name": "A#3",
          "ticks": 52800,
          "time": 91.66663,
          "velocity": 0.3779527559055118
        },
        {
          "duration": 3.2777764666666656,
          "durationTicks": 1888,
          "midi": 56,
          "name": "G#3",
          "ticks": 53760,
          "time": 93.333296,
          "velocity": 0.3779527559055118
        },
        {
          "duration": 3.2777764666666656,
          "durationTicks": 1888,
          "midi": 59,
          "name": "B3",
          "ticks": 55680,
          "time": 96.666628,
          "velocity": 0.3779527559055118
        },
        {
          "duration": 3.2777764666666656,
          "durationTicks": 1888,
          "midi": 60,
          "name": "C4",
          "ticks": 57600,
          "time": 99.99996,
          "velocity": 0.3779527559055118
        },
        {
          "duration": 1.6111104666666733,
          "durationTicks": 928,
          "midi": 58,
          "name": "A#3",
          "ticks": 59520,
          "time": 103.333292,
          "velocity": 0.3779527559055118
        },
        {
          "duration": 1.6111104666666733,
          "durationTicks": 928,
          "midi": 57,
          "name": "A3",
          "ticks": 60480,
          "time": 104.99995799999999,
          "velocity": 0.3779527559055118
        },
        {
          "duration": 3.2777764666666656,
          "durationTicks": 1888,
          "midi": 58,
          "name": "A#3",
          "ticks": 61440,
          "time": 106.666624,
          "velocity": 0.3779527559055118
        },
        {
          "duration": 3.2777764666666656,
          "durationTicks": 1888,
          "midi": 58,
          "name": "A#3",
          "ticks": 63360,
          "time": 109.999956,
          "velocity": 0.3779527559055118
        },
        {
          "duration": 1.6111104666666733,
          "durationTicks": 928,
          "midi": 59,
          "name": "B3",
          "ticks": 65280,
          "time": 113.333288,
          "velocity": 0.3779527559055118
        },
        {
          "duration": 1.6111104666666591,
          "durationTicks": 928,
          "midi": 57,
          "name": "A3",
          "ticks": 66240,
          "time": 114.999954,
          "velocity": 0.3779527559055118
        },
        {
          "duration": 3.2777764666666798,
          "durationTicks": 1888,
          "midi": 57,
          "name": "A3",
          "ticks": 67200,
          "time": 116.66662,
          "velocity": 0.3779527559055118
        },
        {
          "duration": 1.6111104666666733,
          "durationTicks": 928,
          "midi": 58,
          "name": "A#3",
          "ticks": 69120,
          "time": 119.999952,
          "velocity": 0.3779527559055118
        },
        {
          "duration": 1.6111104666666733,
          "durationTicks": 928,
          "midi": 56,
          "name": "G#3",
          "ticks": 70080,
          "time": 121.666618,
          "velocity": 0.3779527559055118
        },
        {
          "duration": 3.2777764666666798,
          "durationTicks": 1888,
          "midi": 55,
          "name": "G3",
          "ticks": 71040,
          "time": 123.33328399999999,
          "velocity": 0.3779527559055118
        },
        {
          "duration": 4.16319277916665,
          "durationTicks": 2398,
          "midi": 57,
          "name": "A3",
          "ticks": 72960,
          "time": 126.666616,
          "velocity": 0.3779527559055118
        }
      ]
    },
    {
      "channel": 0,
      "controlChanges": {},
      "pitchBends": [],
      "instrument": {
        "family": "piano",
        "number": 0,
        "name": "acoustic grand piano"
      },
      "name": "Baritone Trombone",
      "notes": [],
      "endOfTrackTicks": 76800
    },
    {
      "channel": 3,
      "controlChanges": {
        "7": [
          {
            "number": 7,
            "ticks": 0,
            "time": 0,
            "value": 0.7559055118110236
          }
        ],
        "10": [
          {
            "number": 10,
            "ticks": 0,
            "time": 0,
            "value": 0.6692913385826772
          }
        ],
        "11": [
          {
            "number": 11,
            "ticks": 0,
            "time": 0,
            "value": 1
          }
        ]
      },
      "pitchBends": [],
      "instrument": {
        "family": "brass",
        "number": 57,
        "name": "trombone"
      },
      "name": "",
      "notes": [
        {
          "duration": 0.5694442166666668,
          "durationTicks": 328,
          "midi": 57,
          "name": "A3",
          "ticks": 480,
          "time": 0.833333,
          "velocity": 0.5669291338582677
        },
        {
          "duration": 0.15277771666666662,
          "durationTicks": 88,
          "midi": 52,
          "name": "E3",
          "ticks": 840,
          "time": 1.45833275,
          "velocity": 0.5669291338582677
        },
        {
          "duration": 0.7777774666666664,
          "durationTicks": 448,
          "midi": 60,
          "name": "C4",
          "ticks": 960,
          "time": 1.666666,
          "velocity": 0.5669291338582677
        },
        {
          "duration": 0.8298607791666668,
          "durationTicks": 478,
          "midi": 57,
          "name": "A3",
          "ticks": 1440,
          "time": 2.499999,
          "velocity": 0.5669291338582677
        },
        {
          "duration": 0.5694442166666667,
          "durationTicks": 328,
          "midi": 59,
          "name": "B3",
          "ticks": 2400,
          "time": 4.166665,
          "velocity": 0.5669291338582677
        },
        {
          "duration": 0.15277771666666684,
          "durationTicks": 88,
          "midi": 52,
          "name": "E3",
          "ticks": 2760,
          "time": 4.79166475,
          "velocity": 0.5669291338582677
        },
        {
          "duration": 0.7777774666666675,
          "durationTicks": 448,
          "midi": 62,
          "name": "D4",
          "ticks": 2880,
          "time": 4.999998,
          "velocity": 0.5669291338582677
        },
        {
          "duration": 0.8298607791666663,
          "durationTicks": 478,
          "midi": 56,
          "name": "G#3",
          "ticks": 3360,
          "time": 5.833331,
          "velocity": 0.5669291338582677
        },
        {
          "duration": 0.5694442166666667,
          "durationTicks": 328,
          "midi": 64,
          "name": "E4",
          "ticks": 4320,
          "time": 7.499997,
          "velocity": 0.5669291338582677
        },
        {
          "duration": 0.15277771666666773,
          "durationTicks": 88,
          "midi": 62,
          "name": "D4",
          "ticks": 4680,
          "time": 8.12499675,
          "velocity": 0.5669291338582677
        },
        {
          "duration": 0.5694442166666658,
          "durationTicks": 328,
          "midi": 60,
          "name": "C4",
          "ticks": 4800,
          "time": 8.33333,
          "velocity": 0.5669291338582677
        },
        {
          "duration": 0.15277771666666595,
          "durationTicks": 88,
          "midi": 59,
          "name": "B3",
          "ticks": 5160,
          "time": 8.95832975,
          "velocity": 0.5669291338582677
        },
        {
          "duration": 0.5694442166666676,
          "durationTicks": 328,
          "midi": 57,
          "name": "A3",
          "ticks": 5280,
          "time": 9.166663,
          "velocity": 0.5669291338582677
        },
        {
          "duration": 0.15277771666666595,
          "durationTicks": 88,
          "midi": 55,
          "name": "G3",
          "ticks": 5640,
          "time": 9.79166275,
          "velocity": 0.5669291338582677
        },
        {
          "duration": 0.7777774666666666,
          "durationTicks": 448,
          "midi": 53,
          "name": "F3",
          "ticks": 5760,
          "time": 9.999996,
          "velocity": 0.5669291338582677
        },
        {
          "duration": 0.8298607791666672,
          "durationTicks": 478,
          "midi": 50,
          "name": "D3",
          "ticks": 6240,
          "time": 10.833328999999999,
          "velocity": 0.5669291338582677
        },
        {
          "duration": 0.5694442166666658,
          "durationTicks": 328,
          "midi": 62,
          "name": "D4",
          "ticks": 7200,
          "time": 12.499995,
          "velocity": 0.5669291338582677
        },
        {
          "duration": 0.15277771666666773,
          "durationTicks": 88,
          "midi": 62,
          "name": "D4",
          "ticks": 7560,
          "time": 13.124994749999999,
          "velocity": 0.5669291338582677
        },
        {
          "duration": 0.5694442166666676,
          "durationTicks": 328,
          "midi": 62,
          "name": "D4",
          "ticks": 7680,
          "time": 13.333328,
          "velocity": 0.5669291338582677
        },
        {
          "duration": 0.15277771666666595,
          "durationTicks": 88,
          "midi": 52,
          "name": "E3",
          "ticks": 8040,
          "time": 13.95832775,
          "velocity": 0.5669291338582677
        },
        {
          "duration": 0.5694442166666676,
          "durationTicks": 328,
          "midi": 56,
          "name": "G#3",
          "ticks": 8160,
          "time": 14.166661,
          "velocity": 0.5669291338582677
        },
        {
          "duration": 0.15277771666666595,
          "durationTicks": 88,
          "midi": 52,
          "name": "E3",
          "ticks": 8520,
          "time": 14.79166075,
          "velocity": 0.5669291338582677
        },
        {
          "duration": 0.5694442166666676,
          "durationTicks": 328,
          "midi": 60,
          "name": "C4",
          "ticks": 8640,
          "time": 14.999994,
          "velocity": 0.5669291338582677
        },
        {
          "duration": 0.15277771666666773,
          "durationTicks": 88,
          "midi": 57,
          "name": "A3",
          "ticks": 9000,
          "time": 15.62499375,
          "velocity": 0.5669291338582677
        },
        {
          "duration": 0.5694442166666676,
          "durationTicks": 328,
          "midi": 60,
          "name": "C4",
          "ticks": 9120,
          "time": 15.833327,
          "velocity": 0.5669291338582677
        },
        {
          "duration": 0.15277771666666595,
          "durationTicks": 88,
          "midi": 57,
          "name": "A3",
          "ticks": 9480,
          "time": 16.45832675,
          "velocity": 0.5669291338582677
        },
        {
          "duration": 0.8298607791666655,
          "durationTicks": 478,
          "midi": 56,
          "name": "G#3",
          "ticks": 9600,
          "time": 16.66666,
          "velocity": 0.5669291338582677
        },
        {
          "duration": 1.6111104666666591,
          "durationTicks": 928,
          "midi": 48,
          "name": "C3",
          "ticks": 18240,
          "time": 31.666654,
          "velocity": 0.5669291338582677
        },
        {
          "duration": 1.6111104666666662,
          "durationTicks": 928,
          "midi": 55,
          "name": "G3",
          "ticks": 19200,
          "time": 33.33332,
          "velocity": 0.5669291338582677
        },
        {
          "duration": 1.6111104666666662,
          "durationTicks": 928,
          "midi": 50,
          "name": "D3",
          "ticks": 20160,
          "time": 34.999986,
          "velocity": 0.5669291338582677
        },
        {
          "duration": 1.6111104666666662,
          "durationTicks": 928,
          "midi": 57,
          "name": "A3",
          "ticks": 21120,
          "time": 36.666652,
          "velocity": 0.5669291338582677
        },
        {
          "duration": 1.6111104666666662,
          "durationTicks": 928,
          "midi": 52,
          "name": "E3",
          "ticks": 22080,
          "time": 38.333318,
          "velocity": 0.5669291338582677
        },
        {
          "duration": 0.777777466666663,
          "durationTicks": 448,
          "midi": 57,
          "name": "A3",
          "ticks": 23040,
          "time": 39.999984,
          "velocity": 0.5669291338582677
        },
        {
          "duration": 0.777777466666663,
          "durationTicks": 448,
          "midi": 59,
          "name": "B3",
          "ticks": 23520,
          "time": 40.833317,
          "velocity": 0.5669291338582677
        },
        {
          "duration": 0.777777466666663,
          "durationTicks": 448,
          "midi": 60,
          "name": "C4",
          "ticks": 24000,
          "time": 41.66665,
          "velocity": 0.5669291338582677
        },
        {
          "duration": 0.777777466666663,
          "durationTicks": 448,
          "midi": 52,
          "name": "E3",
          "ticks": 24480,
          "time": 42.499983,
          "velocity": 0.5669291338582677
        },
        {
          "duration": 0.7777774666666701,
          "durationTicks": 448,
          "midi": 54,
          "name": "F#3",
          "ticks": 24960,
          "time": 43.333315999999996,
          "velocity": 0.5669291338582677
        },
        {
          "duration": 0.777777466666663,
          "durationTicks": 448,
          "midi": 56,
          "name": "G#3",
          "ticks": 25440,
          "time": 44.166649,
          "velocity": 0.5669291338582677
        },
        {
          "duration": 0.777777466666663,
          "durationTicks": 448,
          "midi": 57,
          "name": "A3",
          "ticks": 25920,
          "time": 44.999982,
          "velocity": 0.5669291338582677
        },
        {
          "duration": 0.777777466666663,
          "durationTicks": 448,
          "midi": 55,
          "name": "G3",
          "ticks": 26400,
          "time": 45.833315,
          "velocity": 0.5669291338582677
        },
        {
          "duration": 1.6111104666666591,
          "durationTicks": 928,
          "midi": 54,
          "name": "F#3",
          "ticks": 26880,
          "time": 46.666648,
          "velocity": 0.5669291338582677
        },
        {
          "duration": 1.6111104666666591,
          "durationTicks": 928,
          "midi": 53,
          "name": "F3",
          "ticks": 27840,
          "time": 48.333314,
          "velocity": 0.5669291338582677
        },
        {
          "duration": 0.8298607791666655,
          "durationTicks": 478,
          "midi": 52,
          "name": "E3",
          "ticks": 28800,
          "time": 49.99998,
          "velocity": 0.5669291338582677
        },
        {
          "duration": 3.2777764666666798,
          "durationTicks": 1888,
          "midi": 57,
          "name": "A3",
          "ticks": 46080,
          "time": 79.999968,
          "velocity": 0.3779527559055118
        },
        {
          "duration": 6.611108466666678,
          "durationTicks": 3808,
          "midi": 51,
          "name": "D#3",
          "ticks": 48000,
          "time": 83.3333,
          "velocity": 0.3779527559055118
        },
        {
          "duration": 3.2777764666666656,
          "durationTicks": 1888,
          "midi": 51,
          "name": "D#3",
          "ticks": 51840,
          "time": 89.999964,
          "velocity": 0.3779527559055118
        },
        {
          "duration": 3.2777764666666656,
          "durationTicks": 1888,
          "midi": 44,
          "name": "G#2",
          "ticks": 53760,
          "time": 93.333296,
          "velocity": 0.3779527559055118
        },
        {
          "duration": 3.2777764666666656,
          "durationTicks": 1888,
          "midi": 50,
          "name": "D3",
          "ticks": 55680,
          "time": 96.666628,
          "velocity": 0.3779527559055118
        },
        {
          "duration": 3.2777764666666656,
          "durationTicks": 1888,
          "midi": 50,
          "name": "D3",
          "ticks": 57600,
          "time": 99.99996,
          "velocity": 0.3779527559055118
        },
        {
          "duration": 3.2777764666666656,
          "durationTicks": 1888,
          "midi": 50,
          "name": "D3",
          "ticks": 59520,
          "time": 103.333292,
          "velocity": 0.3779527559055118
        },
        {
          "duration": 3.2777764666666656,
          "durationTicks": 1888,
          "midi": 43,
          "name": "G2",
          "ticks": 61440,
          "time": 106.666624,
          "velocity": 0.3779527559055118
        },
        {
          "duration": 3.2777764666666656,
          "durationTicks": 1888,
          "midi": 49,
          "name": "C#3",
          "ticks": 63360,
          "time": 109.999956,
          "velocity": 0.3779527559055118
        },
        {
          "duration": 3.2777764666666656,
          "durationTicks": 1888,
          "midi": 49,
          "name": "C#3",
          "ticks": 65280,
          "time": 113.333288,
          "velocity": 0.3779527559055118
        },
        {
          "duration": 3.2777764666666798,
          "durationTicks": 1888,
          "midi": 48,
          "name": "C3",
          "ticks": 67200,
          "time": 116.66662,
          "velocity": 0.3779527559055118
        },
        {
          "duration": 3.2777764666666798,
          "durationTicks": 1888,
          "midi": 48,
          "name": "C3",
          "ticks": 69120,
          "time": 119.999952,
          "velocity": 0.3779527559055118
        },
        {
          "duration": 3.2777764666666798,
          "durationTicks": 1888,
          "midi": 48,
          "name": "C3",
          "ticks": 71040,
          "time": 123.33328399999999,
          "velocity": 0.3779527559055118
        },
        {
          "duration": 4.16319277916665,
          "durationTicks": 2398,
          "midi": 41,
          "name": "F2",
          "ticks": 72960,
          "time": 126.666616,
          "velocity": 0.3779527559055118
        }
      ]
    },
    {
      "channel": 0,
      "controlChanges": {},
      "pitchBends": [],
      "instrument": {
        "family": "piano",
        "number": 0,
        "name": "acoustic grand piano"
      },
      "name": "Violin I",
      "notes": [],
      "endOfTrackTicks": 76800
    },
    {
      "channel": 4,
      "controlChanges": {
        "7": [
          {
            "number": 7,
            "ticks": 0,
            "time": 0,
            "value": 0.7559055118110236
          }
        ],
        "10": [
          {
            "number": 10,
            "ticks": 0,
            "time": 0,
            "value": 0.3779527559055118
          }
        ],
        "11": [
          {
            "number": 11,
            "ticks": 0,
            "time": 0,
            "value": 1
          }
        ]
      },
      "pitchBends": [],
      "instrument": {
        "family": "ensemble",
        "number": 48,
        "name": "string ensemble 1"
      },
      "name": "",
      "notes": [
        {
          "duration": 0.10069440416666667,
          "durationTicks": 58,
          "midi": 57,
          "name": "A3",
          "ticks": 0,
          "time": 0,
          "velocity": 0.5669291338582677
        },
        {
          "duration": 0.10069440416666665,
          "durationTicks": 58,
          "midi": 59,
          "name": "B3",
          "ticks": 60,
          "time": 0.104166625,
          "velocity": 0.5669291338582677
        },
        {
          "duration": 0.1527777166666667,
          "durationTicks": 88,
          "midi": 60,
          "name": "C4",
          "ticks": 120,
          "time": 0.20833325,
          "velocity": 0.5669291338582677
        },
        {
          "duration": 0.1006944041666667,
          "durationTicks": 58,
          "midi": 60,
          "name": "C4",
          "ticks": 240,
          "time": 0.4166665,
          "velocity": 0.5669291338582677
        },
        {
          "duration": 0.10069440416666675,
          "durationTicks": 58,
          "midi": 60,
          "name": "C4",
          "ticks": 360,
          "time": 0.62499975,
          "velocity": 0.5669291338582677
        },
        {
          "duration": 0.10069440416666664,
          "durationTicks": 58,
          "midi": 60,
          "name": "C4",
          "ticks": 480,
          "time": 0.833333,
          "velocity": 0.5669291338582677
        },
        {
          "duration": 0.10069440416666675,
          "durationTicks": 58,
          "midi": 59,
          "name": "B3",
          "ticks": 540,
          "time": 0.937499625,
          "velocity": 0.5669291338582677
        },
        {
          "duration": 0.15277771666666662,
          "durationTicks": 88,
          "midi": 57,
          "name": "A3",
          "ticks": 600,
          "time": 1.04166625,
          "velocity": 0.5669291338582677
        },
        {
          "duration": 0.10069440416666664,
          "durationTicks": 58,
          "midi": 57,
          "name": "A3",
          "ticks": 720,
          "time": 1.2499995,
          "velocity": 0.5669291338582677
        },
        {
          "duration": 0.10069440416666664,
          "durationTicks": 58,
          "midi": 57,
          "name": "A3",
          "ticks": 840,
          "time": 1.45833275,
          "velocity": 0.5669291338582677
        },
        {
          "duration": 0.10069440416666642,
          "durationTicks": 58,
          "midi": 57,
          "name": "A3",
          "ticks": 960,
          "time": 1.666666,
          "velocity": 0.5669291338582677
        },
        {
          "duration": 0.10069440416666664,
          "durationTicks": 58,
          "midi": 59,
          "name": "B3",
          "ticks": 1020,
          "time": 1.770832625,
          "velocity": 0.5669291338582677
        },
        {
          "duration": 0.15277771666666662,
          "durationTicks": 88,
          "midi": 60,
          "name": "C4",
          "ticks": 1080,
          "time": 1.87499925,
          "velocity": 0.5669291338582677
        },
        {
          "duration": 0.10069440416666664,
          "durationTicks": 58,
          "midi": 60,
          "name": "C4",
          "ticks": 1200,
          "time": 2.0833325,
          "velocity": 0.5669291338582677
        },
        {
          "duration": 0.10069440416666664,
          "durationTicks": 58,
          "midi": 60,
          "name": "C4",
          "ticks": 1320,
          "time": 2.29166575,
          "velocity": 0.5669291338582677
        },
        {
          "duration": 0.10069440416666664,
          "durationTicks": 58,
          "midi": 60,
          "name": "C4",
          "ticks": 1440,
          "time": 2.499999,
          "velocity": 0.5669291338582677
        },
        {
          "duration": 0.10069440416666664,
          "durationTicks": 58,
          "midi": 59,
          "name": "B3",
          "ticks": 1500,
          "time": 2.604165625,
          "velocity": 0.5669291338582677
        },
        {
          "duration": 0.15277771666666684,
          "durationTicks": 88,
          "midi": 57,
          "name": "A3",
          "ticks": 1560,
          "time": 2.7083322499999998,
          "velocity": 0.5669291338582677
        },
        {
          "duration": 0.1006944041666662,
          "durationTicks": 58,
          "midi": 57,
          "name": "A3",
          "ticks": 1680,
          "time": 2.9166655,
          "velocity": 0.5669291338582677
        },
        {
          "duration": 0.1006944041666662,
          "durationTicks": 58,
          "midi": 57,
          "name": "A3",
          "ticks": 1800,
          "time": 3.12499875,
          "velocity": 0.5669291338582677
        },
        {
          "duration": 0.10069440416666708,
          "durationTicks": 58,
          "midi": 59,
          "name": "B3",
          "ticks": 1920,
          "time": 3.333332,
          "velocity": 0.5669291338582677
        },
        {
          "duration": 0.10069440416666708,
          "durationTicks": 58,
          "midi": 60,
          "name": "C4",
          "ticks": 1980,
          "time": 3.437498625,
          "velocity": 0.5669291338582677
        },
        {
          "duration": 0.15277771666666684,
          "durationTicks": 88,
          "midi": 62,
          "name": "D4",
          "ticks": 2040,
          "time": 3.54166525,
          "velocity": 0.5669291338582677
        },
        {
          "duration": 0.10069440416666708,
          "durationTicks": 58,
          "midi": 62,
          "name": "D4",
          "ticks": 2160,
          "time": 3.7499985,
          "velocity": 0.5669291338582677
        },
        {
          "duration": 0.10069440416666708,
          "durationTicks": 58,
          "midi": 62,
          "name": "D4",
          "ticks": 2280,
          "time": 3.95833175,
          "velocity": 0.5669291338582677
        },
        {
          "duration": 0.10069440416666708,
          "durationTicks": 58,
          "midi": 62,
          "name": "D4",
          "ticks": 2400,
          "time": 4.166665,
          "velocity": 0.5669291338582677
        },
        {
          "duration": 0.10069440416666708,
          "durationTicks": 58,
          "midi": 60,
          "name": "C4",
          "ticks": 2460,
          "time": 4.270831625,
          "velocity": 0.5669291338582677
        },
        {
          "duration": 0.15277771666666684,
          "durationTicks": 88,
          "midi": 59,
          "name": "B3",
          "ticks": 2520,
          "time": 4.37499825,
          "velocity": 0.5669291338582677
        },
        {
          "duration": 0.10069440416666708,
          "durationTicks": 58,
          "midi": 59,
          "name": "B3",
          "ticks": 2640,
          "time": 4.5833315,
          "velocity": 0.5669291338582677
        },
        {
          "duration": 0.10069440416666708,
          "durationTicks": 58,
          "midi": 59,
          "name": "B3",
          "ticks": 2760,
          "time": 4.79166475,
          "velocity": 0.5669291338582677
        },
        {
          "duration": 0.10069440416666708,
          "durationTicks": 58,
          "midi": 59,
          "name": "B3",
          "ticks": 2880,
          "time": 4.999998,
          "velocity": 0.5669291338582677
        },
        {
          "duration": 0.10069440416666708,
          "durationTicks": 58,
          "midi": 60,
          "name": "C4",
          "ticks": 2940,
          "time": 5.104164625,
          "velocity": 0.5669291338582677
        },
        {
          "duration": 0.15277771666666684,
          "durationTicks": 88,
          "midi": 62,
          "name": "D4",
          "ticks": 3000,
          "time": 5.20833125,
          "velocity": 0.5669291338582677
        },
        {
          "duration": 0.10069440416666708,
          "durationTicks": 58,
          "midi": 62,
          "name": "D4",
          "ticks": 3120,
          "time": 5.4166644999999995,
          "velocity": 0.5669291338582677
        },
        {
          "duration": 0.1006944041666662,
          "durationTicks": 58,
          "midi": 62,
          "name": "D4",
          "ticks": 3240,
          "time": 5.62499775,
          "velocity": 0.5669291338582677
        },
        {
          "duration": 0.1006944041666662,
          "durationTicks": 58,
          "midi": 62,
          "name": "D4",
          "ticks": 3360,
          "time": 5.833331,
          "velocity": 0.5669291338582677
        },
        {
          "duration": 0.10069440416666708,
          "durationTicks": 58,
          "midi": 60,
          "name": "C4",
          "ticks": 3420,
          "time": 5.937497625,
          "velocity": 0.5669291338582677
        },
        {
          "duration": 0.15277771666666684,
          "durationTicks": 88,
          "midi": 59,
          "name": "B3",
          "ticks": 3480,
          "time": 6.04166425,
          "velocity": 0.5669291338582677
        },
        {
          "duration": 0.10069440416666708,
          "durationTicks": 58,
          "midi": 59,
          "name": "B3",
          "ticks": 3600,
          "time": 6.2499975,
          "velocity": 0.5669291338582677
        },
        {
          "duration": 0.10069440416666708,
          "durationTicks": 58,
          "midi": 59,
          "name": "B3",
          "ticks": 3720,
          "time": 6.45833075,
          "velocity": 0.5669291338582677
        },
        {
          "duration": 0.10069440416666708,
          "durationTicks": 58,
          "midi": 60,
          "name": "C4",
          "ticks": 3840,
          "time": 6.666664,
          "velocity": 0.5669291338582677
        },
        {
          "duration": 0.1006944041666662,
          "durationTicks": 58,
          "midi": 62,
          "name": "D4",
          "ticks": 3900,
          "time": 6.770830625,
          "velocity": 0.5669291338582677
        },
        {
          "duration": 0.15277771666666684,
          "durationTicks": 88,
          "midi": 64,
          "name": "E4",
          "ticks": 3960,
          "time": 6.87499725,
          "velocity": 0.5669291338582677
        },
        {
          "duration": 0.10069440416666708,
          "durationTicks": 58,
          "midi": 64,
          "name": "E4",
          "ticks": 4080,
          "time": 7.0833305,
          "velocity": 0.5669291338582677
        },
        {
          "duration": 0.10069440416666708,
          "durationTicks": 58,
          "midi": 64,
          "name": "E4",
          "ticks": 4200,
          "time": 7.29166375,
          "velocity": 0.5669291338582677
        },
        {
          "duration": 0.10069440416666708,
          "durationTicks": 58,
          "midi": 64,
          "name": "E4",
          "ticks": 4320,
          "time": 7.499997,
          "velocity": 0.5669291338582677
        },
        {
          "duration": 0.10069440416666708,
          "durationTicks": 58,
          "midi": 62,
          "name": "D4",
          "ticks": 4380,
          "time": 7.604163625,
          "velocity": 0.5669291338582677
        },
        {
          "duration": 0.15277771666666684,
          "durationTicks": 88,
          "midi": 60,
          "name": "C4",
          "ticks": 4440,
          "time": 7.7083302499999995,
          "velocity": 0.5669291338582677
        },
        {
          "duration": 0.10069440416666708,
          "durationTicks": 58,
          "midi": 60,
          "name": "C4",
          "ticks": 4560,
          "time": 7.9166635,
          "velocity": 0.5669291338582677
        },
        {
          "duration": 0.10069440416666708,
          "durationTicks": 58,
          "midi": 60,
          "name": "C4",
          "ticks": 4680,
          "time": 8.12499675,
          "velocity": 0.5669291338582677
        },
        {
          "duration": 0.10069440416666708,
          "durationTicks": 58,
          "midi": 60,
          "name": "C4",
          "ticks": 4800,
          "time": 8.33333,
          "velocity": 0.5669291338582677
        },
        {
          "duration": 0.10069440416666708,
          "durationTicks": 58,
          "midi": 62,
          "name": "D4",
          "ticks": 4860,
          "time": 8.437496625,
          "velocity": 0.5669291338582677
        },
        {
          "duration": 0.15277771666666773,
          "durationTicks": 88,
          "midi": 64,
          "name": "E4",
          "ticks": 4920,
          "time": 8.54166325,
          "velocity": 0.5669291338582677
        },
        {
          "duration": 0.10069440416666708,
          "durationTicks": 58,
          "midi": 64,
          "name": "E4",
          "ticks": 5040,
          "time": 8.7499965,
          "velocity": 0.5669291338582677
        },
        {
          "duration": 0.10069440416666531,
          "durationTicks": 58,
          "midi": 64,
          "name": "E4",
          "ticks": 5160,
          "time": 8.95832975,
          "velocity": 0.5669291338582677
        },
        {
          "duration": 0.10069440416666708,
          "durationTicks": 58,
          "midi": 64,
          "name": "E4",
          "ticks": 5280,
          "time": 9.166663,
          "velocity": 0.5669291338582677
        },
        {
          "duration": 0.10069440416666708,
          "durationTicks": 58,
          "midi": 62,
          "name": "D4",
          "ticks": 5340,
          "time": 9.270829625,
          "velocity": 0.5669291338582677
        },
        {
          "duration": 0.15277771666666595,
          "durationTicks": 88,
          "midi": 60,
          "name": "C4",
          "ticks": 5400,
          "time": 9.37499625,
          "velocity": 0.5669291338582677
        },
        {
          "duration": 0.10069440416666708,
          "durationTicks": 58,
          "midi": 60,
          "name": "C4",
          "ticks": 5520,
          "time": 9.5833295,
          "velocity": 0.5669291338582677
        },
        {
          "duration": 0.10069440416666708,
          "durationTicks": 58,
          "midi": 60,
          "name": "C4",
          "ticks": 5640,
          "time": 9.79166275,
          "velocity": 0.5669291338582677
        },
        {
          "duration": 0.10069440416666708,
          "durationTicks": 58,
          "midi": 62,
          "name": "D4",
          "ticks": 5760,
          "time": 9.999996,
          "velocity": 0.5669291338582677
        },
        {
          "duration": 0.10069440416666531,
          "durationTicks": 58,
          "midi": 64,
          "name": "E4",
          "ticks": 5820,
          "time": 10.104162625,
          "velocity": 0.5669291338582677
        },
        {
          "duration": 0.15277771666666595,
          "durationTicks": 88,
          "midi": 65,
          "name": "F4",
          "ticks": 5880,
          "time": 10.20832925,
          "velocity": 0.5669291338582677
        },
        {
          "duration": 0.10069440416666708,
          "durationTicks": 58,
          "midi": 65,
          "name": "F4",
          "ticks": 6000,
          "time": 10.4166625,
          "velocity": 0.5669291338582677
        },
        {
          "duration": 0.10069440416666708,
          "durationTicks": 58,
          "midi": 65,
          "name": "F4",
          "ticks": 6120,
          "time": 10.62499575,
          "velocity": 0.5669291338582677
        },
        {
          "duration": 0.10069440416666708,
          "durationTicks": 58,
          "midi": 65,
          "name": "F4",
          "ticks": 6240,
          "time": 10.833328999999999,
          "velocity": 0.5669291338582677
        },
        {
          "duration": 0.10069440416666708,
          "durationTicks": 58,
          "midi": 64,
          "name": "E4",
          "ticks": 6300,
          "time": 10.937495625,
          "velocity": 0.5669291338582677
        },
        {
          "duration": 0.15277771666666595,
          "durationTicks": 88,
          "midi": 62,
          "name": "D4",
          "ticks": 6360,
          "time": 11.04166225,
          "velocity": 0.5669291338582677
        },
        {
          "duration": 0.10069440416666531,
          "durationTicks": 58,
          "midi": 62,
          "name": "D4",
          "ticks": 6480,
          "time": 11.2499955,
          "velocity": 0.5669291338582677
        },
        {
          "duration": 0.10069440416666708,
          "durationTicks": 58,
          "midi": 62,
          "name": "D4",
          "ticks": 6600,
          "time": 11.45832875,
          "velocity": 0.5669291338582677
        },
        {
          "duration": 0.10069440416666708,
          "durationTicks": 58,
          "midi": 62,
          "name": "D4",
          "ticks": 6720,
          "time": 11.666662,
          "velocity": 0.5669291338582677
        },
        {
          "duration": 0.10069440416666708,
          "durationTicks": 58,
          "midi": 64,
          "name": "E4",
          "ticks": 6780,
          "time": 11.770828625,
          "velocity": 0.5669291338582677
        },
        {
          "duration": 0.15277771666666773,
          "durationTicks": 88,
          "midi": 65,
          "name": "F4",
          "ticks": 6840,
          "time": 11.87499525,
          "velocity": 0.5669291338582677
        },
        {
          "duration": 0.10069440416666708,
          "durationTicks": 58,
          "midi": 65,
          "name": "F4",
          "ticks": 6960,
          "time": 12.0833285,
          "velocity": 0.5669291338582677
        },
        {
          "duration": 0.10069440416666708,
          "durationTicks": 58,
          "midi": 65,
          "name": "F4",
          "ticks": 7080,
          "time": 12.29166175,
          "velocity": 0.5669291338582677
        },
        {
          "duration": 0.10069440416666708,
          "durationTicks": 58,
          "midi": 65,
          "name": "F4",
          "ticks": 7200,
          "time": 12.499995,
          "velocity": 0.5669291338582677
        },
        {
          "duration": 0.10069440416666708,
          "durationTicks": 58,
          "midi": 64,
          "name": "E4",
          "ticks": 7260,
          "time": 12.604161625,
          "velocity": 0.5669291338582677
        },
        {
          "duration": 0.15277771666666773,
          "durationTicks": 88,
          "midi": 62,
          "name": "D4",
          "ticks": 7320,
          "time": 12.70832825,
          "velocity": 0.5669291338582677
        },
        {
          "duration": 0.10069440416666708,
          "durationTicks": 58,
          "midi": 62,
          "name": "D4",
          "ticks": 7440,
          "time": 12.9166615,
          "velocity": 0.5669291338582677
        },
        {
          "duration": 0.10069440416666708,
          "durationTicks": 58,
          "midi": 62,
          "name": "D4",
          "ticks": 7560,
          "time": 13.124994749999999,
          "velocity": 0.5669291338582677
        },
        {
          "duration": 0.10069440416666708,
          "durationTicks": 58,
          "midi": 64,
          "name": "E4",
          "ticks": 7680,
          "time": 13.333328,
          "velocity": 0.5669291338582677
        },
        {
          "duration": 0.10069440416666708,
          "durationTicks": 58,
          "midi": 68,
          "name": "G#4",
          "ticks": 7740,
          "time": 13.437494625,
          "velocity": 0.5669291338582677
        },
        {
          "duration": 0.15277771666666595,
          "durationTicks": 88,
          "midi": 71,
          "name": "B4",
          "ticks": 7800,
          "time": 13.54166125,
          "velocity": 0.5669291338582677
        },
        {
          "duration": 0.10069440416666708,
          "durationTicks": 58,
          "midi": 71,
          "name": "B4",
          "ticks": 7920,
          "time": 13.7499945,
          "velocity": 0.5669291338582677
        },
        {
          "duration": 0.10069440416666708,
          "durationTicks": 58,
          "midi": 71,
          "name": "B4",
          "ticks": 8040,
          "time": 13.95832775,
          "velocity": 0.5669291338582677
        },
        {
          "duration": 0.10069440416666708,
          "durationTicks": 58,
          "midi": 71,
          "name": "B4",
          "ticks": 8160,
          "time": 14.166661,
          "velocity": 0.5669291338582677
        },
        {
          "duration": 0.10069440416666708,
          "durationTicks": 58,
          "midi": 68,
          "name": "G#4",
          "ticks": 8220,
          "time": 14.270827624999999,
          "velocity": 0.5669291338582677
        },
        {
          "duration": 0.15277771666666595,
          "durationTicks": 88,
          "midi": 64,
          "name": "E4",
          "ticks": 8280,
          "time": 14.37499425,
          "velocity": 0.5669291338582677
        },
        {
          "duration": 0.10069440416666708,
          "durationTicks": 58,
          "midi": 64,
          "name": "E4",
          "ticks": 8400,
          "time": 14.5833275,
          "velocity": 0.5669291338582677
        },
        {
          "duration": 0.10069440416666708,
          "durationTicks": 58,
          "midi": 64,
          "name": "E4",
          "ticks": 8520,
          "time": 14.79166075,
          "velocity": 0.5669291338582677
        },
        {
          "duration": 0.10069440416666708,
          "durationTicks": 58,
          "midi": 64,
          "name": "E4",
          "ticks": 8640,
          "time": 14.999994,
          "velocity": 0.5669291338582677
        },
        {
          "duration": 0.10069440416666708,
          "durationTicks": 58,
          "midi": 69,
          "name": "A4",
          "ticks": 8700,
          "time": 15.104160625,
          "velocity": 0.5669291338582677
        },
        {
          "duration": 0.15277771666666595,
          "durationTicks": 88,
          "midi": 72,
          "name": "C5",
          "ticks": 8760,
          "time": 15.20832725,
          "velocity": 0.5669291338582677
        },
        {
          "duration": 0.10069440416666708,
          "durationTicks": 58,
          "midi": 72,
          "name": "C5",
          "ticks": 8880,
          "time": 15.416660499999999,
          "velocity": 0.5669291338582677
        },
        {
          "duration": 0.10069440416666708,
          "durationTicks": 58,
          "midi": 72,
          "name": "C5",
          "ticks": 9000,
          "time": 15.62499375,
          "velocity": 0.5669291338582677
        },
        {
          "duration": 0.10069440416666531,
          "durationTicks": 58,
          "midi": 72,
          "name": "C5",
          "ticks": 9120,
          "time": 15.833327,
          "velocity": 0.5669291338582677
        },
        {
          "duration": 0.10069440416666531,
          "durationTicks": 58,
          "midi": 69,
          "name": "A4",
          "ticks": 9180,
          "time": 15.937493625,
          "velocity": 0.5669291338582677
        },
        {
          "duration": 0.15277771666666595,
          "durationTicks": 88,
          "midi": 64,
          "name": "E4",
          "ticks": 9240,
          "time": 16.04166025,
          "velocity": 0.5669291338582677
        },
        {
          "duration": 0.10069440416666708,
          "durationTicks": 58,
          "midi": 64,
          "name": "E4",
          "ticks": 9360,
          "time": 16.2499935,
          "velocity": 0.5669291338582677
        },
        {
          "duration": 0.10069440416666708,
          "durationTicks": 58,
          "midi": 64,
          "name": "E4",
          "ticks": 9480,
          "time": 16.45832675,
          "velocity": 0.5669291338582677
        },
        {
          "duration": 0.361110966666665,
          "durationTicks": 208,
          "midi": 64,
          "name": "E4",
          "ticks": 9600,
          "time": 16.66666,
          "velocity": 0.5669291338582677
        },
        {
          "duration": 0.361110966666665,
          "durationTicks": 208,
          "midi": 71,
          "name": "B4",
          "ticks": 9600,
          "time": 16.66666,
          "velocity": 0.5669291338582677
        },
        {
          "duration": 0.361110966666665,
          "durationTicks": 208,
          "midi": 76,
          "name": "E5",
          "ticks": 9600,
          "time": 16.66666,
          "velocity": 0.5669291338582677
        },
        {
          "duration": 0.4131942791666674,
          "durationTicks": 238,
          "midi": 64,
          "name": "E4",
          "ticks": 9840,
          "time": 17.0833265,
          "velocity": 0.5669291338582677
        },
        {
          "duration": 0.41319427916666385,
          "durationTicks": 238,
          "midi": 64,
          "name": "E4",
          "ticks": 10320,
          "time": 17.9166595,
          "velocity": 0.3779527559055118
        },
        {
          "duration": 0.41319427916666385,
          "durationTicks": 238,
          "midi": 63,
          "name": "D#4",
          "ticks": 10800,
          "time": 18.7499925,
          "velocity": 0.3779527559055118
        },
        {
          "duration": 0.4131942791666674,
          "durationTicks": 238,
          "midi": 62,
          "name": "D4",
          "ticks": 11280,
          "time": 19.5833255,
          "velocity": 0.3779527559055118
        },
        {
          "duration": 0.4131942791666674,
          "durationTicks": 238,
          "midi": 60,
          "name": "C4",
          "ticks": 11520,
          "time": 19.999992,
          "velocity": 0.3779527559055118
        },
        {
          "duration": 0.20486102916666482,
          "durationTicks": 118,
          "midi": 64,
          "name": "E4",
          "ticks": 11760,
          "time": 20.4166585,
          "velocity": 0.3779527559055118
        },
        {
          "duration": 0.20486102916666837,
          "durationTicks": 118,
          "midi": 67,
          "name": "G4",
          "ticks": 11880,
          "time": 20.62499175,
          "velocity": 0.3779527559055118
        },
        {
          "duration": 0.4131942791666674,
          "durationTicks": 238,
          "midi": 72,
          "name": "C5",
          "ticks": 12000,
          "time": 20.833325,
          "velocity": 0.3779527559055118
        },
        {
          "duration": 0.4131942791666674,
          "durationTicks": 238,
          "midi": 71,
          "name": "B4",
          "ticks": 12240,
          "time": 21.2499915,
          "velocity": 0.3779527559055118
        },
        {
          "duration": 0.4131942791666674,
          "durationTicks": 238,
          "midi": 69,
          "name": "A4",
          "ticks": 12480,
          "time": 21.666657999999998,
          "velocity": 0.3779527559055118
        },
        {
          "duration": 0.4131942791666674,
          "durationTicks": 238,
          "midi": 67,
          "name": "G4",
          "ticks": 12720,
          "time": 22.0833245,
          "velocity": 0.3779527559055118
        },
        {
          "duration": 0.41319427916666385,
          "durationTicks": 238,
          "midi": 65,
          "name": "F4",
          "ticks": 12960,
          "time": 22.499991,
          "velocity": 0.3779527559055118
        },
        {
          "duration": 0.36111096666666853,
          "durationTicks": 208,
          "midi": 64,
          "name": "E4",
          "ticks": 13200,
          "time": 22.9166575,
          "velocity": 0.3779527559055118
        },
        {
          "duration": 0.41319427916666385,
          "durationTicks": 238,
          "midi": 62,
          "name": "D4",
          "ticks": 13440,
          "time": 23.333324,
          "velocity": 0.3779527559055118
        },
        {
          "duration": 0.20486102916666837,
          "durationTicks": 118,
          "midi": 64,
          "name": "E4",
          "ticks": 13680,
          "time": 23.7499905,
          "velocity": 0.3779527559055118
        },
        {
          "duration": 0.20486102916666837,
          "durationTicks": 118,
          "midi": 65,
          "name": "F4",
          "ticks": 13800,
          "time": 23.958323749999998,
          "velocity": 0.3779527559055118
        },
        {
          "duration": 0.4131942791666674,
          "durationTicks": 238,
          "midi": 67,
          "name": "G4",
          "ticks": 13920,
          "time": 24.166657,
          "velocity": 0.3779527559055118
        },
        {
          "duration": 0.36111096666666853,
          "durationTicks": 208,
          "midi": 55,
          "name": "G3",
          "ticks": 14160,
          "time": 24.5833235,
          "velocity": 0.3779527559055118
        },
        {
          "duration": 0.4131942791666674,
          "durationTicks": 238,
          "midi": 60,
          "name": "C4",
          "ticks": 14400,
          "time": 24.99999,
          "velocity": 0.3779527559055118
        },
        {
          "duration": 0.20486102916666837,
          "durationTicks": 118,
          "midi": 64,
          "name": "E4",
          "ticks": 14640,
          "time": 25.4166565,
          "velocity": 0.3779527559055118
        },
        {
          "duration": 0.15277771666666595,
          "durationTicks": 88,
          "midi": 67,
          "name": "G4",
          "ticks": 14760,
          "time": 25.62498975,
          "velocity": 0.3779527559055118
        },
        {
          "duration": 0.4131942791666674,
          "durationTicks": 238,
          "midi": 72,
          "name": "C5",
          "ticks": 14880,
          "time": 25.833323,
          "velocity": 0.3779527559055118
        },
        {
          "duration": 0.20486102916666837,
          "durationTicks": 118,
          "midi": 67,
          "name": "G4",
          "ticks": 15120,
          "time": 26.249989499999998,
          "velocity": 0.3779527559055118
        },
        {
          "duration": 0.15277771666666595,
          "durationTicks": 88,
          "midi": 64,
          "name": "E4",
          "ticks": 15240,
          "time": 26.45832275,
          "velocity": 0.3779527559055118
        },
        {
          "duration": 0.41319427916666385,
          "durationTicks": 238,
          "midi": 60,
          "name": "C4",
          "ticks": 15360,
          "time": 26.666656,
          "velocity": 0.3779527559055118
        },
        {
          "duration": 0.20486102916666127,
          "durationTicks": 118,
          "midi": 64,
          "name": "E4",
          "ticks": 15600,
          "time": 27.0833225,
          "velocity": 0.3779527559055118
        },
        {
          "duration": 0.20486102916666482,
          "durationTicks": 118,
          "midi": 67,
          "name": "G4",
          "ticks": 15720,
          "time": 27.29165575,
          "velocity": 0.3779527559055118
        },
        {
          "duration": 0.41319427916666385,
          "durationTicks": 238,
          "midi": 72,
          "name": "C5",
          "ticks": 15840,
          "time": 27.499989,
          "velocity": 0.3779527559055118
        },
        {
          "duration": 0.41319427916666385,
          "durationTicks": 238,
          "midi": 71,
          "name": "B4",
          "ticks": 16080,
          "time": 27.9166555,
          "velocity": 0.3779527559055118
        },
        {
          "duration": 0.41319427916666385,
          "durationTicks": 238,
          "midi": 69,
          "name": "A4",
          "ticks": 16320,
          "time": 28.333322,
          "velocity": 0.3779527559055118
        },
        {
          "duration": 0.41319427916666385,
          "durationTicks": 238,
          "midi": 67,
          "name": "G4",
          "ticks": 16560,
          "time": 28.7499885,
          "velocity": 0.3779527559055118
        },
        {
          "duration": 0.41319427916666385,
          "durationTicks": 238,
          "midi": 65,
          "name": "F4",
          "ticks": 16800,
          "time": 29.166655,
          "velocity": 0.3779527559055118
        },
        {
          "duration": 0.361110966666665,
          "durationTicks": 208,
          "midi": 64,
          "name": "E4",
          "ticks": 17040,
          "time": 29.5833215,
          "velocity": 0.3779527559055118
        },
        {
          "duration": 0.41319427916666385,
          "durationTicks": 238,
          "midi": 62,
          "name": "D4",
          "ticks": 17280,
          "time": 29.999988,
          "velocity": 0.3779527559055118
        },
        {
          "duration": 0.20486102916666482,
          "durationTicks": 118,
          "midi": 64,
          "name": "E4",
          "ticks": 17520,
          "time": 30.4166545,
          "velocity": 0.3779527559055118
        },
        {
          "duration": 0.20486102916666482,
          "durationTicks": 118,
          "midi": 65,
          "name": "F4",
          "ticks": 17640,
          "time": 30.62498775,
          "velocity": 0.3779527559055118
        },
        {
          "duration": 0.41319427916666385,
          "durationTicks": 238,
          "midi": 67,
          "name": "G4",
          "ticks": 17760,
          "time": 30.833320999999998,
          "velocity": 0.3779527559055118
        },
        {
          "duration": 0.361110966666665,
          "durationTicks": 208,
          "midi": 55,
          "name": "G3",
          "ticks": 18000,
          "time": 31.2499875,
          "velocity": 0.3779527559055118
        },
        {
          "duration": 0.10069440416666353,
          "durationTicks": 58,
          "midi": 60,
          "name": "C4",
          "ticks": 18240,
          "time": 31.666654,
          "velocity": 0.5669291338582677
        },
        {
          "duration": 0.10069440416666353,
          "durationTicks": 58,
          "midi": 62,
          "name": "D4",
          "ticks": 18300,
          "time": 31.770820625,
          "velocity": 0.5669291338582677
        },
        {
          "duration": 0.15277771666666595,
          "durationTicks": 88,
          "midi": 64,
          "name": "E4",
          "ticks": 18360,
          "time": 31.87498725,
          "velocity": 0.5669291338582677
        },
        {
          "duration": 0.10069440416666708,
          "durationTicks": 58,
          "midi": 64,
          "name": "E4",
          "ticks": 18480,
          "time": 32.0833205,
          "velocity": 0.5669291338582677
        },
        {
          "duration": 0.10069440416665998,
          "durationTicks": 58,
          "midi": 64,
          "name": "E4",
          "ticks": 18600,
          "time": 32.29165375,
          "velocity": 0.5669291338582677
        },
        {
          "duration": 0.10069440416666708,
          "durationTicks": 58,
          "midi": 63,
          "name": "D#4",
          "ticks": 18720,
          "time": 32.499987,
          "velocity": 0.5669291338582677
        },
        {
          "duration": 0.10069440416665998,
          "durationTicks": 58,
          "midi": 62,
          "name": "D4",
          "ticks": 18780,
          "time": 32.604153625,
          "velocity": 0.5669291338582677
        },
        {
          "duration": 0.1527777166666624,
          "durationTicks": 88,
          "midi": 60,
          "name": "C4",
          "ticks": 18840,
          "time": 32.70832025,
          "velocity": 0.5669291338582677
        },
        {
          "duration": 0.10069440416665998,
          "durationTicks": 58,
          "midi": 60,
          "name": "C4",
          "ticks": 18960,
          "time": 32.9166535,
          "velocity": 0.5669291338582677
        },
        {
          "duration": 0.10069440416666708,
          "durationTicks": 58,
          "midi": 60,
          "name": "C4",
          "ticks": 19080,
          "time": 33.12498675,
          "velocity": 0.5669291338582677
        },
        {
          "duration": 0.10069440416665998,
          "durationTicks": 58,
          "midi": 55,
          "name": "G3",
          "ticks": 19200,
          "time": 33.33332,
          "velocity": 0.5669291338582677
        },
        {
          "duration": 0.10069440416666708,
          "durationTicks": 58,
          "midi": 57,
          "name": "A3",
          "ticks": 19260,
          "time": 33.437486625,
          "velocity": 0.5669291338582677
        },
        {
          "duration": 0.1527777166666624,
          "durationTicks": 88,
          "midi": 59,
          "name": "B3",
          "ticks": 19320,
          "time": 33.54165325,
          "velocity": 0.5669291338582677
        },
        {
          "duration": 0.10069440416666708,
          "durationTicks": 58,
          "midi": 59,
          "name": "B3",
          "ticks": 19440,
          "time": 33.7499865,
          "velocity": 0.5669291338582677
        },
        {
          "duration": 0.10069440416665998,
          "durationTicks": 58,
          "midi": 59,
          "name": "B3",
          "ticks": 19560,
          "time": 33.95831975,
          "velocity": 0.5669291338582677
        },
        {
          "duration": 0.10069440416666708,
          "durationTicks": 58,
          "midi": 58,
          "name": "A#3",
          "ticks": 19680,
          "time": 34.166653,
          "velocity": 0.5669291338582677
        },
        {
          "duration": 0.10069440416665998,
          "durationTicks": 58,
          "midi": 57,
          "name": "A3",
          "ticks": 19740,
          "time": 34.270819625,
          "velocity": 0.5669291338582677
        },
        {
          "duration": 0.1527777166666624,
          "durationTicks": 88,
          "midi": 55,
          "name": "G3",
          "ticks": 19800,
          "time": 34.37498625,
          "velocity": 0.5669291338582677
        },
        {
          "duration": 0.10069440416665998,
          "durationTicks": 58,
          "midi": 55,
          "name": "G3",
          "ticks": 19920,
          "time": 34.5833195,
          "velocity": 0.5669291338582677
        },
        {
          "duration": 0.10069440416666708,
          "durationTicks": 58,
          "midi": 55,
          "name": "G3",
          "ticks": 20040,
          "time": 34.79165275,
          "velocity": 0.5669291338582677
        },
        {
          "duration": 0.10069440416666708,
          "durationTicks": 58,
          "midi": 62,
          "name": "D4",
          "ticks": 20160,
          "time": 34.999986,
          "velocity": 0.5669291338582677
        },
        {
          "duration": 0.10069440416666708,
          "durationTicks": 58,
          "midi": 64,
          "name": "E4",
          "ticks": 20220,
          "time": 35.104152625,
          "velocity": 0.5669291338582677
        },
        {
          "duration": 0.1527777166666624,
          "durationTicks": 88,
          "midi": 66,
          "name": "F#4",
          "ticks": 20280,
          "time": 35.20831925,
          "velocity": 0.5669291338582677
        },
        {
          "duration": 0.10069440416666708,
          "durationTicks": 58,
          "midi": 66,
          "name": "F#4",
          "ticks": 20400,
          "time": 35.4166525,
          "velocity": 0.5669291338582677
        },
        {
          "duration": 0.10069440416665998,
          "durationTicks": 58,
          "midi": 66,
          "name": "F#4",
          "ticks": 20520,
          "time": 35.62498575,
          "velocity": 0.5669291338582677
        },
        {
          "duration": 0.10069440416665998,
          "durationTicks": 58,
          "midi": 65,
          "name": "F4",
          "ticks": 20640,
          "time": 35.833319,
          "velocity": 0.5669291338582677
        },
        {
          "duration": 0.10069440416665998,
          "durationTicks": 58,
          "midi": 64,
          "name": "E4",
          "ticks": 20700,
          "time": 35.937485625,
          "velocity": 0.5669291338582677
        },
        {
          "duration": 0.1527777166666624,
          "durationTicks": 88,
          "midi": 62,
          "name": "D4",
          "ticks": 20760,
          "time": 36.04165225,
          "velocity": 0.5669291338582677
        },
        {
          "duration": 0.10069440416665998,
          "durationTicks": 58,
          "midi": 62,
          "name": "D4",
          "ticks": 20880,
          "time": 36.2499855,
          "velocity": 0.5669291338582677
        },
        {
          "duration": 0.10069440416666708,
          "durationTicks": 58,
          "midi": 62,
          "name": "D4",
          "ticks": 21000,
          "time": 36.45831875,
          "velocity": 0.5669291338582677
        },
        {
          "duration": 0.10069440416666708,
          "durationTicks": 58,
          "midi": 57,
          "name": "A3",
          "ticks": 21120,
          "time": 36.666652,
          "velocity": 0.5669291338582677
        },
        {
          "duration": 0.10069440416666708,
          "durationTicks": 58,
          "midi": 59,
          "name": "B3",
          "ticks": 21180,
          "time": 36.770818625,
          "velocity": 0.5669291338582677
        },
        {
          "duration": 0.1527777166666624,
          "durationTicks": 88,
          "midi": 61,
          "name": "C#4",
          "ticks": 21240,
          "time": 36.87498525,
          "velocity": 0.5669291338582677
        },
        {
          "duration": 0.10069440416666708,
          "durationTicks": 58,
          "midi": 61,
          "name": "C#4",
          "ticks": 21360,
          "time": 37.0833185,
          "velocity": 0.5669291338582677
        },
        {
          "duration": 0.10069440416666708,
          "durationTicks": 58,
          "midi": 61,
          "name": "C#4",
          "ticks": 21480,
          "time": 37.29165175,
          "velocity": 0.5669291338582677
        },
        {
          "duration": 0.10069440416665998,
          "durationTicks": 58,
          "midi": 60,
          "name": "C4",
          "ticks": 21600,
          "time": 37.499985,
          "velocity": 0.5669291338582677
        },
        {
          "duration": 0.10069440416665998,
          "durationTicks": 58,
          "midi": 59,
          "name": "B3",
          "ticks": 21660,
          "time": 37.604151625,
          "velocity": 0.5669291338582677
        },
        {
          "duration": 0.1527777166666624,
          "durationTicks": 88,
          "midi": 57,
          "name": "A3",
          "ticks": 21720,
          "time": 37.70831825,
          "velocity": 0.5669291338582677
        },
        {
          "duration": 0.10069440416665998,
          "durationTicks": 58,
          "midi": 57,
          "name": "A3",
          "ticks": 21840,
          "time": 37.9166515,
          "velocity": 0.5669291338582677
        },
        {
          "duration": 0.10069440416665998,
          "durationTicks": 58,
          "midi": 57,
          "name": "A3",
          "ticks": 21960,
          "time": 38.12498475,
          "velocity": 0.5669291338582677
        },
        {
          "duration": 0.10069440416666708,
          "durationTicks": 58,
          "midi": 64,
          "name": "E4",
          "ticks": 22080,
          "time": 38.333318,
          "velocity": 0.5669291338582677
        },
        {
          "duration": 0.10069440416666708,
          "durationTicks": 58,
          "midi": 66,
          "name": "F#4",
          "ticks": 22140,
          "time": 38.437484624999996,
          "velocity": 0.5669291338582677
        },
        {
          "duration": 0.1527777166666624,
          "durationTicks": 88,
          "midi": 68,
          "name": "G#4",
          "ticks": 22200,
          "time": 38.54165125,
          "velocity": 0.5669291338582677
        },
        {
          "duration": 0.10069440416666708,
          "durationTicks": 58,
          "midi": 68,
          "name": "G#4",
          "ticks": 22320,
          "time": 38.7499845,
          "velocity": 0.5669291338582677
        },
        {
          "duration": 0.10069440416666708,
          "durationTicks": 58,
          "midi": 68,
          "name": "G#4",
          "ticks": 22440,
          "time": 38.95831775,
          "velocity": 0.5669291338582677
        },
        {
          "duration": 0.10069440416665998,
          "durationTicks": 58,
          "midi": 67,
          "name": "G4",
          "ticks": 22560,
          "time": 39.166651,
          "velocity": 0.5669291338582677
        },
        {
          "duration": 0.10069440416666708,
          "durationTicks": 58,
          "midi": 66,
          "name": "F#4",
          "ticks": 22620,
          "time": 39.270817625,
          "velocity": 0.5669291338582677
        },
        {
          "duration": 0.1527777166666695,
          "durationTicks": 88,
          "midi": 64,
          "name": "E4",
          "ticks": 22680,
          "time": 39.37498425,
          "velocity": 0.5669291338582677
        },
        {
          "duration": 0.10069440416666708,
          "durationTicks": 58,
          "midi": 64,
          "name": "E4",
          "ticks": 22800,
          "time": 39.5833175,
          "velocity": 0.5669291338582677
        },
        {
          "duration": 0.10069440416665998,
          "durationTicks": 58,
          "midi": 64,
          "name": "E4",
          "ticks": 22920,
          "time": 39.79165075,
          "velocity": 0.5669291338582677
        },
        {
          "duration": 0.10069440416666708,
          "durationTicks": 58,
          "midi": 57,
          "name": "A3",
          "ticks": 23040,
          "time": 39.999984,
          "velocity": 0.5669291338582677
        },
        {
          "duration": 0.10069440416665998,
          "durationTicks": 58,
          "midi": 59,
          "name": "B3",
          "ticks": 23100,
          "time": 40.104150625,
          "velocity": 0.5669291338582677
        },
        {
          "duration": 0.1527777166666624,
          "durationTicks": 88,
          "midi": 60,
          "name": "C4",
          "ticks": 23160,
          "time": 40.20831725,
          "velocity": 0.5669291338582677
        },
        {
          "duration": 0.10069440416665998,
          "durationTicks": 58,
          "midi": 60,
          "name": "C4",
          "ticks": 23280,
          "time": 40.4166505,
          "velocity": 0.5669291338582677
        },
        {
          "duration": 0.10069440416666708,
          "durationTicks": 58,
          "midi": 60,
          "name": "C4",
          "ticks": 23400,
          "time": 40.62498375,
          "velocity": 0.5669291338582677
        },
        {
          "duration": 0.10069440416665998,
          "durationTicks": 58,
          "midi": 59,
          "name": "B3",
          "ticks": 23520,
          "time": 40.833317,
          "velocity": 0.5669291338582677
        },
        {
          "duration": 0.10069440416666708,
          "durationTicks": 58,
          "midi": 60,
          "name": "C4",
          "ticks": 23580,
          "time": 40.937483625,
          "velocity": 0.5669291338582677
        },
        {
          "duration": 0.1527777166666695,
          "durationTicks": 88,
          "midi": 62,
          "name": "D4",
          "ticks": 23640,
          "time": 41.041650249999996,
          "velocity": 0.5669291338582677
        },
        {
          "duration": 0.10069440416666708,
          "durationTicks": 58,
          "midi": 62,
          "name": "D4",
          "ticks": 23760,
          "time": 41.2499835,
          "velocity": 0.5669291338582677
        },
        {
          "duration": 0.10069440416665998,
          "durationTicks": 58,
          "midi": 62,
          "name": "D4",
          "ticks": 23880,
          "time": 41.45831675,
          "velocity": 0.5669291338582677
        },
        {
          "duration": 0.10069440416666708,
          "durationTicks": 58,
          "midi": 60,
          "name": "C4",
          "ticks": 24000,
          "time": 41.66665,
          "velocity": 0.5669291338582677
        },
        {
          "duration": 0.10069440416665998,
          "durationTicks": 58,
          "midi": 62,
          "name": "D4",
          "ticks": 24060,
          "time": 41.770816625,
          "velocity": 0.5669291338582677
        },
        {
          "duration": 0.1527777166666624,
          "durationTicks": 88,
          "midi": 64,
          "name": "E4",
          "ticks": 24120,
          "time": 41.87498325,
          "velocity": 0.5669291338582677
        },
        {
          "duration": 0.10069440416665998,
          "durationTicks": 58,
          "midi": 64,
          "name": "E4",
          "ticks": 24240,
          "time": 42.0833165,
          "velocity": 0.5669291338582677
        },
        {
          "duration": 0.10069440416666708,
          "durationTicks": 58,
          "midi": 64,
          "name": "E4",
          "ticks": 24360,
          "time": 42.29164975,
          "velocity": 0.5669291338582677
        },
        {
          "duration": 0.10069440416665998,
          "durationTicks": 58,
          "midi": 64,
          "name": "E4",
          "ticks": 24480,
          "time": 42.499983,
          "velocity": 0.5669291338582677
        },
        {
          "duration": 0.10069440416666708,
          "durationTicks": 58,
          "midi": 65,
          "name": "F4",
          "ticks": 24540,
          "time": 42.604149625,
          "velocity": 0.5669291338582677
        },
        {
          "duration": 0.1527777166666624,
          "durationTicks": 88,
          "midi": 67,
          "name": "G4",
          "ticks": 24600,
          "time": 42.70831625,
          "velocity": 0.5669291338582677
        },
        {
          "duration": 0.10069440416666708,
          "durationTicks": 58,
          "midi": 67,
          "name": "G4",
          "ticks": 24720,
          "time": 42.9166495,
          "velocity": 0.5669291338582677
        },
        {
          "duration": 0.10069440416665998,
          "durationTicks": 58,
          "midi": 67,
          "name": "G4",
          "ticks": 24840,
          "time": 43.12498275,
          "velocity": 0.5669291338582677
        },
        {
          "duration": 0.10069440416666708,
          "durationTicks": 58,
          "midi": 66,
          "name": "F#4",
          "ticks": 24960,
          "time": 43.333315999999996,
          "velocity": 0.5669291338582677
        },
        {
          "duration": 0.10069440416665998,
          "durationTicks": 58,
          "midi": 67,
          "name": "G4",
          "ticks": 25020,
          "time": 43.437482625,
          "velocity": 0.5669291338582677
        },
        {
          "duration": 0.1527777166666624,
          "durationTicks": 88,
          "midi": 69,
          "name": "A4",
          "ticks": 25080,
          "time": 43.54164925,
          "velocity": 0.5669291338582677
        },
        {
          "duration": 0.10069440416665998,
          "durationTicks": 58,
          "midi": 69,
          "name": "A4",
          "ticks": 25200,
          "time": 43.7499825,
          "velocity": 0.5669291338582677
        },
        {
          "duration": 0.10069440416666708,
          "durationTicks": 58,
          "midi": 69,
          "name": "A4",
          "ticks": 25320,
          "time": 43.95831575,
          "velocity": 0.5669291338582677
        },
        {
          "duration": 0.10069440416666708,
          "durationTicks": 58,
          "midi": 68,
          "name": "G#4",
          "ticks": 25440,
          "time": 44.166649,
          "velocity": 0.5669291338582677
        },
        {
          "duration": 0.10069440416666708,
          "durationTicks": 58,
          "midi": 69,
          "name": "A4",
          "ticks": 25500,
          "time": 44.270815625,
          "velocity": 0.5669291338582677
        },
        {
          "duration": 0.1527777166666624,
          "durationTicks": 88,
          "midi": 71,
          "name": "B4",
          "ticks": 25560,
          "time": 44.37498225,
          "velocity": 0.5669291338582677
        },
        {
          "duration": 0.10069440416666708,
          "durationTicks": 58,
          "midi": 71,
          "name": "B4",
          "ticks": 25680,
          "time": 44.5833155,
          "velocity": 0.5669291338582677
        },
        {
          "duration": 0.10069440416665998,
          "durationTicks": 58,
          "midi": 71,
          "name": "B4",
          "ticks": 25800,
          "time": 44.79164875,
          "velocity": 0.5669291338582677
        },
        {
          "duration": 0.10069440416665998,
          "durationTicks": 58,
          "midi": 69,
          "name": "A4",
          "ticks": 25920,
          "time": 44.999982,
          "velocity": 0.5669291338582677
        },
        {
          "duration": 0.10069440416665998,
          "durationTicks": 58,
          "midi": 71,
          "name": "B4",
          "ticks": 25980,
          "time": 45.104148625,
          "velocity": 0.5669291338582677
        },
        {
          "duration": 0.1527777166666624,
          "durationTicks": 88,
          "midi": 72,
          "name": "C5",
          "ticks": 26040,
          "time": 45.20831525,
          "velocity": 0.5669291338582677
        },
        {
          "duration": 0.10069440416665998,
          "durationTicks": 58,
          "midi": 72,
          "name": "C5",
          "ticks": 26160,
          "time": 45.4166485,
          "velocity": 0.5669291338582677
        },
        {
          "duration": 0.10069440416666708,
          "durationTicks": 58,
          "midi": 72,
          "name": "C5",
          "ticks": 26280,
          "time": 45.624981749999996,
          "velocity": 0.5669291338582677
        },
        {
          "duration": 0.10069440416666708,
          "durationTicks": 58,
          "midi": 67,
          "name": "G4",
          "ticks": 26400,
          "time": 45.833315,
          "velocity": 0.5669291338582677
        },
        {
          "duration": 0.10069440416666708,
          "durationTicks": 58,
          "midi": 69,
          "name": "A4",
          "ticks": 26460,
          "time": 45.937481625,
          "velocity": 0.5669291338582677
        },
        {
          "duration": 0.1527777166666624,
          "durationTicks": 88,
          "midi": 70,
          "name": "A#4",
          "ticks": 26520,
          "time": 46.04164825,
          "velocity": 0.5669291338582677
        },
        {
          "duration": 0.10069440416666708,
          "durationTicks": 58,
          "midi": 70,
          "name": "A#4",
          "ticks": 26640,
          "time": 46.2499815,
          "velocity": 0.5669291338582677
        },
        {
          "duration": 0.10069440416666708,
          "durationTicks": 58,
          "midi": 70,
          "name": "A#4",
          "ticks": 26760,
          "time": 46.45831475,
          "velocity": 0.5669291338582677
        },
        {
          "duration": 0.10069440416665998,
          "durationTicks": 58,
          "midi": 66,
          "name": "F#4",
          "ticks": 26880,
          "time": 46.666648,
          "velocity": 0.5669291338582677
        },
        {
          "duration": 0.10069440416665998,
          "durationTicks": 58,
          "midi": 67,
          "name": "G4",
          "ticks": 26940,
          "time": 46.770814625,
          "velocity": 0.5669291338582677
        },
        {
          "duration": 0.1527777166666624,
          "durationTicks": 88,
          "midi": 69,
          "name": "A4",
          "ticks": 27000,
          "time": 46.87498125,
          "velocity": 0.5669291338582677
        },
        {
          "duration": 0.10069440416665998,
          "durationTicks": 58,
          "midi": 69,
          "name": "A4",
          "ticks": 27120,
          "time": 47.0833145,
          "velocity": 0.5669291338582677
        },
        {
          "duration": 0.10069440416665998,
          "durationTicks": 58,
          "midi": 69,
          "name": "A4",
          "ticks": 27240,
          "time": 47.29164775,
          "velocity": 0.5669291338582677
        },
        {
          "duration": 0.10069440416666708,
          "durationTicks": 58,
          "midi": 69,
          "name": "A4",
          "ticks": 27360,
          "time": 47.499981,
          "velocity": 0.5669291338582677
        },
        {
          "duration": 0.10069440416666708,
          "durationTicks": 58,
          "midi": 67,
          "name": "G4",
          "ticks": 27420,
          "time": 47.604147624999996,
          "velocity": 0.5669291338582677
        },
        {
          "duration": 0.1527777166666624,
          "durationTicks": 88,
          "midi": 66,
          "name": "F#4",
          "ticks": 27480,
          "time": 47.70831425,
          "velocity": 0.5669291338582677
        },
        {
          "duration": 0.10069440416666708,
          "durationTicks": 58,
          "midi": 66,
          "name": "F#4",
          "ticks": 27600,
          "time": 47.916647499999996,
          "velocity": 0.5669291338582677
        },
        {
          "duration": 0.10069440416666708,
          "durationTicks": 58,
          "midi": 66,
          "name": "F#4",
          "ticks": 27720,
          "time": 48.12498075,
          "velocity": 0.5669291338582677
        },
        {
          "duration": 0.10069440416665998,
          "durationTicks": 58,
          "midi": 65,
          "name": "F4",
          "ticks": 27840,
          "time": 48.333314,
          "velocity": 0.5669291338582677
        },
        {
          "duration": 0.10069440416666708,
          "durationTicks": 58,
          "midi": 67,
          "name": "G4",
          "ticks": 27900,
          "time": 48.437480625,
          "velocity": 0.5669291338582677
        },
        {
          "duration": 0.1527777166666695,
          "durationTicks": 88,
          "midi": 69,
          "name": "A4",
          "ticks": 27960,
          "time": 48.54164725,
          "velocity": 0.5669291338582677
        },
        {
          "duration": 0.10069440416666708,
          "durationTicks": 58,
          "midi": 69,
          "name": "A4",
          "ticks": 28080,
          "time": 48.7499805,
          "velocity": 0.5669291338582677
        },
        {
          "duration": 0.10069440416665998,
          "durationTicks": 58,
          "midi": 69,
          "name": "A4",
          "ticks": 28200,
          "time": 48.95831375,
          "velocity": 0.5669291338582677
        },
        {
          "duration": 0.10069440416666708,
          "durationTicks": 58,
          "midi": 69,
          "name": "A4",
          "ticks": 28320,
          "time": 49.166647,
          "velocity": 0.5669291338582677
        },
        {
          "duration": 0.10069440416665998,
          "durationTicks": 58,
          "midi": 67,
          "name": "G4",
          "ticks": 28380,
          "time": 49.270813625,
          "velocity": 0.5669291338582677
        },
        {
          "duration": 0.1527777166666624,
          "durationTicks": 88,
          "midi": 65,
          "name": "F4",
          "ticks": 28440,
          "time": 49.37498025,
          "velocity": 0.5669291338582677
        },
        {
          "duration": 0.10069440416665998,
          "durationTicks": 58,
          "midi": 65,
          "name": "F4",
          "ticks": 28560,
          "time": 49.5833135,
          "velocity": 0.5669291338582677
        },
        {
          "duration": 0.10069440416666708,
          "durationTicks": 58,
          "midi": 65,
          "name": "F4",
          "ticks": 28680,
          "time": 49.79164675,
          "velocity": 0.5669291338582677
        },
        {
          "duration": 0.361110966666665,
          "durationTicks": 208,
          "midi": 64,
          "name": "E4",
          "ticks": 28800,
          "time": 49.99998,
          "velocity": 0.5669291338582677
        },
        {
          "duration": 0.361110966666665,
          "durationTicks": 208,
          "midi": 71,
          "name": "B4",
          "ticks": 28800,
          "time": 49.99998,
          "velocity": 0.5669291338582677
        },
        {
          "duration": 0.361110966666665,
          "durationTicks": 208,
          "midi": 76,
          "name": "E5",
          "ticks": 28800,
          "time": 49.99998,
          "velocity": 0.5669291338582677
        },
        {
          "duration": 0.4131942791666674,
          "durationTicks": 238,
          "midi": 64,
          "name": "E4",
          "ticks": 29040,
          "time": 50.4166465,
          "velocity": 0.5669291338582677
        },
        {
          "duration": 0.4131942791666603,
          "durationTicks": 238,
          "midi": 62,
          "name": "D4",
          "ticks": 29520,
          "time": 51.2499795,
          "velocity": 0.3779527559055118
        },
        {
          "duration": 0.4131942791666674,
          "durationTicks": 238,
          "midi": 60,
          "name": "C4",
          "ticks": 30000,
          "time": 52.0833125,
          "velocity": 0.3779527559055118
        },
        {
          "duration": 0.361110966666665,
          "durationTicks": 208,
          "midi": 59,
          "name": "B3",
          "ticks": 30480,
          "time": 52.9166455,
          "velocity": 0.3779527559055118
        },
        {
          "duration": 0.4131942791666674,
          "durationTicks": 238,
          "midi": 57,
          "name": "A3",
          "ticks": 30720,
          "time": 53.333312,
          "velocity": 0.3779527559055118
        },
        {
          "duration": 0.20486102916667193,
          "durationTicks": 118,
          "midi": 60,
          "name": "C4",
          "ticks": 30960,
          "time": 53.7499785,
          "velocity": 0.3779527559055118
        },
        {
          "duration": 0.20486102916667193,
          "durationTicks": 118,
          "midi": 64,
          "name": "E4",
          "ticks": 31080,
          "time": 53.95831175,
          "velocity": 0.3779527559055118
        },
        {
          "duration": 0.4131942791666674,
          "durationTicks": 238,
          "midi": 69,
          "name": "A4",
          "ticks": 31200,
          "time": 54.166645,
          "velocity": 0.3779527559055118
        },
        {
          "duration": 0.4131942791666674,
          "durationTicks": 238,
          "midi": 67,
          "name": "G4",
          "ticks": 31440,
          "time": 54.5833115,
          "velocity": 0.3779527559055118
        },
        {
          "duration": 0.4131942791666674,
          "durationTicks": 238,
          "midi": 65,
          "name": "F4",
          "ticks": 31680,
          "time": 54.999978,
          "velocity": 0.3779527559055118
        },
        {
          "duration": 0.4131942791666745,
          "durationTicks": 238,
          "midi": 64,
          "name": "E4",
          "ticks": 31920,
          "time": 55.4166445,
          "velocity": 0.3779527559055118
        },
        {
          "duration": 0.4131942791666674,
          "durationTicks": 238,
          "midi": 62,
          "name": "D4",
          "ticks": 32160,
          "time": 55.833311,
          "velocity": 0.3779527559055118
        },
        {
          "duration": 0.3611109666666721,
          "durationTicks": 208,
          "midi": 60,
          "name": "C4",
          "ticks": 32400,
          "time": 56.2499775,
          "velocity": 0.3779527559055118
        },
        {
          "duration": 0.4131942791666745,
          "durationTicks": 238,
          "midi": 59,
          "name": "B3",
          "ticks": 32640,
          "time": 56.666644,
          "velocity": 0.3779527559055118
        },
        {
          "duration": 0.20486102916667193,
          "durationTicks": 118,
          "midi": 60,
          "name": "C4",
          "ticks": 32880,
          "time": 57.083310499999996,
          "velocity": 0.3779527559055118
        },
        {
          "duration": 0.1527777166666695,
          "durationTicks": 88,
          "midi": 62,
          "name": "D4",
          "ticks": 33000,
          "time": 57.29164375,
          "velocity": 0.3779527559055118
        },
        {
          "duration": 0.20486102916666482,
          "durationTicks": 118,
          "midi": 64,
          "name": "E4",
          "ticks": 33120,
          "time": 57.499977,
          "velocity": 0.3779527559055118
        },
        {
          "duration": 0.20486102916667193,
          "durationTicks": 118,
          "midi": 62,
          "name": "D4",
          "ticks": 33240,
          "time": 57.70831025,
          "velocity": 0.3779527559055118
        },
        {
          "duration": 0.3611109666666721,
          "durationTicks": 208,
          "midi": 64,
          "name": "E4",
          "ticks": 33360,
          "time": 57.9166435,
          "velocity": 0.3779527559055118
        },
        {
          "duration": 0.4131942791666745,
          "durationTicks": 238,
          "midi": 57,
          "name": "A3",
          "ticks": 33600,
          "time": 58.33331,
          "velocity": 0.3779527559055118
        },
        {
          "duration": 0.4131942791666674,
          "durationTicks": 238,
          "midi": 67,
          "name": "G4",
          "ticks": 33840,
          "time": 58.7499765,
          "velocity": 0.3779527559055118
        },
        {
          "duration": 0.4131942791666674,
          "durationTicks": 238,
          "midi": 65,
          "name": "F4",
          "ticks": 34080,
          "time": 59.166643,
          "velocity": 0.3779527559055118
        },
        {
          "duration": 0.3611109666666721,
          "durationTicks": 208,
          "midi": 64,
          "name": "E4",
          "ticks": 34320,
          "time": 59.5833095,
          "velocity": 0.3779527559055118
        },
        {
          "duration": 0.4131942791666745,
          "durationTicks": 238,
          "midi": 62,
          "name": "D4",
          "ticks": 34560,
          "time": 59.999976,
          "velocity": 0.3779527559055118
        },
        {
          "duration": 0.20486102916666482,
          "durationTicks": 118,
          "midi": 65,
          "name": "F4",
          "ticks": 34800,
          "time": 60.4166425,
          "velocity": 0.3779527559055118
        },
        {
          "duration": 0.20486102916667193,
          "durationTicks": 118,
          "midi": 69,
          "name": "A4",
          "ticks": 34920,
          "time": 60.62497575,
          "velocity": 0.3779527559055118
        },
        {
          "duration": 0.4131942791666674,
          "durationTicks": 238,
          "midi": 74,
          "name": "D5",
          "ticks": 35040,
          "time": 60.833309,
          "velocity": 0.3779527559055118
        },
        {
          "duration": 0.4131942791666745,
          "durationTicks": 238,
          "midi": 72,
          "name": "C5",
          "ticks": 35280,
          "time": 61.2499755,
          "velocity": 0.3779527559055118
        },
        {
          "duration": 0.4131942791666745,
          "durationTicks": 238,
          "midi": 70,
          "name": "A#4",
          "ticks": 35520,
          "time": 61.666641999999996,
          "velocity": 0.3779527559055118
        },
        {
          "duration": 0.4131942791666674,
          "durationTicks": 238,
          "midi": 69,
          "name": "A4",
          "ticks": 35760,
          "time": 62.0833085,
          "velocity": 0.3779527559055118
        },
        {
          "duration": 0.4131942791666674,
          "durationTicks": 238,
          "midi": 67,
          "name": "G4",
          "ticks": 36000,
          "time": 62.499975,
          "velocity": 0.3779527559055118
        },
        {
          "duration": 0.3611109666666721,
          "durationTicks": 208,
          "midi": 65,
          "name": "F4",
          "ticks": 36240,
          "time": 62.9166415,
          "velocity": 0.3779527559055118
        },
        {
          "duration": 0.4131942791666674,
          "durationTicks": 238,
          "midi": 64,
          "name": "E4",
          "ticks": 36480,
          "time": 63.333308,
          "velocity": 0.3779527559055118
        },
        {
          "duration": 0.20486102916667193,
          "durationTicks": 118,
          "midi": 65,
          "name": "F4",
          "ticks": 36720,
          "time": 63.7499745,
          "velocity": 0.3779527559055118
        },
        {
          "duration": 0.20486102916667193,
          "durationTicks": 118,
          "midi": 67,
          "name": "G4",
          "ticks": 36840,
          "time": 63.958307749999996,
          "velocity": 0.3779527559055118
        },
        {
          "duration": 0.4131942791666745,
          "durationTicks": 238,
          "midi": 69,
          "name": "A4",
          "ticks": 36960,
          "time": 64.166641,
          "velocity": 0.3779527559055118
        },
        {
          "duration": 0.3611109666666721,
          "durationTicks": 208,
          "midi": 57,
          "name": "A3",
          "ticks": 37200,
          "time": 64.5833075,
          "velocity": 0.3779527559055118
        },
        {
          "duration": 0.4131942791666745,
          "durationTicks": 238,
          "midi": 62,
          "name": "D4",
          "ticks": 37440,
          "time": 64.999974,
          "velocity": 0.3779527559055118
        },
        {
          "duration": 0.20486102916666482,
          "durationTicks": 118,
          "midi": 65,
          "name": "F4",
          "ticks": 37680,
          "time": 65.4166405,
          "velocity": 0.3779527559055118
        },
        {
          "duration": 0.20486102916667903,
          "durationTicks": 118,
          "midi": 64,
          "name": "E4",
          "ticks": 37800,
          "time": 65.62497375,
          "velocity": 0.3779527559055118
        },
        {
          "duration": 0.4131942791666603,
          "durationTicks": 238,
          "midi": 62,
          "name": "D4",
          "ticks": 37920,
          "time": 65.833307,
          "velocity": 0.3779527559055118
        },
        {
          "duration": 0.20486102916667903,
          "durationTicks": 118,
          "midi": 64,
          "name": "E4",
          "ticks": 38160,
          "time": 66.2499735,
          "velocity": 0.3779527559055118
        },
        {
          "duration": 0.20486102916666482,
          "durationTicks": 118,
          "midi": 65,
          "name": "F4",
          "ticks": 38280,
          "time": 66.45830675,
          "velocity": 0.3779527559055118
        },
        {
          "duration": 0.4131942791666745,
          "durationTicks": 238,
          "midi": 67,
          "name": "G4",
          "ticks": 38400,
          "time": 66.66664,
          "velocity": 0.3779527559055118
        },
        {
          "duration": 0.20486102916666482,
          "durationTicks": 118,
          "midi": 65,
          "name": "F4",
          "ticks": 38640,
          "time": 67.0833065,
          "velocity": 0.3779527559055118
        },
        {
          "duration": 0.1527777166666624,
          "durationTicks": 88,
          "midi": 67,
          "name": "G4",
          "ticks": 38760,
          "time": 67.29163975,
          "velocity": 0.3779527559055118
        },
        {
          "duration": 0.4131942791666745,
          "durationTicks": 238,
          "midi": 55,
          "name": "G3",
          "ticks": 38880,
          "time": 67.499973,
          "velocity": 0.3779527559055118
        },
        {
          "duration": 0.3611109666666721,
          "durationTicks": 208,
          "midi": 67,
          "name": "G4",
          "ticks": 39120,
          "time": 67.9166395,
          "velocity": 0.3779527559055118
        },
        {
          "duration": 0.4131942791666745,
          "durationTicks": 238,
          "midi": 60,
          "name": "C4",
          "ticks": 39360,
          "time": 68.333306,
          "velocity": 0.3779527559055118
        },
        {
          "duration": 0.20486102916666482,
          "durationTicks": 118,
          "midi": 64,
          "name": "E4",
          "ticks": 39600,
          "time": 68.7499725,
          "velocity": 0.3779527559055118
        },
        {
          "duration": 0.20486102916667903,
          "durationTicks": 118,
          "midi": 62,
          "name": "D4",
          "ticks": 39720,
          "time": 68.95830575,
          "velocity": 0.3779527559055118
        },
        {
          "duration": 0.4131942791666603,
          "durationTicks": 238,
          "midi": 60,
          "name": "C4",
          "ticks": 39840,
          "time": 69.166639,
          "velocity": 0.3779527559055118
        },
        {
          "duration": 0.20486102916667903,
          "durationTicks": 118,
          "midi": 62,
          "name": "D4",
          "ticks": 40080,
          "time": 69.5833055,
          "velocity": 0.3779527559055118
        },
        {
          "duration": 0.20486102916666482,
          "durationTicks": 118,
          "midi": 64,
          "name": "E4",
          "ticks": 40200,
          "time": 69.79163875,
          "velocity": 0.3779527559055118
        },
        {
          "duration": 0.4131942791666745,
          "durationTicks": 238,
          "midi": 65,
          "name": "F4",
          "ticks": 40320,
          "time": 69.999972,
          "velocity": 0.3779527559055118
        },
        {
          "duration": 0.20486102916666482,
          "durationTicks": 118,
          "midi": 60,
          "name": "C4",
          "ticks": 40560,
          "time": 70.4166385,
          "velocity": 0.3779527559055118
        },
        {
          "duration": 0.1527777166666624,
          "durationTicks": 88,
          "midi": 57,
          "name": "A3",
          "ticks": 40680,
          "time": 70.62497175,
          "velocity": 0.3779527559055118
        },
        {
          "duration": 0.20486102916667903,
          "durationTicks": 118,
          "midi": 65,
          "name": "F4",
          "ticks": 40800,
          "time": 70.833305,
          "velocity": 0.3779527559055118
        },
        {
          "duration": 0.20486102916666482,
          "durationTicks": 118,
          "midi": 65,
          "name": "F4",
          "ticks": 41040,
          "time": 71.2499715,
          "velocity": 0.3779527559055118
        },
        {
          "duration": 0.4131942791666603,
          "durationTicks": 238,
          "midi": 59,
          "name": "B3",
          "ticks": 41280,
          "time": 71.666638,
          "velocity": 0.3779527559055118
        },
        {
          "duration": 0.20486102916667903,
          "durationTicks": 118,
          "midi": 62,
          "name": "D4",
          "ticks": 41520,
          "time": 72.0833045,
          "velocity": 0.3779527559055118
        },
        {
          "duration": 0.20486102916667903,
          "durationTicks": 118,
          "midi": 60,
          "name": "C4",
          "ticks": 41640,
          "time": 72.29163774999999,
          "velocity": 0.3779527559055118
        },
        {
          "duration": 0.4131942791666603,
          "durationTicks": 238,
          "midi": 59,
          "name": "B3",
          "ticks": 41760,
          "time": 72.499971,
          "velocity": 0.3779527559055118
        },
        {
          "duration": 0.20486102916667903,
          "durationTicks": 118,
          "midi": 60,
          "name": "C4",
          "ticks": 42000,
          "time": 72.9166375,
          "velocity": 0.3779527559055118
        },
        {
          "duration": 0.1527777166666624,
          "durationTicks": 88,
          "midi": 62,
          "name": "D4",
          "ticks": 42120,
          "time": 73.12497075,
          "velocity": 0.3779527559055118
        },
        {
          "duration": 0.4131942791666745,
          "durationTicks": 238,
          "midi": 64,
          "name": "E4",
          "ticks": 42240,
          "time": 73.333304,
          "velocity": 0.3779527559055118
        },
        {
          "duration": 0.4131942791666603,
          "durationTicks": 238,
          "midi": 62,
          "name": "D4",
          "ticks": 42480,
          "time": 73.7499705,
          "velocity": 0.3779527559055118
        },
        {
          "duration": 0.4131942791666745,
          "durationTicks": 238,
          "midi": 60,
          "name": "C4",
          "ticks": 42720,
          "time": 74.166637,
          "velocity": 0.3779527559055118
        },
        {
          "duration": 0.4131942791666745,
          "durationTicks": 238,
          "midi": 59,
          "name": "B3",
          "ticks": 42960,
          "time": 74.5833035,
          "velocity": 0.3779527559055118
        },
        {
          "duration": 0.4131942791666603,
          "durationTicks": 238,
          "midi": 57,
          "name": "A3",
          "ticks": 43200,
          "time": 74.99997,
          "velocity": 0.3779527559055118
        },
        {
          "duration": 0.4131942791666745,
          "durationTicks": 238,
          "midi": 67,
          "name": "G4",
          "ticks": 43440,
          "time": 75.4166365,
          "velocity": 0.3779527559055118
        },
        {
          "duration": 0.4131942791666745,
          "durationTicks": 238,
          "midi": 66,
          "name": "F#4",
          "ticks": 43680,
          "time": 75.833303,
          "velocity": 0.3779527559055118
        },
        {
          "duration": 0.3611109666666579,
          "durationTicks": 208,
          "midi": 65,
          "name": "F4",
          "ticks": 43920,
          "time": 76.2499695,
          "velocity": 0.3779527559055118
        },
        {
          "duration": 0.4131942791666745,
          "durationTicks": 238,
          "midi": 64,
          "name": "E4",
          "ticks": 44160,
          "time": 76.666636,
          "velocity": 0.3779527559055118
        },
        {
          "duration": 0.20486102916666482,
          "durationTicks": 118,
          "midi": 62,
          "name": "D4",
          "ticks": 44400,
          "time": 77.0833025,
          "velocity": 0.3779527559055118
        },
        {
          "duration": 0.1527777166666766,
          "durationTicks": 88,
          "midi": 64,
          "name": "E4",
          "ticks": 44520,
          "time": 77.29163575,
          "velocity": 0.3779527559055118
        },
        {
          "duration": 0.4131942791666745,
          "durationTicks": 238,
          "midi": 65,
          "name": "F4",
          "ticks": 44640,
          "time": 77.499969,
          "velocity": 0.3779527559055118
        },
        {
          "duration": 0.20486102916666482,
          "durationTicks": 118,
          "midi": 64,
          "name": "E4",
          "ticks": 44880,
          "time": 77.9166355,
          "velocity": 0.3779527559055118
        },
        {
          "duration": 0.1527777166666766,
          "durationTicks": 88,
          "midi": 65,
          "name": "F4",
          "ticks": 45000,
          "time": 78.12496875,
          "velocity": 0.3779527559055118
        },
        {
          "duration": 0.4131942791666603,
          "durationTicks": 238,
          "midi": 62,
          "name": "D4",
          "ticks": 45120,
          "time": 78.333302,
          "velocity": 0.3779527559055118
        },
        {
          "duration": 0.20486102916667903,
          "durationTicks": 118,
          "midi": 60,
          "name": "C4",
          "ticks": 45360,
          "time": 78.7499685,
          "velocity": 0.3779527559055118
        },
        {
          "duration": 0.1527777166666624,
          "durationTicks": 88,
          "midi": 62,
          "name": "D4",
          "ticks": 45480,
          "time": 78.95830175,
          "velocity": 0.3779527559055118
        },
        {
          "duration": 0.4131942791666745,
          "durationTicks": 238,
          "midi": 64,
          "name": "E4",
          "ticks": 45600,
          "time": 79.166635,
          "velocity": 0.3779527559055118
        },
        {
          "duration": 0.20486102916666482,
          "durationTicks": 118,
          "midi": 62,
          "name": "D4",
          "ticks": 45840,
          "time": 79.5833015,
          "velocity": 0.3779527559055118
        },
        {
          "duration": 0.1527777166666624,
          "durationTicks": 88,
          "midi": 64,
          "name": "E4",
          "ticks": 45960,
          "time": 79.79163475,
          "velocity": 0.3779527559055118
        },
        {
          "duration": 0.1527777166666766,
          "durationTicks": 88,
          "midi": 57,
          "name": "A3",
          "ticks": 46080,
          "time": 79.999968,
          "velocity": 0.3779527559055118
        },
        {
          "duration": 0.1527777166666624,
          "durationTicks": 88,
          "midi": 69,
          "name": "A4",
          "ticks": 46200,
          "time": 80.20830125,
          "velocity": 0.3779527559055118
        },
        {
          "duration": 0.1527777166666624,
          "durationTicks": 88,
          "midi": 69,
          "name": "A4",
          "ticks": 46320,
          "time": 80.4166345,
          "velocity": 0.3779527559055118
        },
        {
          "duration": 0.20486102916667903,
          "durationTicks": 118,
          "midi": 69,
          "name": "A4",
          "ticks": 46440,
          "time": 80.62496775,
          "velocity": 0.3779527559055118
        },
        {
          "duration": 0.1527777166666624,
          "durationTicks": 88,
          "midi": 72,
          "name": "C5",
          "ticks": 46680,
          "time": 81.04163425,
          "velocity": 0.3779527559055118
        },
        {
          "duration": 0.1527777166666766,
          "durationTicks": 88,
          "midi": 72,
          "name": "C5",
          "ticks": 46800,
          "time": 81.2499675,
          "velocity": 0.3779527559055118
        },
        {
          "duration": 0.20486102916667903,
          "durationTicks": 118,
          "midi": 72,
          "name": "C5",
          "ticks": 46920,
          "time": 81.45830074999999,
          "velocity": 0.3779527559055118
        },
        {
          "duration": 0.1527777166666766,
          "durationTicks": 88,
          "midi": 76,
          "name": "E5",
          "ticks": 47160,
          "time": 81.87496725,
          "velocity": 0.3779527559055118
        },
        {
          "duration": 0.1527777166666766,
          "durationTicks": 88,
          "midi": 76,
          "name": "E5",
          "ticks": 47280,
          "time": 82.08330049999999,
          "velocity": 0.3779527559055118
        },
        {
          "duration": 0.20486102916666482,
          "durationTicks": 118,
          "midi": 76,
          "name": "E5",
          "ticks": 47400,
          "time": 82.29163375,
          "velocity": 0.3779527559055118
        },
        {
          "duration": 0.1527777166666766,
          "durationTicks": 88,
          "midi": 81,
          "name": "A5",
          "ticks": 47640,
          "time": 82.70830025,
          "velocity": 0.3779527559055118
        },
        {
          "duration": 0.1527777166666624,
          "durationTicks": 88,
          "midi": 81,
          "name": "A5",
          "ticks": 47760,
          "time": 82.9166335,
          "velocity": 0.3779527559055118
        },
        {
          "duration": 0.20486102916666482,
          "durationTicks": 118,
          "midi": 81,
          "name": "A5",
          "ticks": 47880,
          "time": 83.12496675,
          "velocity": 0.3779527559055118
        },
        {
          "duration": 0.1527777166666624,
          "durationTicks": 88,
          "midi": 84,
          "name": "C6",
          "ticks": 48120,
          "time": 83.54163325,
          "velocity": 0.3779527559055118
        },
        {
          "duration": 0.1527777166666766,
          "durationTicks": 88,
          "midi": 84,
          "name": "C6",
          "ticks": 48240,
          "time": 83.7499665,
          "velocity": 0.3779527559055118
        },
        {
          "duration": 0.20486102916667903,
          "durationTicks": 118,
          "midi": 84,
          "name": "C6",
          "ticks": 48360,
          "time": 83.95829975,
          "velocity": 0.3779527559055118
        },
        {
          "duration": 0.1527777166666624,
          "durationTicks": 88,
          "midi": 81,
          "name": "A5",
          "ticks": 48600,
          "time": 84.37496625,
          "velocity": 0.3779527559055118
        },
        {
          "duration": 0.1527777166666766,
          "durationTicks": 88,
          "midi": 81,
          "name": "A5",
          "ticks": 48720,
          "time": 84.5832995,
          "velocity": 0.3779527559055118
        },
        {
          "duration": 0.20486102916666482,
          "durationTicks": 118,
          "midi": 81,
          "name": "A5",
          "ticks": 48840,
          "time": 84.79163275,
          "velocity": 0.3779527559055118
        },
        {
          "duration": 0.1527777166666766,
          "durationTicks": 88,
          "midi": 78,
          "name": "F#5",
          "ticks": 49080,
          "time": 85.20829925,
          "velocity": 0.3779527559055118
        },
        {
          "duration": 0.1527777166666624,
          "durationTicks": 88,
          "midi": 78,
          "name": "F#5",
          "ticks": 49200,
          "time": 85.4166325,
          "velocity": 0.3779527559055118
        },
        {
          "duration": 0.20486102916666482,
          "durationTicks": 118,
          "midi": 78,
          "name": "F#5",
          "ticks": 49320,
          "time": 85.62496575,
          "velocity": 0.3779527559055118
        },
        {
          "duration": 0.1527777166666766,
          "durationTicks": 88,
          "midi": 72,
          "name": "C5",
          "ticks": 49560,
          "time": 86.04163224999999,
          "velocity": 0.3779527559055118
        },
        {
          "duration": 0.1527777166666624,
          "durationTicks": 88,
          "midi": 72,
          "name": "C5",
          "ticks": 49680,
          "time": 86.2499655,
          "velocity": 0.3779527559055118
        },
        {
          "duration": 0.20486102916666482,
          "durationTicks": 118,
          "midi": 72,
          "name": "C5",
          "ticks": 49800,
          "time": 86.45829875,
          "velocity": 0.3779527559055118
        },
        {
          "duration": 0.1527777166666624,
          "durationTicks": 88,
          "midi": 73,
          "name": "C#5",
          "ticks": 50040,
          "time": 86.87496525,
          "velocity": 0.3779527559055118
        },
        {
          "duration": 0.1527777166666766,
          "durationTicks": 88,
          "midi": 73,
          "name": "C#5",
          "ticks": 50160,
          "time": 87.0832985,
          "velocity": 0.3779527559055118
        },
        {
          "duration": 0.20486102916667903,
          "durationTicks": 118,
          "midi": 73,
          "name": "C#5",
          "ticks": 50280,
          "time": 87.29163175,
          "velocity": 0.3779527559055118
        },
        {
          "duration": 0.1527777166666766,
          "durationTicks": 88,
          "midi": 70,
          "name": "A#4",
          "ticks": 50520,
          "time": 87.70829825,
          "velocity": 0.3779527559055118
        },
        {
          "duration": 0.1527777166666766,
          "durationTicks": 88,
          "midi": 70,
          "name": "A#4",
          "ticks": 50640,
          "time": 87.9166315,
          "velocity": 0.3779527559055118
        },
        {
          "duration": 0.20486102916666482,
          "durationTicks": 118,
          "midi": 70,
          "name": "A#4",
          "ticks": 50760,
          "time": 88.12496475,
          "velocity": 0.3779527559055118
        },
        {
          "duration": 0.1527777166666766,
          "durationTicks": 88,
          "midi": 67,
          "name": "G4",
          "ticks": 51000,
          "time": 88.54163125,
          "velocity": 0.3779527559055118
        },
        {
          "duration": 0.1527777166666624,
          "durationTicks": 88,
          "midi": 67,
          "name": "G4",
          "ticks": 51120,
          "time": 88.7499645,
          "velocity": 0.3779527559055118
        },
        {
          "duration": 0.20486102916666482,
          "durationTicks": 118,
          "midi": 67,
          "name": "G4",
          "ticks": 51240,
          "time": 88.95829775,
          "velocity": 0.3779527559055118
        },
        {
          "duration": 0.1527777166666624,
          "durationTicks": 88,
          "midi": 61,
          "name": "C#4",
          "ticks": 51480,
          "time": 89.37496425,
          "velocity": 0.3779527559055118
        },
        {
          "duration": 0.1527777166666624,
          "durationTicks": 88,
          "midi": 61,
          "name": "C#4",
          "ticks": 51600,
          "time": 89.5832975,
          "velocity": 0.3779527559055118
        },
        {
          "duration": 0.20486102916667903,
          "durationTicks": 118,
          "midi": 61,
          "name": "C#4",
          "ticks": 51720,
          "time": 89.79163075,
          "velocity": 0.3779527559055118
        },
        {
          "duration": 0.1527777166666624,
          "durationTicks": 88,
          "midi": 59,
          "name": "B3",
          "ticks": 51960,
          "time": 90.20829725,
          "velocity": 0.3779527559055118
        },
        {
          "duration": 0.1527777166666766,
          "durationTicks": 88,
          "midi": 59,
          "name": "B3",
          "ticks": 52080,
          "time": 90.4166305,
          "velocity": 0.3779527559055118
        },
        {
          "duration": 0.20486102916667903,
          "durationTicks": 118,
          "midi": 59,
          "name": "B3",
          "ticks": 52200,
          "time": 90.62496374999999,
          "velocity": 0.3779527559055118
        },
        {
          "duration": 0.1527777166666766,
          "durationTicks": 88,
          "midi": 59,
          "name": "B3",
          "ticks": 52440,
          "time": 91.04163025,
          "velocity": 0.3779527559055118
        },
        {
          "duration": 0.1527777166666766,
          "durationTicks": 88,
          "midi": 59,
          "name": "B3",
          "ticks": 52560,
          "time": 91.24996349999999,
          "velocity": 0.3779527559055118
        },
        {
          "duration": 0.20486102916666482,
          "durationTicks": 118,
          "midi": 59,
          "name": "B3",
          "ticks": 52680,
          "time": 91.45829675,
          "velocity": 0.3779527559055118
        },
        {
          "duration": 0.1527777166666766,
          "durationTicks": 88,
          "midi": 58,
          "name": "A#3",
          "ticks": 52920,
          "time": 91.87496325,
          "velocity": 0.3779527559055118
        },
        {
          "duration": 0.1527777166666624,
          "durationTicks": 88,
          "midi": 58,
          "name": "A#3",
          "ticks": 53040,
          "time": 92.0832965,
          "velocity": 0.3779527559055118
        },
        {
          "duration": 0.20486102916666482,
          "durationTicks": 118,
          "midi": 58,
          "name": "A#3",
          "ticks": 53160,
          "time": 92.29162975,
          "velocity": 0.3779527559055118
        },
        {
          "duration": 0.1527777166666624,
          "durationTicks": 88,
          "midi": 58,
          "name": "A#3",
          "ticks": 53400,
          "time": 92.70829625,
          "velocity": 0.3779527559055118
        },
        {
          "duration": 0.1527777166666766,
          "durationTicks": 88,
          "midi": 58,
          "name": "A#3",
          "ticks": 53520,
          "time": 92.9166295,
          "velocity": 0.3779527559055118
        },
        {
          "duration": 0.1527777166666766,
          "durationTicks": 88,
          "midi": 58,
          "name": "A#3",
          "ticks": 53640,
          "time": 93.12496275,
          "velocity": 0.3779527559055118
        },
        {
          "duration": 0.1527777166666624,
          "durationTicks": 88,
          "midi": 56,
          "name": "G#3",
          "ticks": 53760,
          "time": 93.333296,
          "velocity": 0.3779527559055118
        },
        {
          "duration": 0.1527777166666624,
          "durationTicks": 88,
          "midi": 68,
          "name": "G#4",
          "ticks": 53880,
          "time": 93.54162925,
          "velocity": 0.3779527559055118
        },
        {
          "duration": 0.1527777166666766,
          "durationTicks": 88,
          "midi": 68,
          "name": "G#4",
          "ticks": 54000,
          "time": 93.7499625,
          "velocity": 0.3779527559055118
        },
        {
          "duration": 0.20486102916666482,
          "durationTicks": 118,
          "midi": 68,
          "name": "G#4",
          "ticks": 54120,
          "time": 93.95829575,
          "velocity": 0.3779527559055118
        },
        {
          "duration": 0.1527777166666766,
          "durationTicks": 88,
          "midi": 71,
          "name": "B4",
          "ticks": 54360,
          "time": 94.37496225,
          "velocity": 0.3779527559055118
        },
        {
          "duration": 0.1527777166666624,
          "durationTicks": 88,
          "midi": 71,
          "name": "B4",
          "ticks": 54480,
          "time": 94.5832955,
          "velocity": 0.3779527559055118
        },
        {
          "duration": 0.20486102916666482,
          "durationTicks": 118,
          "midi": 71,
          "name": "B4",
          "ticks": 54600,
          "time": 94.79162875,
          "velocity": 0.3779527559055118
        },
        {
          "duration": 0.1527777166666766,
          "durationTicks": 88,
          "midi": 75,
          "name": "D#5",
          "ticks": 54840,
          "time": 95.20829524999999,
          "velocity": 0.3779527559055118
        },
        {
          "duration": 0.1527777166666624,
          "durationTicks": 88,
          "midi": 75,
          "name": "D#5",
          "ticks": 54960,
          "time": 95.4166285,
          "velocity": 0.3779527559055118
        },
        {
          "duration": 0.20486102916666482,
          "durationTicks": 118,
          "midi": 75,
          "name": "D#5",
          "ticks": 55080,
          "time": 95.62496175,
          "velocity": 0.3779527559055118
        },
        {
          "duration": 0.1527777166666624,
          "durationTicks": 88,
          "midi": 80,
          "name": "G#5",
          "ticks": 55320,
          "time": 96.04162825,
          "velocity": 0.3779527559055118
        },
        {
          "duration": 0.1527777166666766,
          "durationTicks": 88,
          "midi": 80,
          "name": "G#5",
          "ticks": 55440,
          "time": 96.2499615,
          "velocity": 0.3779527559055118
        },
        {
          "duration": 0.20486102916667903,
          "durationTicks": 118,
          "midi": 80,
          "name": "G#5",
          "ticks": 55560,
          "time": 96.45829475,
          "velocity": 0.3779527559055118
        },
        {
          "duration": 0.1527777166666766,
          "durationTicks": 88,
          "midi": 83,
          "name": "B5",
          "ticks": 55800,
          "time": 96.87496125,
          "velocity": 0.3779527559055118
        },
        {
          "duration": 0.1527777166666766,
          "durationTicks": 88,
          "midi": 83,
          "name": "B5",
          "ticks": 55920,
          "time": 97.0832945,
          "velocity": 0.3779527559055118
        },
        {
          "duration": 0.20486102916666482,
          "durationTicks": 118,
          "midi": 83,
          "name": "B5",
          "ticks": 56040,
          "time": 97.29162775,
          "velocity": 0.3779527559055118
        },
        {
          "duration": 0.1527777166666766,
          "durationTicks": 88,
          "midi": 80,
          "name": "G#5",
          "ticks": 56280,
          "time": 97.70829425,
          "velocity": 0.3779527559055118
        },
        {
          "duration": 0.1527777166666624,
          "durationTicks": 88,
          "midi": 80,
          "name": "G#5",
          "ticks": 56400,
          "time": 97.9166275,
          "velocity": 0.3779527559055118
        },
        {
          "duration": 0.20486102916666482,
          "durationTicks": 118,
          "midi": 80,
          "name": "G#5",
          "ticks": 56520,
          "time": 98.12496075,
          "velocity": 0.3779527559055118
        },
        {
          "duration": 0.1527777166666624,
          "durationTicks": 88,
          "midi": 77,
          "name": "F5",
          "ticks": 56760,
          "time": 98.54162725,
          "velocity": 0.3779527559055118
        },
        {
          "duration": 0.1527777166666624,
          "durationTicks": 88,
          "midi": 77,
          "name": "F5",
          "ticks": 56880,
          "time": 98.7499605,
          "velocity": 0.3779527559055118
        },
        {
          "duration": 0.20486102916667903,
          "durationTicks": 118,
          "midi": 77,
          "name": "F5",
          "ticks": 57000,
          "time": 98.95829375,
          "velocity": 0.3779527559055118
        },
        {
          "duration": 0.1527777166666624,
          "durationTicks": 88,
          "midi": 71,
          "name": "B4",
          "ticks": 57240,
          "time": 99.37496025,
          "velocity": 0.3779527559055118
        },
        {
          "duration": 0.1527777166666766,
          "durationTicks": 88,
          "midi": 71,
          "name": "B4",
          "ticks": 57360,
          "time": 99.5832935,
          "velocity": 0.3779527559055118
        },
        {
          "duration": 0.20486102916667903,
          "durationTicks": 118,
          "midi": 71,
          "name": "B4",
          "ticks": 57480,
          "time": 99.79162674999999,
          "velocity": 0.3779527559055118
        },
        {
          "duration": 0.1527777166666766,
          "durationTicks": 88,
          "midi": 72,
          "name": "C5",
          "ticks": 57720,
          "time": 100.20829325,
          "velocity": 0.3779527559055118
        },
        {
          "duration": 0.1527777166666766,
          "durationTicks": 88,
          "midi": 72,
          "name": "C5",
          "ticks": 57840,
          "time": 100.41662649999999,
          "velocity": 0.3779527559055118
        },
        {
          "duration": 0.20486102916666482,
          "durationTicks": 118,
          "midi": 72,
          "name": "C5",
          "ticks": 57960,
          "time": 100.62495975,
          "velocity": 0.3779527559055118
        },
        {
          "duration": 0.1527777166666766,
          "durationTicks": 88,
          "midi": 69,
          "name": "A4",
          "ticks": 58200,
          "time": 101.04162625,
          "velocity": 0.3779527559055118
        },
        {
          "duration": 0.1527777166666624,
          "durationTicks": 88,
          "midi": 69,
          "name": "A4",
          "ticks": 58320,
          "time": 101.2499595,
          "velocity": 0.3779527559055118
        },
        {
          "duration": 0.20486102916666482,
          "durationTicks": 118,
          "midi": 69,
          "name": "A4",
          "ticks": 58440,
          "time": 101.45829275,
          "velocity": 0.3779527559055118
        },
        {
          "duration": 0.1527777166666624,
          "durationTicks": 88,
          "midi": 66,
          "name": "F#4",
          "ticks": 58680,
          "time": 101.87495925,
          "velocity": 0.3779527559055118
        },
        {
          "duration": 0.1527777166666766,
          "durationTicks": 88,
          "midi": 66,
          "name": "F#4",
          "ticks": 58800,
          "time": 102.0832925,
          "velocity": 0.3779527559055118
        },
        {
          "duration": 0.20486102916667903,
          "durationTicks": 118,
          "midi": 66,
          "name": "F#4",
          "ticks": 58920,
          "time": 102.29162575,
          "velocity": 0.3779527559055118
        },
        {
          "duration": 0.1527777166666624,
          "durationTicks": 88,
          "midi": 60,
          "name": "C4",
          "ticks": 59160,
          "time": 102.70829225,
          "velocity": 0.3779527559055118
        },
        {
          "duration": 0.1527777166666766,
          "durationTicks": 88,
          "midi": 60,
          "name": "C4",
          "ticks": 59280,
          "time": 102.9166255,
          "velocity": 0.3779527559055118
        },
        {
          "duration": 0.20486102916666482,
          "durationTicks": 118,
          "midi": 60,
          "name": "C4",
          "ticks": 59400,
          "time": 103.12495875,
          "velocity": 0.3779527559055118
        },
        {
          "duration": 0.1527777166666766,
          "durationTicks": 88,
          "midi": 58,
          "name": "A#3",
          "ticks": 59640,
          "time": 103.54162525,
          "velocity": 0.3779527559055118
        },
        {
          "duration": 0.1527777166666624,
          "durationTicks": 88,
          "midi": 58,
          "name": "A#3",
          "ticks": 59760,
          "time": 103.7499585,
          "velocity": 0.3779527559055118
        },
        {
          "duration": 0.20486102916666482,
          "durationTicks": 118,
          "midi": 58,
          "name": "A#3",
          "ticks": 59880,
          "time": 103.95829175,
          "velocity": 0.3779527559055118
        },
        {
          "duration": 0.1527777166666766,
          "durationTicks": 88,
          "midi": 58,
          "name": "A#3",
          "ticks": 60120,
          "time": 104.37495824999999,
          "velocity": 0.3779527559055118
        },
        {
          "duration": 0.1527777166666624,
          "durationTicks": 88,
          "midi": 58,
          "name": "A#3",
          "ticks": 60240,
          "time": 104.5832915,
          "velocity": 0.3779527559055118
        },
        {
          "duration": 0.20486102916666482,
          "durationTicks": 118,
          "midi": 58,
          "name": "A#3",
          "ticks": 60360,
          "time": 104.79162475,
          "velocity": 0.3779527559055118
        },
        {
          "duration": 0.1527777166666624,
          "durationTicks": 88,
          "midi": 60,
          "name": "C4",
          "ticks": 60600,
          "time": 105.20829125,
          "velocity": 0.3779527559055118
        },
        {
          "duration": 0.1527777166666766,
          "durationTicks": 88,
          "midi": 60,
          "name": "C4",
          "ticks": 60720,
          "time": 105.4166245,
          "velocity": 0.3779527559055118
        },
        {
          "duration": 0.20486102916667903,
          "durationTicks": 118,
          "midi": 60,
          "name": "C4",
          "ticks": 60840,
          "time": 105.62495775,
          "velocity": 0.3779527559055118
        },
        {
          "duration": 0.1527777166666766,
          "durationTicks": 88,
          "midi": 66,
          "name": "F#4",
          "ticks": 61080,
          "time": 106.04162425,
          "velocity": 0.3779527559055118
        },
        {
          "duration": 0.1527777166666766,
          "durationTicks": 88,
          "midi": 66,
          "name": "F#4",
          "ticks": 61200,
          "time": 106.2499575,
          "velocity": 0.3779527559055118
        },
        {
          "duration": 0.20486102916666482,
          "durationTicks": 118,
          "midi": 66,
          "name": "F#4",
          "ticks": 61320,
          "time": 106.45829075,
          "velocity": 0.3779527559055118
        },
        {
          "duration": 0.1527777166666766,
          "durationTicks": 88,
          "midi": 67,
          "name": "G4",
          "ticks": 61560,
          "time": 106.87495725,
          "velocity": 0.3779527559055118
        },
        {
          "duration": 0.1527777166666624,
          "durationTicks": 88,
          "midi": 67,
          "name": "G4",
          "ticks": 61680,
          "time": 107.0832905,
          "velocity": 0.3779527559055118
        },
        {
          "duration": 0.20486102916666482,
          "durationTicks": 118,
          "midi": 67,
          "name": "G4",
          "ticks": 61800,
          "time": 107.29162375,
          "velocity": 0.3779527559055118
        },
        {
          "duration": 0.1527777166666624,
          "durationTicks": 88,
          "midi": 70,
          "name": "A#4",
          "ticks": 62040,
          "time": 107.70829025,
          "velocity": 0.3779527559055118
        },
        {
          "duration": 0.1527777166666624,
          "durationTicks": 88,
          "midi": 70,
          "name": "A#4",
          "ticks": 62160,
          "time": 107.9166235,
          "velocity": 0.3779527559055118
        },
        {
          "duration": 0.20486102916667903,
          "durationTicks": 118,
          "midi": 70,
          "name": "A#4",
          "ticks": 62280,
          "time": 108.12495675,
          "velocity": 0.3779527559055118
        },
        {
          "duration": 0.1527777166666624,
          "durationTicks": 88,
          "midi": 74,
          "name": "D5",
          "ticks": 62520,
          "time": 108.54162325,
          "velocity": 0.3779527559055118
        },
        {
          "duration": 0.1527777166666766,
          "durationTicks": 88,
          "midi": 74,
          "name": "D5",
          "ticks": 62640,
          "time": 108.7499565,
          "velocity": 0.3779527559055118
        },
        {
          "duration": 0.20486102916666482,
          "durationTicks": 118,
          "midi": 74,
          "name": "D5",
          "ticks": 62760,
          "time": 108.95828975,
          "velocity": 0.3779527559055118
        },
        {
          "duration": 0.1527777166666766,
          "durationTicks": 88,
          "midi": 79,
          "name": "G5",
          "ticks": 63000,
          "time": 109.37495625,
          "velocity": 0.3779527559055118
        },
        {
          "duration": 0.1527777166666766,
          "durationTicks": 88,
          "midi": 79,
          "name": "G5",
          "ticks": 63120,
          "time": 109.58328949999999,
          "velocity": 0.3779527559055118
        },
        {
          "duration": 0.20486102916666482,
          "durationTicks": 118,
          "midi": 79,
          "name": "G5",
          "ticks": 63240,
          "time": 109.79162275,
          "velocity": 0.3779527559055118
        },
        {
          "duration": 0.1527777166666766,
          "durationTicks": 88,
          "midi": 82,
          "name": "A#5",
          "ticks": 63480,
          "time": 110.20828924999999,
          "velocity": 0.3779527559055118
        },
        {
          "duration": 0.1527777166666624,
          "durationTicks": 88,
          "midi": 82,
          "name": "A#5",
          "ticks": 63600,
          "time": 110.4166225,
          "velocity": 0.3779527559055118
        },
        {
          "duration": 0.20486102916666482,
          "durationTicks": 118,
          "midi": 82,
          "name": "A#5",
          "ticks": 63720,
          "time": 110.62495575,
          "velocity": 0.3779527559055118
        },
        {
          "duration": 0.1527777166666624,
          "durationTicks": 88,
          "midi": 79,
          "name": "G5",
          "ticks": 63960,
          "time": 111.04162225,
          "velocity": 0.3779527559055118
        },
        {
          "duration": 0.1527777166666766,
          "durationTicks": 88,
          "midi": 79,
          "name": "G5",
          "ticks": 64080,
          "time": 111.2499555,
          "velocity": 0.3779527559055118
        },
        {
          "duration": 0.20486102916667903,
          "durationTicks": 118,
          "midi": 79,
          "name": "G5",
          "ticks": 64200,
          "time": 111.45828875,
          "velocity": 0.3779527559055118
        },
        {
          "duration": 0.1527777166666624,
          "durationTicks": 88,
          "midi": 76,
          "name": "E5",
          "ticks": 64440,
          "time": 111.87495525,
          "velocity": 0.3779527559055118
        },
        {
          "duration": 0.1527777166666766,
          "durationTicks": 88,
          "midi": 76,
          "name": "E5",
          "ticks": 64560,
          "time": 112.0832885,
          "velocity": 0.3779527559055118
        },
        {
          "duration": 0.20486102916666482,
          "durationTicks": 118,
          "midi": 76,
          "name": "E5",
          "ticks": 64680,
          "time": 112.29162175,
          "velocity": 0.3779527559055118
        },
        {
          "duration": 0.1527777166666766,
          "durationTicks": 88,
          "midi": 70,
          "name": "A#4",
          "ticks": 64920,
          "time": 112.70828825,
          "velocity": 0.3779527559055118
        },
        {
          "duration": 0.1527777166666624,
          "durationTicks": 88,
          "midi": 70,
          "name": "A#4",
          "ticks": 65040,
          "time": 112.9166215,
          "velocity": 0.3779527559055118
        },
        {
          "duration": 0.20486102916666482,
          "durationTicks": 118,
          "midi": 70,
          "name": "A#4",
          "ticks": 65160,
          "time": 113.12495475,
          "velocity": 0.3779527559055118
        },
        {
          "duration": 0.1527777166666624,
          "durationTicks": 88,
          "midi": 71,
          "name": "B4",
          "ticks": 65400,
          "time": 113.54162125,
          "velocity": 0.3779527559055118
        },
        {
          "duration": 0.1527777166666624,
          "durationTicks": 88,
          "midi": 71,
          "name": "B4",
          "ticks": 65520,
          "time": 113.7499545,
          "velocity": 0.3779527559055118
        },
        {
          "duration": 0.20486102916666482,
          "durationTicks": 118,
          "midi": 71,
          "name": "B4",
          "ticks": 65640,
          "time": 113.95828775,
          "velocity": 0.3779527559055118
        },
        {
          "duration": 0.1527777166666624,
          "durationTicks": 88,
          "midi": 65,
          "name": "F4",
          "ticks": 65880,
          "time": 114.37495425,
          "velocity": 0.3779527559055118
        },
        {
          "duration": 0.1527777166666766,
          "durationTicks": 88,
          "midi": 65,
          "name": "F4",
          "ticks": 66000,
          "time": 114.5832875,
          "velocity": 0.3779527559055118
        },
        {
          "duration": 0.20486102916667903,
          "durationTicks": 118,
          "midi": 65,
          "name": "F4",
          "ticks": 66120,
          "time": 114.79162074999999,
          "velocity": 0.3779527559055118
        },
        {
          "duration": 0.1527777166666766,
          "durationTicks": 88,
          "midi": 66,
          "name": "F#4",
          "ticks": 66360,
          "time": 115.20828725,
          "velocity": 0.3779527559055118
        },
        {
          "duration": 0.1527777166666766,
          "durationTicks": 88,
          "midi": 66,
          "name": "F#4",
          "ticks": 66480,
          "time": 115.4166205,
          "velocity": 0.3779527559055118
        },
        {
          "duration": 0.20486102916666482,
          "durationTicks": 118,
          "midi": 66,
          "name": "F#4",
          "ticks": 66600,
          "time": 115.62495375,
          "velocity": 0.3779527559055118
        },
        {
          "duration": 0.1527777166666766,
          "durationTicks": 88,
          "midi": 78,
          "name": "F#5",
          "ticks": 66840,
          "time": 116.04162025,
          "velocity": 0.3779527559055118
        },
        {
          "duration": 0.1527777166666624,
          "durationTicks": 88,
          "midi": 78,
          "name": "F#5",
          "ticks": 66960,
          "time": 116.2499535,
          "velocity": 0.3779527559055118
        },
        {
          "duration": 0.20486102916666482,
          "durationTicks": 118,
          "midi": 78,
          "name": "F#5",
          "ticks": 67080,
          "time": 116.45828675,
          "velocity": 0.3779527559055118
        },
        {
          "duration": 0.1527777166666624,
          "durationTicks": 88,
          "midi": 81,
          "name": "A5",
          "ticks": 67320,
          "time": 116.87495325,
          "velocity": 0.3779527559055118
        },
        {
          "duration": 0.1527777166666624,
          "durationTicks": 88,
          "midi": 81,
          "name": "A5",
          "ticks": 67440,
          "time": 117.0832865,
          "velocity": 0.3779527559055118
        },
        {
          "duration": 0.20486102916667903,
          "durationTicks": 118,
          "midi": 81,
          "name": "A5",
          "ticks": 67560,
          "time": 117.29161975,
          "velocity": 0.3779527559055118
        },
        {
          "duration": 0.1527777166666624,
          "durationTicks": 88,
          "midi": 78,
          "name": "F#5",
          "ticks": 67800,
          "time": 117.70828625,
          "velocity": 0.3779527559055118
        },
        {
          "duration": 0.1527777166666766,
          "durationTicks": 88,
          "midi": 78,
          "name": "F#5",
          "ticks": 67920,
          "time": 117.9166195,
          "velocity": 0.3779527559055118
        },
        {
          "duration": 0.20486102916666482,
          "durationTicks": 118,
          "midi": 78,
          "name": "F#5",
          "ticks": 68040,
          "time": 118.12495275,
          "velocity": 0.3779527559055118
        },
        {
          "duration": 0.1527777166666766,
          "durationTicks": 88,
          "midi": 75,
          "name": "D#5",
          "ticks": 68280,
          "time": 118.54161925,
          "velocity": 0.3779527559055118
        },
        {
          "duration": 0.1527777166666766,
          "durationTicks": 88,
          "midi": 75,
          "name": "D#5",
          "ticks": 68400,
          "time": 118.74995249999999,
          "velocity": 0.3779527559055118
        },
        {
          "duration": 0.20486102916666482,
          "durationTicks": 118,
          "midi": 75,
          "name": "D#5",
          "ticks": 68520,
          "time": 118.95828575,
          "velocity": 0.3779527559055118
        },
        {
          "duration": 0.1527777166666766,
          "durationTicks": 88,
          "midi": 69,
          "name": "A4",
          "ticks": 68760,
          "time": 119.37495224999999,
          "velocity": 0.3779527559055118
        },
        {
          "duration": 0.1527777166666624,
          "durationTicks": 88,
          "midi": 69,
          "name": "A4",
          "ticks": 68880,
          "time": 119.5832855,
          "velocity": 0.3779527559055118
        },
        {
          "duration": 0.20486102916666482,
          "durationTicks": 118,
          "midi": 69,
          "name": "A4",
          "ticks": 69000,
          "time": 119.79161875,
          "velocity": 0.3779527559055118
        },
        {
          "duration": 0.1527777166666624,
          "durationTicks": 88,
          "midi": 70,
          "name": "A#4",
          "ticks": 69240,
          "time": 120.20828525,
          "velocity": 0.3779527559055118
        },
        {
          "duration": 0.1527777166666766,
          "durationTicks": 88,
          "midi": 70,
          "name": "A#4",
          "ticks": 69360,
          "time": 120.4166185,
          "velocity": 0.3779527559055118
        },
        {
          "duration": 0.20486102916667903,
          "durationTicks": 118,
          "midi": 70,
          "name": "A#4",
          "ticks": 69480,
          "time": 120.62495175,
          "velocity": 0.3779527559055118
        },
        {
          "duration": 0.1527777166666624,
          "durationTicks": 88,
          "midi": 64,
          "name": "E4",
          "ticks": 69720,
          "time": 121.04161825,
          "velocity": 0.3779527559055118
        },
        {
          "duration": 0.1527777166666766,
          "durationTicks": 88,
          "midi": 64,
          "name": "E4",
          "ticks": 69840,
          "time": 121.2499515,
          "velocity": 0.3779527559055118
        },
        {
          "duration": 0.20486102916666482,
          "durationTicks": 118,
          "midi": 64,
          "name": "E4",
          "ticks": 69960,
          "time": 121.45828475,
          "velocity": 0.3779527559055118
        },
        {
          "duration": 0.1527777166666766,
          "durationTicks": 88,
          "midi": 65,
          "name": "F4",
          "ticks": 70200,
          "time": 121.87495125,
          "velocity": 0.3779527559055118
        },
        {
          "duration": 0.1527777166666624,
          "durationTicks": 88,
          "midi": 65,
          "name": "F4",
          "ticks": 70320,
          "time": 122.0832845,
          "velocity": 0.3779527559055118
        },
        {
          "duration": 0.20486102916666482,
          "durationTicks": 118,
          "midi": 65,
          "name": "F4",
          "ticks": 70440,
          "time": 122.29161775,
          "velocity": 0.3779527559055118
        },
        {
          "duration": 0.1527777166666624,
          "durationTicks": 88,
          "midi": 68,
          "name": "G#4",
          "ticks": 70680,
          "time": 122.70828425,
          "velocity": 0.3779527559055118
        },
        {
          "duration": 0.1527777166666624,
          "durationTicks": 88,
          "midi": 68,
          "name": "G#4",
          "ticks": 70800,
          "time": 122.9166175,
          "velocity": 0.3779527559055118
        },
        {
          "duration": 0.20486102916667903,
          "durationTicks": 118,
          "midi": 68,
          "name": "G#4",
          "ticks": 70920,
          "time": 123.12495075,
          "velocity": 0.3779527559055118
        },
        {
          "duration": 0.1527777166666624,
          "durationTicks": 88,
          "midi": 65,
          "name": "F4",
          "ticks": 71160,
          "time": 123.54161725,
          "velocity": 0.3779527559055118
        },
        {
          "duration": 0.1527777166666766,
          "durationTicks": 88,
          "midi": 65,
          "name": "F4",
          "ticks": 71280,
          "time": 123.7499505,
          "velocity": 0.3779527559055118
        },
        {
          "duration": 0.20486102916667903,
          "durationTicks": 118,
          "midi": 65,
          "name": "F4",
          "ticks": 71400,
          "time": 123.95828374999999,
          "velocity": 0.3779527559055118
        },
        {
          "duration": 0.1527777166666766,
          "durationTicks": 88,
          "midi": 67,
          "name": "G4",
          "ticks": 71640,
          "time": 124.37495025,
          "velocity": 0.3779527559055118
        },
        {
          "duration": 0.1527777166666766,
          "durationTicks": 88,
          "midi": 67,
          "name": "G4",
          "ticks": 71760,
          "time": 124.5832835,
          "velocity": 0.3779527559055118
        },
        {
          "duration": 0.20486102916666482,
          "durationTicks": 118,
          "midi": 67,
          "name": "G4",
          "ticks": 71880,
          "time": 124.79161675,
          "velocity": 0.3779527559055118
        },
        {
          "duration": 0.1527777166666766,
          "durationTicks": 88,
          "midi": 64,
          "name": "E4",
          "ticks": 72120,
          "time": 125.20828325,
          "velocity": 0.3779527559055118
        },
        {
          "duration": 0.1527777166666624,
          "durationTicks": 88,
          "midi": 64,
          "name": "E4",
          "ticks": 72240,
          "time": 125.4166165,
          "velocity": 0.3779527559055118
        },
        {
          "duration": 0.20486102916666482,
          "durationTicks": 118,
          "midi": 64,
          "name": "E4",
          "ticks": 72360,
          "time": 125.62494975,
          "velocity": 0.3779527559055118
        },
        {
          "duration": 0.1527777166666624,
          "durationTicks": 88,
          "midi": 67,
          "name": "G4",
          "ticks": 72600,
          "time": 126.04161625,
          "velocity": 0.3779527559055118
        },
        {
          "duration": 0.1527777166666624,
          "durationTicks": 88,
          "midi": 67,
          "name": "G4",
          "ticks": 72720,
          "time": 126.2499495,
          "velocity": 0.3779527559055118
        },
        {
          "duration": 0.20486102916667903,
          "durationTicks": 118,
          "midi": 67,
          "name": "G4",
          "ticks": 72840,
          "time": 126.45828275,
          "velocity": 0.3779527559055118
        },
        {
          "duration": 0.1527777166666624,
          "durationTicks": 88,
          "midi": 65,
          "name": "F4",
          "ticks": 73080,
          "time": 126.87494925,
          "velocity": 0.3779527559055118
        },
        {
          "duration": 0.1527777166666766,
          "durationTicks": 88,
          "midi": 65,
          "name": "F4",
          "ticks": 73200,
          "time": 127.0832825,
          "velocity": 0.3779527559055118
        },
        {
          "duration": 0.20486102916666482,
          "durationTicks": 118,
          "midi": 65,
          "name": "F4",
          "ticks": 73320,
          "time": 127.29161575,
          "velocity": 0.3779527559055118
        },
        {
          "duration": 0.1527777166666766,
          "durationTicks": 88,
          "midi": 60,
          "name": "C4",
          "ticks": 73560,
          "time": 127.70828225,
          "velocity": 0.3779527559055118
        },
        {
          "duration": 0.1527777166666766,
          "durationTicks": 88,
          "midi": 60,
          "name": "C4",
          "ticks": 73680,
          "time": 127.91661549999999,
          "velocity": 0.3779527559055118
        },
        {
          "duration": 0.20486102916669324,
          "durationTicks": 118,
          "midi": 60,
          "name": "C4",
          "ticks": 73800,
          "time": 128.12494875,
          "velocity": 0.3779527559055118
        },
        {
          "duration": 0.1527777166666624,
          "durationTicks": 88,
          "midi": 65,
          "name": "F4",
          "ticks": 74040,
          "time": 128.54161525,
          "velocity": 0.3779527559055118
        },
        {
          "duration": 0.15277771666669082,
          "durationTicks": 88,
          "midi": 65,
          "name": "F4",
          "ticks": 74160,
          "time": 128.7499485,
          "velocity": 0.3779527559055118
        },
        {
          "duration": 0.20486102916666482,
          "durationTicks": 118,
          "midi": 65,
          "name": "F4",
          "ticks": 74280,
          "time": 128.95828175,
          "velocity": 0.3779527559055118
        },
        {
          "duration": 0.15277771666669082,
          "durationTicks": 88,
          "midi": 60,
          "name": "C4",
          "ticks": 74520,
          "time": 129.37494825,
          "velocity": 0.3779527559055118
        },
        {
          "duration": 0.1527777166666624,
          "durationTicks": 88,
          "midi": 60,
          "name": "C4",
          "ticks": 74640,
          "time": 129.5832815,
          "velocity": 0.3779527559055118
        },
        {
          "duration": 0.1527777166666624,
          "durationTicks": 88,
          "midi": 60,
          "name": "C4",
          "ticks": 74760,
          "time": 129.79161475,
          "velocity": 0.3779527559055118
        },
        {
          "duration": 0.8298607791666655,
          "durationTicks": 478,
          "midi": 65,
          "name": "F4",
          "ticks": 74880,
          "time": 129.999948,
          "velocity": 0.3779527559055118
        },
        {
          "duration": 1.327777445833334,
          "durationTicks": 478,
          "midi": 61,
          "name": "C#4",
          "ticks": 75840,
          "time": 133.233281,
          "velocity": 0.3779527559055118
        }
      ]
    },
    {
      "channel": 0,
      "controlChanges": {},
      "pitchBends": [],
      "instrument": {
        "family": "piano",
        "number": 0,
        "name": "acoustic grand piano"
      },
      "name": "Violin II",
      "notes": [],
      "endOfTrackTicks": 76800
    },
    {
      "channel": 5,
      "controlChanges": {
        "7": [
          {
            "number": 7,
            "ticks": 0,
            "time": 0,
            "value": 0.7559055118110236
          }
        ],
        "10": [
          {
            "number": 10,
            "ticks": 0,
            "time": 0,
            "value": 0.1889763779527559
          }
        ],
        "11": [
          {
            "number": 11,
            "ticks": 0,
            "time": 0,
            "value": 1
          }
        ]
      },
      "pitchBends": [],
      "instrument": {
        "family": "ensemble",
        "number": 48,
        "name": "string ensemble 1"
      },
      "name": "",
      "notes": [
        {
          "duration": 0.10069440416666667,
          "durationTicks": 58,
          "midi": 57,
          "name": "A3",
          "ticks": 0,
          "time": 0,
          "velocity": 0.5669291338582677
        },
        {
          "duration": 0.10069440416666665,
          "durationTicks": 58,
          "midi": 59,
          "name": "B3",
          "ticks": 60,
          "time": 0.104166625,
          "velocity": 0.5669291338582677
        },
        {
          "duration": 0.1527777166666667,
          "durationTicks": 88,
          "midi": 60,
          "name": "C4",
          "ticks": 120,
          "time": 0.20833325,
          "velocity": 0.5669291338582677
        },
        {
          "duration": 0.1006944041666667,
          "durationTicks": 58,
          "midi": 60,
          "name": "C4",
          "ticks": 240,
          "time": 0.4166665,
          "velocity": 0.5669291338582677
        },
        {
          "duration": 0.10069440416666675,
          "durationTicks": 58,
          "midi": 60,
          "name": "C4",
          "ticks": 360,
          "time": 0.62499975,
          "velocity": 0.5669291338582677
        },
        {
          "duration": 0.10069440416666664,
          "durationTicks": 58,
          "midi": 60,
          "name": "C4",
          "ticks": 480,
          "time": 0.833333,
          "velocity": 0.5669291338582677
        },
        {
          "duration": 0.10069440416666675,
          "durationTicks": 58,
          "midi": 59,
          "name": "B3",
          "ticks": 540,
          "time": 0.937499625,
          "velocity": 0.5669291338582677
        },
        {
          "duration": 0.15277771666666662,
          "durationTicks": 88,
          "midi": 57,
          "name": "A3",
          "ticks": 600,
          "time": 1.04166625,
          "velocity": 0.5669291338582677
        },
        {
          "duration": 0.10069440416666664,
          "durationTicks": 58,
          "midi": 57,
          "name": "A3",
          "ticks": 720,
          "time": 1.2499995,
          "velocity": 0.5669291338582677
        },
        {
          "duration": 0.10069440416666664,
          "durationTicks": 58,
          "midi": 57,
          "name": "A3",
          "ticks": 840,
          "time": 1.45833275,
          "velocity": 0.5669291338582677
        },
        {
          "duration": 0.10069440416666642,
          "durationTicks": 58,
          "midi": 57,
          "name": "A3",
          "ticks": 960,
          "time": 1.666666,
          "velocity": 0.5669291338582677
        },
        {
          "duration": 0.10069440416666664,
          "durationTicks": 58,
          "midi": 59,
          "name": "B3",
          "ticks": 1020,
          "time": 1.770832625,
          "velocity": 0.5669291338582677
        },
        {
          "duration": 0.15277771666666662,
          "durationTicks": 88,
          "midi": 60,
          "name": "C4",
          "ticks": 1080,
          "time": 1.87499925,
          "velocity": 0.5669291338582677
        },
        {
          "duration": 0.10069440416666664,
          "durationTicks": 58,
          "midi": 60,
          "name": "C4",
          "ticks": 1200,
          "time": 2.0833325,
          "velocity": 0.5669291338582677
        },
        {
          "duration": 0.10069440416666664,
          "durationTicks": 58,
          "midi": 60,
          "name": "C4",
          "ticks": 1320,
          "time": 2.29166575,
          "velocity": 0.5669291338582677
        },
        {
          "duration": 0.10069440416666664,
          "durationTicks": 58,
          "midi": 60,
          "name": "C4",
          "ticks": 1440,
          "time": 2.499999,
          "velocity": 0.5669291338582677
        },
        {
          "duration": 0.10069440416666664,
          "durationTicks": 58,
          "midi": 59,
          "name": "B3",
          "ticks": 1500,
          "time": 2.604165625,
          "velocity": 0.5669291338582677
        },
        {
          "duration": 0.15277771666666684,
          "durationTicks": 88,
          "midi": 57,
          "name": "A3",
          "ticks": 1560,
          "time": 2.7083322499999998,
          "velocity": 0.5669291338582677
        },
        {
          "duration": 0.1006944041666662,
          "durationTicks": 58,
          "midi": 57,
          "name": "A3",
          "ticks": 1680,
          "time": 2.9166655,
          "velocity": 0.5669291338582677
        },
        {
          "duration": 0.1006944041666662,
          "durationTicks": 58,
          "midi": 57,
          "name": "A3",
          "ticks": 1800,
          "time": 3.12499875,
          "velocity": 0.5669291338582677
        },
        {
          "duration": 0.10069440416666708,
          "durationTicks": 58,
          "midi": 59,
          "name": "B3",
          "ticks": 1920,
          "time": 3.333332,
          "velocity": 0.5669291338582677
        },
        {
          "duration": 0.10069440416666708,
          "durationTicks": 58,
          "midi": 60,
          "name": "C4",
          "ticks": 1980,
          "time": 3.437498625,
          "velocity": 0.5669291338582677
        },
        {
          "duration": 0.15277771666666684,
          "durationTicks": 88,
          "midi": 62,
          "name": "D4",
          "ticks": 2040,
          "time": 3.54166525,
          "velocity": 0.5669291338582677
        },
        {
          "duration": 0.10069440416666708,
          "durationTicks": 58,
          "midi": 62,
          "name": "D4",
          "ticks": 2160,
          "time": 3.7499985,
          "velocity": 0.5669291338582677
        },
        {
          "duration": 0.10069440416666708,
          "durationTicks": 58,
          "midi": 62,
          "name": "D4",
          "ticks": 2280,
          "time": 3.95833175,
          "velocity": 0.5669291338582677
        },
        {
          "duration": 0.10069440416666708,
          "durationTicks": 58,
          "midi": 62,
          "name": "D4",
          "ticks": 2400,
          "time": 4.166665,
          "velocity": 0.5669291338582677
        },
        {
          "duration": 0.10069440416666708,
          "durationTicks": 58,
          "midi": 60,
          "name": "C4",
          "ticks": 2460,
          "time": 4.270831625,
          "velocity": 0.5669291338582677
        },
        {
          "duration": 0.15277771666666684,
          "durationTicks": 88,
          "midi": 59,
          "name": "B3",
          "ticks": 2520,
          "time": 4.37499825,
          "velocity": 0.5669291338582677
        },
        {
          "duration": 0.10069440416666708,
          "durationTicks": 58,
          "midi": 59,
          "name": "B3",
          "ticks": 2640,
          "time": 4.5833315,
          "velocity": 0.5669291338582677
        },
        {
          "duration": 0.10069440416666708,
          "durationTicks": 58,
          "midi": 59,
          "name": "B3",
          "ticks": 2760,
          "time": 4.79166475,
          "velocity": 0.5669291338582677
        },
        {
          "duration": 0.10069440416666708,
          "durationTicks": 58,
          "midi": 59,
          "name": "B3",
          "ticks": 2880,
          "time": 4.999998,
          "velocity": 0.5669291338582677
        },
        {
          "duration": 0.10069440416666708,
          "durationTicks": 58,
          "midi": 60,
          "name": "C4",
          "ticks": 2940,
          "time": 5.104164625,
          "velocity": 0.5669291338582677
        },
        {
          "duration": 0.15277771666666684,
          "durationTicks": 88,
          "midi": 62,
          "name": "D4",
          "ticks": 3000,
          "time": 5.20833125,
          "velocity": 0.5669291338582677
        },
        {
          "duration": 0.10069440416666708,
          "durationTicks": 58,
          "midi": 62,
          "name": "D4",
          "ticks": 3120,
          "time": 5.4166644999999995,
          "velocity": 0.5669291338582677
        },
        {
          "duration": 0.1006944041666662,
          "durationTicks": 58,
          "midi": 62,
          "name": "D4",
          "ticks": 3240,
          "time": 5.62499775,
          "velocity": 0.5669291338582677
        },
        {
          "duration": 0.1006944041666662,
          "durationTicks": 58,
          "midi": 62,
          "name": "D4",
          "ticks": 3360,
          "time": 5.833331,
          "velocity": 0.5669291338582677
        },
        {
          "duration": 0.10069440416666708,
          "durationTicks": 58,
          "midi": 60,
          "name": "C4",
          "ticks": 3420,
          "time": 5.937497625,
          "velocity": 0.5669291338582677
        },
        {
          "duration": 0.15277771666666684,
          "durationTicks": 88,
          "midi": 59,
          "name": "B3",
          "ticks": 3480,
          "time": 6.04166425,
          "velocity": 0.5669291338582677
        },
        {
          "duration": 0.10069440416666708,
          "durationTicks": 58,
          "midi": 59,
          "name": "B3",
          "ticks": 3600,
          "time": 6.2499975,
          "velocity": 0.5669291338582677
        },
        {
          "duration": 0.10069440416666708,
          "durationTicks": 58,
          "midi": 59,
          "name": "B3",
          "ticks": 3720,
          "time": 6.45833075,
          "velocity": 0.5669291338582677
        },
        {
          "duration": 0.10069440416666708,
          "durationTicks": 58,
          "midi": 60,
          "name": "C4",
          "ticks": 3840,
          "time": 6.666664,
          "velocity": 0.5669291338582677
        },
        {
          "duration": 0.1006944041666662,
          "durationTicks": 58,
          "midi": 62,
          "name": "D4",
          "ticks": 3900,
          "time": 6.770830625,
          "velocity": 0.5669291338582677
        },
        {
          "duration": 0.15277771666666684,
          "durationTicks": 88,
          "midi": 64,
          "name": "E4",
          "ticks": 3960,
          "time": 6.87499725,
          "velocity": 0.5669291338582677
        },
        {
          "duration": 0.10069440416666708,
          "durationTicks": 58,
          "midi": 64,
          "name": "E4",
          "ticks": 4080,
          "time": 7.0833305,
          "velocity": 0.5669291338582677
        },
        {
          "duration": 0.10069440416666708,
          "durationTicks": 58,
          "midi": 64,
          "name": "E4",
          "ticks": 4200,
          "time": 7.29166375,
          "velocity": 0.5669291338582677
        },
        {
          "duration": 0.10069440416666708,
          "durationTicks": 58,
          "midi": 64,
          "name": "E4",
          "ticks": 4320,
          "time": 7.499997,
          "velocity": 0.5669291338582677
        },
        {
          "duration": 0.10069440416666708,
          "durationTicks": 58,
          "midi": 62,
          "name": "D4",
          "ticks": 4380,
          "time": 7.604163625,
          "velocity": 0.5669291338582677
        },
        {
          "duration": 0.15277771666666684,
          "durationTicks": 88,
          "midi": 60,
          "name": "C4",
          "ticks": 4440,
          "time": 7.7083302499999995,
          "velocity": 0.5669291338582677
        },
        {
          "duration": 0.10069440416666708,
          "durationTicks": 58,
          "midi": 60,
          "name": "C4",
          "ticks": 4560,
          "time": 7.9166635,
          "velocity": 0.5669291338582677
        },
        {
          "duration": 0.10069440416666708,
          "durationTicks": 58,
          "midi": 60,
          "name": "C4",
          "ticks": 4680,
          "time": 8.12499675,
          "velocity": 0.5669291338582677
        },
        {
          "duration": 0.10069440416666708,
          "durationTicks": 58,
          "midi": 60,
          "name": "C4",
          "ticks": 4800,
          "time": 8.33333,
          "velocity": 0.5669291338582677
        },
        {
          "duration": 0.10069440416666708,
          "durationTicks": 58,
          "midi": 62,
          "name": "D4",
          "ticks": 4860,
          "time": 8.437496625,
          "velocity": 0.5669291338582677
        },
        {
          "duration": 0.15277771666666773,
          "durationTicks": 88,
          "midi": 64,
          "name": "E4",
          "ticks": 4920,
          "time": 8.54166325,
          "velocity": 0.5669291338582677
        },
        {
          "duration": 0.10069440416666708,
          "durationTicks": 58,
          "midi": 64,
          "name": "E4",
          "ticks": 5040,
          "time": 8.7499965,
          "velocity": 0.5669291338582677
        },
        {
          "duration": 0.10069440416666531,
          "durationTicks": 58,
          "midi": 64,
          "name": "E4",
          "ticks": 5160,
          "time": 8.95832975,
          "velocity": 0.5669291338582677
        },
        {
          "duration": 0.10069440416666708,
          "durationTicks": 58,
          "midi": 64,
          "name": "E4",
          "ticks": 5280,
          "time": 9.166663,
          "velocity": 0.5669291338582677
        },
        {
          "duration": 0.10069440416666708,
          "durationTicks": 58,
          "midi": 62,
          "name": "D4",
          "ticks": 5340,
          "time": 9.270829625,
          "velocity": 0.5669291338582677
        },
        {
          "duration": 0.15277771666666595,
          "durationTicks": 88,
          "midi": 60,
          "name": "C4",
          "ticks": 5400,
          "time": 9.37499625,
          "velocity": 0.5669291338582677
        },
        {
          "duration": 0.10069440416666708,
          "durationTicks": 58,
          "midi": 60,
          "name": "C4",
          "ticks": 5520,
          "time": 9.5833295,
          "velocity": 0.5669291338582677
        },
        {
          "duration": 0.10069440416666708,
          "durationTicks": 58,
          "midi": 60,
          "name": "C4",
          "ticks": 5640,
          "time": 9.79166275,
          "velocity": 0.5669291338582677
        },
        {
          "duration": 0.10069440416666708,
          "durationTicks": 58,
          "midi": 62,
          "name": "D4",
          "ticks": 5760,
          "time": 9.999996,
          "velocity": 0.5669291338582677
        },
        {
          "duration": 0.10069440416666531,
          "durationTicks": 58,
          "midi": 64,
          "name": "E4",
          "ticks": 5820,
          "time": 10.104162625,
          "velocity": 0.5669291338582677
        },
        {
          "duration": 0.15277771666666595,
          "durationTicks": 88,
          "midi": 65,
          "name": "F4",
          "ticks": 5880,
          "time": 10.20832925,
          "velocity": 0.5669291338582677
        },
        {
          "duration": 0.10069440416666708,
          "durationTicks": 58,
          "midi": 65,
          "name": "F4",
          "ticks": 6000,
          "time": 10.4166625,
          "velocity": 0.5669291338582677
        },
        {
          "duration": 0.10069440416666708,
          "durationTicks": 58,
          "midi": 65,
          "name": "F4",
          "ticks": 6120,
          "time": 10.62499575,
          "velocity": 0.5669291338582677
        },
        {
          "duration": 0.10069440416666708,
          "durationTicks": 58,
          "midi": 65,
          "name": "F4",
          "ticks": 6240,
          "time": 10.833328999999999,
          "velocity": 0.5669291338582677
        },
        {
          "duration": 0.10069440416666708,
          "durationTicks": 58,
          "midi": 64,
          "name": "E4",
          "ticks": 6300,
          "time": 10.937495625,
          "velocity": 0.5669291338582677
        },
        {
          "duration": 0.15277771666666595,
          "durationTicks": 88,
          "midi": 62,
          "name": "D4",
          "ticks": 6360,
          "time": 11.04166225,
          "velocity": 0.5669291338582677
        },
        {
          "duration": 0.10069440416666531,
          "durationTicks": 58,
          "midi": 62,
          "name": "D4",
          "ticks": 6480,
          "time": 11.2499955,
          "velocity": 0.5669291338582677
        },
        {
          "duration": 0.10069440416666708,
          "durationTicks": 58,
          "midi": 62,
          "name": "D4",
          "ticks": 6600,
          "time": 11.45832875,
          "velocity": 0.5669291338582677
        },
        {
          "duration": 0.10069440416666708,
          "durationTicks": 58,
          "midi": 62,
          "name": "D4",
          "ticks": 6720,
          "time": 11.666662,
          "velocity": 0.5669291338582677
        },
        {
          "duration": 0.10069440416666708,
          "durationTicks": 58,
          "midi": 64,
          "name": "E4",
          "ticks": 6780,
          "time": 11.770828625,
          "velocity": 0.5669291338582677
        },
        {
          "duration": 0.15277771666666773,
          "durationTicks": 88,
          "midi": 65,
          "name": "F4",
          "ticks": 6840,
          "time": 11.87499525,
          "velocity": 0.5669291338582677
        },
        {
          "duration": 0.10069440416666708,
          "durationTicks": 58,
          "midi": 65,
          "name": "F4",
          "ticks": 6960,
          "time": 12.0833285,
          "velocity": 0.5669291338582677
        },
        {
          "duration": 0.10069440416666708,
          "durationTicks": 58,
          "midi": 65,
          "name": "F4",
          "ticks": 7080,
          "time": 12.29166175,
          "velocity": 0.5669291338582677
        },
        {
          "duration": 0.10069440416666708,
          "durationTicks": 58,
          "midi": 65,
          "name": "F4",
          "ticks": 7200,
          "time": 12.499995,
          "velocity": 0.5669291338582677
        },
        {
          "duration": 0.10069440416666708,
          "durationTicks": 58,
          "midi": 64,
          "name": "E4",
          "ticks": 7260,
          "time": 12.604161625,
          "velocity": 0.5669291338582677
        },
        {
          "duration": 0.15277771666666773,
          "durationTicks": 88,
          "midi": 62,
          "name": "D4",
          "ticks": 7320,
          "time": 12.70832825,
          "velocity": 0.5669291338582677
        },
        {
          "duration": 0.10069440416666708,
          "durationTicks": 58,
          "midi": 62,
          "name": "D4",
          "ticks": 7440,
          "time": 12.9166615,
          "velocity": 0.5669291338582677
        },
        {
          "duration": 0.10069440416666708,
          "durationTicks": 58,
          "midi": 62,
          "name": "D4",
          "ticks": 7560,
          "time": 13.124994749999999,
          "velocity": 0.5669291338582677
        },
        {
          "duration": 0.10069440416666708,
          "durationTicks": 58,
          "midi": 64,
          "name": "E4",
          "ticks": 7680,
          "time": 13.333328,
          "velocity": 0.5669291338582677
        },
        {
          "duration": 0.10069440416666708,
          "durationTicks": 58,
          "midi": 68,
          "name": "G#4",
          "ticks": 7740,
          "time": 13.437494625,
          "velocity": 0.5669291338582677
        },
        {
          "duration": 0.15277771666666595,
          "durationTicks": 88,
          "midi": 71,
          "name": "B4",
          "ticks": 7800,
          "time": 13.54166125,
          "velocity": 0.5669291338582677
        },
        {
          "duration": 0.10069440416666708,
          "durationTicks": 58,
          "midi": 71,
          "name": "B4",
          "ticks": 7920,
          "time": 13.7499945,
          "velocity": 0.5669291338582677
        },
        {
          "duration": 0.10069440416666708,
          "durationTicks": 58,
          "midi": 71,
          "name": "B4",
          "ticks": 8040,
          "time": 13.95832775,
          "velocity": 0.5669291338582677
        },
        {
          "duration": 0.10069440416666708,
          "durationTicks": 58,
          "midi": 71,
          "name": "B4",
          "ticks": 8160,
          "time": 14.166661,
          "velocity": 0.5669291338582677
        },
        {
          "duration": 0.10069440416666708,
          "durationTicks": 58,
          "midi": 68,
          "name": "G#4",
          "ticks": 8220,
          "time": 14.270827624999999,
          "velocity": 0.5669291338582677
        },
        {
          "duration": 0.15277771666666595,
          "durationTicks": 88,
          "midi": 64,
          "name": "E4",
          "ticks": 8280,
          "time": 14.37499425,
          "velocity": 0.5669291338582677
        },
        {
          "duration": 0.10069440416666708,
          "durationTicks": 58,
          "midi": 64,
          "name": "E4",
          "ticks": 8400,
          "time": 14.5833275,
          "velocity": 0.5669291338582677
        },
        {
          "duration": 0.10069440416666708,
          "durationTicks": 58,
          "midi": 64,
          "name": "E4",
          "ticks": 8520,
          "time": 14.79166075,
          "velocity": 0.5669291338582677
        },
        {
          "duration": 0.10069440416666708,
          "durationTicks": 58,
          "midi": 64,
          "name": "E4",
          "ticks": 8640,
          "time": 14.999994,
          "velocity": 0.5669291338582677
        },
        {
          "duration": 0.10069440416666708,
          "durationTicks": 58,
          "midi": 69,
          "name": "A4",
          "ticks": 8700,
          "time": 15.104160625,
          "velocity": 0.5669291338582677
        },
        {
          "duration": 0.15277771666666595,
          "durationTicks": 88,
          "midi": 72,
          "name": "C5",
          "ticks": 8760,
          "time": 15.20832725,
          "velocity": 0.5669291338582677
        },
        {
          "duration": 0.10069440416666708,
          "durationTicks": 58,
          "midi": 72,
          "name": "C5",
          "ticks": 8880,
          "time": 15.416660499999999,
          "velocity": 0.5669291338582677
        },
        {
          "duration": 0.10069440416666708,
          "durationTicks": 58,
          "midi": 72,
          "name": "C5",
          "ticks": 9000,
          "time": 15.62499375,
          "velocity": 0.5669291338582677
        },
        {
          "duration": 0.10069440416666531,
          "durationTicks": 58,
          "midi": 72,
          "name": "C5",
          "ticks": 9120,
          "time": 15.833327,
          "velocity": 0.5669291338582677
        },
        {
          "duration": 0.10069440416666531,
          "durationTicks": 58,
          "midi": 69,
          "name": "A4",
          "ticks": 9180,
          "time": 15.937493625,
          "velocity": 0.5669291338582677
        },
        {
          "duration": 0.15277771666666595,
          "durationTicks": 88,
          "midi": 64,
          "name": "E4",
          "ticks": 9240,
          "time": 16.04166025,
          "velocity": 0.5669291338582677
        },
        {
          "duration": 0.10069440416666708,
          "durationTicks": 58,
          "midi": 64,
          "name": "E4",
          "ticks": 9360,
          "time": 16.2499935,
          "velocity": 0.5669291338582677
        },
        {
          "duration": 0.10069440416666708,
          "durationTicks": 58,
          "midi": 64,
          "name": "E4",
          "ticks": 9480,
          "time": 16.45832675,
          "velocity": 0.5669291338582677
        },
        {
          "duration": 0.361110966666665,
          "durationTicks": 208,
          "midi": 64,
          "name": "E4",
          "ticks": 9600,
          "time": 16.66666,
          "velocity": 0.5669291338582677
        },
        {
          "duration": 0.361110966666665,
          "durationTicks": 208,
          "midi": 71,
          "name": "B4",
          "ticks": 9600,
          "time": 16.66666,
          "velocity": 0.5669291338582677
        },
        {
          "duration": 0.361110966666665,
          "durationTicks": 208,
          "midi": 76,
          "name": "E5",
          "ticks": 9600,
          "time": 16.66666,
          "velocity": 0.5669291338582677
        },
        {
          "duration": 0.4131942791666674,
          "durationTicks": 238,
          "midi": 64,
          "name": "E4",
          "ticks": 9840,
          "time": 17.0833265,
          "velocity": 0.5669291338582677
        },
        {
          "duration": 0.41319427916666385,
          "durationTicks": 238,
          "midi": 64,
          "name": "E4",
          "ticks": 10320,
          "time": 17.9166595,
          "velocity": 0.3779527559055118
        },
        {
          "duration": 0.41319427916666385,
          "durationTicks": 238,
          "midi": 63,
          "name": "D#4",
          "ticks": 10800,
          "time": 18.7499925,
          "velocity": 0.3779527559055118
        },
        {
          "duration": 0.4131942791666674,
          "durationTicks": 238,
          "midi": 62,
          "name": "D4",
          "ticks": 11280,
          "time": 19.5833255,
          "velocity": 0.3779527559055118
        },
        {
          "duration": 0.4131942791666674,
          "durationTicks": 238,
          "midi": 60,
          "name": "C4",
          "ticks": 11520,
          "time": 19.999992,
          "velocity": 0.3779527559055118
        },
        {
          "duration": 0.20486102916666482,
          "durationTicks": 118,
          "midi": 64,
          "name": "E4",
          "ticks": 11760,
          "time": 20.4166585,
          "velocity": 0.3779527559055118
        },
        {
          "duration": 0.20486102916666837,
          "durationTicks": 118,
          "midi": 67,
          "name": "G4",
          "ticks": 11880,
          "time": 20.62499175,
          "velocity": 0.3779527559055118
        },
        {
          "duration": 0.4131942791666674,
          "durationTicks": 238,
          "midi": 72,
          "name": "C5",
          "ticks": 12000,
          "time": 20.833325,
          "velocity": 0.3779527559055118
        },
        {
          "duration": 0.4131942791666674,
          "durationTicks": 238,
          "midi": 71,
          "name": "B4",
          "ticks": 12240,
          "time": 21.2499915,
          "velocity": 0.3779527559055118
        },
        {
          "duration": 0.4131942791666674,
          "durationTicks": 238,
          "midi": 69,
          "name": "A4",
          "ticks": 12480,
          "time": 21.666657999999998,
          "velocity": 0.3779527559055118
        },
        {
          "duration": 0.4131942791666674,
          "durationTicks": 238,
          "midi": 67,
          "name": "G4",
          "ticks": 12720,
          "time": 22.0833245,
          "velocity": 0.3779527559055118
        },
        {
          "duration": 0.41319427916666385,
          "durationTicks": 238,
          "midi": 65,
          "name": "F4",
          "ticks": 12960,
          "time": 22.499991,
          "velocity": 0.3779527559055118
        },
        {
          "duration": 0.36111096666666853,
          "durationTicks": 208,
          "midi": 64,
          "name": "E4",
          "ticks": 13200,
          "time": 22.9166575,
          "velocity": 0.3779527559055118
        },
        {
          "duration": 0.41319427916666385,
          "durationTicks": 238,
          "midi": 62,
          "name": "D4",
          "ticks": 13440,
          "time": 23.333324,
          "velocity": 0.3779527559055118
        },
        {
          "duration": 0.20486102916666837,
          "durationTicks": 118,
          "midi": 64,
          "name": "E4",
          "ticks": 13680,
          "time": 23.7499905,
          "velocity": 0.3779527559055118
        },
        {
          "duration": 0.20486102916666837,
          "durationTicks": 118,
          "midi": 65,
          "name": "F4",
          "ticks": 13800,
          "time": 23.958323749999998,
          "velocity": 0.3779527559055118
        },
        {
          "duration": 0.4131942791666674,
          "durationTicks": 238,
          "midi": 67,
          "name": "G4",
          "ticks": 13920,
          "time": 24.166657,
          "velocity": 0.3779527559055118
        },
        {
          "duration": 0.36111096666666853,
          "durationTicks": 208,
          "midi": 55,
          "name": "G3",
          "ticks": 14160,
          "time": 24.5833235,
          "velocity": 0.3779527559055118
        },
        {
          "duration": 0.4131942791666674,
          "durationTicks": 238,
          "midi": 60,
          "name": "C4",
          "ticks": 14400,
          "time": 24.99999,
          "velocity": 0.3779527559055118
        },
        {
          "duration": 0.20486102916666837,
          "durationTicks": 118,
          "midi": 64,
          "name": "E4",
          "ticks": 14640,
          "time": 25.4166565,
          "velocity": 0.3779527559055118
        },
        {
          "duration": 0.15277771666666595,
          "durationTicks": 88,
          "midi": 67,
          "name": "G4",
          "ticks": 14760,
          "time": 25.62498975,
          "velocity": 0.3779527559055118
        },
        {
          "duration": 0.4131942791666674,
          "durationTicks": 238,
          "midi": 72,
          "name": "C5",
          "ticks": 14880,
          "time": 25.833323,
          "velocity": 0.3779527559055118
        },
        {
          "duration": 0.20486102916666837,
          "durationTicks": 118,
          "midi": 67,
          "name": "G4",
          "ticks": 15120,
          "time": 26.249989499999998,
          "velocity": 0.3779527559055118
        },
        {
          "duration": 0.15277771666666595,
          "durationTicks": 88,
          "midi": 64,
          "name": "E4",
          "ticks": 15240,
          "time": 26.45832275,
          "velocity": 0.3779527559055118
        },
        {
          "duration": 0.41319427916666385,
          "durationTicks": 238,
          "midi": 60,
          "name": "C4",
          "ticks": 15360,
          "time": 26.666656,
          "velocity": 0.3779527559055118
        },
        {
          "duration": 0.20486102916666127,
          "durationTicks": 118,
          "midi": 64,
          "name": "E4",
          "ticks": 15600,
          "time": 27.0833225,
          "velocity": 0.3779527559055118
        },
        {
          "duration": 0.20486102916666482,
          "durationTicks": 118,
          "midi": 67,
          "name": "G4",
          "ticks": 15720,
          "time": 27.29165575,
          "velocity": 0.3779527559055118
        },
        {
          "duration": 0.41319427916666385,
          "durationTicks": 238,
          "midi": 72,
          "name": "C5",
          "ticks": 15840,
          "time": 27.499989,
          "velocity": 0.3779527559055118
        },
        {
          "duration": 0.41319427916666385,
          "durationTicks": 238,
          "midi": 71,
          "name": "B4",
          "ticks": 16080,
          "time": 27.9166555,
          "velocity": 0.3779527559055118
        },
        {
          "duration": 0.41319427916666385,
          "durationTicks": 238,
          "midi": 69,
          "name": "A4",
          "ticks": 16320,
          "time": 28.333322,
          "velocity": 0.3779527559055118
        },
        {
          "duration": 0.41319427916666385,
          "durationTicks": 238,
          "midi": 67,
          "name": "G4",
          "ticks": 16560,
          "time": 28.7499885,
          "velocity": 0.3779527559055118
        },
        {
          "duration": 0.41319427916666385,
          "durationTicks": 238,
          "midi": 65,
          "name": "F4",
          "ticks": 16800,
          "time": 29.166655,
          "velocity": 0.3779527559055118
        },
        {
          "duration": 0.361110966666665,
          "durationTicks": 208,
          "midi": 64,
          "name": "E4",
          "ticks": 17040,
          "time": 29.5833215,
          "velocity": 0.3779527559055118
        },
        {
          "duration": 0.41319427916666385,
          "durationTicks": 238,
          "midi": 62,
          "name": "D4",
          "ticks": 17280,
          "time": 29.999988,
          "velocity": 0.3779527559055118
        },
        {
          "duration": 0.20486102916666482,
          "durationTicks": 118,
          "midi": 64,
          "name": "E4",
          "ticks": 17520,
          "time": 30.4166545,
          "velocity": 0.3779527559055118
        },
        {
          "duration": 0.20486102916666482,
          "durationTicks": 118,
          "midi": 65,
          "name": "F4",
          "ticks": 17640,
          "time": 30.62498775,
          "velocity": 0.3779527559055118
        },
        {
          "duration": 0.41319427916666385,
          "durationTicks": 238,
          "midi": 67,
          "name": "G4",
          "ticks": 17760,
          "time": 30.833320999999998,
          "velocity": 0.3779527559055118
        },
        {
          "duration": 0.361110966666665,
          "durationTicks": 208,
          "midi": 55,
          "name": "G3",
          "ticks": 18000,
          "time": 31.2499875,
          "velocity": 0.3779527559055118
        },
        {
          "duration": 0.10069440416666353,
          "durationTicks": 58,
          "midi": 60,
          "name": "C4",
          "ticks": 18240,
          "time": 31.666654,
          "velocity": 0.5669291338582677
        },
        {
          "duration": 0.10069440416666353,
          "durationTicks": 58,
          "midi": 62,
          "name": "D4",
          "ticks": 18300,
          "time": 31.770820625,
          "velocity": 0.5669291338582677
        },
        {
          "duration": 0.15277771666666595,
          "durationTicks": 88,
          "midi": 64,
          "name": "E4",
          "ticks": 18360,
          "time": 31.87498725,
          "velocity": 0.5669291338582677
        },
        {
          "duration": 0.10069440416666708,
          "durationTicks": 58,
          "midi": 64,
          "name": "E4",
          "ticks": 18480,
          "time": 32.0833205,
          "velocity": 0.5669291338582677
        },
        {
          "duration": 0.10069440416665998,
          "durationTicks": 58,
          "midi": 64,
          "name": "E4",
          "ticks": 18600,
          "time": 32.29165375,
          "velocity": 0.5669291338582677
        },
        {
          "duration": 0.10069440416666708,
          "durationTicks": 58,
          "midi": 63,
          "name": "D#4",
          "ticks": 18720,
          "time": 32.499987,
          "velocity": 0.5669291338582677
        },
        {
          "duration": 0.10069440416665998,
          "durationTicks": 58,
          "midi": 62,
          "name": "D4",
          "ticks": 18780,
          "time": 32.604153625,
          "velocity": 0.5669291338582677
        },
        {
          "duration": 0.1527777166666624,
          "durationTicks": 88,
          "midi": 60,
          "name": "C4",
          "ticks": 18840,
          "time": 32.70832025,
          "velocity": 0.5669291338582677
        },
        {
          "duration": 0.10069440416665998,
          "durationTicks": 58,
          "midi": 60,
          "name": "C4",
          "ticks": 18960,
          "time": 32.9166535,
          "velocity": 0.5669291338582677
        },
        {
          "duration": 0.10069440416666708,
          "durationTicks": 58,
          "midi": 60,
          "name": "C4",
          "ticks": 19080,
          "time": 33.12498675,
          "velocity": 0.5669291338582677
        },
        {
          "duration": 0.10069440416665998,
          "durationTicks": 58,
          "midi": 55,
          "name": "G3",
          "ticks": 19200,
          "time": 33.33332,
          "velocity": 0.5669291338582677
        },
        {
          "duration": 0.10069440416666708,
          "durationTicks": 58,
          "midi": 57,
          "name": "A3",
          "ticks": 19260,
          "time": 33.437486625,
          "velocity": 0.5669291338582677
        },
        {
          "duration": 0.1527777166666624,
          "durationTicks": 88,
          "midi": 59,
          "name": "B3",
          "ticks": 19320,
          "time": 33.54165325,
          "velocity": 0.5669291338582677
        },
        {
          "duration": 0.10069440416666708,
          "durationTicks": 58,
          "midi": 59,
          "name": "B3",
          "ticks": 19440,
          "time": 33.7499865,
          "velocity": 0.5669291338582677
        },
        {
          "duration": 0.10069440416665998,
          "durationTicks": 58,
          "midi": 59,
          "name": "B3",
          "ticks": 19560,
          "time": 33.95831975,
          "velocity": 0.5669291338582677
        },
        {
          "duration": 0.10069440416666708,
          "durationTicks": 58,
          "midi": 58,
          "name": "A#3",
          "ticks": 19680,
          "time": 34.166653,
          "velocity": 0.5669291338582677
        },
        {
          "duration": 0.10069440416665998,
          "durationTicks": 58,
          "midi": 57,
          "name": "A3",
          "ticks": 19740,
          "time": 34.270819625,
          "velocity": 0.5669291338582677
        },
        {
          "duration": 0.1527777166666624,
          "durationTicks": 88,
          "midi": 55,
          "name": "G3",
          "ticks": 19800,
          "time": 34.37498625,
          "velocity": 0.5669291338582677
        },
        {
          "duration": 0.10069440416665998,
          "durationTicks": 58,
          "midi": 55,
          "name": "G3",
          "ticks": 19920,
          "time": 34.5833195,
          "velocity": 0.5669291338582677
        },
        {
          "duration": 0.10069440416666708,
          "durationTicks": 58,
          "midi": 55,
          "name": "G3",
          "ticks": 20040,
          "time": 34.79165275,
          "velocity": 0.5669291338582677
        },
        {
          "duration": 0.10069440416666708,
          "durationTicks": 58,
          "midi": 62,
          "name": "D4",
          "ticks": 20160,
          "time": 34.999986,
          "velocity": 0.5669291338582677
        },
        {
          "duration": 0.10069440416666708,
          "durationTicks": 58,
          "midi": 64,
          "name": "E4",
          "ticks": 20220,
          "time": 35.104152625,
          "velocity": 0.5669291338582677
        },
        {
          "duration": 0.1527777166666624,
          "durationTicks": 88,
          "midi": 66,
          "name": "F#4",
          "ticks": 20280,
          "time": 35.20831925,
          "velocity": 0.5669291338582677
        },
        {
          "duration": 0.10069440416666708,
          "durationTicks": 58,
          "midi": 66,
          "name": "F#4",
          "ticks": 20400,
          "time": 35.4166525,
          "velocity": 0.5669291338582677
        },
        {
          "duration": 0.10069440416665998,
          "durationTicks": 58,
          "midi": 66,
          "name": "F#4",
          "ticks": 20520,
          "time": 35.62498575,
          "velocity": 0.5669291338582677
        },
        {
          "duration": 0.10069440416665998,
          "durationTicks": 58,
          "midi": 65,
          "name": "F4",
          "ticks": 20640,
          "time": 35.833319,
          "velocity": 0.5669291338582677
        },
        {
          "duration": 0.10069440416665998,
          "durationTicks": 58,
          "midi": 64,
          "name": "E4",
          "ticks": 20700,
          "time": 35.937485625,
          "velocity": 0.5669291338582677
        },
        {
          "duration": 0.1527777166666624,
          "durationTicks": 88,
          "midi": 62,
          "name": "D4",
          "ticks": 20760,
          "time": 36.04165225,
          "velocity": 0.5669291338582677
        },
        {
          "duration": 0.10069440416665998,
          "durationTicks": 58,
          "midi": 62,
          "name": "D4",
          "ticks": 20880,
          "time": 36.2499855,
          "velocity": 0.5669291338582677
        },
        {
          "duration": 0.10069440416666708,
          "durationTicks": 58,
          "midi": 62,
          "name": "D4",
          "ticks": 21000,
          "time": 36.45831875,
          "velocity": 0.5669291338582677
        },
        {
          "duration": 0.10069440416666708,
          "durationTicks": 58,
          "midi": 57,
          "name": "A3",
          "ticks": 21120,
          "time": 36.666652,
          "velocity": 0.5669291338582677
        },
        {
          "duration": 0.10069440416666708,
          "durationTicks": 58,
          "midi": 59,
          "name": "B3",
          "ticks": 21180,
          "time": 36.770818625,
          "velocity": 0.5669291338582677
        },
        {
          "duration": 0.1527777166666624,
          "durationTicks": 88,
          "midi": 61,
          "name": "C#4",
          "ticks": 21240,
          "time": 36.87498525,
          "velocity": 0.5669291338582677
        },
        {
          "duration": 0.10069440416666708,
          "durationTicks": 58,
          "midi": 61,
          "name": "C#4",
          "ticks": 21360,
          "time": 37.0833185,
          "velocity": 0.5669291338582677
        },
        {
          "duration": 0.10069440416666708,
          "durationTicks": 58,
          "midi": 61,
          "name": "C#4",
          "ticks": 21480,
          "time": 37.29165175,
          "velocity": 0.5669291338582677
        },
        {
          "duration": 0.10069440416665998,
          "durationTicks": 58,
          "midi": 60,
          "name": "C4",
          "ticks": 21600,
          "time": 37.499985,
          "velocity": 0.5669291338582677
        },
        {
          "duration": 0.10069440416665998,
          "durationTicks": 58,
          "midi": 59,
          "name": "B3",
          "ticks": 21660,
          "time": 37.604151625,
          "velocity": 0.5669291338582677
        },
        {
          "duration": 0.1527777166666624,
          "durationTicks": 88,
          "midi": 57,
          "name": "A3",
          "ticks": 21720,
          "time": 37.70831825,
          "velocity": 0.5669291338582677
        },
        {
          "duration": 0.10069440416665998,
          "durationTicks": 58,
          "midi": 57,
          "name": "A3",
          "ticks": 21840,
          "time": 37.9166515,
          "velocity": 0.5669291338582677
        },
        {
          "duration": 0.10069440416665998,
          "durationTicks": 58,
          "midi": 57,
          "name": "A3",
          "ticks": 21960,
          "time": 38.12498475,
          "velocity": 0.5669291338582677
        },
        {
          "duration": 0.10069440416666708,
          "durationTicks": 58,
          "midi": 64,
          "name": "E4",
          "ticks": 22080,
          "time": 38.333318,
          "velocity": 0.5669291338582677
        },
        {
          "duration": 0.10069440416666708,
          "durationTicks": 58,
          "midi": 66,
          "name": "F#4",
          "ticks": 22140,
          "time": 38.437484624999996,
          "velocity": 0.5669291338582677
        },
        {
          "duration": 0.1527777166666624,
          "durationTicks": 88,
          "midi": 68,
          "name": "G#4",
          "ticks": 22200,
          "time": 38.54165125,
          "velocity": 0.5669291338582677
        },
        {
          "duration": 0.10069440416666708,
          "durationTicks": 58,
          "midi": 68,
          "name": "G#4",
          "ticks": 22320,
          "time": 38.7499845,
          "velocity": 0.5669291338582677
        },
        {
          "duration": 0.10069440416666708,
          "durationTicks": 58,
          "midi": 68,
          "name": "G#4",
          "ticks": 22440,
          "time": 38.95831775,
          "velocity": 0.5669291338582677
        },
        {
          "duration": 0.10069440416665998,
          "durationTicks": 58,
          "midi": 67,
          "name": "G4",
          "ticks": 22560,
          "time": 39.166651,
          "velocity": 0.5669291338582677
        },
        {
          "duration": 0.10069440416666708,
          "durationTicks": 58,
          "midi": 66,
          "name": "F#4",
          "ticks": 22620,
          "time": 39.270817625,
          "velocity": 0.5669291338582677
        },
        {
          "duration": 0.1527777166666695,
          "durationTicks": 88,
          "midi": 64,
          "name": "E4",
          "ticks": 22680,
          "time": 39.37498425,
          "velocity": 0.5669291338582677
        },
        {
          "duration": 0.10069440416666708,
          "durationTicks": 58,
          "midi": 64,
          "name": "E4",
          "ticks": 22800,
          "time": 39.5833175,
          "velocity": 0.5669291338582677
        },
        {
          "duration": 0.10069440416665998,
          "durationTicks": 58,
          "midi": 64,
          "name": "E4",
          "ticks": 22920,
          "time": 39.79165075,
          "velocity": 0.5669291338582677
        },
        {
          "duration": 0.10069440416666708,
          "durationTicks": 58,
          "midi": 57,
          "name": "A3",
          "ticks": 23040,
          "time": 39.999984,
          "velocity": 0.5669291338582677
        },
        {
          "duration": 0.10069440416665998,
          "durationTicks": 58,
          "midi": 59,
          "name": "B3",
          "ticks": 23100,
          "time": 40.104150625,
          "velocity": 0.5669291338582677
        },
        {
          "duration": 0.1527777166666624,
          "durationTicks": 88,
          "midi": 60,
          "name": "C4",
          "ticks": 23160,
          "time": 40.20831725,
          "velocity": 0.5669291338582677
        },
        {
          "duration": 0.10069440416665998,
          "durationTicks": 58,
          "midi": 60,
          "name": "C4",
          "ticks": 23280,
          "time": 40.4166505,
          "velocity": 0.5669291338582677
        },
        {
          "duration": 0.10069440416666708,
          "durationTicks": 58,
          "midi": 60,
          "name": "C4",
          "ticks": 23400,
          "time": 40.62498375,
          "velocity": 0.5669291338582677
        },
        {
          "duration": 0.10069440416665998,
          "durationTicks": 58,
          "midi": 59,
          "name": "B3",
          "ticks": 23520,
          "time": 40.833317,
          "velocity": 0.5669291338582677
        },
        {
          "duration": 0.10069440416666708,
          "durationTicks": 58,
          "midi": 60,
          "name": "C4",
          "ticks": 23580,
          "time": 40.937483625,
          "velocity": 0.5669291338582677
        },
        {
          "duration": 0.1527777166666695,
          "durationTicks": 88,
          "midi": 62,
          "name": "D4",
          "ticks": 23640,
          "time": 41.041650249999996,
          "velocity": 0.5669291338582677
        },
        {
          "duration": 0.10069440416666708,
          "durationTicks": 58,
          "midi": 62,
          "name": "D4",
          "ticks": 23760,
          "time": 41.2499835,
          "velocity": 0.5669291338582677
        },
        {
          "duration": 0.10069440416665998,
          "durationTicks": 58,
          "midi": 62,
          "name": "D4",
          "ticks": 23880,
          "time": 41.45831675,
          "velocity": 0.5669291338582677
        },
        {
          "duration": 0.10069440416666708,
          "durationTicks": 58,
          "midi": 60,
          "name": "C4",
          "ticks": 24000,
          "time": 41.66665,
          "velocity": 0.5669291338582677
        },
        {
          "duration": 0.10069440416665998,
          "durationTicks": 58,
          "midi": 62,
          "name": "D4",
          "ticks": 24060,
          "time": 41.770816625,
          "velocity": 0.5669291338582677
        },
        {
          "duration": 0.1527777166666624,
          "durationTicks": 88,
          "midi": 64,
          "name": "E4",
          "ticks": 24120,
          "time": 41.87498325,
          "velocity": 0.5669291338582677
        },
        {
          "duration": 0.10069440416665998,
          "durationTicks": 58,
          "midi": 64,
          "name": "E4",
          "ticks": 24240,
          "time": 42.0833165,
          "velocity": 0.5669291338582677
        },
        {
          "duration": 0.10069440416666708,
          "durationTicks": 58,
          "midi": 64,
          "name": "E4",
          "ticks": 24360,
          "time": 42.29164975,
          "velocity": 0.5669291338582677
        },
        {
          "duration": 0.10069440416665998,
          "durationTicks": 58,
          "midi": 64,
          "name": "E4",
          "ticks": 24480,
          "time": 42.499983,
          "velocity": 0.5669291338582677
        },
        {
          "duration": 0.10069440416666708,
          "durationTicks": 58,
          "midi": 65,
          "name": "F4",
          "ticks": 24540,
          "time": 42.604149625,
          "velocity": 0.5669291338582677
        },
        {
          "duration": 0.1527777166666624,
          "durationTicks": 88,
          "midi": 67,
          "name": "G4",
          "ticks": 24600,
          "time": 42.70831625,
          "velocity": 0.5669291338582677
        },
        {
          "duration": 0.10069440416666708,
          "durationTicks": 58,
          "midi": 67,
          "name": "G4",
          "ticks": 24720,
          "time": 42.9166495,
          "velocity": 0.5669291338582677
        },
        {
          "duration": 0.10069440416665998,
          "durationTicks": 58,
          "midi": 67,
          "name": "G4",
          "ticks": 24840,
          "time": 43.12498275,
          "velocity": 0.5669291338582677
        },
        {
          "duration": 0.10069440416666708,
          "durationTicks": 58,
          "midi": 66,
          "name": "F#4",
          "ticks": 24960,
          "time": 43.333315999999996,
          "velocity": 0.5669291338582677
        },
        {
          "duration": 0.10069440416665998,
          "durationTicks": 58,
          "midi": 67,
          "name": "G4",
          "ticks": 25020,
          "time": 43.437482625,
          "velocity": 0.5669291338582677
        },
        {
          "duration": 0.1527777166666624,
          "durationTicks": 88,
          "midi": 69,
          "name": "A4",
          "ticks": 25080,
          "time": 43.54164925,
          "velocity": 0.5669291338582677
        },
        {
          "duration": 0.10069440416665998,
          "durationTicks": 58,
          "midi": 69,
          "name": "A4",
          "ticks": 25200,
          "time": 43.7499825,
          "velocity": 0.5669291338582677
        },
        {
          "duration": 0.10069440416666708,
          "durationTicks": 58,
          "midi": 69,
          "name": "A4",
          "ticks": 25320,
          "time": 43.95831575,
          "velocity": 0.5669291338582677
        },
        {
          "duration": 0.10069440416666708,
          "durationTicks": 58,
          "midi": 68,
          "name": "G#4",
          "ticks": 25440,
          "time": 44.166649,
          "velocity": 0.5669291338582677
        },
        {
          "duration": 0.10069440416666708,
          "durationTicks": 58,
          "midi": 69,
          "name": "A4",
          "ticks": 25500,
          "time": 44.270815625,
          "velocity": 0.5669291338582677
        },
        {
          "duration": 0.1527777166666624,
          "durationTicks": 88,
          "midi": 71,
          "name": "B4",
          "ticks": 25560,
          "time": 44.37498225,
          "velocity": 0.5669291338582677
        },
        {
          "duration": 0.10069440416666708,
          "durationTicks": 58,
          "midi": 71,
          "name": "B4",
          "ticks": 25680,
          "time": 44.5833155,
          "velocity": 0.5669291338582677
        },
        {
          "duration": 0.10069440416665998,
          "durationTicks": 58,
          "midi": 71,
          "name": "B4",
          "ticks": 25800,
          "time": 44.79164875,
          "velocity": 0.5669291338582677
        },
        {
          "duration": 0.10069440416665998,
          "durationTicks": 58,
          "midi": 69,
          "name": "A4",
          "ticks": 25920,
          "time": 44.999982,
          "velocity": 0.5669291338582677
        },
        {
          "duration": 0.10069440416665998,
          "durationTicks": 58,
          "midi": 71,
          "name": "B4",
          "ticks": 25980,
          "time": 45.104148625,
          "velocity": 0.5669291338582677
        },
        {
          "duration": 0.1527777166666624,
          "durationTicks": 88,
          "midi": 72,
          "name": "C5",
          "ticks": 26040,
          "time": 45.20831525,
          "velocity": 0.5669291338582677
        },
        {
          "duration": 0.10069440416665998,
          "durationTicks": 58,
          "midi": 72,
          "name": "C5",
          "ticks": 26160,
          "time": 45.4166485,
          "velocity": 0.5669291338582677
        },
        {
          "duration": 0.10069440416666708,
          "durationTicks": 58,
          "midi": 72,
          "name": "C5",
          "ticks": 26280,
          "time": 45.624981749999996,
          "velocity": 0.5669291338582677
        },
        {
          "duration": 0.10069440416666708,
          "durationTicks": 58,
          "midi": 67,
          "name": "G4",
          "ticks": 26400,
          "time": 45.833315,
          "velocity": 0.5669291338582677
        },
        {
          "duration": 0.10069440416666708,
          "durationTicks": 58,
          "midi": 69,
          "name": "A4",
          "ticks": 26460,
          "time": 45.937481625,
          "velocity": 0.5669291338582677
        },
        {
          "duration": 0.1527777166666624,
          "durationTicks": 88,
          "midi": 70,
          "name": "A#4",
          "ticks": 26520,
          "time": 46.04164825,
          "velocity": 0.5669291338582677
        },
        {
          "duration": 0.10069440416666708,
          "durationTicks": 58,
          "midi": 70,
          "name": "A#4",
          "ticks": 26640,
          "time": 46.2499815,
          "velocity": 0.5669291338582677
        },
        {
          "duration": 0.10069440416666708,
          "durationTicks": 58,
          "midi": 70,
          "name": "A#4",
          "ticks": 26760,
          "time": 46.45831475,
          "velocity": 0.5669291338582677
        },
        {
          "duration": 0.10069440416665998,
          "durationTicks": 58,
          "midi": 66,
          "name": "F#4",
          "ticks": 26880,
          "time": 46.666648,
          "velocity": 0.5669291338582677
        },
        {
          "duration": 0.10069440416665998,
          "durationTicks": 58,
          "midi": 67,
          "name": "G4",
          "ticks": 26940,
          "time": 46.770814625,
          "velocity": 0.5669291338582677
        },
        {
          "duration": 0.1527777166666624,
          "durationTicks": 88,
          "midi": 69,
          "name": "A4",
          "ticks": 27000,
          "time": 46.87498125,
          "velocity": 0.5669291338582677
        },
        {
          "duration": 0.10069440416665998,
          "durationTicks": 58,
          "midi": 69,
          "name": "A4",
          "ticks": 27120,
          "time": 47.0833145,
          "velocity": 0.5669291338582677
        },
        {
          "duration": 0.10069440416665998,
          "durationTicks": 58,
          "midi": 69,
          "name": "A4",
          "ticks": 27240,
          "time": 47.29164775,
          "velocity": 0.5669291338582677
        },
        {
          "duration": 0.10069440416666708,
          "durationTicks": 58,
          "midi": 69,
          "name": "A4",
          "ticks": 27360,
          "time": 47.499981,
          "velocity": 0.5669291338582677
        },
        {
          "duration": 0.10069440416666708,
          "durationTicks": 58,
          "midi": 67,
          "name": "G4",
          "ticks": 27420,
          "time": 47.604147624999996,
          "velocity": 0.5669291338582677
        },
        {
          "duration": 0.1527777166666624,
          "durationTicks": 88,
          "midi": 66,
          "name": "F#4",
          "ticks": 27480,
          "time": 47.70831425,
          "velocity": 0.5669291338582677
        },
        {
          "duration": 0.10069440416666708,
          "durationTicks": 58,
          "midi": 66,
          "name": "F#4",
          "ticks": 27600,
          "time": 47.916647499999996,
          "velocity": 0.5669291338582677
        },
        {
          "duration": 0.10069440416666708,
          "durationTicks": 58,
          "midi": 66,
          "name": "F#4",
          "ticks": 27720,
          "time": 48.12498075,
          "velocity": 0.5669291338582677
        },
        {
          "duration": 0.10069440416665998,
          "durationTicks": 58,
          "midi": 65,
          "name": "F4",
          "ticks": 27840,
          "time": 48.333314,
          "velocity": 0.5669291338582677
        },
        {
          "duration": 0.10069440416666708,
          "durationTicks": 58,
          "midi": 67,
          "name": "G4",
          "ticks": 27900,
          "time": 48.437480625,
          "velocity": 0.5669291338582677
        },
        {
          "duration": 0.1527777166666695,
          "durationTicks": 88,
          "midi": 69,
          "name": "A4",
          "ticks": 27960,
          "time": 48.54164725,
          "velocity": 0.5669291338582677
        },
        {
          "duration": 0.10069440416666708,
          "durationTicks": 58,
          "midi": 69,
          "name": "A4",
          "ticks": 28080,
          "time": 48.7499805,
          "velocity": 0.5669291338582677
        },
        {
          "duration": 0.10069440416665998,
          "durationTicks": 58,
          "midi": 69,
          "name": "A4",
          "ticks": 28200,
          "time": 48.95831375,
          "velocity": 0.5669291338582677
        },
        {
          "duration": 0.10069440416666708,
          "durationTicks": 58,
          "midi": 69,
          "name": "A4",
          "ticks": 28320,
          "time": 49.166647,
          "velocity": 0.5669291338582677
        },
        {
          "duration": 0.10069440416665998,
          "durationTicks": 58,
          "midi": 67,
          "name": "G4",
          "ticks": 28380,
          "time": 49.270813625,
          "velocity": 0.5669291338582677
        },
        {
          "duration": 0.1527777166666624,
          "durationTicks": 88,
          "midi": 65,
          "name": "F4",
          "ticks": 28440,
          "time": 49.37498025,
          "velocity": 0.5669291338582677
        },
        {
          "duration": 0.10069440416665998,
          "durationTicks": 58,
          "midi": 65,
          "name": "F4",
          "ticks": 28560,
          "time": 49.5833135,
          "velocity": 0.5669291338582677
        },
        {
          "duration": 0.10069440416666708,
          "durationTicks": 58,
          "midi": 65,
          "name": "F4",
          "ticks": 28680,
          "time": 49.79164675,
          "velocity": 0.5669291338582677
        },
        {
          "duration": 0.361110966666665,
          "durationTicks": 208,
          "midi": 64,
          "name": "E4",
          "ticks": 28800,
          "time": 49.99998,
          "velocity": 0.5669291338582677
        },
        {
          "duration": 0.361110966666665,
          "durationTicks": 208,
          "midi": 71,
          "name": "B4",
          "ticks": 28800,
          "time": 49.99998,
          "velocity": 0.5669291338582677
        },
        {
          "duration": 0.361110966666665,
          "durationTicks": 208,
          "midi": 76,
          "name": "E5",
          "ticks": 28800,
          "time": 49.99998,
          "velocity": 0.5669291338582677
        },
        {
          "duration": 0.4131942791666674,
          "durationTicks": 238,
          "midi": 64,
          "name": "E4",
          "ticks": 29040,
          "time": 50.4166465,
          "velocity": 0.5669291338582677
        },
        {
          "duration": 0.4131942791666603,
          "durationTicks": 238,
          "midi": 62,
          "name": "D4",
          "ticks": 29520,
          "time": 51.2499795,
          "velocity": 0.3779527559055118
        },
        {
          "duration": 0.4131942791666674,
          "durationTicks": 238,
          "midi": 60,
          "name": "C4",
          "ticks": 30000,
          "time": 52.0833125,
          "velocity": 0.3779527559055118
        },
        {
          "duration": 0.361110966666665,
          "durationTicks": 208,
          "midi": 59,
          "name": "B3",
          "ticks": 30480,
          "time": 52.9166455,
          "velocity": 0.3779527559055118
        },
        {
          "duration": 0.4131942791666674,
          "durationTicks": 238,
          "midi": 57,
          "name": "A3",
          "ticks": 30720,
          "time": 53.333312,
          "velocity": 0.3779527559055118
        },
        {
          "duration": 0.20486102916667193,
          "durationTicks": 118,
          "midi": 60,
          "name": "C4",
          "ticks": 30960,
          "time": 53.7499785,
          "velocity": 0.3779527559055118
        },
        {
          "duration": 0.20486102916667193,
          "durationTicks": 118,
          "midi": 64,
          "name": "E4",
          "ticks": 31080,
          "time": 53.95831175,
          "velocity": 0.3779527559055118
        },
        {
          "duration": 0.4131942791666674,
          "durationTicks": 238,
          "midi": 69,
          "name": "A4",
          "ticks": 31200,
          "time": 54.166645,
          "velocity": 0.3779527559055118
        },
        {
          "duration": 0.4131942791666674,
          "durationTicks": 238,
          "midi": 67,
          "name": "G4",
          "ticks": 31440,
          "time": 54.5833115,
          "velocity": 0.3779527559055118
        },
        {
          "duration": 0.4131942791666674,
          "durationTicks": 238,
          "midi": 65,
          "name": "F4",
          "ticks": 31680,
          "time": 54.999978,
          "velocity": 0.3779527559055118
        },
        {
          "duration": 0.4131942791666745,
          "durationTicks": 238,
          "midi": 64,
          "name": "E4",
          "ticks": 31920,
          "time": 55.4166445,
          "velocity": 0.3779527559055118
        },
        {
          "duration": 0.4131942791666674,
          "durationTicks": 238,
          "midi": 62,
          "name": "D4",
          "ticks": 32160,
          "time": 55.833311,
          "velocity": 0.3779527559055118
        },
        {
          "duration": 0.3611109666666721,
          "durationTicks": 208,
          "midi": 60,
          "name": "C4",
          "ticks": 32400,
          "time": 56.2499775,
          "velocity": 0.3779527559055118
        },
        {
          "duration": 0.4131942791666745,
          "durationTicks": 238,
          "midi": 59,
          "name": "B3",
          "ticks": 32640,
          "time": 56.666644,
          "velocity": 0.3779527559055118
        },
        {
          "duration": 0.20486102916667193,
          "durationTicks": 118,
          "midi": 60,
          "name": "C4",
          "ticks": 32880,
          "time": 57.083310499999996,
          "velocity": 0.3779527559055118
        },
        {
          "duration": 0.1527777166666695,
          "durationTicks": 88,
          "midi": 62,
          "name": "D4",
          "ticks": 33000,
          "time": 57.29164375,
          "velocity": 0.3779527559055118
        },
        {
          "duration": 0.20486102916666482,
          "durationTicks": 118,
          "midi": 64,
          "name": "E4",
          "ticks": 33120,
          "time": 57.499977,
          "velocity": 0.3779527559055118
        },
        {
          "duration": 0.20486102916667193,
          "durationTicks": 118,
          "midi": 62,
          "name": "D4",
          "ticks": 33240,
          "time": 57.70831025,
          "velocity": 0.3779527559055118
        },
        {
          "duration": 0.3611109666666721,
          "durationTicks": 208,
          "midi": 64,
          "name": "E4",
          "ticks": 33360,
          "time": 57.9166435,
          "velocity": 0.3779527559055118
        },
        {
          "duration": 0.4131942791666745,
          "durationTicks": 238,
          "midi": 57,
          "name": "A3",
          "ticks": 33600,
          "time": 58.33331,
          "velocity": 0.3779527559055118
        },
        {
          "duration": 0.4131942791666674,
          "durationTicks": 238,
          "midi": 67,
          "name": "G4",
          "ticks": 33840,
          "time": 58.7499765,
          "velocity": 0.3779527559055118
        },
        {
          "duration": 0.4131942791666674,
          "durationTicks": 238,
          "midi": 65,
          "name": "F4",
          "ticks": 34080,
          "time": 59.166643,
          "velocity": 0.3779527559055118
        },
        {
          "duration": 0.3611109666666721,
          "durationTicks": 208,
          "midi": 64,
          "name": "E4",
          "ticks": 34320,
          "time": 59.5833095,
          "velocity": 0.3779527559055118
        },
        {
          "duration": 0.4131942791666745,
          "durationTicks": 238,
          "midi": 62,
          "name": "D4",
          "ticks": 34560,
          "time": 59.999976,
          "velocity": 0.3779527559055118
        },
        {
          "duration": 0.20486102916666482,
          "durationTicks": 118,
          "midi": 65,
          "name": "F4",
          "ticks": 34800,
          "time": 60.4166425,
          "velocity": 0.3779527559055118
        },
        {
          "duration": 0.20486102916667193,
          "durationTicks": 118,
          "midi": 69,
          "name": "A4",
          "ticks": 34920,
          "time": 60.62497575,
          "velocity": 0.3779527559055118
        },
        {
          "duration": 0.4131942791666674,
          "durationTicks": 238,
          "midi": 74,
          "name": "D5",
          "ticks": 35040,
          "time": 60.833309,
          "velocity": 0.3779527559055118
        },
        {
          "duration": 0.4131942791666745,
          "durationTicks": 238,
          "midi": 72,
          "name": "C5",
          "ticks": 35280,
          "time": 61.2499755,
          "velocity": 0.3779527559055118
        },
        {
          "duration": 0.4131942791666745,
          "durationTicks": 238,
          "midi": 70,
          "name": "A#4",
          "ticks": 35520,
          "time": 61.666641999999996,
          "velocity": 0.3779527559055118
        },
        {
          "duration": 0.4131942791666674,
          "durationTicks": 238,
          "midi": 69,
          "name": "A4",
          "ticks": 35760,
          "time": 62.0833085,
          "velocity": 0.3779527559055118
        },
        {
          "duration": 0.4131942791666674,
          "durationTicks": 238,
          "midi": 67,
          "name": "G4",
          "ticks": 36000,
          "time": 62.499975,
          "velocity": 0.3779527559055118
        },
        {
          "duration": 0.3611109666666721,
          "durationTicks": 208,
          "midi": 65,
          "name": "F4",
          "ticks": 36240,
          "time": 62.9166415,
          "velocity": 0.3779527559055118
        },
        {
          "duration": 0.4131942791666674,
          "durationTicks": 238,
          "midi": 64,
          "name": "E4",
          "ticks": 36480,
          "time": 63.333308,
          "velocity": 0.3779527559055118
        },
        {
          "duration": 0.20486102916667193,
          "durationTicks": 118,
          "midi": 65,
          "name": "F4",
          "ticks": 36720,
          "time": 63.7499745,
          "velocity": 0.3779527559055118
        },
        {
          "duration": 0.20486102916667193,
          "durationTicks": 118,
          "midi": 67,
          "name": "G4",
          "ticks": 36840,
          "time": 63.958307749999996,
          "velocity": 0.3779527559055118
        },
        {
          "duration": 0.4131942791666745,
          "durationTicks": 238,
          "midi": 69,
          "name": "A4",
          "ticks": 36960,
          "time": 64.166641,
          "velocity": 0.3779527559055118
        },
        {
          "duration": 0.3611109666666721,
          "durationTicks": 208,
          "midi": 57,
          "name": "A3",
          "ticks": 37200,
          "time": 64.5833075,
          "velocity": 0.3779527559055118
        },
        {
          "duration": 0.4131942791666745,
          "durationTicks": 238,
          "midi": 62,
          "name": "D4",
          "ticks": 37440,
          "time": 64.999974,
          "velocity": 0.3779527559055118
        },
        {
          "duration": 0.20486102916666482,
          "durationTicks": 118,
          "midi": 65,
          "name": "F4",
          "ticks": 37680,
          "time": 65.4166405,
          "velocity": 0.3779527559055118
        },
        {
          "duration": 0.20486102916667903,
          "durationTicks": 118,
          "midi": 64,
          "name": "E4",
          "ticks": 37800,
          "time": 65.62497375,
          "velocity": 0.3779527559055118
        },
        {
          "duration": 0.4131942791666603,
          "durationTicks": 238,
          "midi": 62,
          "name": "D4",
          "ticks": 37920,
          "time": 65.833307,
          "velocity": 0.3779527559055118
        },
        {
          "duration": 0.20486102916667903,
          "durationTicks": 118,
          "midi": 64,
          "name": "E4",
          "ticks": 38160,
          "time": 66.2499735,
          "velocity": 0.3779527559055118
        },
        {
          "duration": 0.20486102916666482,
          "durationTicks": 118,
          "midi": 65,
          "name": "F4",
          "ticks": 38280,
          "time": 66.45830675,
          "velocity": 0.3779527559055118
        },
        {
          "duration": 0.4131942791666745,
          "durationTicks": 238,
          "midi": 67,
          "name": "G4",
          "ticks": 38400,
          "time": 66.66664,
          "velocity": 0.3779527559055118
        },
        {
          "duration": 0.20486102916666482,
          "durationTicks": 118,
          "midi": 65,
          "name": "F4",
          "ticks": 38640,
          "time": 67.0833065,
          "velocity": 0.3779527559055118
        },
        {
          "duration": 0.1527777166666624,
          "durationTicks": 88,
          "midi": 67,
          "name": "G4",
          "ticks": 38760,
          "time": 67.29163975,
          "velocity": 0.3779527559055118
        },
        {
          "duration": 0.4131942791666745,
          "durationTicks": 238,
          "midi": 55,
          "name": "G3",
          "ticks": 38880,
          "time": 67.499973,
          "velocity": 0.3779527559055118
        },
        {
          "duration": 0.3611109666666721,
          "durationTicks": 208,
          "midi": 67,
          "name": "G4",
          "ticks": 39120,
          "time": 67.9166395,
          "velocity": 0.3779527559055118
        },
        {
          "duration": 0.4131942791666745,
          "durationTicks": 238,
          "midi": 60,
          "name": "C4",
          "ticks": 39360,
          "time": 68.333306,
          "velocity": 0.3779527559055118
        },
        {
          "duration": 0.20486102916666482,
          "durationTicks": 118,
          "midi": 64,
          "name": "E4",
          "ticks": 39600,
          "time": 68.7499725,
          "velocity": 0.3779527559055118
        },
        {
          "duration": 0.20486102916667903,
          "durationTicks": 118,
          "midi": 62,
          "name": "D4",
          "ticks": 39720,
          "time": 68.95830575,
          "velocity": 0.3779527559055118
        },
        {
          "duration": 0.4131942791666603,
          "durationTicks": 238,
          "midi": 60,
          "name": "C4",
          "ticks": 39840,
          "time": 69.166639,
          "velocity": 0.3779527559055118
        },
        {
          "duration": 0.20486102916667903,
          "durationTicks": 118,
          "midi": 62,
          "name": "D4",
          "ticks": 40080,
          "time": 69.5833055,
          "velocity": 0.3779527559055118
        },
        {
          "duration": 0.20486102916666482,
          "durationTicks": 118,
          "midi": 64,
          "name": "E4",
          "ticks": 40200,
          "time": 69.79163875,
          "velocity": 0.3779527559055118
        },
        {
          "duration": 0.4131942791666745,
          "durationTicks": 238,
          "midi": 65,
          "name": "F4",
          "ticks": 40320,
          "time": 69.999972,
          "velocity": 0.3779527559055118
        },
        {
          "duration": 0.20486102916666482,
          "durationTicks": 118,
          "midi": 60,
          "name": "C4",
          "ticks": 40560,
          "time": 70.4166385,
          "velocity": 0.3779527559055118
        },
        {
          "duration": 0.1527777166666624,
          "durationTicks": 88,
          "midi": 57,
          "name": "A3",
          "ticks": 40680,
          "time": 70.62497175,
          "velocity": 0.3779527559055118
        },
        {
          "duration": 0.20486102916667903,
          "durationTicks": 118,
          "midi": 65,
          "name": "F4",
          "ticks": 40800,
          "time": 70.833305,
          "velocity": 0.3779527559055118
        },
        {
          "duration": 0.20486102916666482,
          "durationTicks": 118,
          "midi": 65,
          "name": "F4",
          "ticks": 41040,
          "time": 71.2499715,
          "velocity": 0.3779527559055118
        },
        {
          "duration": 0.4131942791666603,
          "durationTicks": 238,
          "midi": 59,
          "name": "B3",
          "ticks": 41280,
          "time": 71.666638,
          "velocity": 0.3779527559055118
        },
        {
          "duration": 0.20486102916667903,
          "durationTicks": 118,
          "midi": 62,
          "name": "D4",
          "ticks": 41520,
          "time": 72.0833045,
          "velocity": 0.3779527559055118
        },
        {
          "duration": 0.20486102916667903,
          "durationTicks": 118,
          "midi": 60,
          "name": "C4",
          "ticks": 41640,
          "time": 72.29163774999999,
          "velocity": 0.3779527559055118
        },
        {
          "duration": 0.4131942791666603,
          "durationTicks": 238,
          "midi": 59,
          "name": "B3",
          "ticks": 41760,
          "time": 72.499971,
          "velocity": 0.3779527559055118
        },
        {
          "duration": 0.20486102916667903,
          "durationTicks": 118,
          "midi": 60,
          "name": "C4",
          "ticks": 42000,
          "time": 72.9166375,
          "velocity": 0.3779527559055118
        },
        {
          "duration": 0.1527777166666624,
          "durationTicks": 88,
          "midi": 62,
          "name": "D4",
          "ticks": 42120,
          "time": 73.12497075,
          "velocity": 0.3779527559055118
        },
        {
          "duration": 0.4131942791666745,
          "durationTicks": 238,
          "midi": 64,
          "name": "E4",
          "ticks": 42240,
          "time": 73.333304,
          "velocity": 0.3779527559055118
        },
        {
          "duration": 0.4131942791666603,
          "durationTicks": 238,
          "midi": 62,
          "name": "D4",
          "ticks": 42480,
          "time": 73.7499705,
          "velocity": 0.3779527559055118
        },
        {
          "duration": 0.4131942791666745,
          "durationTicks": 238,
          "midi": 60,
          "name": "C4",
          "ticks": 42720,
          "time": 74.166637,
          "velocity": 0.3779527559055118
        },
        {
          "duration": 0.4131942791666745,
          "durationTicks": 238,
          "midi": 59,
          "name": "B3",
          "ticks": 42960,
          "time": 74.5833035,
          "velocity": 0.3779527559055118
        },
        {
          "duration": 0.4131942791666603,
          "durationTicks": 238,
          "midi": 57,
          "name": "A3",
          "ticks": 43200,
          "time": 74.99997,
          "velocity": 0.3779527559055118
        },
        {
          "duration": 0.4131942791666745,
          "durationTicks": 238,
          "midi": 67,
          "name": "G4",
          "ticks": 43440,
          "time": 75.4166365,
          "velocity": 0.3779527559055118
        },
        {
          "duration": 0.4131942791666745,
          "durationTicks": 238,
          "midi": 66,
          "name": "F#4",
          "ticks": 43680,
          "time": 75.833303,
          "velocity": 0.3779527559055118
        },
        {
          "duration": 0.3611109666666579,
          "durationTicks": 208,
          "midi": 65,
          "name": "F4",
          "ticks": 43920,
          "time": 76.2499695,
          "velocity": 0.3779527559055118
        },
        {
          "duration": 0.4131942791666745,
          "durationTicks": 238,
          "midi": 64,
          "name": "E4",
          "ticks": 44160,
          "time": 76.666636,
          "velocity": 0.3779527559055118
        },
        {
          "duration": 0.20486102916666482,
          "durationTicks": 118,
          "midi": 62,
          "name": "D4",
          "ticks": 44400,
          "time": 77.0833025,
          "velocity": 0.3779527559055118
        },
        {
          "duration": 0.1527777166666766,
          "durationTicks": 88,
          "midi": 64,
          "name": "E4",
          "ticks": 44520,
          "time": 77.29163575,
          "velocity": 0.3779527559055118
        },
        {
          "duration": 0.4131942791666745,
          "durationTicks": 238,
          "midi": 65,
          "name": "F4",
          "ticks": 44640,
          "time": 77.499969,
          "velocity": 0.3779527559055118
        },
        {
          "duration": 0.20486102916666482,
          "durationTicks": 118,
          "midi": 64,
          "name": "E4",
          "ticks": 44880,
          "time": 77.9166355,
          "velocity": 0.3779527559055118
        },
        {
          "duration": 0.1527777166666766,
          "durationTicks": 88,
          "midi": 65,
          "name": "F4",
          "ticks": 45000,
          "time": 78.12496875,
          "velocity": 0.3779527559055118
        },
        {
          "duration": 0.4131942791666603,
          "durationTicks": 238,
          "midi": 62,
          "name": "D4",
          "ticks": 45120,
          "time": 78.333302,
          "velocity": 0.3779527559055118
        },
        {
          "duration": 0.20486102916667903,
          "durationTicks": 118,
          "midi": 60,
          "name": "C4",
          "ticks": 45360,
          "time": 78.7499685,
          "velocity": 0.3779527559055118
        },
        {
          "duration": 0.1527777166666624,
          "durationTicks": 88,
          "midi": 62,
          "name": "D4",
          "ticks": 45480,
          "time": 78.95830175,
          "velocity": 0.3779527559055118
        },
        {
          "duration": 0.4131942791666745,
          "durationTicks": 238,
          "midi": 64,
          "name": "E4",
          "ticks": 45600,
          "time": 79.166635,
          "velocity": 0.3779527559055118
        },
        {
          "duration": 0.20486102916666482,
          "durationTicks": 118,
          "midi": 62,
          "name": "D4",
          "ticks": 45840,
          "time": 79.5833015,
          "velocity": 0.3779527559055118
        },
        {
          "duration": 0.1527777166666624,
          "durationTicks": 88,
          "midi": 64,
          "name": "E4",
          "ticks": 45960,
          "time": 79.79163475,
          "velocity": 0.3779527559055118
        },
        {
          "duration": 0.1527777166666766,
          "durationTicks": 88,
          "midi": 57,
          "name": "A3",
          "ticks": 46080,
          "time": 79.999968,
          "velocity": 0.3779527559055118
        },
        {
          "duration": 0.1527777166666624,
          "durationTicks": 88,
          "midi": 64,
          "name": "E4",
          "ticks": 46200,
          "time": 80.20830125,
          "velocity": 0.3779527559055118
        },
        {
          "duration": 0.1527777166666624,
          "durationTicks": 88,
          "midi": 64,
          "name": "E4",
          "ticks": 46320,
          "time": 80.4166345,
          "velocity": 0.3779527559055118
        },
        {
          "duration": 0.20486102916667903,
          "durationTicks": 118,
          "midi": 64,
          "name": "E4",
          "ticks": 46440,
          "time": 80.62496775,
          "velocity": 0.3779527559055118
        },
        {
          "duration": 0.1527777166666624,
          "durationTicks": 88,
          "midi": 69,
          "name": "A4",
          "ticks": 46680,
          "time": 81.04163425,
          "velocity": 0.3779527559055118
        },
        {
          "duration": 0.1527777166666766,
          "durationTicks": 88,
          "midi": 69,
          "name": "A4",
          "ticks": 46800,
          "time": 81.2499675,
          "velocity": 0.3779527559055118
        },
        {
          "duration": 0.20486102916667903,
          "durationTicks": 118,
          "midi": 69,
          "name": "A4",
          "ticks": 46920,
          "time": 81.45830074999999,
          "velocity": 0.3779527559055118
        },
        {
          "duration": 0.1527777166666766,
          "durationTicks": 88,
          "midi": 72,
          "name": "C5",
          "ticks": 47160,
          "time": 81.87496725,
          "velocity": 0.3779527559055118
        },
        {
          "duration": 0.1527777166666766,
          "durationTicks": 88,
          "midi": 72,
          "name": "C5",
          "ticks": 47280,
          "time": 82.08330049999999,
          "velocity": 0.3779527559055118
        },
        {
          "duration": 0.20486102916666482,
          "durationTicks": 118,
          "midi": 72,
          "name": "C5",
          "ticks": 47400,
          "time": 82.29163375,
          "velocity": 0.3779527559055118
        },
        {
          "duration": 0.1527777166666766,
          "durationTicks": 88,
          "midi": 76,
          "name": "E5",
          "ticks": 47640,
          "time": 82.70830025,
          "velocity": 0.3779527559055118
        },
        {
          "duration": 0.1527777166666624,
          "durationTicks": 88,
          "midi": 76,
          "name": "E5",
          "ticks": 47760,
          "time": 82.9166335,
          "velocity": 0.3779527559055118
        },
        {
          "duration": 0.20486102916666482,
          "durationTicks": 118,
          "midi": 76,
          "name": "E5",
          "ticks": 47880,
          "time": 83.12496675,
          "velocity": 0.3779527559055118
        },
        {
          "duration": 0.1527777166666624,
          "durationTicks": 88,
          "midi": 78,
          "name": "F#5",
          "ticks": 48120,
          "time": 83.54163325,
          "velocity": 0.3779527559055118
        },
        {
          "duration": 0.1527777166666766,
          "durationTicks": 88,
          "midi": 78,
          "name": "F#5",
          "ticks": 48240,
          "time": 83.7499665,
          "velocity": 0.3779527559055118
        },
        {
          "duration": 0.20486102916667903,
          "durationTicks": 118,
          "midi": 78,
          "name": "F#5",
          "ticks": 48360,
          "time": 83.95829975,
          "velocity": 0.3779527559055118
        },
        {
          "duration": 0.1527777166666624,
          "durationTicks": 88,
          "midi": 78,
          "name": "F#5",
          "ticks": 48600,
          "time": 84.37496625,
          "velocity": 0.3779527559055118
        },
        {
          "duration": 0.1527777166666766,
          "durationTicks": 88,
          "midi": 78,
          "name": "F#5",
          "ticks": 48720,
          "time": 84.5832995,
          "velocity": 0.3779527559055118
        },
        {
          "duration": 0.20486102916666482,
          "durationTicks": 118,
          "midi": 78,
          "name": "F#5",
          "ticks": 48840,
          "time": 84.79163275,
          "velocity": 0.3779527559055118
        },
        {
          "duration": 0.1527777166666766,
          "durationTicks": 88,
          "midi": 72,
          "name": "C5",
          "ticks": 49080,
          "time": 85.20829925,
          "velocity": 0.3779527559055118
        },
        {
          "duration": 0.1527777166666624,
          "durationTicks": 88,
          "midi": 72,
          "name": "C5",
          "ticks": 49200,
          "time": 85.4166325,
          "velocity": 0.3779527559055118
        },
        {
          "duration": 0.20486102916666482,
          "durationTicks": 118,
          "midi": 72,
          "name": "C5",
          "ticks": 49320,
          "time": 85.62496575,
          "velocity": 0.3779527559055118
        },
        {
          "duration": 0.1527777166666766,
          "durationTicks": 88,
          "midi": 69,
          "name": "A4",
          "ticks": 49560,
          "time": 86.04163224999999,
          "velocity": 0.3779527559055118
        },
        {
          "duration": 0.1527777166666624,
          "durationTicks": 88,
          "midi": 69,
          "name": "A4",
          "ticks": 49680,
          "time": 86.2499655,
          "velocity": 0.3779527559055118
        },
        {
          "duration": 0.20486102916666482,
          "durationTicks": 118,
          "midi": 69,
          "name": "A4",
          "ticks": 49800,
          "time": 86.45829875,
          "velocity": 0.3779527559055118
        },
        {
          "duration": 0.1527777166666624,
          "durationTicks": 88,
          "midi": 67,
          "name": "G4",
          "ticks": 50040,
          "time": 86.87496525,
          "velocity": 0.3779527559055118
        },
        {
          "duration": 0.1527777166666766,
          "durationTicks": 88,
          "midi": 67,
          "name": "G4",
          "ticks": 50160,
          "time": 87.0832985,
          "velocity": 0.3779527559055118
        },
        {
          "duration": 0.20486102916667903,
          "durationTicks": 118,
          "midi": 67,
          "name": "G4",
          "ticks": 50280,
          "time": 87.29163175,
          "velocity": 0.3779527559055118
        },
        {
          "duration": 0.1527777166666766,
          "durationTicks": 88,
          "midi": 67,
          "name": "G4",
          "ticks": 50520,
          "time": 87.70829825,
          "velocity": 0.3779527559055118
        },
        {
          "duration": 0.1527777166666766,
          "durationTicks": 88,
          "midi": 67,
          "name": "G4",
          "ticks": 50640,
          "time": 87.9166315,
          "velocity": 0.3779527559055118
        },
        {
          "duration": 0.20486102916666482,
          "durationTicks": 118,
          "midi": 67,
          "name": "G4",
          "ticks": 50760,
          "time": 88.12496475,
          "velocity": 0.3779527559055118
        },
        {
          "duration": 0.1527777166666766,
          "durationTicks": 88,
          "midi": 61,
          "name": "C#4",
          "ticks": 51000,
          "time": 88.54163125,
          "velocity": 0.3779527559055118
        },
        {
          "duration": 0.1527777166666624,
          "durationTicks": 88,
          "midi": 61,
          "name": "C#4",
          "ticks": 51120,
          "time": 88.7499645,
          "velocity": 0.3779527559055118
        },
        {
          "duration": 0.20486102916666482,
          "durationTicks": 118,
          "midi": 61,
          "name": "C#4",
          "ticks": 51240,
          "time": 88.95829775,
          "velocity": 0.3779527559055118
        },
        {
          "duration": 0.1527777166666624,
          "durationTicks": 88,
          "midi": 58,
          "name": "A#3",
          "ticks": 51480,
          "time": 89.37496425,
          "velocity": 0.3779527559055118
        },
        {
          "duration": 0.1527777166666624,
          "durationTicks": 88,
          "midi": 58,
          "name": "A#3",
          "ticks": 51600,
          "time": 89.5832975,
          "velocity": 0.3779527559055118
        },
        {
          "duration": 0.20486102916667903,
          "durationTicks": 118,
          "midi": 58,
          "name": "A#3",
          "ticks": 51720,
          "time": 89.79163075,
          "velocity": 0.3779527559055118
        },
        {
          "duration": 0.1527777166666624,
          "durationTicks": 88,
          "midi": 58,
          "name": "A#3",
          "ticks": 51960,
          "time": 90.20829725,
          "velocity": 0.3779527559055118
        },
        {
          "duration": 0.1527777166666766,
          "durationTicks": 88,
          "midi": 58,
          "name": "A#3",
          "ticks": 52080,
          "time": 90.4166305,
          "velocity": 0.3779527559055118
        },
        {
          "duration": 0.20486102916667903,
          "durationTicks": 118,
          "midi": 58,
          "name": "A#3",
          "ticks": 52200,
          "time": 90.62496374999999,
          "velocity": 0.3779527559055118
        },
        {
          "duration": 0.1527777166666766,
          "durationTicks": 88,
          "midi": 56,
          "name": "G#3",
          "ticks": 52440,
          "time": 91.04163025,
          "velocity": 0.3779527559055118
        },
        {
          "duration": 0.1527777166666766,
          "durationTicks": 88,
          "midi": 56,
          "name": "G#3",
          "ticks": 52560,
          "time": 91.24996349999999,
          "velocity": 0.3779527559055118
        },
        {
          "duration": 0.20486102916666482,
          "durationTicks": 118,
          "midi": 56,
          "name": "G#3",
          "ticks": 52680,
          "time": 91.45829675,
          "velocity": 0.3779527559055118
        },
        {
          "duration": 0.1527777166666766,
          "durationTicks": 88,
          "midi": 56,
          "name": "G#3",
          "ticks": 52920,
          "time": 91.87496325,
          "velocity": 0.3779527559055118
        },
        {
          "duration": 0.1527777166666624,
          "durationTicks": 88,
          "midi": 56,
          "name": "G#3",
          "ticks": 53040,
          "time": 92.0832965,
          "velocity": 0.3779527559055118
        },
        {
          "duration": 0.20486102916666482,
          "durationTicks": 118,
          "midi": 56,
          "name": "G#3",
          "ticks": 53160,
          "time": 92.29162975,
          "velocity": 0.3779527559055118
        },
        {
          "duration": 0.1527777166666624,
          "durationTicks": 88,
          "midi": 55,
          "name": "G3",
          "ticks": 53400,
          "time": 92.70829625,
          "velocity": 0.3779527559055118
        },
        {
          "duration": 0.1527777166666766,
          "durationTicks": 88,
          "midi": 55,
          "name": "G3",
          "ticks": 53520,
          "time": 92.9166295,
          "velocity": 0.3779527559055118
        },
        {
          "duration": 0.1527777166666766,
          "durationTicks": 88,
          "midi": 55,
          "name": "G3",
          "ticks": 53640,
          "time": 93.12496275,
          "velocity": 0.3779527559055118
        },
        {
          "duration": 0.1527777166666624,
          "durationTicks": 88,
          "midi": 56,
          "name": "G#3",
          "ticks": 53760,
          "time": 93.333296,
          "velocity": 0.3779527559055118
        },
        {
          "duration": 0.1527777166666624,
          "durationTicks": 88,
          "midi": 63,
          "name": "D#4",
          "ticks": 53880,
          "time": 93.54162925,
          "velocity": 0.3779527559055118
        },
        {
          "duration": 0.1527777166666766,
          "durationTicks": 88,
          "midi": 63,
          "name": "D#4",
          "ticks": 54000,
          "time": 93.7499625,
          "velocity": 0.3779527559055118
        },
        {
          "duration": 0.20486102916666482,
          "durationTicks": 118,
          "midi": 63,
          "name": "D#4",
          "ticks": 54120,
          "time": 93.95829575,
          "velocity": 0.3779527559055118
        },
        {
          "duration": 0.1527777166666766,
          "durationTicks": 88,
          "midi": 68,
          "name": "G#4",
          "ticks": 54360,
          "time": 94.37496225,
          "velocity": 0.3779527559055118
        },
        {
          "duration": 0.1527777166666624,
          "durationTicks": 88,
          "midi": 68,
          "name": "G#4",
          "ticks": 54480,
          "time": 94.5832955,
          "velocity": 0.3779527559055118
        },
        {
          "duration": 0.20486102916666482,
          "durationTicks": 118,
          "midi": 68,
          "name": "G#4",
          "ticks": 54600,
          "time": 94.79162875,
          "velocity": 0.3779527559055118
        },
        {
          "duration": 0.1527777166666766,
          "durationTicks": 88,
          "midi": 71,
          "name": "B4",
          "ticks": 54840,
          "time": 95.20829524999999,
          "velocity": 0.3779527559055118
        },
        {
          "duration": 0.1527777166666624,
          "durationTicks": 88,
          "midi": 71,
          "name": "B4",
          "ticks": 54960,
          "time": 95.4166285,
          "velocity": 0.3779527559055118
        },
        {
          "duration": 0.20486102916666482,
          "durationTicks": 118,
          "midi": 71,
          "name": "B4",
          "ticks": 55080,
          "time": 95.62496175,
          "velocity": 0.3779527559055118
        },
        {
          "duration": 0.1527777166666624,
          "durationTicks": 88,
          "midi": 75,
          "name": "D#5",
          "ticks": 55320,
          "time": 96.04162825,
          "velocity": 0.3779527559055118
        },
        {
          "duration": 0.1527777166666766,
          "durationTicks": 88,
          "midi": 75,
          "name": "D#5",
          "ticks": 55440,
          "time": 96.2499615,
          "velocity": 0.3779527559055118
        },
        {
          "duration": 0.20486102916667903,
          "durationTicks": 118,
          "midi": 75,
          "name": "D#5",
          "ticks": 55560,
          "time": 96.45829475,
          "velocity": 0.3779527559055118
        },
        {
          "duration": 0.1527777166666766,
          "durationTicks": 88,
          "midi": 77,
          "name": "F5",
          "ticks": 55800,
          "time": 96.87496125,
          "velocity": 0.3779527559055118
        },
        {
          "duration": 0.1527777166666766,
          "durationTicks": 88,
          "midi": 77,
          "name": "F5",
          "ticks": 55920,
          "time": 97.0832945,
          "velocity": 0.3779527559055118
        },
        {
          "duration": 0.20486102916666482,
          "durationTicks": 118,
          "midi": 77,
          "name": "F5",
          "ticks": 56040,
          "time": 97.29162775,
          "velocity": 0.3779527559055118
        },
        {
          "duration": 0.1527777166666766,
          "durationTicks": 88,
          "midi": 77,
          "name": "F5",
          "ticks": 56280,
          "time": 97.70829425,
          "velocity": 0.3779527559055118
        },
        {
          "duration": 0.1527777166666624,
          "durationTicks": 88,
          "midi": 77,
          "name": "F5",
          "ticks": 56400,
          "time": 97.9166275,
          "velocity": 0.3779527559055118
        },
        {
          "duration": 0.20486102916666482,
          "durationTicks": 118,
          "midi": 77,
          "name": "F5",
          "ticks": 56520,
          "time": 98.12496075,
          "velocity": 0.3779527559055118
        },
        {
          "duration": 0.1527777166666624,
          "durationTicks": 88,
          "midi": 71,
          "name": "B4",
          "ticks": 56760,
          "time": 98.54162725,
          "velocity": 0.3779527559055118
        },
        {
          "duration": 0.1527777166666624,
          "durationTicks": 88,
          "midi": 71,
          "name": "B4",
          "ticks": 56880,
          "time": 98.7499605,
          "velocity": 0.3779527559055118
        },
        {
          "duration": 0.20486102916667903,
          "durationTicks": 118,
          "midi": 71,
          "name": "B4",
          "ticks": 57000,
          "time": 98.95829375,
          "velocity": 0.3779527559055118
        },
        {
          "duration": 0.1527777166666624,
          "durationTicks": 88,
          "midi": 68,
          "name": "G#4",
          "ticks": 57240,
          "time": 99.37496025,
          "velocity": 0.3779527559055118
        },
        {
          "duration": 0.1527777166666766,
          "durationTicks": 88,
          "midi": 68,
          "name": "G#4",
          "ticks": 57360,
          "time": 99.5832935,
          "velocity": 0.3779527559055118
        },
        {
          "duration": 0.20486102916667903,
          "durationTicks": 118,
          "midi": 68,
          "name": "G#4",
          "ticks": 57480,
          "time": 99.79162674999999,
          "velocity": 0.3779527559055118
        },
        {
          "duration": 0.1527777166666766,
          "durationTicks": 88,
          "midi": 69,
          "name": "A4",
          "ticks": 57720,
          "time": 100.20829325,
          "velocity": 0.3779527559055118
        },
        {
          "duration": 0.1527777166666766,
          "durationTicks": 88,
          "midi": 69,
          "name": "A4",
          "ticks": 57840,
          "time": 100.41662649999999,
          "velocity": 0.3779527559055118
        },
        {
          "duration": 0.20486102916666482,
          "durationTicks": 118,
          "midi": 69,
          "name": "A4",
          "ticks": 57960,
          "time": 100.62495975,
          "velocity": 0.3779527559055118
        },
        {
          "duration": 0.1527777166666766,
          "durationTicks": 88,
          "midi": 66,
          "name": "F#4",
          "ticks": 58200,
          "time": 101.04162625,
          "velocity": 0.3779527559055118
        },
        {
          "duration": 0.1527777166666624,
          "durationTicks": 88,
          "midi": 66,
          "name": "F#4",
          "ticks": 58320,
          "time": 101.2499595,
          "velocity": 0.3779527559055118
        },
        {
          "duration": 0.20486102916666482,
          "durationTicks": 118,
          "midi": 66,
          "name": "F#4",
          "ticks": 58440,
          "time": 101.45829275,
          "velocity": 0.3779527559055118
        },
        {
          "duration": 0.1527777166666624,
          "durationTicks": 88,
          "midi": 60,
          "name": "C4",
          "ticks": 58680,
          "time": 101.87495925,
          "velocity": 0.3779527559055118
        },
        {
          "duration": 0.1527777166666766,
          "durationTicks": 88,
          "midi": 60,
          "name": "C4",
          "ticks": 58800,
          "time": 102.0832925,
          "velocity": 0.3779527559055118
        },
        {
          "duration": 0.20486102916667903,
          "durationTicks": 118,
          "midi": 60,
          "name": "C4",
          "ticks": 58920,
          "time": 102.29162575,
          "velocity": 0.3779527559055118
        },
        {
          "duration": 0.1527777166666624,
          "durationTicks": 88,
          "midi": 57,
          "name": "A3",
          "ticks": 59160,
          "time": 102.70829225,
          "velocity": 0.3779527559055118
        },
        {
          "duration": 0.1527777166666766,
          "durationTicks": 88,
          "midi": 57,
          "name": "A3",
          "ticks": 59280,
          "time": 102.9166255,
          "velocity": 0.3779527559055118
        },
        {
          "duration": 0.20486102916666482,
          "durationTicks": 118,
          "midi": 57,
          "name": "A3",
          "ticks": 59400,
          "time": 103.12495875,
          "velocity": 0.3779527559055118
        },
        {
          "duration": 0.1527777166666766,
          "durationTicks": 88,
          "midi": 57,
          "name": "A3",
          "ticks": 59640,
          "time": 103.54162525,
          "velocity": 0.3779527559055118
        },
        {
          "duration": 0.1527777166666624,
          "durationTicks": 88,
          "midi": 57,
          "name": "A3",
          "ticks": 59760,
          "time": 103.7499585,
          "velocity": 0.3779527559055118
        },
        {
          "duration": 0.20486102916666482,
          "durationTicks": 118,
          "midi": 57,
          "name": "A3",
          "ticks": 59880,
          "time": 103.95829175,
          "velocity": 0.3779527559055118
        },
        {
          "duration": 0.1527777166666766,
          "durationTicks": 88,
          "midi": 55,
          "name": "G3",
          "ticks": 60120,
          "time": 104.37495824999999,
          "velocity": 0.3779527559055118
        },
        {
          "duration": 0.1527777166666624,
          "durationTicks": 88,
          "midi": 55,
          "name": "G3",
          "ticks": 60240,
          "time": 104.5832915,
          "velocity": 0.3779527559055118
        },
        {
          "duration": 0.20486102916666482,
          "durationTicks": 118,
          "midi": 55,
          "name": "G3",
          "ticks": 60360,
          "time": 104.79162475,
          "velocity": 0.3779527559055118
        },
        {
          "duration": 0.1527777166666624,
          "durationTicks": 88,
          "midi": 62,
          "name": "D4",
          "ticks": 60600,
          "time": 105.20829125,
          "velocity": 0.3779527559055118
        },
        {
          "duration": 0.1527777166666766,
          "durationTicks": 88,
          "midi": 62,
          "name": "D4",
          "ticks": 60720,
          "time": 105.4166245,
          "velocity": 0.3779527559055118
        },
        {
          "duration": 0.20486102916667903,
          "durationTicks": 118,
          "midi": 62,
          "name": "D4",
          "ticks": 60840,
          "time": 105.62495775,
          "velocity": 0.3779527559055118
        },
        {
          "duration": 0.1527777166666766,
          "durationTicks": 88,
          "midi": 60,
          "name": "C4",
          "ticks": 61080,
          "time": 106.04162425,
          "velocity": 0.3779527559055118
        },
        {
          "duration": 0.1527777166666766,
          "durationTicks": 88,
          "midi": 60,
          "name": "C4",
          "ticks": 61200,
          "time": 106.2499575,
          "velocity": 0.3779527559055118
        },
        {
          "duration": 0.20486102916666482,
          "durationTicks": 118,
          "midi": 60,
          "name": "C4",
          "ticks": 61320,
          "time": 106.45829075,
          "velocity": 0.3779527559055118
        },
        {
          "duration": 0.1527777166666766,
          "durationTicks": 88,
          "midi": 58,
          "name": "A#3",
          "ticks": 61560,
          "time": 106.87495725,
          "velocity": 0.3779527559055118
        },
        {
          "duration": 0.1527777166666624,
          "durationTicks": 88,
          "midi": 58,
          "name": "A#3",
          "ticks": 61680,
          "time": 107.0832905,
          "velocity": 0.3779527559055118
        },
        {
          "duration": 0.20486102916666482,
          "durationTicks": 118,
          "midi": 58,
          "name": "A#3",
          "ticks": 61800,
          "time": 107.29162375,
          "velocity": 0.3779527559055118
        },
        {
          "duration": 0.1527777166666624,
          "durationTicks": 88,
          "midi": 67,
          "name": "G4",
          "ticks": 62040,
          "time": 107.70829025,
          "velocity": 0.3779527559055118
        },
        {
          "duration": 0.1527777166666624,
          "durationTicks": 88,
          "midi": 67,
          "name": "G4",
          "ticks": 62160,
          "time": 107.9166235,
          "velocity": 0.3779527559055118
        },
        {
          "duration": 0.20486102916667903,
          "durationTicks": 118,
          "midi": 67,
          "name": "G4",
          "ticks": 62280,
          "time": 108.12495675,
          "velocity": 0.3779527559055118
        },
        {
          "duration": 0.1527777166666624,
          "durationTicks": 88,
          "midi": 70,
          "name": "A#4",
          "ticks": 62520,
          "time": 108.54162325,
          "velocity": 0.3779527559055118
        },
        {
          "duration": 0.1527777166666766,
          "durationTicks": 88,
          "midi": 70,
          "name": "A#4",
          "ticks": 62640,
          "time": 108.7499565,
          "velocity": 0.3779527559055118
        },
        {
          "duration": 0.20486102916666482,
          "durationTicks": 118,
          "midi": 70,
          "name": "A#4",
          "ticks": 62760,
          "time": 108.95828975,
          "velocity": 0.3779527559055118
        },
        {
          "duration": 0.1527777166666766,
          "durationTicks": 88,
          "midi": 74,
          "name": "D5",
          "ticks": 63000,
          "time": 109.37495625,
          "velocity": 0.3779527559055118
        },
        {
          "duration": 0.1527777166666766,
          "durationTicks": 88,
          "midi": 74,
          "name": "D5",
          "ticks": 63120,
          "time": 109.58328949999999,
          "velocity": 0.3779527559055118
        },
        {
          "duration": 0.20486102916666482,
          "durationTicks": 118,
          "midi": 74,
          "name": "D5",
          "ticks": 63240,
          "time": 109.79162275,
          "velocity": 0.3779527559055118
        },
        {
          "duration": 0.1527777166666766,
          "durationTicks": 88,
          "midi": 79,
          "name": "G5",
          "ticks": 63480,
          "time": 110.20828924999999,
          "velocity": 0.3779527559055118
        },
        {
          "duration": 0.1527777166666624,
          "durationTicks": 88,
          "midi": 79,
          "name": "G5",
          "ticks": 63600,
          "time": 110.4166225,
          "velocity": 0.3779527559055118
        },
        {
          "duration": 0.20486102916666482,
          "durationTicks": 118,
          "midi": 79,
          "name": "G5",
          "ticks": 63720,
          "time": 110.62495575,
          "velocity": 0.3779527559055118
        },
        {
          "duration": 0.1527777166666624,
          "durationTicks": 88,
          "midi": 76,
          "name": "E5",
          "ticks": 63960,
          "time": 111.04162225,
          "velocity": 0.3779527559055118
        },
        {
          "duration": 0.1527777166666766,
          "durationTicks": 88,
          "midi": 76,
          "name": "E5",
          "ticks": 64080,
          "time": 111.2499555,
          "velocity": 0.3779527559055118
        },
        {
          "duration": 0.20486102916667903,
          "durationTicks": 118,
          "midi": 76,
          "name": "E5",
          "ticks": 64200,
          "time": 111.45828875,
          "velocity": 0.3779527559055118
        },
        {
          "duration": 0.1527777166666624,
          "durationTicks": 88,
          "midi": 70,
          "name": "A#4",
          "ticks": 64440,
          "time": 111.87495525,
          "velocity": 0.3779527559055118
        },
        {
          "duration": 0.1527777166666766,
          "durationTicks": 88,
          "midi": 70,
          "name": "A#4",
          "ticks": 64560,
          "time": 112.0832885,
          "velocity": 0.3779527559055118
        },
        {
          "duration": 0.20486102916666482,
          "durationTicks": 118,
          "midi": 70,
          "name": "A#4",
          "ticks": 64680,
          "time": 112.29162175,
          "velocity": 0.3779527559055118
        },
        {
          "duration": 0.1527777166666766,
          "durationTicks": 88,
          "midi": 67,
          "name": "G4",
          "ticks": 64920,
          "time": 112.70828825,
          "velocity": 0.3779527559055118
        },
        {
          "duration": 0.1527777166666624,
          "durationTicks": 88,
          "midi": 67,
          "name": "G4",
          "ticks": 65040,
          "time": 112.9166215,
          "velocity": 0.3779527559055118
        },
        {
          "duration": 0.20486102916666482,
          "durationTicks": 118,
          "midi": 67,
          "name": "G4",
          "ticks": 65160,
          "time": 113.12495475,
          "velocity": 0.3779527559055118
        },
        {
          "duration": 0.1527777166666624,
          "durationTicks": 88,
          "midi": 65,
          "name": "F4",
          "ticks": 65400,
          "time": 113.54162125,
          "velocity": 0.3779527559055118
        },
        {
          "duration": 0.1527777166666624,
          "durationTicks": 88,
          "midi": 65,
          "name": "F4",
          "ticks": 65520,
          "time": 113.7499545,
          "velocity": 0.3779527559055118
        },
        {
          "duration": 0.20486102916666482,
          "durationTicks": 118,
          "midi": 65,
          "name": "F4",
          "ticks": 65640,
          "time": 113.95828775,
          "velocity": 0.3779527559055118
        },
        {
          "duration": 0.1527777166666624,
          "durationTicks": 88,
          "midi": 59,
          "name": "B3",
          "ticks": 65880,
          "time": 114.37495425,
          "velocity": 0.3779527559055118
        },
        {
          "duration": 0.1527777166666766,
          "durationTicks": 88,
          "midi": 59,
          "name": "B3",
          "ticks": 66000,
          "time": 114.5832875,
          "velocity": 0.3779527559055118
        },
        {
          "duration": 0.20486102916667903,
          "durationTicks": 118,
          "midi": 59,
          "name": "B3",
          "ticks": 66120,
          "time": 114.79162074999999,
          "velocity": 0.3779527559055118
        },
        {
          "duration": 0.1527777166666766,
          "durationTicks": 88,
          "midi": 57,
          "name": "A3",
          "ticks": 66360,
          "time": 115.20828725,
          "velocity": 0.3779527559055118
        },
        {
          "duration": 0.1527777166666766,
          "durationTicks": 88,
          "midi": 57,
          "name": "A3",
          "ticks": 66480,
          "time": 115.4166205,
          "velocity": 0.3779527559055118
        },
        {
          "duration": 0.20486102916666482,
          "durationTicks": 118,
          "midi": 57,
          "name": "A3",
          "ticks": 66600,
          "time": 115.62495375,
          "velocity": 0.3779527559055118
        },
        {
          "duration": 0.1527777166666766,
          "durationTicks": 88,
          "midi": 73,
          "name": "C#5",
          "ticks": 66840,
          "time": 116.04162025,
          "velocity": 0.3779527559055118
        },
        {
          "duration": 0.1527777166666624,
          "durationTicks": 88,
          "midi": 73,
          "name": "C#5",
          "ticks": 66960,
          "time": 116.2499535,
          "velocity": 0.3779527559055118
        },
        {
          "duration": 0.20486102916666482,
          "durationTicks": 118,
          "midi": 73,
          "name": "C#5",
          "ticks": 67080,
          "time": 116.45828675,
          "velocity": 0.3779527559055118
        },
        {
          "duration": 0.1527777166666624,
          "durationTicks": 88,
          "midi": 78,
          "name": "F#5",
          "ticks": 67320,
          "time": 116.87495325,
          "velocity": 0.3779527559055118
        },
        {
          "duration": 0.1527777166666624,
          "durationTicks": 88,
          "midi": 78,
          "name": "F#5",
          "ticks": 67440,
          "time": 117.0832865,
          "velocity": 0.3779527559055118
        },
        {
          "duration": 0.20486102916667903,
          "durationTicks": 118,
          "midi": 78,
          "name": "F#5",
          "ticks": 67560,
          "time": 117.29161975,
          "velocity": 0.3779527559055118
        },
        {
          "duration": 0.1527777166666624,
          "durationTicks": 88,
          "midi": 75,
          "name": "D#5",
          "ticks": 67800,
          "time": 117.70828625,
          "velocity": 0.3779527559055118
        },
        {
          "duration": 0.1527777166666766,
          "durationTicks": 88,
          "midi": 75,
          "name": "D#5",
          "ticks": 67920,
          "time": 117.9166195,
          "velocity": 0.3779527559055118
        },
        {
          "duration": 0.20486102916666482,
          "durationTicks": 118,
          "midi": 75,
          "name": "D#5",
          "ticks": 68040,
          "time": 118.12495275,
          "velocity": 0.3779527559055118
        },
        {
          "duration": 0.1527777166666766,
          "durationTicks": 88,
          "midi": 69,
          "name": "A4",
          "ticks": 68280,
          "time": 118.54161925,
          "velocity": 0.3779527559055118
        },
        {
          "duration": 0.1527777166666766,
          "durationTicks": 88,
          "midi": 69,
          "name": "A4",
          "ticks": 68400,
          "time": 118.74995249999999,
          "velocity": 0.3779527559055118
        },
        {
          "duration": 0.20486102916666482,
          "durationTicks": 118,
          "midi": 69,
          "name": "A4",
          "ticks": 68520,
          "time": 118.95828575,
          "velocity": 0.3779527559055118
        },
        {
          "duration": 0.1527777166666766,
          "durationTicks": 88,
          "midi": 66,
          "name": "F#4",
          "ticks": 68760,
          "time": 119.37495224999999,
          "velocity": 0.3779527559055118
        },
        {
          "duration": 0.1527777166666624,
          "durationTicks": 88,
          "midi": 66,
          "name": "F#4",
          "ticks": 68880,
          "time": 119.5832855,
          "velocity": 0.3779527559055118
        },
        {
          "duration": 0.20486102916666482,
          "durationTicks": 118,
          "midi": 66,
          "name": "F#4",
          "ticks": 69000,
          "time": 119.79161875,
          "velocity": 0.3779527559055118
        },
        {
          "duration": 0.1527777166666624,
          "durationTicks": 88,
          "midi": 67,
          "name": "G4",
          "ticks": 69240,
          "time": 120.20828525,
          "velocity": 0.3779527559055118
        },
        {
          "duration": 0.1527777166666766,
          "durationTicks": 88,
          "midi": 67,
          "name": "G4",
          "ticks": 69360,
          "time": 120.4166185,
          "velocity": 0.3779527559055118
        },
        {
          "duration": 0.20486102916667903,
          "durationTicks": 118,
          "midi": 67,
          "name": "G4",
          "ticks": 69480,
          "time": 120.62495175,
          "velocity": 0.3779527559055118
        },
        {
          "duration": 0.1527777166666624,
          "durationTicks": 88,
          "midi": 58,
          "name": "A#3",
          "ticks": 69720,
          "time": 121.04161825,
          "velocity": 0.3779527559055118
        },
        {
          "duration": 0.1527777166666766,
          "durationTicks": 88,
          "midi": 58,
          "name": "A#3",
          "ticks": 69840,
          "time": 121.2499515,
          "velocity": 0.3779527559055118
        },
        {
          "duration": 0.20486102916666482,
          "durationTicks": 118,
          "midi": 58,
          "name": "A#3",
          "ticks": 69960,
          "time": 121.45828475,
          "velocity": 0.3779527559055118
        },
        {
          "duration": 0.1527777166666766,
          "durationTicks": 88,
          "midi": 56,
          "name": "G#3",
          "ticks": 70200,
          "time": 121.87495125,
          "velocity": 0.3779527559055118
        },
        {
          "duration": 0.1527777166666624,
          "durationTicks": 88,
          "midi": 56,
          "name": "G#3",
          "ticks": 70320,
          "time": 122.0832845,
          "velocity": 0.3779527559055118
        },
        {
          "duration": 0.20486102916666482,
          "durationTicks": 118,
          "midi": 56,
          "name": "G#3",
          "ticks": 70440,
          "time": 122.29161775,
          "velocity": 0.3779527559055118
        },
        {
          "duration": 0.1527777166666624,
          "durationTicks": 88,
          "midi": 60,
          "name": "C4",
          "ticks": 70680,
          "time": 122.70828425,
          "velocity": 0.3779527559055118
        },
        {
          "duration": 0.1527777166666624,
          "durationTicks": 88,
          "midi": 60,
          "name": "C4",
          "ticks": 70800,
          "time": 122.9166175,
          "velocity": 0.3779527559055118
        },
        {
          "duration": 0.20486102916667903,
          "durationTicks": 118,
          "midi": 60,
          "name": "C4",
          "ticks": 70920,
          "time": 123.12495075,
          "velocity": 0.3779527559055118
        },
        {
          "duration": 0.1527777166666624,
          "durationTicks": 88,
          "midi": 60,
          "name": "C4",
          "ticks": 71160,
          "time": 123.54161725,
          "velocity": 0.3779527559055118
        },
        {
          "duration": 0.1527777166666766,
          "durationTicks": 88,
          "midi": 60,
          "name": "C4",
          "ticks": 71280,
          "time": 123.7499505,
          "velocity": 0.3779527559055118
        },
        {
          "duration": 0.20486102916667903,
          "durationTicks": 118,
          "midi": 60,
          "name": "C4",
          "ticks": 71400,
          "time": 123.95828374999999,
          "velocity": 0.3779527559055118
        },
        {
          "duration": 0.1527777166666766,
          "durationTicks": 88,
          "midi": 60,
          "name": "C4",
          "ticks": 71640,
          "time": 124.37495025,
          "velocity": 0.3779527559055118
        },
        {
          "duration": 0.1527777166666766,
          "durationTicks": 88,
          "midi": 60,
          "name": "C4",
          "ticks": 71760,
          "time": 124.5832835,
          "velocity": 0.3779527559055118
        },
        {
          "duration": 0.20486102916666482,
          "durationTicks": 118,
          "midi": 60,
          "name": "C4",
          "ticks": 71880,
          "time": 124.79161675,
          "velocity": 0.3779527559055118
        },
        {
          "duration": 0.1527777166666766,
          "durationTicks": 88,
          "midi": 60,
          "name": "C4",
          "ticks": 72120,
          "time": 125.20828325,
          "velocity": 0.3779527559055118
        },
        {
          "duration": 0.1527777166666624,
          "durationTicks": 88,
          "midi": 60,
          "name": "C4",
          "ticks": 72240,
          "time": 125.4166165,
          "velocity": 0.3779527559055118
        },
        {
          "duration": 0.20486102916666482,
          "durationTicks": 118,
          "midi": 60,
          "name": "C4",
          "ticks": 72360,
          "time": 125.62494975,
          "velocity": 0.3779527559055118
        },
        {
          "duration": 0.1527777166666624,
          "durationTicks": 88,
          "midi": 58,
          "name": "A#3",
          "ticks": 72600,
          "time": 126.04161625,
          "velocity": 0.3779527559055118
        },
        {
          "duration": 0.1527777166666624,
          "durationTicks": 88,
          "midi": 58,
          "name": "A#3",
          "ticks": 72720,
          "time": 126.2499495,
          "velocity": 0.3779527559055118
        },
        {
          "duration": 0.20486102916667903,
          "durationTicks": 118,
          "midi": 58,
          "name": "A#3",
          "ticks": 72840,
          "time": 126.45828275,
          "velocity": 0.3779527559055118
        },
        {
          "duration": 0.1527777166666624,
          "durationTicks": 88,
          "midi": 57,
          "name": "A3",
          "ticks": 73080,
          "time": 126.87494925,
          "velocity": 0.3779527559055118
        },
        {
          "duration": 0.1527777166666766,
          "durationTicks": 88,
          "midi": 57,
          "name": "A3",
          "ticks": 73200,
          "time": 127.0832825,
          "velocity": 0.3779527559055118
        },
        {
          "duration": 0.20486102916666482,
          "durationTicks": 118,
          "midi": 57,
          "name": "A3",
          "ticks": 73320,
          "time": 127.29161575,
          "velocity": 0.3779527559055118
        },
        {
          "duration": 0.1527777166666766,
          "durationTicks": 88,
          "midi": 57,
          "name": "A3",
          "ticks": 73560,
          "time": 127.70828225,
          "velocity": 0.3779527559055118
        },
        {
          "duration": 0.1527777166666766,
          "durationTicks": 88,
          "midi": 57,
          "name": "A3",
          "ticks": 73680,
          "time": 127.91661549999999,
          "velocity": 0.3779527559055118
        },
        {
          "duration": 0.20486102916669324,
          "durationTicks": 118,
          "midi": 57,
          "name": "A3",
          "ticks": 73800,
          "time": 128.12494875,
          "velocity": 0.3779527559055118
        },
        {
          "duration": 0.1527777166666624,
          "durationTicks": 88,
          "midi": 57,
          "name": "A3",
          "ticks": 74040,
          "time": 128.54161525,
          "velocity": 0.3779527559055118
        },
        {
          "duration": 0.15277771666669082,
          "durationTicks": 88,
          "midi": 57,
          "name": "A3",
          "ticks": 74160,
          "time": 128.7499485,
          "velocity": 0.3779527559055118
        },
        {
          "duration": 0.20486102916666482,
          "durationTicks": 118,
          "midi": 57,
          "name": "A3",
          "ticks": 74280,
          "time": 128.95828175,
          "velocity": 0.3779527559055118
        },
        {
          "duration": 0.15277771666669082,
          "durationTicks": 88,
          "midi": 57,
          "name": "A3",
          "ticks": 74520,
          "time": 129.37494825,
          "velocity": 0.3779527559055118
        },
        {
          "duration": 0.1527777166666624,
          "durationTicks": 88,
          "midi": 57,
          "name": "A3",
          "ticks": 74640,
          "time": 129.5832815,
          "velocity": 0.3779527559055118
        },
        {
          "duration": 0.1527777166666624,
          "durationTicks": 88,
          "midi": 57,
          "name": "A3",
          "ticks": 74760,
          "time": 129.79161475,
          "velocity": 0.3779527559055118
        },
        {
          "duration": 0.8298607791666655,
          "durationTicks": 478,
          "midi": 57,
          "name": "A3",
          "ticks": 74880,
          "time": 129.999948,
          "velocity": 0.3779527559055118
        },
        {
          "duration": 1.327777445833334,
          "durationTicks": 478,
          "midi": 55,
          "name": "G3",
          "ticks": 75840,
          "time": 133.233281,
          "velocity": 0.3779527559055118
        }
      ]
    },
    {
      "channel": 0,
      "controlChanges": {},
      "pitchBends": [],
      "instrument": {
        "family": "piano",
        "number": 0,
        "name": "acoustic grand piano"
      },
      "name": "Viola",
      "notes": [],
      "endOfTrackTicks": 76800
    },
    {
      "channel": 6,
      "controlChanges": {
        "7": [
          {
            "number": 7,
            "ticks": 0,
            "time": 0,
            "value": 0.7559055118110236
          }
        ],
        "10": [
          {
            "number": 10,
            "ticks": 0,
            "time": 0,
            "value": 0.5511811023622047
          }
        ],
        "11": [
          {
            "number": 11,
            "ticks": 0,
            "time": 0,
            "value": 1
          }
        ]
      },
      "pitchBends": [],
      "instrument": {
        "family": "ensemble",
        "number": 48,
        "name": "string ensemble 1"
      },
      "name": "",
      "notes": [
        {
          "duration": 0.10069440416666667,
          "durationTicks": 58,
          "midi": 57,
          "name": "A3",
          "ticks": 0,
          "time": 0,
          "velocity": 0.5669291338582677
        },
        {
          "duration": 0.10069440416666665,
          "durationTicks": 58,
          "midi": 59,
          "name": "B3",
          "ticks": 60,
          "time": 0.104166625,
          "velocity": 0.5669291338582677
        },
        {
          "duration": 0.1527777166666667,
          "durationTicks": 88,
          "midi": 60,
          "name": "C4",
          "ticks": 120,
          "time": 0.20833325,
          "velocity": 0.5669291338582677
        },
        {
          "duration": 0.1006944041666667,
          "durationTicks": 58,
          "midi": 60,
          "name": "C4",
          "ticks": 240,
          "time": 0.4166665,
          "velocity": 0.5669291338582677
        },
        {
          "duration": 0.10069440416666675,
          "durationTicks": 58,
          "midi": 60,
          "name": "C4",
          "ticks": 360,
          "time": 0.62499975,
          "velocity": 0.5669291338582677
        },
        {
          "duration": 0.10069440416666664,
          "durationTicks": 58,
          "midi": 60,
          "name": "C4",
          "ticks": 480,
          "time": 0.833333,
          "velocity": 0.5669291338582677
        },
        {
          "duration": 0.10069440416666675,
          "durationTicks": 58,
          "midi": 59,
          "name": "B3",
          "ticks": 540,
          "time": 0.937499625,
          "velocity": 0.5669291338582677
        },
        {
          "duration": 0.15277771666666662,
          "durationTicks": 88,
          "midi": 57,
          "name": "A3",
          "ticks": 600,
          "time": 1.04166625,
          "velocity": 0.5669291338582677
        },
        {
          "duration": 0.10069440416666664,
          "durationTicks": 58,
          "midi": 57,
          "name": "A3",
          "ticks": 720,
          "time": 1.2499995,
          "velocity": 0.5669291338582677
        },
        {
          "duration": 0.10069440416666664,
          "durationTicks": 58,
          "midi": 57,
          "name": "A3",
          "ticks": 840,
          "time": 1.45833275,
          "velocity": 0.5669291338582677
        },
        {
          "duration": 0.10069440416666642,
          "durationTicks": 58,
          "midi": 57,
          "name": "A3",
          "ticks": 960,
          "time": 1.666666,
          "velocity": 0.5669291338582677
        },
        {
          "duration": 0.10069440416666664,
          "durationTicks": 58,
          "midi": 59,
          "name": "B3",
          "ticks": 1020,
          "time": 1.770832625,
          "velocity": 0.5669291338582677
        },
        {
          "duration": 0.15277771666666662,
          "durationTicks": 88,
          "midi": 60,
          "name": "C4",
          "ticks": 1080,
          "time": 1.87499925,
          "velocity": 0.5669291338582677
        },
        {
          "duration": 0.10069440416666664,
          "durationTicks": 58,
          "midi": 60,
          "name": "C4",
          "ticks": 1200,
          "time": 2.0833325,
          "velocity": 0.5669291338582677
        },
        {
          "duration": 0.10069440416666664,
          "durationTicks": 58,
          "midi": 60,
          "name": "C4",
          "ticks": 1320,
          "time": 2.29166575,
          "velocity": 0.5669291338582677
        },
        {
          "duration": 0.10069440416666664,
          "durationTicks": 58,
          "midi": 60,
          "name": "C4",
          "ticks": 1440,
          "time": 2.499999,
          "velocity": 0.5669291338582677
        },
        {
          "duration": 0.10069440416666664,
          "durationTicks": 58,
          "midi": 59,
          "name": "B3",
          "ticks": 1500,
          "time": 2.604165625,
          "velocity": 0.5669291338582677
        },
        {
          "duration": 0.15277771666666684,
          "durationTicks": 88,
          "midi": 57,
          "name": "A3",
          "ticks": 1560,
          "time": 2.7083322499999998,
          "velocity": 0.5669291338582677
        },
        {
          "duration": 0.1006944041666662,
          "durationTicks": 58,
          "midi": 57,
          "name": "A3",
          "ticks": 1680,
          "time": 2.9166655,
          "velocity": 0.5669291338582677
        },
        {
          "duration": 0.1006944041666662,
          "durationTicks": 58,
          "midi": 57,
          "name": "A3",
          "ticks": 1800,
          "time": 3.12499875,
          "velocity": 0.5669291338582677
        },
        {
          "duration": 0.10069440416666708,
          "durationTicks": 58,
          "midi": 59,
          "name": "B3",
          "ticks": 1920,
          "time": 3.333332,
          "velocity": 0.5669291338582677
        },
        {
          "duration": 0.10069440416666708,
          "durationTicks": 58,
          "midi": 60,
          "name": "C4",
          "ticks": 1980,
          "time": 3.437498625,
          "velocity": 0.5669291338582677
        },
        {
          "duration": 0.15277771666666684,
          "durationTicks": 88,
          "midi": 62,
          "name": "D4",
          "ticks": 2040,
          "time": 3.54166525,
          "velocity": 0.5669291338582677
        },
        {
          "duration": 0.10069440416666708,
          "durationTicks": 58,
          "midi": 62,
          "name": "D4",
          "ticks": 2160,
          "time": 3.7499985,
          "velocity": 0.5669291338582677
        },
        {
          "duration": 0.10069440416666708,
          "durationTicks": 58,
          "midi": 62,
          "name": "D4",
          "ticks": 2280,
          "time": 3.95833175,
          "velocity": 0.5669291338582677
        },
        {
          "duration": 0.10069440416666708,
          "durationTicks": 58,
          "midi": 62,
          "name": "D4",
          "ticks": 2400,
          "time": 4.166665,
          "velocity": 0.5669291338582677
        },
        {
          "duration": 0.10069440416666708,
          "durationTicks": 58,
          "midi": 60,
          "name": "C4",
          "ticks": 2460,
          "time": 4.270831625,
          "velocity": 0.5669291338582677
        },
        {
          "duration": 0.15277771666666684,
          "durationTicks": 88,
          "midi": 59,
          "name": "B3",
          "ticks": 2520,
          "time": 4.37499825,
          "velocity": 0.5669291338582677
        },
        {
          "duration": 0.10069440416666708,
          "durationTicks": 58,
          "midi": 59,
          "name": "B3",
          "ticks": 2640,
          "time": 4.5833315,
          "velocity": 0.5669291338582677
        },
        {
          "duration": 0.10069440416666708,
          "durationTicks": 58,
          "midi": 59,
          "name": "B3",
          "ticks": 2760,
          "time": 4.79166475,
          "velocity": 0.5669291338582677
        },
        {
          "duration": 0.10069440416666708,
          "durationTicks": 58,
          "midi": 59,
          "name": "B3",
          "ticks": 2880,
          "time": 4.999998,
          "velocity": 0.5669291338582677
        },
        {
          "duration": 0.10069440416666708,
          "durationTicks": 58,
          "midi": 60,
          "name": "C4",
          "ticks": 2940,
          "time": 5.104164625,
          "velocity": 0.5669291338582677
        },
        {
          "duration": 0.15277771666666684,
          "durationTicks": 88,
          "midi": 62,
          "name": "D4",
          "ticks": 3000,
          "time": 5.20833125,
          "velocity": 0.5669291338582677
        },
        {
          "duration": 0.10069440416666708,
          "durationTicks": 58,
          "midi": 62,
          "name": "D4",
          "ticks": 3120,
          "time": 5.4166644999999995,
          "velocity": 0.5669291338582677
        },
        {
          "duration": 0.1006944041666662,
          "durationTicks": 58,
          "midi": 62,
          "name": "D4",
          "ticks": 3240,
          "time": 5.62499775,
          "velocity": 0.5669291338582677
        },
        {
          "duration": 0.1006944041666662,
          "durationTicks": 58,
          "midi": 62,
          "name": "D4",
          "ticks": 3360,
          "time": 5.833331,
          "velocity": 0.5669291338582677
        },
        {
          "duration": 0.10069440416666708,
          "durationTicks": 58,
          "midi": 60,
          "name": "C4",
          "ticks": 3420,
          "time": 5.937497625,
          "velocity": 0.5669291338582677
        },
        {
          "duration": 0.15277771666666684,
          "durationTicks": 88,
          "midi": 59,
          "name": "B3",
          "ticks": 3480,
          "time": 6.04166425,
          "velocity": 0.5669291338582677
        },
        {
          "duration": 0.10069440416666708,
          "durationTicks": 58,
          "midi": 59,
          "name": "B3",
          "ticks": 3600,
          "time": 6.2499975,
          "velocity": 0.5669291338582677
        },
        {
          "duration": 0.10069440416666708,
          "durationTicks": 58,
          "midi": 59,
          "name": "B3",
          "ticks": 3720,
          "time": 6.45833075,
          "velocity": 0.5669291338582677
        },
        {
          "duration": 0.10069440416666708,
          "durationTicks": 58,
          "midi": 60,
          "name": "C4",
          "ticks": 3840,
          "time": 6.666664,
          "velocity": 0.5669291338582677
        },
        {
          "duration": 0.1006944041666662,
          "durationTicks": 58,
          "midi": 62,
          "name": "D4",
          "ticks": 3900,
          "time": 6.770830625,
          "velocity": 0.5669291338582677
        },
        {
          "duration": 0.15277771666666684,
          "durationTicks": 88,
          "midi": 64,
          "name": "E4",
          "ticks": 3960,
          "time": 6.87499725,
          "velocity": 0.5669291338582677
        },
        {
          "duration": 0.10069440416666708,
          "durationTicks": 58,
          "midi": 64,
          "name": "E4",
          "ticks": 4080,
          "time": 7.0833305,
          "velocity": 0.5669291338582677
        },
        {
          "duration": 0.10069440416666708,
          "durationTicks": 58,
          "midi": 64,
          "name": "E4",
          "ticks": 4200,
          "time": 7.29166375,
          "velocity": 0.5669291338582677
        },
        {
          "duration": 0.10069440416666708,
          "durationTicks": 58,
          "midi": 64,
          "name": "E4",
          "ticks": 4320,
          "time": 7.499997,
          "velocity": 0.5669291338582677
        },
        {
          "duration": 0.10069440416666708,
          "durationTicks": 58,
          "midi": 62,
          "name": "D4",
          "ticks": 4380,
          "time": 7.604163625,
          "velocity": 0.5669291338582677
        },
        {
          "duration": 0.15277771666666684,
          "durationTicks": 88,
          "midi": 60,
          "name": "C4",
          "ticks": 4440,
          "time": 7.7083302499999995,
          "velocity": 0.5669291338582677
        },
        {
          "duration": 0.10069440416666708,
          "durationTicks": 58,
          "midi": 60,
          "name": "C4",
          "ticks": 4560,
          "time": 7.9166635,
          "velocity": 0.5669291338582677
        },
        {
          "duration": 0.10069440416666708,
          "durationTicks": 58,
          "midi": 60,
          "name": "C4",
          "ticks": 4680,
          "time": 8.12499675,
          "velocity": 0.5669291338582677
        },
        {
          "duration": 0.10069440416666708,
          "durationTicks": 58,
          "midi": 60,
          "name": "C4",
          "ticks": 4800,
          "time": 8.33333,
          "velocity": 0.5669291338582677
        },
        {
          "duration": 0.10069440416666708,
          "durationTicks": 58,
          "midi": 62,
          "name": "D4",
          "ticks": 4860,
          "time": 8.437496625,
          "velocity": 0.5669291338582677
        },
        {
          "duration": 0.15277771666666773,
          "durationTicks": 88,
          "midi": 64,
          "name": "E4",
          "ticks": 4920,
          "time": 8.54166325,
          "velocity": 0.5669291338582677
        },
        {
          "duration": 0.10069440416666708,
          "durationTicks": 58,
          "midi": 64,
          "name": "E4",
          "ticks": 5040,
          "time": 8.7499965,
          "velocity": 0.5669291338582677
        },
        {
          "duration": 0.10069440416666531,
          "durationTicks": 58,
          "midi": 64,
          "name": "E4",
          "ticks": 5160,
          "time": 8.95832975,
          "velocity": 0.5669291338582677
        },
        {
          "duration": 0.10069440416666708,
          "durationTicks": 58,
          "midi": 64,
          "name": "E4",
          "ticks": 5280,
          "time": 9.166663,
          "velocity": 0.5669291338582677
        },
        {
          "duration": 0.10069440416666708,
          "durationTicks": 58,
          "midi": 62,
          "name": "D4",
          "ticks": 5340,
          "time": 9.270829625,
          "velocity": 0.5669291338582677
        },
        {
          "duration": 0.15277771666666595,
          "durationTicks": 88,
          "midi": 60,
          "name": "C4",
          "ticks": 5400,
          "time": 9.37499625,
          "velocity": 0.5669291338582677
        },
        {
          "duration": 0.10069440416666708,
          "durationTicks": 58,
          "midi": 60,
          "name": "C4",
          "ticks": 5520,
          "time": 9.5833295,
          "velocity": 0.5669291338582677
        },
        {
          "duration": 0.10069440416666708,
          "durationTicks": 58,
          "midi": 60,
          "name": "C4",
          "ticks": 5640,
          "time": 9.79166275,
          "velocity": 0.5669291338582677
        },
        {
          "duration": 0.10069440416666708,
          "durationTicks": 58,
          "midi": 50,
          "name": "D3",
          "ticks": 5760,
          "time": 9.999996,
          "velocity": 0.5669291338582677
        },
        {
          "duration": 0.10069440416666531,
          "durationTicks": 58,
          "midi": 52,
          "name": "E3",
          "ticks": 5820,
          "time": 10.104162625,
          "velocity": 0.5669291338582677
        },
        {
          "duration": 0.15277771666666595,
          "durationTicks": 88,
          "midi": 53,
          "name": "F3",
          "ticks": 5880,
          "time": 10.20832925,
          "velocity": 0.5669291338582677
        },
        {
          "duration": 0.10069440416666708,
          "durationTicks": 58,
          "midi": 53,
          "name": "F3",
          "ticks": 6000,
          "time": 10.4166625,
          "velocity": 0.5669291338582677
        },
        {
          "duration": 0.10069440416666708,
          "durationTicks": 58,
          "midi": 53,
          "name": "F3",
          "ticks": 6120,
          "time": 10.62499575,
          "velocity": 0.5669291338582677
        },
        {
          "duration": 0.10069440416666708,
          "durationTicks": 58,
          "midi": 53,
          "name": "F3",
          "ticks": 6240,
          "time": 10.833328999999999,
          "velocity": 0.5669291338582677
        },
        {
          "duration": 0.10069440416666708,
          "durationTicks": 58,
          "midi": 52,
          "name": "E3",
          "ticks": 6300,
          "time": 10.937495625,
          "velocity": 0.5669291338582677
        },
        {
          "duration": 0.15277771666666595,
          "durationTicks": 88,
          "midi": 50,
          "name": "D3",
          "ticks": 6360,
          "time": 11.04166225,
          "velocity": 0.5669291338582677
        },
        {
          "duration": 0.10069440416666531,
          "durationTicks": 58,
          "midi": 50,
          "name": "D3",
          "ticks": 6480,
          "time": 11.2499955,
          "velocity": 0.5669291338582677
        },
        {
          "duration": 0.10069440416666708,
          "durationTicks": 58,
          "midi": 50,
          "name": "D3",
          "ticks": 6600,
          "time": 11.45832875,
          "velocity": 0.5669291338582677
        },
        {
          "duration": 0.10069440416666708,
          "durationTicks": 58,
          "midi": 50,
          "name": "D3",
          "ticks": 6720,
          "time": 11.666662,
          "velocity": 0.5669291338582677
        },
        {
          "duration": 0.10069440416666708,
          "durationTicks": 58,
          "midi": 52,
          "name": "E3",
          "ticks": 6780,
          "time": 11.770828625,
          "velocity": 0.5669291338582677
        },
        {
          "duration": 0.15277771666666773,
          "durationTicks": 88,
          "midi": 53,
          "name": "F3",
          "ticks": 6840,
          "time": 11.87499525,
          "velocity": 0.5669291338582677
        },
        {
          "duration": 0.10069440416666708,
          "durationTicks": 58,
          "midi": 53,
          "name": "F3",
          "ticks": 6960,
          "time": 12.0833285,
          "velocity": 0.5669291338582677
        },
        {
          "duration": 0.10069440416666708,
          "durationTicks": 58,
          "midi": 53,
          "name": "F3",
          "ticks": 7080,
          "time": 12.29166175,
          "velocity": 0.5669291338582677
        },
        {
          "duration": 0.10069440416666708,
          "durationTicks": 58,
          "midi": 53,
          "name": "F3",
          "ticks": 7200,
          "time": 12.499995,
          "velocity": 0.5669291338582677
        },
        {
          "duration": 0.10069440416666708,
          "durationTicks": 58,
          "midi": 52,
          "name": "E3",
          "ticks": 7260,
          "time": 12.604161625,
          "velocity": 0.5669291338582677
        },
        {
          "duration": 0.15277771666666773,
          "durationTicks": 88,
          "midi": 50,
          "name": "D3",
          "ticks": 7320,
          "time": 12.70832825,
          "velocity": 0.5669291338582677
        },
        {
          "duration": 0.10069440416666708,
          "durationTicks": 58,
          "midi": 50,
          "name": "D3",
          "ticks": 7440,
          "time": 12.9166615,
          "velocity": 0.5669291338582677
        },
        {
          "duration": 0.10069440416666708,
          "durationTicks": 58,
          "midi": 50,
          "name": "D3",
          "ticks": 7560,
          "time": 13.124994749999999,
          "velocity": 0.5669291338582677
        },
        {
          "duration": 0.10069440416666708,
          "durationTicks": 58,
          "midi": 52,
          "name": "E3",
          "ticks": 7680,
          "time": 13.333328,
          "velocity": 0.5669291338582677
        },
        {
          "duration": 0.10069440416666708,
          "durationTicks": 58,
          "midi": 56,
          "name": "G#3",
          "ticks": 7740,
          "time": 13.437494625,
          "velocity": 0.5669291338582677
        },
        {
          "duration": 0.15277771666666595,
          "durationTicks": 88,
          "midi": 59,
          "name": "B3",
          "ticks": 7800,
          "time": 13.54166125,
          "velocity": 0.5669291338582677
        },
        {
          "duration": 0.10069440416666708,
          "durationTicks": 58,
          "midi": 59,
          "name": "B3",
          "ticks": 7920,
          "time": 13.7499945,
          "velocity": 0.5669291338582677
        },
        {
          "duration": 0.10069440416666708,
          "durationTicks": 58,
          "midi": 59,
          "name": "B3",
          "ticks": 8040,
          "time": 13.95832775,
          "velocity": 0.5669291338582677
        },
        {
          "duration": 0.10069440416666708,
          "durationTicks": 58,
          "midi": 59,
          "name": "B3",
          "ticks": 8160,
          "time": 14.166661,
          "velocity": 0.5669291338582677
        },
        {
          "duration": 0.10069440416666708,
          "durationTicks": 58,
          "midi": 56,
          "name": "G#3",
          "ticks": 8220,
          "time": 14.270827624999999,
          "velocity": 0.5669291338582677
        },
        {
          "duration": 0.15277771666666595,
          "durationTicks": 88,
          "midi": 52,
          "name": "E3",
          "ticks": 8280,
          "time": 14.37499425,
          "velocity": 0.5669291338582677
        },
        {
          "duration": 0.10069440416666708,
          "durationTicks": 58,
          "midi": 52,
          "name": "E3",
          "ticks": 8400,
          "time": 14.5833275,
          "velocity": 0.5669291338582677
        },
        {
          "duration": 0.10069440416666708,
          "durationTicks": 58,
          "midi": 52,
          "name": "E3",
          "ticks": 8520,
          "time": 14.79166075,
          "velocity": 0.5669291338582677
        },
        {
          "duration": 0.10069440416666708,
          "durationTicks": 58,
          "midi": 52,
          "name": "E3",
          "ticks": 8640,
          "time": 14.999994,
          "velocity": 0.5669291338582677
        },
        {
          "duration": 0.10069440416666708,
          "durationTicks": 58,
          "midi": 57,
          "name": "A3",
          "ticks": 8700,
          "time": 15.104160625,
          "velocity": 0.5669291338582677
        },
        {
          "duration": 0.15277771666666595,
          "durationTicks": 88,
          "midi": 60,
          "name": "C4",
          "ticks": 8760,
          "time": 15.20832725,
          "velocity": 0.5669291338582677
        },
        {
          "duration": 0.10069440416666708,
          "durationTicks": 58,
          "midi": 60,
          "name": "C4",
          "ticks": 8880,
          "time": 15.416660499999999,
          "velocity": 0.5669291338582677
        },
        {
          "duration": 0.10069440416666708,
          "durationTicks": 58,
          "midi": 60,
          "name": "C4",
          "ticks": 9000,
          "time": 15.62499375,
          "velocity": 0.5669291338582677
        },
        {
          "duration": 0.10069440416666531,
          "durationTicks": 58,
          "midi": 60,
          "name": "C4",
          "ticks": 9120,
          "time": 15.833327,
          "velocity": 0.5669291338582677
        },
        {
          "duration": 0.10069440416666531,
          "durationTicks": 58,
          "midi": 57,
          "name": "A3",
          "ticks": 9180,
          "time": 15.937493625,
          "velocity": 0.5669291338582677
        },
        {
          "duration": 0.15277771666666595,
          "durationTicks": 88,
          "midi": 52,
          "name": "E3",
          "ticks": 9240,
          "time": 16.04166025,
          "velocity": 0.5669291338582677
        },
        {
          "duration": 0.10069440416666708,
          "durationTicks": 58,
          "midi": 52,
          "name": "E3",
          "ticks": 9360,
          "time": 16.2499935,
          "velocity": 0.5669291338582677
        },
        {
          "duration": 0.10069440416666708,
          "durationTicks": 58,
          "midi": 52,
          "name": "E3",
          "ticks": 9480,
          "time": 16.45832675,
          "velocity": 0.5669291338582677
        },
        {
          "duration": 0.361110966666665,
          "durationTicks": 208,
          "midi": 56,
          "name": "G#3",
          "ticks": 9600,
          "time": 16.66666,
          "velocity": 0.5669291338582677
        },
        {
          "duration": 0.4131942791666674,
          "durationTicks": 238,
          "midi": 64,
          "name": "E4",
          "ticks": 9840,
          "time": 17.0833265,
          "velocity": 0.5669291338582677
        },
        {
          "duration": 0.41319427916666385,
          "durationTicks": 238,
          "midi": 52,
          "name": "E3",
          "ticks": 10320,
          "time": 17.9166595,
          "velocity": 0.3779527559055118
        },
        {
          "duration": 0.41319427916666385,
          "durationTicks": 238,
          "midi": 51,
          "name": "D#3",
          "ticks": 10800,
          "time": 18.7499925,
          "velocity": 0.3779527559055118
        },
        {
          "duration": 0.361110966666665,
          "durationTicks": 208,
          "midi": 50,
          "name": "D3",
          "ticks": 11280,
          "time": 19.5833255,
          "velocity": 0.3779527559055118
        },
        {
          "duration": 0.829860779166669,
          "durationTicks": 478,
          "midi": 48,
          "name": "C3",
          "ticks": 11520,
          "time": 19.999992,
          "velocity": 0.3779527559055118
        },
        {
          "duration": 0.10069440416666353,
          "durationTicks": 58,
          "midi": 48,
          "name": "C3",
          "ticks": 18240,
          "time": 31.666654,
          "velocity": 0.5669291338582677
        },
        {
          "duration": 0.10069440416666353,
          "durationTicks": 58,
          "midi": 50,
          "name": "D3",
          "ticks": 18300,
          "time": 31.770820625,
          "velocity": 0.5669291338582677
        },
        {
          "duration": 0.15277771666666595,
          "durationTicks": 88,
          "midi": 52,
          "name": "E3",
          "ticks": 18360,
          "time": 31.87498725,
          "velocity": 0.5669291338582677
        },
        {
          "duration": 0.10069440416666708,
          "durationTicks": 58,
          "midi": 52,
          "name": "E3",
          "ticks": 18480,
          "time": 32.0833205,
          "velocity": 0.5669291338582677
        },
        {
          "duration": 0.10069440416665998,
          "durationTicks": 58,
          "midi": 52,
          "name": "E3",
          "ticks": 18600,
          "time": 32.29165375,
          "velocity": 0.5669291338582677
        },
        {
          "duration": 0.10069440416666708,
          "durationTicks": 58,
          "midi": 51,
          "name": "D#3",
          "ticks": 18720,
          "time": 32.499987,
          "velocity": 0.5669291338582677
        },
        {
          "duration": 0.10069440416665998,
          "durationTicks": 58,
          "midi": 50,
          "name": "D3",
          "ticks": 18780,
          "time": 32.604153625,
          "velocity": 0.5669291338582677
        },
        {
          "duration": 0.1527777166666624,
          "durationTicks": 88,
          "midi": 48,
          "name": "C3",
          "ticks": 18840,
          "time": 32.70832025,
          "velocity": 0.5669291338582677
        },
        {
          "duration": 0.10069440416665998,
          "durationTicks": 58,
          "midi": 48,
          "name": "C3",
          "ticks": 18960,
          "time": 32.9166535,
          "velocity": 0.5669291338582677
        },
        {
          "duration": 0.10069440416666708,
          "durationTicks": 58,
          "midi": 48,
          "name": "C3",
          "ticks": 19080,
          "time": 33.12498675,
          "velocity": 0.5669291338582677
        },
        {
          "duration": 0.10069440416665998,
          "durationTicks": 58,
          "midi": 55,
          "name": "G3",
          "ticks": 19200,
          "time": 33.33332,
          "velocity": 0.5669291338582677
        },
        {
          "duration": 0.10069440416666708,
          "durationTicks": 58,
          "midi": 57,
          "name": "A3",
          "ticks": 19260,
          "time": 33.437486625,
          "velocity": 0.5669291338582677
        },
        {
          "duration": 0.1527777166666624,
          "durationTicks": 88,
          "midi": 59,
          "name": "B3",
          "ticks": 19320,
          "time": 33.54165325,
          "velocity": 0.5669291338582677
        },
        {
          "duration": 0.10069440416666708,
          "durationTicks": 58,
          "midi": 59,
          "name": "B3",
          "ticks": 19440,
          "time": 33.7499865,
          "velocity": 0.5669291338582677
        },
        {
          "duration": 0.10069440416665998,
          "durationTicks": 58,
          "midi": 59,
          "name": "B3",
          "ticks": 19560,
          "time": 33.95831975,
          "velocity": 0.5669291338582677
        },
        {
          "duration": 0.10069440416666708,
          "durationTicks": 58,
          "midi": 58,
          "name": "A#3",
          "ticks": 19680,
          "time": 34.166653,
          "velocity": 0.5669291338582677
        },
        {
          "duration": 0.10069440416665998,
          "durationTicks": 58,
          "midi": 57,
          "name": "A3",
          "ticks": 19740,
          "time": 34.270819625,
          "velocity": 0.5669291338582677
        },
        {
          "duration": 0.1527777166666624,
          "durationTicks": 88,
          "midi": 55,
          "name": "G3",
          "ticks": 19800,
          "time": 34.37498625,
          "velocity": 0.5669291338582677
        },
        {
          "duration": 0.10069440416665998,
          "durationTicks": 58,
          "midi": 55,
          "name": "G3",
          "ticks": 19920,
          "time": 34.5833195,
          "velocity": 0.5669291338582677
        },
        {
          "duration": 0.10069440416666708,
          "durationTicks": 58,
          "midi": 55,
          "name": "G3",
          "ticks": 20040,
          "time": 34.79165275,
          "velocity": 0.5669291338582677
        },
        {
          "duration": 0.10069440416666708,
          "durationTicks": 58,
          "midi": 50,
          "name": "D3",
          "ticks": 20160,
          "time": 34.999986,
          "velocity": 0.5669291338582677
        },
        {
          "duration": 0.10069440416666708,
          "durationTicks": 58,
          "midi": 52,
          "name": "E3",
          "ticks": 20220,
          "time": 35.104152625,
          "velocity": 0.5669291338582677
        },
        {
          "duration": 0.1527777166666624,
          "durationTicks": 88,
          "midi": 54,
          "name": "F#3",
          "ticks": 20280,
          "time": 35.20831925,
          "velocity": 0.5669291338582677
        },
        {
          "duration": 0.10069440416666708,
          "durationTicks": 58,
          "midi": 54,
          "name": "F#3",
          "ticks": 20400,
          "time": 35.4166525,
          "velocity": 0.5669291338582677
        },
        {
          "duration": 0.10069440416665998,
          "durationTicks": 58,
          "midi": 54,
          "name": "F#3",
          "ticks": 20520,
          "time": 35.62498575,
          "velocity": 0.5669291338582677
        },
        {
          "duration": 0.10069440416665998,
          "durationTicks": 58,
          "midi": 53,
          "name": "F3",
          "ticks": 20640,
          "time": 35.833319,
          "velocity": 0.5669291338582677
        },
        {
          "duration": 0.10069440416665998,
          "durationTicks": 58,
          "midi": 52,
          "name": "E3",
          "ticks": 20700,
          "time": 35.937485625,
          "velocity": 0.5669291338582677
        },
        {
          "duration": 0.1527777166666624,
          "durationTicks": 88,
          "midi": 50,
          "name": "D3",
          "ticks": 20760,
          "time": 36.04165225,
          "velocity": 0.5669291338582677
        },
        {
          "duration": 0.10069440416665998,
          "durationTicks": 58,
          "midi": 50,
          "name": "D3",
          "ticks": 20880,
          "time": 36.2499855,
          "velocity": 0.5669291338582677
        },
        {
          "duration": 0.10069440416666708,
          "durationTicks": 58,
          "midi": 50,
          "name": "D3",
          "ticks": 21000,
          "time": 36.45831875,
          "velocity": 0.5669291338582677
        },
        {
          "duration": 0.10069440416666708,
          "durationTicks": 58,
          "midi": 57,
          "name": "A3",
          "ticks": 21120,
          "time": 36.666652,
          "velocity": 0.5669291338582677
        },
        {
          "duration": 0.10069440416666708,
          "durationTicks": 58,
          "midi": 59,
          "name": "B3",
          "ticks": 21180,
          "time": 36.770818625,
          "velocity": 0.5669291338582677
        },
        {
          "duration": 0.1527777166666624,
          "durationTicks": 88,
          "midi": 61,
          "name": "C#4",
          "ticks": 21240,
          "time": 36.87498525,
          "velocity": 0.5669291338582677
        },
        {
          "duration": 0.10069440416666708,
          "durationTicks": 58,
          "midi": 61,
          "name": "C#4",
          "ticks": 21360,
          "time": 37.0833185,
          "velocity": 0.5669291338582677
        },
        {
          "duration": 0.10069440416666708,
          "durationTicks": 58,
          "midi": 61,
          "name": "C#4",
          "ticks": 21480,
          "time": 37.29165175,
          "velocity": 0.5669291338582677
        },
        {
          "duration": 0.10069440416665998,
          "durationTicks": 58,
          "midi": 60,
          "name": "C4",
          "ticks": 21600,
          "time": 37.499985,
          "velocity": 0.5669291338582677
        },
        {
          "duration": 0.10069440416665998,
          "durationTicks": 58,
          "midi": 59,
          "name": "B3",
          "ticks": 21660,
          "time": 37.604151625,
          "velocity": 0.5669291338582677
        },
        {
          "duration": 0.1527777166666624,
          "durationTicks": 88,
          "midi": 57,
          "name": "A3",
          "ticks": 21720,
          "time": 37.70831825,
          "velocity": 0.5669291338582677
        },
        {
          "duration": 0.10069440416665998,
          "durationTicks": 58,
          "midi": 57,
          "name": "A3",
          "ticks": 21840,
          "time": 37.9166515,
          "velocity": 0.5669291338582677
        },
        {
          "duration": 0.10069440416665998,
          "durationTicks": 58,
          "midi": 57,
          "name": "A3",
          "ticks": 21960,
          "time": 38.12498475,
          "velocity": 0.5669291338582677
        },
        {
          "duration": 0.10069440416666708,
          "durationTicks": 58,
          "midi": 52,
          "name": "E3",
          "ticks": 22080,
          "time": 38.333318,
          "velocity": 0.5669291338582677
        },
        {
          "duration": 0.10069440416666708,
          "durationTicks": 58,
          "midi": 54,
          "name": "F#3",
          "ticks": 22140,
          "time": 38.437484624999996,
          "velocity": 0.5669291338582677
        },
        {
          "duration": 0.1527777166666624,
          "durationTicks": 88,
          "midi": 56,
          "name": "G#3",
          "ticks": 22200,
          "time": 38.54165125,
          "velocity": 0.5669291338582677
        },
        {
          "duration": 0.10069440416666708,
          "durationTicks": 58,
          "midi": 56,
          "name": "G#3",
          "ticks": 22320,
          "time": 38.7499845,
          "velocity": 0.5669291338582677
        },
        {
          "duration": 0.10069440416666708,
          "durationTicks": 58,
          "midi": 56,
          "name": "G#3",
          "ticks": 22440,
          "time": 38.95831775,
          "velocity": 0.5669291338582677
        },
        {
          "duration": 0.10069440416665998,
          "durationTicks": 58,
          "midi": 55,
          "name": "G3",
          "ticks": 22560,
          "time": 39.166651,
          "velocity": 0.5669291338582677
        },
        {
          "duration": 0.10069440416666708,
          "durationTicks": 58,
          "midi": 54,
          "name": "F#3",
          "ticks": 22620,
          "time": 39.270817625,
          "velocity": 0.5669291338582677
        },
        {
          "duration": 0.1527777166666695,
          "durationTicks": 88,
          "midi": 52,
          "name": "E3",
          "ticks": 22680,
          "time": 39.37498425,
          "velocity": 0.5669291338582677
        },
        {
          "duration": 0.10069440416666708,
          "durationTicks": 58,
          "midi": 52,
          "name": "E3",
          "ticks": 22800,
          "time": 39.5833175,
          "velocity": 0.5669291338582677
        },
        {
          "duration": 0.10069440416665998,
          "durationTicks": 58,
          "midi": 52,
          "name": "E3",
          "ticks": 22920,
          "time": 39.79165075,
          "velocity": 0.5669291338582677
        },
        {
          "duration": 0.10069440416666708,
          "durationTicks": 58,
          "midi": 57,
          "name": "A3",
          "ticks": 23040,
          "time": 39.999984,
          "velocity": 0.5669291338582677
        },
        {
          "duration": 0.10069440416665998,
          "durationTicks": 58,
          "midi": 59,
          "name": "B3",
          "ticks": 23100,
          "time": 40.104150625,
          "velocity": 0.5669291338582677
        },
        {
          "duration": 0.1527777166666624,
          "durationTicks": 88,
          "midi": 60,
          "name": "C4",
          "ticks": 23160,
          "time": 40.20831725,
          "velocity": 0.5669291338582677
        },
        {
          "duration": 0.10069440416665998,
          "durationTicks": 58,
          "midi": 60,
          "name": "C4",
          "ticks": 23280,
          "time": 40.4166505,
          "velocity": 0.5669291338582677
        },
        {
          "duration": 0.10069440416666708,
          "durationTicks": 58,
          "midi": 60,
          "name": "C4",
          "ticks": 23400,
          "time": 40.62498375,
          "velocity": 0.5669291338582677
        },
        {
          "duration": 0.10069440416665998,
          "durationTicks": 58,
          "midi": 59,
          "name": "B3",
          "ticks": 23520,
          "time": 40.833317,
          "velocity": 0.5669291338582677
        },
        {
          "duration": 0.10069440416666708,
          "durationTicks": 58,
          "midi": 60,
          "name": "C4",
          "ticks": 23580,
          "time": 40.937483625,
          "velocity": 0.5669291338582677
        },
        {
          "duration": 0.1527777166666695,
          "durationTicks": 88,
          "midi": 62,
          "name": "D4",
          "ticks": 23640,
          "time": 41.041650249999996,
          "velocity": 0.5669291338582677
        },
        {
          "duration": 0.10069440416666708,
          "durationTicks": 58,
          "midi": 62,
          "name": "D4",
          "ticks": 23760,
          "time": 41.2499835,
          "velocity": 0.5669291338582677
        },
        {
          "duration": 0.10069440416665998,
          "durationTicks": 58,
          "midi": 62,
          "name": "D4",
          "ticks": 23880,
          "time": 41.45831675,
          "velocity": 0.5669291338582677
        },
        {
          "duration": 0.10069440416666708,
          "durationTicks": 58,
          "midi": 60,
          "name": "C4",
          "ticks": 24000,
          "time": 41.66665,
          "velocity": 0.5669291338582677
        },
        {
          "duration": 0.10069440416665998,
          "durationTicks": 58,
          "midi": 62,
          "name": "D4",
          "ticks": 24060,
          "time": 41.770816625,
          "velocity": 0.5669291338582677
        },
        {
          "duration": 0.1527777166666624,
          "durationTicks": 88,
          "midi": 64,
          "name": "E4",
          "ticks": 24120,
          "time": 41.87498325,
          "velocity": 0.5669291338582677
        },
        {
          "duration": 0.10069440416665998,
          "durationTicks": 58,
          "midi": 64,
          "name": "E4",
          "ticks": 24240,
          "time": 42.0833165,
          "velocity": 0.5669291338582677
        },
        {
          "duration": 0.10069440416666708,
          "durationTicks": 58,
          "midi": 64,
          "name": "E4",
          "ticks": 24360,
          "time": 42.29164975,
          "velocity": 0.5669291338582677
        },
        {
          "duration": 0.10069440416665998,
          "durationTicks": 58,
          "midi": 52,
          "name": "E3",
          "ticks": 24480,
          "time": 42.499983,
          "velocity": 0.5669291338582677
        },
        {
          "duration": 0.10069440416666708,
          "durationTicks": 58,
          "midi": 53,
          "name": "F3",
          "ticks": 24540,
          "time": 42.604149625,
          "velocity": 0.5669291338582677
        },
        {
          "duration": 0.1527777166666624,
          "durationTicks": 88,
          "midi": 55,
          "name": "G3",
          "ticks": 24600,
          "time": 42.70831625,
          "velocity": 0.5669291338582677
        },
        {
          "duration": 0.10069440416666708,
          "durationTicks": 58,
          "midi": 55,
          "name": "G3",
          "ticks": 24720,
          "time": 42.9166495,
          "velocity": 0.5669291338582677
        },
        {
          "duration": 0.10069440416665998,
          "durationTicks": 58,
          "midi": 55,
          "name": "G3",
          "ticks": 24840,
          "time": 43.12498275,
          "velocity": 0.5669291338582677
        },
        {
          "duration": 0.10069440416666708,
          "durationTicks": 58,
          "midi": 54,
          "name": "F#3",
          "ticks": 24960,
          "time": 43.333315999999996,
          "velocity": 0.5669291338582677
        },
        {
          "duration": 0.10069440416665998,
          "durationTicks": 58,
          "midi": 55,
          "name": "G3",
          "ticks": 25020,
          "time": 43.437482625,
          "velocity": 0.5669291338582677
        },
        {
          "duration": 0.1527777166666624,
          "durationTicks": 88,
          "midi": 57,
          "name": "A3",
          "ticks": 25080,
          "time": 43.54164925,
          "velocity": 0.5669291338582677
        },
        {
          "duration": 0.10069440416665998,
          "durationTicks": 58,
          "midi": 57,
          "name": "A3",
          "ticks": 25200,
          "time": 43.7499825,
          "velocity": 0.5669291338582677
        },
        {
          "duration": 0.10069440416666708,
          "durationTicks": 58,
          "midi": 57,
          "name": "A3",
          "ticks": 25320,
          "time": 43.95831575,
          "velocity": 0.5669291338582677
        },
        {
          "duration": 0.10069440416666708,
          "durationTicks": 58,
          "midi": 56,
          "name": "G#3",
          "ticks": 25440,
          "time": 44.166649,
          "velocity": 0.5669291338582677
        },
        {
          "duration": 0.10069440416666708,
          "durationTicks": 58,
          "midi": 57,
          "name": "A3",
          "ticks": 25500,
          "time": 44.270815625,
          "velocity": 0.5669291338582677
        },
        {
          "duration": 0.1527777166666624,
          "durationTicks": 88,
          "midi": 59,
          "name": "B3",
          "ticks": 25560,
          "time": 44.37498225,
          "velocity": 0.5669291338582677
        },
        {
          "duration": 0.10069440416666708,
          "durationTicks": 58,
          "midi": 59,
          "name": "B3",
          "ticks": 25680,
          "time": 44.5833155,
          "velocity": 0.5669291338582677
        },
        {
          "duration": 0.10069440416665998,
          "durationTicks": 58,
          "midi": 59,
          "name": "B3",
          "ticks": 25800,
          "time": 44.79164875,
          "velocity": 0.5669291338582677
        },
        {
          "duration": 0.10069440416665998,
          "durationTicks": 58,
          "midi": 57,
          "name": "A3",
          "ticks": 25920,
          "time": 44.999982,
          "velocity": 0.5669291338582677
        },
        {
          "duration": 0.10069440416665998,
          "durationTicks": 58,
          "midi": 59,
          "name": "B3",
          "ticks": 25980,
          "time": 45.104148625,
          "velocity": 0.5669291338582677
        },
        {
          "duration": 0.1527777166666624,
          "durationTicks": 88,
          "midi": 60,
          "name": "C4",
          "ticks": 26040,
          "time": 45.20831525,
          "velocity": 0.5669291338582677
        },
        {
          "duration": 0.10069440416665998,
          "durationTicks": 58,
          "midi": 60,
          "name": "C4",
          "ticks": 26160,
          "time": 45.4166485,
          "velocity": 0.5669291338582677
        },
        {
          "duration": 0.10069440416666708,
          "durationTicks": 58,
          "midi": 60,
          "name": "C4",
          "ticks": 26280,
          "time": 45.624981749999996,
          "velocity": 0.5669291338582677
        },
        {
          "duration": 0.10069440416666708,
          "durationTicks": 58,
          "midi": 55,
          "name": "G3",
          "ticks": 26400,
          "time": 45.833315,
          "velocity": 0.5669291338582677
        },
        {
          "duration": 0.10069440416666708,
          "durationTicks": 58,
          "midi": 57,
          "name": "A3",
          "ticks": 26460,
          "time": 45.937481625,
          "velocity": 0.5669291338582677
        },
        {
          "duration": 0.1527777166666624,
          "durationTicks": 88,
          "midi": 58,
          "name": "A#3",
          "ticks": 26520,
          "time": 46.04164825,
          "velocity": 0.5669291338582677
        },
        {
          "duration": 0.10069440416666708,
          "durationTicks": 58,
          "midi": 58,
          "name": "A#3",
          "ticks": 26640,
          "time": 46.2499815,
          "velocity": 0.5669291338582677
        },
        {
          "duration": 0.10069440416666708,
          "durationTicks": 58,
          "midi": 58,
          "name": "A#3",
          "ticks": 26760,
          "time": 46.45831475,
          "velocity": 0.5669291338582677
        },
        {
          "duration": 0.10069440416665998,
          "durationTicks": 58,
          "midi": 54,
          "name": "F#3",
          "ticks": 26880,
          "time": 46.666648,
          "velocity": 0.5669291338582677
        },
        {
          "duration": 0.10069440416665998,
          "durationTicks": 58,
          "midi": 55,
          "name": "G3",
          "ticks": 26940,
          "time": 46.770814625,
          "velocity": 0.5669291338582677
        },
        {
          "duration": 0.1527777166666624,
          "durationTicks": 88,
          "midi": 57,
          "name": "A3",
          "ticks": 27000,
          "time": 46.87498125,
          "velocity": 0.5669291338582677
        },
        {
          "duration": 0.10069440416665998,
          "durationTicks": 58,
          "midi": 57,
          "name": "A3",
          "ticks": 27120,
          "time": 47.0833145,
          "velocity": 0.5669291338582677
        },
        {
          "duration": 0.10069440416665998,
          "durationTicks": 58,
          "midi": 57,
          "name": "A3",
          "ticks": 27240,
          "time": 47.29164775,
          "velocity": 0.5669291338582677
        },
        {
          "duration": 0.10069440416666708,
          "durationTicks": 58,
          "midi": 57,
          "name": "A3",
          "ticks": 27360,
          "time": 47.499981,
          "velocity": 0.5669291338582677
        },
        {
          "duration": 0.10069440416666708,
          "durationTicks": 58,
          "midi": 55,
          "name": "G3",
          "ticks": 27420,
          "time": 47.604147624999996,
          "velocity": 0.5669291338582677
        },
        {
          "duration": 0.1527777166666624,
          "durationTicks": 88,
          "midi": 54,
          "name": "F#3",
          "ticks": 27480,
          "time": 47.70831425,
          "velocity": 0.5669291338582677
        },
        {
          "duration": 0.10069440416666708,
          "durationTicks": 58,
          "midi": 54,
          "name": "F#3",
          "ticks": 27600,
          "time": 47.916647499999996,
          "velocity": 0.5669291338582677
        },
        {
          "duration": 0.10069440416666708,
          "durationTicks": 58,
          "midi": 54,
          "name": "F#3",
          "ticks": 27720,
          "time": 48.12498075,
          "velocity": 0.5669291338582677
        },
        {
          "duration": 0.10069440416665998,
          "durationTicks": 58,
          "midi": 53,
          "name": "F3",
          "ticks": 27840,
          "time": 48.333314,
          "velocity": 0.5669291338582677
        },
        {
          "duration": 0.10069440416666708,
          "durationTicks": 58,
          "midi": 55,
          "name": "G3",
          "ticks": 27900,
          "time": 48.437480625,
          "velocity": 0.5669291338582677
        },
        {
          "duration": 0.1527777166666695,
          "durationTicks": 88,
          "midi": 57,
          "name": "A3",
          "ticks": 27960,
          "time": 48.54164725,
          "velocity": 0.5669291338582677
        },
        {
          "duration": 0.10069440416666708,
          "durationTicks": 58,
          "midi": 57,
          "name": "A3",
          "ticks": 28080,
          "time": 48.7499805,
          "velocity": 0.5669291338582677
        },
        {
          "duration": 0.10069440416665998,
          "durationTicks": 58,
          "midi": 57,
          "name": "A3",
          "ticks": 28200,
          "time": 48.95831375,
          "velocity": 0.5669291338582677
        },
        {
          "duration": 0.10069440416666708,
          "durationTicks": 58,
          "midi": 57,
          "name": "A3",
          "ticks": 28320,
          "time": 49.166647,
          "velocity": 0.5669291338582677
        },
        {
          "duration": 0.10069440416665998,
          "durationTicks": 58,
          "midi": 55,
          "name": "G3",
          "ticks": 28380,
          "time": 49.270813625,
          "velocity": 0.5669291338582677
        },
        {
          "duration": 0.1527777166666624,
          "durationTicks": 88,
          "midi": 53,
          "name": "F3",
          "ticks": 28440,
          "time": 49.37498025,
          "velocity": 0.5669291338582677
        },
        {
          "duration": 0.10069440416665998,
          "durationTicks": 58,
          "midi": 53,
          "name": "F3",
          "ticks": 28560,
          "time": 49.5833135,
          "velocity": 0.5669291338582677
        },
        {
          "duration": 0.10069440416666708,
          "durationTicks": 58,
          "midi": 53,
          "name": "F3",
          "ticks": 28680,
          "time": 49.79164675,
          "velocity": 0.5669291338582677
        },
        {
          "duration": 0.361110966666665,
          "durationTicks": 208,
          "midi": 52,
          "name": "E3",
          "ticks": 28800,
          "time": 49.99998,
          "velocity": 0.5669291338582677
        },
        {
          "duration": 0.4131942791666674,
          "durationTicks": 238,
          "midi": 64,
          "name": "E4",
          "ticks": 29040,
          "time": 50.4166465,
          "velocity": 0.5669291338582677
        },
        {
          "duration": 0.4131942791666603,
          "durationTicks": 238,
          "midi": 62,
          "name": "D4",
          "ticks": 29520,
          "time": 51.2499795,
          "velocity": 0.3779527559055118
        },
        {
          "duration": 0.4131942791666674,
          "durationTicks": 238,
          "midi": 60,
          "name": "C4",
          "ticks": 30000,
          "time": 52.0833125,
          "velocity": 0.3779527559055118
        },
        {
          "duration": 0.361110966666665,
          "durationTicks": 208,
          "midi": 59,
          "name": "B3",
          "ticks": 30480,
          "time": 52.9166455,
          "velocity": 0.3779527559055118
        },
        {
          "duration": 0.8298607791666726,
          "durationTicks": 478,
          "midi": 57,
          "name": "A3",
          "ticks": 30720,
          "time": 53.333312,
          "velocity": 0.3779527559055118
        },
        {
          "duration": 0.1527777166666624,
          "durationTicks": 88,
          "midi": 60,
          "name": "C4",
          "ticks": 46200,
          "time": 80.20830125,
          "velocity": 0.3779527559055118
        },
        {
          "duration": 0.1527777166666624,
          "durationTicks": 88,
          "midi": 60,
          "name": "C4",
          "ticks": 46320,
          "time": 80.4166345,
          "velocity": 0.3779527559055118
        },
        {
          "duration": 0.20486102916667903,
          "durationTicks": 118,
          "midi": 60,
          "name": "C4",
          "ticks": 46440,
          "time": 80.62496775,
          "velocity": 0.3779527559055118
        },
        {
          "duration": 0.1527777166666624,
          "durationTicks": 88,
          "midi": 64,
          "name": "E4",
          "ticks": 46680,
          "time": 81.04163425,
          "velocity": 0.3779527559055118
        },
        {
          "duration": 0.1527777166666766,
          "durationTicks": 88,
          "midi": 64,
          "name": "E4",
          "ticks": 46800,
          "time": 81.2499675,
          "velocity": 0.3779527559055118
        },
        {
          "duration": 0.20486102916667903,
          "durationTicks": 118,
          "midi": 64,
          "name": "E4",
          "ticks": 46920,
          "time": 81.45830074999999,
          "velocity": 0.3779527559055118
        },
        {
          "duration": 0.1527777166666766,
          "durationTicks": 88,
          "midi": 69,
          "name": "A4",
          "ticks": 47160,
          "time": 81.87496725,
          "velocity": 0.3779527559055118
        },
        {
          "duration": 0.1527777166666766,
          "durationTicks": 88,
          "midi": 69,
          "name": "A4",
          "ticks": 47280,
          "time": 82.08330049999999,
          "velocity": 0.3779527559055118
        },
        {
          "duration": 0.20486102916666482,
          "durationTicks": 118,
          "midi": 69,
          "name": "A4",
          "ticks": 47400,
          "time": 82.29163375,
          "velocity": 0.3779527559055118
        },
        {
          "duration": 0.1527777166666766,
          "durationTicks": 88,
          "midi": 72,
          "name": "C5",
          "ticks": 47640,
          "time": 82.70830025,
          "velocity": 0.3779527559055118
        },
        {
          "duration": 0.1527777166666624,
          "durationTicks": 88,
          "midi": 72,
          "name": "C5",
          "ticks": 47760,
          "time": 82.9166335,
          "velocity": 0.3779527559055118
        },
        {
          "duration": 0.20486102916666482,
          "durationTicks": 118,
          "midi": 72,
          "name": "C5",
          "ticks": 47880,
          "time": 83.12496675,
          "velocity": 0.3779527559055118
        },
        {
          "duration": 0.1527777166666624,
          "durationTicks": 88,
          "midi": 69,
          "name": "A4",
          "ticks": 48120,
          "time": 83.54163325,
          "velocity": 0.3779527559055118
        },
        {
          "duration": 0.1527777166666766,
          "durationTicks": 88,
          "midi": 69,
          "name": "A4",
          "ticks": 48240,
          "time": 83.7499665,
          "velocity": 0.3779527559055118
        },
        {
          "duration": 0.20486102916667903,
          "durationTicks": 118,
          "midi": 69,
          "name": "A4",
          "ticks": 48360,
          "time": 83.95829975,
          "velocity": 0.3779527559055118
        },
        {
          "duration": 0.1527777166666624,
          "durationTicks": 88,
          "midi": 72,
          "name": "C5",
          "ticks": 48600,
          "time": 84.37496625,
          "velocity": 0.3779527559055118
        },
        {
          "duration": 0.1527777166666766,
          "durationTicks": 88,
          "midi": 72,
          "name": "C5",
          "ticks": 48720,
          "time": 84.5832995,
          "velocity": 0.3779527559055118
        },
        {
          "duration": 0.20486102916666482,
          "durationTicks": 118,
          "midi": 72,
          "name": "C5",
          "ticks": 48840,
          "time": 84.79163275,
          "velocity": 0.3779527559055118
        },
        {
          "duration": 0.1527777166666766,
          "durationTicks": 88,
          "midi": 69,
          "name": "A4",
          "ticks": 49080,
          "time": 85.20829925,
          "velocity": 0.3779527559055118
        },
        {
          "duration": 0.1527777166666624,
          "durationTicks": 88,
          "midi": 69,
          "name": "A4",
          "ticks": 49200,
          "time": 85.4166325,
          "velocity": 0.3779527559055118
        },
        {
          "duration": 0.20486102916666482,
          "durationTicks": 118,
          "midi": 69,
          "name": "A4",
          "ticks": 49320,
          "time": 85.62496575,
          "velocity": 0.3779527559055118
        },
        {
          "duration": 0.1527777166666766,
          "durationTicks": 88,
          "midi": 66,
          "name": "F#4",
          "ticks": 49560,
          "time": 86.04163224999999,
          "velocity": 0.3779527559055118
        },
        {
          "duration": 0.1527777166666624,
          "durationTicks": 88,
          "midi": 66,
          "name": "F#4",
          "ticks": 49680,
          "time": 86.2499655,
          "velocity": 0.3779527559055118
        },
        {
          "duration": 0.20486102916666482,
          "durationTicks": 118,
          "midi": 66,
          "name": "F#4",
          "ticks": 49800,
          "time": 86.45829875,
          "velocity": 0.3779527559055118
        },
        {
          "duration": 0.1527777166666624,
          "durationTicks": 88,
          "midi": 63,
          "name": "D#4",
          "ticks": 50040,
          "time": 86.87496525,
          "velocity": 0.3779527559055118
        },
        {
          "duration": 0.1527777166666766,
          "durationTicks": 88,
          "midi": 63,
          "name": "D#4",
          "ticks": 50160,
          "time": 87.0832985,
          "velocity": 0.3779527559055118
        },
        {
          "duration": 0.20486102916667903,
          "durationTicks": 118,
          "midi": 63,
          "name": "D#4",
          "ticks": 50280,
          "time": 87.29163175,
          "velocity": 0.3779527559055118
        },
        {
          "duration": 0.1527777166666766,
          "durationTicks": 88,
          "midi": 61,
          "name": "C#4",
          "ticks": 50520,
          "time": 87.70829825,
          "velocity": 0.3779527559055118
        },
        {
          "duration": 0.1527777166666766,
          "durationTicks": 88,
          "midi": 61,
          "name": "C#4",
          "ticks": 50640,
          "time": 87.9166315,
          "velocity": 0.3779527559055118
        },
        {
          "duration": 0.20486102916666482,
          "durationTicks": 118,
          "midi": 61,
          "name": "C#4",
          "ticks": 50760,
          "time": 88.12496475,
          "velocity": 0.3779527559055118
        },
        {
          "duration": 0.1527777166666766,
          "durationTicks": 88,
          "midi": 58,
          "name": "A#3",
          "ticks": 51000,
          "time": 88.54163125,
          "velocity": 0.3779527559055118
        },
        {
          "duration": 0.1527777166666624,
          "durationTicks": 88,
          "midi": 58,
          "name": "A#3",
          "ticks": 51120,
          "time": 88.7499645,
          "velocity": 0.3779527559055118
        },
        {
          "duration": 0.20486102916666482,
          "durationTicks": 118,
          "midi": 58,
          "name": "A#3",
          "ticks": 51240,
          "time": 88.95829775,
          "velocity": 0.3779527559055118
        },
        {
          "duration": 0.1527777166666624,
          "durationTicks": 88,
          "midi": 55,
          "name": "G3",
          "ticks": 51480,
          "time": 89.37496425,
          "velocity": 0.3779527559055118
        },
        {
          "duration": 0.1527777166666624,
          "durationTicks": 88,
          "midi": 55,
          "name": "G3",
          "ticks": 51600,
          "time": 89.5832975,
          "velocity": 0.3779527559055118
        },
        {
          "duration": 0.20486102916667903,
          "durationTicks": 118,
          "midi": 55,
          "name": "G3",
          "ticks": 51720,
          "time": 89.79163075,
          "velocity": 0.3779527559055118
        },
        {
          "duration": 0.1527777166666624,
          "durationTicks": 88,
          "midi": 51,
          "name": "D#3",
          "ticks": 51960,
          "time": 90.20829725,
          "velocity": 0.3779527559055118
        },
        {
          "duration": 0.1527777166666766,
          "durationTicks": 88,
          "midi": 51,
          "name": "D#3",
          "ticks": 52080,
          "time": 90.4166305,
          "velocity": 0.3779527559055118
        },
        {
          "duration": 0.20486102916667903,
          "durationTicks": 118,
          "midi": 51,
          "name": "D#3",
          "ticks": 52200,
          "time": 90.62496374999999,
          "velocity": 0.3779527559055118
        },
        {
          "duration": 0.1527777166666766,
          "durationTicks": 88,
          "midi": 51,
          "name": "D#3",
          "ticks": 52440,
          "time": 91.04163025,
          "velocity": 0.3779527559055118
        },
        {
          "duration": 0.1527777166666766,
          "durationTicks": 88,
          "midi": 51,
          "name": "D#3",
          "ticks": 52560,
          "time": 91.24996349999999,
          "velocity": 0.3779527559055118
        },
        {
          "duration": 0.20486102916666482,
          "durationTicks": 118,
          "midi": 51,
          "name": "D#3",
          "ticks": 52680,
          "time": 91.45829675,
          "velocity": 0.3779527559055118
        },
        {
          "duration": 0.1527777166666766,
          "durationTicks": 88,
          "midi": 51,
          "name": "D#3",
          "ticks": 52920,
          "time": 91.87496325,
          "velocity": 0.3779527559055118
        },
        {
          "duration": 0.1527777166666624,
          "durationTicks": 88,
          "midi": 51,
          "name": "D#3",
          "ticks": 53040,
          "time": 92.0832965,
          "velocity": 0.3779527559055118
        },
        {
          "duration": 0.20486102916666482,
          "durationTicks": 118,
          "midi": 51,
          "name": "D#3",
          "ticks": 53160,
          "time": 92.29162975,
          "velocity": 0.3779527559055118
        },
        {
          "duration": 0.1527777166666624,
          "durationTicks": 88,
          "midi": 51,
          "name": "D#3",
          "ticks": 53400,
          "time": 92.70829625,
          "velocity": 0.3779527559055118
        },
        {
          "duration": 0.1527777166666766,
          "durationTicks": 88,
          "midi": 51,
          "name": "D#3",
          "ticks": 53520,
          "time": 92.9166295,
          "velocity": 0.3779527559055118
        },
        {
          "duration": 0.1527777166666766,
          "durationTicks": 88,
          "midi": 51,
          "name": "D#3",
          "ticks": 53640,
          "time": 93.12496275,
          "velocity": 0.3779527559055118
        },
        {
          "duration": 0.1527777166666624,
          "durationTicks": 88,
          "midi": 51,
          "name": "D#3",
          "ticks": 53760,
          "time": 93.333296,
          "velocity": 0.3779527559055118
        },
        {
          "duration": 0.1527777166666624,
          "durationTicks": 88,
          "midi": 59,
          "name": "B3",
          "ticks": 53880,
          "time": 93.54162925,
          "velocity": 0.3779527559055118
        },
        {
          "duration": 0.1527777166666766,
          "durationTicks": 88,
          "midi": 59,
          "name": "B3",
          "ticks": 54000,
          "time": 93.7499625,
          "velocity": 0.3779527559055118
        },
        {
          "duration": 0.20486102916666482,
          "durationTicks": 118,
          "midi": 59,
          "name": "B3",
          "ticks": 54120,
          "time": 93.95829575,
          "velocity": 0.3779527559055118
        },
        {
          "duration": 0.1527777166666766,
          "durationTicks": 88,
          "midi": 63,
          "name": "D#4",
          "ticks": 54360,
          "time": 94.37496225,
          "velocity": 0.3779527559055118
        },
        {
          "duration": 0.1527777166666624,
          "durationTicks": 88,
          "midi": 63,
          "name": "D#4",
          "ticks": 54480,
          "time": 94.5832955,
          "velocity": 0.3779527559055118
        },
        {
          "duration": 0.20486102916666482,
          "durationTicks": 118,
          "midi": 63,
          "name": "D#4",
          "ticks": 54600,
          "time": 94.79162875,
          "velocity": 0.3779527559055118
        },
        {
          "duration": 0.1527777166666766,
          "durationTicks": 88,
          "midi": 68,
          "name": "G#4",
          "ticks": 54840,
          "time": 95.20829524999999,
          "velocity": 0.3779527559055118
        },
        {
          "duration": 0.1527777166666624,
          "durationTicks": 88,
          "midi": 68,
          "name": "G#4",
          "ticks": 54960,
          "time": 95.4166285,
          "velocity": 0.3779527559055118
        },
        {
          "duration": 0.20486102916666482,
          "durationTicks": 118,
          "midi": 68,
          "name": "G#4",
          "ticks": 55080,
          "time": 95.62496175,
          "velocity": 0.3779527559055118
        },
        {
          "duration": 0.1527777166666624,
          "durationTicks": 88,
          "midi": 71,
          "name": "B4",
          "ticks": 55320,
          "time": 96.04162825,
          "velocity": 0.3779527559055118
        },
        {
          "duration": 0.1527777166666766,
          "durationTicks": 88,
          "midi": 71,
          "name": "B4",
          "ticks": 55440,
          "time": 96.2499615,
          "velocity": 0.3779527559055118
        },
        {
          "duration": 0.20486102916667903,
          "durationTicks": 118,
          "midi": 71,
          "name": "B4",
          "ticks": 55560,
          "time": 96.45829475,
          "velocity": 0.3779527559055118
        },
        {
          "duration": 0.1527777166666766,
          "durationTicks": 88,
          "midi": 68,
          "name": "G#4",
          "ticks": 55800,
          "time": 96.87496125,
          "velocity": 0.3779527559055118
        },
        {
          "duration": 0.1527777166666766,
          "durationTicks": 88,
          "midi": 68,
          "name": "G#4",
          "ticks": 55920,
          "time": 97.0832945,
          "velocity": 0.3779527559055118
        },
        {
          "duration": 0.20486102916666482,
          "durationTicks": 118,
          "midi": 68,
          "name": "G#4",
          "ticks": 56040,
          "time": 97.29162775,
          "velocity": 0.3779527559055118
        },
        {
          "duration": 0.1527777166666766,
          "durationTicks": 88,
          "midi": 71,
          "name": "B4",
          "ticks": 56280,
          "time": 97.70829425,
          "velocity": 0.3779527559055118
        },
        {
          "duration": 0.1527777166666624,
          "durationTicks": 88,
          "midi": 71,
          "name": "B4",
          "ticks": 56400,
          "time": 97.9166275,
          "velocity": 0.3779527559055118
        },
        {
          "duration": 0.20486102916666482,
          "durationTicks": 118,
          "midi": 71,
          "name": "B4",
          "ticks": 56520,
          "time": 98.12496075,
          "velocity": 0.3779527559055118
        },
        {
          "duration": 0.1527777166666624,
          "durationTicks": 88,
          "midi": 68,
          "name": "G#4",
          "ticks": 56760,
          "time": 98.54162725,
          "velocity": 0.3779527559055118
        },
        {
          "duration": 0.1527777166666624,
          "durationTicks": 88,
          "midi": 68,
          "name": "G#4",
          "ticks": 56880,
          "time": 98.7499605,
          "velocity": 0.3779527559055118
        },
        {
          "duration": 0.20486102916667903,
          "durationTicks": 118,
          "midi": 68,
          "name": "G#4",
          "ticks": 57000,
          "time": 98.95829375,
          "velocity": 0.3779527559055118
        },
        {
          "duration": 0.1527777166666624,
          "durationTicks": 88,
          "midi": 65,
          "name": "F4",
          "ticks": 57240,
          "time": 99.37496025,
          "velocity": 0.3779527559055118
        },
        {
          "duration": 0.1527777166666766,
          "durationTicks": 88,
          "midi": 65,
          "name": "F4",
          "ticks": 57360,
          "time": 99.5832935,
          "velocity": 0.3779527559055118
        },
        {
          "duration": 0.20486102916667903,
          "durationTicks": 118,
          "midi": 65,
          "name": "F4",
          "ticks": 57480,
          "time": 99.79162674999999,
          "velocity": 0.3779527559055118
        },
        {
          "duration": 0.1527777166666766,
          "durationTicks": 88,
          "midi": 66,
          "name": "F#4",
          "ticks": 57720,
          "time": 100.20829325,
          "velocity": 0.3779527559055118
        },
        {
          "duration": 0.1527777166666766,
          "durationTicks": 88,
          "midi": 66,
          "name": "F#4",
          "ticks": 57840,
          "time": 100.41662649999999,
          "velocity": 0.3779527559055118
        },
        {
          "duration": 0.20486102916666482,
          "durationTicks": 118,
          "midi": 66,
          "name": "F#4",
          "ticks": 57960,
          "time": 100.62495975,
          "velocity": 0.3779527559055118
        },
        {
          "duration": 0.1527777166666766,
          "durationTicks": 88,
          "midi": 60,
          "name": "C4",
          "ticks": 58200,
          "time": 101.04162625,
          "velocity": 0.3779527559055118
        },
        {
          "duration": 0.1527777166666624,
          "durationTicks": 88,
          "midi": 60,
          "name": "C4",
          "ticks": 58320,
          "time": 101.2499595,
          "velocity": 0.3779527559055118
        },
        {
          "duration": 0.20486102916666482,
          "durationTicks": 118,
          "midi": 60,
          "name": "C4",
          "ticks": 58440,
          "time": 101.45829275,
          "velocity": 0.3779527559055118
        },
        {
          "duration": 0.1527777166666624,
          "durationTicks": 88,
          "midi": 57,
          "name": "A3",
          "ticks": 58680,
          "time": 101.87495925,
          "velocity": 0.3779527559055118
        },
        {
          "duration": 0.1527777166666766,
          "durationTicks": 88,
          "midi": 57,
          "name": "A3",
          "ticks": 58800,
          "time": 102.0832925,
          "velocity": 0.3779527559055118
        },
        {
          "duration": 0.20486102916667903,
          "durationTicks": 118,
          "midi": 57,
          "name": "A3",
          "ticks": 58920,
          "time": 102.29162575,
          "velocity": 0.3779527559055118
        },
        {
          "duration": 0.1527777166666624,
          "durationTicks": 88,
          "midi": 54,
          "name": "F#3",
          "ticks": 59160,
          "time": 102.70829225,
          "velocity": 0.3779527559055118
        },
        {
          "duration": 0.1527777166666766,
          "durationTicks": 88,
          "midi": 54,
          "name": "F#3",
          "ticks": 59280,
          "time": 102.9166255,
          "velocity": 0.3779527559055118
        },
        {
          "duration": 0.20486102916666482,
          "durationTicks": 118,
          "midi": 54,
          "name": "F#3",
          "ticks": 59400,
          "time": 103.12495875,
          "velocity": 0.3779527559055118
        },
        {
          "duration": 0.1527777166666766,
          "durationTicks": 88,
          "midi": 50,
          "name": "D3",
          "ticks": 59640,
          "time": 103.54162525,
          "velocity": 0.3779527559055118
        },
        {
          "duration": 0.1527777166666624,
          "durationTicks": 88,
          "midi": 50,
          "name": "D3",
          "ticks": 59760,
          "time": 103.7499585,
          "velocity": 0.3779527559055118
        },
        {
          "duration": 0.20486102916666482,
          "durationTicks": 118,
          "midi": 50,
          "name": "D3",
          "ticks": 59880,
          "time": 103.95829175,
          "velocity": 0.3779527559055118
        },
        {
          "duration": 0.1527777166666766,
          "durationTicks": 88,
          "midi": 50,
          "name": "D3",
          "ticks": 60120,
          "time": 104.37495824999999,
          "velocity": 0.3779527559055118
        },
        {
          "duration": 0.1527777166666624,
          "durationTicks": 88,
          "midi": 50,
          "name": "D3",
          "ticks": 60240,
          "time": 104.5832915,
          "velocity": 0.3779527559055118
        },
        {
          "duration": 0.20486102916666482,
          "durationTicks": 118,
          "midi": 50,
          "name": "D3",
          "ticks": 60360,
          "time": 104.79162475,
          "velocity": 0.3779527559055118
        },
        {
          "duration": 0.1527777166666624,
          "durationTicks": 88,
          "midi": 57,
          "name": "A3",
          "ticks": 60600,
          "time": 105.20829125,
          "velocity": 0.3779527559055118
        },
        {
          "duration": 0.1527777166666766,
          "durationTicks": 88,
          "midi": 57,
          "name": "A3",
          "ticks": 60720,
          "time": 105.4166245,
          "velocity": 0.3779527559055118
        },
        {
          "duration": 0.20486102916667903,
          "durationTicks": 118,
          "midi": 57,
          "name": "A3",
          "ticks": 60840,
          "time": 105.62495775,
          "velocity": 0.3779527559055118
        },
        {
          "duration": 0.1527777166666766,
          "durationTicks": 88,
          "midi": 57,
          "name": "A3",
          "ticks": 61080,
          "time": 106.04162425,
          "velocity": 0.3779527559055118
        },
        {
          "duration": 0.1527777166666766,
          "durationTicks": 88,
          "midi": 57,
          "name": "A3",
          "ticks": 61200,
          "time": 106.2499575,
          "velocity": 0.3779527559055118
        },
        {
          "duration": 0.20486102916666482,
          "durationTicks": 118,
          "midi": 57,
          "name": "A3",
          "ticks": 61320,
          "time": 106.45829075,
          "velocity": 0.3779527559055118
        },
        {
          "duration": 0.1527777166666766,
          "durationTicks": 88,
          "midi": 55,
          "name": "G3",
          "ticks": 61560,
          "time": 106.87495725,
          "velocity": 0.3779527559055118
        },
        {
          "duration": 0.1527777166666624,
          "durationTicks": 88,
          "midi": 55,
          "name": "G3",
          "ticks": 61680,
          "time": 107.0832905,
          "velocity": 0.3779527559055118
        },
        {
          "duration": 0.20486102916666482,
          "durationTicks": 118,
          "midi": 55,
          "name": "G3",
          "ticks": 61800,
          "time": 107.29162375,
          "velocity": 0.3779527559055118
        },
        {
          "duration": 0.1527777166666624,
          "durationTicks": 88,
          "midi": 62,
          "name": "D4",
          "ticks": 62040,
          "time": 107.70829025,
          "velocity": 0.3779527559055118
        },
        {
          "duration": 0.1527777166666624,
          "durationTicks": 88,
          "midi": 62,
          "name": "D4",
          "ticks": 62160,
          "time": 107.9166235,
          "velocity": 0.3779527559055118
        },
        {
          "duration": 0.20486102916667903,
          "durationTicks": 118,
          "midi": 62,
          "name": "D4",
          "ticks": 62280,
          "time": 108.12495675,
          "velocity": 0.3779527559055118
        },
        {
          "duration": 0.1527777166666624,
          "durationTicks": 88,
          "midi": 67,
          "name": "G4",
          "ticks": 62520,
          "time": 108.54162325,
          "velocity": 0.3779527559055118
        },
        {
          "duration": 0.1527777166666766,
          "durationTicks": 88,
          "midi": 67,
          "name": "G4",
          "ticks": 62640,
          "time": 108.7499565,
          "velocity": 0.3779527559055118
        },
        {
          "duration": 0.20486102916666482,
          "durationTicks": 118,
          "midi": 67,
          "name": "G4",
          "ticks": 62760,
          "time": 108.95828975,
          "velocity": 0.3779527559055118
        },
        {
          "duration": 0.1527777166666766,
          "durationTicks": 88,
          "midi": 70,
          "name": "A#4",
          "ticks": 63000,
          "time": 109.37495625,
          "velocity": 0.3779527559055118
        },
        {
          "duration": 0.1527777166666766,
          "durationTicks": 88,
          "midi": 70,
          "name": "A#4",
          "ticks": 63120,
          "time": 109.58328949999999,
          "velocity": 0.3779527559055118
        },
        {
          "duration": 0.20486102916666482,
          "durationTicks": 118,
          "midi": 70,
          "name": "A#4",
          "ticks": 63240,
          "time": 109.79162275,
          "velocity": 0.3779527559055118
        },
        {
          "duration": 0.1527777166666766,
          "durationTicks": 88,
          "midi": 64,
          "name": "E4",
          "ticks": 63480,
          "time": 110.20828924999999,
          "velocity": 0.3779527559055118
        },
        {
          "duration": 0.1527777166666624,
          "durationTicks": 88,
          "midi": 64,
          "name": "E4",
          "ticks": 63600,
          "time": 110.4166225,
          "velocity": 0.3779527559055118
        },
        {
          "duration": 0.20486102916666482,
          "durationTicks": 118,
          "midi": 64,
          "name": "E4",
          "ticks": 63720,
          "time": 110.62495575,
          "velocity": 0.3779527559055118
        },
        {
          "duration": 0.1527777166666624,
          "durationTicks": 88,
          "midi": 70,
          "name": "A#4",
          "ticks": 63960,
          "time": 111.04162225,
          "velocity": 0.3779527559055118
        },
        {
          "duration": 0.1527777166666766,
          "durationTicks": 88,
          "midi": 70,
          "name": "A#4",
          "ticks": 64080,
          "time": 111.2499555,
          "velocity": 0.3779527559055118
        },
        {
          "duration": 0.20486102916667903,
          "durationTicks": 118,
          "midi": 70,
          "name": "A#4",
          "ticks": 64200,
          "time": 111.45828875,
          "velocity": 0.3779527559055118
        },
        {
          "duration": 0.1527777166666624,
          "durationTicks": 88,
          "midi": 67,
          "name": "G4",
          "ticks": 64440,
          "time": 111.87495525,
          "velocity": 0.3779527559055118
        },
        {
          "duration": 0.1527777166666766,
          "durationTicks": 88,
          "midi": 67,
          "name": "G4",
          "ticks": 64560,
          "time": 112.0832885,
          "velocity": 0.3779527559055118
        },
        {
          "duration": 0.20486102916666482,
          "durationTicks": 118,
          "midi": 67,
          "name": "G4",
          "ticks": 64680,
          "time": 112.29162175,
          "velocity": 0.3779527559055118
        },
        {
          "duration": 0.1527777166666766,
          "durationTicks": 88,
          "midi": 64,
          "name": "E4",
          "ticks": 64920,
          "time": 112.70828825,
          "velocity": 0.3779527559055118
        },
        {
          "duration": 0.1527777166666624,
          "durationTicks": 88,
          "midi": 64,
          "name": "E4",
          "ticks": 65040,
          "time": 112.9166215,
          "velocity": 0.3779527559055118
        },
        {
          "duration": 0.20486102916666482,
          "durationTicks": 118,
          "midi": 64,
          "name": "E4",
          "ticks": 65160,
          "time": 113.12495475,
          "velocity": 0.3779527559055118
        },
        {
          "duration": 0.1527777166666624,
          "durationTicks": 88,
          "midi": 56,
          "name": "G#3",
          "ticks": 65400,
          "time": 113.54162125,
          "velocity": 0.3779527559055118
        },
        {
          "duration": 0.1527777166666624,
          "durationTicks": 88,
          "midi": 56,
          "name": "G#3",
          "ticks": 65520,
          "time": 113.7499545,
          "velocity": 0.3779527559055118
        },
        {
          "duration": 0.20486102916666482,
          "durationTicks": 118,
          "midi": 56,
          "name": "G#3",
          "ticks": 65640,
          "time": 113.95828775,
          "velocity": 0.3779527559055118
        },
        {
          "duration": 0.1527777166666624,
          "durationTicks": 88,
          "midi": 56,
          "name": "G#3",
          "ticks": 65880,
          "time": 114.37495425,
          "velocity": 0.3779527559055118
        },
        {
          "duration": 0.1527777166666766,
          "durationTicks": 88,
          "midi": 56,
          "name": "G#3",
          "ticks": 66000,
          "time": 114.5832875,
          "velocity": 0.3779527559055118
        },
        {
          "duration": 0.20486102916667903,
          "durationTicks": 118,
          "midi": 56,
          "name": "G#3",
          "ticks": 66120,
          "time": 114.79162074999999,
          "velocity": 0.3779527559055118
        },
        {
          "duration": 0.1527777166666766,
          "durationTicks": 88,
          "midi": 54,
          "name": "F#3",
          "ticks": 66360,
          "time": 115.20828725,
          "velocity": 0.3779527559055118
        },
        {
          "duration": 0.1527777166666766,
          "durationTicks": 88,
          "midi": 54,
          "name": "F#3",
          "ticks": 66480,
          "time": 115.4166205,
          "velocity": 0.3779527559055118
        },
        {
          "duration": 0.20486102916666482,
          "durationTicks": 118,
          "midi": 54,
          "name": "F#3",
          "ticks": 66600,
          "time": 115.62495375,
          "velocity": 0.3779527559055118
        },
        {
          "duration": 0.1527777166666766,
          "durationTicks": 88,
          "midi": 69,
          "name": "A4",
          "ticks": 66840,
          "time": 116.04162025,
          "velocity": 0.3779527559055118
        },
        {
          "duration": 0.1527777166666624,
          "durationTicks": 88,
          "midi": 69,
          "name": "A4",
          "ticks": 66960,
          "time": 116.2499535,
          "velocity": 0.3779527559055118
        },
        {
          "duration": 0.20486102916666482,
          "durationTicks": 118,
          "midi": 69,
          "name": "A4",
          "ticks": 67080,
          "time": 116.45828675,
          "velocity": 0.3779527559055118
        },
        {
          "duration": 0.1527777166666624,
          "durationTicks": 88,
          "midi": 75,
          "name": "D#5",
          "ticks": 67320,
          "time": 116.87495325,
          "velocity": 0.3779527559055118
        },
        {
          "duration": 0.1527777166666624,
          "durationTicks": 88,
          "midi": 75,
          "name": "D#5",
          "ticks": 67440,
          "time": 117.0832865,
          "velocity": 0.3779527559055118
        },
        {
          "duration": 0.20486102916667903,
          "durationTicks": 118,
          "midi": 75,
          "name": "D#5",
          "ticks": 67560,
          "time": 117.29161975,
          "velocity": 0.3779527559055118
        },
        {
          "duration": 0.1527777166666624,
          "durationTicks": 88,
          "midi": 69,
          "name": "A4",
          "ticks": 67800,
          "time": 117.70828625,
          "velocity": 0.3779527559055118
        },
        {
          "duration": 0.1527777166666766,
          "durationTicks": 88,
          "midi": 69,
          "name": "A4",
          "ticks": 67920,
          "time": 117.9166195,
          "velocity": 0.3779527559055118
        },
        {
          "duration": 0.20486102916666482,
          "durationTicks": 118,
          "midi": 69,
          "name": "A4",
          "ticks": 68040,
          "time": 118.12495275,
          "velocity": 0.3779527559055118
        },
        {
          "duration": 0.1527777166666766,
          "durationTicks": 88,
          "midi": 66,
          "name": "F#4",
          "ticks": 68280,
          "time": 118.54161925,
          "velocity": 0.3779527559055118
        },
        {
          "duration": 0.1527777166666766,
          "durationTicks": 88,
          "midi": 66,
          "name": "F#4",
          "ticks": 68400,
          "time": 118.74995249999999,
          "velocity": 0.3779527559055118
        },
        {
          "duration": 0.20486102916666482,
          "durationTicks": 118,
          "midi": 66,
          "name": "F#4",
          "ticks": 68520,
          "time": 118.95828575,
          "velocity": 0.3779527559055118
        },
        {
          "duration": 0.1527777166666766,
          "durationTicks": 88,
          "midi": 63,
          "name": "D#4",
          "ticks": 68760,
          "time": 119.37495224999999,
          "velocity": 0.3779527559055118
        },
        {
          "duration": 0.1527777166666624,
          "durationTicks": 88,
          "midi": 63,
          "name": "D#4",
          "ticks": 68880,
          "time": 119.5832855,
          "velocity": 0.3779527559055118
        },
        {
          "duration": 0.20486102916666482,
          "durationTicks": 118,
          "midi": 63,
          "name": "D#4",
          "ticks": 69000,
          "time": 119.79161875,
          "velocity": 0.3779527559055118
        },
        {
          "duration": 0.1527777166666624,
          "durationTicks": 88,
          "midi": 64,
          "name": "E4",
          "ticks": 69240,
          "time": 120.20828525,
          "velocity": 0.3779527559055118
        },
        {
          "duration": 0.1527777166666766,
          "durationTicks": 88,
          "midi": 64,
          "name": "E4",
          "ticks": 69360,
          "time": 120.4166185,
          "velocity": 0.3779527559055118
        },
        {
          "duration": 0.20486102916667903,
          "durationTicks": 118,
          "midi": 64,
          "name": "E4",
          "ticks": 69480,
          "time": 120.62495175,
          "velocity": 0.3779527559055118
        },
        {
          "duration": 0.1527777166666624,
          "durationTicks": 88,
          "midi": 55,
          "name": "G3",
          "ticks": 69720,
          "time": 121.04161825,
          "velocity": 0.3779527559055118
        },
        {
          "duration": 0.1527777166666766,
          "durationTicks": 88,
          "midi": 55,
          "name": "G3",
          "ticks": 69840,
          "time": 121.2499515,
          "velocity": 0.3779527559055118
        },
        {
          "duration": 0.20486102916666482,
          "durationTicks": 118,
          "midi": 55,
          "name": "G3",
          "ticks": 69960,
          "time": 121.45828475,
          "velocity": 0.3779527559055118
        },
        {
          "duration": 0.1527777166666766,
          "durationTicks": 88,
          "midi": 60,
          "name": "C4",
          "ticks": 70200,
          "time": 121.87495125,
          "velocity": 0.3779527559055118
        },
        {
          "duration": 0.1527777166666624,
          "durationTicks": 88,
          "midi": 60,
          "name": "C4",
          "ticks": 70320,
          "time": 122.0832845,
          "velocity": 0.3779527559055118
        },
        {
          "duration": 0.20486102916666482,
          "durationTicks": 118,
          "midi": 60,
          "name": "C4",
          "ticks": 70440,
          "time": 122.29161775,
          "velocity": 0.3779527559055118
        },
        {
          "duration": 0.1527777166666624,
          "durationTicks": 88,
          "midi": 53,
          "name": "F3",
          "ticks": 70680,
          "time": 122.70828425,
          "velocity": 0.3779527559055118
        },
        {
          "duration": 0.1527777166666624,
          "durationTicks": 88,
          "midi": 53,
          "name": "F3",
          "ticks": 70800,
          "time": 122.9166175,
          "velocity": 0.3779527559055118
        },
        {
          "duration": 0.20486102916667903,
          "durationTicks": 118,
          "midi": 53,
          "name": "F3",
          "ticks": 70920,
          "time": 123.12495075,
          "velocity": 0.3779527559055118
        },
        {
          "duration": 0.1527777166666624,
          "durationTicks": 88,
          "midi": 55,
          "name": "G3",
          "ticks": 71160,
          "time": 123.54161725,
          "velocity": 0.3779527559055118
        },
        {
          "duration": 0.1527777166666766,
          "durationTicks": 88,
          "midi": 55,
          "name": "G3",
          "ticks": 71280,
          "time": 123.7499505,
          "velocity": 0.3779527559055118
        },
        {
          "duration": 0.20486102916667903,
          "durationTicks": 118,
          "midi": 55,
          "name": "G3",
          "ticks": 71400,
          "time": 123.95828374999999,
          "velocity": 0.3779527559055118
        },
        {
          "duration": 0.1527777166666766,
          "durationTicks": 88,
          "midi": 58,
          "name": "A#3",
          "ticks": 71640,
          "time": 124.37495025,
          "velocity": 0.3779527559055118
        },
        {
          "duration": 0.1527777166666766,
          "durationTicks": 88,
          "midi": 58,
          "name": "A#3",
          "ticks": 71760,
          "time": 124.5832835,
          "velocity": 0.3779527559055118
        },
        {
          "duration": 0.20486102916666482,
          "durationTicks": 118,
          "midi": 58,
          "name": "A#3",
          "ticks": 71880,
          "time": 124.79161675,
          "velocity": 0.3779527559055118
        },
        {
          "duration": 0.1527777166666766,
          "durationTicks": 88,
          "midi": 55,
          "name": "G3",
          "ticks": 72120,
          "time": 125.20828325,
          "velocity": 0.3779527559055118
        },
        {
          "duration": 0.1527777166666624,
          "durationTicks": 88,
          "midi": 55,
          "name": "G3",
          "ticks": 72240,
          "time": 125.4166165,
          "velocity": 0.3779527559055118
        },
        {
          "duration": 0.20486102916666482,
          "durationTicks": 118,
          "midi": 55,
          "name": "G3",
          "ticks": 72360,
          "time": 125.62494975,
          "velocity": 0.3779527559055118
        },
        {
          "duration": 0.1527777166666624,
          "durationTicks": 88,
          "midi": 52,
          "name": "E3",
          "ticks": 72600,
          "time": 126.04161625,
          "velocity": 0.3779527559055118
        },
        {
          "duration": 0.1527777166666624,
          "durationTicks": 88,
          "midi": 52,
          "name": "E3",
          "ticks": 72720,
          "time": 126.2499495,
          "velocity": 0.3779527559055118
        },
        {
          "duration": 0.20486102916667903,
          "durationTicks": 118,
          "midi": 52,
          "name": "E3",
          "ticks": 72840,
          "time": 126.45828275,
          "velocity": 0.3779527559055118
        },
        {
          "duration": 0.1527777166666624,
          "durationTicks": 88,
          "midi": 53,
          "name": "F3",
          "ticks": 73080,
          "time": 126.87494925,
          "velocity": 0.3779527559055118
        },
        {
          "duration": 0.1527777166666766,
          "durationTicks": 88,
          "midi": 53,
          "name": "F3",
          "ticks": 73200,
          "time": 127.0832825,
          "velocity": 0.3779527559055118
        },
        {
          "duration": 0.20486102916666482,
          "durationTicks": 118,
          "midi": 53,
          "name": "F3",
          "ticks": 73320,
          "time": 127.29161575,
          "velocity": 0.3779527559055118
        },
        {
          "duration": 0.1527777166666766,
          "durationTicks": 88,
          "midi": 53,
          "name": "F3",
          "ticks": 73560,
          "time": 127.70828225,
          "velocity": 0.3779527559055118
        },
        {
          "duration": 0.1527777166666766,
          "durationTicks": 88,
          "midi": 53,
          "name": "F3",
          "ticks": 73680,
          "time": 127.91661549999999,
          "velocity": 0.3779527559055118
        },
        {
          "duration": 0.20486102916669324,
          "durationTicks": 118,
          "midi": 53,
          "name": "F3",
          "ticks": 73800,
          "time": 128.12494875,
          "velocity": 0.3779527559055118
        },
        {
          "duration": 0.1527777166666624,
          "durationTicks": 88,
          "midi": 53,
          "name": "F3",
          "ticks": 74040,
          "time": 128.54161525,
          "velocity": 0.3779527559055118
        },
        {
          "duration": 0.15277771666669082,
          "durationTicks": 88,
          "midi": 53,
          "name": "F3",
          "ticks": 74160,
          "time": 128.7499485,
          "velocity": 0.3779527559055118
        },
        {
          "duration": 0.20486102916666482,
          "durationTicks": 118,
          "midi": 53,
          "name": "F3",
          "ticks": 74280,
          "time": 128.95828175,
          "velocity": 0.3779527559055118
        },
        {
          "duration": 0.15277771666669082,
          "durationTicks": 88,
          "midi": 53,
          "name": "F3",
          "ticks": 74520,
          "time": 129.37494825,
          "velocity": 0.3779527559055118
        },
        {
          "duration": 0.1527777166666624,
          "durationTicks": 88,
          "midi": 53,
          "name": "F3",
          "ticks": 74640,
          "time": 129.5832815,
          "velocity": 0.3779527559055118
        },
        {
          "duration": 0.1527777166666624,
          "durationTicks": 88,
          "midi": 53,
          "name": "F3",
          "ticks": 74760,
          "time": 129.79161475,
          "velocity": 0.3779527559055118
        },
        {
          "duration": 0.8298607791666655,
          "durationTicks": 478,
          "midi": 53,
          "name": "F3",
          "ticks": 74880,
          "time": 129.999948,
          "velocity": 0.3779527559055118
        },
        {
          "duration": 1.327777445833334,
          "durationTicks": 478,
          "midi": 57,
          "name": "A3",
          "ticks": 75840,
          "time": 133.233281,
          "velocity": 0.3779527559055118
        }
      ]
    },
    {
      "channel": 0,
      "controlChanges": {},
      "pitchBends": [],
      "instrument": {
        "family": "piano",
        "number": 0,
        "name": "acoustic grand piano"
      },
      "name": "Cello",
      "notes": [],
      "endOfTrackTicks": 76800
    },
    {
      "channel": 7,
      "controlChanges": {
        "7": [
          {
            "number": 7,
            "ticks": 0,
            "time": 0,
            "value": 0.7559055118110236
          }
        ],
        "10": [
          {
            "number": 10,
            "ticks": 0,
            "time": 0,
            "value": 0.7086614173228346
          }
        ],
        "11": [
          {
            "number": 11,
            "ticks": 0,
            "time": 0,
            "value": 1
          }
        ]
      },
      "pitchBends": [],
      "instrument": {
        "family": "ensemble",
        "number": 48,
        "name": "string ensemble 1"
      },
      "name": "",
      "notes": [
        {
          "duration": 0.10069440416666667,
          "durationTicks": 58,
          "midi": 45,
          "name": "A2",
          "ticks": 0,
          "time": 0,
          "velocity": 0.5669291338582677
        },
        {
          "duration": 0.10069440416666665,
          "durationTicks": 58,
          "midi": 47,
          "name": "B2",
          "ticks": 60,
          "time": 0.104166625,
          "velocity": 0.5669291338582677
        },
        {
          "duration": 0.1527777166666667,
          "durationTicks": 88,
          "midi": 48,
          "name": "C3",
          "ticks": 120,
          "time": 0.20833325,
          "velocity": 0.5669291338582677
        },
        {
          "duration": 0.1006944041666667,
          "durationTicks": 58,
          "midi": 48,
          "name": "C3",
          "ticks": 240,
          "time": 0.4166665,
          "velocity": 0.5669291338582677
        },
        {
          "duration": 0.10069440416666675,
          "durationTicks": 58,
          "midi": 48,
          "name": "C3",
          "ticks": 360,
          "time": 0.62499975,
          "velocity": 0.5669291338582677
        },
        {
          "duration": 0.10069440416666664,
          "durationTicks": 58,
          "midi": 48,
          "name": "C3",
          "ticks": 480,
          "time": 0.833333,
          "velocity": 0.5669291338582677
        },
        {
          "duration": 0.10069440416666675,
          "durationTicks": 58,
          "midi": 47,
          "name": "B2",
          "ticks": 540,
          "time": 0.937499625,
          "velocity": 0.5669291338582677
        },
        {
          "duration": 0.15277771666666662,
          "durationTicks": 88,
          "midi": 45,
          "name": "A2",
          "ticks": 600,
          "time": 1.04166625,
          "velocity": 0.5669291338582677
        },
        {
          "duration": 0.10069440416666664,
          "durationTicks": 58,
          "midi": 45,
          "name": "A2",
          "ticks": 720,
          "time": 1.2499995,
          "velocity": 0.5669291338582677
        },
        {
          "duration": 0.10069440416666664,
          "durationTicks": 58,
          "midi": 45,
          "name": "A2",
          "ticks": 840,
          "time": 1.45833275,
          "velocity": 0.5669291338582677
        },
        {
          "duration": 0.10069440416666642,
          "durationTicks": 58,
          "midi": 45,
          "name": "A2",
          "ticks": 960,
          "time": 1.666666,
          "velocity": 0.5669291338582677
        },
        {
          "duration": 0.10069440416666664,
          "durationTicks": 58,
          "midi": 47,
          "name": "B2",
          "ticks": 1020,
          "time": 1.770832625,
          "velocity": 0.5669291338582677
        },
        {
          "duration": 0.15277771666666662,
          "durationTicks": 88,
          "midi": 48,
          "name": "C3",
          "ticks": 1080,
          "time": 1.87499925,
          "velocity": 0.5669291338582677
        },
        {
          "duration": 0.10069440416666664,
          "durationTicks": 58,
          "midi": 48,
          "name": "C3",
          "ticks": 1200,
          "time": 2.0833325,
          "velocity": 0.5669291338582677
        },
        {
          "duration": 0.10069440416666664,
          "durationTicks": 58,
          "midi": 48,
          "name": "C3",
          "ticks": 1320,
          "time": 2.29166575,
          "velocity": 0.5669291338582677
        },
        {
          "duration": 0.10069440416666664,
          "durationTicks": 58,
          "midi": 48,
          "name": "C3",
          "ticks": 1440,
          "time": 2.499999,
          "velocity": 0.5669291338582677
        },
        {
          "duration": 0.10069440416666664,
          "durationTicks": 58,
          "midi": 47,
          "name": "B2",
          "ticks": 1500,
          "time": 2.604165625,
          "velocity": 0.5669291338582677
        },
        {
          "duration": 0.15277771666666684,
          "durationTicks": 88,
          "midi": 45,
          "name": "A2",
          "ticks": 1560,
          "time": 2.7083322499999998,
          "velocity": 0.5669291338582677
        },
        {
          "duration": 0.1006944041666662,
          "durationTicks": 58,
          "midi": 45,
          "name": "A2",
          "ticks": 1680,
          "time": 2.9166655,
          "velocity": 0.5669291338582677
        },
        {
          "duration": 0.1006944041666662,
          "durationTicks": 58,
          "midi": 45,
          "name": "A2",
          "ticks": 1800,
          "time": 3.12499875,
          "velocity": 0.5669291338582677
        },
        {
          "duration": 0.10069440416666708,
          "durationTicks": 58,
          "midi": 47,
          "name": "B2",
          "ticks": 1920,
          "time": 3.333332,
          "velocity": 0.5669291338582677
        },
        {
          "duration": 0.10069440416666708,
          "durationTicks": 58,
          "midi": 48,
          "name": "C3",
          "ticks": 1980,
          "time": 3.437498625,
          "velocity": 0.5669291338582677
        },
        {
          "duration": 0.15277771666666684,
          "durationTicks": 88,
          "midi": 50,
          "name": "D3",
          "ticks": 2040,
          "time": 3.54166525,
          "velocity": 0.5669291338582677
        },
        {
          "duration": 0.10069440416666708,
          "durationTicks": 58,
          "midi": 50,
          "name": "D3",
          "ticks": 2160,
          "time": 3.7499985,
          "velocity": 0.5669291338582677
        },
        {
          "duration": 0.10069440416666708,
          "durationTicks": 58,
          "midi": 50,
          "name": "D3",
          "ticks": 2280,
          "time": 3.95833175,
          "velocity": 0.5669291338582677
        },
        {
          "duration": 0.10069440416666708,
          "durationTicks": 58,
          "midi": 50,
          "name": "D3",
          "ticks": 2400,
          "time": 4.166665,
          "velocity": 0.5669291338582677
        },
        {
          "duration": 0.10069440416666708,
          "durationTicks": 58,
          "midi": 48,
          "name": "C3",
          "ticks": 2460,
          "time": 4.270831625,
          "velocity": 0.5669291338582677
        },
        {
          "duration": 0.15277771666666684,
          "durationTicks": 88,
          "midi": 47,
          "name": "B2",
          "ticks": 2520,
          "time": 4.37499825,
          "velocity": 0.5669291338582677
        },
        {
          "duration": 0.10069440416666708,
          "durationTicks": 58,
          "midi": 47,
          "name": "B2",
          "ticks": 2640,
          "time": 4.5833315,
          "velocity": 0.5669291338582677
        },
        {
          "duration": 0.10069440416666708,
          "durationTicks": 58,
          "midi": 47,
          "name": "B2",
          "ticks": 2760,
          "time": 4.79166475,
          "velocity": 0.5669291338582677
        },
        {
          "duration": 0.10069440416666708,
          "durationTicks": 58,
          "midi": 47,
          "name": "B2",
          "ticks": 2880,
          "time": 4.999998,
          "velocity": 0.5669291338582677
        },
        {
          "duration": 0.10069440416666708,
          "durationTicks": 58,
          "midi": 48,
          "name": "C3",
          "ticks": 2940,
          "time": 5.104164625,
          "velocity": 0.5669291338582677
        },
        {
          "duration": 0.15277771666666684,
          "durationTicks": 88,
          "midi": 50,
          "name": "D3",
          "ticks": 3000,
          "time": 5.20833125,
          "velocity": 0.5669291338582677
        },
        {
          "duration": 0.10069440416666708,
          "durationTicks": 58,
          "midi": 50,
          "name": "D3",
          "ticks": 3120,
          "time": 5.4166644999999995,
          "velocity": 0.5669291338582677
        },
        {
          "duration": 0.1006944041666662,
          "durationTicks": 58,
          "midi": 50,
          "name": "D3",
          "ticks": 3240,
          "time": 5.62499775,
          "velocity": 0.5669291338582677
        },
        {
          "duration": 0.1006944041666662,
          "durationTicks": 58,
          "midi": 50,
          "name": "D3",
          "ticks": 3360,
          "time": 5.833331,
          "velocity": 0.5669291338582677
        },
        {
          "duration": 0.10069440416666708,
          "durationTicks": 58,
          "midi": 48,
          "name": "C3",
          "ticks": 3420,
          "time": 5.937497625,
          "velocity": 0.5669291338582677
        },
        {
          "duration": 0.15277771666666684,
          "durationTicks": 88,
          "midi": 47,
          "name": "B2",
          "ticks": 3480,
          "time": 6.04166425,
          "velocity": 0.5669291338582677
        },
        {
          "duration": 0.10069440416666708,
          "durationTicks": 58,
          "midi": 47,
          "name": "B2",
          "ticks": 3600,
          "time": 6.2499975,
          "velocity": 0.5669291338582677
        },
        {
          "duration": 0.10069440416666708,
          "durationTicks": 58,
          "midi": 47,
          "name": "B2",
          "ticks": 3720,
          "time": 6.45833075,
          "velocity": 0.5669291338582677
        },
        {
          "duration": 0.10069440416666708,
          "durationTicks": 58,
          "midi": 48,
          "name": "C3",
          "ticks": 3840,
          "time": 6.666664,
          "velocity": 0.5669291338582677
        },
        {
          "duration": 0.1006944041666662,
          "durationTicks": 58,
          "midi": 50,
          "name": "D3",
          "ticks": 3900,
          "time": 6.770830625,
          "velocity": 0.5669291338582677
        },
        {
          "duration": 0.15277771666666684,
          "durationTicks": 88,
          "midi": 52,
          "name": "E3",
          "ticks": 3960,
          "time": 6.87499725,
          "velocity": 0.5669291338582677
        },
        {
          "duration": 0.10069440416666708,
          "durationTicks": 58,
          "midi": 52,
          "name": "E3",
          "ticks": 4080,
          "time": 7.0833305,
          "velocity": 0.5669291338582677
        },
        {
          "duration": 0.10069440416666708,
          "durationTicks": 58,
          "midi": 52,
          "name": "E3",
          "ticks": 4200,
          "time": 7.29166375,
          "velocity": 0.5669291338582677
        },
        {
          "duration": 0.10069440416666708,
          "durationTicks": 58,
          "midi": 52,
          "name": "E3",
          "ticks": 4320,
          "time": 7.499997,
          "velocity": 0.5669291338582677
        },
        {
          "duration": 0.10069440416666708,
          "durationTicks": 58,
          "midi": 50,
          "name": "D3",
          "ticks": 4380,
          "time": 7.604163625,
          "velocity": 0.5669291338582677
        },
        {
          "duration": 0.15277771666666684,
          "durationTicks": 88,
          "midi": 48,
          "name": "C3",
          "ticks": 4440,
          "time": 7.7083302499999995,
          "velocity": 0.5669291338582677
        },
        {
          "duration": 0.10069440416666708,
          "durationTicks": 58,
          "midi": 48,
          "name": "C3",
          "ticks": 4560,
          "time": 7.9166635,
          "velocity": 0.5669291338582677
        },
        {
          "duration": 0.10069440416666708,
          "durationTicks": 58,
          "midi": 48,
          "name": "C3",
          "ticks": 4680,
          "time": 8.12499675,
          "velocity": 0.5669291338582677
        },
        {
          "duration": 0.10069440416666708,
          "durationTicks": 58,
          "midi": 48,
          "name": "C3",
          "ticks": 4800,
          "time": 8.33333,
          "velocity": 0.5669291338582677
        },
        {
          "duration": 0.10069440416666708,
          "durationTicks": 58,
          "midi": 50,
          "name": "D3",
          "ticks": 4860,
          "time": 8.437496625,
          "velocity": 0.5669291338582677
        },
        {
          "duration": 0.15277771666666773,
          "durationTicks": 88,
          "midi": 52,
          "name": "E3",
          "ticks": 4920,
          "time": 8.54166325,
          "velocity": 0.5669291338582677
        },
        {
          "duration": 0.10069440416666708,
          "durationTicks": 58,
          "midi": 52,
          "name": "E3",
          "ticks": 5040,
          "time": 8.7499965,
          "velocity": 0.5669291338582677
        },
        {
          "duration": 0.10069440416666531,
          "durationTicks": 58,
          "midi": 52,
          "name": "E3",
          "ticks": 5160,
          "time": 8.95832975,
          "velocity": 0.5669291338582677
        },
        {
          "duration": 0.10069440416666708,
          "durationTicks": 58,
          "midi": 52,
          "name": "E3",
          "ticks": 5280,
          "time": 9.166663,
          "velocity": 0.5669291338582677
        },
        {
          "duration": 0.10069440416666708,
          "durationTicks": 58,
          "midi": 50,
          "name": "D3",
          "ticks": 5340,
          "time": 9.270829625,
          "velocity": 0.5669291338582677
        },
        {
          "duration": 0.15277771666666595,
          "durationTicks": 88,
          "midi": 48,
          "name": "C3",
          "ticks": 5400,
          "time": 9.37499625,
          "velocity": 0.5669291338582677
        },
        {
          "duration": 0.10069440416666708,
          "durationTicks": 58,
          "midi": 48,
          "name": "C3",
          "ticks": 5520,
          "time": 9.5833295,
          "velocity": 0.5669291338582677
        },
        {
          "duration": 0.10069440416666708,
          "durationTicks": 58,
          "midi": 48,
          "name": "C3",
          "ticks": 5640,
          "time": 9.79166275,
          "velocity": 0.5669291338582677
        },
        {
          "duration": 0.10069440416666708,
          "durationTicks": 58,
          "midi": 50,
          "name": "D3",
          "ticks": 5760,
          "time": 9.999996,
          "velocity": 0.5669291338582677
        },
        {
          "duration": 0.10069440416666531,
          "durationTicks": 58,
          "midi": 52,
          "name": "E3",
          "ticks": 5820,
          "time": 10.104162625,
          "velocity": 0.5669291338582677
        },
        {
          "duration": 0.15277771666666595,
          "durationTicks": 88,
          "midi": 53,
          "name": "F3",
          "ticks": 5880,
          "time": 10.20832925,
          "velocity": 0.5669291338582677
        },
        {
          "duration": 0.10069440416666708,
          "durationTicks": 58,
          "midi": 53,
          "name": "F3",
          "ticks": 6000,
          "time": 10.4166625,
          "velocity": 0.5669291338582677
        },
        {
          "duration": 0.10069440416666708,
          "durationTicks": 58,
          "midi": 53,
          "name": "F3",
          "ticks": 6120,
          "time": 10.62499575,
          "velocity": 0.5669291338582677
        },
        {
          "duration": 0.10069440416666708,
          "durationTicks": 58,
          "midi": 53,
          "name": "F3",
          "ticks": 6240,
          "time": 10.833328999999999,
          "velocity": 0.5669291338582677
        },
        {
          "duration": 0.10069440416666708,
          "durationTicks": 58,
          "midi": 52,
          "name": "E3",
          "ticks": 6300,
          "time": 10.937495625,
          "velocity": 0.5669291338582677
        },
        {
          "duration": 0.15277771666666595,
          "durationTicks": 88,
          "midi": 50,
          "name": "D3",
          "ticks": 6360,
          "time": 11.04166225,
          "velocity": 0.5669291338582677
        },
        {
          "duration": 0.10069440416666531,
          "durationTicks": 58,
          "midi": 50,
          "name": "D3",
          "ticks": 6480,
          "time": 11.2499955,
          "velocity": 0.5669291338582677
        },
        {
          "duration": 0.10069440416666708,
          "durationTicks": 58,
          "midi": 50,
          "name": "D3",
          "ticks": 6600,
          "time": 11.45832875,
          "velocity": 0.5669291338582677
        },
        {
          "duration": 0.10069440416666708,
          "durationTicks": 58,
          "midi": 50,
          "name": "D3",
          "ticks": 6720,
          "time": 11.666662,
          "velocity": 0.5669291338582677
        },
        {
          "duration": 0.10069440416666708,
          "durationTicks": 58,
          "midi": 52,
          "name": "E3",
          "ticks": 6780,
          "time": 11.770828625,
          "velocity": 0.5669291338582677
        },
        {
          "duration": 0.15277771666666773,
          "durationTicks": 88,
          "midi": 53,
          "name": "F3",
          "ticks": 6840,
          "time": 11.87499525,
          "velocity": 0.5669291338582677
        },
        {
          "duration": 0.10069440416666708,
          "durationTicks": 58,
          "midi": 53,
          "name": "F3",
          "ticks": 6960,
          "time": 12.0833285,
          "velocity": 0.5669291338582677
        },
        {
          "duration": 0.10069440416666708,
          "durationTicks": 58,
          "midi": 53,
          "name": "F3",
          "ticks": 7080,
          "time": 12.29166175,
          "velocity": 0.5669291338582677
        },
        {
          "duration": 0.10069440416666708,
          "durationTicks": 58,
          "midi": 53,
          "name": "F3",
          "ticks": 7200,
          "time": 12.499995,
          "velocity": 0.5669291338582677
        },
        {
          "duration": 0.10069440416666708,
          "durationTicks": 58,
          "midi": 52,
          "name": "E3",
          "ticks": 7260,
          "time": 12.604161625,
          "velocity": 0.5669291338582677
        },
        {
          "duration": 0.15277771666666773,
          "durationTicks": 88,
          "midi": 50,
          "name": "D3",
          "ticks": 7320,
          "time": 12.70832825,
          "velocity": 0.5669291338582677
        },
        {
          "duration": 0.10069440416666708,
          "durationTicks": 58,
          "midi": 50,
          "name": "D3",
          "ticks": 7440,
          "time": 12.9166615,
          "velocity": 0.5669291338582677
        },
        {
          "duration": 0.10069440416666708,
          "durationTicks": 58,
          "midi": 50,
          "name": "D3",
          "ticks": 7560,
          "time": 13.124994749999999,
          "velocity": 0.5669291338582677
        },
        {
          "duration": 0.10069440416666708,
          "durationTicks": 58,
          "midi": 52,
          "name": "E3",
          "ticks": 7680,
          "time": 13.333328,
          "velocity": 0.5669291338582677
        },
        {
          "duration": 0.10069440416666708,
          "durationTicks": 58,
          "midi": 56,
          "name": "G#3",
          "ticks": 7740,
          "time": 13.437494625,
          "velocity": 0.5669291338582677
        },
        {
          "duration": 0.15277771666666595,
          "durationTicks": 88,
          "midi": 59,
          "name": "B3",
          "ticks": 7800,
          "time": 13.54166125,
          "velocity": 0.5669291338582677
        },
        {
          "duration": 0.10069440416666708,
          "durationTicks": 58,
          "midi": 59,
          "name": "B3",
          "ticks": 7920,
          "time": 13.7499945,
          "velocity": 0.5669291338582677
        },
        {
          "duration": 0.10069440416666708,
          "durationTicks": 58,
          "midi": 59,
          "name": "B3",
          "ticks": 8040,
          "time": 13.95832775,
          "velocity": 0.5669291338582677
        },
        {
          "duration": 0.10069440416666708,
          "durationTicks": 58,
          "midi": 59,
          "name": "B3",
          "ticks": 8160,
          "time": 14.166661,
          "velocity": 0.5669291338582677
        },
        {
          "duration": 0.10069440416666708,
          "durationTicks": 58,
          "midi": 56,
          "name": "G#3",
          "ticks": 8220,
          "time": 14.270827624999999,
          "velocity": 0.5669291338582677
        },
        {
          "duration": 0.15277771666666595,
          "durationTicks": 88,
          "midi": 52,
          "name": "E3",
          "ticks": 8280,
          "time": 14.37499425,
          "velocity": 0.5669291338582677
        },
        {
          "duration": 0.10069440416666708,
          "durationTicks": 58,
          "midi": 52,
          "name": "E3",
          "ticks": 8400,
          "time": 14.5833275,
          "velocity": 0.5669291338582677
        },
        {
          "duration": 0.10069440416666708,
          "durationTicks": 58,
          "midi": 52,
          "name": "E3",
          "ticks": 8520,
          "time": 14.79166075,
          "velocity": 0.5669291338582677
        },
        {
          "duration": 0.10069440416666708,
          "durationTicks": 58,
          "midi": 52,
          "name": "E3",
          "ticks": 8640,
          "time": 14.999994,
          "velocity": 0.5669291338582677
        },
        {
          "duration": 0.10069440416666708,
          "durationTicks": 58,
          "midi": 57,
          "name": "A3",
          "ticks": 8700,
          "time": 15.104160625,
          "velocity": 0.5669291338582677
        },
        {
          "duration": 0.15277771666666595,
          "durationTicks": 88,
          "midi": 60,
          "name": "C4",
          "ticks": 8760,
          "time": 15.20832725,
          "velocity": 0.5669291338582677
        },
        {
          "duration": 0.10069440416666708,
          "durationTicks": 58,
          "midi": 60,
          "name": "C4",
          "ticks": 8880,
          "time": 15.416660499999999,
          "velocity": 0.5669291338582677
        },
        {
          "duration": 0.10069440416666708,
          "durationTicks": 58,
          "midi": 60,
          "name": "C4",
          "ticks": 9000,
          "time": 15.62499375,
          "velocity": 0.5669291338582677
        },
        {
          "duration": 0.10069440416666531,
          "durationTicks": 58,
          "midi": 60,
          "name": "C4",
          "ticks": 9120,
          "time": 15.833327,
          "velocity": 0.5669291338582677
        },
        {
          "duration": 0.10069440416666531,
          "durationTicks": 58,
          "midi": 57,
          "name": "A3",
          "ticks": 9180,
          "time": 15.937493625,
          "velocity": 0.5669291338582677
        },
        {
          "duration": 0.15277771666666595,
          "durationTicks": 88,
          "midi": 52,
          "name": "E3",
          "ticks": 9240,
          "time": 16.04166025,
          "velocity": 0.5669291338582677
        },
        {
          "duration": 0.10069440416666708,
          "durationTicks": 58,
          "midi": 52,
          "name": "E3",
          "ticks": 9360,
          "time": 16.2499935,
          "velocity": 0.5669291338582677
        },
        {
          "duration": 0.10069440416666708,
          "durationTicks": 58,
          "midi": 52,
          "name": "E3",
          "ticks": 9480,
          "time": 16.45832675,
          "velocity": 0.5669291338582677
        },
        {
          "duration": 0.4131942791666674,
          "durationTicks": 238,
          "midi": 52,
          "name": "E3",
          "ticks": 9600,
          "time": 16.66666,
          "velocity": 0.5669291338582677
        },
        {
          "duration": 0.4131942791666674,
          "durationTicks": 238,
          "midi": 52,
          "name": "E3",
          "ticks": 10080,
          "time": 17.499993,
          "velocity": 0.3779527559055118
        },
        {
          "duration": 0.4131942791666674,
          "durationTicks": 238,
          "midi": 51,
          "name": "D#3",
          "ticks": 10560,
          "time": 18.333326,
          "velocity": 0.3779527559055118
        },
        {
          "duration": 0.4131942791666674,
          "durationTicks": 238,
          "midi": 50,
          "name": "D3",
          "ticks": 11040,
          "time": 19.166659,
          "velocity": 0.3779527559055118
        },
        {
          "duration": 0.829860779166669,
          "durationTicks": 478,
          "midi": 48,
          "name": "C3",
          "ticks": 11520,
          "time": 19.999992,
          "velocity": 0.3779527559055118
        },
        {
          "duration": 0.10069440416666353,
          "durationTicks": 58,
          "midi": 48,
          "name": "C3",
          "ticks": 18240,
          "time": 31.666654,
          "velocity": 0.5669291338582677
        },
        {
          "duration": 0.10069440416666353,
          "durationTicks": 58,
          "midi": 50,
          "name": "D3",
          "ticks": 18300,
          "time": 31.770820625,
          "velocity": 0.5669291338582677
        },
        {
          "duration": 0.15277771666666595,
          "durationTicks": 88,
          "midi": 52,
          "name": "E3",
          "ticks": 18360,
          "time": 31.87498725,
          "velocity": 0.5669291338582677
        },
        {
          "duration": 0.10069440416666708,
          "durationTicks": 58,
          "midi": 52,
          "name": "E3",
          "ticks": 18480,
          "time": 32.0833205,
          "velocity": 0.5669291338582677
        },
        {
          "duration": 0.10069440416665998,
          "durationTicks": 58,
          "midi": 52,
          "name": "E3",
          "ticks": 18600,
          "time": 32.29165375,
          "velocity": 0.5669291338582677
        },
        {
          "duration": 0.10069440416666708,
          "durationTicks": 58,
          "midi": 51,
          "name": "D#3",
          "ticks": 18720,
          "time": 32.499987,
          "velocity": 0.5669291338582677
        },
        {
          "duration": 0.10069440416665998,
          "durationTicks": 58,
          "midi": 50,
          "name": "D3",
          "ticks": 18780,
          "time": 32.604153625,
          "velocity": 0.5669291338582677
        },
        {
          "duration": 0.1527777166666624,
          "durationTicks": 88,
          "midi": 48,
          "name": "C3",
          "ticks": 18840,
          "time": 32.70832025,
          "velocity": 0.5669291338582677
        },
        {
          "duration": 0.10069440416665998,
          "durationTicks": 58,
          "midi": 48,
          "name": "C3",
          "ticks": 18960,
          "time": 32.9166535,
          "velocity": 0.5669291338582677
        },
        {
          "duration": 0.10069440416666708,
          "durationTicks": 58,
          "midi": 48,
          "name": "C3",
          "ticks": 19080,
          "time": 33.12498675,
          "velocity": 0.5669291338582677
        },
        {
          "duration": 0.10069440416665998,
          "durationTicks": 58,
          "midi": 55,
          "name": "G3",
          "ticks": 19200,
          "time": 33.33332,
          "velocity": 0.5669291338582677
        },
        {
          "duration": 0.10069440416666708,
          "durationTicks": 58,
          "midi": 57,
          "name": "A3",
          "ticks": 19260,
          "time": 33.437486625,
          "velocity": 0.5669291338582677
        },
        {
          "duration": 0.1527777166666624,
          "durationTicks": 88,
          "midi": 59,
          "name": "B3",
          "ticks": 19320,
          "time": 33.54165325,
          "velocity": 0.5669291338582677
        },
        {
          "duration": 0.10069440416666708,
          "durationTicks": 58,
          "midi": 59,
          "name": "B3",
          "ticks": 19440,
          "time": 33.7499865,
          "velocity": 0.5669291338582677
        },
        {
          "duration": 0.10069440416665998,
          "durationTicks": 58,
          "midi": 59,
          "name": "B3",
          "ticks": 19560,
          "time": 33.95831975,
          "velocity": 0.5669291338582677
        },
        {
          "duration": 0.10069440416666708,
          "durationTicks": 58,
          "midi": 58,
          "name": "A#3",
          "ticks": 19680,
          "time": 34.166653,
          "velocity": 0.5669291338582677
        },
        {
          "duration": 0.10069440416665998,
          "durationTicks": 58,
          "midi": 57,
          "name": "A3",
          "ticks": 19740,
          "time": 34.270819625,
          "velocity": 0.5669291338582677
        },
        {
          "duration": 0.1527777166666624,
          "durationTicks": 88,
          "midi": 55,
          "name": "G3",
          "ticks": 19800,
          "time": 34.37498625,
          "velocity": 0.5669291338582677
        },
        {
          "duration": 0.10069440416665998,
          "durationTicks": 58,
          "midi": 55,
          "name": "G3",
          "ticks": 19920,
          "time": 34.5833195,
          "velocity": 0.5669291338582677
        },
        {
          "duration": 0.10069440416666708,
          "durationTicks": 58,
          "midi": 55,
          "name": "G3",
          "ticks": 20040,
          "time": 34.79165275,
          "velocity": 0.5669291338582677
        },
        {
          "duration": 0.10069440416666708,
          "durationTicks": 58,
          "midi": 62,
          "name": "D4",
          "ticks": 20160,
          "time": 34.999986,
          "velocity": 0.5669291338582677
        },
        {
          "duration": 0.10069440416666708,
          "durationTicks": 58,
          "midi": 64,
          "name": "E4",
          "ticks": 20220,
          "time": 35.104152625,
          "velocity": 0.5669291338582677
        },
        {
          "duration": 0.1527777166666624,
          "durationTicks": 88,
          "midi": 66,
          "name": "F#4",
          "ticks": 20280,
          "time": 35.20831925,
          "velocity": 0.5669291338582677
        },
        {
          "duration": 0.10069440416666708,
          "durationTicks": 58,
          "midi": 66,
          "name": "F#4",
          "ticks": 20400,
          "time": 35.4166525,
          "velocity": 0.5669291338582677
        },
        {
          "duration": 0.10069440416665998,
          "durationTicks": 58,
          "midi": 66,
          "name": "F#4",
          "ticks": 20520,
          "time": 35.62498575,
          "velocity": 0.5669291338582677
        },
        {
          "duration": 0.10069440416665998,
          "durationTicks": 58,
          "midi": 65,
          "name": "F4",
          "ticks": 20640,
          "time": 35.833319,
          "velocity": 0.5669291338582677
        },
        {
          "duration": 0.10069440416665998,
          "durationTicks": 58,
          "midi": 64,
          "name": "E4",
          "ticks": 20700,
          "time": 35.937485625,
          "velocity": 0.5669291338582677
        },
        {
          "duration": 0.1527777166666624,
          "durationTicks": 88,
          "midi": 62,
          "name": "D4",
          "ticks": 20760,
          "time": 36.04165225,
          "velocity": 0.5669291338582677
        },
        {
          "duration": 0.10069440416665998,
          "durationTicks": 58,
          "midi": 62,
          "name": "D4",
          "ticks": 20880,
          "time": 36.2499855,
          "velocity": 0.5669291338582677
        },
        {
          "duration": 0.10069440416666708,
          "durationTicks": 58,
          "midi": 62,
          "name": "D4",
          "ticks": 21000,
          "time": 36.45831875,
          "velocity": 0.5669291338582677
        },
        {
          "duration": 0.10069440416666708,
          "durationTicks": 58,
          "midi": 57,
          "name": "A3",
          "ticks": 21120,
          "time": 36.666652,
          "velocity": 0.5669291338582677
        },
        {
          "duration": 0.10069440416666708,
          "durationTicks": 58,
          "midi": 59,
          "name": "B3",
          "ticks": 21180,
          "time": 36.770818625,
          "velocity": 0.5669291338582677
        },
        {
          "duration": 0.1527777166666624,
          "durationTicks": 88,
          "midi": 61,
          "name": "C#4",
          "ticks": 21240,
          "time": 36.87498525,
          "velocity": 0.5669291338582677
        },
        {
          "duration": 0.10069440416666708,
          "durationTicks": 58,
          "midi": 61,
          "name": "C#4",
          "ticks": 21360,
          "time": 37.0833185,
          "velocity": 0.5669291338582677
        },
        {
          "duration": 0.10069440416666708,
          "durationTicks": 58,
          "midi": 61,
          "name": "C#4",
          "ticks": 21480,
          "time": 37.29165175,
          "velocity": 0.5669291338582677
        },
        {
          "duration": 0.10069440416665998,
          "durationTicks": 58,
          "midi": 60,
          "name": "C4",
          "ticks": 21600,
          "time": 37.499985,
          "velocity": 0.5669291338582677
        },
        {
          "duration": 0.10069440416665998,
          "durationTicks": 58,
          "midi": 59,
          "name": "B3",
          "ticks": 21660,
          "time": 37.604151625,
          "velocity": 0.5669291338582677
        },
        {
          "duration": 0.1527777166666624,
          "durationTicks": 88,
          "midi": 57,
          "name": "A3",
          "ticks": 21720,
          "time": 37.70831825,
          "velocity": 0.5669291338582677
        },
        {
          "duration": 0.10069440416665998,
          "durationTicks": 58,
          "midi": 57,
          "name": "A3",
          "ticks": 21840,
          "time": 37.9166515,
          "velocity": 0.5669291338582677
        },
        {
          "duration": 0.10069440416665998,
          "durationTicks": 58,
          "midi": 57,
          "name": "A3",
          "ticks": 21960,
          "time": 38.12498475,
          "velocity": 0.5669291338582677
        },
        {
          "duration": 0.10069440416666708,
          "durationTicks": 58,
          "midi": 64,
          "name": "E4",
          "ticks": 22080,
          "time": 38.333318,
          "velocity": 0.5669291338582677
        },
        {
          "duration": 0.10069440416666708,
          "durationTicks": 58,
          "midi": 66,
          "name": "F#4",
          "ticks": 22140,
          "time": 38.437484624999996,
          "velocity": 0.5669291338582677
        },
        {
          "duration": 0.1527777166666624,
          "durationTicks": 88,
          "midi": 68,
          "name": "G#4",
          "ticks": 22200,
          "time": 38.54165125,
          "velocity": 0.5669291338582677
        },
        {
          "duration": 0.10069440416666708,
          "durationTicks": 58,
          "midi": 68,
          "name": "G#4",
          "ticks": 22320,
          "time": 38.7499845,
          "velocity": 0.5669291338582677
        },
        {
          "duration": 0.10069440416666708,
          "durationTicks": 58,
          "midi": 68,
          "name": "G#4",
          "ticks": 22440,
          "time": 38.95831775,
          "velocity": 0.5669291338582677
        },
        {
          "duration": 0.10069440416665998,
          "durationTicks": 58,
          "midi": 67,
          "name": "G4",
          "ticks": 22560,
          "time": 39.166651,
          "velocity": 0.5669291338582677
        },
        {
          "duration": 0.10069440416666708,
          "durationTicks": 58,
          "midi": 66,
          "name": "F#4",
          "ticks": 22620,
          "time": 39.270817625,
          "velocity": 0.5669291338582677
        },
        {
          "duration": 0.1527777166666695,
          "durationTicks": 88,
          "midi": 64,
          "name": "E4",
          "ticks": 22680,
          "time": 39.37498425,
          "velocity": 0.5669291338582677
        },
        {
          "duration": 0.10069440416666708,
          "durationTicks": 58,
          "midi": 64,
          "name": "E4",
          "ticks": 22800,
          "time": 39.5833175,
          "velocity": 0.5669291338582677
        },
        {
          "duration": 0.10069440416665998,
          "durationTicks": 58,
          "midi": 64,
          "name": "E4",
          "ticks": 22920,
          "time": 39.79165075,
          "velocity": 0.5669291338582677
        },
        {
          "duration": 0.10069440416666708,
          "durationTicks": 58,
          "midi": 57,
          "name": "A3",
          "ticks": 23040,
          "time": 39.999984,
          "velocity": 0.5669291338582677
        },
        {
          "duration": 0.10069440416665998,
          "durationTicks": 58,
          "midi": 59,
          "name": "B3",
          "ticks": 23100,
          "time": 40.104150625,
          "velocity": 0.5669291338582677
        },
        {
          "duration": 0.1527777166666624,
          "durationTicks": 88,
          "midi": 60,
          "name": "C4",
          "ticks": 23160,
          "time": 40.20831725,
          "velocity": 0.5669291338582677
        },
        {
          "duration": 0.10069440416665998,
          "durationTicks": 58,
          "midi": 60,
          "name": "C4",
          "ticks": 23280,
          "time": 40.4166505,
          "velocity": 0.5669291338582677
        },
        {
          "duration": 0.10069440416666708,
          "durationTicks": 58,
          "midi": 60,
          "name": "C4",
          "ticks": 23400,
          "time": 40.62498375,
          "velocity": 0.5669291338582677
        },
        {
          "duration": 0.10069440416665998,
          "durationTicks": 58,
          "midi": 59,
          "name": "B3",
          "ticks": 23520,
          "time": 40.833317,
          "velocity": 0.5669291338582677
        },
        {
          "duration": 0.10069440416666708,
          "durationTicks": 58,
          "midi": 60,
          "name": "C4",
          "ticks": 23580,
          "time": 40.937483625,
          "velocity": 0.5669291338582677
        },
        {
          "duration": 0.1527777166666695,
          "durationTicks": 88,
          "midi": 62,
          "name": "D4",
          "ticks": 23640,
          "time": 41.041650249999996,
          "velocity": 0.5669291338582677
        },
        {
          "duration": 0.10069440416666708,
          "durationTicks": 58,
          "midi": 62,
          "name": "D4",
          "ticks": 23760,
          "time": 41.2499835,
          "velocity": 0.5669291338582677
        },
        {
          "duration": 0.10069440416665998,
          "durationTicks": 58,
          "midi": 62,
          "name": "D4",
          "ticks": 23880,
          "time": 41.45831675,
          "velocity": 0.5669291338582677
        },
        {
          "duration": 0.10069440416666708,
          "durationTicks": 58,
          "midi": 60,
          "name": "C4",
          "ticks": 24000,
          "time": 41.66665,
          "velocity": 0.5669291338582677
        },
        {
          "duration": 0.10069440416665998,
          "durationTicks": 58,
          "midi": 62,
          "name": "D4",
          "ticks": 24060,
          "time": 41.770816625,
          "velocity": 0.5669291338582677
        },
        {
          "duration": 0.1527777166666624,
          "durationTicks": 88,
          "midi": 64,
          "name": "E4",
          "ticks": 24120,
          "time": 41.87498325,
          "velocity": 0.5669291338582677
        },
        {
          "duration": 0.10069440416665998,
          "durationTicks": 58,
          "midi": 64,
          "name": "E4",
          "ticks": 24240,
          "time": 42.0833165,
          "velocity": 0.5669291338582677
        },
        {
          "duration": 0.10069440416666708,
          "durationTicks": 58,
          "midi": 64,
          "name": "E4",
          "ticks": 24360,
          "time": 42.29164975,
          "velocity": 0.5669291338582677
        },
        {
          "duration": 0.10069440416665998,
          "durationTicks": 58,
          "midi": 52,
          "name": "E3",
          "ticks": 24480,
          "time": 42.499983,
          "velocity": 0.5669291338582677
        },
        {
          "duration": 0.10069440416666708,
          "durationTicks": 58,
          "midi": 53,
          "name": "F3",
          "ticks": 24540,
          "time": 42.604149625,
          "velocity": 0.5669291338582677
        },
        {
          "duration": 0.1527777166666624,
          "durationTicks": 88,
          "midi": 55,
          "name": "G3",
          "ticks": 24600,
          "time": 42.70831625,
          "velocity": 0.5669291338582677
        },
        {
          "duration": 0.10069440416666708,
          "durationTicks": 58,
          "midi": 55,
          "name": "G3",
          "ticks": 24720,
          "time": 42.9166495,
          "velocity": 0.5669291338582677
        },
        {
          "duration": 0.10069440416665998,
          "durationTicks": 58,
          "midi": 55,
          "name": "G3",
          "ticks": 24840,
          "time": 43.12498275,
          "velocity": 0.5669291338582677
        },
        {
          "duration": 0.10069440416666708,
          "durationTicks": 58,
          "midi": 54,
          "name": "F#3",
          "ticks": 24960,
          "time": 43.333315999999996,
          "velocity": 0.5669291338582677
        },
        {
          "duration": 0.10069440416665998,
          "durationTicks": 58,
          "midi": 55,
          "name": "G3",
          "ticks": 25020,
          "time": 43.437482625,
          "velocity": 0.5669291338582677
        },
        {
          "duration": 0.1527777166666624,
          "durationTicks": 88,
          "midi": 57,
          "name": "A3",
          "ticks": 25080,
          "time": 43.54164925,
          "velocity": 0.5669291338582677
        },
        {
          "duration": 0.10069440416665998,
          "durationTicks": 58,
          "midi": 57,
          "name": "A3",
          "ticks": 25200,
          "time": 43.7499825,
          "velocity": 0.5669291338582677
        },
        {
          "duration": 0.10069440416666708,
          "durationTicks": 58,
          "midi": 57,
          "name": "A3",
          "ticks": 25320,
          "time": 43.95831575,
          "velocity": 0.5669291338582677
        },
        {
          "duration": 0.10069440416666708,
          "durationTicks": 58,
          "midi": 56,
          "name": "G#3",
          "ticks": 25440,
          "time": 44.166649,
          "velocity": 0.5669291338582677
        },
        {
          "duration": 0.10069440416666708,
          "durationTicks": 58,
          "midi": 57,
          "name": "A3",
          "ticks": 25500,
          "time": 44.270815625,
          "velocity": 0.5669291338582677
        },
        {
          "duration": 0.1527777166666624,
          "durationTicks": 88,
          "midi": 59,
          "name": "B3",
          "ticks": 25560,
          "time": 44.37498225,
          "velocity": 0.5669291338582677
        },
        {
          "duration": 0.10069440416666708,
          "durationTicks": 58,
          "midi": 59,
          "name": "B3",
          "ticks": 25680,
          "time": 44.5833155,
          "velocity": 0.5669291338582677
        },
        {
          "duration": 0.10069440416665998,
          "durationTicks": 58,
          "midi": 59,
          "name": "B3",
          "ticks": 25800,
          "time": 44.79164875,
          "velocity": 0.5669291338582677
        },
        {
          "duration": 0.10069440416665998,
          "durationTicks": 58,
          "midi": 57,
          "name": "A3",
          "ticks": 25920,
          "time": 44.999982,
          "velocity": 0.5669291338582677
        },
        {
          "duration": 0.10069440416665998,
          "durationTicks": 58,
          "midi": 59,
          "name": "B3",
          "ticks": 25980,
          "time": 45.104148625,
          "velocity": 0.5669291338582677
        },
        {
          "duration": 0.1527777166666624,
          "durationTicks": 88,
          "midi": 60,
          "name": "C4",
          "ticks": 26040,
          "time": 45.20831525,
          "velocity": 0.5669291338582677
        },
        {
          "duration": 0.10069440416665998,
          "durationTicks": 58,
          "midi": 60,
          "name": "C4",
          "ticks": 26160,
          "time": 45.4166485,
          "velocity": 0.5669291338582677
        },
        {
          "duration": 0.10069440416666708,
          "durationTicks": 58,
          "midi": 60,
          "name": "C4",
          "ticks": 26280,
          "time": 45.624981749999996,
          "velocity": 0.5669291338582677
        },
        {
          "duration": 0.10069440416666708,
          "durationTicks": 58,
          "midi": 55,
          "name": "G3",
          "ticks": 26400,
          "time": 45.833315,
          "velocity": 0.5669291338582677
        },
        {
          "duration": 0.10069440416666708,
          "durationTicks": 58,
          "midi": 57,
          "name": "A3",
          "ticks": 26460,
          "time": 45.937481625,
          "velocity": 0.5669291338582677
        },
        {
          "duration": 0.1527777166666624,
          "durationTicks": 88,
          "midi": 58,
          "name": "A#3",
          "ticks": 26520,
          "time": 46.04164825,
          "velocity": 0.5669291338582677
        },
        {
          "duration": 0.10069440416666708,
          "durationTicks": 58,
          "midi": 58,
          "name": "A#3",
          "ticks": 26640,
          "time": 46.2499815,
          "velocity": 0.5669291338582677
        },
        {
          "duration": 0.10069440416666708,
          "durationTicks": 58,
          "midi": 58,
          "name": "A#3",
          "ticks": 26760,
          "time": 46.45831475,
          "velocity": 0.5669291338582677
        },
        {
          "duration": 0.10069440416665998,
          "durationTicks": 58,
          "midi": 54,
          "name": "F#3",
          "ticks": 26880,
          "time": 46.666648,
          "velocity": 0.5669291338582677
        },
        {
          "duration": 0.10069440416665998,
          "durationTicks": 58,
          "midi": 55,
          "name": "G3",
          "ticks": 26940,
          "time": 46.770814625,
          "velocity": 0.5669291338582677
        },
        {
          "duration": 0.1527777166666624,
          "durationTicks": 88,
          "midi": 57,
          "name": "A3",
          "ticks": 27000,
          "time": 46.87498125,
          "velocity": 0.5669291338582677
        },
        {
          "duration": 0.10069440416665998,
          "durationTicks": 58,
          "midi": 57,
          "name": "A3",
          "ticks": 27120,
          "time": 47.0833145,
          "velocity": 0.5669291338582677
        },
        {
          "duration": 0.10069440416665998,
          "durationTicks": 58,
          "midi": 57,
          "name": "A3",
          "ticks": 27240,
          "time": 47.29164775,
          "velocity": 0.5669291338582677
        },
        {
          "duration": 0.10069440416666708,
          "durationTicks": 58,
          "midi": 57,
          "name": "A3",
          "ticks": 27360,
          "time": 47.499981,
          "velocity": 0.5669291338582677
        },
        {
          "duration": 0.10069440416666708,
          "durationTicks": 58,
          "midi": 55,
          "name": "G3",
          "ticks": 27420,
          "time": 47.604147624999996,
          "velocity": 0.5669291338582677
        },
        {
          "duration": 0.1527777166666624,
          "durationTicks": 88,
          "midi": 54,
          "name": "F#3",
          "ticks": 27480,
          "time": 47.70831425,
          "velocity": 0.5669291338582677
        },
        {
          "duration": 0.10069440416666708,
          "durationTicks": 58,
          "midi": 54,
          "name": "F#3",
          "ticks": 27600,
          "time": 47.916647499999996,
          "velocity": 0.5669291338582677
        },
        {
          "duration": 0.10069440416666708,
          "durationTicks": 58,
          "midi": 54,
          "name": "F#3",
          "ticks": 27720,
          "time": 48.12498075,
          "velocity": 0.5669291338582677
        },
        {
          "duration": 0.10069440416665998,
          "durationTicks": 58,
          "midi": 53,
          "name": "F3",
          "ticks": 27840,
          "time": 48.333314,
          "velocity": 0.5669291338582677
        },
        {
          "duration": 0.10069440416666708,
          "durationTicks": 58,
          "midi": 55,
          "name": "G3",
          "ticks": 27900,
          "time": 48.437480625,
          "velocity": 0.5669291338582677
        },
        {
          "duration": 0.1527777166666695,
          "durationTicks": 88,
          "midi": 57,
          "name": "A3",
          "ticks": 27960,
          "time": 48.54164725,
          "velocity": 0.5669291338582677
        },
        {
          "duration": 0.10069440416666708,
          "durationTicks": 58,
          "midi": 57,
          "name": "A3",
          "ticks": 28080,
          "time": 48.7499805,
          "velocity": 0.5669291338582677
        },
        {
          "duration": 0.10069440416665998,
          "durationTicks": 58,
          "midi": 57,
          "name": "A3",
          "ticks": 28200,
          "time": 48.95831375,
          "velocity": 0.5669291338582677
        },
        {
          "duration": 0.10069440416666708,
          "durationTicks": 58,
          "midi": 57,
          "name": "A3",
          "ticks": 28320,
          "time": 49.166647,
          "velocity": 0.5669291338582677
        },
        {
          "duration": 0.10069440416665998,
          "durationTicks": 58,
          "midi": 55,
          "name": "G3",
          "ticks": 28380,
          "time": 49.270813625,
          "velocity": 0.5669291338582677
        },
        {
          "duration": 0.1527777166666624,
          "durationTicks": 88,
          "midi": 53,
          "name": "F3",
          "ticks": 28440,
          "time": 49.37498025,
          "velocity": 0.5669291338582677
        },
        {
          "duration": 0.10069440416665998,
          "durationTicks": 58,
          "midi": 53,
          "name": "F3",
          "ticks": 28560,
          "time": 49.5833135,
          "velocity": 0.5669291338582677
        },
        {
          "duration": 0.10069440416666708,
          "durationTicks": 58,
          "midi": 53,
          "name": "F3",
          "ticks": 28680,
          "time": 49.79164675,
          "velocity": 0.5669291338582677
        },
        {
          "duration": 0.4131942791666603,
          "durationTicks": 238,
          "midi": 52,
          "name": "E3",
          "ticks": 28800,
          "time": 49.99998,
          "velocity": 0.5669291338582677
        },
        {
          "duration": 0.4131942791666674,
          "durationTicks": 238,
          "midi": 50,
          "name": "D3",
          "ticks": 29280,
          "time": 50.833313,
          "velocity": 0.3779527559055118
        },
        {
          "duration": 0.4131942791666603,
          "durationTicks": 238,
          "midi": 48,
          "name": "C3",
          "ticks": 29760,
          "time": 51.666646,
          "velocity": 0.3779527559055118
        },
        {
          "duration": 0.4131942791666674,
          "durationTicks": 238,
          "midi": 47,
          "name": "B2",
          "ticks": 30240,
          "time": 52.499978999999996,
          "velocity": 0.3779527559055118
        },
        {
          "duration": 0.8298607791666726,
          "durationTicks": 478,
          "midi": 45,
          "name": "A2",
          "ticks": 30720,
          "time": 53.333312,
          "velocity": 0.3779527559055118
        },
        {
          "duration": 0.4131942791666745,
          "durationTicks": 238,
          "midi": 57,
          "name": "A3",
          "ticks": 46080,
          "time": 79.999968,
          "velocity": 0.3779527559055118
        },
        {
          "duration": 0.4131942791666603,
          "durationTicks": 238,
          "midi": 57,
          "name": "A3",
          "ticks": 46560,
          "time": 80.833301,
          "velocity": 0.3779527559055118
        },
        {
          "duration": 0.4131942791666603,
          "durationTicks": 238,
          "midi": 57,
          "name": "A3",
          "ticks": 47040,
          "time": 81.666634,
          "velocity": 0.3779527559055118
        },
        {
          "duration": 0.4131942791666745,
          "durationTicks": 238,
          "midi": 57,
          "name": "A3",
          "ticks": 47520,
          "time": 82.499967,
          "velocity": 0.3779527559055118
        },
        {
          "duration": 0.4131942791666745,
          "durationTicks": 238,
          "midi": 51,
          "name": "D#3",
          "ticks": 48000,
          "time": 83.3333,
          "velocity": 0.3779527559055118
        },
        {
          "duration": 0.4131942791666603,
          "durationTicks": 238,
          "midi": 51,
          "name": "D#3",
          "ticks": 48480,
          "time": 84.166633,
          "velocity": 0.3779527559055118
        },
        {
          "duration": 0.4131942791666745,
          "durationTicks": 238,
          "midi": 51,
          "name": "D#3",
          "ticks": 48960,
          "time": 84.999966,
          "velocity": 0.3779527559055118
        },
        {
          "duration": 0.4131942791666745,
          "durationTicks": 238,
          "midi": 51,
          "name": "D#3",
          "ticks": 49440,
          "time": 85.833299,
          "velocity": 0.3779527559055118
        },
        {
          "duration": 0.4131942791666745,
          "durationTicks": 238,
          "midi": 51,
          "name": "D#3",
          "ticks": 49920,
          "time": 86.66663199999999,
          "velocity": 0.3779527559055118
        },
        {
          "duration": 0.4131942791666603,
          "durationTicks": 238,
          "midi": 51,
          "name": "D#3",
          "ticks": 50400,
          "time": 87.499965,
          "velocity": 0.3779527559055118
        },
        {
          "duration": 0.4131942791666745,
          "durationTicks": 238,
          "midi": 51,
          "name": "D#3",
          "ticks": 50880,
          "time": 88.333298,
          "velocity": 0.3779527559055118
        },
        {
          "duration": 0.4131942791666745,
          "durationTicks": 238,
          "midi": 51,
          "name": "D#3",
          "ticks": 51360,
          "time": 89.166631,
          "velocity": 0.3779527559055118
        },
        {
          "duration": 0.4131942791666603,
          "durationTicks": 238,
          "midi": 51,
          "name": "D#3",
          "ticks": 51840,
          "time": 89.999964,
          "velocity": 0.3779527559055118
        },
        {
          "duration": 0.4131942791666603,
          "durationTicks": 238,
          "midi": 51,
          "name": "D#3",
          "ticks": 52320,
          "time": 90.833297,
          "velocity": 0.3779527559055118
        },
        {
          "duration": 0.4131942791666745,
          "durationTicks": 238,
          "midi": 51,
          "name": "D#3",
          "ticks": 52800,
          "time": 91.66663,
          "velocity": 0.3779527559055118
        },
        {
          "duration": 0.4131942791666745,
          "durationTicks": 238,
          "midi": 51,
          "name": "D#3",
          "ticks": 53280,
          "time": 92.499963,
          "velocity": 0.3779527559055118
        },
        {
          "duration": 0.4131942791666603,
          "durationTicks": 238,
          "midi": 44,
          "name": "G#2",
          "ticks": 53760,
          "time": 93.333296,
          "velocity": 0.3779527559055118
        },
        {
          "duration": 0.4131942791666745,
          "durationTicks": 238,
          "midi": 56,
          "name": "G#3",
          "ticks": 54240,
          "time": 94.166629,
          "velocity": 0.3779527559055118
        },
        {
          "duration": 0.4131942791666745,
          "durationTicks": 238,
          "midi": 56,
          "name": "G#3",
          "ticks": 54720,
          "time": 94.999962,
          "velocity": 0.3779527559055118
        },
        {
          "duration": 0.4131942791666745,
          "durationTicks": 238,
          "midi": 56,
          "name": "G#3",
          "ticks": 55200,
          "time": 95.83329499999999,
          "velocity": 0.3779527559055118
        },
        {
          "duration": 0.4131942791666603,
          "durationTicks": 238,
          "midi": 50,
          "name": "D3",
          "ticks": 55680,
          "time": 96.666628,
          "velocity": 0.3779527559055118
        },
        {
          "duration": 0.4131942791666745,
          "durationTicks": 238,
          "midi": 50,
          "name": "D3",
          "ticks": 56160,
          "time": 97.499961,
          "velocity": 0.3779527559055118
        },
        {
          "duration": 0.4131942791666745,
          "durationTicks": 238,
          "midi": 50,
          "name": "D3",
          "ticks": 56640,
          "time": 98.333294,
          "velocity": 0.3779527559055118
        },
        {
          "duration": 0.4131942791666603,
          "durationTicks": 238,
          "midi": 50,
          "name": "D3",
          "ticks": 57120,
          "time": 99.166627,
          "velocity": 0.3779527559055118
        },
        {
          "duration": 0.4131942791666603,
          "durationTicks": 238,
          "midi": 50,
          "name": "D3",
          "ticks": 57600,
          "time": 99.99996,
          "velocity": 0.3779527559055118
        },
        {
          "duration": 0.4131942791666745,
          "durationTicks": 238,
          "midi": 50,
          "name": "D3",
          "ticks": 58080,
          "time": 100.833293,
          "velocity": 0.3779527559055118
        },
        {
          "duration": 0.4131942791666745,
          "durationTicks": 238,
          "midi": 50,
          "name": "D3",
          "ticks": 58560,
          "time": 101.666626,
          "velocity": 0.3779527559055118
        },
        {
          "duration": 0.4131942791666603,
          "durationTicks": 238,
          "midi": 50,
          "name": "D3",
          "ticks": 59040,
          "time": 102.499959,
          "velocity": 0.3779527559055118
        },
        {
          "duration": 0.4131942791666745,
          "durationTicks": 238,
          "midi": 50,
          "name": "D3",
          "ticks": 59520,
          "time": 103.333292,
          "velocity": 0.3779527559055118
        },
        {
          "duration": 0.4131942791666745,
          "durationTicks": 238,
          "midi": 50,
          "name": "D3",
          "ticks": 60000,
          "time": 104.166625,
          "velocity": 0.3779527559055118
        },
        {
          "duration": 0.4131942791666745,
          "durationTicks": 238,
          "midi": 50,
          "name": "D3",
          "ticks": 60480,
          "time": 104.99995799999999,
          "velocity": 0.3779527559055118
        },
        {
          "duration": 0.4131942791666603,
          "durationTicks": 238,
          "midi": 50,
          "name": "D3",
          "ticks": 60960,
          "time": 105.833291,
          "velocity": 0.3779527559055118
        },
        {
          "duration": 0.4131942791666745,
          "durationTicks": 238,
          "midi": 43,
          "name": "G2",
          "ticks": 61440,
          "time": 106.666624,
          "velocity": 0.3779527559055118
        },
        {
          "duration": 0.4131942791666745,
          "durationTicks": 238,
          "midi": 55,
          "name": "G3",
          "ticks": 61920,
          "time": 107.499957,
          "velocity": 0.3779527559055118
        },
        {
          "duration": 0.4131942791666603,
          "durationTicks": 238,
          "midi": 55,
          "name": "G3",
          "ticks": 62400,
          "time": 108.33329,
          "velocity": 0.3779527559055118
        },
        {
          "duration": 0.4131942791666603,
          "durationTicks": 238,
          "midi": 55,
          "name": "G3",
          "ticks": 62880,
          "time": 109.166623,
          "velocity": 0.3779527559055118
        },
        {
          "duration": 0.4131942791666745,
          "durationTicks": 238,
          "midi": 49,
          "name": "C#3",
          "ticks": 63360,
          "time": 109.999956,
          "velocity": 0.3779527559055118
        },
        {
          "duration": 0.4131942791666745,
          "durationTicks": 238,
          "midi": 49,
          "name": "C#3",
          "ticks": 63840,
          "time": 110.833289,
          "velocity": 0.3779527559055118
        },
        {
          "duration": 0.4131942791666603,
          "durationTicks": 238,
          "midi": 49,
          "name": "C#3",
          "ticks": 64320,
          "time": 111.666622,
          "velocity": 0.3779527559055118
        },
        {
          "duration": 0.4131942791666745,
          "durationTicks": 238,
          "midi": 49,
          "name": "C#3",
          "ticks": 64800,
          "time": 112.499955,
          "velocity": 0.3779527559055118
        },
        {
          "duration": 0.4131942791666745,
          "durationTicks": 238,
          "midi": 49,
          "name": "C#3",
          "ticks": 65280,
          "time": 113.333288,
          "velocity": 0.3779527559055118
        },
        {
          "duration": 0.4131942791666745,
          "durationTicks": 238,
          "midi": 49,
          "name": "C#3",
          "ticks": 65760,
          "time": 114.16662099999999,
          "velocity": 0.3779527559055118
        },
        {
          "duration": 0.4131942791666603,
          "durationTicks": 238,
          "midi": 49,
          "name": "C#3",
          "ticks": 66240,
          "time": 114.999954,
          "velocity": 0.3779527559055118
        },
        {
          "duration": 0.4131942791666745,
          "durationTicks": 238,
          "midi": 49,
          "name": "C#3",
          "ticks": 66720,
          "time": 115.833287,
          "velocity": 0.3779527559055118
        },
        {
          "duration": 0.4131942791666745,
          "durationTicks": 238,
          "midi": 48,
          "name": "C3",
          "ticks": 67200,
          "time": 116.66662,
          "velocity": 0.3779527559055118
        },
        {
          "duration": 0.4131942791666603,
          "durationTicks": 238,
          "midi": 48,
          "name": "C3",
          "ticks": 67680,
          "time": 117.499953,
          "velocity": 0.3779527559055118
        },
        {
          "duration": 0.4131942791666603,
          "durationTicks": 238,
          "midi": 48,
          "name": "C3",
          "ticks": 68160,
          "time": 118.333286,
          "velocity": 0.3779527559055118
        },
        {
          "duration": 0.4131942791666745,
          "durationTicks": 238,
          "midi": 48,
          "name": "C3",
          "ticks": 68640,
          "time": 119.166619,
          "velocity": 0.3779527559055118
        },
        {
          "duration": 0.4131942791666745,
          "durationTicks": 238,
          "midi": 48,
          "name": "C3",
          "ticks": 69120,
          "time": 119.999952,
          "velocity": 0.3779527559055118
        },
        {
          "duration": 0.4131942791666603,
          "durationTicks": 238,
          "midi": 48,
          "name": "C3",
          "ticks": 69600,
          "time": 120.833285,
          "velocity": 0.3779527559055118
        },
        {
          "duration": 0.4131942791666745,
          "durationTicks": 238,
          "midi": 48,
          "name": "C3",
          "ticks": 70080,
          "time": 121.666618,
          "velocity": 0.3779527559055118
        },
        {
          "duration": 0.4131942791666745,
          "durationTicks": 238,
          "midi": 48,
          "name": "C3",
          "ticks": 70560,
          "time": 122.499951,
          "velocity": 0.3779527559055118
        },
        {
          "duration": 0.4131942791666745,
          "durationTicks": 238,
          "midi": 48,
          "name": "C3",
          "ticks": 71040,
          "time": 123.33328399999999,
          "velocity": 0.3779527559055118
        },
        {
          "duration": 0.4131942791666603,
          "durationTicks": 238,
          "midi": 48,
          "name": "C3",
          "ticks": 71520,
          "time": 124.166617,
          "velocity": 0.3779527559055118
        },
        {
          "duration": 0.4131942791666745,
          "durationTicks": 238,
          "midi": 48,
          "name": "C3",
          "ticks": 72000,
          "time": 124.99995,
          "velocity": 0.3779527559055118
        },
        {
          "duration": 0.4131942791666745,
          "durationTicks": 238,
          "midi": 48,
          "name": "C3",
          "ticks": 72480,
          "time": 125.833283,
          "velocity": 0.3779527559055118
        },
        {
          "duration": 0.4131942791666603,
          "durationTicks": 238,
          "midi": 41,
          "name": "F2",
          "ticks": 72960,
          "time": 126.666616,
          "velocity": 0.3779527559055118
        },
        {
          "duration": 0.4131942791666745,
          "durationTicks": 238,
          "midi": 41,
          "name": "F2",
          "ticks": 73440,
          "time": 127.499949,
          "velocity": 0.3779527559055118
        },
        {
          "duration": 0.4131942791666745,
          "durationTicks": 238,
          "midi": 41,
          "name": "F2",
          "ticks": 73920,
          "time": 128.333282,
          "velocity": 0.3779527559055118
        },
        {
          "duration": 0.4131942791666745,
          "durationTicks": 238,
          "midi": 41,
          "name": "F2",
          "ticks": 74400,
          "time": 129.166615,
          "velocity": 0.3779527559055118
        },
        {
          "duration": 0.8298607791666655,
          "durationTicks": 478,
          "midi": 41,
          "name": "F2",
          "ticks": 74880,
          "time": 129.999948,
          "velocity": 0.3779527559055118
        },
        {
          "duration": 1.327777445833334,
          "durationTicks": 478,
          "midi": 52,
          "name": "E3",
          "ticks": 75840,
          "time": 133.233281,
          "velocity": 0.3779527559055118
        }
      ]
    },
    {
      "channel": 0,
      "controlChanges": {},
      "pitchBends": [],
      "instrument": {
        "family": "piano",
        "number": 0,
        "name": "acoustic grand piano"
      },
      "name": "Contrabass",
      "notes": [],
      "endOfTrackTicks": 76800
    },
    {
      "channel": 8,
      "controlChanges": {
        "7": [
          {
            "number": 7,
            "ticks": 0,
            "time": 0,
            "value": 0.8188976377952756
          }
        ],
        "10": [
          {
            "number": 10,
            "ticks": 0,
            "time": 0,
            "value": 0.7874015748031497
          }
        ],
        "11": [
          {
            "number": 11,
            "ticks": 0,
            "time": 0,
            "value": 1
          }
        ]
      },
      "pitchBends": [],
      "instrument": {
        "family": "ensemble",
        "number": 48,
        "name": "string ensemble 1"
      },
      "name": "",
      "notes": [
        {
          "duration": 0.10069440416666667,
          "durationTicks": 58,
          "midi": 33,
          "name": "A1",
          "ticks": 0,
          "time": 0,
          "velocity": 0.5669291338582677
        },
        {
          "duration": 0.10069440416666665,
          "durationTicks": 58,
          "midi": 35,
          "name": "B1",
          "ticks": 60,
          "time": 0.104166625,
          "velocity": 0.5669291338582677
        },
        {
          "duration": 0.1527777166666667,
          "durationTicks": 88,
          "midi": 36,
          "name": "C2",
          "ticks": 120,
          "time": 0.20833325,
          "velocity": 0.5669291338582677
        },
        {
          "duration": 0.1006944041666667,
          "durationTicks": 58,
          "midi": 36,
          "name": "C2",
          "ticks": 240,
          "time": 0.4166665,
          "velocity": 0.5669291338582677
        },
        {
          "duration": 0.10069440416666675,
          "durationTicks": 58,
          "midi": 36,
          "name": "C2",
          "ticks": 360,
          "time": 0.62499975,
          "velocity": 0.5669291338582677
        },
        {
          "duration": 0.10069440416666664,
          "durationTicks": 58,
          "midi": 36,
          "name": "C2",
          "ticks": 480,
          "time": 0.833333,
          "velocity": 0.5669291338582677
        },
        {
          "duration": 0.10069440416666675,
          "durationTicks": 58,
          "midi": 35,
          "name": "B1",
          "ticks": 540,
          "time": 0.937499625,
          "velocity": 0.5669291338582677
        },
        {
          "duration": 0.15277771666666662,
          "durationTicks": 88,
          "midi": 33,
          "name": "A1",
          "ticks": 600,
          "time": 1.04166625,
          "velocity": 0.5669291338582677
        },
        {
          "duration": 0.10069440416666664,
          "durationTicks": 58,
          "midi": 33,
          "name": "A1",
          "ticks": 720,
          "time": 1.2499995,
          "velocity": 0.5669291338582677
        },
        {
          "duration": 0.10069440416666664,
          "durationTicks": 58,
          "midi": 33,
          "name": "A1",
          "ticks": 840,
          "time": 1.45833275,
          "velocity": 0.5669291338582677
        },
        {
          "duration": 0.10069440416666642,
          "durationTicks": 58,
          "midi": 33,
          "name": "A1",
          "ticks": 960,
          "time": 1.666666,
          "velocity": 0.5669291338582677
        },
        {
          "duration": 0.10069440416666664,
          "durationTicks": 58,
          "midi": 35,
          "name": "B1",
          "ticks": 1020,
          "time": 1.770832625,
          "velocity": 0.5669291338582677
        },
        {
          "duration": 0.15277771666666662,
          "durationTicks": 88,
          "midi": 36,
          "name": "C2",
          "ticks": 1080,
          "time": 1.87499925,
          "velocity": 0.5669291338582677
        },
        {
          "duration": 0.10069440416666664,
          "durationTicks": 58,
          "midi": 36,
          "name": "C2",
          "ticks": 1200,
          "time": 2.0833325,
          "velocity": 0.5669291338582677
        },
        {
          "duration": 0.10069440416666664,
          "durationTicks": 58,
          "midi": 36,
          "name": "C2",
          "ticks": 1320,
          "time": 2.29166575,
          "velocity": 0.5669291338582677
        },
        {
          "duration": 0.10069440416666664,
          "durationTicks": 58,
          "midi": 36,
          "name": "C2",
          "ticks": 1440,
          "time": 2.499999,
          "velocity": 0.5669291338582677
        },
        {
          "duration": 0.10069440416666664,
          "durationTicks": 58,
          "midi": 35,
          "name": "B1",
          "ticks": 1500,
          "time": 2.604165625,
          "velocity": 0.5669291338582677
        },
        {
          "duration": 0.15277771666666684,
          "durationTicks": 88,
          "midi": 33,
          "name": "A1",
          "ticks": 1560,
          "time": 2.7083322499999998,
          "velocity": 0.5669291338582677
        },
        {
          "duration": 0.1006944041666662,
          "durationTicks": 58,
          "midi": 33,
          "name": "A1",
          "ticks": 1680,
          "time": 2.9166655,
          "velocity": 0.5669291338582677
        },
        {
          "duration": 0.1006944041666662,
          "durationTicks": 58,
          "midi": 33,
          "name": "A1",
          "ticks": 1800,
          "time": 3.12499875,
          "velocity": 0.5669291338582677
        },
        {
          "duration": 0.10069440416666708,
          "durationTicks": 58,
          "midi": 35,
          "name": "B1",
          "ticks": 1920,
          "time": 3.333332,
          "velocity": 0.5669291338582677
        },
        {
          "duration": 0.10069440416666708,
          "durationTicks": 58,
          "midi": 36,
          "name": "C2",
          "ticks": 1980,
          "time": 3.437498625,
          "velocity": 0.5669291338582677
        },
        {
          "duration": 0.15277771666666684,
          "durationTicks": 88,
          "midi": 38,
          "name": "D2",
          "ticks": 2040,
          "time": 3.54166525,
          "velocity": 0.5669291338582677
        },
        {
          "duration": 0.10069440416666708,
          "durationTicks": 58,
          "midi": 38,
          "name": "D2",
          "ticks": 2160,
          "time": 3.7499985,
          "velocity": 0.5669291338582677
        },
        {
          "duration": 0.10069440416666708,
          "durationTicks": 58,
          "midi": 38,
          "name": "D2",
          "ticks": 2280,
          "time": 3.95833175,
          "velocity": 0.5669291338582677
        },
        {
          "duration": 0.10069440416666708,
          "durationTicks": 58,
          "midi": 38,
          "name": "D2",
          "ticks": 2400,
          "time": 4.166665,
          "velocity": 0.5669291338582677
        },
        {
          "duration": 0.10069440416666708,
          "durationTicks": 58,
          "midi": 36,
          "name": "C2",
          "ticks": 2460,
          "time": 4.270831625,
          "velocity": 0.5669291338582677
        },
        {
          "duration": 0.15277771666666684,
          "durationTicks": 88,
          "midi": 35,
          "name": "B1",
          "ticks": 2520,
          "time": 4.37499825,
          "velocity": 0.5669291338582677
        },
        {
          "duration": 0.10069440416666708,
          "durationTicks": 58,
          "midi": 35,
          "name": "B1",
          "ticks": 2640,
          "time": 4.5833315,
          "velocity": 0.5669291338582677
        },
        {
          "duration": 0.10069440416666708,
          "durationTicks": 58,
          "midi": 35,
          "name": "B1",
          "ticks": 2760,
          "time": 4.79166475,
          "velocity": 0.5669291338582677
        },
        {
          "duration": 0.10069440416666708,
          "durationTicks": 58,
          "midi": 35,
          "name": "B1",
          "ticks": 2880,
          "time": 4.999998,
          "velocity": 0.5669291338582677
        },
        {
          "duration": 0.10069440416666708,
          "durationTicks": 58,
          "midi": 36,
          "name": "C2",
          "ticks": 2940,
          "time": 5.104164625,
          "velocity": 0.5669291338582677
        },
        {
          "duration": 0.15277771666666684,
          "durationTicks": 88,
          "midi": 38,
          "name": "D2",
          "ticks": 3000,
          "time": 5.20833125,
          "velocity": 0.5669291338582677
        },
        {
          "duration": 0.10069440416666708,
          "durationTicks": 58,
          "midi": 38,
          "name": "D2",
          "ticks": 3120,
          "time": 5.4166644999999995,
          "velocity": 0.5669291338582677
        },
        {
          "duration": 0.1006944041666662,
          "durationTicks": 58,
          "midi": 38,
          "name": "D2",
          "ticks": 3240,
          "time": 5.62499775,
          "velocity": 0.5669291338582677
        },
        {
          "duration": 0.1006944041666662,
          "durationTicks": 58,
          "midi": 38,
          "name": "D2",
          "ticks": 3360,
          "time": 5.833331,
          "velocity": 0.5669291338582677
        },
        {
          "duration": 0.10069440416666708,
          "durationTicks": 58,
          "midi": 36,
          "name": "C2",
          "ticks": 3420,
          "time": 5.937497625,
          "velocity": 0.5669291338582677
        },
        {
          "duration": 0.15277771666666684,
          "durationTicks": 88,
          "midi": 35,
          "name": "B1",
          "ticks": 3480,
          "time": 6.04166425,
          "velocity": 0.5669291338582677
        },
        {
          "duration": 0.10069440416666708,
          "durationTicks": 58,
          "midi": 35,
          "name": "B1",
          "ticks": 3600,
          "time": 6.2499975,
          "velocity": 0.5669291338582677
        },
        {
          "duration": 0.10069440416666708,
          "durationTicks": 58,
          "midi": 35,
          "name": "B1",
          "ticks": 3720,
          "time": 6.45833075,
          "velocity": 0.5669291338582677
        },
        {
          "duration": 0.10069440416666708,
          "durationTicks": 58,
          "midi": 36,
          "name": "C2",
          "ticks": 3840,
          "time": 6.666664,
          "velocity": 0.5669291338582677
        },
        {
          "duration": 0.1006944041666662,
          "durationTicks": 58,
          "midi": 38,
          "name": "D2",
          "ticks": 3900,
          "time": 6.770830625,
          "velocity": 0.5669291338582677
        },
        {
          "duration": 0.15277771666666684,
          "durationTicks": 88,
          "midi": 40,
          "name": "E2",
          "ticks": 3960,
          "time": 6.87499725,
          "velocity": 0.5669291338582677
        },
        {
          "duration": 0.10069440416666708,
          "durationTicks": 58,
          "midi": 40,
          "name": "E2",
          "ticks": 4080,
          "time": 7.0833305,
          "velocity": 0.5669291338582677
        },
        {
          "duration": 0.10069440416666708,
          "durationTicks": 58,
          "midi": 40,
          "name": "E2",
          "ticks": 4200,
          "time": 7.29166375,
          "velocity": 0.5669291338582677
        },
        {
          "duration": 0.10069440416666708,
          "durationTicks": 58,
          "midi": 40,
          "name": "E2",
          "ticks": 4320,
          "time": 7.499997,
          "velocity": 0.5669291338582677
        },
        {
          "duration": 0.10069440416666708,
          "durationTicks": 58,
          "midi": 38,
          "name": "D2",
          "ticks": 4380,
          "time": 7.604163625,
          "velocity": 0.5669291338582677
        },
        {
          "duration": 0.15277771666666684,
          "durationTicks": 88,
          "midi": 36,
          "name": "C2",
          "ticks": 4440,
          "time": 7.7083302499999995,
          "velocity": 0.5669291338582677
        },
        {
          "duration": 0.10069440416666708,
          "durationTicks": 58,
          "midi": 36,
          "name": "C2",
          "ticks": 4560,
          "time": 7.9166635,
          "velocity": 0.5669291338582677
        },
        {
          "duration": 0.10069440416666708,
          "durationTicks": 58,
          "midi": 36,
          "name": "C2",
          "ticks": 4680,
          "time": 8.12499675,
          "velocity": 0.5669291338582677
        },
        {
          "duration": 0.10069440416666708,
          "durationTicks": 58,
          "midi": 36,
          "name": "C2",
          "ticks": 4800,
          "time": 8.33333,
          "velocity": 0.5669291338582677
        },
        {
          "duration": 0.10069440416666708,
          "durationTicks": 58,
          "midi": 38,
          "name": "D2",
          "ticks": 4860,
          "time": 8.437496625,
          "velocity": 0.5669291338582677
        },
        {
          "duration": 0.15277771666666773,
          "durationTicks": 88,
          "midi": 40,
          "name": "E2",
          "ticks": 4920,
          "time": 8.54166325,
          "velocity": 0.5669291338582677
        },
        {
          "duration": 0.10069440416666708,
          "durationTicks": 58,
          "midi": 40,
          "name": "E2",
          "ticks": 5040,
          "time": 8.7499965,
          "velocity": 0.5669291338582677
        },
        {
          "duration": 0.10069440416666531,
          "durationTicks": 58,
          "midi": 40,
          "name": "E2",
          "ticks": 5160,
          "time": 8.95832975,
          "velocity": 0.5669291338582677
        },
        {
          "duration": 0.10069440416666708,
          "durationTicks": 58,
          "midi": 40,
          "name": "E2",
          "ticks": 5280,
          "time": 9.166663,
          "velocity": 0.5669291338582677
        },
        {
          "duration": 0.10069440416666708,
          "durationTicks": 58,
          "midi": 38,
          "name": "D2",
          "ticks": 5340,
          "time": 9.270829625,
          "velocity": 0.5669291338582677
        },
        {
          "duration": 0.15277771666666595,
          "durationTicks": 88,
          "midi": 36,
          "name": "C2",
          "ticks": 5400,
          "time": 9.37499625,
          "velocity": 0.5669291338582677
        },
        {
          "duration": 0.10069440416666708,
          "durationTicks": 58,
          "midi": 36,
          "name": "C2",
          "ticks": 5520,
          "time": 9.5833295,
          "velocity": 0.5669291338582677
        },
        {
          "duration": 0.10069440416666708,
          "durationTicks": 58,
          "midi": 36,
          "name": "C2",
          "ticks": 5640,
          "time": 9.79166275,
          "velocity": 0.5669291338582677
        },
        {
          "duration": 0.10069440416666708,
          "durationTicks": 58,
          "midi": 38,
          "name": "D2",
          "ticks": 5760,
          "time": 9.999996,
          "velocity": 0.5669291338582677
        },
        {
          "duration": 0.10069440416666531,
          "durationTicks": 58,
          "midi": 40,
          "name": "E2",
          "ticks": 5820,
          "time": 10.104162625,
          "velocity": 0.5669291338582677
        },
        {
          "duration": 0.15277771666666595,
          "durationTicks": 88,
          "midi": 41,
          "name": "F2",
          "ticks": 5880,
          "time": 10.20832925,
          "velocity": 0.5669291338582677
        },
        {
          "duration": 0.10069440416666708,
          "durationTicks": 58,
          "midi": 41,
          "name": "F2",
          "ticks": 6000,
          "time": 10.4166625,
          "velocity": 0.5669291338582677
        },
        {
          "duration": 0.10069440416666708,
          "durationTicks": 58,
          "midi": 41,
          "name": "F2",
          "ticks": 6120,
          "time": 10.62499575,
          "velocity": 0.5669291338582677
        },
        {
          "duration": 0.10069440416666708,
          "durationTicks": 58,
          "midi": 41,
          "name": "F2",
          "ticks": 6240,
          "time": 10.833328999999999,
          "velocity": 0.5669291338582677
        },
        {
          "duration": 0.10069440416666708,
          "durationTicks": 58,
          "midi": 40,
          "name": "E2",
          "ticks": 6300,
          "time": 10.937495625,
          "velocity": 0.5669291338582677
        },
        {
          "duration": 0.15277771666666595,
          "durationTicks": 88,
          "midi": 38,
          "name": "D2",
          "ticks": 6360,
          "time": 11.04166225,
          "velocity": 0.5669291338582677
        },
        {
          "duration": 0.10069440416666531,
          "durationTicks": 58,
          "midi": 38,
          "name": "D2",
          "ticks": 6480,
          "time": 11.2499955,
          "velocity": 0.5669291338582677
        },
        {
          "duration": 0.10069440416666708,
          "durationTicks": 58,
          "midi": 38,
          "name": "D2",
          "ticks": 6600,
          "time": 11.45832875,
          "velocity": 0.5669291338582677
        },
        {
          "duration": 0.10069440416666708,
          "durationTicks": 58,
          "midi": 38,
          "name": "D2",
          "ticks": 6720,
          "time": 11.666662,
          "velocity": 0.5669291338582677
        },
        {
          "duration": 0.10069440416666708,
          "durationTicks": 58,
          "midi": 40,
          "name": "E2",
          "ticks": 6780,
          "time": 11.770828625,
          "velocity": 0.5669291338582677
        },
        {
          "duration": 0.15277771666666773,
          "durationTicks": 88,
          "midi": 41,
          "name": "F2",
          "ticks": 6840,
          "time": 11.87499525,
          "velocity": 0.5669291338582677
        },
        {
          "duration": 0.10069440416666708,
          "durationTicks": 58,
          "midi": 41,
          "name": "F2",
          "ticks": 6960,
          "time": 12.0833285,
          "velocity": 0.5669291338582677
        },
        {
          "duration": 0.10069440416666708,
          "durationTicks": 58,
          "midi": 41,
          "name": "F2",
          "ticks": 7080,
          "time": 12.29166175,
          "velocity": 0.5669291338582677
        },
        {
          "duration": 0.10069440416666708,
          "durationTicks": 58,
          "midi": 41,
          "name": "F2",
          "ticks": 7200,
          "time": 12.499995,
          "velocity": 0.5669291338582677
        },
        {
          "duration": 0.10069440416666708,
          "durationTicks": 58,
          "midi": 40,
          "name": "E2",
          "ticks": 7260,
          "time": 12.604161625,
          "velocity": 0.5669291338582677
        },
        {
          "duration": 0.15277771666666773,
          "durationTicks": 88,
          "midi": 38,
          "name": "D2",
          "ticks": 7320,
          "time": 12.70832825,
          "velocity": 0.5669291338582677
        },
        {
          "duration": 0.10069440416666708,
          "durationTicks": 58,
          "midi": 38,
          "name": "D2",
          "ticks": 7440,
          "time": 12.9166615,
          "velocity": 0.5669291338582677
        },
        {
          "duration": 0.10069440416666708,
          "durationTicks": 58,
          "midi": 38,
          "name": "D2",
          "ticks": 7560,
          "time": 13.124994749999999,
          "velocity": 0.5669291338582677
        },
        {
          "duration": 0.10069440416666708,
          "durationTicks": 58,
          "midi": 40,
          "name": "E2",
          "ticks": 7680,
          "time": 13.333328,
          "velocity": 0.5669291338582677
        },
        {
          "duration": 0.10069440416666708,
          "durationTicks": 58,
          "midi": 44,
          "name": "G#2",
          "ticks": 7740,
          "time": 13.437494625,
          "velocity": 0.5669291338582677
        },
        {
          "duration": 0.15277771666666595,
          "durationTicks": 88,
          "midi": 47,
          "name": "B2",
          "ticks": 7800,
          "time": 13.54166125,
          "velocity": 0.5669291338582677
        },
        {
          "duration": 0.10069440416666708,
          "durationTicks": 58,
          "midi": 47,
          "name": "B2",
          "ticks": 7920,
          "time": 13.7499945,
          "velocity": 0.5669291338582677
        },
        {
          "duration": 0.10069440416666708,
          "durationTicks": 58,
          "midi": 47,
          "name": "B2",
          "ticks": 8040,
          "time": 13.95832775,
          "velocity": 0.5669291338582677
        },
        {
          "duration": 0.10069440416666708,
          "durationTicks": 58,
          "midi": 47,
          "name": "B2",
          "ticks": 8160,
          "time": 14.166661,
          "velocity": 0.5669291338582677
        },
        {
          "duration": 0.10069440416666708,
          "durationTicks": 58,
          "midi": 44,
          "name": "G#2",
          "ticks": 8220,
          "time": 14.270827624999999,
          "velocity": 0.5669291338582677
        },
        {
          "duration": 0.15277771666666595,
          "durationTicks": 88,
          "midi": 40,
          "name": "E2",
          "ticks": 8280,
          "time": 14.37499425,
          "velocity": 0.5669291338582677
        },
        {
          "duration": 0.10069440416666708,
          "durationTicks": 58,
          "midi": 40,
          "name": "E2",
          "ticks": 8400,
          "time": 14.5833275,
          "velocity": 0.5669291338582677
        },
        {
          "duration": 0.10069440416666708,
          "durationTicks": 58,
          "midi": 40,
          "name": "E2",
          "ticks": 8520,
          "time": 14.79166075,
          "velocity": 0.5669291338582677
        },
        {
          "duration": 0.10069440416666708,
          "durationTicks": 58,
          "midi": 40,
          "name": "E2",
          "ticks": 8640,
          "time": 14.999994,
          "velocity": 0.5669291338582677
        },
        {
          "duration": 0.10069440416666708,
          "durationTicks": 58,
          "midi": 45,
          "name": "A2",
          "ticks": 8700,
          "time": 15.104160625,
          "velocity": 0.5669291338582677
        },
        {
          "duration": 0.15277771666666595,
          "durationTicks": 88,
          "midi": 48,
          "name": "C3",
          "ticks": 8760,
          "time": 15.20832725,
          "velocity": 0.5669291338582677
        },
        {
          "duration": 0.10069440416666708,
          "durationTicks": 58,
          "midi": 48,
          "name": "C3",
          "ticks": 8880,
          "time": 15.416660499999999,
          "velocity": 0.5669291338582677
        },
        {
          "duration": 0.10069440416666708,
          "durationTicks": 58,
          "midi": 48,
          "name": "C3",
          "ticks": 9000,
          "time": 15.62499375,
          "velocity": 0.5669291338582677
        },
        {
          "duration": 0.10069440416666531,
          "durationTicks": 58,
          "midi": 48,
          "name": "C3",
          "ticks": 9120,
          "time": 15.833327,
          "velocity": 0.5669291338582677
        },
        {
          "duration": 0.10069440416666531,
          "durationTicks": 58,
          "midi": 45,
          "name": "A2",
          "ticks": 9180,
          "time": 15.937493625,
          "velocity": 0.5669291338582677
        },
        {
          "duration": 0.15277771666666595,
          "durationTicks": 88,
          "midi": 40,
          "name": "E2",
          "ticks": 9240,
          "time": 16.04166025,
          "velocity": 0.5669291338582677
        },
        {
          "duration": 0.10069440416666708,
          "durationTicks": 58,
          "midi": 40,
          "name": "E2",
          "ticks": 9360,
          "time": 16.2499935,
          "velocity": 0.5669291338582677
        },
        {
          "duration": 0.10069440416666708,
          "durationTicks": 58,
          "midi": 40,
          "name": "E2",
          "ticks": 9480,
          "time": 16.45832675,
          "velocity": 0.5669291338582677
        },
        {
          "duration": 0.4131942791666674,
          "durationTicks": 238,
          "midi": 40,
          "name": "E2",
          "ticks": 9600,
          "time": 16.66666,
          "velocity": 0.5669291338582677
        },
        {
          "duration": 0.4131942791666674,
          "durationTicks": 238,
          "midi": 40,
          "name": "E2",
          "ticks": 10080,
          "time": 17.499993,
          "velocity": 0.3779527559055118
        },
        {
          "duration": 0.4131942791666674,
          "durationTicks": 238,
          "midi": 39,
          "name": "D#2",
          "ticks": 10560,
          "time": 18.333326,
          "velocity": 0.3779527559055118
        },
        {
          "duration": 0.4131942791666674,
          "durationTicks": 238,
          "midi": 38,
          "name": "D2",
          "ticks": 11040,
          "time": 19.166659,
          "velocity": 0.3779527559055118
        },
        {
          "duration": 0.829860779166669,
          "durationTicks": 478,
          "midi": 36,
          "name": "C2",
          "ticks": 11520,
          "time": 19.999992,
          "velocity": 0.3779527559055118
        },
        {
          "duration": 0.10069440416666353,
          "durationTicks": 58,
          "midi": 36,
          "name": "C2",
          "ticks": 18240,
          "time": 31.666654,
          "velocity": 0.5669291338582677
        },
        {
          "duration": 0.10069440416666353,
          "durationTicks": 58,
          "midi": 38,
          "name": "D2",
          "ticks": 18300,
          "time": 31.770820625,
          "velocity": 0.5669291338582677
        },
        {
          "duration": 0.15277771666666595,
          "durationTicks": 88,
          "midi": 40,
          "name": "E2",
          "ticks": 18360,
          "time": 31.87498725,
          "velocity": 0.5669291338582677
        },
        {
          "duration": 0.10069440416666708,
          "durationTicks": 58,
          "midi": 40,
          "name": "E2",
          "ticks": 18480,
          "time": 32.0833205,
          "velocity": 0.5669291338582677
        },
        {
          "duration": 0.10069440416665998,
          "durationTicks": 58,
          "midi": 40,
          "name": "E2",
          "ticks": 18600,
          "time": 32.29165375,
          "velocity": 0.5669291338582677
        },
        {
          "duration": 0.10069440416666708,
          "durationTicks": 58,
          "midi": 39,
          "name": "D#2",
          "ticks": 18720,
          "time": 32.499987,
          "velocity": 0.5669291338582677
        },
        {
          "duration": 0.10069440416665998,
          "durationTicks": 58,
          "midi": 38,
          "name": "D2",
          "ticks": 18780,
          "time": 32.604153625,
          "velocity": 0.5669291338582677
        },
        {
          "duration": 0.1527777166666624,
          "durationTicks": 88,
          "midi": 36,
          "name": "C2",
          "ticks": 18840,
          "time": 32.70832025,
          "velocity": 0.5669291338582677
        },
        {
          "duration": 0.10069440416665998,
          "durationTicks": 58,
          "midi": 36,
          "name": "C2",
          "ticks": 18960,
          "time": 32.9166535,
          "velocity": 0.5669291338582677
        },
        {
          "duration": 0.10069440416666708,
          "durationTicks": 58,
          "midi": 36,
          "name": "C2",
          "ticks": 19080,
          "time": 33.12498675,
          "velocity": 0.5669291338582677
        },
        {
          "duration": 0.10069440416665998,
          "durationTicks": 58,
          "midi": 43,
          "name": "G2",
          "ticks": 19200,
          "time": 33.33332,
          "velocity": 0.5669291338582677
        },
        {
          "duration": 0.10069440416666708,
          "durationTicks": 58,
          "midi": 45,
          "name": "A2",
          "ticks": 19260,
          "time": 33.437486625,
          "velocity": 0.5669291338582677
        },
        {
          "duration": 0.1527777166666624,
          "durationTicks": 88,
          "midi": 47,
          "name": "B2",
          "ticks": 19320,
          "time": 33.54165325,
          "velocity": 0.5669291338582677
        },
        {
          "duration": 0.10069440416666708,
          "durationTicks": 58,
          "midi": 47,
          "name": "B2",
          "ticks": 19440,
          "time": 33.7499865,
          "velocity": 0.5669291338582677
        },
        {
          "duration": 0.10069440416665998,
          "durationTicks": 58,
          "midi": 47,
          "name": "B2",
          "ticks": 19560,
          "time": 33.95831975,
          "velocity": 0.5669291338582677
        },
        {
          "duration": 0.10069440416666708,
          "durationTicks": 58,
          "midi": 46,
          "name": "A#2",
          "ticks": 19680,
          "time": 34.166653,
          "velocity": 0.5669291338582677
        },
        {
          "duration": 0.10069440416665998,
          "durationTicks": 58,
          "midi": 45,
          "name": "A2",
          "ticks": 19740,
          "time": 34.270819625,
          "velocity": 0.5669291338582677
        },
        {
          "duration": 0.1527777166666624,
          "durationTicks": 88,
          "midi": 43,
          "name": "G2",
          "ticks": 19800,
          "time": 34.37498625,
          "velocity": 0.5669291338582677
        },
        {
          "duration": 0.10069440416665998,
          "durationTicks": 58,
          "midi": 43,
          "name": "G2",
          "ticks": 19920,
          "time": 34.5833195,
          "velocity": 0.5669291338582677
        },
        {
          "duration": 0.10069440416666708,
          "durationTicks": 58,
          "midi": 43,
          "name": "G2",
          "ticks": 20040,
          "time": 34.79165275,
          "velocity": 0.5669291338582677
        },
        {
          "duration": 0.10069440416666708,
          "durationTicks": 58,
          "midi": 50,
          "name": "D3",
          "ticks": 20160,
          "time": 34.999986,
          "velocity": 0.5669291338582677
        },
        {
          "duration": 0.10069440416666708,
          "durationTicks": 58,
          "midi": 52,
          "name": "E3",
          "ticks": 20220,
          "time": 35.104152625,
          "velocity": 0.5669291338582677
        },
        {
          "duration": 0.1527777166666624,
          "durationTicks": 88,
          "midi": 54,
          "name": "F#3",
          "ticks": 20280,
          "time": 35.20831925,
          "velocity": 0.5669291338582677
        },
        {
          "duration": 0.10069440416666708,
          "durationTicks": 58,
          "midi": 54,
          "name": "F#3",
          "ticks": 20400,
          "time": 35.4166525,
          "velocity": 0.5669291338582677
        },
        {
          "duration": 0.10069440416665998,
          "durationTicks": 58,
          "midi": 54,
          "name": "F#3",
          "ticks": 20520,
          "time": 35.62498575,
          "velocity": 0.5669291338582677
        },
        {
          "duration": 0.10069440416665998,
          "durationTicks": 58,
          "midi": 53,
          "name": "F3",
          "ticks": 20640,
          "time": 35.833319,
          "velocity": 0.5669291338582677
        },
        {
          "duration": 0.10069440416665998,
          "durationTicks": 58,
          "midi": 52,
          "name": "E3",
          "ticks": 20700,
          "time": 35.937485625,
          "velocity": 0.5669291338582677
        },
        {
          "duration": 0.1527777166666624,
          "durationTicks": 88,
          "midi": 50,
          "name": "D3",
          "ticks": 20760,
          "time": 36.04165225,
          "velocity": 0.5669291338582677
        },
        {
          "duration": 0.10069440416665998,
          "durationTicks": 58,
          "midi": 50,
          "name": "D3",
          "ticks": 20880,
          "time": 36.2499855,
          "velocity": 0.5669291338582677
        },
        {
          "duration": 0.10069440416666708,
          "durationTicks": 58,
          "midi": 50,
          "name": "D3",
          "ticks": 21000,
          "time": 36.45831875,
          "velocity": 0.5669291338582677
        },
        {
          "duration": 0.10069440416666708,
          "durationTicks": 58,
          "midi": 45,
          "name": "A2",
          "ticks": 21120,
          "time": 36.666652,
          "velocity": 0.5669291338582677
        },
        {
          "duration": 0.10069440416666708,
          "durationTicks": 58,
          "midi": 47,
          "name": "B2",
          "ticks": 21180,
          "time": 36.770818625,
          "velocity": 0.5669291338582677
        },
        {
          "duration": 0.1527777166666624,
          "durationTicks": 88,
          "midi": 49,
          "name": "C#3",
          "ticks": 21240,
          "time": 36.87498525,
          "velocity": 0.5669291338582677
        },
        {
          "duration": 0.10069440416666708,
          "durationTicks": 58,
          "midi": 49,
          "name": "C#3",
          "ticks": 21360,
          "time": 37.0833185,
          "velocity": 0.5669291338582677
        },
        {
          "duration": 0.10069440416666708,
          "durationTicks": 58,
          "midi": 49,
          "name": "C#3",
          "ticks": 21480,
          "time": 37.29165175,
          "velocity": 0.5669291338582677
        },
        {
          "duration": 0.10069440416665998,
          "durationTicks": 58,
          "midi": 48,
          "name": "C3",
          "ticks": 21600,
          "time": 37.499985,
          "velocity": 0.5669291338582677
        },
        {
          "duration": 0.10069440416665998,
          "durationTicks": 58,
          "midi": 47,
          "name": "B2",
          "ticks": 21660,
          "time": 37.604151625,
          "velocity": 0.5669291338582677
        },
        {
          "duration": 0.1527777166666624,
          "durationTicks": 88,
          "midi": 45,
          "name": "A2",
          "ticks": 21720,
          "time": 37.70831825,
          "velocity": 0.5669291338582677
        },
        {
          "duration": 0.10069440416665998,
          "durationTicks": 58,
          "midi": 45,
          "name": "A2",
          "ticks": 21840,
          "time": 37.9166515,
          "velocity": 0.5669291338582677
        },
        {
          "duration": 0.10069440416665998,
          "durationTicks": 58,
          "midi": 45,
          "name": "A2",
          "ticks": 21960,
          "time": 38.12498475,
          "velocity": 0.5669291338582677
        },
        {
          "duration": 0.10069440416666708,
          "durationTicks": 58,
          "midi": 52,
          "name": "E3",
          "ticks": 22080,
          "time": 38.333318,
          "velocity": 0.5669291338582677
        },
        {
          "duration": 0.10069440416666708,
          "durationTicks": 58,
          "midi": 54,
          "name": "F#3",
          "ticks": 22140,
          "time": 38.437484624999996,
          "velocity": 0.5669291338582677
        },
        {
          "duration": 0.1527777166666624,
          "durationTicks": 88,
          "midi": 56,
          "name": "G#3",
          "ticks": 22200,
          "time": 38.54165125,
          "velocity": 0.5669291338582677
        },
        {
          "duration": 0.10069440416666708,
          "durationTicks": 58,
          "midi": 56,
          "name": "G#3",
          "ticks": 22320,
          "time": 38.7499845,
          "velocity": 0.5669291338582677
        },
        {
          "duration": 0.10069440416666708,
          "durationTicks": 58,
          "midi": 56,
          "name": "G#3",
          "ticks": 22440,
          "time": 38.95831775,
          "velocity": 0.5669291338582677
        },
        {
          "duration": 0.10069440416665998,
          "durationTicks": 58,
          "midi": 55,
          "name": "G3",
          "ticks": 22560,
          "time": 39.166651,
          "velocity": 0.5669291338582677
        },
        {
          "duration": 0.10069440416666708,
          "durationTicks": 58,
          "midi": 54,
          "name": "F#3",
          "ticks": 22620,
          "time": 39.270817625,
          "velocity": 0.5669291338582677
        },
        {
          "duration": 0.1527777166666695,
          "durationTicks": 88,
          "midi": 52,
          "name": "E3",
          "ticks": 22680,
          "time": 39.37498425,
          "velocity": 0.5669291338582677
        },
        {
          "duration": 0.10069440416666708,
          "durationTicks": 58,
          "midi": 52,
          "name": "E3",
          "ticks": 22800,
          "time": 39.5833175,
          "velocity": 0.5669291338582677
        },
        {
          "duration": 0.10069440416665998,
          "durationTicks": 58,
          "midi": 52,
          "name": "E3",
          "ticks": 22920,
          "time": 39.79165075,
          "velocity": 0.5669291338582677
        },
        {
          "duration": 0.10069440416666708,
          "durationTicks": 58,
          "midi": 45,
          "name": "A2",
          "ticks": 23040,
          "time": 39.999984,
          "velocity": 0.5669291338582677
        },
        {
          "duration": 0.10069440416665998,
          "durationTicks": 58,
          "midi": 47,
          "name": "B2",
          "ticks": 23100,
          "time": 40.104150625,
          "velocity": 0.5669291338582677
        },
        {
          "duration": 0.1527777166666624,
          "durationTicks": 88,
          "midi": 48,
          "name": "C3",
          "ticks": 23160,
          "time": 40.20831725,
          "velocity": 0.5669291338582677
        },
        {
          "duration": 0.10069440416665998,
          "durationTicks": 58,
          "midi": 48,
          "name": "C3",
          "ticks": 23280,
          "time": 40.4166505,
          "velocity": 0.5669291338582677
        },
        {
          "duration": 0.10069440416666708,
          "durationTicks": 58,
          "midi": 48,
          "name": "C3",
          "ticks": 23400,
          "time": 40.62498375,
          "velocity": 0.5669291338582677
        },
        {
          "duration": 0.10069440416665998,
          "durationTicks": 58,
          "midi": 47,
          "name": "B2",
          "ticks": 23520,
          "time": 40.833317,
          "velocity": 0.5669291338582677
        },
        {
          "duration": 0.10069440416666708,
          "durationTicks": 58,
          "midi": 48,
          "name": "C3",
          "ticks": 23580,
          "time": 40.937483625,
          "velocity": 0.5669291338582677
        },
        {
          "duration": 0.1527777166666695,
          "durationTicks": 88,
          "midi": 50,
          "name": "D3",
          "ticks": 23640,
          "time": 41.041650249999996,
          "velocity": 0.5669291338582677
        },
        {
          "duration": 0.10069440416666708,
          "durationTicks": 58,
          "midi": 50,
          "name": "D3",
          "ticks": 23760,
          "time": 41.2499835,
          "velocity": 0.5669291338582677
        },
        {
          "duration": 0.10069440416665998,
          "durationTicks": 58,
          "midi": 50,
          "name": "D3",
          "ticks": 23880,
          "time": 41.45831675,
          "velocity": 0.5669291338582677
        },
        {
          "duration": 0.10069440416666708,
          "durationTicks": 58,
          "midi": 48,
          "name": "C3",
          "ticks": 24000,
          "time": 41.66665,
          "velocity": 0.5669291338582677
        },
        {
          "duration": 0.10069440416665998,
          "durationTicks": 58,
          "midi": 50,
          "name": "D3",
          "ticks": 24060,
          "time": 41.770816625,
          "velocity": 0.5669291338582677
        },
        {
          "duration": 0.1527777166666624,
          "durationTicks": 88,
          "midi": 52,
          "name": "E3",
          "ticks": 24120,
          "time": 41.87498325,
          "velocity": 0.5669291338582677
        },
        {
          "duration": 0.10069440416665998,
          "durationTicks": 58,
          "midi": 52,
          "name": "E3",
          "ticks": 24240,
          "time": 42.0833165,
          "velocity": 0.5669291338582677
        },
        {
          "duration": 0.10069440416666708,
          "durationTicks": 58,
          "midi": 52,
          "name": "E3",
          "ticks": 24360,
          "time": 42.29164975,
          "velocity": 0.5669291338582677
        },
        {
          "duration": 0.10069440416665998,
          "durationTicks": 58,
          "midi": 40,
          "name": "E2",
          "ticks": 24480,
          "time": 42.499983,
          "velocity": 0.5669291338582677
        },
        {
          "duration": 0.10069440416666708,
          "durationTicks": 58,
          "midi": 41,
          "name": "F2",
          "ticks": 24540,
          "time": 42.604149625,
          "velocity": 0.5669291338582677
        },
        {
          "duration": 0.1527777166666624,
          "durationTicks": 88,
          "midi": 43,
          "name": "G2",
          "ticks": 24600,
          "time": 42.70831625,
          "velocity": 0.5669291338582677
        },
        {
          "duration": 0.10069440416666708,
          "durationTicks": 58,
          "midi": 43,
          "name": "G2",
          "ticks": 24720,
          "time": 42.9166495,
          "velocity": 0.5669291338582677
        },
        {
          "duration": 0.10069440416665998,
          "durationTicks": 58,
          "midi": 43,
          "name": "G2",
          "ticks": 24840,
          "time": 43.12498275,
          "velocity": 0.5669291338582677
        },
        {
          "duration": 0.10069440416666708,
          "durationTicks": 58,
          "midi": 42,
          "name": "F#2",
          "ticks": 24960,
          "time": 43.333315999999996,
          "velocity": 0.5669291338582677
        },
        {
          "duration": 0.10069440416665998,
          "durationTicks": 58,
          "midi": 43,
          "name": "G2",
          "ticks": 25020,
          "time": 43.437482625,
          "velocity": 0.5669291338582677
        },
        {
          "duration": 0.1527777166666624,
          "durationTicks": 88,
          "midi": 45,
          "name": "A2",
          "ticks": 25080,
          "time": 43.54164925,
          "velocity": 0.5669291338582677
        },
        {
          "duration": 0.10069440416665998,
          "durationTicks": 58,
          "midi": 45,
          "name": "A2",
          "ticks": 25200,
          "time": 43.7499825,
          "velocity": 0.5669291338582677
        },
        {
          "duration": 0.10069440416666708,
          "durationTicks": 58,
          "midi": 45,
          "name": "A2",
          "ticks": 25320,
          "time": 43.95831575,
          "velocity": 0.5669291338582677
        },
        {
          "duration": 0.10069440416666708,
          "durationTicks": 58,
          "midi": 44,
          "name": "G#2",
          "ticks": 25440,
          "time": 44.166649,
          "velocity": 0.5669291338582677
        },
        {
          "duration": 0.10069440416666708,
          "durationTicks": 58,
          "midi": 45,
          "name": "A2",
          "ticks": 25500,
          "time": 44.270815625,
          "velocity": 0.5669291338582677
        },
        {
          "duration": 0.1527777166666624,
          "durationTicks": 88,
          "midi": 47,
          "name": "B2",
          "ticks": 25560,
          "time": 44.37498225,
          "velocity": 0.5669291338582677
        },
        {
          "duration": 0.10069440416666708,
          "durationTicks": 58,
          "midi": 47,
          "name": "B2",
          "ticks": 25680,
          "time": 44.5833155,
          "velocity": 0.5669291338582677
        },
        {
          "duration": 0.10069440416665998,
          "durationTicks": 58,
          "midi": 47,
          "name": "B2",
          "ticks": 25800,
          "time": 44.79164875,
          "velocity": 0.5669291338582677
        },
        {
          "duration": 0.10069440416665998,
          "durationTicks": 58,
          "midi": 45,
          "name": "A2",
          "ticks": 25920,
          "time": 44.999982,
          "velocity": 0.5669291338582677
        },
        {
          "duration": 0.10069440416665998,
          "durationTicks": 58,
          "midi": 47,
          "name": "B2",
          "ticks": 25980,
          "time": 45.104148625,
          "velocity": 0.5669291338582677
        },
        {
          "duration": 0.1527777166666624,
          "durationTicks": 88,
          "midi": 48,
          "name": "C3",
          "ticks": 26040,
          "time": 45.20831525,
          "velocity": 0.5669291338582677
        },
        {
          "duration": 0.10069440416665998,
          "durationTicks": 58,
          "midi": 48,
          "name": "C3",
          "ticks": 26160,
          "time": 45.4166485,
          "velocity": 0.5669291338582677
        },
        {
          "duration": 0.10069440416666708,
          "durationTicks": 58,
          "midi": 48,
          "name": "C3",
          "ticks": 26280,
          "time": 45.624981749999996,
          "velocity": 0.5669291338582677
        },
        {
          "duration": 0.10069440416666708,
          "durationTicks": 58,
          "midi": 43,
          "name": "G2",
          "ticks": 26400,
          "time": 45.833315,
          "velocity": 0.5669291338582677
        },
        {
          "duration": 0.10069440416666708,
          "durationTicks": 58,
          "midi": 45,
          "name": "A2",
          "ticks": 26460,
          "time": 45.937481625,
          "velocity": 0.5669291338582677
        },
        {
          "duration": 0.1527777166666624,
          "durationTicks": 88,
          "midi": 46,
          "name": "A#2",
          "ticks": 26520,
          "time": 46.04164825,
          "velocity": 0.5669291338582677
        },
        {
          "duration": 0.10069440416666708,
          "durationTicks": 58,
          "midi": 46,
          "name": "A#2",
          "ticks": 26640,
          "time": 46.2499815,
          "velocity": 0.5669291338582677
        },
        {
          "duration": 0.10069440416666708,
          "durationTicks": 58,
          "midi": 46,
          "name": "A#2",
          "ticks": 26760,
          "time": 46.45831475,
          "velocity": 0.5669291338582677
        },
        {
          "duration": 0.10069440416665998,
          "durationTicks": 58,
          "midi": 42,
          "name": "F#2",
          "ticks": 26880,
          "time": 46.666648,
          "velocity": 0.5669291338582677
        },
        {
          "duration": 0.10069440416665998,
          "durationTicks": 58,
          "midi": 43,
          "name": "G2",
          "ticks": 26940,
          "time": 46.770814625,
          "velocity": 0.5669291338582677
        },
        {
          "duration": 0.1527777166666624,
          "durationTicks": 88,
          "midi": 45,
          "name": "A2",
          "ticks": 27000,
          "time": 46.87498125,
          "velocity": 0.5669291338582677
        },
        {
          "duration": 0.10069440416665998,
          "durationTicks": 58,
          "midi": 45,
          "name": "A2",
          "ticks": 27120,
          "time": 47.0833145,
          "velocity": 0.5669291338582677
        },
        {
          "duration": 0.10069440416665998,
          "durationTicks": 58,
          "midi": 45,
          "name": "A2",
          "ticks": 27240,
          "time": 47.29164775,
          "velocity": 0.5669291338582677
        },
        {
          "duration": 0.10069440416666708,
          "durationTicks": 58,
          "midi": 45,
          "name": "A2",
          "ticks": 27360,
          "time": 47.499981,
          "velocity": 0.5669291338582677
        },
        {
          "duration": 0.10069440416666708,
          "durationTicks": 58,
          "midi": 43,
          "name": "G2",
          "ticks": 27420,
          "time": 47.604147624999996,
          "velocity": 0.5669291338582677
        },
        {
          "duration": 0.1527777166666624,
          "durationTicks": 88,
          "midi": 42,
          "name": "F#2",
          "ticks": 27480,
          "time": 47.70831425,
          "velocity": 0.5669291338582677
        },
        {
          "duration": 0.10069440416666708,
          "durationTicks": 58,
          "midi": 42,
          "name": "F#2",
          "ticks": 27600,
          "time": 47.916647499999996,
          "velocity": 0.5669291338582677
        },
        {
          "duration": 0.10069440416666708,
          "durationTicks": 58,
          "midi": 42,
          "name": "F#2",
          "ticks": 27720,
          "time": 48.12498075,
          "velocity": 0.5669291338582677
        },
        {
          "duration": 0.10069440416665998,
          "durationTicks": 58,
          "midi": 41,
          "name": "F2",
          "ticks": 27840,
          "time": 48.333314,
          "velocity": 0.5669291338582677
        },
        {
          "duration": 0.10069440416666708,
          "durationTicks": 58,
          "midi": 43,
          "name": "G2",
          "ticks": 27900,
          "time": 48.437480625,
          "velocity": 0.5669291338582677
        },
        {
          "duration": 0.1527777166666695,
          "durationTicks": 88,
          "midi": 45,
          "name": "A2",
          "ticks": 27960,
          "time": 48.54164725,
          "velocity": 0.5669291338582677
        },
        {
          "duration": 0.10069440416666708,
          "durationTicks": 58,
          "midi": 45,
          "name": "A2",
          "ticks": 28080,
          "time": 48.7499805,
          "velocity": 0.5669291338582677
        },
        {
          "duration": 0.10069440416665998,
          "durationTicks": 58,
          "midi": 45,
          "name": "A2",
          "ticks": 28200,
          "time": 48.95831375,
          "velocity": 0.5669291338582677
        },
        {
          "duration": 0.10069440416666708,
          "durationTicks": 58,
          "midi": 45,
          "name": "A2",
          "ticks": 28320,
          "time": 49.166647,
          "velocity": 0.5669291338582677
        },
        {
          "duration": 0.10069440416665998,
          "durationTicks": 58,
          "midi": 43,
          "name": "G2",
          "ticks": 28380,
          "time": 49.270813625,
          "velocity": 0.5669291338582677
        },
        {
          "duration": 0.1527777166666624,
          "durationTicks": 88,
          "midi": 41,
          "name": "F2",
          "ticks": 28440,
          "time": 49.37498025,
          "velocity": 0.5669291338582677
        },
        {
          "duration": 0.10069440416665998,
          "durationTicks": 58,
          "midi": 41,
          "name": "F2",
          "ticks": 28560,
          "time": 49.5833135,
          "velocity": 0.5669291338582677
        },
        {
          "duration": 0.10069440416666708,
          "durationTicks": 58,
          "midi": 41,
          "name": "F2",
          "ticks": 28680,
          "time": 49.79164675,
          "velocity": 0.5669291338582677
        },
        {
          "duration": 0.4131942791666603,
          "durationTicks": 238,
          "midi": 40,
          "name": "E2",
          "ticks": 28800,
          "time": 49.99998,
          "velocity": 0.5669291338582677
        },
        {
          "duration": 0.4131942791666674,
          "durationTicks": 238,
          "midi": 38,
          "name": "D2",
          "ticks": 29280,
          "time": 50.833313,
          "velocity": 0.3779527559055118
        },
        {
          "duration": 0.4131942791666603,
          "durationTicks": 238,
          "midi": 36,
          "name": "C2",
          "ticks": 29760,
          "time": 51.666646,
          "velocity": 0.3779527559055118
        },
        {
          "duration": 0.4131942791666674,
          "durationTicks": 238,
          "midi": 35,
          "name": "B1",
          "ticks": 30240,
          "time": 52.499978999999996,
          "velocity": 0.3779527559055118
        },
        {
          "duration": 0.8298607791666726,
          "durationTicks": 478,
          "midi": 33,
          "name": "A1",
          "ticks": 30720,
          "time": 53.333312,
          "velocity": 0.3779527559055118
        },
        {
          "duration": 0.4131942791666745,
          "durationTicks": 238,
          "midi": 45,
          "name": "A2",
          "ticks": 46080,
          "time": 79.999968,
          "velocity": 0.3779527559055118
        },
        {
          "duration": 0.4131942791666603,
          "durationTicks": 238,
          "midi": 45,
          "name": "A2",
          "ticks": 46560,
          "time": 80.833301,
          "velocity": 0.3779527559055118
        },
        {
          "duration": 0.4131942791666603,
          "durationTicks": 238,
          "midi": 45,
          "name": "A2",
          "ticks": 47040,
          "time": 81.666634,
          "velocity": 0.3779527559055118
        },
        {
          "duration": 0.4131942791666745,
          "durationTicks": 238,
          "midi": 45,
          "name": "A2",
          "ticks": 47520,
          "time": 82.499967,
          "velocity": 0.3779527559055118
        },
        {
          "duration": 0.4131942791666745,
          "durationTicks": 238,
          "midi": 39,
          "name": "D#2",
          "ticks": 48000,
          "time": 83.3333,
          "velocity": 0.3779527559055118
        },
        {
          "duration": 0.4131942791666603,
          "durationTicks": 238,
          "midi": 39,
          "name": "D#2",
          "ticks": 48480,
          "time": 84.166633,
          "velocity": 0.3779527559055118
        },
        {
          "duration": 0.4131942791666745,
          "durationTicks": 238,
          "midi": 39,
          "name": "D#2",
          "ticks": 48960,
          "time": 84.999966,
          "velocity": 0.3779527559055118
        },
        {
          "duration": 0.4131942791666745,
          "durationTicks": 238,
          "midi": 39,
          "name": "D#2",
          "ticks": 49440,
          "time": 85.833299,
          "velocity": 0.3779527559055118
        },
        {
          "duration": 0.4131942791666745,
          "durationTicks": 238,
          "midi": 39,
          "name": "D#2",
          "ticks": 49920,
          "time": 86.66663199999999,
          "velocity": 0.3779527559055118
        },
        {
          "duration": 0.4131942791666603,
          "durationTicks": 238,
          "midi": 39,
          "name": "D#2",
          "ticks": 50400,
          "time": 87.499965,
          "velocity": 0.3779527559055118
        },
        {
          "duration": 0.4131942791666745,
          "durationTicks": 238,
          "midi": 39,
          "name": "D#2",
          "ticks": 50880,
          "time": 88.333298,
          "velocity": 0.3779527559055118
        },
        {
          "duration": 0.4131942791666745,
          "durationTicks": 238,
          "midi": 39,
          "name": "D#2",
          "ticks": 51360,
          "time": 89.166631,
          "velocity": 0.3779527559055118
        },
        {
          "duration": 0.4131942791666603,
          "durationTicks": 238,
          "midi": 39,
          "name": "D#2",
          "ticks": 51840,
          "time": 89.999964,
          "velocity": 0.3779527559055118
        },
        {
          "duration": 0.4131942791666603,
          "durationTicks": 238,
          "midi": 39,
          "name": "D#2",
          "ticks": 52320,
          "time": 90.833297,
          "velocity": 0.3779527559055118
        },
        {
          "duration": 0.4131942791666745,
          "durationTicks": 238,
          "midi": 39,
          "name": "D#2",
          "ticks": 52800,
          "time": 91.66663,
          "velocity": 0.3779527559055118
        },
        {
          "duration": 0.4131942791666745,
          "durationTicks": 238,
          "midi": 39,
          "name": "D#2",
          "ticks": 53280,
          "time": 92.499963,
          "velocity": 0.3779527559055118
        },
        {
          "duration": 0.4131942791666603,
          "durationTicks": 238,
          "midi": 32,
          "name": "G#1",
          "ticks": 53760,
          "time": 93.333296,
          "velocity": 0.3779527559055118
        },
        {
          "duration": 0.4131942791666745,
          "durationTicks": 238,
          "midi": 44,
          "name": "G#2",
          "ticks": 54240,
          "time": 94.166629,
          "velocity": 0.3779527559055118
        },
        {
          "duration": 0.4131942791666745,
          "durationTicks": 238,
          "midi": 44,
          "name": "G#2",
          "ticks": 54720,
          "time": 94.999962,
          "velocity": 0.3779527559055118
        },
        {
          "duration": 0.4131942791666745,
          "durationTicks": 238,
          "midi": 44,
          "name": "G#2",
          "ticks": 55200,
          "time": 95.83329499999999,
          "velocity": 0.3779527559055118
        },
        {
          "duration": 0.4131942791666603,
          "durationTicks": 238,
          "midi": 38,
          "name": "D2",
          "ticks": 55680,
          "time": 96.666628,
          "velocity": 0.3779527559055118
        },
        {
          "duration": 0.4131942791666745,
          "durationTicks": 238,
          "midi": 38,
          "name": "D2",
          "ticks": 56160,
          "time": 97.499961,
          "velocity": 0.3779527559055118
        },
        {
          "duration": 0.4131942791666745,
          "durationTicks": 238,
          "midi": 38,
          "name": "D2",
          "ticks": 56640,
          "time": 98.333294,
          "velocity": 0.3779527559055118
        },
        {
          "duration": 0.4131942791666603,
          "durationTicks": 238,
          "midi": 38,
          "name": "D2",
          "ticks": 57120,
          "time": 99.166627,
          "velocity": 0.3779527559055118
        },
        {
          "duration": 0.4131942791666603,
          "durationTicks": 238,
          "midi": 38,
          "name": "D2",
          "ticks": 57600,
          "time": 99.99996,
          "velocity": 0.3779527559055118
        },
        {
          "duration": 0.4131942791666745,
          "durationTicks": 238,
          "midi": 38,
          "name": "D2",
          "ticks": 58080,
          "time": 100.833293,
          "velocity": 0.3779527559055118
        },
        {
          "duration": 0.4131942791666745,
          "durationTicks": 238,
          "midi": 38,
          "name": "D2",
          "ticks": 58560,
          "time": 101.666626,
          "velocity": 0.3779527559055118
        },
        {
          "duration": 0.4131942791666603,
          "durationTicks": 238,
          "midi": 38,
          "name": "D2",
          "ticks": 59040,
          "time": 102.499959,
          "velocity": 0.3779527559055118
        },
        {
          "duration": 0.4131942791666745,
          "durationTicks": 238,
          "midi": 38,
          "name": "D2",
          "ticks": 59520,
          "time": 103.333292,
          "velocity": 0.3779527559055118
        },
        {
          "duration": 0.4131942791666745,
          "durationTicks": 238,
          "midi": 38,
          "name": "D2",
          "ticks": 60000,
          "time": 104.166625,
          "velocity": 0.3779527559055118
        },
        {
          "duration": 0.4131942791666745,
          "durationTicks": 238,
          "midi": 38,
          "name": "D2",
          "ticks": 60480,
          "time": 104.99995799999999,
          "velocity": 0.3779527559055118
        },
        {
          "duration": 0.4131942791666603,
          "durationTicks": 238,
          "midi": 38,
          "name": "D2",
          "ticks": 60960,
          "time": 105.833291,
          "velocity": 0.3779527559055118
        },
        {
          "duration": 0.4131942791666745,
          "durationTicks": 238,
          "midi": 31,
          "name": "G1",
          "ticks": 61440,
          "time": 106.666624,
          "velocity": 0.3779527559055118
        },
        {
          "duration": 0.4131942791666745,
          "durationTicks": 238,
          "midi": 43,
          "name": "G2",
          "ticks": 61920,
          "time": 107.499957,
          "velocity": 0.3779527559055118
        },
        {
          "duration": 0.4131942791666603,
          "durationTicks": 238,
          "midi": 43,
          "name": "G2",
          "ticks": 62400,
          "time": 108.33329,
          "velocity": 0.3779527559055118
        },
        {
          "duration": 0.4131942791666603,
          "durationTicks": 238,
          "midi": 43,
          "name": "G2",
          "ticks": 62880,
          "time": 109.166623,
          "velocity": 0.3779527559055118
        },
        {
          "duration": 0.4131942791666745,
          "durationTicks": 238,
          "midi": 37,
          "name": "C#2",
          "ticks": 63360,
          "time": 109.999956,
          "velocity": 0.3779527559055118
        },
        {
          "duration": 0.4131942791666745,
          "durationTicks": 238,
          "midi": 37,
          "name": "C#2",
          "ticks": 63840,
          "time": 110.833289,
          "velocity": 0.3779527559055118
        },
        {
          "duration": 0.4131942791666603,
          "durationTicks": 238,
          "midi": 37,
          "name": "C#2",
          "ticks": 64320,
          "time": 111.666622,
          "velocity": 0.3779527559055118
        },
        {
          "duration": 0.4131942791666745,
          "durationTicks": 238,
          "midi": 37,
          "name": "C#2",
          "ticks": 64800,
          "time": 112.499955,
          "velocity": 0.3779527559055118
        },
        {
          "duration": 0.4131942791666745,
          "durationTicks": 238,
          "midi": 37,
          "name": "C#2",
          "ticks": 65280,
          "time": 113.333288,
          "velocity": 0.3779527559055118
        },
        {
          "duration": 0.4131942791666745,
          "durationTicks": 238,
          "midi": 37,
          "name": "C#2",
          "ticks": 65760,
          "time": 114.16662099999999,
          "velocity": 0.3779527559055118
        },
        {
          "duration": 0.4131942791666603,
          "durationTicks": 238,
          "midi": 37,
          "name": "C#2",
          "ticks": 66240,
          "time": 114.999954,
          "velocity": 0.3779527559055118
        },
        {
          "duration": 0.4131942791666745,
          "durationTicks": 238,
          "midi": 37,
          "name": "C#2",
          "ticks": 66720,
          "time": 115.833287,
          "velocity": 0.3779527559055118
        },
        {
          "duration": 0.4131942791666745,
          "durationTicks": 238,
          "midi": 36,
          "name": "C2",
          "ticks": 67200,
          "time": 116.66662,
          "velocity": 0.3779527559055118
        },
        {
          "duration": 0.4131942791666603,
          "durationTicks": 238,
          "midi": 36,
          "name": "C2",
          "ticks": 67680,
          "time": 117.499953,
          "velocity": 0.3779527559055118
        },
        {
          "duration": 0.4131942791666603,
          "durationTicks": 238,
          "midi": 36,
          "name": "C2",
          "ticks": 68160,
          "time": 118.333286,
          "velocity": 0.3779527559055118
        },
        {
          "duration": 0.4131942791666745,
          "durationTicks": 238,
          "midi": 36,
          "name": "C2",
          "ticks": 68640,
          "time": 119.166619,
          "velocity": 0.3779527559055118
        },
        {
          "duration": 0.4131942791666745,
          "durationTicks": 238,
          "midi": 36,
          "name": "C2",
          "ticks": 69120,
          "time": 119.999952,
          "velocity": 0.3779527559055118
        },
        {
          "duration": 0.4131942791666603,
          "durationTicks": 238,
          "midi": 36,
          "name": "C2",
          "ticks": 69600,
          "time": 120.833285,
          "velocity": 0.3779527559055118
        },
        {
          "duration": 0.4131942791666745,
          "durationTicks": 238,
          "midi": 36,
          "name": "C2",
          "ticks": 70080,
          "time": 121.666618,
          "velocity": 0.3779527559055118
        },
        {
          "duration": 0.4131942791666745,
          "durationTicks": 238,
          "midi": 36,
          "name": "C2",
          "ticks": 70560,
          "time": 122.499951,
          "velocity": 0.3779527559055118
        },
        {
          "duration": 0.4131942791666745,
          "durationTicks": 238,
          "midi": 36,
          "name": "C2",
          "ticks": 71040,
          "time": 123.33328399999999,
          "velocity": 0.3779527559055118
        },
        {
          "duration": 0.4131942791666603,
          "durationTicks": 238,
          "midi": 36,
          "name": "C2",
          "ticks": 71520,
          "time": 124.166617,
          "velocity": 0.3779527559055118
        },
        {
          "duration": 0.4131942791666745,
          "durationTicks": 238,
          "midi": 36,
          "name": "C2",
          "ticks": 72000,
          "time": 124.99995,
          "velocity": 0.3779527559055118
        },
        {
          "duration": 0.4131942791666745,
          "durationTicks": 238,
          "midi": 36,
          "name": "C2",
          "ticks": 72480,
          "time": 125.833283,
          "velocity": 0.3779527559055118
        },
        {
          "duration": 0.4131942791666603,
          "durationTicks": 238,
          "midi": 29,
          "name": "F1",
          "ticks": 72960,
          "time": 126.666616,
          "velocity": 0.3779527559055118
        },
        {
          "duration": 0.4131942791666745,
          "durationTicks": 238,
          "midi": 29,
          "name": "F1",
          "ticks": 73440,
          "time": 127.499949,
          "velocity": 0.3779527559055118
        },
        {
          "duration": 0.4131942791666745,
          "durationTicks": 238,
          "midi": 29,
          "name": "F1",
          "ticks": 73920,
          "time": 128.333282,
          "velocity": 0.3779527559055118
        },
        {
          "duration": 0.4131942791666745,
          "durationTicks": 238,
          "midi": 29,
          "name": "F1",
          "ticks": 74400,
          "time": 129.166615,
          "velocity": 0.3779527559055118
        },
        {
          "duration": 0.8298607791666655,
          "durationTicks": 478,
          "midi": 29,
          "name": "F1",
          "ticks": 74880,
          "time": 129.999948,
          "velocity": 0.3779527559055118
        },
        {
          "duration": 1.327777445833334,
          "durationTicks": 478,
          "midi": 40,
          "name": "E2",
          "ticks": 75840,
          "time": 133.233281,
          "velocity": 0.3779527559055118
        }
      ]
    },
    {
      "channel": 0,
      "controlChanges": {},
      "pitchBends": [],
      "instrument": {
        "family": "piano",
        "number": 0,
        "name": "acoustic grand piano"
      },
      "name": "Soprano ",
      "notes": [],
      "endOfTrackTicks": 74880
    },
    {
      "channel": 10,
      "controlChanges": {
        "7": [
          {
            "number": 7,
            "ticks": 0,
            "time": 0,
            "value": 0.7559055118110236
          }
        ],
        "10": [
          {
            "number": 10,
            "ticks": 0,
            "time": 0,
            "value": 0.25196850393700787
          }
        ],
        "11": [
          {
            "number": 11,
            "ticks": 0,
            "time": 0,
            "value": 1
          }
        ]
      },
      "pitchBends": [],
      "instrument": {
        "family": "pipe",
        "number": 73,
        "name": "flute"
      },
      "name": "",
      "notes": [
        {
          "duration": 2.9131932791666664,
          "durationTicks": 1678,
          "midi": 76,
          "name": "E5",
          "ticks": 11520,
          "time": 19.999992,
          "velocity": 0.3464566929133858
        },
        {
          "duration": 0.36111096666666853,
          "durationTicks": 208,
          "midi": 76,
          "name": "E5",
          "ticks": 13200,
          "time": 22.9166575,
          "velocity": 0.3464566929133858
        },
        {
          "duration": 1.246527279166667,
          "durationTicks": 718,
          "midi": 77,
          "name": "F5",
          "ticks": 13440,
          "time": 23.333324,
          "velocity": 0.3464566929133858
        },
        {
          "duration": 0.4131942791666674,
          "durationTicks": 238,
          "midi": 77,
          "name": "F5",
          "ticks": 14160,
          "time": 24.5833235,
          "velocity": 0.3464566929133858
        },
        {
          "duration": 0.8298607791666655,
          "durationTicks": 478,
          "midi": 76,
          "name": "E5",
          "ticks": 14400,
          "time": 24.99999,
          "velocity": 0.3464566929133858
        },
        {
          "duration": 1.2465272791666635,
          "durationTicks": 718,
          "midi": 76,
          "name": "E5",
          "ticks": 15360,
          "time": 26.666656,
          "velocity": 0.3464566929133858
        },
        {
          "duration": 0.41319427916666385,
          "durationTicks": 238,
          "midi": 76,
          "name": "E5",
          "ticks": 16080,
          "time": 27.9166555,
          "velocity": 0.3464566929133858
        },
        {
          "duration": 0.41319427916666385,
          "durationTicks": 238,
          "midi": 76,
          "name": "E5",
          "ticks": 16320,
          "time": 28.333322,
          "velocity": 0.3464566929133858
        },
        {
          "duration": 0.41319427916666385,
          "durationTicks": 238,
          "midi": 76,
          "name": "E5",
          "ticks": 16560,
          "time": 28.7499885,
          "velocity": 0.3464566929133858
        },
        {
          "duration": 0.41319427916666385,
          "durationTicks": 238,
          "midi": 76,
          "name": "E5",
          "ticks": 16800,
          "time": 29.166655,
          "velocity": 0.3464566929133858
        },
        {
          "duration": 0.41319427916666385,
          "durationTicks": 238,
          "midi": 76,
          "name": "E5",
          "ticks": 17040,
          "time": 29.5833215,
          "velocity": 0.3464566929133858
        },
        {
          "duration": 1.663193779166665,
          "durationTicks": 958,
          "midi": 77,
          "name": "F5",
          "ticks": 17280,
          "time": 29.999988,
          "velocity": 0.3464566929133858
        },
        {
          "duration": 0.8298607791666655,
          "durationTicks": 478,
          "midi": 76,
          "name": "E5",
          "ticks": 18240,
          "time": 31.666654,
          "velocity": 0.3464566929133858
        },
        {
          "duration": 2.91319327916667,
          "durationTicks": 1678,
          "midi": 72,
          "name": "C5",
          "ticks": 30720,
          "time": 53.333312,
          "velocity": 0.3464566929133858
        },
        {
          "duration": 0.3611109666666721,
          "durationTicks": 208,
          "midi": 72,
          "name": "C5",
          "ticks": 32400,
          "time": 56.2499775,
          "velocity": 0.3464566929133858
        },
        {
          "duration": 1.2465272791666706,
          "durationTicks": 718,
          "midi": 74,
          "name": "D5",
          "ticks": 32640,
          "time": 56.666644,
          "velocity": 0.3464566929133858
        },
        {
          "duration": 0.4131942791666674,
          "durationTicks": 238,
          "midi": 74,
          "name": "D5",
          "ticks": 33360,
          "time": 57.9166435,
          "velocity": 0.3464566929133858
        },
        {
          "duration": 0.4131942791666745,
          "durationTicks": 238,
          "midi": 72,
          "name": "C5",
          "ticks": 33600,
          "time": 58.33331,
          "velocity": 0.3464566929133858
        },
        {
          "duration": 0.4131942791666674,
          "durationTicks": 238,
          "midi": 73,
          "name": "C#5",
          "ticks": 33840,
          "time": 58.7499765,
          "velocity": 0.3464566929133858
        },
        {
          "duration": 0.4131942791666674,
          "durationTicks": 238,
          "midi": 74,
          "name": "D5",
          "ticks": 34080,
          "time": 59.166643,
          "velocity": 0.3464566929133858
        },
        {
          "duration": 0.4131942791666674,
          "durationTicks": 238,
          "midi": 76,
          "name": "E5",
          "ticks": 34320,
          "time": 59.5833095,
          "velocity": 0.3464566929133858
        },
        {
          "duration": 0.8298607791666726,
          "durationTicks": 478,
          "midi": 77,
          "name": "F5",
          "ticks": 34560,
          "time": 59.999976,
          "velocity": 0.3464566929133858
        },
        {
          "duration": 0.4131942791666674,
          "durationTicks": 238,
          "midi": 77,
          "name": "F5",
          "ticks": 35040,
          "time": 60.833309,
          "velocity": 0.3464566929133858
        },
        {
          "duration": 0.4131942791666745,
          "durationTicks": 238,
          "midi": 77,
          "name": "F5",
          "ticks": 35280,
          "time": 61.2499755,
          "velocity": 0.3464566929133858
        },
        {
          "duration": 0.8298607791666726,
          "durationTicks": 478,
          "midi": 77,
          "name": "F5",
          "ticks": 35520,
          "time": 61.666641999999996,
          "velocity": 0.3464566929133858
        },
        {
          "duration": 0.8298607791666726,
          "durationTicks": 478,
          "midi": 77,
          "name": "F5",
          "ticks": 36000,
          "time": 62.499975,
          "velocity": 0.3464566929133858
        },
        {
          "duration": 1.6631937791666616,
          "durationTicks": 958,
          "midi": 79,
          "name": "G5",
          "ticks": 36480,
          "time": 63.333308,
          "velocity": 0.3464566929133858
        },
        {
          "duration": 0.7777774666666772,
          "durationTicks": 448,
          "midi": 77,
          "name": "F5",
          "ticks": 37440,
          "time": 64.999974,
          "velocity": 0.3464566929133858
        },
        {
          "duration": 2.0798602791666667,
          "durationTicks": 1198,
          "midi": 77,
          "name": "F5",
          "ticks": 37920,
          "time": 65.833307,
          "velocity": 0.3464566929133858
        },
        {
          "duration": 0.4131942791666603,
          "durationTicks": 238,
          "midi": 77,
          "name": "F5",
          "ticks": 39120,
          "time": 67.9166395,
          "velocity": 0.3464566929133858
        },
        {
          "duration": 0.8298607791666797,
          "durationTicks": 478,
          "midi": 76,
          "name": "E5",
          "ticks": 39360,
          "time": 68.333306,
          "velocity": 0.3464566929133858
        },
        {
          "duration": 1.2465272791666706,
          "durationTicks": 718,
          "midi": 76,
          "name": "E5",
          "ticks": 40320,
          "time": 69.999972,
          "velocity": 0.3464566929133858
        },
        {
          "duration": 0.4131942791666745,
          "durationTicks": 238,
          "midi": 76,
          "name": "E5",
          "ticks": 41040,
          "time": 71.2499715,
          "velocity": 0.3464566929133858
        },
        {
          "duration": 0.8298607791666655,
          "durationTicks": 478,
          "midi": 74,
          "name": "D5",
          "ticks": 41280,
          "time": 71.666638,
          "velocity": 0.3464566929133858
        },
        {
          "duration": 1.2465272791666706,
          "durationTicks": 718,
          "midi": 74,
          "name": "D5",
          "ticks": 42240,
          "time": 73.333304,
          "velocity": 0.3464566929133858
        },
        {
          "duration": 0.4131942791666745,
          "durationTicks": 238,
          "midi": 74,
          "name": "D5",
          "ticks": 42960,
          "time": 74.5833035,
          "velocity": 0.3464566929133858
        },
        {
          "duration": 0.4131942791666603,
          "durationTicks": 238,
          "midi": 72,
          "name": "C5",
          "ticks": 43200,
          "time": 74.99997,
          "velocity": 0.3464566929133858
        },
        {
          "duration": 0.4131942791666745,
          "durationTicks": 238,
          "midi": 72,
          "name": "C5",
          "ticks": 43440,
          "time": 75.4166365,
          "velocity": 0.3464566929133858
        },
        {
          "duration": 0.4131942791666745,
          "durationTicks": 238,
          "midi": 74,
          "name": "D5",
          "ticks": 43680,
          "time": 75.833303,
          "velocity": 0.3464566929133858
        },
        {
          "duration": 0.4131942791666603,
          "durationTicks": 238,
          "midi": 74,
          "name": "D5",
          "ticks": 43920,
          "time": 76.2499695,
          "velocity": 0.3464566929133858
        },
        {
          "duration": 0.8298607791666655,
          "durationTicks": 478,
          "midi": 74,
          "name": "D5",
          "ticks": 44160,
          "time": 76.666636,
          "velocity": 0.3464566929133858
        },
        {
          "duration": 0.8298607791666797,
          "durationTicks": 478,
          "midi": 72,
          "name": "C5",
          "ticks": 44640,
          "time": 77.499969,
          "velocity": 0.3464566929133858
        },
        {
          "duration": 1.6631937791666616,
          "durationTicks": 958,
          "midi": 71,
          "name": "B4",
          "ticks": 45120,
          "time": 78.333302,
          "velocity": 0.3464566929133858
        },
        {
          "duration": 0.8298607791666797,
          "durationTicks": 478,
          "midi": 72,
          "name": "C5",
          "ticks": 46080,
          "time": 79.999968,
          "velocity": 0.3464566929133858
        },
        {
          "duration": 0.8298607791666655,
          "durationTicks": 478,
          "midi": 69,
          "name": "A4",
          "ticks": 48960,
          "time": 84.999966,
          "velocity": 0.3779527559055118
        },
        {
          "duration": 0.8298607791666655,
          "durationTicks": 478,
          "midi": 69,
          "name": "A4",
          "ticks": 49440,
          "time": 85.833299,
          "velocity": 0.3779527559055118
        },
        {
          "duration": 0.8298607791666797,
          "durationTicks": 478,
          "midi": 70,
          "name": "A#4",
          "ticks": 49920,
          "time": 86.66663199999999,
          "velocity": 0.3779527559055118
        },
        {
          "duration": 0.8298607791666655,
          "durationTicks": 478,
          "midi": 70,
          "name": "A#4",
          "ticks": 50400,
          "time": 87.499965,
          "velocity": 0.3779527559055118
        },
        {
          "duration": 0.8298607791666655,
          "durationTicks": 478,
          "midi": 70,
          "name": "A#4",
          "ticks": 50880,
          "time": 88.333298,
          "velocity": 0.3779527559055118
        },
        {
          "duration": 0.8298607791666797,
          "durationTicks": 478,
          "midi": 70,
          "name": "A#4",
          "ticks": 51360,
          "time": 89.166631,
          "velocity": 0.3779527559055118
        },
        {
          "duration": 0.8298607791666655,
          "durationTicks": 478,
          "midi": 70,
          "name": "A#4",
          "ticks": 51840,
          "time": 89.999964,
          "velocity": 0.3779527559055118
        },
        {
          "duration": 1.6631937791666616,
          "durationTicks": 958,
          "midi": 68,
          "name": "G#4",
          "ticks": 52320,
          "time": 90.833297,
          "velocity": 0.3779527559055118
        },
        {
          "duration": 0.8298607791666797,
          "durationTicks": 478,
          "midi": 67,
          "name": "G4",
          "ticks": 53280,
          "time": 92.499963,
          "velocity": 0.3779527559055118
        },
        {
          "duration": 0.8298607791666655,
          "durationTicks": 478,
          "midi": 68,
          "name": "G#4",
          "ticks": 53760,
          "time": 93.333296,
          "velocity": 0.3779527559055118
        },
        {
          "duration": 0.8298607791666797,
          "durationTicks": 478,
          "midi": 68,
          "name": "G#4",
          "ticks": 56640,
          "time": 98.333294,
          "velocity": 0.3779527559055118
        },
        {
          "duration": 0.8298607791666655,
          "durationTicks": 478,
          "midi": 68,
          "name": "G#4",
          "ticks": 57120,
          "time": 99.166627,
          "velocity": 0.3779527559055118
        },
        {
          "duration": 0.8298607791666655,
          "durationTicks": 478,
          "midi": 69,
          "name": "A4",
          "ticks": 57600,
          "time": 99.99996,
          "velocity": 0.3779527559055118
        },
        {
          "duration": 0.8298607791666655,
          "durationTicks": 478,
          "midi": 69,
          "name": "A4",
          "ticks": 58080,
          "time": 100.833293,
          "velocity": 0.3779527559055118
        },
        {
          "duration": 0.8298607791666797,
          "durationTicks": 478,
          "midi": 69,
          "name": "A4",
          "ticks": 58560,
          "time": 101.666626,
          "velocity": 0.3779527559055118
        },
        {
          "duration": 0.8298607791666655,
          "durationTicks": 478,
          "midi": 69,
          "name": "A4",
          "ticks": 59040,
          "time": 102.499959,
          "velocity": 0.3779527559055118
        },
        {
          "duration": 0.8298607791666655,
          "durationTicks": 478,
          "midi": 69,
          "name": "A4",
          "ticks": 59520,
          "time": 103.333292,
          "velocity": 0.3779527559055118
        },
        {
          "duration": 1.6631937791666758,
          "durationTicks": 958,
          "midi": 67,
          "name": "G4",
          "ticks": 60000,
          "time": 104.166625,
          "velocity": 0.3779527559055118
        },
        {
          "duration": 0.8298607791666655,
          "durationTicks": 478,
          "midi": 66,
          "name": "F#4",
          "ticks": 60960,
          "time": 105.833291,
          "velocity": 0.3779527559055118
        },
        {
          "duration": 0.8298607791666655,
          "durationTicks": 478,
          "midi": 67,
          "name": "G4",
          "ticks": 61440,
          "time": 106.666624,
          "velocity": 0.3779527559055118
        },
        {
          "duration": 0.8298607791666655,
          "durationTicks": 478,
          "midi": 67,
          "name": "G4",
          "ticks": 64320,
          "time": 111.666622,
          "velocity": 0.3779527559055118
        },
        {
          "duration": 0.8298607791666655,
          "durationTicks": 478,
          "midi": 67,
          "name": "G4",
          "ticks": 64800,
          "time": 112.499955,
          "velocity": 0.3779527559055118
        },
        {
          "duration": 1.6631937791666758,
          "durationTicks": 958,
          "midi": 68,
          "name": "G#4",
          "ticks": 65280,
          "time": 113.333288,
          "velocity": 0.3779527559055118
        },
        {
          "duration": 0.8298607791666655,
          "durationTicks": 478,
          "midi": 66,
          "name": "F#4",
          "ticks": 66240,
          "time": 114.999954,
          "velocity": 0.3779527559055118
        },
        {
          "duration": 0.8298607791666655,
          "durationTicks": 478,
          "midi": 66,
          "name": "F#4",
          "ticks": 68160,
          "time": 118.333286,
          "velocity": 0.3779527559055118
        },
        {
          "duration": 0.8298607791666655,
          "durationTicks": 478,
          "midi": 66,
          "name": "F#4",
          "ticks": 68640,
          "time": 119.166619,
          "velocity": 0.3779527559055118
        },
        {
          "duration": 0.8298607791666797,
          "durationTicks": 478,
          "midi": 67,
          "name": "G4",
          "ticks": 69120,
          "time": 119.999952,
          "velocity": 0.3779527559055118
        },
        {
          "duration": 0.8298607791666655,
          "durationTicks": 478,
          "midi": 67,
          "name": "G4",
          "ticks": 69600,
          "time": 120.833285,
          "velocity": 0.3779527559055118
        },
        {
          "duration": 0.8298607791666655,
          "durationTicks": 478,
          "midi": 65,
          "name": "F4",
          "ticks": 70080,
          "time": 121.666618,
          "velocity": 0.3779527559055118
        },
        {
          "duration": 0.8298607791666797,
          "durationTicks": 478,
          "midi": 65,
          "name": "F4",
          "ticks": 70560,
          "time": 122.499951,
          "velocity": 0.3779527559055118
        },
        {
          "duration": 1.6631937791666758,
          "durationTicks": 958,
          "midi": 65,
          "name": "F4",
          "ticks": 71040,
          "time": 123.33328399999999,
          "velocity": 0.3779527559055118
        },
        {
          "duration": 1.6631937791666758,
          "durationTicks": 958,
          "midi": 64,
          "name": "E4",
          "ticks": 72000,
          "time": 124.99995,
          "velocity": 0.3779527559055118
        },
        {
          "duration": 0.8298607791666655,
          "durationTicks": 478,
          "midi": 65,
          "name": "F4",
          "ticks": 72960,
          "time": 126.666616,
          "velocity": 0.3779527559055118
        }
      ]
    },
    {
      "channel": 0,
      "controlChanges": {},
      "pitchBends": [],
      "instrument": {
        "family": "piano",
        "number": 0,
        "name": "acoustic grand piano"
      },
      "name": "Alto ",
      "notes": [],
      "endOfTrackTicks": 74880
    },
    {
      "channel": 11,
      "controlChanges": {
        "7": [
          {
            "number": 7,
            "ticks": 0,
            "time": 0,
            "value": 0.7559055118110236
          }
        ],
        "10": [
          {
            "number": 10,
            "ticks": 0,
            "time": 0,
            "value": 0.7559055118110236
          }
        ],
        "11": [
          {
            "number": 11,
            "ticks": 0,
            "time": 0,
            "value": 1
          }
        ]
      },
      "pitchBends": [],
      "instrument": {
        "family": "pipe",
        "number": 73,
        "name": "flute"
      },
      "name": "",
      "notes": [
        {
          "duration": 2.9131932791666664,
          "durationTicks": 1678,
          "midi": 72,
          "name": "C5",
          "ticks": 11520,
          "time": 19.999992,
          "velocity": 0.3464566929133858
        },
        {
          "duration": 0.36111096666666853,
          "durationTicks": 208,
          "midi": 72,
          "name": "C5",
          "ticks": 13200,
          "time": 22.9166575,
          "velocity": 0.3464566929133858
        },
        {
          "duration": 0.8298607791666655,
          "durationTicks": 478,
          "midi": 72,
          "name": "C5",
          "ticks": 13440,
          "time": 23.333324,
          "velocity": 0.3464566929133858
        },
        {
          "duration": 0.4131942791666674,
          "durationTicks": 238,
          "midi": 71,
          "name": "B4",
          "ticks": 13920,
          "time": 24.166657,
          "velocity": 0.3464566929133858
        },
        {
          "duration": 0.4131942791666674,
          "durationTicks": 238,
          "midi": 71,
          "name": "B4",
          "ticks": 14160,
          "time": 24.5833235,
          "velocity": 0.3464566929133858
        },
        {
          "duration": 0.8298607791666655,
          "durationTicks": 478,
          "midi": 72,
          "name": "C5",
          "ticks": 14400,
          "time": 24.99999,
          "velocity": 0.3464566929133858
        },
        {
          "duration": 1.2465272791666635,
          "durationTicks": 718,
          "midi": 72,
          "name": "C5",
          "ticks": 15360,
          "time": 26.666656,
          "velocity": 0.3464566929133858
        },
        {
          "duration": 0.41319427916666385,
          "durationTicks": 238,
          "midi": 72,
          "name": "C5",
          "ticks": 16080,
          "time": 27.9166555,
          "velocity": 0.3464566929133858
        },
        {
          "duration": 0.41319427916666385,
          "durationTicks": 238,
          "midi": 72,
          "name": "C5",
          "ticks": 16320,
          "time": 28.333322,
          "velocity": 0.3464566929133858
        },
        {
          "duration": 0.41319427916666385,
          "durationTicks": 238,
          "midi": 72,
          "name": "C5",
          "ticks": 16560,
          "time": 28.7499885,
          "velocity": 0.3464566929133858
        },
        {
          "duration": 0.41319427916666385,
          "durationTicks": 238,
          "midi": 72,
          "name": "C5",
          "ticks": 16800,
          "time": 29.166655,
          "velocity": 0.3464566929133858
        },
        {
          "duration": 0.41319427916666385,
          "durationTicks": 238,
          "midi": 72,
          "name": "C5",
          "ticks": 17040,
          "time": 29.5833215,
          "velocity": 0.3464566929133858
        },
        {
          "duration": 0.8298607791666655,
          "durationTicks": 478,
          "midi": 72,
          "name": "C5",
          "ticks": 17280,
          "time": 29.999988,
          "velocity": 0.3464566929133858
        },
        {
          "duration": 0.8298607791666655,
          "durationTicks": 478,
          "midi": 71,
          "name": "B4",
          "ticks": 17760,
          "time": 30.833320999999998,
          "velocity": 0.3464566929133858
        },
        {
          "duration": 0.8298607791666655,
          "durationTicks": 478,
          "midi": 72,
          "name": "C5",
          "ticks": 18240,
          "time": 31.666654,
          "velocity": 0.3464566929133858
        },
        {
          "duration": 2.91319327916667,
          "durationTicks": 1678,
          "midi": 69,
          "name": "A4",
          "ticks": 30720,
          "time": 53.333312,
          "velocity": 0.3464566929133858
        },
        {
          "duration": 0.3611109666666721,
          "durationTicks": 208,
          "midi": 69,
          "name": "A4",
          "ticks": 32400,
          "time": 56.2499775,
          "velocity": 0.3464566929133858
        },
        {
          "duration": 0.8298607791666726,
          "durationTicks": 478,
          "midi": 69,
          "name": "A4",
          "ticks": 32640,
          "time": 56.666644,
          "velocity": 0.3464566929133858
        },
        {
          "duration": 0.4131942791666674,
          "durationTicks": 238,
          "midi": 68,
          "name": "G#4",
          "ticks": 33120,
          "time": 57.499977,
          "velocity": 0.3464566929133858
        },
        {
          "duration": 0.4131942791666674,
          "durationTicks": 238,
          "midi": 68,
          "name": "G#4",
          "ticks": 33360,
          "time": 57.9166435,
          "velocity": 0.3464566929133858
        },
        {
          "duration": 0.8298607791666726,
          "durationTicks": 478,
          "midi": 69,
          "name": "A4",
          "ticks": 33600,
          "time": 58.33331,
          "velocity": 0.3464566929133858
        },
        {
          "duration": 1.2465272791666706,
          "durationTicks": 718,
          "midi": 69,
          "name": "A4",
          "ticks": 34560,
          "time": 59.999976,
          "velocity": 0.3464566929133858
        },
        {
          "duration": 0.4131942791666745,
          "durationTicks": 238,
          "midi": 69,
          "name": "A4",
          "ticks": 35280,
          "time": 61.2499755,
          "velocity": 0.3464566929133858
        },
        {
          "duration": 0.4131942791666745,
          "durationTicks": 238,
          "midi": 74,
          "name": "D5",
          "ticks": 35520,
          "time": 61.666641999999996,
          "velocity": 0.3464566929133858
        },
        {
          "duration": 0.4131942791666674,
          "durationTicks": 238,
          "midi": 74,
          "name": "D5",
          "ticks": 35760,
          "time": 62.0833085,
          "velocity": 0.3464566929133858
        },
        {
          "duration": 0.4131942791666674,
          "durationTicks": 238,
          "midi": 74,
          "name": "D5",
          "ticks": 36000,
          "time": 62.499975,
          "velocity": 0.3464566929133858
        },
        {
          "duration": 0.4131942791666745,
          "durationTicks": 238,
          "midi": 74,
          "name": "D5",
          "ticks": 36240,
          "time": 62.9166415,
          "velocity": 0.3464566929133858
        },
        {
          "duration": 0.8298607791666655,
          "durationTicks": 478,
          "midi": 74,
          "name": "D5",
          "ticks": 36480,
          "time": 63.333308,
          "velocity": 0.3464566929133858
        },
        {
          "duration": 0.8298607791666655,
          "durationTicks": 478,
          "midi": 73,
          "name": "C#5",
          "ticks": 36960,
          "time": 64.166641,
          "velocity": 0.3464566929133858
        },
        {
          "duration": 0.8298607791666797,
          "durationTicks": 478,
          "midi": 74,
          "name": "D5",
          "ticks": 37440,
          "time": 64.999974,
          "velocity": 0.3464566929133858
        },
        {
          "duration": 2.0798602791666667,
          "durationTicks": 1198,
          "midi": 71,
          "name": "B4",
          "ticks": 38880,
          "time": 67.499973,
          "velocity": 0.3464566929133858
        },
        {
          "duration": 0.4131942791666745,
          "durationTicks": 238,
          "midi": 71,
          "name": "B4",
          "ticks": 40080,
          "time": 69.5833055,
          "velocity": 0.3464566929133858
        },
        {
          "duration": 0.8298607791666655,
          "durationTicks": 478,
          "midi": 69,
          "name": "A4",
          "ticks": 40320,
          "time": 69.999972,
          "velocity": 0.3464566929133858
        },
        {
          "duration": 1.2465272791666564,
          "durationTicks": 718,
          "midi": 69,
          "name": "A4",
          "ticks": 41280,
          "time": 71.666638,
          "velocity": 0.3464566929133858
        },
        {
          "duration": 0.4131942791666745,
          "durationTicks": 238,
          "midi": 69,
          "name": "A4",
          "ticks": 42000,
          "time": 72.9166375,
          "velocity": 0.3464566929133858
        },
        {
          "duration": 0.8298607791666655,
          "durationTicks": 478,
          "midi": 68,
          "name": "G#4",
          "ticks": 42240,
          "time": 73.333304,
          "velocity": 0.3464566929133858
        },
        {
          "duration": 0.8298607791666797,
          "durationTicks": 478,
          "midi": 68,
          "name": "G#4",
          "ticks": 42720,
          "time": 74.166637,
          "velocity": 0.3464566929133858
        },
        {
          "duration": 0.8298607791666655,
          "durationTicks": 478,
          "midi": 69,
          "name": "A4",
          "ticks": 43200,
          "time": 74.99997,
          "velocity": 0.3464566929133858
        },
        {
          "duration": 0.8298607791666655,
          "durationTicks": 478,
          "midi": 69,
          "name": "A4",
          "ticks": 43680,
          "time": 75.833303,
          "velocity": 0.3464566929133858
        },
        {
          "duration": 0.8298607791666655,
          "durationTicks": 478,
          "midi": 68,
          "name": "G#4",
          "ticks": 44160,
          "time": 76.666636,
          "velocity": 0.3464566929133858
        },
        {
          "duration": 1.6631937791666758,
          "durationTicks": 958,
          "midi": 69,
          "name": "A4",
          "ticks": 44640,
          "time": 77.499969,
          "velocity": 0.3464566929133858
        },
        {
          "duration": 0.8298607791666655,
          "durationTicks": 478,
          "midi": 68,
          "name": "G#4",
          "ticks": 45600,
          "time": 79.166635,
          "velocity": 0.3464566929133858
        },
        {
          "duration": 0.8298607791666797,
          "durationTicks": 478,
          "midi": 69,
          "name": "A4",
          "ticks": 46080,
          "time": 79.999968,
          "velocity": 0.3464566929133858
        },
        {
          "duration": 0.8298607791666655,
          "durationTicks": 478,
          "midi": 66,
          "name": "F#4",
          "ticks": 48960,
          "time": 84.999966,
          "velocity": 0.3779527559055118
        },
        {
          "duration": 0.8298607791666655,
          "durationTicks": 478,
          "midi": 66,
          "name": "F#4",
          "ticks": 49440,
          "time": 85.833299,
          "velocity": 0.3779527559055118
        },
        {
          "duration": 0.8298607791666797,
          "durationTicks": 478,
          "midi": 67,
          "name": "G4",
          "ticks": 49920,
          "time": 86.66663199999999,
          "velocity": 0.3779527559055118
        },
        {
          "duration": 0.8298607791666655,
          "durationTicks": 478,
          "midi": 67,
          "name": "G4",
          "ticks": 50400,
          "time": 87.499965,
          "velocity": 0.3779527559055118
        },
        {
          "duration": 0.8298607791666655,
          "durationTicks": 478,
          "midi": 67,
          "name": "G4",
          "ticks": 50880,
          "time": 88.333298,
          "velocity": 0.3779527559055118
        },
        {
          "duration": 0.8298607791666797,
          "durationTicks": 478,
          "midi": 67,
          "name": "G4",
          "ticks": 51360,
          "time": 89.166631,
          "velocity": 0.3779527559055118
        },
        {
          "duration": 3.329859779166668,
          "durationTicks": 1918,
          "midi": 63,
          "name": "D#4",
          "ticks": 51840,
          "time": 89.999964,
          "velocity": 0.3779527559055118
        },
        {
          "duration": 0.8298607791666655,
          "durationTicks": 478,
          "midi": 63,
          "name": "D#4",
          "ticks": 53760,
          "time": 93.333296,
          "velocity": 0.3779527559055118
        },
        {
          "duration": 0.8298607791666797,
          "durationTicks": 478,
          "midi": 65,
          "name": "F4",
          "ticks": 56640,
          "time": 98.333294,
          "velocity": 0.3779527559055118
        },
        {
          "duration": 0.8298607791666655,
          "durationTicks": 478,
          "midi": 65,
          "name": "F4",
          "ticks": 57120,
          "time": 99.166627,
          "velocity": 0.3779527559055118
        },
        {
          "duration": 0.8298607791666655,
          "durationTicks": 478,
          "midi": 66,
          "name": "F#4",
          "ticks": 57600,
          "time": 99.99996,
          "velocity": 0.3779527559055118
        },
        {
          "duration": 0.8298607791666655,
          "durationTicks": 478,
          "midi": 66,
          "name": "F#4",
          "ticks": 58080,
          "time": 100.833293,
          "velocity": 0.3779527559055118
        },
        {
          "duration": 0.8298607791666797,
          "durationTicks": 478,
          "midi": 66,
          "name": "F#4",
          "ticks": 58560,
          "time": 101.666626,
          "velocity": 0.3779527559055118
        },
        {
          "duration": 0.8298607791666655,
          "durationTicks": 478,
          "midi": 66,
          "name": "F#4",
          "ticks": 59040,
          "time": 102.499959,
          "velocity": 0.3779527559055118
        },
        {
          "duration": 3.329859779166668,
          "durationTicks": 1918,
          "midi": 62,
          "name": "D4",
          "ticks": 59520,
          "time": 103.333292,
          "velocity": 0.3779527559055118
        },
        {
          "duration": 0.8298607791666655,
          "durationTicks": 478,
          "midi": 62,
          "name": "D4",
          "ticks": 61440,
          "time": 106.666624,
          "velocity": 0.3779527559055118
        },
        {
          "duration": 0.8298607791666655,
          "durationTicks": 478,
          "midi": 64,
          "name": "E4",
          "ticks": 64320,
          "time": 111.666622,
          "velocity": 0.3779527559055118
        },
        {
          "duration": 0.8298607791666655,
          "durationTicks": 478,
          "midi": 64,
          "name": "E4",
          "ticks": 64800,
          "time": 112.499955,
          "velocity": 0.3779527559055118
        },
        {
          "duration": 1.6631937791666758,
          "durationTicks": 958,
          "midi": 65,
          "name": "F4",
          "ticks": 65280,
          "time": 113.333288,
          "velocity": 0.3779527559055118
        },
        {
          "duration": 0.8298607791666655,
          "durationTicks": 478,
          "midi": 66,
          "name": "F#4",
          "ticks": 66240,
          "time": 114.999954,
          "velocity": 0.3779527559055118
        },
        {
          "duration": 0.8298607791666655,
          "durationTicks": 478,
          "midi": 63,
          "name": "D#4",
          "ticks": 68160,
          "time": 118.333286,
          "velocity": 0.3779527559055118
        },
        {
          "duration": 0.8298607791666655,
          "durationTicks": 478,
          "midi": 63,
          "name": "D#4",
          "ticks": 68640,
          "time": 119.166619,
          "velocity": 0.3779527559055118
        },
        {
          "duration": 0.8298607791666797,
          "durationTicks": 478,
          "midi": 64,
          "name": "E4",
          "ticks": 69120,
          "time": 119.999952,
          "velocity": 0.3779527559055118
        },
        {
          "duration": 0.8298607791666655,
          "durationTicks": 478,
          "midi": 64,
          "name": "E4",
          "ticks": 69600,
          "time": 120.833285,
          "velocity": 0.3779527559055118
        },
        {
          "duration": 0.8298607791666655,
          "durationTicks": 478,
          "midi": 65,
          "name": "F4",
          "ticks": 70080,
          "time": 121.666618,
          "velocity": 0.3779527559055118
        },
        {
          "duration": 0.8298607791666797,
          "durationTicks": 478,
          "midi": 60,
          "name": "C4",
          "ticks": 70560,
          "time": 122.499951,
          "velocity": 0.3779527559055118
        },
        {
          "duration": 3.329859779166682,
          "durationTicks": 1918,
          "midi": 60,
          "name": "C4",
          "ticks": 71040,
          "time": 123.33328399999999,
          "velocity": 0.3779527559055118
        },
        {
          "duration": 0.8298607791666655,
          "durationTicks": 478,
          "midi": 60,
          "name": "C4",
          "ticks": 72960,
          "time": 126.666616,
          "velocity": 0.3779527559055118
        }
      ]
    },
    {
      "channel": 0,
      "controlChanges": {},
      "pitchBends": [],
      "instrument": {
        "family": "piano",
        "number": 0,
        "name": "acoustic grand piano"
      },
      "name": "Tenor ",
      "notes": [],
      "endOfTrackTicks": 74880
    },
    {
      "channel": 12,
      "controlChanges": {
        "7": [
          {
            "number": 7,
            "ticks": 0,
            "time": 0,
            "value": 0.8188976377952756
          }
        ],
        "10": [
          {
            "number": 10,
            "ticks": 0,
            "time": 0,
            "value": 0.4409448818897638
          }
        ],
        "11": [
          {
            "number": 11,
            "ticks": 0,
            "time": 0,
            "value": 1
          }
        ]
      },
      "pitchBends": [],
      "instrument": {
        "family": "reed",
        "number": 70,
        "name": "bassoon"
      },
      "name": "",
      "notes": [
        {
          "duration": 0.6215275291666664,
          "durationTicks": 358,
          "midi": 60,
          "name": "C4",
          "ticks": 1440,
          "time": 2.499999,
          "velocity": 0.5984251968503937
        },
        {
          "duration": 0.2048610291666666,
          "durationTicks": 118,
          "midi": 57,
          "name": "A3",
          "ticks": 1800,
          "time": 3.12499875,
          "velocity": 0.5984251968503937
        },
        {
          "duration": 0.8298607791666668,
          "durationTicks": 478,
          "midi": 62,
          "name": "D4",
          "ticks": 1920,
          "time": 3.333332,
          "velocity": 0.5984251968503937
        },
        {
          "duration": 0.8298607791666663,
          "durationTicks": 478,
          "midi": 56,
          "name": "G#3",
          "ticks": 2400,
          "time": 4.166665,
          "velocity": 0.5984251968503937
        },
        {
          "duration": 0.6215275291666664,
          "durationTicks": 358,
          "midi": 62,
          "name": "D4",
          "ticks": 3360,
          "time": 5.833331,
          "velocity": 0.5984251968503937
        },
        {
          "duration": 0.2048610291666666,
          "durationTicks": 118,
          "midi": 59,
          "name": "B3",
          "ticks": 3720,
          "time": 6.45833075,
          "velocity": 0.5984251968503937
        },
        {
          "duration": 0.8298607791666672,
          "durationTicks": 478,
          "midi": 64,
          "name": "E4",
          "ticks": 3840,
          "time": 6.666664,
          "velocity": 0.5984251968503937
        },
        {
          "duration": 0.8298607791666663,
          "durationTicks": 478,
          "midi": 57,
          "name": "A3",
          "ticks": 4320,
          "time": 7.499997,
          "velocity": 0.5984251968503937
        },
        {
          "duration": 0.6215275291666682,
          "durationTicks": 358,
          "midi": 65,
          "name": "F4",
          "ticks": 6240,
          "time": 10.833328999999999,
          "velocity": 0.5984251968503937
        },
        {
          "duration": 0.2048610291666666,
          "durationTicks": 118,
          "midi": 64,
          "name": "E4",
          "ticks": 6600,
          "time": 11.45832875,
          "velocity": 0.5984251968503937
        },
        {
          "duration": 0.6215275291666664,
          "durationTicks": 358,
          "midi": 62,
          "name": "D4",
          "ticks": 6720,
          "time": 11.666662,
          "velocity": 0.5984251968503937
        },
        {
          "duration": 0.2048610291666666,
          "durationTicks": 118,
          "midi": 60,
          "name": "C4",
          "ticks": 7080,
          "time": 12.29166175,
          "velocity": 0.5984251968503937
        },
        {
          "duration": 0.6215275291666664,
          "durationTicks": 358,
          "midi": 59,
          "name": "B3",
          "ticks": 7200,
          "time": 12.499995,
          "velocity": 0.5984251968503937
        },
        {
          "duration": 0.20486102916666837,
          "durationTicks": 118,
          "midi": 57,
          "name": "A3",
          "ticks": 7560,
          "time": 13.124994749999999,
          "velocity": 0.5984251968503937
        },
        {
          "duration": 0.6215275291666664,
          "durationTicks": 358,
          "midi": 56,
          "name": "G#3",
          "ticks": 7680,
          "time": 13.333328,
          "velocity": 0.5984251968503937
        },
        {
          "duration": 0.15277771666666595,
          "durationTicks": 88,
          "midi": 52,
          "name": "E3",
          "ticks": 8040,
          "time": 13.95832775,
          "velocity": 0.5984251968503937
        },
        {
          "duration": 0.6215275291666664,
          "durationTicks": 358,
          "midi": 62,
          "name": "D4",
          "ticks": 8160,
          "time": 14.166661,
          "velocity": 0.5984251968503937
        },
        {
          "duration": 0.2048610291666666,
          "durationTicks": 118,
          "midi": 62,
          "name": "D4",
          "ticks": 8520,
          "time": 14.79166075,
          "velocity": 0.5984251968503937
        },
        {
          "duration": 0.6215275291666682,
          "durationTicks": 358,
          "midi": 63,
          "name": "D#4",
          "ticks": 8640,
          "time": 14.999994,
          "velocity": 0.5984251968503937
        },
        {
          "duration": 0.2048610291666666,
          "durationTicks": 118,
          "midi": 63,
          "name": "D#4",
          "ticks": 9000,
          "time": 15.62499375,
          "velocity": 0.5984251968503937
        },
        {
          "duration": 0.6215275291666664,
          "durationTicks": 358,
          "midi": 63,
          "name": "D#4",
          "ticks": 9120,
          "time": 15.833327,
          "velocity": 0.5984251968503937
        },
        {
          "duration": 0.20486102916666482,
          "durationTicks": 118,
          "midi": 63,
          "name": "D#4",
          "ticks": 9480,
          "time": 16.45832675,
          "velocity": 0.5984251968503937
        },
        {
          "duration": 0.8298607791666655,
          "durationTicks": 478,
          "midi": 64,
          "name": "E4",
          "ticks": 9600,
          "time": 16.66666,
          "velocity": 0.5984251968503937
        },
        {
          "duration": 0.8298607791666655,
          "durationTicks": 478,
          "midi": 52,
          "name": "E3",
          "ticks": 10080,
          "time": 17.499993,
          "velocity": 0.5984251968503937
        },
        {
          "duration": 0.62152752916667,
          "durationTicks": 358,
          "midi": 62,
          "name": "D4",
          "ticks": 19680,
          "time": 34.166653,
          "velocity": 0.5984251968503937
        },
        {
          "duration": 0.20486102916666482,
          "durationTicks": 118,
          "midi": 67,
          "name": "G4",
          "ticks": 20040,
          "time": 34.79165275,
          "velocity": 0.5984251968503937
        },
        {
          "duration": 0.8298607791666655,
          "durationTicks": 478,
          "midi": 66,
          "name": "F#4",
          "ticks": 20160,
          "time": 34.999986,
          "velocity": 0.5984251968503937
        },
        {
          "duration": 0.8298607791666583,
          "durationTicks": 478,
          "midi": 62,
          "name": "D4",
          "ticks": 20640,
          "time": 35.833319,
          "velocity": 0.5984251968503937
        },
        {
          "duration": 0.6215275291666629,
          "durationTicks": 358,
          "midi": 64,
          "name": "E4",
          "ticks": 21600,
          "time": 37.499985,
          "velocity": 0.5984251968503937
        },
        {
          "duration": 0.20486102916665772,
          "durationTicks": 118,
          "midi": 69,
          "name": "A4",
          "ticks": 21960,
          "time": 38.12498475,
          "velocity": 0.5984251968503937
        },
        {
          "duration": 0.8298607791666655,
          "durationTicks": 478,
          "midi": 68,
          "name": "G#4",
          "ticks": 22080,
          "time": 38.333318,
          "velocity": 0.5984251968503937
        },
        {
          "duration": 0.777777466666663,
          "durationTicks": 448,
          "midi": 64,
          "name": "E4",
          "ticks": 22560,
          "time": 39.166651,
          "velocity": 0.5984251968503937
        },
        {
          "duration": 1.2465272791666635,
          "durationTicks": 718,
          "midi": 65,
          "name": "F4",
          "ticks": 23040,
          "time": 39.999984,
          "velocity": 0.5984251968503937
        },
        {
          "duration": 0.4131942791666674,
          "durationTicks": 238,
          "midi": 67,
          "name": "G4",
          "ticks": 23760,
          "time": 41.2499835,
          "velocity": 0.5984251968503937
        },
        {
          "duration": 0.6215275291666629,
          "durationTicks": 358,
          "midi": 64,
          "name": "E4",
          "ticks": 24000,
          "time": 41.66665,
          "velocity": 0.5984251968503937
        },
        {
          "duration": 0.20486102916666482,
          "durationTicks": 118,
          "midi": 64,
          "name": "E4",
          "ticks": 24360,
          "time": 42.29164975,
          "velocity": 0.5984251968503937
        },
        {
          "duration": 0.6215275291666629,
          "durationTicks": 358,
          "midi": 64,
          "name": "E4",
          "ticks": 24480,
          "time": 42.499983,
          "velocity": 0.5984251968503937
        },
        {
          "duration": 0.20486102916666482,
          "durationTicks": 118,
          "midi": 65,
          "name": "F4",
          "ticks": 24840,
          "time": 43.12498275,
          "velocity": 0.5984251968503937
        },
        {
          "duration": 0.62152752916667,
          "durationTicks": 358,
          "midi": 62,
          "name": "D4",
          "ticks": 24960,
          "time": 43.333315999999996,
          "velocity": 0.5984251968503937
        },
        {
          "duration": 0.1527777166666695,
          "durationTicks": 88,
          "midi": 62,
          "name": "D4",
          "ticks": 25320,
          "time": 43.95831575,
          "velocity": 0.5984251968503937
        },
        {
          "duration": 0.6215275291666629,
          "durationTicks": 358,
          "midi": 62,
          "name": "D4",
          "ticks": 25440,
          "time": 44.166649,
          "velocity": 0.5984251968503937
        },
        {
          "duration": 0.20486102916666482,
          "durationTicks": 118,
          "midi": 64,
          "name": "E4",
          "ticks": 25800,
          "time": 44.79164875,
          "velocity": 0.5984251968503937
        },
        {
          "duration": 0.6215275291666629,
          "durationTicks": 358,
          "midi": 60,
          "name": "C4",
          "ticks": 25920,
          "time": 44.999982,
          "velocity": 0.5984251968503937
        },
        {
          "duration": 0.20486102916666482,
          "durationTicks": 118,
          "midi": 60,
          "name": "C4",
          "ticks": 26280,
          "time": 45.624981749999996,
          "velocity": 0.5984251968503937
        },
        {
          "duration": 0.6215275291666629,
          "durationTicks": 358,
          "midi": 58,
          "name": "A#3",
          "ticks": 26400,
          "time": 45.833315,
          "velocity": 0.5984251968503937
        },
        {
          "duration": 0.20486102916666482,
          "durationTicks": 118,
          "midi": 58,
          "name": "A#3",
          "ticks": 26760,
          "time": 46.45831475,
          "velocity": 0.5984251968503937
        },
        {
          "duration": 0.6215275291666629,
          "durationTicks": 358,
          "midi": 57,
          "name": "A3",
          "ticks": 26880,
          "time": 46.666648,
          "velocity": 0.5984251968503937
        },
        {
          "duration": 0.1527777166666624,
          "durationTicks": 88,
          "midi": 57,
          "name": "A3",
          "ticks": 27240,
          "time": 47.29164775,
          "velocity": 0.5984251968503937
        },
        {
          "duration": 0.6215275291666629,
          "durationTicks": 358,
          "midi": 62,
          "name": "D4",
          "ticks": 27360,
          "time": 47.499981,
          "velocity": 0.5984251968503937
        },
        {
          "duration": 0.20486102916666482,
          "durationTicks": 118,
          "midi": 62,
          "name": "D4",
          "ticks": 27720,
          "time": 48.12498075,
          "velocity": 0.5984251968503937
        },
        {
          "duration": 0.6215275291666629,
          "durationTicks": 358,
          "midi": 63,
          "name": "D#4",
          "ticks": 27840,
          "time": 48.333314,
          "velocity": 0.5984251968503937
        },
        {
          "duration": 0.20486102916665772,
          "durationTicks": 118,
          "midi": 63,
          "name": "D#4",
          "ticks": 28200,
          "time": 48.95831375,
          "velocity": 0.5984251968503937
        },
        {
          "duration": 0.6215275291666629,
          "durationTicks": 358,
          "midi": 63,
          "name": "D#4",
          "ticks": 28320,
          "time": 49.166647,
          "velocity": 0.5984251968503937
        },
        {
          "duration": 0.20486102916666482,
          "durationTicks": 118,
          "midi": 63,
          "name": "D#4",
          "ticks": 28680,
          "time": 49.79164675,
          "velocity": 0.5984251968503937
        },
        {
          "duration": 0.8298607791666655,
          "durationTicks": 478,
          "midi": 64,
          "name": "E4",
          "ticks": 28800,
          "time": 49.99998,
          "velocity": 0.5984251968503937
        },
        {
          "duration": 0.8298607791666655,
          "durationTicks": 478,
          "midi": 52,
          "name": "E3",
          "ticks": 29280,
          "time": 50.833313,
          "velocity": 0.5984251968503937
        },
        {
          "duration": 0.8298607791666655,
          "durationTicks": 478,
          "midi": 60,
          "name": "C4",
          "ticks": 48960,
          "time": 84.999966,
          "velocity": 0.3779527559055118
        },
        {
          "duration": 0.8298607791666655,
          "durationTicks": 478,
          "midi": 60,
          "name": "C4",
          "ticks": 49440,
          "time": 85.833299,
          "velocity": 0.3779527559055118
        },
        {
          "duration": 0.8298607791666797,
          "durationTicks": 478,
          "midi": 61,
          "name": "C#4",
          "ticks": 49920,
          "time": 86.66663199999999,
          "velocity": 0.3779527559055118
        },
        {
          "duration": 0.8298607791666655,
          "durationTicks": 478,
          "midi": 61,
          "name": "C#4",
          "ticks": 50400,
          "time": 87.499965,
          "velocity": 0.3779527559055118
        },
        {
          "duration": 0.8298607791666655,
          "durationTicks": 478,
          "midi": 61,
          "name": "C#4",
          "ticks": 50880,
          "time": 88.333298,
          "velocity": 0.3779527559055118
        },
        {
          "duration": 0.8298607791666797,
          "durationTicks": 478,
          "midi": 61,
          "name": "C#4",
          "ticks": 51360,
          "time": 89.166631,
          "velocity": 0.3779527559055118
        },
        {
          "duration": 1.6631937791666616,
          "durationTicks": 958,
          "midi": 59,
          "name": "B3",
          "ticks": 51840,
          "time": 89.999964,
          "velocity": 0.3779527559055118
        },
        {
          "duration": 1.6631937791666758,
          "durationTicks": 958,
          "midi": 58,
          "name": "A#3",
          "ticks": 52800,
          "time": 91.66663,
          "velocity": 0.3779527559055118
        },
        {
          "duration": 0.8298607791666655,
          "durationTicks": 478,
          "midi": 56,
          "name": "G#3",
          "ticks": 53760,
          "time": 93.333296,
          "velocity": 0.3779527559055118
        },
        {
          "duration": 0.8298607791666797,
          "durationTicks": 478,
          "midi": 59,
          "name": "B3",
          "ticks": 56640,
          "time": 98.333294,
          "velocity": 0.3779527559055118
        },
        {
          "duration": 0.8298607791666655,
          "durationTicks": 478,
          "midi": 59,
          "name": "B3",
          "ticks": 57120,
          "time": 99.166627,
          "velocity": 0.3779527559055118
        },
        {
          "duration": 0.8298607791666655,
          "durationTicks": 478,
          "midi": 60,
          "name": "C4",
          "ticks": 57600,
          "time": 99.99996,
          "velocity": 0.3779527559055118
        },
        {
          "duration": 0.8298607791666655,
          "durationTicks": 478,
          "midi": 60,
          "name": "C4",
          "ticks": 58080,
          "time": 100.833293,
          "velocity": 0.3779527559055118
        },
        {
          "duration": 0.8298607791666797,
          "durationTicks": 478,
          "midi": 60,
          "name": "C4",
          "ticks": 58560,
          "time": 101.666626,
          "velocity": 0.3779527559055118
        },
        {
          "duration": 0.8298607791666655,
          "durationTicks": 478,
          "midi": 60,
          "name": "C4",
          "ticks": 59040,
          "time": 102.499959,
          "velocity": 0.3779527559055118
        },
        {
          "duration": 1.6631937791666616,
          "durationTicks": 958,
          "midi": 58,
          "name": "A#3",
          "ticks": 59520,
          "time": 103.333292,
          "velocity": 0.3779527559055118
        },
        {
          "duration": 1.6631937791666758,
          "durationTicks": 958,
          "midi": 57,
          "name": "A3",
          "ticks": 60480,
          "time": 104.99995799999999,
          "velocity": 0.3779527559055118
        },
        {
          "duration": 0.8298607791666655,
          "durationTicks": 478,
          "midi": 55,
          "name": "G3",
          "ticks": 61440,
          "time": 106.666624,
          "velocity": 0.3779527559055118
        },
        {
          "duration": 0.8298607791666655,
          "durationTicks": 478,
          "midi": 58,
          "name": "A#3",
          "ticks": 64320,
          "time": 111.666622,
          "velocity": 0.3779527559055118
        },
        {
          "duration": 0.8298607791666655,
          "durationTicks": 478,
          "midi": 58,
          "name": "A#3",
          "ticks": 64800,
          "time": 112.499955,
          "velocity": 0.3779527559055118
        },
        {
          "duration": 1.6631937791666758,
          "durationTicks": 958,
          "midi": 59,
          "name": "B3",
          "ticks": 65280,
          "time": 113.333288,
          "velocity": 0.3779527559055118
        },
        {
          "duration": 0.8298607791666655,
          "durationTicks": 478,
          "midi": 57,
          "name": "A3",
          "ticks": 66240,
          "time": 114.999954,
          "velocity": 0.3779527559055118
        },
        {
          "duration": 0.8298607791666655,
          "durationTicks": 478,
          "midi": 57,
          "name": "A3",
          "ticks": 68160,
          "time": 118.333286,
          "velocity": 0.3779527559055118
        },
        {
          "duration": 0.8298607791666655,
          "durationTicks": 478,
          "midi": 57,
          "name": "A3",
          "ticks": 68640,
          "time": 119.166619,
          "velocity": 0.3779527559055118
        },
        {
          "duration": 0.8298607791666797,
          "durationTicks": 478,
          "midi": 58,
          "name": "A#3",
          "ticks": 69120,
          "time": 119.999952,
          "velocity": 0.3779527559055118
        },
        {
          "duration": 0.8298607791666655,
          "durationTicks": 478,
          "midi": 58,
          "name": "A#3",
          "ticks": 69600,
          "time": 120.833285,
          "velocity": 0.3779527559055118
        },
        {
          "duration": 0.8298607791666655,
          "durationTicks": 478,
          "midi": 56,
          "name": "G#3",
          "ticks": 70080,
          "time": 121.666618,
          "velocity": 0.3779527559055118
        },
        {
          "duration": 0.8298607791666797,
          "durationTicks": 478,
          "midi": 56,
          "name": "G#3",
          "ticks": 70560,
          "time": 122.499951,
          "velocity": 0.3779527559055118
        },
        {
          "duration": 3.329859779166682,
          "durationTicks": 1918,
          "midi": 55,
          "name": "G3",
          "ticks": 71040,
          "time": 123.33328399999999,
          "velocity": 0.3779527559055118
        },
        {
          "duration": 0.8298607791666655,
          "durationTicks": 478,
          "midi": 53,
          "name": "F3",
          "ticks": 72960,
          "time": 126.666616,
          "velocity": 0.3779527559055118
        }
      ]
    },
    {
      "channel": 0,
      "controlChanges": {},
      "pitchBends": [],
      "instrument": {
        "family": "piano",
        "number": 0,
        "name": "acoustic grand piano"
      },
      "name": "Bass ",
      "notes": [],
      "endOfTrackTicks": 74880
    },
    {
      "channel": 13,
      "controlChanges": {
        "7": [
          {
            "number": 7,
            "ticks": 0,
            "time": 0,
            "value": 0.8188976377952756
          }
        ],
        "10": [
          {
            "number": 10,
            "ticks": 0,
            "time": 0,
            "value": 0.5669291338582677
          }
        ],
        "11": [
          {
            "number": 11,
            "ticks": 0,
            "time": 0,
            "value": 1
          }
        ]
      },
      "pitchBends": [],
      "instrument": {
        "family": "brass",
        "number": 60,
        "name": "french horn"
      },
      "name": "",
      "notes": [
        {
          "duration": 0.6215275291666668,
          "durationTicks": 358,
          "midi": 57,
          "name": "A3",
          "ticks": 480,
          "time": 0.833333,
          "velocity": 0.5984251968503937
        },
        {
          "duration": 0.2048610291666666,
          "durationTicks": 118,
          "midi": 52,
          "name": "E3",
          "ticks": 840,
          "time": 1.45833275,
          "velocity": 0.5984251968503937
        },
        {
          "duration": 0.8298607791666666,
          "durationTicks": 478,
          "midi": 60,
          "name": "C4",
          "ticks": 960,
          "time": 1.666666,
          "velocity": 0.5984251968503937
        },
        {
          "duration": 0.8298607791666668,
          "durationTicks": 478,
          "midi": 57,
          "name": "A3",
          "ticks": 1440,
          "time": 2.499999,
          "velocity": 0.5984251968503937
        },
        {
          "duration": 0.6215275291666664,
          "durationTicks": 358,
          "midi": 59,
          "name": "B3",
          "ticks": 2400,
          "time": 4.166665,
          "velocity": 0.5984251968503937
        },
        {
          "duration": 0.2048610291666666,
          "durationTicks": 118,
          "midi": 52,
          "name": "E3",
          "ticks": 2760,
          "time": 4.79166475,
          "velocity": 0.5984251968503937
        },
        {
          "duration": 0.8298607791666672,
          "durationTicks": 478,
          "midi": 62,
          "name": "D4",
          "ticks": 2880,
          "time": 4.999998,
          "velocity": 0.5984251968503937
        },
        {
          "duration": 0.8298607791666663,
          "durationTicks": 478,
          "midi": 56,
          "name": "G#3",
          "ticks": 3360,
          "time": 5.833331,
          "velocity": 0.5984251968503937
        },
        {
          "duration": 0.6215275291666673,
          "durationTicks": 358,
          "midi": 64,
          "name": "E4",
          "ticks": 4320,
          "time": 7.499997,
          "velocity": 0.5984251968503937
        },
        {
          "duration": 0.2048610291666666,
          "durationTicks": 118,
          "midi": 62,
          "name": "D4",
          "ticks": 4680,
          "time": 8.12499675,
          "velocity": 0.5984251968503937
        },
        {
          "duration": 0.6215275291666664,
          "durationTicks": 358,
          "midi": 60,
          "name": "C4",
          "ticks": 4800,
          "time": 8.33333,
          "velocity": 0.5984251968503937
        },
        {
          "duration": 0.2048610291666666,
          "durationTicks": 118,
          "midi": 59,
          "name": "B3",
          "ticks": 5160,
          "time": 8.95832975,
          "velocity": 0.5984251968503937
        },
        {
          "duration": 0.6215275291666664,
          "durationTicks": 358,
          "midi": 57,
          "name": "A3",
          "ticks": 5280,
          "time": 9.166663,
          "velocity": 0.5984251968503937
        },
        {
          "duration": 0.2048610291666666,
          "durationTicks": 118,
          "midi": 55,
          "name": "G3",
          "ticks": 5640,
          "time": 9.79166275,
          "velocity": 0.5984251968503937
        },
        {
          "duration": 0.8298607791666672,
          "durationTicks": 478,
          "midi": 53,
          "name": "F3",
          "ticks": 5760,
          "time": 9.999996,
          "velocity": 0.5984251968503937
        },
        {
          "duration": 0.8298607791666672,
          "durationTicks": 478,
          "midi": 50,
          "name": "D3",
          "ticks": 6240,
          "time": 10.833328999999999,
          "velocity": 0.5984251968503937
        },
        {
          "duration": 0.6215275291666664,
          "durationTicks": 358,
          "midi": 62,
          "name": "D4",
          "ticks": 7200,
          "time": 12.499995,
          "velocity": 0.5984251968503937
        },
        {
          "duration": 0.20486102916666837,
          "durationTicks": 118,
          "midi": 62,
          "name": "D4",
          "ticks": 7560,
          "time": 13.124994749999999,
          "velocity": 0.5984251968503937
        },
        {
          "duration": 0.6215275291666664,
          "durationTicks": 358,
          "midi": 62,
          "name": "D4",
          "ticks": 7680,
          "time": 13.333328,
          "velocity": 0.5984251968503937
        },
        {
          "duration": 0.15277771666666595,
          "durationTicks": 88,
          "midi": 52,
          "name": "E3",
          "ticks": 8040,
          "time": 13.95832775,
          "velocity": 0.5984251968503937
        },
        {
          "duration": 0.6215275291666664,
          "durationTicks": 358,
          "midi": 56,
          "name": "G#3",
          "ticks": 8160,
          "time": 14.166661,
          "velocity": 0.5984251968503937
        },
        {
          "duration": 0.2048610291666666,
          "durationTicks": 118,
          "midi": 52,
          "name": "E3",
          "ticks": 8520,
          "time": 14.79166075,
          "velocity": 0.5984251968503937
        },
        {
          "duration": 0.6215275291666682,
          "durationTicks": 358,
          "midi": 60,
          "name": "C4",
          "ticks": 8640,
          "time": 14.999994,
          "velocity": 0.5984251968503937
        },
        {
          "duration": 0.2048610291666666,
          "durationTicks": 118,
          "midi": 57,
          "name": "A3",
          "ticks": 9000,
          "time": 15.62499375,
          "velocity": 0.5984251968503937
        },
        {
          "duration": 0.6215275291666664,
          "durationTicks": 358,
          "midi": 60,
          "name": "C4",
          "ticks": 9120,
          "time": 15.833327,
          "velocity": 0.5984251968503937
        },
        {
          "duration": 0.20486102916666482,
          "durationTicks": 118,
          "midi": 57,
          "name": "A3",
          "ticks": 9480,
          "time": 16.45832675,
          "velocity": 0.5984251968503937
        },
        {
          "duration": 0.8298607791666655,
          "durationTicks": 478,
          "midi": 56,
          "name": "G#3",
          "ticks": 9600,
          "time": 16.66666,
          "velocity": 0.5984251968503937
        },
        {
          "duration": 0.8298607791666655,
          "durationTicks": 478,
          "midi": 52,
          "name": "E3",
          "ticks": 10080,
          "time": 17.499993,
          "velocity": 0.5984251968503937
        },
        {
          "duration": 0.6215275291666629,
          "durationTicks": 358,
          "midi": 55,
          "name": "G3",
          "ticks": 18720,
          "time": 32.499987,
          "velocity": 0.5984251968503937
        },
        {
          "duration": 0.20486102916666482,
          "durationTicks": 118,
          "midi": 60,
          "name": "C4",
          "ticks": 19080,
          "time": 33.12498675,
          "velocity": 0.5984251968503937
        },
        {
          "duration": 0.8298607791666655,
          "durationTicks": 478,
          "midi": 59,
          "name": "B3",
          "ticks": 19200,
          "time": 33.33332,
          "velocity": 0.5984251968503937
        },
        {
          "duration": 0.8298607791666655,
          "durationTicks": 478,
          "midi": 55,
          "name": "G3",
          "ticks": 19680,
          "time": 34.166653,
          "velocity": 0.5984251968503937
        },
        {
          "duration": 0.6215275291666629,
          "durationTicks": 358,
          "midi": 57,
          "name": "A3",
          "ticks": 20640,
          "time": 35.833319,
          "velocity": 0.5984251968503937
        },
        {
          "duration": 0.20486102916666482,
          "durationTicks": 118,
          "midi": 62,
          "name": "D4",
          "ticks": 21000,
          "time": 36.45831875,
          "velocity": 0.5984251968503937
        },
        {
          "duration": 0.8298607791666655,
          "durationTicks": 478,
          "midi": 61,
          "name": "C#4",
          "ticks": 21120,
          "time": 36.666652,
          "velocity": 0.5984251968503937
        },
        {
          "duration": 0.8298607791666583,
          "durationTicks": 478,
          "midi": 57,
          "name": "A3",
          "ticks": 21600,
          "time": 37.499985,
          "velocity": 0.5984251968503937
        },
        {
          "duration": 0.6215275291666629,
          "durationTicks": 358,
          "midi": 59,
          "name": "B3",
          "ticks": 22560,
          "time": 39.166651,
          "velocity": 0.5984251968503937
        },
        {
          "duration": 0.20486102916665772,
          "durationTicks": 118,
          "midi": 64,
          "name": "E4",
          "ticks": 22920,
          "time": 39.79165075,
          "velocity": 0.5984251968503937
        },
        {
          "duration": 0.6215275291666629,
          "durationTicks": 358,
          "midi": 64,
          "name": "E4",
          "ticks": 23040,
          "time": 39.999984,
          "velocity": 0.5984251968503937
        },
        {
          "duration": 0.20486102916666482,
          "durationTicks": 118,
          "midi": 57,
          "name": "A3",
          "ticks": 23400,
          "time": 40.62498375,
          "velocity": 0.5984251968503937
        },
        {
          "duration": 0.6215275291666629,
          "durationTicks": 358,
          "midi": 62,
          "name": "D4",
          "ticks": 23520,
          "time": 40.833317,
          "velocity": 0.5984251968503937
        },
        {
          "duration": 0.20486102916666482,
          "durationTicks": 118,
          "midi": 62,
          "name": "D4",
          "ticks": 23880,
          "time": 41.45831675,
          "velocity": 0.5984251968503937
        },
        {
          "duration": 0.6215275291666629,
          "durationTicks": 358,
          "midi": 62,
          "name": "D4",
          "ticks": 24000,
          "time": 41.66665,
          "velocity": 0.5984251968503937
        },
        {
          "duration": 0.1527777166666624,
          "durationTicks": 88,
          "midi": 55,
          "name": "G3",
          "ticks": 24360,
          "time": 42.29164975,
          "velocity": 0.5984251968503937
        },
        {
          "duration": 0.6215275291666629,
          "durationTicks": 358,
          "midi": 60,
          "name": "C4",
          "ticks": 24480,
          "time": 42.499983,
          "velocity": 0.5984251968503937
        },
        {
          "duration": 0.20486102916666482,
          "durationTicks": 118,
          "midi": 60,
          "name": "C4",
          "ticks": 24840,
          "time": 43.12498275,
          "velocity": 0.5984251968503937
        },
        {
          "duration": 0.62152752916667,
          "durationTicks": 358,
          "midi": 60,
          "name": "C4",
          "ticks": 24960,
          "time": 43.333315999999996,
          "velocity": 0.5984251968503937
        },
        {
          "duration": 0.20486102916666482,
          "durationTicks": 118,
          "midi": 54,
          "name": "F#3",
          "ticks": 25320,
          "time": 43.95831575,
          "velocity": 0.5984251968503937
        },
        {
          "duration": 0.6215275291666629,
          "durationTicks": 358,
          "midi": 59,
          "name": "B3",
          "ticks": 25440,
          "time": 44.166649,
          "velocity": 0.5984251968503937
        },
        {
          "duration": 0.20486102916666482,
          "durationTicks": 118,
          "midi": 59,
          "name": "B3",
          "ticks": 25800,
          "time": 44.79164875,
          "velocity": 0.5984251968503937
        },
        {
          "duration": 0.6215275291666629,
          "durationTicks": 358,
          "midi": 57,
          "name": "A3",
          "ticks": 25920,
          "time": 44.999982,
          "velocity": 0.5984251968503937
        },
        {
          "duration": 0.1527777166666695,
          "durationTicks": 88,
          "midi": 57,
          "name": "A3",
          "ticks": 26280,
          "time": 45.624981749999996,
          "velocity": 0.5984251968503937
        },
        {
          "duration": 0.6215275291666629,
          "durationTicks": 358,
          "midi": 61,
          "name": "C#4",
          "ticks": 26400,
          "time": 45.833315,
          "velocity": 0.5984251968503937
        },
        {
          "duration": 0.20486102916666482,
          "durationTicks": 118,
          "midi": 61,
          "name": "C#4",
          "ticks": 26760,
          "time": 46.45831475,
          "velocity": 0.5984251968503937
        },
        {
          "duration": 0.6215275291666629,
          "durationTicks": 358,
          "midi": 62,
          "name": "D4",
          "ticks": 26880,
          "time": 46.666648,
          "velocity": 0.5984251968503937
        },
        {
          "duration": 0.1527777166666624,
          "durationTicks": 88,
          "midi": 62,
          "name": "D4",
          "ticks": 27240,
          "time": 47.29164775,
          "velocity": 0.5984251968503937
        },
        {
          "duration": 0.6215275291666629,
          "durationTicks": 358,
          "midi": 57,
          "name": "A3",
          "ticks": 27360,
          "time": 47.499981,
          "velocity": 0.5984251968503937
        },
        {
          "duration": 0.20486102916666482,
          "durationTicks": 118,
          "midi": 59,
          "name": "B3",
          "ticks": 27720,
          "time": 48.12498075,
          "velocity": 0.5984251968503937
        },
        {
          "duration": 0.6215275291666629,
          "durationTicks": 358,
          "midi": 60,
          "name": "C4",
          "ticks": 27840,
          "time": 48.333314,
          "velocity": 0.5984251968503937
        },
        {
          "duration": 0.20486102916665772,
          "durationTicks": 118,
          "midi": 60,
          "name": "C4",
          "ticks": 28200,
          "time": 48.95831375,
          "velocity": 0.5984251968503937
        },
        {
          "duration": 0.6215275291666629,
          "durationTicks": 358,
          "midi": 59,
          "name": "B3",
          "ticks": 28320,
          "time": 49.166647,
          "velocity": 0.5984251968503937
        },
        {
          "duration": 0.20486102916666482,
          "durationTicks": 118,
          "midi": 57,
          "name": "A3",
          "ticks": 28680,
          "time": 49.79164675,
          "velocity": 0.5984251968503937
        },
        {
          "duration": 0.8298607791666655,
          "durationTicks": 478,
          "midi": 56,
          "name": "G#3",
          "ticks": 28800,
          "time": 49.99998,
          "velocity": 0.5984251968503937
        },
        {
          "duration": 0.8298607791666655,
          "durationTicks": 478,
          "midi": 52,
          "name": "E3",
          "ticks": 29280,
          "time": 50.833313,
          "velocity": 0.5984251968503937
        },
        {
          "duration": 2.496526779166672,
          "durationTicks": 1438,
          "midi": 51,
          "name": "D#3",
          "ticks": 48000,
          "time": 83.3333,
          "velocity": 0.3779527559055118
        },
        {
          "duration": 0.8298607791666655,
          "durationTicks": 478,
          "midi": 51,
          "name": "D#3",
          "ticks": 49440,
          "time": 85.833299,
          "velocity": 0.3779527559055118
        },
        {
          "duration": 0.8298607791666797,
          "durationTicks": 478,
          "midi": 51,
          "name": "D#3",
          "ticks": 49920,
          "time": 86.66663199999999,
          "velocity": 0.3779527559055118
        },
        {
          "duration": 0.8298607791666655,
          "durationTicks": 478,
          "midi": 51,
          "name": "D#3",
          "ticks": 50400,
          "time": 87.499965,
          "velocity": 0.3779527559055118
        },
        {
          "duration": 0.8298607791666655,
          "durationTicks": 478,
          "midi": 51,
          "name": "D#3",
          "ticks": 50880,
          "time": 88.333298,
          "velocity": 0.3779527559055118
        },
        {
          "duration": 0.8298607791666797,
          "durationTicks": 478,
          "midi": 51,
          "name": "D#3",
          "ticks": 51360,
          "time": 89.166631,
          "velocity": 0.3779527559055118
        },
        {
          "duration": 3.329859779166668,
          "durationTicks": 1918,
          "midi": 51,
          "name": "D#3",
          "ticks": 51840,
          "time": 89.999964,
          "velocity": 0.3779527559055118
        },
        {
          "duration": 0.8298607791666655,
          "durationTicks": 478,
          "midi": 44,
          "name": "G#2",
          "ticks": 53760,
          "time": 93.333296,
          "velocity": 0.3779527559055118
        },
        {
          "duration": 2.496526779166672,
          "durationTicks": 1438,
          "midi": 50,
          "name": "D3",
          "ticks": 55680,
          "time": 96.666628,
          "velocity": 0.3779527559055118
        },
        {
          "duration": 0.8298607791666655,
          "durationTicks": 478,
          "midi": 50,
          "name": "D3",
          "ticks": 57120,
          "time": 99.166627,
          "velocity": 0.3779527559055118
        },
        {
          "duration": 0.8298607791666655,
          "durationTicks": 478,
          "midi": 50,
          "name": "D3",
          "ticks": 57600,
          "time": 99.99996,
          "velocity": 0.3779527559055118
        },
        {
          "duration": 0.8298607791666655,
          "durationTicks": 478,
          "midi": 50,
          "name": "D3",
          "ticks": 58080,
          "time": 100.833293,
          "velocity": 0.3779527559055118
        },
        {
          "duration": 0.8298607791666797,
          "durationTicks": 478,
          "midi": 50,
          "name": "D3",
          "ticks": 58560,
          "time": 101.666626,
          "velocity": 0.3779527559055118
        },
        {
          "duration": 0.8298607791666655,
          "durationTicks": 478,
          "midi": 50,
          "name": "D3",
          "ticks": 59040,
          "time": 102.499959,
          "velocity": 0.3779527559055118
        },
        {
          "duration": 3.329859779166668,
          "durationTicks": 1918,
          "midi": 50,
          "name": "D3",
          "ticks": 59520,
          "time": 103.333292,
          "velocity": 0.3779527559055118
        },
        {
          "duration": 0.8298607791666655,
          "durationTicks": 478,
          "midi": 43,
          "name": "G2",
          "ticks": 61440,
          "time": 106.666624,
          "velocity": 0.3779527559055118
        },
        {
          "duration": 2.496526779166672,
          "durationTicks": 1438,
          "midi": 49,
          "name": "C#3",
          "ticks": 63360,
          "time": 109.999956,
          "velocity": 0.3779527559055118
        },
        {
          "duration": 0.8298607791666655,
          "durationTicks": 478,
          "midi": 49,
          "name": "C#3",
          "ticks": 64800,
          "time": 112.499955,
          "velocity": 0.3779527559055118
        },
        {
          "duration": 2.496526779166672,
          "durationTicks": 1438,
          "midi": 49,
          "name": "C#3",
          "ticks": 65280,
          "time": 113.333288,
          "velocity": 0.3779527559055118
        },
        {
          "duration": 0.777777466666663,
          "durationTicks": 448,
          "midi": 49,
          "name": "C#3",
          "ticks": 66720,
          "time": 115.833287,
          "velocity": 0.3779527559055118
        },
        {
          "duration": 2.496526779166672,
          "durationTicks": 1438,
          "midi": 48,
          "name": "C3",
          "ticks": 67200,
          "time": 116.66662,
          "velocity": 0.3779527559055118
        },
        {
          "duration": 0.8298607791666655,
          "durationTicks": 478,
          "midi": 48,
          "name": "C3",
          "ticks": 68640,
          "time": 119.166619,
          "velocity": 0.3779527559055118
        },
        {
          "duration": 1.6631937791666758,
          "durationTicks": 958,
          "midi": 48,
          "name": "C3",
          "ticks": 69120,
          "time": 119.999952,
          "velocity": 0.3779527559055118
        },
        {
          "duration": 1.6631937791666758,
          "durationTicks": 958,
          "midi": 48,
          "name": "C3",
          "ticks": 70080,
          "time": 121.666618,
          "velocity": 0.3779527559055118
        },
        {
          "duration": 3.329859779166682,
          "durationTicks": 1918,
          "midi": 48,
          "name": "C3",
          "ticks": 71040,
          "time": 123.33328399999999,
          "velocity": 0.3779527559055118
        },
        {
          "duration": 0.8298607791666655,
          "durationTicks": 478,
          "midi": 41,
          "name": "F2",
          "ticks": 72960,
          "time": 126.666616,
          "velocity": 0.3779527559055118
        }
      ]
    },
    {
      "channel": 0,
      "controlChanges": {},
      "pitchBends": [],
      "instrument": {
        "family": "piano",
        "number": 0,
        "name": "acoustic grand piano"
      },
      "name": "Timpani",
      "notes": [],
      "endOfTrackTicks": 28800
    },
    {
      "channel": 14,
      "controlChanges": {
        "7": [
          {
            "number": 7,
            "ticks": 0,
            "time": 0,
            "value": 1
          }
        ],
        "10": [
          {
            "number": 10,
            "ticks": 0,
            "time": 0,
            "value": 0.1968503937007874
          }
        ],
        "11": [
          {
            "number": 11,
            "ticks": 0,
            "time": 0,
            "value": 1
          }
        ]
      },
      "pitchBends": [],
      "instrument": {
        "family": "strings",
        "number": 47,
        "name": "timpani"
      },
      "name": "",
      "notes": [
        {
          "duration": 0.8298607791666667,
          "durationTicks": 478,
          "midi": 45,
          "name": "A2",
          "ticks": 0,
          "time": 0,
          "velocity": 0.5669291338582677
        },
        {
          "duration": 0.8298607791666666,
          "durationTicks": 478,
          "midi": 45,
          "name": "A2",
          "ticks": 960,
          "time": 1.666666,
          "velocity": 0.5669291338582677
        },
        {
          "duration": 0.8298607791666668,
          "durationTicks": 478,
          "midi": 50,
          "name": "D3",
          "ticks": 1920,
          "time": 3.333332,
          "velocity": 0.5669291338582677
        },
        {
          "duration": 0.8298607791666672,
          "durationTicks": 478,
          "midi": 50,
          "name": "D3",
          "ticks": 2880,
          "time": 4.999998,
          "velocity": 0.5669291338582677
        },
        {
          "duration": 0.8298607791666672,
          "durationTicks": 478,
          "midi": 45,
          "name": "A2",
          "ticks": 3840,
          "time": 6.666664,
          "velocity": 0.5669291338582677
        },
        {
          "duration": 0.8298607791666672,
          "durationTicks": 478,
          "midi": 45,
          "name": "A2",
          "ticks": 4800,
          "time": 8.33333,
          "velocity": 0.5669291338582677
        },
        {
          "duration": 0.8298607791666672,
          "durationTicks": 478,
          "midi": 50,
          "name": "D3",
          "ticks": 5760,
          "time": 9.999996,
          "velocity": 0.5669291338582677
        },
        {
          "duration": 0.8298607791666655,
          "durationTicks": 478,
          "midi": 50,
          "name": "D3",
          "ticks": 6720,
          "time": 11.666662,
          "velocity": 0.5669291338582677
        },
        {
          "duration": 0.8298607791666672,
          "durationTicks": 478,
          "midi": 45,
          "name": "A2",
          "ticks": 8640,
          "time": 14.999994,
          "velocity": 0.5669291338582677
        },
        {
          "duration": 0.8298607791666655,
          "durationTicks": 478,
          "midi": 50,
          "name": "D3",
          "ticks": 20160,
          "time": 34.999986,
          "velocity": 0.5669291338582677
        },
        {
          "duration": 0.8298607791666655,
          "durationTicks": 478,
          "midi": 45,
          "name": "A2",
          "ticks": 21120,
          "time": 36.666652,
          "velocity": 0.5669291338582677
        },
        {
          "duration": 0.8298607791666655,
          "durationTicks": 478,
          "midi": 45,
          "name": "A2",
          "ticks": 23040,
          "time": 39.999984,
          "velocity": 0.5669291338582677
        },
        {
          "duration": 0.8298607791666655,
          "durationTicks": 478,
          "midi": 50,
          "name": "D3",
          "ticks": 24960,
          "time": 43.333315999999996,
          "velocity": 0.5669291338582677
        },
        {
          "duration": 0.8298607791666583,
          "durationTicks": 478,
          "midi": 45,
          "name": "A2",
          "ticks": 25920,
          "time": 44.999982,
          "velocity": 0.5669291338582677
        },
        {
          "duration": 0.8298607791666583,
          "durationTicks": 478,
          "midi": 50,
          "name": "D3",
          "ticks": 26880,
          "time": 46.666648,
          "velocity": 0.5669291338582677
        },
        {
          "duration": 0.8298607791666583,
          "durationTicks": 478,
          "midi": 45,
          "name": "A2",
          "ticks": 27840,
          "time": 48.333314,
          "velocity": 0.5669291338582677
        }
      ]
    }
  ]
}