{
  "header": {
    "keySignatures": [],
    "meta": [],
    "name": "",
    "ppq": 384,
    "tempos": [
      {
        "bpm": 73.99907007835269,
        "ticks": 0
      }
    ],
    "timeSignatures": [
      {
        "ticks": 0,
        "timeSignature": [
          4,
          4
        ],
        "measures": 0
      },
      {
        "ticks": 1536,
        "timeSignature": [
          4,
          4
        ],
        "measures": 1
      }
    ]
  },
  "tracks": [
    {
      "channel": 0,
      "controlChanges": {
        "7": [
          {
            "number": 7,
            "ticks": 396,
            "time": 0.8361591562499999,
            "value": 0.7874015748031497
          }
        ],
        "10": [
          {
            "number": 10,
            "ticks": 396,
            "time": 0.8361591562499999,
            "value": 0.3464566929133858
          }
        ],
        "11": [
          {
            "number": 11,
            "ticks": 396,
            "time": 0.8361591562499999,
            "value": 1
          }
        ],
        "91": [
          {
            "number": 91,
            "ticks": 400,
            "time": 0.8446052083333333,
            "value": 0.7874015748031497
          }
        ],
        "93": [
          {
            "number": 93,
            "ticks": 400,
            "time": 0.8446052083333333,
            "value": 0.11811023622047244
          }
        ]
      },
      "pitchBends": [],
      "instrument": {
        "family": "piano",
        "number": 1,
        "name": "bright acoustic piano"
      },
      "name": "",
      "notes": [
        {
          "duration": 0.20059373697916616,
          "durationTicks": 95,
          "midi": 86,
          "name": "D6",
          "ticks": 2944,
          "time": 6.216294333333333,
          "velocity": 0.7086614173228346
        },
        {
          "duration": 0.06545690364583212,
          "durationTicks": 31,
          "midi": 86,
          "name": "D6",
          "ticks": 3040,
          "time": 6.418999583333333,
          "velocity": 0.8188976377952756
        },
        {
          "duration": 0.5384358203125004,
          "durationTicks": 255,
          "midi": 87,
          "name": "D#6",
          "ticks": 3072,
          "time": 6.486567999999999,
          "velocity": 0.937007874015748
        },
        {
          "duration": 1.6195304869791665,
          "durationTicks": 767,
          "midi": 78,
          "name": "F#5",
          "ticks": 3328,
          "time": 7.027115333333332,
          "velocity": 0.6850393700787402
        },
        {
          "duration": 0.13302532031250003,
          "durationTicks": 63,
          "midi": 91,
          "name": "G6",
          "ticks": 4480,
          "time": 9.459578333333331,
          "velocity": 0.7795275590551181
        },
        {
          "duration": 0.06545690364583301,
          "durationTicks": 31,
          "midi": 91,
          "name": "G6",
          "ticks": 4576,
          "time": 9.662283583333332,
          "velocity": 0.7716535433070866
        },
        {
          "duration": 0.5384358203125004,
          "durationTicks": 255,
          "midi": 92,
          "name": "G#6",
          "ticks": 4608,
          "time": 9.729852,
          "velocity": 0.889763779527559
        },
        {
          "duration": 1.6195304869791673,
          "durationTicks": 767,
          "midi": 83,
          "name": "B5",
          "ticks": 4864,
          "time": 10.270399333333332,
          "velocity": 0.6614173228346457
        },
        {
          "duration": 0.13302532031250003,
          "durationTicks": 63,
          "midi": 83,
          "name": "B5",
          "ticks": 5888,
          "time": 12.432588666666666,
          "velocity": 0.7165354330708661
        },
        {
          "duration": 0.13302532031250003,
          "durationTicks": 63,
          "midi": 85,
          "name": "C#6",
          "ticks": 5952,
          "time": 12.567725499999998,
          "velocity": 0.889763779527559
        },
        {
          "duration": 0.13302532031250003,
          "durationTicks": 63,
          "midi": 88,
          "name": "E6",
          "ticks": 6016,
          "time": 12.702862333333332,
          "velocity": 0.7165354330708661
        },
        {
          "duration": 0.13302532031250003,
          "durationTicks": 63,
          "midi": 92,
          "name": "G#6",
          "ticks": 6080,
          "time": 12.837999166666666,
          "velocity": 0.8661417322834646
        },
        {
          "duration": 0.13302532031250003,
          "durationTicks": 63,
          "midi": 95,
          "name": "B6",
          "ticks": 6144,
          "time": 12.973135999999998,
          "velocity": 0.7165354330708661
        },
        {
          "duration": 0.40329898697916633,
          "durationTicks": 191,
          "midi": 92,
          "name": "G#6",
          "ticks": 6400,
          "time": 13.513683333333333,
          "velocity": 0.6614173228346457
        },
        {
          "duration": 0.13302532031250003,
          "durationTicks": 63,
          "midi": 88,
          "name": "E6",
          "ticks": 6784,
          "time": 14.324504333333332,
          "velocity": 0.7716535433070866
        },
        {
          "duration": 0.06545690364583123,
          "durationTicks": 31,
          "midi": 93,
          "name": "A6",
          "ticks": 6880,
          "time": 14.527209583333333,
          "velocity": 0.8661417322834646
        },
        {
          "duration": 0.13302532031250003,
          "durationTicks": 63,
          "midi": 94,
          "name": "A#6",
          "ticks": 6912,
          "time": 14.594777999999998,
          "velocity": 0.937007874015748
        },
        {
          "duration": 0.13302532031250003,
          "durationTicks": 63,
          "midi": 90,
          "name": "F#6",
          "ticks": 7168,
          "time": 15.135325333333332,
          "velocity": 0.7480314960629921
        },
        {
          "duration": 0.13302532031250003,
          "durationTicks": 63,
          "midi": 87,
          "name": "D#6",
          "ticks": 7552,
          "time": 15.946146333333333,
          "velocity": 0.8188976377952756
        },
        {
          "duration": 0.06545690364583123,
          "durationTicks": 31,
          "midi": 90,
          "name": "F#6",
          "ticks": 7648,
          "time": 16.148851583333332,
          "velocity": 0.9133858267716536
        },
        {
          "duration": 0.13302532031249825,
          "durationTicks": 63,
          "midi": 92,
          "name": "G#6",
          "ticks": 7680,
          "time": 16.21642,
          "velocity": 0.937007874015748
        },
        {
          "duration": 0.1330253203125018,
          "durationTicks": 63,
          "midi": 88,
          "name": "E6",
          "ticks": 7936,
          "time": 16.756967333333332,
          "velocity": 0.6614173228346457
        },
        {
          "duration": 0.13302532031249825,
          "durationTicks": 63,
          "midi": 85,
          "name": "C#6",
          "ticks": 8320,
          "time": 17.567788333333333,
          "velocity": 0.7480314960629921
        },
        {
          "duration": 0.06545690364583123,
          "durationTicks": 31,
          "midi": 88,
          "name": "E6",
          "ticks": 8416,
          "time": 17.770493583333334,
          "velocity": 0.7480314960629921
        },
        {
          "duration": 0.1330253203125018,
          "durationTicks": 63,
          "midi": 90,
          "name": "F#6",
          "ticks": 8448,
          "time": 17.838061999999997,
          "velocity": 0.937007874015748
        },
        {
          "duration": 0.06545690364583479,
          "durationTicks": 31,
          "midi": 88,
          "name": "E6",
          "ticks": 8672,
          "time": 18.311040916666663,
          "velocity": 0.6850393700787402
        },
        {
          "duration": 0.26816215364582874,
          "durationTicks": 127,
          "midi": 90,
          "name": "F#6",
          "ticks": 8704,
          "time": 18.378609333333333,
          "velocity": 0.9133858267716536
        },
        {
          "duration": 0.5384358203125004,
          "durationTicks": 255,
          "midi": 88,
          "name": "E6",
          "ticks": 8960,
          "time": 18.919156666666662,
          "velocity": 0.7952755905511811
        },
        {
          "duration": 0.5384358203125004,
          "durationTicks": 255,
          "midi": 85,
          "name": "C#6",
          "ticks": 8960,
          "time": 18.919156666666662,
          "velocity": 0.7952755905511811
        },
        {
          "duration": 1.4843936536458315,
          "durationTicks": 703,
          "midi": 87,
          "name": "D#6",
          "ticks": 9216,
          "time": 19.459704,
          "velocity": 0.7086614173228346
        },
        {
          "duration": 1.4843936536458315,
          "durationTicks": 703,
          "midi": 83,
          "name": "B5",
          "ticks": 9216,
          "time": 19.459704,
          "velocity": 0.7086614173228346
        },
        {
          "duration": 0.5384358203125004,
          "durationTicks": 255,
          "midi": 87,
          "name": "D#6",
          "ticks": 9952,
          "time": 21.013777583333333,
          "velocity": 0.6377952755905512
        },
        {
          "duration": 0.5384358203125004,
          "durationTicks": 255,
          "midi": 90,
          "name": "F#6",
          "ticks": 9984,
          "time": 21.081345999999996,
          "velocity": 0.8503937007874016
        },
        {
          "duration": 1.0789831536458294,
          "durationTicks": 511,
          "midi": 78,
          "name": "F#5",
          "ticks": 10240,
          "time": 21.621893333333333,
          "velocity": 0.5905511811023622
        },
        {
          "duration": 0.8087094869791684,
          "durationTicks": 383,
          "midi": 85,
          "name": "C#6",
          "ticks": 10336,
          "time": 21.82459858333333,
          "velocity": 0.6614173228346457
        },
        {
          "duration": 0.8087094869791649,
          "durationTicks": 383,
          "midi": 88,
          "name": "E6",
          "ticks": 10368,
          "time": 21.892166999999997,
          "velocity": 0.9133858267716536
        },
        {
          "duration": 1.484393653645835,
          "durationTicks": 703,
          "midi": 87,
          "name": "D#6",
          "ticks": 10752,
          "time": 22.702987999999998,
          "velocity": 0.7322834645669292
        },
        {
          "duration": 1.484393653645835,
          "durationTicks": 703,
          "midi": 84,
          "name": "C6",
          "ticks": 10752,
          "time": 22.702987999999998,
          "velocity": 0.7322834645669292
        },
        {
          "duration": 0.8087094869791649,
          "durationTicks": 383,
          "midi": 92,
          "name": "G#6",
          "ticks": 11904,
          "time": 25.135450999999996,
          "velocity": 0.7795275590551181
        },
        {
          "duration": 0.8087094869791649,
          "durationTicks": 383,
          "midi": 88,
          "name": "E6",
          "ticks": 11904,
          "time": 25.135450999999996,
          "velocity": 0.7480314960629921
        },
        {
          "duration": 2.8357619869791684,
          "durationTicks": 1343,
          "midi": 80,
          "name": "G#5",
          "ticks": 13312,
          "time": 28.108461333333327,
          "velocity": 0.6692913385826772
        },
        {
          "duration": 2.43035148697917,
          "durationTicks": 1151,
          "midi": 85,
          "name": "C#6",
          "ticks": 13440,
          "time": 28.378734999999995,
          "velocity": 0.8031496062992126
        },
        {
          "duration": 1.6195304869791656,
          "durationTicks": 767,
          "midi": 88,
          "name": "E6",
          "ticks": 13792,
          "time": 29.12198758333333,
          "velocity": 0.7322834645669292
        },
        {
          "duration": 1.2141199869791706,
          "durationTicks": 575,
          "midi": 92,
          "name": "G#6",
          "ticks": 13824,
          "time": 29.189555999999996,
          "velocity": 0.8661417322834646
        },
        {
          "duration": 1.0789831536458365,
          "durationTicks": 511,
          "midi": 92,
          "name": "G#6",
          "ticks": 14464,
          "time": 30.54092433333333,
          "velocity": 0.7480314960629921
        },
        {
          "duration": 0.40329898697916633,
          "durationTicks": 191,
          "midi": 104,
          "name": "G#7",
          "ticks": 14592,
          "time": 30.811197999999997,
          "velocity": 0.7480314960629921
        },
        {
          "duration": 0.1330253203125018,
          "durationTicks": 63,
          "midi": 100,
          "name": "E7",
          "ticks": 14976,
          "time": 31.622018999999995,
          "velocity": 0.8031496062992126
        },
        {
          "duration": 0.2681621536458323,
          "durationTicks": 127,
          "midi": 99,
          "name": "D#7",
          "ticks": 15008,
          "time": 31.689587416666665,
          "velocity": 0.6850393700787402
        },
        {
          "duration": 0.6735726536458344,
          "durationTicks": 319,
          "midi": 97,
          "name": "C#7",
          "ticks": 15040,
          "time": 31.75715583333333,
          "velocity": 0.5196850393700787
        },
        {
          "duration": 3.511446153645842,
          "durationTicks": 1663,
          "midi": 85,
          "name": "C#6",
          "ticks": 16000,
          "time": 33.784208333333325,
          "velocity": 0.7795275590551181
        },
        {
          "duration": 0.2681621536458394,
          "durationTicks": 127,
          "midi": 93,
          "name": "A6",
          "ticks": 16096,
          "time": 33.986913583333326,
          "velocity": 0.7637795275590551
        },
        {
          "duration": 0.40329898697917343,
          "durationTicks": 191,
          "midi": 94,
          "name": "A#6",
          "ticks": 16128,
          "time": 34.05448199999999,
          "velocity": 0.8031496062992126
        },
        {
          "duration": 0.13302532031250536,
          "durationTicks": 63,
          "midi": 90,
          "name": "F#6",
          "ticks": 16128,
          "time": 34.05448199999999,
          "velocity": 0.7795275590551181
        },
        {
          "duration": 0.2681621536458323,
          "durationTicks": 127,
          "midi": 93,
          "name": "A6",
          "ticks": 16352,
          "time": 34.52746091666666,
          "velocity": 0.7244094488188977
        },
        {
          "duration": 0.13302532031249825,
          "durationTicks": 63,
          "midi": 90,
          "name": "F#6",
          "ticks": 16384,
          "time": 34.59502933333333,
          "velocity": 0.6062992125984252
        },
        {
          "duration": 0.40329898697916633,
          "durationTicks": 191,
          "midi": 94,
          "name": "A#6",
          "ticks": 16384,
          "time": 34.59502933333333,
          "velocity": 0.8188976377952756
        },
        {
          "duration": 0.13302532031249825,
          "durationTicks": 63,
          "midi": 93,
          "name": "A6",
          "ticks": 16608,
          "time": 35.06800825,
          "velocity": 0.6850393700787402
        },
        {
          "duration": 0.2681621536458323,
          "durationTicks": 127,
          "midi": 94,
          "name": "A#6",
          "ticks": 16640,
          "time": 35.135576666666665,
          "velocity": 0.7637795275590551
        },
        {
          "duration": 0.13302532031249825,
          "durationTicks": 63,
          "midi": 90,
          "name": "F#6",
          "ticks": 16640,
          "time": 35.135576666666665,
          "velocity": 0.5511811023622047
        },
        {
          "duration": 1.6195304869791656,
          "durationTicks": 767,
          "midi": 90,
          "name": "F#6",
          "ticks": 16864,
          "time": 35.60855558333333,
          "velocity": 0.7086614173228346
        },
        {
          "duration": 1.6195304869791727,
          "durationTicks": 767,
          "midi": 94,
          "name": "A#6",
          "ticks": 16896,
          "time": 35.676123999999994,
          "velocity": 0.7952755905511811
        },
        {
          "duration": 0.13302532031249825,
          "durationTicks": 63,
          "midi": 78,
          "name": "F#5",
          "ticks": 18560,
          "time": 39.189681666666665,
          "velocity": 0.8976377952755905
        },
        {
          "duration": 0.13302532031249825,
          "durationTicks": 63,
          "midi": 80,
          "name": "G#5",
          "ticks": 18688,
          "time": 39.459955333333326,
          "velocity": 1
        },
        {
          "duration": 0.13302532031249825,
          "durationTicks": 63,
          "midi": 83,
          "name": "B5",
          "ticks": 18816,
          "time": 39.730228999999994,
          "velocity": 0.937007874015748
        },
        {
          "duration": 0.13302532031249825,
          "durationTicks": 63,
          "midi": 85,
          "name": "C#6",
          "ticks": 18944,
          "time": 40.00050266666666,
          "velocity": 1
        },
        {
          "duration": 0.13302532031249825,
          "durationTicks": 63,
          "midi": 86,
          "name": "D6",
          "ticks": 19040,
          "time": 40.20320791666666,
          "velocity": 0.8031496062992126
        },
        {
          "duration": 0.5384358203125004,
          "durationTicks": 255,
          "midi": 87,
          "name": "D#6",
          "ticks": 19072,
          "time": 40.27077633333332,
          "velocity": 0.8976377952755905
        },
        {
          "duration": 0.13302532031249825,
          "durationTicks": 63,
          "midi": 90,
          "name": "F#6",
          "ticks": 19328,
          "time": 40.81132366666667,
          "velocity": 0.7480314960629921
        },
        {
          "duration": 0.13302532031249825,
          "durationTicks": 63,
          "midi": 90,
          "name": "F#6",
          "ticks": 20224,
          "time": 42.70323933333333,
          "velocity": 1
        },
        {
          "duration": 0.13302532031250536,
          "durationTicks": 63,
          "midi": 85,
          "name": "C#6",
          "ticks": 20320,
          "time": 42.90594458333332,
          "velocity": 0.7716535433070866
        },
        {
          "duration": 0.13302532031249825,
          "durationTicks": 63,
          "midi": 86,
          "name": "D6",
          "ticks": 20352,
          "time": 42.973513,
          "velocity": 0.937007874015748
        },
        {
          "duration": 0.40329898697917343,
          "durationTicks": 191,
          "midi": 87,
          "name": "D#6",
          "ticks": 20416,
          "time": 43.108649833333324,
          "velocity": 0.7637795275590551
        },
        {
          "duration": 0.13302532031249825,
          "durationTicks": 63,
          "midi": 90,
          "name": "F#6",
          "ticks": 20608,
          "time": 43.514060333333326,
          "velocity": 0.937007874015748
        },
        {
          "duration": 0.13302532031249825,
          "durationTicks": 63,
          "midi": 85,
          "name": "C#6",
          "ticks": 20704,
          "time": 43.71676558333333,
          "velocity": 0.6377952755905512
        },
        {
          "duration": 0.13302532031249825,
          "durationTicks": 63,
          "midi": 86,
          "name": "D6",
          "ticks": 20736,
          "time": 43.784333999999994,
          "velocity": 0.8503937007874016
        },
        {
          "duration": 0.40329898697916633,
          "durationTicks": 191,
          "midi": 87,
          "name": "D#6",
          "ticks": 20800,
          "time": 43.91947083333333,
          "velocity": 0.6850393700787402
        },
        {
          "duration": 0.13302532031250536,
          "durationTicks": 63,
          "midi": 85,
          "name": "C#6",
          "ticks": 20992,
          "time": 44.32488133333332,
          "velocity": 0.8976377952755905
        },
        {
          "duration": 0.2681621536458252,
          "durationTicks": 127,
          "midi": 66,
          "name": "F#4",
          "ticks": 21248,
          "time": 44.865428666666666,
          "velocity": 0.84251968503937
        },
        {
          "duration": 0.2681621536458323,
          "durationTicks": 127,
          "midi": 68,
          "name": "G#4",
          "ticks": 21376,
          "time": 45.13570233333333,
          "velocity": 0.9606299212598425
        }
      ],
      "endOfTrackTicks": 21504
    },
    {
      "channel": 1,
      "controlChanges": {
        "7": [
          {
            "number": 7,
            "ticks": 416,
            "time": 0.8783894166666665,
            "value": 0.9448818897637795
          }
        ],
        "10": [
          {
            "number": 10,
            "ticks": 416,
            "time": 0.8783894166666665,
            "value": 0.5039370078740157
          }
        ],
        "11": [
          {
            "number": 11,
            "ticks": 416,
            "time": 0.8783894166666665,
            "value": 1
          }
        ],
        "91": [
          {
            "number": 91,
            "ticks": 420,
            "time": 0.8868354687499999,
            "value": 0
          }
        ],
        "93": [
          {
            "number": 93,
            "ticks": 420,
            "time": 0.8868354687499999,
            "value": 0
          }
        ]
      },
      "pitchBends": [],
      "instrument": {
        "family": "bass",
        "number": 32,
        "name": "acoustic bass"
      },
      "name": "",
      "notes": [
        {
          "duration": 1.4843936536458324,
          "durationTicks": 703,
          "midi": 35,
          "name": "B1",
          "ticks": 3072,
          "time": 6.486567999999999,
          "velocity": 0.8188976377952756
        },
        {
          "duration": 0.2681621536458323,
          "durationTicks": 127,
          "midi": 35,
          "name": "B1",
          "ticks": 3840,
          "time": 8.10821,
          "velocity": 0.7086614173228346
        },
        {
          "duration": 0.2681621536458323,
          "durationTicks": 127,
          "midi": 35,
          "name": "B1",
          "ticks": 3968,
          "time": 8.378483666666666,
          "velocity": 0.8661417322834646
        },
        {
          "duration": 0.26816215364583407,
          "durationTicks": 127,
          "midi": 36,
          "name": "C2",
          "ticks": 4096,
          "time": 8.648757333333332,
          "velocity": 0.7716535433070866
        },
        {
          "duration": 0.2681621536458323,
          "durationTicks": 127,
          "midi": 37,
          "name": "C#2",
          "ticks": 4224,
          "time": 8.919030999999999,
          "velocity": 0.889763779527559
        },
        {
          "duration": 0.2681621536458323,
          "durationTicks": 127,
          "midi": 38,
          "name": "D2",
          "ticks": 4352,
          "time": 9.189304666666667,
          "velocity": 0.7086614173228346
        },
        {
          "duration": 0.26816215364583407,
          "durationTicks": 127,
          "midi": 39,
          "name": "D#2",
          "ticks": 4480,
          "time": 9.459578333333331,
          "velocity": 0.889763779527559
        },
        {
          "duration": 1.6195304869791673,
          "durationTicks": 767,
          "midi": 40,
          "name": "E2",
          "ticks": 4608,
          "time": 9.729852,
          "velocity": 0.7716535433070866
        },
        {
          "duration": 0.8087094869791667,
          "durationTicks": 383,
          "midi": 35,
          "name": "B1",
          "ticks": 5376,
          "time": 11.351493999999999,
          "velocity": 0.7637795275590551
        },
        {
          "duration": 0.26816215364583407,
          "durationTicks": 127,
          "midi": 47,
          "name": "B2",
          "ticks": 5760,
          "time": 12.162314999999998,
          "velocity": 0.84251968503937
        },
        {
          "duration": 0.2681621536458323,
          "durationTicks": 127,
          "midi": 44,
          "name": "G#2",
          "ticks": 5888,
          "time": 12.432588666666666,
          "velocity": 0.6299212598425197
        },
        {
          "duration": 0.26816215364583407,
          "durationTicks": 127,
          "midi": 42,
          "name": "F#2",
          "ticks": 6016,
          "time": 12.702862333333332,
          "velocity": 0.7952755905511811
        },
        {
          "duration": 1.0789831536458347,
          "durationTicks": 511,
          "midi": 40,
          "name": "E2",
          "ticks": 6144,
          "time": 12.973135999999998,
          "velocity": 0.8031496062992126
        },
        {
          "duration": 0.26816215364583407,
          "durationTicks": 127,
          "midi": 47,
          "name": "B2",
          "ticks": 6656,
          "time": 14.054230666666664,
          "velocity": 0.7716535433070866
        },
        {
          "duration": 0.2681621536458323,
          "durationTicks": 127,
          "midi": 40,
          "name": "E2",
          "ticks": 6784,
          "time": 14.324504333333332,
          "velocity": 0.6141732283464567
        },
        {
          "duration": 0.8087094869791667,
          "durationTicks": 383,
          "midi": 39,
          "name": "D#2",
          "ticks": 6912,
          "time": 14.594777999999998,
          "velocity": 0.84251968503937
        },
        {
          "duration": 0.26816215364583407,
          "durationTicks": 127,
          "midi": 46,
          "name": "A#2",
          "ticks": 7296,
          "time": 15.405598999999999,
          "velocity": 0.84251968503937
        },
        {
          "duration": 0.26816215364583407,
          "durationTicks": 127,
          "midi": 42,
          "name": "F#2",
          "ticks": 7424,
          "time": 15.675872666666663,
          "velocity": 0.5905511811023622
        },
        {
          "duration": 0.2681621536458305,
          "durationTicks": 127,
          "midi": 39,
          "name": "D#2",
          "ticks": 7552,
          "time": 15.946146333333333,
          "velocity": 0.7322834645669292
        },
        {
          "duration": 1.3492568203124975,
          "durationTicks": 639,
          "midi": 37,
          "name": "C#2",
          "ticks": 7680,
          "time": 16.21642,
          "velocity": 0.8503937007874016
        },
        {
          "duration": 0.2681621536458323,
          "durationTicks": 127,
          "midi": 44,
          "name": "G#2",
          "ticks": 8320,
          "time": 17.567788333333333,
          "velocity": 0.7322834645669292
        },
        {
          "duration": 0.8087094869791649,
          "durationTicks": 383,
          "midi": 42,
          "name": "F#2",
          "ticks": 8448,
          "time": 17.838061999999997,
          "velocity": 0.84251968503937
        },
        {
          "duration": 0.8087094869791649,
          "durationTicks": 383,
          "midi": 30,
          "name": "F#1",
          "ticks": 8832,
          "time": 18.648882999999998,
          "velocity": 0.8031496062992126
        },
        {
          "duration": 1.6195304869791656,
          "durationTicks": 767,
          "midi": 35,
          "name": "B1",
          "ticks": 9216,
          "time": 19.459704,
          "velocity": 0.8661417322834646
        },
        {
          "duration": 1.6195304869791656,
          "durationTicks": 767,
          "midi": 42,
          "name": "F#2",
          "ticks": 9984,
          "time": 21.081345999999996,
          "velocity": 0.84251968503937
        },
        {
          "duration": 1.5519620703124986,
          "durationTicks": 735,
          "midi": 44,
          "name": "G#2",
          "ticks": 10752,
          "time": 22.702987999999998,
          "velocity": 0.84251968503937
        },
        {
          "duration": 1.551962070312502,
          "durationTicks": 735,
          "midi": 44,
          "name": "G#2",
          "ticks": 11520,
          "time": 24.324629999999996,
          "velocity": 0.889763779527559
        },
        {
          "duration": 1.6195304869791691,
          "durationTicks": 767,
          "midi": 37,
          "name": "C#2",
          "ticks": 12288,
          "time": 25.946271999999997,
          "velocity": 0.8661417322834646
        },
        {
          "duration": 1.6195304869791656,
          "durationTicks": 767,
          "midi": 44,
          "name": "G#2",
          "ticks": 13056,
          "time": 27.567914,
          "velocity": 0.8188976377952756
        },
        {
          "duration": 1.4843936536458315,
          "durationTicks": 703,
          "midi": 37,
          "name": "C#2",
          "ticks": 13824,
          "time": 29.189555999999996,
          "velocity": 0.84251968503937
        },
        {
          "duration": 1.3492568203124975,
          "durationTicks": 639,
          "midi": 37,
          "name": "C#2",
          "ticks": 14592,
          "time": 30.811197999999997,
          "velocity": 0.9133858267716536
        },
        {
          "duration": 0.2681621536458323,
          "durationTicks": 127,
          "midi": 44,
          "name": "G#2",
          "ticks": 15232,
          "time": 32.16256633333333,
          "velocity": 0.8188976377952756
        },
        {
          "duration": 1.5519620703124986,
          "durationTicks": 735,
          "midi": 42,
          "name": "F#2",
          "ticks": 15360,
          "time": 32.43284,
          "velocity": 0.8976377952755905
        },
        {
          "duration": 1.5519620703125057,
          "durationTicks": 735,
          "midi": 37,
          "name": "C#2",
          "ticks": 16128,
          "time": 34.05448199999999,
          "velocity": 0.937007874015748
        },
        {
          "duration": 0.7411410703125014,
          "durationTicks": 351,
          "midi": 42,
          "name": "F#2",
          "ticks": 16896,
          "time": 35.676123999999994,
          "velocity": 0.937007874015748
        },
        {
          "duration": 0.5384358203125004,
          "durationTicks": 255,
          "midi": 37,
          "name": "C#2",
          "ticks": 17280,
          "time": 36.486945,
          "velocity": 0.889763779527559
        },
        {
          "duration": 0.2681621536458394,
          "durationTicks": 127,
          "midi": 42,
          "name": "F#2",
          "ticks": 17536,
          "time": 37.02749233333333,
          "velocity": 0.7716535433070866
        },
        {
          "duration": 0.8087094869791684,
          "durationTicks": 383,
          "midi": 38,
          "name": "D2",
          "ticks": 17664,
          "time": 37.297765999999996,
          "velocity": 0.84251968503937
        },
        {
          "duration": 0.5384358203125004,
          "durationTicks": 255,
          "midi": 41,
          "name": "F2",
          "ticks": 18048,
          "time": 38.10858699999999,
          "velocity": 0.8661417322834646
        },
        {
          "duration": 0.2681621536458323,
          "durationTicks": 127,
          "midi": 44,
          "name": "G#2",
          "ticks": 18304,
          "time": 38.64913433333333,
          "velocity": 0.7795275590551181
        },
        {
          "duration": 1.2816884036458305,
          "durationTicks": 607,
          "midi": 47,
          "name": "B2",
          "ticks": 18432,
          "time": 38.919408,
          "velocity": 0.84251968503937
        },
        {
          "duration": 0.2681621536458394,
          "durationTicks": 127,
          "midi": 35,
          "name": "B1",
          "ticks": 19072,
          "time": 40.27077633333332,
          "velocity": 0.7716535433070866
        },
        {
          "duration": 1.2141199869791635,
          "durationTicks": 575,
          "midi": 36,
          "name": "C2",
          "ticks": 19200,
          "time": 40.54105,
          "velocity": 0.8661417322834646
        },
        {
          "duration": 0.2681621536458394,
          "durationTicks": 127,
          "midi": 36,
          "name": "C2",
          "ticks": 19840,
          "time": 41.892418333333325,
          "velocity": 0.7952755905511811
        },
        {
          "duration": 1.3492568203125046,
          "durationTicks": 639,
          "midi": 37,
          "name": "C#2",
          "ticks": 19968,
          "time": 42.16269199999999,
          "velocity": 0.84251968503937
        },
        {
          "duration": 0.2681621536458394,
          "durationTicks": 127,
          "midi": 44,
          "name": "G#2",
          "ticks": 20608,
          "time": 43.514060333333326,
          "velocity": 0.7716535433070866
        },
        {
          "duration": 0.8087094869791684,
          "durationTicks": 383,
          "midi": 42,
          "name": "F#2",
          "ticks": 20736,
          "time": 43.784333999999994,
          "velocity": 0.8188976377952756
        },
        {
          "duration": 0.2681621536458323,
          "durationTicks": 127,
          "midi": 30,
          "name": "F#1",
          "ticks": 21120,
          "time": 44.59515499999999,
          "velocity": 0.8503937007874016
        },
        {
          "duration": 0.2681621536458252,
          "durationTicks": 127,
          "midi": 32,
          "name": "G#1",
          "ticks": 21248,
          "time": 44.865428666666666,
          "velocity": 0.6850393700787402
        },
        {
          "duration": 0.2681621536458323,
          "durationTicks": 127,
          "midi": 34,
          "name": "A#1",
          "ticks": 21376,
          "time": 45.13570233333333,
          "velocity": 0.6850393700787402
        }
      ]
    },
    {
      "channel": 2,
      "controlChanges": {
        "1": [
          {
            "number": 1,
            "ticks": 3456,
            "time": 7.297388999999999,
            "value": 0.15748031496062992
          },
          {
            "number": 1,
            "ticks": 3584,
            "time": 7.567662666666666,
            "value": 0.5433070866141733
          },
          {
            "number": 1,
            "ticks": 3904,
            "time": 8.243346833333332,
            "value": 0
          },
          {
            "number": 1,
            "ticks": 4896,
            "time": 10.337967749999999,
            "value": 0.2047244094488189
          },
          {
            "number": 1,
            "ticks": 5120,
            "time": 10.810946666666666,
            "value": 0.5669291338582677
          },
          {
            "number": 1,
            "ticks": 5312,
            "time": 11.216357166666667,
            "value": 0.5433070866141733
          },
          {
            "number": 1,
            "ticks": 5344,
            "time": 11.283925583333332,
            "value": 0
          }
        ],
        "7": [
          {
            "number": 7,
            "ticks": 436,
            "time": 0.9206196770833333,
            "value": 0.5905511811023622
          }
        ],
        "10": [
          {
            "number": 10,
            "ticks": 436,
            "time": 0.9206196770833333,
            "value": 0.7401574803149606
          }
        ],
        "11": [
          {
            "number": 11,
            "ticks": 436,
            "time": 0.9206196770833333,
            "value": 1
          }
        ],
        "91": [
          {
            "number": 91,
            "ticks": 440,
            "time": 0.9290657291666665,
            "value": 0.3937007874015748
          }
        ],
        "93": [
          {
            "number": 93,
            "ticks": 440,
            "time": 0.9290657291666665,
            "value": 0.11811023622047244
          }
        ]
      },
      "pitchBends": [],
      "instrument": {
        "family": "guitar",
        "number": 27,
        "name": "electric guitar (clean)"
      },
      "name": "",
      "notes": [
        {
          "duration": 2.024940986979166,
          "durationTicks": 959,
          "midi": 63,
          "name": "D#4",
          "ticks": 3008,
          "time": 6.351431166666666,
          "velocity": 0.6220472440944882
        },
        {
          "duration": 1.957372570312499,
          "durationTicks": 927,
          "midi": 66,
          "name": "F#4",
          "ticks": 3040,
          "time": 6.418999583333333,
          "velocity": 0.7637795275590551
        },
        {
          "duration": 1.8898041536458328,
          "durationTicks": 895,
          "midi": 71,
          "name": "B4",
          "ticks": 3072,
          "time": 6.486567999999999,
          "velocity": 0.9133858267716536
        },
        {
          "duration": 0.2681621536458323,
          "durationTicks": 127,
          "midi": 63,
          "name": "D#4",
          "ticks": 3968,
          "time": 8.378483666666666,
          "velocity": 1
        },
        {
          "duration": 0.2681621536458323,
          "durationTicks": 127,
          "midi": 66,
          "name": "F#4",
          "ticks": 3968,
          "time": 8.378483666666666,
          "velocity": 1
        },
        {
          "duration": 0.26816215364583407,
          "durationTicks": 127,
          "midi": 64,
          "name": "E4",
          "ticks": 4096,
          "time": 8.648757333333332,
          "velocity": 0.6614173228346457
        },
        {
          "duration": 0.26816215364583407,
          "durationTicks": 127,
          "midi": 67,
          "name": "G4",
          "ticks": 4096,
          "time": 8.648757333333332,
          "velocity": 0.6614173228346457
        },
        {
          "duration": 0.2681621536458323,
          "durationTicks": 127,
          "midi": 68,
          "name": "G#4",
          "ticks": 4224,
          "time": 8.919030999999999,
          "velocity": 1
        },
        {
          "duration": 0.2681621536458323,
          "durationTicks": 127,
          "midi": 65,
          "name": "F4",
          "ticks": 4224,
          "time": 8.919030999999999,
          "velocity": 0.9291338582677166
        },
        {
          "duration": 0.2681621536458323,
          "durationTicks": 127,
          "midi": 69,
          "name": "A4",
          "ticks": 4352,
          "time": 9.189304666666667,
          "velocity": 0.7086614173228346
        },
        {
          "duration": 0.2681621536458323,
          "durationTicks": 127,
          "midi": 66,
          "name": "F#4",
          "ticks": 4352,
          "time": 9.189304666666667,
          "velocity": 0.7086614173228346
        },
        {
          "duration": 0.26816215364583407,
          "durationTicks": 127,
          "midi": 70,
          "name": "A#4",
          "ticks": 4480,
          "time": 9.459578333333331,
          "velocity": 0.9763779527559056
        },
        {
          "duration": 0.26816215364583407,
          "durationTicks": 127,
          "midi": 67,
          "name": "G4",
          "ticks": 4480,
          "time": 9.459578333333331,
          "velocity": 0.9291338582677166
        },
        {
          "duration": 1.6195304869791673,
          "durationTicks": 767,
          "midi": 71,
          "name": "B4",
          "ticks": 4608,
          "time": 9.729852,
          "velocity": 0.7952755905511811
        },
        {
          "duration": 1.6195304869791673,
          "durationTicks": 767,
          "midi": 64,
          "name": "E4",
          "ticks": 4608,
          "time": 9.729852,
          "velocity": 0.7952755905511811
        },
        {
          "duration": 1.6195304869791673,
          "durationTicks": 767,
          "midi": 68,
          "name": "G#4",
          "ticks": 4608,
          "time": 9.729852,
          "velocity": 0.7952755905511811
        },
        {
          "duration": 0.13302532031250003,
          "durationTicks": 63,
          "midi": 71,
          "name": "B4",
          "ticks": 5760,
          "time": 12.162314999999998,
          "velocity": 1
        },
        {
          "duration": 0.13302532031250003,
          "durationTicks": 63,
          "midi": 62,
          "name": "D4",
          "ticks": 5760,
          "time": 12.162314999999998,
          "velocity": 1
        },
        {
          "duration": 0.13302532031250003,
          "durationTicks": 63,
          "midi": 68,
          "name": "G#4",
          "ticks": 5760,
          "time": 12.162314999999998,
          "velocity": 1
        },
        {
          "duration": 0.149917424479165,
          "durationTicks": 71,
          "midi": 68,
          "name": "G#4",
          "ticks": 6528,
          "time": 13.783957,
          "velocity": 1
        },
        {
          "duration": 0.13302532031250003,
          "durationTicks": 63,
          "midi": 64,
          "name": "E4",
          "ticks": 6528,
          "time": 13.783957,
          "velocity": 1
        },
        {
          "duration": 0.13302532031250003,
          "durationTicks": 63,
          "midi": 59,
          "name": "B3",
          "ticks": 6528,
          "time": 13.783957,
          "velocity": 0.9291338582677166
        },
        {
          "duration": 0.13302532031250003,
          "durationTicks": 63,
          "midi": 61,
          "name": "C#4",
          "ticks": 7296,
          "time": 15.405598999999999,
          "velocity": 1
        },
        {
          "duration": 0.149917424479165,
          "durationTicks": 71,
          "midi": 70,
          "name": "A#4",
          "ticks": 7296,
          "time": 15.405598999999999,
          "velocity": 1
        },
        {
          "duration": 0.13302532031250003,
          "durationTicks": 63,
          "midi": 66,
          "name": "F#4",
          "ticks": 7296,
          "time": 15.405598999999999,
          "velocity": 1
        },
        {
          "duration": 0.1330253203125018,
          "durationTicks": 63,
          "midi": 64,
          "name": "E4",
          "ticks": 8064,
          "time": 17.027240999999997,
          "velocity": 1
        },
        {
          "duration": 0.1330253203125018,
          "durationTicks": 63,
          "midi": 59,
          "name": "B3",
          "ticks": 8064,
          "time": 17.027240999999997,
          "velocity": 1
        },
        {
          "duration": 0.14991742447916678,
          "durationTicks": 71,
          "midi": 68,
          "name": "G#4",
          "ticks": 8064,
          "time": 17.027240999999997,
          "velocity": 1
        },
        {
          "duration": 0.13302532031249825,
          "durationTicks": 63,
          "midi": 58,
          "name": "A#3",
          "ticks": 8832,
          "time": 18.648882999999998,
          "velocity": 1
        },
        {
          "duration": 0.14991742447916678,
          "durationTicks": 71,
          "midi": 61,
          "name": "C#4",
          "ticks": 8832,
          "time": 18.648882999999998,
          "velocity": 1
        },
        {
          "duration": 0.14991742447916678,
          "durationTicks": 71,
          "midi": 66,
          "name": "F#4",
          "ticks": 8832,
          "time": 18.648882999999998,
          "velocity": 1
        },
        {
          "duration": 0.13302532031249825,
          "durationTicks": 63,
          "midi": 66,
          "name": "F#4",
          "ticks": 9600,
          "time": 20.270525,
          "velocity": 1
        },
        {
          "duration": 0.13302532031249825,
          "durationTicks": 63,
          "midi": 71,
          "name": "B4",
          "ticks": 9600,
          "time": 20.270525,
          "velocity": 1
        },
        {
          "duration": 0.13302532031249825,
          "durationTicks": 63,
          "midi": 63,
          "name": "D#4",
          "ticks": 9600,
          "time": 20.270525,
          "velocity": 1
        },
        {
          "duration": 0.1330253203125018,
          "durationTicks": 63,
          "midi": 66,
          "name": "F#4",
          "ticks": 10368,
          "time": 21.892166999999997,
          "velocity": 0.9921259842519685
        },
        {
          "duration": 0.1330253203125018,
          "durationTicks": 63,
          "midi": 63,
          "name": "D#4",
          "ticks": 10368,
          "time": 21.892166999999997,
          "velocity": 0.9921259842519685
        },
        {
          "duration": 0.1330253203125018,
          "durationTicks": 63,
          "midi": 71,
          "name": "B4",
          "ticks": 10368,
          "time": 21.892166999999997,
          "velocity": 0.937007874015748
        },
        {
          "duration": 0.13302532031249825,
          "durationTicks": 63,
          "midi": 63,
          "name": "D#4",
          "ticks": 11136,
          "time": 23.513809,
          "velocity": 0.8503937007874016
        },
        {
          "duration": 0.13302532031249825,
          "durationTicks": 63,
          "midi": 60,
          "name": "C4",
          "ticks": 11136,
          "time": 23.513809,
          "velocity": 1
        },
        {
          "duration": 0.13302532031249825,
          "durationTicks": 63,
          "midi": 68,
          "name": "G#4",
          "ticks": 11136,
          "time": 23.513809,
          "velocity": 0.8976377952755905
        },
        {
          "duration": 0.1330253203125018,
          "durationTicks": 63,
          "midi": 60,
          "name": "C4",
          "ticks": 11904,
          "time": 25.135450999999996,
          "velocity": 1
        },
        {
          "duration": 0.1330253203125018,
          "durationTicks": 63,
          "midi": 63,
          "name": "D#4",
          "ticks": 11904,
          "time": 25.135450999999996,
          "velocity": 0.9921259842519685
        },
        {
          "duration": 0.1330253203125018,
          "durationTicks": 63,
          "midi": 68,
          "name": "G#4",
          "ticks": 11904,
          "time": 25.135450999999996,
          "velocity": 0.937007874015748
        },
        {
          "duration": 0.13302532031249825,
          "durationTicks": 63,
          "midi": 68,
          "name": "G#4",
          "ticks": 12672,
          "time": 26.757092999999998,
          "velocity": 0.8188976377952756
        },
        {
          "duration": 0.13302532031249825,
          "durationTicks": 63,
          "midi": 64,
          "name": "E4",
          "ticks": 12672,
          "time": 26.757092999999998,
          "velocity": 0.8976377952755905
        },
        {
          "duration": 0.13302532031249825,
          "durationTicks": 63,
          "midi": 61,
          "name": "C#4",
          "ticks": 12672,
          "time": 26.757092999999998,
          "velocity": 0.9921259842519685
        },
        {
          "duration": 0.1330253203125018,
          "durationTicks": 63,
          "midi": 68,
          "name": "G#4",
          "ticks": 13440,
          "time": 28.378734999999995,
          "velocity": 0.8976377952755905
        },
        {
          "duration": 0.1330253203125018,
          "durationTicks": 63,
          "midi": 64,
          "name": "E4",
          "ticks": 13440,
          "time": 28.378734999999995,
          "velocity": 0.937007874015748
        },
        {
          "duration": 0.1330253203125018,
          "durationTicks": 63,
          "midi": 61,
          "name": "C#4",
          "ticks": 13440,
          "time": 28.378734999999995,
          "velocity": 0.9921259842519685
        },
        {
          "duration": 0.13302532031249825,
          "durationTicks": 63,
          "midi": 68,
          "name": "G#4",
          "ticks": 14208,
          "time": 30.000376999999997,
          "velocity": 0.8503937007874016
        },
        {
          "duration": 0.13302532031249825,
          "durationTicks": 63,
          "midi": 61,
          "name": "C#4",
          "ticks": 14208,
          "time": 30.000376999999997,
          "velocity": 1
        },
        {
          "duration": 0.13302532031249825,
          "durationTicks": 63,
          "midi": 64,
          "name": "E4",
          "ticks": 14208,
          "time": 30.000376999999997,
          "velocity": 0.937007874015748
        },
        {
          "duration": 0.1330253203125018,
          "durationTicks": 63,
          "midi": 64,
          "name": "E4",
          "ticks": 14976,
          "time": 31.622018999999995,
          "velocity": 0.937007874015748
        },
        {
          "duration": 0.1330253203125018,
          "durationTicks": 63,
          "midi": 61,
          "name": "C#4",
          "ticks": 14976,
          "time": 31.622018999999995,
          "velocity": 0.937007874015748
        },
        {
          "duration": 0.1330253203125018,
          "durationTicks": 63,
          "midi": 68,
          "name": "G#4",
          "ticks": 14976,
          "time": 31.622018999999995,
          "velocity": 0.8503937007874016
        },
        {
          "duration": 0.13302532031249825,
          "durationTicks": 63,
          "midi": 58,
          "name": "A#3",
          "ticks": 15744,
          "time": 33.243660999999996,
          "velocity": 1
        },
        {
          "duration": 0.13302532031249825,
          "durationTicks": 63,
          "midi": 66,
          "name": "F#4",
          "ticks": 15744,
          "time": 33.243660999999996,
          "velocity": 0.8503937007874016
        },
        {
          "duration": 0.13302532031249825,
          "durationTicks": 63,
          "midi": 61,
          "name": "C#4",
          "ticks": 15744,
          "time": 33.243660999999996,
          "velocity": 0.937007874015748
        },
        {
          "duration": 0.13302532031249825,
          "durationTicks": 63,
          "midi": 61,
          "name": "C#4",
          "ticks": 16512,
          "time": 34.865303,
          "velocity": 1
        },
        {
          "duration": 0.13302532031249825,
          "durationTicks": 63,
          "midi": 58,
          "name": "A#3",
          "ticks": 16512,
          "time": 34.865303,
          "velocity": 0.9921259842519685
        },
        {
          "duration": 0.13302532031249825,
          "durationTicks": 63,
          "midi": 66,
          "name": "F#4",
          "ticks": 16512,
          "time": 34.865303,
          "velocity": 0.937007874015748
        },
        {
          "duration": 0.13302532031249825,
          "durationTicks": 63,
          "midi": 66,
          "name": "F#4",
          "ticks": 17280,
          "time": 36.486945,
          "velocity": 1
        },
        {
          "duration": 0.13302532031249825,
          "durationTicks": 63,
          "midi": 61,
          "name": "C#4",
          "ticks": 17280,
          "time": 36.486945,
          "velocity": 0.9921259842519685
        },
        {
          "duration": 0.13302532031249825,
          "durationTicks": 63,
          "midi": 58,
          "name": "A#3",
          "ticks": 17280,
          "time": 36.486945,
          "velocity": 1
        },
        {
          "duration": 0.13302532031250536,
          "durationTicks": 63,
          "midi": 62,
          "name": "D4",
          "ticks": 18048,
          "time": 38.10858699999999,
          "velocity": 0.9921259842519685
        },
        {
          "duration": 0.13302532031250536,
          "durationTicks": 63,
          "midi": 59,
          "name": "B3",
          "ticks": 18048,
          "time": 38.10858699999999,
          "velocity": 0.8188976377952756
        },
        {
          "duration": 0.13302532031250536,
          "durationTicks": 63,
          "midi": 68,
          "name": "G#4",
          "ticks": 18048,
          "time": 38.10858699999999,
          "velocity": 0.937007874015748
        },
        {
          "duration": 0.13302532031249825,
          "durationTicks": 63,
          "midi": 66,
          "name": "F#4",
          "ticks": 18816,
          "time": 39.730228999999994,
          "velocity": 0.9921259842519685
        },
        {
          "duration": 0.13302532031249825,
          "durationTicks": 63,
          "midi": 59,
          "name": "B3",
          "ticks": 18816,
          "time": 39.730228999999994,
          "velocity": 0.937007874015748
        },
        {
          "duration": 0.13302532031249825,
          "durationTicks": 63,
          "midi": 63,
          "name": "D#4",
          "ticks": 18816,
          "time": 39.730228999999994,
          "velocity": 0.937007874015748
        },
        {
          "duration": 0.13302532031249825,
          "durationTicks": 63,
          "midi": 66,
          "name": "F#4",
          "ticks": 19584,
          "time": 41.351870999999996,
          "velocity": 0.937007874015748
        },
        {
          "duration": 0.13302532031249825,
          "durationTicks": 63,
          "midi": 59,
          "name": "B3",
          "ticks": 19584,
          "time": 41.351870999999996,
          "velocity": 0.8503937007874016
        },
        {
          "duration": 0.13302532031249825,
          "durationTicks": 63,
          "midi": 63,
          "name": "D#4",
          "ticks": 19584,
          "time": 41.351870999999996,
          "velocity": 0.8188976377952756
        },
        {
          "duration": 0.13302532031249825,
          "durationTicks": 63,
          "midi": 61,
          "name": "C#4",
          "ticks": 20352,
          "time": 42.973513,
          "velocity": 0.937007874015748
        },
        {
          "duration": 0.13302532031249825,
          "durationTicks": 63,
          "midi": 68,
          "name": "G#4",
          "ticks": 20352,
          "time": 42.973513,
          "velocity": 0.8976377952755905
        },
        {
          "duration": 0.13302532031249825,
          "durationTicks": 63,
          "midi": 64,
          "name": "E4",
          "ticks": 20352,
          "time": 42.973513,
          "velocity": 0.937007874015748
        },
        {
          "duration": 0.13302532031250536,
          "durationTicks": 63,
          "midi": 61,
          "name": "C#4",
          "ticks": 21120,
          "time": 44.59515499999999,
          "velocity": 1
        },
        {
          "duration": 0.13302532031250536,
          "durationTicks": 63,
          "midi": 66,
          "name": "F#4",
          "ticks": 21120,
          "time": 44.59515499999999,
          "velocity": 0.937007874015748
        },
        {
          "duration": 0.13302532031250536,
          "durationTicks": 63,
          "midi": 58,
          "name": "A#3",
          "ticks": 21120,
          "time": 44.59515499999999,
          "velocity": 0.8976377952755905
        }
      ]
    },
    {
      "channel": 3,
      "controlChanges": {
        "7": [
          {
            "number": 7,
            "ticks": 456,
            "time": 0.9628499374999999,
            "value": 0.7874015748031497
          }
        ],
        "10": [
          {
            "number": 10,
            "ticks": 456,
            "time": 0.9628499374999999,
            "value": 0.5039370078740157
          }
        ],
        "11": [
          {
            "number": 11,
            "ticks": 456,
            "time": 0.9628499374999999,
            "value": 1
          }
        ],
        "91": [
          {
            "number": 91,
            "ticks": 460,
            "time": 0.9712959895833333,
            "value": 0.5905511811023622
          }
        ],
        "93": [
          {
            "number": 93,
            "ticks": 460,
            "time": 0.9712959895833333,
            "value": 0
          }
        ]
      },
      "pitchBends": [],
      "instrument": {
        "family": "reed",
        "number": 65,
        "name": "alto sax"
      },
      "name": "",
      "notes": [
        {
          "duration": 0.5384358203124968,
          "durationTicks": 255,
          "midi": 75,
          "name": "D#5",
          "ticks": 9600,
          "time": 20.270525,
          "velocity": 0.8661417322834646
        },
        {
          "duration": 1.6195304869791656,
          "durationTicks": 767,
          "midi": 66,
          "name": "F#4",
          "ticks": 9856,
          "time": 20.811072333333332,
          "velocity": 0.7322834645669292
        },
        {
          "duration": 0.26816215364582874,
          "durationTicks": 127,
          "midi": 68,
          "name": "G#4",
          "ticks": 10624,
          "time": 22.432714333333333,
          "velocity": 0.9921259842519685
        },
        {
          "duration": 0.5384358203125004,
          "durationTicks": 255,
          "midi": 68,
          "name": "G#4",
          "ticks": 10752,
          "time": 22.702987999999998,
          "velocity": 0.8976377952755905
        },
        {
          "duration": 0.5384358203125004,
          "durationTicks": 255,
          "midi": 72,
          "name": "C5",
          "ticks": 11008,
          "time": 23.24353533333333,
          "velocity": 0.7795275590551181
        },
        {
          "duration": 0.5384358203125004,
          "durationTicks": 255,
          "midi": 75,
          "name": "D#5",
          "ticks": 11264,
          "time": 23.784082666666663,
          "velocity": 0.9921259842519685
        },
        {
          "duration": 0.5384358203125004,
          "durationTicks": 255,
          "midi": 80,
          "name": "G#5",
          "ticks": 11520,
          "time": 24.324629999999996,
          "velocity": 1
        },
        {
          "duration": 0.6735726536458309,
          "durationTicks": 319,
          "midi": 78,
          "name": "F#5",
          "ticks": 11776,
          "time": 24.86517733333333,
          "velocity": 0.8503937007874016
        },
        {
          "duration": 0.4032989869791628,
          "durationTicks": 191,
          "midi": 80,
          "name": "G#5",
          "ticks": 12096,
          "time": 25.5408615,
          "velocity": 0.8976377952755905
        },
        {
          "duration": 0.5384358203125004,
          "durationTicks": 255,
          "midi": 76,
          "name": "E5",
          "ticks": 12288,
          "time": 25.946271999999997,
          "velocity": 1
        },
        {
          "duration": 3.511446153645835,
          "durationTicks": 1663,
          "midi": 80,
          "name": "G#5",
          "ticks": 12544,
          "time": 26.48681933333333,
          "velocity": 0.8503937007874016
        },
        {
          "duration": 0.8087094869791684,
          "durationTicks": 383,
          "midi": 80,
          "name": "G#5",
          "ticks": 14976,
          "time": 31.622018999999995,
          "velocity": 1
        },
        {
          "duration": 0.5384358203125004,
          "durationTicks": 255,
          "midi": 78,
          "name": "F#5",
          "ticks": 15360,
          "time": 32.43284,
          "velocity": 1
        },
        {
          "duration": 2.700625153645838,
          "durationTicks": 1279,
          "midi": 70,
          "name": "A#4",
          "ticks": 15616,
          "time": 32.97338733333333,
          "velocity": 0.8976377952755905
        },
        {
          "duration": 0.5384358203125004,
          "durationTicks": 255,
          "midi": 66,
          "name": "F#4",
          "ticks": 16896,
          "time": 35.676123999999994,
          "velocity": 1
        },
        {
          "duration": 0.5384358203124933,
          "durationTicks": 255,
          "midi": 70,
          "name": "A#4",
          "ticks": 17152,
          "time": 36.21667133333333,
          "velocity": 0.937007874015748
        },
        {
          "duration": 0.5384358203125004,
          "durationTicks": 255,
          "midi": 73,
          "name": "C#5",
          "ticks": 17408,
          "time": 36.75721866666667,
          "velocity": 0.937007874015748
        },
        {
          "duration": 0.5384358203125004,
          "durationTicks": 255,
          "midi": 83,
          "name": "B5",
          "ticks": 17664,
          "time": 37.297765999999996,
          "velocity": 0.8976377952755905
        },
        {
          "duration": 1.0789831536458365,
          "durationTicks": 511,
          "midi": 80,
          "name": "G#5",
          "ticks": 17920,
          "time": 37.838313333333325,
          "velocity": 0.937007874015748
        },
        {
          "duration": 0.40329898697917343,
          "durationTicks": 191,
          "midi": 80,
          "name": "G#5",
          "ticks": 18624,
          "time": 39.32481849999999,
          "velocity": 0.9921259842519685
        },
        {
          "duration": 2.43035148697917,
          "durationTicks": 1151,
          "midi": 78,
          "name": "F#5",
          "ticks": 18816,
          "time": 39.730228999999994,
          "velocity": 0.8503937007874016
        }
      ]
    },
    {
      "channel": 4,
      "controlChanges": {
        "1": [
          {
            "number": 1,
            "ticks": 3736,
            "time": 7.888612645833332,
            "value": 0.06299212598425197
          },
          {
            "number": 1,
            "ticks": 4032,
            "time": 8.513620499999998,
            "value": 0.18110236220472442
          },
          {
            "number": 1,
            "ticks": 4456,
            "time": 9.408902020833331,
            "value": 0.15748031496062992
          },
          {
            "number": 1,
            "ticks": 4464,
            "time": 9.425794125,
            "value": 0
          },
          {
            "number": 1,
            "ticks": 5384,
            "time": 11.368386104166666,
            "value": 0.08661417322834646
          },
          {
            "number": 1,
            "ticks": 5616,
            "time": 11.858257124999998,
            "value": 0.2677165354330709
          },
          {
            "number": 1,
            "ticks": 6056,
            "time": 12.787322854166666,
            "value": 0
          },
          {
            "number": 1,
            "ticks": 6536,
            "time": 13.800849104166664,
            "value": 0.18110236220472442
          },
          {
            "number": 1,
            "ticks": 6824,
            "time": 14.408964854166664,
            "value": 0
          },
          {
            "number": 1,
            "ticks": 7360,
            "time": 15.540735833333333,
            "value": 0.18110236220472442
          },
          {
            "number": 1,
            "ticks": 7592,
            "time": 16.030606854166663,
            "value": 0.15748031496062992
          },
          {
            "number": 1,
            "ticks": 7624,
            "time": 16.098175270833334,
            "value": 0
          },
          {
            "number": 1,
            "ticks": 8096,
            "time": 17.094809416666664,
            "value": 0.15748031496062992
          },
          {
            "number": 1,
            "ticks": 8384,
            "time": 17.702925166666663,
            "value": 0
          },
          {
            "number": 1,
            "ticks": 8888,
            "time": 18.767127729166663,
            "value": 0.18110236220472442
          },
          {
            "number": 1,
            "ticks": 9152,
            "time": 19.324567166666665,
            "value": 0.15748031496062992
          },
          {
            "number": 1,
            "ticks": 9160,
            "time": 19.341459270833333,
            "value": 0
          }
        ],
        "7": [
          {
            "number": 7,
            "ticks": 476,
            "time": 1.0050801979166666,
            "value": 0.7874015748031497
          }
        ],
        "10": [
          {
            "number": 10,
            "ticks": 476,
            "time": 1.0050801979166666,
            "value": 0.2677165354330709
          }
        ],
        "11": [
          {
            "number": 11,
            "ticks": 476,
            "time": 1.0050801979166666,
            "value": 0
          },
          {
            "number": 11,
            "ticks": 3092,
            "time": 6.528798260416666,
            "value": 0.08661417322834646
          },
          {
            "number": 11,
            "ticks": 3100,
            "time": 6.545690364583332,
            "value": 0.11023622047244094
          },
          {
            "number": 11,
            "ticks": 3104,
            "time": 6.554136416666666,
            "value": 0.11811023622047244
          },
          {
            "number": 11,
            "ticks": 3108,
            "time": 6.56258246875,
            "value": 0.13385826771653545
          },
          {
            "number": 11,
            "ticks": 3124,
            "time": 6.596366677083332,
            "value": 0.18110236220472442
          },
          {
            "number": 11,
            "ticks": 3132,
            "time": 6.613258781249999,
            "value": 0.2047244094488189
          },
          {
            "number": 11,
            "ticks": 3136,
            "time": 6.621704833333332,
            "value": 0.2125984251968504
          },
          {
            "number": 11,
            "ticks": 3140,
            "time": 6.630150885416667,
            "value": 0.2283464566929134
          },
          {
            "number": 11,
            "ticks": 3156,
            "time": 6.663935093749999,
            "value": 0.2440944881889764
          },
          {
            "number": 11,
            "ticks": 3168,
            "time": 6.689273249999999,
            "value": 0.2677165354330709
          },
          {
            "number": 11,
            "ticks": 3176,
            "time": 6.706165354166666,
            "value": 0.29133858267716534
          },
          {
            "number": 11,
            "ticks": 3188,
            "time": 6.731503510416666,
            "value": 0.31496062992125984
          },
          {
            "number": 11,
            "ticks": 3200,
            "time": 6.756841666666666,
            "value": 0.33858267716535434
          },
          {
            "number": 11,
            "ticks": 3208,
            "time": 6.773733770833332,
            "value": 0.36220472440944884
          },
          {
            "number": 11,
            "ticks": 3232,
            "time": 6.824410083333332,
            "value": 0.3700787401574803
          },
          {
            "number": 11,
            "ticks": 3236,
            "time": 6.832856135416666,
            "value": 0.3858267716535433
          },
          {
            "number": 11,
            "ticks": 3252,
            "time": 6.866640343749999,
            "value": 0.4094488188976378
          },
          {
            "number": 11,
            "ticks": 3264,
            "time": 6.8919785,
            "value": 0.4330708661417323
          },
          {
            "number": 11,
            "ticks": 3280,
            "time": 6.925762708333332,
            "value": 0.4566929133858268
          },
          {
            "number": 11,
            "ticks": 3296,
            "time": 6.959546916666667,
            "value": 0.5039370078740157
          },
          {
            "number": 11,
            "ticks": 3312,
            "time": 6.993331124999999,
            "value": 0.5196850393700787
          },
          {
            "number": 11,
            "ticks": 3328,
            "time": 7.027115333333332,
            "value": 0.5433070866141733
          },
          {
            "number": 11,
            "ticks": 3344,
            "time": 7.060899541666666,
            "value": 0.5669291338582677
          },
          {
            "number": 11,
            "ticks": 3352,
            "time": 7.077791645833332,
            "value": 0.5905511811023622
          },
          {
            "number": 11,
            "ticks": 3384,
            "time": 7.145360062499999,
            "value": 0.6377952755905512
          },
          {
            "number": 11,
            "ticks": 3420,
            "time": 7.2213745312499995,
            "value": 0.6614173228346457
          },
          {
            "number": 11,
            "ticks": 3436,
            "time": 7.255158739583332,
            "value": 0.6850393700787402
          },
          {
            "number": 11,
            "ticks": 3456,
            "time": 7.297388999999999,
            "value": 0.7007874015748031
          },
          {
            "number": 11,
            "ticks": 3464,
            "time": 7.314281104166667,
            "value": 0.7086614173228346
          },
          {
            "number": 11,
            "ticks": 3480,
            "time": 7.348065312499999,
            "value": 0.7322834645669292
          },
          {
            "number": 11,
            "ticks": 3488,
            "time": 7.364957416666666,
            "value": 0.7401574803149606
          },
          {
            "number": 11,
            "ticks": 3492,
            "time": 7.373403468749999,
            "value": 0.7480314960629921
          },
          {
            "number": 11,
            "ticks": 3520,
            "time": 7.432525833333332,
            "value": 0.7637795275590551
          },
          {
            "number": 11,
            "ticks": 3524,
            "time": 7.440971885416666,
            "value": 0.7716535433070866
          },
          {
            "number": 11,
            "ticks": 3540,
            "time": 7.474756093749999,
            "value": 0.7952755905511811
          },
          {
            "number": 11,
            "ticks": 3564,
            "time": 7.525432406249999,
            "value": 0.8188976377952756
          },
          {
            "number": 11,
            "ticks": 3596,
            "time": 7.593000822916666,
            "value": 0.84251968503937
          },
          {
            "number": 11,
            "ticks": 3628,
            "time": 7.660569239583332,
            "value": 0.8661417322834646
          },
          {
            "number": 11,
            "ticks": 3644,
            "time": 7.694353447916666,
            "value": 0.889763779527559
          },
          {
            "number": 11,
            "ticks": 3692,
            "time": 7.7957060729166665,
            "value": 0.9133858267716536
          },
          {
            "number": 11,
            "ticks": 3740,
            "time": 7.897058697916666,
            "value": 0.937007874015748
          },
          {
            "number": 11,
            "ticks": 3780,
            "time": 7.981519218749999,
            "value": 0.9606299212598425
          },
          {
            "number": 11,
            "ticks": 3864,
            "time": 8.158886312499998,
            "value": 0.984251968503937
          },
          {
            "number": 11,
            "ticks": 3908,
            "time": 8.251792885416666,
            "value": 1
          },
          {
            "number": 11,
            "ticks": 4576,
            "time": 9.662283583333332,
            "value": 0
          },
          {
            "number": 11,
            "ticks": 4624,
            "time": 9.763636208333331,
            "value": 0.015748031496062992
          },
          {
            "number": 11,
            "ticks": 4640,
            "time": 9.797420416666666,
            "value": 0.03937007874015748
          },
          {
            "number": 11,
            "ticks": 4648,
            "time": 9.814312520833331,
            "value": 0.06299212598425197
          },
          {
            "number": 11,
            "ticks": 4656,
            "time": 9.831204624999998,
            "value": 0.07086614173228346
          },
          {
            "number": 11,
            "ticks": 4664,
            "time": 9.848096729166667,
            "value": 0.08661417322834646
          },
          {
            "number": 11,
            "ticks": 4672,
            "time": 9.864988833333332,
            "value": 0.09448818897637795
          },
          {
            "number": 11,
            "ticks": 4680,
            "time": 9.881880937499998,
            "value": 0.11023622047244094
          },
          {
            "number": 11,
            "ticks": 4688,
            "time": 9.898773041666667,
            "value": 0.11811023622047244
          },
          {
            "number": 11,
            "ticks": 4696,
            "time": 9.915665145833332,
            "value": 0.13385826771653545
          },
          {
            "number": 11,
            "ticks": 4704,
            "time": 9.932557249999999,
            "value": 0.15748031496062992
          },
          {
            "number": 11,
            "ticks": 4712,
            "time": 9.949449354166665,
            "value": 0.16535433070866143
          },
          {
            "number": 11,
            "ticks": 4720,
            "time": 9.966341458333332,
            "value": 0.18110236220472442
          },
          {
            "number": 11,
            "ticks": 4728,
            "time": 9.983233562499999,
            "value": 0.1889763779527559
          },
          {
            "number": 11,
            "ticks": 4736,
            "time": 10.000125666666666,
            "value": 0.2047244094488189
          },
          {
            "number": 11,
            "ticks": 4760,
            "time": 10.050801979166666,
            "value": 0.2283464566929134
          },
          {
            "number": 11,
            "ticks": 4776,
            "time": 10.0845861875,
            "value": 0.2440944881889764
          },
          {
            "number": 11,
            "ticks": 4784,
            "time": 10.101478291666666,
            "value": 0.2677165354330709
          },
          {
            "number": 11,
            "ticks": 4816,
            "time": 10.169046708333331,
            "value": 0.29133858267716534
          },
          {
            "number": 11,
            "ticks": 4848,
            "time": 10.236615124999998,
            "value": 0.33858267716535434
          },
          {
            "number": 11,
            "ticks": 4872,
            "time": 10.287291437499999,
            "value": 0.36220472440944884
          },
          {
            "number": 11,
            "ticks": 4880,
            "time": 10.304183541666665,
            "value": 0.3858267716535433
          },
          {
            "number": 11,
            "ticks": 4888,
            "time": 10.321075645833332,
            "value": 0.4094488188976378
          },
          {
            "number": 11,
            "ticks": 4904,
            "time": 10.354859854166666,
            "value": 0.4330708661417323
          },
          {
            "number": 11,
            "ticks": 4912,
            "time": 10.371751958333332,
            "value": 0.4409448818897638
          },
          {
            "number": 11,
            "ticks": 4920,
            "time": 10.3886440625,
            "value": 0.4566929133858268
          },
          {
            "number": 11,
            "ticks": 4928,
            "time": 10.405536166666666,
            "value": 0.48031496062992124
          },
          {
            "number": 11,
            "ticks": 4944,
            "time": 10.439320375,
            "value": 0.5039370078740157
          },
          {
            "number": 11,
            "ticks": 4952,
            "time": 10.456212479166666,
            "value": 0.5196850393700787
          },
          {
            "number": 11,
            "ticks": 4968,
            "time": 10.489996687499998,
            "value": 0.5433070866141733
          },
          {
            "number": 11,
            "ticks": 4984,
            "time": 10.523780895833331,
            "value": 0.5669291338582677
          },
          {
            "number": 11,
            "ticks": 4992,
            "time": 10.540672999999998,
            "value": 0.5748031496062992
          },
          {
            "number": 11,
            "ticks": 5000,
            "time": 10.557565104166667,
            "value": 0.5905511811023622
          },
          {
            "number": 11,
            "ticks": 5016,
            "time": 10.591349312499998,
            "value": 0.6141732283464567
          },
          {
            "number": 11,
            "ticks": 5032,
            "time": 10.625133520833332,
            "value": 0.6377952755905512
          },
          {
            "number": 11,
            "ticks": 5048,
            "time": 10.658917729166665,
            "value": 0.6614173228346457
          },
          {
            "number": 11,
            "ticks": 5064,
            "time": 10.692701937499999,
            "value": 0.6850393700787402
          },
          {
            "number": 11,
            "ticks": 5088,
            "time": 10.74337825,
            "value": 0.6929133858267716
          },
          {
            "number": 11,
            "ticks": 5096,
            "time": 10.760270354166666,
            "value": 0.7086614173228346
          },
          {
            "number": 11,
            "ticks": 5112,
            "time": 10.7940545625,
            "value": 0.7165354330708661
          },
          {
            "number": 11,
            "ticks": 5120,
            "time": 10.810946666666666,
            "value": 0.7322834645669292
          },
          {
            "number": 11,
            "ticks": 5136,
            "time": 10.844730874999998,
            "value": 0.7480314960629921
          },
          {
            "number": 11,
            "ticks": 5168,
            "time": 10.912299291666665,
            "value": 0.7716535433070866
          },
          {
            "number": 11,
            "ticks": 5176,
            "time": 10.929191395833332,
            "value": 0.7952755905511811
          },
          {
            "number": 11,
            "ticks": 5208,
            "time": 10.996759812499999,
            "value": 0.8031496062992126
          },
          {
            "number": 11,
            "ticks": 5216,
            "time": 11.013651916666666,
            "value": 0.8188976377952756
          },
          {
            "number": 11,
            "ticks": 5224,
            "time": 11.030544020833332,
            "value": 0.8267716535433071
          },
          {
            "number": 11,
            "ticks": 5232,
            "time": 11.047436124999999,
            "value": 0.84251968503937
          },
          {
            "number": 11,
            "ticks": 5272,
            "time": 11.131896645833331,
            "value": 0.8661417322834646
          },
          {
            "number": 11,
            "ticks": 5288,
            "time": 11.165680854166666,
            "value": 0.889763779527559
          },
          {
            "number": 11,
            "ticks": 5328,
            "time": 11.250141374999998,
            "value": 0.9133858267716536
          },
          {
            "number": 11,
            "ticks": 5368,
            "time": 11.334601895833332,
            "value": 0.937007874015748
          },
          {
            "number": 11,
            "ticks": 5416,
            "time": 11.43595452083333,
            "value": 0.9606299212598425
          },
          {
            "number": 11,
            "ticks": 5456,
            "time": 11.520415041666666,
            "value": 0.984251968503937
          },
          {
            "number": 11,
            "ticks": 5504,
            "time": 11.621767666666665,
            "value": 1
          },
          {
            "number": 11,
            "ticks": 6112,
            "time": 12.905567583333331,
            "value": 0
          },
          {
            "number": 11,
            "ticks": 6160,
            "time": 13.006920208333332,
            "value": 0.06299212598425197
          },
          {
            "number": 11,
            "ticks": 6168,
            "time": 13.023812312499999,
            "value": 0.11023622047244094
          },
          {
            "number": 11,
            "ticks": 6184,
            "time": 13.057596520833332,
            "value": 0.13385826771653545
          },
          {
            "number": 11,
            "ticks": 6192,
            "time": 13.074488624999999,
            "value": 0.15748031496062992
          },
          {
            "number": 11,
            "ticks": 6200,
            "time": 13.091380729166664,
            "value": 0.18110236220472442
          },
          {
            "number": 11,
            "ticks": 6208,
            "time": 13.108272833333332,
            "value": 0.2047244094488189
          },
          {
            "number": 11,
            "ticks": 6216,
            "time": 13.1251649375,
            "value": 0.2283464566929134
          },
          {
            "number": 11,
            "ticks": 6232,
            "time": 13.158949145833333,
            "value": 0.2677165354330709
          },
          {
            "number": 11,
            "ticks": 6240,
            "time": 13.175841249999998,
            "value": 0.29133858267716534
          },
          {
            "number": 11,
            "ticks": 6248,
            "time": 13.192733354166664,
            "value": 0.31496062992125984
          },
          {
            "number": 11,
            "ticks": 6256,
            "time": 13.209625458333333,
            "value": 0.33858267716535434
          },
          {
            "number": 11,
            "ticks": 6264,
            "time": 13.226517562499998,
            "value": 0.36220472440944884
          },
          {
            "number": 11,
            "ticks": 6272,
            "time": 13.243409666666665,
            "value": 0.3858267716535433
          },
          {
            "number": 11,
            "ticks": 6280,
            "time": 13.260301770833333,
            "value": 0.4094488188976378
          },
          {
            "number": 11,
            "ticks": 6296,
            "time": 13.294085979166663,
            "value": 0.4330708661417323
          },
          {
            "number": 11,
            "ticks": 6312,
            "time": 13.327870187499999,
            "value": 0.4566929133858268
          },
          {
            "number": 11,
            "ticks": 6328,
            "time": 13.361654395833332,
            "value": 0.5039370078740157
          },
          {
            "number": 11,
            "ticks": 6344,
            "time": 13.395438604166664,
            "value": 0.5196850393700787
          },
          {
            "number": 11,
            "ticks": 6360,
            "time": 13.429222812499999,
            "value": 0.5669291338582677
          },
          {
            "number": 11,
            "ticks": 6376,
            "time": 13.463007020833333,
            "value": 0.5905511811023622
          },
          {
            "number": 11,
            "ticks": 6384,
            "time": 13.479899124999998,
            "value": 0.6141732283464567
          },
          {
            "number": 11,
            "ticks": 6400,
            "time": 13.513683333333333,
            "value": 0.6377952755905512
          },
          {
            "number": 11,
            "ticks": 6416,
            "time": 13.547467541666665,
            "value": 0.6850393700787402
          },
          {
            "number": 11,
            "ticks": 6432,
            "time": 13.581251749999998,
            "value": 0.7086614173228346
          },
          {
            "number": 11,
            "ticks": 6440,
            "time": 13.598143854166665,
            "value": 0.7322834645669292
          },
          {
            "number": 11,
            "ticks": 6456,
            "time": 13.631928062499998,
            "value": 0.7480314960629921
          },
          {
            "number": 11,
            "ticks": 6472,
            "time": 13.665712270833332,
            "value": 0.7716535433070866
          },
          {
            "number": 11,
            "ticks": 6480,
            "time": 13.682604374999999,
            "value": 0.7952755905511811
          },
          {
            "number": 11,
            "ticks": 6496,
            "time": 13.716388583333332,
            "value": 0.8188976377952756
          },
          {
            "number": 11,
            "ticks": 6512,
            "time": 13.750172791666664,
            "value": 0.84251968503937
          },
          {
            "number": 11,
            "ticks": 6528,
            "time": 13.783957,
            "value": 0.889763779527559
          },
          {
            "number": 11,
            "ticks": 6560,
            "time": 13.851525416666664,
            "value": 0.9133858267716536
          },
          {
            "number": 11,
            "ticks": 6568,
            "time": 13.868417520833333,
            "value": 0.937007874015748
          },
          {
            "number": 11,
            "ticks": 6584,
            "time": 13.902201729166665,
            "value": 0.9606299212598425
          },
          {
            "number": 11,
            "ticks": 6608,
            "time": 13.952878041666665,
            "value": 0.984251968503937
          },
          {
            "number": 11,
            "ticks": 6632,
            "time": 14.003554354166663,
            "value": 1
          },
          {
            "number": 11,
            "ticks": 6880,
            "time": 14.527209583333333,
            "value": 0
          },
          {
            "number": 11,
            "ticks": 6928,
            "time": 14.628562208333333,
            "value": 0.03937007874015748
          },
          {
            "number": 11,
            "ticks": 6944,
            "time": 14.662346416666663,
            "value": 0.08661417322834646
          },
          {
            "number": 11,
            "ticks": 6960,
            "time": 14.696130624999999,
            "value": 0.11023622047244094
          },
          {
            "number": 11,
            "ticks": 6968,
            "time": 14.713022729166664,
            "value": 0.13385826771653545
          },
          {
            "number": 11,
            "ticks": 6976,
            "time": 14.729914833333332,
            "value": 0.15748031496062992
          },
          {
            "number": 11,
            "ticks": 7000,
            "time": 14.780591145833332,
            "value": 0.18110236220472442
          },
          {
            "number": 11,
            "ticks": 7016,
            "time": 14.814375354166664,
            "value": 0.2283464566929134
          },
          {
            "number": 11,
            "ticks": 7032,
            "time": 14.848159562499998,
            "value": 0.2440944881889764
          },
          {
            "number": 11,
            "ticks": 7048,
            "time": 14.881943770833333,
            "value": 0.2677165354330709
          },
          {
            "number": 11,
            "ticks": 7064,
            "time": 14.915727979166665,
            "value": 0.29133858267716534
          },
          {
            "number": 11,
            "ticks": 7080,
            "time": 14.949512187499998,
            "value": 0.33858267716535434
          },
          {
            "number": 11,
            "ticks": 7096,
            "time": 14.983296395833332,
            "value": 0.36220472440944884
          },
          {
            "number": 11,
            "ticks": 7112,
            "time": 15.017080604166663,
            "value": 0.3858267716535433
          },
          {
            "number": 11,
            "ticks": 7120,
            "time": 15.033972708333332,
            "value": 0.4094488188976378
          },
          {
            "number": 11,
            "ticks": 7136,
            "time": 15.067756916666664,
            "value": 0.4330708661417323
          },
          {
            "number": 11,
            "ticks": 7152,
            "time": 15.101541124999999,
            "value": 0.4566929133858268
          },
          {
            "number": 11,
            "ticks": 7168,
            "time": 15.135325333333332,
            "value": 0.48031496062992124
          },
          {
            "number": 11,
            "ticks": 7176,
            "time": 15.152217437499997,
            "value": 0.5039370078740157
          },
          {
            "number": 11,
            "ticks": 7192,
            "time": 15.186001645833333,
            "value": 0.5196850393700787
          },
          {
            "number": 11,
            "ticks": 7208,
            "time": 15.219785854166664,
            "value": 0.5669291338582677
          },
          {
            "number": 11,
            "ticks": 7216,
            "time": 15.236677958333333,
            "value": 0.5905511811023622
          },
          {
            "number": 11,
            "ticks": 7232,
            "time": 15.270462166666665,
            "value": 0.6141732283464567
          },
          {
            "number": 11,
            "ticks": 7248,
            "time": 15.304246374999998,
            "value": 0.6377952755905512
          },
          {
            "number": 11,
            "ticks": 7264,
            "time": 15.338030583333332,
            "value": 0.6614173228346457
          },
          {
            "number": 11,
            "ticks": 7280,
            "time": 15.371814791666663,
            "value": 0.6850393700787402
          },
          {
            "number": 11,
            "ticks": 7296,
            "time": 15.405598999999999,
            "value": 0.7086614173228346
          },
          {
            "number": 11,
            "ticks": 7312,
            "time": 15.439383208333332,
            "value": 0.7322834645669292
          },
          {
            "number": 11,
            "ticks": 7328,
            "time": 15.473167416666664,
            "value": 0.7480314960629921
          },
          {
            "number": 11,
            "ticks": 7336,
            "time": 15.490059520833332,
            "value": 0.7716535433070866
          },
          {
            "number": 11,
            "ticks": 7352,
            "time": 15.523843729166664,
            "value": 0.7952755905511811
          },
          {
            "number": 11,
            "ticks": 7360,
            "time": 15.540735833333333,
            "value": 0.8188976377952756
          },
          {
            "number": 11,
            "ticks": 7376,
            "time": 15.574520041666664,
            "value": 0.84251968503937
          },
          {
            "number": 11,
            "ticks": 7384,
            "time": 15.591412145833333,
            "value": 0.8661417322834646
          },
          {
            "number": 11,
            "ticks": 7416,
            "time": 15.658980562499998,
            "value": 0.889763779527559
          },
          {
            "number": 11,
            "ticks": 7432,
            "time": 15.692764770833332,
            "value": 0.9133858267716536
          },
          {
            "number": 11,
            "ticks": 7448,
            "time": 15.726548979166663,
            "value": 0.937007874015748
          },
          {
            "number": 11,
            "ticks": 7456,
            "time": 15.743441083333332,
            "value": 0.9606299212598425
          },
          {
            "number": 11,
            "ticks": 7480,
            "time": 15.794117395833332,
            "value": 0.984251968503937
          },
          {
            "number": 11,
            "ticks": 7512,
            "time": 15.861685812499998,
            "value": 1
          },
          {
            "number": 11,
            "ticks": 7648,
            "time": 16.148851583333332,
            "value": 0
          },
          {
            "number": 11,
            "ticks": 7680,
            "time": 16.21642,
            "value": 0.015748031496062992
          },
          {
            "number": 11,
            "ticks": 7688,
            "time": 16.233312104166664,
            "value": 0.03937007874015748
          },
          {
            "number": 11,
            "ticks": 7696,
            "time": 16.250204208333333,
            "value": 0.06299212598425197
          },
          {
            "number": 11,
            "ticks": 7704,
            "time": 16.267096312499998,
            "value": 0.08661417322834646
          },
          {
            "number": 11,
            "ticks": 7720,
            "time": 16.30088052083333,
            "value": 0.13385826771653545
          },
          {
            "number": 11,
            "ticks": 7736,
            "time": 16.334664729166665,
            "value": 0.18110236220472442
          },
          {
            "number": 11,
            "ticks": 7752,
            "time": 16.3684489375,
            "value": 0.2283464566929134
          },
          {
            "number": 11,
            "ticks": 7768,
            "time": 16.402233145833332,
            "value": 0.2677165354330709
          },
          {
            "number": 11,
            "ticks": 7792,
            "time": 16.452909458333334,
            "value": 0.31496062992125984
          },
          {
            "number": 11,
            "ticks": 7808,
            "time": 16.486693666666664,
            "value": 0.36220472440944884
          },
          {
            "number": 11,
            "ticks": 7824,
            "time": 16.520477874999997,
            "value": 0.4094488188976378
          },
          {
            "number": 11,
            "ticks": 7848,
            "time": 16.5711541875,
            "value": 0.4566929133858268
          },
          {
            "number": 11,
            "ticks": 7864,
            "time": 16.604938395833333,
            "value": 0.48031496062992124
          },
          {
            "number": 11,
            "ticks": 7880,
            "time": 16.638722604166663,
            "value": 0.5196850393700787
          },
          {
            "number": 11,
            "ticks": 7896,
            "time": 16.672506812499996,
            "value": 0.5433070866141733
          },
          {
            "number": 11,
            "ticks": 7912,
            "time": 16.706291020833334,
            "value": 0.5905511811023622
          },
          {
            "number": 11,
            "ticks": 7928,
            "time": 16.740075229166663,
            "value": 0.6377952755905512
          },
          {
            "number": 11,
            "ticks": 7952,
            "time": 16.790751541666662,
            "value": 0.6614173228346457
          },
          {
            "number": 11,
            "ticks": 7976,
            "time": 16.841427854166664,
            "value": 0.7086614173228346
          },
          {
            "number": 11,
            "ticks": 7992,
            "time": 16.875212062499998,
            "value": 0.7322834645669292
          },
          {
            "number": 11,
            "ticks": 8016,
            "time": 16.925888375,
            "value": 0.7716535433070866
          },
          {
            "number": 11,
            "ticks": 8040,
            "time": 16.976564687499998,
            "value": 0.7952755905511811
          },
          {
            "number": 11,
            "ticks": 8056,
            "time": 17.01034889583333,
            "value": 0.84251968503937
          },
          {
            "number": 11,
            "ticks": 8088,
            "time": 17.0779173125,
            "value": 0.889763779527559
          },
          {
            "number": 11,
            "ticks": 8112,
            "time": 17.128593624999997,
            "value": 0.9133858267716536
          },
          {
            "number": 11,
            "ticks": 8128,
            "time": 17.16237783333333,
            "value": 0.937007874015748
          },
          {
            "number": 11,
            "ticks": 8136,
            "time": 17.1792699375,
            "value": 0.9606299212598425
          },
          {
            "number": 11,
            "ticks": 8152,
            "time": 17.213054145833333,
            "value": 0.984251968503937
          },
          {
            "number": 11,
            "ticks": 8184,
            "time": 17.2806225625,
            "value": 1
          },
          {
            "number": 11,
            "ticks": 8416,
            "time": 17.770493583333334,
            "value": 0.03937007874015748
          },
          {
            "number": 11,
            "ticks": 8456,
            "time": 17.854954104166662,
            "value": 0.06299212598425197
          },
          {
            "number": 11,
            "ticks": 8464,
            "time": 17.87184620833333,
            "value": 0.11023622047244094
          },
          {
            "number": 11,
            "ticks": 8480,
            "time": 17.905630416666664,
            "value": 0.13385826771653545
          },
          {
            "number": 11,
            "ticks": 8496,
            "time": 17.939414624999998,
            "value": 0.15748031496062992
          },
          {
            "number": 11,
            "ticks": 8504,
            "time": 17.956306729166663,
            "value": 0.18110236220472442
          },
          {
            "number": 11,
            "ticks": 8520,
            "time": 17.990090937499996,
            "value": 0.2047244094488189
          },
          {
            "number": 11,
            "ticks": 8528,
            "time": 18.006983041666665,
            "value": 0.2440944881889764
          },
          {
            "number": 11,
            "ticks": 8544,
            "time": 18.04076725,
            "value": 0.2677165354330709
          },
          {
            "number": 11,
            "ticks": 8552,
            "time": 18.057659354166663,
            "value": 0.29133858267716534
          },
          {
            "number": 11,
            "ticks": 8560,
            "time": 18.07455145833333,
            "value": 0.31496062992125984
          },
          {
            "number": 11,
            "ticks": 8568,
            "time": 18.091443562499997,
            "value": 0.33858267716535434
          },
          {
            "number": 11,
            "ticks": 8576,
            "time": 18.108335666666665,
            "value": 0.36220472440944884
          },
          {
            "number": 11,
            "ticks": 8584,
            "time": 18.125227770833334,
            "value": 0.3858267716535433
          },
          {
            "number": 11,
            "ticks": 8592,
            "time": 18.142119875,
            "value": 0.4094488188976378
          },
          {
            "number": 11,
            "ticks": 8600,
            "time": 18.159011979166664,
            "value": 0.4330708661417323
          },
          {
            "number": 11,
            "ticks": 8608,
            "time": 18.175904083333332,
            "value": 0.4566929133858268
          },
          {
            "number": 11,
            "ticks": 8616,
            "time": 18.192796187499997,
            "value": 0.48031496062992124
          },
          {
            "number": 11,
            "ticks": 8632,
            "time": 18.22658039583333,
            "value": 0.5039370078740157
          },
          {
            "number": 11,
            "ticks": 8640,
            "time": 18.2434725,
            "value": 0.5196850393700787
          },
          {
            "number": 11,
            "ticks": 8656,
            "time": 18.277256708333333,
            "value": 0.5433070866141733
          },
          {
            "number": 11,
            "ticks": 8664,
            "time": 18.294148812499998,
            "value": 0.5669291338582677
          },
          {
            "number": 11,
            "ticks": 8672,
            "time": 18.311040916666663,
            "value": 0.5905511811023622
          },
          {
            "number": 11,
            "ticks": 8688,
            "time": 18.344825124999996,
            "value": 0.6141732283464567
          },
          {
            "number": 11,
            "ticks": 8696,
            "time": 18.361717229166665,
            "value": 0.6377952755905512
          },
          {
            "number": 11,
            "ticks": 8720,
            "time": 18.412393541666663,
            "value": 0.6850393700787402
          },
          {
            "number": 11,
            "ticks": 8736,
            "time": 18.446177749999997,
            "value": 0.7086614173228346
          },
          {
            "number": 11,
            "ticks": 8752,
            "time": 18.47996195833333,
            "value": 0.7322834645669292
          },
          {
            "number": 11,
            "ticks": 8768,
            "time": 18.513746166666664,
            "value": 0.7480314960629921
          },
          {
            "number": 11,
            "ticks": 8776,
            "time": 18.530638270833332,
            "value": 0.7716535433070866
          },
          {
            "number": 11,
            "ticks": 8792,
            "time": 18.564422479166662,
            "value": 0.7952755905511811
          },
          {
            "number": 11,
            "ticks": 8808,
            "time": 18.5982066875,
            "value": 0.8188976377952756
          },
          {
            "number": 11,
            "ticks": 8824,
            "time": 18.631990895833333,
            "value": 0.84251968503937
          },
          {
            "number": 11,
            "ticks": 8832,
            "time": 18.648882999999998,
            "value": 0.8661417322834646
          },
          {
            "number": 11,
            "ticks": 8856,
            "time": 18.699559312499996,
            "value": 0.889763779527559
          },
          {
            "number": 11,
            "ticks": 8880,
            "time": 18.750235625,
            "value": 0.9133858267716536
          },
          {
            "number": 11,
            "ticks": 8904,
            "time": 18.800911937499997,
            "value": 0.937007874015748
          },
          {
            "number": 11,
            "ticks": 8928,
            "time": 18.85158825,
            "value": 0.9606299212598425
          },
          {
            "number": 11,
            "ticks": 8976,
            "time": 18.952940875,
            "value": 0.984251968503937
          },
          {
            "number": 11,
            "ticks": 8992,
            "time": 18.986725083333333,
            "value": 1
          },
          {
            "number": 11,
            "ticks": 9184,
            "time": 19.39213558333333,
            "value": 0
          },
          {
            "number": 11,
            "ticks": 9216,
            "time": 19.459704,
            "value": 0.06299212598425197
          },
          {
            "number": 11,
            "ticks": 9248,
            "time": 19.527272416666662,
            "value": 0.13385826771653545
          },
          {
            "number": 11,
            "ticks": 9280,
            "time": 19.594840833333333,
            "value": 0.18110236220472442
          },
          {
            "number": 11,
            "ticks": 9312,
            "time": 19.662409249999996,
            "value": 0.2440944881889764
          },
          {
            "number": 11,
            "ticks": 9344,
            "time": 19.729977666666663,
            "value": 0.31496062992125984
          },
          {
            "number": 11,
            "ticks": 9376,
            "time": 19.797546083333334,
            "value": 0.33858267716535434
          },
          {
            "number": 11,
            "ticks": 9408,
            "time": 19.865114499999997,
            "value": 0.4094488188976378
          },
          {
            "number": 11,
            "ticks": 9440,
            "time": 19.932682916666664,
            "value": 0.5039370078740157
          },
          {
            "number": 11,
            "ticks": 9472,
            "time": 20.00025133333333,
            "value": 0.5433070866141733
          },
          {
            "number": 11,
            "ticks": 9504,
            "time": 20.067819749999998,
            "value": 0.6377952755905512
          },
          {
            "number": 11,
            "ticks": 9536,
            "time": 20.13538816666666,
            "value": 0.6850393700787402
          },
          {
            "number": 11,
            "ticks": 9568,
            "time": 20.202956583333332,
            "value": 0.7716535433070866
          },
          {
            "number": 11,
            "ticks": 9600,
            "time": 20.270525,
            "value": 0.8188976377952756
          },
          {
            "number": 11,
            "ticks": 9632,
            "time": 20.338093416666663,
            "value": 0.8661417322834646
          },
          {
            "number": 11,
            "ticks": 9664,
            "time": 20.405661833333333,
            "value": 0.9133858267716536
          },
          {
            "number": 11,
            "ticks": 9696,
            "time": 20.473230249999997,
            "value": 0.937007874015748
          },
          {
            "number": 11,
            "ticks": 9728,
            "time": 20.540798666666664,
            "value": 0.984251968503937
          },
          {
            "number": 11,
            "ticks": 9760,
            "time": 20.60836708333333,
            "value": 1
          },
          {
            "number": 11,
            "ticks": 10720,
            "time": 22.63541958333333,
            "value": 0
          },
          {
            "number": 11,
            "ticks": 10784,
            "time": 22.770556416666665,
            "value": 0.03937007874015748
          },
          {
            "number": 11,
            "ticks": 10816,
            "time": 22.83812483333333,
            "value": 0.11023622047244094
          },
          {
            "number": 11,
            "ticks": 10848,
            "time": 22.90569325,
            "value": 0.13385826771653545
          },
          {
            "number": 11,
            "ticks": 10880,
            "time": 22.973261666666662,
            "value": 0.18110236220472442
          },
          {
            "number": 11,
            "ticks": 10912,
            "time": 23.040830083333333,
            "value": 0.2440944881889764
          },
          {
            "number": 11,
            "ticks": 10944,
            "time": 23.108398499999996,
            "value": 0.29133858267716534
          },
          {
            "number": 11,
            "ticks": 10976,
            "time": 23.175966916666663,
            "value": 0.33858267716535434
          },
          {
            "number": 11,
            "ticks": 11040,
            "time": 23.311103749999997,
            "value": 0.3858267716535433
          },
          {
            "number": 11,
            "ticks": 11072,
            "time": 23.378672166666664,
            "value": 0.4330708661417323
          },
          {
            "number": 11,
            "ticks": 11136,
            "time": 23.513809,
            "value": 0.5039370078740157
          },
          {
            "number": 11,
            "ticks": 11200,
            "time": 23.648945833333332,
            "value": 0.5433070866141733
          },
          {
            "number": 11,
            "ticks": 11232,
            "time": 23.716514249999996,
            "value": 0.5669291338582677
          },
          {
            "number": 11,
            "ticks": 11264,
            "time": 23.784082666666663,
            "value": 0.5905511811023622
          },
          {
            "number": 11,
            "ticks": 11296,
            "time": 23.85165108333333,
            "value": 0.6377952755905512
          },
          {
            "number": 11,
            "ticks": 11328,
            "time": 23.919219499999997,
            "value": 0.6614173228346457
          },
          {
            "number": 11,
            "ticks": 11360,
            "time": 23.986787916666664,
            "value": 0.7086614173228346
          },
          {
            "number": 11,
            "ticks": 11392,
            "time": 24.05435633333333,
            "value": 0.7322834645669292
          },
          {
            "number": 11,
            "ticks": 11456,
            "time": 24.18949316666666,
            "value": 0.7716535433070866
          },
          {
            "number": 11,
            "ticks": 11488,
            "time": 24.257061583333332,
            "value": 0.8188976377952756
          },
          {
            "number": 11,
            "ticks": 11520,
            "time": 24.324629999999996,
            "value": 0.8661417322834646
          },
          {
            "number": 11,
            "ticks": 11584,
            "time": 24.459766833333333,
            "value": 0.9133858267716536
          },
          {
            "number": 11,
            "ticks": 11616,
            "time": 24.527335249999997,
            "value": 0.984251968503937
          },
          {
            "number": 11,
            "ticks": 11648,
            "time": 24.594903666666664,
            "value": 1
          },
          {
            "number": 11,
            "ticks": 12256,
            "time": 25.87870358333333,
            "value": 0
          },
          {
            "number": 11,
            "ticks": 12320,
            "time": 26.013840416666664,
            "value": 0.11023622047244094
          },
          {
            "number": 11,
            "ticks": 12352,
            "time": 26.081408833333327,
            "value": 0.13385826771653545
          },
          {
            "number": 11,
            "ticks": 12384,
            "time": 26.148977249999998,
            "value": 0.2283464566929134
          },
          {
            "number": 11,
            "ticks": 12480,
            "time": 26.351682499999995,
            "value": 0.31496062992125984
          },
          {
            "number": 11,
            "ticks": 12576,
            "time": 26.554387749999997,
            "value": 0.4330708661417323
          },
          {
            "number": 11,
            "ticks": 12736,
            "time": 26.892229833333328,
            "value": 0.5433070866141733
          },
          {
            "number": 11,
            "ticks": 12896,
            "time": 27.230071916666667,
            "value": 0.6850393700787402
          },
          {
            "number": 11,
            "ticks": 13088,
            "time": 27.635482416666665,
            "value": 0.8188976377952756
          },
          {
            "number": 11,
            "ticks": 13184,
            "time": 27.838187666666666,
            "value": 0.9133858267716536
          },
          {
            "number": 11,
            "ticks": 13248,
            "time": 27.973324499999997,
            "value": 0.9606299212598425
          },
          {
            "number": 11,
            "ticks": 13280,
            "time": 28.040892916666664,
            "value": 0.984251968503937
          },
          {
            "number": 11,
            "ticks": 13312,
            "time": 28.108461333333327,
            "value": 1
          },
          {
            "number": 11,
            "ticks": 13792,
            "time": 29.12198758333333,
            "value": 0
          },
          {
            "number": 11,
            "ticks": 13856,
            "time": 29.257124416666667,
            "value": 0.03937007874015748
          },
          {
            "number": 11,
            "ticks": 13888,
            "time": 29.324692833333327,
            "value": 0.11023622047244094
          },
          {
            "number": 11,
            "ticks": 13920,
            "time": 29.392261249999997,
            "value": 0.15748031496062992
          },
          {
            "number": 11,
            "ticks": 13952,
            "time": 29.459829666666664,
            "value": 0.2047244094488189
          },
          {
            "number": 11,
            "ticks": 13984,
            "time": 29.527398083333328,
            "value": 0.2283464566929134
          },
          {
            "number": 11,
            "ticks": 14016,
            "time": 29.594966499999998,
            "value": 0.2677165354330709
          },
          {
            "number": 11,
            "ticks": 14080,
            "time": 29.73010333333333,
            "value": 0.31496062992125984
          },
          {
            "number": 11,
            "ticks": 14112,
            "time": 29.797671749999996,
            "value": 0.36220472440944884
          },
          {
            "number": 11,
            "ticks": 14144,
            "time": 29.865240166666666,
            "value": 0.4094488188976378
          },
          {
            "number": 11,
            "ticks": 14176,
            "time": 29.932808583333326,
            "value": 0.4566929133858268
          },
          {
            "number": 11,
            "ticks": 14208,
            "time": 30.000376999999997,
            "value": 0.48031496062992124
          },
          {
            "number": 11,
            "ticks": 14240,
            "time": 30.067945416666664,
            "value": 0.5669291338582677
          },
          {
            "number": 11,
            "ticks": 14272,
            "time": 30.135513833333327,
            "value": 0.5905511811023622
          },
          {
            "number": 11,
            "ticks": 14304,
            "time": 30.203082249999998,
            "value": 0.6141732283464567
          },
          {
            "number": 11,
            "ticks": 14336,
            "time": 30.270650666666665,
            "value": 0.6614173228346457
          },
          {
            "number": 11,
            "ticks": 14368,
            "time": 30.33821908333333,
            "value": 0.7086614173228346
          },
          {
            "number": 11,
            "ticks": 14400,
            "time": 30.405787499999995,
            "value": 0.7322834645669292
          },
          {
            "number": 11,
            "ticks": 14432,
            "time": 30.473355916666666,
            "value": 0.7716535433070866
          },
          {
            "number": 11,
            "ticks": 14464,
            "time": 30.54092433333333,
            "value": 0.7952755905511811
          },
          {
            "number": 11,
            "ticks": 14496,
            "time": 30.608492749999996,
            "value": 0.84251968503937
          },
          {
            "number": 11,
            "ticks": 14528,
            "time": 30.676061166666663,
            "value": 0.8661417322834646
          },
          {
            "number": 11,
            "ticks": 14560,
            "time": 30.743629583333327,
            "value": 0.937007874015748
          },
          {
            "number": 11,
            "ticks": 14592,
            "time": 30.811197999999997,
            "value": 0.9606299212598425
          },
          {
            "number": 11,
            "ticks": 14624,
            "time": 30.878766416666664,
            "value": 0.984251968503937
          },
          {
            "number": 11,
            "ticks": 14656,
            "time": 30.946334833333328,
            "value": 1
          },
          {
            "number": 11,
            "ticks": 15328,
            "time": 32.365271583333325,
            "value": 0
          },
          {
            "number": 11,
            "ticks": 15360,
            "time": 32.43284,
            "value": 0.015748031496062992
          },
          {
            "number": 11,
            "ticks": 15392,
            "time": 32.500408416666666,
            "value": 0.08661417322834646
          },
          {
            "number": 11,
            "ticks": 15424,
            "time": 32.567976833333326,
            "value": 0.13385826771653545
          },
          {
            "number": 11,
            "ticks": 15456,
            "time": 32.63554524999999,
            "value": 0.18110236220472442
          },
          {
            "number": 11,
            "ticks": 15488,
            "time": 32.70311366666667,
            "value": 0.2440944881889764
          },
          {
            "number": 11,
            "ticks": 15552,
            "time": 32.838250499999994,
            "value": 0.31496062992125984
          },
          {
            "number": 11,
            "ticks": 15584,
            "time": 32.90581891666667,
            "value": 0.4094488188976378
          },
          {
            "number": 11,
            "ticks": 15648,
            "time": 33.040955749999995,
            "value": 0.48031496062992124
          },
          {
            "number": 11,
            "ticks": 15712,
            "time": 33.17609258333333,
            "value": 0.5433070866141733
          },
          {
            "number": 11,
            "ticks": 15776,
            "time": 33.31122941666666,
            "value": 0.6141732283464567
          },
          {
            "number": 11,
            "ticks": 15808,
            "time": 33.37879783333333,
            "value": 0.6850393700787402
          },
          {
            "number": 11,
            "ticks": 15872,
            "time": 33.513934666666664,
            "value": 0.7480314960629921
          },
          {
            "number": 11,
            "ticks": 15904,
            "time": 33.581503083333324,
            "value": 0.7952755905511811
          },
          {
            "number": 11,
            "ticks": 15968,
            "time": 33.716639916666665,
            "value": 0.8661417322834646
          },
          {
            "number": 11,
            "ticks": 16000,
            "time": 33.784208333333325,
            "value": 0.9133858267716536
          },
          {
            "number": 11,
            "ticks": 16032,
            "time": 33.85177675,
            "value": 0.9606299212598425
          },
          {
            "number": 11,
            "ticks": 16096,
            "time": 33.986913583333326,
            "value": 1
          },
          {
            "number": 11,
            "ticks": 16864,
            "time": 35.60855558333333,
            "value": 0
          },
          {
            "number": 11,
            "ticks": 16928,
            "time": 35.74369241666666,
            "value": 0.13385826771653545
          },
          {
            "number": 11,
            "ticks": 16960,
            "time": 35.81126083333333,
            "value": 0.2440944881889764
          },
          {
            "number": 11,
            "ticks": 16992,
            "time": 35.878829249999995,
            "value": 0.29133858267716534
          },
          {
            "number": 11,
            "ticks": 17024,
            "time": 35.94639766666666,
            "value": 0.3858267716535433
          },
          {
            "number": 11,
            "ticks": 17056,
            "time": 36.01396608333333,
            "value": 0.4566929133858268
          },
          {
            "number": 11,
            "ticks": 17088,
            "time": 36.0815345,
            "value": 0.5196850393700787
          },
          {
            "number": 11,
            "ticks": 17120,
            "time": 36.14910291666666,
            "value": 0.5669291338582677
          },
          {
            "number": 11,
            "ticks": 17152,
            "time": 36.21667133333333,
            "value": 0.6850393700787402
          },
          {
            "number": 11,
            "ticks": 17184,
            "time": 36.28423975,
            "value": 0.7480314960629921
          },
          {
            "number": 11,
            "ticks": 17216,
            "time": 36.351808166666665,
            "value": 0.7952755905511811
          },
          {
            "number": 11,
            "ticks": 17248,
            "time": 36.419376583333325,
            "value": 0.84251968503937
          },
          {
            "number": 11,
            "ticks": 17280,
            "time": 36.486945,
            "value": 0.9133858267716536
          },
          {
            "number": 11,
            "ticks": 17312,
            "time": 36.554513416666666,
            "value": 1
          },
          {
            "number": 11,
            "ticks": 17664,
            "time": 37.297765999999996,
            "value": 0
          },
          {
            "number": 11,
            "ticks": 17696,
            "time": 37.36533441666666,
            "value": 0.08661417322834646
          },
          {
            "number": 11,
            "ticks": 17728,
            "time": 37.43290283333333,
            "value": 0.2047244094488189
          },
          {
            "number": 11,
            "ticks": 17760,
            "time": 37.50047125,
            "value": 0.33858267716535434
          },
          {
            "number": 11,
            "ticks": 17792,
            "time": 37.568039666666664,
            "value": 0.4330708661417323
          },
          {
            "number": 11,
            "ticks": 17824,
            "time": 37.635608083333324,
            "value": 0.5196850393700787
          },
          {
            "number": 11,
            "ticks": 17856,
            "time": 37.7031765,
            "value": 0.5669291338582677
          },
          {
            "number": 11,
            "ticks": 17888,
            "time": 37.770744916666665,
            "value": 0.7322834645669292
          },
          {
            "number": 11,
            "ticks": 17920,
            "time": 37.838313333333325,
            "value": 0.7716535433070866
          },
          {
            "number": 11,
            "ticks": 17952,
            "time": 37.90588175,
            "value": 0.889763779527559
          },
          {
            "number": 11,
            "ticks": 17984,
            "time": 37.973450166666666,
            "value": 0.9133858267716536
          },
          {
            "number": 11,
            "ticks": 18016,
            "time": 38.041018583333326,
            "value": 0.984251968503937
          },
          {
            "number": 11,
            "ticks": 18048,
            "time": 38.10858699999999,
            "value": 1
          },
          {
            "number": 11,
            "ticks": 18432,
            "time": 38.919408,
            "value": 0.06299212598425197
          },
          {
            "number": 11,
            "ticks": 18464,
            "time": 38.986976416666664,
            "value": 0.2047244094488189
          },
          {
            "number": 11,
            "ticks": 18496,
            "time": 39.054544833333324,
            "value": 0.2677165354330709
          },
          {
            "number": 11,
            "ticks": 18528,
            "time": 39.12211325,
            "value": 0.3858267716535433
          },
          {
            "number": 11,
            "ticks": 18560,
            "time": 39.189681666666665,
            "value": 0.5039370078740157
          },
          {
            "number": 11,
            "ticks": 18592,
            "time": 39.257250083333325,
            "value": 0.5669291338582677
          },
          {
            "number": 11,
            "ticks": 18624,
            "time": 39.32481849999999,
            "value": 0.6377952755905512
          },
          {
            "number": 11,
            "ticks": 18656,
            "time": 39.392386916666666,
            "value": 0.7322834645669292
          },
          {
            "number": 11,
            "ticks": 18688,
            "time": 39.459955333333326,
            "value": 0.7952755905511811
          },
          {
            "number": 11,
            "ticks": 18720,
            "time": 39.52752374999999,
            "value": 0.8661417322834646
          },
          {
            "number": 11,
            "ticks": 18752,
            "time": 39.59509216666667,
            "value": 0.9133858267716536
          },
          {
            "number": 11,
            "ticks": 18784,
            "time": 39.66266058333333,
            "value": 0.9606299212598425
          },
          {
            "number": 11,
            "ticks": 18816,
            "time": 39.730228999999994,
            "value": 1
          },
          {
            "number": 11,
            "ticks": 19168,
            "time": 40.473481583333324,
            "value": 0
          },
          {
            "number": 11,
            "ticks": 19232,
            "time": 40.608618416666665,
            "value": 0.11023622047244094
          },
          {
            "number": 11,
            "ticks": 19264,
            "time": 40.676186833333325,
            "value": 0.2677165354330709
          },
          {
            "number": 11,
            "ticks": 19296,
            "time": 40.74375524999999,
            "value": 0.31496062992125984
          },
          {
            "number": 11,
            "ticks": 19328,
            "time": 40.81132366666667,
            "value": 0.36220472440944884
          },
          {
            "number": 11,
            "ticks": 19360,
            "time": 40.87889208333333,
            "value": 0.4566929133858268
          },
          {
            "number": 11,
            "ticks": 19392,
            "time": 40.94646049999999,
            "value": 0.5196850393700787
          },
          {
            "number": 11,
            "ticks": 19424,
            "time": 41.01402891666666,
            "value": 0.6377952755905512
          },
          {
            "number": 11,
            "ticks": 19456,
            "time": 41.08159733333333,
            "value": 0.6614173228346457
          },
          {
            "number": 11,
            "ticks": 19488,
            "time": 41.149165749999995,
            "value": 0.7086614173228346
          },
          {
            "number": 11,
            "ticks": 19520,
            "time": 41.21673416666666,
            "value": 0.7716535433070866
          },
          {
            "number": 11,
            "ticks": 19552,
            "time": 41.28430258333333,
            "value": 0.889763779527559
          },
          {
            "number": 11,
            "ticks": 19584,
            "time": 41.351870999999996,
            "value": 0.937007874015748
          },
          {
            "number": 11,
            "ticks": 19616,
            "time": 41.41943941666666,
            "value": 1
          },
          {
            "number": 11,
            "ticks": 19936,
            "time": 42.095123583333326,
            "value": 0.015748031496062992
          },
          {
            "number": 11,
            "ticks": 20000,
            "time": 42.23026041666667,
            "value": 0.03937007874015748
          },
          {
            "number": 11,
            "ticks": 20032,
            "time": 42.29782883333333,
            "value": 0.08661417322834646
          },
          {
            "number": 11,
            "ticks": 20064,
            "time": 42.365397249999994,
            "value": 0.18110236220472442
          },
          {
            "number": 11,
            "ticks": 20096,
            "time": 42.43296566666666,
            "value": 0.2440944881889764
          },
          {
            "number": 11,
            "ticks": 20128,
            "time": 42.50053408333333,
            "value": 0.31496062992125984
          },
          {
            "number": 11,
            "ticks": 20160,
            "time": 42.568102499999995,
            "value": 0.3858267716535433
          },
          {
            "number": 11,
            "ticks": 20192,
            "time": 42.63567091666666,
            "value": 0.4566929133858268
          },
          {
            "number": 11,
            "ticks": 20224,
            "time": 42.70323933333333,
            "value": 0.5039370078740157
          },
          {
            "number": 11,
            "ticks": 20256,
            "time": 42.770807749999996,
            "value": 0.6141732283464567
          },
          {
            "number": 11,
            "ticks": 20288,
            "time": 42.83837616666666,
            "value": 0.7086614173228346
          },
          {
            "number": 11,
            "ticks": 20320,
            "time": 42.90594458333332,
            "value": 0.7716535433070866
          },
          {
            "number": 11,
            "ticks": 20352,
            "time": 42.973513,
            "value": 0.889763779527559
          },
          {
            "number": 11,
            "ticks": 20384,
            "time": 43.041081416666664,
            "value": 0.984251968503937
          },
          {
            "number": 11,
            "ticks": 20416,
            "time": 43.108649833333324,
            "value": 1
          },
          {
            "number": 11,
            "ticks": 20704,
            "time": 43.71676558333333,
            "value": 0
          },
          {
            "number": 11,
            "ticks": 20768,
            "time": 43.85190241666666,
            "value": 0.08661417322834646
          },
          {
            "number": 11,
            "ticks": 20800,
            "time": 43.91947083333333,
            "value": 0.13385826771653545
          },
          {
            "number": 11,
            "ticks": 20832,
            "time": 43.987039249999995,
            "value": 0.2047244094488189
          },
          {
            "number": 11,
            "ticks": 20864,
            "time": 44.05460766666666,
            "value": 0.29133858267716534
          },
          {
            "number": 11,
            "ticks": 20896,
            "time": 44.12217608333333,
            "value": 0.36220472440944884
          },
          {
            "number": 11,
            "ticks": 20960,
            "time": 44.25731291666666,
            "value": 0.4330708661417323
          },
          {
            "number": 11,
            "ticks": 20992,
            "time": 44.32488133333332,
            "value": 0.5196850393700787
          },
          {
            "number": 11,
            "ticks": 21024,
            "time": 44.39244975,
            "value": 0.5669291338582677
          },
          {
            "number": 11,
            "ticks": 21056,
            "time": 44.460018166666664,
            "value": 0.6377952755905512
          },
          {
            "number": 11,
            "ticks": 21088,
            "time": 44.527586583333324,
            "value": 0.7086614173228346
          },
          {
            "number": 11,
            "ticks": 21120,
            "time": 44.59515499999999,
            "value": 0.84251968503937
          },
          {
            "number": 11,
            "ticks": 21152,
            "time": 44.662723416666665,
            "value": 0.9133858267716536
          },
          {
            "number": 11,
            "ticks": 21184,
            "time": 44.730291833333325,
            "value": 0.984251968503937
          },
          {
            "number": 11,
            "ticks": 21216,
            "time": 44.79786024999999,
            "value": 1
          }
        ],
        "91": [
          {
            "number": 91,
            "ticks": 480,
            "time": 1.01352625,
            "value": 0.6692913385826772
          }
        ],
        "93": [
          {
            "number": 93,
            "ticks": 480,
            "time": 1.01352625,
            "value": 0.5039370078740157
          }
        ]
      },
      "pitchBends": [],
      "instrument": {
        "family": "guitar",
        "number": 26,
        "name": "electric guitar (jazz)"
      },
      "name": "",
      "notes": [
        {
          "duration": 3.106035653645832,
          "durationTicks": 1471,
          "midi": 66,
          "name": "F#4",
          "ticks": 3072,
          "time": 6.486567999999999,
          "velocity": 1
        },
        {
          "duration": 3.106035653645832,
          "durationTicks": 1471,
          "midi": 63,
          "name": "D#4",
          "ticks": 3072,
          "time": 6.486567999999999,
          "velocity": 1
        },
        {
          "duration": 3.106035653645832,
          "durationTicks": 1471,
          "midi": 71,
          "name": "B4",
          "ticks": 3072,
          "time": 6.486567999999999,
          "velocity": 1
        },
        {
          "duration": 3.106035653645833,
          "durationTicks": 1471,
          "midi": 61,
          "name": "C#4",
          "ticks": 4608,
          "time": 9.729852,
          "velocity": 1
        },
        {
          "duration": 3.106035653645833,
          "durationTicks": 1471,
          "midi": 71,
          "name": "B4",
          "ticks": 4608,
          "time": 9.729852,
          "velocity": 1
        },
        {
          "duration": 3.106035653645833,
          "durationTicks": 1471,
          "midi": 64,
          "name": "E4",
          "ticks": 4608,
          "time": 9.729852,
          "velocity": 1
        },
        {
          "duration": 3.106035653645833,
          "durationTicks": 1471,
          "midi": 68,
          "name": "G#4",
          "ticks": 4608,
          "time": 9.729852,
          "velocity": 1
        },
        {
          "duration": 1.4843936536458333,
          "durationTicks": 703,
          "midi": 71,
          "name": "B4",
          "ticks": 6144,
          "time": 12.973135999999998,
          "velocity": 1
        },
        {
          "duration": 1.4843936536458333,
          "durationTicks": 703,
          "midi": 68,
          "name": "G#4",
          "ticks": 6144,
          "time": 12.973135999999998,
          "velocity": 1
        },
        {
          "duration": 1.4843936536458333,
          "durationTicks": 703,
          "midi": 64,
          "name": "E4",
          "ticks": 6144,
          "time": 12.973135999999998,
          "velocity": 1
        },
        {
          "duration": 1.484393653645835,
          "durationTicks": 703,
          "midi": 66,
          "name": "F#4",
          "ticks": 6912,
          "time": 14.594777999999998,
          "velocity": 1
        },
        {
          "duration": 1.484393653645835,
          "durationTicks": 703,
          "midi": 70,
          "name": "A#4",
          "ticks": 6912,
          "time": 14.594777999999998,
          "velocity": 1
        },
        {
          "duration": 1.484393653645835,
          "durationTicks": 703,
          "midi": 61,
          "name": "C#4",
          "ticks": 6912,
          "time": 14.594777999999998,
          "velocity": 1
        },
        {
          "duration": 1.4843936536458315,
          "durationTicks": 703,
          "midi": 68,
          "name": "G#4",
          "ticks": 7680,
          "time": 16.21642,
          "velocity": 1
        },
        {
          "duration": 1.4843936536458315,
          "durationTicks": 703,
          "midi": 64,
          "name": "E4",
          "ticks": 7680,
          "time": 16.21642,
          "velocity": 1
        },
        {
          "duration": 1.4843936536458315,
          "durationTicks": 703,
          "midi": 59,
          "name": "B3",
          "ticks": 7680,
          "time": 16.21642,
          "velocity": 1
        },
        {
          "duration": 1.484393653645835,
          "durationTicks": 703,
          "midi": 61,
          "name": "C#4",
          "ticks": 8448,
          "time": 17.838061999999997,
          "velocity": 1
        },
        {
          "duration": 1.484393653645835,
          "durationTicks": 703,
          "midi": 66,
          "name": "F#4",
          "ticks": 8448,
          "time": 17.838061999999997,
          "velocity": 1
        },
        {
          "duration": 1.484393653645835,
          "durationTicks": 703,
          "midi": 58,
          "name": "A#3",
          "ticks": 8448,
          "time": 17.838061999999997,
          "velocity": 1
        },
        {
          "duration": 3.106035653645833,
          "durationTicks": 1471,
          "midi": 66,
          "name": "F#4",
          "ticks": 9216,
          "time": 19.459704,
          "velocity": 1
        },
        {
          "duration": 3.106035653645833,
          "durationTicks": 1471,
          "midi": 71,
          "name": "B4",
          "ticks": 9216,
          "time": 19.459704,
          "velocity": 1
        },
        {
          "duration": 3.106035653645833,
          "durationTicks": 1471,
          "midi": 63,
          "name": "D#4",
          "ticks": 9216,
          "time": 19.459704,
          "velocity": 1
        },
        {
          "duration": 3.106035653645833,
          "durationTicks": 1471,
          "midi": 68,
          "name": "G#4",
          "ticks": 10752,
          "time": 22.702987999999998,
          "velocity": 1
        },
        {
          "duration": 3.106035653645833,
          "durationTicks": 1471,
          "midi": 63,
          "name": "D#4",
          "ticks": 10752,
          "time": 22.702987999999998,
          "velocity": 1
        },
        {
          "duration": 3.106035653645833,
          "durationTicks": 1471,
          "midi": 60,
          "name": "C4",
          "ticks": 10752,
          "time": 22.702987999999998,
          "velocity": 1
        },
        {
          "duration": 3.1060356536458293,
          "durationTicks": 1471,
          "midi": 76,
          "name": "E5",
          "ticks": 12288,
          "time": 25.946271999999997,
          "velocity": 1
        },
        {
          "duration": 3.1060356536458293,
          "durationTicks": 1471,
          "midi": 68,
          "name": "G#4",
          "ticks": 12288,
          "time": 25.946271999999997,
          "velocity": 1
        },
        {
          "duration": 3.1060356536458293,
          "durationTicks": 1471,
          "midi": 73,
          "name": "C#5",
          "ticks": 12288,
          "time": 25.946271999999997,
          "velocity": 1
        },
        {
          "duration": 3.106035653645833,
          "durationTicks": 1471,
          "midi": 76,
          "name": "E5",
          "ticks": 13824,
          "time": 29.189555999999996,
          "velocity": 1
        },
        {
          "duration": 3.106035653645833,
          "durationTicks": 1471,
          "midi": 73,
          "name": "C#5",
          "ticks": 13824,
          "time": 29.189555999999996,
          "velocity": 1
        },
        {
          "duration": 3.106035653645833,
          "durationTicks": 1471,
          "midi": 68,
          "name": "G#4",
          "ticks": 13824,
          "time": 29.189555999999996,
          "velocity": 1
        },
        {
          "duration": 3.106035653645826,
          "durationTicks": 1471,
          "midi": 70,
          "name": "A#4",
          "ticks": 15360,
          "time": 32.43284,
          "velocity": 1
        },
        {
          "duration": 3.106035653645826,
          "durationTicks": 1471,
          "midi": 78,
          "name": "F#5",
          "ticks": 15360,
          "time": 32.43284,
          "velocity": 1
        },
        {
          "duration": 3.106035653645826,
          "durationTicks": 1471,
          "midi": 73,
          "name": "C#5",
          "ticks": 15360,
          "time": 32.43284,
          "velocity": 1
        },
        {
          "duration": 1.6195304869791727,
          "durationTicks": 767,
          "midi": 61,
          "name": "C#4",
          "ticks": 16896,
          "time": 35.676123999999994,
          "velocity": 0.7480314960629921
        },
        {
          "duration": 1.6195304869791727,
          "durationTicks": 767,
          "midi": 70,
          "name": "A#4",
          "ticks": 16896,
          "time": 35.676123999999994,
          "velocity": 0.7480314960629921
        },
        {
          "duration": 1.6195304869791727,
          "durationTicks": 767,
          "midi": 66,
          "name": "F#4",
          "ticks": 16896,
          "time": 35.676123999999994,
          "velocity": 0.7480314960629921
        },
        {
          "duration": 1.6195304869791656,
          "durationTicks": 767,
          "midi": 65,
          "name": "F4",
          "ticks": 17664,
          "time": 37.297765999999996,
          "velocity": 0.7086614173228346
        },
        {
          "duration": 1.6195304869791656,
          "durationTicks": 767,
          "midi": 62,
          "name": "D4",
          "ticks": 17664,
          "time": 37.297765999999996,
          "velocity": 0.7086614173228346
        },
        {
          "duration": 1.6195304869791656,
          "durationTicks": 767,
          "midi": 68,
          "name": "G#4",
          "ticks": 17664,
          "time": 37.297765999999996,
          "velocity": 0.7086614173228346
        },
        {
          "duration": 1.4843936536458315,
          "durationTicks": 703,
          "midi": 59,
          "name": "B3",
          "ticks": 18432,
          "time": 38.919408,
          "velocity": 0.6614173228346457
        },
        {
          "duration": 1.4843936536458315,
          "durationTicks": 703,
          "midi": 63,
          "name": "D#4",
          "ticks": 18432,
          "time": 38.919408,
          "velocity": 0.6614173228346457
        },
        {
          "duration": 1.4843936536458315,
          "durationTicks": 703,
          "midi": 66,
          "name": "F#4",
          "ticks": 18432,
          "time": 38.919408,
          "velocity": 0.6614173228346457
        },
        {
          "duration": 1.4843936536458244,
          "durationTicks": 703,
          "midi": 63,
          "name": "D#4",
          "ticks": 19200,
          "time": 40.54105,
          "velocity": 0.7480314960629921
        },
        {
          "duration": 1.4843936536458244,
          "durationTicks": 703,
          "midi": 66,
          "name": "F#4",
          "ticks": 19200,
          "time": 40.54105,
          "velocity": 0.7480314960629921
        },
        {
          "duration": 1.4843936536458244,
          "durationTicks": 703,
          "midi": 60,
          "name": "C4",
          "ticks": 19200,
          "time": 40.54105,
          "velocity": 0.7480314960629921
        },
        {
          "duration": 1.4843936536458315,
          "durationTicks": 703,
          "midi": 64,
          "name": "E4",
          "ticks": 19968,
          "time": 42.16269199999999,
          "velocity": 0.7086614173228346
        },
        {
          "duration": 1.4843936536458315,
          "durationTicks": 703,
          "midi": 61,
          "name": "C#4",
          "ticks": 19968,
          "time": 42.16269199999999,
          "velocity": 0.7086614173228346
        },
        {
          "duration": 1.4843936536458315,
          "durationTicks": 703,
          "midi": 68,
          "name": "G#4",
          "ticks": 19968,
          "time": 42.16269199999999,
          "velocity": 0.7086614173228346
        },
        {
          "duration": 1.6195304869791656,
          "durationTicks": 767,
          "midi": 61,
          "name": "C#4",
          "ticks": 20736,
          "time": 43.784333999999994,
          "velocity": 0.7086614173228346
        },
        {
          "duration": 1.6195304869791656,
          "durationTicks": 767,
          "midi": 66,
          "name": "F#4",
          "ticks": 20736,
          "time": 43.784333999999994,
          "velocity": 0.7086614173228346
        },
        {
          "duration": 1.6195304869791656,
          "durationTicks": 767,
          "midi": 58,
          "name": "A#3",
          "ticks": 20736,
          "time": 43.784333999999994,
          "velocity": 0.7086614173228346
        }
      ]
    },
    {
      "channel": 5,
      "controlChanges": {
        "7": [
          {
            "number": 7,
            "ticks": 496,
            "time": 1.0473104583333332,
            "value": 0.5905511811023622
          }
        ],
        "10": [
          {
            "number": 10,
            "ticks": 496,
            "time": 1.0473104583333332,
            "value": 0.1889763779527559
          }
        ],
        "11": [
          {
            "number": 11,
            "ticks": 496,
            "time": 1.0473104583333332,
            "value": 1
          }
        ],
        "91": [
          {
            "number": 91,
            "ticks": 500,
            "time": 1.0557565104166664,
            "value": 0.23622047244094488
          }
        ],
        "93": [
          {
            "number": 93,
            "ticks": 500,
            "time": 1.0557565104166664,
            "value": 0.31496062992125984
          }
        ]
      },
      "pitchBends": [],
      "instrument": {
        "family": "guitar",
        "number": 28,
        "name": "electric guitar (muted)"
      },
      "name": "",
      "notes": [
        {
          "duration": 1.214119986979167,
          "durationTicks": 575,
          "midi": 35,
          "name": "B1",
          "ticks": 3072,
          "time": 6.486567999999999,
          "velocity": 0.8110236220472441
        },
        {
          "duration": 0.26816215364583407,
          "durationTicks": 127,
          "midi": 39,
          "name": "D#2",
          "ticks": 3712,
          "time": 7.837936333333332,
          "velocity": 0.8582677165354331
        },
        {
          "duration": 0.2681621536458323,
          "durationTicks": 127,
          "midi": 42,
          "name": "F#2",
          "ticks": 3840,
          "time": 8.10821,
          "velocity": 0.8582677165354331
        },
        {
          "duration": 0.2681621536458323,
          "durationTicks": 127,
          "midi": 35,
          "name": "B1",
          "ticks": 3968,
          "time": 8.378483666666666,
          "velocity": 0.8582677165354331
        },
        {
          "duration": 0.26816215364583407,
          "durationTicks": 127,
          "midi": 36,
          "name": "C2",
          "ticks": 4096,
          "time": 8.648757333333332,
          "velocity": 0.8976377952755905
        },
        {
          "duration": 0.2681621536458323,
          "durationTicks": 127,
          "midi": 37,
          "name": "C#2",
          "ticks": 4224,
          "time": 8.919030999999999,
          "velocity": 0.952755905511811
        },
        {
          "duration": 0.2681621536458323,
          "durationTicks": 127,
          "midi": 38,
          "name": "D2",
          "ticks": 4352,
          "time": 9.189304666666667,
          "velocity": 0.8582677165354331
        },
        {
          "duration": 0.26816215364583407,
          "durationTicks": 127,
          "midi": 39,
          "name": "D#2",
          "ticks": 4480,
          "time": 9.459578333333331,
          "velocity": 0.7795275590551181
        },
        {
          "duration": 1.3492568203124993,
          "durationTicks": 639,
          "midi": 40,
          "name": "E2",
          "ticks": 4608,
          "time": 9.729852,
          "velocity": 0.8582677165354331
        },
        {
          "duration": 0.26816215364583584,
          "durationTicks": 127,
          "midi": 44,
          "name": "G#2",
          "ticks": 5248,
          "time": 11.08122033333333,
          "velocity": 0.8110236220472441
        },
        {
          "duration": 0.8087094869791667,
          "durationTicks": 383,
          "midi": 47,
          "name": "B2",
          "ticks": 5376,
          "time": 11.351493999999999,
          "velocity": 0.8582677165354331
        },
        {
          "duration": 0.5384358203125004,
          "durationTicks": 255,
          "midi": 44,
          "name": "G#2",
          "ticks": 5760,
          "time": 12.162314999999998,
          "velocity": 0.7637795275590551
        },
        {
          "duration": 0.26816215364583407,
          "durationTicks": 127,
          "midi": 47,
          "name": "B2",
          "ticks": 6016,
          "time": 12.702862333333332,
          "velocity": 0.7244094488188977
        },
        {
          "duration": 1.0789831536458347,
          "durationTicks": 511,
          "midi": 40,
          "name": "E2",
          "ticks": 6144,
          "time": 12.973135999999998,
          "velocity": 0.952755905511811
        },
        {
          "duration": 0.2681621536458323,
          "durationTicks": 127,
          "midi": 40,
          "name": "E2",
          "ticks": 6784,
          "time": 14.324504333333332,
          "velocity": 1
        },
        {
          "duration": 1.0789831536458347,
          "durationTicks": 511,
          "midi": 39,
          "name": "D#2",
          "ticks": 6912,
          "time": 14.594777999999998,
          "velocity": 0.952755905511811
        },
        {
          "duration": 0.2681621536458305,
          "durationTicks": 127,
          "midi": 39,
          "name": "D#2",
          "ticks": 7552,
          "time": 15.946146333333333,
          "velocity": 0.8976377952755905
        },
        {
          "duration": 1.078983153645833,
          "durationTicks": 511,
          "midi": 37,
          "name": "C#2",
          "ticks": 7680,
          "time": 16.21642,
          "velocity": 1
        },
        {
          "duration": 0.2681621536458323,
          "durationTicks": 127,
          "midi": 37,
          "name": "C#2",
          "ticks": 8320,
          "time": 17.567788333333333,
          "velocity": 0.952755905511811
        },
        {
          "duration": 1.349256820312501,
          "durationTicks": 639,
          "midi": 42,
          "name": "F#2",
          "ticks": 8448,
          "time": 17.838061999999997,
          "velocity": 0.952755905511811
        },
        {
          "duration": 1.3830410286458346,
          "durationTicks": 655,
          "midi": 35,
          "name": "B1",
          "ticks": 9216,
          "time": 19.459704,
          "velocity": 0.84251968503937
        },
        {
          "duration": 0.2681621536458323,
          "durationTicks": 127,
          "midi": 39,
          "name": "D#2",
          "ticks": 9856,
          "time": 20.811072333333332,
          "velocity": 0.9921259842519685
        },
        {
          "duration": 0.8087094869791684,
          "durationTicks": 383,
          "midi": 42,
          "name": "F#2",
          "ticks": 9984,
          "time": 21.081345999999996,
          "velocity": 0.7244094488188977
        },
        {
          "duration": 0.8087094869791649,
          "durationTicks": 383,
          "midi": 33,
          "name": "A1",
          "ticks": 10368,
          "time": 21.892166999999997,
          "velocity": 0.8976377952755905
        },
        {
          "duration": 2.160077820312498,
          "durationTicks": 1023,
          "midi": 32,
          "name": "G#1",
          "ticks": 10752,
          "time": 22.702987999999998,
          "velocity": 0.8188976377952756
        },
        {
          "duration": 0.26816215364583584,
          "durationTicks": 127,
          "midi": 32,
          "name": "G#1",
          "ticks": 11904,
          "time": 25.135450999999996,
          "velocity": 0.937007874015748
        },
        {
          "duration": 0.2681621536458323,
          "durationTicks": 127,
          "midi": 34,
          "name": "A#1",
          "ticks": 12032,
          "time": 25.405724666666664,
          "velocity": 0.8503937007874016
        },
        {
          "duration": 0.26816215364582874,
          "durationTicks": 127,
          "midi": 36,
          "name": "C2",
          "ticks": 12160,
          "time": 25.675998333333332,
          "velocity": 0.8188976377952756
        },
        {
          "duration": 1.349256820312501,
          "durationTicks": 639,
          "midi": 37,
          "name": "C#2",
          "ticks": 12288,
          "time": 25.946271999999997,
          "velocity": 0.8503937007874016
        },
        {
          "duration": 0.2681621536458394,
          "durationTicks": 127,
          "midi": 40,
          "name": "E2",
          "ticks": 12928,
          "time": 27.297640333333327,
          "velocity": 0.8188976377952756
        },
        {
          "duration": 0.8087094869791684,
          "durationTicks": 383,
          "midi": 44,
          "name": "G#2",
          "ticks": 13056,
          "time": 27.567914,
          "velocity": 0.8503937007874016
        },
        {
          "duration": 0.5384358203125004,
          "durationTicks": 255,
          "midi": 40,
          "name": "E2",
          "ticks": 13440,
          "time": 28.378734999999995,
          "velocity": 0.7795275590551181
        },
        {
          "duration": 0.26816215364583584,
          "durationTicks": 127,
          "midi": 44,
          "name": "G#2",
          "ticks": 13696,
          "time": 28.919282333333328,
          "velocity": 0.7480314960629921
        },
        {
          "duration": 1.349256820312501,
          "durationTicks": 639,
          "midi": 37,
          "name": "C#2",
          "ticks": 13824,
          "time": 29.189555999999996,
          "velocity": 0.8031496062992126
        },
        {
          "duration": 0.26816215364583584,
          "durationTicks": 127,
          "midi": 40,
          "name": "E2",
          "ticks": 14464,
          "time": 30.54092433333333,
          "velocity": 0.8976377952755905
        },
        {
          "duration": 0.8087094869791684,
          "durationTicks": 383,
          "midi": 44,
          "name": "G#2",
          "ticks": 14592,
          "time": 30.811197999999997,
          "velocity": 0.8031496062992126
        },
        {
          "duration": 0.5384358203125004,
          "durationTicks": 255,
          "midi": 40,
          "name": "E2",
          "ticks": 14976,
          "time": 31.622018999999995,
          "velocity": 0.7480314960629921
        },
        {
          "duration": 0.2681621536458323,
          "durationTicks": 127,
          "midi": 44,
          "name": "G#2",
          "ticks": 15232,
          "time": 32.16256633333333,
          "velocity": 0.7637795275590551
        },
        {
          "duration": 1.3492568203124975,
          "durationTicks": 639,
          "midi": 42,
          "name": "F#2",
          "ticks": 15360,
          "time": 32.43284,
          "velocity": 0.8976377952755905
        },
        {
          "duration": 0.2681621536458394,
          "durationTicks": 127,
          "midi": 46,
          "name": "A#2",
          "ticks": 16000,
          "time": 33.784208333333325,
          "velocity": 0.937007874015748
        },
        {
          "duration": 0.6735726536458344,
          "durationTicks": 319,
          "midi": 49,
          "name": "C#3",
          "ticks": 16128,
          "time": 34.05448199999999,
          "velocity": 0.8188976377952756
        },
        {
          "duration": 0.5384358203125004,
          "durationTicks": 255,
          "midi": 46,
          "name": "A#2",
          "ticks": 16512,
          "time": 34.865303,
          "velocity": 0.8188976377952756
        },
        {
          "duration": 0.2681621536458394,
          "durationTicks": 127,
          "midi": 49,
          "name": "C#3",
          "ticks": 16768,
          "time": 35.405850333333326,
          "velocity": 0.8031496062992126
        },
        {
          "duration": 1.2141199869791706,
          "durationTicks": 575,
          "midi": 42,
          "name": "F#2",
          "ticks": 16896,
          "time": 35.676123999999994,
          "velocity": 0.8976377952755905
        },
        {
          "duration": 0.2681621536458394,
          "durationTicks": 127,
          "midi": 42,
          "name": "F#2",
          "ticks": 17536,
          "time": 37.02749233333333,
          "velocity": 0.937007874015748
        },
        {
          "duration": 0.8087094869791684,
          "durationTicks": 383,
          "midi": 38,
          "name": "D2",
          "ticks": 17664,
          "time": 37.297765999999996,
          "velocity": 0.937007874015748
        },
        {
          "duration": 0.5384358203125004,
          "durationTicks": 255,
          "midi": 41,
          "name": "F2",
          "ticks": 18048,
          "time": 38.10858699999999,
          "velocity": 0.9921259842519685
        },
        {
          "duration": 0.2681621536458323,
          "durationTicks": 127,
          "midi": 44,
          "name": "G#2",
          "ticks": 18304,
          "time": 38.64913433333333,
          "velocity": 0.8976377952755905
        },
        {
          "duration": 1.2141199869791635,
          "durationTicks": 575,
          "midi": 35,
          "name": "B1",
          "ticks": 18432,
          "time": 38.919408,
          "velocity": 0.937007874015748
        },
        {
          "duration": 0.2681621536458394,
          "durationTicks": 127,
          "midi": 35,
          "name": "B1",
          "ticks": 19072,
          "time": 40.27077633333332,
          "velocity": 0.8976377952755905
        },
        {
          "duration": 1.0789831536458294,
          "durationTicks": 511,
          "midi": 36,
          "name": "C2",
          "ticks": 19200,
          "time": 40.54105,
          "velocity": 0.8503937007874016
        },
        {
          "duration": 0.2681621536458394,
          "durationTicks": 127,
          "midi": 36,
          "name": "C2",
          "ticks": 19840,
          "time": 41.892418333333325,
          "velocity": 0.8976377952755905
        },
        {
          "duration": 1.2141199869791706,
          "durationTicks": 575,
          "midi": 37,
          "name": "C#2",
          "ticks": 19968,
          "time": 42.16269199999999,
          "velocity": 0.937007874015748
        },
        {
          "duration": 0.2681621536458394,
          "durationTicks": 127,
          "midi": 44,
          "name": "G#2",
          "ticks": 20608,
          "time": 43.514060333333326,
          "velocity": 0.8976377952755905
        },
        {
          "duration": 1.3492568203124975,
          "durationTicks": 639,
          "midi": 42,
          "name": "F#2",
          "ticks": 20736,
          "time": 43.784333999999994,
          "velocity": 0.937007874015748
        }
      ]
    },
    {
      "channel": 6,
      "controlChanges": {
        "1": [
          {
            "number": 1,
            "ticks": 3072,
            "time": 6.486567999999999,
            "value": 0.2283464566929134
          },
          {
            "number": 1,
            "ticks": 12704,
            "time": 26.824661416666665,
            "value": 0.06299212598425197
          },
          {
            "number": 1,
            "ticks": 13216,
            "time": 27.90575608333333,
            "value": 0.13385826771653545
          },
          {
            "number": 1,
            "ticks": 13472,
            "time": 28.446303416666666,
            "value": 0.2047244094488189
          },
          {
            "number": 1,
            "ticks": 14080,
            "time": 29.73010333333333,
            "value": 0.2440944881889764
          },
          {
            "number": 1,
            "ticks": 14368,
            "time": 30.33821908333333,
            "value": 0.31496062992125984
          },
          {
            "number": 1,
            "ticks": 14880,
            "time": 31.419313749999997,
            "value": 0.3858267716535433
          },
          {
            "number": 1,
            "ticks": 14976,
            "time": 31.622018999999995,
            "value": 0.5669291338582677
          },
          {
            "number": 1,
            "ticks": 15392,
            "time": 32.500408416666666,
            "value": 0.2283464566929134
          },
          {
            "number": 1,
            "ticks": 15808,
            "time": 33.37879783333333,
            "value": 0.03937007874015748
          },
          {
            "number": 1,
            "ticks": 16160,
            "time": 34.12205041666667,
            "value": 0
          },
          {
            "number": 1,
            "ticks": 19072,
            "time": 40.27077633333332,
            "value": 0.03937007874015748
          },
          {
            "number": 1,
            "ticks": 19456,
            "time": 41.08159733333333,
            "value": 0.08661417322834646
          },
          {
            "number": 1,
            "ticks": 19744,
            "time": 41.689713083333324,
            "value": 0.18110236220472442
          },
          {
            "number": 1,
            "ticks": 20192,
            "time": 42.63567091666666,
            "value": 0.33858267716535434
          },
          {
            "number": 1,
            "ticks": 20640,
            "time": 43.58162874999999,
            "value": 0.48031496062992124
          },
          {
            "number": 1,
            "ticks": 20928,
            "time": 44.189744499999996,
            "value": 0.3858267716535433
          },
          {
            "number": 1,
            "ticks": 21120,
            "time": 44.59515499999999,
            "value": 0.18110236220472442
          },
          {
            "number": 1,
            "ticks": 21312,
            "time": 45.00056549999999,
            "value": 0.06299212598425197
          },
          {
            "number": 1,
            "ticks": 21472,
            "time": 45.33840758333333,
            "value": 0
          }
        ],
        "7": [
          {
            "number": 7,
            "ticks": 516,
            "time": 1.08954071875,
            "value": 0.5118110236220472
          }
        ],
        "10": [
          {
            "number": 10,
            "ticks": 516,
            "time": 1.08954071875,
            "value": 0.6614173228346457
          }
        ],
        "11": [
          {
            "number": 11,
            "ticks": 516,
            "time": 1.08954071875,
            "value": 1
          },
          {
            "number": 11,
            "ticks": 9216,
            "time": 19.459704,
            "value": 0.5433070866141733
          },
          {
            "number": 11,
            "ticks": 13312,
            "time": 28.108461333333327,
            "value": 0.5433070866141733
          },
          {
            "number": 11,
            "ticks": 13344,
            "time": 28.176029749999998,
            "value": 0.5511811023622047
          },
          {
            "number": 11,
            "ticks": 13376,
            "time": 28.243598166666665,
            "value": 0.5669291338582677
          },
          {
            "number": 11,
            "ticks": 13408,
            "time": 28.31116658333333,
            "value": 0.5748031496062992
          },
          {
            "number": 11,
            "ticks": 13440,
            "time": 28.378734999999995,
            "value": 0.5826771653543307
          },
          {
            "number": 11,
            "ticks": 13472,
            "time": 28.446303416666666,
            "value": 0.5905511811023622
          },
          {
            "number": 11,
            "ticks": 13504,
            "time": 28.51387183333333,
            "value": 0.5984251968503937
          },
          {
            "number": 11,
            "ticks": 13536,
            "time": 28.581440249999996,
            "value": 0.6062992125984252
          },
          {
            "number": 11,
            "ticks": 13568,
            "time": 28.649008666666663,
            "value": 0.6141732283464567
          },
          {
            "number": 11,
            "ticks": 13600,
            "time": 28.716577083333327,
            "value": 0.6220472440944882
          },
          {
            "number": 11,
            "ticks": 13632,
            "time": 28.784145499999997,
            "value": 0.6299212598425197
          },
          {
            "number": 11,
            "ticks": 13664,
            "time": 28.851713916666665,
            "value": 0.6377952755905512
          },
          {
            "number": 11,
            "ticks": 13696,
            "time": 28.919282333333328,
            "value": 0.6535433070866141
          },
          {
            "number": 11,
            "ticks": 13728,
            "time": 28.986850749999995,
            "value": 0.6614173228346457
          },
          {
            "number": 11,
            "ticks": 13760,
            "time": 29.054419166666666,
            "value": 0.6692913385826772
          },
          {
            "number": 11,
            "ticks": 13792,
            "time": 29.12198758333333,
            "value": 0.6771653543307087
          },
          {
            "number": 11,
            "ticks": 13824,
            "time": 29.189555999999996,
            "value": 0.6850393700787402
          },
          {
            "number": 11,
            "ticks": 13856,
            "time": 29.257124416666667,
            "value": 0.6929133858267716
          },
          {
            "number": 11,
            "ticks": 13888,
            "time": 29.324692833333327,
            "value": 0.7007874015748031
          },
          {
            "number": 11,
            "ticks": 13920,
            "time": 29.392261249999997,
            "value": 0.7086614173228346
          },
          {
            "number": 11,
            "ticks": 13952,
            "time": 29.459829666666664,
            "value": 0.7165354330708661
          },
          {
            "number": 11,
            "ticks": 13984,
            "time": 29.527398083333328,
            "value": 0.7322834645669292
          },
          {
            "number": 11,
            "ticks": 14016,
            "time": 29.594966499999998,
            "value": 0.7401574803149606
          },
          {
            "number": 11,
            "ticks": 14048,
            "time": 29.662534916666665,
            "value": 0.7480314960629921
          },
          {
            "number": 11,
            "ticks": 14080,
            "time": 29.73010333333333,
            "value": 0.7559055118110236
          },
          {
            "number": 11,
            "ticks": 14112,
            "time": 29.797671749999996,
            "value": 0.7637795275590551
          },
          {
            "number": 11,
            "ticks": 14144,
            "time": 29.865240166666666,
            "value": 0.7716535433070866
          },
          {
            "number": 11,
            "ticks": 14176,
            "time": 29.932808583333326,
            "value": 0.7795275590551181
          },
          {
            "number": 11,
            "ticks": 14208,
            "time": 30.000376999999997,
            "value": 0.7874015748031497
          },
          {
            "number": 11,
            "ticks": 14240,
            "time": 30.067945416666664,
            "value": 0.7952755905511811
          },
          {
            "number": 11,
            "ticks": 14272,
            "time": 30.135513833333327,
            "value": 0.8031496062992126
          },
          {
            "number": 11,
            "ticks": 14304,
            "time": 30.203082249999998,
            "value": 0.8188976377952756
          },
          {
            "number": 11,
            "ticks": 14336,
            "time": 30.270650666666665,
            "value": 0.8267716535433071
          },
          {
            "number": 11,
            "ticks": 14368,
            "time": 30.33821908333333,
            "value": 0.8346456692913385
          },
          {
            "number": 11,
            "ticks": 14400,
            "time": 30.405787499999995,
            "value": 0.84251968503937
          },
          {
            "number": 11,
            "ticks": 14432,
            "time": 30.473355916666666,
            "value": 0.8503937007874016
          },
          {
            "number": 11,
            "ticks": 14464,
            "time": 30.54092433333333,
            "value": 0.8582677165354331
          },
          {
            "number": 11,
            "ticks": 14496,
            "time": 30.608492749999996,
            "value": 0.8661417322834646
          },
          {
            "number": 11,
            "ticks": 14528,
            "time": 30.676061166666663,
            "value": 0.8740157480314961
          },
          {
            "number": 11,
            "ticks": 14560,
            "time": 30.743629583333327,
            "value": 0.8818897637795275
          },
          {
            "number": 11,
            "ticks": 14592,
            "time": 30.811197999999997,
            "value": 0.8976377952755905
          },
          {
            "number": 11,
            "ticks": 14624,
            "time": 30.878766416666664,
            "value": 0.905511811023622
          },
          {
            "number": 11,
            "ticks": 14656,
            "time": 30.946334833333328,
            "value": 0.9133858267716536
          },
          {
            "number": 11,
            "ticks": 14688,
            "time": 31.013903249999995,
            "value": 0.9212598425196851
          },
          {
            "number": 11,
            "ticks": 14720,
            "time": 31.081471666666665,
            "value": 0.9291338582677166
          },
          {
            "number": 11,
            "ticks": 14752,
            "time": 31.14904008333333,
            "value": 0.937007874015748
          },
          {
            "number": 11,
            "ticks": 14784,
            "time": 31.216608499999996,
            "value": 0.9448818897637795
          },
          {
            "number": 11,
            "ticks": 14816,
            "time": 31.284176916666667,
            "value": 0.952755905511811
          },
          {
            "number": 11,
            "ticks": 14848,
            "time": 31.351745333333326,
            "value": 0.9606299212598425
          },
          {
            "number": 11,
            "ticks": 14880,
            "time": 31.419313749999997,
            "value": 0.968503937007874
          },
          {
            "number": 11,
            "ticks": 14912,
            "time": 31.486882166666664,
            "value": 1
          },
          {
            "number": 11,
            "ticks": 15264,
            "time": 32.23013475,
            "value": 0.9606299212598425
          },
          {
            "number": 11,
            "ticks": 15296,
            "time": 32.297703166666665,
            "value": 0.937007874015748
          },
          {
            "number": 11,
            "ticks": 15328,
            "time": 32.365271583333325,
            "value": 0.9133858267716536
          },
          {
            "number": 11,
            "ticks": 15360,
            "time": 32.43284,
            "value": 0.889763779527559
          },
          {
            "number": 11,
            "ticks": 15392,
            "time": 32.500408416666666,
            "value": 0.8661417322834646
          },
          {
            "number": 11,
            "ticks": 15424,
            "time": 32.567976833333326,
            "value": 0.84251968503937
          },
          {
            "number": 11,
            "ticks": 15456,
            "time": 32.63554524999999,
            "value": 0.7952755905511811
          },
          {
            "number": 11,
            "ticks": 15520,
            "time": 32.77068208333333,
            "value": 0.7480314960629921
          },
          {
            "number": 11,
            "ticks": 15584,
            "time": 32.90581891666667,
            "value": 0.7086614173228346
          },
          {
            "number": 11,
            "ticks": 15616,
            "time": 32.97338733333333,
            "value": 0.6850393700787402
          },
          {
            "number": 11,
            "ticks": 15648,
            "time": 33.040955749999995,
            "value": 0.6614173228346457
          },
          {
            "number": 11,
            "ticks": 15680,
            "time": 33.10852416666666,
            "value": 0.6141732283464567
          },
          {
            "number": 11,
            "ticks": 15712,
            "time": 33.17609258333333,
            "value": 0.5905511811023622
          },
          {
            "number": 11,
            "ticks": 19168,
            "time": 40.473481583333324,
            "value": 0.5669291338582677
          },
          {
            "number": 11,
            "ticks": 19200,
            "time": 40.54105,
            "value": 0.5748031496062992
          },
          {
            "number": 11,
            "ticks": 19232,
            "time": 40.608618416666665,
            "value": 0.5826771653543307
          },
          {
            "number": 11,
            "ticks": 19264,
            "time": 40.676186833333325,
            "value": 0.5905511811023622
          },
          {
            "number": 11,
            "ticks": 19296,
            "time": 40.74375524999999,
            "value": 0.5984251968503937
          },
          {
            "number": 11,
            "ticks": 19328,
            "time": 40.81132366666667,
            "value": 0.6141732283464567
          },
          {
            "number": 11,
            "ticks": 19360,
            "time": 40.87889208333333,
            "value": 0.6220472440944882
          },
          {
            "number": 11,
            "ticks": 19392,
            "time": 40.94646049999999,
            "value": 0.6299212598425197
          },
          {
            "number": 11,
            "ticks": 19424,
            "time": 41.01402891666666,
            "value": 0.6377952755905512
          },
          {
            "number": 11,
            "ticks": 19456,
            "time": 41.08159733333333,
            "value": 0.6456692913385826
          },
          {
            "number": 11,
            "ticks": 19488,
            "time": 41.149165749999995,
            "value": 0.6535433070866141
          },
          {
            "number": 11,
            "ticks": 19520,
            "time": 41.21673416666666,
            "value": 0.6614173228346457
          },
          {
            "number": 11,
            "ticks": 19552,
            "time": 41.28430258333333,
            "value": 0.6692913385826772
          },
          {
            "number": 11,
            "ticks": 19584,
            "time": 41.351870999999996,
            "value": 0.6771653543307087
          },
          {
            "number": 11,
            "ticks": 19616,
            "time": 41.41943941666666,
            "value": 0.6850393700787402
          },
          {
            "number": 11,
            "ticks": 19648,
            "time": 41.48700783333333,
            "value": 0.6929133858267716
          },
          {
            "number": 11,
            "ticks": 19680,
            "time": 41.55457625,
            "value": 0.7007874015748031
          },
          {
            "number": 11,
            "ticks": 19712,
            "time": 41.622144666666664,
            "value": 0.7086614173228346
          },
          {
            "number": 11,
            "ticks": 19744,
            "time": 41.689713083333324,
            "value": 0.7165354330708661
          },
          {
            "number": 11,
            "ticks": 19776,
            "time": 41.7572815,
            "value": 0.7322834645669292
          },
          {
            "number": 11,
            "ticks": 19808,
            "time": 41.824849916666665,
            "value": 0.7401574803149606
          },
          {
            "number": 11,
            "ticks": 19840,
            "time": 41.892418333333325,
            "value": 0.7480314960629921
          },
          {
            "number": 11,
            "ticks": 19872,
            "time": 41.95998674999999,
            "value": 0.7559055118110236
          },
          {
            "number": 11,
            "ticks": 19904,
            "time": 42.027555166666666,
            "value": 0.7637795275590551
          },
          {
            "number": 11,
            "ticks": 19936,
            "time": 42.095123583333326,
            "value": 0.7716535433070866
          },
          {
            "number": 11,
            "ticks": 19968,
            "time": 42.16269199999999,
            "value": 0.7795275590551181
          },
          {
            "number": 11,
            "ticks": 20000,
            "time": 42.23026041666667,
            "value": 0.7874015748031497
          },
          {
            "number": 11,
            "ticks": 20032,
            "time": 42.29782883333333,
            "value": 0.7952755905511811
          },
          {
            "number": 11,
            "ticks": 20064,
            "time": 42.365397249999994,
            "value": 0.8031496062992126
          },
          {
            "number": 11,
            "ticks": 20096,
            "time": 42.43296566666666,
            "value": 0.8110236220472441
          },
          {
            "number": 11,
            "ticks": 20128,
            "time": 42.50053408333333,
            "value": 0.8188976377952756
          },
          {
            "number": 11,
            "ticks": 20160,
            "time": 42.568102499999995,
            "value": 0.8267716535433071
          },
          {
            "number": 11,
            "ticks": 20192,
            "time": 42.63567091666666,
            "value": 0.8346456692913385
          },
          {
            "number": 11,
            "ticks": 20224,
            "time": 42.70323933333333,
            "value": 0.84251968503937
          },
          {
            "number": 11,
            "ticks": 20256,
            "time": 42.770807749999996,
            "value": 0.8582677165354331
          },
          {
            "number": 11,
            "ticks": 20288,
            "time": 42.83837616666666,
            "value": 0.8661417322834646
          },
          {
            "number": 11,
            "ticks": 20320,
            "time": 42.90594458333332,
            "value": 0.8740157480314961
          },
          {
            "number": 11,
            "ticks": 20352,
            "time": 42.973513,
            "value": 0.8818897637795275
          },
          {
            "number": 11,
            "ticks": 20384,
            "time": 43.041081416666664,
            "value": 0.889763779527559
          },
          {
            "number": 11,
            "ticks": 20416,
            "time": 43.108649833333324,
            "value": 0.8976377952755905
          },
          {
            "number": 11,
            "ticks": 20448,
            "time": 43.17621825,
            "value": 0.905511811023622
          },
          {
            "number": 11,
            "ticks": 20480,
            "time": 43.243786666666665,
            "value": 0.9133858267716536
          },
          {
            "number": 11,
            "ticks": 20512,
            "time": 43.311355083333325,
            "value": 0.9212598425196851
          },
          {
            "number": 11,
            "ticks": 20544,
            "time": 43.37892349999999,
            "value": 0.9291338582677166
          },
          {
            "number": 11,
            "ticks": 20576,
            "time": 43.446491916666666,
            "value": 0.937007874015748
          },
          {
            "number": 11,
            "ticks": 20608,
            "time": 43.514060333333326,
            "value": 0.9448818897637795
          },
          {
            "number": 11,
            "ticks": 20640,
            "time": 43.58162874999999,
            "value": 0.952755905511811
          },
          {
            "number": 11,
            "ticks": 20672,
            "time": 43.64919716666666,
            "value": 0.9606299212598425
          },
          {
            "number": 11,
            "ticks": 20704,
            "time": 43.71676558333333,
            "value": 0.9763779527559056
          },
          {
            "number": 11,
            "ticks": 20800,
            "time": 43.91947083333333,
            "value": 1
          },
          {
            "number": 11,
            "ticks": 21248,
            "time": 44.865428666666666,
            "value": 0.984251968503937
          },
          {
            "number": 11,
            "ticks": 21312,
            "time": 45.00056549999999,
            "value": 0.9606299212598425
          },
          {
            "number": 11,
            "ticks": 21344,
            "time": 45.06813391666666,
            "value": 0.937007874015748
          },
          {
            "number": 11,
            "ticks": 21408,
            "time": 45.203270749999994,
            "value": 0.9133858267716536
          },
          {
            "number": 11,
            "ticks": 21440,
            "time": 45.27083916666666,
            "value": 0.889763779527559
          },
          {
            "number": 11,
            "ticks": 21472,
            "time": 45.33840758333333,
            "value": 0.8661417322834646
          }
        ],
        "91": [
          {
            "number": 91,
            "ticks": 520,
            "time": 1.0979867708333333,
            "value": 0.5905511811023622
          }
        ],
        "93": [
          {
            "number": 93,
            "ticks": 520,
            "time": 1.0979867708333333,
            "value": 0.5039370078740157
          }
        ]
      },
      "pitchBends": [],
      "instrument": {
        "family": "organ",
        "number": 16,
        "name": "drawbar organ"
      },
      "name": "",
      "notes": [
        {
          "duration": 6.484456486979167,
          "durationTicks": 3071,
          "midi": 71,
          "name": "B4",
          "ticks": 3072,
          "time": 6.486567999999999,
          "velocity": 0.48031496062992124
        },
        {
          "duration": 3.241172486979166,
          "durationTicks": 1535,
          "midi": 66,
          "name": "F#4",
          "ticks": 3072,
          "time": 6.486567999999999,
          "velocity": 0.48031496062992124
        },
        {
          "duration": 3.241172486979166,
          "durationTicks": 1535,
          "midi": 63,
          "name": "D#4",
          "ticks": 3072,
          "time": 6.486567999999999,
          "velocity": 0.48031496062992124
        },
        {
          "duration": 3.241172486979167,
          "durationTicks": 1535,
          "midi": 64,
          "name": "E4",
          "ticks": 4608,
          "time": 9.729852,
          "velocity": 0.5039370078740157
        },
        {
          "duration": 3.241172486979167,
          "durationTicks": 1535,
          "midi": 68,
          "name": "G#4",
          "ticks": 4608,
          "time": 9.729852,
          "velocity": 0.5039370078740157
        },
        {
          "duration": 3.241172486979167,
          "durationTicks": 1535,
          "midi": 61,
          "name": "C#4",
          "ticks": 4608,
          "time": 9.729852,
          "velocity": 0.5039370078740157
        },
        {
          "duration": 1.6195304869791656,
          "durationTicks": 767,
          "midi": 68,
          "name": "G#4",
          "ticks": 6144,
          "time": 12.973135999999998,
          "velocity": 0.84251968503937
        },
        {
          "duration": 1.6195304869791656,
          "durationTicks": 767,
          "midi": 64,
          "name": "E4",
          "ticks": 6144,
          "time": 12.973135999999998,
          "velocity": 0.889763779527559
        },
        {
          "duration": 1.6195304869791656,
          "durationTicks": 767,
          "midi": 59,
          "name": "B3",
          "ticks": 6144,
          "time": 12.973135999999998,
          "velocity": 0.889763779527559
        },
        {
          "duration": 1.6195304869791656,
          "durationTicks": 767,
          "midi": 63,
          "name": "D#4",
          "ticks": 6912,
          "time": 14.594777999999998,
          "velocity": 0.84251968503937
        },
        {
          "duration": 1.6195304869791656,
          "durationTicks": 767,
          "midi": 66,
          "name": "F#4",
          "ticks": 6912,
          "time": 14.594777999999998,
          "velocity": 0.8582677165354331
        },
        {
          "duration": 1.6195304869791656,
          "durationTicks": 767,
          "midi": 58,
          "name": "A#3",
          "ticks": 6912,
          "time": 14.594777999999998,
          "velocity": 0.84251968503937
        },
        {
          "duration": 3.2411724869791634,
          "durationTicks": 1535,
          "midi": 61,
          "name": "C#4",
          "ticks": 7680,
          "time": 16.21642,
          "velocity": 0.7637795275590551
        },
        {
          "duration": 1.6195304869791656,
          "durationTicks": 767,
          "midi": 56,
          "name": "G#3",
          "ticks": 7680,
          "time": 16.21642,
          "velocity": 0.8188976377952756
        },
        {
          "duration": 1.6195304869791656,
          "durationTicks": 767,
          "midi": 64,
          "name": "E4",
          "ticks": 7680,
          "time": 16.21642,
          "velocity": 0.889763779527559
        },
        {
          "duration": 1.6195304869791656,
          "durationTicks": 767,
          "midi": 58,
          "name": "A#3",
          "ticks": 8448,
          "time": 17.838061999999997,
          "velocity": 0.8188976377952756
        },
        {
          "duration": 0.8087094869791649,
          "durationTicks": 383,
          "midi": 66,
          "name": "F#4",
          "ticks": 8448,
          "time": 17.838061999999997,
          "velocity": 0.8582677165354331
        },
        {
          "duration": 0.8087094869791649,
          "durationTicks": 383,
          "midi": 64,
          "name": "E4",
          "ticks": 8832,
          "time": 18.648882999999998,
          "velocity": 0.8031496062992126
        },
        {
          "duration": 6.4844564869791625,
          "durationTicks": 3071,
          "midi": 63,
          "name": "D#4",
          "ticks": 9216,
          "time": 19.459704,
          "velocity": 0.7480314960629921
        },
        {
          "duration": 3.2411724869791634,
          "durationTicks": 1535,
          "midi": 71,
          "name": "B4",
          "ticks": 9216,
          "time": 19.459704,
          "velocity": 0.6850393700787402
        },
        {
          "duration": 3.2411724869791634,
          "durationTicks": 1535,
          "midi": 66,
          "name": "F#4",
          "ticks": 9216,
          "time": 19.459704,
          "velocity": 0.7795275590551181
        },
        {
          "duration": 9.727740486979165,
          "durationTicks": 4607,
          "midi": 68,
          "name": "G#4",
          "ticks": 10752,
          "time": 22.702987999999998,
          "velocity": 0.7244094488188977
        },
        {
          "duration": 3.2411724869791634,
          "durationTicks": 1535,
          "midi": 60,
          "name": "C4",
          "ticks": 10752,
          "time": 22.702987999999998,
          "velocity": 0.7244094488188977
        },
        {
          "duration": 6.484456486979166,
          "durationTicks": 3071,
          "midi": 61,
          "name": "C#4",
          "ticks": 12288,
          "time": 25.946271999999997,
          "velocity": 0.7480314960629921
        },
        {
          "duration": 6.484456486979166,
          "durationTicks": 3071,
          "midi": 64,
          "name": "E4",
          "ticks": 12288,
          "time": 25.946271999999997,
          "velocity": 0.7086614173228346
        },
        {
          "duration": 4.862814486979168,
          "durationTicks": 2303,
          "midi": 70,
          "name": "A#4",
          "ticks": 15360,
          "time": 32.43284,
          "velocity": 0.7086614173228346
        },
        {
          "duration": 4.862814486979168,
          "durationTicks": 2303,
          "midi": 66,
          "name": "F#4",
          "ticks": 15360,
          "time": 32.43284,
          "velocity": 0.7480314960629921
        },
        {
          "duration": 4.862814486979168,
          "durationTicks": 2303,
          "midi": 61,
          "name": "C#4",
          "ticks": 15360,
          "time": 32.43284,
          "velocity": 0.6850393700787402
        },
        {
          "duration": 1.6195304869791656,
          "durationTicks": 767,
          "midi": 65,
          "name": "F4",
          "ticks": 17664,
          "time": 37.297765999999996,
          "velocity": 0.7244094488188977
        },
        {
          "duration": 1.6195304869791656,
          "durationTicks": 767,
          "midi": 68,
          "name": "G#4",
          "ticks": 17664,
          "time": 37.297765999999996,
          "velocity": 0.7086614173228346
        },
        {
          "duration": 1.6195304869791656,
          "durationTicks": 767,
          "midi": 62,
          "name": "D4",
          "ticks": 17664,
          "time": 37.297765999999996,
          "velocity": 0.7086614173228346
        },
        {
          "duration": 3.241172486979167,
          "durationTicks": 1535,
          "midi": 63,
          "name": "D#4",
          "ticks": 18432,
          "time": 38.919408,
          "velocity": 0.6692913385826772
        },
        {
          "duration": 1.6195304869791656,
          "durationTicks": 767,
          "midi": 59,
          "name": "B3",
          "ticks": 18432,
          "time": 38.919408,
          "velocity": 0.7086614173228346
        },
        {
          "duration": 3.241172486979167,
          "durationTicks": 1535,
          "midi": 66,
          "name": "F#4",
          "ticks": 18432,
          "time": 38.919408,
          "velocity": 0.7086614173228346
        },
        {
          "duration": 1.6195304869791656,
          "durationTicks": 767,
          "midi": 60,
          "name": "C4",
          "ticks": 19200,
          "time": 40.54105,
          "velocity": 0.7637795275590551
        },
        {
          "duration": 1.6195304869791727,
          "durationTicks": 767,
          "midi": 64,
          "name": "E4",
          "ticks": 19968,
          "time": 42.16269199999999,
          "velocity": 0.6850393700787402
        },
        {
          "duration": 1.6195304869791727,
          "durationTicks": 767,
          "midi": 68,
          "name": "G#4",
          "ticks": 19968,
          "time": 42.16269199999999,
          "velocity": 0.7480314960629921
        },
        {
          "duration": 3.241172486979167,
          "durationTicks": 1535,
          "midi": 61,
          "name": "C#4",
          "ticks": 19968,
          "time": 42.16269199999999,
          "velocity": 0.7086614173228346
        },
        {
          "duration": 0.06545690364583123,
          "durationTicks": 31,
          "midi": 76,
          "name": "E5",
          "ticks": 20672,
          "time": 43.64919716666666,
          "velocity": 0.6220472440944882
        },
        {
          "duration": 0.06545690364583834,
          "durationTicks": 31,
          "midi": 77,
          "name": "F5",
          "ticks": 20704,
          "time": 43.71676558333333,
          "velocity": 0.889763779527559
        },
        {
          "duration": 1.6195304869791656,
          "durationTicks": 767,
          "midi": 78,
          "name": "F#5",
          "ticks": 20736,
          "time": 43.784333999999994,
          "velocity": 0.5039370078740157
        },
        {
          "duration": 1.6195304869791656,
          "durationTicks": 767,
          "midi": 58,
          "name": "A#3",
          "ticks": 20736,
          "time": 43.784333999999994,
          "velocity": 0.7086614173228346
        },
        {
          "duration": 1.6195304869791656,
          "durationTicks": 767,
          "midi": 66,
          "name": "F#4",
          "ticks": 20736,
          "time": 43.784333999999994,
          "velocity": 0.7480314960629921
        }
      ]
    },
    {
      "channel": 7,
      "controlChanges": {
        "7": [
          {
            "number": 7,
            "ticks": 536,
            "time": 1.1317709791666666,
            "value": 0.8661417322834646
          }
        ],
        "10": [
          {
            "number": 10,
            "ticks": 536,
            "time": 1.1317709791666666,
            "value": 0.11023622047244094
          }
        ],
        "11": [
          {
            "number": 11,
            "ticks": 536,
            "time": 1.1317709791666666,
            "value": 1
          }
        ],
        "91": [
          {
            "number": 91,
            "ticks": 540,
            "time": 1.14021703125,
            "value": 0.7874015748031497
          }
        ],
        "93": [
          {
            "number": 93,
            "ticks": 540,
            "time": 1.14021703125,
            "value": 0.23622047244094488
          }
        ]
      },
      "pitchBends": [
        {
          "ticks": 8192,
          "time": 17.297514666666665,
          "value": -0.0625
        },
        {
          "ticks": 8196,
          "time": 17.305960718749997,
          "value": -0.125
        },
        {
          "ticks": 8200,
          "time": 17.314406770833333,
          "value": -0.25
        },
        {
          "ticks": 8204,
          "time": 17.322852822916662,
          "value": -0.375
        },
        {
          "ticks": 8208,
          "time": 17.331298874999998,
          "value": -0.421875
        },
        {
          "ticks": 8212,
          "time": 17.33974492708333,
          "value": -0.5
        },
        {
          "ticks": 8216,
          "time": 17.348190979166663,
          "value": -0.53125
        },
        {
          "ticks": 8220,
          "time": 17.35663703125,
          "value": -0.59375
        },
        {
          "ticks": 8224,
          "time": 17.36508308333333,
          "value": -0.625
        },
        {
          "ticks": 8236,
          "time": 17.390421239583333,
          "value": -0.609375
        },
        {
          "ticks": 8240,
          "time": 17.398867291666665,
          "value": -0.5625
        },
        {
          "ticks": 8244,
          "time": 17.407313343749998,
          "value": -0.484375
        },
        {
          "ticks": 8248,
          "time": 17.415759395833334,
          "value": -0.4375
        },
        {
          "ticks": 8252,
          "time": 17.424205447916663,
          "value": -0.3125
        },
        {
          "ticks": 8256,
          "time": 17.4326515,
          "value": -0.25
        },
        {
          "ticks": 8260,
          "time": 17.44109755208333,
          "value": -0.15625
        },
        {
          "ticks": 8264,
          "time": 17.449543604166664,
          "value": -0.09375
        },
        {
          "ticks": 8268,
          "time": 17.45798965625,
          "value": -0.0625
        },
        {
          "ticks": 8276,
          "time": 17.474881760416665,
          "value": -0.046875
        },
        {
          "ticks": 8288,
          "time": 17.500219916666662,
          "value": -0.0625
        },
        {
          "ticks": 8292,
          "time": 17.508665968749998,
          "value": -0.125
        },
        {
          "ticks": 8296,
          "time": 17.51711202083333,
          "value": -0.203125
        },
        {
          "ticks": 8300,
          "time": 17.525558072916663,
          "value": -0.234375
        },
        {
          "ticks": 8304,
          "time": 17.534004125,
          "value": -0.3125
        },
        {
          "ticks": 8308,
          "time": 17.54245017708333,
          "value": -0.375
        },
        {
          "ticks": 8312,
          "time": 17.550896229166664,
          "value": -0.453125
        },
        {
          "ticks": 8316,
          "time": 17.559342281249997,
          "value": -0.484375
        },
        {
          "ticks": 8320,
          "time": 17.567788333333333,
          "value": -0.53125
        },
        {
          "ticks": 8324,
          "time": 17.576234385416665,
          "value": -0.5625
        },
        {
          "ticks": 8328,
          "time": 17.584680437499998,
          "value": -0.578125
        },
        {
          "ticks": 8332,
          "time": 17.593126489583334,
          "value": -0.59375
        },
        {
          "ticks": 8340,
          "time": 17.61001859375,
          "value": -0.578125
        },
        {
          "ticks": 8344,
          "time": 17.61846464583333,
          "value": -0.515625
        },
        {
          "ticks": 8348,
          "time": 17.626910697916664,
          "value": -0.484375
        },
        {
          "ticks": 8352,
          "time": 17.635356749999996,
          "value": -0.25
        },
        {
          "ticks": 8356,
          "time": 17.643802802083332,
          "value": -0.03125
        },
        {
          "ticks": 8360,
          "time": 17.652248854166665,
          "value": 0
        },
        {
          "ticks": 20588,
          "time": 43.47183007291666,
          "value": -0.03125
        },
        {
          "ticks": 20596,
          "time": 43.488722177083325,
          "value": -0.109375
        },
        {
          "ticks": 20600,
          "time": 43.49716822916666,
          "value": -0.21875
        },
        {
          "ticks": 20604,
          "time": 43.50561428125,
          "value": -0.40625
        },
        {
          "ticks": 20608,
          "time": 43.514060333333326,
          "value": -0.5
        },
        {
          "ticks": 20612,
          "time": 43.52250638541666,
          "value": -0.5625
        },
        {
          "ticks": 20616,
          "time": 43.5309524375,
          "value": -0.578125
        },
        {
          "ticks": 20620,
          "time": 43.53939848958333,
          "value": -0.609375
        },
        {
          "ticks": 20624,
          "time": 43.54784454166666,
          "value": -0.640625
        },
        {
          "ticks": 20636,
          "time": 43.573182697916664,
          "value": -0.625
        },
        {
          "ticks": 20640,
          "time": 43.58162874999999,
          "value": -0.5625
        },
        {
          "ticks": 20644,
          "time": 43.59007480208333,
          "value": -0.53125
        },
        {
          "ticks": 20648,
          "time": 43.598520854166665,
          "value": -0.4375
        },
        {
          "ticks": 20652,
          "time": 43.606966906249994,
          "value": -0.375
        },
        {
          "ticks": 20656,
          "time": 43.61541295833332,
          "value": -0.265625
        },
        {
          "ticks": 20660,
          "time": 43.623859010416666,
          "value": -0.21875
        },
        {
          "ticks": 20664,
          "time": 43.632305062499995,
          "value": -0.140625
        },
        {
          "ticks": 20668,
          "time": 43.640751114583324,
          "value": -0.125
        },
        {
          "ticks": 20672,
          "time": 43.64919716666666,
          "value": -0.09375
        },
        {
          "ticks": 20676,
          "time": 43.657643218749996,
          "value": -0.0625
        },
        {
          "ticks": 20684,
          "time": 43.67453532291666,
          "value": -0.03125
        },
        {
          "ticks": 20688,
          "time": 43.682981375,
          "value": 0
        }
      ],
      "instrument": {
        "family": "ensemble",
        "number": 53,
        "name": "voice oohs"
      },
      "name": "",
      "notes": [
        {
          "duration": 1.6195304869791656,
          "durationTicks": 767,
          "midi": 52,
          "name": "E3",
          "ticks": 6144,
          "time": 12.973135999999998,
          "velocity": 1
        },
        {
          "duration": 1.6195304869791656,
          "durationTicks": 767,
          "midi": 51,
          "name": "D#3",
          "ticks": 6912,
          "time": 14.594777999999998,
          "velocity": 0.937007874015748
        },
        {
          "duration": 1.078983153645833,
          "durationTicks": 511,
          "midi": 49,
          "name": "C#3",
          "ticks": 7680,
          "time": 16.21642,
          "velocity": 0.937007874015748
        },
        {
          "duration": 0.5384358203125004,
          "durationTicks": 255,
          "midi": 49,
          "name": "C#3",
          "ticks": 8192,
          "time": 17.297514666666665,
          "velocity": 0.9133858267716536
        },
        {
          "duration": 1.6195304869791656,
          "durationTicks": 767,
          "midi": 42,
          "name": "F#2",
          "ticks": 8448,
          "time": 17.838061999999997,
          "velocity": 0.7716535433070866
        },
        {
          "duration": 0.8087094869791684,
          "durationTicks": 383,
          "midi": 47,
          "name": "B2",
          "ticks": 9984,
          "time": 21.081345999999996,
          "velocity": 0.84251968503937
        },
        {
          "duration": 0.8087094869791649,
          "durationTicks": 383,
          "midi": 45,
          "name": "A2",
          "ticks": 10368,
          "time": 21.892166999999997,
          "velocity": 1
        },
        {
          "duration": 3.2411724869791634,
          "durationTicks": 1535,
          "midi": 44,
          "name": "G#2",
          "ticks": 10752,
          "time": 22.702987999999998,
          "velocity": 0.9133858267716536
        },
        {
          "duration": 0.8087094869791684,
          "durationTicks": 383,
          "midi": 49,
          "name": "C#3",
          "ticks": 13440,
          "time": 28.378734999999995,
          "velocity": 0.889763779527559
        },
        {
          "duration": 1.6195304869791691,
          "durationTicks": 767,
          "midi": 52,
          "name": "E3",
          "ticks": 13824,
          "time": 29.189555999999996,
          "velocity": 0.937007874015748
        },
        {
          "duration": 1.6195304869791656,
          "durationTicks": 767,
          "midi": 49,
          "name": "C#3",
          "ticks": 14592,
          "time": 30.811197999999997,
          "velocity": 0.937007874015748
        },
        {
          "duration": 3.241172486979167,
          "durationTicks": 1535,
          "midi": 42,
          "name": "F#2",
          "ticks": 15360,
          "time": 32.43284,
          "velocity": 0.889763779527559
        },
        {
          "duration": 1.0789831536458294,
          "durationTicks": 511,
          "midi": 47,
          "name": "B2",
          "ticks": 18432,
          "time": 38.919408,
          "velocity": 1
        },
        {
          "duration": 0.2681621536458394,
          "durationTicks": 127,
          "midi": 47,
          "name": "B2",
          "ticks": 19072,
          "time": 40.27077633333332,
          "velocity": 0.84251968503937
        },
        {
          "duration": 1.0789831536458294,
          "durationTicks": 511,
          "midi": 48,
          "name": "C3",
          "ticks": 19200,
          "time": 40.54105,
          "velocity": 1
        },
        {
          "duration": 0.2681621536458394,
          "durationTicks": 127,
          "midi": 48,
          "name": "C3",
          "ticks": 19840,
          "time": 41.892418333333325,
          "velocity": 0.8661417322834646
        },
        {
          "duration": 1.0789831536458365,
          "durationTicks": 511,
          "midi": 49,
          "name": "C#3",
          "ticks": 19968,
          "time": 42.16269199999999,
          "velocity": 1
        },
        {
          "duration": 0.5384358203125004,
          "durationTicks": 255,
          "midi": 49,
          "name": "C#3",
          "ticks": 20480,
          "time": 43.243786666666665,
          "velocity": 0.937007874015748
        },
        {
          "duration": 1.4843936536458315,
          "durationTicks": 703,
          "midi": 42,
          "name": "F#2",
          "ticks": 20736,
          "time": 43.784333999999994,
          "velocity": 0.9606299212598425
        }
      ]
    },
    {
      "channel": 8,
      "controlChanges": {
        "1": [
          {
            "number": 1,
            "ticks": 6624,
            "time": 13.986662249999998,
            "value": 0.6850393700787402
          },
          {
            "number": 1,
            "ticks": 6848,
            "time": 14.459641166666664,
            "value": 0.29133858267716534
          },
          {
            "number": 1,
            "ticks": 6880,
            "time": 14.527209583333333,
            "value": 0
          },
          {
            "number": 1,
            "ticks": 7392,
            "time": 15.608304249999998,
            "value": 0.6377952755905512
          },
          {
            "number": 1,
            "ticks": 7584,
            "time": 16.01371475,
            "value": 0
          },
          {
            "number": 1,
            "ticks": 8160,
            "time": 17.229946249999998,
            "value": 0.6141732283464567
          },
          {
            "number": 1,
            "ticks": 8384,
            "time": 17.702925166666663,
            "value": 0
          },
          {
            "number": 1,
            "ticks": 8960,
            "time": 18.919156666666662,
            "value": 0.6614173228346457
          },
          {
            "number": 1,
            "ticks": 9184,
            "time": 19.39213558333333,
            "value": 0
          },
          {
            "number": 1,
            "ticks": 10176,
            "time": 21.4867565,
            "value": 0.13385826771653545
          },
          {
            "number": 1,
            "ticks": 10336,
            "time": 21.82459858333333,
            "value": 0
          },
          {
            "number": 1,
            "ticks": 10560,
            "time": 22.297577499999996,
            "value": 0.2283464566929134
          },
          {
            "number": 1,
            "ticks": 10592,
            "time": 22.365145916666663,
            "value": 0.2440944881889764
          },
          {
            "number": 1,
            "ticks": 10720,
            "time": 22.63541958333333,
            "value": 0
          },
          {
            "number": 1,
            "ticks": 11232,
            "time": 23.716514249999996,
            "value": 0.13385826771653545
          },
          {
            "number": 1,
            "ticks": 11520,
            "time": 24.324629999999996,
            "value": 0.36220472440944884
          },
          {
            "number": 1,
            "ticks": 12000,
            "time": 25.338156249999997,
            "value": 0.5905511811023622
          },
          {
            "number": 1,
            "ticks": 12224,
            "time": 25.811135166666663,
            "value": 0.5669291338582677
          },
          {
            "number": 1,
            "ticks": 12256,
            "time": 25.87870358333333,
            "value": 0
          },
          {
            "number": 1,
            "ticks": 14272,
            "time": 30.135513833333327,
            "value": 0.5039370078740157
          },
          {
            "number": 1,
            "ticks": 14496,
            "time": 30.608492749999996,
            "value": 0.48031496062992124
          },
          {
            "number": 1,
            "ticks": 14528,
            "time": 30.676061166666663,
            "value": 0
          },
          {
            "number": 1,
            "ticks": 15104,
            "time": 31.892292666666666,
            "value": 0.5669291338582677
          },
          {
            "number": 1,
            "ticks": 15328,
            "time": 32.365271583333325,
            "value": 0
          },
          {
            "number": 1,
            "ticks": 16224,
            "time": 34.257187249999994,
            "value": 0.2440944881889764
          },
          {
            "number": 1,
            "ticks": 16512,
            "time": 34.865303,
            "value": 0.5433070866141733
          },
          {
            "number": 1,
            "ticks": 16800,
            "time": 35.47341874999999,
            "value": 0
          }
        ],
        "7": [
          {
            "number": 7,
            "ticks": 556,
            "time": 1.1740012395833332,
            "value": 0.6299212598425197
          }
        ],
        "10": [
          {
            "number": 10,
            "ticks": 556,
            "time": 1.1740012395833332,
            "value": 0.8976377952755905
          }
        ],
        "11": [
          {
            "number": 11,
            "ticks": 556,
            "time": 1.1740012395833332,
            "value": 0.5433070866141733
          },
          {
            "number": 11,
            "ticks": 6208,
            "time": 13.108272833333332,
            "value": 0.6614173228346457
          },
          {
            "number": 11,
            "ticks": 6272,
            "time": 13.243409666666665,
            "value": 0.7716535433070866
          },
          {
            "number": 11,
            "ticks": 6336,
            "time": 13.378546499999999,
            "value": 0.8661417322834646
          },
          {
            "number": 11,
            "ticks": 6400,
            "time": 13.513683333333333,
            "value": 0.984251968503937
          },
          {
            "number": 11,
            "ticks": 6464,
            "time": 13.648820166666663,
            "value": 1
          },
          {
            "number": 11,
            "ticks": 6912,
            "time": 14.594777999999998,
            "value": 0.5905511811023622
          },
          {
            "number": 11,
            "ticks": 6976,
            "time": 14.729914833333332,
            "value": 0.6850393700787402
          },
          {
            "number": 11,
            "ticks": 7040,
            "time": 14.865051666666664,
            "value": 0.7716535433070866
          },
          {
            "number": 11,
            "ticks": 7104,
            "time": 15.000188499999998,
            "value": 0.84251968503937
          },
          {
            "number": 11,
            "ticks": 7168,
            "time": 15.135325333333332,
            "value": 0.9133858267716536
          },
          {
            "number": 11,
            "ticks": 7232,
            "time": 15.270462166666665,
            "value": 0.984251968503937
          },
          {
            "number": 11,
            "ticks": 7296,
            "time": 15.405598999999999,
            "value": 1
          },
          {
            "number": 11,
            "ticks": 7680,
            "time": 16.21642,
            "value": 0.5039370078740157
          },
          {
            "number": 11,
            "ticks": 7744,
            "time": 16.351556833333333,
            "value": 0.5433070866141733
          },
          {
            "number": 11,
            "ticks": 7808,
            "time": 16.486693666666664,
            "value": 0.6850393700787402
          },
          {
            "number": 11,
            "ticks": 7872,
            "time": 16.621830499999998,
            "value": 0.7716535433070866
          },
          {
            "number": 11,
            "ticks": 7936,
            "time": 16.756967333333332,
            "value": 0.84251968503937
          },
          {
            "number": 11,
            "ticks": 8000,
            "time": 16.892104166666662,
            "value": 0.9133858267716536
          },
          {
            "number": 11,
            "ticks": 8064,
            "time": 17.027240999999997,
            "value": 0.984251968503937
          },
          {
            "number": 11,
            "ticks": 8128,
            "time": 17.16237783333333,
            "value": 1
          },
          {
            "number": 11,
            "ticks": 8448,
            "time": 17.838061999999997,
            "value": 0.5039370078740157
          },
          {
            "number": 11,
            "ticks": 8512,
            "time": 17.97319883333333,
            "value": 0.5196850393700787
          },
          {
            "number": 11,
            "ticks": 8576,
            "time": 18.108335666666665,
            "value": 0.6850393700787402
          },
          {
            "number": 11,
            "ticks": 8640,
            "time": 18.2434725,
            "value": 0.7716535433070866
          },
          {
            "number": 11,
            "ticks": 8704,
            "time": 18.378609333333333,
            "value": 0.8661417322834646
          },
          {
            "number": 11,
            "ticks": 8768,
            "time": 18.513746166666664,
            "value": 0.9606299212598425
          },
          {
            "number": 11,
            "ticks": 8832,
            "time": 18.648882999999998,
            "value": 1
          },
          {
            "number": 11,
            "ticks": 9984,
            "time": 21.081345999999996,
            "value": 0.6141732283464567
          },
          {
            "number": 11,
            "ticks": 10016,
            "time": 21.148914416666663,
            "value": 0.7322834645669292
          },
          {
            "number": 11,
            "ticks": 10048,
            "time": 21.21648283333333,
            "value": 0.8188976377952756
          },
          {
            "number": 11,
            "ticks": 10080,
            "time": 21.284051249999997,
            "value": 0.889763779527559
          },
          {
            "number": 11,
            "ticks": 10112,
            "time": 21.351619666666664,
            "value": 0.9606299212598425
          },
          {
            "number": 11,
            "ticks": 10144,
            "time": 21.41918808333333,
            "value": 1
          },
          {
            "number": 11,
            "ticks": 10368,
            "time": 21.892166999999997,
            "value": 0.5905511811023622
          },
          {
            "number": 11,
            "ticks": 10400,
            "time": 21.959735416666664,
            "value": 0.6141732283464567
          },
          {
            "number": 11,
            "ticks": 10432,
            "time": 22.02730383333333,
            "value": 0.7322834645669292
          },
          {
            "number": 11,
            "ticks": 10464,
            "time": 22.094872249999998,
            "value": 0.7716535433070866
          },
          {
            "number": 11,
            "ticks": 10496,
            "time": 22.16244066666666,
            "value": 0.8661417322834646
          },
          {
            "number": 11,
            "ticks": 10528,
            "time": 22.230009083333332,
            "value": 0.937007874015748
          },
          {
            "number": 11,
            "ticks": 10560,
            "time": 22.297577499999996,
            "value": 1
          },
          {
            "number": 11,
            "ticks": 10752,
            "time": 22.702987999999998,
            "value": 0.6614173228346457
          },
          {
            "number": 11,
            "ticks": 10784,
            "time": 22.770556416666665,
            "value": 0.6850393700787402
          },
          {
            "number": 11,
            "ticks": 10816,
            "time": 22.83812483333333,
            "value": 0.7322834645669292
          },
          {
            "number": 11,
            "ticks": 10848,
            "time": 22.90569325,
            "value": 0.7952755905511811
          },
          {
            "number": 11,
            "ticks": 10880,
            "time": 22.973261666666662,
            "value": 0.84251968503937
          },
          {
            "number": 11,
            "ticks": 10944,
            "time": 23.108398499999996,
            "value": 0.889763779527559
          },
          {
            "number": 11,
            "ticks": 10976,
            "time": 23.175966916666663,
            "value": 0.937007874015748
          },
          {
            "number": 11,
            "ticks": 11008,
            "time": 23.24353533333333,
            "value": 0.9606299212598425
          },
          {
            "number": 11,
            "ticks": 11040,
            "time": 23.311103749999997,
            "value": 1
          },
          {
            "number": 11,
            "ticks": 13440,
            "time": 28.378734999999995,
            "value": 0.6377952755905512
          },
          {
            "number": 11,
            "ticks": 13472,
            "time": 28.446303416666666,
            "value": 0.7716535433070866
          },
          {
            "number": 11,
            "ticks": 13504,
            "time": 28.51387183333333,
            "value": 0.8661417322834646
          },
          {
            "number": 11,
            "ticks": 13536,
            "time": 28.581440249999996,
            "value": 0.9133858267716536
          },
          {
            "number": 11,
            "ticks": 13568,
            "time": 28.649008666666663,
            "value": 0.9606299212598425
          },
          {
            "number": 11,
            "ticks": 13600,
            "time": 28.716577083333327,
            "value": 0.984251968503937
          },
          {
            "number": 11,
            "ticks": 13632,
            "time": 28.784145499999997,
            "value": 1
          },
          {
            "number": 11,
            "ticks": 13824,
            "time": 29.189555999999996,
            "value": 0.6850393700787402
          },
          {
            "number": 11,
            "ticks": 13856,
            "time": 29.257124416666667,
            "value": 0.7322834645669292
          },
          {
            "number": 11,
            "ticks": 13888,
            "time": 29.324692833333327,
            "value": 0.7716535433070866
          },
          {
            "number": 11,
            "ticks": 13920,
            "time": 29.392261249999997,
            "value": 0.84251968503937
          },
          {
            "number": 11,
            "ticks": 13952,
            "time": 29.459829666666664,
            "value": 0.889763779527559
          },
          {
            "number": 11,
            "ticks": 13984,
            "time": 29.527398083333328,
            "value": 0.937007874015748
          },
          {
            "number": 11,
            "ticks": 14016,
            "time": 29.594966499999998,
            "value": 0.984251968503937
          },
          {
            "number": 11,
            "ticks": 14048,
            "time": 29.662534916666665,
            "value": 1
          },
          {
            "number": 11,
            "ticks": 14592,
            "time": 30.811197999999997,
            "value": 0.7322834645669292
          },
          {
            "number": 11,
            "ticks": 14624,
            "time": 30.878766416666664,
            "value": 0.7480314960629921
          },
          {
            "number": 11,
            "ticks": 14656,
            "time": 30.946334833333328,
            "value": 0.7952755905511811
          },
          {
            "number": 11,
            "ticks": 14688,
            "time": 31.013903249999995,
            "value": 0.84251968503937
          },
          {
            "number": 11,
            "ticks": 14720,
            "time": 31.081471666666665,
            "value": 0.8661417322834646
          },
          {
            "number": 11,
            "ticks": 14752,
            "time": 31.14904008333333,
            "value": 0.889763779527559
          },
          {
            "number": 11,
            "ticks": 14784,
            "time": 31.216608499999996,
            "value": 0.9133858267716536
          },
          {
            "number": 11,
            "ticks": 14848,
            "time": 31.351745333333326,
            "value": 0.937007874015748
          },
          {
            "number": 11,
            "ticks": 14880,
            "time": 31.419313749999997,
            "value": 0.9606299212598425
          },
          {
            "number": 11,
            "ticks": 14912,
            "time": 31.486882166666664,
            "value": 1
          },
          {
            "number": 11,
            "ticks": 15360,
            "time": 32.43284,
            "value": 0.6850393700787402
          },
          {
            "number": 11,
            "ticks": 15392,
            "time": 32.500408416666666,
            "value": 0.7086614173228346
          },
          {
            "number": 11,
            "ticks": 15424,
            "time": 32.567976833333326,
            "value": 0.7480314960629921
          },
          {
            "number": 11,
            "ticks": 15456,
            "time": 32.63554524999999,
            "value": 0.7952755905511811
          },
          {
            "number": 11,
            "ticks": 15488,
            "time": 32.70311366666667,
            "value": 0.8188976377952756
          },
          {
            "number": 11,
            "ticks": 15552,
            "time": 32.838250499999994,
            "value": 0.889763779527559
          },
          {
            "number": 11,
            "ticks": 15584,
            "time": 32.90581891666667,
            "value": 0.9133858267716536
          },
          {
            "number": 11,
            "ticks": 15648,
            "time": 33.040955749999995,
            "value": 0.9606299212598425
          },
          {
            "number": 11,
            "ticks": 15680,
            "time": 33.10852416666666,
            "value": 0.984251968503937
          },
          {
            "number": 11,
            "ticks": 15712,
            "time": 33.17609258333333,
            "value": 1
          },
          {
            "number": 11,
            "ticks": 18432,
            "time": 38.919408,
            "value": 0.5196850393700787
          },
          {
            "number": 11,
            "ticks": 18464,
            "time": 38.986976416666664,
            "value": 0.6141732283464567
          },
          {
            "number": 11,
            "ticks": 18496,
            "time": 39.054544833333324,
            "value": 0.7086614173228346
          },
          {
            "number": 11,
            "ticks": 18528,
            "time": 39.12211325,
            "value": 0.7716535433070866
          },
          {
            "number": 11,
            "ticks": 18560,
            "time": 39.189681666666665,
            "value": 0.84251968503937
          },
          {
            "number": 11,
            "ticks": 18592,
            "time": 39.257250083333325,
            "value": 0.889763779527559
          },
          {
            "number": 11,
            "ticks": 18624,
            "time": 39.32481849999999,
            "value": 0.9606299212598425
          },
          {
            "number": 11,
            "ticks": 18656,
            "time": 39.392386916666666,
            "value": 0.984251968503937
          },
          {
            "number": 11,
            "ticks": 18688,
            "time": 39.459955333333326,
            "value": 1
          },
          {
            "number": 11,
            "ticks": 19200,
            "time": 40.54105,
            "value": 0.4566929133858268
          },
          {
            "number": 11,
            "ticks": 19232,
            "time": 40.608618416666665,
            "value": 0.5433070866141733
          },
          {
            "number": 11,
            "ticks": 19264,
            "time": 40.676186833333325,
            "value": 0.6614173228346457
          },
          {
            "number": 11,
            "ticks": 19296,
            "time": 40.74375524999999,
            "value": 0.6850393700787402
          },
          {
            "number": 11,
            "ticks": 19328,
            "time": 40.81132366666667,
            "value": 0.7952755905511811
          },
          {
            "number": 11,
            "ticks": 19360,
            "time": 40.87889208333333,
            "value": 0.84251968503937
          },
          {
            "number": 11,
            "ticks": 19392,
            "time": 40.94646049999999,
            "value": 0.9133858267716536
          },
          {
            "number": 11,
            "ticks": 19424,
            "time": 41.01402891666666,
            "value": 0.937007874015748
          },
          {
            "number": 11,
            "ticks": 19456,
            "time": 41.08159733333333,
            "value": 0.984251968503937
          },
          {
            "number": 11,
            "ticks": 19488,
            "time": 41.149165749999995,
            "value": 1
          },
          {
            "number": 11,
            "ticks": 19968,
            "time": 42.16269199999999,
            "value": 0.4566929133858268
          },
          {
            "number": 11,
            "ticks": 20000,
            "time": 42.23026041666667,
            "value": 0.48031496062992124
          },
          {
            "number": 11,
            "ticks": 20032,
            "time": 42.29782883333333,
            "value": 0.5905511811023622
          },
          {
            "number": 11,
            "ticks": 20064,
            "time": 42.365397249999994,
            "value": 0.6850393700787402
          },
          {
            "number": 11,
            "ticks": 20096,
            "time": 42.43296566666666,
            "value": 0.7480314960629921
          },
          {
            "number": 11,
            "ticks": 20128,
            "time": 42.50053408333333,
            "value": 0.84251968503937
          },
          {
            "number": 11,
            "ticks": 20160,
            "time": 42.568102499999995,
            "value": 0.889763779527559
          },
          {
            "number": 11,
            "ticks": 20192,
            "time": 42.63567091666666,
            "value": 0.937007874015748
          },
          {
            "number": 11,
            "ticks": 20224,
            "time": 42.70323933333333,
            "value": 0.984251968503937
          },
          {
            "number": 11,
            "ticks": 20256,
            "time": 42.770807749999996,
            "value": 1
          },
          {
            "number": 11,
            "ticks": 20736,
            "time": 43.784333999999994,
            "value": 0.3858267716535433
          },
          {
            "number": 11,
            "ticks": 20768,
            "time": 43.85190241666666,
            "value": 0.5196850393700787
          },
          {
            "number": 11,
            "ticks": 20800,
            "time": 43.91947083333333,
            "value": 0.5905511811023622
          },
          {
            "number": 11,
            "ticks": 20832,
            "time": 43.987039249999995,
            "value": 0.6850393700787402
          },
          {
            "number": 11,
            "ticks": 20864,
            "time": 44.05460766666666,
            "value": 0.7322834645669292
          },
          {
            "number": 11,
            "ticks": 20896,
            "time": 44.12217608333333,
            "value": 0.7952755905511811
          },
          {
            "number": 11,
            "ticks": 20928,
            "time": 44.189744499999996,
            "value": 0.84251968503937
          },
          {
            "number": 11,
            "ticks": 20960,
            "time": 44.25731291666666,
            "value": 0.937007874015748
          },
          {
            "number": 11,
            "ticks": 21024,
            "time": 44.39244975,
            "value": 1
          }
        ],
        "91": [
          {
            "number": 91,
            "ticks": 560,
            "time": 1.1824472916666664,
            "value": 0.7874015748031497
          }
        ],
        "93": [
          {
            "number": 93,
            "ticks": 560,
            "time": 1.1824472916666664,
            "value": 0.23622047244094488
          }
        ]
      },
      "pitchBends": [],
      "instrument": {
        "family": "ensemble",
        "number": 53,
        "name": "voice oohs"
      },
      "name": "",
      "notes": [
        {
          "duration": 1.6195304869791656,
          "durationTicks": 767,
          "midi": 59,
          "name": "B3",
          "ticks": 6144,
          "time": 12.973135999999998,
          "velocity": 1
        },
        {
          "duration": 1.6195304869791656,
          "durationTicks": 767,
          "midi": 68,
          "name": "G#4",
          "ticks": 6144,
          "time": 12.973135999999998,
          "velocity": 0.889763779527559
        },
        {
          "duration": 1.6195304869791656,
          "durationTicks": 767,
          "midi": 64,
          "name": "E4",
          "ticks": 6144,
          "time": 12.973135999999998,
          "velocity": 0.889763779527559
        },
        {
          "duration": 1.6195304869791656,
          "durationTicks": 767,
          "midi": 58,
          "name": "A#3",
          "ticks": 6912,
          "time": 14.594777999999998,
          "velocity": 1
        },
        {
          "duration": 1.6195304869791656,
          "durationTicks": 767,
          "midi": 66,
          "name": "F#4",
          "ticks": 6912,
          "time": 14.594777999999998,
          "velocity": 0.984251968503937
        },
        {
          "duration": 1.6195304869791656,
          "durationTicks": 767,
          "midi": 63,
          "name": "D#4",
          "ticks": 6912,
          "time": 14.594777999999998,
          "velocity": 0.984251968503937
        },
        {
          "duration": 1.6195304869791656,
          "durationTicks": 767,
          "midi": 68,
          "name": "G#4",
          "ticks": 7680,
          "time": 16.21642,
          "velocity": 0.9133858267716536
        },
        {
          "duration": 1.6195304869791656,
          "durationTicks": 767,
          "midi": 64,
          "name": "E4",
          "ticks": 7680,
          "time": 16.21642,
          "velocity": 0.9133858267716536
        },
        {
          "duration": 1.6195304869791656,
          "durationTicks": 767,
          "midi": 56,
          "name": "G#3",
          "ticks": 7680,
          "time": 16.21642,
          "velocity": 0.9921259842519685
        },
        {
          "duration": 1.6195304869791656,
          "durationTicks": 767,
          "midi": 61,
          "name": "C#4",
          "ticks": 8448,
          "time": 17.838061999999997,
          "velocity": 1
        },
        {
          "duration": 1.6195304869791656,
          "durationTicks": 767,
          "midi": 66,
          "name": "F#4",
          "ticks": 8448,
          "time": 17.838061999999997,
          "velocity": 1
        },
        {
          "duration": 1.6195304869791656,
          "durationTicks": 767,
          "midi": 54,
          "name": "F#3",
          "ticks": 8448,
          "time": 17.838061999999997,
          "velocity": 0.937007874015748
        },
        {
          "duration": 0.8087094869791684,
          "durationTicks": 383,
          "midi": 71,
          "name": "B4",
          "ticks": 9984,
          "time": 21.081345999999996,
          "velocity": 0.84251968503937
        },
        {
          "duration": 0.8087094869791684,
          "durationTicks": 383,
          "midi": 63,
          "name": "D#4",
          "ticks": 9984,
          "time": 21.081345999999996,
          "velocity": 0.84251968503937
        },
        {
          "duration": 0.8087094869791684,
          "durationTicks": 383,
          "midi": 66,
          "name": "F#4",
          "ticks": 9984,
          "time": 21.081345999999996,
          "velocity": 0.84251968503937
        },
        {
          "duration": 0.8087094869791649,
          "durationTicks": 383,
          "midi": 69,
          "name": "A4",
          "ticks": 10368,
          "time": 21.892166999999997,
          "velocity": 0.7086614173228346
        },
        {
          "duration": 0.8087094869791649,
          "durationTicks": 383,
          "midi": 64,
          "name": "E4",
          "ticks": 10368,
          "time": 21.892166999999997,
          "velocity": 0.7086614173228346
        },
        {
          "duration": 0.8087094869791649,
          "durationTicks": 383,
          "midi": 61,
          "name": "C#4",
          "ticks": 10368,
          "time": 21.892166999999997,
          "velocity": 0.7086614173228346
        },
        {
          "duration": 3.2411724869791634,
          "durationTicks": 1535,
          "midi": 68,
          "name": "G#4",
          "ticks": 10752,
          "time": 22.702987999999998,
          "velocity": 0.7952755905511811
        },
        {
          "duration": 3.2411724869791634,
          "durationTicks": 1535,
          "midi": 60,
          "name": "C4",
          "ticks": 10752,
          "time": 22.702987999999998,
          "velocity": 0.7952755905511811
        },
        {
          "duration": 3.2411724869791634,
          "durationTicks": 1535,
          "midi": 63,
          "name": "D#4",
          "ticks": 10752,
          "time": 22.702987999999998,
          "velocity": 0.7952755905511811
        },
        {
          "duration": 2.43035148697917,
          "durationTicks": 1151,
          "midi": 61,
          "name": "C#4",
          "ticks": 13440,
          "time": 28.378734999999995,
          "velocity": 0.984251968503937
        },
        {
          "duration": 0.8087094869791684,
          "durationTicks": 383,
          "midi": 56,
          "name": "G#3",
          "ticks": 13440,
          "time": 28.378734999999995,
          "velocity": 0.984251968503937
        },
        {
          "duration": 3.241172486979167,
          "durationTicks": 1535,
          "midi": 64,
          "name": "E4",
          "ticks": 13824,
          "time": 29.189555999999996,
          "velocity": 0.8661417322834646
        },
        {
          "duration": 1.6195304869791656,
          "durationTicks": 767,
          "midi": 68,
          "name": "G#4",
          "ticks": 14592,
          "time": 30.811197999999997,
          "velocity": 0.9606299212598425
        },
        {
          "duration": 3.106035653645826,
          "durationTicks": 1471,
          "midi": 66,
          "name": "F#4",
          "ticks": 15360,
          "time": 32.43284,
          "velocity": 0.9133858267716536
        },
        {
          "duration": 3.106035653645826,
          "durationTicks": 1471,
          "midi": 58,
          "name": "A#3",
          "ticks": 15360,
          "time": 32.43284,
          "velocity": 0.9133858267716536
        },
        {
          "duration": 3.114481705729169,
          "durationTicks": 1475,
          "midi": 61,
          "name": "C#4",
          "ticks": 15360,
          "time": 32.43284,
          "velocity": 0.9133858267716536
        },
        {
          "duration": 1.6195304869791656,
          "durationTicks": 767,
          "midi": 66,
          "name": "F#4",
          "ticks": 18432,
          "time": 38.919408,
          "velocity": 0.9133858267716536
        },
        {
          "duration": 1.6195304869791656,
          "durationTicks": 767,
          "midi": 59,
          "name": "B3",
          "ticks": 18432,
          "time": 38.919408,
          "velocity": 0.9133858267716536
        },
        {
          "duration": 1.6195304869791656,
          "durationTicks": 767,
          "midi": 63,
          "name": "D#4",
          "ticks": 18432,
          "time": 38.919408,
          "velocity": 0.9133858267716536
        },
        {
          "duration": 1.6195304869791656,
          "durationTicks": 767,
          "midi": 66,
          "name": "F#4",
          "ticks": 19200,
          "time": 40.54105,
          "velocity": 0.9133858267716536
        },
        {
          "duration": 1.6195304869791656,
          "durationTicks": 767,
          "midi": 60,
          "name": "C4",
          "ticks": 19200,
          "time": 40.54105,
          "velocity": 0.9133858267716536
        },
        {
          "duration": 1.6195304869791656,
          "durationTicks": 767,
          "midi": 63,
          "name": "D#4",
          "ticks": 19200,
          "time": 40.54105,
          "velocity": 0.9133858267716536
        },
        {
          "duration": 1.6195304869791727,
          "durationTicks": 767,
          "midi": 61,
          "name": "C#4",
          "ticks": 19968,
          "time": 42.16269199999999,
          "velocity": 0.9133858267716536
        },
        {
          "duration": 1.6195304869791727,
          "durationTicks": 767,
          "midi": 68,
          "name": "G#4",
          "ticks": 19968,
          "time": 42.16269199999999,
          "velocity": 0.9133858267716536
        },
        {
          "duration": 1.6195304869791727,
          "durationTicks": 767,
          "midi": 64,
          "name": "E4",
          "ticks": 19968,
          "time": 42.16269199999999,
          "velocity": 0.9133858267716536
        },
        {
          "duration": 1.6195304869791656,
          "durationTicks": 767,
          "midi": 66,
          "name": "F#4",
          "ticks": 20736,
          "time": 43.784333999999994,
          "velocity": 0.9606299212598425
        },
        {
          "duration": 1.6195304869791656,
          "durationTicks": 767,
          "midi": 61,
          "name": "C#4",
          "ticks": 20736,
          "time": 43.784333999999994,
          "velocity": 0.9606299212598425
        },
        {
          "duration": 1.6195304869791656,
          "durationTicks": 767,
          "midi": 58,
          "name": "A#3",
          "ticks": 20736,
          "time": 43.784333999999994,
          "velocity": 0.9606299212598425
        }
      ]
    },
    {
      "channel": 9,
      "controlChanges": {
        "7": [
          {
            "number": 7,
            "ticks": 576,
            "time": 1.2162315,
            "value": 0.7874015748031497
          }
        ],
        "11": [
          {
            "number": 11,
            "ticks": 576,
            "time": 1.2162315,
            "value": 1
          }
        ],
        "91": [
          {
            "number": 91,
            "ticks": 580,
            "time": 1.2246775520833333,
            "value": 0.31496062992125984
          }
        ],
        "93": [
          {
            "number": 93,
            "ticks": 580,
            "time": 1.2246775520833333,
            "value": 0
          }
        ]
      },
      "pitchBends": [],
      "instrument": {
        "family": "drums",
        "number": 0,
        "name": "standard kit"
      },
      "name": "",
      "notes": [
        {
          "duration": 0.04856479947916714,
          "durationTicks": 23,
          "midi": 38,
          "name": "D2",
          "ticks": 3072,
          "time": 6.486567999999999,
          "velocity": 1
        },
        {
          "duration": 0.04856479947916714,
          "durationTicks": 23,
          "midi": 35,
          "name": "B1",
          "ticks": 3072,
          "time": 6.486567999999999,
          "velocity": 1
        },
        {
          "duration": 0.04856479947916714,
          "durationTicks": 23,
          "midi": 38,
          "name": "D2",
          "ticks": 3328,
          "time": 7.027115333333332,
          "velocity": 0.6614173228346457
        },
        {
          "duration": 0.04856479947916714,
          "durationTicks": 23,
          "midi": 39,
          "name": "D#2",
          "ticks": 3456,
          "time": 7.297388999999999,
          "velocity": 1
        },
        {
          "duration": 0.048564799479165366,
          "durationTicks": 23,
          "midi": 38,
          "name": "D2",
          "ticks": 3584,
          "time": 7.567662666666666,
          "velocity": 0.5039370078740157
        },
        {
          "duration": 0.04856479947916714,
          "durationTicks": 23,
          "midi": 38,
          "name": "D2",
          "ticks": 3712,
          "time": 7.837936333333332,
          "velocity": 0.7322834645669292
        },
        {
          "duration": 0.04856479947916714,
          "durationTicks": 23,
          "midi": 35,
          "name": "B1",
          "ticks": 3712,
          "time": 7.837936333333332,
          "velocity": 0.4566929133858268
        },
        {
          "duration": 0.048564799479166254,
          "durationTicks": 23,
          "midi": 35,
          "name": "B1",
          "ticks": 3840,
          "time": 8.10821,
          "velocity": 1
        },
        {
          "duration": 0.048564799479166254,
          "durationTicks": 23,
          "midi": 38,
          "name": "D2",
          "ticks": 3840,
          "time": 8.10821,
          "velocity": 1
        },
        {
          "duration": 0.048564799479166254,
          "durationTicks": 23,
          "midi": 38,
          "name": "D2",
          "ticks": 4096,
          "time": 8.648757333333332,
          "velocity": 0.6377952755905512
        },
        {
          "duration": 0.04856479947916803,
          "durationTicks": 23,
          "midi": 39,
          "name": "D#2",
          "ticks": 4224,
          "time": 8.919030999999999,
          "velocity": 1
        },
        {
          "duration": 0.04856479947916448,
          "durationTicks": 23,
          "midi": 38,
          "name": "D2",
          "ticks": 4352,
          "time": 9.189304666666667,
          "velocity": 0.4566929133858268
        },
        {
          "duration": 0.04856479947916803,
          "durationTicks": 23,
          "midi": 38,
          "name": "D2",
          "ticks": 4480,
          "time": 9.459578333333331,
          "velocity": 0.7480314960629921
        },
        {
          "duration": 0.048564799479166254,
          "durationTicks": 23,
          "midi": 35,
          "name": "B1",
          "ticks": 4608,
          "time": 9.729852,
          "velocity": 1
        },
        {
          "duration": 0.048564799479166254,
          "durationTicks": 23,
          "midi": 38,
          "name": "D2",
          "ticks": 4608,
          "time": 9.729852,
          "velocity": 1
        },
        {
          "duration": 0.048564799479166254,
          "durationTicks": 23,
          "midi": 38,
          "name": "D2",
          "ticks": 4864,
          "time": 10.270399333333332,
          "velocity": 0.6614173228346457
        },
        {
          "duration": 0.04856479947916803,
          "durationTicks": 23,
          "midi": 39,
          "name": "D#2",
          "ticks": 4992,
          "time": 10.540672999999998,
          "velocity": 1
        },
        {
          "duration": 0.04856479947916448,
          "durationTicks": 23,
          "midi": 38,
          "name": "D2",
          "ticks": 5120,
          "time": 10.810946666666666,
          "velocity": 0.5039370078740157
        },
        {
          "duration": 0.04856479947916803,
          "durationTicks": 23,
          "midi": 35,
          "name": "B1",
          "ticks": 5248,
          "time": 11.08122033333333,
          "velocity": 0.4566929133858268
        },
        {
          "duration": 0.04856479947916803,
          "durationTicks": 23,
          "midi": 38,
          "name": "D2",
          "ticks": 5248,
          "time": 11.08122033333333,
          "velocity": 0.7322834645669292
        },
        {
          "duration": 0.048564799479166254,
          "durationTicks": 23,
          "midi": 38,
          "name": "D2",
          "ticks": 5376,
          "time": 11.351493999999999,
          "velocity": 1
        },
        {
          "duration": 0.048564799479166254,
          "durationTicks": 23,
          "midi": 35,
          "name": "B1",
          "ticks": 5376,
          "time": 11.351493999999999,
          "velocity": 1
        },
        {
          "duration": 0.048564799479166254,
          "durationTicks": 23,
          "midi": 38,
          "name": "D2",
          "ticks": 5632,
          "time": 11.892041333333331,
          "velocity": 0.6377952755905512
        },
        {
          "duration": 0.04856479947916803,
          "durationTicks": 23,
          "midi": 39,
          "name": "D#2",
          "ticks": 5760,
          "time": 12.162314999999998,
          "velocity": 1
        },
        {
          "duration": 0.048564799479166254,
          "durationTicks": 23,
          "midi": 38,
          "name": "D2",
          "ticks": 5888,
          "time": 12.432588666666666,
          "velocity": 0.4566929133858268
        },
        {
          "duration": 0.048564799479166254,
          "durationTicks": 23,
          "midi": 38,
          "name": "D2",
          "ticks": 6016,
          "time": 12.702862333333332,
          "velocity": 0.7480314960629921
        },
        {
          "duration": 0.048564799479166254,
          "durationTicks": 23,
          "midi": 38,
          "name": "D2",
          "ticks": 6144,
          "time": 12.973135999999998,
          "velocity": 1
        },
        {
          "duration": 0.048564799479166254,
          "durationTicks": 23,
          "midi": 35,
          "name": "B1",
          "ticks": 6144,
          "time": 12.973135999999998,
          "velocity": 1
        },
        {
          "duration": 0.048564799479166254,
          "durationTicks": 23,
          "midi": 38,
          "name": "D2",
          "ticks": 6400,
          "time": 13.513683333333333,
          "velocity": 0.6614173228346457
        },
        {
          "duration": 0.04856479947916448,
          "durationTicks": 23,
          "midi": 39,
          "name": "D#2",
          "ticks": 6528,
          "time": 13.783957,
          "velocity": 1
        },
        {
          "duration": 0.04856479947916981,
          "durationTicks": 23,
          "midi": 38,
          "name": "D2",
          "ticks": 6656,
          "time": 14.054230666666664,
          "velocity": 0.5039370078740157
        },
        {
          "duration": 0.048564799479166254,
          "durationTicks": 23,
          "midi": 38,
          "name": "D2",
          "ticks": 6784,
          "time": 14.324504333333332,
          "velocity": 0.7322834645669292
        },
        {
          "duration": 0.048564799479166254,
          "durationTicks": 23,
          "midi": 35,
          "name": "B1",
          "ticks": 6784,
          "time": 14.324504333333332,
          "velocity": 0.4566929133858268
        },
        {
          "duration": 0.048564799479166254,
          "durationTicks": 23,
          "midi": 38,
          "name": "D2",
          "ticks": 6912,
          "time": 14.594777999999998,
          "velocity": 1
        },
        {
          "duration": 0.048564799479166254,
          "durationTicks": 23,
          "midi": 35,
          "name": "B1",
          "ticks": 6912,
          "time": 14.594777999999998,
          "velocity": 1
        },
        {
          "duration": 0.048564799479166254,
          "durationTicks": 23,
          "midi": 38,
          "name": "D2",
          "ticks": 7168,
          "time": 15.135325333333332,
          "velocity": 0.6377952755905512
        },
        {
          "duration": 0.04856479947916448,
          "durationTicks": 23,
          "midi": 39,
          "name": "D#2",
          "ticks": 7296,
          "time": 15.405598999999999,
          "velocity": 1
        },
        {
          "duration": 0.04856479947916981,
          "durationTicks": 23,
          "midi": 38,
          "name": "D2",
          "ticks": 7424,
          "time": 15.675872666666663,
          "velocity": 0.4566929133858268
        },
        {
          "duration": 0.04856479947916448,
          "durationTicks": 23,
          "midi": 38,
          "name": "D2",
          "ticks": 7552,
          "time": 15.946146333333333,
          "velocity": 0.7480314960629921
        },
        {
          "duration": 0.0485647994791627,
          "durationTicks": 23,
          "midi": 38,
          "name": "D2",
          "ticks": 7680,
          "time": 16.21642,
          "velocity": 1
        },
        {
          "duration": 0.0485647994791627,
          "durationTicks": 23,
          "midi": 35,
          "name": "B1",
          "ticks": 7680,
          "time": 16.21642,
          "velocity": 1
        },
        {
          "duration": 0.048564799479166254,
          "durationTicks": 23,
          "midi": 38,
          "name": "D2",
          "ticks": 7936,
          "time": 16.756967333333332,
          "velocity": 0.6614173228346457
        },
        {
          "duration": 0.048564799479166254,
          "durationTicks": 23,
          "midi": 39,
          "name": "D#2",
          "ticks": 8064,
          "time": 17.027240999999997,
          "velocity": 1
        },
        {
          "duration": 0.048564799479166254,
          "durationTicks": 23,
          "midi": 38,
          "name": "D2",
          "ticks": 8192,
          "time": 17.297514666666665,
          "velocity": 0.5039370078740157
        },
        {
          "duration": 0.048564799479166254,
          "durationTicks": 23,
          "midi": 35,
          "name": "B1",
          "ticks": 8320,
          "time": 17.567788333333333,
          "velocity": 0.4566929133858268
        },
        {
          "duration": 0.048564799479166254,
          "durationTicks": 23,
          "midi": 38,
          "name": "D2",
          "ticks": 8320,
          "time": 17.567788333333333,
          "velocity": 0.7322834645669292
        },
        {
          "duration": 0.048564799479166254,
          "durationTicks": 23,
          "midi": 38,
          "name": "D2",
          "ticks": 8448,
          "time": 17.838061999999997,
          "velocity": 1
        },
        {
          "duration": 0.048564799479166254,
          "durationTicks": 23,
          "midi": 35,
          "name": "B1",
          "ticks": 8448,
          "time": 17.838061999999997,
          "velocity": 1
        },
        {
          "duration": 0.0485647994791627,
          "durationTicks": 23,
          "midi": 38,
          "name": "D2",
          "ticks": 8704,
          "time": 18.378609333333333,
          "velocity": 0.6377952755905512
        },
        {
          "duration": 0.048564799479166254,
          "durationTicks": 23,
          "midi": 39,
          "name": "D#2",
          "ticks": 8832,
          "time": 18.648882999999998,
          "velocity": 1
        },
        {
          "duration": 0.04856479947916981,
          "durationTicks": 23,
          "midi": 38,
          "name": "D2",
          "ticks": 8960,
          "time": 18.919156666666662,
          "velocity": 0.4566929133858268
        },
        {
          "duration": 0.048564799479166254,
          "durationTicks": 23,
          "midi": 38,
          "name": "D2",
          "ticks": 9088,
          "time": 19.18943033333333,
          "velocity": 0.7480314960629921
        },
        {
          "duration": 0.048564799479166254,
          "durationTicks": 23,
          "midi": 35,
          "name": "B1",
          "ticks": 9216,
          "time": 19.459704,
          "velocity": 1
        },
        {
          "duration": 0.048564799479166254,
          "durationTicks": 23,
          "midi": 38,
          "name": "D2",
          "ticks": 9216,
          "time": 19.459704,
          "velocity": 1
        },
        {
          "duration": 0.048564799479166254,
          "durationTicks": 23,
          "midi": 38,
          "name": "D2",
          "ticks": 9472,
          "time": 20.00025133333333,
          "velocity": 0.6614173228346457
        },
        {
          "duration": 0.0485647994791627,
          "durationTicks": 23,
          "midi": 39,
          "name": "D#2",
          "ticks": 9600,
          "time": 20.270525,
          "velocity": 1
        },
        {
          "duration": 0.04856479947916981,
          "durationTicks": 23,
          "midi": 38,
          "name": "D2",
          "ticks": 9728,
          "time": 20.540798666666664,
          "velocity": 0.5039370078740157
        },
        {
          "duration": 0.048564799479166254,
          "durationTicks": 23,
          "midi": 35,
          "name": "B1",
          "ticks": 9856,
          "time": 20.811072333333332,
          "velocity": 0.4566929133858268
        },
        {
          "duration": 0.048564799479166254,
          "durationTicks": 23,
          "midi": 38,
          "name": "D2",
          "ticks": 9856,
          "time": 20.811072333333332,
          "velocity": 0.7322834645669292
        },
        {
          "duration": 0.048564799479166254,
          "durationTicks": 23,
          "midi": 35,
          "name": "B1",
          "ticks": 9984,
          "time": 21.081345999999996,
          "velocity": 1
        },
        {
          "duration": 0.048564799479166254,
          "durationTicks": 23,
          "midi": 38,
          "name": "D2",
          "ticks": 9984,
          "time": 21.081345999999996,
          "velocity": 1
        },
        {
          "duration": 0.048564799479166254,
          "durationTicks": 23,
          "midi": 38,
          "name": "D2",
          "ticks": 10240,
          "time": 21.621893333333333,
          "velocity": 0.6377952755905512
        },
        {
          "duration": 0.048564799479166254,
          "durationTicks": 23,
          "midi": 39,
          "name": "D#2",
          "ticks": 10368,
          "time": 21.892166999999997,
          "velocity": 1
        },
        {
          "duration": 0.04856479947916981,
          "durationTicks": 23,
          "midi": 38,
          "name": "D2",
          "ticks": 10496,
          "time": 22.16244066666666,
          "velocity": 0.4566929133858268
        },
        {
          "duration": 0.0485647994791627,
          "durationTicks": 23,
          "midi": 38,
          "name": "D2",
          "ticks": 10624,
          "time": 22.432714333333333,
          "velocity": 0.7480314960629921
        },
        {
          "duration": 0.048564799479166254,
          "durationTicks": 23,
          "midi": 35,
          "name": "B1",
          "ticks": 10752,
          "time": 22.702987999999998,
          "velocity": 1
        },
        {
          "duration": 0.048564799479166254,
          "durationTicks": 23,
          "midi": 38,
          "name": "D2",
          "ticks": 10752,
          "time": 22.702987999999998,
          "velocity": 1
        },
        {
          "duration": 0.048564799479166254,
          "durationTicks": 23,
          "midi": 38,
          "name": "D2",
          "ticks": 11008,
          "time": 23.24353533333333,
          "velocity": 0.6614173228346457
        },
        {
          "duration": 0.048564799479166254,
          "durationTicks": 23,
          "midi": 39,
          "name": "D#2",
          "ticks": 11136,
          "time": 23.513809,
          "velocity": 1
        },
        {
          "duration": 0.04856479947916981,
          "durationTicks": 23,
          "midi": 38,
          "name": "D2",
          "ticks": 11264,
          "time": 23.784082666666663,
          "velocity": 0.5039370078740157
        },
        {
          "duration": 0.048564799479166254,
          "durationTicks": 23,
          "midi": 35,
          "name": "B1",
          "ticks": 11392,
          "time": 24.05435633333333,
          "velocity": 0.4566929133858268
        },
        {
          "duration": 0.048564799479166254,
          "durationTicks": 23,
          "midi": 38,
          "name": "D2",
          "ticks": 11392,
          "time": 24.05435633333333,
          "velocity": 0.7322834645669292
        },
        {
          "duration": 0.048564799479166254,
          "durationTicks": 23,
          "midi": 35,
          "name": "B1",
          "ticks": 11520,
          "time": 24.324629999999996,
          "velocity": 1
        },
        {
          "duration": 0.048564799479166254,
          "durationTicks": 23,
          "midi": 38,
          "name": "D2",
          "ticks": 11520,
          "time": 24.324629999999996,
          "velocity": 1
        },
        {
          "duration": 0.048564799479166254,
          "durationTicks": 23,
          "midi": 38,
          "name": "D2",
          "ticks": 11776,
          "time": 24.86517733333333,
          "velocity": 0.6377952755905512
        },
        {
          "duration": 0.048564799479166254,
          "durationTicks": 23,
          "midi": 39,
          "name": "D#2",
          "ticks": 11904,
          "time": 25.135450999999996,
          "velocity": 1
        },
        {
          "duration": 0.048564799479166254,
          "durationTicks": 23,
          "midi": 38,
          "name": "D2",
          "ticks": 12032,
          "time": 25.405724666666664,
          "velocity": 0.4566929133858268
        },
        {
          "duration": 0.048564799479166254,
          "durationTicks": 23,
          "midi": 38,
          "name": "D2",
          "ticks": 12160,
          "time": 25.675998333333332,
          "velocity": 0.7480314960629921
        },
        {
          "duration": 0.04856479947916981,
          "durationTicks": 23,
          "midi": 38,
          "name": "D2",
          "ticks": 12288,
          "time": 25.946271999999997,
          "velocity": 1
        },
        {
          "duration": 0.04856479947916981,
          "durationTicks": 23,
          "midi": 35,
          "name": "B1",
          "ticks": 12288,
          "time": 25.946271999999997,
          "velocity": 1
        },
        {
          "duration": 0.048564799479166254,
          "durationTicks": 23,
          "midi": 38,
          "name": "D2",
          "ticks": 12544,
          "time": 26.48681933333333,
          "velocity": 0.6614173228346457
        },
        {
          "duration": 0.048564799479166254,
          "durationTicks": 23,
          "midi": 39,
          "name": "D#2",
          "ticks": 12672,
          "time": 26.757092999999998,
          "velocity": 1
        },
        {
          "duration": 0.0485647994791627,
          "durationTicks": 23,
          "midi": 38,
          "name": "D2",
          "ticks": 12800,
          "time": 27.027366666666666,
          "velocity": 0.5039370078740157
        },
        {
          "duration": 0.04856479947916981,
          "durationTicks": 23,
          "midi": 35,
          "name": "B1",
          "ticks": 12928,
          "time": 27.297640333333327,
          "velocity": 0.4566929133858268
        },
        {
          "duration": 0.04856479947916981,
          "durationTicks": 23,
          "midi": 38,
          "name": "D2",
          "ticks": 12928,
          "time": 27.297640333333327,
          "velocity": 0.7322834645669292
        },
        {
          "duration": 0.048564799479166254,
          "durationTicks": 23,
          "midi": 38,
          "name": "D2",
          "ticks": 13056,
          "time": 27.567914,
          "velocity": 1
        },
        {
          "duration": 0.048564799479166254,
          "durationTicks": 23,
          "midi": 35,
          "name": "B1",
          "ticks": 13056,
          "time": 27.567914,
          "velocity": 1
        },
        {
          "duration": 0.04856479947916981,
          "durationTicks": 23,
          "midi": 38,
          "name": "D2",
          "ticks": 13312,
          "time": 28.108461333333327,
          "velocity": 0.6377952755905512
        },
        {
          "duration": 0.04856479947916981,
          "durationTicks": 23,
          "midi": 39,
          "name": "D#2",
          "ticks": 13440,
          "time": 28.378734999999995,
          "velocity": 1
        },
        {
          "duration": 0.048564799479166254,
          "durationTicks": 23,
          "midi": 38,
          "name": "D2",
          "ticks": 13568,
          "time": 28.649008666666663,
          "velocity": 0.4566929133858268
        },
        {
          "duration": 0.04856479947916981,
          "durationTicks": 23,
          "midi": 38,
          "name": "D2",
          "ticks": 13696,
          "time": 28.919282333333328,
          "velocity": 0.7480314960629921
        },
        {
          "duration": 0.04856479947916981,
          "durationTicks": 23,
          "midi": 35,
          "name": "B1",
          "ticks": 13824,
          "time": 29.189555999999996,
          "velocity": 1
        },
        {
          "duration": 0.04856479947916981,
          "durationTicks": 23,
          "midi": 38,
          "name": "D2",
          "ticks": 13824,
          "time": 29.189555999999996,
          "velocity": 1
        },
        {
          "duration": 0.048564799479166254,
          "durationTicks": 23,
          "midi": 38,
          "name": "D2",
          "ticks": 14080,
          "time": 29.73010333333333,
          "velocity": 0.6614173228346457
        },
        {
          "duration": 0.04856479947916981,
          "durationTicks": 23,
          "midi": 39,
          "name": "D#2",
          "ticks": 14208,
          "time": 30.000376999999997,
          "velocity": 1
        },
        {
          "duration": 0.0485647994791627,
          "durationTicks": 23,
          "midi": 38,
          "name": "D2",
          "ticks": 14336,
          "time": 30.270650666666665,
          "velocity": 0.5039370078740157
        },
        {
          "duration": 0.048564799479166254,
          "durationTicks": 23,
          "midi": 38,
          "name": "D2",
          "ticks": 14464,
          "time": 30.54092433333333,
          "velocity": 0.7322834645669292
        },
        {
          "duration": 0.048564799479166254,
          "durationTicks": 23,
          "midi": 35,
          "name": "B1",
          "ticks": 14464,
          "time": 30.54092433333333,
          "velocity": 0.4566929133858268
        },
        {
          "duration": 0.048564799479166254,
          "durationTicks": 23,
          "midi": 38,
          "name": "D2",
          "ticks": 14592,
          "time": 30.811197999999997,
          "velocity": 1
        },
        {
          "duration": 0.048564799479166254,
          "durationTicks": 23,
          "midi": 35,
          "name": "B1",
          "ticks": 14592,
          "time": 30.811197999999997,
          "velocity": 1
        },
        {
          "duration": 0.04856479947916981,
          "durationTicks": 23,
          "midi": 38,
          "name": "D2",
          "ticks": 14848,
          "time": 31.351745333333326,
          "velocity": 0.6377952755905512
        },
        {
          "duration": 0.04856479947916981,
          "durationTicks": 23,
          "midi": 39,
          "name": "D#2",
          "ticks": 14976,
          "time": 31.622018999999995,
          "velocity": 1
        },
        {
          "duration": 0.0485647994791627,
          "durationTicks": 23,
          "midi": 38,
          "name": "D2",
          "ticks": 15104,
          "time": 31.892292666666666,
          "velocity": 0.4566929133858268
        },
        {
          "duration": 0.048564799479166254,
          "durationTicks": 23,
          "midi": 38,
          "name": "D2",
          "ticks": 15232,
          "time": 32.16256633333333,
          "velocity": 0.7480314960629921
        },
        {
          "duration": 0.048564799479166254,
          "durationTicks": 23,
          "midi": 35,
          "name": "B1",
          "ticks": 15360,
          "time": 32.43284,
          "velocity": 1
        },
        {
          "duration": 0.048564799479166254,
          "durationTicks": 23,
          "midi": 38,
          "name": "D2",
          "ticks": 15360,
          "time": 32.43284,
          "velocity": 1
        },
        {
          "duration": 0.048564799479166254,
          "durationTicks": 23,
          "midi": 38,
          "name": "D2",
          "ticks": 15616,
          "time": 32.97338733333333,
          "velocity": 0.6614173228346457
        },
        {
          "duration": 0.048564799479166254,
          "durationTicks": 23,
          "midi": 39,
          "name": "D#2",
          "ticks": 15744,
          "time": 33.243660999999996,
          "velocity": 1
        },
        {
          "duration": 0.048564799479166254,
          "durationTicks": 23,
          "midi": 38,
          "name": "D2",
          "ticks": 15872,
          "time": 33.513934666666664,
          "velocity": 0.5039370078740157
        },
        {
          "duration": 0.04856479947917336,
          "durationTicks": 23,
          "midi": 35,
          "name": "B1",
          "ticks": 16000,
          "time": 33.784208333333325,
          "velocity": 0.4566929133858268
        },
        {
          "duration": 0.04856479947917336,
          "durationTicks": 23,
          "midi": 38,
          "name": "D2",
          "ticks": 16000,
          "time": 33.784208333333325,
          "velocity": 0.7322834645669292
        },
        {
          "duration": 0.04856479947917336,
          "durationTicks": 23,
          "midi": 38,
          "name": "D2",
          "ticks": 16128,
          "time": 34.05448199999999,
          "velocity": 1
        },
        {
          "duration": 0.04856479947917336,
          "durationTicks": 23,
          "midi": 35,
          "name": "B1",
          "ticks": 16128,
          "time": 34.05448199999999,
          "velocity": 1
        },
        {
          "duration": 0.048564799479166254,
          "durationTicks": 23,
          "midi": 38,
          "name": "D2",
          "ticks": 16384,
          "time": 34.59502933333333,
          "velocity": 0.6377952755905512
        },
        {
          "duration": 0.048564799479166254,
          "durationTicks": 23,
          "midi": 39,
          "name": "D#2",
          "ticks": 16512,
          "time": 34.865303,
          "velocity": 1
        },
        {
          "duration": 0.04856479947915915,
          "durationTicks": 23,
          "midi": 38,
          "name": "D2",
          "ticks": 16640,
          "time": 35.135576666666665,
          "velocity": 0.4566929133858268
        },
        {
          "duration": 0.048564799479166254,
          "durationTicks": 23,
          "midi": 38,
          "name": "D2",
          "ticks": 16768,
          "time": 35.405850333333326,
          "velocity": 0.7480314960629921
        },
        {
          "duration": 0.04856479947917336,
          "durationTicks": 23,
          "midi": 35,
          "name": "B1",
          "ticks": 16896,
          "time": 35.676123999999994,
          "velocity": 1
        },
        {
          "duration": 0.04856479947917336,
          "durationTicks": 23,
          "midi": 38,
          "name": "D2",
          "ticks": 16896,
          "time": 35.676123999999994,
          "velocity": 1
        },
        {
          "duration": 0.048564799479166254,
          "durationTicks": 23,
          "midi": 38,
          "name": "D2",
          "ticks": 17152,
          "time": 36.21667133333333,
          "velocity": 0.6614173228346457
        },
        {
          "duration": 0.048564799479166254,
          "durationTicks": 23,
          "midi": 39,
          "name": "D#2",
          "ticks": 17280,
          "time": 36.486945,
          "velocity": 1
        },
        {
          "duration": 0.04856479947915915,
          "durationTicks": 23,
          "midi": 38,
          "name": "D2",
          "ticks": 17408,
          "time": 36.75721866666667,
          "velocity": 0.5039370078740157
        },
        {
          "duration": 0.048564799479166254,
          "durationTicks": 23,
          "midi": 35,
          "name": "B1",
          "ticks": 17536,
          "time": 37.02749233333333,
          "velocity": 0.4566929133858268
        },
        {
          "duration": 0.048564799479166254,
          "durationTicks": 23,
          "midi": 38,
          "name": "D2",
          "ticks": 17536,
          "time": 37.02749233333333,
          "velocity": 0.7322834645669292
        },
        {
          "duration": 0.048564799479166254,
          "durationTicks": 23,
          "midi": 38,
          "name": "D2",
          "ticks": 17664,
          "time": 37.297765999999996,
          "velocity": 1
        },
        {
          "duration": 0.048564799479166254,
          "durationTicks": 23,
          "midi": 35,
          "name": "B1",
          "ticks": 17664,
          "time": 37.297765999999996,
          "velocity": 1
        },
        {
          "duration": 0.04856479947917336,
          "durationTicks": 23,
          "midi": 38,
          "name": "D2",
          "ticks": 17920,
          "time": 37.838313333333325,
          "velocity": 0.6377952755905512
        },
        {
          "duration": 0.04856479947917336,
          "durationTicks": 23,
          "midi": 39,
          "name": "D#2",
          "ticks": 18048,
          "time": 38.10858699999999,
          "velocity": 1
        },
        {
          "duration": 0.048564799479166254,
          "durationTicks": 23,
          "midi": 38,
          "name": "D2",
          "ticks": 18176,
          "time": 38.37886066666666,
          "velocity": 0.4566929133858268
        },
        {
          "duration": 0.048564799479166254,
          "durationTicks": 23,
          "midi": 38,
          "name": "D2",
          "ticks": 18304,
          "time": 38.64913433333333,
          "velocity": 0.7480314960629921
        },
        {
          "duration": 0.048564799479166254,
          "durationTicks": 23,
          "midi": 38,
          "name": "D2",
          "ticks": 18432,
          "time": 38.919408,
          "velocity": 1
        },
        {
          "duration": 0.048564799479166254,
          "durationTicks": 23,
          "midi": 35,
          "name": "B1",
          "ticks": 18432,
          "time": 38.919408,
          "velocity": 1
        },
        {
          "duration": 0.048564799479166254,
          "durationTicks": 23,
          "midi": 38,
          "name": "D2",
          "ticks": 18688,
          "time": 39.459955333333326,
          "velocity": 0.6614173228346457
        },
        {
          "duration": 0.048564799479166254,
          "durationTicks": 23,
          "midi": 39,
          "name": "D#2",
          "ticks": 18816,
          "time": 39.730228999999994,
          "velocity": 1
        },
        {
          "duration": 0.048564799479166254,
          "durationTicks": 23,
          "midi": 38,
          "name": "D2",
          "ticks": 18944,
          "time": 40.00050266666666,
          "velocity": 0.5039370078740157
        },
        {
          "duration": 0.04856479947917336,
          "durationTicks": 23,
          "midi": 38,
          "name": "D2",
          "ticks": 19072,
          "time": 40.27077633333332,
          "velocity": 0.7322834645669292
        },
        {
          "duration": 0.04856479947917336,
          "durationTicks": 23,
          "midi": 35,
          "name": "B1",
          "ticks": 19072,
          "time": 40.27077633333332,
          "velocity": 0.4566929133858268
        },
        {
          "duration": 0.048564799479166254,
          "durationTicks": 23,
          "midi": 38,
          "name": "D2",
          "ticks": 19200,
          "time": 40.54105,
          "velocity": 1
        },
        {
          "duration": 0.048564799479166254,
          "durationTicks": 23,
          "midi": 35,
          "name": "B1",
          "ticks": 19200,
          "time": 40.54105,
          "velocity": 1
        },
        {
          "duration": 0.048564799479166254,
          "durationTicks": 23,
          "midi": 38,
          "name": "D2",
          "ticks": 19456,
          "time": 41.08159733333333,
          "velocity": 0.6377952755905512
        },
        {
          "duration": 0.048564799479166254,
          "durationTicks": 23,
          "midi": 39,
          "name": "D#2",
          "ticks": 19584,
          "time": 41.351870999999996,
          "velocity": 1
        },
        {
          "duration": 0.048564799479166254,
          "durationTicks": 23,
          "midi": 38,
          "name": "D2",
          "ticks": 19712,
          "time": 41.622144666666664,
          "velocity": 0.4566929133858268
        },
        {
          "duration": 0.04856479947917336,
          "durationTicks": 23,
          "midi": 38,
          "name": "D2",
          "ticks": 19840,
          "time": 41.892418333333325,
          "velocity": 0.7480314960629921
        },
        {
          "duration": 0.04856479947917336,
          "durationTicks": 23,
          "midi": 38,
          "name": "D2",
          "ticks": 19968,
          "time": 42.16269199999999,
          "velocity": 1
        },
        {
          "duration": 0.04856479947917336,
          "durationTicks": 23,
          "midi": 35,
          "name": "B1",
          "ticks": 19968,
          "time": 42.16269199999999,
          "velocity": 1
        },
        {
          "duration": 0.048564799479166254,
          "durationTicks": 23,
          "midi": 38,
          "name": "D2",
          "ticks": 20224,
          "time": 42.70323933333333,
          "velocity": 0.6614173228346457
        },
        {
          "duration": 0.048564799479166254,
          "durationTicks": 23,
          "midi": 39,
          "name": "D#2",
          "ticks": 20352,
          "time": 42.973513,
          "velocity": 1
        },
        {
          "duration": 0.04856479947915915,
          "durationTicks": 23,
          "midi": 38,
          "name": "D2",
          "ticks": 20480,
          "time": 43.243786666666665,
          "velocity": 0.5039370078740157
        },
        {
          "duration": 0.048564799479166254,
          "durationTicks": 23,
          "midi": 35,
          "name": "B1",
          "ticks": 20608,
          "time": 43.514060333333326,
          "velocity": 0.4566929133858268
        },
        {
          "duration": 0.048564799479166254,
          "durationTicks": 23,
          "midi": 38,
          "name": "D2",
          "ticks": 20608,
          "time": 43.514060333333326,
          "velocity": 0.7322834645669292
        },
        {
          "duration": 0.048564799479166254,
          "durationTicks": 23,
          "midi": 38,
          "name": "D2",
          "ticks": 20736,
          "time": 43.784333999999994,
          "velocity": 1
        },
        {
          "duration": 0.048564799479166254,
          "durationTicks": 23,
          "midi": 35,
          "name": "B1",
          "ticks": 20736,
          "time": 43.784333999999994,
          "velocity": 1
        },
        {
          "duration": 0.04856479947917336,
          "durationTicks": 23,
          "midi": 38,
          "name": "D2",
          "ticks": 20992,
          "time": 44.32488133333332,
          "velocity": 0.6377952755905512
        },
        {
          "duration": 0.04856479947917336,
          "durationTicks": 23,
          "midi": 39,
          "name": "D#2",
          "ticks": 21120,
          "time": 44.59515499999999,
          "velocity": 1
        },
        {
          "duration": 0.04856479947915915,
          "durationTicks": 23,
          "midi": 38,
          "name": "D2",
          "ticks": 21248,
          "time": 44.865428666666666,
          "velocity": 0.4566929133858268
        },
        {
          "duration": 0.048564799479166254,
          "durationTicks": 23,
          "midi": 38,
          "name": "D2",
          "ticks": 21376,
          "time": 45.13570233333333,
          "velocity": 0.7480314960629921
        }
      ]
    },
    {
      "channel": 0,
      "controlChanges": {
        "7": [
          {
            "number": 7,
            "ticks": 596,
            "time": 1.2584617604166664,
            "value": 0.6299212598425197
          }
        ],
        "10": [
          {
            "number": 10,
            "ticks": 596,
            "time": 1.2584617604166664,
            "value": 0.11023622047244094
          }
        ],
        "11": [
          {
            "number": 11,
            "ticks": 596,
            "time": 1.2584617604166664,
            "value": 1
          }
        ],
        "91": [
          {
            "number": 91,
            "ticks": 600,
            "time": 1.2669078125,
            "value": 0.7874015748031497
          }
        ],
        "93": [
          {
            "number": 93,
            "ticks": 600,
            "time": 1.2669078125,
            "value": 0.2755905511811024
          }
        ]
      },
      "pitchBends": [],
      "instrument": {
        "family": "ensemble",
        "number": 52,
        "name": "choir aahs"
      },
      "name": "",
      "notes": []
    },
    {
      "channel": 0,
      "controlChanges": {
        "7": [
          {
            "number": 7,
            "ticks": 616,
            "time": 1.3006920208333332,
            "value": 0.5511811023622047
          }
        ],
        "10": [
          {
            "number": 10,
            "ticks": 616,
            "time": 1.3006920208333332,
            "value": 0.8976377952755905
          }
        ],
        "11": [
          {
            "number": 11,
            "ticks": 616,
            "time": 1.3006920208333332,
            "value": 1
          }
        ],
        "91": [
          {
            "number": 91,
            "ticks": 620,
            "time": 1.3091380729166664,
            "value": 0.7874015748031497
          }
        ],
        "93": [
          {
            "number": 93,
            "ticks": 620,
            "time": 1.3091380729166664,
            "value": 0.23622047244094488
          }
        ]
      },
      "pitchBends": [],
      "instrument": {
        "family": "ensemble",
        "number": 52,
        "name": "choir aahs"
      },
      "name": "",
      "notes": []
    }
  ]
}