{
  "header": {
    "keySignatures": [
      {
        "key": "G",
        "scale": "major",
        "ticks": 0
      },
      {
        "key": "Bb",
        "scale": "minor",
        "ticks": 267360
      },
      {
        "key": "G",
        "scale": "major",
        "ticks": 283680
      },
      {
        "key": "Bb",
        "scale": "minor",
        "ticks": 374160
      },
      {
        "key": "G",
        "scale": "major",
        "ticks": 399360
      }
    ],
    "meta": [
      {
        "text": "Aria:Largamente e cantato",
        "ticks": 0,
        "type": "marker"
      },
      {
        "text": "Var.1: Allegro con freschezza, e deciso",
        "ticks": 23040,
        "type": "marker"
      },
      {
        "text": "Var.2:Andantino, dolce",
        "ticks": 46080,
        "type": "marker"
      },
      {
        "text": "Var.4:Lo stesso movimento",
        "ticks": 61440,
        "type": "marker"
      },
      {
        "text": "Var.5: Allegro, non troppo",
        "ticks": 73320,
        "type": "marker"
      },
      {
        "text": "Var.6: Allegretto tranquillo",
        "ticks": 97080,
        "type": "marker"
      },
      {
        "text": "Var.7: Allegro scherzando",
        "ticks": 108960,
        "type": "marker"
      },
      {
        "text": "Var.8: Allegro",
        "ticks": 132000,
        "type": "marker"
      },
      {
        "text": "Var.10: Fughetta (Alla breve)",
        "ticks": 155760,
        "type": "marker"
      },
      {
        "text": "Var.11: Lostesso tempo, piu vivace",
        "ticks": 187440,
        "type": "marker"
      },
      {
        "text": "Var.13: Andante con grazia",
        "ticks": 219120,
        "type": "marker"
      },
      {
        "text": "Var.14: Allegro ritenuto",
        "ticks": 243600,
        "type": "marker"
      },
      {
        "text": "Var.15: Quasi Adagio",
        "ticks": 267360,
        "type": "marker"
      },
      {
        "text": "Var.19: Allegretto piacevole",
        "ticks": 283680,
        "type": "marker"
      },
      {
        "text": "Var.20: Allegretto vivace",
        "ticks": 295920,
        "type": "marker"
      },
      {
        "text": "Var.22: Fugato (Alla breve)\u0000",
        "ticks": 318960,
        "type": "marker"
      },
      {
        "text": "Var.23: Non Allegro",
        "ticks": 349680,
        "type": "marker"
      },
      {
        "text": "Var.25: Adagio",
        "ticks": 374160,
        "type": "marker"
      },
      {
        "text": "Var.26: Allegro corrente",
        "ticks": 399360,
        "type": "marker"
      },
      {
        "text": "Var.28: Andante brillante\u0000",
        "ticks": 423120,
        "type": "marker"
      },
      {
        "text": "Var.29: Allegro finale...(Allegro non troppo)\u0000",
        "ticks": 446880,
        "type": "marker"
      },
      {
        "text": "Var.30: ...Quodlibet...(Frisch und volkstümlich, doch nicht ohne Würde)...Ripresa\u0000",
        "ticks": 466320,
        "type": "marker"
      }
    ],
    "name": "哥德堡变奏曲",
    "ppq": 240,
    "tempos": [
      {
        "bpm": 64,
        "ticks": 0
      },
      {
        "bpm": 128,
        "ticks": 23044
      },
      {
        "bpm": 70.00007000007,
        "ticks": 46080
      },
      {
        "bpm": 96,
        "ticks": 60960
      },
      {
        "bpm": 120,
        "ticks": 72600
      },
      {
        "bpm": 103.0000480666891,
        "ticks": 96360
      },
      {
        "bpm": 144.00023040036865,
        "ticks": 108960
      },
      {
        "bpm": 128,
        "ticks": 132000
      },
      {
        "bpm": 160,
        "ticks": 155760
      },
      {
        "bpm": 48,
        "ticks": 219120
      },
      {
        "bpm": 128,
        "ticks": 243600
      },
      {
        "bpm": 112.00005973336519,
        "ticks": 248160
      },
      {
        "bpm": 32,
        "ticks": 267352
      },
      {
        "bpm": 88.00002346667293,
        "ticks": 283680
      },
      {
        "bpm": 96,
        "ticks": 295924
      },
      {
        "bpm": 176.00004693334586,
        "ticks": 318960
      },
      {
        "bpm": 96,
        "ticks": 349680
      },
      {
        "bpm": 24,
        "ticks": 374160
      },
      {
        "bpm": 120,
        "ticks": 399360
      },
      {
        "bpm": 88.00002346667293,
        "ticks": 423116
      },
      {
        "bpm": 112.00005973336519,
        "ticks": 447120
      },
      {
        "bpm": 96,
        "ticks": 466316
      },
      {
        "bpm": 48,
        "ticks": 482164
      }
    ],
    "timeSignatures": [
      {
        "ticks": 0,
        "timeSignature": [
          3,
          4
        ],
        "measures": 0
      },
      {
        "ticks": 46080,
        "timeSignature": [
          2,
          4
        ],
        "measures": 64
      },
      {
        "ticks": 61440,
        "timeSignature": [
          3,
          8
        ],
        "measures": 96
      },
      {
        "ticks": 73320,
        "timeSignature": [
          3,
          4
        ],
        "measures": 104.25
      },
      {
        "ticks": 97080,
        "timeSignature": [
          3,
          8
        ],
        "measures": 137.25
      },
      {
        "ticks": 108960,
        "timeSignature": [
          6,
          8
        ],
        "measures": 145.5
      },
      {
        "ticks": 132000,
        "timeSignature": [
          3,
          4
        ],
        "measures": 153.5
      },
      {
        "ticks": 155760,
        "timeSignature": [
          4,
          4
        ],
        "measures": 186.5
      },
      {
        "ticks": 219120,
        "timeSignature": [
          3,
          4
        ],
        "measures": 252.5
      },
      {
        "ticks": 267360,
        "timeSignature": [
          2,
          4
        ],
        "measures": 319.5
      },
      {
        "ticks": 283680,
        "timeSignature": [
          3,
          8
        ],
        "measures": 353.5
      },
      {
        "ticks": 295920,
        "timeSignature": [
          3,
          4
        ],
        "measures": 362
      },
      {
        "ticks": 318960,
        "timeSignature": [
          4,
          4
        ],
        "measures": 394
      },
      {
        "ticks": 349680,
        "timeSignature": [
          3,
          4
        ],
        "measures": 426
      }
    ]
  },
  "tracks": [
    {
      "channel": 0,
      "controlChanges": {
        "0": [
          {
            "number": 0,
            "ticks": 0,
            "time": 0,
            "value": 0
          }
        ],
        "7": [
          {
            "number": 7,
            "ticks": 0,
            "time": 0,
            "value": 0.7874015748031497
          },
          {
            "number": 7,
            "ticks": 23040,
            "time": 90,
            "value": 0.6299212598425197
          },
          {
            "number": 7,
            "ticks": 46080,
            "time": 135.0078125,
            "value": 0.5039370078740157
          },
          {
            "number": 7,
            "ticks": 61680,
            "time": 190.0256165,
            "value": 0.7874015748031497
          },
          {
            "number": 7,
            "ticks": 73560,
            "time": 220.4631165,
            "value": 0.5905511811023622
          },
          {
            "number": 7,
            "ticks": 97320,
            "time": 270.29321250000004,
            "value": 0.6299212598425197
          },
          {
            "number": 7,
            "ticks": 132600,
            "time": 339.7174375,
            "value": 0.7874015748031497
          },
          {
            "number": 7,
            "ticks": 156360,
            "time": 385.8893125,
            "value": 0.7086614173228346
          },
          {
            "number": 7,
            "ticks": 188040,
            "time": 435.3893125,
            "value": 0.7874015748031497
          },
          {
            "number": 7,
            "ticks": 219720,
            "time": 487.0768125,
            "value": 0.5196850393700787
          },
          {
            "number": 7,
            "ticks": 244200,
            "time": 612.6236875,
            "value": 0.7874015748031497
          },
          {
            "number": 7,
            "ticks": 267960,
            "time": 667.9473253666666,
            "value": 0.6299212598425197
          },
          {
            "number": 7,
            "ticks": 284040,
            "time": 791.7825523666666,
            "value": 0.47244094488188976
          },
          {
            "number": 7,
            "ticks": 295920,
            "time": 825.5325433666665,
            "value": 0.7874015748031497
          },
          {
            "number": 7,
            "ticks": 318960,
            "time": 885.5334903333332,
            "value": 0.7874015748031497
          },
          {
            "number": 7,
            "ticks": 350640,
            "time": 931.6698423333332,
            "value": 0.3937007874015748
          },
          {
            "number": 7,
            "ticks": 374400,
            "time": 995.4198423333332,
            "value": 0.7874015748031497
          },
          {
            "number": 7,
            "ticks": 399600,
            "time": 1255.9198423333332,
            "value": 0.7874015748031497
          },
          {
            "number": 7,
            "ticks": 423360,
            "time": 1305.6046906333333,
            "value": 0.7874015748031497
          },
          {
            "number": 7,
            "ticks": 447120,
            "time": 1373.1046726333334,
            "value": 0.7874015748031497
          },
          {
            "number": 7,
            "ticks": 466320,
            "time": 1415.9632807333335,
            "value": 0.7874015748031497
          },
          {
            "number": 7,
            "ticks": 482160,
            "time": 1457.2132807333335,
            "value": 0.7874015748031497
          }
        ],
        "32": [
          {
            "number": 32,
            "ticks": 0,
            "time": 0,
            "value": 0
          }
        ]
      },
      "pitchBends": [],
      "instrument": {
        "family": "piano",
        "number": 0,
        "name": "acoustic grand piano"
      },
      "name": "Accoustic Grand Piano",
      "notes": [
        {
          "duration": 0.9375,
          "durationTicks": 240,
          "midi": 79,
          "name": "G5",
          "ticks": 0,
          "time": 0,
          "velocity": 0.7874015748031497
        },
        {
          "duration": 0.9375,
          "durationTicks": 240,
          "midi": 79,
          "name": "G5",
          "ticks": 240,
          "time": 0.9375,
          "velocity": 0.7874015748031497
        },
        {
          "duration": 0.1171875,
          "durationTicks": 30,
          "midi": 81,
          "name": "A5",
          "ticks": 480,
          "time": 1.875,
          "velocity": 0.7874015748031497
        },
        {
          "duration": 0.1171875,
          "durationTicks": 30,
          "midi": 79,
          "name": "G5",
          "ticks": 510,
          "time": 1.9921875,
          "velocity": 0.7874015748031497
        },
        {
          "duration": 0.46875,
          "durationTicks": 120,
          "midi": 81,
          "name": "A5",
          "ticks": 540,
          "time": 2.109375,
          "velocity": 0.7874015748031497
        },
        {
          "duration": 0.234375,
          "durationTicks": 60,
          "midi": 83,
          "name": "B5",
          "ticks": 660,
          "time": 2.578125,
          "velocity": 0.7874015748031497
        },
        {
          "duration": 0.46875,
          "durationTicks": 120,
          "midi": 81,
          "name": "A5",
          "ticks": 720,
          "time": 2.8125,
          "velocity": 0.7874015748031497
        },
        {
          "duration": 0.234375,
          "durationTicks": 60,
          "midi": 79,
          "name": "G5",
          "ticks": 840,
          "time": 3.28125,
          "velocity": 0.7874015748031497
        },
        {
          "duration": 0.234375,
          "durationTicks": 60,
          "midi": 78,
          "name": "F#5",
          "ticks": 900,
          "time": 3.515625,
          "velocity": 0.7874015748031497
        },
        {
          "duration": 0.46875,
          "durationTicks": 120,
          "midi": 76,
          "name": "E5",
          "ticks": 960,
          "time": 3.75,
          "velocity": 0.7874015748031497
        },
        {
          "duration": 1.40625,
          "durationTicks": 360,
          "midi": 74,
          "name": "D5",
          "ticks": 1080,
          "time": 4.21875,
          "velocity": 0.7874015748031497
        },
        {
          "duration": 0.1171875,
          "durationTicks": 30,
          "midi": 67,
          "name": "G4",
          "ticks": 1440,
          "time": 5.625,
          "velocity": 0.7874015748031497
        },
        {
          "duration": 0.1171875,
          "durationTicks": 30,
          "midi": 66,
          "name": "F#4",
          "ticks": 1470,
          "time": 5.7421875,
          "velocity": 0.7874015748031497
        },
        {
          "duration": 0.703125,
          "durationTicks": 180,
          "midi": 67,
          "name": "G4",
          "ticks": 1500,
          "time": 5.859375,
          "velocity": 0.7874015748031497
        },
        {
          "duration": 0.1171875,
          "durationTicks": 30,
          "midi": 66,
          "name": "F#4",
          "ticks": 1680,
          "time": 6.5625,
          "velocity": 0.7874015748031497
        },
        {
          "duration": 0.1171875,
          "durationTicks": 30,
          "midi": 67,
          "name": "G4",
          "ticks": 1710,
          "time": 6.6796875,
          "velocity": 0.7874015748031497
        },
        {
          "duration": 0.1171875,
          "durationTicks": 30,
          "midi": 69,
          "name": "A4",
          "ticks": 1740,
          "time": 6.796875,
          "velocity": 0.7874015748031497
        },
        {
          "duration": 0.1171875,
          "durationTicks": 30,
          "midi": 67,
          "name": "G4",
          "ticks": 1770,
          "time": 6.9140625,
          "velocity": 0.7874015748031497
        },
        {
          "duration": 0.1171875,
          "durationTicks": 30,
          "midi": 69,
          "name": "A4",
          "ticks": 1800,
          "time": 7.03125,
          "velocity": 0.7874015748031497
        },
        {
          "duration": 0.1171875,
          "durationTicks": 30,
          "midi": 67,
          "name": "G4",
          "ticks": 1830,
          "time": 7.1484375,
          "velocity": 0.7874015748031497
        },
        {
          "duration": 0.1171875,
          "durationTicks": 30,
          "midi": 69,
          "name": "A4",
          "ticks": 1860,
          "time": 7.265625,
          "velocity": 0.7874015748031497
        },
        {
          "duration": 0.1171875,
          "durationTicks": 30,
          "midi": 67,
          "name": "G4",
          "ticks": 1890,
          "time": 7.3828125,
          "velocity": 0.7874015748031497
        },
        {
          "duration": 0.1171875,
          "durationTicks": 30,
          "midi": 69,
          "name": "A4",
          "ticks": 1920,
          "time": 7.5,
          "velocity": 0.7874015748031497
        },
        {
          "duration": 0.1171875,
          "durationTicks": 30,
          "midi": 67,
          "name": "G4",
          "ticks": 1950,
          "time": 7.6171875,
          "velocity": 0.7874015748031497
        },
        {
          "duration": 0.1171875,
          "durationTicks": 30,
          "midi": 69,
          "name": "A4",
          "ticks": 1980,
          "time": 7.734375,
          "velocity": 0.7874015748031497
        },
        {
          "duration": 0.1171875,
          "durationTicks": 30,
          "midi": 67,
          "name": "G4",
          "ticks": 2010,
          "time": 7.8515625,
          "velocity": 0.7874015748031497
        },
        {
          "duration": 0.234375,
          "durationTicks": 60,
          "midi": 66,
          "name": "F#4",
          "ticks": 2040,
          "time": 7.96875,
          "velocity": 0.7874015748031497
        },
        {
          "duration": 0.234375,
          "durationTicks": 60,
          "midi": 67,
          "name": "G4",
          "ticks": 2100,
          "time": 8.203125,
          "velocity": 0.7874015748031497
        },
        {
          "duration": 0.1171875,
          "durationTicks": 30,
          "midi": 69,
          "name": "A4",
          "ticks": 2160,
          "time": 8.4375,
          "velocity": 0.7874015748031497
        },
        {
          "duration": 0.1171875,
          "durationTicks": 30,
          "midi": 67,
          "name": "G4",
          "ticks": 2190,
          "time": 8.5546875,
          "velocity": 0.7874015748031497
        },
        {
          "duration": 0.234375,
          "durationTicks": 60,
          "midi": 66,
          "name": "F#4",
          "ticks": 2220,
          "time": 8.671875,
          "velocity": 0.7874015748031497
        },
        {
          "duration": 0.1171875,
          "durationTicks": 30,
          "midi": 67,
          "name": "G4",
          "ticks": 2280,
          "time": 8.90625,
          "velocity": 0.7874015748031497
        },
        {
          "duration": 0.1171875,
          "durationTicks": 30,
          "midi": 66,
          "name": "F#4",
          "ticks": 2310,
          "time": 9.0234375,
          "velocity": 0.7874015748031497
        },
        {
          "duration": 0.234375,
          "durationTicks": 60,
          "midi": 64,
          "name": "E4",
          "ticks": 2340,
          "time": 9.140625,
          "velocity": 0.7874015748031497
        },
        {
          "duration": 0.46875,
          "durationTicks": 120,
          "midi": 64,
          "name": "E4",
          "ticks": 2400,
          "time": 9.375,
          "velocity": 0.7874015748031497
        },
        {
          "duration": 1.40625,
          "durationTicks": 360,
          "midi": 62,
          "name": "D4",
          "ticks": 2520,
          "time": 9.84375,
          "velocity": 0.7874015748031497
        },
        {
          "duration": 0.9375,
          "durationTicks": 240,
          "midi": 74,
          "name": "D5",
          "ticks": 2880,
          "time": 11.25,
          "velocity": 0.7874015748031497
        },
        {
          "duration": 0.9375,
          "durationTicks": 240,
          "midi": 74,
          "name": "D5",
          "ticks": 3120,
          "time": 12.1875,
          "velocity": 0.7874015748031497
        },
        {
          "duration": 0.1171875,
          "durationTicks": 30,
          "midi": 76,
          "name": "E5",
          "ticks": 3360,
          "time": 13.125,
          "velocity": 0.7874015748031497
        },
        {
          "duration": 0.1171875,
          "durationTicks": 30,
          "midi": 74,
          "name": "D5",
          "ticks": 3390,
          "time": 13.2421875,
          "velocity": 0.7874015748031497
        },
        {
          "duration": 0.46875,
          "durationTicks": 120,
          "midi": 76,
          "name": "E5",
          "ticks": 3420,
          "time": 13.359375,
          "velocity": 0.7874015748031497
        },
        {
          "duration": 0.234375,
          "durationTicks": 60,
          "midi": 77,
          "name": "F5",
          "ticks": 3540,
          "time": 13.828125,
          "velocity": 0.7874015748031497
        },
        {
          "duration": 0.46875,
          "durationTicks": 120,
          "midi": 76,
          "name": "E5",
          "ticks": 3600,
          "time": 14.0625,
          "velocity": 0.7874015748031497
        },
        {
          "duration": 0.234375,
          "durationTicks": 60,
          "midi": 74,
          "name": "D5",
          "ticks": 3720,
          "time": 14.53125,
          "velocity": 0.7874015748031497
        },
        {
          "duration": 0.234375,
          "durationTicks": 60,
          "midi": 72,
          "name": "C5",
          "ticks": 3780,
          "time": 14.765625,
          "velocity": 0.7874015748031497
        },
        {
          "duration": 0.46875,
          "durationTicks": 120,
          "midi": 71,
          "name": "B4",
          "ticks": 3840,
          "time": 15,
          "velocity": 0.7874015748031497
        },
        {
          "duration": 0.9375,
          "durationTicks": 240,
          "midi": 69,
          "name": "A4",
          "ticks": 3960,
          "time": 15.46875,
          "velocity": 0.7874015748031497
        },
        {
          "duration": 0.46875,
          "durationTicks": 120,
          "midi": 78,
          "name": "F#5",
          "ticks": 4200,
          "time": 16.40625,
          "velocity": 0.7874015748031497
        },
        {
          "duration": 0.1171875,
          "durationTicks": 30,
          "midi": 79,
          "name": "G5",
          "ticks": 4320,
          "time": 16.875,
          "velocity": 0.7874015748031497
        },
        {
          "duration": 0.3515625,
          "durationTicks": 90,
          "midi": 78,
          "name": "F#5",
          "ticks": 4350,
          "time": 16.9921875,
          "velocity": 0.7874015748031497
        },
        {
          "duration": 0.1171875,
          "durationTicks": 30,
          "midi": 81,
          "name": "A5",
          "ticks": 4440,
          "time": 17.34375,
          "velocity": 0.7874015748031497
        },
        {
          "duration": 0.3515625,
          "durationTicks": 90,
          "midi": 79,
          "name": "G5",
          "ticks": 4470,
          "time": 17.4609375,
          "velocity": 0.7874015748031497
        },
        {
          "duration": 0.1171875,
          "durationTicks": 30,
          "midi": 78,
          "name": "F#5",
          "ticks": 4560,
          "time": 17.8125,
          "velocity": 0.7874015748031497
        },
        {
          "duration": 0.3515625,
          "durationTicks": 90,
          "midi": 76,
          "name": "E5",
          "ticks": 4590,
          "time": 17.9296875,
          "velocity": 0.7874015748031497
        },
        {
          "duration": 0.1171875,
          "durationTicks": 30,
          "midi": 74,
          "name": "D5",
          "ticks": 4680,
          "time": 18.28125,
          "velocity": 0.7874015748031497
        },
        {
          "duration": 0.3515625,
          "durationTicks": 90,
          "midi": 72,
          "name": "C5",
          "ticks": 4710,
          "time": 18.3984375,
          "velocity": 0.7874015748031497
        },
        {
          "duration": 0.234375,
          "durationTicks": 60,
          "midi": 72,
          "name": "C5",
          "ticks": 4800,
          "time": 18.75,
          "velocity": 0.7874015748031497
        },
        {
          "duration": 0.46875,
          "durationTicks": 120,
          "midi": 81,
          "name": "A5",
          "ticks": 4860,
          "time": 18.984375,
          "velocity": 0.7874015748031497
        },
        {
          "duration": 0.234375,
          "durationTicks": 60,
          "midi": 72,
          "name": "C5",
          "ticks": 4980,
          "time": 19.453125,
          "velocity": 0.7874015748031497
        },
        {
          "duration": 0.1171875,
          "durationTicks": 30,
          "midi": 71,
          "name": "B4",
          "ticks": 5040,
          "time": 19.6875,
          "velocity": 0.7874015748031497
        },
        {
          "duration": 0.3515625,
          "durationTicks": 90,
          "midi": 67,
          "name": "G4",
          "ticks": 5070,
          "time": 19.8046875,
          "velocity": 0.7874015748031497
        },
        {
          "duration": 0.46875,
          "durationTicks": 120,
          "midi": 66,
          "name": "F#4",
          "ticks": 5160,
          "time": 20.15625,
          "velocity": 0.7874015748031497
        },
        {
          "duration": 0.46875,
          "durationTicks": 120,
          "midi": 66,
          "name": "F#4",
          "ticks": 5280,
          "time": 20.625,
          "velocity": 0.7874015748031497
        },
        {
          "duration": 0.1171875,
          "durationTicks": 30,
          "midi": 67,
          "name": "G4",
          "ticks": 5400,
          "time": 21.09375,
          "velocity": 0.7874015748031497
        },
        {
          "duration": 0.1171875,
          "durationTicks": 30,
          "midi": 66,
          "name": "F#4",
          "ticks": 5430,
          "time": 21.2109375,
          "velocity": 0.7874015748031497
        },
        {
          "duration": 1.171875,
          "durationTicks": 300,
          "midi": 67,
          "name": "G4",
          "ticks": 5460,
          "time": 21.328125,
          "velocity": 0.7874015748031497
        },
        {
          "duration": 0.9375,
          "durationTicks": 240,
          "midi": 71,
          "name": "B4",
          "ticks": 5760,
          "time": 22.5,
          "velocity": 0.7874015748031497
        },
        {
          "duration": 0.9375,
          "durationTicks": 240,
          "midi": 71,
          "name": "B4",
          "ticks": 6000,
          "time": 23.4375,
          "velocity": 0.7874015748031497
        },
        {
          "duration": 0.1171875,
          "durationTicks": 30,
          "midi": 73,
          "name": "C#5",
          "ticks": 6240,
          "time": 24.375,
          "velocity": 0.7874015748031497
        },
        {
          "duration": 0.1171875,
          "durationTicks": 30,
          "midi": 71,
          "name": "B4",
          "ticks": 6270,
          "time": 24.4921875,
          "velocity": 0.7874015748031497
        },
        {
          "duration": 0.46875,
          "durationTicks": 120,
          "midi": 73,
          "name": "C#5",
          "ticks": 6300,
          "time": 24.609375,
          "velocity": 0.7874015748031497
        },
        {
          "duration": 0.234375,
          "durationTicks": 60,
          "midi": 74,
          "name": "D5",
          "ticks": 6420,
          "time": 25.078125,
          "velocity": 0.7874015748031497
        },
        {
          "duration": 0.234375,
          "durationTicks": 60,
          "midi": 74,
          "name": "D5",
          "ticks": 6480,
          "time": 25.3125,
          "velocity": 0.7874015748031497
        },
        {
          "duration": 0.234375,
          "durationTicks": 60,
          "midi": 73,
          "name": "C#5",
          "ticks": 6540,
          "time": 25.546875,
          "velocity": 0.7874015748031497
        },
        {
          "duration": 0.234375,
          "durationTicks": 60,
          "midi": 71,
          "name": "B4",
          "ticks": 6600,
          "time": 25.78125,
          "velocity": 0.7874015748031497
        },
        {
          "duration": 0.234375,
          "durationTicks": 60,
          "midi": 69,
          "name": "A4",
          "ticks": 6660,
          "time": 26.015625,
          "velocity": 0.7874015748031497
        },
        {
          "duration": 1.875,
          "durationTicks": 480,
          "midi": 74,
          "name": "D5",
          "ticks": 6720,
          "time": 26.25,
          "velocity": 0.7874015748031497
        },
        {
          "duration": 0.078125,
          "durationTicks": 20,
          "midi": 67,
          "name": "G4",
          "ticks": 7200,
          "time": 28.125,
          "velocity": 0.7874015748031497
        },
        {
          "duration": 0.078125,
          "durationTicks": 20,
          "midi": 71,
          "name": "B4",
          "ticks": 7220,
          "time": 28.203125,
          "velocity": 0.7874015748031497
        },
        {
          "duration": 0.078125,
          "durationTicks": 20,
          "midi": 76,
          "name": "E5",
          "ticks": 7240,
          "time": 28.28125,
          "velocity": 0.7874015748031497
        },
        {
          "duration": 0.703125,
          "durationTicks": 180,
          "midi": 79,
          "name": "G5",
          "ticks": 7260,
          "time": 28.359375,
          "velocity": 0.7874015748031497
        },
        {
          "duration": 0.1171875,
          "durationTicks": 30,
          "midi": 78,
          "name": "F#5",
          "ticks": 7440,
          "time": 29.0625,
          "velocity": 0.7874015748031497
        },
        {
          "duration": 0.1171875,
          "durationTicks": 30,
          "midi": 79,
          "name": "G5",
          "ticks": 7470,
          "time": 29.1796875,
          "velocity": 0.7874015748031497
        },
        {
          "duration": 0.1171875,
          "durationTicks": 30,
          "midi": 81,
          "name": "A5",
          "ticks": 7500,
          "time": 29.296875,
          "velocity": 0.7874015748031497
        },
        {
          "duration": 0.1171875,
          "durationTicks": 30,
          "midi": 79,
          "name": "G5",
          "ticks": 7530,
          "time": 29.4140625,
          "velocity": 0.7874015748031497
        },
        {
          "duration": 0.1171875,
          "durationTicks": 30,
          "midi": 81,
          "name": "A5",
          "ticks": 7560,
          "time": 29.53125,
          "velocity": 0.7874015748031497
        },
        {
          "duration": 0.1171875,
          "durationTicks": 30,
          "midi": 79,
          "name": "G5",
          "ticks": 7590,
          "time": 29.6484375,
          "velocity": 0.7874015748031497
        },
        {
          "duration": 0.1171875,
          "durationTicks": 30,
          "midi": 81,
          "name": "A5",
          "ticks": 7620,
          "time": 29.765625,
          "velocity": 0.7874015748031497
        },
        {
          "duration": 0.1171875,
          "durationTicks": 30,
          "midi": 79,
          "name": "G5",
          "ticks": 7650,
          "time": 29.8828125,
          "velocity": 0.7874015748031497
        },
        {
          "duration": 0.1171875,
          "durationTicks": 30,
          "midi": 81,
          "name": "A5",
          "ticks": 7680,
          "time": 30,
          "velocity": 0.7874015748031497
        },
        {
          "duration": 0.1171875,
          "durationTicks": 30,
          "midi": 79,
          "name": "G5",
          "ticks": 7710,
          "time": 30.1171875,
          "velocity": 0.7874015748031497
        },
        {
          "duration": 0.1171875,
          "durationTicks": 30,
          "midi": 81,
          "name": "A5",
          "ticks": 7740,
          "time": 30.234375,
          "velocity": 0.7874015748031497
        },
        {
          "duration": 0.1171875,
          "durationTicks": 30,
          "midi": 79,
          "name": "G5",
          "ticks": 7770,
          "time": 30.3515625,
          "velocity": 0.7874015748031497
        },
        {
          "duration": 0.1171875,
          "durationTicks": 30,
          "midi": 81,
          "name": "A5",
          "ticks": 7800,
          "time": 30.46875,
          "velocity": 0.7874015748031497
        },
        {
          "duration": 0.1171875,
          "durationTicks": 30,
          "midi": 79,
          "name": "G5",
          "ticks": 7830,
          "time": 30.5859375,
          "velocity": 0.7874015748031497
        },
        {
          "duration": 0.1171875,
          "durationTicks": 30,
          "midi": 81,
          "name": "A5",
          "ticks": 7860,
          "time": 30.703125,
          "velocity": 0.7874015748031497
        },
        {
          "duration": 0.1171875,
          "durationTicks": 30,
          "midi": 79,
          "name": "G5",
          "ticks": 7890,
          "time": 30.8203125,
          "velocity": 0.7874015748031497
        },
        {
          "duration": 0.46875,
          "durationTicks": 120,
          "midi": 79,
          "name": "G5",
          "ticks": 7920,
          "time": 30.9375,
          "velocity": 0.7874015748031497
        },
        {
          "duration": 0.234375,
          "durationTicks": 60,
          "midi": 78,
          "name": "F#5",
          "ticks": 8040,
          "time": 31.40625,
          "velocity": 0.7874015748031497
        },
        {
          "duration": 0.234375,
          "durationTicks": 60,
          "midi": 76,
          "name": "E5",
          "ticks": 8100,
          "time": 31.640625,
          "velocity": 0.7874015748031497
        },
        {
          "duration": 0.46875,
          "durationTicks": 120,
          "midi": 74,
          "name": "D5",
          "ticks": 8160,
          "time": 31.875,
          "velocity": 0.7874015748031497
        },
        {
          "duration": 0.1171875,
          "durationTicks": 30,
          "midi": 73,
          "name": "C#5",
          "ticks": 8280,
          "time": 32.34375,
          "velocity": 0.7874015748031497
        },
        {
          "duration": 0.1171875,
          "durationTicks": 30,
          "midi": 71,
          "name": "B4",
          "ticks": 8310,
          "time": 32.4609375,
          "velocity": 0.7874015748031497
        },
        {
          "duration": 0.05859375,
          "durationTicks": 15,
          "midi": 73,
          "name": "C#5",
          "ticks": 8340,
          "time": 32.578125,
          "velocity": 0.7874015748031497
        },
        {
          "duration": 0.05859375,
          "durationTicks": 15,
          "midi": 74,
          "name": "D5",
          "ticks": 8355,
          "time": 32.63671875,
          "velocity": 0.7874015748031497
        },
        {
          "duration": 0.05859375,
          "durationTicks": 15,
          "midi": 73,
          "name": "C#5",
          "ticks": 8370,
          "time": 32.6953125,
          "velocity": 0.7874015748031497
        },
        {
          "duration": 0.05859375,
          "durationTicks": 15,
          "midi": 74,
          "name": "D5",
          "ticks": 8385,
          "time": 32.75390625,
          "velocity": 0.7874015748031497
        },
        {
          "duration": 0.05859375,
          "durationTicks": 15,
          "midi": 73,
          "name": "C#5",
          "ticks": 8400,
          "time": 32.8125,
          "velocity": 0.7874015748031497
        },
        {
          "duration": 0.05859375,
          "durationTicks": 15,
          "midi": 74,
          "name": "D5",
          "ticks": 8415,
          "time": 32.87109375,
          "velocity": 0.7874015748031497
        },
        {
          "duration": 0.05859375,
          "durationTicks": 15,
          "midi": 73,
          "name": "C#5",
          "ticks": 8430,
          "time": 32.9296875,
          "velocity": 0.7874015748031497
        },
        {
          "duration": 0.05859375,
          "durationTicks": 15,
          "midi": 74,
          "name": "D5",
          "ticks": 8445,
          "time": 32.98828125,
          "velocity": 0.7874015748031497
        },
        {
          "duration": 0.05859375,
          "durationTicks": 15,
          "midi": 73,
          "name": "C#5",
          "ticks": 8460,
          "time": 33.046875,
          "velocity": 0.7874015748031497
        },
        {
          "duration": 0.05859375,
          "durationTicks": 15,
          "midi": 74,
          "name": "D5",
          "ticks": 8475,
          "time": 33.10546875,
          "velocity": 0.7874015748031497
        },
        {
          "duration": 0.05859375,
          "durationTicks": 15,
          "midi": 73,
          "name": "C#5",
          "ticks": 8490,
          "time": 33.1640625,
          "velocity": 0.7874015748031497
        },
        {
          "duration": 0.05859375,
          "durationTicks": 15,
          "midi": 74,
          "name": "D5",
          "ticks": 8505,
          "time": 33.22265625,
          "velocity": 0.7874015748031497
        },
        {
          "duration": 0.46875,
          "durationTicks": 120,
          "midi": 76,
          "name": "E5",
          "ticks": 8520,
          "time": 33.28125,
          "velocity": 0.7874015748031497
        },
        {
          "duration": 0.234375,
          "durationTicks": 60,
          "midi": 81,
          "name": "A5",
          "ticks": 8640,
          "time": 33.75,
          "velocity": 0.7874015748031497
        },
        {
          "duration": 0.234375,
          "durationTicks": 60,
          "midi": 79,
          "name": "G5",
          "ticks": 8700,
          "time": 33.984375,
          "velocity": 0.7874015748031497
        },
        {
          "duration": 0.234375,
          "durationTicks": 60,
          "midi": 78,
          "name": "F#5",
          "ticks": 8760,
          "time": 34.21875,
          "velocity": 0.7874015748031497
        },
        {
          "duration": 0.234375,
          "durationTicks": 60,
          "midi": 76,
          "name": "E5",
          "ticks": 8820,
          "time": 34.453125,
          "velocity": 0.7874015748031497
        },
        {
          "duration": 0.46875,
          "durationTicks": 120,
          "midi": 74,
          "name": "D5",
          "ticks": 8880,
          "time": 34.6875,
          "velocity": 0.7874015748031497
        },
        {
          "duration": 1.0546875,
          "durationTicks": 270,
          "midi": 69,
          "name": "A4",
          "ticks": 9000,
          "time": 35.15625,
          "velocity": 0.7874015748031497
        },
        {
          "duration": 0.1171875,
          "durationTicks": 30,
          "midi": 71,
          "name": "B4",
          "ticks": 9270,
          "time": 36.2109375,
          "velocity": 0.7874015748031497
        },
        {
          "duration": 0.234375,
          "durationTicks": 60,
          "midi": 72,
          "name": "C5",
          "ticks": 9300,
          "time": 36.328125,
          "velocity": 0.7874015748031497
        },
        {
          "duration": 0.234375,
          "durationTicks": 60,
          "midi": 71,
          "name": "B4",
          "ticks": 9360,
          "time": 36.5625,
          "velocity": 0.7874015748031497
        },
        {
          "duration": 0.234375,
          "durationTicks": 60,
          "midi": 69,
          "name": "A4",
          "ticks": 9420,
          "time": 36.796875,
          "velocity": 0.7874015748031497
        },
        {
          "duration": 0.234375,
          "durationTicks": 60,
          "midi": 67,
          "name": "G4",
          "ticks": 9480,
          "time": 37.03125,
          "velocity": 0.7874015748031497
        },
        {
          "duration": 0.234375,
          "durationTicks": 60,
          "midi": 66,
          "name": "F#4",
          "ticks": 9540,
          "time": 37.265625,
          "velocity": 0.7874015748031497
        },
        {
          "duration": 0.46875,
          "durationTicks": 120,
          "midi": 64,
          "name": "E4",
          "ticks": 9600,
          "time": 37.5,
          "velocity": 0.7874015748031497
        },
        {
          "duration": 0.234375,
          "durationTicks": 60,
          "midi": 74,
          "name": "D5",
          "ticks": 9720,
          "time": 37.96875,
          "velocity": 0.7874015748031497
        },
        {
          "duration": 0.8203125,
          "durationTicks": 210,
          "midi": 73,
          "name": "C#5",
          "ticks": 9780,
          "time": 38.203125,
          "velocity": 0.7874015748031497
        },
        {
          "duration": 0.1171875,
          "durationTicks": 30,
          "midi": 74,
          "name": "D5",
          "ticks": 9990,
          "time": 39.0234375,
          "velocity": 0.7874015748031497
        },
        {
          "duration": 0.234375,
          "durationTicks": 60,
          "midi": 76,
          "name": "E5",
          "ticks": 10020,
          "time": 39.140625,
          "velocity": 0.7874015748031497
        },
        {
          "duration": 0.234375,
          "durationTicks": 60,
          "midi": 74,
          "name": "D5",
          "ticks": 10080,
          "time": 39.375,
          "velocity": 0.7874015748031497
        },
        {
          "duration": 0.234375,
          "durationTicks": 60,
          "midi": 73,
          "name": "C#5",
          "ticks": 10140,
          "time": 39.609375,
          "velocity": 0.7874015748031497
        },
        {
          "duration": 0.234375,
          "durationTicks": 60,
          "midi": 71,
          "name": "B4",
          "ticks": 10200,
          "time": 39.84375,
          "velocity": 0.7874015748031497
        },
        {
          "duration": 0.234375,
          "durationTicks": 60,
          "midi": 69,
          "name": "A4",
          "ticks": 10260,
          "time": 40.078125,
          "velocity": 0.7874015748031497
        },
        {
          "duration": 0.46875,
          "durationTicks": 120,
          "midi": 79,
          "name": "G5",
          "ticks": 10320,
          "time": 40.3125,
          "velocity": 0.7874015748031497
        },
        {
          "duration": 0.9375,
          "durationTicks": 240,
          "midi": 71,
          "name": "B4",
          "ticks": 10440,
          "time": 40.78125,
          "velocity": 0.7874015748031497
        },
        {
          "duration": 0.46875,
          "durationTicks": 120,
          "midi": 73,
          "name": "C#5",
          "ticks": 10680,
          "time": 41.71875,
          "velocity": 0.7874015748031497
        },
        {
          "duration": 0.234375,
          "durationTicks": 60,
          "midi": 73,
          "name": "C#5",
          "ticks": 10800,
          "time": 42.1875,
          "velocity": 0.7874015748031497
        },
        {
          "duration": 0.3515625,
          "durationTicks": 90,
          "midi": 74,
          "name": "D5",
          "ticks": 10860,
          "time": 42.421875,
          "velocity": 0.7874015748031497
        },
        {
          "duration": 0.1171875,
          "durationTicks": 30,
          "midi": 76,
          "name": "E5",
          "ticks": 10950,
          "time": 42.7734375,
          "velocity": 0.7874015748031497
        },
        {
          "duration": 0.1171875,
          "durationTicks": 30,
          "midi": 74,
          "name": "D5",
          "ticks": 10980,
          "time": 42.890625,
          "velocity": 0.7874015748031497
        },
        {
          "duration": 0.1171875,
          "durationTicks": 30,
          "midi": 73,
          "name": "C#5",
          "ticks": 11010,
          "time": 43.0078125,
          "velocity": 0.7874015748031497
        },
        {
          "duration": 0.46875,
          "durationTicks": 120,
          "midi": 73,
          "name": "C#5",
          "ticks": 11040,
          "time": 43.125,
          "velocity": 0.7874015748031497
        },
        {
          "duration": 1.40625,
          "durationTicks": 360,
          "midi": 74,
          "name": "D5",
          "ticks": 11160,
          "time": 43.59375,
          "velocity": 0.7874015748031497
        },
        {
          "duration": 0.1171875,
          "durationTicks": 30,
          "midi": 69,
          "name": "A4",
          "ticks": 11520,
          "time": 45,
          "velocity": 0.7874015748031497
        },
        {
          "duration": 0.1171875,
          "durationTicks": 30,
          "midi": 67,
          "name": "G4",
          "ticks": 11550,
          "time": 45.1171875,
          "velocity": 0.7874015748031497
        },
        {
          "duration": 0.8203125,
          "durationTicks": 210,
          "midi": 69,
          "name": "A4",
          "ticks": 11580,
          "time": 45.234375,
          "velocity": 0.7874015748031497
        },
        {
          "duration": 0.1171875,
          "durationTicks": 30,
          "midi": 67,
          "name": "G4",
          "ticks": 11790,
          "time": 46.0546875,
          "velocity": 0.7874015748031497
        },
        {
          "duration": 0.1171875,
          "durationTicks": 30,
          "midi": 69,
          "name": "A4",
          "ticks": 11820,
          "time": 46.171875,
          "velocity": 0.7874015748031497
        },
        {
          "duration": 0.1171875,
          "durationTicks": 30,
          "midi": 71,
          "name": "B4",
          "ticks": 11850,
          "time": 46.2890625,
          "velocity": 0.7874015748031497
        },
        {
          "duration": 0.1171875,
          "durationTicks": 30,
          "midi": 69,
          "name": "A4",
          "ticks": 11880,
          "time": 46.40625,
          "velocity": 0.7874015748031497
        },
        {
          "duration": 0.1171875,
          "durationTicks": 30,
          "midi": 71,
          "name": "B4",
          "ticks": 11910,
          "time": 46.5234375,
          "velocity": 0.7874015748031497
        },
        {
          "duration": 0.1171875,
          "durationTicks": 30,
          "midi": 69,
          "name": "A4",
          "ticks": 11940,
          "time": 46.640625,
          "velocity": 0.7874015748031497
        },
        {
          "duration": 0.1171875,
          "durationTicks": 30,
          "midi": 71,
          "name": "B4",
          "ticks": 11970,
          "time": 46.7578125,
          "velocity": 0.7874015748031497
        },
        {
          "duration": 0.234375,
          "durationTicks": 60,
          "midi": 69,
          "name": "A4",
          "ticks": 12000,
          "time": 46.875,
          "velocity": 0.7874015748031497
        },
        {
          "duration": 0.1171875,
          "durationTicks": 30,
          "midi": 69,
          "name": "A4",
          "ticks": 12060,
          "time": 47.109375,
          "velocity": 0.7874015748031497
        },
        {
          "duration": 0.1171875,
          "durationTicks": 30,
          "midi": 71,
          "name": "B4",
          "ticks": 12090,
          "time": 47.2265625,
          "velocity": 0.7874015748031497
        },
        {
          "duration": 0.1171875,
          "durationTicks": 30,
          "midi": 72,
          "name": "C5",
          "ticks": 12120,
          "time": 47.34375,
          "velocity": 0.7874015748031497
        },
        {
          "duration": 0.1171875,
          "durationTicks": 30,
          "midi": 74,
          "name": "D5",
          "ticks": 12150,
          "time": 47.4609375,
          "velocity": 0.7874015748031497
        },
        {
          "duration": 0.234375,
          "durationTicks": 60,
          "midi": 76,
          "name": "E5",
          "ticks": 12180,
          "time": 47.578125,
          "velocity": 0.7874015748031497
        },
        {
          "duration": 0.234375,
          "durationTicks": 60,
          "midi": 76,
          "name": "E5",
          "ticks": 12240,
          "time": 47.8125,
          "velocity": 0.7874015748031497
        },
        {
          "duration": 0.234375,
          "durationTicks": 60,
          "midi": 74,
          "name": "D5",
          "ticks": 12300,
          "time": 48.046875,
          "velocity": 0.7874015748031497
        },
        {
          "duration": 0.234375,
          "durationTicks": 60,
          "midi": 72,
          "name": "C5",
          "ticks": 12360,
          "time": 48.28125,
          "velocity": 0.7874015748031497
        },
        {
          "duration": 0.234375,
          "durationTicks": 60,
          "midi": 71,
          "name": "B4",
          "ticks": 12420,
          "time": 48.515625,
          "velocity": 0.7874015748031497
        },
        {
          "duration": 0.46875,
          "durationTicks": 120,
          "midi": 69,
          "name": "A4",
          "ticks": 12480,
          "time": 48.75,
          "velocity": 0.7874015748031497
        },
        {
          "duration": 0.9375,
          "durationTicks": 240,
          "midi": 67,
          "name": "G4",
          "ticks": 12600,
          "time": 49.21875,
          "velocity": 0.7874015748031497
        },
        {
          "duration": 0.46875,
          "durationTicks": 120,
          "midi": 79,
          "name": "G5",
          "ticks": 12840,
          "time": 50.15625,
          "velocity": 0.7874015748031497
        },
        {
          "duration": 0.234375,
          "durationTicks": 60,
          "midi": 78,
          "name": "F#5",
          "ticks": 12960,
          "time": 50.625,
          "velocity": 0.7874015748031497
        },
        {
          "duration": 0.46875,
          "durationTicks": 120,
          "midi": 76,
          "name": "E5",
          "ticks": 13020,
          "time": 50.859375,
          "velocity": 0.7874015748031497
        },
        {
          "duration": 0.1171875,
          "durationTicks": 30,
          "midi": 78,
          "name": "F#5",
          "ticks": 13140,
          "time": 51.328125,
          "velocity": 0.7874015748031497
        },
        {
          "duration": 0.1171875,
          "durationTicks": 30,
          "midi": 75,
          "name": "D#5",
          "ticks": 13170,
          "time": 51.4453125,
          "velocity": 0.7874015748031497
        },
        {
          "duration": 0.46875,
          "durationTicks": 120,
          "midi": 75,
          "name": "D#5",
          "ticks": 13200,
          "time": 51.5625,
          "velocity": 0.7874015748031497
        },
        {
          "duration": 0.1171875,
          "durationTicks": 30,
          "midi": 76,
          "name": "E5",
          "ticks": 13320,
          "time": 52.03125,
          "velocity": 0.7874015748031497
        },
        {
          "duration": 0.1171875,
          "durationTicks": 30,
          "midi": 75,
          "name": "D#5",
          "ticks": 13350,
          "time": 52.1484375,
          "velocity": 0.7874015748031497
        },
        {
          "duration": 0.703125,
          "durationTicks": 180,
          "midi": 76,
          "name": "E5",
          "ticks": 13380,
          "time": 52.265625,
          "velocity": 0.7874015748031497
        },
        {
          "duration": 0.1171875,
          "durationTicks": 30,
          "midi": 81,
          "name": "A5",
          "ticks": 13560,
          "time": 52.96875,
          "velocity": 0.7874015748031497
        },
        {
          "duration": 0.1171875,
          "durationTicks": 30,
          "midi": 83,
          "name": "B5",
          "ticks": 13590,
          "time": 53.0859375,
          "velocity": 0.7874015748031497
        },
        {
          "duration": 0.1171875,
          "durationTicks": 30,
          "midi": 81,
          "name": "A5",
          "ticks": 13620,
          "time": 53.203125,
          "velocity": 0.7874015748031497
        },
        {
          "duration": 0.1171875,
          "durationTicks": 30,
          "midi": 79,
          "name": "G5",
          "ticks": 13650,
          "time": 53.3203125,
          "velocity": 0.7874015748031497
        },
        {
          "duration": 0.703125,
          "durationTicks": 180,
          "midi": 81,
          "name": "A5",
          "ticks": 13680,
          "time": 53.4375,
          "velocity": 0.7874015748031497
        },
        {
          "duration": 0.234375,
          "durationTicks": 60,
          "midi": 78,
          "name": "F#5",
          "ticks": 13860,
          "time": 54.140625,
          "velocity": 0.7874015748031497
        },
        {
          "duration": 0.46875,
          "durationTicks": 120,
          "midi": 76,
          "name": "E5",
          "ticks": 13920,
          "time": 54.375,
          "velocity": 0.7874015748031497
        },
        {
          "duration": 0.9375,
          "durationTicks": 240,
          "midi": 75,
          "name": "D#5",
          "ticks": 14040,
          "time": 54.84375,
          "velocity": 0.7874015748031497
        },
        {
          "duration": 0.46875,
          "durationTicks": 120,
          "midi": 71,
          "name": "B4",
          "ticks": 14280,
          "time": 55.78125,
          "velocity": 0.7874015748031497
        },
        {
          "duration": 0.1171875,
          "durationTicks": 30,
          "midi": 76,
          "name": "E5",
          "ticks": 14400,
          "time": 56.25,
          "velocity": 0.7874015748031497
        },
        {
          "duration": 0.1171875,
          "durationTicks": 30,
          "midi": 78,
          "name": "F#5",
          "ticks": 14430,
          "time": 56.3671875,
          "velocity": 0.7874015748031497
        },
        {
          "duration": 0.46875,
          "durationTicks": 120,
          "midi": 79,
          "name": "G5",
          "ticks": 14460,
          "time": 56.484375,
          "velocity": 0.7874015748031497
        },
        {
          "duration": 0.234375,
          "durationTicks": 60,
          "midi": 78,
          "name": "F#5",
          "ticks": 14580,
          "time": 56.953125,
          "velocity": 0.7874015748031497
        },
        {
          "duration": 0.46875,
          "durationTicks": 120,
          "midi": 78,
          "name": "F#5",
          "ticks": 14640,
          "time": 57.1875,
          "velocity": 0.7874015748031497
        },
        {
          "duration": 0.703125,
          "durationTicks": 180,
          "midi": 76,
          "name": "E5",
          "ticks": 14760,
          "time": 57.65625,
          "velocity": 0.7874015748031497
        },
        {
          "duration": 0.234375,
          "durationTicks": 60,
          "midi": 71,
          "name": "B4",
          "ticks": 14940,
          "time": 58.359375,
          "velocity": 0.7874015748031497
        },
        {
          "duration": 0.1171875,
          "durationTicks": 30,
          "midi": 72,
          "name": "C5",
          "ticks": 15000,
          "time": 58.59375,
          "velocity": 0.7874015748031497
        },
        {
          "duration": 0.1171875,
          "durationTicks": 30,
          "midi": 71,
          "name": "B4",
          "ticks": 15030,
          "time": 58.7109375,
          "velocity": 0.7874015748031497
        },
        {
          "duration": 0.1171875,
          "durationTicks": 30,
          "midi": 69,
          "name": "A4",
          "ticks": 15060,
          "time": 58.828125,
          "velocity": 0.7874015748031497
        },
        {
          "duration": 0.1171875,
          "durationTicks": 30,
          "midi": 71,
          "name": "B4",
          "ticks": 15090,
          "time": 58.9453125,
          "velocity": 0.7874015748031497
        },
        {
          "duration": 0.1171875,
          "durationTicks": 30,
          "midi": 79,
          "name": "G5",
          "ticks": 15120,
          "time": 59.0625,
          "velocity": 0.7874015748031497
        },
        {
          "duration": 0.3515625,
          "durationTicks": 90,
          "midi": 76,
          "name": "E5",
          "ticks": 15150,
          "time": 59.1796875,
          "velocity": 0.7874015748031497
        },
        {
          "duration": 0.1171875,
          "durationTicks": 30,
          "midi": 78,
          "name": "F#5",
          "ticks": 15240,
          "time": 59.53125,
          "velocity": 0.7874015748031497
        },
        {
          "duration": 0.3515625,
          "durationTicks": 90,
          "midi": 75,
          "name": "D#5",
          "ticks": 15270,
          "time": 59.6484375,
          "velocity": 0.7874015748031497
        },
        {
          "duration": 0.46875,
          "durationTicks": 120,
          "midi": 75,
          "name": "D#5",
          "ticks": 15360,
          "time": 60,
          "velocity": 0.7874015748031497
        },
        {
          "duration": 0.703125,
          "durationTicks": 180,
          "midi": 76,
          "name": "E5",
          "ticks": 15480,
          "time": 60.46875,
          "velocity": 0.7874015748031497
        },
        {
          "duration": 0.234375,
          "durationTicks": 60,
          "midi": 67,
          "name": "G4",
          "ticks": 15660,
          "time": 61.171875,
          "velocity": 0.7874015748031497
        },
        {
          "duration": 0.234375,
          "durationTicks": 60,
          "midi": 66,
          "name": "F#4",
          "ticks": 15720,
          "time": 61.40625,
          "velocity": 0.7874015748031497
        },
        {
          "duration": 0.234375,
          "durationTicks": 60,
          "midi": 64,
          "name": "E4",
          "ticks": 15780,
          "time": 61.640625,
          "velocity": 0.7874015748031497
        },
        {
          "duration": 0.703125,
          "durationTicks": 180,
          "midi": 66,
          "name": "F#4",
          "ticks": 15840,
          "time": 61.875,
          "velocity": 0.7874015748031497
        },
        {
          "duration": 0.234375,
          "durationTicks": 60,
          "midi": 76,
          "name": "E5",
          "ticks": 16020,
          "time": 62.578125,
          "velocity": 0.7874015748031497
        },
        {
          "duration": 0.234375,
          "durationTicks": 60,
          "midi": 76,
          "name": "E5",
          "ticks": 16080,
          "time": 62.8125,
          "velocity": 0.7874015748031497
        },
        {
          "duration": 0.234375,
          "durationTicks": 60,
          "midi": 75,
          "name": "D#5",
          "ticks": 16140,
          "time": 63.046875,
          "velocity": 0.7874015748031497
        },
        {
          "duration": 0.1171875,
          "durationTicks": 30,
          "midi": 78,
          "name": "F#5",
          "ticks": 16200,
          "time": 63.28125,
          "velocity": 0.7874015748031497
        },
        {
          "duration": 0.1171875,
          "durationTicks": 30,
          "midi": 79,
          "name": "G5",
          "ticks": 16230,
          "time": 63.3984375,
          "velocity": 0.7874015748031497
        },
        {
          "duration": 0.234375,
          "durationTicks": 60,
          "midi": 81,
          "name": "A5",
          "ticks": 16260,
          "time": 63.515625,
          "velocity": 0.7874015748031497
        },
        {
          "duration": 0.46875,
          "durationTicks": 120,
          "midi": 79,
          "name": "G5",
          "ticks": 16320,
          "time": 63.75,
          "velocity": 0.7874015748031497
        },
        {
          "duration": 0.46875,
          "durationTicks": 120,
          "midi": 78,
          "name": "F#5",
          "ticks": 16440,
          "time": 64.21875,
          "velocity": 0.7874015748031497
        },
        {
          "duration": 0.703125,
          "durationTicks": 180,
          "midi": 76,
          "name": "E5",
          "ticks": 16560,
          "time": 64.6875,
          "velocity": 0.7874015748031497
        },
        {
          "duration": 0.1171875,
          "durationTicks": 30,
          "midi": 78,
          "name": "F#5",
          "ticks": 16740,
          "time": 65.390625,
          "velocity": 0.7874015748031497
        },
        {
          "duration": 0.1171875,
          "durationTicks": 30,
          "midi": 75,
          "name": "D#5",
          "ticks": 16770,
          "time": 65.5078125,
          "velocity": 0.7874015748031497
        },
        {
          "duration": 0.46875,
          "durationTicks": 120,
          "midi": 75,
          "name": "D#5",
          "ticks": 16800,
          "time": 65.625,
          "velocity": 0.7874015748031497
        },
        {
          "duration": 1.40625,
          "durationTicks": 360,
          "midi": 76,
          "name": "E5",
          "ticks": 16920,
          "time": 66.09375,
          "velocity": 0.7874015748031497
        },
        {
          "duration": 0.46875,
          "durationTicks": 120,
          "midi": 76,
          "name": "E5",
          "ticks": 17280,
          "time": 67.5,
          "velocity": 0.7874015748031497
        },
        {
          "duration": 0.234375,
          "durationTicks": 60,
          "midi": 74,
          "name": "D5",
          "ticks": 17400,
          "time": 67.96875,
          "velocity": 0.7874015748031497
        },
        {
          "duration": 0.234375,
          "durationTicks": 60,
          "midi": 72,
          "name": "C5",
          "ticks": 17460,
          "time": 68.203125,
          "velocity": 0.7874015748031497
        },
        {
          "duration": 0.46875,
          "durationTicks": 120,
          "midi": 71,
          "name": "B4",
          "ticks": 17520,
          "time": 68.4375,
          "velocity": 0.7874015748031497
        },
        {
          "duration": 0.9375,
          "durationTicks": 240,
          "midi": 69,
          "name": "A4",
          "ticks": 17640,
          "time": 68.90625,
          "velocity": 0.7874015748031497
        },
        {
          "duration": 0.234375,
          "durationTicks": 60,
          "midi": 71,
          "name": "B4",
          "ticks": 17880,
          "time": 69.84375,
          "velocity": 0.7874015748031497
        },
        {
          "duration": 0.234375,
          "durationTicks": 60,
          "midi": 72,
          "name": "C5",
          "ticks": 17940,
          "time": 70.078125,
          "velocity": 0.7874015748031497
        },
        {
          "duration": 0.1171875,
          "durationTicks": 30,
          "midi": 74,
          "name": "D5",
          "ticks": 18000,
          "time": 70.3125,
          "velocity": 0.7874015748031497
        },
        {
          "duration": 0.1171875,
          "durationTicks": 30,
          "midi": 72,
          "name": "C5",
          "ticks": 18030,
          "time": 70.4296875,
          "velocity": 0.7874015748031497
        },
        {
          "duration": 0.234375,
          "durationTicks": 60,
          "midi": 71,
          "name": "B4",
          "ticks": 18060,
          "time": 70.546875,
          "velocity": 0.7874015748031497
        },
        {
          "duration": 0.1171875,
          "durationTicks": 30,
          "midi": 72,
          "name": "C5",
          "ticks": 18120,
          "time": 70.78125,
          "velocity": 0.7874015748031497
        },
        {
          "duration": 0.1171875,
          "durationTicks": 30,
          "midi": 71,
          "name": "B4",
          "ticks": 18150,
          "time": 70.8984375,
          "velocity": 0.7874015748031497
        },
        {
          "duration": 0.234375,
          "durationTicks": 60,
          "midi": 69,
          "name": "A4",
          "ticks": 18180,
          "time": 71.015625,
          "velocity": 0.7874015748031497
        },
        {
          "duration": 0.46875,
          "durationTicks": 120,
          "midi": 69,
          "name": "A4",
          "ticks": 18240,
          "time": 71.25,
          "velocity": 0.7874015748031497
        },
        {
          "duration": 0.9375,
          "durationTicks": 240,
          "midi": 67,
          "name": "G4",
          "ticks": 18360,
          "time": 71.71875,
          "velocity": 0.7874015748031497
        },
        {
          "duration": 0.234375,
          "durationTicks": 60,
          "midi": 69,
          "name": "A4",
          "ticks": 18600,
          "time": 72.65625,
          "velocity": 0.7874015748031497
        },
        {
          "duration": 0.234375,
          "durationTicks": 60,
          "midi": 71,
          "name": "B4",
          "ticks": 18660,
          "time": 72.890625,
          "velocity": 0.7874015748031497
        },
        {
          "duration": 0.234375,
          "durationTicks": 60,
          "midi": 72,
          "name": "C5",
          "ticks": 18720,
          "time": 73.125,
          "velocity": 0.7874015748031497
        },
        {
          "duration": 0.234375,
          "durationTicks": 60,
          "midi": 74,
          "name": "D5",
          "ticks": 18780,
          "time": 73.359375,
          "velocity": 0.7874015748031497
        },
        {
          "duration": 0.234375,
          "durationTicks": 60,
          "midi": 72,
          "name": "C5",
          "ticks": 18840,
          "time": 73.59375,
          "velocity": 0.7874015748031497
        },
        {
          "duration": 0.234375,
          "durationTicks": 60,
          "midi": 71,
          "name": "B4",
          "ticks": 18900,
          "time": 73.828125,
          "velocity": 0.7874015748031497
        },
        {
          "duration": 0.234375,
          "durationTicks": 60,
          "midi": 72,
          "name": "C5",
          "ticks": 18960,
          "time": 74.0625,
          "velocity": 0.7874015748031497
        },
        {
          "duration": 0.234375,
          "durationTicks": 60,
          "midi": 69,
          "name": "A4",
          "ticks": 19020,
          "time": 74.296875,
          "velocity": 0.7874015748031497
        },
        {
          "duration": 0.234375,
          "durationTicks": 60,
          "midi": 64,
          "name": "E4",
          "ticks": 19080,
          "time": 74.53125,
          "velocity": 0.7874015748031497
        },
        {
          "duration": 0.234375,
          "durationTicks": 60,
          "midi": 69,
          "name": "A4",
          "ticks": 19140,
          "time": 74.765625,
          "velocity": 0.7874015748031497
        },
        {
          "duration": 0.234375,
          "durationTicks": 60,
          "midi": 72,
          "name": "C5",
          "ticks": 19200,
          "time": 75,
          "velocity": 0.7874015748031497
        },
        {
          "duration": 0.234375,
          "durationTicks": 60,
          "midi": 71,
          "name": "B4",
          "ticks": 19260,
          "time": 75.234375,
          "velocity": 0.7874015748031497
        },
        {
          "duration": 0.234375,
          "durationTicks": 60,
          "midi": 69,
          "name": "A4",
          "ticks": 19320,
          "time": 75.46875,
          "velocity": 0.7874015748031497
        },
        {
          "duration": 0.234375,
          "durationTicks": 60,
          "midi": 67,
          "name": "G4",
          "ticks": 19380,
          "time": 75.703125,
          "velocity": 0.7874015748031497
        },
        {
          "duration": 0.234375,
          "durationTicks": 60,
          "midi": 66,
          "name": "F#4",
          "ticks": 19440,
          "time": 75.9375,
          "velocity": 0.7874015748031497
        },
        {
          "duration": 0.234375,
          "durationTicks": 60,
          "midi": 74,
          "name": "D5",
          "ticks": 19500,
          "time": 76.171875,
          "velocity": 0.7874015748031497
        },
        {
          "duration": 0.234375,
          "durationTicks": 60,
          "midi": 72,
          "name": "C5",
          "ticks": 19560,
          "time": 76.40625,
          "velocity": 0.7874015748031497
        },
        {
          "duration": 0.234375,
          "durationTicks": 60,
          "midi": 71,
          "name": "B4",
          "ticks": 19620,
          "time": 76.640625,
          "velocity": 0.7874015748031497
        },
        {
          "duration": 0.234375,
          "durationTicks": 60,
          "midi": 72,
          "name": "C5",
          "ticks": 19680,
          "time": 76.875,
          "velocity": 0.7874015748031497
        },
        {
          "duration": 0.234375,
          "durationTicks": 60,
          "midi": 69,
          "name": "A4",
          "ticks": 19740,
          "time": 77.109375,
          "velocity": 0.7874015748031497
        },
        {
          "duration": 0.234375,
          "durationTicks": 60,
          "midi": 66,
          "name": "F#4",
          "ticks": 19800,
          "time": 77.34375,
          "velocity": 0.7874015748031497
        },
        {
          "duration": 0.234375,
          "durationTicks": 60,
          "midi": 69,
          "name": "A4",
          "ticks": 19860,
          "time": 77.578125,
          "velocity": 0.7874015748031497
        },
        {
          "duration": 0.234375,
          "durationTicks": 60,
          "midi": 72,
          "name": "C5",
          "ticks": 19920,
          "time": 77.8125,
          "velocity": 0.7874015748031497
        },
        {
          "duration": 0.234375,
          "durationTicks": 60,
          "midi": 76,
          "name": "E5",
          "ticks": 19980,
          "time": 78.046875,
          "velocity": 0.7874015748031497
        },
        {
          "duration": 0.234375,
          "durationTicks": 60,
          "midi": 74,
          "name": "D5",
          "ticks": 20040,
          "time": 78.28125,
          "velocity": 0.7874015748031497
        },
        {
          "duration": 0.234375,
          "durationTicks": 60,
          "midi": 72,
          "name": "C5",
          "ticks": 20100,
          "time": 78.515625,
          "velocity": 0.7874015748031497
        },
        {
          "duration": 0.234375,
          "durationTicks": 60,
          "midi": 67,
          "name": "G4",
          "ticks": 20160,
          "time": 78.75,
          "velocity": 0.7874015748031497
        },
        {
          "duration": 0.234375,
          "durationTicks": 60,
          "midi": 71,
          "name": "B4",
          "ticks": 20160,
          "time": 78.75,
          "velocity": 0.7874015748031497
        },
        {
          "duration": 0.234375,
          "durationTicks": 60,
          "midi": 72,
          "name": "C5",
          "ticks": 20220,
          "time": 78.984375,
          "velocity": 0.7874015748031497
        },
        {
          "duration": 0.234375,
          "durationTicks": 60,
          "midi": 71,
          "name": "B4",
          "ticks": 20280,
          "time": 79.21875,
          "velocity": 0.7874015748031497
        },
        {
          "duration": 0.234375,
          "durationTicks": 60,
          "midi": 69,
          "name": "A4",
          "ticks": 20340,
          "time": 79.453125,
          "velocity": 0.7874015748031497
        },
        {
          "duration": 0.234375,
          "durationTicks": 60,
          "midi": 71,
          "name": "B4",
          "ticks": 20400,
          "time": 79.6875,
          "velocity": 0.7874015748031497
        },
        {
          "duration": 0.234375,
          "durationTicks": 60,
          "midi": 67,
          "name": "G4",
          "ticks": 20460,
          "time": 79.921875,
          "velocity": 0.7874015748031497
        },
        {
          "duration": 0.234375,
          "durationTicks": 60,
          "midi": 62,
          "name": "D4",
          "ticks": 20520,
          "time": 80.15625,
          "velocity": 0.7874015748031497
        },
        {
          "duration": 0.234375,
          "durationTicks": 60,
          "midi": 67,
          "name": "G4",
          "ticks": 20580,
          "time": 80.390625,
          "velocity": 0.7874015748031497
        },
        {
          "duration": 0.234375,
          "durationTicks": 60,
          "midi": 71,
          "name": "B4",
          "ticks": 20640,
          "time": 80.625,
          "velocity": 0.7874015748031497
        },
        {
          "duration": 0.234375,
          "durationTicks": 60,
          "midi": 67,
          "name": "G4",
          "ticks": 20700,
          "time": 80.859375,
          "velocity": 0.7874015748031497
        },
        {
          "duration": 0.234375,
          "durationTicks": 60,
          "midi": 72,
          "name": "C5",
          "ticks": 20760,
          "time": 81.09375,
          "velocity": 0.7874015748031497
        },
        {
          "duration": 0.234375,
          "durationTicks": 60,
          "midi": 74,
          "name": "D5",
          "ticks": 20820,
          "time": 81.328125,
          "velocity": 0.7874015748031497
        },
        {
          "duration": 0.234375,
          "durationTicks": 60,
          "midi": 67,
          "name": "G4",
          "ticks": 20880,
          "time": 81.5625,
          "velocity": 0.7874015748031497
        },
        {
          "duration": 0.234375,
          "durationTicks": 60,
          "midi": 76,
          "name": "E5",
          "ticks": 20880,
          "time": 81.5625,
          "velocity": 0.7874015748031497
        },
        {
          "duration": 0.234375,
          "durationTicks": 60,
          "midi": 77,
          "name": "F5",
          "ticks": 20940,
          "time": 81.796875,
          "velocity": 0.7874015748031497
        },
        {
          "duration": 0.234375,
          "durationTicks": 60,
          "midi": 76,
          "name": "E5",
          "ticks": 21000,
          "time": 82.03125,
          "velocity": 0.7874015748031497
        },
        {
          "duration": 0.234375,
          "durationTicks": 60,
          "midi": 74,
          "name": "D5",
          "ticks": 21060,
          "time": 82.265625,
          "velocity": 0.7874015748031497
        },
        {
          "duration": 0.234375,
          "durationTicks": 60,
          "midi": 76,
          "name": "E5",
          "ticks": 21120,
          "time": 82.5,
          "velocity": 0.7874015748031497
        },
        {
          "duration": 0.234375,
          "durationTicks": 60,
          "midi": 72,
          "name": "C5",
          "ticks": 21180,
          "time": 82.734375,
          "velocity": 0.7874015748031497
        },
        {
          "duration": 0.234375,
          "durationTicks": 60,
          "midi": 67,
          "name": "G4",
          "ticks": 21240,
          "time": 82.96875,
          "velocity": 0.7874015748031497
        },
        {
          "duration": 0.234375,
          "durationTicks": 60,
          "midi": 72,
          "name": "C5",
          "ticks": 21300,
          "time": 83.203125,
          "velocity": 0.7874015748031497
        },
        {
          "duration": 0.234375,
          "durationTicks": 60,
          "midi": 76,
          "name": "E5",
          "ticks": 21360,
          "time": 83.4375,
          "velocity": 0.7874015748031497
        },
        {
          "duration": 0.234375,
          "durationTicks": 60,
          "midi": 72,
          "name": "C5",
          "ticks": 21420,
          "time": 83.671875,
          "velocity": 0.7874015748031497
        },
        {
          "duration": 0.234375,
          "durationTicks": 60,
          "midi": 78,
          "name": "F#5",
          "ticks": 21480,
          "time": 83.90625,
          "velocity": 0.7874015748031497
        },
        {
          "duration": 0.234375,
          "durationTicks": 60,
          "midi": 79,
          "name": "G5",
          "ticks": 21540,
          "time": 84.140625,
          "velocity": 0.7874015748031497
        },
        {
          "duration": 0.234375,
          "durationTicks": 60,
          "midi": 81,
          "name": "A5",
          "ticks": 21600,
          "time": 84.375,
          "velocity": 0.7874015748031497
        },
        {
          "duration": 0.234375,
          "durationTicks": 60,
          "midi": 72,
          "name": "C5",
          "ticks": 21660,
          "time": 84.609375,
          "velocity": 0.7874015748031497
        },
        {
          "duration": 0.234375,
          "durationTicks": 60,
          "midi": 71,
          "name": "B4",
          "ticks": 21720,
          "time": 84.84375,
          "velocity": 0.7874015748031497
        },
        {
          "duration": 0.234375,
          "durationTicks": 60,
          "midi": 69,
          "name": "A4",
          "ticks": 21780,
          "time": 85.078125,
          "velocity": 0.7874015748031497
        },
        {
          "duration": 0.234375,
          "durationTicks": 60,
          "midi": 71,
          "name": "B4",
          "ticks": 21840,
          "time": 85.3125,
          "velocity": 0.7874015748031497
        },
        {
          "duration": 0.234375,
          "durationTicks": 60,
          "midi": 72,
          "name": "C5",
          "ticks": 21900,
          "time": 85.546875,
          "velocity": 0.7874015748031497
        },
        {
          "duration": 0.234375,
          "durationTicks": 60,
          "midi": 74,
          "name": "D5",
          "ticks": 21960,
          "time": 85.78125,
          "velocity": 0.7874015748031497
        },
        {
          "duration": 0.234375,
          "durationTicks": 60,
          "midi": 67,
          "name": "G4",
          "ticks": 22020,
          "time": 86.015625,
          "velocity": 0.7874015748031497
        },
        {
          "duration": 0.234375,
          "durationTicks": 60,
          "midi": 71,
          "name": "B4",
          "ticks": 22080,
          "time": 86.25,
          "velocity": 0.7874015748031497
        },
        {
          "duration": 0.234375,
          "durationTicks": 60,
          "midi": 69,
          "name": "A4",
          "ticks": 22140,
          "time": 86.484375,
          "velocity": 0.7874015748031497
        },
        {
          "duration": 0.234375,
          "durationTicks": 60,
          "midi": 67,
          "name": "G4",
          "ticks": 22200,
          "time": 86.71875,
          "velocity": 0.7874015748031497
        },
        {
          "duration": 0.234375,
          "durationTicks": 60,
          "midi": 66,
          "name": "F#4",
          "ticks": 22260,
          "time": 86.953125,
          "velocity": 0.7874015748031497
        },
        {
          "duration": 1.171875,
          "durationTicks": 300,
          "midi": 67,
          "name": "G4",
          "ticks": 22320,
          "time": 87.1875,
          "velocity": 0.7874015748031497
        },
        {
          "duration": 0.234375,
          "durationTicks": 60,
          "midi": 62,
          "name": "D4",
          "ticks": 22620,
          "time": 88.359375,
          "velocity": 0.7874015748031497
        },
        {
          "duration": 0.234375,
          "durationTicks": 60,
          "midi": 67,
          "name": "G4",
          "ticks": 22680,
          "time": 88.59375,
          "velocity": 0.7874015748031497
        },
        {
          "duration": 0.234375,
          "durationTicks": 60,
          "midi": 66,
          "name": "F#4",
          "ticks": 22740,
          "time": 88.828125,
          "velocity": 0.7874015748031497
        },
        {
          "duration": 0.9375,
          "durationTicks": 240,
          "midi": 66,
          "name": "F#4",
          "ticks": 22800,
          "time": 89.0625,
          "velocity": 0.7874015748031497
        },
        {
          "duration": 0.125,
          "durationTicks": 60,
          "midi": 67,
          "name": "G4",
          "ticks": 23040,
          "time": 90,
          "velocity": 0.7874015748031497
        },
        {
          "duration": 0.1171875,
          "durationTicks": 60,
          "midi": 66,
          "name": "F#4",
          "ticks": 23100,
          "time": 90.125,
          "velocity": 0.7874015748031497
        },
        {
          "duration": 0.3515625,
          "durationTicks": 180,
          "midi": 67,
          "name": "G4",
          "ticks": 23160,
          "time": 90.2421875,
          "velocity": 0.7874015748031497
        },
        {
          "duration": 0.1171875,
          "durationTicks": 60,
          "midi": 62,
          "name": "D4",
          "ticks": 23340,
          "time": 90.59375,
          "velocity": 0.7874015748031497
        },
        {
          "duration": 0.1171875,
          "durationTicks": 60,
          "midi": 64,
          "name": "E4",
          "ticks": 23400,
          "time": 90.7109375,
          "velocity": 0.7874015748031497
        },
        {
          "duration": 0.1171875,
          "durationTicks": 60,
          "midi": 66,
          "name": "F#4",
          "ticks": 23460,
          "time": 90.828125,
          "velocity": 0.7874015748031497
        },
        {
          "duration": 0.1171875,
          "durationTicks": 60,
          "midi": 67,
          "name": "G4",
          "ticks": 23520,
          "time": 90.9453125,
          "velocity": 0.7874015748031497
        },
        {
          "duration": 0.1171875,
          "durationTicks": 60,
          "midi": 69,
          "name": "A4",
          "ticks": 23580,
          "time": 91.0625,
          "velocity": 0.7874015748031497
        },
        {
          "duration": 0.1171875,
          "durationTicks": 60,
          "midi": 71,
          "name": "B4",
          "ticks": 23640,
          "time": 91.1796875,
          "velocity": 0.7874015748031497
        },
        {
          "duration": 0.1171875,
          "durationTicks": 60,
          "midi": 73,
          "name": "C#5",
          "ticks": 23700,
          "time": 91.296875,
          "velocity": 0.7874015748031497
        },
        {
          "duration": 0.1171875,
          "durationTicks": 60,
          "midi": 74,
          "name": "D5",
          "ticks": 23760,
          "time": 91.4140625,
          "velocity": 0.7874015748031497
        },
        {
          "duration": 0.1171875,
          "durationTicks": 60,
          "midi": 73,
          "name": "C#5",
          "ticks": 23820,
          "time": 91.53125,
          "velocity": 0.7874015748031497
        },
        {
          "duration": 0.3515625,
          "durationTicks": 180,
          "midi": 74,
          "name": "D5",
          "ticks": 23880,
          "time": 91.6484375,
          "velocity": 0.7874015748031497
        },
        {
          "duration": 0.1171875,
          "durationTicks": 60,
          "midi": 69,
          "name": "A4",
          "ticks": 24060,
          "time": 92,
          "velocity": 0.7874015748031497
        },
        {
          "duration": 0.1171875,
          "durationTicks": 60,
          "midi": 71,
          "name": "B4",
          "ticks": 24120,
          "time": 92.1171875,
          "velocity": 0.7874015748031497
        },
        {
          "duration": 0.1171875,
          "durationTicks": 60,
          "midi": 73,
          "name": "C#5",
          "ticks": 24180,
          "time": 92.234375,
          "velocity": 0.7874015748031497
        },
        {
          "duration": 0.1171875,
          "durationTicks": 60,
          "midi": 74,
          "name": "D5",
          "ticks": 24240,
          "time": 92.3515625,
          "velocity": 0.7874015748031497
        },
        {
          "duration": 0.1171875,
          "durationTicks": 60,
          "midi": 76,
          "name": "E5",
          "ticks": 24300,
          "time": 92.46875,
          "velocity": 0.7874015748031497
        },
        {
          "duration": 0.1171875,
          "durationTicks": 60,
          "midi": 78,
          "name": "F#5",
          "ticks": 24360,
          "time": 92.5859375,
          "velocity": 0.7874015748031497
        },
        {
          "duration": 0.1171875,
          "durationTicks": 60,
          "midi": 74,
          "name": "D5",
          "ticks": 24420,
          "time": 92.703125,
          "velocity": 0.7874015748031497
        },
        {
          "duration": 0.1171875,
          "durationTicks": 60,
          "midi": 79,
          "name": "G5",
          "ticks": 24480,
          "time": 92.8203125,
          "velocity": 0.7874015748031497
        },
        {
          "duration": 0.1171875,
          "durationTicks": 60,
          "midi": 78,
          "name": "F#5",
          "ticks": 24540,
          "time": 92.9375,
          "velocity": 0.7874015748031497
        },
        {
          "duration": 0.3515625,
          "durationTicks": 180,
          "midi": 79,
          "name": "G5",
          "ticks": 24600,
          "time": 93.0546875,
          "velocity": 0.7874015748031497
        },
        {
          "duration": 0.1171875,
          "durationTicks": 60,
          "midi": 78,
          "name": "F#5",
          "ticks": 24780,
          "time": 93.40625,
          "velocity": 0.7874015748031497
        },
        {
          "duration": 0.1171875,
          "durationTicks": 60,
          "midi": 76,
          "name": "E5",
          "ticks": 24840,
          "time": 93.5234375,
          "velocity": 0.7874015748031497
        },
        {
          "duration": 0.1171875,
          "durationTicks": 60,
          "midi": 74,
          "name": "D5",
          "ticks": 24900,
          "time": 93.640625,
          "velocity": 0.7874015748031497
        },
        {
          "duration": 0.1171875,
          "durationTicks": 60,
          "midi": 73,
          "name": "C#5",
          "ticks": 24960,
          "time": 93.7578125,
          "velocity": 0.7874015748031497
        },
        {
          "duration": 0.1171875,
          "durationTicks": 60,
          "midi": 76,
          "name": "E5",
          "ticks": 25020,
          "time": 93.875,
          "velocity": 0.7874015748031497
        },
        {
          "duration": 0.1171875,
          "durationTicks": 60,
          "midi": 69,
          "name": "A4",
          "ticks": 25080,
          "time": 93.9921875,
          "velocity": 0.7874015748031497
        },
        {
          "duration": 0.1171875,
          "durationTicks": 60,
          "midi": 67,
          "name": "G4",
          "ticks": 25140,
          "time": 94.109375,
          "velocity": 0.7874015748031497
        },
        {
          "duration": 0.1171875,
          "durationTicks": 60,
          "midi": 66,
          "name": "F#4",
          "ticks": 25200,
          "time": 94.2265625,
          "velocity": 0.7874015748031497
        },
        {
          "duration": 0.1171875,
          "durationTicks": 60,
          "midi": 64,
          "name": "E4",
          "ticks": 25260,
          "time": 94.34375,
          "velocity": 0.7874015748031497
        },
        {
          "duration": 0.1171875,
          "durationTicks": 60,
          "midi": 62,
          "name": "D4",
          "ticks": 25320,
          "time": 94.4609375,
          "velocity": 0.7874015748031497
        },
        {
          "duration": 0.1171875,
          "durationTicks": 60,
          "midi": 61,
          "name": "C#4",
          "ticks": 25380,
          "time": 94.578125,
          "velocity": 0.7874015748031497
        },
        {
          "duration": 0.1171875,
          "durationTicks": 60,
          "midi": 62,
          "name": "D4",
          "ticks": 25440,
          "time": 94.6953125,
          "velocity": 0.7874015748031497
        },
        {
          "duration": 0.1171875,
          "durationTicks": 60,
          "midi": 66,
          "name": "F#4",
          "ticks": 25500,
          "time": 94.8125,
          "velocity": 0.7874015748031497
        },
        {
          "duration": 0.1171875,
          "durationTicks": 60,
          "midi": 57,
          "name": "A3",
          "ticks": 25560,
          "time": 94.9296875,
          "velocity": 0.7874015748031497
        },
        {
          "duration": 0.1171875,
          "durationTicks": 60,
          "midi": 55,
          "name": "G3",
          "ticks": 25620,
          "time": 95.046875,
          "velocity": 0.7874015748031497
        },
        {
          "duration": 0.1171875,
          "durationTicks": 60,
          "midi": 54,
          "name": "F#3",
          "ticks": 25680,
          "time": 95.1640625,
          "velocity": 0.7874015748031497
        },
        {
          "duration": 0.1171875,
          "durationTicks": 60,
          "midi": 57,
          "name": "A3",
          "ticks": 25740,
          "time": 95.28125,
          "velocity": 0.7874015748031497
        },
        {
          "duration": 0.1171875,
          "durationTicks": 60,
          "midi": 62,
          "name": "D4",
          "ticks": 25800,
          "time": 95.3984375,
          "velocity": 0.7874015748031497
        },
        {
          "duration": 0.1171875,
          "durationTicks": 60,
          "midi": 48,
          "name": "C3",
          "ticks": 25860,
          "time": 95.515625,
          "velocity": 0.7874015748031497
        },
        {
          "duration": 0.1171875,
          "durationTicks": 60,
          "midi": 74,
          "name": "D5",
          "ticks": 26040,
          "time": 95.8671875,
          "velocity": 0.7874015748031497
        },
        {
          "duration": 0.1171875,
          "durationTicks": 60,
          "midi": 72,
          "name": "C5",
          "ticks": 26100,
          "time": 95.984375,
          "velocity": 0.7874015748031497
        },
        {
          "duration": 0.234375,
          "durationTicks": 120,
          "midi": 74,
          "name": "D5",
          "ticks": 26160,
          "time": 96.1015625,
          "velocity": 0.7874015748031497
        },
        {
          "duration": 0.234375,
          "durationTicks": 120,
          "midi": 67,
          "name": "G4",
          "ticks": 26280,
          "time": 96.3359375,
          "velocity": 0.7874015748031497
        },
        {
          "duration": 0.234375,
          "durationTicks": 120,
          "midi": 59,
          "name": "B3",
          "ticks": 26400,
          "time": 96.5703125,
          "velocity": 0.7874015748031497
        },
        {
          "duration": 0.234375,
          "durationTicks": 120,
          "midi": 74,
          "name": "D5",
          "ticks": 26520,
          "time": 96.8046875,
          "velocity": 0.7874015748031497
        },
        {
          "duration": 0.1171875,
          "durationTicks": 60,
          "midi": 76,
          "name": "E5",
          "ticks": 26760,
          "time": 97.2734375,
          "velocity": 0.7874015748031497
        },
        {
          "duration": 0.1171875,
          "durationTicks": 60,
          "midi": 74,
          "name": "D5",
          "ticks": 26820,
          "time": 97.390625,
          "velocity": 0.7874015748031497
        },
        {
          "duration": 0.234375,
          "durationTicks": 120,
          "midi": 76,
          "name": "E5",
          "ticks": 26880,
          "time": 97.5078125,
          "velocity": 0.7874015748031497
        },
        {
          "duration": 0.234375,
          "durationTicks": 120,
          "midi": 69,
          "name": "A4",
          "ticks": 27000,
          "time": 97.7421875,
          "velocity": 0.7874015748031497
        },
        {
          "duration": 0.234375,
          "durationTicks": 120,
          "midi": 60,
          "name": "C4",
          "ticks": 27120,
          "time": 97.9765625,
          "velocity": 0.7874015748031497
        },
        {
          "duration": 0.234375,
          "durationTicks": 120,
          "midi": 76,
          "name": "E5",
          "ticks": 27240,
          "time": 98.2109375,
          "velocity": 0.7874015748031497
        },
        {
          "duration": 0.1171875,
          "durationTicks": 60,
          "midi": 78,
          "name": "F#5",
          "ticks": 27480,
          "time": 98.6796875,
          "velocity": 0.7874015748031497
        },
        {
          "duration": 0.1171875,
          "durationTicks": 60,
          "midi": 76,
          "name": "E5",
          "ticks": 27540,
          "time": 98.796875,
          "velocity": 0.7874015748031497
        },
        {
          "duration": 0.234375,
          "durationTicks": 120,
          "midi": 78,
          "name": "F#5",
          "ticks": 27600,
          "time": 98.9140625,
          "velocity": 0.7874015748031497
        },
        {
          "duration": 0.234375,
          "durationTicks": 120,
          "midi": 74,
          "name": "D5",
          "ticks": 27720,
          "time": 99.1484375,
          "velocity": 0.7874015748031497
        },
        {
          "duration": 0.234375,
          "durationTicks": 120,
          "midi": 81,
          "name": "A5",
          "ticks": 27840,
          "time": 99.3828125,
          "velocity": 0.7874015748031497
        },
        {
          "duration": 0.46875,
          "durationTicks": 240,
          "midi": 72,
          "name": "C5",
          "ticks": 27960,
          "time": 99.6171875,
          "velocity": 0.7874015748031497
        },
        {
          "duration": 0.234375,
          "durationTicks": 120,
          "midi": 71,
          "name": "B4",
          "ticks": 28200,
          "time": 100.0859375,
          "velocity": 0.7874015748031497
        },
        {
          "duration": 0.1171875,
          "durationTicks": 60,
          "midi": 67,
          "name": "G4",
          "ticks": 28380,
          "time": 100.4375,
          "velocity": 0.7874015748031497
        },
        {
          "duration": 0.1171875,
          "durationTicks": 60,
          "midi": 71,
          "name": "B4",
          "ticks": 28440,
          "time": 100.5546875,
          "velocity": 0.7874015748031497
        },
        {
          "duration": 0.1171875,
          "durationTicks": 60,
          "midi": 74,
          "name": "D5",
          "ticks": 28500,
          "time": 100.671875,
          "velocity": 0.7874015748031497
        },
        {
          "duration": 0.1171875,
          "durationTicks": 60,
          "midi": 79,
          "name": "G5",
          "ticks": 28560,
          "time": 100.7890625,
          "velocity": 0.7874015748031497
        },
        {
          "duration": 0.1171875,
          "durationTicks": 60,
          "midi": 74,
          "name": "D5",
          "ticks": 28620,
          "time": 100.90625,
          "velocity": 0.7874015748031497
        },
        {
          "duration": 0.1171875,
          "durationTicks": 60,
          "midi": 79,
          "name": "G5",
          "ticks": 28680,
          "time": 101.0234375,
          "velocity": 0.7874015748031497
        },
        {
          "duration": 0.1171875,
          "durationTicks": 60,
          "midi": 81,
          "name": "A5",
          "ticks": 28740,
          "time": 101.140625,
          "velocity": 0.7874015748031497
        },
        {
          "duration": 0.1171875,
          "durationTicks": 60,
          "midi": 83,
          "name": "B5",
          "ticks": 28800,
          "time": 101.2578125,
          "velocity": 0.7874015748031497
        },
        {
          "duration": 0.1171875,
          "durationTicks": 60,
          "midi": 79,
          "name": "G5",
          "ticks": 28860,
          "time": 101.375,
          "velocity": 0.7874015748031497
        },
        {
          "duration": 0.1171875,
          "durationTicks": 60,
          "midi": 74,
          "name": "D5",
          "ticks": 28920,
          "time": 101.4921875,
          "velocity": 0.7874015748031497
        },
        {
          "duration": 0.1171875,
          "durationTicks": 60,
          "midi": 71,
          "name": "B4",
          "ticks": 28980,
          "time": 101.609375,
          "velocity": 0.7874015748031497
        },
        {
          "duration": 0.1171875,
          "durationTicks": 60,
          "midi": 67,
          "name": "G4",
          "ticks": 29040,
          "time": 101.7265625,
          "velocity": 0.7874015748031497
        },
        {
          "duration": 0.1171875,
          "durationTicks": 60,
          "midi": 71,
          "name": "B4",
          "ticks": 29100,
          "time": 101.84375,
          "velocity": 0.7874015748031497
        },
        {
          "duration": 0.1171875,
          "durationTicks": 60,
          "midi": 74,
          "name": "D5",
          "ticks": 29160,
          "time": 101.9609375,
          "velocity": 0.7874015748031497
        },
        {
          "duration": 0.1171875,
          "durationTicks": 60,
          "midi": 79,
          "name": "G5",
          "ticks": 29220,
          "time": 102.078125,
          "velocity": 0.7874015748031497
        },
        {
          "duration": 0.1171875,
          "durationTicks": 60,
          "midi": 83,
          "name": "B5",
          "ticks": 29280,
          "time": 102.1953125,
          "velocity": 0.7874015748031497
        },
        {
          "duration": 0.1171875,
          "durationTicks": 60,
          "midi": 79,
          "name": "G5",
          "ticks": 29340,
          "time": 102.3125,
          "velocity": 0.7874015748031497
        },
        {
          "duration": 0.1171875,
          "durationTicks": 60,
          "midi": 78,
          "name": "F#5",
          "ticks": 29400,
          "time": 102.4296875,
          "velocity": 0.7874015748031497
        },
        {
          "duration": 0.1171875,
          "durationTicks": 60,
          "midi": 76,
          "name": "E5",
          "ticks": 29460,
          "time": 102.546875,
          "velocity": 0.7874015748031497
        },
        {
          "duration": 0.1171875,
          "durationTicks": 60,
          "midi": 81,
          "name": "A5",
          "ticks": 29520,
          "time": 102.6640625,
          "velocity": 0.7874015748031497
        },
        {
          "duration": 0.1171875,
          "durationTicks": 60,
          "midi": 76,
          "name": "E5",
          "ticks": 29580,
          "time": 102.78125,
          "velocity": 0.7874015748031497
        },
        {
          "duration": 0.1171875,
          "durationTicks": 60,
          "midi": 73,
          "name": "C#5",
          "ticks": 29640,
          "time": 102.8984375,
          "velocity": 0.7874015748031497
        },
        {
          "duration": 0.1171875,
          "durationTicks": 60,
          "midi": 69,
          "name": "A4",
          "ticks": 29700,
          "time": 103.015625,
          "velocity": 0.7874015748031497
        },
        {
          "duration": 0.1171875,
          "durationTicks": 60,
          "midi": 66,
          "name": "F#4",
          "ticks": 29760,
          "time": 103.1328125,
          "velocity": 0.7874015748031497
        },
        {
          "duration": 0.1171875,
          "durationTicks": 60,
          "midi": 69,
          "name": "A4",
          "ticks": 29820,
          "time": 103.25,
          "velocity": 0.7874015748031497
        },
        {
          "duration": 0.1171875,
          "durationTicks": 60,
          "midi": 73,
          "name": "C#5",
          "ticks": 29880,
          "time": 103.3671875,
          "velocity": 0.7874015748031497
        },
        {
          "duration": 0.1171875,
          "durationTicks": 60,
          "midi": 76,
          "name": "E5",
          "ticks": 29940,
          "time": 103.484375,
          "velocity": 0.7874015748031497
        },
        {
          "duration": 0.1171875,
          "durationTicks": 60,
          "midi": 81,
          "name": "A5",
          "ticks": 30000,
          "time": 103.6015625,
          "velocity": 0.7874015748031497
        },
        {
          "duration": 0.1171875,
          "durationTicks": 60,
          "midi": 78,
          "name": "F#5",
          "ticks": 30060,
          "time": 103.71875,
          "velocity": 0.7874015748031497
        },
        {
          "duration": 0.1171875,
          "durationTicks": 60,
          "midi": 76,
          "name": "E5",
          "ticks": 30120,
          "time": 103.8359375,
          "velocity": 0.7874015748031497
        },
        {
          "duration": 0.1171875,
          "durationTicks": 60,
          "midi": 74,
          "name": "D5",
          "ticks": 30180,
          "time": 103.953125,
          "velocity": 0.7874015748031497
        },
        {
          "duration": 0.1171875,
          "durationTicks": 60,
          "midi": 79,
          "name": "G5",
          "ticks": 30240,
          "time": 104.0703125,
          "velocity": 0.7874015748031497
        },
        {
          "duration": 0.1171875,
          "durationTicks": 60,
          "midi": 74,
          "name": "D5",
          "ticks": 30300,
          "time": 104.1875,
          "velocity": 0.7874015748031497
        },
        {
          "duration": 0.1171875,
          "durationTicks": 60,
          "midi": 71,
          "name": "B4",
          "ticks": 30360,
          "time": 104.3046875,
          "velocity": 0.7874015748031497
        },
        {
          "duration": 0.1171875,
          "durationTicks": 60,
          "midi": 67,
          "name": "G4",
          "ticks": 30420,
          "time": 104.421875,
          "velocity": 0.7874015748031497
        },
        {
          "duration": 0.1171875,
          "durationTicks": 60,
          "midi": 64,
          "name": "E4",
          "ticks": 30480,
          "time": 104.5390625,
          "velocity": 0.7874015748031497
        },
        {
          "duration": 0.1171875,
          "durationTicks": 60,
          "midi": 67,
          "name": "G4",
          "ticks": 30540,
          "time": 104.65625,
          "velocity": 0.7874015748031497
        },
        {
          "duration": 0.1171875,
          "durationTicks": 60,
          "midi": 71,
          "name": "B4",
          "ticks": 30600,
          "time": 104.7734375,
          "velocity": 0.7874015748031497
        },
        {
          "duration": 0.1171875,
          "durationTicks": 60,
          "midi": 74,
          "name": "D5",
          "ticks": 30660,
          "time": 104.890625,
          "velocity": 0.7874015748031497
        },
        {
          "duration": 0.1171875,
          "durationTicks": 60,
          "midi": 79,
          "name": "G5",
          "ticks": 30720,
          "time": 105.0078125,
          "velocity": 0.7874015748031497
        },
        {
          "duration": 0.1171875,
          "durationTicks": 60,
          "midi": 78,
          "name": "F#5",
          "ticks": 30780,
          "time": 105.125,
          "velocity": 0.7874015748031497
        },
        {
          "duration": 0.1171875,
          "durationTicks": 60,
          "midi": 76,
          "name": "E5",
          "ticks": 30840,
          "time": 105.2421875,
          "velocity": 0.7874015748031497
        },
        {
          "duration": 0.1171875,
          "durationTicks": 60,
          "midi": 74,
          "name": "D5",
          "ticks": 30900,
          "time": 105.359375,
          "velocity": 0.7874015748031497
        },
        {
          "duration": 0.1171875,
          "durationTicks": 60,
          "midi": 73,
          "name": "C#5",
          "ticks": 30960,
          "time": 105.4765625,
          "velocity": 0.7874015748031497
        },
        {
          "duration": 0.1171875,
          "durationTicks": 60,
          "midi": 67,
          "name": "G4",
          "ticks": 31020,
          "time": 105.59375,
          "velocity": 0.7874015748031497
        },
        {
          "duration": 0.1171875,
          "durationTicks": 60,
          "midi": 64,
          "name": "E4",
          "ticks": 31080,
          "time": 105.7109375,
          "velocity": 0.7874015748031497
        },
        {
          "duration": 0.1171875,
          "durationTicks": 60,
          "midi": 61,
          "name": "C#4",
          "ticks": 31140,
          "time": 105.828125,
          "velocity": 0.7874015748031497
        },
        {
          "duration": 0.1171875,
          "durationTicks": 60,
          "midi": 57,
          "name": "A3",
          "ticks": 31200,
          "time": 105.9453125,
          "velocity": 0.7874015748031497
        },
        {
          "duration": 0.1171875,
          "durationTicks": 60,
          "midi": 61,
          "name": "C#4",
          "ticks": 31260,
          "time": 106.0625,
          "velocity": 0.7874015748031497
        },
        {
          "duration": 0.1171875,
          "durationTicks": 60,
          "midi": 64,
          "name": "E4",
          "ticks": 31320,
          "time": 106.1796875,
          "velocity": 0.7874015748031497
        },
        {
          "duration": 0.1171875,
          "durationTicks": 60,
          "midi": 67,
          "name": "G4",
          "ticks": 31380,
          "time": 106.296875,
          "velocity": 0.7874015748031497
        },
        {
          "duration": 0.1171875,
          "durationTicks": 60,
          "midi": 73,
          "name": "C#5",
          "ticks": 31440,
          "time": 106.4140625,
          "velocity": 0.7874015748031497
        },
        {
          "duration": 0.1171875,
          "durationTicks": 60,
          "midi": 76,
          "name": "E5",
          "ticks": 31500,
          "time": 106.53125,
          "velocity": 0.7874015748031497
        },
        {
          "duration": 0.1171875,
          "durationTicks": 60,
          "midi": 74,
          "name": "D5",
          "ticks": 31560,
          "time": 106.6484375,
          "velocity": 0.7874015748031497
        },
        {
          "duration": 0.1171875,
          "durationTicks": 60,
          "midi": 73,
          "name": "C#5",
          "ticks": 31620,
          "time": 106.765625,
          "velocity": 0.7874015748031497
        },
        {
          "duration": 0.234375,
          "durationTicks": 120,
          "midi": 74,
          "name": "D5",
          "ticks": 31680,
          "time": 106.8828125,
          "velocity": 0.7874015748031497
        },
        {
          "duration": 0.1171875,
          "durationTicks": 60,
          "midi": 54,
          "name": "F#3",
          "ticks": 31800,
          "time": 107.1171875,
          "velocity": 0.7874015748031497
        },
        {
          "duration": 0.1171875,
          "durationTicks": 60,
          "midi": 52,
          "name": "E3",
          "ticks": 31860,
          "time": 107.234375,
          "velocity": 0.7874015748031497
        },
        {
          "duration": 0.234375,
          "durationTicks": 120,
          "midi": 54,
          "name": "F#3",
          "ticks": 31920,
          "time": 107.3515625,
          "velocity": 0.7874015748031497
        },
        {
          "duration": 0.234375,
          "durationTicks": 120,
          "midi": 69,
          "name": "A4",
          "ticks": 32040,
          "time": 107.5859375,
          "velocity": 0.7874015748031497
        },
        {
          "duration": 0.234375,
          "durationTicks": 120,
          "midi": 74,
          "name": "D5",
          "ticks": 32160,
          "time": 107.8203125,
          "velocity": 0.7874015748031497
        },
        {
          "duration": 0.234375,
          "durationTicks": 120,
          "midi": 78,
          "name": "F#5",
          "ticks": 32280,
          "time": 108.0546875,
          "velocity": 0.7874015748031497
        },
        {
          "duration": 0.234375,
          "durationTicks": 120,
          "midi": 71,
          "name": "B4",
          "ticks": 32400,
          "time": 108.2890625,
          "velocity": 0.7874015748031497
        },
        {
          "duration": 0.1171875,
          "durationTicks": 60,
          "midi": 55,
          "name": "G3",
          "ticks": 32520,
          "time": 108.5234375,
          "velocity": 0.7874015748031497
        },
        {
          "duration": 0.1171875,
          "durationTicks": 60,
          "midi": 54,
          "name": "F#3",
          "ticks": 32580,
          "time": 108.640625,
          "velocity": 0.7874015748031497
        },
        {
          "duration": 0.234375,
          "durationTicks": 120,
          "midi": 55,
          "name": "G3",
          "ticks": 32640,
          "time": 108.7578125,
          "velocity": 0.7874015748031497
        },
        {
          "duration": 0.234375,
          "durationTicks": 120,
          "midi": 71,
          "name": "B4",
          "ticks": 32760,
          "time": 108.9921875,
          "velocity": 0.7874015748031497
        },
        {
          "duration": 0.234375,
          "durationTicks": 120,
          "midi": 76,
          "name": "E5",
          "ticks": 32880,
          "time": 109.2265625,
          "velocity": 0.7874015748031497
        },
        {
          "duration": 0.234375,
          "durationTicks": 120,
          "midi": 79,
          "name": "G5",
          "ticks": 33000,
          "time": 109.4609375,
          "velocity": 0.7874015748031497
        },
        {
          "duration": 0.1171875,
          "durationTicks": 60,
          "midi": 73,
          "name": "C#5",
          "ticks": 33120,
          "time": 109.6953125,
          "velocity": 0.7874015748031497
        },
        {
          "duration": 0.1171875,
          "durationTicks": 60,
          "midi": 76,
          "name": "E5",
          "ticks": 33180,
          "time": 109.8125,
          "velocity": 0.7874015748031497
        },
        {
          "duration": 0.1171875,
          "durationTicks": 60,
          "midi": 69,
          "name": "A4",
          "ticks": 33240,
          "time": 109.9296875,
          "velocity": 0.7874015748031497
        },
        {
          "duration": 0.1171875,
          "durationTicks": 60,
          "midi": 67,
          "name": "G4",
          "ticks": 33300,
          "time": 110.046875,
          "velocity": 0.7874015748031497
        },
        {
          "duration": 0.1171875,
          "durationTicks": 60,
          "midi": 66,
          "name": "F#4",
          "ticks": 33360,
          "time": 110.1640625,
          "velocity": 0.7874015748031497
        },
        {
          "duration": 0.1171875,
          "durationTicks": 60,
          "midi": 69,
          "name": "A4",
          "ticks": 33420,
          "time": 110.28125,
          "velocity": 0.7874015748031497
        },
        {
          "duration": 0.1171875,
          "durationTicks": 60,
          "midi": 74,
          "name": "D5",
          "ticks": 33480,
          "time": 110.3984375,
          "velocity": 0.7874015748031497
        },
        {
          "duration": 0.1171875,
          "durationTicks": 60,
          "midi": 78,
          "name": "F#5",
          "ticks": 33540,
          "time": 110.515625,
          "velocity": 0.7874015748031497
        },
        {
          "duration": 0.1171875,
          "durationTicks": 60,
          "midi": 79,
          "name": "G5",
          "ticks": 33600,
          "time": 110.6328125,
          "velocity": 0.7874015748031497
        },
        {
          "duration": 0.1171875,
          "durationTicks": 60,
          "midi": 76,
          "name": "E5",
          "ticks": 33660,
          "time": 110.75,
          "velocity": 0.7874015748031497
        },
        {
          "duration": 0.1171875,
          "durationTicks": 60,
          "midi": 74,
          "name": "D5",
          "ticks": 33720,
          "time": 110.8671875,
          "velocity": 0.7874015748031497
        },
        {
          "duration": 0.1171875,
          "durationTicks": 60,
          "midi": 73,
          "name": "C#5",
          "ticks": 33780,
          "time": 110.984375,
          "velocity": 0.7874015748031497
        },
        {
          "duration": 0.1171875,
          "durationTicks": 60,
          "midi": 78,
          "name": "F#5",
          "ticks": 33840,
          "time": 111.1015625,
          "velocity": 0.7874015748031497
        },
        {
          "duration": 0.1171875,
          "durationTicks": 60,
          "midi": 74,
          "name": "D5",
          "ticks": 33900,
          "time": 111.21875,
          "velocity": 0.7874015748031497
        },
        {
          "duration": 0.1171875,
          "durationTicks": 60,
          "midi": 73,
          "name": "C#5",
          "ticks": 33960,
          "time": 111.3359375,
          "velocity": 0.7874015748031497
        },
        {
          "duration": 0.1171875,
          "durationTicks": 60,
          "midi": 71,
          "name": "B4",
          "ticks": 34020,
          "time": 111.453125,
          "velocity": 0.7874015748031497
        },
        {
          "duration": 0.1171875,
          "durationTicks": 60,
          "midi": 69,
          "name": "A4",
          "ticks": 34080,
          "time": 111.5703125,
          "velocity": 0.7874015748031497
        },
        {
          "duration": 0.1171875,
          "durationTicks": 60,
          "midi": 67,
          "name": "G4",
          "ticks": 34140,
          "time": 111.6875,
          "velocity": 0.7874015748031497
        },
        {
          "duration": 0.1171875,
          "durationTicks": 60,
          "midi": 66,
          "name": "F#4",
          "ticks": 34200,
          "time": 111.8046875,
          "velocity": 0.7874015748031497
        },
        {
          "duration": 0.1171875,
          "durationTicks": 60,
          "midi": 64,
          "name": "E4",
          "ticks": 34260,
          "time": 111.921875,
          "velocity": 0.7874015748031497
        },
        {
          "duration": 0.46875,
          "durationTicks": 240,
          "midi": 62,
          "name": "D4",
          "ticks": 34320,
          "time": 112.0390625,
          "velocity": 0.7874015748031497
        },
        {
          "duration": 0.1171875,
          "durationTicks": 60,
          "midi": 78,
          "name": "F#5",
          "ticks": 34560,
          "time": 112.5078125,
          "velocity": 0.7874015748031497
        },
        {
          "duration": 0.1171875,
          "durationTicks": 60,
          "midi": 79,
          "name": "G5",
          "ticks": 34620,
          "time": 112.625,
          "velocity": 0.7874015748031497
        },
        {
          "duration": 0.3515625,
          "durationTicks": 180,
          "midi": 81,
          "name": "A5",
          "ticks": 34680,
          "time": 112.7421875,
          "velocity": 0.7874015748031497
        },
        {
          "duration": 0.1171875,
          "durationTicks": 60,
          "midi": 83,
          "name": "B5",
          "ticks": 34860,
          "time": 113.09375,
          "velocity": 0.7874015748031497
        },
        {
          "duration": 0.1171875,
          "durationTicks": 60,
          "midi": 81,
          "name": "A5",
          "ticks": 34920,
          "time": 113.2109375,
          "velocity": 0.7874015748031497
        },
        {
          "duration": 0.1171875,
          "durationTicks": 60,
          "midi": 79,
          "name": "G5",
          "ticks": 34980,
          "time": 113.328125,
          "velocity": 0.7874015748031497
        },
        {
          "duration": 0.1171875,
          "durationTicks": 60,
          "midi": 78,
          "name": "F#5",
          "ticks": 35040,
          "time": 113.4453125,
          "velocity": 0.7874015748031497
        },
        {
          "duration": 0.1171875,
          "durationTicks": 60,
          "midi": 76,
          "name": "E5",
          "ticks": 35100,
          "time": 113.5625,
          "velocity": 0.7874015748031497
        },
        {
          "duration": 0.1171875,
          "durationTicks": 60,
          "midi": 74,
          "name": "D5",
          "ticks": 35160,
          "time": 113.6796875,
          "velocity": 0.7874015748031497
        },
        {
          "duration": 0.1171875,
          "durationTicks": 60,
          "midi": 72,
          "name": "C5",
          "ticks": 35220,
          "time": 113.796875,
          "velocity": 0.7874015748031497
        },
        {
          "duration": 0.1171875,
          "durationTicks": 60,
          "midi": 71,
          "name": "B4",
          "ticks": 35280,
          "time": 113.9140625,
          "velocity": 0.7874015748031497
        },
        {
          "duration": 0.1171875,
          "durationTicks": 60,
          "midi": 72,
          "name": "C5",
          "ticks": 35340,
          "time": 114.03125,
          "velocity": 0.7874015748031497
        },
        {
          "duration": 0.3515625,
          "durationTicks": 180,
          "midi": 74,
          "name": "D5",
          "ticks": 35400,
          "time": 114.1484375,
          "velocity": 0.7874015748031497
        },
        {
          "duration": 0.1171875,
          "durationTicks": 60,
          "midi": 76,
          "name": "E5",
          "ticks": 35580,
          "time": 114.5,
          "velocity": 0.7874015748031497
        },
        {
          "duration": 0.1171875,
          "durationTicks": 60,
          "midi": 74,
          "name": "D5",
          "ticks": 35640,
          "time": 114.6171875,
          "velocity": 0.7874015748031497
        },
        {
          "duration": 0.1171875,
          "durationTicks": 60,
          "midi": 72,
          "name": "C5",
          "ticks": 35700,
          "time": 114.734375,
          "velocity": 0.7874015748031497
        },
        {
          "duration": 0.1171875,
          "durationTicks": 60,
          "midi": 71,
          "name": "B4",
          "ticks": 35760,
          "time": 114.8515625,
          "velocity": 0.7874015748031497
        },
        {
          "duration": 0.1171875,
          "durationTicks": 60,
          "midi": 69,
          "name": "A4",
          "ticks": 35820,
          "time": 114.96875,
          "velocity": 0.7874015748031497
        },
        {
          "duration": 0.1171875,
          "durationTicks": 60,
          "midi": 67,
          "name": "G4",
          "ticks": 35880,
          "time": 115.0859375,
          "velocity": 0.7874015748031497
        },
        {
          "duration": 0.1171875,
          "durationTicks": 60,
          "midi": 66,
          "name": "F#4",
          "ticks": 35940,
          "time": 115.203125,
          "velocity": 0.7874015748031497
        },
        {
          "duration": 0.1171875,
          "durationTicks": 60,
          "midi": 64,
          "name": "E4",
          "ticks": 36000,
          "time": 115.3203125,
          "velocity": 0.7874015748031497
        },
        {
          "duration": 0.1171875,
          "durationTicks": 60,
          "midi": 68,
          "name": "G#4",
          "ticks": 36060,
          "time": 115.4375,
          "velocity": 0.7874015748031497
        },
        {
          "duration": 0.1171875,
          "durationTicks": 60,
          "midi": 69,
          "name": "A4",
          "ticks": 36120,
          "time": 115.5546875,
          "velocity": 0.7874015748031497
        },
        {
          "duration": 0.1171875,
          "durationTicks": 60,
          "midi": 71,
          "name": "B4",
          "ticks": 36180,
          "time": 115.671875,
          "velocity": 0.7874015748031497
        },
        {
          "duration": 0.1171875,
          "durationTicks": 60,
          "midi": 69,
          "name": "A4",
          "ticks": 36240,
          "time": 115.7890625,
          "velocity": 0.7874015748031497
        },
        {
          "duration": 0.1171875,
          "durationTicks": 60,
          "midi": 64,
          "name": "E4",
          "ticks": 36300,
          "time": 115.90625,
          "velocity": 0.7874015748031497
        },
        {
          "duration": 0.1171875,
          "durationTicks": 60,
          "midi": 69,
          "name": "A4",
          "ticks": 36360,
          "time": 116.0234375,
          "velocity": 0.7874015748031497
        },
        {
          "duration": 0.1171875,
          "durationTicks": 60,
          "midi": 71,
          "name": "B4",
          "ticks": 36420,
          "time": 116.140625,
          "velocity": 0.7874015748031497
        },
        {
          "duration": 0.1171875,
          "durationTicks": 60,
          "midi": 72,
          "name": "C5",
          "ticks": 36480,
          "time": 116.2578125,
          "velocity": 0.7874015748031497
        },
        {
          "duration": 0.1171875,
          "durationTicks": 60,
          "midi": 69,
          "name": "A4",
          "ticks": 36540,
          "time": 116.375,
          "velocity": 0.7874015748031497
        },
        {
          "duration": 0.1171875,
          "durationTicks": 60,
          "midi": 75,
          "name": "D#5",
          "ticks": 36600,
          "time": 116.4921875,
          "velocity": 0.7874015748031497
        },
        {
          "duration": 0.1171875,
          "durationTicks": 60,
          "midi": 76,
          "name": "E5",
          "ticks": 36660,
          "time": 116.609375,
          "velocity": 0.7874015748031497
        },
        {
          "duration": 0.1171875,
          "durationTicks": 60,
          "midi": 78,
          "name": "F#5",
          "ticks": 36720,
          "time": 116.7265625,
          "velocity": 0.7874015748031497
        },
        {
          "duration": 0.1171875,
          "durationTicks": 60,
          "midi": 76,
          "name": "E5",
          "ticks": 36780,
          "time": 116.84375,
          "velocity": 0.7874015748031497
        },
        {
          "duration": 0.1171875,
          "durationTicks": 60,
          "midi": 75,
          "name": "D#5",
          "ticks": 36840,
          "time": 116.9609375,
          "velocity": 0.7874015748031497
        },
        {
          "duration": 0.1171875,
          "durationTicks": 60,
          "midi": 73,
          "name": "C#5",
          "ticks": 36900,
          "time": 117.078125,
          "velocity": 0.7874015748031497
        },
        {
          "duration": 1.0546875,
          "durationTicks": 540,
          "midi": 71,
          "name": "B4",
          "ticks": 36960,
          "time": 117.1953125,
          "velocity": 0.7874015748031497
        },
        {
          "duration": 0.1171875,
          "durationTicks": 60,
          "midi": 75,
          "name": "D#5",
          "ticks": 37500,
          "time": 118.25,
          "velocity": 0.7874015748031497
        },
        {
          "duration": 0.3515625,
          "durationTicks": 180,
          "midi": 76,
          "name": "E5",
          "ticks": 37560,
          "time": 118.3671875,
          "velocity": 0.7874015748031497
        },
        {
          "duration": 0.1171875,
          "durationTicks": 60,
          "midi": 63,
          "name": "D#4",
          "ticks": 37740,
          "time": 118.71875,
          "velocity": 0.7874015748031497
        },
        {
          "duration": 0.3515625,
          "durationTicks": 180,
          "midi": 64,
          "name": "E4",
          "ticks": 37800,
          "time": 118.8359375,
          "velocity": 0.7874015748031497
        },
        {
          "duration": 0.1171875,
          "durationTicks": 60,
          "midi": 51,
          "name": "D#3",
          "ticks": 37980,
          "time": 119.1875,
          "velocity": 0.7874015748031497
        },
        {
          "duration": 0.234375,
          "durationTicks": 120,
          "midi": 52,
          "name": "E3",
          "ticks": 38040,
          "time": 119.3046875,
          "velocity": 0.7874015748031497
        },
        {
          "duration": 0.1171875,
          "durationTicks": 60,
          "midi": 80,
          "name": "G#5",
          "ticks": 38220,
          "time": 119.65625,
          "velocity": 0.7874015748031497
        },
        {
          "duration": 0.3515625,
          "durationTicks": 180,
          "midi": 81,
          "name": "A5",
          "ticks": 38280,
          "time": 119.7734375,
          "velocity": 0.7874015748031497
        },
        {
          "duration": 0.1171875,
          "durationTicks": 60,
          "midi": 68,
          "name": "G#4",
          "ticks": 38460,
          "time": 120.125,
          "velocity": 0.7874015748031497
        },
        {
          "duration": 0.3515625,
          "durationTicks": 180,
          "midi": 69,
          "name": "A4",
          "ticks": 38520,
          "time": 120.2421875,
          "velocity": 0.7874015748031497
        },
        {
          "duration": 0.1171875,
          "durationTicks": 60,
          "midi": 56,
          "name": "G#3",
          "ticks": 38700,
          "time": 120.59375,
          "velocity": 0.7874015748031497
        },
        {
          "duration": 0.3515625,
          "durationTicks": 180,
          "midi": 57,
          "name": "A3",
          "ticks": 38760,
          "time": 120.7109375,
          "velocity": 0.7874015748031497
        },
        {
          "duration": 0.1171875,
          "durationTicks": 60,
          "midi": 59,
          "name": "B3",
          "ticks": 38940,
          "time": 121.0625,
          "velocity": 0.7874015748031497
        },
        {
          "duration": 0.1171875,
          "durationTicks": 60,
          "midi": 60,
          "name": "C4",
          "ticks": 39000,
          "time": 121.1796875,
          "velocity": 0.7874015748031497
        },
        {
          "duration": 0.1171875,
          "durationTicks": 60,
          "midi": 66,
          "name": "F#4",
          "ticks": 39060,
          "time": 121.296875,
          "velocity": 0.7874015748031497
        },
        {
          "duration": 0.1171875,
          "durationTicks": 60,
          "midi": 59,
          "name": "B3",
          "ticks": 39120,
          "time": 121.4140625,
          "velocity": 0.7874015748031497
        },
        {
          "duration": 0.1171875,
          "durationTicks": 60,
          "midi": 63,
          "name": "D#4",
          "ticks": 39180,
          "time": 121.53125,
          "velocity": 0.7874015748031497
        },
        {
          "duration": 0.1171875,
          "durationTicks": 60,
          "midi": 64,
          "name": "E4",
          "ticks": 39240,
          "time": 121.6484375,
          "velocity": 0.7874015748031497
        },
        {
          "duration": 0.1171875,
          "durationTicks": 60,
          "midi": 67,
          "name": "G4",
          "ticks": 39300,
          "time": 121.765625,
          "velocity": 0.7874015748031497
        },
        {
          "duration": 0.1171875,
          "durationTicks": 60,
          "midi": 66,
          "name": "F#4",
          "ticks": 39360,
          "time": 121.8828125,
          "velocity": 0.7874015748031497
        },
        {
          "duration": 0.1171875,
          "durationTicks": 60,
          "midi": 64,
          "name": "E4",
          "ticks": 39420,
          "time": 122,
          "velocity": 0.7874015748031497
        },
        {
          "duration": 0.1171875,
          "durationTicks": 60,
          "midi": 63,
          "name": "D#4",
          "ticks": 39480,
          "time": 122.1171875,
          "velocity": 0.7874015748031497
        },
        {
          "duration": 0.1171875,
          "durationTicks": 60,
          "midi": 69,
          "name": "A4",
          "ticks": 39540,
          "time": 122.234375,
          "velocity": 0.7874015748031497
        },
        {
          "duration": 0.1171875,
          "durationTicks": 60,
          "midi": 67,
          "name": "G4",
          "ticks": 39600,
          "time": 122.3515625,
          "velocity": 0.7874015748031497
        },
        {
          "duration": 0.1171875,
          "durationTicks": 60,
          "midi": 66,
          "name": "F#4",
          "ticks": 39660,
          "time": 122.46875,
          "velocity": 0.7874015748031497
        },
        {
          "duration": 0.1171875,
          "durationTicks": 60,
          "midi": 64,
          "name": "E4",
          "ticks": 39720,
          "time": 122.5859375,
          "velocity": 0.7874015748031497
        },
        {
          "duration": 0.1171875,
          "durationTicks": 60,
          "midi": 63,
          "name": "D#4",
          "ticks": 39780,
          "time": 122.703125,
          "velocity": 0.7874015748031497
        },
        {
          "duration": 0.1171875,
          "durationTicks": 60,
          "midi": 64,
          "name": "E4",
          "ticks": 39840,
          "time": 122.8203125,
          "velocity": 0.7874015748031497
        },
        {
          "duration": 0.1171875,
          "durationTicks": 60,
          "midi": 67,
          "name": "G4",
          "ticks": 39900,
          "time": 122.9375,
          "velocity": 0.7874015748031497
        },
        {
          "duration": 0.1171875,
          "durationTicks": 60,
          "midi": 59,
          "name": "B3",
          "ticks": 39960,
          "time": 123.0546875,
          "velocity": 0.7874015748031497
        },
        {
          "duration": 0.1171875,
          "durationTicks": 60,
          "midi": 57,
          "name": "A3",
          "ticks": 40020,
          "time": 123.171875,
          "velocity": 0.7874015748031497
        },
        {
          "duration": 0.1171875,
          "durationTicks": 60,
          "midi": 55,
          "name": "G3",
          "ticks": 40080,
          "time": 123.2890625,
          "velocity": 0.7874015748031497
        },
        {
          "duration": 0.1171875,
          "durationTicks": 60,
          "midi": 59,
          "name": "B3",
          "ticks": 40140,
          "time": 123.40625,
          "velocity": 0.7874015748031497
        },
        {
          "duration": 0.1171875,
          "durationTicks": 60,
          "midi": 64,
          "name": "E4",
          "ticks": 40200,
          "time": 123.5234375,
          "velocity": 0.7874015748031497
        },
        {
          "duration": 0.1171875,
          "durationTicks": 60,
          "midi": 50,
          "name": "D3",
          "ticks": 40260,
          "time": 123.640625,
          "velocity": 0.7874015748031497
        },
        {
          "duration": 0.1171875,
          "durationTicks": 60,
          "midi": 76,
          "name": "E5",
          "ticks": 40320,
          "time": 123.7578125,
          "velocity": 0.7874015748031497
        },
        {
          "duration": 0.1171875,
          "durationTicks": 60,
          "midi": 74,
          "name": "D5",
          "ticks": 40380,
          "time": 123.875,
          "velocity": 0.7874015748031497
        },
        {
          "duration": 0.3515625,
          "durationTicks": 180,
          "midi": 72,
          "name": "C5",
          "ticks": 40440,
          "time": 123.9921875,
          "velocity": 0.7874015748031497
        },
        {
          "duration": 0.1171875,
          "durationTicks": 60,
          "midi": 71,
          "name": "B4",
          "ticks": 40620,
          "time": 124.34375,
          "velocity": 0.7874015748031497
        },
        {
          "duration": 0.1171875,
          "durationTicks": 60,
          "midi": 72,
          "name": "C5",
          "ticks": 40680,
          "time": 124.4609375,
          "velocity": 0.7874015748031497
        },
        {
          "duration": 0.1171875,
          "durationTicks": 60,
          "midi": 74,
          "name": "D5",
          "ticks": 40740,
          "time": 124.578125,
          "velocity": 0.7874015748031497
        },
        {
          "duration": 0.1171875,
          "durationTicks": 60,
          "midi": 76,
          "name": "E5",
          "ticks": 40800,
          "time": 124.6953125,
          "velocity": 0.7874015748031497
        },
        {
          "duration": 0.1171875,
          "durationTicks": 60,
          "midi": 78,
          "name": "F#5",
          "ticks": 40860,
          "time": 124.8125,
          "velocity": 0.7874015748031497
        },
        {
          "duration": 0.1171875,
          "durationTicks": 60,
          "midi": 79,
          "name": "G5",
          "ticks": 40920,
          "time": 124.9296875,
          "velocity": 0.7874015748031497
        },
        {
          "duration": 0.1171875,
          "durationTicks": 60,
          "midi": 81,
          "name": "A5",
          "ticks": 40980,
          "time": 125.046875,
          "velocity": 0.7874015748031497
        },
        {
          "duration": 0.1171875,
          "durationTicks": 60,
          "midi": 74,
          "name": "D5",
          "ticks": 41040,
          "time": 125.1640625,
          "velocity": 0.7874015748031497
        },
        {
          "duration": 0.1171875,
          "durationTicks": 60,
          "midi": 72,
          "name": "C5",
          "ticks": 41100,
          "time": 125.28125,
          "velocity": 0.7874015748031497
        },
        {
          "duration": 0.3515625,
          "durationTicks": 180,
          "midi": 71,
          "name": "B4",
          "ticks": 41160,
          "time": 125.3984375,
          "velocity": 0.7874015748031497
        },
        {
          "duration": 0.1171875,
          "durationTicks": 60,
          "midi": 69,
          "name": "A4",
          "ticks": 41340,
          "time": 125.75,
          "velocity": 0.7874015748031497
        },
        {
          "duration": 0.1171875,
          "durationTicks": 60,
          "midi": 71,
          "name": "B4",
          "ticks": 41400,
          "time": 125.8671875,
          "velocity": 0.7874015748031497
        },
        {
          "duration": 0.1171875,
          "durationTicks": 60,
          "midi": 72,
          "name": "C5",
          "ticks": 41460,
          "time": 125.984375,
          "velocity": 0.7874015748031497
        },
        {
          "duration": 0.1171875,
          "durationTicks": 60,
          "midi": 74,
          "name": "D5",
          "ticks": 41520,
          "time": 126.1015625,
          "velocity": 0.7874015748031497
        },
        {
          "duration": 0.1171875,
          "durationTicks": 60,
          "midi": 76,
          "name": "E5",
          "ticks": 41580,
          "time": 126.21875,
          "velocity": 0.7874015748031497
        },
        {
          "duration": 0.1171875,
          "durationTicks": 60,
          "midi": 78,
          "name": "F#5",
          "ticks": 41640,
          "time": 126.3359375,
          "velocity": 0.7874015748031497
        },
        {
          "duration": 0.1171875,
          "durationTicks": 60,
          "midi": 79,
          "name": "G5",
          "ticks": 41700,
          "time": 126.453125,
          "velocity": 0.7874015748031497
        },
        {
          "duration": 0.1171875,
          "durationTicks": 60,
          "midi": 72,
          "name": "C5",
          "ticks": 41760,
          "time": 126.5703125,
          "velocity": 0.7874015748031497
        },
        {
          "duration": 0.1171875,
          "durationTicks": 60,
          "midi": 69,
          "name": "A4",
          "ticks": 41820,
          "time": 126.6875,
          "velocity": 0.7874015748031497
        },
        {
          "duration": 0.1171875,
          "durationTicks": 60,
          "midi": 64,
          "name": "E4",
          "ticks": 41880,
          "time": 126.8046875,
          "velocity": 0.7874015748031497
        },
        {
          "duration": 0.1171875,
          "durationTicks": 60,
          "midi": 60,
          "name": "C4",
          "ticks": 41940,
          "time": 126.921875,
          "velocity": 0.7874015748031497
        },
        {
          "duration": 0.1171875,
          "durationTicks": 60,
          "midi": 57,
          "name": "A3",
          "ticks": 42000,
          "time": 127.0390625,
          "velocity": 0.7874015748031497
        },
        {
          "duration": 0.1171875,
          "durationTicks": 60,
          "midi": 60,
          "name": "C4",
          "ticks": 42060,
          "time": 127.15625,
          "velocity": 0.7874015748031497
        },
        {
          "duration": 0.1171875,
          "durationTicks": 60,
          "midi": 64,
          "name": "E4",
          "ticks": 42120,
          "time": 127.2734375,
          "velocity": 0.7874015748031497
        },
        {
          "duration": 0.1171875,
          "durationTicks": 60,
          "midi": 69,
          "name": "A4",
          "ticks": 42180,
          "time": 127.390625,
          "velocity": 0.7874015748031497
        },
        {
          "duration": 0.1171875,
          "durationTicks": 60,
          "midi": 72,
          "name": "C5",
          "ticks": 42240,
          "time": 127.5078125,
          "velocity": 0.7874015748031497
        },
        {
          "duration": 0.1171875,
          "durationTicks": 60,
          "midi": 69,
          "name": "A4",
          "ticks": 42300,
          "time": 127.625,
          "velocity": 0.7874015748031497
        },
        {
          "duration": 0.1171875,
          "durationTicks": 60,
          "midi": 72,
          "name": "C5",
          "ticks": 42360,
          "time": 127.7421875,
          "velocity": 0.7874015748031497
        },
        {
          "duration": 0.1171875,
          "durationTicks": 60,
          "midi": 76,
          "name": "E5",
          "ticks": 42420,
          "time": 127.859375,
          "velocity": 0.7874015748031497
        },
        {
          "duration": 0.1171875,
          "durationTicks": 60,
          "midi": 78,
          "name": "F#5",
          "ticks": 42480,
          "time": 127.9765625,
          "velocity": 0.7874015748031497
        },
        {
          "duration": 0.1171875,
          "durationTicks": 60,
          "midi": 72,
          "name": "C5",
          "ticks": 42540,
          "time": 128.09375,
          "velocity": 0.7874015748031497
        },
        {
          "duration": 0.1171875,
          "durationTicks": 60,
          "midi": 69,
          "name": "A4",
          "ticks": 42600,
          "time": 128.2109375,
          "velocity": 0.7874015748031497
        },
        {
          "duration": 0.1171875,
          "durationTicks": 60,
          "midi": 66,
          "name": "F#4",
          "ticks": 42660,
          "time": 128.328125,
          "velocity": 0.7874015748031497
        },
        {
          "duration": 0.1171875,
          "durationTicks": 60,
          "midi": 62,
          "name": "D4",
          "ticks": 42720,
          "time": 128.4453125,
          "velocity": 0.7874015748031497
        },
        {
          "duration": 0.1171875,
          "durationTicks": 60,
          "midi": 66,
          "name": "F#4",
          "ticks": 42780,
          "time": 128.5625,
          "velocity": 0.7874015748031497
        },
        {
          "duration": 0.1171875,
          "durationTicks": 60,
          "midi": 69,
          "name": "A4",
          "ticks": 42840,
          "time": 128.6796875,
          "velocity": 0.7874015748031497
        },
        {
          "duration": 0.1171875,
          "durationTicks": 60,
          "midi": 72,
          "name": "C5",
          "ticks": 42900,
          "time": 128.796875,
          "velocity": 0.7874015748031497
        },
        {
          "duration": 0.1171875,
          "durationTicks": 60,
          "midi": 78,
          "name": "F#5",
          "ticks": 42960,
          "time": 128.9140625,
          "velocity": 0.7874015748031497
        },
        {
          "duration": 0.1171875,
          "durationTicks": 60,
          "midi": 72,
          "name": "C5",
          "ticks": 43020,
          "time": 129.03125,
          "velocity": 0.7874015748031497
        },
        {
          "duration": 0.1171875,
          "durationTicks": 60,
          "midi": 78,
          "name": "F#5",
          "ticks": 43080,
          "time": 129.1484375,
          "velocity": 0.7874015748031497
        },
        {
          "duration": 0.1171875,
          "durationTicks": 60,
          "midi": 81,
          "name": "A5",
          "ticks": 43140,
          "time": 129.265625,
          "velocity": 0.7874015748031497
        },
        {
          "duration": 0.1171875,
          "durationTicks": 60,
          "midi": 83,
          "name": "B5",
          "ticks": 43200,
          "time": 129.3828125,
          "velocity": 0.7874015748031497
        },
        {
          "duration": 0.1171875,
          "durationTicks": 60,
          "midi": 79,
          "name": "G5",
          "ticks": 43260,
          "time": 129.5,
          "velocity": 0.7874015748031497
        },
        {
          "duration": 0.1171875,
          "durationTicks": 60,
          "midi": 74,
          "name": "D5",
          "ticks": 43320,
          "time": 129.6171875,
          "velocity": 0.7874015748031497
        },
        {
          "duration": 0.1171875,
          "durationTicks": 60,
          "midi": 71,
          "name": "B4",
          "ticks": 43380,
          "time": 129.734375,
          "velocity": 0.7874015748031497
        },
        {
          "duration": 0.1171875,
          "durationTicks": 60,
          "midi": 67,
          "name": "G4",
          "ticks": 43440,
          "time": 129.8515625,
          "velocity": 0.7874015748031497
        },
        {
          "duration": 0.1171875,
          "durationTicks": 60,
          "midi": 71,
          "name": "B4",
          "ticks": 43500,
          "time": 129.96875,
          "velocity": 0.7874015748031497
        },
        {
          "duration": 0.1171875,
          "durationTicks": 60,
          "midi": 74,
          "name": "D5",
          "ticks": 43560,
          "time": 130.0859375,
          "velocity": 0.7874015748031497
        },
        {
          "duration": 0.1171875,
          "durationTicks": 60,
          "midi": 79,
          "name": "G5",
          "ticks": 43620,
          "time": 130.203125,
          "velocity": 0.7874015748031497
        },
        {
          "duration": 0.1171875,
          "durationTicks": 60,
          "midi": 83,
          "name": "B5",
          "ticks": 43680,
          "time": 130.3203125,
          "velocity": 0.7874015748031497
        },
        {
          "duration": 0.1171875,
          "durationTicks": 60,
          "midi": 77,
          "name": "F5",
          "ticks": 43740,
          "time": 130.4375,
          "velocity": 0.7874015748031497
        },
        {
          "duration": 0.1171875,
          "durationTicks": 60,
          "midi": 83,
          "name": "B5",
          "ticks": 43800,
          "time": 130.5546875,
          "velocity": 0.7874015748031497
        },
        {
          "duration": 0.1171875,
          "durationTicks": 60,
          "midi": 86,
          "name": "D6",
          "ticks": 43860,
          "time": 130.671875,
          "velocity": 0.7874015748031497
        },
        {
          "duration": 0.1171875,
          "durationTicks": 60,
          "midi": 76,
          "name": "E5",
          "ticks": 43920,
          "time": 130.7890625,
          "velocity": 0.7874015748031497
        },
        {
          "duration": 0.1171875,
          "durationTicks": 60,
          "midi": 86,
          "name": "D6",
          "ticks": 43980,
          "time": 130.90625,
          "velocity": 0.7874015748031497
        },
        {
          "duration": 0.1171875,
          "durationTicks": 60,
          "midi": 84,
          "name": "C6",
          "ticks": 44040,
          "time": 131.0234375,
          "velocity": 0.7874015748031497
        },
        {
          "duration": 0.1171875,
          "durationTicks": 60,
          "midi": 76,
          "name": "E5",
          "ticks": 44100,
          "time": 131.140625,
          "velocity": 0.7874015748031497
        },
        {
          "duration": 0.1171875,
          "durationTicks": 60,
          "midi": 74,
          "name": "D5",
          "ticks": 44160,
          "time": 131.2578125,
          "velocity": 0.7874015748031497
        },
        {
          "duration": 0.1171875,
          "durationTicks": 60,
          "midi": 84,
          "name": "C6",
          "ticks": 44220,
          "time": 131.375,
          "velocity": 0.7874015748031497
        },
        {
          "duration": 0.1171875,
          "durationTicks": 60,
          "midi": 83,
          "name": "B5",
          "ticks": 44280,
          "time": 131.4921875,
          "velocity": 0.7874015748031497
        },
        {
          "duration": 0.1171875,
          "durationTicks": 60,
          "midi": 74,
          "name": "D5",
          "ticks": 44340,
          "time": 131.609375,
          "velocity": 0.7874015748031497
        },
        {
          "duration": 0.1171875,
          "durationTicks": 60,
          "midi": 72,
          "name": "C5",
          "ticks": 44400,
          "time": 131.7265625,
          "velocity": 0.7874015748031497
        },
        {
          "duration": 0.1171875,
          "durationTicks": 60,
          "midi": 76,
          "name": "E5",
          "ticks": 44460,
          "time": 131.84375,
          "velocity": 0.7874015748031497
        },
        {
          "duration": 0.1171875,
          "durationTicks": 60,
          "midi": 78,
          "name": "F#5",
          "ticks": 44520,
          "time": 131.9609375,
          "velocity": 0.7874015748031497
        },
        {
          "duration": 0.1171875,
          "durationTicks": 60,
          "midi": 79,
          "name": "G5",
          "ticks": 44580,
          "time": 132.078125,
          "velocity": 0.7874015748031497
        },
        {
          "duration": 0.1171875,
          "durationTicks": 60,
          "midi": 81,
          "name": "A5",
          "ticks": 44640,
          "time": 132.1953125,
          "velocity": 0.7874015748031497
        },
        {
          "duration": 0.1171875,
          "durationTicks": 60,
          "midi": 72,
          "name": "C5",
          "ticks": 44700,
          "time": 132.3125,
          "velocity": 0.7874015748031497
        },
        {
          "duration": 0.1171875,
          "durationTicks": 60,
          "midi": 71,
          "name": "B4",
          "ticks": 44760,
          "time": 132.4296875,
          "velocity": 0.7874015748031497
        },
        {
          "duration": 0.1171875,
          "durationTicks": 60,
          "midi": 69,
          "name": "A4",
          "ticks": 44820,
          "time": 132.546875,
          "velocity": 0.7874015748031497
        },
        {
          "duration": 0.1171875,
          "durationTicks": 60,
          "midi": 71,
          "name": "B4",
          "ticks": 44880,
          "time": 132.6640625,
          "velocity": 0.7874015748031497
        },
        {
          "duration": 0.1171875,
          "durationTicks": 60,
          "midi": 74,
          "name": "D5",
          "ticks": 44940,
          "time": 132.78125,
          "velocity": 0.7874015748031497
        },
        {
          "duration": 0.1171875,
          "durationTicks": 60,
          "midi": 71,
          "name": "B4",
          "ticks": 45000,
          "time": 132.8984375,
          "velocity": 0.7874015748031497
        },
        {
          "duration": 0.1171875,
          "durationTicks": 60,
          "midi": 67,
          "name": "G4",
          "ticks": 45060,
          "time": 133.015625,
          "velocity": 0.7874015748031497
        },
        {
          "duration": 0.1171875,
          "durationTicks": 60,
          "midi": 72,
          "name": "C5",
          "ticks": 45120,
          "time": 133.1328125,
          "velocity": 0.7874015748031497
        },
        {
          "duration": 0.1171875,
          "durationTicks": 60,
          "midi": 69,
          "name": "A4",
          "ticks": 45180,
          "time": 133.25,
          "velocity": 0.7874015748031497
        },
        {
          "duration": 0.1171875,
          "durationTicks": 60,
          "midi": 67,
          "name": "G4",
          "ticks": 45240,
          "time": 133.3671875,
          "velocity": 0.7874015748031497
        },
        {
          "duration": 0.1171875,
          "durationTicks": 60,
          "midi": 66,
          "name": "F#4",
          "ticks": 45300,
          "time": 133.484375,
          "velocity": 0.7874015748031497
        },
        {
          "duration": 0.1171875,
          "durationTicks": 60,
          "midi": 71,
          "name": "B4",
          "ticks": 45360,
          "time": 133.6015625,
          "velocity": 0.7874015748031497
        },
        {
          "duration": 0.1171875,
          "durationTicks": 60,
          "midi": 67,
          "name": "G4",
          "ticks": 45420,
          "time": 133.71875,
          "velocity": 0.7874015748031497
        },
        {
          "duration": 0.1171875,
          "durationTicks": 60,
          "midi": 66,
          "name": "F#4",
          "ticks": 45480,
          "time": 133.8359375,
          "velocity": 0.7874015748031497
        },
        {
          "duration": 0.1171875,
          "durationTicks": 60,
          "midi": 64,
          "name": "E4",
          "ticks": 45540,
          "time": 133.953125,
          "velocity": 0.7874015748031497
        },
        {
          "duration": 0.1171875,
          "durationTicks": 60,
          "midi": 62,
          "name": "D4",
          "ticks": 45600,
          "time": 134.0703125,
          "velocity": 0.7874015748031497
        },
        {
          "duration": 0.1171875,
          "durationTicks": 60,
          "midi": 60,
          "name": "C4",
          "ticks": 45660,
          "time": 134.1875,
          "velocity": 0.7874015748031497
        },
        {
          "duration": 0.1171875,
          "durationTicks": 60,
          "midi": 59,
          "name": "B3",
          "ticks": 45720,
          "time": 134.3046875,
          "velocity": 0.7874015748031497
        },
        {
          "duration": 0.1171875,
          "durationTicks": 60,
          "midi": 57,
          "name": "A3",
          "ticks": 45780,
          "time": 134.421875,
          "velocity": 0.7874015748031497
        },
        {
          "duration": 0.46875,
          "durationTicks": 240,
          "midi": 55,
          "name": "G3",
          "ticks": 45840,
          "time": 134.5390625,
          "velocity": 0.7874015748031497
        },
        {
          "duration": 0.8571419999999819,
          "durationTicks": 240,
          "midi": 79,
          "name": "G5",
          "ticks": 47040,
          "time": 138.4363805,
          "velocity": 0.7874015748031497
        },
        {
          "duration": 0.07142849999999612,
          "durationTicks": 20,
          "midi": 84,
          "name": "C6",
          "ticks": 47280,
          "time": 139.2935225,
          "velocity": 0.7874015748031497
        },
        {
          "duration": 0.07142849999999612,
          "durationTicks": 20,
          "midi": 83,
          "name": "B5",
          "ticks": 47300,
          "time": 139.364951,
          "velocity": 0.7874015748031497
        },
        {
          "duration": 0.07142850000002454,
          "durationTicks": 20,
          "midi": 86,
          "name": "D6",
          "ticks": 47320,
          "time": 139.4363795,
          "velocity": 0.7874015748031497
        },
        {
          "duration": 1.0714274999999986,
          "durationTicks": 300,
          "midi": 84,
          "name": "C6",
          "ticks": 47340,
          "time": 139.507808,
          "velocity": 0.7874015748031497
        },
        {
          "duration": 0.21428549999998836,
          "durationTicks": 60,
          "midi": 83,
          "name": "B5",
          "ticks": 47640,
          "time": 140.5792355,
          "velocity": 0.7874015748031497
        },
        {
          "duration": 0.21428550000001678,
          "durationTicks": 60,
          "midi": 81,
          "name": "A5",
          "ticks": 47700,
          "time": 140.793521,
          "velocity": 0.7874015748031497
        },
        {
          "duration": 0.21428549999998836,
          "durationTicks": 60,
          "midi": 83,
          "name": "B5",
          "ticks": 47760,
          "time": 141.00780650000002,
          "velocity": 0.7874015748031497
        },
        {
          "duration": 0.21428549999998836,
          "durationTicks": 60,
          "midi": 81,
          "name": "A5",
          "ticks": 47820,
          "time": 141.222092,
          "velocity": 0.7874015748031497
        },
        {
          "duration": 0.21428550000001678,
          "durationTicks": 60,
          "midi": 79,
          "name": "G5",
          "ticks": 47880,
          "time": 141.4363775,
          "velocity": 0.7874015748031497
        },
        {
          "duration": 0.21428549999998836,
          "durationTicks": 60,
          "midi": 78,
          "name": "F#5",
          "ticks": 47940,
          "time": 141.650663,
          "velocity": 0.7874015748031497
        },
        {
          "duration": 1.0714274999999986,
          "durationTicks": 300,
          "midi": 79,
          "name": "G5",
          "ticks": 48000,
          "time": 141.8649485,
          "velocity": 0.7874015748031497
        },
        {
          "duration": 0.21428550000001678,
          "durationTicks": 60,
          "midi": 77,
          "name": "F5",
          "ticks": 48300,
          "time": 142.936376,
          "velocity": 0.7874015748031497
        },
        {
          "duration": 0.21428549999998836,
          "durationTicks": 60,
          "midi": 76,
          "name": "E5",
          "ticks": 48360,
          "time": 143.1506615,
          "velocity": 0.7874015748031497
        },
        {
          "duration": 0.21428549999998836,
          "durationTicks": 60,
          "midi": 74,
          "name": "D5",
          "ticks": 48420,
          "time": 143.364947,
          "velocity": 0.7874015748031497
        },
        {
          "duration": 1.0714274999999986,
          "durationTicks": 300,
          "midi": 76,
          "name": "E5",
          "ticks": 48480,
          "time": 143.5792325,
          "velocity": 0.7874015748031497
        },
        {
          "duration": 0.21428550000001678,
          "durationTicks": 60,
          "midi": 74,
          "name": "D5",
          "ticks": 48780,
          "time": 144.65066,
          "velocity": 0.7874015748031497
        },
        {
          "duration": 0.21428549999998836,
          "durationTicks": 60,
          "midi": 72,
          "name": "C5",
          "ticks": 48840,
          "time": 144.8649455,
          "velocity": 0.7874015748031497
        },
        {
          "duration": 0.21428550000001678,
          "durationTicks": 60,
          "midi": 71,
          "name": "B4",
          "ticks": 48900,
          "time": 145.079231,
          "velocity": 0.7874015748031497
        },
        {
          "duration": 1.0714274999999986,
          "durationTicks": 300,
          "midi": 69,
          "name": "A4",
          "ticks": 48960,
          "time": 145.2935165,
          "velocity": 0.7874015748031497
        },
        {
          "duration": 0.21428549999998836,
          "durationTicks": 60,
          "midi": 72,
          "name": "C5",
          "ticks": 49260,
          "time": 146.364944,
          "velocity": 0.7874015748031497
        },
        {
          "duration": 0.21428550000001678,
          "durationTicks": 60,
          "midi": 71,
          "name": "B4",
          "ticks": 49320,
          "time": 146.5792295,
          "velocity": 0.7874015748031497
        },
        {
          "duration": 0.21428549999998836,
          "durationTicks": 60,
          "midi": 69,
          "name": "A4",
          "ticks": 49380,
          "time": 146.793515,
          "velocity": 0.7874015748031497
        },
        {
          "duration": 0.21428549999998836,
          "durationTicks": 60,
          "midi": 71,
          "name": "B4",
          "ticks": 49440,
          "time": 147.0078005,
          "velocity": 0.7874015748031497
        },
        {
          "duration": 0.21428550000001678,
          "durationTicks": 60,
          "midi": 79,
          "name": "G5",
          "ticks": 49500,
          "time": 147.222086,
          "velocity": 0.7874015748031497
        },
        {
          "duration": 0.21428549999998836,
          "durationTicks": 60,
          "midi": 78,
          "name": "F#5",
          "ticks": 49560,
          "time": 147.4363715,
          "velocity": 0.7874015748031497
        },
        {
          "duration": 0.21428550000001678,
          "durationTicks": 60,
          "midi": 81,
          "name": "A5",
          "ticks": 49620,
          "time": 147.650657,
          "velocity": 0.7874015748031497
        },
        {
          "duration": 0.21428549999998836,
          "durationTicks": 60,
          "midi": 79,
          "name": "G5",
          "ticks": 49680,
          "time": 147.8649425,
          "velocity": 0.7874015748031497
        },
        {
          "duration": 0.21428549999998836,
          "durationTicks": 60,
          "midi": 78,
          "name": "F#5",
          "ticks": 49740,
          "time": 148.079228,
          "velocity": 0.7874015748031497
        },
        {
          "duration": 0.21428550000001678,
          "durationTicks": 60,
          "midi": 76,
          "name": "E5",
          "ticks": 49800,
          "time": 148.2935135,
          "velocity": 0.7874015748031497
        },
        {
          "duration": 0.21428549999998836,
          "durationTicks": 60,
          "midi": 74,
          "name": "D5",
          "ticks": 49860,
          "time": 148.507799,
          "velocity": 0.7874015748031497
        },
        {
          "duration": 0.42857100000000514,
          "durationTicks": 120,
          "midi": 84,
          "name": "C6",
          "ticks": 49920,
          "time": 148.7220845,
          "velocity": 0.7874015748031497
        },
        {
          "duration": 0.42857100000000514,
          "durationTicks": 120,
          "midi": 83,
          "name": "B5",
          "ticks": 50040,
          "time": 149.1506555,
          "velocity": 0.7874015748031497
        },
        {
          "duration": 0.21428549999998836,
          "durationTicks": 60,
          "midi": 71,
          "name": "B4",
          "ticks": 50880,
          "time": 152.1506525,
          "velocity": 0.7874015748031497
        },
        {
          "duration": 0.21428550000001678,
          "durationTicks": 60,
          "midi": 75,
          "name": "D#5",
          "ticks": 50940,
          "time": 152.364938,
          "velocity": 0.7874015748031497
        },
        {
          "duration": 0.21428549999998836,
          "durationTicks": 60,
          "midi": 76,
          "name": "E5",
          "ticks": 51000,
          "time": 152.5792235,
          "velocity": 0.7874015748031497
        },
        {
          "duration": 0.21428549999998836,
          "durationTicks": 60,
          "midi": 79,
          "name": "G5",
          "ticks": 51060,
          "time": 152.793509,
          "velocity": 0.7874015748031497
        },
        {
          "duration": 1.071427500000027,
          "durationTicks": 300,
          "midi": 83,
          "name": "B5",
          "ticks": 51120,
          "time": 153.0077945,
          "velocity": 0.7874015748031497
        },
        {
          "duration": 0.21428549999998836,
          "durationTicks": 60,
          "midi": 81,
          "name": "A5",
          "ticks": 51420,
          "time": 154.07922200000002,
          "velocity": 0.7874015748031497
        },
        {
          "duration": 0.21428549999998836,
          "durationTicks": 60,
          "midi": 79,
          "name": "G5",
          "ticks": 51480,
          "time": 154.2935075,
          "velocity": 0.7874015748031497
        },
        {
          "duration": 0.21428550000001678,
          "durationTicks": 60,
          "midi": 83,
          "name": "B5",
          "ticks": 51540,
          "time": 154.507793,
          "velocity": 0.7874015748031497
        },
        {
          "duration": 0.21428549999998836,
          "durationTicks": 60,
          "midi": 81,
          "name": "A5",
          "ticks": 51600,
          "time": 154.7220785,
          "velocity": 0.7874015748031497
        },
        {
          "duration": 0.21428549999998836,
          "durationTicks": 60,
          "midi": 79,
          "name": "G5",
          "ticks": 51660,
          "time": 154.936364,
          "velocity": 0.7874015748031497
        },
        {
          "duration": 0.21428550000001678,
          "durationTicks": 60,
          "midi": 78,
          "name": "F#5",
          "ticks": 51720,
          "time": 155.1506495,
          "velocity": 0.7874015748031497
        },
        {
          "duration": 0.21428549999998836,
          "durationTicks": 60,
          "midi": 76,
          "name": "E5",
          "ticks": 51780,
          "time": 155.364935,
          "velocity": 0.7874015748031497
        },
        {
          "duration": 1.0714274999999986,
          "durationTicks": 300,
          "midi": 74,
          "name": "D5",
          "ticks": 51840,
          "time": 155.5792205,
          "velocity": 0.7874015748031497
        },
        {
          "duration": 0.21428550000001678,
          "durationTicks": 60,
          "midi": 72,
          "name": "C5",
          "ticks": 52140,
          "time": 156.650648,
          "velocity": 0.7874015748031497
        },
        {
          "duration": 0.21428549999998836,
          "durationTicks": 60,
          "midi": 71,
          "name": "B4",
          "ticks": 52200,
          "time": 156.8649335,
          "velocity": 0.7874015748031497
        },
        {
          "duration": 0.21428550000001678,
          "durationTicks": 60,
          "midi": 69,
          "name": "A4",
          "ticks": 52260,
          "time": 157.079219,
          "velocity": 0.7874015748031497
        },
        {
          "duration": 1.0714274999999986,
          "durationTicks": 300,
          "midi": 71,
          "name": "B4",
          "ticks": 52320,
          "time": 157.2935045,
          "velocity": 0.7874015748031497
        },
        {
          "duration": 0.21428549999998836,
          "durationTicks": 60,
          "midi": 69,
          "name": "A4",
          "ticks": 52620,
          "time": 158.364932,
          "velocity": 0.7874015748031497
        },
        {
          "duration": 0.21428549999998836,
          "durationTicks": 60,
          "midi": 67,
          "name": "G4",
          "ticks": 52680,
          "time": 158.5792175,
          "velocity": 0.7874015748031497
        },
        {
          "duration": 0.21428550000001678,
          "durationTicks": 60,
          "midi": 66,
          "name": "F#4",
          "ticks": 52740,
          "time": 158.793503,
          "velocity": 0.7874015748031497
        },
        {
          "duration": 1.0714274999999986,
          "durationTicks": 300,
          "midi": 64,
          "name": "E4",
          "ticks": 52800,
          "time": 159.0077885,
          "velocity": 0.7874015748031497
        },
        {
          "duration": 0.21428549999998836,
          "durationTicks": 60,
          "midi": 67,
          "name": "G4",
          "ticks": 53100,
          "time": 160.079216,
          "velocity": 0.7874015748031497
        },
        {
          "duration": 0.21428550000001678,
          "durationTicks": 60,
          "midi": 66,
          "name": "F#4",
          "ticks": 53160,
          "time": 160.2935015,
          "velocity": 0.7874015748031497
        },
        {
          "duration": 0.21428549999998836,
          "durationTicks": 60,
          "midi": 64,
          "name": "E4",
          "ticks": 53220,
          "time": 160.507787,
          "velocity": 0.7874015748031497
        },
        {
          "duration": 0.8571420000000103,
          "durationTicks": 240,
          "midi": 62,
          "name": "D4",
          "ticks": 53280,
          "time": 160.7220725,
          "velocity": 0.7874015748031497
        },
        {
          "duration": 0.8571420000000103,
          "durationTicks": 240,
          "midi": 69,
          "name": "A4",
          "ticks": 53760,
          "time": 162.4363565,
          "velocity": 0.7874015748031497
        },
        {
          "duration": 1.0714274999999986,
          "durationTicks": 300,
          "midi": 81,
          "name": "A5",
          "ticks": 54000,
          "time": 163.2934985,
          "velocity": 0.7874015748031497
        },
        {
          "duration": 0.21428550000001678,
          "durationTicks": 60,
          "midi": 79,
          "name": "G5",
          "ticks": 54300,
          "time": 164.364926,
          "velocity": 0.7874015748031497
        },
        {
          "duration": 0.21428549999998836,
          "durationTicks": 60,
          "midi": 78,
          "name": "F#5",
          "ticks": 54360,
          "time": 164.5792115,
          "velocity": 0.7874015748031497
        },
        {
          "duration": 0.21428549999998836,
          "durationTicks": 60,
          "midi": 81,
          "name": "A5",
          "ticks": 54420,
          "time": 164.793497,
          "velocity": 0.7874015748031497
        },
        {
          "duration": 0.21428550000001678,
          "durationTicks": 60,
          "midi": 79,
          "name": "G5",
          "ticks": 54480,
          "time": 165.0077825,
          "velocity": 0.7874015748031497
        },
        {
          "duration": 0.21428549999998836,
          "durationTicks": 60,
          "midi": 78,
          "name": "F#5",
          "ticks": 54540,
          "time": 165.222068,
          "velocity": 0.7874015748031497
        },
        {
          "duration": 0.21428550000001678,
          "durationTicks": 60,
          "midi": 76,
          "name": "E5",
          "ticks": 54600,
          "time": 165.4363535,
          "velocity": 0.7874015748031497
        },
        {
          "duration": 0.21428549999998836,
          "durationTicks": 60,
          "midi": 75,
          "name": "D#5",
          "ticks": 54660,
          "time": 165.650639,
          "velocity": 0.7874015748031497
        },
        {
          "duration": 0.8571420000000103,
          "durationTicks": 240,
          "midi": 76,
          "name": "E5",
          "ticks": 54720,
          "time": 165.8649245,
          "velocity": 0.7874015748031497
        },
        {
          "duration": 0.4285709999999767,
          "durationTicks": 120,
          "midi": 78,
          "name": "F#5",
          "ticks": 55080,
          "time": 167.15063750000002,
          "velocity": 0.7874015748031497
        },
        {
          "duration": 0.42857100000000514,
          "durationTicks": 120,
          "midi": 75,
          "name": "D#5",
          "ticks": 55200,
          "time": 167.5792085,
          "velocity": 0.7874015748031497
        },
        {
          "duration": 0.42857100000000514,
          "durationTicks": 120,
          "midi": 71,
          "name": "B4",
          "ticks": 55320,
          "time": 168.0077795,
          "velocity": 0.7874015748031497
        },
        {
          "duration": 1.0714274999999986,
          "durationTicks": 300,
          "midi": 76,
          "name": "E5",
          "ticks": 55680,
          "time": 169.2934925,
          "velocity": 0.7874015748031497
        },
        {
          "duration": 0.21428549999998836,
          "durationTicks": 60,
          "midi": 74,
          "name": "D5",
          "ticks": 55980,
          "time": 170.36492,
          "velocity": 0.7874015748031497
        },
        {
          "duration": 0.21428550000001678,
          "durationTicks": 60,
          "midi": 72,
          "name": "C5",
          "ticks": 56040,
          "time": 170.5792055,
          "velocity": 0.7874015748031497
        },
        {
          "duration": 0.21428549999998836,
          "durationTicks": 60,
          "midi": 71,
          "name": "B4",
          "ticks": 56100,
          "time": 170.79349100000002,
          "velocity": 0.7874015748031497
        },
        {
          "duration": 1.0714274999999986,
          "durationTicks": 300,
          "midi": 72,
          "name": "C5",
          "ticks": 56160,
          "time": 171.0077765,
          "velocity": 0.7874015748031497
        },
        {
          "duration": 0.21428549999998836,
          "durationTicks": 60,
          "midi": 71,
          "name": "B4",
          "ticks": 56460,
          "time": 172.079204,
          "velocity": 0.7874015748031497
        },
        {
          "duration": 0.21428550000001678,
          "durationTicks": 60,
          "midi": 69,
          "name": "A4",
          "ticks": 56520,
          "time": 172.2934895,
          "velocity": 0.7874015748031497
        },
        {
          "duration": 0.21428549999998836,
          "durationTicks": 60,
          "midi": 67,
          "name": "G4",
          "ticks": 56580,
          "time": 172.507775,
          "velocity": 0.7874015748031497
        },
        {
          "duration": 1.0714274999999986,
          "durationTicks": 300,
          "midi": 66,
          "name": "F#4",
          "ticks": 56640,
          "time": 172.7220605,
          "velocity": 0.7874015748031497
        },
        {
          "duration": 0.21428550000001678,
          "durationTicks": 60,
          "midi": 69,
          "name": "A4",
          "ticks": 56940,
          "time": 173.793488,
          "velocity": 0.7874015748031497
        },
        {
          "duration": 0.21428549999998836,
          "durationTicks": 60,
          "midi": 67,
          "name": "G4",
          "ticks": 57000,
          "time": 174.0077735,
          "velocity": 0.7874015748031497
        },
        {
          "duration": 0.21428550000001678,
          "durationTicks": 60,
          "midi": 66,
          "name": "F#4",
          "ticks": 57060,
          "time": 174.222059,
          "velocity": 0.7874015748031497
        },
        {
          "duration": 0.4285709999999767,
          "durationTicks": 120,
          "midi": 67,
          "name": "G4",
          "ticks": 57120,
          "time": 174.43634450000002,
          "velocity": 0.7874015748031497
        },
        {
          "duration": 0.8571419999999819,
          "durationTicks": 240,
          "midi": 76,
          "name": "E5",
          "ticks": 57600,
          "time": 176.1506285,
          "velocity": 0.7874015748031497
        },
        {
          "duration": 1.071427500000027,
          "durationTicks": 300,
          "midi": 81,
          "name": "A5",
          "ticks": 57840,
          "time": 177.0077705,
          "velocity": 0.7874015748031497
        },
        {
          "duration": 0.21428549999998836,
          "durationTicks": 60,
          "midi": 79,
          "name": "G5",
          "ticks": 58140,
          "time": 178.07919800000002,
          "velocity": 0.7874015748031497
        },
        {
          "duration": 0.21428549999998836,
          "durationTicks": 60,
          "midi": 78,
          "name": "F#5",
          "ticks": 58200,
          "time": 178.2934835,
          "velocity": 0.7874015748031497
        },
        {
          "duration": 0.21428550000001678,
          "durationTicks": 60,
          "midi": 81,
          "name": "A5",
          "ticks": 58260,
          "time": 178.507769,
          "velocity": 0.7874015748031497
        },
        {
          "duration": 0.21428549999998836,
          "durationTicks": 60,
          "midi": 79,
          "name": "G5",
          "ticks": 58320,
          "time": 178.7220545,
          "velocity": 0.7874015748031497
        },
        {
          "duration": 0.21428549999998836,
          "durationTicks": 60,
          "midi": 78,
          "name": "F#5",
          "ticks": 58380,
          "time": 178.93634,
          "velocity": 0.7874015748031497
        },
        {
          "duration": 0.21428550000001678,
          "durationTicks": 60,
          "midi": 76,
          "name": "E5",
          "ticks": 58440,
          "time": 179.1506255,
          "velocity": 0.7874015748031497
        },
        {
          "duration": 0.21428549999998836,
          "durationTicks": 60,
          "midi": 74,
          "name": "D5",
          "ticks": 58500,
          "time": 179.364911,
          "velocity": 0.7874015748031497
        },
        {
          "duration": 0.8571420000000103,
          "durationTicks": 240,
          "midi": 72,
          "name": "C5",
          "ticks": 58560,
          "time": 179.5791965,
          "velocity": 0.7874015748031497
        },
        {
          "duration": 1.0714274999999986,
          "durationTicks": 300,
          "midi": 72,
          "name": "C5",
          "ticks": 58800,
          "time": 180.4363385,
          "velocity": 0.7874015748031497
        },
        {
          "duration": 0.21428550000001678,
          "durationTicks": 60,
          "midi": 71,
          "name": "B4",
          "ticks": 59100,
          "time": 181.507766,
          "velocity": 0.7874015748031497
        },
        {
          "duration": 0.21428549999998836,
          "durationTicks": 60,
          "midi": 69,
          "name": "A4",
          "ticks": 59160,
          "time": 181.72205150000002,
          "velocity": 0.7874015748031497
        },
        {
          "duration": 0.21428549999998836,
          "durationTicks": 60,
          "midi": 72,
          "name": "C5",
          "ticks": 59220,
          "time": 181.936337,
          "velocity": 0.7874015748031497
        },
        {
          "duration": 0.21428550000001678,
          "durationTicks": 60,
          "midi": 71,
          "name": "B4",
          "ticks": 59280,
          "time": 182.1506225,
          "velocity": 0.7874015748031497
        },
        {
          "duration": 0.21428549999998836,
          "durationTicks": 60,
          "midi": 69,
          "name": "A4",
          "ticks": 59340,
          "time": 182.364908,
          "velocity": 0.7874015748031497
        },
        {
          "duration": 0.21428549999998836,
          "durationTicks": 60,
          "midi": 67,
          "name": "G4",
          "ticks": 59400,
          "time": 182.5791935,
          "velocity": 0.7874015748031497
        },
        {
          "duration": 0.21428550000001678,
          "durationTicks": 60,
          "midi": 66,
          "name": "F#4",
          "ticks": 59460,
          "time": 182.793479,
          "velocity": 0.7874015748031497
        },
        {
          "duration": 0.21428549999998836,
          "durationTicks": 60,
          "midi": 71,
          "name": "B4",
          "ticks": 59520,
          "time": 183.0077645,
          "velocity": 0.7874015748031497
        },
        {
          "duration": 0.21428550000001678,
          "durationTicks": 60,
          "midi": 69,
          "name": "A4",
          "ticks": 59580,
          "time": 183.22205,
          "velocity": 0.7874015748031497
        },
        {
          "duration": 0.21428549999998836,
          "durationTicks": 60,
          "midi": 67,
          "name": "G4",
          "ticks": 59640,
          "time": 183.4363355,
          "velocity": 0.7874015748031497
        },
        {
          "duration": 0.21428550000001678,
          "durationTicks": 60,
          "midi": 69,
          "name": "A4",
          "ticks": 59700,
          "time": 183.650621,
          "velocity": 0.7874015748031497
        },
        {
          "duration": 0.21428549999998836,
          "durationTicks": 60,
          "midi": 71,
          "name": "B4",
          "ticks": 59760,
          "time": 183.86490650000002,
          "velocity": 0.7874015748031497
        },
        {
          "duration": 0.21428549999998836,
          "durationTicks": 60,
          "midi": 69,
          "name": "A4",
          "ticks": 59820,
          "time": 184.079192,
          "velocity": 0.7874015748031497
        },
        {
          "duration": 0.21428550000001678,
          "durationTicks": 60,
          "midi": 71,
          "name": "B4",
          "ticks": 59880,
          "time": 184.2934775,
          "velocity": 0.7874015748031497
        },
        {
          "duration": 0.21428549999998836,
          "durationTicks": 60,
          "midi": 74,
          "name": "D5",
          "ticks": 59940,
          "time": 184.507763,
          "velocity": 0.7874015748031497
        },
        {
          "duration": 1.2857130000000154,
          "durationTicks": 360,
          "midi": 79,
          "name": "G5",
          "ticks": 60000,
          "time": 184.7220485,
          "velocity": 0.7874015748031497
        },
        {
          "duration": 0.6428564999999935,
          "durationTicks": 180,
          "midi": 84,
          "name": "C6",
          "ticks": 60360,
          "time": 186.00776150000002,
          "velocity": 0.7874015748031497
        },
        {
          "duration": 0.21428549999998836,
          "durationTicks": 60,
          "midi": 83,
          "name": "B5",
          "ticks": 60540,
          "time": 186.650618,
          "velocity": 0.7874015748031497
        },
        {
          "duration": 0.21428550000001678,
          "durationTicks": 60,
          "midi": 81,
          "name": "A5",
          "ticks": 60600,
          "time": 186.8649035,
          "velocity": 0.7874015748031497
        },
        {
          "duration": 0.21428549999998836,
          "durationTicks": 60,
          "midi": 84,
          "name": "C6",
          "ticks": 60660,
          "time": 187.079189,
          "velocity": 0.7874015748031497
        },
        {
          "duration": 0.21428550000001678,
          "durationTicks": 60,
          "midi": 83,
          "name": "B5",
          "ticks": 60720,
          "time": 187.2934745,
          "velocity": 0.7874015748031497
        },
        {
          "duration": 0.21428549999998836,
          "durationTicks": 60,
          "midi": 81,
          "name": "A5",
          "ticks": 60780,
          "time": 187.50776000000002,
          "velocity": 0.7874015748031497
        },
        {
          "duration": 0.21428549999998836,
          "durationTicks": 60,
          "midi": 79,
          "name": "G5",
          "ticks": 60840,
          "time": 187.7220455,
          "velocity": 0.7874015748031497
        },
        {
          "duration": 0.21428550000001678,
          "durationTicks": 60,
          "midi": 78,
          "name": "F#5",
          "ticks": 60900,
          "time": 187.936331,
          "velocity": 0.7874015748031497
        },
        {
          "duration": 0.625,
          "durationTicks": 240,
          "midi": 79,
          "name": "G5",
          "ticks": 60960,
          "time": 188.1506165,
          "velocity": 0.7874015748031497
        },
        {
          "duration": 0.3125,
          "durationTicks": 120,
          "midi": 71,
          "name": "B4",
          "ticks": 61800,
          "time": 190.3381165,
          "velocity": 0.7874015748031497
        },
        {
          "duration": 0.3125,
          "durationTicks": 120,
          "midi": 67,
          "name": "G4",
          "ticks": 61920,
          "time": 190.6506165,
          "velocity": 0.7874015748031497
        },
        {
          "duration": 0.3125,
          "durationTicks": 120,
          "midi": 74,
          "name": "D5",
          "ticks": 62040,
          "time": 190.9631165,
          "velocity": 0.7874015748031497
        },
        {
          "duration": 0.3125,
          "durationTicks": 120,
          "midi": 69,
          "name": "A4",
          "ticks": 62160,
          "time": 191.2756165,
          "velocity": 0.7874015748031497
        },
        {
          "duration": 0.3125,
          "durationTicks": 120,
          "midi": 74,
          "name": "D5",
          "ticks": 62280,
          "time": 191.5881165,
          "velocity": 0.7874015748031497
        },
        {
          "duration": 1.25,
          "durationTicks": 480,
          "midi": 79,
          "name": "G5",
          "ticks": 62400,
          "time": 191.9006165,
          "velocity": 0.7874015748031497
        },
        {
          "duration": 0.3125,
          "durationTicks": 120,
          "midi": 78,
          "name": "F#5",
          "ticks": 62880,
          "time": 193.1506165,
          "velocity": 0.7874015748031497
        },
        {
          "duration": 0.3125,
          "durationTicks": 120,
          "midi": 69,
          "name": "A4",
          "ticks": 63960,
          "time": 195.9631165,
          "velocity": 0.7874015748031497
        },
        {
          "duration": 0.46875,
          "durationTicks": 180,
          "midi": 72,
          "name": "C5",
          "ticks": 64080,
          "time": 196.2756165,
          "velocity": 0.7874015748031497
        },
        {
          "duration": 0.15625,
          "durationTicks": 60,
          "midi": 69,
          "name": "A4",
          "ticks": 64260,
          "time": 196.7443665,
          "velocity": 0.7874015748031497
        },
        {
          "duration": 0.3125,
          "durationTicks": 120,
          "midi": 71,
          "name": "B4",
          "ticks": 64320,
          "time": 196.9006165,
          "velocity": 0.7874015748031497
        },
        {
          "duration": 0.3125,
          "durationTicks": 120,
          "midi": 76,
          "name": "E5",
          "ticks": 64680,
          "time": 197.8381165,
          "velocity": 0.7874015748031497
        },
        {
          "duration": 0.3125,
          "durationTicks": 120,
          "midi": 79,
          "name": "G5",
          "ticks": 64800,
          "time": 198.1506165,
          "velocity": 0.7874015748031497
        },
        {
          "duration": 0.3125,
          "durationTicks": 120,
          "midi": 73,
          "name": "C#5",
          "ticks": 64920,
          "time": 198.4631165,
          "velocity": 0.7874015748031497
        },
        {
          "duration": 0.625,
          "durationTicks": 240,
          "midi": 81,
          "name": "A5",
          "ticks": 65040,
          "time": 198.7756165,
          "velocity": 0.7874015748031497
        },
        {
          "duration": 0.3125,
          "durationTicks": 120,
          "midi": 74,
          "name": "D5",
          "ticks": 65280,
          "time": 199.4006165,
          "velocity": 0.7874015748031497
        },
        {
          "duration": 0.9375,
          "durationTicks": 360,
          "midi": 79,
          "name": "G5",
          "ticks": 65400,
          "time": 199.7131165,
          "velocity": 0.7874015748031497
        },
        {
          "duration": 0.3125,
          "durationTicks": 120,
          "midi": 78,
          "name": "F#5",
          "ticks": 65760,
          "time": 200.6506165,
          "velocity": 0.7874015748031497
        },
        {
          "duration": 0.625,
          "durationTicks": 240,
          "midi": 76,
          "name": "E5",
          "ticks": 65880,
          "time": 200.9631165,
          "velocity": 0.7874015748031497
        },
        {
          "duration": 0.3125,
          "durationTicks": 120,
          "midi": 74,
          "name": "D5",
          "ticks": 66120,
          "time": 201.5881165,
          "velocity": 0.7874015748031497
        },
        {
          "duration": 0.625,
          "durationTicks": 240,
          "midi": 72,
          "name": "C5",
          "ticks": 66240,
          "time": 201.9006165,
          "velocity": 0.7874015748031497
        },
        {
          "duration": 0.625,
          "durationTicks": 240,
          "midi": 71,
          "name": "B4",
          "ticks": 66480,
          "time": 202.5256165,
          "velocity": 0.7874015748031497
        },
        {
          "duration": 0.3125,
          "durationTicks": 120,
          "midi": 69,
          "name": "A4",
          "ticks": 66720,
          "time": 203.1506165,
          "velocity": 0.7874015748031497
        },
        {
          "duration": 0.3125,
          "durationTicks": 120,
          "midi": 74,
          "name": "D5",
          "ticks": 66840,
          "time": 203.4631165,
          "velocity": 0.7874015748031497
        },
        {
          "duration": 0.625,
          "durationTicks": 240,
          "midi": 73,
          "name": "C#5",
          "ticks": 66960,
          "time": 203.7756165,
          "velocity": 0.7874015748031497
        },
        {
          "duration": 0.3125,
          "durationTicks": 120,
          "midi": 74,
          "name": "D5",
          "ticks": 67200,
          "time": 204.4006165,
          "velocity": 0.7874015748031497
        },
        {
          "duration": 0.3125,
          "durationTicks": 120,
          "midi": 78,
          "name": "F#5",
          "ticks": 67560,
          "time": 205.3381165,
          "velocity": 0.7874015748031497
        },
        {
          "duration": 0.3125,
          "durationTicks": 120,
          "midi": 74,
          "name": "D5",
          "ticks": 67680,
          "time": 205.6506165,
          "velocity": 0.7874015748031497
        },
        {
          "duration": 0.3125,
          "durationTicks": 120,
          "midi": 79,
          "name": "G5",
          "ticks": 67800,
          "time": 205.9631165,
          "velocity": 0.7874015748031497
        },
        {
          "duration": 0.9375,
          "durationTicks": 360,
          "midi": 83,
          "name": "B5",
          "ticks": 67920,
          "time": 206.2756165,
          "velocity": 0.7874015748031497
        },
        {
          "duration": 0.15625,
          "durationTicks": 60,
          "midi": 81,
          "name": "A5",
          "ticks": 68280,
          "time": 207.2131165,
          "velocity": 0.7874015748031497
        },
        {
          "duration": 0.15625,
          "durationTicks": 60,
          "midi": 79,
          "name": "G5",
          "ticks": 68340,
          "time": 207.3693665,
          "velocity": 0.7874015748031497
        },
        {
          "duration": 0.15625,
          "durationTicks": 60,
          "midi": 78,
          "name": "F#5",
          "ticks": 68400,
          "time": 207.5256165,
          "velocity": 0.7874015748031497
        },
        {
          "duration": 0.15625,
          "durationTicks": 60,
          "midi": 76,
          "name": "E5",
          "ticks": 68460,
          "time": 207.6818665,
          "velocity": 0.7874015748031497
        },
        {
          "duration": 0.15625,
          "durationTicks": 60,
          "midi": 75,
          "name": "D#5",
          "ticks": 68520,
          "time": 207.8381165,
          "velocity": 0.7874015748031497
        },
        {
          "duration": 0.15625,
          "durationTicks": 60,
          "midi": 76,
          "name": "E5",
          "ticks": 68580,
          "time": 207.9943665,
          "velocity": 0.7874015748031497
        },
        {
          "duration": 0.9375,
          "durationTicks": 360,
          "midi": 78,
          "name": "F#5",
          "ticks": 68640,
          "time": 208.1506165,
          "velocity": 0.7874015748031497
        },
        {
          "duration": 0.3125,
          "durationTicks": 120,
          "midi": 76,
          "name": "E5",
          "ticks": 69000,
          "time": 209.0881165,
          "velocity": 0.7874015748031497
        },
        {
          "duration": 0.3125,
          "durationTicks": 120,
          "midi": 79,
          "name": "G5",
          "ticks": 69120,
          "time": 209.4006165,
          "velocity": 0.7874015748031497
        },
        {
          "duration": 0.3125,
          "durationTicks": 120,
          "midi": 73,
          "name": "C#5",
          "ticks": 69240,
          "time": 209.7131165,
          "velocity": 0.7874015748031497
        },
        {
          "duration": 0.3125,
          "durationTicks": 120,
          "midi": 75,
          "name": "D#5",
          "ticks": 69360,
          "time": 210.0256165,
          "velocity": 0.7874015748031497
        },
        {
          "duration": 0.625,
          "durationTicks": 240,
          "midi": 76,
          "name": "E5",
          "ticks": 69480,
          "time": 210.3381165,
          "velocity": 0.7874015748031497
        },
        {
          "duration": 0.15625,
          "durationTicks": 60,
          "midi": 75,
          "name": "D#5",
          "ticks": 69720,
          "time": 210.9631165,
          "velocity": 0.7874015748031497
        },
        {
          "duration": 0.15625,
          "durationTicks": 60,
          "midi": 73,
          "name": "C#5",
          "ticks": 69780,
          "time": 211.1193665,
          "velocity": 0.7874015748031497
        },
        {
          "duration": 0.15625,
          "durationTicks": 60,
          "midi": 71,
          "name": "B4",
          "ticks": 69840,
          "time": 211.2756165,
          "velocity": 0.7874015748031497
        },
        {
          "duration": 0.15625,
          "durationTicks": 60,
          "midi": 69,
          "name": "A4",
          "ticks": 69900,
          "time": 211.4318665,
          "velocity": 0.7874015748031497
        },
        {
          "duration": 0.05208333333334281,
          "durationTicks": 20,
          "midi": 67,
          "name": "G4",
          "ticks": 69960,
          "time": 211.5881165,
          "velocity": 0.7874015748031497
        },
        {
          "duration": 0.052083333333314386,
          "durationTicks": 20,
          "midi": 69,
          "name": "A4",
          "ticks": 69980,
          "time": 211.64019983333336,
          "velocity": 0.7874015748031497
        },
        {
          "duration": 0.05208333333334281,
          "durationTicks": 20,
          "midi": 67,
          "name": "G4",
          "ticks": 70000,
          "time": 211.69228316666667,
          "velocity": 0.7874015748031497
        },
        {
          "duration": 0.15625,
          "durationTicks": 60,
          "midi": 66,
          "name": "F#4",
          "ticks": 70020,
          "time": 211.7443665,
          "velocity": 0.7874015748031497
        },
        {
          "duration": 0.3125,
          "durationTicks": 120,
          "midi": 64,
          "name": "E4",
          "ticks": 70080,
          "time": 211.9006165,
          "velocity": 0.7874015748031497
        },
        {
          "duration": 0.3125,
          "durationTicks": 120,
          "midi": 72,
          "name": "C5",
          "ticks": 70440,
          "time": 212.8381165,
          "velocity": 0.7874015748031497
        },
        {
          "duration": 0.3125,
          "durationTicks": 120,
          "midi": 76,
          "name": "E5",
          "ticks": 70560,
          "time": 213.1506165,
          "velocity": 0.7874015748031497
        },
        {
          "duration": 0.3125,
          "durationTicks": 120,
          "midi": 69,
          "name": "A4",
          "ticks": 70680,
          "time": 213.4631165,
          "velocity": 0.7874015748031497
        },
        {
          "duration": 0.3125,
          "durationTicks": 120,
          "midi": 71,
          "name": "B4",
          "ticks": 70800,
          "time": 213.7756165,
          "velocity": 0.7874015748031497
        },
        {
          "duration": 0.3125,
          "durationTicks": 120,
          "midi": 74,
          "name": "D5",
          "ticks": 70920,
          "time": 214.0881165,
          "velocity": 0.7874015748031497
        },
        {
          "duration": 0.3125,
          "durationTicks": 120,
          "midi": 67,
          "name": "G4",
          "ticks": 71040,
          "time": 214.4006165,
          "velocity": 0.7874015748031497
        },
        {
          "duration": 0.9375,
          "durationTicks": 360,
          "midi": 72,
          "name": "C5",
          "ticks": 71160,
          "time": 214.7131165,
          "velocity": 0.7874015748031497
        },
        {
          "duration": 0.3125,
          "durationTicks": 120,
          "midi": 74,
          "name": "D5",
          "ticks": 71520,
          "time": 215.6506165,
          "velocity": 0.7874015748031497
        },
        {
          "duration": 0.3125,
          "durationTicks": 120,
          "midi": 72,
          "name": "C5",
          "ticks": 71640,
          "time": 215.9631165,
          "velocity": 0.7874015748031497
        },
        {
          "duration": 0.15625,
          "durationTicks": 60,
          "midi": 71,
          "name": "B4",
          "ticks": 71760,
          "time": 216.2756165,
          "velocity": 0.7874015748031497
        },
        {
          "duration": 0.15625,
          "durationTicks": 60,
          "midi": 72,
          "name": "C5",
          "ticks": 71820,
          "time": 216.4318665,
          "velocity": 0.7874015748031497
        },
        {
          "duration": 0.78125,
          "durationTicks": 300,
          "midi": 74,
          "name": "D5",
          "ticks": 71880,
          "time": 216.5881165,
          "velocity": 0.7874015748031497
        },
        {
          "duration": 0.15625,
          "durationTicks": 60,
          "midi": 72,
          "name": "C5",
          "ticks": 72180,
          "time": 217.3693665,
          "velocity": 0.7874015748031497
        },
        {
          "duration": 0.15625,
          "durationTicks": 60,
          "midi": 74,
          "name": "D5",
          "ticks": 72240,
          "time": 217.5256165,
          "velocity": 0.7874015748031497
        },
        {
          "duration": 0.15625,
          "durationTicks": 60,
          "midi": 72,
          "name": "C5",
          "ticks": 72300,
          "time": 217.6818665,
          "velocity": 0.7874015748031497
        },
        {
          "duration": 0.15625,
          "durationTicks": 60,
          "midi": 71,
          "name": "B4",
          "ticks": 72360,
          "time": 217.8381165,
          "velocity": 0.7874015748031497
        },
        {
          "duration": 0.15625,
          "durationTicks": 60,
          "midi": 69,
          "name": "A4",
          "ticks": 72420,
          "time": 217.9943665,
          "velocity": 0.7874015748031497
        },
        {
          "duration": 0.3125,
          "durationTicks": 120,
          "midi": 74,
          "name": "D5",
          "ticks": 72480,
          "time": 218.1506165,
          "velocity": 0.7874015748031497
        },
        {
          "duration": 0.25,
          "durationTicks": 120,
          "midi": 67,
          "name": "G4",
          "ticks": 72600,
          "time": 218.4631165,
          "velocity": 0.7874015748031497
        },
        {
          "duration": 0.5,
          "durationTicks": 240,
          "midi": 66,
          "name": "F#4",
          "ticks": 72720,
          "time": 218.7131165,
          "velocity": 0.7874015748031497
        },
        {
          "duration": 0.25,
          "durationTicks": 120,
          "midi": 67,
          "name": "G4",
          "ticks": 72960,
          "time": 219.2131165,
          "velocity": 0.7874015748031497
        },
        {
          "duration": 0.125,
          "durationTicks": 60,
          "midi": 62,
          "name": "D4",
          "ticks": 73620,
          "time": 220.5881165,
          "velocity": 0.7874015748031497
        },
        {
          "duration": 0.125,
          "durationTicks": 60,
          "midi": 64,
          "name": "E4",
          "ticks": 73680,
          "time": 220.7131165,
          "velocity": 0.7874015748031497
        },
        {
          "duration": 0.125,
          "durationTicks": 60,
          "midi": 66,
          "name": "F#4",
          "ticks": 73740,
          "time": 220.8381165,
          "velocity": 0.7874015748031497
        },
        {
          "duration": 0.125,
          "durationTicks": 60,
          "midi": 67,
          "name": "G4",
          "ticks": 73800,
          "time": 220.9631165,
          "velocity": 0.7874015748031497
        },
        {
          "duration": 0.125,
          "durationTicks": 60,
          "midi": 66,
          "name": "F#4",
          "ticks": 73860,
          "time": 221.0881165,
          "velocity": 0.7874015748031497
        },
        {
          "duration": 0.125,
          "durationTicks": 60,
          "midi": 67,
          "name": "G4",
          "ticks": 73920,
          "time": 221.2131165,
          "velocity": 0.7874015748031497
        },
        {
          "duration": 0.125,
          "durationTicks": 60,
          "midi": 69,
          "name": "A4",
          "ticks": 73980,
          "time": 221.3381165,
          "velocity": 0.7874015748031497
        },
        {
          "duration": 0.125,
          "durationTicks": 60,
          "midi": 71,
          "name": "B4",
          "ticks": 74040,
          "time": 221.4631165,
          "velocity": 0.7874015748031497
        },
        {
          "duration": 0.125,
          "durationTicks": 60,
          "midi": 69,
          "name": "A4",
          "ticks": 74100,
          "time": 221.5881165,
          "velocity": 0.7874015748031497
        },
        {
          "duration": 0.125,
          "durationTicks": 60,
          "midi": 67,
          "name": "G4",
          "ticks": 74160,
          "time": 221.7131165,
          "velocity": 0.7874015748031497
        },
        {
          "duration": 0.125,
          "durationTicks": 60,
          "midi": 71,
          "name": "B4",
          "ticks": 74220,
          "time": 221.8381165,
          "velocity": 0.7874015748031497
        },
        {
          "duration": 0.125,
          "durationTicks": 60,
          "midi": 69,
          "name": "A4",
          "ticks": 74280,
          "time": 221.9631165,
          "velocity": 0.7874015748031497
        },
        {
          "duration": 0.125,
          "durationTicks": 60,
          "midi": 67,
          "name": "G4",
          "ticks": 74340,
          "time": 222.0881165,
          "velocity": 0.7874015748031497
        },
        {
          "duration": 0.125,
          "durationTicks": 60,
          "midi": 66,
          "name": "F#4",
          "ticks": 74400,
          "time": 222.2131165,
          "velocity": 0.7874015748031497
        },
        {
          "duration": 0.125,
          "durationTicks": 60,
          "midi": 64,
          "name": "E4",
          "ticks": 74460,
          "time": 222.3381165,
          "velocity": 0.7874015748031497
        },
        {
          "duration": 0.125,
          "durationTicks": 60,
          "midi": 62,
          "name": "D4",
          "ticks": 74520,
          "time": 222.4631165,
          "velocity": 0.7874015748031497
        },
        {
          "duration": 0.125,
          "durationTicks": 60,
          "midi": 64,
          "name": "E4",
          "ticks": 74580,
          "time": 222.5881165,
          "velocity": 0.7874015748031497
        },
        {
          "duration": 0.125,
          "durationTicks": 60,
          "midi": 66,
          "name": "F#4",
          "ticks": 74640,
          "time": 222.7131165,
          "velocity": 0.7874015748031497
        },
        {
          "duration": 0.125,
          "durationTicks": 60,
          "midi": 67,
          "name": "G4",
          "ticks": 74700,
          "time": 222.8381165,
          "velocity": 0.7874015748031497
        },
        {
          "duration": 0.125,
          "durationTicks": 60,
          "midi": 69,
          "name": "A4",
          "ticks": 74760,
          "time": 222.9631165,
          "velocity": 0.7874015748031497
        },
        {
          "duration": 0.125,
          "durationTicks": 60,
          "midi": 66,
          "name": "F#4",
          "ticks": 74820,
          "time": 223.0881165,
          "velocity": 0.7874015748031497
        },
        {
          "duration": 0.125,
          "durationTicks": 60,
          "midi": 64,
          "name": "E4",
          "ticks": 74880,
          "time": 223.2131165,
          "velocity": 0.7874015748031497
        },
        {
          "duration": 0.125,
          "durationTicks": 60,
          "midi": 62,
          "name": "D4",
          "ticks": 74940,
          "time": 223.3381165,
          "velocity": 0.7874015748031497
        },
        {
          "duration": 0.125,
          "durationTicks": 60,
          "midi": 67,
          "name": "G4",
          "ticks": 75000,
          "time": 223.4631165,
          "velocity": 0.7874015748031497
        },
        {
          "duration": 0.125,
          "durationTicks": 60,
          "midi": 66,
          "name": "F#4",
          "ticks": 75060,
          "time": 223.5881165,
          "velocity": 0.7874015748031497
        },
        {
          "duration": 0.125,
          "durationTicks": 60,
          "midi": 64,
          "name": "E4",
          "ticks": 75120,
          "time": 223.7131165,
          "velocity": 0.7874015748031497
        },
        {
          "duration": 0.125,
          "durationTicks": 60,
          "midi": 62,
          "name": "D4",
          "ticks": 75180,
          "time": 223.8381165,
          "velocity": 0.7874015748031497
        },
        {
          "duration": 0.125,
          "durationTicks": 60,
          "midi": 61,
          "name": "C#4",
          "ticks": 75240,
          "time": 223.9631165,
          "velocity": 0.7874015748031497
        },
        {
          "duration": 0.125,
          "durationTicks": 60,
          "midi": 62,
          "name": "D4",
          "ticks": 75300,
          "time": 224.0881165,
          "velocity": 0.7874015748031497
        },
        {
          "duration": 0.125,
          "durationTicks": 60,
          "midi": 64,
          "name": "E4",
          "ticks": 75360,
          "time": 224.2131165,
          "velocity": 0.7874015748031497
        },
        {
          "duration": 0.125,
          "durationTicks": 60,
          "midi": 66,
          "name": "F#4",
          "ticks": 75420,
          "time": 224.3381165,
          "velocity": 0.7874015748031497
        },
        {
          "duration": 0.125,
          "durationTicks": 60,
          "midi": 67,
          "name": "G4",
          "ticks": 75480,
          "time": 224.4631165,
          "velocity": 0.7874015748031497
        },
        {
          "duration": 0.125,
          "durationTicks": 60,
          "midi": 71,
          "name": "B4",
          "ticks": 75540,
          "time": 224.5881165,
          "velocity": 0.7874015748031497
        },
        {
          "duration": 0.125,
          "durationTicks": 60,
          "midi": 69,
          "name": "A4",
          "ticks": 75600,
          "time": 224.7131165,
          "velocity": 0.7874015748031497
        },
        {
          "duration": 0.125,
          "durationTicks": 60,
          "midi": 67,
          "name": "G4",
          "ticks": 75660,
          "time": 224.8381165,
          "velocity": 0.7874015748031497
        },
        {
          "duration": 0.125,
          "durationTicks": 60,
          "midi": 66,
          "name": "F#4",
          "ticks": 75720,
          "time": 224.9631165,
          "velocity": 0.7874015748031497
        },
        {
          "duration": 0.125,
          "durationTicks": 60,
          "midi": 64,
          "name": "E4",
          "ticks": 75780,
          "time": 225.0881165,
          "velocity": 0.7874015748031497
        },
        {
          "duration": 0.125,
          "durationTicks": 60,
          "midi": 62,
          "name": "D4",
          "ticks": 75840,
          "time": 225.2131165,
          "velocity": 0.7874015748031497
        },
        {
          "duration": 0.125,
          "durationTicks": 60,
          "midi": 61,
          "name": "C#4",
          "ticks": 75900,
          "time": 225.3381165,
          "velocity": 0.7874015748031497
        },
        {
          "duration": 0.125,
          "durationTicks": 60,
          "midi": 62,
          "name": "D4",
          "ticks": 75960,
          "time": 225.4631165,
          "velocity": 0.7874015748031497
        },
        {
          "duration": 0.125,
          "durationTicks": 60,
          "midi": 57,
          "name": "A3",
          "ticks": 76020,
          "time": 225.5881165,
          "velocity": 0.7874015748031497
        },
        {
          "duration": 0.125,
          "durationTicks": 60,
          "midi": 62,
          "name": "D4",
          "ticks": 76080,
          "time": 225.7131165,
          "velocity": 0.7874015748031497
        },
        {
          "duration": 0.125,
          "durationTicks": 60,
          "midi": 64,
          "name": "E4",
          "ticks": 76140,
          "time": 225.8381165,
          "velocity": 0.7874015748031497
        },
        {
          "duration": 0.125,
          "durationTicks": 60,
          "midi": 66,
          "name": "F#4",
          "ticks": 76200,
          "time": 225.9631165,
          "velocity": 0.7874015748031497
        },
        {
          "duration": 0.125,
          "durationTicks": 60,
          "midi": 62,
          "name": "D4",
          "ticks": 76260,
          "time": 226.0881165,
          "velocity": 0.7874015748031497
        },
        {
          "duration": 0.125,
          "durationTicks": 60,
          "midi": 66,
          "name": "F#4",
          "ticks": 76320,
          "time": 226.2131165,
          "velocity": 0.7874015748031497
        },
        {
          "duration": 0.125,
          "durationTicks": 60,
          "midi": 69,
          "name": "A4",
          "ticks": 76380,
          "time": 226.3381165,
          "velocity": 0.7874015748031497
        },
        {
          "duration": 0.125,
          "durationTicks": 60,
          "midi": 74,
          "name": "D5",
          "ticks": 76440,
          "time": 226.4631165,
          "velocity": 0.7874015748031497
        },
        {
          "duration": 0.125,
          "durationTicks": 60,
          "midi": 71,
          "name": "B4",
          "ticks": 76500,
          "time": 226.5881165,
          "velocity": 0.7874015748031497
        },
        {
          "duration": 0.125,
          "durationTicks": 60,
          "midi": 69,
          "name": "A4",
          "ticks": 76560,
          "time": 226.7131165,
          "velocity": 0.7874015748031497
        },
        {
          "duration": 0.125,
          "durationTicks": 60,
          "midi": 71,
          "name": "B4",
          "ticks": 76620,
          "time": 226.8381165,
          "velocity": 0.7874015748031497
        },
        {
          "duration": 0.125,
          "durationTicks": 60,
          "midi": 67,
          "name": "G4",
          "ticks": 76680,
          "time": 226.9631165,
          "velocity": 0.7874015748031497
        },
        {
          "duration": 0.125,
          "durationTicks": 60,
          "midi": 71,
          "name": "B4",
          "ticks": 76740,
          "time": 227.0881165,
          "velocity": 0.7874015748031497
        },
        {
          "duration": 0.125,
          "durationTicks": 60,
          "midi": 69,
          "name": "A4",
          "ticks": 76800,
          "time": 227.2131165,
          "velocity": 0.7874015748031497
        },
        {
          "duration": 0.125,
          "durationTicks": 60,
          "midi": 71,
          "name": "B4",
          "ticks": 76860,
          "time": 227.3381165,
          "velocity": 0.7874015748031497
        },
        {
          "duration": 0.125,
          "durationTicks": 60,
          "midi": 62,
          "name": "D4",
          "ticks": 76920,
          "time": 227.4631165,
          "velocity": 0.7874015748031497
        },
        {
          "duration": 0.125,
          "durationTicks": 60,
          "midi": 67,
          "name": "G4",
          "ticks": 76980,
          "time": 227.5881165,
          "velocity": 0.7874015748031497
        },
        {
          "duration": 0.125,
          "durationTicks": 60,
          "midi": 66,
          "name": "F#4",
          "ticks": 77040,
          "time": 227.7131165,
          "velocity": 0.7874015748031497
        },
        {
          "duration": 0.125,
          "durationTicks": 60,
          "midi": 67,
          "name": "G4",
          "ticks": 77100,
          "time": 227.8381165,
          "velocity": 0.7874015748031497
        },
        {
          "duration": 0.125,
          "durationTicks": 60,
          "midi": 64,
          "name": "E4",
          "ticks": 77160,
          "time": 227.9631165,
          "velocity": 0.7874015748031497
        },
        {
          "duration": 0.125,
          "durationTicks": 60,
          "midi": 67,
          "name": "G4",
          "ticks": 77220,
          "time": 228.0881165,
          "velocity": 0.7874015748031497
        },
        {
          "duration": 0.125,
          "durationTicks": 60,
          "midi": 62,
          "name": "D4",
          "ticks": 77280,
          "time": 228.2131165,
          "velocity": 0.7874015748031497
        },
        {
          "duration": 0.125,
          "durationTicks": 60,
          "midi": 67,
          "name": "G4",
          "ticks": 77340,
          "time": 228.3381165,
          "velocity": 0.7874015748031497
        },
        {
          "duration": 0.125,
          "durationTicks": 60,
          "midi": 60,
          "name": "C4",
          "ticks": 77400,
          "time": 228.4631165,
          "velocity": 0.7874015748031497
        },
        {
          "duration": 0.125,
          "durationTicks": 60,
          "midi": 67,
          "name": "G4",
          "ticks": 77460,
          "time": 228.5881165,
          "velocity": 0.7874015748031497
        },
        {
          "duration": 0.125,
          "durationTicks": 60,
          "midi": 59,
          "name": "B3",
          "ticks": 77520,
          "time": 228.7131165,
          "velocity": 0.7874015748031497
        },
        {
          "duration": 0.125,
          "durationTicks": 60,
          "midi": 67,
          "name": "G4",
          "ticks": 77580,
          "time": 228.8381165,
          "velocity": 0.7874015748031497
        },
        {
          "duration": 0.125,
          "durationTicks": 60,
          "midi": 57,
          "name": "A3",
          "ticks": 77640,
          "time": 228.9631165,
          "velocity": 0.7874015748031497
        },
        {
          "duration": 0.125,
          "durationTicks": 60,
          "midi": 67,
          "name": "G4",
          "ticks": 77700,
          "time": 229.0881165,
          "velocity": 0.7874015748031497
        },
        {
          "duration": 0.125,
          "durationTicks": 60,
          "midi": 59,
          "name": "B3",
          "ticks": 77760,
          "time": 229.2131165,
          "velocity": 0.7874015748031497
        },
        {
          "duration": 0.125,
          "durationTicks": 60,
          "midi": 67,
          "name": "G4",
          "ticks": 77820,
          "time": 229.3381165,
          "velocity": 0.7874015748031497
        },
        {
          "duration": 0.125,
          "durationTicks": 60,
          "midi": 60,
          "name": "C4",
          "ticks": 77880,
          "time": 229.4631165,
          "velocity": 0.7874015748031497
        },
        {
          "duration": 0.125,
          "durationTicks": 60,
          "midi": 67,
          "name": "G4",
          "ticks": 77940,
          "time": 229.5881165,
          "velocity": 0.7874015748031497
        },
        {
          "duration": 0.125,
          "durationTicks": 60,
          "midi": 59,
          "name": "B3",
          "ticks": 78000,
          "time": 229.7131165,
          "velocity": 0.7874015748031497
        },
        {
          "duration": 0.125,
          "durationTicks": 60,
          "midi": 67,
          "name": "G4",
          "ticks": 78060,
          "time": 229.8381165,
          "velocity": 0.7874015748031497
        },
        {
          "duration": 0.125,
          "durationTicks": 60,
          "midi": 60,
          "name": "C4",
          "ticks": 78120,
          "time": 229.9631165,
          "velocity": 0.7874015748031497
        },
        {
          "duration": 0.125,
          "durationTicks": 60,
          "midi": 66,
          "name": "F#4",
          "ticks": 78180,
          "time": 230.0881165,
          "velocity": 0.7874015748031497
        },
        {
          "duration": 0.125,
          "durationTicks": 60,
          "midi": 64,
          "name": "E4",
          "ticks": 78240,
          "time": 230.2131165,
          "velocity": 0.7874015748031497
        },
        {
          "duration": 0.125,
          "durationTicks": 60,
          "midi": 66,
          "name": "F#4",
          "ticks": 78300,
          "time": 230.3381165,
          "velocity": 0.7874015748031497
        },
        {
          "duration": 0.125,
          "durationTicks": 60,
          "midi": 62,
          "name": "D4",
          "ticks": 78360,
          "time": 230.4631165,
          "velocity": 0.7874015748031497
        },
        {
          "duration": 0.125,
          "durationTicks": 60,
          "midi": 66,
          "name": "F#4",
          "ticks": 78420,
          "time": 230.5881165,
          "velocity": 0.7874015748031497
        },
        {
          "duration": 0.125,
          "durationTicks": 60,
          "midi": 60,
          "name": "C4",
          "ticks": 78480,
          "time": 230.7131165,
          "velocity": 0.7874015748031497
        },
        {
          "duration": 0.125,
          "durationTicks": 60,
          "midi": 66,
          "name": "F#4",
          "ticks": 78540,
          "time": 230.8381165,
          "velocity": 0.7874015748031497
        },
        {
          "duration": 0.125,
          "durationTicks": 60,
          "midi": 59,
          "name": "B3",
          "ticks": 78600,
          "time": 230.9631165,
          "velocity": 0.7874015748031497
        },
        {
          "duration": 0.125,
          "durationTicks": 60,
          "midi": 67,
          "name": "G4",
          "ticks": 78660,
          "time": 231.0881165,
          "velocity": 0.7874015748031497
        },
        {
          "duration": 0.125,
          "durationTicks": 60,
          "midi": 66,
          "name": "F#4",
          "ticks": 78720,
          "time": 231.2131165,
          "velocity": 0.7874015748031497
        },
        {
          "duration": 0.125,
          "durationTicks": 60,
          "midi": 64,
          "name": "E4",
          "ticks": 78780,
          "time": 231.3381165,
          "velocity": 0.7874015748031497
        },
        {
          "duration": 0.125,
          "durationTicks": 60,
          "midi": 62,
          "name": "D4",
          "ticks": 78840,
          "time": 231.4631165,
          "velocity": 0.7874015748031497
        },
        {
          "duration": 0.125,
          "durationTicks": 60,
          "midi": 60,
          "name": "C4",
          "ticks": 78900,
          "time": 231.5881165,
          "velocity": 0.7874015748031497
        },
        {
          "duration": 0.125,
          "durationTicks": 60,
          "midi": 59,
          "name": "B3",
          "ticks": 78960,
          "time": 231.7131165,
          "velocity": 0.7874015748031497
        },
        {
          "duration": 0.125,
          "durationTicks": 60,
          "midi": 57,
          "name": "A3",
          "ticks": 79020,
          "time": 231.8381165,
          "velocity": 0.7874015748031497
        },
        {
          "duration": 0.5,
          "durationTicks": 240,
          "midi": 55,
          "name": "G3",
          "ticks": 79080,
          "time": 231.9631165,
          "velocity": 0.7874015748031497
        },
        {
          "duration": 0.5,
          "durationTicks": 240,
          "midi": 83,
          "name": "B5",
          "ticks": 79320,
          "time": 232.4631165,
          "velocity": 0.7874015748031497
        },
        {
          "duration": 0.5,
          "durationTicks": 240,
          "midi": 67,
          "name": "G4",
          "ticks": 79560,
          "time": 232.9631165,
          "velocity": 0.7874015748031497
        },
        {
          "duration": 0.5,
          "durationTicks": 240,
          "midi": 83,
          "name": "B5",
          "ticks": 79800,
          "time": 233.4631165,
          "velocity": 0.7874015748031497
        },
        {
          "duration": 0.5,
          "durationTicks": 240,
          "midi": 81,
          "name": "A5",
          "ticks": 80040,
          "time": 233.9631165,
          "velocity": 0.7874015748031497
        },
        {
          "duration": 0.5,
          "durationTicks": 240,
          "midi": 66,
          "name": "F#4",
          "ticks": 80280,
          "time": 234.4631165,
          "velocity": 0.7874015748031497
        },
        {
          "duration": 0.5,
          "durationTicks": 240,
          "midi": 81,
          "name": "A5",
          "ticks": 80520,
          "time": 234.9631165,
          "velocity": 0.7874015748031497
        },
        {
          "duration": 0.125,
          "durationTicks": 60,
          "midi": 79,
          "name": "G5",
          "ticks": 80760,
          "time": 235.4631165,
          "velocity": 0.7874015748031497
        },
        {
          "duration": 0.125,
          "durationTicks": 60,
          "midi": 78,
          "name": "F#5",
          "ticks": 80820,
          "time": 235.5881165,
          "velocity": 0.7874015748031497
        },
        {
          "duration": 0.125,
          "durationTicks": 60,
          "midi": 76,
          "name": "E5",
          "ticks": 80880,
          "time": 235.7131165,
          "velocity": 0.7874015748031497
        },
        {
          "duration": 0.125,
          "durationTicks": 60,
          "midi": 75,
          "name": "D#5",
          "ticks": 80940,
          "time": 235.8381165,
          "velocity": 0.7874015748031497
        },
        {
          "duration": 0.125,
          "durationTicks": 60,
          "midi": 76,
          "name": "E5",
          "ticks": 81000,
          "time": 235.9631165,
          "velocity": 0.7874015748031497
        },
        {
          "duration": 0.125,
          "durationTicks": 60,
          "midi": 79,
          "name": "G5",
          "ticks": 81060,
          "time": 236.0881165,
          "velocity": 0.7874015748031497
        },
        {
          "duration": 0.125,
          "durationTicks": 60,
          "midi": 74,
          "name": "D5",
          "ticks": 81120,
          "time": 236.2131165,
          "velocity": 0.7874015748031497
        },
        {
          "duration": 0.125,
          "durationTicks": 60,
          "midi": 67,
          "name": "G4",
          "ticks": 81180,
          "time": 236.3381165,
          "velocity": 0.7874015748031497
        },
        {
          "duration": 0.125,
          "durationTicks": 60,
          "midi": 73,
          "name": "C#5",
          "ticks": 81240,
          "time": 236.4631165,
          "velocity": 0.7874015748031497
        },
        {
          "duration": 0.125,
          "durationTicks": 60,
          "midi": 67,
          "name": "G4",
          "ticks": 81300,
          "time": 236.5881165,
          "velocity": 0.7874015748031497
        },
        {
          "duration": 0.125,
          "durationTicks": 60,
          "midi": 71,
          "name": "B4",
          "ticks": 81360,
          "time": 236.7131165,
          "velocity": 0.7874015748031497
        },
        {
          "duration": 0.125,
          "durationTicks": 60,
          "midi": 67,
          "name": "G4",
          "ticks": 81420,
          "time": 236.8381165,
          "velocity": 0.7874015748031497
        },
        {
          "duration": 0.125,
          "durationTicks": 60,
          "midi": 73,
          "name": "C#5",
          "ticks": 81480,
          "time": 236.9631165,
          "velocity": 0.7874015748031497
        },
        {
          "duration": 0.125,
          "durationTicks": 60,
          "midi": 67,
          "name": "G4",
          "ticks": 81540,
          "time": 237.0881165,
          "velocity": 0.7874015748031497
        },
        {
          "duration": 0.125,
          "durationTicks": 60,
          "midi": 76,
          "name": "E5",
          "ticks": 81600,
          "time": 237.2131165,
          "velocity": 0.7874015748031497
        },
        {
          "duration": 0.125,
          "durationTicks": 60,
          "midi": 67,
          "name": "G4",
          "ticks": 81660,
          "time": 237.3381165,
          "velocity": 0.7874015748031497
        },
        {
          "duration": 0.25,
          "durationTicks": 120,
          "midi": 57,
          "name": "A3",
          "ticks": 81720,
          "time": 237.4631165,
          "velocity": 0.7874015748031497
        },
        {
          "duration": 0.25,
          "durationTicks": 120,
          "midi": 79,
          "name": "G5",
          "ticks": 81840,
          "time": 237.7131165,
          "velocity": 0.7874015748031497
        },
        {
          "duration": 0.25,
          "durationTicks": 120,
          "midi": 78,
          "name": "F#5",
          "ticks": 81960,
          "time": 237.9631165,
          "velocity": 0.7874015748031497
        },
        {
          "duration": 0.0625,
          "durationTicks": 30,
          "midi": 81,
          "name": "A5",
          "ticks": 82080,
          "time": 238.2131165,
          "velocity": 0.7874015748031497
        },
        {
          "duration": 0.0625,
          "durationTicks": 30,
          "midi": 79,
          "name": "G5",
          "ticks": 82110,
          "time": 238.2756165,
          "velocity": 0.7874015748031497
        },
        {
          "duration": 0.0625,
          "durationTicks": 30,
          "midi": 78,
          "name": "F#5",
          "ticks": 82140,
          "time": 238.3381165,
          "velocity": 0.7874015748031497
        },
        {
          "duration": 0.0625,
          "durationTicks": 30,
          "midi": 79,
          "name": "G5",
          "ticks": 82170,
          "time": 238.4006165,
          "velocity": 0.7874015748031497
        },
        {
          "duration": 0.25,
          "durationTicks": 120,
          "midi": 81,
          "name": "A5",
          "ticks": 82200,
          "time": 238.4631165,
          "velocity": 0.7874015748031497
        },
        {
          "duration": 0.25,
          "durationTicks": 120,
          "midi": 64,
          "name": "E4",
          "ticks": 82320,
          "time": 238.7131165,
          "velocity": 0.7874015748031497
        },
        {
          "duration": 0.25,
          "durationTicks": 120,
          "midi": 66,
          "name": "F#4",
          "ticks": 82440,
          "time": 238.9631165,
          "velocity": 0.7874015748031497
        },
        {
          "duration": 0.25,
          "durationTicks": 120,
          "midi": 78,
          "name": "F#5",
          "ticks": 82560,
          "time": 239.2131165,
          "velocity": 0.7874015748031497
        },
        {
          "duration": 0.25,
          "durationTicks": 120,
          "midi": 79,
          "name": "G5",
          "ticks": 82680,
          "time": 239.4631165,
          "velocity": 0.7874015748031497
        },
        {
          "duration": 0.25,
          "durationTicks": 120,
          "midi": 81,
          "name": "A5",
          "ticks": 82800,
          "time": 239.7131165,
          "velocity": 0.7874015748031497
        },
        {
          "duration": 0.25,
          "durationTicks": 120,
          "midi": 83,
          "name": "B5",
          "ticks": 82920,
          "time": 239.9631165,
          "velocity": 0.7874015748031497
        },
        {
          "duration": 0.25,
          "durationTicks": 120,
          "midi": 66,
          "name": "F#4",
          "ticks": 83040,
          "time": 240.2131165,
          "velocity": 0.7874015748031497
        },
        {
          "duration": 0.25,
          "durationTicks": 120,
          "midi": 64,
          "name": "E4",
          "ticks": 83160,
          "time": 240.4631165,
          "velocity": 0.7874015748031497
        },
        {
          "duration": 0.25,
          "durationTicks": 120,
          "midi": 79,
          "name": "G5",
          "ticks": 83280,
          "time": 240.7131165,
          "velocity": 0.7874015748031497
        },
        {
          "duration": 0.25,
          "durationTicks": 120,
          "midi": 81,
          "name": "A5",
          "ticks": 83400,
          "time": 240.9631165,
          "velocity": 0.7874015748031497
        },
        {
          "duration": 0.25,
          "durationTicks": 120,
          "midi": 83,
          "name": "B5",
          "ticks": 83520,
          "time": 241.2131165,
          "velocity": 0.7874015748031497
        },
        {
          "duration": 0.25,
          "durationTicks": 120,
          "midi": 76,
          "name": "E5",
          "ticks": 83640,
          "time": 241.4631165,
          "velocity": 0.7874015748031497
        },
        {
          "duration": 0.25,
          "durationTicks": 120,
          "midi": 67,
          "name": "G4",
          "ticks": 83760,
          "time": 241.7131165,
          "velocity": 0.7874015748031497
        },
        {
          "duration": 0.25,
          "durationTicks": 120,
          "midi": 57,
          "name": "A3",
          "ticks": 83880,
          "time": 241.9631165,
          "velocity": 0.7874015748031497
        },
        {
          "duration": 0.25,
          "durationTicks": 120,
          "midi": 64,
          "name": "E4",
          "ticks": 84000,
          "time": 242.2131165,
          "velocity": 0.7874015748031497
        },
        {
          "duration": 0.25,
          "durationTicks": 120,
          "midi": 61,
          "name": "C#4",
          "ticks": 84120,
          "time": 242.4631165,
          "velocity": 0.7874015748031497
        },
        {
          "duration": 0.25,
          "durationTicks": 120,
          "midi": 57,
          "name": "A3",
          "ticks": 84240,
          "time": 242.7131165,
          "velocity": 0.7874015748031497
        },
        {
          "duration": 0.25,
          "durationTicks": 120,
          "midi": 50,
          "name": "D3",
          "ticks": 84360,
          "time": 242.9631165,
          "velocity": 0.7874015748031497
        },
        {
          "duration": 0.25,
          "durationTicks": 120,
          "midi": 62,
          "name": "D4",
          "ticks": 84480,
          "time": 243.2131165,
          "velocity": 0.7874015748031497
        },
        {
          "duration": 0.25,
          "durationTicks": 120,
          "midi": 66,
          "name": "F#4",
          "ticks": 84600,
          "time": 243.4631165,
          "velocity": 0.7874015748031497
        },
        {
          "duration": 0.25,
          "durationTicks": 120,
          "midi": 69,
          "name": "A4",
          "ticks": 84720,
          "time": 243.7131165,
          "velocity": 0.7874015748031497
        },
        {
          "duration": 0.5,
          "durationTicks": 240,
          "midi": 74,
          "name": "D5",
          "ticks": 84840,
          "time": 243.9631165,
          "velocity": 0.7874015748031497
        },
        {
          "duration": 0.5,
          "durationTicks": 240,
          "midi": 86,
          "name": "D6",
          "ticks": 84840,
          "time": 243.9631165,
          "velocity": 0.7874015748031497
        },
        {
          "duration": 0.25,
          "durationTicks": 120,
          "midi": 78,
          "name": "F#5",
          "ticks": 85080,
          "time": 244.4631165,
          "velocity": 0.7874015748031497
        },
        {
          "duration": 0.25,
          "durationTicks": 120,
          "midi": 62,
          "name": "D4",
          "ticks": 85320,
          "time": 244.9631165,
          "velocity": 0.7874015748031497
        },
        {
          "duration": 0.08333333333334281,
          "durationTicks": 40,
          "midi": 76,
          "name": "E5",
          "ticks": 85560,
          "time": 245.4631165,
          "velocity": 0.7874015748031497
        },
        {
          "duration": 0.08333333333331439,
          "durationTicks": 40,
          "midi": 78,
          "name": "F#5",
          "ticks": 85600,
          "time": 245.54644983333336,
          "velocity": 0.7874015748031497
        },
        {
          "duration": 0.08333333333334281,
          "durationTicks": 40,
          "midi": 79,
          "name": "G5",
          "ticks": 85640,
          "time": 245.62978316666667,
          "velocity": 0.7874015748031497
        },
        {
          "duration": 0.08333333333334281,
          "durationTicks": 40,
          "midi": 78,
          "name": "F#5",
          "ticks": 85680,
          "time": 245.7131165,
          "velocity": 0.7874015748031497
        },
        {
          "duration": 0.08333333333331439,
          "durationTicks": 40,
          "midi": 76,
          "name": "E5",
          "ticks": 85720,
          "time": 245.79644983333336,
          "velocity": 0.7874015748031497
        },
        {
          "duration": 0.08333333333334281,
          "durationTicks": 40,
          "midi": 78,
          "name": "F#5",
          "ticks": 85760,
          "time": 245.87978316666667,
          "velocity": 0.7874015748031497
        },
        {
          "duration": 0.25,
          "durationTicks": 120,
          "midi": 79,
          "name": "G5",
          "ticks": 85800,
          "time": 245.9631165,
          "velocity": 0.7874015748031497
        },
        {
          "duration": 0.125,
          "durationTicks": 60,
          "midi": 74,
          "name": "D5",
          "ticks": 85920,
          "time": 246.2131165,
          "velocity": 0.7874015748031497
        },
        {
          "duration": 0.125,
          "durationTicks": 60,
          "midi": 79,
          "name": "G5",
          "ticks": 85980,
          "time": 246.3381165,
          "velocity": 0.7874015748031497
        },
        {
          "duration": 0.25,
          "durationTicks": 120,
          "midi": 81,
          "name": "A5",
          "ticks": 86040,
          "time": 246.4631165,
          "velocity": 0.7874015748031497
        },
        {
          "duration": 0.125,
          "durationTicks": 60,
          "midi": 74,
          "name": "D5",
          "ticks": 86160,
          "time": 246.7131165,
          "velocity": 0.7874015748031497
        },
        {
          "duration": 0.125,
          "durationTicks": 60,
          "midi": 81,
          "name": "A5",
          "ticks": 86220,
          "time": 246.8381165,
          "velocity": 0.7874015748031497
        },
        {
          "duration": 0.25,
          "durationTicks": 120,
          "midi": 83,
          "name": "B5",
          "ticks": 86280,
          "time": 246.9631165,
          "velocity": 0.7874015748031497
        },
        {
          "duration": 0.25,
          "durationTicks": 120,
          "midi": 79,
          "name": "G5",
          "ticks": 86400,
          "time": 247.2131165,
          "velocity": 0.7874015748031497
        },
        {
          "duration": 0.25,
          "durationTicks": 120,
          "midi": 76,
          "name": "E5",
          "ticks": 86520,
          "time": 247.4631165,
          "velocity": 0.7874015748031497
        },
        {
          "duration": 0.25,
          "durationTicks": 120,
          "midi": 72,
          "name": "C5",
          "ticks": 86640,
          "time": 247.7131165,
          "velocity": 0.7874015748031497
        },
        {
          "duration": 0.25,
          "durationTicks": 120,
          "midi": 69,
          "name": "A4",
          "ticks": 86760,
          "time": 247.9631165,
          "velocity": 0.7874015748031497
        },
        {
          "duration": 0.25,
          "durationTicks": 120,
          "midi": 79,
          "name": "G5",
          "ticks": 86880,
          "time": 248.2131165,
          "velocity": 0.7874015748031497
        },
        {
          "duration": 0.08333333333334281,
          "durationTicks": 40,
          "midi": 78,
          "name": "F#5",
          "ticks": 87000,
          "time": 248.4631165,
          "velocity": 0.7874015748031497
        },
        {
          "duration": 0.08333333333331439,
          "durationTicks": 40,
          "midi": 76,
          "name": "E5",
          "ticks": 87040,
          "time": 248.54644983333336,
          "velocity": 0.7874015748031497
        },
        {
          "duration": 0.08333333333334281,
          "durationTicks": 40,
          "midi": 75,
          "name": "D#5",
          "ticks": 87080,
          "time": 248.62978316666667,
          "velocity": 0.7874015748031497
        },
        {
          "duration": 0.5,
          "durationTicks": 240,
          "midi": 76,
          "name": "E5",
          "ticks": 87120,
          "time": 248.7131165,
          "velocity": 0.7874015748031497
        },
        {
          "duration": 0.08333333333334281,
          "durationTicks": 40,
          "midi": 75,
          "name": "D#5",
          "ticks": 87360,
          "time": 249.2131165,
          "velocity": 0.7874015748031497
        },
        {
          "duration": 0.08333333333331439,
          "durationTicks": 40,
          "midi": 76,
          "name": "E5",
          "ticks": 87400,
          "time": 249.29644983333336,
          "velocity": 0.7874015748031497
        },
        {
          "duration": 0.08333333333334281,
          "durationTicks": 40,
          "midi": 75,
          "name": "D#5",
          "ticks": 87440,
          "time": 249.37978316666667,
          "velocity": 0.7874015748031497
        },
        {
          "duration": 0.25,
          "durationTicks": 120,
          "midi": 57,
          "name": "A3",
          "ticks": 87600,
          "time": 249.7131165,
          "velocity": 0.7874015748031497
        },
        {
          "duration": 0.05000000000001137,
          "durationTicks": 24,
          "midi": 55,
          "name": "G3",
          "ticks": 87720,
          "time": 249.9631165,
          "velocity": 0.7874015748031497
        },
        {
          "duration": 0.04999999999998295,
          "durationTicks": 24,
          "midi": 57,
          "name": "A3",
          "ticks": 87744,
          "time": 250.01311650000002,
          "velocity": 0.7874015748031497
        },
        {
          "duration": 0.05000000000001137,
          "durationTicks": 24,
          "midi": 55,
          "name": "G3",
          "ticks": 87768,
          "time": 250.0631165,
          "velocity": 0.7874015748031497
        },
        {
          "duration": 0.04999999999998295,
          "durationTicks": 24,
          "midi": 57,
          "name": "A3",
          "ticks": 87792,
          "time": 250.11311650000002,
          "velocity": 0.7874015748031497
        },
        {
          "duration": 0.05000000000001137,
          "durationTicks": 24,
          "midi": 55,
          "name": "G3",
          "ticks": 87816,
          "time": 250.1631165,
          "velocity": 0.7874015748031497
        },
        {
          "duration": 0.25,
          "durationTicks": 120,
          "midi": 54,
          "name": "F#3",
          "ticks": 87840,
          "time": 250.2131165,
          "velocity": 0.7874015748031497
        },
        {
          "duration": 0.25,
          "durationTicks": 120,
          "midi": 52,
          "name": "E3",
          "ticks": 87960,
          "time": 250.4631165,
          "velocity": 0.7874015748031497
        },
        {
          "duration": 0.25,
          "durationTicks": 120,
          "midi": 76,
          "name": "E5",
          "ticks": 88200,
          "time": 250.9631165,
          "velocity": 0.7874015748031497
        },
        {
          "duration": 0.0625,
          "durationTicks": 30,
          "midi": 52,
          "name": "E3",
          "ticks": 88440,
          "time": 251.4631165,
          "velocity": 0.7874015748031497
        },
        {
          "duration": 0.0625,
          "durationTicks": 30,
          "midi": 50,
          "name": "D3",
          "ticks": 88470,
          "time": 251.5256165,
          "velocity": 0.7874015748031497
        },
        {
          "duration": 0.0625,
          "durationTicks": 30,
          "midi": 52,
          "name": "E3",
          "ticks": 88500,
          "time": 251.5881165,
          "velocity": 0.7874015748031497
        },
        {
          "duration": 0.0625,
          "durationTicks": 30,
          "midi": 50,
          "name": "D3",
          "ticks": 88530,
          "time": 251.6506165,
          "velocity": 0.7874015748031497
        },
        {
          "duration": 0.0625,
          "durationTicks": 30,
          "midi": 52,
          "name": "E3",
          "ticks": 88560,
          "time": 251.7131165,
          "velocity": 0.7874015748031497
        },
        {
          "duration": 0.0625,
          "durationTicks": 30,
          "midi": 50,
          "name": "D3",
          "ticks": 88590,
          "time": 251.7756165,
          "velocity": 0.7874015748031497
        },
        {
          "duration": 0.0625,
          "durationTicks": 30,
          "midi": 48,
          "name": "C3",
          "ticks": 88620,
          "time": 251.8381165,
          "velocity": 0.7874015748031497
        },
        {
          "duration": 0.0625,
          "durationTicks": 30,
          "midi": 50,
          "name": "D3",
          "ticks": 88650,
          "time": 251.9006165,
          "velocity": 0.7874015748031497
        },
        {
          "duration": 0.25,
          "durationTicks": 120,
          "midi": 48,
          "name": "C3",
          "ticks": 88680,
          "time": 251.9631165,
          "velocity": 0.7874015748031497
        },
        {
          "duration": 0.25,
          "durationTicks": 120,
          "midi": 76,
          "name": "E5",
          "ticks": 88920,
          "time": 252.4631165,
          "velocity": 0.7874015748031497
        },
        {
          "duration": 0.0625,
          "durationTicks": 30,
          "midi": 47,
          "name": "B2",
          "ticks": 89160,
          "time": 252.9631165,
          "velocity": 0.7874015748031497
        },
        {
          "duration": 0.0625,
          "durationTicks": 30,
          "midi": 45,
          "name": "A2",
          "ticks": 89190,
          "time": 253.0256165,
          "velocity": 0.7874015748031497
        },
        {
          "duration": 0.0625,
          "durationTicks": 30,
          "midi": 47,
          "name": "B2",
          "ticks": 89220,
          "time": 253.0881165,
          "velocity": 0.7874015748031497
        },
        {
          "duration": 0.0625,
          "durationTicks": 30,
          "midi": 45,
          "name": "A2",
          "ticks": 89250,
          "time": 253.1506165,
          "velocity": 0.7874015748031497
        },
        {
          "duration": 0.0625,
          "durationTicks": 30,
          "midi": 47,
          "name": "B2",
          "ticks": 89280,
          "time": 253.2131165,
          "velocity": 0.7874015748031497
        },
        {
          "duration": 0.0625,
          "durationTicks": 30,
          "midi": 45,
          "name": "A2",
          "ticks": 89310,
          "time": 253.2756165,
          "velocity": 0.7874015748031497
        },
        {
          "duration": 0.0625,
          "durationTicks": 30,
          "midi": 43,
          "name": "G2",
          "ticks": 89340,
          "time": 253.3381165,
          "velocity": 0.7874015748031497
        },
        {
          "duration": 0.0625,
          "durationTicks": 30,
          "midi": 45,
          "name": "A2",
          "ticks": 89370,
          "time": 253.4006165,
          "velocity": 0.7874015748031497
        },
        {
          "duration": 0.5,
          "durationTicks": 240,
          "midi": 47,
          "name": "B2",
          "ticks": 89400,
          "time": 253.4631165,
          "velocity": 0.7874015748031497
        },
        {
          "duration": 0.25,
          "durationTicks": 120,
          "midi": 79,
          "name": "G5",
          "ticks": 89640,
          "time": 253.9631165,
          "velocity": 0.7874015748031497
        },
        {
          "duration": 0.25,
          "durationTicks": 120,
          "midi": 78,
          "name": "F#5",
          "ticks": 89760,
          "time": 254.2131165,
          "velocity": 0.7874015748031497
        },
        {
          "duration": 0.25,
          "durationTicks": 120,
          "midi": 76,
          "name": "E5",
          "ticks": 89880,
          "time": 254.4631165,
          "velocity": 0.7874015748031497
        },
        {
          "duration": 0.25,
          "durationTicks": 120,
          "midi": 75,
          "name": "D#5",
          "ticks": 90000,
          "time": 254.7131165,
          "velocity": 0.7874015748031497
        },
        {
          "duration": 0.5,
          "durationTicks": 240,
          "midi": 76,
          "name": "E5",
          "ticks": 90120,
          "time": 254.9631165,
          "velocity": 0.7874015748031497
        },
        {
          "duration": 0.625,
          "durationTicks": 300,
          "midi": 52,
          "name": "E3",
          "ticks": 90360,
          "time": 255.4631165,
          "velocity": 0.7874015748031497
        },
        {
          "duration": 0.125,
          "durationTicks": 60,
          "midi": 50,
          "name": "D3",
          "ticks": 90660,
          "time": 256.0881165,
          "velocity": 0.7874015748031497
        },
        {
          "duration": 0.125,
          "durationTicks": 60,
          "midi": 48,
          "name": "C3",
          "ticks": 90720,
          "time": 256.2131165,
          "velocity": 0.7874015748031497
        },
        {
          "duration": 0.125,
          "durationTicks": 60,
          "midi": 47,
          "name": "B2",
          "ticks": 90780,
          "time": 256.3381165,
          "velocity": 0.7874015748031497
        },
        {
          "duration": 0.125,
          "durationTicks": 60,
          "midi": 48,
          "name": "C3",
          "ticks": 90840,
          "time": 256.4631165,
          "velocity": 0.7874015748031497
        },
        {
          "duration": 0.125,
          "durationTicks": 60,
          "midi": 52,
          "name": "E3",
          "ticks": 90900,
          "time": 256.5881165,
          "velocity": 0.7874015748031497
        },
        {
          "duration": 0.125,
          "durationTicks": 60,
          "midi": 50,
          "name": "D3",
          "ticks": 90960,
          "time": 256.7131165,
          "velocity": 0.7874015748031497
        },
        {
          "duration": 0.125,
          "durationTicks": 60,
          "midi": 52,
          "name": "E3",
          "ticks": 91020,
          "time": 256.8381165,
          "velocity": 0.7874015748031497
        },
        {
          "duration": 0.125,
          "durationTicks": 60,
          "midi": 57,
          "name": "A3",
          "ticks": 91080,
          "time": 256.9631165,
          "velocity": 0.7874015748031497
        },
        {
          "duration": 0.125,
          "durationTicks": 60,
          "midi": 52,
          "name": "E3",
          "ticks": 91140,
          "time": 257.0881165,
          "velocity": 0.7874015748031497
        },
        {
          "duration": 0.125,
          "durationTicks": 60,
          "midi": 50,
          "name": "D3",
          "ticks": 91200,
          "time": 257.2131165,
          "velocity": 0.7874015748031497
        },
        {
          "duration": 0.125,
          "durationTicks": 60,
          "midi": 52,
          "name": "E3",
          "ticks": 91260,
          "time": 257.3381165,
          "velocity": 0.7874015748031497
        },
        {
          "duration": 0.125,
          "durationTicks": 60,
          "midi": 60,
          "name": "C4",
          "ticks": 91320,
          "time": 257.4631165,
          "velocity": 0.7874015748031497
        },
        {
          "duration": 0.125,
          "durationTicks": 60,
          "midi": 57,
          "name": "A3",
          "ticks": 91380,
          "time": 257.5881165,
          "velocity": 0.7874015748031497
        },
        {
          "duration": 0.125,
          "durationTicks": 60,
          "midi": 55,
          "name": "G3",
          "ticks": 91440,
          "time": 257.7131165,
          "velocity": 0.7874015748031497
        },
        {
          "duration": 0.125,
          "durationTicks": 60,
          "midi": 57,
          "name": "A3",
          "ticks": 91500,
          "time": 257.8381165,
          "velocity": 0.7874015748031497
        },
        {
          "duration": 0.125,
          "durationTicks": 60,
          "midi": 66,
          "name": "F#4",
          "ticks": 91560,
          "time": 257.9631165,
          "velocity": 0.7874015748031497
        },
        {
          "duration": 0.125,
          "durationTicks": 60,
          "midi": 57,
          "name": "A3",
          "ticks": 91620,
          "time": 258.0881165,
          "velocity": 0.7874015748031497
        },
        {
          "duration": 0.125,
          "durationTicks": 60,
          "midi": 55,
          "name": "G3",
          "ticks": 91680,
          "time": 258.2131165,
          "velocity": 0.7874015748031497
        },
        {
          "duration": 0.125,
          "durationTicks": 60,
          "midi": 57,
          "name": "A3",
          "ticks": 91740,
          "time": 258.3381165,
          "velocity": 0.7874015748031497
        },
        {
          "duration": 0.125,
          "durationTicks": 60,
          "midi": 67,
          "name": "G4",
          "ticks": 91800,
          "time": 258.4631165,
          "velocity": 0.7874015748031497
        },
        {
          "duration": 0.125,
          "durationTicks": 60,
          "midi": 62,
          "name": "D4",
          "ticks": 91860,
          "time": 258.5881165,
          "velocity": 0.7874015748031497
        },
        {
          "duration": 0.125,
          "durationTicks": 60,
          "midi": 60,
          "name": "C4",
          "ticks": 91920,
          "time": 258.7131165,
          "velocity": 0.7874015748031497
        },
        {
          "duration": 0.125,
          "durationTicks": 60,
          "midi": 62,
          "name": "D4",
          "ticks": 91980,
          "time": 258.8381165,
          "velocity": 0.7874015748031497
        },
        {
          "duration": 0.125,
          "durationTicks": 60,
          "midi": 71,
          "name": "B4",
          "ticks": 92040,
          "time": 258.9631165,
          "velocity": 0.7874015748031497
        },
        {
          "duration": 0.125,
          "durationTicks": 60,
          "midi": 67,
          "name": "G4",
          "ticks": 92100,
          "time": 259.0881165,
          "velocity": 0.7874015748031497
        },
        {
          "duration": 0.125,
          "durationTicks": 60,
          "midi": 66,
          "name": "F#4",
          "ticks": 92160,
          "time": 259.2131165,
          "velocity": 0.7874015748031497
        },
        {
          "duration": 0.125,
          "durationTicks": 60,
          "midi": 67,
          "name": "G4",
          "ticks": 92220,
          "time": 259.3381165,
          "velocity": 0.7874015748031497
        },
        {
          "duration": 0.125,
          "durationTicks": 60,
          "midi": 76,
          "name": "E5",
          "ticks": 92280,
          "time": 259.4631165,
          "velocity": 0.7874015748031497
        },
        {
          "duration": 0.125,
          "durationTicks": 60,
          "midi": 74,
          "name": "D5",
          "ticks": 92340,
          "time": 259.5881165,
          "velocity": 0.7874015748031497
        },
        {
          "duration": 0.125,
          "durationTicks": 60,
          "midi": 72,
          "name": "C5",
          "ticks": 92400,
          "time": 259.7131165,
          "velocity": 0.7874015748031497
        },
        {
          "duration": 0.125,
          "durationTicks": 60,
          "midi": 74,
          "name": "D5",
          "ticks": 92460,
          "time": 259.8381165,
          "velocity": 0.7874015748031497
        },
        {
          "duration": 0.125,
          "durationTicks": 60,
          "midi": 78,
          "name": "F#5",
          "ticks": 92520,
          "time": 259.9631165,
          "velocity": 0.7874015748031497
        },
        {
          "duration": 0.125,
          "durationTicks": 60,
          "midi": 74,
          "name": "D5",
          "ticks": 92580,
          "time": 260.0881165,
          "velocity": 0.7874015748031497
        },
        {
          "duration": 0.125,
          "durationTicks": 60,
          "midi": 72,
          "name": "C5",
          "ticks": 92640,
          "time": 260.2131165,
          "velocity": 0.7874015748031497
        },
        {
          "duration": 0.125,
          "durationTicks": 60,
          "midi": 74,
          "name": "D5",
          "ticks": 92700,
          "time": 260.3381165,
          "velocity": 0.7874015748031497
        },
        {
          "duration": 0.125,
          "durationTicks": 60,
          "midi": 79,
          "name": "G5",
          "ticks": 92760,
          "time": 260.4631165,
          "velocity": 0.7874015748031497
        },
        {
          "duration": 0.125,
          "durationTicks": 60,
          "midi": 74,
          "name": "D5",
          "ticks": 92820,
          "time": 260.5881165,
          "velocity": 0.7874015748031497
        },
        {
          "duration": 0.125,
          "durationTicks": 60,
          "midi": 72,
          "name": "C5",
          "ticks": 92880,
          "time": 260.7131165,
          "velocity": 0.7874015748031497
        },
        {
          "duration": 0.125,
          "durationTicks": 60,
          "midi": 74,
          "name": "D5",
          "ticks": 92940,
          "time": 260.8381165,
          "velocity": 0.7874015748031497
        },
        {
          "duration": 0.125,
          "durationTicks": 60,
          "midi": 81,
          "name": "A5",
          "ticks": 93000,
          "time": 260.9631165,
          "velocity": 0.7874015748031497
        },
        {
          "duration": 0.125,
          "durationTicks": 60,
          "midi": 74,
          "name": "D5",
          "ticks": 93060,
          "time": 261.0881165,
          "velocity": 0.7874015748031497
        },
        {
          "duration": 0.125,
          "durationTicks": 60,
          "midi": 72,
          "name": "C5",
          "ticks": 93120,
          "time": 261.2131165,
          "velocity": 0.7874015748031497
        },
        {
          "duration": 0.125,
          "durationTicks": 60,
          "midi": 71,
          "name": "B4",
          "ticks": 93180,
          "time": 261.3381165,
          "velocity": 0.7874015748031497
        },
        {
          "duration": 0.125,
          "durationTicks": 60,
          "midi": 72,
          "name": "C5",
          "ticks": 93240,
          "time": 261.4631165,
          "velocity": 0.7874015748031497
        },
        {
          "duration": 0.125,
          "durationTicks": 60,
          "midi": 71,
          "name": "B4",
          "ticks": 93300,
          "time": 261.5881165,
          "velocity": 0.7874015748031497
        },
        {
          "duration": 0.125,
          "durationTicks": 60,
          "midi": 69,
          "name": "A4",
          "ticks": 93360,
          "time": 261.7131165,
          "velocity": 0.7874015748031497
        },
        {
          "duration": 0.125,
          "durationTicks": 60,
          "midi": 67,
          "name": "G4",
          "ticks": 93420,
          "time": 261.8381165,
          "velocity": 0.7874015748031497
        },
        {
          "duration": 0.125,
          "durationTicks": 60,
          "midi": 66,
          "name": "F#4",
          "ticks": 93480,
          "time": 261.9631165,
          "velocity": 0.7874015748031497
        },
        {
          "duration": 0.125,
          "durationTicks": 60,
          "midi": 81,
          "name": "A5",
          "ticks": 93540,
          "time": 262.0881165,
          "velocity": 0.7874015748031497
        },
        {
          "duration": 0.125,
          "durationTicks": 60,
          "midi": 79,
          "name": "G5",
          "ticks": 93600,
          "time": 262.2131165,
          "velocity": 0.7874015748031497
        },
        {
          "duration": 0.125,
          "durationTicks": 60,
          "midi": 78,
          "name": "F#5",
          "ticks": 93660,
          "time": 262.3381165,
          "velocity": 0.7874015748031497
        },
        {
          "duration": 0.25,
          "durationTicks": 120,
          "midi": 79,
          "name": "G5",
          "ticks": 93720,
          "time": 262.4631165,
          "velocity": 0.7874015748031497
        },
        {
          "duration": 0.25,
          "durationTicks": 120,
          "midi": 71,
          "name": "B4",
          "ticks": 93840,
          "time": 262.7131165,
          "velocity": 0.7874015748031497
        },
        {
          "duration": 0.25,
          "durationTicks": 120,
          "midi": 53,
          "name": "F3",
          "ticks": 94080,
          "time": 263.2131165,
          "velocity": 0.7874015748031497
        },
        {
          "duration": 0.25,
          "durationTicks": 120,
          "midi": 52,
          "name": "E3",
          "ticks": 94200,
          "time": 263.4631165,
          "velocity": 0.7874015748031497
        },
        {
          "duration": 0.25,
          "durationTicks": 120,
          "midi": 50,
          "name": "D3",
          "ticks": 94320,
          "time": 263.7131165,
          "velocity": 0.7874015748031497
        },
        {
          "duration": 0.125,
          "durationTicks": 60,
          "midi": 64,
          "name": "E4",
          "ticks": 94440,
          "time": 263.9631165,
          "velocity": 0.7874015748031497
        },
        {
          "duration": 0.125,
          "durationTicks": 60,
          "midi": 60,
          "name": "C4",
          "ticks": 94500,
          "time": 264.0881165,
          "velocity": 0.7874015748031497
        },
        {
          "duration": 0.125,
          "durationTicks": 60,
          "midi": 59,
          "name": "B3",
          "ticks": 94560,
          "time": 264.2131165,
          "velocity": 0.7874015748031497
        },
        {
          "duration": 0.125,
          "durationTicks": 60,
          "midi": 60,
          "name": "C4",
          "ticks": 94620,
          "time": 264.3381165,
          "velocity": 0.7874015748031497
        },
        {
          "duration": 0.125,
          "durationTicks": 60,
          "midi": 62,
          "name": "D4",
          "ticks": 94680,
          "time": 264.4631165,
          "velocity": 0.7874015748031497
        },
        {
          "duration": 0.125,
          "durationTicks": 60,
          "midi": 60,
          "name": "C4",
          "ticks": 94740,
          "time": 264.5881165,
          "velocity": 0.7874015748031497
        },
        {
          "duration": 0.125,
          "durationTicks": 60,
          "midi": 64,
          "name": "E4",
          "ticks": 94800,
          "time": 264.7131165,
          "velocity": 0.7874015748031497
        },
        {
          "duration": 0.125,
          "durationTicks": 60,
          "midi": 60,
          "name": "C4",
          "ticks": 94860,
          "time": 264.8381165,
          "velocity": 0.7874015748031497
        },
        {
          "duration": 0.125,
          "durationTicks": 60,
          "midi": 66,
          "name": "F#4",
          "ticks": 94920,
          "time": 264.9631165,
          "velocity": 0.7874015748031497
        },
        {
          "duration": 0.125,
          "durationTicks": 60,
          "midi": 60,
          "name": "C4",
          "ticks": 94980,
          "time": 265.0881165,
          "velocity": 0.7874015748031497
        },
        {
          "duration": 0.125,
          "durationTicks": 60,
          "midi": 67,
          "name": "G4",
          "ticks": 95040,
          "time": 265.2131165,
          "velocity": 0.7874015748031497
        },
        {
          "duration": 0.125,
          "durationTicks": 60,
          "midi": 60,
          "name": "C4",
          "ticks": 95100,
          "time": 265.3381165,
          "velocity": 0.7874015748031497
        },
        {
          "duration": 0.125,
          "durationTicks": 60,
          "midi": 69,
          "name": "A4",
          "ticks": 95160,
          "time": 265.4631165,
          "velocity": 0.7874015748031497
        },
        {
          "duration": 0.125,
          "durationTicks": 60,
          "midi": 60,
          "name": "C4",
          "ticks": 95220,
          "time": 265.5881165,
          "velocity": 0.7874015748031497
        },
        {
          "duration": 0.125,
          "durationTicks": 60,
          "midi": 59,
          "name": "B3",
          "ticks": 95280,
          "time": 265.7131165,
          "velocity": 0.7874015748031497
        },
        {
          "duration": 0.125,
          "durationTicks": 60,
          "midi": 57,
          "name": "A3",
          "ticks": 95340,
          "time": 265.8381165,
          "velocity": 0.7874015748031497
        },
        {
          "duration": 0.25,
          "durationTicks": 120,
          "midi": 59,
          "name": "B3",
          "ticks": 95400,
          "time": 265.9631165,
          "velocity": 0.7874015748031497
        },
        {
          "duration": 0.25,
          "durationTicks": 120,
          "midi": 74,
          "name": "D5",
          "ticks": 95520,
          "time": 266.2131165,
          "velocity": 0.7874015748031497
        },
        {
          "duration": 0.25,
          "durationTicks": 120,
          "midi": 50,
          "name": "D3",
          "ticks": 95640,
          "time": 266.4631165,
          "velocity": 0.7874015748031497
        },
        {
          "duration": 0.25,
          "durationTicks": 120,
          "midi": 72,
          "name": "C5",
          "ticks": 95760,
          "time": 266.7131165,
          "velocity": 0.7874015748031497
        },
        {
          "duration": 0.125,
          "durationTicks": 60,
          "midi": 71,
          "name": "B4",
          "ticks": 95880,
          "time": 266.9631165,
          "velocity": 0.7874015748031497
        },
        {
          "duration": 0.125,
          "durationTicks": 60,
          "midi": 74,
          "name": "D5",
          "ticks": 95940,
          "time": 267.0881165,
          "velocity": 0.7874015748031497
        },
        {
          "duration": 0.125,
          "durationTicks": 60,
          "midi": 62,
          "name": "D4",
          "ticks": 96000,
          "time": 267.2131165,
          "velocity": 0.7874015748031497
        },
        {
          "duration": 0.125,
          "durationTicks": 60,
          "midi": 67,
          "name": "G4",
          "ticks": 96060,
          "time": 267.3381165,
          "velocity": 0.7874015748031497
        },
        {
          "duration": 0.125,
          "durationTicks": 60,
          "midi": 71,
          "name": "B4",
          "ticks": 96120,
          "time": 267.4631165,
          "velocity": 0.7874015748031497
        },
        {
          "duration": 0.125,
          "durationTicks": 60,
          "midi": 67,
          "name": "G4",
          "ticks": 96180,
          "time": 267.5881165,
          "velocity": 0.7874015748031497
        },
        {
          "duration": 0.125,
          "durationTicks": 60,
          "midi": 74,
          "name": "D5",
          "ticks": 96240,
          "time": 267.7131165,
          "velocity": 0.7874015748031497
        },
        {
          "duration": 0.125,
          "durationTicks": 60,
          "midi": 71,
          "name": "B4",
          "ticks": 96300,
          "time": 267.8381165,
          "velocity": 0.7874015748031497
        },
        {
          "duration": 0.5825239999999781,
          "durationTicks": 240,
          "midi": 67,
          "name": "G4",
          "ticks": 96360,
          "time": 267.9631165,
          "velocity": 0.7874015748031497
        },
        {
          "duration": 0.5825239999999781,
          "durationTicks": 240,
          "midi": 79,
          "name": "G5",
          "ticks": 96360,
          "time": 267.9631165,
          "velocity": 0.7874015748031497
        },
        {
          "duration": 1.1650479999999561,
          "durationTicks": 480,
          "midi": 79,
          "name": "G5",
          "ticks": 97320,
          "time": 270.29321250000004,
          "velocity": 0.7874015748031497
        },
        {
          "duration": 0.14563100000003715,
          "durationTicks": 60,
          "midi": 78,
          "name": "F#5",
          "ticks": 97800,
          "time": 271.4582605,
          "velocity": 0.7874015748031497
        },
        {
          "duration": 0.1456309999999803,
          "durationTicks": 60,
          "midi": 76,
          "name": "E5",
          "ticks": 97860,
          "time": 271.60389150000003,
          "velocity": 0.7874015748031497
        },
        {
          "duration": 0.1456309999999803,
          "durationTicks": 60,
          "midi": 74,
          "name": "D5",
          "ticks": 97920,
          "time": 271.7495225,
          "velocity": 0.7874015748031497
        },
        {
          "duration": 0.14563100000003715,
          "durationTicks": 60,
          "midi": 72,
          "name": "C5",
          "ticks": 97980,
          "time": 271.8951535,
          "velocity": 0.7874015748031497
        },
        {
          "duration": 1.1650479999999561,
          "durationTicks": 480,
          "midi": 71,
          "name": "B4",
          "ticks": 98040,
          "time": 272.04078450000003,
          "velocity": 0.7874015748031497
        },
        {
          "duration": 0.14563100000003715,
          "durationTicks": 60,
          "midi": 69,
          "name": "A4",
          "ticks": 98520,
          "time": 273.2058325,
          "velocity": 0.7874015748031497
        },
        {
          "duration": 0.1456309999999803,
          "durationTicks": 60,
          "midi": 67,
          "name": "G4",
          "ticks": 98580,
          "time": 273.3514635,
          "velocity": 0.7874015748031497
        },
        {
          "duration": 0.1456309999999803,
          "durationTicks": 60,
          "midi": 66,
          "name": "F#4",
          "ticks": 98640,
          "time": 273.4970945,
          "velocity": 0.7874015748031497
        },
        {
          "duration": 0.14563100000003715,
          "durationTicks": 60,
          "midi": 64,
          "name": "E4",
          "ticks": 98700,
          "time": 273.6427255,
          "velocity": 0.7874015748031497
        },
        {
          "duration": 1.165048000000013,
          "durationTicks": 480,
          "midi": 62,
          "name": "D4",
          "ticks": 98760,
          "time": 273.7883565,
          "velocity": 0.7874015748031497
        },
        {
          "duration": 0.1456309999999803,
          "durationTicks": 60,
          "midi": 60,
          "name": "C4",
          "ticks": 99240,
          "time": 274.95340450000003,
          "velocity": 0.7874015748031497
        },
        {
          "duration": 0.1456309999999803,
          "durationTicks": 60,
          "midi": 59,
          "name": "B3",
          "ticks": 99300,
          "time": 275.0990355,
          "velocity": 0.7874015748031497
        },
        {
          "duration": 0.14563100000003715,
          "durationTicks": 60,
          "midi": 57,
          "name": "A3",
          "ticks": 99360,
          "time": 275.2446665,
          "velocity": 0.7874015748031497
        },
        {
          "duration": 0.1456309999999803,
          "durationTicks": 60,
          "midi": 55,
          "name": "G3",
          "ticks": 99420,
          "time": 275.39029750000003,
          "velocity": 0.7874015748031497
        },
        {
          "duration": 1.0194169999999758,
          "durationTicks": 420,
          "midi": 57,
          "name": "A3",
          "ticks": 99480,
          "time": 275.5359285,
          "velocity": 0.7874015748031497
        },
        {
          "duration": 0.14563100000003715,
          "durationTicks": 60,
          "midi": 55,
          "name": "G3",
          "ticks": 99900,
          "time": 276.5553455,
          "velocity": 0.7874015748031497
        },
        {
          "duration": 0.1456309999999803,
          "durationTicks": 60,
          "midi": 59,
          "name": "B3",
          "ticks": 99960,
          "time": 276.7009765,
          "velocity": 0.7874015748031497
        },
        {
          "duration": 0.1456309999999803,
          "durationTicks": 60,
          "midi": 57,
          "name": "A3",
          "ticks": 100020,
          "time": 276.8466075,
          "velocity": 0.7874015748031497
        },
        {
          "duration": 0.14563100000003715,
          "durationTicks": 60,
          "midi": 55,
          "name": "G3",
          "ticks": 100080,
          "time": 276.9922385,
          "velocity": 0.7874015748031497
        },
        {
          "duration": 0.1456309999999803,
          "durationTicks": 60,
          "midi": 54,
          "name": "F#3",
          "ticks": 100140,
          "time": 277.1378695,
          "velocity": 0.7874015748031497
        },
        {
          "duration": 0.29126200000001745,
          "durationTicks": 120,
          "midi": 55,
          "name": "G3",
          "ticks": 100200,
          "time": 277.2835005,
          "velocity": 0.7874015748031497
        },
        {
          "duration": 0.8737859999999955,
          "durationTicks": 360,
          "midi": 67,
          "name": "G4",
          "ticks": 100320,
          "time": 277.5747625,
          "velocity": 0.7874015748031497
        },
        {
          "duration": 0.1456309999999803,
          "durationTicks": 60,
          "midi": 66,
          "name": "F#4",
          "ticks": 100680,
          "time": 278.4485485,
          "velocity": 0.7874015748031497
        },
        {
          "duration": 0.14563100000003715,
          "durationTicks": 60,
          "midi": 64,
          "name": "E4",
          "ticks": 100740,
          "time": 278.5941795,
          "velocity": 0.7874015748031497
        },
        {
          "duration": 0.1456309999999803,
          "durationTicks": 60,
          "midi": 62,
          "name": "D4",
          "ticks": 100800,
          "time": 278.73981050000003,
          "velocity": 0.7874015748031497
        },
        {
          "duration": 0.1456309999999803,
          "durationTicks": 60,
          "midi": 60,
          "name": "C4",
          "ticks": 100860,
          "time": 278.8854415,
          "velocity": 0.7874015748031497
        },
        {
          "duration": 0.14563100000003715,
          "durationTicks": 60,
          "midi": 59,
          "name": "B3",
          "ticks": 100920,
          "time": 279.0310725,
          "velocity": 0.7874015748031497
        },
        {
          "duration": 0.1456309999999803,
          "durationTicks": 60,
          "midi": 62,
          "name": "D4",
          "ticks": 100980,
          "time": 279.17670350000003,
          "velocity": 0.7874015748031497
        },
        {
          "duration": 0.1456309999999803,
          "durationTicks": 60,
          "midi": 67,
          "name": "G4",
          "ticks": 101040,
          "time": 279.3223345,
          "velocity": 0.7874015748031497
        },
        {
          "duration": 0.14563100000003715,
          "durationTicks": 60,
          "midi": 69,
          "name": "A4",
          "ticks": 101100,
          "time": 279.4679655,
          "velocity": 0.7874015748031497
        },
        {
          "duration": 0.5825239999999781,
          "durationTicks": 240,
          "midi": 70,
          "name": "A#4",
          "ticks": 101160,
          "time": 279.6135965,
          "velocity": 0.7874015748031497
        },
        {
          "duration": 0.1456309999999803,
          "durationTicks": 60,
          "midi": 69,
          "name": "A4",
          "ticks": 101400,
          "time": 280.1961205,
          "velocity": 0.7874015748031497
        },
        {
          "duration": 0.14563100000003715,
          "durationTicks": 60,
          "midi": 67,
          "name": "G4",
          "ticks": 101460,
          "time": 280.3417515,
          "velocity": 0.7874015748031497
        },
        {
          "duration": 0.1456309999999803,
          "durationTicks": 60,
          "midi": 66,
          "name": "F#4",
          "ticks": 101520,
          "time": 280.4873825,
          "velocity": 0.7874015748031497
        },
        {
          "duration": 0.1456309999999803,
          "durationTicks": 60,
          "midi": 64,
          "name": "E4",
          "ticks": 101580,
          "time": 280.6330135,
          "velocity": 0.7874015748031497
        },
        {
          "duration": 1.0194170000000327,
          "durationTicks": 420,
          "midi": 62,
          "name": "D4",
          "ticks": 101640,
          "time": 280.7786445,
          "velocity": 0.7874015748031497
        },
        {
          "duration": 0.1456309999999803,
          "durationTicks": 60,
          "midi": 61,
          "name": "C#4",
          "ticks": 102060,
          "time": 281.7980615,
          "velocity": 0.7874015748031497
        },
        {
          "duration": 0.14563100000003715,
          "durationTicks": 60,
          "midi": 59,
          "name": "B3",
          "ticks": 102120,
          "time": 281.9436925,
          "velocity": 0.7874015748031497
        },
        {
          "duration": 0.1456309999999803,
          "durationTicks": 60,
          "midi": 62,
          "name": "D4",
          "ticks": 102180,
          "time": 282.08932350000003,
          "velocity": 0.7874015748031497
        },
        {
          "duration": 0.1456309999999803,
          "durationTicks": 60,
          "midi": 61,
          "name": "C#4",
          "ticks": 102240,
          "time": 282.2349545,
          "velocity": 0.7874015748031497
        },
        {
          "duration": 0.14563100000003715,
          "durationTicks": 60,
          "midi": 59,
          "name": "B3",
          "ticks": 102300,
          "time": 282.3805855,
          "velocity": 0.7874015748031497
        },
        {
          "duration": 0.1456309999999803,
          "durationTicks": 60,
          "midi": 61,
          "name": "C#4",
          "ticks": 102360,
          "time": 282.52621650000003,
          "velocity": 0.7874015748031497
        },
        {
          "duration": 0.1456309999999803,
          "durationTicks": 60,
          "midi": 59,
          "name": "B3",
          "ticks": 102420,
          "time": 282.6718475,
          "velocity": 0.7874015748031497
        },
        {
          "duration": 0.14563100000003715,
          "durationTicks": 60,
          "midi": 57,
          "name": "A3",
          "ticks": 102480,
          "time": 282.8174785,
          "velocity": 0.7874015748031497
        },
        {
          "duration": 0.1456309999999803,
          "durationTicks": 60,
          "midi": 55,
          "name": "G3",
          "ticks": 102540,
          "time": 282.96310950000003,
          "velocity": 0.7874015748031497
        },
        {
          "duration": 0.1456309999999803,
          "durationTicks": 60,
          "midi": 54,
          "name": "F#3",
          "ticks": 102600,
          "time": 283.1087405,
          "velocity": 0.7874015748031497
        },
        {
          "duration": 0.14563100000003715,
          "durationTicks": 60,
          "midi": 52,
          "name": "E3",
          "ticks": 102660,
          "time": 283.2543715,
          "velocity": 0.7874015748031497
        },
        {
          "duration": 0.8737859999999955,
          "durationTicks": 360,
          "midi": 62,
          "name": "D4",
          "ticks": 102720,
          "time": 283.4000025,
          "velocity": 0.7874015748031497
        },
        {
          "duration": 1.165048000000013,
          "durationTicks": 480,
          "midi": 81,
          "name": "A5",
          "ticks": 103080,
          "time": 284.2737885,
          "velocity": 0.7874015748031497
        },
        {
          "duration": 0.1456309999999803,
          "durationTicks": 60,
          "midi": 79,
          "name": "G5",
          "ticks": 103560,
          "time": 285.43883650000004,
          "velocity": 0.7874015748031497
        },
        {
          "duration": 0.1456309999999803,
          "durationTicks": 60,
          "midi": 78,
          "name": "F#5",
          "ticks": 103620,
          "time": 285.5844675,
          "velocity": 0.7874015748031497
        },
        {
          "duration": 0.14563100000003715,
          "durationTicks": 60,
          "midi": 76,
          "name": "E5",
          "ticks": 103680,
          "time": 285.7300985,
          "velocity": 0.7874015748031497
        },
        {
          "duration": 0.1456309999999803,
          "durationTicks": 60,
          "midi": 74,
          "name": "D5",
          "ticks": 103740,
          "time": 285.87572950000003,
          "velocity": 0.7874015748031497
        },
        {
          "duration": 0.29126200000001745,
          "durationTicks": 120,
          "midi": 73,
          "name": "C#5",
          "ticks": 103800,
          "time": 286.0213605,
          "velocity": 0.7874015748031497
        },
        {
          "duration": 0.8737859999999955,
          "durationTicks": 360,
          "midi": 72,
          "name": "C5",
          "ticks": 103920,
          "time": 286.31262250000003,
          "velocity": 0.7874015748031497
        },
        {
          "duration": 0.1456309999999803,
          "durationTicks": 60,
          "midi": 71,
          "name": "B4",
          "ticks": 104280,
          "time": 287.1864085,
          "velocity": 0.7874015748031497
        },
        {
          "duration": 0.1456309999999803,
          "durationTicks": 60,
          "midi": 69,
          "name": "A4",
          "ticks": 104340,
          "time": 287.3320395,
          "velocity": 0.7874015748031497
        },
        {
          "duration": 0.14563100000003715,
          "durationTicks": 60,
          "midi": 68,
          "name": "G#4",
          "ticks": 104400,
          "time": 287.4776705,
          "velocity": 0.7874015748031497
        },
        {
          "duration": 0.1456309999999803,
          "durationTicks": 60,
          "midi": 66,
          "name": "F#4",
          "ticks": 104460,
          "time": 287.6233015,
          "velocity": 0.7874015748031497
        },
        {
          "duration": 1.0194169999999758,
          "durationTicks": 420,
          "midi": 64,
          "name": "E4",
          "ticks": 104520,
          "time": 287.7689325,
          "velocity": 0.7874015748031497
        },
        {
          "duration": 0.14563100000003715,
          "durationTicks": 60,
          "midi": 63,
          "name": "D#4",
          "ticks": 104940,
          "time": 288.7883495,
          "velocity": 0.7874015748031497
        },
        {
          "duration": 0.1456309999999803,
          "durationTicks": 60,
          "midi": 61,
          "name": "C#4",
          "ticks": 105000,
          "time": 288.9339805,
          "velocity": 0.7874015748031497
        },
        {
          "duration": 0.14563100000003715,
          "durationTicks": 60,
          "midi": 64,
          "name": "E4",
          "ticks": 105060,
          "time": 289.0796115,
          "velocity": 0.7874015748031497
        },
        {
          "duration": 0.1456309999999803,
          "durationTicks": 60,
          "midi": 63,
          "name": "D#4",
          "ticks": 105120,
          "time": 289.22524250000004,
          "velocity": 0.7874015748031497
        },
        {
          "duration": 0.1456309999999803,
          "durationTicks": 60,
          "midi": 61,
          "name": "C#4",
          "ticks": 105180,
          "time": 289.3708735,
          "velocity": 0.7874015748031497
        },
        {
          "duration": 0.14563100000003715,
          "durationTicks": 60,
          "midi": 63,
          "name": "D#4",
          "ticks": 105240,
          "time": 289.5165045,
          "velocity": 0.7874015748031497
        },
        {
          "duration": 0.1456309999999803,
          "durationTicks": 60,
          "midi": 61,
          "name": "C#4",
          "ticks": 105300,
          "time": 289.66213550000003,
          "velocity": 0.7874015748031497
        },
        {
          "duration": 0.1456309999999803,
          "durationTicks": 60,
          "midi": 59,
          "name": "B3",
          "ticks": 105360,
          "time": 289.8077665,
          "velocity": 0.7874015748031497
        },
        {
          "duration": 0.14563100000003715,
          "durationTicks": 60,
          "midi": 57,
          "name": "A3",
          "ticks": 105420,
          "time": 289.9533975,
          "velocity": 0.7874015748031497
        },
        {
          "duration": 0.1456309999999803,
          "durationTicks": 60,
          "midi": 55,
          "name": "G3",
          "ticks": 105480,
          "time": 290.09902850000003,
          "velocity": 0.7874015748031497
        },
        {
          "duration": 0.1456309999999803,
          "durationTicks": 60,
          "midi": 54,
          "name": "F#3",
          "ticks": 105540,
          "time": 290.2446595,
          "velocity": 0.7874015748031497
        },
        {
          "duration": 0.29126200000001745,
          "durationTicks": 120,
          "midi": 55,
          "name": "G3",
          "ticks": 105600,
          "time": 290.3902905,
          "velocity": 0.7874015748031497
        },
        {
          "duration": 1.0194170000000327,
          "durationTicks": 420,
          "midi": 60,
          "name": "C4",
          "ticks": 105960,
          "time": 291.2640765,
          "velocity": 0.7874015748031497
        },
        {
          "duration": 0.1456309999999803,
          "durationTicks": 60,
          "midi": 57,
          "name": "A3",
          "ticks": 106380,
          "time": 292.2834935,
          "velocity": 0.7874015748031497
        },
        {
          "duration": 0.14563100000003715,
          "durationTicks": 60,
          "midi": 59,
          "name": "B3",
          "ticks": 106440,
          "time": 292.4291245,
          "velocity": 0.7874015748031497
        },
        {
          "duration": 0.1456309999999803,
          "durationTicks": 60,
          "midi": 55,
          "name": "G3",
          "ticks": 106500,
          "time": 292.57475550000004,
          "velocity": 0.7874015748031497
        },
        {
          "duration": 0.1456309999999803,
          "durationTicks": 60,
          "midi": 59,
          "name": "B3",
          "ticks": 106560,
          "time": 292.7203865,
          "velocity": 0.7874015748031497
        },
        {
          "duration": 0.14563100000003715,
          "durationTicks": 60,
          "midi": 62,
          "name": "D4",
          "ticks": 106620,
          "time": 292.8660175,
          "velocity": 0.7874015748031497
        },
        {
          "duration": 1.0194169999999758,
          "durationTicks": 420,
          "midi": 64,
          "name": "E4",
          "ticks": 106680,
          "time": 293.01164850000004,
          "velocity": 0.7874015748031497
        },
        {
          "duration": 0.1456309999999803,
          "durationTicks": 60,
          "midi": 61,
          "name": "C#4",
          "ticks": 107100,
          "time": 294.0310655,
          "velocity": 0.7874015748031497
        },
        {
          "duration": 0.14563100000003715,
          "durationTicks": 60,
          "midi": 62,
          "name": "D4",
          "ticks": 107160,
          "time": 294.1766965,
          "velocity": 0.7874015748031497
        },
        {
          "duration": 0.1456309999999803,
          "durationTicks": 60,
          "midi": 59,
          "name": "B3",
          "ticks": 107220,
          "time": 294.32232750000003,
          "velocity": 0.7874015748031497
        },
        {
          "duration": 0.1456309999999803,
          "durationTicks": 60,
          "midi": 62,
          "name": "D4",
          "ticks": 107280,
          "time": 294.4679585,
          "velocity": 0.7874015748031497
        },
        {
          "duration": 0.14563100000003715,
          "durationTicks": 60,
          "midi": 66,
          "name": "F#4",
          "ticks": 107340,
          "time": 294.6135895,
          "velocity": 0.7874015748031497
        },
        {
          "duration": 1.0194169999999758,
          "durationTicks": 420,
          "midi": 67,
          "name": "G4",
          "ticks": 107400,
          "time": 294.7592205,
          "velocity": 0.7874015748031497
        },
        {
          "duration": 0.14563100000003715,
          "durationTicks": 60,
          "midi": 66,
          "name": "F#4",
          "ticks": 107820,
          "time": 295.7786375,
          "velocity": 0.7874015748031497
        },
        {
          "duration": 0.1456309999999803,
          "durationTicks": 60,
          "midi": 64,
          "name": "E4",
          "ticks": 107880,
          "time": 295.92426850000004,
          "velocity": 0.7874015748031497
        },
        {
          "duration": 0.1456309999999803,
          "durationTicks": 60,
          "midi": 67,
          "name": "G4",
          "ticks": 107940,
          "time": 296.0698995,
          "velocity": 0.7874015748031497
        },
        {
          "duration": 0.1456309999999803,
          "durationTicks": 60,
          "midi": 66,
          "name": "F#4",
          "ticks": 108000,
          "time": 296.2155305,
          "velocity": 0.7874015748031497
        },
        {
          "duration": 0.14563100000003715,
          "durationTicks": 60,
          "midi": 64,
          "name": "E4",
          "ticks": 108060,
          "time": 296.3611615,
          "velocity": 0.7874015748031497
        },
        {
          "duration": 0.1456309999999803,
          "durationTicks": 60,
          "midi": 66,
          "name": "F#4",
          "ticks": 108120,
          "time": 296.5067925,
          "velocity": 0.7874015748031497
        },
        {
          "duration": 0.14563100000003715,
          "durationTicks": 60,
          "midi": 64,
          "name": "E4",
          "ticks": 108180,
          "time": 296.6524235,
          "velocity": 0.7874015748031497
        },
        {
          "duration": 0.1456309999999803,
          "durationTicks": 60,
          "midi": 62,
          "name": "D4",
          "ticks": 108240,
          "time": 296.79805450000003,
          "velocity": 0.7874015748031497
        },
        {
          "duration": 0.1456309999999803,
          "durationTicks": 60,
          "midi": 60,
          "name": "C4",
          "ticks": 108300,
          "time": 296.9436855,
          "velocity": 0.7874015748031497
        },
        {
          "duration": 0.14563100000003715,
          "durationTicks": 60,
          "midi": 59,
          "name": "B3",
          "ticks": 108360,
          "time": 297.0893165,
          "velocity": 0.7874015748031497
        },
        {
          "duration": 0.1456309999999803,
          "durationTicks": 60,
          "midi": 57,
          "name": "A3",
          "ticks": 108420,
          "time": 297.23494750000003,
          "velocity": 0.7874015748031497
        },
        {
          "duration": 0.8737859999999955,
          "durationTicks": 360,
          "midi": 59,
          "name": "B3",
          "ticks": 108480,
          "time": 297.3805785,
          "velocity": 0.7874015748031497
        },
        {
          "duration": 0.10416649999996253,
          "durationTicks": 60,
          "midi": 69,
          "name": "A4",
          "ticks": 109020,
          "time": 298.64979300000005,
          "velocity": 0.7874015748031497
        },
        {
          "duration": 0.20833300000003874,
          "durationTicks": 120,
          "midi": 71,
          "name": "B4",
          "ticks": 109080,
          "time": 298.7539595,
          "velocity": 0.7874015748031497
        },
        {
          "duration": 0.31249950000000126,
          "durationTicks": 180,
          "midi": 62,
          "name": "D4",
          "ticks": 109200,
          "time": 298.96229250000005,
          "velocity": 0.7874015748031497
        },
        {
          "duration": 0.10416649999996253,
          "durationTicks": 60,
          "midi": 67,
          "name": "G4",
          "ticks": 109380,
          "time": 299.27479200000005,
          "velocity": 0.7874015748031497
        },
        {
          "duration": 0.20833300000003874,
          "durationTicks": 120,
          "midi": 71,
          "name": "B4",
          "ticks": 109440,
          "time": 299.3789585,
          "velocity": 0.7874015748031497
        },
        {
          "duration": 0.05208324999995284,
          "durationTicks": 30,
          "midi": 71,
          "name": "B4",
          "ticks": 109560,
          "time": 299.58729150000005,
          "velocity": 0.7874015748031497
        },
        {
          "duration": 0.052083250000009684,
          "durationTicks": 30,
          "midi": 69,
          "name": "A4",
          "ticks": 109590,
          "time": 299.63937475,
          "velocity": 0.7874015748031497
        },
        {
          "duration": 0.052083250000009684,
          "durationTicks": 30,
          "midi": 71,
          "name": "B4",
          "ticks": 109620,
          "time": 299.691458,
          "velocity": 0.7874015748031497
        },
        {
          "duration": 0.15624975000002905,
          "durationTicks": 90,
          "midi": 69,
          "name": "A4",
          "ticks": 109650,
          "time": 299.74354125,
          "velocity": 0.7874015748031497
        },
        {
          "duration": 0.10416649999996253,
          "durationTicks": 60,
          "midi": 67,
          "name": "G4",
          "ticks": 109740,
          "time": 299.89979100000005,
          "velocity": 0.7874015748031497
        },
        {
          "duration": 0.20833300000003874,
          "durationTicks": 120,
          "midi": 69,
          "name": "A4",
          "ticks": 109800,
          "time": 300.0039575,
          "velocity": 0.7874015748031497
        },
        {
          "duration": 0.6249989999999457,
          "durationTicks": 360,
          "midi": 74,
          "name": "D5",
          "ticks": 109920,
          "time": 300.21229050000005,
          "velocity": 0.7874015748031497
        },
        {
          "duration": 0.052083250000009684,
          "durationTicks": 30,
          "midi": 79,
          "name": "G5",
          "ticks": 110280,
          "time": 300.8372895,
          "velocity": 0.7874015748031497
        },
        {
          "duration": 0.052083250000009684,
          "durationTicks": 30,
          "midi": 78,
          "name": "F#5",
          "ticks": 110310,
          "time": 300.88937275,
          "velocity": 0.7874015748031497
        },
        {
          "duration": 0.2083329999999819,
          "durationTicks": 120,
          "midi": 79,
          "name": "G5",
          "ticks": 110340,
          "time": 300.941456,
          "velocity": 0.7874015748031497
        },
        {
          "duration": 0.10416650000001937,
          "durationTicks": 60,
          "midi": 78,
          "name": "F#5",
          "ticks": 110460,
          "time": 301.149789,
          "velocity": 0.7874015748031497
        },
        {
          "duration": 0.2083329999999819,
          "durationTicks": 120,
          "midi": 79,
          "name": "G5",
          "ticks": 110520,
          "time": 301.2539555,
          "velocity": 0.7874015748031497
        },
        {
          "duration": 0.31249950000000126,
          "durationTicks": 180,
          "midi": 69,
          "name": "A4",
          "ticks": 110640,
          "time": 301.4622885,
          "velocity": 0.7874015748031497
        },
        {
          "duration": 0.10416650000001937,
          "durationTicks": 60,
          "midi": 76,
          "name": "E5",
          "ticks": 110820,
          "time": 301.774788,
          "velocity": 0.7874015748031497
        },
        {
          "duration": 0.2083329999999819,
          "durationTicks": 120,
          "midi": 79,
          "name": "G5",
          "ticks": 110880,
          "time": 301.8789545,
          "velocity": 0.7874015748031497
        },
        {
          "duration": 0.052083250000009684,
          "durationTicks": 30,
          "midi": 79,
          "name": "G5",
          "ticks": 111000,
          "time": 302.0872875,
          "velocity": 0.7874015748031497
        },
        {
          "duration": 0.052083250000009684,
          "durationTicks": 30,
          "midi": 78,
          "name": "F#5",
          "ticks": 111030,
          "time": 302.13937075,
          "velocity": 0.7874015748031497
        },
        {
          "duration": 0.052083250000009684,
          "durationTicks": 30,
          "midi": 79,
          "name": "G5",
          "ticks": 111060,
          "time": 302.191454,
          "velocity": 0.7874015748031497
        },
        {
          "duration": 0.1562497499999722,
          "durationTicks": 90,
          "midi": 78,
          "name": "F#5",
          "ticks": 111090,
          "time": 302.24353725000003,
          "velocity": 0.7874015748031497
        },
        {
          "duration": 0.10416650000001937,
          "durationTicks": 60,
          "midi": 76,
          "name": "E5",
          "ticks": 111180,
          "time": 302.399787,
          "velocity": 0.7874015748031497
        },
        {
          "duration": 0.2083329999999819,
          "durationTicks": 120,
          "midi": 78,
          "name": "F#5",
          "ticks": 111240,
          "time": 302.5039535,
          "velocity": 0.7874015748031497
        },
        {
          "duration": 1.0416650000000232,
          "durationTicks": 600,
          "midi": 74,
          "name": "D5",
          "ticks": 111360,
          "time": 302.7122865,
          "velocity": 0.7874015748031497
        },
        {
          "duration": 0.052083250000009684,
          "durationTicks": 30,
          "midi": 76,
          "name": "E5",
          "ticks": 111960,
          "time": 303.7539515,
          "velocity": 0.7874015748031497
        },
        {
          "duration": 0.052083250000009684,
          "durationTicks": 30,
          "midi": 78,
          "name": "F#5",
          "ticks": 111990,
          "time": 303.80603475000004,
          "velocity": 0.7874015748031497
        },
        {
          "duration": 0.05208324999995284,
          "durationTicks": 30,
          "midi": 79,
          "name": "G5",
          "ticks": 112020,
          "time": 303.85811800000005,
          "velocity": 0.7874015748031497
        },
        {
          "duration": 0.052083250000009684,
          "durationTicks": 30,
          "midi": 81,
          "name": "A5",
          "ticks": 112050,
          "time": 303.91020125,
          "velocity": 0.7874015748031497
        },
        {
          "duration": 0.31249950000000126,
          "durationTicks": 180,
          "midi": 83,
          "name": "B5",
          "ticks": 112080,
          "time": 303.9622845,
          "velocity": 0.7874015748031497
        },
        {
          "duration": 0.10416650000001937,
          "durationTicks": 60,
          "midi": 79,
          "name": "G5",
          "ticks": 112260,
          "time": 304.274784,
          "velocity": 0.7874015748031497
        },
        {
          "duration": 0.2083329999999819,
          "durationTicks": 120,
          "midi": 74,
          "name": "D5",
          "ticks": 112320,
          "time": 304.37895050000003,
          "velocity": 0.7874015748031497
        },
        {
          "duration": 0.41666600000002063,
          "durationTicks": 240,
          "midi": 76,
          "name": "E5",
          "ticks": 112440,
          "time": 304.5872835,
          "velocity": 0.7874015748031497
        },
        {
          "duration": 0.052083250000009684,
          "durationTicks": 30,
          "midi": 78,
          "name": "F#5",
          "ticks": 112680,
          "time": 305.00394950000003,
          "velocity": 0.7874015748031497
        },
        {
          "duration": 0.052083250000009684,
          "durationTicks": 30,
          "midi": 79,
          "name": "G5",
          "ticks": 112710,
          "time": 305.05603275000004,
          "velocity": 0.7874015748031497
        },
        {
          "duration": 0.05208324999995284,
          "durationTicks": 30,
          "midi": 81,
          "name": "A5",
          "ticks": 112740,
          "time": 305.10811600000005,
          "velocity": 0.7874015748031497
        },
        {
          "duration": 0.052083250000009684,
          "durationTicks": 30,
          "midi": 83,
          "name": "B5",
          "ticks": 112770,
          "time": 305.16019925,
          "velocity": 0.7874015748031497
        },
        {
          "duration": 0.31249950000000126,
          "durationTicks": 180,
          "midi": 84,
          "name": "C6",
          "ticks": 112800,
          "time": 305.2122825,
          "velocity": 0.7874015748031497
        },
        {
          "duration": 0.10416650000001937,
          "durationTicks": 60,
          "midi": 81,
          "name": "A5",
          "ticks": 112980,
          "time": 305.524782,
          "velocity": 0.7874015748031497
        },
        {
          "duration": 0.2083329999999819,
          "durationTicks": 120,
          "midi": 76,
          "name": "E5",
          "ticks": 113040,
          "time": 305.62894850000004,
          "velocity": 0.7874015748031497
        },
        {
          "duration": 0.31249950000000126,
          "durationTicks": 180,
          "midi": 78,
          "name": "F#5",
          "ticks": 113160,
          "time": 305.8372815,
          "velocity": 0.7874015748031497
        },
        {
          "duration": 0.10416650000001937,
          "durationTicks": 60,
          "midi": 74,
          "name": "D5",
          "ticks": 113340,
          "time": 306.149781,
          "velocity": 0.7874015748031497
        },
        {
          "duration": 0.2083329999999819,
          "durationTicks": 120,
          "midi": 79,
          "name": "G5",
          "ticks": 113400,
          "time": 306.25394750000004,
          "velocity": 0.7874015748031497
        },
        {
          "duration": 0.31249950000000126,
          "durationTicks": 180,
          "midi": 69,
          "name": "A4",
          "ticks": 113520,
          "time": 306.4622805,
          "velocity": 0.7874015748031497
        },
        {
          "duration": 0.10416650000001937,
          "durationTicks": 60,
          "midi": 71,
          "name": "B4",
          "ticks": 113700,
          "time": 306.77478,
          "velocity": 0.7874015748031497
        },
        {
          "duration": 0.2083329999999819,
          "durationTicks": 120,
          "midi": 72,
          "name": "C5",
          "ticks": 113760,
          "time": 306.87894650000004,
          "velocity": 0.7874015748031497
        },
        {
          "duration": 0.2083329999999819,
          "durationTicks": 120,
          "midi": 72,
          "name": "C5",
          "ticks": 113880,
          "time": 307.0872795,
          "velocity": 0.7874015748031497
        },
        {
          "duration": 0.7291655000000219,
          "durationTicks": 420,
          "midi": 71,
          "name": "B4",
          "ticks": 114000,
          "time": 307.2956125,
          "velocity": 0.7874015748031497
        },
        {
          "duration": 0.10416650000001937,
          "durationTicks": 60,
          "midi": 69,
          "name": "A4",
          "ticks": 114420,
          "time": 308.024778,
          "velocity": 0.7874015748031497
        },
        {
          "duration": 0.10416649999996253,
          "durationTicks": 60,
          "midi": 67,
          "name": "G4",
          "ticks": 114480,
          "time": 308.12894450000005,
          "velocity": 0.7874015748031497
        },
        {
          "duration": 0.10416650000001937,
          "durationTicks": 60,
          "midi": 66,
          "name": "F#4",
          "ticks": 114540,
          "time": 308.233111,
          "velocity": 0.7874015748031497
        },
        {
          "duration": 0.41666600000002063,
          "durationTicks": 240,
          "midi": 67,
          "name": "G4",
          "ticks": 114600,
          "time": 308.3372775,
          "velocity": 0.7874015748031497
        },
        {
          "duration": 0.2083329999999819,
          "durationTicks": 120,
          "midi": 74,
          "name": "D5",
          "ticks": 114840,
          "time": 308.75394350000005,
          "velocity": 0.7874015748031497
        },
        {
          "duration": 0.052083250000009684,
          "durationTicks": 30,
          "midi": 79,
          "name": "G5",
          "ticks": 114960,
          "time": 308.96227650000003,
          "velocity": 0.7874015748031497
        },
        {
          "duration": 0.052083250000009684,
          "durationTicks": 30,
          "midi": 78,
          "name": "F#5",
          "ticks": 114990,
          "time": 309.01435975000004,
          "velocity": 0.7874015748031497
        },
        {
          "duration": 0.729165499999965,
          "durationTicks": 420,
          "midi": 79,
          "name": "G5",
          "ticks": 115020,
          "time": 309.06644300000005,
          "velocity": 0.7874015748031497
        },
        {
          "duration": 0.10416650000001937,
          "durationTicks": 60,
          "midi": 81,
          "name": "A5",
          "ticks": 115440,
          "time": 309.7956085,
          "velocity": 0.7874015748031497
        },
        {
          "duration": 0.10416649999996253,
          "durationTicks": 60,
          "midi": 79,
          "name": "G5",
          "ticks": 115500,
          "time": 309.89977500000003,
          "velocity": 0.7874015748031497
        },
        {
          "duration": 0.10416650000001937,
          "durationTicks": 60,
          "midi": 78,
          "name": "F#5",
          "ticks": 115560,
          "time": 310.0039415,
          "velocity": 0.7874015748031497
        },
        {
          "duration": 0.10416650000001937,
          "durationTicks": 60,
          "midi": 76,
          "name": "E5",
          "ticks": 115620,
          "time": 310.108108,
          "velocity": 0.7874015748031497
        },
        {
          "duration": 0.052083250000009684,
          "durationTicks": 30,
          "midi": 78,
          "name": "F#5",
          "ticks": 115680,
          "time": 310.21227450000004,
          "velocity": 0.7874015748031497
        },
        {
          "duration": 0.052083250000009684,
          "durationTicks": 30,
          "midi": 76,
          "name": "E5",
          "ticks": 115710,
          "time": 310.26435775000004,
          "velocity": 0.7874015748031497
        },
        {
          "duration": 0.8333319999999844,
          "durationTicks": 480,
          "midi": 78,
          "name": "F#5",
          "ticks": 115740,
          "time": 310.31644100000005,
          "velocity": 0.7874015748031497
        },
        {
          "duration": 0.10416649999996253,
          "durationTicks": 60,
          "midi": 79,
          "name": "G5",
          "ticks": 116220,
          "time": 311.14977300000004,
          "velocity": 0.7874015748031497
        },
        {
          "duration": 0.20833300000003874,
          "durationTicks": 120,
          "midi": 78,
          "name": "F#5",
          "ticks": 116280,
          "time": 311.2539395,
          "velocity": 0.7874015748031497
        },
        {
          "duration": 0.31249950000000126,
          "durationTicks": 180,
          "midi": 76,
          "name": "E5",
          "ticks": 116400,
          "time": 311.46227250000004,
          "velocity": 0.7874015748031497
        },
        {
          "duration": 0.10416649999996253,
          "durationTicks": 60,
          "midi": 73,
          "name": "C#5",
          "ticks": 116580,
          "time": 311.77477200000004,
          "velocity": 0.7874015748031497
        },
        {
          "duration": 0.20833300000003874,
          "durationTicks": 120,
          "midi": 74,
          "name": "D5",
          "ticks": 116640,
          "time": 311.8789385,
          "velocity": 0.7874015748031497
        },
        {
          "duration": 0.052083250000009684,
          "durationTicks": 30,
          "midi": 74,
          "name": "D5",
          "ticks": 116760,
          "time": 312.08727150000004,
          "velocity": 0.7874015748031497
        },
        {
          "duration": 0.05208324999995284,
          "durationTicks": 30,
          "midi": 73,
          "name": "C#5",
          "ticks": 116790,
          "time": 312.13935475000005,
          "velocity": 0.7874015748031497
        },
        {
          "duration": 0.052083250000009684,
          "durationTicks": 30,
          "midi": 74,
          "name": "D5",
          "ticks": 116820,
          "time": 312.191438,
          "velocity": 0.7874015748031497
        },
        {
          "duration": 0.15624975000002905,
          "durationTicks": 90,
          "midi": 73,
          "name": "C#5",
          "ticks": 116850,
          "time": 312.24352125,
          "velocity": 0.7874015748031497
        },
        {
          "duration": 0.10416649999996253,
          "durationTicks": 60,
          "midi": 74,
          "name": "D5",
          "ticks": 116940,
          "time": 312.39977100000004,
          "velocity": 0.7874015748031497
        },
        {
          "duration": 0.20833300000003874,
          "durationTicks": 120,
          "midi": 76,
          "name": "E5",
          "ticks": 117000,
          "time": 312.5039375,
          "velocity": 0.7874015748031497
        },
        {
          "duration": 1.0416649999999663,
          "durationTicks": 600,
          "midi": 69,
          "name": "A4",
          "ticks": 117120,
          "time": 312.71227050000005,
          "velocity": 0.7874015748031497
        },
        {
          "duration": 0.052083250000009684,
          "durationTicks": 30,
          "midi": 71,
          "name": "B4",
          "ticks": 117720,
          "time": 313.7539355,
          "velocity": 0.7874015748031497
        },
        {
          "duration": 0.052083250000009684,
          "durationTicks": 30,
          "midi": 73,
          "name": "C#5",
          "ticks": 117750,
          "time": 313.80601875,
          "velocity": 0.7874015748031497
        },
        {
          "duration": 0.052083250000009684,
          "durationTicks": 30,
          "midi": 74,
          "name": "D5",
          "ticks": 117780,
          "time": 313.85810200000003,
          "velocity": 0.7874015748031497
        },
        {
          "duration": 0.052083250000009684,
          "durationTicks": 30,
          "midi": 76,
          "name": "E5",
          "ticks": 117810,
          "time": 313.91018525000004,
          "velocity": 0.7874015748031497
        },
        {
          "duration": 0.31249950000000126,
          "durationTicks": 180,
          "midi": 78,
          "name": "F#5",
          "ticks": 117840,
          "time": 313.96226850000005,
          "velocity": 0.7874015748031497
        },
        {
          "duration": 0.10416649999996253,
          "durationTicks": 60,
          "midi": 74,
          "name": "D5",
          "ticks": 118020,
          "time": 314.27476800000005,
          "velocity": 0.7874015748031497
        },
        {
          "duration": 0.20833300000003874,
          "durationTicks": 120,
          "midi": 69,
          "name": "A4",
          "ticks": 118080,
          "time": 314.3789345,
          "velocity": 0.7874015748031497
        },
        {
          "duration": 0.4166659999999638,
          "durationTicks": 240,
          "midi": 71,
          "name": "B4",
          "ticks": 118200,
          "time": 314.58726750000005,
          "velocity": 0.7874015748031497
        },
        {
          "duration": 0.052083250000009684,
          "durationTicks": 30,
          "midi": 73,
          "name": "C#5",
          "ticks": 118440,
          "time": 315.0039335,
          "velocity": 0.7874015748031497
        },
        {
          "duration": 0.052083250000009684,
          "durationTicks": 30,
          "midi": 74,
          "name": "D5",
          "ticks": 118470,
          "time": 315.05601675,
          "velocity": 0.7874015748031497
        },
        {
          "duration": 0.052083250000009684,
          "durationTicks": 30,
          "midi": 76,
          "name": "E5",
          "ticks": 118500,
          "time": 315.10810000000004,
          "velocity": 0.7874015748031497
        },
        {
          "duration": 0.052083250000009684,
          "durationTicks": 30,
          "midi": 78,
          "name": "F#5",
          "ticks": 118530,
          "time": 315.16018325000005,
          "velocity": 0.7874015748031497
        },
        {
          "duration": 0.3124994999999444,
          "durationTicks": 180,
          "midi": 79,
          "name": "G5",
          "ticks": 118560,
          "time": 315.21226650000006,
          "velocity": 0.7874015748031497
        },
        {
          "duration": 0.10416650000001937,
          "durationTicks": 60,
          "midi": 76,
          "name": "E5",
          "ticks": 118740,
          "time": 315.524766,
          "velocity": 0.7874015748031497
        },
        {
          "duration": 0.2083329999999819,
          "durationTicks": 120,
          "midi": 71,
          "name": "B4",
          "ticks": 118800,
          "time": 315.6289325,
          "velocity": 0.7874015748031497
        },
        {
          "duration": 0.10416650000001937,
          "durationTicks": 60,
          "midi": 71,
          "name": "B4",
          "ticks": 118920,
          "time": 315.8372655,
          "velocity": 0.7874015748031497
        },
        {
          "duration": 0.2083329999999819,
          "durationTicks": 120,
          "midi": 73,
          "name": "C#5",
          "ticks": 118980,
          "time": 315.941432,
          "velocity": 0.7874015748031497
        },
        {
          "duration": 0.10416650000001937,
          "durationTicks": 60,
          "midi": 69,
          "name": "A4",
          "ticks": 119100,
          "time": 316.149765,
          "velocity": 0.7874015748031497
        },
        {
          "duration": 0.2083329999999819,
          "durationTicks": 120,
          "midi": 81,
          "name": "A5",
          "ticks": 119160,
          "time": 316.2539315,
          "velocity": 0.7874015748031497
        },
        {
          "duration": 0.31249950000000126,
          "durationTicks": 180,
          "midi": 74,
          "name": "D5",
          "ticks": 119280,
          "time": 316.4622645,
          "velocity": 0.7874015748031497
        },
        {
          "duration": 0.10416650000001937,
          "durationTicks": 60,
          "midi": 76,
          "name": "E5",
          "ticks": 119460,
          "time": 316.774764,
          "velocity": 0.7874015748031497
        },
        {
          "duration": 0.2083329999999819,
          "durationTicks": 120,
          "midi": 73,
          "name": "C#5",
          "ticks": 119520,
          "time": 316.8789305,
          "velocity": 0.7874015748031497
        },
        {
          "duration": 0.20833300000003874,
          "durationTicks": 120,
          "midi": 73,
          "name": "C#5",
          "ticks": 119640,
          "time": 317.0872635,
          "velocity": 0.7874015748031497
        },
        {
          "duration": 1.0416649999999663,
          "durationTicks": 600,
          "midi": 74,
          "name": "D5",
          "ticks": 119760,
          "time": 317.29559650000004,
          "velocity": 0.7874015748031497
        },
        {
          "duration": 0.31249950000000126,
          "durationTicks": 180,
          "midi": 78,
          "name": "F#5",
          "ticks": 120360,
          "time": 318.3372615,
          "velocity": 0.7874015748031497
        },
        {
          "duration": 0.10416650000001937,
          "durationTicks": 60,
          "midi": 76,
          "name": "E5",
          "ticks": 120540,
          "time": 318.649761,
          "velocity": 0.7874015748031497
        },
        {
          "duration": 0.2083329999999819,
          "durationTicks": 120,
          "midi": 78,
          "name": "F#5",
          "ticks": 120600,
          "time": 318.75392750000003,
          "velocity": 0.7874015748031497
        },
        {
          "duration": 0.31249950000000126,
          "durationTicks": 180,
          "midi": 69,
          "name": "A4",
          "ticks": 120720,
          "time": 318.9622605,
          "velocity": 0.7874015748031497
        },
        {
          "duration": 0.10416650000001937,
          "durationTicks": 60,
          "midi": 74,
          "name": "D5",
          "ticks": 120900,
          "time": 319.27476,
          "velocity": 0.7874015748031497
        },
        {
          "duration": 0.2083329999999819,
          "durationTicks": 120,
          "midi": 78,
          "name": "F#5",
          "ticks": 120960,
          "time": 319.37892650000003,
          "velocity": 0.7874015748031497
        },
        {
          "duration": 0.31249950000000126,
          "durationTicks": 180,
          "midi": 79,
          "name": "G5",
          "ticks": 121080,
          "time": 319.5872595,
          "velocity": 0.7874015748031497
        },
        {
          "duration": 0.10416650000001937,
          "durationTicks": 60,
          "midi": 78,
          "name": "F#5",
          "ticks": 121260,
          "time": 319.899759,
          "velocity": 0.7874015748031497
        },
        {
          "duration": 0.2083329999999819,
          "durationTicks": 120,
          "midi": 79,
          "name": "G5",
          "ticks": 121320,
          "time": 320.00392550000004,
          "velocity": 0.7874015748031497
        },
        {
          "duration": 0.6249990000000025,
          "durationTicks": 360,
          "midi": 83,
          "name": "B5",
          "ticks": 121440,
          "time": 320.2122585,
          "velocity": 0.7874015748031497
        },
        {
          "duration": 0.41666600000002063,
          "durationTicks": 240,
          "midi": 76,
          "name": "E5",
          "ticks": 121800,
          "time": 320.8372575,
          "velocity": 0.7874015748031497
        },
        {
          "duration": 0.052083250000009684,
          "durationTicks": 30,
          "midi": 78,
          "name": "F#5",
          "ticks": 122040,
          "time": 321.25392350000004,
          "velocity": 0.7874015748031497
        },
        {
          "duration": 0.05208324999995284,
          "durationTicks": 30,
          "midi": 79,
          "name": "G5",
          "ticks": 122070,
          "time": 321.30600675000005,
          "velocity": 0.7874015748031497
        },
        {
          "duration": 0.052083250000009684,
          "durationTicks": 30,
          "midi": 81,
          "name": "A5",
          "ticks": 122100,
          "time": 321.35809,
          "velocity": 0.7874015748031497
        },
        {
          "duration": 0.052083250000009684,
          "durationTicks": 30,
          "midi": 83,
          "name": "B5",
          "ticks": 122130,
          "time": 321.41017325,
          "velocity": 0.7874015748031497
        },
        {
          "duration": 0.10416650000001937,
          "durationTicks": 60,
          "midi": 84,
          "name": "C6",
          "ticks": 122160,
          "time": 321.4622565,
          "velocity": 0.7874015748031497
        },
        {
          "duration": 0.10416649999996253,
          "durationTicks": 60,
          "midi": 83,
          "name": "B5",
          "ticks": 122220,
          "time": 321.56642300000004,
          "velocity": 0.7874015748031497
        },
        {
          "duration": 0.10416650000001937,
          "durationTicks": 60,
          "midi": 81,
          "name": "A5",
          "ticks": 122280,
          "time": 321.6705895,
          "velocity": 0.7874015748031497
        },
        {
          "duration": 0.10416650000001937,
          "durationTicks": 60,
          "midi": 79,
          "name": "G5",
          "ticks": 122340,
          "time": 321.774756,
          "velocity": 0.7874015748031497
        },
        {
          "duration": 0.10416649999996253,
          "durationTicks": 60,
          "midi": 78,
          "name": "F#5",
          "ticks": 122400,
          "time": 321.87892250000004,
          "velocity": 0.7874015748031497
        },
        {
          "duration": 0.10416650000001937,
          "durationTicks": 60,
          "midi": 76,
          "name": "E5",
          "ticks": 122460,
          "time": 321.983089,
          "velocity": 0.7874015748031497
        },
        {
          "duration": 0.052083250000009684,
          "durationTicks": 30,
          "midi": 76,
          "name": "E5",
          "ticks": 122520,
          "time": 322.0872555,
          "velocity": 0.7874015748031497
        },
        {
          "duration": 0.052083250000009684,
          "durationTicks": 30,
          "midi": 75,
          "name": "D#5",
          "ticks": 122550,
          "time": 322.13933875000004,
          "velocity": 0.7874015748031497
        },
        {
          "duration": 0.05208324999995284,
          "durationTicks": 30,
          "midi": 76,
          "name": "E5",
          "ticks": 122580,
          "time": 322.19142200000005,
          "velocity": 0.7874015748031497
        },
        {
          "duration": 0.15624975000002905,
          "durationTicks": 90,
          "midi": 75,
          "name": "D#5",
          "ticks": 122610,
          "time": 322.24350525,
          "velocity": 0.7874015748031497
        },
        {
          "duration": 0.10416650000001937,
          "durationTicks": 60,
          "midi": 73,
          "name": "C#5",
          "ticks": 122700,
          "time": 322.399755,
          "velocity": 0.7874015748031497
        },
        {
          "duration": 0.2083329999999819,
          "durationTicks": 120,
          "midi": 75,
          "name": "D#5",
          "ticks": 122760,
          "time": 322.50392150000005,
          "velocity": 0.7874015748031497
        },
        {
          "duration": 0.9374985000000038,
          "durationTicks": 540,
          "midi": 71,
          "name": "B4",
          "ticks": 122880,
          "time": 322.71225450000003,
          "velocity": 0.7874015748031497
        },
        {
          "duration": 0.10416650000001937,
          "durationTicks": 60,
          "midi": 83,
          "name": "B5",
          "ticks": 123420,
          "time": 323.64975300000003,
          "velocity": 0.7874015748031497
        },
        {
          "duration": 0.2083329999999819,
          "durationTicks": 120,
          "midi": 78,
          "name": "F#5",
          "ticks": 123480,
          "time": 323.75391950000005,
          "velocity": 0.7874015748031497
        },
        {
          "duration": 0.31249950000000126,
          "durationTicks": 180,
          "midi": 79,
          "name": "G5",
          "ticks": 123600,
          "time": 323.96225250000003,
          "velocity": 0.7874015748031497
        },
        {
          "duration": 0.10416650000001937,
          "durationTicks": 60,
          "midi": 75,
          "name": "D#5",
          "ticks": 123780,
          "time": 324.27475200000003,
          "velocity": 0.7874015748031497
        },
        {
          "duration": 0.2083329999999819,
          "durationTicks": 120,
          "midi": 76,
          "name": "E5",
          "ticks": 123840,
          "time": 324.37891850000005,
          "velocity": 0.7874015748031497
        },
        {
          "duration": 0.31249950000000126,
          "durationTicks": 180,
          "midi": 72,
          "name": "C5",
          "ticks": 123960,
          "time": 324.58725150000004,
          "velocity": 0.7874015748031497
        },
        {
          "duration": 0.10416649999996253,
          "durationTicks": 60,
          "midi": 76,
          "name": "E5",
          "ticks": 124140,
          "time": 324.89975100000004,
          "velocity": 0.7874015748031497
        },
        {
          "duration": 0.20833300000003874,
          "durationTicks": 120,
          "midi": 80,
          "name": "G#5",
          "ticks": 124200,
          "time": 325.0039175,
          "velocity": 0.7874015748031497
        },
        {
          "duration": 0.4166659999999638,
          "durationTicks": 240,
          "midi": 81,
          "name": "A5",
          "ticks": 124320,
          "time": 325.21225050000004,
          "velocity": 0.7874015748031497
        },
        {
          "duration": 0.052083250000009684,
          "durationTicks": 30,
          "midi": 83,
          "name": "B5",
          "ticks": 124560,
          "time": 325.6289165,
          "velocity": 0.7874015748031497
        },
        {
          "duration": 0.052083250000009684,
          "durationTicks": 30,
          "midi": 81,
          "name": "A5",
          "ticks": 124590,
          "time": 325.68099975,
          "velocity": 0.7874015748031497
        },
        {
          "duration": 0.052083250000009684,
          "durationTicks": 30,
          "midi": 79,
          "name": "G5",
          "ticks": 124620,
          "time": 325.733083,
          "velocity": 0.7874015748031497
        },
        {
          "duration": 0.052083250000009684,
          "durationTicks": 30,
          "midi": 78,
          "name": "F#5",
          "ticks": 124650,
          "time": 325.78516625000003,
          "velocity": 0.7874015748031497
        },
        {
          "duration": 0.31249950000000126,
          "durationTicks": 180,
          "midi": 79,
          "name": "G5",
          "ticks": 124680,
          "time": 325.83724950000004,
          "velocity": 0.7874015748031497
        },
        {
          "duration": 0.10416649999996253,
          "durationTicks": 60,
          "midi": 81,
          "name": "A5",
          "ticks": 124860,
          "time": 326.14974900000004,
          "velocity": 0.7874015748031497
        },
        {
          "duration": 0.20833300000003874,
          "durationTicks": 120,
          "midi": 83,
          "name": "B5",
          "ticks": 124920,
          "time": 326.2539155,
          "velocity": 0.7874015748031497
        },
        {
          "duration": 0.31249950000000126,
          "durationTicks": 180,
          "midi": 76,
          "name": "E5",
          "ticks": 125040,
          "time": 326.46224850000004,
          "velocity": 0.7874015748031497
        },
        {
          "duration": 0.10416649999996253,
          "durationTicks": 60,
          "midi": 78,
          "name": "F#5",
          "ticks": 125220,
          "time": 326.77474800000005,
          "velocity": 0.7874015748031497
        },
        {
          "duration": 0.20833300000003874,
          "durationTicks": 120,
          "midi": 75,
          "name": "D#5",
          "ticks": 125280,
          "time": 326.8789145,
          "velocity": 0.7874015748031497
        },
        {
          "duration": 0.31249950000000126,
          "durationTicks": 180,
          "midi": 76,
          "name": "E5",
          "ticks": 125400,
          "time": 327.08724750000005,
          "velocity": 0.7874015748031497
        },
        {
          "duration": 0.10416649999996253,
          "durationTicks": 60,
          "midi": 71,
          "name": "B4",
          "ticks": 125580,
          "time": 327.39974700000005,
          "velocity": 0.7874015748031497
        },
        {
          "duration": 0.20833300000003874,
          "durationTicks": 120,
          "midi": 67,
          "name": "G4",
          "ticks": 125640,
          "time": 327.5039135,
          "velocity": 0.7874015748031497
        },
        {
          "duration": 0.4166659999999638,
          "durationTicks": 240,
          "midi": 64,
          "name": "E4",
          "ticks": 125760,
          "time": 327.71224650000005,
          "velocity": 0.7874015748031497
        },
        {
          "duration": 0.2083329999999819,
          "durationTicks": 120,
          "midi": 71,
          "name": "B4",
          "ticks": 126000,
          "time": 328.1289125,
          "velocity": 0.7874015748031497
        },
        {
          "duration": 0.3124995000000581,
          "durationTicks": 180,
          "midi": 71,
          "name": "B4",
          "ticks": 126120,
          "time": 328.3372455,
          "velocity": 0.7874015748031497
        },
        {
          "duration": 0.10416649999996253,
          "durationTicks": 60,
          "midi": 68,
          "name": "G#4",
          "ticks": 126300,
          "time": 328.64974500000005,
          "velocity": 0.7874015748031497
        },
        {
          "duration": 0.2083329999999819,
          "durationTicks": 120,
          "midi": 69,
          "name": "A4",
          "ticks": 126360,
          "time": 328.7539115,
          "velocity": 0.7874015748031497
        },
        {
          "duration": 0.20833300000003874,
          "durationTicks": 120,
          "midi": 74,
          "name": "D5",
          "ticks": 126480,
          "time": 328.9622445,
          "velocity": 0.7874015748031497
        },
        {
          "duration": 0.10416649999996253,
          "durationTicks": 60,
          "midi": 76,
          "name": "E5",
          "ticks": 126600,
          "time": 329.17057750000004,
          "velocity": 0.7874015748031497
        },
        {
          "duration": 0.10416650000001937,
          "durationTicks": 60,
          "midi": 74,
          "name": "D5",
          "ticks": 126660,
          "time": 329.274744,
          "velocity": 0.7874015748031497
        },
        {
          "duration": 0.10416650000001937,
          "durationTicks": 60,
          "midi": 72,
          "name": "C5",
          "ticks": 126720,
          "time": 329.3789105,
          "velocity": 0.7874015748031497
        },
        {
          "duration": 0.10416649999996253,
          "durationTicks": 60,
          "midi": 71,
          "name": "B4",
          "ticks": 126780,
          "time": 329.48307700000004,
          "velocity": 0.7874015748031497
        },
        {
          "duration": 0.31249950000000126,
          "durationTicks": 180,
          "midi": 72,
          "name": "C5",
          "ticks": 126840,
          "time": 329.5872435,
          "velocity": 0.7874015748031497
        },
        {
          "duration": 0.10416650000001937,
          "durationTicks": 60,
          "midi": 76,
          "name": "E5",
          "ticks": 127020,
          "time": 329.899743,
          "velocity": 0.7874015748031497
        },
        {
          "duration": 0.2083329999999819,
          "durationTicks": 120,
          "midi": 74,
          "name": "D5",
          "ticks": 127080,
          "time": 330.0039095,
          "velocity": 0.7874015748031497
        },
        {
          "duration": 0.31249950000000126,
          "durationTicks": 180,
          "midi": 76,
          "name": "E5",
          "ticks": 127200,
          "time": 330.2122425,
          "velocity": 0.7874015748031497
        },
        {
          "duration": 0.10416650000001937,
          "durationTicks": 60,
          "midi": 79,
          "name": "G5",
          "ticks": 127380,
          "time": 330.524742,
          "velocity": 0.7874015748031497
        },
        {
          "duration": 0.2083329999999819,
          "durationTicks": 120,
          "midi": 78,
          "name": "F#5",
          "ticks": 127440,
          "time": 330.6289085,
          "velocity": 0.7874015748031497
        },
        {
          "duration": 0.20833300000003874,
          "durationTicks": 120,
          "midi": 79,
          "name": "G5",
          "ticks": 127560,
          "time": 330.8372415,
          "velocity": 0.7874015748031497
        },
        {
          "duration": 0.10416649999996253,
          "durationTicks": 60,
          "midi": 81,
          "name": "A5",
          "ticks": 127680,
          "time": 331.04557450000004,
          "velocity": 0.7874015748031497
        },
        {
          "duration": 0.10416650000001937,
          "durationTicks": 60,
          "midi": 79,
          "name": "G5",
          "ticks": 127740,
          "time": 331.149741,
          "velocity": 0.7874015748031497
        },
        {
          "duration": 0.10416650000001937,
          "durationTicks": 60,
          "midi": 78,
          "name": "F#5",
          "ticks": 127800,
          "time": 331.2539075,
          "velocity": 0.7874015748031497
        },
        {
          "duration": 0.10416649999996253,
          "durationTicks": 60,
          "midi": 76,
          "name": "E5",
          "ticks": 127860,
          "time": 331.35807400000004,
          "velocity": 0.7874015748031497
        },
        {
          "duration": 0.31249950000000126,
          "durationTicks": 180,
          "midi": 81,
          "name": "A5",
          "ticks": 127920,
          "time": 331.4622405,
          "velocity": 0.7874015748031497
        },
        {
          "duration": 0.10416650000001937,
          "durationTicks": 60,
          "midi": 83,
          "name": "B5",
          "ticks": 128100,
          "time": 331.77474,
          "velocity": 0.7874015748031497
        },
        {
          "duration": 0.2083329999999819,
          "durationTicks": 120,
          "midi": 79,
          "name": "G5",
          "ticks": 128160,
          "time": 331.8789065,
          "velocity": 0.7874015748031497
        },
        {
          "duration": 0.052083250000009684,
          "durationTicks": 30,
          "midi": 79,
          "name": "G5",
          "ticks": 128280,
          "time": 332.0872395,
          "velocity": 0.7874015748031497
        },
        {
          "duration": 0.052083250000009684,
          "durationTicks": 30,
          "midi": 78,
          "name": "F#5",
          "ticks": 128310,
          "time": 332.13932275,
          "velocity": 0.7874015748031497
        },
        {
          "duration": 0.052083250000009684,
          "durationTicks": 30,
          "midi": 79,
          "name": "G5",
          "ticks": 128340,
          "time": 332.19140600000003,
          "velocity": 0.7874015748031497
        },
        {
          "duration": 0.1562497499999722,
          "durationTicks": 90,
          "midi": 78,
          "name": "F#5",
          "ticks": 128370,
          "time": 332.24348925000004,
          "velocity": 0.7874015748031497
        },
        {
          "duration": 0.10416650000001937,
          "durationTicks": 60,
          "midi": 76,
          "name": "E5",
          "ticks": 128460,
          "time": 332.399739,
          "velocity": 0.7874015748031497
        },
        {
          "duration": 0.2083329999999819,
          "durationTicks": 120,
          "midi": 78,
          "name": "F#5",
          "ticks": 128520,
          "time": 332.50390550000003,
          "velocity": 0.7874015748031497
        },
        {
          "duration": 1.0416650000000232,
          "durationTicks": 600,
          "midi": 74,
          "name": "D5",
          "ticks": 128640,
          "time": 332.7122385,
          "velocity": 0.7874015748031497
        },
        {
          "duration": 0.052083250000009684,
          "durationTicks": 30,
          "midi": 76,
          "name": "E5",
          "ticks": 129240,
          "time": 333.75390350000004,
          "velocity": 0.7874015748031497
        },
        {
          "duration": 0.05208324999995284,
          "durationTicks": 30,
          "midi": 78,
          "name": "F#5",
          "ticks": 129270,
          "time": 333.80598675000005,
          "velocity": 0.7874015748031497
        },
        {
          "duration": 0.052083250000009684,
          "durationTicks": 30,
          "midi": 79,
          "name": "G5",
          "ticks": 129300,
          "time": 333.85807,
          "velocity": 0.7874015748031497
        },
        {
          "duration": 0.052083250000009684,
          "durationTicks": 30,
          "midi": 81,
          "name": "A5",
          "ticks": 129330,
          "time": 333.91015325,
          "velocity": 0.7874015748031497
        },
        {
          "duration": 0.31249950000000126,
          "durationTicks": 180,
          "midi": 83,
          "name": "B5",
          "ticks": 129360,
          "time": 333.9622365,
          "velocity": 0.7874015748031497
        },
        {
          "duration": 0.10416650000001937,
          "durationTicks": 60,
          "midi": 79,
          "name": "G5",
          "ticks": 129540,
          "time": 334.274736,
          "velocity": 0.7874015748031497
        },
        {
          "duration": 0.2083329999999819,
          "durationTicks": 120,
          "midi": 74,
          "name": "D5",
          "ticks": 129600,
          "time": 334.37890250000004,
          "velocity": 0.7874015748031497
        },
        {
          "duration": 0.41666600000002063,
          "durationTicks": 240,
          "midi": 76,
          "name": "E5",
          "ticks": 129720,
          "time": 334.5872355,
          "velocity": 0.7874015748031497
        },
        {
          "duration": 0.05208324999995284,
          "durationTicks": 30,
          "midi": 78,
          "name": "F#5",
          "ticks": 129960,
          "time": 335.00390150000004,
          "velocity": 0.7874015748031497
        },
        {
          "duration": 0.052083250000009684,
          "durationTicks": 30,
          "midi": 79,
          "name": "G5",
          "ticks": 129990,
          "time": 335.05598475,
          "velocity": 0.7874015748031497
        },
        {
          "duration": 0.052083250000009684,
          "durationTicks": 30,
          "midi": 81,
          "name": "A5",
          "ticks": 130020,
          "time": 335.108068,
          "velocity": 0.7874015748031497
        },
        {
          "duration": 0.052083250000009684,
          "durationTicks": 30,
          "midi": 83,
          "name": "B5",
          "ticks": 130050,
          "time": 335.16015125,
          "velocity": 0.7874015748031497
        },
        {
          "duration": 0.31249950000000126,
          "durationTicks": 180,
          "midi": 84,
          "name": "C6",
          "ticks": 130080,
          "time": 335.2122345,
          "velocity": 0.7874015748031497
        },
        {
          "duration": 0.10416650000001937,
          "durationTicks": 60,
          "midi": 81,
          "name": "A5",
          "ticks": 130260,
          "time": 335.524734,
          "velocity": 0.7874015748031497
        },
        {
          "duration": 0.2083329999999819,
          "durationTicks": 120,
          "midi": 76,
          "name": "E5",
          "ticks": 130320,
          "time": 335.62890050000004,
          "velocity": 0.7874015748031497
        },
        {
          "duration": 0.31249950000000126,
          "durationTicks": 180,
          "midi": 78,
          "name": "F#5",
          "ticks": 130440,
          "time": 335.8372335,
          "velocity": 0.7874015748031497
        },
        {
          "duration": 0.10416650000001937,
          "durationTicks": 60,
          "midi": 74,
          "name": "D5",
          "ticks": 130620,
          "time": 336.149733,
          "velocity": 0.7874015748031497
        },
        {
          "duration": 0.2083329999999819,
          "durationTicks": 120,
          "midi": 86,
          "name": "D6",
          "ticks": 130680,
          "time": 336.25389950000005,
          "velocity": 0.7874015748031497
        },
        {
          "duration": 0.31249950000000126,
          "durationTicks": 180,
          "midi": 79,
          "name": "G5",
          "ticks": 130800,
          "time": 336.4622325,
          "velocity": 0.7874015748031497
        },
        {
          "duration": 0.10416650000001937,
          "durationTicks": 60,
          "midi": 81,
          "name": "A5",
          "ticks": 130980,
          "time": 336.77473200000003,
          "velocity": 0.7874015748031497
        },
        {
          "duration": 0.2083329999999819,
          "durationTicks": 120,
          "midi": 78,
          "name": "F#5",
          "ticks": 131040,
          "time": 336.87889850000005,
          "velocity": 0.7874015748031497
        },
        {
          "duration": 1.249998000000005,
          "durationTicks": 720,
          "midi": 79,
          "name": "G5",
          "ticks": 131160,
          "time": 337.08723150000003,
          "velocity": 0.7874015748031497
        },
        {
          "duration": 0.1171875,
          "durationTicks": 60,
          "midi": 62,
          "name": "D4",
          "ticks": 132600,
          "time": 339.7174375,
          "velocity": 0.7874015748031497
        },
        {
          "duration": 0.1171875,
          "durationTicks": 60,
          "midi": 67,
          "name": "G4",
          "ticks": 132660,
          "time": 339.834625,
          "velocity": 0.7874015748031497
        },
        {
          "duration": 0.1171875,
          "durationTicks": 60,
          "midi": 71,
          "name": "B4",
          "ticks": 132720,
          "time": 339.9518125,
          "velocity": 0.7874015748031497
        },
        {
          "duration": 0.1171875,
          "durationTicks": 60,
          "midi": 69,
          "name": "A4",
          "ticks": 132780,
          "time": 340.069,
          "velocity": 0.7874015748031497
        },
        {
          "duration": 0.1171875,
          "durationTicks": 60,
          "midi": 67,
          "name": "G4",
          "ticks": 132840,
          "time": 340.1861875,
          "velocity": 0.7874015748031497
        },
        {
          "duration": 0.1171875,
          "durationTicks": 60,
          "midi": 71,
          "name": "B4",
          "ticks": 132900,
          "time": 340.303375,
          "velocity": 0.7874015748031497
        },
        {
          "duration": 0.1171875,
          "durationTicks": 60,
          "midi": 74,
          "name": "D5",
          "ticks": 132960,
          "time": 340.4205625,
          "velocity": 0.7874015748031497
        },
        {
          "duration": 0.1171875,
          "durationTicks": 60,
          "midi": 72,
          "name": "C5",
          "ticks": 133020,
          "time": 340.53775,
          "velocity": 0.7874015748031497
        },
        {
          "duration": 0.1171875,
          "durationTicks": 60,
          "midi": 71,
          "name": "B4",
          "ticks": 133080,
          "time": 340.6549375,
          "velocity": 0.7874015748031497
        },
        {
          "duration": 0.1171875,
          "durationTicks": 60,
          "midi": 74,
          "name": "D5",
          "ticks": 133140,
          "time": 340.772125,
          "velocity": 0.7874015748031497
        },
        {
          "duration": 0.234375,
          "durationTicks": 120,
          "midi": 79,
          "name": "G5",
          "ticks": 133200,
          "time": 340.8893125,
          "velocity": 0.7874015748031497
        },
        {
          "duration": 0.1171875,
          "durationTicks": 60,
          "midi": 62,
          "name": "D4",
          "ticks": 133320,
          "time": 341.1236875,
          "velocity": 0.7874015748031497
        },
        {
          "duration": 0.1171875,
          "durationTicks": 60,
          "midi": 66,
          "name": "F#4",
          "ticks": 133380,
          "time": 341.240875,
          "velocity": 0.7874015748031497
        },
        {
          "duration": 0.1171875,
          "durationTicks": 60,
          "midi": 69,
          "name": "A4",
          "ticks": 133440,
          "time": 341.3580625,
          "velocity": 0.7874015748031497
        },
        {
          "duration": 0.1171875,
          "durationTicks": 60,
          "midi": 67,
          "name": "G4",
          "ticks": 133500,
          "time": 341.47525,
          "velocity": 0.7874015748031497
        },
        {
          "duration": 0.1171875,
          "durationTicks": 60,
          "midi": 66,
          "name": "F#4",
          "ticks": 133560,
          "time": 341.5924375,
          "velocity": 0.7874015748031497
        },
        {
          "duration": 0.1171875,
          "durationTicks": 60,
          "midi": 69,
          "name": "A4",
          "ticks": 133620,
          "time": 341.709625,
          "velocity": 0.7874015748031497
        },
        {
          "duration": 0.1171875,
          "durationTicks": 60,
          "midi": 72,
          "name": "C5",
          "ticks": 133680,
          "time": 341.8268125,
          "velocity": 0.7874015748031497
        },
        {
          "duration": 0.1171875,
          "durationTicks": 60,
          "midi": 71,
          "name": "B4",
          "ticks": 133740,
          "time": 341.944,
          "velocity": 0.7874015748031497
        },
        {
          "duration": 0.1171875,
          "durationTicks": 60,
          "midi": 69,
          "name": "A4",
          "ticks": 133800,
          "time": 342.0611875,
          "velocity": 0.7874015748031497
        },
        {
          "duration": 0.1171875,
          "durationTicks": 60,
          "midi": 74,
          "name": "D5",
          "ticks": 133860,
          "time": 342.178375,
          "velocity": 0.7874015748031497
        },
        {
          "duration": 0.234375,
          "durationTicks": 120,
          "midi": 78,
          "name": "F#5",
          "ticks": 133920,
          "time": 342.2955625,
          "velocity": 0.7874015748031497
        },
        {
          "duration": 0.1171875,
          "durationTicks": 60,
          "midi": 59,
          "name": "B3",
          "ticks": 134040,
          "time": 342.5299375,
          "velocity": 0.7874015748031497
        },
        {
          "duration": 0.1171875,
          "durationTicks": 60,
          "midi": 64,
          "name": "E4",
          "ticks": 134100,
          "time": 342.647125,
          "velocity": 0.7874015748031497
        },
        {
          "duration": 0.1171875,
          "durationTicks": 60,
          "midi": 67,
          "name": "G4",
          "ticks": 134160,
          "time": 342.7643125,
          "velocity": 0.7874015748031497
        },
        {
          "duration": 0.1171875,
          "durationTicks": 60,
          "midi": 66,
          "name": "F#4",
          "ticks": 134220,
          "time": 342.8815,
          "velocity": 0.7874015748031497
        },
        {
          "duration": 0.1171875,
          "durationTicks": 60,
          "midi": 64,
          "name": "E4",
          "ticks": 134280,
          "time": 342.9986875,
          "velocity": 0.7874015748031497
        },
        {
          "duration": 0.1171875,
          "durationTicks": 60,
          "midi": 67,
          "name": "G4",
          "ticks": 134340,
          "time": 343.115875,
          "velocity": 0.7874015748031497
        },
        {
          "duration": 0.1171875,
          "durationTicks": 60,
          "midi": 71,
          "name": "B4",
          "ticks": 134400,
          "time": 343.2330625,
          "velocity": 0.7874015748031497
        },
        {
          "duration": 0.1171875,
          "durationTicks": 60,
          "midi": 69,
          "name": "A4",
          "ticks": 134460,
          "time": 343.35025,
          "velocity": 0.7874015748031497
        },
        {
          "duration": 0.1171875,
          "durationTicks": 60,
          "midi": 67,
          "name": "G4",
          "ticks": 134520,
          "time": 343.4674375,
          "velocity": 0.7874015748031497
        },
        {
          "duration": 0.1171875,
          "durationTicks": 60,
          "midi": 73,
          "name": "C#5",
          "ticks": 134580,
          "time": 343.584625,
          "velocity": 0.7874015748031497
        },
        {
          "duration": 0.234375,
          "durationTicks": 120,
          "midi": 76,
          "name": "E5",
          "ticks": 134640,
          "time": 343.7018125,
          "velocity": 0.7874015748031497
        },
        {
          "duration": 0.1171875,
          "durationTicks": 60,
          "midi": 57,
          "name": "A3",
          "ticks": 134760,
          "time": 343.9361875,
          "velocity": 0.7874015748031497
        },
        {
          "duration": 0.1171875,
          "durationTicks": 60,
          "midi": 62,
          "name": "D4",
          "ticks": 134820,
          "time": 344.053375,
          "velocity": 0.7874015748031497
        },
        {
          "duration": 0.1171875,
          "durationTicks": 60,
          "midi": 66,
          "name": "F#4",
          "ticks": 134880,
          "time": 344.1705625,
          "velocity": 0.7874015748031497
        },
        {
          "duration": 0.1171875,
          "durationTicks": 60,
          "midi": 64,
          "name": "E4",
          "ticks": 134940,
          "time": 344.28775,
          "velocity": 0.7874015748031497
        },
        {
          "duration": 0.1171875,
          "durationTicks": 60,
          "midi": 62,
          "name": "D4",
          "ticks": 135000,
          "time": 344.4049375,
          "velocity": 0.7874015748031497
        },
        {
          "duration": 0.1171875,
          "durationTicks": 60,
          "midi": 66,
          "name": "F#4",
          "ticks": 135060,
          "time": 344.522125,
          "velocity": 0.7874015748031497
        },
        {
          "duration": 0.1171875,
          "durationTicks": 60,
          "midi": 69,
          "name": "A4",
          "ticks": 135120,
          "time": 344.6393125,
          "velocity": 0.7874015748031497
        },
        {
          "duration": 0.1171875,
          "durationTicks": 60,
          "midi": 67,
          "name": "G4",
          "ticks": 135180,
          "time": 344.7565,
          "velocity": 0.7874015748031497
        },
        {
          "duration": 0.1171875,
          "durationTicks": 60,
          "midi": 66,
          "name": "F#4",
          "ticks": 135240,
          "time": 344.8736875,
          "velocity": 0.7874015748031497
        },
        {
          "duration": 0.1171875,
          "durationTicks": 60,
          "midi": 69,
          "name": "A4",
          "ticks": 135300,
          "time": 344.990875,
          "velocity": 0.7874015748031497
        },
        {
          "duration": 0.3515625,
          "durationTicks": 180,
          "midi": 74,
          "name": "D5",
          "ticks": 135360,
          "time": 345.1080625,
          "velocity": 0.7874015748031497
        },
        {
          "duration": 0.1171875,
          "durationTicks": 60,
          "midi": 71,
          "name": "B4",
          "ticks": 135540,
          "time": 345.459625,
          "velocity": 0.7874015748031497
        },
        {
          "duration": 0.1171875,
          "durationTicks": 60,
          "midi": 67,
          "name": "G4",
          "ticks": 135600,
          "time": 345.5768125,
          "velocity": 0.7874015748031497
        },
        {
          "duration": 0.1171875,
          "durationTicks": 60,
          "midi": 69,
          "name": "A4",
          "ticks": 135660,
          "time": 345.694,
          "velocity": 0.7874015748031497
        },
        {
          "duration": 0.1171875,
          "durationTicks": 60,
          "midi": 71,
          "name": "B4",
          "ticks": 135720,
          "time": 345.8111875,
          "velocity": 0.7874015748031497
        },
        {
          "duration": 0.1171875,
          "durationTicks": 60,
          "midi": 67,
          "name": "G4",
          "ticks": 135780,
          "time": 345.928375,
          "velocity": 0.7874015748031497
        },
        {
          "duration": 0.1171875,
          "durationTicks": 60,
          "midi": 62,
          "name": "D4",
          "ticks": 135840,
          "time": 346.0455625,
          "velocity": 0.7874015748031497
        },
        {
          "duration": 0.1171875,
          "durationTicks": 60,
          "midi": 64,
          "name": "E4",
          "ticks": 135900,
          "time": 346.16275,
          "velocity": 0.7874015748031497
        },
        {
          "duration": 0.1171875,
          "durationTicks": 60,
          "midi": 65,
          "name": "F4",
          "ticks": 135960,
          "time": 346.2799375,
          "velocity": 0.7874015748031497
        },
        {
          "duration": 0.1171875,
          "durationTicks": 60,
          "midi": 62,
          "name": "D4",
          "ticks": 136020,
          "time": 346.397125,
          "velocity": 0.7874015748031497
        },
        {
          "duration": 0.234375,
          "durationTicks": 120,
          "midi": 59,
          "name": "B3",
          "ticks": 136080,
          "time": 346.5143125,
          "velocity": 0.7874015748031497
        },
        {
          "duration": 0.1171875,
          "durationTicks": 60,
          "midi": 76,
          "name": "E5",
          "ticks": 136200,
          "time": 346.7486875,
          "velocity": 0.7874015748031497
        },
        {
          "duration": 0.1171875,
          "durationTicks": 60,
          "midi": 72,
          "name": "C5",
          "ticks": 136260,
          "time": 346.865875,
          "velocity": 0.7874015748031497
        },
        {
          "duration": 0.1171875,
          "durationTicks": 60,
          "midi": 69,
          "name": "A4",
          "ticks": 136320,
          "time": 346.9830625,
          "velocity": 0.7874015748031497
        },
        {
          "duration": 0.1171875,
          "durationTicks": 60,
          "midi": 71,
          "name": "B4",
          "ticks": 136380,
          "time": 347.10025,
          "velocity": 0.7874015748031497
        },
        {
          "duration": 0.1171875,
          "durationTicks": 60,
          "midi": 72,
          "name": "C5",
          "ticks": 136440,
          "time": 347.2174375,
          "velocity": 0.7874015748031497
        },
        {
          "duration": 0.1171875,
          "durationTicks": 60,
          "midi": 69,
          "name": "A4",
          "ticks": 136500,
          "time": 347.334625,
          "velocity": 0.7874015748031497
        },
        {
          "duration": 0.1171875,
          "durationTicks": 60,
          "midi": 64,
          "name": "E4",
          "ticks": 136560,
          "time": 347.4518125,
          "velocity": 0.7874015748031497
        },
        {
          "duration": 0.1171875,
          "durationTicks": 60,
          "midi": 66,
          "name": "F#4",
          "ticks": 136620,
          "time": 347.569,
          "velocity": 0.7874015748031497
        },
        {
          "duration": 0.1171875,
          "durationTicks": 60,
          "midi": 67,
          "name": "G4",
          "ticks": 136680,
          "time": 347.6861875,
          "velocity": 0.7874015748031497
        },
        {
          "duration": 0.1171875,
          "durationTicks": 60,
          "midi": 64,
          "name": "E4",
          "ticks": 136740,
          "time": 347.803375,
          "velocity": 0.7874015748031497
        },
        {
          "duration": 0.234375,
          "durationTicks": 120,
          "midi": 60,
          "name": "C4",
          "ticks": 136800,
          "time": 347.9205625,
          "velocity": 0.7874015748031497
        },
        {
          "duration": 0.1171875,
          "durationTicks": 60,
          "midi": 81,
          "name": "A5",
          "ticks": 136920,
          "time": 348.1549375,
          "velocity": 0.7874015748031497
        },
        {
          "duration": 0.1171875,
          "durationTicks": 60,
          "midi": 78,
          "name": "F#5",
          "ticks": 136980,
          "time": 348.272125,
          "velocity": 0.7874015748031497
        },
        {
          "duration": 0.1171875,
          "durationTicks": 60,
          "midi": 74,
          "name": "D5",
          "ticks": 137040,
          "time": 348.3893125,
          "velocity": 0.7874015748031497
        },
        {
          "duration": 0.1171875,
          "durationTicks": 60,
          "midi": 76,
          "name": "E5",
          "ticks": 137100,
          "time": 348.5065,
          "velocity": 0.7874015748031497
        },
        {
          "duration": 0.1171875,
          "durationTicks": 60,
          "midi": 78,
          "name": "F#5",
          "ticks": 137160,
          "time": 348.6236875,
          "velocity": 0.7874015748031497
        },
        {
          "duration": 0.1171875,
          "durationTicks": 60,
          "midi": 74,
          "name": "D5",
          "ticks": 137220,
          "time": 348.740875,
          "velocity": 0.7874015748031497
        },
        {
          "duration": 0.1171875,
          "durationTicks": 60,
          "midi": 69,
          "name": "A4",
          "ticks": 137280,
          "time": 348.8580625,
          "velocity": 0.7874015748031497
        },
        {
          "duration": 0.1171875,
          "durationTicks": 60,
          "midi": 71,
          "name": "B4",
          "ticks": 137340,
          "time": 348.97525,
          "velocity": 0.7874015748031497
        },
        {
          "duration": 0.1171875,
          "durationTicks": 60,
          "midi": 72,
          "name": "C5",
          "ticks": 137400,
          "time": 349.0924375,
          "velocity": 0.7874015748031497
        },
        {
          "duration": 0.1171875,
          "durationTicks": 60,
          "midi": 69,
          "name": "A4",
          "ticks": 137460,
          "time": 349.209625,
          "velocity": 0.7874015748031497
        },
        {
          "duration": 0.1171875,
          "durationTicks": 60,
          "midi": 66,
          "name": "F#4",
          "ticks": 137520,
          "time": 349.3268125,
          "velocity": 0.7874015748031497
        },
        {
          "duration": 0.1171875,
          "durationTicks": 60,
          "midi": 72,
          "name": "C5",
          "ticks": 137580,
          "time": 349.444,
          "velocity": 0.7874015748031497
        },
        {
          "duration": 0.1171875,
          "durationTicks": 60,
          "midi": 71,
          "name": "B4",
          "ticks": 137640,
          "time": 349.5611875,
          "velocity": 0.7874015748031497
        },
        {
          "duration": 0.1171875,
          "durationTicks": 60,
          "midi": 67,
          "name": "G4",
          "ticks": 137700,
          "time": 349.678375,
          "velocity": 0.7874015748031497
        },
        {
          "duration": 0.1171875,
          "durationTicks": 60,
          "midi": 62,
          "name": "D4",
          "ticks": 137760,
          "time": 349.7955625,
          "velocity": 0.7874015748031497
        },
        {
          "duration": 0.1171875,
          "durationTicks": 60,
          "midi": 66,
          "name": "F#4",
          "ticks": 137820,
          "time": 349.91275,
          "velocity": 0.7874015748031497
        },
        {
          "duration": 0.1171875,
          "durationTicks": 60,
          "midi": 67,
          "name": "G4",
          "ticks": 137880,
          "time": 350.0299375,
          "velocity": 0.7874015748031497
        },
        {
          "duration": 0.1171875,
          "durationTicks": 60,
          "midi": 62,
          "name": "D4",
          "ticks": 137940,
          "time": 350.147125,
          "velocity": 0.7874015748031497
        },
        {
          "duration": 0.1171875,
          "durationTicks": 60,
          "midi": 59,
          "name": "B3",
          "ticks": 138000,
          "time": 350.2643125,
          "velocity": 0.7874015748031497
        },
        {
          "duration": 0.1171875,
          "durationTicks": 60,
          "midi": 60,
          "name": "C4",
          "ticks": 138060,
          "time": 350.3815,
          "velocity": 0.7874015748031497
        },
        {
          "duration": 0.1171875,
          "durationTicks": 60,
          "midi": 62,
          "name": "D4",
          "ticks": 138120,
          "time": 350.4986875,
          "velocity": 0.7874015748031497
        },
        {
          "duration": 0.1171875,
          "durationTicks": 60,
          "midi": 59,
          "name": "B3",
          "ticks": 138180,
          "time": 350.615875,
          "velocity": 0.7874015748031497
        },
        {
          "duration": 0.1171875,
          "durationTicks": 60,
          "midi": 55,
          "name": "G3",
          "ticks": 138240,
          "time": 350.7330625,
          "velocity": 0.7874015748031497
        },
        {
          "duration": 0.1171875,
          "durationTicks": 60,
          "midi": 57,
          "name": "A3",
          "ticks": 138300,
          "time": 350.85025,
          "velocity": 0.7874015748031497
        },
        {
          "duration": 0.234375,
          "durationTicks": 120,
          "midi": 59,
          "name": "B3",
          "ticks": 138360,
          "time": 350.9674375,
          "velocity": 0.7874015748031497
        },
        {
          "duration": 0.1171875,
          "durationTicks": 60,
          "midi": 83,
          "name": "B5",
          "ticks": 138480,
          "time": 351.2018125,
          "velocity": 0.7874015748031497
        },
        {
          "duration": 0.1171875,
          "durationTicks": 60,
          "midi": 81,
          "name": "A5",
          "ticks": 138540,
          "time": 351.319,
          "velocity": 0.7874015748031497
        },
        {
          "duration": 0.1171875,
          "durationTicks": 60,
          "midi": 79,
          "name": "G5",
          "ticks": 138600,
          "time": 351.4361875,
          "velocity": 0.7874015748031497
        },
        {
          "duration": 0.1171875,
          "durationTicks": 60,
          "midi": 78,
          "name": "F#5",
          "ticks": 138660,
          "time": 351.553375,
          "velocity": 0.7874015748031497
        },
        {
          "duration": 0.1171875,
          "durationTicks": 60,
          "midi": 76,
          "name": "E5",
          "ticks": 138720,
          "time": 351.6705625,
          "velocity": 0.7874015748031497
        },
        {
          "duration": 0.1171875,
          "durationTicks": 60,
          "midi": 74,
          "name": "D5",
          "ticks": 138780,
          "time": 351.78775,
          "velocity": 0.7874015748031497
        },
        {
          "duration": 0.1171875,
          "durationTicks": 60,
          "midi": 73,
          "name": "C#5",
          "ticks": 138840,
          "time": 351.9049375,
          "velocity": 0.7874015748031497
        },
        {
          "duration": 0.1171875,
          "durationTicks": 60,
          "midi": 76,
          "name": "E5",
          "ticks": 138900,
          "time": 352.022125,
          "velocity": 0.7874015748031497
        },
        {
          "duration": 0.1171875,
          "durationTicks": 60,
          "midi": 74,
          "name": "D5",
          "ticks": 138960,
          "time": 352.1393125,
          "velocity": 0.7874015748031497
        },
        {
          "duration": 0.1171875,
          "durationTicks": 60,
          "midi": 76,
          "name": "E5",
          "ticks": 139020,
          "time": 352.2565,
          "velocity": 0.7874015748031497
        },
        {
          "duration": 0.234375,
          "durationTicks": 120,
          "midi": 69,
          "name": "A4",
          "ticks": 139080,
          "time": 352.3736875,
          "velocity": 0.7874015748031497
        },
        {
          "duration": 0.1171875,
          "durationTicks": 60,
          "midi": 81,
          "name": "A5",
          "ticks": 139200,
          "time": 352.6080625,
          "velocity": 0.7874015748031497
        },
        {
          "duration": 0.1171875,
          "durationTicks": 60,
          "midi": 79,
          "name": "G5",
          "ticks": 139260,
          "time": 352.72525,
          "velocity": 0.7874015748031497
        },
        {
          "duration": 0.1171875,
          "durationTicks": 60,
          "midi": 78,
          "name": "F#5",
          "ticks": 139320,
          "time": 352.8424375,
          "velocity": 0.7874015748031497
        },
        {
          "duration": 0.1171875,
          "durationTicks": 60,
          "midi": 76,
          "name": "E5",
          "ticks": 139380,
          "time": 352.959625,
          "velocity": 0.7874015748031497
        },
        {
          "duration": 0.1171875,
          "durationTicks": 60,
          "midi": 74,
          "name": "D5",
          "ticks": 139440,
          "time": 353.0768125,
          "velocity": 0.7874015748031497
        },
        {
          "duration": 0.1171875,
          "durationTicks": 60,
          "midi": 73,
          "name": "C#5",
          "ticks": 139500,
          "time": 353.194,
          "velocity": 0.7874015748031497
        },
        {
          "duration": 0.1171875,
          "durationTicks": 60,
          "midi": 71,
          "name": "B4",
          "ticks": 139560,
          "time": 353.3111875,
          "velocity": 0.7874015748031497
        },
        {
          "duration": 0.1171875,
          "durationTicks": 60,
          "midi": 74,
          "name": "D5",
          "ticks": 139620,
          "time": 353.428375,
          "velocity": 0.7874015748031497
        },
        {
          "duration": 0.1171875,
          "durationTicks": 60,
          "midi": 73,
          "name": "C#5",
          "ticks": 139680,
          "time": 353.5455625,
          "velocity": 0.7874015748031497
        },
        {
          "duration": 0.1171875,
          "durationTicks": 60,
          "midi": 74,
          "name": "D5",
          "ticks": 139740,
          "time": 353.66275,
          "velocity": 0.7874015748031497
        },
        {
          "duration": 0.234375,
          "durationTicks": 120,
          "midi": 67,
          "name": "G4",
          "ticks": 139800,
          "time": 353.7799375,
          "velocity": 0.7874015748031497
        },
        {
          "duration": 0.1171875,
          "durationTicks": 60,
          "midi": 79,
          "name": "G5",
          "ticks": 139920,
          "time": 354.0143125,
          "velocity": 0.7874015748031497
        },
        {
          "duration": 0.1171875,
          "durationTicks": 60,
          "midi": 78,
          "name": "F#5",
          "ticks": 139980,
          "time": 354.1315,
          "velocity": 0.7874015748031497
        },
        {
          "duration": 0.1171875,
          "durationTicks": 60,
          "midi": 76,
          "name": "E5",
          "ticks": 140040,
          "time": 354.2486875,
          "velocity": 0.7874015748031497
        },
        {
          "duration": 0.1171875,
          "durationTicks": 60,
          "midi": 74,
          "name": "D5",
          "ticks": 140100,
          "time": 354.365875,
          "velocity": 0.7874015748031497
        },
        {
          "duration": 0.1171875,
          "durationTicks": 60,
          "midi": 73,
          "name": "C#5",
          "ticks": 140160,
          "time": 354.4830625,
          "velocity": 0.7874015748031497
        },
        {
          "duration": 0.1171875,
          "durationTicks": 60,
          "midi": 71,
          "name": "B4",
          "ticks": 140220,
          "time": 354.60025,
          "velocity": 0.7874015748031497
        },
        {
          "duration": 0.1171875,
          "durationTicks": 60,
          "midi": 69,
          "name": "A4",
          "ticks": 140280,
          "time": 354.7174375,
          "velocity": 0.7874015748031497
        },
        {
          "duration": 0.1171875,
          "durationTicks": 60,
          "midi": 73,
          "name": "C#5",
          "ticks": 140340,
          "time": 354.834625,
          "velocity": 0.7874015748031497
        },
        {
          "duration": 0.1171875,
          "durationTicks": 60,
          "midi": 71,
          "name": "B4",
          "ticks": 140400,
          "time": 354.9518125,
          "velocity": 0.7874015748031497
        },
        {
          "duration": 0.1171875,
          "durationTicks": 60,
          "midi": 74,
          "name": "D5",
          "ticks": 140460,
          "time": 355.069,
          "velocity": 0.7874015748031497
        },
        {
          "duration": 0.1171875,
          "durationTicks": 60,
          "midi": 73,
          "name": "C#5",
          "ticks": 140520,
          "time": 355.1861875,
          "velocity": 0.7874015748031497
        },
        {
          "duration": 0.1171875,
          "durationTicks": 60,
          "midi": 76,
          "name": "E5",
          "ticks": 140580,
          "time": 355.303375,
          "velocity": 0.7874015748031497
        },
        {
          "duration": 0.1171875,
          "durationTicks": 60,
          "midi": 69,
          "name": "A4",
          "ticks": 140640,
          "time": 355.4205625,
          "velocity": 0.7874015748031497
        },
        {
          "duration": 0.1171875,
          "durationTicks": 60,
          "midi": 71,
          "name": "B4",
          "ticks": 140700,
          "time": 355.53775,
          "velocity": 0.7874015748031497
        },
        {
          "duration": 0.1171875,
          "durationTicks": 60,
          "midi": 73,
          "name": "C#5",
          "ticks": 140760,
          "time": 355.6549375,
          "velocity": 0.7874015748031497
        },
        {
          "duration": 0.1171875,
          "durationTicks": 60,
          "midi": 69,
          "name": "A4",
          "ticks": 140820,
          "time": 355.772125,
          "velocity": 0.7874015748031497
        },
        {
          "duration": 0.1171875,
          "durationTicks": 60,
          "midi": 64,
          "name": "E4",
          "ticks": 140880,
          "time": 355.8893125,
          "velocity": 0.7874015748031497
        },
        {
          "duration": 0.1171875,
          "durationTicks": 60,
          "midi": 66,
          "name": "F#4",
          "ticks": 140940,
          "time": 356.0065,
          "velocity": 0.7874015748031497
        },
        {
          "duration": 0.1171875,
          "durationTicks": 60,
          "midi": 67,
          "name": "G4",
          "ticks": 141000,
          "time": 356.1236875,
          "velocity": 0.7874015748031497
        },
        {
          "duration": 0.1171875,
          "durationTicks": 60,
          "midi": 64,
          "name": "E4",
          "ticks": 141060,
          "time": 356.240875,
          "velocity": 0.7874015748031497
        },
        {
          "duration": 0.1171875,
          "durationTicks": 60,
          "midi": 61,
          "name": "C#4",
          "ticks": 141120,
          "time": 356.3580625,
          "velocity": 0.7874015748031497
        },
        {
          "duration": 0.1171875,
          "durationTicks": 60,
          "midi": 64,
          "name": "E4",
          "ticks": 141180,
          "time": 356.47525,
          "velocity": 0.7874015748031497
        },
        {
          "duration": 0.234375,
          "durationTicks": 120,
          "midi": 62,
          "name": "D4",
          "ticks": 141240,
          "time": 356.5924375,
          "velocity": 0.7874015748031497
        },
        {
          "duration": 0.234375,
          "durationTicks": 120,
          "midi": 66,
          "name": "F#4",
          "ticks": 141360,
          "time": 356.8268125,
          "velocity": 0.7874015748031497
        },
        {
          "duration": 0.234375,
          "durationTicks": 120,
          "midi": 69,
          "name": "A4",
          "ticks": 141480,
          "time": 357.0611875,
          "velocity": 0.7874015748031497
        },
        {
          "duration": 0.234375,
          "durationTicks": 120,
          "midi": 74,
          "name": "D5",
          "ticks": 141600,
          "time": 357.2955625,
          "velocity": 0.7874015748031497
        },
        {
          "duration": 0.1171875,
          "durationTicks": 60,
          "midi": 72,
          "name": "C5",
          "ticks": 141780,
          "time": 357.647125,
          "velocity": 0.7874015748031497
        },
        {
          "duration": 0.1171875,
          "durationTicks": 60,
          "midi": 69,
          "name": "A4",
          "ticks": 141840,
          "time": 357.7643125,
          "velocity": 0.7874015748031497
        },
        {
          "duration": 0.1171875,
          "durationTicks": 60,
          "midi": 66,
          "name": "F#4",
          "ticks": 141900,
          "time": 357.8815,
          "velocity": 0.7874015748031497
        },
        {
          "duration": 0.234375,
          "durationTicks": 120,
          "midi": 67,
          "name": "G4",
          "ticks": 141960,
          "time": 357.9986875,
          "velocity": 0.7874015748031497
        },
        {
          "duration": 0.234375,
          "durationTicks": 120,
          "midi": 71,
          "name": "B4",
          "ticks": 142080,
          "time": 358.2330625,
          "velocity": 0.7874015748031497
        },
        {
          "duration": 0.234375,
          "durationTicks": 120,
          "midi": 74,
          "name": "D5",
          "ticks": 142200,
          "time": 358.4674375,
          "velocity": 0.7874015748031497
        },
        {
          "duration": 0.234375,
          "durationTicks": 120,
          "midi": 79,
          "name": "G5",
          "ticks": 142320,
          "time": 358.7018125,
          "velocity": 0.7874015748031497
        },
        {
          "duration": 0.1171875,
          "durationTicks": 60,
          "midi": 79,
          "name": "G5",
          "ticks": 142500,
          "time": 359.053375,
          "velocity": 0.7874015748031497
        },
        {
          "duration": 0.1171875,
          "durationTicks": 60,
          "midi": 78,
          "name": "F#5",
          "ticks": 142560,
          "time": 359.1705625,
          "velocity": 0.7874015748031497
        },
        {
          "duration": 0.1171875,
          "durationTicks": 60,
          "midi": 79,
          "name": "G5",
          "ticks": 142620,
          "time": 359.28775,
          "velocity": 0.7874015748031497
        },
        {
          "duration": 0.234375,
          "durationTicks": 120,
          "midi": 69,
          "name": "A4",
          "ticks": 142680,
          "time": 359.4049375,
          "velocity": 0.7874015748031497
        },
        {
          "duration": 0.234375,
          "durationTicks": 120,
          "midi": 73,
          "name": "C#5",
          "ticks": 142800,
          "time": 359.6393125,
          "velocity": 0.7874015748031497
        },
        {
          "duration": 0.234375,
          "durationTicks": 120,
          "midi": 76,
          "name": "E5",
          "ticks": 142920,
          "time": 359.8736875,
          "velocity": 0.7874015748031497
        },
        {
          "duration": 0.234375,
          "durationTicks": 120,
          "midi": 79,
          "name": "G5",
          "ticks": 143040,
          "time": 360.1080625,
          "velocity": 0.7874015748031497
        },
        {
          "duration": 0.1171875,
          "durationTicks": 60,
          "midi": 79,
          "name": "G5",
          "ticks": 143220,
          "time": 360.459625,
          "velocity": 0.7874015748031497
        },
        {
          "duration": 0.1171875,
          "durationTicks": 60,
          "midi": 81,
          "name": "A5",
          "ticks": 143280,
          "time": 360.5768125,
          "velocity": 0.7874015748031497
        },
        {
          "duration": 0.1171875,
          "durationTicks": 60,
          "midi": 73,
          "name": "C#5",
          "ticks": 143340,
          "time": 360.694,
          "velocity": 0.7874015748031497
        },
        {
          "duration": 0.234375,
          "durationTicks": 120,
          "midi": 74,
          "name": "D5",
          "ticks": 143400,
          "time": 360.8111875,
          "velocity": 0.7874015748031497
        },
        {
          "duration": 0.234375,
          "durationTicks": 120,
          "midi": 78,
          "name": "F#5",
          "ticks": 143520,
          "time": 361.0455625,
          "velocity": 0.7874015748031497
        },
        {
          "duration": 0.234375,
          "durationTicks": 120,
          "midi": 81,
          "name": "A5",
          "ticks": 143640,
          "time": 361.2799375,
          "velocity": 0.7874015748031497
        },
        {
          "duration": 0.234375,
          "durationTicks": 120,
          "midi": 86,
          "name": "D6",
          "ticks": 143760,
          "time": 361.5143125,
          "velocity": 0.7874015748031497
        },
        {
          "duration": 0.1171875,
          "durationTicks": 60,
          "midi": 69,
          "name": "A4",
          "ticks": 144120,
          "time": 362.2174375,
          "velocity": 0.7874015748031497
        },
        {
          "duration": 0.1171875,
          "durationTicks": 60,
          "midi": 74,
          "name": "D5",
          "ticks": 144180,
          "time": 362.334625,
          "velocity": 0.7874015748031497
        },
        {
          "duration": 0.1171875,
          "durationTicks": 60,
          "midi": 78,
          "name": "F#5",
          "ticks": 144240,
          "time": 362.4518125,
          "velocity": 0.7874015748031497
        },
        {
          "duration": 0.1171875,
          "durationTicks": 60,
          "midi": 76,
          "name": "E5",
          "ticks": 144300,
          "time": 362.569,
          "velocity": 0.7874015748031497
        },
        {
          "duration": 0.1171875,
          "durationTicks": 60,
          "midi": 74,
          "name": "D5",
          "ticks": 144360,
          "time": 362.6861875,
          "velocity": 0.7874015748031497
        },
        {
          "duration": 0.1171875,
          "durationTicks": 60,
          "midi": 78,
          "name": "F#5",
          "ticks": 144420,
          "time": 362.803375,
          "velocity": 0.7874015748031497
        },
        {
          "duration": 0.1171875,
          "durationTicks": 60,
          "midi": 81,
          "name": "A5",
          "ticks": 144480,
          "time": 362.9205625,
          "velocity": 0.7874015748031497
        },
        {
          "duration": 0.1171875,
          "durationTicks": 60,
          "midi": 79,
          "name": "G5",
          "ticks": 144540,
          "time": 363.03775,
          "velocity": 0.7874015748031497
        },
        {
          "duration": 0.1171875,
          "durationTicks": 60,
          "midi": 78,
          "name": "F#5",
          "ticks": 144600,
          "time": 363.1549375,
          "velocity": 0.7874015748031497
        },
        {
          "duration": 0.1171875,
          "durationTicks": 60,
          "midi": 81,
          "name": "A5",
          "ticks": 144660,
          "time": 363.272125,
          "velocity": 0.7874015748031497
        },
        {
          "duration": 0.234375,
          "durationTicks": 120,
          "midi": 84,
          "name": "C6",
          "ticks": 144720,
          "time": 363.3893125,
          "velocity": 0.7874015748031497
        },
        {
          "duration": 0.1171875,
          "durationTicks": 60,
          "midi": 62,
          "name": "D4",
          "ticks": 144840,
          "time": 363.6236875,
          "velocity": 0.7874015748031497
        },
        {
          "duration": 0.1171875,
          "durationTicks": 60,
          "midi": 67,
          "name": "G4",
          "ticks": 144900,
          "time": 363.740875,
          "velocity": 0.7874015748031497
        },
        {
          "duration": 0.1171875,
          "durationTicks": 60,
          "midi": 71,
          "name": "B4",
          "ticks": 144960,
          "time": 363.8580625,
          "velocity": 0.7874015748031497
        },
        {
          "duration": 0.1171875,
          "durationTicks": 60,
          "midi": 69,
          "name": "A4",
          "ticks": 145020,
          "time": 363.97525,
          "velocity": 0.7874015748031497
        },
        {
          "duration": 0.1171875,
          "durationTicks": 60,
          "midi": 67,
          "name": "G4",
          "ticks": 145080,
          "time": 364.0924375,
          "velocity": 0.7874015748031497
        },
        {
          "duration": 0.1171875,
          "durationTicks": 60,
          "midi": 71,
          "name": "B4",
          "ticks": 145140,
          "time": 364.209625,
          "velocity": 0.7874015748031497
        },
        {
          "duration": 0.1171875,
          "durationTicks": 60,
          "midi": 74,
          "name": "D5",
          "ticks": 145200,
          "time": 364.3268125,
          "velocity": 0.7874015748031497
        },
        {
          "duration": 0.1171875,
          "durationTicks": 60,
          "midi": 72,
          "name": "C5",
          "ticks": 145260,
          "time": 364.444,
          "velocity": 0.7874015748031497
        },
        {
          "duration": 0.1171875,
          "durationTicks": 60,
          "midi": 71,
          "name": "B4",
          "ticks": 145320,
          "time": 364.5611875,
          "velocity": 0.7874015748031497
        },
        {
          "duration": 0.1171875,
          "durationTicks": 60,
          "midi": 74,
          "name": "D5",
          "ticks": 145380,
          "time": 364.678375,
          "velocity": 0.7874015748031497
        },
        {
          "duration": 0.234375,
          "durationTicks": 120,
          "midi": 77,
          "name": "F5",
          "ticks": 145440,
          "time": 364.7955625,
          "velocity": 0.7874015748031497
        },
        {
          "duration": 0.1171875,
          "durationTicks": 60,
          "midi": 76,
          "name": "E5",
          "ticks": 145560,
          "time": 365.0299375,
          "velocity": 0.7874015748031497
        },
        {
          "duration": 0.1171875,
          "durationTicks": 60,
          "midi": 72,
          "name": "C5",
          "ticks": 145620,
          "time": 365.147125,
          "velocity": 0.7874015748031497
        },
        {
          "duration": 0.1171875,
          "durationTicks": 60,
          "midi": 69,
          "name": "A4",
          "ticks": 145680,
          "time": 365.2643125,
          "velocity": 0.7874015748031497
        },
        {
          "duration": 0.1171875,
          "durationTicks": 60,
          "midi": 71,
          "name": "B4",
          "ticks": 145740,
          "time": 365.3815,
          "velocity": 0.7874015748031497
        },
        {
          "duration": 0.1171875,
          "durationTicks": 60,
          "midi": 72,
          "name": "C5",
          "ticks": 145800,
          "time": 365.4986875,
          "velocity": 0.7874015748031497
        },
        {
          "duration": 0.1171875,
          "durationTicks": 60,
          "midi": 69,
          "name": "A4",
          "ticks": 145860,
          "time": 365.615875,
          "velocity": 0.7874015748031497
        },
        {
          "duration": 0.1171875,
          "durationTicks": 60,
          "midi": 66,
          "name": "F#4",
          "ticks": 145920,
          "time": 365.7330625,
          "velocity": 0.7874015748031497
        },
        {
          "duration": 0.1171875,
          "durationTicks": 60,
          "midi": 67,
          "name": "G4",
          "ticks": 145980,
          "time": 365.85025,
          "velocity": 0.7874015748031497
        },
        {
          "duration": 0.1171875,
          "durationTicks": 60,
          "midi": 69,
          "name": "A4",
          "ticks": 146040,
          "time": 365.9674375,
          "velocity": 0.7874015748031497
        },
        {
          "duration": 0.1171875,
          "durationTicks": 60,
          "midi": 66,
          "name": "F#4",
          "ticks": 146100,
          "time": 366.084625,
          "velocity": 0.7874015748031497
        },
        {
          "duration": 0.1171875,
          "durationTicks": 60,
          "midi": 66,
          "name": "F#4",
          "ticks": 146280,
          "time": 366.4361875,
          "velocity": 0.7874015748031497
        },
        {
          "duration": 0.1171875,
          "durationTicks": 60,
          "midi": 63,
          "name": "D#4",
          "ticks": 146340,
          "time": 366.553375,
          "velocity": 0.7874015748031497
        },
        {
          "duration": 0.1171875,
          "durationTicks": 60,
          "midi": 59,
          "name": "B3",
          "ticks": 146400,
          "time": 366.6705625,
          "velocity": 0.7874015748031497
        },
        {
          "duration": 0.1171875,
          "durationTicks": 60,
          "midi": 61,
          "name": "C#4",
          "ticks": 146460,
          "time": 366.78775,
          "velocity": 0.7874015748031497
        },
        {
          "duration": 0.1171875,
          "durationTicks": 60,
          "midi": 63,
          "name": "D#4",
          "ticks": 146520,
          "time": 366.9049375,
          "velocity": 0.7874015748031497
        },
        {
          "duration": 0.1171875,
          "durationTicks": 60,
          "midi": 59,
          "name": "B3",
          "ticks": 146580,
          "time": 367.022125,
          "velocity": 0.7874015748031497
        },
        {
          "duration": 0.1171875,
          "durationTicks": 60,
          "midi": 54,
          "name": "F#3",
          "ticks": 146640,
          "time": 367.1393125,
          "velocity": 0.7874015748031497
        },
        {
          "duration": 0.1171875,
          "durationTicks": 60,
          "midi": 55,
          "name": "G3",
          "ticks": 146700,
          "time": 367.2565,
          "velocity": 0.7874015748031497
        },
        {
          "duration": 0.1171875,
          "durationTicks": 60,
          "midi": 57,
          "name": "A3",
          "ticks": 146760,
          "time": 367.3736875,
          "velocity": 0.7874015748031497
        },
        {
          "duration": 0.1171875,
          "durationTicks": 60,
          "midi": 54,
          "name": "F#3",
          "ticks": 146820,
          "time": 367.490875,
          "velocity": 0.7874015748031497
        },
        {
          "duration": 0.1171875,
          "durationTicks": 60,
          "midi": 51,
          "name": "D#3",
          "ticks": 146880,
          "time": 367.6080625,
          "velocity": 0.7874015748031497
        },
        {
          "duration": 0.1171875,
          "durationTicks": 60,
          "midi": 54,
          "name": "F#3",
          "ticks": 146940,
          "time": 367.72525,
          "velocity": 0.7874015748031497
        },
        {
          "duration": 0.1171875,
          "durationTicks": 60,
          "midi": 43,
          "name": "G2",
          "ticks": 147000,
          "time": 367.8424375,
          "velocity": 0.7874015748031497
        },
        {
          "duration": 0.1171875,
          "durationTicks": 60,
          "midi": 47,
          "name": "B2",
          "ticks": 147060,
          "time": 367.959625,
          "velocity": 0.7874015748031497
        },
        {
          "duration": 0.1171875,
          "durationTicks": 60,
          "midi": 52,
          "name": "E3",
          "ticks": 147120,
          "time": 368.0768125,
          "velocity": 0.7874015748031497
        },
        {
          "duration": 0.1171875,
          "durationTicks": 60,
          "midi": 51,
          "name": "D#3",
          "ticks": 147180,
          "time": 368.194,
          "velocity": 0.7874015748031497
        },
        {
          "duration": 0.1171875,
          "durationTicks": 60,
          "midi": 52,
          "name": "E3",
          "ticks": 147240,
          "time": 368.3111875,
          "velocity": 0.7874015748031497
        },
        {
          "duration": 0.1171875,
          "durationTicks": 60,
          "midi": 55,
          "name": "G3",
          "ticks": 147300,
          "time": 368.428375,
          "velocity": 0.7874015748031497
        },
        {
          "duration": 0.1171875,
          "durationTicks": 60,
          "midi": 59,
          "name": "B3",
          "ticks": 147360,
          "time": 368.5455625,
          "velocity": 0.7874015748031497
        },
        {
          "duration": 0.1171875,
          "durationTicks": 60,
          "midi": 57,
          "name": "A3",
          "ticks": 147420,
          "time": 368.66275,
          "velocity": 0.7874015748031497
        },
        {
          "duration": 0.1171875,
          "durationTicks": 60,
          "midi": 55,
          "name": "G3",
          "ticks": 147480,
          "time": 368.7799375,
          "velocity": 0.7874015748031497
        },
        {
          "duration": 0.1171875,
          "durationTicks": 60,
          "midi": 59,
          "name": "B3",
          "ticks": 147540,
          "time": 368.897125,
          "velocity": 0.7874015748031497
        },
        {
          "duration": 0.1171875,
          "durationTicks": 60,
          "midi": 64,
          "name": "E4",
          "ticks": 147600,
          "time": 369.0143125,
          "velocity": 0.7874015748031497
        },
        {
          "duration": 0.1171875,
          "durationTicks": 60,
          "midi": 64,
          "name": "E4",
          "ticks": 147720,
          "time": 369.2486875,
          "velocity": 0.7874015748031497
        },
        {
          "duration": 0.1171875,
          "durationTicks": 60,
          "midi": 69,
          "name": "A4",
          "ticks": 147780,
          "time": 369.365875,
          "velocity": 0.7874015748031497
        },
        {
          "duration": 0.1171875,
          "durationTicks": 60,
          "midi": 72,
          "name": "C5",
          "ticks": 147840,
          "time": 369.4830625,
          "velocity": 0.7874015748031497
        },
        {
          "duration": 0.1171875,
          "durationTicks": 60,
          "midi": 71,
          "name": "B4",
          "ticks": 147900,
          "time": 369.60025,
          "velocity": 0.7874015748031497
        },
        {
          "duration": 0.1171875,
          "durationTicks": 60,
          "midi": 69,
          "name": "A4",
          "ticks": 147960,
          "time": 369.7174375,
          "velocity": 0.7874015748031497
        },
        {
          "duration": 0.1171875,
          "durationTicks": 60,
          "midi": 72,
          "name": "C5",
          "ticks": 148020,
          "time": 369.834625,
          "velocity": 0.7874015748031497
        },
        {
          "duration": 0.1171875,
          "durationTicks": 60,
          "midi": 76,
          "name": "E5",
          "ticks": 148080,
          "time": 369.9518125,
          "velocity": 0.7874015748031497
        },
        {
          "duration": 0.1171875,
          "durationTicks": 60,
          "midi": 74,
          "name": "D5",
          "ticks": 148140,
          "time": 370.069,
          "velocity": 0.7874015748031497
        },
        {
          "duration": 0.1171875,
          "durationTicks": 60,
          "midi": 72,
          "name": "C5",
          "ticks": 148200,
          "time": 370.1861875,
          "velocity": 0.7874015748031497
        },
        {
          "duration": 0.1171875,
          "durationTicks": 60,
          "midi": 76,
          "name": "E5",
          "ticks": 148260,
          "time": 370.303375,
          "velocity": 0.7874015748031497
        },
        {
          "duration": 0.234375,
          "durationTicks": 120,
          "midi": 81,
          "name": "A5",
          "ticks": 148320,
          "time": 370.4205625,
          "velocity": 0.7874015748031497
        },
        {
          "duration": 0.1171875,
          "durationTicks": 60,
          "midi": 72,
          "name": "C5",
          "ticks": 148500,
          "time": 370.772125,
          "velocity": 0.7874015748031497
        },
        {
          "duration": 0.1171875,
          "durationTicks": 60,
          "midi": 71,
          "name": "B4",
          "ticks": 148560,
          "time": 370.8893125,
          "velocity": 0.7874015748031497
        },
        {
          "duration": 0.1171875,
          "durationTicks": 60,
          "midi": 78,
          "name": "F#5",
          "ticks": 148620,
          "time": 371.0065,
          "velocity": 0.7874015748031497
        },
        {
          "duration": 0.1171875,
          "durationTicks": 60,
          "midi": 79,
          "name": "G5",
          "ticks": 148680,
          "time": 371.1236875,
          "velocity": 0.7874015748031497
        },
        {
          "duration": 0.1171875,
          "durationTicks": 60,
          "midi": 75,
          "name": "D#5",
          "ticks": 148740,
          "time": 371.240875,
          "velocity": 0.7874015748031497
        },
        {
          "duration": 0.1171875,
          "durationTicks": 60,
          "midi": 76,
          "name": "E5",
          "ticks": 148800,
          "time": 371.3580625,
          "velocity": 0.7874015748031497
        },
        {
          "duration": 0.1171875,
          "durationTicks": 60,
          "midi": 67,
          "name": "G4",
          "ticks": 148860,
          "time": 371.47525,
          "velocity": 0.7874015748031497
        },
        {
          "duration": 0.1171875,
          "durationTicks": 60,
          "midi": 66,
          "name": "F#4",
          "ticks": 148920,
          "time": 371.5924375,
          "velocity": 0.7874015748031497
        },
        {
          "duration": 0.1171875,
          "durationTicks": 60,
          "midi": 76,
          "name": "E5",
          "ticks": 148980,
          "time": 371.709625,
          "velocity": 0.7874015748031497
        },
        {
          "duration": 0.1171875,
          "durationTicks": 60,
          "midi": 75,
          "name": "D#5",
          "ticks": 149040,
          "time": 371.8268125,
          "velocity": 0.7874015748031497
        },
        {
          "duration": 0.1171875,
          "durationTicks": 60,
          "midi": 81,
          "name": "A5",
          "ticks": 149100,
          "time": 371.944,
          "velocity": 0.7874015748031497
        },
        {
          "duration": 0.1171875,
          "durationTicks": 60,
          "midi": 79,
          "name": "G5",
          "ticks": 149160,
          "time": 372.0611875,
          "velocity": 0.7874015748031497
        },
        {
          "duration": 0.1171875,
          "durationTicks": 60,
          "midi": 83,
          "name": "B5",
          "ticks": 149220,
          "time": 372.178375,
          "velocity": 0.7874015748031497
        },
        {
          "duration": 0.1171875,
          "durationTicks": 60,
          "midi": 76,
          "name": "E5",
          "ticks": 149280,
          "time": 372.2955625,
          "velocity": 0.7874015748031497
        },
        {
          "duration": 0.1171875,
          "durationTicks": 60,
          "midi": 78,
          "name": "F#5",
          "ticks": 149340,
          "time": 372.41275,
          "velocity": 0.7874015748031497
        },
        {
          "duration": 0.1171875,
          "durationTicks": 60,
          "midi": 79,
          "name": "G5",
          "ticks": 149400,
          "time": 372.5299375,
          "velocity": 0.7874015748031497
        },
        {
          "duration": 0.1171875,
          "durationTicks": 60,
          "midi": 76,
          "name": "E5",
          "ticks": 149460,
          "time": 372.647125,
          "velocity": 0.7874015748031497
        },
        {
          "duration": 0.1171875,
          "durationTicks": 60,
          "midi": 71,
          "name": "B4",
          "ticks": 149520,
          "time": 372.7643125,
          "velocity": 0.7874015748031497
        },
        {
          "duration": 0.1171875,
          "durationTicks": 60,
          "midi": 67,
          "name": "G4",
          "ticks": 149580,
          "time": 372.8815,
          "velocity": 0.7874015748031497
        },
        {
          "duration": 0.703125,
          "durationTicks": 360,
          "midi": 64,
          "name": "E4",
          "ticks": 149640,
          "time": 372.9986875,
          "velocity": 0.7874015748031497
        },
        {
          "duration": 0.1171875,
          "durationTicks": 60,
          "midi": 76,
          "name": "E5",
          "ticks": 150000,
          "time": 373.7018125,
          "velocity": 0.7874015748031497
        },
        {
          "duration": 0.1171875,
          "durationTicks": 60,
          "midi": 74,
          "name": "D5",
          "ticks": 150060,
          "time": 373.819,
          "velocity": 0.7874015748031497
        },
        {
          "duration": 0.1171875,
          "durationTicks": 60,
          "midi": 72,
          "name": "C5",
          "ticks": 150120,
          "time": 373.9361875,
          "velocity": 0.7874015748031497
        },
        {
          "duration": 0.1171875,
          "durationTicks": 60,
          "midi": 71,
          "name": "B4",
          "ticks": 150180,
          "time": 374.053375,
          "velocity": 0.7874015748031497
        },
        {
          "duration": 0.1171875,
          "durationTicks": 60,
          "midi": 69,
          "name": "A4",
          "ticks": 150240,
          "time": 374.1705625,
          "velocity": 0.7874015748031497
        },
        {
          "duration": 0.1171875,
          "durationTicks": 60,
          "midi": 67,
          "name": "G4",
          "ticks": 150300,
          "time": 374.28775,
          "velocity": 0.7874015748031497
        },
        {
          "duration": 0.1171875,
          "durationTicks": 60,
          "midi": 66,
          "name": "F#4",
          "ticks": 150360,
          "time": 374.4049375,
          "velocity": 0.7874015748031497
        },
        {
          "duration": 0.1171875,
          "durationTicks": 60,
          "midi": 70,
          "name": "A#4",
          "ticks": 150420,
          "time": 374.522125,
          "velocity": 0.7874015748031497
        },
        {
          "duration": 0.1171875,
          "durationTicks": 60,
          "midi": 73,
          "name": "C#5",
          "ticks": 150480,
          "time": 374.6393125,
          "velocity": 0.7874015748031497
        },
        {
          "duration": 0.1171875,
          "durationTicks": 60,
          "midi": 76,
          "name": "E5",
          "ticks": 150540,
          "time": 374.7565,
          "velocity": 0.7874015748031497
        },
        {
          "duration": 0.1171875,
          "durationTicks": 60,
          "midi": 74,
          "name": "D5",
          "ticks": 150600,
          "time": 374.8736875,
          "velocity": 0.7874015748031497
        },
        {
          "duration": 0.1171875,
          "durationTicks": 60,
          "midi": 66,
          "name": "F#4",
          "ticks": 150660,
          "time": 374.990875,
          "velocity": 0.7874015748031497
        },
        {
          "duration": 0.1171875,
          "durationTicks": 60,
          "midi": 74,
          "name": "D5",
          "ticks": 150720,
          "time": 375.1080625,
          "velocity": 0.7874015748031497
        },
        {
          "duration": 0.1171875,
          "durationTicks": 60,
          "midi": 72,
          "name": "C5",
          "ticks": 150780,
          "time": 375.22525,
          "velocity": 0.7874015748031497
        },
        {
          "duration": 0.1171875,
          "durationTicks": 60,
          "midi": 71,
          "name": "B4",
          "ticks": 150840,
          "time": 375.3424375,
          "velocity": 0.7874015748031497
        },
        {
          "duration": 0.1171875,
          "durationTicks": 60,
          "midi": 69,
          "name": "A4",
          "ticks": 150900,
          "time": 375.459625,
          "velocity": 0.7874015748031497
        },
        {
          "duration": 0.1171875,
          "durationTicks": 60,
          "midi": 68,
          "name": "G#4",
          "ticks": 150960,
          "time": 375.5768125,
          "velocity": 0.7874015748031497
        },
        {
          "duration": 0.1171875,
          "durationTicks": 60,
          "midi": 66,
          "name": "F#4",
          "ticks": 151020,
          "time": 375.694,
          "velocity": 0.7874015748031497
        },
        {
          "duration": 0.1171875,
          "durationTicks": 60,
          "midi": 64,
          "name": "E4",
          "ticks": 151080,
          "time": 375.8111875,
          "velocity": 0.7874015748031497
        },
        {
          "duration": 0.1171875,
          "durationTicks": 60,
          "midi": 68,
          "name": "G#4",
          "ticks": 151140,
          "time": 375.928375,
          "velocity": 0.7874015748031497
        },
        {
          "duration": 0.1171875,
          "durationTicks": 60,
          "midi": 71,
          "name": "B4",
          "ticks": 151200,
          "time": 376.0455625,
          "velocity": 0.7874015748031497
        },
        {
          "duration": 0.1171875,
          "durationTicks": 60,
          "midi": 74,
          "name": "D5",
          "ticks": 151260,
          "time": 376.16275,
          "velocity": 0.7874015748031497
        },
        {
          "duration": 0.1171875,
          "durationTicks": 60,
          "midi": 72,
          "name": "C5",
          "ticks": 151320,
          "time": 376.2799375,
          "velocity": 0.7874015748031497
        },
        {
          "duration": 0.1171875,
          "durationTicks": 60,
          "midi": 64,
          "name": "E4",
          "ticks": 151380,
          "time": 376.397125,
          "velocity": 0.7874015748031497
        },
        {
          "duration": 0.1171875,
          "durationTicks": 60,
          "midi": 72,
          "name": "C5",
          "ticks": 151440,
          "time": 376.5143125,
          "velocity": 0.7874015748031497
        },
        {
          "duration": 0.1171875,
          "durationTicks": 60,
          "midi": 71,
          "name": "B4",
          "ticks": 151500,
          "time": 376.6315,
          "velocity": 0.7874015748031497
        },
        {
          "duration": 0.1171875,
          "durationTicks": 60,
          "midi": 69,
          "name": "A4",
          "ticks": 151560,
          "time": 376.7486875,
          "velocity": 0.7874015748031497
        },
        {
          "duration": 0.1171875,
          "durationTicks": 60,
          "midi": 72,
          "name": "C5",
          "ticks": 151620,
          "time": 376.865875,
          "velocity": 0.7874015748031497
        },
        {
          "duration": 0.1171875,
          "durationTicks": 60,
          "midi": 76,
          "name": "E5",
          "ticks": 151680,
          "time": 376.9830625,
          "velocity": 0.7874015748031497
        },
        {
          "duration": 0.1171875,
          "durationTicks": 60,
          "midi": 74,
          "name": "D5",
          "ticks": 151740,
          "time": 377.10025,
          "velocity": 0.7874015748031497
        },
        {
          "duration": 0.1171875,
          "durationTicks": 60,
          "midi": 72,
          "name": "C5",
          "ticks": 151800,
          "time": 377.2174375,
          "velocity": 0.7874015748031497
        },
        {
          "duration": 0.1171875,
          "durationTicks": 60,
          "midi": 76,
          "name": "E5",
          "ticks": 151860,
          "time": 377.334625,
          "velocity": 0.7874015748031497
        },
        {
          "duration": 0.1171875,
          "durationTicks": 60,
          "midi": 81,
          "name": "A5",
          "ticks": 151920,
          "time": 377.4518125,
          "velocity": 0.7874015748031497
        },
        {
          "duration": 0.1171875,
          "durationTicks": 60,
          "midi": 79,
          "name": "G5",
          "ticks": 151980,
          "time": 377.569,
          "velocity": 0.7874015748031497
        },
        {
          "duration": 0.1171875,
          "durationTicks": 60,
          "midi": 78,
          "name": "F#5",
          "ticks": 152040,
          "time": 377.6861875,
          "velocity": 0.7874015748031497
        },
        {
          "duration": 0.1171875,
          "durationTicks": 60,
          "midi": 81,
          "name": "A5",
          "ticks": 152100,
          "time": 377.803375,
          "velocity": 0.7874015748031497
        },
        {
          "duration": 0.1171875,
          "durationTicks": 60,
          "midi": 84,
          "name": "C6",
          "ticks": 152160,
          "time": 377.9205625,
          "velocity": 0.7874015748031497
        },
        {
          "duration": 0.1171875,
          "durationTicks": 60,
          "midi": 83,
          "name": "B5",
          "ticks": 152220,
          "time": 378.03775,
          "velocity": 0.7874015748031497
        },
        {
          "duration": 0.1171875,
          "durationTicks": 60,
          "midi": 81,
          "name": "A5",
          "ticks": 152280,
          "time": 378.1549375,
          "velocity": 0.7874015748031497
        },
        {
          "duration": 0.1171875,
          "durationTicks": 60,
          "midi": 79,
          "name": "G5",
          "ticks": 152340,
          "time": 378.272125,
          "velocity": 0.7874015748031497
        },
        {
          "duration": 0.1171875,
          "durationTicks": 60,
          "midi": 78,
          "name": "F#5",
          "ticks": 152400,
          "time": 378.3893125,
          "velocity": 0.7874015748031497
        },
        {
          "duration": 0.1171875,
          "durationTicks": 60,
          "midi": 76,
          "name": "E5",
          "ticks": 152460,
          "time": 378.5065,
          "velocity": 0.7874015748031497
        },
        {
          "duration": 0.1171875,
          "durationTicks": 60,
          "midi": 74,
          "name": "D5",
          "ticks": 152520,
          "time": 378.6236875,
          "velocity": 0.7874015748031497
        },
        {
          "duration": 0.1171875,
          "durationTicks": 60,
          "midi": 78,
          "name": "F#5",
          "ticks": 152580,
          "time": 378.740875,
          "velocity": 0.7874015748031497
        },
        {
          "duration": 0.1171875,
          "durationTicks": 60,
          "midi": 81,
          "name": "A5",
          "ticks": 152640,
          "time": 378.8580625,
          "velocity": 0.7874015748031497
        },
        {
          "duration": 0.1171875,
          "durationTicks": 60,
          "midi": 84,
          "name": "C6",
          "ticks": 152700,
          "time": 378.97525,
          "velocity": 0.7874015748031497
        },
        {
          "duration": 0.1171875,
          "durationTicks": 60,
          "midi": 83,
          "name": "B5",
          "ticks": 152760,
          "time": 379.0924375,
          "velocity": 0.7874015748031497
        },
        {
          "duration": 0.1171875,
          "durationTicks": 60,
          "midi": 86,
          "name": "D6",
          "ticks": 152820,
          "time": 379.209625,
          "velocity": 0.7874015748031497
        },
        {
          "duration": 0.1171875,
          "durationTicks": 60,
          "midi": 79,
          "name": "G5",
          "ticks": 152880,
          "time": 379.3268125,
          "velocity": 0.7874015748031497
        },
        {
          "duration": 0.1171875,
          "durationTicks": 60,
          "midi": 81,
          "name": "A5",
          "ticks": 152940,
          "time": 379.444,
          "velocity": 0.7874015748031497
        },
        {
          "duration": 0.1171875,
          "durationTicks": 60,
          "midi": 83,
          "name": "B5",
          "ticks": 153000,
          "time": 379.5611875,
          "velocity": 0.7874015748031497
        },
        {
          "duration": 0.1171875,
          "durationTicks": 60,
          "midi": 79,
          "name": "G5",
          "ticks": 153060,
          "time": 379.678375,
          "velocity": 0.7874015748031497
        },
        {
          "duration": 0.1171875,
          "durationTicks": 60,
          "midi": 74,
          "name": "D5",
          "ticks": 153120,
          "time": 379.7955625,
          "velocity": 0.7874015748031497
        },
        {
          "duration": 0.1171875,
          "durationTicks": 60,
          "midi": 76,
          "name": "E5",
          "ticks": 153180,
          "time": 379.91275,
          "velocity": 0.7874015748031497
        },
        {
          "duration": 0.1171875,
          "durationTicks": 60,
          "midi": 77,
          "name": "F5",
          "ticks": 153240,
          "time": 380.0299375,
          "velocity": 0.7874015748031497
        },
        {
          "duration": 0.1171875,
          "durationTicks": 60,
          "midi": 74,
          "name": "D5",
          "ticks": 153300,
          "time": 380.147125,
          "velocity": 0.7874015748031497
        },
        {
          "duration": 0.1171875,
          "durationTicks": 60,
          "midi": 71,
          "name": "B4",
          "ticks": 153360,
          "time": 380.2643125,
          "velocity": 0.7874015748031497
        },
        {
          "duration": 0.1171875,
          "durationTicks": 60,
          "midi": 74,
          "name": "D5",
          "ticks": 153420,
          "time": 380.3815,
          "velocity": 0.7874015748031497
        },
        {
          "duration": 0.1171875,
          "durationTicks": 60,
          "midi": 76,
          "name": "E5",
          "ticks": 153480,
          "time": 380.4986875,
          "velocity": 0.7874015748031497
        },
        {
          "duration": 0.1171875,
          "durationTicks": 60,
          "midi": 79,
          "name": "G5",
          "ticks": 153540,
          "time": 380.615875,
          "velocity": 0.7874015748031497
        },
        {
          "duration": 0.1171875,
          "durationTicks": 60,
          "midi": 72,
          "name": "C5",
          "ticks": 153600,
          "time": 380.7330625,
          "velocity": 0.7874015748031497
        },
        {
          "duration": 0.1171875,
          "durationTicks": 60,
          "midi": 74,
          "name": "D5",
          "ticks": 153660,
          "time": 380.85025,
          "velocity": 0.7874015748031497
        },
        {
          "duration": 0.1171875,
          "durationTicks": 60,
          "midi": 76,
          "name": "E5",
          "ticks": 153720,
          "time": 380.9674375,
          "velocity": 0.7874015748031497
        },
        {
          "duration": 0.1171875,
          "durationTicks": 60,
          "midi": 72,
          "name": "C5",
          "ticks": 153780,
          "time": 381.084625,
          "velocity": 0.7874015748031497
        },
        {
          "duration": 0.1171875,
          "durationTicks": 60,
          "midi": 69,
          "name": "A4",
          "ticks": 153840,
          "time": 381.2018125,
          "velocity": 0.7874015748031497
        },
        {
          "duration": 0.1171875,
          "durationTicks": 60,
          "midi": 71,
          "name": "B4",
          "ticks": 153900,
          "time": 381.319,
          "velocity": 0.7874015748031497
        },
        {
          "duration": 0.1171875,
          "durationTicks": 60,
          "midi": 72,
          "name": "C5",
          "ticks": 153960,
          "time": 381.4361875,
          "velocity": 0.7874015748031497
        },
        {
          "duration": 0.1171875,
          "durationTicks": 60,
          "midi": 69,
          "name": "A4",
          "ticks": 154020,
          "time": 381.553375,
          "velocity": 0.7874015748031497
        },
        {
          "duration": 0.1171875,
          "durationTicks": 60,
          "midi": 64,
          "name": "E4",
          "ticks": 154080,
          "time": 381.6705625,
          "velocity": 0.7874015748031497
        },
        {
          "duration": 0.1171875,
          "durationTicks": 60,
          "midi": 67,
          "name": "G4",
          "ticks": 154140,
          "time": 381.78775,
          "velocity": 0.7874015748031497
        },
        {
          "duration": 0.1171875,
          "durationTicks": 60,
          "midi": 66,
          "name": "F#4",
          "ticks": 154200,
          "time": 381.9049375,
          "velocity": 0.7874015748031497
        },
        {
          "duration": 0.1171875,
          "durationTicks": 60,
          "midi": 69,
          "name": "A4",
          "ticks": 154260,
          "time": 382.022125,
          "velocity": 0.7874015748031497
        },
        {
          "duration": 0.1171875,
          "durationTicks": 60,
          "midi": 62,
          "name": "D4",
          "ticks": 154320,
          "time": 382.1393125,
          "velocity": 0.7874015748031497
        },
        {
          "duration": 0.1171875,
          "durationTicks": 60,
          "midi": 64,
          "name": "E4",
          "ticks": 154380,
          "time": 382.2565,
          "velocity": 0.7874015748031497
        },
        {
          "duration": 0.1171875,
          "durationTicks": 60,
          "midi": 66,
          "name": "F#4",
          "ticks": 154440,
          "time": 382.3736875,
          "velocity": 0.7874015748031497
        },
        {
          "duration": 0.1171875,
          "durationTicks": 60,
          "midi": 62,
          "name": "D4",
          "ticks": 154500,
          "time": 382.490875,
          "velocity": 0.7874015748031497
        },
        {
          "duration": 0.1171875,
          "durationTicks": 60,
          "midi": 57,
          "name": "A3",
          "ticks": 154560,
          "time": 382.6080625,
          "velocity": 0.7874015748031497
        },
        {
          "duration": 0.1171875,
          "durationTicks": 60,
          "midi": 59,
          "name": "B3",
          "ticks": 154620,
          "time": 382.72525,
          "velocity": 0.7874015748031497
        },
        {
          "duration": 0.1171875,
          "durationTicks": 60,
          "midi": 60,
          "name": "C4",
          "ticks": 154680,
          "time": 382.8424375,
          "velocity": 0.7874015748031497
        },
        {
          "duration": 0.1171875,
          "durationTicks": 60,
          "midi": 57,
          "name": "A3",
          "ticks": 154740,
          "time": 382.959625,
          "velocity": 0.7874015748031497
        },
        {
          "duration": 0.1171875,
          "durationTicks": 60,
          "midi": 54,
          "name": "F#3",
          "ticks": 154800,
          "time": 383.0768125,
          "velocity": 0.7874015748031497
        },
        {
          "duration": 0.1171875,
          "durationTicks": 60,
          "midi": 57,
          "name": "A3",
          "ticks": 154860,
          "time": 383.194,
          "velocity": 0.7874015748031497
        },
        {
          "duration": 0.1171875,
          "durationTicks": 60,
          "midi": 59,
          "name": "B3",
          "ticks": 154920,
          "time": 383.3111875,
          "velocity": 0.7874015748031497
        },
        {
          "duration": 0.1171875,
          "durationTicks": 60,
          "midi": 62,
          "name": "D4",
          "ticks": 154980,
          "time": 383.428375,
          "velocity": 0.7874015748031497
        },
        {
          "duration": 0.1171875,
          "durationTicks": 60,
          "midi": 55,
          "name": "G3",
          "ticks": 155040,
          "time": 383.5455625,
          "velocity": 0.7874015748031497
        },
        {
          "duration": 0.1171875,
          "durationTicks": 60,
          "midi": 57,
          "name": "A3",
          "ticks": 155100,
          "time": 383.66275,
          "velocity": 0.7874015748031497
        },
        {
          "duration": 0.1171875,
          "durationTicks": 60,
          "midi": 59,
          "name": "B3",
          "ticks": 155160,
          "time": 383.7799375,
          "velocity": 0.7874015748031497
        },
        {
          "duration": 0.1171875,
          "durationTicks": 60,
          "midi": 55,
          "name": "G3",
          "ticks": 155220,
          "time": 383.897125,
          "velocity": 0.7874015748031497
        },
        {
          "duration": 0.1171875,
          "durationTicks": 60,
          "midi": 59,
          "name": "B3",
          "ticks": 155280,
          "time": 384.0143125,
          "velocity": 0.7874015748031497
        },
        {
          "duration": 0.1171875,
          "durationTicks": 60,
          "midi": 62,
          "name": "D4",
          "ticks": 155340,
          "time": 384.1315,
          "velocity": 0.7874015748031497
        },
        {
          "duration": 0.46875,
          "durationTicks": 240,
          "midi": 67,
          "name": "G4",
          "ticks": 155400,
          "time": 384.2486875,
          "velocity": 0.7874015748031497
        },
        {
          "duration": 0.75,
          "durationTicks": 480,
          "midi": 69,
          "name": "A4",
          "ticks": 167880,
          "time": 403.8893125,
          "velocity": 0.7874015748031497
        },
        {
          "duration": 0.09375,
          "durationTicks": 60,
          "midi": 71,
          "name": "B4",
          "ticks": 168360,
          "time": 404.6393125,
          "velocity": 0.7874015748031497
        },
        {
          "duration": 0.09375,
          "durationTicks": 60,
          "midi": 69,
          "name": "A4",
          "ticks": 168420,
          "time": 404.7330625,
          "velocity": 0.7874015748031497
        },
        {
          "duration": 0.09375,
          "durationTicks": 60,
          "midi": 71,
          "name": "B4",
          "ticks": 168480,
          "time": 404.8268125,
          "velocity": 0.7874015748031497
        },
        {
          "duration": 0.09375,
          "durationTicks": 60,
          "midi": 69,
          "name": "A4",
          "ticks": 168540,
          "time": 404.9205625,
          "velocity": 0.7874015748031497
        },
        {
          "duration": 0.09375,
          "durationTicks": 60,
          "midi": 71,
          "name": "B4",
          "ticks": 168600,
          "time": 405.0143125,
          "velocity": 0.7874015748031497
        },
        {
          "duration": 0.09375,
          "durationTicks": 60,
          "midi": 69,
          "name": "A4",
          "ticks": 168660,
          "time": 405.1080625,
          "velocity": 0.7874015748031497
        },
        {
          "duration": 0.09375,
          "durationTicks": 60,
          "midi": 67,
          "name": "G4",
          "ticks": 168720,
          "time": 405.2018125,
          "velocity": 0.7874015748031497
        },
        {
          "duration": 0.09375,
          "durationTicks": 60,
          "midi": 69,
          "name": "A4",
          "ticks": 168780,
          "time": 405.2955625,
          "velocity": 0.7874015748031497
        },
        {
          "duration": 0.375,
          "durationTicks": 240,
          "midi": 71,
          "name": "B4",
          "ticks": 168840,
          "time": 405.3893125,
          "velocity": 0.7874015748031497
        },
        {
          "duration": 0.375,
          "durationTicks": 240,
          "midi": 67,
          "name": "G4",
          "ticks": 169080,
          "time": 405.7643125,
          "velocity": 0.7874015748031497
        },
        {
          "duration": 0.375,
          "durationTicks": 240,
          "midi": 64,
          "name": "E4",
          "ticks": 169320,
          "time": 406.1393125,
          "velocity": 0.7874015748031497
        },
        {
          "duration": 0.375,
          "durationTicks": 240,
          "midi": 67,
          "name": "G4",
          "ticks": 169560,
          "time": 406.5143125,
          "velocity": 0.7874015748031497
        },
        {
          "duration": 0.375,
          "durationTicks": 240,
          "midi": 64,
          "name": "E4",
          "ticks": 169800,
          "time": 406.8893125,
          "velocity": 0.7874015748031497
        },
        {
          "duration": 0.375,
          "durationTicks": 240,
          "midi": 69,
          "name": "A4",
          "ticks": 170040,
          "time": 407.2643125,
          "velocity": 0.7874015748031497
        },
        {
          "duration": 0.375,
          "durationTicks": 240,
          "midi": 57,
          "name": "A3",
          "ticks": 170280,
          "time": 407.6393125,
          "velocity": 0.7874015748031497
        },
        {
          "duration": 0.375,
          "durationTicks": 240,
          "midi": 67,
          "name": "G4",
          "ticks": 170520,
          "time": 408.0143125,
          "velocity": 0.7874015748031497
        },
        {
          "duration": 0.0625,
          "durationTicks": 40,
          "midi": 67,
          "name": "G4",
          "ticks": 170760,
          "time": 408.3893125,
          "velocity": 0.7874015748031497
        },
        {
          "duration": 0.0625,
          "durationTicks": 40,
          "midi": 66,
          "name": "F#4",
          "ticks": 170800,
          "time": 408.4518125,
          "velocity": 0.7874015748031497
        },
        {
          "duration": 0.0625,
          "durationTicks": 40,
          "midi": 67,
          "name": "G4",
          "ticks": 170840,
          "time": 408.5143125,
          "velocity": 0.7874015748031497
        },
        {
          "duration": 0.1875,
          "durationTicks": 120,
          "midi": 66,
          "name": "F#4",
          "ticks": 170880,
          "time": 408.5768125,
          "velocity": 0.7874015748031497
        },
        {
          "duration": 0.1875,
          "durationTicks": 120,
          "midi": 64,
          "name": "E4",
          "ticks": 171000,
          "time": 408.7643125,
          "velocity": 0.7874015748031497
        },
        {
          "duration": 0.1875,
          "durationTicks": 120,
          "midi": 66,
          "name": "F#4",
          "ticks": 171120,
          "time": 408.9518125,
          "velocity": 0.7874015748031497
        },
        {
          "duration": 0.75,
          "durationTicks": 480,
          "midi": 62,
          "name": "D4",
          "ticks": 171240,
          "time": 409.1393125,
          "velocity": 0.7874015748031497
        },
        {
          "duration": 0.09375,
          "durationTicks": 60,
          "midi": 78,
          "name": "F#5",
          "ticks": 171720,
          "time": 409.8893125,
          "velocity": 0.7874015748031497
        },
        {
          "duration": 0.09375,
          "durationTicks": 60,
          "midi": 76,
          "name": "E5",
          "ticks": 171780,
          "time": 409.9830625,
          "velocity": 0.7874015748031497
        },
        {
          "duration": 0.5625,
          "durationTicks": 360,
          "midi": 78,
          "name": "F#5",
          "ticks": 171840,
          "time": 410.0768125,
          "velocity": 0.7874015748031497
        },
        {
          "duration": 0.09375,
          "durationTicks": 60,
          "midi": 79,
          "name": "G5",
          "ticks": 172200,
          "time": 410.6393125,
          "velocity": 0.7874015748031497
        },
        {
          "duration": 0.09375,
          "durationTicks": 60,
          "midi": 78,
          "name": "F#5",
          "ticks": 172260,
          "time": 410.7330625,
          "velocity": 0.7874015748031497
        },
        {
          "duration": 0.09375,
          "durationTicks": 60,
          "midi": 79,
          "name": "G5",
          "ticks": 172320,
          "time": 410.8268125,
          "velocity": 0.7874015748031497
        },
        {
          "duration": 0.09375,
          "durationTicks": 60,
          "midi": 78,
          "name": "F#5",
          "ticks": 172380,
          "time": 410.9205625,
          "velocity": 0.7874015748031497
        },
        {
          "duration": 0.09375,
          "durationTicks": 60,
          "midi": 79,
          "name": "G5",
          "ticks": 172440,
          "time": 411.0143125,
          "velocity": 0.7874015748031497
        },
        {
          "duration": 0.09375,
          "durationTicks": 60,
          "midi": 78,
          "name": "F#5",
          "ticks": 172500,
          "time": 411.1080625,
          "velocity": 0.7874015748031497
        },
        {
          "duration": 0.09375,
          "durationTicks": 60,
          "midi": 76,
          "name": "E5",
          "ticks": 172560,
          "time": 411.2018125,
          "velocity": 0.7874015748031497
        },
        {
          "duration": 0.09375,
          "durationTicks": 60,
          "midi": 78,
          "name": "F#5",
          "ticks": 172620,
          "time": 411.2955625,
          "velocity": 0.7874015748031497
        },
        {
          "duration": 0.375,
          "durationTicks": 240,
          "midi": 79,
          "name": "G5",
          "ticks": 172680,
          "time": 411.3893125,
          "velocity": 0.7874015748031497
        },
        {
          "duration": 0.375,
          "durationTicks": 240,
          "midi": 74,
          "name": "D5",
          "ticks": 172920,
          "time": 411.7643125,
          "velocity": 0.7874015748031497
        },
        {
          "duration": 0.375,
          "durationTicks": 240,
          "midi": 71,
          "name": "B4",
          "ticks": 173160,
          "time": 412.1393125,
          "velocity": 0.7874015748031497
        },
        {
          "duration": 0.375,
          "durationTicks": 240,
          "midi": 74,
          "name": "D5",
          "ticks": 173400,
          "time": 412.5143125,
          "velocity": 0.7874015748031497
        },
        {
          "duration": 0.375,
          "durationTicks": 240,
          "midi": 72,
          "name": "C5",
          "ticks": 173640,
          "time": 412.8893125,
          "velocity": 0.7874015748031497
        },
        {
          "duration": 0.375,
          "durationTicks": 240,
          "midi": 77,
          "name": "F5",
          "ticks": 173880,
          "time": 413.2643125,
          "velocity": 0.7874015748031497
        },
        {
          "duration": 0.375,
          "durationTicks": 240,
          "midi": 65,
          "name": "F4",
          "ticks": 174120,
          "time": 413.6393125,
          "velocity": 0.7874015748031497
        },
        {
          "duration": 0.375,
          "durationTicks": 240,
          "midi": 76,
          "name": "E5",
          "ticks": 174360,
          "time": 414.0143125,
          "velocity": 0.7874015748031497
        },
        {
          "duration": 0.0625,
          "durationTicks": 40,
          "midi": 76,
          "name": "E5",
          "ticks": 174600,
          "time": 414.3893125,
          "velocity": 0.7874015748031497
        },
        {
          "duration": 0.0625,
          "durationTicks": 40,
          "midi": 75,
          "name": "D#5",
          "ticks": 174640,
          "time": 414.4518125,
          "velocity": 0.7874015748031497
        },
        {
          "duration": 0.0625,
          "durationTicks": 40,
          "midi": 76,
          "name": "E5",
          "ticks": 174680,
          "time": 414.5143125,
          "velocity": 0.7874015748031497
        },
        {
          "duration": 0.1875,
          "durationTicks": 120,
          "midi": 75,
          "name": "D#5",
          "ticks": 174720,
          "time": 414.5768125,
          "velocity": 0.7874015748031497
        },
        {
          "duration": 0.1875,
          "durationTicks": 120,
          "midi": 73,
          "name": "C#5",
          "ticks": 174840,
          "time": 414.7643125,
          "velocity": 0.7874015748031497
        },
        {
          "duration": 0.1875,
          "durationTicks": 120,
          "midi": 75,
          "name": "D#5",
          "ticks": 174960,
          "time": 414.9518125,
          "velocity": 0.7874015748031497
        },
        {
          "duration": 0.1875,
          "durationTicks": 120,
          "midi": 71,
          "name": "B4",
          "ticks": 175080,
          "time": 415.1393125,
          "velocity": 0.7874015748031497
        },
        {
          "duration": 0.1875,
          "durationTicks": 120,
          "midi": 73,
          "name": "C#5",
          "ticks": 175200,
          "time": 415.3268125,
          "velocity": 0.7874015748031497
        },
        {
          "duration": 0.1875,
          "durationTicks": 120,
          "midi": 75,
          "name": "D#5",
          "ticks": 175320,
          "time": 415.5143125,
          "velocity": 0.7874015748031497
        },
        {
          "duration": 0.1875,
          "durationTicks": 120,
          "midi": 71,
          "name": "B4",
          "ticks": 175440,
          "time": 415.7018125,
          "velocity": 0.7874015748031497
        },
        {
          "duration": 0.375,
          "durationTicks": 240,
          "midi": 76,
          "name": "E5",
          "ticks": 175560,
          "time": 415.8893125,
          "velocity": 0.7874015748031497
        },
        {
          "duration": 0.375,
          "durationTicks": 240,
          "midi": 64,
          "name": "E4",
          "ticks": 175800,
          "time": 416.2643125,
          "velocity": 0.7874015748031497
        },
        {
          "duration": 1.125,
          "durationTicks": 720,
          "midi": 76,
          "name": "E5",
          "ticks": 176040,
          "time": 416.6393125,
          "velocity": 0.7874015748031497
        },
        {
          "duration": 0.375,
          "durationTicks": 240,
          "midi": 64,
          "name": "E4",
          "ticks": 176760,
          "time": 417.7643125,
          "velocity": 0.7874015748031497
        },
        {
          "duration": 1.5,
          "durationTicks": 960,
          "midi": 76,
          "name": "E5",
          "ticks": 177000,
          "time": 418.1393125,
          "velocity": 0.7874015748031497
        },
        {
          "duration": 0.75,
          "durationTicks": 480,
          "midi": 75,
          "name": "D#5",
          "ticks": 177960,
          "time": 419.6393125,
          "velocity": 0.7874015748031497
        },
        {
          "duration": 0.9375,
          "durationTicks": 600,
          "midi": 76,
          "name": "E5",
          "ticks": 178440,
          "time": 420.3893125,
          "velocity": 0.7874015748031497
        },
        {
          "duration": 0.1875,
          "durationTicks": 120,
          "midi": 74,
          "name": "D5",
          "ticks": 179040,
          "time": 421.3268125,
          "velocity": 0.7874015748031497
        },
        {
          "duration": 0.1875,
          "durationTicks": 120,
          "midi": 73,
          "name": "C#5",
          "ticks": 179160,
          "time": 421.5143125,
          "velocity": 0.7874015748031497
        },
        {
          "duration": 0.1875,
          "durationTicks": 120,
          "midi": 71,
          "name": "B4",
          "ticks": 179280,
          "time": 421.7018125,
          "velocity": 0.7874015748031497
        },
        {
          "duration": 0.375,
          "durationTicks": 240,
          "midi": 69,
          "name": "A4",
          "ticks": 179400,
          "time": 421.8893125,
          "velocity": 0.7874015748031497
        },
        {
          "duration": 0.75,
          "durationTicks": 480,
          "midi": 79,
          "name": "G5",
          "ticks": 179640,
          "time": 422.2643125,
          "velocity": 0.7874015748031497
        },
        {
          "duration": 0.1875,
          "durationTicks": 120,
          "midi": 77,
          "name": "F5",
          "ticks": 180120,
          "time": 423.0143125,
          "velocity": 0.7874015748031497
        },
        {
          "duration": 0.1875,
          "durationTicks": 120,
          "midi": 76,
          "name": "E5",
          "ticks": 180240,
          "time": 423.2018125,
          "velocity": 0.7874015748031497
        },
        {
          "duration": 1.125,
          "durationTicks": 720,
          "midi": 77,
          "name": "F5",
          "ticks": 180360,
          "time": 423.3893125,
          "velocity": 0.7874015748031497
        },
        {
          "duration": 0.1875,
          "durationTicks": 120,
          "midi": 76,
          "name": "E5",
          "ticks": 181080,
          "time": 424.5143125,
          "velocity": 0.7874015748031497
        },
        {
          "duration": 0.1875,
          "durationTicks": 120,
          "midi": 74,
          "name": "D5",
          "ticks": 181200,
          "time": 424.7018125,
          "velocity": 0.7874015748031497
        },
        {
          "duration": 1.125,
          "durationTicks": 720,
          "midi": 76,
          "name": "E5",
          "ticks": 181320,
          "time": 424.8893125,
          "velocity": 0.7874015748031497
        },
        {
          "duration": 0.1875,
          "durationTicks": 120,
          "midi": 78,
          "name": "F#5",
          "ticks": 182040,
          "time": 426.0143125,
          "velocity": 0.7874015748031497
        },
        {
          "duration": 0.1875,
          "durationTicks": 120,
          "midi": 79,
          "name": "G5",
          "ticks": 182160,
          "time": 426.2018125,
          "velocity": 0.7874015748031497
        },
        {
          "duration": 0.1875,
          "durationTicks": 120,
          "midi": 81,
          "name": "A5",
          "ticks": 182280,
          "time": 426.3893125,
          "velocity": 0.7874015748031497
        },
        {
          "duration": 0.1875,
          "durationTicks": 120,
          "midi": 83,
          "name": "B5",
          "ticks": 182400,
          "time": 426.5768125,
          "velocity": 0.7874015748031497
        },
        {
          "duration": 0.1875,
          "durationTicks": 120,
          "midi": 79,
          "name": "G5",
          "ticks": 182520,
          "time": 426.7643125,
          "velocity": 0.7874015748031497
        },
        {
          "duration": 0.1875,
          "durationTicks": 120,
          "midi": 81,
          "name": "A5",
          "ticks": 182640,
          "time": 426.9518125,
          "velocity": 0.7874015748031497
        },
        {
          "duration": 0.375,
          "durationTicks": 240,
          "midi": 78,
          "name": "F#5",
          "ticks": 182760,
          "time": 427.1393125,
          "velocity": 0.7874015748031497
        },
        {
          "duration": 0.75,
          "durationTicks": 480,
          "midi": 81,
          "name": "A5",
          "ticks": 183000,
          "time": 427.5143125,
          "velocity": 0.7874015748031497
        },
        {
          "duration": 0.1875,
          "durationTicks": 120,
          "midi": 79,
          "name": "G5",
          "ticks": 183480,
          "time": 428.2643125,
          "velocity": 0.7874015748031497
        },
        {
          "duration": 0.1875,
          "durationTicks": 120,
          "midi": 78,
          "name": "F#5",
          "ticks": 183600,
          "time": 428.4518125,
          "velocity": 0.7874015748031497
        },
        {
          "duration": 0.375,
          "durationTicks": 240,
          "midi": 79,
          "name": "G5",
          "ticks": 183720,
          "time": 428.6393125,
          "velocity": 0.7874015748031497
        },
        {
          "duration": 0.75,
          "durationTicks": 480,
          "midi": 71,
          "name": "B4",
          "ticks": 183960,
          "time": 429.0143125,
          "velocity": 0.7874015748031497
        },
        {
          "duration": 0.1875,
          "durationTicks": 120,
          "midi": 69,
          "name": "A4",
          "ticks": 184440,
          "time": 429.7643125,
          "velocity": 0.7874015748031497
        },
        {
          "duration": 0.1875,
          "durationTicks": 120,
          "midi": 71,
          "name": "B4",
          "ticks": 184560,
          "time": 429.9518125,
          "velocity": 0.7874015748031497
        },
        {
          "duration": 1.125,
          "durationTicks": 720,
          "midi": 72,
          "name": "C5",
          "ticks": 184680,
          "time": 430.1393125,
          "velocity": 0.7874015748031497
        },
        {
          "duration": 0.375,
          "durationTicks": 240,
          "midi": 71,
          "name": "B4",
          "ticks": 185400,
          "time": 431.2643125,
          "velocity": 0.7874015748031497
        },
        {
          "duration": 0.75,
          "durationTicks": 480,
          "midi": 69,
          "name": "A4",
          "ticks": 185640,
          "time": 431.6393125,
          "velocity": 0.7874015748031497
        },
        {
          "duration": 1.5,
          "durationTicks": 960,
          "midi": 67,
          "name": "G4",
          "ticks": 186120,
          "time": 432.3893125,
          "velocity": 0.7874015748031497
        },
        {
          "duration": 0.125,
          "durationTicks": 80,
          "midi": 71,
          "name": "B4",
          "ticks": 188040,
          "time": 435.3893125,
          "velocity": 0.7874015748031497
        },
        {
          "duration": 0.125,
          "durationTicks": 80,
          "midi": 69,
          "name": "A4",
          "ticks": 188120,
          "time": 435.5143125,
          "velocity": 0.7874015748031497
        },
        {
          "duration": 0.125,
          "durationTicks": 80,
          "midi": 67,
          "name": "G4",
          "ticks": 188200,
          "time": 435.6393125,
          "velocity": 0.7874015748031497
        },
        {
          "duration": 0.125,
          "durationTicks": 80,
          "midi": 66,
          "name": "F#4",
          "ticks": 188280,
          "time": 435.7643125,
          "velocity": 0.7874015748031497
        },
        {
          "duration": 0.125,
          "durationTicks": 80,
          "midi": 64,
          "name": "E4",
          "ticks": 188360,
          "time": 435.8893125,
          "velocity": 0.7874015748031497
        },
        {
          "duration": 0.125,
          "durationTicks": 80,
          "midi": 62,
          "name": "D4",
          "ticks": 188440,
          "time": 436.0143125,
          "velocity": 0.7874015748031497
        },
        {
          "duration": 0.625,
          "durationTicks": 400,
          "midi": 61,
          "name": "C#4",
          "ticks": 188520,
          "time": 436.1393125,
          "velocity": 0.7874015748031497
        },
        {
          "duration": 0.125,
          "durationTicks": 80,
          "midi": 64,
          "name": "E4",
          "ticks": 188920,
          "time": 436.7643125,
          "velocity": 0.7874015748031497
        },
        {
          "duration": 0.125,
          "durationTicks": 80,
          "midi": 69,
          "name": "A4",
          "ticks": 189000,
          "time": 436.8893125,
          "velocity": 0.7874015748031497
        },
        {
          "duration": 0.125,
          "durationTicks": 80,
          "midi": 67,
          "name": "G4",
          "ticks": 189080,
          "time": 437.0143125,
          "velocity": 0.7874015748031497
        },
        {
          "duration": 0.125,
          "durationTicks": 80,
          "midi": 66,
          "name": "F#4",
          "ticks": 189160,
          "time": 437.1393125,
          "velocity": 0.7874015748031497
        },
        {
          "duration": 0.125,
          "durationTicks": 80,
          "midi": 64,
          "name": "E4",
          "ticks": 189240,
          "time": 437.2643125,
          "velocity": 0.7874015748031497
        },
        {
          "duration": 0.125,
          "durationTicks": 80,
          "midi": 62,
          "name": "D4",
          "ticks": 189320,
          "time": 437.3893125,
          "velocity": 0.7874015748031497
        },
        {
          "duration": 0.125,
          "durationTicks": 80,
          "midi": 61,
          "name": "C#4",
          "ticks": 189400,
          "time": 437.5143125,
          "velocity": 0.7874015748031497
        },
        {
          "duration": 0.625,
          "durationTicks": 400,
          "midi": 59,
          "name": "B3",
          "ticks": 189480,
          "time": 437.6393125,
          "velocity": 0.7874015748031497
        },
        {
          "duration": 0.125,
          "durationTicks": 80,
          "midi": 69,
          "name": "A4",
          "ticks": 189880,
          "time": 438.2643125,
          "velocity": 0.7874015748031497
        },
        {
          "duration": 0.125,
          "durationTicks": 80,
          "midi": 67,
          "name": "G4",
          "ticks": 189960,
          "time": 438.3893125,
          "velocity": 0.7874015748031497
        },
        {
          "duration": 0.125,
          "durationTicks": 80,
          "midi": 66,
          "name": "F#4",
          "ticks": 190040,
          "time": 438.5143125,
          "velocity": 0.7874015748031497
        },
        {
          "duration": 0.125,
          "durationTicks": 80,
          "midi": 64,
          "name": "E4",
          "ticks": 190120,
          "time": 438.6393125,
          "velocity": 0.7874015748031497
        },
        {
          "duration": 0.125,
          "durationTicks": 80,
          "midi": 62,
          "name": "D4",
          "ticks": 190200,
          "time": 438.7643125,
          "velocity": 0.7874015748031497
        },
        {
          "duration": 0.125,
          "durationTicks": 80,
          "midi": 61,
          "name": "C#4",
          "ticks": 190280,
          "time": 438.8893125,
          "velocity": 0.7874015748031497
        },
        {
          "duration": 0.125,
          "durationTicks": 80,
          "midi": 59,
          "name": "B3",
          "ticks": 190360,
          "time": 439.0143125,
          "velocity": 0.7874015748031497
        },
        {
          "duration": 0.25,
          "durationTicks": 160,
          "midi": 57,
          "name": "A3",
          "ticks": 190440,
          "time": 439.1393125,
          "velocity": 0.7874015748031497
        },
        {
          "duration": 0.125,
          "durationTicks": 80,
          "midi": 61,
          "name": "C#4",
          "ticks": 190600,
          "time": 439.3893125,
          "velocity": 0.7874015748031497
        },
        {
          "duration": 0.25,
          "durationTicks": 160,
          "midi": 64,
          "name": "E4",
          "ticks": 190680,
          "time": 439.5143125,
          "velocity": 0.7874015748031497
        },
        {
          "duration": 0.125,
          "durationTicks": 80,
          "midi": 67,
          "name": "G4",
          "ticks": 190840,
          "time": 439.7643125,
          "velocity": 0.7874015748031497
        },
        {
          "duration": 0.125,
          "durationTicks": 80,
          "midi": 66,
          "name": "F#4",
          "ticks": 190920,
          "time": 439.8893125,
          "velocity": 0.7874015748031497
        },
        {
          "duration": 0.125,
          "durationTicks": 80,
          "midi": 64,
          "name": "E4",
          "ticks": 191000,
          "time": 440.0143125,
          "velocity": 0.7874015748031497
        },
        {
          "duration": 0.125,
          "durationTicks": 80,
          "midi": 62,
          "name": "D4",
          "ticks": 191080,
          "time": 440.1393125,
          "velocity": 0.7874015748031497
        },
        {
          "duration": 0.125,
          "durationTicks": 80,
          "midi": 61,
          "name": "C#4",
          "ticks": 191160,
          "time": 440.2643125,
          "velocity": 0.7874015748031497
        },
        {
          "duration": 0.125,
          "durationTicks": 80,
          "midi": 59,
          "name": "B3",
          "ticks": 191240,
          "time": 440.3893125,
          "velocity": 0.7874015748031497
        },
        {
          "duration": 0.125,
          "durationTicks": 80,
          "midi": 57,
          "name": "A3",
          "ticks": 191320,
          "time": 440.5143125,
          "velocity": 0.7874015748031497
        },
        {
          "duration": 0.125,
          "durationTicks": 80,
          "midi": 55,
          "name": "G3",
          "ticks": 191400,
          "time": 440.6393125,
          "velocity": 0.7874015748031497
        },
        {
          "duration": 0.125,
          "durationTicks": 80,
          "midi": 54,
          "name": "F#3",
          "ticks": 191480,
          "time": 440.7643125,
          "velocity": 0.7874015748031497
        },
        {
          "duration": 0.125,
          "durationTicks": 80,
          "midi": 52,
          "name": "E3",
          "ticks": 191560,
          "time": 440.8893125,
          "velocity": 0.7874015748031497
        },
        {
          "duration": 0.125,
          "durationTicks": 80,
          "midi": 50,
          "name": "D3",
          "ticks": 191640,
          "time": 441.0143125,
          "velocity": 0.7874015748031497
        },
        {
          "duration": 0.125,
          "durationTicks": 80,
          "midi": 52,
          "name": "E3",
          "ticks": 191720,
          "time": 441.1393125,
          "velocity": 0.7874015748031497
        },
        {
          "duration": 0.125,
          "durationTicks": 80,
          "midi": 48,
          "name": "C3",
          "ticks": 191800,
          "time": 441.2643125,
          "velocity": 0.7874015748031497
        },
        {
          "duration": 0.125,
          "durationTicks": 80,
          "midi": 47,
          "name": "B2",
          "ticks": 191880,
          "time": 441.3893125,
          "velocity": 0.7874015748031497
        },
        {
          "duration": 0.125,
          "durationTicks": 80,
          "midi": 50,
          "name": "D3",
          "ticks": 191960,
          "time": 441.5143125,
          "velocity": 0.7874015748031497
        },
        {
          "duration": 0.125,
          "durationTicks": 80,
          "midi": 55,
          "name": "G3",
          "ticks": 192040,
          "time": 441.6393125,
          "velocity": 0.7874015748031497
        },
        {
          "duration": 0.125,
          "durationTicks": 80,
          "midi": 59,
          "name": "B3",
          "ticks": 192120,
          "time": 441.7643125,
          "velocity": 0.7874015748031497
        },
        {
          "duration": 0.125,
          "durationTicks": 80,
          "midi": 62,
          "name": "D4",
          "ticks": 192200,
          "time": 441.8893125,
          "velocity": 0.7874015748031497
        },
        {
          "duration": 0.125,
          "durationTicks": 80,
          "midi": 67,
          "name": "G4",
          "ticks": 192280,
          "time": 442.0143125,
          "velocity": 0.7874015748031497
        },
        {
          "duration": 0.125,
          "durationTicks": 80,
          "midi": 62,
          "name": "D4",
          "ticks": 192360,
          "time": 442.1393125,
          "velocity": 0.7874015748031497
        },
        {
          "duration": 0.125,
          "durationTicks": 80,
          "midi": 59,
          "name": "B3",
          "ticks": 192440,
          "time": 442.2643125,
          "velocity": 0.7874015748031497
        },
        {
          "duration": 0.125,
          "durationTicks": 80,
          "midi": 55,
          "name": "G3",
          "ticks": 192520,
          "time": 442.3893125,
          "velocity": 0.7874015748031497
        },
        {
          "duration": 0.125,
          "durationTicks": 80,
          "midi": 53,
          "name": "F3",
          "ticks": 192600,
          "time": 442.5143125,
          "velocity": 0.7874015748031497
        },
        {
          "duration": 0.125,
          "durationTicks": 80,
          "midi": 52,
          "name": "E3",
          "ticks": 192680,
          "time": 442.6393125,
          "velocity": 0.7874015748031497
        },
        {
          "duration": 0.125,
          "durationTicks": 80,
          "midi": 50,
          "name": "D3",
          "ticks": 192760,
          "time": 442.7643125,
          "velocity": 0.7874015748031497
        },
        {
          "duration": 0.125,
          "durationTicks": 80,
          "midi": 49,
          "name": "C#3",
          "ticks": 192840,
          "time": 442.8893125,
          "velocity": 0.7874015748031497
        },
        {
          "duration": 0.125,
          "durationTicks": 80,
          "midi": 52,
          "name": "E3",
          "ticks": 192920,
          "time": 443.0143125,
          "velocity": 0.7874015748031497
        },
        {
          "duration": 0.125,
          "durationTicks": 80,
          "midi": 55,
          "name": "G3",
          "ticks": 193000,
          "time": 443.1393125,
          "velocity": 0.7874015748031497
        },
        {
          "duration": 0.125,
          "durationTicks": 80,
          "midi": 58,
          "name": "A#3",
          "ticks": 193080,
          "time": 443.2643125,
          "velocity": 0.7874015748031497
        },
        {
          "duration": 0.125,
          "durationTicks": 80,
          "midi": 64,
          "name": "E4",
          "ticks": 193160,
          "time": 443.3893125,
          "velocity": 0.7874015748031497
        },
        {
          "duration": 0.125,
          "durationTicks": 80,
          "midi": 67,
          "name": "G4",
          "ticks": 193240,
          "time": 443.5143125,
          "velocity": 0.7874015748031497
        },
        {
          "duration": 0.125,
          "durationTicks": 80,
          "midi": 64,
          "name": "E4",
          "ticks": 193320,
          "time": 443.6393125,
          "velocity": 0.7874015748031497
        },
        {
          "duration": 0.125,
          "durationTicks": 80,
          "midi": 58,
          "name": "A#3",
          "ticks": 193400,
          "time": 443.7643125,
          "velocity": 0.7874015748031497
        },
        {
          "duration": 0.125,
          "durationTicks": 80,
          "midi": 57,
          "name": "A3",
          "ticks": 193480,
          "time": 443.8893125,
          "velocity": 0.7874015748031497
        },
        {
          "duration": 0.125,
          "durationTicks": 80,
          "midi": 55,
          "name": "G3",
          "ticks": 193560,
          "time": 444.0143125,
          "velocity": 0.7874015748031497
        },
        {
          "duration": 0.125,
          "durationTicks": 80,
          "midi": 54,
          "name": "F#3",
          "ticks": 193640,
          "time": 444.1393125,
          "velocity": 0.7874015748031497
        },
        {
          "duration": 0.125,
          "durationTicks": 80,
          "midi": 52,
          "name": "E3",
          "ticks": 193720,
          "time": 444.2643125,
          "velocity": 0.7874015748031497
        },
        {
          "duration": 0.125,
          "durationTicks": 80,
          "midi": 50,
          "name": "D3",
          "ticks": 193800,
          "time": 444.3893125,
          "velocity": 0.7874015748031497
        },
        {
          "duration": 0.125,
          "durationTicks": 80,
          "midi": 55,
          "name": "G3",
          "ticks": 193880,
          "time": 444.5143125,
          "velocity": 0.7874015748031497
        },
        {
          "duration": 0.125,
          "durationTicks": 80,
          "midi": 59,
          "name": "B3",
          "ticks": 193960,
          "time": 444.6393125,
          "velocity": 0.7874015748031497
        },
        {
          "duration": 0.125,
          "durationTicks": 80,
          "midi": 62,
          "name": "D4",
          "ticks": 194040,
          "time": 444.7643125,
          "velocity": 0.7874015748031497
        },
        {
          "duration": 0.125,
          "durationTicks": 80,
          "midi": 67,
          "name": "G4",
          "ticks": 194120,
          "time": 444.8893125,
          "velocity": 0.7874015748031497
        },
        {
          "duration": 0.125,
          "durationTicks": 80,
          "midi": 71,
          "name": "B4",
          "ticks": 194200,
          "time": 445.0143125,
          "velocity": 0.7874015748031497
        },
        {
          "duration": 0.125,
          "durationTicks": 80,
          "midi": 69,
          "name": "A4",
          "ticks": 194280,
          "time": 445.1393125,
          "velocity": 0.7874015748031497
        },
        {
          "duration": 0.125,
          "durationTicks": 80,
          "midi": 66,
          "name": "F#4",
          "ticks": 194360,
          "time": 445.2643125,
          "velocity": 0.7874015748031497
        },
        {
          "duration": 0.125,
          "durationTicks": 80,
          "midi": 62,
          "name": "D4",
          "ticks": 194440,
          "time": 445.3893125,
          "velocity": 0.7874015748031497
        },
        {
          "duration": 0.125,
          "durationTicks": 80,
          "midi": 60,
          "name": "C4",
          "ticks": 194520,
          "time": 445.5143125,
          "velocity": 0.7874015748031497
        },
        {
          "duration": 0.125,
          "durationTicks": 80,
          "midi": 59,
          "name": "B3",
          "ticks": 194600,
          "time": 445.6393125,
          "velocity": 0.7874015748031497
        },
        {
          "duration": 0.125,
          "durationTicks": 80,
          "midi": 57,
          "name": "A3",
          "ticks": 194680,
          "time": 445.7643125,
          "velocity": 0.7874015748031497
        },
        {
          "duration": 0.125,
          "durationTicks": 80,
          "midi": 55,
          "name": "G3",
          "ticks": 194760,
          "time": 445.8893125,
          "velocity": 0.7874015748031497
        },
        {
          "duration": 0.125,
          "durationTicks": 80,
          "midi": 59,
          "name": "B3",
          "ticks": 194840,
          "time": 446.0143125,
          "velocity": 0.7874015748031497
        },
        {
          "duration": 0.125,
          "durationTicks": 80,
          "midi": 62,
          "name": "D4",
          "ticks": 194920,
          "time": 446.1393125,
          "velocity": 0.7874015748031497
        },
        {
          "duration": 0.125,
          "durationTicks": 80,
          "midi": 67,
          "name": "G4",
          "ticks": 195000,
          "time": 446.2643125,
          "velocity": 0.7874015748031497
        },
        {
          "duration": 0.125,
          "durationTicks": 80,
          "midi": 71,
          "name": "B4",
          "ticks": 195080,
          "time": 446.3893125,
          "velocity": 0.7874015748031497
        },
        {
          "duration": 0.125,
          "durationTicks": 80,
          "midi": 74,
          "name": "D5",
          "ticks": 195160,
          "time": 446.5143125,
          "velocity": 0.7874015748031497
        },
        {
          "duration": 0.25,
          "durationTicks": 160,
          "midi": 79,
          "name": "G5",
          "ticks": 195240,
          "time": 446.6393125,
          "velocity": 0.7874015748031497
        },
        {
          "duration": 0.125,
          "durationTicks": 80,
          "midi": 74,
          "name": "D5",
          "ticks": 195400,
          "time": 446.8893125,
          "velocity": 0.7874015748031497
        },
        {
          "duration": 0.25,
          "durationTicks": 160,
          "midi": 71,
          "name": "B4",
          "ticks": 195480,
          "time": 447.0143125,
          "velocity": 0.7874015748031497
        },
        {
          "duration": 0.125,
          "durationTicks": 80,
          "midi": 66,
          "name": "F#4",
          "ticks": 195640,
          "time": 447.2643125,
          "velocity": 0.7874015748031497
        },
        {
          "duration": 0.625,
          "durationTicks": 400,
          "midi": 67,
          "name": "G4",
          "ticks": 195720,
          "time": 447.3893125,
          "velocity": 0.7874015748031497
        },
        {
          "duration": 0.125,
          "durationTicks": 80,
          "midi": 71,
          "name": "B4",
          "ticks": 196120,
          "time": 448.0143125,
          "velocity": 0.7874015748031497
        },
        {
          "duration": 0.125,
          "durationTicks": 80,
          "midi": 76,
          "name": "E5",
          "ticks": 196200,
          "time": 448.1393125,
          "velocity": 0.7874015748031497
        },
        {
          "duration": 0.125,
          "durationTicks": 80,
          "midi": 74,
          "name": "D5",
          "ticks": 196280,
          "time": 448.2643125,
          "velocity": 0.7874015748031497
        },
        {
          "duration": 0.125,
          "durationTicks": 80,
          "midi": 73,
          "name": "C#5",
          "ticks": 196360,
          "time": 448.3893125,
          "velocity": 0.7874015748031497
        },
        {
          "duration": 0.125,
          "durationTicks": 80,
          "midi": 71,
          "name": "B4",
          "ticks": 196440,
          "time": 448.5143125,
          "velocity": 0.7874015748031497
        },
        {
          "duration": 0.125,
          "durationTicks": 80,
          "midi": 69,
          "name": "A4",
          "ticks": 196520,
          "time": 448.6393125,
          "velocity": 0.7874015748031497
        },
        {
          "duration": 0.125,
          "durationTicks": 80,
          "midi": 67,
          "name": "G4",
          "ticks": 196600,
          "time": 448.7643125,
          "velocity": 0.7874015748031497
        },
        {
          "duration": 0.625,
          "durationTicks": 400,
          "midi": 66,
          "name": "F#4",
          "ticks": 196680,
          "time": 448.8893125,
          "velocity": 0.7874015748031497
        },
        {
          "duration": 0.125,
          "durationTicks": 80,
          "midi": 76,
          "name": "E5",
          "ticks": 197080,
          "time": 449.5143125,
          "velocity": 0.7874015748031497
        },
        {
          "duration": 0.125,
          "durationTicks": 80,
          "midi": 74,
          "name": "D5",
          "ticks": 197160,
          "time": 449.6393125,
          "velocity": 0.7874015748031497
        },
        {
          "duration": 0.125,
          "durationTicks": 80,
          "midi": 73,
          "name": "C#5",
          "ticks": 197240,
          "time": 449.7643125,
          "velocity": 0.7874015748031497
        },
        {
          "duration": 0.125,
          "durationTicks": 80,
          "midi": 71,
          "name": "B4",
          "ticks": 197320,
          "time": 449.8893125,
          "velocity": 0.7874015748031497
        },
        {
          "duration": 0.125,
          "durationTicks": 80,
          "midi": 69,
          "name": "A4",
          "ticks": 197400,
          "time": 450.0143125,
          "velocity": 0.7874015748031497
        },
        {
          "duration": 0.125,
          "durationTicks": 80,
          "midi": 67,
          "name": "G4",
          "ticks": 197480,
          "time": 450.1393125,
          "velocity": 0.7874015748031497
        },
        {
          "duration": 0.125,
          "durationTicks": 80,
          "midi": 66,
          "name": "F#4",
          "ticks": 197560,
          "time": 450.2643125,
          "velocity": 0.7874015748031497
        },
        {
          "duration": 0.5,
          "durationTicks": 320,
          "midi": 64,
          "name": "E4",
          "ticks": 197640,
          "time": 450.3893125,
          "velocity": 0.7874015748031497
        },
        {
          "duration": 0.125,
          "durationTicks": 80,
          "midi": 66,
          "name": "F#4",
          "ticks": 197960,
          "time": 450.8893125,
          "velocity": 0.7874015748031497
        },
        {
          "duration": 0.125,
          "durationTicks": 80,
          "midi": 67,
          "name": "G4",
          "ticks": 198040,
          "time": 451.0143125,
          "velocity": 0.7874015748031497
        },
        {
          "duration": 0.125,
          "durationTicks": 80,
          "midi": 61,
          "name": "C#4",
          "ticks": 198120,
          "time": 451.1393125,
          "velocity": 0.7874015748031497
        },
        {
          "duration": 0.125,
          "durationTicks": 80,
          "midi": 71,
          "name": "B4",
          "ticks": 198200,
          "time": 451.2643125,
          "velocity": 0.7874015748031497
        },
        {
          "duration": 0.125,
          "durationTicks": 80,
          "midi": 69,
          "name": "A4",
          "ticks": 198280,
          "time": 451.3893125,
          "velocity": 0.7874015748031497
        },
        {
          "duration": 0.125,
          "durationTicks": 80,
          "midi": 67,
          "name": "G4",
          "ticks": 198360,
          "time": 451.5143125,
          "velocity": 0.7874015748031497
        },
        {
          "duration": 0.125,
          "durationTicks": 80,
          "midi": 69,
          "name": "A4",
          "ticks": 198440,
          "time": 451.6393125,
          "velocity": 0.7874015748031497
        },
        {
          "duration": 0.125,
          "durationTicks": 80,
          "midi": 71,
          "name": "B4",
          "ticks": 198520,
          "time": 451.7643125,
          "velocity": 0.7874015748031497
        },
        {
          "duration": 0.125,
          "durationTicks": 80,
          "midi": 64,
          "name": "E4",
          "ticks": 198600,
          "time": 451.8893125,
          "velocity": 0.7874015748031497
        },
        {
          "duration": 0.125,
          "durationTicks": 80,
          "midi": 74,
          "name": "D5",
          "ticks": 198680,
          "time": 452.0143125,
          "velocity": 0.7874015748031497
        },
        {
          "duration": 0.125,
          "durationTicks": 80,
          "midi": 73,
          "name": "C#5",
          "ticks": 198760,
          "time": 452.1393125,
          "velocity": 0.7874015748031497
        },
        {
          "duration": 0.125,
          "durationTicks": 80,
          "midi": 71,
          "name": "B4",
          "ticks": 198840,
          "time": 452.2643125,
          "velocity": 0.7874015748031497
        },
        {
          "duration": 0.125,
          "durationTicks": 80,
          "midi": 73,
          "name": "C#5",
          "ticks": 198920,
          "time": 452.3893125,
          "velocity": 0.7874015748031497
        },
        {
          "duration": 0.125,
          "durationTicks": 80,
          "midi": 74,
          "name": "D5",
          "ticks": 199000,
          "time": 452.5143125,
          "velocity": 0.7874015748031497
        },
        {
          "duration": 0.125,
          "durationTicks": 80,
          "midi": 73,
          "name": "C#5",
          "ticks": 199080,
          "time": 452.6393125,
          "velocity": 0.7874015748031497
        },
        {
          "duration": 0.125,
          "durationTicks": 80,
          "midi": 76,
          "name": "E5",
          "ticks": 199160,
          "time": 452.7643125,
          "velocity": 0.7874015748031497
        },
        {
          "duration": 0.125,
          "durationTicks": 80,
          "midi": 78,
          "name": "F#5",
          "ticks": 199240,
          "time": 452.8893125,
          "velocity": 0.7874015748031497
        },
        {
          "duration": 0.125,
          "durationTicks": 80,
          "midi": 79,
          "name": "G5",
          "ticks": 199320,
          "time": 453.0143125,
          "velocity": 0.7874015748031497
        },
        {
          "duration": 0.125,
          "durationTicks": 80,
          "midi": 78,
          "name": "F#5",
          "ticks": 199400,
          "time": 453.1393125,
          "velocity": 0.7874015748031497
        },
        {
          "duration": 0.125,
          "durationTicks": 80,
          "midi": 76,
          "name": "E5",
          "ticks": 199480,
          "time": 453.2643125,
          "velocity": 0.7874015748031497
        },
        {
          "duration": 0.09375,
          "durationTicks": 60,
          "midi": 74,
          "name": "D5",
          "ticks": 199560,
          "time": 453.3893125,
          "velocity": 0.7874015748031497
        },
        {
          "duration": 0.09375,
          "durationTicks": 60,
          "midi": 76,
          "name": "E5",
          "ticks": 199620,
          "time": 453.4830625,
          "velocity": 0.7874015748031497
        },
        {
          "duration": 0.09375,
          "durationTicks": 60,
          "midi": 74,
          "name": "D5",
          "ticks": 199680,
          "time": 453.5768125,
          "velocity": 0.7874015748031497
        },
        {
          "duration": 0.09375,
          "durationTicks": 60,
          "midi": 76,
          "name": "E5",
          "ticks": 199740,
          "time": 453.6705625,
          "velocity": 0.7874015748031497
        },
        {
          "duration": 0.5,
          "durationTicks": 320,
          "midi": 74,
          "name": "D5",
          "ticks": 199800,
          "time": 453.7643125,
          "velocity": 0.7874015748031497
        },
        {
          "duration": 0.125,
          "durationTicks": 80,
          "midi": 66,
          "name": "F#4",
          "ticks": 200200,
          "time": 454.3893125,
          "velocity": 0.7874015748031497
        },
        {
          "duration": 0.125,
          "durationTicks": 80,
          "midi": 69,
          "name": "A4",
          "ticks": 200280,
          "time": 454.5143125,
          "velocity": 0.7874015748031497
        },
        {
          "duration": 0.125,
          "durationTicks": 80,
          "midi": 74,
          "name": "D5",
          "ticks": 200440,
          "time": 454.7643125,
          "velocity": 0.7874015748031497
        },
        {
          "duration": 0.09375,
          "durationTicks": 60,
          "midi": 74,
          "name": "D5",
          "ticks": 200520,
          "time": 454.8893125,
          "velocity": 0.7874015748031497
        },
        {
          "duration": 0.09375,
          "durationTicks": 60,
          "midi": 76,
          "name": "E5",
          "ticks": 200580,
          "time": 454.9830625,
          "velocity": 0.7874015748031497
        },
        {
          "duration": 0.09375,
          "durationTicks": 60,
          "midi": 74,
          "name": "D5",
          "ticks": 200640,
          "time": 455.0768125,
          "velocity": 0.7874015748031497
        },
        {
          "duration": 0.09375,
          "durationTicks": 60,
          "midi": 76,
          "name": "E5",
          "ticks": 200700,
          "time": 455.1705625,
          "velocity": 0.7874015748031497
        },
        {
          "duration": 0.5,
          "durationTicks": 320,
          "midi": 74,
          "name": "D5",
          "ticks": 200760,
          "time": 455.2643125,
          "velocity": 0.7874015748031497
        },
        {
          "duration": 0.125,
          "durationTicks": 80,
          "midi": 68,
          "name": "G#4",
          "ticks": 201160,
          "time": 455.8893125,
          "velocity": 0.7874015748031497
        },
        {
          "duration": 0.125,
          "durationTicks": 80,
          "midi": 71,
          "name": "B4",
          "ticks": 201240,
          "time": 456.0143125,
          "velocity": 0.7874015748031497
        },
        {
          "duration": 0.125,
          "durationTicks": 80,
          "midi": 74,
          "name": "D5",
          "ticks": 201400,
          "time": 456.2643125,
          "velocity": 0.7874015748031497
        },
        {
          "duration": 0.09375,
          "durationTicks": 60,
          "midi": 74,
          "name": "D5",
          "ticks": 201480,
          "time": 456.3893125,
          "velocity": 0.7874015748031497
        },
        {
          "duration": 0.09375,
          "durationTicks": 60,
          "midi": 76,
          "name": "E5",
          "ticks": 201540,
          "time": 456.4830625,
          "velocity": 0.7874015748031497
        },
        {
          "duration": 0.09375,
          "durationTicks": 60,
          "midi": 74,
          "name": "D5",
          "ticks": 201600,
          "time": 456.5768125,
          "velocity": 0.7874015748031497
        },
        {
          "duration": 0.09375,
          "durationTicks": 60,
          "midi": 76,
          "name": "E5",
          "ticks": 201660,
          "time": 456.6705625,
          "velocity": 0.7874015748031497
        },
        {
          "duration": 0.375,
          "durationTicks": 240,
          "midi": 74,
          "name": "D5",
          "ticks": 201720,
          "time": 456.7643125,
          "velocity": 0.7874015748031497
        },
        {
          "duration": 0.125,
          "durationTicks": 80,
          "midi": 74,
          "name": "D5",
          "ticks": 201960,
          "time": 457.1393125,
          "velocity": 0.7874015748031497
        },
        {
          "duration": 0.125,
          "durationTicks": 80,
          "midi": 76,
          "name": "E5",
          "ticks": 202040,
          "time": 457.2643125,
          "velocity": 0.7874015748031497
        },
        {
          "duration": 0.125,
          "durationTicks": 80,
          "midi": 79,
          "name": "G5",
          "ticks": 202120,
          "time": 457.3893125,
          "velocity": 0.7874015748031497
        },
        {
          "duration": 0.125,
          "durationTicks": 80,
          "midi": 73,
          "name": "C#5",
          "ticks": 202200,
          "time": 457.5143125,
          "velocity": 0.7874015748031497
        },
        {
          "duration": 0.125,
          "durationTicks": 80,
          "midi": 76,
          "name": "E5",
          "ticks": 202280,
          "time": 457.6393125,
          "velocity": 0.7874015748031497
        },
        {
          "duration": 0.125,
          "durationTicks": 80,
          "midi": 79,
          "name": "G5",
          "ticks": 202360,
          "time": 457.7643125,
          "velocity": 0.7874015748031497
        },
        {
          "duration": 0.5,
          "durationTicks": 320,
          "midi": 78,
          "name": "F#5",
          "ticks": 202440,
          "time": 457.8893125,
          "velocity": 0.7874015748031497
        },
        {
          "duration": 0.125,
          "durationTicks": 80,
          "midi": 74,
          "name": "D5",
          "ticks": 202760,
          "time": 458.3893125,
          "velocity": 0.7874015748031497
        },
        {
          "duration": 0.125,
          "durationTicks": 80,
          "midi": 69,
          "name": "A4",
          "ticks": 202840,
          "time": 458.5143125,
          "velocity": 0.7874015748031497
        },
        {
          "duration": 0.125,
          "durationTicks": 80,
          "midi": 66,
          "name": "F#4",
          "ticks": 202920,
          "time": 458.6393125,
          "velocity": 0.7874015748031497
        },
        {
          "duration": 0.125,
          "durationTicks": 80,
          "midi": 62,
          "name": "D4",
          "ticks": 203000,
          "time": 458.7643125,
          "velocity": 0.7874015748031497
        },
        {
          "duration": 0.125,
          "durationTicks": 80,
          "midi": 66,
          "name": "F#4",
          "ticks": 203080,
          "time": 458.8893125,
          "velocity": 0.7874015748031497
        },
        {
          "duration": 0.125,
          "durationTicks": 80,
          "midi": 69,
          "name": "A4",
          "ticks": 203160,
          "time": 459.0143125,
          "velocity": 0.7874015748031497
        },
        {
          "duration": 0.125,
          "durationTicks": 80,
          "midi": 74,
          "name": "D5",
          "ticks": 203240,
          "time": 459.1393125,
          "velocity": 0.7874015748031497
        },
        {
          "duration": 0.125,
          "durationTicks": 80,
          "midi": 72,
          "name": "C5",
          "ticks": 203320,
          "time": 459.2643125,
          "velocity": 0.7874015748031497
        },
        {
          "duration": 0.125,
          "durationTicks": 80,
          "midi": 81,
          "name": "A5",
          "ticks": 203880,
          "time": 460.1393125,
          "velocity": 0.7874015748031497
        },
        {
          "duration": 0.125,
          "durationTicks": 80,
          "midi": 79,
          "name": "G5",
          "ticks": 203960,
          "time": 460.2643125,
          "velocity": 0.7874015748031497
        },
        {
          "duration": 0.125,
          "durationTicks": 80,
          "midi": 78,
          "name": "F#5",
          "ticks": 204040,
          "time": 460.3893125,
          "velocity": 0.7874015748031497
        },
        {
          "duration": 0.125,
          "durationTicks": 80,
          "midi": 76,
          "name": "E5",
          "ticks": 204120,
          "time": 460.5143125,
          "velocity": 0.7874015748031497
        },
        {
          "duration": 0.125,
          "durationTicks": 80,
          "midi": 74,
          "name": "D5",
          "ticks": 204200,
          "time": 460.6393125,
          "velocity": 0.7874015748031497
        },
        {
          "duration": 0.125,
          "durationTicks": 80,
          "midi": 72,
          "name": "C5",
          "ticks": 204280,
          "time": 460.7643125,
          "velocity": 0.7874015748031497
        },
        {
          "duration": 0.125,
          "durationTicks": 80,
          "midi": 71,
          "name": "B4",
          "ticks": 204360,
          "time": 460.8893125,
          "velocity": 0.7874015748031497
        },
        {
          "duration": 0.125,
          "durationTicks": 80,
          "midi": 69,
          "name": "A4",
          "ticks": 204440,
          "time": 461.0143125,
          "velocity": 0.7874015748031497
        },
        {
          "duration": 0.125,
          "durationTicks": 80,
          "midi": 67,
          "name": "G4",
          "ticks": 204520,
          "time": 461.1393125,
          "velocity": 0.7874015748031497
        },
        {
          "duration": 0.125,
          "durationTicks": 80,
          "midi": 86,
          "name": "D6",
          "ticks": 204840,
          "time": 461.6393125,
          "velocity": 0.7874015748031497
        },
        {
          "duration": 0.125,
          "durationTicks": 80,
          "midi": 84,
          "name": "C6",
          "ticks": 204920,
          "time": 461.7643125,
          "velocity": 0.7874015748031497
        },
        {
          "duration": 0.125,
          "durationTicks": 80,
          "midi": 83,
          "name": "B5",
          "ticks": 205000,
          "time": 461.8893125,
          "velocity": 0.7874015748031497
        },
        {
          "duration": 0.125,
          "durationTicks": 80,
          "midi": 81,
          "name": "A5",
          "ticks": 205080,
          "time": 462.0143125,
          "velocity": 0.7874015748031497
        },
        {
          "duration": 0.125,
          "durationTicks": 80,
          "midi": 79,
          "name": "G5",
          "ticks": 205160,
          "time": 462.1393125,
          "velocity": 0.7874015748031497
        },
        {
          "duration": 0.125,
          "durationTicks": 80,
          "midi": 77,
          "name": "F5",
          "ticks": 205240,
          "time": 462.2643125,
          "velocity": 0.7874015748031497
        },
        {
          "duration": 0.125,
          "durationTicks": 80,
          "midi": 76,
          "name": "E5",
          "ticks": 205320,
          "time": 462.3893125,
          "velocity": 0.7874015748031497
        },
        {
          "duration": 0.125,
          "durationTicks": 80,
          "midi": 74,
          "name": "D5",
          "ticks": 205400,
          "time": 462.5143125,
          "velocity": 0.7874015748031497
        },
        {
          "duration": 0.125,
          "durationTicks": 80,
          "midi": 72,
          "name": "C5",
          "ticks": 205480,
          "time": 462.6393125,
          "velocity": 0.7874015748031497
        },
        {
          "duration": 0.125,
          "durationTicks": 80,
          "midi": 71,
          "name": "B4",
          "ticks": 205560,
          "time": 462.7643125,
          "velocity": 0.7874015748031497
        },
        {
          "duration": 0.125,
          "durationTicks": 80,
          "midi": 69,
          "name": "A4",
          "ticks": 205640,
          "time": 462.8893125,
          "velocity": 0.7874015748031497
        },
        {
          "duration": 0.125,
          "durationTicks": 80,
          "midi": 67,
          "name": "G4",
          "ticks": 205720,
          "time": 463.0143125,
          "velocity": 0.7874015748031497
        },
        {
          "duration": 0.25,
          "durationTicks": 160,
          "midi": 66,
          "name": "F#4",
          "ticks": 205800,
          "time": 463.1393125,
          "velocity": 0.7874015748031497
        },
        {
          "duration": 0.125,
          "durationTicks": 80,
          "midi": 75,
          "name": "D#5",
          "ticks": 205960,
          "time": 463.3893125,
          "velocity": 0.7874015748031497
        },
        {
          "duration": 0.25,
          "durationTicks": 160,
          "midi": 76,
          "name": "E5",
          "ticks": 206040,
          "time": 463.5143125,
          "velocity": 0.7874015748031497
        },
        {
          "duration": 0.125,
          "durationTicks": 80,
          "midi": 70,
          "name": "A#4",
          "ticks": 206200,
          "time": 463.7643125,
          "velocity": 0.7874015748031497
        },
        {
          "duration": 0.25,
          "durationTicks": 160,
          "midi": 71,
          "name": "B4",
          "ticks": 206280,
          "time": 463.8893125,
          "velocity": 0.7874015748031497
        },
        {
          "duration": 0.125,
          "durationTicks": 80,
          "midi": 63,
          "name": "D#4",
          "ticks": 206440,
          "time": 464.1393125,
          "velocity": 0.7874015748031497
        },
        {
          "duration": 0.25,
          "durationTicks": 160,
          "midi": 66,
          "name": "F#4",
          "ticks": 206520,
          "time": 464.2643125,
          "velocity": 0.7874015748031497
        },
        {
          "duration": 0.125,
          "durationTicks": 80,
          "midi": 69,
          "name": "A4",
          "ticks": 206680,
          "time": 464.5143125,
          "velocity": 0.7874015748031497
        },
        {
          "duration": 0.125,
          "durationTicks": 80,
          "midi": 72,
          "name": "C5",
          "ticks": 206760,
          "time": 464.6393125,
          "velocity": 0.7874015748031497
        },
        {
          "duration": 0.125,
          "durationTicks": 80,
          "midi": 71,
          "name": "B4",
          "ticks": 206840,
          "time": 464.7643125,
          "velocity": 0.7874015748031497
        },
        {
          "duration": 0.125,
          "durationTicks": 80,
          "midi": 69,
          "name": "A4",
          "ticks": 206920,
          "time": 464.8893125,
          "velocity": 0.7874015748031497
        },
        {
          "duration": 0.125,
          "durationTicks": 80,
          "midi": 67,
          "name": "G4",
          "ticks": 207000,
          "time": 465.0143125,
          "velocity": 0.7874015748031497
        },
        {
          "duration": 0.125,
          "durationTicks": 80,
          "midi": 69,
          "name": "A4",
          "ticks": 207080,
          "time": 465.1393125,
          "velocity": 0.7874015748031497
        },
        {
          "duration": 0.125,
          "durationTicks": 80,
          "midi": 66,
          "name": "F#4",
          "ticks": 207160,
          "time": 465.2643125,
          "velocity": 0.7874015748031497
        },
        {
          "duration": 0.125,
          "durationTicks": 80,
          "midi": 64,
          "name": "E4",
          "ticks": 207240,
          "time": 465.3893125,
          "velocity": 0.7874015748031497
        },
        {
          "duration": 0.125,
          "durationTicks": 80,
          "midi": 67,
          "name": "G4",
          "ticks": 207320,
          "time": 465.5143125,
          "velocity": 0.7874015748031497
        },
        {
          "duration": 0.125,
          "durationTicks": 80,
          "midi": 71,
          "name": "B4",
          "ticks": 207400,
          "time": 465.6393125,
          "velocity": 0.7874015748031497
        },
        {
          "duration": 0.125,
          "durationTicks": 80,
          "midi": 76,
          "name": "E5",
          "ticks": 207480,
          "time": 465.7643125,
          "velocity": 0.7874015748031497
        },
        {
          "duration": 0.125,
          "durationTicks": 80,
          "midi": 79,
          "name": "G5",
          "ticks": 207560,
          "time": 465.8893125,
          "velocity": 0.7874015748031497
        },
        {
          "duration": 0.125,
          "durationTicks": 80,
          "midi": 83,
          "name": "B5",
          "ticks": 207640,
          "time": 466.0143125,
          "velocity": 0.7874015748031497
        },
        {
          "duration": 0.125,
          "durationTicks": 80,
          "midi": 79,
          "name": "G5",
          "ticks": 207720,
          "time": 466.1393125,
          "velocity": 0.7874015748031497
        },
        {
          "duration": 0.125,
          "durationTicks": 80,
          "midi": 76,
          "name": "E5",
          "ticks": 207800,
          "time": 466.2643125,
          "velocity": 0.7874015748031497
        },
        {
          "duration": 0.125,
          "durationTicks": 80,
          "midi": 71,
          "name": "B4",
          "ticks": 207880,
          "time": 466.3893125,
          "velocity": 0.7874015748031497
        },
        {
          "duration": 0.125,
          "durationTicks": 80,
          "midi": 67,
          "name": "G4",
          "ticks": 207960,
          "time": 466.5143125,
          "velocity": 0.7874015748031497
        },
        {
          "duration": 0.125,
          "durationTicks": 80,
          "midi": 66,
          "name": "F#4",
          "ticks": 208040,
          "time": 466.6393125,
          "velocity": 0.7874015748031497
        },
        {
          "duration": 0.125,
          "durationTicks": 80,
          "midi": 64,
          "name": "E4",
          "ticks": 208120,
          "time": 466.7643125,
          "velocity": 0.7874015748031497
        },
        {
          "duration": 0.125,
          "durationTicks": 80,
          "midi": 65,
          "name": "F4",
          "ticks": 208200,
          "time": 466.8893125,
          "velocity": 0.7874015748031497
        },
        {
          "duration": 0.125,
          "durationTicks": 80,
          "midi": 69,
          "name": "A4",
          "ticks": 208280,
          "time": 467.0143125,
          "velocity": 0.7874015748031497
        },
        {
          "duration": 0.125,
          "durationTicks": 80,
          "midi": 72,
          "name": "C5",
          "ticks": 208360,
          "time": 467.1393125,
          "velocity": 0.7874015748031497
        },
        {
          "duration": 0.125,
          "durationTicks": 80,
          "midi": 77,
          "name": "F5",
          "ticks": 208440,
          "time": 467.2643125,
          "velocity": 0.7874015748031497
        },
        {
          "duration": 0.125,
          "durationTicks": 80,
          "midi": 81,
          "name": "A5",
          "ticks": 208520,
          "time": 467.3893125,
          "velocity": 0.7874015748031497
        },
        {
          "duration": 0.125,
          "durationTicks": 80,
          "midi": 84,
          "name": "C6",
          "ticks": 208600,
          "time": 467.5143125,
          "velocity": 0.7874015748031497
        },
        {
          "duration": 0.125,
          "durationTicks": 80,
          "midi": 81,
          "name": "A5",
          "ticks": 208680,
          "time": 467.6393125,
          "velocity": 0.7874015748031497
        },
        {
          "duration": 0.125,
          "durationTicks": 80,
          "midi": 77,
          "name": "F5",
          "ticks": 208760,
          "time": 467.7643125,
          "velocity": 0.7874015748031497
        },
        {
          "duration": 0.125,
          "durationTicks": 80,
          "midi": 72,
          "name": "C5",
          "ticks": 208840,
          "time": 467.8893125,
          "velocity": 0.7874015748031497
        },
        {
          "duration": 0.125,
          "durationTicks": 80,
          "midi": 69,
          "name": "A4",
          "ticks": 208920,
          "time": 468.0143125,
          "velocity": 0.7874015748031497
        },
        {
          "duration": 0.125,
          "durationTicks": 80,
          "midi": 67,
          "name": "G4",
          "ticks": 209000,
          "time": 468.1393125,
          "velocity": 0.7874015748031497
        },
        {
          "duration": 0.125,
          "durationTicks": 80,
          "midi": 66,
          "name": "F#4",
          "ticks": 209080,
          "time": 468.2643125,
          "velocity": 0.7874015748031497
        },
        {
          "duration": 0.125,
          "durationTicks": 80,
          "midi": 67,
          "name": "G4",
          "ticks": 209160,
          "time": 468.3893125,
          "velocity": 0.7874015748031497
        },
        {
          "duration": 0.125,
          "durationTicks": 80,
          "midi": 71,
          "name": "B4",
          "ticks": 209240,
          "time": 468.5143125,
          "velocity": 0.7874015748031497
        },
        {
          "duration": 0.125,
          "durationTicks": 80,
          "midi": 76,
          "name": "E5",
          "ticks": 209320,
          "time": 468.6393125,
          "velocity": 0.7874015748031497
        },
        {
          "duration": 0.125,
          "durationTicks": 80,
          "midi": 79,
          "name": "G5",
          "ticks": 209400,
          "time": 468.7643125,
          "velocity": 0.7874015748031497
        },
        {
          "duration": 0.125,
          "durationTicks": 80,
          "midi": 76,
          "name": "E5",
          "ticks": 209480,
          "time": 468.8893125,
          "velocity": 0.7874015748031497
        },
        {
          "duration": 0.125,
          "durationTicks": 80,
          "midi": 84,
          "name": "C6",
          "ticks": 209560,
          "time": 469.0143125,
          "velocity": 0.7874015748031497
        },
        {
          "duration": 0.125,
          "durationTicks": 80,
          "midi": 83,
          "name": "B5",
          "ticks": 209640,
          "time": 469.1393125,
          "velocity": 0.7874015748031497
        },
        {
          "duration": 0.125,
          "durationTicks": 80,
          "midi": 81,
          "name": "A5",
          "ticks": 209720,
          "time": 469.2643125,
          "velocity": 0.7874015748031497
        },
        {
          "duration": 0.125,
          "durationTicks": 80,
          "midi": 79,
          "name": "G5",
          "ticks": 209800,
          "time": 469.3893125,
          "velocity": 0.7874015748031497
        },
        {
          "duration": 0.125,
          "durationTicks": 80,
          "midi": 78,
          "name": "F#5",
          "ticks": 209880,
          "time": 469.5143125,
          "velocity": 0.7874015748031497
        },
        {
          "duration": 0.125,
          "durationTicks": 80,
          "midi": 76,
          "name": "E5",
          "ticks": 209960,
          "time": 469.6393125,
          "velocity": 0.7874015748031497
        },
        {
          "duration": 0.125,
          "durationTicks": 80,
          "midi": 75,
          "name": "D#5",
          "ticks": 210040,
          "time": 469.7643125,
          "velocity": 0.7874015748031497
        },
        {
          "duration": 0.125,
          "durationTicks": 80,
          "midi": 76,
          "name": "E5",
          "ticks": 210120,
          "time": 469.8893125,
          "velocity": 0.7874015748031497
        },
        {
          "duration": 0.125,
          "durationTicks": 80,
          "midi": 79,
          "name": "G5",
          "ticks": 210200,
          "time": 470.0143125,
          "velocity": 0.7874015748031497
        },
        {
          "duration": 0.125,
          "durationTicks": 80,
          "midi": 76,
          "name": "E5",
          "ticks": 210280,
          "time": 470.1393125,
          "velocity": 0.7874015748031497
        },
        {
          "duration": 0.125,
          "durationTicks": 80,
          "midi": 71,
          "name": "B4",
          "ticks": 210360,
          "time": 470.2643125,
          "velocity": 0.7874015748031497
        },
        {
          "duration": 0.125,
          "durationTicks": 80,
          "midi": 67,
          "name": "G4",
          "ticks": 210440,
          "time": 470.3893125,
          "velocity": 0.7874015748031497
        },
        {
          "duration": 0.125,
          "durationTicks": 80,
          "midi": 66,
          "name": "F#4",
          "ticks": 210520,
          "time": 470.5143125,
          "velocity": 0.7874015748031497
        },
        {
          "duration": 0.125,
          "durationTicks": 80,
          "midi": 67,
          "name": "G4",
          "ticks": 210600,
          "time": 470.6393125,
          "velocity": 0.7874015748031497
        },
        {
          "duration": 0.125,
          "durationTicks": 80,
          "midi": 64,
          "name": "E4",
          "ticks": 210680,
          "time": 470.7643125,
          "velocity": 0.7874015748031497
        },
        {
          "duration": 0.125,
          "durationTicks": 80,
          "midi": 67,
          "name": "G4",
          "ticks": 210760,
          "time": 470.8893125,
          "velocity": 0.7874015748031497
        },
        {
          "duration": 0.125,
          "durationTicks": 80,
          "midi": 71,
          "name": "B4",
          "ticks": 210840,
          "time": 471.0143125,
          "velocity": 0.7874015748031497
        },
        {
          "duration": 0.125,
          "durationTicks": 80,
          "midi": 76,
          "name": "E5",
          "ticks": 210920,
          "time": 471.1393125,
          "velocity": 0.7874015748031497
        },
        {
          "duration": 0.125,
          "durationTicks": 80,
          "midi": 75,
          "name": "D#5",
          "ticks": 211000,
          "time": 471.2643125,
          "velocity": 0.7874015748031497
        },
        {
          "duration": 0.125,
          "durationTicks": 80,
          "midi": 76,
          "name": "E5",
          "ticks": 211080,
          "time": 471.3893125,
          "velocity": 0.7874015748031497
        },
        {
          "duration": 0.125,
          "durationTicks": 80,
          "midi": 74,
          "name": "D5",
          "ticks": 211160,
          "time": 471.5143125,
          "velocity": 0.7874015748031497
        },
        {
          "duration": 0.125,
          "durationTicks": 80,
          "midi": 72,
          "name": "C5",
          "ticks": 211240,
          "time": 471.6393125,
          "velocity": 0.7874015748031497
        },
        {
          "duration": 0.125,
          "durationTicks": 80,
          "midi": 71,
          "name": "B4",
          "ticks": 211320,
          "time": 471.7643125,
          "velocity": 0.7874015748031497
        },
        {
          "duration": 0.125,
          "durationTicks": 80,
          "midi": 69,
          "name": "A4",
          "ticks": 211400,
          "time": 471.8893125,
          "velocity": 0.7874015748031497
        },
        {
          "duration": 0.125,
          "durationTicks": 80,
          "midi": 67,
          "name": "G4",
          "ticks": 211480,
          "time": 472.0143125,
          "velocity": 0.7874015748031497
        },
        {
          "duration": 0.625,
          "durationTicks": 400,
          "midi": 66,
          "name": "F#4",
          "ticks": 211560,
          "time": 472.1393125,
          "velocity": 0.7874015748031497
        },
        {
          "duration": 0.125,
          "durationTicks": 80,
          "midi": 69,
          "name": "A4",
          "ticks": 211960,
          "time": 472.7643125,
          "velocity": 0.7874015748031497
        },
        {
          "duration": 0.125,
          "durationTicks": 80,
          "midi": 74,
          "name": "D5",
          "ticks": 212040,
          "time": 472.8893125,
          "velocity": 0.7874015748031497
        },
        {
          "duration": 0.125,
          "durationTicks": 80,
          "midi": 72,
          "name": "C5",
          "ticks": 212120,
          "time": 473.0143125,
          "velocity": 0.7874015748031497
        },
        {
          "duration": 0.125,
          "durationTicks": 80,
          "midi": 71,
          "name": "B4",
          "ticks": 212200,
          "time": 473.1393125,
          "velocity": 0.7874015748031497
        },
        {
          "duration": 0.125,
          "durationTicks": 80,
          "midi": 69,
          "name": "A4",
          "ticks": 212280,
          "time": 473.2643125,
          "velocity": 0.7874015748031497
        },
        {
          "duration": 0.125,
          "durationTicks": 80,
          "midi": 67,
          "name": "G4",
          "ticks": 212360,
          "time": 473.3893125,
          "velocity": 0.7874015748031497
        },
        {
          "duration": 0.125,
          "durationTicks": 80,
          "midi": 66,
          "name": "F#4",
          "ticks": 212440,
          "time": 473.5143125,
          "velocity": 0.7874015748031497
        },
        {
          "duration": 0.625,
          "durationTicks": 400,
          "midi": 64,
          "name": "E4",
          "ticks": 212520,
          "time": 473.6393125,
          "velocity": 0.7874015748031497
        },
        {
          "duration": 0.125,
          "durationTicks": 80,
          "midi": 74,
          "name": "D5",
          "ticks": 212920,
          "time": 474.2643125,
          "velocity": 0.7874015748031497
        },
        {
          "duration": 0.125,
          "durationTicks": 80,
          "midi": 72,
          "name": "C5",
          "ticks": 213000,
          "time": 474.3893125,
          "velocity": 0.7874015748031497
        },
        {
          "duration": 0.125,
          "durationTicks": 80,
          "midi": 71,
          "name": "B4",
          "ticks": 213080,
          "time": 474.5143125,
          "velocity": 0.7874015748031497
        },
        {
          "duration": 0.125,
          "durationTicks": 80,
          "midi": 69,
          "name": "A4",
          "ticks": 213160,
          "time": 474.6393125,
          "velocity": 0.7874015748031497
        },
        {
          "duration": 0.125,
          "durationTicks": 80,
          "midi": 67,
          "name": "G4",
          "ticks": 213240,
          "time": 474.7643125,
          "velocity": 0.7874015748031497
        },
        {
          "duration": 0.125,
          "durationTicks": 80,
          "midi": 66,
          "name": "F#4",
          "ticks": 213320,
          "time": 474.8893125,
          "velocity": 0.7874015748031497
        },
        {
          "duration": 0.125,
          "durationTicks": 80,
          "midi": 64,
          "name": "E4",
          "ticks": 213400,
          "time": 475.0143125,
          "velocity": 0.7874015748031497
        },
        {
          "duration": 0.125,
          "durationTicks": 80,
          "midi": 66,
          "name": "F#4",
          "ticks": 213480,
          "time": 475.1393125,
          "velocity": 0.7874015748031497
        },
        {
          "duration": 0.125,
          "durationTicks": 80,
          "midi": 64,
          "name": "E4",
          "ticks": 213560,
          "time": 475.2643125,
          "velocity": 0.7874015748031497
        },
        {
          "duration": 0.125,
          "durationTicks": 80,
          "midi": 62,
          "name": "D4",
          "ticks": 213640,
          "time": 475.3893125,
          "velocity": 0.7874015748031497
        },
        {
          "duration": 0.125,
          "durationTicks": 80,
          "midi": 61,
          "name": "C#4",
          "ticks": 213720,
          "time": 475.5143125,
          "velocity": 0.7874015748031497
        },
        {
          "duration": 0.125,
          "durationTicks": 80,
          "midi": 62,
          "name": "D4",
          "ticks": 213800,
          "time": 475.6393125,
          "velocity": 0.7874015748031497
        },
        {
          "duration": 0.125,
          "durationTicks": 80,
          "midi": 64,
          "name": "E4",
          "ticks": 213880,
          "time": 475.7643125,
          "velocity": 0.7874015748031497
        },
        {
          "duration": 0.125,
          "durationTicks": 80,
          "midi": 66,
          "name": "F#4",
          "ticks": 213960,
          "time": 475.8893125,
          "velocity": 0.7874015748031497
        },
        {
          "duration": 0.125,
          "durationTicks": 80,
          "midi": 64,
          "name": "E4",
          "ticks": 214040,
          "time": 476.0143125,
          "velocity": 0.7874015748031497
        },
        {
          "duration": 0.125,
          "durationTicks": 80,
          "midi": 62,
          "name": "D4",
          "ticks": 214120,
          "time": 476.1393125,
          "velocity": 0.7874015748031497
        },
        {
          "duration": 0.125,
          "durationTicks": 80,
          "midi": 60,
          "name": "C4",
          "ticks": 214200,
          "time": 476.2643125,
          "velocity": 0.7874015748031497
        },
        {
          "duration": 0.125,
          "durationTicks": 80,
          "midi": 59,
          "name": "B3",
          "ticks": 214280,
          "time": 476.3893125,
          "velocity": 0.7874015748031497
        },
        {
          "duration": 0.125,
          "durationTicks": 80,
          "midi": 57,
          "name": "A3",
          "ticks": 214360,
          "time": 476.5143125,
          "velocity": 0.7874015748031497
        },
        {
          "duration": 0.125,
          "durationTicks": 80,
          "midi": 59,
          "name": "B3",
          "ticks": 214440,
          "time": 476.6393125,
          "velocity": 0.7874015748031497
        },
        {
          "duration": 0.125,
          "durationTicks": 80,
          "midi": 57,
          "name": "A3",
          "ticks": 214520,
          "time": 476.7643125,
          "velocity": 0.7874015748031497
        },
        {
          "duration": 0.125,
          "durationTicks": 80,
          "midi": 55,
          "name": "G3",
          "ticks": 214600,
          "time": 476.8893125,
          "velocity": 0.7874015748031497
        },
        {
          "duration": 0.125,
          "durationTicks": 80,
          "midi": 54,
          "name": "F#3",
          "ticks": 214680,
          "time": 477.0143125,
          "velocity": 0.7874015748031497
        },
        {
          "duration": 0.125,
          "durationTicks": 80,
          "midi": 55,
          "name": "G3",
          "ticks": 214760,
          "time": 477.1393125,
          "velocity": 0.7874015748031497
        },
        {
          "duration": 0.125,
          "durationTicks": 80,
          "midi": 57,
          "name": "A3",
          "ticks": 214840,
          "time": 477.2643125,
          "velocity": 0.7874015748031497
        },
        {
          "duration": 0.125,
          "durationTicks": 80,
          "midi": 59,
          "name": "B3",
          "ticks": 214920,
          "time": 477.3893125,
          "velocity": 0.7874015748031497
        },
        {
          "duration": 0.125,
          "durationTicks": 80,
          "midi": 57,
          "name": "A3",
          "ticks": 215000,
          "time": 477.5143125,
          "velocity": 0.7874015748031497
        },
        {
          "duration": 0.125,
          "durationTicks": 80,
          "midi": 55,
          "name": "G3",
          "ticks": 215080,
          "time": 477.6393125,
          "velocity": 0.7874015748031497
        },
        {
          "duration": 0.125,
          "durationTicks": 80,
          "midi": 53,
          "name": "F3",
          "ticks": 215160,
          "time": 477.7643125,
          "velocity": 0.7874015748031497
        },
        {
          "duration": 0.125,
          "durationTicks": 80,
          "midi": 52,
          "name": "E3",
          "ticks": 215240,
          "time": 477.8893125,
          "velocity": 0.7874015748031497
        },
        {
          "duration": 0.125,
          "durationTicks": 80,
          "midi": 50,
          "name": "D3",
          "ticks": 215320,
          "time": 478.0143125,
          "velocity": 0.7874015748031497
        },
        {
          "duration": 0.125,
          "durationTicks": 80,
          "midi": 52,
          "name": "E3",
          "ticks": 215400,
          "time": 478.1393125,
          "velocity": 0.7874015748031497
        },
        {
          "duration": 0.125,
          "durationTicks": 80,
          "midi": 50,
          "name": "D3",
          "ticks": 215480,
          "time": 478.2643125,
          "velocity": 0.7874015748031497
        },
        {
          "duration": 0.125,
          "durationTicks": 80,
          "midi": 48,
          "name": "C3",
          "ticks": 215560,
          "time": 478.3893125,
          "velocity": 0.7874015748031497
        },
        {
          "duration": 0.125,
          "durationTicks": 80,
          "midi": 47,
          "name": "B2",
          "ticks": 215640,
          "time": 478.5143125,
          "velocity": 0.7874015748031497
        },
        {
          "duration": 0.125,
          "durationTicks": 80,
          "midi": 48,
          "name": "C3",
          "ticks": 215720,
          "time": 478.6393125,
          "velocity": 0.7874015748031497
        },
        {
          "duration": 0.125,
          "durationTicks": 80,
          "midi": 50,
          "name": "D3",
          "ticks": 215800,
          "time": 478.7643125,
          "velocity": 0.7874015748031497
        },
        {
          "duration": 0.125,
          "durationTicks": 80,
          "midi": 52,
          "name": "E3",
          "ticks": 215880,
          "time": 478.8893125,
          "velocity": 0.7874015748031497
        },
        {
          "duration": 0.125,
          "durationTicks": 80,
          "midi": 48,
          "name": "C3",
          "ticks": 215960,
          "time": 479.0143125,
          "velocity": 0.7874015748031497
        },
        {
          "duration": 0.125,
          "durationTicks": 80,
          "midi": 52,
          "name": "E3",
          "ticks": 216040,
          "time": 479.1393125,
          "velocity": 0.7874015748031497
        },
        {
          "duration": 0.125,
          "durationTicks": 80,
          "midi": 55,
          "name": "G3",
          "ticks": 216120,
          "time": 479.2643125,
          "velocity": 0.7874015748031497
        },
        {
          "duration": 0.125,
          "durationTicks": 80,
          "midi": 60,
          "name": "C4",
          "ticks": 216200,
          "time": 479.3893125,
          "velocity": 0.7874015748031497
        },
        {
          "duration": 0.125,
          "durationTicks": 80,
          "midi": 64,
          "name": "E4",
          "ticks": 216280,
          "time": 479.5143125,
          "velocity": 0.7874015748031497
        },
        {
          "duration": 0.125,
          "durationTicks": 80,
          "midi": 60,
          "name": "C4",
          "ticks": 216360,
          "time": 479.6393125,
          "velocity": 0.7874015748031497
        },
        {
          "duration": 0.125,
          "durationTicks": 80,
          "midi": 57,
          "name": "A3",
          "ticks": 216440,
          "time": 479.7643125,
          "velocity": 0.7874015748031497
        },
        {
          "duration": 0.125,
          "durationTicks": 80,
          "midi": 60,
          "name": "C4",
          "ticks": 216520,
          "time": 479.8893125,
          "velocity": 0.7874015748031497
        },
        {
          "duration": 0.125,
          "durationTicks": 80,
          "midi": 64,
          "name": "E4",
          "ticks": 216600,
          "time": 480.0143125,
          "velocity": 0.7874015748031497
        },
        {
          "duration": 0.125,
          "durationTicks": 80,
          "midi": 69,
          "name": "A4",
          "ticks": 216680,
          "time": 480.1393125,
          "velocity": 0.7874015748031497
        },
        {
          "duration": 0.125,
          "durationTicks": 80,
          "midi": 72,
          "name": "C5",
          "ticks": 216760,
          "time": 480.2643125,
          "velocity": 0.7874015748031497
        },
        {
          "duration": 0.125,
          "durationTicks": 80,
          "midi": 66,
          "name": "F#4",
          "ticks": 216840,
          "time": 480.3893125,
          "velocity": 0.7874015748031497
        },
        {
          "duration": 0.125,
          "durationTicks": 80,
          "midi": 62,
          "name": "D4",
          "ticks": 216920,
          "time": 480.5143125,
          "velocity": 0.7874015748031497
        },
        {
          "duration": 0.125,
          "durationTicks": 80,
          "midi": 66,
          "name": "F#4",
          "ticks": 217000,
          "time": 480.6393125,
          "velocity": 0.7874015748031497
        },
        {
          "duration": 0.125,
          "durationTicks": 80,
          "midi": 69,
          "name": "A4",
          "ticks": 217080,
          "time": 480.7643125,
          "velocity": 0.7874015748031497
        },
        {
          "duration": 0.125,
          "durationTicks": 80,
          "midi": 74,
          "name": "D5",
          "ticks": 217160,
          "time": 480.8893125,
          "velocity": 0.7874015748031497
        },
        {
          "duration": 0.125,
          "durationTicks": 80,
          "midi": 78,
          "name": "F#5",
          "ticks": 217240,
          "time": 481.0143125,
          "velocity": 0.7874015748031497
        },
        {
          "duration": 0.125,
          "durationTicks": 80,
          "midi": 74,
          "name": "D5",
          "ticks": 217320,
          "time": 481.1393125,
          "velocity": 0.7874015748031497
        },
        {
          "duration": 0.125,
          "durationTicks": 80,
          "midi": 69,
          "name": "A4",
          "ticks": 217400,
          "time": 481.2643125,
          "velocity": 0.7874015748031497
        },
        {
          "duration": 0.125,
          "durationTicks": 80,
          "midi": 74,
          "name": "D5",
          "ticks": 217480,
          "time": 481.3893125,
          "velocity": 0.7874015748031497
        },
        {
          "duration": 0.125,
          "durationTicks": 80,
          "midi": 78,
          "name": "F#5",
          "ticks": 217560,
          "time": 481.5143125,
          "velocity": 0.7874015748031497
        },
        {
          "duration": 0.125,
          "durationTicks": 80,
          "midi": 81,
          "name": "A5",
          "ticks": 217640,
          "time": 481.6393125,
          "velocity": 0.7874015748031497
        },
        {
          "duration": 0.125,
          "durationTicks": 80,
          "midi": 84,
          "name": "C6",
          "ticks": 217720,
          "time": 481.7643125,
          "velocity": 0.7874015748031497
        },
        {
          "duration": 0.125,
          "durationTicks": 80,
          "midi": 83,
          "name": "B5",
          "ticks": 217800,
          "time": 481.8893125,
          "velocity": 0.7874015748031497
        },
        {
          "duration": 0.125,
          "durationTicks": 80,
          "midi": 79,
          "name": "G5",
          "ticks": 217880,
          "time": 482.0143125,
          "velocity": 0.7874015748031497
        },
        {
          "duration": 0.125,
          "durationTicks": 80,
          "midi": 74,
          "name": "D5",
          "ticks": 217960,
          "time": 482.1393125,
          "velocity": 0.7874015748031497
        },
        {
          "duration": 0.125,
          "durationTicks": 80,
          "midi": 71,
          "name": "B4",
          "ticks": 218040,
          "time": 482.2643125,
          "velocity": 0.7874015748031497
        },
        {
          "duration": 0.125,
          "durationTicks": 80,
          "midi": 67,
          "name": "G4",
          "ticks": 218120,
          "time": 482.3893125,
          "velocity": 0.7874015748031497
        },
        {
          "duration": 0.125,
          "durationTicks": 80,
          "midi": 66,
          "name": "F#4",
          "ticks": 218200,
          "time": 482.5143125,
          "velocity": 0.7874015748031497
        },
        {
          "duration": 0.125,
          "durationTicks": 80,
          "midi": 67,
          "name": "G4",
          "ticks": 218280,
          "time": 482.6393125,
          "velocity": 0.7874015748031497
        },
        {
          "duration": 0.125,
          "durationTicks": 80,
          "midi": 71,
          "name": "B4",
          "ticks": 218360,
          "time": 482.7643125,
          "velocity": 0.7874015748031497
        },
        {
          "duration": 0.125,
          "durationTicks": 80,
          "midi": 74,
          "name": "D5",
          "ticks": 218440,
          "time": 482.8893125,
          "velocity": 0.7874015748031497
        },
        {
          "duration": 0.375,
          "durationTicks": 240,
          "midi": 79,
          "name": "G5",
          "ticks": 218520,
          "time": 483.0143125,
          "velocity": 0.7874015748031497
        },
        {
          "duration": 0.15625,
          "durationTicks": 30,
          "midi": 71,
          "name": "B4",
          "ticks": 219720,
          "time": 487.0768125,
          "velocity": 0.7874015748031497
        },
        {
          "duration": 0.15625,
          "durationTicks": 30,
          "midi": 72,
          "name": "C5",
          "ticks": 219750,
          "time": 487.2330625,
          "velocity": 0.7874015748031497
        },
        {
          "duration": 0.15625,
          "durationTicks": 30,
          "midi": 71,
          "name": "B4",
          "ticks": 219780,
          "time": 487.3893125,
          "velocity": 0.7874015748031497
        },
        {
          "duration": 0.15625,
          "durationTicks": 30,
          "midi": 69,
          "name": "A4",
          "ticks": 219810,
          "time": 487.5455625,
          "velocity": 0.7874015748031497
        },
        {
          "duration": 0.78125,
          "durationTicks": 150,
          "midi": 71,
          "name": "B4",
          "ticks": 219840,
          "time": 487.7018125,
          "velocity": 0.7874015748031497
        },
        {
          "duration": 0.15625,
          "durationTicks": 30,
          "midi": 66,
          "name": "F#4",
          "ticks": 219990,
          "time": 488.4830625,
          "velocity": 0.7874015748031497
        },
        {
          "duration": 0.15625,
          "durationTicks": 30,
          "midi": 67,
          "name": "G4",
          "ticks": 220020,
          "time": 488.6393125,
          "velocity": 0.7874015748031497
        },
        {
          "duration": 0.15625,
          "durationTicks": 30,
          "midi": 69,
          "name": "A4",
          "ticks": 220050,
          "time": 488.7955625,
          "velocity": 0.7874015748031497
        },
        {
          "duration": 0.3125,
          "durationTicks": 60,
          "midi": 71,
          "name": "B4",
          "ticks": 220080,
          "time": 488.9518125,
          "velocity": 0.7874015748031497
        },
        {
          "duration": 0.3125,
          "durationTicks": 60,
          "midi": 72,
          "name": "C5",
          "ticks": 220140,
          "time": 489.2643125,
          "velocity": 0.7874015748031497
        },
        {
          "duration": 0.15625,
          "durationTicks": 30,
          "midi": 74,
          "name": "D5",
          "ticks": 220200,
          "time": 489.5768125,
          "velocity": 0.7874015748031497
        },
        {
          "duration": 0.15625,
          "durationTicks": 30,
          "midi": 72,
          "name": "C5",
          "ticks": 220230,
          "time": 489.7330625,
          "velocity": 0.7874015748031497
        },
        {
          "duration": 0.3125,
          "durationTicks": 60,
          "midi": 71,
          "name": "B4",
          "ticks": 220260,
          "time": 489.8893125,
          "velocity": 0.7874015748031497
        },
        {
          "duration": 0.3125,
          "durationTicks": 60,
          "midi": 69,
          "name": "A4",
          "ticks": 220320,
          "time": 490.2018125,
          "velocity": 0.7874015748031497
        },
        {
          "duration": 0.3125,
          "durationTicks": 60,
          "midi": 67,
          "name": "G4",
          "ticks": 220380,
          "time": 490.5143125,
          "velocity": 0.7874015748031497
        },
        {
          "duration": 0.15625,
          "durationTicks": 30,
          "midi": 74,
          "name": "D5",
          "ticks": 220440,
          "time": 490.8268125,
          "velocity": 0.7874015748031497
        },
        {
          "duration": 0.15625,
          "durationTicks": 30,
          "midi": 76,
          "name": "E5",
          "ticks": 220470,
          "time": 490.9830625,
          "velocity": 0.7874015748031497
        },
        {
          "duration": 0.15625,
          "durationTicks": 30,
          "midi": 74,
          "name": "D5",
          "ticks": 220500,
          "time": 491.1393125,
          "velocity": 0.7874015748031497
        },
        {
          "duration": 0.15625,
          "durationTicks": 30,
          "midi": 73,
          "name": "C#5",
          "ticks": 220530,
          "time": 491.2955625,
          "velocity": 0.7874015748031497
        },
        {
          "duration": 0.78125,
          "durationTicks": 150,
          "midi": 74,
          "name": "D5",
          "ticks": 220560,
          "time": 491.4518125,
          "velocity": 0.7874015748031497
        },
        {
          "duration": 0.15625,
          "durationTicks": 30,
          "midi": 73,
          "name": "C#5",
          "ticks": 220710,
          "time": 492.2330625,
          "velocity": 0.7874015748031497
        },
        {
          "duration": 0.15625,
          "durationTicks": 30,
          "midi": 74,
          "name": "D5",
          "ticks": 220740,
          "time": 492.3893125,
          "velocity": 0.7874015748031497
        },
        {
          "duration": 0.15625,
          "durationTicks": 30,
          "midi": 76,
          "name": "E5",
          "ticks": 220770,
          "time": 492.5455625,
          "velocity": 0.7874015748031497
        },
        {
          "duration": 0.3125,
          "durationTicks": 60,
          "midi": 78,
          "name": "F#5",
          "ticks": 220800,
          "time": 492.7018125,
          "velocity": 0.7874015748031497
        },
        {
          "duration": 0.3125,
          "durationTicks": 60,
          "midi": 79,
          "name": "G5",
          "ticks": 220860,
          "time": 493.0143125,
          "velocity": 0.7874015748031497
        },
        {
          "duration": 0.15625,
          "durationTicks": 30,
          "midi": 81,
          "name": "A5",
          "ticks": 220920,
          "time": 493.3268125,
          "velocity": 0.7874015748031497
        },
        {
          "duration": 0.15625,
          "durationTicks": 30,
          "midi": 79,
          "name": "G5",
          "ticks": 220950,
          "time": 493.4830625,
          "velocity": 0.7874015748031497
        },
        {
          "duration": 0.3125,
          "durationTicks": 60,
          "midi": 78,
          "name": "F#5",
          "ticks": 220980,
          "time": 493.6393125,
          "velocity": 0.7874015748031497
        },
        {
          "duration": 0.3125,
          "durationTicks": 60,
          "midi": 76,
          "name": "E5",
          "ticks": 221040,
          "time": 493.9518125,
          "velocity": 0.7874015748031497
        },
        {
          "duration": 0.3125,
          "durationTicks": 60,
          "midi": 74,
          "name": "D5",
          "ticks": 221100,
          "time": 494.2643125,
          "velocity": 0.7874015748031497
        },
        {
          "duration": 0.15625,
          "durationTicks": 30,
          "midi": 79,
          "name": "G5",
          "ticks": 221160,
          "time": 494.5768125,
          "velocity": 0.7874015748031497
        },
        {
          "duration": 0.15625,
          "durationTicks": 30,
          "midi": 81,
          "name": "A5",
          "ticks": 221190,
          "time": 494.7330625,
          "velocity": 0.7874015748031497
        },
        {
          "duration": 0.15625,
          "durationTicks": 30,
          "midi": 79,
          "name": "G5",
          "ticks": 221220,
          "time": 494.8893125,
          "velocity": 0.7874015748031497
        },
        {
          "duration": 0.15625,
          "durationTicks": 30,
          "midi": 78,
          "name": "F#5",
          "ticks": 221250,
          "time": 495.0455625,
          "velocity": 0.7874015748031497
        },
        {
          "duration": 0.78125,
          "durationTicks": 150,
          "midi": 79,
          "name": "G5",
          "ticks": 221280,
          "time": 495.2018125,
          "velocity": 0.7874015748031497
        },
        {
          "duration": 0.15625,
          "durationTicks": 30,
          "midi": 78,
          "name": "F#5",
          "ticks": 221430,
          "time": 495.9830625,
          "velocity": 0.7874015748031497
        },
        {
          "duration": 0.15625,
          "durationTicks": 30,
          "midi": 76,
          "name": "E5",
          "ticks": 221460,
          "time": 496.1393125,
          "velocity": 0.7874015748031497
        },
        {
          "duration": 0.15625,
          "durationTicks": 30,
          "midi": 78,
          "name": "F#5",
          "ticks": 221490,
          "time": 496.2955625,
          "velocity": 0.7874015748031497
        },
        {
          "duration": 0.3125,
          "durationTicks": 60,
          "midi": 79,
          "name": "G5",
          "ticks": 221520,
          "time": 496.4518125,
          "velocity": 0.7874015748031497
        },
        {
          "duration": 0.3125,
          "durationTicks": 60,
          "midi": 76,
          "name": "E5",
          "ticks": 221580,
          "time": 496.7643125,
          "velocity": 0.7874015748031497
        },
        {
          "duration": 0.3125,
          "durationTicks": 60,
          "midi": 69,
          "name": "A4",
          "ticks": 221640,
          "time": 497.0768125,
          "velocity": 0.7874015748031497
        },
        {
          "duration": 0.3125,
          "durationTicks": 60,
          "midi": 83,
          "name": "B5",
          "ticks": 221700,
          "time": 497.3893125,
          "velocity": 0.7874015748031497
        },
        {
          "duration": 0.3125,
          "durationTicks": 60,
          "midi": 81,
          "name": "A5",
          "ticks": 221760,
          "time": 497.7018125,
          "velocity": 0.7874015748031497
        },
        {
          "duration": 0.15625,
          "durationTicks": 30,
          "midi": 79,
          "name": "G5",
          "ticks": 221820,
          "time": 498.0143125,
          "velocity": 0.7874015748031497
        },
        {
          "duration": 0.15625,
          "durationTicks": 30,
          "midi": 79,
          "name": "G5",
          "ticks": 221850,
          "time": 498.1705625,
          "velocity": 0.7874015748031497
        },
        {
          "duration": 0.15625,
          "durationTicks": 30,
          "midi": 78,
          "name": "F#5",
          "ticks": 221880,
          "time": 498.3268125,
          "velocity": 0.7874015748031497
        },
        {
          "duration": 0.15625,
          "durationTicks": 30,
          "midi": 76,
          "name": "E5",
          "ticks": 221910,
          "time": 498.4830625,
          "velocity": 0.7874015748031497
        },
        {
          "duration": 0.15625,
          "durationTicks": 30,
          "midi": 78,
          "name": "F#5",
          "ticks": 221940,
          "time": 498.6393125,
          "velocity": 0.7874015748031497
        },
        {
          "duration": 0.15625,
          "durationTicks": 30,
          "midi": 76,
          "name": "E5",
          "ticks": 221970,
          "time": 498.7955625,
          "velocity": 0.7874015748031497
        },
        {
          "duration": 0.78125,
          "durationTicks": 150,
          "midi": 74,
          "name": "D5",
          "ticks": 222000,
          "time": 498.9518125,
          "velocity": 0.7874015748031497
        },
        {
          "duration": 0.15625,
          "durationTicks": 30,
          "midi": 73,
          "name": "C#5",
          "ticks": 222150,
          "time": 499.7330625,
          "velocity": 0.7874015748031497
        },
        {
          "duration": 0.15625,
          "durationTicks": 30,
          "midi": 74,
          "name": "D5",
          "ticks": 222180,
          "time": 499.8893125,
          "velocity": 0.7874015748031497
        },
        {
          "duration": 0.15625,
          "durationTicks": 30,
          "midi": 76,
          "name": "E5",
          "ticks": 222210,
          "time": 500.0455625,
          "velocity": 0.7874015748031497
        },
        {
          "duration": 0.3125,
          "durationTicks": 60,
          "midi": 78,
          "name": "F#5",
          "ticks": 222240,
          "time": 500.2018125,
          "velocity": 0.7874015748031497
        },
        {
          "duration": 0.3125,
          "durationTicks": 60,
          "midi": 79,
          "name": "G5",
          "ticks": 222300,
          "time": 500.5143125,
          "velocity": 0.7874015748031497
        },
        {
          "duration": 0.3125,
          "durationTicks": 60,
          "midi": 81,
          "name": "A5",
          "ticks": 222360,
          "time": 500.8268125,
          "velocity": 0.7874015748031497
        },
        {
          "duration": 0.15625,
          "durationTicks": 30,
          "midi": 83,
          "name": "B5",
          "ticks": 222420,
          "time": 501.1393125,
          "velocity": 0.7874015748031497
        },
        {
          "duration": 0.15625,
          "durationTicks": 30,
          "midi": 84,
          "name": "C6",
          "ticks": 222450,
          "time": 501.2955625,
          "velocity": 0.7874015748031497
        },
        {
          "duration": 0.3125,
          "durationTicks": 60,
          "midi": 83,
          "name": "B5",
          "ticks": 222480,
          "time": 501.4518125,
          "velocity": 0.7874015748031497
        },
        {
          "duration": 0.3125,
          "durationTicks": 60,
          "midi": 81,
          "name": "A5",
          "ticks": 222540,
          "time": 501.7643125,
          "velocity": 0.7874015748031497
        },
        {
          "duration": 0.15625,
          "durationTicks": 30,
          "midi": 79,
          "name": "G5",
          "ticks": 222600,
          "time": 502.0768125,
          "velocity": 0.7874015748031497
        },
        {
          "duration": 0.15625,
          "durationTicks": 30,
          "midi": 77,
          "name": "F5",
          "ticks": 222630,
          "time": 502.2330625,
          "velocity": 0.7874015748031497
        },
        {
          "duration": 0.3125,
          "durationTicks": 60,
          "midi": 76,
          "name": "E5",
          "ticks": 222660,
          "time": 502.3893125,
          "velocity": 0.7874015748031497
        },
        {
          "duration": 0.15625,
          "durationTicks": 30,
          "midi": 77,
          "name": "F5",
          "ticks": 222720,
          "time": 502.7018125,
          "velocity": 0.7874015748031497
        },
        {
          "duration": 0.15625,
          "durationTicks": 30,
          "midi": 76,
          "name": "E5",
          "ticks": 222750,
          "time": 502.8580625,
          "velocity": 0.7874015748031497
        },
        {
          "duration": 0.15625,
          "durationTicks": 30,
          "midi": 74,
          "name": "D5",
          "ticks": 222870,
          "time": 503.4830625,
          "velocity": 0.7874015748031497
        },
        {
          "duration": 0.15625,
          "durationTicks": 30,
          "midi": 79,
          "name": "G5",
          "ticks": 222900,
          "time": 503.6393125,
          "velocity": 0.7874015748031497
        },
        {
          "duration": 0.15625,
          "durationTicks": 30,
          "midi": 81,
          "name": "A5",
          "ticks": 222930,
          "time": 503.7955625,
          "velocity": 0.7874015748031497
        },
        {
          "duration": 0.15625,
          "durationTicks": 30,
          "midi": 83,
          "name": "B5",
          "ticks": 222960,
          "time": 503.9518125,
          "velocity": 0.7874015748031497
        },
        {
          "duration": 0.15625,
          "durationTicks": 30,
          "midi": 84,
          "name": "C6",
          "ticks": 222990,
          "time": 504.1080625,
          "velocity": 0.7874015748031497
        },
        {
          "duration": 0.3125,
          "durationTicks": 60,
          "midi": 86,
          "name": "D6",
          "ticks": 223020,
          "time": 504.2643125,
          "velocity": 0.7874015748031497
        },
        {
          "duration": 0.3125,
          "durationTicks": 60,
          "midi": 84,
          "name": "C6",
          "ticks": 223080,
          "time": 504.5768125,
          "velocity": 0.7874015748031497
        },
        {
          "duration": 0.3125,
          "durationTicks": 60,
          "midi": 83,
          "name": "B5",
          "ticks": 223140,
          "time": 504.8893125,
          "velocity": 0.7874015748031497
        },
        {
          "duration": 0.3125,
          "durationTicks": 60,
          "midi": 81,
          "name": "A5",
          "ticks": 223200,
          "time": 505.2018125,
          "velocity": 0.7874015748031497
        },
        {
          "duration": 0.3125,
          "durationTicks": 60,
          "midi": 79,
          "name": "G5",
          "ticks": 223260,
          "time": 505.5143125,
          "velocity": 0.7874015748031497
        },
        {
          "duration": 0.15625,
          "durationTicks": 30,
          "midi": 77,
          "name": "F5",
          "ticks": 223320,
          "time": 505.8268125,
          "velocity": 0.7874015748031497
        },
        {
          "duration": 0.15625,
          "durationTicks": 30,
          "midi": 76,
          "name": "E5",
          "ticks": 223350,
          "time": 505.9830625,
          "velocity": 0.7874015748031497
        },
        {
          "duration": 0.3125,
          "durationTicks": 60,
          "midi": 74,
          "name": "D5",
          "ticks": 223380,
          "time": 506.1393125,
          "velocity": 0.7874015748031497
        },
        {
          "duration": 0.15625,
          "durationTicks": 30,
          "midi": 74,
          "name": "D5",
          "ticks": 223440,
          "time": 506.4518125,
          "velocity": 0.7874015748031497
        },
        {
          "duration": 0.625,
          "durationTicks": 120,
          "midi": 76,
          "name": "E5",
          "ticks": 223470,
          "time": 506.6080625,
          "velocity": 0.7874015748031497
        },
        {
          "duration": 0.15625,
          "durationTicks": 30,
          "midi": 74,
          "name": "D5",
          "ticks": 223590,
          "time": 507.2330625,
          "velocity": 0.7874015748031497
        },
        {
          "duration": 0.15625,
          "durationTicks": 30,
          "midi": 72,
          "name": "C5",
          "ticks": 223620,
          "time": 507.3893125,
          "velocity": 0.7874015748031497
        },
        {
          "duration": 0.15625,
          "durationTicks": 30,
          "midi": 71,
          "name": "B4",
          "ticks": 223650,
          "time": 507.5455625,
          "velocity": 0.7874015748031497
        },
        {
          "duration": 0.15625,
          "durationTicks": 30,
          "midi": 72,
          "name": "C5",
          "ticks": 223680,
          "time": 507.7018125,
          "velocity": 0.7874015748031497
        },
        {
          "duration": 0.15625,
          "durationTicks": 30,
          "midi": 74,
          "name": "D5",
          "ticks": 223710,
          "time": 507.8580625,
          "velocity": 0.7874015748031497
        },
        {
          "duration": 0.3125,
          "durationTicks": 60,
          "midi": 76,
          "name": "E5",
          "ticks": 223740,
          "time": 508.0143125,
          "velocity": 0.7874015748031497
        },
        {
          "duration": 0.3125,
          "durationTicks": 60,
          "midi": 74,
          "name": "D5",
          "ticks": 223800,
          "time": 508.3268125,
          "velocity": 0.7874015748031497
        },
        {
          "duration": 0.3125,
          "durationTicks": 60,
          "midi": 79,
          "name": "G5",
          "ticks": 223860,
          "time": 508.6393125,
          "velocity": 0.7874015748031497
        },
        {
          "duration": 0.3125,
          "durationTicks": 60,
          "midi": 76,
          "name": "E5",
          "ticks": 223920,
          "time": 508.9518125,
          "velocity": 0.7874015748031497
        },
        {
          "duration": 0.3125,
          "durationTicks": 60,
          "midi": 72,
          "name": "C5",
          "ticks": 223980,
          "time": 509.2643125,
          "velocity": 0.7874015748031497
        },
        {
          "duration": 0.15625,
          "durationTicks": 30,
          "midi": 71,
          "name": "B4",
          "ticks": 224040,
          "time": 509.5768125,
          "velocity": 0.7874015748031497
        },
        {
          "duration": 0.15625,
          "durationTicks": 30,
          "midi": 69,
          "name": "A4",
          "ticks": 224070,
          "time": 509.7330625,
          "velocity": 0.7874015748031497
        },
        {
          "duration": 0.3125,
          "durationTicks": 60,
          "midi": 67,
          "name": "G4",
          "ticks": 224100,
          "time": 509.8893125,
          "velocity": 0.7874015748031497
        },
        {
          "duration": 0.78125,
          "durationTicks": 150,
          "midi": 69,
          "name": "A4",
          "ticks": 224160,
          "time": 510.2018125,
          "velocity": 0.7874015748031497
        },
        {
          "duration": 0.15625,
          "durationTicks": 30,
          "midi": 67,
          "name": "G4",
          "ticks": 224310,
          "time": 510.9830625,
          "velocity": 0.7874015748031497
        },
        {
          "duration": 0.15625,
          "durationTicks": 30,
          "midi": 69,
          "name": "A4",
          "ticks": 224340,
          "time": 511.1393125,
          "velocity": 0.7874015748031497
        },
        {
          "duration": 0.15625,
          "durationTicks": 30,
          "midi": 71,
          "name": "B4",
          "ticks": 224370,
          "time": 511.2955625,
          "velocity": 0.7874015748031497
        },
        {
          "duration": 0.15625,
          "durationTicks": 30,
          "midi": 72,
          "name": "C5",
          "ticks": 224400,
          "time": 511.4518125,
          "velocity": 0.7874015748031497
        },
        {
          "duration": 0.15625,
          "durationTicks": 30,
          "midi": 66,
          "name": "F#4",
          "ticks": 224430,
          "time": 511.6080625,
          "velocity": 0.7874015748031497
        },
        {
          "duration": 0.15625,
          "durationTicks": 30,
          "midi": 67,
          "name": "G4",
          "ticks": 224460,
          "time": 511.7643125,
          "velocity": 0.7874015748031497
        },
        {
          "duration": 0.15624999999994316,
          "durationTicks": 30,
          "midi": 69,
          "name": "A4",
          "ticks": 224490,
          "time": 511.9205625,
          "velocity": 0.7874015748031497
        },
        {
          "duration": 0.15625,
          "durationTicks": 30,
          "midi": 62,
          "name": "D4",
          "ticks": 224520,
          "time": 512.0768125,
          "velocity": 0.7874015748031497
        },
        {
          "duration": 0.15625,
          "durationTicks": 30,
          "midi": 66,
          "name": "F#4",
          "ticks": 224550,
          "time": 512.2330625,
          "velocity": 0.7874015748031497
        },
        {
          "duration": 0.15625,
          "durationTicks": 30,
          "midi": 64,
          "name": "E4",
          "ticks": 224580,
          "time": 512.3893125,
          "velocity": 0.7874015748031497
        },
        {
          "duration": 0.15625,
          "durationTicks": 30,
          "midi": 62,
          "name": "D4",
          "ticks": 224610,
          "time": 512.5455625,
          "velocity": 0.7874015748031497
        },
        {
          "duration": 0.15625,
          "durationTicks": 30,
          "midi": 69,
          "name": "A4",
          "ticks": 224640,
          "time": 512.7018125,
          "velocity": 0.7874015748031497
        },
        {
          "duration": 0.15625,
          "durationTicks": 30,
          "midi": 67,
          "name": "G4",
          "ticks": 224670,
          "time": 512.8580625,
          "velocity": 0.7874015748031497
        },
        {
          "duration": 0.15625,
          "durationTicks": 30,
          "midi": 66,
          "name": "F#4",
          "ticks": 224700,
          "time": 513.0143125,
          "velocity": 0.7874015748031497
        },
        {
          "duration": 0.15625,
          "durationTicks": 30,
          "midi": 72,
          "name": "C5",
          "ticks": 224730,
          "time": 513.1705625,
          "velocity": 0.7874015748031497
        },
        {
          "duration": 0.15625,
          "durationTicks": 30,
          "midi": 72,
          "name": "C5",
          "ticks": 224760,
          "time": 513.3268125,
          "velocity": 0.7874015748031497
        },
        {
          "duration": 0.15625,
          "durationTicks": 30,
          "midi": 71,
          "name": "B4",
          "ticks": 224790,
          "time": 513.4830625,
          "velocity": 0.7874015748031497
        },
        {
          "duration": 0.3125,
          "durationTicks": 60,
          "midi": 69,
          "name": "A4",
          "ticks": 224820,
          "time": 513.6393125,
          "velocity": 0.7874015748031497
        },
        {
          "duration": 0.78125,
          "durationTicks": 150,
          "midi": 71,
          "name": "B4",
          "ticks": 224880,
          "time": 513.9518125,
          "velocity": 0.7874015748031497
        },
        {
          "duration": 0.15625,
          "durationTicks": 30,
          "midi": 69,
          "name": "A4",
          "ticks": 225030,
          "time": 514.7330625,
          "velocity": 0.7874015748031497
        },
        {
          "duration": 0.15625,
          "durationTicks": 30,
          "midi": 67,
          "name": "G4",
          "ticks": 225060,
          "time": 514.8893125,
          "velocity": 0.7874015748031497
        },
        {
          "duration": 0.15625,
          "durationTicks": 30,
          "midi": 66,
          "name": "F#4",
          "ticks": 225090,
          "time": 515.0455625,
          "velocity": 0.7874015748031497
        },
        {
          "duration": 0.15625,
          "durationTicks": 30,
          "midi": 67,
          "name": "G4",
          "ticks": 225120,
          "time": 515.2018125,
          "velocity": 0.7874015748031497
        },
        {
          "duration": 0.15625,
          "durationTicks": 30,
          "midi": 71,
          "name": "B4",
          "ticks": 225150,
          "time": 515.3580625,
          "velocity": 0.7874015748031497
        },
        {
          "duration": 0.15625,
          "durationTicks": 30,
          "midi": 74,
          "name": "D5",
          "ticks": 225180,
          "time": 515.5143125,
          "velocity": 0.7874015748031497
        },
        {
          "duration": 0.15625,
          "durationTicks": 30,
          "midi": 78,
          "name": "F#5",
          "ticks": 225210,
          "time": 515.6705625,
          "velocity": 0.7874015748031497
        },
        {
          "duration": 0.15625,
          "durationTicks": 30,
          "midi": 79,
          "name": "G5",
          "ticks": 225240,
          "time": 515.8268125,
          "velocity": 0.7874015748031497
        },
        {
          "duration": 0.15625,
          "durationTicks": 30,
          "midi": 78,
          "name": "F#5",
          "ticks": 225270,
          "time": 515.9830625,
          "velocity": 0.7874015748031497
        },
        {
          "duration": 0.15625,
          "durationTicks": 30,
          "midi": 76,
          "name": "E5",
          "ticks": 225300,
          "time": 516.1393125,
          "velocity": 0.7874015748031497
        },
        {
          "duration": 0.15625,
          "durationTicks": 30,
          "midi": 74,
          "name": "D5",
          "ticks": 225330,
          "time": 516.2955625,
          "velocity": 0.7874015748031497
        },
        {
          "duration": 0.15625,
          "durationTicks": 30,
          "midi": 78,
          "name": "F#5",
          "ticks": 225360,
          "time": 516.4518125,
          "velocity": 0.7874015748031497
        },
        {
          "duration": 0.15625,
          "durationTicks": 30,
          "midi": 81,
          "name": "A5",
          "ticks": 225390,
          "time": 516.6080625,
          "velocity": 0.7874015748031497
        },
        {
          "duration": 0.15625,
          "durationTicks": 30,
          "midi": 83,
          "name": "B5",
          "ticks": 225420,
          "time": 516.7643125,
          "velocity": 0.7874015748031497
        },
        {
          "duration": 0.15625,
          "durationTicks": 30,
          "midi": 84,
          "name": "C6",
          "ticks": 225450,
          "time": 516.9205625,
          "velocity": 0.7874015748031497
        },
        {
          "duration": 0.15625,
          "durationTicks": 30,
          "midi": 83,
          "name": "B5",
          "ticks": 225480,
          "time": 517.0768125,
          "velocity": 0.7874015748031497
        },
        {
          "duration": 0.15625,
          "durationTicks": 30,
          "midi": 81,
          "name": "A5",
          "ticks": 225510,
          "time": 517.2330625,
          "velocity": 0.7874015748031497
        },
        {
          "duration": 0.46875,
          "durationTicks": 90,
          "midi": 79,
          "name": "G5",
          "ticks": 225540,
          "time": 517.3893125,
          "velocity": 0.7874015748031497
        },
        {
          "duration": 0.15625,
          "durationTicks": 30,
          "midi": 78,
          "name": "F#5",
          "ticks": 225630,
          "time": 517.8580625,
          "velocity": 0.7874015748031497
        },
        {
          "duration": 0.46875,
          "durationTicks": 90,
          "midi": 76,
          "name": "E5",
          "ticks": 225660,
          "time": 518.0143125,
          "velocity": 0.7874015748031497
        },
        {
          "duration": 0.15625,
          "durationTicks": 30,
          "midi": 75,
          "name": "D#5",
          "ticks": 225750,
          "time": 518.4830625,
          "velocity": 0.7874015748031497
        },
        {
          "duration": 0.46875,
          "durationTicks": 90,
          "midi": 76,
          "name": "E5",
          "ticks": 225780,
          "time": 518.6393125,
          "velocity": 0.7874015748031497
        },
        {
          "duration": 0.15625,
          "durationTicks": 30,
          "midi": 78,
          "name": "F#5",
          "ticks": 225870,
          "time": 519.1080625,
          "velocity": 0.7874015748031497
        },
        {
          "duration": 0.46875,
          "durationTicks": 90,
          "midi": 79,
          "name": "G5",
          "ticks": 225900,
          "time": 519.2643125,
          "velocity": 0.7874015748031497
        },
        {
          "duration": 0.15625,
          "durationTicks": 30,
          "midi": 81,
          "name": "A5",
          "ticks": 225990,
          "time": 519.7330625,
          "velocity": 0.7874015748031497
        },
        {
          "duration": 0.46875,
          "durationTicks": 90,
          "midi": 83,
          "name": "B5",
          "ticks": 226020,
          "time": 519.8893125,
          "velocity": 0.7874015748031497
        },
        {
          "duration": 0.15625,
          "durationTicks": 30,
          "midi": 79,
          "name": "G5",
          "ticks": 226110,
          "time": 520.3580625,
          "velocity": 0.7874015748031497
        },
        {
          "duration": 0.15625,
          "durationTicks": 30,
          "midi": 78,
          "name": "F#5",
          "ticks": 226140,
          "time": 520.5143125,
          "velocity": 0.7874015748031497
        },
        {
          "duration": 0.15625,
          "durationTicks": 30,
          "midi": 76,
          "name": "E5",
          "ticks": 226170,
          "time": 520.6705625,
          "velocity": 0.7874015748031497
        },
        {
          "duration": 0.15625,
          "durationTicks": 30,
          "midi": 81,
          "name": "A5",
          "ticks": 226200,
          "time": 520.8268125,
          "velocity": 0.7874015748031497
        },
        {
          "duration": 0.15625,
          "durationTicks": 30,
          "midi": 79,
          "name": "G5",
          "ticks": 226230,
          "time": 520.9830625,
          "velocity": 0.7874015748031497
        },
        {
          "duration": 0.46875,
          "durationTicks": 90,
          "midi": 78,
          "name": "F#5",
          "ticks": 226260,
          "time": 521.1393125,
          "velocity": 0.7874015748031497
        },
        {
          "duration": 0.15625,
          "durationTicks": 30,
          "midi": 76,
          "name": "E5",
          "ticks": 226350,
          "time": 521.6080625,
          "velocity": 0.7874015748031497
        },
        {
          "duration": 0.46875,
          "durationTicks": 90,
          "midi": 74,
          "name": "D5",
          "ticks": 226380,
          "time": 521.7643125,
          "velocity": 0.7874015748031497
        },
        {
          "duration": 0.15625,
          "durationTicks": 30,
          "midi": 73,
          "name": "C#5",
          "ticks": 226470,
          "time": 522.2330625,
          "velocity": 0.7874015748031497
        },
        {
          "duration": 0.46875,
          "durationTicks": 90,
          "midi": 74,
          "name": "D5",
          "ticks": 226500,
          "time": 522.3893125,
          "velocity": 0.7874015748031497
        },
        {
          "duration": 0.15625,
          "durationTicks": 30,
          "midi": 76,
          "name": "E5",
          "ticks": 226590,
          "time": 522.8580625,
          "velocity": 0.7874015748031497
        },
        {
          "duration": 0.46875,
          "durationTicks": 90,
          "midi": 78,
          "name": "F#5",
          "ticks": 226620,
          "time": 523.0143125,
          "velocity": 0.7874015748031497
        },
        {
          "duration": 0.15625,
          "durationTicks": 30,
          "midi": 79,
          "name": "G5",
          "ticks": 226710,
          "time": 523.4830625,
          "velocity": 0.7874015748031497
        },
        {
          "duration": 0.46875,
          "durationTicks": 90,
          "midi": 81,
          "name": "A5",
          "ticks": 226740,
          "time": 523.6393125,
          "velocity": 0.7874015748031497
        },
        {
          "duration": 0.15625,
          "durationTicks": 30,
          "midi": 78,
          "name": "F#5",
          "ticks": 226830,
          "time": 524.1080625,
          "velocity": 0.7874015748031497
        },
        {
          "duration": 0.15625,
          "durationTicks": 30,
          "midi": 76,
          "name": "E5",
          "ticks": 226860,
          "time": 524.2643125,
          "velocity": 0.7874015748031497
        },
        {
          "duration": 0.15625,
          "durationTicks": 30,
          "midi": 74,
          "name": "D5",
          "ticks": 226890,
          "time": 524.4205625,
          "velocity": 0.7874015748031497
        },
        {
          "duration": 0.15625,
          "durationTicks": 30,
          "midi": 79,
          "name": "G5",
          "ticks": 226920,
          "time": 524.5768125,
          "velocity": 0.7874015748031497
        },
        {
          "duration": 0.15625,
          "durationTicks": 30,
          "midi": 81,
          "name": "A5",
          "ticks": 226950,
          "time": 524.7330625,
          "velocity": 0.7874015748031497
        },
        {
          "duration": 0.46875,
          "durationTicks": 90,
          "midi": 83,
          "name": "B5",
          "ticks": 226980,
          "time": 524.8893125,
          "velocity": 0.7874015748031497
        },
        {
          "duration": 0.15625,
          "durationTicks": 30,
          "midi": 81,
          "name": "A5",
          "ticks": 227070,
          "time": 525.3580625,
          "velocity": 0.7874015748031497
        },
        {
          "duration": 0.15625,
          "durationTicks": 30,
          "midi": 79,
          "name": "G5",
          "ticks": 227100,
          "time": 525.5143125,
          "velocity": 0.7874015748031497
        },
        {
          "duration": 0.15625,
          "durationTicks": 30,
          "midi": 78,
          "name": "F#5",
          "ticks": 227130,
          "time": 525.6705625,
          "velocity": 0.7874015748031497
        },
        {
          "duration": 0.15625,
          "durationTicks": 30,
          "midi": 76,
          "name": "E5",
          "ticks": 227160,
          "time": 525.8268125,
          "velocity": 0.7874015748031497
        },
        {
          "duration": 0.15625,
          "durationTicks": 30,
          "midi": 78,
          "name": "F#5",
          "ticks": 227190,
          "time": 525.9830625,
          "velocity": 0.7874015748031497
        },
        {
          "duration": 0.46875,
          "durationTicks": 90,
          "midi": 79,
          "name": "G5",
          "ticks": 227220,
          "time": 526.1393125,
          "velocity": 0.7874015748031497
        },
        {
          "duration": 0.15625,
          "durationTicks": 30,
          "midi": 78,
          "name": "F#5",
          "ticks": 227310,
          "time": 526.6080625,
          "velocity": 0.7874015748031497
        },
        {
          "duration": 0.15625,
          "durationTicks": 30,
          "midi": 76,
          "name": "E5",
          "ticks": 227340,
          "time": 526.7643125,
          "velocity": 0.7874015748031497
        },
        {
          "duration": 0.15625,
          "durationTicks": 30,
          "midi": 74,
          "name": "D5",
          "ticks": 227370,
          "time": 526.9205625,
          "velocity": 0.7874015748031497
        },
        {
          "duration": 0.15625,
          "durationTicks": 30,
          "midi": 73,
          "name": "C#5",
          "ticks": 227400,
          "time": 527.0768125,
          "velocity": 0.7874015748031497
        },
        {
          "duration": 0.15625,
          "durationTicks": 30,
          "midi": 74,
          "name": "D5",
          "ticks": 227430,
          "time": 527.2330625,
          "velocity": 0.7874015748031497
        },
        {
          "duration": 0.46875,
          "durationTicks": 90,
          "midi": 76,
          "name": "E5",
          "ticks": 227460,
          "time": 527.3893125,
          "velocity": 0.7874015748031497
        },
        {
          "duration": 0.15625,
          "durationTicks": 30,
          "midi": 74,
          "name": "D5",
          "ticks": 227550,
          "time": 527.8580625,
          "velocity": 0.7874015748031497
        },
        {
          "duration": 0.15625,
          "durationTicks": 30,
          "midi": 73,
          "name": "C#5",
          "ticks": 227580,
          "time": 528.0143125,
          "velocity": 0.7874015748031497
        },
        {
          "duration": 0.15625,
          "durationTicks": 30,
          "midi": 71,
          "name": "B4",
          "ticks": 227610,
          "time": 528.1705625,
          "velocity": 0.7874015748031497
        },
        {
          "duration": 0.10416666666674246,
          "durationTicks": 20,
          "midi": 67,
          "name": "G4",
          "ticks": 227640,
          "time": 528.3268125,
          "velocity": 0.7874015748031497
        },
        {
          "duration": 0.10416666666662877,
          "durationTicks": 20,
          "midi": 69,
          "name": "A4",
          "ticks": 227660,
          "time": 528.4309791666667,
          "velocity": 0.7874015748031497
        },
        {
          "duration": 0.10416666666662877,
          "durationTicks": 20,
          "midi": 71,
          "name": "B4",
          "ticks": 227680,
          "time": 528.5351458333333,
          "velocity": 0.7874015748031497
        },
        {
          "duration": 1.71875,
          "durationTicks": 330,
          "midi": 69,
          "name": "A4",
          "ticks": 227700,
          "time": 528.6393125,
          "velocity": 0.7874015748031497
        },
        {
          "duration": 0.15625,
          "durationTicks": 30,
          "midi": 73,
          "name": "C#5",
          "ticks": 228030,
          "time": 530.3580625,
          "velocity": 0.7874015748031497
        },
        {
          "duration": 0.15625,
          "durationTicks": 30,
          "midi": 71,
          "name": "B4",
          "ticks": 228060,
          "time": 530.5143125,
          "velocity": 0.7874015748031497
        },
        {
          "duration": 0.15625,
          "durationTicks": 30,
          "midi": 69,
          "name": "A4",
          "ticks": 228090,
          "time": 530.6705625,
          "velocity": 0.7874015748031497
        },
        {
          "duration": 0.15625,
          "durationTicks": 30,
          "midi": 71,
          "name": "B4",
          "ticks": 228120,
          "time": 530.8268125,
          "velocity": 0.7874015748031497
        },
        {
          "duration": 0.15625,
          "durationTicks": 30,
          "midi": 73,
          "name": "C#5",
          "ticks": 228150,
          "time": 530.9830625,
          "velocity": 0.7874015748031497
        },
        {
          "duration": 0.15625,
          "durationTicks": 30,
          "midi": 74,
          "name": "D5",
          "ticks": 228180,
          "time": 531.1393125,
          "velocity": 0.7874015748031497
        },
        {
          "duration": 0.15625,
          "durationTicks": 30,
          "midi": 76,
          "name": "E5",
          "ticks": 228210,
          "time": 531.2955625,
          "velocity": 0.7874015748031497
        },
        {
          "duration": 0.3125,
          "durationTicks": 60,
          "midi": 78,
          "name": "F#5",
          "ticks": 228240,
          "time": 531.4518125,
          "velocity": 0.7874015748031497
        },
        {
          "duration": 0.3125,
          "durationTicks": 60,
          "midi": 79,
          "name": "G5",
          "ticks": 228300,
          "time": 531.7643125,
          "velocity": 0.7874015748031497
        },
        {
          "duration": 0.15625,
          "durationTicks": 30,
          "midi": 81,
          "name": "A5",
          "ticks": 228360,
          "time": 532.0768125,
          "velocity": 0.7874015748031497
        },
        {
          "duration": 0.15625,
          "durationTicks": 30,
          "midi": 74,
          "name": "D5",
          "ticks": 228390,
          "time": 532.2330625,
          "velocity": 0.7874015748031497
        },
        {
          "duration": 0.15625,
          "durationTicks": 30,
          "midi": 73,
          "name": "C#5",
          "ticks": 228420,
          "time": 532.3893125,
          "velocity": 0.7874015748031497
        },
        {
          "duration": 0.15625,
          "durationTicks": 30,
          "midi": 74,
          "name": "D5",
          "ticks": 228450,
          "time": 532.5455625,
          "velocity": 0.7874015748031497
        },
        {
          "duration": 0.15625,
          "durationTicks": 30,
          "midi": 76,
          "name": "E5",
          "ticks": 228480,
          "time": 532.7018125,
          "velocity": 0.7874015748031497
        },
        {
          "duration": 0.15625,
          "durationTicks": 30,
          "midi": 74,
          "name": "D5",
          "ticks": 228510,
          "time": 532.8580625,
          "velocity": 0.7874015748031497
        },
        {
          "duration": 0.15625,
          "durationTicks": 30,
          "midi": 73,
          "name": "C#5",
          "ticks": 228540,
          "time": 533.0143125,
          "velocity": 0.7874015748031497
        },
        {
          "duration": 0.15625,
          "durationTicks": 30,
          "midi": 74,
          "name": "D5",
          "ticks": 228570,
          "time": 533.1705625,
          "velocity": 0.7874015748031497
        },
        {
          "duration": 2.5,
          "durationTicks": 480,
          "midi": 81,
          "name": "A5",
          "ticks": 228600,
          "time": 533.3268125,
          "velocity": 0.7874015748031497
        },
        {
          "duration": 0.15625,
          "durationTicks": 30,
          "midi": 69,
          "name": "A4",
          "ticks": 228600,
          "time": 533.3268125,
          "velocity": 0.7874015748031497
        },
        {
          "duration": 0.15625,
          "durationTicks": 30,
          "midi": 74,
          "name": "D5",
          "ticks": 228630,
          "time": 533.4830625,
          "velocity": 0.7874015748031497
        },
        {
          "duration": 0.15625,
          "durationTicks": 30,
          "midi": 67,
          "name": "G4",
          "ticks": 228660,
          "time": 533.6393125,
          "velocity": 0.7874015748031497
        },
        {
          "duration": 0.15625,
          "durationTicks": 30,
          "midi": 74,
          "name": "D5",
          "ticks": 228690,
          "time": 533.7955625,
          "velocity": 0.7874015748031497
        },
        {
          "duration": 0.15625,
          "durationTicks": 30,
          "midi": 66,
          "name": "F#4",
          "ticks": 228720,
          "time": 533.9518125,
          "velocity": 0.7874015748031497
        },
        {
          "duration": 0.15625,
          "durationTicks": 30,
          "midi": 74,
          "name": "D5",
          "ticks": 228750,
          "time": 534.1080625,
          "velocity": 0.7874015748031497
        },
        {
          "duration": 0.15625,
          "durationTicks": 30,
          "midi": 64,
          "name": "E4",
          "ticks": 228780,
          "time": 534.2643125,
          "velocity": 0.7874015748031497
        },
        {
          "duration": 0.15625,
          "durationTicks": 30,
          "midi": 74,
          "name": "D5",
          "ticks": 228810,
          "time": 534.4205625,
          "velocity": 0.7874015748031497
        },
        {
          "duration": 0.15625,
          "durationTicks": 30,
          "midi": 66,
          "name": "F#4",
          "ticks": 228840,
          "time": 534.5768125,
          "velocity": 0.7874015748031497
        },
        {
          "duration": 0.15625,
          "durationTicks": 30,
          "midi": 74,
          "name": "D5",
          "ticks": 228870,
          "time": 534.7330625,
          "velocity": 0.7874015748031497
        },
        {
          "duration": 0.15625,
          "durationTicks": 30,
          "midi": 69,
          "name": "A4",
          "ticks": 228900,
          "time": 534.8893125,
          "velocity": 0.7874015748031497
        },
        {
          "duration": 0.15625,
          "durationTicks": 30,
          "midi": 74,
          "name": "D5",
          "ticks": 228930,
          "time": 535.0455625,
          "velocity": 0.7874015748031497
        },
        {
          "duration": 0.15625,
          "durationTicks": 30,
          "midi": 66,
          "name": "F#4",
          "ticks": 228960,
          "time": 535.2018125,
          "velocity": 0.7874015748031497
        },
        {
          "duration": 0.15625,
          "durationTicks": 30,
          "midi": 74,
          "name": "D5",
          "ticks": 228990,
          "time": 535.3580625,
          "velocity": 0.7874015748031497
        },
        {
          "duration": 0.15625,
          "durationTicks": 30,
          "midi": 62,
          "name": "D4",
          "ticks": 229020,
          "time": 535.5143125,
          "velocity": 0.7874015748031497
        },
        {
          "duration": 0.15625,
          "durationTicks": 30,
          "midi": 72,
          "name": "C5",
          "ticks": 229050,
          "time": 535.6705625,
          "velocity": 0.7874015748031497
        },
        {
          "duration": 1.25,
          "durationTicks": 240,
          "midi": 81,
          "name": "A5",
          "ticks": 229080,
          "time": 535.8268125,
          "velocity": 0.7874015748031497
        },
        {
          "duration": 0.15625,
          "durationTicks": 30,
          "midi": 71,
          "name": "B4",
          "ticks": 229080,
          "time": 535.8268125,
          "velocity": 0.7874015748031497
        },
        {
          "duration": 0.15625,
          "durationTicks": 30,
          "midi": 74,
          "name": "D5",
          "ticks": 229110,
          "time": 535.9830625,
          "velocity": 0.7874015748031497
        },
        {
          "duration": 0.15625,
          "durationTicks": 30,
          "midi": 73,
          "name": "C#5",
          "ticks": 229140,
          "time": 536.1393125,
          "velocity": 0.7874015748031497
        },
        {
          "duration": 0.15625,
          "durationTicks": 30,
          "midi": 74,
          "name": "D5",
          "ticks": 229170,
          "time": 536.2955625,
          "velocity": 0.7874015748031497
        },
        {
          "duration": 0.15625,
          "durationTicks": 30,
          "midi": 76,
          "name": "E5",
          "ticks": 229200,
          "time": 536.4518125,
          "velocity": 0.7874015748031497
        },
        {
          "duration": 0.15625,
          "durationTicks": 30,
          "midi": 74,
          "name": "D5",
          "ticks": 229230,
          "time": 536.6080625,
          "velocity": 0.7874015748031497
        },
        {
          "duration": 0.15625,
          "durationTicks": 30,
          "midi": 73,
          "name": "C#5",
          "ticks": 229260,
          "time": 536.7643125,
          "velocity": 0.7874015748031497
        },
        {
          "duration": 0.15625,
          "durationTicks": 30,
          "midi": 74,
          "name": "D5",
          "ticks": 229290,
          "time": 536.9205625,
          "velocity": 0.7874015748031497
        },
        {
          "duration": 1.875,
          "durationTicks": 360,
          "midi": 79,
          "name": "G5",
          "ticks": 229320,
          "time": 537.0768125,
          "velocity": 0.7874015748031497
        },
        {
          "duration": 0.15625,
          "durationTicks": 30,
          "midi": 71,
          "name": "B4",
          "ticks": 229320,
          "time": 537.0768125,
          "velocity": 0.7874015748031497
        },
        {
          "duration": 0.15625,
          "durationTicks": 30,
          "midi": 74,
          "name": "D5",
          "ticks": 229350,
          "time": 537.2330625,
          "velocity": 0.7874015748031497
        },
        {
          "duration": 0.15625,
          "durationTicks": 30,
          "midi": 69,
          "name": "A4",
          "ticks": 229380,
          "time": 537.3893125,
          "velocity": 0.7874015748031497
        },
        {
          "duration": 0.15625,
          "durationTicks": 30,
          "midi": 74,
          "name": "D5",
          "ticks": 229410,
          "time": 537.5455625,
          "velocity": 0.7874015748031497
        },
        {
          "duration": 0.15625,
          "durationTicks": 30,
          "midi": 67,
          "name": "G4",
          "ticks": 229440,
          "time": 537.7018125,
          "velocity": 0.7874015748031497
        },
        {
          "duration": 0.15625,
          "durationTicks": 30,
          "midi": 74,
          "name": "D5",
          "ticks": 229470,
          "time": 537.8580625,
          "velocity": 0.7874015748031497
        },
        {
          "duration": 0.15625,
          "durationTicks": 30,
          "midi": 66,
          "name": "F#4",
          "ticks": 229500,
          "time": 538.0143125,
          "velocity": 0.7874015748031497
        },
        {
          "duration": 0.15625,
          "durationTicks": 30,
          "midi": 74,
          "name": "D5",
          "ticks": 229530,
          "time": 538.1705625,
          "velocity": 0.7874015748031497
        },
        {
          "duration": 0.15625,
          "durationTicks": 30,
          "midi": 67,
          "name": "G4",
          "ticks": 229560,
          "time": 538.3268125,
          "velocity": 0.7874015748031497
        },
        {
          "duration": 0.15625,
          "durationTicks": 30,
          "midi": 74,
          "name": "D5",
          "ticks": 229590,
          "time": 538.4830625,
          "velocity": 0.7874015748031497
        },
        {
          "duration": 0.15625,
          "durationTicks": 30,
          "midi": 71,
          "name": "B4",
          "ticks": 229620,
          "time": 538.6393125,
          "velocity": 0.7874015748031497
        },
        {
          "duration": 0.15625,
          "durationTicks": 30,
          "midi": 74,
          "name": "D5",
          "ticks": 229650,
          "time": 538.7955625,
          "velocity": 0.7874015748031497
        },
        {
          "duration": 0.625,
          "durationTicks": 120,
          "midi": 76,
          "name": "E5",
          "ticks": 229680,
          "time": 538.9518125,
          "velocity": 0.7874015748031497
        },
        {
          "duration": 0.15625,
          "durationTicks": 30,
          "midi": 67,
          "name": "G4",
          "ticks": 229680,
          "time": 538.9518125,
          "velocity": 0.7874015748031497
        },
        {
          "duration": 0.15625,
          "durationTicks": 30,
          "midi": 74,
          "name": "D5",
          "ticks": 229710,
          "time": 539.1080625,
          "velocity": 0.7874015748031497
        },
        {
          "duration": 0.15625,
          "durationTicks": 30,
          "midi": 64,
          "name": "E4",
          "ticks": 229740,
          "time": 539.2643125,
          "velocity": 0.7874015748031497
        },
        {
          "duration": 0.15625,
          "durationTicks": 30,
          "midi": 74,
          "name": "D5",
          "ticks": 229770,
          "time": 539.4205625,
          "velocity": 0.7874015748031497
        },
        {
          "duration": 0.15625,
          "durationTicks": 30,
          "midi": 73,
          "name": "C#5",
          "ticks": 229800,
          "time": 539.5768125,
          "velocity": 0.7874015748031497
        },
        {
          "duration": 0.15625,
          "durationTicks": 30,
          "midi": 67,
          "name": "G4",
          "ticks": 229830,
          "time": 539.7330625,
          "velocity": 0.7874015748031497
        },
        {
          "duration": 0.15625,
          "durationTicks": 30,
          "midi": 66,
          "name": "F#4",
          "ticks": 229860,
          "time": 539.8893125,
          "velocity": 0.7874015748031497
        },
        {
          "duration": 0.15625,
          "durationTicks": 30,
          "midi": 67,
          "name": "G4",
          "ticks": 229890,
          "time": 540.0455625,
          "velocity": 0.7874015748031497
        },
        {
          "duration": 0.15625,
          "durationTicks": 30,
          "midi": 69,
          "name": "A4",
          "ticks": 229920,
          "time": 540.2018125,
          "velocity": 0.7874015748031497
        },
        {
          "duration": 0.15625,
          "durationTicks": 30,
          "midi": 67,
          "name": "G4",
          "ticks": 229950,
          "time": 540.3580625,
          "velocity": 0.7874015748031497
        },
        {
          "duration": 0.15625,
          "durationTicks": 30,
          "midi": 66,
          "name": "F#4",
          "ticks": 229980,
          "time": 540.5143125,
          "velocity": 0.7874015748031497
        },
        {
          "duration": 0.15625,
          "durationTicks": 30,
          "midi": 67,
          "name": "G4",
          "ticks": 230010,
          "time": 540.6705625,
          "velocity": 0.7874015748031497
        },
        {
          "duration": 0.15625,
          "durationTicks": 30,
          "midi": 76,
          "name": "E5",
          "ticks": 230040,
          "time": 540.8268125,
          "velocity": 0.7874015748031497
        },
        {
          "duration": 0.15625,
          "durationTicks": 30,
          "midi": 73,
          "name": "C#5",
          "ticks": 230070,
          "time": 540.9830625,
          "velocity": 0.7874015748031497
        },
        {
          "duration": 0.15625,
          "durationTicks": 30,
          "midi": 71,
          "name": "B4",
          "ticks": 230100,
          "time": 541.1393125,
          "velocity": 0.7874015748031497
        },
        {
          "duration": 0.15625,
          "durationTicks": 30,
          "midi": 73,
          "name": "C#5",
          "ticks": 230130,
          "time": 541.2955625,
          "velocity": 0.7874015748031497
        },
        {
          "duration": 0.15625,
          "durationTicks": 30,
          "midi": 74,
          "name": "D5",
          "ticks": 230160,
          "time": 541.4518125,
          "velocity": 0.7874015748031497
        },
        {
          "duration": 0.15625,
          "durationTicks": 30,
          "midi": 73,
          "name": "C#5",
          "ticks": 230190,
          "time": 541.6080625,
          "velocity": 0.7874015748031497
        },
        {
          "duration": 0.15625,
          "durationTicks": 30,
          "midi": 71,
          "name": "B4",
          "ticks": 230220,
          "time": 541.7643125,
          "velocity": 0.7874015748031497
        },
        {
          "duration": 0.15625,
          "durationTicks": 30,
          "midi": 73,
          "name": "C#5",
          "ticks": 230250,
          "time": 541.9205625,
          "velocity": 0.7874015748031497
        },
        {
          "duration": 0.15625,
          "durationTicks": 30,
          "midi": 79,
          "name": "G5",
          "ticks": 230280,
          "time": 542.0768125,
          "velocity": 0.7874015748031497
        },
        {
          "duration": 0.15625,
          "durationTicks": 30,
          "midi": 76,
          "name": "E5",
          "ticks": 230310,
          "time": 542.2330625,
          "velocity": 0.7874015748031497
        },
        {
          "duration": 0.15625,
          "durationTicks": 30,
          "midi": 74,
          "name": "D5",
          "ticks": 230340,
          "time": 542.3893125,
          "velocity": 0.7874015748031497
        },
        {
          "duration": 0.15625,
          "durationTicks": 30,
          "midi": 76,
          "name": "E5",
          "ticks": 230370,
          "time": 542.5455625,
          "velocity": 0.7874015748031497
        },
        {
          "duration": 0.15625,
          "durationTicks": 30,
          "midi": 81,
          "name": "A5",
          "ticks": 230400,
          "time": 542.7018125,
          "velocity": 0.7874015748031497
        },
        {
          "duration": 0.15625,
          "durationTicks": 30,
          "midi": 79,
          "name": "G5",
          "ticks": 230430,
          "time": 542.8580625,
          "velocity": 0.7874015748031497
        },
        {
          "duration": 0.15625,
          "durationTicks": 30,
          "midi": 78,
          "name": "F#5",
          "ticks": 230460,
          "time": 543.0143125,
          "velocity": 0.7874015748031497
        },
        {
          "duration": 0.15625,
          "durationTicks": 30,
          "midi": 76,
          "name": "E5",
          "ticks": 230490,
          "time": 543.1705625,
          "velocity": 0.7874015748031497
        },
        {
          "duration": 0.3125,
          "durationTicks": 60,
          "midi": 78,
          "name": "F#5",
          "ticks": 230520,
          "time": 543.3268125,
          "velocity": 0.7874015748031497
        },
        {
          "duration": 0.3125,
          "durationTicks": 60,
          "midi": 73,
          "name": "C#5",
          "ticks": 230580,
          "time": 543.6393125,
          "velocity": 0.7874015748031497
        },
        {
          "duration": 0.625,
          "durationTicks": 120,
          "midi": 73,
          "name": "C#5",
          "ticks": 230640,
          "time": 543.9518125,
          "velocity": 0.7874015748031497
        },
        {
          "duration": 0.3125,
          "durationTicks": 60,
          "midi": 74,
          "name": "D5",
          "ticks": 230760,
          "time": 544.5768125,
          "velocity": 0.7874015748031497
        },
        {
          "duration": 0.3125,
          "durationTicks": 60,
          "midi": 67,
          "name": "G4",
          "ticks": 230820,
          "time": 544.8893125,
          "velocity": 0.7874015748031497
        },
        {
          "duration": 0.625,
          "durationTicks": 120,
          "midi": 67,
          "name": "G4",
          "ticks": 230880,
          "time": 545.2018125,
          "velocity": 0.7874015748031497
        },
        {
          "duration": 1.25,
          "durationTicks": 240,
          "midi": 66,
          "name": "F#4",
          "ticks": 231000,
          "time": 545.8268125,
          "velocity": 0.7874015748031497
        },
        {
          "duration": 0.15625,
          "durationTicks": 30,
          "midi": 78,
          "name": "F#5",
          "ticks": 231240,
          "time": 547.0768125,
          "velocity": 0.7874015748031497
        },
        {
          "duration": 0.15625,
          "durationTicks": 30,
          "midi": 79,
          "name": "G5",
          "ticks": 231270,
          "time": 547.2330625,
          "velocity": 0.7874015748031497
        },
        {
          "duration": 0.15625,
          "durationTicks": 30,
          "midi": 78,
          "name": "F#5",
          "ticks": 231300,
          "time": 547.3893125,
          "velocity": 0.7874015748031497
        },
        {
          "duration": 0.15625,
          "durationTicks": 30,
          "midi": 76,
          "name": "E5",
          "ticks": 231330,
          "time": 547.5455625,
          "velocity": 0.7874015748031497
        },
        {
          "duration": 0.78125,
          "durationTicks": 150,
          "midi": 78,
          "name": "F#5",
          "ticks": 231360,
          "time": 547.7018125,
          "velocity": 0.7874015748031497
        },
        {
          "duration": 0.15625,
          "durationTicks": 30,
          "midi": 76,
          "name": "E5",
          "ticks": 231510,
          "time": 548.4830625,
          "velocity": 0.7874015748031497
        },
        {
          "duration": 0.15625,
          "durationTicks": 30,
          "midi": 78,
          "name": "F#5",
          "ticks": 231540,
          "time": 548.6393125,
          "velocity": 0.7874015748031497
        },
        {
          "duration": 0.15625,
          "durationTicks": 30,
          "midi": 79,
          "name": "G5",
          "ticks": 231570,
          "time": 548.7955625,
          "velocity": 0.7874015748031497
        },
        {
          "duration": 0.3125,
          "durationTicks": 60,
          "midi": 81,
          "name": "A5",
          "ticks": 231600,
          "time": 548.9518125,
          "velocity": 0.7874015748031497
        },
        {
          "duration": 0.3125,
          "durationTicks": 60,
          "midi": 83,
          "name": "B5",
          "ticks": 231660,
          "time": 549.2643125,
          "velocity": 0.7874015748031497
        },
        {
          "duration": 0.15625,
          "durationTicks": 30,
          "midi": 84,
          "name": "C6",
          "ticks": 231720,
          "time": 549.5768125,
          "velocity": 0.7874015748031497
        },
        {
          "duration": 0.15625,
          "durationTicks": 30,
          "midi": 83,
          "name": "B5",
          "ticks": 231750,
          "time": 549.7330625,
          "velocity": 0.7874015748031497
        },
        {
          "duration": 0.3125,
          "durationTicks": 60,
          "midi": 81,
          "name": "A5",
          "ticks": 231780,
          "time": 549.8893125,
          "velocity": 0.7874015748031497
        },
        {
          "duration": 0.3125,
          "durationTicks": 60,
          "midi": 79,
          "name": "G5",
          "ticks": 231840,
          "time": 550.2018125,
          "velocity": 0.7874015748031497
        },
        {
          "duration": 0.3125,
          "durationTicks": 60,
          "midi": 78,
          "name": "F#5",
          "ticks": 231900,
          "time": 550.5143125,
          "velocity": 0.7874015748031497
        },
        {
          "duration": 0.15625,
          "durationTicks": 30,
          "midi": 79,
          "name": "G5",
          "ticks": 231960,
          "time": 550.8268125,
          "velocity": 0.7874015748031497
        },
        {
          "duration": 0.15625,
          "durationTicks": 30,
          "midi": 81,
          "name": "A5",
          "ticks": 231990,
          "time": 550.9830625,
          "velocity": 0.7874015748031497
        },
        {
          "duration": 0.15625,
          "durationTicks": 30,
          "midi": 79,
          "name": "G5",
          "ticks": 232020,
          "time": 551.1393125,
          "velocity": 0.7874015748031497
        },
        {
          "duration": 0.15625,
          "durationTicks": 30,
          "midi": 78,
          "name": "F#5",
          "ticks": 232050,
          "time": 551.2955625,
          "velocity": 0.7874015748031497
        },
        {
          "duration": 0.78125,
          "durationTicks": 150,
          "midi": 79,
          "name": "G5",
          "ticks": 232080,
          "time": 551.4518125,
          "velocity": 0.7874015748031497
        },
        {
          "duration": 0.15625,
          "durationTicks": 30,
          "midi": 66,
          "name": "F#4",
          "ticks": 232230,
          "time": 552.2330625,
          "velocity": 0.7874015748031497
        },
        {
          "duration": 0.15625,
          "durationTicks": 30,
          "midi": 67,
          "name": "G4",
          "ticks": 232260,
          "time": 552.3893125,
          "velocity": 0.7874015748031497
        },
        {
          "duration": 0.15625,
          "durationTicks": 30,
          "midi": 69,
          "name": "A4",
          "ticks": 232290,
          "time": 552.5455625,
          "velocity": 0.7874015748031497
        },
        {
          "duration": 0.3125,
          "durationTicks": 60,
          "midi": 71,
          "name": "B4",
          "ticks": 232320,
          "time": 552.7018125,
          "velocity": 0.7874015748031497
        },
        {
          "duration": 0.3125,
          "durationTicks": 60,
          "midi": 72,
          "name": "C5",
          "ticks": 232380,
          "time": 553.0143125,
          "velocity": 0.7874015748031497
        },
        {
          "duration": 0.15625,
          "durationTicks": 30,
          "midi": 74,
          "name": "D5",
          "ticks": 232440,
          "time": 553.3268125,
          "velocity": 0.7874015748031497
        },
        {
          "duration": 0.15625,
          "durationTicks": 30,
          "midi": 72,
          "name": "C5",
          "ticks": 232470,
          "time": 553.4830625,
          "velocity": 0.7874015748031497
        },
        {
          "duration": 0.3125,
          "durationTicks": 60,
          "midi": 71,
          "name": "B4",
          "ticks": 232500,
          "time": 553.6393125,
          "velocity": 0.7874015748031497
        },
        {
          "duration": 0.3125,
          "durationTicks": 60,
          "midi": 69,
          "name": "A4",
          "ticks": 232560,
          "time": 553.9518125,
          "velocity": 0.7874015748031497
        },
        {
          "duration": 0.3125,
          "durationTicks": 60,
          "midi": 67,
          "name": "G4",
          "ticks": 232620,
          "time": 554.2643125,
          "velocity": 0.7874015748031497
        },
        {
          "duration": 0.15625,
          "durationTicks": 30,
          "midi": 76,
          "name": "E5",
          "ticks": 232680,
          "time": 554.5768125,
          "velocity": 0.7874015748031497
        },
        {
          "duration": 0.15625,
          "durationTicks": 30,
          "midi": 78,
          "name": "F#5",
          "ticks": 232710,
          "time": 554.7330625,
          "velocity": 0.7874015748031497
        },
        {
          "duration": 0.15625,
          "durationTicks": 30,
          "midi": 76,
          "name": "E5",
          "ticks": 232740,
          "time": 554.8893125,
          "velocity": 0.7874015748031497
        },
        {
          "duration": 0.15625,
          "durationTicks": 30,
          "midi": 75,
          "name": "D#5",
          "ticks": 232770,
          "time": 555.0455625,
          "velocity": 0.7874015748031497
        },
        {
          "duration": 0.9375,
          "durationTicks": 180,
          "midi": 76,
          "name": "E5",
          "ticks": 232800,
          "time": 555.2018125,
          "velocity": 0.7874015748031497
        },
        {
          "duration": 0.3125,
          "durationTicks": 60,
          "midi": 80,
          "name": "G#5",
          "ticks": 232980,
          "time": 556.1393125,
          "velocity": 0.7874015748031497
        },
        {
          "duration": 0.3125,
          "durationTicks": 60,
          "midi": 80,
          "name": "G#5",
          "ticks": 233040,
          "time": 556.4518125,
          "velocity": 0.7874015748031497
        },
        {
          "duration": 0.3125,
          "durationTicks": 60,
          "midi": 81,
          "name": "A5",
          "ticks": 233100,
          "time": 556.7643125,
          "velocity": 0.7874015748031497
        },
        {
          "duration": 0.3125,
          "durationTicks": 60,
          "midi": 81,
          "name": "A5",
          "ticks": 233160,
          "time": 557.0768125,
          "velocity": 0.7874015748031497
        },
        {
          "duration": 0.3125,
          "durationTicks": 60,
          "midi": 83,
          "name": "B5",
          "ticks": 233220,
          "time": 557.3893125,
          "velocity": 0.7874015748031497
        },
        {
          "duration": 0.3125,
          "durationTicks": 60,
          "midi": 83,
          "name": "B5",
          "ticks": 233280,
          "time": 557.7018125,
          "velocity": 0.7874015748031497
        },
        {
          "duration": 0.3125,
          "durationTicks": 60,
          "midi": 84,
          "name": "C6",
          "ticks": 233340,
          "time": 558.0143125,
          "velocity": 0.7874015748031497
        },
        {
          "duration": 0.15625,
          "durationTicks": 30,
          "midi": 76,
          "name": "E5",
          "ticks": 233400,
          "time": 558.3268125,
          "velocity": 0.7874015748031497
        },
        {
          "duration": 0.15625,
          "durationTicks": 30,
          "midi": 75,
          "name": "D#5",
          "ticks": 233430,
          "time": 558.4830625,
          "velocity": 0.7874015748031497
        },
        {
          "duration": 0.3125,
          "durationTicks": 60,
          "midi": 73,
          "name": "C#5",
          "ticks": 233460,
          "time": 558.6393125,
          "velocity": 0.7874015748031497
        },
        {
          "duration": 1.40625,
          "durationTicks": 270,
          "midi": 75,
          "name": "D#5",
          "ticks": 233520,
          "time": 558.9518125,
          "velocity": 0.7874015748031497
        },
        {
          "duration": 0.15625,
          "durationTicks": 30,
          "midi": 75,
          "name": "D#5",
          "ticks": 233790,
          "time": 560.3580625,
          "velocity": 0.7874015748031497
        },
        {
          "duration": 0.15625,
          "durationTicks": 30,
          "midi": 76,
          "name": "E5",
          "ticks": 233820,
          "time": 560.5143125,
          "velocity": 0.7874015748031497
        },
        {
          "duration": 0.15625,
          "durationTicks": 30,
          "midi": 78,
          "name": "F#5",
          "ticks": 233850,
          "time": 560.6705625,
          "velocity": 0.7874015748031497
        },
        {
          "duration": 0.15625,
          "durationTicks": 30,
          "midi": 76,
          "name": "E5",
          "ticks": 233880,
          "time": 560.8268125,
          "velocity": 0.7874015748031497
        },
        {
          "duration": 0.15625,
          "durationTicks": 30,
          "midi": 75,
          "name": "D#5",
          "ticks": 233910,
          "time": 560.9830625,
          "velocity": 0.7874015748031497
        },
        {
          "duration": 0.15625,
          "durationTicks": 30,
          "midi": 73,
          "name": "C#5",
          "ticks": 233940,
          "time": 561.1393125,
          "velocity": 0.7874015748031497
        },
        {
          "duration": 0.15625,
          "durationTicks": 30,
          "midi": 71,
          "name": "B4",
          "ticks": 233970,
          "time": 561.2955625,
          "velocity": 0.7874015748031497
        },
        {
          "duration": 0.15625,
          "durationTicks": 30,
          "midi": 69,
          "name": "A4",
          "ticks": 234000,
          "time": 561.4518125,
          "velocity": 0.7874015748031497
        },
        {
          "duration": 0.15625,
          "durationTicks": 30,
          "midi": 67,
          "name": "G4",
          "ticks": 234030,
          "time": 561.6080625,
          "velocity": 0.7874015748031497
        },
        {
          "duration": 0.15625,
          "durationTicks": 30,
          "midi": 69,
          "name": "A4",
          "ticks": 234060,
          "time": 561.7643125,
          "velocity": 0.7874015748031497
        },
        {
          "duration": 0.15625,
          "durationTicks": 30,
          "midi": 78,
          "name": "F#5",
          "ticks": 234090,
          "time": 561.9205625,
          "velocity": 0.7874015748031497
        },
        {
          "duration": 0.15625,
          "durationTicks": 30,
          "midi": 67,
          "name": "G4",
          "ticks": 234120,
          "time": 562.0768125,
          "velocity": 0.7874015748031497
        },
        {
          "duration": 0.15625,
          "durationTicks": 30,
          "midi": 76,
          "name": "E5",
          "ticks": 234150,
          "time": 562.2330625,
          "velocity": 0.7874015748031497
        },
        {
          "duration": 0.15625,
          "durationTicks": 30,
          "midi": 75,
          "name": "D#5",
          "ticks": 234180,
          "time": 562.3893125,
          "velocity": 0.7874015748031497
        },
        {
          "duration": 0.15625,
          "durationTicks": 30,
          "midi": 76,
          "name": "E5",
          "ticks": 234210,
          "time": 562.5455625,
          "velocity": 0.7874015748031497
        },
        {
          "duration": 0.15625,
          "durationTicks": 30,
          "midi": 77,
          "name": "F5",
          "ticks": 234240,
          "time": 562.7018125,
          "velocity": 0.7874015748031497
        },
        {
          "duration": 0.15625,
          "durationTicks": 30,
          "midi": 76,
          "name": "E5",
          "ticks": 234270,
          "time": 562.8580625,
          "velocity": 0.7874015748031497
        },
        {
          "duration": 0.15625,
          "durationTicks": 30,
          "midi": 75,
          "name": "D#5",
          "ticks": 234300,
          "time": 563.0143125,
          "velocity": 0.7874015748031497
        },
        {
          "duration": 0.15625,
          "durationTicks": 30,
          "midi": 76,
          "name": "E5",
          "ticks": 234330,
          "time": 563.1705625,
          "velocity": 0.7874015748031497
        },
        {
          "duration": 0.15625,
          "durationTicks": 30,
          "midi": 78,
          "name": "F#5",
          "ticks": 234360,
          "time": 563.3268125,
          "velocity": 0.7874015748031497
        },
        {
          "duration": 0.15625,
          "durationTicks": 30,
          "midi": 76,
          "name": "E5",
          "ticks": 234390,
          "time": 563.4830625,
          "velocity": 0.7874015748031497
        },
        {
          "duration": 0.15625,
          "durationTicks": 30,
          "midi": 79,
          "name": "G5",
          "ticks": 234420,
          "time": 563.6393125,
          "velocity": 0.7874015748031497
        },
        {
          "duration": 0.15625,
          "durationTicks": 30,
          "midi": 76,
          "name": "E5",
          "ticks": 234450,
          "time": 563.7955625,
          "velocity": 0.7874015748031497
        },
        {
          "duration": 0.15625,
          "durationTicks": 30,
          "midi": 81,
          "name": "A5",
          "ticks": 234480,
          "time": 563.9518125,
          "velocity": 0.7874015748031497
        },
        {
          "duration": 0.15625,
          "durationTicks": 30,
          "midi": 76,
          "name": "E5",
          "ticks": 234510,
          "time": 564.1080625,
          "velocity": 0.7874015748031497
        },
        {
          "duration": 0.15625,
          "durationTicks": 30,
          "midi": 83,
          "name": "B5",
          "ticks": 234540,
          "time": 564.2643125,
          "velocity": 0.7874015748031497
        },
        {
          "duration": 0.15625,
          "durationTicks": 30,
          "midi": 76,
          "name": "E5",
          "ticks": 234570,
          "time": 564.4205625,
          "velocity": 0.7874015748031497
        },
        {
          "duration": 0.15625,
          "durationTicks": 30,
          "midi": 84,
          "name": "C6",
          "ticks": 234600,
          "time": 564.5768125,
          "velocity": 0.7874015748031497
        },
        {
          "duration": 0.15625,
          "durationTicks": 30,
          "midi": 76,
          "name": "E5",
          "ticks": 234630,
          "time": 564.7330625,
          "velocity": 0.7874015748031497
        },
        {
          "duration": 0.15625,
          "durationTicks": 30,
          "midi": 86,
          "name": "D6",
          "ticks": 234660,
          "time": 564.8893125,
          "velocity": 0.7874015748031497
        },
        {
          "duration": 0.15625,
          "durationTicks": 30,
          "midi": 76,
          "name": "E5",
          "ticks": 234690,
          "time": 565.0455625,
          "velocity": 0.7874015748031497
        },
        {
          "duration": 0.15625,
          "durationTicks": 30,
          "midi": 84,
          "name": "C6",
          "ticks": 234720,
          "time": 565.2018125,
          "velocity": 0.7874015748031497
        },
        {
          "duration": 0.15625,
          "durationTicks": 30,
          "midi": 76,
          "name": "E5",
          "ticks": 234750,
          "time": 565.3580625,
          "velocity": 0.7874015748031497
        },
        {
          "duration": 0.15625,
          "durationTicks": 30,
          "midi": 83,
          "name": "B5",
          "ticks": 234780,
          "time": 565.5143125,
          "velocity": 0.7874015748031497
        },
        {
          "duration": 0.15625,
          "durationTicks": 30,
          "midi": 76,
          "name": "E5",
          "ticks": 234810,
          "time": 565.6705625,
          "velocity": 0.7874015748031497
        },
        {
          "duration": 0.15625,
          "durationTicks": 30,
          "midi": 84,
          "name": "C6",
          "ticks": 234840,
          "time": 565.8268125,
          "velocity": 0.7874015748031497
        },
        {
          "duration": 0.15625,
          "durationTicks": 30,
          "midi": 76,
          "name": "E5",
          "ticks": 234870,
          "time": 565.9830625,
          "velocity": 0.7874015748031497
        },
        {
          "duration": 0.15625,
          "durationTicks": 30,
          "midi": 75,
          "name": "D#5",
          "ticks": 234900,
          "time": 566.1393125,
          "velocity": 0.7874015748031497
        },
        {
          "duration": 0.15625,
          "durationTicks": 30,
          "midi": 76,
          "name": "E5",
          "ticks": 234930,
          "time": 566.2955625,
          "velocity": 0.7874015748031497
        },
        {
          "duration": 0.15625,
          "durationTicks": 30,
          "midi": 77,
          "name": "F5",
          "ticks": 234960,
          "time": 566.4518125,
          "velocity": 0.7874015748031497
        },
        {
          "duration": 0.15625,
          "durationTicks": 30,
          "midi": 76,
          "name": "E5",
          "ticks": 234990,
          "time": 566.6080625,
          "velocity": 0.7874015748031497
        },
        {
          "duration": 0.15625,
          "durationTicks": 30,
          "midi": 75,
          "name": "D#5",
          "ticks": 235020,
          "time": 566.7643125,
          "velocity": 0.7874015748031497
        },
        {
          "duration": 0.15625,
          "durationTicks": 30,
          "midi": 76,
          "name": "E5",
          "ticks": 235050,
          "time": 566.9205625,
          "velocity": 0.7874015748031497
        },
        {
          "duration": 0.15625,
          "durationTicks": 30,
          "midi": 84,
          "name": "C6",
          "ticks": 235080,
          "time": 567.0768125,
          "velocity": 0.7874015748031497
        },
        {
          "duration": 0.15625,
          "durationTicks": 30,
          "midi": 76,
          "name": "E5",
          "ticks": 235110,
          "time": 567.2330625,
          "velocity": 0.7874015748031497
        },
        {
          "duration": 0.15625,
          "durationTicks": 30,
          "midi": 83,
          "name": "B5",
          "ticks": 235140,
          "time": 567.3893125,
          "velocity": 0.7874015748031497
        },
        {
          "duration": 0.15625,
          "durationTicks": 30,
          "midi": 76,
          "name": "E5",
          "ticks": 235170,
          "time": 567.5455625,
          "velocity": 0.7874015748031497
        },
        {
          "duration": 0.15625,
          "durationTicks": 30,
          "midi": 81,
          "name": "A5",
          "ticks": 235200,
          "time": 567.7018125,
          "velocity": 0.7874015748031497
        },
        {
          "duration": 0.15625,
          "durationTicks": 30,
          "midi": 76,
          "name": "E5",
          "ticks": 235230,
          "time": 567.8580625,
          "velocity": 0.7874015748031497
        },
        {
          "duration": 0.15625,
          "durationTicks": 30,
          "midi": 79,
          "name": "G5",
          "ticks": 235260,
          "time": 568.0143125,
          "velocity": 0.7874015748031497
        },
        {
          "duration": 0.15625,
          "durationTicks": 30,
          "midi": 76,
          "name": "E5",
          "ticks": 235290,
          "time": 568.1705625,
          "velocity": 0.7874015748031497
        },
        {
          "duration": 0.15625,
          "durationTicks": 30,
          "midi": 78,
          "name": "F#5",
          "ticks": 235320,
          "time": 568.3268125,
          "velocity": 0.7874015748031497
        },
        {
          "duration": 0.15625,
          "durationTicks": 30,
          "midi": 76,
          "name": "E5",
          "ticks": 235350,
          "time": 568.4830625,
          "velocity": 0.7874015748031497
        },
        {
          "duration": 0.15625,
          "durationTicks": 30,
          "midi": 79,
          "name": "G5",
          "ticks": 235380,
          "time": 568.6393125,
          "velocity": 0.7874015748031497
        },
        {
          "duration": 0.15625,
          "durationTicks": 30,
          "midi": 76,
          "name": "E5",
          "ticks": 235410,
          "time": 568.7955625,
          "velocity": 0.7874015748031497
        },
        {
          "duration": 0.15625,
          "durationTicks": 30,
          "midi": 81,
          "name": "A5",
          "ticks": 235440,
          "time": 568.9518125,
          "velocity": 0.7874015748031497
        },
        {
          "duration": 0.15625,
          "durationTicks": 30,
          "midi": 76,
          "name": "E5",
          "ticks": 235470,
          "time": 569.1080625,
          "velocity": 0.7874015748031497
        },
        {
          "duration": 0.15625,
          "durationTicks": 30,
          "midi": 75,
          "name": "D#5",
          "ticks": 235500,
          "time": 569.2643125,
          "velocity": 0.7874015748031497
        },
        {
          "duration": 0.15625,
          "durationTicks": 30,
          "midi": 73,
          "name": "C#5",
          "ticks": 235530,
          "time": 569.4205625,
          "velocity": 0.7874015748031497
        },
        {
          "duration": 0.15625,
          "durationTicks": 30,
          "midi": 75,
          "name": "D#5",
          "ticks": 235560,
          "time": 569.5768125,
          "velocity": 0.7874015748031497
        },
        {
          "duration": 0.15625,
          "durationTicks": 30,
          "midi": 81,
          "name": "A5",
          "ticks": 235590,
          "time": 569.7330625,
          "velocity": 0.7874015748031497
        },
        {
          "duration": 0.15625,
          "durationTicks": 30,
          "midi": 79,
          "name": "G5",
          "ticks": 235620,
          "time": 569.8893125,
          "velocity": 0.7874015748031497
        },
        {
          "duration": 0.15625,
          "durationTicks": 30,
          "midi": 81,
          "name": "A5",
          "ticks": 235650,
          "time": 570.0455625,
          "velocity": 0.7874015748031497
        },
        {
          "duration": 0.15625,
          "durationTicks": 30,
          "midi": 83,
          "name": "B5",
          "ticks": 235680,
          "time": 570.2018125,
          "velocity": 0.7874015748031497
        },
        {
          "duration": 0.15625,
          "durationTicks": 30,
          "midi": 81,
          "name": "A5",
          "ticks": 235710,
          "time": 570.3580625,
          "velocity": 0.7874015748031497
        },
        {
          "duration": 0.15625,
          "durationTicks": 30,
          "midi": 79,
          "name": "G5",
          "ticks": 235740,
          "time": 570.5143125,
          "velocity": 0.7874015748031497
        },
        {
          "duration": 0.15625,
          "durationTicks": 30,
          "midi": 81,
          "name": "A5",
          "ticks": 235770,
          "time": 570.6705625,
          "velocity": 0.7874015748031497
        },
        {
          "duration": 0.15625,
          "durationTicks": 30,
          "midi": 71,
          "name": "B4",
          "ticks": 235800,
          "time": 570.8268125,
          "velocity": 0.7874015748031497
        },
        {
          "duration": 0.15625,
          "durationTicks": 30,
          "midi": 79,
          "name": "G5",
          "ticks": 235830,
          "time": 570.9830625,
          "velocity": 0.7874015748031497
        },
        {
          "duration": 0.15625,
          "durationTicks": 30,
          "midi": 78,
          "name": "F#5",
          "ticks": 235860,
          "time": 571.1393125,
          "velocity": 0.7874015748031497
        },
        {
          "duration": 0.15625,
          "durationTicks": 30,
          "midi": 79,
          "name": "G5",
          "ticks": 235890,
          "time": 571.2955625,
          "velocity": 0.7874015748031497
        },
        {
          "duration": 0.15625,
          "durationTicks": 30,
          "midi": 81,
          "name": "A5",
          "ticks": 235920,
          "time": 571.4518125,
          "velocity": 0.7874015748031497
        },
        {
          "duration": 0.15625,
          "durationTicks": 30,
          "midi": 79,
          "name": "G5",
          "ticks": 235950,
          "time": 571.6080625,
          "velocity": 0.7874015748031497
        },
        {
          "duration": 0.15625,
          "durationTicks": 30,
          "midi": 78,
          "name": "F#5",
          "ticks": 235980,
          "time": 571.7643125,
          "velocity": 0.7874015748031497
        },
        {
          "duration": 0.15625,
          "durationTicks": 30,
          "midi": 79,
          "name": "G5",
          "ticks": 236010,
          "time": 571.9205625,
          "velocity": 0.7874015748031497
        },
        {
          "duration": 0.15625,
          "durationTicks": 30,
          "midi": 69,
          "name": "A4",
          "ticks": 236040,
          "time": 572.0768125,
          "velocity": 0.7874015748031497
        },
        {
          "duration": 0.15625,
          "durationTicks": 30,
          "midi": 78,
          "name": "F#5",
          "ticks": 236070,
          "time": 572.2330625,
          "velocity": 0.7874015748031497
        },
        {
          "duration": 0.15625,
          "durationTicks": 30,
          "midi": 76,
          "name": "E5",
          "ticks": 236100,
          "time": 572.3893125,
          "velocity": 0.7874015748031497
        },
        {
          "duration": 0.15625,
          "durationTicks": 30,
          "midi": 78,
          "name": "F#5",
          "ticks": 236130,
          "time": 572.5455625,
          "velocity": 0.7874015748031497
        },
        {
          "duration": 0.15625,
          "durationTicks": 30,
          "midi": 79,
          "name": "G5",
          "ticks": 236160,
          "time": 572.7018125,
          "velocity": 0.7874015748031497
        },
        {
          "duration": 0.15625,
          "durationTicks": 30,
          "midi": 81,
          "name": "A5",
          "ticks": 236190,
          "time": 572.8580625,
          "velocity": 0.7874015748031497
        },
        {
          "duration": 0.15625,
          "durationTicks": 30,
          "midi": 79,
          "name": "G5",
          "ticks": 236220,
          "time": 573.0143125,
          "velocity": 0.7874015748031497
        },
        {
          "duration": 0.15625,
          "durationTicks": 30,
          "midi": 78,
          "name": "F#5",
          "ticks": 236250,
          "time": 573.1705625,
          "velocity": 0.7874015748031497
        },
        {
          "duration": 0.3125,
          "durationTicks": 60,
          "midi": 79,
          "name": "G5",
          "ticks": 236280,
          "time": 573.3268125,
          "velocity": 0.7874015748031497
        },
        {
          "duration": 0.3125,
          "durationTicks": 60,
          "midi": 75,
          "name": "D#5",
          "ticks": 236340,
          "time": 573.6393125,
          "velocity": 0.7874015748031497
        },
        {
          "duration": 0.3125,
          "durationTicks": 60,
          "midi": 75,
          "name": "D#5",
          "ticks": 236400,
          "time": 573.9518125,
          "velocity": 0.7874015748031497
        },
        {
          "duration": 0.3125,
          "durationTicks": 60,
          "midi": 76,
          "name": "E5",
          "ticks": 236460,
          "time": 574.2643125,
          "velocity": 0.7874015748031497
        },
        {
          "duration": 0.3125,
          "durationTicks": 60,
          "midi": 76,
          "name": "E5",
          "ticks": 236520,
          "time": 574.5768125,
          "velocity": 0.7874015748031497
        },
        {
          "duration": 0.3125,
          "durationTicks": 60,
          "midi": 69,
          "name": "A4",
          "ticks": 236580,
          "time": 574.8893125,
          "velocity": 0.7874015748031497
        },
        {
          "duration": 0.625,
          "durationTicks": 120,
          "midi": 69,
          "name": "A4",
          "ticks": 236640,
          "time": 575.2018125,
          "velocity": 0.7874015748031497
        },
        {
          "duration": 0.78125,
          "durationTicks": 150,
          "midi": 67,
          "name": "G4",
          "ticks": 236760,
          "time": 575.8268125,
          "velocity": 0.7874015748031497
        },
        {
          "duration": 0.15625,
          "durationTicks": 30,
          "midi": 71,
          "name": "B4",
          "ticks": 236910,
          "time": 576.6080625,
          "velocity": 0.7874015748031497
        },
        {
          "duration": 0.15625,
          "durationTicks": 30,
          "midi": 72,
          "name": "C5",
          "ticks": 236940,
          "time": 576.7643125,
          "velocity": 0.7874015748031497
        },
        {
          "duration": 0.15625,
          "durationTicks": 30,
          "midi": 74,
          "name": "D5",
          "ticks": 236970,
          "time": 576.9205625,
          "velocity": 0.7874015748031497
        },
        {
          "duration": 0.15625,
          "durationTicks": 30,
          "midi": 74,
          "name": "D5",
          "ticks": 237000,
          "time": 577.0768125,
          "velocity": 0.7874015748031497
        },
        {
          "duration": 0.15625,
          "durationTicks": 30,
          "midi": 76,
          "name": "E5",
          "ticks": 237030,
          "time": 577.2330625,
          "velocity": 0.7874015748031497
        },
        {
          "duration": 0.15625,
          "durationTicks": 30,
          "midi": 77,
          "name": "F5",
          "ticks": 237060,
          "time": 577.3893125,
          "velocity": 0.7874015748031497
        },
        {
          "duration": 0.15625,
          "durationTicks": 30,
          "midi": 76,
          "name": "E5",
          "ticks": 237090,
          "time": 577.5455625,
          "velocity": 0.7874015748031497
        },
        {
          "duration": 0.15625,
          "durationTicks": 30,
          "midi": 75,
          "name": "D#5",
          "ticks": 237120,
          "time": 577.7018125,
          "velocity": 0.7874015748031497
        },
        {
          "duration": 0.9375,
          "durationTicks": 180,
          "midi": 76,
          "name": "E5",
          "ticks": 237150,
          "time": 577.8580625,
          "velocity": 0.7874015748031497
        },
        {
          "duration": 0.3125,
          "durationTicks": 60,
          "midi": 69,
          "name": "A4",
          "ticks": 237330,
          "time": 578.7955625,
          "velocity": 0.7874015748031497
        },
        {
          "duration": 0.15625,
          "durationTicks": 30,
          "midi": 71,
          "name": "B4",
          "ticks": 237390,
          "time": 579.1080625,
          "velocity": 0.7874015748031497
        },
        {
          "duration": 0.15625,
          "durationTicks": 30,
          "midi": 69,
          "name": "A4",
          "ticks": 237420,
          "time": 579.2643125,
          "velocity": 0.7874015748031497
        },
        {
          "duration": 0.3125,
          "durationTicks": 60,
          "midi": 67,
          "name": "G4",
          "ticks": 237450,
          "time": 579.4205625,
          "velocity": 0.7874015748031497
        },
        {
          "duration": 0.15625,
          "durationTicks": 30,
          "midi": 69,
          "name": "A4",
          "ticks": 237510,
          "time": 579.7330625,
          "velocity": 0.7874015748031497
        },
        {
          "duration": 0.15625,
          "durationTicks": 30,
          "midi": 67,
          "name": "G4",
          "ticks": 237540,
          "time": 579.8893125,
          "velocity": 0.7874015748031497
        },
        {
          "duration": 0.3125,
          "durationTicks": 60,
          "midi": 66,
          "name": "F#4",
          "ticks": 237570,
          "time": 580.0455625,
          "velocity": 0.7874015748031497
        },
        {
          "duration": 0.3125,
          "durationTicks": 60,
          "midi": 66,
          "name": "F#4",
          "ticks": 237630,
          "time": 580.3580625,
          "velocity": 0.7874015748031497
        },
        {
          "duration": 0.3125,
          "durationTicks": 60,
          "midi": 76,
          "name": "E5",
          "ticks": 237690,
          "time": 580.6705625,
          "velocity": 0.7874015748031497
        },
        {
          "duration": 0.15625,
          "durationTicks": 30,
          "midi": 74,
          "name": "D5",
          "ticks": 237750,
          "time": 580.9830625,
          "velocity": 0.7874015748031497
        },
        {
          "duration": 0.15625,
          "durationTicks": 30,
          "midi": 76,
          "name": "E5",
          "ticks": 237780,
          "time": 581.1393125,
          "velocity": 0.7874015748031497
        },
        {
          "duration": 0.15625,
          "durationTicks": 30,
          "midi": 74,
          "name": "D5",
          "ticks": 237810,
          "time": 581.2955625,
          "velocity": 0.7874015748031497
        },
        {
          "duration": 0.15625,
          "durationTicks": 30,
          "midi": 73,
          "name": "C#5",
          "ticks": 237840,
          "time": 581.4518125,
          "velocity": 0.7874015748031497
        },
        {
          "duration": 0.9375,
          "durationTicks": 180,
          "midi": 74,
          "name": "D5",
          "ticks": 237870,
          "time": 581.6080625,
          "velocity": 0.7874015748031497
        },
        {
          "duration": 0.3125,
          "durationTicks": 60,
          "midi": 67,
          "name": "G4",
          "ticks": 238050,
          "time": 582.5455625,
          "velocity": 0.7874015748031497
        },
        {
          "duration": 0.15625,
          "durationTicks": 30,
          "midi": 69,
          "name": "A4",
          "ticks": 238110,
          "time": 582.8580625,
          "velocity": 0.7874015748031497
        },
        {
          "duration": 0.15625,
          "durationTicks": 30,
          "midi": 67,
          "name": "G4",
          "ticks": 238140,
          "time": 583.0143125,
          "velocity": 0.7874015748031497
        },
        {
          "duration": 0.3125,
          "durationTicks": 60,
          "midi": 65,
          "name": "F4",
          "ticks": 238170,
          "time": 583.1705625,
          "velocity": 0.7874015748031497
        },
        {
          "duration": 0.15625,
          "durationTicks": 30,
          "midi": 67,
          "name": "G4",
          "ticks": 238230,
          "time": 583.4830625,
          "velocity": 0.7874015748031497
        },
        {
          "duration": 0.15625,
          "durationTicks": 30,
          "midi": 65,
          "name": "F4",
          "ticks": 238260,
          "time": 583.6393125,
          "velocity": 0.7874015748031497
        },
        {
          "duration": 0.3125,
          "durationTicks": 60,
          "midi": 64,
          "name": "E4",
          "ticks": 238290,
          "time": 583.7955625,
          "velocity": 0.7874015748031497
        },
        {
          "duration": 0.3125,
          "durationTicks": 60,
          "midi": 64,
          "name": "E4",
          "ticks": 238350,
          "time": 584.1080625,
          "velocity": 0.7874015748031497
        },
        {
          "duration": 0.3125,
          "durationTicks": 60,
          "midi": 74,
          "name": "D5",
          "ticks": 238410,
          "time": 584.4205625,
          "velocity": 0.7874015748031497
        },
        {
          "duration": 0.15625,
          "durationTicks": 30,
          "midi": 72,
          "name": "C5",
          "ticks": 238470,
          "time": 584.7330625,
          "velocity": 0.7874015748031497
        },
        {
          "duration": 0.15625,
          "durationTicks": 30,
          "midi": 71,
          "name": "B4",
          "ticks": 238500,
          "time": 584.8893125,
          "velocity": 0.7874015748031497
        },
        {
          "duration": 0.46875,
          "durationTicks": 90,
          "midi": 69,
          "name": "A4",
          "ticks": 238530,
          "time": 585.0455625,
          "velocity": 0.7874015748031497
        },
        {
          "duration": 0.15625,
          "durationTicks": 30,
          "midi": 67,
          "name": "G4",
          "ticks": 238620,
          "time": 585.5143125,
          "velocity": 0.7874015748031497
        },
        {
          "duration": 0.46875,
          "durationTicks": 90,
          "midi": 66,
          "name": "F#4",
          "ticks": 238650,
          "time": 585.6705625,
          "velocity": 0.7874015748031497
        },
        {
          "duration": 0.15625,
          "durationTicks": 30,
          "midi": 64,
          "name": "E4",
          "ticks": 238740,
          "time": 586.1393125,
          "velocity": 0.7874015748031497
        },
        {
          "duration": 0.46875,
          "durationTicks": 90,
          "midi": 62,
          "name": "D4",
          "ticks": 238770,
          "time": 586.2955625,
          "velocity": 0.7874015748031497
        },
        {
          "duration": 0.15625,
          "durationTicks": 30,
          "midi": 64,
          "name": "E4",
          "ticks": 238860,
          "time": 586.7643125,
          "velocity": 0.7874015748031497
        },
        {
          "duration": 0.46875,
          "durationTicks": 90,
          "midi": 66,
          "name": "F#4",
          "ticks": 238890,
          "time": 586.9205625,
          "velocity": 0.7874015748031497
        },
        {
          "duration": 0.15625,
          "durationTicks": 30,
          "midi": 67,
          "name": "G4",
          "ticks": 238980,
          "time": 587.3893125,
          "velocity": 0.7874015748031497
        },
        {
          "duration": 0.46875,
          "durationTicks": 90,
          "midi": 69,
          "name": "A4",
          "ticks": 239010,
          "time": 587.5455625,
          "velocity": 0.7874015748031497
        },
        {
          "duration": 0.15625,
          "durationTicks": 30,
          "midi": 71,
          "name": "B4",
          "ticks": 239100,
          "time": 588.0143125,
          "velocity": 0.7874015748031497
        },
        {
          "duration": 0.3125,
          "durationTicks": 60,
          "midi": 72,
          "name": "C5",
          "ticks": 239130,
          "time": 588.1705625,
          "velocity": 0.7874015748031497
        },
        {
          "duration": 0.15625,
          "durationTicks": 30,
          "midi": 74,
          "name": "D5",
          "ticks": 239190,
          "time": 588.4830625,
          "velocity": 0.7874015748031497
        },
        {
          "duration": 0.15625,
          "durationTicks": 30,
          "midi": 72,
          "name": "C5",
          "ticks": 239220,
          "time": 588.6393125,
          "velocity": 0.7874015748031497
        },
        {
          "duration": 0.15625,
          "durationTicks": 30,
          "midi": 71,
          "name": "B4",
          "ticks": 239250,
          "time": 588.7955625,
          "velocity": 0.7874015748031497
        },
        {
          "duration": 0.15625,
          "durationTicks": 30,
          "midi": 72,
          "name": "C5",
          "ticks": 239280,
          "time": 588.9518125,
          "velocity": 0.7874015748031497
        },
        {
          "duration": 0.15625,
          "durationTicks": 30,
          "midi": 79,
          "name": "G5",
          "ticks": 239310,
          "time": 589.1080625,
          "velocity": 0.7874015748031497
        },
        {
          "duration": 0.15625,
          "durationTicks": 30,
          "midi": 78,
          "name": "F#5",
          "ticks": 239340,
          "time": 589.2643125,
          "velocity": 0.7874015748031497
        },
        {
          "duration": 0.15625,
          "durationTicks": 30,
          "midi": 76,
          "name": "E5",
          "ticks": 239370,
          "time": 589.4205625,
          "velocity": 0.7874015748031497
        },
        {
          "duration": 0.15625,
          "durationTicks": 30,
          "midi": 78,
          "name": "F#5",
          "ticks": 239400,
          "time": 589.5768125,
          "velocity": 0.7874015748031497
        },
        {
          "duration": 0.15625,
          "durationTicks": 30,
          "midi": 83,
          "name": "B5",
          "ticks": 239430,
          "time": 589.7330625,
          "velocity": 0.7874015748031497
        },
        {
          "duration": 0.15625,
          "durationTicks": 30,
          "midi": 81,
          "name": "A5",
          "ticks": 239460,
          "time": 589.8893125,
          "velocity": 0.7874015748031497
        },
        {
          "duration": 0.15625,
          "durationTicks": 30,
          "midi": 79,
          "name": "G5",
          "ticks": 239490,
          "time": 590.0455625,
          "velocity": 0.7874015748031497
        },
        {
          "duration": 0.15625,
          "durationTicks": 30,
          "midi": 81,
          "name": "A5",
          "ticks": 239520,
          "time": 590.2018125,
          "velocity": 0.7874015748031497
        },
        {
          "duration": 0.15625,
          "durationTicks": 30,
          "midi": 86,
          "name": "D6",
          "ticks": 239550,
          "time": 590.3580625,
          "velocity": 0.7874015748031497
        },
        {
          "duration": 0.15625,
          "durationTicks": 30,
          "midi": 84,
          "name": "C6",
          "ticks": 239580,
          "time": 590.5143125,
          "velocity": 0.7874015748031497
        },
        {
          "duration": 0.15625,
          "durationTicks": 30,
          "midi": 83,
          "name": "B5",
          "ticks": 239610,
          "time": 590.6705625,
          "velocity": 0.7874015748031497
        },
        {
          "duration": 0.15625,
          "durationTicks": 30,
          "midi": 84,
          "name": "C6",
          "ticks": 239640,
          "time": 590.8268125,
          "velocity": 0.7874015748031497
        },
        {
          "duration": 0.15625,
          "durationTicks": 30,
          "midi": 83,
          "name": "B5",
          "ticks": 239670,
          "time": 590.9830625,
          "velocity": 0.7874015748031497
        },
        {
          "duration": 0.15625,
          "durationTicks": 30,
          "midi": 81,
          "name": "A5",
          "ticks": 239700,
          "time": 591.1393125,
          "velocity": 0.7874015748031497
        },
        {
          "duration": 0.15625,
          "durationTicks": 30,
          "midi": 79,
          "name": "G5",
          "ticks": 239730,
          "time": 591.2955625,
          "velocity": 0.7874015748031497
        },
        {
          "duration": 0.15625,
          "durationTicks": 30,
          "midi": 78,
          "name": "F#5",
          "ticks": 239760,
          "time": 591.4518125,
          "velocity": 0.7874015748031497
        },
        {
          "duration": 0.15625,
          "durationTicks": 30,
          "midi": 76,
          "name": "E5",
          "ticks": 239790,
          "time": 591.6080625,
          "velocity": 0.7874015748031497
        },
        {
          "duration": 0.15625,
          "durationTicks": 30,
          "midi": 74,
          "name": "D5",
          "ticks": 239820,
          "time": 591.7643125,
          "velocity": 0.7874015748031497
        },
        {
          "duration": 0.15625,
          "durationTicks": 30,
          "midi": 72,
          "name": "C5",
          "ticks": 239850,
          "time": 591.9205625,
          "velocity": 0.7874015748031497
        },
        {
          "duration": 0.15625,
          "durationTicks": 30,
          "midi": 71,
          "name": "B4",
          "ticks": 239880,
          "time": 592.0768125,
          "velocity": 0.7874015748031497
        },
        {
          "duration": 0.15625,
          "durationTicks": 30,
          "midi": 79,
          "name": "G5",
          "ticks": 239910,
          "time": 592.2330625,
          "velocity": 0.7874015748031497
        },
        {
          "duration": 0.15625,
          "durationTicks": 30,
          "midi": 78,
          "name": "F#5",
          "ticks": 239940,
          "time": 592.3893125,
          "velocity": 0.7874015748031497
        },
        {
          "duration": 0.15625,
          "durationTicks": 30,
          "midi": 79,
          "name": "G5",
          "ticks": 239970,
          "time": 592.5455625,
          "velocity": 0.7874015748031497
        },
        {
          "duration": 0.15625,
          "durationTicks": 30,
          "midi": 81,
          "name": "A5",
          "ticks": 240000,
          "time": 592.7018125,
          "velocity": 0.7874015748031497
        },
        {
          "duration": 0.15625,
          "durationTicks": 30,
          "midi": 79,
          "name": "G5",
          "ticks": 240030,
          "time": 592.8580625,
          "velocity": 0.7874015748031497
        },
        {
          "duration": 0.15625,
          "durationTicks": 30,
          "midi": 78,
          "name": "F#5",
          "ticks": 240060,
          "time": 593.0143125,
          "velocity": 0.7874015748031497
        },
        {
          "duration": 0.15625,
          "durationTicks": 30,
          "midi": 79,
          "name": "G5",
          "ticks": 240090,
          "time": 593.1705625,
          "velocity": 0.7874015748031497
        },
        {
          "duration": 0.15625,
          "durationTicks": 30,
          "midi": 72,
          "name": "C5",
          "ticks": 240120,
          "time": 593.3268125,
          "velocity": 0.7874015748031497
        },
        {
          "duration": 0.15625,
          "durationTicks": 30,
          "midi": 78,
          "name": "F#5",
          "ticks": 240150,
          "time": 593.4830625,
          "velocity": 0.7874015748031497
        },
        {
          "duration": 0.15625,
          "durationTicks": 30,
          "midi": 76,
          "name": "E5",
          "ticks": 240180,
          "time": 593.6393125,
          "velocity": 0.7874015748031497
        },
        {
          "duration": 0.15625,
          "durationTicks": 30,
          "midi": 78,
          "name": "F#5",
          "ticks": 240210,
          "time": 593.7955625,
          "velocity": 0.7874015748031497
        },
        {
          "duration": 0.15625,
          "durationTicks": 30,
          "midi": 79,
          "name": "G5",
          "ticks": 240240,
          "time": 593.9518125,
          "velocity": 0.7874015748031497
        },
        {
          "duration": 0.15625,
          "durationTicks": 30,
          "midi": 78,
          "name": "F#5",
          "ticks": 240270,
          "time": 594.1080625,
          "velocity": 0.7874015748031497
        },
        {
          "duration": 0.15625,
          "durationTicks": 30,
          "midi": 76,
          "name": "E5",
          "ticks": 240300,
          "time": 594.2643125,
          "velocity": 0.7874015748031497
        },
        {
          "duration": 0.15625,
          "durationTicks": 30,
          "midi": 78,
          "name": "F#5",
          "ticks": 240330,
          "time": 594.4205625,
          "velocity": 0.7874015748031497
        },
        {
          "duration": 0.15625,
          "durationTicks": 30,
          "midi": 74,
          "name": "D5",
          "ticks": 240360,
          "time": 594.5768125,
          "velocity": 0.7874015748031497
        },
        {
          "duration": 0.15625,
          "durationTicks": 30,
          "midi": 77,
          "name": "F5",
          "ticks": 240390,
          "time": 594.7330625,
          "velocity": 0.7874015748031497
        },
        {
          "duration": 0.15625,
          "durationTicks": 30,
          "midi": 76,
          "name": "E5",
          "ticks": 240420,
          "time": 594.8893125,
          "velocity": 0.7874015748031497
        },
        {
          "duration": 0.15625,
          "durationTicks": 30,
          "midi": 77,
          "name": "F5",
          "ticks": 240450,
          "time": 595.0455625,
          "velocity": 0.7874015748031497
        },
        {
          "duration": 0.15625,
          "durationTicks": 30,
          "midi": 79,
          "name": "G5",
          "ticks": 240480,
          "time": 595.2018125,
          "velocity": 0.7874015748031497
        },
        {
          "duration": 0.15625,
          "durationTicks": 30,
          "midi": 77,
          "name": "F5",
          "ticks": 240510,
          "time": 595.3580625,
          "velocity": 0.7874015748031497
        },
        {
          "duration": 0.15625,
          "durationTicks": 30,
          "midi": 76,
          "name": "E5",
          "ticks": 240540,
          "time": 595.5143125,
          "velocity": 0.7874015748031497
        },
        {
          "duration": 0.15625,
          "durationTicks": 30,
          "midi": 74,
          "name": "D5",
          "ticks": 240570,
          "time": 595.6705625,
          "velocity": 0.7874015748031497
        },
        {
          "duration": 0.15625,
          "durationTicks": 30,
          "midi": 76,
          "name": "E5",
          "ticks": 240600,
          "time": 595.8268125,
          "velocity": 0.7874015748031497
        },
        {
          "duration": 0.15625,
          "durationTicks": 30,
          "midi": 72,
          "name": "C5",
          "ticks": 240630,
          "time": 595.9830625,
          "velocity": 0.7874015748031497
        },
        {
          "duration": 0.15625,
          "durationTicks": 30,
          "midi": 71,
          "name": "B4",
          "ticks": 240660,
          "time": 596.1393125,
          "velocity": 0.7874015748031497
        },
        {
          "duration": 0.15625,
          "durationTicks": 30,
          "midi": 72,
          "name": "C5",
          "ticks": 240690,
          "time": 596.2955625,
          "velocity": 0.7874015748031497
        },
        {
          "duration": 0.15625,
          "durationTicks": 30,
          "midi": 74,
          "name": "D5",
          "ticks": 240720,
          "time": 596.4518125,
          "velocity": 0.7874015748031497
        },
        {
          "duration": 0.15625,
          "durationTicks": 30,
          "midi": 72,
          "name": "C5",
          "ticks": 240750,
          "time": 596.6080625,
          "velocity": 0.7874015748031497
        },
        {
          "duration": 0.15625,
          "durationTicks": 30,
          "midi": 71,
          "name": "B4",
          "ticks": 240780,
          "time": 596.7643125,
          "velocity": 0.7874015748031497
        },
        {
          "duration": 0.15625,
          "durationTicks": 30,
          "midi": 72,
          "name": "C5",
          "ticks": 240810,
          "time": 596.9205625,
          "velocity": 0.7874015748031497
        },
        {
          "duration": 0.15625,
          "durationTicks": 30,
          "midi": 74,
          "name": "D5",
          "ticks": 240840,
          "time": 597.0768125,
          "velocity": 0.7874015748031497
        },
        {
          "duration": 0.15625,
          "durationTicks": 30,
          "midi": 71,
          "name": "B4",
          "ticks": 240870,
          "time": 597.2330625,
          "velocity": 0.7874015748031497
        },
        {
          "duration": 0.15625,
          "durationTicks": 30,
          "midi": 69,
          "name": "A4",
          "ticks": 240900,
          "time": 597.3893125,
          "velocity": 0.7874015748031497
        },
        {
          "duration": 0.15625,
          "durationTicks": 30,
          "midi": 71,
          "name": "B4",
          "ticks": 240930,
          "time": 597.5455625,
          "velocity": 0.7874015748031497
        },
        {
          "duration": 0.15625,
          "durationTicks": 30,
          "midi": 72,
          "name": "C5",
          "ticks": 240960,
          "time": 597.7018125,
          "velocity": 0.7874015748031497
        },
        {
          "duration": 0.15625,
          "durationTicks": 30,
          "midi": 71,
          "name": "B4",
          "ticks": 240990,
          "time": 597.8580625,
          "velocity": 0.7874015748031497
        },
        {
          "duration": 0.15625,
          "durationTicks": 30,
          "midi": 69,
          "name": "A4",
          "ticks": 241020,
          "time": 598.0143125,
          "velocity": 0.7874015748031497
        },
        {
          "duration": 0.15625,
          "durationTicks": 30,
          "midi": 71,
          "name": "B4",
          "ticks": 241050,
          "time": 598.1705625,
          "velocity": 0.7874015748031497
        },
        {
          "duration": 0.15625,
          "durationTicks": 30,
          "midi": 73,
          "name": "C#5",
          "ticks": 241080,
          "time": 598.3268125,
          "velocity": 0.7874015748031497
        },
        {
          "duration": 0.15625,
          "durationTicks": 30,
          "midi": 70,
          "name": "A#4",
          "ticks": 241110,
          "time": 598.4830625,
          "velocity": 0.7874015748031497
        },
        {
          "duration": 0.15625,
          "durationTicks": 30,
          "midi": 69,
          "name": "A4",
          "ticks": 241140,
          "time": 598.6393125,
          "velocity": 0.7874015748031497
        },
        {
          "duration": 0.15625,
          "durationTicks": 30,
          "midi": 70,
          "name": "A#4",
          "ticks": 241170,
          "time": 598.7955625,
          "velocity": 0.7874015748031497
        },
        {
          "duration": 0.15625,
          "durationTicks": 30,
          "midi": 72,
          "name": "C5",
          "ticks": 241200,
          "time": 598.9518125,
          "velocity": 0.7874015748031497
        },
        {
          "duration": 0.15625,
          "durationTicks": 30,
          "midi": 70,
          "name": "A#4",
          "ticks": 241230,
          "time": 599.1080625,
          "velocity": 0.7874015748031497
        },
        {
          "duration": 0.15625,
          "durationTicks": 30,
          "midi": 69,
          "name": "A4",
          "ticks": 241260,
          "time": 599.2643125,
          "velocity": 0.7874015748031497
        },
        {
          "duration": 0.15625,
          "durationTicks": 30,
          "midi": 67,
          "name": "G4",
          "ticks": 241290,
          "time": 599.4205625,
          "velocity": 0.7874015748031497
        },
        {
          "duration": 0.15625,
          "durationTicks": 30,
          "midi": 66,
          "name": "F#4",
          "ticks": 241320,
          "time": 599.5768125,
          "velocity": 0.7874015748031497
        },
        {
          "duration": 0.15625,
          "durationTicks": 30,
          "midi": 72,
          "name": "C5",
          "ticks": 241350,
          "time": 599.7330625,
          "velocity": 0.7874015748031497
        },
        {
          "duration": 0.15625,
          "durationTicks": 30,
          "midi": 71,
          "name": "B4",
          "ticks": 241380,
          "time": 599.8893125,
          "velocity": 0.7874015748031497
        },
        {
          "duration": 0.15625,
          "durationTicks": 30,
          "midi": 72,
          "name": "C5",
          "ticks": 241410,
          "time": 600.0455625,
          "velocity": 0.7874015748031497
        },
        {
          "duration": 0.15625,
          "durationTicks": 30,
          "midi": 74,
          "name": "D5",
          "ticks": 241440,
          "time": 600.2018125,
          "velocity": 0.7874015748031497
        },
        {
          "duration": 0.15625,
          "durationTicks": 30,
          "midi": 72,
          "name": "C5",
          "ticks": 241470,
          "time": 600.3580625,
          "velocity": 0.7874015748031497
        },
        {
          "duration": 0.15625,
          "durationTicks": 30,
          "midi": 71,
          "name": "B4",
          "ticks": 241500,
          "time": 600.5143125,
          "velocity": 0.7874015748031497
        },
        {
          "duration": 0.15625,
          "durationTicks": 30,
          "midi": 72,
          "name": "C5",
          "ticks": 241530,
          "time": 600.6705625,
          "velocity": 0.7874015748031497
        },
        {
          "duration": 0.15625,
          "durationTicks": 30,
          "midi": 78,
          "name": "F#5",
          "ticks": 241560,
          "time": 600.8268125,
          "velocity": 0.7874015748031497
        },
        {
          "duration": 0.15625,
          "durationTicks": 30,
          "midi": 72,
          "name": "C5",
          "ticks": 241590,
          "time": 600.9830625,
          "velocity": 0.7874015748031497
        },
        {
          "duration": 0.15625,
          "durationTicks": 30,
          "midi": 71,
          "name": "B4",
          "ticks": 241620,
          "time": 601.1393125,
          "velocity": 0.7874015748031497
        },
        {
          "duration": 0.15625,
          "durationTicks": 30,
          "midi": 72,
          "name": "C5",
          "ticks": 241650,
          "time": 601.2955625,
          "velocity": 0.7874015748031497
        },
        {
          "duration": 0.15625,
          "durationTicks": 30,
          "midi": 74,
          "name": "D5",
          "ticks": 241680,
          "time": 601.4518125,
          "velocity": 0.7874015748031497
        },
        {
          "duration": 0.15625,
          "durationTicks": 30,
          "midi": 72,
          "name": "C5",
          "ticks": 241710,
          "time": 601.6080625,
          "velocity": 0.7874015748031497
        },
        {
          "duration": 0.15625,
          "durationTicks": 30,
          "midi": 71,
          "name": "B4",
          "ticks": 241740,
          "time": 601.7643125,
          "velocity": 0.7874015748031497
        },
        {
          "duration": 0.15625,
          "durationTicks": 30,
          "midi": 72,
          "name": "C5",
          "ticks": 241770,
          "time": 601.9205625,
          "velocity": 0.7874015748031497
        },
        {
          "duration": 0.15625,
          "durationTicks": 30,
          "midi": 81,
          "name": "A5",
          "ticks": 241800,
          "time": 602.0768125,
          "velocity": 0.7874015748031497
        },
        {
          "duration": 0.15625,
          "durationTicks": 30,
          "midi": 72,
          "name": "C5",
          "ticks": 241830,
          "time": 602.2330625,
          "velocity": 0.7874015748031497
        },
        {
          "duration": 0.15625,
          "durationTicks": 30,
          "midi": 71,
          "name": "B4",
          "ticks": 241860,
          "time": 602.3893125,
          "velocity": 0.7874015748031497
        },
        {
          "duration": 0.15625,
          "durationTicks": 30,
          "midi": 72,
          "name": "C5",
          "ticks": 241890,
          "time": 602.5455625,
          "velocity": 0.7874015748031497
        },
        {
          "duration": 0.15625,
          "durationTicks": 30,
          "midi": 74,
          "name": "D5",
          "ticks": 241920,
          "time": 602.7018125,
          "velocity": 0.7874015748031497
        },
        {
          "duration": 0.15625,
          "durationTicks": 30,
          "midi": 72,
          "name": "C5",
          "ticks": 241950,
          "time": 602.8580625,
          "velocity": 0.7874015748031497
        },
        {
          "duration": 0.15625,
          "durationTicks": 30,
          "midi": 71,
          "name": "B4",
          "ticks": 241980,
          "time": 603.0143125,
          "velocity": 0.7874015748031497
        },
        {
          "duration": 0.15625,
          "durationTicks": 30,
          "midi": 69,
          "name": "A4",
          "ticks": 242010,
          "time": 603.1705625,
          "velocity": 0.7874015748031497
        },
        {
          "duration": 0.3125,
          "durationTicks": 60,
          "midi": 71,
          "name": "B4",
          "ticks": 242040,
          "time": 603.3268125,
          "velocity": 0.7874015748031497
        },
        {
          "duration": 0.3125,
          "durationTicks": 60,
          "midi": 66,
          "name": "F#4",
          "ticks": 242100,
          "time": 603.6393125,
          "velocity": 0.7874015748031497
        },
        {
          "duration": 0.3125,
          "durationTicks": 60,
          "midi": 66,
          "name": "F#4",
          "ticks": 242160,
          "time": 603.9518125,
          "velocity": 0.7874015748031497
        },
        {
          "duration": 0.3125,
          "durationTicks": 60,
          "midi": 67,
          "name": "G4",
          "ticks": 242220,
          "time": 604.2643125,
          "velocity": 0.7874015748031497
        },
        {
          "duration": 0.3125,
          "durationTicks": 60,
          "midi": 67,
          "name": "G4",
          "ticks": 242280,
          "time": 604.5768125,
          "velocity": 0.7874015748031497
        },
        {
          "duration": 0.3125,
          "durationTicks": 60,
          "midi": 60,
          "name": "C4",
          "ticks": 242340,
          "time": 604.8893125,
          "velocity": 0.7874015748031497
        },
        {
          "duration": 0.625,
          "durationTicks": 120,
          "midi": 60,
          "name": "C4",
          "ticks": 242400,
          "time": 605.2018125,
          "velocity": 0.7874015748031497
        },
        {
          "duration": 1.25,
          "durationTicks": 240,
          "midi": 59,
          "name": "B3",
          "ticks": 242520,
          "time": 605.8268125,
          "velocity": 0.7874015748031497
        },
        {
          "duration": 0.03125,
          "durationTicks": 16,
          "midi": 42,
          "name": "F#2",
          "ticks": 244200,
          "time": 612.6236875,
          "velocity": 0.7874015748031497
        },
        {
          "duration": 0.03125,
          "durationTicks": 16,
          "midi": 43,
          "name": "G2",
          "ticks": 244220,
          "time": 612.66275,
          "velocity": 0.7874015748031497
        },
        {
          "duration": 0.03125,
          "durationTicks": 16,
          "midi": 45,
          "name": "A2",
          "ticks": 244240,
          "time": 612.7018125,
          "velocity": 0.7874015748031497
        },
        {
          "duration": 0.28125,
          "durationTicks": 144,
          "midi": 43,
          "name": "G2",
          "ticks": 244260,
          "time": 612.740875,
          "velocity": 0.7874015748031497
        },
        {
          "duration": 0.046875,
          "durationTicks": 24,
          "midi": 81,
          "name": "A5",
          "ticks": 244440,
          "time": 613.0924375,
          "velocity": 0.7874015748031497
        },
        {
          "duration": 0.046875,
          "durationTicks": 24,
          "midi": 79,
          "name": "G5",
          "ticks": 244470,
          "time": 613.15103125,
          "velocity": 0.7874015748031497
        },
        {
          "duration": 0.046875,
          "durationTicks": 24,
          "midi": 81,
          "name": "A5",
          "ticks": 244500,
          "time": 613.209625,
          "velocity": 0.7874015748031497
        },
        {
          "duration": 0.046875,
          "durationTicks": 24,
          "midi": 79,
          "name": "G5",
          "ticks": 244530,
          "time": 613.26821875,
          "velocity": 0.7874015748031497
        },
        {
          "duration": 0.046875,
          "durationTicks": 24,
          "midi": 81,
          "name": "A5",
          "ticks": 244560,
          "time": 613.3268125,
          "velocity": 0.7874015748031497
        },
        {
          "duration": 0.046875,
          "durationTicks": 24,
          "midi": 79,
          "name": "G5",
          "ticks": 244590,
          "time": 613.38540625,
          "velocity": 0.7874015748031497
        },
        {
          "duration": 0.046875,
          "durationTicks": 24,
          "midi": 81,
          "name": "A5",
          "ticks": 244620,
          "time": 613.444,
          "velocity": 0.7874015748031497
        },
        {
          "duration": 0.046875,
          "durationTicks": 24,
          "midi": 79,
          "name": "G5",
          "ticks": 244650,
          "time": 613.50259375,
          "velocity": 0.7874015748031497
        },
        {
          "duration": 0.046875,
          "durationTicks": 24,
          "midi": 81,
          "name": "A5",
          "ticks": 244680,
          "time": 613.5611875,
          "velocity": 0.7874015748031497
        },
        {
          "duration": 0.046875,
          "durationTicks": 24,
          "midi": 79,
          "name": "G5",
          "ticks": 244710,
          "time": 613.61978125,
          "velocity": 0.7874015748031497
        },
        {
          "duration": 0.046875,
          "durationTicks": 24,
          "midi": 81,
          "name": "A5",
          "ticks": 244740,
          "time": 613.678375,
          "velocity": 0.7874015748031497
        },
        {
          "duration": 0.046875,
          "durationTicks": 24,
          "midi": 79,
          "name": "G5",
          "ticks": 244770,
          "time": 613.73696875,
          "velocity": 0.7874015748031497
        },
        {
          "duration": 0.046875,
          "durationTicks": 24,
          "midi": 81,
          "name": "A5",
          "ticks": 244800,
          "time": 613.7955625,
          "velocity": 0.7874015748031497
        },
        {
          "duration": 0.046875,
          "durationTicks": 24,
          "midi": 79,
          "name": "G5",
          "ticks": 244830,
          "time": 613.85415625,
          "velocity": 0.7874015748031497
        },
        {
          "duration": 0.046875,
          "durationTicks": 24,
          "midi": 78,
          "name": "F#5",
          "ticks": 244860,
          "time": 613.91275,
          "velocity": 0.7874015748031497
        },
        {
          "duration": 0.046875,
          "durationTicks": 24,
          "midi": 79,
          "name": "G5",
          "ticks": 244890,
          "time": 613.97134375,
          "velocity": 0.7874015748031497
        },
        {
          "duration": 0.375,
          "durationTicks": 192,
          "midi": 81,
          "name": "A5",
          "ticks": 244920,
          "time": 614.0299375,
          "velocity": 0.7874015748031497
        },
        {
          "duration": 0.03125,
          "durationTicks": 16,
          "midi": 52,
          "name": "E3",
          "ticks": 245160,
          "time": 614.4986875,
          "velocity": 0.7874015748031497
        },
        {
          "duration": 0.03125,
          "durationTicks": 16,
          "midi": 54,
          "name": "F#3",
          "ticks": 245180,
          "time": 614.53775,
          "velocity": 0.7874015748031497
        },
        {
          "duration": 0.03125,
          "durationTicks": 16,
          "midi": 55,
          "name": "G3",
          "ticks": 245200,
          "time": 614.5768125,
          "velocity": 0.7874015748031497
        },
        {
          "duration": 0.4453125,
          "durationTicks": 228,
          "midi": 54,
          "name": "F#3",
          "ticks": 245220,
          "time": 614.615875,
          "velocity": 0.7874015748031497
        },
        {
          "duration": 0.09375,
          "durationTicks": 48,
          "midi": 57,
          "name": "A3",
          "ticks": 245460,
          "time": 615.084625,
          "velocity": 0.7874015748031497
        },
        {
          "duration": 0.09375,
          "durationTicks": 48,
          "midi": 55,
          "name": "G3",
          "ticks": 245520,
          "time": 615.2018125,
          "velocity": 0.7874015748031497
        },
        {
          "duration": 0.09375,
          "durationTicks": 48,
          "midi": 54,
          "name": "F#3",
          "ticks": 245580,
          "time": 615.319,
          "velocity": 0.7874015748031497
        },
        {
          "duration": 0.375,
          "durationTicks": 192,
          "midi": 52,
          "name": "E3",
          "ticks": 245640,
          "time": 615.4361875,
          "velocity": 0.7874015748031497
        },
        {
          "duration": 0.1875,
          "durationTicks": 96,
          "midi": 76,
          "name": "E5",
          "ticks": 245880,
          "time": 615.9049375,
          "velocity": 0.7874015748031497
        },
        {
          "duration": 0.1875,
          "durationTicks": 96,
          "midi": 74,
          "name": "D5",
          "ticks": 246000,
          "time": 616.1393125,
          "velocity": 0.7874015748031497
        },
        {
          "duration": 0.1875,
          "durationTicks": 96,
          "midi": 73,
          "name": "C#5",
          "ticks": 246120,
          "time": 616.3736875,
          "velocity": 0.7874015748031497
        },
        {
          "duration": 0.09375,
          "durationTicks": 48,
          "midi": 74,
          "name": "D5",
          "ticks": 246240,
          "time": 616.6080625,
          "velocity": 0.7874015748031497
        },
        {
          "duration": 0.09375,
          "durationTicks": 48,
          "midi": 76,
          "name": "E5",
          "ticks": 246300,
          "time": 616.72525,
          "velocity": 0.7874015748031497
        },
        {
          "duration": 0.375,
          "durationTicks": 192,
          "midi": 66,
          "name": "F#4",
          "ticks": 246360,
          "time": 616.8424375,
          "velocity": 0.7874015748031497
        },
        {
          "duration": 0.046875,
          "durationTicks": 24,
          "midi": 50,
          "name": "D3",
          "ticks": 246600,
          "time": 617.3111875,
          "velocity": 0.7874015748031497
        },
        {
          "duration": 0.046875,
          "durationTicks": 24,
          "midi": 48,
          "name": "C3",
          "ticks": 246630,
          "time": 617.36978125,
          "velocity": 0.7874015748031497
        },
        {
          "duration": 0.046875,
          "durationTicks": 24,
          "midi": 50,
          "name": "D3",
          "ticks": 246660,
          "time": 617.428375,
          "velocity": 0.7874015748031497
        },
        {
          "duration": 0.046875,
          "durationTicks": 24,
          "midi": 48,
          "name": "C3",
          "ticks": 246690,
          "time": 617.48696875,
          "velocity": 0.7874015748031497
        },
        {
          "duration": 0.046875,
          "durationTicks": 24,
          "midi": 50,
          "name": "D3",
          "ticks": 246720,
          "time": 617.5455625,
          "velocity": 0.7874015748031497
        },
        {
          "duration": 0.046875,
          "durationTicks": 24,
          "midi": 48,
          "name": "C3",
          "ticks": 246750,
          "time": 617.60415625,
          "velocity": 0.7874015748031497
        },
        {
          "duration": 0.046875,
          "durationTicks": 24,
          "midi": 50,
          "name": "D3",
          "ticks": 246780,
          "time": 617.66275,
          "velocity": 0.7874015748031497
        },
        {
          "duration": 0.046875,
          "durationTicks": 24,
          "midi": 48,
          "name": "C3",
          "ticks": 246810,
          "time": 617.72134375,
          "velocity": 0.7874015748031497
        },
        {
          "duration": 0.046875,
          "durationTicks": 24,
          "midi": 50,
          "name": "D3",
          "ticks": 246840,
          "time": 617.7799375,
          "velocity": 0.7874015748031497
        },
        {
          "duration": 0.046875,
          "durationTicks": 24,
          "midi": 48,
          "name": "C3",
          "ticks": 246870,
          "time": 617.83853125,
          "velocity": 0.7874015748031497
        },
        {
          "duration": 0.046875,
          "durationTicks": 24,
          "midi": 50,
          "name": "D3",
          "ticks": 246900,
          "time": 617.897125,
          "velocity": 0.7874015748031497
        },
        {
          "duration": 0.046875,
          "durationTicks": 24,
          "midi": 48,
          "name": "C3",
          "ticks": 246930,
          "time": 617.95571875,
          "velocity": 0.7874015748031497
        },
        {
          "duration": 0.046875,
          "durationTicks": 24,
          "midi": 50,
          "name": "D3",
          "ticks": 246960,
          "time": 618.0143125,
          "velocity": 0.7874015748031497
        },
        {
          "duration": 0.046875,
          "durationTicks": 24,
          "midi": 48,
          "name": "C3",
          "ticks": 246990,
          "time": 618.07290625,
          "velocity": 0.7874015748031497
        },
        {
          "duration": 0.046875,
          "durationTicks": 24,
          "midi": 47,
          "name": "B2",
          "ticks": 247020,
          "time": 618.1315,
          "velocity": 0.7874015748031497
        },
        {
          "duration": 0.046875,
          "durationTicks": 24,
          "midi": 48,
          "name": "C3",
          "ticks": 247050,
          "time": 618.19009375,
          "velocity": 0.7874015748031497
        },
        {
          "duration": 0.1875,
          "durationTicks": 96,
          "midi": 47,
          "name": "B2",
          "ticks": 247080,
          "time": 618.2486875,
          "velocity": 0.7874015748031497
        },
        {
          "duration": 0.09375,
          "durationTicks": 48,
          "midi": 31,
          "name": "G1",
          "ticks": 247200,
          "time": 618.4830625,
          "velocity": 0.7874015748031497
        },
        {
          "duration": 0.09375,
          "durationTicks": 48,
          "midi": 43,
          "name": "G2",
          "ticks": 247200,
          "time": 618.4830625,
          "velocity": 0.7874015748031497
        },
        {
          "duration": 0.09375,
          "durationTicks": 48,
          "midi": 33,
          "name": "A1",
          "ticks": 247260,
          "time": 618.60025,
          "velocity": 0.7874015748031497
        },
        {
          "duration": 0.09375,
          "durationTicks": 48,
          "midi": 45,
          "name": "A2",
          "ticks": 247260,
          "time": 618.60025,
          "velocity": 0.7874015748031497
        },
        {
          "duration": 0.09375,
          "durationTicks": 48,
          "midi": 35,
          "name": "B1",
          "ticks": 247320,
          "time": 618.7174375,
          "velocity": 0.7874015748031497
        },
        {
          "duration": 0.09375,
          "durationTicks": 48,
          "midi": 47,
          "name": "B2",
          "ticks": 247320,
          "time": 618.7174375,
          "velocity": 0.7874015748031497
        },
        {
          "duration": 0.09375,
          "durationTicks": 48,
          "midi": 36,
          "name": "C2",
          "ticks": 247380,
          "time": 618.834625,
          "velocity": 0.7874015748031497
        },
        {
          "duration": 0.09375,
          "durationTicks": 48,
          "midi": 48,
          "name": "C3",
          "ticks": 247380,
          "time": 618.834625,
          "velocity": 0.7874015748031497
        },
        {
          "duration": 0.1875,
          "durationTicks": 96,
          "midi": 38,
          "name": "D2",
          "ticks": 247440,
          "time": 618.9518125,
          "velocity": 0.7874015748031497
        },
        {
          "duration": 0.1875,
          "durationTicks": 96,
          "midi": 50,
          "name": "D3",
          "ticks": 247440,
          "time": 618.9518125,
          "velocity": 0.7874015748031497
        },
        {
          "duration": 0.1875,
          "durationTicks": 96,
          "midi": 35,
          "name": "B1",
          "ticks": 247680,
          "time": 619.4205625,
          "velocity": 0.7874015748031497
        },
        {
          "duration": 0.1875,
          "durationTicks": 96,
          "midi": 47,
          "name": "B2",
          "ticks": 247680,
          "time": 619.4205625,
          "velocity": 0.7874015748031497
        },
        {
          "duration": 0.09375,
          "durationTicks": 48,
          "midi": 36,
          "name": "C2",
          "ticks": 247800,
          "time": 619.6549375,
          "velocity": 0.7874015748031497
        },
        {
          "duration": 0.09375,
          "durationTicks": 48,
          "midi": 48,
          "name": "C3",
          "ticks": 247800,
          "time": 619.6549375,
          "velocity": 0.7874015748031497
        },
        {
          "duration": 0.09375,
          "durationTicks": 48,
          "midi": 38,
          "name": "D2",
          "ticks": 247860,
          "time": 619.772125,
          "velocity": 0.7874015748031497
        },
        {
          "duration": 0.09375,
          "durationTicks": 48,
          "midi": 50,
          "name": "D3",
          "ticks": 247860,
          "time": 619.772125,
          "velocity": 0.7874015748031497
        },
        {
          "duration": 0.09375,
          "durationTicks": 48,
          "midi": 40,
          "name": "E2",
          "ticks": 247920,
          "time": 619.8893125,
          "velocity": 0.7874015748031497
        },
        {
          "duration": 0.09375,
          "durationTicks": 48,
          "midi": 52,
          "name": "E3",
          "ticks": 247920,
          "time": 619.8893125,
          "velocity": 0.7874015748031497
        },
        {
          "duration": 0.09375,
          "durationTicks": 48,
          "midi": 42,
          "name": "F#2",
          "ticks": 247980,
          "time": 620.0065,
          "velocity": 0.7874015748031497
        },
        {
          "duration": 0.09375,
          "durationTicks": 48,
          "midi": 54,
          "name": "F#3",
          "ticks": 247980,
          "time": 620.0065,
          "velocity": 0.7874015748031497
        },
        {
          "duration": 0.1875,
          "durationTicks": 96,
          "midi": 43,
          "name": "G2",
          "ticks": 248040,
          "time": 620.1236875,
          "velocity": 0.7874015748031497
        },
        {
          "duration": 0.1875,
          "durationTicks": 96,
          "midi": 55,
          "name": "G3",
          "ticks": 248040,
          "time": 620.1236875,
          "velocity": 0.7874015748031497
        },
        {
          "duration": 0.21428560000003927,
          "durationTicks": 96,
          "midi": 48,
          "name": "C3",
          "ticks": 248160,
          "time": 620.3580625,
          "velocity": 0.7874015748031497
        },
        {
          "duration": 0.21428560000003927,
          "durationTicks": 96,
          "midi": 60,
          "name": "C4",
          "ticks": 248160,
          "time": 620.3580625,
          "velocity": 0.7874015748031497
        },
        {
          "duration": 0.21428560000003927,
          "durationTicks": 96,
          "midi": 40,
          "name": "E2",
          "ticks": 248400,
          "time": 620.8937765,
          "velocity": 0.7874015748031497
        },
        {
          "duration": 0.21428560000003927,
          "durationTicks": 96,
          "midi": 52,
          "name": "E3",
          "ticks": 248400,
          "time": 620.8937765,
          "velocity": 0.7874015748031497
        },
        {
          "duration": 0.10714280000001963,
          "durationTicks": 48,
          "midi": 42,
          "name": "F#2",
          "ticks": 248520,
          "time": 621.1616335,
          "velocity": 0.7874015748031497
        },
        {
          "duration": 0.10714280000001963,
          "durationTicks": 48,
          "midi": 54,
          "name": "F#3",
          "ticks": 248520,
          "time": 621.1616335,
          "velocity": 0.7874015748031497
        },
        {
          "duration": 0.10714280000001963,
          "durationTicks": 48,
          "midi": 43,
          "name": "G2",
          "ticks": 248580,
          "time": 621.2955619999999,
          "velocity": 0.7874015748031497
        },
        {
          "duration": 0.10714280000001963,
          "durationTicks": 48,
          "midi": 55,
          "name": "G3",
          "ticks": 248580,
          "time": 621.2955619999999,
          "velocity": 0.7874015748031497
        },
        {
          "duration": 0.21428560000003927,
          "durationTicks": 96,
          "midi": 45,
          "name": "A2",
          "ticks": 248640,
          "time": 621.4294904999999,
          "velocity": 0.7874015748031497
        },
        {
          "duration": 0.21428560000003927,
          "durationTicks": 96,
          "midi": 57,
          "name": "A3",
          "ticks": 248640,
          "time": 621.4294904999999,
          "velocity": 0.7874015748031497
        },
        {
          "duration": 0.10714280000001963,
          "durationTicks": 48,
          "midi": 38,
          "name": "D2",
          "ticks": 248760,
          "time": 621.6973475,
          "velocity": 0.7874015748031497
        },
        {
          "duration": 0.10714280000001963,
          "durationTicks": 48,
          "midi": 50,
          "name": "D3",
          "ticks": 248760,
          "time": 621.6973475,
          "velocity": 0.7874015748031497
        },
        {
          "duration": 0.10714279999990595,
          "durationTicks": 48,
          "midi": 40,
          "name": "E2",
          "ticks": 248820,
          "time": 621.831276,
          "velocity": 0.7874015748031497
        },
        {
          "duration": 0.10714279999990595,
          "durationTicks": 48,
          "midi": 52,
          "name": "E3",
          "ticks": 248820,
          "time": 621.831276,
          "velocity": 0.7874015748031497
        },
        {
          "duration": 0.10714280000001963,
          "durationTicks": 48,
          "midi": 42,
          "name": "F#2",
          "ticks": 248880,
          "time": 621.9652044999999,
          "velocity": 0.7874015748031497
        },
        {
          "duration": 0.10714280000001963,
          "durationTicks": 48,
          "midi": 54,
          "name": "F#3",
          "ticks": 248880,
          "time": 621.9652044999999,
          "velocity": 0.7874015748031497
        },
        {
          "duration": 0.10714280000001963,
          "durationTicks": 48,
          "midi": 43,
          "name": "G2",
          "ticks": 248940,
          "time": 622.0991329999999,
          "velocity": 0.7874015748031497
        },
        {
          "duration": 0.10714280000001963,
          "durationTicks": 48,
          "midi": 55,
          "name": "G3",
          "ticks": 248940,
          "time": 622.0991329999999,
          "velocity": 0.7874015748031497
        },
        {
          "duration": 0.21428560000003927,
          "durationTicks": 96,
          "midi": 45,
          "name": "A2",
          "ticks": 249000,
          "time": 622.2330615,
          "velocity": 0.7874015748031497
        },
        {
          "duration": 0.21428560000003927,
          "durationTicks": 96,
          "midi": 57,
          "name": "A3",
          "ticks": 249000,
          "time": 622.2330615,
          "velocity": 0.7874015748031497
        },
        {
          "duration": 0.21428559999992558,
          "durationTicks": 96,
          "midi": 48,
          "name": "C3",
          "ticks": 249120,
          "time": 622.5009185,
          "velocity": 0.7874015748031497
        },
        {
          "duration": 0.21428559999992558,
          "durationTicks": 96,
          "midi": 60,
          "name": "C4",
          "ticks": 249120,
          "time": 622.5009185,
          "velocity": 0.7874015748031497
        },
        {
          "duration": 0.10714280000001963,
          "durationTicks": 48,
          "midi": 47,
          "name": "B2",
          "ticks": 249240,
          "time": 622.7687755,
          "velocity": 0.7874015748031497
        },
        {
          "duration": 0.10714280000001963,
          "durationTicks": 48,
          "midi": 59,
          "name": "B3",
          "ticks": 249240,
          "time": 622.7687755,
          "velocity": 0.7874015748031497
        },
        {
          "duration": 0.10714280000001963,
          "durationTicks": 48,
          "midi": 45,
          "name": "A2",
          "ticks": 249300,
          "time": 622.902704,
          "velocity": 0.7874015748031497
        },
        {
          "duration": 0.10714280000001963,
          "durationTicks": 48,
          "midi": 57,
          "name": "A3",
          "ticks": 249300,
          "time": 622.902704,
          "velocity": 0.7874015748031497
        },
        {
          "duration": 0.21428559999992558,
          "durationTicks": 96,
          "midi": 43,
          "name": "G2",
          "ticks": 249360,
          "time": 623.0366325,
          "velocity": 0.7874015748031497
        },
        {
          "duration": 0.21428559999992558,
          "durationTicks": 96,
          "midi": 55,
          "name": "G3",
          "ticks": 249360,
          "time": 623.0366325,
          "velocity": 0.7874015748031497
        },
        {
          "duration": 0.21428560000003927,
          "durationTicks": 96,
          "midi": 35,
          "name": "B1",
          "ticks": 249480,
          "time": 623.3044894999999,
          "velocity": 0.7874015748031497
        },
        {
          "duration": 0.21428560000003927,
          "durationTicks": 96,
          "midi": 47,
          "name": "B2",
          "ticks": 249480,
          "time": 623.3044894999999,
          "velocity": 0.7874015748031497
        },
        {
          "duration": 0.21428559999992558,
          "durationTicks": 96,
          "midi": 38,
          "name": "D2",
          "ticks": 249600,
          "time": 623.5723465,
          "velocity": 0.7874015748031497
        },
        {
          "duration": 0.21428559999992558,
          "durationTicks": 96,
          "midi": 50,
          "name": "D3",
          "ticks": 249600,
          "time": 623.5723465,
          "velocity": 0.7874015748031497
        },
        {
          "duration": 0.21428560000003927,
          "durationTicks": 96,
          "midi": 31,
          "name": "G1",
          "ticks": 249720,
          "time": 623.8402034999999,
          "velocity": 0.7874015748031497
        },
        {
          "duration": 0.21428560000003927,
          "durationTicks": 96,
          "midi": 43,
          "name": "G2",
          "ticks": 249720,
          "time": 623.8402034999999,
          "velocity": 0.7874015748031497
        },
        {
          "duration": 0.05357140000000982,
          "durationTicks": 24,
          "midi": 83,
          "name": "B5",
          "ticks": 250020,
          "time": 624.5098459999999,
          "velocity": 0.7874015748031497
        },
        {
          "duration": 0.05357140000000982,
          "durationTicks": 24,
          "midi": 81,
          "name": "A5",
          "ticks": 250050,
          "time": 624.57681025,
          "velocity": 0.7874015748031497
        },
        {
          "duration": 0.21428560000003927,
          "durationTicks": 96,
          "midi": 83,
          "name": "B5",
          "ticks": 250080,
          "time": 624.6437745,
          "velocity": 0.7874015748031497
        },
        {
          "duration": 0.05357140000000982,
          "durationTicks": 24,
          "midi": 76,
          "name": "E5",
          "ticks": 250260,
          "time": 625.0455599999999,
          "velocity": 0.7874015748031497
        },
        {
          "duration": 0.05357140000000982,
          "durationTicks": 24,
          "midi": 74,
          "name": "D5",
          "ticks": 250290,
          "time": 625.11252425,
          "velocity": 0.7874015748031497
        },
        {
          "duration": 0.21428560000003927,
          "durationTicks": 96,
          "midi": 76,
          "name": "E5",
          "ticks": 250320,
          "time": 625.1794884999999,
          "velocity": 0.7874015748031497
        },
        {
          "duration": 0.05357139999989613,
          "durationTicks": 24,
          "midi": 69,
          "name": "A4",
          "ticks": 250500,
          "time": 625.581274,
          "velocity": 0.7874015748031497
        },
        {
          "duration": 0.05357140000000982,
          "durationTicks": 24,
          "midi": 67,
          "name": "G4",
          "ticks": 250530,
          "time": 625.64823825,
          "velocity": 0.7874015748031497
        },
        {
          "duration": 0.21428560000003927,
          "durationTicks": 96,
          "midi": 69,
          "name": "A4",
          "ticks": 250560,
          "time": 625.7152024999999,
          "velocity": 0.7874015748031497
        },
        {
          "duration": 0.05357140000000982,
          "durationTicks": 24,
          "midi": 81,
          "name": "A5",
          "ticks": 250740,
          "time": 626.116988,
          "velocity": 0.7874015748031497
        },
        {
          "duration": 0.05357140000000982,
          "durationTicks": 24,
          "midi": 79,
          "name": "G5",
          "ticks": 250770,
          "time": 626.18395225,
          "velocity": 0.7874015748031497
        },
        {
          "duration": 0.21428560000003927,
          "durationTicks": 96,
          "midi": 81,
          "name": "A5",
          "ticks": 250800,
          "time": 626.2509164999999,
          "velocity": 0.7874015748031497
        },
        {
          "duration": 0.05357140000000982,
          "durationTicks": 24,
          "midi": 74,
          "name": "D5",
          "ticks": 250980,
          "time": 626.652702,
          "velocity": 0.7874015748031497
        },
        {
          "duration": 0.05357140000000982,
          "durationTicks": 24,
          "midi": 73,
          "name": "C#5",
          "ticks": 251010,
          "time": 626.7196662499999,
          "velocity": 0.7874015748031497
        },
        {
          "duration": 0.21428559999992558,
          "durationTicks": 96,
          "midi": 74,
          "name": "D5",
          "ticks": 251040,
          "time": 626.7866305,
          "velocity": 0.7874015748031497
        },
        {
          "duration": 0.05357140000000982,
          "durationTicks": 24,
          "midi": 67,
          "name": "G4",
          "ticks": 251220,
          "time": 627.188416,
          "velocity": 0.7874015748031497
        },
        {
          "duration": 0.05357140000000982,
          "durationTicks": 24,
          "midi": 66,
          "name": "F#4",
          "ticks": 251250,
          "time": 627.2553802499999,
          "velocity": 0.7874015748031497
        },
        {
          "duration": 0.21428559999992558,
          "durationTicks": 96,
          "midi": 67,
          "name": "G4",
          "ticks": 251280,
          "time": 627.3223445,
          "velocity": 0.7874015748031497
        },
        {
          "duration": 0.05357140000000982,
          "durationTicks": 24,
          "midi": 79,
          "name": "G5",
          "ticks": 251460,
          "time": 627.72413,
          "velocity": 0.7874015748031497
        },
        {
          "duration": 0.05357139999989613,
          "durationTicks": 24,
          "midi": 78,
          "name": "F#5",
          "ticks": 251490,
          "time": 627.79109425,
          "velocity": 0.7874015748031497
        },
        {
          "duration": 0.21428560000003927,
          "durationTicks": 96,
          "midi": 79,
          "name": "G5",
          "ticks": 251520,
          "time": 627.8580585,
          "velocity": 0.7874015748031497
        },
        {
          "duration": 0.05357140000000982,
          "durationTicks": 24,
          "midi": 71,
          "name": "B4",
          "ticks": 251700,
          "time": 628.2598439999999,
          "velocity": 0.7874015748031497
        },
        {
          "duration": 0.05357140000000982,
          "durationTicks": 24,
          "midi": 69,
          "name": "A4",
          "ticks": 251730,
          "time": 628.32680825,
          "velocity": 0.7874015748031497
        },
        {
          "duration": 0.21428560000003927,
          "durationTicks": 96,
          "midi": 71,
          "name": "B4",
          "ticks": 251760,
          "time": 628.3937725,
          "velocity": 0.7874015748031497
        },
        {
          "duration": 0.05357140000000982,
          "durationTicks": 24,
          "midi": 64,
          "name": "E4",
          "ticks": 251940,
          "time": 628.7955579999999,
          "velocity": 0.7874015748031497
        },
        {
          "duration": 0.05357140000000982,
          "durationTicks": 24,
          "midi": 62,
          "name": "D4",
          "ticks": 251970,
          "time": 628.86252225,
          "velocity": 0.7874015748031497
        },
        {
          "duration": 0.21428560000003927,
          "durationTicks": 96,
          "midi": 64,
          "name": "E4",
          "ticks": 252000,
          "time": 628.9294864999999,
          "velocity": 0.7874015748031497
        },
        {
          "duration": 0.05357139999989613,
          "durationTicks": 24,
          "midi": 55,
          "name": "G3",
          "ticks": 252180,
          "time": 629.331272,
          "velocity": 0.7874015748031497
        },
        {
          "duration": 0.05357140000000982,
          "durationTicks": 24,
          "midi": 54,
          "name": "F#3",
          "ticks": 252210,
          "time": 629.39823625,
          "velocity": 0.7874015748031497
        },
        {
          "duration": 0.21428560000003927,
          "durationTicks": 96,
          "midi": 55,
          "name": "G3",
          "ticks": 252240,
          "time": 629.4652004999999,
          "velocity": 0.7874015748031497
        },
        {
          "duration": 0.05357140000000982,
          "durationTicks": 24,
          "midi": 49,
          "name": "C#3",
          "ticks": 252420,
          "time": 629.866986,
          "velocity": 0.7874015748031497
        },
        {
          "duration": 0.05357140000000982,
          "durationTicks": 24,
          "midi": 47,
          "name": "B2",
          "ticks": 252450,
          "time": 629.93395025,
          "velocity": 0.7874015748031497
        },
        {
          "duration": 0.21428560000003927,
          "durationTicks": 96,
          "midi": 49,
          "name": "C#3",
          "ticks": 252480,
          "time": 630.0009144999999,
          "velocity": 0.7874015748031497
        },
        {
          "duration": 0.05357140000000982,
          "durationTicks": 24,
          "midi": 43,
          "name": "G2",
          "ticks": 252660,
          "time": 630.4027,
          "velocity": 0.7874015748031497
        },
        {
          "duration": 0.05357140000000982,
          "durationTicks": 24,
          "midi": 42,
          "name": "F#2",
          "ticks": 252690,
          "time": 630.4696642499999,
          "velocity": 0.7874015748031497
        },
        {
          "duration": 0.21428559999992558,
          "durationTicks": 96,
          "midi": 43,
          "name": "G2",
          "ticks": 252720,
          "time": 630.5366285,
          "velocity": 0.7874015748031497
        },
        {
          "duration": 0.05357139999989613,
          "durationTicks": 24,
          "midi": 62,
          "name": "D4",
          "ticks": 252870,
          "time": 630.87144975,
          "velocity": 0.7874015748031497
        },
        {
          "duration": 0.05357140000000982,
          "durationTicks": 24,
          "midi": 64,
          "name": "E4",
          "ticks": 252900,
          "time": 630.938414,
          "velocity": 0.7874015748031497
        },
        {
          "duration": 0.05357140000000982,
          "durationTicks": 24,
          "midi": 66,
          "name": "F#4",
          "ticks": 252930,
          "time": 631.0053782499999,
          "velocity": 0.7874015748031497
        },
        {
          "duration": 0.05357140000000982,
          "durationTicks": 24,
          "midi": 69,
          "name": "A4",
          "ticks": 252960,
          "time": 631.0723425,
          "velocity": 0.7874015748031497
        },
        {
          "duration": 0.05357140000000982,
          "durationTicks": 24,
          "midi": 66,
          "name": "F#4",
          "ticks": 252990,
          "time": 631.13930675,
          "velocity": 0.7874015748031497
        },
        {
          "duration": 0.05357139999989613,
          "durationTicks": 24,
          "midi": 64,
          "name": "E4",
          "ticks": 253020,
          "time": 631.206271,
          "velocity": 0.7874015748031497
        },
        {
          "duration": 0.05357140000000982,
          "durationTicks": 24,
          "midi": 62,
          "name": "D4",
          "ticks": 253050,
          "time": 631.27323525,
          "velocity": 0.7874015748031497
        },
        {
          "duration": 0.05357140000000982,
          "durationTicks": 24,
          "midi": 62,
          "name": "D4",
          "ticks": 253110,
          "time": 631.40716375,
          "velocity": 0.7874015748031497
        },
        {
          "duration": 0.05357140000000982,
          "durationTicks": 24,
          "midi": 64,
          "name": "E4",
          "ticks": 253140,
          "time": 631.474128,
          "velocity": 0.7874015748031497
        },
        {
          "duration": 0.05357140000000982,
          "durationTicks": 24,
          "midi": 66,
          "name": "F#4",
          "ticks": 253170,
          "time": 631.5410922499999,
          "velocity": 0.7874015748031497
        },
        {
          "duration": 0.05357140000000982,
          "durationTicks": 24,
          "midi": 69,
          "name": "A4",
          "ticks": 253200,
          "time": 631.6080565,
          "velocity": 0.7874015748031497
        },
        {
          "duration": 0.05357140000000982,
          "durationTicks": 24,
          "midi": 66,
          "name": "F#4",
          "ticks": 253230,
          "time": 631.6750207499999,
          "velocity": 0.7874015748031497
        },
        {
          "duration": 0.05357140000000982,
          "durationTicks": 24,
          "midi": 64,
          "name": "E4",
          "ticks": 253260,
          "time": 631.741985,
          "velocity": 0.7874015748031497
        },
        {
          "duration": 0.05357140000000982,
          "durationTicks": 24,
          "midi": 62,
          "name": "D4",
          "ticks": 253290,
          "time": 631.80894925,
          "velocity": 0.7874015748031497
        },
        {
          "duration": 0.05357140000000982,
          "durationTicks": 24,
          "midi": 62,
          "name": "D4",
          "ticks": 253350,
          "time": 631.94287775,
          "velocity": 0.7874015748031497
        },
        {
          "duration": 0.05357140000000982,
          "durationTicks": 24,
          "midi": 64,
          "name": "E4",
          "ticks": 253380,
          "time": 632.0098419999999,
          "velocity": 0.7874015748031497
        },
        {
          "duration": 0.05357140000000982,
          "durationTicks": 24,
          "midi": 66,
          "name": "F#4",
          "ticks": 253410,
          "time": 632.07680625,
          "velocity": 0.7874015748031497
        },
        {
          "duration": 0.05357140000000982,
          "durationTicks": 24,
          "midi": 69,
          "name": "A4",
          "ticks": 253440,
          "time": 632.1437705,
          "velocity": 0.7874015748031497
        },
        {
          "duration": 0.05357140000000982,
          "durationTicks": 24,
          "midi": 66,
          "name": "F#4",
          "ticks": 253470,
          "time": 632.2107347499999,
          "velocity": 0.7874015748031497
        },
        {
          "duration": 0.05357140000000982,
          "durationTicks": 24,
          "midi": 64,
          "name": "E4",
          "ticks": 253500,
          "time": 632.277699,
          "velocity": 0.7874015748031497
        },
        {
          "duration": 0.05357140000000982,
          "durationTicks": 24,
          "midi": 62,
          "name": "D4",
          "ticks": 253530,
          "time": 632.3446632499999,
          "velocity": 0.7874015748031497
        },
        {
          "duration": 0.42857119999996485,
          "durationTicks": 192,
          "midi": 71,
          "name": "B4",
          "ticks": 253560,
          "time": 632.4116275,
          "velocity": 0.7874015748031497
        },
        {
          "duration": 0.42857119999996485,
          "durationTicks": 192,
          "midi": 53,
          "name": "F3",
          "ticks": 253800,
          "time": 632.9473415,
          "velocity": 0.7874015748031497
        },
        {
          "duration": 0.42857119999996485,
          "durationTicks": 192,
          "midi": 52,
          "name": "E3",
          "ticks": 254040,
          "time": 633.4830555,
          "velocity": 0.7874015748031497
        },
        {
          "duration": 0.05357140000000982,
          "durationTicks": 24,
          "midi": 64,
          "name": "E4",
          "ticks": 254340,
          "time": 634.152698,
          "velocity": 0.7874015748031497
        },
        {
          "duration": 0.05357140000000982,
          "durationTicks": 24,
          "midi": 62,
          "name": "D4",
          "ticks": 254370,
          "time": 634.2196622499999,
          "velocity": 0.7874015748031497
        },
        {
          "duration": 0.10714279999990595,
          "durationTicks": 48,
          "midi": 64,
          "name": "E4",
          "ticks": 254400,
          "time": 634.2866265,
          "velocity": 0.7874015748031497
        },
        {
          "duration": 0.05357140000000982,
          "durationTicks": 24,
          "midi": 69,
          "name": "A4",
          "ticks": 254460,
          "time": 634.4205549999999,
          "velocity": 0.7874015748031497
        },
        {
          "duration": 0.05357140000000982,
          "durationTicks": 24,
          "midi": 67,
          "name": "G4",
          "ticks": 254490,
          "time": 634.48751925,
          "velocity": 0.7874015748031497
        },
        {
          "duration": 0.10714280000001963,
          "durationTicks": 48,
          "midi": 69,
          "name": "A4",
          "ticks": 254520,
          "time": 634.5544835,
          "velocity": 0.7874015748031497
        },
        {
          "duration": 0.05357140000000982,
          "durationTicks": 24,
          "midi": 62,
          "name": "D4",
          "ticks": 254580,
          "time": 634.688412,
          "velocity": 0.7874015748031497
        },
        {
          "duration": 0.05357140000000982,
          "durationTicks": 24,
          "midi": 61,
          "name": "C#4",
          "ticks": 254610,
          "time": 634.7553762499999,
          "velocity": 0.7874015748031497
        },
        {
          "duration": 0.10714280000001963,
          "durationTicks": 48,
          "midi": 62,
          "name": "D4",
          "ticks": 254640,
          "time": 634.8223405,
          "velocity": 0.7874015748031497
        },
        {
          "duration": 0.05357140000000982,
          "durationTicks": 24,
          "midi": 67,
          "name": "G4",
          "ticks": 254700,
          "time": 634.9562689999999,
          "velocity": 0.7874015748031497
        },
        {
          "duration": 0.05357140000000982,
          "durationTicks": 24,
          "midi": 66,
          "name": "F#4",
          "ticks": 254730,
          "time": 635.02323325,
          "velocity": 0.7874015748031497
        },
        {
          "duration": 0.10714280000001963,
          "durationTicks": 48,
          "midi": 67,
          "name": "G4",
          "ticks": 254760,
          "time": 635.0901974999999,
          "velocity": 0.7874015748031497
        },
        {
          "duration": 0.05357140000000982,
          "durationTicks": 24,
          "midi": 61,
          "name": "C#4",
          "ticks": 254820,
          "time": 635.224126,
          "velocity": 0.7874015748031497
        },
        {
          "duration": 0.05357140000000982,
          "durationTicks": 24,
          "midi": 59,
          "name": "B3",
          "ticks": 254850,
          "time": 635.2910902499999,
          "velocity": 0.7874015748031497
        },
        {
          "duration": 0.10714280000001963,
          "durationTicks": 48,
          "midi": 61,
          "name": "C#4",
          "ticks": 254880,
          "time": 635.3580545,
          "velocity": 0.7874015748031497
        },
        {
          "duration": 0.05357140000000982,
          "durationTicks": 24,
          "midi": 66,
          "name": "F#4",
          "ticks": 254940,
          "time": 635.491983,
          "velocity": 0.7874015748031497
        },
        {
          "duration": 0.05357140000000982,
          "durationTicks": 24,
          "midi": 64,
          "name": "E4",
          "ticks": 254970,
          "time": 635.55894725,
          "velocity": 0.7874015748031497
        },
        {
          "duration": 0.10714280000001963,
          "durationTicks": 48,
          "midi": 66,
          "name": "F#4",
          "ticks": 255000,
          "time": 635.6259114999999,
          "velocity": 0.7874015748031497
        },
        {
          "duration": 0.10714280000001963,
          "durationTicks": 48,
          "midi": 62,
          "name": "D4",
          "ticks": 255060,
          "time": 635.7598399999999,
          "velocity": 0.7874015748031497
        },
        {
          "duration": 0.10714280000001963,
          "durationTicks": 48,
          "midi": 61,
          "name": "C#4",
          "ticks": 255120,
          "time": 635.8937685,
          "velocity": 0.7874015748031497
        },
        {
          "duration": 0.10714280000001963,
          "durationTicks": 48,
          "midi": 62,
          "name": "D4",
          "ticks": 255180,
          "time": 636.027697,
          "velocity": 0.7874015748031497
        },
        {
          "duration": 0.10714279999990595,
          "durationTicks": 48,
          "midi": 66,
          "name": "F#4",
          "ticks": 255240,
          "time": 636.1616255,
          "velocity": 0.7874015748031497
        },
        {
          "duration": 0.10714280000001963,
          "durationTicks": 48,
          "midi": 62,
          "name": "D4",
          "ticks": 255300,
          "time": 636.2955539999999,
          "velocity": 0.7874015748031497
        },
        {
          "duration": 0.10714280000001963,
          "durationTicks": 48,
          "midi": 67,
          "name": "G4",
          "ticks": 255360,
          "time": 636.4294825,
          "velocity": 0.7874015748031497
        },
        {
          "duration": 0.10714280000001963,
          "durationTicks": 48,
          "midi": 66,
          "name": "F#4",
          "ticks": 255420,
          "time": 636.563411,
          "velocity": 0.7874015748031497
        },
        {
          "duration": 0.21428559999992558,
          "durationTicks": 96,
          "midi": 74,
          "name": "D5",
          "ticks": 255480,
          "time": 636.6973395,
          "velocity": 0.7874015748031497
        },
        {
          "duration": 0.10714280000001963,
          "durationTicks": 48,
          "midi": 78,
          "name": "F#5",
          "ticks": 255600,
          "time": 636.9651964999999,
          "velocity": 0.7874015748031497
        },
        {
          "duration": 0.10714280000001963,
          "durationTicks": 48,
          "midi": 81,
          "name": "A5",
          "ticks": 255660,
          "time": 637.099125,
          "velocity": 0.7874015748031497
        },
        {
          "duration": 0.10714280000001963,
          "durationTicks": 48,
          "midi": 86,
          "name": "D6",
          "ticks": 255720,
          "time": 637.2330535,
          "velocity": 0.7874015748031497
        },
        {
          "duration": 0.10714279999990595,
          "durationTicks": 48,
          "midi": 81,
          "name": "A5",
          "ticks": 255780,
          "time": 637.366982,
          "velocity": 0.7874015748031497
        },
        {
          "duration": 0.10714280000001963,
          "durationTicks": 48,
          "midi": 78,
          "name": "F#5",
          "ticks": 255840,
          "time": 637.5009104999999,
          "velocity": 0.7874015748031497
        },
        {
          "duration": 0.10714280000001963,
          "durationTicks": 48,
          "midi": 81,
          "name": "A5",
          "ticks": 255900,
          "time": 637.6348389999999,
          "velocity": 0.7874015748031497
        },
        {
          "duration": 0.10714280000001963,
          "durationTicks": 48,
          "midi": 74,
          "name": "D5",
          "ticks": 255960,
          "time": 637.7687675,
          "velocity": 0.7874015748031497
        },
        {
          "duration": 0.10714280000001963,
          "durationTicks": 48,
          "midi": 78,
          "name": "F#5",
          "ticks": 256020,
          "time": 637.902696,
          "velocity": 0.7874015748031497
        },
        {
          "duration": 0.10714279999990595,
          "durationTicks": 48,
          "midi": 81,
          "name": "A5",
          "ticks": 256080,
          "time": 638.0366245,
          "velocity": 0.7874015748031497
        },
        {
          "duration": 0.10714280000001963,
          "durationTicks": 48,
          "midi": 78,
          "name": "F#5",
          "ticks": 256140,
          "time": 638.1705529999999,
          "velocity": 0.7874015748031497
        },
        {
          "duration": 0.10714280000001963,
          "durationTicks": 48,
          "midi": 79,
          "name": "G5",
          "ticks": 256200,
          "time": 638.3044815,
          "velocity": 0.7874015748031497
        },
        {
          "duration": 0.10714280000001963,
          "durationTicks": 48,
          "midi": 81,
          "name": "A5",
          "ticks": 256260,
          "time": 638.43841,
          "velocity": 0.7874015748031497
        },
        {
          "duration": 0.10714279999990595,
          "durationTicks": 48,
          "midi": 74,
          "name": "D5",
          "ticks": 256320,
          "time": 638.5723385,
          "velocity": 0.7874015748031497
        },
        {
          "duration": 0.10714280000001963,
          "durationTicks": 48,
          "midi": 79,
          "name": "G5",
          "ticks": 256380,
          "time": 638.7062669999999,
          "velocity": 0.7874015748031497
        },
        {
          "duration": 0.10714280000001963,
          "durationTicks": 48,
          "midi": 83,
          "name": "B5",
          "ticks": 256440,
          "time": 638.8401954999999,
          "velocity": 0.7874015748031497
        },
        {
          "duration": 0.10714280000001963,
          "durationTicks": 48,
          "midi": 79,
          "name": "G5",
          "ticks": 256500,
          "time": 638.974124,
          "velocity": 0.7874015748031497
        },
        {
          "duration": 0.10714280000001963,
          "durationTicks": 48,
          "midi": 74,
          "name": "D5",
          "ticks": 256560,
          "time": 639.1080525,
          "velocity": 0.7874015748031497
        },
        {
          "duration": 0.10714279999990595,
          "durationTicks": 48,
          "midi": 79,
          "name": "G5",
          "ticks": 256620,
          "time": 639.241981,
          "velocity": 0.7874015748031497
        },
        {
          "duration": 0.10714280000001963,
          "durationTicks": 48,
          "midi": 71,
          "name": "B4",
          "ticks": 256680,
          "time": 639.3759094999999,
          "velocity": 0.7874015748031497
        },
        {
          "duration": 0.10714280000001963,
          "durationTicks": 48,
          "midi": 74,
          "name": "D5",
          "ticks": 256740,
          "time": 639.509838,
          "velocity": 0.7874015748031497
        },
        {
          "duration": 0.10714280000001963,
          "durationTicks": 48,
          "midi": 79,
          "name": "G5",
          "ticks": 256800,
          "time": 639.6437665,
          "velocity": 0.7874015748031497
        },
        {
          "duration": 0.10714280000001963,
          "durationTicks": 48,
          "midi": 71,
          "name": "B4",
          "ticks": 256860,
          "time": 639.777695,
          "velocity": 0.7874015748031497
        },
        {
          "duration": 0.10714280000001963,
          "durationTicks": 48,
          "midi": 72,
          "name": "C5",
          "ticks": 256920,
          "time": 639.9116234999999,
          "velocity": 0.7874015748031497
        },
        {
          "duration": 0.10714280000001963,
          "durationTicks": 48,
          "midi": 74,
          "name": "D5",
          "ticks": 256980,
          "time": 640.0455519999999,
          "velocity": 0.7874015748031497
        },
        {
          "duration": 0.10714280000001963,
          "durationTicks": 48,
          "midi": 67,
          "name": "G4",
          "ticks": 257040,
          "time": 640.1794805,
          "velocity": 0.7874015748031497
        },
        {
          "duration": 0.10714280000001963,
          "durationTicks": 48,
          "midi": 72,
          "name": "C5",
          "ticks": 257100,
          "time": 640.313409,
          "velocity": 0.7874015748031497
        },
        {
          "duration": 0.10714279999990595,
          "durationTicks": 48,
          "midi": 76,
          "name": "E5",
          "ticks": 257160,
          "time": 640.4473375,
          "velocity": 0.7874015748031497
        },
        {
          "duration": 0.10714280000001963,
          "durationTicks": 48,
          "midi": 72,
          "name": "C5",
          "ticks": 257220,
          "time": 640.5812659999999,
          "velocity": 0.7874015748031497
        },
        {
          "duration": 0.10714280000001963,
          "durationTicks": 48,
          "midi": 69,
          "name": "A4",
          "ticks": 257280,
          "time": 640.7151944999999,
          "velocity": 0.7874015748031497
        },
        {
          "duration": 0.10714280000001963,
          "durationTicks": 48,
          "midi": 72,
          "name": "C5",
          "ticks": 257340,
          "time": 640.849123,
          "velocity": 0.7874015748031497
        },
        {
          "duration": 0.10714280000001963,
          "durationTicks": 48,
          "midi": 66,
          "name": "F#4",
          "ticks": 257400,
          "time": 640.9830515,
          "velocity": 0.7874015748031497
        },
        {
          "duration": 0.10714279999990595,
          "durationTicks": 48,
          "midi": 69,
          "name": "A4",
          "ticks": 257460,
          "time": 641.11698,
          "velocity": 0.7874015748031497
        },
        {
          "duration": 0.10714280000001963,
          "durationTicks": 48,
          "midi": 72,
          "name": "C5",
          "ticks": 257520,
          "time": 641.2509084999999,
          "velocity": 0.7874015748031497
        },
        {
          "duration": 0.10714280000001963,
          "durationTicks": 48,
          "midi": 66,
          "name": "F#4",
          "ticks": 257580,
          "time": 641.384837,
          "velocity": 0.7874015748031497
        },
        {
          "duration": 0.10714280000001963,
          "durationTicks": 48,
          "midi": 67,
          "name": "G4",
          "ticks": 257640,
          "time": 641.5187655,
          "velocity": 0.7874015748031497
        },
        {
          "duration": 0.10714280000001963,
          "durationTicks": 48,
          "midi": 69,
          "name": "A4",
          "ticks": 257700,
          "time": 641.652694,
          "velocity": 0.7874015748031497
        },
        {
          "duration": 0.10714280000001963,
          "durationTicks": 48,
          "midi": 63,
          "name": "D#4",
          "ticks": 257760,
          "time": 641.7866224999999,
          "velocity": 0.7874015748031497
        },
        {
          "duration": 0.10714280000001963,
          "durationTicks": 48,
          "midi": 66,
          "name": "F#4",
          "ticks": 257820,
          "time": 641.9205509999999,
          "velocity": 0.7874015748031497
        },
        {
          "duration": 0.10714280000001963,
          "durationTicks": 48,
          "midi": 71,
          "name": "B4",
          "ticks": 257880,
          "time": 642.0544795,
          "velocity": 0.7874015748031497
        },
        {
          "duration": 0.10714280000001963,
          "durationTicks": 48,
          "midi": 66,
          "name": "F#4",
          "ticks": 257940,
          "time": 642.188408,
          "velocity": 0.7874015748031497
        },
        {
          "duration": 0.10714279999990595,
          "durationTicks": 48,
          "midi": 63,
          "name": "D#4",
          "ticks": 258000,
          "time": 642.3223365,
          "velocity": 0.7874015748031497
        },
        {
          "duration": 0.10714280000001963,
          "durationTicks": 48,
          "midi": 66,
          "name": "F#4",
          "ticks": 258060,
          "time": 642.4562649999999,
          "velocity": 0.7874015748031497
        },
        {
          "duration": 0.10714280000001963,
          "durationTicks": 48,
          "midi": 59,
          "name": "B3",
          "ticks": 258120,
          "time": 642.5901934999999,
          "velocity": 0.7874015748031497
        },
        {
          "duration": 0.10714280000001963,
          "durationTicks": 48,
          "midi": 63,
          "name": "D#4",
          "ticks": 258180,
          "time": 642.724122,
          "velocity": 0.7874015748031497
        },
        {
          "duration": 0.10714280000001963,
          "durationTicks": 48,
          "midi": 66,
          "name": "F#4",
          "ticks": 258240,
          "time": 642.8580505,
          "velocity": 0.7874015748031497
        },
        {
          "duration": 0.10714279999990595,
          "durationTicks": 48,
          "midi": 63,
          "name": "D#4",
          "ticks": 258300,
          "time": 642.991979,
          "velocity": 0.7874015748031497
        },
        {
          "duration": 0.10714280000001963,
          "durationTicks": 48,
          "midi": 64,
          "name": "E4",
          "ticks": 258360,
          "time": 643.1259074999999,
          "velocity": 0.7874015748031497
        },
        {
          "duration": 0.10714280000001963,
          "durationTicks": 48,
          "midi": 66,
          "name": "F#4",
          "ticks": 258420,
          "time": 643.259836,
          "velocity": 0.7874015748031497
        },
        {
          "duration": 0.10714280000001963,
          "durationTicks": 48,
          "midi": 59,
          "name": "B3",
          "ticks": 258480,
          "time": 643.3937645,
          "velocity": 0.7874015748031497
        },
        {
          "duration": 0.10714280000001963,
          "durationTicks": 48,
          "midi": 64,
          "name": "E4",
          "ticks": 258540,
          "time": 643.527693,
          "velocity": 0.7874015748031497
        },
        {
          "duration": 0.10714280000001963,
          "durationTicks": 48,
          "midi": 67,
          "name": "G4",
          "ticks": 258600,
          "time": 643.6616214999999,
          "velocity": 0.7874015748031497
        },
        {
          "duration": 0.10714280000001963,
          "durationTicks": 48,
          "midi": 64,
          "name": "E4",
          "ticks": 258660,
          "time": 643.7955499999999,
          "velocity": 0.7874015748031497
        },
        {
          "duration": 0.10714280000001963,
          "durationTicks": 48,
          "midi": 59,
          "name": "B3",
          "ticks": 258720,
          "time": 643.9294785,
          "velocity": 0.7874015748031497
        },
        {
          "duration": 0.10714280000001963,
          "durationTicks": 48,
          "midi": 64,
          "name": "E4",
          "ticks": 258780,
          "time": 644.063407,
          "velocity": 0.7874015748031497
        },
        {
          "duration": 0.10714279999990595,
          "durationTicks": 48,
          "midi": 55,
          "name": "G3",
          "ticks": 258840,
          "time": 644.1973355,
          "velocity": 0.7874015748031497
        },
        {
          "duration": 0.10714280000001963,
          "durationTicks": 48,
          "midi": 59,
          "name": "B3",
          "ticks": 258900,
          "time": 644.3312639999999,
          "velocity": 0.7874015748031497
        },
        {
          "duration": 0.10714280000001963,
          "durationTicks": 48,
          "midi": 64,
          "name": "E4",
          "ticks": 258960,
          "time": 644.4651925,
          "velocity": 0.7874015748031497
        },
        {
          "duration": 0.10714280000001963,
          "durationTicks": 48,
          "midi": 63,
          "name": "D#4",
          "ticks": 259020,
          "time": 644.599121,
          "velocity": 0.7874015748031497
        },
        {
          "duration": 0.10714280000001963,
          "durationTicks": 48,
          "midi": 64,
          "name": "E4",
          "ticks": 259080,
          "time": 644.7330495,
          "velocity": 0.7874015748031497
        },
        {
          "duration": 0.10714279999990595,
          "durationTicks": 48,
          "midi": 67,
          "name": "G4",
          "ticks": 259140,
          "time": 644.866978,
          "velocity": 0.7874015748031497
        },
        {
          "duration": 0.10714280000001963,
          "durationTicks": 48,
          "midi": 60,
          "name": "C4",
          "ticks": 259200,
          "time": 645.0009064999999,
          "velocity": 0.7874015748031497
        },
        {
          "duration": 0.10714280000001963,
          "durationTicks": 48,
          "midi": 65,
          "name": "F4",
          "ticks": 259260,
          "time": 645.134835,
          "velocity": 0.7874015748031497
        },
        {
          "duration": 0.10714280000001963,
          "durationTicks": 48,
          "midi": 69,
          "name": "A4",
          "ticks": 259320,
          "time": 645.2687635,
          "velocity": 0.7874015748031497
        },
        {
          "duration": 0.10714279999990595,
          "durationTicks": 48,
          "midi": 65,
          "name": "F4",
          "ticks": 259380,
          "time": 645.402692,
          "velocity": 0.7874015748031497
        },
        {
          "duration": 0.10714280000001963,
          "durationTicks": 48,
          "midi": 60,
          "name": "C4",
          "ticks": 259440,
          "time": 645.5366204999999,
          "velocity": 0.7874015748031497
        },
        {
          "duration": 0.10714280000001963,
          "durationTicks": 48,
          "midi": 65,
          "name": "F4",
          "ticks": 259500,
          "time": 645.6705489999999,
          "velocity": 0.7874015748031497
        },
        {
          "duration": 0.10714280000001963,
          "durationTicks": 48,
          "midi": 57,
          "name": "A3",
          "ticks": 259560,
          "time": 645.8044775,
          "velocity": 0.7874015748031497
        },
        {
          "duration": 0.10714280000001963,
          "durationTicks": 48,
          "midi": 60,
          "name": "C4",
          "ticks": 259620,
          "time": 645.938406,
          "velocity": 0.7874015748031497
        },
        {
          "duration": 0.10714279999990595,
          "durationTicks": 48,
          "midi": 65,
          "name": "F4",
          "ticks": 259680,
          "time": 646.0723345,
          "velocity": 0.7874015748031497
        },
        {
          "duration": 0.10714280000001963,
          "durationTicks": 48,
          "midi": 64,
          "name": "E4",
          "ticks": 259740,
          "time": 646.2062629999999,
          "velocity": 0.7874015748031497
        },
        {
          "duration": 0.10714280000001963,
          "durationTicks": 48,
          "midi": 65,
          "name": "F4",
          "ticks": 259800,
          "time": 646.3401915,
          "velocity": 0.7874015748031497
        },
        {
          "duration": 0.10714280000001963,
          "durationTicks": 48,
          "midi": 69,
          "name": "A4",
          "ticks": 259860,
          "time": 646.47412,
          "velocity": 0.7874015748031497
        },
        {
          "duration": 0.10714280000001963,
          "durationTicks": 48,
          "midi": 63,
          "name": "D#4",
          "ticks": 259920,
          "time": 646.6080485,
          "velocity": 0.7874015748031497
        },
        {
          "duration": 0.10714280000001963,
          "durationTicks": 48,
          "midi": 66,
          "name": "F#4",
          "ticks": 259980,
          "time": 646.7419769999999,
          "velocity": 0.7874015748031497
        },
        {
          "duration": 0.10714280000001963,
          "durationTicks": 48,
          "midi": 69,
          "name": "A4",
          "ticks": 260040,
          "time": 646.8759054999999,
          "velocity": 0.7874015748031497
        },
        {
          "duration": 0.10714280000001963,
          "durationTicks": 48,
          "midi": 66,
          "name": "F#4",
          "ticks": 260100,
          "time": 647.009834,
          "velocity": 0.7874015748031497
        },
        {
          "duration": 0.10714280000001963,
          "durationTicks": 48,
          "midi": 63,
          "name": "D#4",
          "ticks": 260160,
          "time": 647.1437625,
          "velocity": 0.7874015748031497
        },
        {
          "duration": 0.10714279999990595,
          "durationTicks": 48,
          "midi": 66,
          "name": "F#4",
          "ticks": 260220,
          "time": 647.277691,
          "velocity": 0.7874015748031497
        },
        {
          "duration": 0.10714280000001963,
          "durationTicks": 48,
          "midi": 59,
          "name": "B3",
          "ticks": 260280,
          "time": 647.4116194999999,
          "velocity": 0.7874015748031497
        },
        {
          "duration": 0.10714280000001963,
          "durationTicks": 48,
          "midi": 63,
          "name": "D#4",
          "ticks": 260340,
          "time": 647.5455479999999,
          "velocity": 0.7874015748031497
        },
        {
          "duration": 0.10714280000001963,
          "durationTicks": 48,
          "midi": 54,
          "name": "F#3",
          "ticks": 260400,
          "time": 647.6794765,
          "velocity": 0.7874015748031497
        },
        {
          "duration": 0.10714280000001963,
          "durationTicks": 48,
          "midi": 57,
          "name": "A3",
          "ticks": 260460,
          "time": 647.813405,
          "velocity": 0.7874015748031497
        },
        {
          "duration": 0.10714279999990595,
          "durationTicks": 48,
          "midi": 55,
          "name": "G3",
          "ticks": 260520,
          "time": 647.9473335,
          "velocity": 0.7874015748031497
        },
        {
          "duration": 0.10714280000001963,
          "durationTicks": 48,
          "midi": 54,
          "name": "F#3",
          "ticks": 260580,
          "time": 648.0812619999999,
          "velocity": 0.7874015748031497
        },
        {
          "duration": 0.10714280000001963,
          "durationTicks": 48,
          "midi": 55,
          "name": "G3",
          "ticks": 260640,
          "time": 648.2151905,
          "velocity": 0.7874015748031497
        },
        {
          "duration": 0.10714280000001963,
          "durationTicks": 48,
          "midi": 59,
          "name": "B3",
          "ticks": 260700,
          "time": 648.349119,
          "velocity": 0.7874015748031497
        },
        {
          "duration": 0.10714280000001963,
          "durationTicks": 48,
          "midi": 64,
          "name": "E4",
          "ticks": 260760,
          "time": 648.4830475,
          "velocity": 0.7874015748031497
        },
        {
          "duration": 0.10714280000001963,
          "durationTicks": 48,
          "midi": 59,
          "name": "B3",
          "ticks": 260820,
          "time": 648.6169759999999,
          "velocity": 0.7874015748031497
        },
        {
          "duration": 0.10714280000001963,
          "durationTicks": 48,
          "midi": 55,
          "name": "G3",
          "ticks": 260880,
          "time": 648.7509044999999,
          "velocity": 0.7874015748031497
        },
        {
          "duration": 0.10714280000001963,
          "durationTicks": 48,
          "midi": 59,
          "name": "B3",
          "ticks": 260940,
          "time": 648.884833,
          "velocity": 0.7874015748031497
        },
        {
          "duration": 0.10714280000001963,
          "durationTicks": 48,
          "midi": 52,
          "name": "E3",
          "ticks": 261000,
          "time": 649.0187615,
          "velocity": 0.7874015748031497
        },
        {
          "duration": 0.10714279999990595,
          "durationTicks": 48,
          "midi": 54,
          "name": "F#3",
          "ticks": 261060,
          "time": 649.15269,
          "velocity": 0.7874015748031497
        },
        {
          "duration": 0.10714280000001963,
          "durationTicks": 48,
          "midi": 55,
          "name": "G3",
          "ticks": 261120,
          "time": 649.2866184999999,
          "velocity": 0.7874015748031497
        },
        {
          "duration": 0.10714280000001963,
          "durationTicks": 48,
          "midi": 52,
          "name": "E3",
          "ticks": 261180,
          "time": 649.4205469999999,
          "velocity": 0.7874015748031497
        },
        {
          "duration": 0.10714280000001963,
          "durationTicks": 48,
          "midi": 55,
          "name": "G3",
          "ticks": 261240,
          "time": 649.5544755,
          "velocity": 0.7874015748031497
        },
        {
          "duration": 0.10714280000001963,
          "durationTicks": 48,
          "midi": 59,
          "name": "B3",
          "ticks": 261300,
          "time": 649.688404,
          "velocity": 0.7874015748031497
        },
        {
          "duration": 0.3214283999999452,
          "durationTicks": 144,
          "midi": 64,
          "name": "E4",
          "ticks": 261360,
          "time": 649.8223325,
          "velocity": 0.7874015748031497
        },
        {
          "duration": 0.05357140000000982,
          "durationTicks": 24,
          "midi": 52,
          "name": "E3",
          "ticks": 261540,
          "time": 650.224118,
          "velocity": 0.7874015748031497
        },
        {
          "duration": 0.05357140000000982,
          "durationTicks": 24,
          "midi": 50,
          "name": "D3",
          "ticks": 261570,
          "time": 650.2910822499999,
          "velocity": 0.7874015748031497
        },
        {
          "duration": 0.3214283999999452,
          "durationTicks": 144,
          "midi": 52,
          "name": "E3",
          "ticks": 261600,
          "time": 650.3580465,
          "velocity": 0.7874015748031497
        },
        {
          "duration": 0.05357140000000982,
          "durationTicks": 24,
          "midi": 60,
          "name": "C4",
          "ticks": 261780,
          "time": 650.759832,
          "velocity": 0.7874015748031497
        },
        {
          "duration": 0.05357140000000982,
          "durationTicks": 24,
          "midi": 59,
          "name": "B3",
          "ticks": 261810,
          "time": 650.8267962499999,
          "velocity": 0.7874015748031497
        },
        {
          "duration": 0.3214283999999452,
          "durationTicks": 144,
          "midi": 60,
          "name": "C4",
          "ticks": 261840,
          "time": 650.8937605,
          "velocity": 0.7874015748031497
        },
        {
          "duration": 0.05357140000000982,
          "durationTicks": 24,
          "midi": 69,
          "name": "A4",
          "ticks": 262020,
          "time": 651.295546,
          "velocity": 0.7874015748031497
        },
        {
          "duration": 0.05357139999989613,
          "durationTicks": 24,
          "midi": 67,
          "name": "G4",
          "ticks": 262050,
          "time": 651.36251025,
          "velocity": 0.7874015748031497
        },
        {
          "duration": 0.3214283999999452,
          "durationTicks": 144,
          "midi": 69,
          "name": "A4",
          "ticks": 262080,
          "time": 651.4294745,
          "velocity": 0.7874015748031497
        },
        {
          "duration": 0.05357140000000982,
          "durationTicks": 24,
          "midi": 50,
          "name": "D3",
          "ticks": 262260,
          "time": 651.8312599999999,
          "velocity": 0.7874015748031497
        },
        {
          "duration": 0.05357140000000982,
          "durationTicks": 24,
          "midi": 48,
          "name": "C3",
          "ticks": 262290,
          "time": 651.89822425,
          "velocity": 0.7874015748031497
        },
        {
          "duration": 0.3214284000000589,
          "durationTicks": 144,
          "midi": 50,
          "name": "D3",
          "ticks": 262320,
          "time": 651.9651885,
          "velocity": 0.7874015748031497
        },
        {
          "duration": 0.05357140000000982,
          "durationTicks": 24,
          "midi": 59,
          "name": "B3",
          "ticks": 262500,
          "time": 652.3669739999999,
          "velocity": 0.7874015748031497
        },
        {
          "duration": 0.05357140000000982,
          "durationTicks": 24,
          "midi": 57,
          "name": "A3",
          "ticks": 262530,
          "time": 652.43393825,
          "velocity": 0.7874015748031497
        },
        {
          "duration": 0.3214284000000589,
          "durationTicks": 144,
          "midi": 59,
          "name": "B3",
          "ticks": 262560,
          "time": 652.5009024999999,
          "velocity": 0.7874015748031497
        },
        {
          "duration": 0.05357139999989613,
          "durationTicks": 24,
          "midi": 67,
          "name": "G4",
          "ticks": 262740,
          "time": 652.902688,
          "velocity": 0.7874015748031497
        },
        {
          "duration": 0.05357140000000982,
          "durationTicks": 24,
          "midi": 66,
          "name": "F#4",
          "ticks": 262770,
          "time": 652.96965225,
          "velocity": 0.7874015748031497
        },
        {
          "duration": 0.3214284000000589,
          "durationTicks": 144,
          "midi": 67,
          "name": "G4",
          "ticks": 262800,
          "time": 653.0366164999999,
          "velocity": 0.7874015748031497
        },
        {
          "duration": 0.05357140000000982,
          "durationTicks": 24,
          "midi": 48,
          "name": "C3",
          "ticks": 262980,
          "time": 653.438402,
          "velocity": 0.7874015748031497
        },
        {
          "duration": 0.05357140000000982,
          "durationTicks": 24,
          "midi": 47,
          "name": "B2",
          "ticks": 263010,
          "time": 653.50536625,
          "velocity": 0.7874015748031497
        },
        {
          "duration": 0.3214284000000589,
          "durationTicks": 144,
          "midi": 48,
          "name": "C3",
          "ticks": 263040,
          "time": 653.5723304999999,
          "velocity": 0.7874015748031497
        },
        {
          "duration": 0.05357140000000982,
          "durationTicks": 24,
          "midi": 57,
          "name": "A3",
          "ticks": 263220,
          "time": 653.974116,
          "velocity": 0.7874015748031497
        },
        {
          "duration": 0.05357140000000982,
          "durationTicks": 24,
          "midi": 55,
          "name": "G3",
          "ticks": 263250,
          "time": 654.0410802499999,
          "velocity": 0.7874015748031497
        },
        {
          "duration": 0.3214283999999452,
          "durationTicks": 144,
          "midi": 57,
          "name": "A3",
          "ticks": 263280,
          "time": 654.1080445,
          "velocity": 0.7874015748031497
        },
        {
          "duration": 0.05357140000000982,
          "durationTicks": 24,
          "midi": 66,
          "name": "F#4",
          "ticks": 263460,
          "time": 654.50983,
          "velocity": 0.7874015748031497
        },
        {
          "duration": 0.05357140000000982,
          "durationTicks": 24,
          "midi": 64,
          "name": "E4",
          "ticks": 263490,
          "time": 654.5767942499999,
          "velocity": 0.7874015748031497
        },
        {
          "duration": 0.3214283999999452,
          "durationTicks": 144,
          "midi": 66,
          "name": "F#4",
          "ticks": 263520,
          "time": 654.6437585,
          "velocity": 0.7874015748031497
        },
        {
          "duration": 0.05357140000000982,
          "durationTicks": 24,
          "midi": 74,
          "name": "D5",
          "ticks": 263700,
          "time": 655.045544,
          "velocity": 0.7874015748031497
        },
        {
          "duration": 0.05357139999989613,
          "durationTicks": 24,
          "midi": 72,
          "name": "C5",
          "ticks": 263730,
          "time": 655.11250825,
          "velocity": 0.7874015748031497
        },
        {
          "duration": 0.3214283999999452,
          "durationTicks": 144,
          "midi": 74,
          "name": "D5",
          "ticks": 263760,
          "time": 655.1794725,
          "velocity": 0.7874015748031497
        },
        {
          "duration": 0.05357140000000982,
          "durationTicks": 24,
          "midi": 79,
          "name": "G5",
          "ticks": 263940,
          "time": 655.5812579999999,
          "velocity": 0.7874015748031497
        },
        {
          "duration": 0.05357139999989613,
          "durationTicks": 24,
          "midi": 78,
          "name": "F#5",
          "ticks": 263970,
          "time": 655.64822225,
          "velocity": 0.7874015748031497
        },
        {
          "duration": 0.3214283999999452,
          "durationTicks": 144,
          "midi": 79,
          "name": "G5",
          "ticks": 264000,
          "time": 655.7151865,
          "velocity": 0.7874015748031497
        },
        {
          "duration": 0.05357140000000982,
          "durationTicks": 24,
          "midi": 83,
          "name": "B5",
          "ticks": 264180,
          "time": 656.1169719999999,
          "velocity": 0.7874015748031497
        },
        {
          "duration": 0.05357140000000982,
          "durationTicks": 24,
          "midi": 81,
          "name": "A5",
          "ticks": 264210,
          "time": 656.18393625,
          "velocity": 0.7874015748031497
        },
        {
          "duration": 0.42857119999996485,
          "durationTicks": 192,
          "midi": 83,
          "name": "B5",
          "ticks": 264240,
          "time": 656.2509005,
          "velocity": 0.7874015748031497
        },
        {
          "duration": 0.42857120000007853,
          "durationTicks": 192,
          "midi": 62,
          "name": "D4",
          "ticks": 264480,
          "time": 656.7866144999999,
          "velocity": 0.7874015748031497
        },
        {
          "duration": 0.42857120000007853,
          "durationTicks": 192,
          "midi": 65,
          "name": "F4",
          "ticks": 264720,
          "time": 657.3223284999999,
          "velocity": 0.7874015748031497
        },
        {
          "duration": 0.05357140000000982,
          "durationTicks": 24,
          "midi": 64,
          "name": "E4",
          "ticks": 264990,
          "time": 657.92500675,
          "velocity": 0.7874015748031497
        },
        {
          "duration": 0.05357140000000982,
          "durationTicks": 24,
          "midi": 65,
          "name": "F4",
          "ticks": 265020,
          "time": 657.9919709999999,
          "velocity": 0.7874015748031497
        },
        {
          "duration": 0.05357140000000982,
          "durationTicks": 24,
          "midi": 67,
          "name": "G4",
          "ticks": 265050,
          "time": 658.05893525,
          "velocity": 0.7874015748031497
        },
        {
          "duration": 0.05357140000000982,
          "durationTicks": 24,
          "midi": 72,
          "name": "C5",
          "ticks": 265080,
          "time": 658.1258995,
          "velocity": 0.7874015748031497
        },
        {
          "duration": 0.05357139999989613,
          "durationTicks": 24,
          "midi": 67,
          "name": "G4",
          "ticks": 265110,
          "time": 658.19286375,
          "velocity": 0.7874015748031497
        },
        {
          "duration": 0.05357140000000982,
          "durationTicks": 24,
          "midi": 65,
          "name": "F4",
          "ticks": 265140,
          "time": 658.259828,
          "velocity": 0.7874015748031497
        },
        {
          "duration": 0.05357140000000982,
          "durationTicks": 24,
          "midi": 64,
          "name": "E4",
          "ticks": 265170,
          "time": 658.3267922499999,
          "velocity": 0.7874015748031497
        },
        {
          "duration": 0.05357140000000982,
          "durationTicks": 24,
          "midi": 66,
          "name": "F#4",
          "ticks": 265230,
          "time": 658.46072075,
          "velocity": 0.7874015748031497
        },
        {
          "duration": 0.05357139999989613,
          "durationTicks": 24,
          "midi": 67,
          "name": "G4",
          "ticks": 265260,
          "time": 658.527685,
          "velocity": 0.7874015748031497
        },
        {
          "duration": 0.05357140000000982,
          "durationTicks": 24,
          "midi": 69,
          "name": "A4",
          "ticks": 265290,
          "time": 658.59464925,
          "velocity": 0.7874015748031497
        },
        {
          "duration": 0.05357140000000982,
          "durationTicks": 24,
          "midi": 72,
          "name": "C5",
          "ticks": 265320,
          "time": 658.6616134999999,
          "velocity": 0.7874015748031497
        },
        {
          "duration": 0.05357140000000982,
          "durationTicks": 24,
          "midi": 69,
          "name": "A4",
          "ticks": 265350,
          "time": 658.72857775,
          "velocity": 0.7874015748031497
        },
        {
          "duration": 0.05357140000000982,
          "durationTicks": 24,
          "midi": 67,
          "name": "G4",
          "ticks": 265380,
          "time": 658.795542,
          "velocity": 0.7874015748031497
        },
        {
          "duration": 0.05357140000000982,
          "durationTicks": 24,
          "midi": 66,
          "name": "F#4",
          "ticks": 265410,
          "time": 658.8625062499999,
          "velocity": 0.7874015748031497
        },
        {
          "duration": 0.05357140000000982,
          "durationTicks": 24,
          "midi": 67,
          "name": "G4",
          "ticks": 265470,
          "time": 658.9964347499999,
          "velocity": 0.7874015748031497
        },
        {
          "duration": 0.05357139999989613,
          "durationTicks": 24,
          "midi": 69,
          "name": "A4",
          "ticks": 265500,
          "time": 659.063399,
          "velocity": 0.7874015748031497
        },
        {
          "duration": 0.05357140000000982,
          "durationTicks": 24,
          "midi": 70,
          "name": "A#4",
          "ticks": 265530,
          "time": 659.13036325,
          "velocity": 0.7874015748031497
        },
        {
          "duration": 0.05357140000000982,
          "durationTicks": 24,
          "midi": 73,
          "name": "C#5",
          "ticks": 265560,
          "time": 659.1973274999999,
          "velocity": 0.7874015748031497
        },
        {
          "duration": 0.05357140000000982,
          "durationTicks": 24,
          "midi": 70,
          "name": "A#4",
          "ticks": 265590,
          "time": 659.26429175,
          "velocity": 0.7874015748031497
        },
        {
          "duration": 0.05357140000000982,
          "durationTicks": 24,
          "midi": 69,
          "name": "A4",
          "ticks": 265620,
          "time": 659.3312559999999,
          "velocity": 0.7874015748031497
        },
        {
          "duration": 0.05357139999989613,
          "durationTicks": 24,
          "midi": 67,
          "name": "G4",
          "ticks": 265650,
          "time": 659.39822025,
          "velocity": 0.7874015748031497
        },
        {
          "duration": 0.10714280000001963,
          "durationTicks": 48,
          "midi": 74,
          "name": "D5",
          "ticks": 265680,
          "time": 659.4651845,
          "velocity": 0.7874015748031497
        },
        {
          "duration": 0.05357140000000982,
          "durationTicks": 24,
          "midi": 72,
          "name": "C5",
          "ticks": 265740,
          "time": 659.599113,
          "velocity": 0.7874015748031497
        },
        {
          "duration": 0.05357140000000982,
          "durationTicks": 24,
          "midi": 71,
          "name": "B4",
          "ticks": 265770,
          "time": 659.66607725,
          "velocity": 0.7874015748031497
        },
        {
          "duration": 0.10714279999990595,
          "durationTicks": 48,
          "midi": 72,
          "name": "C5",
          "ticks": 265800,
          "time": 659.7330415,
          "velocity": 0.7874015748031497
        },
        {
          "duration": 0.05357140000000982,
          "durationTicks": 24,
          "midi": 71,
          "name": "B4",
          "ticks": 265860,
          "time": 659.8669699999999,
          "velocity": 0.7874015748031497
        },
        {
          "duration": 0.05357140000000982,
          "durationTicks": 24,
          "midi": 69,
          "name": "A4",
          "ticks": 265890,
          "time": 659.93393425,
          "velocity": 0.7874015748031497
        },
        {
          "duration": 0.10714280000001963,
          "durationTicks": 48,
          "midi": 71,
          "name": "B4",
          "ticks": 265920,
          "time": 660.0008985,
          "velocity": 0.7874015748031497
        },
        {
          "duration": 0.05357140000000982,
          "durationTicks": 24,
          "midi": 70,
          "name": "A#4",
          "ticks": 265980,
          "time": 660.134827,
          "velocity": 0.7874015748031497
        },
        {
          "duration": 0.05357140000000982,
          "durationTicks": 24,
          "midi": 69,
          "name": "A4",
          "ticks": 266010,
          "time": 660.2017912499999,
          "velocity": 0.7874015748031497
        },
        {
          "duration": 0.10714280000001963,
          "durationTicks": 48,
          "midi": 70,
          "name": "A#4",
          "ticks": 266040,
          "time": 660.2687555,
          "velocity": 0.7874015748031497
        },
        {
          "duration": 0.05357140000000982,
          "durationTicks": 24,
          "midi": 69,
          "name": "A4",
          "ticks": 266100,
          "time": 660.4026839999999,
          "velocity": 0.7874015748031497
        },
        {
          "duration": 0.05357140000000982,
          "durationTicks": 24,
          "midi": 67,
          "name": "G4",
          "ticks": 266130,
          "time": 660.46964825,
          "velocity": 0.7874015748031497
        },
        {
          "duration": 0.10714280000001963,
          "durationTicks": 48,
          "midi": 69,
          "name": "A4",
          "ticks": 266160,
          "time": 660.5366124999999,
          "velocity": 0.7874015748031497
        },
        {
          "duration": 0.05357140000000982,
          "durationTicks": 24,
          "midi": 74,
          "name": "D5",
          "ticks": 266220,
          "time": 660.670541,
          "velocity": 0.7874015748031497
        },
        {
          "duration": 0.05357140000000982,
          "durationTicks": 24,
          "midi": 72,
          "name": "C5",
          "ticks": 266250,
          "time": 660.7375052499999,
          "velocity": 0.7874015748031497
        },
        {
          "duration": 0.10714280000001963,
          "durationTicks": 48,
          "midi": 74,
          "name": "D5",
          "ticks": 266280,
          "time": 660.8044695,
          "velocity": 0.7874015748031497
        },
        {
          "duration": 0.05357140000000982,
          "durationTicks": 24,
          "midi": 67,
          "name": "G4",
          "ticks": 266340,
          "time": 660.938398,
          "velocity": 0.7874015748031497
        },
        {
          "duration": 0.05357140000000982,
          "durationTicks": 24,
          "midi": 66,
          "name": "F#4",
          "ticks": 266370,
          "time": 661.00536225,
          "velocity": 0.7874015748031497
        },
        {
          "duration": 0.05357140000000982,
          "durationTicks": 24,
          "midi": 67,
          "name": "G4",
          "ticks": 266400,
          "time": 661.0723264999999,
          "velocity": 0.7874015748031497
        },
        {
          "duration": 0.05357140000000982,
          "durationTicks": 24,
          "midi": 69,
          "name": "A4",
          "ticks": 266430,
          "time": 661.13929075,
          "velocity": 0.7874015748031497
        },
        {
          "duration": 0.05357140000000982,
          "durationTicks": 24,
          "midi": 71,
          "name": "B4",
          "ticks": 266460,
          "time": 661.2062549999999,
          "velocity": 0.7874015748031497
        },
        {
          "duration": 0.05357139999989613,
          "durationTicks": 24,
          "midi": 72,
          "name": "C5",
          "ticks": 266490,
          "time": 661.27321925,
          "velocity": 0.7874015748031497
        },
        {
          "duration": 0.05357140000000982,
          "durationTicks": 24,
          "midi": 74,
          "name": "D5",
          "ticks": 266520,
          "time": 661.3401835,
          "velocity": 0.7874015748031497
        },
        {
          "duration": 0.05357140000000982,
          "durationTicks": 24,
          "midi": 72,
          "name": "C5",
          "ticks": 266550,
          "time": 661.4071477499999,
          "velocity": 0.7874015748031497
        },
        {
          "duration": 0.05357140000000982,
          "durationTicks": 24,
          "midi": 71,
          "name": "B4",
          "ticks": 266580,
          "time": 661.474112,
          "velocity": 0.7874015748031497
        },
        {
          "duration": 0.05357140000000982,
          "durationTicks": 24,
          "midi": 69,
          "name": "A4",
          "ticks": 266610,
          "time": 661.54107625,
          "velocity": 0.7874015748031497
        },
        {
          "duration": 0.05357139999989613,
          "durationTicks": 24,
          "midi": 71,
          "name": "B4",
          "ticks": 266640,
          "time": 661.6080405,
          "velocity": 0.7874015748031497
        },
        {
          "duration": 0.05357140000000982,
          "durationTicks": 24,
          "midi": 67,
          "name": "G4",
          "ticks": 266670,
          "time": 661.67500475,
          "velocity": 0.7874015748031497
        },
        {
          "duration": 0.05357140000000982,
          "durationTicks": 24,
          "midi": 74,
          "name": "D5",
          "ticks": 266700,
          "time": 661.7419689999999,
          "velocity": 0.7874015748031497
        },
        {
          "duration": 0.05357140000000982,
          "durationTicks": 24,
          "midi": 72,
          "name": "C5",
          "ticks": 266730,
          "time": 661.80893325,
          "velocity": 0.7874015748031497
        },
        {
          "duration": 0.05357140000000982,
          "durationTicks": 24,
          "midi": 74,
          "name": "D5",
          "ticks": 266760,
          "time": 661.8758975,
          "velocity": 0.7874015748031497
        },
        {
          "duration": 0.05357139999989613,
          "durationTicks": 24,
          "midi": 71,
          "name": "B4",
          "ticks": 266790,
          "time": 661.94286175,
          "velocity": 0.7874015748031497
        },
        {
          "duration": 0.05357140000000982,
          "durationTicks": 24,
          "midi": 79,
          "name": "G5",
          "ticks": 266820,
          "time": 662.009826,
          "velocity": 0.7874015748031497
        },
        {
          "duration": 0.05357140000000982,
          "durationTicks": 24,
          "midi": 78,
          "name": "F#5",
          "ticks": 266850,
          "time": 662.0767902499999,
          "velocity": 0.7874015748031497
        },
        {
          "duration": 0.21428559999992558,
          "durationTicks": 96,
          "midi": 79,
          "name": "G5",
          "ticks": 266880,
          "time": 662.1437545,
          "velocity": 0.7874015748031497
        },
        {
          "duration": 0.46875,
          "durationTicks": 60,
          "midi": 67,
          "name": "G4",
          "ticks": 268020,
          "time": 668.4160753666666,
          "velocity": 0.7874015748031497
        },
        {
          "duration": 0.46875,
          "durationTicks": 60,
          "midi": 67,
          "name": "G4",
          "ticks": 268080,
          "time": 668.8848253666666,
          "velocity": 0.7874015748031497
        },
        {
          "duration": 0.46875,
          "durationTicks": 60,
          "midi": 65,
          "name": "F4",
          "ticks": 268140,
          "time": 669.3535753666666,
          "velocity": 0.7874015748031497
        },
        {
          "duration": 0.46875,
          "durationTicks": 60,
          "midi": 65,
          "name": "F4",
          "ticks": 268200,
          "time": 669.8223253666666,
          "velocity": 0.7874015748031497
        },
        {
          "duration": 0.46875,
          "durationTicks": 60,
          "midi": 63,
          "name": "D#4",
          "ticks": 268260,
          "time": 670.2910753666666,
          "velocity": 0.7874015748031497
        },
        {
          "duration": 0.46875,
          "durationTicks": 60,
          "midi": 63,
          "name": "D#4",
          "ticks": 268320,
          "time": 670.7598253666666,
          "velocity": 0.7874015748031497
        },
        {
          "duration": 0.46875,
          "durationTicks": 60,
          "midi": 62,
          "name": "D4",
          "ticks": 268380,
          "time": 671.2285753666666,
          "velocity": 0.7874015748031497
        },
        {
          "duration": 2.34375,
          "durationTicks": 300,
          "midi": 62,
          "name": "D4",
          "ticks": 268440,
          "time": 671.6973253666666,
          "velocity": 0.7874015748031497
        },
        {
          "duration": 0.46875,
          "durationTicks": 60,
          "midi": 60,
          "name": "C4",
          "ticks": 268740,
          "time": 674.0410753666666,
          "velocity": 0.7874015748031497
        },
        {
          "duration": 0.46875,
          "durationTicks": 60,
          "midi": 58,
          "name": "A#3",
          "ticks": 268800,
          "time": 674.5098253666666,
          "velocity": 0.7874015748031497
        },
        {
          "duration": 0.46875,
          "durationTicks": 60,
          "midi": 57,
          "name": "A3",
          "ticks": 268860,
          "time": 674.9785753666666,
          "velocity": 0.7874015748031497
        },
        {
          "duration": 0.46875,
          "durationTicks": 60,
          "midi": 55,
          "name": "G3",
          "ticks": 268920,
          "time": 675.4473253666666,
          "velocity": 0.7874015748031497
        },
        {
          "duration": 0.46875,
          "durationTicks": 60,
          "midi": 61,
          "name": "C#4",
          "ticks": 268980,
          "time": 675.9160753666666,
          "velocity": 0.7874015748031497
        },
        {
          "duration": 0.234375,
          "durationTicks": 30,
          "midi": 61,
          "name": "C#4",
          "ticks": 269040,
          "time": 676.3848253666666,
          "velocity": 0.7874015748031497
        },
        {
          "duration": 0.234375,
          "durationTicks": 30,
          "midi": 62,
          "name": "D4",
          "ticks": 269070,
          "time": 676.6192003666666,
          "velocity": 0.7874015748031497
        },
        {
          "duration": 0.46875,
          "durationTicks": 60,
          "midi": 61,
          "name": "C#4",
          "ticks": 269100,
          "time": 676.8535753666666,
          "velocity": 0.7874015748031497
        },
        {
          "duration": 2.8125,
          "durationTicks": 360,
          "midi": 67,
          "name": "G4",
          "ticks": 269160,
          "time": 677.3223253666666,
          "velocity": 0.7874015748031497
        },
        {
          "duration": 0.46875,
          "durationTicks": 60,
          "midi": 66,
          "name": "F#4",
          "ticks": 269520,
          "time": 680.1348253666666,
          "velocity": 0.7874015748031497
        },
        {
          "duration": 0.46875,
          "durationTicks": 60,
          "midi": 64,
          "name": "E4",
          "ticks": 269580,
          "time": 680.6035753666666,
          "velocity": 0.7874015748031497
        },
        {
          "duration": 0.46875,
          "durationTicks": 60,
          "midi": 66,
          "name": "F#4",
          "ticks": 269640,
          "time": 681.0723253666666,
          "velocity": 0.7874015748031497
        },
        {
          "duration": 0.46875,
          "durationTicks": 60,
          "midi": 67,
          "name": "G4",
          "ticks": 269700,
          "time": 681.5410753666666,
          "velocity": 0.7874015748031497
        },
        {
          "duration": 0.46875,
          "durationTicks": 60,
          "midi": 67,
          "name": "G4",
          "ticks": 269760,
          "time": 682.0098253666666,
          "velocity": 0.7874015748031497
        },
        {
          "duration": 0.46875,
          "durationTicks": 60,
          "midi": 69,
          "name": "A4",
          "ticks": 269820,
          "time": 682.4785753666666,
          "velocity": 0.7874015748031497
        },
        {
          "duration": 1.875,
          "durationTicks": 240,
          "midi": 70,
          "name": "A#4",
          "ticks": 269880,
          "time": 682.9473253666666,
          "velocity": 0.7874015748031497
        },
        {
          "duration": 0.9375,
          "durationTicks": 120,
          "midi": 69,
          "name": "A4",
          "ticks": 270240,
          "time": 685.7598253666666,
          "velocity": 0.7874015748031497
        },
        {
          "duration": 0.234375,
          "durationTicks": 30,
          "midi": 62,
          "name": "D4",
          "ticks": 270360,
          "time": 686.6973253666666,
          "velocity": 0.7874015748031497
        },
        {
          "duration": 0.234375,
          "durationTicks": 30,
          "midi": 60,
          "name": "C4",
          "ticks": 270390,
          "time": 686.9317003666666,
          "velocity": 0.7874015748031497
        },
        {
          "duration": 0.46875,
          "durationTicks": 60,
          "midi": 63,
          "name": "D#4",
          "ticks": 270420,
          "time": 687.1660753666666,
          "velocity": 0.7874015748031497
        },
        {
          "duration": 0.46875,
          "durationTicks": 60,
          "midi": 62,
          "name": "D4",
          "ticks": 270480,
          "time": 687.6348253666666,
          "velocity": 0.7874015748031497
        },
        {
          "duration": 0.46875,
          "durationTicks": 60,
          "midi": 60,
          "name": "C4",
          "ticks": 270540,
          "time": 688.1035753666666,
          "velocity": 0.7874015748031497
        },
        {
          "duration": 0.46875,
          "durationTicks": 60,
          "midi": 58,
          "name": "A#3",
          "ticks": 270600,
          "time": 688.5723253666666,
          "velocity": 0.7874015748031497
        },
        {
          "duration": 0.46875,
          "durationTicks": 60,
          "midi": 57,
          "name": "A3",
          "ticks": 270660,
          "time": 689.0410753666666,
          "velocity": 0.7874015748031497
        },
        {
          "duration": 0.46875,
          "durationTicks": 60,
          "midi": 55,
          "name": "G3",
          "ticks": 270720,
          "time": 689.5098253666666,
          "velocity": 0.7874015748031497
        },
        {
          "duration": 0.46875,
          "durationTicks": 60,
          "midi": 57,
          "name": "A3",
          "ticks": 270780,
          "time": 689.9785753666666,
          "velocity": 0.7874015748031497
        },
        {
          "duration": 0.46875,
          "durationTicks": 60,
          "midi": 58,
          "name": "A#3",
          "ticks": 270840,
          "time": 690.4473253666666,
          "velocity": 0.7874015748031497
        },
        {
          "duration": 0.46875,
          "durationTicks": 60,
          "midi": 62,
          "name": "D4",
          "ticks": 270900,
          "time": 690.9160753666666,
          "velocity": 0.7874015748031497
        },
        {
          "duration": 1.875,
          "durationTicks": 240,
          "midi": 67,
          "name": "G4",
          "ticks": 270960,
          "time": 691.3848253666666,
          "velocity": 0.7874015748031497
        },
        {
          "duration": 0.15625,
          "durationTicks": 20,
          "midi": 66,
          "name": "F#4",
          "ticks": 271200,
          "time": 693.2598253666666,
          "velocity": 0.7874015748031497
        },
        {
          "duration": 0.15625,
          "durationTicks": 20,
          "midi": 67,
          "name": "G4",
          "ticks": 271220,
          "time": 693.4160753666666,
          "velocity": 0.7874015748031497
        },
        {
          "duration": 0.15625,
          "durationTicks": 20,
          "midi": 66,
          "name": "F#4",
          "ticks": 271240,
          "time": 693.5723253666666,
          "velocity": 0.7874015748031497
        },
        {
          "duration": 0.234375,
          "durationTicks": 30,
          "midi": 64,
          "name": "E4",
          "ticks": 271260,
          "time": 693.7285753666666,
          "velocity": 0.7874015748031497
        },
        {
          "duration": 0.234375,
          "durationTicks": 30,
          "midi": 66,
          "name": "F#4",
          "ticks": 271290,
          "time": 693.9629503666666,
          "velocity": 0.7874015748031497
        },
        {
          "duration": 1.875,
          "durationTicks": 240,
          "midi": 67,
          "name": "G4",
          "ticks": 271320,
          "time": 694.1973253666666,
          "velocity": 0.7874015748031497
        },
        {
          "duration": 0.46875,
          "durationTicks": 60,
          "midi": 66,
          "name": "F#4",
          "ticks": 271620,
          "time": 696.5410753666666,
          "velocity": 0.7874015748031497
        },
        {
          "duration": 0.46875,
          "durationTicks": 60,
          "midi": 67,
          "name": "G4",
          "ticks": 271680,
          "time": 697.0098253666666,
          "velocity": 0.7874015748031497
        },
        {
          "duration": 0.46875,
          "durationTicks": 60,
          "midi": 69,
          "name": "A4",
          "ticks": 271740,
          "time": 697.4785753666666,
          "velocity": 0.7874015748031497
        },
        {
          "duration": 0.46875,
          "durationTicks": 60,
          "midi": 70,
          "name": "A#4",
          "ticks": 271800,
          "time": 697.9473253666666,
          "velocity": 0.7874015748031497
        },
        {
          "duration": 0.46875,
          "durationTicks": 60,
          "midi": 69,
          "name": "A4",
          "ticks": 271860,
          "time": 698.4160753666666,
          "velocity": 0.7874015748031497
        },
        {
          "duration": 0.46875,
          "durationTicks": 60,
          "midi": 69,
          "name": "A4",
          "ticks": 271920,
          "time": 698.8848253666666,
          "velocity": 0.7874015748031497
        },
        {
          "duration": 0.46875,
          "durationTicks": 60,
          "midi": 67,
          "name": "G4",
          "ticks": 271980,
          "time": 699.3535753666666,
          "velocity": 0.7874015748031497
        },
        {
          "duration": 0.46875,
          "durationTicks": 60,
          "midi": 67,
          "name": "G4",
          "ticks": 272040,
          "time": 699.8223253666666,
          "velocity": 0.7874015748031497
        },
        {
          "duration": 0.46875,
          "durationTicks": 60,
          "midi": 66,
          "name": "F#4",
          "ticks": 272100,
          "time": 700.2910753666666,
          "velocity": 0.7874015748031497
        },
        {
          "duration": 0.46875,
          "durationTicks": 60,
          "midi": 66,
          "name": "F#4",
          "ticks": 272160,
          "time": 700.7598253666666,
          "velocity": 0.7874015748031497
        },
        {
          "duration": 0.46875,
          "durationTicks": 60,
          "midi": 67,
          "name": "G4",
          "ticks": 272220,
          "time": 701.2285753666666,
          "velocity": 0.7874015748031497
        },
        {
          "duration": 1.875,
          "durationTicks": 240,
          "midi": 67,
          "name": "G4",
          "ticks": 272280,
          "time": 701.6973253666666,
          "velocity": 0.7874015748031497
        },
        {
          "duration": 0.9375,
          "durationTicks": 120,
          "midi": 60,
          "name": "C4",
          "ticks": 272640,
          "time": 704.5098253666666,
          "velocity": 0.7874015748031497
        },
        {
          "duration": 0.9375,
          "durationTicks": 120,
          "midi": 58,
          "name": "A#3",
          "ticks": 272760,
          "time": 705.4473253666666,
          "velocity": 0.7874015748031497
        },
        {
          "duration": 0.46875,
          "durationTicks": 60,
          "midi": 67,
          "name": "G4",
          "ticks": 272880,
          "time": 706.3848253666666,
          "velocity": 0.7874015748031497
        },
        {
          "duration": 0.9375,
          "durationTicks": 120,
          "midi": 65,
          "name": "F4",
          "ticks": 272940,
          "time": 706.8535753666666,
          "velocity": 0.7874015748031497
        },
        {
          "duration": 0.9375,
          "durationTicks": 120,
          "midi": 64,
          "name": "E4",
          "ticks": 273060,
          "time": 707.7910753666666,
          "velocity": 0.7874015748031497
        },
        {
          "duration": 0.46875,
          "durationTicks": 60,
          "midi": 62,
          "name": "D4",
          "ticks": 273180,
          "time": 708.7285753666666,
          "velocity": 0.7874015748031497
        },
        {
          "duration": 0.9375,
          "durationTicks": 120,
          "midi": 61,
          "name": "C#4",
          "ticks": 273240,
          "time": 709.1973253666666,
          "velocity": 0.7874015748031497
        },
        {
          "duration": 0.9375,
          "durationTicks": 120,
          "midi": 70,
          "name": "A#4",
          "ticks": 273360,
          "time": 710.1348253666666,
          "velocity": 0.7874015748031497
        },
        {
          "duration": 0.9375,
          "durationTicks": 120,
          "midi": 69,
          "name": "A4",
          "ticks": 273480,
          "time": 711.0723253666666,
          "velocity": 0.7874015748031497
        },
        {
          "duration": 0.9375,
          "durationTicks": 120,
          "midi": 61,
          "name": "C#4",
          "ticks": 273600,
          "time": 712.0098253666666,
          "velocity": 0.7874015748031497
        },
        {
          "duration": 0.234375,
          "durationTicks": 30,
          "midi": 62,
          "name": "D4",
          "ticks": 273840,
          "time": 713.8848253666666,
          "velocity": 0.7874015748031497
        },
        {
          "duration": 0.234375,
          "durationTicks": 30,
          "midi": 61,
          "name": "C#4",
          "ticks": 273870,
          "time": 714.1192003666666,
          "velocity": 0.7874015748031497
        },
        {
          "duration": 0.9375,
          "durationTicks": 120,
          "midi": 62,
          "name": "D4",
          "ticks": 273900,
          "time": 714.3535753666666,
          "velocity": 0.7874015748031497
        },
        {
          "duration": 0.9375,
          "durationTicks": 120,
          "midi": 62,
          "name": "D4",
          "ticks": 274020,
          "time": 715.2910753666666,
          "velocity": 0.7874015748031497
        },
        {
          "duration": 0.9375,
          "durationTicks": 120,
          "midi": 62,
          "name": "D4",
          "ticks": 274140,
          "time": 716.2285753666666,
          "velocity": 0.7874015748031497
        },
        {
          "duration": 0.234375,
          "durationTicks": 30,
          "midi": 64,
          "name": "E4",
          "ticks": 274260,
          "time": 717.1660753666666,
          "velocity": 0.7874015748031497
        },
        {
          "duration": 0.234375,
          "durationTicks": 30,
          "midi": 62,
          "name": "D4",
          "ticks": 274290,
          "time": 717.4004503666666,
          "velocity": 0.7874015748031497
        },
        {
          "duration": 0.46875,
          "durationTicks": 60,
          "midi": 61,
          "name": "C#4",
          "ticks": 274320,
          "time": 717.6348253666666,
          "velocity": 0.7874015748031497
        },
        {
          "duration": 0.46875,
          "durationTicks": 60,
          "midi": 59,
          "name": "B3",
          "ticks": 274380,
          "time": 718.1035753666666,
          "velocity": 0.7874015748031497
        },
        {
          "duration": 0.46875,
          "durationTicks": 60,
          "midi": 61,
          "name": "C#4",
          "ticks": 274440,
          "time": 718.5723253666666,
          "velocity": 0.7874015748031497
        },
        {
          "duration": 0.46875,
          "durationTicks": 60,
          "midi": 64,
          "name": "E4",
          "ticks": 274500,
          "time": 719.0410753666666,
          "velocity": 0.7874015748031497
        },
        {
          "duration": 0.9375,
          "durationTicks": 120,
          "midi": 69,
          "name": "A4",
          "ticks": 274560,
          "time": 719.5098253666666,
          "velocity": 0.7874015748031497
        },
        {
          "duration": 1.40625,
          "durationTicks": 180,
          "midi": 62,
          "name": "D4",
          "ticks": 274800,
          "time": 721.3848253666666,
          "velocity": 0.7874015748031497
        },
        {
          "duration": 0.234375,
          "durationTicks": 30,
          "midi": 64,
          "name": "E4",
          "ticks": 274980,
          "time": 722.7910753666666,
          "velocity": 0.7874015748031497
        },
        {
          "duration": 0.234375,
          "durationTicks": 30,
          "midi": 65,
          "name": "F4",
          "ticks": 275010,
          "time": 723.0254503666666,
          "velocity": 0.7874015748031497
        },
        {
          "duration": 0.234375,
          "durationTicks": 30,
          "midi": 64,
          "name": "E4",
          "ticks": 275040,
          "time": 723.2598253666666,
          "velocity": 0.7874015748031497
        },
        {
          "duration": 0.234375,
          "durationTicks": 30,
          "midi": 62,
          "name": "D4",
          "ticks": 275070,
          "time": 723.4942003666666,
          "velocity": 0.7874015748031497
        },
        {
          "duration": 0.46875,
          "durationTicks": 60,
          "midi": 64,
          "name": "E4",
          "ticks": 275100,
          "time": 723.7285753666666,
          "velocity": 0.7874015748031497
        },
        {
          "duration": 1.875,
          "durationTicks": 240,
          "midi": 62,
          "name": "D4",
          "ticks": 275160,
          "time": 724.1973253666666,
          "velocity": 0.7874015748031497
        },
        {
          "duration": 0.9375,
          "durationTicks": 120,
          "midi": 66,
          "name": "F#4",
          "ticks": 275760,
          "time": 728.8848253666666,
          "velocity": 0.7874015748031497
        },
        {
          "duration": 0.9375,
          "durationTicks": 120,
          "midi": 67,
          "name": "G4",
          "ticks": 275880,
          "time": 729.8223253666666,
          "velocity": 0.7874015748031497
        },
        {
          "duration": 0.9375,
          "durationTicks": 120,
          "midi": 69,
          "name": "A4",
          "ticks": 276000,
          "time": 730.7598253666666,
          "velocity": 0.7874015748031497
        },
        {
          "duration": 0.46875,
          "durationTicks": 60,
          "midi": 62,
          "name": "D4",
          "ticks": 276120,
          "time": 731.6973253666666,
          "velocity": 0.7874015748031497
        },
        {
          "duration": 0.9375,
          "durationTicks": 120,
          "midi": 74,
          "name": "D5",
          "ticks": 276180,
          "time": 732.1660753666666,
          "velocity": 0.7874015748031497
        },
        {
          "duration": 0.9375,
          "durationTicks": 120,
          "midi": 72,
          "name": "C5",
          "ticks": 276300,
          "time": 733.1035753666666,
          "velocity": 0.7874015748031497
        },
        {
          "duration": 0.9375,
          "durationTicks": 120,
          "midi": 70,
          "name": "A#4",
          "ticks": 276420,
          "time": 734.0410753666666,
          "velocity": 0.7874015748031497
        },
        {
          "duration": 0.46875,
          "durationTicks": 60,
          "midi": 69,
          "name": "A4",
          "ticks": 276540,
          "time": 734.9785753666666,
          "velocity": 0.7874015748031497
        },
        {
          "duration": 0.9375,
          "durationTicks": 120,
          "midi": 70,
          "name": "A#4",
          "ticks": 276600,
          "time": 735.4473253666666,
          "velocity": 0.7874015748031497
        },
        {
          "duration": 0.9375,
          "durationTicks": 120,
          "midi": 63,
          "name": "D#4",
          "ticks": 276720,
          "time": 736.3848253666666,
          "velocity": 0.7874015748031497
        },
        {
          "duration": 0.9375,
          "durationTicks": 120,
          "midi": 62,
          "name": "D4",
          "ticks": 276840,
          "time": 737.3223253666666,
          "velocity": 0.7874015748031497
        },
        {
          "duration": 0.9375,
          "durationTicks": 120,
          "midi": 67,
          "name": "G4",
          "ticks": 276960,
          "time": 738.2598253666666,
          "velocity": 0.7874015748031497
        },
        {
          "duration": 0.46875,
          "durationTicks": 60,
          "midi": 65,
          "name": "F4",
          "ticks": 277080,
          "time": 739.1973253666666,
          "velocity": 0.7874015748031497
        },
        {
          "duration": 0.46875,
          "durationTicks": 60,
          "midi": 67,
          "name": "G4",
          "ticks": 277140,
          "time": 739.6660753666666,
          "velocity": 0.7874015748031497
        },
        {
          "duration": 0.9375,
          "durationTicks": 120,
          "midi": 68,
          "name": "G#4",
          "ticks": 277200,
          "time": 740.1348253666666,
          "velocity": 0.7874015748031497
        },
        {
          "duration": 0.9375,
          "durationTicks": 120,
          "midi": 70,
          "name": "A#4",
          "ticks": 277380,
          "time": 741.5410753666666,
          "velocity": 0.7874015748031497
        },
        {
          "duration": 0.46875,
          "durationTicks": 60,
          "midi": 68,
          "name": "G#4",
          "ticks": 277500,
          "time": 742.4785753666666,
          "velocity": 0.7874015748031497
        },
        {
          "duration": 0.46875,
          "durationTicks": 60,
          "midi": 67,
          "name": "G4",
          "ticks": 277560,
          "time": 742.9473253666666,
          "velocity": 0.7874015748031497
        },
        {
          "duration": 0.46875,
          "durationTicks": 60,
          "midi": 70,
          "name": "A#4",
          "ticks": 277620,
          "time": 743.4160753666666,
          "velocity": 0.7874015748031497
        },
        {
          "duration": 0.46875,
          "durationTicks": 60,
          "midi": 75,
          "name": "D#5",
          "ticks": 277680,
          "time": 743.8848253666666,
          "velocity": 0.7874015748031497
        },
        {
          "duration": 0.46875,
          "durationTicks": 60,
          "midi": 79,
          "name": "G5",
          "ticks": 277740,
          "time": 744.3535753666666,
          "velocity": 0.7874015748031497
        },
        {
          "duration": 0.46875,
          "durationTicks": 60,
          "midi": 77,
          "name": "F5",
          "ticks": 277800,
          "time": 744.8223253666666,
          "velocity": 0.7874015748031497
        },
        {
          "duration": 0.46875,
          "durationTicks": 60,
          "midi": 75,
          "name": "D#5",
          "ticks": 277860,
          "time": 745.2910753666666,
          "velocity": 0.7874015748031497
        },
        {
          "duration": 0.46875,
          "durationTicks": 60,
          "midi": 74,
          "name": "D5",
          "ticks": 277920,
          "time": 745.7598253666666,
          "velocity": 0.7874015748031497
        },
        {
          "duration": 0.46875,
          "durationTicks": 60,
          "midi": 72,
          "name": "C5",
          "ticks": 277980,
          "time": 746.2285753666666,
          "velocity": 0.7874015748031497
        },
        {
          "duration": 4.21875,
          "durationTicks": 540,
          "midi": 70,
          "name": "A#4",
          "ticks": 278040,
          "time": 746.6973253666666,
          "velocity": 0.7874015748031497
        },
        {
          "duration": 0.234375,
          "durationTicks": 30,
          "midi": 68,
          "name": "G#4",
          "ticks": 278580,
          "time": 750.9160753666666,
          "velocity": 0.7874015748031497
        },
        {
          "duration": 0.234375,
          "durationTicks": 30,
          "midi": 67,
          "name": "G4",
          "ticks": 278610,
          "time": 751.1504503666666,
          "velocity": 0.7874015748031497
        },
        {
          "duration": 0.234375,
          "durationTicks": 30,
          "midi": 65,
          "name": "F4",
          "ticks": 278640,
          "time": 751.3848253666666,
          "velocity": 0.7874015748031497
        },
        {
          "duration": 0.234375,
          "durationTicks": 30,
          "midi": 67,
          "name": "G4",
          "ticks": 278670,
          "time": 751.6192003666666,
          "velocity": 0.7874015748031497
        },
        {
          "duration": 0.46875,
          "durationTicks": 60,
          "midi": 68,
          "name": "G#4",
          "ticks": 278700,
          "time": 751.8535753666666,
          "velocity": 0.7874015748031497
        },
        {
          "duration": 0.46875,
          "durationTicks": 60,
          "midi": 67,
          "name": "G4",
          "ticks": 278760,
          "time": 752.3223253666666,
          "velocity": 0.7874015748031497
        },
        {
          "duration": 0.234375,
          "durationTicks": 30,
          "midi": 65,
          "name": "F4",
          "ticks": 278820,
          "time": 752.7910753666666,
          "velocity": 0.7874015748031497
        },
        {
          "duration": 0.234375,
          "durationTicks": 30,
          "midi": 63,
          "name": "D#4",
          "ticks": 278850,
          "time": 753.0254503666666,
          "velocity": 0.7874015748031497
        },
        {
          "duration": 0.234375,
          "durationTicks": 30,
          "midi": 65,
          "name": "F4",
          "ticks": 278880,
          "time": 753.2598253666666,
          "velocity": 0.7874015748031497
        },
        {
          "duration": 0.234375,
          "durationTicks": 30,
          "midi": 63,
          "name": "D#4",
          "ticks": 278910,
          "time": 753.4942003666666,
          "velocity": 0.7874015748031497
        },
        {
          "duration": 0.46875,
          "durationTicks": 60,
          "midi": 62,
          "name": "D4",
          "ticks": 278940,
          "time": 753.7285753666666,
          "velocity": 0.7874015748031497
        },
        {
          "duration": 1.875,
          "durationTicks": 240,
          "midi": 63,
          "name": "D#4",
          "ticks": 279000,
          "time": 754.1973253666666,
          "velocity": 0.7874015748031497
        },
        {
          "duration": 0.46875,
          "durationTicks": 60,
          "midi": 68,
          "name": "G#4",
          "ticks": 279540,
          "time": 758.4160753666666,
          "velocity": 0.7874015748031497
        },
        {
          "duration": 0.46875,
          "durationTicks": 60,
          "midi": 68,
          "name": "G#4",
          "ticks": 279600,
          "time": 758.8848253666666,
          "velocity": 0.7874015748031497
        },
        {
          "duration": 0.46875,
          "durationTicks": 60,
          "midi": 67,
          "name": "G4",
          "ticks": 279660,
          "time": 759.3535753666666,
          "velocity": 0.7874015748031497
        },
        {
          "duration": 0.46875,
          "durationTicks": 60,
          "midi": 66,
          "name": "F#4",
          "ticks": 279720,
          "time": 759.8223253666666,
          "velocity": 0.7874015748031497
        },
        {
          "duration": 0.46875,
          "durationTicks": 60,
          "midi": 65,
          "name": "F4",
          "ticks": 279780,
          "time": 760.2910753666666,
          "velocity": 0.7874015748031497
        },
        {
          "duration": 0.46875,
          "durationTicks": 60,
          "midi": 74,
          "name": "D5",
          "ticks": 279840,
          "time": 760.7598253666666,
          "velocity": 0.7874015748031497
        },
        {
          "duration": 0.46875,
          "durationTicks": 60,
          "midi": 65,
          "name": "F4",
          "ticks": 279900,
          "time": 761.2285753666666,
          "velocity": 0.7874015748031497
        },
        {
          "duration": 2.34375,
          "durationTicks": 300,
          "midi": 63,
          "name": "D#4",
          "ticks": 279960,
          "time": 761.6973253666666,
          "velocity": 0.7874015748031497
        },
        {
          "duration": 0.46875,
          "durationTicks": 60,
          "midi": 62,
          "name": "D4",
          "ticks": 280260,
          "time": 764.0410753666666,
          "velocity": 0.7874015748031497
        },
        {
          "duration": 0.46875,
          "durationTicks": 60,
          "midi": 60,
          "name": "C4",
          "ticks": 280320,
          "time": 764.5098253666666,
          "velocity": 0.7874015748031497
        },
        {
          "duration": 0.46875,
          "durationTicks": 60,
          "midi": 58,
          "name": "A#3",
          "ticks": 280380,
          "time": 764.9785753666666,
          "velocity": 0.7874015748031497
        },
        {
          "duration": 0.46875,
          "durationTicks": 60,
          "midi": 57,
          "name": "A3",
          "ticks": 280440,
          "time": 765.4473253666666,
          "velocity": 0.7874015748031497
        },
        {
          "duration": 0.46875,
          "durationTicks": 60,
          "midi": 58,
          "name": "A#3",
          "ticks": 280500,
          "time": 765.9160753666666,
          "velocity": 0.7874015748031497
        },
        {
          "duration": 0.46875,
          "durationTicks": 60,
          "midi": 60,
          "name": "C4",
          "ticks": 280560,
          "time": 766.3848253666666,
          "velocity": 0.7874015748031497
        },
        {
          "duration": 0.46875,
          "durationTicks": 60,
          "midi": 62,
          "name": "D4",
          "ticks": 280620,
          "time": 766.8535753666666,
          "velocity": 0.7874015748031497
        },
        {
          "duration": 0.46875,
          "durationTicks": 60,
          "midi": 63,
          "name": "D#4",
          "ticks": 280680,
          "time": 767.3223253666666,
          "velocity": 0.7874015748031497
        },
        {
          "duration": 0.46875,
          "durationTicks": 60,
          "midi": 62,
          "name": "D4",
          "ticks": 280740,
          "time": 767.7910753666666,
          "velocity": 0.7874015748031497
        },
        {
          "duration": 1.40625,
          "durationTicks": 180,
          "midi": 63,
          "name": "D#4",
          "ticks": 280800,
          "time": 768.2598253666666,
          "velocity": 0.7874015748031497
        },
        {
          "duration": 0.46875,
          "durationTicks": 60,
          "midi": 60,
          "name": "C4",
          "ticks": 280980,
          "time": 769.6660753666666,
          "velocity": 0.7874015748031497
        },
        {
          "duration": 0.9375,
          "durationTicks": 120,
          "midi": 62,
          "name": "D4",
          "ticks": 281040,
          "time": 770.1348253666666,
          "velocity": 0.7874015748031497
        },
        {
          "duration": 0.9375,
          "durationTicks": 120,
          "midi": 69,
          "name": "A4",
          "ticks": 281280,
          "time": 772.0098253666666,
          "velocity": 0.7874015748031497
        },
        {
          "duration": 1.40625,
          "durationTicks": 180,
          "midi": 74,
          "name": "D5",
          "ticks": 281400,
          "time": 772.9473253666666,
          "velocity": 0.7874015748031497
        },
        {
          "duration": 0.46875,
          "durationTicks": 60,
          "midi": 72,
          "name": "C5",
          "ticks": 281580,
          "time": 774.3535753666666,
          "velocity": 0.7874015748031497
        },
        {
          "duration": 0.46875,
          "durationTicks": 60,
          "midi": 70,
          "name": "A#4",
          "ticks": 281640,
          "time": 774.8223253666666,
          "velocity": 0.7874015748031497
        },
        {
          "duration": 0.46875,
          "durationTicks": 60,
          "midi": 69,
          "name": "A4",
          "ticks": 281700,
          "time": 775.2910753666666,
          "velocity": 0.7874015748031497
        },
        {
          "duration": 0.46875,
          "durationTicks": 60,
          "midi": 67,
          "name": "G4",
          "ticks": 281760,
          "time": 775.7598253666666,
          "velocity": 0.7874015748031497
        },
        {
          "duration": 0.46875,
          "durationTicks": 60,
          "midi": 65,
          "name": "F4",
          "ticks": 281820,
          "time": 776.2285753666666,
          "velocity": 0.7874015748031497
        },
        {
          "duration": 0.46875,
          "durationTicks": 60,
          "midi": 63,
          "name": "D#4",
          "ticks": 281880,
          "time": 776.6973253666666,
          "velocity": 0.7874015748031497
        },
        {
          "duration": 0.46875,
          "durationTicks": 60,
          "midi": 62,
          "name": "D4",
          "ticks": 281940,
          "time": 777.1660753666666,
          "velocity": 0.7874015748031497
        },
        {
          "duration": 0.46875,
          "durationTicks": 60,
          "midi": 60,
          "name": "C4",
          "ticks": 282000,
          "time": 777.6348253666666,
          "velocity": 0.7874015748031497
        },
        {
          "duration": 0.46875,
          "durationTicks": 60,
          "midi": 63,
          "name": "D#4",
          "ticks": 282060,
          "time": 778.1035753666666,
          "velocity": 0.7874015748031497
        },
        {
          "duration": 0.46875,
          "durationTicks": 60,
          "midi": 62,
          "name": "D4",
          "ticks": 282120,
          "time": 778.5723253666666,
          "velocity": 0.7874015748031497
        },
        {
          "duration": 0.46875,
          "durationTicks": 60,
          "midi": 64,
          "name": "E4",
          "ticks": 282180,
          "time": 779.0410753666666,
          "velocity": 0.7874015748031497
        },
        {
          "duration": 0.234375,
          "durationTicks": 30,
          "midi": 66,
          "name": "F#4",
          "ticks": 282240,
          "time": 779.5098253666666,
          "velocity": 0.7874015748031497
        },
        {
          "duration": 0.234375,
          "durationTicks": 30,
          "midi": 67,
          "name": "G4",
          "ticks": 282270,
          "time": 779.7442003666666,
          "velocity": 0.7874015748031497
        },
        {
          "duration": 0.9375,
          "durationTicks": 120,
          "midi": 57,
          "name": "A3",
          "ticks": 282300,
          "time": 779.9785753666666,
          "velocity": 0.7874015748031497
        },
        {
          "duration": 0.46875,
          "durationTicks": 60,
          "midi": 63,
          "name": "D#4",
          "ticks": 282420,
          "time": 780.9160753666666,
          "velocity": 0.7874015748031497
        },
        {
          "duration": 0.46875,
          "durationTicks": 60,
          "midi": 62,
          "name": "D4",
          "ticks": 282480,
          "time": 781.3848253666666,
          "velocity": 0.7874015748031497
        },
        {
          "duration": 0.46875,
          "durationTicks": 60,
          "midi": 60,
          "name": "C4",
          "ticks": 282540,
          "time": 781.8535753666666,
          "velocity": 0.7874015748031497
        },
        {
          "duration": 0.46875,
          "durationTicks": 60,
          "midi": 58,
          "name": "A#3",
          "ticks": 282600,
          "time": 782.3223253666666,
          "velocity": 0.7874015748031497
        },
        {
          "duration": 0.46875,
          "durationTicks": 60,
          "midi": 57,
          "name": "A3",
          "ticks": 282660,
          "time": 782.7910753666666,
          "velocity": 0.7874015748031497
        },
        {
          "duration": 0.46875,
          "durationTicks": 60,
          "midi": 55,
          "name": "G3",
          "ticks": 282720,
          "time": 783.2598253666666,
          "velocity": 0.7874015748031497
        },
        {
          "duration": 0.46875,
          "durationTicks": 60,
          "midi": 54,
          "name": "F#3",
          "ticks": 282780,
          "time": 783.7285753666666,
          "velocity": 0.7874015748031497
        },
        {
          "duration": 1.875,
          "durationTicks": 240,
          "midi": 55,
          "name": "G3",
          "ticks": 282840,
          "time": 784.1973253666666,
          "velocity": 0.7874015748031497
        },
        {
          "duration": 0.34090900000001056,
          "durationTicks": 120,
          "midi": 74,
          "name": "D5",
          "ticks": 284040,
          "time": 791.7825523666666,
          "velocity": 0.7874015748031497
        },
        {
          "duration": 1.022726999999918,
          "durationTicks": 360,
          "midi": 74,
          "name": "D5",
          "ticks": 284160,
          "time": 792.1234613666666,
          "velocity": 0.7874015748031497
        },
        {
          "duration": 1.0227270000000317,
          "durationTicks": 360,
          "midi": 74,
          "name": "D5",
          "ticks": 284520,
          "time": 793.1461883666665,
          "velocity": 0.7874015748031497
        },
        {
          "duration": 0.34090900000001056,
          "durationTicks": 120,
          "midi": 74,
          "name": "D5",
          "ticks": 284880,
          "time": 794.1689153666665,
          "velocity": 0.7874015748031497
        },
        {
          "duration": 0.34090900000001056,
          "durationTicks": 120,
          "midi": 73,
          "name": "C#5",
          "ticks": 285000,
          "time": 794.5098243666665,
          "velocity": 0.7874015748031497
        },
        {
          "duration": 0.6818180000000211,
          "durationTicks": 240,
          "midi": 74,
          "name": "D5",
          "ticks": 285120,
          "time": 794.8507333666665,
          "velocity": 0.7874015748031497
        },
        {
          "duration": 0.17045450000000528,
          "durationTicks": 60,
          "midi": 79,
          "name": "G5",
          "ticks": 285480,
          "time": 795.8734603666666,
          "velocity": 0.7874015748031497
        },
        {
          "duration": 0.17045450000000528,
          "durationTicks": 60,
          "midi": 78,
          "name": "F#5",
          "ticks": 285540,
          "time": 796.0439148666666,
          "velocity": 0.7874015748031497
        },
        {
          "duration": 0.1704544999998916,
          "durationTicks": 60,
          "midi": 79,
          "name": "G5",
          "ticks": 285600,
          "time": 796.2143693666666,
          "velocity": 0.7874015748031497
        },
        {
          "duration": 0.17045450000000528,
          "durationTicks": 60,
          "midi": 74,
          "name": "D5",
          "ticks": 285660,
          "time": 796.3848238666665,
          "velocity": 0.7874015748031497
        },
        {
          "duration": 0.17045450000000528,
          "durationTicks": 60,
          "midi": 71,
          "name": "B4",
          "ticks": 285720,
          "time": 796.5552783666665,
          "velocity": 0.7874015748031497
        },
        {
          "duration": 0.17045450000000528,
          "durationTicks": 60,
          "midi": 74,
          "name": "D5",
          "ticks": 285780,
          "time": 796.7257328666665,
          "velocity": 0.7874015748031497
        },
        {
          "duration": 0.17045450000000528,
          "durationTicks": 60,
          "midi": 76,
          "name": "E5",
          "ticks": 285840,
          "time": 796.8961873666665,
          "velocity": 0.7874015748031497
        },
        {
          "duration": 0.17045450000000528,
          "durationTicks": 60,
          "midi": 74,
          "name": "D5",
          "ticks": 285900,
          "time": 797.0666418666665,
          "velocity": 0.7874015748031497
        },
        {
          "duration": 0.17045450000000528,
          "durationTicks": 60,
          "midi": 76,
          "name": "E5",
          "ticks": 285960,
          "time": 797.2370963666665,
          "velocity": 0.7874015748031497
        },
        {
          "duration": 0.17045450000000528,
          "durationTicks": 60,
          "midi": 72,
          "name": "C5",
          "ticks": 286020,
          "time": 797.4075508666665,
          "velocity": 0.7874015748031497
        },
        {
          "duration": 0.17045450000000528,
          "durationTicks": 60,
          "midi": 69,
          "name": "A4",
          "ticks": 286080,
          "time": 797.5780053666665,
          "velocity": 0.7874015748031497
        },
        {
          "duration": 0.17045450000000528,
          "durationTicks": 60,
          "midi": 72,
          "name": "C5",
          "ticks": 286140,
          "time": 797.7484598666665,
          "velocity": 0.7874015748031497
        },
        {
          "duration": 0.17045450000000528,
          "durationTicks": 60,
          "midi": 74,
          "name": "D5",
          "ticks": 286200,
          "time": 797.9189143666665,
          "velocity": 0.7874015748031497
        },
        {
          "duration": 0.17045450000000528,
          "durationTicks": 60,
          "midi": 72,
          "name": "C5",
          "ticks": 286260,
          "time": 798.0893688666665,
          "velocity": 0.7874015748031497
        },
        {
          "duration": 0.17045450000000528,
          "durationTicks": 60,
          "midi": 74,
          "name": "D5",
          "ticks": 286320,
          "time": 798.2598233666665,
          "velocity": 0.7874015748031497
        },
        {
          "duration": 0.17045450000000528,
          "durationTicks": 60,
          "midi": 76,
          "name": "E5",
          "ticks": 286380,
          "time": 798.4302778666665,
          "velocity": 0.7874015748031497
        },
        {
          "duration": 0.17045450000000528,
          "durationTicks": 60,
          "midi": 74,
          "name": "D5",
          "ticks": 286440,
          "time": 798.6007323666665,
          "velocity": 0.7874015748031497
        },
        {
          "duration": 0.17045450000000528,
          "durationTicks": 60,
          "midi": 72,
          "name": "C5",
          "ticks": 286500,
          "time": 798.7711868666665,
          "velocity": 0.7874015748031497
        },
        {
          "duration": 0.17045450000000528,
          "durationTicks": 60,
          "midi": 71,
          "name": "B4",
          "ticks": 286560,
          "time": 798.9416413666665,
          "velocity": 0.7874015748031497
        },
        {
          "duration": 0.17045450000000528,
          "durationTicks": 60,
          "midi": 69,
          "name": "A4",
          "ticks": 286620,
          "time": 799.1120958666666,
          "velocity": 0.7874015748031497
        },
        {
          "duration": 0.17045450000000528,
          "durationTicks": 60,
          "midi": 71,
          "name": "B4",
          "ticks": 286680,
          "time": 799.2825503666666,
          "velocity": 0.7874015748031497
        },
        {
          "duration": 0.17045450000000528,
          "durationTicks": 60,
          "midi": 72,
          "name": "C5",
          "ticks": 286740,
          "time": 799.4530048666666,
          "velocity": 0.7874015748031497
        },
        {
          "duration": 0.17045450000000528,
          "durationTicks": 60,
          "midi": 71,
          "name": "B4",
          "ticks": 286800,
          "time": 799.6234593666666,
          "velocity": 0.7874015748031497
        },
        {
          "duration": 0.1704544999998916,
          "durationTicks": 60,
          "midi": 69,
          "name": "A4",
          "ticks": 286860,
          "time": 799.7939138666666,
          "velocity": 0.7874015748031497
        },
        {
          "duration": 0.34090900000001056,
          "durationTicks": 120,
          "midi": 67,
          "name": "G4",
          "ticks": 286920,
          "time": 799.9643683666665,
          "velocity": 0.7874015748031497
        },
        {
          "duration": 1.0227270000000317,
          "durationTicks": 360,
          "midi": 79,
          "name": "G5",
          "ticks": 287040,
          "time": 800.3052773666665,
          "velocity": 0.7874015748031497
        },
        {
          "duration": 1.0227270000000317,
          "durationTicks": 360,
          "midi": 78,
          "name": "F#5",
          "ticks": 287400,
          "time": 801.3280043666665,
          "velocity": 0.7874015748031497
        },
        {
          "duration": 0.34090900000001056,
          "durationTicks": 120,
          "midi": 76,
          "name": "E5",
          "ticks": 287760,
          "time": 802.3507313666665,
          "velocity": 0.7874015748031497
        },
        {
          "duration": 0.34090900000001056,
          "durationTicks": 120,
          "midi": 74,
          "name": "D5",
          "ticks": 287880,
          "time": 802.6916403666665,
          "velocity": 0.7874015748031497
        },
        {
          "duration": 0.17045450000000528,
          "durationTicks": 60,
          "midi": 73,
          "name": "C#5",
          "ticks": 288000,
          "time": 803.0325493666666,
          "velocity": 0.7874015748031497
        },
        {
          "duration": 0.17045450000000528,
          "durationTicks": 60,
          "midi": 74,
          "name": "D5",
          "ticks": 288060,
          "time": 803.2030038666666,
          "velocity": 0.7874015748031497
        },
        {
          "duration": 1.022726999999918,
          "durationTicks": 360,
          "midi": 76,
          "name": "E5",
          "ticks": 288120,
          "time": 803.3734583666666,
          "velocity": 0.7874015748031497
        },
        {
          "duration": 0.34090900000001056,
          "durationTicks": 120,
          "midi": 74,
          "name": "D5",
          "ticks": 288480,
          "time": 804.3961853666665,
          "velocity": 0.7874015748031497
        },
        {
          "duration": 0.6818180000000211,
          "durationTicks": 240,
          "midi": 72,
          "name": "C5",
          "ticks": 288600,
          "time": 804.7370943666665,
          "velocity": 0.7874015748031497
        },
        {
          "duration": 0.34090900000001056,
          "durationTicks": 120,
          "midi": 71,
          "name": "B4",
          "ticks": 288840,
          "time": 805.4189123666665,
          "velocity": 0.7874015748031497
        },
        {
          "duration": 0.5113635000000158,
          "durationTicks": 180,
          "midi": 79,
          "name": "G5",
          "ticks": 288960,
          "time": 805.7598213666665,
          "velocity": 0.7874015748031497
        },
        {
          "duration": 0.17045450000000528,
          "durationTicks": 60,
          "midi": 76,
          "name": "E5",
          "ticks": 289140,
          "time": 806.2711848666665,
          "velocity": 0.7874015748031497
        },
        {
          "duration": 0.17045450000000528,
          "durationTicks": 60,
          "midi": 78,
          "name": "F#5",
          "ticks": 289200,
          "time": 806.4416393666665,
          "velocity": 0.7874015748031497
        },
        {
          "duration": 0.17045450000000528,
          "durationTicks": 60,
          "midi": 74,
          "name": "D5",
          "ticks": 289260,
          "time": 806.6120938666666,
          "velocity": 0.7874015748031497
        },
        {
          "duration": 0.17045450000000528,
          "durationTicks": 60,
          "midi": 76,
          "name": "E5",
          "ticks": 289320,
          "time": 806.7825483666666,
          "velocity": 0.7874015748031497
        },
        {
          "duration": 0.17045450000000528,
          "durationTicks": 60,
          "midi": 73,
          "name": "C#5",
          "ticks": 289380,
          "time": 806.9530028666666,
          "velocity": 0.7874015748031497
        },
        {
          "duration": 1.022726999999918,
          "durationTicks": 360,
          "midi": 74,
          "name": "D5",
          "ticks": 289440,
          "time": 807.1234573666666,
          "velocity": 0.7874015748031497
        },
        {
          "duration": 0.17045450000000528,
          "durationTicks": 60,
          "midi": 78,
          "name": "F#5",
          "ticks": 289800,
          "time": 808.1461843666665,
          "velocity": 0.7874015748031497
        },
        {
          "duration": 0.17045450000000528,
          "durationTicks": 60,
          "midi": 76,
          "name": "E5",
          "ticks": 289860,
          "time": 808.3166388666665,
          "velocity": 0.7874015748031497
        },
        {
          "duration": 0.17045450000000528,
          "durationTicks": 60,
          "midi": 78,
          "name": "F#5",
          "ticks": 289920,
          "time": 808.4870933666665,
          "velocity": 0.7874015748031497
        },
        {
          "duration": 0.17045450000000528,
          "durationTicks": 60,
          "midi": 74,
          "name": "D5",
          "ticks": 289980,
          "time": 808.6575478666665,
          "velocity": 0.7874015748031497
        },
        {
          "duration": 0.17045450000000528,
          "durationTicks": 60,
          "midi": 69,
          "name": "A4",
          "ticks": 290040,
          "time": 808.8280023666665,
          "velocity": 0.7874015748031497
        },
        {
          "duration": 0.17045450000000528,
          "durationTicks": 60,
          "midi": 74,
          "name": "D5",
          "ticks": 290100,
          "time": 808.9984568666665,
          "velocity": 0.7874015748031497
        },
        {
          "duration": 0.17045450000000528,
          "durationTicks": 60,
          "midi": 79,
          "name": "G5",
          "ticks": 290160,
          "time": 809.1689113666665,
          "velocity": 0.7874015748031497
        },
        {
          "duration": 0.17045450000000528,
          "durationTicks": 60,
          "midi": 78,
          "name": "F#5",
          "ticks": 290220,
          "time": 809.3393658666665,
          "velocity": 0.7874015748031497
        },
        {
          "duration": 0.17045450000000528,
          "durationTicks": 60,
          "midi": 79,
          "name": "G5",
          "ticks": 290280,
          "time": 809.5098203666665,
          "velocity": 0.7874015748031497
        },
        {
          "duration": 0.17045450000000528,
          "durationTicks": 60,
          "midi": 74,
          "name": "D5",
          "ticks": 290340,
          "time": 809.6802748666665,
          "velocity": 0.7874015748031497
        },
        {
          "duration": 0.17045450000000528,
          "durationTicks": 60,
          "midi": 71,
          "name": "B4",
          "ticks": 290400,
          "time": 809.8507293666665,
          "velocity": 0.7874015748031497
        },
        {
          "duration": 0.17045450000000528,
          "durationTicks": 60,
          "midi": 74,
          "name": "D5",
          "ticks": 290460,
          "time": 810.0211838666665,
          "velocity": 0.7874015748031497
        },
        {
          "duration": 0.17045450000000528,
          "durationTicks": 60,
          "midi": 76,
          "name": "E5",
          "ticks": 290520,
          "time": 810.1916383666666,
          "velocity": 0.7874015748031497
        },
        {
          "duration": 0.17045450000000528,
          "durationTicks": 60,
          "midi": 75,
          "name": "D#5",
          "ticks": 290580,
          "time": 810.3620928666666,
          "velocity": 0.7874015748031497
        },
        {
          "duration": 0.17045450000000528,
          "durationTicks": 60,
          "midi": 76,
          "name": "E5",
          "ticks": 290640,
          "time": 810.5325473666666,
          "velocity": 0.7874015748031497
        },
        {
          "duration": 0.1704544999998916,
          "durationTicks": 60,
          "midi": 79,
          "name": "G5",
          "ticks": 290700,
          "time": 810.7030018666666,
          "velocity": 0.7874015748031497
        },
        {
          "duration": 0.17045450000000528,
          "durationTicks": 60,
          "midi": 78,
          "name": "F#5",
          "ticks": 290760,
          "time": 810.8734563666665,
          "velocity": 0.7874015748031497
        },
        {
          "duration": 0.17045450000000528,
          "durationTicks": 60,
          "midi": 76,
          "name": "E5",
          "ticks": 290820,
          "time": 811.0439108666665,
          "velocity": 0.7874015748031497
        },
        {
          "duration": 0.17045450000000528,
          "durationTicks": 60,
          "midi": 75,
          "name": "D#5",
          "ticks": 290880,
          "time": 811.2143653666665,
          "velocity": 0.7874015748031497
        },
        {
          "duration": 0.17045450000000528,
          "durationTicks": 60,
          "midi": 76,
          "name": "E5",
          "ticks": 290940,
          "time": 811.3848198666665,
          "velocity": 0.7874015748031497
        },
        {
          "duration": 0.17045450000000528,
          "durationTicks": 60,
          "midi": 78,
          "name": "F#5",
          "ticks": 291000,
          "time": 811.5552743666665,
          "velocity": 0.7874015748031497
        },
        {
          "duration": 0.17045450000000528,
          "durationTicks": 60,
          "midi": 75,
          "name": "D#5",
          "ticks": 291060,
          "time": 811.7257288666665,
          "velocity": 0.7874015748031497
        },
        {
          "duration": 0.17045450000000528,
          "durationTicks": 60,
          "midi": 71,
          "name": "B4",
          "ticks": 291120,
          "time": 811.8961833666665,
          "velocity": 0.7874015748031497
        },
        {
          "duration": 0.17045450000000528,
          "durationTicks": 60,
          "midi": 75,
          "name": "D#5",
          "ticks": 291180,
          "time": 812.0666378666665,
          "velocity": 0.7874015748031497
        },
        {
          "duration": 0.34090900000001056,
          "durationTicks": 120,
          "midi": 76,
          "name": "E5",
          "ticks": 291240,
          "time": 812.2370923666665,
          "velocity": 0.7874015748031497
        },
        {
          "duration": 1.0227270000000317,
          "durationTicks": 360,
          "midi": 76,
          "name": "E5",
          "ticks": 291360,
          "time": 812.5780013666665,
          "velocity": 0.7874015748031497
        },
        {
          "duration": 1.022726999999918,
          "durationTicks": 360,
          "midi": 76,
          "name": "E5",
          "ticks": 291720,
          "time": 813.6007283666665,
          "velocity": 0.7874015748031497
        },
        {
          "duration": 0.34090900000001056,
          "durationTicks": 120,
          "midi": 76,
          "name": "E5",
          "ticks": 292080,
          "time": 814.6234553666665,
          "velocity": 0.7874015748031497
        },
        {
          "duration": 0.34090900000001056,
          "durationTicks": 120,
          "midi": 75,
          "name": "D#5",
          "ticks": 292200,
          "time": 814.9643643666665,
          "velocity": 0.7874015748031497
        },
        {
          "duration": 0.6818180000000211,
          "durationTicks": 240,
          "midi": 76,
          "name": "E5",
          "ticks": 292320,
          "time": 815.3052733666665,
          "velocity": 0.7874015748031497
        },
        {
          "duration": 0.17045450000000528,
          "durationTicks": 60,
          "midi": 76,
          "name": "E5",
          "ticks": 292800,
          "time": 816.6689093666665,
          "velocity": 0.7874015748031497
        },
        {
          "duration": 0.17045450000000528,
          "durationTicks": 60,
          "midi": 72,
          "name": "C5",
          "ticks": 292860,
          "time": 816.8393638666665,
          "velocity": 0.7874015748031497
        },
        {
          "duration": 0.17045450000000528,
          "durationTicks": 60,
          "midi": 69,
          "name": "A4",
          "ticks": 292920,
          "time": 817.0098183666665,
          "velocity": 0.7874015748031497
        },
        {
          "duration": 0.17045450000000528,
          "durationTicks": 60,
          "midi": 72,
          "name": "C5",
          "ticks": 292980,
          "time": 817.1802728666665,
          "velocity": 0.7874015748031497
        },
        {
          "duration": 1.3636359999999286,
          "durationTicks": 480,
          "midi": 74,
          "name": "D5",
          "ticks": 293040,
          "time": 817.3507273666665,
          "velocity": 0.7874015748031497
        },
        {
          "duration": 0.17045450000000528,
          "durationTicks": 60,
          "midi": 72,
          "name": "C5",
          "ticks": 293520,
          "time": 818.7143633666665,
          "velocity": 0.7874015748031497
        },
        {
          "duration": 0.17045450000000528,
          "durationTicks": 60,
          "midi": 71,
          "name": "B4",
          "ticks": 293580,
          "time": 818.8848178666665,
          "velocity": 0.7874015748031497
        },
        {
          "duration": 0.6818180000000211,
          "durationTicks": 240,
          "midi": 72,
          "name": "C5",
          "ticks": 293640,
          "time": 819.0552723666665,
          "velocity": 0.7874015748031497
        },
        {
          "duration": 0.17045450000000528,
          "durationTicks": 60,
          "midi": 74,
          "name": "D5",
          "ticks": 293880,
          "time": 819.7370903666665,
          "velocity": 0.7874015748031497
        },
        {
          "duration": 0.17045450000000528,
          "durationTicks": 60,
          "midi": 72,
          "name": "C5",
          "ticks": 293940,
          "time": 819.9075448666665,
          "velocity": 0.7874015748031497
        },
        {
          "duration": 0.17045450000000528,
          "durationTicks": 60,
          "midi": 71,
          "name": "B4",
          "ticks": 294000,
          "time": 820.0779993666665,
          "velocity": 0.7874015748031497
        },
        {
          "duration": 0.17045450000000528,
          "durationTicks": 60,
          "midi": 69,
          "name": "A4",
          "ticks": 294060,
          "time": 820.2484538666665,
          "velocity": 0.7874015748031497
        },
        {
          "duration": 0.17045450000000528,
          "durationTicks": 60,
          "midi": 74,
          "name": "D5",
          "ticks": 294120,
          "time": 820.4189083666665,
          "velocity": 0.7874015748031497
        },
        {
          "duration": 0.17045450000000528,
          "durationTicks": 60,
          "midi": 72,
          "name": "C5",
          "ticks": 294180,
          "time": 820.5893628666665,
          "velocity": 0.7874015748031497
        },
        {
          "duration": 0.17045450000000528,
          "durationTicks": 60,
          "midi": 74,
          "name": "D5",
          "ticks": 294240,
          "time": 820.7598173666665,
          "velocity": 0.7874015748031497
        },
        {
          "duration": 0.17045450000000528,
          "durationTicks": 60,
          "midi": 71,
          "name": "B4",
          "ticks": 294300,
          "time": 820.9302718666665,
          "velocity": 0.7874015748031497
        },
        {
          "duration": 0.17045450000000528,
          "durationTicks": 60,
          "midi": 67,
          "name": "G4",
          "ticks": 294360,
          "time": 821.1007263666665,
          "velocity": 0.7874015748031497
        },
        {
          "duration": 0.17045450000000528,
          "durationTicks": 60,
          "midi": 71,
          "name": "B4",
          "ticks": 294420,
          "time": 821.2711808666666,
          "velocity": 0.7874015748031497
        },
        {
          "duration": 0.17045450000000528,
          "durationTicks": 60,
          "midi": 76,
          "name": "E5",
          "ticks": 294480,
          "time": 821.4416353666666,
          "velocity": 0.7874015748031497
        },
        {
          "duration": 0.17045450000000528,
          "durationTicks": 60,
          "midi": 74,
          "name": "D5",
          "ticks": 294540,
          "time": 821.6120898666666,
          "velocity": 0.7874015748031497
        },
        {
          "duration": 0.1704544999998916,
          "durationTicks": 60,
          "midi": 76,
          "name": "E5",
          "ticks": 294600,
          "time": 821.7825443666666,
          "velocity": 0.7874015748031497
        },
        {
          "duration": 0.17045450000000528,
          "durationTicks": 60,
          "midi": 72,
          "name": "C5",
          "ticks": 294660,
          "time": 821.9529988666665,
          "velocity": 0.7874015748031497
        },
        {
          "duration": 0.17045450000000528,
          "durationTicks": 60,
          "midi": 69,
          "name": "A4",
          "ticks": 294720,
          "time": 822.1234533666665,
          "velocity": 0.7874015748031497
        },
        {
          "duration": 0.17045450000000528,
          "durationTicks": 60,
          "midi": 72,
          "name": "C5",
          "ticks": 294780,
          "time": 822.2939078666665,
          "velocity": 0.7874015748031497
        },
        {
          "duration": 0.17045450000000528,
          "durationTicks": 60,
          "midi": 78,
          "name": "F#5",
          "ticks": 294840,
          "time": 822.4643623666665,
          "velocity": 0.7874015748031497
        },
        {
          "duration": 0.17045450000000528,
          "durationTicks": 60,
          "midi": 76,
          "name": "E5",
          "ticks": 294900,
          "time": 822.6348168666665,
          "velocity": 0.7874015748031497
        },
        {
          "duration": 0.17045450000000528,
          "durationTicks": 60,
          "midi": 78,
          "name": "F#5",
          "ticks": 294960,
          "time": 822.8052713666665,
          "velocity": 0.7874015748031497
        },
        {
          "duration": 0.17045450000000528,
          "durationTicks": 60,
          "midi": 81,
          "name": "A5",
          "ticks": 295020,
          "time": 822.9757258666665,
          "velocity": 0.7874015748031497
        },
        {
          "duration": 0.17045450000000528,
          "durationTicks": 60,
          "midi": 74,
          "name": "D5",
          "ticks": 295080,
          "time": 823.1461803666665,
          "velocity": 0.7874015748031497
        },
        {
          "duration": 0.17045450000000528,
          "durationTicks": 60,
          "midi": 78,
          "name": "F#5",
          "ticks": 295140,
          "time": 823.3166348666665,
          "velocity": 0.7874015748031497
        },
        {
          "duration": 0.17045450000000528,
          "durationTicks": 60,
          "midi": 79,
          "name": "G5",
          "ticks": 295200,
          "time": 823.4870893666665,
          "velocity": 0.7874015748031497
        },
        {
          "duration": 0.17045450000000528,
          "durationTicks": 60,
          "midi": 78,
          "name": "F#5",
          "ticks": 295260,
          "time": 823.6575438666665,
          "velocity": 0.7874015748031497
        },
        {
          "duration": 0.17045450000000528,
          "durationTicks": 60,
          "midi": 79,
          "name": "G5",
          "ticks": 295320,
          "time": 823.8279983666665,
          "velocity": 0.7874015748031497
        },
        {
          "duration": 0.17045450000000528,
          "durationTicks": 60,
          "midi": 74,
          "name": "D5",
          "ticks": 295380,
          "time": 823.9984528666665,
          "velocity": 0.7874015748031497
        },
        {
          "duration": 0.17045450000000528,
          "durationTicks": 60,
          "midi": 71,
          "name": "B4",
          "ticks": 295440,
          "time": 824.1689073666665,
          "velocity": 0.7874015748031497
        },
        {
          "duration": 0.17045450000000528,
          "durationTicks": 60,
          "midi": 67,
          "name": "G4",
          "ticks": 295500,
          "time": 824.3393618666665,
          "velocity": 0.7874015748031497
        },
        {
          "duration": 0.15625,
          "durationTicks": 60,
          "midi": 83,
          "name": "B5",
          "ticks": 295980,
          "time": 825.6897403333332,
          "velocity": 0.7874015748031497
        },
        {
          "duration": 0.15625,
          "durationTicks": 60,
          "midi": 79,
          "name": "G5",
          "ticks": 296040,
          "time": 825.8459903333332,
          "velocity": 0.7874015748031497
        },
        {
          "duration": 0.15625,
          "durationTicks": 60,
          "midi": 79,
          "name": "G5",
          "ticks": 296100,
          "time": 826.0022403333332,
          "velocity": 0.7874015748031497
        },
        {
          "duration": 0.15625,
          "durationTicks": 60,
          "midi": 74,
          "name": "D5",
          "ticks": 296220,
          "time": 826.3147403333332,
          "velocity": 0.7874015748031497
        },
        {
          "duration": 0.15625,
          "durationTicks": 60,
          "midi": 71,
          "name": "B4",
          "ticks": 296280,
          "time": 826.4709903333332,
          "velocity": 0.7874015748031497
        },
        {
          "duration": 0.15625,
          "durationTicks": 60,
          "midi": 71,
          "name": "B4",
          "ticks": 296340,
          "time": 826.6272403333332,
          "velocity": 0.7874015748031497
        },
        {
          "duration": 0.15625,
          "durationTicks": 60,
          "midi": 67,
          "name": "G4",
          "ticks": 296460,
          "time": 826.9397403333332,
          "velocity": 0.7874015748031497
        },
        {
          "duration": 0.15625,
          "durationTicks": 60,
          "midi": 66,
          "name": "F#4",
          "ticks": 296520,
          "time": 827.0959903333332,
          "velocity": 0.7874015748031497
        },
        {
          "duration": 0.15625,
          "durationTicks": 60,
          "midi": 64,
          "name": "E4",
          "ticks": 296580,
          "time": 827.2522403333332,
          "velocity": 0.7874015748031497
        },
        {
          "duration": 0.3125,
          "durationTicks": 120,
          "midi": 66,
          "name": "F#4",
          "ticks": 296640,
          "time": 827.4084903333332,
          "velocity": 0.7874015748031497
        },
        {
          "duration": 0.3125,
          "durationTicks": 120,
          "midi": 69,
          "name": "A4",
          "ticks": 296760,
          "time": 827.7209903333332,
          "velocity": 0.7874015748031497
        },
        {
          "duration": 0.3125,
          "durationTicks": 120,
          "midi": 74,
          "name": "D5",
          "ticks": 296880,
          "time": 828.0334903333332,
          "velocity": 0.7874015748031497
        },
        {
          "duration": 0.3125,
          "durationTicks": 120,
          "midi": 78,
          "name": "F#5",
          "ticks": 297000,
          "time": 828.3459903333332,
          "velocity": 0.7874015748031497
        },
        {
          "duration": 0.3125,
          "durationTicks": 120,
          "midi": 81,
          "name": "A5",
          "ticks": 297120,
          "time": 828.6584903333332,
          "velocity": 0.7874015748031497
        },
        {
          "duration": 0.3125,
          "durationTicks": 120,
          "midi": 86,
          "name": "D6",
          "ticks": 297240,
          "time": 828.9709903333332,
          "velocity": 0.7874015748031497
        },
        {
          "duration": 0.15625,
          "durationTicks": 60,
          "midi": 79,
          "name": "G5",
          "ticks": 297420,
          "time": 829.4397403333332,
          "velocity": 0.7874015748031497
        },
        {
          "duration": 0.15625,
          "durationTicks": 60,
          "midi": 76,
          "name": "E5",
          "ticks": 297480,
          "time": 829.5959903333332,
          "velocity": 0.7874015748031497
        },
        {
          "duration": 0.15625,
          "durationTicks": 60,
          "midi": 76,
          "name": "E5",
          "ticks": 297540,
          "time": 829.7522403333332,
          "velocity": 0.7874015748031497
        },
        {
          "duration": 0.15625,
          "durationTicks": 60,
          "midi": 73,
          "name": "C#5",
          "ticks": 297660,
          "time": 830.0647403333332,
          "velocity": 0.7874015748031497
        },
        {
          "duration": 0.15625,
          "durationTicks": 60,
          "midi": 69,
          "name": "A4",
          "ticks": 297720,
          "time": 830.2209903333332,
          "velocity": 0.7874015748031497
        },
        {
          "duration": 0.15625,
          "durationTicks": 60,
          "midi": 69,
          "name": "A4",
          "ticks": 297780,
          "time": 830.3772403333332,
          "velocity": 0.7874015748031497
        },
        {
          "duration": 0.15625,
          "durationTicks": 60,
          "midi": 67,
          "name": "G4",
          "ticks": 297900,
          "time": 830.6897403333332,
          "velocity": 0.7874015748031497
        },
        {
          "duration": 0.15625,
          "durationTicks": 60,
          "midi": 66,
          "name": "F#4",
          "ticks": 297960,
          "time": 830.8459903333332,
          "velocity": 0.7874015748031497
        },
        {
          "duration": 0.15625,
          "durationTicks": 60,
          "midi": 64,
          "name": "E4",
          "ticks": 298020,
          "time": 831.0022403333332,
          "velocity": 0.7874015748031497
        },
        {
          "duration": 0.3125,
          "durationTicks": 120,
          "midi": 62,
          "name": "D4",
          "ticks": 298080,
          "time": 831.1584903333332,
          "velocity": 0.7874015748031497
        },
        {
          "duration": 0.3125,
          "durationTicks": 120,
          "midi": 66,
          "name": "F#4",
          "ticks": 298200,
          "time": 831.4709903333332,
          "velocity": 0.7874015748031497
        },
        {
          "duration": 0.3125,
          "durationTicks": 120,
          "midi": 69,
          "name": "A4",
          "ticks": 298320,
          "time": 831.7834903333332,
          "velocity": 0.7874015748031497
        },
        {
          "duration": 0.3125,
          "durationTicks": 120,
          "midi": 74,
          "name": "D5",
          "ticks": 298440,
          "time": 832.0959903333332,
          "velocity": 0.7874015748031497
        },
        {
          "duration": 0.3125,
          "durationTicks": 120,
          "midi": 78,
          "name": "F#5",
          "ticks": 298560,
          "time": 832.4084903333332,
          "velocity": 0.7874015748031497
        },
        {
          "duration": 0.3125,
          "durationTicks": 120,
          "midi": 81,
          "name": "A5",
          "ticks": 298680,
          "time": 832.7209903333332,
          "velocity": 0.7874015748031497
        },
        {
          "duration": 0.15625,
          "durationTicks": 60,
          "midi": 79,
          "name": "G5",
          "ticks": 298860,
          "time": 833.1897403333332,
          "velocity": 0.7874015748031497
        },
        {
          "duration": 0.15625,
          "durationTicks": 60,
          "midi": 74,
          "name": "D5",
          "ticks": 298920,
          "time": 833.3459903333332,
          "velocity": 0.7874015748031497
        },
        {
          "duration": 0.15625,
          "durationTicks": 60,
          "midi": 74,
          "name": "D5",
          "ticks": 298980,
          "time": 833.5022403333332,
          "velocity": 0.7874015748031497
        },
        {
          "duration": 0.15625,
          "durationTicks": 60,
          "midi": 71,
          "name": "B4",
          "ticks": 299100,
          "time": 833.8147403333332,
          "velocity": 0.7874015748031497
        },
        {
          "duration": 0.15625,
          "durationTicks": 60,
          "midi": 67,
          "name": "G4",
          "ticks": 299160,
          "time": 833.9709903333332,
          "velocity": 0.7874015748031497
        },
        {
          "duration": 0.15625,
          "durationTicks": 60,
          "midi": 67,
          "name": "G4",
          "ticks": 299220,
          "time": 834.1272403333332,
          "velocity": 0.7874015748031497
        },
        {
          "duration": 0.15625,
          "durationTicks": 60,
          "midi": 65,
          "name": "F4",
          "ticks": 299340,
          "time": 834.4397403333332,
          "velocity": 0.7874015748031497
        },
        {
          "duration": 0.15625,
          "durationTicks": 60,
          "midi": 64,
          "name": "E4",
          "ticks": 299400,
          "time": 834.5959903333332,
          "velocity": 0.7874015748031497
        },
        {
          "duration": 0.15625,
          "durationTicks": 60,
          "midi": 62,
          "name": "D4",
          "ticks": 299460,
          "time": 834.7522403333332,
          "velocity": 0.7874015748031497
        },
        {
          "duration": 0.3125,
          "durationTicks": 120,
          "midi": 60,
          "name": "C4",
          "ticks": 299520,
          "time": 834.9084903333332,
          "velocity": 0.7874015748031497
        },
        {
          "duration": 0.3125,
          "durationTicks": 120,
          "midi": 64,
          "name": "E4",
          "ticks": 299640,
          "time": 835.2209903333332,
          "velocity": 0.7874015748031497
        },
        {
          "duration": 0.3125,
          "durationTicks": 120,
          "midi": 67,
          "name": "G4",
          "ticks": 299760,
          "time": 835.5334903333332,
          "velocity": 0.7874015748031497
        },
        {
          "duration": 0.3125,
          "durationTicks": 120,
          "midi": 72,
          "name": "C5",
          "ticks": 299880,
          "time": 835.8459903333332,
          "velocity": 0.7874015748031497
        },
        {
          "duration": 0.3125,
          "durationTicks": 120,
          "midi": 76,
          "name": "E5",
          "ticks": 300000,
          "time": 836.1584903333332,
          "velocity": 0.7874015748031497
        },
        {
          "duration": 0.3125,
          "durationTicks": 120,
          "midi": 79,
          "name": "G5",
          "ticks": 300120,
          "time": 836.4709903333332,
          "velocity": 0.7874015748031497
        },
        {
          "duration": 0.15625,
          "durationTicks": 60,
          "midi": 78,
          "name": "F#5",
          "ticks": 300300,
          "time": 836.9397403333332,
          "velocity": 0.7874015748031497
        },
        {
          "duration": 0.15625,
          "durationTicks": 60,
          "midi": 74,
          "name": "D5",
          "ticks": 300360,
          "time": 837.0959903333332,
          "velocity": 0.7874015748031497
        },
        {
          "duration": 0.15625,
          "durationTicks": 60,
          "midi": 74,
          "name": "D5",
          "ticks": 300420,
          "time": 837.2522403333332,
          "velocity": 0.7874015748031497
        },
        {
          "duration": 0.15625,
          "durationTicks": 60,
          "midi": 69,
          "name": "A4",
          "ticks": 300540,
          "time": 837.5647403333332,
          "velocity": 0.7874015748031497
        },
        {
          "duration": 0.15625,
          "durationTicks": 60,
          "midi": 66,
          "name": "F#4",
          "ticks": 300600,
          "time": 837.7209903333332,
          "velocity": 0.7874015748031497
        },
        {
          "duration": 0.15625,
          "durationTicks": 60,
          "midi": 66,
          "name": "F#4",
          "ticks": 300660,
          "time": 837.8772403333332,
          "velocity": 0.7874015748031497
        },
        {
          "duration": 0.15625,
          "durationTicks": 60,
          "midi": 62,
          "name": "D4",
          "ticks": 300780,
          "time": 838.1897403333332,
          "velocity": 0.7874015748031497
        },
        {
          "duration": 0.15625,
          "durationTicks": 60,
          "midi": 60,
          "name": "C4",
          "ticks": 300840,
          "time": 838.3459903333332,
          "velocity": 0.7874015748031497
        },
        {
          "duration": 0.15625,
          "durationTicks": 60,
          "midi": 62,
          "name": "D4",
          "ticks": 300900,
          "time": 838.5022403333332,
          "velocity": 0.7874015748031497
        },
        {
          "duration": 0.3125,
          "durationTicks": 120,
          "midi": 55,
          "name": "G3",
          "ticks": 300960,
          "time": 838.6584903333332,
          "velocity": 0.7874015748031497
        },
        {
          "duration": 0.3125,
          "durationTicks": 120,
          "midi": 59,
          "name": "B3",
          "ticks": 301080,
          "time": 838.9709903333332,
          "velocity": 0.7874015748031497
        },
        {
          "duration": 0.3125,
          "durationTicks": 120,
          "midi": 62,
          "name": "D4",
          "ticks": 301200,
          "time": 839.2834903333332,
          "velocity": 0.7874015748031497
        },
        {
          "duration": 0.3125,
          "durationTicks": 120,
          "midi": 67,
          "name": "G4",
          "ticks": 301320,
          "time": 839.5959903333332,
          "velocity": 0.7874015748031497
        },
        {
          "duration": 0.3125,
          "durationTicks": 120,
          "midi": 66,
          "name": "F#4",
          "ticks": 301440,
          "time": 839.9084903333332,
          "velocity": 0.7874015748031497
        },
        {
          "duration": 0.3125,
          "durationTicks": 120,
          "midi": 72,
          "name": "C5",
          "ticks": 301560,
          "time": 840.2209903333332,
          "velocity": 0.7874015748031497
        },
        {
          "duration": 0.10416666666662877,
          "durationTicks": 40,
          "midi": 55,
          "name": "G3",
          "ticks": 301680,
          "time": 840.5334903333332,
          "velocity": 0.7874015748031497
        },
        {
          "duration": 0.10416666666662877,
          "durationTicks": 40,
          "midi": 57,
          "name": "A3",
          "ticks": 301720,
          "time": 840.6376569999999,
          "velocity": 0.7874015748031497
        },
        {
          "duration": 0.10416666666674246,
          "durationTicks": 40,
          "midi": 59,
          "name": "B3",
          "ticks": 301760,
          "time": 840.7418236666665,
          "velocity": 0.7874015748031497
        },
        {
          "duration": 0.10416666666662877,
          "durationTicks": 40,
          "midi": 60,
          "name": "C4",
          "ticks": 301800,
          "time": 840.8459903333332,
          "velocity": 0.7874015748031497
        },
        {
          "duration": 0.10416666666662877,
          "durationTicks": 40,
          "midi": 59,
          "name": "B3",
          "ticks": 301840,
          "time": 840.9501569999999,
          "velocity": 0.7874015748031497
        },
        {
          "duration": 0.10416666666674246,
          "durationTicks": 40,
          "midi": 60,
          "name": "C4",
          "ticks": 301880,
          "time": 841.0543236666665,
          "velocity": 0.7874015748031497
        },
        {
          "duration": 0.10416666666662877,
          "durationTicks": 40,
          "midi": 62,
          "name": "D4",
          "ticks": 301920,
          "time": 841.1584903333332,
          "velocity": 0.7874015748031497
        },
        {
          "duration": 0.10416666666662877,
          "durationTicks": 40,
          "midi": 60,
          "name": "C4",
          "ticks": 301960,
          "time": 841.2626569999999,
          "velocity": 0.7874015748031497
        },
        {
          "duration": 0.10416666666674246,
          "durationTicks": 40,
          "midi": 62,
          "name": "D4",
          "ticks": 302000,
          "time": 841.3668236666665,
          "velocity": 0.7874015748031497
        },
        {
          "duration": 0.10416666666662877,
          "durationTicks": 40,
          "midi": 64,
          "name": "E4",
          "ticks": 302040,
          "time": 841.4709903333332,
          "velocity": 0.7874015748031497
        },
        {
          "duration": 0.10416666666662877,
          "durationTicks": 40,
          "midi": 62,
          "name": "D4",
          "ticks": 302080,
          "time": 841.5751569999999,
          "velocity": 0.7874015748031497
        },
        {
          "duration": 0.10416666666674246,
          "durationTicks": 40,
          "midi": 64,
          "name": "E4",
          "ticks": 302120,
          "time": 841.6793236666665,
          "velocity": 0.7874015748031497
        },
        {
          "duration": 0.10416666666662877,
          "durationTicks": 40,
          "midi": 66,
          "name": "F#4",
          "ticks": 302160,
          "time": 841.7834903333332,
          "velocity": 0.7874015748031497
        },
        {
          "duration": 0.10416666666662877,
          "durationTicks": 40,
          "midi": 64,
          "name": "E4",
          "ticks": 302200,
          "time": 841.8876569999999,
          "velocity": 0.7874015748031497
        },
        {
          "duration": 0.10416666666674246,
          "durationTicks": 40,
          "midi": 66,
          "name": "F#4",
          "ticks": 302240,
          "time": 841.9918236666665,
          "velocity": 0.7874015748031497
        },
        {
          "duration": 0.10416666666662877,
          "durationTicks": 40,
          "midi": 67,
          "name": "G4",
          "ticks": 302280,
          "time": 842.0959903333332,
          "velocity": 0.7874015748031497
        },
        {
          "duration": 0.10416666666662877,
          "durationTicks": 40,
          "midi": 66,
          "name": "F#4",
          "ticks": 302320,
          "time": 842.2001569999999,
          "velocity": 0.7874015748031497
        },
        {
          "duration": 0.10416666666674246,
          "durationTicks": 40,
          "midi": 67,
          "name": "G4",
          "ticks": 302360,
          "time": 842.3043236666665,
          "velocity": 0.7874015748031497
        },
        {
          "duration": 0.10416666666662877,
          "durationTicks": 40,
          "midi": 69,
          "name": "A4",
          "ticks": 302400,
          "time": 842.4084903333332,
          "velocity": 0.7874015748031497
        },
        {
          "duration": 0.10416666666662877,
          "durationTicks": 40,
          "midi": 67,
          "name": "G4",
          "ticks": 302440,
          "time": 842.5126569999999,
          "velocity": 0.7874015748031497
        },
        {
          "duration": 0.10416666666674246,
          "durationTicks": 40,
          "midi": 69,
          "name": "A4",
          "ticks": 302480,
          "time": 842.6168236666665,
          "velocity": 0.7874015748031497
        },
        {
          "duration": 0.10416666666662877,
          "durationTicks": 40,
          "midi": 71,
          "name": "B4",
          "ticks": 302520,
          "time": 842.7209903333332,
          "velocity": 0.7874015748031497
        },
        {
          "duration": 0.10416666666662877,
          "durationTicks": 40,
          "midi": 69,
          "name": "A4",
          "ticks": 302560,
          "time": 842.8251569999999,
          "velocity": 0.7874015748031497
        },
        {
          "duration": 0.10416666666674246,
          "durationTicks": 40,
          "midi": 71,
          "name": "B4",
          "ticks": 302600,
          "time": 842.9293236666665,
          "velocity": 0.7874015748031497
        },
        {
          "duration": 0.10416666666662877,
          "durationTicks": 40,
          "midi": 73,
          "name": "C#5",
          "ticks": 302640,
          "time": 843.0334903333332,
          "velocity": 0.7874015748031497
        },
        {
          "duration": 0.10416666666662877,
          "durationTicks": 40,
          "midi": 71,
          "name": "B4",
          "ticks": 302680,
          "time": 843.1376569999999,
          "velocity": 0.7874015748031497
        },
        {
          "duration": 0.10416666666674246,
          "durationTicks": 40,
          "midi": 73,
          "name": "C#5",
          "ticks": 302720,
          "time": 843.2418236666665,
          "velocity": 0.7874015748031497
        },
        {
          "duration": 0.10416666666662877,
          "durationTicks": 40,
          "midi": 74,
          "name": "D5",
          "ticks": 302760,
          "time": 843.3459903333332,
          "velocity": 0.7874015748031497
        },
        {
          "duration": 0.10416666666662877,
          "durationTicks": 40,
          "midi": 73,
          "name": "C#5",
          "ticks": 302800,
          "time": 843.4501569999999,
          "velocity": 0.7874015748031497
        },
        {
          "duration": 0.10416666666674246,
          "durationTicks": 40,
          "midi": 74,
          "name": "D5",
          "ticks": 302840,
          "time": 843.5543236666665,
          "velocity": 0.7874015748031497
        },
        {
          "duration": 0.10416666666662877,
          "durationTicks": 40,
          "midi": 76,
          "name": "E5",
          "ticks": 302880,
          "time": 843.6584903333332,
          "velocity": 0.7874015748031497
        },
        {
          "duration": 0.10416666666662877,
          "durationTicks": 40,
          "midi": 74,
          "name": "D5",
          "ticks": 302920,
          "time": 843.7626569999999,
          "velocity": 0.7874015748031497
        },
        {
          "duration": 0.10416666666674246,
          "durationTicks": 40,
          "midi": 76,
          "name": "E5",
          "ticks": 302960,
          "time": 843.8668236666665,
          "velocity": 0.7874015748031497
        },
        {
          "duration": 0.10416666666662877,
          "durationTicks": 40,
          "midi": 78,
          "name": "F#5",
          "ticks": 303000,
          "time": 843.9709903333332,
          "velocity": 0.7874015748031497
        },
        {
          "duration": 0.10416666666662877,
          "durationTicks": 40,
          "midi": 76,
          "name": "E5",
          "ticks": 303040,
          "time": 844.0751569999999,
          "velocity": 0.7874015748031497
        },
        {
          "duration": 0.10416666666674246,
          "durationTicks": 40,
          "midi": 78,
          "name": "F#5",
          "ticks": 303080,
          "time": 844.1793236666665,
          "velocity": 0.7874015748031497
        },
        {
          "duration": 0.625,
          "durationTicks": 240,
          "midi": 79,
          "name": "G5",
          "ticks": 303120,
          "time": 844.2834903333332,
          "velocity": 0.7874015748031497
        },
        {
          "duration": 0.05208333333325754,
          "durationTicks": 20,
          "midi": 54,
          "name": "F#3",
          "ticks": 303360,
          "time": 844.9084903333332,
          "velocity": 0.7874015748031497
        },
        {
          "duration": 0.05208333333337123,
          "durationTicks": 20,
          "midi": 52,
          "name": "E3",
          "ticks": 303380,
          "time": 844.9605736666665,
          "velocity": 0.7874015748031497
        },
        {
          "duration": 0.05208333333337123,
          "durationTicks": 20,
          "midi": 50,
          "name": "D3",
          "ticks": 303400,
          "time": 845.0126569999999,
          "velocity": 0.7874015748031497
        },
        {
          "duration": 0.46875,
          "durationTicks": 180,
          "midi": 52,
          "name": "E3",
          "ticks": 303420,
          "time": 845.0647403333332,
          "velocity": 0.7874015748031497
        },
        {
          "duration": 0.3125,
          "durationTicks": 120,
          "midi": 71,
          "name": "B4",
          "ticks": 303720,
          "time": 845.8459903333332,
          "velocity": 0.7874015748031497
        },
        {
          "duration": 0.625,
          "durationTicks": 240,
          "midi": 79,
          "name": "G5",
          "ticks": 303840,
          "time": 846.1584903333332,
          "velocity": 0.7874015748031497
        },
        {
          "duration": 0.05208333333325754,
          "durationTicks": 20,
          "midi": 50,
          "name": "D3",
          "ticks": 304080,
          "time": 846.7834903333332,
          "velocity": 0.7874015748031497
        },
        {
          "duration": 0.05208333333337123,
          "durationTicks": 20,
          "midi": 49,
          "name": "C#3",
          "ticks": 304100,
          "time": 846.8355736666665,
          "velocity": 0.7874015748031497
        },
        {
          "duration": 0.05208333333337123,
          "durationTicks": 20,
          "midi": 47,
          "name": "B2",
          "ticks": 304120,
          "time": 846.8876569999999,
          "velocity": 0.7874015748031497
        },
        {
          "duration": 0.46875,
          "durationTicks": 180,
          "midi": 49,
          "name": "C#3",
          "ticks": 304140,
          "time": 846.9397403333332,
          "velocity": 0.7874015748031497
        },
        {
          "duration": 0.3125,
          "durationTicks": 120,
          "midi": 79,
          "name": "G5",
          "ticks": 304440,
          "time": 847.7209903333332,
          "velocity": 0.7874015748031497
        },
        {
          "duration": 0.10416666666662877,
          "durationTicks": 40,
          "midi": 78,
          "name": "F#5",
          "ticks": 304560,
          "time": 848.0334903333332,
          "velocity": 0.7874015748031497
        },
        {
          "duration": 0.10416666666662877,
          "durationTicks": 40,
          "midi": 81,
          "name": "A5",
          "ticks": 304600,
          "time": 848.1376569999999,
          "velocity": 0.7874015748031497
        },
        {
          "duration": 0.10416666666674246,
          "durationTicks": 40,
          "midi": 74,
          "name": "D5",
          "ticks": 304640,
          "time": 848.2418236666665,
          "velocity": 0.7874015748031497
        },
        {
          "duration": 0.10416666666662877,
          "durationTicks": 40,
          "midi": 76,
          "name": "E5",
          "ticks": 304680,
          "time": 848.3459903333332,
          "velocity": 0.7874015748031497
        },
        {
          "duration": 0.10416666666662877,
          "durationTicks": 40,
          "midi": 79,
          "name": "G5",
          "ticks": 304720,
          "time": 848.4501569999999,
          "velocity": 0.7874015748031497
        },
        {
          "duration": 0.10416666666674246,
          "durationTicks": 40,
          "midi": 73,
          "name": "C#5",
          "ticks": 304760,
          "time": 848.5543236666665,
          "velocity": 0.7874015748031497
        },
        {
          "duration": 0.10416666666662877,
          "durationTicks": 40,
          "midi": 74,
          "name": "D5",
          "ticks": 304800,
          "time": 848.6584903333332,
          "velocity": 0.7874015748031497
        },
        {
          "duration": 0.10416666666662877,
          "durationTicks": 40,
          "midi": 78,
          "name": "F#5",
          "ticks": 304840,
          "time": 848.7626569999999,
          "velocity": 0.7874015748031497
        },
        {
          "duration": 0.10416666666674246,
          "durationTicks": 40,
          "midi": 71,
          "name": "B4",
          "ticks": 304880,
          "time": 848.8668236666665,
          "velocity": 0.7874015748031497
        },
        {
          "duration": 0.10416666666662877,
          "durationTicks": 40,
          "midi": 72,
          "name": "C5",
          "ticks": 304920,
          "time": 848.9709903333332,
          "velocity": 0.7874015748031497
        },
        {
          "duration": 0.10416666666662877,
          "durationTicks": 40,
          "midi": 76,
          "name": "E5",
          "ticks": 304960,
          "time": 849.0751569999999,
          "velocity": 0.7874015748031497
        },
        {
          "duration": 0.10416666666674246,
          "durationTicks": 40,
          "midi": 69,
          "name": "A4",
          "ticks": 305000,
          "time": 849.1793236666665,
          "velocity": 0.7874015748031497
        },
        {
          "duration": 0.10416666666662877,
          "durationTicks": 40,
          "midi": 71,
          "name": "B4",
          "ticks": 305040,
          "time": 849.2834903333332,
          "velocity": 0.7874015748031497
        },
        {
          "duration": 0.10416666666662877,
          "durationTicks": 40,
          "midi": 74,
          "name": "D5",
          "ticks": 305080,
          "time": 849.3876569999999,
          "velocity": 0.7874015748031497
        },
        {
          "duration": 0.10416666666674246,
          "durationTicks": 40,
          "midi": 67,
          "name": "G4",
          "ticks": 305120,
          "time": 849.4918236666665,
          "velocity": 0.7874015748031497
        },
        {
          "duration": 0.10416666666662877,
          "durationTicks": 40,
          "midi": 69,
          "name": "A4",
          "ticks": 305160,
          "time": 849.5959903333332,
          "velocity": 0.7874015748031497
        },
        {
          "duration": 0.10416666666662877,
          "durationTicks": 40,
          "midi": 72,
          "name": "C5",
          "ticks": 305200,
          "time": 849.7001569999999,
          "velocity": 0.7874015748031497
        },
        {
          "duration": 0.10416666666674246,
          "durationTicks": 40,
          "midi": 66,
          "name": "F#4",
          "ticks": 305240,
          "time": 849.8043236666665,
          "velocity": 0.7874015748031497
        },
        {
          "duration": 0.3125,
          "durationTicks": 120,
          "midi": 67,
          "name": "G4",
          "ticks": 305280,
          "time": 849.9084903333332,
          "velocity": 0.7874015748031497
        },
        {
          "duration": 0.3125,
          "durationTicks": 120,
          "midi": 55,
          "name": "G3",
          "ticks": 305400,
          "time": 850.2209903333332,
          "velocity": 0.7874015748031497
        },
        {
          "duration": 0.3125,
          "durationTicks": 120,
          "midi": 54,
          "name": "F#3",
          "ticks": 305520,
          "time": 850.5334903333332,
          "velocity": 0.7874015748031497
        },
        {
          "duration": 0.3125,
          "durationTicks": 120,
          "midi": 57,
          "name": "A3",
          "ticks": 305640,
          "time": 850.8459903333332,
          "velocity": 0.7874015748031497
        },
        {
          "duration": 0.3125,
          "durationTicks": 120,
          "midi": 50,
          "name": "D3",
          "ticks": 305760,
          "time": 851.1584903333332,
          "velocity": 0.7874015748031497
        },
        {
          "duration": 0.3125,
          "durationTicks": 120,
          "midi": 62,
          "name": "D4",
          "ticks": 305880,
          "time": 851.4709903333332,
          "velocity": 0.7874015748031497
        },
        {
          "duration": 0.10416666666662877,
          "durationTicks": 40,
          "midi": 61,
          "name": "C#4",
          "ticks": 306000,
          "time": 851.7834903333332,
          "velocity": 0.7874015748031497
        },
        {
          "duration": 0.10416666666662877,
          "durationTicks": 40,
          "midi": 57,
          "name": "A3",
          "ticks": 306040,
          "time": 851.8876569999999,
          "velocity": 0.7874015748031497
        },
        {
          "duration": 0.10416666666674246,
          "durationTicks": 40,
          "midi": 59,
          "name": "B3",
          "ticks": 306080,
          "time": 851.9918236666665,
          "velocity": 0.7874015748031497
        },
        {
          "duration": 0.10416666666662877,
          "durationTicks": 40,
          "midi": 61,
          "name": "C#4",
          "ticks": 306120,
          "time": 852.0959903333332,
          "velocity": 0.7874015748031497
        },
        {
          "duration": 0.10416666666662877,
          "durationTicks": 40,
          "midi": 62,
          "name": "D4",
          "ticks": 306160,
          "time": 852.2001569999999,
          "velocity": 0.7874015748031497
        },
        {
          "duration": 0.10416666666674246,
          "durationTicks": 40,
          "midi": 64,
          "name": "E4",
          "ticks": 306200,
          "time": 852.3043236666665,
          "velocity": 0.7874015748031497
        },
        {
          "duration": 0.41666666666662877,
          "durationTicks": 160,
          "midi": 66,
          "name": "F#4",
          "ticks": 306240,
          "time": 852.4084903333332,
          "velocity": 0.7874015748031497
        },
        {
          "duration": 0.10416666666662877,
          "durationTicks": 40,
          "midi": 64,
          "name": "E4",
          "ticks": 306400,
          "time": 852.8251569999999,
          "velocity": 0.7874015748031497
        },
        {
          "duration": 0.10416666666674246,
          "durationTicks": 40,
          "midi": 62,
          "name": "D4",
          "ticks": 306440,
          "time": 852.9293236666665,
          "velocity": 0.7874015748031497
        },
        {
          "duration": 0.3125,
          "durationTicks": 120,
          "midi": 71,
          "name": "B4",
          "ticks": 306480,
          "time": 853.0334903333332,
          "velocity": 0.7874015748031497
        },
        {
          "duration": 0.3125,
          "durationTicks": 120,
          "midi": 73,
          "name": "C#5",
          "ticks": 306600,
          "time": 853.3459903333332,
          "velocity": 0.7874015748031497
        },
        {
          "duration": 0.10416666666662877,
          "durationTicks": 40,
          "midi": 66,
          "name": "F#4",
          "ticks": 306720,
          "time": 853.6584903333332,
          "velocity": 0.7874015748031497
        },
        {
          "duration": 0.10416666666662877,
          "durationTicks": 40,
          "midi": 69,
          "name": "A4",
          "ticks": 306760,
          "time": 853.7626569999999,
          "velocity": 0.7874015748031497
        },
        {
          "duration": 0.10416666666674246,
          "durationTicks": 40,
          "midi": 66,
          "name": "F#4",
          "ticks": 306800,
          "time": 853.8668236666665,
          "velocity": 0.7874015748031497
        },
        {
          "duration": 0.10416666666662877,
          "durationTicks": 40,
          "midi": 62,
          "name": "D4",
          "ticks": 306840,
          "time": 853.9709903333332,
          "velocity": 0.7874015748031497
        },
        {
          "duration": 0.10416666666662877,
          "durationTicks": 40,
          "midi": 57,
          "name": "A3",
          "ticks": 306880,
          "time": 854.0751569999999,
          "velocity": 0.7874015748031497
        },
        {
          "duration": 0.10416666666674246,
          "durationTicks": 40,
          "midi": 54,
          "name": "F#3",
          "ticks": 306920,
          "time": 854.1793236666665,
          "velocity": 0.7874015748031497
        },
        {
          "duration": 0.15625,
          "durationTicks": 60,
          "midi": 81,
          "name": "A5",
          "ticks": 307500,
          "time": 855.6897403333332,
          "velocity": 0.7874015748031497
        },
        {
          "duration": 0.15625,
          "durationTicks": 60,
          "midi": 78,
          "name": "F#5",
          "ticks": 307560,
          "time": 855.8459903333332,
          "velocity": 0.7874015748031497
        },
        {
          "duration": 0.15625,
          "durationTicks": 60,
          "midi": 78,
          "name": "F#5",
          "ticks": 307620,
          "time": 856.0022403333332,
          "velocity": 0.7874015748031497
        },
        {
          "duration": 0.15625,
          "durationTicks": 60,
          "midi": 74,
          "name": "D5",
          "ticks": 307740,
          "time": 856.3147403333332,
          "velocity": 0.7874015748031497
        },
        {
          "duration": 0.15625,
          "durationTicks": 60,
          "midi": 69,
          "name": "A4",
          "ticks": 307800,
          "time": 856.4709903333332,
          "velocity": 0.7874015748031497
        },
        {
          "duration": 0.15625,
          "durationTicks": 60,
          "midi": 69,
          "name": "A4",
          "ticks": 307860,
          "time": 856.6272403333332,
          "velocity": 0.7874015748031497
        },
        {
          "duration": 0.15625,
          "durationTicks": 60,
          "midi": 66,
          "name": "F#4",
          "ticks": 307980,
          "time": 856.9397403333332,
          "velocity": 0.7874015748031497
        },
        {
          "duration": 0.15625,
          "durationTicks": 60,
          "midi": 62,
          "name": "D4",
          "ticks": 308040,
          "time": 857.0959903333332,
          "velocity": 0.7874015748031497
        },
        {
          "duration": 0.15625,
          "durationTicks": 60,
          "midi": 62,
          "name": "D4",
          "ticks": 308100,
          "time": 857.2522403333332,
          "velocity": 0.7874015748031497
        },
        {
          "duration": 0.15625,
          "durationTicks": 60,
          "midi": 59,
          "name": "B3",
          "ticks": 308220,
          "time": 857.5647403333332,
          "velocity": 0.7874015748031497
        },
        {
          "duration": 0.15625,
          "durationTicks": 60,
          "midi": 55,
          "name": "G3",
          "ticks": 308280,
          "time": 857.7209903333332,
          "velocity": 0.7874015748031497
        },
        {
          "duration": 0.15625,
          "durationTicks": 60,
          "midi": 55,
          "name": "G3",
          "ticks": 308340,
          "time": 857.8772403333332,
          "velocity": 0.7874015748031497
        },
        {
          "duration": 0.15625,
          "durationTicks": 60,
          "midi": 50,
          "name": "D3",
          "ticks": 308460,
          "time": 858.1897403333332,
          "velocity": 0.7874015748031497
        },
        {
          "duration": 0.15625,
          "durationTicks": 60,
          "midi": 47,
          "name": "B2",
          "ticks": 308520,
          "time": 858.3459903333332,
          "velocity": 0.7874015748031497
        },
        {
          "duration": 0.15625,
          "durationTicks": 60,
          "midi": 47,
          "name": "B2",
          "ticks": 308580,
          "time": 858.5022403333332,
          "velocity": 0.7874015748031497
        },
        {
          "duration": 0.15625,
          "durationTicks": 60,
          "midi": 43,
          "name": "G2",
          "ticks": 308700,
          "time": 858.8147403333332,
          "velocity": 0.7874015748031497
        },
        {
          "duration": 0.15625,
          "durationTicks": 60,
          "midi": 45,
          "name": "A2",
          "ticks": 308760,
          "time": 858.9709903333332,
          "velocity": 0.7874015748031497
        },
        {
          "duration": 0.15625,
          "durationTicks": 60,
          "midi": 47,
          "name": "B2",
          "ticks": 308820,
          "time": 859.1272403333332,
          "velocity": 0.7874015748031497
        },
        {
          "duration": 0.3125,
          "durationTicks": 120,
          "midi": 48,
          "name": "C3",
          "ticks": 308880,
          "time": 859.2834903333332,
          "velocity": 0.7874015748031497
        },
        {
          "duration": 0.3125,
          "durationTicks": 120,
          "midi": 55,
          "name": "G3",
          "ticks": 309000,
          "time": 859.5959903333332,
          "velocity": 0.7874015748031497
        },
        {
          "duration": 0.3125,
          "durationTicks": 120,
          "midi": 60,
          "name": "C4",
          "ticks": 309120,
          "time": 859.9084903333332,
          "velocity": 0.7874015748031497
        },
        {
          "duration": 0.3125,
          "durationTicks": 120,
          "midi": 64,
          "name": "E4",
          "ticks": 309240,
          "time": 860.2209903333332,
          "velocity": 0.7874015748031497
        },
        {
          "duration": 0.3125,
          "durationTicks": 120,
          "midi": 57,
          "name": "A3",
          "ticks": 309360,
          "time": 860.5334903333332,
          "velocity": 0.7874015748031497
        },
        {
          "duration": 0.41666666666662877,
          "durationTicks": 160,
          "midi": 72,
          "name": "C5",
          "ticks": 309480,
          "time": 860.8459903333332,
          "velocity": 0.7874015748031497
        },
        {
          "duration": 0.10416666666662877,
          "durationTicks": 40,
          "midi": 71,
          "name": "B4",
          "ticks": 309640,
          "time": 861.2626569999999,
          "velocity": 0.7874015748031497
        },
        {
          "duration": 0.10416666666674246,
          "durationTicks": 40,
          "midi": 70,
          "name": "A#4",
          "ticks": 309680,
          "time": 861.3668236666665,
          "velocity": 0.7874015748031497
        },
        {
          "duration": 0.10416666666662877,
          "durationTicks": 40,
          "midi": 71,
          "name": "B4",
          "ticks": 309720,
          "time": 861.4709903333332,
          "velocity": 0.7874015748031497
        },
        {
          "duration": 0.10416666666662877,
          "durationTicks": 40,
          "midi": 73,
          "name": "C#5",
          "ticks": 309760,
          "time": 861.5751569999999,
          "velocity": 0.7874015748031497
        },
        {
          "duration": 0.10416666666674246,
          "durationTicks": 40,
          "midi": 75,
          "name": "D#5",
          "ticks": 309800,
          "time": 861.6793236666665,
          "velocity": 0.7874015748031497
        },
        {
          "duration": 0.10416666666662877,
          "durationTicks": 40,
          "midi": 76,
          "name": "E5",
          "ticks": 309840,
          "time": 861.7834903333332,
          "velocity": 0.7874015748031497
        },
        {
          "duration": 0.10416666666662877,
          "durationTicks": 40,
          "midi": 75,
          "name": "D#5",
          "ticks": 309880,
          "time": 861.8876569999999,
          "velocity": 0.7874015748031497
        },
        {
          "duration": 0.10416666666674246,
          "durationTicks": 40,
          "midi": 73,
          "name": "C#5",
          "ticks": 309920,
          "time": 861.9918236666665,
          "velocity": 0.7874015748031497
        },
        {
          "duration": 0.10416666666662877,
          "durationTicks": 40,
          "midi": 75,
          "name": "D#5",
          "ticks": 309960,
          "time": 862.0959903333332,
          "velocity": 0.7874015748031497
        },
        {
          "duration": 0.10416666666662877,
          "durationTicks": 40,
          "midi": 76,
          "name": "E5",
          "ticks": 310000,
          "time": 862.2001569999999,
          "velocity": 0.7874015748031497
        },
        {
          "duration": 0.10416666666674246,
          "durationTicks": 40,
          "midi": 78,
          "name": "F#5",
          "ticks": 310040,
          "time": 862.3043236666665,
          "velocity": 0.7874015748031497
        },
        {
          "duration": 0.10416666666662877,
          "durationTicks": 40,
          "midi": 79,
          "name": "G5",
          "ticks": 310080,
          "time": 862.4084903333332,
          "velocity": 0.7874015748031497
        },
        {
          "duration": 0.10416666666662877,
          "durationTicks": 40,
          "midi": 78,
          "name": "F#5",
          "ticks": 310120,
          "time": 862.5126569999999,
          "velocity": 0.7874015748031497
        },
        {
          "duration": 0.10416666666674246,
          "durationTicks": 40,
          "midi": 76,
          "name": "E5",
          "ticks": 310160,
          "time": 862.6168236666665,
          "velocity": 0.7874015748031497
        },
        {
          "duration": 0.10416666666662877,
          "durationTicks": 40,
          "midi": 78,
          "name": "F#5",
          "ticks": 310200,
          "time": 862.7209903333332,
          "velocity": 0.7874015748031497
        },
        {
          "duration": 0.10416666666662877,
          "durationTicks": 40,
          "midi": 79,
          "name": "G5",
          "ticks": 310240,
          "time": 862.8251569999999,
          "velocity": 0.7874015748031497
        },
        {
          "duration": 0.10416666666674246,
          "durationTicks": 40,
          "midi": 81,
          "name": "A5",
          "ticks": 310280,
          "time": 862.9293236666665,
          "velocity": 0.7874015748031497
        },
        {
          "duration": 0.10416666666662877,
          "durationTicks": 40,
          "midi": 83,
          "name": "B5",
          "ticks": 310320,
          "time": 863.0334903333332,
          "velocity": 0.7874015748031497
        },
        {
          "duration": 0.10416666666662877,
          "durationTicks": 40,
          "midi": 81,
          "name": "A5",
          "ticks": 310360,
          "time": 863.1376569999999,
          "velocity": 0.7874015748031497
        },
        {
          "duration": 0.10416666666674246,
          "durationTicks": 40,
          "midi": 79,
          "name": "G5",
          "ticks": 310400,
          "time": 863.2418236666665,
          "velocity": 0.7874015748031497
        },
        {
          "duration": 0.10416666666662877,
          "durationTicks": 40,
          "midi": 81,
          "name": "A5",
          "ticks": 310440,
          "time": 863.3459903333332,
          "velocity": 0.7874015748031497
        },
        {
          "duration": 0.10416666666662877,
          "durationTicks": 40,
          "midi": 83,
          "name": "B5",
          "ticks": 310480,
          "time": 863.4501569999999,
          "velocity": 0.7874015748031497
        },
        {
          "duration": 0.10416666666674246,
          "durationTicks": 40,
          "midi": 84,
          "name": "C6",
          "ticks": 310520,
          "time": 863.5543236666665,
          "velocity": 0.7874015748031497
        },
        {
          "duration": 0.3125,
          "durationTicks": 120,
          "midi": 75,
          "name": "D#5",
          "ticks": 310560,
          "time": 863.6584903333332,
          "velocity": 0.7874015748031497
        },
        {
          "duration": 0.3125,
          "durationTicks": 120,
          "midi": 84,
          "name": "C6",
          "ticks": 310680,
          "time": 863.9709903333332,
          "velocity": 0.7874015748031497
        },
        {
          "duration": 0.3125,
          "durationTicks": 120,
          "midi": 83,
          "name": "B5",
          "ticks": 310800,
          "time": 864.2834903333332,
          "velocity": 0.7874015748031497
        },
        {
          "duration": 0.41666666666662877,
          "durationTicks": 160,
          "midi": 74,
          "name": "D5",
          "ticks": 310920,
          "time": 864.5959903333332,
          "velocity": 0.7874015748031497
        },
        {
          "duration": 0.10416666666662877,
          "durationTicks": 40,
          "midi": 73,
          "name": "C#5",
          "ticks": 311080,
          "time": 865.0126569999999,
          "velocity": 0.7874015748031497
        },
        {
          "duration": 0.10416666666674246,
          "durationTicks": 40,
          "midi": 75,
          "name": "D#5",
          "ticks": 311120,
          "time": 865.1168236666665,
          "velocity": 0.7874015748031497
        },
        {
          "duration": 0.10416666666662877,
          "durationTicks": 40,
          "midi": 76,
          "name": "E5",
          "ticks": 311160,
          "time": 865.2209903333332,
          "velocity": 0.7874015748031497
        },
        {
          "duration": 0.10416666666662877,
          "durationTicks": 40,
          "midi": 78,
          "name": "F#5",
          "ticks": 311200,
          "time": 865.3251569999999,
          "velocity": 0.7874015748031497
        },
        {
          "duration": 0.10416666666674246,
          "durationTicks": 40,
          "midi": 79,
          "name": "G5",
          "ticks": 311240,
          "time": 865.4293236666665,
          "velocity": 0.7874015748031497
        },
        {
          "duration": 0.3125,
          "durationTicks": 120,
          "midi": 70,
          "name": "A#4",
          "ticks": 311280,
          "time": 865.5334903333332,
          "velocity": 0.7874015748031497
        },
        {
          "duration": 0.3125,
          "durationTicks": 120,
          "midi": 79,
          "name": "G5",
          "ticks": 311400,
          "time": 865.8459903333332,
          "velocity": 0.7874015748031497
        },
        {
          "duration": 0.3125,
          "durationTicks": 120,
          "midi": 78,
          "name": "F#5",
          "ticks": 311520,
          "time": 866.1584903333332,
          "velocity": 0.7874015748031497
        },
        {
          "duration": 0.3125,
          "durationTicks": 120,
          "midi": 69,
          "name": "A4",
          "ticks": 311640,
          "time": 866.4709903333332,
          "velocity": 0.7874015748031497
        },
        {
          "duration": 0.3125,
          "durationTicks": 120,
          "midi": 67,
          "name": "G4",
          "ticks": 311760,
          "time": 866.7834903333332,
          "velocity": 0.7874015748031497
        },
        {
          "duration": 0.3125,
          "durationTicks": 120,
          "midi": 63,
          "name": "D#4",
          "ticks": 311880,
          "time": 867.0959903333332,
          "velocity": 0.7874015748031497
        },
        {
          "duration": 0.3125,
          "durationTicks": 120,
          "midi": 64,
          "name": "E4",
          "ticks": 312000,
          "time": 867.4084903333332,
          "velocity": 0.7874015748031497
        },
        {
          "duration": 0.3125,
          "durationTicks": 120,
          "midi": 60,
          "name": "C4",
          "ticks": 312120,
          "time": 867.7209903333332,
          "velocity": 0.7874015748031497
        },
        {
          "duration": 0.3125,
          "durationTicks": 120,
          "midi": 51,
          "name": "D#3",
          "ticks": 312240,
          "time": 868.0334903333332,
          "velocity": 0.7874015748031497
        },
        {
          "duration": 0.3125,
          "durationTicks": 120,
          "midi": 75,
          "name": "D#5",
          "ticks": 312360,
          "time": 868.3459903333332,
          "velocity": 0.7874015748031497
        },
        {
          "duration": 0.3125,
          "durationTicks": 120,
          "midi": 76,
          "name": "E5",
          "ticks": 312480,
          "time": 868.6584903333332,
          "velocity": 0.7874015748031497
        },
        {
          "duration": 0.3125,
          "durationTicks": 120,
          "midi": 64,
          "name": "E4",
          "ticks": 312600,
          "time": 868.9709903333332,
          "velocity": 0.7874015748031497
        },
        {
          "duration": 0.10416666666662877,
          "durationTicks": 40,
          "midi": 67,
          "name": "G4",
          "ticks": 312720,
          "time": 869.2834903333332,
          "velocity": 0.7874015748031497
        },
        {
          "duration": 0.10416666666662877,
          "durationTicks": 40,
          "midi": 71,
          "name": "B4",
          "ticks": 312760,
          "time": 869.3876569999999,
          "velocity": 0.7874015748031497
        },
        {
          "duration": 0.10416666666674246,
          "durationTicks": 40,
          "midi": 76,
          "name": "E5",
          "ticks": 312800,
          "time": 869.4918236666665,
          "velocity": 0.7874015748031497
        },
        {
          "duration": 0.10416666666662877,
          "durationTicks": 40,
          "midi": 79,
          "name": "G5",
          "ticks": 312840,
          "time": 869.5959903333332,
          "velocity": 0.7874015748031497
        },
        {
          "duration": 0.10416666666662877,
          "durationTicks": 40,
          "midi": 75,
          "name": "D#5",
          "ticks": 312880,
          "time": 869.7001569999999,
          "velocity": 0.7874015748031497
        },
        {
          "duration": 0.10416666666674246,
          "durationTicks": 40,
          "midi": 76,
          "name": "E5",
          "ticks": 312920,
          "time": 869.8043236666665,
          "velocity": 0.7874015748031497
        },
        {
          "duration": 0.10416666666662877,
          "durationTicks": 40,
          "midi": 71,
          "name": "B4",
          "ticks": 312960,
          "time": 869.9084903333332,
          "velocity": 0.7874015748031497
        },
        {
          "duration": 0.20833333333337123,
          "durationTicks": 80,
          "midi": 67,
          "name": "G4",
          "ticks": 313000,
          "time": 870.0126569999999,
          "velocity": 0.7874015748031497
        },
        {
          "duration": 0.15625,
          "durationTicks": 60,
          "midi": 68,
          "name": "G#4",
          "ticks": 313080,
          "time": 870.2209903333332,
          "velocity": 0.7874015748031497
        },
        {
          "duration": 0.15625,
          "durationTicks": 60,
          "midi": 77,
          "name": "F5",
          "ticks": 313140,
          "time": 870.3772403333332,
          "velocity": 0.7874015748031497
        },
        {
          "duration": 0.10416666666662877,
          "durationTicks": 40,
          "midi": 76,
          "name": "E5",
          "ticks": 313200,
          "time": 870.5334903333332,
          "velocity": 0.7874015748031497
        },
        {
          "duration": 0.10416666666662877,
          "durationTicks": 40,
          "midi": 72,
          "name": "C5",
          "ticks": 313240,
          "time": 870.6376569999999,
          "velocity": 0.7874015748031497
        },
        {
          "duration": 0.10416666666674246,
          "durationTicks": 40,
          "midi": 69,
          "name": "A4",
          "ticks": 313280,
          "time": 870.7418236666665,
          "velocity": 0.7874015748031497
        },
        {
          "duration": 0.20833333333337123,
          "durationTicks": 80,
          "midi": 62,
          "name": "D4",
          "ticks": 313360,
          "time": 870.9501569999999,
          "velocity": 0.7874015748031497
        },
        {
          "duration": 0.10416666666662877,
          "durationTicks": 40,
          "midi": 60,
          "name": "C4",
          "ticks": 313480,
          "time": 871.2626569999999,
          "velocity": 0.7874015748031497
        },
        {
          "duration": 0.10416666666674246,
          "durationTicks": 40,
          "midi": 69,
          "name": "A4",
          "ticks": 313520,
          "time": 871.3668236666665,
          "velocity": 0.7874015748031497
        },
        {
          "duration": 0.10416666666662877,
          "durationTicks": 40,
          "midi": 59,
          "name": "B3",
          "ticks": 313600,
          "time": 871.5751569999999,
          "velocity": 0.7874015748031497
        },
        {
          "duration": 0.10416666666674246,
          "durationTicks": 40,
          "midi": 67,
          "name": "G4",
          "ticks": 313640,
          "time": 871.6793236666665,
          "velocity": 0.7874015748031497
        },
        {
          "duration": 0.10416666666662877,
          "durationTicks": 40,
          "midi": 60,
          "name": "C4",
          "ticks": 313720,
          "time": 871.8876569999999,
          "velocity": 0.7874015748031497
        },
        {
          "duration": 0.10416666666674246,
          "durationTicks": 40,
          "midi": 69,
          "name": "A4",
          "ticks": 313760,
          "time": 871.9918236666665,
          "velocity": 0.7874015748031497
        },
        {
          "duration": 0.10416666666662877,
          "durationTicks": 40,
          "midi": 66,
          "name": "F#4",
          "ticks": 313840,
          "time": 872.2001569999999,
          "velocity": 0.7874015748031497
        },
        {
          "duration": 0.10416666666674246,
          "durationTicks": 40,
          "midi": 75,
          "name": "D#5",
          "ticks": 313880,
          "time": 872.3043236666665,
          "velocity": 0.7874015748031497
        },
        {
          "duration": 0.10416666666662877,
          "durationTicks": 40,
          "midi": 74,
          "name": "D5",
          "ticks": 313920,
          "time": 872.4084903333332,
          "velocity": 0.7874015748031497
        },
        {
          "duration": 0.10416666666662877,
          "durationTicks": 40,
          "midi": 71,
          "name": "B4",
          "ticks": 313960,
          "time": 872.5126569999999,
          "velocity": 0.7874015748031497
        },
        {
          "duration": 0.10416666666674246,
          "durationTicks": 40,
          "midi": 67,
          "name": "G4",
          "ticks": 314000,
          "time": 872.6168236666665,
          "velocity": 0.7874015748031497
        },
        {
          "duration": 0.10416666666662877,
          "durationTicks": 40,
          "midi": 60,
          "name": "C4",
          "ticks": 314080,
          "time": 872.8251569999999,
          "velocity": 0.7874015748031497
        },
        {
          "duration": 0.10416666666674246,
          "durationTicks": 40,
          "midi": 69,
          "name": "A4",
          "ticks": 314120,
          "time": 872.9293236666665,
          "velocity": 0.7874015748031497
        },
        {
          "duration": 0.10416666666662877,
          "durationTicks": 40,
          "midi": 59,
          "name": "B3",
          "ticks": 314200,
          "time": 873.1376569999999,
          "velocity": 0.7874015748031497
        },
        {
          "duration": 0.10416666666674246,
          "durationTicks": 40,
          "midi": 67,
          "name": "G4",
          "ticks": 314240,
          "time": 873.2418236666665,
          "velocity": 0.7874015748031497
        },
        {
          "duration": 0.10416666666662877,
          "durationTicks": 40,
          "midi": 57,
          "name": "A3",
          "ticks": 314320,
          "time": 873.4501569999999,
          "velocity": 0.7874015748031497
        },
        {
          "duration": 0.10416666666674246,
          "durationTicks": 40,
          "midi": 66,
          "name": "F#4",
          "ticks": 314360,
          "time": 873.5543236666665,
          "velocity": 0.7874015748031497
        },
        {
          "duration": 0.10416666666662877,
          "durationTicks": 40,
          "midi": 59,
          "name": "B3",
          "ticks": 314440,
          "time": 873.7626569999999,
          "velocity": 0.7874015748031497
        },
        {
          "duration": 0.10416666666674246,
          "durationTicks": 40,
          "midi": 67,
          "name": "G4",
          "ticks": 314480,
          "time": 873.8668236666665,
          "velocity": 0.7874015748031497
        },
        {
          "duration": 0.10416666666662877,
          "durationTicks": 40,
          "midi": 64,
          "name": "E4",
          "ticks": 314560,
          "time": 874.0751569999999,
          "velocity": 0.7874015748031497
        },
        {
          "duration": 0.10416666666674246,
          "durationTicks": 40,
          "midi": 74,
          "name": "D5",
          "ticks": 314600,
          "time": 874.1793236666665,
          "velocity": 0.7874015748031497
        },
        {
          "duration": 0.10416666666662877,
          "durationTicks": 40,
          "midi": 72,
          "name": "C5",
          "ticks": 314640,
          "time": 874.2834903333332,
          "velocity": 0.7874015748031497
        },
        {
          "duration": 0.10416666666662877,
          "durationTicks": 40,
          "midi": 69,
          "name": "A4",
          "ticks": 314680,
          "time": 874.3876569999999,
          "velocity": 0.7874015748031497
        },
        {
          "duration": 0.10416666666674246,
          "durationTicks": 40,
          "midi": 64,
          "name": "E4",
          "ticks": 314720,
          "time": 874.4918236666665,
          "velocity": 0.7874015748031497
        },
        {
          "duration": 0.3125,
          "durationTicks": 120,
          "midi": 60,
          "name": "C4",
          "ticks": 314760,
          "time": 874.5959903333332,
          "velocity": 0.7874015748031497
        },
        {
          "duration": 0.3125,
          "durationTicks": 120,
          "midi": 60,
          "name": "C4",
          "ticks": 314880,
          "time": 874.9084903333332,
          "velocity": 0.7874015748031497
        },
        {
          "duration": 0.3125,
          "durationTicks": 120,
          "midi": 60,
          "name": "C4",
          "ticks": 315000,
          "time": 875.2209903333332,
          "velocity": 0.7874015748031497
        },
        {
          "duration": 0.3125,
          "durationTicks": 120,
          "midi": 60,
          "name": "C4",
          "ticks": 315120,
          "time": 875.5334903333332,
          "velocity": 0.7874015748031497
        },
        {
          "duration": 0.3125,
          "durationTicks": 120,
          "midi": 72,
          "name": "C5",
          "ticks": 315240,
          "time": 875.8459903333332,
          "velocity": 0.7874015748031497
        },
        {
          "duration": 0.10416666666662877,
          "durationTicks": 40,
          "midi": 72,
          "name": "C5",
          "ticks": 315360,
          "time": 876.1584903333332,
          "velocity": 0.7874015748031497
        },
        {
          "duration": 0.10416666666662877,
          "durationTicks": 40,
          "midi": 69,
          "name": "A4",
          "ticks": 315400,
          "time": 876.2626569999999,
          "velocity": 0.7874015748031497
        },
        {
          "duration": 0.10416666666674246,
          "durationTicks": 40,
          "midi": 66,
          "name": "F#4",
          "ticks": 315440,
          "time": 876.3668236666665,
          "velocity": 0.7874015748031497
        },
        {
          "duration": 0.3125,
          "durationTicks": 120,
          "midi": 62,
          "name": "D4",
          "ticks": 315480,
          "time": 876.4709903333332,
          "velocity": 0.7874015748031497
        },
        {
          "duration": 0.3125,
          "durationTicks": 120,
          "midi": 62,
          "name": "D4",
          "ticks": 315600,
          "time": 876.7834903333332,
          "velocity": 0.7874015748031497
        },
        {
          "duration": 0.3125,
          "durationTicks": 120,
          "midi": 62,
          "name": "D4",
          "ticks": 315720,
          "time": 877.0959903333332,
          "velocity": 0.7874015748031497
        },
        {
          "duration": 0.3125,
          "durationTicks": 120,
          "midi": 62,
          "name": "D4",
          "ticks": 315840,
          "time": 877.4084903333332,
          "velocity": 0.7874015748031497
        },
        {
          "duration": 0.3125,
          "durationTicks": 120,
          "midi": 72,
          "name": "C5",
          "ticks": 315960,
          "time": 877.7209903333332,
          "velocity": 0.7874015748031497
        },
        {
          "duration": 0.10416666666662877,
          "durationTicks": 40,
          "midi": 71,
          "name": "B4",
          "ticks": 316080,
          "time": 878.0334903333332,
          "velocity": 0.7874015748031497
        },
        {
          "duration": 0.10416666666662877,
          "durationTicks": 40,
          "midi": 67,
          "name": "G4",
          "ticks": 316120,
          "time": 878.1376569999999,
          "velocity": 0.7874015748031497
        },
        {
          "duration": 0.10416666666674246,
          "durationTicks": 40,
          "midi": 74,
          "name": "D5",
          "ticks": 316160,
          "time": 878.2418236666665,
          "velocity": 0.7874015748031497
        },
        {
          "duration": 0.10416666666662877,
          "durationTicks": 40,
          "midi": 72,
          "name": "C5",
          "ticks": 316200,
          "time": 878.3459903333332,
          "velocity": 0.7874015748031497
        },
        {
          "duration": 0.10416666666662877,
          "durationTicks": 40,
          "midi": 69,
          "name": "A4",
          "ticks": 316240,
          "time": 878.4501569999999,
          "velocity": 0.7874015748031497
        },
        {
          "duration": 0.10416666666674246,
          "durationTicks": 40,
          "midi": 76,
          "name": "E5",
          "ticks": 316280,
          "time": 878.5543236666665,
          "velocity": 0.7874015748031497
        },
        {
          "duration": 0.3125,
          "durationTicks": 120,
          "midi": 74,
          "name": "D5",
          "ticks": 316320,
          "time": 878.6584903333332,
          "velocity": 0.7874015748031497
        },
        {
          "duration": 0.3125,
          "durationTicks": 120,
          "midi": 59,
          "name": "B3",
          "ticks": 316440,
          "time": 878.9709903333332,
          "velocity": 0.7874015748031497
        },
        {
          "duration": 0.3125,
          "durationTicks": 120,
          "midi": 55,
          "name": "G3",
          "ticks": 316560,
          "time": 879.2834903333332,
          "velocity": 0.7874015748031497
        },
        {
          "duration": 0.3125,
          "durationTicks": 120,
          "midi": 77,
          "name": "F5",
          "ticks": 316680,
          "time": 879.5959903333332,
          "velocity": 0.7874015748031497
        },
        {
          "duration": 0.10416666666662877,
          "durationTicks": 40,
          "midi": 76,
          "name": "E5",
          "ticks": 316800,
          "time": 879.9084903333332,
          "velocity": 0.7874015748031497
        },
        {
          "duration": 0.10416666666662877,
          "durationTicks": 40,
          "midi": 79,
          "name": "G5",
          "ticks": 316840,
          "time": 880.0126569999999,
          "velocity": 0.7874015748031497
        },
        {
          "duration": 0.10416666666674246,
          "durationTicks": 40,
          "midi": 72,
          "name": "C5",
          "ticks": 316880,
          "time": 880.1168236666665,
          "velocity": 0.7874015748031497
        },
        {
          "duration": 0.10416666666662877,
          "durationTicks": 40,
          "midi": 74,
          "name": "D5",
          "ticks": 316920,
          "time": 880.2209903333332,
          "velocity": 0.7874015748031497
        },
        {
          "duration": 0.10416666666662877,
          "durationTicks": 40,
          "midi": 77,
          "name": "F5",
          "ticks": 316960,
          "time": 880.3251569999999,
          "velocity": 0.7874015748031497
        },
        {
          "duration": 0.10416666666674246,
          "durationTicks": 40,
          "midi": 71,
          "name": "B4",
          "ticks": 317000,
          "time": 880.4293236666665,
          "velocity": 0.7874015748031497
        },
        {
          "duration": 0.10416666666662877,
          "durationTicks": 40,
          "midi": 72,
          "name": "C5",
          "ticks": 317040,
          "time": 880.5334903333332,
          "velocity": 0.7874015748031497
        },
        {
          "duration": 0.10416666666662877,
          "durationTicks": 40,
          "midi": 76,
          "name": "E5",
          "ticks": 317080,
          "time": 880.6376569999999,
          "velocity": 0.7874015748031497
        },
        {
          "duration": 0.10416666666674246,
          "durationTicks": 40,
          "midi": 69,
          "name": "A4",
          "ticks": 317120,
          "time": 880.7418236666665,
          "velocity": 0.7874015748031497
        },
        {
          "duration": 0.10416666666662877,
          "durationTicks": 40,
          "midi": 71,
          "name": "B4",
          "ticks": 317160,
          "time": 880.8459903333332,
          "velocity": 0.7874015748031497
        },
        {
          "duration": 0.10416666666662877,
          "durationTicks": 40,
          "midi": 74,
          "name": "D5",
          "ticks": 317200,
          "time": 880.9501569999999,
          "velocity": 0.7874015748031497
        },
        {
          "duration": 0.10416666666674246,
          "durationTicks": 40,
          "midi": 67,
          "name": "G4",
          "ticks": 317240,
          "time": 881.0543236666665,
          "velocity": 0.7874015748031497
        },
        {
          "duration": 0.10416666666662877,
          "durationTicks": 40,
          "midi": 69,
          "name": "A4",
          "ticks": 317280,
          "time": 881.1584903333332,
          "velocity": 0.7874015748031497
        },
        {
          "duration": 0.10416666666662877,
          "durationTicks": 40,
          "midi": 72,
          "name": "C5",
          "ticks": 317320,
          "time": 881.2626569999999,
          "velocity": 0.7874015748031497
        },
        {
          "duration": 0.10416666666674246,
          "durationTicks": 40,
          "midi": 66,
          "name": "F#4",
          "ticks": 317360,
          "time": 881.3668236666665,
          "velocity": 0.7874015748031497
        },
        {
          "duration": 0.10416666666662877,
          "durationTicks": 40,
          "midi": 67,
          "name": "G4",
          "ticks": 317400,
          "time": 881.4709903333332,
          "velocity": 0.7874015748031497
        },
        {
          "duration": 0.10416666666662877,
          "durationTicks": 40,
          "midi": 71,
          "name": "B4",
          "ticks": 317440,
          "time": 881.5751569999999,
          "velocity": 0.7874015748031497
        },
        {
          "duration": 0.10416666666674246,
          "durationTicks": 40,
          "midi": 64,
          "name": "E4",
          "ticks": 317480,
          "time": 881.6793236666665,
          "velocity": 0.7874015748031497
        },
        {
          "duration": 0.10416666666662877,
          "durationTicks": 40,
          "midi": 66,
          "name": "F#4",
          "ticks": 317520,
          "time": 881.7834903333332,
          "velocity": 0.7874015748031497
        },
        {
          "duration": 0.10416666666662877,
          "durationTicks": 40,
          "midi": 62,
          "name": "D4",
          "ticks": 317560,
          "time": 881.8876569999999,
          "velocity": 0.7874015748031497
        },
        {
          "duration": 0.10416666666674246,
          "durationTicks": 40,
          "midi": 64,
          "name": "E4",
          "ticks": 317600,
          "time": 881.9918236666665,
          "velocity": 0.7874015748031497
        },
        {
          "duration": 0.10416666666662877,
          "durationTicks": 40,
          "midi": 66,
          "name": "F#4",
          "ticks": 317640,
          "time": 882.0959903333332,
          "velocity": 0.7874015748031497
        },
        {
          "duration": 0.10416666666662877,
          "durationTicks": 40,
          "midi": 67,
          "name": "G4",
          "ticks": 317680,
          "time": 882.2001569999999,
          "velocity": 0.7874015748031497
        },
        {
          "duration": 0.10416666666674246,
          "durationTicks": 40,
          "midi": 69,
          "name": "A4",
          "ticks": 317720,
          "time": 882.3043236666665,
          "velocity": 0.7874015748031497
        },
        {
          "duration": 0.41666666666662877,
          "durationTicks": 160,
          "midi": 59,
          "name": "B3",
          "ticks": 317760,
          "time": 882.4084903333332,
          "velocity": 0.7874015748031497
        },
        {
          "duration": 0.10416666666662877,
          "durationTicks": 40,
          "midi": 57,
          "name": "A3",
          "ticks": 317920,
          "time": 882.8251569999999,
          "velocity": 0.7874015748031497
        },
        {
          "duration": 0.10416666666674246,
          "durationTicks": 40,
          "midi": 55,
          "name": "G3",
          "ticks": 317960,
          "time": 882.9293236666665,
          "velocity": 0.7874015748031497
        },
        {
          "duration": 0.3125,
          "durationTicks": 120,
          "midi": 64,
          "name": "E4",
          "ticks": 318000,
          "time": 883.0334903333332,
          "velocity": 0.7874015748031497
        },
        {
          "duration": 0.3125,
          "durationTicks": 120,
          "midi": 66,
          "name": "F#4",
          "ticks": 318120,
          "time": 883.3459903333332,
          "velocity": 0.7874015748031497
        },
        {
          "duration": 0.10416666666662877,
          "durationTicks": 40,
          "midi": 67,
          "name": "G4",
          "ticks": 318240,
          "time": 883.6584903333332,
          "velocity": 0.7874015748031497
        },
        {
          "duration": 0.10416666666662877,
          "durationTicks": 40,
          "midi": 62,
          "name": "D4",
          "ticks": 318280,
          "time": 883.7626569999999,
          "velocity": 0.7874015748031497
        },
        {
          "duration": 0.10416666666674246,
          "durationTicks": 40,
          "midi": 59,
          "name": "B3",
          "ticks": 318320,
          "time": 883.8668236666665,
          "velocity": 0.7874015748031497
        },
        {
          "duration": 0.10416666666662877,
          "durationTicks": 40,
          "midi": 55,
          "name": "G3",
          "ticks": 318360,
          "time": 883.9709903333332,
          "velocity": 0.7874015748031497
        },
        {
          "duration": 0.10416666666662877,
          "durationTicks": 40,
          "midi": 50,
          "name": "D3",
          "ticks": 318400,
          "time": 884.0751569999999,
          "velocity": 0.7874015748031497
        },
        {
          "duration": 0.10416666666674246,
          "durationTicks": 40,
          "midi": 47,
          "name": "B2",
          "ticks": 318440,
          "time": 884.1793236666665,
          "velocity": 0.7874015748031497
        },
        {
          "duration": 0.3125,
          "durationTicks": 120,
          "midi": 43,
          "name": "G2",
          "ticks": 318480,
          "time": 884.2834903333332,
          "velocity": 0.7874015748031497
        },
        {
          "duration": 1.0227270000000317,
          "durationTicks": 720,
          "midi": 74,
          "name": "D5",
          "ticks": 323280,
          "time": 891.6698523333332,
          "velocity": 0.7874015748031497
        },
        {
          "duration": 0.17045450000000528,
          "durationTicks": 120,
          "midi": 72,
          "name": "C5",
          "ticks": 324000,
          "time": 892.6925793333332,
          "velocity": 0.7874015748031497
        },
        {
          "duration": 0.17045450000000528,
          "durationTicks": 120,
          "midi": 71,
          "name": "B4",
          "ticks": 324120,
          "time": 892.8630338333332,
          "velocity": 0.7874015748031497
        },
        {
          "duration": 0.34090900000001056,
          "durationTicks": 240,
          "midi": 72,
          "name": "C5",
          "ticks": 324240,
          "time": 893.0334883333333,
          "velocity": 0.7874015748031497
        },
        {
          "duration": 0.34090900000001056,
          "durationTicks": 240,
          "midi": 76,
          "name": "E5",
          "ticks": 324480,
          "time": 893.3743973333333,
          "velocity": 0.7874015748031497
        },
        {
          "duration": 0.34090900000001056,
          "durationTicks": 240,
          "midi": 69,
          "name": "A4",
          "ticks": 324720,
          "time": 893.7153063333333,
          "velocity": 0.7874015748031497
        },
        {
          "duration": 0.6818179999999074,
          "durationTicks": 480,
          "midi": 74,
          "name": "D5",
          "ticks": 324960,
          "time": 894.0562153333333,
          "velocity": 0.7874015748031497
        },
        {
          "duration": 0.6818180000000211,
          "durationTicks": 480,
          "midi": 72,
          "name": "C5",
          "ticks": 325440,
          "time": 894.7380333333332,
          "velocity": 0.7874015748031497
        },
        {
          "duration": 0.17045450000000528,
          "durationTicks": 120,
          "midi": 71,
          "name": "B4",
          "ticks": 325920,
          "time": 895.4198513333332,
          "velocity": 0.7874015748031497
        },
        {
          "duration": 0.17045450000000528,
          "durationTicks": 120,
          "midi": 69,
          "name": "A4",
          "ticks": 326040,
          "time": 895.5903058333332,
          "velocity": 0.7874015748031497
        },
        {
          "duration": 1.0227270000000317,
          "durationTicks": 720,
          "midi": 71,
          "name": "B4",
          "ticks": 326160,
          "time": 895.7607603333332,
          "velocity": 0.7874015748031497
        },
        {
          "duration": 0.17045450000000528,
          "durationTicks": 120,
          "midi": 71,
          "name": "B4",
          "ticks": 326880,
          "time": 896.7834873333333,
          "velocity": 0.7874015748031497
        },
        {
          "duration": 0.17045450000000528,
          "durationTicks": 120,
          "midi": 69,
          "name": "A4",
          "ticks": 327000,
          "time": 896.9539418333333,
          "velocity": 0.7874015748031497
        },
        {
          "duration": 0.34090900000001056,
          "durationTicks": 240,
          "midi": 71,
          "name": "B4",
          "ticks": 327120,
          "time": 897.1243963333333,
          "velocity": 0.7874015748031497
        },
        {
          "duration": 0.34090900000001056,
          "durationTicks": 240,
          "midi": 76,
          "name": "E5",
          "ticks": 327360,
          "time": 897.4653053333333,
          "velocity": 0.7874015748031497
        },
        {
          "duration": 0.34090900000001056,
          "durationTicks": 240,
          "midi": 73,
          "name": "C#5",
          "ticks": 327600,
          "time": 897.8062143333333,
          "velocity": 0.7874015748031497
        },
        {
          "duration": 0.6818179999999074,
          "durationTicks": 480,
          "midi": 81,
          "name": "A5",
          "ticks": 327840,
          "time": 898.1471233333333,
          "velocity": 0.7874015748031497
        },
        {
          "duration": 0.17045450000000528,
          "durationTicks": 120,
          "midi": 79,
          "name": "G5",
          "ticks": 328320,
          "time": 898.8289413333332,
          "velocity": 0.7874015748031497
        },
        {
          "duration": 0.17045450000000528,
          "durationTicks": 120,
          "midi": 78,
          "name": "F#5",
          "ticks": 328440,
          "time": 898.9993958333332,
          "velocity": 0.7874015748031497
        },
        {
          "duration": 0.08522725000000264,
          "durationTicks": 60,
          "midi": 81,
          "name": "A5",
          "ticks": 328560,
          "time": 899.1698503333332,
          "velocity": 0.7874015748031497
        },
        {
          "duration": 0.08522725000000264,
          "durationTicks": 60,
          "midi": 79,
          "name": "G5",
          "ticks": 328620,
          "time": 899.2550775833332,
          "velocity": 0.7874015748031497
        },
        {
          "duration": 0.08522725000000264,
          "durationTicks": 60,
          "midi": 81,
          "name": "A5",
          "ticks": 328680,
          "time": 899.3403048333332,
          "velocity": 0.7874015748031497
        },
        {
          "duration": 0.08522725000000264,
          "durationTicks": 60,
          "midi": 79,
          "name": "G5",
          "ticks": 328740,
          "time": 899.4255320833332,
          "velocity": 0.7874015748031497
        },
        {
          "duration": 0.08522725000000264,
          "durationTicks": 60,
          "midi": 81,
          "name": "A5",
          "ticks": 328800,
          "time": 899.5107593333332,
          "velocity": 0.7874015748031497
        },
        {
          "duration": 0.08522725000000264,
          "durationTicks": 60,
          "midi": 79,
          "name": "G5",
          "ticks": 328860,
          "time": 899.5959865833332,
          "velocity": 0.7874015748031497
        },
        {
          "duration": 0.08522725000000264,
          "durationTicks": 60,
          "midi": 81,
          "name": "A5",
          "ticks": 328920,
          "time": 899.6812138333332,
          "velocity": 0.7874015748031497
        },
        {
          "duration": 0.08522725000000264,
          "durationTicks": 60,
          "midi": 79,
          "name": "G5",
          "ticks": 328980,
          "time": 899.7664410833332,
          "velocity": 0.7874015748031497
        },
        {
          "duration": 0.08522725000000264,
          "durationTicks": 60,
          "midi": 81,
          "name": "A5",
          "ticks": 329040,
          "time": 899.8516683333332,
          "velocity": 0.7874015748031497
        },
        {
          "duration": 0.08522725000000264,
          "durationTicks": 60,
          "midi": 79,
          "name": "G5",
          "ticks": 329100,
          "time": 899.9368955833332,
          "velocity": 0.7874015748031497
        },
        {
          "duration": 0.08522725000000264,
          "durationTicks": 60,
          "midi": 81,
          "name": "A5",
          "ticks": 329160,
          "time": 900.0221228333332,
          "velocity": 0.7874015748031497
        },
        {
          "duration": 0.08522725000000264,
          "durationTicks": 60,
          "midi": 79,
          "name": "G5",
          "ticks": 329220,
          "time": 900.1073500833332,
          "velocity": 0.7874015748031497
        },
        {
          "duration": 0.08522725000000264,
          "durationTicks": 60,
          "midi": 81,
          "name": "A5",
          "ticks": 329280,
          "time": 900.1925773333332,
          "velocity": 0.7874015748031497
        },
        {
          "duration": 0.08522725000000264,
          "durationTicks": 60,
          "midi": 79,
          "name": "G5",
          "ticks": 329340,
          "time": 900.2778045833332,
          "velocity": 0.7874015748031497
        },
        {
          "duration": 0.08522725000000264,
          "durationTicks": 60,
          "midi": 81,
          "name": "A5",
          "ticks": 329400,
          "time": 900.3630318333333,
          "velocity": 0.7874015748031497
        },
        {
          "duration": 0.08522725000000264,
          "durationTicks": 60,
          "midi": 79,
          "name": "G5",
          "ticks": 329460,
          "time": 900.4482590833333,
          "velocity": 0.7874015748031497
        },
        {
          "duration": 0.08522725000000264,
          "durationTicks": 60,
          "midi": 81,
          "name": "A5",
          "ticks": 329520,
          "time": 900.5334863333333,
          "velocity": 0.7874015748031497
        },
        {
          "duration": 0.08522725000000264,
          "durationTicks": 60,
          "midi": 79,
          "name": "G5",
          "ticks": 329580,
          "time": 900.6187135833333,
          "velocity": 0.7874015748031497
        },
        {
          "duration": 0.08522725000000264,
          "durationTicks": 60,
          "midi": 81,
          "name": "A5",
          "ticks": 329640,
          "time": 900.7039408333333,
          "velocity": 0.7874015748031497
        },
        {
          "duration": 0.08522725000000264,
          "durationTicks": 60,
          "midi": 79,
          "name": "G5",
          "ticks": 329700,
          "time": 900.7891680833333,
          "velocity": 0.7874015748031497
        },
        {
          "duration": 0.08522725000000264,
          "durationTicks": 60,
          "midi": 81,
          "name": "A5",
          "ticks": 329760,
          "time": 900.8743953333333,
          "velocity": 0.7874015748031497
        },
        {
          "duration": 0.08522725000000264,
          "durationTicks": 60,
          "midi": 79,
          "name": "G5",
          "ticks": 329820,
          "time": 900.9596225833333,
          "velocity": 0.7874015748031497
        },
        {
          "duration": 0.08522725000000264,
          "durationTicks": 60,
          "midi": 81,
          "name": "A5",
          "ticks": 329880,
          "time": 901.0448498333333,
          "velocity": 0.7874015748031497
        },
        {
          "duration": 0.08522725000000264,
          "durationTicks": 60,
          "midi": 79,
          "name": "G5",
          "ticks": 329940,
          "time": 901.1300770833333,
          "velocity": 0.7874015748031497
        },
        {
          "duration": 0.08522725000000264,
          "durationTicks": 60,
          "midi": 81,
          "name": "A5",
          "ticks": 330000,
          "time": 901.2153043333333,
          "velocity": 0.7874015748031497
        },
        {
          "duration": 0.08522725000000264,
          "durationTicks": 60,
          "midi": 79,
          "name": "G5",
          "ticks": 330060,
          "time": 901.3005315833333,
          "velocity": 0.7874015748031497
        },
        {
          "duration": 0.08522725000000264,
          "durationTicks": 60,
          "midi": 81,
          "name": "A5",
          "ticks": 330120,
          "time": 901.3857588333333,
          "velocity": 0.7874015748031497
        },
        {
          "duration": 0.08522725000000264,
          "durationTicks": 60,
          "midi": 79,
          "name": "G5",
          "ticks": 330180,
          "time": 901.4709860833333,
          "velocity": 0.7874015748031497
        },
        {
          "duration": 0.08522725000000264,
          "durationTicks": 60,
          "midi": 81,
          "name": "A5",
          "ticks": 330240,
          "time": 901.5562133333333,
          "velocity": 0.7874015748031497
        },
        {
          "duration": 0.08522725000000264,
          "durationTicks": 60,
          "midi": 79,
          "name": "G5",
          "ticks": 330300,
          "time": 901.6414405833333,
          "velocity": 0.7874015748031497
        },
        {
          "duration": 0.08522725000000264,
          "durationTicks": 60,
          "midi": 81,
          "name": "A5",
          "ticks": 330360,
          "time": 901.7266678333333,
          "velocity": 0.7874015748031497
        },
        {
          "duration": 0.08522725000000264,
          "durationTicks": 60,
          "midi": 79,
          "name": "G5",
          "ticks": 330420,
          "time": 901.8118950833333,
          "velocity": 0.7874015748031497
        },
        {
          "duration": 0.08522724999988895,
          "durationTicks": 60,
          "midi": 81,
          "name": "A5",
          "ticks": 330480,
          "time": 901.8971223333333,
          "velocity": 0.7874015748031497
        },
        {
          "duration": 0.08522725000000264,
          "durationTicks": 60,
          "midi": 79,
          "name": "G5",
          "ticks": 330540,
          "time": 901.9823495833332,
          "velocity": 0.7874015748031497
        },
        {
          "duration": 0.08522725000000264,
          "durationTicks": 60,
          "midi": 81,
          "name": "A5",
          "ticks": 330600,
          "time": 902.0675768333332,
          "velocity": 0.7874015748031497
        },
        {
          "duration": 0.08522725000000264,
          "durationTicks": 60,
          "midi": 79,
          "name": "G5",
          "ticks": 330660,
          "time": 902.1528040833332,
          "velocity": 0.7874015748031497
        },
        {
          "duration": 0.17045450000000528,
          "durationTicks": 120,
          "midi": 78,
          "name": "F#5",
          "ticks": 330720,
          "time": 902.2380313333332,
          "velocity": 0.7874015748031497
        },
        {
          "duration": 0.17045450000000528,
          "durationTicks": 120,
          "midi": 76,
          "name": "E5",
          "ticks": 330840,
          "time": 902.4084858333332,
          "velocity": 0.7874015748031497
        },
        {
          "duration": 0.34090900000001056,
          "durationTicks": 240,
          "midi": 78,
          "name": "F#5",
          "ticks": 330960,
          "time": 902.5789403333332,
          "velocity": 0.7874015748031497
        },
        {
          "duration": 0.34090900000001056,
          "durationTicks": 240,
          "midi": 81,
          "name": "A5",
          "ticks": 331200,
          "time": 902.9198493333332,
          "velocity": 0.7874015748031497
        },
        {
          "duration": 0.6818180000000211,
          "durationTicks": 480,
          "midi": 74,
          "name": "D5",
          "ticks": 331440,
          "time": 903.2607583333332,
          "velocity": 0.7874015748031497
        },
        {
          "duration": 1.0227270000000317,
          "durationTicks": 720,
          "midi": 79,
          "name": "G5",
          "ticks": 331920,
          "time": 903.9425763333332,
          "velocity": 0.7874015748031497
        },
        {
          "duration": 0.34090900000001056,
          "durationTicks": 240,
          "midi": 78,
          "name": "F#5",
          "ticks": 332640,
          "time": 904.9653033333333,
          "velocity": 0.7874015748031497
        },
        {
          "duration": 0.6818179999999074,
          "durationTicks": 480,
          "midi": 76,
          "name": "E5",
          "ticks": 332880,
          "time": 905.3062123333333,
          "velocity": 0.7874015748031497
        },
        {
          "duration": 1.3636360000000423,
          "durationTicks": 960,
          "midi": 74,
          "name": "D5",
          "ticks": 333360,
          "time": 905.9880303333332,
          "velocity": 0.7874015748031497
        },
        {
          "duration": 1.0227270000000317,
          "durationTicks": 720,
          "midi": 81,
          "name": "A5",
          "ticks": 334800,
          "time": 908.0334843333333,
          "velocity": 0.7874015748031497
        },
        {
          "duration": 0.17045450000000528,
          "durationTicks": 120,
          "midi": 79,
          "name": "G5",
          "ticks": 335520,
          "time": 909.0562113333333,
          "velocity": 0.7874015748031497
        },
        {
          "duration": 0.1704544999998916,
          "durationTicks": 120,
          "midi": 78,
          "name": "F#5",
          "ticks": 335640,
          "time": 909.2266658333333,
          "velocity": 0.7874015748031497
        },
        {
          "duration": 0.34090900000001056,
          "durationTicks": 240,
          "midi": 79,
          "name": "G5",
          "ticks": 335760,
          "time": 909.3971203333332,
          "velocity": 0.7874015748031497
        },
        {
          "duration": 0.34090900000001056,
          "durationTicks": 240,
          "midi": 83,
          "name": "B5",
          "ticks": 336000,
          "time": 909.7380293333332,
          "velocity": 0.7874015748031497
        },
        {
          "duration": 1.7045450000000528,
          "durationTicks": 1200,
          "midi": 76,
          "name": "E5",
          "ticks": 336240,
          "time": 910.0789383333332,
          "velocity": 0.7874015748031497
        },
        {
          "duration": 0.17045450000000528,
          "durationTicks": 120,
          "midi": 75,
          "name": "D#5",
          "ticks": 337440,
          "time": 911.7834833333333,
          "velocity": 0.7874015748031497
        },
        {
          "duration": 0.17045450000000528,
          "durationTicks": 120,
          "midi": 73,
          "name": "C#5",
          "ticks": 337560,
          "time": 911.9539378333333,
          "velocity": 0.7874015748031497
        },
        {
          "duration": 0.34090900000001056,
          "durationTicks": 240,
          "midi": 75,
          "name": "D#5",
          "ticks": 337680,
          "time": 912.1243923333333,
          "velocity": 0.7874015748031497
        },
        {
          "duration": 0.34090900000001056,
          "durationTicks": 240,
          "midi": 78,
          "name": "F#5",
          "ticks": 337920,
          "time": 912.4653013333333,
          "velocity": 0.7874015748031497
        },
        {
          "duration": 0.3409089999998969,
          "durationTicks": 240,
          "midi": 83,
          "name": "B5",
          "ticks": 338160,
          "time": 912.8062103333333,
          "velocity": 0.7874015748031497
        },
        {
          "duration": 0.34090900000001056,
          "durationTicks": 240,
          "midi": 71,
          "name": "B4",
          "ticks": 338400,
          "time": 913.1471193333332,
          "velocity": 0.7874015748031497
        },
        {
          "duration": 1.0227270000000317,
          "durationTicks": 720,
          "midi": 83,
          "name": "B5",
          "ticks": 338640,
          "time": 913.4880283333332,
          "velocity": 0.7874015748031497
        },
        {
          "duration": 0.17045450000000528,
          "durationTicks": 120,
          "midi": 81,
          "name": "A5",
          "ticks": 339360,
          "time": 914.5107553333332,
          "velocity": 0.7874015748031497
        },
        {
          "duration": 0.17045450000000528,
          "durationTicks": 120,
          "midi": 79,
          "name": "G5",
          "ticks": 339480,
          "time": 914.6812098333332,
          "velocity": 0.7874015748031497
        },
        {
          "duration": 0.34090900000001056,
          "durationTicks": 240,
          "midi": 81,
          "name": "A5",
          "ticks": 339600,
          "time": 914.8516643333332,
          "velocity": 0.7874015748031497
        },
        {
          "duration": 0.34090900000001056,
          "durationTicks": 240,
          "midi": 84,
          "name": "C6",
          "ticks": 339840,
          "time": 915.1925733333333,
          "velocity": 0.7874015748031497
        },
        {
          "duration": 0.34090900000001056,
          "durationTicks": 240,
          "midi": 78,
          "name": "F#5",
          "ticks": 340080,
          "time": 915.5334823333333,
          "velocity": 0.7874015748031497
        },
        {
          "duration": 0.34090900000001056,
          "durationTicks": 240,
          "midi": 79,
          "name": "G5",
          "ticks": 340320,
          "time": 915.8743913333333,
          "velocity": 0.7874015748031497
        },
        {
          "duration": 1.022726999999918,
          "durationTicks": 720,
          "midi": 81,
          "name": "A5",
          "ticks": 340560,
          "time": 916.2153003333333,
          "velocity": 0.7874015748031497
        },
        {
          "duration": 0.17045450000000528,
          "durationTicks": 120,
          "midi": 79,
          "name": "G5",
          "ticks": 341280,
          "time": 917.2380273333332,
          "velocity": 0.7874015748031497
        },
        {
          "duration": 0.17045450000000528,
          "durationTicks": 120,
          "midi": 78,
          "name": "F#5",
          "ticks": 341400,
          "time": 917.4084818333332,
          "velocity": 0.7874015748031497
        },
        {
          "duration": 0.34090900000001056,
          "durationTicks": 240,
          "midi": 79,
          "name": "G5",
          "ticks": 341520,
          "time": 917.5789363333332,
          "velocity": 0.7874015748031497
        },
        {
          "duration": 0.34090900000001056,
          "durationTicks": 240,
          "midi": 83,
          "name": "B5",
          "ticks": 341760,
          "time": 917.9198453333332,
          "velocity": 0.7874015748031497
        },
        {
          "duration": 1.3636360000000423,
          "durationTicks": 960,
          "midi": 76,
          "name": "E5",
          "ticks": 342000,
          "time": 918.2607543333332,
          "velocity": 0.7874015748031497
        },
        {
          "duration": 1.3636359999999286,
          "durationTicks": 960,
          "midi": 74,
          "name": "D5",
          "ticks": 342960,
          "time": 919.6243903333333,
          "velocity": 0.7874015748031497
        },
        {
          "duration": 1.3636360000000423,
          "durationTicks": 960,
          "midi": 72,
          "name": "C5",
          "ticks": 343920,
          "time": 920.9880263333332,
          "velocity": 0.7874015748031497
        },
        {
          "duration": 1.022726999999918,
          "durationTicks": 720,
          "midi": 74,
          "name": "D5",
          "ticks": 345360,
          "time": 923.0334803333333,
          "velocity": 0.7874015748031497
        },
        {
          "duration": 0.17045450000000528,
          "durationTicks": 120,
          "midi": 72,
          "name": "C5",
          "ticks": 346080,
          "time": 924.0562073333332,
          "velocity": 0.7874015748031497
        },
        {
          "duration": 0.17045450000000528,
          "durationTicks": 120,
          "midi": 71,
          "name": "B4",
          "ticks": 346200,
          "time": 924.2266618333332,
          "velocity": 0.7874015748031497
        },
        {
          "duration": 0.34090900000001056,
          "durationTicks": 240,
          "midi": 72,
          "name": "C5",
          "ticks": 346320,
          "time": 924.3971163333332,
          "velocity": 0.7874015748031497
        },
        {
          "duration": 0.34090900000001056,
          "durationTicks": 240,
          "midi": 76,
          "name": "E5",
          "ticks": 346560,
          "time": 924.7380253333332,
          "velocity": 0.7874015748031497
        },
        {
          "duration": 0.8522725000000264,
          "durationTicks": 600,
          "midi": 69,
          "name": "A4",
          "ticks": 346800,
          "time": 925.0789343333332,
          "velocity": 0.7874015748031497
        },
        {
          "duration": 0.17045450000000528,
          "durationTicks": 120,
          "midi": 76,
          "name": "E5",
          "ticks": 347400,
          "time": 925.9312068333332,
          "velocity": 0.7874015748031497
        },
        {
          "duration": 0.17045450000000528,
          "durationTicks": 120,
          "midi": 74,
          "name": "D5",
          "ticks": 347520,
          "time": 926.1016613333333,
          "velocity": 0.7874015748031497
        },
        {
          "duration": 0.17045450000000528,
          "durationTicks": 120,
          "midi": 76,
          "name": "E5",
          "ticks": 347640,
          "time": 926.2721158333333,
          "velocity": 0.7874015748031497
        },
        {
          "duration": 0.34090900000001056,
          "durationTicks": 240,
          "midi": 69,
          "name": "A4",
          "ticks": 347760,
          "time": 926.4425703333333,
          "velocity": 0.7874015748031497
        },
        {
          "duration": 0.6818179999999074,
          "durationTicks": 480,
          "midi": 74,
          "name": "D5",
          "ticks": 348000,
          "time": 926.7834793333333,
          "velocity": 0.7874015748031497
        },
        {
          "duration": 0.6818180000000211,
          "durationTicks": 480,
          "midi": 72,
          "name": "C5",
          "ticks": 348480,
          "time": 927.4652973333332,
          "velocity": 0.7874015748031497
        },
        {
          "duration": 0.17045450000000528,
          "durationTicks": 120,
          "midi": 71,
          "name": "B4",
          "ticks": 348960,
          "time": 928.1471153333332,
          "velocity": 0.7874015748031497
        },
        {
          "duration": 0.17045450000000528,
          "durationTicks": 120,
          "midi": 69,
          "name": "A4",
          "ticks": 349080,
          "time": 928.3175698333332,
          "velocity": 0.7874015748031497
        },
        {
          "duration": 0.6818180000000211,
          "durationTicks": 480,
          "midi": 71,
          "name": "B4",
          "ticks": 349200,
          "time": 928.4880243333332,
          "velocity": 0.7874015748031497
        },
        {
          "duration": 0.15625,
          "durationTicks": 60,
          "midi": 95,
          "name": "B6",
          "ticks": 356460,
          "time": 946.8260923333332,
          "velocity": 0.7874015748031497
        },
        {
          "duration": 0.3125,
          "durationTicks": 120,
          "midi": 95,
          "name": "B6",
          "ticks": 356520,
          "time": 946.9823423333332,
          "velocity": 0.7874015748031497
        },
        {
          "duration": 0.15625,
          "durationTicks": 60,
          "midi": 93,
          "name": "A6",
          "ticks": 357180,
          "time": 948.7010923333332,
          "velocity": 0.7874015748031497
        },
        {
          "duration": 0.3125,
          "durationTicks": 120,
          "midi": 93,
          "name": "A6",
          "ticks": 357240,
          "time": 948.8573423333332,
          "velocity": 0.7874015748031497
        },
        {
          "duration": 0.15625,
          "durationTicks": 60,
          "midi": 91,
          "name": "G6",
          "ticks": 357900,
          "time": 950.5760923333332,
          "velocity": 0.7874015748031497
        },
        {
          "duration": 0.3125,
          "durationTicks": 120,
          "midi": 91,
          "name": "G6",
          "ticks": 357960,
          "time": 950.7323423333332,
          "velocity": 0.7874015748031497
        },
        {
          "duration": 0.15625,
          "durationTicks": 60,
          "midi": 91,
          "name": "G6",
          "ticks": 358620,
          "time": 952.4510923333332,
          "velocity": 0.7874015748031497
        },
        {
          "duration": 0.3125,
          "durationTicks": 120,
          "midi": 91,
          "name": "G6",
          "ticks": 358680,
          "time": 952.6073423333332,
          "velocity": 0.7874015748031497
        },
        {
          "duration": 0.15625,
          "durationTicks": 60,
          "midi": 64,
          "name": "E4",
          "ticks": 367980,
          "time": 976.8260923333332,
          "velocity": 0.7874015748031497
        },
        {
          "duration": 0.15625,
          "durationTicks": 60,
          "midi": 60,
          "name": "C4",
          "ticks": 367980,
          "time": 976.8260923333332,
          "velocity": 0.7874015748031497
        },
        {
          "duration": 0.15625,
          "durationTicks": 60,
          "midi": 65,
          "name": "F4",
          "ticks": 368040,
          "time": 976.9823423333332,
          "velocity": 0.7874015748031497
        },
        {
          "duration": 0.15625,
          "durationTicks": 60,
          "midi": 62,
          "name": "D4",
          "ticks": 368040,
          "time": 976.9823423333332,
          "velocity": 0.7874015748031497
        },
        {
          "duration": 0.15625,
          "durationTicks": 60,
          "midi": 67,
          "name": "G4",
          "ticks": 368100,
          "time": 977.1385923333332,
          "velocity": 0.7874015748031497
        },
        {
          "duration": 0.15625,
          "durationTicks": 60,
          "midi": 64,
          "name": "E4",
          "ticks": 368100,
          "time": 977.1385923333332,
          "velocity": 0.7874015748031497
        },
        {
          "duration": 0.15625,
          "durationTicks": 60,
          "midi": 69,
          "name": "A4",
          "ticks": 368160,
          "time": 977.2948423333332,
          "velocity": 0.7874015748031497
        },
        {
          "duration": 0.15625,
          "durationTicks": 60,
          "midi": 65,
          "name": "F4",
          "ticks": 368160,
          "time": 977.2948423333332,
          "velocity": 0.7874015748031497
        },
        {
          "duration": 0.15625,
          "durationTicks": 60,
          "midi": 71,
          "name": "B4",
          "ticks": 368220,
          "time": 977.4510923333332,
          "velocity": 0.7874015748031497
        },
        {
          "duration": 0.15625,
          "durationTicks": 60,
          "midi": 67,
          "name": "G4",
          "ticks": 368220,
          "time": 977.4510923333332,
          "velocity": 0.7874015748031497
        },
        {
          "duration": 0.15625,
          "durationTicks": 60,
          "midi": 72,
          "name": "C5",
          "ticks": 368280,
          "time": 977.6073423333332,
          "velocity": 0.7874015748031497
        },
        {
          "duration": 0.15625,
          "durationTicks": 60,
          "midi": 69,
          "name": "A4",
          "ticks": 368280,
          "time": 977.6073423333332,
          "velocity": 0.7874015748031497
        },
        {
          "duration": 0.15625,
          "durationTicks": 60,
          "midi": 74,
          "name": "D5",
          "ticks": 368340,
          "time": 977.7635923333332,
          "velocity": 0.7874015748031497
        },
        {
          "duration": 0.15625,
          "durationTicks": 60,
          "midi": 71,
          "name": "B4",
          "ticks": 368340,
          "time": 977.7635923333332,
          "velocity": 0.7874015748031497
        },
        {
          "duration": 0.625,
          "durationTicks": 240,
          "midi": 76,
          "name": "E5",
          "ticks": 368400,
          "time": 977.9198423333332,
          "velocity": 0.7874015748031497
        },
        {
          "duration": 0.625,
          "durationTicks": 240,
          "midi": 72,
          "name": "C5",
          "ticks": 368400,
          "time": 977.9198423333332,
          "velocity": 0.7874015748031497
        },
        {
          "duration": 0.15625,
          "durationTicks": 60,
          "midi": 71,
          "name": "B4",
          "ticks": 368700,
          "time": 978.7010923333332,
          "velocity": 0.7874015748031497
        },
        {
          "duration": 0.15625,
          "durationTicks": 60,
          "midi": 74,
          "name": "D5",
          "ticks": 368700,
          "time": 978.7010923333332,
          "velocity": 0.7874015748031497
        },
        {
          "duration": 0.15625,
          "durationTicks": 60,
          "midi": 72,
          "name": "C5",
          "ticks": 368760,
          "time": 978.8573423333332,
          "velocity": 0.7874015748031497
        },
        {
          "duration": 0.15625,
          "durationTicks": 60,
          "midi": 76,
          "name": "E5",
          "ticks": 368760,
          "time": 978.8573423333332,
          "velocity": 0.7874015748031497
        },
        {
          "duration": 0.15625,
          "durationTicks": 60,
          "midi": 74,
          "name": "D5",
          "ticks": 368820,
          "time": 979.0135923333332,
          "velocity": 0.7874015748031497
        },
        {
          "duration": 0.15625,
          "durationTicks": 60,
          "midi": 78,
          "name": "F#5",
          "ticks": 368820,
          "time": 979.0135923333332,
          "velocity": 0.7874015748031497
        },
        {
          "duration": 0.15625,
          "durationTicks": 60,
          "midi": 76,
          "name": "E5",
          "ticks": 368880,
          "time": 979.1698423333332,
          "velocity": 0.7874015748031497
        },
        {
          "duration": 0.15625,
          "durationTicks": 60,
          "midi": 79,
          "name": "G5",
          "ticks": 368880,
          "time": 979.1698423333332,
          "velocity": 0.7874015748031497
        },
        {
          "duration": 0.15625,
          "durationTicks": 60,
          "midi": 78,
          "name": "F#5",
          "ticks": 368940,
          "time": 979.3260923333332,
          "velocity": 0.7874015748031497
        },
        {
          "duration": 0.15625,
          "durationTicks": 60,
          "midi": 81,
          "name": "A5",
          "ticks": 368940,
          "time": 979.3260923333332,
          "velocity": 0.7874015748031497
        },
        {
          "duration": 0.15625,
          "durationTicks": 60,
          "midi": 79,
          "name": "G5",
          "ticks": 369000,
          "time": 979.4823423333332,
          "velocity": 0.7874015748031497
        },
        {
          "duration": 0.15625,
          "durationTicks": 60,
          "midi": 83,
          "name": "B5",
          "ticks": 369000,
          "time": 979.4823423333332,
          "velocity": 0.7874015748031497
        },
        {
          "duration": 0.15625,
          "durationTicks": 60,
          "midi": 81,
          "name": "A5",
          "ticks": 369060,
          "time": 979.6385923333332,
          "velocity": 0.7874015748031497
        },
        {
          "duration": 0.15625,
          "durationTicks": 60,
          "midi": 84,
          "name": "C6",
          "ticks": 369060,
          "time": 979.6385923333332,
          "velocity": 0.7874015748031497
        },
        {
          "duration": 0.3125,
          "durationTicks": 120,
          "midi": 83,
          "name": "B5",
          "ticks": 369120,
          "time": 979.7948423333332,
          "velocity": 0.7874015748031497
        },
        {
          "duration": 0.3125,
          "durationTicks": 120,
          "midi": 86,
          "name": "D6",
          "ticks": 369120,
          "time": 979.7948423333332,
          "velocity": 0.7874015748031497
        },
        {
          "duration": 0.15625,
          "durationTicks": 60,
          "midi": 59,
          "name": "B3",
          "ticks": 369420,
          "time": 980.5760923333332,
          "velocity": 0.7874015748031497
        },
        {
          "duration": 0.15625,
          "durationTicks": 60,
          "midi": 62,
          "name": "D4",
          "ticks": 369420,
          "time": 980.5760923333332,
          "velocity": 0.7874015748031497
        },
        {
          "duration": 0.15625,
          "durationTicks": 60,
          "midi": 57,
          "name": "A3",
          "ticks": 369480,
          "time": 980.7323423333332,
          "velocity": 0.7874015748031497
        },
        {
          "duration": 0.15625,
          "durationTicks": 60,
          "midi": 60,
          "name": "C4",
          "ticks": 369480,
          "time": 980.7323423333332,
          "velocity": 0.7874015748031497
        },
        {
          "duration": 0.15625,
          "durationTicks": 60,
          "midi": 59,
          "name": "B3",
          "ticks": 369660,
          "time": 981.2010923333332,
          "velocity": 0.7874015748031497
        },
        {
          "duration": 0.15625,
          "durationTicks": 60,
          "midi": 62,
          "name": "D4",
          "ticks": 369660,
          "time": 981.2010923333332,
          "velocity": 0.7874015748031497
        },
        {
          "duration": 0.15625,
          "durationTicks": 60,
          "midi": 57,
          "name": "A3",
          "ticks": 369720,
          "time": 981.3573423333332,
          "velocity": 0.7874015748031497
        },
        {
          "duration": 0.15625,
          "durationTicks": 60,
          "midi": 60,
          "name": "C4",
          "ticks": 369720,
          "time": 981.3573423333332,
          "velocity": 0.7874015748031497
        },
        {
          "duration": 0.15625,
          "durationTicks": 60,
          "midi": 55,
          "name": "G3",
          "ticks": 369900,
          "time": 981.8260923333332,
          "velocity": 0.7874015748031497
        },
        {
          "duration": 0.15625,
          "durationTicks": 60,
          "midi": 59,
          "name": "B3",
          "ticks": 369900,
          "time": 981.8260923333332,
          "velocity": 0.7874015748031497
        },
        {
          "duration": 0.15625,
          "durationTicks": 60,
          "midi": 54,
          "name": "F#3",
          "ticks": 369960,
          "time": 981.9823423333332,
          "velocity": 0.7874015748031497
        },
        {
          "duration": 0.15625,
          "durationTicks": 60,
          "midi": 57,
          "name": "A3",
          "ticks": 369960,
          "time": 981.9823423333332,
          "velocity": 0.7874015748031497
        },
        {
          "duration": 0.15625,
          "durationTicks": 60,
          "midi": 52,
          "name": "E3",
          "ticks": 370140,
          "time": 982.4510923333332,
          "velocity": 0.7874015748031497
        },
        {
          "duration": 0.15625,
          "durationTicks": 60,
          "midi": 55,
          "name": "G3",
          "ticks": 370140,
          "time": 982.4510923333332,
          "velocity": 0.7874015748031497
        },
        {
          "duration": 0.15625,
          "durationTicks": 60,
          "midi": 50,
          "name": "D3",
          "ticks": 370200,
          "time": 982.6073423333332,
          "velocity": 0.7874015748031497
        },
        {
          "duration": 0.15625,
          "durationTicks": 60,
          "midi": 54,
          "name": "F#3",
          "ticks": 370200,
          "time": 982.6073423333332,
          "velocity": 0.7874015748031497
        },
        {
          "duration": 0.15625,
          "durationTicks": 60,
          "midi": 52,
          "name": "E3",
          "ticks": 370380,
          "time": 983.0760923333332,
          "velocity": 0.7874015748031497
        },
        {
          "duration": 0.15625,
          "durationTicks": 60,
          "midi": 55,
          "name": "G3",
          "ticks": 370380,
          "time": 983.0760923333332,
          "velocity": 0.7874015748031497
        },
        {
          "duration": 0.15625,
          "durationTicks": 60,
          "midi": 50,
          "name": "D3",
          "ticks": 370440,
          "time": 983.2323423333332,
          "velocity": 0.7874015748031497
        },
        {
          "duration": 0.15625,
          "durationTicks": 60,
          "midi": 54,
          "name": "F#3",
          "ticks": 370440,
          "time": 983.2323423333332,
          "velocity": 0.7874015748031497
        },
        {
          "duration": 0.15625,
          "durationTicks": 60,
          "midi": 48,
          "name": "C3",
          "ticks": 370620,
          "time": 983.7010923333332,
          "velocity": 0.7874015748031497
        },
        {
          "duration": 0.15625,
          "durationTicks": 60,
          "midi": 52,
          "name": "E3",
          "ticks": 370620,
          "time": 983.7010923333332,
          "velocity": 0.7874015748031497
        },
        {
          "duration": 0.15625,
          "durationTicks": 60,
          "midi": 47,
          "name": "B2",
          "ticks": 370680,
          "time": 983.8573423333332,
          "velocity": 0.7874015748031497
        },
        {
          "duration": 0.15625,
          "durationTicks": 60,
          "midi": 50,
          "name": "D3",
          "ticks": 370680,
          "time": 983.8573423333332,
          "velocity": 0.7874015748031497
        },
        {
          "duration": 0.15625,
          "durationTicks": 60,
          "midi": 45,
          "name": "A2",
          "ticks": 370860,
          "time": 984.3260923333332,
          "velocity": 0.7874015748031497
        },
        {
          "duration": 0.15625,
          "durationTicks": 60,
          "midi": 48,
          "name": "C3",
          "ticks": 370860,
          "time": 984.3260923333332,
          "velocity": 0.7874015748031497
        },
        {
          "duration": 0.15625,
          "durationTicks": 60,
          "midi": 42,
          "name": "F#2",
          "ticks": 370920,
          "time": 984.4823423333332,
          "velocity": 0.7874015748031497
        },
        {
          "duration": 0.15625,
          "durationTicks": 60,
          "midi": 45,
          "name": "A2",
          "ticks": 370920,
          "time": 984.4823423333332,
          "velocity": 0.7874015748031497
        },
        {
          "duration": 0.15625,
          "durationTicks": 60,
          "midi": 45,
          "name": "A2",
          "ticks": 371100,
          "time": 984.9510923333332,
          "velocity": 0.7874015748031497
        },
        {
          "duration": 0.15625,
          "durationTicks": 60,
          "midi": 48,
          "name": "C3",
          "ticks": 371100,
          "time": 984.9510923333332,
          "velocity": 0.7874015748031497
        },
        {
          "duration": 0.15625,
          "durationTicks": 60,
          "midi": 47,
          "name": "B2",
          "ticks": 371160,
          "time": 985.1073423333332,
          "velocity": 0.7874015748031497
        },
        {
          "duration": 0.15625,
          "durationTicks": 60,
          "midi": 50,
          "name": "D3",
          "ticks": 371160,
          "time": 985.1073423333332,
          "velocity": 0.7874015748031497
        },
        {
          "duration": 0.15625,
          "durationTicks": 60,
          "midi": 52,
          "name": "E3",
          "ticks": 371340,
          "time": 985.5760923333332,
          "velocity": 0.7874015748031497
        },
        {
          "duration": 0.15625,
          "durationTicks": 60,
          "midi": 55,
          "name": "G3",
          "ticks": 371340,
          "time": 985.5760923333332,
          "velocity": 0.7874015748031497
        },
        {
          "duration": 0.15625,
          "durationTicks": 60,
          "midi": 53,
          "name": "F3",
          "ticks": 371400,
          "time": 985.7323423333332,
          "velocity": 0.7874015748031497
        },
        {
          "duration": 0.15625,
          "durationTicks": 60,
          "midi": 57,
          "name": "A3",
          "ticks": 371400,
          "time": 985.7323423333332,
          "velocity": 0.7874015748031497
        },
        {
          "duration": 0.15625,
          "durationTicks": 60,
          "midi": 53,
          "name": "F3",
          "ticks": 371580,
          "time": 986.2010923333332,
          "velocity": 0.7874015748031497
        },
        {
          "duration": 0.15625,
          "durationTicks": 60,
          "midi": 62,
          "name": "D4",
          "ticks": 371580,
          "time": 986.2010923333332,
          "velocity": 0.7874015748031497
        },
        {
          "duration": 0.15625,
          "durationTicks": 60,
          "midi": 52,
          "name": "E3",
          "ticks": 371640,
          "time": 986.3573423333332,
          "velocity": 0.7874015748031497
        },
        {
          "duration": 0.15625,
          "durationTicks": 60,
          "midi": 60,
          "name": "C4",
          "ticks": 371640,
          "time": 986.3573423333332,
          "velocity": 0.7874015748031497
        },
        {
          "duration": 0.15625,
          "durationTicks": 60,
          "midi": 53,
          "name": "F3",
          "ticks": 371820,
          "time": 986.8260923333332,
          "velocity": 0.7874015748031497
        },
        {
          "duration": 0.15625,
          "durationTicks": 60,
          "midi": 62,
          "name": "D4",
          "ticks": 371820,
          "time": 986.8260923333332,
          "velocity": 0.7874015748031497
        },
        {
          "duration": 0.15625,
          "durationTicks": 60,
          "midi": 55,
          "name": "G3",
          "ticks": 371880,
          "time": 986.9823423333332,
          "velocity": 0.7874015748031497
        },
        {
          "duration": 0.15625,
          "durationTicks": 60,
          "midi": 64,
          "name": "E4",
          "ticks": 371880,
          "time": 986.9823423333332,
          "velocity": 0.7874015748031497
        },
        {
          "duration": 0.15625,
          "durationTicks": 60,
          "midi": 60,
          "name": "C4",
          "ticks": 372060,
          "time": 987.4510923333332,
          "velocity": 0.7874015748031497
        },
        {
          "duration": 0.15625,
          "durationTicks": 60,
          "midi": 69,
          "name": "A4",
          "ticks": 372060,
          "time": 987.4510923333332,
          "velocity": 0.7874015748031497
        },
        {
          "duration": 0.15625,
          "durationTicks": 60,
          "midi": 62,
          "name": "D4",
          "ticks": 372120,
          "time": 987.6073423333332,
          "velocity": 0.7874015748031497
        },
        {
          "duration": 0.15625,
          "durationTicks": 60,
          "midi": 71,
          "name": "B4",
          "ticks": 372120,
          "time": 987.6073423333332,
          "velocity": 0.7874015748031497
        },
        {
          "duration": 0.15625,
          "durationTicks": 60,
          "midi": 73,
          "name": "C#5",
          "ticks": 372300,
          "time": 988.0760923333332,
          "velocity": 0.7874015748031497
        },
        {
          "duration": 0.15625,
          "durationTicks": 60,
          "midi": 69,
          "name": "A4",
          "ticks": 372300,
          "time": 988.0760923333332,
          "velocity": 0.7874015748031497
        },
        {
          "duration": 0.15625,
          "durationTicks": 60,
          "midi": 74,
          "name": "D5",
          "ticks": 372360,
          "time": 988.2323423333332,
          "velocity": 0.7874015748031497
        },
        {
          "duration": 0.15625,
          "durationTicks": 60,
          "midi": 71,
          "name": "B4",
          "ticks": 372360,
          "time": 988.2323423333332,
          "velocity": 0.7874015748031497
        },
        {
          "duration": 0.15625,
          "durationTicks": 60,
          "midi": 76,
          "name": "E5",
          "ticks": 372420,
          "time": 988.3885923333332,
          "velocity": 0.7874015748031497
        },
        {
          "duration": 0.15625,
          "durationTicks": 60,
          "midi": 73,
          "name": "C#5",
          "ticks": 372420,
          "time": 988.3885923333332,
          "velocity": 0.7874015748031497
        },
        {
          "duration": 0.15625,
          "durationTicks": 60,
          "midi": 78,
          "name": "F#5",
          "ticks": 372480,
          "time": 988.5448423333332,
          "velocity": 0.7874015748031497
        },
        {
          "duration": 0.15625,
          "durationTicks": 60,
          "midi": 74,
          "name": "D5",
          "ticks": 372480,
          "time": 988.5448423333332,
          "velocity": 0.7874015748031497
        },
        {
          "duration": 0.15625,
          "durationTicks": 60,
          "midi": 79,
          "name": "G5",
          "ticks": 372540,
          "time": 988.7010923333332,
          "velocity": 0.7874015748031497
        },
        {
          "duration": 0.15625,
          "durationTicks": 60,
          "midi": 76,
          "name": "E5",
          "ticks": 372540,
          "time": 988.7010923333332,
          "velocity": 0.7874015748031497
        },
        {
          "duration": 0.15625,
          "durationTicks": 60,
          "midi": 81,
          "name": "A5",
          "ticks": 372600,
          "time": 988.8573423333332,
          "velocity": 0.7874015748031497
        },
        {
          "duration": 0.15625,
          "durationTicks": 60,
          "midi": 78,
          "name": "F#5",
          "ticks": 372600,
          "time": 988.8573423333332,
          "velocity": 0.7874015748031497
        },
        {
          "duration": 0.15625,
          "durationTicks": 60,
          "midi": 83,
          "name": "B5",
          "ticks": 372660,
          "time": 989.0135923333332,
          "velocity": 0.7874015748031497
        },
        {
          "duration": 0.15625,
          "durationTicks": 60,
          "midi": 79,
          "name": "G5",
          "ticks": 372660,
          "time": 989.0135923333332,
          "velocity": 0.7874015748031497
        },
        {
          "duration": 0.625,
          "durationTicks": 240,
          "midi": 84,
          "name": "C6",
          "ticks": 372720,
          "time": 989.1698423333332,
          "velocity": 0.7874015748031497
        },
        {
          "duration": 0.625,
          "durationTicks": 240,
          "midi": 81,
          "name": "A5",
          "ticks": 372720,
          "time": 989.1698423333332,
          "velocity": 0.7874015748031497
        },
        {
          "duration": 0.15625,
          "durationTicks": 60,
          "midi": 71,
          "name": "B4",
          "ticks": 373020,
          "time": 989.9510923333332,
          "velocity": 0.7874015748031497
        },
        {
          "duration": 0.15625,
          "durationTicks": 60,
          "midi": 79,
          "name": "G5",
          "ticks": 373020,
          "time": 989.9510923333332,
          "velocity": 0.7874015748031497
        },
        {
          "duration": 0.15625,
          "durationTicks": 60,
          "midi": 83,
          "name": "B5",
          "ticks": 373020,
          "time": 989.9510923333332,
          "velocity": 0.7874015748031497
        },
        {
          "duration": 0.15625,
          "durationTicks": 60,
          "midi": 72,
          "name": "C5",
          "ticks": 373080,
          "time": 990.1073423333332,
          "velocity": 0.7874015748031497
        },
        {
          "duration": 0.15625,
          "durationTicks": 60,
          "midi": 81,
          "name": "A5",
          "ticks": 373080,
          "time": 990.1073423333332,
          "velocity": 0.7874015748031497
        },
        {
          "duration": 0.15625,
          "durationTicks": 60,
          "midi": 84,
          "name": "C6",
          "ticks": 373080,
          "time": 990.1073423333332,
          "velocity": 0.7874015748031497
        },
        {
          "duration": 0.15625,
          "durationTicks": 60,
          "midi": 74,
          "name": "D5",
          "ticks": 373140,
          "time": 990.2635923333332,
          "velocity": 0.7874015748031497
        },
        {
          "duration": 0.15625,
          "durationTicks": 60,
          "midi": 83,
          "name": "B5",
          "ticks": 373140,
          "time": 990.2635923333332,
          "velocity": 0.7874015748031497
        },
        {
          "duration": 0.15625,
          "durationTicks": 60,
          "midi": 86,
          "name": "D6",
          "ticks": 373140,
          "time": 990.2635923333332,
          "velocity": 0.7874015748031497
        },
        {
          "duration": 0.15625,
          "durationTicks": 60,
          "midi": 76,
          "name": "E5",
          "ticks": 373200,
          "time": 990.4198423333332,
          "velocity": 0.7874015748031497
        },
        {
          "duration": 0.15625,
          "durationTicks": 60,
          "midi": 84,
          "name": "C6",
          "ticks": 373200,
          "time": 990.4198423333332,
          "velocity": 0.7874015748031497
        },
        {
          "duration": 0.15625,
          "durationTicks": 60,
          "midi": 88,
          "name": "E6",
          "ticks": 373200,
          "time": 990.4198423333332,
          "velocity": 0.7874015748031497
        },
        {
          "duration": 0.15625,
          "durationTicks": 60,
          "midi": 78,
          "name": "F#5",
          "ticks": 373260,
          "time": 990.5760923333332,
          "velocity": 0.7874015748031497
        },
        {
          "duration": 0.15625,
          "durationTicks": 60,
          "midi": 86,
          "name": "D6",
          "ticks": 373260,
          "time": 990.5760923333332,
          "velocity": 0.7874015748031497
        },
        {
          "duration": 0.15625,
          "durationTicks": 60,
          "midi": 90,
          "name": "F#6",
          "ticks": 373260,
          "time": 990.5760923333332,
          "velocity": 0.7874015748031497
        },
        {
          "duration": 0.15625,
          "durationTicks": 60,
          "midi": 79,
          "name": "G5",
          "ticks": 373320,
          "time": 990.7323423333332,
          "velocity": 0.7874015748031497
        },
        {
          "duration": 0.15625,
          "durationTicks": 60,
          "midi": 88,
          "name": "E6",
          "ticks": 373320,
          "time": 990.7323423333332,
          "velocity": 0.7874015748031497
        },
        {
          "duration": 0.15625,
          "durationTicks": 60,
          "midi": 91,
          "name": "G6",
          "ticks": 373320,
          "time": 990.7323423333332,
          "velocity": 0.7874015748031497
        },
        {
          "duration": 0.15625,
          "durationTicks": 60,
          "midi": 81,
          "name": "A5",
          "ticks": 373380,
          "time": 990.8885923333332,
          "velocity": 0.7874015748031497
        },
        {
          "duration": 0.15625,
          "durationTicks": 60,
          "midi": 90,
          "name": "F#6",
          "ticks": 373380,
          "time": 990.8885923333332,
          "velocity": 0.7874015748031497
        },
        {
          "duration": 0.15625,
          "durationTicks": 60,
          "midi": 93,
          "name": "A6",
          "ticks": 373380,
          "time": 990.8885923333332,
          "velocity": 0.7874015748031497
        },
        {
          "duration": 0.3125,
          "durationTicks": 120,
          "midi": 83,
          "name": "B5",
          "ticks": 373440,
          "time": 991.0448423333332,
          "velocity": 0.7874015748031497
        },
        {
          "duration": 0.3125,
          "durationTicks": 120,
          "midi": 91,
          "name": "G6",
          "ticks": 373440,
          "time": 991.0448423333332,
          "velocity": 0.7874015748031497
        },
        {
          "duration": 0.3125,
          "durationTicks": 120,
          "midi": 95,
          "name": "B6",
          "ticks": 373440,
          "time": 991.0448423333332,
          "velocity": 0.7874015748031497
        },
        {
          "duration": 0.625,
          "durationTicks": 60,
          "midi": 74,
          "name": "D5",
          "ticks": 374460,
          "time": 996.0448423333332,
          "velocity": 0.7874015748031497
        },
        {
          "duration": 0.15625,
          "durationTicks": 15,
          "midi": 75,
          "name": "D#5",
          "ticks": 374520,
          "time": 996.6698423333332,
          "velocity": 0.7874015748031497
        },
        {
          "duration": 0.15625,
          "durationTicks": 15,
          "midi": 74,
          "name": "D5",
          "ticks": 374535,
          "time": 996.8260923333332,
          "velocity": 0.7874015748031497
        },
        {
          "duration": 0.3125,
          "durationTicks": 30,
          "midi": 73,
          "name": "C#5",
          "ticks": 374550,
          "time": 996.9823423333332,
          "velocity": 0.7874015748031497
        },
        {
          "duration": 0.625,
          "durationTicks": 60,
          "midi": 74,
          "name": "D5",
          "ticks": 374580,
          "time": 997.2948423333332,
          "velocity": 0.7874015748031497
        },
        {
          "duration": 0.3125,
          "durationTicks": 30,
          "midi": 74,
          "name": "D5",
          "ticks": 374640,
          "time": 997.9198423333332,
          "velocity": 0.7874015748031497
        },
        {
          "duration": 1.25,
          "durationTicks": 120,
          "midi": 82,
          "name": "A#5",
          "ticks": 374670,
          "time": 998.2323423333332,
          "velocity": 0.7874015748031497
        },
        {
          "duration": 0.3125,
          "durationTicks": 30,
          "midi": 81,
          "name": "A5",
          "ticks": 374790,
          "time": 999.4823423333332,
          "velocity": 0.7874015748031497
        },
        {
          "duration": 0.3125,
          "durationTicks": 30,
          "midi": 79,
          "name": "G5",
          "ticks": 374820,
          "time": 999.7948423333332,
          "velocity": 0.7874015748031497
        },
        {
          "duration": 0.3125,
          "durationTicks": 30,
          "midi": 77,
          "name": "F5",
          "ticks": 374850,
          "time": 1000.1073423333332,
          "velocity": 0.7874015748031497
        },
        {
          "duration": 0.625,
          "durationTicks": 60,
          "midi": 75,
          "name": "D#5",
          "ticks": 374880,
          "time": 1000.4198423333332,
          "velocity": 0.7874015748031497
        },
        {
          "duration": 1.25,
          "durationTicks": 120,
          "midi": 74,
          "name": "D5",
          "ticks": 374940,
          "time": 1001.0448423333332,
          "velocity": 0.7874015748031497
        },
        {
          "duration": 1.25,
          "durationTicks": 120,
          "midi": 73,
          "name": "C#5",
          "ticks": 375060,
          "time": 1002.2948423333332,
          "velocity": 0.7874015748031497
        },
        {
          "duration": 0.625,
          "durationTicks": 60,
          "midi": 72,
          "name": "C5",
          "ticks": 375180,
          "time": 1003.5448423333332,
          "velocity": 0.7874015748031497
        },
        {
          "duration": 0.15625,
          "durationTicks": 15,
          "midi": 74,
          "name": "D5",
          "ticks": 375240,
          "time": 1004.1698423333332,
          "velocity": 0.7874015748031497
        },
        {
          "duration": 0.15625,
          "durationTicks": 15,
          "midi": 72,
          "name": "C5",
          "ticks": 375255,
          "time": 1004.3260923333332,
          "velocity": 0.7874015748031497
        },
        {
          "duration": 0.3125,
          "durationTicks": 30,
          "midi": 71,
          "name": "B4",
          "ticks": 375270,
          "time": 1004.4823423333332,
          "velocity": 0.7874015748031497
        },
        {
          "duration": 0.625,
          "durationTicks": 60,
          "midi": 72,
          "name": "C5",
          "ticks": 375300,
          "time": 1004.7948423333332,
          "velocity": 0.7874015748031497
        },
        {
          "duration": 0.3125,
          "durationTicks": 30,
          "midi": 72,
          "name": "C5",
          "ticks": 375360,
          "time": 1005.4198423333332,
          "velocity": 0.7874015748031497
        },
        {
          "duration": 1.25,
          "durationTicks": 120,
          "midi": 80,
          "name": "G#5",
          "ticks": 375390,
          "time": 1005.7323423333332,
          "velocity": 0.7874015748031497
        },
        {
          "duration": 0.3125,
          "durationTicks": 30,
          "midi": 79,
          "name": "G5",
          "ticks": 375510,
          "time": 1006.9823423333332,
          "velocity": 0.7874015748031497
        },
        {
          "duration": 0.3125,
          "durationTicks": 30,
          "midi": 77,
          "name": "F5",
          "ticks": 375540,
          "time": 1007.2948423333332,
          "velocity": 0.7874015748031497
        },
        {
          "duration": 0.3125,
          "durationTicks": 30,
          "midi": 75,
          "name": "D#5",
          "ticks": 375570,
          "time": 1007.6073423333332,
          "velocity": 0.7874015748031497
        },
        {
          "duration": 0.625,
          "durationTicks": 60,
          "midi": 73,
          "name": "C#5",
          "ticks": 375600,
          "time": 1007.9198423333332,
          "velocity": 0.7874015748031497
        },
        {
          "duration": 1.25,
          "durationTicks": 120,
          "midi": 72,
          "name": "C5",
          "ticks": 375660,
          "time": 1008.5448423333332,
          "velocity": 0.7874015748031497
        },
        {
          "duration": 1.25,
          "durationTicks": 120,
          "midi": 71,
          "name": "B4",
          "ticks": 375780,
          "time": 1009.7948423333332,
          "velocity": 0.7874015748031497
        },
        {
          "duration": 0.625,
          "durationTicks": 60,
          "midi": 70,
          "name": "A#4",
          "ticks": 375900,
          "time": 1011.0448423333332,
          "velocity": 0.7874015748031497
        },
        {
          "duration": 0.15625,
          "durationTicks": 15,
          "midi": 72,
          "name": "C5",
          "ticks": 375960,
          "time": 1011.6698423333332,
          "velocity": 0.7874015748031497
        },
        {
          "duration": 0.15625,
          "durationTicks": 15,
          "midi": 70,
          "name": "A#4",
          "ticks": 375975,
          "time": 1011.8260923333332,
          "velocity": 0.7874015748031497
        },
        {
          "duration": 0.3125,
          "durationTicks": 30,
          "midi": 69,
          "name": "A4",
          "ticks": 375990,
          "time": 1011.9823423333332,
          "velocity": 0.7874015748031497
        },
        {
          "duration": 0.625,
          "durationTicks": 60,
          "midi": 70,
          "name": "A#4",
          "ticks": 376020,
          "time": 1012.2948423333332,
          "velocity": 0.7874015748031497
        },
        {
          "duration": 0.625,
          "durationTicks": 60,
          "midi": 78,
          "name": "F#5",
          "ticks": 376080,
          "time": 1012.9198423333332,
          "velocity": 0.7874015748031497
        },
        {
          "duration": 1.25,
          "durationTicks": 120,
          "midi": 79,
          "name": "G5",
          "ticks": 376140,
          "time": 1013.5448423333332,
          "velocity": 0.7874015748031497
        },
        {
          "duration": 1.25,
          "durationTicks": 120,
          "midi": 73,
          "name": "C#5",
          "ticks": 376260,
          "time": 1014.7948423333332,
          "velocity": 0.7874015748031497
        },
        {
          "duration": 1.25,
          "durationTicks": 120,
          "midi": 74,
          "name": "D5",
          "ticks": 376380,
          "time": 1016.0448423333332,
          "velocity": 0.7874015748031497
        },
        {
          "duration": 0.625,
          "durationTicks": 60,
          "midi": 67,
          "name": "G4",
          "ticks": 376500,
          "time": 1017.2948423333332,
          "velocity": 0.7874015748031497
        },
        {
          "duration": 0.625,
          "durationTicks": 60,
          "midi": 67,
          "name": "G4",
          "ticks": 376560,
          "time": 1017.9198423333332,
          "velocity": 0.7874015748031497
        },
        {
          "duration": 0.3125,
          "durationTicks": 30,
          "midi": 69,
          "name": "A4",
          "ticks": 376620,
          "time": 1018.5448423333332,
          "velocity": 0.7874015748031497
        },
        {
          "duration": 0.3125,
          "durationTicks": 30,
          "midi": 70,
          "name": "A#4",
          "ticks": 376650,
          "time": 1018.8573423333332,
          "velocity": 0.7874015748031497
        },
        {
          "duration": 1.25,
          "durationTicks": 120,
          "midi": 69,
          "name": "A4",
          "ticks": 376680,
          "time": 1019.1698423333332,
          "velocity": 0.7874015748031497
        },
        {
          "duration": 0.625,
          "durationTicks": 60,
          "midi": 62,
          "name": "D4",
          "ticks": 377340,
          "time": 1026.0448423333332,
          "velocity": 0.7874015748031497
        },
        {
          "duration": 0.15625,
          "durationTicks": 15,
          "midi": 63,
          "name": "D#4",
          "ticks": 377400,
          "time": 1026.6698423333332,
          "velocity": 0.7874015748031497
        },
        {
          "duration": 0.15625,
          "durationTicks": 15,
          "midi": 62,
          "name": "D4",
          "ticks": 377415,
          "time": 1026.8260923333332,
          "velocity": 0.7874015748031497
        },
        {
          "duration": 0.3125,
          "durationTicks": 30,
          "midi": 61,
          "name": "C#4",
          "ticks": 377430,
          "time": 1026.9823423333332,
          "velocity": 0.7874015748031497
        },
        {
          "duration": 0.625,
          "durationTicks": 60,
          "midi": 62,
          "name": "D4",
          "ticks": 377460,
          "time": 1027.2948423333332,
          "velocity": 0.7874015748031497
        },
        {
          "duration": 0.3125,
          "durationTicks": 30,
          "midi": 62,
          "name": "D4",
          "ticks": 377520,
          "time": 1027.9198423333332,
          "velocity": 0.7874015748031497
        },
        {
          "duration": 1.25,
          "durationTicks": 120,
          "midi": 74,
          "name": "D5",
          "ticks": 377550,
          "time": 1028.2323423333332,
          "velocity": 0.7874015748031497
        },
        {
          "duration": 0.3125,
          "durationTicks": 30,
          "midi": 72,
          "name": "C5",
          "ticks": 377670,
          "time": 1029.4823423333332,
          "velocity": 0.7874015748031497
        },
        {
          "duration": 0.3125,
          "durationTicks": 30,
          "midi": 70,
          "name": "A#4",
          "ticks": 377700,
          "time": 1029.7948423333332,
          "velocity": 0.7874015748031497
        },
        {
          "duration": 0.3125,
          "durationTicks": 30,
          "midi": 69,
          "name": "A4",
          "ticks": 377730,
          "time": 1030.1073423333332,
          "velocity": 0.7874015748031497
        },
        {
          "duration": 0.3125,
          "durationTicks": 30,
          "midi": 67,
          "name": "G4",
          "ticks": 377760,
          "time": 1030.4198423333332,
          "velocity": 0.7874015748031497
        },
        {
          "duration": 0.3125,
          "durationTicks": 30,
          "midi": 65,
          "name": "F4",
          "ticks": 377790,
          "time": 1030.7323423333332,
          "velocity": 0.7874015748031497
        },
        {
          "duration": 0.9375,
          "durationTicks": 90,
          "midi": 68,
          "name": "G#4",
          "ticks": 377820,
          "time": 1031.0448423333332,
          "velocity": 0.7874015748031497
        },
        {
          "duration": 0.3125,
          "durationTicks": 30,
          "midi": 62,
          "name": "D4",
          "ticks": 377910,
          "time": 1031.9823423333332,
          "velocity": 0.7874015748031497
        },
        {
          "duration": 1.25,
          "durationTicks": 120,
          "midi": 65,
          "name": "F4",
          "ticks": 377940,
          "time": 1032.2948423333332,
          "velocity": 0.7874015748031497
        },
        {
          "duration": 0.625,
          "durationTicks": 60,
          "midi": 63,
          "name": "D#4",
          "ticks": 378060,
          "time": 1033.5448423333332,
          "velocity": 0.7874015748031497
        },
        {
          "duration": 0.15625,
          "durationTicks": 15,
          "midi": 65,
          "name": "F4",
          "ticks": 378120,
          "time": 1034.1698423333332,
          "velocity": 0.7874015748031497
        },
        {
          "duration": 0.15625,
          "durationTicks": 15,
          "midi": 63,
          "name": "D#4",
          "ticks": 378135,
          "time": 1034.3260923333332,
          "velocity": 0.7874015748031497
        },
        {
          "duration": 0.3125,
          "durationTicks": 30,
          "midi": 62,
          "name": "D4",
          "ticks": 378150,
          "time": 1034.4823423333332,
          "velocity": 0.7874015748031497
        },
        {
          "duration": 0.625,
          "durationTicks": 60,
          "midi": 63,
          "name": "D#4",
          "ticks": 378180,
          "time": 1034.7948423333332,
          "velocity": 0.7874015748031497
        },
        {
          "duration": 0.3125,
          "durationTicks": 30,
          "midi": 63,
          "name": "D#4",
          "ticks": 378240,
          "time": 1035.4198423333332,
          "velocity": 0.7874015748031497
        },
        {
          "duration": 1.25,
          "durationTicks": 120,
          "midi": 75,
          "name": "D#5",
          "ticks": 378270,
          "time": 1035.7323423333332,
          "velocity": 0.7874015748031497
        },
        {
          "duration": 0.3125,
          "durationTicks": 30,
          "midi": 74,
          "name": "D5",
          "ticks": 378390,
          "time": 1036.9823423333332,
          "velocity": 0.7874015748031497
        },
        {
          "duration": 0.3125,
          "durationTicks": 30,
          "midi": 72,
          "name": "C5",
          "ticks": 378420,
          "time": 1037.2948423333332,
          "velocity": 0.7874015748031497
        },
        {
          "duration": 0.3125,
          "durationTicks": 30,
          "midi": 70,
          "name": "A#4",
          "ticks": 378450,
          "time": 1037.6073423333332,
          "velocity": 0.7874015748031497
        },
        {
          "duration": 0.3125,
          "durationTicks": 30,
          "midi": 69,
          "name": "A4",
          "ticks": 378480,
          "time": 1037.9198423333332,
          "velocity": 0.7874015748031497
        },
        {
          "duration": 0.3125,
          "durationTicks": 30,
          "midi": 67,
          "name": "G4",
          "ticks": 378510,
          "time": 1038.2323423333332,
          "velocity": 0.7874015748031497
        },
        {
          "duration": 0.9375,
          "durationTicks": 90,
          "midi": 70,
          "name": "A#4",
          "ticks": 378540,
          "time": 1038.5448423333332,
          "velocity": 0.7874015748031497
        },
        {
          "duration": 0.3125,
          "durationTicks": 30,
          "midi": 64,
          "name": "E4",
          "ticks": 378630,
          "time": 1039.4823423333332,
          "velocity": 0.7874015748031497
        },
        {
          "duration": 1.25,
          "durationTicks": 120,
          "midi": 67,
          "name": "G4",
          "ticks": 378660,
          "time": 1039.7948423333332,
          "velocity": 0.7874015748031497
        },
        {
          "duration": 0.625,
          "durationTicks": 60,
          "midi": 66,
          "name": "F#4",
          "ticks": 378780,
          "time": 1041.0448423333332,
          "velocity": 0.7874015748031497
        },
        {
          "duration": 0.15625,
          "durationTicks": 15,
          "midi": 67,
          "name": "G4",
          "ticks": 378840,
          "time": 1041.6698423333332,
          "velocity": 0.7874015748031497
        },
        {
          "duration": 0.15625,
          "durationTicks": 15,
          "midi": 66,
          "name": "F#4",
          "ticks": 378855,
          "time": 1041.8260923333332,
          "velocity": 0.7874015748031497
        },
        {
          "duration": 0.3125,
          "durationTicks": 30,
          "midi": 64,
          "name": "E4",
          "ticks": 378870,
          "time": 1041.9823423333332,
          "velocity": 0.7874015748031497
        },
        {
          "duration": 0.625,
          "durationTicks": 60,
          "midi": 66,
          "name": "F#4",
          "ticks": 378900,
          "time": 1042.2948423333332,
          "velocity": 0.7874015748031497
        },
        {
          "duration": 0.41666666666674246,
          "durationTicks": 40,
          "midi": 71,
          "name": "B4",
          "ticks": 378960,
          "time": 1042.9198423333332,
          "velocity": 0.7874015748031497
        },
        {
          "duration": 0.4166666666665151,
          "durationTicks": 40,
          "midi": 72,
          "name": "C5",
          "ticks": 379000,
          "time": 1043.336509,
          "velocity": 0.7874015748031497
        },
        {
          "duration": 0.41666666666674246,
          "durationTicks": 40,
          "midi": 75,
          "name": "D#5",
          "ticks": 379040,
          "time": 1043.7531756666665,
          "velocity": 0.7874015748031497
        },
        {
          "duration": 0.41666666666674246,
          "durationTicks": 40,
          "midi": 73,
          "name": "C#5",
          "ticks": 379080,
          "time": 1044.1698423333332,
          "velocity": 0.7874015748031497
        },
        {
          "duration": 0.4166666666665151,
          "durationTicks": 40,
          "midi": 74,
          "name": "D5",
          "ticks": 379120,
          "time": 1044.586509,
          "velocity": 0.7874015748031497
        },
        {
          "duration": 0.41666666666674246,
          "durationTicks": 40,
          "midi": 66,
          "name": "F#4",
          "ticks": 379160,
          "time": 1045.0031756666665,
          "velocity": 0.7874015748031497
        },
        {
          "duration": 0.41666666666674246,
          "durationTicks": 40,
          "midi": 70,
          "name": "A#4",
          "ticks": 379200,
          "time": 1045.4198423333332,
          "velocity": 0.7874015748031497
        },
        {
          "duration": 0.4166666666665151,
          "durationTicks": 40,
          "midi": 69,
          "name": "A4",
          "ticks": 379240,
          "time": 1045.836509,
          "velocity": 0.7874015748031497
        },
        {
          "duration": 0.41666666666674246,
          "durationTicks": 40,
          "midi": 62,
          "name": "D4",
          "ticks": 379280,
          "time": 1046.2531756666665,
          "velocity": 0.7874015748031497
        },
        {
          "duration": 0.41666666666674246,
          "durationTicks": 40,
          "midi": 63,
          "name": "D#4",
          "ticks": 379320,
          "time": 1046.6698423333332,
          "velocity": 0.7874015748031497
        },
        {
          "duration": 0.4166666666665151,
          "durationTicks": 40,
          "midi": 59,
          "name": "B3",
          "ticks": 379360,
          "time": 1047.086509,
          "velocity": 0.7874015748031497
        },
        {
          "duration": 1.0416666666667425,
          "durationTicks": 100,
          "midi": 60,
          "name": "C4",
          "ticks": 379400,
          "time": 1047.5031756666665,
          "velocity": 0.7874015748031497
        },
        {
          "duration": 0.3125,
          "durationTicks": 30,
          "midi": 58,
          "name": "A#3",
          "ticks": 379500,
          "time": 1048.5448423333332,
          "velocity": 0.7874015748031497
        },
        {
          "duration": 0.3125,
          "durationTicks": 30,
          "midi": 57,
          "name": "A3",
          "ticks": 379530,
          "time": 1048.8573423333332,
          "velocity": 0.7874015748031497
        },
        {
          "duration": 1.25,
          "durationTicks": 120,
          "midi": 58,
          "name": "A#3",
          "ticks": 379560,
          "time": 1049.1698423333332,
          "velocity": 0.7874015748031497
        },
        {
          "duration": 0.3125,
          "durationTicks": 30,
          "midi": 62,
          "name": "D4",
          "ticks": 380190,
          "time": 1055.7323423333332,
          "velocity": 0.7874015748031497
        },
        {
          "duration": 0.3125,
          "durationTicks": 30,
          "midi": 64,
          "name": "E4",
          "ticks": 380220,
          "time": 1056.0448423333332,
          "velocity": 0.7874015748031497
        },
        {
          "duration": 0.3125,
          "durationTicks": 30,
          "midi": 66,
          "name": "F#4",
          "ticks": 380250,
          "time": 1056.3573423333332,
          "velocity": 0.7874015748031497
        },
        {
          "duration": 0.3125,
          "durationTicks": 30,
          "midi": 67,
          "name": "G4",
          "ticks": 380280,
          "time": 1056.6698423333332,
          "velocity": 0.7874015748031497
        },
        {
          "duration": 0.3125,
          "durationTicks": 30,
          "midi": 70,
          "name": "A#4",
          "ticks": 380310,
          "time": 1056.9823423333332,
          "velocity": 0.7874015748031497
        },
        {
          "duration": 1.25,
          "durationTicks": 120,
          "midi": 69,
          "name": "A4",
          "ticks": 380340,
          "time": 1057.2948423333332,
          "velocity": 0.7874015748031497
        },
        {
          "duration": 1.25,
          "durationTicks": 120,
          "midi": 70,
          "name": "A#4",
          "ticks": 380460,
          "time": 1058.5448423333332,
          "velocity": 0.7874015748031497
        },
        {
          "duration": 0.625,
          "durationTicks": 60,
          "midi": 71,
          "name": "B4",
          "ticks": 380580,
          "time": 1059.7948423333332,
          "velocity": 0.7874015748031497
        },
        {
          "duration": 0.625,
          "durationTicks": 60,
          "midi": 72,
          "name": "C5",
          "ticks": 380640,
          "time": 1060.4198423333332,
          "velocity": 0.7874015748031497
        },
        {
          "duration": 1.25,
          "durationTicks": 120,
          "midi": 73,
          "name": "C#5",
          "ticks": 380700,
          "time": 1061.0448423333332,
          "velocity": 0.7874015748031497
        },
        {
          "duration": 0.625,
          "durationTicks": 60,
          "midi": 74,
          "name": "D5",
          "ticks": 380820,
          "time": 1062.2948423333332,
          "velocity": 0.7874015748031497
        },
        {
          "duration": 0.625,
          "durationTicks": 60,
          "midi": 75,
          "name": "D#5",
          "ticks": 380880,
          "time": 1062.9198423333332,
          "velocity": 0.7874015748031497
        },
        {
          "duration": 0.9375,
          "durationTicks": 90,
          "midi": 76,
          "name": "E5",
          "ticks": 380940,
          "time": 1063.5448423333332,
          "velocity": 0.7874015748031497
        },
        {
          "duration": 0.3125,
          "durationTicks": 30,
          "midi": 82,
          "name": "A#5",
          "ticks": 381030,
          "time": 1064.4823423333332,
          "velocity": 0.7874015748031497
        },
        {
          "duration": 0.3125,
          "durationTicks": 30,
          "midi": 81,
          "name": "A5",
          "ticks": 381060,
          "time": 1064.7948423333332,
          "velocity": 0.7874015748031497
        },
        {
          "duration": 0.3125,
          "durationTicks": 30,
          "midi": 79,
          "name": "G5",
          "ticks": 381090,
          "time": 1065.1073423333332,
          "velocity": 0.7874015748031497
        },
        {
          "duration": 0.3125,
          "durationTicks": 30,
          "midi": 78,
          "name": "F#5",
          "ticks": 381120,
          "time": 1065.4198423333332,
          "velocity": 0.7874015748031497
        },
        {
          "duration": 0.3125,
          "durationTicks": 30,
          "midi": 76,
          "name": "E5",
          "ticks": 381150,
          "time": 1065.7323423333332,
          "velocity": 0.7874015748031497
        },
        {
          "duration": 1.25,
          "durationTicks": 120,
          "midi": 74,
          "name": "D5",
          "ticks": 381180,
          "time": 1066.0448423333332,
          "velocity": 0.7874015748031497
        },
        {
          "duration": 0.625,
          "durationTicks": 60,
          "midi": 74,
          "name": "D5",
          "ticks": 381300,
          "time": 1067.2948423333332,
          "velocity": 0.7874015748031497
        },
        {
          "duration": 0.625,
          "durationTicks": 60,
          "midi": 86,
          "name": "D6",
          "ticks": 381360,
          "time": 1067.9198423333332,
          "velocity": 0.7874015748031497
        },
        {
          "duration": 1.25,
          "durationTicks": 120,
          "midi": 85,
          "name": "C#6",
          "ticks": 381420,
          "time": 1068.5448423333332,
          "velocity": 0.7874015748031497
        },
        {
          "duration": 0.625,
          "durationTicks": 60,
          "midi": 84,
          "name": "C6",
          "ticks": 381540,
          "time": 1069.7948423333332,
          "velocity": 0.7874015748031497
        },
        {
          "duration": 0.625,
          "durationTicks": 60,
          "midi": 83,
          "name": "B5",
          "ticks": 381600,
          "time": 1070.4198423333332,
          "velocity": 0.7874015748031497
        },
        {
          "duration": 0.9375,
          "durationTicks": 90,
          "midi": 82,
          "name": "A#5",
          "ticks": 381660,
          "time": 1071.0448423333332,
          "velocity": 0.7874015748031497
        },
        {
          "duration": 0.3125,
          "durationTicks": 30,
          "midi": 81,
          "name": "A5",
          "ticks": 381750,
          "time": 1071.9823423333332,
          "velocity": 0.7874015748031497
        },
        {
          "duration": 1.25,
          "durationTicks": 120,
          "midi": 80,
          "name": "G#5",
          "ticks": 381780,
          "time": 1072.2948423333332,
          "velocity": 0.7874015748031497
        },
        {
          "duration": 0.9375,
          "durationTicks": 90,
          "midi": 81,
          "name": "A5",
          "ticks": 381900,
          "time": 1073.5448423333332,
          "velocity": 0.7874015748031497
        },
        {
          "duration": 0.3125,
          "durationTicks": 30,
          "midi": 74,
          "name": "D5",
          "ticks": 381990,
          "time": 1074.4823423333332,
          "velocity": 0.7874015748031497
        },
        {
          "duration": 0.3125,
          "durationTicks": 30,
          "midi": 72,
          "name": "C5",
          "ticks": 382020,
          "time": 1074.7948423333332,
          "velocity": 0.7874015748031497
        },
        {
          "duration": 0.3125,
          "durationTicks": 30,
          "midi": 70,
          "name": "A#4",
          "ticks": 382050,
          "time": 1075.1073423333332,
          "velocity": 0.7874015748031497
        },
        {
          "duration": 0.3125,
          "durationTicks": 30,
          "midi": 72,
          "name": "C5",
          "ticks": 382080,
          "time": 1075.4198423333332,
          "velocity": 0.7874015748031497
        },
        {
          "duration": 0.3125,
          "durationTicks": 30,
          "midi": 69,
          "name": "A4",
          "ticks": 382110,
          "time": 1075.7323423333332,
          "velocity": 0.7874015748031497
        },
        {
          "duration": 0.3125,
          "durationTicks": 30,
          "midi": 70,
          "name": "A#4",
          "ticks": 382140,
          "time": 1076.0448423333332,
          "velocity": 0.7874015748031497
        },
        {
          "duration": 0.3125,
          "durationTicks": 30,
          "midi": 67,
          "name": "G4",
          "ticks": 382170,
          "time": 1076.3573423333332,
          "velocity": 0.7874015748031497
        },
        {
          "duration": 0.3125,
          "durationTicks": 30,
          "midi": 65,
          "name": "F4",
          "ticks": 382200,
          "time": 1076.6698423333332,
          "velocity": 0.7874015748031497
        },
        {
          "duration": 0.3125,
          "durationTicks": 30,
          "midi": 64,
          "name": "E4",
          "ticks": 382230,
          "time": 1076.9823423333332,
          "velocity": 0.7874015748031497
        },
        {
          "duration": 0.3125,
          "durationTicks": 30,
          "midi": 65,
          "name": "F4",
          "ticks": 382260,
          "time": 1077.2948423333332,
          "velocity": 0.7874015748031497
        },
        {
          "duration": 0.3125,
          "durationTicks": 30,
          "midi": 74,
          "name": "D5",
          "ticks": 382290,
          "time": 1077.6073423333332,
          "velocity": 0.7874015748031497
        },
        {
          "duration": 0.15625,
          "durationTicks": 15,
          "midi": 67,
          "name": "G4",
          "ticks": 382320,
          "time": 1077.9198423333332,
          "velocity": 0.7874015748031497
        },
        {
          "duration": 0.15625,
          "durationTicks": 15,
          "midi": 65,
          "name": "F4",
          "ticks": 382335,
          "time": 1078.0760923333332,
          "velocity": 0.7874015748031497
        },
        {
          "duration": 0.15625,
          "durationTicks": 15,
          "midi": 67,
          "name": "G4",
          "ticks": 382335,
          "time": 1078.0760923333332,
          "velocity": 0.7874015748031497
        },
        {
          "duration": 0.15625,
          "durationTicks": 15,
          "midi": 64,
          "name": "E4",
          "ticks": 382350,
          "time": 1078.2323423333332,
          "velocity": 0.7874015748031497
        },
        {
          "duration": 0.15625,
          "durationTicks": 15,
          "midi": 65,
          "name": "F4",
          "ticks": 382350,
          "time": 1078.2323423333332,
          "velocity": 0.7874015748031497
        },
        {
          "duration": 0.625,
          "durationTicks": 60,
          "midi": 65,
          "name": "F4",
          "ticks": 382380,
          "time": 1078.5448423333332,
          "velocity": 0.7874015748031497
        },
        {
          "duration": 1.25,
          "durationTicks": 120,
          "midi": 64,
          "name": "E4",
          "ticks": 382440,
          "time": 1079.1698423333332,
          "velocity": 0.7874015748031497
        },
        {
          "duration": 0.3125,
          "durationTicks": 30,
          "midi": 62,
          "name": "D4",
          "ticks": 382590,
          "time": 1080.7323423333332,
          "velocity": 0.7874015748031497
        },
        {
          "duration": 0.3125,
          "durationTicks": 30,
          "midi": 61,
          "name": "C#4",
          "ticks": 382620,
          "time": 1081.0448423333332,
          "velocity": 0.7874015748031497
        },
        {
          "duration": 0.3125,
          "durationTicks": 30,
          "midi": 62,
          "name": "D4",
          "ticks": 382650,
          "time": 1081.3573423333332,
          "velocity": 0.7874015748031497
        },
        {
          "duration": 0.3125,
          "durationTicks": 30,
          "midi": 64,
          "name": "E4",
          "ticks": 382680,
          "time": 1081.6698423333332,
          "velocity": 0.7874015748031497
        },
        {
          "duration": 0.3125,
          "durationTicks": 30,
          "midi": 65,
          "name": "F4",
          "ticks": 382710,
          "time": 1081.9823423333332,
          "velocity": 0.7874015748031497
        },
        {
          "duration": 0.3125,
          "durationTicks": 30,
          "midi": 67,
          "name": "G4",
          "ticks": 382740,
          "time": 1082.2948423333332,
          "velocity": 0.7874015748031497
        },
        {
          "duration": 0.3125,
          "durationTicks": 30,
          "midi": 69,
          "name": "A4",
          "ticks": 382770,
          "time": 1082.6073423333332,
          "velocity": 0.7874015748031497
        },
        {
          "duration": 0.3125,
          "durationTicks": 30,
          "midi": 70,
          "name": "A#4",
          "ticks": 382800,
          "time": 1082.9198423333332,
          "velocity": 0.7874015748031497
        },
        {
          "duration": 0.3125,
          "durationTicks": 30,
          "midi": 69,
          "name": "A4",
          "ticks": 382830,
          "time": 1083.2323423333332,
          "velocity": 0.7874015748031497
        },
        {
          "duration": 0.9375,
          "durationTicks": 90,
          "midi": 74,
          "name": "D5",
          "ticks": 382860,
          "time": 1083.5448423333332,
          "velocity": 0.7874015748031497
        },
        {
          "duration": 0.3125,
          "durationTicks": 30,
          "midi": 73,
          "name": "C#5",
          "ticks": 382950,
          "time": 1084.4823423333332,
          "velocity": 0.7874015748031497
        },
        {
          "duration": 1.25,
          "durationTicks": 120,
          "midi": 76,
          "name": "E5",
          "ticks": 382980,
          "time": 1084.7948423333332,
          "velocity": 0.7874015748031497
        },
        {
          "duration": 0.625,
          "durationTicks": 60,
          "midi": 69,
          "name": "A4",
          "ticks": 383100,
          "time": 1086.0448423333332,
          "velocity": 0.7874015748031497
        },
        {
          "duration": 0.15625,
          "durationTicks": 15,
          "midi": 70,
          "name": "A#4",
          "ticks": 383160,
          "time": 1086.6698423333332,
          "velocity": 0.7874015748031497
        },
        {
          "duration": 0.15625,
          "durationTicks": 15,
          "midi": 69,
          "name": "A4",
          "ticks": 383175,
          "time": 1086.8260923333332,
          "velocity": 0.7874015748031497
        },
        {
          "duration": 0.3125,
          "durationTicks": 30,
          "midi": 68,
          "name": "G#4",
          "ticks": 383190,
          "time": 1086.9823423333332,
          "velocity": 0.7874015748031497
        },
        {
          "duration": 0.625,
          "durationTicks": 60,
          "midi": 69,
          "name": "A4",
          "ticks": 383220,
          "time": 1087.2948423333332,
          "velocity": 0.7874015748031497
        },
        {
          "duration": 0.3125,
          "durationTicks": 30,
          "midi": 69,
          "name": "A4",
          "ticks": 383280,
          "time": 1087.9198423333332,
          "velocity": 0.7874015748031497
        },
        {
          "duration": 1.25,
          "durationTicks": 120,
          "midi": 81,
          "name": "A5",
          "ticks": 383310,
          "time": 1088.2323423333332,
          "velocity": 0.7874015748031497
        },
        {
          "duration": 0.3125,
          "durationTicks": 30,
          "midi": 82,
          "name": "A#5",
          "ticks": 383430,
          "time": 1089.4823423333332,
          "velocity": 0.7874015748031497
        },
        {
          "duration": 0.3125,
          "durationTicks": 30,
          "midi": 81,
          "name": "A5",
          "ticks": 383460,
          "time": 1089.7948423333332,
          "velocity": 0.7874015748031497
        },
        {
          "duration": 0.3125,
          "durationTicks": 30,
          "midi": 80,
          "name": "G#5",
          "ticks": 383490,
          "time": 1090.1073423333332,
          "velocity": 0.7874015748031497
        },
        {
          "duration": 0.3125,
          "durationTicks": 30,
          "midi": 81,
          "name": "A5",
          "ticks": 383520,
          "time": 1090.4198423333332,
          "velocity": 0.7874015748031497
        },
        {
          "duration": 0.3125,
          "durationTicks": 30,
          "midi": 74,
          "name": "D5",
          "ticks": 383550,
          "time": 1090.7323423333332,
          "velocity": 0.7874015748031497
        },
        {
          "duration": 0.3125,
          "durationTicks": 30,
          "midi": 72,
          "name": "C5",
          "ticks": 383580,
          "time": 1091.0448423333332,
          "velocity": 0.7874015748031497
        },
        {
          "duration": 0.3125,
          "durationTicks": 30,
          "midi": 70,
          "name": "A#4",
          "ticks": 383610,
          "time": 1091.3573423333332,
          "velocity": 0.7874015748031497
        },
        {
          "duration": 0.3125,
          "durationTicks": 30,
          "midi": 72,
          "name": "C5",
          "ticks": 383640,
          "time": 1091.6698423333332,
          "velocity": 0.7874015748031497
        },
        {
          "duration": 0.3125,
          "durationTicks": 30,
          "midi": 72,
          "name": "C5",
          "ticks": 383670,
          "time": 1091.9823423333332,
          "velocity": 0.7874015748031497
        },
        {
          "duration": 0.3125,
          "durationTicks": 30,
          "midi": 70,
          "name": "A#4",
          "ticks": 383700,
          "time": 1092.2948423333332,
          "velocity": 0.7874015748031497
        },
        {
          "duration": 0.3125,
          "durationTicks": 30,
          "midi": 69,
          "name": "A4",
          "ticks": 383730,
          "time": 1092.6073423333332,
          "velocity": 0.7874015748031497
        },
        {
          "duration": 0.625,
          "durationTicks": 60,
          "midi": 69,
          "name": "A4",
          "ticks": 383760,
          "time": 1092.9198423333332,
          "velocity": 0.7874015748031497
        },
        {
          "duration": 0.625,
          "durationTicks": 60,
          "midi": 70,
          "name": "A#4",
          "ticks": 383820,
          "time": 1093.5448423333332,
          "velocity": 0.7874015748031497
        },
        {
          "duration": 0.15625,
          "durationTicks": 15,
          "midi": 72,
          "name": "C5",
          "ticks": 383880,
          "time": 1094.1698423333332,
          "velocity": 0.7874015748031497
        },
        {
          "duration": 0.15625,
          "durationTicks": 15,
          "midi": 70,
          "name": "A#4",
          "ticks": 383895,
          "time": 1094.3260923333332,
          "velocity": 0.7874015748031497
        },
        {
          "duration": 0.3125,
          "durationTicks": 30,
          "midi": 69,
          "name": "A4",
          "ticks": 383910,
          "time": 1094.4823423333332,
          "velocity": 0.7874015748031497
        },
        {
          "duration": 0.625,
          "durationTicks": 60,
          "midi": 70,
          "name": "A#4",
          "ticks": 383940,
          "time": 1094.7948423333332,
          "velocity": 0.7874015748031497
        },
        {
          "duration": 0.3125,
          "durationTicks": 30,
          "midi": 70,
          "name": "A#4",
          "ticks": 384000,
          "time": 1095.4198423333332,
          "velocity": 0.7874015748031497
        },
        {
          "duration": 1.25,
          "durationTicks": 120,
          "midi": 82,
          "name": "A#5",
          "ticks": 384030,
          "time": 1095.7323423333332,
          "velocity": 0.7874015748031497
        },
        {
          "duration": 0.3125,
          "durationTicks": 30,
          "midi": 75,
          "name": "D#5",
          "ticks": 384150,
          "time": 1096.9823423333332,
          "velocity": 0.7874015748031497
        },
        {
          "duration": 0.3125,
          "durationTicks": 30,
          "midi": 74,
          "name": "D5",
          "ticks": 384180,
          "time": 1097.2948423333332,
          "velocity": 0.7874015748031497
        },
        {
          "duration": 0.3125,
          "durationTicks": 30,
          "midi": 73,
          "name": "C#5",
          "ticks": 384210,
          "time": 1097.6073423333332,
          "velocity": 0.7874015748031497
        },
        {
          "duration": 0.3125,
          "durationTicks": 30,
          "midi": 74,
          "name": "D5",
          "ticks": 384240,
          "time": 1097.9198423333332,
          "velocity": 0.7874015748031497
        },
        {
          "duration": 0.3125,
          "durationTicks": 30,
          "midi": 84,
          "name": "C6",
          "ticks": 384270,
          "time": 1098.2323423333332,
          "velocity": 0.7874015748031497
        },
        {
          "duration": 1.25,
          "durationTicks": 120,
          "midi": 83,
          "name": "B5",
          "ticks": 384300,
          "time": 1098.5448423333332,
          "velocity": 0.7874015748031497
        },
        {
          "duration": 0.625,
          "durationTicks": 60,
          "midi": 74,
          "name": "D5",
          "ticks": 384420,
          "time": 1099.7948423333332,
          "velocity": 0.7874015748031497
        },
        {
          "duration": 0.625,
          "durationTicks": 60,
          "midi": 73,
          "name": "C#5",
          "ticks": 384480,
          "time": 1100.4198423333332,
          "velocity": 0.7874015748031497
        },
        {
          "duration": 1.25,
          "durationTicks": 120,
          "midi": 70,
          "name": "A#4",
          "ticks": 384540,
          "time": 1101.0448423333332,
          "velocity": 0.7874015748031497
        },
        {
          "duration": 0.625,
          "durationTicks": 60,
          "midi": 69,
          "name": "A4",
          "ticks": 384660,
          "time": 1102.2948423333332,
          "velocity": 0.7874015748031497
        },
        {
          "duration": 0.625,
          "durationTicks": 60,
          "midi": 75,
          "name": "D#5",
          "ticks": 384720,
          "time": 1102.9198423333332,
          "velocity": 0.7874015748031497
        },
        {
          "duration": 0.9375,
          "durationTicks": 90,
          "midi": 74,
          "name": "D5",
          "ticks": 384780,
          "time": 1103.5448423333332,
          "velocity": 0.7874015748031497
        },
        {
          "duration": 0.3125,
          "durationTicks": 30,
          "midi": 73,
          "name": "C#5",
          "ticks": 384870,
          "time": 1104.4823423333332,
          "velocity": 0.7874015748031497
        },
        {
          "duration": 0.3125,
          "durationTicks": 30,
          "midi": 76,
          "name": "E5",
          "ticks": 384900,
          "time": 1104.7948423333332,
          "velocity": 0.7874015748031497
        },
        {
          "duration": 0.3125,
          "durationTicks": 30,
          "midi": 79,
          "name": "G5",
          "ticks": 384930,
          "time": 1105.1073423333332,
          "velocity": 0.7874015748031497
        },
        {
          "duration": 0.625,
          "durationTicks": 60,
          "midi": 82,
          "name": "A#5",
          "ticks": 384960,
          "time": 1105.4198423333332,
          "velocity": 0.7874015748031497
        },
        {
          "duration": 0.78125,
          "durationTicks": 75,
          "midi": 81,
          "name": "A5",
          "ticks": 385020,
          "time": 1106.0448423333332,
          "velocity": 0.7874015748031497
        },
        {
          "duration": 0.15625,
          "durationTicks": 15,
          "midi": 79,
          "name": "G5",
          "ticks": 385095,
          "time": 1106.8260923333332,
          "velocity": 0.7874015748031497
        },
        {
          "duration": 0.15625,
          "durationTicks": 15,
          "midi": 77,
          "name": "F5",
          "ticks": 385110,
          "time": 1106.9823423333332,
          "velocity": 0.7874015748031497
        },
        {
          "duration": 0.15625,
          "durationTicks": 15,
          "midi": 76,
          "name": "E5",
          "ticks": 385125,
          "time": 1107.1385923333332,
          "velocity": 0.7874015748031497
        },
        {
          "duration": 0.3125,
          "durationTicks": 30,
          "midi": 74,
          "name": "D5",
          "ticks": 385140,
          "time": 1107.2948423333332,
          "velocity": 0.7874015748031497
        },
        {
          "duration": 0.3125,
          "durationTicks": 30,
          "midi": 73,
          "name": "C#5",
          "ticks": 385170,
          "time": 1107.6073423333332,
          "velocity": 0.7874015748031497
        },
        {
          "duration": 1.25,
          "durationTicks": 120,
          "midi": 73,
          "name": "C#5",
          "ticks": 385200,
          "time": 1107.9198423333332,
          "velocity": 0.7874015748031497
        },
        {
          "duration": 1.25,
          "durationTicks": 120,
          "midi": 74,
          "name": "D5",
          "ticks": 385320,
          "time": 1109.1698423333332,
          "velocity": 0.7874015748031497
        },
        {
          "duration": 0.625,
          "durationTicks": 60,
          "midi": 81,
          "name": "A5",
          "ticks": 385980,
          "time": 1116.0448423333332,
          "velocity": 0.7874015748031497
        },
        {
          "duration": 0.15625,
          "durationTicks": 15,
          "midi": 82,
          "name": "A#5",
          "ticks": 386040,
          "time": 1116.6698423333332,
          "velocity": 0.7874015748031497
        },
        {
          "duration": 0.15625,
          "durationTicks": 15,
          "midi": 81,
          "name": "A5",
          "ticks": 386055,
          "time": 1116.8260923333332,
          "velocity": 0.7874015748031497
        },
        {
          "duration": 0.3125,
          "durationTicks": 30,
          "midi": 80,
          "name": "G#5",
          "ticks": 386070,
          "time": 1116.9823423333332,
          "velocity": 0.7874015748031497
        },
        {
          "duration": 0.625,
          "durationTicks": 60,
          "midi": 81,
          "name": "A5",
          "ticks": 386100,
          "time": 1117.2948423333332,
          "velocity": 0.7874015748031497
        },
        {
          "duration": 0.625,
          "durationTicks": 60,
          "midi": 75,
          "name": "D#5",
          "ticks": 386160,
          "time": 1117.9198423333332,
          "velocity": 0.7874015748031497
        },
        {
          "duration": 0.9375,
          "durationTicks": 90,
          "midi": 74,
          "name": "D5",
          "ticks": 386220,
          "time": 1118.5448423333332,
          "velocity": 0.7874015748031497
        },
        {
          "duration": 0.3125,
          "durationTicks": 30,
          "midi": 76,
          "name": "E5",
          "ticks": 386310,
          "time": 1119.4823423333332,
          "velocity": 0.7874015748031497
        },
        {
          "duration": 0.3125,
          "durationTicks": 30,
          "midi": 78,
          "name": "F#5",
          "ticks": 386340,
          "time": 1119.7948423333332,
          "velocity": 0.7874015748031497
        },
        {
          "duration": 0.3125,
          "durationTicks": 30,
          "midi": 79,
          "name": "G5",
          "ticks": 386370,
          "time": 1120.1073423333332,
          "velocity": 0.7874015748031497
        },
        {
          "duration": 0.3125,
          "durationTicks": 30,
          "midi": 81,
          "name": "A5",
          "ticks": 386400,
          "time": 1120.4198423333332,
          "velocity": 0.7874015748031497
        },
        {
          "duration": 0.3125,
          "durationTicks": 30,
          "midi": 72,
          "name": "C5",
          "ticks": 386430,
          "time": 1120.7323423333332,
          "velocity": 0.7874015748031497
        },
        {
          "duration": 1.25,
          "durationTicks": 120,
          "midi": 75,
          "name": "D#5",
          "ticks": 386460,
          "time": 1121.0448423333332,
          "velocity": 0.7874015748031497
        },
        {
          "duration": 1.25,
          "durationTicks": 120,
          "midi": 74,
          "name": "D5",
          "ticks": 386580,
          "time": 1122.2948423333332,
          "velocity": 0.7874015748031497
        },
        {
          "duration": 0.625,
          "durationTicks": 60,
          "midi": 77,
          "name": "F5",
          "ticks": 386700,
          "time": 1123.5448423333332,
          "velocity": 0.7874015748031497
        },
        {
          "duration": 0.15625,
          "durationTicks": 15,
          "midi": 79,
          "name": "G5",
          "ticks": 386760,
          "time": 1124.1698423333332,
          "velocity": 0.7874015748031497
        },
        {
          "duration": 0.15625,
          "durationTicks": 15,
          "midi": 77,
          "name": "F5",
          "ticks": 386775,
          "time": 1124.3260923333332,
          "velocity": 0.7874015748031497
        },
        {
          "duration": 0.3125,
          "durationTicks": 30,
          "midi": 75,
          "name": "D#5",
          "ticks": 386790,
          "time": 1124.4823423333332,
          "velocity": 0.7874015748031497
        },
        {
          "duration": 0.625,
          "durationTicks": 60,
          "midi": 77,
          "name": "F5",
          "ticks": 386820,
          "time": 1124.7948423333332,
          "velocity": 0.7874015748031497
        },
        {
          "duration": 0.625,
          "durationTicks": 60,
          "midi": 68,
          "name": "G#4",
          "ticks": 386880,
          "time": 1125.4198423333332,
          "velocity": 0.7874015748031497
        },
        {
          "duration": 0.9375,
          "durationTicks": 90,
          "midi": 67,
          "name": "G4",
          "ticks": 386940,
          "time": 1126.0448423333332,
          "velocity": 0.7874015748031497
        },
        {
          "duration": 0.3125,
          "durationTicks": 30,
          "midi": 69,
          "name": "A4",
          "ticks": 387030,
          "time": 1126.9823423333332,
          "velocity": 0.7874015748031497
        },
        {
          "duration": 0.3125,
          "durationTicks": 30,
          "midi": 71,
          "name": "B4",
          "ticks": 387060,
          "time": 1127.2948423333332,
          "velocity": 0.7874015748031497
        },
        {
          "duration": 0.3125,
          "durationTicks": 30,
          "midi": 72,
          "name": "C5",
          "ticks": 387090,
          "time": 1127.6073423333332,
          "velocity": 0.7874015748031497
        },
        {
          "duration": 0.3125,
          "durationTicks": 30,
          "midi": 74,
          "name": "D5",
          "ticks": 387120,
          "time": 1127.9198423333332,
          "velocity": 0.7874015748031497
        },
        {
          "duration": 0.3125,
          "durationTicks": 30,
          "midi": 65,
          "name": "F4",
          "ticks": 387150,
          "time": 1128.2323423333332,
          "velocity": 0.7874015748031497
        },
        {
          "duration": 1.25,
          "durationTicks": 120,
          "midi": 68,
          "name": "G#4",
          "ticks": 387180,
          "time": 1128.5448423333332,
          "velocity": 0.7874015748031497
        },
        {
          "duration": 1.25,
          "durationTicks": 120,
          "midi": 67,
          "name": "G4",
          "ticks": 387300,
          "time": 1129.7948423333332,
          "velocity": 0.7874015748031497
        },
        {
          "duration": 1.25,
          "durationTicks": 120,
          "midi": 72,
          "name": "C5",
          "ticks": 387420,
          "time": 1131.0448423333332,
          "velocity": 0.7874015748031497
        },
        {
          "duration": 0.625,
          "durationTicks": 60,
          "midi": 71,
          "name": "B4",
          "ticks": 387540,
          "time": 1132.2948423333332,
          "velocity": 0.7874015748031497
        },
        {
          "duration": 0.3125,
          "durationTicks": 30,
          "midi": 72,
          "name": "C5",
          "ticks": 387600,
          "time": 1132.9198423333332,
          "velocity": 0.7874015748031497
        },
        {
          "duration": 0.3125,
          "durationTicks": 30,
          "midi": 75,
          "name": "D#5",
          "ticks": 387630,
          "time": 1133.2323423333332,
          "velocity": 0.7874015748031497
        },
        {
          "duration": 1.25,
          "durationTicks": 120,
          "midi": 73,
          "name": "C#5",
          "ticks": 387660,
          "time": 1133.5448423333332,
          "velocity": 0.7874015748031497
        },
        {
          "duration": 0.9375,
          "durationTicks": 90,
          "midi": 72,
          "name": "C5",
          "ticks": 387780,
          "time": 1134.7948423333332,
          "velocity": 0.7874015748031497
        },
        {
          "duration": 0.3125,
          "durationTicks": 30,
          "midi": 77,
          "name": "F5",
          "ticks": 387870,
          "time": 1135.7323423333332,
          "velocity": 0.7874015748031497
        },
        {
          "duration": 0.9375,
          "durationTicks": 90,
          "midi": 75,
          "name": "D#5",
          "ticks": 387900,
          "time": 1136.0448423333332,
          "velocity": 0.7874015748031497
        },
        {
          "duration": 0.3125,
          "durationTicks": 30,
          "midi": 77,
          "name": "F5",
          "ticks": 387990,
          "time": 1136.9823423333332,
          "velocity": 0.7874015748031497
        },
        {
          "duration": 0.3125,
          "durationTicks": 30,
          "midi": 75,
          "name": "D#5",
          "ticks": 388020,
          "time": 1137.2948423333332,
          "velocity": 0.7874015748031497
        },
        {
          "duration": 0.3125,
          "durationTicks": 30,
          "midi": 74,
          "name": "D5",
          "ticks": 388050,
          "time": 1137.6073423333332,
          "velocity": 0.7874015748031497
        },
        {
          "duration": 0.3125,
          "durationTicks": 30,
          "midi": 75,
          "name": "D#5",
          "ticks": 388080,
          "time": 1137.9198423333332,
          "velocity": 0.7874015748031497
        },
        {
          "duration": 0.3125,
          "durationTicks": 30,
          "midi": 81,
          "name": "A5",
          "ticks": 388110,
          "time": 1138.2323423333332,
          "velocity": 0.7874015748031497
        },
        {
          "duration": 0.625,
          "durationTicks": 60,
          "midi": 82,
          "name": "A#5",
          "ticks": 388140,
          "time": 1138.5448423333332,
          "velocity": 0.7874015748031497
        },
        {
          "duration": 0.625,
          "durationTicks": 60,
          "midi": 75,
          "name": "D#5",
          "ticks": 388200,
          "time": 1139.1698423333332,
          "velocity": 0.7874015748031497
        },
        {
          "duration": 0.625,
          "durationTicks": 60,
          "midi": 74,
          "name": "D5",
          "ticks": 388260,
          "time": 1139.7948423333332,
          "velocity": 0.7874015748031497
        },
        {
          "duration": 0.625,
          "durationTicks": 60,
          "midi": 70,
          "name": "A#4",
          "ticks": 388860,
          "time": 1146.0448423333332,
          "velocity": 0.7874015748031497
        },
        {
          "duration": 0.15625,
          "durationTicks": 15,
          "midi": 71,
          "name": "B4",
          "ticks": 388920,
          "time": 1146.6698423333332,
          "velocity": 0.7874015748031497
        },
        {
          "duration": 0.15625,
          "durationTicks": 15,
          "midi": 70,
          "name": "A#4",
          "ticks": 388935,
          "time": 1146.8260923333332,
          "velocity": 0.7874015748031497
        },
        {
          "duration": 0.3125,
          "durationTicks": 30,
          "midi": 68,
          "name": "G#4",
          "ticks": 388950,
          "time": 1146.9823423333332,
          "velocity": 0.7874015748031497
        },
        {
          "duration": 0.625,
          "durationTicks": 60,
          "midi": 70,
          "name": "A#4",
          "ticks": 388980,
          "time": 1147.2948423333332,
          "velocity": 0.7874015748031497
        },
        {
          "duration": 0.625,
          "durationTicks": 60,
          "midi": 70,
          "name": "A#4",
          "ticks": 389040,
          "time": 1147.9198423333332,
          "velocity": 0.7874015748031497
        },
        {
          "duration": 0.9375,
          "durationTicks": 90,
          "midi": 82,
          "name": "A#5",
          "ticks": 389100,
          "time": 1148.5448423333332,
          "velocity": 0.7874015748031497
        },
        {
          "duration": 0.3125,
          "durationTicks": 30,
          "midi": 83,
          "name": "B5",
          "ticks": 389190,
          "time": 1149.4823423333332,
          "velocity": 0.7874015748031497
        },
        {
          "duration": 0.3125,
          "durationTicks": 30,
          "midi": 82,
          "name": "A#5",
          "ticks": 389220,
          "time": 1149.7948423333332,
          "velocity": 0.7874015748031497
        },
        {
          "duration": 0.3125,
          "durationTicks": 30,
          "midi": 80,
          "name": "G#5",
          "ticks": 389250,
          "time": 1150.1073423333332,
          "velocity": 0.7874015748031497
        },
        {
          "duration": 0.625,
          "durationTicks": 60,
          "midi": 82,
          "name": "A#5",
          "ticks": 389280,
          "time": 1150.4198423333332,
          "velocity": 0.7874015748031497
        },
        {
          "duration": 0.9375,
          "durationTicks": 90,
          "midi": 73,
          "name": "C#5",
          "ticks": 389340,
          "time": 1151.0448423333332,
          "velocity": 0.7874015748031497
        },
        {
          "duration": 0.3125,
          "durationTicks": 30,
          "midi": 71,
          "name": "B4",
          "ticks": 389430,
          "time": 1151.9823423333332,
          "velocity": 0.7874015748031497
        },
        {
          "duration": 1.25,
          "durationTicks": 120,
          "midi": 70,
          "name": "A#4",
          "ticks": 389460,
          "time": 1152.2948423333332,
          "velocity": 0.7874015748031497
        },
        {
          "duration": 0.625,
          "durationTicks": 60,
          "midi": 71,
          "name": "B4",
          "ticks": 389580,
          "time": 1153.5448423333332,
          "velocity": 0.7874015748031497
        },
        {
          "duration": 0.15625,
          "durationTicks": 15,
          "midi": 73,
          "name": "C#5",
          "ticks": 389640,
          "time": 1154.1698423333332,
          "velocity": 0.7874015748031497
        },
        {
          "duration": 0.15625,
          "durationTicks": 15,
          "midi": 71,
          "name": "B4",
          "ticks": 389655,
          "time": 1154.3260923333332,
          "velocity": 0.7874015748031497
        },
        {
          "duration": 0.3125,
          "durationTicks": 30,
          "midi": 70,
          "name": "A#4",
          "ticks": 389670,
          "time": 1154.4823423333332,
          "velocity": 0.7874015748031497
        },
        {
          "duration": 0.625,
          "durationTicks": 60,
          "midi": 71,
          "name": "B4",
          "ticks": 389700,
          "time": 1154.7948423333332,
          "velocity": 0.7874015748031497
        },
        {
          "duration": 0.625,
          "durationTicks": 60,
          "midi": 71,
          "name": "B4",
          "ticks": 389760,
          "time": 1155.4198423333332,
          "velocity": 0.7874015748031497
        },
        {
          "duration": 0.9375,
          "durationTicks": 90,
          "midi": 83,
          "name": "B5",
          "ticks": 389820,
          "time": 1156.0448423333332,
          "velocity": 0.7874015748031497
        },
        {
          "duration": 0.3125,
          "durationTicks": 30,
          "midi": 76,
          "name": "E5",
          "ticks": 389910,
          "time": 1156.9823423333332,
          "velocity": 0.7874015748031497
        },
        {
          "duration": 0.3125,
          "durationTicks": 30,
          "midi": 75,
          "name": "D#5",
          "ticks": 389940,
          "time": 1157.2948423333332,
          "velocity": 0.7874015748031497
        },
        {
          "duration": 0.3125,
          "durationTicks": 30,
          "midi": 74,
          "name": "D5",
          "ticks": 389970,
          "time": 1157.6073423333332,
          "velocity": 0.7874015748031497
        },
        {
          "duration": 0.3125,
          "durationTicks": 30,
          "midi": 75,
          "name": "D#5",
          "ticks": 390000,
          "time": 1157.9198423333332,
          "velocity": 0.7874015748031497
        },
        {
          "duration": 0.3125,
          "durationTicks": 30,
          "midi": 85,
          "name": "C#6",
          "ticks": 390030,
          "time": 1158.2323423333332,
          "velocity": 0.7874015748031497
        },
        {
          "duration": 1.25,
          "durationTicks": 120,
          "midi": 84,
          "name": "C6",
          "ticks": 390060,
          "time": 1158.5448423333332,
          "velocity": 0.7874015748031497
        },
        {
          "duration": 0.625,
          "durationTicks": 60,
          "midi": 75,
          "name": "D#5",
          "ticks": 390180,
          "time": 1159.7948423333332,
          "velocity": 0.7874015748031497
        },
        {
          "duration": 0.625,
          "durationTicks": 60,
          "midi": 74,
          "name": "D5",
          "ticks": 390240,
          "time": 1160.4198423333332,
          "velocity": 0.7874015748031497
        },
        {
          "duration": 1.25,
          "durationTicks": 120,
          "midi": 71,
          "name": "B4",
          "ticks": 390300,
          "time": 1161.0448423333332,
          "velocity": 0.7874015748031497
        },
        {
          "duration": 0.625,
          "durationTicks": 60,
          "midi": 70,
          "name": "A#4",
          "ticks": 390420,
          "time": 1162.2948423333332,
          "velocity": 0.7874015748031497
        },
        {
          "duration": 0.625,
          "durationTicks": 60,
          "midi": 76,
          "name": "E5",
          "ticks": 390480,
          "time": 1162.9198423333332,
          "velocity": 0.7874015748031497
        },
        {
          "duration": 0.9375,
          "durationTicks": 90,
          "midi": 75,
          "name": "D#5",
          "ticks": 390540,
          "time": 1163.5448423333332,
          "velocity": 0.7874015748031497
        },
        {
          "duration": 0.3125,
          "durationTicks": 30,
          "midi": 74,
          "name": "D5",
          "ticks": 390630,
          "time": 1164.4823423333332,
          "velocity": 0.7874015748031497
        },
        {
          "duration": 0.3125,
          "durationTicks": 30,
          "midi": 77,
          "name": "F5",
          "ticks": 390660,
          "time": 1164.7948423333332,
          "velocity": 0.7874015748031497
        },
        {
          "duration": 0.3125,
          "durationTicks": 30,
          "midi": 80,
          "name": "G#5",
          "ticks": 390690,
          "time": 1165.1073423333332,
          "velocity": 0.7874015748031497
        },
        {
          "duration": 0.625,
          "durationTicks": 60,
          "midi": 83,
          "name": "B5",
          "ticks": 390720,
          "time": 1165.4198423333332,
          "velocity": 0.7874015748031497
        },
        {
          "duration": 0.78125,
          "durationTicks": 75,
          "midi": 82,
          "name": "A#5",
          "ticks": 390780,
          "time": 1166.0448423333332,
          "velocity": 0.7874015748031497
        },
        {
          "duration": 0.15625,
          "durationTicks": 15,
          "midi": 80,
          "name": "G#5",
          "ticks": 390855,
          "time": 1166.8260923333332,
          "velocity": 0.7874015748031497
        },
        {
          "duration": 0.15625,
          "durationTicks": 15,
          "midi": 78,
          "name": "F#5",
          "ticks": 390870,
          "time": 1166.9823423333332,
          "velocity": 0.7874015748031497
        },
        {
          "duration": 0.15625,
          "durationTicks": 15,
          "midi": 77,
          "name": "F5",
          "ticks": 390885,
          "time": 1167.1385923333332,
          "velocity": 0.7874015748031497
        },
        {
          "duration": 0.3125,
          "durationTicks": 30,
          "midi": 75,
          "name": "D#5",
          "ticks": 390900,
          "time": 1167.2948423333332,
          "velocity": 0.7874015748031497
        },
        {
          "duration": 0.3125,
          "durationTicks": 30,
          "midi": 74,
          "name": "D5",
          "ticks": 390930,
          "time": 1167.6073423333332,
          "velocity": 0.7874015748031497
        },
        {
          "duration": 1.25,
          "durationTicks": 120,
          "midi": 74,
          "name": "D5",
          "ticks": 390960,
          "time": 1167.9198423333332,
          "velocity": 0.7874015748031497
        },
        {
          "duration": 1.25,
          "durationTicks": 120,
          "midi": 75,
          "name": "D#5",
          "ticks": 391080,
          "time": 1169.1698423333332,
          "velocity": 0.7874015748031497
        },
        {
          "duration": 0.625,
          "durationTicks": 60,
          "midi": 67,
          "name": "G4",
          "ticks": 391740,
          "time": 1176.0448423333332,
          "velocity": 0.7874015748031497
        },
        {
          "duration": 0.15625,
          "durationTicks": 15,
          "midi": 68,
          "name": "G#4",
          "ticks": 391800,
          "time": 1176.6698423333332,
          "velocity": 0.7874015748031497
        },
        {
          "duration": 0.15625,
          "durationTicks": 15,
          "midi": 67,
          "name": "G4",
          "ticks": 391815,
          "time": 1176.8260923333332,
          "velocity": 0.7874015748031497
        },
        {
          "duration": 0.3125,
          "durationTicks": 30,
          "midi": 66,
          "name": "F#4",
          "ticks": 391830,
          "time": 1176.9823423333332,
          "velocity": 0.7874015748031497
        },
        {
          "duration": 0.625,
          "durationTicks": 60,
          "midi": 67,
          "name": "G4",
          "ticks": 391860,
          "time": 1177.2948423333332,
          "velocity": 0.7874015748031497
        },
        {
          "duration": 0.3125,
          "durationTicks": 30,
          "midi": 67,
          "name": "G4",
          "ticks": 391920,
          "time": 1177.9198423333332,
          "velocity": 0.7874015748031497
        },
        {
          "duration": 1.25,
          "durationTicks": 120,
          "midi": 75,
          "name": "D#5",
          "ticks": 391950,
          "time": 1178.2323423333332,
          "velocity": 0.7874015748031497
        },
        {
          "duration": 0.3125,
          "durationTicks": 30,
          "midi": 74,
          "name": "D5",
          "ticks": 392070,
          "time": 1179.4823423333332,
          "velocity": 0.7874015748031497
        },
        {
          "duration": 0.3125,
          "durationTicks": 30,
          "midi": 72,
          "name": "C5",
          "ticks": 392100,
          "time": 1179.7948423333332,
          "velocity": 0.7874015748031497
        },
        {
          "duration": 0.3125,
          "durationTicks": 30,
          "midi": 70,
          "name": "A#4",
          "ticks": 392130,
          "time": 1180.1073423333332,
          "velocity": 0.7874015748031497
        },
        {
          "duration": 0.625,
          "durationTicks": 60,
          "midi": 68,
          "name": "G#4",
          "ticks": 392160,
          "time": 1180.4198423333332,
          "velocity": 0.7874015748031497
        },
        {
          "duration": 1.25,
          "durationTicks": 120,
          "midi": 67,
          "name": "G4",
          "ticks": 392220,
          "time": 1181.0448423333332,
          "velocity": 0.7874015748031497
        },
        {
          "duration": 1.25,
          "durationTicks": 120,
          "midi": 66,
          "name": "F#4",
          "ticks": 392340,
          "time": 1182.2948423333332,
          "velocity": 0.7874015748031497
        },
        {
          "duration": 0.625,
          "durationTicks": 60,
          "midi": 65,
          "name": "F4",
          "ticks": 392460,
          "time": 1183.5448423333332,
          "velocity": 0.7874015748031497
        },
        {
          "duration": 0.15625,
          "durationTicks": 15,
          "midi": 67,
          "name": "G4",
          "ticks": 392520,
          "time": 1184.1698423333332,
          "velocity": 0.7874015748031497
        },
        {
          "duration": 0.15625,
          "durationTicks": 15,
          "midi": 65,
          "name": "F4",
          "ticks": 392535,
          "time": 1184.3260923333332,
          "velocity": 0.7874015748031497
        },
        {
          "duration": 0.3125,
          "durationTicks": 30,
          "midi": 64,
          "name": "E4",
          "ticks": 392550,
          "time": 1184.4823423333332,
          "velocity": 0.7874015748031497
        },
        {
          "duration": 0.625,
          "durationTicks": 60,
          "midi": 65,
          "name": "F4",
          "ticks": 392580,
          "time": 1184.7948423333332,
          "velocity": 0.7874015748031497
        },
        {
          "duration": 1.5625,
          "durationTicks": 150,
          "midi": 73,
          "name": "C#5",
          "ticks": 392640,
          "time": 1185.4198423333332,
          "velocity": 0.7874015748031497
        },
        {
          "duration": 0.3125,
          "durationTicks": 30,
          "midi": 72,
          "name": "C5",
          "ticks": 392790,
          "time": 1186.9823423333332,
          "velocity": 0.7874015748031497
        },
        {
          "duration": 0.3125,
          "durationTicks": 30,
          "midi": 70,
          "name": "A#4",
          "ticks": 392820,
          "time": 1187.2948423333332,
          "velocity": 0.7874015748031497
        },
        {
          "duration": 0.3125,
          "durationTicks": 30,
          "midi": 68,
          "name": "G#4",
          "ticks": 392850,
          "time": 1187.6073423333332,
          "velocity": 0.7874015748031497
        },
        {
          "duration": 0.625,
          "durationTicks": 60,
          "midi": 66,
          "name": "F#4",
          "ticks": 392880,
          "time": 1187.9198423333332,
          "velocity": 0.7874015748031497
        },
        {
          "duration": 1.25,
          "durationTicks": 120,
          "midi": 65,
          "name": "F4",
          "ticks": 392940,
          "time": 1188.5448423333332,
          "velocity": 0.7874015748031497
        },
        {
          "duration": 1.25,
          "durationTicks": 120,
          "midi": 64,
          "name": "E4",
          "ticks": 393060,
          "time": 1189.7948423333332,
          "velocity": 0.7874015748031497
        },
        {
          "duration": 0.625,
          "durationTicks": 60,
          "midi": 63,
          "name": "D#4",
          "ticks": 393180,
          "time": 1191.0448423333332,
          "velocity": 0.7874015748031497
        },
        {
          "duration": 0.15625,
          "durationTicks": 15,
          "midi": 65,
          "name": "F4",
          "ticks": 393240,
          "time": 1191.6698423333332,
          "velocity": 0.7874015748031497
        },
        {
          "duration": 0.15625,
          "durationTicks": 15,
          "midi": 63,
          "name": "D#4",
          "ticks": 393255,
          "time": 1191.8260923333332,
          "velocity": 0.7874015748031497
        },
        {
          "duration": 0.3125,
          "durationTicks": 30,
          "midi": 62,
          "name": "D4",
          "ticks": 393270,
          "time": 1191.9823423333332,
          "velocity": 0.7874015748031497
        },
        {
          "duration": 0.625,
          "durationTicks": 60,
          "midi": 63,
          "name": "D#4",
          "ticks": 393300,
          "time": 1192.2948423333332,
          "velocity": 0.7874015748031497
        },
        {
          "duration": 1.5625,
          "durationTicks": 150,
          "midi": 72,
          "name": "C5",
          "ticks": 393360,
          "time": 1192.9198423333332,
          "velocity": 0.7874015748031497
        },
        {
          "duration": 0.3125,
          "durationTicks": 30,
          "midi": 70,
          "name": "A#4",
          "ticks": 393510,
          "time": 1194.4823423333332,
          "velocity": 0.7874015748031497
        },
        {
          "duration": 0.3125,
          "durationTicks": 30,
          "midi": 68,
          "name": "G#4",
          "ticks": 393540,
          "time": 1194.7948423333332,
          "velocity": 0.7874015748031497
        },
        {
          "duration": 0.3125,
          "durationTicks": 30,
          "midi": 67,
          "name": "G4",
          "ticks": 393570,
          "time": 1195.1073423333332,
          "velocity": 0.7874015748031497
        },
        {
          "duration": 0.625,
          "durationTicks": 60,
          "midi": 66,
          "name": "F#4",
          "ticks": 393600,
          "time": 1195.4198423333332,
          "velocity": 0.7874015748031497
        },
        {
          "duration": 0.9375,
          "durationTicks": 90,
          "midi": 75,
          "name": "D#5",
          "ticks": 393660,
          "time": 1196.0448423333332,
          "velocity": 0.7874015748031497
        },
        {
          "duration": 0.3125,
          "durationTicks": 30,
          "midi": 74,
          "name": "D5",
          "ticks": 393750,
          "time": 1196.9823423333332,
          "velocity": 0.7874015748031497
        },
        {
          "duration": 0.625,
          "durationTicks": 60,
          "midi": 73,
          "name": "C#5",
          "ticks": 393780,
          "time": 1197.2948423333332,
          "velocity": 0.7874015748031497
        },
        {
          "duration": 0.625,
          "durationTicks": 60,
          "midi": 73,
          "name": "C#5",
          "ticks": 393840,
          "time": 1197.9198423333332,
          "velocity": 0.7874015748031497
        },
        {
          "duration": 0.625,
          "durationTicks": 60,
          "midi": 74,
          "name": "D5",
          "ticks": 393900,
          "time": 1198.5448423333332,
          "velocity": 0.7874015748031497
        },
        {
          "duration": 0.625,
          "durationTicks": 60,
          "midi": 63,
          "name": "D#4",
          "ticks": 393960,
          "time": 1199.1698423333332,
          "velocity": 0.7874015748031497
        },
        {
          "duration": 0.625,
          "durationTicks": 60,
          "midi": 62,
          "name": "D4",
          "ticks": 394020,
          "time": 1199.7948423333332,
          "velocity": 0.7874015748031497
        },
        {
          "duration": 0.3125,
          "durationTicks": 30,
          "midi": 64,
          "name": "E4",
          "ticks": 394110,
          "time": 1200.7323423333332,
          "velocity": 0.7874015748031497
        },
        {
          "duration": 0.3125,
          "durationTicks": 30,
          "midi": 66,
          "name": "F#4",
          "ticks": 394140,
          "time": 1201.0448423333332,
          "velocity": 0.7874015748031497
        },
        {
          "duration": 0.3125,
          "durationTicks": 30,
          "midi": 67,
          "name": "G4",
          "ticks": 394170,
          "time": 1201.3573423333332,
          "velocity": 0.7874015748031497
        },
        {
          "duration": 0.3125,
          "durationTicks": 30,
          "midi": 69,
          "name": "A4",
          "ticks": 394200,
          "time": 1201.6698423333332,
          "velocity": 0.7874015748031497
        },
        {
          "duration": 0.3125,
          "durationTicks": 30,
          "midi": 70,
          "name": "A#4",
          "ticks": 394230,
          "time": 1201.9823423333332,
          "velocity": 0.7874015748031497
        },
        {
          "duration": 0.3125,
          "durationTicks": 30,
          "midi": 72,
          "name": "C5",
          "ticks": 394260,
          "time": 1202.2948423333332,
          "velocity": 0.7874015748031497
        },
        {
          "duration": 0.3125,
          "durationTicks": 30,
          "midi": 74,
          "name": "D5",
          "ticks": 394290,
          "time": 1202.6073423333332,
          "velocity": 0.7874015748031497
        },
        {
          "duration": 0.3125,
          "durationTicks": 30,
          "midi": 75,
          "name": "D#5",
          "ticks": 394320,
          "time": 1202.9198423333332,
          "velocity": 0.7874015748031497
        },
        {
          "duration": 0.3125,
          "durationTicks": 30,
          "midi": 74,
          "name": "D5",
          "ticks": 394350,
          "time": 1203.2323423333332,
          "velocity": 0.7874015748031497
        },
        {
          "duration": 0.9375,
          "durationTicks": 90,
          "midi": 79,
          "name": "G5",
          "ticks": 394380,
          "time": 1203.5448423333332,
          "velocity": 0.7874015748031497
        },
        {
          "duration": 0.3125,
          "durationTicks": 30,
          "midi": 78,
          "name": "F#5",
          "ticks": 394470,
          "time": 1204.4823423333332,
          "velocity": 0.7874015748031497
        },
        {
          "duration": 1.25,
          "durationTicks": 120,
          "midi": 81,
          "name": "A5",
          "ticks": 394500,
          "time": 1204.7948423333332,
          "velocity": 0.7874015748031497
        },
        {
          "duration": 0.625,
          "durationTicks": 60,
          "midi": 74,
          "name": "D5",
          "ticks": 394620,
          "time": 1206.0448423333332,
          "velocity": 0.7874015748031497
        },
        {
          "duration": 0.15625,
          "durationTicks": 15,
          "midi": 75,
          "name": "D#5",
          "ticks": 394680,
          "time": 1206.6698423333332,
          "velocity": 0.7874015748031497
        },
        {
          "duration": 0.15625,
          "durationTicks": 15,
          "midi": 74,
          "name": "D5",
          "ticks": 394695,
          "time": 1206.8260923333332,
          "velocity": 0.7874015748031497
        },
        {
          "duration": 0.3125,
          "durationTicks": 30,
          "midi": 73,
          "name": "C#5",
          "ticks": 394710,
          "time": 1206.9823423333332,
          "velocity": 0.7874015748031497
        },
        {
          "duration": 0.625,
          "durationTicks": 60,
          "midi": 74,
          "name": "D5",
          "ticks": 394740,
          "time": 1207.2948423333332,
          "velocity": 0.7874015748031497
        },
        {
          "duration": 1.5625,
          "durationTicks": 150,
          "midi": 86,
          "name": "D6",
          "ticks": 394800,
          "time": 1207.9198423333332,
          "velocity": 0.7874015748031497
        },
        {
          "duration": 0.3125,
          "durationTicks": 30,
          "midi": 84,
          "name": "C6",
          "ticks": 394950,
          "time": 1209.4823423333332,
          "velocity": 0.7874015748031497
        },
        {
          "duration": 0.3125,
          "durationTicks": 30,
          "midi": 82,
          "name": "A#5",
          "ticks": 394980,
          "time": 1209.7948423333332,
          "velocity": 0.7874015748031497
        },
        {
          "duration": 0.3125,
          "durationTicks": 30,
          "midi": 81,
          "name": "A5",
          "ticks": 395010,
          "time": 1210.1073423333332,
          "velocity": 0.7874015748031497
        },
        {
          "duration": 0.3125,
          "durationTicks": 30,
          "midi": 79,
          "name": "G5",
          "ticks": 395040,
          "time": 1210.4198423333332,
          "velocity": 0.7874015748031497
        },
        {
          "duration": 0.3125,
          "durationTicks": 30,
          "midi": 86,
          "name": "D6",
          "ticks": 395070,
          "time": 1210.7323423333332,
          "velocity": 0.7874015748031497
        },
        {
          "duration": 0.9375,
          "durationTicks": 90,
          "midi": 77,
          "name": "F5",
          "ticks": 395100,
          "time": 1211.0448423333332,
          "velocity": 0.7874015748031497
        },
        {
          "duration": 0.3125,
          "durationTicks": 30,
          "midi": 75,
          "name": "D#5",
          "ticks": 395190,
          "time": 1211.9823423333332,
          "velocity": 0.7874015748031497
        },
        {
          "duration": 0.3125,
          "durationTicks": 30,
          "midi": 74,
          "name": "D5",
          "ticks": 395220,
          "time": 1212.2948423333332,
          "velocity": 0.7874015748031497
        },
        {
          "duration": 0.3125,
          "durationTicks": 30,
          "midi": 72,
          "name": "C5",
          "ticks": 395250,
          "time": 1212.6073423333332,
          "velocity": 0.7874015748031497
        },
        {
          "duration": 0.3125,
          "durationTicks": 30,
          "midi": 74,
          "name": "D5",
          "ticks": 395280,
          "time": 1212.9198423333332,
          "velocity": 0.7874015748031497
        },
        {
          "duration": 0.3125,
          "durationTicks": 30,
          "midi": 80,
          "name": "G#5",
          "ticks": 395310,
          "time": 1213.2323423333332,
          "velocity": 0.7874015748031497
        },
        {
          "duration": 0.3125,
          "durationTicks": 30,
          "midi": 79,
          "name": "G5",
          "ticks": 395340,
          "time": 1213.5448423333332,
          "velocity": 0.7874015748031497
        },
        {
          "duration": 0.3125,
          "durationTicks": 30,
          "midi": 77,
          "name": "F5",
          "ticks": 395370,
          "time": 1213.8573423333332,
          "velocity": 0.7874015748031497
        },
        {
          "duration": 0.3125,
          "durationTicks": 30,
          "midi": 75,
          "name": "D#5",
          "ticks": 395400,
          "time": 1214.1698423333332,
          "velocity": 0.7874015748031497
        },
        {
          "duration": 0.3125,
          "durationTicks": 30,
          "midi": 74,
          "name": "D5",
          "ticks": 395430,
          "time": 1214.4823423333332,
          "velocity": 0.7874015748031497
        },
        {
          "duration": 0.3125,
          "durationTicks": 30,
          "midi": 72,
          "name": "C5",
          "ticks": 395460,
          "time": 1214.7948423333332,
          "velocity": 0.7874015748031497
        },
        {
          "duration": 0.3125,
          "durationTicks": 30,
          "midi": 71,
          "name": "B4",
          "ticks": 395490,
          "time": 1215.1073423333332,
          "velocity": 0.7874015748031497
        },
        {
          "duration": 0.3125,
          "durationTicks": 30,
          "midi": 72,
          "name": "C5",
          "ticks": 395520,
          "time": 1215.4198423333332,
          "velocity": 0.7874015748031497
        },
        {
          "duration": 0.3125,
          "durationTicks": 30,
          "midi": 77,
          "name": "F5",
          "ticks": 395550,
          "time": 1215.7323423333332,
          "velocity": 0.7874015748031497
        },
        {
          "duration": 0.3125,
          "durationTicks": 30,
          "midi": 75,
          "name": "D#5",
          "ticks": 395580,
          "time": 1216.0448423333332,
          "velocity": 0.7874015748031497
        },
        {
          "duration": 0.3125,
          "durationTicks": 30,
          "midi": 74,
          "name": "D5",
          "ticks": 395610,
          "time": 1216.3573423333332,
          "velocity": 0.7874015748031497
        },
        {
          "duration": 0.3125,
          "durationTicks": 30,
          "midi": 72,
          "name": "C5",
          "ticks": 395640,
          "time": 1216.6698423333332,
          "velocity": 0.7874015748031497
        },
        {
          "duration": 0.3125,
          "durationTicks": 30,
          "midi": 70,
          "name": "A#4",
          "ticks": 395670,
          "time": 1216.9823423333332,
          "velocity": 0.7874015748031497
        },
        {
          "duration": 0.3125,
          "durationTicks": 30,
          "midi": 69,
          "name": "A4",
          "ticks": 395700,
          "time": 1217.2948423333332,
          "velocity": 0.7874015748031497
        },
        {
          "duration": 0.3125,
          "durationTicks": 30,
          "midi": 67,
          "name": "G4",
          "ticks": 395730,
          "time": 1217.6073423333332,
          "velocity": 0.7874015748031497
        },
        {
          "duration": 0.3125,
          "durationTicks": 30,
          "midi": 69,
          "name": "A4",
          "ticks": 395760,
          "time": 1217.9198423333332,
          "velocity": 0.7874015748031497
        },
        {
          "duration": 0.3125,
          "durationTicks": 30,
          "midi": 74,
          "name": "D5",
          "ticks": 395790,
          "time": 1218.2323423333332,
          "velocity": 0.7874015748031497
        },
        {
          "duration": 0.3125,
          "durationTicks": 30,
          "midi": 72,
          "name": "C5",
          "ticks": 395820,
          "time": 1218.5448423333332,
          "velocity": 0.7874015748031497
        },
        {
          "duration": 0.3125,
          "durationTicks": 30,
          "midi": 70,
          "name": "A#4",
          "ticks": 395850,
          "time": 1218.8573423333332,
          "velocity": 0.7874015748031497
        },
        {
          "duration": 0.3125,
          "durationTicks": 30,
          "midi": 69,
          "name": "A4",
          "ticks": 395880,
          "time": 1219.1698423333332,
          "velocity": 0.7874015748031497
        },
        {
          "duration": 0.3125,
          "durationTicks": 30,
          "midi": 67,
          "name": "G4",
          "ticks": 395910,
          "time": 1219.4823423333332,
          "velocity": 0.7874015748031497
        },
        {
          "duration": 0.3125,
          "durationTicks": 30,
          "midi": 66,
          "name": "F#4",
          "ticks": 395940,
          "time": 1219.7948423333332,
          "velocity": 0.7874015748031497
        },
        {
          "duration": 0.3125,
          "durationTicks": 30,
          "midi": 64,
          "name": "E4",
          "ticks": 395970,
          "time": 1220.1073423333332,
          "velocity": 0.7874015748031497
        },
        {
          "duration": 0.3125,
          "durationTicks": 30,
          "midi": 66,
          "name": "F#4",
          "ticks": 396000,
          "time": 1220.4198423333332,
          "velocity": 0.7874015748031497
        },
        {
          "duration": 0.3125,
          "durationTicks": 30,
          "midi": 70,
          "name": "A#4",
          "ticks": 396030,
          "time": 1220.7323423333332,
          "velocity": 0.7874015748031497
        },
        {
          "duration": 0.3125,
          "durationTicks": 30,
          "midi": 69,
          "name": "A4",
          "ticks": 396060,
          "time": 1221.0448423333332,
          "velocity": 0.7874015748031497
        },
        {
          "duration": 0.3125,
          "durationTicks": 30,
          "midi": 67,
          "name": "G4",
          "ticks": 396090,
          "time": 1221.3573423333332,
          "velocity": 0.7874015748031497
        },
        {
          "duration": 0.3125,
          "durationTicks": 30,
          "midi": 66,
          "name": "F#4",
          "ticks": 396120,
          "time": 1221.6698423333332,
          "velocity": 0.7874015748031497
        },
        {
          "duration": 0.3125,
          "durationTicks": 30,
          "midi": 64,
          "name": "E4",
          "ticks": 396150,
          "time": 1221.9823423333332,
          "velocity": 0.7874015748031497
        },
        {
          "duration": 0.3125,
          "durationTicks": 30,
          "midi": 62,
          "name": "D4",
          "ticks": 396180,
          "time": 1222.2948423333332,
          "velocity": 0.7874015748031497
        },
        {
          "duration": 0.3125,
          "durationTicks": 30,
          "midi": 61,
          "name": "C#4",
          "ticks": 396210,
          "time": 1222.6073423333332,
          "velocity": 0.7874015748031497
        },
        {
          "duration": 0.3125,
          "durationTicks": 30,
          "midi": 62,
          "name": "D4",
          "ticks": 396240,
          "time": 1222.9198423333332,
          "velocity": 0.7874015748031497
        },
        {
          "duration": 0.3125,
          "durationTicks": 30,
          "midi": 67,
          "name": "G4",
          "ticks": 396270,
          "time": 1223.2323423333332,
          "velocity": 0.7874015748031497
        },
        {
          "duration": 0.3125,
          "durationTicks": 30,
          "midi": 66,
          "name": "F#4",
          "ticks": 396300,
          "time": 1223.5448423333332,
          "velocity": 0.7874015748031497
        },
        {
          "duration": 0.3125,
          "durationTicks": 30,
          "midi": 64,
          "name": "E4",
          "ticks": 396330,
          "time": 1223.8573423333332,
          "velocity": 0.7874015748031497
        },
        {
          "duration": 0.3125,
          "durationTicks": 30,
          "midi": 62,
          "name": "D4",
          "ticks": 396360,
          "time": 1224.1698423333332,
          "velocity": 0.7874015748031497
        },
        {
          "duration": 0.3125,
          "durationTicks": 30,
          "midi": 60,
          "name": "C4",
          "ticks": 396390,
          "time": 1224.4823423333332,
          "velocity": 0.7874015748031497
        },
        {
          "duration": 0.3125,
          "durationTicks": 30,
          "midi": 58,
          "name": "A#3",
          "ticks": 396420,
          "time": 1224.7948423333332,
          "velocity": 0.7874015748031497
        },
        {
          "duration": 0.3125,
          "durationTicks": 30,
          "midi": 57,
          "name": "A3",
          "ticks": 396450,
          "time": 1225.1073423333332,
          "velocity": 0.7874015748031497
        },
        {
          "duration": 0.3125,
          "durationTicks": 30,
          "midi": 58,
          "name": "A#3",
          "ticks": 396480,
          "time": 1225.4198423333332,
          "velocity": 0.7874015748031497
        },
        {
          "duration": 0.3125,
          "durationTicks": 30,
          "midi": 63,
          "name": "D#4",
          "ticks": 396510,
          "time": 1225.7323423333332,
          "velocity": 0.7874015748031497
        },
        {
          "duration": 0.3125,
          "durationTicks": 30,
          "midi": 62,
          "name": "D4",
          "ticks": 396540,
          "time": 1226.0448423333332,
          "velocity": 0.7874015748031497
        },
        {
          "duration": 0.3125,
          "durationTicks": 30,
          "midi": 60,
          "name": "C4",
          "ticks": 396570,
          "time": 1226.3573423333332,
          "velocity": 0.7874015748031497
        },
        {
          "duration": 0.3125,
          "durationTicks": 30,
          "midi": 58,
          "name": "A#3",
          "ticks": 396600,
          "time": 1226.6698423333332,
          "velocity": 0.7874015748031497
        },
        {
          "duration": 0.3125,
          "durationTicks": 30,
          "midi": 57,
          "name": "A3",
          "ticks": 396630,
          "time": 1226.9823423333332,
          "velocity": 0.7874015748031497
        },
        {
          "duration": 0.3125,
          "durationTicks": 30,
          "midi": 55,
          "name": "G3",
          "ticks": 396660,
          "time": 1227.2948423333332,
          "velocity": 0.7874015748031497
        },
        {
          "duration": 0.3125,
          "durationTicks": 30,
          "midi": 54,
          "name": "F#3",
          "ticks": 396690,
          "time": 1227.6073423333332,
          "velocity": 0.7874015748031497
        },
        {
          "duration": 2.5,
          "durationTicks": 240,
          "midi": 55,
          "name": "G3",
          "ticks": 396720,
          "time": 1227.9198423333332,
          "velocity": 0.7874015748031497
        },
        {
          "duration": 2.5,
          "durationTicks": 240,
          "midi": 55,
          "name": "G3",
          "ticks": 396720,
          "time": 1227.9198423333332,
          "velocity": 0.7874015748031497
        },
        {
          "duration": 1.25,
          "durationTicks": 120,
          "midi": 54,
          "name": "F#3",
          "ticks": 397320,
          "time": 1234.1698423333332,
          "velocity": 0.7874015748031497
        },
        {
          "duration": 7.5,
          "durationTicks": 720,
          "midi": 55,
          "name": "G3",
          "ticks": 397440,
          "time": 1235.4198423333332,
          "velocity": 0.7874015748031497
        },
        {
          "duration": 0.08333333333325754,
          "durationTicks": 40,
          "midi": 55,
          "name": "G3",
          "ticks": 399600,
          "time": 1255.9198423333332,
          "velocity": 0.7874015748031497
        },
        {
          "duration": 0.08333333333348492,
          "durationTicks": 40,
          "midi": 57,
          "name": "A3",
          "ticks": 399640,
          "time": 1256.0031756666665,
          "velocity": 0.7874015748031497
        },
        {
          "duration": 0.08333333333325754,
          "durationTicks": 40,
          "midi": 55,
          "name": "G3",
          "ticks": 399680,
          "time": 1256.086509,
          "velocity": 0.7874015748031497
        },
        {
          "duration": 0.08333333333325754,
          "durationTicks": 40,
          "midi": 50,
          "name": "D3",
          "ticks": 399720,
          "time": 1256.1698423333332,
          "velocity": 0.7874015748031497
        },
        {
          "duration": 0.08333333333348492,
          "durationTicks": 40,
          "midi": 52,
          "name": "E3",
          "ticks": 399760,
          "time": 1256.2531756666665,
          "velocity": 0.7874015748031497
        },
        {
          "duration": 0.08333333333325754,
          "durationTicks": 40,
          "midi": 54,
          "name": "F#3",
          "ticks": 399800,
          "time": 1256.336509,
          "velocity": 0.7874015748031497
        },
        {
          "duration": 0.08333333333325754,
          "durationTicks": 40,
          "midi": 55,
          "name": "G3",
          "ticks": 399840,
          "time": 1256.4198423333332,
          "velocity": 0.7874015748031497
        },
        {
          "duration": 0.08333333333348492,
          "durationTicks": 40,
          "midi": 54,
          "name": "F#3",
          "ticks": 399880,
          "time": 1256.5031756666665,
          "velocity": 0.7874015748031497
        },
        {
          "duration": 0.08333333333325754,
          "durationTicks": 40,
          "midi": 55,
          "name": "G3",
          "ticks": 399920,
          "time": 1256.586509,
          "velocity": 0.7874015748031497
        },
        {
          "duration": 0.08333333333325754,
          "durationTicks": 40,
          "midi": 57,
          "name": "A3",
          "ticks": 399960,
          "time": 1256.6698423333332,
          "velocity": 0.7874015748031497
        },
        {
          "duration": 0.08333333333348492,
          "durationTicks": 40,
          "midi": 55,
          "name": "G3",
          "ticks": 400000,
          "time": 1256.7531756666665,
          "velocity": 0.7874015748031497
        },
        {
          "duration": 0.08333333333325754,
          "durationTicks": 40,
          "midi": 57,
          "name": "A3",
          "ticks": 400040,
          "time": 1256.836509,
          "velocity": 0.7874015748031497
        },
        {
          "duration": 0.08333333333325754,
          "durationTicks": 40,
          "midi": 59,
          "name": "B3",
          "ticks": 400080,
          "time": 1256.9198423333332,
          "velocity": 0.7874015748031497
        },
        {
          "duration": 0.08333333333348492,
          "durationTicks": 40,
          "midi": 57,
          "name": "A3",
          "ticks": 400120,
          "time": 1257.0031756666665,
          "velocity": 0.7874015748031497
        },
        {
          "duration": 0.08333333333325754,
          "durationTicks": 40,
          "midi": 59,
          "name": "B3",
          "ticks": 400160,
          "time": 1257.086509,
          "velocity": 0.7874015748031497
        },
        {
          "duration": 0.08333333333325754,
          "durationTicks": 40,
          "midi": 60,
          "name": "C4",
          "ticks": 400200,
          "time": 1257.1698423333332,
          "velocity": 0.7874015748031497
        },
        {
          "duration": 0.08333333333348492,
          "durationTicks": 40,
          "midi": 59,
          "name": "B3",
          "ticks": 400240,
          "time": 1257.2531756666665,
          "velocity": 0.7874015748031497
        },
        {
          "duration": 0.08333333333325754,
          "durationTicks": 40,
          "midi": 61,
          "name": "C#4",
          "ticks": 400280,
          "time": 1257.336509,
          "velocity": 0.7874015748031497
        },
        {
          "duration": 0.08333333333325754,
          "durationTicks": 40,
          "midi": 62,
          "name": "D4",
          "ticks": 400320,
          "time": 1257.4198423333332,
          "velocity": 0.7874015748031497
        },
        {
          "duration": 0.08333333333348492,
          "durationTicks": 40,
          "midi": 64,
          "name": "E4",
          "ticks": 400360,
          "time": 1257.5031756666665,
          "velocity": 0.7874015748031497
        },
        {
          "duration": 0.08333333333325754,
          "durationTicks": 40,
          "midi": 62,
          "name": "D4",
          "ticks": 400400,
          "time": 1257.586509,
          "velocity": 0.7874015748031497
        },
        {
          "duration": 0.08333333333325754,
          "durationTicks": 40,
          "midi": 57,
          "name": "A3",
          "ticks": 400440,
          "time": 1257.6698423333332,
          "velocity": 0.7874015748031497
        },
        {
          "duration": 0.08333333333348492,
          "durationTicks": 40,
          "midi": 59,
          "name": "B3",
          "ticks": 400480,
          "time": 1257.7531756666665,
          "velocity": 0.7874015748031497
        },
        {
          "duration": 0.08333333333325754,
          "durationTicks": 40,
          "midi": 61,
          "name": "C#4",
          "ticks": 400520,
          "time": 1257.836509,
          "velocity": 0.7874015748031497
        },
        {
          "duration": 0.08333333333325754,
          "durationTicks": 40,
          "midi": 62,
          "name": "D4",
          "ticks": 400560,
          "time": 1257.9198423333332,
          "velocity": 0.7874015748031497
        },
        {
          "duration": 0.08333333333348492,
          "durationTicks": 40,
          "midi": 61,
          "name": "C#4",
          "ticks": 400600,
          "time": 1258.0031756666665,
          "velocity": 0.7874015748031497
        },
        {
          "duration": 0.08333333333325754,
          "durationTicks": 40,
          "midi": 62,
          "name": "D4",
          "ticks": 400640,
          "time": 1258.086509,
          "velocity": 0.7874015748031497
        },
        {
          "duration": 0.08333333333325754,
          "durationTicks": 40,
          "midi": 64,
          "name": "E4",
          "ticks": 400680,
          "time": 1258.1698423333332,
          "velocity": 0.7874015748031497
        },
        {
          "duration": 0.08333333333348492,
          "durationTicks": 40,
          "midi": 62,
          "name": "D4",
          "ticks": 400720,
          "time": 1258.2531756666665,
          "velocity": 0.7874015748031497
        },
        {
          "duration": 0.08333333333325754,
          "durationTicks": 40,
          "midi": 64,
          "name": "E4",
          "ticks": 400760,
          "time": 1258.336509,
          "velocity": 0.7874015748031497
        },
        {
          "duration": 0.08333333333325754,
          "durationTicks": 40,
          "midi": 66,
          "name": "F#4",
          "ticks": 400800,
          "time": 1258.4198423333332,
          "velocity": 0.7874015748031497
        },
        {
          "duration": 0.08333333333348492,
          "durationTicks": 40,
          "midi": 64,
          "name": "E4",
          "ticks": 400840,
          "time": 1258.5031756666665,
          "velocity": 0.7874015748031497
        },
        {
          "duration": 0.08333333333325754,
          "durationTicks": 40,
          "midi": 66,
          "name": "F#4",
          "ticks": 400880,
          "time": 1258.586509,
          "velocity": 0.7874015748031497
        },
        {
          "duration": 0.08333333333325754,
          "durationTicks": 40,
          "midi": 67,
          "name": "G4",
          "ticks": 400920,
          "time": 1258.6698423333332,
          "velocity": 0.7874015748031497
        },
        {
          "duration": 0.08333333333348492,
          "durationTicks": 40,
          "midi": 64,
          "name": "E4",
          "ticks": 400960,
          "time": 1258.7531756666665,
          "velocity": 0.7874015748031497
        },
        {
          "duration": 0.08333333333325754,
          "durationTicks": 40,
          "midi": 66,
          "name": "F#4",
          "ticks": 401000,
          "time": 1258.836509,
          "velocity": 0.7874015748031497
        },
        {
          "duration": 0.08333333333325754,
          "durationTicks": 40,
          "midi": 67,
          "name": "G4",
          "ticks": 401040,
          "time": 1258.9198423333332,
          "velocity": 0.7874015748031497
        },
        {
          "duration": 0.08333333333348492,
          "durationTicks": 40,
          "midi": 69,
          "name": "A4",
          "ticks": 401080,
          "time": 1259.0031756666665,
          "velocity": 0.7874015748031497
        },
        {
          "duration": 0.08333333333325754,
          "durationTicks": 40,
          "midi": 67,
          "name": "G4",
          "ticks": 401120,
          "time": 1259.086509,
          "velocity": 0.7874015748031497
        },
        {
          "duration": 0.08333333333325754,
          "durationTicks": 40,
          "midi": 59,
          "name": "B3",
          "ticks": 401160,
          "time": 1259.1698423333332,
          "velocity": 0.7874015748031497
        },
        {
          "duration": 0.08333333333348492,
          "durationTicks": 40,
          "midi": 64,
          "name": "E4",
          "ticks": 401200,
          "time": 1259.2531756666665,
          "velocity": 0.7874015748031497
        },
        {
          "duration": 0.08333333333325754,
          "durationTicks": 40,
          "midi": 66,
          "name": "F#4",
          "ticks": 401240,
          "time": 1259.336509,
          "velocity": 0.7874015748031497
        },
        {
          "duration": 0.08333333333325754,
          "durationTicks": 40,
          "midi": 67,
          "name": "G4",
          "ticks": 401280,
          "time": 1259.4198423333332,
          "velocity": 0.7874015748031497
        },
        {
          "duration": 0.08333333333348492,
          "durationTicks": 40,
          "midi": 66,
          "name": "F#4",
          "ticks": 401320,
          "time": 1259.5031756666665,
          "velocity": 0.7874015748031497
        },
        {
          "duration": 0.08333333333325754,
          "durationTicks": 40,
          "midi": 67,
          "name": "G4",
          "ticks": 401360,
          "time": 1259.586509,
          "velocity": 0.7874015748031497
        },
        {
          "duration": 0.08333333333325754,
          "durationTicks": 40,
          "midi": 69,
          "name": "A4",
          "ticks": 401400,
          "time": 1259.6698423333332,
          "velocity": 0.7874015748031497
        },
        {
          "duration": 0.08333333333348492,
          "durationTicks": 40,
          "midi": 67,
          "name": "G4",
          "ticks": 401440,
          "time": 1259.7531756666665,
          "velocity": 0.7874015748031497
        },
        {
          "duration": 0.08333333333325754,
          "durationTicks": 40,
          "midi": 69,
          "name": "A4",
          "ticks": 401480,
          "time": 1259.836509,
          "velocity": 0.7874015748031497
        },
        {
          "duration": 0.08333333333325754,
          "durationTicks": 40,
          "midi": 71,
          "name": "B4",
          "ticks": 401520,
          "time": 1259.9198423333332,
          "velocity": 0.7874015748031497
        },
        {
          "duration": 0.08333333333348492,
          "durationTicks": 40,
          "midi": 69,
          "name": "A4",
          "ticks": 401560,
          "time": 1260.0031756666665,
          "velocity": 0.7874015748031497
        },
        {
          "duration": 0.08333333333325754,
          "durationTicks": 40,
          "midi": 71,
          "name": "B4",
          "ticks": 401600,
          "time": 1260.086509,
          "velocity": 0.7874015748031497
        },
        {
          "duration": 0.08333333333325754,
          "durationTicks": 40,
          "midi": 73,
          "name": "C#5",
          "ticks": 401640,
          "time": 1260.1698423333332,
          "velocity": 0.7874015748031497
        },
        {
          "duration": 0.08333333333348492,
          "durationTicks": 40,
          "midi": 71,
          "name": "B4",
          "ticks": 401680,
          "time": 1260.2531756666665,
          "velocity": 0.7874015748031497
        },
        {
          "duration": 0.08333333333325754,
          "durationTicks": 40,
          "midi": 73,
          "name": "C#5",
          "ticks": 401720,
          "time": 1260.336509,
          "velocity": 0.7874015748031497
        },
        {
          "duration": 0.08333333333325754,
          "durationTicks": 40,
          "midi": 74,
          "name": "D5",
          "ticks": 401760,
          "time": 1260.4198423333332,
          "velocity": 0.7874015748031497
        },
        {
          "duration": 0.08333333333348492,
          "durationTicks": 40,
          "midi": 76,
          "name": "E5",
          "ticks": 401800,
          "time": 1260.5031756666665,
          "velocity": 0.7874015748031497
        },
        {
          "duration": 0.08333333333325754,
          "durationTicks": 40,
          "midi": 74,
          "name": "D5",
          "ticks": 401840,
          "time": 1260.586509,
          "velocity": 0.7874015748031497
        },
        {
          "duration": 0.08333333333325754,
          "durationTicks": 40,
          "midi": 69,
          "name": "A4",
          "ticks": 401880,
          "time": 1260.6698423333332,
          "velocity": 0.7874015748031497
        },
        {
          "duration": 0.08333333333348492,
          "durationTicks": 40,
          "midi": 71,
          "name": "B4",
          "ticks": 401920,
          "time": 1260.7531756666665,
          "velocity": 0.7874015748031497
        },
        {
          "duration": 0.08333333333325754,
          "durationTicks": 40,
          "midi": 73,
          "name": "C#5",
          "ticks": 401960,
          "time": 1260.836509,
          "velocity": 0.7874015748031497
        },
        {
          "duration": 0.08333333333325754,
          "durationTicks": 40,
          "midi": 74,
          "name": "D5",
          "ticks": 402000,
          "time": 1260.9198423333332,
          "velocity": 0.7874015748031497
        },
        {
          "duration": 0.08333333333348492,
          "durationTicks": 40,
          "midi": 73,
          "name": "C#5",
          "ticks": 402040,
          "time": 1261.0031756666665,
          "velocity": 0.7874015748031497
        },
        {
          "duration": 0.08333333333325754,
          "durationTicks": 40,
          "midi": 74,
          "name": "D5",
          "ticks": 402080,
          "time": 1261.086509,
          "velocity": 0.7874015748031497
        },
        {
          "duration": 0.08333333333325754,
          "durationTicks": 40,
          "midi": 76,
          "name": "E5",
          "ticks": 402120,
          "time": 1261.1698423333332,
          "velocity": 0.7874015748031497
        },
        {
          "duration": 0.08333333333348492,
          "durationTicks": 40,
          "midi": 74,
          "name": "D5",
          "ticks": 402160,
          "time": 1261.2531756666665,
          "velocity": 0.7874015748031497
        },
        {
          "duration": 0.08333333333325754,
          "durationTicks": 40,
          "midi": 76,
          "name": "E5",
          "ticks": 402200,
          "time": 1261.336509,
          "velocity": 0.7874015748031497
        },
        {
          "duration": 0.08333333333325754,
          "durationTicks": 40,
          "midi": 78,
          "name": "F#5",
          "ticks": 402240,
          "time": 1261.4198423333332,
          "velocity": 0.7874015748031497
        },
        {
          "duration": 0.08333333333348492,
          "durationTicks": 40,
          "midi": 76,
          "name": "E5",
          "ticks": 402280,
          "time": 1261.5031756666665,
          "velocity": 0.7874015748031497
        },
        {
          "duration": 0.08333333333325754,
          "durationTicks": 40,
          "midi": 78,
          "name": "F#5",
          "ticks": 402320,
          "time": 1261.586509,
          "velocity": 0.7874015748031497
        },
        {
          "duration": 0.08333333333325754,
          "durationTicks": 40,
          "midi": 79,
          "name": "G5",
          "ticks": 402360,
          "time": 1261.6698423333332,
          "velocity": 0.7874015748031497
        },
        {
          "duration": 0.08333333333348492,
          "durationTicks": 40,
          "midi": 76,
          "name": "E5",
          "ticks": 402400,
          "time": 1261.7531756666665,
          "velocity": 0.7874015748031497
        },
        {
          "duration": 0.08333333333325754,
          "durationTicks": 40,
          "midi": 78,
          "name": "F#5",
          "ticks": 402440,
          "time": 1261.836509,
          "velocity": 0.7874015748031497
        },
        {
          "duration": 0.08333333333325754,
          "durationTicks": 40,
          "midi": 79,
          "name": "G5",
          "ticks": 402480,
          "time": 1261.9198423333332,
          "velocity": 0.7874015748031497
        },
        {
          "duration": 0.08333333333348492,
          "durationTicks": 40,
          "midi": 78,
          "name": "F#5",
          "ticks": 402520,
          "time": 1262.0031756666665,
          "velocity": 0.7874015748031497
        },
        {
          "duration": 0.08333333333325754,
          "durationTicks": 40,
          "midi": 79,
          "name": "G5",
          "ticks": 402560,
          "time": 1262.086509,
          "velocity": 0.7874015748031497
        },
        {
          "duration": 0.08333333333325754,
          "durationTicks": 40,
          "midi": 74,
          "name": "D5",
          "ticks": 402600,
          "time": 1262.1698423333332,
          "velocity": 0.7874015748031497
        },
        {
          "duration": 0.08333333333348492,
          "durationTicks": 40,
          "midi": 72,
          "name": "C5",
          "ticks": 402640,
          "time": 1262.2531756666665,
          "velocity": 0.7874015748031497
        },
        {
          "duration": 0.08333333333325754,
          "durationTicks": 40,
          "midi": 74,
          "name": "D5",
          "ticks": 402680,
          "time": 1262.336509,
          "velocity": 0.7874015748031497
        },
        {
          "duration": 0.08333333333325754,
          "durationTicks": 40,
          "midi": 71,
          "name": "B4",
          "ticks": 402720,
          "time": 1262.4198423333332,
          "velocity": 0.7874015748031497
        },
        {
          "duration": 0.08333333333348492,
          "durationTicks": 40,
          "midi": 67,
          "name": "G4",
          "ticks": 402760,
          "time": 1262.5031756666665,
          "velocity": 0.7874015748031497
        },
        {
          "duration": 0.08333333333325754,
          "durationTicks": 40,
          "midi": 66,
          "name": "F#4",
          "ticks": 402800,
          "time": 1262.586509,
          "velocity": 0.7874015748031497
        },
        {
          "duration": 0.08333333333325754,
          "durationTicks": 40,
          "midi": 67,
          "name": "G4",
          "ticks": 402840,
          "time": 1262.6698423333332,
          "velocity": 0.7874015748031497
        },
        {
          "duration": 0.08333333333348492,
          "durationTicks": 40,
          "midi": 71,
          "name": "B4",
          "ticks": 402880,
          "time": 1262.7531756666665,
          "velocity": 0.7874015748031497
        },
        {
          "duration": 0.08333333333325754,
          "durationTicks": 40,
          "midi": 74,
          "name": "D5",
          "ticks": 402920,
          "time": 1262.836509,
          "velocity": 0.7874015748031497
        },
        {
          "duration": 0.08333333333325754,
          "durationTicks": 40,
          "midi": 77,
          "name": "F5",
          "ticks": 402960,
          "time": 1262.9198423333332,
          "velocity": 0.7874015748031497
        },
        {
          "duration": 0.08333333333348492,
          "durationTicks": 40,
          "midi": 76,
          "name": "E5",
          "ticks": 403000,
          "time": 1263.0031756666665,
          "velocity": 0.7874015748031497
        },
        {
          "duration": 0.08333333333325754,
          "durationTicks": 40,
          "midi": 77,
          "name": "F5",
          "ticks": 403040,
          "time": 1263.086509,
          "velocity": 0.7874015748031497
        },
        {
          "duration": 0.08333333333325754,
          "durationTicks": 40,
          "midi": 74,
          "name": "D5",
          "ticks": 403080,
          "time": 1263.1698423333332,
          "velocity": 0.7874015748031497
        },
        {
          "duration": 0.08333333333348492,
          "durationTicks": 40,
          "midi": 71,
          "name": "B4",
          "ticks": 403120,
          "time": 1263.2531756666665,
          "velocity": 0.7874015748031497
        },
        {
          "duration": 0.08333333333325754,
          "durationTicks": 40,
          "midi": 74,
          "name": "D5",
          "ticks": 403160,
          "time": 1263.336509,
          "velocity": 0.7874015748031497
        },
        {
          "duration": 0.08333333333325754,
          "durationTicks": 40,
          "midi": 76,
          "name": "E5",
          "ticks": 403200,
          "time": 1263.4198423333332,
          "velocity": 0.7874015748031497
        },
        {
          "duration": 0.08333333333348492,
          "durationTicks": 40,
          "midi": 74,
          "name": "D5",
          "ticks": 403240,
          "time": 1263.5031756666665,
          "velocity": 0.7874015748031497
        },
        {
          "duration": 0.08333333333325754,
          "durationTicks": 40,
          "midi": 76,
          "name": "E5",
          "ticks": 403280,
          "time": 1263.586509,
          "velocity": 0.7874015748031497
        },
        {
          "duration": 0.08333333333325754,
          "durationTicks": 40,
          "midi": 72,
          "name": "C5",
          "ticks": 403320,
          "time": 1263.6698423333332,
          "velocity": 0.7874015748031497
        },
        {
          "duration": 0.08333333333348492,
          "durationTicks": 40,
          "midi": 71,
          "name": "B4",
          "ticks": 403360,
          "time": 1263.7531756666665,
          "velocity": 0.7874015748031497
        },
        {
          "duration": 0.08333333333325754,
          "durationTicks": 40,
          "midi": 72,
          "name": "C5",
          "ticks": 403400,
          "time": 1263.836509,
          "velocity": 0.7874015748031497
        },
        {
          "duration": 0.08333333333325754,
          "durationTicks": 40,
          "midi": 67,
          "name": "G4",
          "ticks": 403440,
          "time": 1263.9198423333332,
          "velocity": 0.7874015748031497
        },
        {
          "duration": 0.08333333333348492,
          "durationTicks": 40,
          "midi": 64,
          "name": "E4",
          "ticks": 403480,
          "time": 1264.0031756666665,
          "velocity": 0.7874015748031497
        },
        {
          "duration": 0.08333333333325754,
          "durationTicks": 40,
          "midi": 62,
          "name": "D4",
          "ticks": 403520,
          "time": 1264.086509,
          "velocity": 0.7874015748031497
        },
        {
          "duration": 0.08333333333325754,
          "durationTicks": 40,
          "midi": 64,
          "name": "E4",
          "ticks": 403560,
          "time": 1264.1698423333332,
          "velocity": 0.7874015748031497
        },
        {
          "duration": 0.08333333333348492,
          "durationTicks": 40,
          "midi": 67,
          "name": "G4",
          "ticks": 403600,
          "time": 1264.2531756666665,
          "velocity": 0.7874015748031497
        },
        {
          "duration": 0.08333333333325754,
          "durationTicks": 40,
          "midi": 72,
          "name": "C5",
          "ticks": 403640,
          "time": 1264.336509,
          "velocity": 0.7874015748031497
        },
        {
          "duration": 0.08333333333325754,
          "durationTicks": 40,
          "midi": 76,
          "name": "E5",
          "ticks": 403680,
          "time": 1264.4198423333332,
          "velocity": 0.7874015748031497
        },
        {
          "duration": 0.08333333333348492,
          "durationTicks": 40,
          "midi": 74,
          "name": "D5",
          "ticks": 403720,
          "time": 1264.5031756666665,
          "velocity": 0.7874015748031497
        },
        {
          "duration": 0.08333333333325754,
          "durationTicks": 40,
          "midi": 76,
          "name": "E5",
          "ticks": 403760,
          "time": 1264.586509,
          "velocity": 0.7874015748031497
        },
        {
          "duration": 0.08333333333325754,
          "durationTicks": 40,
          "midi": 72,
          "name": "C5",
          "ticks": 403800,
          "time": 1264.6698423333332,
          "velocity": 0.7874015748031497
        },
        {
          "duration": 0.08333333333348492,
          "durationTicks": 40,
          "midi": 69,
          "name": "A4",
          "ticks": 403840,
          "time": 1264.7531756666665,
          "velocity": 0.7874015748031497
        },
        {
          "duration": 0.08333333333325754,
          "durationTicks": 40,
          "midi": 72,
          "name": "C5",
          "ticks": 403880,
          "time": 1264.836509,
          "velocity": 0.7874015748031497
        },
        {
          "duration": 0.08333333333325754,
          "durationTicks": 40,
          "midi": 74,
          "name": "D5",
          "ticks": 403920,
          "time": 1264.9198423333332,
          "velocity": 0.7874015748031497
        },
        {
          "duration": 0.08333333333348492,
          "durationTicks": 40,
          "midi": 72,
          "name": "C5",
          "ticks": 403960,
          "time": 1265.0031756666665,
          "velocity": 0.7874015748031497
        },
        {
          "duration": 0.08333333333325754,
          "durationTicks": 40,
          "midi": 74,
          "name": "D5",
          "ticks": 404000,
          "time": 1265.086509,
          "velocity": 0.7874015748031497
        },
        {
          "duration": 0.08333333333325754,
          "durationTicks": 40,
          "midi": 69,
          "name": "A4",
          "ticks": 404040,
          "time": 1265.1698423333332,
          "velocity": 0.7874015748031497
        },
        {
          "duration": 0.08333333333348492,
          "durationTicks": 40,
          "midi": 67,
          "name": "G4",
          "ticks": 404080,
          "time": 1265.2531756666665,
          "velocity": 0.7874015748031497
        },
        {
          "duration": 0.08333333333325754,
          "durationTicks": 40,
          "midi": 69,
          "name": "A4",
          "ticks": 404120,
          "time": 1265.336509,
          "velocity": 0.7874015748031497
        },
        {
          "duration": 0.08333333333325754,
          "durationTicks": 40,
          "midi": 66,
          "name": "F#4",
          "ticks": 404160,
          "time": 1265.4198423333332,
          "velocity": 0.7874015748031497
        },
        {
          "duration": 0.08333333333348492,
          "durationTicks": 40,
          "midi": 62,
          "name": "D4",
          "ticks": 404200,
          "time": 1265.5031756666665,
          "velocity": 0.7874015748031497
        },
        {
          "duration": 0.08333333333325754,
          "durationTicks": 40,
          "midi": 61,
          "name": "C#4",
          "ticks": 404240,
          "time": 1265.586509,
          "velocity": 0.7874015748031497
        },
        {
          "duration": 0.08333333333325754,
          "durationTicks": 40,
          "midi": 62,
          "name": "D4",
          "ticks": 404280,
          "time": 1265.6698423333332,
          "velocity": 0.7874015748031497
        },
        {
          "duration": 0.08333333333348492,
          "durationTicks": 40,
          "midi": 66,
          "name": "F#4",
          "ticks": 404320,
          "time": 1265.7531756666665,
          "velocity": 0.7874015748031497
        },
        {
          "duration": 0.08333333333325754,
          "durationTicks": 40,
          "midi": 69,
          "name": "A4",
          "ticks": 404360,
          "time": 1265.836509,
          "velocity": 0.7874015748031497
        },
        {
          "duration": 0.08333333333325754,
          "durationTicks": 40,
          "midi": 72,
          "name": "C5",
          "ticks": 404400,
          "time": 1265.9198423333332,
          "velocity": 0.7874015748031497
        },
        {
          "duration": 0.08333333333348492,
          "durationTicks": 40,
          "midi": 71,
          "name": "B4",
          "ticks": 404440,
          "time": 1266.0031756666665,
          "velocity": 0.7874015748031497
        },
        {
          "duration": 0.08333333333325754,
          "durationTicks": 40,
          "midi": 72,
          "name": "C5",
          "ticks": 404480,
          "time": 1266.086509,
          "velocity": 0.7874015748031497
        },
        {
          "duration": 0.08333333333325754,
          "durationTicks": 40,
          "midi": 69,
          "name": "A4",
          "ticks": 404520,
          "time": 1266.1698423333332,
          "velocity": 0.7874015748031497
        },
        {
          "duration": 0.08333333333348492,
          "durationTicks": 40,
          "midi": 66,
          "name": "F#4",
          "ticks": 404560,
          "time": 1266.2531756666665,
          "velocity": 0.7874015748031497
        },
        {
          "duration": 0.08333333333325754,
          "durationTicks": 40,
          "midi": 69,
          "name": "A4",
          "ticks": 404600,
          "time": 1266.336509,
          "velocity": 0.7874015748031497
        },
        {
          "duration": 0.08333333333325754,
          "durationTicks": 40,
          "midi": 71,
          "name": "B4",
          "ticks": 404640,
          "time": 1266.4198423333332,
          "velocity": 0.7874015748031497
        },
        {
          "duration": 0.08333333333348492,
          "durationTicks": 40,
          "midi": 69,
          "name": "A4",
          "ticks": 404680,
          "time": 1266.5031756666665,
          "velocity": 0.7874015748031497
        },
        {
          "duration": 0.08333333333325754,
          "durationTicks": 40,
          "midi": 71,
          "name": "B4",
          "ticks": 404720,
          "time": 1266.586509,
          "velocity": 0.7874015748031497
        },
        {
          "duration": 0.08333333333325754,
          "durationTicks": 40,
          "midi": 67,
          "name": "G4",
          "ticks": 404760,
          "time": 1266.6698423333332,
          "velocity": 0.7874015748031497
        },
        {
          "duration": 0.08333333333348492,
          "durationTicks": 40,
          "midi": 66,
          "name": "F#4",
          "ticks": 404800,
          "time": 1266.7531756666665,
          "velocity": 0.7874015748031497
        },
        {
          "duration": 0.08333333333325754,
          "durationTicks": 40,
          "midi": 67,
          "name": "G4",
          "ticks": 404840,
          "time": 1266.836509,
          "velocity": 0.7874015748031497
        },
        {
          "duration": 0.08333333333325754,
          "durationTicks": 40,
          "midi": 62,
          "name": "D4",
          "ticks": 404880,
          "time": 1266.9198423333332,
          "velocity": 0.7874015748031497
        },
        {
          "duration": 0.08333333333348492,
          "durationTicks": 40,
          "midi": 59,
          "name": "B3",
          "ticks": 404920,
          "time": 1267.0031756666665,
          "velocity": 0.7874015748031497
        },
        {
          "duration": 0.08333333333325754,
          "durationTicks": 40,
          "midi": 57,
          "name": "A3",
          "ticks": 404960,
          "time": 1267.086509,
          "velocity": 0.7874015748031497
        },
        {
          "duration": 0.08333333333325754,
          "durationTicks": 40,
          "midi": 59,
          "name": "B3",
          "ticks": 405000,
          "time": 1267.1698423333332,
          "velocity": 0.7874015748031497
        },
        {
          "duration": 0.08333333333348492,
          "durationTicks": 40,
          "midi": 62,
          "name": "D4",
          "ticks": 405040,
          "time": 1267.2531756666665,
          "velocity": 0.7874015748031497
        },
        {
          "duration": 0.08333333333325754,
          "durationTicks": 40,
          "midi": 67,
          "name": "G4",
          "ticks": 405080,
          "time": 1267.336509,
          "velocity": 0.7874015748031497
        },
        {
          "duration": 0.08333333333325754,
          "durationTicks": 40,
          "midi": 71,
          "name": "B4",
          "ticks": 405120,
          "time": 1267.4198423333332,
          "velocity": 0.7874015748031497
        },
        {
          "duration": 0.08333333333348492,
          "durationTicks": 40,
          "midi": 67,
          "name": "G4",
          "ticks": 405160,
          "time": 1267.5031756666665,
          "velocity": 0.7874015748031497
        },
        {
          "duration": 0.08333333333325754,
          "durationTicks": 40,
          "midi": 66,
          "name": "F#4",
          "ticks": 405200,
          "time": 1267.586509,
          "velocity": 0.7874015748031497
        },
        {
          "duration": 0.08333333333325754,
          "durationTicks": 40,
          "midi": 67,
          "name": "G4",
          "ticks": 405240,
          "time": 1267.6698423333332,
          "velocity": 0.7874015748031497
        },
        {
          "duration": 0.08333333333348492,
          "durationTicks": 40,
          "midi": 71,
          "name": "B4",
          "ticks": 405280,
          "time": 1267.7531756666665,
          "velocity": 0.7874015748031497
        },
        {
          "duration": 0.08333333333325754,
          "durationTicks": 40,
          "midi": 74,
          "name": "D5",
          "ticks": 405320,
          "time": 1267.836509,
          "velocity": 0.7874015748031497
        },
        {
          "duration": 0.375,
          "durationTicks": 180,
          "midi": 79,
          "name": "G5",
          "ticks": 405360,
          "time": 1267.9198423333332,
          "velocity": 0.7874015748031497
        },
        {
          "duration": 0.0625,
          "durationTicks": 30,
          "midi": 78,
          "name": "F#5",
          "ticks": 405540,
          "time": 1268.2948423333332,
          "velocity": 0.7874015748031497
        },
        {
          "duration": 0.0625,
          "durationTicks": 30,
          "midi": 76,
          "name": "E5",
          "ticks": 405570,
          "time": 1268.3573423333332,
          "velocity": 0.7874015748031497
        },
        {
          "duration": 0.5,
          "durationTicks": 240,
          "midi": 74,
          "name": "D5",
          "ticks": 405600,
          "time": 1268.4198423333332,
          "velocity": 0.7874015748031497
        },
        {
          "duration": 0.25,
          "durationTicks": 120,
          "midi": 83,
          "name": "B5",
          "ticks": 405960,
          "time": 1269.1698423333332,
          "velocity": 0.7874015748031497
        },
        {
          "duration": 0.5,
          "durationTicks": 240,
          "midi": 81,
          "name": "A5",
          "ticks": 406080,
          "time": 1269.4198423333332,
          "velocity": 0.7874015748031497
        },
        {
          "duration": 0.5,
          "durationTicks": 240,
          "midi": 81,
          "name": "A5",
          "ticks": 406320,
          "time": 1269.9198423333332,
          "velocity": 0.7874015748031497
        },
        {
          "duration": 0.25,
          "durationTicks": 120,
          "midi": 81,
          "name": "A5",
          "ticks": 406680,
          "time": 1270.6698423333332,
          "velocity": 0.7874015748031497
        },
        {
          "duration": 0.5,
          "durationTicks": 240,
          "midi": 81,
          "name": "A5",
          "ticks": 406800,
          "time": 1270.9198423333332,
          "velocity": 0.7874015748031497
        },
        {
          "duration": 0.5,
          "durationTicks": 240,
          "midi": 79,
          "name": "G5",
          "ticks": 407040,
          "time": 1271.4198423333332,
          "velocity": 0.7874015748031497
        },
        {
          "duration": 0.25,
          "durationTicks": 120,
          "midi": 79,
          "name": "G5",
          "ticks": 407400,
          "time": 1272.1698423333332,
          "velocity": 0.7874015748031497
        },
        {
          "duration": 0.375,
          "durationTicks": 180,
          "midi": 79,
          "name": "G5",
          "ticks": 407520,
          "time": 1272.4198423333332,
          "velocity": 0.7874015748031497
        },
        {
          "duration": 0.125,
          "durationTicks": 60,
          "midi": 76,
          "name": "E5",
          "ticks": 407700,
          "time": 1272.7948423333332,
          "velocity": 0.7874015748031497
        },
        {
          "duration": 0.5,
          "durationTicks": 240,
          "midi": 64,
          "name": "E4",
          "ticks": 407760,
          "time": 1272.9198423333332,
          "velocity": 0.7874015748031497
        },
        {
          "duration": 0.25,
          "durationTicks": 120,
          "midi": 79,
          "name": "G5",
          "ticks": 408120,
          "time": 1273.6698423333332,
          "velocity": 0.7874015748031497
        },
        {
          "duration": 0.375,
          "durationTicks": 180,
          "midi": 79,
          "name": "G5",
          "ticks": 408240,
          "time": 1273.9198423333332,
          "velocity": 0.7874015748031497
        },
        {
          "duration": 0.125,
          "durationTicks": 60,
          "midi": 76,
          "name": "E5",
          "ticks": 408420,
          "time": 1274.2948423333332,
          "velocity": 0.7874015748031497
        },
        {
          "duration": 0.0625,
          "durationTicks": 30,
          "midi": 76,
          "name": "E5",
          "ticks": 408480,
          "time": 1274.4198423333332,
          "velocity": 0.7874015748031497
        },
        {
          "duration": 0.4375,
          "durationTicks": 210,
          "midi": 78,
          "name": "F#5",
          "ticks": 408510,
          "time": 1274.4823423333332,
          "velocity": 0.7874015748031497
        },
        {
          "duration": 0.25,
          "durationTicks": 120,
          "midi": 81,
          "name": "A5",
          "ticks": 408840,
          "time": 1275.1698423333332,
          "velocity": 0.7874015748031497
        },
        {
          "duration": 0.375,
          "durationTicks": 180,
          "midi": 83,
          "name": "B5",
          "ticks": 408960,
          "time": 1275.4198423333332,
          "velocity": 0.7874015748031497
        },
        {
          "duration": 0.125,
          "durationTicks": 60,
          "midi": 78,
          "name": "F#5",
          "ticks": 409140,
          "time": 1275.7948423333332,
          "velocity": 0.7874015748031497
        },
        {
          "duration": 0.0625,
          "durationTicks": 30,
          "midi": 78,
          "name": "F#5",
          "ticks": 409200,
          "time": 1275.9198423333332,
          "velocity": 0.7874015748031497
        },
        {
          "duration": 0.4375,
          "durationTicks": 210,
          "midi": 79,
          "name": "G5",
          "ticks": 409230,
          "time": 1275.9823423333332,
          "velocity": 0.7874015748031497
        },
        {
          "duration": 0.25,
          "durationTicks": 120,
          "midi": 79,
          "name": "G5",
          "ticks": 409560,
          "time": 1276.6698423333332,
          "velocity": 0.7874015748031497
        },
        {
          "duration": 0.5,
          "durationTicks": 240,
          "midi": 79,
          "name": "G5",
          "ticks": 409680,
          "time": 1276.9198423333332,
          "velocity": 0.7874015748031497
        },
        {
          "duration": 0.5,
          "durationTicks": 240,
          "midi": 73,
          "name": "C#5",
          "ticks": 409920,
          "time": 1277.4198423333332,
          "velocity": 0.7874015748031497
        },
        {
          "duration": 0.25,
          "durationTicks": 120,
          "midi": 69,
          "name": "A4",
          "ticks": 410280,
          "time": 1278.1698423333332,
          "velocity": 0.7874015748031497
        },
        {
          "duration": 0.375,
          "durationTicks": 180,
          "midi": 69,
          "name": "A4",
          "ticks": 410400,
          "time": 1278.4198423333332,
          "velocity": 0.7874015748031497
        },
        {
          "duration": 0.125,
          "durationTicks": 60,
          "midi": 64,
          "name": "E4",
          "ticks": 410580,
          "time": 1278.7948423333332,
          "velocity": 0.7874015748031497
        },
        {
          "duration": 0.0625,
          "durationTicks": 30,
          "midi": 64,
          "name": "E4",
          "ticks": 410640,
          "time": 1278.9198423333332,
          "velocity": 0.7874015748031497
        },
        {
          "duration": 0.4375,
          "durationTicks": 210,
          "midi": 66,
          "name": "F#4",
          "ticks": 410670,
          "time": 1278.9823423333332,
          "velocity": 0.7874015748031497
        },
        {
          "duration": 0.08333333333325754,
          "durationTicks": 40,
          "midi": 81,
          "name": "A5",
          "ticks": 411120,
          "time": 1279.9198423333332,
          "velocity": 0.7874015748031497
        },
        {
          "duration": 0.08333333333348492,
          "durationTicks": 40,
          "midi": 79,
          "name": "G5",
          "ticks": 411160,
          "time": 1280.0031756666665,
          "velocity": 0.7874015748031497
        },
        {
          "duration": 0.08333333333325754,
          "durationTicks": 40,
          "midi": 81,
          "name": "A5",
          "ticks": 411200,
          "time": 1280.086509,
          "velocity": 0.7874015748031497
        },
        {
          "duration": 0.08333333333325754,
          "durationTicks": 40,
          "midi": 86,
          "name": "D6",
          "ticks": 411240,
          "time": 1280.1698423333332,
          "velocity": 0.7874015748031497
        },
        {
          "duration": 0.08333333333348492,
          "durationTicks": 40,
          "midi": 84,
          "name": "C6",
          "ticks": 411280,
          "time": 1280.2531756666665,
          "velocity": 0.7874015748031497
        },
        {
          "duration": 0.08333333333325754,
          "durationTicks": 40,
          "midi": 83,
          "name": "B5",
          "ticks": 411320,
          "time": 1280.336509,
          "velocity": 0.7874015748031497
        },
        {
          "duration": 0.08333333333325754,
          "durationTicks": 40,
          "midi": 81,
          "name": "A5",
          "ticks": 411360,
          "time": 1280.4198423333332,
          "velocity": 0.7874015748031497
        },
        {
          "duration": 0.08333333333348492,
          "durationTicks": 40,
          "midi": 83,
          "name": "B5",
          "ticks": 411400,
          "time": 1280.5031756666665,
          "velocity": 0.7874015748031497
        },
        {
          "duration": 0.08333333333325754,
          "durationTicks": 40,
          "midi": 81,
          "name": "A5",
          "ticks": 411440,
          "time": 1280.586509,
          "velocity": 0.7874015748031497
        },
        {
          "duration": 0.08333333333325754,
          "durationTicks": 40,
          "midi": 79,
          "name": "G5",
          "ticks": 411480,
          "time": 1280.6698423333332,
          "velocity": 0.7874015748031497
        },
        {
          "duration": 0.08333333333348492,
          "durationTicks": 40,
          "midi": 81,
          "name": "A5",
          "ticks": 411520,
          "time": 1280.7531756666665,
          "velocity": 0.7874015748031497
        },
        {
          "duration": 0.08333333333325754,
          "durationTicks": 40,
          "midi": 79,
          "name": "G5",
          "ticks": 411560,
          "time": 1280.836509,
          "velocity": 0.7874015748031497
        },
        {
          "duration": 0.08333333333325754,
          "durationTicks": 40,
          "midi": 78,
          "name": "F#5",
          "ticks": 411600,
          "time": 1280.9198423333332,
          "velocity": 0.7874015748031497
        },
        {
          "duration": 0.08333333333348492,
          "durationTicks": 40,
          "midi": 79,
          "name": "G5",
          "ticks": 411640,
          "time": 1281.0031756666665,
          "velocity": 0.7874015748031497
        },
        {
          "duration": 0.08333333333325754,
          "durationTicks": 40,
          "midi": 78,
          "name": "F#5",
          "ticks": 411680,
          "time": 1281.086509,
          "velocity": 0.7874015748031497
        },
        {
          "duration": 0.08333333333325754,
          "durationTicks": 40,
          "midi": 76,
          "name": "E5",
          "ticks": 411720,
          "time": 1281.1698423333332,
          "velocity": 0.7874015748031497
        },
        {
          "duration": 0.08333333333348492,
          "durationTicks": 40,
          "midi": 78,
          "name": "F#5",
          "ticks": 411760,
          "time": 1281.2531756666665,
          "velocity": 0.7874015748031497
        },
        {
          "duration": 0.08333333333325754,
          "durationTicks": 40,
          "midi": 76,
          "name": "E5",
          "ticks": 411800,
          "time": 1281.336509,
          "velocity": 0.7874015748031497
        },
        {
          "duration": 0.08333333333325754,
          "durationTicks": 40,
          "midi": 74,
          "name": "D5",
          "ticks": 411840,
          "time": 1281.4198423333332,
          "velocity": 0.7874015748031497
        },
        {
          "duration": 0.08333333333348492,
          "durationTicks": 40,
          "midi": 72,
          "name": "C5",
          "ticks": 411880,
          "time": 1281.5031756666665,
          "velocity": 0.7874015748031497
        },
        {
          "duration": 0.08333333333325754,
          "durationTicks": 40,
          "midi": 74,
          "name": "D5",
          "ticks": 411920,
          "time": 1281.586509,
          "velocity": 0.7874015748031497
        },
        {
          "duration": 0.08333333333325754,
          "durationTicks": 40,
          "midi": 79,
          "name": "G5",
          "ticks": 411960,
          "time": 1281.6698423333332,
          "velocity": 0.7874015748031497
        },
        {
          "duration": 0.08333333333348492,
          "durationTicks": 40,
          "midi": 78,
          "name": "F#5",
          "ticks": 412000,
          "time": 1281.7531756666665,
          "velocity": 0.7874015748031497
        },
        {
          "duration": 0.08333333333325754,
          "durationTicks": 40,
          "midi": 76,
          "name": "E5",
          "ticks": 412040,
          "time": 1281.836509,
          "velocity": 0.7874015748031497
        },
        {
          "duration": 0.08333333333325754,
          "durationTicks": 40,
          "midi": 74,
          "name": "D5",
          "ticks": 412080,
          "time": 1281.9198423333332,
          "velocity": 0.7874015748031497
        },
        {
          "duration": 0.08333333333348492,
          "durationTicks": 40,
          "midi": 76,
          "name": "E5",
          "ticks": 412120,
          "time": 1282.0031756666665,
          "velocity": 0.7874015748031497
        },
        {
          "duration": 0.08333333333325754,
          "durationTicks": 40,
          "midi": 74,
          "name": "D5",
          "ticks": 412160,
          "time": 1282.086509,
          "velocity": 0.7874015748031497
        },
        {
          "duration": 0.08333333333325754,
          "durationTicks": 40,
          "midi": 72,
          "name": "C5",
          "ticks": 412200,
          "time": 1282.1698423333332,
          "velocity": 0.7874015748031497
        },
        {
          "duration": 0.08333333333348492,
          "durationTicks": 40,
          "midi": 74,
          "name": "D5",
          "ticks": 412240,
          "time": 1282.2531756666665,
          "velocity": 0.7874015748031497
        },
        {
          "duration": 0.08333333333325754,
          "durationTicks": 40,
          "midi": 72,
          "name": "C5",
          "ticks": 412280,
          "time": 1282.336509,
          "velocity": 0.7874015748031497
        },
        {
          "duration": 0.08333333333325754,
          "durationTicks": 40,
          "midi": 71,
          "name": "B4",
          "ticks": 412320,
          "time": 1282.4198423333332,
          "velocity": 0.7874015748031497
        },
        {
          "duration": 0.08333333333348492,
          "durationTicks": 40,
          "midi": 72,
          "name": "C5",
          "ticks": 412360,
          "time": 1282.5031756666665,
          "velocity": 0.7874015748031497
        },
        {
          "duration": 0.08333333333325754,
          "durationTicks": 40,
          "midi": 71,
          "name": "B4",
          "ticks": 412400,
          "time": 1282.586509,
          "velocity": 0.7874015748031497
        },
        {
          "duration": 0.08333333333325754,
          "durationTicks": 40,
          "midi": 69,
          "name": "A4",
          "ticks": 412440,
          "time": 1282.6698423333332,
          "velocity": 0.7874015748031497
        },
        {
          "duration": 0.08333333333348492,
          "durationTicks": 40,
          "midi": 71,
          "name": "B4",
          "ticks": 412480,
          "time": 1282.7531756666665,
          "velocity": 0.7874015748031497
        },
        {
          "duration": 0.08333333333325754,
          "durationTicks": 40,
          "midi": 69,
          "name": "A4",
          "ticks": 412520,
          "time": 1282.836509,
          "velocity": 0.7874015748031497
        },
        {
          "duration": 0.08333333333325754,
          "durationTicks": 40,
          "midi": 67,
          "name": "G4",
          "ticks": 412560,
          "time": 1282.9198423333332,
          "velocity": 0.7874015748031497
        },
        {
          "duration": 0.08333333333348492,
          "durationTicks": 40,
          "midi": 66,
          "name": "F#4",
          "ticks": 412600,
          "time": 1283.0031756666665,
          "velocity": 0.7874015748031497
        },
        {
          "duration": 0.08333333333325754,
          "durationTicks": 40,
          "midi": 67,
          "name": "G4",
          "ticks": 412640,
          "time": 1283.086509,
          "velocity": 0.7874015748031497
        },
        {
          "duration": 0.08333333333325754,
          "durationTicks": 40,
          "midi": 71,
          "name": "B4",
          "ticks": 412680,
          "time": 1283.1698423333332,
          "velocity": 0.7874015748031497
        },
        {
          "duration": 0.08333333333348492,
          "durationTicks": 40,
          "midi": 69,
          "name": "A4",
          "ticks": 412720,
          "time": 1283.2531756666665,
          "velocity": 0.7874015748031497
        },
        {
          "duration": 0.08333333333325754,
          "durationTicks": 40,
          "midi": 67,
          "name": "G4",
          "ticks": 412760,
          "time": 1283.336509,
          "velocity": 0.7874015748031497
        },
        {
          "duration": 0.08333333333325754,
          "durationTicks": 40,
          "midi": 66,
          "name": "F#4",
          "ticks": 412800,
          "time": 1283.4198423333332,
          "velocity": 0.7874015748031497
        },
        {
          "duration": 0.08333333333348492,
          "durationTicks": 40,
          "midi": 67,
          "name": "G4",
          "ticks": 412840,
          "time": 1283.5031756666665,
          "velocity": 0.7874015748031497
        },
        {
          "duration": 0.08333333333325754,
          "durationTicks": 40,
          "midi": 66,
          "name": "F#4",
          "ticks": 412880,
          "time": 1283.586509,
          "velocity": 0.7874015748031497
        },
        {
          "duration": 0.08333333333325754,
          "durationTicks": 40,
          "midi": 64,
          "name": "E4",
          "ticks": 412920,
          "time": 1283.6698423333332,
          "velocity": 0.7874015748031497
        },
        {
          "duration": 0.08333333333348492,
          "durationTicks": 40,
          "midi": 66,
          "name": "F#4",
          "ticks": 412960,
          "time": 1283.7531756666665,
          "velocity": 0.7874015748031497
        },
        {
          "duration": 0.08333333333325754,
          "durationTicks": 40,
          "midi": 64,
          "name": "E4",
          "ticks": 413000,
          "time": 1283.836509,
          "velocity": 0.7874015748031497
        },
        {
          "duration": 0.08333333333325754,
          "durationTicks": 40,
          "midi": 63,
          "name": "D#4",
          "ticks": 413040,
          "time": 1283.9198423333332,
          "velocity": 0.7874015748031497
        },
        {
          "duration": 0.08333333333348492,
          "durationTicks": 40,
          "midi": 64,
          "name": "E4",
          "ticks": 413080,
          "time": 1284.0031756666665,
          "velocity": 0.7874015748031497
        },
        {
          "duration": 0.08333333333325754,
          "durationTicks": 40,
          "midi": 63,
          "name": "D#4",
          "ticks": 413120,
          "time": 1284.086509,
          "velocity": 0.7874015748031497
        },
        {
          "duration": 0.08333333333325754,
          "durationTicks": 40,
          "midi": 61,
          "name": "C#4",
          "ticks": 413160,
          "time": 1284.1698423333332,
          "velocity": 0.7874015748031497
        },
        {
          "duration": 0.08333333333348492,
          "durationTicks": 40,
          "midi": 63,
          "name": "D#4",
          "ticks": 413200,
          "time": 1284.2531756666665,
          "velocity": 0.7874015748031497
        },
        {
          "duration": 0.08333333333325754,
          "durationTicks": 40,
          "midi": 61,
          "name": "C#4",
          "ticks": 413240,
          "time": 1284.336509,
          "velocity": 0.7874015748031497
        },
        {
          "duration": 0.08333333333325754,
          "durationTicks": 40,
          "midi": 59,
          "name": "B3",
          "ticks": 413280,
          "time": 1284.4198423333332,
          "velocity": 0.7874015748031497
        },
        {
          "duration": 0.08333333333348492,
          "durationTicks": 40,
          "midi": 58,
          "name": "A#3",
          "ticks": 413320,
          "time": 1284.5031756666665,
          "velocity": 0.7874015748031497
        },
        {
          "duration": 0.08333333333325754,
          "durationTicks": 40,
          "midi": 59,
          "name": "B3",
          "ticks": 413360,
          "time": 1284.586509,
          "velocity": 0.7874015748031497
        },
        {
          "duration": 0.08333333333325754,
          "durationTicks": 40,
          "midi": 64,
          "name": "E4",
          "ticks": 413400,
          "time": 1284.6698423333332,
          "velocity": 0.7874015748031497
        },
        {
          "duration": 0.08333333333348492,
          "durationTicks": 40,
          "midi": 63,
          "name": "D#4",
          "ticks": 413440,
          "time": 1284.7531756666665,
          "velocity": 0.7874015748031497
        },
        {
          "duration": 0.08333333333325754,
          "durationTicks": 40,
          "midi": 61,
          "name": "C#4",
          "ticks": 413480,
          "time": 1284.836509,
          "velocity": 0.7874015748031497
        },
        {
          "duration": 0.08333333333325754,
          "durationTicks": 40,
          "midi": 59,
          "name": "B3",
          "ticks": 413520,
          "time": 1284.9198423333332,
          "velocity": 0.7874015748031497
        },
        {
          "duration": 0.08333333333348492,
          "durationTicks": 40,
          "midi": 60,
          "name": "C4",
          "ticks": 413560,
          "time": 1285.0031756666665,
          "velocity": 0.7874015748031497
        },
        {
          "duration": 0.08333333333325754,
          "durationTicks": 40,
          "midi": 59,
          "name": "B3",
          "ticks": 413600,
          "time": 1285.086509,
          "velocity": 0.7874015748031497
        },
        {
          "duration": 0.08333333333325754,
          "durationTicks": 40,
          "midi": 57,
          "name": "A3",
          "ticks": 413640,
          "time": 1285.1698423333332,
          "velocity": 0.7874015748031497
        },
        {
          "duration": 0.08333333333348492,
          "durationTicks": 40,
          "midi": 59,
          "name": "B3",
          "ticks": 413680,
          "time": 1285.2531756666665,
          "velocity": 0.7874015748031497
        },
        {
          "duration": 0.08333333333325754,
          "durationTicks": 40,
          "midi": 57,
          "name": "A3",
          "ticks": 413720,
          "time": 1285.336509,
          "velocity": 0.7874015748031497
        },
        {
          "duration": 0.08333333333325754,
          "durationTicks": 40,
          "midi": 55,
          "name": "G3",
          "ticks": 413760,
          "time": 1285.4198423333332,
          "velocity": 0.7874015748031497
        },
        {
          "duration": 0.08333333333348492,
          "durationTicks": 40,
          "midi": 57,
          "name": "A3",
          "ticks": 413800,
          "time": 1285.5031756666665,
          "velocity": 0.7874015748031497
        },
        {
          "duration": 0.08333333333325754,
          "durationTicks": 40,
          "midi": 55,
          "name": "G3",
          "ticks": 413840,
          "time": 1285.586509,
          "velocity": 0.7874015748031497
        },
        {
          "duration": 0.08333333333325754,
          "durationTicks": 40,
          "midi": 54,
          "name": "F#3",
          "ticks": 413880,
          "time": 1285.6698423333332,
          "velocity": 0.7874015748031497
        },
        {
          "duration": 0.08333333333348492,
          "durationTicks": 40,
          "midi": 55,
          "name": "G3",
          "ticks": 413920,
          "time": 1285.7531756666665,
          "velocity": 0.7874015748031497
        },
        {
          "duration": 0.08333333333325754,
          "durationTicks": 40,
          "midi": 54,
          "name": "F#3",
          "ticks": 413960,
          "time": 1285.836509,
          "velocity": 0.7874015748031497
        },
        {
          "duration": 0.08333333333325754,
          "durationTicks": 40,
          "midi": 52,
          "name": "E3",
          "ticks": 414000,
          "time": 1285.9198423333332,
          "velocity": 0.7874015748031497
        },
        {
          "duration": 0.08333333333348492,
          "durationTicks": 40,
          "midi": 51,
          "name": "D#3",
          "ticks": 414040,
          "time": 1286.0031756666665,
          "velocity": 0.7874015748031497
        },
        {
          "duration": 0.08333333333325754,
          "durationTicks": 40,
          "midi": 52,
          "name": "E3",
          "ticks": 414080,
          "time": 1286.086509,
          "velocity": 0.7874015748031497
        },
        {
          "duration": 0.08333333333325754,
          "durationTicks": 40,
          "midi": 59,
          "name": "B3",
          "ticks": 414120,
          "time": 1286.1698423333332,
          "velocity": 0.7874015748031497
        },
        {
          "duration": 0.08333333333348492,
          "durationTicks": 40,
          "midi": 57,
          "name": "A3",
          "ticks": 414160,
          "time": 1286.2531756666665,
          "velocity": 0.7874015748031497
        },
        {
          "duration": 0.08333333333325754,
          "durationTicks": 40,
          "midi": 59,
          "name": "B3",
          "ticks": 414200,
          "time": 1286.336509,
          "velocity": 0.7874015748031497
        },
        {
          "duration": 0.08333333333325754,
          "durationTicks": 40,
          "midi": 55,
          "name": "G3",
          "ticks": 414240,
          "time": 1286.4198423333332,
          "velocity": 0.7874015748031497
        },
        {
          "duration": 0.08333333333348492,
          "durationTicks": 40,
          "midi": 54,
          "name": "F#3",
          "ticks": 414280,
          "time": 1286.5031756666665,
          "velocity": 0.7874015748031497
        },
        {
          "duration": 0.08333333333325754,
          "durationTicks": 40,
          "midi": 55,
          "name": "G3",
          "ticks": 414320,
          "time": 1286.586509,
          "velocity": 0.7874015748031497
        },
        {
          "duration": 0.08333333333325754,
          "durationTicks": 40,
          "midi": 59,
          "name": "B3",
          "ticks": 414360,
          "time": 1286.6698423333332,
          "velocity": 0.7874015748031497
        },
        {
          "duration": 0.08333333333348492,
          "durationTicks": 40,
          "midi": 64,
          "name": "E4",
          "ticks": 414400,
          "time": 1286.7531756666665,
          "velocity": 0.7874015748031497
        },
        {
          "duration": 0.08333333333325754,
          "durationTicks": 40,
          "midi": 66,
          "name": "F#4",
          "ticks": 414440,
          "time": 1286.836509,
          "velocity": 0.7874015748031497
        },
        {
          "duration": 0.08333333333325754,
          "durationTicks": 40,
          "midi": 67,
          "name": "G4",
          "ticks": 414480,
          "time": 1286.9198423333332,
          "velocity": 0.7874015748031497
        },
        {
          "duration": 0.08333333333348492,
          "durationTicks": 40,
          "midi": 66,
          "name": "F#4",
          "ticks": 414520,
          "time": 1287.0031756666665,
          "velocity": 0.7874015748031497
        },
        {
          "duration": 0.08333333333325754,
          "durationTicks": 40,
          "midi": 67,
          "name": "G4",
          "ticks": 414560,
          "time": 1287.086509,
          "velocity": 0.7874015748031497
        },
        {
          "duration": 0.08333333333325754,
          "durationTicks": 40,
          "midi": 64,
          "name": "E4",
          "ticks": 414600,
          "time": 1287.1698423333332,
          "velocity": 0.7874015748031497
        },
        {
          "duration": 0.08333333333348492,
          "durationTicks": 40,
          "midi": 63,
          "name": "D#4",
          "ticks": 414640,
          "time": 1287.2531756666665,
          "velocity": 0.7874015748031497
        },
        {
          "duration": 0.08333333333325754,
          "durationTicks": 40,
          "midi": 64,
          "name": "E4",
          "ticks": 414680,
          "time": 1287.336509,
          "velocity": 0.7874015748031497
        },
        {
          "duration": 0.08333333333325754,
          "durationTicks": 40,
          "midi": 60,
          "name": "C4",
          "ticks": 414720,
          "time": 1287.4198423333332,
          "velocity": 0.7874015748031497
        },
        {
          "duration": 0.08333333333348492,
          "durationTicks": 40,
          "midi": 59,
          "name": "B3",
          "ticks": 414760,
          "time": 1287.5031756666665,
          "velocity": 0.7874015748031497
        },
        {
          "duration": 0.08333333333325754,
          "durationTicks": 40,
          "midi": 60,
          "name": "C4",
          "ticks": 414800,
          "time": 1287.586509,
          "velocity": 0.7874015748031497
        },
        {
          "duration": 0.08333333333325754,
          "durationTicks": 40,
          "midi": 64,
          "name": "E4",
          "ticks": 414840,
          "time": 1287.6698423333332,
          "velocity": 0.7874015748031497
        },
        {
          "duration": 0.08333333333348492,
          "durationTicks": 40,
          "midi": 62,
          "name": "D4",
          "ticks": 414880,
          "time": 1287.7531756666665,
          "velocity": 0.7874015748031497
        },
        {
          "duration": 0.08333333333325754,
          "durationTicks": 40,
          "midi": 64,
          "name": "E4",
          "ticks": 414920,
          "time": 1287.836509,
          "velocity": 0.7874015748031497
        },
        {
          "duration": 0.08333333333325754,
          "durationTicks": 40,
          "midi": 57,
          "name": "A3",
          "ticks": 414960,
          "time": 1287.9198423333332,
          "velocity": 0.7874015748031497
        },
        {
          "duration": 0.08333333333348492,
          "durationTicks": 40,
          "midi": 56,
          "name": "G#3",
          "ticks": 415000,
          "time": 1288.0031756666665,
          "velocity": 0.7874015748031497
        },
        {
          "duration": 0.08333333333325754,
          "durationTicks": 40,
          "midi": 57,
          "name": "A3",
          "ticks": 415040,
          "time": 1288.086509,
          "velocity": 0.7874015748031497
        },
        {
          "duration": 0.08333333333325754,
          "durationTicks": 40,
          "midi": 60,
          "name": "C4",
          "ticks": 415080,
          "time": 1288.1698423333332,
          "velocity": 0.7874015748031497
        },
        {
          "duration": 0.08333333333348492,
          "durationTicks": 40,
          "midi": 65,
          "name": "F4",
          "ticks": 415120,
          "time": 1288.2531756666665,
          "velocity": 0.7874015748031497
        },
        {
          "duration": 0.08333333333325754,
          "durationTicks": 40,
          "midi": 69,
          "name": "A4",
          "ticks": 415160,
          "time": 1288.336509,
          "velocity": 0.7874015748031497
        },
        {
          "duration": 0.08333333333325754,
          "durationTicks": 40,
          "midi": 72,
          "name": "C5",
          "ticks": 415200,
          "time": 1288.4198423333332,
          "velocity": 0.7874015748031497
        },
        {
          "duration": 0.08333333333348492,
          "durationTicks": 40,
          "midi": 71,
          "name": "B4",
          "ticks": 415240,
          "time": 1288.5031756666665,
          "velocity": 0.7874015748031497
        },
        {
          "duration": 0.08333333333325754,
          "durationTicks": 40,
          "midi": 72,
          "name": "C5",
          "ticks": 415280,
          "time": 1288.586509,
          "velocity": 0.7874015748031497
        },
        {
          "duration": 0.08333333333325754,
          "durationTicks": 40,
          "midi": 69,
          "name": "A4",
          "ticks": 415320,
          "time": 1288.6698423333332,
          "velocity": 0.7874015748031497
        },
        {
          "duration": 0.08333333333348492,
          "durationTicks": 40,
          "midi": 66,
          "name": "F#4",
          "ticks": 415360,
          "time": 1288.7531756666665,
          "velocity": 0.7874015748031497
        },
        {
          "duration": 0.08333333333325754,
          "durationTicks": 40,
          "midi": 69,
          "name": "A4",
          "ticks": 415400,
          "time": 1288.836509,
          "velocity": 0.7874015748031497
        },
        {
          "duration": 0.08333333333325754,
          "durationTicks": 40,
          "midi": 63,
          "name": "D#4",
          "ticks": 415440,
          "time": 1288.9198423333332,
          "velocity": 0.7874015748031497
        },
        {
          "duration": 0.08333333333348492,
          "durationTicks": 40,
          "midi": 61,
          "name": "C#4",
          "ticks": 415480,
          "time": 1289.0031756666665,
          "velocity": 0.7874015748031497
        },
        {
          "duration": 0.08333333333325754,
          "durationTicks": 40,
          "midi": 63,
          "name": "D#4",
          "ticks": 415520,
          "time": 1289.086509,
          "velocity": 0.7874015748031497
        },
        {
          "duration": 0.08333333333325754,
          "durationTicks": 40,
          "midi": 66,
          "name": "F#4",
          "ticks": 415560,
          "time": 1289.1698423333332,
          "velocity": 0.7874015748031497
        },
        {
          "duration": 0.08333333333348492,
          "durationTicks": 40,
          "midi": 64,
          "name": "E4",
          "ticks": 415600,
          "time": 1289.2531756666665,
          "velocity": 0.7874015748031497
        },
        {
          "duration": 0.08333333333325754,
          "durationTicks": 40,
          "midi": 66,
          "name": "F#4",
          "ticks": 415640,
          "time": 1289.336509,
          "velocity": 0.7874015748031497
        },
        {
          "duration": 0.08333333333325754,
          "durationTicks": 40,
          "midi": 59,
          "name": "B3",
          "ticks": 415680,
          "time": 1289.4198423333332,
          "velocity": 0.7874015748031497
        },
        {
          "duration": 0.08333333333348492,
          "durationTicks": 40,
          "midi": 58,
          "name": "A#3",
          "ticks": 415720,
          "time": 1289.5031756666665,
          "velocity": 0.7874015748031497
        },
        {
          "duration": 0.08333333333325754,
          "durationTicks": 40,
          "midi": 59,
          "name": "B3",
          "ticks": 415760,
          "time": 1289.586509,
          "velocity": 0.7874015748031497
        },
        {
          "duration": 0.08333333333325754,
          "durationTicks": 40,
          "midi": 63,
          "name": "D#4",
          "ticks": 415800,
          "time": 1289.6698423333332,
          "velocity": 0.7874015748031497
        },
        {
          "duration": 0.08333333333348492,
          "durationTicks": 40,
          "midi": 66,
          "name": "F#4",
          "ticks": 415840,
          "time": 1289.7531756666665,
          "velocity": 0.7874015748031497
        },
        {
          "duration": 0.08333333333325754,
          "durationTicks": 40,
          "midi": 67,
          "name": "G4",
          "ticks": 415880,
          "time": 1289.836509,
          "velocity": 0.7874015748031497
        },
        {
          "duration": 0.08333333333325754,
          "durationTicks": 40,
          "midi": 69,
          "name": "A4",
          "ticks": 415920,
          "time": 1289.9198423333332,
          "velocity": 0.7874015748031497
        },
        {
          "duration": 0.08333333333348492,
          "durationTicks": 40,
          "midi": 67,
          "name": "G4",
          "ticks": 415960,
          "time": 1290.0031756666665,
          "velocity": 0.7874015748031497
        },
        {
          "duration": 0.08333333333325754,
          "durationTicks": 40,
          "midi": 69,
          "name": "A4",
          "ticks": 416000,
          "time": 1290.086509,
          "velocity": 0.7874015748031497
        },
        {
          "duration": 0.08333333333325754,
          "durationTicks": 40,
          "midi": 66,
          "name": "F#4",
          "ticks": 416040,
          "time": 1290.1698423333332,
          "velocity": 0.7874015748031497
        },
        {
          "duration": 0.08333333333348492,
          "durationTicks": 40,
          "midi": 63,
          "name": "D#4",
          "ticks": 416080,
          "time": 1290.2531756666665,
          "velocity": 0.7874015748031497
        },
        {
          "duration": 0.08333333333325754,
          "durationTicks": 40,
          "midi": 66,
          "name": "F#4",
          "ticks": 416120,
          "time": 1290.336509,
          "velocity": 0.7874015748031497
        },
        {
          "duration": 0.08333333333325754,
          "durationTicks": 40,
          "midi": 67,
          "name": "G4",
          "ticks": 416160,
          "time": 1290.4198423333332,
          "velocity": 0.7874015748031497
        },
        {
          "duration": 0.08333333333348492,
          "durationTicks": 40,
          "midi": 66,
          "name": "F#4",
          "ticks": 416200,
          "time": 1290.5031756666665,
          "velocity": 0.7874015748031497
        },
        {
          "duration": 0.08333333333325754,
          "durationTicks": 40,
          "midi": 67,
          "name": "G4",
          "ticks": 416240,
          "time": 1290.586509,
          "velocity": 0.7874015748031497
        },
        {
          "duration": 0.08333333333325754,
          "durationTicks": 40,
          "midi": 71,
          "name": "B4",
          "ticks": 416280,
          "time": 1290.6698423333332,
          "velocity": 0.7874015748031497
        },
        {
          "duration": 0.08333333333348492,
          "durationTicks": 40,
          "midi": 69,
          "name": "A4",
          "ticks": 416320,
          "time": 1290.7531756666665,
          "velocity": 0.7874015748031497
        },
        {
          "duration": 0.08333333333325754,
          "durationTicks": 40,
          "midi": 71,
          "name": "B4",
          "ticks": 416360,
          "time": 1290.836509,
          "velocity": 0.7874015748031497
        },
        {
          "duration": 0.08333333333325754,
          "durationTicks": 40,
          "midi": 64,
          "name": "E4",
          "ticks": 416400,
          "time": 1290.9198423333332,
          "velocity": 0.7874015748031497
        },
        {
          "duration": 0.08333333333348492,
          "durationTicks": 40,
          "midi": 63,
          "name": "D#4",
          "ticks": 416440,
          "time": 1291.0031756666665,
          "velocity": 0.7874015748031497
        },
        {
          "duration": 0.08333333333325754,
          "durationTicks": 40,
          "midi": 64,
          "name": "E4",
          "ticks": 416480,
          "time": 1291.086509,
          "velocity": 0.7874015748031497
        },
        {
          "duration": 0.08333333333325754,
          "durationTicks": 40,
          "midi": 67,
          "name": "G4",
          "ticks": 416520,
          "time": 1291.1698423333332,
          "velocity": 0.7874015748031497
        },
        {
          "duration": 0.08333333333348492,
          "durationTicks": 40,
          "midi": 71,
          "name": "B4",
          "ticks": 416560,
          "time": 1291.2531756666665,
          "velocity": 0.7874015748031497
        },
        {
          "duration": 0.08333333333325754,
          "durationTicks": 40,
          "midi": 75,
          "name": "D#5",
          "ticks": 416600,
          "time": 1291.336509,
          "velocity": 0.7874015748031497
        },
        {
          "duration": 0.08333333333325754,
          "durationTicks": 40,
          "midi": 76,
          "name": "E5",
          "ticks": 416640,
          "time": 1291.4198423333332,
          "velocity": 0.7874015748031497
        },
        {
          "duration": 0.08333333333348492,
          "durationTicks": 40,
          "midi": 72,
          "name": "C5",
          "ticks": 416680,
          "time": 1291.5031756666665,
          "velocity": 0.7874015748031497
        },
        {
          "duration": 0.08333333333325754,
          "durationTicks": 40,
          "midi": 71,
          "name": "B4",
          "ticks": 416720,
          "time": 1291.586509,
          "velocity": 0.7874015748031497
        },
        {
          "duration": 0.08333333333325754,
          "durationTicks": 40,
          "midi": 69,
          "name": "A4",
          "ticks": 416760,
          "time": 1291.6698423333332,
          "velocity": 0.7874015748031497
        },
        {
          "duration": 0.08333333333348492,
          "durationTicks": 40,
          "midi": 67,
          "name": "G4",
          "ticks": 416800,
          "time": 1291.7531756666665,
          "velocity": 0.7874015748031497
        },
        {
          "duration": 0.08333333333325754,
          "durationTicks": 40,
          "midi": 66,
          "name": "F#4",
          "ticks": 416840,
          "time": 1291.836509,
          "velocity": 0.7874015748031497
        },
        {
          "duration": 0.5,
          "durationTicks": 240,
          "midi": 64,
          "name": "E4",
          "ticks": 416880,
          "time": 1291.9198423333332,
          "velocity": 0.7874015748031497
        },
        {
          "duration": 0.125,
          "durationTicks": 60,
          "midi": 79,
          "name": "G5",
          "ticks": 417300,
          "time": 1292.7948423333332,
          "velocity": 0.7874015748031497
        },
        {
          "duration": 0.0625,
          "durationTicks": 30,
          "midi": 79,
          "name": "G5",
          "ticks": 417360,
          "time": 1292.9198423333332,
          "velocity": 0.7874015748031497
        },
        {
          "duration": 0.3125,
          "durationTicks": 150,
          "midi": 78,
          "name": "F#5",
          "ticks": 417390,
          "time": 1292.9823423333332,
          "velocity": 0.7874015748031497
        },
        {
          "duration": 0.125,
          "durationTicks": 60,
          "midi": 76,
          "name": "E5",
          "ticks": 417540,
          "time": 1293.2948423333332,
          "velocity": 0.7874015748031497
        },
        {
          "duration": 0.0625,
          "durationTicks": 30,
          "midi": 76,
          "name": "E5",
          "ticks": 417600,
          "time": 1293.4198423333332,
          "velocity": 0.7874015748031497
        },
        {
          "duration": 0.8125,
          "durationTicks": 390,
          "midi": 74,
          "name": "D5",
          "ticks": 417630,
          "time": 1293.4823423333332,
          "velocity": 0.7874015748031497
        },
        {
          "duration": 0.125,
          "durationTicks": 60,
          "midi": 77,
          "name": "F5",
          "ticks": 418020,
          "time": 1294.2948423333332,
          "velocity": 0.7874015748031497
        },
        {
          "duration": 0.0625,
          "durationTicks": 30,
          "midi": 77,
          "name": "F5",
          "ticks": 418080,
          "time": 1294.4198423333332,
          "velocity": 0.7874015748031497
        },
        {
          "duration": 0.3125,
          "durationTicks": 150,
          "midi": 76,
          "name": "E5",
          "ticks": 418110,
          "time": 1294.4823423333332,
          "velocity": 0.7874015748031497
        },
        {
          "duration": 0.125,
          "durationTicks": 60,
          "midi": 74,
          "name": "D5",
          "ticks": 418260,
          "time": 1294.7948423333332,
          "velocity": 0.7874015748031497
        },
        {
          "duration": 0.0625,
          "durationTicks": 30,
          "midi": 74,
          "name": "D5",
          "ticks": 418320,
          "time": 1294.9198423333332,
          "velocity": 0.7874015748031497
        },
        {
          "duration": 1.3125,
          "durationTicks": 630,
          "midi": 72,
          "name": "C5",
          "ticks": 418350,
          "time": 1294.9823423333332,
          "velocity": 0.7874015748031497
        },
        {
          "duration": 0.125,
          "durationTicks": 60,
          "midi": 72,
          "name": "C5",
          "ticks": 418980,
          "time": 1296.2948423333332,
          "velocity": 0.7874015748031497
        },
        {
          "duration": 0.5,
          "durationTicks": 240,
          "midi": 72,
          "name": "C5",
          "ticks": 419040,
          "time": 1296.4198423333332,
          "velocity": 0.7874015748031497
        },
        {
          "duration": 0.5,
          "durationTicks": 240,
          "midi": 66,
          "name": "F#4",
          "ticks": 419520,
          "time": 1297.4198423333332,
          "velocity": 0.7874015748031497
        },
        {
          "duration": 0.5,
          "durationTicks": 240,
          "midi": 67,
          "name": "G4",
          "ticks": 419760,
          "time": 1297.9198423333332,
          "velocity": 0.7874015748031497
        },
        {
          "duration": 0.5,
          "durationTicks": 240,
          "midi": 71,
          "name": "B4",
          "ticks": 420240,
          "time": 1298.9198423333332,
          "velocity": 0.7874015748031497
        },
        {
          "duration": 0.25,
          "durationTicks": 120,
          "midi": 72,
          "name": "C5",
          "ticks": 420480,
          "time": 1299.4198423333332,
          "velocity": 0.7874015748031497
        },
        {
          "duration": 0.08522725000011633,
          "durationTicks": 30,
          "midi": 95,
          "name": "B6",
          "ticks": 423360,
          "time": 1305.6046906333333,
          "velocity": 0.7874015748031497
        },
        {
          "duration": 0.08522724999988895,
          "durationTicks": 30,
          "midi": 98,
          "name": "D7",
          "ticks": 423600,
          "time": 1306.2865086333334,
          "velocity": 0.7874015748031497
        },
        {
          "duration": 0.08522724999988895,
          "durationTicks": 30,
          "midi": 91,
          "name": "G6",
          "ticks": 423840,
          "time": 1306.9683266333334,
          "velocity": 0.7874015748031497
        },
        {
          "duration": 0.08522724999988895,
          "durationTicks": 30,
          "midi": 93,
          "name": "A6",
          "ticks": 424080,
          "time": 1307.6501446333334,
          "velocity": 0.7874015748031497
        },
        {
          "duration": 0.08522724999988895,
          "durationTicks": 30,
          "midi": 98,
          "name": "D7",
          "ticks": 424320,
          "time": 1308.3319626333334,
          "velocity": 0.7874015748031497
        },
        {
          "duration": 0.08522724999988895,
          "durationTicks": 30,
          "midi": 90,
          "name": "F#6",
          "ticks": 424560,
          "time": 1309.0137806333335,
          "velocity": 0.7874015748031497
        },
        {
          "duration": 0.08522725000011633,
          "durationTicks": 30,
          "midi": 91,
          "name": "G6",
          "ticks": 424800,
          "time": 1309.6955986333332,
          "velocity": 0.7874015748031497
        },
        {
          "duration": 0.08522725000011633,
          "durationTicks": 30,
          "midi": 95,
          "name": "B6",
          "ticks": 425040,
          "time": 1310.3774166333333,
          "velocity": 0.7874015748031497
        },
        {
          "duration": 0.08522725000011633,
          "durationTicks": 30,
          "midi": 93,
          "name": "A6",
          "ticks": 425280,
          "time": 1311.0592346333333,
          "velocity": 0.7874015748031497
        },
        {
          "duration": 0.08522725000011633,
          "durationTicks": 30,
          "midi": 90,
          "name": "F#6",
          "ticks": 425520,
          "time": 1311.7410526333333,
          "velocity": 0.7874015748031497
        },
        {
          "duration": 0.08522725000011633,
          "durationTicks": 30,
          "midi": 97,
          "name": "C#7",
          "ticks": 425760,
          "time": 1312.4228706333333,
          "velocity": 0.7874015748031497
        },
        {
          "duration": 0.08522725000011633,
          "durationTicks": 30,
          "midi": 98,
          "name": "D7",
          "ticks": 426000,
          "time": 1313.1046886333334,
          "velocity": 0.7874015748031497
        },
        {
          "duration": 0.34090900000001056,
          "durationTicks": 120,
          "midi": 91,
          "name": "G6",
          "ticks": 426240,
          "time": 1313.7865066333334,
          "velocity": 0.7874015748031497
        },
        {
          "duration": 0.34090900000001056,
          "durationTicks": 120,
          "midi": 67,
          "name": "G4",
          "ticks": 426360,
          "time": 1314.1274156333334,
          "velocity": 0.7874015748031497
        },
        {
          "duration": 0.34090900000001056,
          "durationTicks": 120,
          "midi": 69,
          "name": "A4",
          "ticks": 426480,
          "time": 1314.4683246333334,
          "velocity": 0.7874015748031497
        },
        {
          "duration": 0.34090900000001056,
          "durationTicks": 120,
          "midi": 88,
          "name": "E6",
          "ticks": 426600,
          "time": 1314.8092336333334,
          "velocity": 0.7874015748031497
        },
        {
          "duration": 0.34090900000001056,
          "durationTicks": 120,
          "midi": 89,
          "name": "F6",
          "ticks": 426720,
          "time": 1315.1501426333334,
          "velocity": 0.7874015748031497
        },
        {
          "duration": 0.34090900000001056,
          "durationTicks": 120,
          "midi": 86,
          "name": "D6",
          "ticks": 426840,
          "time": 1315.4910516333334,
          "velocity": 0.7874015748031497
        },
        {
          "duration": 0.34090900000001056,
          "durationTicks": 120,
          "midi": 88,
          "name": "E6",
          "ticks": 426960,
          "time": 1315.8319606333334,
          "velocity": 0.7874015748031497
        },
        {
          "duration": 0.34090900000001056,
          "durationTicks": 120,
          "midi": 69,
          "name": "A4",
          "ticks": 427080,
          "time": 1316.1728696333334,
          "velocity": 0.7874015748031497
        },
        {
          "duration": 0.34090900000001056,
          "durationTicks": 120,
          "midi": 71,
          "name": "B4",
          "ticks": 427200,
          "time": 1316.5137786333335,
          "velocity": 0.7874015748031497
        },
        {
          "duration": 0.3409089999997832,
          "durationTicks": 120,
          "midi": 90,
          "name": "F#6",
          "ticks": 427320,
          "time": 1316.8546876333335,
          "velocity": 0.7874015748031497
        },
        {
          "duration": 0.34090900000001056,
          "durationTicks": 120,
          "midi": 91,
          "name": "G6",
          "ticks": 427440,
          "time": 1317.1955966333333,
          "velocity": 0.7874015748031497
        },
        {
          "duration": 0.34090900000001056,
          "durationTicks": 120,
          "midi": 85,
          "name": "C#6",
          "ticks": 427560,
          "time": 1317.5365056333333,
          "velocity": 0.7874015748031497
        },
        {
          "duration": 0.34090900000001056,
          "durationTicks": 120,
          "midi": 78,
          "name": "F#5",
          "ticks": 432000,
          "time": 1330.1501386333334,
          "velocity": 0.7874015748031497
        },
        {
          "duration": 0.34090900000001056,
          "durationTicks": 120,
          "midi": 79,
          "name": "G5",
          "ticks": 432240,
          "time": 1330.8319566333334,
          "velocity": 0.7874015748031497
        },
        {
          "duration": 0.34090900000001056,
          "durationTicks": 120,
          "midi": 81,
          "name": "A5",
          "ticks": 432480,
          "time": 1331.5137746333332,
          "velocity": 0.7874015748031497
        },
        {
          "duration": 0.34090900000001056,
          "durationTicks": 120,
          "midi": 83,
          "name": "B5",
          "ticks": 432720,
          "time": 1332.1955926333333,
          "velocity": 0.7874015748031497
        },
        {
          "duration": 0.34090900000001056,
          "durationTicks": 120,
          "midi": 81,
          "name": "A5",
          "ticks": 432960,
          "time": 1332.8774106333333,
          "velocity": 0.7874015748031497
        },
        {
          "duration": 0.34090900000001056,
          "durationTicks": 120,
          "midi": 79,
          "name": "G5",
          "ticks": 433200,
          "time": 1333.5592286333333,
          "velocity": 0.7874015748031497
        },
        {
          "duration": 0.34090900000001056,
          "durationTicks": 120,
          "midi": 81,
          "name": "A5",
          "ticks": 433440,
          "time": 1334.2410466333333,
          "velocity": 0.7874015748031497
        },
        {
          "duration": 0.34090900000001056,
          "durationTicks": 120,
          "midi": 83,
          "name": "B5",
          "ticks": 433680,
          "time": 1334.9228646333333,
          "velocity": 0.7874015748031497
        },
        {
          "duration": 0.34090900000001056,
          "durationTicks": 120,
          "midi": 81,
          "name": "A5",
          "ticks": 433920,
          "time": 1335.6046826333334,
          "velocity": 0.7874015748031497
        },
        {
          "duration": 0.08522724999988895,
          "durationTicks": 30,
          "midi": 91,
          "name": "G6",
          "ticks": 437790,
          "time": 1346.5989978833334,
          "velocity": 0.7874015748031497
        },
        {
          "duration": 0.08522725000011633,
          "durationTicks": 30,
          "midi": 93,
          "name": "A6",
          "ticks": 437820,
          "time": 1346.6842251333333,
          "velocity": 0.7874015748031497
        },
        {
          "duration": 0.08522724999988895,
          "durationTicks": 30,
          "midi": 91,
          "name": "G6",
          "ticks": 437850,
          "time": 1346.7694523833334,
          "velocity": 0.7874015748031497
        },
        {
          "duration": 0.08522725000011633,
          "durationTicks": 30,
          "midi": 93,
          "name": "A6",
          "ticks": 437880,
          "time": 1346.8546796333333,
          "velocity": 0.7874015748031497
        },
        {
          "duration": 0.08522724999988895,
          "durationTicks": 30,
          "midi": 91,
          "name": "G6",
          "ticks": 437910,
          "time": 1346.9399068833334,
          "velocity": 0.7874015748031497
        },
        {
          "duration": 0.08522725000011633,
          "durationTicks": 30,
          "midi": 93,
          "name": "A6",
          "ticks": 437940,
          "time": 1347.0251341333333,
          "velocity": 0.7874015748031497
        },
        {
          "duration": 0.08522724999988895,
          "durationTicks": 30,
          "midi": 91,
          "name": "G6",
          "ticks": 437970,
          "time": 1347.1103613833334,
          "velocity": 0.7874015748031497
        },
        {
          "duration": 0.08522724999988895,
          "durationTicks": 30,
          "midi": 91,
          "name": "G6",
          "ticks": 438030,
          "time": 1347.2808158833334,
          "velocity": 0.7874015748031497
        },
        {
          "duration": 0.08522725000011633,
          "durationTicks": 30,
          "midi": 93,
          "name": "A6",
          "ticks": 438060,
          "time": 1347.3660431333333,
          "velocity": 0.7874015748031497
        },
        {
          "duration": 0.08522724999988895,
          "durationTicks": 30,
          "midi": 91,
          "name": "G6",
          "ticks": 438090,
          "time": 1347.4512703833334,
          "velocity": 0.7874015748031497
        },
        {
          "duration": 0.08522725000011633,
          "durationTicks": 30,
          "midi": 93,
          "name": "A6",
          "ticks": 438120,
          "time": 1347.5364976333333,
          "velocity": 0.7874015748031497
        },
        {
          "duration": 0.08522724999988895,
          "durationTicks": 30,
          "midi": 91,
          "name": "G6",
          "ticks": 438150,
          "time": 1347.6217248833334,
          "velocity": 0.7874015748031497
        },
        {
          "duration": 0.08522725000011633,
          "durationTicks": 30,
          "midi": 93,
          "name": "A6",
          "ticks": 438180,
          "time": 1347.7069521333333,
          "velocity": 0.7874015748031497
        },
        {
          "duration": 0.08522724999988895,
          "durationTicks": 30,
          "midi": 91,
          "name": "G6",
          "ticks": 438210,
          "time": 1347.7921793833334,
          "velocity": 0.7874015748031497
        },
        {
          "duration": 0.08522724999988895,
          "durationTicks": 30,
          "midi": 91,
          "name": "G6",
          "ticks": 438270,
          "time": 1347.9626338833334,
          "velocity": 0.7874015748031497
        },
        {
          "duration": 0.08522725000011633,
          "durationTicks": 30,
          "midi": 93,
          "name": "A6",
          "ticks": 438300,
          "time": 1348.0478611333333,
          "velocity": 0.7874015748031497
        },
        {
          "duration": 0.08522724999988895,
          "durationTicks": 30,
          "midi": 91,
          "name": "G6",
          "ticks": 438330,
          "time": 1348.1330883833334,
          "velocity": 0.7874015748031497
        },
        {
          "duration": 0.08522725000011633,
          "durationTicks": 30,
          "midi": 93,
          "name": "A6",
          "ticks": 438360,
          "time": 1348.2183156333333,
          "velocity": 0.7874015748031497
        },
        {
          "duration": 0.08522724999988895,
          "durationTicks": 30,
          "midi": 91,
          "name": "G6",
          "ticks": 438390,
          "time": 1348.3035428833334,
          "velocity": 0.7874015748031497
        },
        {
          "duration": 0.08522725000011633,
          "durationTicks": 30,
          "midi": 93,
          "name": "A6",
          "ticks": 438420,
          "time": 1348.3887701333333,
          "velocity": 0.7874015748031497
        },
        {
          "duration": 0.08522724999988895,
          "durationTicks": 30,
          "midi": 91,
          "name": "G6",
          "ticks": 438450,
          "time": 1348.4739973833334,
          "velocity": 0.7874015748031497
        },
        {
          "duration": 0.08522724999988895,
          "durationTicks": 30,
          "midi": 91,
          "name": "G6",
          "ticks": 438510,
          "time": 1348.6444518833334,
          "velocity": 0.7874015748031497
        },
        {
          "duration": 0.08522725000011633,
          "durationTicks": 30,
          "midi": 93,
          "name": "A6",
          "ticks": 438540,
          "time": 1348.7296791333333,
          "velocity": 0.7874015748031497
        },
        {
          "duration": 0.08522724999988895,
          "durationTicks": 30,
          "midi": 91,
          "name": "G6",
          "ticks": 438570,
          "time": 1348.8149063833334,
          "velocity": 0.7874015748031497
        },
        {
          "duration": 0.08522725000011633,
          "durationTicks": 30,
          "midi": 93,
          "name": "A6",
          "ticks": 438600,
          "time": 1348.9001336333333,
          "velocity": 0.7874015748031497
        },
        {
          "duration": 0.08522724999988895,
          "durationTicks": 30,
          "midi": 91,
          "name": "G6",
          "ticks": 438630,
          "time": 1348.9853608833334,
          "velocity": 0.7874015748031497
        },
        {
          "duration": 0.08522725000011633,
          "durationTicks": 30,
          "midi": 93,
          "name": "A6",
          "ticks": 438660,
          "time": 1349.0705881333333,
          "velocity": 0.7874015748031497
        },
        {
          "duration": 0.08522724999988895,
          "durationTicks": 30,
          "midi": 91,
          "name": "G6",
          "ticks": 438690,
          "time": 1349.1558153833334,
          "velocity": 0.7874015748031497
        },
        {
          "duration": 0.08522724999988895,
          "durationTicks": 30,
          "midi": 91,
          "name": "G6",
          "ticks": 438750,
          "time": 1349.3262698833335,
          "velocity": 0.7874015748031497
        },
        {
          "duration": 0.08522725000011633,
          "durationTicks": 30,
          "midi": 93,
          "name": "A6",
          "ticks": 438780,
          "time": 1349.4114971333333,
          "velocity": 0.7874015748031497
        },
        {
          "duration": 0.08522724999988895,
          "durationTicks": 30,
          "midi": 91,
          "name": "G6",
          "ticks": 438810,
          "time": 1349.4967243833335,
          "velocity": 0.7874015748031497
        },
        {
          "duration": 0.08522724999988895,
          "durationTicks": 30,
          "midi": 93,
          "name": "A6",
          "ticks": 438840,
          "time": 1349.5819516333333,
          "velocity": 0.7874015748031497
        },
        {
          "duration": 0.08522725000011633,
          "durationTicks": 30,
          "midi": 91,
          "name": "G6",
          "ticks": 438870,
          "time": 1349.6671788833332,
          "velocity": 0.7874015748031497
        },
        {
          "duration": 0.08522725000011633,
          "durationTicks": 30,
          "midi": 93,
          "name": "A6",
          "ticks": 438900,
          "time": 1349.7524061333334,
          "velocity": 0.7874015748031497
        },
        {
          "duration": 0.08522724999988895,
          "durationTicks": 30,
          "midi": 91,
          "name": "G6",
          "ticks": 438930,
          "time": 1349.8376333833335,
          "velocity": 0.7874015748031497
        },
        {
          "duration": 0.08522725000011633,
          "durationTicks": 30,
          "midi": 91,
          "name": "G6",
          "ticks": 438990,
          "time": 1350.0080878833332,
          "velocity": 0.7874015748031497
        },
        {
          "duration": 0.08522724999988895,
          "durationTicks": 30,
          "midi": 93,
          "name": "A6",
          "ticks": 439020,
          "time": 1350.0933151333334,
          "velocity": 0.7874015748031497
        },
        {
          "duration": 0.08522725000011633,
          "durationTicks": 30,
          "midi": 91,
          "name": "G6",
          "ticks": 439050,
          "time": 1350.1785423833333,
          "velocity": 0.7874015748031497
        },
        {
          "duration": 0.08522724999988895,
          "durationTicks": 30,
          "midi": 93,
          "name": "A6",
          "ticks": 439080,
          "time": 1350.2637696333334,
          "velocity": 0.7874015748031497
        },
        {
          "duration": 0.08522725000011633,
          "durationTicks": 30,
          "midi": 91,
          "name": "G6",
          "ticks": 439110,
          "time": 1350.3489968833333,
          "velocity": 0.7874015748031497
        },
        {
          "duration": 0.08522724999988895,
          "durationTicks": 30,
          "midi": 93,
          "name": "A6",
          "ticks": 439140,
          "time": 1350.4342241333334,
          "velocity": 0.7874015748031497
        },
        {
          "duration": 0.08522725000011633,
          "durationTicks": 30,
          "midi": 91,
          "name": "G6",
          "ticks": 439170,
          "time": 1350.5194513833333,
          "velocity": 0.7874015748031497
        },
        {
          "duration": 0.08522725000011633,
          "durationTicks": 30,
          "midi": 91,
          "name": "G6",
          "ticks": 439230,
          "time": 1350.6899058833333,
          "velocity": 0.7874015748031497
        },
        {
          "duration": 0.08522724999988895,
          "durationTicks": 30,
          "midi": 93,
          "name": "A6",
          "ticks": 439260,
          "time": 1350.7751331333334,
          "velocity": 0.7874015748031497
        },
        {
          "duration": 0.08522725000011633,
          "durationTicks": 30,
          "midi": 91,
          "name": "G6",
          "ticks": 439290,
          "time": 1350.8603603833333,
          "velocity": 0.7874015748031497
        },
        {
          "duration": 0.08522724999988895,
          "durationTicks": 30,
          "midi": 93,
          "name": "A6",
          "ticks": 439320,
          "time": 1350.9455876333334,
          "velocity": 0.7874015748031497
        },
        {
          "duration": 0.08522725000011633,
          "durationTicks": 30,
          "midi": 91,
          "name": "G6",
          "ticks": 439350,
          "time": 1351.0308148833333,
          "velocity": 0.7874015748031497
        },
        {
          "duration": 0.08522724999988895,
          "durationTicks": 30,
          "midi": 93,
          "name": "A6",
          "ticks": 439380,
          "time": 1351.1160421333334,
          "velocity": 0.7874015748031497
        },
        {
          "duration": 0.08522725000011633,
          "durationTicks": 30,
          "midi": 91,
          "name": "G6",
          "ticks": 439410,
          "time": 1351.2012693833333,
          "velocity": 0.7874015748031497
        },
        {
          "duration": 0.17045450000000528,
          "durationTicks": 60,
          "midi": 83,
          "name": "B5",
          "ticks": 439440,
          "time": 1351.2864966333334,
          "velocity": 0.7874015748031497
        },
        {
          "duration": 0.17045450000000528,
          "durationTicks": 60,
          "midi": 91,
          "name": "G6",
          "ticks": 439440,
          "time": 1351.2864966333334,
          "velocity": 0.7874015748031497
        },
        {
          "duration": 0.17045450000000528,
          "durationTicks": 60,
          "midi": 84,
          "name": "C6",
          "ticks": 439500,
          "time": 1351.4569511333334,
          "velocity": 0.7874015748031497
        },
        {
          "duration": 0.17045450000000528,
          "durationTicks": 60,
          "midi": 93,
          "name": "A6",
          "ticks": 439500,
          "time": 1351.4569511333334,
          "velocity": 0.7874015748031497
        },
        {
          "duration": 0.17045450000000528,
          "durationTicks": 60,
          "midi": 83,
          "name": "B5",
          "ticks": 439560,
          "time": 1351.6274056333334,
          "velocity": 0.7874015748031497
        },
        {
          "duration": 0.17045450000000528,
          "durationTicks": 60,
          "midi": 91,
          "name": "G6",
          "ticks": 439560,
          "time": 1351.6274056333334,
          "velocity": 0.7874015748031497
        },
        {
          "duration": 0.17045450000000528,
          "durationTicks": 60,
          "midi": 84,
          "name": "C6",
          "ticks": 439620,
          "time": 1351.7978601333334,
          "velocity": 0.7874015748031497
        },
        {
          "duration": 0.17045450000000528,
          "durationTicks": 60,
          "midi": 93,
          "name": "A6",
          "ticks": 439620,
          "time": 1351.7978601333334,
          "velocity": 0.7874015748031497
        },
        {
          "duration": 0.17045450000000528,
          "durationTicks": 60,
          "midi": 81,
          "name": "A5",
          "ticks": 439680,
          "time": 1351.9683146333334,
          "velocity": 0.7874015748031497
        },
        {
          "duration": 0.17045450000000528,
          "durationTicks": 60,
          "midi": 90,
          "name": "F#6",
          "ticks": 439680,
          "time": 1351.9683146333334,
          "velocity": 0.7874015748031497
        },
        {
          "duration": 0.17045450000000528,
          "durationTicks": 60,
          "midi": 83,
          "name": "B5",
          "ticks": 439740,
          "time": 1352.1387691333334,
          "velocity": 0.7874015748031497
        },
        {
          "duration": 0.17045450000000528,
          "durationTicks": 60,
          "midi": 91,
          "name": "G6",
          "ticks": 439740,
          "time": 1352.1387691333334,
          "velocity": 0.7874015748031497
        },
        {
          "duration": 0.17045450000000528,
          "durationTicks": 60,
          "midi": 81,
          "name": "A5",
          "ticks": 439800,
          "time": 1352.3092236333334,
          "velocity": 0.7874015748031497
        },
        {
          "duration": 0.17045450000000528,
          "durationTicks": 60,
          "midi": 90,
          "name": "F#6",
          "ticks": 439800,
          "time": 1352.3092236333334,
          "velocity": 0.7874015748031497
        },
        {
          "duration": 0.17045450000000528,
          "durationTicks": 60,
          "midi": 83,
          "name": "B5",
          "ticks": 439860,
          "time": 1352.4796781333334,
          "velocity": 0.7874015748031497
        },
        {
          "duration": 0.17045450000000528,
          "durationTicks": 60,
          "midi": 91,
          "name": "G6",
          "ticks": 439860,
          "time": 1352.4796781333334,
          "velocity": 0.7874015748031497
        },
        {
          "duration": 0.17045450000000528,
          "durationTicks": 60,
          "midi": 79,
          "name": "G5",
          "ticks": 439920,
          "time": 1352.6501326333334,
          "velocity": 0.7874015748031497
        },
        {
          "duration": 0.17045450000000528,
          "durationTicks": 60,
          "midi": 88,
          "name": "E6",
          "ticks": 439920,
          "time": 1352.6501326333334,
          "velocity": 0.7874015748031497
        },
        {
          "duration": 0.17045450000000528,
          "durationTicks": 60,
          "midi": 76,
          "name": "E5",
          "ticks": 439980,
          "time": 1352.8205871333334,
          "velocity": 0.7874015748031497
        },
        {
          "duration": 0.17045450000000528,
          "durationTicks": 60,
          "midi": 79,
          "name": "G5",
          "ticks": 439980,
          "time": 1352.8205871333334,
          "velocity": 0.7874015748031497
        },
        {
          "duration": 0.17045450000000528,
          "durationTicks": 60,
          "midi": 75,
          "name": "D#5",
          "ticks": 440040,
          "time": 1352.9910416333335,
          "velocity": 0.7874015748031497
        },
        {
          "duration": 0.17045450000000528,
          "durationTicks": 60,
          "midi": 78,
          "name": "F#5",
          "ticks": 440040,
          "time": 1352.9910416333335,
          "velocity": 0.7874015748031497
        },
        {
          "duration": 0.1704544999997779,
          "durationTicks": 60,
          "midi": 76,
          "name": "E5",
          "ticks": 440100,
          "time": 1353.1614961333335,
          "velocity": 0.7874015748031497
        },
        {
          "duration": 0.1704544999997779,
          "durationTicks": 60,
          "midi": 79,
          "name": "G5",
          "ticks": 440100,
          "time": 1353.1614961333335,
          "velocity": 0.7874015748031497
        },
        {
          "duration": 0.17045450000000528,
          "durationTicks": 60,
          "midi": 76,
          "name": "E5",
          "ticks": 440160,
          "time": 1353.3319506333332,
          "velocity": 0.7874015748031497
        },
        {
          "duration": 0.17045450000000528,
          "durationTicks": 60,
          "midi": 83,
          "name": "B5",
          "ticks": 440160,
          "time": 1353.3319506333332,
          "velocity": 0.7874015748031497
        },
        {
          "duration": 0.17045450000000528,
          "durationTicks": 60,
          "midi": 83,
          "name": "B5",
          "ticks": 440220,
          "time": 1353.5024051333332,
          "velocity": 0.7874015748031497
        },
        {
          "duration": 0.17045450000000528,
          "durationTicks": 60,
          "midi": 88,
          "name": "E6",
          "ticks": 440220,
          "time": 1353.5024051333332,
          "velocity": 0.7874015748031497
        },
        {
          "duration": 0.17045450000000528,
          "durationTicks": 60,
          "midi": 81,
          "name": "A5",
          "ticks": 440280,
          "time": 1353.6728596333332,
          "velocity": 0.7874015748031497
        },
        {
          "duration": 0.17045450000000528,
          "durationTicks": 60,
          "midi": 87,
          "name": "D#6",
          "ticks": 440280,
          "time": 1353.6728596333332,
          "velocity": 0.7874015748031497
        },
        {
          "duration": 0.17045450000000528,
          "durationTicks": 60,
          "midi": 83,
          "name": "B5",
          "ticks": 440340,
          "time": 1353.8433141333333,
          "velocity": 0.7874015748031497
        },
        {
          "duration": 0.17045450000000528,
          "durationTicks": 60,
          "midi": 88,
          "name": "E6",
          "ticks": 440340,
          "time": 1353.8433141333333,
          "velocity": 0.7874015748031497
        },
        {
          "duration": 0.17045450000000528,
          "durationTicks": 60,
          "midi": 79,
          "name": "G5",
          "ticks": 440400,
          "time": 1354.0137686333333,
          "velocity": 0.7874015748031497
        },
        {
          "duration": 0.17045450000000528,
          "durationTicks": 60,
          "midi": 91,
          "name": "G6",
          "ticks": 440400,
          "time": 1354.0137686333333,
          "velocity": 0.7874015748031497
        },
        {
          "duration": 0.17045450000000528,
          "durationTicks": 60,
          "midi": 83,
          "name": "B5",
          "ticks": 440460,
          "time": 1354.1842231333333,
          "velocity": 0.7874015748031497
        },
        {
          "duration": 0.17045450000000528,
          "durationTicks": 60,
          "midi": 88,
          "name": "E6",
          "ticks": 440460,
          "time": 1354.1842231333333,
          "velocity": 0.7874015748031497
        },
        {
          "duration": 0.17045450000000528,
          "durationTicks": 60,
          "midi": 79,
          "name": "G5",
          "ticks": 440520,
          "time": 1354.3546776333333,
          "velocity": 0.7874015748031497
        },
        {
          "duration": 0.17045450000000528,
          "durationTicks": 60,
          "midi": 89,
          "name": "F6",
          "ticks": 440520,
          "time": 1354.3546776333333,
          "velocity": 0.7874015748031497
        },
        {
          "duration": 0.17045450000000528,
          "durationTicks": 60,
          "midi": 83,
          "name": "B5",
          "ticks": 440580,
          "time": 1354.5251321333333,
          "velocity": 0.7874015748031497
        },
        {
          "duration": 0.17045450000000528,
          "durationTicks": 60,
          "midi": 86,
          "name": "D6",
          "ticks": 440580,
          "time": 1354.5251321333333,
          "velocity": 0.7874015748031497
        },
        {
          "duration": 0.34090900000001056,
          "durationTicks": 120,
          "midi": 79,
          "name": "G5",
          "ticks": 440640,
          "time": 1354.6955866333333,
          "velocity": 0.7874015748031497
        },
        {
          "duration": 0.34090900000001056,
          "durationTicks": 120,
          "midi": 88,
          "name": "E6",
          "ticks": 440640,
          "time": 1354.6955866333333,
          "velocity": 0.7874015748031497
        },
        {
          "duration": 0.34090900000001056,
          "durationTicks": 120,
          "midi": 76,
          "name": "E5",
          "ticks": 440760,
          "time": 1355.0364956333333,
          "velocity": 0.7874015748031497
        },
        {
          "duration": 0.34090900000001056,
          "durationTicks": 120,
          "midi": 75,
          "name": "D#5",
          "ticks": 440880,
          "time": 1355.3774046333333,
          "velocity": 0.7874015748031497
        },
        {
          "duration": 0.34090900000001056,
          "durationTicks": 120,
          "midi": 74,
          "name": "D5",
          "ticks": 441000,
          "time": 1355.7183136333333,
          "velocity": 0.7874015748031497
        },
        {
          "duration": 0.34090900000001056,
          "durationTicks": 120,
          "midi": 73,
          "name": "C#5",
          "ticks": 441120,
          "time": 1356.0592226333333,
          "velocity": 0.7874015748031497
        },
        {
          "duration": 0.34090900000001056,
          "durationTicks": 120,
          "midi": 88,
          "name": "E6",
          "ticks": 441240,
          "time": 1356.4001316333333,
          "velocity": 0.7874015748031497
        },
        {
          "duration": 0.34090900000001056,
          "durationTicks": 120,
          "midi": 86,
          "name": "D6",
          "ticks": 441360,
          "time": 1356.7410406333333,
          "velocity": 0.7874015748031497
        },
        {
          "duration": 0.34090900000001056,
          "durationTicks": 120,
          "midi": 74,
          "name": "D5",
          "ticks": 441480,
          "time": 1357.0819496333334,
          "velocity": 0.7874015748031497
        },
        {
          "duration": 0.34090900000001056,
          "durationTicks": 120,
          "midi": 73,
          "name": "C#5",
          "ticks": 441600,
          "time": 1357.4228586333334,
          "velocity": 0.7874015748031497
        },
        {
          "duration": 0.34090900000001056,
          "durationTicks": 120,
          "midi": 72,
          "name": "C5",
          "ticks": 441720,
          "time": 1357.7637676333334,
          "velocity": 0.7874015748031497
        },
        {
          "duration": 0.34090900000001056,
          "durationTicks": 120,
          "midi": 71,
          "name": "B4",
          "ticks": 441840,
          "time": 1358.1046766333334,
          "velocity": 0.7874015748031497
        },
        {
          "duration": 0.34090900000001056,
          "durationTicks": 120,
          "midi": 86,
          "name": "D6",
          "ticks": 441960,
          "time": 1358.4455856333334,
          "velocity": 0.7874015748031497
        },
        {
          "duration": 0.08522725000011633,
          "durationTicks": 30,
          "midi": 84,
          "name": "C6",
          "ticks": 442110,
          "time": 1358.8717218833333,
          "velocity": 0.7874015748031497
        },
        {
          "duration": 0.08522724999988895,
          "durationTicks": 30,
          "midi": 86,
          "name": "D6",
          "ticks": 442140,
          "time": 1358.9569491333334,
          "velocity": 0.7874015748031497
        },
        {
          "duration": 0.08522725000011633,
          "durationTicks": 30,
          "midi": 84,
          "name": "C6",
          "ticks": 442170,
          "time": 1359.0421763833333,
          "velocity": 0.7874015748031497
        },
        {
          "duration": 0.08522724999988895,
          "durationTicks": 30,
          "midi": 86,
          "name": "D6",
          "ticks": 442200,
          "time": 1359.1274036333334,
          "velocity": 0.7874015748031497
        },
        {
          "duration": 0.08522725000011633,
          "durationTicks": 30,
          "midi": 84,
          "name": "C6",
          "ticks": 442230,
          "time": 1359.2126308833333,
          "velocity": 0.7874015748031497
        },
        {
          "duration": 0.08522724999988895,
          "durationTicks": 30,
          "midi": 86,
          "name": "D6",
          "ticks": 442260,
          "time": 1359.2978581333334,
          "velocity": 0.7874015748031497
        },
        {
          "duration": 0.08522725000011633,
          "durationTicks": 30,
          "midi": 84,
          "name": "C6",
          "ticks": 442290,
          "time": 1359.3830853833333,
          "velocity": 0.7874015748031497
        },
        {
          "duration": 0.08522725000011633,
          "durationTicks": 30,
          "midi": 84,
          "name": "C6",
          "ticks": 442350,
          "time": 1359.5535398833333,
          "velocity": 0.7874015748031497
        },
        {
          "duration": 0.08522724999988895,
          "durationTicks": 30,
          "midi": 86,
          "name": "D6",
          "ticks": 442380,
          "time": 1359.6387671333334,
          "velocity": 0.7874015748031497
        },
        {
          "duration": 0.08522725000011633,
          "durationTicks": 30,
          "midi": 84,
          "name": "C6",
          "ticks": 442410,
          "time": 1359.7239943833333,
          "velocity": 0.7874015748031497
        },
        {
          "duration": 0.08522724999988895,
          "durationTicks": 30,
          "midi": 86,
          "name": "D6",
          "ticks": 442440,
          "time": 1359.8092216333334,
          "velocity": 0.7874015748031497
        },
        {
          "duration": 0.08522725000011633,
          "durationTicks": 30,
          "midi": 84,
          "name": "C6",
          "ticks": 442470,
          "time": 1359.8944488833333,
          "velocity": 0.7874015748031497
        },
        {
          "duration": 0.08522724999988895,
          "durationTicks": 30,
          "midi": 86,
          "name": "D6",
          "ticks": 442500,
          "time": 1359.9796761333334,
          "velocity": 0.7874015748031497
        },
        {
          "duration": 0.08522725000011633,
          "durationTicks": 30,
          "midi": 84,
          "name": "C6",
          "ticks": 442530,
          "time": 1360.0649033833333,
          "velocity": 0.7874015748031497
        },
        {
          "duration": 0.08522725000011633,
          "durationTicks": 30,
          "midi": 84,
          "name": "C6",
          "ticks": 442590,
          "time": 1360.2353578833333,
          "velocity": 0.7874015748031497
        },
        {
          "duration": 0.08522724999988895,
          "durationTicks": 30,
          "midi": 86,
          "name": "D6",
          "ticks": 442620,
          "time": 1360.3205851333335,
          "velocity": 0.7874015748031497
        },
        {
          "duration": 0.08522725000011633,
          "durationTicks": 30,
          "midi": 84,
          "name": "C6",
          "ticks": 442650,
          "time": 1360.4058123833333,
          "velocity": 0.7874015748031497
        },
        {
          "duration": 0.08522724999988895,
          "durationTicks": 30,
          "midi": 86,
          "name": "D6",
          "ticks": 442680,
          "time": 1360.4910396333335,
          "velocity": 0.7874015748031497
        },
        {
          "duration": 0.08522724999988895,
          "durationTicks": 30,
          "midi": 84,
          "name": "C6",
          "ticks": 442710,
          "time": 1360.5762668833333,
          "velocity": 0.7874015748031497
        },
        {
          "duration": 0.08522725000011633,
          "durationTicks": 30,
          "midi": 86,
          "name": "D6",
          "ticks": 442740,
          "time": 1360.6614941333332,
          "velocity": 0.7874015748031497
        },
        {
          "duration": 0.08522724999988895,
          "durationTicks": 30,
          "midi": 84,
          "name": "C6",
          "ticks": 442770,
          "time": 1360.7467213833334,
          "velocity": 0.7874015748031497
        },
        {
          "duration": 0.08522724999988895,
          "durationTicks": 30,
          "midi": 84,
          "name": "C6",
          "ticks": 442830,
          "time": 1360.9171758833334,
          "velocity": 0.7874015748031497
        },
        {
          "duration": 0.08522725000011633,
          "durationTicks": 30,
          "midi": 86,
          "name": "D6",
          "ticks": 442860,
          "time": 1361.0024031333332,
          "velocity": 0.7874015748031497
        },
        {
          "duration": 0.08522724999988895,
          "durationTicks": 30,
          "midi": 84,
          "name": "C6",
          "ticks": 442890,
          "time": 1361.0876303833334,
          "velocity": 0.7874015748031497
        },
        {
          "duration": 0.08522725000011633,
          "durationTicks": 30,
          "midi": 86,
          "name": "D6",
          "ticks": 442920,
          "time": 1361.1728576333333,
          "velocity": 0.7874015748031497
        },
        {
          "duration": 0.08522724999988895,
          "durationTicks": 30,
          "midi": 84,
          "name": "C6",
          "ticks": 442950,
          "time": 1361.2580848833334,
          "velocity": 0.7874015748031497
        },
        {
          "duration": 0.08522725000011633,
          "durationTicks": 30,
          "midi": 86,
          "name": "D6",
          "ticks": 442980,
          "time": 1361.3433121333333,
          "velocity": 0.7874015748031497
        },
        {
          "duration": 0.08522724999988895,
          "durationTicks": 30,
          "midi": 84,
          "name": "C6",
          "ticks": 443010,
          "time": 1361.4285393833334,
          "velocity": 0.7874015748031497
        },
        {
          "duration": 0.08522724999988895,
          "durationTicks": 30,
          "midi": 84,
          "name": "C6",
          "ticks": 443070,
          "time": 1361.5989938833334,
          "velocity": 0.7874015748031497
        },
        {
          "duration": 0.08522725000011633,
          "durationTicks": 30,
          "midi": 86,
          "name": "D6",
          "ticks": 443100,
          "time": 1361.6842211333333,
          "velocity": 0.7874015748031497
        },
        {
          "duration": 0.08522724999988895,
          "durationTicks": 30,
          "midi": 84,
          "name": "C6",
          "ticks": 443130,
          "time": 1361.7694483833334,
          "velocity": 0.7874015748031497
        },
        {
          "duration": 0.08522725000011633,
          "durationTicks": 30,
          "midi": 86,
          "name": "D6",
          "ticks": 443160,
          "time": 1361.8546756333333,
          "velocity": 0.7874015748031497
        },
        {
          "duration": 0.08522724999988895,
          "durationTicks": 30,
          "midi": 84,
          "name": "C6",
          "ticks": 443190,
          "time": 1361.9399028833334,
          "velocity": 0.7874015748031497
        },
        {
          "duration": 0.08522725000011633,
          "durationTicks": 30,
          "midi": 86,
          "name": "D6",
          "ticks": 443220,
          "time": 1362.0251301333333,
          "velocity": 0.7874015748031497
        },
        {
          "duration": 0.08522724999988895,
          "durationTicks": 30,
          "midi": 84,
          "name": "C6",
          "ticks": 443250,
          "time": 1362.1103573833334,
          "velocity": 0.7874015748031497
        },
        {
          "duration": 0.08522724999988895,
          "durationTicks": 30,
          "midi": 84,
          "name": "C6",
          "ticks": 443310,
          "time": 1362.2808118833334,
          "velocity": 0.7874015748031497
        },
        {
          "duration": 0.08522725000011633,
          "durationTicks": 30,
          "midi": 86,
          "name": "D6",
          "ticks": 443340,
          "time": 1362.3660391333333,
          "velocity": 0.7874015748031497
        },
        {
          "duration": 0.08522724999988895,
          "durationTicks": 30,
          "midi": 84,
          "name": "C6",
          "ticks": 443370,
          "time": 1362.4512663833334,
          "velocity": 0.7874015748031497
        },
        {
          "duration": 0.08522725000011633,
          "durationTicks": 30,
          "midi": 86,
          "name": "D6",
          "ticks": 443400,
          "time": 1362.5364936333333,
          "velocity": 0.7874015748031497
        },
        {
          "duration": 0.08522724999988895,
          "durationTicks": 30,
          "midi": 84,
          "name": "C6",
          "ticks": 443430,
          "time": 1362.6217208833334,
          "velocity": 0.7874015748031497
        },
        {
          "duration": 0.08522725000011633,
          "durationTicks": 30,
          "midi": 86,
          "name": "D6",
          "ticks": 443460,
          "time": 1362.7069481333333,
          "velocity": 0.7874015748031497
        },
        {
          "duration": 0.08522724999988895,
          "durationTicks": 30,
          "midi": 84,
          "name": "C6",
          "ticks": 443490,
          "time": 1362.7921753833334,
          "velocity": 0.7874015748031497
        },
        {
          "duration": 0.6818180000000211,
          "durationTicks": 240,
          "midi": 83,
          "name": "B5",
          "ticks": 443520,
          "time": 1362.8774026333333,
          "velocity": 0.7874015748031497
        },
        {
          "duration": 0.6818180000000211,
          "durationTicks": 240,
          "midi": 84,
          "name": "C6",
          "ticks": 443760,
          "time": 1363.5592206333333,
          "velocity": 0.7874015748031497
        },
        {
          "duration": 0.6818180000000211,
          "durationTicks": 240,
          "midi": 86,
          "name": "D6",
          "ticks": 444000,
          "time": 1364.2410386333333,
          "velocity": 0.7874015748031497
        },
        {
          "duration": 0.34090900000001056,
          "durationTicks": 120,
          "midi": 76,
          "name": "E5",
          "ticks": 444240,
          "time": 1364.9228566333334,
          "velocity": 0.7874015748031497
        },
        {
          "duration": 0.34090900000001056,
          "durationTicks": 120,
          "midi": 88,
          "name": "E6",
          "ticks": 444360,
          "time": 1365.2637656333334,
          "velocity": 0.7874015748031497
        },
        {
          "duration": 0.34090900000001056,
          "durationTicks": 120,
          "midi": 89,
          "name": "F6",
          "ticks": 444480,
          "time": 1365.6046746333334,
          "velocity": 0.7874015748031497
        },
        {
          "duration": 0.34090900000001056,
          "durationTicks": 120,
          "midi": 90,
          "name": "F#6",
          "ticks": 444600,
          "time": 1365.9455836333334,
          "velocity": 0.7874015748031497
        },
        {
          "duration": 0.34090900000001056,
          "durationTicks": 120,
          "midi": 91,
          "name": "G6",
          "ticks": 444720,
          "time": 1366.2864926333334,
          "velocity": 0.7874015748031497
        },
        {
          "duration": 0.34090900000001056,
          "durationTicks": 120,
          "midi": 92,
          "name": "G#6",
          "ticks": 444840,
          "time": 1366.6274016333334,
          "velocity": 0.7874015748031497
        },
        {
          "duration": 0.34090900000001056,
          "durationTicks": 120,
          "midi": 93,
          "name": "A6",
          "ticks": 444960,
          "time": 1366.9683106333334,
          "velocity": 0.7874015748031497
        },
        {
          "duration": 0.34090900000001056,
          "durationTicks": 120,
          "midi": 78,
          "name": "F#5",
          "ticks": 445080,
          "time": 1367.3092196333334,
          "velocity": 0.7874015748031497
        },
        {
          "duration": 0.34090900000001056,
          "durationTicks": 120,
          "midi": 81,
          "name": "A5",
          "ticks": 445080,
          "time": 1367.3092196333334,
          "velocity": 0.7874015748031497
        },
        {
          "duration": 0.3409089999997832,
          "durationTicks": 120,
          "midi": 79,
          "name": "G5",
          "ticks": 445200,
          "time": 1367.6501286333335,
          "velocity": 0.7874015748031497
        },
        {
          "duration": 0.3409089999997832,
          "durationTicks": 120,
          "midi": 86,
          "name": "D6",
          "ticks": 445200,
          "time": 1367.6501286333335,
          "velocity": 0.7874015748031497
        },
        {
          "duration": 0.34090900000001056,
          "durationTicks": 120,
          "midi": 74,
          "name": "D5",
          "ticks": 445320,
          "time": 1367.9910376333332,
          "velocity": 0.7874015748031497
        },
        {
          "duration": 0.34090900000001056,
          "durationTicks": 120,
          "midi": 83,
          "name": "B5",
          "ticks": 445320,
          "time": 1367.9910376333332,
          "velocity": 0.7874015748031497
        },
        {
          "duration": 0.34090900000001056,
          "durationTicks": 120,
          "midi": 78,
          "name": "F#5",
          "ticks": 445440,
          "time": 1368.3319466333332,
          "velocity": 0.7874015748031497
        },
        {
          "duration": 0.34090900000001056,
          "durationTicks": 120,
          "midi": 84,
          "name": "C6",
          "ticks": 445440,
          "time": 1368.3319466333332,
          "velocity": 0.7874015748031497
        },
        {
          "duration": 0.34090900000001056,
          "durationTicks": 120,
          "midi": 74,
          "name": "D5",
          "ticks": 445560,
          "time": 1368.6728556333333,
          "velocity": 0.7874015748031497
        },
        {
          "duration": 0.34090900000001056,
          "durationTicks": 120,
          "midi": 78,
          "name": "F#5",
          "ticks": 445560,
          "time": 1368.6728556333333,
          "velocity": 0.7874015748031497
        },
        {
          "duration": 0.08522725000011633,
          "durationTicks": 30,
          "midi": 81,
          "name": "A5",
          "ticks": 445680,
          "time": 1369.0137646333333,
          "velocity": 0.7874015748031497
        },
        {
          "duration": 0.08522724999988895,
          "durationTicks": 30,
          "midi": 79,
          "name": "G5",
          "ticks": 445710,
          "time": 1369.0989918833334,
          "velocity": 0.7874015748031497
        },
        {
          "duration": 0.08522725000011633,
          "durationTicks": 30,
          "midi": 81,
          "name": "A5",
          "ticks": 445740,
          "time": 1369.1842191333333,
          "velocity": 0.7874015748031497
        },
        {
          "duration": 0.08522724999988895,
          "durationTicks": 30,
          "midi": 79,
          "name": "G5",
          "ticks": 445770,
          "time": 1369.2694463833334,
          "velocity": 0.7874015748031497
        },
        {
          "duration": 0.08522725000011633,
          "durationTicks": 30,
          "midi": 81,
          "name": "A5",
          "ticks": 445800,
          "time": 1369.3546736333333,
          "velocity": 0.7874015748031497
        },
        {
          "duration": 0.08522724999988895,
          "durationTicks": 30,
          "midi": 79,
          "name": "G5",
          "ticks": 445830,
          "time": 1369.4399008833334,
          "velocity": 0.7874015748031497
        },
        {
          "duration": 0.08522725000011633,
          "durationTicks": 30,
          "midi": 81,
          "name": "A5",
          "ticks": 445860,
          "time": 1369.5251281333333,
          "velocity": 0.7874015748031497
        },
        {
          "duration": 0.08522724999988895,
          "durationTicks": 30,
          "midi": 79,
          "name": "G5",
          "ticks": 445890,
          "time": 1369.6103553833334,
          "velocity": 0.7874015748031497
        },
        {
          "duration": 0.08522725000011633,
          "durationTicks": 30,
          "midi": 88,
          "name": "E6",
          "ticks": 445920,
          "time": 1369.6955826333333,
          "velocity": 0.7874015748031497
        },
        {
          "duration": 0.08522724999988895,
          "durationTicks": 30,
          "midi": 86,
          "name": "D6",
          "ticks": 445950,
          "time": 1369.7808098833334,
          "velocity": 0.7874015748031497
        },
        {
          "duration": 0.08522725000011633,
          "durationTicks": 30,
          "midi": 88,
          "name": "E6",
          "ticks": 445980,
          "time": 1369.8660371333333,
          "velocity": 0.7874015748031497
        },
        {
          "duration": 0.08522724999988895,
          "durationTicks": 30,
          "midi": 86,
          "name": "D6",
          "ticks": 446010,
          "time": 1369.9512643833334,
          "velocity": 0.7874015748031497
        },
        {
          "duration": 0.08522725000011633,
          "durationTicks": 30,
          "midi": 88,
          "name": "E6",
          "ticks": 446040,
          "time": 1370.0364916333333,
          "velocity": 0.7874015748031497
        },
        {
          "duration": 0.08522724999988895,
          "durationTicks": 30,
          "midi": 86,
          "name": "D6",
          "ticks": 446070,
          "time": 1370.1217188833334,
          "velocity": 0.7874015748031497
        },
        {
          "duration": 0.08522725000011633,
          "durationTicks": 30,
          "midi": 88,
          "name": "E6",
          "ticks": 446100,
          "time": 1370.2069461333333,
          "velocity": 0.7874015748031497
        },
        {
          "duration": 0.08522724999988895,
          "durationTicks": 30,
          "midi": 86,
          "name": "D6",
          "ticks": 446130,
          "time": 1370.2921733833334,
          "velocity": 0.7874015748031497
        },
        {
          "duration": 0.6818180000000211,
          "durationTicks": 240,
          "midi": 83,
          "name": "B5",
          "ticks": 446160,
          "time": 1370.3774006333333,
          "velocity": 0.7874015748031497
        },
        {
          "duration": 0.6818180000000211,
          "durationTicks": 240,
          "midi": 91,
          "name": "G6",
          "ticks": 446160,
          "time": 1370.3774006333333,
          "velocity": 0.7874015748031497
        },
        {
          "duration": 0.40178549999995994,
          "durationTicks": 180,
          "midi": 59,
          "name": "B3",
          "ticks": 447120,
          "time": 1373.1046726333334,
          "velocity": 0.7874015748031497
        },
        {
          "duration": 0.40178549999995994,
          "durationTicks": 180,
          "midi": 62,
          "name": "D4",
          "ticks": 447120,
          "time": 1373.1046726333334,
          "velocity": 0.7874015748031497
        },
        {
          "duration": 0.40178549999995994,
          "durationTicks": 180,
          "midi": 67,
          "name": "G4",
          "ticks": 447120,
          "time": 1373.1046726333334,
          "velocity": 0.7874015748031497
        },
        {
          "duration": 0.13392850000013823,
          "durationTicks": 60,
          "midi": 62,
          "name": "D4",
          "ticks": 447300,
          "time": 1373.5064581333334,
          "velocity": 0.7874015748031497
        },
        {
          "duration": 0.13392850000013823,
          "durationTicks": 60,
          "midi": 67,
          "name": "G4",
          "ticks": 447300,
          "time": 1373.5064581333334,
          "velocity": 0.7874015748031497
        },
        {
          "duration": 0.13392849999991085,
          "durationTicks": 60,
          "midi": 60,
          "name": "C4",
          "ticks": 447360,
          "time": 1373.6403866333335,
          "velocity": 0.7874015748031497
        },
        {
          "duration": 0.13392849999991085,
          "durationTicks": 60,
          "midi": 66,
          "name": "F#4",
          "ticks": 447360,
          "time": 1373.6403866333335,
          "velocity": 0.7874015748031497
        },
        {
          "duration": 0.13392849999991085,
          "durationTicks": 60,
          "midi": 62,
          "name": "D4",
          "ticks": 447420,
          "time": 1373.7743151333334,
          "velocity": 0.7874015748031497
        },
        {
          "duration": 0.13392849999991085,
          "durationTicks": 60,
          "midi": 67,
          "name": "G4",
          "ticks": 447420,
          "time": 1373.7743151333334,
          "velocity": 0.7874015748031497
        },
        {
          "duration": 0.13392850000013823,
          "durationTicks": 60,
          "midi": 60,
          "name": "C4",
          "ticks": 447480,
          "time": 1373.9082436333333,
          "velocity": 0.7874015748031497
        },
        {
          "duration": 0.13392850000013823,
          "durationTicks": 60,
          "midi": 66,
          "name": "F#4",
          "ticks": 447480,
          "time": 1373.9082436333333,
          "velocity": 0.7874015748031497
        },
        {
          "duration": 0.13392849999991085,
          "durationTicks": 60,
          "midi": 62,
          "name": "D4",
          "ticks": 447540,
          "time": 1374.0421721333335,
          "velocity": 0.7874015748031497
        },
        {
          "duration": 0.13392849999991085,
          "durationTicks": 60,
          "midi": 67,
          "name": "G4",
          "ticks": 447540,
          "time": 1374.0421721333335,
          "velocity": 0.7874015748031497
        },
        {
          "duration": 0.13392850000013823,
          "durationTicks": 60,
          "midi": 60,
          "name": "C4",
          "ticks": 447600,
          "time": 1374.1761006333334,
          "velocity": 0.7874015748031497
        },
        {
          "duration": 0.13392850000013823,
          "durationTicks": 60,
          "midi": 66,
          "name": "F#4",
          "ticks": 447600,
          "time": 1374.1761006333334,
          "velocity": 0.7874015748031497
        },
        {
          "duration": 0.13392849999991085,
          "durationTicks": 60,
          "midi": 62,
          "name": "D4",
          "ticks": 447660,
          "time": 1374.3100291333335,
          "velocity": 0.7874015748031497
        },
        {
          "duration": 0.13392849999991085,
          "durationTicks": 60,
          "midi": 67,
          "name": "G4",
          "ticks": 447660,
          "time": 1374.3100291333335,
          "velocity": 0.7874015748031497
        },
        {
          "duration": 0.13392849999991085,
          "durationTicks": 60,
          "midi": 60,
          "name": "C4",
          "ticks": 447720,
          "time": 1374.4439576333334,
          "velocity": 0.7874015748031497
        },
        {
          "duration": 0.13392849999991085,
          "durationTicks": 60,
          "midi": 66,
          "name": "F#4",
          "ticks": 447720,
          "time": 1374.4439576333334,
          "velocity": 0.7874015748031497
        },
        {
          "duration": 0.13392850000013823,
          "durationTicks": 60,
          "midi": 62,
          "name": "D4",
          "ticks": 447780,
          "time": 1374.5778861333333,
          "velocity": 0.7874015748031497
        },
        {
          "duration": 0.13392850000013823,
          "durationTicks": 60,
          "midi": 67,
          "name": "G4",
          "ticks": 447780,
          "time": 1374.5778861333333,
          "velocity": 0.7874015748031497
        },
        {
          "duration": 0.40178549999995994,
          "durationTicks": 180,
          "midi": 66,
          "name": "F#4",
          "ticks": 447840,
          "time": 1374.7118146333335,
          "velocity": 0.7874015748031497
        },
        {
          "duration": 0.40178549999995994,
          "durationTicks": 180,
          "midi": 69,
          "name": "A4",
          "ticks": 447840,
          "time": 1374.7118146333335,
          "velocity": 0.7874015748031497
        },
        {
          "duration": 0.40178549999995994,
          "durationTicks": 180,
          "midi": 74,
          "name": "D5",
          "ticks": 447840,
          "time": 1374.7118146333335,
          "velocity": 0.7874015748031497
        },
        {
          "duration": 0.13392849999991085,
          "durationTicks": 60,
          "midi": 66,
          "name": "F#4",
          "ticks": 448020,
          "time": 1375.1136001333334,
          "velocity": 0.7874015748031497
        },
        {
          "duration": 0.13392849999991085,
          "durationTicks": 60,
          "midi": 69,
          "name": "A4",
          "ticks": 448020,
          "time": 1375.1136001333334,
          "velocity": 0.7874015748031497
        },
        {
          "duration": 0.13392849999991085,
          "durationTicks": 60,
          "midi": 74,
          "name": "D5",
          "ticks": 448020,
          "time": 1375.1136001333334,
          "velocity": 0.7874015748031497
        },
        {
          "duration": 0.13392850000013823,
          "durationTicks": 60,
          "midi": 64,
          "name": "E4",
          "ticks": 448080,
          "time": 1375.2475286333333,
          "velocity": 0.7874015748031497
        },
        {
          "duration": 0.13392850000013823,
          "durationTicks": 60,
          "midi": 67,
          "name": "G4",
          "ticks": 448080,
          "time": 1375.2475286333333,
          "velocity": 0.7874015748031497
        },
        {
          "duration": 0.13392850000013823,
          "durationTicks": 60,
          "midi": 73,
          "name": "C#5",
          "ticks": 448080,
          "time": 1375.2475286333333,
          "velocity": 0.7874015748031497
        },
        {
          "duration": 0.13392849999991085,
          "durationTicks": 60,
          "midi": 66,
          "name": "F#4",
          "ticks": 448140,
          "time": 1375.3814571333335,
          "velocity": 0.7874015748031497
        },
        {
          "duration": 0.13392849999991085,
          "durationTicks": 60,
          "midi": 69,
          "name": "A4",
          "ticks": 448140,
          "time": 1375.3814571333335,
          "velocity": 0.7874015748031497
        },
        {
          "duration": 0.13392849999991085,
          "durationTicks": 60,
          "midi": 74,
          "name": "D5",
          "ticks": 448140,
          "time": 1375.3814571333335,
          "velocity": 0.7874015748031497
        },
        {
          "duration": 0.13392849999991085,
          "durationTicks": 60,
          "midi": 64,
          "name": "E4",
          "ticks": 448200,
          "time": 1375.5153856333334,
          "velocity": 0.7874015748031497
        },
        {
          "duration": 0.13392849999991085,
          "durationTicks": 60,
          "midi": 67,
          "name": "G4",
          "ticks": 448200,
          "time": 1375.5153856333334,
          "velocity": 0.7874015748031497
        },
        {
          "duration": 0.13392849999991085,
          "durationTicks": 60,
          "midi": 73,
          "name": "C#5",
          "ticks": 448200,
          "time": 1375.5153856333334,
          "velocity": 0.7874015748031497
        },
        {
          "duration": 0.13392850000013823,
          "durationTicks": 60,
          "midi": 66,
          "name": "F#4",
          "ticks": 448260,
          "time": 1375.6493141333333,
          "velocity": 0.7874015748031497
        },
        {
          "duration": 0.13392850000013823,
          "durationTicks": 60,
          "midi": 69,
          "name": "A4",
          "ticks": 448260,
          "time": 1375.6493141333333,
          "velocity": 0.7874015748031497
        },
        {
          "duration": 0.13392850000013823,
          "durationTicks": 60,
          "midi": 74,
          "name": "D5",
          "ticks": 448260,
          "time": 1375.6493141333333,
          "velocity": 0.7874015748031497
        },
        {
          "duration": 0.13392849999991085,
          "durationTicks": 60,
          "midi": 64,
          "name": "E4",
          "ticks": 448320,
          "time": 1375.7832426333334,
          "velocity": 0.7874015748031497
        },
        {
          "duration": 0.13392849999991085,
          "durationTicks": 60,
          "midi": 67,
          "name": "G4",
          "ticks": 448320,
          "time": 1375.7832426333334,
          "velocity": 0.7874015748031497
        },
        {
          "duration": 0.13392849999991085,
          "durationTicks": 60,
          "midi": 73,
          "name": "C#5",
          "ticks": 448320,
          "time": 1375.7832426333334,
          "velocity": 0.7874015748031497
        },
        {
          "duration": 0.13392850000013823,
          "durationTicks": 60,
          "midi": 66,
          "name": "F#4",
          "ticks": 448380,
          "time": 1375.9171711333333,
          "velocity": 0.7874015748031497
        },
        {
          "duration": 0.13392850000013823,
          "durationTicks": 60,
          "midi": 69,
          "name": "A4",
          "ticks": 448380,
          "time": 1375.9171711333333,
          "velocity": 0.7874015748031497
        },
        {
          "duration": 0.13392850000013823,
          "durationTicks": 60,
          "midi": 74,
          "name": "D5",
          "ticks": 448380,
          "time": 1375.9171711333333,
          "velocity": 0.7874015748031497
        },
        {
          "duration": 0.13392849999991085,
          "durationTicks": 60,
          "midi": 64,
          "name": "E4",
          "ticks": 448440,
          "time": 1376.0510996333335,
          "velocity": 0.7874015748031497
        },
        {
          "duration": 0.13392849999991085,
          "durationTicks": 60,
          "midi": 67,
          "name": "G4",
          "ticks": 448440,
          "time": 1376.0510996333335,
          "velocity": 0.7874015748031497
        },
        {
          "duration": 0.13392849999991085,
          "durationTicks": 60,
          "midi": 73,
          "name": "C#5",
          "ticks": 448440,
          "time": 1376.0510996333335,
          "velocity": 0.7874015748031497
        },
        {
          "duration": 0.13392849999991085,
          "durationTicks": 60,
          "midi": 66,
          "name": "F#4",
          "ticks": 448500,
          "time": 1376.1850281333334,
          "velocity": 0.7874015748031497
        },
        {
          "duration": 0.13392849999991085,
          "durationTicks": 60,
          "midi": 69,
          "name": "A4",
          "ticks": 448500,
          "time": 1376.1850281333334,
          "velocity": 0.7874015748031497
        },
        {
          "duration": 0.13392849999991085,
          "durationTicks": 60,
          "midi": 74,
          "name": "D5",
          "ticks": 448500,
          "time": 1376.1850281333334,
          "velocity": 0.7874015748031497
        },
        {
          "duration": 0.4017855000001873,
          "durationTicks": 180,
          "midi": 67,
          "name": "G4",
          "ticks": 448560,
          "time": 1376.3189566333333,
          "velocity": 0.7874015748031497
        },
        {
          "duration": 0.4017855000001873,
          "durationTicks": 180,
          "midi": 71,
          "name": "B4",
          "ticks": 448560,
          "time": 1376.3189566333333,
          "velocity": 0.7874015748031497
        },
        {
          "duration": 0.4017855000001873,
          "durationTicks": 180,
          "midi": 74,
          "name": "D5",
          "ticks": 448560,
          "time": 1376.3189566333333,
          "velocity": 0.7874015748031497
        },
        {
          "duration": 0.4017855000001873,
          "durationTicks": 180,
          "midi": 79,
          "name": "G5",
          "ticks": 448560,
          "time": 1376.3189566333333,
          "velocity": 0.7874015748031497
        },
        {
          "duration": 0.13392849999991085,
          "durationTicks": 60,
          "midi": 76,
          "name": "E5",
          "ticks": 448740,
          "time": 1376.7207421333335,
          "velocity": 0.7874015748031497
        },
        {
          "duration": 0.13392849999991085,
          "durationTicks": 60,
          "midi": 79,
          "name": "G5",
          "ticks": 448740,
          "time": 1376.7207421333335,
          "velocity": 0.7874015748031497
        },
        {
          "duration": 0.13392849999991085,
          "durationTicks": 60,
          "midi": 74,
          "name": "D5",
          "ticks": 448800,
          "time": 1376.8546706333334,
          "velocity": 0.7874015748031497
        },
        {
          "duration": 0.13392849999991085,
          "durationTicks": 60,
          "midi": 78,
          "name": "F#5",
          "ticks": 448800,
          "time": 1376.8546706333334,
          "velocity": 0.7874015748031497
        },
        {
          "duration": 0.13392850000013823,
          "durationTicks": 60,
          "midi": 76,
          "name": "E5",
          "ticks": 448860,
          "time": 1376.9885991333333,
          "velocity": 0.7874015748031497
        },
        {
          "duration": 0.13392850000013823,
          "durationTicks": 60,
          "midi": 79,
          "name": "G5",
          "ticks": 448860,
          "time": 1376.9885991333333,
          "velocity": 0.7874015748031497
        },
        {
          "duration": 0.13392849999991085,
          "durationTicks": 60,
          "midi": 73,
          "name": "C#5",
          "ticks": 448920,
          "time": 1377.1225276333334,
          "velocity": 0.7874015748031497
        },
        {
          "duration": 0.13392849999991085,
          "durationTicks": 60,
          "midi": 76,
          "name": "E5",
          "ticks": 448920,
          "time": 1377.1225276333334,
          "velocity": 0.7874015748031497
        },
        {
          "duration": 0.13392850000013823,
          "durationTicks": 60,
          "midi": 76,
          "name": "E5",
          "ticks": 448980,
          "time": 1377.2564561333334,
          "velocity": 0.7874015748031497
        },
        {
          "duration": 0.13392850000013823,
          "durationTicks": 60,
          "midi": 79,
          "name": "G5",
          "ticks": 448980,
          "time": 1377.2564561333334,
          "velocity": 0.7874015748031497
        },
        {
          "duration": 0.13392849999991085,
          "durationTicks": 60,
          "midi": 74,
          "name": "D5",
          "ticks": 449040,
          "time": 1377.3903846333335,
          "velocity": 0.7874015748031497
        },
        {
          "duration": 0.13392849999991085,
          "durationTicks": 60,
          "midi": 78,
          "name": "F#5",
          "ticks": 449040,
          "time": 1377.3903846333335,
          "velocity": 0.7874015748031497
        },
        {
          "duration": 0.13392849999991085,
          "durationTicks": 60,
          "midi": 76,
          "name": "E5",
          "ticks": 449100,
          "time": 1377.5243131333334,
          "velocity": 0.7874015748031497
        },
        {
          "duration": 0.13392849999991085,
          "durationTicks": 60,
          "midi": 79,
          "name": "G5",
          "ticks": 449100,
          "time": 1377.5243131333334,
          "velocity": 0.7874015748031497
        },
        {
          "duration": 0.13392850000013823,
          "durationTicks": 60,
          "midi": 73,
          "name": "C#5",
          "ticks": 449160,
          "time": 1377.6582416333333,
          "velocity": 0.7874015748031497
        },
        {
          "duration": 0.13392850000013823,
          "durationTicks": 60,
          "midi": 76,
          "name": "E5",
          "ticks": 449160,
          "time": 1377.6582416333333,
          "velocity": 0.7874015748031497
        },
        {
          "duration": 0.13392849999991085,
          "durationTicks": 60,
          "midi": 73,
          "name": "C#5",
          "ticks": 449220,
          "time": 1377.7921701333335,
          "velocity": 0.7874015748031497
        },
        {
          "duration": 0.13392849999991085,
          "durationTicks": 60,
          "midi": 79,
          "name": "G5",
          "ticks": 449220,
          "time": 1377.7921701333335,
          "velocity": 0.7874015748031497
        },
        {
          "duration": 0.5357140000000982,
          "durationTicks": 240,
          "midi": 62,
          "name": "D4",
          "ticks": 449280,
          "time": 1377.9260986333334,
          "velocity": 0.7874015748031497
        },
        {
          "duration": 0.5357140000000982,
          "durationTicks": 240,
          "midi": 69,
          "name": "A4",
          "ticks": 449280,
          "time": 1377.9260986333334,
          "velocity": 0.7874015748031497
        },
        {
          "duration": 0.5357140000000982,
          "durationTicks": 240,
          "midi": 74,
          "name": "D5",
          "ticks": 449280,
          "time": 1377.9260986333334,
          "velocity": 0.7874015748031497
        },
        {
          "duration": 0.5357140000000982,
          "durationTicks": 240,
          "midi": 78,
          "name": "F#5",
          "ticks": 449280,
          "time": 1377.9260986333334,
          "velocity": 0.7874015748031497
        },
        {
          "duration": 0.08928566666668303,
          "durationTicks": 40,
          "midi": 84,
          "name": "C6",
          "ticks": 449560,
          "time": 1378.5510983000001,
          "velocity": 0.7874015748031497
        },
        {
          "duration": 0.08928566666645565,
          "durationTicks": 40,
          "midi": 83,
          "name": "B5",
          "ticks": 449600,
          "time": 1378.6403839666668,
          "velocity": 0.7874015748031497
        },
        {
          "duration": 0.08928566666668303,
          "durationTicks": 40,
          "midi": 72,
          "name": "C5",
          "ticks": 449640,
          "time": 1378.7296696333333,
          "velocity": 0.7874015748031497
        },
        {
          "duration": 0.08928566666668303,
          "durationTicks": 40,
          "midi": 83,
          "name": "B5",
          "ticks": 449680,
          "time": 1378.8189553,
          "velocity": 0.7874015748031497
        },
        {
          "duration": 0.08928566666668303,
          "durationTicks": 40,
          "midi": 81,
          "name": "A5",
          "ticks": 449720,
          "time": 1378.9082409666667,
          "velocity": 0.7874015748031497
        },
        {
          "duration": 0.08928566666668303,
          "durationTicks": 40,
          "midi": 71,
          "name": "B4",
          "ticks": 449760,
          "time": 1378.9975266333333,
          "velocity": 0.7874015748031497
        },
        {
          "duration": 0.08928566666668303,
          "durationTicks": 40,
          "midi": 81,
          "name": "A5",
          "ticks": 449800,
          "time": 1379.0868123,
          "velocity": 0.7874015748031497
        },
        {
          "duration": 0.08928566666668303,
          "durationTicks": 40,
          "midi": 79,
          "name": "G5",
          "ticks": 449840,
          "time": 1379.1760979666667,
          "velocity": 0.7874015748031497
        },
        {
          "duration": 0.08928566666668303,
          "durationTicks": 40,
          "midi": 69,
          "name": "A4",
          "ticks": 449880,
          "time": 1379.2653836333334,
          "velocity": 0.7874015748031497
        },
        {
          "duration": 0.08928566666668303,
          "durationTicks": 40,
          "midi": 79,
          "name": "G5",
          "ticks": 449920,
          "time": 1379.3546693,
          "velocity": 0.7874015748031497
        },
        {
          "duration": 0.08928566666668303,
          "durationTicks": 40,
          "midi": 78,
          "name": "F#5",
          "ticks": 449960,
          "time": 1379.4439549666668,
          "velocity": 0.7874015748031497
        },
        {
          "duration": 0.40178549999995994,
          "durationTicks": 180,
          "midi": 67,
          "name": "G4",
          "ticks": 450000,
          "time": 1379.5332406333334,
          "velocity": 0.7874015748031497
        },
        {
          "duration": 0.40178549999995994,
          "durationTicks": 180,
          "midi": 74,
          "name": "D5",
          "ticks": 450000,
          "time": 1379.5332406333334,
          "velocity": 0.7874015748031497
        },
        {
          "duration": 0.40178549999995994,
          "durationTicks": 180,
          "midi": 79,
          "name": "G5",
          "ticks": 450000,
          "time": 1379.5332406333334,
          "velocity": 0.7874015748031497
        },
        {
          "duration": 0.13392849999991085,
          "durationTicks": 60,
          "midi": 71,
          "name": "B4",
          "ticks": 450180,
          "time": 1379.9350261333334,
          "velocity": 0.7874015748031497
        },
        {
          "duration": 0.13392849999991085,
          "durationTicks": 60,
          "midi": 74,
          "name": "D5",
          "ticks": 450180,
          "time": 1379.9350261333334,
          "velocity": 0.7874015748031497
        },
        {
          "duration": 0.13392849999991085,
          "durationTicks": 60,
          "midi": 79,
          "name": "G5",
          "ticks": 450180,
          "time": 1379.9350261333334,
          "velocity": 0.7874015748031497
        },
        {
          "duration": 0.2678570000000491,
          "durationTicks": 120,
          "midi": 69,
          "name": "A4",
          "ticks": 450240,
          "time": 1380.0689546333333,
          "velocity": 0.7874015748031497
        },
        {
          "duration": 0.2678570000000491,
          "durationTicks": 120,
          "midi": 72,
          "name": "C5",
          "ticks": 450240,
          "time": 1380.0689546333333,
          "velocity": 0.7874015748031497
        },
        {
          "duration": 0.2678570000000491,
          "durationTicks": 120,
          "midi": 78,
          "name": "F#5",
          "ticks": 450240,
          "time": 1380.0689546333333,
          "velocity": 0.7874015748031497
        },
        {
          "duration": 0.2678570000000491,
          "durationTicks": 120,
          "midi": 71,
          "name": "B4",
          "ticks": 450300,
          "time": 1380.2028831333334,
          "velocity": 0.7874015748031497
        },
        {
          "duration": 0.2678570000000491,
          "durationTicks": 120,
          "midi": 74,
          "name": "D5",
          "ticks": 450300,
          "time": 1380.2028831333334,
          "velocity": 0.7874015748031497
        },
        {
          "duration": 0.2678570000000491,
          "durationTicks": 120,
          "midi": 79,
          "name": "G5",
          "ticks": 450300,
          "time": 1380.2028831333334,
          "velocity": 0.7874015748031497
        },
        {
          "duration": 0.2678570000000491,
          "durationTicks": 120,
          "midi": 69,
          "name": "A4",
          "ticks": 450360,
          "time": 1380.3368116333334,
          "velocity": 0.7874015748031497
        },
        {
          "duration": 0.2678570000000491,
          "durationTicks": 120,
          "midi": 72,
          "name": "C5",
          "ticks": 450360,
          "time": 1380.3368116333334,
          "velocity": 0.7874015748031497
        },
        {
          "duration": 0.2678570000000491,
          "durationTicks": 120,
          "midi": 78,
          "name": "F#5",
          "ticks": 450360,
          "time": 1380.3368116333334,
          "velocity": 0.7874015748031497
        },
        {
          "duration": 0.13392849999991085,
          "durationTicks": 60,
          "midi": 71,
          "name": "B4",
          "ticks": 450420,
          "time": 1380.4707401333335,
          "velocity": 0.7874015748031497
        },
        {
          "duration": 0.13392849999991085,
          "durationTicks": 60,
          "midi": 74,
          "name": "D5",
          "ticks": 450420,
          "time": 1380.4707401333335,
          "velocity": 0.7874015748031497
        },
        {
          "duration": 0.13392849999991085,
          "durationTicks": 60,
          "midi": 79,
          "name": "G5",
          "ticks": 450420,
          "time": 1380.4707401333335,
          "velocity": 0.7874015748031497
        },
        {
          "duration": 0.2678570000000491,
          "durationTicks": 120,
          "midi": 69,
          "name": "A4",
          "ticks": 450480,
          "time": 1380.6046686333334,
          "velocity": 0.7874015748031497
        },
        {
          "duration": 0.2678570000000491,
          "durationTicks": 120,
          "midi": 72,
          "name": "C5",
          "ticks": 450480,
          "time": 1380.6046686333334,
          "velocity": 0.7874015748031497
        },
        {
          "duration": 0.2678570000000491,
          "durationTicks": 120,
          "midi": 78,
          "name": "F#5",
          "ticks": 450480,
          "time": 1380.6046686333334,
          "velocity": 0.7874015748031497
        },
        {
          "duration": 0.2678570000000491,
          "durationTicks": 120,
          "midi": 71,
          "name": "B4",
          "ticks": 450540,
          "time": 1380.7385971333333,
          "velocity": 0.7874015748031497
        },
        {
          "duration": 0.2678570000000491,
          "durationTicks": 120,
          "midi": 74,
          "name": "D5",
          "ticks": 450540,
          "time": 1380.7385971333333,
          "velocity": 0.7874015748031497
        },
        {
          "duration": 0.2678570000000491,
          "durationTicks": 120,
          "midi": 79,
          "name": "G5",
          "ticks": 450540,
          "time": 1380.7385971333333,
          "velocity": 0.7874015748031497
        },
        {
          "duration": 0.2678570000000491,
          "durationTicks": 120,
          "midi": 67,
          "name": "G4",
          "ticks": 450600,
          "time": 1380.8725256333335,
          "velocity": 0.7874015748031497
        },
        {
          "duration": 0.13392849999991085,
          "durationTicks": 60,
          "midi": 71,
          "name": "B4",
          "ticks": 450600,
          "time": 1380.8725256333335,
          "velocity": 0.7874015748031497
        },
        {
          "duration": 0.13392849999991085,
          "durationTicks": 60,
          "midi": 74,
          "name": "D5",
          "ticks": 450600,
          "time": 1380.8725256333335,
          "velocity": 0.7874015748031497
        },
        {
          "duration": 0.13392850000013823,
          "durationTicks": 60,
          "midi": 71,
          "name": "B4",
          "ticks": 450660,
          "time": 1381.0064541333334,
          "velocity": 0.7874015748031497
        },
        {
          "duration": 0.13392850000013823,
          "durationTicks": 60,
          "midi": 74,
          "name": "D5",
          "ticks": 450660,
          "time": 1381.0064541333334,
          "velocity": 0.7874015748031497
        },
        {
          "duration": 0.13392850000013823,
          "durationTicks": 60,
          "midi": 77,
          "name": "F5",
          "ticks": 450660,
          "time": 1381.0064541333334,
          "velocity": 0.7874015748031497
        },
        {
          "duration": 0.13392849999991085,
          "durationTicks": 60,
          "midi": 67,
          "name": "G4",
          "ticks": 450900,
          "time": 1381.5421681333335,
          "velocity": 0.7874015748031497
        },
        {
          "duration": 0.13392849999991085,
          "durationTicks": 60,
          "midi": 72,
          "name": "C5",
          "ticks": 450900,
          "time": 1381.5421681333335,
          "velocity": 0.7874015748031497
        },
        {
          "duration": 0.13392849999991085,
          "durationTicks": 60,
          "midi": 76,
          "name": "E5",
          "ticks": 450900,
          "time": 1381.5421681333335,
          "velocity": 0.7874015748031497
        },
        {
          "duration": 0.2678570000000491,
          "durationTicks": 120,
          "midi": 65,
          "name": "F4",
          "ticks": 450960,
          "time": 1381.6760966333334,
          "velocity": 0.7874015748031497
        },
        {
          "duration": 0.2678570000000491,
          "durationTicks": 120,
          "midi": 71,
          "name": "B4",
          "ticks": 450960,
          "time": 1381.6760966333334,
          "velocity": 0.7874015748031497
        },
        {
          "duration": 0.2678570000000491,
          "durationTicks": 120,
          "midi": 74,
          "name": "D5",
          "ticks": 450960,
          "time": 1381.6760966333334,
          "velocity": 0.7874015748031497
        },
        {
          "duration": 0.2678570000000491,
          "durationTicks": 120,
          "midi": 67,
          "name": "G4",
          "ticks": 451020,
          "time": 1381.8100251333333,
          "velocity": 0.7874015748031497
        },
        {
          "duration": 0.2678570000000491,
          "durationTicks": 120,
          "midi": 72,
          "name": "C5",
          "ticks": 451020,
          "time": 1381.8100251333333,
          "velocity": 0.7874015748031497
        },
        {
          "duration": 0.2678570000000491,
          "durationTicks": 120,
          "midi": 76,
          "name": "E5",
          "ticks": 451020,
          "time": 1381.8100251333333,
          "velocity": 0.7874015748031497
        },
        {
          "duration": 0.2678570000000491,
          "durationTicks": 120,
          "midi": 65,
          "name": "F4",
          "ticks": 451080,
          "time": 1381.9439536333334,
          "velocity": 0.7874015748031497
        },
        {
          "duration": 0.2678570000000491,
          "durationTicks": 120,
          "midi": 71,
          "name": "B4",
          "ticks": 451080,
          "time": 1381.9439536333334,
          "velocity": 0.7874015748031497
        },
        {
          "duration": 0.2678570000000491,
          "durationTicks": 120,
          "midi": 74,
          "name": "D5",
          "ticks": 451080,
          "time": 1381.9439536333334,
          "velocity": 0.7874015748031497
        },
        {
          "duration": 0.13392850000013823,
          "durationTicks": 60,
          "midi": 67,
          "name": "G4",
          "ticks": 451140,
          "time": 1382.0778821333333,
          "velocity": 0.7874015748031497
        },
        {
          "duration": 0.13392850000013823,
          "durationTicks": 60,
          "midi": 72,
          "name": "C5",
          "ticks": 451140,
          "time": 1382.0778821333333,
          "velocity": 0.7874015748031497
        },
        {
          "duration": 0.13392850000013823,
          "durationTicks": 60,
          "midi": 76,
          "name": "E5",
          "ticks": 451140,
          "time": 1382.0778821333333,
          "velocity": 0.7874015748031497
        },
        {
          "duration": 0.2678569999998217,
          "durationTicks": 120,
          "midi": 65,
          "name": "F4",
          "ticks": 451200,
          "time": 1382.2118106333335,
          "velocity": 0.7874015748031497
        },
        {
          "duration": 0.2678569999998217,
          "durationTicks": 120,
          "midi": 71,
          "name": "B4",
          "ticks": 451200,
          "time": 1382.2118106333335,
          "velocity": 0.7874015748031497
        },
        {
          "duration": 0.2678569999998217,
          "durationTicks": 120,
          "midi": 74,
          "name": "D5",
          "ticks": 451200,
          "time": 1382.2118106333335,
          "velocity": 0.7874015748031497
        },
        {
          "duration": 0.2678570000000491,
          "durationTicks": 120,
          "midi": 67,
          "name": "G4",
          "ticks": 451260,
          "time": 1382.3457391333334,
          "velocity": 0.7874015748031497
        },
        {
          "duration": 0.2678570000000491,
          "durationTicks": 120,
          "midi": 72,
          "name": "C5",
          "ticks": 451260,
          "time": 1382.3457391333334,
          "velocity": 0.7874015748031497
        },
        {
          "duration": 0.2678570000000491,
          "durationTicks": 120,
          "midi": 76,
          "name": "E5",
          "ticks": 451260,
          "time": 1382.3457391333334,
          "velocity": 0.7874015748031497
        },
        {
          "duration": 0.2678570000000491,
          "durationTicks": 120,
          "midi": 64,
          "name": "E4",
          "ticks": 451320,
          "time": 1382.4796676333333,
          "velocity": 0.7874015748031497
        },
        {
          "duration": 0.2678570000000491,
          "durationTicks": 120,
          "midi": 69,
          "name": "A4",
          "ticks": 451320,
          "time": 1382.4796676333333,
          "velocity": 0.7874015748031497
        },
        {
          "duration": 0.13392850000013823,
          "durationTicks": 60,
          "midi": 72,
          "name": "C5",
          "ticks": 451320,
          "time": 1382.4796676333333,
          "velocity": 0.7874015748031497
        },
        {
          "duration": 0.13392849999991085,
          "durationTicks": 60,
          "midi": 67,
          "name": "G4",
          "ticks": 451380,
          "time": 1382.6135961333334,
          "velocity": 0.7874015748031497
        },
        {
          "duration": 0.13392849999991085,
          "durationTicks": 60,
          "midi": 72,
          "name": "C5",
          "ticks": 451380,
          "time": 1382.6135961333334,
          "velocity": 0.7874015748031497
        },
        {
          "duration": 0.13392849999991085,
          "durationTicks": 60,
          "midi": 76,
          "name": "E5",
          "ticks": 451380,
          "time": 1382.6135961333334,
          "velocity": 0.7874015748031497
        },
        {
          "duration": 0.13392850000013823,
          "durationTicks": 60,
          "midi": 66,
          "name": "F#4",
          "ticks": 451620,
          "time": 1383.1493101333333,
          "velocity": 0.7874015748031497
        },
        {
          "duration": 0.13392850000013823,
          "durationTicks": 60,
          "midi": 69,
          "name": "A4",
          "ticks": 451620,
          "time": 1383.1493101333333,
          "velocity": 0.7874015748031497
        },
        {
          "duration": 0.13392850000013823,
          "durationTicks": 60,
          "midi": 74,
          "name": "D5",
          "ticks": 451620,
          "time": 1383.1493101333333,
          "velocity": 0.7874015748031497
        },
        {
          "duration": 0.2678570000000491,
          "durationTicks": 120,
          "midi": 64,
          "name": "E4",
          "ticks": 451680,
          "time": 1383.2832386333334,
          "velocity": 0.7874015748031497
        },
        {
          "duration": 0.2678570000000491,
          "durationTicks": 120,
          "midi": 67,
          "name": "G4",
          "ticks": 451680,
          "time": 1383.2832386333334,
          "velocity": 0.7874015748031497
        },
        {
          "duration": 0.2678570000000491,
          "durationTicks": 120,
          "midi": 73,
          "name": "C#5",
          "ticks": 451680,
          "time": 1383.2832386333334,
          "velocity": 0.7874015748031497
        },
        {
          "duration": 0.2678570000000491,
          "durationTicks": 120,
          "midi": 66,
          "name": "F#4",
          "ticks": 451740,
          "time": 1383.4171671333334,
          "velocity": 0.7874015748031497
        },
        {
          "duration": 0.2678570000000491,
          "durationTicks": 120,
          "midi": 69,
          "name": "A4",
          "ticks": 451740,
          "time": 1383.4171671333334,
          "velocity": 0.7874015748031497
        },
        {
          "duration": 0.2678570000000491,
          "durationTicks": 120,
          "midi": 74,
          "name": "D5",
          "ticks": 451740,
          "time": 1383.4171671333334,
          "velocity": 0.7874015748031497
        },
        {
          "duration": 0.2678569999998217,
          "durationTicks": 120,
          "midi": 64,
          "name": "E4",
          "ticks": 451800,
          "time": 1383.5510956333335,
          "velocity": 0.7874015748031497
        },
        {
          "duration": 0.2678569999998217,
          "durationTicks": 120,
          "midi": 67,
          "name": "G4",
          "ticks": 451800,
          "time": 1383.5510956333335,
          "velocity": 0.7874015748031497
        },
        {
          "duration": 0.2678569999998217,
          "durationTicks": 120,
          "midi": 73,
          "name": "C#5",
          "ticks": 451800,
          "time": 1383.5510956333335,
          "velocity": 0.7874015748031497
        },
        {
          "duration": 0.13392849999991085,
          "durationTicks": 60,
          "midi": 66,
          "name": "F#4",
          "ticks": 451860,
          "time": 1383.6850241333334,
          "velocity": 0.7874015748031497
        },
        {
          "duration": 0.13392849999991085,
          "durationTicks": 60,
          "midi": 69,
          "name": "A4",
          "ticks": 451860,
          "time": 1383.6850241333334,
          "velocity": 0.7874015748031497
        },
        {
          "duration": 0.13392849999991085,
          "durationTicks": 60,
          "midi": 74,
          "name": "D5",
          "ticks": 451860,
          "time": 1383.6850241333334,
          "velocity": 0.7874015748031497
        },
        {
          "duration": 0.2678570000000491,
          "durationTicks": 120,
          "midi": 64,
          "name": "E4",
          "ticks": 451920,
          "time": 1383.8189526333333,
          "velocity": 0.7874015748031497
        },
        {
          "duration": 0.2678570000000491,
          "durationTicks": 120,
          "midi": 67,
          "name": "G4",
          "ticks": 451920,
          "time": 1383.8189526333333,
          "velocity": 0.7874015748031497
        },
        {
          "duration": 0.2678570000000491,
          "durationTicks": 120,
          "midi": 73,
          "name": "C#5",
          "ticks": 451920,
          "time": 1383.8189526333333,
          "velocity": 0.7874015748031497
        },
        {
          "duration": 0.2678570000000491,
          "durationTicks": 120,
          "midi": 66,
          "name": "F#4",
          "ticks": 451980,
          "time": 1383.9528811333334,
          "velocity": 0.7874015748031497
        },
        {
          "duration": 0.2678570000000491,
          "durationTicks": 120,
          "midi": 69,
          "name": "A4",
          "ticks": 451980,
          "time": 1383.9528811333334,
          "velocity": 0.7874015748031497
        },
        {
          "duration": 0.2678570000000491,
          "durationTicks": 120,
          "midi": 74,
          "name": "D5",
          "ticks": 451980,
          "time": 1383.9528811333334,
          "velocity": 0.7874015748031497
        },
        {
          "duration": 0.2678570000000491,
          "durationTicks": 120,
          "midi": 62,
          "name": "D4",
          "ticks": 452040,
          "time": 1384.0868096333334,
          "velocity": 0.7874015748031497
        },
        {
          "duration": 0.13392850000013823,
          "durationTicks": 60,
          "midi": 66,
          "name": "F#4",
          "ticks": 452040,
          "time": 1384.0868096333334,
          "velocity": 0.7874015748031497
        },
        {
          "duration": 0.13392850000013823,
          "durationTicks": 60,
          "midi": 69,
          "name": "A4",
          "ticks": 452040,
          "time": 1384.0868096333334,
          "velocity": 0.7874015748031497
        },
        {
          "duration": 0.13392849999991085,
          "durationTicks": 60,
          "midi": 66,
          "name": "F#4",
          "ticks": 452100,
          "time": 1384.2207381333335,
          "velocity": 0.7874015748031497
        },
        {
          "duration": 0.13392849999991085,
          "durationTicks": 60,
          "midi": 69,
          "name": "A4",
          "ticks": 452100,
          "time": 1384.2207381333335,
          "velocity": 0.7874015748031497
        },
        {
          "duration": 0.13392849999991085,
          "durationTicks": 60,
          "midi": 72,
          "name": "C5",
          "ticks": 452100,
          "time": 1384.2207381333335,
          "velocity": 0.7874015748031497
        },
        {
          "duration": 0.5357139999998708,
          "durationTicks": 240,
          "midi": 55,
          "name": "G3",
          "ticks": 452160,
          "time": 1384.3546666333334,
          "velocity": 0.7874015748031497
        },
        {
          "duration": 0.5357139999998708,
          "durationTicks": 240,
          "midi": 62,
          "name": "D4",
          "ticks": 452160,
          "time": 1384.3546666333334,
          "velocity": 0.7874015748031497
        },
        {
          "duration": 0.5357139999998708,
          "durationTicks": 240,
          "midi": 67,
          "name": "G4",
          "ticks": 452160,
          "time": 1384.3546666333334,
          "velocity": 0.7874015748031497
        },
        {
          "duration": 0.5357139999998708,
          "durationTicks": 240,
          "midi": 71,
          "name": "B4",
          "ticks": 452160,
          "time": 1384.3546666333334,
          "velocity": 0.7874015748031497
        },
        {
          "duration": 0.08928566666668303,
          "durationTicks": 40,
          "midi": 69,
          "name": "A4",
          "ticks": 452440,
          "time": 1384.9796663,
          "velocity": 0.7874015748031497
        },
        {
          "duration": 0.08928566666668303,
          "durationTicks": 40,
          "midi": 71,
          "name": "B4",
          "ticks": 452480,
          "time": 1385.0689519666666,
          "velocity": 0.7874015748031497
        },
        {
          "duration": 0.08928566666668303,
          "durationTicks": 40,
          "midi": 72,
          "name": "C5",
          "ticks": 452520,
          "time": 1385.1582376333333,
          "velocity": 0.7874015748031497
        },
        {
          "duration": 0.08928566666668303,
          "durationTicks": 40,
          "midi": 71,
          "name": "B4",
          "ticks": 452560,
          "time": 1385.2475233,
          "velocity": 0.7874015748031497
        },
        {
          "duration": 0.08928566666668303,
          "durationTicks": 40,
          "midi": 69,
          "name": "A4",
          "ticks": 452600,
          "time": 1385.3368089666667,
          "velocity": 0.7874015748031497
        },
        {
          "duration": 0.08928566666668303,
          "durationTicks": 40,
          "midi": 71,
          "name": "B4",
          "ticks": 452640,
          "time": 1385.4260946333334,
          "velocity": 0.7874015748031497
        },
        {
          "duration": 0.08928566666668303,
          "durationTicks": 40,
          "midi": 69,
          "name": "A4",
          "ticks": 452680,
          "time": 1385.5153803,
          "velocity": 0.7874015748031497
        },
        {
          "duration": 0.08928566666668303,
          "durationTicks": 40,
          "midi": 67,
          "name": "G4",
          "ticks": 452720,
          "time": 1385.6046659666667,
          "velocity": 0.7874015748031497
        },
        {
          "duration": 0.08928566666668303,
          "durationTicks": 40,
          "midi": 76,
          "name": "E5",
          "ticks": 452760,
          "time": 1385.6939516333334,
          "velocity": 0.7874015748031497
        },
        {
          "duration": 0.08928566666668303,
          "durationTicks": 40,
          "midi": 74,
          "name": "D5",
          "ticks": 452800,
          "time": 1385.7832373,
          "velocity": 0.7874015748031497
        },
        {
          "duration": 0.08928566666668303,
          "durationTicks": 40,
          "midi": 72,
          "name": "C5",
          "ticks": 452840,
          "time": 1385.8725229666668,
          "velocity": 0.7874015748031497
        },
        {
          "duration": 0.17857133333313868,
          "durationTicks": 80,
          "midi": 74,
          "name": "D5",
          "ticks": 452880,
          "time": 1385.9618086333335,
          "velocity": 0.7874015748031497
        },
        {
          "duration": 0.08928566666668303,
          "durationTicks": 40,
          "midi": 67,
          "name": "G4",
          "ticks": 452960,
          "time": 1386.1403799666666,
          "velocity": 0.7874015748031497
        },
        {
          "duration": 0.08928566666668303,
          "durationTicks": 40,
          "midi": 66,
          "name": "F#4",
          "ticks": 453000,
          "time": 1386.2296656333333,
          "velocity": 0.7874015748031497
        },
        {
          "duration": 0.17857133333336606,
          "durationTicks": 80,
          "midi": 60,
          "name": "C4",
          "ticks": 453040,
          "time": 1386.3189513,
          "velocity": 0.7874015748031497
        },
        {
          "duration": 0.08928566666668303,
          "durationTicks": 40,
          "midi": 67,
          "name": "G4",
          "ticks": 453200,
          "time": 1386.6760939666667,
          "velocity": 0.7874015748031497
        },
        {
          "duration": 0.08928566666668303,
          "durationTicks": 40,
          "midi": 69,
          "name": "A4",
          "ticks": 453240,
          "time": 1386.7653796333334,
          "velocity": 0.7874015748031497
        },
        {
          "duration": 0.17857133333336606,
          "durationTicks": 80,
          "midi": 66,
          "name": "F#4",
          "ticks": 453280,
          "time": 1386.8546653,
          "velocity": 0.7874015748031497
        },
        {
          "duration": 0.08928566666668303,
          "durationTicks": 40,
          "midi": 71,
          "name": "B4",
          "ticks": 453440,
          "time": 1387.2118079666668,
          "velocity": 0.7874015748031497
        },
        {
          "duration": 0.08928566666645565,
          "durationTicks": 40,
          "midi": 73,
          "name": "C#5",
          "ticks": 453480,
          "time": 1387.3010936333335,
          "velocity": 0.7874015748031497
        },
        {
          "duration": 0.17857133333336606,
          "durationTicks": 80,
          "midi": 69,
          "name": "A4",
          "ticks": 453520,
          "time": 1387.3903793,
          "velocity": 0.7874015748031497
        },
        {
          "duration": 0.08928566666668303,
          "durationTicks": 40,
          "midi": 74,
          "name": "D5",
          "ticks": 453680,
          "time": 1387.7475219666667,
          "velocity": 0.7874015748031497
        },
        {
          "duration": 0.08928566666668303,
          "durationTicks": 40,
          "midi": 73,
          "name": "C#5",
          "ticks": 453720,
          "time": 1387.8368076333334,
          "velocity": 0.7874015748031497
        },
        {
          "duration": 0.17857133333336606,
          "durationTicks": 80,
          "midi": 67,
          "name": "G4",
          "ticks": 453760,
          "time": 1387.9260933,
          "velocity": 0.7874015748031497
        },
        {
          "duration": 0.08928566666668303,
          "durationTicks": 40,
          "midi": 74,
          "name": "D5",
          "ticks": 453920,
          "time": 1388.2832359666668,
          "velocity": 0.7874015748031497
        },
        {
          "duration": 0.08928566666668303,
          "durationTicks": 40,
          "midi": 76,
          "name": "E5",
          "ticks": 453960,
          "time": 1388.3725216333335,
          "velocity": 0.7874015748031497
        },
        {
          "duration": 0.17857133333313868,
          "durationTicks": 80,
          "midi": 73,
          "name": "C#5",
          "ticks": 454000,
          "time": 1388.4618073000001,
          "velocity": 0.7874015748031497
        },
        {
          "duration": 0.08928566666668303,
          "durationTicks": 40,
          "midi": 78,
          "name": "F#5",
          "ticks": 454160,
          "time": 1388.8189499666667,
          "velocity": 0.7874015748031497
        },
        {
          "duration": 0.08928566666668303,
          "durationTicks": 40,
          "midi": 74,
          "name": "D5",
          "ticks": 454200,
          "time": 1388.9082356333333,
          "velocity": 0.7874015748031497
        },
        {
          "duration": 0.17857133333336606,
          "durationTicks": 80,
          "midi": 71,
          "name": "B4",
          "ticks": 454240,
          "time": 1388.9975213,
          "velocity": 0.7874015748031497
        },
        {
          "duration": 0.08928566666668303,
          "durationTicks": 40,
          "midi": 72,
          "name": "C5",
          "ticks": 454400,
          "time": 1389.3546639666667,
          "velocity": 0.7874015748031497
        },
        {
          "duration": 0.08928566666668303,
          "durationTicks": 40,
          "midi": 71,
          "name": "B4",
          "ticks": 454440,
          "time": 1389.4439496333334,
          "velocity": 0.7874015748031497
        },
        {
          "duration": 0.17857133333336606,
          "durationTicks": 80,
          "midi": 67,
          "name": "G4",
          "ticks": 454480,
          "time": 1389.5332353000001,
          "velocity": 0.7874015748031497
        },
        {
          "duration": 0.08928566666668303,
          "durationTicks": 40,
          "midi": 69,
          "name": "A4",
          "ticks": 454640,
          "time": 1389.8903779666666,
          "velocity": 0.7874015748031497
        },
        {
          "duration": 0.08928566666668303,
          "durationTicks": 40,
          "midi": 67,
          "name": "G4",
          "ticks": 454680,
          "time": 1389.9796636333333,
          "velocity": 0.7874015748031497
        },
        {
          "duration": 0.17857133333336606,
          "durationTicks": 80,
          "midi": 64,
          "name": "E4",
          "ticks": 454720,
          "time": 1390.0689493,
          "velocity": 0.7874015748031497
        },
        {
          "duration": 0.08928566666668303,
          "durationTicks": 40,
          "midi": 66,
          "name": "F#4",
          "ticks": 454880,
          "time": 1390.4260919666667,
          "velocity": 0.7874015748031497
        },
        {
          "duration": 0.08928566666668303,
          "durationTicks": 40,
          "midi": 64,
          "name": "E4",
          "ticks": 454920,
          "time": 1390.5153776333334,
          "velocity": 0.7874015748031497
        },
        {
          "duration": 0.17857133333336606,
          "durationTicks": 80,
          "midi": 61,
          "name": "C#4",
          "ticks": 454960,
          "time": 1390.6046633,
          "velocity": 0.7874015748031497
        },
        {
          "duration": 0.08928566666668303,
          "durationTicks": 40,
          "midi": 66,
          "name": "F#4",
          "ticks": 455120,
          "time": 1390.9618059666668,
          "velocity": 0.7874015748031497
        },
        {
          "duration": 0.08928566666645565,
          "durationTicks": 40,
          "midi": 64,
          "name": "E4",
          "ticks": 455160,
          "time": 1391.0510916333335,
          "velocity": 0.7874015748031497
        },
        {
          "duration": 0.17857133333336606,
          "durationTicks": 80,
          "midi": 61,
          "name": "C#4",
          "ticks": 455200,
          "time": 1391.1403773,
          "velocity": 0.7874015748031497
        },
        {
          "duration": 0.08928566666668303,
          "durationTicks": 40,
          "midi": 62,
          "name": "D4",
          "ticks": 455360,
          "time": 1391.4975199666667,
          "velocity": 0.7874015748031497
        },
        {
          "duration": 0.08928566666668303,
          "durationTicks": 40,
          "midi": 61,
          "name": "C#4",
          "ticks": 455400,
          "time": 1391.5868056333334,
          "velocity": 0.7874015748031497
        },
        {
          "duration": 0.17857133333336606,
          "durationTicks": 80,
          "midi": 57,
          "name": "A3",
          "ticks": 455440,
          "time": 1391.6760913,
          "velocity": 0.7874015748031497
        },
        {
          "duration": 0.08928566666668303,
          "durationTicks": 40,
          "midi": 59,
          "name": "B3",
          "ticks": 455600,
          "time": 1392.0332339666668,
          "velocity": 0.7874015748031497
        },
        {
          "duration": 0.08928566666668303,
          "durationTicks": 40,
          "midi": 57,
          "name": "A3",
          "ticks": 455640,
          "time": 1392.1225196333335,
          "velocity": 0.7874015748031497
        },
        {
          "duration": 0.17857133333313868,
          "durationTicks": 80,
          "midi": 54,
          "name": "F#3",
          "ticks": 455680,
          "time": 1392.2118053000002,
          "velocity": 0.7874015748031497
        },
        {
          "duration": 0.08928566666668303,
          "durationTicks": 40,
          "midi": 59,
          "name": "B3",
          "ticks": 455840,
          "time": 1392.5689479666667,
          "velocity": 0.7874015748031497
        },
        {
          "duration": 0.08928566666668303,
          "durationTicks": 40,
          "midi": 57,
          "name": "A3",
          "ticks": 455880,
          "time": 1392.6582336333333,
          "velocity": 0.7874015748031497
        },
        {
          "duration": 0.17857133333336606,
          "durationTicks": 80,
          "midi": 54,
          "name": "F#3",
          "ticks": 455920,
          "time": 1392.7475193,
          "velocity": 0.7874015748031497
        },
        {
          "duration": 0.08928566666668303,
          "durationTicks": 40,
          "midi": 55,
          "name": "G3",
          "ticks": 456080,
          "time": 1393.1046619666668,
          "velocity": 0.7874015748031497
        },
        {
          "duration": 0.08928566666668303,
          "durationTicks": 40,
          "midi": 54,
          "name": "F#3",
          "ticks": 456120,
          "time": 1393.1939476333334,
          "velocity": 0.7874015748031497
        },
        {
          "duration": 0.17857133333336606,
          "durationTicks": 80,
          "midi": 50,
          "name": "D3",
          "ticks": 456160,
          "time": 1393.2832333000001,
          "velocity": 0.7874015748031497
        },
        {
          "duration": 0.08928566666668303,
          "durationTicks": 40,
          "midi": 52,
          "name": "E3",
          "ticks": 456320,
          "time": 1393.6403759666666,
          "velocity": 0.7874015748031497
        },
        {
          "duration": 0.08928566666668303,
          "durationTicks": 40,
          "midi": 50,
          "name": "D3",
          "ticks": 456360,
          "time": 1393.7296616333333,
          "velocity": 0.7874015748031497
        },
        {
          "duration": 0.17857133333336606,
          "durationTicks": 80,
          "midi": 47,
          "name": "B2",
          "ticks": 456400,
          "time": 1393.8189473,
          "velocity": 0.7874015748031497
        },
        {
          "duration": 0.08928566666668303,
          "durationTicks": 40,
          "midi": 52,
          "name": "E3",
          "ticks": 456560,
          "time": 1394.1760899666667,
          "velocity": 0.7874015748031497
        },
        {
          "duration": 0.08928566666668303,
          "durationTicks": 40,
          "midi": 50,
          "name": "D3",
          "ticks": 456600,
          "time": 1394.2653756333334,
          "velocity": 0.7874015748031497
        },
        {
          "duration": 0.17857133333336606,
          "durationTicks": 80,
          "midi": 47,
          "name": "B2",
          "ticks": 456640,
          "time": 1394.3546613,
          "velocity": 0.7874015748031497
        },
        {
          "duration": 0.08928566666668303,
          "durationTicks": 40,
          "midi": 48,
          "name": "C3",
          "ticks": 456800,
          "time": 1394.7118039666668,
          "velocity": 0.7874015748031497
        },
        {
          "duration": 0.08928566666645565,
          "durationTicks": 40,
          "midi": 47,
          "name": "B2",
          "ticks": 456840,
          "time": 1394.8010896333335,
          "velocity": 0.7874015748031497
        },
        {
          "duration": 0.17857133333336606,
          "durationTicks": 80,
          "midi": 43,
          "name": "G2",
          "ticks": 456880,
          "time": 1394.8903753,
          "velocity": 0.7874015748031497
        },
        {
          "duration": 0.08928566666668303,
          "durationTicks": 40,
          "midi": 45,
          "name": "A2",
          "ticks": 457040,
          "time": 1395.2475179666667,
          "velocity": 0.7874015748031497
        },
        {
          "duration": 0.08928566666668303,
          "durationTicks": 40,
          "midi": 43,
          "name": "G2",
          "ticks": 457080,
          "time": 1395.3368036333334,
          "velocity": 0.7874015748031497
        },
        {
          "duration": 0.17857133333336606,
          "durationTicks": 80,
          "midi": 40,
          "name": "E2",
          "ticks": 457120,
          "time": 1395.4260893,
          "velocity": 0.7874015748031497
        },
        {
          "duration": 0.08928566666668303,
          "durationTicks": 40,
          "midi": 55,
          "name": "G3",
          "ticks": 457240,
          "time": 1395.6939463,
          "velocity": 0.7874015748031497
        },
        {
          "duration": 0.08928566666668303,
          "durationTicks": 40,
          "midi": 57,
          "name": "A3",
          "ticks": 457280,
          "time": 1395.7832319666668,
          "velocity": 0.7874015748031497
        },
        {
          "duration": 0.08928566666668303,
          "durationTicks": 40,
          "midi": 64,
          "name": "E4",
          "ticks": 457320,
          "time": 1395.8725176333335,
          "velocity": 0.7874015748031497
        },
        {
          "duration": 0.08928566666668303,
          "durationTicks": 40,
          "midi": 57,
          "name": "A3",
          "ticks": 457360,
          "time": 1395.9618033000002,
          "velocity": 0.7874015748031497
        },
        {
          "duration": 0.08928566666645565,
          "durationTicks": 40,
          "midi": 55,
          "name": "G3",
          "ticks": 457400,
          "time": 1396.0510889666668,
          "velocity": 0.7874015748031497
        },
        {
          "duration": 0.08928566666668303,
          "durationTicks": 40,
          "midi": 54,
          "name": "F#3",
          "ticks": 457480,
          "time": 1396.2296603,
          "velocity": 0.7874015748031497
        },
        {
          "duration": 0.08928566666668303,
          "durationTicks": 40,
          "midi": 57,
          "name": "A3",
          "ticks": 457520,
          "time": 1396.3189459666667,
          "velocity": 0.7874015748031497
        },
        {
          "duration": 0.08928566666668303,
          "durationTicks": 40,
          "midi": 62,
          "name": "D4",
          "ticks": 457560,
          "time": 1396.4082316333333,
          "velocity": 0.7874015748031497
        },
        {
          "duration": 0.08928566666668303,
          "durationTicks": 40,
          "midi": 57,
          "name": "A3",
          "ticks": 457600,
          "time": 1396.4975173,
          "velocity": 0.7874015748031497
        },
        {
          "duration": 0.08928566666668303,
          "durationTicks": 40,
          "midi": 54,
          "name": "F#3",
          "ticks": 457640,
          "time": 1396.5868029666667,
          "velocity": 0.7874015748031497
        },
        {
          "duration": 0.08928566666668303,
          "durationTicks": 40,
          "midi": 52,
          "name": "E3",
          "ticks": 457720,
          "time": 1396.7653743,
          "velocity": 0.7874015748031497
        },
        {
          "duration": 0.08928566666668303,
          "durationTicks": 40,
          "midi": 55,
          "name": "G3",
          "ticks": 457760,
          "time": 1396.8546599666668,
          "velocity": 0.7874015748031497
        },
        {
          "duration": 0.08928566666668303,
          "durationTicks": 40,
          "midi": 61,
          "name": "C#4",
          "ticks": 457800,
          "time": 1396.9439456333334,
          "velocity": 0.7874015748031497
        },
        {
          "duration": 0.08928566666668303,
          "durationTicks": 40,
          "midi": 55,
          "name": "G3",
          "ticks": 457840,
          "time": 1397.0332313000001,
          "velocity": 0.7874015748031497
        },
        {
          "duration": 0.08928566666668303,
          "durationTicks": 40,
          "midi": 52,
          "name": "E3",
          "ticks": 457880,
          "time": 1397.1225169666668,
          "velocity": 0.7874015748031497
        },
        {
          "duration": 0.08928566666668303,
          "durationTicks": 40,
          "midi": 59,
          "name": "B3",
          "ticks": 458000,
          "time": 1397.3903739666666,
          "velocity": 0.7874015748031497
        },
        {
          "duration": 0.08928566666668303,
          "durationTicks": 40,
          "midi": 57,
          "name": "A3",
          "ticks": 458040,
          "time": 1397.4796596333333,
          "velocity": 0.7874015748031497
        },
        {
          "duration": 0.17857133333336606,
          "durationTicks": 80,
          "midi": 54,
          "name": "F#3",
          "ticks": 458080,
          "time": 1397.5689453,
          "velocity": 0.7874015748031497
        },
        {
          "duration": 0.08928566666668303,
          "durationTicks": 40,
          "midi": 55,
          "name": "G3",
          "ticks": 458240,
          "time": 1397.9260879666667,
          "velocity": 0.7874015748031497
        },
        {
          "duration": 0.08928566666668303,
          "durationTicks": 40,
          "midi": 54,
          "name": "F#3",
          "ticks": 458280,
          "time": 1398.0153736333334,
          "velocity": 0.7874015748031497
        },
        {
          "duration": 0.17857133333336606,
          "durationTicks": 80,
          "midi": 50,
          "name": "D3",
          "ticks": 458320,
          "time": 1398.1046593,
          "velocity": 0.7874015748031497
        },
        {
          "duration": 0.08928566666645565,
          "durationTicks": 40,
          "midi": 52,
          "name": "E3",
          "ticks": 458480,
          "time": 1398.4618019666668,
          "velocity": 0.7874015748031497
        },
        {
          "duration": 0.08928566666668303,
          "durationTicks": 40,
          "midi": 50,
          "name": "D3",
          "ticks": 458520,
          "time": 1398.5510876333333,
          "velocity": 0.7874015748031497
        },
        {
          "duration": 0.17857133333336606,
          "durationTicks": 80,
          "midi": 47,
          "name": "B2",
          "ticks": 458560,
          "time": 1398.6403733,
          "velocity": 0.7874015748031497
        },
        {
          "duration": 0.17857133333336606,
          "durationTicks": 80,
          "midi": 38,
          "name": "D2",
          "ticks": 458640,
          "time": 1398.8189446333333,
          "velocity": 0.7874015748031497
        },
        {
          "duration": 0.08928566666668303,
          "durationTicks": 40,
          "midi": 64,
          "name": "E4",
          "ticks": 458720,
          "time": 1398.9975159666667,
          "velocity": 0.7874015748031497
        },
        {
          "duration": 0.08928566666668303,
          "durationTicks": 40,
          "midi": 62,
          "name": "D4",
          "ticks": 458760,
          "time": 1399.0868016333334,
          "velocity": 0.7874015748031497
        },
        {
          "duration": 0.17857133333336606,
          "durationTicks": 80,
          "midi": 59,
          "name": "B3",
          "ticks": 458800,
          "time": 1399.1760873,
          "velocity": 0.7874015748031497
        },
        {
          "duration": 0.08928566666668303,
          "durationTicks": 40,
          "midi": 60,
          "name": "C4",
          "ticks": 458960,
          "time": 1399.5332299666668,
          "velocity": 0.7874015748031497
        },
        {
          "duration": 0.08928566666668303,
          "durationTicks": 40,
          "midi": 59,
          "name": "B3",
          "ticks": 459000,
          "time": 1399.6225156333335,
          "velocity": 0.7874015748031497
        },
        {
          "duration": 0.17857133333313868,
          "durationTicks": 80,
          "midi": 55,
          "name": "G3",
          "ticks": 459040,
          "time": 1399.7118013000002,
          "velocity": 0.7874015748031497
        },
        {
          "duration": 0.08928566666668303,
          "durationTicks": 40,
          "midi": 57,
          "name": "A3",
          "ticks": 459200,
          "time": 1400.0689439666667,
          "velocity": 0.7874015748031497
        },
        {
          "duration": 0.08928566666668303,
          "durationTicks": 40,
          "midi": 55,
          "name": "G3",
          "ticks": 459240,
          "time": 1400.1582296333333,
          "velocity": 0.7874015748031497
        },
        {
          "duration": 0.08928566666668303,
          "durationTicks": 40,
          "midi": 52,
          "name": "E3",
          "ticks": 459280,
          "time": 1400.2475153,
          "velocity": 0.7874015748031497
        },
        {
          "duration": 0.08928566666668303,
          "durationTicks": 40,
          "midi": 50,
          "name": "D3",
          "ticks": 459320,
          "time": 1400.3368009666667,
          "velocity": 0.7874015748031497
        },
        {
          "duration": 0.08928566666668303,
          "durationTicks": 40,
          "midi": 65,
          "name": "F4",
          "ticks": 459440,
          "time": 1400.6046579666668,
          "velocity": 0.7874015748031497
        },
        {
          "duration": 0.08928566666668303,
          "durationTicks": 40,
          "midi": 64,
          "name": "E4",
          "ticks": 459480,
          "time": 1400.6939436333334,
          "velocity": 0.7874015748031497
        },
        {
          "duration": 0.17857133333336606,
          "durationTicks": 80,
          "midi": 60,
          "name": "C4",
          "ticks": 459520,
          "time": 1400.7832293000001,
          "velocity": 0.7874015748031497
        },
        {
          "duration": 0.08928566666668303,
          "durationTicks": 40,
          "midi": 62,
          "name": "D4",
          "ticks": 459680,
          "time": 1401.1403719666666,
          "velocity": 0.7874015748031497
        },
        {
          "duration": 0.08928566666668303,
          "durationTicks": 40,
          "midi": 60,
          "name": "C4",
          "ticks": 459720,
          "time": 1401.2296576333333,
          "velocity": 0.7874015748031497
        },
        {
          "duration": 0.17857133333336606,
          "durationTicks": 80,
          "midi": 57,
          "name": "A3",
          "ticks": 459760,
          "time": 1401.3189433,
          "velocity": 0.7874015748031497
        },
        {
          "duration": 0.08928566666668303,
          "durationTicks": 40,
          "midi": 59,
          "name": "B3",
          "ticks": 459920,
          "time": 1401.6760859666667,
          "velocity": 0.7874015748031497
        },
        {
          "duration": 0.08928566666668303,
          "durationTicks": 40,
          "midi": 57,
          "name": "A3",
          "ticks": 459960,
          "time": 1401.7653716333334,
          "velocity": 0.7874015748031497
        },
        {
          "duration": 0.17857133333336606,
          "durationTicks": 80,
          "midi": 54,
          "name": "F#3",
          "ticks": 460000,
          "time": 1401.8546573,
          "velocity": 0.7874015748031497
        },
        {
          "duration": 0.17857133333336606,
          "durationTicks": 80,
          "midi": 50,
          "name": "D3",
          "ticks": 460080,
          "time": 1402.0332286333335,
          "velocity": 0.7874015748031497
        },
        {
          "duration": 0.08928566666645565,
          "durationTicks": 40,
          "midi": 71,
          "name": "B4",
          "ticks": 460160,
          "time": 1402.2117999666668,
          "velocity": 0.7874015748031497
        },
        {
          "duration": 0.08928566666668303,
          "durationTicks": 40,
          "midi": 69,
          "name": "A4",
          "ticks": 460200,
          "time": 1402.3010856333333,
          "velocity": 0.7874015748031497
        },
        {
          "duration": 0.08928566666668303,
          "durationTicks": 40,
          "midi": 66,
          "name": "F#4",
          "ticks": 460240,
          "time": 1402.3903713,
          "velocity": 0.7874015748031497
        },
        {
          "duration": 0.08928566666668303,
          "durationTicks": 40,
          "midi": 67,
          "name": "G4",
          "ticks": 460400,
          "time": 1402.7475139666667,
          "velocity": 0.7874015748031497
        },
        {
          "duration": 0.08928566666668303,
          "durationTicks": 40,
          "midi": 66,
          "name": "F#4",
          "ticks": 460440,
          "time": 1402.8367996333334,
          "velocity": 0.7874015748031497
        },
        {
          "duration": 0.08928566666668303,
          "durationTicks": 40,
          "midi": 62,
          "name": "D4",
          "ticks": 460480,
          "time": 1402.9260853,
          "velocity": 0.7874015748031497
        },
        {
          "duration": 0.08928566666668303,
          "durationTicks": 40,
          "midi": 64,
          "name": "E4",
          "ticks": 460640,
          "time": 1403.2832279666668,
          "velocity": 0.7874015748031497
        },
        {
          "duration": 0.08928566666668303,
          "durationTicks": 40,
          "midi": 62,
          "name": "D4",
          "ticks": 460680,
          "time": 1403.3725136333335,
          "velocity": 0.7874015748031497
        },
        {
          "duration": 0.08928566666645565,
          "durationTicks": 40,
          "midi": 59,
          "name": "B3",
          "ticks": 460720,
          "time": 1403.4617993000002,
          "velocity": 0.7874015748031497
        },
        {
          "duration": 0.08928566666668303,
          "durationTicks": 40,
          "midi": 67,
          "name": "G4",
          "ticks": 460840,
          "time": 1403.7296563,
          "velocity": 0.7874015748031497
        },
        {
          "duration": 0.08928566666668303,
          "durationTicks": 40,
          "midi": 76,
          "name": "E5",
          "ticks": 460880,
          "time": 1403.8189419666667,
          "velocity": 0.7874015748031497
        },
        {
          "duration": 0.08928566666668303,
          "durationTicks": 40,
          "midi": 74,
          "name": "D5",
          "ticks": 460920,
          "time": 1403.9082276333334,
          "velocity": 0.7874015748031497
        },
        {
          "duration": 0.08928566666668303,
          "durationTicks": 40,
          "midi": 71,
          "name": "B4",
          "ticks": 460960,
          "time": 1403.9975133,
          "velocity": 0.7874015748031497
        },
        {
          "duration": 0.08928566666668303,
          "durationTicks": 40,
          "midi": 72,
          "name": "C5",
          "ticks": 461120,
          "time": 1404.3546559666668,
          "velocity": 0.7874015748031497
        },
        {
          "duration": 0.08928566666668303,
          "durationTicks": 40,
          "midi": 71,
          "name": "B4",
          "ticks": 461160,
          "time": 1404.4439416333335,
          "velocity": 0.7874015748031497
        },
        {
          "duration": 0.08928566666668303,
          "durationTicks": 40,
          "midi": 67,
          "name": "G4",
          "ticks": 461200,
          "time": 1404.5332273000001,
          "velocity": 0.7874015748031497
        },
        {
          "duration": 0.08928566666668303,
          "durationTicks": 40,
          "midi": 69,
          "name": "A4",
          "ticks": 461360,
          "time": 1404.8903699666666,
          "velocity": 0.7874015748031497
        },
        {
          "duration": 0.08928566666668303,
          "durationTicks": 40,
          "midi": 67,
          "name": "G4",
          "ticks": 461400,
          "time": 1404.9796556333333,
          "velocity": 0.7874015748031497
        },
        {
          "duration": 0.08928566666668303,
          "durationTicks": 40,
          "midi": 64,
          "name": "E4",
          "ticks": 461440,
          "time": 1405.0689413,
          "velocity": 0.7874015748031497
        },
        {
          "duration": 0.08928566666668303,
          "durationTicks": 40,
          "midi": 62,
          "name": "D4",
          "ticks": 461480,
          "time": 1405.1582269666667,
          "velocity": 0.7874015748031497
        },
        {
          "duration": 0.08928566666668303,
          "durationTicks": 40,
          "midi": 64,
          "name": "E4",
          "ticks": 461560,
          "time": 1405.3367983,
          "velocity": 0.7874015748031497
        },
        {
          "duration": 0.08928566666668303,
          "durationTicks": 40,
          "midi": 65,
          "name": "F4",
          "ticks": 461600,
          "time": 1405.4260839666667,
          "velocity": 0.7874015748031497
        },
        {
          "duration": 0.08928566666668303,
          "durationTicks": 40,
          "midi": 66,
          "name": "F#4",
          "ticks": 461640,
          "time": 1405.5153696333334,
          "velocity": 0.7874015748031497
        },
        {
          "duration": 0.08928566666668303,
          "durationTicks": 40,
          "midi": 67,
          "name": "G4",
          "ticks": 461680,
          "time": 1405.6046553,
          "velocity": 0.7874015748031497
        },
        {
          "duration": 0.08928566666668303,
          "durationTicks": 40,
          "midi": 68,
          "name": "G#4",
          "ticks": 461720,
          "time": 1405.6939409666668,
          "velocity": 0.7874015748031497
        },
        {
          "duration": 0.08928566666668303,
          "durationTicks": 40,
          "midi": 71,
          "name": "B4",
          "ticks": 461800,
          "time": 1405.8725123000002,
          "velocity": 0.7874015748031497
        },
        {
          "duration": 0.08928566666645565,
          "durationTicks": 40,
          "midi": 72,
          "name": "C5",
          "ticks": 461840,
          "time": 1405.9617979666668,
          "velocity": 0.7874015748031497
        },
        {
          "duration": 0.08928566666668303,
          "durationTicks": 40,
          "midi": 74,
          "name": "D5",
          "ticks": 461880,
          "time": 1406.0510836333333,
          "velocity": 0.7874015748031497
        },
        {
          "duration": 0.08928566666668303,
          "durationTicks": 40,
          "midi": 72,
          "name": "C5",
          "ticks": 461920,
          "time": 1406.1403693,
          "velocity": 0.7874015748031497
        },
        {
          "duration": 0.08928566666668303,
          "durationTicks": 40,
          "midi": 71,
          "name": "B4",
          "ticks": 461960,
          "time": 1406.2296549666667,
          "velocity": 0.7874015748031497
        },
        {
          "duration": 0.08928566666668303,
          "durationTicks": 40,
          "midi": 72,
          "name": "C5",
          "ticks": 462000,
          "time": 1406.3189406333333,
          "velocity": 0.7874015748031497
        },
        {
          "duration": 0.08928566666668303,
          "durationTicks": 40,
          "midi": 74,
          "name": "D5",
          "ticks": 462040,
          "time": 1406.4082263,
          "velocity": 0.7874015748031497
        },
        {
          "duration": 0.08928566666668303,
          "durationTicks": 40,
          "midi": 76,
          "name": "E5",
          "ticks": 462080,
          "time": 1406.4975119666667,
          "velocity": 0.7874015748031497
        },
        {
          "duration": 0.08928566666668303,
          "durationTicks": 40,
          "midi": 78,
          "name": "F#5",
          "ticks": 462120,
          "time": 1406.5867976333334,
          "velocity": 0.7874015748031497
        },
        {
          "duration": 0.08928566666668303,
          "durationTicks": 40,
          "midi": 79,
          "name": "G5",
          "ticks": 462160,
          "time": 1406.6760833,
          "velocity": 0.7874015748031497
        },
        {
          "duration": 0.08928566666668303,
          "durationTicks": 40,
          "midi": 81,
          "name": "A5",
          "ticks": 462200,
          "time": 1406.7653689666668,
          "velocity": 0.7874015748031497
        },
        {
          "duration": 0.08928566666668303,
          "durationTicks": 40,
          "midi": 62,
          "name": "D4",
          "ticks": 462280,
          "time": 1406.9439403000001,
          "velocity": 0.7874015748031497
        },
        {
          "duration": 0.08928566666668303,
          "durationTicks": 40,
          "midi": 63,
          "name": "D#4",
          "ticks": 462320,
          "time": 1407.0332259666668,
          "velocity": 0.7874015748031497
        },
        {
          "duration": 0.08928566666645565,
          "durationTicks": 40,
          "midi": 64,
          "name": "E4",
          "ticks": 462360,
          "time": 1407.1225116333335,
          "velocity": 0.7874015748031497
        },
        {
          "duration": 0.08928566666668303,
          "durationTicks": 40,
          "midi": 65,
          "name": "F4",
          "ticks": 462400,
          "time": 1407.2117973,
          "velocity": 0.7874015748031497
        },
        {
          "duration": 0.08928566666668303,
          "durationTicks": 40,
          "midi": 66,
          "name": "F#4",
          "ticks": 462440,
          "time": 1407.3010829666666,
          "velocity": 0.7874015748031497
        },
        {
          "duration": 0.08928566666668303,
          "durationTicks": 40,
          "midi": 69,
          "name": "A4",
          "ticks": 462520,
          "time": 1407.4796543,
          "velocity": 0.7874015748031497
        },
        {
          "duration": 0.08928566666668303,
          "durationTicks": 40,
          "midi": 71,
          "name": "B4",
          "ticks": 462560,
          "time": 1407.5689399666667,
          "velocity": 0.7874015748031497
        },
        {
          "duration": 0.08928566666668303,
          "durationTicks": 40,
          "midi": 72,
          "name": "C5",
          "ticks": 462600,
          "time": 1407.6582256333334,
          "velocity": 0.7874015748031497
        },
        {
          "duration": 0.08928566666668303,
          "durationTicks": 40,
          "midi": 71,
          "name": "B4",
          "ticks": 462640,
          "time": 1407.7475113,
          "velocity": 0.7874015748031497
        },
        {
          "duration": 0.08928566666668303,
          "durationTicks": 40,
          "midi": 69,
          "name": "A4",
          "ticks": 462680,
          "time": 1407.8367969666667,
          "velocity": 0.7874015748031497
        },
        {
          "duration": 0.08928566666668303,
          "durationTicks": 40,
          "midi": 71,
          "name": "B4",
          "ticks": 462720,
          "time": 1407.9260826333334,
          "velocity": 0.7874015748031497
        },
        {
          "duration": 0.08928566666668303,
          "durationTicks": 40,
          "midi": 72,
          "name": "C5",
          "ticks": 462760,
          "time": 1408.0153683,
          "velocity": 0.7874015748031497
        },
        {
          "duration": 0.08928566666668303,
          "durationTicks": 40,
          "midi": 74,
          "name": "D5",
          "ticks": 462800,
          "time": 1408.1046539666668,
          "velocity": 0.7874015748031497
        },
        {
          "duration": 0.08928566666668303,
          "durationTicks": 40,
          "midi": 76,
          "name": "E5",
          "ticks": 462840,
          "time": 1408.1939396333335,
          "velocity": 0.7874015748031497
        },
        {
          "duration": 0.08928566666668303,
          "durationTicks": 40,
          "midi": 78,
          "name": "F#5",
          "ticks": 462880,
          "time": 1408.2832253000001,
          "velocity": 0.7874015748031497
        },
        {
          "duration": 0.08928566666668303,
          "durationTicks": 40,
          "midi": 79,
          "name": "G5",
          "ticks": 462920,
          "time": 1408.3725109666668,
          "velocity": 0.7874015748031497
        },
        {
          "duration": 0.08928566666668303,
          "durationTicks": 40,
          "midi": 62,
          "name": "D4",
          "ticks": 463000,
          "time": 1408.5510823,
          "velocity": 0.7874015748031497
        },
        {
          "duration": 0.08928566666668303,
          "durationTicks": 40,
          "midi": 63,
          "name": "D#4",
          "ticks": 463040,
          "time": 1408.6403679666666,
          "velocity": 0.7874015748031497
        },
        {
          "duration": 0.08928566666668303,
          "durationTicks": 40,
          "midi": 64,
          "name": "E4",
          "ticks": 463080,
          "time": 1408.7296536333333,
          "velocity": 0.7874015748031497
        },
        {
          "duration": 0.08928566666668303,
          "durationTicks": 40,
          "midi": 65,
          "name": "F4",
          "ticks": 463120,
          "time": 1408.8189393,
          "velocity": 0.7874015748031497
        },
        {
          "duration": 0.08928566666668303,
          "durationTicks": 40,
          "midi": 66,
          "name": "F#4",
          "ticks": 463160,
          "time": 1408.9082249666667,
          "velocity": 0.7874015748031497
        },
        {
          "duration": 0.08928566666668303,
          "durationTicks": 40,
          "midi": 69,
          "name": "A4",
          "ticks": 463240,
          "time": 1409.0867963,
          "velocity": 0.7874015748031497
        },
        {
          "duration": 0.08928566666668303,
          "durationTicks": 40,
          "midi": 71,
          "name": "B4",
          "ticks": 463280,
          "time": 1409.1760819666667,
          "velocity": 0.7874015748031497
        },
        {
          "duration": 0.08928566666668303,
          "durationTicks": 40,
          "midi": 72,
          "name": "C5",
          "ticks": 463320,
          "time": 1409.2653676333334,
          "velocity": 0.7874015748031497
        },
        {
          "duration": 0.08928566666668303,
          "durationTicks": 40,
          "midi": 71,
          "name": "B4",
          "ticks": 463360,
          "time": 1409.3546533,
          "velocity": 0.7874015748031497
        },
        {
          "duration": 0.08928566666668303,
          "durationTicks": 40,
          "midi": 69,
          "name": "A4",
          "ticks": 463400,
          "time": 1409.4439389666668,
          "velocity": 0.7874015748031497
        },
        {
          "duration": 0.08928566666668303,
          "durationTicks": 40,
          "midi": 71,
          "name": "B4",
          "ticks": 463440,
          "time": 1409.5332246333335,
          "velocity": 0.7874015748031497
        },
        {
          "duration": 0.08928566666645565,
          "durationTicks": 40,
          "midi": 72,
          "name": "C5",
          "ticks": 463480,
          "time": 1409.6225103000002,
          "velocity": 0.7874015748031497
        },
        {
          "duration": 0.08928566666668303,
          "durationTicks": 40,
          "midi": 74,
          "name": "D5",
          "ticks": 463520,
          "time": 1409.7117959666666,
          "velocity": 0.7874015748031497
        },
        {
          "duration": 0.08928566666668303,
          "durationTicks": 40,
          "midi": 76,
          "name": "E5",
          "ticks": 463560,
          "time": 1409.8010816333333,
          "velocity": 0.7874015748031497
        },
        {
          "duration": 0.08928566666668303,
          "durationTicks": 40,
          "midi": 78,
          "name": "F#5",
          "ticks": 463600,
          "time": 1409.8903673,
          "velocity": 0.7874015748031497
        },
        {
          "duration": 0.08928566666668303,
          "durationTicks": 40,
          "midi": 79,
          "name": "G5",
          "ticks": 463640,
          "time": 1409.9796529666667,
          "velocity": 0.7874015748031497
        },
        {
          "duration": 0.08928566666668303,
          "durationTicks": 40,
          "midi": 64,
          "name": "E4",
          "ticks": 463680,
          "time": 1410.0689386333333,
          "velocity": 0.7874015748031497
        },
        {
          "duration": 0.08928566666668303,
          "durationTicks": 40,
          "midi": 67,
          "name": "G4",
          "ticks": 463720,
          "time": 1410.1582243,
          "velocity": 0.7874015748031497
        },
        {
          "duration": 0.08928566666668303,
          "durationTicks": 40,
          "midi": 70,
          "name": "A#4",
          "ticks": 463760,
          "time": 1410.2475099666667,
          "velocity": 0.7874015748031497
        },
        {
          "duration": 0.08928566666668303,
          "durationTicks": 40,
          "midi": 69,
          "name": "A4",
          "ticks": 463800,
          "time": 1410.3367956333334,
          "velocity": 0.7874015748031497
        },
        {
          "duration": 0.08928566666668303,
          "durationTicks": 40,
          "midi": 66,
          "name": "F#4",
          "ticks": 463840,
          "time": 1410.4260813,
          "velocity": 0.7874015748031497
        },
        {
          "duration": 0.08928566666668303,
          "durationTicks": 40,
          "midi": 64,
          "name": "E4",
          "ticks": 463880,
          "time": 1410.5153669666668,
          "velocity": 0.7874015748031497
        },
        {
          "duration": 0.08928566666668303,
          "durationTicks": 40,
          "midi": 62,
          "name": "D4",
          "ticks": 463920,
          "time": 1410.6046526333334,
          "velocity": 0.7874015748031497
        },
        {
          "duration": 0.08928566666668303,
          "durationTicks": 40,
          "midi": 66,
          "name": "F#4",
          "ticks": 463960,
          "time": 1410.6939383000001,
          "velocity": 0.7874015748031497
        },
        {
          "duration": 0.08928566666668303,
          "durationTicks": 40,
          "midi": 67,
          "name": "G4",
          "ticks": 464000,
          "time": 1410.7832239666668,
          "velocity": 0.7874015748031497
        },
        {
          "duration": 0.08928566666668303,
          "durationTicks": 40,
          "midi": 66,
          "name": "F#4",
          "ticks": 464040,
          "time": 1410.8725096333335,
          "velocity": 0.7874015748031497
        },
        {
          "duration": 0.08928566666645565,
          "durationTicks": 40,
          "midi": 62,
          "name": "D4",
          "ticks": 464080,
          "time": 1410.9617953000002,
          "velocity": 0.7874015748031497
        },
        {
          "duration": 0.08928566666668303,
          "durationTicks": 40,
          "midi": 60,
          "name": "C4",
          "ticks": 464120,
          "time": 1411.0510809666666,
          "velocity": 0.7874015748031497
        },
        {
          "duration": 0.08928566666668303,
          "durationTicks": 40,
          "midi": 58,
          "name": "A#3",
          "ticks": 464160,
          "time": 1411.1403666333333,
          "velocity": 0.7874015748031497
        },
        {
          "duration": 0.08928566666668303,
          "durationTicks": 40,
          "midi": 62,
          "name": "D4",
          "ticks": 464200,
          "time": 1411.2296523,
          "velocity": 0.7874015748031497
        },
        {
          "duration": 0.08928566666668303,
          "durationTicks": 40,
          "midi": 64,
          "name": "E4",
          "ticks": 464240,
          "time": 1411.3189379666667,
          "velocity": 0.7874015748031497
        },
        {
          "duration": 0.08928566666668303,
          "durationTicks": 40,
          "midi": 62,
          "name": "D4",
          "ticks": 464280,
          "time": 1411.4082236333334,
          "velocity": 0.7874015748031497
        },
        {
          "duration": 0.08928566666668303,
          "durationTicks": 40,
          "midi": 58,
          "name": "A#3",
          "ticks": 464320,
          "time": 1411.4975093,
          "velocity": 0.7874015748031497
        },
        {
          "duration": 0.08928566666668303,
          "durationTicks": 40,
          "midi": 57,
          "name": "A3",
          "ticks": 464360,
          "time": 1411.5867949666667,
          "velocity": 0.7874015748031497
        },
        {
          "duration": 0.2678569999998217,
          "durationTicks": 120,
          "midi": 74,
          "name": "D5",
          "ticks": 464520,
          "time": 1411.9439376333335,
          "velocity": 0.7874015748031497
        },
        {
          "duration": 0.2678570000000491,
          "durationTicks": 120,
          "midi": 67,
          "name": "G4",
          "ticks": 464640,
          "time": 1412.2117946333333,
          "velocity": 0.7874015748031497
        },
        {
          "duration": 0.2678570000000491,
          "durationTicks": 120,
          "midi": 71,
          "name": "B4",
          "ticks": 464640,
          "time": 1412.2117946333333,
          "velocity": 0.7874015748031497
        },
        {
          "duration": 0.2678570000000491,
          "durationTicks": 120,
          "midi": 79,
          "name": "G5",
          "ticks": 464640,
          "time": 1412.2117946333333,
          "velocity": 0.7874015748031497
        },
        {
          "duration": 0.2678570000000491,
          "durationTicks": 120,
          "midi": 69,
          "name": "A4",
          "ticks": 464760,
          "time": 1412.4796516333333,
          "velocity": 0.7874015748031497
        },
        {
          "duration": 0.2678570000000491,
          "durationTicks": 120,
          "midi": 74,
          "name": "D5",
          "ticks": 464760,
          "time": 1412.4796516333333,
          "velocity": 0.7874015748031497
        },
        {
          "duration": 0.2678570000000491,
          "durationTicks": 120,
          "midi": 81,
          "name": "A5",
          "ticks": 464760,
          "time": 1412.4796516333333,
          "velocity": 0.7874015748031497
        },
        {
          "duration": 0.2678570000000491,
          "durationTicks": 120,
          "midi": 71,
          "name": "B4",
          "ticks": 464880,
          "time": 1412.7475086333334,
          "velocity": 0.7874015748031497
        },
        {
          "duration": 0.2678570000000491,
          "durationTicks": 120,
          "midi": 79,
          "name": "G5",
          "ticks": 464880,
          "time": 1412.7475086333334,
          "velocity": 0.7874015748031497
        },
        {
          "duration": 0.2678570000000491,
          "durationTicks": 120,
          "midi": 83,
          "name": "B5",
          "ticks": 464880,
          "time": 1412.7475086333334,
          "velocity": 0.7874015748031497
        },
        {
          "duration": 0.2678570000000491,
          "durationTicks": 120,
          "midi": 73,
          "name": "C#5",
          "ticks": 465000,
          "time": 1413.0153656333334,
          "velocity": 0.7874015748031497
        },
        {
          "duration": 0.2678570000000491,
          "durationTicks": 120,
          "midi": 76,
          "name": "E5",
          "ticks": 465000,
          "time": 1413.0153656333334,
          "velocity": 0.7874015748031497
        },
        {
          "duration": 0.2678570000000491,
          "durationTicks": 120,
          "midi": 85,
          "name": "C#6",
          "ticks": 465000,
          "time": 1413.0153656333334,
          "velocity": 0.7874015748031497
        },
        {
          "duration": 1.6071419999998398,
          "durationTicks": 720,
          "midi": 74,
          "name": "D5",
          "ticks": 465120,
          "time": 1413.2832226333335,
          "velocity": 0.7874015748031497
        },
        {
          "duration": 1.6071419999998398,
          "durationTicks": 720,
          "midi": 78,
          "name": "F#5",
          "ticks": 465120,
          "time": 1413.2832226333335,
          "velocity": 0.7874015748031497
        },
        {
          "duration": 1.6071419999998398,
          "durationTicks": 720,
          "midi": 81,
          "name": "A5",
          "ticks": 465120,
          "time": 1413.2832226333335,
          "velocity": 0.7874015748031497
        },
        {
          "duration": 1.6071419999998398,
          "durationTicks": 720,
          "midi": 86,
          "name": "D6",
          "ticks": 465120,
          "time": 1413.2832226333335,
          "velocity": 0.7874015748031497
        },
        {
          "duration": 0.3125,
          "durationTicks": 120,
          "midi": 62,
          "name": "D4",
          "ticks": 467160,
          "time": 1418.1507807333335,
          "velocity": 0.7874015748031497
        },
        {
          "duration": 0.3125,
          "durationTicks": 120,
          "midi": 67,
          "name": "G4",
          "ticks": 467280,
          "time": 1418.4632807333335,
          "velocity": 0.7874015748031497
        },
        {
          "duration": 0.3125,
          "durationTicks": 120,
          "midi": 69,
          "name": "A4",
          "ticks": 467400,
          "time": 1418.7757807333335,
          "velocity": 0.7874015748031497
        },
        {
          "duration": 0.3125,
          "durationTicks": 120,
          "midi": 71,
          "name": "B4",
          "ticks": 467520,
          "time": 1419.0882807333335,
          "velocity": 0.7874015748031497
        },
        {
          "duration": 0.3125,
          "durationTicks": 120,
          "midi": 72,
          "name": "C5",
          "ticks": 467640,
          "time": 1419.4007807333335,
          "velocity": 0.7874015748031497
        },
        {
          "duration": 0.3125,
          "durationTicks": 120,
          "midi": 74,
          "name": "D5",
          "ticks": 467760,
          "time": 1419.7132807333335,
          "velocity": 0.7874015748031497
        },
        {
          "duration": 0.15625,
          "durationTicks": 60,
          "midi": 72,
          "name": "C5",
          "ticks": 467880,
          "time": 1420.0257807333335,
          "velocity": 0.7874015748031497
        },
        {
          "duration": 0.15625,
          "durationTicks": 60,
          "midi": 71,
          "name": "B4",
          "ticks": 467940,
          "time": 1420.1820307333335,
          "velocity": 0.7874015748031497
        },
        {
          "duration": 0.3125,
          "durationTicks": 120,
          "midi": 69,
          "name": "A4",
          "ticks": 468000,
          "time": 1420.3382807333335,
          "velocity": 0.7874015748031497
        },
        {
          "duration": 0.625,
          "durationTicks": 240,
          "midi": 74,
          "name": "D5",
          "ticks": 468240,
          "time": 1420.9632807333335,
          "velocity": 0.7874015748031497
        },
        {
          "duration": 0.625,
          "durationTicks": 240,
          "midi": 74,
          "name": "D5",
          "ticks": 468480,
          "time": 1421.5882807333335,
          "velocity": 0.7874015748031497
        },
        {
          "duration": 0.625,
          "durationTicks": 240,
          "midi": 76,
          "name": "E5",
          "ticks": 468720,
          "time": 1422.2132807333335,
          "velocity": 0.7874015748031497
        },
        {
          "duration": 0.625,
          "durationTicks": 240,
          "midi": 76,
          "name": "E5",
          "ticks": 468960,
          "time": 1422.8382807333335,
          "velocity": 0.7874015748031497
        },
        {
          "duration": 0.3125,
          "durationTicks": 120,
          "midi": 74,
          "name": "D5",
          "ticks": 469200,
          "time": 1423.4632807333335,
          "velocity": 0.7874015748031497
        },
        {
          "duration": 0.3125,
          "durationTicks": 120,
          "midi": 76,
          "name": "E5",
          "ticks": 469320,
          "time": 1423.7757807333335,
          "velocity": 0.7874015748031497
        },
        {
          "duration": 0.3125,
          "durationTicks": 120,
          "midi": 74,
          "name": "D5",
          "ticks": 469440,
          "time": 1424.0882807333335,
          "velocity": 0.7874015748031497
        },
        {
          "duration": 0.3125,
          "durationTicks": 120,
          "midi": 72,
          "name": "C5",
          "ticks": 469560,
          "time": 1424.4007807333335,
          "velocity": 0.7874015748031497
        },
        {
          "duration": 0.3125,
          "durationTicks": 120,
          "midi": 71,
          "name": "B4",
          "ticks": 469680,
          "time": 1424.7132807333335,
          "velocity": 0.7874015748031497
        },
        {
          "duration": 0.3125,
          "durationTicks": 120,
          "midi": 69,
          "name": "A4",
          "ticks": 469800,
          "time": 1425.0257807333335,
          "velocity": 0.7874015748031497
        },
        {
          "duration": 0.3125,
          "durationTicks": 120,
          "midi": 67,
          "name": "G4",
          "ticks": 469920,
          "time": 1425.3382807333335,
          "velocity": 0.7874015748031497
        },
        {
          "duration": 0.3125,
          "durationTicks": 120,
          "midi": 67,
          "name": "G4",
          "ticks": 470040,
          "time": 1425.6507807333335,
          "velocity": 0.7874015748031497
        },
        {
          "duration": 0.625,
          "durationTicks": 240,
          "midi": 67,
          "name": "G4",
          "ticks": 470160,
          "time": 1425.9632807333335,
          "velocity": 0.7874015748031497
        },
        {
          "duration": 0.3125,
          "durationTicks": 120,
          "midi": 74,
          "name": "D5",
          "ticks": 471000,
          "time": 1428.1507807333335,
          "velocity": 0.7874015748031497
        },
        {
          "duration": 0.3125,
          "durationTicks": 120,
          "midi": 79,
          "name": "G5",
          "ticks": 471120,
          "time": 1428.4632807333335,
          "velocity": 0.7874015748031497
        },
        {
          "duration": 0.3125,
          "durationTicks": 120,
          "midi": 78,
          "name": "F#5",
          "ticks": 471240,
          "time": 1428.7757807333335,
          "velocity": 0.7874015748031497
        },
        {
          "duration": 0.3125,
          "durationTicks": 120,
          "midi": 76,
          "name": "E5",
          "ticks": 471360,
          "time": 1429.0882807333335,
          "velocity": 0.7874015748031497
        },
        {
          "duration": 0.3125,
          "durationTicks": 120,
          "midi": 74,
          "name": "D5",
          "ticks": 471480,
          "time": 1429.4007807333335,
          "velocity": 0.7874015748031497
        },
        {
          "duration": 0.05208333333325754,
          "durationTicks": 20,
          "midi": 74,
          "name": "D5",
          "ticks": 471600,
          "time": 1429.7132807333335,
          "velocity": 0.7874015748031497
        },
        {
          "duration": 0.05208333333325754,
          "durationTicks": 20,
          "midi": 73,
          "name": "C#5",
          "ticks": 471620,
          "time": 1429.7653640666667,
          "velocity": 0.7874015748031497
        },
        {
          "duration": 0.052083333333484916,
          "durationTicks": 20,
          "midi": 74,
          "name": "D5",
          "ticks": 471640,
          "time": 1429.8174474,
          "velocity": 0.7874015748031497
        },
        {
          "duration": 0.15625,
          "durationTicks": 60,
          "midi": 73,
          "name": "C#5",
          "ticks": 471660,
          "time": 1429.8695307333335,
          "velocity": 0.7874015748031497
        },
        {
          "duration": 0.15625,
          "durationTicks": 60,
          "midi": 71,
          "name": "B4",
          "ticks": 471720,
          "time": 1430.0257807333335,
          "velocity": 0.7874015748031497
        },
        {
          "duration": 0.15625,
          "durationTicks": 60,
          "midi": 73,
          "name": "C#5",
          "ticks": 471780,
          "time": 1430.1820307333335,
          "velocity": 0.7874015748031497
        },
        {
          "duration": 0.3125,
          "durationTicks": 120,
          "midi": 69,
          "name": "A4",
          "ticks": 471840,
          "time": 1430.3382807333335,
          "velocity": 0.7874015748031497
        },
        {
          "duration": 0.625,
          "durationTicks": 240,
          "midi": 69,
          "name": "A4",
          "ticks": 472080,
          "time": 1430.9632807333335,
          "velocity": 0.7874015748031497
        },
        {
          "duration": 0.625,
          "durationTicks": 240,
          "midi": 81,
          "name": "A5",
          "ticks": 472080,
          "time": 1430.9632807333335,
          "velocity": 0.7874015748031497
        },
        {
          "duration": 0.625,
          "durationTicks": 240,
          "midi": 69,
          "name": "A4",
          "ticks": 472320,
          "time": 1431.5882807333335,
          "velocity": 0.7874015748031497
        },
        {
          "duration": 0.625,
          "durationTicks": 240,
          "midi": 81,
          "name": "A5",
          "ticks": 472320,
          "time": 1431.5882807333335,
          "velocity": 0.7874015748031497
        },
        {
          "duration": 0.625,
          "durationTicks": 240,
          "midi": 71,
          "name": "B4",
          "ticks": 472560,
          "time": 1432.2132807333335,
          "velocity": 0.7874015748031497
        },
        {
          "duration": 0.625,
          "durationTicks": 240,
          "midi": 83,
          "name": "B5",
          "ticks": 472560,
          "time": 1432.2132807333335,
          "velocity": 0.7874015748031497
        },
        {
          "duration": 0.625,
          "durationTicks": 240,
          "midi": 71,
          "name": "B4",
          "ticks": 472800,
          "time": 1432.8382807333335,
          "velocity": 0.7874015748031497
        },
        {
          "duration": 0.625,
          "durationTicks": 240,
          "midi": 83,
          "name": "B5",
          "ticks": 472800,
          "time": 1432.8382807333335,
          "velocity": 0.7874015748031497
        },
        {
          "duration": 0.3125,
          "durationTicks": 120,
          "midi": 81,
          "name": "A5",
          "ticks": 473040,
          "time": 1433.4632807333335,
          "velocity": 0.7874015748031497
        },
        {
          "duration": 0.3125,
          "durationTicks": 120,
          "midi": 83,
          "name": "B5",
          "ticks": 473160,
          "time": 1433.7757807333335,
          "velocity": 0.7874015748031497
        },
        {
          "duration": 0.3125,
          "durationTicks": 120,
          "midi": 81,
          "name": "A5",
          "ticks": 473280,
          "time": 1434.0882807333335,
          "velocity": 0.7874015748031497
        },
        {
          "duration": 0.3125,
          "durationTicks": 120,
          "midi": 69,
          "name": "A4",
          "ticks": 473400,
          "time": 1434.4007807333335,
          "velocity": 0.7874015748031497
        },
        {
          "duration": 0.3125,
          "durationTicks": 120,
          "midi": 79,
          "name": "G5",
          "ticks": 473400,
          "time": 1434.4007807333335,
          "velocity": 0.7874015748031497
        },
        {
          "duration": 0.3125,
          "durationTicks": 120,
          "midi": 78,
          "name": "F#5",
          "ticks": 473520,
          "time": 1434.7132807333335,
          "velocity": 0.7874015748031497
        },
        {
          "duration": 0.3125,
          "durationTicks": 120,
          "midi": 67,
          "name": "G4",
          "ticks": 473640,
          "time": 1435.0257807333335,
          "velocity": 0.7874015748031497
        },
        {
          "duration": 0.3125,
          "durationTicks": 120,
          "midi": 76,
          "name": "E5",
          "ticks": 473640,
          "time": 1435.0257807333335,
          "velocity": 0.7874015748031497
        },
        {
          "duration": 0.3125,
          "durationTicks": 120,
          "midi": 66,
          "name": "F#4",
          "ticks": 473760,
          "time": 1435.3382807333335,
          "velocity": 0.7874015748031497
        },
        {
          "duration": 0.3125,
          "durationTicks": 120,
          "midi": 74,
          "name": "D5",
          "ticks": 473760,
          "time": 1435.3382807333335,
          "velocity": 0.7874015748031497
        },
        {
          "duration": 0.3125,
          "durationTicks": 120,
          "midi": 81,
          "name": "A5",
          "ticks": 473880,
          "time": 1435.6507807333335,
          "velocity": 0.7874015748031497
        },
        {
          "duration": 0.3125,
          "durationTicks": 120,
          "midi": 78,
          "name": "F#5",
          "ticks": 474000,
          "time": 1435.9632807333335,
          "velocity": 0.7874015748031497
        },
        {
          "duration": 0.3125,
          "durationTicks": 120,
          "midi": 81,
          "name": "A5",
          "ticks": 474120,
          "time": 1436.2757807333335,
          "velocity": 0.7874015748031497
        },
        {
          "duration": 0.3125,
          "durationTicks": 120,
          "midi": 78,
          "name": "F#5",
          "ticks": 474240,
          "time": 1436.5882807333335,
          "velocity": 0.7874015748031497
        },
        {
          "duration": 0.3125,
          "durationTicks": 120,
          "midi": 81,
          "name": "A5",
          "ticks": 474360,
          "time": 1436.9007807333335,
          "velocity": 0.7874015748031497
        },
        {
          "duration": 0.3125,
          "durationTicks": 120,
          "midi": 74,
          "name": "D5",
          "ticks": 474480,
          "time": 1437.2132807333335,
          "velocity": 0.7874015748031497
        },
        {
          "duration": 0.15625,
          "durationTicks": 60,
          "midi": 76,
          "name": "E5",
          "ticks": 474600,
          "time": 1437.5257807333335,
          "velocity": 0.7874015748031497
        },
        {
          "duration": 0.15625,
          "durationTicks": 60,
          "midi": 78,
          "name": "F#5",
          "ticks": 474660,
          "time": 1437.6820307333335,
          "velocity": 0.7874015748031497
        },
        {
          "duration": 0.3125,
          "durationTicks": 120,
          "midi": 79,
          "name": "G5",
          "ticks": 474720,
          "time": 1437.8382807333335,
          "velocity": 0.7874015748031497
        },
        {
          "duration": 0.3125,
          "durationTicks": 120,
          "midi": 76,
          "name": "E5",
          "ticks": 474840,
          "time": 1438.1507807333335,
          "velocity": 0.7874015748031497
        },
        {
          "duration": 0.3125,
          "durationTicks": 120,
          "midi": 81,
          "name": "A5",
          "ticks": 474960,
          "time": 1438.4632807333335,
          "velocity": 0.7874015748031497
        },
        {
          "duration": 0.3125,
          "durationTicks": 120,
          "midi": 79,
          "name": "G5",
          "ticks": 475080,
          "time": 1438.7757807333335,
          "velocity": 0.7874015748031497
        },
        {
          "duration": 0.3125,
          "durationTicks": 120,
          "midi": 78,
          "name": "F#5",
          "ticks": 475200,
          "time": 1439.0882807333335,
          "velocity": 0.7874015748031497
        },
        {
          "duration": 0.3125,
          "durationTicks": 120,
          "midi": 76,
          "name": "E5",
          "ticks": 475320,
          "time": 1439.4007807333335,
          "velocity": 0.7874015748031497
        },
        {
          "duration": 0.3125,
          "durationTicks": 120,
          "midi": 75,
          "name": "D#5",
          "ticks": 475440,
          "time": 1439.7132807333335,
          "velocity": 0.7874015748031497
        },
        {
          "duration": 0.15625,
          "durationTicks": 60,
          "midi": 73,
          "name": "C#5",
          "ticks": 475560,
          "time": 1440.0257807333335,
          "velocity": 0.7874015748031497
        },
        {
          "duration": 0.15625,
          "durationTicks": 60,
          "midi": 75,
          "name": "D#5",
          "ticks": 475620,
          "time": 1440.1820307333335,
          "velocity": 0.7874015748031497
        },
        {
          "duration": 0.3125,
          "durationTicks": 120,
          "midi": 71,
          "name": "B4",
          "ticks": 475680,
          "time": 1440.3382807333335,
          "velocity": 0.7874015748031497
        },
        {
          "duration": 0.3125,
          "durationTicks": 120,
          "midi": 83,
          "name": "B5",
          "ticks": 475800,
          "time": 1440.6507807333335,
          "velocity": 0.7874015748031497
        },
        {
          "duration": 0.3125,
          "durationTicks": 120,
          "midi": 76,
          "name": "E5",
          "ticks": 475920,
          "time": 1440.9632807333335,
          "velocity": 0.7874015748031497
        },
        {
          "duration": 0.3125,
          "durationTicks": 120,
          "midi": 83,
          "name": "B5",
          "ticks": 476040,
          "time": 1441.2757807333335,
          "velocity": 0.7874015748031497
        },
        {
          "duration": 0.3125,
          "durationTicks": 120,
          "midi": 76,
          "name": "E5",
          "ticks": 476160,
          "time": 1441.5882807333335,
          "velocity": 0.7874015748031497
        },
        {
          "duration": 0.3125,
          "durationTicks": 120,
          "midi": 83,
          "name": "B5",
          "ticks": 476280,
          "time": 1441.9007807333335,
          "velocity": 0.7874015748031497
        },
        {
          "duration": 0.15625,
          "durationTicks": 60,
          "midi": 75,
          "name": "D#5",
          "ticks": 476400,
          "time": 1442.2132807333335,
          "velocity": 0.7874015748031497
        },
        {
          "duration": 0.15625,
          "durationTicks": 60,
          "midi": 76,
          "name": "E5",
          "ticks": 476460,
          "time": 1442.3695307333335,
          "velocity": 0.7874015748031497
        },
        {
          "duration": 0.15625,
          "durationTicks": 60,
          "midi": 78,
          "name": "F#5",
          "ticks": 476520,
          "time": 1442.5257807333335,
          "velocity": 0.7874015748031497
        },
        {
          "duration": 0.15625,
          "durationTicks": 60,
          "midi": 79,
          "name": "G5",
          "ticks": 476580,
          "time": 1442.6820307333335,
          "velocity": 0.7874015748031497
        },
        {
          "duration": 0.3125,
          "durationTicks": 120,
          "midi": 81,
          "name": "A5",
          "ticks": 476640,
          "time": 1442.8382807333335,
          "velocity": 0.7874015748031497
        },
        {
          "duration": 0.15625,
          "durationTicks": 60,
          "midi": 79,
          "name": "G5",
          "ticks": 476760,
          "time": 1443.1507807333335,
          "velocity": 0.7874015748031497
        },
        {
          "duration": 0.15625,
          "durationTicks": 60,
          "midi": 78,
          "name": "F#5",
          "ticks": 476820,
          "time": 1443.3070307333335,
          "velocity": 0.7874015748031497
        },
        {
          "duration": 0.3125,
          "durationTicks": 120,
          "midi": 79,
          "name": "G5",
          "ticks": 476880,
          "time": 1443.4632807333335,
          "velocity": 0.7874015748031497
        },
        {
          "duration": 0.15625,
          "durationTicks": 60,
          "midi": 78,
          "name": "F#5",
          "ticks": 477000,
          "time": 1443.7757807333335,
          "velocity": 0.7874015748031497
        },
        {
          "duration": 0.15625,
          "durationTicks": 60,
          "midi": 76,
          "name": "E5",
          "ticks": 477060,
          "time": 1443.9320307333335,
          "velocity": 0.7874015748031497
        },
        {
          "duration": 0.15625,
          "durationTicks": 60,
          "midi": 75,
          "name": "D#5",
          "ticks": 477120,
          "time": 1444.0882807333335,
          "velocity": 0.7874015748031497
        },
        {
          "duration": 0.15625,
          "durationTicks": 60,
          "midi": 76,
          "name": "E5",
          "ticks": 477180,
          "time": 1444.2445307333335,
          "velocity": 0.7874015748031497
        },
        {
          "duration": 0.15625,
          "durationTicks": 60,
          "midi": 78,
          "name": "F#5",
          "ticks": 477240,
          "time": 1444.4007807333335,
          "velocity": 0.7874015748031497
        },
        {
          "duration": 0.15625,
          "durationTicks": 60,
          "midi": 75,
          "name": "D#5",
          "ticks": 477300,
          "time": 1444.5570307333335,
          "velocity": 0.7874015748031497
        },
        {
          "duration": 1.40625,
          "durationTicks": 540,
          "midi": 76,
          "name": "E5",
          "ticks": 477360,
          "time": 1444.7132807333335,
          "velocity": 0.7874015748031497
        },
        {
          "duration": 0.15625,
          "durationTicks": 60,
          "midi": 74,
          "name": "D5",
          "ticks": 477900,
          "time": 1446.1195307333335,
          "velocity": 0.7874015748031497
        },
        {
          "duration": 0.15625,
          "durationTicks": 60,
          "midi": 78,
          "name": "F#5",
          "ticks": 477960,
          "time": 1446.2757807333335,
          "velocity": 0.7874015748031497
        },
        {
          "duration": 0.15625,
          "durationTicks": 60,
          "midi": 76,
          "name": "E5",
          "ticks": 478020,
          "time": 1446.4320307333335,
          "velocity": 0.7874015748031497
        },
        {
          "duration": 0.15625,
          "durationTicks": 60,
          "midi": 79,
          "name": "G5",
          "ticks": 478080,
          "time": 1446.5882807333335,
          "velocity": 0.7874015748031497
        },
        {
          "duration": 0.15625,
          "durationTicks": 60,
          "midi": 78,
          "name": "F#5",
          "ticks": 478140,
          "time": 1446.7445307333335,
          "velocity": 0.7874015748031497
        },
        {
          "duration": 0.15625,
          "durationTicks": 60,
          "midi": 81,
          "name": "A5",
          "ticks": 478200,
          "time": 1446.9007807333335,
          "velocity": 0.7874015748031497
        },
        {
          "duration": 0.078125,
          "durationTicks": 30,
          "midi": 76,
          "name": "E5",
          "ticks": 478320,
          "time": 1447.2132807333335,
          "velocity": 0.7874015748031497
        },
        {
          "duration": 0.078125,
          "durationTicks": 30,
          "midi": 74,
          "name": "D5",
          "ticks": 478350,
          "time": 1447.2914057333335,
          "velocity": 0.7874015748031497
        },
        {
          "duration": 0.078125,
          "durationTicks": 30,
          "midi": 76,
          "name": "E5",
          "ticks": 478380,
          "time": 1447.3695307333335,
          "velocity": 0.7874015748031497
        },
        {
          "duration": 0.078125,
          "durationTicks": 30,
          "midi": 74,
          "name": "D5",
          "ticks": 478410,
          "time": 1447.4476557333335,
          "velocity": 0.7874015748031497
        },
        {
          "duration": 0.078125,
          "durationTicks": 30,
          "midi": 76,
          "name": "E5",
          "ticks": 478440,
          "time": 1447.5257807333335,
          "velocity": 0.7874015748031497
        },
        {
          "duration": 0.078125,
          "durationTicks": 30,
          "midi": 74,
          "name": "D5",
          "ticks": 478470,
          "time": 1447.6039057333335,
          "velocity": 0.7874015748031497
        },
        {
          "duration": 0.078125,
          "durationTicks": 30,
          "midi": 76,
          "name": "E5",
          "ticks": 478500,
          "time": 1447.6820307333335,
          "velocity": 0.7874015748031497
        },
        {
          "duration": 0.078125,
          "durationTicks": 30,
          "midi": 74,
          "name": "D5",
          "ticks": 478530,
          "time": 1447.7601557333335,
          "velocity": 0.7874015748031497
        },
        {
          "duration": 0.078125,
          "durationTicks": 30,
          "midi": 76,
          "name": "E5",
          "ticks": 478560,
          "time": 1447.8382807333335,
          "velocity": 0.7874015748031497
        },
        {
          "duration": 0.078125,
          "durationTicks": 30,
          "midi": 74,
          "name": "D5",
          "ticks": 478590,
          "time": 1447.9164057333335,
          "velocity": 0.7874015748031497
        },
        {
          "duration": 0.078125,
          "durationTicks": 30,
          "midi": 76,
          "name": "E5",
          "ticks": 478620,
          "time": 1447.9945307333335,
          "velocity": 0.7874015748031497
        },
        {
          "duration": 0.078125,
          "durationTicks": 30,
          "midi": 74,
          "name": "D5",
          "ticks": 478650,
          "time": 1448.0726557333335,
          "velocity": 0.7874015748031497
        },
        {
          "duration": 0.078125,
          "durationTicks": 30,
          "midi": 76,
          "name": "E5",
          "ticks": 478680,
          "time": 1448.1507807333335,
          "velocity": 0.7874015748031497
        },
        {
          "duration": 0.078125,
          "durationTicks": 30,
          "midi": 74,
          "name": "D5",
          "ticks": 478710,
          "time": 1448.2289057333335,
          "velocity": 0.7874015748031497
        },
        {
          "duration": 0.078125,
          "durationTicks": 30,
          "midi": 72,
          "name": "C5",
          "ticks": 478740,
          "time": 1448.3070307333335,
          "velocity": 0.7874015748031497
        },
        {
          "duration": 0.078125,
          "durationTicks": 30,
          "midi": 74,
          "name": "D5",
          "ticks": 478770,
          "time": 1448.3851557333335,
          "velocity": 0.7874015748031497
        },
        {
          "duration": 0.3125,
          "durationTicks": 120,
          "midi": 76,
          "name": "E5",
          "ticks": 478800,
          "time": 1448.4632807333335,
          "velocity": 0.7874015748031497
        },
        {
          "duration": 0.15625,
          "durationTicks": 60,
          "midi": 78,
          "name": "F#5",
          "ticks": 478920,
          "time": 1448.7757807333335,
          "velocity": 0.7874015748031497
        },
        {
          "duration": 0.15625,
          "durationTicks": 60,
          "midi": 79,
          "name": "G5",
          "ticks": 478980,
          "time": 1448.9320307333335,
          "velocity": 0.7874015748031497
        },
        {
          "duration": 0.3125,
          "durationTicks": 120,
          "midi": 81,
          "name": "A5",
          "ticks": 479040,
          "time": 1449.0882807333335,
          "velocity": 0.7874015748031497
        },
        {
          "duration": 0.3125,
          "durationTicks": 120,
          "midi": 79,
          "name": "G5",
          "ticks": 479160,
          "time": 1449.4007807333335,
          "velocity": 0.7874015748031497
        },
        {
          "duration": 0.3125,
          "durationTicks": 120,
          "midi": 78,
          "name": "F#5",
          "ticks": 479280,
          "time": 1449.7132807333335,
          "velocity": 0.7874015748031497
        },
        {
          "duration": 0.15625,
          "durationTicks": 60,
          "midi": 76,
          "name": "E5",
          "ticks": 479400,
          "time": 1450.0257807333335,
          "velocity": 0.7874015748031497
        },
        {
          "duration": 0.46875,
          "durationTicks": 180,
          "midi": 78,
          "name": "F#5",
          "ticks": 479460,
          "time": 1450.1820307333335,
          "velocity": 0.7874015748031497
        },
        {
          "duration": 0.3125,
          "durationTicks": 120,
          "midi": 81,
          "name": "A5",
          "ticks": 479640,
          "time": 1450.6507807333335,
          "velocity": 0.7874015748031497
        },
        {
          "duration": 0.3125,
          "durationTicks": 120,
          "midi": 78,
          "name": "F#5",
          "ticks": 480720,
          "time": 1453.4632807333335,
          "velocity": 0.7874015748031497
        },
        {
          "duration": 0.3125,
          "durationTicks": 120,
          "midi": 79,
          "name": "G5",
          "ticks": 480840,
          "time": 1453.7757807333335,
          "velocity": 0.7874015748031497
        },
        {
          "duration": 0.3125,
          "durationTicks": 120,
          "midi": 81,
          "name": "A5",
          "ticks": 480960,
          "time": 1454.0882807333335,
          "velocity": 0.7874015748031497
        },
        {
          "duration": 0.3125,
          "durationTicks": 120,
          "midi": 78,
          "name": "F#5",
          "ticks": 481080,
          "time": 1454.4007807333335,
          "velocity": 0.7874015748031497
        },
        {
          "duration": 0.625,
          "durationTicks": 240,
          "midi": 67,
          "name": "G4",
          "ticks": 481200,
          "time": 1454.7132807333335,
          "velocity": 0.7874015748031497
        },
        {
          "duration": 0.625,
          "durationTicks": 240,
          "midi": 79,
          "name": "G5",
          "ticks": 481200,
          "time": 1454.7132807333335,
          "velocity": 0.7874015748031497
        },
        {
          "duration": 0.625,
          "durationTicks": 240,
          "midi": 67,
          "name": "G4",
          "ticks": 481440,
          "time": 1455.3382807333335,
          "velocity": 0.7874015748031497
        },
        {
          "duration": 0.625,
          "durationTicks": 240,
          "midi": 79,
          "name": "G5",
          "ticks": 481440,
          "time": 1455.3382807333335,
          "velocity": 0.7874015748031497
        },
        {
          "duration": 1.2395833333332575,
          "durationTicks": 240,
          "midi": 67,
          "name": "G4",
          "ticks": 482160,
          "time": 1457.2132807333335,
          "velocity": 0.7874015748031497
        },
        {
          "duration": 1.25,
          "durationTicks": 240,
          "midi": 67,
          "name": "G4",
          "ticks": 482400,
          "time": 1458.4528640666667,
          "velocity": 0.7874015748031497
        },
        {
          "duration": 0.9375,
          "durationTicks": 180,
          "midi": 69,
          "name": "A4",
          "ticks": 482640,
          "time": 1459.7028640666667,
          "velocity": 0.7874015748031497
        },
        {
          "duration": 0.3125,
          "durationTicks": 60,
          "midi": 71,
          "name": "B4",
          "ticks": 482820,
          "time": 1460.6403640666667,
          "velocity": 0.7874015748031497
        },
        {
          "duration": 0.625,
          "durationTicks": 120,
          "midi": 69,
          "name": "A4",
          "ticks": 482880,
          "time": 1460.9528640666667,
          "velocity": 0.7874015748031497
        },
        {
          "duration": 0.625,
          "durationTicks": 120,
          "midi": 66,
          "name": "F#4",
          "ticks": 483000,
          "time": 1461.5778640666667,
          "velocity": 0.7874015748031497
        },
        {
          "duration": 2.5,
          "durationTicks": 480,
          "midi": 62,
          "name": "D4",
          "ticks": 483120,
          "time": 1462.2028640666667,
          "velocity": 0.7874015748031497
        },
        {
          "duration": 1.25,
          "durationTicks": 240,
          "midi": 55,
          "name": "G3",
          "ticks": 483600,
          "time": 1464.7028640666667,
          "velocity": 0.7874015748031497
        },
        {
          "duration": 0.9375,
          "durationTicks": 180,
          "midi": 55,
          "name": "G3",
          "ticks": 483840,
          "time": 1465.9528640666667,
          "velocity": 0.7874015748031497
        },
        {
          "duration": 0.10416666666651508,
          "durationTicks": 20,
          "midi": 54,
          "name": "F#3",
          "ticks": 484020,
          "time": 1466.8903640666667,
          "velocity": 0.7874015748031497
        },
        {
          "duration": 0.10416666666674246,
          "durationTicks": 20,
          "midi": 55,
          "name": "G3",
          "ticks": 484040,
          "time": 1466.9945307333332,
          "velocity": 0.7874015748031497
        },
        {
          "duration": 0.10416666666674246,
          "durationTicks": 20,
          "midi": 57,
          "name": "A3",
          "ticks": 484060,
          "time": 1467.0986974,
          "velocity": 0.7874015748031497
        },
        {
          "duration": 0.625,
          "durationTicks": 120,
          "midi": 55,
          "name": "G3",
          "ticks": 484080,
          "time": 1467.2028640666667,
          "velocity": 0.7874015748031497
        },
        {
          "duration": 0.3125,
          "durationTicks": 60,
          "midi": 54,
          "name": "F#3",
          "ticks": 484200,
          "time": 1467.8278640666667,
          "velocity": 0.7874015748031497
        },
        {
          "duration": 0.3125,
          "durationTicks": 60,
          "midi": 55,
          "name": "G3",
          "ticks": 484260,
          "time": 1468.1403640666667,
          "velocity": 0.7874015748031497
        },
        {
          "duration": 0.3125,
          "durationTicks": 60,
          "midi": 57,
          "name": "A3",
          "ticks": 484320,
          "time": 1468.4528640666667,
          "velocity": 0.7874015748031497
        },
        {
          "duration": 0.3125,
          "durationTicks": 60,
          "midi": 54,
          "name": "F#3",
          "ticks": 484380,
          "time": 1468.7653640666667,
          "velocity": 0.7874015748031497
        },
        {
          "duration": 0.3125,
          "durationTicks": 60,
          "midi": 55,
          "name": "G3",
          "ticks": 484440,
          "time": 1469.0778640666667,
          "velocity": 0.7874015748031497
        },
        {
          "duration": 0.3125,
          "durationTicks": 60,
          "midi": 52,
          "name": "E3",
          "ticks": 484500,
          "time": 1469.3903640666667,
          "velocity": 0.7874015748031497
        },
        {
          "duration": 2.5,
          "durationTicks": 480,
          "midi": 50,
          "name": "D3",
          "ticks": 484560,
          "time": 1469.7028640666667,
          "velocity": 0.7874015748031497
        },
        {
          "duration": 1.25,
          "durationTicks": 240,
          "midi": 62,
          "name": "D4",
          "ticks": 485040,
          "time": 1472.2028640666667,
          "velocity": 0.7874015748031497
        },
        {
          "duration": 1.25,
          "durationTicks": 240,
          "midi": 62,
          "name": "D4",
          "ticks": 485280,
          "time": 1473.4528640666667,
          "velocity": 0.7874015748031497
        },
        {
          "duration": 0.9375,
          "durationTicks": 180,
          "midi": 64,
          "name": "E4",
          "ticks": 485520,
          "time": 1474.7028640666667,
          "velocity": 0.7874015748031497
        },
        {
          "duration": 0.3125,
          "durationTicks": 60,
          "midi": 65,
          "name": "F4",
          "ticks": 485700,
          "time": 1475.6403640666667,
          "velocity": 0.7874015748031497
        },
        {
          "duration": 0.625,
          "durationTicks": 120,
          "midi": 64,
          "name": "E4",
          "ticks": 485760,
          "time": 1475.9528640666667,
          "velocity": 0.7874015748031497
        },
        {
          "duration": 0.625,
          "durationTicks": 120,
          "midi": 60,
          "name": "C4",
          "ticks": 485880,
          "time": 1476.5778640666667,
          "velocity": 0.7874015748031497
        },
        {
          "duration": 1.875,
          "durationTicks": 360,
          "midi": 57,
          "name": "A3",
          "ticks": 486000,
          "time": 1477.2028640666667,
          "velocity": 0.7874015748031497
        },
        {
          "duration": 0.625,
          "durationTicks": 120,
          "midi": 66,
          "name": "F#4",
          "ticks": 486360,
          "time": 1479.0778640666667,
          "velocity": 0.7874015748031497
        },
        {
          "duration": 0.625,
          "durationTicks": 120,
          "midi": 67,
          "name": "G4",
          "ticks": 486480,
          "time": 1479.7028640666667,
          "velocity": 0.7874015748031497
        },
        {
          "duration": 0.625,
          "durationTicks": 120,
          "midi": 69,
          "name": "A4",
          "ticks": 486600,
          "time": 1480.3278640666667,
          "velocity": 0.7874015748031497
        },
        {
          "duration": 0.625,
          "durationTicks": 120,
          "midi": 66,
          "name": "F#4",
          "ticks": 486720,
          "time": 1480.9528640666667,
          "velocity": 0.7874015748031497
        },
        {
          "duration": 0.625,
          "durationTicks": 120,
          "midi": 62,
          "name": "D4",
          "ticks": 486840,
          "time": 1481.5778640666667,
          "velocity": 0.7874015748031497
        },
        {
          "duration": 0.625,
          "durationTicks": 120,
          "midi": 69,
          "name": "A4",
          "ticks": 486960,
          "time": 1482.2028640666667,
          "velocity": 0.7874015748031497
        },
        {
          "duration": 0.625,
          "durationTicks": 120,
          "midi": 60,
          "name": "C4",
          "ticks": 487080,
          "time": 1482.8278640666667,
          "velocity": 0.7874015748031497
        },
        {
          "duration": 0.625,
          "durationTicks": 120,
          "midi": 59,
          "name": "B3",
          "ticks": 487200,
          "time": 1483.4528640666667,
          "velocity": 0.7874015748031497
        },
        {
          "duration": 0.625,
          "durationTicks": 120,
          "midi": 54,
          "name": "F#3",
          "ticks": 487320,
          "time": 1484.0778640666667,
          "velocity": 0.7874015748031497
        },
        {
          "duration": 1.875,
          "durationTicks": 360,
          "midi": 55,
          "name": "G3",
          "ticks": 487440,
          "time": 1484.7028640666667,
          "velocity": 0.7874015748031497
        },
        {
          "duration": 1.25,
          "durationTicks": 240,
          "midi": 59,
          "name": "B3",
          "ticks": 487920,
          "time": 1487.2028640666667,
          "velocity": 0.7874015748031497
        },
        {
          "duration": 1.25,
          "durationTicks": 240,
          "midi": 59,
          "name": "B3",
          "ticks": 488160,
          "time": 1488.4528640666667,
          "velocity": 0.7874015748031497
        },
        {
          "duration": 0.9375,
          "durationTicks": 180,
          "midi": 61,
          "name": "C#4",
          "ticks": 488400,
          "time": 1489.7028640666667,
          "velocity": 0.7874015748031497
        },
        {
          "duration": 0.3125,
          "durationTicks": 60,
          "midi": 62,
          "name": "D4",
          "ticks": 488580,
          "time": 1490.6403640666667,
          "velocity": 0.7874015748031497
        },
        {
          "duration": 0.3125,
          "durationTicks": 60,
          "midi": 62,
          "name": "D4",
          "ticks": 488640,
          "time": 1490.9528640666667,
          "velocity": 0.7874015748031497
        },
        {
          "duration": 0.3125,
          "durationTicks": 60,
          "midi": 61,
          "name": "C#4",
          "ticks": 488700,
          "time": 1491.2653640666667,
          "velocity": 0.7874015748031497
        },
        {
          "duration": 0.3125,
          "durationTicks": 60,
          "midi": 59,
          "name": "B3",
          "ticks": 488760,
          "time": 1491.5778640666667,
          "velocity": 0.7874015748031497
        },
        {
          "duration": 0.3125,
          "durationTicks": 60,
          "midi": 57,
          "name": "A3",
          "ticks": 488820,
          "time": 1491.8903640666667,
          "velocity": 0.7874015748031497
        },
        {
          "duration": 2.03125,
          "durationTicks": 390,
          "midi": 62,
          "name": "D4",
          "ticks": 488880,
          "time": 1492.2028640666667,
          "velocity": 0.7874015748031497
        },
        {
          "duration": 0.15625,
          "durationTicks": 30,
          "midi": 55,
          "name": "G3",
          "ticks": 489270,
          "time": 1494.2341140666667,
          "velocity": 0.7874015748031497
        },
        {
          "duration": 0.15625,
          "durationTicks": 30,
          "midi": 59,
          "name": "B3",
          "ticks": 489300,
          "time": 1494.3903640666667,
          "velocity": 0.7874015748031497
        },
        {
          "duration": 0.15625,
          "durationTicks": 30,
          "midi": 64,
          "name": "E4",
          "ticks": 489330,
          "time": 1494.5466140666667,
          "velocity": 0.7874015748031497
        },
        {
          "duration": 1.25,
          "durationTicks": 240,
          "midi": 67,
          "name": "G4",
          "ticks": 489360,
          "time": 1494.7028640666667,
          "velocity": 0.7874015748031497
        },
        {
          "duration": 1.875,
          "durationTicks": 360,
          "midi": 67,
          "name": "G4",
          "ticks": 489600,
          "time": 1495.9528640666667,
          "velocity": 0.7874015748031497
        },
        {
          "duration": 0.3125,
          "durationTicks": 60,
          "midi": 66,
          "name": "F#4",
          "ticks": 489960,
          "time": 1497.8278640666667,
          "velocity": 0.7874015748031497
        },
        {
          "duration": 0.3125,
          "durationTicks": 60,
          "midi": 67,
          "name": "G4",
          "ticks": 490020,
          "time": 1498.1403640666667,
          "velocity": 0.7874015748031497
        },
        {
          "duration": 0.625,
          "durationTicks": 120,
          "midi": 67,
          "name": "G4",
          "ticks": 490080,
          "time": 1498.4528640666667,
          "velocity": 0.7874015748031497
        },
        {
          "duration": 0.625,
          "durationTicks": 120,
          "midi": 64,
          "name": "E4",
          "ticks": 490200,
          "time": 1499.0778640666667,
          "velocity": 0.7874015748031497
        },
        {
          "duration": 1.875,
          "durationTicks": 360,
          "midi": 61,
          "name": "C#4",
          "ticks": 490320,
          "time": 1499.7028640666667,
          "velocity": 0.7874015748031497
        },
        {
          "duration": 0.625,
          "durationTicks": 120,
          "midi": 64,
          "name": "E4",
          "ticks": 490680,
          "time": 1501.5778640666667,
          "velocity": 0.7874015748031497
        },
        {
          "duration": 0.3125,
          "durationTicks": 60,
          "midi": 69,
          "name": "A4",
          "ticks": 490800,
          "time": 1502.2028640666667,
          "velocity": 0.7874015748031497
        },
        {
          "duration": 0.3125,
          "durationTicks": 60,
          "midi": 67,
          "name": "G4",
          "ticks": 490860,
          "time": 1502.5153640666667,
          "velocity": 0.7874015748031497
        },
        {
          "duration": 0.3125,
          "durationTicks": 60,
          "midi": 66,
          "name": "F#4",
          "ticks": 490920,
          "time": 1502.8278640666667,
          "velocity": 0.7874015748031497
        },
        {
          "duration": 0.3125,
          "durationTicks": 60,
          "midi": 64,
          "name": "E4",
          "ticks": 490980,
          "time": 1503.1403640666667,
          "velocity": 0.7874015748031497
        },
        {
          "duration": 0.625,
          "durationTicks": 120,
          "midi": 62,
          "name": "D4",
          "ticks": 491040,
          "time": 1503.4528640666667,
          "velocity": 0.7874015748031497
        },
        {
          "duration": 0.9375,
          "durationTicks": 180,
          "midi": 57,
          "name": "A3",
          "ticks": 491160,
          "time": 1504.0778640666667,
          "velocity": 0.7874015748031497
        },
        {
          "duration": 0.3125,
          "durationTicks": 60,
          "midi": 59,
          "name": "B3",
          "ticks": 491340,
          "time": 1505.0153640666667,
          "velocity": 0.7874015748031497
        },
        {
          "duration": 0.625,
          "durationTicks": 120,
          "midi": 60,
          "name": "C4",
          "ticks": 491400,
          "time": 1505.3278640666667,
          "velocity": 0.7874015748031497
        },
        {
          "duration": 0.3125,
          "durationTicks": 60,
          "midi": 59,
          "name": "B3",
          "ticks": 491520,
          "time": 1505.9528640666667,
          "velocity": 0.7874015748031497
        },
        {
          "duration": 0.3125,
          "durationTicks": 60,
          "midi": 57,
          "name": "A3",
          "ticks": 491580,
          "time": 1506.2653640666667,
          "velocity": 0.7874015748031497
        },
        {
          "duration": 0.3125,
          "durationTicks": 60,
          "midi": 55,
          "name": "G3",
          "ticks": 491640,
          "time": 1506.5778640666667,
          "velocity": 0.7874015748031497
        },
        {
          "duration": 0.3125,
          "durationTicks": 60,
          "midi": 54,
          "name": "F#3",
          "ticks": 491700,
          "time": 1506.8903640666667,
          "velocity": 0.7874015748031497
        },
        {
          "duration": 0.625,
          "durationTicks": 120,
          "midi": 52,
          "name": "E3",
          "ticks": 491760,
          "time": 1507.2028640666667,
          "velocity": 0.7874015748031497
        },
        {
          "duration": 0.9375,
          "durationTicks": 180,
          "midi": 61,
          "name": "C#4",
          "ticks": 491880,
          "time": 1507.8278640666667,
          "velocity": 0.7874015748031497
        },
        {
          "duration": 0.3125,
          "durationTicks": 60,
          "midi": 62,
          "name": "D4",
          "ticks": 492060,
          "time": 1508.7653640666667,
          "velocity": 0.7874015748031497
        },
        {
          "duration": 0.625,
          "durationTicks": 120,
          "midi": 64,
          "name": "E4",
          "ticks": 492120,
          "time": 1509.0778640666667,
          "velocity": 0.7874015748031497
        },
        {
          "duration": 0.3125,
          "durationTicks": 60,
          "midi": 62,
          "name": "D4",
          "ticks": 492240,
          "time": 1509.7028640666667,
          "velocity": 0.7874015748031497
        },
        {
          "duration": 0.3125,
          "durationTicks": 60,
          "midi": 61,
          "name": "C#4",
          "ticks": 492300,
          "time": 1510.0153640666667,
          "velocity": 0.7874015748031497
        },
        {
          "duration": 0.3125,
          "durationTicks": 60,
          "midi": 59,
          "name": "B3",
          "ticks": 492360,
          "time": 1510.3278640666667,
          "velocity": 0.7874015748031497
        },
        {
          "duration": 0.3125,
          "durationTicks": 60,
          "midi": 57,
          "name": "A3",
          "ticks": 492420,
          "time": 1510.6403640666667,
          "velocity": 0.7874015748031497
        },
        {
          "duration": 0.625,
          "durationTicks": 120,
          "midi": 67,
          "name": "G4",
          "ticks": 492480,
          "time": 1510.9528640666667,
          "velocity": 0.7874015748031497
        },
        {
          "duration": 1.25,
          "durationTicks": 240,
          "midi": 59,
          "name": "B3",
          "ticks": 492600,
          "time": 1511.5778640666667,
          "velocity": 0.7874015748031497
        },
        {
          "duration": 0.625,
          "durationTicks": 120,
          "midi": 61,
          "name": "C#4",
          "ticks": 492840,
          "time": 1512.8278640666667,
          "velocity": 0.7874015748031497
        },
        {
          "duration": 3.75,
          "durationTicks": 720,
          "midi": 62,
          "name": "D4",
          "ticks": 492960,
          "time": 1513.4528640666667,
          "velocity": 0.7874015748031497
        },
        {
          "duration": 1.25,
          "durationTicks": 240,
          "midi": 57,
          "name": "A3",
          "ticks": 493680,
          "time": 1517.2028640666667,
          "velocity": 0.7874015748031497
        },
        {
          "duration": 1.875,
          "durationTicks": 360,
          "midi": 57,
          "name": "A3",
          "ticks": 493920,
          "time": 1518.4528640666667,
          "velocity": 0.7874015748031497
        },
        {
          "duration": 0.625,
          "durationTicks": 120,
          "midi": 64,
          "name": "E4",
          "ticks": 494280,
          "time": 1520.3278640666667,
          "velocity": 0.7874015748031497
        },
        {
          "duration": 0.625,
          "durationTicks": 120,
          "midi": 62,
          "name": "D4",
          "ticks": 494400,
          "time": 1520.9528640666667,
          "velocity": 0.7874015748031497
        },
        {
          "duration": 0.625,
          "durationTicks": 120,
          "midi": 59,
          "name": "B3",
          "ticks": 494520,
          "time": 1521.5778640666667,
          "velocity": 0.7874015748031497
        },
        {
          "duration": 1.875,
          "durationTicks": 360,
          "midi": 55,
          "name": "G3",
          "ticks": 494640,
          "time": 1522.2028640666667,
          "velocity": 0.7874015748031497
        },
        {
          "duration": 0.625,
          "durationTicks": 120,
          "midi": 67,
          "name": "G4",
          "ticks": 495000,
          "time": 1524.0778640666667,
          "velocity": 0.7874015748031497
        },
        {
          "duration": 0.9375,
          "durationTicks": 180,
          "midi": 64,
          "name": "E4",
          "ticks": 495120,
          "time": 1524.7028640666667,
          "velocity": 0.7874015748031497
        },
        {
          "duration": 0.15625,
          "durationTicks": 30,
          "midi": 66,
          "name": "F#4",
          "ticks": 495300,
          "time": 1525.6403640666667,
          "velocity": 0.7874015748031497
        },
        {
          "duration": 0.15625,
          "durationTicks": 30,
          "midi": 63,
          "name": "D#4",
          "ticks": 495330,
          "time": 1525.7966140666667,
          "velocity": 0.7874015748031497
        },
        {
          "duration": 1.875,
          "durationTicks": 360,
          "midi": 64,
          "name": "E4",
          "ticks": 495360,
          "time": 1525.9528640666667,
          "velocity": 0.7874015748031497
        },
        {
          "duration": 0.625,
          "durationTicks": 120,
          "midi": 69,
          "name": "A4",
          "ticks": 495720,
          "time": 1527.8278640666667,
          "velocity": 0.7874015748031497
        },
        {
          "duration": 0.9375,
          "durationTicks": 180,
          "midi": 69,
          "name": "A4",
          "ticks": 495840,
          "time": 1528.4528640666667,
          "velocity": 0.7874015748031497
        },
        {
          "duration": 0.3125,
          "durationTicks": 60,
          "midi": 66,
          "name": "F#4",
          "ticks": 496020,
          "time": 1529.3903640666667,
          "velocity": 0.7874015748031497
        },
        {
          "duration": 1.875,
          "durationTicks": 360,
          "midi": 63,
          "name": "D#4",
          "ticks": 496080,
          "time": 1529.7028640666667,
          "velocity": 0.7874015748031497
        },
        {
          "duration": 0.625,
          "durationTicks": 120,
          "midi": 59,
          "name": "B3",
          "ticks": 496440,
          "time": 1531.5778640666667,
          "velocity": 0.7874015748031497
        },
        {
          "duration": 0.9375,
          "durationTicks": 180,
          "midi": 67,
          "name": "G4",
          "ticks": 496560,
          "time": 1532.2028640666667,
          "velocity": 0.7874015748031497
        },
        {
          "duration": 0.3125,
          "durationTicks": 60,
          "midi": 66,
          "name": "F#4",
          "ticks": 496740,
          "time": 1533.1403640666667,
          "velocity": 0.7874015748031497
        },
        {
          "duration": 1.875,
          "durationTicks": 360,
          "midi": 64,
          "name": "E4",
          "ticks": 496800,
          "time": 1533.4528640666667,
          "velocity": 0.7874015748031497
        },
        {
          "duration": 0.625,
          "durationTicks": 120,
          "midi": 59,
          "name": "B3",
          "ticks": 497160,
          "time": 1535.3278640666667,
          "velocity": 0.7874015748031497
        },
        {
          "duration": 0.9375,
          "durationTicks": 180,
          "midi": 67,
          "name": "G4",
          "ticks": 497280,
          "time": 1535.9528640666667,
          "velocity": 0.7874015748031497
        },
        {
          "duration": 0.3125,
          "durationTicks": 60,
          "midi": 63,
          "name": "D#4",
          "ticks": 497460,
          "time": 1536.8903640666667,
          "velocity": 0.7874015748031497
        },
        {
          "duration": 1.875,
          "durationTicks": 360,
          "midi": 64,
          "name": "E4",
          "ticks": 497520,
          "time": 1537.2028640666667,
          "velocity": 0.7874015748031497
        },
        {
          "duration": 0.625,
          "durationTicks": 120,
          "midi": 55,
          "name": "G3",
          "ticks": 497880,
          "time": 1539.0778640666667,
          "velocity": 0.7874015748031497
        },
        {
          "duration": 0.9375,
          "durationTicks": 180,
          "midi": 54,
          "name": "F#3",
          "ticks": 498000,
          "time": 1539.7028640666667,
          "velocity": 0.7874015748031497
        },
        {
          "duration": 0.3125,
          "durationTicks": 60,
          "midi": 64,
          "name": "E4",
          "ticks": 498180,
          "time": 1540.6403640666667,
          "velocity": 0.7874015748031497
        },
        {
          "duration": 0.625,
          "durationTicks": 120,
          "midi": 63,
          "name": "D#4",
          "ticks": 498240,
          "time": 1540.9528640666667,
          "velocity": 0.7874015748031497
        },
        {
          "duration": 0.625,
          "durationTicks": 120,
          "midi": 60,
          "name": "C4",
          "ticks": 498360,
          "time": 1541.5778640666667,
          "velocity": 0.7874015748031497
        },
        {
          "duration": 0.625,
          "durationTicks": 120,
          "midi": 69,
          "name": "A4",
          "ticks": 498360,
          "time": 1541.5778640666667,
          "velocity": 0.7874015748031497
        },
        {
          "duration": 0.625,
          "durationTicks": 120,
          "midi": 59,
          "name": "B3",
          "ticks": 498480,
          "time": 1542.2028640666667,
          "velocity": 0.7874015748031497
        },
        {
          "duration": 0.625,
          "durationTicks": 120,
          "midi": 67,
          "name": "G4",
          "ticks": 498480,
          "time": 1542.2028640666667,
          "velocity": 0.7874015748031497
        },
        {
          "duration": 0.625,
          "durationTicks": 120,
          "midi": 57,
          "name": "A3",
          "ticks": 498600,
          "time": 1542.8278640666667,
          "velocity": 0.7874015748031497
        },
        {
          "duration": 0.625,
          "durationTicks": 120,
          "midi": 66,
          "name": "F#4",
          "ticks": 498600,
          "time": 1542.8278640666667,
          "velocity": 0.7874015748031497
        },
        {
          "duration": 3.75,
          "durationTicks": 720,
          "midi": 64,
          "name": "E4",
          "ticks": 498720,
          "time": 1543.4528640666667,
          "velocity": 0.7874015748031497
        },
        {
          "duration": 0.625,
          "durationTicks": 120,
          "midi": 64,
          "name": "E4",
          "ticks": 499440,
          "time": 1547.2028640666667,
          "velocity": 0.7874015748031497
        },
        {
          "duration": 0.625,
          "durationTicks": 120,
          "midi": 60,
          "name": "C4",
          "ticks": 499560,
          "time": 1547.8278640666667,
          "velocity": 0.7874015748031497
        },
        {
          "duration": 1.5625,
          "durationTicks": 300,
          "midi": 57,
          "name": "A3",
          "ticks": 499680,
          "time": 1548.4528640666667,
          "velocity": 0.7874015748031497
        },
        {
          "duration": 0.3125,
          "durationTicks": 60,
          "midi": 59,
          "name": "B3",
          "ticks": 499980,
          "time": 1550.0153640666667,
          "velocity": 0.7874015748031497
        },
        {
          "duration": 0.625,
          "durationTicks": 120,
          "midi": 60,
          "name": "C4",
          "ticks": 500040,
          "time": 1550.3278640666667,
          "velocity": 0.7874015748031497
        },
        {
          "duration": 0.3125,
          "durationTicks": 60,
          "midi": 62,
          "name": "D4",
          "ticks": 500160,
          "time": 1550.9528640666667,
          "velocity": 0.7874015748031497
        },
        {
          "duration": 0.3125,
          "durationTicks": 60,
          "midi": 59,
          "name": "B3",
          "ticks": 500220,
          "time": 1551.2653640666667,
          "velocity": 0.7874015748031497
        },
        {
          "duration": 0.3125,
          "durationTicks": 60,
          "midi": 60,
          "name": "C4",
          "ticks": 500280,
          "time": 1551.5778640666667,
          "velocity": 0.7874015748031497
        },
        {
          "duration": 0.3125,
          "durationTicks": 60,
          "midi": 57,
          "name": "A3",
          "ticks": 500340,
          "time": 1551.8903640666667,
          "velocity": 0.7874015748031497
        },
        {
          "duration": 1.875,
          "durationTicks": 360,
          "midi": 55,
          "name": "G3",
          "ticks": 500400,
          "time": 1552.2028640666667,
          "velocity": 0.7874015748031497
        },
        {
          "duration": 0.3125,
          "durationTicks": 60,
          "midi": 57,
          "name": "A3",
          "ticks": 500760,
          "time": 1554.0778640666667,
          "velocity": 0.7874015748031497
        },
        {
          "duration": 0.3125,
          "durationTicks": 60,
          "midi": 59,
          "name": "B3",
          "ticks": 500820,
          "time": 1554.3903640666667,
          "velocity": 0.7874015748031497
        },
        {
          "duration": 0.9375,
          "durationTicks": 180,
          "midi": 60,
          "name": "C4",
          "ticks": 500880,
          "time": 1554.7028640666667,
          "velocity": 0.7874015748031497
        },
        {
          "duration": 0.3125,
          "durationTicks": 60,
          "midi": 59,
          "name": "B3",
          "ticks": 501060,
          "time": 1555.6403640666667,
          "velocity": 0.7874015748031497
        },
        {
          "duration": 0.9375,
          "durationTicks": 180,
          "midi": 60,
          "name": "C4",
          "ticks": 501120,
          "time": 1555.9528640666667,
          "velocity": 0.7874015748031497
        },
        {
          "duration": 0.3125,
          "durationTicks": 60,
          "midi": 52,
          "name": "E3",
          "ticks": 501300,
          "time": 1556.8903640666667,
          "velocity": 0.7874015748031497
        },
        {
          "duration": 1.5625,
          "durationTicks": 300,
          "midi": 60,
          "name": "C4",
          "ticks": 501360,
          "time": 1557.2028640666667,
          "velocity": 0.7874015748031497
        },
        {
          "duration": 0.3125,
          "durationTicks": 60,
          "midi": 62,
          "name": "D4",
          "ticks": 501660,
          "time": 1558.7653640666667,
          "velocity": 0.7874015748031497
        },
        {
          "duration": 0.3125,
          "durationTicks": 60,
          "midi": 60,
          "name": "C4",
          "ticks": 501720,
          "time": 1559.0778640666667,
          "velocity": 0.7874015748031497
        },
        {
          "duration": 0.3125,
          "durationTicks": 60,
          "midi": 59,
          "name": "B3",
          "ticks": 501780,
          "time": 1559.3903640666667,
          "velocity": 0.7874015748031497
        },
        {
          "duration": 0.3125,
          "durationTicks": 60,
          "midi": 60,
          "name": "C4",
          "ticks": 501840,
          "time": 1559.7028640666667,
          "velocity": 0.7874015748031497
        },
        {
          "duration": 0.3125,
          "durationTicks": 60,
          "midi": 57,
          "name": "A3",
          "ticks": 501900,
          "time": 1560.0153640666667,
          "velocity": 0.7874015748031497
        },
        {
          "duration": 0.3125,
          "durationTicks": 60,
          "midi": 54,
          "name": "F#3",
          "ticks": 501960,
          "time": 1560.3278640666667,
          "velocity": 0.7874015748031497
        },
        {
          "duration": 0.3125,
          "durationTicks": 60,
          "midi": 57,
          "name": "A3",
          "ticks": 502020,
          "time": 1560.6403640666667,
          "velocity": 0.7874015748031497
        },
        {
          "duration": 0.3125,
          "durationTicks": 60,
          "midi": 60,
          "name": "C4",
          "ticks": 502080,
          "time": 1560.9528640666667,
          "velocity": 0.7874015748031497
        },
        {
          "duration": 0.3125,
          "durationTicks": 60,
          "midi": 64,
          "name": "E4",
          "ticks": 502140,
          "time": 1561.2653640666667,
          "velocity": 0.7874015748031497
        },
        {
          "duration": 0.3125,
          "durationTicks": 60,
          "midi": 62,
          "name": "D4",
          "ticks": 502200,
          "time": 1561.5778640666667,
          "velocity": 0.7874015748031497
        },
        {
          "duration": 0.3125,
          "durationTicks": 60,
          "midi": 60,
          "name": "C4",
          "ticks": 502260,
          "time": 1561.8903640666667,
          "velocity": 0.7874015748031497
        },
        {
          "duration": 0.3125,
          "durationTicks": 60,
          "midi": 59,
          "name": "B3",
          "ticks": 502320,
          "time": 1562.2028640666667,
          "velocity": 0.7874015748031497
        },
        {
          "duration": 0.3125,
          "durationTicks": 60,
          "midi": 60,
          "name": "C4",
          "ticks": 502380,
          "time": 1562.5153640666667,
          "velocity": 0.7874015748031497
        },
        {
          "duration": 0.3125,
          "durationTicks": 60,
          "midi": 59,
          "name": "B3",
          "ticks": 502440,
          "time": 1562.8278640666667,
          "velocity": 0.7874015748031497
        },
        {
          "duration": 0.3125,
          "durationTicks": 60,
          "midi": 57,
          "name": "A3",
          "ticks": 502500,
          "time": 1563.1403640666667,
          "velocity": 0.7874015748031497
        },
        {
          "duration": 0.3125,
          "durationTicks": 60,
          "midi": 59,
          "name": "B3",
          "ticks": 502560,
          "time": 1563.4528640666667,
          "velocity": 0.7874015748031497
        },
        {
          "duration": 0.3125,
          "durationTicks": 60,
          "midi": 55,
          "name": "G3",
          "ticks": 502620,
          "time": 1563.7653640666667,
          "velocity": 0.7874015748031497
        },
        {
          "duration": 0.3125,
          "durationTicks": 60,
          "midi": 50,
          "name": "D3",
          "ticks": 502680,
          "time": 1564.0778640666667,
          "velocity": 0.7874015748031497
        },
        {
          "duration": 0.3125,
          "durationTicks": 60,
          "midi": 55,
          "name": "G3",
          "ticks": 502740,
          "time": 1564.3903640666667,
          "velocity": 0.7874015748031497
        },
        {
          "duration": 0.3125,
          "durationTicks": 60,
          "midi": 59,
          "name": "B3",
          "ticks": 502800,
          "time": 1564.7028640666667,
          "velocity": 0.7874015748031497
        },
        {
          "duration": 0.3125,
          "durationTicks": 60,
          "midi": 55,
          "name": "G3",
          "ticks": 502860,
          "time": 1565.0153640666667,
          "velocity": 0.7874015748031497
        },
        {
          "duration": 0.3125,
          "durationTicks": 60,
          "midi": 60,
          "name": "C4",
          "ticks": 502920,
          "time": 1565.3278640666667,
          "velocity": 0.7874015748031497
        },
        {
          "duration": 0.3125,
          "durationTicks": 60,
          "midi": 62,
          "name": "D4",
          "ticks": 502980,
          "time": 1565.6403640666667,
          "velocity": 0.7874015748031497
        },
        {
          "duration": 0.3125,
          "durationTicks": 60,
          "midi": 64,
          "name": "E4",
          "ticks": 503040,
          "time": 1565.9528640666667,
          "velocity": 0.7874015748031497
        },
        {
          "duration": 0.3125,
          "durationTicks": 60,
          "midi": 65,
          "name": "F4",
          "ticks": 503100,
          "time": 1566.2653640666667,
          "velocity": 0.7874015748031497
        },
        {
          "duration": 0.3125,
          "durationTicks": 60,
          "midi": 64,
          "name": "E4",
          "ticks": 503160,
          "time": 1566.5778640666667,
          "velocity": 0.7874015748031497
        },
        {
          "duration": 0.3125,
          "durationTicks": 60,
          "midi": 62,
          "name": "D4",
          "ticks": 503220,
          "time": 1566.8903640666667,
          "velocity": 0.7874015748031497
        },
        {
          "duration": 0.3125,
          "durationTicks": 60,
          "midi": 64,
          "name": "E4",
          "ticks": 503280,
          "time": 1567.2028640666667,
          "velocity": 0.7874015748031497
        },
        {
          "duration": 0.3125,
          "durationTicks": 60,
          "midi": 60,
          "name": "C4",
          "ticks": 503340,
          "time": 1567.5153640666667,
          "velocity": 0.7874015748031497
        },
        {
          "duration": 0.3125,
          "durationTicks": 60,
          "midi": 55,
          "name": "G3",
          "ticks": 503400,
          "time": 1567.8278640666667,
          "velocity": 0.7874015748031497
        },
        {
          "duration": 0.3125,
          "durationTicks": 60,
          "midi": 60,
          "name": "C4",
          "ticks": 503460,
          "time": 1568.1403640666667,
          "velocity": 0.7874015748031497
        },
        {
          "duration": 0.3125,
          "durationTicks": 60,
          "midi": 64,
          "name": "E4",
          "ticks": 503520,
          "time": 1568.4528640666667,
          "velocity": 0.7874015748031497
        },
        {
          "duration": 0.3125,
          "durationTicks": 60,
          "midi": 60,
          "name": "C4",
          "ticks": 503580,
          "time": 1568.7653640666667,
          "velocity": 0.7874015748031497
        },
        {
          "duration": 0.3125,
          "durationTicks": 60,
          "midi": 66,
          "name": "F#4",
          "ticks": 503640,
          "time": 1569.0778640666667,
          "velocity": 0.7874015748031497
        },
        {
          "duration": 0.3125,
          "durationTicks": 60,
          "midi": 67,
          "name": "G4",
          "ticks": 503700,
          "time": 1569.3903640666667,
          "velocity": 0.7874015748031497
        },
        {
          "duration": 0.3125,
          "durationTicks": 60,
          "midi": 69,
          "name": "A4",
          "ticks": 503760,
          "time": 1569.7028640666667,
          "velocity": 0.7874015748031497
        },
        {
          "duration": 0.3125,
          "durationTicks": 60,
          "midi": 60,
          "name": "C4",
          "ticks": 503820,
          "time": 1570.0153640666667,
          "velocity": 0.7874015748031497
        },
        {
          "duration": 0.3125,
          "durationTicks": 60,
          "midi": 59,
          "name": "B3",
          "ticks": 503880,
          "time": 1570.3278640666667,
          "velocity": 0.7874015748031497
        },
        {
          "duration": 0.3125,
          "durationTicks": 60,
          "midi": 57,
          "name": "A3",
          "ticks": 503940,
          "time": 1570.6403640666667,
          "velocity": 0.7874015748031497
        },
        {
          "duration": 0.3125,
          "durationTicks": 60,
          "midi": 59,
          "name": "B3",
          "ticks": 504000,
          "time": 1570.9528640666667,
          "velocity": 0.7874015748031497
        },
        {
          "duration": 0.3125,
          "durationTicks": 60,
          "midi": 60,
          "name": "C4",
          "ticks": 504060,
          "time": 1571.2653640666667,
          "velocity": 0.7874015748031497
        },
        {
          "duration": 0.3125,
          "durationTicks": 60,
          "midi": 62,
          "name": "D4",
          "ticks": 504120,
          "time": 1571.5778640666667,
          "velocity": 0.7874015748031497
        },
        {
          "duration": 0.3125,
          "durationTicks": 60,
          "midi": 55,
          "name": "G3",
          "ticks": 504180,
          "time": 1571.8903640666667,
          "velocity": 0.7874015748031497
        },
        {
          "duration": 0.3125,
          "durationTicks": 60,
          "midi": 59,
          "name": "B3",
          "ticks": 504240,
          "time": 1572.2028640666667,
          "velocity": 0.7874015748031497
        },
        {
          "duration": 0.3125,
          "durationTicks": 60,
          "midi": 57,
          "name": "A3",
          "ticks": 504300,
          "time": 1572.5153640666667,
          "velocity": 0.7874015748031497
        },
        {
          "duration": 0.3125,
          "durationTicks": 60,
          "midi": 55,
          "name": "G3",
          "ticks": 504360,
          "time": 1572.8278640666667,
          "velocity": 0.7874015748031497
        },
        {
          "duration": 0.3125,
          "durationTicks": 60,
          "midi": 54,
          "name": "F#3",
          "ticks": 504420,
          "time": 1573.1403640666667,
          "velocity": 0.7874015748031497
        },
        {
          "duration": 1.5625,
          "durationTicks": 300,
          "midi": 55,
          "name": "G3",
          "ticks": 504480,
          "time": 1573.4528640666667,
          "velocity": 0.7874015748031497
        },
        {
          "duration": 0.3125,
          "durationTicks": 60,
          "midi": 50,
          "name": "D3",
          "ticks": 504780,
          "time": 1575.0153640666667,
          "velocity": 0.7874015748031497
        },
        {
          "duration": 0.3125,
          "durationTicks": 60,
          "midi": 55,
          "name": "G3",
          "ticks": 504840,
          "time": 1575.3278640666667,
          "velocity": 0.7874015748031497
        },
        {
          "duration": 0.3125,
          "durationTicks": 60,
          "midi": 54,
          "name": "F#3",
          "ticks": 504900,
          "time": 1575.6403640666667,
          "velocity": 0.7874015748031497
        },
        {
          "duration": 1.5625,
          "durationTicks": 300,
          "midi": 55,
          "name": "G3",
          "ticks": 504960,
          "time": 1575.9528640666667,
          "velocity": 0.7874015748031497
        },
        {
          "duration": 0.3125,
          "durationTicks": 60,
          "midi": 50,
          "name": "D3",
          "ticks": 505260,
          "time": 1577.5153640666667,
          "velocity": 0.7874015748031497
        },
        {
          "duration": 0.3125,
          "durationTicks": 60,
          "midi": 55,
          "name": "G3",
          "ticks": 505320,
          "time": 1577.8278640666667,
          "velocity": 0.7874015748031497
        },
        {
          "duration": 0.3125,
          "durationTicks": 60,
          "midi": 54,
          "name": "F#3",
          "ticks": 505380,
          "time": 1578.1403640666667,
          "velocity": 0.7874015748031497
        },
        {
          "duration": 1.5625,
          "durationTicks": 300,
          "midi": 55,
          "name": "G3",
          "ticks": 505440,
          "time": 1578.4528640666667,
          "velocity": 0.7874015748031497
        },
        {
          "duration": 0.3125,
          "durationTicks": 60,
          "midi": 50,
          "name": "D3",
          "ticks": 505740,
          "time": 1580.0153640666667,
          "velocity": 0.7874015748031497
        },
        {
          "duration": 0.3125,
          "durationTicks": 60,
          "midi": 55,
          "name": "G3",
          "ticks": 505800,
          "time": 1580.3278640666667,
          "velocity": 0.7874015748031497
        },
        {
          "duration": 0.3125,
          "durationTicks": 60,
          "midi": 54,
          "name": "F#3",
          "ticks": 505860,
          "time": 1580.6403640666667,
          "velocity": 0.7874015748031497
        },
        {
          "duration": 3.75,
          "durationTicks": 720,
          "midi": 55,
          "name": "G3",
          "ticks": 505920,
          "time": 1580.9528640666667,
          "velocity": 0.7874015748031497
        }
      ],
      "endOfTrackTicks": 506640
    },
    {
      "channel": 1,
      "controlChanges": {
        "0": [
          {
            "number": 0,
            "ticks": 0,
            "time": 0,
            "value": 0
          }
        ],
        "7": [
          {
            "number": 7,
            "ticks": 0,
            "time": 0,
            "value": 0.7874015748031497
          },
          {
            "number": 7,
            "ticks": 23040,
            "time": 90,
            "value": 0.7874015748031497
          },
          {
            "number": 7,
            "ticks": 46080,
            "time": 135.0078125,
            "value": 0.5039370078740157
          },
          {
            "number": 7,
            "ticks": 61680,
            "time": 190.0256165,
            "value": 0.7874015748031497
          },
          {
            "number": 7,
            "ticks": 73560,
            "time": 220.4631165,
            "value": 0.7874015748031497
          },
          {
            "number": 7,
            "ticks": 97320,
            "time": 270.29321250000004,
            "value": 0.7874015748031497
          },
          {
            "number": 7,
            "ticks": 132600,
            "time": 339.7174375,
            "value": 0.9763779527559056
          },
          {
            "number": 7,
            "ticks": 156360,
            "time": 385.8893125,
            "value": 0.8661417322834646
          },
          {
            "number": 7,
            "ticks": 188040,
            "time": 435.3893125,
            "value": 0.7874015748031497
          },
          {
            "number": 7,
            "ticks": 219720,
            "time": 487.0768125,
            "value": 0.6062992125984252
          },
          {
            "number": 7,
            "ticks": 244200,
            "time": 612.6236875,
            "value": 0.9448818897637795
          },
          {
            "number": 7,
            "ticks": 267960,
            "time": 667.9473253666666,
            "value": 0.9448818897637795
          },
          {
            "number": 7,
            "ticks": 284040,
            "time": 791.7825523666666,
            "value": 0.6299212598425197
          },
          {
            "number": 7,
            "ticks": 295920,
            "time": 825.5325433666665,
            "value": 1
          },
          {
            "number": 7,
            "ticks": 318960,
            "time": 885.5334903333332,
            "value": 0.7874015748031497
          },
          {
            "number": 7,
            "ticks": 350640,
            "time": 931.6698423333332,
            "value": 0.5905511811023622
          },
          {
            "number": 7,
            "ticks": 374400,
            "time": 995.4198423333332,
            "value": 0.7874015748031497
          },
          {
            "number": 7,
            "ticks": 399600,
            "time": 1255.9198423333332,
            "value": 0.9448818897637795
          },
          {
            "number": 7,
            "ticks": 423360,
            "time": 1305.6046906333333,
            "value": 0.7874015748031497
          },
          {
            "number": 7,
            "ticks": 447120,
            "time": 1373.1046726333334,
            "value": 0.7874015748031497
          },
          {
            "number": 7,
            "ticks": 466320,
            "time": 1415.9632807333335,
            "value": 0.7874015748031497
          },
          {
            "number": 7,
            "ticks": 482160,
            "time": 1457.2132807333335,
            "value": 0.6299212598425197
          }
        ],
        "32": [
          {
            "number": 32,
            "ticks": 0,
            "time": 0,
            "value": 0
          }
        ]
      },
      "pitchBends": [],
      "instrument": {
        "family": "piano",
        "number": 0,
        "name": "acoustic grand piano"
      },
      "name": "Accoustic Grand Piano",
      "notes": [
        {
          "duration": 0.9375,
          "durationTicks": 240,
          "midi": 62,
          "name": "D4",
          "ticks": 480,
          "time": 1.875,
          "velocity": 0.7874015748031497
        },
        {
          "duration": 0.9375,
          "durationTicks": 240,
          "midi": 62,
          "name": "D4",
          "ticks": 1200,
          "time": 4.6875,
          "velocity": 0.7874015748031497
        },
        {
          "duration": 0.9375,
          "durationTicks": 240,
          "midi": 61,
          "name": "C#4",
          "ticks": 1920,
          "time": 7.5,
          "velocity": 0.7874015748031497
        },
        {
          "duration": 0.9375,
          "durationTicks": 240,
          "midi": 57,
          "name": "A3",
          "ticks": 2640,
          "time": 10.3125,
          "velocity": 0.7874015748031497
        },
        {
          "duration": 0.9375,
          "durationTicks": 240,
          "midi": 55,
          "name": "G3",
          "ticks": 3360,
          "time": 13.125,
          "velocity": 0.7874015748031497
        },
        {
          "duration": 0.9375,
          "durationTicks": 240,
          "midi": 57,
          "name": "A3",
          "ticks": 4080,
          "time": 15.9375,
          "velocity": 0.7874015748031497
        },
        {
          "duration": 0.9375,
          "durationTicks": 240,
          "midi": 60,
          "name": "C4",
          "ticks": 4440,
          "time": 17.34375,
          "velocity": 0.7874015748031497
        },
        {
          "duration": 0.234375,
          "durationTicks": 60,
          "midi": 59,
          "name": "B3",
          "ticks": 4680,
          "time": 18.28125,
          "velocity": 0.7874015748031497
        },
        {
          "duration": 0.234375,
          "durationTicks": 60,
          "midi": 57,
          "name": "A3",
          "ticks": 4740,
          "time": 18.515625,
          "velocity": 0.7874015748031497
        },
        {
          "duration": 0.234375,
          "durationTicks": 60,
          "midi": 55,
          "name": "G3",
          "ticks": 4800,
          "time": 18.75,
          "velocity": 0.7874015748031497
        },
        {
          "duration": 0.234375,
          "durationTicks": 60,
          "midi": 54,
          "name": "F#3",
          "ticks": 4860,
          "time": 18.984375,
          "velocity": 0.7874015748031497
        },
        {
          "duration": 0.234375,
          "durationTicks": 60,
          "midi": 52,
          "name": "E3",
          "ticks": 4920,
          "time": 19.21875,
          "velocity": 0.7874015748031497
        },
        {
          "duration": 0.234375,
          "durationTicks": 60,
          "midi": 54,
          "name": "F#3",
          "ticks": 4980,
          "time": 19.453125,
          "velocity": 0.7874015748031497
        },
        {
          "duration": 0.46875,
          "durationTicks": 120,
          "midi": 55,
          "name": "G3",
          "ticks": 5040,
          "time": 19.6875,
          "velocity": 0.7874015748031497
        },
        {
          "duration": 0.46875,
          "durationTicks": 120,
          "midi": 57,
          "name": "A3",
          "ticks": 5160,
          "time": 20.15625,
          "velocity": 0.7874015748031497
        },
        {
          "duration": 1.875,
          "durationTicks": 480,
          "midi": 59,
          "name": "B3",
          "ticks": 5280,
          "time": 20.625,
          "velocity": 0.7874015748031497
        },
        {
          "duration": 0.9375,
          "durationTicks": 240,
          "midi": 64,
          "name": "E4",
          "ticks": 6240,
          "time": 24.375,
          "velocity": 0.7874015748031497
        },
        {
          "duration": 0.9375,
          "durationTicks": 240,
          "midi": 57,
          "name": "A3",
          "ticks": 6480,
          "time": 25.3125,
          "velocity": 0.7874015748031497
        },
        {
          "duration": 0.46875,
          "durationTicks": 120,
          "midi": 59,
          "name": "B3",
          "ticks": 7320,
          "time": 28.59375,
          "velocity": 0.7874015748031497
        },
        {
          "duration": 1.40625,
          "durationTicks": 360,
          "midi": 64,
          "name": "E4",
          "ticks": 7440,
          "time": 29.0625,
          "velocity": 0.7874015748031497
        },
        {
          "duration": 0.46875,
          "durationTicks": 120,
          "midi": 62,
          "name": "D4",
          "ticks": 7800,
          "time": 30.46875,
          "velocity": 0.7874015748031497
        },
        {
          "duration": 0.46875,
          "durationTicks": 120,
          "midi": 61,
          "name": "C#4",
          "ticks": 7920,
          "time": 30.9375,
          "velocity": 0.7874015748031497
        },
        {
          "duration": 0.46875,
          "durationTicks": 120,
          "midi": 62,
          "name": "D4",
          "ticks": 8040,
          "time": 31.40625,
          "velocity": 0.7874015748031497
        },
        {
          "duration": 1.875,
          "durationTicks": 480,
          "midi": 64,
          "name": "E4",
          "ticks": 8160,
          "time": 31.875,
          "velocity": 0.7874015748031497
        },
        {
          "duration": 0.9375,
          "durationTicks": 240,
          "midi": 62,
          "name": "D4",
          "ticks": 9120,
          "time": 35.625,
          "velocity": 0.7874015748031497
        },
        {
          "duration": 0.9375,
          "durationTicks": 240,
          "midi": 59,
          "name": "B3",
          "ticks": 9600,
          "time": 37.5,
          "velocity": 0.7874015748031497
        },
        {
          "duration": 0.9375,
          "durationTicks": 240,
          "midi": 64,
          "name": "E4",
          "ticks": 9840,
          "time": 38.4375,
          "velocity": 0.7874015748031497
        },
        {
          "duration": 0.9375,
          "durationTicks": 240,
          "midi": 66,
          "name": "F#4",
          "ticks": 10080,
          "time": 39.375,
          "velocity": 0.7874015748031497
        },
        {
          "duration": 0.703125,
          "durationTicks": 180,
          "midi": 64,
          "name": "E4",
          "ticks": 10320,
          "time": 40.3125,
          "velocity": 0.7874015748031497
        },
        {
          "duration": 0.234375,
          "durationTicks": 60,
          "midi": 66,
          "name": "F#4",
          "ticks": 10500,
          "time": 41.015625,
          "velocity": 0.7874015748031497
        },
        {
          "duration": 1.875,
          "durationTicks": 480,
          "midi": 67,
          "name": "G4",
          "ticks": 10560,
          "time": 41.25,
          "velocity": 0.7874015748031497
        },
        {
          "duration": 1.875,
          "durationTicks": 480,
          "midi": 66,
          "name": "F#4",
          "ticks": 11040,
          "time": 43.125,
          "velocity": 0.7874015748031497
        },
        {
          "duration": 0.46875,
          "durationTicks": 120,
          "midi": 64,
          "name": "E4",
          "ticks": 11640,
          "time": 45.46875,
          "velocity": 0.7874015748031497
        },
        {
          "duration": 0.234375,
          "durationTicks": 60,
          "midi": 66,
          "name": "F#4",
          "ticks": 11760,
          "time": 45.9375,
          "velocity": 0.7874015748031497
        },
        {
          "duration": 0.234375,
          "durationTicks": 60,
          "midi": 64,
          "name": "E4",
          "ticks": 11820,
          "time": 46.171875,
          "velocity": 0.7874015748031497
        },
        {
          "duration": 1.40625,
          "durationTicks": 360,
          "midi": 66,
          "name": "F#4",
          "ticks": 11880,
          "time": 46.40625,
          "velocity": 0.7874015748031497
        },
        {
          "duration": 0.46875,
          "durationTicks": 120,
          "midi": 60,
          "name": "C4",
          "ticks": 12360,
          "time": 48.28125,
          "velocity": 0.7874015748031497
        },
        {
          "duration": 1.875,
          "durationTicks": 480,
          "midi": 62,
          "name": "D4",
          "ticks": 12480,
          "time": 48.75,
          "velocity": 0.7874015748031497
        },
        {
          "duration": 0.46875,
          "durationTicks": 120,
          "midi": 64,
          "name": "E4",
          "ticks": 13080,
          "time": 51.09375,
          "velocity": 0.7874015748031497
        },
        {
          "duration": 0.9375,
          "durationTicks": 240,
          "midi": 67,
          "name": "G4",
          "ticks": 13200,
          "time": 51.5625,
          "velocity": 0.7874015748031497
        },
        {
          "duration": 0.1171875,
          "durationTicks": 30,
          "midi": 66,
          "name": "F#4",
          "ticks": 13440,
          "time": 52.5,
          "velocity": 0.7874015748031497
        },
        {
          "duration": 0.1171875,
          "durationTicks": 30,
          "midi": 67,
          "name": "G4",
          "ticks": 13470,
          "time": 52.6171875,
          "velocity": 0.7874015748031497
        },
        {
          "duration": 0.234375,
          "durationTicks": 60,
          "midi": 66,
          "name": "F#4",
          "ticks": 13500,
          "time": 52.734375,
          "velocity": 0.7874015748031497
        },
        {
          "duration": 0.46875,
          "durationTicks": 120,
          "midi": 64,
          "name": "E4",
          "ticks": 13560,
          "time": 52.96875,
          "velocity": 0.7874015748031497
        },
        {
          "duration": 0.46875,
          "durationTicks": 120,
          "midi": 63,
          "name": "D#4",
          "ticks": 13680,
          "time": 53.4375,
          "velocity": 0.7874015748031497
        },
        {
          "duration": 0.46875,
          "durationTicks": 120,
          "midi": 64,
          "name": "E4",
          "ticks": 13800,
          "time": 53.90625,
          "velocity": 0.7874015748031497
        },
        {
          "duration": 1.875,
          "durationTicks": 480,
          "midi": 66,
          "name": "F#4",
          "ticks": 13920,
          "time": 54.375,
          "velocity": 0.7874015748031497
        },
        {
          "duration": 0.46875,
          "durationTicks": 120,
          "midi": 57,
          "name": "A3",
          "ticks": 14520,
          "time": 56.71875,
          "velocity": 0.7874015748031497
        },
        {
          "duration": 0.1171875,
          "durationTicks": 30,
          "midi": 55,
          "name": "G3",
          "ticks": 14640,
          "time": 57.1875,
          "velocity": 0.7874015748031497
        },
        {
          "duration": 0.05859375,
          "durationTicks": 15,
          "midi": 57,
          "name": "A3",
          "ticks": 14670,
          "time": 57.3046875,
          "velocity": 0.7874015748031497
        },
        {
          "duration": 0.05859375,
          "durationTicks": 15,
          "midi": 55,
          "name": "G3",
          "ticks": 14685,
          "time": 57.36328125,
          "velocity": 0.7874015748031497
        },
        {
          "duration": 0.05859375,
          "durationTicks": 15,
          "midi": 57,
          "name": "A3",
          "ticks": 14700,
          "time": 57.421875,
          "velocity": 0.7874015748031497
        },
        {
          "duration": 0.05859375,
          "durationTicks": 15,
          "midi": 55,
          "name": "G3",
          "ticks": 14715,
          "time": 57.48046875,
          "velocity": 0.7874015748031497
        },
        {
          "duration": 0.05859375,
          "durationTicks": 15,
          "midi": 54,
          "name": "F#3",
          "ticks": 14730,
          "time": 57.5390625,
          "velocity": 0.7874015748031497
        },
        {
          "duration": 0.05859375,
          "durationTicks": 15,
          "midi": 55,
          "name": "G3",
          "ticks": 14745,
          "time": 57.59765625,
          "velocity": 0.7874015748031497
        },
        {
          "duration": 0.46875,
          "durationTicks": 120,
          "midi": 54,
          "name": "F#3",
          "ticks": 14760,
          "time": 57.65625,
          "velocity": 0.7874015748031497
        },
        {
          "duration": 0.9375,
          "durationTicks": 240,
          "midi": 55,
          "name": "G3",
          "ticks": 14880,
          "time": 58.125,
          "velocity": 0.7874015748031497
        },
        {
          "duration": 0.46875,
          "durationTicks": 120,
          "midi": 57,
          "name": "A3",
          "ticks": 15240,
          "time": 59.53125,
          "velocity": 0.7874015748031497
        },
        {
          "duration": 0.1171875,
          "durationTicks": 30,
          "midi": 55,
          "name": "G3",
          "ticks": 15360,
          "time": 60,
          "velocity": 0.7874015748031497
        },
        {
          "duration": 0.05859375,
          "durationTicks": 15,
          "midi": 57,
          "name": "A3",
          "ticks": 15390,
          "time": 60.1171875,
          "velocity": 0.7874015748031497
        },
        {
          "duration": 0.05859375,
          "durationTicks": 15,
          "midi": 55,
          "name": "G3",
          "ticks": 15405,
          "time": 60.17578125,
          "velocity": 0.7874015748031497
        },
        {
          "duration": 0.05859375,
          "durationTicks": 15,
          "midi": 57,
          "name": "A3",
          "ticks": 15420,
          "time": 60.234375,
          "velocity": 0.7874015748031497
        },
        {
          "duration": 0.05859375,
          "durationTicks": 15,
          "midi": 55,
          "name": "G3",
          "ticks": 15435,
          "time": 60.29296875,
          "velocity": 0.7874015748031497
        },
        {
          "duration": 0.05859375,
          "durationTicks": 15,
          "midi": 54,
          "name": "F#3",
          "ticks": 15450,
          "time": 60.3515625,
          "velocity": 0.7874015748031497
        },
        {
          "duration": 0.05859375,
          "durationTicks": 15,
          "midi": 55,
          "name": "G3",
          "ticks": 15465,
          "time": 60.41015625,
          "velocity": 0.7874015748031497
        },
        {
          "duration": 0.46875,
          "durationTicks": 120,
          "midi": 54,
          "name": "F#3",
          "ticks": 15480,
          "time": 60.46875,
          "velocity": 0.7874015748031497
        },
        {
          "duration": 0.46875,
          "durationTicks": 120,
          "midi": 55,
          "name": "G3",
          "ticks": 15600,
          "time": 60.9375,
          "velocity": 0.7874015748031497
        },
        {
          "duration": 0.46875,
          "durationTicks": 120,
          "midi": 59,
          "name": "B3",
          "ticks": 15720,
          "time": 61.40625,
          "velocity": 0.7874015748031497
        },
        {
          "duration": 0.46875,
          "durationTicks": 120,
          "midi": 51,
          "name": "D#3",
          "ticks": 16440,
          "time": 64.21875,
          "velocity": 0.7874015748031497
        },
        {
          "duration": 0.9375,
          "durationTicks": 240,
          "midi": 52,
          "name": "E3",
          "ticks": 16560,
          "time": 64.6875,
          "velocity": 0.7874015748031497
        },
        {
          "duration": 1.40625,
          "durationTicks": 360,
          "midi": 57,
          "name": "A3",
          "ticks": 17760,
          "time": 69.375,
          "velocity": 0.7874015748031497
        },
        {
          "duration": 0.46875,
          "durationTicks": 120,
          "midi": 54,
          "name": "F#3",
          "ticks": 18120,
          "time": 70.78125,
          "velocity": 0.7874015748031497
        },
        {
          "duration": 0.234375,
          "durationTicks": 60,
          "midi": 52,
          "name": "E3",
          "ticks": 18240,
          "time": 71.25,
          "velocity": 0.7874015748031497
        },
        {
          "duration": 0.234375,
          "durationTicks": 60,
          "midi": 50,
          "name": "D3",
          "ticks": 18300,
          "time": 71.484375,
          "velocity": 0.7874015748031497
        },
        {
          "duration": 0.234375,
          "durationTicks": 60,
          "midi": 52,
          "name": "E3",
          "ticks": 18360,
          "time": 71.71875,
          "velocity": 0.7874015748031497
        },
        {
          "duration": 0.234375,
          "durationTicks": 60,
          "midi": 54,
          "name": "F#3",
          "ticks": 18420,
          "time": 71.953125,
          "velocity": 0.7874015748031497
        },
        {
          "duration": 0.234375,
          "durationTicks": 60,
          "midi": 55,
          "name": "G3",
          "ticks": 18480,
          "time": 72.1875,
          "velocity": 0.7874015748031497
        },
        {
          "duration": 0.234375,
          "durationTicks": 60,
          "midi": 54,
          "name": "F#3",
          "ticks": 18540,
          "time": 72.421875,
          "velocity": 0.7874015748031497
        },
        {
          "duration": 0.9375,
          "durationTicks": 240,
          "midi": 55,
          "name": "G3",
          "ticks": 18600,
          "time": 72.65625,
          "velocity": 0.7874015748031497
        },
        {
          "duration": 0.46875,
          "durationTicks": 120,
          "midi": 52,
          "name": "E3",
          "ticks": 18840,
          "time": 73.59375,
          "velocity": 0.7874015748031497
        },
        {
          "duration": 0.9375,
          "durationTicks": 240,
          "midi": 57,
          "name": "A3",
          "ticks": 18960,
          "time": 74.0625,
          "velocity": 0.7874015748031497
        },
        {
          "duration": 0.234375,
          "durationTicks": 60,
          "midi": 60,
          "name": "C4",
          "ticks": 22380,
          "time": 87.421875,
          "velocity": 0.7874015748031497
        },
        {
          "duration": 0.234375,
          "durationTicks": 60,
          "midi": 59,
          "name": "B3",
          "ticks": 22440,
          "time": 87.65625,
          "velocity": 0.7874015748031497
        },
        {
          "duration": 0.234375,
          "durationTicks": 60,
          "midi": 57,
          "name": "A3",
          "ticks": 22500,
          "time": 87.890625,
          "velocity": 0.7874015748031497
        },
        {
          "duration": 1.875,
          "durationTicks": 480,
          "midi": 59,
          "name": "B3",
          "ticks": 22560,
          "time": 88.125,
          "velocity": 0.7874015748031497
        },
        {
          "duration": 0.2421875,
          "durationTicks": 120,
          "midi": 43,
          "name": "G2",
          "ticks": 23040,
          "time": 90,
          "velocity": 0.7874015748031497
        },
        {
          "duration": 0.1171875,
          "durationTicks": 60,
          "midi": 59,
          "name": "B3",
          "ticks": 23160,
          "time": 90.2421875,
          "velocity": 0.7874015748031497
        },
        {
          "duration": 0.1171875,
          "durationTicks": 60,
          "midi": 57,
          "name": "A3",
          "ticks": 23220,
          "time": 90.359375,
          "velocity": 0.7874015748031497
        },
        {
          "duration": 0.234375,
          "durationTicks": 120,
          "midi": 59,
          "name": "B3",
          "ticks": 23280,
          "time": 90.4765625,
          "velocity": 0.7874015748031497
        },
        {
          "duration": 0.234375,
          "durationTicks": 120,
          "midi": 55,
          "name": "G3",
          "ticks": 23400,
          "time": 90.7109375,
          "velocity": 0.7874015748031497
        },
        {
          "duration": 0.234375,
          "durationTicks": 120,
          "midi": 43,
          "name": "G2",
          "ticks": 23520,
          "time": 90.9453125,
          "velocity": 0.7874015748031497
        },
        {
          "duration": 0.234375,
          "durationTicks": 120,
          "midi": 55,
          "name": "G3",
          "ticks": 23640,
          "time": 91.1796875,
          "velocity": 0.7874015748031497
        },
        {
          "duration": 0.234375,
          "durationTicks": 120,
          "midi": 42,
          "name": "F#2",
          "ticks": 23760,
          "time": 91.4140625,
          "velocity": 0.7874015748031497
        },
        {
          "duration": 0.1171875,
          "durationTicks": 60,
          "midi": 54,
          "name": "F#3",
          "ticks": 23880,
          "time": 91.6484375,
          "velocity": 0.7874015748031497
        },
        {
          "duration": 0.1171875,
          "durationTicks": 60,
          "midi": 52,
          "name": "E3",
          "ticks": 23940,
          "time": 91.765625,
          "velocity": 0.7874015748031497
        },
        {
          "duration": 0.234375,
          "durationTicks": 120,
          "midi": 54,
          "name": "F#3",
          "ticks": 24000,
          "time": 91.8828125,
          "velocity": 0.7874015748031497
        },
        {
          "duration": 0.234375,
          "durationTicks": 120,
          "midi": 50,
          "name": "D3",
          "ticks": 24120,
          "time": 92.1171875,
          "velocity": 0.7874015748031497
        },
        {
          "duration": 0.234375,
          "durationTicks": 120,
          "midi": 42,
          "name": "F#2",
          "ticks": 24240,
          "time": 92.3515625,
          "velocity": 0.7874015748031497
        },
        {
          "duration": 0.234375,
          "durationTicks": 120,
          "midi": 50,
          "name": "D3",
          "ticks": 24360,
          "time": 92.5859375,
          "velocity": 0.7874015748031497
        },
        {
          "duration": 0.234375,
          "durationTicks": 120,
          "midi": 40,
          "name": "E2",
          "ticks": 24480,
          "time": 92.8203125,
          "velocity": 0.7874015748031497
        },
        {
          "duration": 0.1171875,
          "durationTicks": 60,
          "midi": 52,
          "name": "E3",
          "ticks": 24600,
          "time": 93.0546875,
          "velocity": 0.7874015748031497
        },
        {
          "duration": 0.1171875,
          "durationTicks": 60,
          "midi": 50,
          "name": "D3",
          "ticks": 24660,
          "time": 93.171875,
          "velocity": 0.7874015748031497
        },
        {
          "duration": 0.234375,
          "durationTicks": 120,
          "midi": 52,
          "name": "E3",
          "ticks": 24720,
          "time": 93.2890625,
          "velocity": 0.7874015748031497
        },
        {
          "duration": 0.234375,
          "durationTicks": 120,
          "midi": 55,
          "name": "G3",
          "ticks": 24840,
          "time": 93.5234375,
          "velocity": 0.7874015748031497
        },
        {
          "duration": 0.234375,
          "durationTicks": 120,
          "midi": 45,
          "name": "A2",
          "ticks": 24960,
          "time": 93.7578125,
          "velocity": 0.7874015748031497
        },
        {
          "duration": 0.234375,
          "durationTicks": 120,
          "midi": 61,
          "name": "C#4",
          "ticks": 25080,
          "time": 93.9921875,
          "velocity": 0.7874015748031497
        },
        {
          "duration": 0.234375,
          "durationTicks": 120,
          "midi": 50,
          "name": "D3",
          "ticks": 25200,
          "time": 94.2265625,
          "velocity": 0.7874015748031497
        },
        {
          "duration": 0.1171875,
          "durationTicks": 60,
          "midi": 54,
          "name": "F#3",
          "ticks": 25320,
          "time": 94.4609375,
          "velocity": 0.7874015748031497
        },
        {
          "duration": 0.1171875,
          "durationTicks": 60,
          "midi": 52,
          "name": "E3",
          "ticks": 25380,
          "time": 94.578125,
          "velocity": 0.7874015748031497
        },
        {
          "duration": 0.234375,
          "durationTicks": 120,
          "midi": 54,
          "name": "F#3",
          "ticks": 25440,
          "time": 94.6953125,
          "velocity": 0.7874015748031497
        },
        {
          "duration": 0.234375,
          "durationTicks": 120,
          "midi": 50,
          "name": "D3",
          "ticks": 25560,
          "time": 94.9296875,
          "velocity": 0.7874015748031497
        },
        {
          "duration": 0.234375,
          "durationTicks": 120,
          "midi": 38,
          "name": "D2",
          "ticks": 25680,
          "time": 95.1640625,
          "velocity": 0.7874015748031497
        },
        {
          "duration": 0.234375,
          "durationTicks": 120,
          "midi": 50,
          "name": "D3",
          "ticks": 25800,
          "time": 95.3984375,
          "velocity": 0.7874015748031497
        },
        {
          "duration": 0.1171875,
          "durationTicks": 60,
          "midi": 47,
          "name": "B2",
          "ticks": 25920,
          "time": 95.6328125,
          "velocity": 0.7874015748031497
        },
        {
          "duration": 0.1171875,
          "durationTicks": 60,
          "midi": 45,
          "name": "A2",
          "ticks": 25980,
          "time": 95.75,
          "velocity": 0.7874015748031497
        },
        {
          "duration": 0.3515625,
          "durationTicks": 180,
          "midi": 47,
          "name": "B2",
          "ticks": 26040,
          "time": 95.8671875,
          "velocity": 0.7874015748031497
        },
        {
          "duration": 0.1171875,
          "durationTicks": 60,
          "midi": 50,
          "name": "D3",
          "ticks": 26220,
          "time": 96.21875,
          "velocity": 0.7874015748031497
        },
        {
          "duration": 0.1171875,
          "durationTicks": 60,
          "midi": 52,
          "name": "E3",
          "ticks": 26280,
          "time": 96.3359375,
          "velocity": 0.7874015748031497
        },
        {
          "duration": 0.1171875,
          "durationTicks": 60,
          "midi": 54,
          "name": "F#3",
          "ticks": 26340,
          "time": 96.453125,
          "velocity": 0.7874015748031497
        },
        {
          "duration": 0.1171875,
          "durationTicks": 60,
          "midi": 55,
          "name": "G3",
          "ticks": 26400,
          "time": 96.5703125,
          "velocity": 0.7874015748031497
        },
        {
          "duration": 0.1171875,
          "durationTicks": 60,
          "midi": 57,
          "name": "A3",
          "ticks": 26460,
          "time": 96.6875,
          "velocity": 0.7874015748031497
        },
        {
          "duration": 0.1171875,
          "durationTicks": 60,
          "midi": 59,
          "name": "B3",
          "ticks": 26520,
          "time": 96.8046875,
          "velocity": 0.7874015748031497
        },
        {
          "duration": 0.1171875,
          "durationTicks": 60,
          "midi": 55,
          "name": "G3",
          "ticks": 26580,
          "time": 96.921875,
          "velocity": 0.7874015748031497
        },
        {
          "duration": 0.1171875,
          "durationTicks": 60,
          "midi": 48,
          "name": "C3",
          "ticks": 26640,
          "time": 97.0390625,
          "velocity": 0.7874015748031497
        },
        {
          "duration": 0.1171875,
          "durationTicks": 60,
          "midi": 47,
          "name": "B2",
          "ticks": 26700,
          "time": 97.15625,
          "velocity": 0.7874015748031497
        },
        {
          "duration": 0.3515625,
          "durationTicks": 180,
          "midi": 48,
          "name": "C3",
          "ticks": 26760,
          "time": 97.2734375,
          "velocity": 0.7874015748031497
        },
        {
          "duration": 0.1171875,
          "durationTicks": 60,
          "midi": 52,
          "name": "E3",
          "ticks": 26940,
          "time": 97.625,
          "velocity": 0.7874015748031497
        },
        {
          "duration": 0.1171875,
          "durationTicks": 60,
          "midi": 54,
          "name": "F#3",
          "ticks": 27000,
          "time": 97.7421875,
          "velocity": 0.7874015748031497
        },
        {
          "duration": 0.1171875,
          "durationTicks": 60,
          "midi": 55,
          "name": "G3",
          "ticks": 27060,
          "time": 97.859375,
          "velocity": 0.7874015748031497
        },
        {
          "duration": 0.1171875,
          "durationTicks": 60,
          "midi": 57,
          "name": "A3",
          "ticks": 27120,
          "time": 97.9765625,
          "velocity": 0.7874015748031497
        },
        {
          "duration": 0.1171875,
          "durationTicks": 60,
          "midi": 59,
          "name": "B3",
          "ticks": 27180,
          "time": 98.09375,
          "velocity": 0.7874015748031497
        },
        {
          "duration": 0.1171875,
          "durationTicks": 60,
          "midi": 60,
          "name": "C4",
          "ticks": 27240,
          "time": 98.2109375,
          "velocity": 0.7874015748031497
        },
        {
          "duration": 0.1171875,
          "durationTicks": 60,
          "midi": 57,
          "name": "A3",
          "ticks": 27300,
          "time": 98.328125,
          "velocity": 0.7874015748031497
        },
        {
          "duration": 0.1171875,
          "durationTicks": 60,
          "midi": 50,
          "name": "D3",
          "ticks": 27360,
          "time": 98.4453125,
          "velocity": 0.7874015748031497
        },
        {
          "duration": 0.1171875,
          "durationTicks": 60,
          "midi": 49,
          "name": "C#3",
          "ticks": 27420,
          "time": 98.5625,
          "velocity": 0.7874015748031497
        },
        {
          "duration": 0.3515625,
          "durationTicks": 180,
          "midi": 50,
          "name": "D3",
          "ticks": 27480,
          "time": 98.6796875,
          "velocity": 0.7874015748031497
        },
        {
          "duration": 0.1171875,
          "durationTicks": 60,
          "midi": 57,
          "name": "A3",
          "ticks": 27660,
          "time": 99.03125,
          "velocity": 0.7874015748031497
        },
        {
          "duration": 0.1171875,
          "durationTicks": 60,
          "midi": 59,
          "name": "B3",
          "ticks": 27720,
          "time": 99.1484375,
          "velocity": 0.7874015748031497
        },
        {
          "duration": 0.1171875,
          "durationTicks": 60,
          "midi": 60,
          "name": "C4",
          "ticks": 27780,
          "time": 99.265625,
          "velocity": 0.7874015748031497
        },
        {
          "duration": 0.1171875,
          "durationTicks": 60,
          "midi": 62,
          "name": "D4",
          "ticks": 27840,
          "time": 99.3828125,
          "velocity": 0.7874015748031497
        },
        {
          "duration": 0.1171875,
          "durationTicks": 60,
          "midi": 64,
          "name": "E4",
          "ticks": 27900,
          "time": 99.5,
          "velocity": 0.7874015748031497
        },
        {
          "duration": 0.1171875,
          "durationTicks": 60,
          "midi": 66,
          "name": "F#4",
          "ticks": 27960,
          "time": 99.6171875,
          "velocity": 0.7874015748031497
        },
        {
          "duration": 0.1171875,
          "durationTicks": 60,
          "midi": 62,
          "name": "D4",
          "ticks": 28020,
          "time": 99.734375,
          "velocity": 0.7874015748031497
        },
        {
          "duration": 0.1171875,
          "durationTicks": 60,
          "midi": 67,
          "name": "G4",
          "ticks": 28080,
          "time": 99.8515625,
          "velocity": 0.7874015748031497
        },
        {
          "duration": 0.1171875,
          "durationTicks": 60,
          "midi": 66,
          "name": "F#4",
          "ticks": 28140,
          "time": 99.96875,
          "velocity": 0.7874015748031497
        },
        {
          "duration": 0.1171875,
          "durationTicks": 60,
          "midi": 67,
          "name": "G4",
          "ticks": 28200,
          "time": 100.0859375,
          "velocity": 0.7874015748031497
        },
        {
          "duration": 0.1171875,
          "durationTicks": 60,
          "midi": 62,
          "name": "D4",
          "ticks": 28260,
          "time": 100.203125,
          "velocity": 0.7874015748031497
        },
        {
          "duration": 0.1171875,
          "durationTicks": 60,
          "midi": 59,
          "name": "B3",
          "ticks": 28320,
          "time": 100.3203125,
          "velocity": 0.7874015748031497
        },
        {
          "duration": 0.1171875,
          "durationTicks": 60,
          "midi": 62,
          "name": "D4",
          "ticks": 28380,
          "time": 100.4375,
          "velocity": 0.7874015748031497
        },
        {
          "duration": 0.1171875,
          "durationTicks": 60,
          "midi": 55,
          "name": "G3",
          "ticks": 28440,
          "time": 100.5546875,
          "velocity": 0.7874015748031497
        },
        {
          "duration": 0.1171875,
          "durationTicks": 60,
          "midi": 59,
          "name": "B3",
          "ticks": 28500,
          "time": 100.671875,
          "velocity": 0.7874015748031497
        },
        {
          "duration": 0.1171875,
          "durationTicks": 60,
          "midi": 50,
          "name": "D3",
          "ticks": 28560,
          "time": 100.7890625,
          "velocity": 0.7874015748031497
        },
        {
          "duration": 0.1171875,
          "durationTicks": 60,
          "midi": 55,
          "name": "G3",
          "ticks": 28620,
          "time": 100.90625,
          "velocity": 0.7874015748031497
        },
        {
          "duration": 0.1171875,
          "durationTicks": 60,
          "midi": 47,
          "name": "B2",
          "ticks": 28680,
          "time": 101.0234375,
          "velocity": 0.7874015748031497
        },
        {
          "duration": 0.1171875,
          "durationTicks": 60,
          "midi": 50,
          "name": "D3",
          "ticks": 28740,
          "time": 101.140625,
          "velocity": 0.7874015748031497
        },
        {
          "duration": 0.234375,
          "durationTicks": 120,
          "midi": 43,
          "name": "G2",
          "ticks": 28800,
          "time": 101.2578125,
          "velocity": 0.7874015748031497
        },
        {
          "duration": 0.234375,
          "durationTicks": 120,
          "midi": 55,
          "name": "G3",
          "ticks": 28920,
          "time": 101.4921875,
          "velocity": 0.7874015748031497
        },
        {
          "duration": 0.234375,
          "durationTicks": 120,
          "midi": 59,
          "name": "B3",
          "ticks": 29040,
          "time": 101.7265625,
          "velocity": 0.7874015748031497
        },
        {
          "duration": 0.234375,
          "durationTicks": 120,
          "midi": 55,
          "name": "G3",
          "ticks": 29160,
          "time": 101.9609375,
          "velocity": 0.7874015748031497
        },
        {
          "duration": 0.234375,
          "durationTicks": 120,
          "midi": 43,
          "name": "G2",
          "ticks": 29280,
          "time": 102.1953125,
          "velocity": 0.7874015748031497
        },
        {
          "duration": 0.234375,
          "durationTicks": 120,
          "midi": 55,
          "name": "G3",
          "ticks": 29400,
          "time": 102.4296875,
          "velocity": 0.7874015748031497
        },
        {
          "duration": 0.234375,
          "durationTicks": 120,
          "midi": 42,
          "name": "F#2",
          "ticks": 29520,
          "time": 102.6640625,
          "velocity": 0.7874015748031497
        },
        {
          "duration": 0.234375,
          "durationTicks": 120,
          "midi": 54,
          "name": "F#3",
          "ticks": 29640,
          "time": 102.8984375,
          "velocity": 0.7874015748031497
        },
        {
          "duration": 0.234375,
          "durationTicks": 120,
          "midi": 57,
          "name": "A3",
          "ticks": 29760,
          "time": 103.1328125,
          "velocity": 0.7874015748031497
        },
        {
          "duration": 0.234375,
          "durationTicks": 120,
          "midi": 54,
          "name": "F#3",
          "ticks": 29880,
          "time": 103.3671875,
          "velocity": 0.7874015748031497
        },
        {
          "duration": 0.234375,
          "durationTicks": 120,
          "midi": 42,
          "name": "F#2",
          "ticks": 30000,
          "time": 103.6015625,
          "velocity": 0.7874015748031497
        },
        {
          "duration": 0.234375,
          "durationTicks": 120,
          "midi": 54,
          "name": "F#3",
          "ticks": 30120,
          "time": 103.8359375,
          "velocity": 0.7874015748031497
        },
        {
          "duration": 0.234375,
          "durationTicks": 120,
          "midi": 40,
          "name": "E2",
          "ticks": 30240,
          "time": 104.0703125,
          "velocity": 0.7874015748031497
        },
        {
          "duration": 0.234375,
          "durationTicks": 120,
          "midi": 52,
          "name": "E3",
          "ticks": 30360,
          "time": 104.3046875,
          "velocity": 0.7874015748031497
        },
        {
          "duration": 0.234375,
          "durationTicks": 120,
          "midi": 55,
          "name": "G3",
          "ticks": 30480,
          "time": 104.5390625,
          "velocity": 0.7874015748031497
        },
        {
          "duration": 0.234375,
          "durationTicks": 120,
          "midi": 52,
          "name": "E3",
          "ticks": 30600,
          "time": 104.7734375,
          "velocity": 0.7874015748031497
        },
        {
          "duration": 0.234375,
          "durationTicks": 120,
          "midi": 40,
          "name": "E2",
          "ticks": 30720,
          "time": 105.0078125,
          "velocity": 0.7874015748031497
        },
        {
          "duration": 0.234375,
          "durationTicks": 120,
          "midi": 55,
          "name": "G3",
          "ticks": 30840,
          "time": 105.2421875,
          "velocity": 0.7874015748031497
        },
        {
          "duration": 0.234375,
          "durationTicks": 120,
          "midi": 45,
          "name": "A2",
          "ticks": 30960,
          "time": 105.4765625,
          "velocity": 0.7874015748031497
        },
        {
          "duration": 0.234375,
          "durationTicks": 120,
          "midi": 52,
          "name": "E3",
          "ticks": 31080,
          "time": 105.7109375,
          "velocity": 0.7874015748031497
        },
        {
          "duration": 0.234375,
          "durationTicks": 120,
          "midi": 55,
          "name": "G3",
          "ticks": 31200,
          "time": 105.9453125,
          "velocity": 0.7874015748031497
        },
        {
          "duration": 0.234375,
          "durationTicks": 120,
          "midi": 52,
          "name": "E3",
          "ticks": 31320,
          "time": 106.1796875,
          "velocity": 0.7874015748031497
        },
        {
          "duration": 0.234375,
          "durationTicks": 120,
          "midi": 45,
          "name": "A2",
          "ticks": 31440,
          "time": 106.4140625,
          "velocity": 0.7874015748031497
        },
        {
          "duration": 0.234375,
          "durationTicks": 120,
          "midi": 55,
          "name": "G3",
          "ticks": 31560,
          "time": 106.6484375,
          "velocity": 0.7874015748031497
        },
        {
          "duration": 0.1171875,
          "durationTicks": 60,
          "midi": 54,
          "name": "F#3",
          "ticks": 31680,
          "time": 106.8828125,
          "velocity": 0.7874015748031497
        },
        {
          "duration": 0.1171875,
          "durationTicks": 60,
          "midi": 57,
          "name": "A3",
          "ticks": 31740,
          "time": 107,
          "velocity": 0.7874015748031497
        },
        {
          "duration": 0.1171875,
          "durationTicks": 60,
          "midi": 62,
          "name": "D4",
          "ticks": 31800,
          "time": 107.1171875,
          "velocity": 0.7874015748031497
        },
        {
          "duration": 0.1171875,
          "durationTicks": 60,
          "midi": 66,
          "name": "F#4",
          "ticks": 31860,
          "time": 107.234375,
          "velocity": 0.7874015748031497
        },
        {
          "duration": 0.1171875,
          "durationTicks": 60,
          "midi": 69,
          "name": "A4",
          "ticks": 31920,
          "time": 107.3515625,
          "velocity": 0.7874015748031497
        },
        {
          "duration": 0.1171875,
          "durationTicks": 60,
          "midi": 66,
          "name": "F#4",
          "ticks": 31980,
          "time": 107.46875,
          "velocity": 0.7874015748031497
        },
        {
          "duration": 0.1171875,
          "durationTicks": 60,
          "midi": 62,
          "name": "D4",
          "ticks": 32040,
          "time": 107.5859375,
          "velocity": 0.7874015748031497
        },
        {
          "duration": 0.1171875,
          "durationTicks": 60,
          "midi": 57,
          "name": "A3",
          "ticks": 32100,
          "time": 107.703125,
          "velocity": 0.7874015748031497
        },
        {
          "duration": 0.1171875,
          "durationTicks": 60,
          "midi": 54,
          "name": "F#3",
          "ticks": 32160,
          "time": 107.8203125,
          "velocity": 0.7874015748031497
        },
        {
          "duration": 0.1171875,
          "durationTicks": 60,
          "midi": 57,
          "name": "A3",
          "ticks": 32220,
          "time": 107.9375,
          "velocity": 0.7874015748031497
        },
        {
          "duration": 0.1171875,
          "durationTicks": 60,
          "midi": 50,
          "name": "D3",
          "ticks": 32280,
          "time": 108.0546875,
          "velocity": 0.7874015748031497
        },
        {
          "duration": 0.1171875,
          "durationTicks": 60,
          "midi": 54,
          "name": "F#3",
          "ticks": 32340,
          "time": 108.171875,
          "velocity": 0.7874015748031497
        },
        {
          "duration": 0.1171875,
          "durationTicks": 60,
          "midi": 55,
          "name": "G3",
          "ticks": 32400,
          "time": 108.2890625,
          "velocity": 0.7874015748031497
        },
        {
          "duration": 0.1171875,
          "durationTicks": 60,
          "midi": 59,
          "name": "B3",
          "ticks": 32460,
          "time": 108.40625,
          "velocity": 0.7874015748031497
        },
        {
          "duration": 0.1171875,
          "durationTicks": 60,
          "midi": 62,
          "name": "D4",
          "ticks": 32520,
          "time": 108.5234375,
          "velocity": 0.7874015748031497
        },
        {
          "duration": 0.1171875,
          "durationTicks": 60,
          "midi": 67,
          "name": "G4",
          "ticks": 32580,
          "time": 108.640625,
          "velocity": 0.7874015748031497
        },
        {
          "duration": 0.1171875,
          "durationTicks": 60,
          "midi": 71,
          "name": "B4",
          "ticks": 32640,
          "time": 108.7578125,
          "velocity": 0.7874015748031497
        },
        {
          "duration": 0.1171875,
          "durationTicks": 60,
          "midi": 67,
          "name": "G4",
          "ticks": 32700,
          "time": 108.875,
          "velocity": 0.7874015748031497
        },
        {
          "duration": 0.1171875,
          "durationTicks": 60,
          "midi": 62,
          "name": "D4",
          "ticks": 32760,
          "time": 108.9921875,
          "velocity": 0.7874015748031497
        },
        {
          "duration": 0.1171875,
          "durationTicks": 60,
          "midi": 59,
          "name": "B3",
          "ticks": 32820,
          "time": 109.109375,
          "velocity": 0.7874015748031497
        },
        {
          "duration": 0.1171875,
          "durationTicks": 60,
          "midi": 55,
          "name": "G3",
          "ticks": 32880,
          "time": 109.2265625,
          "velocity": 0.7874015748031497
        },
        {
          "duration": 0.1171875,
          "durationTicks": 60,
          "midi": 59,
          "name": "B3",
          "ticks": 32940,
          "time": 109.34375,
          "velocity": 0.7874015748031497
        },
        {
          "duration": 0.1171875,
          "durationTicks": 60,
          "midi": 52,
          "name": "E3",
          "ticks": 33000,
          "time": 109.4609375,
          "velocity": 0.7874015748031497
        },
        {
          "duration": 0.1171875,
          "durationTicks": 60,
          "midi": 55,
          "name": "G3",
          "ticks": 33060,
          "time": 109.578125,
          "velocity": 0.7874015748031497
        },
        {
          "duration": 0.234375,
          "durationTicks": 120,
          "midi": 57,
          "name": "A3",
          "ticks": 33120,
          "time": 109.6953125,
          "velocity": 0.7874015748031497
        },
        {
          "duration": 0.234375,
          "durationTicks": 120,
          "midi": 61,
          "name": "C#4",
          "ticks": 33240,
          "time": 109.9296875,
          "velocity": 0.7874015748031497
        },
        {
          "duration": 0.1171875,
          "durationTicks": 60,
          "midi": 62,
          "name": "D4",
          "ticks": 33360,
          "time": 110.1640625,
          "velocity": 0.7874015748031497
        },
        {
          "duration": 0.1171875,
          "durationTicks": 60,
          "midi": 57,
          "name": "A3",
          "ticks": 33420,
          "time": 110.28125,
          "velocity": 0.7874015748031497
        },
        {
          "duration": 0.1171875,
          "durationTicks": 60,
          "midi": 54,
          "name": "F#3",
          "ticks": 33480,
          "time": 110.3984375,
          "velocity": 0.7874015748031497
        },
        {
          "duration": 0.1171875,
          "durationTicks": 60,
          "midi": 50,
          "name": "D3",
          "ticks": 33540,
          "time": 110.515625,
          "velocity": 0.7874015748031497
        },
        {
          "duration": 0.234375,
          "durationTicks": 120,
          "midi": 57,
          "name": "A3",
          "ticks": 33600,
          "time": 110.6328125,
          "velocity": 0.7874015748031497
        },
        {
          "duration": 0.234375,
          "durationTicks": 120,
          "midi": 45,
          "name": "A2",
          "ticks": 33720,
          "time": 110.8671875,
          "velocity": 0.7874015748031497
        },
        {
          "duration": 0.1171875,
          "durationTicks": 60,
          "midi": 38,
          "name": "D2",
          "ticks": 33840,
          "time": 111.1015625,
          "velocity": 0.7874015748031497
        },
        {
          "duration": 0.1171875,
          "durationTicks": 60,
          "midi": 50,
          "name": "D3",
          "ticks": 33900,
          "time": 111.21875,
          "velocity": 0.7874015748031497
        },
        {
          "duration": 0.1171875,
          "durationTicks": 60,
          "midi": 52,
          "name": "E3",
          "ticks": 33960,
          "time": 111.3359375,
          "velocity": 0.7874015748031497
        },
        {
          "duration": 0.1171875,
          "durationTicks": 60,
          "midi": 54,
          "name": "F#3",
          "ticks": 34020,
          "time": 111.453125,
          "velocity": 0.7874015748031497
        },
        {
          "duration": 0.1171875,
          "durationTicks": 60,
          "midi": 55,
          "name": "G3",
          "ticks": 34080,
          "time": 111.5703125,
          "velocity": 0.7874015748031497
        },
        {
          "duration": 0.1171875,
          "durationTicks": 60,
          "midi": 57,
          "name": "A3",
          "ticks": 34140,
          "time": 111.6875,
          "velocity": 0.7874015748031497
        },
        {
          "duration": 0.1171875,
          "durationTicks": 60,
          "midi": 59,
          "name": "B3",
          "ticks": 34200,
          "time": 111.8046875,
          "velocity": 0.7874015748031497
        },
        {
          "duration": 0.1171875,
          "durationTicks": 60,
          "midi": 61,
          "name": "C#4",
          "ticks": 34260,
          "time": 111.921875,
          "velocity": 0.7874015748031497
        },
        {
          "duration": 0.46875,
          "durationTicks": 240,
          "midi": 62,
          "name": "D4",
          "ticks": 34320,
          "time": 112.0390625,
          "velocity": 0.7874015748031497
        },
        {
          "duration": 0.234375,
          "durationTicks": 120,
          "midi": 38,
          "name": "D2",
          "ticks": 34560,
          "time": 112.5078125,
          "velocity": 0.7874015748031497
        },
        {
          "duration": 0.1171875,
          "durationTicks": 60,
          "midi": 54,
          "name": "F#3",
          "ticks": 34680,
          "time": 112.7421875,
          "velocity": 0.7874015748031497
        },
        {
          "duration": 0.1171875,
          "durationTicks": 60,
          "midi": 52,
          "name": "E3",
          "ticks": 34740,
          "time": 112.859375,
          "velocity": 0.7874015748031497
        },
        {
          "duration": 0.234375,
          "durationTicks": 120,
          "midi": 54,
          "name": "F#3",
          "ticks": 34800,
          "time": 112.9765625,
          "velocity": 0.7874015748031497
        },
        {
          "duration": 0.234375,
          "durationTicks": 120,
          "midi": 50,
          "name": "D3",
          "ticks": 34920,
          "time": 113.2109375,
          "velocity": 0.7874015748031497
        },
        {
          "duration": 0.234375,
          "durationTicks": 120,
          "midi": 38,
          "name": "D2",
          "ticks": 35040,
          "time": 113.4453125,
          "velocity": 0.7874015748031497
        },
        {
          "duration": 0.234375,
          "durationTicks": 120,
          "midi": 54,
          "name": "F#3",
          "ticks": 35160,
          "time": 113.6796875,
          "velocity": 0.7874015748031497
        },
        {
          "duration": 0.234375,
          "durationTicks": 120,
          "midi": 43,
          "name": "G2",
          "ticks": 35280,
          "time": 113.9140625,
          "velocity": 0.7874015748031497
        },
        {
          "duration": 0.1171875,
          "durationTicks": 60,
          "midi": 59,
          "name": "B3",
          "ticks": 35400,
          "time": 114.1484375,
          "velocity": 0.7874015748031497
        },
        {
          "duration": 0.1171875,
          "durationTicks": 60,
          "midi": 57,
          "name": "A3",
          "ticks": 35460,
          "time": 114.265625,
          "velocity": 0.7874015748031497
        },
        {
          "duration": 0.234375,
          "durationTicks": 120,
          "midi": 59,
          "name": "B3",
          "ticks": 35520,
          "time": 114.3828125,
          "velocity": 0.7874015748031497
        },
        {
          "duration": 0.234375,
          "durationTicks": 120,
          "midi": 55,
          "name": "G3",
          "ticks": 35640,
          "time": 114.6171875,
          "velocity": 0.7874015748031497
        },
        {
          "duration": 0.234375,
          "durationTicks": 120,
          "midi": 43,
          "name": "G2",
          "ticks": 35760,
          "time": 114.8515625,
          "velocity": 0.7874015748031497
        },
        {
          "duration": 0.234375,
          "durationTicks": 120,
          "midi": 59,
          "name": "B3",
          "ticks": 35880,
          "time": 115.0859375,
          "velocity": 0.7874015748031497
        },
        {
          "duration": 0.234375,
          "durationTicks": 120,
          "midi": 48,
          "name": "C3",
          "ticks": 36000,
          "time": 115.3203125,
          "velocity": 0.7874015748031497
        },
        {
          "duration": 0.1171875,
          "durationTicks": 60,
          "midi": 60,
          "name": "C4",
          "ticks": 36120,
          "time": 115.5546875,
          "velocity": 0.7874015748031497
        },
        {
          "duration": 0.1171875,
          "durationTicks": 60,
          "midi": 59,
          "name": "B3",
          "ticks": 36180,
          "time": 115.671875,
          "velocity": 0.7874015748031497
        },
        {
          "duration": 0.234375,
          "durationTicks": 120,
          "midi": 60,
          "name": "C4",
          "ticks": 36240,
          "time": 115.7890625,
          "velocity": 0.7874015748031497
        },
        {
          "duration": 0.234375,
          "durationTicks": 120,
          "midi": 54,
          "name": "F#3",
          "ticks": 36360,
          "time": 116.0234375,
          "velocity": 0.7874015748031497
        },
        {
          "duration": 0.234375,
          "durationTicks": 120,
          "midi": 57,
          "name": "A3",
          "ticks": 36480,
          "time": 116.2578125,
          "velocity": 0.7874015748031497
        },
        {
          "duration": 0.234375,
          "durationTicks": 120,
          "midi": 60,
          "name": "C4",
          "ticks": 36600,
          "time": 116.4921875,
          "velocity": 0.7874015748031497
        },
        {
          "duration": 0.234375,
          "durationTicks": 120,
          "midi": 57,
          "name": "A3",
          "ticks": 36720,
          "time": 116.7265625,
          "velocity": 0.7874015748031497
        },
        {
          "duration": 0.234375,
          "durationTicks": 120,
          "midi": 54,
          "name": "F#3",
          "ticks": 36840,
          "time": 116.9609375,
          "velocity": 0.7874015748031497
        },
        {
          "duration": 0.1171875,
          "durationTicks": 60,
          "midi": 51,
          "name": "D#3",
          "ticks": 36960,
          "time": 117.1953125,
          "velocity": 0.7874015748031497
        },
        {
          "duration": 0.1171875,
          "durationTicks": 60,
          "midi": 47,
          "name": "B2",
          "ticks": 37020,
          "time": 117.3125,
          "velocity": 0.7874015748031497
        },
        {
          "duration": 0.1171875,
          "durationTicks": 60,
          "midi": 51,
          "name": "D#3",
          "ticks": 37080,
          "time": 117.4296875,
          "velocity": 0.7874015748031497
        },
        {
          "duration": 0.1171875,
          "durationTicks": 60,
          "midi": 54,
          "name": "F#3",
          "ticks": 37140,
          "time": 117.546875,
          "velocity": 0.7874015748031497
        },
        {
          "duration": 0.1171875,
          "durationTicks": 60,
          "midi": 59,
          "name": "B3",
          "ticks": 37200,
          "time": 117.6640625,
          "velocity": 0.7874015748031497
        },
        {
          "duration": 0.1171875,
          "durationTicks": 60,
          "midi": 63,
          "name": "D#4",
          "ticks": 37260,
          "time": 117.78125,
          "velocity": 0.7874015748031497
        },
        {
          "duration": 0.1171875,
          "durationTicks": 60,
          "midi": 66,
          "name": "F#4",
          "ticks": 37320,
          "time": 117.8984375,
          "velocity": 0.7874015748031497
        },
        {
          "duration": 0.1171875,
          "durationTicks": 60,
          "midi": 69,
          "name": "A4",
          "ticks": 37380,
          "time": 118.015625,
          "velocity": 0.7874015748031497
        },
        {
          "duration": 0.3515625,
          "durationTicks": 180,
          "midi": 67,
          "name": "G4",
          "ticks": 37440,
          "time": 118.1328125,
          "velocity": 0.7874015748031497
        },
        {
          "duration": 0.1171875,
          "durationTicks": 60,
          "midi": 66,
          "name": "F#4",
          "ticks": 37620,
          "time": 118.484375,
          "velocity": 0.7874015748031497
        },
        {
          "duration": 0.3515625,
          "durationTicks": 180,
          "midi": 67,
          "name": "G4",
          "ticks": 37680,
          "time": 118.6015625,
          "velocity": 0.7874015748031497
        },
        {
          "duration": 0.1171875,
          "durationTicks": 60,
          "midi": 54,
          "name": "F#3",
          "ticks": 37860,
          "time": 118.953125,
          "velocity": 0.7874015748031497
        },
        {
          "duration": 0.3515625,
          "durationTicks": 180,
          "midi": 55,
          "name": "G3",
          "ticks": 37920,
          "time": 119.0703125,
          "velocity": 0.7874015748031497
        },
        {
          "duration": 0.1171875,
          "durationTicks": 60,
          "midi": 47,
          "name": "B2",
          "ticks": 38100,
          "time": 119.421875,
          "velocity": 0.7874015748031497
        },
        {
          "duration": 0.3515625,
          "durationTicks": 180,
          "midi": 48,
          "name": "C3",
          "ticks": 38160,
          "time": 119.5390625,
          "velocity": 0.7874015748031497
        },
        {
          "duration": 0.1171875,
          "durationTicks": 60,
          "midi": 71,
          "name": "B4",
          "ticks": 38340,
          "time": 119.890625,
          "velocity": 0.7874015748031497
        },
        {
          "duration": 0.3515625,
          "durationTicks": 180,
          "midi": 72,
          "name": "C5",
          "ticks": 38400,
          "time": 120.0078125,
          "velocity": 0.7874015748031497
        },
        {
          "duration": 0.1171875,
          "durationTicks": 60,
          "midi": 59,
          "name": "B3",
          "ticks": 38580,
          "time": 120.359375,
          "velocity": 0.7874015748031497
        },
        {
          "duration": 0.3515625,
          "durationTicks": 180,
          "midi": 60,
          "name": "C4",
          "ticks": 38640,
          "time": 120.4765625,
          "velocity": 0.7874015748031497
        },
        {
          "duration": 0.1171875,
          "durationTicks": 60,
          "midi": 52,
          "name": "E3",
          "ticks": 38820,
          "time": 120.828125,
          "velocity": 0.7874015748031497
        },
        {
          "duration": 0.234375,
          "durationTicks": 120,
          "midi": 51,
          "name": "D#3",
          "ticks": 38880,
          "time": 120.9453125,
          "velocity": 0.7874015748031497
        },
        {
          "duration": 0.234375,
          "durationTicks": 120,
          "midi": 57,
          "name": "A3",
          "ticks": 39000,
          "time": 121.1796875,
          "velocity": 0.7874015748031497
        },
        {
          "duration": 0.234375,
          "durationTicks": 120,
          "midi": 55,
          "name": "G3",
          "ticks": 39120,
          "time": 121.4140625,
          "velocity": 0.7874015748031497
        },
        {
          "duration": 0.234375,
          "durationTicks": 120,
          "midi": 46,
          "name": "A#2",
          "ticks": 39240,
          "time": 121.6484375,
          "velocity": 0.7874015748031497
        },
        {
          "duration": 0.234375,
          "durationTicks": 120,
          "midi": 47,
          "name": "B2",
          "ticks": 39360,
          "time": 121.8828125,
          "velocity": 0.7874015748031497
        },
        {
          "duration": 0.234375,
          "durationTicks": 120,
          "midi": 54,
          "name": "F#3",
          "ticks": 39480,
          "time": 122.1171875,
          "velocity": 0.7874015748031497
        },
        {
          "duration": 0.234375,
          "durationTicks": 120,
          "midi": 52,
          "name": "E3",
          "ticks": 39600,
          "time": 122.3515625,
          "velocity": 0.7874015748031497
        },
        {
          "duration": 0.1171875,
          "durationTicks": 60,
          "midi": 55,
          "name": "G3",
          "ticks": 39720,
          "time": 122.5859375,
          "velocity": 0.7874015748031497
        },
        {
          "duration": 0.1171875,
          "durationTicks": 60,
          "midi": 54,
          "name": "F#3",
          "ticks": 39780,
          "time": 122.703125,
          "velocity": 0.7874015748031497
        },
        {
          "duration": 0.234375,
          "durationTicks": 120,
          "midi": 55,
          "name": "G3",
          "ticks": 39840,
          "time": 122.8203125,
          "velocity": 0.7874015748031497
        },
        {
          "duration": 0.234375,
          "durationTicks": 120,
          "midi": 52,
          "name": "E3",
          "ticks": 39960,
          "time": 123.0546875,
          "velocity": 0.7874015748031497
        },
        {
          "duration": 0.234375,
          "durationTicks": 120,
          "midi": 40,
          "name": "E2",
          "ticks": 40080,
          "time": 123.2890625,
          "velocity": 0.7874015748031497
        },
        {
          "duration": 0.234375,
          "durationTicks": 120,
          "midi": 52,
          "name": "E3",
          "ticks": 40200,
          "time": 123.5234375,
          "velocity": 0.7874015748031497
        },
        {
          "duration": 0.1171875,
          "durationTicks": 60,
          "midi": 48,
          "name": "C3",
          "ticks": 40320,
          "time": 123.7578125,
          "velocity": 0.7874015748031497
        },
        {
          "duration": 0.1171875,
          "durationTicks": 60,
          "midi": 52,
          "name": "E3",
          "ticks": 40380,
          "time": 123.875,
          "velocity": 0.7874015748031497
        },
        {
          "duration": 0.1171875,
          "durationTicks": 60,
          "midi": 57,
          "name": "A3",
          "ticks": 40440,
          "time": 123.9921875,
          "velocity": 0.7874015748031497
        },
        {
          "duration": 0.1171875,
          "durationTicks": 60,
          "midi": 60,
          "name": "C4",
          "ticks": 40500,
          "time": 124.109375,
          "velocity": 0.7874015748031497
        },
        {
          "duration": 0.1171875,
          "durationTicks": 60,
          "midi": 64,
          "name": "E4",
          "ticks": 40560,
          "time": 124.2265625,
          "velocity": 0.7874015748031497
        },
        {
          "duration": 0.1171875,
          "durationTicks": 60,
          "midi": 60,
          "name": "C4",
          "ticks": 40620,
          "time": 124.34375,
          "velocity": 0.7874015748031497
        },
        {
          "duration": 0.1171875,
          "durationTicks": 60,
          "midi": 57,
          "name": "A3",
          "ticks": 40680,
          "time": 124.4609375,
          "velocity": 0.7874015748031497
        },
        {
          "duration": 0.1171875,
          "durationTicks": 60,
          "midi": 52,
          "name": "E3",
          "ticks": 40740,
          "time": 124.578125,
          "velocity": 0.7874015748031497
        },
        {
          "duration": 0.1171875,
          "durationTicks": 60,
          "midi": 48,
          "name": "C3",
          "ticks": 40800,
          "time": 124.6953125,
          "velocity": 0.7874015748031497
        },
        {
          "duration": 0.1171875,
          "durationTicks": 60,
          "midi": 52,
          "name": "E3",
          "ticks": 40860,
          "time": 124.8125,
          "velocity": 0.7874015748031497
        },
        {
          "duration": 0.1171875,
          "durationTicks": 60,
          "midi": 50,
          "name": "D3",
          "ticks": 40920,
          "time": 124.9296875,
          "velocity": 0.7874015748031497
        },
        {
          "duration": 0.1171875,
          "durationTicks": 60,
          "midi": 48,
          "name": "C3",
          "ticks": 40980,
          "time": 125.046875,
          "velocity": 0.7874015748031497
        },
        {
          "duration": 0.1171875,
          "durationTicks": 60,
          "midi": 47,
          "name": "B2",
          "ticks": 41040,
          "time": 125.1640625,
          "velocity": 0.7874015748031497
        },
        {
          "duration": 0.1171875,
          "durationTicks": 60,
          "midi": 50,
          "name": "D3",
          "ticks": 41100,
          "time": 125.28125,
          "velocity": 0.7874015748031497
        },
        {
          "duration": 0.1171875,
          "durationTicks": 60,
          "midi": 55,
          "name": "G3",
          "ticks": 41160,
          "time": 125.3984375,
          "velocity": 0.7874015748031497
        },
        {
          "duration": 0.1171875,
          "durationTicks": 60,
          "midi": 59,
          "name": "B3",
          "ticks": 41220,
          "time": 125.515625,
          "velocity": 0.7874015748031497
        },
        {
          "duration": 0.1171875,
          "durationTicks": 60,
          "midi": 62,
          "name": "D4",
          "ticks": 41280,
          "time": 125.6328125,
          "velocity": 0.7874015748031497
        },
        {
          "duration": 0.1171875,
          "durationTicks": 60,
          "midi": 59,
          "name": "B3",
          "ticks": 41340,
          "time": 125.75,
          "velocity": 0.7874015748031497
        },
        {
          "duration": 0.1171875,
          "durationTicks": 60,
          "midi": 55,
          "name": "G3",
          "ticks": 41400,
          "time": 125.8671875,
          "velocity": 0.7874015748031497
        },
        {
          "duration": 0.1171875,
          "durationTicks": 60,
          "midi": 50,
          "name": "D3",
          "ticks": 41460,
          "time": 125.984375,
          "velocity": 0.7874015748031497
        },
        {
          "duration": 0.1171875,
          "durationTicks": 60,
          "midi": 47,
          "name": "B2",
          "ticks": 41520,
          "time": 126.1015625,
          "velocity": 0.7874015748031497
        },
        {
          "duration": 0.1171875,
          "durationTicks": 60,
          "midi": 50,
          "name": "D3",
          "ticks": 41580,
          "time": 126.21875,
          "velocity": 0.7874015748031497
        },
        {
          "duration": 0.1171875,
          "durationTicks": 60,
          "midi": 48,
          "name": "C3",
          "ticks": 41640,
          "time": 126.3359375,
          "velocity": 0.7874015748031497
        },
        {
          "duration": 0.1171875,
          "durationTicks": 60,
          "midi": 47,
          "name": "B2",
          "ticks": 41700,
          "time": 126.453125,
          "velocity": 0.7874015748031497
        },
        {
          "duration": 0.234375,
          "durationTicks": 120,
          "midi": 45,
          "name": "A2",
          "ticks": 41760,
          "time": 126.5703125,
          "velocity": 0.7874015748031497
        },
        {
          "duration": 0.234375,
          "durationTicks": 120,
          "midi": 48,
          "name": "C3",
          "ticks": 41880,
          "time": 126.8046875,
          "velocity": 0.7874015748031497
        },
        {
          "duration": 0.234375,
          "durationTicks": 120,
          "midi": 52,
          "name": "E3",
          "ticks": 42000,
          "time": 127.0390625,
          "velocity": 0.7874015748031497
        },
        {
          "duration": 0.234375,
          "durationTicks": 120,
          "midi": 55,
          "name": "G3",
          "ticks": 42120,
          "time": 127.2734375,
          "velocity": 0.7874015748031497
        },
        {
          "duration": 0.234375,
          "durationTicks": 120,
          "midi": 54,
          "name": "F#3",
          "ticks": 42240,
          "time": 127.5078125,
          "velocity": 0.7874015748031497
        },
        {
          "duration": 0.234375,
          "durationTicks": 120,
          "midi": 52,
          "name": "E3",
          "ticks": 42360,
          "time": 127.7421875,
          "velocity": 0.7874015748031497
        },
        {
          "duration": 0.234375,
          "durationTicks": 120,
          "midi": 50,
          "name": "D3",
          "ticks": 42480,
          "time": 127.9765625,
          "velocity": 0.7874015748031497
        },
        {
          "duration": 0.234375,
          "durationTicks": 120,
          "midi": 54,
          "name": "F#3",
          "ticks": 42600,
          "time": 128.2109375,
          "velocity": 0.7874015748031497
        },
        {
          "duration": 0.234375,
          "durationTicks": 120,
          "midi": 57,
          "name": "A3",
          "ticks": 42720,
          "time": 128.4453125,
          "velocity": 0.7874015748031497
        },
        {
          "duration": 0.234375,
          "durationTicks": 120,
          "midi": 60,
          "name": "C4",
          "ticks": 42840,
          "time": 128.6796875,
          "velocity": 0.7874015748031497
        },
        {
          "duration": 0.234375,
          "durationTicks": 120,
          "midi": 59,
          "name": "B3",
          "ticks": 42960,
          "time": 128.9140625,
          "velocity": 0.7874015748031497
        },
        {
          "duration": 0.234375,
          "durationTicks": 120,
          "midi": 57,
          "name": "A3",
          "ticks": 43080,
          "time": 129.1484375,
          "velocity": 0.7874015748031497
        },
        {
          "duration": 0.234375,
          "durationTicks": 120,
          "midi": 55,
          "name": "G3",
          "ticks": 43200,
          "time": 129.3828125,
          "velocity": 0.7874015748031497
        },
        {
          "duration": 0.234375,
          "durationTicks": 120,
          "midi": 59,
          "name": "B3",
          "ticks": 43320,
          "time": 129.6171875,
          "velocity": 0.7874015748031497
        },
        {
          "duration": 0.234375,
          "durationTicks": 120,
          "midi": 62,
          "name": "D4",
          "ticks": 43440,
          "time": 129.8515625,
          "velocity": 0.7874015748031497
        },
        {
          "duration": 0.234375,
          "durationTicks": 120,
          "midi": 65,
          "name": "F4",
          "ticks": 43560,
          "time": 130.0859375,
          "velocity": 0.7874015748031497
        },
        {
          "duration": 0.234375,
          "durationTicks": 120,
          "midi": 64,
          "name": "E4",
          "ticks": 43680,
          "time": 130.3203125,
          "velocity": 0.7874015748031497
        },
        {
          "duration": 0.234375,
          "durationTicks": 120,
          "midi": 62,
          "name": "D4",
          "ticks": 43800,
          "time": 130.5546875,
          "velocity": 0.7874015748031497
        },
        {
          "duration": 0.234375,
          "durationTicks": 120,
          "midi": 60,
          "name": "C4",
          "ticks": 43920,
          "time": 130.7890625,
          "velocity": 0.7874015748031497
        },
        {
          "duration": 0.234375,
          "durationTicks": 120,
          "midi": 64,
          "name": "E4",
          "ticks": 44040,
          "time": 131.0234375,
          "velocity": 0.7874015748031497
        },
        {
          "duration": 0.234375,
          "durationTicks": 120,
          "midi": 66,
          "name": "F#4",
          "ticks": 44160,
          "time": 131.2578125,
          "velocity": 0.7874015748031497
        },
        {
          "duration": 0.234375,
          "durationTicks": 120,
          "midi": 68,
          "name": "G#4",
          "ticks": 44280,
          "time": 131.4921875,
          "velocity": 0.7874015748031497
        },
        {
          "duration": 0.234375,
          "durationTicks": 120,
          "midi": 69,
          "name": "A4",
          "ticks": 44400,
          "time": 131.7265625,
          "velocity": 0.7874015748031497
        },
        {
          "duration": 0.234375,
          "durationTicks": 120,
          "midi": 67,
          "name": "G4",
          "ticks": 44520,
          "time": 131.9609375,
          "velocity": 0.7874015748031497
        },
        {
          "duration": 0.234375,
          "durationTicks": 120,
          "midi": 66,
          "name": "F#4",
          "ticks": 44640,
          "time": 132.1953125,
          "velocity": 0.7874015748031497
        },
        {
          "duration": 0.234375,
          "durationTicks": 120,
          "midi": 62,
          "name": "D4",
          "ticks": 44760,
          "time": 132.4296875,
          "velocity": 0.7874015748031497
        },
        {
          "duration": 0.234375,
          "durationTicks": 120,
          "midi": 67,
          "name": "G4",
          "ticks": 44880,
          "time": 132.6640625,
          "velocity": 0.7874015748031497
        },
        {
          "duration": 0.234375,
          "durationTicks": 120,
          "midi": 55,
          "name": "G3",
          "ticks": 45000,
          "time": 132.8984375,
          "velocity": 0.7874015748031497
        },
        {
          "duration": 0.234375,
          "durationTicks": 120,
          "midi": 62,
          "name": "D4",
          "ticks": 45120,
          "time": 133.1328125,
          "velocity": 0.7874015748031497
        },
        {
          "duration": 0.234375,
          "durationTicks": 120,
          "midi": 50,
          "name": "D3",
          "ticks": 45240,
          "time": 133.3671875,
          "velocity": 0.7874015748031497
        },
        {
          "duration": 0.234375,
          "durationTicks": 120,
          "midi": 55,
          "name": "G3",
          "ticks": 45360,
          "time": 133.6015625,
          "velocity": 0.7874015748031497
        },
        {
          "duration": 0.234375,
          "durationTicks": 120,
          "midi": 43,
          "name": "G2",
          "ticks": 45480,
          "time": 133.8359375,
          "velocity": 0.7874015748031497
        },
        {
          "duration": 0.234375,
          "durationTicks": 120,
          "midi": 47,
          "name": "B2",
          "ticks": 45600,
          "time": 134.0703125,
          "velocity": 0.7874015748031497
        },
        {
          "duration": 0.234375,
          "durationTicks": 120,
          "midi": 38,
          "name": "D2",
          "ticks": 45720,
          "time": 134.3046875,
          "velocity": 0.7874015748031497
        },
        {
          "duration": 0.46875,
          "durationTicks": 240,
          "midi": 28,
          "name": "E1",
          "ticks": 45840,
          "time": 134.5390625,
          "velocity": 0.7874015748031497
        },
        {
          "duration": 0.46875,
          "durationTicks": 240,
          "midi": 43,
          "name": "G2",
          "ticks": 45840,
          "time": 134.5390625,
          "velocity": 0.7874015748031497
        },
        {
          "duration": 0.8571420000000103,
          "durationTicks": 240,
          "midi": 71,
          "name": "B4",
          "ticks": 46080,
          "time": 135.0078125,
          "velocity": 0.7874015748031497
        },
        {
          "duration": 0.07142849999999612,
          "durationTicks": 20,
          "midi": 76,
          "name": "E5",
          "ticks": 46320,
          "time": 135.8649545,
          "velocity": 0.7874015748031497
        },
        {
          "duration": 0.07142849999999612,
          "durationTicks": 20,
          "midi": 74,
          "name": "D5",
          "ticks": 46340,
          "time": 135.936383,
          "velocity": 0.7874015748031497
        },
        {
          "duration": 0.07142849999999612,
          "durationTicks": 20,
          "midi": 79,
          "name": "G5",
          "ticks": 46360,
          "time": 136.0078115,
          "velocity": 0.7874015748031497
        },
        {
          "duration": 1.0714274999999986,
          "durationTicks": 300,
          "midi": 76,
          "name": "E5",
          "ticks": 46380,
          "time": 136.07924,
          "velocity": 0.7874015748031497
        },
        {
          "duration": 0.21428550000001678,
          "durationTicks": 60,
          "midi": 74,
          "name": "D5",
          "ticks": 46680,
          "time": 137.1506675,
          "velocity": 0.7874015748031497
        },
        {
          "duration": 0.21428549999998836,
          "durationTicks": 60,
          "midi": 72,
          "name": "C5",
          "ticks": 46740,
          "time": 137.364953,
          "velocity": 0.7874015748031497
        },
        {
          "duration": 0.21428549999998836,
          "durationTicks": 60,
          "midi": 74,
          "name": "D5",
          "ticks": 46800,
          "time": 137.5792385,
          "velocity": 0.7874015748031497
        },
        {
          "duration": 0.21428550000001678,
          "durationTicks": 60,
          "midi": 72,
          "name": "C5",
          "ticks": 46860,
          "time": 137.793524,
          "velocity": 0.7874015748031497
        },
        {
          "duration": 0.21428549999998836,
          "durationTicks": 60,
          "midi": 71,
          "name": "B4",
          "ticks": 46920,
          "time": 138.0078095,
          "velocity": 0.7874015748031497
        },
        {
          "duration": 0.21428550000001678,
          "durationTicks": 60,
          "midi": 69,
          "name": "A4",
          "ticks": 46980,
          "time": 138.222095,
          "velocity": 0.7874015748031497
        },
        {
          "duration": 0.8571419999999819,
          "durationTicks": 240,
          "midi": 67,
          "name": "G4",
          "ticks": 47040,
          "time": 138.4363805,
          "velocity": 0.7874015748031497
        },
        {
          "duration": 0.42857100000000514,
          "durationTicks": 120,
          "midi": 81,
          "name": "A5",
          "ticks": 47400,
          "time": 139.7220935,
          "velocity": 0.7874015748031497
        },
        {
          "duration": 0.42857100000000514,
          "durationTicks": 120,
          "midi": 78,
          "name": "F#5",
          "ticks": 47520,
          "time": 140.1506645,
          "velocity": 0.7874015748031497
        },
        {
          "duration": 0.42857100000000514,
          "durationTicks": 120,
          "midi": 74,
          "name": "D5",
          "ticks": 47640,
          "time": 140.5792355,
          "velocity": 0.7874015748031497
        },
        {
          "duration": 0.21428549999998836,
          "durationTicks": 60,
          "midi": 74,
          "name": "D5",
          "ticks": 48060,
          "time": 142.079234,
          "velocity": 0.7874015748031497
        },
        {
          "duration": 0.21428549999998836,
          "durationTicks": 60,
          "midi": 72,
          "name": "C5",
          "ticks": 48120,
          "time": 142.2935195,
          "velocity": 0.7874015748031497
        },
        {
          "duration": 0.21428550000001678,
          "durationTicks": 60,
          "midi": 76,
          "name": "E5",
          "ticks": 48180,
          "time": 142.507805,
          "velocity": 0.7874015748031497
        },
        {
          "duration": 0.42857100000000514,
          "durationTicks": 120,
          "midi": 74,
          "name": "D5",
          "ticks": 48240,
          "time": 142.7220905,
          "velocity": 0.7874015748031497
        },
        {
          "duration": 0.6428564999999935,
          "durationTicks": 180,
          "midi": 71,
          "name": "B4",
          "ticks": 48360,
          "time": 143.1506615,
          "velocity": 0.7874015748031497
        },
        {
          "duration": 0.21428549999998836,
          "durationTicks": 60,
          "midi": 69,
          "name": "A4",
          "ticks": 48540,
          "time": 143.793518,
          "velocity": 0.7874015748031497
        },
        {
          "duration": 0.21428550000001678,
          "durationTicks": 60,
          "midi": 67,
          "name": "G4",
          "ticks": 48600,
          "time": 144.0078035,
          "velocity": 0.7874015748031497
        },
        {
          "duration": 0.21428549999998836,
          "durationTicks": 60,
          "midi": 71,
          "name": "B4",
          "ticks": 48660,
          "time": 144.222089,
          "velocity": 0.7874015748031497
        },
        {
          "duration": 0.42857100000000514,
          "durationTicks": 120,
          "midi": 69,
          "name": "A4",
          "ticks": 48720,
          "time": 144.4363745,
          "velocity": 0.7874015748031497
        },
        {
          "duration": 0.6428564999999935,
          "durationTicks": 180,
          "midi": 67,
          "name": "G4",
          "ticks": 48840,
          "time": 144.8649455,
          "velocity": 0.7874015748031497
        },
        {
          "duration": 0.21428549999998836,
          "durationTicks": 60,
          "midi": 66,
          "name": "F#4",
          "ticks": 49020,
          "time": 145.507802,
          "velocity": 0.7874015748031497
        },
        {
          "duration": 0.21428550000001678,
          "durationTicks": 60,
          "midi": 64,
          "name": "E4",
          "ticks": 49080,
          "time": 145.7220875,
          "velocity": 0.7874015748031497
        },
        {
          "duration": 0.21428549999998836,
          "durationTicks": 60,
          "midi": 67,
          "name": "G4",
          "ticks": 49140,
          "time": 145.936373,
          "velocity": 0.7874015748031497
        },
        {
          "duration": 0.8571420000000103,
          "durationTicks": 240,
          "midi": 66,
          "name": "F#4",
          "ticks": 49200,
          "time": 146.1506585,
          "velocity": 0.7874015748031497
        },
        {
          "duration": 0.8571420000000103,
          "durationTicks": 240,
          "midi": 67,
          "name": "G4",
          "ticks": 49440,
          "time": 147.0078005,
          "velocity": 0.7874015748031497
        },
        {
          "duration": 0.21428550000001678,
          "durationTicks": 60,
          "midi": 67,
          "name": "G4",
          "ticks": 49920,
          "time": 148.7220845,
          "velocity": 0.7874015748031497
        },
        {
          "duration": 0.21428549999998836,
          "durationTicks": 60,
          "midi": 69,
          "name": "A4",
          "ticks": 49980,
          "time": 148.93637,
          "velocity": 0.7874015748031497
        },
        {
          "duration": 0.21428549999998836,
          "durationTicks": 60,
          "midi": 71,
          "name": "B4",
          "ticks": 50040,
          "time": 149.1506555,
          "velocity": 0.7874015748031497
        },
        {
          "duration": 0.21428550000001678,
          "durationTicks": 60,
          "midi": 74,
          "name": "D5",
          "ticks": 50100,
          "time": 149.364941,
          "velocity": 0.7874015748031497
        },
        {
          "duration": 1.0714274999999986,
          "durationTicks": 300,
          "midi": 76,
          "name": "E5",
          "ticks": 50160,
          "time": 149.5792265,
          "velocity": 0.7874015748031497
        },
        {
          "duration": 0.21428549999998836,
          "durationTicks": 60,
          "midi": 74,
          "name": "D5",
          "ticks": 50460,
          "time": 150.650654,
          "velocity": 0.7874015748031497
        },
        {
          "duration": 0.21428550000001678,
          "durationTicks": 60,
          "midi": 73,
          "name": "C#5",
          "ticks": 50520,
          "time": 150.8649395,
          "velocity": 0.7874015748031497
        },
        {
          "duration": 0.21428549999998836,
          "durationTicks": 60,
          "midi": 76,
          "name": "E5",
          "ticks": 50580,
          "time": 151.079225,
          "velocity": 0.7874015748031497
        },
        {
          "duration": 0.21428550000001678,
          "durationTicks": 60,
          "midi": 74,
          "name": "D5",
          "ticks": 50640,
          "time": 151.2935105,
          "velocity": 0.7874015748031497
        },
        {
          "duration": 0.21428549999998836,
          "durationTicks": 60,
          "midi": 73,
          "name": "C#5",
          "ticks": 50700,
          "time": 151.507796,
          "velocity": 0.7874015748031497
        },
        {
          "duration": 0.21428549999998836,
          "durationTicks": 60,
          "midi": 71,
          "name": "B4",
          "ticks": 50760,
          "time": 151.7220815,
          "velocity": 0.7874015748031497
        },
        {
          "duration": 0.21428550000001678,
          "durationTicks": 60,
          "midi": 69,
          "name": "A4",
          "ticks": 50820,
          "time": 151.936367,
          "velocity": 0.7874015748031497
        },
        {
          "duration": 0.8571419999999819,
          "durationTicks": 240,
          "midi": 67,
          "name": "G4",
          "ticks": 50880,
          "time": 152.1506525,
          "velocity": 0.7874015748031497
        },
        {
          "duration": 0.42857100000000514,
          "durationTicks": 120,
          "midi": 79,
          "name": "G5",
          "ticks": 51240,
          "time": 153.4363655,
          "velocity": 0.7874015748031497
        },
        {
          "duration": 0.42857100000000514,
          "durationTicks": 120,
          "midi": 76,
          "name": "E5",
          "ticks": 51360,
          "time": 153.8649365,
          "velocity": 0.7874015748031497
        },
        {
          "duration": 0.42857100000000514,
          "durationTicks": 120,
          "midi": 73,
          "name": "C#5",
          "ticks": 51480,
          "time": 154.2935075,
          "velocity": 0.7874015748031497
        },
        {
          "duration": 0.21428549999998836,
          "durationTicks": 60,
          "midi": 69,
          "name": "A4",
          "ticks": 51900,
          "time": 155.793506,
          "velocity": 0.7874015748031497
        },
        {
          "duration": 0.21428550000001678,
          "durationTicks": 60,
          "midi": 67,
          "name": "G4",
          "ticks": 51960,
          "time": 156.0077915,
          "velocity": 0.7874015748031497
        },
        {
          "duration": 0.21428549999998836,
          "durationTicks": 60,
          "midi": 71,
          "name": "B4",
          "ticks": 52020,
          "time": 156.222077,
          "velocity": 0.7874015748031497
        },
        {
          "duration": 0.42857100000000514,
          "durationTicks": 120,
          "midi": 69,
          "name": "A4",
          "ticks": 52080,
          "time": 156.4363625,
          "velocity": 0.7874015748031497
        },
        {
          "duration": 0.6428564999999935,
          "durationTicks": 180,
          "midi": 66,
          "name": "F#4",
          "ticks": 52200,
          "time": 156.8649335,
          "velocity": 0.7874015748031497
        },
        {
          "duration": 0.21428550000001678,
          "durationTicks": 60,
          "midi": 64,
          "name": "E4",
          "ticks": 52380,
          "time": 157.50779,
          "velocity": 0.7874015748031497
        },
        {
          "duration": 0.21428549999998836,
          "durationTicks": 60,
          "midi": 62,
          "name": "D4",
          "ticks": 52440,
          "time": 157.72207550000002,
          "velocity": 0.7874015748031497
        },
        {
          "duration": 0.21428549999998836,
          "durationTicks": 60,
          "midi": 66,
          "name": "F#4",
          "ticks": 52500,
          "time": 157.936361,
          "velocity": 0.7874015748031497
        },
        {
          "duration": 0.42857100000000514,
          "durationTicks": 120,
          "midi": 64,
          "name": "E4",
          "ticks": 52560,
          "time": 158.1506465,
          "velocity": 0.7874015748031497
        },
        {
          "duration": 0.6428564999999935,
          "durationTicks": 180,
          "midi": 62,
          "name": "D4",
          "ticks": 52680,
          "time": 158.5792175,
          "velocity": 0.7874015748031497
        },
        {
          "duration": 0.21428550000001678,
          "durationTicks": 60,
          "midi": 61,
          "name": "C#4",
          "ticks": 52860,
          "time": 159.222074,
          "velocity": 0.7874015748031497
        },
        {
          "duration": 0.21428549999998836,
          "durationTicks": 60,
          "midi": 59,
          "name": "B3",
          "ticks": 52920,
          "time": 159.4363595,
          "velocity": 0.7874015748031497
        },
        {
          "duration": 0.21428550000001678,
          "durationTicks": 60,
          "midi": 62,
          "name": "D4",
          "ticks": 52980,
          "time": 159.650645,
          "velocity": 0.7874015748031497
        },
        {
          "duration": 0.8571419999999819,
          "durationTicks": 240,
          "midi": 61,
          "name": "C#4",
          "ticks": 53040,
          "time": 159.8649305,
          "velocity": 0.7874015748031497
        },
        {
          "duration": 0.8571420000000103,
          "durationTicks": 240,
          "midi": 62,
          "name": "D4",
          "ticks": 53280,
          "time": 160.7220725,
          "velocity": 0.7874015748031497
        },
        {
          "duration": 0.21428549999998836,
          "durationTicks": 60,
          "midi": 78,
          "name": "F#5",
          "ticks": 53820,
          "time": 162.650642,
          "velocity": 0.7874015748031497
        },
        {
          "duration": 0.21428550000001678,
          "durationTicks": 60,
          "midi": 76,
          "name": "E5",
          "ticks": 53880,
          "time": 162.8649275,
          "velocity": 0.7874015748031497
        },
        {
          "duration": 0.21428549999998836,
          "durationTicks": 60,
          "midi": 79,
          "name": "G5",
          "ticks": 53940,
          "time": 163.079213,
          "velocity": 0.7874015748031497
        },
        {
          "duration": 0.21428550000001678,
          "durationTicks": 60,
          "midi": 78,
          "name": "F#5",
          "ticks": 54000,
          "time": 163.2934985,
          "velocity": 0.7874015748031497
        },
        {
          "duration": 0.21428549999998836,
          "durationTicks": 60,
          "midi": 76,
          "name": "E5",
          "ticks": 54060,
          "time": 163.50778400000002,
          "velocity": 0.7874015748031497
        },
        {
          "duration": 0.21428549999998836,
          "durationTicks": 60,
          "midi": 74,
          "name": "D5",
          "ticks": 54120,
          "time": 163.7220695,
          "velocity": 0.7874015748031497
        },
        {
          "duration": 0.21428550000001678,
          "durationTicks": 60,
          "midi": 73,
          "name": "C#5",
          "ticks": 54180,
          "time": 163.936355,
          "velocity": 0.7874015748031497
        },
        {
          "duration": 0.8571419999999819,
          "durationTicks": 240,
          "midi": 74,
          "name": "D5",
          "ticks": 54240,
          "time": 164.1506405,
          "velocity": 0.7874015748031497
        },
        {
          "duration": 0.42857100000000514,
          "durationTicks": 120,
          "midi": 71,
          "name": "B4",
          "ticks": 54600,
          "time": 165.4363535,
          "velocity": 0.7874015748031497
        },
        {
          "duration": 0.42857100000000514,
          "durationTicks": 120,
          "midi": 67,
          "name": "G4",
          "ticks": 54720,
          "time": 165.8649245,
          "velocity": 0.7874015748031497
        },
        {
          "duration": 0.42857100000000514,
          "durationTicks": 120,
          "midi": 64,
          "name": "E4",
          "ticks": 54840,
          "time": 166.2934955,
          "velocity": 0.7874015748031497
        },
        {
          "duration": 1.0714274999999986,
          "durationTicks": 300,
          "midi": 69,
          "name": "A4",
          "ticks": 54960,
          "time": 166.7220665,
          "velocity": 0.7874015748031497
        },
        {
          "duration": 0.21428549999998836,
          "durationTicks": 60,
          "midi": 67,
          "name": "G4",
          "ticks": 55260,
          "time": 167.793494,
          "velocity": 0.7874015748031497
        },
        {
          "duration": 0.21428549999998836,
          "durationTicks": 60,
          "midi": 66,
          "name": "F#4",
          "ticks": 55320,
          "time": 168.0077795,
          "velocity": 0.7874015748031497
        },
        {
          "duration": 0.21428550000001678,
          "durationTicks": 60,
          "midi": 69,
          "name": "A4",
          "ticks": 55380,
          "time": 168.222065,
          "velocity": 0.7874015748031497
        },
        {
          "duration": 0.21428550000001678,
          "durationTicks": 60,
          "midi": 67,
          "name": "G4",
          "ticks": 55440,
          "time": 168.4363505,
          "velocity": 0.7874015748031497
        },
        {
          "duration": 0.21428549999998836,
          "durationTicks": 60,
          "midi": 66,
          "name": "F#4",
          "ticks": 55500,
          "time": 168.65063600000002,
          "velocity": 0.7874015748031497
        },
        {
          "duration": 0.21428549999998836,
          "durationTicks": 60,
          "midi": 64,
          "name": "E4",
          "ticks": 55560,
          "time": 168.8649215,
          "velocity": 0.7874015748031497
        },
        {
          "duration": 0.21428550000001678,
          "durationTicks": 60,
          "midi": 63,
          "name": "D#4",
          "ticks": 55620,
          "time": 169.079207,
          "velocity": 0.7874015748031497
        },
        {
          "duration": 0.21428549999998836,
          "durationTicks": 60,
          "midi": 64,
          "name": "E4",
          "ticks": 55680,
          "time": 169.2934925,
          "velocity": 0.7874015748031497
        },
        {
          "duration": 0.21428549999998836,
          "durationTicks": 60,
          "midi": 71,
          "name": "B4",
          "ticks": 55740,
          "time": 169.507778,
          "velocity": 0.7874015748031497
        },
        {
          "duration": 0.21428550000001678,
          "durationTicks": 60,
          "midi": 69,
          "name": "A4",
          "ticks": 55800,
          "time": 169.7220635,
          "velocity": 0.7874015748031497
        },
        {
          "duration": 0.21428549999998836,
          "durationTicks": 60,
          "midi": 72,
          "name": "C5",
          "ticks": 55860,
          "time": 169.936349,
          "velocity": 0.7874015748031497
        },
        {
          "duration": 0.42857100000000514,
          "durationTicks": 120,
          "midi": 71,
          "name": "B4",
          "ticks": 55920,
          "time": 170.1506345,
          "velocity": 0.7874015748031497
        },
        {
          "duration": 0.6428564999999935,
          "durationTicks": 180,
          "midi": 67,
          "name": "G4",
          "ticks": 56040,
          "time": 170.5792055,
          "velocity": 0.7874015748031497
        },
        {
          "duration": 0.21428550000001678,
          "durationTicks": 60,
          "midi": 66,
          "name": "F#4",
          "ticks": 56220,
          "time": 171.222062,
          "velocity": 0.7874015748031497
        },
        {
          "duration": 0.21428549999998836,
          "durationTicks": 60,
          "midi": 64,
          "name": "E4",
          "ticks": 56280,
          "time": 171.4363475,
          "velocity": 0.7874015748031497
        },
        {
          "duration": 0.21428549999998836,
          "durationTicks": 60,
          "midi": 67,
          "name": "G4",
          "ticks": 56340,
          "time": 171.650633,
          "velocity": 0.7874015748031497
        },
        {
          "duration": 0.42857100000000514,
          "durationTicks": 120,
          "midi": 66,
          "name": "F#4",
          "ticks": 56400,
          "time": 171.8649185,
          "velocity": 0.7874015748031497
        },
        {
          "duration": 0.6428565000000219,
          "durationTicks": 180,
          "midi": 64,
          "name": "E4",
          "ticks": 56520,
          "time": 172.2934895,
          "velocity": 0.7874015748031497
        },
        {
          "duration": 0.21428549999998836,
          "durationTicks": 60,
          "midi": 63,
          "name": "D#4",
          "ticks": 56700,
          "time": 172.93634600000001,
          "velocity": 0.7874015748031497
        },
        {
          "duration": 0.21428549999998836,
          "durationTicks": 60,
          "midi": 61,
          "name": "C#4",
          "ticks": 56760,
          "time": 173.1506315,
          "velocity": 0.7874015748031497
        },
        {
          "duration": 0.21428550000001678,
          "durationTicks": 60,
          "midi": 64,
          "name": "E4",
          "ticks": 56820,
          "time": 173.364917,
          "velocity": 0.7874015748031497
        },
        {
          "duration": 0.8571420000000103,
          "durationTicks": 240,
          "midi": 63,
          "name": "D#4",
          "ticks": 56880,
          "time": 173.5792025,
          "velocity": 0.7874015748031497
        },
        {
          "duration": 0.8571419999999819,
          "durationTicks": 240,
          "midi": 64,
          "name": "E4",
          "ticks": 57120,
          "time": 174.43634450000002,
          "velocity": 0.7874015748031497
        },
        {
          "duration": 1.0714274999999986,
          "durationTicks": 300,
          "midi": 71,
          "name": "B4",
          "ticks": 57360,
          "time": 175.2934865,
          "velocity": 0.7874015748031497
        },
        {
          "duration": 0.21428550000001678,
          "durationTicks": 60,
          "midi": 69,
          "name": "A4",
          "ticks": 57660,
          "time": 176.364914,
          "velocity": 0.7874015748031497
        },
        {
          "duration": 0.21428549999998836,
          "durationTicks": 60,
          "midi": 67,
          "name": "G4",
          "ticks": 57720,
          "time": 176.57919950000002,
          "velocity": 0.7874015748031497
        },
        {
          "duration": 0.21428549999998836,
          "durationTicks": 60,
          "midi": 71,
          "name": "B4",
          "ticks": 57780,
          "time": 176.793485,
          "velocity": 0.7874015748031497
        },
        {
          "duration": 0.21428550000001678,
          "durationTicks": 60,
          "midi": 69,
          "name": "A4",
          "ticks": 57840,
          "time": 177.0077705,
          "velocity": 0.7874015748031497
        },
        {
          "duration": 0.21428549999998836,
          "durationTicks": 60,
          "midi": 67,
          "name": "G4",
          "ticks": 57900,
          "time": 177.222056,
          "velocity": 0.7874015748031497
        },
        {
          "duration": 0.21428549999998836,
          "durationTicks": 60,
          "midi": 66,
          "name": "F#4",
          "ticks": 57960,
          "time": 177.4363415,
          "velocity": 0.7874015748031497
        },
        {
          "duration": 0.21428550000001678,
          "durationTicks": 60,
          "midi": 64,
          "name": "E4",
          "ticks": 58020,
          "time": 177.650627,
          "velocity": 0.7874015748031497
        },
        {
          "duration": 0.8571420000000103,
          "durationTicks": 240,
          "midi": 62,
          "name": "D4",
          "ticks": 58080,
          "time": 177.8649125,
          "velocity": 0.7874015748031497
        },
        {
          "duration": 1.0714274999999986,
          "durationTicks": 300,
          "midi": 67,
          "name": "G4",
          "ticks": 58320,
          "time": 178.7220545,
          "velocity": 0.7874015748031497
        },
        {
          "duration": 0.21428549999998836,
          "durationTicks": 60,
          "midi": 66,
          "name": "F#4",
          "ticks": 58620,
          "time": 179.793482,
          "velocity": 0.7874015748031497
        },
        {
          "duration": 0.21428550000001678,
          "durationTicks": 60,
          "midi": 64,
          "name": "E4",
          "ticks": 58680,
          "time": 180.0077675,
          "velocity": 0.7874015748031497
        },
        {
          "duration": 0.21428549999998836,
          "durationTicks": 60,
          "midi": 67,
          "name": "G4",
          "ticks": 58740,
          "time": 180.22205300000002,
          "velocity": 0.7874015748031497
        },
        {
          "duration": 0.21428549999998836,
          "durationTicks": 60,
          "midi": 66,
          "name": "F#4",
          "ticks": 58800,
          "time": 180.4363385,
          "velocity": 0.7874015748031497
        },
        {
          "duration": 0.21428550000001678,
          "durationTicks": 60,
          "midi": 64,
          "name": "E4",
          "ticks": 58860,
          "time": 180.650624,
          "velocity": 0.7874015748031497
        },
        {
          "duration": 0.21428549999998836,
          "durationTicks": 60,
          "midi": 62,
          "name": "D4",
          "ticks": 58920,
          "time": 180.8649095,
          "velocity": 0.7874015748031497
        },
        {
          "duration": 0.21428549999998836,
          "durationTicks": 60,
          "midi": 60,
          "name": "C4",
          "ticks": 58980,
          "time": 181.079195,
          "velocity": 0.7874015748031497
        },
        {
          "duration": 0.8571420000000103,
          "durationTicks": 240,
          "midi": 62,
          "name": "D4",
          "ticks": 59040,
          "time": 181.2934805,
          "velocity": 0.7874015748031497
        },
        {
          "duration": 0.8571420000000103,
          "durationTicks": 240,
          "midi": 74,
          "name": "D5",
          "ticks": 59520,
          "time": 183.0077645,
          "velocity": 0.7874015748031497
        },
        {
          "duration": 1.0714274999999702,
          "durationTicks": 300,
          "midi": 77,
          "name": "F5",
          "ticks": 59760,
          "time": 183.86490650000002,
          "velocity": 0.7874015748031497
        },
        {
          "duration": 0.21428550000001678,
          "durationTicks": 60,
          "midi": 76,
          "name": "E5",
          "ticks": 60060,
          "time": 184.936334,
          "velocity": 0.7874015748031497
        },
        {
          "duration": 0.21428550000001678,
          "durationTicks": 60,
          "midi": 74,
          "name": "D5",
          "ticks": 60120,
          "time": 185.1506195,
          "velocity": 0.7874015748031497
        },
        {
          "duration": 0.21428549999998836,
          "durationTicks": 60,
          "midi": 77,
          "name": "F5",
          "ticks": 60180,
          "time": 185.36490500000002,
          "velocity": 0.7874015748031497
        },
        {
          "duration": 0.21428549999998836,
          "durationTicks": 60,
          "midi": 76,
          "name": "E5",
          "ticks": 60240,
          "time": 185.5791905,
          "velocity": 0.7874015748031497
        },
        {
          "duration": 0.21428550000001678,
          "durationTicks": 60,
          "midi": 79,
          "name": "G5",
          "ticks": 60300,
          "time": 185.793476,
          "velocity": 0.7874015748031497
        },
        {
          "duration": 0.21428549999998836,
          "durationTicks": 60,
          "midi": 78,
          "name": "F#5",
          "ticks": 60360,
          "time": 186.00776150000002,
          "velocity": 0.7874015748031497
        },
        {
          "duration": 0.21428549999998836,
          "durationTicks": 60,
          "midi": 79,
          "name": "G5",
          "ticks": 60420,
          "time": 186.222047,
          "velocity": 0.7874015748031497
        },
        {
          "duration": 0.42857100000000514,
          "durationTicks": 120,
          "midi": 81,
          "name": "A5",
          "ticks": 60480,
          "time": 186.4363325,
          "velocity": 0.7874015748031497
        },
        {
          "duration": 0.6428565000000219,
          "durationTicks": 180,
          "midi": 74,
          "name": "D5",
          "ticks": 60600,
          "time": 186.8649035,
          "velocity": 0.7874015748031497
        },
        {
          "duration": 0.21428549999998836,
          "durationTicks": 60,
          "midi": 72,
          "name": "C5",
          "ticks": 60780,
          "time": 187.50776000000002,
          "velocity": 0.7874015748031497
        },
        {
          "duration": 0.21428549999998836,
          "durationTicks": 60,
          "midi": 71,
          "name": "B4",
          "ticks": 60840,
          "time": 187.7220455,
          "velocity": 0.7874015748031497
        },
        {
          "duration": 0.21428550000001678,
          "durationTicks": 60,
          "midi": 69,
          "name": "A4",
          "ticks": 60900,
          "time": 187.936331,
          "velocity": 0.7874015748031497
        },
        {
          "duration": 0.625,
          "durationTicks": 240,
          "midi": 71,
          "name": "B4",
          "ticks": 60960,
          "time": 188.1506165,
          "velocity": 0.7874015748031497
        },
        {
          "duration": 0.3125,
          "durationTicks": 120,
          "midi": 62,
          "name": "D4",
          "ticks": 62160,
          "time": 191.2756165,
          "velocity": 0.7874015748031497
        },
        {
          "duration": 0.3125,
          "durationTicks": 120,
          "midi": 66,
          "name": "F#4",
          "ticks": 62280,
          "time": 191.5881165,
          "velocity": 0.7874015748031497
        },
        {
          "duration": 0.3125,
          "durationTicks": 120,
          "midi": 59,
          "name": "B3",
          "ticks": 62400,
          "time": 191.9006165,
          "velocity": 0.7874015748031497
        },
        {
          "duration": 0.3125,
          "durationTicks": 120,
          "midi": 67,
          "name": "G4",
          "ticks": 62520,
          "time": 192.2131165,
          "velocity": 0.7874015748031497
        },
        {
          "duration": 0.3125,
          "durationTicks": 120,
          "midi": 72,
          "name": "C5",
          "ticks": 62640,
          "time": 192.5256165,
          "velocity": 0.7874015748031497
        },
        {
          "duration": 0.15625,
          "durationTicks": 60,
          "midi": 71,
          "name": "B4",
          "ticks": 62760,
          "time": 192.8381165,
          "velocity": 0.7874015748031497
        },
        {
          "duration": 0.15625,
          "durationTicks": 60,
          "midi": 67,
          "name": "G4",
          "ticks": 62820,
          "time": 192.9943665,
          "velocity": 0.7874015748031497
        },
        {
          "duration": 0.3125,
          "durationTicks": 120,
          "midi": 69,
          "name": "A4",
          "ticks": 62880,
          "time": 193.1506165,
          "velocity": 0.7874015748031497
        },
        {
          "duration": 0.3125,
          "durationTicks": 120,
          "midi": 60,
          "name": "C4",
          "ticks": 63600,
          "time": 195.0256165,
          "velocity": 0.7874015748031497
        },
        {
          "duration": 0.3125,
          "durationTicks": 120,
          "midi": 64,
          "name": "E4",
          "ticks": 63720,
          "time": 195.3381165,
          "velocity": 0.7874015748031497
        },
        {
          "duration": 0.3125,
          "durationTicks": 120,
          "midi": 57,
          "name": "A3",
          "ticks": 63840,
          "time": 195.6506165,
          "velocity": 0.7874015748031497
        },
        {
          "duration": 0.9375,
          "durationTicks": 360,
          "midi": 62,
          "name": "D4",
          "ticks": 63960,
          "time": 195.9631165,
          "velocity": 0.7874015748031497
        },
        {
          "duration": 0.3125,
          "durationTicks": 120,
          "midi": 67,
          "name": "G4",
          "ticks": 64320,
          "time": 196.9006165,
          "velocity": 0.7874015748031497
        },
        {
          "duration": 0.3125,
          "durationTicks": 120,
          "midi": 73,
          "name": "C#5",
          "ticks": 65400,
          "time": 199.7131165,
          "velocity": 0.7874015748031497
        },
        {
          "duration": 0.3125,
          "durationTicks": 120,
          "midi": 76,
          "name": "E5",
          "ticks": 65520,
          "time": 200.0256165,
          "velocity": 0.7874015748031497
        },
        {
          "duration": 0.625,
          "durationTicks": 240,
          "midi": 69,
          "name": "A4",
          "ticks": 65640,
          "time": 200.3381165,
          "velocity": 0.7874015748031497
        },
        {
          "duration": 0.625,
          "durationTicks": 240,
          "midi": 67,
          "name": "G4",
          "ticks": 65880,
          "time": 200.9631165,
          "velocity": 0.7874015748031497
        },
        {
          "duration": 0.3125,
          "durationTicks": 120,
          "midi": 66,
          "name": "F#4",
          "ticks": 66120,
          "time": 201.5881165,
          "velocity": 0.7874015748031497
        },
        {
          "duration": 0.3125,
          "durationTicks": 120,
          "midi": 69,
          "name": "A4",
          "ticks": 66240,
          "time": 201.9006165,
          "velocity": 0.7874015748031497
        },
        {
          "duration": 0.3125,
          "durationTicks": 120,
          "midi": 62,
          "name": "D4",
          "ticks": 66360,
          "time": 202.2131165,
          "velocity": 0.7874015748031497
        },
        {
          "duration": 0.3125,
          "durationTicks": 120,
          "midi": 64,
          "name": "E4",
          "ticks": 66480,
          "time": 202.5256165,
          "velocity": 0.7874015748031497
        },
        {
          "duration": 0.3125,
          "durationTicks": 120,
          "midi": 67,
          "name": "G4",
          "ticks": 66600,
          "time": 202.8381165,
          "velocity": 0.7874015748031497
        },
        {
          "duration": 0.3125,
          "durationTicks": 120,
          "midi": 61,
          "name": "C#4",
          "ticks": 66720,
          "time": 203.1506165,
          "velocity": 0.7874015748031497
        },
        {
          "duration": 0.3125,
          "durationTicks": 120,
          "midi": 69,
          "name": "A4",
          "ticks": 66840,
          "time": 203.4631165,
          "velocity": 0.7874015748031497
        },
        {
          "duration": 0.46875,
          "durationTicks": 180,
          "midi": 67,
          "name": "G4",
          "ticks": 66960,
          "time": 203.7756165,
          "velocity": 0.7874015748031497
        },
        {
          "duration": 0.15625,
          "durationTicks": 60,
          "midi": 64,
          "name": "E4",
          "ticks": 67140,
          "time": 204.2443665,
          "velocity": 0.7874015748031497
        },
        {
          "duration": 0.3125,
          "durationTicks": 120,
          "midi": 66,
          "name": "F#4",
          "ticks": 67200,
          "time": 204.4006165,
          "velocity": 0.7874015748031497
        },
        {
          "duration": 0.3125,
          "durationTicks": 120,
          "midi": 74,
          "name": "D5",
          "ticks": 67920,
          "time": 206.2756165,
          "velocity": 0.7874015748031497
        },
        {
          "duration": 0.3125,
          "durationTicks": 120,
          "midi": 71,
          "name": "B4",
          "ticks": 68040,
          "time": 206.5881165,
          "velocity": 0.7874015748031497
        },
        {
          "duration": 0.3125,
          "durationTicks": 120,
          "midi": 67,
          "name": "G4",
          "ticks": 68160,
          "time": 206.9006165,
          "velocity": 0.7874015748031497
        },
        {
          "duration": 0.3125,
          "durationTicks": 120,
          "midi": 69,
          "name": "A4",
          "ticks": 68280,
          "time": 207.2131165,
          "velocity": 0.7874015748031497
        },
        {
          "duration": 0.3125,
          "durationTicks": 120,
          "midi": 72,
          "name": "C5",
          "ticks": 68400,
          "time": 207.5256165,
          "velocity": 0.7874015748031497
        },
        {
          "duration": 0.625,
          "durationTicks": 240,
          "midi": 66,
          "name": "F#4",
          "ticks": 68520,
          "time": 207.8381165,
          "velocity": 0.7874015748031497
        },
        {
          "duration": 0.3125,
          "durationTicks": 120,
          "midi": 71,
          "name": "B4",
          "ticks": 69000,
          "time": 209.0881165,
          "velocity": 0.7874015748031497
        },
        {
          "duration": 0.3125,
          "durationTicks": 120,
          "midi": 67,
          "name": "G4",
          "ticks": 69120,
          "time": 209.4006165,
          "velocity": 0.7874015748031497
        },
        {
          "duration": 0.3125,
          "durationTicks": 120,
          "midi": 64,
          "name": "E4",
          "ticks": 69240,
          "time": 209.7131165,
          "velocity": 0.7874015748031497
        },
        {
          "duration": 0.3125,
          "durationTicks": 120,
          "midi": 66,
          "name": "F#4",
          "ticks": 69360,
          "time": 210.0256165,
          "velocity": 0.7874015748031497
        },
        {
          "duration": 0.3125,
          "durationTicks": 120,
          "midi": 67,
          "name": "G4",
          "ticks": 69480,
          "time": 210.3381165,
          "velocity": 0.7874015748031497
        },
        {
          "duration": 0.9375,
          "durationTicks": 360,
          "midi": 66,
          "name": "F#4",
          "ticks": 69600,
          "time": 210.6506165,
          "velocity": 0.7874015748031497
        },
        {
          "duration": 0.625,
          "durationTicks": 240,
          "midi": 64,
          "name": "E4",
          "ticks": 69960,
          "time": 211.5881165,
          "velocity": 0.7874015748031497
        },
        {
          "duration": 0.3125,
          "durationTicks": 120,
          "midi": 69,
          "name": "A4",
          "ticks": 70440,
          "time": 212.8381165,
          "velocity": 0.7874015748031497
        },
        {
          "duration": 0.3125,
          "durationTicks": 120,
          "midi": 72,
          "name": "C5",
          "ticks": 70560,
          "time": 213.1506165,
          "velocity": 0.7874015748031497
        },
        {
          "duration": 0.3125,
          "durationTicks": 120,
          "midi": 66,
          "name": "F#4",
          "ticks": 70680,
          "time": 213.4631165,
          "velocity": 0.7874015748031497
        },
        {
          "duration": 0.3125,
          "durationTicks": 120,
          "midi": 67,
          "name": "G4",
          "ticks": 70800,
          "time": 213.7756165,
          "velocity": 0.7874015748031497
        },
        {
          "duration": 0.3125,
          "durationTicks": 120,
          "midi": 71,
          "name": "B4",
          "ticks": 70920,
          "time": 214.0881165,
          "velocity": 0.7874015748031497
        },
        {
          "duration": 0.3125,
          "durationTicks": 120,
          "midi": 64,
          "name": "E4",
          "ticks": 71040,
          "time": 214.4006165,
          "velocity": 0.7874015748031497
        },
        {
          "duration": 0.9375,
          "durationTicks": 360,
          "midi": 69,
          "name": "A4",
          "ticks": 71160,
          "time": 214.7131165,
          "velocity": 0.7874015748031497
        },
        {
          "duration": 0.3125,
          "durationTicks": 120,
          "midi": 66,
          "name": "F#4",
          "ticks": 71520,
          "time": 215.6506165,
          "velocity": 0.7874015748031497
        },
        {
          "duration": 0.625,
          "durationTicks": 240,
          "midi": 69,
          "name": "A4",
          "ticks": 71640,
          "time": 215.9631165,
          "velocity": 0.7874015748031497
        },
        {
          "duration": 0.3125,
          "durationTicks": 120,
          "midi": 67,
          "name": "G4",
          "ticks": 71880,
          "time": 216.5881165,
          "velocity": 0.7874015748031497
        },
        {
          "duration": 0.3125,
          "durationTicks": 120,
          "midi": 71,
          "name": "B4",
          "ticks": 72000,
          "time": 216.9006165,
          "velocity": 0.7874015748031497
        },
        {
          "duration": 0.9375,
          "durationTicks": 360,
          "midi": 64,
          "name": "E4",
          "ticks": 72120,
          "time": 217.2131165,
          "velocity": 0.7874015748031497
        },
        {
          "duration": 0.3125,
          "durationTicks": 120,
          "midi": 57,
          "name": "A3",
          "ticks": 72480,
          "time": 218.1506165,
          "velocity": 0.7874015748031497
        },
        {
          "duration": 0.25,
          "durationTicks": 120,
          "midi": 62,
          "name": "D4",
          "ticks": 72600,
          "time": 218.4631165,
          "velocity": 0.7874015748031497
        },
        {
          "duration": 0.375,
          "durationTicks": 180,
          "midi": 60,
          "name": "C4",
          "ticks": 72720,
          "time": 218.7131165,
          "velocity": 0.7874015748031497
        },
        {
          "duration": 0.125,
          "durationTicks": 60,
          "midi": 57,
          "name": "A3",
          "ticks": 72900,
          "time": 219.0881165,
          "velocity": 0.7874015748031497
        },
        {
          "duration": 0.25,
          "durationTicks": 120,
          "midi": 59,
          "name": "B3",
          "ticks": 72960,
          "time": 219.2131165,
          "velocity": 0.7874015748031497
        },
        {
          "duration": 0.25,
          "durationTicks": 120,
          "midi": 55,
          "name": "G3",
          "ticks": 73560,
          "time": 220.4631165,
          "velocity": 0.7874015748031497
        },
        {
          "duration": 0.25,
          "durationTicks": 120,
          "midi": 71,
          "name": "B4",
          "ticks": 73800,
          "time": 220.9631165,
          "velocity": 0.7874015748031497
        },
        {
          "duration": 0.5,
          "durationTicks": 240,
          "midi": 55,
          "name": "G3",
          "ticks": 74040,
          "time": 221.4631165,
          "velocity": 0.7874015748031497
        },
        {
          "duration": 0.25,
          "durationTicks": 120,
          "midi": 54,
          "name": "F#3",
          "ticks": 74280,
          "time": 221.9631165,
          "velocity": 0.7874015748031497
        },
        {
          "duration": 0.25,
          "durationTicks": 120,
          "midi": 69,
          "name": "A4",
          "ticks": 74520,
          "time": 222.4631165,
          "velocity": 0.7874015748031497
        },
        {
          "duration": 0.5,
          "durationTicks": 240,
          "midi": 54,
          "name": "F#3",
          "ticks": 74760,
          "time": 222.9631165,
          "velocity": 0.7874015748031497
        },
        {
          "duration": 0.25,
          "durationTicks": 120,
          "midi": 52,
          "name": "E3",
          "ticks": 75000,
          "time": 223.4631165,
          "velocity": 0.7874015748031497
        },
        {
          "duration": 0.25,
          "durationTicks": 120,
          "midi": 67,
          "name": "G4",
          "ticks": 75240,
          "time": 223.9631165,
          "velocity": 0.7874015748031497
        },
        {
          "duration": 0.5,
          "durationTicks": 240,
          "midi": 52,
          "name": "E3",
          "ticks": 75480,
          "time": 224.4631165,
          "velocity": 0.7874015748031497
        },
        {
          "duration": 0.25,
          "durationTicks": 120,
          "midi": 50,
          "name": "D3",
          "ticks": 75720,
          "time": 224.9631165,
          "velocity": 0.7874015748031497
        },
        {
          "duration": 0.25,
          "durationTicks": 120,
          "midi": 66,
          "name": "F#4",
          "ticks": 75960,
          "time": 225.4631165,
          "velocity": 0.7874015748031497
        },
        {
          "duration": 0.25,
          "durationTicks": 120,
          "midi": 50,
          "name": "D3",
          "ticks": 76200,
          "time": 225.9631165,
          "velocity": 0.7874015748031497
        },
        {
          "duration": 0.25,
          "durationTicks": 120,
          "midi": 48,
          "name": "C3",
          "ticks": 76320,
          "time": 226.2131165,
          "velocity": 0.7874015748031497
        },
        {
          "duration": 0.25,
          "durationTicks": 120,
          "midi": 47,
          "name": "B2",
          "ticks": 76440,
          "time": 226.4631165,
          "velocity": 0.7874015748031497
        },
        {
          "duration": 0.25,
          "durationTicks": 120,
          "midi": 74,
          "name": "D5",
          "ticks": 76680,
          "time": 226.9631165,
          "velocity": 0.7874015748031497
        },
        {
          "duration": 0.5,
          "durationTicks": 240,
          "midi": 47,
          "name": "B2",
          "ticks": 76920,
          "time": 227.4631165,
          "velocity": 0.7874015748031497
        },
        {
          "duration": 0.25,
          "durationTicks": 120,
          "midi": 48,
          "name": "C3",
          "ticks": 77160,
          "time": 227.9631165,
          "velocity": 0.7874015748031497
        },
        {
          "duration": 0.25,
          "durationTicks": 120,
          "midi": 76,
          "name": "E5",
          "ticks": 77400,
          "time": 228.4631165,
          "velocity": 0.7874015748031497
        },
        {
          "duration": 0.5,
          "durationTicks": 240,
          "midi": 48,
          "name": "C3",
          "ticks": 77640,
          "time": 228.9631165,
          "velocity": 0.7874015748031497
        },
        {
          "duration": 0.25,
          "durationTicks": 120,
          "midi": 50,
          "name": "D3",
          "ticks": 77880,
          "time": 229.4631165,
          "velocity": 0.7874015748031497
        },
        {
          "duration": 0.25,
          "durationTicks": 120,
          "midi": 69,
          "name": "A4",
          "ticks": 78120,
          "time": 229.9631165,
          "velocity": 0.7874015748031497
        },
        {
          "duration": 0.5,
          "durationTicks": 240,
          "midi": 50,
          "name": "D3",
          "ticks": 78360,
          "time": 230.4631165,
          "velocity": 0.7874015748031497
        },
        {
          "duration": 0.25,
          "durationTicks": 120,
          "midi": 43,
          "name": "G2",
          "ticks": 78600,
          "time": 230.9631165,
          "velocity": 0.7874015748031497
        },
        {
          "duration": 0.625,
          "durationTicks": 300,
          "midi": 71,
          "name": "B4",
          "ticks": 78840,
          "time": 231.4631165,
          "velocity": 0.7874015748031497
        },
        {
          "duration": 0.125,
          "durationTicks": 60,
          "midi": 69,
          "name": "A4",
          "ticks": 79140,
          "time": 232.0881165,
          "velocity": 0.7874015748031497
        },
        {
          "duration": 0.125,
          "durationTicks": 60,
          "midi": 67,
          "name": "G4",
          "ticks": 79200,
          "time": 232.2131165,
          "velocity": 0.7874015748031497
        },
        {
          "duration": 0.125,
          "durationTicks": 60,
          "midi": 66,
          "name": "F#4",
          "ticks": 79260,
          "time": 232.3381165,
          "velocity": 0.7874015748031497
        },
        {
          "duration": 0.125,
          "durationTicks": 60,
          "midi": 67,
          "name": "G4",
          "ticks": 79320,
          "time": 232.4631165,
          "velocity": 0.7874015748031497
        },
        {
          "duration": 0.125,
          "durationTicks": 60,
          "midi": 71,
          "name": "B4",
          "ticks": 79380,
          "time": 232.5881165,
          "velocity": 0.7874015748031497
        },
        {
          "duration": 0.125,
          "durationTicks": 60,
          "midi": 73,
          "name": "C#5",
          "ticks": 79440,
          "time": 232.7131165,
          "velocity": 0.7874015748031497
        },
        {
          "duration": 0.125,
          "durationTicks": 60,
          "midi": 74,
          "name": "D5",
          "ticks": 79500,
          "time": 232.8381165,
          "velocity": 0.7874015748031497
        },
        {
          "duration": 0.125,
          "durationTicks": 60,
          "midi": 76,
          "name": "E5",
          "ticks": 79560,
          "time": 232.9631165,
          "velocity": 0.7874015748031497
        },
        {
          "duration": 0.125,
          "durationTicks": 60,
          "midi": 78,
          "name": "F#5",
          "ticks": 79620,
          "time": 233.0881165,
          "velocity": 0.7874015748031497
        },
        {
          "duration": 0.125,
          "durationTicks": 60,
          "midi": 76,
          "name": "E5",
          "ticks": 79680,
          "time": 233.2131165,
          "velocity": 0.7874015748031497
        },
        {
          "duration": 0.125,
          "durationTicks": 60,
          "midi": 74,
          "name": "D5",
          "ticks": 79740,
          "time": 233.3381165,
          "velocity": 0.7874015748031497
        },
        {
          "duration": 0.125,
          "durationTicks": 60,
          "midi": 73,
          "name": "C#5",
          "ticks": 79800,
          "time": 233.4631165,
          "velocity": 0.7874015748031497
        },
        {
          "duration": 0.125,
          "durationTicks": 60,
          "midi": 71,
          "name": "B4",
          "ticks": 79860,
          "time": 233.5881165,
          "velocity": 0.7874015748031497
        },
        {
          "duration": 0.125,
          "durationTicks": 60,
          "midi": 69,
          "name": "A4",
          "ticks": 79920,
          "time": 233.7131165,
          "velocity": 0.7874015748031497
        },
        {
          "duration": 0.125,
          "durationTicks": 60,
          "midi": 67,
          "name": "G4",
          "ticks": 79980,
          "time": 233.8381165,
          "velocity": 0.7874015748031497
        },
        {
          "duration": 0.125,
          "durationTicks": 60,
          "midi": 66,
          "name": "F#4",
          "ticks": 80040,
          "time": 233.9631165,
          "velocity": 0.7874015748031497
        },
        {
          "duration": 0.125,
          "durationTicks": 60,
          "midi": 69,
          "name": "A4",
          "ticks": 80100,
          "time": 234.0881165,
          "velocity": 0.7874015748031497
        },
        {
          "duration": 0.125,
          "durationTicks": 60,
          "midi": 71,
          "name": "B4",
          "ticks": 80160,
          "time": 234.2131165,
          "velocity": 0.7874015748031497
        },
        {
          "duration": 0.125,
          "durationTicks": 60,
          "midi": 73,
          "name": "C#5",
          "ticks": 80220,
          "time": 234.3381165,
          "velocity": 0.7874015748031497
        },
        {
          "duration": 0.125,
          "durationTicks": 60,
          "midi": 74,
          "name": "D5",
          "ticks": 80280,
          "time": 234.4631165,
          "velocity": 0.7874015748031497
        },
        {
          "duration": 0.125,
          "durationTicks": 60,
          "midi": 76,
          "name": "E5",
          "ticks": 80340,
          "time": 234.5881165,
          "velocity": 0.7874015748031497
        },
        {
          "duration": 0.125,
          "durationTicks": 60,
          "midi": 74,
          "name": "D5",
          "ticks": 80400,
          "time": 234.7131165,
          "velocity": 0.7874015748031497
        },
        {
          "duration": 0.125,
          "durationTicks": 60,
          "midi": 73,
          "name": "C#5",
          "ticks": 80460,
          "time": 234.8381165,
          "velocity": 0.7874015748031497
        },
        {
          "duration": 0.125,
          "durationTicks": 60,
          "midi": 71,
          "name": "B4",
          "ticks": 80520,
          "time": 234.9631165,
          "velocity": 0.7874015748031497
        },
        {
          "duration": 0.125,
          "durationTicks": 60,
          "midi": 69,
          "name": "A4",
          "ticks": 80580,
          "time": 235.0881165,
          "velocity": 0.7874015748031497
        },
        {
          "duration": 0.125,
          "durationTicks": 60,
          "midi": 67,
          "name": "G4",
          "ticks": 80640,
          "time": 235.2131165,
          "velocity": 0.7874015748031497
        },
        {
          "duration": 0.125,
          "durationTicks": 60,
          "midi": 66,
          "name": "F#4",
          "ticks": 80700,
          "time": 235.3381165,
          "velocity": 0.7874015748031497
        },
        {
          "duration": 0.25,
          "durationTicks": 120,
          "midi": 64,
          "name": "E4",
          "ticks": 80760,
          "time": 235.4631165,
          "velocity": 0.7874015748031497
        },
        {
          "duration": 0.25,
          "durationTicks": 120,
          "midi": 66,
          "name": "F#4",
          "ticks": 80880,
          "time": 235.7131165,
          "velocity": 0.7874015748031497
        },
        {
          "duration": 0.25,
          "durationTicks": 120,
          "midi": 67,
          "name": "G4",
          "ticks": 81000,
          "time": 235.9631165,
          "velocity": 0.7874015748031497
        },
        {
          "duration": 0.25,
          "durationTicks": 120,
          "midi": 71,
          "name": "B4",
          "ticks": 81120,
          "time": 236.2131165,
          "velocity": 0.7874015748031497
        },
        {
          "duration": 0.08333333333334281,
          "durationTicks": 40,
          "midi": 76,
          "name": "E5",
          "ticks": 81240,
          "time": 236.4631165,
          "velocity": 0.7874015748031497
        },
        {
          "duration": 0.08333333333331439,
          "durationTicks": 40,
          "midi": 74,
          "name": "D5",
          "ticks": 81280,
          "time": 236.54644983333336,
          "velocity": 0.7874015748031497
        },
        {
          "duration": 0.08333333333334281,
          "durationTicks": 40,
          "midi": 78,
          "name": "F#5",
          "ticks": 81320,
          "time": 236.62978316666667,
          "velocity": 0.7874015748031497
        },
        {
          "duration": 0.5,
          "durationTicks": 240,
          "midi": 76,
          "name": "E5",
          "ticks": 81360,
          "time": 236.7131165,
          "velocity": 0.7874015748031497
        },
        {
          "duration": 0.25,
          "durationTicks": 120,
          "midi": 74,
          "name": "D5",
          "ticks": 81600,
          "time": 237.2131165,
          "velocity": 0.7874015748031497
        },
        {
          "duration": 0.125,
          "durationTicks": 60,
          "midi": 73,
          "name": "C#5",
          "ticks": 81720,
          "time": 237.4631165,
          "velocity": 0.7874015748031497
        },
        {
          "duration": 0.125,
          "durationTicks": 60,
          "midi": 76,
          "name": "E5",
          "ticks": 81780,
          "time": 237.5881165,
          "velocity": 0.7874015748031497
        },
        {
          "duration": 0.125,
          "durationTicks": 60,
          "midi": 71,
          "name": "B4",
          "ticks": 81840,
          "time": 237.7131165,
          "velocity": 0.7874015748031497
        },
        {
          "duration": 0.125,
          "durationTicks": 60,
          "midi": 76,
          "name": "E5",
          "ticks": 81900,
          "time": 237.8381165,
          "velocity": 0.7874015748031497
        },
        {
          "duration": 0.125,
          "durationTicks": 60,
          "midi": 69,
          "name": "A4",
          "ticks": 81960,
          "time": 237.9631165,
          "velocity": 0.7874015748031497
        },
        {
          "duration": 0.125,
          "durationTicks": 60,
          "midi": 76,
          "name": "E5",
          "ticks": 82020,
          "time": 238.0881165,
          "velocity": 0.7874015748031497
        },
        {
          "duration": 0.125,
          "durationTicks": 60,
          "midi": 67,
          "name": "G4",
          "ticks": 82080,
          "time": 238.2131165,
          "velocity": 0.7874015748031497
        },
        {
          "duration": 0.125,
          "durationTicks": 60,
          "midi": 76,
          "name": "E5",
          "ticks": 82140,
          "time": 238.3381165,
          "velocity": 0.7874015748031497
        },
        {
          "duration": 0.125,
          "durationTicks": 60,
          "midi": 66,
          "name": "F#4",
          "ticks": 82200,
          "time": 238.4631165,
          "velocity": 0.7874015748031497
        },
        {
          "duration": 0.125,
          "durationTicks": 60,
          "midi": 76,
          "name": "E5",
          "ticks": 82260,
          "time": 238.5881165,
          "velocity": 0.7874015748031497
        },
        {
          "duration": 0.125,
          "durationTicks": 60,
          "midi": 74,
          "name": "D5",
          "ticks": 82320,
          "time": 238.7131165,
          "velocity": 0.7874015748031497
        },
        {
          "duration": 0.125,
          "durationTicks": 60,
          "midi": 73,
          "name": "C#5",
          "ticks": 82380,
          "time": 238.8381165,
          "velocity": 0.7874015748031497
        },
        {
          "duration": 0.125,
          "durationTicks": 60,
          "midi": 74,
          "name": "D5",
          "ticks": 82440,
          "time": 238.9631165,
          "velocity": 0.7874015748031497
        },
        {
          "duration": 0.125,
          "durationTicks": 60,
          "midi": 69,
          "name": "A4",
          "ticks": 82500,
          "time": 239.0881165,
          "velocity": 0.7874015748031497
        },
        {
          "duration": 0.125,
          "durationTicks": 60,
          "midi": 62,
          "name": "D4",
          "ticks": 82560,
          "time": 239.2131165,
          "velocity": 0.7874015748031497
        },
        {
          "duration": 0.125,
          "durationTicks": 60,
          "midi": 74,
          "name": "D5",
          "ticks": 82620,
          "time": 239.3381165,
          "velocity": 0.7874015748031497
        },
        {
          "duration": 0.125,
          "durationTicks": 60,
          "midi": 64,
          "name": "E4",
          "ticks": 82680,
          "time": 239.4631165,
          "velocity": 0.7874015748031497
        },
        {
          "duration": 0.125,
          "durationTicks": 60,
          "midi": 74,
          "name": "D5",
          "ticks": 82740,
          "time": 239.5881165,
          "velocity": 0.7874015748031497
        },
        {
          "duration": 0.125,
          "durationTicks": 60,
          "midi": 66,
          "name": "F#4",
          "ticks": 82800,
          "time": 239.7131165,
          "velocity": 0.7874015748031497
        },
        {
          "duration": 0.125,
          "durationTicks": 60,
          "midi": 76,
          "name": "E5",
          "ticks": 82860,
          "time": 239.8381165,
          "velocity": 0.7874015748031497
        },
        {
          "duration": 0.125,
          "durationTicks": 60,
          "midi": 67,
          "name": "G4",
          "ticks": 82920,
          "time": 239.9631165,
          "velocity": 0.7874015748031497
        },
        {
          "duration": 0.125,
          "durationTicks": 60,
          "midi": 76,
          "name": "E5",
          "ticks": 82980,
          "time": 240.0881165,
          "velocity": 0.7874015748031497
        },
        {
          "duration": 0.125,
          "durationTicks": 60,
          "midi": 74,
          "name": "D5",
          "ticks": 83040,
          "time": 240.2131165,
          "velocity": 0.7874015748031497
        },
        {
          "duration": 0.125,
          "durationTicks": 60,
          "midi": 73,
          "name": "C#5",
          "ticks": 83100,
          "time": 240.3381165,
          "velocity": 0.7874015748031497
        },
        {
          "duration": 0.125,
          "durationTicks": 60,
          "midi": 74,
          "name": "D5",
          "ticks": 83160,
          "time": 240.4631165,
          "velocity": 0.7874015748031497
        },
        {
          "duration": 0.125,
          "durationTicks": 60,
          "midi": 71,
          "name": "B4",
          "ticks": 83220,
          "time": 240.5881165,
          "velocity": 0.7874015748031497
        },
        {
          "duration": 0.125,
          "durationTicks": 60,
          "midi": 64,
          "name": "E4",
          "ticks": 83280,
          "time": 240.7131165,
          "velocity": 0.7874015748031497
        },
        {
          "duration": 0.125,
          "durationTicks": 60,
          "midi": 74,
          "name": "D5",
          "ticks": 83340,
          "time": 240.8381165,
          "velocity": 0.7874015748031497
        },
        {
          "duration": 0.125,
          "durationTicks": 60,
          "midi": 66,
          "name": "F#4",
          "ticks": 83400,
          "time": 240.9631165,
          "velocity": 0.7874015748031497
        },
        {
          "duration": 0.125,
          "durationTicks": 60,
          "midi": 74,
          "name": "D5",
          "ticks": 83460,
          "time": 241.0881165,
          "velocity": 0.7874015748031497
        },
        {
          "duration": 0.125,
          "durationTicks": 60,
          "midi": 67,
          "name": "G4",
          "ticks": 83520,
          "time": 241.2131165,
          "velocity": 0.7874015748031497
        },
        {
          "duration": 0.125,
          "durationTicks": 60,
          "midi": 74,
          "name": "D5",
          "ticks": 83580,
          "time": 241.3381165,
          "velocity": 0.7874015748031497
        },
        {
          "duration": 0.125,
          "durationTicks": 60,
          "midi": 69,
          "name": "A4",
          "ticks": 83640,
          "time": 241.4631165,
          "velocity": 0.7874015748031497
        },
        {
          "duration": 0.125,
          "durationTicks": 60,
          "midi": 74,
          "name": "D5",
          "ticks": 83700,
          "time": 241.5881165,
          "velocity": 0.7874015748031497
        },
        {
          "duration": 0.125,
          "durationTicks": 60,
          "midi": 73,
          "name": "C#5",
          "ticks": 83760,
          "time": 241.7131165,
          "velocity": 0.7874015748031497
        },
        {
          "duration": 0.125,
          "durationTicks": 60,
          "midi": 71,
          "name": "B4",
          "ticks": 83820,
          "time": 241.8381165,
          "velocity": 0.7874015748031497
        },
        {
          "duration": 0.125,
          "durationTicks": 60,
          "midi": 73,
          "name": "C#5",
          "ticks": 83880,
          "time": 241.9631165,
          "velocity": 0.7874015748031497
        },
        {
          "duration": 0.125,
          "durationTicks": 60,
          "midi": 76,
          "name": "E5",
          "ticks": 83940,
          "time": 242.0881165,
          "velocity": 0.7874015748031497
        },
        {
          "duration": 0.125,
          "durationTicks": 60,
          "midi": 69,
          "name": "A4",
          "ticks": 84000,
          "time": 242.2131165,
          "velocity": 0.7874015748031497
        },
        {
          "duration": 0.125,
          "durationTicks": 60,
          "midi": 73,
          "name": "C#5",
          "ticks": 84060,
          "time": 242.3381165,
          "velocity": 0.7874015748031497
        },
        {
          "duration": 0.125,
          "durationTicks": 60,
          "midi": 64,
          "name": "E4",
          "ticks": 84120,
          "time": 242.4631165,
          "velocity": 0.7874015748031497
        },
        {
          "duration": 0.125,
          "durationTicks": 60,
          "midi": 67,
          "name": "G4",
          "ticks": 84180,
          "time": 242.5881165,
          "velocity": 0.7874015748031497
        },
        {
          "duration": 0.125,
          "durationTicks": 60,
          "midi": 66,
          "name": "F#4",
          "ticks": 84240,
          "time": 242.7131165,
          "velocity": 0.7874015748031497
        },
        {
          "duration": 0.125,
          "durationTicks": 60,
          "midi": 64,
          "name": "E4",
          "ticks": 84300,
          "time": 242.8381165,
          "velocity": 0.7874015748031497
        },
        {
          "duration": 0.125,
          "durationTicks": 60,
          "midi": 66,
          "name": "F#4",
          "ticks": 84360,
          "time": 242.9631165,
          "velocity": 0.7874015748031497
        },
        {
          "duration": 0.125,
          "durationTicks": 60,
          "midi": 69,
          "name": "A4",
          "ticks": 84420,
          "time": 243.0881165,
          "velocity": 0.7874015748031497
        },
        {
          "duration": 0.125,
          "durationTicks": 60,
          "midi": 62,
          "name": "D4",
          "ticks": 84480,
          "time": 243.2131165,
          "velocity": 0.7874015748031497
        },
        {
          "duration": 0.125,
          "durationTicks": 60,
          "midi": 66,
          "name": "F#4",
          "ticks": 84540,
          "time": 243.3381165,
          "velocity": 0.7874015748031497
        },
        {
          "duration": 0.125,
          "durationTicks": 60,
          "midi": 57,
          "name": "A3",
          "ticks": 84600,
          "time": 243.4631165,
          "velocity": 0.7874015748031497
        },
        {
          "duration": 0.125,
          "durationTicks": 60,
          "midi": 62,
          "name": "D4",
          "ticks": 84660,
          "time": 243.5881165,
          "velocity": 0.7874015748031497
        },
        {
          "duration": 0.125,
          "durationTicks": 60,
          "midi": 54,
          "name": "F#3",
          "ticks": 84720,
          "time": 243.7131165,
          "velocity": 0.7874015748031497
        },
        {
          "duration": 0.125,
          "durationTicks": 60,
          "midi": 57,
          "name": "A3",
          "ticks": 84780,
          "time": 243.8381165,
          "velocity": 0.7874015748031497
        },
        {
          "duration": 0.5,
          "durationTicks": 240,
          "midi": 50,
          "name": "D3",
          "ticks": 84840,
          "time": 243.9631165,
          "velocity": 0.7874015748031497
        },
        {
          "duration": 0.5,
          "durationTicks": 240,
          "midi": 62,
          "name": "D4",
          "ticks": 84840,
          "time": 243.9631165,
          "velocity": 0.7874015748031497
        },
        {
          "duration": 0.125,
          "durationTicks": 60,
          "midi": 74,
          "name": "D5",
          "ticks": 85140,
          "time": 244.5881165,
          "velocity": 0.7874015748031497
        },
        {
          "duration": 0.125,
          "durationTicks": 60,
          "midi": 72,
          "name": "C5",
          "ticks": 85200,
          "time": 244.7131165,
          "velocity": 0.7874015748031497
        },
        {
          "duration": 0.125,
          "durationTicks": 60,
          "midi": 71,
          "name": "B4",
          "ticks": 85260,
          "time": 244.8381165,
          "velocity": 0.7874015748031497
        },
        {
          "duration": 0.125,
          "durationTicks": 60,
          "midi": 69,
          "name": "A4",
          "ticks": 85320,
          "time": 244.9631165,
          "velocity": 0.7874015748031497
        },
        {
          "duration": 0.125,
          "durationTicks": 60,
          "midi": 67,
          "name": "G4",
          "ticks": 85380,
          "time": 245.0881165,
          "velocity": 0.7874015748031497
        },
        {
          "duration": 0.125,
          "durationTicks": 60,
          "midi": 66,
          "name": "F#4",
          "ticks": 85440,
          "time": 245.2131165,
          "velocity": 0.7874015748031497
        },
        {
          "duration": 0.125,
          "durationTicks": 60,
          "midi": 64,
          "name": "E4",
          "ticks": 85500,
          "time": 245.3381165,
          "velocity": 0.7874015748031497
        },
        {
          "duration": 0.125,
          "durationTicks": 60,
          "midi": 62,
          "name": "D4",
          "ticks": 85560,
          "time": 245.4631165,
          "velocity": 0.7874015748031497
        },
        {
          "duration": 0.125,
          "durationTicks": 60,
          "midi": 72,
          "name": "C5",
          "ticks": 85620,
          "time": 245.5881165,
          "velocity": 0.7874015748031497
        },
        {
          "duration": 0.125,
          "durationTicks": 60,
          "midi": 71,
          "name": "B4",
          "ticks": 85680,
          "time": 245.7131165,
          "velocity": 0.7874015748031497
        },
        {
          "duration": 0.125,
          "durationTicks": 60,
          "midi": 69,
          "name": "A4",
          "ticks": 85740,
          "time": 245.8381165,
          "velocity": 0.7874015748031497
        },
        {
          "duration": 0.125,
          "durationTicks": 60,
          "midi": 71,
          "name": "B4",
          "ticks": 85800,
          "time": 245.9631165,
          "velocity": 0.7874015748031497
        },
        {
          "duration": 0.125,
          "durationTicks": 60,
          "midi": 67,
          "name": "G4",
          "ticks": 85860,
          "time": 246.0881165,
          "velocity": 0.7874015748031497
        },
        {
          "duration": 0.125,
          "durationTicks": 60,
          "midi": 66,
          "name": "F#4",
          "ticks": 85920,
          "time": 246.2131165,
          "velocity": 0.7874015748031497
        },
        {
          "duration": 0.125,
          "durationTicks": 60,
          "midi": 64,
          "name": "E4",
          "ticks": 85980,
          "time": 246.3381165,
          "velocity": 0.7874015748031497
        },
        {
          "duration": 0.125,
          "durationTicks": 60,
          "midi": 62,
          "name": "D4",
          "ticks": 86040,
          "time": 246.4631165,
          "velocity": 0.7874015748031497
        },
        {
          "duration": 0.125,
          "durationTicks": 60,
          "midi": 60,
          "name": "C4",
          "ticks": 86100,
          "time": 246.5881165,
          "velocity": 0.7874015748031497
        },
        {
          "duration": 0.125,
          "durationTicks": 60,
          "midi": 59,
          "name": "B3",
          "ticks": 86160,
          "time": 246.7131165,
          "velocity": 0.7874015748031497
        },
        {
          "duration": 0.125,
          "durationTicks": 60,
          "midi": 57,
          "name": "A3",
          "ticks": 86220,
          "time": 246.8381165,
          "velocity": 0.7874015748031497
        },
        {
          "duration": 0.125,
          "durationTicks": 60,
          "midi": 55,
          "name": "G3",
          "ticks": 86280,
          "time": 246.9631165,
          "velocity": 0.7874015748031497
        },
        {
          "duration": 0.125,
          "durationTicks": 60,
          "midi": 67,
          "name": "G4",
          "ticks": 86340,
          "time": 247.0881165,
          "velocity": 0.7874015748031497
        },
        {
          "duration": 0.125,
          "durationTicks": 60,
          "midi": 57,
          "name": "A3",
          "ticks": 86400,
          "time": 247.2131165,
          "velocity": 0.7874015748031497
        },
        {
          "duration": 0.125,
          "durationTicks": 60,
          "midi": 59,
          "name": "B3",
          "ticks": 86460,
          "time": 247.3381165,
          "velocity": 0.7874015748031497
        },
        {
          "duration": 0.125,
          "durationTicks": 60,
          "midi": 60,
          "name": "C4",
          "ticks": 86520,
          "time": 247.4631165,
          "velocity": 0.7874015748031497
        },
        {
          "duration": 0.125,
          "durationTicks": 60,
          "midi": 59,
          "name": "B3",
          "ticks": 86580,
          "time": 247.5881165,
          "velocity": 0.7874015748031497
        },
        {
          "duration": 0.125,
          "durationTicks": 60,
          "midi": 57,
          "name": "A3",
          "ticks": 86640,
          "time": 247.7131165,
          "velocity": 0.7874015748031497
        },
        {
          "duration": 0.125,
          "durationTicks": 60,
          "midi": 59,
          "name": "B3",
          "ticks": 86700,
          "time": 247.8381165,
          "velocity": 0.7874015748031497
        },
        {
          "duration": 0.125,
          "durationTicks": 60,
          "midi": 60,
          "name": "C4",
          "ticks": 86760,
          "time": 247.9631165,
          "velocity": 0.7874015748031497
        },
        {
          "duration": 0.125,
          "durationTicks": 60,
          "midi": 62,
          "name": "D4",
          "ticks": 86820,
          "time": 248.0881165,
          "velocity": 0.7874015748031497
        },
        {
          "duration": 0.125,
          "durationTicks": 60,
          "midi": 64,
          "name": "E4",
          "ticks": 86880,
          "time": 248.2131165,
          "velocity": 0.7874015748031497
        },
        {
          "duration": 0.125,
          "durationTicks": 60,
          "midi": 67,
          "name": "G4",
          "ticks": 86940,
          "time": 248.3381165,
          "velocity": 0.7874015748031497
        },
        {
          "duration": 0.125,
          "durationTicks": 60,
          "midi": 69,
          "name": "A4",
          "ticks": 87000,
          "time": 248.4631165,
          "velocity": 0.7874015748031497
        },
        {
          "duration": 0.125,
          "durationTicks": 60,
          "midi": 71,
          "name": "B4",
          "ticks": 87060,
          "time": 248.5881165,
          "velocity": 0.7874015748031497
        },
        {
          "duration": 0.125,
          "durationTicks": 60,
          "midi": 72,
          "name": "C5",
          "ticks": 87120,
          "time": 248.7131165,
          "velocity": 0.7874015748031497
        },
        {
          "duration": 0.125,
          "durationTicks": 60,
          "midi": 69,
          "name": "A4",
          "ticks": 87180,
          "time": 248.8381165,
          "velocity": 0.7874015748031497
        },
        {
          "duration": 0.125,
          "durationTicks": 60,
          "midi": 71,
          "name": "B4",
          "ticks": 87240,
          "time": 248.9631165,
          "velocity": 0.7874015748031497
        },
        {
          "duration": 0.125,
          "durationTicks": 60,
          "midi": 69,
          "name": "A4",
          "ticks": 87300,
          "time": 249.0881165,
          "velocity": 0.7874015748031497
        },
        {
          "duration": 0.125,
          "durationTicks": 60,
          "midi": 71,
          "name": "B4",
          "ticks": 87360,
          "time": 249.2131165,
          "velocity": 0.7874015748031497
        },
        {
          "duration": 0.125,
          "durationTicks": 60,
          "midi": 66,
          "name": "F#4",
          "ticks": 87420,
          "time": 249.3381165,
          "velocity": 0.7874015748031497
        },
        {
          "duration": 0.125,
          "durationTicks": 60,
          "midi": 59,
          "name": "B3",
          "ticks": 87480,
          "time": 249.4631165,
          "velocity": 0.7874015748031497
        },
        {
          "duration": 0.125,
          "durationTicks": 60,
          "midi": 61,
          "name": "C#4",
          "ticks": 87540,
          "time": 249.5881165,
          "velocity": 0.7874015748031497
        },
        {
          "duration": 0.125,
          "durationTicks": 60,
          "midi": 63,
          "name": "D#4",
          "ticks": 87600,
          "time": 249.7131165,
          "velocity": 0.7874015748031497
        },
        {
          "duration": 0.125,
          "durationTicks": 60,
          "midi": 64,
          "name": "E4",
          "ticks": 87660,
          "time": 249.8381165,
          "velocity": 0.7874015748031497
        },
        {
          "duration": 0.125,
          "durationTicks": 60,
          "midi": 66,
          "name": "F#4",
          "ticks": 87720,
          "time": 249.9631165,
          "velocity": 0.7874015748031497
        },
        {
          "duration": 0.125,
          "durationTicks": 60,
          "midi": 67,
          "name": "G4",
          "ticks": 87780,
          "time": 250.0881165,
          "velocity": 0.7874015748031497
        },
        {
          "duration": 0.125,
          "durationTicks": 60,
          "midi": 69,
          "name": "A4",
          "ticks": 87840,
          "time": 250.2131165,
          "velocity": 0.7874015748031497
        },
        {
          "duration": 0.125,
          "durationTicks": 60,
          "midi": 66,
          "name": "F#4",
          "ticks": 87900,
          "time": 250.3381165,
          "velocity": 0.7874015748031497
        },
        {
          "duration": 0.125,
          "durationTicks": 60,
          "midi": 67,
          "name": "G4",
          "ticks": 87960,
          "time": 250.4631165,
          "velocity": 0.7874015748031497
        },
        {
          "duration": 0.125,
          "durationTicks": 60,
          "midi": 71,
          "name": "B4",
          "ticks": 88020,
          "time": 250.5881165,
          "velocity": 0.7874015748031497
        },
        {
          "duration": 0.125,
          "durationTicks": 60,
          "midi": 67,
          "name": "G4",
          "ticks": 88080,
          "time": 250.7131165,
          "velocity": 0.7874015748031497
        },
        {
          "duration": 0.125,
          "durationTicks": 60,
          "midi": 64,
          "name": "E4",
          "ticks": 88140,
          "time": 250.8381165,
          "velocity": 0.7874015748031497
        },
        {
          "duration": 0.125,
          "durationTicks": 60,
          "midi": 67,
          "name": "G4",
          "ticks": 88200,
          "time": 250.9631165,
          "velocity": 0.7874015748031497
        },
        {
          "duration": 0.125,
          "durationTicks": 60,
          "midi": 71,
          "name": "B4",
          "ticks": 88260,
          "time": 251.0881165,
          "velocity": 0.7874015748031497
        },
        {
          "duration": 0.125,
          "durationTicks": 60,
          "midi": 67,
          "name": "G4",
          "ticks": 88320,
          "time": 251.2131165,
          "velocity": 0.7874015748031497
        },
        {
          "duration": 0.125,
          "durationTicks": 60,
          "midi": 64,
          "name": "E4",
          "ticks": 88380,
          "time": 251.3381165,
          "velocity": 0.7874015748031497
        },
        {
          "duration": 0.125,
          "durationTicks": 60,
          "midi": 67,
          "name": "G4",
          "ticks": 88440,
          "time": 251.4631165,
          "velocity": 0.7874015748031497
        },
        {
          "duration": 0.125,
          "durationTicks": 60,
          "midi": 71,
          "name": "B4",
          "ticks": 88500,
          "time": 251.5881165,
          "velocity": 0.7874015748031497
        },
        {
          "duration": 0.125,
          "durationTicks": 60,
          "midi": 67,
          "name": "G4",
          "ticks": 88560,
          "time": 251.7131165,
          "velocity": 0.7874015748031497
        },
        {
          "duration": 0.125,
          "durationTicks": 60,
          "midi": 64,
          "name": "E4",
          "ticks": 88620,
          "time": 251.8381165,
          "velocity": 0.7874015748031497
        },
        {
          "duration": 0.125,
          "durationTicks": 60,
          "midi": 69,
          "name": "A4",
          "ticks": 88680,
          "time": 251.9631165,
          "velocity": 0.7874015748031497
        },
        {
          "duration": 0.125,
          "durationTicks": 60,
          "midi": 72,
          "name": "C5",
          "ticks": 88740,
          "time": 252.0881165,
          "velocity": 0.7874015748031497
        },
        {
          "duration": 0.125,
          "durationTicks": 60,
          "midi": 69,
          "name": "A4",
          "ticks": 88800,
          "time": 252.2131165,
          "velocity": 0.7874015748031497
        },
        {
          "duration": 0.125,
          "durationTicks": 60,
          "midi": 64,
          "name": "E4",
          "ticks": 88860,
          "time": 252.3381165,
          "velocity": 0.7874015748031497
        },
        {
          "duration": 0.125,
          "durationTicks": 60,
          "midi": 67,
          "name": "G4",
          "ticks": 88920,
          "time": 252.4631165,
          "velocity": 0.7874015748031497
        },
        {
          "duration": 0.125,
          "durationTicks": 60,
          "midi": 72,
          "name": "C5",
          "ticks": 88980,
          "time": 252.5881165,
          "velocity": 0.7874015748031497
        },
        {
          "duration": 0.125,
          "durationTicks": 60,
          "midi": 67,
          "name": "G4",
          "ticks": 89040,
          "time": 252.7131165,
          "velocity": 0.7874015748031497
        },
        {
          "duration": 0.125,
          "durationTicks": 60,
          "midi": 64,
          "name": "E4",
          "ticks": 89100,
          "time": 252.8381165,
          "velocity": 0.7874015748031497
        },
        {
          "duration": 0.125,
          "durationTicks": 60,
          "midi": 66,
          "name": "F#4",
          "ticks": 89160,
          "time": 252.9631165,
          "velocity": 0.7874015748031497
        },
        {
          "duration": 0.125,
          "durationTicks": 60,
          "midi": 72,
          "name": "C5",
          "ticks": 89220,
          "time": 253.0881165,
          "velocity": 0.7874015748031497
        },
        {
          "duration": 0.125,
          "durationTicks": 60,
          "midi": 66,
          "name": "F#4",
          "ticks": 89280,
          "time": 253.2131165,
          "velocity": 0.7874015748031497
        },
        {
          "duration": 0.125,
          "durationTicks": 60,
          "midi": 64,
          "name": "E4",
          "ticks": 89340,
          "time": 253.3381165,
          "velocity": 0.7874015748031497
        },
        {
          "duration": 0.125,
          "durationTicks": 60,
          "midi": 67,
          "name": "G4",
          "ticks": 89400,
          "time": 253.4631165,
          "velocity": 0.7874015748031497
        },
        {
          "duration": 0.125,
          "durationTicks": 60,
          "midi": 71,
          "name": "B4",
          "ticks": 89460,
          "time": 253.5881165,
          "velocity": 0.7874015748031497
        },
        {
          "duration": 0.125,
          "durationTicks": 60,
          "midi": 67,
          "name": "G4",
          "ticks": 89520,
          "time": 253.7131165,
          "velocity": 0.7874015748031497
        },
        {
          "duration": 0.125,
          "durationTicks": 60,
          "midi": 64,
          "name": "E4",
          "ticks": 89580,
          "time": 253.8381165,
          "velocity": 0.7874015748031497
        },
        {
          "duration": 0.125,
          "durationTicks": 60,
          "midi": 59,
          "name": "B3",
          "ticks": 89640,
          "time": 253.9631165,
          "velocity": 0.7874015748031497
        },
        {
          "duration": 0.125,
          "durationTicks": 60,
          "midi": 71,
          "name": "B4",
          "ticks": 89700,
          "time": 254.0881165,
          "velocity": 0.7874015748031497
        },
        {
          "duration": 0.125,
          "durationTicks": 60,
          "midi": 69,
          "name": "A4",
          "ticks": 89760,
          "time": 254.2131165,
          "velocity": 0.7874015748031497
        },
        {
          "duration": 0.125,
          "durationTicks": 60,
          "midi": 71,
          "name": "B4",
          "ticks": 89820,
          "time": 254.3381165,
          "velocity": 0.7874015748031497
        },
        {
          "duration": 0.125,
          "durationTicks": 60,
          "midi": 67,
          "name": "G4",
          "ticks": 89880,
          "time": 254.4631165,
          "velocity": 0.7874015748031497
        },
        {
          "duration": 0.125,
          "durationTicks": 60,
          "midi": 71,
          "name": "B4",
          "ticks": 89940,
          "time": 254.5881165,
          "velocity": 0.7874015748031497
        },
        {
          "duration": 0.125,
          "durationTicks": 60,
          "midi": 66,
          "name": "F#4",
          "ticks": 90000,
          "time": 254.7131165,
          "velocity": 0.7874015748031497
        },
        {
          "duration": 0.125,
          "durationTicks": 60,
          "midi": 71,
          "name": "B4",
          "ticks": 90060,
          "time": 254.8381165,
          "velocity": 0.7874015748031497
        },
        {
          "duration": 0.125,
          "durationTicks": 60,
          "midi": 67,
          "name": "G4",
          "ticks": 90120,
          "time": 254.9631165,
          "velocity": 0.7874015748031497
        },
        {
          "duration": 0.125,
          "durationTicks": 60,
          "midi": 64,
          "name": "E4",
          "ticks": 90180,
          "time": 255.0881165,
          "velocity": 0.7874015748031497
        },
        {
          "duration": 0.125,
          "durationTicks": 60,
          "midi": 67,
          "name": "G4",
          "ticks": 90240,
          "time": 255.2131165,
          "velocity": 0.7874015748031497
        },
        {
          "duration": 0.125,
          "durationTicks": 60,
          "midi": 71,
          "name": "B4",
          "ticks": 90300,
          "time": 255.3381165,
          "velocity": 0.7874015748031497
        },
        {
          "duration": 0.125,
          "durationTicks": 60,
          "midi": 76,
          "name": "E5",
          "ticks": 90360,
          "time": 255.4631165,
          "velocity": 0.7874015748031497
        },
        {
          "duration": 0.125,
          "durationTicks": 60,
          "midi": 71,
          "name": "B4",
          "ticks": 90420,
          "time": 255.5881165,
          "velocity": 0.7874015748031497
        },
        {
          "duration": 0.125,
          "durationTicks": 60,
          "midi": 67,
          "name": "G4",
          "ticks": 90480,
          "time": 255.7131165,
          "velocity": 0.7874015748031497
        },
        {
          "duration": 0.125,
          "durationTicks": 60,
          "midi": 71,
          "name": "B4",
          "ticks": 90540,
          "time": 255.8381165,
          "velocity": 0.7874015748031497
        },
        {
          "duration": 0.5,
          "durationTicks": 240,
          "midi": 64,
          "name": "E4",
          "ticks": 90600,
          "time": 255.9631165,
          "velocity": 0.7874015748031497
        },
        {
          "duration": 0.25,
          "durationTicks": 120,
          "midi": 64,
          "name": "E4",
          "ticks": 90840,
          "time": 256.4631165,
          "velocity": 0.7874015748031497
        },
        {
          "duration": 0.25,
          "durationTicks": 120,
          "midi": 48,
          "name": "C3",
          "ticks": 91080,
          "time": 256.9631165,
          "velocity": 0.7874015748031497
        },
        {
          "duration": 0.5,
          "durationTicks": 240,
          "midi": 64,
          "name": "E4",
          "ticks": 91320,
          "time": 257.4631165,
          "velocity": 0.7874015748031497
        },
        {
          "duration": 0.5,
          "durationTicks": 240,
          "midi": 62,
          "name": "D4",
          "ticks": 91560,
          "time": 257.9631165,
          "velocity": 0.7874015748031497
        },
        {
          "duration": 0.5,
          "durationTicks": 240,
          "midi": 47,
          "name": "B2",
          "ticks": 91800,
          "time": 258.4631165,
          "velocity": 0.7874015748031497
        },
        {
          "duration": 0.5,
          "durationTicks": 240,
          "midi": 62,
          "name": "D4",
          "ticks": 92040,
          "time": 258.9631165,
          "velocity": 0.7874015748031497
        },
        {
          "duration": 0.25,
          "durationTicks": 120,
          "midi": 60,
          "name": "C4",
          "ticks": 92280,
          "time": 259.4631165,
          "velocity": 0.7874015748031497
        },
        {
          "duration": 0.25,
          "durationTicks": 120,
          "midi": 59,
          "name": "B3",
          "ticks": 92400,
          "time": 259.7131165,
          "velocity": 0.7874015748031497
        },
        {
          "duration": 0.25,
          "durationTicks": 120,
          "midi": 57,
          "name": "A3",
          "ticks": 92520,
          "time": 259.9631165,
          "velocity": 0.7874015748031497
        },
        {
          "duration": 0.25,
          "durationTicks": 120,
          "midi": 55,
          "name": "G3",
          "ticks": 92640,
          "time": 260.2131165,
          "velocity": 0.7874015748031497
        },
        {
          "duration": 0.25,
          "durationTicks": 120,
          "midi": 54,
          "name": "F#3",
          "ticks": 92760,
          "time": 260.4631165,
          "velocity": 0.7874015748031497
        },
        {
          "duration": 0.25,
          "durationTicks": 120,
          "midi": 52,
          "name": "E3",
          "ticks": 92880,
          "time": 260.7131165,
          "velocity": 0.7874015748031497
        },
        {
          "duration": 0.25,
          "durationTicks": 120,
          "midi": 54,
          "name": "F#3",
          "ticks": 93000,
          "time": 260.9631165,
          "velocity": 0.7874015748031497
        },
        {
          "duration": 0.125,
          "durationTicks": 60,
          "midi": 55,
          "name": "G3",
          "ticks": 93120,
          "time": 261.2131165,
          "velocity": 0.7874015748031497
        },
        {
          "duration": 0.125,
          "durationTicks": 60,
          "midi": 57,
          "name": "A3",
          "ticks": 93180,
          "time": 261.3381165,
          "velocity": 0.7874015748031497
        },
        {
          "duration": 0.625,
          "durationTicks": 300,
          "midi": 50,
          "name": "D3",
          "ticks": 93240,
          "time": 261.4631165,
          "velocity": 0.7874015748031497
        },
        {
          "duration": 0.125,
          "durationTicks": 60,
          "midi": 60,
          "name": "C4",
          "ticks": 93540,
          "time": 262.0881165,
          "velocity": 0.7874015748031497
        },
        {
          "duration": 0.125,
          "durationTicks": 60,
          "midi": 59,
          "name": "B3",
          "ticks": 93600,
          "time": 262.2131165,
          "velocity": 0.7874015748031497
        },
        {
          "duration": 0.125,
          "durationTicks": 60,
          "midi": 57,
          "name": "A3",
          "ticks": 93660,
          "time": 262.3381165,
          "velocity": 0.7874015748031497
        },
        {
          "duration": 0.125,
          "durationTicks": 60,
          "midi": 59,
          "name": "B3",
          "ticks": 93720,
          "time": 262.4631165,
          "velocity": 0.7874015748031497
        },
        {
          "duration": 0.125,
          "durationTicks": 60,
          "midi": 55,
          "name": "G3",
          "ticks": 93780,
          "time": 262.5881165,
          "velocity": 0.7874015748031497
        },
        {
          "duration": 0.125,
          "durationTicks": 60,
          "midi": 54,
          "name": "F#3",
          "ticks": 93840,
          "time": 262.7131165,
          "velocity": 0.7874015748031497
        },
        {
          "duration": 0.125,
          "durationTicks": 60,
          "midi": 55,
          "name": "G3",
          "ticks": 93900,
          "time": 262.8381165,
          "velocity": 0.7874015748031497
        },
        {
          "duration": 0.125,
          "durationTicks": 60,
          "midi": 57,
          "name": "A3",
          "ticks": 93960,
          "time": 262.9631165,
          "velocity": 0.7874015748031497
        },
        {
          "duration": 0.125,
          "durationTicks": 60,
          "midi": 55,
          "name": "G3",
          "ticks": 94020,
          "time": 263.0881165,
          "velocity": 0.7874015748031497
        },
        {
          "duration": 0.125,
          "durationTicks": 60,
          "midi": 59,
          "name": "B3",
          "ticks": 94080,
          "time": 263.2131165,
          "velocity": 0.7874015748031497
        },
        {
          "duration": 0.125,
          "durationTicks": 60,
          "midi": 55,
          "name": "G3",
          "ticks": 94140,
          "time": 263.3381165,
          "velocity": 0.7874015748031497
        },
        {
          "duration": 0.125,
          "durationTicks": 60,
          "midi": 60,
          "name": "C4",
          "ticks": 94200,
          "time": 263.4631165,
          "velocity": 0.7874015748031497
        },
        {
          "duration": 0.125,
          "durationTicks": 60,
          "midi": 55,
          "name": "G3",
          "ticks": 94260,
          "time": 263.5881165,
          "velocity": 0.7874015748031497
        },
        {
          "duration": 0.125,
          "durationTicks": 60,
          "midi": 62,
          "name": "D4",
          "ticks": 94320,
          "time": 263.7131165,
          "velocity": 0.7874015748031497
        },
        {
          "duration": 0.125,
          "durationTicks": 60,
          "midi": 55,
          "name": "G3",
          "ticks": 94380,
          "time": 263.8381165,
          "velocity": 0.7874015748031497
        },
        {
          "duration": 0.25,
          "durationTicks": 120,
          "midi": 52,
          "name": "E3",
          "ticks": 94440,
          "time": 263.9631165,
          "velocity": 0.7874015748031497
        },
        {
          "duration": 0.25,
          "durationTicks": 120,
          "midi": 55,
          "name": "G3",
          "ticks": 94560,
          "time": 264.2131165,
          "velocity": 0.7874015748031497
        },
        {
          "duration": 0.25,
          "durationTicks": 120,
          "midi": 59,
          "name": "B3",
          "ticks": 94800,
          "time": 264.7131165,
          "velocity": 0.7874015748031497
        },
        {
          "duration": 0.25,
          "durationTicks": 120,
          "midi": 57,
          "name": "A3",
          "ticks": 94920,
          "time": 264.9631165,
          "velocity": 0.7874015748031497
        },
        {
          "duration": 0.25,
          "durationTicks": 120,
          "midi": 55,
          "name": "G3",
          "ticks": 95040,
          "time": 265.2131165,
          "velocity": 0.7874015748031497
        },
        {
          "duration": 0.125,
          "durationTicks": 60,
          "midi": 54,
          "name": "F#3",
          "ticks": 95160,
          "time": 265.4631165,
          "velocity": 0.7874015748031497
        },
        {
          "duration": 0.125,
          "durationTicks": 60,
          "midi": 62,
          "name": "D4",
          "ticks": 95220,
          "time": 265.5881165,
          "velocity": 0.7874015748031497
        },
        {
          "duration": 0.125,
          "durationTicks": 60,
          "midi": 64,
          "name": "E4",
          "ticks": 95280,
          "time": 265.7131165,
          "velocity": 0.7874015748031497
        },
        {
          "duration": 0.125,
          "durationTicks": 60,
          "midi": 66,
          "name": "F#4",
          "ticks": 95340,
          "time": 265.8381165,
          "velocity": 0.7874015748031497
        },
        {
          "duration": 0.125,
          "durationTicks": 60,
          "midi": 67,
          "name": "G4",
          "ticks": 95400,
          "time": 265.9631165,
          "velocity": 0.7874015748031497
        },
        {
          "duration": 0.125,
          "durationTicks": 60,
          "midi": 62,
          "name": "D4",
          "ticks": 95460,
          "time": 266.0881165,
          "velocity": 0.7874015748031497
        },
        {
          "duration": 0.125,
          "durationTicks": 60,
          "midi": 59,
          "name": "B3",
          "ticks": 95520,
          "time": 266.2131165,
          "velocity": 0.7874015748031497
        },
        {
          "duration": 0.125,
          "durationTicks": 60,
          "midi": 55,
          "name": "G3",
          "ticks": 95580,
          "time": 266.3381165,
          "velocity": 0.7874015748031497
        },
        {
          "duration": 0.125,
          "durationTicks": 60,
          "midi": 57,
          "name": "A3",
          "ticks": 95640,
          "time": 266.4631165,
          "velocity": 0.7874015748031497
        },
        {
          "duration": 0.125,
          "durationTicks": 60,
          "midi": 60,
          "name": "C4",
          "ticks": 95700,
          "time": 266.5881165,
          "velocity": 0.7874015748031497
        },
        {
          "duration": 0.125,
          "durationTicks": 60,
          "midi": 67,
          "name": "G4",
          "ticks": 95760,
          "time": 266.7131165,
          "velocity": 0.7874015748031497
        },
        {
          "duration": 0.125,
          "durationTicks": 60,
          "midi": 66,
          "name": "F#4",
          "ticks": 95820,
          "time": 266.8381165,
          "velocity": 0.7874015748031497
        },
        {
          "duration": 0.25,
          "durationTicks": 120,
          "midi": 67,
          "name": "G4",
          "ticks": 95880,
          "time": 266.9631165,
          "velocity": 0.7874015748031497
        },
        {
          "duration": 0.25,
          "durationTicks": 120,
          "midi": 55,
          "name": "G3",
          "ticks": 96000,
          "time": 267.2131165,
          "velocity": 0.7874015748031497
        },
        {
          "duration": 0.25,
          "durationTicks": 120,
          "midi": 50,
          "name": "D3",
          "ticks": 96120,
          "time": 267.4631165,
          "velocity": 0.7874015748031497
        },
        {
          "duration": 0.25,
          "durationTicks": 120,
          "midi": 47,
          "name": "B2",
          "ticks": 96240,
          "time": 267.7131165,
          "velocity": 0.7874015748031497
        },
        {
          "duration": 0.5825239999999781,
          "durationTicks": 240,
          "midi": 43,
          "name": "G2",
          "ticks": 96360,
          "time": 267.9631165,
          "velocity": 0.7874015748031497
        },
        {
          "duration": 0.5825239999999781,
          "durationTicks": 240,
          "midi": 55,
          "name": "G3",
          "ticks": 96360,
          "time": 267.9631165,
          "velocity": 0.7874015748031497
        },
        {
          "duration": 1.1650479999999561,
          "durationTicks": 480,
          "midi": 81,
          "name": "A5",
          "ticks": 97680,
          "time": 271.16699850000003,
          "velocity": 0.7874015748031497
        },
        {
          "duration": 0.14563100000003715,
          "durationTicks": 60,
          "midi": 79,
          "name": "G5",
          "ticks": 98160,
          "time": 272.3320465,
          "velocity": 0.7874015748031497
        },
        {
          "duration": 0.1456309999999803,
          "durationTicks": 60,
          "midi": 78,
          "name": "F#5",
          "ticks": 98220,
          "time": 272.4776775,
          "velocity": 0.7874015748031497
        },
        {
          "duration": 0.1456309999999803,
          "durationTicks": 60,
          "midi": 76,
          "name": "E5",
          "ticks": 98280,
          "time": 272.6233085,
          "velocity": 0.7874015748031497
        },
        {
          "duration": 0.14563100000003715,
          "durationTicks": 60,
          "midi": 74,
          "name": "D5",
          "ticks": 98340,
          "time": 272.7689395,
          "velocity": 0.7874015748031497
        },
        {
          "duration": 1.165048000000013,
          "durationTicks": 480,
          "midi": 72,
          "name": "C5",
          "ticks": 98400,
          "time": 272.9145705,
          "velocity": 0.7874015748031497
        },
        {
          "duration": 0.1456309999999803,
          "durationTicks": 60,
          "midi": 71,
          "name": "B4",
          "ticks": 98880,
          "time": 274.07961850000004,
          "velocity": 0.7874015748031497
        },
        {
          "duration": 0.1456309999999803,
          "durationTicks": 60,
          "midi": 69,
          "name": "A4",
          "ticks": 98940,
          "time": 274.2252495,
          "velocity": 0.7874015748031497
        },
        {
          "duration": 0.14563100000003715,
          "durationTicks": 60,
          "midi": 67,
          "name": "G4",
          "ticks": 99000,
          "time": 274.3708805,
          "velocity": 0.7874015748031497
        },
        {
          "duration": 0.1456309999999803,
          "durationTicks": 60,
          "midi": 66,
          "name": "F#4",
          "ticks": 99060,
          "time": 274.51651150000004,
          "velocity": 0.7874015748031497
        },
        {
          "duration": 1.165048000000013,
          "durationTicks": 480,
          "midi": 64,
          "name": "E4",
          "ticks": 99120,
          "time": 274.6621425,
          "velocity": 0.7874015748031497
        },
        {
          "duration": 0.1456309999999803,
          "durationTicks": 60,
          "midi": 62,
          "name": "D4",
          "ticks": 99600,
          "time": 275.82719050000003,
          "velocity": 0.7874015748031497
        },
        {
          "duration": 0.1456309999999803,
          "durationTicks": 60,
          "midi": 60,
          "name": "C4",
          "ticks": 99660,
          "time": 275.9728215,
          "velocity": 0.7874015748031497
        },
        {
          "duration": 0.14563100000003715,
          "durationTicks": 60,
          "midi": 59,
          "name": "B3",
          "ticks": 99720,
          "time": 276.1184525,
          "velocity": 0.7874015748031497
        },
        {
          "duration": 0.1456309999999803,
          "durationTicks": 60,
          "midi": 57,
          "name": "A3",
          "ticks": 99780,
          "time": 276.2640835,
          "velocity": 0.7874015748031497
        },
        {
          "duration": 1.0194170000000327,
          "durationTicks": 420,
          "midi": 59,
          "name": "B3",
          "ticks": 99840,
          "time": 276.4097145,
          "velocity": 0.7874015748031497
        },
        {
          "duration": 0.1456309999999803,
          "durationTicks": 60,
          "midi": 57,
          "name": "A3",
          "ticks": 100260,
          "time": 277.42913150000004,
          "velocity": 0.7874015748031497
        },
        {
          "duration": 0.1456309999999803,
          "durationTicks": 60,
          "midi": 60,
          "name": "C4",
          "ticks": 100320,
          "time": 277.5747625,
          "velocity": 0.7874015748031497
        },
        {
          "duration": 0.14563100000003715,
          "durationTicks": 60,
          "midi": 59,
          "name": "B3",
          "ticks": 100380,
          "time": 277.7203935,
          "velocity": 0.7874015748031497
        },
        {
          "duration": 0.1456309999999803,
          "durationTicks": 60,
          "midi": 57,
          "name": "A3",
          "ticks": 100440,
          "time": 277.86602450000004,
          "velocity": 0.7874015748031497
        },
        {
          "duration": 0.1456309999999803,
          "durationTicks": 60,
          "midi": 55,
          "name": "G3",
          "ticks": 100500,
          "time": 278.0116555,
          "velocity": 0.7874015748031497
        },
        {
          "duration": 0.29126200000001745,
          "durationTicks": 120,
          "midi": 57,
          "name": "A3",
          "ticks": 100560,
          "time": 278.1572865,
          "velocity": 0.7874015748031497
        },
        {
          "duration": 0.8737859999999955,
          "durationTicks": 360,
          "midi": 69,
          "name": "A4",
          "ticks": 100680,
          "time": 278.4485485,
          "velocity": 0.7874015748031497
        },
        {
          "duration": 0.1456309999999803,
          "durationTicks": 60,
          "midi": 67,
          "name": "G4",
          "ticks": 101040,
          "time": 279.3223345,
          "velocity": 0.7874015748031497
        },
        {
          "duration": 0.14563100000003715,
          "durationTicks": 60,
          "midi": 66,
          "name": "F#4",
          "ticks": 101100,
          "time": 279.4679655,
          "velocity": 0.7874015748031497
        },
        {
          "duration": 0.1456309999999803,
          "durationTicks": 60,
          "midi": 64,
          "name": "E4",
          "ticks": 101160,
          "time": 279.6135965,
          "velocity": 0.7874015748031497
        },
        {
          "duration": 0.1456309999999803,
          "durationTicks": 60,
          "midi": 62,
          "name": "D4",
          "ticks": 101220,
          "time": 279.7592275,
          "velocity": 0.7874015748031497
        },
        {
          "duration": 0.14563100000003715,
          "durationTicks": 60,
          "midi": 61,
          "name": "C#4",
          "ticks": 101280,
          "time": 279.9048585,
          "velocity": 0.7874015748031497
        },
        {
          "duration": 0.1456309999999803,
          "durationTicks": 60,
          "midi": 64,
          "name": "E4",
          "ticks": 101340,
          "time": 280.0504895,
          "velocity": 0.7874015748031497
        },
        {
          "duration": 0.1456309999999803,
          "durationTicks": 60,
          "midi": 69,
          "name": "A4",
          "ticks": 101400,
          "time": 280.1961205,
          "velocity": 0.7874015748031497
        },
        {
          "duration": 0.14563100000003715,
          "durationTicks": 60,
          "midi": 71,
          "name": "B4",
          "ticks": 101460,
          "time": 280.3417515,
          "velocity": 0.7874015748031497
        },
        {
          "duration": 0.5825239999999781,
          "durationTicks": 240,
          "midi": 72,
          "name": "C5",
          "ticks": 101520,
          "time": 280.4873825,
          "velocity": 0.7874015748031497
        },
        {
          "duration": 0.1456309999999803,
          "durationTicks": 60,
          "midi": 71,
          "name": "B4",
          "ticks": 101760,
          "time": 281.0699065,
          "velocity": 0.7874015748031497
        },
        {
          "duration": 0.14563100000003715,
          "durationTicks": 60,
          "midi": 69,
          "name": "A4",
          "ticks": 101820,
          "time": 281.2155375,
          "velocity": 0.7874015748031497
        },
        {
          "duration": 0.1456309999999803,
          "durationTicks": 60,
          "midi": 67,
          "name": "G4",
          "ticks": 101880,
          "time": 281.3611685,
          "velocity": 0.7874015748031497
        },
        {
          "duration": 0.14563100000003715,
          "durationTicks": 60,
          "midi": 66,
          "name": "F#4",
          "ticks": 101940,
          "time": 281.5067995,
          "velocity": 0.7874015748031497
        },
        {
          "duration": 1.0194169999999758,
          "durationTicks": 420,
          "midi": 64,
          "name": "E4",
          "ticks": 102000,
          "time": 281.65243050000004,
          "velocity": 0.7874015748031497
        },
        {
          "duration": 0.1456309999999803,
          "durationTicks": 60,
          "midi": 62,
          "name": "D4",
          "ticks": 102420,
          "time": 282.6718475,
          "velocity": 0.7874015748031497
        },
        {
          "duration": 0.14563100000003715,
          "durationTicks": 60,
          "midi": 61,
          "name": "C#4",
          "ticks": 102480,
          "time": 282.8174785,
          "velocity": 0.7874015748031497
        },
        {
          "duration": 0.1456309999999803,
          "durationTicks": 60,
          "midi": 64,
          "name": "E4",
          "ticks": 102540,
          "time": 282.96310950000003,
          "velocity": 0.7874015748031497
        },
        {
          "duration": 0.1456309999999803,
          "durationTicks": 60,
          "midi": 62,
          "name": "D4",
          "ticks": 102600,
          "time": 283.1087405,
          "velocity": 0.7874015748031497
        },
        {
          "duration": 0.14563100000003715,
          "durationTicks": 60,
          "midi": 61,
          "name": "C#4",
          "ticks": 102660,
          "time": 283.2543715,
          "velocity": 0.7874015748031497
        },
        {
          "duration": 0.8737859999999955,
          "durationTicks": 360,
          "midi": 54,
          "name": "F#3",
          "ticks": 102720,
          "time": 283.4000025,
          "velocity": 0.7874015748031497
        },
        {
          "duration": 1.165048000000013,
          "durationTicks": 480,
          "midi": 83,
          "name": "B5",
          "ticks": 103440,
          "time": 285.1475745,
          "velocity": 0.7874015748031497
        },
        {
          "duration": 0.1456309999999803,
          "durationTicks": 60,
          "midi": 81,
          "name": "A5",
          "ticks": 103920,
          "time": 286.31262250000003,
          "velocity": 0.7874015748031497
        },
        {
          "duration": 0.1456309999999803,
          "durationTicks": 60,
          "midi": 79,
          "name": "G5",
          "ticks": 103980,
          "time": 286.4582535,
          "velocity": 0.7874015748031497
        },
        {
          "duration": 0.14563100000003715,
          "durationTicks": 60,
          "midi": 78,
          "name": "F#5",
          "ticks": 104040,
          "time": 286.6038845,
          "velocity": 0.7874015748031497
        },
        {
          "duration": 0.1456309999999803,
          "durationTicks": 60,
          "midi": 76,
          "name": "E5",
          "ticks": 104100,
          "time": 286.74951550000003,
          "velocity": 0.7874015748031497
        },
        {
          "duration": 0.29126200000001745,
          "durationTicks": 120,
          "midi": 75,
          "name": "D#5",
          "ticks": 104160,
          "time": 286.8951465,
          "velocity": 0.7874015748031497
        },
        {
          "duration": 0.8737859999999955,
          "durationTicks": 360,
          "midi": 74,
          "name": "D5",
          "ticks": 104280,
          "time": 287.1864085,
          "velocity": 0.7874015748031497
        },
        {
          "duration": 0.1456309999999803,
          "durationTicks": 60,
          "midi": 72,
          "name": "C5",
          "ticks": 104640,
          "time": 288.0601945,
          "velocity": 0.7874015748031497
        },
        {
          "duration": 0.1456309999999803,
          "durationTicks": 60,
          "midi": 71,
          "name": "B4",
          "ticks": 104700,
          "time": 288.2058255,
          "velocity": 0.7874015748031497
        },
        {
          "duration": 0.14563100000003715,
          "durationTicks": 60,
          "midi": 69,
          "name": "A4",
          "ticks": 104760,
          "time": 288.3514565,
          "velocity": 0.7874015748031497
        },
        {
          "duration": 0.1456309999999803,
          "durationTicks": 60,
          "midi": 67,
          "name": "G4",
          "ticks": 104820,
          "time": 288.4970875,
          "velocity": 0.7874015748031497
        },
        {
          "duration": 1.0194170000000327,
          "durationTicks": 420,
          "midi": 66,
          "name": "F#4",
          "ticks": 104880,
          "time": 288.6427185,
          "velocity": 0.7874015748031497
        },
        {
          "duration": 0.1456309999999803,
          "durationTicks": 60,
          "midi": 64,
          "name": "E4",
          "ticks": 105300,
          "time": 289.66213550000003,
          "velocity": 0.7874015748031497
        },
        {
          "duration": 0.1456309999999803,
          "durationTicks": 60,
          "midi": 63,
          "name": "D#4",
          "ticks": 105360,
          "time": 289.8077665,
          "velocity": 0.7874015748031497
        },
        {
          "duration": 0.14563100000003715,
          "durationTicks": 60,
          "midi": 66,
          "name": "F#4",
          "ticks": 105420,
          "time": 289.9533975,
          "velocity": 0.7874015748031497
        },
        {
          "duration": 0.1456309999999803,
          "durationTicks": 60,
          "midi": 64,
          "name": "E4",
          "ticks": 105480,
          "time": 290.09902850000003,
          "velocity": 0.7874015748031497
        },
        {
          "duration": 0.1456309999999803,
          "durationTicks": 60,
          "midi": 63,
          "name": "D#4",
          "ticks": 105540,
          "time": 290.2446595,
          "velocity": 0.7874015748031497
        },
        {
          "duration": 0.14563100000003715,
          "durationTicks": 60,
          "midi": 64,
          "name": "E4",
          "ticks": 105600,
          "time": 290.3902905,
          "velocity": 0.7874015748031497
        },
        {
          "duration": 0.1456309999999803,
          "durationTicks": 60,
          "midi": 62,
          "name": "D4",
          "ticks": 105660,
          "time": 290.53592150000003,
          "velocity": 0.7874015748031497
        },
        {
          "duration": 0.1456309999999803,
          "durationTicks": 60,
          "midi": 60,
          "name": "C4",
          "ticks": 105720,
          "time": 290.6815525,
          "velocity": 0.7874015748031497
        },
        {
          "duration": 0.14563100000003715,
          "durationTicks": 60,
          "midi": 59,
          "name": "B3",
          "ticks": 105780,
          "time": 290.8271835,
          "velocity": 0.7874015748031497
        },
        {
          "duration": 0.1456309999999803,
          "durationTicks": 60,
          "midi": 57,
          "name": "A3",
          "ticks": 105840,
          "time": 290.9728145,
          "velocity": 0.7874015748031497
        },
        {
          "duration": 0.1456309999999803,
          "durationTicks": 60,
          "midi": 56,
          "name": "G#3",
          "ticks": 105900,
          "time": 291.1184455,
          "velocity": 0.7874015748031497
        },
        {
          "duration": 0.29126200000001745,
          "durationTicks": 120,
          "midi": 57,
          "name": "A3",
          "ticks": 105960,
          "time": 291.2640765,
          "velocity": 0.7874015748031497
        },
        {
          "duration": 1.0194170000000327,
          "durationTicks": 420,
          "midi": 62,
          "name": "D4",
          "ticks": 106320,
          "time": 292.1378625,
          "velocity": 0.7874015748031497
        },
        {
          "duration": 0.1456309999999803,
          "durationTicks": 60,
          "midi": 59,
          "name": "B3",
          "ticks": 106740,
          "time": 293.1572795,
          "velocity": 0.7874015748031497
        },
        {
          "duration": 0.14563100000003715,
          "durationTicks": 60,
          "midi": 60,
          "name": "C4",
          "ticks": 106800,
          "time": 293.3029105,
          "velocity": 0.7874015748031497
        },
        {
          "duration": 0.1456309999999803,
          "durationTicks": 60,
          "midi": 57,
          "name": "A3",
          "ticks": 106860,
          "time": 293.44854150000003,
          "velocity": 0.7874015748031497
        },
        {
          "duration": 0.1456309999999803,
          "durationTicks": 60,
          "midi": 60,
          "name": "C4",
          "ticks": 106920,
          "time": 293.5941725,
          "velocity": 0.7874015748031497
        },
        {
          "duration": 0.14563100000003715,
          "durationTicks": 60,
          "midi": 64,
          "name": "E4",
          "ticks": 106980,
          "time": 293.7398035,
          "velocity": 0.7874015748031497
        },
        {
          "duration": 1.0194169999999758,
          "durationTicks": 420,
          "midi": 66,
          "name": "F#4",
          "ticks": 107040,
          "time": 293.88543450000003,
          "velocity": 0.7874015748031497
        },
        {
          "duration": 0.1456309999999803,
          "durationTicks": 60,
          "midi": 63,
          "name": "D#4",
          "ticks": 107460,
          "time": 294.9048515,
          "velocity": 0.7874015748031497
        },
        {
          "duration": 0.14563100000003715,
          "durationTicks": 60,
          "midi": 64,
          "name": "E4",
          "ticks": 107520,
          "time": 295.0504825,
          "velocity": 0.7874015748031497
        },
        {
          "duration": 0.1456309999999803,
          "durationTicks": 60,
          "midi": 60,
          "name": "C4",
          "ticks": 107580,
          "time": 295.1961135,
          "velocity": 0.7874015748031497
        },
        {
          "duration": 0.1456309999999803,
          "durationTicks": 60,
          "midi": 64,
          "name": "E4",
          "ticks": 107640,
          "time": 295.3417445,
          "velocity": 0.7874015748031497
        },
        {
          "duration": 0.14563100000003715,
          "durationTicks": 60,
          "midi": 67,
          "name": "G4",
          "ticks": 107700,
          "time": 295.4873755,
          "velocity": 0.7874015748031497
        },
        {
          "duration": 1.0194169999999758,
          "durationTicks": 420,
          "midi": 69,
          "name": "A4",
          "ticks": 107760,
          "time": 295.6330065,
          "velocity": 0.7874015748031497
        },
        {
          "duration": 0.14563100000003715,
          "durationTicks": 60,
          "midi": 67,
          "name": "G4",
          "ticks": 108180,
          "time": 296.6524235,
          "velocity": 0.7874015748031497
        },
        {
          "duration": 0.1456309999999803,
          "durationTicks": 60,
          "midi": 66,
          "name": "F#4",
          "ticks": 108240,
          "time": 296.79805450000003,
          "velocity": 0.7874015748031497
        },
        {
          "duration": 0.1456309999999803,
          "durationTicks": 60,
          "midi": 69,
          "name": "A4",
          "ticks": 108300,
          "time": 296.9436855,
          "velocity": 0.7874015748031497
        },
        {
          "duration": 0.14563100000003715,
          "durationTicks": 60,
          "midi": 67,
          "name": "G4",
          "ticks": 108360,
          "time": 297.0893165,
          "velocity": 0.7874015748031497
        },
        {
          "duration": 0.1456309999999803,
          "durationTicks": 60,
          "midi": 66,
          "name": "F#4",
          "ticks": 108420,
          "time": 297.23494750000003,
          "velocity": 0.7874015748031497
        },
        {
          "duration": 0.8737859999999955,
          "durationTicks": 360,
          "midi": 67,
          "name": "G4",
          "ticks": 108480,
          "time": 297.3805785,
          "velocity": 0.7874015748031497
        },
        {
          "duration": 0.20833300000003874,
          "durationTicks": 120,
          "midi": 43,
          "name": "G2",
          "ticks": 109080,
          "time": 298.7539595,
          "velocity": 0.7874015748031497
        },
        {
          "duration": 0.05208324999995284,
          "durationTicks": 30,
          "midi": 55,
          "name": "G3",
          "ticks": 109200,
          "time": 298.96229250000005,
          "velocity": 0.7874015748031497
        },
        {
          "duration": 0.052083250000009684,
          "durationTicks": 30,
          "midi": 54,
          "name": "F#3",
          "ticks": 109230,
          "time": 299.01437575,
          "velocity": 0.7874015748031497
        },
        {
          "duration": 1.1458315000000425,
          "durationTicks": 660,
          "midi": 55,
          "name": "G3",
          "ticks": 109260,
          "time": 299.066459,
          "velocity": 0.7874015748031497
        },
        {
          "duration": 0.05208324999995284,
          "durationTicks": 30,
          "midi": 55,
          "name": "G3",
          "ticks": 109920,
          "time": 300.21229050000005,
          "velocity": 0.7874015748031497
        },
        {
          "duration": 0.052083250000009684,
          "durationTicks": 30,
          "midi": 54,
          "name": "F#3",
          "ticks": 109950,
          "time": 300.26437375,
          "velocity": 0.7874015748031497
        },
        {
          "duration": 0.052083250000009684,
          "durationTicks": 30,
          "midi": 55,
          "name": "G3",
          "ticks": 109980,
          "time": 300.316457,
          "velocity": 0.7874015748031497
        },
        {
          "duration": 0.15624975000002905,
          "durationTicks": 90,
          "midi": 54,
          "name": "F#3",
          "ticks": 110010,
          "time": 300.36854025,
          "velocity": 0.7874015748031497
        },
        {
          "duration": 0.10416649999996253,
          "durationTicks": 60,
          "midi": 52,
          "name": "E3",
          "ticks": 110100,
          "time": 300.52479000000005,
          "velocity": 0.7874015748031497
        },
        {
          "duration": 0.2083329999999819,
          "durationTicks": 120,
          "midi": 50,
          "name": "D3",
          "ticks": 110160,
          "time": 300.6289565,
          "velocity": 0.7874015748031497
        },
        {
          "duration": 0.41666600000002063,
          "durationTicks": 240,
          "midi": 52,
          "name": "E3",
          "ticks": 110280,
          "time": 300.8372895,
          "velocity": 0.7874015748031497
        },
        {
          "duration": 0.2083329999999819,
          "durationTicks": 120,
          "midi": 62,
          "name": "D4",
          "ticks": 110520,
          "time": 301.2539555,
          "velocity": 0.7874015748031497
        },
        {
          "duration": 0.41666600000002063,
          "durationTicks": 240,
          "midi": 61,
          "name": "C#4",
          "ticks": 110640,
          "time": 301.4622885,
          "velocity": 0.7874015748031497
        },
        {
          "duration": 0.2083329999999819,
          "durationTicks": 120,
          "midi": 57,
          "name": "A3",
          "ticks": 110880,
          "time": 301.8789545,
          "velocity": 0.7874015748031497
        },
        {
          "duration": 0.9374985000000038,
          "durationTicks": 540,
          "midi": 62,
          "name": "D4",
          "ticks": 111000,
          "time": 302.0872875,
          "velocity": 0.7874015748031497
        },
        {
          "duration": 0.10416650000001937,
          "durationTicks": 60,
          "midi": 64,
          "name": "E4",
          "ticks": 111540,
          "time": 303.024786,
          "velocity": 0.7874015748031497
        },
        {
          "duration": 0.2083329999999819,
          "durationTicks": 120,
          "midi": 60,
          "name": "C4",
          "ticks": 111600,
          "time": 303.1289525,
          "velocity": 0.7874015748031497
        },
        {
          "duration": 0.31249950000000126,
          "durationTicks": 180,
          "midi": 59,
          "name": "B3",
          "ticks": 111720,
          "time": 303.3372855,
          "velocity": 0.7874015748031497
        },
        {
          "duration": 0.10416650000001937,
          "durationTicks": 60,
          "midi": 60,
          "name": "C4",
          "ticks": 111900,
          "time": 303.649785,
          "velocity": 0.7874015748031497
        },
        {
          "duration": 0.2083329999999819,
          "durationTicks": 120,
          "midi": 57,
          "name": "A3",
          "ticks": 111960,
          "time": 303.7539515,
          "velocity": 0.7874015748031497
        },
        {
          "duration": 0.31249950000000126,
          "durationTicks": 180,
          "midi": 55,
          "name": "G3",
          "ticks": 112080,
          "time": 303.9622845,
          "velocity": 0.7874015748031497
        },
        {
          "duration": 0.10416650000001937,
          "durationTicks": 60,
          "midi": 57,
          "name": "A3",
          "ticks": 112260,
          "time": 304.274784,
          "velocity": 0.7874015748031497
        },
        {
          "duration": 0.2083329999999819,
          "durationTicks": 120,
          "midi": 59,
          "name": "B3",
          "ticks": 112320,
          "time": 304.37895050000003,
          "velocity": 0.7874015748031497
        },
        {
          "duration": 0.31249950000000126,
          "durationTicks": 180,
          "midi": 60,
          "name": "C4",
          "ticks": 112440,
          "time": 304.5872835,
          "velocity": 0.7874015748031497
        },
        {
          "duration": 0.10416650000001937,
          "durationTicks": 60,
          "midi": 62,
          "name": "D4",
          "ticks": 112620,
          "time": 304.899783,
          "velocity": 0.7874015748031497
        },
        {
          "duration": 0.2083329999999819,
          "durationTicks": 120,
          "midi": 59,
          "name": "B3",
          "ticks": 112680,
          "time": 305.00394950000003,
          "velocity": 0.7874015748031497
        },
        {
          "duration": 0.31249950000000126,
          "durationTicks": 180,
          "midi": 57,
          "name": "A3",
          "ticks": 112800,
          "time": 305.2122825,
          "velocity": 0.7874015748031497
        },
        {
          "duration": 0.10416650000001937,
          "durationTicks": 60,
          "midi": 59,
          "name": "B3",
          "ticks": 112980,
          "time": 305.524782,
          "velocity": 0.7874015748031497
        },
        {
          "duration": 0.2083329999999819,
          "durationTicks": 120,
          "midi": 60,
          "name": "C4",
          "ticks": 113040,
          "time": 305.62894850000004,
          "velocity": 0.7874015748031497
        },
        {
          "duration": 0.31249950000000126,
          "durationTicks": 180,
          "midi": 62,
          "name": "D4",
          "ticks": 113160,
          "time": 305.8372815,
          "velocity": 0.7874015748031497
        },
        {
          "duration": 0.10416650000001937,
          "durationTicks": 60,
          "midi": 60,
          "name": "C4",
          "ticks": 113340,
          "time": 306.149781,
          "velocity": 0.7874015748031497
        },
        {
          "duration": 0.2083329999999819,
          "durationTicks": 120,
          "midi": 59,
          "name": "B3",
          "ticks": 113400,
          "time": 306.25394750000004,
          "velocity": 0.7874015748031497
        },
        {
          "duration": 0.41666600000002063,
          "durationTicks": 240,
          "midi": 60,
          "name": "C4",
          "ticks": 113520,
          "time": 306.4622805,
          "velocity": 0.7874015748031497
        },
        {
          "duration": 0.2083329999999819,
          "durationTicks": 120,
          "midi": 62,
          "name": "D4",
          "ticks": 113760,
          "time": 306.87894650000004,
          "velocity": 0.7874015748031497
        },
        {
          "duration": 0.31249950000000126,
          "durationTicks": 180,
          "midi": 55,
          "name": "G3",
          "ticks": 113880,
          "time": 307.0872795,
          "velocity": 0.7874015748031497
        },
        {
          "duration": 0.10416650000001937,
          "durationTicks": 60,
          "midi": 54,
          "name": "F#3",
          "ticks": 114060,
          "time": 307.399779,
          "velocity": 0.7874015748031497
        },
        {
          "duration": 0.2083329999999819,
          "durationTicks": 120,
          "midi": 55,
          "name": "G3",
          "ticks": 114120,
          "time": 307.50394550000004,
          "velocity": 0.7874015748031497
        },
        {
          "duration": 0.31249950000000126,
          "durationTicks": 180,
          "midi": 50,
          "name": "D3",
          "ticks": 114240,
          "time": 307.7122785,
          "velocity": 0.7874015748031497
        },
        {
          "duration": 0.10416650000001937,
          "durationTicks": 60,
          "midi": 57,
          "name": "A3",
          "ticks": 114420,
          "time": 308.024778,
          "velocity": 0.7874015748031497
        },
        {
          "duration": 0.2083329999999819,
          "durationTicks": 120,
          "midi": 60,
          "name": "C4",
          "ticks": 114480,
          "time": 308.12894450000005,
          "velocity": 0.7874015748031497
        },
        {
          "duration": 0.052083250000009684,
          "durationTicks": 30,
          "midi": 60,
          "name": "C4",
          "ticks": 114600,
          "time": 308.3372775,
          "velocity": 0.7874015748031497
        },
        {
          "duration": 0.052083250000009684,
          "durationTicks": 30,
          "midi": 59,
          "name": "B3",
          "ticks": 114630,
          "time": 308.38936075000004,
          "velocity": 0.7874015748031497
        },
        {
          "duration": 0.05208324999995284,
          "durationTicks": 30,
          "midi": 60,
          "name": "C4",
          "ticks": 114660,
          "time": 308.44144400000005,
          "velocity": 0.7874015748031497
        },
        {
          "duration": 0.15624975000002905,
          "durationTicks": 90,
          "midi": 59,
          "name": "B3",
          "ticks": 114690,
          "time": 308.49352725,
          "velocity": 0.7874015748031497
        },
        {
          "duration": 0.10416650000001937,
          "durationTicks": 60,
          "midi": 57,
          "name": "A3",
          "ticks": 114780,
          "time": 308.64977700000003,
          "velocity": 0.7874015748031497
        },
        {
          "duration": 0.2083329999999819,
          "durationTicks": 120,
          "midi": 59,
          "name": "B3",
          "ticks": 114840,
          "time": 308.75394350000005,
          "velocity": 0.7874015748031497
        },
        {
          "duration": 0.31249950000000126,
          "durationTicks": 180,
          "midi": 52,
          "name": "E3",
          "ticks": 114960,
          "time": 308.96227650000003,
          "velocity": 0.7874015748031497
        },
        {
          "duration": 0.10416650000001937,
          "durationTicks": 60,
          "midi": 59,
          "name": "B3",
          "ticks": 115140,
          "time": 309.27477600000003,
          "velocity": 0.7874015748031497
        },
        {
          "duration": 0.2083329999999819,
          "durationTicks": 120,
          "midi": 62,
          "name": "D4",
          "ticks": 115200,
          "time": 309.37894250000005,
          "velocity": 0.7874015748031497
        },
        {
          "duration": 0.052083250000009684,
          "durationTicks": 30,
          "midi": 62,
          "name": "D4",
          "ticks": 115320,
          "time": 309.58727550000003,
          "velocity": 0.7874015748031497
        },
        {
          "duration": 0.052083250000009684,
          "durationTicks": 30,
          "midi": 61,
          "name": "C#4",
          "ticks": 115350,
          "time": 309.63935875000004,
          "velocity": 0.7874015748031497
        },
        {
          "duration": 0.05208324999995284,
          "durationTicks": 30,
          "midi": 62,
          "name": "D4",
          "ticks": 115380,
          "time": 309.69144200000005,
          "velocity": 0.7874015748031497
        },
        {
          "duration": 0.15624975000002905,
          "durationTicks": 90,
          "midi": 61,
          "name": "C#4",
          "ticks": 115410,
          "time": 309.74352525,
          "velocity": 0.7874015748031497
        },
        {
          "duration": 0.10416649999996253,
          "durationTicks": 60,
          "midi": 59,
          "name": "B3",
          "ticks": 115500,
          "time": 309.89977500000003,
          "velocity": 0.7874015748031497
        },
        {
          "duration": 0.20833300000003874,
          "durationTicks": 120,
          "midi": 57,
          "name": "A3",
          "ticks": 115560,
          "time": 310.0039415,
          "velocity": 0.7874015748031497
        },
        {
          "duration": 0.31249950000000126,
          "durationTicks": 180,
          "midi": 62,
          "name": "D4",
          "ticks": 115680,
          "time": 310.21227450000004,
          "velocity": 0.7874015748031497
        },
        {
          "duration": 0.10416649999996253,
          "durationTicks": 60,
          "midi": 60,
          "name": "C4",
          "ticks": 115860,
          "time": 310.52477400000004,
          "velocity": 0.7874015748031497
        },
        {
          "duration": 0.20833300000003874,
          "durationTicks": 120,
          "midi": 62,
          "name": "D4",
          "ticks": 115920,
          "time": 310.6289405,
          "velocity": 0.7874015748031497
        },
        {
          "duration": 0.31249950000000126,
          "durationTicks": 180,
          "midi": 55,
          "name": "G3",
          "ticks": 116040,
          "time": 310.83727350000004,
          "velocity": 0.7874015748031497
        },
        {
          "duration": 0.10416649999996253,
          "durationTicks": 60,
          "midi": 59,
          "name": "B3",
          "ticks": 116220,
          "time": 311.14977300000004,
          "velocity": 0.7874015748031497
        },
        {
          "duration": 0.20833300000003874,
          "durationTicks": 120,
          "midi": 62,
          "name": "D4",
          "ticks": 116280,
          "time": 311.2539395,
          "velocity": 0.7874015748031497
        },
        {
          "duration": 0.8333319999999844,
          "durationTicks": 480,
          "midi": 67,
          "name": "G4",
          "ticks": 116400,
          "time": 311.46227250000004,
          "velocity": 0.7874015748031497
        },
        {
          "duration": 0.10416650000001937,
          "durationTicks": 60,
          "midi": 69,
          "name": "A4",
          "ticks": 116880,
          "time": 312.2956045,
          "velocity": 0.7874015748031497
        },
        {
          "duration": 0.10416649999996253,
          "durationTicks": 60,
          "midi": 67,
          "name": "G4",
          "ticks": 116940,
          "time": 312.39977100000004,
          "velocity": 0.7874015748031497
        },
        {
          "duration": 0.10416650000001937,
          "durationTicks": 60,
          "midi": 66,
          "name": "F#4",
          "ticks": 117000,
          "time": 312.5039375,
          "velocity": 0.7874015748031497
        },
        {
          "duration": 0.10416650000001937,
          "durationTicks": 60,
          "midi": 64,
          "name": "E4",
          "ticks": 117060,
          "time": 312.608104,
          "velocity": 0.7874015748031497
        },
        {
          "duration": 0.31249950000000126,
          "durationTicks": 180,
          "midi": 66,
          "name": "F#4",
          "ticks": 117120,
          "time": 312.71227050000005,
          "velocity": 0.7874015748031497
        },
        {
          "duration": 0.10416649999996253,
          "durationTicks": 60,
          "midi": 67,
          "name": "G4",
          "ticks": 117300,
          "time": 313.02477000000005,
          "velocity": 0.7874015748031497
        },
        {
          "duration": 0.20833300000003874,
          "durationTicks": 120,
          "midi": 69,
          "name": "A4",
          "ticks": 117360,
          "time": 313.1289365,
          "velocity": 0.7874015748031497
        },
        {
          "duration": 0.31249950000000126,
          "durationTicks": 180,
          "midi": 62,
          "name": "D4",
          "ticks": 117480,
          "time": 313.33726950000005,
          "velocity": 0.7874015748031497
        },
        {
          "duration": 0.10416649999996253,
          "durationTicks": 60,
          "midi": 57,
          "name": "A3",
          "ticks": 117660,
          "time": 313.64976900000005,
          "velocity": 0.7874015748031497
        },
        {
          "duration": 0.20833300000003874,
          "durationTicks": 120,
          "midi": 54,
          "name": "F#3",
          "ticks": 117720,
          "time": 313.7539355,
          "velocity": 0.7874015748031497
        },
        {
          "duration": 0.31249950000000126,
          "durationTicks": 180,
          "midi": 50,
          "name": "D3",
          "ticks": 117840,
          "time": 313.96226850000005,
          "velocity": 0.7874015748031497
        },
        {
          "duration": 0.10416649999996253,
          "durationTicks": 60,
          "midi": 52,
          "name": "E3",
          "ticks": 118020,
          "time": 314.27476800000005,
          "velocity": 0.7874015748031497
        },
        {
          "duration": 0.20833300000003874,
          "durationTicks": 120,
          "midi": 54,
          "name": "F#3",
          "ticks": 118080,
          "time": 314.3789345,
          "velocity": 0.7874015748031497
        },
        {
          "duration": 0.3124994999999444,
          "durationTicks": 180,
          "midi": 55,
          "name": "G3",
          "ticks": 118200,
          "time": 314.58726750000005,
          "velocity": 0.7874015748031497
        },
        {
          "duration": 0.10416650000001937,
          "durationTicks": 60,
          "midi": 57,
          "name": "A3",
          "ticks": 118380,
          "time": 314.899767,
          "velocity": 0.7874015748031497
        },
        {
          "duration": 0.20833300000003874,
          "durationTicks": 120,
          "midi": 54,
          "name": "F#3",
          "ticks": 118440,
          "time": 315.0039335,
          "velocity": 0.7874015748031497
        },
        {
          "duration": 0.3124994999999444,
          "durationTicks": 180,
          "midi": 52,
          "name": "E3",
          "ticks": 118560,
          "time": 315.21226650000006,
          "velocity": 0.7874015748031497
        },
        {
          "duration": 0.10416650000001937,
          "durationTicks": 60,
          "midi": 54,
          "name": "F#3",
          "ticks": 118740,
          "time": 315.524766,
          "velocity": 0.7874015748031497
        },
        {
          "duration": 0.2083329999999819,
          "durationTicks": 120,
          "midi": 55,
          "name": "G3",
          "ticks": 118800,
          "time": 315.6289325,
          "velocity": 0.7874015748031497
        },
        {
          "duration": 0.31249950000000126,
          "durationTicks": 180,
          "midi": 57,
          "name": "A3",
          "ticks": 118920,
          "time": 315.8372655,
          "velocity": 0.7874015748031497
        },
        {
          "duration": 0.10416650000001937,
          "durationTicks": 60,
          "midi": 55,
          "name": "G3",
          "ticks": 119100,
          "time": 316.149765,
          "velocity": 0.7874015748031497
        },
        {
          "duration": 0.2083329999999819,
          "durationTicks": 120,
          "midi": 54,
          "name": "F#3",
          "ticks": 119160,
          "time": 316.2539315,
          "velocity": 0.7874015748031497
        },
        {
          "duration": 0.31249950000000126,
          "durationTicks": 180,
          "midi": 59,
          "name": "B3",
          "ticks": 119280,
          "time": 316.4622645,
          "velocity": 0.7874015748031497
        },
        {
          "duration": 0.10416650000001937,
          "durationTicks": 60,
          "midi": 55,
          "name": "G3",
          "ticks": 119460,
          "time": 316.774764,
          "velocity": 0.7874015748031497
        },
        {
          "duration": 0.2083329999999819,
          "durationTicks": 120,
          "midi": 57,
          "name": "A3",
          "ticks": 119520,
          "time": 316.8789305,
          "velocity": 0.7874015748031497
        },
        {
          "duration": 0.31249950000000126,
          "durationTicks": 180,
          "midi": 50,
          "name": "D3",
          "ticks": 119640,
          "time": 317.0872635,
          "velocity": 0.7874015748031497
        },
        {
          "duration": 0.10416650000001937,
          "durationTicks": 60,
          "midi": 54,
          "name": "F#3",
          "ticks": 119820,
          "time": 317.399763,
          "velocity": 0.7874015748031497
        },
        {
          "duration": 0.2083329999999819,
          "durationTicks": 120,
          "midi": 57,
          "name": "A3",
          "ticks": 119880,
          "time": 317.5039295,
          "velocity": 0.7874015748031497
        },
        {
          "duration": 0.6249990000000025,
          "durationTicks": 360,
          "midi": 62,
          "name": "D4",
          "ticks": 120000,
          "time": 317.7122625,
          "velocity": 0.7874015748031497
        },
        {
          "duration": 0.41666600000002063,
          "durationTicks": 240,
          "midi": 62,
          "name": "D4",
          "ticks": 120360,
          "time": 318.3372615,
          "velocity": 0.7874015748031497
        },
        {
          "duration": 0.2083329999999819,
          "durationTicks": 120,
          "midi": 50,
          "name": "D3",
          "ticks": 120600,
          "time": 318.75392750000003,
          "velocity": 0.7874015748031497
        },
        {
          "duration": 0.41666600000002063,
          "durationTicks": 240,
          "midi": 62,
          "name": "D4",
          "ticks": 120720,
          "time": 318.9622605,
          "velocity": 0.7874015748031497
        },
        {
          "duration": 0.2083329999999819,
          "durationTicks": 120,
          "midi": 60,
          "name": "C4",
          "ticks": 120960,
          "time": 319.37892650000003,
          "velocity": 0.7874015748031497
        },
        {
          "duration": 0.052083250000009684,
          "durationTicks": 30,
          "midi": 60,
          "name": "C4",
          "ticks": 121080,
          "time": 319.5872595,
          "velocity": 0.7874015748031497
        },
        {
          "duration": 0.052083250000009684,
          "durationTicks": 30,
          "midi": 59,
          "name": "B3",
          "ticks": 121110,
          "time": 319.63934275,
          "velocity": 0.7874015748031497
        },
        {
          "duration": 0.052083250000009684,
          "durationTicks": 30,
          "midi": 60,
          "name": "C4",
          "ticks": 121140,
          "time": 319.69142600000004,
          "velocity": 0.7874015748031497
        },
        {
          "duration": 0.1562497499999722,
          "durationTicks": 90,
          "midi": 59,
          "name": "B3",
          "ticks": 121170,
          "time": 319.74350925000005,
          "velocity": 0.7874015748031497
        },
        {
          "duration": 0.10416650000001937,
          "durationTicks": 60,
          "midi": 57,
          "name": "A3",
          "ticks": 121260,
          "time": 319.899759,
          "velocity": 0.7874015748031497
        },
        {
          "duration": 0.2083329999999819,
          "durationTicks": 120,
          "midi": 59,
          "name": "B3",
          "ticks": 121320,
          "time": 320.00392550000004,
          "velocity": 0.7874015748031497
        },
        {
          "duration": 0.31249950000000126,
          "durationTicks": 180,
          "midi": 55,
          "name": "G3",
          "ticks": 121440,
          "time": 320.2122585,
          "velocity": 0.7874015748031497
        },
        {
          "duration": 0.10416650000001937,
          "durationTicks": 60,
          "midi": 57,
          "name": "A3",
          "ticks": 121620,
          "time": 320.524758,
          "velocity": 0.7874015748031497
        },
        {
          "duration": 0.2083329999999819,
          "durationTicks": 120,
          "midi": 59,
          "name": "B3",
          "ticks": 121680,
          "time": 320.62892450000004,
          "velocity": 0.7874015748031497
        },
        {
          "duration": 0.31249950000000126,
          "durationTicks": 180,
          "midi": 60,
          "name": "C4",
          "ticks": 121800,
          "time": 320.8372575,
          "velocity": 0.7874015748031497
        },
        {
          "duration": 0.10416650000001937,
          "durationTicks": 60,
          "midi": 62,
          "name": "D4",
          "ticks": 121980,
          "time": 321.149757,
          "velocity": 0.7874015748031497
        },
        {
          "duration": 0.2083329999999819,
          "durationTicks": 120,
          "midi": 59,
          "name": "B3",
          "ticks": 122040,
          "time": 321.25392350000004,
          "velocity": 0.7874015748031497
        },
        {
          "duration": 0.31249950000000126,
          "durationTicks": 180,
          "midi": 57,
          "name": "A3",
          "ticks": 122160,
          "time": 321.4622565,
          "velocity": 0.7874015748031497
        },
        {
          "duration": 0.10416650000001937,
          "durationTicks": 60,
          "midi": 59,
          "name": "B3",
          "ticks": 122340,
          "time": 321.774756,
          "velocity": 0.7874015748031497
        },
        {
          "duration": 0.2083329999999819,
          "durationTicks": 120,
          "midi": 60,
          "name": "C4",
          "ticks": 122400,
          "time": 321.87892250000004,
          "velocity": 0.7874015748031497
        },
        {
          "duration": 0.41666600000002063,
          "durationTicks": 240,
          "midi": 59,
          "name": "B3",
          "ticks": 122520,
          "time": 322.0872555,
          "velocity": 0.7874015748031497
        },
        {
          "duration": 0.2083329999999819,
          "durationTicks": 120,
          "midi": 47,
          "name": "B2",
          "ticks": 122760,
          "time": 322.50392150000005,
          "velocity": 0.7874015748031497
        },
        {
          "duration": 0.31249950000000126,
          "durationTicks": 180,
          "midi": 59,
          "name": "B3",
          "ticks": 122880,
          "time": 322.71225450000003,
          "velocity": 0.7874015748031497
        },
        {
          "duration": 0.10416650000001937,
          "durationTicks": 60,
          "midi": 57,
          "name": "A3",
          "ticks": 123060,
          "time": 323.02475400000003,
          "velocity": 0.7874015748031497
        },
        {
          "duration": 0.2083329999999819,
          "durationTicks": 120,
          "midi": 59,
          "name": "B3",
          "ticks": 123120,
          "time": 323.12892050000005,
          "velocity": 0.7874015748031497
        },
        {
          "duration": 0.41666600000002063,
          "durationTicks": 240,
          "midi": 55,
          "name": "G3",
          "ticks": 123240,
          "time": 323.33725350000003,
          "velocity": 0.7874015748031497
        },
        {
          "duration": 0.05208324999995284,
          "durationTicks": 30,
          "midi": 57,
          "name": "A3",
          "ticks": 123480,
          "time": 323.75391950000005,
          "velocity": 0.7874015748031497
        },
        {
          "duration": 0.052083250000009684,
          "durationTicks": 30,
          "midi": 59,
          "name": "B3",
          "ticks": 123510,
          "time": 323.80600275,
          "velocity": 0.7874015748031497
        },
        {
          "duration": 0.052083250000009684,
          "durationTicks": 30,
          "midi": 61,
          "name": "C#4",
          "ticks": 123540,
          "time": 323.858086,
          "velocity": 0.7874015748031497
        },
        {
          "duration": 0.052083250000009684,
          "durationTicks": 30,
          "midi": 63,
          "name": "D#4",
          "ticks": 123570,
          "time": 323.91016925,
          "velocity": 0.7874015748031497
        },
        {
          "duration": 0.31249950000000126,
          "durationTicks": 180,
          "midi": 64,
          "name": "E4",
          "ticks": 123600,
          "time": 323.96225250000003,
          "velocity": 0.7874015748031497
        },
        {
          "duration": 0.10416650000001937,
          "durationTicks": 60,
          "midi": 59,
          "name": "B3",
          "ticks": 123780,
          "time": 324.27475200000003,
          "velocity": 0.7874015748031497
        },
        {
          "duration": 0.2083329999999819,
          "durationTicks": 120,
          "midi": 55,
          "name": "G3",
          "ticks": 123840,
          "time": 324.37891850000005,
          "velocity": 0.7874015748031497
        },
        {
          "duration": 0.4166659999999638,
          "durationTicks": 240,
          "midi": 57,
          "name": "A3",
          "ticks": 123960,
          "time": 324.58725150000004,
          "velocity": 0.7874015748031497
        },
        {
          "duration": 0.052083250000009684,
          "durationTicks": 30,
          "midi": 59,
          "name": "B3",
          "ticks": 124200,
          "time": 325.0039175,
          "velocity": 0.7874015748031497
        },
        {
          "duration": 0.052083250000009684,
          "durationTicks": 30,
          "midi": 60,
          "name": "C4",
          "ticks": 124230,
          "time": 325.05600075,
          "velocity": 0.7874015748031497
        },
        {
          "duration": 0.052083250000009684,
          "durationTicks": 30,
          "midi": 62,
          "name": "D4",
          "ticks": 124260,
          "time": 325.108084,
          "velocity": 0.7874015748031497
        },
        {
          "duration": 0.052083250000009684,
          "durationTicks": 30,
          "midi": 64,
          "name": "E4",
          "ticks": 124290,
          "time": 325.16016725000003,
          "velocity": 0.7874015748031497
        },
        {
          "duration": 0.31249950000000126,
          "durationTicks": 180,
          "midi": 65,
          "name": "F4",
          "ticks": 124320,
          "time": 325.21225050000004,
          "velocity": 0.7874015748031497
        },
        {
          "duration": 0.10416649999996253,
          "durationTicks": 60,
          "midi": 64,
          "name": "E4",
          "ticks": 124500,
          "time": 325.52475000000004,
          "velocity": 0.7874015748031497
        },
        {
          "duration": 0.20833300000003874,
          "durationTicks": 120,
          "midi": 63,
          "name": "D#4",
          "ticks": 124560,
          "time": 325.6289165,
          "velocity": 0.7874015748031497
        },
        {
          "duration": 0.4166659999999638,
          "durationTicks": 240,
          "midi": 64,
          "name": "E4",
          "ticks": 124680,
          "time": 325.83724950000004,
          "velocity": 0.7874015748031497
        },
        {
          "duration": 0.20833300000003874,
          "durationTicks": 120,
          "midi": 55,
          "name": "G3",
          "ticks": 124920,
          "time": 326.2539155,
          "velocity": 0.7874015748031497
        },
        {
          "duration": 0.31249950000000126,
          "durationTicks": 180,
          "midi": 60,
          "name": "C4",
          "ticks": 125040,
          "time": 326.46224850000004,
          "velocity": 0.7874015748031497
        },
        {
          "duration": 0.10416649999996253,
          "durationTicks": 60,
          "midi": 57,
          "name": "A3",
          "ticks": 125220,
          "time": 326.77474800000005,
          "velocity": 0.7874015748031497
        },
        {
          "duration": 0.20833300000003874,
          "durationTicks": 120,
          "midi": 59,
          "name": "B3",
          "ticks": 125280,
          "time": 326.8789145,
          "velocity": 0.7874015748031497
        },
        {
          "duration": 0.9374985000000038,
          "durationTicks": 540,
          "midi": 52,
          "name": "E3",
          "ticks": 125400,
          "time": 327.08724750000005,
          "velocity": 0.7874015748031497
        },
        {
          "duration": 0.10416649999996253,
          "durationTicks": 60,
          "midi": 64,
          "name": "E4",
          "ticks": 125940,
          "time": 328.02474600000005,
          "velocity": 0.7874015748031497
        },
        {
          "duration": 0.2083329999999819,
          "durationTicks": 120,
          "midi": 62,
          "name": "D4",
          "ticks": 126000,
          "time": 328.1289125,
          "velocity": 0.7874015748031497
        },
        {
          "duration": 0.052083250000009684,
          "durationTicks": 30,
          "midi": 62,
          "name": "D4",
          "ticks": 126120,
          "time": 328.3372455,
          "velocity": 0.7874015748031497
        },
        {
          "duration": 0.052083250000009684,
          "durationTicks": 30,
          "midi": 60,
          "name": "C4",
          "ticks": 126150,
          "time": 328.38932875,
          "velocity": 0.7874015748031497
        },
        {
          "duration": 0.052083250000009684,
          "durationTicks": 30,
          "midi": 62,
          "name": "D4",
          "ticks": 126180,
          "time": 328.441412,
          "velocity": 0.7874015748031497
        },
        {
          "duration": 0.15624975000002905,
          "durationTicks": 90,
          "midi": 60,
          "name": "C4",
          "ticks": 126210,
          "time": 328.49349525,
          "velocity": 0.7874015748031497
        },
        {
          "duration": 0.10416649999996253,
          "durationTicks": 60,
          "midi": 59,
          "name": "B3",
          "ticks": 126300,
          "time": 328.64974500000005,
          "velocity": 0.7874015748031497
        },
        {
          "duration": 0.2083329999999819,
          "durationTicks": 120,
          "midi": 60,
          "name": "C4",
          "ticks": 126360,
          "time": 328.7539115,
          "velocity": 0.7874015748031497
        },
        {
          "duration": 0.31249950000000126,
          "durationTicks": 180,
          "midi": 56,
          "name": "G#3",
          "ticks": 126480,
          "time": 328.9622445,
          "velocity": 0.7874015748031497
        },
        {
          "duration": 0.10416650000001937,
          "durationTicks": 60,
          "midi": 59,
          "name": "B3",
          "ticks": 126660,
          "time": 329.274744,
          "velocity": 0.7874015748031497
        },
        {
          "duration": 0.2083329999999819,
          "durationTicks": 120,
          "midi": 52,
          "name": "E3",
          "ticks": 126720,
          "time": 329.3789105,
          "velocity": 0.7874015748031497
        },
        {
          "duration": 0.31249950000000126,
          "durationTicks": 180,
          "midi": 57,
          "name": "A3",
          "ticks": 126840,
          "time": 329.5872435,
          "velocity": 0.7874015748031497
        },
        {
          "duration": 0.10416650000001937,
          "durationTicks": 60,
          "midi": 60,
          "name": "C4",
          "ticks": 127020,
          "time": 329.899743,
          "velocity": 0.7874015748031497
        },
        {
          "duration": 0.2083329999999819,
          "durationTicks": 120,
          "midi": 59,
          "name": "B3",
          "ticks": 127080,
          "time": 330.0039095,
          "velocity": 0.7874015748031497
        },
        {
          "duration": 0.31249950000000126,
          "durationTicks": 180,
          "midi": 60,
          "name": "C4",
          "ticks": 127200,
          "time": 330.2122425,
          "velocity": 0.7874015748031497
        },
        {
          "duration": 0.10416650000001937,
          "durationTicks": 60,
          "midi": 59,
          "name": "B3",
          "ticks": 127380,
          "time": 330.524742,
          "velocity": 0.7874015748031497
        },
        {
          "duration": 0.2083329999999819,
          "durationTicks": 120,
          "midi": 57,
          "name": "A3",
          "ticks": 127440,
          "time": 330.6289085,
          "velocity": 0.7874015748031497
        },
        {
          "duration": 0.31249950000000126,
          "durationTicks": 180,
          "midi": 59,
          "name": "B3",
          "ticks": 127560,
          "time": 330.8372415,
          "velocity": 0.7874015748031497
        },
        {
          "duration": 0.10416650000001937,
          "durationTicks": 60,
          "midi": 64,
          "name": "E4",
          "ticks": 127740,
          "time": 331.149741,
          "velocity": 0.7874015748031497
        },
        {
          "duration": 0.2083329999999819,
          "durationTicks": 120,
          "midi": 62,
          "name": "D4",
          "ticks": 127800,
          "time": 331.2539075,
          "velocity": 0.7874015748031497
        },
        {
          "duration": 0.052083250000009684,
          "durationTicks": 30,
          "midi": 62,
          "name": "D4",
          "ticks": 127920,
          "time": 331.4622405,
          "velocity": 0.7874015748031497
        },
        {
          "duration": 0.052083250000009684,
          "durationTicks": 30,
          "midi": 61,
          "name": "C#4",
          "ticks": 127950,
          "time": 331.51432375,
          "velocity": 0.7874015748031497
        },
        {
          "duration": 0.052083250000009684,
          "durationTicks": 30,
          "midi": 62,
          "name": "D4",
          "ticks": 127980,
          "time": 331.566407,
          "velocity": 0.7874015748031497
        },
        {
          "duration": 0.1562497499999722,
          "durationTicks": 90,
          "midi": 61,
          "name": "C#4",
          "ticks": 128010,
          "time": 331.61849025000004,
          "velocity": 0.7874015748031497
        },
        {
          "duration": 0.10416650000001937,
          "durationTicks": 60,
          "midi": 59,
          "name": "B3",
          "ticks": 128100,
          "time": 331.77474,
          "velocity": 0.7874015748031497
        },
        {
          "duration": 0.2083329999999819,
          "durationTicks": 120,
          "midi": 61,
          "name": "C#4",
          "ticks": 128160,
          "time": 331.8789065,
          "velocity": 0.7874015748031497
        },
        {
          "duration": 0.9374985000000038,
          "durationTicks": 540,
          "midi": 62,
          "name": "D4",
          "ticks": 128280,
          "time": 332.0872395,
          "velocity": 0.7874015748031497
        },
        {
          "duration": 0.10416650000001937,
          "durationTicks": 60,
          "midi": 64,
          "name": "E4",
          "ticks": 128820,
          "time": 333.024738,
          "velocity": 0.7874015748031497
        },
        {
          "duration": 0.2083329999999819,
          "durationTicks": 120,
          "midi": 60,
          "name": "C4",
          "ticks": 128880,
          "time": 333.12890450000003,
          "velocity": 0.7874015748031497
        },
        {
          "duration": 0.31249950000000126,
          "durationTicks": 180,
          "midi": 59,
          "name": "B3",
          "ticks": 129000,
          "time": 333.3372375,
          "velocity": 0.7874015748031497
        },
        {
          "duration": 0.10416650000001937,
          "durationTicks": 60,
          "midi": 60,
          "name": "C4",
          "ticks": 129180,
          "time": 333.649737,
          "velocity": 0.7874015748031497
        },
        {
          "duration": 0.2083329999999819,
          "durationTicks": 120,
          "midi": 57,
          "name": "A3",
          "ticks": 129240,
          "time": 333.75390350000004,
          "velocity": 0.7874015748031497
        },
        {
          "duration": 0.31249950000000126,
          "durationTicks": 180,
          "midi": 55,
          "name": "G3",
          "ticks": 129360,
          "time": 333.9622365,
          "velocity": 0.7874015748031497
        },
        {
          "duration": 0.10416650000001937,
          "durationTicks": 60,
          "midi": 57,
          "name": "A3",
          "ticks": 129540,
          "time": 334.274736,
          "velocity": 0.7874015748031497
        },
        {
          "duration": 0.2083329999999819,
          "durationTicks": 120,
          "midi": 59,
          "name": "B3",
          "ticks": 129600,
          "time": 334.37890250000004,
          "velocity": 0.7874015748031497
        },
        {
          "duration": 0.31249950000000126,
          "durationTicks": 180,
          "midi": 60,
          "name": "C4",
          "ticks": 129720,
          "time": 334.5872355,
          "velocity": 0.7874015748031497
        },
        {
          "duration": 0.10416650000001937,
          "durationTicks": 60,
          "midi": 62,
          "name": "D4",
          "ticks": 129900,
          "time": 334.899735,
          "velocity": 0.7874015748031497
        },
        {
          "duration": 0.2083329999999819,
          "durationTicks": 120,
          "midi": 59,
          "name": "B3",
          "ticks": 129960,
          "time": 335.00390150000004,
          "velocity": 0.7874015748031497
        },
        {
          "duration": 0.31249950000000126,
          "durationTicks": 180,
          "midi": 57,
          "name": "A3",
          "ticks": 130080,
          "time": 335.2122345,
          "velocity": 0.7874015748031497
        },
        {
          "duration": 0.10416650000001937,
          "durationTicks": 60,
          "midi": 59,
          "name": "B3",
          "ticks": 130260,
          "time": 335.524734,
          "velocity": 0.7874015748031497
        },
        {
          "duration": 0.2083329999999819,
          "durationTicks": 120,
          "midi": 60,
          "name": "C4",
          "ticks": 130320,
          "time": 335.62890050000004,
          "velocity": 0.7874015748031497
        },
        {
          "duration": 0.31249950000000126,
          "durationTicks": 180,
          "midi": 62,
          "name": "D4",
          "ticks": 130440,
          "time": 335.8372335,
          "velocity": 0.7874015748031497
        },
        {
          "duration": 0.10416650000001937,
          "durationTicks": 60,
          "midi": 60,
          "name": "C4",
          "ticks": 130620,
          "time": 336.149733,
          "velocity": 0.7874015748031497
        },
        {
          "duration": 0.2083329999999819,
          "durationTicks": 120,
          "midi": 59,
          "name": "B3",
          "ticks": 130680,
          "time": 336.25389950000005,
          "velocity": 0.7874015748031497
        },
        {
          "duration": 0.31249950000000126,
          "durationTicks": 180,
          "midi": 64,
          "name": "E4",
          "ticks": 130800,
          "time": 336.4622325,
          "velocity": 0.7874015748031497
        },
        {
          "duration": 0.10416650000001937,
          "durationTicks": 60,
          "midi": 60,
          "name": "C4",
          "ticks": 130980,
          "time": 336.77473200000003,
          "velocity": 0.7874015748031497
        },
        {
          "duration": 0.2083329999999819,
          "durationTicks": 120,
          "midi": 62,
          "name": "D4",
          "ticks": 131040,
          "time": 336.87889850000005,
          "velocity": 0.7874015748031497
        },
        {
          "duration": 0.31249950000000126,
          "durationTicks": 180,
          "midi": 55,
          "name": "G3",
          "ticks": 131160,
          "time": 337.08723150000003,
          "velocity": 0.7874015748031497
        },
        {
          "duration": 0.10416649999996253,
          "durationTicks": 60,
          "midi": 50,
          "name": "D3",
          "ticks": 131340,
          "time": 337.39973100000003,
          "velocity": 0.7874015748031497
        },
        {
          "duration": 0.20833300000003874,
          "durationTicks": 120,
          "midi": 47,
          "name": "B2",
          "ticks": 131400,
          "time": 337.5038975,
          "velocity": 0.7874015748031497
        },
        {
          "duration": 0.6249990000000025,
          "durationTicks": 360,
          "midi": 43,
          "name": "G2",
          "ticks": 131520,
          "time": 337.71223050000003,
          "velocity": 0.7874015748031497
        },
        {
          "duration": 0.9375,
          "durationTicks": 480,
          "midi": 55,
          "name": "G3",
          "ticks": 132600,
          "time": 339.7174375,
          "velocity": 0.7874015748031497
        },
        {
          "duration": 0.9375,
          "durationTicks": 480,
          "midi": 54,
          "name": "F#3",
          "ticks": 133320,
          "time": 341.1236875,
          "velocity": 0.7874015748031497
        },
        {
          "duration": 0.9375,
          "durationTicks": 480,
          "midi": 52,
          "name": "E3",
          "ticks": 134040,
          "time": 342.5299375,
          "velocity": 0.7874015748031497
        },
        {
          "duration": 0.9375,
          "durationTicks": 480,
          "midi": 50,
          "name": "D3",
          "ticks": 134760,
          "time": 343.9361875,
          "velocity": 0.7874015748031497
        },
        {
          "duration": 0.9375,
          "durationTicks": 480,
          "midi": 47,
          "name": "B2",
          "ticks": 135480,
          "time": 345.3424375,
          "velocity": 0.7874015748031497
        },
        {
          "duration": 0.9375,
          "durationTicks": 480,
          "midi": 48,
          "name": "C3",
          "ticks": 136200,
          "time": 346.7486875,
          "velocity": 0.7874015748031497
        },
        {
          "duration": 0.9375,
          "durationTicks": 480,
          "midi": 50,
          "name": "D3",
          "ticks": 136920,
          "time": 348.1549375,
          "velocity": 0.7874015748031497
        },
        {
          "duration": 0.9375,
          "durationTicks": 480,
          "midi": 62,
          "name": "D4",
          "ticks": 144120,
          "time": 362.2174375,
          "velocity": 0.7874015748031497
        },
        {
          "duration": 0.9375,
          "durationTicks": 480,
          "midi": 55,
          "name": "G3",
          "ticks": 144840,
          "time": 363.6236875,
          "velocity": 0.7874015748031497
        },
        {
          "duration": 0.09375,
          "durationTicks": 60,
          "midi": 79,
          "name": "G5",
          "ticks": 164040,
          "time": 397.8893125,
          "velocity": 0.7874015748031497
        },
        {
          "duration": 0.09375,
          "durationTicks": 60,
          "midi": 78,
          "name": "F#5",
          "ticks": 164100,
          "time": 397.9830625,
          "velocity": 0.7874015748031497
        },
        {
          "duration": 0.5625,
          "durationTicks": 360,
          "midi": 79,
          "name": "G5",
          "ticks": 164160,
          "time": 398.0768125,
          "velocity": 0.7874015748031497
        },
        {
          "duration": 0.09375,
          "durationTicks": 60,
          "midi": 81,
          "name": "A5",
          "ticks": 164520,
          "time": 398.6393125,
          "velocity": 0.7874015748031497
        },
        {
          "duration": 0.09375,
          "durationTicks": 60,
          "midi": 79,
          "name": "G5",
          "ticks": 164580,
          "time": 398.7330625,
          "velocity": 0.7874015748031497
        },
        {
          "duration": 0.09375,
          "durationTicks": 60,
          "midi": 81,
          "name": "A5",
          "ticks": 164640,
          "time": 398.8268125,
          "velocity": 0.7874015748031497
        },
        {
          "duration": 0.09375,
          "durationTicks": 60,
          "midi": 79,
          "name": "G5",
          "ticks": 164700,
          "time": 398.9205625,
          "velocity": 0.7874015748031497
        },
        {
          "duration": 0.09375,
          "durationTicks": 60,
          "midi": 81,
          "name": "A5",
          "ticks": 164760,
          "time": 399.0143125,
          "velocity": 0.7874015748031497
        },
        {
          "duration": 0.09375,
          "durationTicks": 60,
          "midi": 79,
          "name": "G5",
          "ticks": 164820,
          "time": 399.1080625,
          "velocity": 0.7874015748031497
        },
        {
          "duration": 0.09375,
          "durationTicks": 60,
          "midi": 78,
          "name": "F#5",
          "ticks": 164880,
          "time": 399.2018125,
          "velocity": 0.7874015748031497
        },
        {
          "duration": 0.09375,
          "durationTicks": 60,
          "midi": 79,
          "name": "G5",
          "ticks": 164940,
          "time": 399.2955625,
          "velocity": 0.7874015748031497
        },
        {
          "duration": 0.375,
          "durationTicks": 240,
          "midi": 81,
          "name": "A5",
          "ticks": 165000,
          "time": 399.3893125,
          "velocity": 0.7874015748031497
        },
        {
          "duration": 0.375,
          "durationTicks": 240,
          "midi": 78,
          "name": "F#5",
          "ticks": 165240,
          "time": 399.7643125,
          "velocity": 0.7874015748031497
        },
        {
          "duration": 0.375,
          "durationTicks": 240,
          "midi": 74,
          "name": "D5",
          "ticks": 165480,
          "time": 400.1393125,
          "velocity": 0.7874015748031497
        },
        {
          "duration": 0.375,
          "durationTicks": 240,
          "midi": 78,
          "name": "F#5",
          "ticks": 165720,
          "time": 400.5143125,
          "velocity": 0.7874015748031497
        },
        {
          "duration": 0.375,
          "durationTicks": 240,
          "midi": 71,
          "name": "B4",
          "ticks": 165960,
          "time": 400.8893125,
          "velocity": 0.7874015748031497
        },
        {
          "duration": 0.375,
          "durationTicks": 240,
          "midi": 76,
          "name": "E5",
          "ticks": 166200,
          "time": 401.2643125,
          "velocity": 0.7874015748031497
        },
        {
          "duration": 0.375,
          "durationTicks": 240,
          "midi": 64,
          "name": "E4",
          "ticks": 166440,
          "time": 401.6393125,
          "velocity": 0.7874015748031497
        },
        {
          "duration": 0.375,
          "durationTicks": 240,
          "midi": 74,
          "name": "D5",
          "ticks": 166680,
          "time": 402.0143125,
          "velocity": 0.7874015748031497
        },
        {
          "duration": 0.0625,
          "durationTicks": 40,
          "midi": 74,
          "name": "D5",
          "ticks": 166920,
          "time": 402.3893125,
          "velocity": 0.7874015748031497
        },
        {
          "duration": 0.0625,
          "durationTicks": 40,
          "midi": 73,
          "name": "C#5",
          "ticks": 166960,
          "time": 402.4518125,
          "velocity": 0.7874015748031497
        },
        {
          "duration": 0.0625,
          "durationTicks": 40,
          "midi": 74,
          "name": "D5",
          "ticks": 167000,
          "time": 402.5143125,
          "velocity": 0.7874015748031497
        },
        {
          "duration": 0.1875,
          "durationTicks": 120,
          "midi": 73,
          "name": "C#5",
          "ticks": 167040,
          "time": 402.5768125,
          "velocity": 0.7874015748031497
        },
        {
          "duration": 0.1875,
          "durationTicks": 120,
          "midi": 71,
          "name": "B4",
          "ticks": 167160,
          "time": 402.7643125,
          "velocity": 0.7874015748031497
        },
        {
          "duration": 0.1875,
          "durationTicks": 120,
          "midi": 73,
          "name": "C#5",
          "ticks": 167280,
          "time": 402.9518125,
          "velocity": 0.7874015748031497
        },
        {
          "duration": 0.1875,
          "durationTicks": 120,
          "midi": 69,
          "name": "A4",
          "ticks": 167400,
          "time": 403.1393125,
          "velocity": 0.7874015748031497
        },
        {
          "duration": 0.1875,
          "durationTicks": 120,
          "midi": 71,
          "name": "B4",
          "ticks": 167520,
          "time": 403.3268125,
          "velocity": 0.7874015748031497
        },
        {
          "duration": 0.1875,
          "durationTicks": 120,
          "midi": 73,
          "name": "C#5",
          "ticks": 167640,
          "time": 403.5143125,
          "velocity": 0.7874015748031497
        },
        {
          "duration": 0.1875,
          "durationTicks": 120,
          "midi": 69,
          "name": "A4",
          "ticks": 167760,
          "time": 403.7018125,
          "velocity": 0.7874015748031497
        },
        {
          "duration": 0.375,
          "durationTicks": 240,
          "midi": 74,
          "name": "D5",
          "ticks": 167880,
          "time": 403.8893125,
          "velocity": 0.7874015748031497
        },
        {
          "duration": 1.125,
          "durationTicks": 720,
          "midi": 74,
          "name": "D5",
          "ticks": 168360,
          "time": 404.6393125,
          "velocity": 0.7874015748031497
        },
        {
          "duration": 1.5,
          "durationTicks": 960,
          "midi": 74,
          "name": "D5",
          "ticks": 169320,
          "time": 406.1393125,
          "velocity": 0.7874015748031497
        },
        {
          "duration": 0.75,
          "durationTicks": 480,
          "midi": 73,
          "name": "C#5",
          "ticks": 170280,
          "time": 407.6393125,
          "velocity": 0.7874015748031497
        },
        {
          "duration": 1.5,
          "durationTicks": 960,
          "midi": 74,
          "name": "D5",
          "ticks": 170760,
          "time": 408.3893125,
          "velocity": 0.7874015748031497
        },
        {
          "duration": 0.75,
          "durationTicks": 480,
          "midi": 71,
          "name": "B4",
          "ticks": 175560,
          "time": 415.8893125,
          "velocity": 0.7874015748031497
        },
        {
          "duration": 0.09375,
          "durationTicks": 60,
          "midi": 72,
          "name": "C5",
          "ticks": 176040,
          "time": 416.6393125,
          "velocity": 0.7874015748031497
        },
        {
          "duration": 0.09375,
          "durationTicks": 60,
          "midi": 71,
          "name": "B4",
          "ticks": 176100,
          "time": 416.7330625,
          "velocity": 0.7874015748031497
        },
        {
          "duration": 0.09375,
          "durationTicks": 60,
          "midi": 72,
          "name": "C5",
          "ticks": 176160,
          "time": 416.8268125,
          "velocity": 0.7874015748031497
        },
        {
          "duration": 0.09375,
          "durationTicks": 60,
          "midi": 71,
          "name": "B4",
          "ticks": 176220,
          "time": 416.9205625,
          "velocity": 0.7874015748031497
        },
        {
          "duration": 0.09375,
          "durationTicks": 60,
          "midi": 72,
          "name": "C5",
          "ticks": 176280,
          "time": 417.0143125,
          "velocity": 0.7874015748031497
        },
        {
          "duration": 0.09375,
          "durationTicks": 60,
          "midi": 71,
          "name": "B4",
          "ticks": 176340,
          "time": 417.1080625,
          "velocity": 0.7874015748031497
        },
        {
          "duration": 0.09375,
          "durationTicks": 60,
          "midi": 69,
          "name": "A4",
          "ticks": 176400,
          "time": 417.2018125,
          "velocity": 0.7874015748031497
        },
        {
          "duration": 0.09375,
          "durationTicks": 60,
          "midi": 71,
          "name": "B4",
          "ticks": 176460,
          "time": 417.2955625,
          "velocity": 0.7874015748031497
        },
        {
          "duration": 0.375,
          "durationTicks": 240,
          "midi": 72,
          "name": "C5",
          "ticks": 176520,
          "time": 417.3893125,
          "velocity": 0.7874015748031497
        },
        {
          "duration": 0.375,
          "durationTicks": 240,
          "midi": 69,
          "name": "A4",
          "ticks": 176760,
          "time": 417.7643125,
          "velocity": 0.7874015748031497
        },
        {
          "duration": 0.375,
          "durationTicks": 240,
          "midi": 66,
          "name": "F#4",
          "ticks": 177000,
          "time": 418.1393125,
          "velocity": 0.7874015748031497
        },
        {
          "duration": 0.375,
          "durationTicks": 240,
          "midi": 69,
          "name": "A4",
          "ticks": 177240,
          "time": 418.5143125,
          "velocity": 0.7874015748031497
        },
        {
          "duration": 0.375,
          "durationTicks": 240,
          "midi": 66,
          "name": "F#4",
          "ticks": 177480,
          "time": 418.8893125,
          "velocity": 0.7874015748031497
        },
        {
          "duration": 0.375,
          "durationTicks": 240,
          "midi": 71,
          "name": "B4",
          "ticks": 177720,
          "time": 419.2643125,
          "velocity": 0.7874015748031497
        },
        {
          "duration": 0.375,
          "durationTicks": 240,
          "midi": 59,
          "name": "B3",
          "ticks": 177960,
          "time": 419.6393125,
          "velocity": 0.7874015748031497
        },
        {
          "duration": 0.375,
          "durationTicks": 240,
          "midi": 69,
          "name": "A4",
          "ticks": 178200,
          "time": 420.0143125,
          "velocity": 0.7874015748031497
        },
        {
          "duration": 0.0625,
          "durationTicks": 40,
          "midi": 69,
          "name": "A4",
          "ticks": 178440,
          "time": 420.3893125,
          "velocity": 0.7874015748031497
        },
        {
          "duration": 0.0625,
          "durationTicks": 40,
          "midi": 67,
          "name": "G4",
          "ticks": 178480,
          "time": 420.4518125,
          "velocity": 0.7874015748031497
        },
        {
          "duration": 0.0625,
          "durationTicks": 40,
          "midi": 69,
          "name": "A4",
          "ticks": 178520,
          "time": 420.5143125,
          "velocity": 0.7874015748031497
        },
        {
          "duration": 0.1875,
          "durationTicks": 120,
          "midi": 67,
          "name": "G4",
          "ticks": 178560,
          "time": 420.5768125,
          "velocity": 0.7874015748031497
        },
        {
          "duration": 0.1875,
          "durationTicks": 120,
          "midi": 66,
          "name": "F#4",
          "ticks": 178680,
          "time": 420.7643125,
          "velocity": 0.7874015748031497
        },
        {
          "duration": 0.1875,
          "durationTicks": 120,
          "midi": 67,
          "name": "G4",
          "ticks": 178800,
          "time": 420.9518125,
          "velocity": 0.7874015748031497
        },
        {
          "duration": 1.125,
          "durationTicks": 720,
          "midi": 64,
          "name": "E4",
          "ticks": 178920,
          "time": 421.1393125,
          "velocity": 0.7874015748031497
        },
        {
          "duration": 1.125,
          "durationTicks": 720,
          "midi": 69,
          "name": "A4",
          "ticks": 179880,
          "time": 422.6393125,
          "velocity": 0.7874015748031497
        },
        {
          "duration": 0.375,
          "durationTicks": 240,
          "midi": 74,
          "name": "D5",
          "ticks": 180600,
          "time": 423.7643125,
          "velocity": 0.7874015748031497
        },
        {
          "duration": 0.375,
          "durationTicks": 240,
          "midi": 71,
          "name": "B4",
          "ticks": 180840,
          "time": 424.1393125,
          "velocity": 0.7874015748031497
        },
        {
          "duration": 0.75,
          "durationTicks": 480,
          "midi": 67,
          "name": "G4",
          "ticks": 181080,
          "time": 424.5143125,
          "velocity": 0.7874015748031497
        },
        {
          "duration": 0.1875,
          "durationTicks": 120,
          "midi": 72,
          "name": "C5",
          "ticks": 181560,
          "time": 425.2643125,
          "velocity": 0.7874015748031497
        },
        {
          "duration": 0.1875,
          "durationTicks": 120,
          "midi": 71,
          "name": "B4",
          "ticks": 181680,
          "time": 425.4518125,
          "velocity": 0.7874015748031497
        },
        {
          "duration": 0.09375,
          "durationTicks": 60,
          "midi": 71,
          "name": "B4",
          "ticks": 181800,
          "time": 425.6393125,
          "velocity": 0.7874015748031497
        },
        {
          "duration": 0.09375,
          "durationTicks": 60,
          "midi": 72,
          "name": "C5",
          "ticks": 181860,
          "time": 425.7330625,
          "velocity": 0.7874015748031497
        },
        {
          "duration": 0.09375,
          "durationTicks": 60,
          "midi": 74,
          "name": "D5",
          "ticks": 181920,
          "time": 425.8268125,
          "velocity": 0.7874015748031497
        },
        {
          "duration": 0.09375,
          "durationTicks": 60,
          "midi": 72,
          "name": "C5",
          "ticks": 181980,
          "time": 425.9205625,
          "velocity": 0.7874015748031497
        },
        {
          "duration": 0.09375,
          "durationTicks": 60,
          "midi": 74,
          "name": "D5",
          "ticks": 182040,
          "time": 426.0143125,
          "velocity": 0.7874015748031497
        },
        {
          "duration": 0.09375,
          "durationTicks": 60,
          "midi": 72,
          "name": "C5",
          "ticks": 182100,
          "time": 426.1080625,
          "velocity": 0.7874015748031497
        },
        {
          "duration": 0.09375,
          "durationTicks": 60,
          "midi": 71,
          "name": "B4",
          "ticks": 182160,
          "time": 426.2018125,
          "velocity": 0.7874015748031497
        },
        {
          "duration": 0.09375,
          "durationTicks": 60,
          "midi": 72,
          "name": "C5",
          "ticks": 182220,
          "time": 426.2955625,
          "velocity": 0.7874015748031497
        },
        {
          "duration": 0.375,
          "durationTicks": 240,
          "midi": 69,
          "name": "A4",
          "ticks": 182280,
          "time": 426.3893125,
          "velocity": 0.7874015748031497
        },
        {
          "duration": 0.375,
          "durationTicks": 240,
          "midi": 74,
          "name": "D5",
          "ticks": 182520,
          "time": 426.7643125,
          "velocity": 0.7874015748031497
        },
        {
          "duration": 0.375,
          "durationTicks": 240,
          "midi": 62,
          "name": "D4",
          "ticks": 182760,
          "time": 427.1393125,
          "velocity": 0.7874015748031497
        },
        {
          "duration": 0.375,
          "durationTicks": 240,
          "midi": 72,
          "name": "C5",
          "ticks": 183000,
          "time": 427.5143125,
          "velocity": 0.7874015748031497
        },
        {
          "duration": 0.75,
          "durationTicks": 480,
          "midi": 71,
          "name": "B4",
          "ticks": 183240,
          "time": 427.8893125,
          "velocity": 0.7874015748031497
        },
        {
          "duration": 0.375,
          "durationTicks": 240,
          "midi": 67,
          "name": "G4",
          "ticks": 183960,
          "time": 429.0143125,
          "velocity": 0.7874015748031497
        },
        {
          "duration": 1.125,
          "durationTicks": 720,
          "midi": 64,
          "name": "E4",
          "ticks": 184200,
          "time": 429.3893125,
          "velocity": 0.7874015748031497
        },
        {
          "duration": 0.1875,
          "durationTicks": 120,
          "midi": 69,
          "name": "A4",
          "ticks": 184920,
          "time": 430.5143125,
          "velocity": 0.7874015748031497
        },
        {
          "duration": 0.1875,
          "durationTicks": 120,
          "midi": 67,
          "name": "G4",
          "ticks": 185040,
          "time": 430.7018125,
          "velocity": 0.7874015748031497
        },
        {
          "duration": 0.375,
          "durationTicks": 240,
          "midi": 66,
          "name": "F#4",
          "ticks": 185160,
          "time": 430.8893125,
          "velocity": 0.7874015748031497
        },
        {
          "duration": 0.75,
          "durationTicks": 480,
          "midi": 67,
          "name": "G4",
          "ticks": 185400,
          "time": 431.2643125,
          "velocity": 0.7874015748031497
        },
        {
          "duration": 0.375,
          "durationTicks": 240,
          "midi": 66,
          "name": "F#4",
          "ticks": 185880,
          "time": 432.0143125,
          "velocity": 0.7874015748031497
        },
        {
          "duration": 0.1875,
          "durationTicks": 120,
          "midi": 67,
          "name": "G4",
          "ticks": 186120,
          "time": 432.3893125,
          "velocity": 0.7874015748031497
        },
        {
          "duration": 0.1875,
          "durationTicks": 120,
          "midi": 62,
          "name": "D4",
          "ticks": 186240,
          "time": 432.5768125,
          "velocity": 0.7874015748031497
        },
        {
          "duration": 0.1875,
          "durationTicks": 120,
          "midi": 60,
          "name": "C4",
          "ticks": 186360,
          "time": 432.7643125,
          "velocity": 0.7874015748031497
        },
        {
          "duration": 0.1875,
          "durationTicks": 120,
          "midi": 62,
          "name": "D4",
          "ticks": 186480,
          "time": 432.9518125,
          "velocity": 0.7874015748031497
        },
        {
          "duration": 0.75,
          "durationTicks": 480,
          "midi": 59,
          "name": "B3",
          "ticks": 186600,
          "time": 433.1393125,
          "velocity": 0.7874015748031497
        },
        {
          "duration": 0.625,
          "durationTicks": 400,
          "midi": 55,
          "name": "G3",
          "ticks": 188040,
          "time": 435.3893125,
          "velocity": 0.7874015748031497
        },
        {
          "duration": 0.125,
          "durationTicks": 80,
          "midi": 59,
          "name": "B3",
          "ticks": 188440,
          "time": 436.0143125,
          "velocity": 0.7874015748031497
        },
        {
          "duration": 0.125,
          "durationTicks": 80,
          "midi": 64,
          "name": "E4",
          "ticks": 188520,
          "time": 436.1393125,
          "velocity": 0.7874015748031497
        },
        {
          "duration": 0.125,
          "durationTicks": 80,
          "midi": 62,
          "name": "D4",
          "ticks": 188600,
          "time": 436.2643125,
          "velocity": 0.7874015748031497
        },
        {
          "duration": 0.125,
          "durationTicks": 80,
          "midi": 61,
          "name": "C#4",
          "ticks": 188680,
          "time": 436.3893125,
          "velocity": 0.7874015748031497
        },
        {
          "duration": 0.125,
          "durationTicks": 80,
          "midi": 59,
          "name": "B3",
          "ticks": 188760,
          "time": 436.5143125,
          "velocity": 0.7874015748031497
        },
        {
          "duration": 0.125,
          "durationTicks": 80,
          "midi": 57,
          "name": "A3",
          "ticks": 188840,
          "time": 436.6393125,
          "velocity": 0.7874015748031497
        },
        {
          "duration": 0.125,
          "durationTicks": 80,
          "midi": 55,
          "name": "G3",
          "ticks": 188920,
          "time": 436.7643125,
          "velocity": 0.7874015748031497
        },
        {
          "duration": 0.625,
          "durationTicks": 400,
          "midi": 54,
          "name": "F#3",
          "ticks": 189000,
          "time": 436.8893125,
          "velocity": 0.7874015748031497
        },
        {
          "duration": 0.125,
          "durationTicks": 80,
          "midi": 64,
          "name": "E4",
          "ticks": 189400,
          "time": 437.5143125,
          "velocity": 0.7874015748031497
        },
        {
          "duration": 0.125,
          "durationTicks": 80,
          "midi": 62,
          "name": "D4",
          "ticks": 189480,
          "time": 437.6393125,
          "velocity": 0.7874015748031497
        },
        {
          "duration": 0.125,
          "durationTicks": 80,
          "midi": 61,
          "name": "C#4",
          "ticks": 189560,
          "time": 437.7643125,
          "velocity": 0.7874015748031497
        },
        {
          "duration": 0.125,
          "durationTicks": 80,
          "midi": 59,
          "name": "B3",
          "ticks": 189640,
          "time": 437.8893125,
          "velocity": 0.7874015748031497
        },
        {
          "duration": 0.125,
          "durationTicks": 80,
          "midi": 57,
          "name": "A3",
          "ticks": 189720,
          "time": 438.0143125,
          "velocity": 0.7874015748031497
        },
        {
          "duration": 0.125,
          "durationTicks": 80,
          "midi": 55,
          "name": "G3",
          "ticks": 189800,
          "time": 438.1393125,
          "velocity": 0.7874015748031497
        },
        {
          "duration": 0.125,
          "durationTicks": 80,
          "midi": 54,
          "name": "F#3",
          "ticks": 189880,
          "time": 438.2643125,
          "velocity": 0.7874015748031497
        },
        {
          "duration": 0.25,
          "durationTicks": 160,
          "midi": 52,
          "name": "E3",
          "ticks": 189960,
          "time": 438.3893125,
          "velocity": 0.7874015748031497
        },
        {
          "duration": 0.125,
          "durationTicks": 80,
          "midi": 55,
          "name": "G3",
          "ticks": 190120,
          "time": 438.6393125,
          "velocity": 0.7874015748031497
        },
        {
          "duration": 0.25,
          "durationTicks": 160,
          "midi": 59,
          "name": "B3",
          "ticks": 190200,
          "time": 438.7643125,
          "velocity": 0.7874015748031497
        },
        {
          "duration": 0.125,
          "durationTicks": 80,
          "midi": 62,
          "name": "D4",
          "ticks": 190360,
          "time": 439.0143125,
          "velocity": 0.7874015748031497
        },
        {
          "duration": 0.125,
          "durationTicks": 80,
          "midi": 61,
          "name": "C#4",
          "ticks": 190440,
          "time": 439.1393125,
          "velocity": 0.7874015748031497
        },
        {
          "duration": 0.125,
          "durationTicks": 80,
          "midi": 59,
          "name": "B3",
          "ticks": 190520,
          "time": 439.2643125,
          "velocity": 0.7874015748031497
        },
        {
          "duration": 0.125,
          "durationTicks": 80,
          "midi": 57,
          "name": "A3",
          "ticks": 190600,
          "time": 439.3893125,
          "velocity": 0.7874015748031497
        },
        {
          "duration": 0.125,
          "durationTicks": 80,
          "midi": 55,
          "name": "G3",
          "ticks": 190680,
          "time": 439.5143125,
          "velocity": 0.7874015748031497
        },
        {
          "duration": 0.125,
          "durationTicks": 80,
          "midi": 54,
          "name": "F#3",
          "ticks": 190760,
          "time": 439.6393125,
          "velocity": 0.7874015748031497
        },
        {
          "duration": 0.125,
          "durationTicks": 80,
          "midi": 52,
          "name": "E3",
          "ticks": 190840,
          "time": 439.7643125,
          "velocity": 0.7874015748031497
        },
        {
          "duration": 0.125,
          "durationTicks": 80,
          "midi": 50,
          "name": "D3",
          "ticks": 190920,
          "time": 439.8893125,
          "velocity": 0.7874015748031497
        },
        {
          "duration": 0.125,
          "durationTicks": 80,
          "midi": 52,
          "name": "E3",
          "ticks": 191000,
          "time": 440.0143125,
          "velocity": 0.7874015748031497
        },
        {
          "duration": 0.125,
          "durationTicks": 80,
          "midi": 54,
          "name": "F#3",
          "ticks": 191080,
          "time": 440.1393125,
          "velocity": 0.7874015748031497
        },
        {
          "duration": 0.125,
          "durationTicks": 80,
          "midi": 55,
          "name": "G3",
          "ticks": 191160,
          "time": 440.2643125,
          "velocity": 0.7874015748031497
        },
        {
          "duration": 0.125,
          "durationTicks": 80,
          "midi": 57,
          "name": "A3",
          "ticks": 191240,
          "time": 440.3893125,
          "velocity": 0.7874015748031497
        },
        {
          "duration": 0.125,
          "durationTicks": 80,
          "midi": 59,
          "name": "B3",
          "ticks": 191320,
          "time": 440.5143125,
          "velocity": 0.7874015748031497
        },
        {
          "duration": 0.125,
          "durationTicks": 80,
          "midi": 61,
          "name": "C#4",
          "ticks": 191400,
          "time": 440.6393125,
          "velocity": 0.7874015748031497
        },
        {
          "duration": 0.125,
          "durationTicks": 80,
          "midi": 62,
          "name": "D4",
          "ticks": 191480,
          "time": 440.7643125,
          "velocity": 0.7874015748031497
        },
        {
          "duration": 0.125,
          "durationTicks": 80,
          "midi": 64,
          "name": "E4",
          "ticks": 191560,
          "time": 440.8893125,
          "velocity": 0.7874015748031497
        },
        {
          "duration": 0.125,
          "durationTicks": 80,
          "midi": 66,
          "name": "F#4",
          "ticks": 191640,
          "time": 441.0143125,
          "velocity": 0.7874015748031497
        },
        {
          "duration": 0.125,
          "durationTicks": 80,
          "midi": 67,
          "name": "G4",
          "ticks": 191720,
          "time": 441.1393125,
          "velocity": 0.7874015748031497
        },
        {
          "duration": 0.125,
          "durationTicks": 80,
          "midi": 69,
          "name": "A4",
          "ticks": 191800,
          "time": 441.2643125,
          "velocity": 0.7874015748031497
        },
        {
          "duration": 0.09375,
          "durationTicks": 60,
          "midi": 67,
          "name": "G4",
          "ticks": 191880,
          "time": 441.3893125,
          "velocity": 0.7874015748031497
        },
        {
          "duration": 0.09375,
          "durationTicks": 60,
          "midi": 69,
          "name": "A4",
          "ticks": 191940,
          "time": 441.4830625,
          "velocity": 0.7874015748031497
        },
        {
          "duration": 0.09375,
          "durationTicks": 60,
          "midi": 67,
          "name": "G4",
          "ticks": 192000,
          "time": 441.5768125,
          "velocity": 0.7874015748031497
        },
        {
          "duration": 0.09375,
          "durationTicks": 60,
          "midi": 69,
          "name": "A4",
          "ticks": 192060,
          "time": 441.6705625,
          "velocity": 0.7874015748031497
        },
        {
          "duration": 0.5,
          "durationTicks": 320,
          "midi": 67,
          "name": "G4",
          "ticks": 192120,
          "time": 441.7643125,
          "velocity": 0.7874015748031497
        },
        {
          "duration": 0.125,
          "durationTicks": 80,
          "midi": 59,
          "name": "B3",
          "ticks": 192520,
          "time": 442.3893125,
          "velocity": 0.7874015748031497
        },
        {
          "duration": 0.125,
          "durationTicks": 80,
          "midi": 62,
          "name": "D4",
          "ticks": 192600,
          "time": 442.5143125,
          "velocity": 0.7874015748031497
        },
        {
          "duration": 0.125,
          "durationTicks": 80,
          "midi": 67,
          "name": "G4",
          "ticks": 192760,
          "time": 442.7643125,
          "velocity": 0.7874015748031497
        },
        {
          "duration": 0.1875,
          "durationTicks": 120,
          "midi": 67,
          "name": "G4",
          "ticks": 192840,
          "time": 442.8893125,
          "velocity": 0.7874015748031497
        },
        {
          "duration": 0.125,
          "durationTicks": 80,
          "midi": 61,
          "name": "C#4",
          "ticks": 193480,
          "time": 443.8893125,
          "velocity": 0.7874015748031497
        },
        {
          "duration": 0.125,
          "durationTicks": 80,
          "midi": 64,
          "name": "E4",
          "ticks": 193560,
          "time": 444.0143125,
          "velocity": 0.7874015748031497
        },
        {
          "duration": 0.125,
          "durationTicks": 80,
          "midi": 67,
          "name": "G4",
          "ticks": 193720,
          "time": 444.2643125,
          "velocity": 0.7874015748031497
        },
        {
          "duration": 0.09375,
          "durationTicks": 60,
          "midi": 67,
          "name": "G4",
          "ticks": 193800,
          "time": 444.3893125,
          "velocity": 0.7874015748031497
        },
        {
          "duration": 0.09375,
          "durationTicks": 60,
          "midi": 69,
          "name": "A4",
          "ticks": 193860,
          "time": 444.4830625,
          "velocity": 0.7874015748031497
        },
        {
          "duration": 0.6875,
          "durationTicks": 440,
          "midi": 67,
          "name": "G4",
          "ticks": 193920,
          "time": 444.5768125,
          "velocity": 0.7874015748031497
        },
        {
          "duration": 0.125,
          "durationTicks": 80,
          "midi": 69,
          "name": "A4",
          "ticks": 194360,
          "time": 445.2643125,
          "velocity": 0.7874015748031497
        },
        {
          "duration": 0.125,
          "durationTicks": 80,
          "midi": 72,
          "name": "C5",
          "ticks": 194440,
          "time": 445.3893125,
          "velocity": 0.7874015748031497
        },
        {
          "duration": 0.125,
          "durationTicks": 80,
          "midi": 66,
          "name": "F#4",
          "ticks": 194520,
          "time": 445.5143125,
          "velocity": 0.7874015748031497
        },
        {
          "duration": 0.125,
          "durationTicks": 80,
          "midi": 69,
          "name": "A4",
          "ticks": 194600,
          "time": 445.6393125,
          "velocity": 0.7874015748031497
        },
        {
          "duration": 0.125,
          "durationTicks": 80,
          "midi": 72,
          "name": "C5",
          "ticks": 194680,
          "time": 445.7643125,
          "velocity": 0.7874015748031497
        },
        {
          "duration": 0.5,
          "durationTicks": 320,
          "midi": 71,
          "name": "B4",
          "ticks": 194760,
          "time": 445.8893125,
          "velocity": 0.7874015748031497
        },
        {
          "duration": 0.125,
          "durationTicks": 80,
          "midi": 67,
          "name": "G4",
          "ticks": 195080,
          "time": 446.3893125,
          "velocity": 0.7874015748031497
        },
        {
          "duration": 0.125,
          "durationTicks": 80,
          "midi": 62,
          "name": "D4",
          "ticks": 195160,
          "time": 446.5143125,
          "velocity": 0.7874015748031497
        },
        {
          "duration": 0.125,
          "durationTicks": 80,
          "midi": 59,
          "name": "B3",
          "ticks": 195240,
          "time": 446.6393125,
          "velocity": 0.7874015748031497
        },
        {
          "duration": 0.125,
          "durationTicks": 80,
          "midi": 55,
          "name": "G3",
          "ticks": 195320,
          "time": 446.7643125,
          "velocity": 0.7874015748031497
        },
        {
          "duration": 0.125,
          "durationTicks": 80,
          "midi": 59,
          "name": "B3",
          "ticks": 195400,
          "time": 446.8893125,
          "velocity": 0.7874015748031497
        },
        {
          "duration": 0.125,
          "durationTicks": 80,
          "midi": 62,
          "name": "D4",
          "ticks": 195480,
          "time": 447.0143125,
          "velocity": 0.7874015748031497
        },
        {
          "duration": 0.125,
          "durationTicks": 80,
          "midi": 67,
          "name": "G4",
          "ticks": 195560,
          "time": 447.1393125,
          "velocity": 0.7874015748031497
        },
        {
          "duration": 0.125,
          "durationTicks": 80,
          "midi": 69,
          "name": "A4",
          "ticks": 195640,
          "time": 447.2643125,
          "velocity": 0.7874015748031497
        },
        {
          "duration": 0.125,
          "durationTicks": 80,
          "midi": 71,
          "name": "B4",
          "ticks": 195720,
          "time": 447.3893125,
          "velocity": 0.7874015748031497
        },
        {
          "duration": 0.125,
          "durationTicks": 80,
          "midi": 69,
          "name": "A4",
          "ticks": 195800,
          "time": 447.5143125,
          "velocity": 0.7874015748031497
        },
        {
          "duration": 0.125,
          "durationTicks": 80,
          "midi": 67,
          "name": "G4",
          "ticks": 195880,
          "time": 447.6393125,
          "velocity": 0.7874015748031497
        },
        {
          "duration": 0.125,
          "durationTicks": 80,
          "midi": 66,
          "name": "F#4",
          "ticks": 195960,
          "time": 447.7643125,
          "velocity": 0.7874015748031497
        },
        {
          "duration": 0.125,
          "durationTicks": 80,
          "midi": 64,
          "name": "E4",
          "ticks": 196040,
          "time": 447.8893125,
          "velocity": 0.7874015748031497
        },
        {
          "duration": 0.125,
          "durationTicks": 80,
          "midi": 62,
          "name": "D4",
          "ticks": 196120,
          "time": 448.0143125,
          "velocity": 0.7874015748031497
        },
        {
          "duration": 0.625,
          "durationTicks": 400,
          "midi": 61,
          "name": "C#4",
          "ticks": 196200,
          "time": 448.1393125,
          "velocity": 0.7874015748031497
        },
        {
          "duration": 0.125,
          "durationTicks": 80,
          "midi": 64,
          "name": "E4",
          "ticks": 196600,
          "time": 448.7643125,
          "velocity": 0.7874015748031497
        },
        {
          "duration": 0.125,
          "durationTicks": 80,
          "midi": 69,
          "name": "A4",
          "ticks": 196680,
          "time": 448.8893125,
          "velocity": 0.7874015748031497
        },
        {
          "duration": 0.125,
          "durationTicks": 80,
          "midi": 67,
          "name": "G4",
          "ticks": 196760,
          "time": 449.0143125,
          "velocity": 0.7874015748031497
        },
        {
          "duration": 0.125,
          "durationTicks": 80,
          "midi": 66,
          "name": "F#4",
          "ticks": 196840,
          "time": 449.1393125,
          "velocity": 0.7874015748031497
        },
        {
          "duration": 0.125,
          "durationTicks": 80,
          "midi": 64,
          "name": "E4",
          "ticks": 196920,
          "time": 449.2643125,
          "velocity": 0.7874015748031497
        },
        {
          "duration": 0.125,
          "durationTicks": 80,
          "midi": 62,
          "name": "D4",
          "ticks": 197000,
          "time": 449.3893125,
          "velocity": 0.7874015748031497
        },
        {
          "duration": 0.125,
          "durationTicks": 80,
          "midi": 61,
          "name": "C#4",
          "ticks": 197080,
          "time": 449.5143125,
          "velocity": 0.7874015748031497
        },
        {
          "duration": 0.625,
          "durationTicks": 400,
          "midi": 59,
          "name": "B3",
          "ticks": 197160,
          "time": 449.6393125,
          "velocity": 0.7874015748031497
        },
        {
          "duration": 0.125,
          "durationTicks": 80,
          "midi": 69,
          "name": "A4",
          "ticks": 197560,
          "time": 450.2643125,
          "velocity": 0.7874015748031497
        },
        {
          "duration": 0.125,
          "durationTicks": 80,
          "midi": 67,
          "name": "G4",
          "ticks": 197640,
          "time": 450.3893125,
          "velocity": 0.7874015748031497
        },
        {
          "duration": 0.125,
          "durationTicks": 80,
          "midi": 66,
          "name": "F#4",
          "ticks": 197720,
          "time": 450.5143125,
          "velocity": 0.7874015748031497
        },
        {
          "duration": 0.125,
          "durationTicks": 80,
          "midi": 64,
          "name": "E4",
          "ticks": 197800,
          "time": 450.6393125,
          "velocity": 0.7874015748031497
        },
        {
          "duration": 0.125,
          "durationTicks": 80,
          "midi": 62,
          "name": "D4",
          "ticks": 197880,
          "time": 450.7643125,
          "velocity": 0.7874015748031497
        },
        {
          "duration": 0.125,
          "durationTicks": 80,
          "midi": 61,
          "name": "C#4",
          "ticks": 197960,
          "time": 450.8893125,
          "velocity": 0.7874015748031497
        },
        {
          "duration": 0.125,
          "durationTicks": 80,
          "midi": 59,
          "name": "B3",
          "ticks": 198040,
          "time": 451.0143125,
          "velocity": 0.7874015748031497
        },
        {
          "duration": 0.125,
          "durationTicks": 80,
          "midi": 64,
          "name": "E4",
          "ticks": 198120,
          "time": 451.1393125,
          "velocity": 0.7874015748031497
        },
        {
          "duration": 0.125,
          "durationTicks": 80,
          "midi": 62,
          "name": "D4",
          "ticks": 198200,
          "time": 451.2643125,
          "velocity": 0.7874015748031497
        },
        {
          "duration": 0.125,
          "durationTicks": 80,
          "midi": 61,
          "name": "C#4",
          "ticks": 198280,
          "time": 451.3893125,
          "velocity": 0.7874015748031497
        },
        {
          "duration": 0.125,
          "durationTicks": 80,
          "midi": 59,
          "name": "B3",
          "ticks": 198360,
          "time": 451.5143125,
          "velocity": 0.7874015748031497
        },
        {
          "duration": 0.125,
          "durationTicks": 80,
          "midi": 57,
          "name": "A3",
          "ticks": 198440,
          "time": 451.6393125,
          "velocity": 0.7874015748031497
        },
        {
          "duration": 0.125,
          "durationTicks": 80,
          "midi": 55,
          "name": "G3",
          "ticks": 198520,
          "time": 451.7643125,
          "velocity": 0.7874015748031497
        },
        {
          "duration": 0.125,
          "durationTicks": 80,
          "midi": 61,
          "name": "C#4",
          "ticks": 198600,
          "time": 451.8893125,
          "velocity": 0.7874015748031497
        },
        {
          "duration": 0.125,
          "durationTicks": 80,
          "midi": 59,
          "name": "B3",
          "ticks": 198680,
          "time": 452.0143125,
          "velocity": 0.7874015748031497
        },
        {
          "duration": 0.125,
          "durationTicks": 80,
          "midi": 57,
          "name": "A3",
          "ticks": 198760,
          "time": 452.1393125,
          "velocity": 0.7874015748031497
        },
        {
          "duration": 0.125,
          "durationTicks": 80,
          "midi": 55,
          "name": "G3",
          "ticks": 198840,
          "time": 452.2643125,
          "velocity": 0.7874015748031497
        },
        {
          "duration": 0.125,
          "durationTicks": 80,
          "midi": 54,
          "name": "F#3",
          "ticks": 198920,
          "time": 452.3893125,
          "velocity": 0.7874015748031497
        },
        {
          "duration": 0.125,
          "durationTicks": 80,
          "midi": 52,
          "name": "E3",
          "ticks": 199000,
          "time": 452.5143125,
          "velocity": 0.7874015748031497
        },
        {
          "duration": 0.125,
          "durationTicks": 80,
          "midi": 57,
          "name": "A3",
          "ticks": 199080,
          "time": 452.6393125,
          "velocity": 0.7874015748031497
        },
        {
          "duration": 0.125,
          "durationTicks": 80,
          "midi": 55,
          "name": "G3",
          "ticks": 199160,
          "time": 452.7643125,
          "velocity": 0.7874015748031497
        },
        {
          "duration": 0.125,
          "durationTicks": 80,
          "midi": 54,
          "name": "F#3",
          "ticks": 199240,
          "time": 452.8893125,
          "velocity": 0.7874015748031497
        },
        {
          "duration": 0.125,
          "durationTicks": 80,
          "midi": 52,
          "name": "E3",
          "ticks": 199320,
          "time": 453.0143125,
          "velocity": 0.7874015748031497
        },
        {
          "duration": 0.125,
          "durationTicks": 80,
          "midi": 54,
          "name": "F#3",
          "ticks": 199400,
          "time": 453.1393125,
          "velocity": 0.7874015748031497
        },
        {
          "duration": 0.125,
          "durationTicks": 80,
          "midi": 55,
          "name": "G3",
          "ticks": 199480,
          "time": 453.2643125,
          "velocity": 0.7874015748031497
        },
        {
          "duration": 0.125,
          "durationTicks": 80,
          "midi": 54,
          "name": "F#3",
          "ticks": 199560,
          "time": 453.3893125,
          "velocity": 0.7874015748031497
        },
        {
          "duration": 0.125,
          "durationTicks": 80,
          "midi": 57,
          "name": "A3",
          "ticks": 199640,
          "time": 453.5143125,
          "velocity": 0.7874015748031497
        },
        {
          "duration": 0.125,
          "durationTicks": 80,
          "midi": 62,
          "name": "D4",
          "ticks": 199720,
          "time": 453.6393125,
          "velocity": 0.7874015748031497
        },
        {
          "duration": 0.125,
          "durationTicks": 80,
          "midi": 66,
          "name": "F#4",
          "ticks": 199800,
          "time": 453.7643125,
          "velocity": 0.7874015748031497
        },
        {
          "duration": 0.125,
          "durationTicks": 80,
          "midi": 69,
          "name": "A4",
          "ticks": 199880,
          "time": 453.8893125,
          "velocity": 0.7874015748031497
        },
        {
          "duration": 0.125,
          "durationTicks": 80,
          "midi": 74,
          "name": "D5",
          "ticks": 199960,
          "time": 454.0143125,
          "velocity": 0.7874015748031497
        },
        {
          "duration": 0.125,
          "durationTicks": 80,
          "midi": 69,
          "name": "A4",
          "ticks": 200040,
          "time": 454.1393125,
          "velocity": 0.7874015748031497
        },
        {
          "duration": 0.125,
          "durationTicks": 80,
          "midi": 66,
          "name": "F#4",
          "ticks": 200120,
          "time": 454.2643125,
          "velocity": 0.7874015748031497
        },
        {
          "duration": 0.125,
          "durationTicks": 80,
          "midi": 62,
          "name": "D4",
          "ticks": 200200,
          "time": 454.3893125,
          "velocity": 0.7874015748031497
        },
        {
          "duration": 0.125,
          "durationTicks": 80,
          "midi": 60,
          "name": "C4",
          "ticks": 200280,
          "time": 454.5143125,
          "velocity": 0.7874015748031497
        },
        {
          "duration": 0.125,
          "durationTicks": 80,
          "midi": 59,
          "name": "B3",
          "ticks": 200360,
          "time": 454.6393125,
          "velocity": 0.7874015748031497
        },
        {
          "duration": 0.125,
          "durationTicks": 80,
          "midi": 57,
          "name": "A3",
          "ticks": 200440,
          "time": 454.7643125,
          "velocity": 0.7874015748031497
        },
        {
          "duration": 0.125,
          "durationTicks": 80,
          "midi": 56,
          "name": "G#3",
          "ticks": 200520,
          "time": 454.8893125,
          "velocity": 0.7874015748031497
        },
        {
          "duration": 0.125,
          "durationTicks": 80,
          "midi": 59,
          "name": "B3",
          "ticks": 200600,
          "time": 455.0143125,
          "velocity": 0.7874015748031497
        },
        {
          "duration": 0.125,
          "durationTicks": 80,
          "midi": 62,
          "name": "D4",
          "ticks": 200680,
          "time": 455.1393125,
          "velocity": 0.7874015748031497
        },
        {
          "duration": 0.125,
          "durationTicks": 80,
          "midi": 65,
          "name": "F4",
          "ticks": 200760,
          "time": 455.2643125,
          "velocity": 0.7874015748031497
        },
        {
          "duration": 0.125,
          "durationTicks": 80,
          "midi": 71,
          "name": "B4",
          "ticks": 200840,
          "time": 455.3893125,
          "velocity": 0.7874015748031497
        },
        {
          "duration": 0.125,
          "durationTicks": 80,
          "midi": 74,
          "name": "D5",
          "ticks": 200920,
          "time": 455.5143125,
          "velocity": 0.7874015748031497
        },
        {
          "duration": 0.125,
          "durationTicks": 80,
          "midi": 71,
          "name": "B4",
          "ticks": 201000,
          "time": 455.6393125,
          "velocity": 0.7874015748031497
        },
        {
          "duration": 0.125,
          "durationTicks": 80,
          "midi": 65,
          "name": "F4",
          "ticks": 201080,
          "time": 455.7643125,
          "velocity": 0.7874015748031497
        },
        {
          "duration": 0.125,
          "durationTicks": 80,
          "midi": 64,
          "name": "E4",
          "ticks": 201160,
          "time": 455.8893125,
          "velocity": 0.7874015748031497
        },
        {
          "duration": 0.125,
          "durationTicks": 80,
          "midi": 62,
          "name": "D4",
          "ticks": 201240,
          "time": 456.0143125,
          "velocity": 0.7874015748031497
        },
        {
          "duration": 0.125,
          "durationTicks": 80,
          "midi": 61,
          "name": "C#4",
          "ticks": 201320,
          "time": 456.1393125,
          "velocity": 0.7874015748031497
        },
        {
          "duration": 0.125,
          "durationTicks": 80,
          "midi": 59,
          "name": "B3",
          "ticks": 201400,
          "time": 456.2643125,
          "velocity": 0.7874015748031497
        },
        {
          "duration": 0.125,
          "durationTicks": 80,
          "midi": 57,
          "name": "A3",
          "ticks": 201480,
          "time": 456.3893125,
          "velocity": 0.7874015748031497
        },
        {
          "duration": 0.125,
          "durationTicks": 80,
          "midi": 62,
          "name": "D4",
          "ticks": 201560,
          "time": 456.5143125,
          "velocity": 0.7874015748031497
        },
        {
          "duration": 0.125,
          "durationTicks": 80,
          "midi": 66,
          "name": "F#4",
          "ticks": 201640,
          "time": 456.6393125,
          "velocity": 0.7874015748031497
        },
        {
          "duration": 0.125,
          "durationTicks": 80,
          "midi": 69,
          "name": "A4",
          "ticks": 201720,
          "time": 456.7643125,
          "velocity": 0.7874015748031497
        },
        {
          "duration": 0.125,
          "durationTicks": 80,
          "midi": 74,
          "name": "D5",
          "ticks": 201800,
          "time": 456.8893125,
          "velocity": 0.7874015748031497
        },
        {
          "duration": 0.125,
          "durationTicks": 80,
          "midi": 78,
          "name": "F#5",
          "ticks": 201880,
          "time": 457.0143125,
          "velocity": 0.7874015748031497
        },
        {
          "duration": 0.125,
          "durationTicks": 80,
          "midi": 76,
          "name": "E5",
          "ticks": 201960,
          "time": 457.1393125,
          "velocity": 0.7874015748031497
        },
        {
          "duration": 0.125,
          "durationTicks": 80,
          "midi": 73,
          "name": "C#5",
          "ticks": 202040,
          "time": 457.2643125,
          "velocity": 0.7874015748031497
        },
        {
          "duration": 0.125,
          "durationTicks": 80,
          "midi": 69,
          "name": "A4",
          "ticks": 202120,
          "time": 457.3893125,
          "velocity": 0.7874015748031497
        },
        {
          "duration": 0.125,
          "durationTicks": 80,
          "midi": 67,
          "name": "G4",
          "ticks": 202200,
          "time": 457.5143125,
          "velocity": 0.7874015748031497
        },
        {
          "duration": 0.125,
          "durationTicks": 80,
          "midi": 66,
          "name": "F#4",
          "ticks": 202280,
          "time": 457.6393125,
          "velocity": 0.7874015748031497
        },
        {
          "duration": 0.125,
          "durationTicks": 80,
          "midi": 64,
          "name": "E4",
          "ticks": 202360,
          "time": 457.7643125,
          "velocity": 0.7874015748031497
        },
        {
          "duration": 0.125,
          "durationTicks": 80,
          "midi": 62,
          "name": "D4",
          "ticks": 202440,
          "time": 457.8893125,
          "velocity": 0.7874015748031497
        },
        {
          "duration": 0.125,
          "durationTicks": 80,
          "midi": 57,
          "name": "A3",
          "ticks": 202520,
          "time": 458.0143125,
          "velocity": 0.7874015748031497
        },
        {
          "duration": 0.125,
          "durationTicks": 80,
          "midi": 54,
          "name": "F#3",
          "ticks": 202600,
          "time": 458.1393125,
          "velocity": 0.7874015748031497
        },
        {
          "duration": 0.125,
          "durationTicks": 80,
          "midi": 50,
          "name": "D3",
          "ticks": 202680,
          "time": 458.2643125,
          "velocity": 0.7874015748031497
        },
        {
          "duration": 0.125,
          "durationTicks": 80,
          "midi": 45,
          "name": "A2",
          "ticks": 202760,
          "time": 458.3893125,
          "velocity": 0.7874015748031497
        },
        {
          "duration": 0.125,
          "durationTicks": 80,
          "midi": 42,
          "name": "F#2",
          "ticks": 202840,
          "time": 458.5143125,
          "velocity": 0.7874015748031497
        },
        {
          "duration": 0.125,
          "durationTicks": 80,
          "midi": 38,
          "name": "D2",
          "ticks": 202920,
          "time": 458.6393125,
          "velocity": 0.7874015748031497
        },
        {
          "duration": 0.125,
          "durationTicks": 80,
          "midi": 42,
          "name": "F#2",
          "ticks": 203000,
          "time": 458.7643125,
          "velocity": 0.7874015748031497
        },
        {
          "duration": 0.125,
          "durationTicks": 80,
          "midi": 45,
          "name": "A2",
          "ticks": 203080,
          "time": 458.8893125,
          "velocity": 0.7874015748031497
        },
        {
          "duration": 0.375,
          "durationTicks": 240,
          "midi": 50,
          "name": "D3",
          "ticks": 203160,
          "time": 459.0143125,
          "velocity": 0.7874015748031497
        },
        {
          "duration": 0.125,
          "durationTicks": 80,
          "midi": 50,
          "name": "D3",
          "ticks": 203400,
          "time": 459.3893125,
          "velocity": 0.7874015748031497
        },
        {
          "duration": 0.125,
          "durationTicks": 80,
          "midi": 52,
          "name": "E3",
          "ticks": 203480,
          "time": 459.5143125,
          "velocity": 0.7874015748031497
        },
        {
          "duration": 0.125,
          "durationTicks": 80,
          "midi": 54,
          "name": "F#3",
          "ticks": 203560,
          "time": 459.6393125,
          "velocity": 0.7874015748031497
        },
        {
          "duration": 0.125,
          "durationTicks": 80,
          "midi": 55,
          "name": "G3",
          "ticks": 203640,
          "time": 459.7643125,
          "velocity": 0.7874015748031497
        },
        {
          "duration": 0.125,
          "durationTicks": 80,
          "midi": 57,
          "name": "A3",
          "ticks": 203720,
          "time": 459.8893125,
          "velocity": 0.7874015748031497
        },
        {
          "duration": 0.125,
          "durationTicks": 80,
          "midi": 59,
          "name": "B3",
          "ticks": 203800,
          "time": 460.0143125,
          "velocity": 0.7874015748031497
        },
        {
          "duration": 0.125,
          "durationTicks": 80,
          "midi": 60,
          "name": "C4",
          "ticks": 203880,
          "time": 460.1393125,
          "velocity": 0.7874015748031497
        },
        {
          "duration": 0.125,
          "durationTicks": 80,
          "midi": 50,
          "name": "D3",
          "ticks": 203960,
          "time": 460.2643125,
          "velocity": 0.7874015748031497
        },
        {
          "duration": 0.25,
          "durationTicks": 160,
          "midi": 60,
          "name": "C4",
          "ticks": 204040,
          "time": 460.3893125,
          "velocity": 0.7874015748031497
        },
        {
          "duration": 0.125,
          "durationTicks": 80,
          "midi": 59,
          "name": "B3",
          "ticks": 204200,
          "time": 460.6393125,
          "velocity": 0.7874015748031497
        },
        {
          "duration": 0.125,
          "durationTicks": 80,
          "midi": 57,
          "name": "A3",
          "ticks": 204280,
          "time": 460.7643125,
          "velocity": 0.7874015748031497
        },
        {
          "duration": 0.125,
          "durationTicks": 80,
          "midi": 55,
          "name": "G3",
          "ticks": 204360,
          "time": 460.8893125,
          "velocity": 0.7874015748031497
        },
        {
          "duration": 0.125,
          "durationTicks": 80,
          "midi": 57,
          "name": "A3",
          "ticks": 204440,
          "time": 461.0143125,
          "velocity": 0.7874015748031497
        },
        {
          "duration": 0.125,
          "durationTicks": 80,
          "midi": 59,
          "name": "B3",
          "ticks": 204520,
          "time": 461.1393125,
          "velocity": 0.7874015748031497
        },
        {
          "duration": 0.125,
          "durationTicks": 80,
          "midi": 60,
          "name": "C4",
          "ticks": 204600,
          "time": 461.2643125,
          "velocity": 0.7874015748031497
        },
        {
          "duration": 0.125,
          "durationTicks": 80,
          "midi": 62,
          "name": "D4",
          "ticks": 204680,
          "time": 461.3893125,
          "velocity": 0.7874015748031497
        },
        {
          "duration": 0.125,
          "durationTicks": 80,
          "midi": 64,
          "name": "E4",
          "ticks": 204760,
          "time": 461.5143125,
          "velocity": 0.7874015748031497
        },
        {
          "duration": 0.125,
          "durationTicks": 80,
          "midi": 65,
          "name": "F4",
          "ticks": 204840,
          "time": 461.6393125,
          "velocity": 0.7874015748031497
        },
        {
          "duration": 0.125,
          "durationTicks": 80,
          "midi": 55,
          "name": "G3",
          "ticks": 204920,
          "time": 461.7643125,
          "velocity": 0.7874015748031497
        },
        {
          "duration": 0.25,
          "durationTicks": 160,
          "midi": 65,
          "name": "F4",
          "ticks": 205000,
          "time": 461.8893125,
          "velocity": 0.7874015748031497
        },
        {
          "duration": 0.125,
          "durationTicks": 80,
          "midi": 64,
          "name": "E4",
          "ticks": 205160,
          "time": 462.1393125,
          "velocity": 0.7874015748031497
        },
        {
          "duration": 0.125,
          "durationTicks": 80,
          "midi": 62,
          "name": "D4",
          "ticks": 205240,
          "time": 462.2643125,
          "velocity": 0.7874015748031497
        },
        {
          "duration": 0.125,
          "durationTicks": 80,
          "midi": 60,
          "name": "C4",
          "ticks": 205320,
          "time": 462.3893125,
          "velocity": 0.7874015748031497
        },
        {
          "duration": 0.125,
          "durationTicks": 80,
          "midi": 64,
          "name": "E4",
          "ticks": 205480,
          "time": 462.6393125,
          "velocity": 0.7874015748031497
        },
        {
          "duration": 0.125,
          "durationTicks": 80,
          "midi": 67,
          "name": "G4",
          "ticks": 205560,
          "time": 462.7643125,
          "velocity": 0.7874015748031497
        },
        {
          "duration": 0.125,
          "durationTicks": 80,
          "midi": 64,
          "name": "E4",
          "ticks": 205720,
          "time": 463.0143125,
          "velocity": 0.7874015748031497
        },
        {
          "duration": 0.125,
          "durationTicks": 80,
          "midi": 72,
          "name": "C5",
          "ticks": 205800,
          "time": 463.1393125,
          "velocity": 0.7874015748031497
        },
        {
          "duration": 0.125,
          "durationTicks": 80,
          "midi": 71,
          "name": "B4",
          "ticks": 205880,
          "time": 463.2643125,
          "velocity": 0.7874015748031497
        },
        {
          "duration": 0.125,
          "durationTicks": 80,
          "midi": 69,
          "name": "A4",
          "ticks": 205960,
          "time": 463.3893125,
          "velocity": 0.7874015748031497
        },
        {
          "duration": 0.125,
          "durationTicks": 80,
          "midi": 67,
          "name": "G4",
          "ticks": 206040,
          "time": 463.5143125,
          "velocity": 0.7874015748031497
        },
        {
          "duration": 0.125,
          "durationTicks": 80,
          "midi": 66,
          "name": "F#4",
          "ticks": 206120,
          "time": 463.6393125,
          "velocity": 0.7874015748031497
        },
        {
          "duration": 0.125,
          "durationTicks": 80,
          "midi": 64,
          "name": "E4",
          "ticks": 206200,
          "time": 463.7643125,
          "velocity": 0.7874015748031497
        },
        {
          "duration": 0.125,
          "durationTicks": 80,
          "midi": 63,
          "name": "D#4",
          "ticks": 206280,
          "time": 463.8893125,
          "velocity": 0.7874015748031497
        },
        {
          "duration": 0.125,
          "durationTicks": 80,
          "midi": 61,
          "name": "C#4",
          "ticks": 206360,
          "time": 464.0143125,
          "velocity": 0.7874015748031497
        },
        {
          "duration": 0.125,
          "durationTicks": 80,
          "midi": 59,
          "name": "B3",
          "ticks": 206440,
          "time": 464.1393125,
          "velocity": 0.7874015748031497
        },
        {
          "duration": 0.125,
          "durationTicks": 80,
          "midi": 57,
          "name": "A3",
          "ticks": 206520,
          "time": 464.2643125,
          "velocity": 0.7874015748031497
        },
        {
          "duration": 0.125,
          "durationTicks": 80,
          "midi": 55,
          "name": "G3",
          "ticks": 206600,
          "time": 464.3893125,
          "velocity": 0.7874015748031497
        },
        {
          "duration": 0.125,
          "durationTicks": 80,
          "midi": 54,
          "name": "F#3",
          "ticks": 206680,
          "time": 464.5143125,
          "velocity": 0.7874015748031497
        },
        {
          "duration": 0.125,
          "durationTicks": 80,
          "midi": 52,
          "name": "E3",
          "ticks": 206760,
          "time": 464.6393125,
          "velocity": 0.7874015748031497
        },
        {
          "duration": 0.125,
          "durationTicks": 80,
          "midi": 51,
          "name": "D#3",
          "ticks": 206840,
          "time": 464.7643125,
          "velocity": 0.7874015748031497
        },
        {
          "duration": 0.125,
          "durationTicks": 80,
          "midi": 49,
          "name": "C#3",
          "ticks": 206920,
          "time": 464.8893125,
          "velocity": 0.7874015748031497
        },
        {
          "duration": 0.125,
          "durationTicks": 80,
          "midi": 47,
          "name": "B2",
          "ticks": 207000,
          "time": 465.0143125,
          "velocity": 0.7874015748031497
        },
        {
          "duration": 0.125,
          "durationTicks": 80,
          "midi": 48,
          "name": "C3",
          "ticks": 207080,
          "time": 465.1393125,
          "velocity": 0.7874015748031497
        },
        {
          "duration": 0.125,
          "durationTicks": 80,
          "midi": 45,
          "name": "A2",
          "ticks": 207160,
          "time": 465.2643125,
          "velocity": 0.7874015748031497
        },
        {
          "duration": 0.5,
          "durationTicks": 320,
          "midi": 43,
          "name": "G2",
          "ticks": 207240,
          "time": 465.3893125,
          "velocity": 0.7874015748031497
        },
        {
          "duration": 0.125,
          "durationTicks": 80,
          "midi": 47,
          "name": "B2",
          "ticks": 207560,
          "time": 465.8893125,
          "velocity": 0.7874015748031497
        },
        {
          "duration": 0.125,
          "durationTicks": 80,
          "midi": 52,
          "name": "E3",
          "ticks": 207640,
          "time": 466.0143125,
          "velocity": 0.7874015748031497
        },
        {
          "duration": 0.125,
          "durationTicks": 80,
          "midi": 55,
          "name": "G3",
          "ticks": 207720,
          "time": 466.1393125,
          "velocity": 0.7874015748031497
        },
        {
          "duration": 0.125,
          "durationTicks": 80,
          "midi": 59,
          "name": "B3",
          "ticks": 207800,
          "time": 466.2643125,
          "velocity": 0.7874015748031497
        },
        {
          "duration": 0.125,
          "durationTicks": 80,
          "midi": 63,
          "name": "D#4",
          "ticks": 207880,
          "time": 466.3893125,
          "velocity": 0.7874015748031497
        },
        {
          "duration": 0.25,
          "durationTicks": 160,
          "midi": 64,
          "name": "E4",
          "ticks": 207960,
          "time": 466.5143125,
          "velocity": 0.7874015748031497
        },
        {
          "duration": 0.125,
          "durationTicks": 80,
          "midi": 43,
          "name": "G2",
          "ticks": 208120,
          "time": 466.7643125,
          "velocity": 0.7874015748031497
        },
        {
          "duration": 0.5,
          "durationTicks": 320,
          "midi": 45,
          "name": "A2",
          "ticks": 208200,
          "time": 466.8893125,
          "velocity": 0.7874015748031497
        },
        {
          "duration": 0.125,
          "durationTicks": 80,
          "midi": 48,
          "name": "C3",
          "ticks": 208520,
          "time": 467.3893125,
          "velocity": 0.7874015748031497
        },
        {
          "duration": 0.125,
          "durationTicks": 80,
          "midi": 53,
          "name": "F3",
          "ticks": 208600,
          "time": 467.5143125,
          "velocity": 0.7874015748031497
        },
        {
          "duration": 0.125,
          "durationTicks": 80,
          "midi": 57,
          "name": "A3",
          "ticks": 208680,
          "time": 467.6393125,
          "velocity": 0.7874015748031497
        },
        {
          "duration": 0.125,
          "durationTicks": 80,
          "midi": 60,
          "name": "C4",
          "ticks": 208760,
          "time": 467.7643125,
          "velocity": 0.7874015748031497
        },
        {
          "duration": 0.125,
          "durationTicks": 80,
          "midi": 63,
          "name": "D#4",
          "ticks": 208840,
          "time": 467.8893125,
          "velocity": 0.7874015748031497
        },
        {
          "duration": 0.25,
          "durationTicks": 160,
          "midi": 64,
          "name": "E4",
          "ticks": 208920,
          "time": 468.0143125,
          "velocity": 0.7874015748031497
        },
        {
          "duration": 0.125,
          "durationTicks": 80,
          "midi": 46,
          "name": "A#2",
          "ticks": 209080,
          "time": 468.2643125,
          "velocity": 0.7874015748031497
        },
        {
          "duration": 0.5,
          "durationTicks": 320,
          "midi": 47,
          "name": "B2",
          "ticks": 209160,
          "time": 468.3893125,
          "velocity": 0.7874015748031497
        },
        {
          "duration": 0.125,
          "durationTicks": 80,
          "midi": 49,
          "name": "C#3",
          "ticks": 209480,
          "time": 468.8893125,
          "velocity": 0.7874015748031497
        },
        {
          "duration": 0.125,
          "durationTicks": 80,
          "midi": 51,
          "name": "D#3",
          "ticks": 209560,
          "time": 469.0143125,
          "velocity": 0.7874015748031497
        },
        {
          "duration": 0.125,
          "durationTicks": 80,
          "midi": 52,
          "name": "E3",
          "ticks": 209640,
          "time": 469.1393125,
          "velocity": 0.7874015748031497
        },
        {
          "duration": 0.125,
          "durationTicks": 80,
          "midi": 54,
          "name": "F#3",
          "ticks": 209720,
          "time": 469.2643125,
          "velocity": 0.7874015748031497
        },
        {
          "duration": 0.125,
          "durationTicks": 80,
          "midi": 55,
          "name": "G3",
          "ticks": 209800,
          "time": 469.3893125,
          "velocity": 0.7874015748031497
        },
        {
          "duration": 0.125,
          "durationTicks": 80,
          "midi": 57,
          "name": "A3",
          "ticks": 209880,
          "time": 469.5143125,
          "velocity": 0.7874015748031497
        },
        {
          "duration": 0.125,
          "durationTicks": 80,
          "midi": 55,
          "name": "G3",
          "ticks": 209960,
          "time": 469.6393125,
          "velocity": 0.7874015748031497
        },
        {
          "duration": 0.125,
          "durationTicks": 80,
          "midi": 54,
          "name": "F#3",
          "ticks": 210040,
          "time": 469.7643125,
          "velocity": 0.7874015748031497
        },
        {
          "duration": 0.125,
          "durationTicks": 80,
          "midi": 55,
          "name": "G3",
          "ticks": 210120,
          "time": 469.8893125,
          "velocity": 0.7874015748031497
        },
        {
          "duration": 0.125,
          "durationTicks": 80,
          "midi": 52,
          "name": "E3",
          "ticks": 210200,
          "time": 470.0143125,
          "velocity": 0.7874015748031497
        },
        {
          "duration": 0.125,
          "durationTicks": 80,
          "midi": 55,
          "name": "G3",
          "ticks": 210280,
          "time": 470.1393125,
          "velocity": 0.7874015748031497
        },
        {
          "duration": 0.125,
          "durationTicks": 80,
          "midi": 59,
          "name": "B3",
          "ticks": 210360,
          "time": 470.2643125,
          "velocity": 0.7874015748031497
        },
        {
          "duration": 0.125,
          "durationTicks": 80,
          "midi": 64,
          "name": "E4",
          "ticks": 210440,
          "time": 470.3893125,
          "velocity": 0.7874015748031497
        },
        {
          "duration": 0.125,
          "durationTicks": 80,
          "midi": 63,
          "name": "D#4",
          "ticks": 210520,
          "time": 470.5143125,
          "velocity": 0.7874015748031497
        },
        {
          "duration": 0.125,
          "durationTicks": 80,
          "midi": 64,
          "name": "E4",
          "ticks": 210600,
          "time": 470.6393125,
          "velocity": 0.7874015748031497
        },
        {
          "duration": 0.125,
          "durationTicks": 80,
          "midi": 67,
          "name": "G4",
          "ticks": 210680,
          "time": 470.7643125,
          "velocity": 0.7874015748031497
        },
        {
          "duration": 0.125,
          "durationTicks": 80,
          "midi": 64,
          "name": "E4",
          "ticks": 210760,
          "time": 470.8893125,
          "velocity": 0.7874015748031497
        },
        {
          "duration": 0.125,
          "durationTicks": 80,
          "midi": 59,
          "name": "B3",
          "ticks": 210840,
          "time": 471.0143125,
          "velocity": 0.7874015748031497
        },
        {
          "duration": 0.125,
          "durationTicks": 80,
          "midi": 55,
          "name": "G3",
          "ticks": 210920,
          "time": 471.1393125,
          "velocity": 0.7874015748031497
        },
        {
          "duration": 0.125,
          "durationTicks": 80,
          "midi": 59,
          "name": "B3",
          "ticks": 211000,
          "time": 471.2643125,
          "velocity": 0.7874015748031497
        },
        {
          "duration": 0.625,
          "durationTicks": 400,
          "midi": 48,
          "name": "C3",
          "ticks": 211080,
          "time": 471.3893125,
          "velocity": 0.7874015748031497
        },
        {
          "duration": 0.125,
          "durationTicks": 80,
          "midi": 64,
          "name": "E4",
          "ticks": 211480,
          "time": 472.0143125,
          "velocity": 0.7874015748031497
        },
        {
          "duration": 0.125,
          "durationTicks": 80,
          "midi": 69,
          "name": "A4",
          "ticks": 211560,
          "time": 472.1393125,
          "velocity": 0.7874015748031497
        },
        {
          "duration": 0.125,
          "durationTicks": 80,
          "midi": 67,
          "name": "G4",
          "ticks": 211640,
          "time": 472.2643125,
          "velocity": 0.7874015748031497
        },
        {
          "duration": 0.125,
          "durationTicks": 80,
          "midi": 66,
          "name": "F#4",
          "ticks": 211720,
          "time": 472.3893125,
          "velocity": 0.7874015748031497
        },
        {
          "duration": 0.125,
          "durationTicks": 80,
          "midi": 64,
          "name": "E4",
          "ticks": 211800,
          "time": 472.5143125,
          "velocity": 0.7874015748031497
        },
        {
          "duration": 0.125,
          "durationTicks": 80,
          "midi": 62,
          "name": "D4",
          "ticks": 211880,
          "time": 472.6393125,
          "velocity": 0.7874015748031497
        },
        {
          "duration": 0.125,
          "durationTicks": 80,
          "midi": 60,
          "name": "C4",
          "ticks": 211960,
          "time": 472.7643125,
          "velocity": 0.7874015748031497
        },
        {
          "duration": 0.625,
          "durationTicks": 400,
          "midi": 59,
          "name": "B3",
          "ticks": 212040,
          "time": 472.8893125,
          "velocity": 0.7874015748031497
        },
        {
          "duration": 0.125,
          "durationTicks": 80,
          "midi": 69,
          "name": "A4",
          "ticks": 212440,
          "time": 473.5143125,
          "velocity": 0.7874015748031497
        },
        {
          "duration": 0.125,
          "durationTicks": 80,
          "midi": 67,
          "name": "G4",
          "ticks": 212520,
          "time": 473.6393125,
          "velocity": 0.7874015748031497
        },
        {
          "duration": 0.125,
          "durationTicks": 80,
          "midi": 66,
          "name": "F#4",
          "ticks": 212600,
          "time": 473.7643125,
          "velocity": 0.7874015748031497
        },
        {
          "duration": 0.125,
          "durationTicks": 80,
          "midi": 64,
          "name": "E4",
          "ticks": 212680,
          "time": 473.8893125,
          "velocity": 0.7874015748031497
        },
        {
          "duration": 0.125,
          "durationTicks": 80,
          "midi": 62,
          "name": "D4",
          "ticks": 212760,
          "time": 474.0143125,
          "velocity": 0.7874015748031497
        },
        {
          "duration": 0.125,
          "durationTicks": 80,
          "midi": 60,
          "name": "C4",
          "ticks": 212840,
          "time": 474.1393125,
          "velocity": 0.7874015748031497
        },
        {
          "duration": 0.125,
          "durationTicks": 80,
          "midi": 59,
          "name": "B3",
          "ticks": 212920,
          "time": 474.2643125,
          "velocity": 0.7874015748031497
        },
        {
          "duration": 0.5,
          "durationTicks": 320,
          "midi": 57,
          "name": "A3",
          "ticks": 213000,
          "time": 474.3893125,
          "velocity": 0.7874015748031497
        },
        {
          "duration": 0.125,
          "durationTicks": 80,
          "midi": 59,
          "name": "B3",
          "ticks": 213320,
          "time": 474.8893125,
          "velocity": 0.7874015748031497
        },
        {
          "duration": 0.125,
          "durationTicks": 80,
          "midi": 60,
          "name": "C4",
          "ticks": 213400,
          "time": 475.0143125,
          "velocity": 0.7874015748031497
        },
        {
          "duration": 0.125,
          "durationTicks": 80,
          "midi": 62,
          "name": "D4",
          "ticks": 213480,
          "time": 475.1393125,
          "velocity": 0.7874015748031497
        },
        {
          "duration": 0.125,
          "durationTicks": 80,
          "midi": 64,
          "name": "E4",
          "ticks": 213560,
          "time": 475.2643125,
          "velocity": 0.7874015748031497
        },
        {
          "duration": 0.125,
          "durationTicks": 80,
          "midi": 66,
          "name": "F#4",
          "ticks": 213640,
          "time": 475.3893125,
          "velocity": 0.7874015748031497
        },
        {
          "duration": 0.125,
          "durationTicks": 80,
          "midi": 67,
          "name": "G4",
          "ticks": 213720,
          "time": 475.5143125,
          "velocity": 0.7874015748031497
        },
        {
          "duration": 0.125,
          "durationTicks": 80,
          "midi": 66,
          "name": "F#4",
          "ticks": 213800,
          "time": 475.6393125,
          "velocity": 0.7874015748031497
        },
        {
          "duration": 0.125,
          "durationTicks": 80,
          "midi": 64,
          "name": "E4",
          "ticks": 213880,
          "time": 475.7643125,
          "velocity": 0.7874015748031497
        },
        {
          "duration": 0.5,
          "durationTicks": 320,
          "midi": 62,
          "name": "D4",
          "ticks": 213960,
          "time": 475.8893125,
          "velocity": 0.7874015748031497
        },
        {
          "duration": 0.125,
          "durationTicks": 80,
          "midi": 64,
          "name": "E4",
          "ticks": 214280,
          "time": 476.3893125,
          "velocity": 0.7874015748031497
        },
        {
          "duration": 0.125,
          "durationTicks": 80,
          "midi": 66,
          "name": "F#4",
          "ticks": 214360,
          "time": 476.5143125,
          "velocity": 0.7874015748031497
        },
        {
          "duration": 0.125,
          "durationTicks": 80,
          "midi": 67,
          "name": "G4",
          "ticks": 214440,
          "time": 476.6393125,
          "velocity": 0.7874015748031497
        },
        {
          "duration": 0.125,
          "durationTicks": 80,
          "midi": 69,
          "name": "A4",
          "ticks": 214520,
          "time": 476.7643125,
          "velocity": 0.7874015748031497
        },
        {
          "duration": 0.125,
          "durationTicks": 80,
          "midi": 71,
          "name": "B4",
          "ticks": 214600,
          "time": 476.8893125,
          "velocity": 0.7874015748031497
        },
        {
          "duration": 0.125,
          "durationTicks": 80,
          "midi": 72,
          "name": "C5",
          "ticks": 214680,
          "time": 477.0143125,
          "velocity": 0.7874015748031497
        },
        {
          "duration": 0.125,
          "durationTicks": 80,
          "midi": 71,
          "name": "B4",
          "ticks": 214760,
          "time": 477.1393125,
          "velocity": 0.7874015748031497
        },
        {
          "duration": 0.125,
          "durationTicks": 80,
          "midi": 69,
          "name": "A4",
          "ticks": 214840,
          "time": 477.2643125,
          "velocity": 0.7874015748031497
        },
        {
          "duration": 0.5,
          "durationTicks": 320,
          "midi": 67,
          "name": "G4",
          "ticks": 214920,
          "time": 477.3893125,
          "velocity": 0.7874015748031497
        },
        {
          "duration": 0.125,
          "durationTicks": 80,
          "midi": 69,
          "name": "A4",
          "ticks": 215240,
          "time": 477.8893125,
          "velocity": 0.7874015748031497
        },
        {
          "duration": 0.125,
          "durationTicks": 80,
          "midi": 71,
          "name": "B4",
          "ticks": 215320,
          "time": 478.0143125,
          "velocity": 0.7874015748031497
        },
        {
          "duration": 0.125,
          "durationTicks": 80,
          "midi": 72,
          "name": "C5",
          "ticks": 215400,
          "time": 478.1393125,
          "velocity": 0.7874015748031497
        },
        {
          "duration": 0.125,
          "durationTicks": 80,
          "midi": 74,
          "name": "D5",
          "ticks": 215480,
          "time": 478.2643125,
          "velocity": 0.7874015748031497
        },
        {
          "duration": 0.125,
          "durationTicks": 80,
          "midi": 76,
          "name": "E5",
          "ticks": 215560,
          "time": 478.3893125,
          "velocity": 0.7874015748031497
        },
        {
          "duration": 0.125,
          "durationTicks": 80,
          "midi": 77,
          "name": "F5",
          "ticks": 215640,
          "time": 478.5143125,
          "velocity": 0.7874015748031497
        },
        {
          "duration": 0.125,
          "durationTicks": 80,
          "midi": 76,
          "name": "E5",
          "ticks": 215720,
          "time": 478.6393125,
          "velocity": 0.7874015748031497
        },
        {
          "duration": 0.125,
          "durationTicks": 80,
          "midi": 74,
          "name": "D5",
          "ticks": 215800,
          "time": 478.7643125,
          "velocity": 0.7874015748031497
        },
        {
          "duration": 0.09375,
          "durationTicks": 60,
          "midi": 72,
          "name": "C5",
          "ticks": 215880,
          "time": 478.8893125,
          "velocity": 0.7874015748031497
        },
        {
          "duration": 0.09375,
          "durationTicks": 60,
          "midi": 74,
          "name": "D5",
          "ticks": 215940,
          "time": 478.9830625,
          "velocity": 0.7874015748031497
        },
        {
          "duration": 0.09375,
          "durationTicks": 60,
          "midi": 72,
          "name": "C5",
          "ticks": 216000,
          "time": 479.0768125,
          "velocity": 0.7874015748031497
        },
        {
          "duration": 0.09375,
          "durationTicks": 60,
          "midi": 74,
          "name": "D5",
          "ticks": 216060,
          "time": 479.1705625,
          "velocity": 0.7874015748031497
        },
        {
          "duration": 0.375,
          "durationTicks": 240,
          "midi": 72,
          "name": "C5",
          "ticks": 216120,
          "time": 479.2643125,
          "velocity": 0.7874015748031497
        },
        {
          "duration": 0.125,
          "durationTicks": 80,
          "midi": 52,
          "name": "E3",
          "ticks": 216520,
          "time": 479.8893125,
          "velocity": 0.7874015748031497
        },
        {
          "duration": 0.125,
          "durationTicks": 80,
          "midi": 57,
          "name": "A3",
          "ticks": 216600,
          "time": 480.0143125,
          "velocity": 0.7874015748031497
        },
        {
          "duration": 0.125,
          "durationTicks": 80,
          "midi": 60,
          "name": "C4",
          "ticks": 216760,
          "time": 480.2643125,
          "velocity": 0.7874015748031497
        },
        {
          "duration": 0.09375,
          "durationTicks": 60,
          "midi": 60,
          "name": "C4",
          "ticks": 216840,
          "time": 480.3893125,
          "velocity": 0.7874015748031497
        },
        {
          "duration": 0.09375,
          "durationTicks": 60,
          "midi": 62,
          "name": "D4",
          "ticks": 216900,
          "time": 480.4830625,
          "velocity": 0.7874015748031497
        },
        {
          "duration": 0.09375,
          "durationTicks": 60,
          "midi": 60,
          "name": "C4",
          "ticks": 216960,
          "time": 480.5768125,
          "velocity": 0.7874015748031497
        },
        {
          "duration": 0.09375,
          "durationTicks": 60,
          "midi": 62,
          "name": "D4",
          "ticks": 217020,
          "time": 480.6705625,
          "velocity": 0.7874015748031497
        },
        {
          "duration": 0.375,
          "durationTicks": 240,
          "midi": 60,
          "name": "C4",
          "ticks": 217080,
          "time": 480.7643125,
          "velocity": 0.7874015748031497
        },
        {
          "duration": 0.125,
          "durationTicks": 80,
          "midi": 54,
          "name": "F#3",
          "ticks": 217480,
          "time": 481.3893125,
          "velocity": 0.7874015748031497
        },
        {
          "duration": 0.125,
          "durationTicks": 80,
          "midi": 57,
          "name": "A3",
          "ticks": 217560,
          "time": 481.5143125,
          "velocity": 0.7874015748031497
        },
        {
          "duration": 0.125,
          "durationTicks": 80,
          "midi": 62,
          "name": "D4",
          "ticks": 217720,
          "time": 481.7643125,
          "velocity": 0.7874015748031497
        },
        {
          "duration": 0.125,
          "durationTicks": 80,
          "midi": 55,
          "name": "G3",
          "ticks": 217800,
          "time": 481.8893125,
          "velocity": 0.7874015748031497
        },
        {
          "duration": 0.125,
          "durationTicks": 80,
          "midi": 59,
          "name": "B3",
          "ticks": 217880,
          "time": 482.0143125,
          "velocity": 0.7874015748031497
        },
        {
          "duration": 0.125,
          "durationTicks": 80,
          "midi": 55,
          "name": "G3",
          "ticks": 217960,
          "time": 482.1393125,
          "velocity": 0.7874015748031497
        },
        {
          "duration": 0.125,
          "durationTicks": 80,
          "midi": 50,
          "name": "D3",
          "ticks": 218040,
          "time": 482.2643125,
          "velocity": 0.7874015748031497
        },
        {
          "duration": 0.125,
          "durationTicks": 80,
          "midi": 47,
          "name": "B2",
          "ticks": 218120,
          "time": 482.3893125,
          "velocity": 0.7874015748031497
        },
        {
          "duration": 0.125,
          "durationTicks": 80,
          "midi": 50,
          "name": "D3",
          "ticks": 218200,
          "time": 482.5143125,
          "velocity": 0.7874015748031497
        },
        {
          "duration": 0.125,
          "durationTicks": 80,
          "midi": 55,
          "name": "G3",
          "ticks": 218280,
          "time": 482.6393125,
          "velocity": 0.7874015748031497
        },
        {
          "duration": 0.125,
          "durationTicks": 80,
          "midi": 50,
          "name": "D3",
          "ticks": 218360,
          "time": 482.7643125,
          "velocity": 0.7874015748031497
        },
        {
          "duration": 0.125,
          "durationTicks": 80,
          "midi": 47,
          "name": "B2",
          "ticks": 218440,
          "time": 482.8893125,
          "velocity": 0.7874015748031497
        },
        {
          "duration": 0.375,
          "durationTicks": 240,
          "midi": 43,
          "name": "G2",
          "ticks": 218520,
          "time": 483.0143125,
          "velocity": 0.7874015748031497
        },
        {
          "duration": 1.25,
          "durationTicks": 240,
          "midi": 64,
          "name": "E4",
          "ticks": 234480,
          "time": 563.9518125,
          "velocity": 0.7874015748031497
        },
        {
          "duration": 0.625,
          "durationTicks": 120,
          "midi": 62,
          "name": "D4",
          "ticks": 234720,
          "time": 565.2018125,
          "velocity": 0.7874015748031497
        },
        {
          "duration": 0.625,
          "durationTicks": 120,
          "midi": 64,
          "name": "E4",
          "ticks": 235200,
          "time": 567.7018125,
          "velocity": 0.7874015748031497
        },
        {
          "duration": 0.625,
          "durationTicks": 120,
          "midi": 69,
          "name": "A4",
          "ticks": 235320,
          "time": 568.3268125,
          "velocity": 0.7874015748031497
        },
        {
          "duration": 0.625,
          "durationTicks": 120,
          "midi": 72,
          "name": "C5",
          "ticks": 235440,
          "time": 568.9518125,
          "velocity": 0.7874015748031497
        },
        {
          "duration": 1.875,
          "durationTicks": 360,
          "midi": 66,
          "name": "F#4",
          "ticks": 235560,
          "time": 569.5768125,
          "velocity": 0.7874015748031497
        },
        {
          "duration": 0.09375,
          "durationTicks": 48,
          "midi": 59,
          "name": "B3",
          "ticks": 244200,
          "time": 612.6236875,
          "velocity": 0.7874015748031497
        },
        {
          "duration": 0.09375,
          "durationTicks": 48,
          "midi": 55,
          "name": "G3",
          "ticks": 244260,
          "time": 612.740875,
          "velocity": 0.7874015748031497
        },
        {
          "duration": 0.09375,
          "durationTicks": 48,
          "midi": 50,
          "name": "D3",
          "ticks": 244320,
          "time": 612.8580625,
          "velocity": 0.7874015748031497
        },
        {
          "duration": 0.09375,
          "durationTicks": 48,
          "midi": 55,
          "name": "G3",
          "ticks": 244380,
          "time": 612.97525,
          "velocity": 0.7874015748031497
        },
        {
          "duration": 0.09375,
          "durationTicks": 48,
          "midi": 59,
          "name": "B3",
          "ticks": 244440,
          "time": 613.0924375,
          "velocity": 0.7874015748031497
        },
        {
          "duration": 0.09375,
          "durationTicks": 48,
          "midi": 55,
          "name": "G3",
          "ticks": 244500,
          "time": 613.209625,
          "velocity": 0.7874015748031497
        },
        {
          "duration": 0.09375,
          "durationTicks": 48,
          "midi": 62,
          "name": "D4",
          "ticks": 244560,
          "time": 613.3268125,
          "velocity": 0.7874015748031497
        },
        {
          "duration": 0.09375,
          "durationTicks": 48,
          "midi": 59,
          "name": "B3",
          "ticks": 244620,
          "time": 613.444,
          "velocity": 0.7874015748031497
        },
        {
          "duration": 0.09375,
          "durationTicks": 48,
          "midi": 55,
          "name": "G3",
          "ticks": 244680,
          "time": 613.5611875,
          "velocity": 0.7874015748031497
        },
        {
          "duration": 0.09375,
          "durationTicks": 48,
          "midi": 59,
          "name": "B3",
          "ticks": 244740,
          "time": 613.678375,
          "velocity": 0.7874015748031497
        },
        {
          "duration": 0.09375,
          "durationTicks": 48,
          "midi": 57,
          "name": "A3",
          "ticks": 244800,
          "time": 613.7955625,
          "velocity": 0.7874015748031497
        },
        {
          "duration": 0.09375,
          "durationTicks": 48,
          "midi": 55,
          "name": "G3",
          "ticks": 244860,
          "time": 613.91275,
          "velocity": 0.7874015748031497
        },
        {
          "duration": 0.09375,
          "durationTicks": 48,
          "midi": 62,
          "name": "D4",
          "ticks": 244920,
          "time": 614.0299375,
          "velocity": 0.7874015748031497
        },
        {
          "duration": 0.09375,
          "durationTicks": 48,
          "midi": 57,
          "name": "A3",
          "ticks": 244980,
          "time": 614.147125,
          "velocity": 0.7874015748031497
        },
        {
          "duration": 0.09375,
          "durationTicks": 48,
          "midi": 54,
          "name": "F#3",
          "ticks": 245040,
          "time": 614.2643125,
          "velocity": 0.7874015748031497
        },
        {
          "duration": 0.09375,
          "durationTicks": 48,
          "midi": 57,
          "name": "A3",
          "ticks": 245100,
          "time": 614.3815,
          "velocity": 0.7874015748031497
        },
        {
          "duration": 0.09375,
          "durationTicks": 48,
          "midi": 62,
          "name": "D4",
          "ticks": 245160,
          "time": 614.4986875,
          "velocity": 0.7874015748031497
        },
        {
          "duration": 0.09375,
          "durationTicks": 48,
          "midi": 57,
          "name": "A3",
          "ticks": 245220,
          "time": 614.615875,
          "velocity": 0.7874015748031497
        },
        {
          "duration": 0.09375,
          "durationTicks": 48,
          "midi": 69,
          "name": "A4",
          "ticks": 245280,
          "time": 614.7330625,
          "velocity": 0.7874015748031497
        },
        {
          "duration": 0.09375,
          "durationTicks": 48,
          "midi": 66,
          "name": "F#4",
          "ticks": 245340,
          "time": 614.85025,
          "velocity": 0.7874015748031497
        },
        {
          "duration": 0.09375,
          "durationTicks": 48,
          "midi": 62,
          "name": "D4",
          "ticks": 245400,
          "time": 614.9674375,
          "velocity": 0.7874015748031497
        },
        {
          "duration": 0.09375,
          "durationTicks": 48,
          "midi": 66,
          "name": "F#4",
          "ticks": 245460,
          "time": 615.084625,
          "velocity": 0.7874015748031497
        },
        {
          "duration": 0.09375,
          "durationTicks": 48,
          "midi": 64,
          "name": "E4",
          "ticks": 245520,
          "time": 615.2018125,
          "velocity": 0.7874015748031497
        },
        {
          "duration": 0.09375,
          "durationTicks": 48,
          "midi": 62,
          "name": "D4",
          "ticks": 245580,
          "time": 615.319,
          "velocity": 0.7874015748031497
        },
        {
          "duration": 0.09375,
          "durationTicks": 48,
          "midi": 67,
          "name": "G4",
          "ticks": 245640,
          "time": 615.4361875,
          "velocity": 0.7874015748031497
        },
        {
          "duration": 0.09375,
          "durationTicks": 48,
          "midi": 64,
          "name": "E4",
          "ticks": 245700,
          "time": 615.553375,
          "velocity": 0.7874015748031497
        },
        {
          "duration": 0.09375,
          "durationTicks": 48,
          "midi": 59,
          "name": "B3",
          "ticks": 245760,
          "time": 615.6705625,
          "velocity": 0.7874015748031497
        },
        {
          "duration": 0.09375,
          "durationTicks": 48,
          "midi": 64,
          "name": "E4",
          "ticks": 245820,
          "time": 615.78775,
          "velocity": 0.7874015748031497
        },
        {
          "duration": 0.09375,
          "durationTicks": 48,
          "midi": 67,
          "name": "G4",
          "ticks": 245880,
          "time": 615.9049375,
          "velocity": 0.7874015748031497
        },
        {
          "duration": 0.09375,
          "durationTicks": 48,
          "midi": 64,
          "name": "E4",
          "ticks": 245940,
          "time": 616.022125,
          "velocity": 0.7874015748031497
        },
        {
          "duration": 0.09375,
          "durationTicks": 48,
          "midi": 71,
          "name": "B4",
          "ticks": 246000,
          "time": 616.1393125,
          "velocity": 0.7874015748031497
        },
        {
          "duration": 0.09375,
          "durationTicks": 48,
          "midi": 67,
          "name": "G4",
          "ticks": 246060,
          "time": 616.2565,
          "velocity": 0.7874015748031497
        },
        {
          "duration": 0.09375,
          "durationTicks": 48,
          "midi": 64,
          "name": "E4",
          "ticks": 246120,
          "time": 616.3736875,
          "velocity": 0.7874015748031497
        },
        {
          "duration": 0.09375,
          "durationTicks": 48,
          "midi": 71,
          "name": "B4",
          "ticks": 246180,
          "time": 616.490875,
          "velocity": 0.7874015748031497
        },
        {
          "duration": 0.09375,
          "durationTicks": 48,
          "midi": 69,
          "name": "A4",
          "ticks": 246240,
          "time": 616.6080625,
          "velocity": 0.7874015748031497
        },
        {
          "duration": 0.09375,
          "durationTicks": 48,
          "midi": 67,
          "name": "G4",
          "ticks": 246300,
          "time": 616.72525,
          "velocity": 0.7874015748031497
        },
        {
          "duration": 0.09375,
          "durationTicks": 48,
          "midi": 74,
          "name": "D5",
          "ticks": 246360,
          "time": 616.8424375,
          "velocity": 0.7874015748031497
        },
        {
          "duration": 0.09375,
          "durationTicks": 48,
          "midi": 69,
          "name": "A4",
          "ticks": 246420,
          "time": 616.959625,
          "velocity": 0.7874015748031497
        },
        {
          "duration": 0.09375,
          "durationTicks": 48,
          "midi": 66,
          "name": "F#4",
          "ticks": 246480,
          "time": 617.0768125,
          "velocity": 0.7874015748031497
        },
        {
          "duration": 0.09375,
          "durationTicks": 48,
          "midi": 69,
          "name": "A4",
          "ticks": 246540,
          "time": 617.194,
          "velocity": 0.7874015748031497
        },
        {
          "duration": 0.09375,
          "durationTicks": 48,
          "midi": 74,
          "name": "D5",
          "ticks": 246600,
          "time": 617.3111875,
          "velocity": 0.7874015748031497
        },
        {
          "duration": 0.09375,
          "durationTicks": 48,
          "midi": 69,
          "name": "A4",
          "ticks": 246660,
          "time": 617.428375,
          "velocity": 0.7874015748031497
        },
        {
          "duration": 0.09375,
          "durationTicks": 48,
          "midi": 81,
          "name": "A5",
          "ticks": 246720,
          "time": 617.5455625,
          "velocity": 0.7874015748031497
        },
        {
          "duration": 0.09375,
          "durationTicks": 48,
          "midi": 78,
          "name": "F#5",
          "ticks": 246780,
          "time": 617.66275,
          "velocity": 0.7874015748031497
        },
        {
          "duration": 0.09375,
          "durationTicks": 48,
          "midi": 74,
          "name": "D5",
          "ticks": 246840,
          "time": 617.7799375,
          "velocity": 0.7874015748031497
        },
        {
          "duration": 0.09375,
          "durationTicks": 48,
          "midi": 78,
          "name": "F#5",
          "ticks": 246900,
          "time": 617.897125,
          "velocity": 0.7874015748031497
        },
        {
          "duration": 0.09375,
          "durationTicks": 48,
          "midi": 76,
          "name": "E5",
          "ticks": 246960,
          "time": 618.0143125,
          "velocity": 0.7874015748031497
        },
        {
          "duration": 0.09375,
          "durationTicks": 48,
          "midi": 74,
          "name": "D5",
          "ticks": 247020,
          "time": 618.1315,
          "velocity": 0.7874015748031497
        },
        {
          "duration": 0.09375,
          "durationTicks": 48,
          "midi": 79,
          "name": "G5",
          "ticks": 247080,
          "time": 618.2486875,
          "velocity": 0.7874015748031497
        },
        {
          "duration": 0.09375,
          "durationTicks": 48,
          "midi": 74,
          "name": "D5",
          "ticks": 247140,
          "time": 618.365875,
          "velocity": 0.7874015748031497
        },
        {
          "duration": 0.09375,
          "durationTicks": 48,
          "midi": 71,
          "name": "B4",
          "ticks": 247200,
          "time": 618.4830625,
          "velocity": 0.7874015748031497
        },
        {
          "duration": 0.09375,
          "durationTicks": 48,
          "midi": 74,
          "name": "D5",
          "ticks": 247260,
          "time": 618.60025,
          "velocity": 0.7874015748031497
        },
        {
          "duration": 0.09375,
          "durationTicks": 48,
          "midi": 79,
          "name": "G5",
          "ticks": 247320,
          "time": 618.7174375,
          "velocity": 0.7874015748031497
        },
        {
          "duration": 0.09375,
          "durationTicks": 48,
          "midi": 74,
          "name": "D5",
          "ticks": 247380,
          "time": 618.834625,
          "velocity": 0.7874015748031497
        },
        {
          "duration": 0.09375,
          "durationTicks": 48,
          "midi": 83,
          "name": "B5",
          "ticks": 247440,
          "time": 618.9518125,
          "velocity": 0.7874015748031497
        },
        {
          "duration": 0.09375,
          "durationTicks": 48,
          "midi": 79,
          "name": "G5",
          "ticks": 247500,
          "time": 619.069,
          "velocity": 0.7874015748031497
        },
        {
          "duration": 0.09375,
          "durationTicks": 48,
          "midi": 74,
          "name": "D5",
          "ticks": 247560,
          "time": 619.1861875,
          "velocity": 0.7874015748031497
        },
        {
          "duration": 0.09375,
          "durationTicks": 48,
          "midi": 77,
          "name": "F5",
          "ticks": 247620,
          "time": 619.303375,
          "velocity": 0.7874015748031497
        },
        {
          "duration": 0.09375,
          "durationTicks": 48,
          "midi": 76,
          "name": "E5",
          "ticks": 247680,
          "time": 619.4205625,
          "velocity": 0.7874015748031497
        },
        {
          "duration": 0.09375,
          "durationTicks": 48,
          "midi": 74,
          "name": "D5",
          "ticks": 247740,
          "time": 619.53775,
          "velocity": 0.7874015748031497
        },
        {
          "duration": 0.09375,
          "durationTicks": 48,
          "midi": 76,
          "name": "E5",
          "ticks": 247800,
          "time": 619.6549375,
          "velocity": 0.7874015748031497
        },
        {
          "duration": 0.09375,
          "durationTicks": 48,
          "midi": 72,
          "name": "C5",
          "ticks": 247860,
          "time": 619.772125,
          "velocity": 0.7874015748031497
        },
        {
          "duration": 0.09375,
          "durationTicks": 48,
          "midi": 67,
          "name": "G4",
          "ticks": 247920,
          "time": 619.8893125,
          "velocity": 0.7874015748031497
        },
        {
          "duration": 0.09375,
          "durationTicks": 48,
          "midi": 72,
          "name": "C5",
          "ticks": 247980,
          "time": 620.0065,
          "velocity": 0.7874015748031497
        },
        {
          "duration": 0.09375,
          "durationTicks": 48,
          "midi": 76,
          "name": "E5",
          "ticks": 248040,
          "time": 620.1236875,
          "velocity": 0.7874015748031497
        },
        {
          "duration": 0.09375,
          "durationTicks": 48,
          "midi": 72,
          "name": "C5",
          "ticks": 248100,
          "time": 620.240875,
          "velocity": 0.7874015748031497
        },
        {
          "duration": 0.10714280000001963,
          "durationTicks": 48,
          "midi": 79,
          "name": "G5",
          "ticks": 248160,
          "time": 620.3580625,
          "velocity": 0.7874015748031497
        },
        {
          "duration": 0.10714280000001963,
          "durationTicks": 48,
          "midi": 76,
          "name": "E5",
          "ticks": 248220,
          "time": 620.491991,
          "velocity": 0.7874015748031497
        },
        {
          "duration": 0.10714279999990595,
          "durationTicks": 48,
          "midi": 72,
          "name": "C5",
          "ticks": 248280,
          "time": 620.6259195,
          "velocity": 0.7874015748031497
        },
        {
          "duration": 0.10714280000001963,
          "durationTicks": 48,
          "midi": 74,
          "name": "D5",
          "ticks": 248340,
          "time": 620.7598479999999,
          "velocity": 0.7874015748031497
        },
        {
          "duration": 0.10714280000001963,
          "durationTicks": 48,
          "midi": 72,
          "name": "C5",
          "ticks": 248400,
          "time": 620.8937765,
          "velocity": 0.7874015748031497
        },
        {
          "duration": 0.10714280000001963,
          "durationTicks": 48,
          "midi": 71,
          "name": "B4",
          "ticks": 248460,
          "time": 621.027705,
          "velocity": 0.7874015748031497
        },
        {
          "duration": 0.10714280000001963,
          "durationTicks": 48,
          "midi": 69,
          "name": "A4",
          "ticks": 248520,
          "time": 621.1616335,
          "velocity": 0.7874015748031497
        },
        {
          "duration": 0.10714280000001963,
          "durationTicks": 48,
          "midi": 66,
          "name": "F#4",
          "ticks": 248580,
          "time": 621.2955619999999,
          "velocity": 0.7874015748031497
        },
        {
          "duration": 0.10714280000001963,
          "durationTicks": 48,
          "midi": 62,
          "name": "D4",
          "ticks": 248640,
          "time": 621.4294904999999,
          "velocity": 0.7874015748031497
        },
        {
          "duration": 0.10714280000001963,
          "durationTicks": 48,
          "midi": 66,
          "name": "F#4",
          "ticks": 248700,
          "time": 621.563419,
          "velocity": 0.7874015748031497
        },
        {
          "duration": 0.10714280000001963,
          "durationTicks": 48,
          "midi": 69,
          "name": "A4",
          "ticks": 248760,
          "time": 621.6973475,
          "velocity": 0.7874015748031497
        },
        {
          "duration": 0.10714279999990595,
          "durationTicks": 48,
          "midi": 66,
          "name": "F#4",
          "ticks": 248820,
          "time": 621.831276,
          "velocity": 0.7874015748031497
        },
        {
          "duration": 0.10714280000001963,
          "durationTicks": 48,
          "midi": 74,
          "name": "D5",
          "ticks": 248880,
          "time": 621.9652044999999,
          "velocity": 0.7874015748031497
        },
        {
          "duration": 0.10714280000001963,
          "durationTicks": 48,
          "midi": 69,
          "name": "A4",
          "ticks": 248940,
          "time": 622.0991329999999,
          "velocity": 0.7874015748031497
        },
        {
          "duration": 0.10714280000001963,
          "durationTicks": 48,
          "midi": 66,
          "name": "F#4",
          "ticks": 249000,
          "time": 622.2330615,
          "velocity": 0.7874015748031497
        },
        {
          "duration": 0.10714280000001963,
          "durationTicks": 48,
          "midi": 69,
          "name": "A4",
          "ticks": 249060,
          "time": 622.36699,
          "velocity": 0.7874015748031497
        },
        {
          "duration": 0.10714279999990595,
          "durationTicks": 48,
          "midi": 67,
          "name": "G4",
          "ticks": 249120,
          "time": 622.5009185,
          "velocity": 0.7874015748031497
        },
        {
          "duration": 0.10714280000001963,
          "durationTicks": 48,
          "midi": 66,
          "name": "F#4",
          "ticks": 249180,
          "time": 622.6348469999999,
          "velocity": 0.7874015748031497
        },
        {
          "duration": 0.10714280000001963,
          "durationTicks": 48,
          "midi": 67,
          "name": "G4",
          "ticks": 249240,
          "time": 622.7687755,
          "velocity": 0.7874015748031497
        },
        {
          "duration": 0.10714280000001963,
          "durationTicks": 48,
          "midi": 62,
          "name": "D4",
          "ticks": 249300,
          "time": 622.902704,
          "velocity": 0.7874015748031497
        },
        {
          "duration": 0.10714280000001963,
          "durationTicks": 48,
          "midi": 59,
          "name": "B3",
          "ticks": 249360,
          "time": 623.0366325,
          "velocity": 0.7874015748031497
        },
        {
          "duration": 0.10714280000001963,
          "durationTicks": 48,
          "midi": 62,
          "name": "D4",
          "ticks": 249420,
          "time": 623.1705609999999,
          "velocity": 0.7874015748031497
        },
        {
          "duration": 0.10714280000001963,
          "durationTicks": 48,
          "midi": 67,
          "name": "G4",
          "ticks": 249480,
          "time": 623.3044894999999,
          "velocity": 0.7874015748031497
        },
        {
          "duration": 0.10714280000001963,
          "durationTicks": 48,
          "midi": 62,
          "name": "D4",
          "ticks": 249540,
          "time": 623.438418,
          "velocity": 0.7874015748031497
        },
        {
          "duration": 0.10714280000001963,
          "durationTicks": 48,
          "midi": 71,
          "name": "B4",
          "ticks": 249600,
          "time": 623.5723465,
          "velocity": 0.7874015748031497
        },
        {
          "duration": 0.10714279999990595,
          "durationTicks": 48,
          "midi": 67,
          "name": "G4",
          "ticks": 249660,
          "time": 623.706275,
          "velocity": 0.7874015748031497
        },
        {
          "duration": 0.10714280000001963,
          "durationTicks": 48,
          "midi": 74,
          "name": "D5",
          "ticks": 249720,
          "time": 623.8402034999999,
          "velocity": 0.7874015748031497
        },
        {
          "duration": 0.10714280000001963,
          "durationTicks": 48,
          "midi": 72,
          "name": "C5",
          "ticks": 249780,
          "time": 623.9741319999999,
          "velocity": 0.7874015748031497
        },
        {
          "duration": 0.10714280000001963,
          "durationTicks": 48,
          "midi": 71,
          "name": "B4",
          "ticks": 249840,
          "time": 624.1080605,
          "velocity": 0.7874015748031497
        },
        {
          "duration": 0.10714280000001963,
          "durationTicks": 48,
          "midi": 69,
          "name": "A4",
          "ticks": 249900,
          "time": 624.241989,
          "velocity": 0.7874015748031497
        },
        {
          "duration": 0.3214283999999452,
          "durationTicks": 144,
          "midi": 67,
          "name": "G4",
          "ticks": 249960,
          "time": 624.3759175,
          "velocity": 0.7874015748031497
        },
        {
          "duration": 0.05357140000000982,
          "durationTicks": 24,
          "midi": 79,
          "name": "G5",
          "ticks": 250140,
          "time": 624.777703,
          "velocity": 0.7874015748031497
        },
        {
          "duration": 0.05357140000000982,
          "durationTicks": 24,
          "midi": 78,
          "name": "F#5",
          "ticks": 250170,
          "time": 624.8446672499999,
          "velocity": 0.7874015748031497
        },
        {
          "duration": 0.3214283999999452,
          "durationTicks": 144,
          "midi": 79,
          "name": "G5",
          "ticks": 250200,
          "time": 624.9116315,
          "velocity": 0.7874015748031497
        },
        {
          "duration": 0.05357140000000982,
          "durationTicks": 24,
          "midi": 73,
          "name": "C#5",
          "ticks": 250380,
          "time": 625.313417,
          "velocity": 0.7874015748031497
        },
        {
          "duration": 0.05357140000000982,
          "durationTicks": 24,
          "midi": 71,
          "name": "B4",
          "ticks": 250410,
          "time": 625.3803812499999,
          "velocity": 0.7874015748031497
        },
        {
          "duration": 0.3214283999999452,
          "durationTicks": 144,
          "midi": 73,
          "name": "C#5",
          "ticks": 250440,
          "time": 625.4473455,
          "velocity": 0.7874015748031497
        },
        {
          "duration": 0.05357140000000982,
          "durationTicks": 24,
          "midi": 66,
          "name": "F#4",
          "ticks": 250620,
          "time": 625.8491309999999,
          "velocity": 0.7874015748031497
        },
        {
          "duration": 0.05357139999989613,
          "durationTicks": 24,
          "midi": 64,
          "name": "E4",
          "ticks": 250650,
          "time": 625.91609525,
          "velocity": 0.7874015748031497
        },
        {
          "duration": 0.3214283999999452,
          "durationTicks": 144,
          "midi": 66,
          "name": "F#4",
          "ticks": 250680,
          "time": 625.9830595,
          "velocity": 0.7874015748031497
        },
        {
          "duration": 0.05357140000000982,
          "durationTicks": 24,
          "midi": 78,
          "name": "F#5",
          "ticks": 250860,
          "time": 626.3848449999999,
          "velocity": 0.7874015748031497
        },
        {
          "duration": 0.05357140000000982,
          "durationTicks": 24,
          "midi": 76,
          "name": "E5",
          "ticks": 250890,
          "time": 626.45180925,
          "velocity": 0.7874015748031497
        },
        {
          "duration": 0.3214284000000589,
          "durationTicks": 144,
          "midi": 78,
          "name": "F#5",
          "ticks": 250920,
          "time": 626.5187735,
          "velocity": 0.7874015748031497
        },
        {
          "duration": 0.05357140000000982,
          "durationTicks": 24,
          "midi": 71,
          "name": "B4",
          "ticks": 251100,
          "time": 626.9205589999999,
          "velocity": 0.7874015748031497
        },
        {
          "duration": 0.05357140000000982,
          "durationTicks": 24,
          "midi": 69,
          "name": "A4",
          "ticks": 251130,
          "time": 626.98752325,
          "velocity": 0.7874015748031497
        },
        {
          "duration": 0.3214284000000589,
          "durationTicks": 144,
          "midi": 71,
          "name": "B4",
          "ticks": 251160,
          "time": 627.0544874999999,
          "velocity": 0.7874015748031497
        },
        {
          "duration": 0.05357139999989613,
          "durationTicks": 24,
          "midi": 64,
          "name": "E4",
          "ticks": 251340,
          "time": 627.456273,
          "velocity": 0.7874015748031497
        },
        {
          "duration": 0.05357140000000982,
          "durationTicks": 24,
          "midi": 62,
          "name": "D4",
          "ticks": 251370,
          "time": 627.52323725,
          "velocity": 0.7874015748031497
        },
        {
          "duration": 0.3214284000000589,
          "durationTicks": 144,
          "midi": 64,
          "name": "E4",
          "ticks": 251400,
          "time": 627.5902014999999,
          "velocity": 0.7874015748031497
        },
        {
          "duration": 0.05357140000000982,
          "durationTicks": 24,
          "midi": 76,
          "name": "E5",
          "ticks": 251580,
          "time": 627.991987,
          "velocity": 0.7874015748031497
        },
        {
          "duration": 0.05357140000000982,
          "durationTicks": 24,
          "midi": 74,
          "name": "D5",
          "ticks": 251610,
          "time": 628.05895125,
          "velocity": 0.7874015748031497
        },
        {
          "duration": 0.3214284000000589,
          "durationTicks": 144,
          "midi": 76,
          "name": "E5",
          "ticks": 251640,
          "time": 628.1259154999999,
          "velocity": 0.7874015748031497
        },
        {
          "duration": 0.05357140000000982,
          "durationTicks": 24,
          "midi": 67,
          "name": "G4",
          "ticks": 251820,
          "time": 628.527701,
          "velocity": 0.7874015748031497
        },
        {
          "duration": 0.05357140000000982,
          "durationTicks": 24,
          "midi": 66,
          "name": "F#4",
          "ticks": 251850,
          "time": 628.5946652499999,
          "velocity": 0.7874015748031497
        },
        {
          "duration": 0.3214283999999452,
          "durationTicks": 144,
          "midi": 67,
          "name": "G4",
          "ticks": 251880,
          "time": 628.6616295,
          "velocity": 0.7874015748031497
        },
        {
          "duration": 0.05357140000000982,
          "durationTicks": 24,
          "midi": 61,
          "name": "C#4",
          "ticks": 252060,
          "time": 629.063415,
          "velocity": 0.7874015748031497
        },
        {
          "duration": 0.05357140000000982,
          "durationTicks": 24,
          "midi": 59,
          "name": "B3",
          "ticks": 252090,
          "time": 629.1303792499999,
          "velocity": 0.7874015748031497
        },
        {
          "duration": 0.3214283999999452,
          "durationTicks": 144,
          "midi": 61,
          "name": "C#4",
          "ticks": 252120,
          "time": 629.1973435,
          "velocity": 0.7874015748031497
        },
        {
          "duration": 0.05357140000000982,
          "durationTicks": 24,
          "midi": 52,
          "name": "E3",
          "ticks": 252300,
          "time": 629.599129,
          "velocity": 0.7874015748031497
        },
        {
          "duration": 0.05357140000000982,
          "durationTicks": 24,
          "midi": 50,
          "name": "D3",
          "ticks": 252330,
          "time": 629.6660932499999,
          "velocity": 0.7874015748031497
        },
        {
          "duration": 0.3214283999999452,
          "durationTicks": 144,
          "midi": 52,
          "name": "E3",
          "ticks": 252360,
          "time": 629.7330575,
          "velocity": 0.7874015748031497
        },
        {
          "duration": 0.05357140000000982,
          "durationTicks": 24,
          "midi": 45,
          "name": "A2",
          "ticks": 252540,
          "time": 630.1348429999999,
          "velocity": 0.7874015748031497
        },
        {
          "duration": 0.05357140000000982,
          "durationTicks": 24,
          "midi": 43,
          "name": "G2",
          "ticks": 252570,
          "time": 630.20180725,
          "velocity": 0.7874015748031497
        },
        {
          "duration": 0.3214284000000589,
          "durationTicks": 144,
          "midi": 45,
          "name": "A2",
          "ticks": 252600,
          "time": 630.2687715,
          "velocity": 0.7874015748031497
        },
        {
          "duration": 0.05357140000000982,
          "durationTicks": 24,
          "midi": 42,
          "name": "F#2",
          "ticks": 252780,
          "time": 630.6705569999999,
          "velocity": 0.7874015748031497
        },
        {
          "duration": 0.05357140000000982,
          "durationTicks": 24,
          "midi": 40,
          "name": "E2",
          "ticks": 252810,
          "time": 630.73752125,
          "velocity": 0.7874015748031497
        },
        {
          "duration": 0.42857119999996485,
          "durationTicks": 192,
          "midi": 42,
          "name": "F#2",
          "ticks": 252840,
          "time": 630.8044854999999,
          "velocity": 0.7874015748031497
        },
        {
          "duration": 0.42857120000007853,
          "durationTicks": 192,
          "midi": 74,
          "name": "D5",
          "ticks": 253080,
          "time": 631.3401994999999,
          "velocity": 0.7874015748031497
        },
        {
          "duration": 0.42857120000007853,
          "durationTicks": 192,
          "midi": 72,
          "name": "C5",
          "ticks": 253320,
          "time": 631.8759134999999,
          "velocity": 0.7874015748031497
        },
        {
          "duration": 0.05357140000000982,
          "durationTicks": 24,
          "midi": 55,
          "name": "G3",
          "ticks": 253590,
          "time": 632.47859175,
          "velocity": 0.7874015748031497
        },
        {
          "duration": 0.05357140000000982,
          "durationTicks": 24,
          "midi": 57,
          "name": "A3",
          "ticks": 253620,
          "time": 632.5455559999999,
          "velocity": 0.7874015748031497
        },
        {
          "duration": 0.05357140000000982,
          "durationTicks": 24,
          "midi": 59,
          "name": "B3",
          "ticks": 253650,
          "time": 632.61252025,
          "velocity": 0.7874015748031497
        },
        {
          "duration": 0.05357140000000982,
          "durationTicks": 24,
          "midi": 62,
          "name": "D4",
          "ticks": 253680,
          "time": 632.6794845,
          "velocity": 0.7874015748031497
        },
        {
          "duration": 0.05357139999989613,
          "durationTicks": 24,
          "midi": 59,
          "name": "B3",
          "ticks": 253710,
          "time": 632.74644875,
          "velocity": 0.7874015748031497
        },
        {
          "duration": 0.05357140000000982,
          "durationTicks": 24,
          "midi": 57,
          "name": "A3",
          "ticks": 253740,
          "time": 632.813413,
          "velocity": 0.7874015748031497
        },
        {
          "duration": 0.05357140000000982,
          "durationTicks": 24,
          "midi": 55,
          "name": "G3",
          "ticks": 253770,
          "time": 632.8803772499999,
          "velocity": 0.7874015748031497
        },
        {
          "duration": 0.05357140000000982,
          "durationTicks": 24,
          "midi": 55,
          "name": "G3",
          "ticks": 253830,
          "time": 633.01430575,
          "velocity": 0.7874015748031497
        },
        {
          "duration": 0.05357140000000982,
          "durationTicks": 24,
          "midi": 57,
          "name": "A3",
          "ticks": 253860,
          "time": 633.0812699999999,
          "velocity": 0.7874015748031497
        },
        {
          "duration": 0.05357140000000982,
          "durationTicks": 24,
          "midi": 58,
          "name": "A#3",
          "ticks": 253890,
          "time": 633.14823425,
          "velocity": 0.7874015748031497
        },
        {
          "duration": 0.05357140000000982,
          "durationTicks": 24,
          "midi": 62,
          "name": "D4",
          "ticks": 253920,
          "time": 633.2151984999999,
          "velocity": 0.7874015748031497
        },
        {
          "duration": 0.05357140000000982,
          "durationTicks": 24,
          "midi": 58,
          "name": "A#3",
          "ticks": 253950,
          "time": 633.28216275,
          "velocity": 0.7874015748031497
        },
        {
          "duration": 0.05357140000000982,
          "durationTicks": 24,
          "midi": 57,
          "name": "A3",
          "ticks": 253980,
          "time": 633.349127,
          "velocity": 0.7874015748031497
        },
        {
          "duration": 0.05357140000000982,
          "durationTicks": 24,
          "midi": 55,
          "name": "G3",
          "ticks": 254010,
          "time": 633.4160912499999,
          "velocity": 0.7874015748031497
        },
        {
          "duration": 0.05357140000000982,
          "durationTicks": 24,
          "midi": 56,
          "name": "G#3",
          "ticks": 254070,
          "time": 633.5500197499999,
          "velocity": 0.7874015748031497
        },
        {
          "duration": 0.05357140000000982,
          "durationTicks": 24,
          "midi": 57,
          "name": "A3",
          "ticks": 254100,
          "time": 633.616984,
          "velocity": 0.7874015748031497
        },
        {
          "duration": 0.05357140000000982,
          "durationTicks": 24,
          "midi": 59,
          "name": "B3",
          "ticks": 254130,
          "time": 633.68394825,
          "velocity": 0.7874015748031497
        },
        {
          "duration": 0.05357140000000982,
          "durationTicks": 24,
          "midi": 62,
          "name": "D4",
          "ticks": 254160,
          "time": 633.7509124999999,
          "velocity": 0.7874015748031497
        },
        {
          "duration": 0.05357140000000982,
          "durationTicks": 24,
          "midi": 59,
          "name": "B3",
          "ticks": 254190,
          "time": 633.81787675,
          "velocity": 0.7874015748031497
        },
        {
          "duration": 0.05357140000000982,
          "durationTicks": 24,
          "midi": 57,
          "name": "A3",
          "ticks": 254220,
          "time": 633.8848409999999,
          "velocity": 0.7874015748031497
        },
        {
          "duration": 0.05357140000000982,
          "durationTicks": 24,
          "midi": 56,
          "name": "G#3",
          "ticks": 254250,
          "time": 633.95180525,
          "velocity": 0.7874015748031497
        },
        {
          "duration": 0.10714280000001963,
          "durationTicks": 48,
          "midi": 57,
          "name": "A3",
          "ticks": 254280,
          "time": 634.0187695,
          "velocity": 0.7874015748031497
        },
        {
          "duration": 0.05357140000000982,
          "durationTicks": 24,
          "midi": 61,
          "name": "C#4",
          "ticks": 254340,
          "time": 634.152698,
          "velocity": 0.7874015748031497
        },
        {
          "duration": 0.05357140000000982,
          "durationTicks": 24,
          "midi": 59,
          "name": "B3",
          "ticks": 254370,
          "time": 634.2196622499999,
          "velocity": 0.7874015748031497
        },
        {
          "duration": 0.10714279999990595,
          "durationTicks": 48,
          "midi": 61,
          "name": "C#4",
          "ticks": 254400,
          "time": 634.2866265,
          "velocity": 0.7874015748031497
        },
        {
          "duration": 0.05357140000000982,
          "durationTicks": 24,
          "midi": 54,
          "name": "F#3",
          "ticks": 254460,
          "time": 634.4205549999999,
          "velocity": 0.7874015748031497
        },
        {
          "duration": 0.05357140000000982,
          "durationTicks": 24,
          "midi": 52,
          "name": "E3",
          "ticks": 254490,
          "time": 634.48751925,
          "velocity": 0.7874015748031497
        },
        {
          "duration": 0.10714280000001963,
          "durationTicks": 48,
          "midi": 54,
          "name": "F#3",
          "ticks": 254520,
          "time": 634.5544835,
          "velocity": 0.7874015748031497
        },
        {
          "duration": 0.05357140000000982,
          "durationTicks": 24,
          "midi": 59,
          "name": "B3",
          "ticks": 254580,
          "time": 634.688412,
          "velocity": 0.7874015748031497
        },
        {
          "duration": 0.05357140000000982,
          "durationTicks": 24,
          "midi": 57,
          "name": "A3",
          "ticks": 254610,
          "time": 634.7553762499999,
          "velocity": 0.7874015748031497
        },
        {
          "duration": 0.10714280000001963,
          "durationTicks": 48,
          "midi": 59,
          "name": "B3",
          "ticks": 254640,
          "time": 634.8223405,
          "velocity": 0.7874015748031497
        },
        {
          "duration": 0.05357140000000982,
          "durationTicks": 24,
          "midi": 52,
          "name": "E3",
          "ticks": 254700,
          "time": 634.9562689999999,
          "velocity": 0.7874015748031497
        },
        {
          "duration": 0.05357140000000982,
          "durationTicks": 24,
          "midi": 50,
          "name": "D3",
          "ticks": 254730,
          "time": 635.02323325,
          "velocity": 0.7874015748031497
        },
        {
          "duration": 0.10714280000001963,
          "durationTicks": 48,
          "midi": 52,
          "name": "E3",
          "ticks": 254760,
          "time": 635.0901974999999,
          "velocity": 0.7874015748031497
        },
        {
          "duration": 0.05357140000000982,
          "durationTicks": 24,
          "midi": 57,
          "name": "A3",
          "ticks": 254820,
          "time": 635.224126,
          "velocity": 0.7874015748031497
        },
        {
          "duration": 0.05357140000000982,
          "durationTicks": 24,
          "midi": 55,
          "name": "G3",
          "ticks": 254850,
          "time": 635.2910902499999,
          "velocity": 0.7874015748031497
        },
        {
          "duration": 0.10714280000001963,
          "durationTicks": 48,
          "midi": 57,
          "name": "A3",
          "ticks": 254880,
          "time": 635.3580545,
          "velocity": 0.7874015748031497
        },
        {
          "duration": 0.05357140000000982,
          "durationTicks": 24,
          "midi": 50,
          "name": "D3",
          "ticks": 254940,
          "time": 635.491983,
          "velocity": 0.7874015748031497
        },
        {
          "duration": 0.05357140000000982,
          "durationTicks": 24,
          "midi": 49,
          "name": "C#3",
          "ticks": 254970,
          "time": 635.55894725,
          "velocity": 0.7874015748031497
        },
        {
          "duration": 0.05357140000000982,
          "durationTicks": 24,
          "midi": 50,
          "name": "D3",
          "ticks": 255000,
          "time": 635.6259114999999,
          "velocity": 0.7874015748031497
        },
        {
          "duration": 0.05357140000000982,
          "durationTicks": 24,
          "midi": 52,
          "name": "E3",
          "ticks": 255030,
          "time": 635.69287575,
          "velocity": 0.7874015748031497
        },
        {
          "duration": 0.05357140000000982,
          "durationTicks": 24,
          "midi": 54,
          "name": "F#3",
          "ticks": 255060,
          "time": 635.7598399999999,
          "velocity": 0.7874015748031497
        },
        {
          "duration": 0.05357139999989613,
          "durationTicks": 24,
          "midi": 55,
          "name": "G3",
          "ticks": 255090,
          "time": 635.82680425,
          "velocity": 0.7874015748031497
        },
        {
          "duration": 0.05357140000000982,
          "durationTicks": 24,
          "midi": 57,
          "name": "A3",
          "ticks": 255120,
          "time": 635.8937685,
          "velocity": 0.7874015748031497
        },
        {
          "duration": 0.05357140000000982,
          "durationTicks": 24,
          "midi": 55,
          "name": "G3",
          "ticks": 255150,
          "time": 635.9607327499999,
          "velocity": 0.7874015748031497
        },
        {
          "duration": 0.05357140000000982,
          "durationTicks": 24,
          "midi": 54,
          "name": "F#3",
          "ticks": 255180,
          "time": 636.027697,
          "velocity": 0.7874015748031497
        },
        {
          "duration": 0.05357140000000982,
          "durationTicks": 24,
          "midi": 52,
          "name": "E3",
          "ticks": 255210,
          "time": 636.09466125,
          "velocity": 0.7874015748031497
        },
        {
          "duration": 0.05357139999989613,
          "durationTicks": 24,
          "midi": 50,
          "name": "D3",
          "ticks": 255240,
          "time": 636.1616255,
          "velocity": 0.7874015748031497
        },
        {
          "duration": 0.05357140000000982,
          "durationTicks": 24,
          "midi": 57,
          "name": "A3",
          "ticks": 255270,
          "time": 636.22858975,
          "velocity": 0.7874015748031497
        },
        {
          "duration": 0.05357140000000982,
          "durationTicks": 24,
          "midi": 54,
          "name": "F#3",
          "ticks": 255300,
          "time": 636.2955539999999,
          "velocity": 0.7874015748031497
        },
        {
          "duration": 0.05357140000000982,
          "durationTicks": 24,
          "midi": 50,
          "name": "D3",
          "ticks": 255330,
          "time": 636.36251825,
          "velocity": 0.7874015748031497
        },
        {
          "duration": 0.05357140000000982,
          "durationTicks": 24,
          "midi": 45,
          "name": "A2",
          "ticks": 255360,
          "time": 636.4294825,
          "velocity": 0.7874015748031497
        },
        {
          "duration": 0.05357140000000982,
          "durationTicks": 24,
          "midi": 50,
          "name": "D3",
          "ticks": 255390,
          "time": 636.4964467499999,
          "velocity": 0.7874015748031497
        },
        {
          "duration": 0.05357140000000982,
          "durationTicks": 24,
          "midi": 45,
          "name": "A2",
          "ticks": 255420,
          "time": 636.563411,
          "velocity": 0.7874015748031497
        },
        {
          "duration": 0.05357140000000982,
          "durationTicks": 24,
          "midi": 42,
          "name": "F#2",
          "ticks": 255450,
          "time": 636.6303752499999,
          "velocity": 0.7874015748031497
        },
        {
          "duration": 0.21428559999992558,
          "durationTicks": 96,
          "midi": 38,
          "name": "D2",
          "ticks": 255480,
          "time": 636.6973395,
          "velocity": 0.7874015748031497
        },
        {
          "duration": 0.42857120000007853,
          "durationTicks": 192,
          "midi": 50,
          "name": "D3",
          "ticks": 255600,
          "time": 636.9651964999999,
          "velocity": 0.7874015748031497
        },
        {
          "duration": 0.05357140000000982,
          "durationTicks": 24,
          "midi": 86,
          "name": "D6",
          "ticks": 255840,
          "time": 637.5009104999999,
          "velocity": 0.7874015748031497
        },
        {
          "duration": 0.05357140000000982,
          "durationTicks": 24,
          "midi": 84,
          "name": "C6",
          "ticks": 255870,
          "time": 637.56787475,
          "velocity": 0.7874015748031497
        },
        {
          "duration": 0.05357140000000982,
          "durationTicks": 24,
          "midi": 86,
          "name": "D6",
          "ticks": 255900,
          "time": 637.6348389999999,
          "velocity": 0.7874015748031497
        },
        {
          "duration": 0.05357139999989613,
          "durationTicks": 24,
          "midi": 84,
          "name": "C6",
          "ticks": 255930,
          "time": 637.70180325,
          "velocity": 0.7874015748031497
        },
        {
          "duration": 0.05357140000000982,
          "durationTicks": 24,
          "midi": 86,
          "name": "D6",
          "ticks": 255960,
          "time": 637.7687675,
          "velocity": 0.7874015748031497
        },
        {
          "duration": 0.05357140000000982,
          "durationTicks": 24,
          "midi": 84,
          "name": "C6",
          "ticks": 255990,
          "time": 637.8357317499999,
          "velocity": 0.7874015748031497
        },
        {
          "duration": 0.05357140000000982,
          "durationTicks": 24,
          "midi": 86,
          "name": "D6",
          "ticks": 256020,
          "time": 637.902696,
          "velocity": 0.7874015748031497
        },
        {
          "duration": 0.05357140000000982,
          "durationTicks": 24,
          "midi": 84,
          "name": "C6",
          "ticks": 256050,
          "time": 637.96966025,
          "velocity": 0.7874015748031497
        },
        {
          "duration": 0.05357139999989613,
          "durationTicks": 24,
          "midi": 86,
          "name": "D6",
          "ticks": 256080,
          "time": 638.0366245,
          "velocity": 0.7874015748031497
        },
        {
          "duration": 0.05357140000000982,
          "durationTicks": 24,
          "midi": 84,
          "name": "C6",
          "ticks": 256110,
          "time": 638.10358875,
          "velocity": 0.7874015748031497
        },
        {
          "duration": 0.05357140000000982,
          "durationTicks": 24,
          "midi": 86,
          "name": "D6",
          "ticks": 256140,
          "time": 638.1705529999999,
          "velocity": 0.7874015748031497
        },
        {
          "duration": 0.05357140000000982,
          "durationTicks": 24,
          "midi": 84,
          "name": "C6",
          "ticks": 256170,
          "time": 638.23751725,
          "velocity": 0.7874015748031497
        },
        {
          "duration": 0.05357140000000982,
          "durationTicks": 24,
          "midi": 86,
          "name": "D6",
          "ticks": 256200,
          "time": 638.3044815,
          "velocity": 0.7874015748031497
        },
        {
          "duration": 0.05357140000000982,
          "durationTicks": 24,
          "midi": 84,
          "name": "C6",
          "ticks": 256230,
          "time": 638.3714457499999,
          "velocity": 0.7874015748031497
        },
        {
          "duration": 0.05357140000000982,
          "durationTicks": 24,
          "midi": 83,
          "name": "B5",
          "ticks": 256260,
          "time": 638.43841,
          "velocity": 0.7874015748031497
        },
        {
          "duration": 0.05357140000000982,
          "durationTicks": 24,
          "midi": 84,
          "name": "C6",
          "ticks": 256290,
          "time": 638.5053742499999,
          "velocity": 0.7874015748031497
        },
        {
          "duration": 0.42857119999996485,
          "durationTicks": 192,
          "midi": 83,
          "name": "B5",
          "ticks": 256320,
          "time": 638.5723385,
          "velocity": 0.7874015748031497
        },
        {
          "duration": 0.03571426666667321,
          "durationTicks": 16,
          "midi": 64,
          "name": "E4",
          "ticks": 256560,
          "time": 639.1080525,
          "velocity": 0.7874015748031497
        },
        {
          "duration": 0.03571426666667321,
          "durationTicks": 16,
          "midi": 65,
          "name": "F4",
          "ticks": 256580,
          "time": 639.1526953333333,
          "velocity": 0.7874015748031497
        },
        {
          "duration": 0.03571426666667321,
          "durationTicks": 16,
          "midi": 67,
          "name": "G4",
          "ticks": 256600,
          "time": 639.1973381666667,
          "velocity": 0.7874015748031497
        },
        {
          "duration": 0.5089282999999796,
          "durationTicks": 228,
          "midi": 65,
          "name": "F4",
          "ticks": 256620,
          "time": 639.241981,
          "velocity": 0.7874015748031497
        },
        {
          "duration": 0.10714280000001963,
          "durationTicks": 48,
          "midi": 69,
          "name": "A4",
          "ticks": 256860,
          "time": 639.777695,
          "velocity": 0.7874015748031497
        },
        {
          "duration": 0.10714280000001963,
          "durationTicks": 48,
          "midi": 67,
          "name": "G4",
          "ticks": 256920,
          "time": 639.9116234999999,
          "velocity": 0.7874015748031497
        },
        {
          "duration": 0.10714280000001963,
          "durationTicks": 48,
          "midi": 65,
          "name": "F4",
          "ticks": 256980,
          "time": 640.0455519999999,
          "velocity": 0.7874015748031497
        },
        {
          "duration": 0.42857119999996485,
          "durationTicks": 192,
          "midi": 64,
          "name": "E4",
          "ticks": 257040,
          "time": 640.1794805,
          "velocity": 0.7874015748031497
        },
        {
          "duration": 0.21428560000003927,
          "durationTicks": 96,
          "midi": 78,
          "name": "F#5",
          "ticks": 257280,
          "time": 640.7151944999999,
          "velocity": 0.7874015748031497
        },
        {
          "duration": 0.21428559999992558,
          "durationTicks": 96,
          "midi": 81,
          "name": "A5",
          "ticks": 257400,
          "time": 640.9830515,
          "velocity": 0.7874015748031497
        },
        {
          "duration": 0.21428560000003927,
          "durationTicks": 96,
          "midi": 75,
          "name": "D#5",
          "ticks": 257520,
          "time": 641.2509084999999,
          "velocity": 0.7874015748031497
        },
        {
          "duration": 0.10714280000001963,
          "durationTicks": 48,
          "midi": 76,
          "name": "E5",
          "ticks": 257640,
          "time": 641.5187655,
          "velocity": 0.7874015748031497
        },
        {
          "duration": 0.10714280000001963,
          "durationTicks": 48,
          "midi": 78,
          "name": "F#5",
          "ticks": 257700,
          "time": 641.652694,
          "velocity": 0.7874015748031497
        },
        {
          "duration": 0.42857120000007853,
          "durationTicks": 192,
          "midi": 71,
          "name": "B4",
          "ticks": 257760,
          "time": 641.7866224999999,
          "velocity": 0.7874015748031497
        },
        {
          "duration": 0.05357140000000982,
          "durationTicks": 24,
          "midi": 43,
          "name": "G2",
          "ticks": 258000,
          "time": 642.3223365,
          "velocity": 0.7874015748031497
        },
        {
          "duration": 0.05357140000000982,
          "durationTicks": 24,
          "midi": 45,
          "name": "A2",
          "ticks": 258030,
          "time": 642.38930075,
          "velocity": 0.7874015748031497
        },
        {
          "duration": 0.05357140000000982,
          "durationTicks": 24,
          "midi": 47,
          "name": "B2",
          "ticks": 258060,
          "time": 642.4562649999999,
          "velocity": 0.7874015748031497
        },
        {
          "duration": 0.05357140000000982,
          "durationTicks": 24,
          "midi": 45,
          "name": "A2",
          "ticks": 258090,
          "time": 642.52322925,
          "velocity": 0.7874015748031497
        },
        {
          "duration": 0.05357140000000982,
          "durationTicks": 24,
          "midi": 47,
          "name": "B2",
          "ticks": 258120,
          "time": 642.5901934999999,
          "velocity": 0.7874015748031497
        },
        {
          "duration": 0.05357139999989613,
          "durationTicks": 24,
          "midi": 45,
          "name": "A2",
          "ticks": 258150,
          "time": 642.65715775,
          "velocity": 0.7874015748031497
        },
        {
          "duration": 0.05357140000000982,
          "durationTicks": 24,
          "midi": 47,
          "name": "B2",
          "ticks": 258180,
          "time": 642.724122,
          "velocity": 0.7874015748031497
        },
        {
          "duration": 0.05357140000000982,
          "durationTicks": 24,
          "midi": 45,
          "name": "A2",
          "ticks": 258210,
          "time": 642.7910862499999,
          "velocity": 0.7874015748031497
        },
        {
          "duration": 0.05357140000000982,
          "durationTicks": 24,
          "midi": 47,
          "name": "B2",
          "ticks": 258240,
          "time": 642.8580505,
          "velocity": 0.7874015748031497
        },
        {
          "duration": 0.05357140000000982,
          "durationTicks": 24,
          "midi": 45,
          "name": "A2",
          "ticks": 258270,
          "time": 642.92501475,
          "velocity": 0.7874015748031497
        },
        {
          "duration": 0.05357139999989613,
          "durationTicks": 24,
          "midi": 47,
          "name": "B2",
          "ticks": 258300,
          "time": 642.991979,
          "velocity": 0.7874015748031497
        },
        {
          "duration": 0.05357140000000982,
          "durationTicks": 24,
          "midi": 45,
          "name": "A2",
          "ticks": 258330,
          "time": 643.05894325,
          "velocity": 0.7874015748031497
        },
        {
          "duration": 0.05357140000000982,
          "durationTicks": 24,
          "midi": 47,
          "name": "B2",
          "ticks": 258360,
          "time": 643.1259074999999,
          "velocity": 0.7874015748031497
        },
        {
          "duration": 0.05357140000000982,
          "durationTicks": 24,
          "midi": 45,
          "name": "A2",
          "ticks": 258390,
          "time": 643.19287175,
          "velocity": 0.7874015748031497
        },
        {
          "duration": 0.05357140000000982,
          "durationTicks": 24,
          "midi": 43,
          "name": "G2",
          "ticks": 258420,
          "time": 643.259836,
          "velocity": 0.7874015748031497
        },
        {
          "duration": 0.05357140000000982,
          "durationTicks": 24,
          "midi": 45,
          "name": "A2",
          "ticks": 258450,
          "time": 643.3268002499999,
          "velocity": 0.7874015748031497
        },
        {
          "duration": 0.21428560000003927,
          "durationTicks": 96,
          "midi": 43,
          "name": "G2",
          "ticks": 258480,
          "time": 643.3937645,
          "velocity": 0.7874015748031497
        },
        {
          "duration": 0.10714280000001963,
          "durationTicks": 48,
          "midi": 28,
          "name": "E1",
          "ticks": 258600,
          "time": 643.6616214999999,
          "velocity": 0.7874015748031497
        },
        {
          "duration": 0.10714280000001963,
          "durationTicks": 48,
          "midi": 40,
          "name": "E2",
          "ticks": 258600,
          "time": 643.6616214999999,
          "velocity": 0.7874015748031497
        },
        {
          "duration": 0.10714280000001963,
          "durationTicks": 48,
          "midi": 30,
          "name": "F#1",
          "ticks": 258660,
          "time": 643.7955499999999,
          "velocity": 0.7874015748031497
        },
        {
          "duration": 0.10714280000001963,
          "durationTicks": 48,
          "midi": 42,
          "name": "F#2",
          "ticks": 258660,
          "time": 643.7955499999999,
          "velocity": 0.7874015748031497
        },
        {
          "duration": 0.10714280000001963,
          "durationTicks": 48,
          "midi": 31,
          "name": "G1",
          "ticks": 258720,
          "time": 643.9294785,
          "velocity": 0.7874015748031497
        },
        {
          "duration": 0.10714280000001963,
          "durationTicks": 48,
          "midi": 43,
          "name": "G2",
          "ticks": 258720,
          "time": 643.9294785,
          "velocity": 0.7874015748031497
        },
        {
          "duration": 0.10714280000001963,
          "durationTicks": 48,
          "midi": 33,
          "name": "A1",
          "ticks": 258780,
          "time": 644.063407,
          "velocity": 0.7874015748031497
        },
        {
          "duration": 0.10714280000001963,
          "durationTicks": 48,
          "midi": 45,
          "name": "A2",
          "ticks": 258780,
          "time": 644.063407,
          "velocity": 0.7874015748031497
        },
        {
          "duration": 0.21428559999992558,
          "durationTicks": 96,
          "midi": 35,
          "name": "B1",
          "ticks": 258840,
          "time": 644.1973355,
          "velocity": 0.7874015748031497
        },
        {
          "duration": 0.21428559999992558,
          "durationTicks": 96,
          "midi": 47,
          "name": "B2",
          "ticks": 258840,
          "time": 644.1973355,
          "velocity": 0.7874015748031497
        },
        {
          "duration": 0.21428559999992558,
          "durationTicks": 96,
          "midi": 28,
          "name": "E1",
          "ticks": 259080,
          "time": 644.7330495,
          "velocity": 0.7874015748031497
        },
        {
          "duration": 0.21428559999992558,
          "durationTicks": 96,
          "midi": 40,
          "name": "E2",
          "ticks": 259080,
          "time": 644.7330495,
          "velocity": 0.7874015748031497
        },
        {
          "duration": 0.10714280000001963,
          "durationTicks": 48,
          "midi": 33,
          "name": "A1",
          "ticks": 259200,
          "time": 645.0009064999999,
          "velocity": 0.7874015748031497
        },
        {
          "duration": 0.10714280000001963,
          "durationTicks": 48,
          "midi": 45,
          "name": "A2",
          "ticks": 259200,
          "time": 645.0009064999999,
          "velocity": 0.7874015748031497
        },
        {
          "duration": 0.10714280000001963,
          "durationTicks": 48,
          "midi": 32,
          "name": "G#1",
          "ticks": 259260,
          "time": 645.134835,
          "velocity": 0.7874015748031497
        },
        {
          "duration": 0.10714280000001963,
          "durationTicks": 48,
          "midi": 44,
          "name": "G#2",
          "ticks": 259260,
          "time": 645.134835,
          "velocity": 0.7874015748031497
        },
        {
          "duration": 0.21428560000003927,
          "durationTicks": 96,
          "midi": 33,
          "name": "A1",
          "ticks": 259320,
          "time": 645.2687635,
          "velocity": 0.7874015748031497
        },
        {
          "duration": 0.21428560000003927,
          "durationTicks": 96,
          "midi": 45,
          "name": "A2",
          "ticks": 259320,
          "time": 645.2687635,
          "velocity": 0.7874015748031497
        },
        {
          "duration": 0.21428560000003927,
          "durationTicks": 96,
          "midi": 36,
          "name": "C2",
          "ticks": 259560,
          "time": 645.8044775,
          "velocity": 0.7874015748031497
        },
        {
          "duration": 0.21428560000003927,
          "durationTicks": 96,
          "midi": 48,
          "name": "C3",
          "ticks": 259560,
          "time": 645.8044775,
          "velocity": 0.7874015748031497
        },
        {
          "duration": 0.21428559999992558,
          "durationTicks": 96,
          "midi": 35,
          "name": "B1",
          "ticks": 259680,
          "time": 646.0723345,
          "velocity": 0.7874015748031497
        },
        {
          "duration": 0.21428559999992558,
          "durationTicks": 96,
          "midi": 47,
          "name": "B2",
          "ticks": 259680,
          "time": 646.0723345,
          "velocity": 0.7874015748031497
        },
        {
          "duration": 0.21428560000003927,
          "durationTicks": 96,
          "midi": 33,
          "name": "A1",
          "ticks": 259800,
          "time": 646.3401915,
          "velocity": 0.7874015748031497
        },
        {
          "duration": 0.21428560000003927,
          "durationTicks": 96,
          "midi": 45,
          "name": "A2",
          "ticks": 259800,
          "time": 646.3401915,
          "velocity": 0.7874015748031497
        },
        {
          "duration": 0.10714280000001963,
          "durationTicks": 48,
          "midi": 35,
          "name": "B1",
          "ticks": 259920,
          "time": 646.6080485,
          "velocity": 0.7874015748031497
        },
        {
          "duration": 0.10714280000001963,
          "durationTicks": 48,
          "midi": 47,
          "name": "B2",
          "ticks": 259920,
          "time": 646.6080485,
          "velocity": 0.7874015748031497
        },
        {
          "duration": 0.10714280000001963,
          "durationTicks": 48,
          "midi": 37,
          "name": "C#2",
          "ticks": 259980,
          "time": 646.7419769999999,
          "velocity": 0.7874015748031497
        },
        {
          "duration": 0.10714280000001963,
          "durationTicks": 48,
          "midi": 49,
          "name": "C#3",
          "ticks": 259980,
          "time": 646.7419769999999,
          "velocity": 0.7874015748031497
        },
        {
          "duration": 0.10714280000001963,
          "durationTicks": 48,
          "midi": 39,
          "name": "D#2",
          "ticks": 260040,
          "time": 646.8759054999999,
          "velocity": 0.7874015748031497
        },
        {
          "duration": 0.10714280000001963,
          "durationTicks": 48,
          "midi": 51,
          "name": "D#3",
          "ticks": 260040,
          "time": 646.8759054999999,
          "velocity": 0.7874015748031497
        },
        {
          "duration": 0.10714280000001963,
          "durationTicks": 48,
          "midi": 40,
          "name": "E2",
          "ticks": 260100,
          "time": 647.009834,
          "velocity": 0.7874015748031497
        },
        {
          "duration": 0.10714280000001963,
          "durationTicks": 48,
          "midi": 52,
          "name": "E3",
          "ticks": 260100,
          "time": 647.009834,
          "velocity": 0.7874015748031497
        },
        {
          "duration": 0.21428559999992558,
          "durationTicks": 96,
          "midi": 42,
          "name": "F#2",
          "ticks": 260160,
          "time": 647.1437625,
          "velocity": 0.7874015748031497
        },
        {
          "duration": 0.21428559999992558,
          "durationTicks": 96,
          "midi": 54,
          "name": "F#3",
          "ticks": 260160,
          "time": 647.1437625,
          "velocity": 0.7874015748031497
        },
        {
          "duration": 0.21428560000003927,
          "durationTicks": 96,
          "midi": 47,
          "name": "B2",
          "ticks": 260280,
          "time": 647.4116194999999,
          "velocity": 0.7874015748031497
        },
        {
          "duration": 0.21428560000003927,
          "durationTicks": 96,
          "midi": 59,
          "name": "B3",
          "ticks": 260280,
          "time": 647.4116194999999,
          "velocity": 0.7874015748031497
        },
        {
          "duration": 0.10714279999990595,
          "durationTicks": 48,
          "midi": 64,
          "name": "E4",
          "ticks": 260520,
          "time": 647.9473335,
          "velocity": 0.7874015748031497
        },
        {
          "duration": 0.10714280000001963,
          "durationTicks": 48,
          "midi": 63,
          "name": "D#4",
          "ticks": 260580,
          "time": 648.0812619999999,
          "velocity": 0.7874015748031497
        },
        {
          "duration": 0.21428560000003927,
          "durationTicks": 96,
          "midi": 64,
          "name": "E4",
          "ticks": 260640,
          "time": 648.2151905,
          "velocity": 0.7874015748031497
        },
        {
          "duration": 0.21428559999992558,
          "durationTicks": 96,
          "midi": 67,
          "name": "G4",
          "ticks": 260760,
          "time": 648.4830475,
          "velocity": 0.7874015748031497
        },
        {
          "duration": 0.21428560000003927,
          "durationTicks": 96,
          "midi": 71,
          "name": "B4",
          "ticks": 260880,
          "time": 648.7509044999999,
          "velocity": 0.7874015748031497
        },
        {
          "duration": 0.10714280000001963,
          "durationTicks": 48,
          "midi": 76,
          "name": "E5",
          "ticks": 261000,
          "time": 649.0187615,
          "velocity": 0.7874015748031497
        },
        {
          "duration": 0.10714279999990595,
          "durationTicks": 48,
          "midi": 75,
          "name": "D#5",
          "ticks": 261060,
          "time": 649.15269,
          "velocity": 0.7874015748031497
        },
        {
          "duration": 0.21428560000003927,
          "durationTicks": 96,
          "midi": 76,
          "name": "E5",
          "ticks": 261120,
          "time": 649.2866184999999,
          "velocity": 0.7874015748031497
        },
        {
          "duration": 0.05357140000000982,
          "durationTicks": 24,
          "midi": 48,
          "name": "C3",
          "ticks": 261420,
          "time": 649.9562609999999,
          "velocity": 0.7874015748031497
        },
        {
          "duration": 0.05357140000000982,
          "durationTicks": 24,
          "midi": 47,
          "name": "B2",
          "ticks": 261450,
          "time": 650.02322525,
          "velocity": 0.7874015748031497
        },
        {
          "duration": 0.21428560000003927,
          "durationTicks": 96,
          "midi": 48,
          "name": "C3",
          "ticks": 261480,
          "time": 650.0901895,
          "velocity": 0.7874015748031497
        },
        {
          "duration": 0.05357140000000982,
          "durationTicks": 24,
          "midi": 57,
          "name": "A3",
          "ticks": 261660,
          "time": 650.4919749999999,
          "velocity": 0.7874015748031497
        },
        {
          "duration": 0.05357140000000982,
          "durationTicks": 24,
          "midi": 56,
          "name": "G#3",
          "ticks": 261690,
          "time": 650.55893925,
          "velocity": 0.7874015748031497
        },
        {
          "duration": 0.21428560000003927,
          "durationTicks": 96,
          "midi": 57,
          "name": "A3",
          "ticks": 261720,
          "time": 650.6259034999999,
          "velocity": 0.7874015748031497
        },
        {
          "duration": 0.05357140000000982,
          "durationTicks": 24,
          "midi": 64,
          "name": "E4",
          "ticks": 261900,
          "time": 651.027689,
          "velocity": 0.7874015748031497
        },
        {
          "duration": 0.05357140000000982,
          "durationTicks": 24,
          "midi": 62,
          "name": "D4",
          "ticks": 261930,
          "time": 651.09465325,
          "velocity": 0.7874015748031497
        },
        {
          "duration": 0.21428560000003927,
          "durationTicks": 96,
          "midi": 64,
          "name": "E4",
          "ticks": 261960,
          "time": 651.1616174999999,
          "velocity": 0.7874015748031497
        },
        {
          "duration": 0.05357140000000982,
          "durationTicks": 24,
          "midi": 47,
          "name": "B2",
          "ticks": 262140,
          "time": 651.563403,
          "velocity": 0.7874015748031497
        },
        {
          "duration": 0.05357140000000982,
          "durationTicks": 24,
          "midi": 45,
          "name": "A2",
          "ticks": 262170,
          "time": 651.63036725,
          "velocity": 0.7874015748031497
        },
        {
          "duration": 0.21428559999992558,
          "durationTicks": 96,
          "midi": 47,
          "name": "B2",
          "ticks": 262200,
          "time": 651.6973315,
          "velocity": 0.7874015748031497
        },
        {
          "duration": 0.05357140000000982,
          "durationTicks": 24,
          "midi": 55,
          "name": "G3",
          "ticks": 262380,
          "time": 652.099117,
          "velocity": 0.7874015748031497
        },
        {
          "duration": 0.05357140000000982,
          "durationTicks": 24,
          "midi": 54,
          "name": "F#3",
          "ticks": 262410,
          "time": 652.1660812499999,
          "velocity": 0.7874015748031497
        },
        {
          "duration": 0.21428559999992558,
          "durationTicks": 96,
          "midi": 55,
          "name": "G3",
          "ticks": 262440,
          "time": 652.2330455,
          "velocity": 0.7874015748031497
        },
        {
          "duration": 0.05357140000000982,
          "durationTicks": 24,
          "midi": 62,
          "name": "D4",
          "ticks": 262620,
          "time": 652.634831,
          "velocity": 0.7874015748031497
        },
        {
          "duration": 0.05357140000000982,
          "durationTicks": 24,
          "midi": 60,
          "name": "C4",
          "ticks": 262650,
          "time": 652.7017952499999,
          "velocity": 0.7874015748031497
        },
        {
          "duration": 0.21428559999992558,
          "durationTicks": 96,
          "midi": 62,
          "name": "D4",
          "ticks": 262680,
          "time": 652.7687595,
          "velocity": 0.7874015748031497
        },
        {
          "duration": 0.05357140000000982,
          "durationTicks": 24,
          "midi": 45,
          "name": "A2",
          "ticks": 262860,
          "time": 653.170545,
          "velocity": 0.7874015748031497
        },
        {
          "duration": 0.05357140000000982,
          "durationTicks": 24,
          "midi": 43,
          "name": "G2",
          "ticks": 262890,
          "time": 653.2375092499999,
          "velocity": 0.7874015748031497
        },
        {
          "duration": 0.21428560000003927,
          "durationTicks": 96,
          "midi": 45,
          "name": "A2",
          "ticks": 262920,
          "time": 653.3044735,
          "velocity": 0.7874015748031497
        },
        {
          "duration": 0.05357140000000982,
          "durationTicks": 24,
          "midi": 52,
          "name": "E3",
          "ticks": 263100,
          "time": 653.7062589999999,
          "velocity": 0.7874015748031497
        },
        {
          "duration": 0.05357140000000982,
          "durationTicks": 24,
          "midi": 50,
          "name": "D3",
          "ticks": 263130,
          "time": 653.77322325,
          "velocity": 0.7874015748031497
        },
        {
          "duration": 0.21428560000003927,
          "durationTicks": 96,
          "midi": 52,
          "name": "E3",
          "ticks": 263160,
          "time": 653.8401875,
          "velocity": 0.7874015748031497
        },
        {
          "duration": 0.05357140000000982,
          "durationTicks": 24,
          "midi": 60,
          "name": "C4",
          "ticks": 263340,
          "time": 654.2419729999999,
          "velocity": 0.7874015748031497
        },
        {
          "duration": 0.05357140000000982,
          "durationTicks": 24,
          "midi": 59,
          "name": "B3",
          "ticks": 263370,
          "time": 654.30893725,
          "velocity": 0.7874015748031497
        },
        {
          "duration": 0.21428560000003927,
          "durationTicks": 96,
          "midi": 60,
          "name": "C4",
          "ticks": 263400,
          "time": 654.3759014999999,
          "velocity": 0.7874015748031497
        },
        {
          "duration": 0.05357139999989613,
          "durationTicks": 24,
          "midi": 69,
          "name": "A4",
          "ticks": 263580,
          "time": 654.777687,
          "velocity": 0.7874015748031497
        },
        {
          "duration": 0.05357140000000982,
          "durationTicks": 24,
          "midi": 67,
          "name": "G4",
          "ticks": 263610,
          "time": 654.84465125,
          "velocity": 0.7874015748031497
        },
        {
          "duration": 0.21428560000003927,
          "durationTicks": 96,
          "midi": 69,
          "name": "A4",
          "ticks": 263640,
          "time": 654.9116154999999,
          "velocity": 0.7874015748031497
        },
        {
          "duration": 0.05357140000000982,
          "durationTicks": 24,
          "midi": 78,
          "name": "F#5",
          "ticks": 263820,
          "time": 655.313401,
          "velocity": 0.7874015748031497
        },
        {
          "duration": 0.05357140000000982,
          "durationTicks": 24,
          "midi": 76,
          "name": "E5",
          "ticks": 263850,
          "time": 655.38036525,
          "velocity": 0.7874015748031497
        },
        {
          "duration": 0.21428560000003927,
          "durationTicks": 96,
          "midi": 78,
          "name": "F#5",
          "ticks": 263880,
          "time": 655.4473294999999,
          "velocity": 0.7874015748031497
        },
        {
          "duration": 0.05357140000000982,
          "durationTicks": 24,
          "midi": 81,
          "name": "A5",
          "ticks": 264060,
          "time": 655.849115,
          "velocity": 0.7874015748031497
        },
        {
          "duration": 0.05357140000000982,
          "durationTicks": 24,
          "midi": 79,
          "name": "G5",
          "ticks": 264090,
          "time": 655.9160792499999,
          "velocity": 0.7874015748031497
        },
        {
          "duration": 0.21428559999992558,
          "durationTicks": 96,
          "midi": 81,
          "name": "A5",
          "ticks": 264120,
          "time": 655.9830435,
          "velocity": 0.7874015748031497
        },
        {
          "duration": 0.05357139999989613,
          "durationTicks": 24,
          "midi": 67,
          "name": "G4",
          "ticks": 264270,
          "time": 656.31786475,
          "velocity": 0.7874015748031497
        },
        {
          "duration": 0.05357140000000982,
          "durationTicks": 24,
          "midi": 69,
          "name": "A4",
          "ticks": 264300,
          "time": 656.384829,
          "velocity": 0.7874015748031497
        },
        {
          "duration": 0.05357140000000982,
          "durationTicks": 24,
          "midi": 71,
          "name": "B4",
          "ticks": 264330,
          "time": 656.4517932499999,
          "velocity": 0.7874015748031497
        },
        {
          "duration": 0.05357140000000982,
          "durationTicks": 24,
          "midi": 74,
          "name": "D5",
          "ticks": 264360,
          "time": 656.5187575,
          "velocity": 0.7874015748031497
        },
        {
          "duration": 0.05357140000000982,
          "durationTicks": 24,
          "midi": 71,
          "name": "B4",
          "ticks": 264390,
          "time": 656.58572175,
          "velocity": 0.7874015748031497
        },
        {
          "duration": 0.05357140000000982,
          "durationTicks": 24,
          "midi": 69,
          "name": "A4",
          "ticks": 264420,
          "time": 656.6526859999999,
          "velocity": 0.7874015748031497
        },
        {
          "duration": 0.05357140000000982,
          "durationTicks": 24,
          "midi": 67,
          "name": "G4",
          "ticks": 264450,
          "time": 656.71965025,
          "velocity": 0.7874015748031497
        },
        {
          "duration": 0.05357140000000982,
          "durationTicks": 24,
          "midi": 67,
          "name": "G4",
          "ticks": 264510,
          "time": 656.85357875,
          "velocity": 0.7874015748031497
        },
        {
          "duration": 0.05357140000000982,
          "durationTicks": 24,
          "midi": 69,
          "name": "A4",
          "ticks": 264540,
          "time": 656.920543,
          "velocity": 0.7874015748031497
        },
        {
          "duration": 0.05357140000000982,
          "durationTicks": 24,
          "midi": 71,
          "name": "B4",
          "ticks": 264570,
          "time": 656.9875072499999,
          "velocity": 0.7874015748031497
        },
        {
          "duration": 0.05357140000000982,
          "durationTicks": 24,
          "midi": 74,
          "name": "D5",
          "ticks": 264600,
          "time": 657.0544715,
          "velocity": 0.7874015748031497
        },
        {
          "duration": 0.05357140000000982,
          "durationTicks": 24,
          "midi": 71,
          "name": "B4",
          "ticks": 264630,
          "time": 657.1214357499999,
          "velocity": 0.7874015748031497
        },
        {
          "duration": 0.05357140000000982,
          "durationTicks": 24,
          "midi": 69,
          "name": "A4",
          "ticks": 264660,
          "time": 657.1884,
          "velocity": 0.7874015748031497
        },
        {
          "duration": 0.05357140000000982,
          "durationTicks": 24,
          "midi": 67,
          "name": "G4",
          "ticks": 264690,
          "time": 657.25536425,
          "velocity": 0.7874015748031497
        },
        {
          "duration": 0.05357140000000982,
          "durationTicks": 24,
          "midi": 67,
          "name": "G4",
          "ticks": 264750,
          "time": 657.38929275,
          "velocity": 0.7874015748031497
        },
        {
          "duration": 0.05357140000000982,
          "durationTicks": 24,
          "midi": 69,
          "name": "A4",
          "ticks": 264780,
          "time": 657.4562569999999,
          "velocity": 0.7874015748031497
        },
        {
          "duration": 0.05357140000000982,
          "durationTicks": 24,
          "midi": 71,
          "name": "B4",
          "ticks": 264810,
          "time": 657.52322125,
          "velocity": 0.7874015748031497
        },
        {
          "duration": 0.05357140000000982,
          "durationTicks": 24,
          "midi": 74,
          "name": "D5",
          "ticks": 264840,
          "time": 657.5901855,
          "velocity": 0.7874015748031497
        },
        {
          "duration": 0.05357140000000982,
          "durationTicks": 24,
          "midi": 71,
          "name": "B4",
          "ticks": 264870,
          "time": 657.6571497499999,
          "velocity": 0.7874015748031497
        },
        {
          "duration": 0.05357140000000982,
          "durationTicks": 24,
          "midi": 69,
          "name": "A4",
          "ticks": 264900,
          "time": 657.724114,
          "velocity": 0.7874015748031497
        },
        {
          "duration": 0.05357140000000982,
          "durationTicks": 24,
          "midi": 67,
          "name": "G4",
          "ticks": 264930,
          "time": 657.7910782499999,
          "velocity": 0.7874015748031497
        },
        {
          "duration": 0.42857119999996485,
          "durationTicks": 192,
          "midi": 72,
          "name": "C5",
          "ticks": 264960,
          "time": 657.8580425,
          "velocity": 0.7874015748031497
        },
        {
          "duration": 0.42857119999996485,
          "durationTicks": 192,
          "midi": 57,
          "name": "A3",
          "ticks": 265200,
          "time": 658.3937565,
          "velocity": 0.7874015748031497
        },
        {
          "duration": 0.42857119999996485,
          "durationTicks": 192,
          "midi": 52,
          "name": "E3",
          "ticks": 265440,
          "time": 658.9294705,
          "velocity": 0.7874015748031497
        },
        {
          "duration": 0.10714280000001963,
          "durationTicks": 48,
          "midi": 54,
          "name": "F#3",
          "ticks": 265680,
          "time": 659.4651845,
          "velocity": 0.7874015748031497
        },
        {
          "duration": 0.05357140000000982,
          "durationTicks": 24,
          "midi": 57,
          "name": "A3",
          "ticks": 265740,
          "time": 659.599113,
          "velocity": 0.7874015748031497
        },
        {
          "duration": 0.05357140000000982,
          "durationTicks": 24,
          "midi": 55,
          "name": "G3",
          "ticks": 265770,
          "time": 659.66607725,
          "velocity": 0.7874015748031497
        },
        {
          "duration": 0.10714279999990595,
          "durationTicks": 48,
          "midi": 57,
          "name": "A3",
          "ticks": 265800,
          "time": 659.7330415,
          "velocity": 0.7874015748031497
        },
        {
          "duration": 0.05357140000000982,
          "durationTicks": 24,
          "midi": 62,
          "name": "D4",
          "ticks": 265860,
          "time": 659.8669699999999,
          "velocity": 0.7874015748031497
        },
        {
          "duration": 0.05357140000000982,
          "durationTicks": 24,
          "midi": 60,
          "name": "C4",
          "ticks": 265890,
          "time": 659.93393425,
          "velocity": 0.7874015748031497
        },
        {
          "duration": 0.10714280000001963,
          "durationTicks": 48,
          "midi": 62,
          "name": "D4",
          "ticks": 265920,
          "time": 660.0008985,
          "velocity": 0.7874015748031497
        },
        {
          "duration": 0.05357140000000982,
          "durationTicks": 24,
          "midi": 55,
          "name": "G3",
          "ticks": 265980,
          "time": 660.134827,
          "velocity": 0.7874015748031497
        },
        {
          "duration": 0.05357140000000982,
          "durationTicks": 24,
          "midi": 54,
          "name": "F#3",
          "ticks": 266010,
          "time": 660.2017912499999,
          "velocity": 0.7874015748031497
        },
        {
          "duration": 0.10714280000001963,
          "durationTicks": 48,
          "midi": 55,
          "name": "G3",
          "ticks": 266040,
          "time": 660.2687555,
          "velocity": 0.7874015748031497
        },
        {
          "duration": 0.05357140000000982,
          "durationTicks": 24,
          "midi": 60,
          "name": "C4",
          "ticks": 266100,
          "time": 660.4026839999999,
          "velocity": 0.7874015748031497
        },
        {
          "duration": 0.05357140000000982,
          "durationTicks": 24,
          "midi": 59,
          "name": "B3",
          "ticks": 266130,
          "time": 660.46964825,
          "velocity": 0.7874015748031497
        },
        {
          "duration": 0.10714280000001963,
          "durationTicks": 48,
          "midi": 60,
          "name": "C4",
          "ticks": 266160,
          "time": 660.5366124999999,
          "velocity": 0.7874015748031497
        },
        {
          "duration": 0.05357140000000982,
          "durationTicks": 24,
          "midi": 54,
          "name": "F#3",
          "ticks": 266220,
          "time": 660.670541,
          "velocity": 0.7874015748031497
        },
        {
          "duration": 0.05357140000000982,
          "durationTicks": 24,
          "midi": 52,
          "name": "E3",
          "ticks": 266250,
          "time": 660.7375052499999,
          "velocity": 0.7874015748031497
        },
        {
          "duration": 0.10714280000001963,
          "durationTicks": 48,
          "midi": 54,
          "name": "F#3",
          "ticks": 266280,
          "time": 660.8044695,
          "velocity": 0.7874015748031497
        },
        {
          "duration": 0.05357140000000982,
          "durationTicks": 24,
          "midi": 59,
          "name": "B3",
          "ticks": 266340,
          "time": 660.938398,
          "velocity": 0.7874015748031497
        },
        {
          "duration": 0.05357140000000982,
          "durationTicks": 24,
          "midi": 57,
          "name": "A3",
          "ticks": 266370,
          "time": 661.00536225,
          "velocity": 0.7874015748031497
        },
        {
          "duration": 0.10714280000001963,
          "durationTicks": 48,
          "midi": 59,
          "name": "B3",
          "ticks": 266400,
          "time": 661.0723264999999,
          "velocity": 0.7874015748031497
        },
        {
          "duration": 0.10714280000001963,
          "durationTicks": 48,
          "midi": 55,
          "name": "G3",
          "ticks": 266460,
          "time": 661.2062549999999,
          "velocity": 0.7874015748031497
        },
        {
          "duration": 0.10714280000001963,
          "durationTicks": 48,
          "midi": 54,
          "name": "F#3",
          "ticks": 266520,
          "time": 661.3401835,
          "velocity": 0.7874015748031497
        },
        {
          "duration": 0.10714280000001963,
          "durationTicks": 48,
          "midi": 55,
          "name": "G3",
          "ticks": 266580,
          "time": 661.474112,
          "velocity": 0.7874015748031497
        },
        {
          "duration": 0.10714279999990595,
          "durationTicks": 48,
          "midi": 50,
          "name": "D3",
          "ticks": 266640,
          "time": 661.6080405,
          "velocity": 0.7874015748031497
        },
        {
          "duration": 0.10714280000001963,
          "durationTicks": 48,
          "midi": 55,
          "name": "G3",
          "ticks": 266700,
          "time": 661.7419689999999,
          "velocity": 0.7874015748031497
        },
        {
          "duration": 0.10714280000001963,
          "durationTicks": 48,
          "midi": 47,
          "name": "B2",
          "ticks": 266760,
          "time": 661.8758975,
          "velocity": 0.7874015748031497
        },
        {
          "duration": 0.10714280000001963,
          "durationTicks": 48,
          "midi": 48,
          "name": "C3",
          "ticks": 266820,
          "time": 662.009826,
          "velocity": 0.7874015748031497
        },
        {
          "duration": 0.21428559999992558,
          "durationTicks": 96,
          "midi": 43,
          "name": "G2",
          "ticks": 266880,
          "time": 662.1437545,
          "velocity": 0.7874015748031497
        },
        {
          "duration": 0.46875,
          "durationTicks": 60,
          "midi": 74,
          "name": "D5",
          "ticks": 268500,
          "time": 672.1660753666666,
          "velocity": 0.7874015748031497
        },
        {
          "duration": 0.46875,
          "durationTicks": 60,
          "midi": 74,
          "name": "D5",
          "ticks": 268560,
          "time": 672.6348253666666,
          "velocity": 0.7874015748031497
        },
        {
          "duration": 0.46875,
          "durationTicks": 60,
          "midi": 76,
          "name": "E5",
          "ticks": 268620,
          "time": 673.1035753666666,
          "velocity": 0.7874015748031497
        },
        {
          "duration": 0.46875,
          "durationTicks": 60,
          "midi": 76,
          "name": "E5",
          "ticks": 268680,
          "time": 673.5723253666666,
          "velocity": 0.7874015748031497
        },
        {
          "duration": 0.46875,
          "durationTicks": 60,
          "midi": 78,
          "name": "F#5",
          "ticks": 268740,
          "time": 674.0410753666666,
          "velocity": 0.7874015748031497
        },
        {
          "duration": 0.46875,
          "durationTicks": 60,
          "midi": 78,
          "name": "F#5",
          "ticks": 268800,
          "time": 674.5098253666666,
          "velocity": 0.7874015748031497
        },
        {
          "duration": 0.46875,
          "durationTicks": 60,
          "midi": 79,
          "name": "G5",
          "ticks": 268860,
          "time": 674.9785753666666,
          "velocity": 0.7874015748031497
        },
        {
          "duration": 2.34375,
          "durationTicks": 300,
          "midi": 79,
          "name": "G5",
          "ticks": 268920,
          "time": 675.4473253666666,
          "velocity": 0.7874015748031497
        },
        {
          "duration": 0.46875,
          "durationTicks": 60,
          "midi": 81,
          "name": "A5",
          "ticks": 269220,
          "time": 677.7910753666666,
          "velocity": 0.7874015748031497
        },
        {
          "duration": 0.46875,
          "durationTicks": 60,
          "midi": 82,
          "name": "A#5",
          "ticks": 269280,
          "time": 678.2598253666666,
          "velocity": 0.7874015748031497
        },
        {
          "duration": 0.46875,
          "durationTicks": 60,
          "midi": 84,
          "name": "C6",
          "ticks": 269340,
          "time": 678.7285753666666,
          "velocity": 0.7874015748031497
        },
        {
          "duration": 0.46875,
          "durationTicks": 60,
          "midi": 86,
          "name": "D6",
          "ticks": 269400,
          "time": 679.1973253666666,
          "velocity": 0.7874015748031497
        },
        {
          "duration": 0.46875,
          "durationTicks": 60,
          "midi": 81,
          "name": "A5",
          "ticks": 269460,
          "time": 679.6660753666666,
          "velocity": 0.7874015748031497
        },
        {
          "duration": 0.234375,
          "durationTicks": 30,
          "midi": 81,
          "name": "A5",
          "ticks": 269520,
          "time": 680.1348253666666,
          "velocity": 0.7874015748031497
        },
        {
          "duration": 0.234375,
          "durationTicks": 30,
          "midi": 80,
          "name": "G#5",
          "ticks": 269550,
          "time": 680.3692003666666,
          "velocity": 0.7874015748031497
        },
        {
          "duration": 0.46875,
          "durationTicks": 60,
          "midi": 81,
          "name": "A5",
          "ticks": 269580,
          "time": 680.6035753666666,
          "velocity": 0.7874015748031497
        },
        {
          "duration": 2.8125,
          "durationTicks": 360,
          "midi": 74,
          "name": "D5",
          "ticks": 269640,
          "time": 681.0723253666666,
          "velocity": 0.7874015748031497
        },
        {
          "duration": 0.46875,
          "durationTicks": 60,
          "midi": 75,
          "name": "D#5",
          "ticks": 270000,
          "time": 683.8848253666666,
          "velocity": 0.7874015748031497
        },
        {
          "duration": 0.46875,
          "durationTicks": 60,
          "midi": 77,
          "name": "F5",
          "ticks": 270060,
          "time": 684.3535753666666,
          "velocity": 0.7874015748031497
        },
        {
          "duration": 0.46875,
          "durationTicks": 60,
          "midi": 75,
          "name": "D#5",
          "ticks": 270120,
          "time": 684.8223253666666,
          "velocity": 0.7874015748031497
        },
        {
          "duration": 0.46875,
          "durationTicks": 60,
          "midi": 74,
          "name": "D5",
          "ticks": 270180,
          "time": 685.2910753666666,
          "velocity": 0.7874015748031497
        },
        {
          "duration": 0.46875,
          "durationTicks": 60,
          "midi": 74,
          "name": "D5",
          "ticks": 270240,
          "time": 685.7598253666666,
          "velocity": 0.7874015748031497
        },
        {
          "duration": 0.46875,
          "durationTicks": 60,
          "midi": 72,
          "name": "C5",
          "ticks": 270300,
          "time": 686.2285753666666,
          "velocity": 0.7874015748031497
        },
        {
          "duration": 1.875,
          "durationTicks": 240,
          "midi": 70,
          "name": "A#4",
          "ticks": 270360,
          "time": 686.6973253666666,
          "velocity": 0.7874015748031497
        },
        {
          "duration": 0.9375,
          "durationTicks": 120,
          "midi": 72,
          "name": "C5",
          "ticks": 270720,
          "time": 689.5098253666666,
          "velocity": 0.7874015748031497
        },
        {
          "duration": 0.234375,
          "durationTicks": 30,
          "midi": 79,
          "name": "G5",
          "ticks": 270840,
          "time": 690.4473253666666,
          "velocity": 0.7874015748031497
        },
        {
          "duration": 0.234375,
          "durationTicks": 30,
          "midi": 81,
          "name": "A5",
          "ticks": 270870,
          "time": 690.6817003666666,
          "velocity": 0.7874015748031497
        },
        {
          "duration": 0.46875,
          "durationTicks": 60,
          "midi": 78,
          "name": "F#5",
          "ticks": 270900,
          "time": 690.9160753666666,
          "velocity": 0.7874015748031497
        },
        {
          "duration": 0.46875,
          "durationTicks": 60,
          "midi": 79,
          "name": "G5",
          "ticks": 270960,
          "time": 691.3848253666666,
          "velocity": 0.7874015748031497
        },
        {
          "duration": 0.46875,
          "durationTicks": 60,
          "midi": 81,
          "name": "A5",
          "ticks": 271020,
          "time": 691.8535753666666,
          "velocity": 0.7874015748031497
        },
        {
          "duration": 0.46875,
          "durationTicks": 60,
          "midi": 82,
          "name": "A#5",
          "ticks": 271080,
          "time": 692.3223253666666,
          "velocity": 0.7874015748031497
        },
        {
          "duration": 0.46875,
          "durationTicks": 60,
          "midi": 84,
          "name": "C6",
          "ticks": 271140,
          "time": 692.7910753666666,
          "velocity": 0.7874015748031497
        },
        {
          "duration": 0.46875,
          "durationTicks": 60,
          "midi": 86,
          "name": "D6",
          "ticks": 271200,
          "time": 693.2598253666666,
          "velocity": 0.7874015748031497
        },
        {
          "duration": 0.46875,
          "durationTicks": 60,
          "midi": 84,
          "name": "C6",
          "ticks": 271260,
          "time": 693.7285753666666,
          "velocity": 0.7874015748031497
        },
        {
          "duration": 0.46875,
          "durationTicks": 60,
          "midi": 82,
          "name": "A#5",
          "ticks": 271320,
          "time": 694.1973253666666,
          "velocity": 0.7874015748031497
        },
        {
          "duration": 0.46875,
          "durationTicks": 60,
          "midi": 79,
          "name": "G5",
          "ticks": 271380,
          "time": 694.6660753666666,
          "velocity": 0.7874015748031497
        },
        {
          "duration": 1.875,
          "durationTicks": 240,
          "midi": 74,
          "name": "D5",
          "ticks": 271440,
          "time": 695.1348253666666,
          "velocity": 0.7874015748031497
        },
        {
          "duration": 0.9375,
          "durationTicks": 120,
          "midi": 75,
          "name": "D#5",
          "ticks": 271680,
          "time": 697.0098253666666,
          "velocity": 0.7874015748031497
        },
        {
          "duration": 1.875,
          "durationTicks": 240,
          "midi": 74,
          "name": "D5",
          "ticks": 271800,
          "time": 697.9473253666666,
          "velocity": 0.7874015748031497
        },
        {
          "duration": 0.46875,
          "durationTicks": 60,
          "midi": 75,
          "name": "D#5",
          "ticks": 272100,
          "time": 700.2910753666666,
          "velocity": 0.7874015748031497
        },
        {
          "duration": 0.46875,
          "durationTicks": 60,
          "midi": 74,
          "name": "D5",
          "ticks": 272160,
          "time": 700.7598253666666,
          "velocity": 0.7874015748031497
        },
        {
          "duration": 0.46875,
          "durationTicks": 60,
          "midi": 72,
          "name": "C5",
          "ticks": 272220,
          "time": 701.2285753666666,
          "velocity": 0.7874015748031497
        },
        {
          "duration": 0.46875,
          "durationTicks": 60,
          "midi": 70,
          "name": "A#4",
          "ticks": 272280,
          "time": 701.6973253666666,
          "velocity": 0.7874015748031497
        },
        {
          "duration": 0.46875,
          "durationTicks": 60,
          "midi": 72,
          "name": "C5",
          "ticks": 272340,
          "time": 702.1660753666666,
          "velocity": 0.7874015748031497
        },
        {
          "duration": 0.46875,
          "durationTicks": 60,
          "midi": 72,
          "name": "C5",
          "ticks": 272400,
          "time": 702.6348253666666,
          "velocity": 0.7874015748031497
        },
        {
          "duration": 0.46875,
          "durationTicks": 60,
          "midi": 74,
          "name": "D5",
          "ticks": 272460,
          "time": 703.1035753666666,
          "velocity": 0.7874015748031497
        },
        {
          "duration": 0.46875,
          "durationTicks": 60,
          "midi": 74,
          "name": "D5",
          "ticks": 272520,
          "time": 703.5723253666666,
          "velocity": 0.7874015748031497
        },
        {
          "duration": 0.46875,
          "durationTicks": 60,
          "midi": 75,
          "name": "D#5",
          "ticks": 272580,
          "time": 704.0410753666666,
          "velocity": 0.7874015748031497
        },
        {
          "duration": 0.46875,
          "durationTicks": 60,
          "midi": 75,
          "name": "D#5",
          "ticks": 272640,
          "time": 704.5098253666666,
          "velocity": 0.7874015748031497
        },
        {
          "duration": 0.46875,
          "durationTicks": 60,
          "midi": 74,
          "name": "D5",
          "ticks": 272700,
          "time": 704.9785753666666,
          "velocity": 0.7874015748031497
        },
        {
          "duration": 1.875,
          "durationTicks": 240,
          "midi": 74,
          "name": "D5",
          "ticks": 272760,
          "time": 705.4473253666666,
          "velocity": 0.7874015748031497
        },
        {
          "duration": 0.9375,
          "durationTicks": 120,
          "midi": 81,
          "name": "A5",
          "ticks": 273120,
          "time": 708.2598253666666,
          "velocity": 0.7874015748031497
        },
        {
          "duration": 0.9375,
          "durationTicks": 120,
          "midi": 82,
          "name": "A#5",
          "ticks": 273240,
          "time": 709.1973253666666,
          "velocity": 0.7874015748031497
        },
        {
          "duration": 0.46875,
          "durationTicks": 60,
          "midi": 74,
          "name": "D5",
          "ticks": 273360,
          "time": 710.1348253666666,
          "velocity": 0.7874015748031497
        },
        {
          "duration": 0.9375,
          "durationTicks": 120,
          "midi": 76,
          "name": "E5",
          "ticks": 273420,
          "time": 710.6035753666666,
          "velocity": 0.7874015748031497
        },
        {
          "duration": 0.9375,
          "durationTicks": 120,
          "midi": 77,
          "name": "F5",
          "ticks": 273540,
          "time": 711.5410753666666,
          "velocity": 0.7874015748031497
        },
        {
          "duration": 0.46875,
          "durationTicks": 60,
          "midi": 79,
          "name": "G5",
          "ticks": 273660,
          "time": 712.4785753666666,
          "velocity": 0.7874015748031497
        },
        {
          "duration": 0.9375,
          "durationTicks": 120,
          "midi": 81,
          "name": "A5",
          "ticks": 273720,
          "time": 712.9473253666666,
          "velocity": 0.7874015748031497
        },
        {
          "duration": 0.9375,
          "durationTicks": 120,
          "midi": 70,
          "name": "A#4",
          "ticks": 273840,
          "time": 713.8848253666666,
          "velocity": 0.7874015748031497
        },
        {
          "duration": 0.9375,
          "durationTicks": 120,
          "midi": 72,
          "name": "C5",
          "ticks": 273960,
          "time": 714.8223253666666,
          "velocity": 0.7874015748031497
        },
        {
          "duration": 0.9375,
          "durationTicks": 120,
          "midi": 81,
          "name": "A5",
          "ticks": 274080,
          "time": 715.7598253666666,
          "velocity": 0.7874015748031497
        },
        {
          "duration": 0.234375,
          "durationTicks": 30,
          "midi": 79,
          "name": "G5",
          "ticks": 274320,
          "time": 717.6348253666666,
          "velocity": 0.7874015748031497
        },
        {
          "duration": 0.234375,
          "durationTicks": 30,
          "midi": 81,
          "name": "A5",
          "ticks": 274350,
          "time": 717.8692003666666,
          "velocity": 0.7874015748031497
        },
        {
          "duration": 0.9375,
          "durationTicks": 120,
          "midi": 79,
          "name": "G5",
          "ticks": 274380,
          "time": 718.1035753666666,
          "velocity": 0.7874015748031497
        },
        {
          "duration": 0.9375,
          "durationTicks": 120,
          "midi": 79,
          "name": "G5",
          "ticks": 274500,
          "time": 719.0410753666666,
          "velocity": 0.7874015748031497
        },
        {
          "duration": 0.9375,
          "durationTicks": 120,
          "midi": 79,
          "name": "G5",
          "ticks": 274620,
          "time": 719.9785753666666,
          "velocity": 0.7874015748031497
        },
        {
          "duration": 0.234375,
          "durationTicks": 30,
          "midi": 77,
          "name": "F5",
          "ticks": 274740,
          "time": 720.9160753666666,
          "velocity": 0.7874015748031497
        },
        {
          "duration": 0.234375,
          "durationTicks": 30,
          "midi": 79,
          "name": "G5",
          "ticks": 274770,
          "time": 721.1504503666666,
          "velocity": 0.7874015748031497
        },
        {
          "duration": 0.46875,
          "durationTicks": 60,
          "midi": 81,
          "name": "A5",
          "ticks": 274800,
          "time": 721.3848253666666,
          "velocity": 0.7874015748031497
        },
        {
          "duration": 0.46875,
          "durationTicks": 60,
          "midi": 82,
          "name": "A#5",
          "ticks": 274860,
          "time": 721.8535753666666,
          "velocity": 0.7874015748031497
        },
        {
          "duration": 0.46875,
          "durationTicks": 60,
          "midi": 81,
          "name": "A5",
          "ticks": 274920,
          "time": 722.3223253666666,
          "velocity": 0.7874015748031497
        },
        {
          "duration": 0.46875,
          "durationTicks": 60,
          "midi": 77,
          "name": "F5",
          "ticks": 274980,
          "time": 722.7910753666666,
          "velocity": 0.7874015748031497
        },
        {
          "duration": 0.9375,
          "durationTicks": 120,
          "midi": 73,
          "name": "C#5",
          "ticks": 275040,
          "time": 723.2598253666666,
          "velocity": 0.7874015748031497
        },
        {
          "duration": 1.40625,
          "durationTicks": 180,
          "midi": 79,
          "name": "G5",
          "ticks": 275280,
          "time": 725.1348253666666,
          "velocity": 0.7874015748031497
        },
        {
          "duration": 0.234375,
          "durationTicks": 30,
          "midi": 78,
          "name": "F#5",
          "ticks": 275460,
          "time": 726.5410753666666,
          "velocity": 0.7874015748031497
        },
        {
          "duration": 0.234375,
          "durationTicks": 30,
          "midi": 76,
          "name": "E5",
          "ticks": 275490,
          "time": 726.7754503666666,
          "velocity": 0.7874015748031497
        },
        {
          "duration": 0.9375,
          "durationTicks": 120,
          "midi": 78,
          "name": "F#5",
          "ticks": 275520,
          "time": 727.0098253666666,
          "velocity": 0.7874015748031497
        },
        {
          "duration": 0.9375,
          "durationTicks": 120,
          "midi": 75,
          "name": "D#5",
          "ticks": 276240,
          "time": 732.6348253666666,
          "velocity": 0.7874015748031497
        },
        {
          "duration": 0.9375,
          "durationTicks": 120,
          "midi": 74,
          "name": "D5",
          "ticks": 276360,
          "time": 733.5723253666666,
          "velocity": 0.7874015748031497
        },
        {
          "duration": 0.9375,
          "durationTicks": 120,
          "midi": 72,
          "name": "C5",
          "ticks": 276480,
          "time": 734.5098253666666,
          "velocity": 0.7874015748031497
        },
        {
          "duration": 0.46875,
          "durationTicks": 60,
          "midi": 79,
          "name": "G5",
          "ticks": 276600,
          "time": 735.4473253666666,
          "velocity": 0.7874015748031497
        },
        {
          "duration": 0.9375,
          "durationTicks": 120,
          "midi": 67,
          "name": "G4",
          "ticks": 276660,
          "time": 735.9160753666666,
          "velocity": 0.7874015748031497
        },
        {
          "duration": 0.9375,
          "durationTicks": 120,
          "midi": 68,
          "name": "G#4",
          "ticks": 276780,
          "time": 736.8535753666666,
          "velocity": 0.7874015748031497
        },
        {
          "duration": 0.9375,
          "durationTicks": 120,
          "midi": 70,
          "name": "A#4",
          "ticks": 276900,
          "time": 737.7910753666666,
          "velocity": 0.7874015748031497
        },
        {
          "duration": 0.46875,
          "durationTicks": 60,
          "midi": 72,
          "name": "C5",
          "ticks": 277020,
          "time": 738.7285753666666,
          "velocity": 0.7874015748031497
        },
        {
          "duration": 0.9375,
          "durationTicks": 120,
          "midi": 70,
          "name": "A#4",
          "ticks": 277080,
          "time": 739.1973253666666,
          "velocity": 0.7874015748031497
        },
        {
          "duration": 0.9375,
          "durationTicks": 120,
          "midi": 77,
          "name": "F5",
          "ticks": 277200,
          "time": 740.1348253666666,
          "velocity": 0.7874015748031497
        },
        {
          "duration": 0.9375,
          "durationTicks": 120,
          "midi": 79,
          "name": "G5",
          "ticks": 277320,
          "time": 741.0723253666666,
          "velocity": 0.7874015748031497
        },
        {
          "duration": 0.9375,
          "durationTicks": 120,
          "midi": 74,
          "name": "D5",
          "ticks": 277440,
          "time": 742.0098253666666,
          "velocity": 0.7874015748031497
        },
        {
          "duration": 0.46875,
          "durationTicks": 60,
          "midi": 75,
          "name": "D#5",
          "ticks": 277560,
          "time": 742.9473253666666,
          "velocity": 0.7874015748031497
        },
        {
          "duration": 0.46875,
          "durationTicks": 60,
          "midi": 74,
          "name": "D5",
          "ticks": 277620,
          "time": 743.4160753666666,
          "velocity": 0.7874015748031497
        },
        {
          "duration": 0.9375,
          "durationTicks": 120,
          "midi": 72,
          "name": "C5",
          "ticks": 277680,
          "time": 743.8848253666666,
          "velocity": 0.7874015748031497
        },
        {
          "duration": 0.9375,
          "durationTicks": 120,
          "midi": 70,
          "name": "A#4",
          "ticks": 277860,
          "time": 745.2910753666666,
          "velocity": 0.7874015748031497
        },
        {
          "duration": 0.46875,
          "durationTicks": 60,
          "midi": 72,
          "name": "C5",
          "ticks": 277980,
          "time": 746.2285753666666,
          "velocity": 0.7874015748031497
        },
        {
          "duration": 0.46875,
          "durationTicks": 60,
          "midi": 74,
          "name": "D5",
          "ticks": 278040,
          "time": 746.6973253666666,
          "velocity": 0.7874015748031497
        },
        {
          "duration": 0.46875,
          "durationTicks": 60,
          "midi": 70,
          "name": "A#4",
          "ticks": 278100,
          "time": 747.1660753666666,
          "velocity": 0.7874015748031497
        },
        {
          "duration": 0.46875,
          "durationTicks": 60,
          "midi": 65,
          "name": "F4",
          "ticks": 278160,
          "time": 747.6348253666666,
          "velocity": 0.7874015748031497
        },
        {
          "duration": 0.46875,
          "durationTicks": 60,
          "midi": 62,
          "name": "D4",
          "ticks": 278220,
          "time": 748.1035753666666,
          "velocity": 0.7874015748031497
        },
        {
          "duration": 0.46875,
          "durationTicks": 60,
          "midi": 63,
          "name": "D#4",
          "ticks": 278280,
          "time": 748.5723253666666,
          "velocity": 0.7874015748031497
        },
        {
          "duration": 0.46875,
          "durationTicks": 60,
          "midi": 65,
          "name": "F4",
          "ticks": 278340,
          "time": 749.0410753666666,
          "velocity": 0.7874015748031497
        },
        {
          "duration": 0.46875,
          "durationTicks": 60,
          "midi": 67,
          "name": "G4",
          "ticks": 278400,
          "time": 749.5098253666666,
          "velocity": 0.7874015748031497
        },
        {
          "duration": 0.46875,
          "durationTicks": 60,
          "midi": 68,
          "name": "G#4",
          "ticks": 278460,
          "time": 749.9785753666666,
          "velocity": 0.7874015748031497
        },
        {
          "duration": 4.21875,
          "durationTicks": 540,
          "midi": 70,
          "name": "A#4",
          "ticks": 278520,
          "time": 750.4473253666666,
          "velocity": 0.7874015748031497
        },
        {
          "duration": 0.234375,
          "durationTicks": 30,
          "midi": 72,
          "name": "C5",
          "ticks": 279060,
          "time": 754.6660753666666,
          "velocity": 0.7874015748031497
        },
        {
          "duration": 0.234375,
          "durationTicks": 30,
          "midi": 74,
          "name": "D5",
          "ticks": 279090,
          "time": 754.9004503666666,
          "velocity": 0.7874015748031497
        },
        {
          "duration": 0.234375,
          "durationTicks": 30,
          "midi": 75,
          "name": "D#5",
          "ticks": 279120,
          "time": 755.1348253666666,
          "velocity": 0.7874015748031497
        },
        {
          "duration": 0.234375,
          "durationTicks": 30,
          "midi": 74,
          "name": "D5",
          "ticks": 279150,
          "time": 755.3692003666666,
          "velocity": 0.7874015748031497
        },
        {
          "duration": 0.46875,
          "durationTicks": 60,
          "midi": 72,
          "name": "C5",
          "ticks": 279180,
          "time": 755.6035753666666,
          "velocity": 0.7874015748031497
        },
        {
          "duration": 0.46875,
          "durationTicks": 60,
          "midi": 74,
          "name": "D5",
          "ticks": 279240,
          "time": 756.0723253666666,
          "velocity": 0.7874015748031497
        },
        {
          "duration": 0.234375,
          "durationTicks": 30,
          "midi": 75,
          "name": "D#5",
          "ticks": 279300,
          "time": 756.5410753666666,
          "velocity": 0.7874015748031497
        },
        {
          "duration": 0.234375,
          "durationTicks": 30,
          "midi": 77,
          "name": "F5",
          "ticks": 279330,
          "time": 756.7754503666666,
          "velocity": 0.7874015748031497
        },
        {
          "duration": 0.234375,
          "durationTicks": 30,
          "midi": 75,
          "name": "D#5",
          "ticks": 279360,
          "time": 757.0098253666666,
          "velocity": 0.7874015748031497
        },
        {
          "duration": 0.234375,
          "durationTicks": 30,
          "midi": 77,
          "name": "F5",
          "ticks": 279390,
          "time": 757.2442003666666,
          "velocity": 0.7874015748031497
        },
        {
          "duration": 0.46875,
          "durationTicks": 60,
          "midi": 79,
          "name": "G5",
          "ticks": 279420,
          "time": 757.4785753666666,
          "velocity": 0.7874015748031497
        },
        {
          "duration": 1.875,
          "durationTicks": 240,
          "midi": 77,
          "name": "F5",
          "ticks": 279480,
          "time": 757.9473253666666,
          "velocity": 0.7874015748031497
        },
        {
          "duration": 0.46875,
          "durationTicks": 60,
          "midi": 72,
          "name": "C5",
          "ticks": 280020,
          "time": 762.1660753666666,
          "velocity": 0.7874015748031497
        },
        {
          "duration": 0.46875,
          "durationTicks": 60,
          "midi": 72,
          "name": "C5",
          "ticks": 280080,
          "time": 762.6348253666666,
          "velocity": 0.7874015748031497
        },
        {
          "duration": 0.46875,
          "durationTicks": 60,
          "midi": 74,
          "name": "D5",
          "ticks": 280140,
          "time": 763.1035753666666,
          "velocity": 0.7874015748031497
        },
        {
          "duration": 0.46875,
          "durationTicks": 60,
          "midi": 75,
          "name": "D#5",
          "ticks": 280200,
          "time": 763.5723253666666,
          "velocity": 0.7874015748031497
        },
        {
          "duration": 0.46875,
          "durationTicks": 60,
          "midi": 76,
          "name": "E5",
          "ticks": 280260,
          "time": 764.0410753666666,
          "velocity": 0.7874015748031497
        },
        {
          "duration": 0.46875,
          "durationTicks": 60,
          "midi": 67,
          "name": "G4",
          "ticks": 280320,
          "time": 764.5098253666666,
          "velocity": 0.7874015748031497
        },
        {
          "duration": 0.46875,
          "durationTicks": 60,
          "midi": 76,
          "name": "E5",
          "ticks": 280380,
          "time": 764.9785753666666,
          "velocity": 0.7874015748031497
        },
        {
          "duration": 2.34375,
          "durationTicks": 300,
          "midi": 78,
          "name": "F#5",
          "ticks": 280440,
          "time": 765.4473253666666,
          "velocity": 0.7874015748031497
        },
        {
          "duration": 0.46875,
          "durationTicks": 60,
          "midi": 79,
          "name": "G5",
          "ticks": 280740,
          "time": 767.7910753666666,
          "velocity": 0.7874015748031497
        },
        {
          "duration": 0.46875,
          "durationTicks": 60,
          "midi": 81,
          "name": "A5",
          "ticks": 280800,
          "time": 768.2598253666666,
          "velocity": 0.7874015748031497
        },
        {
          "duration": 0.46875,
          "durationTicks": 60,
          "midi": 82,
          "name": "A#5",
          "ticks": 280860,
          "time": 768.7285753666666,
          "velocity": 0.7874015748031497
        },
        {
          "duration": 0.46875,
          "durationTicks": 60,
          "midi": 84,
          "name": "C6",
          "ticks": 280920,
          "time": 769.1973253666666,
          "velocity": 0.7874015748031497
        },
        {
          "duration": 0.46875,
          "durationTicks": 60,
          "midi": 82,
          "name": "A#5",
          "ticks": 280980,
          "time": 769.6660753666666,
          "velocity": 0.7874015748031497
        },
        {
          "duration": 0.46875,
          "durationTicks": 60,
          "midi": 81,
          "name": "A5",
          "ticks": 281040,
          "time": 770.1348253666666,
          "velocity": 0.7874015748031497
        },
        {
          "duration": 0.46875,
          "durationTicks": 60,
          "midi": 79,
          "name": "G5",
          "ticks": 281100,
          "time": 770.6035753666666,
          "velocity": 0.7874015748031497
        },
        {
          "duration": 0.46875,
          "durationTicks": 60,
          "midi": 78,
          "name": "F#5",
          "ticks": 281160,
          "time": 771.0723253666666,
          "velocity": 0.7874015748031497
        },
        {
          "duration": 0.46875,
          "durationTicks": 60,
          "midi": 79,
          "name": "G5",
          "ticks": 281220,
          "time": 771.5410753666666,
          "velocity": 0.7874015748031497
        },
        {
          "duration": 1.40625,
          "durationTicks": 180,
          "midi": 78,
          "name": "F#5",
          "ticks": 281280,
          "time": 772.0098253666666,
          "velocity": 0.7874015748031497
        },
        {
          "duration": 0.46875,
          "durationTicks": 60,
          "midi": 81,
          "name": "A5",
          "ticks": 281460,
          "time": 773.4160753666666,
          "velocity": 0.7874015748031497
        },
        {
          "duration": 0.9375,
          "durationTicks": 120,
          "midi": 79,
          "name": "G5",
          "ticks": 281520,
          "time": 773.8848253666666,
          "velocity": 0.7874015748031497
        },
        {
          "duration": 0.9375,
          "durationTicks": 120,
          "midi": 72,
          "name": "C5",
          "ticks": 281760,
          "time": 775.7598253666666,
          "velocity": 0.7874015748031497
        },
        {
          "duration": 1.40625,
          "durationTicks": 180,
          "midi": 67,
          "name": "G4",
          "ticks": 281880,
          "time": 776.6973253666666,
          "velocity": 0.7874015748031497
        },
        {
          "duration": 0.46875,
          "durationTicks": 60,
          "midi": 69,
          "name": "A4",
          "ticks": 282060,
          "time": 778.1035753666666,
          "velocity": 0.7874015748031497
        },
        {
          "duration": 0.46875,
          "durationTicks": 60,
          "midi": 70,
          "name": "A#4",
          "ticks": 282120,
          "time": 778.5723253666666,
          "velocity": 0.7874015748031497
        },
        {
          "duration": 0.46875,
          "durationTicks": 60,
          "midi": 72,
          "name": "C5",
          "ticks": 282180,
          "time": 779.0410753666666,
          "velocity": 0.7874015748031497
        },
        {
          "duration": 0.46875,
          "durationTicks": 60,
          "midi": 74,
          "name": "D5",
          "ticks": 282240,
          "time": 779.5098253666666,
          "velocity": 0.7874015748031497
        },
        {
          "duration": 0.46875,
          "durationTicks": 60,
          "midi": 76,
          "name": "E5",
          "ticks": 282300,
          "time": 779.9785753666666,
          "velocity": 0.7874015748031497
        },
        {
          "duration": 0.46875,
          "durationTicks": 60,
          "midi": 78,
          "name": "F#5",
          "ticks": 282360,
          "time": 780.4473253666666,
          "velocity": 0.7874015748031497
        },
        {
          "duration": 0.46875,
          "durationTicks": 60,
          "midi": 79,
          "name": "G5",
          "ticks": 282420,
          "time": 780.9160753666666,
          "velocity": 0.7874015748031497
        },
        {
          "duration": 0.46875,
          "durationTicks": 60,
          "midi": 81,
          "name": "A5",
          "ticks": 282480,
          "time": 781.3848253666666,
          "velocity": 0.7874015748031497
        },
        {
          "duration": 0.46875,
          "durationTicks": 60,
          "midi": 78,
          "name": "F#5",
          "ticks": 282540,
          "time": 781.8535753666666,
          "velocity": 0.7874015748031497
        },
        {
          "duration": 0.46875,
          "durationTicks": 60,
          "midi": 79,
          "name": "G5",
          "ticks": 282600,
          "time": 782.3223253666666,
          "velocity": 0.7874015748031497
        },
        {
          "duration": 0.46875,
          "durationTicks": 60,
          "midi": 78,
          "name": "F#5",
          "ticks": 282660,
          "time": 782.7910753666666,
          "velocity": 0.7874015748031497
        },
        {
          "duration": 0.234375,
          "durationTicks": 30,
          "midi": 76,
          "name": "E5",
          "ticks": 282720,
          "time": 783.2598253666666,
          "velocity": 0.7874015748031497
        },
        {
          "duration": 0.234375,
          "durationTicks": 30,
          "midi": 74,
          "name": "D5",
          "ticks": 282750,
          "time": 783.4942003666666,
          "velocity": 0.7874015748031497
        },
        {
          "duration": 0.9375,
          "durationTicks": 120,
          "midi": 84,
          "name": "C6",
          "ticks": 282780,
          "time": 783.7285753666666,
          "velocity": 0.7874015748031497
        },
        {
          "duration": 0.46875,
          "durationTicks": 60,
          "midi": 78,
          "name": "F#5",
          "ticks": 282900,
          "time": 784.6660753666666,
          "velocity": 0.7874015748031497
        },
        {
          "duration": 0.46875,
          "durationTicks": 60,
          "midi": 79,
          "name": "G5",
          "ticks": 282960,
          "time": 785.1348253666666,
          "velocity": 0.7874015748031497
        },
        {
          "duration": 0.46875,
          "durationTicks": 60,
          "midi": 81,
          "name": "A5",
          "ticks": 283020,
          "time": 785.6035753666666,
          "velocity": 0.7874015748031497
        },
        {
          "duration": 0.46875,
          "durationTicks": 60,
          "midi": 82,
          "name": "A#5",
          "ticks": 283080,
          "time": 786.0723253666666,
          "velocity": 0.7874015748031497
        },
        {
          "duration": 0.46875,
          "durationTicks": 60,
          "midi": 84,
          "name": "C6",
          "ticks": 283140,
          "time": 786.5410753666666,
          "velocity": 0.7874015748031497
        },
        {
          "duration": 0.9375,
          "durationTicks": 120,
          "midi": 86,
          "name": "D6",
          "ticks": 283200,
          "time": 787.0098253666666,
          "velocity": 0.7874015748031497
        },
        {
          "duration": 0.17045450000000528,
          "durationTicks": 60,
          "midi": 71,
          "name": "B4",
          "ticks": 284040,
          "time": 791.7825523666666,
          "velocity": 0.7874015748031497
        },
        {
          "duration": 0.17045450000000528,
          "durationTicks": 60,
          "midi": 69,
          "name": "A4",
          "ticks": 284100,
          "time": 791.9530068666666,
          "velocity": 0.7874015748031497
        },
        {
          "duration": 0.17045450000000528,
          "durationTicks": 60,
          "midi": 71,
          "name": "B4",
          "ticks": 284160,
          "time": 792.1234613666666,
          "velocity": 0.7874015748031497
        },
        {
          "duration": 0.17045450000000528,
          "durationTicks": 60,
          "midi": 67,
          "name": "G4",
          "ticks": 284220,
          "time": 792.2939158666666,
          "velocity": 0.7874015748031497
        },
        {
          "duration": 0.1704544999998916,
          "durationTicks": 60,
          "midi": 62,
          "name": "D4",
          "ticks": 284280,
          "time": 792.4643703666666,
          "velocity": 0.7874015748031497
        },
        {
          "duration": 0.17045450000000528,
          "durationTicks": 60,
          "midi": 67,
          "name": "G4",
          "ticks": 284340,
          "time": 792.6348248666665,
          "velocity": 0.7874015748031497
        },
        {
          "duration": 0.17045450000000528,
          "durationTicks": 60,
          "midi": 69,
          "name": "A4",
          "ticks": 284400,
          "time": 792.8052793666665,
          "velocity": 0.7874015748031497
        },
        {
          "duration": 0.17045450000000528,
          "durationTicks": 60,
          "midi": 67,
          "name": "G4",
          "ticks": 284460,
          "time": 792.9757338666665,
          "velocity": 0.7874015748031497
        },
        {
          "duration": 0.17045450000000528,
          "durationTicks": 60,
          "midi": 69,
          "name": "A4",
          "ticks": 284520,
          "time": 793.1461883666665,
          "velocity": 0.7874015748031497
        },
        {
          "duration": 0.17045450000000528,
          "durationTicks": 60,
          "midi": 66,
          "name": "F#4",
          "ticks": 284580,
          "time": 793.3166428666665,
          "velocity": 0.7874015748031497
        },
        {
          "duration": 0.17045450000000528,
          "durationTicks": 60,
          "midi": 62,
          "name": "D4",
          "ticks": 284640,
          "time": 793.4870973666665,
          "velocity": 0.7874015748031497
        },
        {
          "duration": 0.17045450000000528,
          "durationTicks": 60,
          "midi": 66,
          "name": "F#4",
          "ticks": 284700,
          "time": 793.6575518666665,
          "velocity": 0.7874015748031497
        },
        {
          "duration": 0.17045450000000528,
          "durationTicks": 60,
          "midi": 67,
          "name": "G4",
          "ticks": 284760,
          "time": 793.8280063666665,
          "velocity": 0.7874015748031497
        },
        {
          "duration": 0.17045450000000528,
          "durationTicks": 60,
          "midi": 66,
          "name": "F#4",
          "ticks": 284820,
          "time": 793.9984608666665,
          "velocity": 0.7874015748031497
        },
        {
          "duration": 0.17045450000000528,
          "durationTicks": 60,
          "midi": 67,
          "name": "G4",
          "ticks": 284880,
          "time": 794.1689153666665,
          "velocity": 0.7874015748031497
        },
        {
          "duration": 0.17045450000000528,
          "durationTicks": 60,
          "midi": 71,
          "name": "B4",
          "ticks": 284940,
          "time": 794.3393698666665,
          "velocity": 0.7874015748031497
        },
        {
          "duration": 0.17045450000000528,
          "durationTicks": 60,
          "midi": 69,
          "name": "A4",
          "ticks": 285000,
          "time": 794.5098243666665,
          "velocity": 0.7874015748031497
        },
        {
          "duration": 0.17045450000000528,
          "durationTicks": 60,
          "midi": 67,
          "name": "G4",
          "ticks": 285060,
          "time": 794.6802788666665,
          "velocity": 0.7874015748031497
        },
        {
          "duration": 0.17045450000000528,
          "durationTicks": 60,
          "midi": 66,
          "name": "F#4",
          "ticks": 285120,
          "time": 794.8507333666665,
          "velocity": 0.7874015748031497
        },
        {
          "duration": 0.17045450000000528,
          "durationTicks": 60,
          "midi": 64,
          "name": "E4",
          "ticks": 285180,
          "time": 795.0211878666665,
          "velocity": 0.7874015748031497
        },
        {
          "duration": 0.17045450000000528,
          "durationTicks": 60,
          "midi": 66,
          "name": "F#4",
          "ticks": 285240,
          "time": 795.1916423666665,
          "velocity": 0.7874015748031497
        },
        {
          "duration": 0.17045450000000528,
          "durationTicks": 60,
          "midi": 67,
          "name": "G4",
          "ticks": 285300,
          "time": 795.3620968666665,
          "velocity": 0.7874015748031497
        },
        {
          "duration": 0.17045450000000528,
          "durationTicks": 60,
          "midi": 69,
          "name": "A4",
          "ticks": 285360,
          "time": 795.5325513666666,
          "velocity": 0.7874015748031497
        },
        {
          "duration": 0.17045450000000528,
          "durationTicks": 60,
          "midi": 66,
          "name": "F#4",
          "ticks": 285420,
          "time": 795.7030058666666,
          "velocity": 0.7874015748031497
        },
        {
          "duration": 0.34090900000001056,
          "durationTicks": 120,
          "midi": 67,
          "name": "G4",
          "ticks": 285480,
          "time": 795.8734603666666,
          "velocity": 0.7874015748031497
        },
        {
          "duration": 1.022726999999918,
          "durationTicks": 360,
          "midi": 67,
          "name": "G4",
          "ticks": 285600,
          "time": 796.2143693666666,
          "velocity": 0.7874015748031497
        },
        {
          "duration": 1.0227270000000317,
          "durationTicks": 360,
          "midi": 67,
          "name": "G4",
          "ticks": 285960,
          "time": 797.2370963666665,
          "velocity": 0.7874015748031497
        },
        {
          "duration": 0.34090900000001056,
          "durationTicks": 120,
          "midi": 67,
          "name": "G4",
          "ticks": 286320,
          "time": 798.2598233666665,
          "velocity": 0.7874015748031497
        },
        {
          "duration": 0.34090900000001056,
          "durationTicks": 120,
          "midi": 66,
          "name": "F#4",
          "ticks": 286440,
          "time": 798.6007323666665,
          "velocity": 0.7874015748031497
        },
        {
          "duration": 0.6818180000000211,
          "durationTicks": 240,
          "midi": 67,
          "name": "G4",
          "ticks": 286560,
          "time": 798.9416413666665,
          "velocity": 0.7874015748031497
        },
        {
          "duration": 0.34090900000001056,
          "durationTicks": 120,
          "midi": 74,
          "name": "D5",
          "ticks": 287160,
          "time": 800.6461863666665,
          "velocity": 0.7874015748031497
        },
        {
          "duration": 0.6818180000000211,
          "durationTicks": 240,
          "midi": 73,
          "name": "C#5",
          "ticks": 287280,
          "time": 800.9870953666665,
          "velocity": 0.7874015748031497
        },
        {
          "duration": 0.34090900000001056,
          "durationTicks": 120,
          "midi": 72,
          "name": "C5",
          "ticks": 287520,
          "time": 801.6689133666665,
          "velocity": 0.7874015748031497
        },
        {
          "duration": 0.34090900000001056,
          "durationTicks": 120,
          "midi": 71,
          "name": "B4",
          "ticks": 287640,
          "time": 802.0098223666665,
          "velocity": 0.7874015748031497
        },
        {
          "duration": 0.34090900000001056,
          "durationTicks": 120,
          "midi": 64,
          "name": "E4",
          "ticks": 287760,
          "time": 802.3507313666665,
          "velocity": 0.7874015748031497
        },
        {
          "duration": 0.34090900000001056,
          "durationTicks": 120,
          "midi": 68,
          "name": "G#4",
          "ticks": 287880,
          "time": 802.6916403666665,
          "velocity": 0.7874015748031497
        },
        {
          "duration": 0.6818179999999074,
          "durationTicks": 240,
          "midi": 69,
          "name": "A4",
          "ticks": 288000,
          "time": 803.0325493666666,
          "velocity": 0.7874015748031497
        },
        {
          "duration": 0.34090900000001056,
          "durationTicks": 120,
          "midi": 67,
          "name": "G4",
          "ticks": 288240,
          "time": 803.7143673666665,
          "velocity": 0.7874015748031497
        },
        {
          "duration": 0.6818180000000211,
          "durationTicks": 240,
          "midi": 66,
          "name": "F#4",
          "ticks": 288360,
          "time": 804.0552763666665,
          "velocity": 0.7874015748031497
        },
        {
          "duration": 0.34090900000001056,
          "durationTicks": 120,
          "midi": 69,
          "name": "A4",
          "ticks": 288600,
          "time": 804.7370943666665,
          "velocity": 0.7874015748031497
        },
        {
          "duration": 0.34090900000001056,
          "durationTicks": 120,
          "midi": 62,
          "name": "D4",
          "ticks": 288720,
          "time": 805.0780033666665,
          "velocity": 0.7874015748031497
        },
        {
          "duration": 0.34090900000001056,
          "durationTicks": 120,
          "midi": 67,
          "name": "G4",
          "ticks": 288840,
          "time": 805.4189123666665,
          "velocity": 0.7874015748031497
        },
        {
          "duration": 0.34090900000001056,
          "durationTicks": 120,
          "midi": 71,
          "name": "B4",
          "ticks": 288960,
          "time": 805.7598213666665,
          "velocity": 0.7874015748031497
        },
        {
          "duration": 0.34090900000001056,
          "durationTicks": 120,
          "midi": 73,
          "name": "C#5",
          "ticks": 289080,
          "time": 806.1007303666665,
          "velocity": 0.7874015748031497
        },
        {
          "duration": 0.34090900000001056,
          "durationTicks": 120,
          "midi": 69,
          "name": "A4",
          "ticks": 289200,
          "time": 806.4416393666665,
          "velocity": 0.7874015748031497
        },
        {
          "duration": 0.6818179999999074,
          "durationTicks": 240,
          "midi": 67,
          "name": "G4",
          "ticks": 289320,
          "time": 806.7825483666666,
          "velocity": 0.7874015748031497
        },
        {
          "duration": 0.6818180000000211,
          "durationTicks": 240,
          "midi": 66,
          "name": "F#4",
          "ticks": 289560,
          "time": 807.4643663666665,
          "velocity": 0.7874015748031497
        },
        {
          "duration": 0.34090900000001056,
          "durationTicks": 120,
          "midi": 62,
          "name": "D4",
          "ticks": 289800,
          "time": 808.1461843666665,
          "velocity": 0.7874015748031497
        },
        {
          "duration": 1.0227270000000317,
          "durationTicks": 360,
          "midi": 62,
          "name": "D4",
          "ticks": 289920,
          "time": 808.4870933666665,
          "velocity": 0.7874015748031497
        },
        {
          "duration": 0.34090900000001056,
          "durationTicks": 120,
          "midi": 59,
          "name": "B3",
          "ticks": 290280,
          "time": 809.5098203666665,
          "velocity": 0.7874015748031497
        },
        {
          "duration": 0.6818180000000211,
          "durationTicks": 240,
          "midi": 67,
          "name": "G4",
          "ticks": 290400,
          "time": 809.8507293666665,
          "velocity": 0.7874015748031497
        },
        {
          "duration": 0.3409089999998969,
          "durationTicks": 120,
          "midi": 67,
          "name": "G4",
          "ticks": 290640,
          "time": 810.5325473666666,
          "velocity": 0.7874015748031497
        },
        {
          "duration": 0.34090900000001056,
          "durationTicks": 120,
          "midi": 72,
          "name": "C5",
          "ticks": 290760,
          "time": 810.8734563666665,
          "velocity": 0.7874015748031497
        },
        {
          "duration": 0.34090900000001056,
          "durationTicks": 120,
          "midi": 66,
          "name": "F#4",
          "ticks": 290880,
          "time": 811.2143653666665,
          "velocity": 0.7874015748031497
        },
        {
          "duration": 0.17045450000000528,
          "durationTicks": 60,
          "midi": 71,
          "name": "B4",
          "ticks": 291240,
          "time": 812.2370923666665,
          "velocity": 0.7874015748031497
        },
        {
          "duration": 0.17045450000000528,
          "durationTicks": 60,
          "midi": 69,
          "name": "A4",
          "ticks": 291300,
          "time": 812.4075468666665,
          "velocity": 0.7874015748031497
        },
        {
          "duration": 0.17045450000000528,
          "durationTicks": 60,
          "midi": 71,
          "name": "B4",
          "ticks": 291360,
          "time": 812.5780013666665,
          "velocity": 0.7874015748031497
        },
        {
          "duration": 0.17045450000000528,
          "durationTicks": 60,
          "midi": 67,
          "name": "G4",
          "ticks": 291420,
          "time": 812.7484558666665,
          "velocity": 0.7874015748031497
        },
        {
          "duration": 0.17045450000000528,
          "durationTicks": 60,
          "midi": 64,
          "name": "E4",
          "ticks": 291480,
          "time": 812.9189103666665,
          "velocity": 0.7874015748031497
        },
        {
          "duration": 0.17045450000000528,
          "durationTicks": 60,
          "midi": 67,
          "name": "G4",
          "ticks": 291540,
          "time": 813.0893648666665,
          "velocity": 0.7874015748031497
        },
        {
          "duration": 0.17045450000000528,
          "durationTicks": 60,
          "midi": 72,
          "name": "C5",
          "ticks": 291600,
          "time": 813.2598193666665,
          "velocity": 0.7874015748031497
        },
        {
          "duration": 0.17045450000000528,
          "durationTicks": 60,
          "midi": 71,
          "name": "B4",
          "ticks": 291660,
          "time": 813.4302738666665,
          "velocity": 0.7874015748031497
        },
        {
          "duration": 0.17045450000000528,
          "durationTicks": 60,
          "midi": 72,
          "name": "C5",
          "ticks": 291720,
          "time": 813.6007283666665,
          "velocity": 0.7874015748031497
        },
        {
          "duration": 0.17045450000000528,
          "durationTicks": 60,
          "midi": 69,
          "name": "A4",
          "ticks": 291780,
          "time": 813.7711828666665,
          "velocity": 0.7874015748031497
        },
        {
          "duration": 0.17045450000000528,
          "durationTicks": 60,
          "midi": 66,
          "name": "F#4",
          "ticks": 291840,
          "time": 813.9416373666666,
          "velocity": 0.7874015748031497
        },
        {
          "duration": 0.17045450000000528,
          "durationTicks": 60,
          "midi": 69,
          "name": "A4",
          "ticks": 291900,
          "time": 814.1120918666666,
          "velocity": 0.7874015748031497
        },
        {
          "duration": 0.17045450000000528,
          "durationTicks": 60,
          "midi": 71,
          "name": "B4",
          "ticks": 291960,
          "time": 814.2825463666666,
          "velocity": 0.7874015748031497
        },
        {
          "duration": 0.1704544999998916,
          "durationTicks": 60,
          "midi": 69,
          "name": "A4",
          "ticks": 292020,
          "time": 814.4530008666666,
          "velocity": 0.7874015748031497
        },
        {
          "duration": 0.17045450000000528,
          "durationTicks": 60,
          "midi": 71,
          "name": "B4",
          "ticks": 292080,
          "time": 814.6234553666665,
          "velocity": 0.7874015748031497
        },
        {
          "duration": 0.17045450000000528,
          "durationTicks": 60,
          "midi": 72,
          "name": "C5",
          "ticks": 292140,
          "time": 814.7939098666665,
          "velocity": 0.7874015748031497
        },
        {
          "duration": 0.17045450000000528,
          "durationTicks": 60,
          "midi": 71,
          "name": "B4",
          "ticks": 292200,
          "time": 814.9643643666665,
          "velocity": 0.7874015748031497
        },
        {
          "duration": 0.17045450000000528,
          "durationTicks": 60,
          "midi": 69,
          "name": "A4",
          "ticks": 292260,
          "time": 815.1348188666665,
          "velocity": 0.7874015748031497
        },
        {
          "duration": 0.17045450000000528,
          "durationTicks": 60,
          "midi": 67,
          "name": "G4",
          "ticks": 292320,
          "time": 815.3052733666665,
          "velocity": 0.7874015748031497
        },
        {
          "duration": 0.17045450000000528,
          "durationTicks": 60,
          "midi": 66,
          "name": "F#4",
          "ticks": 292380,
          "time": 815.4757278666665,
          "velocity": 0.7874015748031497
        },
        {
          "duration": 0.17045450000000528,
          "durationTicks": 60,
          "midi": 67,
          "name": "G4",
          "ticks": 292440,
          "time": 815.6461823666665,
          "velocity": 0.7874015748031497
        },
        {
          "duration": 0.17045450000000528,
          "durationTicks": 60,
          "midi": 69,
          "name": "A4",
          "ticks": 292500,
          "time": 815.8166368666665,
          "velocity": 0.7874015748031497
        },
        {
          "duration": 0.17045450000000528,
          "durationTicks": 60,
          "midi": 71,
          "name": "B4",
          "ticks": 292560,
          "time": 815.9870913666665,
          "velocity": 0.7874015748031497
        },
        {
          "duration": 0.17045450000000528,
          "durationTicks": 60,
          "midi": 67,
          "name": "G4",
          "ticks": 292620,
          "time": 816.1575458666665,
          "velocity": 0.7874015748031497
        },
        {
          "duration": 0.6818180000000211,
          "durationTicks": 240,
          "midi": 64,
          "name": "E4",
          "ticks": 292680,
          "time": 816.3280003666665,
          "velocity": 0.7874015748031497
        },
        {
          "duration": 0.17045450000000528,
          "durationTicks": 60,
          "midi": 62,
          "name": "D4",
          "ticks": 293160,
          "time": 817.6916363666666,
          "velocity": 0.7874015748031497
        },
        {
          "duration": 0.17045450000000528,
          "durationTicks": 60,
          "midi": 67,
          "name": "G4",
          "ticks": 293220,
          "time": 817.8620908666666,
          "velocity": 0.7874015748031497
        },
        {
          "duration": 0.1704544999998916,
          "durationTicks": 60,
          "midi": 71,
          "name": "B4",
          "ticks": 293280,
          "time": 818.0325453666666,
          "velocity": 0.7874015748031497
        },
        {
          "duration": 0.17045450000000528,
          "durationTicks": 60,
          "midi": 67,
          "name": "G4",
          "ticks": 293340,
          "time": 818.2029998666665,
          "velocity": 0.7874015748031497
        },
        {
          "duration": 1.0227270000000317,
          "durationTicks": 360,
          "midi": 64,
          "name": "E4",
          "ticks": 293400,
          "time": 818.3734543666665,
          "velocity": 0.7874015748031497
        },
        {
          "duration": 0.34090900000001056,
          "durationTicks": 120,
          "midi": 62,
          "name": "D4",
          "ticks": 293760,
          "time": 819.3961813666665,
          "velocity": 0.7874015748031497
        },
        {
          "duration": 0.34090900000001056,
          "durationTicks": 120,
          "midi": 55,
          "name": "G3",
          "ticks": 294120,
          "time": 820.4189083666665,
          "velocity": 0.7874015748031497
        },
        {
          "duration": 1.0227270000000317,
          "durationTicks": 360,
          "midi": 55,
          "name": "G3",
          "ticks": 294240,
          "time": 820.7598173666665,
          "velocity": 0.7874015748031497
        },
        {
          "duration": 0.3409089999998969,
          "durationTicks": 120,
          "midi": 48,
          "name": "C3",
          "ticks": 294600,
          "time": 821.7825443666666,
          "velocity": 0.7874015748031497
        },
        {
          "duration": 0.6818180000000211,
          "durationTicks": 240,
          "midi": 60,
          "name": "C4",
          "ticks": 294720,
          "time": 822.1234533666665,
          "velocity": 0.7874015748031497
        },
        {
          "duration": 0.34090900000001056,
          "durationTicks": 120,
          "midi": 57,
          "name": "A3",
          "ticks": 294960,
          "time": 822.8052713666665,
          "velocity": 0.7874015748031497
        },
        {
          "duration": 0.6818180000000211,
          "durationTicks": 240,
          "midi": 60,
          "name": "C4",
          "ticks": 295080,
          "time": 823.1461803666665,
          "velocity": 0.7874015748031497
        },
        {
          "duration": 0.6818180000000211,
          "durationTicks": 240,
          "midi": 59,
          "name": "B3",
          "ticks": 295320,
          "time": 823.8279983666665,
          "velocity": 0.7874015748031497
        },
        {
          "duration": 0.3134469666667883,
          "durationTicks": 120,
          "midi": 67,
          "name": "G4",
          "ticks": 295920,
          "time": 825.5325433666665,
          "velocity": 0.7874015748031497
        },
        {
          "duration": 0.3125,
          "durationTicks": 120,
          "midi": 71,
          "name": "B4",
          "ticks": 296040,
          "time": 825.8459903333332,
          "velocity": 0.7874015748031497
        },
        {
          "duration": 0.3125,
          "durationTicks": 120,
          "midi": 74,
          "name": "D5",
          "ticks": 296160,
          "time": 826.1584903333332,
          "velocity": 0.7874015748031497
        },
        {
          "duration": 0.3125,
          "durationTicks": 120,
          "midi": 79,
          "name": "G5",
          "ticks": 296280,
          "time": 826.4709903333332,
          "velocity": 0.7874015748031497
        },
        {
          "duration": 0.3125,
          "durationTicks": 120,
          "midi": 83,
          "name": "B5",
          "ticks": 296400,
          "time": 826.7834903333332,
          "velocity": 0.7874015748031497
        },
        {
          "duration": 0.3125,
          "durationTicks": 120,
          "midi": 85,
          "name": "C#6",
          "ticks": 296520,
          "time": 827.0959903333332,
          "velocity": 0.7874015748031497
        },
        {
          "duration": 0.15625,
          "durationTicks": 60,
          "midi": 86,
          "name": "D6",
          "ticks": 296700,
          "time": 827.5647403333332,
          "velocity": 0.7874015748031497
        },
        {
          "duration": 0.15625,
          "durationTicks": 60,
          "midi": 81,
          "name": "A5",
          "ticks": 296760,
          "time": 827.7209903333332,
          "velocity": 0.7874015748031497
        },
        {
          "duration": 0.15625,
          "durationTicks": 60,
          "midi": 81,
          "name": "A5",
          "ticks": 296820,
          "time": 827.8772403333332,
          "velocity": 0.7874015748031497
        },
        {
          "duration": 0.15625,
          "durationTicks": 60,
          "midi": 78,
          "name": "F#5",
          "ticks": 296940,
          "time": 828.1897403333332,
          "velocity": 0.7874015748031497
        },
        {
          "duration": 0.15625,
          "durationTicks": 60,
          "midi": 74,
          "name": "D5",
          "ticks": 297000,
          "time": 828.3459903333332,
          "velocity": 0.7874015748031497
        },
        {
          "duration": 0.15625,
          "durationTicks": 60,
          "midi": 74,
          "name": "D5",
          "ticks": 297060,
          "time": 828.5022403333332,
          "velocity": 0.7874015748031497
        },
        {
          "duration": 0.15625,
          "durationTicks": 60,
          "midi": 69,
          "name": "A4",
          "ticks": 297180,
          "time": 828.8147403333332,
          "velocity": 0.7874015748031497
        },
        {
          "duration": 0.15625,
          "durationTicks": 60,
          "midi": 67,
          "name": "G4",
          "ticks": 297240,
          "time": 828.9709903333332,
          "velocity": 0.7874015748031497
        },
        {
          "duration": 0.15625,
          "durationTicks": 60,
          "midi": 66,
          "name": "F#4",
          "ticks": 297300,
          "time": 829.1272403333332,
          "velocity": 0.7874015748031497
        },
        {
          "duration": 0.3125,
          "durationTicks": 120,
          "midi": 64,
          "name": "E4",
          "ticks": 297360,
          "time": 829.2834903333332,
          "velocity": 0.7874015748031497
        },
        {
          "duration": 0.3125,
          "durationTicks": 120,
          "midi": 67,
          "name": "G4",
          "ticks": 297480,
          "time": 829.5959903333332,
          "velocity": 0.7874015748031497
        },
        {
          "duration": 0.3125,
          "durationTicks": 120,
          "midi": 69,
          "name": "A4",
          "ticks": 297600,
          "time": 829.9084903333332,
          "velocity": 0.7874015748031497
        },
        {
          "duration": 0.3125,
          "durationTicks": 120,
          "midi": 73,
          "name": "C#5",
          "ticks": 297720,
          "time": 830.2209903333332,
          "velocity": 0.7874015748031497
        },
        {
          "duration": 0.3125,
          "durationTicks": 120,
          "midi": 76,
          "name": "E5",
          "ticks": 297840,
          "time": 830.5334903333332,
          "velocity": 0.7874015748031497
        },
        {
          "duration": 0.3125,
          "durationTicks": 120,
          "midi": 79,
          "name": "G5",
          "ticks": 297960,
          "time": 830.8459903333332,
          "velocity": 0.7874015748031497
        },
        {
          "duration": 0.15625,
          "durationTicks": 60,
          "midi": 78,
          "name": "F#5",
          "ticks": 298140,
          "time": 831.3147403333332,
          "velocity": 0.7874015748031497
        },
        {
          "duration": 0.15625,
          "durationTicks": 60,
          "midi": 74,
          "name": "D5",
          "ticks": 298200,
          "time": 831.4709903333332,
          "velocity": 0.7874015748031497
        },
        {
          "duration": 0.15625,
          "durationTicks": 60,
          "midi": 74,
          "name": "D5",
          "ticks": 298260,
          "time": 831.6272403333332,
          "velocity": 0.7874015748031497
        },
        {
          "duration": 0.15625,
          "durationTicks": 60,
          "midi": 69,
          "name": "A4",
          "ticks": 298380,
          "time": 831.9397403333332,
          "velocity": 0.7874015748031497
        },
        {
          "duration": 0.15625,
          "durationTicks": 60,
          "midi": 66,
          "name": "F#4",
          "ticks": 298440,
          "time": 832.0959903333332,
          "velocity": 0.7874015748031497
        },
        {
          "duration": 0.15625,
          "durationTicks": 60,
          "midi": 66,
          "name": "F#4",
          "ticks": 298500,
          "time": 832.2522403333332,
          "velocity": 0.7874015748031497
        },
        {
          "duration": 0.15625,
          "durationTicks": 60,
          "midi": 64,
          "name": "E4",
          "ticks": 298620,
          "time": 832.5647403333332,
          "velocity": 0.7874015748031497
        },
        {
          "duration": 0.15625,
          "durationTicks": 60,
          "midi": 62,
          "name": "D4",
          "ticks": 298680,
          "time": 832.7209903333332,
          "velocity": 0.7874015748031497
        },
        {
          "duration": 0.15625,
          "durationTicks": 60,
          "midi": 60,
          "name": "C4",
          "ticks": 298740,
          "time": 832.8772403333332,
          "velocity": 0.7874015748031497
        },
        {
          "duration": 0.3125,
          "durationTicks": 120,
          "midi": 59,
          "name": "B3",
          "ticks": 298800,
          "time": 833.0334903333332,
          "velocity": 0.7874015748031497
        },
        {
          "duration": 0.3125,
          "durationTicks": 120,
          "midi": 62,
          "name": "D4",
          "ticks": 298920,
          "time": 833.3459903333332,
          "velocity": 0.7874015748031497
        },
        {
          "duration": 0.3125,
          "durationTicks": 120,
          "midi": 67,
          "name": "G4",
          "ticks": 299040,
          "time": 833.6584903333332,
          "velocity": 0.7874015748031497
        },
        {
          "duration": 0.3125,
          "durationTicks": 120,
          "midi": 71,
          "name": "B4",
          "ticks": 299160,
          "time": 833.9709903333332,
          "velocity": 0.7874015748031497
        },
        {
          "duration": 0.3125,
          "durationTicks": 120,
          "midi": 74,
          "name": "D5",
          "ticks": 299280,
          "time": 834.2834903333332,
          "velocity": 0.7874015748031497
        },
        {
          "duration": 0.3125,
          "durationTicks": 120,
          "midi": 77,
          "name": "F5",
          "ticks": 299400,
          "time": 834.5959903333332,
          "velocity": 0.7874015748031497
        },
        {
          "duration": 0.3125,
          "durationTicks": 120,
          "midi": 76,
          "name": "E5",
          "ticks": 299580,
          "time": 835.0647403333332,
          "velocity": 0.7874015748031497
        },
        {
          "duration": 0.15625,
          "durationTicks": 60,
          "midi": 72,
          "name": "C5",
          "ticks": 299700,
          "time": 835.3772403333332,
          "velocity": 0.7874015748031497
        },
        {
          "duration": 0.3125,
          "durationTicks": 120,
          "midi": 67,
          "name": "G4",
          "ticks": 299820,
          "time": 835.6897403333332,
          "velocity": 0.7874015748031497
        },
        {
          "duration": 0.15625,
          "durationTicks": 60,
          "midi": 64,
          "name": "E4",
          "ticks": 299940,
          "time": 836.0022403333332,
          "velocity": 0.7874015748031497
        },
        {
          "duration": 0.15625,
          "durationTicks": 60,
          "midi": 60,
          "name": "C4",
          "ticks": 300060,
          "time": 836.3147403333332,
          "velocity": 0.7874015748031497
        },
        {
          "duration": 0.15625,
          "durationTicks": 60,
          "midi": 59,
          "name": "B3",
          "ticks": 300120,
          "time": 836.4709903333332,
          "velocity": 0.7874015748031497
        },
        {
          "duration": 0.15625,
          "durationTicks": 60,
          "midi": 57,
          "name": "A3",
          "ticks": 300180,
          "time": 836.6272403333332,
          "velocity": 0.7874015748031497
        },
        {
          "duration": 0.3125,
          "durationTicks": 120,
          "midi": 62,
          "name": "D4",
          "ticks": 300240,
          "time": 836.7834903333332,
          "velocity": 0.7874015748031497
        },
        {
          "duration": 0.3125,
          "durationTicks": 120,
          "midi": 66,
          "name": "F#4",
          "ticks": 300360,
          "time": 837.0959903333332,
          "velocity": 0.7874015748031497
        },
        {
          "duration": 0.3125,
          "durationTicks": 120,
          "midi": 69,
          "name": "A4",
          "ticks": 300480,
          "time": 837.4084903333332,
          "velocity": 0.7874015748031497
        },
        {
          "duration": 0.3125,
          "durationTicks": 120,
          "midi": 74,
          "name": "D5",
          "ticks": 300600,
          "time": 837.7209903333332,
          "velocity": 0.7874015748031497
        },
        {
          "duration": 0.3125,
          "durationTicks": 120,
          "midi": 78,
          "name": "F#5",
          "ticks": 300720,
          "time": 838.0334903333332,
          "velocity": 0.7874015748031497
        },
        {
          "duration": 0.3125,
          "durationTicks": 120,
          "midi": 81,
          "name": "A5",
          "ticks": 300840,
          "time": 838.3459903333332,
          "velocity": 0.7874015748031497
        },
        {
          "duration": 0.15625,
          "durationTicks": 60,
          "midi": 83,
          "name": "B5",
          "ticks": 301020,
          "time": 838.8147403333332,
          "velocity": 0.7874015748031497
        },
        {
          "duration": 0.15625,
          "durationTicks": 60,
          "midi": 79,
          "name": "G5",
          "ticks": 301080,
          "time": 838.9709903333332,
          "velocity": 0.7874015748031497
        },
        {
          "duration": 0.15625,
          "durationTicks": 60,
          "midi": 79,
          "name": "G5",
          "ticks": 301140,
          "time": 839.1272403333332,
          "velocity": 0.7874015748031497
        },
        {
          "duration": 0.15625,
          "durationTicks": 60,
          "midi": 74,
          "name": "D5",
          "ticks": 301260,
          "time": 839.4397403333332,
          "velocity": 0.7874015748031497
        },
        {
          "duration": 0.15625,
          "durationTicks": 60,
          "midi": 71,
          "name": "B4",
          "ticks": 301320,
          "time": 839.5959903333332,
          "velocity": 0.7874015748031497
        },
        {
          "duration": 0.15625,
          "durationTicks": 60,
          "midi": 71,
          "name": "B4",
          "ticks": 301380,
          "time": 839.7522403333332,
          "velocity": 0.7874015748031497
        },
        {
          "duration": 0.15625,
          "durationTicks": 60,
          "midi": 69,
          "name": "A4",
          "ticks": 301500,
          "time": 840.0647403333332,
          "velocity": 0.7874015748031497
        },
        {
          "duration": 0.15625,
          "durationTicks": 60,
          "midi": 67,
          "name": "G4",
          "ticks": 301560,
          "time": 840.2209903333332,
          "velocity": 0.7874015748031497
        },
        {
          "duration": 0.15625,
          "durationTicks": 60,
          "midi": 66,
          "name": "F#4",
          "ticks": 301620,
          "time": 840.3772403333332,
          "velocity": 0.7874015748031497
        },
        {
          "duration": 0.625,
          "durationTicks": 240,
          "midi": 67,
          "name": "G4",
          "ticks": 301680,
          "time": 840.5334903333332,
          "velocity": 0.7874015748031497
        },
        {
          "duration": 0.05208333333325754,
          "durationTicks": 20,
          "midi": 84,
          "name": "C6",
          "ticks": 301920,
          "time": 841.1584903333332,
          "velocity": 0.7874015748031497
        },
        {
          "duration": 0.05208333333337123,
          "durationTicks": 20,
          "midi": 83,
          "name": "B5",
          "ticks": 301940,
          "time": 841.2105736666665,
          "velocity": 0.7874015748031497
        },
        {
          "duration": 0.05208333333337123,
          "durationTicks": 20,
          "midi": 81,
          "name": "A5",
          "ticks": 301960,
          "time": 841.2626569999999,
          "velocity": 0.7874015748031497
        },
        {
          "duration": 0.46875,
          "durationTicks": 180,
          "midi": 83,
          "name": "B5",
          "ticks": 301980,
          "time": 841.3147403333332,
          "velocity": 0.7874015748031497
        },
        {
          "duration": 0.3125,
          "durationTicks": 120,
          "midi": 64,
          "name": "E4",
          "ticks": 302280,
          "time": 842.0959903333332,
          "velocity": 0.7874015748031497
        },
        {
          "duration": 0.625,
          "durationTicks": 240,
          "midi": 54,
          "name": "F#3",
          "ticks": 302400,
          "time": 842.4084903333332,
          "velocity": 0.7874015748031497
        },
        {
          "duration": 0.05208333333325754,
          "durationTicks": 20,
          "midi": 83,
          "name": "B5",
          "ticks": 302640,
          "time": 843.0334903333332,
          "velocity": 0.7874015748031497
        },
        {
          "duration": 0.05208333333337123,
          "durationTicks": 20,
          "midi": 81,
          "name": "A5",
          "ticks": 302660,
          "time": 843.0855736666665,
          "velocity": 0.7874015748031497
        },
        {
          "duration": 0.05208333333337123,
          "durationTicks": 20,
          "midi": 79,
          "name": "G5",
          "ticks": 302680,
          "time": 843.1376569999999,
          "velocity": 0.7874015748031497
        },
        {
          "duration": 0.46875,
          "durationTicks": 180,
          "midi": 81,
          "name": "A5",
          "ticks": 302700,
          "time": 843.1897403333332,
          "velocity": 0.7874015748031497
        },
        {
          "duration": 0.3125,
          "durationTicks": 120,
          "midi": 62,
          "name": "D4",
          "ticks": 303000,
          "time": 843.9709903333332,
          "velocity": 0.7874015748031497
        },
        {
          "duration": 0.10416666666662877,
          "durationTicks": 40,
          "midi": 71,
          "name": "B4",
          "ticks": 303120,
          "time": 844.2834903333332,
          "velocity": 0.7874015748031497
        },
        {
          "duration": 0.10416666666662877,
          "durationTicks": 40,
          "midi": 72,
          "name": "C5",
          "ticks": 303160,
          "time": 844.3876569999999,
          "velocity": 0.7874015748031497
        },
        {
          "duration": 0.10416666666674246,
          "durationTicks": 40,
          "midi": 71,
          "name": "B4",
          "ticks": 303200,
          "time": 844.4918236666665,
          "velocity": 0.7874015748031497
        },
        {
          "duration": 0.10416666666662877,
          "durationTicks": 40,
          "midi": 69,
          "name": "A4",
          "ticks": 303240,
          "time": 844.5959903333332,
          "velocity": 0.7874015748031497
        },
        {
          "duration": 0.10416666666662877,
          "durationTicks": 40,
          "midi": 71,
          "name": "B4",
          "ticks": 303280,
          "time": 844.7001569999999,
          "velocity": 0.7874015748031497
        },
        {
          "duration": 0.10416666666674246,
          "durationTicks": 40,
          "midi": 69,
          "name": "A4",
          "ticks": 303320,
          "time": 844.8043236666665,
          "velocity": 0.7874015748031497
        },
        {
          "duration": 0.10416666666662877,
          "durationTicks": 40,
          "midi": 67,
          "name": "G4",
          "ticks": 303360,
          "time": 844.9084903333332,
          "velocity": 0.7874015748031497
        },
        {
          "duration": 0.10416666666662877,
          "durationTicks": 40,
          "midi": 69,
          "name": "A4",
          "ticks": 303400,
          "time": 845.0126569999999,
          "velocity": 0.7874015748031497
        },
        {
          "duration": 0.10416666666674246,
          "durationTicks": 40,
          "midi": 67,
          "name": "G4",
          "ticks": 303440,
          "time": 845.1168236666665,
          "velocity": 0.7874015748031497
        },
        {
          "duration": 0.10416666666662877,
          "durationTicks": 40,
          "midi": 66,
          "name": "F#4",
          "ticks": 303480,
          "time": 845.2209903333332,
          "velocity": 0.7874015748031497
        },
        {
          "duration": 0.10416666666662877,
          "durationTicks": 40,
          "midi": 67,
          "name": "G4",
          "ticks": 303520,
          "time": 845.3251569999999,
          "velocity": 0.7874015748031497
        },
        {
          "duration": 0.10416666666674246,
          "durationTicks": 40,
          "midi": 66,
          "name": "F#4",
          "ticks": 303560,
          "time": 845.4293236666665,
          "velocity": 0.7874015748031497
        },
        {
          "duration": 0.10416666666662877,
          "durationTicks": 40,
          "midi": 64,
          "name": "E4",
          "ticks": 303600,
          "time": 845.5334903333332,
          "velocity": 0.7874015748031497
        },
        {
          "duration": 0.10416666666662877,
          "durationTicks": 40,
          "midi": 66,
          "name": "F#4",
          "ticks": 303640,
          "time": 845.6376569999999,
          "velocity": 0.7874015748031497
        },
        {
          "duration": 0.10416666666674246,
          "durationTicks": 40,
          "midi": 64,
          "name": "E4",
          "ticks": 303680,
          "time": 845.7418236666665,
          "velocity": 0.7874015748031497
        },
        {
          "duration": 0.10416666666662877,
          "durationTicks": 40,
          "midi": 62,
          "name": "D4",
          "ticks": 303720,
          "time": 845.8459903333332,
          "velocity": 0.7874015748031497
        },
        {
          "duration": 0.10416666666662877,
          "durationTicks": 40,
          "midi": 64,
          "name": "E4",
          "ticks": 303760,
          "time": 845.9501569999999,
          "velocity": 0.7874015748031497
        },
        {
          "duration": 0.10416666666674246,
          "durationTicks": 40,
          "midi": 62,
          "name": "D4",
          "ticks": 303800,
          "time": 846.0543236666665,
          "velocity": 0.7874015748031497
        },
        {
          "duration": 0.10416666666662877,
          "durationTicks": 40,
          "midi": 61,
          "name": "C#4",
          "ticks": 303840,
          "time": 846.1584903333332,
          "velocity": 0.7874015748031497
        },
        {
          "duration": 0.10416666666662877,
          "durationTicks": 40,
          "midi": 62,
          "name": "D4",
          "ticks": 303880,
          "time": 846.2626569999999,
          "velocity": 0.7874015748031497
        },
        {
          "duration": 0.10416666666674246,
          "durationTicks": 40,
          "midi": 61,
          "name": "C#4",
          "ticks": 303920,
          "time": 846.3668236666665,
          "velocity": 0.7874015748031497
        },
        {
          "duration": 0.10416666666662877,
          "durationTicks": 40,
          "midi": 59,
          "name": "B3",
          "ticks": 303960,
          "time": 846.4709903333332,
          "velocity": 0.7874015748031497
        },
        {
          "duration": 0.10416666666662877,
          "durationTicks": 40,
          "midi": 61,
          "name": "C#4",
          "ticks": 304000,
          "time": 846.5751569999999,
          "velocity": 0.7874015748031497
        },
        {
          "duration": 0.10416666666674246,
          "durationTicks": 40,
          "midi": 59,
          "name": "B3",
          "ticks": 304040,
          "time": 846.6793236666665,
          "velocity": 0.7874015748031497
        },
        {
          "duration": 0.10416666666662877,
          "durationTicks": 40,
          "midi": 57,
          "name": "A3",
          "ticks": 304080,
          "time": 846.7834903333332,
          "velocity": 0.7874015748031497
        },
        {
          "duration": 0.10416666666662877,
          "durationTicks": 40,
          "midi": 59,
          "name": "B3",
          "ticks": 304120,
          "time": 846.8876569999999,
          "velocity": 0.7874015748031497
        },
        {
          "duration": 0.10416666666674246,
          "durationTicks": 40,
          "midi": 57,
          "name": "A3",
          "ticks": 304160,
          "time": 846.9918236666665,
          "velocity": 0.7874015748031497
        },
        {
          "duration": 0.10416666666662877,
          "durationTicks": 40,
          "midi": 55,
          "name": "G3",
          "ticks": 304200,
          "time": 847.0959903333332,
          "velocity": 0.7874015748031497
        },
        {
          "duration": 0.10416666666662877,
          "durationTicks": 40,
          "midi": 57,
          "name": "A3",
          "ticks": 304240,
          "time": 847.2001569999999,
          "velocity": 0.7874015748031497
        },
        {
          "duration": 0.10416666666674246,
          "durationTicks": 40,
          "midi": 55,
          "name": "G3",
          "ticks": 304280,
          "time": 847.3043236666665,
          "velocity": 0.7874015748031497
        },
        {
          "duration": 0.10416666666662877,
          "durationTicks": 40,
          "midi": 54,
          "name": "F#3",
          "ticks": 304320,
          "time": 847.4084903333332,
          "velocity": 0.7874015748031497
        },
        {
          "duration": 0.10416666666662877,
          "durationTicks": 40,
          "midi": 55,
          "name": "G3",
          "ticks": 304360,
          "time": 847.5126569999999,
          "velocity": 0.7874015748031497
        },
        {
          "duration": 0.10416666666674246,
          "durationTicks": 40,
          "midi": 54,
          "name": "F#3",
          "ticks": 304400,
          "time": 847.6168236666665,
          "velocity": 0.7874015748031497
        },
        {
          "duration": 0.10416666666662877,
          "durationTicks": 40,
          "midi": 52,
          "name": "E3",
          "ticks": 304440,
          "time": 847.7209903333332,
          "velocity": 0.7874015748031497
        },
        {
          "duration": 0.10416666666662877,
          "durationTicks": 40,
          "midi": 54,
          "name": "F#3",
          "ticks": 304480,
          "time": 847.8251569999999,
          "velocity": 0.7874015748031497
        },
        {
          "duration": 0.10416666666674246,
          "durationTicks": 40,
          "midi": 52,
          "name": "E3",
          "ticks": 304520,
          "time": 847.9293236666665,
          "velocity": 0.7874015748031497
        },
        {
          "duration": 0.3125,
          "durationTicks": 120,
          "midi": 50,
          "name": "D3",
          "ticks": 304560,
          "time": 848.0334903333332,
          "velocity": 0.7874015748031497
        },
        {
          "duration": 0.3125,
          "durationTicks": 120,
          "midi": 57,
          "name": "A3",
          "ticks": 304680,
          "time": 848.3459903333332,
          "velocity": 0.7874015748031497
        },
        {
          "duration": 0.3125,
          "durationTicks": 120,
          "midi": 66,
          "name": "F#4",
          "ticks": 304800,
          "time": 848.6584903333332,
          "velocity": 0.7874015748031497
        },
        {
          "duration": 0.3125,
          "durationTicks": 120,
          "midi": 57,
          "name": "A3",
          "ticks": 304920,
          "time": 848.9709903333332,
          "velocity": 0.7874015748031497
        },
        {
          "duration": 0.3125,
          "durationTicks": 120,
          "midi": 50,
          "name": "D3",
          "ticks": 305040,
          "time": 849.2834903333332,
          "velocity": 0.7874015748031497
        },
        {
          "duration": 0.3125,
          "durationTicks": 120,
          "midi": 60,
          "name": "C4",
          "ticks": 305160,
          "time": 849.5959903333332,
          "velocity": 0.7874015748031497
        },
        {
          "duration": 0.10416666666662877,
          "durationTicks": 40,
          "midi": 59,
          "name": "B3",
          "ticks": 305280,
          "time": 849.9084903333332,
          "velocity": 0.7874015748031497
        },
        {
          "duration": 0.10416666666662877,
          "durationTicks": 40,
          "midi": 55,
          "name": "G3",
          "ticks": 305320,
          "time": 850.0126569999999,
          "velocity": 0.7874015748031497
        },
        {
          "duration": 0.10416666666674246,
          "durationTicks": 40,
          "midi": 62,
          "name": "D4",
          "ticks": 305360,
          "time": 850.1168236666665,
          "velocity": 0.7874015748031497
        },
        {
          "duration": 0.10416666666662877,
          "durationTicks": 40,
          "midi": 61,
          "name": "C#4",
          "ticks": 305400,
          "time": 850.2209903333332,
          "velocity": 0.7874015748031497
        },
        {
          "duration": 0.10416666666662877,
          "durationTicks": 40,
          "midi": 57,
          "name": "A3",
          "ticks": 305440,
          "time": 850.3251569999999,
          "velocity": 0.7874015748031497
        },
        {
          "duration": 0.10416666666674246,
          "durationTicks": 40,
          "midi": 64,
          "name": "E4",
          "ticks": 305480,
          "time": 850.4293236666665,
          "velocity": 0.7874015748031497
        },
        {
          "duration": 0.10416666666662877,
          "durationTicks": 40,
          "midi": 62,
          "name": "D4",
          "ticks": 305520,
          "time": 850.5334903333332,
          "velocity": 0.7874015748031497
        },
        {
          "duration": 0.10416666666662877,
          "durationTicks": 40,
          "midi": 59,
          "name": "B3",
          "ticks": 305560,
          "time": 850.6376569999999,
          "velocity": 0.7874015748031497
        },
        {
          "duration": 0.10416666666674246,
          "durationTicks": 40,
          "midi": 66,
          "name": "F#4",
          "ticks": 305600,
          "time": 850.7418236666665,
          "velocity": 0.7874015748031497
        },
        {
          "duration": 0.10416666666662877,
          "durationTicks": 40,
          "midi": 64,
          "name": "E4",
          "ticks": 305640,
          "time": 850.8459903333332,
          "velocity": 0.7874015748031497
        },
        {
          "duration": 0.10416666666662877,
          "durationTicks": 40,
          "midi": 61,
          "name": "C#4",
          "ticks": 305680,
          "time": 850.9501569999999,
          "velocity": 0.7874015748031497
        },
        {
          "duration": 0.10416666666674246,
          "durationTicks": 40,
          "midi": 67,
          "name": "G4",
          "ticks": 305720,
          "time": 851.0543236666665,
          "velocity": 0.7874015748031497
        },
        {
          "duration": 0.10416666666662877,
          "durationTicks": 40,
          "midi": 66,
          "name": "F#4",
          "ticks": 305760,
          "time": 851.1584903333332,
          "velocity": 0.7874015748031497
        },
        {
          "duration": 0.10416666666662877,
          "durationTicks": 40,
          "midi": 62,
          "name": "D4",
          "ticks": 305800,
          "time": 851.2626569999999,
          "velocity": 0.7874015748031497
        },
        {
          "duration": 0.10416666666674246,
          "durationTicks": 40,
          "midi": 69,
          "name": "A4",
          "ticks": 305840,
          "time": 851.3668236666665,
          "velocity": 0.7874015748031497
        },
        {
          "duration": 0.10416666666662877,
          "durationTicks": 40,
          "midi": 67,
          "name": "G4",
          "ticks": 305880,
          "time": 851.4709903333332,
          "velocity": 0.7874015748031497
        },
        {
          "duration": 0.10416666666662877,
          "durationTicks": 40,
          "midi": 64,
          "name": "E4",
          "ticks": 305920,
          "time": 851.5751569999999,
          "velocity": 0.7874015748031497
        },
        {
          "duration": 0.10416666666674246,
          "durationTicks": 40,
          "midi": 71,
          "name": "B4",
          "ticks": 305960,
          "time": 851.6793236666665,
          "velocity": 0.7874015748031497
        },
        {
          "duration": 0.41666666666662877,
          "durationTicks": 160,
          "midi": 69,
          "name": "A4",
          "ticks": 306000,
          "time": 851.7834903333332,
          "velocity": 0.7874015748031497
        },
        {
          "duration": 0.10416666666662877,
          "durationTicks": 40,
          "midi": 71,
          "name": "B4",
          "ticks": 306160,
          "time": 852.2001569999999,
          "velocity": 0.7874015748031497
        },
        {
          "duration": 0.10416666666674246,
          "durationTicks": 40,
          "midi": 73,
          "name": "C#5",
          "ticks": 306200,
          "time": 852.3043236666665,
          "velocity": 0.7874015748031497
        },
        {
          "duration": 0.10416666666662877,
          "durationTicks": 40,
          "midi": 74,
          "name": "D5",
          "ticks": 306240,
          "time": 852.4084903333332,
          "velocity": 0.7874015748031497
        },
        {
          "duration": 0.10416666666662877,
          "durationTicks": 40,
          "midi": 73,
          "name": "C#5",
          "ticks": 306280,
          "time": 852.5126569999999,
          "velocity": 0.7874015748031497
        },
        {
          "duration": 0.10416666666674246,
          "durationTicks": 40,
          "midi": 71,
          "name": "B4",
          "ticks": 306320,
          "time": 852.6168236666665,
          "velocity": 0.7874015748031497
        },
        {
          "duration": 0.41666666666662877,
          "durationTicks": 160,
          "midi": 69,
          "name": "A4",
          "ticks": 306360,
          "time": 852.7209903333332,
          "velocity": 0.7874015748031497
        },
        {
          "duration": 0.10416666666662877,
          "durationTicks": 40,
          "midi": 67,
          "name": "G4",
          "ticks": 306520,
          "time": 853.1376569999999,
          "velocity": 0.7874015748031497
        },
        {
          "duration": 0.10416666666674246,
          "durationTicks": 40,
          "midi": 66,
          "name": "F#4",
          "ticks": 306560,
          "time": 853.2418236666665,
          "velocity": 0.7874015748031497
        },
        {
          "duration": 0.10416666666662877,
          "durationTicks": 40,
          "midi": 64,
          "name": "E4",
          "ticks": 306600,
          "time": 853.3459903333332,
          "velocity": 0.7874015748031497
        },
        {
          "duration": 0.10416666666662877,
          "durationTicks": 40,
          "midi": 66,
          "name": "F#4",
          "ticks": 306640,
          "time": 853.4501569999999,
          "velocity": 0.7874015748031497
        },
        {
          "duration": 0.10416666666674246,
          "durationTicks": 40,
          "midi": 67,
          "name": "G4",
          "ticks": 306680,
          "time": 853.5543236666665,
          "velocity": 0.7874015748031497
        },
        {
          "duration": 0.3125,
          "durationTicks": 120,
          "midi": 74,
          "name": "D5",
          "ticks": 306720,
          "time": 853.6584903333332,
          "velocity": 0.7874015748031497
        },
        {
          "duration": 0.10416666666662877,
          "durationTicks": 40,
          "midi": 50,
          "name": "D3",
          "ticks": 306960,
          "time": 854.2834903333332,
          "velocity": 0.7874015748031497
        },
        {
          "duration": 0.10416666666662877,
          "durationTicks": 40,
          "midi": 66,
          "name": "F#4",
          "ticks": 307000,
          "time": 854.3876569999999,
          "velocity": 0.7874015748031497
        },
        {
          "duration": 0.10416666666674246,
          "durationTicks": 40,
          "midi": 69,
          "name": "A4",
          "ticks": 307040,
          "time": 854.4918236666665,
          "velocity": 0.7874015748031497
        },
        {
          "duration": 0.10416666666662877,
          "durationTicks": 40,
          "midi": 74,
          "name": "D5",
          "ticks": 307080,
          "time": 854.5959903333332,
          "velocity": 0.7874015748031497
        },
        {
          "duration": 0.10416666666662877,
          "durationTicks": 40,
          "midi": 78,
          "name": "F#5",
          "ticks": 307120,
          "time": 854.7001569999999,
          "velocity": 0.7874015748031497
        },
        {
          "duration": 0.10416666666674246,
          "durationTicks": 40,
          "midi": 81,
          "name": "A5",
          "ticks": 307160,
          "time": 854.8043236666665,
          "velocity": 0.7874015748031497
        },
        {
          "duration": 0.625,
          "durationTicks": 240,
          "midi": 86,
          "name": "D6",
          "ticks": 307200,
          "time": 854.9084903333332,
          "velocity": 0.7874015748031497
        },
        {
          "duration": 0.3125,
          "durationTicks": 120,
          "midi": 50,
          "name": "D3",
          "ticks": 307440,
          "time": 855.5334903333332,
          "velocity": 0.7874015748031497
        },
        {
          "duration": 0.3125,
          "durationTicks": 120,
          "midi": 38,
          "name": "D2",
          "ticks": 307560,
          "time": 855.8459903333332,
          "velocity": 0.7874015748031497
        },
        {
          "duration": 0.3125,
          "durationTicks": 120,
          "midi": 42,
          "name": "F#2",
          "ticks": 307680,
          "time": 856.1584903333332,
          "velocity": 0.7874015748031497
        },
        {
          "duration": 0.3125,
          "durationTicks": 120,
          "midi": 45,
          "name": "A2",
          "ticks": 307800,
          "time": 856.4709903333332,
          "velocity": 0.7874015748031497
        },
        {
          "duration": 0.3125,
          "durationTicks": 120,
          "midi": 50,
          "name": "D3",
          "ticks": 307920,
          "time": 856.7834903333332,
          "velocity": 0.7874015748031497
        },
        {
          "duration": 0.3125,
          "durationTicks": 120,
          "midi": 54,
          "name": "F#3",
          "ticks": 308040,
          "time": 857.0959903333332,
          "velocity": 0.7874015748031497
        },
        {
          "duration": 0.3125,
          "durationTicks": 120,
          "midi": 55,
          "name": "G3",
          "ticks": 308160,
          "time": 857.4084903333332,
          "velocity": 0.7874015748031497
        },
        {
          "duration": 0.3125,
          "durationTicks": 120,
          "midi": 59,
          "name": "B3",
          "ticks": 308280,
          "time": 857.7209903333332,
          "velocity": 0.7874015748031497
        },
        {
          "duration": 0.3125,
          "durationTicks": 120,
          "midi": 62,
          "name": "D4",
          "ticks": 308400,
          "time": 858.0334903333332,
          "velocity": 0.7874015748031497
        },
        {
          "duration": 0.3125,
          "durationTicks": 120,
          "midi": 67,
          "name": "G4",
          "ticks": 308520,
          "time": 858.3459903333332,
          "velocity": 0.7874015748031497
        },
        {
          "duration": 0.05208333333325754,
          "durationTicks": 20,
          "midi": 72,
          "name": "C5",
          "ticks": 308640,
          "time": 858.6584903333332,
          "velocity": 0.7874015748031497
        },
        {
          "duration": 0.05208333333337123,
          "durationTicks": 20,
          "midi": 71,
          "name": "B4",
          "ticks": 308660,
          "time": 858.7105736666665,
          "velocity": 0.7874015748031497
        },
        {
          "duration": 0.05208333333337123,
          "durationTicks": 20,
          "midi": 69,
          "name": "A4",
          "ticks": 308680,
          "time": 858.7626569999999,
          "velocity": 0.7874015748031497
        },
        {
          "duration": 0.5729166666666288,
          "durationTicks": 220,
          "midi": 71,
          "name": "B4",
          "ticks": 308700,
          "time": 858.8147403333332,
          "velocity": 0.7874015748031497
        },
        {
          "duration": 0.10416666666662877,
          "durationTicks": 40,
          "midi": 64,
          "name": "E4",
          "ticks": 308920,
          "time": 859.3876569999999,
          "velocity": 0.7874015748031497
        },
        {
          "duration": 0.10416666666674246,
          "durationTicks": 40,
          "midi": 63,
          "name": "D#4",
          "ticks": 308960,
          "time": 859.4918236666665,
          "velocity": 0.7874015748031497
        },
        {
          "duration": 0.10416666666662877,
          "durationTicks": 40,
          "midi": 64,
          "name": "E4",
          "ticks": 309000,
          "time": 859.5959903333332,
          "velocity": 0.7874015748031497
        },
        {
          "duration": 0.10416666666662877,
          "durationTicks": 40,
          "midi": 66,
          "name": "F#4",
          "ticks": 309040,
          "time": 859.7001569999999,
          "velocity": 0.7874015748031497
        },
        {
          "duration": 0.10416666666674246,
          "durationTicks": 40,
          "midi": 67,
          "name": "G4",
          "ticks": 309080,
          "time": 859.8043236666665,
          "velocity": 0.7874015748031497
        },
        {
          "duration": 0.10416666666662877,
          "durationTicks": 40,
          "midi": 69,
          "name": "A4",
          "ticks": 309120,
          "time": 859.9084903333332,
          "velocity": 0.7874015748031497
        },
        {
          "duration": 0.10416666666662877,
          "durationTicks": 40,
          "midi": 67,
          "name": "G4",
          "ticks": 309160,
          "time": 860.0126569999999,
          "velocity": 0.7874015748031497
        },
        {
          "duration": 0.10416666666674246,
          "durationTicks": 40,
          "midi": 66,
          "name": "F#4",
          "ticks": 309200,
          "time": 860.1168236666665,
          "velocity": 0.7874015748031497
        },
        {
          "duration": 0.10416666666662877,
          "durationTicks": 40,
          "midi": 67,
          "name": "G4",
          "ticks": 309240,
          "time": 860.2209903333332,
          "velocity": 0.7874015748031497
        },
        {
          "duration": 0.10416666666662877,
          "durationTicks": 40,
          "midi": 69,
          "name": "A4",
          "ticks": 309280,
          "time": 860.3251569999999,
          "velocity": 0.7874015748031497
        },
        {
          "duration": 0.10416666666674246,
          "durationTicks": 40,
          "midi": 71,
          "name": "B4",
          "ticks": 309320,
          "time": 860.4293236666665,
          "velocity": 0.7874015748031497
        },
        {
          "duration": 0.10416666666662877,
          "durationTicks": 40,
          "midi": 72,
          "name": "C5",
          "ticks": 309360,
          "time": 860.5334903333332,
          "velocity": 0.7874015748031497
        },
        {
          "duration": 0.10416666666662877,
          "durationTicks": 40,
          "midi": 71,
          "name": "B4",
          "ticks": 309400,
          "time": 860.6376569999999,
          "velocity": 0.7874015748031497
        },
        {
          "duration": 0.10416666666674246,
          "durationTicks": 40,
          "midi": 69,
          "name": "A4",
          "ticks": 309440,
          "time": 860.7418236666665,
          "velocity": 0.7874015748031497
        },
        {
          "duration": 0.10416666666662877,
          "durationTicks": 40,
          "midi": 67,
          "name": "G4",
          "ticks": 309480,
          "time": 860.8459903333332,
          "velocity": 0.7874015748031497
        },
        {
          "duration": 0.10416666666662877,
          "durationTicks": 40,
          "midi": 66,
          "name": "F#4",
          "ticks": 309520,
          "time": 860.9501569999999,
          "velocity": 0.7874015748031497
        },
        {
          "duration": 0.10416666666674246,
          "durationTicks": 40,
          "midi": 64,
          "name": "E4",
          "ticks": 309560,
          "time": 861.0543236666665,
          "velocity": 0.7874015748031497
        },
        {
          "duration": 0.41666666666662877,
          "durationTicks": 160,
          "midi": 63,
          "name": "D#4",
          "ticks": 309600,
          "time": 861.1584903333332,
          "velocity": 0.7874015748031497
        },
        {
          "duration": 0.10416666666662877,
          "durationTicks": 40,
          "midi": 64,
          "name": "E4",
          "ticks": 309760,
          "time": 861.5751569999999,
          "velocity": 0.7874015748031497
        },
        {
          "duration": 0.10416666666674246,
          "durationTicks": 40,
          "midi": 66,
          "name": "F#4",
          "ticks": 309800,
          "time": 861.6793236666665,
          "velocity": 0.7874015748031497
        },
        {
          "duration": 0.10416666666662877,
          "durationTicks": 40,
          "midi": 67,
          "name": "G4",
          "ticks": 309840,
          "time": 861.7834903333332,
          "velocity": 0.7874015748031497
        },
        {
          "duration": 0.10416666666662877,
          "durationTicks": 40,
          "midi": 66,
          "name": "F#4",
          "ticks": 309880,
          "time": 861.8876569999999,
          "velocity": 0.7874015748031497
        },
        {
          "duration": 0.10416666666674246,
          "durationTicks": 40,
          "midi": 64,
          "name": "E4",
          "ticks": 309920,
          "time": 861.9918236666665,
          "velocity": 0.7874015748031497
        },
        {
          "duration": 0.10416666666662877,
          "durationTicks": 40,
          "midi": 66,
          "name": "F#4",
          "ticks": 309960,
          "time": 862.0959903333332,
          "velocity": 0.7874015748031497
        },
        {
          "duration": 0.10416666666662877,
          "durationTicks": 40,
          "midi": 67,
          "name": "G4",
          "ticks": 310000,
          "time": 862.2001569999999,
          "velocity": 0.7874015748031497
        },
        {
          "duration": 0.10416666666674246,
          "durationTicks": 40,
          "midi": 69,
          "name": "A4",
          "ticks": 310040,
          "time": 862.3043236666665,
          "velocity": 0.7874015748031497
        },
        {
          "duration": 0.3125,
          "durationTicks": 120,
          "midi": 59,
          "name": "B3",
          "ticks": 310080,
          "time": 862.4084903333332,
          "velocity": 0.7874015748031497
        },
        {
          "duration": 0.3125,
          "durationTicks": 120,
          "midi": 57,
          "name": "A3",
          "ticks": 310200,
          "time": 862.7209903333332,
          "velocity": 0.7874015748031497
        },
        {
          "duration": 0.10416666666662877,
          "durationTicks": 40,
          "midi": 55,
          "name": "G3",
          "ticks": 310320,
          "time": 863.0334903333332,
          "velocity": 0.7874015748031497
        },
        {
          "duration": 0.10416666666662877,
          "durationTicks": 40,
          "midi": 54,
          "name": "F#3",
          "ticks": 310360,
          "time": 863.1376569999999,
          "velocity": 0.7874015748031497
        },
        {
          "duration": 0.10416666666674246,
          "durationTicks": 40,
          "midi": 52,
          "name": "E3",
          "ticks": 310400,
          "time": 863.2418236666665,
          "velocity": 0.7874015748031497
        },
        {
          "duration": 0.10416666666662877,
          "durationTicks": 40,
          "midi": 51,
          "name": "D#3",
          "ticks": 310480,
          "time": 863.4501569999999,
          "velocity": 0.7874015748031497
        },
        {
          "duration": 0.10416666666674246,
          "durationTicks": 40,
          "midi": 52,
          "name": "E3",
          "ticks": 310520,
          "time": 863.5543236666665,
          "velocity": 0.7874015748031497
        },
        {
          "duration": 0.10416666666662877,
          "durationTicks": 40,
          "midi": 53,
          "name": "F3",
          "ticks": 310560,
          "time": 863.6584903333332,
          "velocity": 0.7874015748031497
        },
        {
          "duration": 0.10416666666662877,
          "durationTicks": 40,
          "midi": 52,
          "name": "E3",
          "ticks": 310600,
          "time": 863.7626569999999,
          "velocity": 0.7874015748031497
        },
        {
          "duration": 0.10416666666674246,
          "durationTicks": 40,
          "midi": 53,
          "name": "F3",
          "ticks": 310640,
          "time": 863.8668236666665,
          "velocity": 0.7874015748031497
        },
        {
          "duration": 0.10416666666662877,
          "durationTicks": 40,
          "midi": 54,
          "name": "F#3",
          "ticks": 310680,
          "time": 863.9709903333332,
          "velocity": 0.7874015748031497
        },
        {
          "duration": 0.10416666666662877,
          "durationTicks": 40,
          "midi": 52,
          "name": "E3",
          "ticks": 310720,
          "time": 864.0751569999999,
          "velocity": 0.7874015748031497
        },
        {
          "duration": 0.10416666666674246,
          "durationTicks": 40,
          "midi": 54,
          "name": "F#3",
          "ticks": 310760,
          "time": 864.1793236666665,
          "velocity": 0.7874015748031497
        },
        {
          "duration": 0.10416666666662877,
          "durationTicks": 40,
          "midi": 55,
          "name": "G3",
          "ticks": 310800,
          "time": 864.2834903333332,
          "velocity": 0.7874015748031497
        },
        {
          "duration": 0.10416666666662877,
          "durationTicks": 40,
          "midi": 54,
          "name": "F#3",
          "ticks": 310840,
          "time": 864.3876569999999,
          "velocity": 0.7874015748031497
        },
        {
          "duration": 0.10416666666674246,
          "durationTicks": 40,
          "midi": 55,
          "name": "G3",
          "ticks": 310880,
          "time": 864.4918236666665,
          "velocity": 0.7874015748031497
        },
        {
          "duration": 0.10416666666662877,
          "durationTicks": 40,
          "midi": 56,
          "name": "G#3",
          "ticks": 310920,
          "time": 864.5959903333332,
          "velocity": 0.7874015748031497
        },
        {
          "duration": 0.10416666666662877,
          "durationTicks": 40,
          "midi": 54,
          "name": "F#3",
          "ticks": 310960,
          "time": 864.7001569999999,
          "velocity": 0.7874015748031497
        },
        {
          "duration": 0.10416666666674246,
          "durationTicks": 40,
          "midi": 56,
          "name": "G#3",
          "ticks": 311000,
          "time": 864.8043236666665,
          "velocity": 0.7874015748031497
        },
        {
          "duration": 0.44270833333325754,
          "durationTicks": 170,
          "midi": 57,
          "name": "A3",
          "ticks": 311040,
          "time": 864.9084903333332,
          "velocity": 0.7874015748031497
        },
        {
          "duration": 0.078125,
          "durationTicks": 30,
          "midi": 58,
          "name": "A#3",
          "ticks": 311210,
          "time": 865.3511986666665,
          "velocity": 0.7874015748031497
        },
        {
          "duration": 0.10416666666674246,
          "durationTicks": 40,
          "midi": 59,
          "name": "B3",
          "ticks": 311240,
          "time": 865.4293236666665,
          "velocity": 0.7874015748031497
        },
        {
          "duration": 0.10416666666662877,
          "durationTicks": 40,
          "midi": 60,
          "name": "C4",
          "ticks": 311280,
          "time": 865.5334903333332,
          "velocity": 0.7874015748031497
        },
        {
          "duration": 0.10416666666662877,
          "durationTicks": 40,
          "midi": 59,
          "name": "B3",
          "ticks": 311320,
          "time": 865.6376569999999,
          "velocity": 0.7874015748031497
        },
        {
          "duration": 0.10416666666674246,
          "durationTicks": 40,
          "midi": 60,
          "name": "C4",
          "ticks": 311360,
          "time": 865.7418236666665,
          "velocity": 0.7874015748031497
        },
        {
          "duration": 0.10416666666662877,
          "durationTicks": 40,
          "midi": 61,
          "name": "C#4",
          "ticks": 311400,
          "time": 865.8459903333332,
          "velocity": 0.7874015748031497
        },
        {
          "duration": 0.10416666666662877,
          "durationTicks": 40,
          "midi": 59,
          "name": "B3",
          "ticks": 311440,
          "time": 865.9501569999999,
          "velocity": 0.7874015748031497
        },
        {
          "duration": 0.10416666666674246,
          "durationTicks": 40,
          "midi": 61,
          "name": "C#4",
          "ticks": 311480,
          "time": 866.0543236666665,
          "velocity": 0.7874015748031497
        },
        {
          "duration": 0.10416666666662877,
          "durationTicks": 40,
          "midi": 62,
          "name": "D4",
          "ticks": 311520,
          "time": 866.1584903333332,
          "velocity": 0.7874015748031497
        },
        {
          "duration": 0.10416666666662877,
          "durationTicks": 40,
          "midi": 61,
          "name": "C#4",
          "ticks": 311560,
          "time": 866.2626569999999,
          "velocity": 0.7874015748031497
        },
        {
          "duration": 0.10416666666674246,
          "durationTicks": 40,
          "midi": 62,
          "name": "D4",
          "ticks": 311600,
          "time": 866.3668236666665,
          "velocity": 0.7874015748031497
        },
        {
          "duration": 0.10416666666662877,
          "durationTicks": 40,
          "midi": 63,
          "name": "D#4",
          "ticks": 311640,
          "time": 866.4709903333332,
          "velocity": 0.7874015748031497
        },
        {
          "duration": 0.10416666666662877,
          "durationTicks": 40,
          "midi": 61,
          "name": "C#4",
          "ticks": 311680,
          "time": 866.5751569999999,
          "velocity": 0.7874015748031497
        },
        {
          "duration": 0.10416666666674246,
          "durationTicks": 40,
          "midi": 63,
          "name": "D#4",
          "ticks": 311720,
          "time": 866.6793236666665,
          "velocity": 0.7874015748031497
        },
        {
          "duration": 0.10416666666662877,
          "durationTicks": 40,
          "midi": 64,
          "name": "E4",
          "ticks": 311760,
          "time": 866.7834903333332,
          "velocity": 0.7874015748031497
        },
        {
          "duration": 0.10416666666662877,
          "durationTicks": 40,
          "midi": 63,
          "name": "D#4",
          "ticks": 311800,
          "time": 866.8876569999999,
          "velocity": 0.7874015748031497
        },
        {
          "duration": 0.10416666666674246,
          "durationTicks": 40,
          "midi": 64,
          "name": "E4",
          "ticks": 311840,
          "time": 866.9918236666665,
          "velocity": 0.7874015748031497
        },
        {
          "duration": 0.10416666666662877,
          "durationTicks": 40,
          "midi": 66,
          "name": "F#4",
          "ticks": 311880,
          "time": 867.0959903333332,
          "velocity": 0.7874015748031497
        },
        {
          "duration": 0.10416666666662877,
          "durationTicks": 40,
          "midi": 64,
          "name": "E4",
          "ticks": 311920,
          "time": 867.2001569999999,
          "velocity": 0.7874015748031497
        },
        {
          "duration": 0.10416666666674246,
          "durationTicks": 40,
          "midi": 66,
          "name": "F#4",
          "ticks": 311960,
          "time": 867.3043236666665,
          "velocity": 0.7874015748031497
        },
        {
          "duration": 0.10416666666662877,
          "durationTicks": 40,
          "midi": 67,
          "name": "G4",
          "ticks": 312000,
          "time": 867.4084903333332,
          "velocity": 0.7874015748031497
        },
        {
          "duration": 0.10416666666662877,
          "durationTicks": 40,
          "midi": 66,
          "name": "F#4",
          "ticks": 312040,
          "time": 867.5126569999999,
          "velocity": 0.7874015748031497
        },
        {
          "duration": 0.10416666666674246,
          "durationTicks": 40,
          "midi": 67,
          "name": "G4",
          "ticks": 312080,
          "time": 867.6168236666665,
          "velocity": 0.7874015748031497
        },
        {
          "duration": 0.10416666666662877,
          "durationTicks": 40,
          "midi": 69,
          "name": "A4",
          "ticks": 312120,
          "time": 867.7209903333332,
          "velocity": 0.7874015748031497
        },
        {
          "duration": 0.10416666666662877,
          "durationTicks": 40,
          "midi": 67,
          "name": "G4",
          "ticks": 312160,
          "time": 867.8251569999999,
          "velocity": 0.7874015748031497
        },
        {
          "duration": 0.10416666666674246,
          "durationTicks": 40,
          "midi": 69,
          "name": "A4",
          "ticks": 312200,
          "time": 867.9293236666665,
          "velocity": 0.7874015748031497
        },
        {
          "duration": 0.10416666666662877,
          "durationTicks": 40,
          "midi": 71,
          "name": "B4",
          "ticks": 312240,
          "time": 868.0334903333332,
          "velocity": 0.7874015748031497
        },
        {
          "duration": 0.10416666666662877,
          "durationTicks": 40,
          "midi": 69,
          "name": "A4",
          "ticks": 312280,
          "time": 868.1376569999999,
          "velocity": 0.7874015748031497
        },
        {
          "duration": 0.10416666666674246,
          "durationTicks": 40,
          "midi": 71,
          "name": "B4",
          "ticks": 312320,
          "time": 868.2418236666665,
          "velocity": 0.7874015748031497
        },
        {
          "duration": 0.10416666666662877,
          "durationTicks": 40,
          "midi": 72,
          "name": "C5",
          "ticks": 312360,
          "time": 868.3459903333332,
          "velocity": 0.7874015748031497
        },
        {
          "duration": 0.10416666666662877,
          "durationTicks": 40,
          "midi": 71,
          "name": "B4",
          "ticks": 312400,
          "time": 868.4501569999999,
          "velocity": 0.7874015748031497
        },
        {
          "duration": 0.10416666666674246,
          "durationTicks": 40,
          "midi": 69,
          "name": "A4",
          "ticks": 312440,
          "time": 868.5543236666665,
          "velocity": 0.7874015748031497
        },
        {
          "duration": 0.10416666666662877,
          "durationTicks": 40,
          "midi": 67,
          "name": "G4",
          "ticks": 312480,
          "time": 868.6584903333332,
          "velocity": 0.7874015748031497
        },
        {
          "duration": 0.10416666666662877,
          "durationTicks": 40,
          "midi": 66,
          "name": "F#4",
          "ticks": 312520,
          "time": 868.7626569999999,
          "velocity": 0.7874015748031497
        },
        {
          "duration": 0.10416666666674246,
          "durationTicks": 40,
          "midi": 67,
          "name": "G4",
          "ticks": 312560,
          "time": 868.8668236666665,
          "velocity": 0.7874015748031497
        },
        {
          "duration": 0.10416666666662877,
          "durationTicks": 40,
          "midi": 69,
          "name": "A4",
          "ticks": 312600,
          "time": 868.9709903333332,
          "velocity": 0.7874015748031497
        },
        {
          "duration": 0.10416666666662877,
          "durationTicks": 40,
          "midi": 67,
          "name": "G4",
          "ticks": 312640,
          "time": 869.0751569999999,
          "velocity": 0.7874015748031497
        },
        {
          "duration": 0.10416666666674246,
          "durationTicks": 40,
          "midi": 66,
          "name": "F#4",
          "ticks": 312680,
          "time": 869.1793236666665,
          "velocity": 0.7874015748031497
        },
        {
          "duration": 0.9375,
          "durationTicks": 360,
          "midi": 64,
          "name": "E4",
          "ticks": 312720,
          "time": 869.2834903333332,
          "velocity": 0.7874015748031497
        },
        {
          "duration": 0.3125,
          "durationTicks": 120,
          "midi": 50,
          "name": "D3",
          "ticks": 313080,
          "time": 870.2209903333332,
          "velocity": 0.7874015748031497
        },
        {
          "duration": 0.3125,
          "durationTicks": 120,
          "midi": 48,
          "name": "C3",
          "ticks": 313200,
          "time": 870.5334903333332,
          "velocity": 0.7874015748031497
        },
        {
          "duration": 0.3125,
          "durationTicks": 120,
          "midi": 64,
          "name": "E4",
          "ticks": 313320,
          "time": 870.8459903333332,
          "velocity": 0.7874015748031497
        },
        {
          "duration": 0.3125,
          "durationTicks": 120,
          "midi": 64,
          "name": "E4",
          "ticks": 313440,
          "time": 871.1584903333332,
          "velocity": 0.7874015748031497
        },
        {
          "duration": 0.3125,
          "durationTicks": 120,
          "midi": 64,
          "name": "E4",
          "ticks": 313560,
          "time": 871.4709903333332,
          "velocity": 0.7874015748031497
        },
        {
          "duration": 0.3125,
          "durationTicks": 120,
          "midi": 64,
          "name": "E4",
          "ticks": 313680,
          "time": 871.7834903333332,
          "velocity": 0.7874015748031497
        },
        {
          "duration": 0.3125,
          "durationTicks": 120,
          "midi": 48,
          "name": "C3",
          "ticks": 313800,
          "time": 872.0959903333332,
          "velocity": 0.7874015748031497
        },
        {
          "duration": 0.3125,
          "durationTicks": 120,
          "midi": 47,
          "name": "B2",
          "ticks": 313920,
          "time": 872.4084903333332,
          "velocity": 0.7874015748031497
        },
        {
          "duration": 0.3125,
          "durationTicks": 120,
          "midi": 62,
          "name": "D4",
          "ticks": 314040,
          "time": 872.7209903333332,
          "velocity": 0.7874015748031497
        },
        {
          "duration": 0.3125,
          "durationTicks": 120,
          "midi": 62,
          "name": "D4",
          "ticks": 314160,
          "time": 873.0334903333332,
          "velocity": 0.7874015748031497
        },
        {
          "duration": 0.3125,
          "durationTicks": 120,
          "midi": 62,
          "name": "D4",
          "ticks": 314280,
          "time": 873.3459903333332,
          "velocity": 0.7874015748031497
        },
        {
          "duration": 0.3125,
          "durationTicks": 120,
          "midi": 62,
          "name": "D4",
          "ticks": 314400,
          "time": 873.6584903333332,
          "velocity": 0.7874015748031497
        },
        {
          "duration": 0.3125,
          "durationTicks": 120,
          "midi": 47,
          "name": "B2",
          "ticks": 314520,
          "time": 873.9709903333332,
          "velocity": 0.7874015748031497
        },
        {
          "duration": 0.41666666666662877,
          "durationTicks": 160,
          "midi": 45,
          "name": "A2",
          "ticks": 314640,
          "time": 874.2834903333332,
          "velocity": 0.7874015748031497
        },
        {
          "duration": 0.10416666666662877,
          "durationTicks": 40,
          "midi": 59,
          "name": "B3",
          "ticks": 314800,
          "time": 874.7001569999999,
          "velocity": 0.7874015748031497
        },
        {
          "duration": 0.10416666666674246,
          "durationTicks": 40,
          "midi": 67,
          "name": "G4",
          "ticks": 314840,
          "time": 874.8043236666665,
          "velocity": 0.7874015748031497
        },
        {
          "duration": 0.10416666666662877,
          "durationTicks": 40,
          "midi": 57,
          "name": "A3",
          "ticks": 314920,
          "time": 875.0126569999999,
          "velocity": 0.7874015748031497
        },
        {
          "duration": 0.10416666666674246,
          "durationTicks": 40,
          "midi": 66,
          "name": "F#4",
          "ticks": 314960,
          "time": 875.1168236666665,
          "velocity": 0.7874015748031497
        },
        {
          "duration": 0.10416666666662877,
          "durationTicks": 40,
          "midi": 55,
          "name": "G3",
          "ticks": 315040,
          "time": 875.3251569999999,
          "velocity": 0.7874015748031497
        },
        {
          "duration": 0.10416666666674246,
          "durationTicks": 40,
          "midi": 64,
          "name": "E4",
          "ticks": 315080,
          "time": 875.4293236666665,
          "velocity": 0.7874015748031497
        },
        {
          "duration": 0.10416666666662877,
          "durationTicks": 40,
          "midi": 54,
          "name": "F#3",
          "ticks": 315160,
          "time": 875.6376569999999,
          "velocity": 0.7874015748031497
        },
        {
          "duration": 0.10416666666674246,
          "durationTicks": 40,
          "midi": 62,
          "name": "D4",
          "ticks": 315200,
          "time": 875.7418236666665,
          "velocity": 0.7874015748031497
        },
        {
          "duration": 0.10416666666662877,
          "durationTicks": 40,
          "midi": 55,
          "name": "G3",
          "ticks": 315280,
          "time": 875.9501569999999,
          "velocity": 0.7874015748031497
        },
        {
          "duration": 0.10416666666674246,
          "durationTicks": 40,
          "midi": 64,
          "name": "E4",
          "ticks": 315320,
          "time": 876.0543236666665,
          "velocity": 0.7874015748031497
        },
        {
          "duration": 0.41666666666662877,
          "durationTicks": 160,
          "midi": 50,
          "name": "D3",
          "ticks": 315360,
          "time": 876.1584903333332,
          "velocity": 0.7874015748031497
        },
        {
          "duration": 0.10416666666662877,
          "durationTicks": 40,
          "midi": 57,
          "name": "A3",
          "ticks": 315520,
          "time": 876.5751569999999,
          "velocity": 0.7874015748031497
        },
        {
          "duration": 0.10416666666674246,
          "durationTicks": 40,
          "midi": 66,
          "name": "F#4",
          "ticks": 315560,
          "time": 876.6793236666665,
          "velocity": 0.7874015748031497
        },
        {
          "duration": 0.10416666666662877,
          "durationTicks": 40,
          "midi": 59,
          "name": "B3",
          "ticks": 315640,
          "time": 876.8876569999999,
          "velocity": 0.7874015748031497
        },
        {
          "duration": 0.10416666666674246,
          "durationTicks": 40,
          "midi": 67,
          "name": "G4",
          "ticks": 315680,
          "time": 876.9918236666665,
          "velocity": 0.7874015748031497
        },
        {
          "duration": 0.10416666666662877,
          "durationTicks": 40,
          "midi": 60,
          "name": "C4",
          "ticks": 315760,
          "time": 877.2001569999999,
          "velocity": 0.7874015748031497
        },
        {
          "duration": 0.10416666666674246,
          "durationTicks": 40,
          "midi": 69,
          "name": "A4",
          "ticks": 315800,
          "time": 877.3043236666665,
          "velocity": 0.7874015748031497
        },
        {
          "duration": 0.10416666666662877,
          "durationTicks": 40,
          "midi": 59,
          "name": "B3",
          "ticks": 315880,
          "time": 877.5126569999999,
          "velocity": 0.7874015748031497
        },
        {
          "duration": 0.10416666666674246,
          "durationTicks": 40,
          "midi": 67,
          "name": "G4",
          "ticks": 315920,
          "time": 877.6168236666665,
          "velocity": 0.7874015748031497
        },
        {
          "duration": 0.10416666666662877,
          "durationTicks": 40,
          "midi": 57,
          "name": "A3",
          "ticks": 316000,
          "time": 877.8251569999999,
          "velocity": 0.7874015748031497
        },
        {
          "duration": 0.10416666666674246,
          "durationTicks": 40,
          "midi": 66,
          "name": "F#4",
          "ticks": 316040,
          "time": 877.9293236666665,
          "velocity": 0.7874015748031497
        },
        {
          "duration": 0.3125,
          "durationTicks": 120,
          "midi": 55,
          "name": "G3",
          "ticks": 316080,
          "time": 878.0334903333332,
          "velocity": 0.7874015748031497
        },
        {
          "duration": 0.41666666666662877,
          "durationTicks": 160,
          "midi": 67,
          "name": "G4",
          "ticks": 316200,
          "time": 878.3459903333332,
          "velocity": 0.7874015748031497
        },
        {
          "duration": 0.10416666666662877,
          "durationTicks": 40,
          "midi": 71,
          "name": "B4",
          "ticks": 316360,
          "time": 878.7626569999999,
          "velocity": 0.7874015748031497
        },
        {
          "duration": 0.10416666666674246,
          "durationTicks": 40,
          "midi": 64,
          "name": "E4",
          "ticks": 316400,
          "time": 878.8668236666665,
          "velocity": 0.7874015748031497
        },
        {
          "duration": 0.10416666666662877,
          "durationTicks": 40,
          "midi": 65,
          "name": "F4",
          "ticks": 316440,
          "time": 878.9709903333332,
          "velocity": 0.7874015748031497
        },
        {
          "duration": 0.10416666666662877,
          "durationTicks": 40,
          "midi": 69,
          "name": "A4",
          "ticks": 316480,
          "time": 879.0751569999999,
          "velocity": 0.7874015748031497
        },
        {
          "duration": 0.10416666666674246,
          "durationTicks": 40,
          "midi": 62,
          "name": "D4",
          "ticks": 316520,
          "time": 879.1793236666665,
          "velocity": 0.7874015748031497
        },
        {
          "duration": 0.10416666666662877,
          "durationTicks": 40,
          "midi": 64,
          "name": "E4",
          "ticks": 316560,
          "time": 879.2834903333332,
          "velocity": 0.7874015748031497
        },
        {
          "duration": 0.10416666666662877,
          "durationTicks": 40,
          "midi": 67,
          "name": "G4",
          "ticks": 316600,
          "time": 879.3876569999999,
          "velocity": 0.7874015748031497
        },
        {
          "duration": 0.10416666666674246,
          "durationTicks": 40,
          "midi": 60,
          "name": "C4",
          "ticks": 316640,
          "time": 879.4918236666665,
          "velocity": 0.7874015748031497
        },
        {
          "duration": 0.10416666666662877,
          "durationTicks": 40,
          "midi": 62,
          "name": "D4",
          "ticks": 316680,
          "time": 879.5959903333332,
          "velocity": 0.7874015748031497
        },
        {
          "duration": 0.10416666666662877,
          "durationTicks": 40,
          "midi": 65,
          "name": "F4",
          "ticks": 316720,
          "time": 879.7001569999999,
          "velocity": 0.7874015748031497
        },
        {
          "duration": 0.10416666666674246,
          "durationTicks": 40,
          "midi": 59,
          "name": "B3",
          "ticks": 316760,
          "time": 879.8043236666665,
          "velocity": 0.7874015748031497
        },
        {
          "duration": 0.10416666666662877,
          "durationTicks": 40,
          "midi": 60,
          "name": "C4",
          "ticks": 316800,
          "time": 879.9084903333332,
          "velocity": 0.7874015748031497
        },
        {
          "duration": 0.10416666666662877,
          "durationTicks": 40,
          "midi": 55,
          "name": "G3",
          "ticks": 316840,
          "time": 880.0126569999999,
          "velocity": 0.7874015748031497
        },
        {
          "duration": 0.10416666666674246,
          "durationTicks": 40,
          "midi": 64,
          "name": "E4",
          "ticks": 316880,
          "time": 880.1168236666665,
          "velocity": 0.7874015748031497
        },
        {
          "duration": 0.10416666666662877,
          "durationTicks": 40,
          "midi": 62,
          "name": "D4",
          "ticks": 316920,
          "time": 880.2209903333332,
          "velocity": 0.7874015748031497
        },
        {
          "duration": 0.10416666666662877,
          "durationTicks": 40,
          "midi": 59,
          "name": "B3",
          "ticks": 316960,
          "time": 880.3251569999999,
          "velocity": 0.7874015748031497
        },
        {
          "duration": 0.10416666666674246,
          "durationTicks": 40,
          "midi": 65,
          "name": "F4",
          "ticks": 317000,
          "time": 880.4293236666665,
          "velocity": 0.7874015748031497
        },
        {
          "duration": 0.3125,
          "durationTicks": 120,
          "midi": 64,
          "name": "E4",
          "ticks": 317040,
          "time": 880.5334903333332,
          "velocity": 0.7874015748031497
        },
        {
          "duration": 0.3125,
          "durationTicks": 120,
          "midi": 79,
          "name": "G5",
          "ticks": 317160,
          "time": 880.8459903333332,
          "velocity": 0.7874015748031497
        },
        {
          "duration": 0.3125,
          "durationTicks": 120,
          "midi": 84,
          "name": "C6",
          "ticks": 317280,
          "time": 881.1584903333332,
          "velocity": 0.7874015748031497
        },
        {
          "duration": 0.3125,
          "durationTicks": 120,
          "midi": 76,
          "name": "E5",
          "ticks": 317400,
          "time": 881.4709903333332,
          "velocity": 0.7874015748031497
        },
        {
          "duration": 0.41666666666662877,
          "durationTicks": 160,
          "midi": 74,
          "name": "D5",
          "ticks": 317520,
          "time": 881.7834903333332,
          "velocity": 0.7874015748031497
        },
        {
          "duration": 0.10416666666662877,
          "durationTicks": 40,
          "midi": 76,
          "name": "E5",
          "ticks": 317680,
          "time": 882.2001569999999,
          "velocity": 0.7874015748031497
        },
        {
          "duration": 0.10416666666674246,
          "durationTicks": 40,
          "midi": 78,
          "name": "F#5",
          "ticks": 317720,
          "time": 882.3043236666665,
          "velocity": 0.7874015748031497
        },
        {
          "duration": 0.10416666666662877,
          "durationTicks": 40,
          "midi": 79,
          "name": "G5",
          "ticks": 317760,
          "time": 882.4084903333332,
          "velocity": 0.7874015748031497
        },
        {
          "duration": 0.10416666666662877,
          "durationTicks": 40,
          "midi": 78,
          "name": "F#5",
          "ticks": 317800,
          "time": 882.5126569999999,
          "velocity": 0.7874015748031497
        },
        {
          "duration": 0.10416666666674246,
          "durationTicks": 40,
          "midi": 76,
          "name": "E5",
          "ticks": 317840,
          "time": 882.6168236666665,
          "velocity": 0.7874015748031497
        },
        {
          "duration": 0.41666666666662877,
          "durationTicks": 160,
          "midi": 74,
          "name": "D5",
          "ticks": 317880,
          "time": 882.7209903333332,
          "velocity": 0.7874015748031497
        },
        {
          "duration": 0.10416666666662877,
          "durationTicks": 40,
          "midi": 72,
          "name": "C5",
          "ticks": 318040,
          "time": 883.1376569999999,
          "velocity": 0.7874015748031497
        },
        {
          "duration": 0.10416666666674246,
          "durationTicks": 40,
          "midi": 71,
          "name": "B4",
          "ticks": 318080,
          "time": 883.2418236666665,
          "velocity": 0.7874015748031497
        },
        {
          "duration": 0.10416666666662877,
          "durationTicks": 40,
          "midi": 69,
          "name": "A4",
          "ticks": 318120,
          "time": 883.3459903333332,
          "velocity": 0.7874015748031497
        },
        {
          "duration": 0.10416666666662877,
          "durationTicks": 40,
          "midi": 71,
          "name": "B4",
          "ticks": 318160,
          "time": 883.4501569999999,
          "velocity": 0.7874015748031497
        },
        {
          "duration": 0.10416666666674246,
          "durationTicks": 40,
          "midi": 72,
          "name": "C5",
          "ticks": 318200,
          "time": 883.5543236666665,
          "velocity": 0.7874015748031497
        },
        {
          "duration": 0.3125,
          "durationTicks": 120,
          "midi": 71,
          "name": "B4",
          "ticks": 318240,
          "time": 883.6584903333332,
          "velocity": 0.7874015748031497
        },
        {
          "duration": 0.10416666666662877,
          "durationTicks": 40,
          "midi": 59,
          "name": "B3",
          "ticks": 318520,
          "time": 884.3876569999999,
          "velocity": 0.7874015748031497
        },
        {
          "duration": 0.10416666666674246,
          "durationTicks": 40,
          "midi": 62,
          "name": "D4",
          "ticks": 318560,
          "time": 884.4918236666665,
          "velocity": 0.7874015748031497
        },
        {
          "duration": 0.10416666666662877,
          "durationTicks": 40,
          "midi": 67,
          "name": "G4",
          "ticks": 318600,
          "time": 884.5959903333332,
          "velocity": 0.7874015748031497
        },
        {
          "duration": 0.10416666666662877,
          "durationTicks": 40,
          "midi": 71,
          "name": "B4",
          "ticks": 318640,
          "time": 884.7001569999999,
          "velocity": 0.7874015748031497
        },
        {
          "duration": 0.10416666666674246,
          "durationTicks": 40,
          "midi": 74,
          "name": "D5",
          "ticks": 318680,
          "time": 884.8043236666665,
          "velocity": 0.7874015748031497
        },
        {
          "duration": 0.3125,
          "durationTicks": 120,
          "midi": 79,
          "name": "G5",
          "ticks": 318720,
          "time": 884.9084903333332,
          "velocity": 0.7874015748031497
        },
        {
          "duration": 1.0227270000000317,
          "durationTicks": 720,
          "midi": 67,
          "name": "G4",
          "ticks": 321360,
          "time": 888.9425803333332,
          "velocity": 0.7874015748031497
        },
        {
          "duration": 0.17045450000000528,
          "durationTicks": 120,
          "midi": 66,
          "name": "F#4",
          "ticks": 322080,
          "time": 889.9653073333333,
          "velocity": 0.7874015748031497
        },
        {
          "duration": 0.17045450000000528,
          "durationTicks": 120,
          "midi": 64,
          "name": "E4",
          "ticks": 322200,
          "time": 890.1357618333333,
          "velocity": 0.7874015748031497
        },
        {
          "duration": 0.34090900000001056,
          "durationTicks": 240,
          "midi": 66,
          "name": "F#4",
          "ticks": 322320,
          "time": 890.3062163333333,
          "velocity": 0.7874015748031497
        },
        {
          "duration": 0.34090900000001056,
          "durationTicks": 240,
          "midi": 69,
          "name": "A4",
          "ticks": 322560,
          "time": 890.6471253333333,
          "velocity": 0.7874015748031497
        },
        {
          "duration": 1.022726999999918,
          "durationTicks": 720,
          "midi": 62,
          "name": "D4",
          "ticks": 322800,
          "time": 890.9880343333333,
          "velocity": 0.7874015748031497
        },
        {
          "duration": 0.34090900000001056,
          "durationTicks": 240,
          "midi": 65,
          "name": "F4",
          "ticks": 323520,
          "time": 892.0107613333332,
          "velocity": 0.7874015748031497
        },
        {
          "duration": 1.0227270000000317,
          "durationTicks": 720,
          "midi": 64,
          "name": "E4",
          "ticks": 323760,
          "time": 892.3516703333332,
          "velocity": 0.7874015748031497
        },
        {
          "duration": 0.6818180000000211,
          "durationTicks": 480,
          "midi": 67,
          "name": "G4",
          "ticks": 324480,
          "time": 893.3743973333333,
          "velocity": 0.7874015748031497
        },
        {
          "duration": 0.17045450000000528,
          "durationTicks": 120,
          "midi": 66,
          "name": "F#4",
          "ticks": 324960,
          "time": 894.0562153333333,
          "velocity": 0.7874015748031497
        },
        {
          "duration": 0.17045450000000528,
          "durationTicks": 120,
          "midi": 64,
          "name": "E4",
          "ticks": 325080,
          "time": 894.2266698333333,
          "velocity": 0.7874015748031497
        },
        {
          "duration": 0.3409089999998969,
          "durationTicks": 240,
          "midi": 66,
          "name": "F#4",
          "ticks": 325200,
          "time": 894.3971243333333,
          "velocity": 0.7874015748031497
        },
        {
          "duration": 0.6818180000000211,
          "durationTicks": 480,
          "midi": 69,
          "name": "A4",
          "ticks": 325440,
          "time": 894.7380333333332,
          "velocity": 0.7874015748031497
        },
        {
          "duration": 0.17045450000000528,
          "durationTicks": 120,
          "midi": 67,
          "name": "G4",
          "ticks": 325920,
          "time": 895.4198513333332,
          "velocity": 0.7874015748031497
        },
        {
          "duration": 0.17045450000000528,
          "durationTicks": 120,
          "midi": 66,
          "name": "F#4",
          "ticks": 326040,
          "time": 895.5903058333332,
          "velocity": 0.7874015748031497
        },
        {
          "duration": 0.34090900000001056,
          "durationTicks": 240,
          "midi": 67,
          "name": "G4",
          "ticks": 326160,
          "time": 895.7607603333332,
          "velocity": 0.7874015748031497
        },
        {
          "duration": 0.34090900000001056,
          "durationTicks": 240,
          "midi": 71,
          "name": "B4",
          "ticks": 326400,
          "time": 896.1016693333332,
          "velocity": 0.7874015748031497
        },
        {
          "duration": 0.6818180000000211,
          "durationTicks": 480,
          "midi": 64,
          "name": "E4",
          "ticks": 326640,
          "time": 896.4425783333332,
          "velocity": 0.7874015748031497
        },
        {
          "duration": 0.6818180000000211,
          "durationTicks": 480,
          "midi": 71,
          "name": "B4",
          "ticks": 327120,
          "time": 897.1243963333333,
          "velocity": 0.7874015748031497
        },
        {
          "duration": 0.6818179999999074,
          "durationTicks": 480,
          "midi": 69,
          "name": "A4",
          "ticks": 327600,
          "time": 897.8062143333333,
          "velocity": 0.7874015748031497
        },
        {
          "duration": 0.6818180000000211,
          "durationTicks": 480,
          "midi": 74,
          "name": "D5",
          "ticks": 328080,
          "time": 898.4880323333332,
          "velocity": 0.7874015748031497
        },
        {
          "duration": 0.08522725000000264,
          "durationTicks": 60,
          "midi": 78,
          "name": "F#5",
          "ticks": 328560,
          "time": 899.1698503333332,
          "velocity": 0.7874015748031497
        },
        {
          "duration": 0.08522725000000264,
          "durationTicks": 60,
          "midi": 76,
          "name": "E5",
          "ticks": 328620,
          "time": 899.2550775833332,
          "velocity": 0.7874015748031497
        },
        {
          "duration": 0.08522725000000264,
          "durationTicks": 60,
          "midi": 78,
          "name": "F#5",
          "ticks": 328680,
          "time": 899.3403048333332,
          "velocity": 0.7874015748031497
        },
        {
          "duration": 0.08522725000000264,
          "durationTicks": 60,
          "midi": 76,
          "name": "E5",
          "ticks": 328740,
          "time": 899.4255320833332,
          "velocity": 0.7874015748031497
        },
        {
          "duration": 0.08522725000000264,
          "durationTicks": 60,
          "midi": 78,
          "name": "F#5",
          "ticks": 328800,
          "time": 899.5107593333332,
          "velocity": 0.7874015748031497
        },
        {
          "duration": 0.08522725000000264,
          "durationTicks": 60,
          "midi": 76,
          "name": "E5",
          "ticks": 328860,
          "time": 899.5959865833332,
          "velocity": 0.7874015748031497
        },
        {
          "duration": 0.08522725000000264,
          "durationTicks": 60,
          "midi": 78,
          "name": "F#5",
          "ticks": 328920,
          "time": 899.6812138333332,
          "velocity": 0.7874015748031497
        },
        {
          "duration": 0.08522725000000264,
          "durationTicks": 60,
          "midi": 76,
          "name": "E5",
          "ticks": 328980,
          "time": 899.7664410833332,
          "velocity": 0.7874015748031497
        },
        {
          "duration": 0.08522725000000264,
          "durationTicks": 60,
          "midi": 78,
          "name": "F#5",
          "ticks": 329040,
          "time": 899.8516683333332,
          "velocity": 0.7874015748031497
        },
        {
          "duration": 0.08522725000000264,
          "durationTicks": 60,
          "midi": 76,
          "name": "E5",
          "ticks": 329100,
          "time": 899.9368955833332,
          "velocity": 0.7874015748031497
        },
        {
          "duration": 0.08522725000000264,
          "durationTicks": 60,
          "midi": 78,
          "name": "F#5",
          "ticks": 329160,
          "time": 900.0221228333332,
          "velocity": 0.7874015748031497
        },
        {
          "duration": 0.08522725000000264,
          "durationTicks": 60,
          "midi": 76,
          "name": "E5",
          "ticks": 329220,
          "time": 900.1073500833332,
          "velocity": 0.7874015748031497
        },
        {
          "duration": 0.08522725000000264,
          "durationTicks": 60,
          "midi": 78,
          "name": "F#5",
          "ticks": 329280,
          "time": 900.1925773333332,
          "velocity": 0.7874015748031497
        },
        {
          "duration": 0.08522725000000264,
          "durationTicks": 60,
          "midi": 76,
          "name": "E5",
          "ticks": 329340,
          "time": 900.2778045833332,
          "velocity": 0.7874015748031497
        },
        {
          "duration": 0.08522725000000264,
          "durationTicks": 60,
          "midi": 78,
          "name": "F#5",
          "ticks": 329400,
          "time": 900.3630318333333,
          "velocity": 0.7874015748031497
        },
        {
          "duration": 0.08522725000000264,
          "durationTicks": 60,
          "midi": 76,
          "name": "E5",
          "ticks": 329460,
          "time": 900.4482590833333,
          "velocity": 0.7874015748031497
        },
        {
          "duration": 0.08522725000000264,
          "durationTicks": 60,
          "midi": 78,
          "name": "F#5",
          "ticks": 329520,
          "time": 900.5334863333333,
          "velocity": 0.7874015748031497
        },
        {
          "duration": 0.08522725000000264,
          "durationTicks": 60,
          "midi": 76,
          "name": "E5",
          "ticks": 329580,
          "time": 900.6187135833333,
          "velocity": 0.7874015748031497
        },
        {
          "duration": 0.08522725000000264,
          "durationTicks": 60,
          "midi": 78,
          "name": "F#5",
          "ticks": 329640,
          "time": 900.7039408333333,
          "velocity": 0.7874015748031497
        },
        {
          "duration": 0.08522725000000264,
          "durationTicks": 60,
          "midi": 76,
          "name": "E5",
          "ticks": 329700,
          "time": 900.7891680833333,
          "velocity": 0.7874015748031497
        },
        {
          "duration": 0.08522725000000264,
          "durationTicks": 60,
          "midi": 78,
          "name": "F#5",
          "ticks": 329760,
          "time": 900.8743953333333,
          "velocity": 0.7874015748031497
        },
        {
          "duration": 0.08522725000000264,
          "durationTicks": 60,
          "midi": 76,
          "name": "E5",
          "ticks": 329820,
          "time": 900.9596225833333,
          "velocity": 0.7874015748031497
        },
        {
          "duration": 0.08522725000000264,
          "durationTicks": 60,
          "midi": 78,
          "name": "F#5",
          "ticks": 329880,
          "time": 901.0448498333333,
          "velocity": 0.7874015748031497
        },
        {
          "duration": 0.08522725000000264,
          "durationTicks": 60,
          "midi": 76,
          "name": "E5",
          "ticks": 329940,
          "time": 901.1300770833333,
          "velocity": 0.7874015748031497
        },
        {
          "duration": 0.08522725000000264,
          "durationTicks": 60,
          "midi": 78,
          "name": "F#5",
          "ticks": 330000,
          "time": 901.2153043333333,
          "velocity": 0.7874015748031497
        },
        {
          "duration": 0.08522725000000264,
          "durationTicks": 60,
          "midi": 76,
          "name": "E5",
          "ticks": 330060,
          "time": 901.3005315833333,
          "velocity": 0.7874015748031497
        },
        {
          "duration": 0.08522725000000264,
          "durationTicks": 60,
          "midi": 78,
          "name": "F#5",
          "ticks": 330120,
          "time": 901.3857588333333,
          "velocity": 0.7874015748031497
        },
        {
          "duration": 0.08522725000000264,
          "durationTicks": 60,
          "midi": 76,
          "name": "E5",
          "ticks": 330180,
          "time": 901.4709860833333,
          "velocity": 0.7874015748031497
        },
        {
          "duration": 0.08522725000000264,
          "durationTicks": 60,
          "midi": 78,
          "name": "F#5",
          "ticks": 330240,
          "time": 901.5562133333333,
          "velocity": 0.7874015748031497
        },
        {
          "duration": 0.08522725000000264,
          "durationTicks": 60,
          "midi": 76,
          "name": "E5",
          "ticks": 330300,
          "time": 901.6414405833333,
          "velocity": 0.7874015748031497
        },
        {
          "duration": 0.08522725000000264,
          "durationTicks": 60,
          "midi": 78,
          "name": "F#5",
          "ticks": 330360,
          "time": 901.7266678333333,
          "velocity": 0.7874015748031497
        },
        {
          "duration": 0.08522725000000264,
          "durationTicks": 60,
          "midi": 76,
          "name": "E5",
          "ticks": 330420,
          "time": 901.8118950833333,
          "velocity": 0.7874015748031497
        },
        {
          "duration": 0.08522724999988895,
          "durationTicks": 60,
          "midi": 78,
          "name": "F#5",
          "ticks": 330480,
          "time": 901.8971223333333,
          "velocity": 0.7874015748031497
        },
        {
          "duration": 0.08522725000000264,
          "durationTicks": 60,
          "midi": 76,
          "name": "E5",
          "ticks": 330540,
          "time": 901.9823495833332,
          "velocity": 0.7874015748031497
        },
        {
          "duration": 0.08522725000000264,
          "durationTicks": 60,
          "midi": 78,
          "name": "F#5",
          "ticks": 330600,
          "time": 902.0675768333332,
          "velocity": 0.7874015748031497
        },
        {
          "duration": 0.08522725000000264,
          "durationTicks": 60,
          "midi": 76,
          "name": "E5",
          "ticks": 330660,
          "time": 902.1528040833332,
          "velocity": 0.7874015748031497
        },
        {
          "duration": 0.17045450000000528,
          "durationTicks": 120,
          "midi": 74,
          "name": "D5",
          "ticks": 330720,
          "time": 902.2380313333332,
          "velocity": 0.7874015748031497
        },
        {
          "duration": 0.17045450000000528,
          "durationTicks": 120,
          "midi": 73,
          "name": "C#5",
          "ticks": 330840,
          "time": 902.4084858333332,
          "velocity": 0.7874015748031497
        },
        {
          "duration": 0.34090900000001056,
          "durationTicks": 240,
          "midi": 74,
          "name": "D5",
          "ticks": 330960,
          "time": 902.5789403333332,
          "velocity": 0.7874015748031497
        },
        {
          "duration": 0.34090900000001056,
          "durationTicks": 240,
          "midi": 78,
          "name": "F#5",
          "ticks": 331200,
          "time": 902.9198493333332,
          "velocity": 0.7874015748031497
        },
        {
          "duration": 1.0227270000000317,
          "durationTicks": 720,
          "midi": 71,
          "name": "B4",
          "ticks": 331440,
          "time": 903.2607583333332,
          "velocity": 0.7874015748031497
        },
        {
          "duration": 0.17045450000000528,
          "durationTicks": 120,
          "midi": 76,
          "name": "E5",
          "ticks": 332160,
          "time": 904.2834853333333,
          "velocity": 0.7874015748031497
        },
        {
          "duration": 0.17045450000000528,
          "durationTicks": 120,
          "midi": 74,
          "name": "D5",
          "ticks": 332280,
          "time": 904.4539398333333,
          "velocity": 0.7874015748031497
        },
        {
          "duration": 0.34090900000001056,
          "durationTicks": 240,
          "midi": 76,
          "name": "E5",
          "ticks": 332400,
          "time": 904.6243943333333,
          "velocity": 0.7874015748031497
        },
        {
          "duration": 0.6818179999999074,
          "durationTicks": 480,
          "midi": 74,
          "name": "D5",
          "ticks": 332640,
          "time": 904.9653033333333,
          "velocity": 0.7874015748031497
        },
        {
          "duration": 0.34090900000001056,
          "durationTicks": 240,
          "midi": 73,
          "name": "C#5",
          "ticks": 333120,
          "time": 905.6471213333332,
          "velocity": 0.7874015748031497
        },
        {
          "duration": 0.34090900000001056,
          "durationTicks": 240,
          "midi": 74,
          "name": "D5",
          "ticks": 333360,
          "time": 905.9880303333332,
          "velocity": 0.7874015748031497
        },
        {
          "duration": 0.17045450000000528,
          "durationTicks": 120,
          "midi": 69,
          "name": "A4",
          "ticks": 333600,
          "time": 906.3289393333332,
          "velocity": 0.7874015748031497
        },
        {
          "duration": 0.17045450000000528,
          "durationTicks": 120,
          "midi": 67,
          "name": "G4",
          "ticks": 333720,
          "time": 906.4993938333332,
          "velocity": 0.7874015748031497
        },
        {
          "duration": 0.6818180000000211,
          "durationTicks": 480,
          "midi": 69,
          "name": "A4",
          "ticks": 333840,
          "time": 906.6698483333332,
          "velocity": 0.7874015748031497
        },
        {
          "duration": 1.0227270000000317,
          "durationTicks": 720,
          "midi": 71,
          "name": "B4",
          "ticks": 335760,
          "time": 909.3971203333332,
          "velocity": 0.7874015748031497
        },
        {
          "duration": 0.17045450000000528,
          "durationTicks": 120,
          "midi": 69,
          "name": "A4",
          "ticks": 336480,
          "time": 910.4198473333332,
          "velocity": 0.7874015748031497
        },
        {
          "duration": 0.17045450000000528,
          "durationTicks": 120,
          "midi": 67,
          "name": "G4",
          "ticks": 336600,
          "time": 910.5903018333332,
          "velocity": 0.7874015748031497
        },
        {
          "duration": 0.34090900000001056,
          "durationTicks": 240,
          "midi": 69,
          "name": "A4",
          "ticks": 336720,
          "time": 910.7607563333332,
          "velocity": 0.7874015748031497
        },
        {
          "duration": 0.34090900000001056,
          "durationTicks": 240,
          "midi": 72,
          "name": "C5",
          "ticks": 336960,
          "time": 911.1016653333332,
          "velocity": 0.7874015748031497
        },
        {
          "duration": 0.6818180000000211,
          "durationTicks": 480,
          "midi": 66,
          "name": "F#4",
          "ticks": 337200,
          "time": 911.4425743333333,
          "velocity": 0.7874015748031497
        },
        {
          "duration": 0.6818180000000211,
          "durationTicks": 480,
          "midi": 71,
          "name": "B4",
          "ticks": 337680,
          "time": 912.1243923333333,
          "velocity": 0.7874015748031497
        },
        {
          "duration": 1.0227270000000317,
          "durationTicks": 720,
          "midi": 79,
          "name": "G5",
          "ticks": 338640,
          "time": 913.4880283333332,
          "velocity": 0.7874015748031497
        },
        {
          "duration": 0.17045450000000528,
          "durationTicks": 120,
          "midi": 78,
          "name": "F#5",
          "ticks": 339360,
          "time": 914.5107553333332,
          "velocity": 0.7874015748031497
        },
        {
          "duration": 0.17045450000000528,
          "durationTicks": 120,
          "midi": 76,
          "name": "E5",
          "ticks": 339480,
          "time": 914.6812098333332,
          "velocity": 0.7874015748031497
        },
        {
          "duration": 0.34090900000001056,
          "durationTicks": 240,
          "midi": 78,
          "name": "F#5",
          "ticks": 339600,
          "time": 914.8516643333332,
          "velocity": 0.7874015748031497
        },
        {
          "duration": 0.34090900000001056,
          "durationTicks": 240,
          "midi": 81,
          "name": "A5",
          "ticks": 339840,
          "time": 915.1925733333333,
          "velocity": 0.7874015748031497
        },
        {
          "duration": 0.34090900000001056,
          "durationTicks": 240,
          "midi": 75,
          "name": "D#5",
          "ticks": 340080,
          "time": 915.5334823333333,
          "velocity": 0.7874015748031497
        },
        {
          "duration": 0.6818180000000211,
          "durationTicks": 480,
          "midi": 76,
          "name": "E5",
          "ticks": 340320,
          "time": 915.8743913333333,
          "velocity": 0.7874015748031497
        },
        {
          "duration": 0.3409089999998969,
          "durationTicks": 240,
          "midi": 75,
          "name": "D#5",
          "ticks": 340800,
          "time": 916.5562093333333,
          "velocity": 0.7874015748031497
        },
        {
          "duration": 0.6818180000000211,
          "durationTicks": 480,
          "midi": 76,
          "name": "E5",
          "ticks": 341040,
          "time": 916.8971183333332,
          "velocity": 0.7874015748031497
        },
        {
          "duration": 1.0227270000000317,
          "durationTicks": 720,
          "midi": 71,
          "name": "B4",
          "ticks": 341520,
          "time": 917.5789363333332,
          "velocity": 0.7874015748031497
        },
        {
          "duration": 0.17045450000000528,
          "durationTicks": 120,
          "midi": 69,
          "name": "A4",
          "ticks": 342240,
          "time": 918.6016633333332,
          "velocity": 0.7874015748031497
        },
        {
          "duration": 0.17045450000000528,
          "durationTicks": 120,
          "midi": 67,
          "name": "G4",
          "ticks": 342360,
          "time": 918.7721178333333,
          "velocity": 0.7874015748031497
        },
        {
          "duration": 0.34090900000001056,
          "durationTicks": 240,
          "midi": 69,
          "name": "A4",
          "ticks": 342480,
          "time": 918.9425723333333,
          "velocity": 0.7874015748031497
        },
        {
          "duration": 0.34090900000001056,
          "durationTicks": 240,
          "midi": 72,
          "name": "C5",
          "ticks": 342720,
          "time": 919.2834813333333,
          "velocity": 0.7874015748031497
        },
        {
          "duration": 0.34090900000001056,
          "durationTicks": 240,
          "midi": 66,
          "name": "F#4",
          "ticks": 342960,
          "time": 919.6243903333333,
          "velocity": 0.7874015748031497
        },
        {
          "duration": 0.3409089999998969,
          "durationTicks": 240,
          "midi": 62,
          "name": "D4",
          "ticks": 343200,
          "time": 919.9652993333333,
          "velocity": 0.7874015748031497
        },
        {
          "duration": 1.0227270000000317,
          "durationTicks": 720,
          "midi": 67,
          "name": "G4",
          "ticks": 343440,
          "time": 920.3062083333332,
          "velocity": 0.7874015748031497
        },
        {
          "duration": 0.17045450000000528,
          "durationTicks": 120,
          "midi": 66,
          "name": "F#4",
          "ticks": 344160,
          "time": 921.3289353333332,
          "velocity": 0.7874015748031497
        },
        {
          "duration": 0.17045450000000528,
          "durationTicks": 120,
          "midi": 64,
          "name": "E4",
          "ticks": 344280,
          "time": 921.4993898333332,
          "velocity": 0.7874015748031497
        },
        {
          "duration": 0.34090900000001056,
          "durationTicks": 240,
          "midi": 66,
          "name": "F#4",
          "ticks": 344400,
          "time": 921.6698443333332,
          "velocity": 0.7874015748031497
        },
        {
          "duration": 0.34090900000001056,
          "durationTicks": 240,
          "midi": 69,
          "name": "A4",
          "ticks": 344640,
          "time": 922.0107533333332,
          "velocity": 0.7874015748031497
        },
        {
          "duration": 0.6818180000000211,
          "durationTicks": 480,
          "midi": 62,
          "name": "D4",
          "ticks": 344880,
          "time": 922.3516623333333,
          "velocity": 0.7874015748031497
        },
        {
          "duration": 1.0227270000000317,
          "durationTicks": 720,
          "midi": 67,
          "name": "G4",
          "ticks": 346320,
          "time": 924.3971163333332,
          "velocity": 0.7874015748031497
        },
        {
          "duration": 0.17045450000000528,
          "durationTicks": 120,
          "midi": 67,
          "name": "G4",
          "ticks": 347040,
          "time": 925.4198433333332,
          "velocity": 0.7874015748031497
        },
        {
          "duration": 0.17045450000000528,
          "durationTicks": 120,
          "midi": 66,
          "name": "F#4",
          "ticks": 347160,
          "time": 925.5902978333332,
          "velocity": 0.7874015748031497
        },
        {
          "duration": 1.0227270000000317,
          "durationTicks": 720,
          "midi": 67,
          "name": "G4",
          "ticks": 347280,
          "time": 925.7607523333332,
          "velocity": 0.7874015748031497
        },
        {
          "duration": 0.17045450000000528,
          "durationTicks": 120,
          "midi": 66,
          "name": "F#4",
          "ticks": 348000,
          "time": 926.7834793333333,
          "velocity": 0.7874015748031497
        },
        {
          "duration": 0.17045450000000528,
          "durationTicks": 120,
          "midi": 64,
          "name": "E4",
          "ticks": 348120,
          "time": 926.9539338333333,
          "velocity": 0.7874015748031497
        },
        {
          "duration": 0.3409089999998969,
          "durationTicks": 240,
          "midi": 66,
          "name": "F#4",
          "ticks": 348240,
          "time": 927.1243883333333,
          "velocity": 0.7874015748031497
        },
        {
          "duration": 0.6818180000000211,
          "durationTicks": 480,
          "midi": 69,
          "name": "A4",
          "ticks": 348480,
          "time": 927.4652973333332,
          "velocity": 0.7874015748031497
        },
        {
          "duration": 0.17045450000000528,
          "durationTicks": 120,
          "midi": 67,
          "name": "G4",
          "ticks": 348960,
          "time": 928.1471153333332,
          "velocity": 0.7874015748031497
        },
        {
          "duration": 0.17045450000000528,
          "durationTicks": 120,
          "midi": 66,
          "name": "F#4",
          "ticks": 349080,
          "time": 928.3175698333332,
          "velocity": 0.7874015748031497
        },
        {
          "duration": 0.6818180000000211,
          "durationTicks": 480,
          "midi": 67,
          "name": "G4",
          "ticks": 349200,
          "time": 928.4880243333332,
          "velocity": 0.7874015748031497
        },
        {
          "duration": 0.3125,
          "durationTicks": 120,
          "midi": 67,
          "name": "G4",
          "ticks": 350760,
          "time": 931.9823423333332,
          "velocity": 0.7874015748031497
        },
        {
          "duration": 0.15625,
          "durationTicks": 60,
          "midi": 83,
          "name": "B5",
          "ticks": 350880,
          "time": 932.2948423333332,
          "velocity": 0.7874015748031497
        },
        {
          "duration": 0.15625,
          "durationTicks": 60,
          "midi": 81,
          "name": "A5",
          "ticks": 350940,
          "time": 932.4510923333332,
          "velocity": 0.7874015748031497
        },
        {
          "duration": 0.15625,
          "durationTicks": 60,
          "midi": 79,
          "name": "G5",
          "ticks": 351000,
          "time": 932.6073423333332,
          "velocity": 0.7874015748031497
        },
        {
          "duration": 0.15625,
          "durationTicks": 60,
          "midi": 78,
          "name": "F#5",
          "ticks": 351060,
          "time": 932.7635923333332,
          "velocity": 0.7874015748031497
        },
        {
          "duration": 0.15625,
          "durationTicks": 60,
          "midi": 76,
          "name": "E5",
          "ticks": 351120,
          "time": 932.9198423333332,
          "velocity": 0.7874015748031497
        },
        {
          "duration": 0.15625,
          "durationTicks": 60,
          "midi": 74,
          "name": "D5",
          "ticks": 351180,
          "time": 933.0760923333332,
          "velocity": 0.7874015748031497
        },
        {
          "duration": 0.15625,
          "durationTicks": 60,
          "midi": 73,
          "name": "C#5",
          "ticks": 351240,
          "time": 933.2323423333332,
          "velocity": 0.7874015748031497
        },
        {
          "duration": 0.15625,
          "durationTicks": 60,
          "midi": 71,
          "name": "B4",
          "ticks": 351300,
          "time": 933.3885923333332,
          "velocity": 0.7874015748031497
        },
        {
          "duration": 0.15625,
          "durationTicks": 60,
          "midi": 69,
          "name": "A4",
          "ticks": 351360,
          "time": 933.5448423333332,
          "velocity": 0.7874015748031497
        },
        {
          "duration": 0.15625,
          "durationTicks": 60,
          "midi": 67,
          "name": "G4",
          "ticks": 351420,
          "time": 933.7010923333332,
          "velocity": 0.7874015748031497
        },
        {
          "duration": 0.3125,
          "durationTicks": 120,
          "midi": 66,
          "name": "F#4",
          "ticks": 351480,
          "time": 933.8573423333332,
          "velocity": 0.7874015748031497
        },
        {
          "duration": 0.15625,
          "durationTicks": 60,
          "midi": 81,
          "name": "A5",
          "ticks": 351600,
          "time": 934.1698423333332,
          "velocity": 0.7874015748031497
        },
        {
          "duration": 0.15625,
          "durationTicks": 60,
          "midi": 79,
          "name": "G5",
          "ticks": 351660,
          "time": 934.3260923333332,
          "velocity": 0.7874015748031497
        },
        {
          "duration": 0.15625,
          "durationTicks": 60,
          "midi": 78,
          "name": "F#5",
          "ticks": 351720,
          "time": 934.4823423333332,
          "velocity": 0.7874015748031497
        },
        {
          "duration": 0.15625,
          "durationTicks": 60,
          "midi": 76,
          "name": "E5",
          "ticks": 351780,
          "time": 934.6385923333332,
          "velocity": 0.7874015748031497
        },
        {
          "duration": 0.15625,
          "durationTicks": 60,
          "midi": 74,
          "name": "D5",
          "ticks": 351840,
          "time": 934.7948423333332,
          "velocity": 0.7874015748031497
        },
        {
          "duration": 0.15625,
          "durationTicks": 60,
          "midi": 73,
          "name": "C#5",
          "ticks": 351900,
          "time": 934.9510923333332,
          "velocity": 0.7874015748031497
        },
        {
          "duration": 0.15625,
          "durationTicks": 60,
          "midi": 71,
          "name": "B4",
          "ticks": 351960,
          "time": 935.1073423333332,
          "velocity": 0.7874015748031497
        },
        {
          "duration": 0.15625,
          "durationTicks": 60,
          "midi": 69,
          "name": "A4",
          "ticks": 352020,
          "time": 935.2635923333332,
          "velocity": 0.7874015748031497
        },
        {
          "duration": 0.15625,
          "durationTicks": 60,
          "midi": 67,
          "name": "G4",
          "ticks": 352080,
          "time": 935.4198423333332,
          "velocity": 0.7874015748031497
        },
        {
          "duration": 0.15625,
          "durationTicks": 60,
          "midi": 66,
          "name": "F#4",
          "ticks": 352140,
          "time": 935.5760923333332,
          "velocity": 0.7874015748031497
        },
        {
          "duration": 0.3125,
          "durationTicks": 120,
          "midi": 64,
          "name": "E4",
          "ticks": 352200,
          "time": 935.7323423333332,
          "velocity": 0.7874015748031497
        },
        {
          "duration": 0.15625,
          "durationTicks": 60,
          "midi": 79,
          "name": "G5",
          "ticks": 352320,
          "time": 936.0448423333332,
          "velocity": 0.7874015748031497
        },
        {
          "duration": 0.15625,
          "durationTicks": 60,
          "midi": 78,
          "name": "F#5",
          "ticks": 352380,
          "time": 936.2010923333332,
          "velocity": 0.7874015748031497
        },
        {
          "duration": 0.15625,
          "durationTicks": 60,
          "midi": 76,
          "name": "E5",
          "ticks": 352440,
          "time": 936.3573423333332,
          "velocity": 0.7874015748031497
        },
        {
          "duration": 0.15625,
          "durationTicks": 60,
          "midi": 74,
          "name": "D5",
          "ticks": 352500,
          "time": 936.5135923333332,
          "velocity": 0.7874015748031497
        },
        {
          "duration": 0.15625,
          "durationTicks": 60,
          "midi": 73,
          "name": "C#5",
          "ticks": 352560,
          "time": 936.6698423333332,
          "velocity": 0.7874015748031497
        },
        {
          "duration": 0.15625,
          "durationTicks": 60,
          "midi": 71,
          "name": "B4",
          "ticks": 352620,
          "time": 936.8260923333332,
          "velocity": 0.7874015748031497
        },
        {
          "duration": 0.15625,
          "durationTicks": 60,
          "midi": 69,
          "name": "A4",
          "ticks": 352680,
          "time": 936.9823423333332,
          "velocity": 0.7874015748031497
        },
        {
          "duration": 0.15625,
          "durationTicks": 60,
          "midi": 67,
          "name": "G4",
          "ticks": 352740,
          "time": 937.1385923333332,
          "velocity": 0.7874015748031497
        },
        {
          "duration": 0.15625,
          "durationTicks": 60,
          "midi": 66,
          "name": "F#4",
          "ticks": 352800,
          "time": 937.2948423333332,
          "velocity": 0.7874015748031497
        },
        {
          "duration": 0.15625,
          "durationTicks": 60,
          "midi": 64,
          "name": "E4",
          "ticks": 352860,
          "time": 937.4510923333332,
          "velocity": 0.7874015748031497
        },
        {
          "duration": 0.3125,
          "durationTicks": 120,
          "midi": 62,
          "name": "D4",
          "ticks": 352920,
          "time": 937.6073423333332,
          "velocity": 0.7874015748031497
        },
        {
          "duration": 0.078125,
          "durationTicks": 30,
          "midi": 52,
          "name": "E3",
          "ticks": 353220,
          "time": 938.3885923333332,
          "velocity": 0.7874015748031497
        },
        {
          "duration": 0.078125,
          "durationTicks": 30,
          "midi": 54,
          "name": "F#3",
          "ticks": 353250,
          "time": 938.4667173333332,
          "velocity": 0.7874015748031497
        },
        {
          "duration": 0.078125,
          "durationTicks": 30,
          "midi": 55,
          "name": "G3",
          "ticks": 353280,
          "time": 938.5448423333332,
          "velocity": 0.7874015748031497
        },
        {
          "duration": 0.078125,
          "durationTicks": 30,
          "midi": 57,
          "name": "A3",
          "ticks": 353310,
          "time": 938.6229673333332,
          "velocity": 0.7874015748031497
        },
        {
          "duration": 0.078125,
          "durationTicks": 30,
          "midi": 59,
          "name": "B3",
          "ticks": 353340,
          "time": 938.7010923333332,
          "velocity": 0.7874015748031497
        },
        {
          "duration": 0.078125,
          "durationTicks": 30,
          "midi": 61,
          "name": "C#4",
          "ticks": 353370,
          "time": 938.7792173333332,
          "velocity": 0.7874015748031497
        },
        {
          "duration": 0.3125,
          "durationTicks": 120,
          "midi": 62,
          "name": "D4",
          "ticks": 353400,
          "time": 938.8573423333332,
          "velocity": 0.7874015748031497
        },
        {
          "duration": 0.078125,
          "durationTicks": 30,
          "midi": 69,
          "name": "A4",
          "ticks": 353430,
          "time": 938.9354673333332,
          "velocity": 0.7874015748031497
        },
        {
          "duration": 0.078125,
          "durationTicks": 30,
          "midi": 71,
          "name": "B4",
          "ticks": 353460,
          "time": 939.0135923333332,
          "velocity": 0.7874015748031497
        },
        {
          "duration": 0.078125,
          "durationTicks": 30,
          "midi": 72,
          "name": "C5",
          "ticks": 353490,
          "time": 939.0917173333332,
          "velocity": 0.7874015748031497
        },
        {
          "duration": 0.3125,
          "durationTicks": 120,
          "midi": 74,
          "name": "D5",
          "ticks": 353520,
          "time": 939.1698423333332,
          "velocity": 0.7874015748031497
        },
        {
          "duration": 0.15625,
          "durationTicks": 60,
          "midi": 59,
          "name": "B3",
          "ticks": 353640,
          "time": 939.4823423333332,
          "velocity": 0.7874015748031497
        },
        {
          "duration": 0.15625,
          "durationTicks": 60,
          "midi": 60,
          "name": "C4",
          "ticks": 353700,
          "time": 939.6385923333332,
          "velocity": 0.7874015748031497
        },
        {
          "duration": 0.15625,
          "durationTicks": 60,
          "midi": 62,
          "name": "D4",
          "ticks": 353760,
          "time": 939.7948423333332,
          "velocity": 0.7874015748031497
        },
        {
          "duration": 0.15625,
          "durationTicks": 60,
          "midi": 64,
          "name": "E4",
          "ticks": 353820,
          "time": 939.9510923333332,
          "velocity": 0.7874015748031497
        },
        {
          "duration": 0.15625,
          "durationTicks": 60,
          "midi": 66,
          "name": "F#4",
          "ticks": 353880,
          "time": 940.1073423333332,
          "velocity": 0.7874015748031497
        },
        {
          "duration": 0.15625,
          "durationTicks": 60,
          "midi": 67,
          "name": "G4",
          "ticks": 353940,
          "time": 940.2635923333332,
          "velocity": 0.7874015748031497
        },
        {
          "duration": 0.15625,
          "durationTicks": 60,
          "midi": 69,
          "name": "A4",
          "ticks": 354000,
          "time": 940.4198423333332,
          "velocity": 0.7874015748031497
        },
        {
          "duration": 0.15625,
          "durationTicks": 60,
          "midi": 71,
          "name": "B4",
          "ticks": 354060,
          "time": 940.5760923333332,
          "velocity": 0.7874015748031497
        },
        {
          "duration": 0.15625,
          "durationTicks": 60,
          "midi": 72,
          "name": "C5",
          "ticks": 354120,
          "time": 940.7323423333332,
          "velocity": 0.7874015748031497
        },
        {
          "duration": 0.15625,
          "durationTicks": 60,
          "midi": 74,
          "name": "D5",
          "ticks": 354180,
          "time": 940.8885923333332,
          "velocity": 0.7874015748031497
        },
        {
          "duration": 0.3125,
          "durationTicks": 120,
          "midi": 76,
          "name": "E5",
          "ticks": 354240,
          "time": 941.0448423333332,
          "velocity": 0.7874015748031497
        },
        {
          "duration": 0.15625,
          "durationTicks": 60,
          "midi": 60,
          "name": "C4",
          "ticks": 354360,
          "time": 941.3573423333332,
          "velocity": 0.7874015748031497
        },
        {
          "duration": 0.15625,
          "durationTicks": 60,
          "midi": 62,
          "name": "D4",
          "ticks": 354420,
          "time": 941.5135923333332,
          "velocity": 0.7874015748031497
        },
        {
          "duration": 0.15625,
          "durationTicks": 60,
          "midi": 64,
          "name": "E4",
          "ticks": 354480,
          "time": 941.6698423333332,
          "velocity": 0.7874015748031497
        },
        {
          "duration": 0.15625,
          "durationTicks": 60,
          "midi": 66,
          "name": "F#4",
          "ticks": 354540,
          "time": 941.8260923333332,
          "velocity": 0.7874015748031497
        },
        {
          "duration": 0.15625,
          "durationTicks": 60,
          "midi": 67,
          "name": "G4",
          "ticks": 354600,
          "time": 941.9823423333332,
          "velocity": 0.7874015748031497
        },
        {
          "duration": 0.15625,
          "durationTicks": 60,
          "midi": 69,
          "name": "A4",
          "ticks": 354660,
          "time": 942.1385923333332,
          "velocity": 0.7874015748031497
        },
        {
          "duration": 0.15625,
          "durationTicks": 60,
          "midi": 71,
          "name": "B4",
          "ticks": 354720,
          "time": 942.2948423333332,
          "velocity": 0.7874015748031497
        },
        {
          "duration": 0.15625,
          "durationTicks": 60,
          "midi": 72,
          "name": "C5",
          "ticks": 354780,
          "time": 942.4510923333332,
          "velocity": 0.7874015748031497
        },
        {
          "duration": 0.15625,
          "durationTicks": 60,
          "midi": 74,
          "name": "D5",
          "ticks": 354840,
          "time": 942.6073423333332,
          "velocity": 0.7874015748031497
        },
        {
          "duration": 0.15625,
          "durationTicks": 60,
          "midi": 76,
          "name": "E5",
          "ticks": 354900,
          "time": 942.7635923333332,
          "velocity": 0.7874015748031497
        },
        {
          "duration": 0.3125,
          "durationTicks": 120,
          "midi": 78,
          "name": "F#5",
          "ticks": 354960,
          "time": 942.9198423333332,
          "velocity": 0.7874015748031497
        },
        {
          "duration": 0.15625,
          "durationTicks": 60,
          "midi": 62,
          "name": "D4",
          "ticks": 355080,
          "time": 943.2323423333332,
          "velocity": 0.7874015748031497
        },
        {
          "duration": 0.15625,
          "durationTicks": 60,
          "midi": 64,
          "name": "E4",
          "ticks": 355140,
          "time": 943.3885923333332,
          "velocity": 0.7874015748031497
        },
        {
          "duration": 0.15625,
          "durationTicks": 60,
          "midi": 66,
          "name": "F#4",
          "ticks": 355200,
          "time": 943.5448423333332,
          "velocity": 0.7874015748031497
        },
        {
          "duration": 0.15625,
          "durationTicks": 60,
          "midi": 67,
          "name": "G4",
          "ticks": 355260,
          "time": 943.7010923333332,
          "velocity": 0.7874015748031497
        },
        {
          "duration": 0.15625,
          "durationTicks": 60,
          "midi": 69,
          "name": "A4",
          "ticks": 355320,
          "time": 943.8573423333332,
          "velocity": 0.7874015748031497
        },
        {
          "duration": 0.15625,
          "durationTicks": 60,
          "midi": 71,
          "name": "B4",
          "ticks": 355380,
          "time": 944.0135923333332,
          "velocity": 0.7874015748031497
        },
        {
          "duration": 0.15625,
          "durationTicks": 60,
          "midi": 72,
          "name": "C5",
          "ticks": 355440,
          "time": 944.1698423333332,
          "velocity": 0.7874015748031497
        },
        {
          "duration": 0.15625,
          "durationTicks": 60,
          "midi": 74,
          "name": "D5",
          "ticks": 355500,
          "time": 944.3260923333332,
          "velocity": 0.7874015748031497
        },
        {
          "duration": 0.15625,
          "durationTicks": 60,
          "midi": 76,
          "name": "E5",
          "ticks": 355560,
          "time": 944.4823423333332,
          "velocity": 0.7874015748031497
        },
        {
          "duration": 0.15625,
          "durationTicks": 60,
          "midi": 78,
          "name": "F#5",
          "ticks": 355620,
          "time": 944.6385923333332,
          "velocity": 0.7874015748031497
        },
        {
          "duration": 0.625,
          "durationTicks": 240,
          "midi": 79,
          "name": "G5",
          "ticks": 355680,
          "time": 944.7948423333332,
          "velocity": 0.7874015748031497
        },
        {
          "duration": 0.078125,
          "durationTicks": 30,
          "midi": 78,
          "name": "F#5",
          "ticks": 355980,
          "time": 945.5760923333332,
          "velocity": 0.7874015748031497
        },
        {
          "duration": 0.078125,
          "durationTicks": 30,
          "midi": 76,
          "name": "E5",
          "ticks": 356010,
          "time": 945.6542173333332,
          "velocity": 0.7874015748031497
        },
        {
          "duration": 0.078125,
          "durationTicks": 30,
          "midi": 74,
          "name": "D5",
          "ticks": 356040,
          "time": 945.7323423333332,
          "velocity": 0.7874015748031497
        },
        {
          "duration": 0.078125,
          "durationTicks": 30,
          "midi": 72,
          "name": "C5",
          "ticks": 356070,
          "time": 945.8104673333332,
          "velocity": 0.7874015748031497
        },
        {
          "duration": 0.078125,
          "durationTicks": 30,
          "midi": 71,
          "name": "B4",
          "ticks": 356100,
          "time": 945.8885923333332,
          "velocity": 0.7874015748031497
        },
        {
          "duration": 0.078125,
          "durationTicks": 30,
          "midi": 69,
          "name": "A4",
          "ticks": 356130,
          "time": 945.9667173333332,
          "velocity": 0.7874015748031497
        },
        {
          "duration": 0.625,
          "durationTicks": 240,
          "midi": 67,
          "name": "G4",
          "ticks": 356160,
          "time": 946.0448423333332,
          "velocity": 0.7874015748031497
        },
        {
          "duration": 0.15625,
          "durationTicks": 60,
          "midi": 86,
          "name": "D6",
          "ticks": 356460,
          "time": 946.8260923333332,
          "velocity": 0.7874015748031497
        },
        {
          "duration": 0.3125,
          "durationTicks": 120,
          "midi": 86,
          "name": "D6",
          "ticks": 356520,
          "time": 946.9823423333332,
          "velocity": 0.7874015748031497
        },
        {
          "duration": 0.078125,
          "durationTicks": 30,
          "midi": 91,
          "name": "G6",
          "ticks": 356670,
          "time": 947.3729673333332,
          "velocity": 0.7874015748031497
        },
        {
          "duration": 0.078125,
          "durationTicks": 30,
          "midi": 90,
          "name": "F#6",
          "ticks": 356700,
          "time": 947.4510923333332,
          "velocity": 0.7874015748031497
        },
        {
          "duration": 0.078125,
          "durationTicks": 30,
          "midi": 88,
          "name": "E6",
          "ticks": 356730,
          "time": 947.5292173333332,
          "velocity": 0.7874015748031497
        },
        {
          "duration": 0.3125,
          "durationTicks": 120,
          "midi": 86,
          "name": "D6",
          "ticks": 356760,
          "time": 947.6073423333332,
          "velocity": 0.7874015748031497
        },
        {
          "duration": 0.078125,
          "durationTicks": 30,
          "midi": 84,
          "name": "C6",
          "ticks": 356910,
          "time": 947.9979673333332,
          "velocity": 0.7874015748031497
        },
        {
          "duration": 0.078125,
          "durationTicks": 30,
          "midi": 83,
          "name": "B5",
          "ticks": 356940,
          "time": 948.0760923333332,
          "velocity": 0.7874015748031497
        },
        {
          "duration": 0.078125,
          "durationTicks": 30,
          "midi": 81,
          "name": "A5",
          "ticks": 356970,
          "time": 948.1542173333332,
          "velocity": 0.7874015748031497
        },
        {
          "duration": 0.3125,
          "durationTicks": 120,
          "midi": 79,
          "name": "G5",
          "ticks": 357000,
          "time": 948.2323423333332,
          "velocity": 0.7874015748031497
        },
        {
          "duration": 0.15625,
          "durationTicks": 60,
          "midi": 86,
          "name": "D6",
          "ticks": 357180,
          "time": 948.7010923333332,
          "velocity": 0.7874015748031497
        },
        {
          "duration": 0.3125,
          "durationTicks": 120,
          "midi": 86,
          "name": "D6",
          "ticks": 357240,
          "time": 948.8573423333332,
          "velocity": 0.7874015748031497
        },
        {
          "duration": 0.078125,
          "durationTicks": 30,
          "midi": 86,
          "name": "D6",
          "ticks": 357390,
          "time": 949.2479673333332,
          "velocity": 0.7874015748031497
        },
        {
          "duration": 0.078125,
          "durationTicks": 30,
          "midi": 85,
          "name": "C#6",
          "ticks": 357420,
          "time": 949.3260923333332,
          "velocity": 0.7874015748031497
        },
        {
          "duration": 0.078125,
          "durationTicks": 30,
          "midi": 83,
          "name": "B5",
          "ticks": 357450,
          "time": 949.4042173333332,
          "velocity": 0.7874015748031497
        },
        {
          "duration": 0.3125,
          "durationTicks": 120,
          "midi": 81,
          "name": "A5",
          "ticks": 357480,
          "time": 949.4823423333332,
          "velocity": 0.7874015748031497
        },
        {
          "duration": 0.078125,
          "durationTicks": 30,
          "midi": 79,
          "name": "G5",
          "ticks": 357630,
          "time": 949.8729673333332,
          "velocity": 0.7874015748031497
        },
        {
          "duration": 0.078125,
          "durationTicks": 30,
          "midi": 78,
          "name": "F#5",
          "ticks": 357660,
          "time": 949.9510923333332,
          "velocity": 0.7874015748031497
        },
        {
          "duration": 0.078125,
          "durationTicks": 30,
          "midi": 76,
          "name": "E5",
          "ticks": 357690,
          "time": 950.0292173333332,
          "velocity": 0.7874015748031497
        },
        {
          "duration": 0.3125,
          "durationTicks": 120,
          "midi": 74,
          "name": "D5",
          "ticks": 357720,
          "time": 950.1073423333332,
          "velocity": 0.7874015748031497
        },
        {
          "duration": 0.15625,
          "durationTicks": 60,
          "midi": 83,
          "name": "B5",
          "ticks": 357900,
          "time": 950.5760923333332,
          "velocity": 0.7874015748031497
        },
        {
          "duration": 0.3125,
          "durationTicks": 120,
          "midi": 83,
          "name": "B5",
          "ticks": 357960,
          "time": 950.7323423333332,
          "velocity": 0.7874015748031497
        },
        {
          "duration": 0.078125,
          "durationTicks": 30,
          "midi": 84,
          "name": "C6",
          "ticks": 358110,
          "time": 951.1229673333332,
          "velocity": 0.7874015748031497
        },
        {
          "duration": 0.078125,
          "durationTicks": 30,
          "midi": 83,
          "name": "B5",
          "ticks": 358140,
          "time": 951.2010923333332,
          "velocity": 0.7874015748031497
        },
        {
          "duration": 0.078125,
          "durationTicks": 30,
          "midi": 81,
          "name": "A5",
          "ticks": 358170,
          "time": 951.2792173333332,
          "velocity": 0.7874015748031497
        },
        {
          "duration": 0.3125,
          "durationTicks": 120,
          "midi": 79,
          "name": "G5",
          "ticks": 358200,
          "time": 951.3573423333332,
          "velocity": 0.7874015748031497
        },
        {
          "duration": 0.078125,
          "durationTicks": 30,
          "midi": 81,
          "name": "A5",
          "ticks": 358350,
          "time": 951.7479673333332,
          "velocity": 0.7874015748031497
        },
        {
          "duration": 0.078125,
          "durationTicks": 30,
          "midi": 79,
          "name": "G5",
          "ticks": 358380,
          "time": 951.8260923333332,
          "velocity": 0.7874015748031497
        },
        {
          "duration": 0.078125,
          "durationTicks": 30,
          "midi": 78,
          "name": "F#5",
          "ticks": 358410,
          "time": 951.9042173333332,
          "velocity": 0.7874015748031497
        },
        {
          "duration": 0.3125,
          "durationTicks": 120,
          "midi": 76,
          "name": "E5",
          "ticks": 358440,
          "time": 951.9823423333332,
          "velocity": 0.7874015748031497
        },
        {
          "duration": 0.15625,
          "durationTicks": 60,
          "midi": 81,
          "name": "A5",
          "ticks": 358620,
          "time": 952.4510923333332,
          "velocity": 0.7874015748031497
        },
        {
          "duration": 0.3125,
          "durationTicks": 120,
          "midi": 81,
          "name": "A5",
          "ticks": 358680,
          "time": 952.6073423333332,
          "velocity": 0.7874015748031497
        },
        {
          "duration": 0.078125,
          "durationTicks": 30,
          "midi": 78,
          "name": "F#5",
          "ticks": 358830,
          "time": 952.9979673333332,
          "velocity": 0.7874015748031497
        },
        {
          "duration": 0.078125,
          "durationTicks": 30,
          "midi": 76,
          "name": "E5",
          "ticks": 358860,
          "time": 953.0760923333332,
          "velocity": 0.7874015748031497
        },
        {
          "duration": 0.078125,
          "durationTicks": 30,
          "midi": 74,
          "name": "D5",
          "ticks": 358890,
          "time": 953.1542173333332,
          "velocity": 0.7874015748031497
        },
        {
          "duration": 0.3125,
          "durationTicks": 120,
          "midi": 73,
          "name": "C#5",
          "ticks": 358920,
          "time": 953.2323423333332,
          "velocity": 0.7874015748031497
        },
        {
          "duration": 0.078125,
          "durationTicks": 30,
          "midi": 74,
          "name": "D5",
          "ticks": 359070,
          "time": 953.6229673333332,
          "velocity": 0.7874015748031497
        },
        {
          "duration": 0.078125,
          "durationTicks": 30,
          "midi": 73,
          "name": "C#5",
          "ticks": 359100,
          "time": 953.7010923333332,
          "velocity": 0.7874015748031497
        },
        {
          "duration": 0.078125,
          "durationTicks": 30,
          "midi": 71,
          "name": "B4",
          "ticks": 359130,
          "time": 953.7792173333332,
          "velocity": 0.7874015748031497
        },
        {
          "duration": 0.3125,
          "durationTicks": 120,
          "midi": 69,
          "name": "A4",
          "ticks": 359160,
          "time": 953.8573423333332,
          "velocity": 0.7874015748031497
        },
        {
          "duration": 0.3125,
          "durationTicks": 120,
          "midi": 66,
          "name": "F#4",
          "ticks": 359400,
          "time": 954.4823423333332,
          "velocity": 0.7874015748031497
        },
        {
          "duration": 0.15625,
          "durationTicks": 60,
          "midi": 81,
          "name": "A5",
          "ticks": 359520,
          "time": 954.7948423333332,
          "velocity": 0.7874015748031497
        },
        {
          "duration": 0.15625,
          "durationTicks": 60,
          "midi": 79,
          "name": "G5",
          "ticks": 359580,
          "time": 954.9510923333332,
          "velocity": 0.7874015748031497
        },
        {
          "duration": 0.15625,
          "durationTicks": 60,
          "midi": 78,
          "name": "F#5",
          "ticks": 359640,
          "time": 955.1073423333332,
          "velocity": 0.7874015748031497
        },
        {
          "duration": 0.15625,
          "durationTicks": 60,
          "midi": 76,
          "name": "E5",
          "ticks": 359700,
          "time": 955.2635923333332,
          "velocity": 0.7874015748031497
        },
        {
          "duration": 0.15625,
          "durationTicks": 60,
          "midi": 74,
          "name": "D5",
          "ticks": 359760,
          "time": 955.4198423333332,
          "velocity": 0.7874015748031497
        },
        {
          "duration": 0.15625,
          "durationTicks": 60,
          "midi": 72,
          "name": "C5",
          "ticks": 359820,
          "time": 955.5760923333332,
          "velocity": 0.7874015748031497
        },
        {
          "duration": 0.15625,
          "durationTicks": 60,
          "midi": 71,
          "name": "B4",
          "ticks": 359880,
          "time": 955.7323423333332,
          "velocity": 0.7874015748031497
        },
        {
          "duration": 0.15625,
          "durationTicks": 60,
          "midi": 69,
          "name": "A4",
          "ticks": 359940,
          "time": 955.8885923333332,
          "velocity": 0.7874015748031497
        },
        {
          "duration": 0.15625,
          "durationTicks": 60,
          "midi": 71,
          "name": "B4",
          "ticks": 360000,
          "time": 956.0448423333332,
          "velocity": 0.7874015748031497
        },
        {
          "duration": 0.15625,
          "durationTicks": 60,
          "midi": 72,
          "name": "C5",
          "ticks": 360060,
          "time": 956.2010923333332,
          "velocity": 0.7874015748031497
        },
        {
          "duration": 0.3125,
          "durationTicks": 120,
          "midi": 74,
          "name": "D5",
          "ticks": 360120,
          "time": 956.3573423333332,
          "velocity": 0.7874015748031497
        },
        {
          "duration": 0.15625,
          "durationTicks": 60,
          "midi": 83,
          "name": "B5",
          "ticks": 360240,
          "time": 956.6698423333332,
          "velocity": 0.7874015748031497
        },
        {
          "duration": 0.15625,
          "durationTicks": 60,
          "midi": 81,
          "name": "A5",
          "ticks": 360300,
          "time": 956.8260923333332,
          "velocity": 0.7874015748031497
        },
        {
          "duration": 0.15625,
          "durationTicks": 60,
          "midi": 79,
          "name": "G5",
          "ticks": 360360,
          "time": 956.9823423333332,
          "velocity": 0.7874015748031497
        },
        {
          "duration": 0.15625,
          "durationTicks": 60,
          "midi": 78,
          "name": "F#5",
          "ticks": 360420,
          "time": 957.1385923333332,
          "velocity": 0.7874015748031497
        },
        {
          "duration": 0.15625,
          "durationTicks": 60,
          "midi": 76,
          "name": "E5",
          "ticks": 360480,
          "time": 957.2948423333332,
          "velocity": 0.7874015748031497
        },
        {
          "duration": 0.15625,
          "durationTicks": 60,
          "midi": 74,
          "name": "D5",
          "ticks": 360540,
          "time": 957.4510923333332,
          "velocity": 0.7874015748031497
        },
        {
          "duration": 0.15625,
          "durationTicks": 60,
          "midi": 73,
          "name": "C#5",
          "ticks": 360600,
          "time": 957.6073423333332,
          "velocity": 0.7874015748031497
        },
        {
          "duration": 0.15625,
          "durationTicks": 60,
          "midi": 71,
          "name": "B4",
          "ticks": 360660,
          "time": 957.7635923333332,
          "velocity": 0.7874015748031497
        },
        {
          "duration": 0.15625,
          "durationTicks": 60,
          "midi": 73,
          "name": "C#5",
          "ticks": 360720,
          "time": 957.9198423333332,
          "velocity": 0.7874015748031497
        },
        {
          "duration": 0.15625,
          "durationTicks": 60,
          "midi": 74,
          "name": "D5",
          "ticks": 360780,
          "time": 958.0760923333332,
          "velocity": 0.7874015748031497
        },
        {
          "duration": 0.3125,
          "durationTicks": 120,
          "midi": 76,
          "name": "E5",
          "ticks": 360840,
          "time": 958.2323423333332,
          "velocity": 0.7874015748031497
        },
        {
          "duration": 0.15625,
          "durationTicks": 60,
          "midi": 79,
          "name": "G5",
          "ticks": 360960,
          "time": 958.5448423333332,
          "velocity": 0.7874015748031497
        },
        {
          "duration": 0.15625,
          "durationTicks": 60,
          "midi": 78,
          "name": "F#5",
          "ticks": 361020,
          "time": 958.7010923333332,
          "velocity": 0.7874015748031497
        },
        {
          "duration": 0.15625,
          "durationTicks": 60,
          "midi": 76,
          "name": "E5",
          "ticks": 361080,
          "time": 958.8573423333332,
          "velocity": 0.7874015748031497
        },
        {
          "duration": 0.15625,
          "durationTicks": 60,
          "midi": 78,
          "name": "F#5",
          "ticks": 361140,
          "time": 959.0135923333332,
          "velocity": 0.7874015748031497
        },
        {
          "duration": 0.15625,
          "durationTicks": 60,
          "midi": 79,
          "name": "G5",
          "ticks": 361200,
          "time": 959.1698423333332,
          "velocity": 0.7874015748031497
        },
        {
          "duration": 0.15625,
          "durationTicks": 60,
          "midi": 81,
          "name": "A5",
          "ticks": 361260,
          "time": 959.3260923333332,
          "velocity": 0.7874015748031497
        },
        {
          "duration": 0.15625,
          "durationTicks": 60,
          "midi": 83,
          "name": "B5",
          "ticks": 361320,
          "time": 959.4823423333332,
          "velocity": 0.7874015748031497
        },
        {
          "duration": 0.15625,
          "durationTicks": 60,
          "midi": 85,
          "name": "C#6",
          "ticks": 361380,
          "time": 959.6385923333332,
          "velocity": 0.7874015748031497
        },
        {
          "duration": 0.15625,
          "durationTicks": 60,
          "midi": 86,
          "name": "D6",
          "ticks": 361440,
          "time": 959.7948423333332,
          "velocity": 0.7874015748031497
        },
        {
          "duration": 0.078125,
          "durationTicks": 30,
          "midi": 85,
          "name": "C#6",
          "ticks": 361500,
          "time": 959.9510923333332,
          "velocity": 0.7874015748031497
        },
        {
          "duration": 0.078125,
          "durationTicks": 30,
          "midi": 83,
          "name": "B5",
          "ticks": 361530,
          "time": 960.0292173333332,
          "velocity": 0.7874015748031497
        },
        {
          "duration": 0.078125,
          "durationTicks": 30,
          "midi": 81,
          "name": "A5",
          "ticks": 361560,
          "time": 960.1073423333332,
          "velocity": 0.7874015748031497
        },
        {
          "duration": 0.078125,
          "durationTicks": 30,
          "midi": 79,
          "name": "G5",
          "ticks": 361590,
          "time": 960.1854673333332,
          "velocity": 0.7874015748031497
        },
        {
          "duration": 0.078125,
          "durationTicks": 30,
          "midi": 78,
          "name": "F#5",
          "ticks": 361620,
          "time": 960.2635923333332,
          "velocity": 0.7874015748031497
        },
        {
          "duration": 0.078125,
          "durationTicks": 30,
          "midi": 76,
          "name": "E5",
          "ticks": 361650,
          "time": 960.3417173333332,
          "velocity": 0.7874015748031497
        },
        {
          "duration": 0.3125,
          "durationTicks": 120,
          "midi": 74,
          "name": "D5",
          "ticks": 361680,
          "time": 960.4198423333332,
          "velocity": 0.7874015748031497
        },
        {
          "duration": 0.15625,
          "durationTicks": 60,
          "midi": 81,
          "name": "A5",
          "ticks": 362160,
          "time": 961.6698423333332,
          "velocity": 0.7874015748031497
        },
        {
          "duration": 0.15625,
          "durationTicks": 60,
          "midi": 93,
          "name": "A6",
          "ticks": 362220,
          "time": 961.8260923333332,
          "velocity": 0.7874015748031497
        },
        {
          "duration": 0.15625,
          "durationTicks": 60,
          "midi": 81,
          "name": "A5",
          "ticks": 362280,
          "time": 961.9823423333332,
          "velocity": 0.7874015748031497
        },
        {
          "duration": 0.15625,
          "durationTicks": 60,
          "midi": 79,
          "name": "G5",
          "ticks": 362340,
          "time": 962.1385923333332,
          "velocity": 0.7874015748031497
        },
        {
          "duration": 0.15625,
          "durationTicks": 60,
          "midi": 78,
          "name": "F#5",
          "ticks": 362400,
          "time": 962.2948423333332,
          "velocity": 0.7874015748031497
        },
        {
          "duration": 0.15625,
          "durationTicks": 60,
          "midi": 90,
          "name": "F#6",
          "ticks": 362460,
          "time": 962.4510923333332,
          "velocity": 0.7874015748031497
        },
        {
          "duration": 0.15625,
          "durationTicks": 60,
          "midi": 78,
          "name": "F#5",
          "ticks": 362520,
          "time": 962.6073423333332,
          "velocity": 0.7874015748031497
        },
        {
          "duration": 0.15625,
          "durationTicks": 60,
          "midi": 76,
          "name": "E5",
          "ticks": 362580,
          "time": 962.7635923333332,
          "velocity": 0.7874015748031497
        },
        {
          "duration": 0.15625,
          "durationTicks": 60,
          "midi": 74,
          "name": "D5",
          "ticks": 362640,
          "time": 962.9198423333332,
          "velocity": 0.7874015748031497
        },
        {
          "duration": 0.15625,
          "durationTicks": 60,
          "midi": 86,
          "name": "D6",
          "ticks": 362700,
          "time": 963.0760923333332,
          "velocity": 0.7874015748031497
        },
        {
          "duration": 0.15625,
          "durationTicks": 60,
          "midi": 74,
          "name": "D5",
          "ticks": 362760,
          "time": 963.2323423333332,
          "velocity": 0.7874015748031497
        },
        {
          "duration": 0.15625,
          "durationTicks": 60,
          "midi": 72,
          "name": "C5",
          "ticks": 362820,
          "time": 963.3885923333332,
          "velocity": 0.7874015748031497
        },
        {
          "duration": 0.15625,
          "durationTicks": 60,
          "midi": 71,
          "name": "B4",
          "ticks": 362880,
          "time": 963.5448423333332,
          "velocity": 0.7874015748031497
        },
        {
          "duration": 0.15625,
          "durationTicks": 60,
          "midi": 83,
          "name": "B5",
          "ticks": 362940,
          "time": 963.7010923333332,
          "velocity": 0.7874015748031497
        },
        {
          "duration": 0.15625,
          "durationTicks": 60,
          "midi": 71,
          "name": "B4",
          "ticks": 363000,
          "time": 963.8573423333332,
          "velocity": 0.7874015748031497
        },
        {
          "duration": 0.15625,
          "durationTicks": 60,
          "midi": 69,
          "name": "A4",
          "ticks": 363060,
          "time": 964.0135923333332,
          "velocity": 0.7874015748031497
        },
        {
          "duration": 0.15625,
          "durationTicks": 60,
          "midi": 67,
          "name": "G4",
          "ticks": 363120,
          "time": 964.1698423333332,
          "velocity": 0.7874015748031497
        },
        {
          "duration": 0.15625,
          "durationTicks": 60,
          "midi": 79,
          "name": "G5",
          "ticks": 363180,
          "time": 964.3260923333332,
          "velocity": 0.7874015748031497
        },
        {
          "duration": 0.15625,
          "durationTicks": 60,
          "midi": 67,
          "name": "G4",
          "ticks": 363240,
          "time": 964.4823423333332,
          "velocity": 0.7874015748031497
        },
        {
          "duration": 0.15625,
          "durationTicks": 60,
          "midi": 66,
          "name": "F#4",
          "ticks": 363300,
          "time": 964.6385923333332,
          "velocity": 0.7874015748031497
        },
        {
          "duration": 0.15625,
          "durationTicks": 60,
          "midi": 64,
          "name": "E4",
          "ticks": 363360,
          "time": 964.7948423333332,
          "velocity": 0.7874015748031497
        },
        {
          "duration": 0.15625,
          "durationTicks": 60,
          "midi": 76,
          "name": "E5",
          "ticks": 363420,
          "time": 964.9510923333332,
          "velocity": 0.7874015748031497
        },
        {
          "duration": 0.15625,
          "durationTicks": 60,
          "midi": 64,
          "name": "E4",
          "ticks": 363480,
          "time": 965.1073423333332,
          "velocity": 0.7874015748031497
        },
        {
          "duration": 0.15625,
          "durationTicks": 60,
          "midi": 62,
          "name": "D4",
          "ticks": 363540,
          "time": 965.2635923333332,
          "velocity": 0.7874015748031497
        },
        {
          "duration": 0.15625,
          "durationTicks": 60,
          "midi": 60,
          "name": "C4",
          "ticks": 363600,
          "time": 965.4198423333332,
          "velocity": 0.7874015748031497
        },
        {
          "duration": 0.15625,
          "durationTicks": 60,
          "midi": 72,
          "name": "C5",
          "ticks": 363660,
          "time": 965.5760923333332,
          "velocity": 0.7874015748031497
        },
        {
          "duration": 0.15625,
          "durationTicks": 60,
          "midi": 60,
          "name": "C4",
          "ticks": 363720,
          "time": 965.7323423333332,
          "velocity": 0.7874015748031497
        },
        {
          "duration": 0.15625,
          "durationTicks": 60,
          "midi": 59,
          "name": "B3",
          "ticks": 363780,
          "time": 965.8885923333332,
          "velocity": 0.7874015748031497
        },
        {
          "duration": 0.15625,
          "durationTicks": 60,
          "midi": 57,
          "name": "A3",
          "ticks": 363840,
          "time": 966.0448423333332,
          "velocity": 0.7874015748031497
        },
        {
          "duration": 0.15625,
          "durationTicks": 60,
          "midi": 69,
          "name": "A4",
          "ticks": 363900,
          "time": 966.2010923333332,
          "velocity": 0.7874015748031497
        },
        {
          "duration": 0.15625,
          "durationTicks": 60,
          "midi": 57,
          "name": "A3",
          "ticks": 363960,
          "time": 966.3573423333332,
          "velocity": 0.7874015748031497
        },
        {
          "duration": 0.15625,
          "durationTicks": 60,
          "midi": 55,
          "name": "G3",
          "ticks": 364020,
          "time": 966.5135923333332,
          "velocity": 0.7874015748031497
        },
        {
          "duration": 0.15625,
          "durationTicks": 60,
          "midi": 54,
          "name": "F#3",
          "ticks": 364080,
          "time": 966.6698423333332,
          "velocity": 0.7874015748031497
        },
        {
          "duration": 0.15625,
          "durationTicks": 60,
          "midi": 66,
          "name": "F#4",
          "ticks": 364140,
          "time": 966.8260923333332,
          "velocity": 0.7874015748031497
        },
        {
          "duration": 0.15625,
          "durationTicks": 60,
          "midi": 54,
          "name": "F#3",
          "ticks": 364200,
          "time": 966.9823423333332,
          "velocity": 0.7874015748031497
        },
        {
          "duration": 0.15625,
          "durationTicks": 60,
          "midi": 52,
          "name": "E3",
          "ticks": 364260,
          "time": 967.1385923333332,
          "velocity": 0.7874015748031497
        },
        {
          "duration": 0.15625,
          "durationTicks": 60,
          "midi": 51,
          "name": "D#3",
          "ticks": 364320,
          "time": 967.2948423333332,
          "velocity": 0.7874015748031497
        },
        {
          "duration": 0.15625,
          "durationTicks": 60,
          "midi": 63,
          "name": "D#4",
          "ticks": 364380,
          "time": 967.4510923333332,
          "velocity": 0.7874015748031497
        },
        {
          "duration": 0.15625,
          "durationTicks": 60,
          "midi": 51,
          "name": "D#3",
          "ticks": 364440,
          "time": 967.6073423333332,
          "velocity": 0.7874015748031497
        },
        {
          "duration": 0.15625,
          "durationTicks": 60,
          "midi": 54,
          "name": "F#3",
          "ticks": 364500,
          "time": 967.7635923333332,
          "velocity": 0.7874015748031497
        },
        {
          "duration": 0.15625,
          "durationTicks": 60,
          "midi": 57,
          "name": "A3",
          "ticks": 364560,
          "time": 967.9198423333332,
          "velocity": 0.7874015748031497
        },
        {
          "duration": 0.15625,
          "durationTicks": 60,
          "midi": 69,
          "name": "A4",
          "ticks": 364620,
          "time": 968.0760923333332,
          "velocity": 0.7874015748031497
        },
        {
          "duration": 0.15625,
          "durationTicks": 60,
          "midi": 57,
          "name": "A3",
          "ticks": 364680,
          "time": 968.2323423333332,
          "velocity": 0.7874015748031497
        },
        {
          "duration": 0.15625,
          "durationTicks": 60,
          "midi": 60,
          "name": "C4",
          "ticks": 364740,
          "time": 968.3885923333332,
          "velocity": 0.7874015748031497
        },
        {
          "duration": 0.15625,
          "durationTicks": 60,
          "midi": 59,
          "name": "B3",
          "ticks": 364800,
          "time": 968.5448423333332,
          "velocity": 0.7874015748031497
        },
        {
          "duration": 0.15625,
          "durationTicks": 60,
          "midi": 71,
          "name": "B4",
          "ticks": 364860,
          "time": 968.7010923333332,
          "velocity": 0.7874015748031497
        },
        {
          "duration": 0.15625,
          "durationTicks": 60,
          "midi": 59,
          "name": "B3",
          "ticks": 364920,
          "time": 968.8573423333332,
          "velocity": 0.7874015748031497
        },
        {
          "duration": 0.15625,
          "durationTicks": 60,
          "midi": 57,
          "name": "A3",
          "ticks": 364980,
          "time": 969.0135923333332,
          "velocity": 0.7874015748031497
        },
        {
          "duration": 0.625,
          "durationTicks": 240,
          "midi": 55,
          "name": "G3",
          "ticks": 365040,
          "time": 969.1698423333332,
          "velocity": 0.7874015748031497
        },
        {
          "duration": 0.15625,
          "durationTicks": 60,
          "midi": 75,
          "name": "D#5",
          "ticks": 365340,
          "time": 969.9510923333332,
          "velocity": 0.7874015748031497
        },
        {
          "duration": 0.15625,
          "durationTicks": 60,
          "midi": 76,
          "name": "E5",
          "ticks": 365400,
          "time": 970.1073423333332,
          "velocity": 0.7874015748031497
        },
        {
          "duration": 0.15625,
          "durationTicks": 60,
          "midi": 78,
          "name": "F#5",
          "ticks": 365460,
          "time": 970.2635923333332,
          "velocity": 0.7874015748031497
        },
        {
          "duration": 0.15625,
          "durationTicks": 60,
          "midi": 79,
          "name": "G5",
          "ticks": 365520,
          "time": 970.4198423333332,
          "velocity": 0.7874015748031497
        },
        {
          "duration": 0.15625,
          "durationTicks": 60,
          "midi": 80,
          "name": "G#5",
          "ticks": 365580,
          "time": 970.5760923333332,
          "velocity": 0.7874015748031497
        },
        {
          "duration": 0.15625,
          "durationTicks": 60,
          "midi": 81,
          "name": "A5",
          "ticks": 365640,
          "time": 970.7323423333332,
          "velocity": 0.7874015748031497
        },
        {
          "duration": 0.15625,
          "durationTicks": 60,
          "midi": 83,
          "name": "B5",
          "ticks": 365700,
          "time": 970.8885923333332,
          "velocity": 0.7874015748031497
        },
        {
          "duration": 0.15625,
          "durationTicks": 60,
          "midi": 84,
          "name": "C6",
          "ticks": 365760,
          "time": 971.0448423333332,
          "velocity": 0.7874015748031497
        },
        {
          "duration": 0.15625,
          "durationTicks": 60,
          "midi": 81,
          "name": "A5",
          "ticks": 365820,
          "time": 971.2010923333332,
          "velocity": 0.7874015748031497
        },
        {
          "duration": 0.15625,
          "durationTicks": 60,
          "midi": 79,
          "name": "G5",
          "ticks": 365880,
          "time": 971.3573423333332,
          "velocity": 0.7874015748031497
        },
        {
          "duration": 0.15625,
          "durationTicks": 60,
          "midi": 77,
          "name": "F5",
          "ticks": 365940,
          "time": 971.5135923333332,
          "velocity": 0.7874015748031497
        },
        {
          "duration": 0.15625,
          "durationTicks": 60,
          "midi": 76,
          "name": "E5",
          "ticks": 366000,
          "time": 971.6698423333332,
          "velocity": 0.7874015748031497
        },
        {
          "duration": 0.15625,
          "durationTicks": 60,
          "midi": 74,
          "name": "D5",
          "ticks": 366060,
          "time": 971.8260923333332,
          "velocity": 0.7874015748031497
        },
        {
          "duration": 0.15625,
          "durationTicks": 60,
          "midi": 72,
          "name": "C5",
          "ticks": 366120,
          "time": 971.9823423333332,
          "velocity": 0.7874015748031497
        },
        {
          "duration": 0.15625,
          "durationTicks": 60,
          "midi": 71,
          "name": "B4",
          "ticks": 366180,
          "time": 972.1385923333332,
          "velocity": 0.7874015748031497
        },
        {
          "duration": 0.15625,
          "durationTicks": 60,
          "midi": 69,
          "name": "A4",
          "ticks": 366240,
          "time": 972.2948423333332,
          "velocity": 0.7874015748031497
        },
        {
          "duration": 0.15625,
          "durationTicks": 60,
          "midi": 67,
          "name": "G4",
          "ticks": 366300,
          "time": 972.4510923333332,
          "velocity": 0.7874015748031497
        },
        {
          "duration": 0.15625,
          "durationTicks": 60,
          "midi": 66,
          "name": "F#4",
          "ticks": 366360,
          "time": 972.6073423333332,
          "velocity": 0.7874015748031497
        },
        {
          "duration": 0.15625,
          "durationTicks": 60,
          "midi": 72,
          "name": "C5",
          "ticks": 366540,
          "time": 973.0760923333332,
          "velocity": 0.7874015748031497
        },
        {
          "duration": 0.15625,
          "durationTicks": 60,
          "midi": 71,
          "name": "B4",
          "ticks": 366600,
          "time": 973.2323423333332,
          "velocity": 0.7874015748031497
        },
        {
          "duration": 0.15625,
          "durationTicks": 60,
          "midi": 83,
          "name": "B5",
          "ticks": 366660,
          "time": 973.3885923333332,
          "velocity": 0.7874015748031497
        },
        {
          "duration": 0.078125,
          "durationTicks": 30,
          "midi": 71,
          "name": "B4",
          "ticks": 366750,
          "time": 973.6229673333332,
          "velocity": 0.7874015748031497
        },
        {
          "duration": 0.078125,
          "durationTicks": 30,
          "midi": 73,
          "name": "C#5",
          "ticks": 366780,
          "time": 973.7010923333332,
          "velocity": 0.7874015748031497
        },
        {
          "duration": 0.078125,
          "durationTicks": 30,
          "midi": 75,
          "name": "D#5",
          "ticks": 366810,
          "time": 973.7792173333332,
          "velocity": 0.7874015748031497
        },
        {
          "duration": 0.078125,
          "durationTicks": 30,
          "midi": 76,
          "name": "E5",
          "ticks": 366840,
          "time": 973.8573423333332,
          "velocity": 0.7874015748031497
        },
        {
          "duration": 0.078125,
          "durationTicks": 30,
          "midi": 78,
          "name": "F#5",
          "ticks": 366870,
          "time": 973.9354673333332,
          "velocity": 0.7874015748031497
        },
        {
          "duration": 0.3125,
          "durationTicks": 120,
          "midi": 79,
          "name": "G5",
          "ticks": 366900,
          "time": 974.0135923333332,
          "velocity": 0.7874015748031497
        },
        {
          "duration": 0.15625,
          "durationTicks": 60,
          "midi": 78,
          "name": "F#5",
          "ticks": 367020,
          "time": 974.3260923333332,
          "velocity": 0.7874015748031497
        },
        {
          "duration": 0.0390625,
          "durationTicks": 15,
          "midi": 78,
          "name": "F#5",
          "ticks": 367080,
          "time": 974.4823423333332,
          "velocity": 0.7874015748031497
        },
        {
          "duration": 0.0390625,
          "durationTicks": 15,
          "midi": 76,
          "name": "E5",
          "ticks": 367095,
          "time": 974.5214048333332,
          "velocity": 0.7874015748031497
        },
        {
          "duration": 0.0390625,
          "durationTicks": 15,
          "midi": 78,
          "name": "F#5",
          "ticks": 367110,
          "time": 974.5604673333332,
          "velocity": 0.7874015748031497
        },
        {
          "duration": 0.0390625,
          "durationTicks": 15,
          "midi": 76,
          "name": "E5",
          "ticks": 367125,
          "time": 974.5995298333332,
          "velocity": 0.7874015748031497
        },
        {
          "duration": 0.15625,
          "durationTicks": 60,
          "midi": 75,
          "name": "D#5",
          "ticks": 367140,
          "time": 974.6385923333332,
          "velocity": 0.7874015748031497
        },
        {
          "duration": 0.078125,
          "durationTicks": 30,
          "midi": 76,
          "name": "E5",
          "ticks": 367200,
          "time": 974.7948423333332,
          "velocity": 0.7874015748031497
        },
        {
          "duration": 0.078125,
          "durationTicks": 30,
          "midi": 72,
          "name": "C5",
          "ticks": 367230,
          "time": 974.8729673333332,
          "velocity": 0.7874015748031497
        },
        {
          "duration": 0.078125,
          "durationTicks": 30,
          "midi": 71,
          "name": "B4",
          "ticks": 367260,
          "time": 974.9510923333332,
          "velocity": 0.7874015748031497
        },
        {
          "duration": 0.078125,
          "durationTicks": 30,
          "midi": 69,
          "name": "A4",
          "ticks": 367290,
          "time": 975.0292173333332,
          "velocity": 0.7874015748031497
        },
        {
          "duration": 0.3125,
          "durationTicks": 120,
          "midi": 71,
          "name": "B4",
          "ticks": 367320,
          "time": 975.1073423333332,
          "velocity": 0.7874015748031497
        },
        {
          "duration": 0.078125,
          "durationTicks": 30,
          "midi": 66,
          "name": "F#4",
          "ticks": 367470,
          "time": 975.4979673333332,
          "velocity": 0.7874015748031497
        },
        {
          "duration": 0.078125,
          "durationTicks": 30,
          "midi": 64,
          "name": "E4",
          "ticks": 367500,
          "time": 975.5760923333332,
          "velocity": 0.7874015748031497
        },
        {
          "duration": 0.078125,
          "durationTicks": 30,
          "midi": 63,
          "name": "D#4",
          "ticks": 367530,
          "time": 975.6542173333332,
          "velocity": 0.7874015748031497
        },
        {
          "duration": 0.3125,
          "durationTicks": 120,
          "midi": 64,
          "name": "E4",
          "ticks": 367560,
          "time": 975.7323423333332,
          "velocity": 0.7874015748031497
        },
        {
          "duration": 0.078125,
          "durationTicks": 30,
          "midi": 57,
          "name": "A3",
          "ticks": 367710,
          "time": 976.1229673333332,
          "velocity": 0.7874015748031497
        },
        {
          "duration": 0.078125,
          "durationTicks": 30,
          "midi": 55,
          "name": "G3",
          "ticks": 367740,
          "time": 976.2010923333332,
          "velocity": 0.7874015748031497
        },
        {
          "duration": 0.078125,
          "durationTicks": 30,
          "midi": 54,
          "name": "F#3",
          "ticks": 367770,
          "time": 976.2792173333332,
          "velocity": 0.7874015748031497
        },
        {
          "duration": 0.3125,
          "durationTicks": 120,
          "midi": 55,
          "name": "G3",
          "ticks": 367800,
          "time": 976.3573423333332,
          "velocity": 0.7874015748031497
        },
        {
          "duration": 2.5,
          "durationTicks": 240,
          "midi": 58,
          "name": "A#3",
          "ticks": 374400,
          "time": 995.4198423333332,
          "velocity": 0.7874015748031497
        },
        {
          "duration": 1.25,
          "durationTicks": 120,
          "midi": 62,
          "name": "D4",
          "ticks": 374760,
          "time": 999.1698423333332,
          "velocity": 0.7874015748031497
        },
        {
          "duration": 1.25,
          "durationTicks": 120,
          "midi": 60,
          "name": "C4",
          "ticks": 374880,
          "time": 1000.4198423333332,
          "velocity": 0.7874015748031497
        },
        {
          "duration": 1.25,
          "durationTicks": 120,
          "midi": 58,
          "name": "A#3",
          "ticks": 375000,
          "time": 1001.6698423333332,
          "velocity": 0.7874015748031497
        },
        {
          "duration": 2.5,
          "durationTicks": 240,
          "midi": 57,
          "name": "A3",
          "ticks": 375120,
          "time": 1002.9198423333332,
          "velocity": 0.7874015748031497
        },
        {
          "duration": 1.25,
          "durationTicks": 120,
          "midi": 60,
          "name": "C4",
          "ticks": 375480,
          "time": 1006.6698423333332,
          "velocity": 0.7874015748031497
        },
        {
          "duration": 1.25,
          "durationTicks": 120,
          "midi": 58,
          "name": "A#3",
          "ticks": 375600,
          "time": 1007.9198423333332,
          "velocity": 0.7874015748031497
        },
        {
          "duration": 1.25,
          "durationTicks": 120,
          "midi": 56,
          "name": "G#3",
          "ticks": 375720,
          "time": 1009.1698423333332,
          "velocity": 0.7874015748031497
        },
        {
          "duration": 2.5,
          "durationTicks": 240,
          "midi": 55,
          "name": "G3",
          "ticks": 375840,
          "time": 1010.4198423333332,
          "velocity": 0.7874015748031497
        },
        {
          "duration": 1.25,
          "durationTicks": 120,
          "midi": 58,
          "name": "A#3",
          "ticks": 376200,
          "time": 1014.1698423333332,
          "velocity": 0.7874015748031497
        },
        {
          "duration": 1.25,
          "durationTicks": 120,
          "midi": 57,
          "name": "A3",
          "ticks": 376320,
          "time": 1015.4198423333332,
          "velocity": 0.7874015748031497
        },
        {
          "duration": 2.5,
          "durationTicks": 240,
          "midi": 55,
          "name": "G3",
          "ticks": 376440,
          "time": 1016.6698423333332,
          "velocity": 0.7874015748031497
        },
        {
          "duration": 0.625,
          "durationTicks": 60,
          "midi": 54,
          "name": "F#3",
          "ticks": 376680,
          "time": 1019.1698423333332,
          "velocity": 0.7874015748031497
        },
        {
          "duration": 0.625,
          "durationTicks": 60,
          "midi": 52,
          "name": "E3",
          "ticks": 376740,
          "time": 1019.7948423333332,
          "velocity": 0.7874015748031497
        },
        {
          "duration": 0.625,
          "durationTicks": 60,
          "midi": 54,
          "name": "F#3",
          "ticks": 376800,
          "time": 1020.4198423333332,
          "velocity": 0.7874015748031497
        },
        {
          "duration": 1.25,
          "durationTicks": 120,
          "midi": 57,
          "name": "A3",
          "ticks": 376860,
          "time": 1021.0448423333332,
          "velocity": 0.7874015748031497
        },
        {
          "duration": 1.25,
          "durationTicks": 120,
          "midi": 60,
          "name": "C4",
          "ticks": 376980,
          "time": 1022.2948423333332,
          "velocity": 0.7874015748031497
        },
        {
          "duration": 1.25,
          "durationTicks": 120,
          "midi": 54,
          "name": "F#3",
          "ticks": 377100,
          "time": 1023.5448423333332,
          "velocity": 0.7874015748031497
        },
        {
          "duration": 1.25,
          "durationTicks": 120,
          "midi": 57,
          "name": "A3",
          "ticks": 377220,
          "time": 1024.7948423333332,
          "velocity": 0.7874015748031497
        },
        {
          "duration": 0.625,
          "durationTicks": 60,
          "midi": 54,
          "name": "F#3",
          "ticks": 377340,
          "time": 1026.0448423333332,
          "velocity": 0.7874015748031497
        },
        {
          "duration": 1.25,
          "durationTicks": 120,
          "midi": 55,
          "name": "G3",
          "ticks": 377400,
          "time": 1026.6698423333332,
          "velocity": 0.7874015748031497
        },
        {
          "duration": 1.25,
          "durationTicks": 120,
          "midi": 55,
          "name": "G3",
          "ticks": 377640,
          "time": 1029.1698423333332,
          "velocity": 0.7874015748031497
        },
        {
          "duration": 0.625,
          "durationTicks": 60,
          "midi": 50,
          "name": "D3",
          "ticks": 377760,
          "time": 1030.4198423333332,
          "velocity": 0.7874015748031497
        },
        {
          "duration": 0.625,
          "durationTicks": 60,
          "midi": 53,
          "name": "F3",
          "ticks": 377820,
          "time": 1031.0448423333332,
          "velocity": 0.7874015748031497
        },
        {
          "duration": 0.625,
          "durationTicks": 60,
          "midi": 55,
          "name": "G3",
          "ticks": 377880,
          "time": 1031.6698423333332,
          "velocity": 0.7874015748031497
        },
        {
          "duration": 0.625,
          "durationTicks": 60,
          "midi": 56,
          "name": "G#3",
          "ticks": 377940,
          "time": 1032.2948423333332,
          "velocity": 0.7874015748031497
        },
        {
          "duration": 1.25,
          "durationTicks": 120,
          "midi": 56,
          "name": "G#3",
          "ticks": 378000,
          "time": 1032.9198423333332,
          "velocity": 0.7874015748031497
        },
        {
          "duration": 1.25,
          "durationTicks": 120,
          "midi": 55,
          "name": "G3",
          "ticks": 378120,
          "time": 1034.1698423333332,
          "velocity": 0.7874015748031497
        },
        {
          "duration": 1.25,
          "durationTicks": 120,
          "midi": 57,
          "name": "A3",
          "ticks": 378360,
          "time": 1036.6698423333332,
          "velocity": 0.7874015748031497
        },
        {
          "duration": 0.625,
          "durationTicks": 60,
          "midi": 52,
          "name": "E3",
          "ticks": 378480,
          "time": 1037.9198423333332,
          "velocity": 0.7874015748031497
        },
        {
          "duration": 0.625,
          "durationTicks": 60,
          "midi": 55,
          "name": "G3",
          "ticks": 378540,
          "time": 1038.5448423333332,
          "velocity": 0.7874015748031497
        },
        {
          "duration": 0.625,
          "durationTicks": 60,
          "midi": 57,
          "name": "A3",
          "ticks": 378600,
          "time": 1039.1698423333332,
          "velocity": 0.7874015748031497
        },
        {
          "duration": 0.625,
          "durationTicks": 60,
          "midi": 58,
          "name": "A#3",
          "ticks": 378660,
          "time": 1039.7948423333332,
          "velocity": 0.7874015748031497
        },
        {
          "duration": 1.25,
          "durationTicks": 120,
          "midi": 58,
          "name": "A#3",
          "ticks": 378720,
          "time": 1040.4198423333332,
          "velocity": 0.7874015748031497
        },
        {
          "duration": 1.25,
          "durationTicks": 120,
          "midi": 57,
          "name": "A3",
          "ticks": 378840,
          "time": 1041.6698423333332,
          "velocity": 0.7874015748031497
        },
        {
          "duration": 1.25,
          "durationTicks": 120,
          "midi": 57,
          "name": "A3",
          "ticks": 379080,
          "time": 1044.1698423333332,
          "velocity": 0.7874015748031497
        },
        {
          "duration": 1.25,
          "durationTicks": 120,
          "midi": 55,
          "name": "G3",
          "ticks": 379200,
          "time": 1045.4198423333332,
          "velocity": 0.7874015748031497
        },
        {
          "duration": 2.5,
          "durationTicks": 240,
          "midi": 54,
          "name": "F#3",
          "ticks": 379320,
          "time": 1046.6698423333332,
          "velocity": 0.7874015748031497
        },
        {
          "duration": 0.625,
          "durationTicks": 60,
          "midi": 55,
          "name": "G3",
          "ticks": 379560,
          "time": 1049.1698423333332,
          "velocity": 0.7874015748031497
        },
        {
          "duration": 0.625,
          "durationTicks": 60,
          "midi": 54,
          "name": "F#3",
          "ticks": 379620,
          "time": 1049.7948423333332,
          "velocity": 0.7874015748031497
        },
        {
          "duration": 0.625,
          "durationTicks": 60,
          "midi": 55,
          "name": "G3",
          "ticks": 379680,
          "time": 1050.4198423333332,
          "velocity": 0.7874015748031497
        },
        {
          "duration": 1.25,
          "durationTicks": 120,
          "midi": 50,
          "name": "D3",
          "ticks": 379740,
          "time": 1051.0448423333332,
          "velocity": 0.7874015748031497
        },
        {
          "duration": 0.9375,
          "durationTicks": 90,
          "midi": 51,
          "name": "D#3",
          "ticks": 379860,
          "time": 1052.2948423333332,
          "velocity": 0.7874015748031497
        },
        {
          "duration": 0.3125,
          "durationTicks": 30,
          "midi": 50,
          "name": "D3",
          "ticks": 379950,
          "time": 1053.2323423333332,
          "velocity": 0.7874015748031497
        },
        {
          "duration": 0.9375,
          "durationTicks": 90,
          "midi": 55,
          "name": "G3",
          "ticks": 379980,
          "time": 1053.5448423333332,
          "velocity": 0.7874015748031497
        },
        {
          "duration": 0.3125,
          "durationTicks": 30,
          "midi": 54,
          "name": "F#3",
          "ticks": 380070,
          "time": 1054.4823423333332,
          "velocity": 0.7874015748031497
        },
        {
          "duration": 1.25,
          "durationTicks": 120,
          "midi": 60,
          "name": "C4",
          "ticks": 380100,
          "time": 1054.7948423333332,
          "velocity": 0.7874015748031497
        },
        {
          "duration": 0.3125,
          "durationTicks": 30,
          "midi": 58,
          "name": "A#3",
          "ticks": 380220,
          "time": 1056.0448423333332,
          "velocity": 0.7874015748031497
        },
        {
          "duration": 0.3125,
          "durationTicks": 30,
          "midi": 57,
          "name": "A3",
          "ticks": 380250,
          "time": 1056.3573423333332,
          "velocity": 0.7874015748031497
        },
        {
          "duration": 1.25,
          "durationTicks": 120,
          "midi": 58,
          "name": "A#3",
          "ticks": 380280,
          "time": 1056.6698423333332,
          "velocity": 0.7874015748031497
        },
        {
          "duration": 1.25,
          "durationTicks": 120,
          "midi": 67,
          "name": "G4",
          "ticks": 380520,
          "time": 1059.1698423333332,
          "velocity": 0.7874015748031497
        },
        {
          "duration": 1.25,
          "durationTicks": 120,
          "midi": 67,
          "name": "G4",
          "ticks": 380640,
          "time": 1060.4198423333332,
          "velocity": 0.7874015748031497
        },
        {
          "duration": 1.25,
          "durationTicks": 120,
          "midi": 67,
          "name": "G4",
          "ticks": 380760,
          "time": 1061.6698423333332,
          "velocity": 0.7874015748031497
        },
        {
          "duration": 1.25,
          "durationTicks": 120,
          "midi": 67,
          "name": "G4",
          "ticks": 380880,
          "time": 1062.9198423333332,
          "velocity": 0.7874015748031497
        },
        {
          "duration": 1.25,
          "durationTicks": 120,
          "midi": 66,
          "name": "F#4",
          "ticks": 381000,
          "time": 1064.1698423333332,
          "velocity": 0.7874015748031497
        },
        {
          "duration": 1.25,
          "durationTicks": 120,
          "midi": 65,
          "name": "F4",
          "ticks": 381240,
          "time": 1066.6698423333332,
          "velocity": 0.7874015748031497
        },
        {
          "duration": 1.25,
          "durationTicks": 120,
          "midi": 65,
          "name": "F4",
          "ticks": 381360,
          "time": 1067.9198423333332,
          "velocity": 0.7874015748031497
        },
        {
          "duration": 1.25,
          "durationTicks": 120,
          "midi": 65,
          "name": "F4",
          "ticks": 381480,
          "time": 1069.1698423333332,
          "velocity": 0.7874015748031497
        },
        {
          "duration": 1.25,
          "durationTicks": 120,
          "midi": 65,
          "name": "F4",
          "ticks": 381600,
          "time": 1070.4198423333332,
          "velocity": 0.7874015748031497
        },
        {
          "duration": 1.25,
          "durationTicks": 120,
          "midi": 64,
          "name": "E4",
          "ticks": 381720,
          "time": 1071.6698423333332,
          "velocity": 0.7874015748031497
        },
        {
          "duration": 1.25,
          "durationTicks": 120,
          "midi": 63,
          "name": "D#4",
          "ticks": 381960,
          "time": 1074.1698423333332,
          "velocity": 0.7874015748031497
        },
        {
          "duration": 1.25,
          "durationTicks": 120,
          "midi": 63,
          "name": "D#4",
          "ticks": 382080,
          "time": 1075.4198423333332,
          "velocity": 0.7874015748031497
        },
        {
          "duration": 1.25,
          "durationTicks": 120,
          "midi": 62,
          "name": "D4",
          "ticks": 382200,
          "time": 1076.6698423333332,
          "velocity": 0.7874015748031497
        },
        {
          "duration": 1.25,
          "durationTicks": 120,
          "midi": 62,
          "name": "D4",
          "ticks": 382320,
          "time": 1077.9198423333332,
          "velocity": 0.7874015748031497
        },
        {
          "duration": 1.25,
          "durationTicks": 120,
          "midi": 61,
          "name": "C#4",
          "ticks": 382440,
          "time": 1079.1698423333332,
          "velocity": 0.7874015748031497
        },
        {
          "duration": 1.25,
          "durationTicks": 120,
          "midi": 62,
          "name": "D4",
          "ticks": 383160,
          "time": 1086.6698423333332,
          "velocity": 0.7874015748031497
        },
        {
          "duration": 1.25,
          "durationTicks": 120,
          "midi": 62,
          "name": "D4",
          "ticks": 383280,
          "time": 1087.9198423333332,
          "velocity": 0.7874015748031497
        },
        {
          "duration": 1.25,
          "durationTicks": 120,
          "midi": 63,
          "name": "D#4",
          "ticks": 383400,
          "time": 1089.1698423333332,
          "velocity": 0.7874015748031497
        },
        {
          "duration": 2.5,
          "durationTicks": 240,
          "midi": 63,
          "name": "D#4",
          "ticks": 383520,
          "time": 1090.4198423333332,
          "velocity": 0.7874015748031497
        },
        {
          "duration": 1.25,
          "durationTicks": 120,
          "midi": 64,
          "name": "E4",
          "ticks": 383880,
          "time": 1094.1698423333332,
          "velocity": 0.7874015748031497
        },
        {
          "duration": 1.25,
          "durationTicks": 120,
          "midi": 64,
          "name": "E4",
          "ticks": 384000,
          "time": 1095.4198423333332,
          "velocity": 0.7874015748031497
        },
        {
          "duration": 1.25,
          "durationTicks": 120,
          "midi": 65,
          "name": "F4",
          "ticks": 384120,
          "time": 1096.6698423333332,
          "velocity": 0.7874015748031497
        },
        {
          "duration": 2.5,
          "durationTicks": 240,
          "midi": 65,
          "name": "F4",
          "ticks": 384240,
          "time": 1097.9198423333332,
          "velocity": 0.7874015748031497
        },
        {
          "duration": 1.25,
          "durationTicks": 120,
          "midi": 66,
          "name": "F#4",
          "ticks": 384600,
          "time": 1101.6698423333332,
          "velocity": 0.7874015748031497
        },
        {
          "duration": 1.25,
          "durationTicks": 120,
          "midi": 66,
          "name": "F#4",
          "ticks": 384720,
          "time": 1102.9198423333332,
          "velocity": 0.7874015748031497
        },
        {
          "duration": 1.25,
          "durationTicks": 120,
          "midi": 67,
          "name": "G4",
          "ticks": 384840,
          "time": 1104.1698423333332,
          "velocity": 0.7874015748031497
        },
        {
          "duration": 3.75,
          "durationTicks": 360,
          "midi": 67,
          "name": "G4",
          "ticks": 384960,
          "time": 1105.4198423333332,
          "velocity": 0.7874015748031497
        },
        {
          "duration": 0.625,
          "durationTicks": 60,
          "midi": 66,
          "name": "F#4",
          "ticks": 385320,
          "time": 1109.1698423333332,
          "velocity": 0.7874015748031497
        },
        {
          "duration": 0.625,
          "durationTicks": 60,
          "midi": 64,
          "name": "E4",
          "ticks": 385380,
          "time": 1109.7948423333332,
          "velocity": 0.7874015748031497
        },
        {
          "duration": 2.5,
          "durationTicks": 240,
          "midi": 66,
          "name": "F#4",
          "ticks": 385440,
          "time": 1110.4198423333332,
          "velocity": 0.7874015748031497
        },
        {
          "duration": 1.25,
          "durationTicks": 120,
          "midi": 65,
          "name": "F4",
          "ticks": 386040,
          "time": 1116.6698423333332,
          "velocity": 0.7874015748031497
        },
        {
          "duration": 1.25,
          "durationTicks": 120,
          "midi": 65,
          "name": "F4",
          "ticks": 386160,
          "time": 1117.9198423333332,
          "velocity": 0.7874015748031497
        },
        {
          "duration": 1.25,
          "durationTicks": 120,
          "midi": 66,
          "name": "F#4",
          "ticks": 386280,
          "time": 1119.1698423333332,
          "velocity": 0.7874015748031497
        },
        {
          "duration": 1.25,
          "durationTicks": 120,
          "midi": 66,
          "name": "F#4",
          "ticks": 386400,
          "time": 1120.4198423333332,
          "velocity": 0.7874015748031497
        },
        {
          "duration": 1.25,
          "durationTicks": 120,
          "midi": 67,
          "name": "G4",
          "ticks": 386520,
          "time": 1121.6698423333332,
          "velocity": 0.7874015748031497
        },
        {
          "duration": 1.25,
          "durationTicks": 120,
          "midi": 67,
          "name": "G4",
          "ticks": 386640,
          "time": 1122.9198423333332,
          "velocity": 0.7874015748031497
        },
        {
          "duration": 1.25,
          "durationTicks": 120,
          "midi": 62,
          "name": "D4",
          "ticks": 386760,
          "time": 1124.1698423333332,
          "velocity": 0.7874015748031497
        },
        {
          "duration": 1.25,
          "durationTicks": 120,
          "midi": 65,
          "name": "F4",
          "ticks": 387000,
          "time": 1126.6698423333332,
          "velocity": 0.7874015748031497
        },
        {
          "duration": 1.25,
          "durationTicks": 120,
          "midi": 65,
          "name": "F4",
          "ticks": 387120,
          "time": 1127.9198423333332,
          "velocity": 0.7874015748031497
        },
        {
          "duration": 1.25,
          "durationTicks": 120,
          "midi": 63,
          "name": "D#4",
          "ticks": 387240,
          "time": 1129.1698423333332,
          "velocity": 0.7874015748031497
        },
        {
          "duration": 1.25,
          "durationTicks": 120,
          "midi": 63,
          "name": "D#4",
          "ticks": 387360,
          "time": 1130.4198423333332,
          "velocity": 0.7874015748031497
        },
        {
          "duration": 1.25,
          "durationTicks": 120,
          "midi": 62,
          "name": "D4",
          "ticks": 387480,
          "time": 1131.6698423333332,
          "velocity": 0.7874015748031497
        },
        {
          "duration": 1.25,
          "durationTicks": 120,
          "midi": 63,
          "name": "D#4",
          "ticks": 387600,
          "time": 1132.9198423333332,
          "velocity": 0.7874015748031497
        },
        {
          "duration": 1.25,
          "durationTicks": 120,
          "midi": 64,
          "name": "E4",
          "ticks": 387720,
          "time": 1134.1698423333332,
          "velocity": 0.7874015748031497
        },
        {
          "duration": 1.25,
          "durationTicks": 120,
          "midi": 65,
          "name": "F4",
          "ticks": 387840,
          "time": 1135.4198423333332,
          "velocity": 0.7874015748031497
        },
        {
          "duration": 2.5,
          "durationTicks": 240,
          "midi": 66,
          "name": "F#4",
          "ticks": 387960,
          "time": 1136.6698423333332,
          "velocity": 0.7874015748031497
        },
        {
          "duration": 0.625,
          "durationTicks": 60,
          "midi": 65,
          "name": "F4",
          "ticks": 388200,
          "time": 1139.1698423333332,
          "velocity": 0.7874015748031497
        },
        {
          "duration": 0.625,
          "durationTicks": 60,
          "midi": 66,
          "name": "F#4",
          "ticks": 388260,
          "time": 1139.7948423333332,
          "velocity": 0.7874015748031497
        },
        {
          "duration": 0.625,
          "durationTicks": 60,
          "midi": 68,
          "name": "G#4",
          "ticks": 388320,
          "time": 1140.4198423333332,
          "velocity": 0.7874015748031497
        },
        {
          "duration": 1.25,
          "durationTicks": 120,
          "midi": 62,
          "name": "D4",
          "ticks": 388380,
          "time": 1141.0448423333332,
          "velocity": 0.7874015748031497
        },
        {
          "duration": 0.3125,
          "durationTicks": 30,
          "midi": 63,
          "name": "D#4",
          "ticks": 388500,
          "time": 1142.2948423333332,
          "velocity": 0.7874015748031497
        },
        {
          "duration": 0.3125,
          "durationTicks": 30,
          "midi": 65,
          "name": "F4",
          "ticks": 388530,
          "time": 1142.6073423333332,
          "velocity": 0.7874015748031497
        },
        {
          "duration": 0.3125,
          "durationTicks": 30,
          "midi": 66,
          "name": "F#4",
          "ticks": 388560,
          "time": 1142.9198423333332,
          "velocity": 0.7874015748031497
        },
        {
          "duration": 0.3125,
          "durationTicks": 30,
          "midi": 63,
          "name": "D#4",
          "ticks": 388590,
          "time": 1143.2323423333332,
          "velocity": 0.7874015748031497
        },
        {
          "duration": 1.25,
          "durationTicks": 120,
          "midi": 65,
          "name": "F4",
          "ticks": 388620,
          "time": 1143.5448423333332,
          "velocity": 0.7874015748031497
        },
        {
          "duration": 0.625,
          "durationTicks": 60,
          "midi": 59,
          "name": "B3",
          "ticks": 388740,
          "time": 1144.7948423333332,
          "velocity": 0.7874015748031497
        },
        {
          "duration": 0.625,
          "durationTicks": 60,
          "midi": 59,
          "name": "B3",
          "ticks": 388800,
          "time": 1145.4198423333332,
          "velocity": 0.7874015748031497
        },
        {
          "duration": 0.625,
          "durationTicks": 60,
          "midi": 58,
          "name": "A#3",
          "ticks": 388860,
          "time": 1146.0448423333332,
          "velocity": 0.7874015748031497
        },
        {
          "duration": 1.25,
          "durationTicks": 120,
          "midi": 63,
          "name": "D#4",
          "ticks": 388920,
          "time": 1146.6698423333332,
          "velocity": 0.7874015748031497
        },
        {
          "duration": 1.25,
          "durationTicks": 120,
          "midi": 63,
          "name": "D#4",
          "ticks": 389040,
          "time": 1147.9198423333332,
          "velocity": 0.7874015748031497
        },
        {
          "duration": 1.25,
          "durationTicks": 120,
          "midi": 64,
          "name": "E4",
          "ticks": 389160,
          "time": 1149.1698423333332,
          "velocity": 0.7874015748031497
        },
        {
          "duration": 2.5,
          "durationTicks": 240,
          "midi": 64,
          "name": "E4",
          "ticks": 389280,
          "time": 1150.4198423333332,
          "velocity": 0.7874015748031497
        },
        {
          "duration": 1.25,
          "durationTicks": 120,
          "midi": 65,
          "name": "F4",
          "ticks": 389640,
          "time": 1154.1698423333332,
          "velocity": 0.7874015748031497
        },
        {
          "duration": 1.25,
          "durationTicks": 120,
          "midi": 65,
          "name": "F4",
          "ticks": 389760,
          "time": 1155.4198423333332,
          "velocity": 0.7874015748031497
        },
        {
          "duration": 1.25,
          "durationTicks": 120,
          "midi": 66,
          "name": "F#4",
          "ticks": 389880,
          "time": 1156.6698423333332,
          "velocity": 0.7874015748031497
        },
        {
          "duration": 2.5,
          "durationTicks": 240,
          "midi": 66,
          "name": "F#4",
          "ticks": 390000,
          "time": 1157.9198423333332,
          "velocity": 0.7874015748031497
        },
        {
          "duration": 1.25,
          "durationTicks": 120,
          "midi": 67,
          "name": "G4",
          "ticks": 390360,
          "time": 1161.6698423333332,
          "velocity": 0.7874015748031497
        },
        {
          "duration": 1.25,
          "durationTicks": 120,
          "midi": 67,
          "name": "G4",
          "ticks": 390480,
          "time": 1162.9198423333332,
          "velocity": 0.7874015748031497
        },
        {
          "duration": 1.25,
          "durationTicks": 120,
          "midi": 68,
          "name": "G#4",
          "ticks": 390600,
          "time": 1164.1698423333332,
          "velocity": 0.7874015748031497
        },
        {
          "duration": 3.75,
          "durationTicks": 360,
          "midi": 68,
          "name": "G#4",
          "ticks": 390720,
          "time": 1165.4198423333332,
          "velocity": 0.7874015748031497
        },
        {
          "duration": 0.625,
          "durationTicks": 60,
          "midi": 67,
          "name": "G4",
          "ticks": 391080,
          "time": 1169.1698423333332,
          "velocity": 0.7874015748031497
        },
        {
          "duration": 0.625,
          "durationTicks": 60,
          "midi": 65,
          "name": "F4",
          "ticks": 391140,
          "time": 1169.7948423333332,
          "velocity": 0.7874015748031497
        },
        {
          "duration": 1.875,
          "durationTicks": 180,
          "midi": 67,
          "name": "G4",
          "ticks": 391200,
          "time": 1170.4198423333332,
          "velocity": 0.7874015748031497
        },
        {
          "duration": 0.3125,
          "durationTicks": 30,
          "midi": 69,
          "name": "A4",
          "ticks": 391380,
          "time": 1172.2948423333332,
          "velocity": 0.7874015748031497
        },
        {
          "duration": 0.3125,
          "durationTicks": 30,
          "midi": 71,
          "name": "B4",
          "ticks": 391410,
          "time": 1172.6073423333332,
          "velocity": 0.7874015748031497
        },
        {
          "duration": 0.3125,
          "durationTicks": 30,
          "midi": 72,
          "name": "C5",
          "ticks": 391440,
          "time": 1172.9198423333332,
          "velocity": 0.7874015748031497
        },
        {
          "duration": 0.3125,
          "durationTicks": 30,
          "midi": 65,
          "name": "F4",
          "ticks": 391470,
          "time": 1173.2323423333332,
          "velocity": 0.7874015748031497
        },
        {
          "duration": 1.25,
          "durationTicks": 120,
          "midi": 68,
          "name": "G#4",
          "ticks": 391500,
          "time": 1173.5448423333332,
          "velocity": 0.7874015748031497
        },
        {
          "duration": 0.625,
          "durationTicks": 60,
          "midi": 67,
          "name": "G4",
          "ticks": 391620,
          "time": 1174.7948423333332,
          "velocity": 0.7874015748031497
        },
        {
          "duration": 1.25,
          "durationTicks": 120,
          "midi": 65,
          "name": "F4",
          "ticks": 391680,
          "time": 1175.4198423333332,
          "velocity": 0.7874015748031497
        },
        {
          "duration": 1.25,
          "durationTicks": 120,
          "midi": 63,
          "name": "D#4",
          "ticks": 391800,
          "time": 1176.6698423333332,
          "velocity": 0.7874015748031497
        },
        {
          "duration": 1.25,
          "durationTicks": 120,
          "midi": 67,
          "name": "G4",
          "ticks": 392040,
          "time": 1179.1698423333332,
          "velocity": 0.7874015748031497
        },
        {
          "duration": 1.25,
          "durationTicks": 120,
          "midi": 65,
          "name": "F4",
          "ticks": 392160,
          "time": 1180.4198423333332,
          "velocity": 0.7874015748031497
        },
        {
          "duration": 1.25,
          "durationTicks": 120,
          "midi": 63,
          "name": "D#4",
          "ticks": 392280,
          "time": 1181.6698423333332,
          "velocity": 0.7874015748031497
        },
        {
          "duration": 2.5,
          "durationTicks": 240,
          "midi": 62,
          "name": "D4",
          "ticks": 392400,
          "time": 1182.9198423333332,
          "velocity": 0.7874015748031497
        },
        {
          "duration": 1.25,
          "durationTicks": 120,
          "midi": 65,
          "name": "F4",
          "ticks": 392760,
          "time": 1186.6698423333332,
          "velocity": 0.7874015748031497
        },
        {
          "duration": 1.25,
          "durationTicks": 120,
          "midi": 63,
          "name": "D#4",
          "ticks": 392880,
          "time": 1187.9198423333332,
          "velocity": 0.7874015748031497
        },
        {
          "duration": 1.25,
          "durationTicks": 120,
          "midi": 61,
          "name": "C#4",
          "ticks": 393000,
          "time": 1189.1698423333332,
          "velocity": 0.7874015748031497
        },
        {
          "duration": 2.5,
          "durationTicks": 240,
          "midi": 60,
          "name": "C4",
          "ticks": 393120,
          "time": 1190.4198423333332,
          "velocity": 0.7874015748031497
        },
        {
          "duration": 0.625,
          "durationTicks": 60,
          "midi": 63,
          "name": "D#4",
          "ticks": 393480,
          "time": 1194.1698423333332,
          "velocity": 0.7874015748031497
        },
        {
          "duration": 0.625,
          "durationTicks": 60,
          "midi": 62,
          "name": "D4",
          "ticks": 393540,
          "time": 1194.7948423333332,
          "velocity": 0.7874015748031497
        },
        {
          "duration": 1.25,
          "durationTicks": 120,
          "midi": 60,
          "name": "C4",
          "ticks": 393600,
          "time": 1195.4198423333332,
          "velocity": 0.7874015748031497
        },
        {
          "duration": 1.25,
          "durationTicks": 120,
          "midi": 58,
          "name": "A#3",
          "ticks": 393720,
          "time": 1196.6698423333332,
          "velocity": 0.7874015748031497
        },
        {
          "duration": 1.875,
          "durationTicks": 180,
          "midi": 57,
          "name": "A3",
          "ticks": 393840,
          "time": 1197.9198423333332,
          "velocity": 0.7874015748031497
        },
        {
          "duration": 0.625,
          "durationTicks": 60,
          "midi": 57,
          "name": "A3",
          "ticks": 394020,
          "time": 1199.7948423333332,
          "velocity": 0.7874015748031497
        },
        {
          "duration": 1.25,
          "durationTicks": 120,
          "midi": 62,
          "name": "D4",
          "ticks": 394080,
          "time": 1200.4198423333332,
          "velocity": 0.7874015748031497
        },
        {
          "duration": 1.25,
          "durationTicks": 120,
          "midi": 60,
          "name": "C4",
          "ticks": 394200,
          "time": 1201.6698423333332,
          "velocity": 0.7874015748031497
        },
        {
          "duration": 1.25,
          "durationTicks": 120,
          "midi": 58,
          "name": "A#3",
          "ticks": 394320,
          "time": 1202.9198423333332,
          "velocity": 0.7874015748031497
        },
        {
          "duration": 1.25,
          "durationTicks": 120,
          "midi": 57,
          "name": "A3",
          "ticks": 394440,
          "time": 1204.1698423333332,
          "velocity": 0.7874015748031497
        },
        {
          "duration": 1.25,
          "durationTicks": 120,
          "midi": 50,
          "name": "D3",
          "ticks": 394560,
          "time": 1205.4198423333332,
          "velocity": 0.7874015748031497
        },
        {
          "duration": 1.25,
          "durationTicks": 120,
          "midi": 54,
          "name": "F#3",
          "ticks": 394680,
          "time": 1206.6698423333332,
          "velocity": 0.7874015748031497
        },
        {
          "duration": 1.25,
          "durationTicks": 120,
          "midi": 54,
          "name": "F#3",
          "ticks": 394800,
          "time": 1207.9198423333332,
          "velocity": 0.7874015748031497
        },
        {
          "duration": 1.25,
          "durationTicks": 120,
          "midi": 55,
          "name": "G3",
          "ticks": 394920,
          "time": 1209.1698423333332,
          "velocity": 0.7874015748031497
        },
        {
          "duration": 1.25,
          "durationTicks": 120,
          "midi": 55,
          "name": "G3",
          "ticks": 395040,
          "time": 1210.4198423333332,
          "velocity": 0.7874015748031497
        },
        {
          "duration": 1.25,
          "durationTicks": 120,
          "midi": 56,
          "name": "G#3",
          "ticks": 395160,
          "time": 1211.6698423333332,
          "velocity": 0.7874015748031497
        },
        {
          "duration": 1.25,
          "durationTicks": 120,
          "midi": 55,
          "name": "G3",
          "ticks": 395400,
          "time": 1214.1698423333332,
          "velocity": 0.7874015748031497
        },
        {
          "duration": 1.25,
          "durationTicks": 120,
          "midi": 55,
          "name": "G3",
          "ticks": 395520,
          "time": 1215.4198423333332,
          "velocity": 0.7874015748031497
        },
        {
          "duration": 1.25,
          "durationTicks": 120,
          "midi": 57,
          "name": "A3",
          "ticks": 395640,
          "time": 1216.6698423333332,
          "velocity": 0.7874015748031497
        },
        {
          "duration": 1.25,
          "durationTicks": 120,
          "midi": 57,
          "name": "A3",
          "ticks": 395760,
          "time": 1217.9198423333332,
          "velocity": 0.7874015748031497
        },
        {
          "duration": 1.25,
          "durationTicks": 120,
          "midi": 58,
          "name": "A#3",
          "ticks": 395880,
          "time": 1219.1698423333332,
          "velocity": 0.7874015748031497
        },
        {
          "duration": 1.25,
          "durationTicks": 120,
          "midi": 57,
          "name": "A3",
          "ticks": 396120,
          "time": 1221.6698423333332,
          "velocity": 0.7874015748031497
        },
        {
          "duration": 1.25,
          "durationTicks": 120,
          "midi": 57,
          "name": "A3",
          "ticks": 396240,
          "time": 1222.9198423333332,
          "velocity": 0.7874015748031497
        },
        {
          "duration": 1.25,
          "durationTicks": 120,
          "midi": 58,
          "name": "A#3",
          "ticks": 396360,
          "time": 1224.1698423333332,
          "velocity": 0.7874015748031497
        },
        {
          "duration": 1.25,
          "durationTicks": 120,
          "midi": 58,
          "name": "A#3",
          "ticks": 396480,
          "time": 1225.4198423333332,
          "velocity": 0.7874015748031497
        },
        {
          "duration": 2.5,
          "durationTicks": 240,
          "midi": 60,
          "name": "C4",
          "ticks": 396600,
          "time": 1226.6698423333332,
          "velocity": 0.7874015748031497
        },
        {
          "duration": 0.625,
          "durationTicks": 60,
          "midi": 58,
          "name": "A#3",
          "ticks": 396840,
          "time": 1229.1698423333332,
          "velocity": 0.7874015748031497
        },
        {
          "duration": 0.625,
          "durationTicks": 60,
          "midi": 57,
          "name": "A3",
          "ticks": 396900,
          "time": 1229.7948423333332,
          "velocity": 0.7874015748031497
        },
        {
          "duration": 12.5,
          "durationTicks": 1200,
          "midi": 58,
          "name": "A#3",
          "ticks": 396960,
          "time": 1230.4198423333332,
          "velocity": 0.7874015748031497
        },
        {
          "duration": 0.5,
          "durationTicks": 240,
          "midi": 71,
          "name": "B4",
          "ticks": 399600,
          "time": 1255.9198423333332,
          "velocity": 0.7874015748031497
        },
        {
          "duration": 0.5,
          "durationTicks": 240,
          "midi": 71,
          "name": "B4",
          "ticks": 399840,
          "time": 1256.4198423333332,
          "velocity": 0.7874015748031497
        },
        {
          "duration": 0.25,
          "durationTicks": 120,
          "midi": 71,
          "name": "B4",
          "ticks": 400200,
          "time": 1257.1698423333332,
          "velocity": 0.7874015748031497
        },
        {
          "duration": 0.5,
          "durationTicks": 240,
          "midi": 69,
          "name": "A4",
          "ticks": 400320,
          "time": 1257.4198423333332,
          "velocity": 0.7874015748031497
        },
        {
          "duration": 0.5,
          "durationTicks": 240,
          "midi": 69,
          "name": "A4",
          "ticks": 400560,
          "time": 1257.9198423333332,
          "velocity": 0.7874015748031497
        },
        {
          "duration": 0.25,
          "durationTicks": 120,
          "midi": 74,
          "name": "D5",
          "ticks": 400920,
          "time": 1258.6698423333332,
          "velocity": 0.7874015748031497
        },
        {
          "duration": 0.5,
          "durationTicks": 240,
          "midi": 74,
          "name": "D5",
          "ticks": 401040,
          "time": 1258.9198423333332,
          "velocity": 0.7874015748031497
        },
        {
          "duration": 0.04166666666674246,
          "durationTicks": 20,
          "midi": 74,
          "name": "D5",
          "ticks": 401280,
          "time": 1259.4198423333332,
          "velocity": 0.7874015748031497
        },
        {
          "duration": 0.041666666666515084,
          "durationTicks": 20,
          "midi": 73,
          "name": "C#5",
          "ticks": 401300,
          "time": 1259.461509,
          "velocity": 0.7874015748031497
        },
        {
          "duration": 0.04166666666674246,
          "durationTicks": 20,
          "midi": 74,
          "name": "D5",
          "ticks": 401320,
          "time": 1259.5031756666665,
          "velocity": 0.7874015748031497
        },
        {
          "duration": 0.375,
          "durationTicks": 180,
          "midi": 73,
          "name": "C#5",
          "ticks": 401340,
          "time": 1259.5448423333332,
          "velocity": 0.7874015748031497
        },
        {
          "duration": 0.25,
          "durationTicks": 120,
          "midi": 67,
          "name": "G4",
          "ticks": 401640,
          "time": 1260.1698423333332,
          "velocity": 0.7874015748031497
        },
        {
          "duration": 0.375,
          "durationTicks": 180,
          "midi": 67,
          "name": "G4",
          "ticks": 401760,
          "time": 1260.4198423333332,
          "velocity": 0.7874015748031497
        },
        {
          "duration": 0.125,
          "durationTicks": 60,
          "midi": 64,
          "name": "E4",
          "ticks": 401940,
          "time": 1260.7948423333332,
          "velocity": 0.7874015748031497
        },
        {
          "duration": 0.0625,
          "durationTicks": 30,
          "midi": 64,
          "name": "E4",
          "ticks": 402000,
          "time": 1260.9198423333332,
          "velocity": 0.7874015748031497
        },
        {
          "duration": 0.4375,
          "durationTicks": 210,
          "midi": 66,
          "name": "F#4",
          "ticks": 402030,
          "time": 1260.9823423333332,
          "velocity": 0.7874015748031497
        },
        {
          "duration": 0.25,
          "durationTicks": 120,
          "midi": 69,
          "name": "A4",
          "ticks": 402360,
          "time": 1261.6698423333332,
          "velocity": 0.7874015748031497
        },
        {
          "duration": 0.375,
          "durationTicks": 180,
          "midi": 62,
          "name": "D4",
          "ticks": 402480,
          "time": 1261.9198423333332,
          "velocity": 0.7874015748031497
        },
        {
          "duration": 0.125,
          "durationTicks": 60,
          "midi": 64,
          "name": "E4",
          "ticks": 402660,
          "time": 1262.2948423333332,
          "velocity": 0.7874015748031497
        },
        {
          "duration": 0.5,
          "durationTicks": 240,
          "midi": 65,
          "name": "F4",
          "ticks": 402720,
          "time": 1262.4198423333332,
          "velocity": 0.7874015748031497
        },
        {
          "duration": 0.25,
          "durationTicks": 120,
          "midi": 67,
          "name": "G4",
          "ticks": 403080,
          "time": 1263.1698423333332,
          "velocity": 0.7874015748031497
        },
        {
          "duration": 0.375,
          "durationTicks": 180,
          "midi": 67,
          "name": "G4",
          "ticks": 403200,
          "time": 1263.4198423333332,
          "velocity": 0.7874015748031497
        },
        {
          "duration": 0.125,
          "durationTicks": 60,
          "midi": 64,
          "name": "E4",
          "ticks": 403380,
          "time": 1263.7948423333332,
          "velocity": 0.7874015748031497
        },
        {
          "duration": 0.0625,
          "durationTicks": 30,
          "midi": 62,
          "name": "D4",
          "ticks": 403440,
          "time": 1263.9198423333332,
          "velocity": 0.7874015748031497
        },
        {
          "duration": 0.4375,
          "durationTicks": 210,
          "midi": 60,
          "name": "C4",
          "ticks": 403470,
          "time": 1263.9823423333332,
          "velocity": 0.7874015748031497
        },
        {
          "duration": 0.25,
          "durationTicks": 120,
          "midi": 64,
          "name": "E4",
          "ticks": 403800,
          "time": 1264.6698423333332,
          "velocity": 0.7874015748031497
        },
        {
          "duration": 0.375,
          "durationTicks": 180,
          "midi": 57,
          "name": "A3",
          "ticks": 403920,
          "time": 1264.9198423333332,
          "velocity": 0.7874015748031497
        },
        {
          "duration": 0.125,
          "durationTicks": 60,
          "midi": 59,
          "name": "B3",
          "ticks": 404100,
          "time": 1265.2948423333332,
          "velocity": 0.7874015748031497
        },
        {
          "duration": 0.5,
          "durationTicks": 240,
          "midi": 60,
          "name": "C4",
          "ticks": 404160,
          "time": 1265.4198423333332,
          "velocity": 0.7874015748031497
        },
        {
          "duration": 0.25,
          "durationTicks": 120,
          "midi": 62,
          "name": "D4",
          "ticks": 404520,
          "time": 1266.1698423333332,
          "velocity": 0.7874015748031497
        },
        {
          "duration": 0.375,
          "durationTicks": 180,
          "midi": 62,
          "name": "D4",
          "ticks": 404640,
          "time": 1266.4198423333332,
          "velocity": 0.7874015748031497
        },
        {
          "duration": 0.125,
          "durationTicks": 60,
          "midi": 59,
          "name": "B3",
          "ticks": 404820,
          "time": 1266.7948423333332,
          "velocity": 0.7874015748031497
        },
        {
          "duration": 0.5,
          "durationTicks": 240,
          "midi": 55,
          "name": "G3",
          "ticks": 404880,
          "time": 1266.9198423333332,
          "velocity": 0.7874015748031497
        },
        {
          "duration": 0.5,
          "durationTicks": 240,
          "midi": 71,
          "name": "B4",
          "ticks": 405360,
          "time": 1267.9198423333332,
          "velocity": 0.7874015748031497
        },
        {
          "duration": 0.5,
          "durationTicks": 240,
          "midi": 71,
          "name": "B4",
          "ticks": 405600,
          "time": 1268.4198423333332,
          "velocity": 0.7874015748031497
        },
        {
          "duration": 0.25,
          "durationTicks": 120,
          "midi": 79,
          "name": "G5",
          "ticks": 405960,
          "time": 1269.1698423333332,
          "velocity": 0.7874015748031497
        },
        {
          "duration": 0.375,
          "durationTicks": 180,
          "midi": 79,
          "name": "G5",
          "ticks": 406080,
          "time": 1269.4198423333332,
          "velocity": 0.7874015748031497
        },
        {
          "duration": 0.125,
          "durationTicks": 60,
          "midi": 76,
          "name": "E5",
          "ticks": 406260,
          "time": 1269.7948423333332,
          "velocity": 0.7874015748031497
        },
        {
          "duration": 0.0625,
          "durationTicks": 30,
          "midi": 78,
          "name": "F#5",
          "ticks": 406320,
          "time": 1269.9198423333332,
          "velocity": 0.7874015748031497
        },
        {
          "duration": 0.0625,
          "durationTicks": 30,
          "midi": 76,
          "name": "E5",
          "ticks": 406350,
          "time": 1269.9823423333332,
          "velocity": 0.7874015748031497
        },
        {
          "duration": 0.375,
          "durationTicks": 180,
          "midi": 78,
          "name": "F#5",
          "ticks": 406380,
          "time": 1270.0448423333332,
          "velocity": 0.7874015748031497
        },
        {
          "duration": 0.25,
          "durationTicks": 120,
          "midi": 72,
          "name": "C5",
          "ticks": 406680,
          "time": 1270.6698423333332,
          "velocity": 0.7874015748031497
        },
        {
          "duration": 0.375,
          "durationTicks": 180,
          "midi": 71,
          "name": "B4",
          "ticks": 406800,
          "time": 1270.9198423333332,
          "velocity": 0.7874015748031497
        },
        {
          "duration": 0.125,
          "durationTicks": 60,
          "midi": 75,
          "name": "D#5",
          "ticks": 406980,
          "time": 1271.2948423333332,
          "velocity": 0.7874015748031497
        },
        {
          "duration": 0.0625,
          "durationTicks": 30,
          "midi": 76,
          "name": "E5",
          "ticks": 407040,
          "time": 1271.4198423333332,
          "velocity": 0.7874015748031497
        },
        {
          "duration": 0.0625,
          "durationTicks": 30,
          "midi": 75,
          "name": "D#5",
          "ticks": 407070,
          "time": 1271.4823423333332,
          "velocity": 0.7874015748031497
        },
        {
          "duration": 0.375,
          "durationTicks": 180,
          "midi": 76,
          "name": "E5",
          "ticks": 407100,
          "time": 1271.5448423333332,
          "velocity": 0.7874015748031497
        },
        {
          "duration": 0.25,
          "durationTicks": 120,
          "midi": 76,
          "name": "E5",
          "ticks": 407400,
          "time": 1272.1698423333332,
          "velocity": 0.7874015748031497
        },
        {
          "duration": 0.375,
          "durationTicks": 180,
          "midi": 69,
          "name": "A4",
          "ticks": 407520,
          "time": 1272.4198423333332,
          "velocity": 0.7874015748031497
        },
        {
          "duration": 0.125,
          "durationTicks": 60,
          "midi": 73,
          "name": "C#5",
          "ticks": 407700,
          "time": 1272.7948423333332,
          "velocity": 0.7874015748031497
        },
        {
          "duration": 0.0625,
          "durationTicks": 30,
          "midi": 71,
          "name": "B4",
          "ticks": 407760,
          "time": 1272.9198423333332,
          "velocity": 0.7874015748031497
        },
        {
          "duration": 0.4375,
          "durationTicks": 210,
          "midi": 69,
          "name": "A4",
          "ticks": 407790,
          "time": 1272.9823423333332,
          "velocity": 0.7874015748031497
        },
        {
          "duration": 0.25,
          "durationTicks": 120,
          "midi": 73,
          "name": "C#5",
          "ticks": 408120,
          "time": 1273.6698423333332,
          "velocity": 0.7874015748031497
        },
        {
          "duration": 0.5,
          "durationTicks": 240,
          "midi": 73,
          "name": "C#5",
          "ticks": 408240,
          "time": 1273.9198423333332,
          "velocity": 0.7874015748031497
        },
        {
          "duration": 0.5,
          "durationTicks": 240,
          "midi": 74,
          "name": "D5",
          "ticks": 408480,
          "time": 1274.4198423333332,
          "velocity": 0.7874015748031497
        },
        {
          "duration": 0.25,
          "durationTicks": 120,
          "midi": 74,
          "name": "D5",
          "ticks": 408840,
          "time": 1275.1698423333332,
          "velocity": 0.7874015748031497
        },
        {
          "duration": 0.5,
          "durationTicks": 240,
          "midi": 74,
          "name": "D5",
          "ticks": 408960,
          "time": 1275.4198423333332,
          "velocity": 0.7874015748031497
        },
        {
          "duration": 0.5,
          "durationTicks": 240,
          "midi": 74,
          "name": "D5",
          "ticks": 409200,
          "time": 1275.9198423333332,
          "velocity": 0.7874015748031497
        },
        {
          "duration": 0.25,
          "durationTicks": 120,
          "midi": 76,
          "name": "E5",
          "ticks": 409560,
          "time": 1276.6698423333332,
          "velocity": 0.7874015748031497
        },
        {
          "duration": 0.375,
          "durationTicks": 180,
          "midi": 69,
          "name": "A4",
          "ticks": 409680,
          "time": 1276.9198423333332,
          "velocity": 0.7874015748031497
        },
        {
          "duration": 0.0625,
          "durationTicks": 30,
          "midi": 67,
          "name": "G4",
          "ticks": 409860,
          "time": 1277.2948423333332,
          "velocity": 0.7874015748031497
        },
        {
          "duration": 0.0625,
          "durationTicks": 30,
          "midi": 66,
          "name": "F#4",
          "ticks": 409890,
          "time": 1277.3573423333332,
          "velocity": 0.7874015748031497
        },
        {
          "duration": 0.0625,
          "durationTicks": 30,
          "midi": 66,
          "name": "F#4",
          "ticks": 409920,
          "time": 1277.4198423333332,
          "velocity": 0.7874015748031497
        },
        {
          "duration": 0.4375,
          "durationTicks": 210,
          "midi": 64,
          "name": "E4",
          "ticks": 409950,
          "time": 1277.4823423333332,
          "velocity": 0.7874015748031497
        },
        {
          "duration": 0.25,
          "durationTicks": 120,
          "midi": 57,
          "name": "A3",
          "ticks": 410280,
          "time": 1278.1698423333332,
          "velocity": 0.7874015748031497
        },
        {
          "duration": 0.5,
          "durationTicks": 240,
          "midi": 62,
          "name": "D4",
          "ticks": 410400,
          "time": 1278.4198423333332,
          "velocity": 0.7874015748031497
        },
        {
          "duration": 0.5,
          "durationTicks": 240,
          "midi": 62,
          "name": "D4",
          "ticks": 410640,
          "time": 1278.9198423333332,
          "velocity": 0.7874015748031497
        },
        {
          "duration": 0.375,
          "durationTicks": 180,
          "midi": 66,
          "name": "F#4",
          "ticks": 411120,
          "time": 1279.9198423333332,
          "velocity": 0.7874015748031497
        },
        {
          "duration": 0.125,
          "durationTicks": 60,
          "midi": 64,
          "name": "E4",
          "ticks": 411300,
          "time": 1280.2948423333332,
          "velocity": 0.7874015748031497
        },
        {
          "duration": 0.0625,
          "durationTicks": 30,
          "midi": 64,
          "name": "E4",
          "ticks": 411360,
          "time": 1280.4198423333332,
          "velocity": 0.7874015748031497
        },
        {
          "duration": 0.4375,
          "durationTicks": 210,
          "midi": 66,
          "name": "F#4",
          "ticks": 411390,
          "time": 1280.4823423333332,
          "velocity": 0.7874015748031497
        },
        {
          "duration": 0.25,
          "durationTicks": 120,
          "midi": 62,
          "name": "D4",
          "ticks": 411720,
          "time": 1281.1698423333332,
          "velocity": 0.7874015748031497
        },
        {
          "duration": 0.375,
          "durationTicks": 180,
          "midi": 67,
          "name": "G4",
          "ticks": 411840,
          "time": 1281.4198423333332,
          "velocity": 0.7874015748031497
        },
        {
          "duration": 0.125,
          "durationTicks": 60,
          "midi": 69,
          "name": "A4",
          "ticks": 412020,
          "time": 1281.7948423333332,
          "velocity": 0.7874015748031497
        },
        {
          "duration": 0.0625,
          "durationTicks": 30,
          "midi": 69,
          "name": "A4",
          "ticks": 412080,
          "time": 1281.9198423333332,
          "velocity": 0.7874015748031497
        },
        {
          "duration": 0.4375,
          "durationTicks": 210,
          "midi": 71,
          "name": "B4",
          "ticks": 412110,
          "time": 1281.9823423333332,
          "velocity": 0.7874015748031497
        },
        {
          "duration": 0.25,
          "durationTicks": 120,
          "midi": 79,
          "name": "G5",
          "ticks": 412440,
          "time": 1282.6698423333332,
          "velocity": 0.7874015748031497
        },
        {
          "duration": 0.375,
          "durationTicks": 180,
          "midi": 76,
          "name": "E5",
          "ticks": 412560,
          "time": 1282.9198423333332,
          "velocity": 0.7874015748031497
        },
        {
          "duration": 0.125,
          "durationTicks": 60,
          "midi": 83,
          "name": "B5",
          "ticks": 412740,
          "time": 1283.2948423333332,
          "velocity": 0.7874015748031497
        },
        {
          "duration": 0.0625,
          "durationTicks": 30,
          "midi": 83,
          "name": "B5",
          "ticks": 412800,
          "time": 1283.4198423333332,
          "velocity": 0.7874015748031497
        },
        {
          "duration": 0.4375,
          "durationTicks": 210,
          "midi": 81,
          "name": "A5",
          "ticks": 412830,
          "time": 1283.4823423333332,
          "velocity": 0.7874015748031497
        },
        {
          "duration": 0.25,
          "durationTicks": 120,
          "midi": 81,
          "name": "A5",
          "ticks": 413160,
          "time": 1284.1698423333332,
          "velocity": 0.7874015748031497
        },
        {
          "duration": 0.375,
          "durationTicks": 180,
          "midi": 81,
          "name": "A5",
          "ticks": 413280,
          "time": 1284.4198423333332,
          "velocity": 0.7874015748031497
        },
        {
          "duration": 0.125,
          "durationTicks": 60,
          "midi": 78,
          "name": "F#5",
          "ticks": 413460,
          "time": 1284.7948423333332,
          "velocity": 0.7874015748031497
        },
        {
          "duration": 0.0625,
          "durationTicks": 30,
          "midi": 76,
          "name": "E5",
          "ticks": 413520,
          "time": 1284.9198423333332,
          "velocity": 0.7874015748031497
        },
        {
          "duration": 0.4375,
          "durationTicks": 210,
          "midi": 75,
          "name": "D#5",
          "ticks": 413550,
          "time": 1284.9823423333332,
          "velocity": 0.7874015748031497
        },
        {
          "duration": 0.25,
          "durationTicks": 120,
          "midi": 78,
          "name": "F#5",
          "ticks": 413880,
          "time": 1285.6698423333332,
          "velocity": 0.7874015748031497
        },
        {
          "duration": 0.375,
          "durationTicks": 180,
          "midi": 79,
          "name": "G5",
          "ticks": 414000,
          "time": 1285.9198423333332,
          "velocity": 0.7874015748031497
        },
        {
          "duration": 0.125,
          "durationTicks": 60,
          "midi": 78,
          "name": "F#5",
          "ticks": 414180,
          "time": 1286.2948423333332,
          "velocity": 0.7874015748031497
        },
        {
          "duration": 0.0625,
          "durationTicks": 30,
          "midi": 78,
          "name": "F#5",
          "ticks": 414240,
          "time": 1286.4198423333332,
          "velocity": 0.7874015748031497
        },
        {
          "duration": 0.4375,
          "durationTicks": 210,
          "midi": 76,
          "name": "E5",
          "ticks": 414270,
          "time": 1286.4823423333332,
          "velocity": 0.7874015748031497
        },
        {
          "duration": 0.25,
          "durationTicks": 120,
          "midi": 79,
          "name": "G5",
          "ticks": 414600,
          "time": 1287.1698423333332,
          "velocity": 0.7874015748031497
        },
        {
          "duration": 0.5,
          "durationTicks": 240,
          "midi": 79,
          "name": "G5",
          "ticks": 414720,
          "time": 1287.4198423333332,
          "velocity": 0.7874015748031497
        },
        {
          "duration": 0.5,
          "durationTicks": 240,
          "midi": 77,
          "name": "F5",
          "ticks": 414960,
          "time": 1287.9198423333332,
          "velocity": 0.7874015748031497
        },
        {
          "duration": 0.25,
          "durationTicks": 120,
          "midi": 81,
          "name": "A5",
          "ticks": 415320,
          "time": 1288.6698423333332,
          "velocity": 0.7874015748031497
        },
        {
          "duration": 0.375,
          "durationTicks": 180,
          "midi": 81,
          "name": "A5",
          "ticks": 415440,
          "time": 1288.9198423333332,
          "velocity": 0.7874015748031497
        },
        {
          "duration": 0.125,
          "durationTicks": 60,
          "midi": 78,
          "name": "F#5",
          "ticks": 415620,
          "time": 1289.2948423333332,
          "velocity": 0.7874015748031497
        },
        {
          "duration": 0.0625,
          "durationTicks": 30,
          "midi": 78,
          "name": "F#5",
          "ticks": 415680,
          "time": 1289.4198423333332,
          "velocity": 0.7874015748031497
        },
        {
          "duration": 0.4375,
          "durationTicks": 210,
          "midi": 75,
          "name": "D#5",
          "ticks": 415710,
          "time": 1289.4823423333332,
          "velocity": 0.7874015748031497
        },
        {
          "duration": 0.25,
          "durationTicks": 120,
          "midi": 78,
          "name": "F#5",
          "ticks": 416040,
          "time": 1290.1698423333332,
          "velocity": 0.7874015748031497
        },
        {
          "duration": 0.375,
          "durationTicks": 180,
          "midi": 78,
          "name": "F#5",
          "ticks": 416160,
          "time": 1290.4198423333332,
          "velocity": 0.7874015748031497
        },
        {
          "duration": 0.125,
          "durationTicks": 60,
          "midi": 75,
          "name": "D#5",
          "ticks": 416340,
          "time": 1290.7948423333332,
          "velocity": 0.7874015748031497
        },
        {
          "duration": 0.0625,
          "durationTicks": 30,
          "midi": 76,
          "name": "E5",
          "ticks": 416400,
          "time": 1290.9198423333332,
          "velocity": 0.7874015748031497
        },
        {
          "duration": 0.0625,
          "durationTicks": 30,
          "midi": 75,
          "name": "D#5",
          "ticks": 416430,
          "time": 1290.9823423333332,
          "velocity": 0.7874015748031497
        },
        {
          "duration": 0.375,
          "durationTicks": 180,
          "midi": 76,
          "name": "E5",
          "ticks": 416460,
          "time": 1291.0448423333332,
          "velocity": 0.7874015748031497
        },
        {
          "duration": 0.125,
          "durationTicks": 60,
          "midi": 68,
          "name": "G#4",
          "ticks": 417060,
          "time": 1292.2948423333332,
          "velocity": 0.7874015748031497
        },
        {
          "duration": 0.375,
          "durationTicks": 180,
          "midi": 69,
          "name": "A4",
          "ticks": 417120,
          "time": 1292.4198423333332,
          "velocity": 0.7874015748031497
        },
        {
          "duration": 0.125,
          "durationTicks": 60,
          "midi": 71,
          "name": "B4",
          "ticks": 417300,
          "time": 1292.7948423333332,
          "velocity": 0.7874015748031497
        },
        {
          "duration": 0.875,
          "durationTicks": 420,
          "midi": 72,
          "name": "C5",
          "ticks": 417360,
          "time": 1292.9198423333332,
          "velocity": 0.7874015748031497
        },
        {
          "duration": 0.125,
          "durationTicks": 60,
          "midi": 66,
          "name": "F#4",
          "ticks": 417780,
          "time": 1293.7948423333332,
          "velocity": 0.7874015748031497
        },
        {
          "duration": 0.375,
          "durationTicks": 180,
          "midi": 67,
          "name": "G4",
          "ticks": 417840,
          "time": 1293.9198423333332,
          "velocity": 0.7874015748031497
        },
        {
          "duration": 0.125,
          "durationTicks": 60,
          "midi": 69,
          "name": "A4",
          "ticks": 418020,
          "time": 1294.2948423333332,
          "velocity": 0.7874015748031497
        },
        {
          "duration": 0.875,
          "durationTicks": 420,
          "midi": 71,
          "name": "B4",
          "ticks": 418080,
          "time": 1294.4198423333332,
          "velocity": 0.7874015748031497
        },
        {
          "duration": 0.125,
          "durationTicks": 60,
          "midi": 64,
          "name": "E4",
          "ticks": 418500,
          "time": 1295.2948423333332,
          "velocity": 0.7874015748031497
        },
        {
          "duration": 0.375,
          "durationTicks": 180,
          "midi": 66,
          "name": "F#4",
          "ticks": 418560,
          "time": 1295.4198423333332,
          "velocity": 0.7874015748031497
        },
        {
          "duration": 0.125,
          "durationTicks": 60,
          "midi": 67,
          "name": "G4",
          "ticks": 418740,
          "time": 1295.7948423333332,
          "velocity": 0.7874015748031497
        },
        {
          "duration": 0.375,
          "durationTicks": 180,
          "midi": 69,
          "name": "A4",
          "ticks": 418800,
          "time": 1295.9198423333332,
          "velocity": 0.7874015748031497
        },
        {
          "duration": 0.125,
          "durationTicks": 60,
          "midi": 67,
          "name": "G4",
          "ticks": 418980,
          "time": 1296.2948423333332,
          "velocity": 0.7874015748031497
        },
        {
          "duration": 0.08333333333325754,
          "durationTicks": 40,
          "midi": 66,
          "name": "F#4",
          "ticks": 419040,
          "time": 1296.4198423333332,
          "velocity": 0.7874015748031497
        },
        {
          "duration": 0.08333333333348492,
          "durationTicks": 40,
          "midi": 67,
          "name": "G4",
          "ticks": 419080,
          "time": 1296.5031756666665,
          "velocity": 0.7874015748031497
        },
        {
          "duration": 0.08333333333325754,
          "durationTicks": 40,
          "midi": 66,
          "name": "F#4",
          "ticks": 419120,
          "time": 1296.586509,
          "velocity": 0.7874015748031497
        },
        {
          "duration": 0.08333333333325754,
          "durationTicks": 40,
          "midi": 61,
          "name": "C#4",
          "ticks": 419160,
          "time": 1296.6698423333332,
          "velocity": 0.7874015748031497
        },
        {
          "duration": 0.08333333333348492,
          "durationTicks": 40,
          "midi": 62,
          "name": "D4",
          "ticks": 419200,
          "time": 1296.7531756666665,
          "velocity": 0.7874015748031497
        },
        {
          "duration": 0.08333333333325754,
          "durationTicks": 40,
          "midi": 64,
          "name": "E4",
          "ticks": 419240,
          "time": 1296.836509,
          "velocity": 0.7874015748031497
        },
        {
          "duration": 0.08333333333325754,
          "durationTicks": 40,
          "midi": 66,
          "name": "F#4",
          "ticks": 419280,
          "time": 1296.9198423333332,
          "velocity": 0.7874015748031497
        },
        {
          "duration": 0.08333333333348492,
          "durationTicks": 40,
          "midi": 64,
          "name": "E4",
          "ticks": 419320,
          "time": 1297.0031756666665,
          "velocity": 0.7874015748031497
        },
        {
          "duration": 0.08333333333325754,
          "durationTicks": 40,
          "midi": 66,
          "name": "F#4",
          "ticks": 419360,
          "time": 1297.086509,
          "velocity": 0.7874015748031497
        },
        {
          "duration": 0.08333333333325754,
          "durationTicks": 40,
          "midi": 67,
          "name": "G4",
          "ticks": 419400,
          "time": 1297.1698423333332,
          "velocity": 0.7874015748031497
        },
        {
          "duration": 0.08333333333348492,
          "durationTicks": 40,
          "midi": 66,
          "name": "F#4",
          "ticks": 419440,
          "time": 1297.2531756666665,
          "velocity": 0.7874015748031497
        },
        {
          "duration": 0.08333333333325754,
          "durationTicks": 40,
          "midi": 67,
          "name": "G4",
          "ticks": 419480,
          "time": 1297.336509,
          "velocity": 0.7874015748031497
        },
        {
          "duration": 0.08333333333325754,
          "durationTicks": 40,
          "midi": 69,
          "name": "A4",
          "ticks": 419520,
          "time": 1297.4198423333332,
          "velocity": 0.7874015748031497
        },
        {
          "duration": 0.08333333333348492,
          "durationTicks": 40,
          "midi": 67,
          "name": "G4",
          "ticks": 419560,
          "time": 1297.5031756666665,
          "velocity": 0.7874015748031497
        },
        {
          "duration": 0.08333333333325754,
          "durationTicks": 40,
          "midi": 69,
          "name": "A4",
          "ticks": 419600,
          "time": 1297.586509,
          "velocity": 0.7874015748031497
        },
        {
          "duration": 0.08333333333325754,
          "durationTicks": 40,
          "midi": 71,
          "name": "B4",
          "ticks": 419640,
          "time": 1297.6698423333332,
          "velocity": 0.7874015748031497
        },
        {
          "duration": 0.08333333333348492,
          "durationTicks": 40,
          "midi": 67,
          "name": "G4",
          "ticks": 419680,
          "time": 1297.7531756666665,
          "velocity": 0.7874015748031497
        },
        {
          "duration": 0.08333333333325754,
          "durationTicks": 40,
          "midi": 69,
          "name": "A4",
          "ticks": 419720,
          "time": 1297.836509,
          "velocity": 0.7874015748031497
        },
        {
          "duration": 0.08333333333325754,
          "durationTicks": 40,
          "midi": 71,
          "name": "B4",
          "ticks": 419760,
          "time": 1297.9198423333332,
          "velocity": 0.7874015748031497
        },
        {
          "duration": 0.08333333333348492,
          "durationTicks": 40,
          "midi": 72,
          "name": "C5",
          "ticks": 419800,
          "time": 1298.0031756666665,
          "velocity": 0.7874015748031497
        },
        {
          "duration": 0.08333333333325754,
          "durationTicks": 40,
          "midi": 71,
          "name": "B4",
          "ticks": 419840,
          "time": 1298.086509,
          "velocity": 0.7874015748031497
        },
        {
          "duration": 0.08333333333325754,
          "durationTicks": 40,
          "midi": 66,
          "name": "F#4",
          "ticks": 419880,
          "time": 1298.1698423333332,
          "velocity": 0.7874015748031497
        },
        {
          "duration": 0.08333333333348492,
          "durationTicks": 40,
          "midi": 67,
          "name": "G4",
          "ticks": 419920,
          "time": 1298.2531756666665,
          "velocity": 0.7874015748031497
        },
        {
          "duration": 0.08333333333325754,
          "durationTicks": 40,
          "midi": 69,
          "name": "A4",
          "ticks": 419960,
          "time": 1298.336509,
          "velocity": 0.7874015748031497
        },
        {
          "duration": 0.08333333333325754,
          "durationTicks": 40,
          "midi": 71,
          "name": "B4",
          "ticks": 420000,
          "time": 1298.4198423333332,
          "velocity": 0.7874015748031497
        },
        {
          "duration": 0.08333333333348492,
          "durationTicks": 40,
          "midi": 69,
          "name": "A4",
          "ticks": 420040,
          "time": 1298.5031756666665,
          "velocity": 0.7874015748031497
        },
        {
          "duration": 0.08333333333325754,
          "durationTicks": 40,
          "midi": 71,
          "name": "B4",
          "ticks": 420080,
          "time": 1298.586509,
          "velocity": 0.7874015748031497
        },
        {
          "duration": 0.08333333333325754,
          "durationTicks": 40,
          "midi": 72,
          "name": "C5",
          "ticks": 420120,
          "time": 1298.6698423333332,
          "velocity": 0.7874015748031497
        },
        {
          "duration": 0.08333333333348492,
          "durationTicks": 40,
          "midi": 71,
          "name": "B4",
          "ticks": 420160,
          "time": 1298.7531756666665,
          "velocity": 0.7874015748031497
        },
        {
          "duration": 0.08333333333325754,
          "durationTicks": 40,
          "midi": 72,
          "name": "C5",
          "ticks": 420200,
          "time": 1298.836509,
          "velocity": 0.7874015748031497
        },
        {
          "duration": 0.08333333333325754,
          "durationTicks": 40,
          "midi": 74,
          "name": "D5",
          "ticks": 420240,
          "time": 1298.9198423333332,
          "velocity": 0.7874015748031497
        },
        {
          "duration": 0.08333333333348492,
          "durationTicks": 40,
          "midi": 72,
          "name": "C5",
          "ticks": 420280,
          "time": 1299.0031756666665,
          "velocity": 0.7874015748031497
        },
        {
          "duration": 0.08333333333325754,
          "durationTicks": 40,
          "midi": 74,
          "name": "D5",
          "ticks": 420320,
          "time": 1299.086509,
          "velocity": 0.7874015748031497
        },
        {
          "duration": 0.08333333333325754,
          "durationTicks": 40,
          "midi": 76,
          "name": "E5",
          "ticks": 420360,
          "time": 1299.1698423333332,
          "velocity": 0.7874015748031497
        },
        {
          "duration": 0.08333333333348492,
          "durationTicks": 40,
          "midi": 72,
          "name": "C5",
          "ticks": 420400,
          "time": 1299.2531756666665,
          "velocity": 0.7874015748031497
        },
        {
          "duration": 0.08333333333325754,
          "durationTicks": 40,
          "midi": 74,
          "name": "D5",
          "ticks": 420440,
          "time": 1299.336509,
          "velocity": 0.7874015748031497
        },
        {
          "duration": 0.08333333333325754,
          "durationTicks": 40,
          "midi": 76,
          "name": "E5",
          "ticks": 420480,
          "time": 1299.4198423333332,
          "velocity": 0.7874015748031497
        },
        {
          "duration": 0.08333333333348492,
          "durationTicks": 40,
          "midi": 77,
          "name": "F5",
          "ticks": 420520,
          "time": 1299.5031756666665,
          "velocity": 0.7874015748031497
        },
        {
          "duration": 0.08333333333325754,
          "durationTicks": 40,
          "midi": 76,
          "name": "E5",
          "ticks": 420560,
          "time": 1299.586509,
          "velocity": 0.7874015748031497
        },
        {
          "duration": 0.08333333333325754,
          "durationTicks": 40,
          "midi": 71,
          "name": "B4",
          "ticks": 420600,
          "time": 1299.6698423333332,
          "velocity": 0.7874015748031497
        },
        {
          "duration": 0.08333333333348492,
          "durationTicks": 40,
          "midi": 72,
          "name": "C5",
          "ticks": 420640,
          "time": 1299.7531756666665,
          "velocity": 0.7874015748031497
        },
        {
          "duration": 0.08333333333325754,
          "durationTicks": 40,
          "midi": 74,
          "name": "D5",
          "ticks": 420680,
          "time": 1299.836509,
          "velocity": 0.7874015748031497
        },
        {
          "duration": 0.08333333333325754,
          "durationTicks": 40,
          "midi": 76,
          "name": "E5",
          "ticks": 420720,
          "time": 1299.9198423333332,
          "velocity": 0.7874015748031497
        },
        {
          "duration": 0.08333333333348492,
          "durationTicks": 40,
          "midi": 74,
          "name": "D5",
          "ticks": 420760,
          "time": 1300.0031756666665,
          "velocity": 0.7874015748031497
        },
        {
          "duration": 0.08333333333325754,
          "durationTicks": 40,
          "midi": 76,
          "name": "E5",
          "ticks": 420800,
          "time": 1300.086509,
          "velocity": 0.7874015748031497
        },
        {
          "duration": 0.08333333333325754,
          "durationTicks": 40,
          "midi": 78,
          "name": "F#5",
          "ticks": 420840,
          "time": 1300.1698423333332,
          "velocity": 0.7874015748031497
        },
        {
          "duration": 0.08333333333348492,
          "durationTicks": 40,
          "midi": 76,
          "name": "E5",
          "ticks": 420880,
          "time": 1300.2531756666665,
          "velocity": 0.7874015748031497
        },
        {
          "duration": 0.08333333333325754,
          "durationTicks": 40,
          "midi": 78,
          "name": "F#5",
          "ticks": 420920,
          "time": 1300.336509,
          "velocity": 0.7874015748031497
        },
        {
          "duration": 0.08333333333325754,
          "durationTicks": 40,
          "midi": 79,
          "name": "G5",
          "ticks": 420960,
          "time": 1300.4198423333332,
          "velocity": 0.7874015748031497
        },
        {
          "duration": 0.08333333333348492,
          "durationTicks": 40,
          "midi": 78,
          "name": "F#5",
          "ticks": 421000,
          "time": 1300.5031756666665,
          "velocity": 0.7874015748031497
        },
        {
          "duration": 0.08333333333325754,
          "durationTicks": 40,
          "midi": 79,
          "name": "G5",
          "ticks": 421040,
          "time": 1300.586509,
          "velocity": 0.7874015748031497
        },
        {
          "duration": 0.08333333333325754,
          "durationTicks": 40,
          "midi": 81,
          "name": "A5",
          "ticks": 421080,
          "time": 1300.6698423333332,
          "velocity": 0.7874015748031497
        },
        {
          "duration": 0.08333333333348492,
          "durationTicks": 40,
          "midi": 78,
          "name": "F#5",
          "ticks": 421120,
          "time": 1300.7531756666665,
          "velocity": 0.7874015748031497
        },
        {
          "duration": 0.08333333333325754,
          "durationTicks": 40,
          "midi": 79,
          "name": "G5",
          "ticks": 421160,
          "time": 1300.836509,
          "velocity": 0.7874015748031497
        },
        {
          "duration": 0.08333333333325754,
          "durationTicks": 40,
          "midi": 81,
          "name": "A5",
          "ticks": 421200,
          "time": 1300.9198423333332,
          "velocity": 0.7874015748031497
        },
        {
          "duration": 0.08333333333348492,
          "durationTicks": 40,
          "midi": 83,
          "name": "B5",
          "ticks": 421240,
          "time": 1301.0031756666665,
          "velocity": 0.7874015748031497
        },
        {
          "duration": 0.08333333333325754,
          "durationTicks": 40,
          "midi": 81,
          "name": "A5",
          "ticks": 421280,
          "time": 1301.086509,
          "velocity": 0.7874015748031497
        },
        {
          "duration": 0.08333333333325754,
          "durationTicks": 40,
          "midi": 78,
          "name": "F#5",
          "ticks": 421320,
          "time": 1301.1698423333332,
          "velocity": 0.7874015748031497
        },
        {
          "duration": 0.08333333333348492,
          "durationTicks": 40,
          "midi": 79,
          "name": "G5",
          "ticks": 421360,
          "time": 1301.2531756666665,
          "velocity": 0.7874015748031497
        },
        {
          "duration": 0.08333333333325754,
          "durationTicks": 40,
          "midi": 81,
          "name": "A5",
          "ticks": 421400,
          "time": 1301.336509,
          "velocity": 0.7874015748031497
        },
        {
          "duration": 0.08333333333325754,
          "durationTicks": 40,
          "midi": 83,
          "name": "B5",
          "ticks": 421440,
          "time": 1301.4198423333332,
          "velocity": 0.7874015748031497
        },
        {
          "duration": 0.08333333333348492,
          "durationTicks": 40,
          "midi": 81,
          "name": "A5",
          "ticks": 421480,
          "time": 1301.5031756666665,
          "velocity": 0.7874015748031497
        },
        {
          "duration": 0.08333333333325754,
          "durationTicks": 40,
          "midi": 83,
          "name": "B5",
          "ticks": 421520,
          "time": 1301.586509,
          "velocity": 0.7874015748031497
        },
        {
          "duration": 0.08333333333325754,
          "durationTicks": 40,
          "midi": 86,
          "name": "D6",
          "ticks": 421560,
          "time": 1301.6698423333332,
          "velocity": 0.7874015748031497
        },
        {
          "duration": 0.08333333333348492,
          "durationTicks": 40,
          "midi": 84,
          "name": "C6",
          "ticks": 421600,
          "time": 1301.7531756666665,
          "velocity": 0.7874015748031497
        },
        {
          "duration": 0.08333333333325754,
          "durationTicks": 40,
          "midi": 83,
          "name": "B5",
          "ticks": 421640,
          "time": 1301.836509,
          "velocity": 0.7874015748031497
        },
        {
          "duration": 0.08333333333325754,
          "durationTicks": 40,
          "midi": 81,
          "name": "A5",
          "ticks": 421680,
          "time": 1301.9198423333332,
          "velocity": 0.7874015748031497
        },
        {
          "duration": 0.08333333333348492,
          "durationTicks": 40,
          "midi": 79,
          "name": "G5",
          "ticks": 421720,
          "time": 1302.0031756666665,
          "velocity": 0.7874015748031497
        },
        {
          "duration": 0.08333333333325754,
          "durationTicks": 40,
          "midi": 78,
          "name": "F#5",
          "ticks": 421760,
          "time": 1302.086509,
          "velocity": 0.7874015748031497
        },
        {
          "duration": 0.08333333333325754,
          "durationTicks": 40,
          "midi": 76,
          "name": "E5",
          "ticks": 421800,
          "time": 1302.1698423333332,
          "velocity": 0.7874015748031497
        },
        {
          "duration": 0.08333333333348492,
          "durationTicks": 40,
          "midi": 74,
          "name": "D5",
          "ticks": 421840,
          "time": 1302.2531756666665,
          "velocity": 0.7874015748031497
        },
        {
          "duration": 0.08333333333325754,
          "durationTicks": 40,
          "midi": 72,
          "name": "C5",
          "ticks": 421880,
          "time": 1302.336509,
          "velocity": 0.7874015748031497
        },
        {
          "duration": 0.08333333333325754,
          "durationTicks": 40,
          "midi": 71,
          "name": "B4",
          "ticks": 421920,
          "time": 1302.4198423333332,
          "velocity": 0.7874015748031497
        },
        {
          "duration": 0.08333333333348492,
          "durationTicks": 40,
          "midi": 69,
          "name": "A4",
          "ticks": 421960,
          "time": 1302.5031756666665,
          "velocity": 0.7874015748031497
        },
        {
          "duration": 0.08333333333325754,
          "durationTicks": 40,
          "midi": 67,
          "name": "G4",
          "ticks": 422000,
          "time": 1302.586509,
          "velocity": 0.7874015748031497
        },
        {
          "duration": 0.08333333333325754,
          "durationTicks": 40,
          "midi": 66,
          "name": "F#4",
          "ticks": 422040,
          "time": 1302.6698423333332,
          "velocity": 0.7874015748031497
        },
        {
          "duration": 0.08333333333348492,
          "durationTicks": 40,
          "midi": 67,
          "name": "G4",
          "ticks": 422080,
          "time": 1302.7531756666665,
          "velocity": 0.7874015748031497
        },
        {
          "duration": 0.08333333333325754,
          "durationTicks": 40,
          "midi": 62,
          "name": "D4",
          "ticks": 422120,
          "time": 1302.836509,
          "velocity": 0.7874015748031497
        },
        {
          "duration": 0.25,
          "durationTicks": 120,
          "midi": 59,
          "name": "B3",
          "ticks": 422160,
          "time": 1302.9198423333332,
          "velocity": 0.7874015748031497
        },
        {
          "duration": 0.08522724999988895,
          "durationTicks": 30,
          "midi": 86,
          "name": "D6",
          "ticks": 423390,
          "time": 1305.6899178833335,
          "velocity": 0.7874015748031497
        },
        {
          "duration": 0.08522725000011633,
          "durationTicks": 30,
          "midi": 88,
          "name": "E6",
          "ticks": 423420,
          "time": 1305.7751451333334,
          "velocity": 0.7874015748031497
        },
        {
          "duration": 0.08522724999988895,
          "durationTicks": 30,
          "midi": 86,
          "name": "D6",
          "ticks": 423450,
          "time": 1305.8603723833335,
          "velocity": 0.7874015748031497
        },
        {
          "duration": 0.08522724999988895,
          "durationTicks": 30,
          "midi": 88,
          "name": "E6",
          "ticks": 423480,
          "time": 1305.9455996333334,
          "velocity": 0.7874015748031497
        },
        {
          "duration": 0.08522725000011633,
          "durationTicks": 30,
          "midi": 86,
          "name": "D6",
          "ticks": 423510,
          "time": 1306.0308268833332,
          "velocity": 0.7874015748031497
        },
        {
          "duration": 0.08522724999988895,
          "durationTicks": 30,
          "midi": 88,
          "name": "E6",
          "ticks": 423540,
          "time": 1306.1160541333334,
          "velocity": 0.7874015748031497
        },
        {
          "duration": 0.08522725000011633,
          "durationTicks": 30,
          "midi": 86,
          "name": "D6",
          "ticks": 423570,
          "time": 1306.2012813833333,
          "velocity": 0.7874015748031497
        },
        {
          "duration": 0.08522725000011633,
          "durationTicks": 30,
          "midi": 86,
          "name": "D6",
          "ticks": 423630,
          "time": 1306.3717358833333,
          "velocity": 0.7874015748031497
        },
        {
          "duration": 0.08522724999988895,
          "durationTicks": 30,
          "midi": 88,
          "name": "E6",
          "ticks": 423660,
          "time": 1306.4569631333334,
          "velocity": 0.7874015748031497
        },
        {
          "duration": 0.08522725000011633,
          "durationTicks": 30,
          "midi": 86,
          "name": "D6",
          "ticks": 423690,
          "time": 1306.5421903833333,
          "velocity": 0.7874015748031497
        },
        {
          "duration": 0.08522724999988895,
          "durationTicks": 30,
          "midi": 88,
          "name": "E6",
          "ticks": 423720,
          "time": 1306.6274176333334,
          "velocity": 0.7874015748031497
        },
        {
          "duration": 0.08522725000011633,
          "durationTicks": 30,
          "midi": 86,
          "name": "D6",
          "ticks": 423750,
          "time": 1306.7126448833333,
          "velocity": 0.7874015748031497
        },
        {
          "duration": 0.08522724999988895,
          "durationTicks": 30,
          "midi": 88,
          "name": "E6",
          "ticks": 423780,
          "time": 1306.7978721333334,
          "velocity": 0.7874015748031497
        },
        {
          "duration": 0.08522725000011633,
          "durationTicks": 30,
          "midi": 86,
          "name": "D6",
          "ticks": 423810,
          "time": 1306.8830993833333,
          "velocity": 0.7874015748031497
        },
        {
          "duration": 0.08522725000011633,
          "durationTicks": 30,
          "midi": 86,
          "name": "D6",
          "ticks": 423870,
          "time": 1307.0535538833333,
          "velocity": 0.7874015748031497
        },
        {
          "duration": 0.08522724999988895,
          "durationTicks": 30,
          "midi": 88,
          "name": "E6",
          "ticks": 423900,
          "time": 1307.1387811333334,
          "velocity": 0.7874015748031497
        },
        {
          "duration": 0.08522725000011633,
          "durationTicks": 30,
          "midi": 86,
          "name": "D6",
          "ticks": 423930,
          "time": 1307.2240083833333,
          "velocity": 0.7874015748031497
        },
        {
          "duration": 0.08522724999988895,
          "durationTicks": 30,
          "midi": 88,
          "name": "E6",
          "ticks": 423960,
          "time": 1307.3092356333334,
          "velocity": 0.7874015748031497
        },
        {
          "duration": 0.08522725000011633,
          "durationTicks": 30,
          "midi": 86,
          "name": "D6",
          "ticks": 423990,
          "time": 1307.3944628833333,
          "velocity": 0.7874015748031497
        },
        {
          "duration": 0.08522724999988895,
          "durationTicks": 30,
          "midi": 88,
          "name": "E6",
          "ticks": 424020,
          "time": 1307.4796901333334,
          "velocity": 0.7874015748031497
        },
        {
          "duration": 0.08522725000011633,
          "durationTicks": 30,
          "midi": 86,
          "name": "D6",
          "ticks": 424050,
          "time": 1307.5649173833333,
          "velocity": 0.7874015748031497
        },
        {
          "duration": 0.08522725000011633,
          "durationTicks": 30,
          "midi": 86,
          "name": "D6",
          "ticks": 424110,
          "time": 1307.7353718833333,
          "velocity": 0.7874015748031497
        },
        {
          "duration": 0.08522724999988895,
          "durationTicks": 30,
          "midi": 88,
          "name": "E6",
          "ticks": 424140,
          "time": 1307.8205991333334,
          "velocity": 0.7874015748031497
        },
        {
          "duration": 0.08522725000011633,
          "durationTicks": 30,
          "midi": 86,
          "name": "D6",
          "ticks": 424170,
          "time": 1307.9058263833333,
          "velocity": 0.7874015748031497
        },
        {
          "duration": 0.08522724999988895,
          "durationTicks": 30,
          "midi": 88,
          "name": "E6",
          "ticks": 424200,
          "time": 1307.9910536333334,
          "velocity": 0.7874015748031497
        },
        {
          "duration": 0.08522725000011633,
          "durationTicks": 30,
          "midi": 86,
          "name": "D6",
          "ticks": 424230,
          "time": 1308.0762808833333,
          "velocity": 0.7874015748031497
        },
        {
          "duration": 0.08522724999988895,
          "durationTicks": 30,
          "midi": 88,
          "name": "E6",
          "ticks": 424260,
          "time": 1308.1615081333334,
          "velocity": 0.7874015748031497
        },
        {
          "duration": 0.08522725000011633,
          "durationTicks": 30,
          "midi": 86,
          "name": "D6",
          "ticks": 424290,
          "time": 1308.2467353833333,
          "velocity": 0.7874015748031497
        },
        {
          "duration": 0.08522725000011633,
          "durationTicks": 30,
          "midi": 86,
          "name": "D6",
          "ticks": 424350,
          "time": 1308.4171898833333,
          "velocity": 0.7874015748031497
        },
        {
          "duration": 0.08522724999988895,
          "durationTicks": 30,
          "midi": 88,
          "name": "E6",
          "ticks": 424380,
          "time": 1308.5024171333334,
          "velocity": 0.7874015748031497
        },
        {
          "duration": 0.08522725000011633,
          "durationTicks": 30,
          "midi": 86,
          "name": "D6",
          "ticks": 424410,
          "time": 1308.5876443833333,
          "velocity": 0.7874015748031497
        },
        {
          "duration": 0.08522724999988895,
          "durationTicks": 30,
          "midi": 88,
          "name": "E6",
          "ticks": 424440,
          "time": 1308.6728716333334,
          "velocity": 0.7874015748031497
        },
        {
          "duration": 0.08522725000011633,
          "durationTicks": 30,
          "midi": 86,
          "name": "D6",
          "ticks": 424470,
          "time": 1308.7580988833333,
          "velocity": 0.7874015748031497
        },
        {
          "duration": 0.08522724999988895,
          "durationTicks": 30,
          "midi": 88,
          "name": "E6",
          "ticks": 424500,
          "time": 1308.8433261333334,
          "velocity": 0.7874015748031497
        },
        {
          "duration": 0.08522725000011633,
          "durationTicks": 30,
          "midi": 86,
          "name": "D6",
          "ticks": 424530,
          "time": 1308.9285533833333,
          "velocity": 0.7874015748031497
        },
        {
          "duration": 0.08522725000011633,
          "durationTicks": 30,
          "midi": 86,
          "name": "D6",
          "ticks": 424590,
          "time": 1309.0990078833333,
          "velocity": 0.7874015748031497
        },
        {
          "duration": 0.08522724999988895,
          "durationTicks": 30,
          "midi": 88,
          "name": "E6",
          "ticks": 424620,
          "time": 1309.1842351333335,
          "velocity": 0.7874015748031497
        },
        {
          "duration": 0.08522725000011633,
          "durationTicks": 30,
          "midi": 86,
          "name": "D6",
          "ticks": 424650,
          "time": 1309.2694623833333,
          "velocity": 0.7874015748031497
        },
        {
          "duration": 0.08522724999988895,
          "durationTicks": 30,
          "midi": 88,
          "name": "E6",
          "ticks": 424680,
          "time": 1309.3546896333335,
          "velocity": 0.7874015748031497
        },
        {
          "duration": 0.08522725000011633,
          "durationTicks": 30,
          "midi": 86,
          "name": "D6",
          "ticks": 424710,
          "time": 1309.4399168833334,
          "velocity": 0.7874015748031497
        },
        {
          "duration": 0.08522724999988895,
          "durationTicks": 30,
          "midi": 88,
          "name": "E6",
          "ticks": 424740,
          "time": 1309.5251441333335,
          "velocity": 0.7874015748031497
        },
        {
          "duration": 0.08522724999988895,
          "durationTicks": 30,
          "midi": 86,
          "name": "D6",
          "ticks": 424770,
          "time": 1309.6103713833334,
          "velocity": 0.7874015748031497
        },
        {
          "duration": 0.08522724999988895,
          "durationTicks": 30,
          "midi": 86,
          "name": "D6",
          "ticks": 424830,
          "time": 1309.7808258833334,
          "velocity": 0.7874015748031497
        },
        {
          "duration": 0.08522725000011633,
          "durationTicks": 30,
          "midi": 88,
          "name": "E6",
          "ticks": 424860,
          "time": 1309.8660531333333,
          "velocity": 0.7874015748031497
        },
        {
          "duration": 0.08522724999988895,
          "durationTicks": 30,
          "midi": 86,
          "name": "D6",
          "ticks": 424890,
          "time": 1309.9512803833334,
          "velocity": 0.7874015748031497
        },
        {
          "duration": 0.08522725000011633,
          "durationTicks": 30,
          "midi": 88,
          "name": "E6",
          "ticks": 424920,
          "time": 1310.0365076333333,
          "velocity": 0.7874015748031497
        },
        {
          "duration": 0.08522724999988895,
          "durationTicks": 30,
          "midi": 86,
          "name": "D6",
          "ticks": 424950,
          "time": 1310.1217348833334,
          "velocity": 0.7874015748031497
        },
        {
          "duration": 0.08522725000011633,
          "durationTicks": 30,
          "midi": 88,
          "name": "E6",
          "ticks": 424980,
          "time": 1310.2069621333333,
          "velocity": 0.7874015748031497
        },
        {
          "duration": 0.08522724999988895,
          "durationTicks": 30,
          "midi": 86,
          "name": "D6",
          "ticks": 425010,
          "time": 1310.2921893833334,
          "velocity": 0.7874015748031497
        },
        {
          "duration": 0.08522724999988895,
          "durationTicks": 30,
          "midi": 86,
          "name": "D6",
          "ticks": 425070,
          "time": 1310.4626438833334,
          "velocity": 0.7874015748031497
        },
        {
          "duration": 0.08522725000011633,
          "durationTicks": 30,
          "midi": 88,
          "name": "E6",
          "ticks": 425100,
          "time": 1310.5478711333333,
          "velocity": 0.7874015748031497
        },
        {
          "duration": 0.08522724999988895,
          "durationTicks": 30,
          "midi": 86,
          "name": "D6",
          "ticks": 425130,
          "time": 1310.6330983833334,
          "velocity": 0.7874015748031497
        },
        {
          "duration": 0.08522725000011633,
          "durationTicks": 30,
          "midi": 88,
          "name": "E6",
          "ticks": 425160,
          "time": 1310.7183256333333,
          "velocity": 0.7874015748031497
        },
        {
          "duration": 0.08522724999988895,
          "durationTicks": 30,
          "midi": 86,
          "name": "D6",
          "ticks": 425190,
          "time": 1310.8035528833334,
          "velocity": 0.7874015748031497
        },
        {
          "duration": 0.08522725000011633,
          "durationTicks": 30,
          "midi": 88,
          "name": "E6",
          "ticks": 425220,
          "time": 1310.8887801333333,
          "velocity": 0.7874015748031497
        },
        {
          "duration": 0.08522724999988895,
          "durationTicks": 30,
          "midi": 86,
          "name": "D6",
          "ticks": 425250,
          "time": 1310.9740073833334,
          "velocity": 0.7874015748031497
        },
        {
          "duration": 0.08522724999988895,
          "durationTicks": 30,
          "midi": 85,
          "name": "C#6",
          "ticks": 425310,
          "time": 1311.1444618833334,
          "velocity": 0.7874015748031497
        },
        {
          "duration": 0.08522725000011633,
          "durationTicks": 30,
          "midi": 86,
          "name": "D6",
          "ticks": 425340,
          "time": 1311.2296891333333,
          "velocity": 0.7874015748031497
        },
        {
          "duration": 0.08522724999988895,
          "durationTicks": 30,
          "midi": 85,
          "name": "C#6",
          "ticks": 425370,
          "time": 1311.3149163833334,
          "velocity": 0.7874015748031497
        },
        {
          "duration": 0.08522725000011633,
          "durationTicks": 30,
          "midi": 86,
          "name": "D6",
          "ticks": 425400,
          "time": 1311.4001436333333,
          "velocity": 0.7874015748031497
        },
        {
          "duration": 0.08522724999988895,
          "durationTicks": 30,
          "midi": 85,
          "name": "C#6",
          "ticks": 425430,
          "time": 1311.4853708833334,
          "velocity": 0.7874015748031497
        },
        {
          "duration": 0.08522725000011633,
          "durationTicks": 30,
          "midi": 86,
          "name": "D6",
          "ticks": 425460,
          "time": 1311.5705981333333,
          "velocity": 0.7874015748031497
        },
        {
          "duration": 0.08522724999988895,
          "durationTicks": 30,
          "midi": 85,
          "name": "C#6",
          "ticks": 425490,
          "time": 1311.6558253833334,
          "velocity": 0.7874015748031497
        },
        {
          "duration": 0.08522724999988895,
          "durationTicks": 30,
          "midi": 86,
          "name": "D6",
          "ticks": 425550,
          "time": 1311.8262798833334,
          "velocity": 0.7874015748031497
        },
        {
          "duration": 0.08522725000011633,
          "durationTicks": 30,
          "midi": 88,
          "name": "E6",
          "ticks": 425580,
          "time": 1311.9115071333333,
          "velocity": 0.7874015748031497
        },
        {
          "duration": 0.08522724999988895,
          "durationTicks": 30,
          "midi": 86,
          "name": "D6",
          "ticks": 425610,
          "time": 1311.9967343833334,
          "velocity": 0.7874015748031497
        },
        {
          "duration": 0.08522725000011633,
          "durationTicks": 30,
          "midi": 88,
          "name": "E6",
          "ticks": 425640,
          "time": 1312.0819616333333,
          "velocity": 0.7874015748031497
        },
        {
          "duration": 0.08522724999988895,
          "durationTicks": 30,
          "midi": 86,
          "name": "D6",
          "ticks": 425670,
          "time": 1312.1671888833334,
          "velocity": 0.7874015748031497
        },
        {
          "duration": 0.08522725000011633,
          "durationTicks": 30,
          "midi": 88,
          "name": "E6",
          "ticks": 425700,
          "time": 1312.2524161333333,
          "velocity": 0.7874015748031497
        },
        {
          "duration": 0.08522724999988895,
          "durationTicks": 30,
          "midi": 86,
          "name": "D6",
          "ticks": 425730,
          "time": 1312.3376433833334,
          "velocity": 0.7874015748031497
        },
        {
          "duration": 0.08522724999988895,
          "durationTicks": 30,
          "midi": 86,
          "name": "D6",
          "ticks": 425790,
          "time": 1312.5080978833334,
          "velocity": 0.7874015748031497
        },
        {
          "duration": 0.08522725000011633,
          "durationTicks": 30,
          "midi": 88,
          "name": "E6",
          "ticks": 425820,
          "time": 1312.5933251333333,
          "velocity": 0.7874015748031497
        },
        {
          "duration": 0.08522724999988895,
          "durationTicks": 30,
          "midi": 86,
          "name": "D6",
          "ticks": 425850,
          "time": 1312.6785523833335,
          "velocity": 0.7874015748031497
        },
        {
          "duration": 0.08522725000011633,
          "durationTicks": 30,
          "midi": 88,
          "name": "E6",
          "ticks": 425880,
          "time": 1312.7637796333333,
          "velocity": 0.7874015748031497
        },
        {
          "duration": 0.08522724999988895,
          "durationTicks": 30,
          "midi": 86,
          "name": "D6",
          "ticks": 425910,
          "time": 1312.8490068833335,
          "velocity": 0.7874015748031497
        },
        {
          "duration": 0.08522725000011633,
          "durationTicks": 30,
          "midi": 88,
          "name": "E6",
          "ticks": 425940,
          "time": 1312.9342341333333,
          "velocity": 0.7874015748031497
        },
        {
          "duration": 0.08522724999988895,
          "durationTicks": 30,
          "midi": 86,
          "name": "D6",
          "ticks": 425970,
          "time": 1313.0194613833335,
          "velocity": 0.7874015748031497
        },
        {
          "duration": 0.08522724999988895,
          "durationTicks": 30,
          "midi": 86,
          "name": "D6",
          "ticks": 426030,
          "time": 1313.1899158833335,
          "velocity": 0.7874015748031497
        },
        {
          "duration": 0.08522724999988895,
          "durationTicks": 30,
          "midi": 88,
          "name": "E6",
          "ticks": 426060,
          "time": 1313.2751431333334,
          "velocity": 0.7874015748031497
        },
        {
          "duration": 0.08522725000011633,
          "durationTicks": 30,
          "midi": 86,
          "name": "D6",
          "ticks": 426090,
          "time": 1313.3603703833332,
          "velocity": 0.7874015748031497
        },
        {
          "duration": 0.08522724999988895,
          "durationTicks": 30,
          "midi": 88,
          "name": "E6",
          "ticks": 426120,
          "time": 1313.4455976333334,
          "velocity": 0.7874015748031497
        },
        {
          "duration": 0.08522725000011633,
          "durationTicks": 30,
          "midi": 86,
          "name": "D6",
          "ticks": 426150,
          "time": 1313.5308248833333,
          "velocity": 0.7874015748031497
        },
        {
          "duration": 0.08522724999988895,
          "durationTicks": 30,
          "midi": 88,
          "name": "E6",
          "ticks": 426180,
          "time": 1313.6160521333334,
          "velocity": 0.7874015748031497
        },
        {
          "duration": 0.08522725000011633,
          "durationTicks": 30,
          "midi": 86,
          "name": "D6",
          "ticks": 426210,
          "time": 1313.7012793833333,
          "velocity": 0.7874015748031497
        },
        {
          "duration": 0.34090900000001056,
          "durationTicks": 120,
          "midi": 83,
          "name": "B5",
          "ticks": 426840,
          "time": 1315.4910516333334,
          "velocity": 0.7874015748031497
        },
        {
          "duration": 0.6818180000000211,
          "durationTicks": 240,
          "midi": 84,
          "name": "C6",
          "ticks": 426960,
          "time": 1315.8319606333334,
          "velocity": 0.7874015748031497
        },
        {
          "duration": 0.34090900000001056,
          "durationTicks": 120,
          "midi": 93,
          "name": "A6",
          "ticks": 427560,
          "time": 1317.5365056333333,
          "velocity": 0.7874015748031497
        },
        {
          "duration": 0.34090900000001056,
          "durationTicks": 120,
          "midi": 95,
          "name": "B6",
          "ticks": 427680,
          "time": 1317.8774146333333,
          "velocity": 0.7874015748031497
        },
        {
          "duration": 0.34090900000001056,
          "durationTicks": 120,
          "midi": 86,
          "name": "D6",
          "ticks": 427680,
          "time": 1317.8774146333333,
          "velocity": 0.7874015748031497
        },
        {
          "duration": 0.34090900000001056,
          "durationTicks": 120,
          "midi": 69,
          "name": "A4",
          "ticks": 427800,
          "time": 1318.2183236333333,
          "velocity": 0.7874015748031497
        },
        {
          "duration": 0.34090900000001056,
          "durationTicks": 120,
          "midi": 66,
          "name": "F#4",
          "ticks": 427800,
          "time": 1318.2183236333333,
          "velocity": 0.7874015748031497
        },
        {
          "duration": 0.34090900000001056,
          "durationTicks": 120,
          "midi": 71,
          "name": "B4",
          "ticks": 427920,
          "time": 1318.5592326333333,
          "velocity": 0.7874015748031497
        },
        {
          "duration": 0.34090900000001056,
          "durationTicks": 120,
          "midi": 67,
          "name": "G4",
          "ticks": 427920,
          "time": 1318.5592326333333,
          "velocity": 0.7874015748031497
        },
        {
          "duration": 0.34090900000001056,
          "durationTicks": 120,
          "midi": 64,
          "name": "E4",
          "ticks": 428040,
          "time": 1318.9001416333333,
          "velocity": 0.7874015748031497
        },
        {
          "duration": 0.34090900000001056,
          "durationTicks": 120,
          "midi": 61,
          "name": "C#4",
          "ticks": 428040,
          "time": 1318.9001416333333,
          "velocity": 0.7874015748031497
        },
        {
          "duration": 0.6818180000000211,
          "durationTicks": 240,
          "midi": 66,
          "name": "F#4",
          "ticks": 428160,
          "time": 1319.2410506333333,
          "velocity": 0.7874015748031497
        },
        {
          "duration": 0.34090900000001056,
          "durationTicks": 120,
          "midi": 62,
          "name": "D4",
          "ticks": 428160,
          "time": 1319.2410506333333,
          "velocity": 0.7874015748031497
        },
        {
          "duration": 0.34090900000001056,
          "durationTicks": 120,
          "midi": 50,
          "name": "D3",
          "ticks": 428280,
          "time": 1319.5819596333333,
          "velocity": 0.7874015748031497
        },
        {
          "duration": 0.34090900000001056,
          "durationTicks": 120,
          "midi": 55,
          "name": "G3",
          "ticks": 428400,
          "time": 1319.9228686333333,
          "velocity": 0.7874015748031497
        },
        {
          "duration": 0.34090900000001056,
          "durationTicks": 120,
          "midi": 96,
          "name": "C7",
          "ticks": 428520,
          "time": 1320.2637776333333,
          "velocity": 0.7874015748031497
        },
        {
          "duration": 0.34090900000001056,
          "durationTicks": 120,
          "midi": 88,
          "name": "E6",
          "ticks": 428520,
          "time": 1320.2637776333333,
          "velocity": 0.7874015748031497
        },
        {
          "duration": 0.34090900000001056,
          "durationTicks": 120,
          "midi": 95,
          "name": "B6",
          "ticks": 428640,
          "time": 1320.6046866333334,
          "velocity": 0.7874015748031497
        },
        {
          "duration": 0.34090900000001056,
          "durationTicks": 120,
          "midi": 86,
          "name": "D6",
          "ticks": 428640,
          "time": 1320.6046866333334,
          "velocity": 0.7874015748031497
        },
        {
          "duration": 0.34090900000001056,
          "durationTicks": 120,
          "midi": 93,
          "name": "A6",
          "ticks": 428760,
          "time": 1320.9455956333334,
          "velocity": 0.7874015748031497
        },
        {
          "duration": 0.34090900000001056,
          "durationTicks": 120,
          "midi": 84,
          "name": "C6",
          "ticks": 428760,
          "time": 1320.9455956333334,
          "velocity": 0.7874015748031497
        },
        {
          "duration": 0.34090900000001056,
          "durationTicks": 120,
          "midi": 91,
          "name": "G6",
          "ticks": 428880,
          "time": 1321.2865046333334,
          "velocity": 0.7874015748031497
        },
        {
          "duration": 0.34090900000001056,
          "durationTicks": 120,
          "midi": 83,
          "name": "B5",
          "ticks": 428880,
          "time": 1321.2865046333334,
          "velocity": 0.7874015748031497
        },
        {
          "duration": 0.34090900000001056,
          "durationTicks": 120,
          "midi": 81,
          "name": "A5",
          "ticks": 429000,
          "time": 1321.6274136333334,
          "velocity": 0.7874015748031497
        },
        {
          "duration": 0.34090900000001056,
          "durationTicks": 120,
          "midi": 90,
          "name": "F#6",
          "ticks": 429000,
          "time": 1321.6274136333334,
          "velocity": 0.7874015748031497
        },
        {
          "duration": 0.34090900000001056,
          "durationTicks": 120,
          "midi": 84,
          "name": "C6",
          "ticks": 429000,
          "time": 1321.6274136333334,
          "velocity": 0.7874015748031497
        },
        {
          "duration": 0.17045450000000528,
          "durationTicks": 60,
          "midi": 83,
          "name": "B5",
          "ticks": 429120,
          "time": 1321.9683226333334,
          "velocity": 0.7874015748031497
        },
        {
          "duration": 0.17045450000000528,
          "durationTicks": 60,
          "midi": 95,
          "name": "B6",
          "ticks": 429120,
          "time": 1321.9683226333334,
          "velocity": 0.7874015748031497
        },
        {
          "duration": 0.17045450000000528,
          "durationTicks": 60,
          "midi": 86,
          "name": "D6",
          "ticks": 429180,
          "time": 1322.1387771333334,
          "velocity": 0.7874015748031497
        },
        {
          "duration": 0.17045450000000528,
          "durationTicks": 60,
          "midi": 91,
          "name": "G6",
          "ticks": 429180,
          "time": 1322.1387771333334,
          "velocity": 0.7874015748031497
        },
        {
          "duration": 0.17045450000000528,
          "durationTicks": 60,
          "midi": 84,
          "name": "C6",
          "ticks": 429240,
          "time": 1322.3092316333334,
          "velocity": 0.7874015748031497
        },
        {
          "duration": 0.17045450000000528,
          "durationTicks": 60,
          "midi": 90,
          "name": "F#6",
          "ticks": 429240,
          "time": 1322.3092316333334,
          "velocity": 0.7874015748031497
        },
        {
          "duration": 0.17045450000000528,
          "durationTicks": 60,
          "midi": 86,
          "name": "D6",
          "ticks": 429300,
          "time": 1322.4796861333334,
          "velocity": 0.7874015748031497
        },
        {
          "duration": 0.17045450000000528,
          "durationTicks": 60,
          "midi": 91,
          "name": "G6",
          "ticks": 429300,
          "time": 1322.4796861333334,
          "velocity": 0.7874015748031497
        },
        {
          "duration": 0.17045450000000528,
          "durationTicks": 60,
          "midi": 83,
          "name": "B5",
          "ticks": 429360,
          "time": 1322.6501406333334,
          "velocity": 0.7874015748031497
        },
        {
          "duration": 0.17045450000000528,
          "durationTicks": 60,
          "midi": 88,
          "name": "E6",
          "ticks": 429360,
          "time": 1322.6501406333334,
          "velocity": 0.7874015748031497
        },
        {
          "duration": 0.17045450000000528,
          "durationTicks": 60,
          "midi": 83,
          "name": "B5",
          "ticks": 429420,
          "time": 1322.8205951333334,
          "velocity": 0.7874015748031497
        },
        {
          "duration": 0.17045450000000528,
          "durationTicks": 60,
          "midi": 81,
          "name": "A5",
          "ticks": 429480,
          "time": 1322.9910496333334,
          "velocity": 0.7874015748031497
        },
        {
          "duration": 0.17045450000000528,
          "durationTicks": 60,
          "midi": 83,
          "name": "B5",
          "ticks": 429540,
          "time": 1323.1615041333334,
          "velocity": 0.7874015748031497
        },
        {
          "duration": 0.17045450000000528,
          "durationTicks": 60,
          "midi": 79,
          "name": "G5",
          "ticks": 429600,
          "time": 1323.3319586333334,
          "velocity": 0.7874015748031497
        },
        {
          "duration": 0.17045450000000528,
          "durationTicks": 60,
          "midi": 83,
          "name": "B5",
          "ticks": 429660,
          "time": 1323.5024131333334,
          "velocity": 0.7874015748031497
        },
        {
          "duration": 0.17045450000000528,
          "durationTicks": 60,
          "midi": 88,
          "name": "E6",
          "ticks": 429720,
          "time": 1323.6728676333335,
          "velocity": 0.7874015748031497
        },
        {
          "duration": 0.17045450000000528,
          "durationTicks": 60,
          "midi": 91,
          "name": "G6",
          "ticks": 429780,
          "time": 1323.8433221333335,
          "velocity": 0.7874015748031497
        },
        {
          "duration": 0.17045450000000528,
          "durationTicks": 60,
          "midi": 81,
          "name": "A5",
          "ticks": 429840,
          "time": 1324.0137766333335,
          "velocity": 0.7874015748031497
        },
        {
          "duration": 0.17045450000000528,
          "durationTicks": 60,
          "midi": 93,
          "name": "A6",
          "ticks": 429840,
          "time": 1324.0137766333335,
          "velocity": 0.7874015748031497
        },
        {
          "duration": 0.1704544999997779,
          "durationTicks": 60,
          "midi": 85,
          "name": "C#6",
          "ticks": 429900,
          "time": 1324.1842311333335,
          "velocity": 0.7874015748031497
        },
        {
          "duration": 0.1704544999997779,
          "durationTicks": 60,
          "midi": 90,
          "name": "F#6",
          "ticks": 429900,
          "time": 1324.1842311333335,
          "velocity": 0.7874015748031497
        },
        {
          "duration": 0.17045450000000528,
          "durationTicks": 60,
          "midi": 83,
          "name": "B5",
          "ticks": 429960,
          "time": 1324.3546856333332,
          "velocity": 0.7874015748031497
        },
        {
          "duration": 0.17045450000000528,
          "durationTicks": 60,
          "midi": 88,
          "name": "E6",
          "ticks": 429960,
          "time": 1324.3546856333332,
          "velocity": 0.7874015748031497
        },
        {
          "duration": 0.17045450000000528,
          "durationTicks": 60,
          "midi": 85,
          "name": "C#6",
          "ticks": 430020,
          "time": 1324.5251401333333,
          "velocity": 0.7874015748031497
        },
        {
          "duration": 0.17045450000000528,
          "durationTicks": 60,
          "midi": 90,
          "name": "F#6",
          "ticks": 430020,
          "time": 1324.5251401333333,
          "velocity": 0.7874015748031497
        },
        {
          "duration": 0.17045450000000528,
          "durationTicks": 60,
          "midi": 81,
          "name": "A5",
          "ticks": 430080,
          "time": 1324.6955946333333,
          "velocity": 0.7874015748031497
        },
        {
          "duration": 0.17045450000000528,
          "durationTicks": 60,
          "midi": 86,
          "name": "D6",
          "ticks": 430080,
          "time": 1324.6955946333333,
          "velocity": 0.7874015748031497
        },
        {
          "duration": 0.17045450000000528,
          "durationTicks": 60,
          "midi": 81,
          "name": "A5",
          "ticks": 430140,
          "time": 1324.8660491333333,
          "velocity": 0.7874015748031497
        },
        {
          "duration": 0.17045450000000528,
          "durationTicks": 60,
          "midi": 79,
          "name": "G5",
          "ticks": 430200,
          "time": 1325.0365036333333,
          "velocity": 0.7874015748031497
        },
        {
          "duration": 0.17045450000000528,
          "durationTicks": 60,
          "midi": 81,
          "name": "A5",
          "ticks": 430260,
          "time": 1325.2069581333333,
          "velocity": 0.7874015748031497
        },
        {
          "duration": 0.17045450000000528,
          "durationTicks": 60,
          "midi": 78,
          "name": "F#5",
          "ticks": 430320,
          "time": 1325.3774126333333,
          "velocity": 0.7874015748031497
        },
        {
          "duration": 0.17045450000000528,
          "durationTicks": 60,
          "midi": 81,
          "name": "A5",
          "ticks": 430380,
          "time": 1325.5478671333333,
          "velocity": 0.7874015748031497
        },
        {
          "duration": 0.17045450000000528,
          "durationTicks": 60,
          "midi": 86,
          "name": "D6",
          "ticks": 430440,
          "time": 1325.7183216333333,
          "velocity": 0.7874015748031497
        },
        {
          "duration": 0.17045450000000528,
          "durationTicks": 60,
          "midi": 90,
          "name": "F#6",
          "ticks": 430500,
          "time": 1325.8887761333333,
          "velocity": 0.7874015748031497
        },
        {
          "duration": 0.17045450000000528,
          "durationTicks": 60,
          "midi": 79,
          "name": "G5",
          "ticks": 430560,
          "time": 1326.0592306333333,
          "velocity": 0.7874015748031497
        },
        {
          "duration": 0.17045450000000528,
          "durationTicks": 60,
          "midi": 91,
          "name": "G6",
          "ticks": 430560,
          "time": 1326.0592306333333,
          "velocity": 0.7874015748031497
        },
        {
          "duration": 0.17045450000000528,
          "durationTicks": 60,
          "midi": 83,
          "name": "B5",
          "ticks": 430620,
          "time": 1326.2296851333333,
          "velocity": 0.7874015748031497
        },
        {
          "duration": 0.17045450000000528,
          "durationTicks": 60,
          "midi": 88,
          "name": "E6",
          "ticks": 430620,
          "time": 1326.2296851333333,
          "velocity": 0.7874015748031497
        },
        {
          "duration": 0.17045450000000528,
          "durationTicks": 60,
          "midi": 81,
          "name": "A5",
          "ticks": 430680,
          "time": 1326.4001396333333,
          "velocity": 0.7874015748031497
        },
        {
          "duration": 0.17045450000000528,
          "durationTicks": 60,
          "midi": 87,
          "name": "D#6",
          "ticks": 430680,
          "time": 1326.4001396333333,
          "velocity": 0.7874015748031497
        },
        {
          "duration": 0.17045450000000528,
          "durationTicks": 60,
          "midi": 83,
          "name": "B5",
          "ticks": 430740,
          "time": 1326.5705941333333,
          "velocity": 0.7874015748031497
        },
        {
          "duration": 0.17045450000000528,
          "durationTicks": 60,
          "midi": 88,
          "name": "E6",
          "ticks": 430740,
          "time": 1326.5705941333333,
          "velocity": 0.7874015748031497
        },
        {
          "duration": 0.17045450000000528,
          "durationTicks": 60,
          "midi": 79,
          "name": "G5",
          "ticks": 430800,
          "time": 1326.7410486333333,
          "velocity": 0.7874015748031497
        },
        {
          "duration": 0.17045450000000528,
          "durationTicks": 60,
          "midi": 83,
          "name": "B5",
          "ticks": 430800,
          "time": 1326.7410486333333,
          "velocity": 0.7874015748031497
        },
        {
          "duration": 0.17045450000000528,
          "durationTicks": 60,
          "midi": 79,
          "name": "G5",
          "ticks": 430860,
          "time": 1326.9115031333333,
          "velocity": 0.7874015748031497
        },
        {
          "duration": 0.17045450000000528,
          "durationTicks": 60,
          "midi": 78,
          "name": "F#5",
          "ticks": 430920,
          "time": 1327.0819576333333,
          "velocity": 0.7874015748031497
        },
        {
          "duration": 0.17045450000000528,
          "durationTicks": 60,
          "midi": 79,
          "name": "G5",
          "ticks": 430980,
          "time": 1327.2524121333333,
          "velocity": 0.7874015748031497
        },
        {
          "duration": 0.17045450000000528,
          "durationTicks": 60,
          "midi": 71,
          "name": "B4",
          "ticks": 431040,
          "time": 1327.4228666333333,
          "velocity": 0.7874015748031497
        },
        {
          "duration": 0.17045450000000528,
          "durationTicks": 60,
          "midi": 79,
          "name": "G5",
          "ticks": 431100,
          "time": 1327.5933211333333,
          "velocity": 0.7874015748031497
        },
        {
          "duration": 0.17045450000000528,
          "durationTicks": 60,
          "midi": 83,
          "name": "B5",
          "ticks": 431160,
          "time": 1327.7637756333334,
          "velocity": 0.7874015748031497
        },
        {
          "duration": 0.17045450000000528,
          "durationTicks": 60,
          "midi": 86,
          "name": "D6",
          "ticks": 431220,
          "time": 1327.9342301333334,
          "velocity": 0.7874015748031497
        },
        {
          "duration": 0.08522724999988895,
          "durationTicks": 30,
          "midi": 85,
          "name": "C#6",
          "ticks": 431280,
          "time": 1328.1046846333334,
          "velocity": 0.7874015748031497
        },
        {
          "duration": 0.08522725000011633,
          "durationTicks": 30,
          "midi": 79,
          "name": "G5",
          "ticks": 431310,
          "time": 1328.1899118833333,
          "velocity": 0.7874015748031497
        },
        {
          "duration": 0.08522724999988895,
          "durationTicks": 30,
          "midi": 78,
          "name": "F#5",
          "ticks": 431340,
          "time": 1328.2751391333334,
          "velocity": 0.7874015748031497
        },
        {
          "duration": 0.08522725000011633,
          "durationTicks": 30,
          "midi": 79,
          "name": "G5",
          "ticks": 431370,
          "time": 1328.3603663833333,
          "velocity": 0.7874015748031497
        },
        {
          "duration": 0.08522724999988895,
          "durationTicks": 30,
          "midi": 78,
          "name": "F#5",
          "ticks": 431400,
          "time": 1328.4455936333334,
          "velocity": 0.7874015748031497
        },
        {
          "duration": 0.08522725000011633,
          "durationTicks": 30,
          "midi": 79,
          "name": "G5",
          "ticks": 431430,
          "time": 1328.5308208833333,
          "velocity": 0.7874015748031497
        },
        {
          "duration": 0.08522724999988895,
          "durationTicks": 30,
          "midi": 78,
          "name": "F#5",
          "ticks": 431460,
          "time": 1328.6160481333334,
          "velocity": 0.7874015748031497
        },
        {
          "duration": 0.08522725000011633,
          "durationTicks": 30,
          "midi": 79,
          "name": "G5",
          "ticks": 431490,
          "time": 1328.7012753833333,
          "velocity": 0.7874015748031497
        },
        {
          "duration": 0.08522724999988895,
          "durationTicks": 30,
          "midi": 76,
          "name": "E5",
          "ticks": 431520,
          "time": 1328.7865026333334,
          "velocity": 0.7874015748031497
        },
        {
          "duration": 0.08522725000011633,
          "durationTicks": 30,
          "midi": 79,
          "name": "G5",
          "ticks": 431550,
          "time": 1328.8717298833333,
          "velocity": 0.7874015748031497
        },
        {
          "duration": 0.08522724999988895,
          "durationTicks": 30,
          "midi": 78,
          "name": "F#5",
          "ticks": 431580,
          "time": 1328.9569571333334,
          "velocity": 0.7874015748031497
        },
        {
          "duration": 0.08522725000011633,
          "durationTicks": 30,
          "midi": 79,
          "name": "G5",
          "ticks": 431610,
          "time": 1329.0421843833333,
          "velocity": 0.7874015748031497
        },
        {
          "duration": 0.08522724999988895,
          "durationTicks": 30,
          "midi": 78,
          "name": "F#5",
          "ticks": 431640,
          "time": 1329.1274116333334,
          "velocity": 0.7874015748031497
        },
        {
          "duration": 0.08522725000011633,
          "durationTicks": 30,
          "midi": 79,
          "name": "G5",
          "ticks": 431670,
          "time": 1329.2126388833333,
          "velocity": 0.7874015748031497
        },
        {
          "duration": 0.08522724999988895,
          "durationTicks": 30,
          "midi": 78,
          "name": "F#5",
          "ticks": 431700,
          "time": 1329.2978661333334,
          "velocity": 0.7874015748031497
        },
        {
          "duration": 0.08522725000011633,
          "durationTicks": 30,
          "midi": 79,
          "name": "G5",
          "ticks": 431730,
          "time": 1329.3830933833333,
          "velocity": 0.7874015748031497
        },
        {
          "duration": 0.08522724999988895,
          "durationTicks": 30,
          "midi": 69,
          "name": "A4",
          "ticks": 431760,
          "time": 1329.4683206333334,
          "velocity": 0.7874015748031497
        },
        {
          "duration": 0.08522725000011633,
          "durationTicks": 30,
          "midi": 71,
          "name": "B4",
          "ticks": 431790,
          "time": 1329.5535478833333,
          "velocity": 0.7874015748031497
        },
        {
          "duration": 0.08522724999988895,
          "durationTicks": 30,
          "midi": 73,
          "name": "C#5",
          "ticks": 431820,
          "time": 1329.6387751333334,
          "velocity": 0.7874015748031497
        },
        {
          "duration": 0.08522725000011633,
          "durationTicks": 30,
          "midi": 74,
          "name": "D5",
          "ticks": 431850,
          "time": 1329.7240023833333,
          "velocity": 0.7874015748031497
        },
        {
          "duration": 0.08522724999988895,
          "durationTicks": 30,
          "midi": 76,
          "name": "E5",
          "ticks": 431880,
          "time": 1329.8092296333334,
          "velocity": 0.7874015748031497
        },
        {
          "duration": 0.08522725000011633,
          "durationTicks": 30,
          "midi": 78,
          "name": "F#5",
          "ticks": 431910,
          "time": 1329.8944568833333,
          "velocity": 0.7874015748031497
        },
        {
          "duration": 0.17045450000000528,
          "durationTicks": 60,
          "midi": 79,
          "name": "G5",
          "ticks": 431940,
          "time": 1329.9796841333334,
          "velocity": 0.7874015748031497
        },
        {
          "duration": 0.08522725000011633,
          "durationTicks": 30,
          "midi": 74,
          "name": "D5",
          "ticks": 432030,
          "time": 1330.2353658833333,
          "velocity": 0.7874015748031497
        },
        {
          "duration": 0.08522724999988895,
          "durationTicks": 30,
          "midi": 76,
          "name": "E5",
          "ticks": 432060,
          "time": 1330.3205931333334,
          "velocity": 0.7874015748031497
        },
        {
          "duration": 0.08522725000011633,
          "durationTicks": 30,
          "midi": 74,
          "name": "D5",
          "ticks": 432090,
          "time": 1330.4058203833333,
          "velocity": 0.7874015748031497
        },
        {
          "duration": 0.08522724999988895,
          "durationTicks": 30,
          "midi": 76,
          "name": "E5",
          "ticks": 432120,
          "time": 1330.4910476333334,
          "velocity": 0.7874015748031497
        },
        {
          "duration": 0.08522725000011633,
          "durationTicks": 30,
          "midi": 74,
          "name": "D5",
          "ticks": 432150,
          "time": 1330.5762748833333,
          "velocity": 0.7874015748031497
        },
        {
          "duration": 0.08522724999988895,
          "durationTicks": 30,
          "midi": 76,
          "name": "E5",
          "ticks": 432180,
          "time": 1330.6615021333334,
          "velocity": 0.7874015748031497
        },
        {
          "duration": 0.08522725000011633,
          "durationTicks": 30,
          "midi": 74,
          "name": "D5",
          "ticks": 432210,
          "time": 1330.7467293833333,
          "velocity": 0.7874015748031497
        },
        {
          "duration": 0.08522725000011633,
          "durationTicks": 30,
          "midi": 74,
          "name": "D5",
          "ticks": 432270,
          "time": 1330.9171838833333,
          "velocity": 0.7874015748031497
        },
        {
          "duration": 0.08522724999988895,
          "durationTicks": 30,
          "midi": 76,
          "name": "E5",
          "ticks": 432300,
          "time": 1331.0024111333335,
          "velocity": 0.7874015748031497
        },
        {
          "duration": 0.08522725000011633,
          "durationTicks": 30,
          "midi": 74,
          "name": "D5",
          "ticks": 432330,
          "time": 1331.0876383833333,
          "velocity": 0.7874015748031497
        },
        {
          "duration": 0.08522724999988895,
          "durationTicks": 30,
          "midi": 76,
          "name": "E5",
          "ticks": 432360,
          "time": 1331.1728656333335,
          "velocity": 0.7874015748031497
        },
        {
          "duration": 0.08522725000011633,
          "durationTicks": 30,
          "midi": 74,
          "name": "D5",
          "ticks": 432390,
          "time": 1331.2580928833333,
          "velocity": 0.7874015748031497
        },
        {
          "duration": 0.08522724999988895,
          "durationTicks": 30,
          "midi": 76,
          "name": "E5",
          "ticks": 432420,
          "time": 1331.3433201333335,
          "velocity": 0.7874015748031497
        },
        {
          "duration": 0.08522724999988895,
          "durationTicks": 30,
          "midi": 74,
          "name": "D5",
          "ticks": 432450,
          "time": 1331.4285473833334,
          "velocity": 0.7874015748031497
        },
        {
          "duration": 0.08522724999988895,
          "durationTicks": 30,
          "midi": 74,
          "name": "D5",
          "ticks": 432510,
          "time": 1331.5990018833334,
          "velocity": 0.7874015748031497
        },
        {
          "duration": 0.08522725000011633,
          "durationTicks": 30,
          "midi": 76,
          "name": "E5",
          "ticks": 432540,
          "time": 1331.6842291333332,
          "velocity": 0.7874015748031497
        },
        {
          "duration": 0.08522724999988895,
          "durationTicks": 30,
          "midi": 74,
          "name": "D5",
          "ticks": 432570,
          "time": 1331.7694563833334,
          "velocity": 0.7874015748031497
        },
        {
          "duration": 0.08522725000011633,
          "durationTicks": 30,
          "midi": 76,
          "name": "E5",
          "ticks": 432600,
          "time": 1331.8546836333333,
          "velocity": 0.7874015748031497
        },
        {
          "duration": 0.08522724999988895,
          "durationTicks": 30,
          "midi": 74,
          "name": "D5",
          "ticks": 432630,
          "time": 1331.9399108833334,
          "velocity": 0.7874015748031497
        },
        {
          "duration": 0.08522725000011633,
          "durationTicks": 30,
          "midi": 76,
          "name": "E5",
          "ticks": 432660,
          "time": 1332.0251381333333,
          "velocity": 0.7874015748031497
        },
        {
          "duration": 0.08522724999988895,
          "durationTicks": 30,
          "midi": 74,
          "name": "D5",
          "ticks": 432690,
          "time": 1332.1103653833334,
          "velocity": 0.7874015748031497
        },
        {
          "duration": 0.08522724999988895,
          "durationTicks": 30,
          "midi": 74,
          "name": "D5",
          "ticks": 432750,
          "time": 1332.2808198833334,
          "velocity": 0.7874015748031497
        },
        {
          "duration": 0.08522725000011633,
          "durationTicks": 30,
          "midi": 76,
          "name": "E5",
          "ticks": 432780,
          "time": 1332.3660471333333,
          "velocity": 0.7874015748031497
        },
        {
          "duration": 0.08522724999988895,
          "durationTicks": 30,
          "midi": 74,
          "name": "D5",
          "ticks": 432810,
          "time": 1332.4512743833334,
          "velocity": 0.7874015748031497
        },
        {
          "duration": 0.08522725000011633,
          "durationTicks": 30,
          "midi": 76,
          "name": "E5",
          "ticks": 432840,
          "time": 1332.5365016333333,
          "velocity": 0.7874015748031497
        },
        {
          "duration": 0.08522724999988895,
          "durationTicks": 30,
          "midi": 74,
          "name": "D5",
          "ticks": 432870,
          "time": 1332.6217288833334,
          "velocity": 0.7874015748031497
        },
        {
          "duration": 0.08522725000011633,
          "durationTicks": 30,
          "midi": 76,
          "name": "E5",
          "ticks": 432900,
          "time": 1332.7069561333333,
          "velocity": 0.7874015748031497
        },
        {
          "duration": 0.08522724999988895,
          "durationTicks": 30,
          "midi": 74,
          "name": "D5",
          "ticks": 432930,
          "time": 1332.7921833833334,
          "velocity": 0.7874015748031497
        },
        {
          "duration": 0.08522724999988895,
          "durationTicks": 30,
          "midi": 74,
          "name": "D5",
          "ticks": 432990,
          "time": 1332.9626378833334,
          "velocity": 0.7874015748031497
        },
        {
          "duration": 0.08522725000011633,
          "durationTicks": 30,
          "midi": 76,
          "name": "E5",
          "ticks": 433020,
          "time": 1333.0478651333333,
          "velocity": 0.7874015748031497
        },
        {
          "duration": 0.08522724999988895,
          "durationTicks": 30,
          "midi": 74,
          "name": "D5",
          "ticks": 433050,
          "time": 1333.1330923833334,
          "velocity": 0.7874015748031497
        },
        {
          "duration": 0.08522725000011633,
          "durationTicks": 30,
          "midi": 76,
          "name": "E5",
          "ticks": 433080,
          "time": 1333.2183196333333,
          "velocity": 0.7874015748031497
        },
        {
          "duration": 0.08522724999988895,
          "durationTicks": 30,
          "midi": 74,
          "name": "D5",
          "ticks": 433110,
          "time": 1333.3035468833334,
          "velocity": 0.7874015748031497
        },
        {
          "duration": 0.08522725000011633,
          "durationTicks": 30,
          "midi": 76,
          "name": "E5",
          "ticks": 433140,
          "time": 1333.3887741333333,
          "velocity": 0.7874015748031497
        },
        {
          "duration": 0.08522724999988895,
          "durationTicks": 30,
          "midi": 74,
          "name": "D5",
          "ticks": 433170,
          "time": 1333.4740013833334,
          "velocity": 0.7874015748031497
        },
        {
          "duration": 0.08522724999988895,
          "durationTicks": 30,
          "midi": 74,
          "name": "D5",
          "ticks": 433230,
          "time": 1333.6444558833334,
          "velocity": 0.7874015748031497
        },
        {
          "duration": 0.08522725000011633,
          "durationTicks": 30,
          "midi": 76,
          "name": "E5",
          "ticks": 433260,
          "time": 1333.7296831333333,
          "velocity": 0.7874015748031497
        },
        {
          "duration": 0.08522724999988895,
          "durationTicks": 30,
          "midi": 74,
          "name": "D5",
          "ticks": 433290,
          "time": 1333.8149103833334,
          "velocity": 0.7874015748031497
        },
        {
          "duration": 0.08522725000011633,
          "durationTicks": 30,
          "midi": 76,
          "name": "E5",
          "ticks": 433320,
          "time": 1333.9001376333333,
          "velocity": 0.7874015748031497
        },
        {
          "duration": 0.08522724999988895,
          "durationTicks": 30,
          "midi": 74,
          "name": "D5",
          "ticks": 433350,
          "time": 1333.9853648833334,
          "velocity": 0.7874015748031497
        },
        {
          "duration": 0.08522725000011633,
          "durationTicks": 30,
          "midi": 76,
          "name": "E5",
          "ticks": 433380,
          "time": 1334.0705921333333,
          "velocity": 0.7874015748031497
        },
        {
          "duration": 0.08522724999988895,
          "durationTicks": 30,
          "midi": 74,
          "name": "D5",
          "ticks": 433410,
          "time": 1334.1558193833334,
          "velocity": 0.7874015748031497
        },
        {
          "duration": 0.08522724999988895,
          "durationTicks": 30,
          "midi": 74,
          "name": "D5",
          "ticks": 433470,
          "time": 1334.3262738833334,
          "velocity": 0.7874015748031497
        },
        {
          "duration": 0.08522725000011633,
          "durationTicks": 30,
          "midi": 76,
          "name": "E5",
          "ticks": 433500,
          "time": 1334.4115011333333,
          "velocity": 0.7874015748031497
        },
        {
          "duration": 0.08522724999988895,
          "durationTicks": 30,
          "midi": 74,
          "name": "D5",
          "ticks": 433530,
          "time": 1334.4967283833334,
          "velocity": 0.7874015748031497
        },
        {
          "duration": 0.08522725000011633,
          "durationTicks": 30,
          "midi": 76,
          "name": "E5",
          "ticks": 433560,
          "time": 1334.5819556333333,
          "velocity": 0.7874015748031497
        },
        {
          "duration": 0.08522724999988895,
          "durationTicks": 30,
          "midi": 74,
          "name": "D5",
          "ticks": 433590,
          "time": 1334.6671828833335,
          "velocity": 0.7874015748031497
        },
        {
          "duration": 0.08522725000011633,
          "durationTicks": 30,
          "midi": 76,
          "name": "E5",
          "ticks": 433620,
          "time": 1334.7524101333333,
          "velocity": 0.7874015748031497
        },
        {
          "duration": 0.08522724999988895,
          "durationTicks": 30,
          "midi": 74,
          "name": "D5",
          "ticks": 433650,
          "time": 1334.8376373833335,
          "velocity": 0.7874015748031497
        },
        {
          "duration": 0.08522724999988895,
          "durationTicks": 30,
          "midi": 74,
          "name": "D5",
          "ticks": 433710,
          "time": 1335.0080918833335,
          "velocity": 0.7874015748031497
        },
        {
          "duration": 0.08522724999988895,
          "durationTicks": 30,
          "midi": 76,
          "name": "E5",
          "ticks": 433740,
          "time": 1335.0933191333334,
          "velocity": 0.7874015748031497
        },
        {
          "duration": 0.08522725000011633,
          "durationTicks": 30,
          "midi": 74,
          "name": "D5",
          "ticks": 433770,
          "time": 1335.1785463833332,
          "velocity": 0.7874015748031497
        },
        {
          "duration": 0.08522724999988895,
          "durationTicks": 30,
          "midi": 76,
          "name": "E5",
          "ticks": 433800,
          "time": 1335.2637736333334,
          "velocity": 0.7874015748031497
        },
        {
          "duration": 0.08522725000011633,
          "durationTicks": 30,
          "midi": 74,
          "name": "D5",
          "ticks": 433830,
          "time": 1335.3490008833332,
          "velocity": 0.7874015748031497
        },
        {
          "duration": 0.08522724999988895,
          "durationTicks": 30,
          "midi": 76,
          "name": "E5",
          "ticks": 433860,
          "time": 1335.4342281333334,
          "velocity": 0.7874015748031497
        },
        {
          "duration": 0.08522725000011633,
          "durationTicks": 30,
          "midi": 74,
          "name": "D5",
          "ticks": 433890,
          "time": 1335.5194553833333,
          "velocity": 0.7874015748031497
        },
        {
          "duration": 0.08522725000011633,
          "durationTicks": 30,
          "midi": 73,
          "name": "C#5",
          "ticks": 433950,
          "time": 1335.6899098833333,
          "velocity": 0.7874015748031497
        },
        {
          "duration": 0.08522724999988895,
          "durationTicks": 30,
          "midi": 74,
          "name": "D5",
          "ticks": 433980,
          "time": 1335.7751371333334,
          "velocity": 0.7874015748031497
        },
        {
          "duration": 0.08522725000011633,
          "durationTicks": 30,
          "midi": 73,
          "name": "C#5",
          "ticks": 434010,
          "time": 1335.8603643833333,
          "velocity": 0.7874015748031497
        },
        {
          "duration": 0.08522724999988895,
          "durationTicks": 30,
          "midi": 74,
          "name": "D5",
          "ticks": 434040,
          "time": 1335.9455916333334,
          "velocity": 0.7874015748031497
        },
        {
          "duration": 0.08522725000011633,
          "durationTicks": 30,
          "midi": 73,
          "name": "C#5",
          "ticks": 434070,
          "time": 1336.0308188833333,
          "velocity": 0.7874015748031497
        },
        {
          "duration": 0.08522724999988895,
          "durationTicks": 30,
          "midi": 74,
          "name": "D5",
          "ticks": 434100,
          "time": 1336.1160461333334,
          "velocity": 0.7874015748031497
        },
        {
          "duration": 0.08522725000011633,
          "durationTicks": 30,
          "midi": 73,
          "name": "C#5",
          "ticks": 434130,
          "time": 1336.2012733833333,
          "velocity": 0.7874015748031497
        },
        {
          "duration": 0.08522724999988895,
          "durationTicks": 30,
          "midi": 76,
          "name": "E5",
          "ticks": 434160,
          "time": 1336.2865006333334,
          "velocity": 0.7874015748031497
        },
        {
          "duration": 0.08522725000011633,
          "durationTicks": 30,
          "midi": 74,
          "name": "D5",
          "ticks": 434190,
          "time": 1336.3717278833333,
          "velocity": 0.7874015748031497
        },
        {
          "duration": 0.08522724999988895,
          "durationTicks": 30,
          "midi": 76,
          "name": "E5",
          "ticks": 434220,
          "time": 1336.4569551333334,
          "velocity": 0.7874015748031497
        },
        {
          "duration": 0.08522725000011633,
          "durationTicks": 30,
          "midi": 74,
          "name": "D5",
          "ticks": 434250,
          "time": 1336.5421823833333,
          "velocity": 0.7874015748031497
        },
        {
          "duration": 0.08522724999988895,
          "durationTicks": 30,
          "midi": 76,
          "name": "E5",
          "ticks": 434280,
          "time": 1336.6274096333334,
          "velocity": 0.7874015748031497
        },
        {
          "duration": 0.08522725000011633,
          "durationTicks": 30,
          "midi": 74,
          "name": "D5",
          "ticks": 434310,
          "time": 1336.7126368833333,
          "velocity": 0.7874015748031497
        },
        {
          "duration": 0.08522724999988895,
          "durationTicks": 30,
          "midi": 76,
          "name": "E5",
          "ticks": 434340,
          "time": 1336.7978641333334,
          "velocity": 0.7874015748031497
        },
        {
          "duration": 0.08522725000011633,
          "durationTicks": 30,
          "midi": 74,
          "name": "D5",
          "ticks": 434370,
          "time": 1336.8830913833333,
          "velocity": 0.7874015748031497
        },
        {
          "duration": 0.08522724999988895,
          "durationTicks": 30,
          "midi": 83,
          "name": "B5",
          "ticks": 434400,
          "time": 1336.9683186333334,
          "velocity": 0.7874015748031497
        },
        {
          "duration": 0.08522725000011633,
          "durationTicks": 30,
          "midi": 81,
          "name": "A5",
          "ticks": 434430,
          "time": 1337.0535458833333,
          "velocity": 0.7874015748031497
        },
        {
          "duration": 0.08522724999988895,
          "durationTicks": 30,
          "midi": 83,
          "name": "B5",
          "ticks": 434460,
          "time": 1337.1387731333334,
          "velocity": 0.7874015748031497
        },
        {
          "duration": 0.08522725000011633,
          "durationTicks": 30,
          "midi": 81,
          "name": "A5",
          "ticks": 434490,
          "time": 1337.2240003833333,
          "velocity": 0.7874015748031497
        },
        {
          "duration": 0.08522724999988895,
          "durationTicks": 30,
          "midi": 83,
          "name": "B5",
          "ticks": 434520,
          "time": 1337.3092276333334,
          "velocity": 0.7874015748031497
        },
        {
          "duration": 0.08522725000011633,
          "durationTicks": 30,
          "midi": 81,
          "name": "A5",
          "ticks": 434550,
          "time": 1337.3944548833333,
          "velocity": 0.7874015748031497
        },
        {
          "duration": 0.08522724999988895,
          "durationTicks": 30,
          "midi": 83,
          "name": "B5",
          "ticks": 434580,
          "time": 1337.4796821333334,
          "velocity": 0.7874015748031497
        },
        {
          "duration": 0.08522725000011633,
          "durationTicks": 30,
          "midi": 81,
          "name": "A5",
          "ticks": 434610,
          "time": 1337.5649093833333,
          "velocity": 0.7874015748031497
        },
        {
          "duration": 0.34090900000001056,
          "durationTicks": 120,
          "midi": 78,
          "name": "F#5",
          "ticks": 434640,
          "time": 1337.6501366333334,
          "velocity": 0.7874015748031497
        },
        {
          "duration": 0.34090900000001056,
          "durationTicks": 120,
          "midi": 86,
          "name": "D6",
          "ticks": 434640,
          "time": 1337.6501366333334,
          "velocity": 0.7874015748031497
        },
        {
          "duration": 0.1704544999997779,
          "durationTicks": 60,
          "midi": 90,
          "name": "F#6",
          "ticks": 434940,
          "time": 1338.5024091333335,
          "velocity": 0.7874015748031497
        },
        {
          "duration": 0.1704544999997779,
          "durationTicks": 60,
          "midi": 93,
          "name": "A6",
          "ticks": 434940,
          "time": 1338.5024091333335,
          "velocity": 0.7874015748031497
        },
        {
          "duration": 0.17045450000023266,
          "durationTicks": 60,
          "midi": 88,
          "name": "E6",
          "ticks": 435000,
          "time": 1338.6728636333332,
          "velocity": 0.7874015748031497
        },
        {
          "duration": 0.17045450000023266,
          "durationTicks": 60,
          "midi": 91,
          "name": "G6",
          "ticks": 435000,
          "time": 1338.6728636333332,
          "velocity": 0.7874015748031497
        },
        {
          "duration": 0.1704544999997779,
          "durationTicks": 60,
          "midi": 90,
          "name": "F#6",
          "ticks": 435060,
          "time": 1338.8433181333335,
          "velocity": 0.7874015748031497
        },
        {
          "duration": 0.1704544999997779,
          "durationTicks": 60,
          "midi": 93,
          "name": "A6",
          "ticks": 435060,
          "time": 1338.8433181333335,
          "velocity": 0.7874015748031497
        },
        {
          "duration": 0.17045450000000528,
          "durationTicks": 60,
          "midi": 86,
          "name": "D6",
          "ticks": 435120,
          "time": 1339.0137726333332,
          "velocity": 0.7874015748031497
        },
        {
          "duration": 0.17045450000000528,
          "durationTicks": 60,
          "midi": 90,
          "name": "F#6",
          "ticks": 435120,
          "time": 1339.0137726333332,
          "velocity": 0.7874015748031497
        },
        {
          "duration": 0.17045450000000528,
          "durationTicks": 60,
          "midi": 78,
          "name": "F#5",
          "ticks": 435180,
          "time": 1339.1842271333333,
          "velocity": 0.7874015748031497
        },
        {
          "duration": 0.17045450000000528,
          "durationTicks": 60,
          "midi": 86,
          "name": "D6",
          "ticks": 435180,
          "time": 1339.1842271333333,
          "velocity": 0.7874015748031497
        },
        {
          "duration": 0.17045450000000528,
          "durationTicks": 60,
          "midi": 76,
          "name": "E5",
          "ticks": 435240,
          "time": 1339.3546816333333,
          "velocity": 0.7874015748031497
        },
        {
          "duration": 0.17045450000000528,
          "durationTicks": 60,
          "midi": 85,
          "name": "C#6",
          "ticks": 435240,
          "time": 1339.3546816333333,
          "velocity": 0.7874015748031497
        },
        {
          "duration": 0.17045450000000528,
          "durationTicks": 60,
          "midi": 78,
          "name": "F#5",
          "ticks": 435300,
          "time": 1339.5251361333333,
          "velocity": 0.7874015748031497
        },
        {
          "duration": 0.17045450000000528,
          "durationTicks": 60,
          "midi": 86,
          "name": "D6",
          "ticks": 435300,
          "time": 1339.5251361333333,
          "velocity": 0.7874015748031497
        },
        {
          "duration": 0.17045450000000528,
          "durationTicks": 60,
          "midi": 78,
          "name": "F#5",
          "ticks": 435360,
          "time": 1339.6955906333333,
          "velocity": 0.7874015748031497
        },
        {
          "duration": 0.17045450000000528,
          "durationTicks": 60,
          "midi": 81,
          "name": "A5",
          "ticks": 435360,
          "time": 1339.6955906333333,
          "velocity": 0.7874015748031497
        },
        {
          "duration": 0.17045450000000528,
          "durationTicks": 60,
          "midi": 81,
          "name": "A5",
          "ticks": 435420,
          "time": 1339.8660451333333,
          "velocity": 0.7874015748031497
        },
        {
          "duration": 0.17045450000000528,
          "durationTicks": 60,
          "midi": 84,
          "name": "C6",
          "ticks": 435420,
          "time": 1339.8660451333333,
          "velocity": 0.7874015748031497
        },
        {
          "duration": 0.17045450000000528,
          "durationTicks": 60,
          "midi": 69,
          "name": "A4",
          "ticks": 435480,
          "time": 1340.0364996333333,
          "velocity": 0.7874015748031497
        },
        {
          "duration": 0.17045450000000528,
          "durationTicks": 60,
          "midi": 78,
          "name": "F#5",
          "ticks": 435480,
          "time": 1340.0364996333333,
          "velocity": 0.7874015748031497
        },
        {
          "duration": 0.17045450000000528,
          "durationTicks": 60,
          "midi": 72,
          "name": "C5",
          "ticks": 435540,
          "time": 1340.2069541333333,
          "velocity": 0.7874015748031497
        },
        {
          "duration": 0.17045450000000528,
          "durationTicks": 60,
          "midi": 81,
          "name": "A5",
          "ticks": 435540,
          "time": 1340.2069541333333,
          "velocity": 0.7874015748031497
        },
        {
          "duration": 0.17045450000000528,
          "durationTicks": 60,
          "midi": 71,
          "name": "B4",
          "ticks": 435660,
          "time": 1340.5478631333333,
          "velocity": 0.7874015748031497
        },
        {
          "duration": 0.17045450000000528,
          "durationTicks": 60,
          "midi": 74,
          "name": "D5",
          "ticks": 435660,
          "time": 1340.5478631333333,
          "velocity": 0.7874015748031497
        },
        {
          "duration": 0.17045450000000528,
          "durationTicks": 60,
          "midi": 69,
          "name": "A4",
          "ticks": 435720,
          "time": 1340.7183176333333,
          "velocity": 0.7874015748031497
        },
        {
          "duration": 0.17045450000000528,
          "durationTicks": 60,
          "midi": 72,
          "name": "C5",
          "ticks": 435720,
          "time": 1340.7183176333333,
          "velocity": 0.7874015748031497
        },
        {
          "duration": 0.17045450000000528,
          "durationTicks": 60,
          "midi": 71,
          "name": "B4",
          "ticks": 435780,
          "time": 1340.8887721333333,
          "velocity": 0.7874015748031497
        },
        {
          "duration": 0.17045450000000528,
          "durationTicks": 60,
          "midi": 74,
          "name": "D5",
          "ticks": 435780,
          "time": 1340.8887721333333,
          "velocity": 0.7874015748031497
        },
        {
          "duration": 0.17045450000000528,
          "durationTicks": 60,
          "midi": 71,
          "name": "B4",
          "ticks": 435840,
          "time": 1341.0592266333333,
          "velocity": 0.7874015748031497
        },
        {
          "duration": 0.17045450000000528,
          "durationTicks": 60,
          "midi": 79,
          "name": "G5",
          "ticks": 435840,
          "time": 1341.0592266333333,
          "velocity": 0.7874015748031497
        },
        {
          "duration": 0.17045450000000528,
          "durationTicks": 60,
          "midi": 79,
          "name": "G5",
          "ticks": 435900,
          "time": 1341.2296811333333,
          "velocity": 0.7874015748031497
        },
        {
          "duration": 0.17045450000000528,
          "durationTicks": 60,
          "midi": 83,
          "name": "B5",
          "ticks": 435900,
          "time": 1341.2296811333333,
          "velocity": 0.7874015748031497
        },
        {
          "duration": 0.17045450000000528,
          "durationTicks": 60,
          "midi": 77,
          "name": "F5",
          "ticks": 435960,
          "time": 1341.4001356333333,
          "velocity": 0.7874015748031497
        },
        {
          "duration": 0.17045450000000528,
          "durationTicks": 60,
          "midi": 81,
          "name": "A5",
          "ticks": 435960,
          "time": 1341.4001356333333,
          "velocity": 0.7874015748031497
        },
        {
          "duration": 0.17045450000000528,
          "durationTicks": 60,
          "midi": 79,
          "name": "G5",
          "ticks": 436020,
          "time": 1341.5705901333333,
          "velocity": 0.7874015748031497
        },
        {
          "duration": 0.17045450000000528,
          "durationTicks": 60,
          "midi": 83,
          "name": "B5",
          "ticks": 436020,
          "time": 1341.5705901333333,
          "velocity": 0.7874015748031497
        },
        {
          "duration": 0.17045450000000528,
          "durationTicks": 60,
          "midi": 78,
          "name": "F#5",
          "ticks": 436080,
          "time": 1341.7410446333333,
          "velocity": 0.7874015748031497
        },
        {
          "duration": 0.17045450000000528,
          "durationTicks": 60,
          "midi": 86,
          "name": "D6",
          "ticks": 436080,
          "time": 1341.7410446333333,
          "velocity": 0.7874015748031497
        },
        {
          "duration": 0.17045450000000528,
          "durationTicks": 60,
          "midi": 74,
          "name": "D5",
          "ticks": 436140,
          "time": 1341.9114991333333,
          "velocity": 0.7874015748031497
        },
        {
          "duration": 0.17045450000000528,
          "durationTicks": 60,
          "midi": 83,
          "name": "B5",
          "ticks": 436140,
          "time": 1341.9114991333333,
          "velocity": 0.7874015748031497
        },
        {
          "duration": 0.17045450000000528,
          "durationTicks": 60,
          "midi": 86,
          "name": "D6",
          "ticks": 436200,
          "time": 1342.0819536333333,
          "velocity": 0.7874015748031497
        },
        {
          "duration": 0.17045450000000528,
          "durationTicks": 60,
          "midi": 89,
          "name": "F6",
          "ticks": 436200,
          "time": 1342.0819536333333,
          "velocity": 0.7874015748031497
        },
        {
          "duration": 0.17045450000000528,
          "durationTicks": 60,
          "midi": 83,
          "name": "B5",
          "ticks": 436260,
          "time": 1342.2524081333333,
          "velocity": 0.7874015748031497
        },
        {
          "duration": 0.17045450000000528,
          "durationTicks": 60,
          "midi": 86,
          "name": "D6",
          "ticks": 436260,
          "time": 1342.2524081333333,
          "velocity": 0.7874015748031497
        },
        {
          "duration": 0.34090900000001056,
          "durationTicks": 120,
          "midi": 79,
          "name": "G5",
          "ticks": 436320,
          "time": 1342.4228626333334,
          "velocity": 0.7874015748031497
        },
        {
          "duration": 0.34090900000001056,
          "durationTicks": 120,
          "midi": 88,
          "name": "E6",
          "ticks": 436320,
          "time": 1342.4228626333334,
          "velocity": 0.7874015748031497
        },
        {
          "duration": 0.34090900000001056,
          "durationTicks": 120,
          "midi": 77,
          "name": "F5",
          "ticks": 436440,
          "time": 1342.7637716333334,
          "velocity": 0.7874015748031497
        },
        {
          "duration": 0.34090900000001056,
          "durationTicks": 120,
          "midi": 83,
          "name": "B5",
          "ticks": 436440,
          "time": 1342.7637716333334,
          "velocity": 0.7874015748031497
        },
        {
          "duration": 0.34090900000001056,
          "durationTicks": 120,
          "midi": 76,
          "name": "E5",
          "ticks": 436560,
          "time": 1343.1046806333334,
          "velocity": 0.7874015748031497
        },
        {
          "duration": 0.34090900000001056,
          "durationTicks": 120,
          "midi": 84,
          "name": "C6",
          "ticks": 436560,
          "time": 1343.1046806333334,
          "velocity": 0.7874015748031497
        },
        {
          "duration": 0.34090900000001056,
          "durationTicks": 120,
          "midi": 71,
          "name": "B4",
          "ticks": 436680,
          "time": 1343.4455896333334,
          "velocity": 0.7874015748031497
        },
        {
          "duration": 0.34090900000001056,
          "durationTicks": 120,
          "midi": 75,
          "name": "D#5",
          "ticks": 436680,
          "time": 1343.4455896333334,
          "velocity": 0.7874015748031497
        },
        {
          "duration": 0.34090900000001056,
          "durationTicks": 120,
          "midi": 69,
          "name": "A4",
          "ticks": 436800,
          "time": 1343.7864986333334,
          "velocity": 0.7874015748031497
        },
        {
          "duration": 0.34090900000001056,
          "durationTicks": 120,
          "midi": 76,
          "name": "E5",
          "ticks": 436800,
          "time": 1343.7864986333334,
          "velocity": 0.7874015748031497
        },
        {
          "duration": 0.34090900000001056,
          "durationTicks": 120,
          "midi": 67,
          "name": "G4",
          "ticks": 436920,
          "time": 1344.1274076333334,
          "velocity": 0.7874015748031497
        },
        {
          "duration": 0.34090900000001056,
          "durationTicks": 120,
          "midi": 81,
          "name": "A5",
          "ticks": 436920,
          "time": 1344.1274076333334,
          "velocity": 0.7874015748031497
        },
        {
          "duration": 0.34090900000001056,
          "durationTicks": 120,
          "midi": 66,
          "name": "F#4",
          "ticks": 437040,
          "time": 1344.4683166333334,
          "velocity": 0.7874015748031497
        },
        {
          "duration": 0.34090900000001056,
          "durationTicks": 120,
          "midi": 75,
          "name": "D#5",
          "ticks": 437040,
          "time": 1344.4683166333334,
          "velocity": 0.7874015748031497
        },
        {
          "duration": 0.34090900000001056,
          "durationTicks": 120,
          "midi": 73,
          "name": "C#5",
          "ticks": 437160,
          "time": 1344.8092256333334,
          "velocity": 0.7874015748031497
        },
        {
          "duration": 0.34090900000001056,
          "durationTicks": 120,
          "midi": 76,
          "name": "E5",
          "ticks": 437160,
          "time": 1344.8092256333334,
          "velocity": 0.7874015748031497
        },
        {
          "duration": 0.34090900000001056,
          "durationTicks": 120,
          "midi": 75,
          "name": "D#5",
          "ticks": 437280,
          "time": 1345.1501346333334,
          "velocity": 0.7874015748031497
        },
        {
          "duration": 0.34090900000001056,
          "durationTicks": 120,
          "midi": 78,
          "name": "F#5",
          "ticks": 437280,
          "time": 1345.1501346333334,
          "velocity": 0.7874015748031497
        },
        {
          "duration": 0.34090900000001056,
          "durationTicks": 120,
          "midi": 76,
          "name": "E5",
          "ticks": 437400,
          "time": 1345.4910436333334,
          "velocity": 0.7874015748031497
        },
        {
          "duration": 0.34090900000001056,
          "durationTicks": 120,
          "midi": 79,
          "name": "G5",
          "ticks": 437400,
          "time": 1345.4910436333334,
          "velocity": 0.7874015748031497
        },
        {
          "duration": 0.34090900000001056,
          "durationTicks": 120,
          "midi": 75,
          "name": "D#5",
          "ticks": 437520,
          "time": 1345.8319526333335,
          "velocity": 0.7874015748031497
        },
        {
          "duration": 0.34090900000001056,
          "durationTicks": 120,
          "midi": 84,
          "name": "C6",
          "ticks": 437520,
          "time": 1345.8319526333335,
          "velocity": 0.7874015748031497
        },
        {
          "duration": 0.34090900000001056,
          "durationTicks": 120,
          "midi": 83,
          "name": "B5",
          "ticks": 437760,
          "time": 1346.5137706333333,
          "velocity": 0.7874015748031497
        },
        {
          "duration": 0.34090900000001056,
          "durationTicks": 120,
          "midi": 85,
          "name": "C#6",
          "ticks": 438000,
          "time": 1347.1955886333333,
          "velocity": 0.7874015748031497
        },
        {
          "duration": 0.34090900000001056,
          "durationTicks": 120,
          "midi": 87,
          "name": "D#6",
          "ticks": 438240,
          "time": 1347.8774066333333,
          "velocity": 0.7874015748031497
        },
        {
          "duration": 0.34090900000001056,
          "durationTicks": 120,
          "midi": 88,
          "name": "E6",
          "ticks": 438480,
          "time": 1348.5592246333333,
          "velocity": 0.7874015748031497
        },
        {
          "duration": 0.34090900000001056,
          "durationTicks": 120,
          "midi": 87,
          "name": "D#6",
          "ticks": 438720,
          "time": 1349.2410426333333,
          "velocity": 0.7874015748031497
        },
        {
          "duration": 0.34090900000001056,
          "durationTicks": 120,
          "midi": 88,
          "name": "E6",
          "ticks": 438960,
          "time": 1349.9228606333334,
          "velocity": 0.7874015748031497
        },
        {
          "duration": 0.34090900000001056,
          "durationTicks": 120,
          "midi": 85,
          "name": "C#6",
          "ticks": 439200,
          "time": 1350.6046786333334,
          "velocity": 0.7874015748031497
        },
        {
          "duration": 0.34090900000001056,
          "durationTicks": 120,
          "midi": 83,
          "name": "B5",
          "ticks": 439440,
          "time": 1351.2864966333334,
          "velocity": 0.7874015748031497
        },
        {
          "duration": 0.34090900000001056,
          "durationTicks": 120,
          "midi": 81,
          "name": "A5",
          "ticks": 439680,
          "time": 1351.9683146333334,
          "velocity": 0.7874015748031497
        },
        {
          "duration": 0.08522724999988895,
          "durationTicks": 30,
          "midi": 79,
          "name": "G5",
          "ticks": 440670,
          "time": 1354.7808138833334,
          "velocity": 0.7874015748031497
        },
        {
          "duration": 0.08522725000011633,
          "durationTicks": 30,
          "midi": 81,
          "name": "A5",
          "ticks": 440700,
          "time": 1354.8660411333333,
          "velocity": 0.7874015748031497
        },
        {
          "duration": 0.08522724999988895,
          "durationTicks": 30,
          "midi": 79,
          "name": "G5",
          "ticks": 440730,
          "time": 1354.9512683833334,
          "velocity": 0.7874015748031497
        },
        {
          "duration": 0.08522725000011633,
          "durationTicks": 30,
          "midi": 81,
          "name": "A5",
          "ticks": 440760,
          "time": 1355.0364956333333,
          "velocity": 0.7874015748031497
        },
        {
          "duration": 0.08522724999988895,
          "durationTicks": 30,
          "midi": 79,
          "name": "G5",
          "ticks": 440790,
          "time": 1355.1217228833334,
          "velocity": 0.7874015748031497
        },
        {
          "duration": 0.08522725000011633,
          "durationTicks": 30,
          "midi": 81,
          "name": "A5",
          "ticks": 440820,
          "time": 1355.2069501333333,
          "velocity": 0.7874015748031497
        },
        {
          "duration": 0.08522724999988895,
          "durationTicks": 30,
          "midi": 79,
          "name": "G5",
          "ticks": 440850,
          "time": 1355.2921773833334,
          "velocity": 0.7874015748031497
        },
        {
          "duration": 0.08522724999988895,
          "durationTicks": 30,
          "midi": 79,
          "name": "G5",
          "ticks": 440910,
          "time": 1355.4626318833334,
          "velocity": 0.7874015748031497
        },
        {
          "duration": 0.08522725000011633,
          "durationTicks": 30,
          "midi": 81,
          "name": "A5",
          "ticks": 440940,
          "time": 1355.5478591333333,
          "velocity": 0.7874015748031497
        },
        {
          "duration": 0.08522724999988895,
          "durationTicks": 30,
          "midi": 79,
          "name": "G5",
          "ticks": 440970,
          "time": 1355.6330863833334,
          "velocity": 0.7874015748031497
        },
        {
          "duration": 0.08522725000011633,
          "durationTicks": 30,
          "midi": 81,
          "name": "A5",
          "ticks": 441000,
          "time": 1355.7183136333333,
          "velocity": 0.7874015748031497
        },
        {
          "duration": 0.08522724999988895,
          "durationTicks": 30,
          "midi": 79,
          "name": "G5",
          "ticks": 441030,
          "time": 1355.8035408833334,
          "velocity": 0.7874015748031497
        },
        {
          "duration": 0.08522725000011633,
          "durationTicks": 30,
          "midi": 81,
          "name": "A5",
          "ticks": 441060,
          "time": 1355.8887681333333,
          "velocity": 0.7874015748031497
        },
        {
          "duration": 0.08522724999988895,
          "durationTicks": 30,
          "midi": 79,
          "name": "G5",
          "ticks": 441090,
          "time": 1355.9739953833334,
          "velocity": 0.7874015748031497
        },
        {
          "duration": 0.08522724999988895,
          "durationTicks": 30,
          "midi": 79,
          "name": "G5",
          "ticks": 441150,
          "time": 1356.1444498833334,
          "velocity": 0.7874015748031497
        },
        {
          "duration": 0.08522725000011633,
          "durationTicks": 30,
          "midi": 81,
          "name": "A5",
          "ticks": 441180,
          "time": 1356.2296771333333,
          "velocity": 0.7874015748031497
        },
        {
          "duration": 0.08522724999988895,
          "durationTicks": 30,
          "midi": 79,
          "name": "G5",
          "ticks": 441210,
          "time": 1356.3149043833334,
          "velocity": 0.7874015748031497
        },
        {
          "duration": 0.08522725000011633,
          "durationTicks": 30,
          "midi": 81,
          "name": "A5",
          "ticks": 441240,
          "time": 1356.4001316333333,
          "velocity": 0.7874015748031497
        },
        {
          "duration": 0.08522724999988895,
          "durationTicks": 30,
          "midi": 79,
          "name": "G5",
          "ticks": 441270,
          "time": 1356.4853588833334,
          "velocity": 0.7874015748031497
        },
        {
          "duration": 0.08522725000011633,
          "durationTicks": 30,
          "midi": 81,
          "name": "A5",
          "ticks": 441300,
          "time": 1356.5705861333333,
          "velocity": 0.7874015748031497
        },
        {
          "duration": 0.08522724999988895,
          "durationTicks": 30,
          "midi": 79,
          "name": "G5",
          "ticks": 441330,
          "time": 1356.6558133833335,
          "velocity": 0.7874015748031497
        },
        {
          "duration": 0.08522724999988895,
          "durationTicks": 30,
          "midi": 79,
          "name": "G5",
          "ticks": 441390,
          "time": 1356.8262678833335,
          "velocity": 0.7874015748031497
        },
        {
          "duration": 0.08522724999988895,
          "durationTicks": 30,
          "midi": 81,
          "name": "A5",
          "ticks": 441420,
          "time": 1356.9114951333333,
          "velocity": 0.7874015748031497
        },
        {
          "duration": 0.08522725000011633,
          "durationTicks": 30,
          "midi": 79,
          "name": "G5",
          "ticks": 441450,
          "time": 1356.9967223833332,
          "velocity": 0.7874015748031497
        },
        {
          "duration": 0.08522724999988895,
          "durationTicks": 30,
          "midi": 81,
          "name": "A5",
          "ticks": 441480,
          "time": 1357.0819496333334,
          "velocity": 0.7874015748031497
        },
        {
          "duration": 0.08522725000011633,
          "durationTicks": 30,
          "midi": 79,
          "name": "G5",
          "ticks": 441510,
          "time": 1357.1671768833332,
          "velocity": 0.7874015748031497
        },
        {
          "duration": 0.08522724999988895,
          "durationTicks": 30,
          "midi": 81,
          "name": "A5",
          "ticks": 441540,
          "time": 1357.2524041333334,
          "velocity": 0.7874015748031497
        },
        {
          "duration": 0.08522725000011633,
          "durationTicks": 30,
          "midi": 79,
          "name": "G5",
          "ticks": 441570,
          "time": 1357.3376313833332,
          "velocity": 0.7874015748031497
        },
        {
          "duration": 0.08522725000011633,
          "durationTicks": 30,
          "midi": 79,
          "name": "G5",
          "ticks": 441630,
          "time": 1357.5080858833333,
          "velocity": 0.7874015748031497
        },
        {
          "duration": 0.08522724999988895,
          "durationTicks": 30,
          "midi": 81,
          "name": "A5",
          "ticks": 441660,
          "time": 1357.5933131333334,
          "velocity": 0.7874015748031497
        },
        {
          "duration": 0.08522725000011633,
          "durationTicks": 30,
          "midi": 79,
          "name": "G5",
          "ticks": 441690,
          "time": 1357.6785403833333,
          "velocity": 0.7874015748031497
        },
        {
          "duration": 0.08522724999988895,
          "durationTicks": 30,
          "midi": 81,
          "name": "A5",
          "ticks": 441720,
          "time": 1357.7637676333334,
          "velocity": 0.7874015748031497
        },
        {
          "duration": 0.08522725000011633,
          "durationTicks": 30,
          "midi": 79,
          "name": "G5",
          "ticks": 441750,
          "time": 1357.8489948833333,
          "velocity": 0.7874015748031497
        },
        {
          "duration": 0.08522724999988895,
          "durationTicks": 30,
          "midi": 81,
          "name": "A5",
          "ticks": 441780,
          "time": 1357.9342221333334,
          "velocity": 0.7874015748031497
        },
        {
          "duration": 0.08522725000011633,
          "durationTicks": 30,
          "midi": 79,
          "name": "G5",
          "ticks": 441810,
          "time": 1358.0194493833333,
          "velocity": 0.7874015748031497
        },
        {
          "duration": 0.08522725000011633,
          "durationTicks": 30,
          "midi": 79,
          "name": "G5",
          "ticks": 441870,
          "time": 1358.1899038833333,
          "velocity": 0.7874015748031497
        },
        {
          "duration": 0.08522724999988895,
          "durationTicks": 30,
          "midi": 81,
          "name": "A5",
          "ticks": 441900,
          "time": 1358.2751311333334,
          "velocity": 0.7874015748031497
        },
        {
          "duration": 0.08522725000011633,
          "durationTicks": 30,
          "midi": 79,
          "name": "G5",
          "ticks": 441930,
          "time": 1358.3603583833333,
          "velocity": 0.7874015748031497
        },
        {
          "duration": 0.08522724999988895,
          "durationTicks": 30,
          "midi": 81,
          "name": "A5",
          "ticks": 441960,
          "time": 1358.4455856333334,
          "velocity": 0.7874015748031497
        },
        {
          "duration": 0.08522725000011633,
          "durationTicks": 30,
          "midi": 79,
          "name": "G5",
          "ticks": 441990,
          "time": 1358.5308128833333,
          "velocity": 0.7874015748031497
        },
        {
          "duration": 0.08522724999988895,
          "durationTicks": 30,
          "midi": 81,
          "name": "A5",
          "ticks": 442020,
          "time": 1358.6160401333334,
          "velocity": 0.7874015748031497
        },
        {
          "duration": 0.08522725000011633,
          "durationTicks": 30,
          "midi": 79,
          "name": "G5",
          "ticks": 442050,
          "time": 1358.7012673833333,
          "velocity": 0.7874015748031497
        },
        {
          "duration": 0.34090900000001056,
          "durationTicks": 120,
          "midi": 76,
          "name": "E5",
          "ticks": 442080,
          "time": 1358.7864946333334,
          "velocity": 0.7874015748031497
        },
        {
          "duration": 0.34090900000001056,
          "durationTicks": 120,
          "midi": 74,
          "name": "D5",
          "ticks": 442320,
          "time": 1359.4683126333334,
          "velocity": 0.7874015748031497
        },
        {
          "duration": 0.34090900000001056,
          "durationTicks": 120,
          "midi": 76,
          "name": "E5",
          "ticks": 442560,
          "time": 1360.1501306333334,
          "velocity": 0.7874015748031497
        },
        {
          "duration": 0.34090900000001056,
          "durationTicks": 120,
          "midi": 78,
          "name": "F#5",
          "ticks": 442800,
          "time": 1360.8319486333332,
          "velocity": 0.7874015748031497
        },
        {
          "duration": 0.34090900000001056,
          "durationTicks": 120,
          "midi": 76,
          "name": "E5",
          "ticks": 443040,
          "time": 1361.5137666333333,
          "velocity": 0.7874015748031497
        },
        {
          "duration": 0.34090900000001056,
          "durationTicks": 120,
          "midi": 78,
          "name": "F#5",
          "ticks": 443280,
          "time": 1362.1955846333333,
          "velocity": 0.7874015748031497
        },
        {
          "duration": 0.08522724999988895,
          "durationTicks": 30,
          "midi": 79,
          "name": "G5",
          "ticks": 443550,
          "time": 1362.9626298833334,
          "velocity": 0.7874015748031497
        },
        {
          "duration": 0.08522725000011633,
          "durationTicks": 30,
          "midi": 81,
          "name": "A5",
          "ticks": 443580,
          "time": 1363.0478571333333,
          "velocity": 0.7874015748031497
        },
        {
          "duration": 0.08522724999988895,
          "durationTicks": 30,
          "midi": 79,
          "name": "G5",
          "ticks": 443610,
          "time": 1363.1330843833334,
          "velocity": 0.7874015748031497
        },
        {
          "duration": 0.08522725000011633,
          "durationTicks": 30,
          "midi": 81,
          "name": "A5",
          "ticks": 443640,
          "time": 1363.2183116333333,
          "velocity": 0.7874015748031497
        },
        {
          "duration": 0.08522724999988895,
          "durationTicks": 30,
          "midi": 79,
          "name": "G5",
          "ticks": 443670,
          "time": 1363.3035388833334,
          "velocity": 0.7874015748031497
        },
        {
          "duration": 0.08522725000011633,
          "durationTicks": 30,
          "midi": 81,
          "name": "A5",
          "ticks": 443700,
          "time": 1363.3887661333333,
          "velocity": 0.7874015748031497
        },
        {
          "duration": 0.08522724999988895,
          "durationTicks": 30,
          "midi": 79,
          "name": "G5",
          "ticks": 443730,
          "time": 1363.4739933833334,
          "velocity": 0.7874015748031497
        },
        {
          "duration": 0.08522724999988895,
          "durationTicks": 30,
          "midi": 78,
          "name": "F#5",
          "ticks": 443790,
          "time": 1363.6444478833334,
          "velocity": 0.7874015748031497
        },
        {
          "duration": 0.08522725000011633,
          "durationTicks": 30,
          "midi": 79,
          "name": "G5",
          "ticks": 443820,
          "time": 1363.7296751333333,
          "velocity": 0.7874015748031497
        },
        {
          "duration": 0.08522724999988895,
          "durationTicks": 30,
          "midi": 78,
          "name": "F#5",
          "ticks": 443850,
          "time": 1363.8149023833334,
          "velocity": 0.7874015748031497
        },
        {
          "duration": 0.08522725000011633,
          "durationTicks": 30,
          "midi": 79,
          "name": "G5",
          "ticks": 443880,
          "time": 1363.9001296333333,
          "velocity": 0.7874015748031497
        },
        {
          "duration": 0.08522724999988895,
          "durationTicks": 30,
          "midi": 78,
          "name": "F#5",
          "ticks": 443910,
          "time": 1363.9853568833335,
          "velocity": 0.7874015748031497
        },
        {
          "duration": 0.08522725000011633,
          "durationTicks": 30,
          "midi": 79,
          "name": "G5",
          "ticks": 443940,
          "time": 1364.0705841333333,
          "velocity": 0.7874015748031497
        },
        {
          "duration": 0.08522724999988895,
          "durationTicks": 30,
          "midi": 78,
          "name": "F#5",
          "ticks": 443970,
          "time": 1364.1558113833335,
          "velocity": 0.7874015748031497
        },
        {
          "duration": 0.08522725000011633,
          "durationTicks": 30,
          "midi": 77,
          "name": "F5",
          "ticks": 444030,
          "time": 1364.3262658833332,
          "velocity": 0.7874015748031497
        },
        {
          "duration": 0.08522724999988895,
          "durationTicks": 30,
          "midi": 79,
          "name": "G5",
          "ticks": 444060,
          "time": 1364.4114931333334,
          "velocity": 0.7874015748031497
        },
        {
          "duration": 0.08522725000011633,
          "durationTicks": 30,
          "midi": 77,
          "name": "F5",
          "ticks": 444090,
          "time": 1364.4967203833332,
          "velocity": 0.7874015748031497
        },
        {
          "duration": 0.08522724999988895,
          "durationTicks": 30,
          "midi": 79,
          "name": "G5",
          "ticks": 444120,
          "time": 1364.5819476333334,
          "velocity": 0.7874015748031497
        },
        {
          "duration": 0.08522725000011633,
          "durationTicks": 30,
          "midi": 77,
          "name": "F5",
          "ticks": 444150,
          "time": 1364.6671748833332,
          "velocity": 0.7874015748031497
        },
        {
          "duration": 0.08522724999988895,
          "durationTicks": 30,
          "midi": 79,
          "name": "G5",
          "ticks": 444180,
          "time": 1364.7524021333334,
          "velocity": 0.7874015748031497
        },
        {
          "duration": 0.08522725000011633,
          "durationTicks": 30,
          "midi": 77,
          "name": "F5",
          "ticks": 444210,
          "time": 1364.8376293833333,
          "velocity": 0.7874015748031497
        },
        {
          "duration": 0.08522725000011633,
          "durationTicks": 30,
          "midi": 72,
          "name": "C5",
          "ticks": 444270,
          "time": 1365.0080838833333,
          "velocity": 0.7874015748031497
        },
        {
          "duration": 0.08522724999988895,
          "durationTicks": 30,
          "midi": 74,
          "name": "D5",
          "ticks": 444300,
          "time": 1365.0933111333334,
          "velocity": 0.7874015748031497
        },
        {
          "duration": 0.08522725000011633,
          "durationTicks": 30,
          "midi": 72,
          "name": "C5",
          "ticks": 444330,
          "time": 1365.1785383833333,
          "velocity": 0.7874015748031497
        },
        {
          "duration": 0.08522724999988895,
          "durationTicks": 30,
          "midi": 74,
          "name": "D5",
          "ticks": 444360,
          "time": 1365.2637656333334,
          "velocity": 0.7874015748031497
        },
        {
          "duration": 0.08522725000011633,
          "durationTicks": 30,
          "midi": 72,
          "name": "C5",
          "ticks": 444390,
          "time": 1365.3489928833333,
          "velocity": 0.7874015748031497
        },
        {
          "duration": 0.08522724999988895,
          "durationTicks": 30,
          "midi": 74,
          "name": "D5",
          "ticks": 444420,
          "time": 1365.4342201333334,
          "velocity": 0.7874015748031497
        },
        {
          "duration": 0.08522725000011633,
          "durationTicks": 30,
          "midi": 72,
          "name": "C5",
          "ticks": 444450,
          "time": 1365.5194473833333,
          "velocity": 0.7874015748031497
        },
        {
          "duration": 0.08522725000011633,
          "durationTicks": 30,
          "midi": 71,
          "name": "B4",
          "ticks": 444510,
          "time": 1365.6899018833333,
          "velocity": 0.7874015748031497
        },
        {
          "duration": 0.08522724999988895,
          "durationTicks": 30,
          "midi": 72,
          "name": "C5",
          "ticks": 444540,
          "time": 1365.7751291333334,
          "velocity": 0.7874015748031497
        },
        {
          "duration": 0.08522725000011633,
          "durationTicks": 30,
          "midi": 71,
          "name": "B4",
          "ticks": 444570,
          "time": 1365.8603563833333,
          "velocity": 0.7874015748031497
        },
        {
          "duration": 0.08522724999988895,
          "durationTicks": 30,
          "midi": 72,
          "name": "C5",
          "ticks": 444600,
          "time": 1365.9455836333334,
          "velocity": 0.7874015748031497
        },
        {
          "duration": 0.08522725000011633,
          "durationTicks": 30,
          "midi": 71,
          "name": "B4",
          "ticks": 444630,
          "time": 1366.0308108833333,
          "velocity": 0.7874015748031497
        },
        {
          "duration": 0.08522724999988895,
          "durationTicks": 30,
          "midi": 72,
          "name": "C5",
          "ticks": 444660,
          "time": 1366.1160381333334,
          "velocity": 0.7874015748031497
        },
        {
          "duration": 0.08522725000011633,
          "durationTicks": 30,
          "midi": 71,
          "name": "B4",
          "ticks": 444690,
          "time": 1366.2012653833333,
          "velocity": 0.7874015748031497
        },
        {
          "duration": 0.08522725000011633,
          "durationTicks": 30,
          "midi": 70,
          "name": "A#4",
          "ticks": 444750,
          "time": 1366.3717198833333,
          "velocity": 0.7874015748031497
        },
        {
          "duration": 0.08522724999988895,
          "durationTicks": 30,
          "midi": 72,
          "name": "C5",
          "ticks": 444780,
          "time": 1366.4569471333334,
          "velocity": 0.7874015748031497
        },
        {
          "duration": 0.08522725000011633,
          "durationTicks": 30,
          "midi": 70,
          "name": "A#4",
          "ticks": 444810,
          "time": 1366.5421743833333,
          "velocity": 0.7874015748031497
        },
        {
          "duration": 0.08522724999988895,
          "durationTicks": 30,
          "midi": 72,
          "name": "C5",
          "ticks": 444840,
          "time": 1366.6274016333334,
          "velocity": 0.7874015748031497
        },
        {
          "duration": 0.08522725000011633,
          "durationTicks": 30,
          "midi": 70,
          "name": "A#4",
          "ticks": 444870,
          "time": 1366.7126288833333,
          "velocity": 0.7874015748031497
        },
        {
          "duration": 0.08522724999988895,
          "durationTicks": 30,
          "midi": 72,
          "name": "C5",
          "ticks": 444900,
          "time": 1366.7978561333334,
          "velocity": 0.7874015748031497
        },
        {
          "duration": 0.08522725000011633,
          "durationTicks": 30,
          "midi": 70,
          "name": "A#4",
          "ticks": 444930,
          "time": 1366.8830833833333,
          "velocity": 0.7874015748031497
        },
        {
          "duration": 0.2678570000000491,
          "durationTicks": 120,
          "midi": 43,
          "name": "G2",
          "ticks": 447120,
          "time": 1373.1046726333334,
          "velocity": 0.7874015748031497
        },
        {
          "duration": 0.2678570000000491,
          "durationTicks": 120,
          "midi": 55,
          "name": "G3",
          "ticks": 447120,
          "time": 1373.1046726333334,
          "velocity": 0.7874015748031497
        },
        {
          "duration": 0.13392849999991085,
          "durationTicks": 60,
          "midi": 31,
          "name": "G1",
          "ticks": 447240,
          "time": 1373.3725296333334,
          "velocity": 0.7874015748031497
        },
        {
          "duration": 0.13392849999991085,
          "durationTicks": 60,
          "midi": 43,
          "name": "G2",
          "ticks": 447240,
          "time": 1373.3725296333334,
          "velocity": 0.7874015748031497
        },
        {
          "duration": 0.13392850000013823,
          "durationTicks": 60,
          "midi": 59,
          "name": "B3",
          "ticks": 447300,
          "time": 1373.5064581333334,
          "velocity": 0.7874015748031497
        },
        {
          "duration": 0.13392849999991085,
          "durationTicks": 60,
          "midi": 57,
          "name": "A3",
          "ticks": 447360,
          "time": 1373.6403866333335,
          "velocity": 0.7874015748031497
        },
        {
          "duration": 0.13392849999991085,
          "durationTicks": 60,
          "midi": 59,
          "name": "B3",
          "ticks": 447420,
          "time": 1373.7743151333334,
          "velocity": 0.7874015748031497
        },
        {
          "duration": 0.13392850000013823,
          "durationTicks": 60,
          "midi": 57,
          "name": "A3",
          "ticks": 447480,
          "time": 1373.9082436333333,
          "velocity": 0.7874015748031497
        },
        {
          "duration": 0.13392849999991085,
          "durationTicks": 60,
          "midi": 59,
          "name": "B3",
          "ticks": 447540,
          "time": 1374.0421721333335,
          "velocity": 0.7874015748031497
        },
        {
          "duration": 0.13392850000013823,
          "durationTicks": 60,
          "midi": 57,
          "name": "A3",
          "ticks": 447600,
          "time": 1374.1761006333334,
          "velocity": 0.7874015748031497
        },
        {
          "duration": 0.13392849999991085,
          "durationTicks": 60,
          "midi": 59,
          "name": "B3",
          "ticks": 447660,
          "time": 1374.3100291333335,
          "velocity": 0.7874015748031497
        },
        {
          "duration": 0.13392849999991085,
          "durationTicks": 60,
          "midi": 57,
          "name": "A3",
          "ticks": 447720,
          "time": 1374.4439576333334,
          "velocity": 0.7874015748031497
        },
        {
          "duration": 0.13392850000013823,
          "durationTicks": 60,
          "midi": 59,
          "name": "B3",
          "ticks": 447780,
          "time": 1374.5778861333333,
          "velocity": 0.7874015748031497
        },
        {
          "duration": 0.2678569999998217,
          "durationTicks": 120,
          "midi": 42,
          "name": "F#2",
          "ticks": 447840,
          "time": 1374.7118146333335,
          "velocity": 0.7874015748031497
        },
        {
          "duration": 0.2678569999998217,
          "durationTicks": 120,
          "midi": 54,
          "name": "F#3",
          "ticks": 447840,
          "time": 1374.7118146333335,
          "velocity": 0.7874015748031497
        },
        {
          "duration": 0.13392850000013823,
          "durationTicks": 60,
          "midi": 30,
          "name": "F#1",
          "ticks": 447960,
          "time": 1374.9796716333333,
          "velocity": 0.7874015748031497
        },
        {
          "duration": 0.13392850000013823,
          "durationTicks": 60,
          "midi": 42,
          "name": "F#2",
          "ticks": 447960,
          "time": 1374.9796716333333,
          "velocity": 0.7874015748031497
        },
        {
          "duration": 0.2678570000000491,
          "durationTicks": 120,
          "midi": 40,
          "name": "E2",
          "ticks": 448560,
          "time": 1376.3189566333333,
          "velocity": 0.7874015748031497
        },
        {
          "duration": 0.2678570000000491,
          "durationTicks": 120,
          "midi": 52,
          "name": "E3",
          "ticks": 448560,
          "time": 1376.3189566333333,
          "velocity": 0.7874015748031497
        },
        {
          "duration": 0.13392850000013823,
          "durationTicks": 60,
          "midi": 28,
          "name": "E1",
          "ticks": 448680,
          "time": 1376.5868136333333,
          "velocity": 0.7874015748031497
        },
        {
          "duration": 0.13392850000013823,
          "durationTicks": 60,
          "midi": 40,
          "name": "E2",
          "ticks": 448680,
          "time": 1376.5868136333333,
          "velocity": 0.7874015748031497
        },
        {
          "duration": 0.13392849999991085,
          "durationTicks": 60,
          "midi": 71,
          "name": "B4",
          "ticks": 448740,
          "time": 1376.7207421333335,
          "velocity": 0.7874015748031497
        },
        {
          "duration": 0.13392849999991085,
          "durationTicks": 60,
          "midi": 69,
          "name": "A4",
          "ticks": 448800,
          "time": 1376.8546706333334,
          "velocity": 0.7874015748031497
        },
        {
          "duration": 0.13392850000013823,
          "durationTicks": 60,
          "midi": 71,
          "name": "B4",
          "ticks": 448860,
          "time": 1376.9885991333333,
          "velocity": 0.7874015748031497
        },
        {
          "duration": 0.13392849999991085,
          "durationTicks": 60,
          "midi": 67,
          "name": "G4",
          "ticks": 448920,
          "time": 1377.1225276333334,
          "velocity": 0.7874015748031497
        },
        {
          "duration": 0.13392850000013823,
          "durationTicks": 60,
          "midi": 71,
          "name": "B4",
          "ticks": 448980,
          "time": 1377.2564561333334,
          "velocity": 0.7874015748031497
        },
        {
          "duration": 0.13392849999991085,
          "durationTicks": 60,
          "midi": 69,
          "name": "A4",
          "ticks": 449040,
          "time": 1377.3903846333335,
          "velocity": 0.7874015748031497
        },
        {
          "duration": 0.13392849999991085,
          "durationTicks": 60,
          "midi": 71,
          "name": "B4",
          "ticks": 449100,
          "time": 1377.5243131333334,
          "velocity": 0.7874015748031497
        },
        {
          "duration": 0.13392850000013823,
          "durationTicks": 60,
          "midi": 67,
          "name": "G4",
          "ticks": 449160,
          "time": 1377.6582416333333,
          "velocity": 0.7874015748031497
        },
        {
          "duration": 0.13392849999991085,
          "durationTicks": 60,
          "midi": 64,
          "name": "E4",
          "ticks": 449220,
          "time": 1377.7921701333335,
          "velocity": 0.7874015748031497
        },
        {
          "duration": 0.08928566666668303,
          "durationTicks": 40,
          "midi": 62,
          "name": "D4",
          "ticks": 449360,
          "time": 1378.1046699666667,
          "velocity": 0.7874015748031497
        },
        {
          "duration": 0.17857133333336606,
          "durationTicks": 80,
          "midi": 57,
          "name": "A3",
          "ticks": 449400,
          "time": 1378.1939556333334,
          "velocity": 0.7874015748031497
        },
        {
          "duration": 0.08928566666668303,
          "durationTicks": 40,
          "midi": 54,
          "name": "F#3",
          "ticks": 449480,
          "time": 1378.3725269666668,
          "velocity": 0.7874015748031497
        },
        {
          "duration": 0.17857133333336606,
          "durationTicks": 80,
          "midi": 50,
          "name": "D3",
          "ticks": 449520,
          "time": 1378.4618126333335,
          "velocity": 0.7874015748031497
        },
        {
          "duration": 0.08928566666645565,
          "durationTicks": 40,
          "midi": 62,
          "name": "D4",
          "ticks": 449600,
          "time": 1378.6403839666668,
          "velocity": 0.7874015748031497
        },
        {
          "duration": 0.17857133333336606,
          "durationTicks": 80,
          "midi": 52,
          "name": "E3",
          "ticks": 449640,
          "time": 1378.7296696333333,
          "velocity": 0.7874015748031497
        },
        {
          "duration": 0.08928566666668303,
          "durationTicks": 40,
          "midi": 60,
          "name": "C4",
          "ticks": 449720,
          "time": 1378.9082409666667,
          "velocity": 0.7874015748031497
        },
        {
          "duration": 0.17857133333336606,
          "durationTicks": 80,
          "midi": 50,
          "name": "D3",
          "ticks": 449760,
          "time": 1378.9975266333333,
          "velocity": 0.7874015748031497
        },
        {
          "duration": 0.08928566666668303,
          "durationTicks": 40,
          "midi": 59,
          "name": "B3",
          "ticks": 449840,
          "time": 1379.1760979666667,
          "velocity": 0.7874015748031497
        },
        {
          "duration": 0.17857133333336606,
          "durationTicks": 80,
          "midi": 48,
          "name": "C3",
          "ticks": 449880,
          "time": 1379.2653836333334,
          "velocity": 0.7874015748031497
        },
        {
          "duration": 0.08928566666668303,
          "durationTicks": 40,
          "midi": 57,
          "name": "A3",
          "ticks": 449960,
          "time": 1379.4439549666668,
          "velocity": 0.7874015748031497
        },
        {
          "duration": 0.2678570000000491,
          "durationTicks": 120,
          "midi": 35,
          "name": "B1",
          "ticks": 450000,
          "time": 1379.5332406333334,
          "velocity": 0.7874015748031497
        },
        {
          "duration": 0.2678570000000491,
          "durationTicks": 120,
          "midi": 47,
          "name": "B2",
          "ticks": 450000,
          "time": 1379.5332406333334,
          "velocity": 0.7874015748031497
        },
        {
          "duration": 0.13392849999991085,
          "durationTicks": 60,
          "midi": 47,
          "name": "B2",
          "ticks": 450120,
          "time": 1379.8010976333335,
          "velocity": 0.7874015748031497
        },
        {
          "duration": 0.13392849999991085,
          "durationTicks": 60,
          "midi": 59,
          "name": "B3",
          "ticks": 450120,
          "time": 1379.8010976333335,
          "velocity": 0.7874015748031497
        },
        {
          "duration": 0.2678570000000491,
          "durationTicks": 120,
          "midi": 69,
          "name": "A4",
          "ticks": 450240,
          "time": 1380.0689546333333,
          "velocity": 0.7874015748031497
        },
        {
          "duration": 0.2678570000000491,
          "durationTicks": 120,
          "midi": 72,
          "name": "C5",
          "ticks": 450240,
          "time": 1380.0689546333333,
          "velocity": 0.7874015748031497
        },
        {
          "duration": 0.2678570000000491,
          "durationTicks": 120,
          "midi": 78,
          "name": "F#5",
          "ticks": 450240,
          "time": 1380.0689546333333,
          "velocity": 0.7874015748031497
        },
        {
          "duration": 0.2678570000000491,
          "durationTicks": 120,
          "midi": 69,
          "name": "A4",
          "ticks": 450360,
          "time": 1380.3368116333334,
          "velocity": 0.7874015748031497
        },
        {
          "duration": 0.2678570000000491,
          "durationTicks": 120,
          "midi": 72,
          "name": "C5",
          "ticks": 450360,
          "time": 1380.3368116333334,
          "velocity": 0.7874015748031497
        },
        {
          "duration": 0.2678570000000491,
          "durationTicks": 120,
          "midi": 78,
          "name": "F#5",
          "ticks": 450360,
          "time": 1380.3368116333334,
          "velocity": 0.7874015748031497
        },
        {
          "duration": 0.2678570000000491,
          "durationTicks": 120,
          "midi": 69,
          "name": "A4",
          "ticks": 450480,
          "time": 1380.6046686333334,
          "velocity": 0.7874015748031497
        },
        {
          "duration": 0.2678570000000491,
          "durationTicks": 120,
          "midi": 72,
          "name": "C5",
          "ticks": 450480,
          "time": 1380.6046686333334,
          "velocity": 0.7874015748031497
        },
        {
          "duration": 0.2678570000000491,
          "durationTicks": 120,
          "midi": 78,
          "name": "F#5",
          "ticks": 450480,
          "time": 1380.6046686333334,
          "velocity": 0.7874015748031497
        },
        {
          "duration": 0.2678570000000491,
          "durationTicks": 120,
          "midi": 67,
          "name": "G4",
          "ticks": 450600,
          "time": 1380.8725256333335,
          "velocity": 0.7874015748031497
        },
        {
          "duration": 0.2678570000000491,
          "durationTicks": 120,
          "midi": 71,
          "name": "B4",
          "ticks": 450600,
          "time": 1380.8725256333335,
          "velocity": 0.7874015748031497
        },
        {
          "duration": 0.2678570000000491,
          "durationTicks": 120,
          "midi": 74,
          "name": "D5",
          "ticks": 450600,
          "time": 1380.8725256333335,
          "velocity": 0.7874015748031497
        },
        {
          "duration": 0.2678569999998217,
          "durationTicks": 120,
          "midi": 36,
          "name": "C2",
          "ticks": 450720,
          "time": 1381.1403826333335,
          "velocity": 0.7874015748031497
        },
        {
          "duration": 0.2678569999998217,
          "durationTicks": 120,
          "midi": 48,
          "name": "C3",
          "ticks": 450720,
          "time": 1381.1403826333335,
          "velocity": 0.7874015748031497
        },
        {
          "duration": 0.2678570000000491,
          "durationTicks": 120,
          "midi": 48,
          "name": "C3",
          "ticks": 450840,
          "time": 1381.4082396333333,
          "velocity": 0.7874015748031497
        },
        {
          "duration": 0.2678570000000491,
          "durationTicks": 120,
          "midi": 60,
          "name": "C4",
          "ticks": 450840,
          "time": 1381.4082396333333,
          "velocity": 0.7874015748031497
        },
        {
          "duration": 0.2678570000000491,
          "durationTicks": 120,
          "midi": 38,
          "name": "D2",
          "ticks": 451440,
          "time": 1382.7475246333333,
          "velocity": 0.7874015748031497
        },
        {
          "duration": 0.2678570000000491,
          "durationTicks": 120,
          "midi": 50,
          "name": "D3",
          "ticks": 451440,
          "time": 1382.7475246333333,
          "velocity": 0.7874015748031497
        },
        {
          "duration": 0.2678570000000491,
          "durationTicks": 120,
          "midi": 50,
          "name": "D3",
          "ticks": 451560,
          "time": 1383.0153816333334,
          "velocity": 0.7874015748031497
        },
        {
          "duration": 0.2678570000000491,
          "durationTicks": 120,
          "midi": 62,
          "name": "D4",
          "ticks": 451560,
          "time": 1383.0153816333334,
          "velocity": 0.7874015748031497
        },
        {
          "duration": 0.08928566666668303,
          "durationTicks": 40,
          "midi": 43,
          "name": "G2",
          "ticks": 452240,
          "time": 1384.5332379666668,
          "velocity": 0.7874015748031497
        },
        {
          "duration": 0.17857133333336606,
          "durationTicks": 80,
          "midi": 38,
          "name": "D2",
          "ticks": 452280,
          "time": 1384.6225236333335,
          "velocity": 0.7874015748031497
        },
        {
          "duration": 0.08928566666645565,
          "durationTicks": 40,
          "midi": 35,
          "name": "B1",
          "ticks": 452360,
          "time": 1384.8010949666668,
          "velocity": 0.7874015748031497
        },
        {
          "duration": 0.17857133333336606,
          "durationTicks": 80,
          "midi": 31,
          "name": "G1",
          "ticks": 452400,
          "time": 1384.8903806333333,
          "velocity": 0.7874015748031497
        },
        {
          "duration": 0.08928566666668303,
          "durationTicks": 40,
          "midi": 43,
          "name": "G2",
          "ticks": 452480,
          "time": 1385.0689519666666,
          "velocity": 0.7874015748031497
        },
        {
          "duration": 0.17857133333336606,
          "durationTicks": 80,
          "midi": 42,
          "name": "F#2",
          "ticks": 452520,
          "time": 1385.1582376333333,
          "velocity": 0.7874015748031497
        },
        {
          "duration": 0.08928566666668303,
          "durationTicks": 40,
          "midi": 50,
          "name": "D3",
          "ticks": 452600,
          "time": 1385.3368089666667,
          "velocity": 0.7874015748031497
        },
        {
          "duration": 0.17857133333336606,
          "durationTicks": 80,
          "midi": 43,
          "name": "G2",
          "ticks": 452640,
          "time": 1385.4260946333334,
          "velocity": 0.7874015748031497
        },
        {
          "duration": 0.08928566666668303,
          "durationTicks": 40,
          "midi": 52,
          "name": "E3",
          "ticks": 452720,
          "time": 1385.6046659666667,
          "velocity": 0.7874015748031497
        },
        {
          "duration": 0.17857133333336606,
          "durationTicks": 80,
          "midi": 45,
          "name": "A2",
          "ticks": 452760,
          "time": 1385.6939516333334,
          "velocity": 0.7874015748031497
        },
        {
          "duration": 0.08928566666668303,
          "durationTicks": 40,
          "midi": 54,
          "name": "F#3",
          "ticks": 452840,
          "time": 1385.8725229666668,
          "velocity": 0.7874015748031497
        },
        {
          "duration": 0.08928566666668303,
          "durationTicks": 40,
          "midi": 59,
          "name": "B3",
          "ticks": 452880,
          "time": 1385.9618086333335,
          "velocity": 0.7874015748031497
        },
        {
          "duration": 0.35714266666650474,
          "durationTicks": 160,
          "midi": 62,
          "name": "D4",
          "ticks": 452920,
          "time": 1386.0510943000002,
          "velocity": 0.7874015748031497
        },
        {
          "duration": 0.08928566666668303,
          "durationTicks": 40,
          "midi": 57,
          "name": "A3",
          "ticks": 453080,
          "time": 1386.4082369666667,
          "velocity": 0.7874015748031497
        },
        {
          "duration": 0.08928566666668303,
          "durationTicks": 40,
          "midi": 59,
          "name": "B3",
          "ticks": 453120,
          "time": 1386.4975226333333,
          "velocity": 0.7874015748031497
        },
        {
          "duration": 0.3571426666667321,
          "durationTicks": 160,
          "midi": 62,
          "name": "D4",
          "ticks": 453160,
          "time": 1386.5868083,
          "velocity": 0.7874015748031497
        },
        {
          "duration": 0.08928566666668303,
          "durationTicks": 40,
          "midi": 60,
          "name": "C4",
          "ticks": 453320,
          "time": 1386.9439509666668,
          "velocity": 0.7874015748031497
        },
        {
          "duration": 0.08928566666668303,
          "durationTicks": 40,
          "midi": 62,
          "name": "D4",
          "ticks": 453360,
          "time": 1387.0332366333334,
          "velocity": 0.7874015748031497
        },
        {
          "duration": 0.35714266666650474,
          "durationTicks": 160,
          "midi": 67,
          "name": "G4",
          "ticks": 453400,
          "time": 1387.1225223000001,
          "velocity": 0.7874015748031497
        },
        {
          "duration": 0.08928566666668303,
          "durationTicks": 40,
          "midi": 64,
          "name": "E4",
          "ticks": 453560,
          "time": 1387.4796649666666,
          "velocity": 0.7874015748031497
        },
        {
          "duration": 0.08928566666668303,
          "durationTicks": 40,
          "midi": 66,
          "name": "F#4",
          "ticks": 453600,
          "time": 1387.5689506333333,
          "velocity": 0.7874015748031497
        },
        {
          "duration": 0.3571426666667321,
          "durationTicks": 160,
          "midi": 69,
          "name": "A4",
          "ticks": 453640,
          "time": 1387.6582363,
          "velocity": 0.7874015748031497
        },
        {
          "duration": 0.08928566666668303,
          "durationTicks": 40,
          "midi": 64,
          "name": "E4",
          "ticks": 453800,
          "time": 1388.0153789666667,
          "velocity": 0.7874015748031497
        },
        {
          "duration": 0.08928566666668303,
          "durationTicks": 40,
          "midi": 66,
          "name": "F#4",
          "ticks": 453840,
          "time": 1388.1046646333334,
          "velocity": 0.7874015748031497
        },
        {
          "duration": 0.3571426666667321,
          "durationTicks": 160,
          "midi": 69,
          "name": "A4",
          "ticks": 453880,
          "time": 1388.1939503,
          "velocity": 0.7874015748031497
        },
        {
          "duration": 0.08928566666645565,
          "durationTicks": 40,
          "midi": 67,
          "name": "G4",
          "ticks": 454040,
          "time": 1388.5510929666668,
          "velocity": 0.7874015748031497
        },
        {
          "duration": 0.08928566666668303,
          "durationTicks": 40,
          "midi": 69,
          "name": "A4",
          "ticks": 454080,
          "time": 1388.6403786333333,
          "velocity": 0.7874015748031497
        },
        {
          "duration": 0.3571426666667321,
          "durationTicks": 160,
          "midi": 74,
          "name": "D5",
          "ticks": 454120,
          "time": 1388.7296643,
          "velocity": 0.7874015748031497
        },
        {
          "duration": 0.08928566666668303,
          "durationTicks": 40,
          "midi": 69,
          "name": "A4",
          "ticks": 454280,
          "time": 1389.0868069666667,
          "velocity": 0.7874015748031497
        },
        {
          "duration": 0.08928566666668303,
          "durationTicks": 40,
          "midi": 67,
          "name": "G4",
          "ticks": 454320,
          "time": 1389.1760926333334,
          "velocity": 0.7874015748031497
        },
        {
          "duration": 0.3571426666667321,
          "durationTicks": 160,
          "midi": 71,
          "name": "B4",
          "ticks": 454360,
          "time": 1389.2653783,
          "velocity": 0.7874015748031497
        },
        {
          "duration": 0.08928566666668303,
          "durationTicks": 40,
          "midi": 66,
          "name": "F#4",
          "ticks": 454520,
          "time": 1389.6225209666668,
          "velocity": 0.7874015748031497
        },
        {
          "duration": 0.08928566666668303,
          "durationTicks": 40,
          "midi": 64,
          "name": "E4",
          "ticks": 454560,
          "time": 1389.7118066333335,
          "velocity": 0.7874015748031497
        },
        {
          "duration": 0.35714266666650474,
          "durationTicks": 160,
          "midi": 67,
          "name": "G4",
          "ticks": 454600,
          "time": 1389.8010923000002,
          "velocity": 0.7874015748031497
        },
        {
          "duration": 0.08928566666668303,
          "durationTicks": 40,
          "midi": 62,
          "name": "D4",
          "ticks": 454760,
          "time": 1390.1582349666667,
          "velocity": 0.7874015748031497
        },
        {
          "duration": 0.08928566666668303,
          "durationTicks": 40,
          "midi": 61,
          "name": "C#4",
          "ticks": 454800,
          "time": 1390.2475206333334,
          "velocity": 0.7874015748031497
        },
        {
          "duration": 0.3571426666667321,
          "durationTicks": 160,
          "midi": 64,
          "name": "E4",
          "ticks": 454840,
          "time": 1390.3368063,
          "velocity": 0.7874015748031497
        },
        {
          "duration": 0.08928566666668303,
          "durationTicks": 40,
          "midi": 59,
          "name": "B3",
          "ticks": 455000,
          "time": 1390.6939489666668,
          "velocity": 0.7874015748031497
        },
        {
          "duration": 0.08928566666668303,
          "durationTicks": 40,
          "midi": 57,
          "name": "A3",
          "ticks": 455040,
          "time": 1390.7832346333334,
          "velocity": 0.7874015748031497
        },
        {
          "duration": 0.35714266666650474,
          "durationTicks": 160,
          "midi": 61,
          "name": "C#4",
          "ticks": 455080,
          "time": 1390.8725203000001,
          "velocity": 0.7874015748031497
        },
        {
          "duration": 0.08928566666668303,
          "durationTicks": 40,
          "midi": 59,
          "name": "B3",
          "ticks": 455240,
          "time": 1391.2296629666666,
          "velocity": 0.7874015748031497
        },
        {
          "duration": 0.08928566666668303,
          "durationTicks": 40,
          "midi": 57,
          "name": "A3",
          "ticks": 455280,
          "time": 1391.3189486333333,
          "velocity": 0.7874015748031497
        },
        {
          "duration": 0.3571426666667321,
          "durationTicks": 160,
          "midi": 61,
          "name": "C#4",
          "ticks": 455320,
          "time": 1391.4082343,
          "velocity": 0.7874015748031497
        },
        {
          "duration": 0.08928566666668303,
          "durationTicks": 40,
          "midi": 55,
          "name": "G3",
          "ticks": 455480,
          "time": 1391.7653769666667,
          "velocity": 0.7874015748031497
        },
        {
          "duration": 0.08928566666668303,
          "durationTicks": 40,
          "midi": 54,
          "name": "F#3",
          "ticks": 455520,
          "time": 1391.8546626333334,
          "velocity": 0.7874015748031497
        },
        {
          "duration": 0.3571426666667321,
          "durationTicks": 160,
          "midi": 57,
          "name": "A3",
          "ticks": 455560,
          "time": 1391.9439483,
          "velocity": 0.7874015748031497
        },
        {
          "duration": 0.08928566666645565,
          "durationTicks": 40,
          "midi": 52,
          "name": "E3",
          "ticks": 455720,
          "time": 1392.3010909666668,
          "velocity": 0.7874015748031497
        },
        {
          "duration": 0.08928566666668303,
          "durationTicks": 40,
          "midi": 50,
          "name": "D3",
          "ticks": 455760,
          "time": 1392.3903766333333,
          "velocity": 0.7874015748031497
        },
        {
          "duration": 0.3571426666667321,
          "durationTicks": 160,
          "midi": 54,
          "name": "F#3",
          "ticks": 455800,
          "time": 1392.4796623,
          "velocity": 0.7874015748031497
        },
        {
          "duration": 0.08928566666668303,
          "durationTicks": 40,
          "midi": 52,
          "name": "E3",
          "ticks": 455960,
          "time": 1392.8368049666667,
          "velocity": 0.7874015748031497
        },
        {
          "duration": 0.08928566666668303,
          "durationTicks": 40,
          "midi": 50,
          "name": "D3",
          "ticks": 456000,
          "time": 1392.9260906333334,
          "velocity": 0.7874015748031497
        },
        {
          "duration": 0.3571426666667321,
          "durationTicks": 160,
          "midi": 54,
          "name": "F#3",
          "ticks": 456040,
          "time": 1393.0153763,
          "velocity": 0.7874015748031497
        },
        {
          "duration": 0.08928566666668303,
          "durationTicks": 40,
          "midi": 48,
          "name": "C3",
          "ticks": 456200,
          "time": 1393.3725189666668,
          "velocity": 0.7874015748031497
        },
        {
          "duration": 0.08928566666668303,
          "durationTicks": 40,
          "midi": 47,
          "name": "B2",
          "ticks": 456240,
          "time": 1393.4618046333335,
          "velocity": 0.7874015748031497
        },
        {
          "duration": 0.35714266666650474,
          "durationTicks": 160,
          "midi": 50,
          "name": "D3",
          "ticks": 456280,
          "time": 1393.5510903000002,
          "velocity": 0.7874015748031497
        },
        {
          "duration": 0.08928566666668303,
          "durationTicks": 40,
          "midi": 45,
          "name": "A2",
          "ticks": 456440,
          "time": 1393.9082329666667,
          "velocity": 0.7874015748031497
        },
        {
          "duration": 0.08928566666668303,
          "durationTicks": 40,
          "midi": 43,
          "name": "G2",
          "ticks": 456480,
          "time": 1393.9975186333334,
          "velocity": 0.7874015748031497
        },
        {
          "duration": 0.3571426666667321,
          "durationTicks": 160,
          "midi": 47,
          "name": "B2",
          "ticks": 456520,
          "time": 1394.0868043,
          "velocity": 0.7874015748031497
        },
        {
          "duration": 0.08928566666668303,
          "durationTicks": 40,
          "midi": 45,
          "name": "A2",
          "ticks": 456680,
          "time": 1394.4439469666668,
          "velocity": 0.7874015748031497
        },
        {
          "duration": 0.08928566666668303,
          "durationTicks": 40,
          "midi": 43,
          "name": "G2",
          "ticks": 456720,
          "time": 1394.5332326333335,
          "velocity": 0.7874015748031497
        },
        {
          "duration": 0.35714266666650474,
          "durationTicks": 160,
          "midi": 47,
          "name": "B2",
          "ticks": 456760,
          "time": 1394.6225183000001,
          "velocity": 0.7874015748031497
        },
        {
          "duration": 0.08928566666668303,
          "durationTicks": 40,
          "midi": 42,
          "name": "F#2",
          "ticks": 456920,
          "time": 1394.9796609666666,
          "velocity": 0.7874015748031497
        },
        {
          "duration": 0.08928566666668303,
          "durationTicks": 40,
          "midi": 40,
          "name": "E2",
          "ticks": 456960,
          "time": 1395.0689466333333,
          "velocity": 0.7874015748031497
        },
        {
          "duration": 0.3571426666667321,
          "durationTicks": 160,
          "midi": 43,
          "name": "G2",
          "ticks": 457000,
          "time": 1395.1582323,
          "velocity": 0.7874015748031497
        },
        {
          "duration": 0.08928566666668303,
          "durationTicks": 40,
          "midi": 38,
          "name": "D2",
          "ticks": 457160,
          "time": 1395.5153749666667,
          "velocity": 0.7874015748031497
        },
        {
          "duration": 0.2678570000000491,
          "durationTicks": 120,
          "midi": 37,
          "name": "C#2",
          "ticks": 457200,
          "time": 1395.6046606333334,
          "velocity": 0.7874015748031497
        },
        {
          "duration": 0.2678569999998217,
          "durationTicks": 120,
          "midi": 49,
          "name": "C#3",
          "ticks": 457320,
          "time": 1395.8725176333335,
          "velocity": 0.7874015748031497
        },
        {
          "duration": 0.2678570000000491,
          "durationTicks": 120,
          "midi": 38,
          "name": "D2",
          "ticks": 457440,
          "time": 1396.1403746333333,
          "velocity": 0.7874015748031497
        },
        {
          "duration": 0.2678570000000491,
          "durationTicks": 120,
          "midi": 50,
          "name": "D3",
          "ticks": 457440,
          "time": 1396.1403746333333,
          "velocity": 0.7874015748031497
        },
        {
          "duration": 0.2678570000000491,
          "durationTicks": 120,
          "midi": 30,
          "name": "F#1",
          "ticks": 457560,
          "time": 1396.4082316333333,
          "velocity": 0.7874015748031497
        },
        {
          "duration": 0.2678570000000491,
          "durationTicks": 120,
          "midi": 42,
          "name": "F#2",
          "ticks": 457560,
          "time": 1396.4082316333333,
          "velocity": 0.7874015748031497
        },
        {
          "duration": 0.2678570000000491,
          "durationTicks": 120,
          "midi": 31,
          "name": "G1",
          "ticks": 457680,
          "time": 1396.6760886333334,
          "velocity": 0.7874015748031497
        },
        {
          "duration": 0.2678570000000491,
          "durationTicks": 120,
          "midi": 43,
          "name": "G2",
          "ticks": 457680,
          "time": 1396.6760886333334,
          "velocity": 0.7874015748031497
        },
        {
          "duration": 0.2678570000000491,
          "durationTicks": 120,
          "midi": 33,
          "name": "A1",
          "ticks": 457800,
          "time": 1396.9439456333334,
          "velocity": 0.7874015748031497
        },
        {
          "duration": 0.2678570000000491,
          "durationTicks": 120,
          "midi": 45,
          "name": "A2",
          "ticks": 457800,
          "time": 1396.9439456333334,
          "velocity": 0.7874015748031497
        },
        {
          "duration": 0.08928566666668303,
          "durationTicks": 40,
          "midi": 26,
          "name": "D1",
          "ticks": 457920,
          "time": 1397.2118026333335,
          "velocity": 0.7874015748031497
        },
        {
          "duration": 0.08928566666645565,
          "durationTicks": 40,
          "midi": 38,
          "name": "D2",
          "ticks": 457960,
          "time": 1397.3010883000002,
          "velocity": 0.7874015748031497
        },
        {
          "duration": 0.08928566666668303,
          "durationTicks": 40,
          "midi": 52,
          "name": "E3",
          "ticks": 458120,
          "time": 1397.6582309666667,
          "velocity": 0.7874015748031497
        },
        {
          "duration": 0.08928566666668303,
          "durationTicks": 40,
          "midi": 50,
          "name": "D3",
          "ticks": 458160,
          "time": 1397.7475166333334,
          "velocity": 0.7874015748031497
        },
        {
          "duration": 0.3571426666667321,
          "durationTicks": 160,
          "midi": 54,
          "name": "F#3",
          "ticks": 458200,
          "time": 1397.8368023,
          "velocity": 0.7874015748031497
        },
        {
          "duration": 0.08928566666668303,
          "durationTicks": 40,
          "midi": 48,
          "name": "C3",
          "ticks": 458360,
          "time": 1398.1939449666668,
          "velocity": 0.7874015748031497
        },
        {
          "duration": 0.08928566666668303,
          "durationTicks": 40,
          "midi": 47,
          "name": "B2",
          "ticks": 458400,
          "time": 1398.2832306333335,
          "velocity": 0.7874015748031497
        },
        {
          "duration": 0.35714266666650474,
          "durationTicks": 160,
          "midi": 50,
          "name": "D3",
          "ticks": 458440,
          "time": 1398.3725163000001,
          "velocity": 0.7874015748031497
        },
        {
          "duration": 0.08928566666668303,
          "durationTicks": 40,
          "midi": 45,
          "name": "A2",
          "ticks": 458600,
          "time": 1398.7296589666666,
          "velocity": 0.7874015748031497
        },
        {
          "duration": 0.08928566666668303,
          "durationTicks": 40,
          "midi": 43,
          "name": "G2",
          "ticks": 458640,
          "time": 1398.8189446333333,
          "velocity": 0.7874015748031497
        },
        {
          "duration": 0.3571426666667321,
          "durationTicks": 160,
          "midi": 47,
          "name": "B2",
          "ticks": 458680,
          "time": 1398.9082303,
          "velocity": 0.7874015748031497
        },
        {
          "duration": 0.08928566666668303,
          "durationTicks": 40,
          "midi": 45,
          "name": "A2",
          "ticks": 458840,
          "time": 1399.2653729666667,
          "velocity": 0.7874015748031497
        },
        {
          "duration": 0.08928566666668303,
          "durationTicks": 40,
          "midi": 43,
          "name": "G2",
          "ticks": 458880,
          "time": 1399.3546586333334,
          "velocity": 0.7874015748031497
        },
        {
          "duration": 0.3571426666667321,
          "durationTicks": 160,
          "midi": 47,
          "name": "B2",
          "ticks": 458920,
          "time": 1399.4439443,
          "velocity": 0.7874015748031497
        },
        {
          "duration": 0.08928566666645565,
          "durationTicks": 40,
          "midi": 42,
          "name": "F#2",
          "ticks": 459080,
          "time": 1399.8010869666668,
          "velocity": 0.7874015748031497
        },
        {
          "duration": 0.08928566666668303,
          "durationTicks": 40,
          "midi": 40,
          "name": "E2",
          "ticks": 459120,
          "time": 1399.8903726333333,
          "velocity": 0.7874015748031497
        },
        {
          "duration": 0.3571426666667321,
          "durationTicks": 160,
          "midi": 43,
          "name": "G2",
          "ticks": 459160,
          "time": 1399.9796583,
          "velocity": 0.7874015748031497
        },
        {
          "duration": 0.08928566666668303,
          "durationTicks": 40,
          "midi": 26,
          "name": "D1",
          "ticks": 459360,
          "time": 1400.4260866333334,
          "velocity": 0.7874015748031497
        },
        {
          "duration": 0.08928566666668303,
          "durationTicks": 40,
          "midi": 38,
          "name": "D2",
          "ticks": 459400,
          "time": 1400.5153723,
          "velocity": 0.7874015748031497
        },
        {
          "duration": 0.08928566666668303,
          "durationTicks": 40,
          "midi": 59,
          "name": "B3",
          "ticks": 459560,
          "time": 1400.8725149666668,
          "velocity": 0.7874015748031497
        },
        {
          "duration": 0.08928566666645565,
          "durationTicks": 40,
          "midi": 57,
          "name": "A3",
          "ticks": 459600,
          "time": 1400.9618006333335,
          "velocity": 0.7874015748031497
        },
        {
          "duration": 0.3571426666667321,
          "durationTicks": 160,
          "midi": 60,
          "name": "C4",
          "ticks": 459640,
          "time": 1401.0510863,
          "velocity": 0.7874015748031497
        },
        {
          "duration": 0.08928566666668303,
          "durationTicks": 40,
          "midi": 55,
          "name": "G3",
          "ticks": 459800,
          "time": 1401.4082289666667,
          "velocity": 0.7874015748031497
        },
        {
          "duration": 0.08928566666668303,
          "durationTicks": 40,
          "midi": 54,
          "name": "F#3",
          "ticks": 459840,
          "time": 1401.4975146333334,
          "velocity": 0.7874015748031497
        },
        {
          "duration": 0.3571426666667321,
          "durationTicks": 160,
          "midi": 57,
          "name": "A3",
          "ticks": 459880,
          "time": 1401.5868003,
          "velocity": 0.7874015748031497
        },
        {
          "duration": 0.08928566666668303,
          "durationTicks": 40,
          "midi": 52,
          "name": "E3",
          "ticks": 460040,
          "time": 1401.9439429666668,
          "velocity": 0.7874015748031497
        },
        {
          "duration": 0.08928566666668303,
          "durationTicks": 40,
          "midi": 50,
          "name": "D3",
          "ticks": 460080,
          "time": 1402.0332286333335,
          "velocity": 0.7874015748031497
        },
        {
          "duration": 0.08928566666668303,
          "durationTicks": 40,
          "midi": 62,
          "name": "D4",
          "ticks": 460120,
          "time": 1402.1225143000001,
          "velocity": 0.7874015748031497
        },
        {
          "duration": 0.08928566666668303,
          "durationTicks": 40,
          "midi": 64,
          "name": "E4",
          "ticks": 460280,
          "time": 1402.4796569666667,
          "velocity": 0.7874015748031497
        },
        {
          "duration": 0.08928566666668303,
          "durationTicks": 40,
          "midi": 62,
          "name": "D4",
          "ticks": 460320,
          "time": 1402.5689426333333,
          "velocity": 0.7874015748031497
        },
        {
          "duration": 0.08928566666668303,
          "durationTicks": 40,
          "midi": 66,
          "name": "F#4",
          "ticks": 460360,
          "time": 1402.6582283,
          "velocity": 0.7874015748031497
        },
        {
          "duration": 0.08928566666668303,
          "durationTicks": 40,
          "midi": 60,
          "name": "C4",
          "ticks": 460520,
          "time": 1403.0153709666668,
          "velocity": 0.7874015748031497
        },
        {
          "duration": 0.08928566666668303,
          "durationTicks": 40,
          "midi": 59,
          "name": "B3",
          "ticks": 460560,
          "time": 1403.1046566333334,
          "velocity": 0.7874015748031497
        },
        {
          "duration": 0.08928566666668303,
          "durationTicks": 40,
          "midi": 62,
          "name": "D4",
          "ticks": 460600,
          "time": 1403.1939423000001,
          "velocity": 0.7874015748031497
        },
        {
          "duration": 0.08928566666668303,
          "durationTicks": 40,
          "midi": 57,
          "name": "A3",
          "ticks": 460760,
          "time": 1403.5510849666666,
          "velocity": 0.7874015748031497
        },
        {
          "duration": 0.08928566666668303,
          "durationTicks": 40,
          "midi": 50,
          "name": "D3",
          "ticks": 460800,
          "time": 1403.6403706333333,
          "velocity": 0.7874015748031497
        },
        {
          "duration": 0.08928566666668303,
          "durationTicks": 40,
          "midi": 55,
          "name": "G3",
          "ticks": 460800,
          "time": 1403.6403706333333,
          "velocity": 0.7874015748031497
        },
        {
          "duration": 0.08928566666668303,
          "durationTicks": 40,
          "midi": 59,
          "name": "B3",
          "ticks": 460840,
          "time": 1403.7296563,
          "velocity": 0.7874015748031497
        },
        {
          "duration": 0.08928566666668303,
          "durationTicks": 40,
          "midi": 69,
          "name": "A4",
          "ticks": 461000,
          "time": 1404.0867989666667,
          "velocity": 0.7874015748031497
        },
        {
          "duration": 0.08928566666668303,
          "durationTicks": 40,
          "midi": 67,
          "name": "G4",
          "ticks": 461040,
          "time": 1404.1760846333334,
          "velocity": 0.7874015748031497
        },
        {
          "duration": 0.08928566666668303,
          "durationTicks": 40,
          "midi": 71,
          "name": "B4",
          "ticks": 461080,
          "time": 1404.2653703,
          "velocity": 0.7874015748031497
        },
        {
          "duration": 0.08928566666668303,
          "durationTicks": 40,
          "midi": 66,
          "name": "F#4",
          "ticks": 461240,
          "time": 1404.6225129666668,
          "velocity": 0.7874015748031497
        },
        {
          "duration": 0.08928566666645565,
          "durationTicks": 40,
          "midi": 64,
          "name": "E4",
          "ticks": 461280,
          "time": 1404.7117986333335,
          "velocity": 0.7874015748031497
        },
        {
          "duration": 0.08928566666668303,
          "durationTicks": 40,
          "midi": 67,
          "name": "G4",
          "ticks": 461320,
          "time": 1404.8010843,
          "velocity": 0.7874015748031497
        },
        {
          "duration": 0.2678570000000491,
          "durationTicks": 120,
          "midi": 48,
          "name": "C3",
          "ticks": 461520,
          "time": 1405.2475126333334,
          "velocity": 0.7874015748031497
        },
        {
          "duration": 0.2678570000000491,
          "durationTicks": 120,
          "midi": 60,
          "name": "C4",
          "ticks": 461520,
          "time": 1405.2475126333334,
          "velocity": 0.7874015748031497
        },
        {
          "duration": 0.2678570000000491,
          "durationTicks": 120,
          "midi": 59,
          "name": "B3",
          "ticks": 461640,
          "time": 1405.5153696333334,
          "velocity": 0.7874015748031497
        },
        {
          "duration": 0.2678569999998217,
          "durationTicks": 120,
          "midi": 57,
          "name": "A3",
          "ticks": 461760,
          "time": 1405.7832266333335,
          "velocity": 0.7874015748031497
        },
        {
          "duration": 0.2678570000000491,
          "durationTicks": 120,
          "midi": 56,
          "name": "G#3",
          "ticks": 461880,
          "time": 1406.0510836333333,
          "velocity": 0.7874015748031497
        },
        {
          "duration": 0.2678570000000491,
          "durationTicks": 120,
          "midi": 57,
          "name": "A3",
          "ticks": 462000,
          "time": 1406.3189406333333,
          "velocity": 0.7874015748031497
        },
        {
          "duration": 0.2678570000000491,
          "durationTicks": 120,
          "midi": 48,
          "name": "C3",
          "ticks": 462120,
          "time": 1406.5867976333334,
          "velocity": 0.7874015748031497
        },
        {
          "duration": 0.2678570000000491,
          "durationTicks": 120,
          "midi": 50,
          "name": "D3",
          "ticks": 462240,
          "time": 1406.8546546333334,
          "velocity": 0.7874015748031497
        },
        {
          "duration": 0.2678570000000491,
          "durationTicks": 120,
          "midi": 59,
          "name": "B3",
          "ticks": 462240,
          "time": 1406.8546546333334,
          "velocity": 0.7874015748031497
        },
        {
          "duration": 0.2678569999998217,
          "durationTicks": 120,
          "midi": 69,
          "name": "A4",
          "ticks": 462360,
          "time": 1407.1225116333335,
          "velocity": 0.7874015748031497
        },
        {
          "duration": 0.2678570000000491,
          "durationTicks": 120,
          "midi": 67,
          "name": "G4",
          "ticks": 462480,
          "time": 1407.3903686333333,
          "velocity": 0.7874015748031497
        },
        {
          "duration": 0.2678570000000491,
          "durationTicks": 120,
          "midi": 66,
          "name": "F#4",
          "ticks": 462600,
          "time": 1407.6582256333334,
          "velocity": 0.7874015748031497
        },
        {
          "duration": 0.2678570000000491,
          "durationTicks": 120,
          "midi": 67,
          "name": "G4",
          "ticks": 462720,
          "time": 1407.9260826333334,
          "velocity": 0.7874015748031497
        },
        {
          "duration": 0.2678570000000491,
          "durationTicks": 120,
          "midi": 59,
          "name": "B3",
          "ticks": 462840,
          "time": 1408.1939396333335,
          "velocity": 0.7874015748031497
        },
        {
          "duration": 0.2678569999998217,
          "durationTicks": 120,
          "midi": 38,
          "name": "D2",
          "ticks": 462960,
          "time": 1408.4617966333335,
          "velocity": 0.7874015748031497
        },
        {
          "duration": 0.2678570000000491,
          "durationTicks": 120,
          "midi": 50,
          "name": "D3",
          "ticks": 463080,
          "time": 1408.7296536333333,
          "velocity": 0.7874015748031497
        },
        {
          "duration": 0.2678570000000491,
          "durationTicks": 120,
          "midi": 55,
          "name": "G3",
          "ticks": 463200,
          "time": 1408.9975106333334,
          "velocity": 0.7874015748031497
        },
        {
          "duration": 0.2678570000000491,
          "durationTicks": 120,
          "midi": 57,
          "name": "A3",
          "ticks": 463320,
          "time": 1409.2653676333334,
          "velocity": 0.7874015748031497
        },
        {
          "duration": 0.2678569999998217,
          "durationTicks": 120,
          "midi": 58,
          "name": "A#3",
          "ticks": 463440,
          "time": 1409.5332246333335,
          "velocity": 0.7874015748031497
        },
        {
          "duration": 0.2678570000000491,
          "durationTicks": 120,
          "midi": 60,
          "name": "C4",
          "ticks": 463560,
          "time": 1409.8010816333333,
          "velocity": 0.7874015748031497
        },
        {
          "duration": 0.2678570000000491,
          "durationTicks": 120,
          "midi": 62,
          "name": "D4",
          "ticks": 463680,
          "time": 1410.0689386333333,
          "velocity": 0.7874015748031497
        },
        {
          "duration": 0.13392849999991085,
          "durationTicks": 60,
          "midi": 60,
          "name": "C4",
          "ticks": 463800,
          "time": 1410.3367956333334,
          "velocity": 0.7874015748031497
        },
        {
          "duration": 0.13392850000013823,
          "durationTicks": 60,
          "midi": 58,
          "name": "A#3",
          "ticks": 463860,
          "time": 1410.4707241333333,
          "velocity": 0.7874015748031497
        },
        {
          "duration": 0.5357139999998708,
          "durationTicks": 240,
          "midi": 54,
          "name": "F#3",
          "ticks": 463920,
          "time": 1410.6046526333334,
          "velocity": 0.7874015748031497
        },
        {
          "duration": 0.5357139999998708,
          "durationTicks": 240,
          "midi": 57,
          "name": "A3",
          "ticks": 463920,
          "time": 1410.6046526333334,
          "velocity": 0.7874015748031497
        },
        {
          "duration": 0.08928566666668303,
          "durationTicks": 40,
          "midi": 55,
          "name": "G3",
          "ticks": 464400,
          "time": 1411.6760806333334,
          "velocity": 0.7874015748031497
        },
        {
          "duration": 0.08928566666668303,
          "durationTicks": 40,
          "midi": 59,
          "name": "B3",
          "ticks": 464440,
          "time": 1411.7653663,
          "velocity": 0.7874015748031497
        },
        {
          "duration": 0.08928566666668303,
          "durationTicks": 40,
          "midi": 64,
          "name": "E4",
          "ticks": 464480,
          "time": 1411.8546519666668,
          "velocity": 0.7874015748031497
        },
        {
          "duration": 0.08928566666668303,
          "durationTicks": 40,
          "midi": 62,
          "name": "D4",
          "ticks": 464520,
          "time": 1411.9439376333335,
          "velocity": 0.7874015748031497
        },
        {
          "duration": 0.08928566666668303,
          "durationTicks": 40,
          "midi": 59,
          "name": "B3",
          "ticks": 464560,
          "time": 1412.0332233000001,
          "velocity": 0.7874015748031497
        },
        {
          "duration": 0.08928566666645565,
          "durationTicks": 40,
          "midi": 57,
          "name": "A3",
          "ticks": 464600,
          "time": 1412.1225089666668,
          "velocity": 0.7874015748031497
        },
        {
          "duration": 0.08928566666668303,
          "durationTicks": 40,
          "midi": 55,
          "name": "G3",
          "ticks": 464640,
          "time": 1412.2117946333333,
          "velocity": 0.7874015748031497
        },
        {
          "duration": 0.08928566666668303,
          "durationTicks": 40,
          "midi": 59,
          "name": "B3",
          "ticks": 464680,
          "time": 1412.3010803,
          "velocity": 0.7874015748031497
        },
        {
          "duration": 0.08928566666668303,
          "durationTicks": 40,
          "midi": 60,
          "name": "C4",
          "ticks": 464720,
          "time": 1412.3903659666666,
          "velocity": 0.7874015748031497
        },
        {
          "duration": 0.08928566666668303,
          "durationTicks": 40,
          "midi": 59,
          "name": "B3",
          "ticks": 464760,
          "time": 1412.4796516333333,
          "velocity": 0.7874015748031497
        },
        {
          "duration": 0.08928566666668303,
          "durationTicks": 40,
          "midi": 55,
          "name": "G3",
          "ticks": 464800,
          "time": 1412.5689373,
          "velocity": 0.7874015748031497
        },
        {
          "duration": 0.08928566666668303,
          "durationTicks": 40,
          "midi": 54,
          "name": "F#3",
          "ticks": 464840,
          "time": 1412.6582229666667,
          "velocity": 0.7874015748031497
        },
        {
          "duration": 0.08928566666668303,
          "durationTicks": 40,
          "midi": 52,
          "name": "E3",
          "ticks": 464880,
          "time": 1412.7475086333334,
          "velocity": 0.7874015748031497
        },
        {
          "duration": 0.08928566666668303,
          "durationTicks": 40,
          "midi": 55,
          "name": "G3",
          "ticks": 464920,
          "time": 1412.8367943,
          "velocity": 0.7874015748031497
        },
        {
          "duration": 0.08928566666668303,
          "durationTicks": 40,
          "midi": 57,
          "name": "A3",
          "ticks": 464960,
          "time": 1412.9260799666667,
          "velocity": 0.7874015748031497
        },
        {
          "duration": 0.08928566666668303,
          "durationTicks": 40,
          "midi": 55,
          "name": "G3",
          "ticks": 465000,
          "time": 1413.0153656333334,
          "velocity": 0.7874015748031497
        },
        {
          "duration": 0.08928566666668303,
          "durationTicks": 40,
          "midi": 52,
          "name": "E3",
          "ticks": 465040,
          "time": 1413.1046513000001,
          "velocity": 0.7874015748031497
        },
        {
          "duration": 0.08928566666668303,
          "durationTicks": 40,
          "midi": 50,
          "name": "D3",
          "ticks": 465080,
          "time": 1413.1939369666668,
          "velocity": 0.7874015748031497
        },
        {
          "duration": 0.08928566666668303,
          "durationTicks": 40,
          "midi": 38,
          "name": "D2",
          "ticks": 465120,
          "time": 1413.2832226333335,
          "velocity": 0.7874015748031497
        },
        {
          "duration": 0.08928566666645565,
          "durationTicks": 40,
          "midi": 42,
          "name": "F#2",
          "ticks": 465160,
          "time": 1413.3725083000002,
          "velocity": 0.7874015748031497
        },
        {
          "duration": 0.08928566666668303,
          "durationTicks": 40,
          "midi": 45,
          "name": "A2",
          "ticks": 465200,
          "time": 1413.4617939666666,
          "velocity": 0.7874015748031497
        },
        {
          "duration": 0.08928566666668303,
          "durationTicks": 40,
          "midi": 50,
          "name": "D3",
          "ticks": 465240,
          "time": 1413.5510796333333,
          "velocity": 0.7874015748031497
        },
        {
          "duration": 0.08928566666668303,
          "durationTicks": 40,
          "midi": 54,
          "name": "F#3",
          "ticks": 465280,
          "time": 1413.6403653,
          "velocity": 0.7874015748031497
        },
        {
          "duration": 0.08928566666668303,
          "durationTicks": 40,
          "midi": 57,
          "name": "A3",
          "ticks": 465320,
          "time": 1413.7296509666667,
          "velocity": 0.7874015748031497
        },
        {
          "duration": 0.08928566666668303,
          "durationTicks": 40,
          "midi": 62,
          "name": "D4",
          "ticks": 465360,
          "time": 1413.8189366333334,
          "velocity": 0.7874015748031497
        },
        {
          "duration": 0.08928566666668303,
          "durationTicks": 40,
          "midi": 66,
          "name": "F#4",
          "ticks": 465400,
          "time": 1413.9082223,
          "velocity": 0.7874015748031497
        },
        {
          "duration": 0.08928566666668303,
          "durationTicks": 40,
          "midi": 57,
          "name": "A3",
          "ticks": 465440,
          "time": 1413.9975079666667,
          "velocity": 0.7874015748031497
        },
        {
          "duration": 0.08928566666668303,
          "durationTicks": 40,
          "midi": 62,
          "name": "D4",
          "ticks": 465480,
          "time": 1414.0867936333334,
          "velocity": 0.7874015748031497
        },
        {
          "duration": 0.08928566666668303,
          "durationTicks": 40,
          "midi": 54,
          "name": "F#3",
          "ticks": 465520,
          "time": 1414.1760793,
          "velocity": 0.7874015748031497
        },
        {
          "duration": 0.08928566666668303,
          "durationTicks": 40,
          "midi": 57,
          "name": "A3",
          "ticks": 465560,
          "time": 1414.2653649666668,
          "velocity": 0.7874015748031497
        },
        {
          "duration": 0.08928566666668303,
          "durationTicks": 40,
          "midi": 50,
          "name": "D3",
          "ticks": 465600,
          "time": 1414.3546506333334,
          "velocity": 0.7874015748031497
        },
        {
          "duration": 0.08928566666668303,
          "durationTicks": 40,
          "midi": 54,
          "name": "F#3",
          "ticks": 465640,
          "time": 1414.4439363000001,
          "velocity": 0.7874015748031497
        },
        {
          "duration": 0.08928566666668303,
          "durationTicks": 40,
          "midi": 45,
          "name": "A2",
          "ticks": 465680,
          "time": 1414.5332219666668,
          "velocity": 0.7874015748031497
        },
        {
          "duration": 0.08928566666645565,
          "durationTicks": 40,
          "midi": 50,
          "name": "D3",
          "ticks": 465720,
          "time": 1414.6225076333335,
          "velocity": 0.7874015748031497
        },
        {
          "duration": 0.08928566666668303,
          "durationTicks": 40,
          "midi": 42,
          "name": "F#2",
          "ticks": 465760,
          "time": 1414.7117933,
          "velocity": 0.7874015748031497
        },
        {
          "duration": 0.08928566666668303,
          "durationTicks": 40,
          "midi": 45,
          "name": "A2",
          "ticks": 465800,
          "time": 1414.8010789666666,
          "velocity": 0.7874015748031497
        },
        {
          "duration": 1.0729161000001568,
          "durationTicks": 480,
          "midi": 26,
          "name": "D1",
          "ticks": 465840,
          "time": 1414.8903646333333,
          "velocity": 0.7874015748031497
        },
        {
          "duration": 1.0729161000001568,
          "durationTicks": 480,
          "midi": 38,
          "name": "D2",
          "ticks": 465840,
          "time": 1414.8903646333333,
          "velocity": 0.7874015748031497
        },
        {
          "duration": 0.625,
          "durationTicks": 240,
          "midi": 67,
          "name": "G4",
          "ticks": 467280,
          "time": 1418.4632807333335,
          "velocity": 0.7874015748031497
        },
        {
          "duration": 0.625,
          "durationTicks": 240,
          "midi": 67,
          "name": "G4",
          "ticks": 467520,
          "time": 1419.0882807333335,
          "velocity": 0.7874015748031497
        },
        {
          "duration": 0.625,
          "durationTicks": 240,
          "midi": 69,
          "name": "A4",
          "ticks": 467760,
          "time": 1419.7132807333335,
          "velocity": 0.7874015748031497
        },
        {
          "duration": 0.625,
          "durationTicks": 240,
          "midi": 69,
          "name": "A4",
          "ticks": 468000,
          "time": 1420.3382807333335,
          "velocity": 0.7874015748031497
        },
        {
          "duration": 0.3125,
          "durationTicks": 120,
          "midi": 67,
          "name": "G4",
          "ticks": 468240,
          "time": 1420.9632807333335,
          "velocity": 0.7874015748031497
        },
        {
          "duration": 0.3125,
          "durationTicks": 120,
          "midi": 69,
          "name": "A4",
          "ticks": 468360,
          "time": 1421.2757807333335,
          "velocity": 0.7874015748031497
        },
        {
          "duration": 0.3125,
          "durationTicks": 120,
          "midi": 67,
          "name": "G4",
          "ticks": 468480,
          "time": 1421.5882807333335,
          "velocity": 0.7874015748031497
        },
        {
          "duration": 0.3125,
          "durationTicks": 120,
          "midi": 65,
          "name": "F4",
          "ticks": 468600,
          "time": 1421.9007807333335,
          "velocity": 0.7874015748031497
        },
        {
          "duration": 0.3125,
          "durationTicks": 120,
          "midi": 64,
          "name": "E4",
          "ticks": 468720,
          "time": 1422.2132807333335,
          "velocity": 0.7874015748031497
        },
        {
          "duration": 0.3125,
          "durationTicks": 120,
          "midi": 62,
          "name": "D4",
          "ticks": 468840,
          "time": 1422.5257807333335,
          "velocity": 0.7874015748031497
        },
        {
          "duration": 0.3125,
          "durationTicks": 120,
          "midi": 60,
          "name": "C4",
          "ticks": 468960,
          "time": 1422.8382807333335,
          "velocity": 0.7874015748031497
        },
        {
          "duration": 0.3125,
          "durationTicks": 120,
          "midi": 71,
          "name": "B4",
          "ticks": 469080,
          "time": 1423.1507807333335,
          "velocity": 0.7874015748031497
        },
        {
          "duration": 0.3125,
          "durationTicks": 120,
          "midi": 69,
          "name": "A4",
          "ticks": 469200,
          "time": 1423.4632807333335,
          "velocity": 0.7874015748031497
        },
        {
          "duration": 0.3125,
          "durationTicks": 120,
          "midi": 67,
          "name": "G4",
          "ticks": 469320,
          "time": 1423.7757807333335,
          "velocity": 0.7874015748031497
        },
        {
          "duration": 0.3125,
          "durationTicks": 120,
          "midi": 69,
          "name": "A4",
          "ticks": 469440,
          "time": 1424.0882807333335,
          "velocity": 0.7874015748031497
        },
        {
          "duration": 0.3125,
          "durationTicks": 120,
          "midi": 66,
          "name": "F#4",
          "ticks": 469560,
          "time": 1424.4007807333335,
          "velocity": 0.7874015748031497
        },
        {
          "duration": 0.625,
          "durationTicks": 240,
          "midi": 67,
          "name": "G4",
          "ticks": 469680,
          "time": 1424.7132807333335,
          "velocity": 0.7874015748031497
        },
        {
          "duration": 0.3125,
          "durationTicks": 120,
          "midi": 67,
          "name": "G4",
          "ticks": 470160,
          "time": 1425.9632807333335,
          "velocity": 0.7874015748031497
        },
        {
          "duration": 0.3125,
          "durationTicks": 120,
          "midi": 69,
          "name": "A4",
          "ticks": 470280,
          "time": 1426.2757807333335,
          "velocity": 0.7874015748031497
        },
        {
          "duration": 0.3125,
          "durationTicks": 120,
          "midi": 71,
          "name": "B4",
          "ticks": 470400,
          "time": 1426.5882807333335,
          "velocity": 0.7874015748031497
        },
        {
          "duration": 0.3125,
          "durationTicks": 120,
          "midi": 72,
          "name": "C5",
          "ticks": 470520,
          "time": 1426.9007807333335,
          "velocity": 0.7874015748031497
        },
        {
          "duration": 0.3125,
          "durationTicks": 120,
          "midi": 74,
          "name": "D5",
          "ticks": 470640,
          "time": 1427.2132807333335,
          "velocity": 0.7874015748031497
        },
        {
          "duration": 0.15625,
          "durationTicks": 60,
          "midi": 72,
          "name": "C5",
          "ticks": 470760,
          "time": 1427.5257807333335,
          "velocity": 0.7874015748031497
        },
        {
          "duration": 0.15625,
          "durationTicks": 60,
          "midi": 71,
          "name": "B4",
          "ticks": 470820,
          "time": 1427.6820307333335,
          "velocity": 0.7874015748031497
        },
        {
          "duration": 0.3125,
          "durationTicks": 120,
          "midi": 69,
          "name": "A4",
          "ticks": 470880,
          "time": 1427.8382807333335,
          "velocity": 0.7874015748031497
        },
        {
          "duration": 0.625,
          "durationTicks": 240,
          "midi": 74,
          "name": "D5",
          "ticks": 471000,
          "time": 1428.1507807333335,
          "velocity": 0.7874015748031497
        },
        {
          "duration": 0.3125,
          "durationTicks": 120,
          "midi": 72,
          "name": "C5",
          "ticks": 471240,
          "time": 1428.7757807333335,
          "velocity": 0.7874015748031497
        },
        {
          "duration": 0.625,
          "durationTicks": 240,
          "midi": 71,
          "name": "B4",
          "ticks": 471360,
          "time": 1429.0882807333335,
          "velocity": 0.7874015748031497
        },
        {
          "duration": 0.9375,
          "durationTicks": 360,
          "midi": 69,
          "name": "A4",
          "ticks": 471600,
          "time": 1429.7132807333335,
          "velocity": 0.7874015748031497
        },
        {
          "duration": 0.15625,
          "durationTicks": 60,
          "midi": 71,
          "name": "B4",
          "ticks": 471960,
          "time": 1430.6507807333335,
          "velocity": 0.7874015748031497
        },
        {
          "duration": 0.15625,
          "durationTicks": 60,
          "midi": 73,
          "name": "C#5",
          "ticks": 472020,
          "time": 1430.8070307333335,
          "velocity": 0.7874015748031497
        },
        {
          "duration": 0.3125,
          "durationTicks": 120,
          "midi": 74,
          "name": "D5",
          "ticks": 472080,
          "time": 1430.9632807333335,
          "velocity": 0.7874015748031497
        },
        {
          "duration": 0.3125,
          "durationTicks": 120,
          "midi": 76,
          "name": "E5",
          "ticks": 472200,
          "time": 1431.2757807333335,
          "velocity": 0.7874015748031497
        },
        {
          "duration": 0.3125,
          "durationTicks": 120,
          "midi": 78,
          "name": "F#5",
          "ticks": 472320,
          "time": 1431.5882807333335,
          "velocity": 0.7874015748031497
        },
        {
          "duration": 0.3125,
          "durationTicks": 120,
          "midi": 74,
          "name": "D5",
          "ticks": 472440,
          "time": 1431.9007807333335,
          "velocity": 0.7874015748031497
        },
        {
          "duration": 0.3125,
          "durationTicks": 120,
          "midi": 71,
          "name": "B4",
          "ticks": 472560,
          "time": 1432.2132807333335,
          "velocity": 0.7874015748031497
        },
        {
          "duration": 0.3125,
          "durationTicks": 120,
          "midi": 74,
          "name": "D5",
          "ticks": 472680,
          "time": 1432.5257807333335,
          "velocity": 0.7874015748031497
        },
        {
          "duration": 0.3125,
          "durationTicks": 120,
          "midi": 79,
          "name": "G5",
          "ticks": 472800,
          "time": 1432.8382807333335,
          "velocity": 0.7874015748031497
        },
        {
          "duration": 0.3125,
          "durationTicks": 120,
          "midi": 78,
          "name": "F#5",
          "ticks": 472920,
          "time": 1433.1507807333335,
          "velocity": 0.7874015748031497
        },
        {
          "duration": 0.46875,
          "durationTicks": 180,
          "midi": 76,
          "name": "E5",
          "ticks": 473040,
          "time": 1433.4632807333335,
          "velocity": 0.7874015748031497
        },
        {
          "duration": 0.3125,
          "durationTicks": 120,
          "midi": 74,
          "name": "D5",
          "ticks": 473220,
          "time": 1433.9320307333335,
          "velocity": 0.7874015748031497
        },
        {
          "duration": 0.15625,
          "durationTicks": 60,
          "midi": 73,
          "name": "C#5",
          "ticks": 473340,
          "time": 1434.2445307333335,
          "velocity": 0.7874015748031497
        },
        {
          "duration": 0.46875,
          "durationTicks": 180,
          "midi": 76,
          "name": "E5",
          "ticks": 473400,
          "time": 1434.4007807333335,
          "velocity": 0.7874015748031497
        },
        {
          "duration": 0.3125,
          "durationTicks": 120,
          "midi": 74,
          "name": "D5",
          "ticks": 473580,
          "time": 1434.8695307333335,
          "velocity": 0.7874015748031497
        },
        {
          "duration": 0.15625,
          "durationTicks": 60,
          "midi": 73,
          "name": "C#5",
          "ticks": 473700,
          "time": 1435.1820307333335,
          "velocity": 0.7874015748031497
        },
        {
          "duration": 0.3125,
          "durationTicks": 120,
          "midi": 74,
          "name": "D5",
          "ticks": 473760,
          "time": 1435.3382807333335,
          "velocity": 0.7874015748031497
        },
        {
          "duration": 0.3125,
          "durationTicks": 120,
          "midi": 66,
          "name": "F#4",
          "ticks": 473880,
          "time": 1435.6507807333335,
          "velocity": 0.7874015748031497
        },
        {
          "duration": 0.625,
          "durationTicks": 240,
          "midi": 69,
          "name": "A4",
          "ticks": 474000,
          "time": 1435.9632807333335,
          "velocity": 0.7874015748031497
        },
        {
          "duration": 0.625,
          "durationTicks": 240,
          "midi": 69,
          "name": "A4",
          "ticks": 474240,
          "time": 1436.5882807333335,
          "velocity": 0.7874015748031497
        },
        {
          "duration": 0.625,
          "durationTicks": 240,
          "midi": 71,
          "name": "B4",
          "ticks": 474480,
          "time": 1437.2132807333335,
          "velocity": 0.7874015748031497
        },
        {
          "duration": 0.625,
          "durationTicks": 240,
          "midi": 71,
          "name": "B4",
          "ticks": 474720,
          "time": 1437.8382807333335,
          "velocity": 0.7874015748031497
        },
        {
          "duration": 0.3125,
          "durationTicks": 120,
          "midi": 69,
          "name": "A4",
          "ticks": 474960,
          "time": 1438.4632807333335,
          "velocity": 0.7874015748031497
        },
        {
          "duration": 0.3125,
          "durationTicks": 120,
          "midi": 71,
          "name": "B4",
          "ticks": 475080,
          "time": 1438.7757807333335,
          "velocity": 0.7874015748031497
        },
        {
          "duration": 0.3125,
          "durationTicks": 120,
          "midi": 69,
          "name": "A4",
          "ticks": 475200,
          "time": 1439.0882807333335,
          "velocity": 0.7874015748031497
        },
        {
          "duration": 0.3125,
          "durationTicks": 120,
          "midi": 67,
          "name": "G4",
          "ticks": 475320,
          "time": 1439.4007807333335,
          "velocity": 0.7874015748031497
        },
        {
          "duration": 0.3125,
          "durationTicks": 120,
          "midi": 66,
          "name": "F#4",
          "ticks": 475440,
          "time": 1439.7132807333335,
          "velocity": 0.7874015748031497
        },
        {
          "duration": 0.3125,
          "durationTicks": 120,
          "midi": 64,
          "name": "E4",
          "ticks": 475560,
          "time": 1440.0257807333335,
          "velocity": 0.7874015748031497
        },
        {
          "duration": 0.3125,
          "durationTicks": 120,
          "midi": 63,
          "name": "D#4",
          "ticks": 475680,
          "time": 1440.3382807333335,
          "velocity": 0.7874015748031497
        },
        {
          "duration": 0.625,
          "durationTicks": 240,
          "midi": 71,
          "name": "B4",
          "ticks": 475920,
          "time": 1440.9632807333335,
          "velocity": 0.7874015748031497
        },
        {
          "duration": 0.625,
          "durationTicks": 240,
          "midi": 71,
          "name": "B4",
          "ticks": 476160,
          "time": 1441.5882807333335,
          "velocity": 0.7874015748031497
        },
        {
          "duration": 0.625,
          "durationTicks": 240,
          "midi": 72,
          "name": "C5",
          "ticks": 476400,
          "time": 1442.2132807333335,
          "velocity": 0.7874015748031497
        },
        {
          "duration": 0.625,
          "durationTicks": 240,
          "midi": 72,
          "name": "C5",
          "ticks": 476640,
          "time": 1442.8382807333335,
          "velocity": 0.7874015748031497
        },
        {
          "duration": 0.3125,
          "durationTicks": 120,
          "midi": 71,
          "name": "B4",
          "ticks": 476880,
          "time": 1443.4632807333335,
          "velocity": 0.7874015748031497
        },
        {
          "duration": 0.3125,
          "durationTicks": 120,
          "midi": 72,
          "name": "C5",
          "ticks": 477000,
          "time": 1443.7757807333335,
          "velocity": 0.7874015748031497
        },
        {
          "duration": 0.3125,
          "durationTicks": 120,
          "midi": 71,
          "name": "B4",
          "ticks": 477120,
          "time": 1444.0882807333335,
          "velocity": 0.7874015748031497
        },
        {
          "duration": 0.3125,
          "durationTicks": 120,
          "midi": 69,
          "name": "A4",
          "ticks": 477240,
          "time": 1444.4007807333335,
          "velocity": 0.7874015748031497
        },
        {
          "duration": 0.3125,
          "durationTicks": 120,
          "midi": 67,
          "name": "G4",
          "ticks": 477360,
          "time": 1444.7132807333335,
          "velocity": 0.7874015748031497
        },
        {
          "duration": 0.15625,
          "durationTicks": 60,
          "midi": 66,
          "name": "F#4",
          "ticks": 477480,
          "time": 1445.0257807333335,
          "velocity": 0.7874015748031497
        },
        {
          "duration": 0.15625,
          "durationTicks": 60,
          "midi": 67,
          "name": "G4",
          "ticks": 477540,
          "time": 1445.1820307333335,
          "velocity": 0.7874015748031497
        },
        {
          "duration": 0.3125,
          "durationTicks": 120,
          "midi": 64,
          "name": "E4",
          "ticks": 477600,
          "time": 1445.3382807333335,
          "velocity": 0.7874015748031497
        },
        {
          "duration": 0.625,
          "durationTicks": 240,
          "midi": 67,
          "name": "G4",
          "ticks": 478320,
          "time": 1447.2132807333335,
          "velocity": 0.7874015748031497
        },
        {
          "duration": 0.625,
          "durationTicks": 240,
          "midi": 67,
          "name": "G4",
          "ticks": 478560,
          "time": 1447.8382807333335,
          "velocity": 0.7874015748031497
        },
        {
          "duration": 0.46875,
          "durationTicks": 180,
          "midi": 72,
          "name": "C5",
          "ticks": 478800,
          "time": 1448.4632807333335,
          "velocity": 0.7874015748031497
        },
        {
          "duration": 0.15625,
          "durationTicks": 60,
          "midi": 74,
          "name": "D5",
          "ticks": 478980,
          "time": 1448.9320307333335,
          "velocity": 0.7874015748031497
        },
        {
          "duration": 0.3125,
          "durationTicks": 120,
          "midi": 72,
          "name": "C5",
          "ticks": 479040,
          "time": 1449.0882807333335,
          "velocity": 0.7874015748031497
        },
        {
          "duration": 0.3125,
          "durationTicks": 120,
          "midi": 71,
          "name": "B4",
          "ticks": 479160,
          "time": 1449.4007807333335,
          "velocity": 0.7874015748031497
        },
        {
          "duration": 0.3125,
          "durationTicks": 120,
          "midi": 69,
          "name": "A4",
          "ticks": 479280,
          "time": 1449.7132807333335,
          "velocity": 0.7874015748031497
        },
        {
          "duration": 0.3125,
          "durationTicks": 120,
          "midi": 71,
          "name": "B4",
          "ticks": 479400,
          "time": 1450.0257807333335,
          "velocity": 0.7874015748031497
        },
        {
          "duration": 0.3125,
          "durationTicks": 120,
          "midi": 72,
          "name": "C5",
          "ticks": 479520,
          "time": 1450.3382807333335,
          "velocity": 0.7874015748031497
        },
        {
          "duration": 0.3125,
          "durationTicks": 120,
          "midi": 74,
          "name": "D5",
          "ticks": 479640,
          "time": 1450.6507807333335,
          "velocity": 0.7874015748031497
        },
        {
          "duration": 0.3125,
          "durationTicks": 120,
          "midi": 71,
          "name": "B4",
          "ticks": 479760,
          "time": 1450.9632807333335,
          "velocity": 0.7874015748031497
        },
        {
          "duration": 0.3125,
          "durationTicks": 120,
          "midi": 83,
          "name": "B5",
          "ticks": 479760,
          "time": 1450.9632807333335,
          "velocity": 0.7874015748031497
        },
        {
          "duration": 0.15625,
          "durationTicks": 60,
          "midi": 72,
          "name": "C5",
          "ticks": 479880,
          "time": 1451.2757807333335,
          "velocity": 0.7874015748031497
        },
        {
          "duration": 0.15625,
          "durationTicks": 60,
          "midi": 81,
          "name": "A5",
          "ticks": 479880,
          "time": 1451.2757807333335,
          "velocity": 0.7874015748031497
        },
        {
          "duration": 0.15625,
          "durationTicks": 60,
          "midi": 84,
          "name": "C6",
          "ticks": 479880,
          "time": 1451.2757807333335,
          "velocity": 0.7874015748031497
        },
        {
          "duration": 0.15625,
          "durationTicks": 60,
          "midi": 83,
          "name": "B5",
          "ticks": 479940,
          "time": 1451.4320307333335,
          "velocity": 0.7874015748031497
        },
        {
          "duration": 0.3125,
          "durationTicks": 120,
          "midi": 74,
          "name": "D5",
          "ticks": 480000,
          "time": 1451.5882807333335,
          "velocity": 0.7874015748031497
        },
        {
          "duration": 0.3125,
          "durationTicks": 120,
          "midi": 79,
          "name": "G5",
          "ticks": 480000,
          "time": 1451.5882807333335,
          "velocity": 0.7874015748031497
        },
        {
          "duration": 0.3125,
          "durationTicks": 120,
          "midi": 86,
          "name": "D6",
          "ticks": 480000,
          "time": 1451.5882807333335,
          "velocity": 0.7874015748031497
        },
        {
          "duration": 0.3125,
          "durationTicks": 120,
          "midi": 74,
          "name": "D5",
          "ticks": 480120,
          "time": 1451.9007807333335,
          "velocity": 0.7874015748031497
        },
        {
          "duration": 0.3125,
          "durationTicks": 120,
          "midi": 83,
          "name": "B5",
          "ticks": 480120,
          "time": 1451.9007807333335,
          "velocity": 0.7874015748031497
        },
        {
          "duration": 0.3125,
          "durationTicks": 120,
          "midi": 72,
          "name": "C5",
          "ticks": 480240,
          "time": 1452.2132807333335,
          "velocity": 0.7874015748031497
        },
        {
          "duration": 0.3125,
          "durationTicks": 120,
          "midi": 84,
          "name": "C6",
          "ticks": 480240,
          "time": 1452.2132807333335,
          "velocity": 0.7874015748031497
        },
        {
          "duration": 0.15625,
          "durationTicks": 60,
          "midi": 76,
          "name": "E5",
          "ticks": 480360,
          "time": 1452.5257807333335,
          "velocity": 0.7874015748031497
        },
        {
          "duration": 0.15625,
          "durationTicks": 60,
          "midi": 83,
          "name": "B5",
          "ticks": 480360,
          "time": 1452.5257807333335,
          "velocity": 0.7874015748031497
        },
        {
          "duration": 0.15625,
          "durationTicks": 60,
          "midi": 74,
          "name": "D5",
          "ticks": 480420,
          "time": 1452.6820307333335,
          "velocity": 0.7874015748031497
        },
        {
          "duration": 0.3125,
          "durationTicks": 120,
          "midi": 72,
          "name": "C5",
          "ticks": 480480,
          "time": 1452.8382807333335,
          "velocity": 0.7874015748031497
        },
        {
          "duration": 0.3125,
          "durationTicks": 120,
          "midi": 81,
          "name": "A5",
          "ticks": 480480,
          "time": 1452.8382807333335,
          "velocity": 0.7874015748031497
        },
        {
          "duration": 0.3125,
          "durationTicks": 120,
          "midi": 76,
          "name": "E5",
          "ticks": 480600,
          "time": 1453.1507807333335,
          "velocity": 0.7874015748031497
        },
        {
          "duration": 0.3125,
          "durationTicks": 120,
          "midi": 79,
          "name": "G5",
          "ticks": 480600,
          "time": 1453.1507807333335,
          "velocity": 0.7874015748031497
        },
        {
          "duration": 0.15625,
          "durationTicks": 60,
          "midi": 69,
          "name": "A4",
          "ticks": 480720,
          "time": 1453.4632807333335,
          "velocity": 0.7874015748031497
        },
        {
          "duration": 0.15625,
          "durationTicks": 60,
          "midi": 74,
          "name": "D5",
          "ticks": 480780,
          "time": 1453.6195307333335,
          "velocity": 0.7874015748031497
        },
        {
          "duration": 0.15625,
          "durationTicks": 60,
          "midi": 72,
          "name": "C5",
          "ticks": 480840,
          "time": 1453.7757807333335,
          "velocity": 0.7874015748031497
        },
        {
          "duration": 0.15625,
          "durationTicks": 60,
          "midi": 71,
          "name": "B4",
          "ticks": 480900,
          "time": 1453.9320307333335,
          "velocity": 0.7874015748031497
        },
        {
          "duration": 0.15625,
          "durationTicks": 60,
          "midi": 72,
          "name": "C5",
          "ticks": 480960,
          "time": 1454.0882807333335,
          "velocity": 0.7874015748031497
        },
        {
          "duration": 0.15625,
          "durationTicks": 60,
          "midi": 69,
          "name": "A4",
          "ticks": 481020,
          "time": 1454.2445307333335,
          "velocity": 0.7874015748031497
        },
        {
          "duration": 0.625,
          "durationTicks": 240,
          "midi": 74,
          "name": "D5",
          "ticks": 481080,
          "time": 1454.4007807333335,
          "velocity": 0.7874015748031497
        },
        {
          "duration": 0.15625,
          "durationTicks": 60,
          "midi": 72,
          "name": "C5",
          "ticks": 481320,
          "time": 1455.0257807333335,
          "velocity": 0.7874015748031497
        },
        {
          "duration": 0.15625,
          "durationTicks": 60,
          "midi": 74,
          "name": "D5",
          "ticks": 481380,
          "time": 1455.1820307333335,
          "velocity": 0.7874015748031497
        },
        {
          "duration": 0.625,
          "durationTicks": 240,
          "midi": 71,
          "name": "B4",
          "ticks": 481440,
          "time": 1455.3382807333335,
          "velocity": 0.7874015748031497
        },
        {
          "duration": 2.5,
          "durationTicks": 480,
          "midi": 55,
          "name": "G3",
          "ticks": 482400,
          "time": 1458.4528640666667,
          "velocity": 0.7874015748031497
        },
        {
          "duration": 2.5,
          "durationTicks": 480,
          "midi": 62,
          "name": "D4",
          "ticks": 482400,
          "time": 1458.4528640666667,
          "velocity": 0.7874015748031497
        },
        {
          "duration": 2.5,
          "durationTicks": 480,
          "midi": 54,
          "name": "F#3",
          "ticks": 483120,
          "time": 1462.2028640666667,
          "velocity": 0.7874015748031497
        },
        {
          "duration": 2.5,
          "durationTicks": 480,
          "midi": 45,
          "name": "A2",
          "ticks": 483840,
          "time": 1465.9528640666667,
          "velocity": 0.7874015748031497
        },
        {
          "duration": 2.5,
          "durationTicks": 480,
          "midi": 52,
          "name": "E3",
          "ticks": 483840,
          "time": 1465.9528640666667,
          "velocity": 0.7874015748031497
        },
        {
          "duration": 2.5,
          "durationTicks": 480,
          "midi": 45,
          "name": "A2",
          "ticks": 484560,
          "time": 1469.7028640666667,
          "velocity": 0.7874015748031497
        },
        {
          "duration": 2.5,
          "durationTicks": 480,
          "midi": 50,
          "name": "D3",
          "ticks": 484560,
          "time": 1469.7028640666667,
          "velocity": 0.7874015748031497
        },
        {
          "duration": 2.5,
          "durationTicks": 480,
          "midi": 55,
          "name": "G3",
          "ticks": 485280,
          "time": 1473.4528640666667,
          "velocity": 0.7874015748031497
        },
        {
          "duration": 1.25,
          "durationTicks": 240,
          "midi": 60,
          "name": "C4",
          "ticks": 486600,
          "time": 1480.3278640666667,
          "velocity": 0.7874015748031497
        },
        {
          "duration": 2.5,
          "durationTicks": 480,
          "midi": 55,
          "name": "G3",
          "ticks": 488160,
          "time": 1488.4528640666667,
          "velocity": 0.7874015748031497
        },
        {
          "duration": 2.5,
          "durationTicks": 480,
          "midi": 57,
          "name": "A3",
          "ticks": 488880,
          "time": 1492.2028640666667,
          "velocity": 0.7874015748031497
        },
        {
          "duration": 1.875,
          "durationTicks": 360,
          "midi": 59,
          "name": "B3",
          "ticks": 489600,
          "time": 1495.9528640666667,
          "velocity": 0.7874015748031497
        },
        {
          "duration": 0.625,
          "durationTicks": 120,
          "midi": 62,
          "name": "D4",
          "ticks": 489960,
          "time": 1497.8278640666667,
          "velocity": 0.7874015748031497
        },
        {
          "duration": 1.25,
          "durationTicks": 240,
          "midi": 61,
          "name": "C#4",
          "ticks": 490080,
          "time": 1498.4528640666667,
          "velocity": 0.7874015748031497
        },
        {
          "duration": 2.5,
          "durationTicks": 480,
          "midi": 55,
          "name": "G3",
          "ticks": 490320,
          "time": 1499.7028640666667,
          "velocity": 0.7874015748031497
        },
        {
          "duration": 2.5,
          "durationTicks": 480,
          "midi": 54,
          "name": "F#3",
          "ticks": 491040,
          "time": 1503.4528640666667,
          "velocity": 0.7874015748031497
        },
        {
          "duration": 1.25,
          "durationTicks": 240,
          "midi": 54,
          "name": "F#3",
          "ticks": 492240,
          "time": 1509.7028640666667,
          "velocity": 0.7874015748031497
        },
        {
          "duration": 0.625,
          "durationTicks": 120,
          "midi": 52,
          "name": "E3",
          "ticks": 493800,
          "time": 1517.8278640666667,
          "velocity": 0.7874015748031497
        },
        {
          "duration": 2.5,
          "durationTicks": 480,
          "midi": 54,
          "name": "F#3",
          "ticks": 493920,
          "time": 1518.4528640666667,
          "velocity": 0.7874015748031497
        },
        {
          "duration": 0.625,
          "durationTicks": 120,
          "midi": 48,
          "name": "C3",
          "ticks": 494520,
          "time": 1521.5778640666667,
          "velocity": 0.7874015748031497
        },
        {
          "duration": 2.5,
          "durationTicks": 480,
          "midi": 50,
          "name": "D3",
          "ticks": 494640,
          "time": 1522.2028640666667,
          "velocity": 0.7874015748031497
        },
        {
          "duration": 0.625,
          "durationTicks": 120,
          "midi": 52,
          "name": "E3",
          "ticks": 495240,
          "time": 1525.3278640666667,
          "velocity": 0.7874015748031497
        },
        {
          "duration": 1.25,
          "durationTicks": 240,
          "midi": 55,
          "name": "G3",
          "ticks": 495360,
          "time": 1525.9528640666667,
          "velocity": 0.7874015748031497
        },
        {
          "duration": 0.625,
          "durationTicks": 120,
          "midi": 54,
          "name": "F#3",
          "ticks": 495600,
          "time": 1527.2028640666667,
          "velocity": 0.7874015748031497
        },
        {
          "duration": 0.625,
          "durationTicks": 120,
          "midi": 52,
          "name": "E3",
          "ticks": 495720,
          "time": 1527.8278640666667,
          "velocity": 0.7874015748031497
        },
        {
          "duration": 0.625,
          "durationTicks": 120,
          "midi": 51,
          "name": "D#3",
          "ticks": 495840,
          "time": 1528.4528640666667,
          "velocity": 0.7874015748031497
        },
        {
          "duration": 0.625,
          "durationTicks": 120,
          "midi": 52,
          "name": "E3",
          "ticks": 495960,
          "time": 1529.0778640666667,
          "velocity": 0.7874015748031497
        },
        {
          "duration": 2.5,
          "durationTicks": 480,
          "midi": 54,
          "name": "F#3",
          "ticks": 496080,
          "time": 1529.7028640666667,
          "velocity": 0.7874015748031497
        },
        {
          "duration": 0.46875,
          "durationTicks": 90,
          "midi": 57,
          "name": "A3",
          "ticks": 496680,
          "time": 1532.8278640666667,
          "velocity": 0.7874015748031497
        },
        {
          "duration": 0.15625,
          "durationTicks": 30,
          "midi": 55,
          "name": "G3",
          "ticks": 496770,
          "time": 1533.2966140666667,
          "velocity": 0.7874015748031497
        },
        {
          "duration": 0.15625,
          "durationTicks": 30,
          "midi": 57,
          "name": "A3",
          "ticks": 496800,
          "time": 1533.4528640666667,
          "velocity": 0.7874015748031497
        },
        {
          "duration": 0.46875,
          "durationTicks": 90,
          "midi": 55,
          "name": "G3",
          "ticks": 496830,
          "time": 1533.6091140666667,
          "velocity": 0.7874015748031497
        },
        {
          "duration": 0.625,
          "durationTicks": 120,
          "midi": 54,
          "name": "F#3",
          "ticks": 496920,
          "time": 1534.0778640666667,
          "velocity": 0.7874015748031497
        },
        {
          "duration": 1.25,
          "durationTicks": 240,
          "midi": 55,
          "name": "G3",
          "ticks": 497040,
          "time": 1534.7028640666667,
          "velocity": 0.7874015748031497
        },
        {
          "duration": 0.46875,
          "durationTicks": 90,
          "midi": 57,
          "name": "A3",
          "ticks": 497400,
          "time": 1536.5778640666667,
          "velocity": 0.7874015748031497
        },
        {
          "duration": 0.15625,
          "durationTicks": 30,
          "midi": 55,
          "name": "G3",
          "ticks": 497490,
          "time": 1537.0466140666667,
          "velocity": 0.7874015748031497
        },
        {
          "duration": 0.15625,
          "durationTicks": 30,
          "midi": 57,
          "name": "A3",
          "ticks": 497520,
          "time": 1537.2028640666667,
          "velocity": 0.7874015748031497
        },
        {
          "duration": 0.46875,
          "durationTicks": 90,
          "midi": 55,
          "name": "G3",
          "ticks": 497550,
          "time": 1537.3591140666667,
          "velocity": 0.7874015748031497
        },
        {
          "duration": 0.625,
          "durationTicks": 120,
          "midi": 54,
          "name": "F#3",
          "ticks": 497640,
          "time": 1537.8278640666667,
          "velocity": 0.7874015748031497
        },
        {
          "duration": 0.625,
          "durationTicks": 120,
          "midi": 55,
          "name": "G3",
          "ticks": 497760,
          "time": 1538.4528640666667,
          "velocity": 0.7874015748031497
        },
        {
          "duration": 0.625,
          "durationTicks": 120,
          "midi": 52,
          "name": "E3",
          "ticks": 497880,
          "time": 1539.0778640666667,
          "velocity": 0.7874015748031497
        },
        {
          "duration": 0.9375,
          "durationTicks": 180,
          "midi": 57,
          "name": "A3",
          "ticks": 498720,
          "time": 1543.4528640666667,
          "velocity": 0.7874015748031497
        },
        {
          "duration": 0.3125,
          "durationTicks": 60,
          "midi": 54,
          "name": "F#3",
          "ticks": 498900,
          "time": 1544.3903640666667,
          "velocity": 0.7874015748031497
        },
        {
          "duration": 2.5,
          "durationTicks": 480,
          "midi": 55,
          "name": "G3",
          "ticks": 498960,
          "time": 1544.7028640666667,
          "velocity": 0.7874015748031497
        },
        {
          "duration": 2.5,
          "durationTicks": 480,
          "midi": 52,
          "name": "E3",
          "ticks": 499680,
          "time": 1548.4528640666667,
          "velocity": 0.7874015748031497
        },
        {
          "duration": 0.625,
          "durationTicks": 120,
          "midi": 57,
          "name": "A3",
          "ticks": 500160,
          "time": 1550.9528640666667,
          "velocity": 0.7874015748031497
        },
        {
          "duration": 0.625,
          "durationTicks": 120,
          "midi": 54,
          "name": "F#3",
          "ticks": 500280,
          "time": 1551.5778640666667,
          "velocity": 0.7874015748031497
        },
        {
          "duration": 0.3125,
          "durationTicks": 60,
          "midi": 52,
          "name": "E3",
          "ticks": 500400,
          "time": 1552.2028640666667,
          "velocity": 0.7874015748031497
        },
        {
          "duration": 0.3125,
          "durationTicks": 60,
          "midi": 50,
          "name": "D3",
          "ticks": 500460,
          "time": 1552.5153640666667,
          "velocity": 0.7874015748031497
        },
        {
          "duration": 0.3125,
          "durationTicks": 60,
          "midi": 48,
          "name": "C3",
          "ticks": 500520,
          "time": 1552.8278640666667,
          "velocity": 0.7874015748031497
        },
        {
          "duration": 0.3125,
          "durationTicks": 60,
          "midi": 47,
          "name": "B2",
          "ticks": 500580,
          "time": 1553.1403640666667,
          "velocity": 0.7874015748031497
        },
        {
          "duration": 0.9375,
          "durationTicks": 180,
          "midi": 52,
          "name": "E3",
          "ticks": 501360,
          "time": 1557.2028640666667,
          "velocity": 0.7874015748031497
        },
        {
          "duration": 0.3125,
          "durationTicks": 60,
          "midi": 55,
          "name": "G3",
          "ticks": 501540,
          "time": 1558.1403640666667,
          "velocity": 0.7874015748031497
        },
        {
          "duration": 2.1875,
          "durationTicks": 420,
          "midi": 54,
          "name": "F#3",
          "ticks": 501600,
          "time": 1558.4528640666667,
          "velocity": 0.7874015748031497
        },
        {
          "duration": 0.3125,
          "durationTicks": 60,
          "midi": 52,
          "name": "E3",
          "ticks": 502020,
          "time": 1560.6403640666667,
          "velocity": 0.7874015748031497
        },
        {
          "duration": 2.1875,
          "durationTicks": 420,
          "midi": 54,
          "name": "F#3",
          "ticks": 502080,
          "time": 1560.9528640666667,
          "velocity": 0.7874015748031497
        },
        {
          "duration": 0.3125,
          "durationTicks": 60,
          "midi": 57,
          "name": "A3",
          "ticks": 502500,
          "time": 1563.1403640666667,
          "velocity": 0.7874015748031497
        },
        {
          "duration": 0.625,
          "durationTicks": 120,
          "midi": 50,
          "name": "D3",
          "ticks": 502560,
          "time": 1563.4528640666667,
          "velocity": 0.7874015748031497
        },
        {
          "duration": 0.9375,
          "durationTicks": 180,
          "midi": 50,
          "name": "D3",
          "ticks": 502680,
          "time": 1564.0778640666667,
          "velocity": 0.7874015748031497
        },
        {
          "duration": 2.8125,
          "durationTicks": 540,
          "midi": 55,
          "name": "G3",
          "ticks": 502860,
          "time": 1565.0153640666667,
          "velocity": 0.7874015748031497
        },
        {
          "duration": 0.9375,
          "durationTicks": 180,
          "midi": 55,
          "name": "G3",
          "ticks": 503400,
          "time": 1567.8278640666667,
          "velocity": 0.7874015748031497
        },
        {
          "duration": 1.25,
          "durationTicks": 240,
          "midi": 60,
          "name": "C4",
          "ticks": 503580,
          "time": 1568.7653640666667,
          "velocity": 0.7874015748031497
        },
        {
          "duration": 0.3125,
          "durationTicks": 60,
          "midi": 55,
          "name": "G3",
          "ticks": 503820,
          "time": 1570.0153640666667,
          "velocity": 0.7874015748031497
        },
        {
          "duration": 0.625,
          "durationTicks": 120,
          "midi": 54,
          "name": "F#3",
          "ticks": 503880,
          "time": 1570.3278640666667,
          "velocity": 0.7874015748031497
        },
        {
          "duration": 0.3125,
          "durationTicks": 60,
          "midi": 54,
          "name": "F#3",
          "ticks": 504000,
          "time": 1570.9528640666667,
          "velocity": 0.7874015748031497
        },
        {
          "duration": 0.3125,
          "durationTicks": 60,
          "midi": 52,
          "name": "E3",
          "ticks": 504060,
          "time": 1571.2653640666667,
          "velocity": 0.7874015748031497
        },
        {
          "duration": 0.625,
          "durationTicks": 120,
          "midi": 50,
          "name": "D3",
          "ticks": 504120,
          "time": 1571.5778640666667,
          "velocity": 0.7874015748031497
        },
        {
          "duration": 0.625,
          "durationTicks": 120,
          "midi": 52,
          "name": "E3",
          "ticks": 504240,
          "time": 1572.2028640666667,
          "velocity": 0.7874015748031497
        },
        {
          "duration": 0.9375,
          "durationTicks": 180,
          "midi": 45,
          "name": "A2",
          "ticks": 504360,
          "time": 1572.8278640666667,
          "velocity": 0.7874015748031497
        },
        {
          "duration": 0.3125,
          "durationTicks": 60,
          "midi": 48,
          "name": "C3",
          "ticks": 504540,
          "time": 1573.7653640666667,
          "velocity": 0.7874015748031497
        },
        {
          "duration": 0.3125,
          "durationTicks": 60,
          "midi": 47,
          "name": "B2",
          "ticks": 504600,
          "time": 1574.0778640666667,
          "velocity": 0.7874015748031497
        },
        {
          "duration": 0.3125,
          "durationTicks": 60,
          "midi": 45,
          "name": "A2",
          "ticks": 504660,
          "time": 1574.3903640666667,
          "velocity": 0.7874015748031497
        },
        {
          "duration": 1.25,
          "durationTicks": 240,
          "midi": 47,
          "name": "B2",
          "ticks": 504720,
          "time": 1574.7028640666667,
          "velocity": 0.7874015748031497
        },
        {
          "duration": 1.25,
          "durationTicks": 240,
          "midi": 45,
          "name": "A2",
          "ticks": 504960,
          "time": 1575.9528640666667,
          "velocity": 0.7874015748031497
        },
        {
          "duration": 1.25,
          "durationTicks": 240,
          "midi": 43,
          "name": "G2",
          "ticks": 505200,
          "time": 1577.2028640666667,
          "velocity": 0.7874015748031497
        },
        {
          "duration": 1.25,
          "durationTicks": 240,
          "midi": 47,
          "name": "B2",
          "ticks": 505440,
          "time": 1578.4528640666667,
          "velocity": 0.7874015748031497
        },
        {
          "duration": 1.25,
          "durationTicks": 240,
          "midi": 48,
          "name": "C3",
          "ticks": 505680,
          "time": 1579.7028640666667,
          "velocity": 0.7874015748031497
        },
        {
          "duration": 3.75,
          "durationTicks": 720,
          "midi": 50,
          "name": "D3",
          "ticks": 505920,
          "time": 1580.9528640666667,
          "velocity": 0.7874015748031497
        }
      ],
      "endOfTrackTicks": 506640
    },
    {
      "channel": 2,
      "controlChanges": {
        "0": [
          {
            "number": 0,
            "ticks": 0,
            "time": 0,
            "value": 0
          }
        ],
        "7": [
          {
            "number": 7,
            "ticks": 0,
            "time": 0,
            "value": 0.7874015748031497
          },
          {
            "number": 7,
            "ticks": 46080,
            "time": 135.0078125,
            "value": 0.5039370078740157
          },
          {
            "number": 7,
            "ticks": 61680,
            "time": 190.0256165,
            "value": 0.7874015748031497
          },
          {
            "number": 7,
            "ticks": 97320,
            "time": 270.29321250000004,
            "value": 0.5511811023622047
          },
          {
            "number": 7,
            "ticks": 132600,
            "time": 339.7174375,
            "value": 0.7874015748031497
          },
          {
            "number": 7,
            "ticks": 156360,
            "time": 385.8893125,
            "value": 0.9448818897637795
          },
          {
            "number": 7,
            "ticks": 219720,
            "time": 487.0768125,
            "value": 0.7795275590551181
          },
          {
            "number": 7,
            "ticks": 267960,
            "time": 667.9473253666666,
            "value": 0.7874015748031497
          },
          {
            "number": 7,
            "ticks": 284040,
            "time": 791.7825523666666,
            "value": 0.7874015748031497
          },
          {
            "number": 7,
            "ticks": 318960,
            "time": 885.5334903333332,
            "value": 0.7874015748031497
          },
          {
            "number": 7,
            "ticks": 350640,
            "time": 931.6698423333332,
            "value": 0.5905511811023622
          },
          {
            "number": 7,
            "ticks": 374400,
            "time": 995.4198423333332,
            "value": 0.7874015748031497
          },
          {
            "number": 7,
            "ticks": 399600,
            "time": 1255.9198423333332,
            "value": 0.7874015748031497
          },
          {
            "number": 7,
            "ticks": 423360,
            "time": 1305.6046906333333,
            "value": 0.9448818897637795
          },
          {
            "number": 7,
            "ticks": 466320,
            "time": 1415.9632807333335,
            "value": 0.7874015748031497
          },
          {
            "number": 7,
            "ticks": 482160,
            "time": 1457.2132807333335,
            "value": 0.6299212598425197
          }
        ],
        "32": [
          {
            "number": 32,
            "ticks": 0,
            "time": 0,
            "value": 0
          }
        ]
      },
      "pitchBends": [],
      "instrument": {
        "family": "piano",
        "number": 0,
        "name": "acoustic grand piano"
      },
      "name": "Accoustic Grand Piano",
      "notes": [
        {
          "duration": 1.875,
          "durationTicks": 480,
          "midi": 59,
          "name": "B3",
          "ticks": 240,
          "time": 0.9375,
          "velocity": 0.7874015748031497
        },
        {
          "duration": 1.875,
          "durationTicks": 480,
          "midi": 57,
          "name": "A3",
          "ticks": 960,
          "time": 3.75,
          "velocity": 0.7874015748031497
        },
        {
          "duration": 1.875,
          "durationTicks": 480,
          "midi": 55,
          "name": "G3",
          "ticks": 1680,
          "time": 6.5625,
          "velocity": 0.7874015748031497
        },
        {
          "duration": 1.875,
          "durationTicks": 480,
          "midi": 54,
          "name": "F#3",
          "ticks": 2400,
          "time": 9.375,
          "velocity": 0.7874015748031497
        },
        {
          "duration": 1.875,
          "durationTicks": 480,
          "midi": 50,
          "name": "D3",
          "ticks": 3120,
          "time": 12.1875,
          "velocity": 0.7874015748031497
        },
        {
          "duration": 1.875,
          "durationTicks": 480,
          "midi": 52,
          "name": "E3",
          "ticks": 3840,
          "time": 15,
          "velocity": 0.7874015748031497
        },
        {
          "duration": 1.875,
          "durationTicks": 480,
          "midi": 59,
          "name": "B3",
          "ticks": 6000,
          "time": 23.4375,
          "velocity": 0.7874015748031497
        },
        {
          "duration": 1.875,
          "durationTicks": 480,
          "midi": 57,
          "name": "A3",
          "ticks": 8880,
          "time": 34.6875,
          "velocity": 0.7874015748031497
        },
        {
          "duration": 0.46875,
          "durationTicks": 120,
          "midi": 57,
          "name": "A3",
          "ticks": 11160,
          "time": 43.59375,
          "velocity": 0.7874015748031497
        },
        {
          "duration": 0.9375,
          "durationTicks": 240,
          "midi": 62,
          "name": "D4",
          "ticks": 11280,
          "time": 44.0625,
          "velocity": 0.7874015748031497
        },
        {
          "duration": 0.46875,
          "durationTicks": 120,
          "midi": 72,
          "name": "C5",
          "ticks": 16200,
          "time": 63.28125,
          "velocity": 0.7874015748031497
        },
        {
          "duration": 0.46875,
          "durationTicks": 120,
          "midi": 71,
          "name": "B4",
          "ticks": 16320,
          "time": 63.75,
          "velocity": 0.7874015748031497
        },
        {
          "duration": 1.40625,
          "durationTicks": 360,
          "midi": 69,
          "name": "A4",
          "ticks": 16440,
          "time": 64.21875,
          "velocity": 0.7874015748031497
        },
        {
          "duration": 1.875,
          "durationTicks": 480,
          "midi": 67,
          "name": "G4",
          "ticks": 16800,
          "time": 65.625,
          "velocity": 0.7874015748031497
        },
        {
          "duration": 1.875,
          "durationTicks": 480,
          "midi": 52,
          "name": "E3",
          "ticks": 17520,
          "time": 68.4375,
          "velocity": 0.7874015748031497
        },
        {
          "duration": 0.42857100000000514,
          "durationTicks": 120,
          "midi": 43,
          "name": "G2",
          "ticks": 46080,
          "time": 135.0078125,
          "velocity": 0.7874015748031497
        },
        {
          "duration": 0.42857100000000514,
          "durationTicks": 120,
          "midi": 55,
          "name": "G3",
          "ticks": 46080,
          "time": 135.0078125,
          "velocity": 0.7874015748031497
        },
        {
          "duration": 0.42857100000000514,
          "durationTicks": 120,
          "midi": 42,
          "name": "F#2",
          "ticks": 46200,
          "time": 135.4363835,
          "velocity": 0.7874015748031497
        },
        {
          "duration": 0.42857100000000514,
          "durationTicks": 120,
          "midi": 54,
          "name": "F#3",
          "ticks": 46200,
          "time": 135.4363835,
          "velocity": 0.7874015748031497
        },
        {
          "duration": 0.4285709999999767,
          "durationTicks": 120,
          "midi": 43,
          "name": "G2",
          "ticks": 46320,
          "time": 135.8649545,
          "velocity": 0.7874015748031497
        },
        {
          "duration": 0.4285709999999767,
          "durationTicks": 120,
          "midi": 55,
          "name": "G3",
          "ticks": 46320,
          "time": 135.8649545,
          "velocity": 0.7874015748031497
        },
        {
          "duration": 0.42857100000000514,
          "durationTicks": 120,
          "midi": 40,
          "name": "E2",
          "ticks": 46440,
          "time": 136.2935255,
          "velocity": 0.7874015748031497
        },
        {
          "duration": 0.42857100000000514,
          "durationTicks": 120,
          "midi": 52,
          "name": "E3",
          "ticks": 46440,
          "time": 136.2935255,
          "velocity": 0.7874015748031497
        },
        {
          "duration": 0.42857100000000514,
          "durationTicks": 120,
          "midi": 42,
          "name": "F#2",
          "ticks": 46560,
          "time": 136.7220965,
          "velocity": 0.7874015748031497
        },
        {
          "duration": 0.42857100000000514,
          "durationTicks": 120,
          "midi": 54,
          "name": "F#3",
          "ticks": 46560,
          "time": 136.7220965,
          "velocity": 0.7874015748031497
        },
        {
          "duration": 0.42857100000000514,
          "durationTicks": 120,
          "midi": 40,
          "name": "E2",
          "ticks": 46680,
          "time": 137.1506675,
          "velocity": 0.7874015748031497
        },
        {
          "duration": 0.42857100000000514,
          "durationTicks": 120,
          "midi": 52,
          "name": "E3",
          "ticks": 46680,
          "time": 137.1506675,
          "velocity": 0.7874015748031497
        },
        {
          "duration": 0.42857100000000514,
          "durationTicks": 120,
          "midi": 42,
          "name": "F#2",
          "ticks": 46800,
          "time": 137.5792385,
          "velocity": 0.7874015748031497
        },
        {
          "duration": 0.42857100000000514,
          "durationTicks": 120,
          "midi": 54,
          "name": "F#3",
          "ticks": 46800,
          "time": 137.5792385,
          "velocity": 0.7874015748031497
        },
        {
          "duration": 0.42857100000000514,
          "durationTicks": 120,
          "midi": 38,
          "name": "D2",
          "ticks": 46920,
          "time": 138.0078095,
          "velocity": 0.7874015748031497
        },
        {
          "duration": 0.42857100000000514,
          "durationTicks": 120,
          "midi": 50,
          "name": "D3",
          "ticks": 46920,
          "time": 138.0078095,
          "velocity": 0.7874015748031497
        },
        {
          "duration": 0.4285709999999767,
          "durationTicks": 120,
          "midi": 40,
          "name": "E2",
          "ticks": 47040,
          "time": 138.4363805,
          "velocity": 0.7874015748031497
        },
        {
          "duration": 0.4285709999999767,
          "durationTicks": 120,
          "midi": 52,
          "name": "E3",
          "ticks": 47040,
          "time": 138.4363805,
          "velocity": 0.7874015748031497
        },
        {
          "duration": 0.42857100000000514,
          "durationTicks": 120,
          "midi": 38,
          "name": "D2",
          "ticks": 47160,
          "time": 138.8649515,
          "velocity": 0.7874015748031497
        },
        {
          "duration": 0.42857100000000514,
          "durationTicks": 120,
          "midi": 50,
          "name": "D3",
          "ticks": 47160,
          "time": 138.8649515,
          "velocity": 0.7874015748031497
        },
        {
          "duration": 0.42857100000000514,
          "durationTicks": 120,
          "midi": 40,
          "name": "E2",
          "ticks": 47280,
          "time": 139.2935225,
          "velocity": 0.7874015748031497
        },
        {
          "duration": 0.42857100000000514,
          "durationTicks": 120,
          "midi": 52,
          "name": "E3",
          "ticks": 47280,
          "time": 139.2935225,
          "velocity": 0.7874015748031497
        },
        {
          "duration": 0.42857100000000514,
          "durationTicks": 120,
          "midi": 36,
          "name": "C2",
          "ticks": 47400,
          "time": 139.7220935,
          "velocity": 0.7874015748031497
        },
        {
          "duration": 0.42857100000000514,
          "durationTicks": 120,
          "midi": 48,
          "name": "C3",
          "ticks": 47400,
          "time": 139.7220935,
          "velocity": 0.7874015748031497
        },
        {
          "duration": 0.42857100000000514,
          "durationTicks": 120,
          "midi": 38,
          "name": "D2",
          "ticks": 47520,
          "time": 140.1506645,
          "velocity": 0.7874015748031497
        },
        {
          "duration": 0.42857100000000514,
          "durationTicks": 120,
          "midi": 50,
          "name": "D3",
          "ticks": 47520,
          "time": 140.1506645,
          "velocity": 0.7874015748031497
        },
        {
          "duration": 0.42857100000000514,
          "durationTicks": 120,
          "midi": 23,
          "name": "B0",
          "ticks": 47640,
          "time": 140.5792355,
          "velocity": 0.7874015748031497
        },
        {
          "duration": 0.42857100000000514,
          "durationTicks": 120,
          "midi": 38,
          "name": "D2",
          "ticks": 47640,
          "time": 140.5792355,
          "velocity": 0.7874015748031497
        },
        {
          "duration": 0.4285709999999767,
          "durationTicks": 120,
          "midi": 36,
          "name": "C2",
          "ticks": 47760,
          "time": 141.00780650000002,
          "velocity": 0.7874015748031497
        },
        {
          "duration": 0.4285709999999767,
          "durationTicks": 120,
          "midi": 48,
          "name": "C3",
          "ticks": 47760,
          "time": 141.00780650000002,
          "velocity": 0.7874015748031497
        },
        {
          "duration": 0.42857100000000514,
          "durationTicks": 120,
          "midi": 31,
          "name": "G1",
          "ticks": 47880,
          "time": 141.4363775,
          "velocity": 0.7874015748031497
        },
        {
          "duration": 0.42857100000000514,
          "durationTicks": 120,
          "midi": 45,
          "name": "A2",
          "ticks": 47880,
          "time": 141.4363775,
          "velocity": 0.7874015748031497
        },
        {
          "duration": 0.42857100000000514,
          "durationTicks": 120,
          "midi": 35,
          "name": "B1",
          "ticks": 48000,
          "time": 141.8649485,
          "velocity": 0.7874015748031497
        },
        {
          "duration": 0.42857100000000514,
          "durationTicks": 120,
          "midi": 47,
          "name": "B2",
          "ticks": 48000,
          "time": 141.8649485,
          "velocity": 0.7874015748031497
        },
        {
          "duration": 0.42857100000000514,
          "durationTicks": 120,
          "midi": 33,
          "name": "A1",
          "ticks": 48120,
          "time": 142.2935195,
          "velocity": 0.7874015748031497
        },
        {
          "duration": 0.42857100000000514,
          "durationTicks": 120,
          "midi": 45,
          "name": "A2",
          "ticks": 48120,
          "time": 142.2935195,
          "velocity": 0.7874015748031497
        },
        {
          "duration": 0.42857100000000514,
          "durationTicks": 120,
          "midi": 35,
          "name": "B1",
          "ticks": 48240,
          "time": 142.7220905,
          "velocity": 0.7874015748031497
        },
        {
          "duration": 0.42857100000000514,
          "durationTicks": 120,
          "midi": 47,
          "name": "B2",
          "ticks": 48240,
          "time": 142.7220905,
          "velocity": 0.7874015748031497
        },
        {
          "duration": 0.4285709999999767,
          "durationTicks": 120,
          "midi": 31,
          "name": "G1",
          "ticks": 48360,
          "time": 143.1506615,
          "velocity": 0.7874015748031497
        },
        {
          "duration": 0.4285709999999767,
          "durationTicks": 120,
          "midi": 43,
          "name": "G2",
          "ticks": 48360,
          "time": 143.1506615,
          "velocity": 0.7874015748031497
        },
        {
          "duration": 0.42857100000000514,
          "durationTicks": 120,
          "midi": 36,
          "name": "C2",
          "ticks": 48480,
          "time": 143.5792325,
          "velocity": 0.7874015748031497
        },
        {
          "duration": 0.42857100000000514,
          "durationTicks": 120,
          "midi": 48,
          "name": "C3",
          "ticks": 48480,
          "time": 143.5792325,
          "velocity": 0.7874015748031497
        },
        {
          "duration": 0.42857100000000514,
          "durationTicks": 120,
          "midi": 35,
          "name": "B1",
          "ticks": 48600,
          "time": 144.0078035,
          "velocity": 0.7874015748031497
        },
        {
          "duration": 0.42857100000000514,
          "durationTicks": 120,
          "midi": 47,
          "name": "B2",
          "ticks": 48600,
          "time": 144.0078035,
          "velocity": 0.7874015748031497
        },
        {
          "duration": 0.42857100000000514,
          "durationTicks": 120,
          "midi": 36,
          "name": "C2",
          "ticks": 48720,
          "time": 144.4363745,
          "velocity": 0.7874015748031497
        },
        {
          "duration": 0.42857100000000514,
          "durationTicks": 120,
          "midi": 48,
          "name": "C3",
          "ticks": 48720,
          "time": 144.4363745,
          "velocity": 0.7874015748031497
        },
        {
          "duration": 0.42857100000000514,
          "durationTicks": 120,
          "midi": 33,
          "name": "A1",
          "ticks": 48840,
          "time": 144.8649455,
          "velocity": 0.7874015748031497
        },
        {
          "duration": 0.42857100000000514,
          "durationTicks": 120,
          "midi": 45,
          "name": "A2",
          "ticks": 48840,
          "time": 144.8649455,
          "velocity": 0.7874015748031497
        },
        {
          "duration": 0.4285709999999767,
          "durationTicks": 120,
          "midi": 38,
          "name": "D2",
          "ticks": 48960,
          "time": 145.2935165,
          "velocity": 0.7874015748031497
        },
        {
          "duration": 0.4285709999999767,
          "durationTicks": 120,
          "midi": 50,
          "name": "D3",
          "ticks": 48960,
          "time": 145.2935165,
          "velocity": 0.7874015748031497
        },
        {
          "duration": 0.42857100000000514,
          "durationTicks": 120,
          "midi": 36,
          "name": "C2",
          "ticks": 49080,
          "time": 145.7220875,
          "velocity": 0.7874015748031497
        },
        {
          "duration": 0.42857100000000514,
          "durationTicks": 120,
          "midi": 48,
          "name": "C3",
          "ticks": 49080,
          "time": 145.7220875,
          "velocity": 0.7874015748031497
        },
        {
          "duration": 0.42857100000000514,
          "durationTicks": 120,
          "midi": 38,
          "name": "D2",
          "ticks": 49200,
          "time": 146.1506585,
          "velocity": 0.7874015748031497
        },
        {
          "duration": 0.42857100000000514,
          "durationTicks": 120,
          "midi": 50,
          "name": "D3",
          "ticks": 49200,
          "time": 146.1506585,
          "velocity": 0.7874015748031497
        },
        {
          "duration": 0.42857100000000514,
          "durationTicks": 120,
          "midi": 26,
          "name": "D1",
          "ticks": 49320,
          "time": 146.5792295,
          "velocity": 0.7874015748031497
        },
        {
          "duration": 0.42857100000000514,
          "durationTicks": 120,
          "midi": 38,
          "name": "D2",
          "ticks": 49320,
          "time": 146.5792295,
          "velocity": 0.7874015748031497
        },
        {
          "duration": 0.42857100000000514,
          "durationTicks": 120,
          "midi": 31,
          "name": "G1",
          "ticks": 49440,
          "time": 147.0078005,
          "velocity": 0.7874015748031497
        },
        {
          "duration": 0.42857100000000514,
          "durationTicks": 120,
          "midi": 43,
          "name": "G2",
          "ticks": 49440,
          "time": 147.0078005,
          "velocity": 0.7874015748031497
        },
        {
          "duration": 0.42857100000000514,
          "durationTicks": 120,
          "midi": 43,
          "name": "G2",
          "ticks": 49560,
          "time": 147.4363715,
          "velocity": 0.7874015748031497
        },
        {
          "duration": 0.42857100000000514,
          "durationTicks": 120,
          "midi": 55,
          "name": "G3",
          "ticks": 49560,
          "time": 147.4363715,
          "velocity": 0.7874015748031497
        },
        {
          "duration": 0.4285709999999767,
          "durationTicks": 120,
          "midi": 47,
          "name": "B2",
          "ticks": 49680,
          "time": 147.8649425,
          "velocity": 0.7874015748031497
        },
        {
          "duration": 0.4285709999999767,
          "durationTicks": 120,
          "midi": 59,
          "name": "B3",
          "ticks": 49680,
          "time": 147.8649425,
          "velocity": 0.7874015748031497
        },
        {
          "duration": 0.42857100000000514,
          "durationTicks": 120,
          "midi": 50,
          "name": "D3",
          "ticks": 49800,
          "time": 148.2935135,
          "velocity": 0.7874015748031497
        },
        {
          "duration": 0.42857100000000514,
          "durationTicks": 120,
          "midi": 62,
          "name": "D4",
          "ticks": 49800,
          "time": 148.2935135,
          "velocity": 0.7874015748031497
        },
        {
          "duration": 0.42857100000000514,
          "durationTicks": 120,
          "midi": 55,
          "name": "G3",
          "ticks": 49920,
          "time": 148.7220845,
          "velocity": 0.7874015748031497
        },
        {
          "duration": 0.42857100000000514,
          "durationTicks": 120,
          "midi": 67,
          "name": "G4",
          "ticks": 49920,
          "time": 148.7220845,
          "velocity": 0.7874015748031497
        },
        {
          "duration": 0.42857100000000514,
          "durationTicks": 120,
          "midi": 54,
          "name": "F#3",
          "ticks": 50040,
          "time": 149.1506555,
          "velocity": 0.7874015748031497
        },
        {
          "duration": 0.42857100000000514,
          "durationTicks": 120,
          "midi": 66,
          "name": "F#4",
          "ticks": 50040,
          "time": 149.1506555,
          "velocity": 0.7874015748031497
        },
        {
          "duration": 0.42857100000000514,
          "durationTicks": 120,
          "midi": 55,
          "name": "G3",
          "ticks": 50160,
          "time": 149.5792265,
          "velocity": 0.7874015748031497
        },
        {
          "duration": 0.42857100000000514,
          "durationTicks": 120,
          "midi": 67,
          "name": "G4",
          "ticks": 50160,
          "time": 149.5792265,
          "velocity": 0.7874015748031497
        },
        {
          "duration": 0.42857100000000514,
          "durationTicks": 120,
          "midi": 52,
          "name": "E3",
          "ticks": 50280,
          "time": 150.0077975,
          "velocity": 0.7874015748031497
        },
        {
          "duration": 0.42857100000000514,
          "durationTicks": 120,
          "midi": 64,
          "name": "E4",
          "ticks": 50280,
          "time": 150.0077975,
          "velocity": 0.7874015748031497
        },
        {
          "duration": 0.4285709999999767,
          "durationTicks": 120,
          "midi": 54,
          "name": "F#3",
          "ticks": 50400,
          "time": 150.43636850000001,
          "velocity": 0.7874015748031497
        },
        {
          "duration": 0.4285709999999767,
          "durationTicks": 120,
          "midi": 66,
          "name": "F#4",
          "ticks": 50400,
          "time": 150.43636850000001,
          "velocity": 0.7874015748031497
        },
        {
          "duration": 0.42857100000000514,
          "durationTicks": 120,
          "midi": 52,
          "name": "E3",
          "ticks": 50520,
          "time": 150.8649395,
          "velocity": 0.7874015748031497
        },
        {
          "duration": 0.42857100000000514,
          "durationTicks": 120,
          "midi": 64,
          "name": "E4",
          "ticks": 50520,
          "time": 150.8649395,
          "velocity": 0.7874015748031497
        },
        {
          "duration": 0.42857100000000514,
          "durationTicks": 120,
          "midi": 54,
          "name": "F#3",
          "ticks": 50640,
          "time": 151.2935105,
          "velocity": 0.7874015748031497
        },
        {
          "duration": 0.42857100000000514,
          "durationTicks": 120,
          "midi": 66,
          "name": "F#4",
          "ticks": 50640,
          "time": 151.2935105,
          "velocity": 0.7874015748031497
        },
        {
          "duration": 0.42857100000000514,
          "durationTicks": 120,
          "midi": 50,
          "name": "D3",
          "ticks": 50760,
          "time": 151.7220815,
          "velocity": 0.7874015748031497
        },
        {
          "duration": 0.42857100000000514,
          "durationTicks": 120,
          "midi": 62,
          "name": "D4",
          "ticks": 50760,
          "time": 151.7220815,
          "velocity": 0.7874015748031497
        },
        {
          "duration": 0.42857100000000514,
          "durationTicks": 120,
          "midi": 52,
          "name": "E3",
          "ticks": 50880,
          "time": 152.1506525,
          "velocity": 0.7874015748031497
        },
        {
          "duration": 0.42857100000000514,
          "durationTicks": 120,
          "midi": 64,
          "name": "E4",
          "ticks": 50880,
          "time": 152.1506525,
          "velocity": 0.7874015748031497
        },
        {
          "duration": 0.4285709999999767,
          "durationTicks": 120,
          "midi": 50,
          "name": "D3",
          "ticks": 51000,
          "time": 152.5792235,
          "velocity": 0.7874015748031497
        },
        {
          "duration": 0.4285709999999767,
          "durationTicks": 120,
          "midi": 62,
          "name": "D4",
          "ticks": 51000,
          "time": 152.5792235,
          "velocity": 0.7874015748031497
        },
        {
          "duration": 0.42857100000000514,
          "durationTicks": 120,
          "midi": 52,
          "name": "E3",
          "ticks": 51120,
          "time": 153.0077945,
          "velocity": 0.7874015748031497
        },
        {
          "duration": 0.42857100000000514,
          "durationTicks": 120,
          "midi": 64,
          "name": "E4",
          "ticks": 51120,
          "time": 153.0077945,
          "velocity": 0.7874015748031497
        },
        {
          "duration": 0.42857100000000514,
          "durationTicks": 120,
          "midi": 47,
          "name": "B2",
          "ticks": 51240,
          "time": 153.4363655,
          "velocity": 0.7874015748031497
        },
        {
          "duration": 0.42857100000000514,
          "durationTicks": 120,
          "midi": 59,
          "name": "B3",
          "ticks": 51240,
          "time": 153.4363655,
          "velocity": 0.7874015748031497
        },
        {
          "duration": 0.42857100000000514,
          "durationTicks": 120,
          "midi": 49,
          "name": "C#3",
          "ticks": 51360,
          "time": 153.8649365,
          "velocity": 0.7874015748031497
        },
        {
          "duration": 0.42857100000000514,
          "durationTicks": 120,
          "midi": 61,
          "name": "C#4",
          "ticks": 51360,
          "time": 153.8649365,
          "velocity": 0.7874015748031497
        },
        {
          "duration": 0.42857100000000514,
          "durationTicks": 120,
          "midi": 52,
          "name": "E3",
          "ticks": 51480,
          "time": 154.2935075,
          "velocity": 0.7874015748031497
        },
        {
          "duration": 0.42857100000000514,
          "durationTicks": 120,
          "midi": 64,
          "name": "E4",
          "ticks": 51480,
          "time": 154.2935075,
          "velocity": 0.7874015748031497
        },
        {
          "duration": 0.4285709999999767,
          "durationTicks": 120,
          "midi": 49,
          "name": "C#3",
          "ticks": 51600,
          "time": 154.7220785,
          "velocity": 0.7874015748031497
        },
        {
          "duration": 0.4285709999999767,
          "durationTicks": 120,
          "midi": 61,
          "name": "C#4",
          "ticks": 51600,
          "time": 154.7220785,
          "velocity": 0.7874015748031497
        },
        {
          "duration": 0.42857100000000514,
          "durationTicks": 120,
          "midi": 45,
          "name": "A2",
          "ticks": 51720,
          "time": 155.1506495,
          "velocity": 0.7874015748031497
        },
        {
          "duration": 0.42857100000000514,
          "durationTicks": 120,
          "midi": 57,
          "name": "A3",
          "ticks": 51720,
          "time": 155.1506495,
          "velocity": 0.7874015748031497
        },
        {
          "duration": 0.42857100000000514,
          "durationTicks": 120,
          "midi": 42,
          "name": "F#2",
          "ticks": 51840,
          "time": 155.5792205,
          "velocity": 0.7874015748031497
        },
        {
          "duration": 0.42857100000000514,
          "durationTicks": 120,
          "midi": 54,
          "name": "F#3",
          "ticks": 51840,
          "time": 155.5792205,
          "velocity": 0.7874015748031497
        },
        {
          "duration": 0.42857100000000514,
          "durationTicks": 120,
          "midi": 40,
          "name": "E2",
          "ticks": 51960,
          "time": 156.0077915,
          "velocity": 0.7874015748031497
        },
        {
          "duration": 0.42857100000000514,
          "durationTicks": 120,
          "midi": 52,
          "name": "E3",
          "ticks": 51960,
          "time": 156.0077915,
          "velocity": 0.7874015748031497
        },
        {
          "duration": 0.42857100000000514,
          "durationTicks": 120,
          "midi": 42,
          "name": "F#2",
          "ticks": 52080,
          "time": 156.4363625,
          "velocity": 0.7874015748031497
        },
        {
          "duration": 0.42857100000000514,
          "durationTicks": 120,
          "midi": 54,
          "name": "F#3",
          "ticks": 52080,
          "time": 156.4363625,
          "velocity": 0.7874015748031497
        },
        {
          "duration": 0.42857100000000514,
          "durationTicks": 120,
          "midi": 38,
          "name": "D2",
          "ticks": 52200,
          "time": 156.8649335,
          "velocity": 0.7874015748031497
        },
        {
          "duration": 0.42857100000000514,
          "durationTicks": 120,
          "midi": 50,
          "name": "D3",
          "ticks": 52200,
          "time": 156.8649335,
          "velocity": 0.7874015748031497
        },
        {
          "duration": 0.42857100000000514,
          "durationTicks": 120,
          "midi": 43,
          "name": "G2",
          "ticks": 52320,
          "time": 157.2935045,
          "velocity": 0.7874015748031497
        },
        {
          "duration": 0.42857100000000514,
          "durationTicks": 120,
          "midi": 55,
          "name": "G3",
          "ticks": 52320,
          "time": 157.2935045,
          "velocity": 0.7874015748031497
        },
        {
          "duration": 0.4285709999999767,
          "durationTicks": 120,
          "midi": 42,
          "name": "F#2",
          "ticks": 52440,
          "time": 157.72207550000002,
          "velocity": 0.7874015748031497
        },
        {
          "duration": 0.4285709999999767,
          "durationTicks": 120,
          "midi": 54,
          "name": "F#3",
          "ticks": 52440,
          "time": 157.72207550000002,
          "velocity": 0.7874015748031497
        },
        {
          "duration": 0.42857100000000514,
          "durationTicks": 120,
          "midi": 43,
          "name": "G2",
          "ticks": 52560,
          "time": 158.1506465,
          "velocity": 0.7874015748031497
        },
        {
          "duration": 0.42857100000000514,
          "durationTicks": 120,
          "midi": 55,
          "name": "G3",
          "ticks": 52560,
          "time": 158.1506465,
          "velocity": 0.7874015748031497
        },
        {
          "duration": 0.42857100000000514,
          "durationTicks": 120,
          "midi": 40,
          "name": "E2",
          "ticks": 52680,
          "time": 158.5792175,
          "velocity": 0.7874015748031497
        },
        {
          "duration": 0.42857100000000514,
          "durationTicks": 120,
          "midi": 52,
          "name": "E3",
          "ticks": 52680,
          "time": 158.5792175,
          "velocity": 0.7874015748031497
        },
        {
          "duration": 0.42857100000000514,
          "durationTicks": 120,
          "midi": 45,
          "name": "A2",
          "ticks": 52800,
          "time": 159.0077885,
          "velocity": 0.7874015748031497
        },
        {
          "duration": 0.42857100000000514,
          "durationTicks": 120,
          "midi": 57,
          "name": "A3",
          "ticks": 52800,
          "time": 159.0077885,
          "velocity": 0.7874015748031497
        },
        {
          "duration": 0.42857100000000514,
          "durationTicks": 120,
          "midi": 43,
          "name": "G2",
          "ticks": 52920,
          "time": 159.4363595,
          "velocity": 0.7874015748031497
        },
        {
          "duration": 0.42857100000000514,
          "durationTicks": 120,
          "midi": 55,
          "name": "G3",
          "ticks": 52920,
          "time": 159.4363595,
          "velocity": 0.7874015748031497
        },
        {
          "duration": 0.4285709999999767,
          "durationTicks": 120,
          "midi": 45,
          "name": "A2",
          "ticks": 53040,
          "time": 159.8649305,
          "velocity": 0.7874015748031497
        },
        {
          "duration": 0.4285709999999767,
          "durationTicks": 120,
          "midi": 57,
          "name": "A3",
          "ticks": 53040,
          "time": 159.8649305,
          "velocity": 0.7874015748031497
        },
        {
          "duration": 0.42857100000000514,
          "durationTicks": 120,
          "midi": 33,
          "name": "A1",
          "ticks": 53160,
          "time": 160.2935015,
          "velocity": 0.7874015748031497
        },
        {
          "duration": 0.42857100000000514,
          "durationTicks": 120,
          "midi": 45,
          "name": "A2",
          "ticks": 53160,
          "time": 160.2935015,
          "velocity": 0.7874015748031497
        },
        {
          "duration": 0.42857100000000514,
          "durationTicks": 120,
          "midi": 38,
          "name": "D2",
          "ticks": 53280,
          "time": 160.7220725,
          "velocity": 0.7874015748031497
        },
        {
          "duration": 0.42857100000000514,
          "durationTicks": 120,
          "midi": 50,
          "name": "D3",
          "ticks": 53280,
          "time": 160.7220725,
          "velocity": 0.7874015748031497
        },
        {
          "duration": 0.42857100000000514,
          "durationTicks": 120,
          "midi": 33,
          "name": "A1",
          "ticks": 53400,
          "time": 161.1506435,
          "velocity": 0.7874015748031497
        },
        {
          "duration": 0.42857100000000514,
          "durationTicks": 120,
          "midi": 45,
          "name": "A2",
          "ticks": 53400,
          "time": 161.1506435,
          "velocity": 0.7874015748031497
        },
        {
          "duration": 0.8571419999999819,
          "durationTicks": 240,
          "midi": 26,
          "name": "D1",
          "ticks": 53520,
          "time": 161.5792145,
          "velocity": 0.7874015748031497
        },
        {
          "duration": 0.8571419999999819,
          "durationTicks": 240,
          "midi": 38,
          "name": "D2",
          "ticks": 53520,
          "time": 161.5792145,
          "velocity": 0.7874015748031497
        },
        {
          "duration": 0.42857100000000514,
          "durationTicks": 120,
          "midi": 50,
          "name": "D3",
          "ticks": 53760,
          "time": 162.4363565,
          "velocity": 0.7874015748031497
        },
        {
          "duration": 0.42857100000000514,
          "durationTicks": 120,
          "midi": 62,
          "name": "D4",
          "ticks": 53760,
          "time": 162.4363565,
          "velocity": 0.7874015748031497
        },
        {
          "duration": 0.42857100000000514,
          "durationTicks": 120,
          "midi": 49,
          "name": "C#3",
          "ticks": 53880,
          "time": 162.8649275,
          "velocity": 0.7874015748031497
        },
        {
          "duration": 0.42857100000000514,
          "durationTicks": 120,
          "midi": 61,
          "name": "C#4",
          "ticks": 53880,
          "time": 162.8649275,
          "velocity": 0.7874015748031497
        },
        {
          "duration": 0.42857100000000514,
          "durationTicks": 120,
          "midi": 50,
          "name": "D3",
          "ticks": 54000,
          "time": 163.2934985,
          "velocity": 0.7874015748031497
        },
        {
          "duration": 0.42857100000000514,
          "durationTicks": 120,
          "midi": 62,
          "name": "D4",
          "ticks": 54000,
          "time": 163.2934985,
          "velocity": 0.7874015748031497
        },
        {
          "duration": 0.42857100000000514,
          "durationTicks": 120,
          "midi": 45,
          "name": "A2",
          "ticks": 54120,
          "time": 163.7220695,
          "velocity": 0.7874015748031497
        },
        {
          "duration": 0.42857100000000514,
          "durationTicks": 120,
          "midi": 57,
          "name": "A3",
          "ticks": 54120,
          "time": 163.7220695,
          "velocity": 0.7874015748031497
        },
        {
          "duration": 0.42857100000000514,
          "durationTicks": 120,
          "midi": 47,
          "name": "B2",
          "ticks": 54240,
          "time": 164.1506405,
          "velocity": 0.7874015748031497
        },
        {
          "duration": 0.42857100000000514,
          "durationTicks": 120,
          "midi": 59,
          "name": "B3",
          "ticks": 54240,
          "time": 164.1506405,
          "velocity": 0.7874015748031497
        },
        {
          "duration": 0.4285709999999767,
          "durationTicks": 120,
          "midi": 45,
          "name": "A2",
          "ticks": 54360,
          "time": 164.5792115,
          "velocity": 0.7874015748031497
        },
        {
          "duration": 0.4285709999999767,
          "durationTicks": 120,
          "midi": 57,
          "name": "A3",
          "ticks": 54360,
          "time": 164.5792115,
          "velocity": 0.7874015748031497
        },
        {
          "duration": 0.42857100000000514,
          "durationTicks": 120,
          "midi": 47,
          "name": "B2",
          "ticks": 54480,
          "time": 165.0077825,
          "velocity": 0.7874015748031497
        },
        {
          "duration": 0.42857100000000514,
          "durationTicks": 120,
          "midi": 59,
          "name": "B3",
          "ticks": 54480,
          "time": 165.0077825,
          "velocity": 0.7874015748031497
        },
        {
          "duration": 0.42857100000000514,
          "durationTicks": 120,
          "midi": 43,
          "name": "G2",
          "ticks": 54600,
          "time": 165.4363535,
          "velocity": 0.7874015748031497
        },
        {
          "duration": 0.42857100000000514,
          "durationTicks": 120,
          "midi": 55,
          "name": "G3",
          "ticks": 54600,
          "time": 165.4363535,
          "velocity": 0.7874015748031497
        },
        {
          "duration": 0.42857100000000514,
          "durationTicks": 120,
          "midi": 48,
          "name": "C3",
          "ticks": 54720,
          "time": 165.8649245,
          "velocity": 0.7874015748031497
        },
        {
          "duration": 0.42857100000000514,
          "durationTicks": 120,
          "midi": 60,
          "name": "C4",
          "ticks": 54720,
          "time": 165.8649245,
          "velocity": 0.7874015748031497
        },
        {
          "duration": 0.42857100000000514,
          "durationTicks": 120,
          "midi": 47,
          "name": "B2",
          "ticks": 54840,
          "time": 166.2934955,
          "velocity": 0.7874015748031497
        },
        {
          "duration": 0.42857100000000514,
          "durationTicks": 120,
          "midi": 59,
          "name": "B3",
          "ticks": 54840,
          "time": 166.2934955,
          "velocity": 0.7874015748031497
        },
        {
          "duration": 0.42857100000000514,
          "durationTicks": 120,
          "midi": 48,
          "name": "C3",
          "ticks": 54960,
          "time": 166.7220665,
          "velocity": 0.7874015748031497
        },
        {
          "duration": 0.42857100000000514,
          "durationTicks": 120,
          "midi": 60,
          "name": "C4",
          "ticks": 54960,
          "time": 166.7220665,
          "velocity": 0.7874015748031497
        },
        {
          "duration": 0.4285709999999767,
          "durationTicks": 120,
          "midi": 45,
          "name": "A2",
          "ticks": 55080,
          "time": 167.15063750000002,
          "velocity": 0.7874015748031497
        },
        {
          "duration": 0.4285709999999767,
          "durationTicks": 120,
          "midi": 57,
          "name": "A3",
          "ticks": 55080,
          "time": 167.15063750000002,
          "velocity": 0.7874015748031497
        },
        {
          "duration": 0.42857100000000514,
          "durationTicks": 120,
          "midi": 47,
          "name": "B2",
          "ticks": 55200,
          "time": 167.5792085,
          "velocity": 0.7874015748031497
        },
        {
          "duration": 0.42857100000000514,
          "durationTicks": 120,
          "midi": 59,
          "name": "B3",
          "ticks": 55200,
          "time": 167.5792085,
          "velocity": 0.7874015748031497
        },
        {
          "duration": 0.42857100000000514,
          "durationTicks": 120,
          "midi": 45,
          "name": "A2",
          "ticks": 55320,
          "time": 168.0077795,
          "velocity": 0.7874015748031497
        },
        {
          "duration": 0.42857100000000514,
          "durationTicks": 120,
          "midi": 57,
          "name": "A3",
          "ticks": 55320,
          "time": 168.0077795,
          "velocity": 0.7874015748031497
        },
        {
          "duration": 0.42857100000000514,
          "durationTicks": 120,
          "midi": 47,
          "name": "B2",
          "ticks": 55440,
          "time": 168.4363505,
          "velocity": 0.7874015748031497
        },
        {
          "duration": 0.42857100000000514,
          "durationTicks": 120,
          "midi": 59,
          "name": "B3",
          "ticks": 55440,
          "time": 168.4363505,
          "velocity": 0.7874015748031497
        },
        {
          "duration": 0.42857100000000514,
          "durationTicks": 120,
          "midi": 42,
          "name": "F#2",
          "ticks": 55560,
          "time": 168.8649215,
          "velocity": 0.7874015748031497
        },
        {
          "duration": 0.42857100000000514,
          "durationTicks": 120,
          "midi": 54,
          "name": "F#3",
          "ticks": 55560,
          "time": 168.8649215,
          "velocity": 0.7874015748031497
        },
        {
          "duration": 0.4285709999999767,
          "durationTicks": 120,
          "midi": 43,
          "name": "G2",
          "ticks": 55680,
          "time": 169.2934925,
          "velocity": 0.7874015748031497
        },
        {
          "duration": 0.4285709999999767,
          "durationTicks": 120,
          "midi": 55,
          "name": "G3",
          "ticks": 55680,
          "time": 169.2934925,
          "velocity": 0.7874015748031497
        },
        {
          "duration": 0.42857100000000514,
          "durationTicks": 120,
          "midi": 42,
          "name": "F#2",
          "ticks": 55800,
          "time": 169.7220635,
          "velocity": 0.7874015748031497
        },
        {
          "duration": 0.42857100000000514,
          "durationTicks": 120,
          "midi": 54,
          "name": "F#3",
          "ticks": 55800,
          "time": 169.7220635,
          "velocity": 0.7874015748031497
        },
        {
          "duration": 0.42857100000000514,
          "durationTicks": 120,
          "midi": 43,
          "name": "G2",
          "ticks": 55920,
          "time": 170.1506345,
          "velocity": 0.7874015748031497
        },
        {
          "duration": 0.42857100000000514,
          "durationTicks": 120,
          "midi": 55,
          "name": "G3",
          "ticks": 55920,
          "time": 170.1506345,
          "velocity": 0.7874015748031497
        },
        {
          "duration": 0.42857100000000514,
          "durationTicks": 120,
          "midi": 40,
          "name": "E2",
          "ticks": 56040,
          "time": 170.5792055,
          "velocity": 0.7874015748031497
        },
        {
          "duration": 0.42857100000000514,
          "durationTicks": 120,
          "midi": 52,
          "name": "E3",
          "ticks": 56040,
          "time": 170.5792055,
          "velocity": 0.7874015748031497
        },
        {
          "duration": 0.42857100000000514,
          "durationTicks": 120,
          "midi": 45,
          "name": "A2",
          "ticks": 56160,
          "time": 171.0077765,
          "velocity": 0.7874015748031497
        },
        {
          "duration": 0.42857100000000514,
          "durationTicks": 120,
          "midi": 57,
          "name": "A3",
          "ticks": 56160,
          "time": 171.0077765,
          "velocity": 0.7874015748031497
        },
        {
          "duration": 0.4285709999999767,
          "durationTicks": 120,
          "midi": 43,
          "name": "G2",
          "ticks": 56280,
          "time": 171.4363475,
          "velocity": 0.7874015748031497
        },
        {
          "duration": 0.4285709999999767,
          "durationTicks": 120,
          "midi": 55,
          "name": "G3",
          "ticks": 56280,
          "time": 171.4363475,
          "velocity": 0.7874015748031497
        },
        {
          "duration": 0.42857100000000514,
          "durationTicks": 120,
          "midi": 45,
          "name": "A2",
          "ticks": 56400,
          "time": 171.8649185,
          "velocity": 0.7874015748031497
        },
        {
          "duration": 0.42857100000000514,
          "durationTicks": 120,
          "midi": 57,
          "name": "A3",
          "ticks": 56400,
          "time": 171.8649185,
          "velocity": 0.7874015748031497
        },
        {
          "duration": 0.42857100000000514,
          "durationTicks": 120,
          "midi": 42,
          "name": "F#2",
          "ticks": 56520,
          "time": 172.2934895,
          "velocity": 0.7874015748031497
        },
        {
          "duration": 0.42857100000000514,
          "durationTicks": 120,
          "midi": 54,
          "name": "F#3",
          "ticks": 56520,
          "time": 172.2934895,
          "velocity": 0.7874015748031497
        },
        {
          "duration": 0.42857100000000514,
          "durationTicks": 120,
          "midi": 47,
          "name": "B2",
          "ticks": 56640,
          "time": 172.7220605,
          "velocity": 0.7874015748031497
        },
        {
          "duration": 0.42857100000000514,
          "durationTicks": 120,
          "midi": 59,
          "name": "B3",
          "ticks": 56640,
          "time": 172.7220605,
          "velocity": 0.7874015748031497
        },
        {
          "duration": 0.42857100000000514,
          "durationTicks": 120,
          "midi": 46,
          "name": "A#2",
          "ticks": 56760,
          "time": 173.1506315,
          "velocity": 0.7874015748031497
        },
        {
          "duration": 0.42857100000000514,
          "durationTicks": 120,
          "midi": 58,
          "name": "A#3",
          "ticks": 56760,
          "time": 173.1506315,
          "velocity": 0.7874015748031497
        },
        {
          "duration": 0.42857100000000514,
          "durationTicks": 120,
          "midi": 47,
          "name": "B2",
          "ticks": 56880,
          "time": 173.5792025,
          "velocity": 0.7874015748031497
        },
        {
          "duration": 0.42857100000000514,
          "durationTicks": 120,
          "midi": 59,
          "name": "B3",
          "ticks": 56880,
          "time": 173.5792025,
          "velocity": 0.7874015748031497
        },
        {
          "duration": 0.42857100000000514,
          "durationTicks": 120,
          "midi": 35,
          "name": "B1",
          "ticks": 57000,
          "time": 174.0077735,
          "velocity": 0.7874015748031497
        },
        {
          "duration": 0.42857100000000514,
          "durationTicks": 120,
          "midi": 47,
          "name": "B2",
          "ticks": 57000,
          "time": 174.0077735,
          "velocity": 0.7874015748031497
        },
        {
          "duration": 0.4285709999999767,
          "durationTicks": 120,
          "midi": 40,
          "name": "E2",
          "ticks": 57120,
          "time": 174.43634450000002,
          "velocity": 0.7874015748031497
        },
        {
          "duration": 0.4285709999999767,
          "durationTicks": 120,
          "midi": 52,
          "name": "E3",
          "ticks": 57120,
          "time": 174.43634450000002,
          "velocity": 0.7874015748031497
        },
        {
          "duration": 0.42857100000000514,
          "durationTicks": 120,
          "midi": 36,
          "name": "C2",
          "ticks": 57240,
          "time": 174.8649155,
          "velocity": 0.7874015748031497
        },
        {
          "duration": 0.42857100000000514,
          "durationTicks": 120,
          "midi": 48,
          "name": "C3",
          "ticks": 57240,
          "time": 174.8649155,
          "velocity": 0.7874015748031497
        },
        {
          "duration": 0.42857100000000514,
          "durationTicks": 120,
          "midi": 38,
          "name": "D2",
          "ticks": 57360,
          "time": 175.2934865,
          "velocity": 0.7874015748031497
        },
        {
          "duration": 0.42857100000000514,
          "durationTicks": 120,
          "midi": 50,
          "name": "D3",
          "ticks": 57360,
          "time": 175.2934865,
          "velocity": 0.7874015748031497
        },
        {
          "duration": 0.42857100000000514,
          "durationTicks": 120,
          "midi": 47,
          "name": "B2",
          "ticks": 57480,
          "time": 175.7220575,
          "velocity": 0.7874015748031497
        },
        {
          "duration": 0.42857100000000514,
          "durationTicks": 120,
          "midi": 59,
          "name": "B3",
          "ticks": 57480,
          "time": 175.7220575,
          "velocity": 0.7874015748031497
        },
        {
          "duration": 0.42857100000000514,
          "durationTicks": 120,
          "midi": 36,
          "name": "C2",
          "ticks": 57600,
          "time": 176.1506285,
          "velocity": 0.7874015748031497
        },
        {
          "duration": 0.42857100000000514,
          "durationTicks": 120,
          "midi": 48,
          "name": "C3",
          "ticks": 57600,
          "time": 176.1506285,
          "velocity": 0.7874015748031497
        },
        {
          "duration": 0.4285709999999767,
          "durationTicks": 120,
          "midi": 35,
          "name": "B1",
          "ticks": 57720,
          "time": 176.57919950000002,
          "velocity": 0.7874015748031497
        },
        {
          "duration": 0.4285709999999767,
          "durationTicks": 120,
          "midi": 47,
          "name": "B2",
          "ticks": 57720,
          "time": 176.57919950000002,
          "velocity": 0.7874015748031497
        },
        {
          "duration": 0.42857100000000514,
          "durationTicks": 120,
          "midi": 36,
          "name": "C2",
          "ticks": 57840,
          "time": 177.0077705,
          "velocity": 0.7874015748031497
        },
        {
          "duration": 0.42857100000000514,
          "durationTicks": 120,
          "midi": 48,
          "name": "C3",
          "ticks": 57840,
          "time": 177.0077705,
          "velocity": 0.7874015748031497
        },
        {
          "duration": 0.42857100000000514,
          "durationTicks": 120,
          "midi": 45,
          "name": "A2",
          "ticks": 57960,
          "time": 177.4363415,
          "velocity": 0.7874015748031497
        },
        {
          "duration": 0.42857100000000514,
          "durationTicks": 120,
          "midi": 57,
          "name": "A3",
          "ticks": 57960,
          "time": 177.4363415,
          "velocity": 0.7874015748031497
        },
        {
          "duration": 0.42857100000000514,
          "durationTicks": 120,
          "midi": 35,
          "name": "B1",
          "ticks": 58080,
          "time": 177.8649125,
          "velocity": 0.7874015748031497
        },
        {
          "duration": 0.42857100000000514,
          "durationTicks": 120,
          "midi": 47,
          "name": "B2",
          "ticks": 58080,
          "time": 177.8649125,
          "velocity": 0.7874015748031497
        },
        {
          "duration": 0.42857100000000514,
          "durationTicks": 120,
          "midi": 33,
          "name": "A1",
          "ticks": 58200,
          "time": 178.2934835,
          "velocity": 0.7874015748031497
        },
        {
          "duration": 0.42857100000000514,
          "durationTicks": 120,
          "midi": 45,
          "name": "A2",
          "ticks": 58200,
          "time": 178.2934835,
          "velocity": 0.7874015748031497
        },
        {
          "duration": 0.4285709999999767,
          "durationTicks": 120,
          "midi": 35,
          "name": "B1",
          "ticks": 58320,
          "time": 178.7220545,
          "velocity": 0.7874015748031497
        },
        {
          "duration": 0.4285709999999767,
          "durationTicks": 120,
          "midi": 47,
          "name": "B2",
          "ticks": 58320,
          "time": 178.7220545,
          "velocity": 0.7874015748031497
        },
        {
          "duration": 0.42857100000000514,
          "durationTicks": 120,
          "midi": 43,
          "name": "G2",
          "ticks": 58440,
          "time": 179.1506255,
          "velocity": 0.7874015748031497
        },
        {
          "duration": 0.42857100000000514,
          "durationTicks": 120,
          "midi": 55,
          "name": "G3",
          "ticks": 58440,
          "time": 179.1506255,
          "velocity": 0.7874015748031497
        },
        {
          "duration": 0.42857100000000514,
          "durationTicks": 120,
          "midi": 33,
          "name": "A1",
          "ticks": 58560,
          "time": 179.5791965,
          "velocity": 0.7874015748031497
        },
        {
          "duration": 0.42857100000000514,
          "durationTicks": 120,
          "midi": 45,
          "name": "A2",
          "ticks": 58560,
          "time": 179.5791965,
          "velocity": 0.7874015748031497
        },
        {
          "duration": 0.42857100000000514,
          "durationTicks": 120,
          "midi": 31,
          "name": "G1",
          "ticks": 58680,
          "time": 180.0077675,
          "velocity": 0.7874015748031497
        },
        {
          "duration": 0.42857100000000514,
          "durationTicks": 120,
          "midi": 43,
          "name": "G2",
          "ticks": 58680,
          "time": 180.0077675,
          "velocity": 0.7874015748031497
        },
        {
          "duration": 0.42857100000000514,
          "durationTicks": 120,
          "midi": 33,
          "name": "A1",
          "ticks": 58800,
          "time": 180.4363385,
          "velocity": 0.7874015748031497
        },
        {
          "duration": 0.42857100000000514,
          "durationTicks": 120,
          "midi": 45,
          "name": "A2",
          "ticks": 58800,
          "time": 180.4363385,
          "velocity": 0.7874015748031497
        },
        {
          "duration": 0.4285709999999767,
          "durationTicks": 120,
          "midi": 43,
          "name": "G2",
          "ticks": 58920,
          "time": 180.8649095,
          "velocity": 0.7874015748031497
        },
        {
          "duration": 0.4285709999999767,
          "durationTicks": 120,
          "midi": 55,
          "name": "G3",
          "ticks": 58920,
          "time": 180.8649095,
          "velocity": 0.7874015748031497
        },
        {
          "duration": 0.42857100000003356,
          "durationTicks": 120,
          "midi": 42,
          "name": "F#2",
          "ticks": 59040,
          "time": 181.2934805,
          "velocity": 0.7874015748031497
        },
        {
          "duration": 0.42857100000003356,
          "durationTicks": 120,
          "midi": 54,
          "name": "F#3",
          "ticks": 59040,
          "time": 181.2934805,
          "velocity": 0.7874015748031497
        },
        {
          "duration": 0.4285709999999767,
          "durationTicks": 120,
          "midi": 33,
          "name": "A1",
          "ticks": 59160,
          "time": 181.72205150000002,
          "velocity": 0.7874015748031497
        },
        {
          "duration": 0.4285709999999767,
          "durationTicks": 120,
          "midi": 45,
          "name": "A2",
          "ticks": 59160,
          "time": 181.72205150000002,
          "velocity": 0.7874015748031497
        },
        {
          "duration": 0.42857100000000514,
          "durationTicks": 120,
          "midi": 38,
          "name": "D2",
          "ticks": 59280,
          "time": 182.1506225,
          "velocity": 0.7874015748031497
        },
        {
          "duration": 0.42857100000000514,
          "durationTicks": 120,
          "midi": 50,
          "name": "D3",
          "ticks": 59280,
          "time": 182.1506225,
          "velocity": 0.7874015748031497
        },
        {
          "duration": 0.42857100000000514,
          "durationTicks": 120,
          "midi": 35,
          "name": "B1",
          "ticks": 59400,
          "time": 182.5791935,
          "velocity": 0.7874015748031497
        },
        {
          "duration": 0.42857100000000514,
          "durationTicks": 120,
          "midi": 47,
          "name": "B2",
          "ticks": 59400,
          "time": 182.5791935,
          "velocity": 0.7874015748031497
        },
        {
          "duration": 0.42857100000000514,
          "durationTicks": 120,
          "midi": 31,
          "name": "G1",
          "ticks": 59520,
          "time": 183.0077645,
          "velocity": 0.7874015748031497
        },
        {
          "duration": 0.42857100000000514,
          "durationTicks": 120,
          "midi": 43,
          "name": "G2",
          "ticks": 59520,
          "time": 183.0077645,
          "velocity": 0.7874015748031497
        },
        {
          "duration": 0.42857100000000514,
          "durationTicks": 120,
          "midi": 41,
          "name": "F2",
          "ticks": 59640,
          "time": 183.4363355,
          "velocity": 0.7874015748031497
        },
        {
          "duration": 0.42857100000000514,
          "durationTicks": 120,
          "midi": 53,
          "name": "F3",
          "ticks": 59640,
          "time": 183.4363355,
          "velocity": 0.7874015748031497
        },
        {
          "duration": 0.4285709999999767,
          "durationTicks": 120,
          "midi": 43,
          "name": "G2",
          "ticks": 59760,
          "time": 183.86490650000002,
          "velocity": 0.7874015748031497
        },
        {
          "duration": 0.4285709999999767,
          "durationTicks": 120,
          "midi": 55,
          "name": "G3",
          "ticks": 59760,
          "time": 183.86490650000002,
          "velocity": 0.7874015748031497
        },
        {
          "duration": 0.42857100000000514,
          "durationTicks": 120,
          "midi": 40,
          "name": "E2",
          "ticks": 59880,
          "time": 184.2934775,
          "velocity": 0.7874015748031497
        },
        {
          "duration": 0.42857100000000514,
          "durationTicks": 120,
          "midi": 52,
          "name": "E3",
          "ticks": 59880,
          "time": 184.2934775,
          "velocity": 0.7874015748031497
        },
        {
          "duration": 0.42857100000000514,
          "durationTicks": 120,
          "midi": 36,
          "name": "C2",
          "ticks": 60000,
          "time": 184.7220485,
          "velocity": 0.7874015748031497
        },
        {
          "duration": 0.42857100000000514,
          "durationTicks": 120,
          "midi": 48,
          "name": "C3",
          "ticks": 60000,
          "time": 184.7220485,
          "velocity": 0.7874015748031497
        },
        {
          "duration": 0.42857100000000514,
          "durationTicks": 120,
          "midi": 47,
          "name": "B2",
          "ticks": 60120,
          "time": 185.1506195,
          "velocity": 0.7874015748031497
        },
        {
          "duration": 0.42857100000000514,
          "durationTicks": 120,
          "midi": 59,
          "name": "B3",
          "ticks": 60120,
          "time": 185.1506195,
          "velocity": 0.7874015748031497
        },
        {
          "duration": 0.42857100000000514,
          "durationTicks": 120,
          "midi": 48,
          "name": "C3",
          "ticks": 60240,
          "time": 185.5791905,
          "velocity": 0.7874015748031497
        },
        {
          "duration": 0.42857100000000514,
          "durationTicks": 120,
          "midi": 60,
          "name": "C4",
          "ticks": 60240,
          "time": 185.5791905,
          "velocity": 0.7874015748031497
        },
        {
          "duration": 0.4285709999999767,
          "durationTicks": 120,
          "midi": 45,
          "name": "A2",
          "ticks": 60360,
          "time": 186.00776150000002,
          "velocity": 0.7874015748031497
        },
        {
          "duration": 0.4285709999999767,
          "durationTicks": 120,
          "midi": 57,
          "name": "A3",
          "ticks": 60360,
          "time": 186.00776150000002,
          "velocity": 0.7874015748031497
        },
        {
          "duration": 0.42857100000000514,
          "durationTicks": 120,
          "midi": 42,
          "name": "F#2",
          "ticks": 60480,
          "time": 186.4363325,
          "velocity": 0.7874015748031497
        },
        {
          "duration": 0.42857100000000514,
          "durationTicks": 120,
          "midi": 54,
          "name": "F#3",
          "ticks": 60480,
          "time": 186.4363325,
          "velocity": 0.7874015748031497
        },
        {
          "duration": 0.42857100000000514,
          "durationTicks": 120,
          "midi": 43,
          "name": "G2",
          "ticks": 60600,
          "time": 186.8649035,
          "velocity": 0.7874015748031497
        },
        {
          "duration": 0.42857100000000514,
          "durationTicks": 120,
          "midi": 55,
          "name": "G3",
          "ticks": 60600,
          "time": 186.8649035,
          "velocity": 0.7874015748031497
        },
        {
          "duration": 0.42857100000000514,
          "durationTicks": 120,
          "midi": 35,
          "name": "B1",
          "ticks": 60720,
          "time": 187.2934745,
          "velocity": 0.7874015748031497
        },
        {
          "duration": 0.42857100000000514,
          "durationTicks": 120,
          "midi": 47,
          "name": "B2",
          "ticks": 60720,
          "time": 187.2934745,
          "velocity": 0.7874015748031497
        },
        {
          "duration": 0.42857100000000514,
          "durationTicks": 120,
          "midi": 38,
          "name": "D2",
          "ticks": 60840,
          "time": 187.7220455,
          "velocity": 0.7874015748031497
        },
        {
          "duration": 0.42857100000000514,
          "durationTicks": 120,
          "midi": 50,
          "name": "D3",
          "ticks": 60840,
          "time": 187.7220455,
          "velocity": 0.7874015748031497
        },
        {
          "duration": 0.3125,
          "durationTicks": 120,
          "midi": 43,
          "name": "G2",
          "ticks": 60960,
          "time": 188.1506165,
          "velocity": 0.7874015748031497
        },
        {
          "duration": 0.3125,
          "durationTicks": 120,
          "midi": 55,
          "name": "G3",
          "ticks": 60960,
          "time": 188.1506165,
          "velocity": 0.7874015748031497
        },
        {
          "duration": 0.3125,
          "durationTicks": 120,
          "midi": 38,
          "name": "D2",
          "ticks": 61080,
          "time": 188.4631165,
          "velocity": 0.7874015748031497
        },
        {
          "duration": 0.3125,
          "durationTicks": 120,
          "midi": 50,
          "name": "D3",
          "ticks": 61080,
          "time": 188.4631165,
          "velocity": 0.7874015748031497
        },
        {
          "duration": 0.625,
          "durationTicks": 240,
          "midi": 31,
          "name": "G1",
          "ticks": 61200,
          "time": 188.7756165,
          "velocity": 0.7874015748031497
        },
        {
          "duration": 0.625,
          "durationTicks": 240,
          "midi": 43,
          "name": "G2",
          "ticks": 61200,
          "time": 188.7756165,
          "velocity": 0.7874015748031497
        },
        {
          "duration": 0.3125,
          "durationTicks": 120,
          "midi": 59,
          "name": "B3",
          "ticks": 62520,
          "time": 192.2131165,
          "velocity": 0.7874015748031497
        },
        {
          "duration": 0.3125,
          "durationTicks": 120,
          "midi": 55,
          "name": "G3",
          "ticks": 62640,
          "time": 192.5256165,
          "velocity": 0.7874015748031497
        },
        {
          "duration": 0.625,
          "durationTicks": 240,
          "midi": 62,
          "name": "D4",
          "ticks": 62760,
          "time": 192.8381165,
          "velocity": 0.7874015748031497
        },
        {
          "duration": 0.3125,
          "durationTicks": 120,
          "midi": 55,
          "name": "G3",
          "ticks": 63240,
          "time": 194.0881165,
          "velocity": 0.7874015748031497
        },
        {
          "duration": 0.3125,
          "durationTicks": 120,
          "midi": 59,
          "name": "B3",
          "ticks": 63360,
          "time": 194.4006165,
          "velocity": 0.7874015748031497
        },
        {
          "duration": 0.3125,
          "durationTicks": 120,
          "midi": 52,
          "name": "E3",
          "ticks": 63480,
          "time": 194.7131165,
          "velocity": 0.7874015748031497
        },
        {
          "duration": 0.3125,
          "durationTicks": 120,
          "midi": 57,
          "name": "A3",
          "ticks": 63600,
          "time": 195.0256165,
          "velocity": 0.7874015748031497
        },
        {
          "duration": 0.625,
          "durationTicks": 240,
          "midi": 55,
          "name": "G3",
          "ticks": 63720,
          "time": 195.3381165,
          "velocity": 0.7874015748031497
        },
        {
          "duration": 0.15625,
          "durationTicks": 60,
          "midi": 54,
          "name": "F#3",
          "ticks": 63960,
          "time": 195.9631165,
          "velocity": 0.7874015748031497
        },
        {
          "duration": 0.15625,
          "durationTicks": 60,
          "midi": 52,
          "name": "E3",
          "ticks": 64020,
          "time": 196.1193665,
          "velocity": 0.7874015748031497
        },
        {
          "duration": 0.3125,
          "durationTicks": 120,
          "midi": 54,
          "name": "F#3",
          "ticks": 64080,
          "time": 196.2756165,
          "velocity": 0.7874015748031497
        },
        {
          "duration": 0.3125,
          "durationTicks": 120,
          "midi": 55,
          "name": "G3",
          "ticks": 64200,
          "time": 196.5881165,
          "velocity": 0.7874015748031497
        },
        {
          "duration": 0.3125,
          "durationTicks": 120,
          "midi": 50,
          "name": "D3",
          "ticks": 64320,
          "time": 196.9006165,
          "velocity": 0.7874015748031497
        },
        {
          "duration": 0.3125,
          "durationTicks": 120,
          "midi": 62,
          "name": "D4",
          "ticks": 65040,
          "time": 198.7756165,
          "velocity": 0.7874015748031497
        },
        {
          "duration": 0.3125,
          "durationTicks": 120,
          "midi": 66,
          "name": "F#4",
          "ticks": 65160,
          "time": 199.0881165,
          "velocity": 0.7874015748031497
        },
        {
          "duration": 0.3125,
          "durationTicks": 120,
          "midi": 59,
          "name": "B3",
          "ticks": 65280,
          "time": 199.4006165,
          "velocity": 0.7874015748031497
        },
        {
          "duration": 0.3125,
          "durationTicks": 120,
          "midi": 64,
          "name": "E4",
          "ticks": 65400,
          "time": 199.7131165,
          "velocity": 0.7874015748031497
        },
        {
          "duration": 0.3125,
          "durationTicks": 120,
          "midi": 61,
          "name": "C#4",
          "ticks": 65760,
          "time": 200.6506165,
          "velocity": 0.7874015748031497
        },
        {
          "duration": 0.3125,
          "durationTicks": 120,
          "midi": 64,
          "name": "E4",
          "ticks": 65880,
          "time": 200.9631165,
          "velocity": 0.7874015748031497
        },
        {
          "duration": 1.25,
          "durationTicks": 480,
          "midi": 57,
          "name": "A3",
          "ticks": 66000,
          "time": 201.2756165,
          "velocity": 0.7874015748031497
        },
        {
          "duration": 0.3125,
          "durationTicks": 120,
          "midi": 55,
          "name": "G3",
          "ticks": 66480,
          "time": 202.5256165,
          "velocity": 0.7874015748031497
        },
        {
          "duration": 0.3125,
          "durationTicks": 120,
          "midi": 59,
          "name": "B3",
          "ticks": 66600,
          "time": 202.8381165,
          "velocity": 0.7874015748031497
        },
        {
          "duration": 0.3125,
          "durationTicks": 120,
          "midi": 52,
          "name": "E3",
          "ticks": 66720,
          "time": 203.1506165,
          "velocity": 0.7874015748031497
        },
        {
          "duration": 0.3125,
          "durationTicks": 120,
          "midi": 62,
          "name": "D4",
          "ticks": 67920,
          "time": 206.2756165,
          "velocity": 0.7874015748031497
        },
        {
          "duration": 0.3125,
          "durationTicks": 120,
          "midi": 67,
          "name": "G4",
          "ticks": 68040,
          "time": 206.5881165,
          "velocity": 0.7874015748031497
        },
        {
          "duration": 0.3125,
          "durationTicks": 120,
          "midi": 64,
          "name": "E4",
          "ticks": 68160,
          "time": 206.9006165,
          "velocity": 0.7874015748031497
        },
        {
          "duration": 0.9375,
          "durationTicks": 360,
          "midi": 60,
          "name": "C4",
          "ticks": 68280,
          "time": 207.2131165,
          "velocity": 0.7874015748031497
        },
        {
          "duration": 0.15625,
          "durationTicks": 60,
          "midi": 59,
          "name": "B3",
          "ticks": 68640,
          "time": 208.1506165,
          "velocity": 0.7874015748031497
        },
        {
          "duration": 0.15625,
          "durationTicks": 60,
          "midi": 57,
          "name": "A3",
          "ticks": 68700,
          "time": 208.3068665,
          "velocity": 0.7874015748031497
        },
        {
          "duration": 0.15625,
          "durationTicks": 60,
          "midi": 55,
          "name": "G3",
          "ticks": 68760,
          "time": 208.4631165,
          "velocity": 0.7874015748031497
        },
        {
          "duration": 0.15625,
          "durationTicks": 60,
          "midi": 54,
          "name": "F#3",
          "ticks": 68820,
          "time": 208.6193665,
          "velocity": 0.7874015748031497
        },
        {
          "duration": 0.15625,
          "durationTicks": 60,
          "midi": 55,
          "name": "G3",
          "ticks": 68880,
          "time": 208.7756165,
          "velocity": 0.7874015748031497
        },
        {
          "duration": 0.15625,
          "durationTicks": 60,
          "midi": 57,
          "name": "A3",
          "ticks": 68940,
          "time": 208.9318665,
          "velocity": 0.7874015748031497
        },
        {
          "duration": 0.9375,
          "durationTicks": 360,
          "midi": 59,
          "name": "B3",
          "ticks": 69000,
          "time": 209.0881165,
          "velocity": 0.7874015748031497
        },
        {
          "duration": 0.3125,
          "durationTicks": 120,
          "midi": 57,
          "name": "A3",
          "ticks": 69360,
          "time": 210.0256165,
          "velocity": 0.7874015748031497
        },
        {
          "duration": 0.3125,
          "durationTicks": 120,
          "midi": 59,
          "name": "B3",
          "ticks": 69480,
          "time": 210.3381165,
          "velocity": 0.7874015748031497
        },
        {
          "duration": 0.3125,
          "durationTicks": 120,
          "midi": 60,
          "name": "C4",
          "ticks": 69600,
          "time": 210.6506165,
          "velocity": 0.7874015748031497
        },
        {
          "duration": 0.9375,
          "durationTicks": 360,
          "midi": 59,
          "name": "B3",
          "ticks": 69720,
          "time": 210.9631165,
          "velocity": 0.7874015748031497
        },
        {
          "duration": 0.3125,
          "durationTicks": 120,
          "midi": 55,
          "name": "G3",
          "ticks": 70080,
          "time": 211.9006165,
          "velocity": 0.7874015748031497
        },
        {
          "duration": 0.3125,
          "durationTicks": 120,
          "midi": 59,
          "name": "B3",
          "ticks": 70200,
          "time": 212.2131165,
          "velocity": 0.7874015748031497
        },
        {
          "duration": 0.3125,
          "durationTicks": 120,
          "midi": 52,
          "name": "E3",
          "ticks": 70320,
          "time": 212.5256165,
          "velocity": 0.7874015748031497
        },
        {
          "duration": 0.15625,
          "durationTicks": 60,
          "midi": 57,
          "name": "A3",
          "ticks": 70440,
          "time": 212.8381165,
          "velocity": 0.7874015748031497
        },
        {
          "duration": 0.15625,
          "durationTicks": 60,
          "midi": 55,
          "name": "G3",
          "ticks": 70500,
          "time": 212.9943665,
          "velocity": 0.7874015748031497
        },
        {
          "duration": 0.15625,
          "durationTicks": 60,
          "midi": 54,
          "name": "F#3",
          "ticks": 70560,
          "time": 213.1506165,
          "velocity": 0.7874015748031497
        },
        {
          "duration": 0.15625,
          "durationTicks": 60,
          "midi": 55,
          "name": "G3",
          "ticks": 70620,
          "time": 213.3068665,
          "velocity": 0.7874015748031497
        },
        {
          "duration": 0.9375,
          "durationTicks": 360,
          "midi": 62,
          "name": "D4",
          "ticks": 70680,
          "time": 213.4631165,
          "velocity": 0.7874015748031497
        },
        {
          "duration": 0.3125,
          "durationTicks": 120,
          "midi": 60,
          "name": "C4",
          "ticks": 71040,
          "time": 214.4006165,
          "velocity": 0.7874015748031497
        },
        {
          "duration": 0.3125,
          "durationTicks": 120,
          "midi": 54,
          "name": "F#3",
          "ticks": 71160,
          "time": 214.7131165,
          "velocity": 0.7874015748031497
        },
        {
          "duration": 0.3125,
          "durationTicks": 120,
          "midi": 57,
          "name": "A3",
          "ticks": 71280,
          "time": 215.0256165,
          "velocity": 0.7874015748031497
        },
        {
          "duration": 1.5625,
          "durationTicks": 600,
          "midi": 50,
          "name": "D3",
          "ticks": 71400,
          "time": 215.3381165,
          "velocity": 0.7874015748031497
        },
        {
          "duration": 0.625,
          "durationTicks": 240,
          "midi": 55,
          "name": "G3",
          "ticks": 72000,
          "time": 216.9006165,
          "velocity": 0.7874015748031497
        },
        {
          "duration": 0.3125,
          "durationTicks": 120,
          "midi": 57,
          "name": "A3",
          "ticks": 72240,
          "time": 217.5256165,
          "velocity": 0.7874015748031497
        },
        {
          "duration": 0.3125,
          "durationTicks": 120,
          "midi": 60,
          "name": "C4",
          "ticks": 72360,
          "time": 217.8381165,
          "velocity": 0.7874015748031497
        },
        {
          "duration": 0.3125,
          "durationTicks": 120,
          "midi": 54,
          "name": "F#3",
          "ticks": 72480,
          "time": 218.1506165,
          "velocity": 0.7874015748031497
        },
        {
          "duration": 0.25,
          "durationTicks": 120,
          "midi": 55,
          "name": "G3",
          "ticks": 72600,
          "time": 218.4631165,
          "velocity": 0.7874015748031497
        },
        {
          "duration": 0.25,
          "durationTicks": 120,
          "midi": 57,
          "name": "A3",
          "ticks": 72720,
          "time": 218.7131165,
          "velocity": 0.7874015748031497
        },
        {
          "duration": 0.5,
          "durationTicks": 240,
          "midi": 55,
          "name": "G3",
          "ticks": 72840,
          "time": 218.9631165,
          "velocity": 0.7874015748031497
        },
        {
          "duration": 0.1456309999999803,
          "durationTicks": 60,
          "midi": 43,
          "name": "G2",
          "ticks": 97320,
          "time": 270.29321250000004,
          "velocity": 0.7874015748031497
        },
        {
          "duration": 0.1456309999999803,
          "durationTicks": 60,
          "midi": 42,
          "name": "F#2",
          "ticks": 97380,
          "time": 270.4388435,
          "velocity": 0.7874015748031497
        },
        {
          "duration": 0.14563100000003715,
          "durationTicks": 60,
          "midi": 43,
          "name": "G2",
          "ticks": 97440,
          "time": 270.5844745,
          "velocity": 0.7874015748031497
        },
        {
          "duration": 0.1456309999999803,
          "durationTicks": 60,
          "midi": 45,
          "name": "A2",
          "ticks": 97500,
          "time": 270.73010550000004,
          "velocity": 0.7874015748031497
        },
        {
          "duration": 0.1456309999999803,
          "durationTicks": 60,
          "midi": 47,
          "name": "B2",
          "ticks": 97560,
          "time": 270.8757365,
          "velocity": 0.7874015748031497
        },
        {
          "duration": 0.14563100000003715,
          "durationTicks": 60,
          "midi": 43,
          "name": "G2",
          "ticks": 97620,
          "time": 271.0213675,
          "velocity": 0.7874015748031497
        },
        {
          "duration": 0.1456309999999803,
          "durationTicks": 60,
          "midi": 50,
          "name": "D3",
          "ticks": 97680,
          "time": 271.16699850000003,
          "velocity": 0.7874015748031497
        },
        {
          "duration": 0.1456309999999803,
          "durationTicks": 60,
          "midi": 48,
          "name": "C3",
          "ticks": 97740,
          "time": 271.3126295,
          "velocity": 0.7874015748031497
        },
        {
          "duration": 0.14563100000003715,
          "durationTicks": 60,
          "midi": 50,
          "name": "D3",
          "ticks": 97800,
          "time": 271.4582605,
          "velocity": 0.7874015748031497
        },
        {
          "duration": 0.1456309999999803,
          "durationTicks": 60,
          "midi": 52,
          "name": "E3",
          "ticks": 97860,
          "time": 271.60389150000003,
          "velocity": 0.7874015748031497
        },
        {
          "duration": 0.1456309999999803,
          "durationTicks": 60,
          "midi": 54,
          "name": "F#3",
          "ticks": 97920,
          "time": 271.7495225,
          "velocity": 0.7874015748031497
        },
        {
          "duration": 0.14563100000003715,
          "durationTicks": 60,
          "midi": 50,
          "name": "D3",
          "ticks": 97980,
          "time": 271.8951535,
          "velocity": 0.7874015748031497
        },
        {
          "duration": 0.1456309999999803,
          "durationTicks": 60,
          "midi": 55,
          "name": "G3",
          "ticks": 98040,
          "time": 272.04078450000003,
          "velocity": 0.7874015748031497
        },
        {
          "duration": 0.1456309999999803,
          "durationTicks": 60,
          "midi": 54,
          "name": "F#3",
          "ticks": 98100,
          "time": 272.1864155,
          "velocity": 0.7874015748031497
        },
        {
          "duration": 0.14563100000003715,
          "durationTicks": 60,
          "midi": 52,
          "name": "E3",
          "ticks": 98160,
          "time": 272.3320465,
          "velocity": 0.7874015748031497
        },
        {
          "duration": 0.1456309999999803,
          "durationTicks": 60,
          "midi": 54,
          "name": "F#3",
          "ticks": 98220,
          "time": 272.4776775,
          "velocity": 0.7874015748031497
        },
        {
          "duration": 0.1456309999999803,
          "durationTicks": 60,
          "midi": 55,
          "name": "G3",
          "ticks": 98280,
          "time": 272.6233085,
          "velocity": 0.7874015748031497
        },
        {
          "duration": 0.14563100000003715,
          "durationTicks": 60,
          "midi": 52,
          "name": "E3",
          "ticks": 98340,
          "time": 272.7689395,
          "velocity": 0.7874015748031497
        },
        {
          "duration": 0.1456309999999803,
          "durationTicks": 60,
          "midi": 57,
          "name": "A3",
          "ticks": 98400,
          "time": 272.9145705,
          "velocity": 0.7874015748031497
        },
        {
          "duration": 0.1456309999999803,
          "durationTicks": 60,
          "midi": 55,
          "name": "G3",
          "ticks": 98460,
          "time": 273.0602015,
          "velocity": 0.7874015748031497
        },
        {
          "duration": 0.14563100000003715,
          "durationTicks": 60,
          "midi": 54,
          "name": "F#3",
          "ticks": 98520,
          "time": 273.2058325,
          "velocity": 0.7874015748031497
        },
        {
          "duration": 0.1456309999999803,
          "durationTicks": 60,
          "midi": 55,
          "name": "G3",
          "ticks": 98580,
          "time": 273.3514635,
          "velocity": 0.7874015748031497
        },
        {
          "duration": 0.1456309999999803,
          "durationTicks": 60,
          "midi": 57,
          "name": "A3",
          "ticks": 98640,
          "time": 273.4970945,
          "velocity": 0.7874015748031497
        },
        {
          "duration": 0.14563100000003715,
          "durationTicks": 60,
          "midi": 54,
          "name": "F#3",
          "ticks": 98700,
          "time": 273.6427255,
          "velocity": 0.7874015748031497
        },
        {
          "duration": 0.1456309999999803,
          "durationTicks": 60,
          "midi": 59,
          "name": "B3",
          "ticks": 98760,
          "time": 273.7883565,
          "velocity": 0.7874015748031497
        },
        {
          "duration": 0.14563100000003715,
          "durationTicks": 60,
          "midi": 57,
          "name": "A3",
          "ticks": 98820,
          "time": 273.9339875,
          "velocity": 0.7874015748031497
        },
        {
          "duration": 0.1456309999999803,
          "durationTicks": 60,
          "midi": 55,
          "name": "G3",
          "ticks": 98880,
          "time": 274.07961850000004,
          "velocity": 0.7874015748031497
        },
        {
          "duration": 0.1456309999999803,
          "durationTicks": 60,
          "midi": 57,
          "name": "A3",
          "ticks": 98940,
          "time": 274.2252495,
          "velocity": 0.7874015748031497
        },
        {
          "duration": 0.14563100000003715,
          "durationTicks": 60,
          "midi": 59,
          "name": "B3",
          "ticks": 99000,
          "time": 274.3708805,
          "velocity": 0.7874015748031497
        },
        {
          "duration": 0.1456309999999803,
          "durationTicks": 60,
          "midi": 55,
          "name": "G3",
          "ticks": 99060,
          "time": 274.51651150000004,
          "velocity": 0.7874015748031497
        },
        {
          "duration": 0.1456309999999803,
          "durationTicks": 60,
          "midi": 60,
          "name": "C4",
          "ticks": 99120,
          "time": 274.6621425,
          "velocity": 0.7874015748031497
        },
        {
          "duration": 0.14563100000003715,
          "durationTicks": 60,
          "midi": 59,
          "name": "B3",
          "ticks": 99180,
          "time": 274.8077735,
          "velocity": 0.7874015748031497
        },
        {
          "duration": 0.1456309999999803,
          "durationTicks": 60,
          "midi": 57,
          "name": "A3",
          "ticks": 99240,
          "time": 274.95340450000003,
          "velocity": 0.7874015748031497
        },
        {
          "duration": 0.1456309999999803,
          "durationTicks": 60,
          "midi": 55,
          "name": "G3",
          "ticks": 99300,
          "time": 275.0990355,
          "velocity": 0.7874015748031497
        },
        {
          "duration": 0.14563100000003715,
          "durationTicks": 60,
          "midi": 54,
          "name": "F#3",
          "ticks": 99360,
          "time": 275.2446665,
          "velocity": 0.7874015748031497
        },
        {
          "duration": 0.1456309999999803,
          "durationTicks": 60,
          "midi": 52,
          "name": "E3",
          "ticks": 99420,
          "time": 275.39029750000003,
          "velocity": 0.7874015748031497
        },
        {
          "duration": 0.1456309999999803,
          "durationTicks": 60,
          "midi": 54,
          "name": "F#3",
          "ticks": 99480,
          "time": 275.5359285,
          "velocity": 0.7874015748031497
        },
        {
          "duration": 0.14563100000003715,
          "durationTicks": 60,
          "midi": 52,
          "name": "E3",
          "ticks": 99540,
          "time": 275.6815595,
          "velocity": 0.7874015748031497
        },
        {
          "duration": 0.1456309999999803,
          "durationTicks": 60,
          "midi": 54,
          "name": "F#3",
          "ticks": 99600,
          "time": 275.82719050000003,
          "velocity": 0.7874015748031497
        },
        {
          "duration": 0.1456309999999803,
          "durationTicks": 60,
          "midi": 50,
          "name": "D3",
          "ticks": 99660,
          "time": 275.9728215,
          "velocity": 0.7874015748031497
        },
        {
          "duration": 0.14563100000003715,
          "durationTicks": 60,
          "midi": 52,
          "name": "E3",
          "ticks": 99720,
          "time": 276.1184525,
          "velocity": 0.7874015748031497
        },
        {
          "duration": 0.1456309999999803,
          "durationTicks": 60,
          "midi": 54,
          "name": "F#3",
          "ticks": 99780,
          "time": 276.2640835,
          "velocity": 0.7874015748031497
        },
        {
          "duration": 0.1456309999999803,
          "durationTicks": 60,
          "midi": 55,
          "name": "G3",
          "ticks": 99840,
          "time": 276.4097145,
          "velocity": 0.7874015748031497
        },
        {
          "duration": 0.14563100000003715,
          "durationTicks": 60,
          "midi": 52,
          "name": "E3",
          "ticks": 99900,
          "time": 276.5553455,
          "velocity": 0.7874015748031497
        },
        {
          "duration": 0.1456309999999803,
          "durationTicks": 60,
          "midi": 50,
          "name": "D3",
          "ticks": 99960,
          "time": 276.7009765,
          "velocity": 0.7874015748031497
        },
        {
          "duration": 0.1456309999999803,
          "durationTicks": 60,
          "midi": 48,
          "name": "C3",
          "ticks": 100020,
          "time": 276.8466075,
          "velocity": 0.7874015748031497
        },
        {
          "duration": 0.14563100000003715,
          "durationTicks": 60,
          "midi": 47,
          "name": "B2",
          "ticks": 100080,
          "time": 276.9922385,
          "velocity": 0.7874015748031497
        },
        {
          "duration": 0.1456309999999803,
          "durationTicks": 60,
          "midi": 45,
          "name": "A2",
          "ticks": 100140,
          "time": 277.1378695,
          "velocity": 0.7874015748031497
        },
        {
          "duration": 0.14563100000003715,
          "durationTicks": 60,
          "midi": 43,
          "name": "G2",
          "ticks": 100200,
          "time": 277.2835005,
          "velocity": 0.7874015748031497
        },
        {
          "duration": 0.1456309999999803,
          "durationTicks": 60,
          "midi": 54,
          "name": "F#3",
          "ticks": 100260,
          "time": 277.42913150000004,
          "velocity": 0.7874015748031497
        },
        {
          "duration": 0.1456309999999803,
          "durationTicks": 60,
          "midi": 52,
          "name": "E3",
          "ticks": 100320,
          "time": 277.5747625,
          "velocity": 0.7874015748031497
        },
        {
          "duration": 0.14563100000003715,
          "durationTicks": 60,
          "midi": 50,
          "name": "D3",
          "ticks": 100380,
          "time": 277.7203935,
          "velocity": 0.7874015748031497
        },
        {
          "duration": 0.1456309999999803,
          "durationTicks": 60,
          "midi": 48,
          "name": "C3",
          "ticks": 100440,
          "time": 277.86602450000004,
          "velocity": 0.7874015748031497
        },
        {
          "duration": 0.1456309999999803,
          "durationTicks": 60,
          "midi": 47,
          "name": "B2",
          "ticks": 100500,
          "time": 278.0116555,
          "velocity": 0.7874015748031497
        },
        {
          "duration": 0.14563100000003715,
          "durationTicks": 60,
          "midi": 49,
          "name": "C#3",
          "ticks": 100560,
          "time": 278.1572865,
          "velocity": 0.7874015748031497
        },
        {
          "duration": 0.1456309999999803,
          "durationTicks": 60,
          "midi": 45,
          "name": "A2",
          "ticks": 100620,
          "time": 278.30291750000004,
          "velocity": 0.7874015748031497
        },
        {
          "duration": 0.1456309999999803,
          "durationTicks": 60,
          "midi": 50,
          "name": "D3",
          "ticks": 100680,
          "time": 278.4485485,
          "velocity": 0.7874015748031497
        },
        {
          "duration": 0.14563100000003715,
          "durationTicks": 60,
          "midi": 52,
          "name": "E3",
          "ticks": 100740,
          "time": 278.5941795,
          "velocity": 0.7874015748031497
        },
        {
          "duration": 0.1456309999999803,
          "durationTicks": 60,
          "midi": 54,
          "name": "F#3",
          "ticks": 100800,
          "time": 278.73981050000003,
          "velocity": 0.7874015748031497
        },
        {
          "duration": 0.1456309999999803,
          "durationTicks": 60,
          "midi": 50,
          "name": "D3",
          "ticks": 100860,
          "time": 278.8854415,
          "velocity": 0.7874015748031497
        },
        {
          "duration": 0.14563100000003715,
          "durationTicks": 60,
          "midi": 55,
          "name": "G3",
          "ticks": 100920,
          "time": 279.0310725,
          "velocity": 0.7874015748031497
        },
        {
          "duration": 0.1456309999999803,
          "durationTicks": 60,
          "midi": 54,
          "name": "F#3",
          "ticks": 100980,
          "time": 279.17670350000003,
          "velocity": 0.7874015748031497
        },
        {
          "duration": 0.1456309999999803,
          "durationTicks": 60,
          "midi": 52,
          "name": "E3",
          "ticks": 101040,
          "time": 279.3223345,
          "velocity": 0.7874015748031497
        },
        {
          "duration": 0.14563100000003715,
          "durationTicks": 60,
          "midi": 54,
          "name": "F#3",
          "ticks": 101100,
          "time": 279.4679655,
          "velocity": 0.7874015748031497
        },
        {
          "duration": 0.1456309999999803,
          "durationTicks": 60,
          "midi": 55,
          "name": "G3",
          "ticks": 101160,
          "time": 279.6135965,
          "velocity": 0.7874015748031497
        },
        {
          "duration": 0.1456309999999803,
          "durationTicks": 60,
          "midi": 52,
          "name": "E3",
          "ticks": 101220,
          "time": 279.7592275,
          "velocity": 0.7874015748031497
        },
        {
          "duration": 0.14563100000003715,
          "durationTicks": 60,
          "midi": 57,
          "name": "A3",
          "ticks": 101280,
          "time": 279.9048585,
          "velocity": 0.7874015748031497
        },
        {
          "duration": 0.1456309999999803,
          "durationTicks": 60,
          "midi": 55,
          "name": "G3",
          "ticks": 101340,
          "time": 280.0504895,
          "velocity": 0.7874015748031497
        },
        {
          "duration": 0.1456309999999803,
          "durationTicks": 60,
          "midi": 54,
          "name": "F#3",
          "ticks": 101400,
          "time": 280.1961205,
          "velocity": 0.7874015748031497
        },
        {
          "duration": 0.14563100000003715,
          "durationTicks": 60,
          "midi": 55,
          "name": "G3",
          "ticks": 101460,
          "time": 280.3417515,
          "velocity": 0.7874015748031497
        },
        {
          "duration": 0.1456309999999803,
          "durationTicks": 60,
          "midi": 57,
          "name": "A3",
          "ticks": 101520,
          "time": 280.4873825,
          "velocity": 0.7874015748031497
        },
        {
          "duration": 0.1456309999999803,
          "durationTicks": 60,
          "midi": 54,
          "name": "F#3",
          "ticks": 101580,
          "time": 280.6330135,
          "velocity": 0.7874015748031497
        },
        {
          "duration": 0.14563100000003715,
          "durationTicks": 60,
          "midi": 59,
          "name": "B3",
          "ticks": 101640,
          "time": 280.7786445,
          "velocity": 0.7874015748031497
        },
        {
          "duration": 0.1456309999999803,
          "durationTicks": 60,
          "midi": 57,
          "name": "A3",
          "ticks": 101700,
          "time": 280.9242755,
          "velocity": 0.7874015748031497
        },
        {
          "duration": 0.1456309999999803,
          "durationTicks": 60,
          "midi": 55,
          "name": "G3",
          "ticks": 101760,
          "time": 281.0699065,
          "velocity": 0.7874015748031497
        },
        {
          "duration": 0.14563100000003715,
          "durationTicks": 60,
          "midi": 57,
          "name": "A3",
          "ticks": 101820,
          "time": 281.2155375,
          "velocity": 0.7874015748031497
        },
        {
          "duration": 0.1456309999999803,
          "durationTicks": 60,
          "midi": 59,
          "name": "B3",
          "ticks": 101880,
          "time": 281.3611685,
          "velocity": 0.7874015748031497
        },
        {
          "duration": 0.14563100000003715,
          "durationTicks": 60,
          "midi": 57,
          "name": "A3",
          "ticks": 101940,
          "time": 281.5067995,
          "velocity": 0.7874015748031497
        },
        {
          "duration": 0.2912619999999606,
          "durationTicks": 120,
          "midi": 56,
          "name": "G#3",
          "ticks": 102000,
          "time": 281.65243050000004,
          "velocity": 0.7874015748031497
        },
        {
          "duration": 0.29126200000001745,
          "durationTicks": 120,
          "midi": 44,
          "name": "G#2",
          "ticks": 102120,
          "time": 281.9436925,
          "velocity": 0.7874015748031497
        },
        {
          "duration": 0.2912619999999606,
          "durationTicks": 120,
          "midi": 45,
          "name": "A2",
          "ticks": 102360,
          "time": 282.52621650000003,
          "velocity": 0.7874015748031497
        },
        {
          "duration": 0.29126200000001745,
          "durationTicks": 120,
          "midi": 33,
          "name": "A1",
          "ticks": 102480,
          "time": 282.8174785,
          "velocity": 0.7874015748031497
        },
        {
          "duration": 0.2912619999999606,
          "durationTicks": 120,
          "midi": 38,
          "name": "D2",
          "ticks": 102720,
          "time": 283.4000025,
          "velocity": 0.7874015748031497
        },
        {
          "duration": 0.29126200000001745,
          "durationTicks": 120,
          "midi": 42,
          "name": "F#2",
          "ticks": 102840,
          "time": 283.6912645,
          "velocity": 0.7874015748031497
        },
        {
          "duration": 0.29126200000001745,
          "durationTicks": 120,
          "midi": 45,
          "name": "A2",
          "ticks": 102960,
          "time": 283.9825265,
          "velocity": 0.7874015748031497
        },
        {
          "duration": 0.1456309999999803,
          "durationTicks": 60,
          "midi": 50,
          "name": "D3",
          "ticks": 103080,
          "time": 284.2737885,
          "velocity": 0.7874015748031497
        },
        {
          "duration": 0.1456309999999803,
          "durationTicks": 60,
          "midi": 49,
          "name": "C#3",
          "ticks": 103140,
          "time": 284.4194195,
          "velocity": 0.7874015748031497
        },
        {
          "duration": 0.14563100000003715,
          "durationTicks": 60,
          "midi": 50,
          "name": "D3",
          "ticks": 103200,
          "time": 284.5650505,
          "velocity": 0.7874015748031497
        },
        {
          "duration": 0.1456309999999803,
          "durationTicks": 60,
          "midi": 52,
          "name": "E3",
          "ticks": 103260,
          "time": 284.7106815,
          "velocity": 0.7874015748031497
        },
        {
          "duration": 0.14563100000003715,
          "durationTicks": 60,
          "midi": 54,
          "name": "F#3",
          "ticks": 103320,
          "time": 284.8563125,
          "velocity": 0.7874015748031497
        },
        {
          "duration": 0.1456309999999803,
          "durationTicks": 60,
          "midi": 50,
          "name": "D3",
          "ticks": 103380,
          "time": 285.00194350000004,
          "velocity": 0.7874015748031497
        },
        {
          "duration": 0.1456309999999803,
          "durationTicks": 60,
          "midi": 55,
          "name": "G3",
          "ticks": 103440,
          "time": 285.1475745,
          "velocity": 0.7874015748031497
        },
        {
          "duration": 0.14563100000003715,
          "durationTicks": 60,
          "midi": 54,
          "name": "F#3",
          "ticks": 103500,
          "time": 285.2932055,
          "velocity": 0.7874015748031497
        },
        {
          "duration": 0.1456309999999803,
          "durationTicks": 60,
          "midi": 52,
          "name": "E3",
          "ticks": 103560,
          "time": 285.43883650000004,
          "velocity": 0.7874015748031497
        },
        {
          "duration": 0.1456309999999803,
          "durationTicks": 60,
          "midi": 54,
          "name": "F#3",
          "ticks": 103620,
          "time": 285.5844675,
          "velocity": 0.7874015748031497
        },
        {
          "duration": 0.14563100000003715,
          "durationTicks": 60,
          "midi": 55,
          "name": "G3",
          "ticks": 103680,
          "time": 285.7300985,
          "velocity": 0.7874015748031497
        },
        {
          "duration": 0.1456309999999803,
          "durationTicks": 60,
          "midi": 52,
          "name": "E3",
          "ticks": 103740,
          "time": 285.87572950000003,
          "velocity": 0.7874015748031497
        },
        {
          "duration": 0.1456309999999803,
          "durationTicks": 60,
          "midi": 57,
          "name": "A3",
          "ticks": 103800,
          "time": 286.0213605,
          "velocity": 0.7874015748031497
        },
        {
          "duration": 0.14563100000003715,
          "durationTicks": 60,
          "midi": 55,
          "name": "G3",
          "ticks": 103860,
          "time": 286.1669915,
          "velocity": 0.7874015748031497
        },
        {
          "duration": 0.1456309999999803,
          "durationTicks": 60,
          "midi": 54,
          "name": "F#3",
          "ticks": 103920,
          "time": 286.31262250000003,
          "velocity": 0.7874015748031497
        },
        {
          "duration": 0.1456309999999803,
          "durationTicks": 60,
          "midi": 55,
          "name": "G3",
          "ticks": 103980,
          "time": 286.4582535,
          "velocity": 0.7874015748031497
        },
        {
          "duration": 0.14563100000003715,
          "durationTicks": 60,
          "midi": 57,
          "name": "A3",
          "ticks": 104040,
          "time": 286.6038845,
          "velocity": 0.7874015748031497
        },
        {
          "duration": 0.1456309999999803,
          "durationTicks": 60,
          "midi": 54,
          "name": "F#3",
          "ticks": 104100,
          "time": 286.74951550000003,
          "velocity": 0.7874015748031497
        },
        {
          "duration": 0.1456309999999803,
          "durationTicks": 60,
          "midi": 59,
          "name": "B3",
          "ticks": 104160,
          "time": 286.8951465,
          "velocity": 0.7874015748031497
        },
        {
          "duration": 0.14563100000003715,
          "durationTicks": 60,
          "midi": 57,
          "name": "A3",
          "ticks": 104220,
          "time": 287.0407775,
          "velocity": 0.7874015748031497
        },
        {
          "duration": 0.1456309999999803,
          "durationTicks": 60,
          "midi": 56,
          "name": "G#3",
          "ticks": 104280,
          "time": 287.1864085,
          "velocity": 0.7874015748031497
        },
        {
          "duration": 0.1456309999999803,
          "durationTicks": 60,
          "midi": 57,
          "name": "A3",
          "ticks": 104340,
          "time": 287.3320395,
          "velocity": 0.7874015748031497
        },
        {
          "duration": 0.14563100000003715,
          "durationTicks": 60,
          "midi": 59,
          "name": "B3",
          "ticks": 104400,
          "time": 287.4776705,
          "velocity": 0.7874015748031497
        },
        {
          "duration": 0.1456309999999803,
          "durationTicks": 60,
          "midi": 56,
          "name": "G#3",
          "ticks": 104460,
          "time": 287.6233015,
          "velocity": 0.7874015748031497
        },
        {
          "duration": 0.1456309999999803,
          "durationTicks": 60,
          "midi": 60,
          "name": "C4",
          "ticks": 104520,
          "time": 287.7689325,
          "velocity": 0.7874015748031497
        },
        {
          "duration": 0.14563100000003715,
          "durationTicks": 60,
          "midi": 59,
          "name": "B3",
          "ticks": 104580,
          "time": 287.9145635,
          "velocity": 0.7874015748031497
        },
        {
          "duration": 0.1456309999999803,
          "durationTicks": 60,
          "midi": 57,
          "name": "A3",
          "ticks": 104640,
          "time": 288.0601945,
          "velocity": 0.7874015748031497
        },
        {
          "duration": 0.1456309999999803,
          "durationTicks": 60,
          "midi": 59,
          "name": "B3",
          "ticks": 104700,
          "time": 288.2058255,
          "velocity": 0.7874015748031497
        },
        {
          "duration": 0.14563100000003715,
          "durationTicks": 60,
          "midi": 60,
          "name": "C4",
          "ticks": 104760,
          "time": 288.3514565,
          "velocity": 0.7874015748031497
        },
        {
          "duration": 0.1456309999999803,
          "durationTicks": 60,
          "midi": 59,
          "name": "B3",
          "ticks": 104820,
          "time": 288.4970875,
          "velocity": 0.7874015748031497
        },
        {
          "duration": 0.29126200000001745,
          "durationTicks": 120,
          "midi": 58,
          "name": "A#3",
          "ticks": 104880,
          "time": 288.6427185,
          "velocity": 0.7874015748031497
        },
        {
          "duration": 0.29126200000001745,
          "durationTicks": 120,
          "midi": 46,
          "name": "A#2",
          "ticks": 105000,
          "time": 288.9339805,
          "velocity": 0.7874015748031497
        },
        {
          "duration": 0.29126200000001745,
          "durationTicks": 120,
          "midi": 47,
          "name": "B2",
          "ticks": 105240,
          "time": 289.5165045,
          "velocity": 0.7874015748031497
        },
        {
          "duration": 0.29126200000001745,
          "durationTicks": 120,
          "midi": 35,
          "name": "B1",
          "ticks": 105360,
          "time": 289.8077665,
          "velocity": 0.7874015748031497
        },
        {
          "duration": 0.29126200000001745,
          "durationTicks": 120,
          "midi": 40,
          "name": "E2",
          "ticks": 105600,
          "time": 290.3902905,
          "velocity": 0.7874015748031497
        },
        {
          "duration": 0.1456309999999803,
          "durationTicks": 60,
          "midi": 52,
          "name": "E3",
          "ticks": 105720,
          "time": 290.6815525,
          "velocity": 0.7874015748031497
        },
        {
          "duration": 0.14563100000003715,
          "durationTicks": 60,
          "midi": 50,
          "name": "D3",
          "ticks": 105780,
          "time": 290.8271835,
          "velocity": 0.7874015748031497
        },
        {
          "duration": 0.1456309999999803,
          "durationTicks": 60,
          "midi": 48,
          "name": "C3",
          "ticks": 105840,
          "time": 290.9728145,
          "velocity": 0.7874015748031497
        },
        {
          "duration": 0.1456309999999803,
          "durationTicks": 60,
          "midi": 47,
          "name": "B2",
          "ticks": 105900,
          "time": 291.1184455,
          "velocity": 0.7874015748031497
        },
        {
          "duration": 0.14563100000003715,
          "durationTicks": 60,
          "midi": 45,
          "name": "A2",
          "ticks": 105960,
          "time": 291.2640765,
          "velocity": 0.7874015748031497
        },
        {
          "duration": 0.1456309999999803,
          "durationTicks": 60,
          "midi": 48,
          "name": "C3",
          "ticks": 106020,
          "time": 291.4097075,
          "velocity": 0.7874015748031497
        },
        {
          "duration": 0.1456309999999803,
          "durationTicks": 60,
          "midi": 52,
          "name": "E3",
          "ticks": 106080,
          "time": 291.5553385,
          "velocity": 0.7874015748031497
        },
        {
          "duration": 0.14563100000003715,
          "durationTicks": 60,
          "midi": 55,
          "name": "G3",
          "ticks": 106140,
          "time": 291.7009695,
          "velocity": 0.7874015748031497
        },
        {
          "duration": 0.1456309999999803,
          "durationTicks": 60,
          "midi": 54,
          "name": "F#3",
          "ticks": 106200,
          "time": 291.8466005,
          "velocity": 0.7874015748031497
        },
        {
          "duration": 0.1456309999999803,
          "durationTicks": 60,
          "midi": 52,
          "name": "E3",
          "ticks": 106260,
          "time": 291.9922315,
          "velocity": 0.7874015748031497
        },
        {
          "duration": 0.29126200000001745,
          "durationTicks": 120,
          "midi": 54,
          "name": "F#3",
          "ticks": 106320,
          "time": 292.1378625,
          "velocity": 0.7874015748031497
        },
        {
          "duration": 0.29126200000001745,
          "durationTicks": 120,
          "midi": 43,
          "name": "G2",
          "ticks": 106440,
          "time": 292.4291245,
          "velocity": 0.7874015748031497
        },
        {
          "duration": 0.2912619999999606,
          "durationTicks": 120,
          "midi": 55,
          "name": "G3",
          "ticks": 106680,
          "time": 293.01164850000004,
          "velocity": 0.7874015748031497
        },
        {
          "duration": 0.29126200000001745,
          "durationTicks": 120,
          "midi": 45,
          "name": "A2",
          "ticks": 106800,
          "time": 293.3029105,
          "velocity": 0.7874015748031497
        },
        {
          "duration": 0.2912619999999606,
          "durationTicks": 120,
          "midi": 57,
          "name": "A3",
          "ticks": 107040,
          "time": 293.88543450000003,
          "velocity": 0.7874015748031497
        },
        {
          "duration": 0.29126200000001745,
          "durationTicks": 120,
          "midi": 47,
          "name": "B2",
          "ticks": 107160,
          "time": 294.1766965,
          "velocity": 0.7874015748031497
        },
        {
          "duration": 0.2912619999999606,
          "durationTicks": 120,
          "midi": 59,
          "name": "B3",
          "ticks": 107400,
          "time": 294.7592205,
          "velocity": 0.7874015748031497
        },
        {
          "duration": 0.29126200000001745,
          "durationTicks": 120,
          "midi": 48,
          "name": "C3",
          "ticks": 107520,
          "time": 295.0504825,
          "velocity": 0.7874015748031497
        },
        {
          "duration": 0.29126200000001745,
          "durationTicks": 120,
          "midi": 49,
          "name": "C#3",
          "ticks": 107760,
          "time": 295.6330065,
          "velocity": 0.7874015748031497
        },
        {
          "duration": 0.2912619999999606,
          "durationTicks": 120,
          "midi": 37,
          "name": "C#2",
          "ticks": 107880,
          "time": 295.92426850000004,
          "velocity": 0.7874015748031497
        },
        {
          "duration": 0.29126200000001745,
          "durationTicks": 120,
          "midi": 49,
          "name": "C#3",
          "ticks": 108000,
          "time": 296.2155305,
          "velocity": 0.7874015748031497
        },
        {
          "duration": 0.29126200000001745,
          "durationTicks": 120,
          "midi": 50,
          "name": "D3",
          "ticks": 108120,
          "time": 296.5067925,
          "velocity": 0.7874015748031497
        },
        {
          "duration": 0.2912619999999606,
          "durationTicks": 120,
          "midi": 38,
          "name": "D2",
          "ticks": 108240,
          "time": 296.79805450000003,
          "velocity": 0.7874015748031497
        },
        {
          "duration": 0.29126200000001745,
          "durationTicks": 120,
          "midi": 50,
          "name": "D3",
          "ticks": 108360,
          "time": 297.0893165,
          "velocity": 0.7874015748031497
        },
        {
          "duration": 0.29126200000001745,
          "durationTicks": 120,
          "midi": 43,
          "name": "G2",
          "ticks": 108480,
          "time": 297.3805785,
          "velocity": 0.7874015748031497
        },
        {
          "duration": 0.2912619999999606,
          "durationTicks": 120,
          "midi": 50,
          "name": "D3",
          "ticks": 108600,
          "time": 297.67184050000003,
          "velocity": 0.7874015748031497
        },
        {
          "duration": 0.29126200000001745,
          "durationTicks": 120,
          "midi": 55,
          "name": "G3",
          "ticks": 108720,
          "time": 297.9631025,
          "velocity": 0.7874015748031497
        },
        {
          "duration": 0.234375,
          "durationTicks": 120,
          "midi": 55,
          "name": "G3",
          "ticks": 132600,
          "time": 339.7174375,
          "velocity": 0.7874015748031497
        },
        {
          "duration": 0.234375,
          "durationTicks": 120,
          "midi": 50,
          "name": "D3",
          "ticks": 132720,
          "time": 339.9518125,
          "velocity": 0.7874015748031497
        },
        {
          "duration": 0.234375,
          "durationTicks": 120,
          "midi": 47,
          "name": "B2",
          "ticks": 132840,
          "time": 340.1861875,
          "velocity": 0.7874015748031497
        },
        {
          "duration": 0.234375,
          "durationTicks": 120,
          "midi": 43,
          "name": "G2",
          "ticks": 132960,
          "time": 340.4205625,
          "velocity": 0.7874015748031497
        },
        {
          "duration": 0.1171875,
          "durationTicks": 60,
          "midi": 55,
          "name": "G3",
          "ticks": 133140,
          "time": 340.772125,
          "velocity": 0.7874015748031497
        },
        {
          "duration": 0.1171875,
          "durationTicks": 60,
          "midi": 54,
          "name": "F#3",
          "ticks": 133200,
          "time": 340.8893125,
          "velocity": 0.7874015748031497
        },
        {
          "duration": 0.1171875,
          "durationTicks": 60,
          "midi": 52,
          "name": "E3",
          "ticks": 133260,
          "time": 341.0065,
          "velocity": 0.7874015748031497
        },
        {
          "duration": 0.234375,
          "durationTicks": 120,
          "midi": 54,
          "name": "F#3",
          "ticks": 133320,
          "time": 341.1236875,
          "velocity": 0.7874015748031497
        },
        {
          "duration": 0.234375,
          "durationTicks": 120,
          "midi": 50,
          "name": "D3",
          "ticks": 133440,
          "time": 341.3580625,
          "velocity": 0.7874015748031497
        },
        {
          "duration": 0.234375,
          "durationTicks": 120,
          "midi": 45,
          "name": "A2",
          "ticks": 133560,
          "time": 341.5924375,
          "velocity": 0.7874015748031497
        },
        {
          "duration": 0.234375,
          "durationTicks": 120,
          "midi": 42,
          "name": "F#2",
          "ticks": 133680,
          "time": 341.8268125,
          "velocity": 0.7874015748031497
        },
        {
          "duration": 0.1171875,
          "durationTicks": 60,
          "midi": 54,
          "name": "F#3",
          "ticks": 133860,
          "time": 342.178375,
          "velocity": 0.7874015748031497
        },
        {
          "duration": 0.1171875,
          "durationTicks": 60,
          "midi": 52,
          "name": "E3",
          "ticks": 133920,
          "time": 342.2955625,
          "velocity": 0.7874015748031497
        },
        {
          "duration": 0.1171875,
          "durationTicks": 60,
          "midi": 50,
          "name": "D3",
          "ticks": 133980,
          "time": 342.41275,
          "velocity": 0.7874015748031497
        },
        {
          "duration": 0.234375,
          "durationTicks": 120,
          "midi": 52,
          "name": "E3",
          "ticks": 134040,
          "time": 342.5299375,
          "velocity": 0.7874015748031497
        },
        {
          "duration": 0.234375,
          "durationTicks": 120,
          "midi": 47,
          "name": "B2",
          "ticks": 134160,
          "time": 342.7643125,
          "velocity": 0.7874015748031497
        },
        {
          "duration": 0.234375,
          "durationTicks": 120,
          "midi": 43,
          "name": "G2",
          "ticks": 134280,
          "time": 342.9986875,
          "velocity": 0.7874015748031497
        },
        {
          "duration": 0.234375,
          "durationTicks": 120,
          "midi": 40,
          "name": "E2",
          "ticks": 134400,
          "time": 343.2330625,
          "velocity": 0.7874015748031497
        },
        {
          "duration": 0.1171875,
          "durationTicks": 60,
          "midi": 52,
          "name": "E3",
          "ticks": 134580,
          "time": 343.584625,
          "velocity": 0.7874015748031497
        },
        {
          "duration": 0.1171875,
          "durationTicks": 60,
          "midi": 50,
          "name": "D3",
          "ticks": 134640,
          "time": 343.7018125,
          "velocity": 0.7874015748031497
        },
        {
          "duration": 0.1171875,
          "durationTicks": 60,
          "midi": 49,
          "name": "C#3",
          "ticks": 134700,
          "time": 343.819,
          "velocity": 0.7874015748031497
        },
        {
          "duration": 0.234375,
          "durationTicks": 120,
          "midi": 50,
          "name": "D3",
          "ticks": 134760,
          "time": 343.9361875,
          "velocity": 0.7874015748031497
        },
        {
          "duration": 0.234375,
          "durationTicks": 120,
          "midi": 45,
          "name": "A2",
          "ticks": 134880,
          "time": 344.1705625,
          "velocity": 0.7874015748031497
        },
        {
          "duration": 0.234375,
          "durationTicks": 120,
          "midi": 42,
          "name": "F#2",
          "ticks": 135000,
          "time": 344.4049375,
          "velocity": 0.7874015748031497
        },
        {
          "duration": 0.234375,
          "durationTicks": 120,
          "midi": 38,
          "name": "D2",
          "ticks": 135120,
          "time": 344.6393125,
          "velocity": 0.7874015748031497
        },
        {
          "duration": 0.1171875,
          "durationTicks": 60,
          "midi": 48,
          "name": "C3",
          "ticks": 135300,
          "time": 344.990875,
          "velocity": 0.7874015748031497
        },
        {
          "duration": 0.1171875,
          "durationTicks": 60,
          "midi": 47,
          "name": "B2",
          "ticks": 135360,
          "time": 345.1080625,
          "velocity": 0.7874015748031497
        },
        {
          "duration": 0.1171875,
          "durationTicks": 60,
          "midi": 45,
          "name": "A2",
          "ticks": 135420,
          "time": 345.22525,
          "velocity": 0.7874015748031497
        },
        {
          "duration": 0.234375,
          "durationTicks": 120,
          "midi": 47,
          "name": "B2",
          "ticks": 135480,
          "time": 345.3424375,
          "velocity": 0.7874015748031497
        },
        {
          "duration": 0.234375,
          "durationTicks": 120,
          "midi": 50,
          "name": "D3",
          "ticks": 135600,
          "time": 345.5768125,
          "velocity": 0.7874015748031497
        },
        {
          "duration": 0.234375,
          "durationTicks": 120,
          "midi": 55,
          "name": "G3",
          "ticks": 135720,
          "time": 345.8111875,
          "velocity": 0.7874015748031497
        },
        {
          "duration": 0.234375,
          "durationTicks": 120,
          "midi": 59,
          "name": "B3",
          "ticks": 135840,
          "time": 346.0455625,
          "velocity": 0.7874015748031497
        },
        {
          "duration": 0.1171875,
          "durationTicks": 60,
          "midi": 55,
          "name": "G3",
          "ticks": 136020,
          "time": 346.397125,
          "velocity": 0.7874015748031497
        },
        {
          "duration": 0.1171875,
          "durationTicks": 60,
          "midi": 53,
          "name": "F3",
          "ticks": 136080,
          "time": 346.5143125,
          "velocity": 0.7874015748031497
        },
        {
          "duration": 0.1171875,
          "durationTicks": 60,
          "midi": 55,
          "name": "G3",
          "ticks": 136140,
          "time": 346.6315,
          "velocity": 0.7874015748031497
        },
        {
          "duration": 0.234375,
          "durationTicks": 120,
          "midi": 48,
          "name": "C3",
          "ticks": 136200,
          "time": 346.7486875,
          "velocity": 0.7874015748031497
        },
        {
          "duration": 0.234375,
          "durationTicks": 120,
          "midi": 52,
          "name": "E3",
          "ticks": 136320,
          "time": 346.9830625,
          "velocity": 0.7874015748031497
        },
        {
          "duration": 0.234375,
          "durationTicks": 120,
          "midi": 57,
          "name": "A3",
          "ticks": 136440,
          "time": 347.2174375,
          "velocity": 0.7874015748031497
        },
        {
          "duration": 0.234375,
          "durationTicks": 120,
          "midi": 60,
          "name": "C4",
          "ticks": 136560,
          "time": 347.4518125,
          "velocity": 0.7874015748031497
        },
        {
          "duration": 0.1171875,
          "durationTicks": 60,
          "midi": 57,
          "name": "A3",
          "ticks": 136740,
          "time": 347.803375,
          "velocity": 0.7874015748031497
        },
        {
          "duration": 0.1171875,
          "durationTicks": 60,
          "midi": 55,
          "name": "G3",
          "ticks": 136800,
          "time": 347.9205625,
          "velocity": 0.7874015748031497
        },
        {
          "duration": 0.1171875,
          "durationTicks": 60,
          "midi": 57,
          "name": "A3",
          "ticks": 136860,
          "time": 348.03775,
          "velocity": 0.7874015748031497
        },
        {
          "duration": 0.234375,
          "durationTicks": 120,
          "midi": 50,
          "name": "D3",
          "ticks": 136920,
          "time": 348.1549375,
          "velocity": 0.7874015748031497
        },
        {
          "duration": 0.234375,
          "durationTicks": 120,
          "midi": 54,
          "name": "F#3",
          "ticks": 137040,
          "time": 348.3893125,
          "velocity": 0.7874015748031497
        },
        {
          "duration": 0.234375,
          "durationTicks": 120,
          "midi": 57,
          "name": "A3",
          "ticks": 137160,
          "time": 348.6236875,
          "velocity": 0.7874015748031497
        },
        {
          "duration": 0.234375,
          "durationTicks": 120,
          "midi": 62,
          "name": "D4",
          "ticks": 137280,
          "time": 348.8580625,
          "velocity": 0.7874015748031497
        },
        {
          "duration": 0.1171875,
          "durationTicks": 60,
          "midi": 50,
          "name": "D3",
          "ticks": 137460,
          "time": 349.209625,
          "velocity": 0.7874015748031497
        },
        {
          "duration": 0.1171875,
          "durationTicks": 60,
          "midi": 48,
          "name": "C3",
          "ticks": 137520,
          "time": 349.3268125,
          "velocity": 0.7874015748031497
        },
        {
          "duration": 0.1171875,
          "durationTicks": 60,
          "midi": 50,
          "name": "D3",
          "ticks": 137580,
          "time": 349.444,
          "velocity": 0.7874015748031497
        },
        {
          "duration": 0.234375,
          "durationTicks": 120,
          "midi": 43,
          "name": "G2",
          "ticks": 137640,
          "time": 349.5611875,
          "velocity": 0.7874015748031497
        },
        {
          "duration": 0.234375,
          "durationTicks": 120,
          "midi": 55,
          "name": "G3",
          "ticks": 137760,
          "time": 349.7955625,
          "velocity": 0.7874015748031497
        },
        {
          "duration": 0.234375,
          "durationTicks": 120,
          "midi": 47,
          "name": "B2",
          "ticks": 137880,
          "time": 350.0299375,
          "velocity": 0.7874015748031497
        },
        {
          "duration": 0.234375,
          "durationTicks": 120,
          "midi": 50,
          "name": "D3",
          "ticks": 138000,
          "time": 350.2643125,
          "velocity": 0.7874015748031497
        },
        {
          "duration": 0.46875,
          "durationTicks": 240,
          "midi": 43,
          "name": "G2",
          "ticks": 138120,
          "time": 350.4986875,
          "velocity": 0.7874015748031497
        },
        {
          "duration": 0.1171875,
          "durationTicks": 60,
          "midi": 55,
          "name": "G3",
          "ticks": 138360,
          "time": 350.9674375,
          "velocity": 0.7874015748031497
        },
        {
          "duration": 0.1171875,
          "durationTicks": 60,
          "midi": 59,
          "name": "B3",
          "ticks": 138420,
          "time": 351.084625,
          "velocity": 0.7874015748031497
        },
        {
          "duration": 0.1171875,
          "durationTicks": 60,
          "midi": 62,
          "name": "D4",
          "ticks": 138480,
          "time": 351.2018125,
          "velocity": 0.7874015748031497
        },
        {
          "duration": 0.1171875,
          "durationTicks": 60,
          "midi": 60,
          "name": "C4",
          "ticks": 138540,
          "time": 351.319,
          "velocity": 0.7874015748031497
        },
        {
          "duration": 0.1171875,
          "durationTicks": 60,
          "midi": 59,
          "name": "B3",
          "ticks": 138600,
          "time": 351.4361875,
          "velocity": 0.7874015748031497
        },
        {
          "duration": 0.1171875,
          "durationTicks": 60,
          "midi": 62,
          "name": "D4",
          "ticks": 138660,
          "time": 351.553375,
          "velocity": 0.7874015748031497
        },
        {
          "duration": 0.1171875,
          "durationTicks": 60,
          "midi": 67,
          "name": "G4",
          "ticks": 138720,
          "time": 351.6705625,
          "velocity": 0.7874015748031497
        },
        {
          "duration": 0.1171875,
          "durationTicks": 60,
          "midi": 66,
          "name": "F#4",
          "ticks": 138780,
          "time": 351.78775,
          "velocity": 0.7874015748031497
        },
        {
          "duration": 0.1171875,
          "durationTicks": 60,
          "midi": 64,
          "name": "E4",
          "ticks": 138840,
          "time": 351.9049375,
          "velocity": 0.7874015748031497
        },
        {
          "duration": 0.1171875,
          "durationTicks": 60,
          "midi": 67,
          "name": "G4",
          "ticks": 138900,
          "time": 352.022125,
          "velocity": 0.7874015748031497
        },
        {
          "duration": 0.234375,
          "durationTicks": 120,
          "midi": 71,
          "name": "B4",
          "ticks": 138960,
          "time": 352.1393125,
          "velocity": 0.7874015748031497
        },
        {
          "duration": 0.1171875,
          "durationTicks": 60,
          "midi": 54,
          "name": "F#3",
          "ticks": 139080,
          "time": 352.3736875,
          "velocity": 0.7874015748031497
        },
        {
          "duration": 0.1171875,
          "durationTicks": 60,
          "midi": 57,
          "name": "A3",
          "ticks": 139140,
          "time": 352.490875,
          "velocity": 0.7874015748031497
        },
        {
          "duration": 0.1171875,
          "durationTicks": 60,
          "midi": 61,
          "name": "C#4",
          "ticks": 139200,
          "time": 352.6080625,
          "velocity": 0.7874015748031497
        },
        {
          "duration": 0.1171875,
          "durationTicks": 60,
          "midi": 59,
          "name": "B3",
          "ticks": 139260,
          "time": 352.72525,
          "velocity": 0.7874015748031497
        },
        {
          "duration": 0.1171875,
          "durationTicks": 60,
          "midi": 57,
          "name": "A3",
          "ticks": 139320,
          "time": 352.8424375,
          "velocity": 0.7874015748031497
        },
        {
          "duration": 0.1171875,
          "durationTicks": 60,
          "midi": 61,
          "name": "C#4",
          "ticks": 139380,
          "time": 352.959625,
          "velocity": 0.7874015748031497
        },
        {
          "duration": 0.1171875,
          "durationTicks": 60,
          "midi": 66,
          "name": "F#4",
          "ticks": 139440,
          "time": 353.0768125,
          "velocity": 0.7874015748031497
        },
        {
          "duration": 0.1171875,
          "durationTicks": 60,
          "midi": 64,
          "name": "E4",
          "ticks": 139500,
          "time": 353.194,
          "velocity": 0.7874015748031497
        },
        {
          "duration": 0.1171875,
          "durationTicks": 60,
          "midi": 62,
          "name": "D4",
          "ticks": 139560,
          "time": 353.3111875,
          "velocity": 0.7874015748031497
        },
        {
          "duration": 0.1171875,
          "durationTicks": 60,
          "midi": 66,
          "name": "F#4",
          "ticks": 139620,
          "time": 353.428375,
          "velocity": 0.7874015748031497
        },
        {
          "duration": 0.234375,
          "durationTicks": 120,
          "midi": 69,
          "name": "A4",
          "ticks": 139680,
          "time": 353.5455625,
          "velocity": 0.7874015748031497
        },
        {
          "duration": 0.1171875,
          "durationTicks": 60,
          "midi": 52,
          "name": "E3",
          "ticks": 139800,
          "time": 353.7799375,
          "velocity": 0.7874015748031497
        },
        {
          "duration": 0.1171875,
          "durationTicks": 60,
          "midi": 55,
          "name": "G3",
          "ticks": 139860,
          "time": 353.897125,
          "velocity": 0.7874015748031497
        },
        {
          "duration": 0.1171875,
          "durationTicks": 60,
          "midi": 59,
          "name": "B3",
          "ticks": 139920,
          "time": 354.0143125,
          "velocity": 0.7874015748031497
        },
        {
          "duration": 0.1171875,
          "durationTicks": 60,
          "midi": 57,
          "name": "A3",
          "ticks": 139980,
          "time": 354.1315,
          "velocity": 0.7874015748031497
        },
        {
          "duration": 0.1171875,
          "durationTicks": 60,
          "midi": 55,
          "name": "G3",
          "ticks": 140040,
          "time": 354.2486875,
          "velocity": 0.7874015748031497
        },
        {
          "duration": 0.1171875,
          "durationTicks": 60,
          "midi": 59,
          "name": "B3",
          "ticks": 140100,
          "time": 354.365875,
          "velocity": 0.7874015748031497
        },
        {
          "duration": 0.1171875,
          "durationTicks": 60,
          "midi": 64,
          "name": "E4",
          "ticks": 140160,
          "time": 354.4830625,
          "velocity": 0.7874015748031497
        },
        {
          "duration": 0.1171875,
          "durationTicks": 60,
          "midi": 62,
          "name": "D4",
          "ticks": 140220,
          "time": 354.60025,
          "velocity": 0.7874015748031497
        },
        {
          "duration": 0.1171875,
          "durationTicks": 60,
          "midi": 61,
          "name": "C#4",
          "ticks": 140280,
          "time": 354.7174375,
          "velocity": 0.7874015748031497
        },
        {
          "duration": 0.1171875,
          "durationTicks": 60,
          "midi": 64,
          "name": "E4",
          "ticks": 140340,
          "time": 354.834625,
          "velocity": 0.7874015748031497
        },
        {
          "duration": 0.1171875,
          "durationTicks": 60,
          "midi": 67,
          "name": "G4",
          "ticks": 140400,
          "time": 354.9518125,
          "velocity": 0.7874015748031497
        },
        {
          "duration": 0.1171875,
          "durationTicks": 60,
          "midi": 66,
          "name": "F#4",
          "ticks": 140460,
          "time": 355.069,
          "velocity": 0.7874015748031497
        },
        {
          "duration": 0.1171875,
          "durationTicks": 60,
          "midi": 64,
          "name": "E4",
          "ticks": 140520,
          "time": 355.1861875,
          "velocity": 0.7874015748031497
        },
        {
          "duration": 0.1171875,
          "durationTicks": 60,
          "midi": 67,
          "name": "G4",
          "ticks": 140580,
          "time": 355.303375,
          "velocity": 0.7874015748031497
        },
        {
          "duration": 0.1171875,
          "durationTicks": 60,
          "midi": 73,
          "name": "C#5",
          "ticks": 140640,
          "time": 355.4205625,
          "velocity": 0.7874015748031497
        },
        {
          "duration": 0.1171875,
          "durationTicks": 60,
          "midi": 71,
          "name": "B4",
          "ticks": 140700,
          "time": 355.53775,
          "velocity": 0.7874015748031497
        },
        {
          "duration": 0.1171875,
          "durationTicks": 60,
          "midi": 69,
          "name": "A4",
          "ticks": 140760,
          "time": 355.6549375,
          "velocity": 0.7874015748031497
        },
        {
          "duration": 0.1171875,
          "durationTicks": 60,
          "midi": 73,
          "name": "C#5",
          "ticks": 140820,
          "time": 355.772125,
          "velocity": 0.7874015748031497
        },
        {
          "duration": 0.1171875,
          "durationTicks": 60,
          "midi": 76,
          "name": "E5",
          "ticks": 140880,
          "time": 355.8893125,
          "velocity": 0.7874015748031497
        },
        {
          "duration": 0.1171875,
          "durationTicks": 60,
          "midi": 74,
          "name": "D5",
          "ticks": 140940,
          "time": 356.0065,
          "velocity": 0.7874015748031497
        },
        {
          "duration": 0.1171875,
          "durationTicks": 60,
          "midi": 73,
          "name": "C#5",
          "ticks": 141000,
          "time": 356.1236875,
          "velocity": 0.7874015748031497
        },
        {
          "duration": 0.1171875,
          "durationTicks": 60,
          "midi": 76,
          "name": "E5",
          "ticks": 141060,
          "time": 356.240875,
          "velocity": 0.7874015748031497
        },
        {
          "duration": 0.1171875,
          "durationTicks": 60,
          "midi": 81,
          "name": "A5",
          "ticks": 141120,
          "time": 356.3580625,
          "velocity": 0.7874015748031497
        },
        {
          "duration": 0.1171875,
          "durationTicks": 60,
          "midi": 79,
          "name": "G5",
          "ticks": 141180,
          "time": 356.47525,
          "velocity": 0.7874015748031497
        },
        {
          "duration": 0.1171875,
          "durationTicks": 60,
          "midi": 78,
          "name": "F#5",
          "ticks": 141240,
          "time": 356.5924375,
          "velocity": 0.7874015748031497
        },
        {
          "duration": 0.1171875,
          "durationTicks": 60,
          "midi": 81,
          "name": "A5",
          "ticks": 141300,
          "time": 356.709625,
          "velocity": 0.7874015748031497
        },
        {
          "duration": 0.1171875,
          "durationTicks": 60,
          "midi": 74,
          "name": "D5",
          "ticks": 141360,
          "time": 356.8268125,
          "velocity": 0.7874015748031497
        },
        {
          "duration": 0.1171875,
          "durationTicks": 60,
          "midi": 76,
          "name": "E5",
          "ticks": 141420,
          "time": 356.944,
          "velocity": 0.7874015748031497
        },
        {
          "duration": 0.1171875,
          "durationTicks": 60,
          "midi": 78,
          "name": "F#5",
          "ticks": 141480,
          "time": 357.0611875,
          "velocity": 0.7874015748031497
        },
        {
          "duration": 0.1171875,
          "durationTicks": 60,
          "midi": 74,
          "name": "D5",
          "ticks": 141540,
          "time": 357.178375,
          "velocity": 0.7874015748031497
        },
        {
          "duration": 0.1171875,
          "durationTicks": 60,
          "midi": 69,
          "name": "A4",
          "ticks": 141600,
          "time": 357.2955625,
          "velocity": 0.7874015748031497
        },
        {
          "duration": 0.1171875,
          "durationTicks": 60,
          "midi": 71,
          "name": "B4",
          "ticks": 141660,
          "time": 357.41275,
          "velocity": 0.7874015748031497
        },
        {
          "duration": 0.1171875,
          "durationTicks": 60,
          "midi": 72,
          "name": "C5",
          "ticks": 141720,
          "time": 357.5299375,
          "velocity": 0.7874015748031497
        },
        {
          "duration": 0.1171875,
          "durationTicks": 60,
          "midi": 69,
          "name": "A4",
          "ticks": 141780,
          "time": 357.647125,
          "velocity": 0.7874015748031497
        },
        {
          "duration": 0.1171875,
          "durationTicks": 60,
          "midi": 66,
          "name": "F#4",
          "ticks": 141840,
          "time": 357.7643125,
          "velocity": 0.7874015748031497
        },
        {
          "duration": 0.1171875,
          "durationTicks": 60,
          "midi": 69,
          "name": "A4",
          "ticks": 141900,
          "time": 357.8815,
          "velocity": 0.7874015748031497
        },
        {
          "duration": 0.1171875,
          "durationTicks": 60,
          "midi": 71,
          "name": "B4",
          "ticks": 141960,
          "time": 357.9986875,
          "velocity": 0.7874015748031497
        },
        {
          "duration": 0.1171875,
          "durationTicks": 60,
          "midi": 74,
          "name": "D5",
          "ticks": 142020,
          "time": 358.115875,
          "velocity": 0.7874015748031497
        },
        {
          "duration": 0.1171875,
          "durationTicks": 60,
          "midi": 67,
          "name": "G4",
          "ticks": 142080,
          "time": 358.2330625,
          "velocity": 0.7874015748031497
        },
        {
          "duration": 0.1171875,
          "durationTicks": 60,
          "midi": 69,
          "name": "A4",
          "ticks": 142140,
          "time": 358.35025,
          "velocity": 0.7874015748031497
        },
        {
          "duration": 0.1171875,
          "durationTicks": 60,
          "midi": 71,
          "name": "B4",
          "ticks": 142200,
          "time": 358.4674375,
          "velocity": 0.7874015748031497
        },
        {
          "duration": 0.1171875,
          "durationTicks": 60,
          "midi": 67,
          "name": "G4",
          "ticks": 142260,
          "time": 358.584625,
          "velocity": 0.7874015748031497
        },
        {
          "duration": 0.1171875,
          "durationTicks": 60,
          "midi": 64,
          "name": "E4",
          "ticks": 142320,
          "time": 358.7018125,
          "velocity": 0.7874015748031497
        },
        {
          "duration": 0.1171875,
          "durationTicks": 60,
          "midi": 66,
          "name": "F#4",
          "ticks": 142380,
          "time": 358.819,
          "velocity": 0.7874015748031497
        },
        {
          "duration": 0.1171875,
          "durationTicks": 60,
          "midi": 67,
          "name": "G4",
          "ticks": 142440,
          "time": 358.9361875,
          "velocity": 0.7874015748031497
        },
        {
          "duration": 0.1171875,
          "durationTicks": 60,
          "midi": 64,
          "name": "E4",
          "ticks": 142500,
          "time": 359.053375,
          "velocity": 0.7874015748031497
        },
        {
          "duration": 0.1171875,
          "durationTicks": 60,
          "midi": 59,
          "name": "B3",
          "ticks": 142560,
          "time": 359.1705625,
          "velocity": 0.7874015748031497
        },
        {
          "duration": 0.1171875,
          "durationTicks": 60,
          "midi": 62,
          "name": "D4",
          "ticks": 142620,
          "time": 359.28775,
          "velocity": 0.7874015748031497
        },
        {
          "duration": 0.1171875,
          "durationTicks": 60,
          "midi": 61,
          "name": "C#4",
          "ticks": 142680,
          "time": 359.4049375,
          "velocity": 0.7874015748031497
        },
        {
          "duration": 0.1171875,
          "durationTicks": 60,
          "midi": 64,
          "name": "E4",
          "ticks": 142740,
          "time": 359.522125,
          "velocity": 0.7874015748031497
        },
        {
          "duration": 0.1171875,
          "durationTicks": 60,
          "midi": 57,
          "name": "A3",
          "ticks": 142800,
          "time": 359.6393125,
          "velocity": 0.7874015748031497
        },
        {
          "duration": 0.1171875,
          "durationTicks": 60,
          "midi": 59,
          "name": "B3",
          "ticks": 142860,
          "time": 359.7565,
          "velocity": 0.7874015748031497
        },
        {
          "duration": 0.1171875,
          "durationTicks": 60,
          "midi": 61,
          "name": "C#4",
          "ticks": 142920,
          "time": 359.8736875,
          "velocity": 0.7874015748031497
        },
        {
          "duration": 0.1171875,
          "durationTicks": 60,
          "midi": 57,
          "name": "A3",
          "ticks": 142980,
          "time": 359.990875,
          "velocity": 0.7874015748031497
        },
        {
          "duration": 0.1171875,
          "durationTicks": 60,
          "midi": 52,
          "name": "E3",
          "ticks": 143040,
          "time": 360.1080625,
          "velocity": 0.7874015748031497
        },
        {
          "duration": 0.1171875,
          "durationTicks": 60,
          "midi": 54,
          "name": "F#3",
          "ticks": 143100,
          "time": 360.22525,
          "velocity": 0.7874015748031497
        },
        {
          "duration": 0.1171875,
          "durationTicks": 60,
          "midi": 55,
          "name": "G3",
          "ticks": 143160,
          "time": 360.3424375,
          "velocity": 0.7874015748031497
        },
        {
          "duration": 0.1171875,
          "durationTicks": 60,
          "midi": 52,
          "name": "E3",
          "ticks": 143220,
          "time": 360.459625,
          "velocity": 0.7874015748031497
        },
        {
          "duration": 0.1171875,
          "durationTicks": 60,
          "midi": 49,
          "name": "C#3",
          "ticks": 143280,
          "time": 360.5768125,
          "velocity": 0.7874015748031497
        },
        {
          "duration": 0.1171875,
          "durationTicks": 60,
          "midi": 52,
          "name": "E3",
          "ticks": 143340,
          "time": 360.694,
          "velocity": 0.7874015748031497
        },
        {
          "duration": 0.1171875,
          "durationTicks": 60,
          "midi": 54,
          "name": "F#3",
          "ticks": 143400,
          "time": 360.8111875,
          "velocity": 0.7874015748031497
        },
        {
          "duration": 0.1171875,
          "durationTicks": 60,
          "midi": 57,
          "name": "A3",
          "ticks": 143460,
          "time": 360.928375,
          "velocity": 0.7874015748031497
        },
        {
          "duration": 0.1171875,
          "durationTicks": 60,
          "midi": 50,
          "name": "D3",
          "ticks": 143520,
          "time": 361.0455625,
          "velocity": 0.7874015748031497
        },
        {
          "duration": 0.1171875,
          "durationTicks": 60,
          "midi": 52,
          "name": "E3",
          "ticks": 143580,
          "time": 361.16275,
          "velocity": 0.7874015748031497
        },
        {
          "duration": 0.1171875,
          "durationTicks": 60,
          "midi": 54,
          "name": "F#3",
          "ticks": 143640,
          "time": 361.2799375,
          "velocity": 0.7874015748031497
        },
        {
          "duration": 0.1171875,
          "durationTicks": 60,
          "midi": 50,
          "name": "D3",
          "ticks": 143700,
          "time": 361.397125,
          "velocity": 0.7874015748031497
        },
        {
          "duration": 0.1171875,
          "durationTicks": 60,
          "midi": 54,
          "name": "F#3",
          "ticks": 143760,
          "time": 361.5143125,
          "velocity": 0.7874015748031497
        },
        {
          "duration": 0.1171875,
          "durationTicks": 60,
          "midi": 57,
          "name": "A3",
          "ticks": 143820,
          "time": 361.6315,
          "velocity": 0.7874015748031497
        },
        {
          "duration": 0.46875,
          "durationTicks": 240,
          "midi": 62,
          "name": "D4",
          "ticks": 143880,
          "time": 361.7486875,
          "velocity": 0.7874015748031497
        },
        {
          "duration": 0.234375,
          "durationTicks": 120,
          "midi": 62,
          "name": "D4",
          "ticks": 144120,
          "time": 362.2174375,
          "velocity": 0.7874015748031497
        },
        {
          "duration": 0.234375,
          "durationTicks": 120,
          "midi": 57,
          "name": "A3",
          "ticks": 144240,
          "time": 362.4518125,
          "velocity": 0.7874015748031497
        },
        {
          "duration": 0.234375,
          "durationTicks": 120,
          "midi": 54,
          "name": "F#3",
          "ticks": 144360,
          "time": 362.6861875,
          "velocity": 0.7874015748031497
        },
        {
          "duration": 0.234375,
          "durationTicks": 120,
          "midi": 50,
          "name": "D3",
          "ticks": 144480,
          "time": 362.9205625,
          "velocity": 0.7874015748031497
        },
        {
          "duration": 0.1171875,
          "durationTicks": 60,
          "midi": 60,
          "name": "C4",
          "ticks": 144660,
          "time": 363.272125,
          "velocity": 0.7874015748031497
        },
        {
          "duration": 0.1171875,
          "durationTicks": 60,
          "midi": 59,
          "name": "B3",
          "ticks": 144720,
          "time": 363.3893125,
          "velocity": 0.7874015748031497
        },
        {
          "duration": 0.1171875,
          "durationTicks": 60,
          "midi": 57,
          "name": "A3",
          "ticks": 144780,
          "time": 363.5065,
          "velocity": 0.7874015748031497
        },
        {
          "duration": 0.234375,
          "durationTicks": 120,
          "midi": 55,
          "name": "G3",
          "ticks": 144840,
          "time": 363.6236875,
          "velocity": 0.7874015748031497
        },
        {
          "duration": 0.234375,
          "durationTicks": 120,
          "midi": 50,
          "name": "D3",
          "ticks": 144960,
          "time": 363.8580625,
          "velocity": 0.7874015748031497
        },
        {
          "duration": 0.234375,
          "durationTicks": 120,
          "midi": 47,
          "name": "B2",
          "ticks": 145080,
          "time": 364.0924375,
          "velocity": 0.7874015748031497
        },
        {
          "duration": 0.234375,
          "durationTicks": 120,
          "midi": 43,
          "name": "G2",
          "ticks": 145200,
          "time": 364.3268125,
          "velocity": 0.7874015748031497
        },
        {
          "duration": 0.1171875,
          "durationTicks": 60,
          "midi": 53,
          "name": "F3",
          "ticks": 145380,
          "time": 364.678375,
          "velocity": 0.7874015748031497
        },
        {
          "duration": 0.1171875,
          "durationTicks": 60,
          "midi": 52,
          "name": "E3",
          "ticks": 145440,
          "time": 364.7955625,
          "velocity": 0.7874015748031497
        },
        {
          "duration": 0.1171875,
          "durationTicks": 60,
          "midi": 50,
          "name": "D3",
          "ticks": 145500,
          "time": 364.91275,
          "velocity": 0.7874015748031497
        },
        {
          "duration": 0.1171875,
          "durationTicks": 60,
          "midi": 48,
          "name": "C3",
          "ticks": 145560,
          "time": 365.0299375,
          "velocity": 0.7874015748031497
        },
        {
          "duration": 0.1171875,
          "durationTicks": 60,
          "midi": 52,
          "name": "E3",
          "ticks": 145620,
          "time": 365.147125,
          "velocity": 0.7874015748031497
        },
        {
          "duration": 0.1171875,
          "durationTicks": 60,
          "midi": 57,
          "name": "A3",
          "ticks": 145680,
          "time": 365.2643125,
          "velocity": 0.7874015748031497
        },
        {
          "duration": 0.1171875,
          "durationTicks": 60,
          "midi": 55,
          "name": "G3",
          "ticks": 145740,
          "time": 365.3815,
          "velocity": 0.7874015748031497
        },
        {
          "duration": 0.1171875,
          "durationTicks": 60,
          "midi": 54,
          "name": "F#3",
          "ticks": 145800,
          "time": 365.4986875,
          "velocity": 0.7874015748031497
        },
        {
          "duration": 0.1171875,
          "durationTicks": 60,
          "midi": 57,
          "name": "A3",
          "ticks": 145860,
          "time": 365.615875,
          "velocity": 0.7874015748031497
        },
        {
          "duration": 0.1171875,
          "durationTicks": 60,
          "midi": 60,
          "name": "C4",
          "ticks": 145920,
          "time": 365.7330625,
          "velocity": 0.7874015748031497
        },
        {
          "duration": 0.1171875,
          "durationTicks": 60,
          "midi": 59,
          "name": "B3",
          "ticks": 145980,
          "time": 365.85025,
          "velocity": 0.7874015748031497
        },
        {
          "duration": 0.1171875,
          "durationTicks": 60,
          "midi": 57,
          "name": "A3",
          "ticks": 146040,
          "time": 365.9674375,
          "velocity": 0.7874015748031497
        },
        {
          "duration": 0.1171875,
          "durationTicks": 60,
          "midi": 60,
          "name": "C4",
          "ticks": 146100,
          "time": 366.084625,
          "velocity": 0.7874015748031497
        },
        {
          "duration": 0.1171875,
          "durationTicks": 60,
          "midi": 63,
          "name": "D#4",
          "ticks": 146160,
          "time": 366.2018125,
          "velocity": 0.7874015748031497
        },
        {
          "duration": 0.1171875,
          "durationTicks": 60,
          "midi": 64,
          "name": "E4",
          "ticks": 146220,
          "time": 366.319,
          "velocity": 0.7874015748031497
        },
        {
          "duration": 0.1171875,
          "durationTicks": 60,
          "midi": 71,
          "name": "B4",
          "ticks": 146280,
          "time": 366.4361875,
          "velocity": 0.7874015748031497
        },
        {
          "duration": 0.1171875,
          "durationTicks": 60,
          "midi": 75,
          "name": "D#5",
          "ticks": 146340,
          "time": 366.553375,
          "velocity": 0.7874015748031497
        },
        {
          "duration": 0.1171875,
          "durationTicks": 60,
          "midi": 78,
          "name": "F#5",
          "ticks": 146400,
          "time": 366.6705625,
          "velocity": 0.7874015748031497
        },
        {
          "duration": 0.1171875,
          "durationTicks": 60,
          "midi": 76,
          "name": "E5",
          "ticks": 146460,
          "time": 366.78775,
          "velocity": 0.7874015748031497
        },
        {
          "duration": 0.1171875,
          "durationTicks": 60,
          "midi": 75,
          "name": "D#5",
          "ticks": 146520,
          "time": 366.9049375,
          "velocity": 0.7874015748031497
        },
        {
          "duration": 0.1171875,
          "durationTicks": 60,
          "midi": 78,
          "name": "F#5",
          "ticks": 146580,
          "time": 367.022125,
          "velocity": 0.7874015748031497
        },
        {
          "duration": 0.1171875,
          "durationTicks": 60,
          "midi": 81,
          "name": "A5",
          "ticks": 146640,
          "time": 367.1393125,
          "velocity": 0.7874015748031497
        },
        {
          "duration": 0.1171875,
          "durationTicks": 60,
          "midi": 79,
          "name": "G5",
          "ticks": 146700,
          "time": 367.2565,
          "velocity": 0.7874015748031497
        },
        {
          "duration": 0.1171875,
          "durationTicks": 60,
          "midi": 78,
          "name": "F#5",
          "ticks": 146760,
          "time": 367.3736875,
          "velocity": 0.7874015748031497
        },
        {
          "duration": 0.1171875,
          "durationTicks": 60,
          "midi": 81,
          "name": "A5",
          "ticks": 146820,
          "time": 367.490875,
          "velocity": 0.7874015748031497
        },
        {
          "duration": 0.1171875,
          "durationTicks": 60,
          "midi": 84,
          "name": "C6",
          "ticks": 146880,
          "time": 367.6080625,
          "velocity": 0.7874015748031497
        },
        {
          "duration": 0.1171875,
          "durationTicks": 60,
          "midi": 83,
          "name": "B5",
          "ticks": 147000,
          "time": 367.8424375,
          "velocity": 0.7874015748031497
        },
        {
          "duration": 0.1171875,
          "durationTicks": 60,
          "midi": 79,
          "name": "G5",
          "ticks": 147060,
          "time": 367.959625,
          "velocity": 0.7874015748031497
        },
        {
          "duration": 0.1171875,
          "durationTicks": 60,
          "midi": 76,
          "name": "E5",
          "ticks": 147120,
          "time": 368.0768125,
          "velocity": 0.7874015748031497
        },
        {
          "duration": 0.1171875,
          "durationTicks": 60,
          "midi": 78,
          "name": "F#5",
          "ticks": 147180,
          "time": 368.194,
          "velocity": 0.7874015748031497
        },
        {
          "duration": 0.1171875,
          "durationTicks": 60,
          "midi": 79,
          "name": "G5",
          "ticks": 147240,
          "time": 368.3111875,
          "velocity": 0.7874015748031497
        },
        {
          "duration": 0.1171875,
          "durationTicks": 60,
          "midi": 76,
          "name": "E5",
          "ticks": 147300,
          "time": 368.428375,
          "velocity": 0.7874015748031497
        },
        {
          "duration": 0.1171875,
          "durationTicks": 60,
          "midi": 71,
          "name": "B4",
          "ticks": 147360,
          "time": 368.5455625,
          "velocity": 0.7874015748031497
        },
        {
          "duration": 0.1171875,
          "durationTicks": 60,
          "midi": 75,
          "name": "D#5",
          "ticks": 147420,
          "time": 368.66275,
          "velocity": 0.7874015748031497
        },
        {
          "duration": 0.1171875,
          "durationTicks": 60,
          "midi": 76,
          "name": "E5",
          "ticks": 147480,
          "time": 368.7799375,
          "velocity": 0.7874015748031497
        },
        {
          "duration": 0.1171875,
          "durationTicks": 60,
          "midi": 71,
          "name": "B4",
          "ticks": 147540,
          "time": 368.897125,
          "velocity": 0.7874015748031497
        },
        {
          "duration": 0.1171875,
          "durationTicks": 60,
          "midi": 67,
          "name": "G4",
          "ticks": 147600,
          "time": 369.0143125,
          "velocity": 0.7874015748031497
        },
        {
          "duration": 0.1171875,
          "durationTicks": 60,
          "midi": 71,
          "name": "B4",
          "ticks": 147660,
          "time": 369.1315,
          "velocity": 0.7874015748031497
        },
        {
          "duration": 0.1171875,
          "durationTicks": 60,
          "midi": 60,
          "name": "C4",
          "ticks": 147720,
          "time": 369.2486875,
          "velocity": 0.7874015748031497
        },
        {
          "duration": 0.1171875,
          "durationTicks": 60,
          "midi": 57,
          "name": "A3",
          "ticks": 147780,
          "time": 369.365875,
          "velocity": 0.7874015748031497
        },
        {
          "duration": 0.1171875,
          "durationTicks": 60,
          "midi": 52,
          "name": "E3",
          "ticks": 147840,
          "time": 369.4830625,
          "velocity": 0.7874015748031497
        },
        {
          "duration": 0.1171875,
          "durationTicks": 60,
          "midi": 56,
          "name": "G#3",
          "ticks": 147900,
          "time": 369.60025,
          "velocity": 0.7874015748031497
        },
        {
          "duration": 0.1171875,
          "durationTicks": 60,
          "midi": 57,
          "name": "A3",
          "ticks": 147960,
          "time": 369.7174375,
          "velocity": 0.7874015748031497
        },
        {
          "duration": 0.1171875,
          "durationTicks": 60,
          "midi": 52,
          "name": "E3",
          "ticks": 148020,
          "time": 369.834625,
          "velocity": 0.7874015748031497
        },
        {
          "duration": 0.1171875,
          "durationTicks": 60,
          "midi": 48,
          "name": "C3",
          "ticks": 148080,
          "time": 369.9518125,
          "velocity": 0.7874015748031497
        },
        {
          "duration": 0.1171875,
          "durationTicks": 60,
          "midi": 50,
          "name": "D3",
          "ticks": 148140,
          "time": 370.069,
          "velocity": 0.7874015748031497
        },
        {
          "duration": 0.1171875,
          "durationTicks": 60,
          "midi": 52,
          "name": "E3",
          "ticks": 148200,
          "time": 370.1861875,
          "velocity": 0.7874015748031497
        },
        {
          "duration": 0.1171875,
          "durationTicks": 60,
          "midi": 48,
          "name": "C3",
          "ticks": 148260,
          "time": 370.303375,
          "velocity": 0.7874015748031497
        },
        {
          "duration": 0.1171875,
          "durationTicks": 60,
          "midi": 45,
          "name": "A2",
          "ticks": 148320,
          "time": 370.4205625,
          "velocity": 0.7874015748031497
        },
        {
          "duration": 0.1171875,
          "durationTicks": 60,
          "midi": 48,
          "name": "C3",
          "ticks": 148380,
          "time": 370.53775,
          "velocity": 0.7874015748031497
        },
        {
          "duration": 0.234375,
          "durationTicks": 120,
          "midi": 39,
          "name": "D#2",
          "ticks": 148440,
          "time": 370.6549375,
          "velocity": 0.7874015748031497
        },
        {
          "duration": 0.234375,
          "durationTicks": 120,
          "midi": 51,
          "name": "D#3",
          "ticks": 148560,
          "time": 370.8893125,
          "velocity": 0.7874015748031497
        },
        {
          "duration": 0.234375,
          "durationTicks": 120,
          "midi": 52,
          "name": "E3",
          "ticks": 148680,
          "time": 371.1236875,
          "velocity": 0.7874015748031497
        },
        {
          "duration": 0.234375,
          "durationTicks": 120,
          "midi": 48,
          "name": "C3",
          "ticks": 148800,
          "time": 371.3580625,
          "velocity": 0.7874015748031497
        },
        {
          "duration": 0.234375,
          "durationTicks": 120,
          "midi": 45,
          "name": "A2",
          "ticks": 148920,
          "time": 371.5924375,
          "velocity": 0.7874015748031497
        },
        {
          "duration": 0.234375,
          "durationTicks": 120,
          "midi": 47,
          "name": "B2",
          "ticks": 149040,
          "time": 371.8268125,
          "velocity": 0.7874015748031497
        },
        {
          "duration": 0.234375,
          "durationTicks": 120,
          "midi": 40,
          "name": "E2",
          "ticks": 149160,
          "time": 372.0611875,
          "velocity": 0.7874015748031497
        },
        {
          "duration": 0.234375,
          "durationTicks": 120,
          "midi": 43,
          "name": "G2",
          "ticks": 149280,
          "time": 372.2955625,
          "velocity": 0.7874015748031497
        },
        {
          "duration": 0.234375,
          "durationTicks": 120,
          "midi": 47,
          "name": "B2",
          "ticks": 149400,
          "time": 372.5299375,
          "velocity": 0.7874015748031497
        },
        {
          "duration": 0.234375,
          "durationTicks": 120,
          "midi": 52,
          "name": "E3",
          "ticks": 149520,
          "time": 372.7643125,
          "velocity": 0.7874015748031497
        },
        {
          "duration": 0.1171875,
          "durationTicks": 60,
          "midi": 50,
          "name": "D3",
          "ticks": 149700,
          "time": 373.115875,
          "velocity": 0.7874015748031497
        },
        {
          "duration": 0.1171875,
          "durationTicks": 60,
          "midi": 48,
          "name": "C3",
          "ticks": 149760,
          "time": 373.2330625,
          "velocity": 0.7874015748031497
        },
        {
          "duration": 0.1171875,
          "durationTicks": 60,
          "midi": 47,
          "name": "B2",
          "ticks": 149820,
          "time": 373.35025,
          "velocity": 0.7874015748031497
        },
        {
          "duration": 0.1171875,
          "durationTicks": 60,
          "midi": 48,
          "name": "C3",
          "ticks": 149880,
          "time": 373.4674375,
          "velocity": 0.7874015748031497
        },
        {
          "duration": 0.1171875,
          "durationTicks": 60,
          "midi": 52,
          "name": "E3",
          "ticks": 149940,
          "time": 373.584625,
          "velocity": 0.7874015748031497
        },
        {
          "duration": 0.1171875,
          "durationTicks": 60,
          "midi": 55,
          "name": "G3",
          "ticks": 150000,
          "time": 373.7018125,
          "velocity": 0.7874015748031497
        },
        {
          "duration": 0.1171875,
          "durationTicks": 60,
          "midi": 53,
          "name": "F3",
          "ticks": 150060,
          "time": 373.819,
          "velocity": 0.7874015748031497
        },
        {
          "duration": 0.1171875,
          "durationTicks": 60,
          "midi": 52,
          "name": "E3",
          "ticks": 150120,
          "time": 373.9361875,
          "velocity": 0.7874015748031497
        },
        {
          "duration": 0.1171875,
          "durationTicks": 60,
          "midi": 55,
          "name": "G3",
          "ticks": 150180,
          "time": 374.053375,
          "velocity": 0.7874015748031497
        },
        {
          "duration": 0.1171875,
          "durationTicks": 60,
          "midi": 60,
          "name": "C4",
          "ticks": 150240,
          "time": 374.1705625,
          "velocity": 0.7874015748031497
        },
        {
          "duration": 0.1171875,
          "durationTicks": 60,
          "midi": 59,
          "name": "B3",
          "ticks": 150300,
          "time": 374.28775,
          "velocity": 0.7874015748031497
        },
        {
          "duration": 0.1171875,
          "durationTicks": 60,
          "midi": 58,
          "name": "A#3",
          "ticks": 150360,
          "time": 374.4049375,
          "velocity": 0.7874015748031497
        },
        {
          "duration": 0.1171875,
          "durationTicks": 60,
          "midi": 61,
          "name": "C#4",
          "ticks": 150420,
          "time": 374.522125,
          "velocity": 0.7874015748031497
        },
        {
          "duration": 0.234375,
          "durationTicks": 120,
          "midi": 66,
          "name": "F#4",
          "ticks": 150480,
          "time": 374.6393125,
          "velocity": 0.7874015748031497
        },
        {
          "duration": 0.1171875,
          "durationTicks": 60,
          "midi": 47,
          "name": "B2",
          "ticks": 150600,
          "time": 374.8736875,
          "velocity": 0.7874015748031497
        },
        {
          "duration": 0.1171875,
          "durationTicks": 60,
          "midi": 50,
          "name": "D3",
          "ticks": 150660,
          "time": 374.990875,
          "velocity": 0.7874015748031497
        },
        {
          "duration": 0.1171875,
          "durationTicks": 60,
          "midi": 54,
          "name": "F#3",
          "ticks": 150720,
          "time": 375.1080625,
          "velocity": 0.7874015748031497
        },
        {
          "duration": 0.1171875,
          "durationTicks": 60,
          "midi": 52,
          "name": "E3",
          "ticks": 150780,
          "time": 375.22525,
          "velocity": 0.7874015748031497
        },
        {
          "duration": 0.1171875,
          "durationTicks": 60,
          "midi": 50,
          "name": "D3",
          "ticks": 150840,
          "time": 375.3424375,
          "velocity": 0.7874015748031497
        },
        {
          "duration": 0.1171875,
          "durationTicks": 60,
          "midi": 54,
          "name": "F#3",
          "ticks": 150900,
          "time": 375.459625,
          "velocity": 0.7874015748031497
        },
        {
          "duration": 0.1171875,
          "durationTicks": 60,
          "midi": 59,
          "name": "B3",
          "ticks": 150960,
          "time": 375.5768125,
          "velocity": 0.7874015748031497
        },
        {
          "duration": 0.1171875,
          "durationTicks": 60,
          "midi": 57,
          "name": "A3",
          "ticks": 151020,
          "time": 375.694,
          "velocity": 0.7874015748031497
        },
        {
          "duration": 0.1171875,
          "durationTicks": 60,
          "midi": 56,
          "name": "G#3",
          "ticks": 151080,
          "time": 375.8111875,
          "velocity": 0.7874015748031497
        },
        {
          "duration": 0.1171875,
          "durationTicks": 60,
          "midi": 59,
          "name": "B3",
          "ticks": 151140,
          "time": 375.928375,
          "velocity": 0.7874015748031497
        },
        {
          "duration": 0.234375,
          "durationTicks": 120,
          "midi": 64,
          "name": "E4",
          "ticks": 151200,
          "time": 376.0455625,
          "velocity": 0.7874015748031497
        },
        {
          "duration": 0.1171875,
          "durationTicks": 60,
          "midi": 45,
          "name": "A2",
          "ticks": 151320,
          "time": 376.2799375,
          "velocity": 0.7874015748031497
        },
        {
          "duration": 0.1171875,
          "durationTicks": 60,
          "midi": 48,
          "name": "C3",
          "ticks": 151380,
          "time": 376.397125,
          "velocity": 0.7874015748031497
        },
        {
          "duration": 0.1171875,
          "durationTicks": 60,
          "midi": 52,
          "name": "E3",
          "ticks": 151440,
          "time": 376.5143125,
          "velocity": 0.7874015748031497
        },
        {
          "duration": 0.1171875,
          "durationTicks": 60,
          "midi": 50,
          "name": "D3",
          "ticks": 151500,
          "time": 376.6315,
          "velocity": 0.7874015748031497
        },
        {
          "duration": 0.1171875,
          "durationTicks": 60,
          "midi": 48,
          "name": "C3",
          "ticks": 151560,
          "time": 376.7486875,
          "velocity": 0.7874015748031497
        },
        {
          "duration": 0.1171875,
          "durationTicks": 60,
          "midi": 45,
          "name": "A2",
          "ticks": 151620,
          "time": 376.865875,
          "velocity": 0.7874015748031497
        },
        {
          "duration": 0.1171875,
          "durationTicks": 60,
          "midi": 48,
          "name": "C3",
          "ticks": 151680,
          "time": 376.9830625,
          "velocity": 0.7874015748031497
        },
        {
          "duration": 0.1171875,
          "durationTicks": 60,
          "midi": 52,
          "name": "E3",
          "ticks": 151740,
          "time": 377.10025,
          "velocity": 0.7874015748031497
        },
        {
          "duration": 0.1171875,
          "durationTicks": 60,
          "midi": 57,
          "name": "A3",
          "ticks": 151800,
          "time": 377.2174375,
          "velocity": 0.7874015748031497
        },
        {
          "duration": 0.1171875,
          "durationTicks": 60,
          "midi": 60,
          "name": "C4",
          "ticks": 151860,
          "time": 377.334625,
          "velocity": 0.7874015748031497
        },
        {
          "duration": 0.1171875,
          "durationTicks": 60,
          "midi": 54,
          "name": "F#3",
          "ticks": 151920,
          "time": 377.4518125,
          "velocity": 0.7874015748031497
        },
        {
          "duration": 0.1171875,
          "durationTicks": 60,
          "midi": 55,
          "name": "G3",
          "ticks": 151980,
          "time": 377.569,
          "velocity": 0.7874015748031497
        },
        {
          "duration": 0.1171875,
          "durationTicks": 60,
          "midi": 57,
          "name": "A3",
          "ticks": 152040,
          "time": 377.6861875,
          "velocity": 0.7874015748031497
        },
        {
          "duration": 0.1171875,
          "durationTicks": 60,
          "midi": 54,
          "name": "F#3",
          "ticks": 152100,
          "time": 377.803375,
          "velocity": 0.7874015748031497
        },
        {
          "duration": 0.1171875,
          "durationTicks": 60,
          "midi": 50,
          "name": "D3",
          "ticks": 152160,
          "time": 377.9205625,
          "velocity": 0.7874015748031497
        },
        {
          "duration": 0.1171875,
          "durationTicks": 60,
          "midi": 52,
          "name": "E3",
          "ticks": 152220,
          "time": 378.03775,
          "velocity": 0.7874015748031497
        },
        {
          "duration": 0.1171875,
          "durationTicks": 60,
          "midi": 54,
          "name": "F#3",
          "ticks": 152280,
          "time": 378.1549375,
          "velocity": 0.7874015748031497
        },
        {
          "duration": 0.1171875,
          "durationTicks": 60,
          "midi": 50,
          "name": "D3",
          "ticks": 152340,
          "time": 378.272125,
          "velocity": 0.7874015748031497
        },
        {
          "duration": 0.1171875,
          "durationTicks": 60,
          "midi": 45,
          "name": "A2",
          "ticks": 152400,
          "time": 378.3893125,
          "velocity": 0.7874015748031497
        },
        {
          "duration": 0.1171875,
          "durationTicks": 60,
          "midi": 47,
          "name": "B2",
          "ticks": 152460,
          "time": 378.5065,
          "velocity": 0.7874015748031497
        },
        {
          "duration": 0.1171875,
          "durationTicks": 60,
          "midi": 48,
          "name": "C3",
          "ticks": 152520,
          "time": 378.6236875,
          "velocity": 0.7874015748031497
        },
        {
          "duration": 0.1171875,
          "durationTicks": 60,
          "midi": 45,
          "name": "A2",
          "ticks": 152580,
          "time": 378.740875,
          "velocity": 0.7874015748031497
        },
        {
          "duration": 0.1171875,
          "durationTicks": 60,
          "midi": 42,
          "name": "F#2",
          "ticks": 152640,
          "time": 378.8580625,
          "velocity": 0.7874015748031497
        },
        {
          "duration": 0.1171875,
          "durationTicks": 60,
          "midi": 38,
          "name": "D2",
          "ticks": 152700,
          "time": 378.97525,
          "velocity": 0.7874015748031497
        },
        {
          "duration": 0.234375,
          "durationTicks": 120,
          "midi": 43,
          "name": "G2",
          "ticks": 152760,
          "time": 379.0924375,
          "velocity": 0.7874015748031497
        },
        {
          "duration": 0.234375,
          "durationTicks": 120,
          "midi": 47,
          "name": "B2",
          "ticks": 152880,
          "time": 379.3268125,
          "velocity": 0.7874015748031497
        },
        {
          "duration": 0.234375,
          "durationTicks": 120,
          "midi": 50,
          "name": "D3",
          "ticks": 153000,
          "time": 379.5611875,
          "velocity": 0.7874015748031497
        },
        {
          "duration": 0.234375,
          "durationTicks": 120,
          "midi": 53,
          "name": "F3",
          "ticks": 153120,
          "time": 379.7955625,
          "velocity": 0.7874015748031497
        },
        {
          "duration": 0.1171875,
          "durationTicks": 60,
          "midi": 53,
          "name": "F3",
          "ticks": 153300,
          "time": 380.147125,
          "velocity": 0.7874015748031497
        },
        {
          "duration": 0.1171875,
          "durationTicks": 60,
          "midi": 52,
          "name": "E3",
          "ticks": 153360,
          "time": 380.2643125,
          "velocity": 0.7874015748031497
        },
        {
          "duration": 0.1171875,
          "durationTicks": 60,
          "midi": 50,
          "name": "D3",
          "ticks": 153420,
          "time": 380.3815,
          "velocity": 0.7874015748031497
        },
        {
          "duration": 0.234375,
          "durationTicks": 120,
          "midi": 48,
          "name": "C3",
          "ticks": 153480,
          "time": 380.4986875,
          "velocity": 0.7874015748031497
        },
        {
          "duration": 0.234375,
          "durationTicks": 120,
          "midi": 52,
          "name": "E3",
          "ticks": 153600,
          "time": 380.7330625,
          "velocity": 0.7874015748031497
        },
        {
          "duration": 0.234375,
          "durationTicks": 120,
          "midi": 55,
          "name": "G3",
          "ticks": 153720,
          "time": 380.9674375,
          "velocity": 0.7874015748031497
        },
        {
          "duration": 0.234375,
          "durationTicks": 120,
          "midi": 60,
          "name": "C4",
          "ticks": 153840,
          "time": 381.2018125,
          "velocity": 0.7874015748031497
        },
        {
          "duration": 0.1171875,
          "durationTicks": 60,
          "midi": 60,
          "name": "C4",
          "ticks": 154020,
          "time": 381.553375,
          "velocity": 0.7874015748031497
        },
        {
          "duration": 0.1171875,
          "durationTicks": 60,
          "midi": 59,
          "name": "B3",
          "ticks": 154080,
          "time": 381.6705625,
          "velocity": 0.7874015748031497
        },
        {
          "duration": 0.1171875,
          "durationTicks": 60,
          "midi": 60,
          "name": "C4",
          "ticks": 154140,
          "time": 381.78775,
          "velocity": 0.7874015748031497
        },
        {
          "duration": 0.234375,
          "durationTicks": 120,
          "midi": 62,
          "name": "D4",
          "ticks": 154200,
          "time": 381.9049375,
          "velocity": 0.7874015748031497
        },
        {
          "duration": 0.234375,
          "durationTicks": 120,
          "midi": 66,
          "name": "F#4",
          "ticks": 154320,
          "time": 382.1393125,
          "velocity": 0.7874015748031497
        },
        {
          "duration": 0.234375,
          "durationTicks": 120,
          "midi": 69,
          "name": "A4",
          "ticks": 154440,
          "time": 382.3736875,
          "velocity": 0.7874015748031497
        },
        {
          "duration": 0.234375,
          "durationTicks": 120,
          "midi": 72,
          "name": "C5",
          "ticks": 154560,
          "time": 382.6080625,
          "velocity": 0.7874015748031497
        },
        {
          "duration": 0.1171875,
          "durationTicks": 60,
          "midi": 72,
          "name": "C5",
          "ticks": 154740,
          "time": 382.959625,
          "velocity": 0.7874015748031497
        },
        {
          "duration": 0.1171875,
          "durationTicks": 60,
          "midi": 74,
          "name": "D5",
          "ticks": 154800,
          "time": 383.0768125,
          "velocity": 0.7874015748031497
        },
        {
          "duration": 0.1171875,
          "durationTicks": 60,
          "midi": 66,
          "name": "F#4",
          "ticks": 154860,
          "time": 383.194,
          "velocity": 0.7874015748031497
        },
        {
          "duration": 0.234375,
          "durationTicks": 120,
          "midi": 67,
          "name": "G4",
          "ticks": 154920,
          "time": 383.3111875,
          "velocity": 0.7874015748031497
        },
        {
          "duration": 0.234375,
          "durationTicks": 120,
          "midi": 71,
          "name": "B4",
          "ticks": 155040,
          "time": 383.5455625,
          "velocity": 0.7874015748031497
        },
        {
          "duration": 0.234375,
          "durationTicks": 120,
          "midi": 74,
          "name": "D5",
          "ticks": 155160,
          "time": 383.7799375,
          "velocity": 0.7874015748031497
        },
        {
          "duration": 0.234375,
          "durationTicks": 120,
          "midi": 79,
          "name": "G5",
          "ticks": 155280,
          "time": 384.0143125,
          "velocity": 0.7874015748031497
        },
        {
          "duration": 0.46875,
          "durationTicks": 240,
          "midi": 43,
          "name": "G2",
          "ticks": 155400,
          "time": 384.2486875,
          "velocity": 0.7874015748031497
        },
        {
          "duration": 0.09375,
          "durationTicks": 60,
          "midi": 62,
          "name": "D4",
          "ticks": 160200,
          "time": 391.8893125,
          "velocity": 0.7874015748031497
        },
        {
          "duration": 0.09375,
          "durationTicks": 60,
          "midi": 60,
          "name": "C4",
          "ticks": 160260,
          "time": 391.9830625,
          "velocity": 0.7874015748031497
        },
        {
          "duration": 0.5625,
          "durationTicks": 360,
          "midi": 62,
          "name": "D4",
          "ticks": 160320,
          "time": 392.0768125,
          "velocity": 0.7874015748031497
        },
        {
          "duration": 0.09375,
          "durationTicks": 60,
          "midi": 64,
          "name": "E4",
          "ticks": 160680,
          "time": 392.6393125,
          "velocity": 0.7874015748031497
        },
        {
          "duration": 0.09375,
          "durationTicks": 60,
          "midi": 62,
          "name": "D4",
          "ticks": 160740,
          "time": 392.7330625,
          "velocity": 0.7874015748031497
        },
        {
          "duration": 0.09375,
          "durationTicks": 60,
          "midi": 64,
          "name": "E4",
          "ticks": 160800,
          "time": 392.8268125,
          "velocity": 0.7874015748031497
        },
        {
          "duration": 0.09375,
          "durationTicks": 60,
          "midi": 62,
          "name": "D4",
          "ticks": 160860,
          "time": 392.9205625,
          "velocity": 0.7874015748031497
        },
        {
          "duration": 0.09375,
          "durationTicks": 60,
          "midi": 64,
          "name": "E4",
          "ticks": 160920,
          "time": 393.0143125,
          "velocity": 0.7874015748031497
        },
        {
          "duration": 0.09375,
          "durationTicks": 60,
          "midi": 62,
          "name": "D4",
          "ticks": 160980,
          "time": 393.1080625,
          "velocity": 0.7874015748031497
        },
        {
          "duration": 0.09375,
          "durationTicks": 60,
          "midi": 60,
          "name": "C4",
          "ticks": 161040,
          "time": 393.2018125,
          "velocity": 0.7874015748031497
        },
        {
          "duration": 0.09375,
          "durationTicks": 60,
          "midi": 62,
          "name": "D4",
          "ticks": 161100,
          "time": 393.2955625,
          "velocity": 0.7874015748031497
        },
        {
          "duration": 0.375,
          "durationTicks": 240,
          "midi": 64,
          "name": "E4",
          "ticks": 161160,
          "time": 393.3893125,
          "velocity": 0.7874015748031497
        },
        {
          "duration": 0.375,
          "durationTicks": 240,
          "midi": 60,
          "name": "C4",
          "ticks": 161400,
          "time": 393.7643125,
          "velocity": 0.7874015748031497
        },
        {
          "duration": 0.375,
          "durationTicks": 240,
          "midi": 57,
          "name": "A3",
          "ticks": 161640,
          "time": 394.1393125,
          "velocity": 0.7874015748031497
        },
        {
          "duration": 0.375,
          "durationTicks": 240,
          "midi": 60,
          "name": "C4",
          "ticks": 161880,
          "time": 394.5143125,
          "velocity": 0.7874015748031497
        },
        {
          "duration": 0.375,
          "durationTicks": 240,
          "midi": 57,
          "name": "A3",
          "ticks": 162120,
          "time": 394.8893125,
          "velocity": 0.7874015748031497
        },
        {
          "duration": 0.375,
          "durationTicks": 240,
          "midi": 62,
          "name": "D4",
          "ticks": 162360,
          "time": 395.2643125,
          "velocity": 0.7874015748031497
        },
        {
          "duration": 0.375,
          "durationTicks": 240,
          "midi": 50,
          "name": "D3",
          "ticks": 162600,
          "time": 395.6393125,
          "velocity": 0.7874015748031497
        },
        {
          "duration": 0.375,
          "durationTicks": 240,
          "midi": 60,
          "name": "C4",
          "ticks": 162840,
          "time": 396.0143125,
          "velocity": 0.7874015748031497
        },
        {
          "duration": 0.0625,
          "durationTicks": 40,
          "midi": 60,
          "name": "C4",
          "ticks": 163080,
          "time": 396.3893125,
          "velocity": 0.7874015748031497
        },
        {
          "duration": 0.0625,
          "durationTicks": 40,
          "midi": 59,
          "name": "B3",
          "ticks": 163120,
          "time": 396.4518125,
          "velocity": 0.7874015748031497
        },
        {
          "duration": 0.0625,
          "durationTicks": 40,
          "midi": 60,
          "name": "C4",
          "ticks": 163160,
          "time": 396.5143125,
          "velocity": 0.7874015748031497
        },
        {
          "duration": 0.1875,
          "durationTicks": 120,
          "midi": 59,
          "name": "B3",
          "ticks": 163200,
          "time": 396.5768125,
          "velocity": 0.7874015748031497
        },
        {
          "duration": 0.1875,
          "durationTicks": 120,
          "midi": 57,
          "name": "A3",
          "ticks": 163320,
          "time": 396.7643125,
          "velocity": 0.7874015748031497
        },
        {
          "duration": 0.1875,
          "durationTicks": 120,
          "midi": 59,
          "name": "B3",
          "ticks": 163440,
          "time": 396.9518125,
          "velocity": 0.7874015748031497
        },
        {
          "duration": 0.1875,
          "durationTicks": 120,
          "midi": 55,
          "name": "G3",
          "ticks": 163560,
          "time": 397.1393125,
          "velocity": 0.7874015748031497
        },
        {
          "duration": 0.1875,
          "durationTicks": 120,
          "midi": 59,
          "name": "B3",
          "ticks": 163680,
          "time": 397.3268125,
          "velocity": 0.7874015748031497
        },
        {
          "duration": 0.1875,
          "durationTicks": 120,
          "midi": 57,
          "name": "A3",
          "ticks": 163800,
          "time": 397.5143125,
          "velocity": 0.7874015748031497
        },
        {
          "duration": 0.1875,
          "durationTicks": 120,
          "midi": 60,
          "name": "C4",
          "ticks": 163920,
          "time": 397.7018125,
          "velocity": 0.7874015748031497
        },
        {
          "duration": 0.1875,
          "durationTicks": 120,
          "midi": 71,
          "name": "B4",
          "ticks": 164040,
          "time": 397.8893125,
          "velocity": 0.7874015748031497
        },
        {
          "duration": 0.1875,
          "durationTicks": 120,
          "midi": 69,
          "name": "A4",
          "ticks": 164160,
          "time": 398.0768125,
          "velocity": 0.7874015748031497
        },
        {
          "duration": 0.375,
          "durationTicks": 240,
          "midi": 71,
          "name": "B4",
          "ticks": 164280,
          "time": 398.2643125,
          "velocity": 0.7874015748031497
        },
        {
          "duration": 1.125,
          "durationTicks": 720,
          "midi": 76,
          "name": "E5",
          "ticks": 164520,
          "time": 398.6393125,
          "velocity": 0.7874015748031497
        },
        {
          "duration": 0.375,
          "durationTicks": 240,
          "midi": 69,
          "name": "A4",
          "ticks": 165240,
          "time": 399.7643125,
          "velocity": 0.7874015748031497
        },
        {
          "duration": 1.125,
          "durationTicks": 720,
          "midi": 74,
          "name": "D5",
          "ticks": 165480,
          "time": 400.1393125,
          "velocity": 0.7874015748031497
        },
        {
          "duration": 0.375,
          "durationTicks": 240,
          "midi": 71,
          "name": "B4",
          "ticks": 166200,
          "time": 401.2643125,
          "velocity": 0.7874015748031497
        },
        {
          "duration": 1.125,
          "durationTicks": 720,
          "midi": 76,
          "name": "E5",
          "ticks": 166440,
          "time": 401.6393125,
          "velocity": 0.7874015748031497
        },
        {
          "duration": 0.375,
          "durationTicks": 240,
          "midi": 74,
          "name": "D5",
          "ticks": 167160,
          "time": 402.7643125,
          "velocity": 0.7874015748031497
        },
        {
          "duration": 0.375,
          "durationTicks": 240,
          "midi": 73,
          "name": "C#5",
          "ticks": 167400,
          "time": 403.1393125,
          "velocity": 0.7874015748031497
        },
        {
          "duration": 0.375,
          "durationTicks": 240,
          "midi": 76,
          "name": "E5",
          "ticks": 167640,
          "time": 403.5143125,
          "velocity": 0.7874015748031497
        },
        {
          "duration": 0.1875,
          "durationTicks": 120,
          "midi": 69,
          "name": "A4",
          "ticks": 167880,
          "time": 403.8893125,
          "velocity": 0.7874015748031497
        },
        {
          "duration": 0.1875,
          "durationTicks": 120,
          "midi": 71,
          "name": "B4",
          "ticks": 168000,
          "time": 404.0768125,
          "velocity": 0.7874015748031497
        },
        {
          "duration": 0.1875,
          "durationTicks": 120,
          "midi": 69,
          "name": "A4",
          "ticks": 168120,
          "time": 404.2643125,
          "velocity": 0.7874015748031497
        },
        {
          "duration": 0.1875,
          "durationTicks": 120,
          "midi": 67,
          "name": "G4",
          "ticks": 168240,
          "time": 404.4518125,
          "velocity": 0.7874015748031497
        },
        {
          "duration": 0.75,
          "durationTicks": 480,
          "midi": 66,
          "name": "F#4",
          "ticks": 168360,
          "time": 404.6393125,
          "velocity": 0.7874015748031497
        },
        {
          "duration": 0.75,
          "durationTicks": 480,
          "midi": 67,
          "name": "G4",
          "ticks": 168840,
          "time": 405.3893125,
          "velocity": 0.7874015748031497
        },
        {
          "duration": 0.375,
          "durationTicks": 240,
          "midi": 64,
          "name": "E4",
          "ticks": 170040,
          "time": 407.2643125,
          "velocity": 0.7874015748031497
        },
        {
          "duration": 0.9375,
          "durationTicks": 600,
          "midi": 69,
          "name": "A4",
          "ticks": 170280,
          "time": 407.6393125,
          "velocity": 0.7874015748031497
        },
        {
          "duration": 0.1875,
          "durationTicks": 120,
          "midi": 69,
          "name": "A4",
          "ticks": 170880,
          "time": 408.5768125,
          "velocity": 0.7874015748031497
        },
        {
          "duration": 0.1875,
          "durationTicks": 120,
          "midi": 67,
          "name": "G4",
          "ticks": 171000,
          "time": 408.7643125,
          "velocity": 0.7874015748031497
        },
        {
          "duration": 0.1875,
          "durationTicks": 120,
          "midi": 69,
          "name": "A4",
          "ticks": 171120,
          "time": 408.9518125,
          "velocity": 0.7874015748031497
        },
        {
          "duration": 0.75,
          "durationTicks": 480,
          "midi": 66,
          "name": "F#4",
          "ticks": 171240,
          "time": 409.1393125,
          "velocity": 0.7874015748031497
        },
        {
          "duration": 0.75,
          "durationTicks": 480,
          "midi": 74,
          "name": "D5",
          "ticks": 183240,
          "time": 427.8893125,
          "velocity": 0.7874015748031497
        },
        {
          "duration": 0.09375,
          "durationTicks": 60,
          "midi": 76,
          "name": "E5",
          "ticks": 183720,
          "time": 428.6393125,
          "velocity": 0.7874015748031497
        },
        {
          "duration": 0.09375,
          "durationTicks": 60,
          "midi": 74,
          "name": "D5",
          "ticks": 183780,
          "time": 428.7330625,
          "velocity": 0.7874015748031497
        },
        {
          "duration": 0.09375,
          "durationTicks": 60,
          "midi": 76,
          "name": "E5",
          "ticks": 183840,
          "time": 428.8268125,
          "velocity": 0.7874015748031497
        },
        {
          "duration": 0.09375,
          "durationTicks": 60,
          "midi": 74,
          "name": "D5",
          "ticks": 183900,
          "time": 428.9205625,
          "velocity": 0.7874015748031497
        },
        {
          "duration": 0.09375,
          "durationTicks": 60,
          "midi": 76,
          "name": "E5",
          "ticks": 183960,
          "time": 429.0143125,
          "velocity": 0.7874015748031497
        },
        {
          "duration": 0.09375,
          "durationTicks": 60,
          "midi": 74,
          "name": "D5",
          "ticks": 184020,
          "time": 429.1080625,
          "velocity": 0.7874015748031497
        },
        {
          "duration": 0.09375,
          "durationTicks": 60,
          "midi": 72,
          "name": "C5",
          "ticks": 184080,
          "time": 429.2018125,
          "velocity": 0.7874015748031497
        },
        {
          "duration": 0.09375,
          "durationTicks": 60,
          "midi": 74,
          "name": "D5",
          "ticks": 184140,
          "time": 429.2955625,
          "velocity": 0.7874015748031497
        },
        {
          "duration": 0.375,
          "durationTicks": 240,
          "midi": 76,
          "name": "E5",
          "ticks": 184200,
          "time": 429.3893125,
          "velocity": 0.7874015748031497
        },
        {
          "duration": 0.375,
          "durationTicks": 240,
          "midi": 72,
          "name": "C5",
          "ticks": 184440,
          "time": 429.7643125,
          "velocity": 0.7874015748031497
        },
        {
          "duration": 0.375,
          "durationTicks": 240,
          "midi": 69,
          "name": "A4",
          "ticks": 184680,
          "time": 430.1393125,
          "velocity": 0.7874015748031497
        },
        {
          "duration": 0.375,
          "durationTicks": 240,
          "midi": 72,
          "name": "C5",
          "ticks": 184920,
          "time": 430.5143125,
          "velocity": 0.7874015748031497
        },
        {
          "duration": 0.375,
          "durationTicks": 240,
          "midi": 69,
          "name": "A4",
          "ticks": 185160,
          "time": 430.8893125,
          "velocity": 0.7874015748031497
        },
        {
          "duration": 0.375,
          "durationTicks": 240,
          "midi": 74,
          "name": "D5",
          "ticks": 185400,
          "time": 431.2643125,
          "velocity": 0.7874015748031497
        },
        {
          "duration": 0.375,
          "durationTicks": 240,
          "midi": 62,
          "name": "D4",
          "ticks": 185640,
          "time": 431.6393125,
          "velocity": 0.7874015748031497
        },
        {
          "duration": 0.375,
          "durationTicks": 240,
          "midi": 72,
          "name": "C5",
          "ticks": 185880,
          "time": 432.0143125,
          "velocity": 0.7874015748031497
        },
        {
          "duration": 0.0625,
          "durationTicks": 40,
          "midi": 72,
          "name": "C5",
          "ticks": 186120,
          "time": 432.3893125,
          "velocity": 0.7874015748031497
        },
        {
          "duration": 0.0625,
          "durationTicks": 40,
          "midi": 71,
          "name": "B4",
          "ticks": 186160,
          "time": 432.4518125,
          "velocity": 0.7874015748031497
        },
        {
          "duration": 0.0625,
          "durationTicks": 40,
          "midi": 72,
          "name": "C5",
          "ticks": 186200,
          "time": 432.5143125,
          "velocity": 0.7874015748031497
        },
        {
          "duration": 0.1875,
          "durationTicks": 120,
          "midi": 71,
          "name": "B4",
          "ticks": 186240,
          "time": 432.5768125,
          "velocity": 0.7874015748031497
        },
        {
          "duration": 0.1875,
          "durationTicks": 120,
          "midi": 69,
          "name": "A4",
          "ticks": 186360,
          "time": 432.7643125,
          "velocity": 0.7874015748031497
        },
        {
          "duration": 0.1875,
          "durationTicks": 120,
          "midi": 71,
          "name": "B4",
          "ticks": 186480,
          "time": 432.9518125,
          "velocity": 0.7874015748031497
        },
        {
          "duration": 0.75,
          "durationTicks": 480,
          "midi": 67,
          "name": "G4",
          "ticks": 186600,
          "time": 433.1393125,
          "velocity": 0.7874015748031497
        },
        {
          "duration": 0.3125,
          "durationTicks": 60,
          "midi": 59,
          "name": "B3",
          "ticks": 219900,
          "time": 488.0143125,
          "velocity": 0.7874015748031497
        },
        {
          "duration": 3.4375,
          "durationTicks": 660,
          "midi": 62,
          "name": "D4",
          "ticks": 219960,
          "time": 488.3268125,
          "velocity": 0.7874015748031497
        },
        {
          "duration": 0.3125,
          "durationTicks": 60,
          "midi": 57,
          "name": "A3",
          "ticks": 220620,
          "time": 491.7643125,
          "velocity": 0.7874015748031497
        },
        {
          "duration": 3.4375,
          "durationTicks": 660,
          "midi": 62,
          "name": "D4",
          "ticks": 220680,
          "time": 492.0768125,
          "velocity": 0.7874015748031497
        },
        {
          "duration": 0.3125,
          "durationTicks": 60,
          "midi": 59,
          "name": "B3",
          "ticks": 221340,
          "time": 495.5143125,
          "velocity": 0.7874015748031497
        },
        {
          "duration": 2.5,
          "durationTicks": 480,
          "midi": 61,
          "name": "C#4",
          "ticks": 221400,
          "time": 495.8268125,
          "velocity": 0.7874015748031497
        },
        {
          "duration": 0.3125,
          "durationTicks": 60,
          "midi": 54,
          "name": "F#3",
          "ticks": 222060,
          "time": 499.2643125,
          "velocity": 0.7874015748031497
        },
        {
          "duration": 2.5,
          "durationTicks": 480,
          "midi": 57,
          "name": "A3",
          "ticks": 222120,
          "time": 499.5768125,
          "velocity": 0.7874015748031497
        },
        {
          "duration": 0.3125,
          "durationTicks": 60,
          "midi": 50,
          "name": "D3",
          "ticks": 222780,
          "time": 503.0143125,
          "velocity": 0.7874015748031497
        },
        {
          "duration": 3.4375,
          "durationTicks": 660,
          "midi": 55,
          "name": "G3",
          "ticks": 222840,
          "time": 503.3268125,
          "velocity": 0.7874015748031497
        },
        {
          "duration": 0.3125,
          "durationTicks": 60,
          "midi": 54,
          "name": "F#3",
          "ticks": 223500,
          "time": 506.7643125,
          "velocity": 0.7874015748031497
        },
        {
          "duration": 3.4375,
          "durationTicks": 660,
          "midi": 55,
          "name": "G3",
          "ticks": 223560,
          "time": 507.0768125,
          "velocity": 0.7874015748031497
        },
        {
          "duration": 0.3125,
          "durationTicks": 60,
          "midi": 52,
          "name": "E3",
          "ticks": 224220,
          "time": 510.5143125,
          "velocity": 0.7874015748031497
        },
        {
          "duration": 2.499999999999943,
          "durationTicks": 480,
          "midi": 54,
          "name": "F#3",
          "ticks": 224280,
          "time": 510.8268125,
          "velocity": 0.7874015748031497
        },
        {
          "duration": 0.3125,
          "durationTicks": 60,
          "midi": 50,
          "name": "D3",
          "ticks": 224940,
          "time": 514.2643125,
          "velocity": 0.7874015748031497
        },
        {
          "duration": 1.25,
          "durationTicks": 240,
          "midi": 55,
          "name": "G3",
          "ticks": 225000,
          "time": 514.5768125,
          "velocity": 0.7874015748031497
        },
        {
          "duration": 0.625,
          "durationTicks": 120,
          "midi": 59,
          "name": "B3",
          "ticks": 225600,
          "time": 517.7018125,
          "velocity": 0.7874015748031497
        },
        {
          "duration": 3.125,
          "durationTicks": 600,
          "midi": 64,
          "name": "E4",
          "ticks": 225720,
          "time": 518.3268125,
          "velocity": 0.7874015748031497
        },
        {
          "duration": 0.625,
          "durationTicks": 120,
          "midi": 57,
          "name": "A3",
          "ticks": 226320,
          "time": 521.4518125,
          "velocity": 0.7874015748031497
        },
        {
          "duration": 3.125,
          "durationTicks": 600,
          "midi": 62,
          "name": "D4",
          "ticks": 226440,
          "time": 522.0768125,
          "velocity": 0.7874015748031497
        },
        {
          "duration": 0.625,
          "durationTicks": 120,
          "midi": 59,
          "name": "B3",
          "ticks": 227040,
          "time": 525.2018125,
          "velocity": 0.7874015748031497
        },
        {
          "duration": 2.8125,
          "durationTicks": 540,
          "midi": 55,
          "name": "G3",
          "ticks": 227160,
          "time": 525.8268125,
          "velocity": 0.7874015748031497
        },
        {
          "duration": 0.3125,
          "durationTicks": 60,
          "midi": 57,
          "name": "A3",
          "ticks": 227700,
          "time": 528.6393125,
          "velocity": 0.7874015748031497
        },
        {
          "duration": 0.3125,
          "durationTicks": 60,
          "midi": 55,
          "name": "G3",
          "ticks": 227760,
          "time": 528.9518125,
          "velocity": 0.7874015748031497
        },
        {
          "duration": 0.3125,
          "durationTicks": 60,
          "midi": 54,
          "name": "F#3",
          "ticks": 227820,
          "time": 529.2643125,
          "velocity": 0.7874015748031497
        },
        {
          "duration": 1.25,
          "durationTicks": 240,
          "midi": 55,
          "name": "G3",
          "ticks": 227880,
          "time": 529.5768125,
          "velocity": 0.7874015748031497
        },
        {
          "duration": 0.625,
          "durationTicks": 120,
          "midi": 57,
          "name": "A3",
          "ticks": 228480,
          "time": 532.7018125,
          "velocity": 0.7874015748031497
        },
        {
          "duration": 1.875,
          "durationTicks": 360,
          "midi": 62,
          "name": "D4",
          "ticks": 228600,
          "time": 533.3268125,
          "velocity": 0.7874015748031497
        },
        {
          "duration": 0.625,
          "durationTicks": 120,
          "midi": 57,
          "name": "A3",
          "ticks": 228960,
          "time": 535.2018125,
          "velocity": 0.7874015748031497
        },
        {
          "duration": 0.625,
          "durationTicks": 120,
          "midi": 55,
          "name": "G3",
          "ticks": 229080,
          "time": 535.8268125,
          "velocity": 0.7874015748031497
        },
        {
          "duration": 0.625,
          "durationTicks": 120,
          "midi": 59,
          "name": "B3",
          "ticks": 229200,
          "time": 536.4518125,
          "velocity": 0.7874015748031497
        },
        {
          "duration": 1.875,
          "durationTicks": 360,
          "midi": 64,
          "name": "E4",
          "ticks": 229320,
          "time": 537.0768125,
          "velocity": 0.7874015748031497
        },
        {
          "duration": 0.625,
          "durationTicks": 120,
          "midi": 59,
          "name": "B3",
          "ticks": 229680,
          "time": 538.9518125,
          "velocity": 0.7874015748031497
        },
        {
          "duration": 0.625,
          "durationTicks": 120,
          "midi": 57,
          "name": "A3",
          "ticks": 229800,
          "time": 539.5768125,
          "velocity": 0.7874015748031497
        },
        {
          "duration": 0.625,
          "durationTicks": 120,
          "midi": 61,
          "name": "C#4",
          "ticks": 229920,
          "time": 540.2018125,
          "velocity": 0.7874015748031497
        },
        {
          "duration": 0.625,
          "durationTicks": 120,
          "midi": 67,
          "name": "G4",
          "ticks": 230040,
          "time": 540.8268125,
          "velocity": 0.7874015748031497
        },
        {
          "duration": 0.625,
          "durationTicks": 120,
          "midi": 64,
          "name": "E4",
          "ticks": 230160,
          "time": 541.4518125,
          "velocity": 0.7874015748031497
        },
        {
          "duration": 1.25,
          "durationTicks": 240,
          "midi": 61,
          "name": "C#4",
          "ticks": 230280,
          "time": 542.0768125,
          "velocity": 0.7874015748031497
        },
        {
          "duration": 0.625,
          "durationTicks": 120,
          "midi": 62,
          "name": "D4",
          "ticks": 230520,
          "time": 543.3268125,
          "velocity": 0.7874015748031497
        },
        {
          "duration": 0.625,
          "durationTicks": 120,
          "midi": 52,
          "name": "E3",
          "ticks": 230640,
          "time": 543.9518125,
          "velocity": 0.7874015748031497
        },
        {
          "duration": 0.625,
          "durationTicks": 120,
          "midi": 54,
          "name": "F#3",
          "ticks": 230760,
          "time": 544.5768125,
          "velocity": 0.7874015748031497
        },
        {
          "duration": 0.625,
          "durationTicks": 120,
          "midi": 58,
          "name": "A#3",
          "ticks": 230880,
          "time": 545.2018125,
          "velocity": 0.7874015748031497
        },
        {
          "duration": 1.25,
          "durationTicks": 240,
          "midi": 57,
          "name": "A3",
          "ticks": 231000,
          "time": 545.8268125,
          "velocity": 0.7874015748031497
        },
        {
          "duration": 0.3125,
          "durationTicks": 60,
          "midi": 66,
          "name": "F#4",
          "ticks": 231420,
          "time": 548.0143125,
          "velocity": 0.7874015748031497
        },
        {
          "duration": 2.5,
          "durationTicks": 480,
          "midi": 69,
          "name": "A4",
          "ticks": 231480,
          "time": 548.3268125,
          "velocity": 0.7874015748031497
        },
        {
          "duration": 0.3125,
          "durationTicks": 60,
          "midi": 62,
          "name": "D4",
          "ticks": 232140,
          "time": 551.7643125,
          "velocity": 0.7874015748031497
        },
        {
          "duration": 3.4375,
          "durationTicks": 660,
          "midi": 67,
          "name": "G4",
          "ticks": 232200,
          "time": 552.0768125,
          "velocity": 0.7874015748031497
        },
        {
          "duration": 0.3125,
          "durationTicks": 60,
          "midi": 68,
          "name": "G#4",
          "ticks": 232860,
          "time": 555.5143125,
          "velocity": 0.7874015748031497
        },
        {
          "duration": 0.625,
          "durationTicks": 120,
          "midi": 69,
          "name": "A4",
          "ticks": 232920,
          "time": 555.8268125,
          "velocity": 0.7874015748031497
        },
        {
          "duration": 0.625,
          "durationTicks": 120,
          "midi": 62,
          "name": "D4",
          "ticks": 233040,
          "time": 556.4518125,
          "velocity": 0.7874015748031497
        },
        {
          "duration": 0.625,
          "durationTicks": 120,
          "midi": 64,
          "name": "E4",
          "ticks": 233160,
          "time": 557.0768125,
          "velocity": 0.7874015748031497
        },
        {
          "duration": 1.25,
          "durationTicks": 240,
          "midi": 67,
          "name": "G4",
          "ticks": 233280,
          "time": 557.7018125,
          "velocity": 0.7874015748031497
        },
        {
          "duration": 0.3125,
          "durationTicks": 60,
          "midi": 66,
          "name": "F#4",
          "ticks": 233520,
          "time": 558.9518125,
          "velocity": 0.7874015748031497
        },
        {
          "duration": 0.3125,
          "durationTicks": 60,
          "midi": 64,
          "name": "E4",
          "ticks": 233580,
          "time": 559.2643125,
          "velocity": 0.7874015748031497
        },
        {
          "duration": 1.25,
          "durationTicks": 240,
          "midi": 66,
          "name": "F#4",
          "ticks": 233640,
          "time": 559.5768125,
          "velocity": 0.7874015748031497
        },
        {
          "duration": 1.25,
          "durationTicks": 240,
          "midi": 59,
          "name": "B3",
          "ticks": 234240,
          "time": 562.7018125,
          "velocity": 0.7874015748031497
        },
        {
          "duration": 1.25,
          "durationTicks": 240,
          "midi": 57,
          "name": "A3",
          "ticks": 234480,
          "time": 563.9518125,
          "velocity": 0.7874015748031497
        },
        {
          "duration": 0.625,
          "durationTicks": 120,
          "midi": 56,
          "name": "G#3",
          "ticks": 234720,
          "time": 565.2018125,
          "velocity": 0.7874015748031497
        },
        {
          "duration": 1.25,
          "durationTicks": 240,
          "midi": 60,
          "name": "C4",
          "ticks": 234960,
          "time": 566.4518125,
          "velocity": 0.7874015748031497
        },
        {
          "duration": 0.625,
          "durationTicks": 120,
          "midi": 64,
          "name": "E4",
          "ticks": 235200,
          "time": 567.7018125,
          "velocity": 0.7874015748031497
        },
        {
          "duration": 0.625,
          "durationTicks": 120,
          "midi": 60,
          "name": "C4",
          "ticks": 235320,
          "time": 568.3268125,
          "velocity": 0.7874015748031497
        },
        {
          "duration": 0.625,
          "durationTicks": 120,
          "midi": 57,
          "name": "A3",
          "ticks": 235440,
          "time": 568.9518125,
          "velocity": 0.7874015748031497
        },
        {
          "duration": 0.625,
          "durationTicks": 120,
          "midi": 54,
          "name": "F#3",
          "ticks": 235680,
          "time": 570.2018125,
          "velocity": 0.7874015748031497
        },
        {
          "duration": 0.625,
          "durationTicks": 120,
          "midi": 55,
          "name": "G3",
          "ticks": 235800,
          "time": 570.8268125,
          "velocity": 0.7874015748031497
        },
        {
          "duration": 1.25,
          "durationTicks": 240,
          "midi": 64,
          "name": "E4",
          "ticks": 235920,
          "time": 571.4518125,
          "velocity": 0.7874015748031497
        },
        {
          "duration": 0.625,
          "durationTicks": 120,
          "midi": 63,
          "name": "D#4",
          "ticks": 236160,
          "time": 572.7018125,
          "velocity": 0.7874015748031497
        },
        {
          "duration": 0.625,
          "durationTicks": 120,
          "midi": 64,
          "name": "E4",
          "ticks": 236280,
          "time": 573.3268125,
          "velocity": 0.7874015748031497
        },
        {
          "duration": 0.625,
          "durationTicks": 120,
          "midi": 54,
          "name": "F#3",
          "ticks": 236400,
          "time": 573.9518125,
          "velocity": 0.7874015748031497
        },
        {
          "duration": 0.625,
          "durationTicks": 120,
          "midi": 55,
          "name": "G3",
          "ticks": 236520,
          "time": 574.5768125,
          "velocity": 0.7874015748031497
        },
        {
          "duration": 0.625,
          "durationTicks": 120,
          "midi": 60,
          "name": "C4",
          "ticks": 236640,
          "time": 575.2018125,
          "velocity": 0.7874015748031497
        },
        {
          "duration": 0.625,
          "durationTicks": 120,
          "midi": 59,
          "name": "B3",
          "ticks": 236760,
          "time": 575.8268125,
          "velocity": 0.7874015748031497
        },
        {
          "duration": 0.3125,
          "durationTicks": 60,
          "midi": 55,
          "name": "G3",
          "ticks": 237180,
          "time": 578.0143125,
          "velocity": 0.7874015748031497
        },
        {
          "duration": 0.3125,
          "durationTicks": 60,
          "midi": 60,
          "name": "C4",
          "ticks": 237240,
          "time": 578.3268125,
          "velocity": 0.7874015748031497
        },
        {
          "duration": 0.3125,
          "durationTicks": 60,
          "midi": 62,
          "name": "D4",
          "ticks": 237300,
          "time": 578.6393125,
          "velocity": 0.7874015748031497
        },
        {
          "duration": 0.625,
          "durationTicks": 120,
          "midi": 64,
          "name": "E4",
          "ticks": 237360,
          "time": 578.9518125,
          "velocity": 0.7874015748031497
        },
        {
          "duration": 0.625,
          "durationTicks": 120,
          "midi": 62,
          "name": "D4",
          "ticks": 237480,
          "time": 579.5768125,
          "velocity": 0.7874015748031497
        },
        {
          "duration": 0.625,
          "durationTicks": 120,
          "midi": 61,
          "name": "C#4",
          "ticks": 237600,
          "time": 580.2018125,
          "velocity": 0.7874015748031497
        },
        {
          "duration": 0.9375,
          "durationTicks": 180,
          "midi": 59,
          "name": "B3",
          "ticks": 237720,
          "time": 580.8268125,
          "velocity": 0.7874015748031497
        },
        {
          "duration": 0.3125,
          "durationTicks": 60,
          "midi": 54,
          "name": "F#3",
          "ticks": 237900,
          "time": 581.7643125,
          "velocity": 0.7874015748031497
        },
        {
          "duration": 0.3125,
          "durationTicks": 60,
          "midi": 59,
          "name": "B3",
          "ticks": 237960,
          "time": 582.0768125,
          "velocity": 0.7874015748031497
        },
        {
          "duration": 0.3125,
          "durationTicks": 60,
          "midi": 60,
          "name": "C4",
          "ticks": 238020,
          "time": 582.3893125,
          "velocity": 0.7874015748031497
        },
        {
          "duration": 0.625,
          "durationTicks": 120,
          "midi": 62,
          "name": "D4",
          "ticks": 238080,
          "time": 582.7018125,
          "velocity": 0.7874015748031497
        },
        {
          "duration": 0.625,
          "durationTicks": 120,
          "midi": 60,
          "name": "C4",
          "ticks": 238200,
          "time": 583.3268125,
          "velocity": 0.7874015748031497
        },
        {
          "duration": 0.625,
          "durationTicks": 120,
          "midi": 59,
          "name": "B3",
          "ticks": 238320,
          "time": 583.9518125,
          "velocity": 0.7874015748031497
        },
        {
          "duration": 0.625,
          "durationTicks": 120,
          "midi": 57,
          "name": "A3",
          "ticks": 238440,
          "time": 584.5768125,
          "velocity": 0.7874015748031497
        },
        {
          "duration": 0.625,
          "durationTicks": 120,
          "midi": 52,
          "name": "E3",
          "ticks": 238560,
          "time": 585.2018125,
          "velocity": 0.7874015748031497
        },
        {
          "duration": 0.625,
          "durationTicks": 120,
          "midi": 57,
          "name": "A3",
          "ticks": 238680,
          "time": 585.8268125,
          "velocity": 0.7874015748031497
        },
        {
          "duration": 0.625,
          "durationTicks": 120,
          "midi": 60,
          "name": "C4",
          "ticks": 238800,
          "time": 586.4518125,
          "velocity": 0.7874015748031497
        },
        {
          "duration": 0.625,
          "durationTicks": 120,
          "midi": 57,
          "name": "A3",
          "ticks": 238920,
          "time": 587.0768125,
          "velocity": 0.7874015748031497
        },
        {
          "duration": 0.625,
          "durationTicks": 120,
          "midi": 54,
          "name": "F#3",
          "ticks": 239040,
          "time": 587.7018125,
          "velocity": 0.7874015748031497
        },
        {
          "duration": 1.25,
          "durationTicks": 240,
          "midi": 50,
          "name": "D3",
          "ticks": 239160,
          "time": 588.3268125,
          "velocity": 0.7874015748031497
        },
        {
          "duration": 0.625,
          "durationTicks": 120,
          "midi": 64,
          "name": "E4",
          "ticks": 240000,
          "time": 592.7018125,
          "velocity": 0.7874015748031497
        },
        {
          "duration": 0.625,
          "durationTicks": 120,
          "midi": 63,
          "name": "D#4",
          "ticks": 240120,
          "time": 593.3268125,
          "velocity": 0.7874015748031497
        },
        {
          "duration": 0.625,
          "durationTicks": 120,
          "midi": 62,
          "name": "D4",
          "ticks": 240240,
          "time": 593.9518125,
          "velocity": 0.7874015748031497
        },
        {
          "duration": 0.625,
          "durationTicks": 120,
          "midi": 67,
          "name": "G4",
          "ticks": 240360,
          "time": 594.5768125,
          "velocity": 0.7874015748031497
        },
        {
          "duration": 0.625,
          "durationTicks": 120,
          "midi": 59,
          "name": "B3",
          "ticks": 240480,
          "time": 595.2018125,
          "velocity": 0.7874015748031497
        },
        {
          "duration": 0.625,
          "durationTicks": 120,
          "midi": 60,
          "name": "C4",
          "ticks": 240600,
          "time": 595.8268125,
          "velocity": 0.7874015748031497
        },
        {
          "duration": 0.625,
          "durationTicks": 120,
          "midi": 67,
          "name": "G4",
          "ticks": 240720,
          "time": 596.4518125,
          "velocity": 0.7874015748031497
        },
        {
          "duration": 0.625,
          "durationTicks": 120,
          "midi": 69,
          "name": "A4",
          "ticks": 240840,
          "time": 597.0768125,
          "velocity": 0.7874015748031497
        },
        {
          "duration": 0.625,
          "durationTicks": 120,
          "midi": 62,
          "name": "D4",
          "ticks": 240960,
          "time": 597.7018125,
          "velocity": 0.7874015748031497
        },
        {
          "duration": 0.625,
          "durationTicks": 120,
          "midi": 64,
          "name": "E4",
          "ticks": 241080,
          "time": 598.3268125,
          "velocity": 0.7874015748031497
        },
        {
          "duration": 1.25,
          "durationTicks": 240,
          "midi": 45,
          "name": "A2",
          "ticks": 241200,
          "time": 598.9518125,
          "velocity": 0.7874015748031497
        },
        {
          "duration": 1.25,
          "durationTicks": 240,
          "midi": 57,
          "name": "A3",
          "ticks": 241200,
          "time": 598.9518125,
          "velocity": 0.7874015748031497
        },
        {
          "duration": 0.3125,
          "durationTicks": 60,
          "midi": 57,
          "name": "A3",
          "ticks": 241440,
          "time": 600.2018125,
          "velocity": 0.7874015748031497
        },
        {
          "duration": 0.3125,
          "durationTicks": 60,
          "midi": 55,
          "name": "G3",
          "ticks": 241500,
          "time": 600.5143125,
          "velocity": 0.7874015748031497
        },
        {
          "duration": 1.25,
          "durationTicks": 240,
          "midi": 57,
          "name": "A3",
          "ticks": 241560,
          "time": 600.8268125,
          "velocity": 0.7874015748031497
        },
        {
          "duration": 0.625,
          "durationTicks": 120,
          "midi": 55,
          "name": "G3",
          "ticks": 241800,
          "time": 602.0768125,
          "velocity": 0.7874015748031497
        },
        {
          "duration": 0.625,
          "durationTicks": 120,
          "midi": 54,
          "name": "F#3",
          "ticks": 241920,
          "time": 602.7018125,
          "velocity": 0.7874015748031497
        },
        {
          "duration": 0.625,
          "durationTicks": 120,
          "midi": 55,
          "name": "G3",
          "ticks": 242040,
          "time": 603.3268125,
          "velocity": 0.7874015748031497
        },
        {
          "duration": 0.625,
          "durationTicks": 120,
          "midi": 57,
          "name": "A3",
          "ticks": 242160,
          "time": 603.9518125,
          "velocity": 0.7874015748031497
        },
        {
          "duration": 0.625,
          "durationTicks": 120,
          "midi": 59,
          "name": "B3",
          "ticks": 242280,
          "time": 604.5768125,
          "velocity": 0.7874015748031497
        },
        {
          "duration": 0.625,
          "durationTicks": 120,
          "midi": 54,
          "name": "F#3",
          "ticks": 242400,
          "time": 605.2018125,
          "velocity": 0.7874015748031497
        },
        {
          "duration": 1.25,
          "durationTicks": 240,
          "midi": 55,
          "name": "G3",
          "ticks": 242520,
          "time": 605.8268125,
          "velocity": 0.7874015748031497
        },
        {
          "duration": 0.9375,
          "durationTicks": 120,
          "midi": 43,
          "name": "G2",
          "ticks": 267960,
          "time": 667.9473253666666,
          "velocity": 0.7874015748031497
        },
        {
          "duration": 0.9375,
          "durationTicks": 120,
          "midi": 55,
          "name": "G3",
          "ticks": 267960,
          "time": 667.9473253666666,
          "velocity": 0.7874015748031497
        },
        {
          "duration": 0.9375,
          "durationTicks": 120,
          "midi": 31,
          "name": "G1",
          "ticks": 268080,
          "time": 668.8848253666666,
          "velocity": 0.7874015748031497
        },
        {
          "duration": 0.9375,
          "durationTicks": 120,
          "midi": 43,
          "name": "G2",
          "ticks": 268080,
          "time": 668.8848253666666,
          "velocity": 0.7874015748031497
        },
        {
          "duration": 1.40625,
          "durationTicks": 180,
          "midi": 55,
          "name": "G3",
          "ticks": 268320,
          "time": 670.7598253666666,
          "velocity": 0.7874015748031497
        },
        {
          "duration": 0.234375,
          "durationTicks": 30,
          "midi": 54,
          "name": "F#3",
          "ticks": 268500,
          "time": 672.1660753666666,
          "velocity": 0.7874015748031497
        },
        {
          "duration": 0.234375,
          "durationTicks": 30,
          "midi": 52,
          "name": "E3",
          "ticks": 268530,
          "time": 672.4004503666666,
          "velocity": 0.7874015748031497
        },
        {
          "duration": 0.9375,
          "durationTicks": 120,
          "midi": 54,
          "name": "F#3",
          "ticks": 268560,
          "time": 672.6348253666666,
          "velocity": 0.7874015748031497
        },
        {
          "duration": 0.9375,
          "durationTicks": 120,
          "midi": 50,
          "name": "D3",
          "ticks": 268800,
          "time": 674.5098253666666,
          "velocity": 0.7874015748031497
        },
        {
          "duration": 0.9375,
          "durationTicks": 120,
          "midi": 51,
          "name": "D#3",
          "ticks": 268920,
          "time": 675.4473253666666,
          "velocity": 0.7874015748031497
        },
        {
          "duration": 0.9375,
          "durationTicks": 120,
          "midi": 52,
          "name": "E3",
          "ticks": 269040,
          "time": 676.3848253666666,
          "velocity": 0.7874015748031497
        },
        {
          "duration": 0.9375,
          "durationTicks": 120,
          "midi": 63,
          "name": "D#4",
          "ticks": 269280,
          "time": 678.2598253666666,
          "velocity": 0.7874015748031497
        },
        {
          "duration": 0.46875,
          "durationTicks": 60,
          "midi": 62,
          "name": "D4",
          "ticks": 269400,
          "time": 679.1973253666666,
          "velocity": 0.7874015748031497
        },
        {
          "duration": 0.46875,
          "durationTicks": 60,
          "midi": 61,
          "name": "C#4",
          "ticks": 269460,
          "time": 679.6660753666666,
          "velocity": 0.7874015748031497
        },
        {
          "duration": 0.9375,
          "durationTicks": 120,
          "midi": 62,
          "name": "D4",
          "ticks": 269520,
          "time": 680.1348253666666,
          "velocity": 0.7874015748031497
        },
        {
          "duration": 0.46875,
          "durationTicks": 60,
          "midi": 60,
          "name": "C4",
          "ticks": 269700,
          "time": 681.5410753666666,
          "velocity": 0.7874015748031497
        },
        {
          "duration": 0.46875,
          "durationTicks": 60,
          "midi": 58,
          "name": "A#3",
          "ticks": 269760,
          "time": 682.0098253666666,
          "velocity": 0.7874015748031497
        },
        {
          "duration": 0.46875,
          "durationTicks": 60,
          "midi": 57,
          "name": "A3",
          "ticks": 269820,
          "time": 682.4785753666666,
          "velocity": 0.7874015748031497
        },
        {
          "duration": 0.234375,
          "durationTicks": 30,
          "midi": 55,
          "name": "G3",
          "ticks": 269880,
          "time": 682.9473253666666,
          "velocity": 0.7874015748031497
        },
        {
          "duration": 0.234375,
          "durationTicks": 30,
          "midi": 54,
          "name": "F#3",
          "ticks": 269910,
          "time": 683.1817003666666,
          "velocity": 0.7874015748031497
        },
        {
          "duration": 0.46875,
          "durationTicks": 60,
          "midi": 55,
          "name": "G3",
          "ticks": 269940,
          "time": 683.4160753666666,
          "velocity": 0.7874015748031497
        },
        {
          "duration": 0.46875,
          "durationTicks": 60,
          "midi": 48,
          "name": "C3",
          "ticks": 270000,
          "time": 683.8848253666666,
          "velocity": 0.7874015748031497
        },
        {
          "duration": 0.46875,
          "durationTicks": 60,
          "midi": 55,
          "name": "G3",
          "ticks": 270060,
          "time": 684.3535753666666,
          "velocity": 0.7874015748031497
        },
        {
          "duration": 0.46875,
          "durationTicks": 60,
          "midi": 60,
          "name": "C4",
          "ticks": 270120,
          "time": 684.8223253666666,
          "velocity": 0.7874015748031497
        },
        {
          "duration": 0.46875,
          "durationTicks": 60,
          "midi": 54,
          "name": "F#3",
          "ticks": 270180,
          "time": 685.2910753666666,
          "velocity": 0.7874015748031497
        },
        {
          "duration": 0.46875,
          "durationTicks": 60,
          "midi": 54,
          "name": "F#3",
          "ticks": 270240,
          "time": 685.7598253666666,
          "velocity": 0.7874015748031497
        },
        {
          "duration": 0.46875,
          "durationTicks": 60,
          "midi": 55,
          "name": "G3",
          "ticks": 270300,
          "time": 686.2285753666666,
          "velocity": 0.7874015748031497
        },
        {
          "duration": 0.46875,
          "durationTicks": 60,
          "midi": 55,
          "name": "G3",
          "ticks": 270360,
          "time": 686.6973253666666,
          "velocity": 0.7874015748031497
        },
        {
          "duration": 0.46875,
          "durationTicks": 60,
          "midi": 54,
          "name": "F#3",
          "ticks": 270420,
          "time": 687.1660753666666,
          "velocity": 0.7874015748031497
        },
        {
          "duration": 0.46875,
          "durationTicks": 60,
          "midi": 55,
          "name": "G3",
          "ticks": 270480,
          "time": 687.6348253666666,
          "velocity": 0.7874015748031497
        },
        {
          "duration": 0.46875,
          "durationTicks": 60,
          "midi": 57,
          "name": "A3",
          "ticks": 270540,
          "time": 688.1035753666666,
          "velocity": 0.7874015748031497
        },
        {
          "duration": 0.9375,
          "durationTicks": 120,
          "midi": 50,
          "name": "D3",
          "ticks": 270600,
          "time": 688.5723253666666,
          "velocity": 0.7874015748031497
        },
        {
          "duration": 0.9375,
          "durationTicks": 120,
          "midi": 51,
          "name": "D#3",
          "ticks": 270720,
          "time": 689.5098253666666,
          "velocity": 0.7874015748031497
        },
        {
          "duration": 0.9375,
          "durationTicks": 120,
          "midi": 46,
          "name": "A#2",
          "ticks": 270840,
          "time": 690.4473253666666,
          "velocity": 0.7874015748031497
        },
        {
          "duration": 0.46875,
          "durationTicks": 60,
          "midi": 58,
          "name": "A#3",
          "ticks": 270960,
          "time": 691.3848253666666,
          "velocity": 0.7874015748031497
        },
        {
          "duration": 0.46875,
          "durationTicks": 60,
          "midi": 60,
          "name": "C4",
          "ticks": 271020,
          "time": 691.8535753666666,
          "velocity": 0.7874015748031497
        },
        {
          "duration": 0.9375,
          "durationTicks": 120,
          "midi": 62,
          "name": "D4",
          "ticks": 271080,
          "time": 692.3223253666666,
          "velocity": 0.7874015748031497
        },
        {
          "duration": 0.9375,
          "durationTicks": 120,
          "midi": 62,
          "name": "D4",
          "ticks": 271200,
          "time": 693.2598253666666,
          "velocity": 0.7874015748031497
        },
        {
          "duration": 0.9375,
          "durationTicks": 120,
          "midi": 55,
          "name": "G3",
          "ticks": 271320,
          "time": 694.1973253666666,
          "velocity": 0.7874015748031497
        },
        {
          "duration": 0.234375,
          "durationTicks": 30,
          "midi": 46,
          "name": "A#2",
          "ticks": 271440,
          "time": 695.1348253666666,
          "velocity": 0.7874015748031497
        },
        {
          "duration": 0.234375,
          "durationTicks": 30,
          "midi": 48,
          "name": "C3",
          "ticks": 271470,
          "time": 695.3692003666666,
          "velocity": 0.7874015748031497
        },
        {
          "duration": 0.234375,
          "durationTicks": 30,
          "midi": 50,
          "name": "D3",
          "ticks": 271500,
          "time": 695.6035753666666,
          "velocity": 0.7874015748031497
        },
        {
          "duration": 0.234375,
          "durationTicks": 30,
          "midi": 46,
          "name": "A#2",
          "ticks": 271530,
          "time": 695.8379503666666,
          "velocity": 0.7874015748031497
        },
        {
          "duration": 1.875,
          "durationTicks": 240,
          "midi": 43,
          "name": "G2",
          "ticks": 271560,
          "time": 696.0723253666666,
          "velocity": 0.7874015748031497
        },
        {
          "duration": 0.46875,
          "durationTicks": 60,
          "midi": 54,
          "name": "F#3",
          "ticks": 271860,
          "time": 698.4160753666666,
          "velocity": 0.7874015748031497
        },
        {
          "duration": 0.46875,
          "durationTicks": 60,
          "midi": 55,
          "name": "G3",
          "ticks": 271920,
          "time": 698.8848253666666,
          "velocity": 0.7874015748031497
        },
        {
          "duration": 0.46875,
          "durationTicks": 60,
          "midi": 57,
          "name": "A3",
          "ticks": 271980,
          "time": 699.3535753666666,
          "velocity": 0.7874015748031497
        },
        {
          "duration": 0.9375,
          "durationTicks": 120,
          "midi": 58,
          "name": "A#3",
          "ticks": 272040,
          "time": 699.8223253666666,
          "velocity": 0.7874015748031497
        },
        {
          "duration": 0.9375,
          "durationTicks": 120,
          "midi": 57,
          "name": "A3",
          "ticks": 272160,
          "time": 700.7598253666666,
          "velocity": 0.7874015748031497
        },
        {
          "duration": 0.46875,
          "durationTicks": 60,
          "midi": 55,
          "name": "G3",
          "ticks": 272280,
          "time": 701.6973253666666,
          "velocity": 0.7874015748031497
        },
        {
          "duration": 0.9375,
          "durationTicks": 120,
          "midi": 54,
          "name": "F#3",
          "ticks": 272340,
          "time": 702.1660753666666,
          "velocity": 0.7874015748031497
        },
        {
          "duration": 0.46875,
          "durationTicks": 60,
          "midi": 52,
          "name": "E3",
          "ticks": 272460,
          "time": 703.1035753666666,
          "velocity": 0.7874015748031497
        },
        {
          "duration": 0.234375,
          "durationTicks": 30,
          "midi": 54,
          "name": "F#3",
          "ticks": 272520,
          "time": 703.5723253666666,
          "velocity": 0.7874015748031497
        },
        {
          "duration": 0.234375,
          "durationTicks": 30,
          "midi": 57,
          "name": "A3",
          "ticks": 272550,
          "time": 703.8067003666666,
          "velocity": 0.7874015748031497
        },
        {
          "duration": 0.9375,
          "durationTicks": 120,
          "midi": 55,
          "name": "G3",
          "ticks": 272580,
          "time": 704.0410753666666,
          "velocity": 0.7874015748031497
        },
        {
          "duration": 0.46875,
          "durationTicks": 60,
          "midi": 54,
          "name": "F#3",
          "ticks": 272700,
          "time": 704.9785753666666,
          "velocity": 0.7874015748031497
        },
        {
          "duration": 0.46875,
          "durationTicks": 60,
          "midi": 55,
          "name": "G3",
          "ticks": 272760,
          "time": 705.4473253666666,
          "velocity": 0.7874015748031497
        },
        {
          "duration": 0.46875,
          "durationTicks": 60,
          "midi": 57,
          "name": "A3",
          "ticks": 272820,
          "time": 705.9160753666666,
          "velocity": 0.7874015748031497
        },
        {
          "duration": 0.46875,
          "durationTicks": 60,
          "midi": 58,
          "name": "A#3",
          "ticks": 272880,
          "time": 706.3848253666666,
          "velocity": 0.7874015748031497
        },
        {
          "duration": 0.46875,
          "durationTicks": 60,
          "midi": 57,
          "name": "A3",
          "ticks": 272940,
          "time": 706.8535753666666,
          "velocity": 0.7874015748031497
        },
        {
          "duration": 0.234375,
          "durationTicks": 30,
          "midi": 55,
          "name": "G3",
          "ticks": 273000,
          "time": 707.3223253666666,
          "velocity": 0.7874015748031497
        },
        {
          "duration": 0.234375,
          "durationTicks": 30,
          "midi": 57,
          "name": "A3",
          "ticks": 273030,
          "time": 707.5567003666666,
          "velocity": 0.7874015748031497
        },
        {
          "duration": 0.46875,
          "durationTicks": 60,
          "midi": 55,
          "name": "G3",
          "ticks": 273060,
          "time": 707.7910753666666,
          "velocity": 0.7874015748031497
        },
        {
          "duration": 0.234375,
          "durationTicks": 30,
          "midi": 53,
          "name": "F3",
          "ticks": 273120,
          "time": 708.2598253666666,
          "velocity": 0.7874015748031497
        },
        {
          "duration": 0.234375,
          "durationTicks": 30,
          "midi": 55,
          "name": "G3",
          "ticks": 273150,
          "time": 708.4942003666666,
          "velocity": 0.7874015748031497
        },
        {
          "duration": 0.46875,
          "durationTicks": 60,
          "midi": 53,
          "name": "F3",
          "ticks": 273180,
          "time": 708.7285753666666,
          "velocity": 0.7874015748031497
        },
        {
          "duration": 0.46875,
          "durationTicks": 60,
          "midi": 52,
          "name": "E3",
          "ticks": 273240,
          "time": 709.1973253666666,
          "velocity": 0.7874015748031497
        },
        {
          "duration": 0.46875,
          "durationTicks": 60,
          "midi": 53,
          "name": "F3",
          "ticks": 273300,
          "time": 709.6660753666666,
          "velocity": 0.7874015748031497
        },
        {
          "duration": 0.46875,
          "durationTicks": 60,
          "midi": 55,
          "name": "G3",
          "ticks": 273360,
          "time": 710.1348253666666,
          "velocity": 0.7874015748031497
        },
        {
          "duration": 0.46875,
          "durationTicks": 60,
          "midi": 52,
          "name": "E3",
          "ticks": 273420,
          "time": 710.6035753666666,
          "velocity": 0.7874015748031497
        },
        {
          "duration": 0.46875,
          "durationTicks": 60,
          "midi": 49,
          "name": "C#3",
          "ticks": 273480,
          "time": 711.0723253666666,
          "velocity": 0.7874015748031497
        },
        {
          "duration": 0.46875,
          "durationTicks": 60,
          "midi": 50,
          "name": "D3",
          "ticks": 273540,
          "time": 711.5410753666666,
          "velocity": 0.7874015748031497
        },
        {
          "duration": 0.46875,
          "durationTicks": 60,
          "midi": 52,
          "name": "E3",
          "ticks": 273600,
          "time": 712.0098253666666,
          "velocity": 0.7874015748031497
        },
        {
          "duration": 0.46875,
          "durationTicks": 60,
          "midi": 49,
          "name": "C#3",
          "ticks": 273660,
          "time": 712.4785753666666,
          "velocity": 0.7874015748031497
        },
        {
          "duration": 0.234375,
          "durationTicks": 30,
          "midi": 53,
          "name": "F3",
          "ticks": 273720,
          "time": 712.9473253666666,
          "velocity": 0.7874015748031497
        },
        {
          "duration": 0.234375,
          "durationTicks": 30,
          "midi": 52,
          "name": "E3",
          "ticks": 273750,
          "time": 713.1817003666666,
          "velocity": 0.7874015748031497
        },
        {
          "duration": 0.46875,
          "durationTicks": 60,
          "midi": 50,
          "name": "D3",
          "ticks": 273780,
          "time": 713.4160753666666,
          "velocity": 0.7874015748031497
        },
        {
          "duration": 1.875,
          "durationTicks": 240,
          "midi": 55,
          "name": "G3",
          "ticks": 273840,
          "time": 713.8848253666666,
          "velocity": 0.7874015748031497
        },
        {
          "duration": 0.9375,
          "durationTicks": 120,
          "midi": 54,
          "name": "F#3",
          "ticks": 274080,
          "time": 715.7598253666666,
          "velocity": 0.7874015748031497
        },
        {
          "duration": 0.9375,
          "durationTicks": 120,
          "midi": 58,
          "name": "A#3",
          "ticks": 274200,
          "time": 716.6973253666666,
          "velocity": 0.7874015748031497
        },
        {
          "duration": 0.9375,
          "durationTicks": 120,
          "midi": 52,
          "name": "E3",
          "ticks": 274320,
          "time": 717.6348253666666,
          "velocity": 0.7874015748031497
        },
        {
          "duration": 0.9375,
          "durationTicks": 120,
          "midi": 57,
          "name": "A3",
          "ticks": 274440,
          "time": 718.5723253666666,
          "velocity": 0.7874015748031497
        },
        {
          "duration": 0.9375,
          "durationTicks": 120,
          "midi": 49,
          "name": "C#3",
          "ticks": 274560,
          "time": 719.5098253666666,
          "velocity": 0.7874015748031497
        },
        {
          "duration": 0.9375,
          "durationTicks": 120,
          "midi": 50,
          "name": "D3",
          "ticks": 274680,
          "time": 720.4473253666666,
          "velocity": 0.7874015748031497
        },
        {
          "duration": 0.46875,
          "durationTicks": 60,
          "midi": 53,
          "name": "F3",
          "ticks": 274800,
          "time": 721.3848253666666,
          "velocity": 0.7874015748031497
        },
        {
          "duration": 0.46875,
          "durationTicks": 60,
          "midi": 52,
          "name": "E3",
          "ticks": 274860,
          "time": 721.8535753666666,
          "velocity": 0.7874015748031497
        },
        {
          "duration": 0.9375,
          "durationTicks": 120,
          "midi": 53,
          "name": "F3",
          "ticks": 274920,
          "time": 722.3223253666666,
          "velocity": 0.7874015748031497
        },
        {
          "duration": 0.9375,
          "durationTicks": 120,
          "midi": 57,
          "name": "A3",
          "ticks": 275040,
          "time": 723.2598253666666,
          "velocity": 0.7874015748031497
        },
        {
          "duration": 0.46875,
          "durationTicks": 60,
          "midi": 62,
          "name": "D4",
          "ticks": 275160,
          "time": 724.1973253666666,
          "velocity": 0.7874015748031497
        },
        {
          "duration": 0.234375,
          "durationTicks": 30,
          "midi": 60,
          "name": "C4",
          "ticks": 275220,
          "time": 724.6660753666666,
          "velocity": 0.7874015748031497
        },
        {
          "duration": 0.234375,
          "durationTicks": 30,
          "midi": 58,
          "name": "A#3",
          "ticks": 275250,
          "time": 724.9004503666666,
          "velocity": 0.7874015748031497
        },
        {
          "duration": 0.234375,
          "durationTicks": 30,
          "midi": 57,
          "name": "A3",
          "ticks": 275280,
          "time": 725.1348253666666,
          "velocity": 0.7874015748031497
        },
        {
          "duration": 0.234375,
          "durationTicks": 30,
          "midi": 55,
          "name": "G3",
          "ticks": 275310,
          "time": 725.3692003666666,
          "velocity": 0.7874015748031497
        },
        {
          "duration": 0.46875,
          "durationTicks": 60,
          "midi": 57,
          "name": "A3",
          "ticks": 275340,
          "time": 725.6035753666666,
          "velocity": 0.7874015748031497
        },
        {
          "duration": 1.875,
          "durationTicks": 240,
          "midi": 50,
          "name": "D3",
          "ticks": 275400,
          "time": 726.0723253666666,
          "velocity": 0.7874015748031497
        },
        {
          "duration": 0.46875,
          "durationTicks": 60,
          "midi": 50,
          "name": "D3",
          "ticks": 275640,
          "time": 727.9473253666666,
          "velocity": 0.7874015748031497
        },
        {
          "duration": 0.46875,
          "durationTicks": 60,
          "midi": 63,
          "name": "D#4",
          "ticks": 275700,
          "time": 728.4160753666666,
          "velocity": 0.7874015748031497
        },
        {
          "duration": 0.46875,
          "durationTicks": 60,
          "midi": 63,
          "name": "D#4",
          "ticks": 275760,
          "time": 728.8848253666666,
          "velocity": 0.7874015748031497
        },
        {
          "duration": 0.46875,
          "durationTicks": 60,
          "midi": 62,
          "name": "D4",
          "ticks": 275820,
          "time": 729.3535753666666,
          "velocity": 0.7874015748031497
        },
        {
          "duration": 0.46875,
          "durationTicks": 60,
          "midi": 62,
          "name": "D4",
          "ticks": 275880,
          "time": 729.8223253666666,
          "velocity": 0.7874015748031497
        },
        {
          "duration": 0.46875,
          "durationTicks": 60,
          "midi": 60,
          "name": "C4",
          "ticks": 275940,
          "time": 730.2910753666666,
          "velocity": 0.7874015748031497
        },
        {
          "duration": 0.46875,
          "durationTicks": 60,
          "midi": 60,
          "name": "C4",
          "ticks": 276000,
          "time": 730.7598253666666,
          "velocity": 0.7874015748031497
        },
        {
          "duration": 0.46875,
          "durationTicks": 60,
          "midi": 58,
          "name": "A#3",
          "ticks": 276060,
          "time": 731.2285753666666,
          "velocity": 0.7874015748031497
        },
        {
          "duration": 0.46875,
          "durationTicks": 60,
          "midi": 58,
          "name": "A#3",
          "ticks": 276120,
          "time": 731.6973253666666,
          "velocity": 0.7874015748031497
        },
        {
          "duration": 0.46875,
          "durationTicks": 60,
          "midi": 54,
          "name": "F#3",
          "ticks": 276180,
          "time": 732.1660753666666,
          "velocity": 0.7874015748031497
        },
        {
          "duration": 0.46875,
          "durationTicks": 60,
          "midi": 54,
          "name": "F#3",
          "ticks": 276240,
          "time": 732.6348253666666,
          "velocity": 0.7874015748031497
        },
        {
          "duration": 0.46875,
          "durationTicks": 60,
          "midi": 55,
          "name": "G3",
          "ticks": 276300,
          "time": 733.1035753666666,
          "velocity": 0.7874015748031497
        },
        {
          "duration": 0.46875,
          "durationTicks": 60,
          "midi": 55,
          "name": "G3",
          "ticks": 276360,
          "time": 733.5723253666666,
          "velocity": 0.7874015748031497
        },
        {
          "duration": 0.46875,
          "durationTicks": 60,
          "midi": 50,
          "name": "D3",
          "ticks": 276420,
          "time": 734.0410753666666,
          "velocity": 0.7874015748031497
        },
        {
          "duration": 1.40625,
          "durationTicks": 180,
          "midi": 50,
          "name": "D3",
          "ticks": 276480,
          "time": 734.5098253666666,
          "velocity": 0.7874015748031497
        },
        {
          "duration": 0.234375,
          "durationTicks": 30,
          "midi": 48,
          "name": "C3",
          "ticks": 276660,
          "time": 735.9160753666666,
          "velocity": 0.7874015748031497
        },
        {
          "duration": 0.234375,
          "durationTicks": 30,
          "midi": 46,
          "name": "A#2",
          "ticks": 276690,
          "time": 736.1504503666666,
          "velocity": 0.7874015748031497
        },
        {
          "duration": 0.46875,
          "durationTicks": 60,
          "midi": 48,
          "name": "C3",
          "ticks": 276720,
          "time": 736.3848253666666,
          "velocity": 0.7874015748031497
        },
        {
          "duration": 0.46875,
          "durationTicks": 60,
          "midi": 41,
          "name": "F2",
          "ticks": 276780,
          "time": 736.8535753666666,
          "velocity": 0.7874015748031497
        },
        {
          "duration": 0.46875,
          "durationTicks": 60,
          "midi": 53,
          "name": "F3",
          "ticks": 276840,
          "time": 737.3223253666666,
          "velocity": 0.7874015748031497
        },
        {
          "duration": 0.46875,
          "durationTicks": 60,
          "midi": 46,
          "name": "A#2",
          "ticks": 276900,
          "time": 737.7910753666666,
          "velocity": 0.7874015748031497
        },
        {
          "duration": 1.40625,
          "durationTicks": 180,
          "midi": 51,
          "name": "D#3",
          "ticks": 276960,
          "time": 738.2598253666666,
          "velocity": 0.7874015748031497
        },
        {
          "duration": 0.234375,
          "durationTicks": 30,
          "midi": 50,
          "name": "D3",
          "ticks": 277140,
          "time": 739.6660753666666,
          "velocity": 0.7874015748031497
        },
        {
          "duration": 0.234375,
          "durationTicks": 30,
          "midi": 48,
          "name": "C3",
          "ticks": 277170,
          "time": 739.9004503666666,
          "velocity": 0.7874015748031497
        },
        {
          "duration": 0.234375,
          "durationTicks": 30,
          "midi": 50,
          "name": "D3",
          "ticks": 277200,
          "time": 740.1348253666666,
          "velocity": 0.7874015748031497
        },
        {
          "duration": 0.234375,
          "durationTicks": 30,
          "midi": 48,
          "name": "C3",
          "ticks": 277230,
          "time": 740.3692003666666,
          "velocity": 0.7874015748031497
        },
        {
          "duration": 0.46875,
          "durationTicks": 60,
          "midi": 46,
          "name": "A#2",
          "ticks": 277260,
          "time": 740.6035753666666,
          "velocity": 0.7874015748031497
        },
        {
          "duration": 0.46875,
          "durationTicks": 60,
          "midi": 51,
          "name": "D#3",
          "ticks": 277320,
          "time": 741.0723253666666,
          "velocity": 0.7874015748031497
        },
        {
          "duration": 0.46875,
          "durationTicks": 60,
          "midi": 43,
          "name": "G2",
          "ticks": 277380,
          "time": 741.5410753666666,
          "velocity": 0.7874015748031497
        },
        {
          "duration": 0.46875,
          "durationTicks": 60,
          "midi": 44,
          "name": "G#2",
          "ticks": 277440,
          "time": 742.0098253666666,
          "velocity": 0.7874015748031497
        },
        {
          "duration": 0.46875,
          "durationTicks": 60,
          "midi": 46,
          "name": "A#2",
          "ticks": 277500,
          "time": 742.4785753666666,
          "velocity": 0.7874015748031497
        },
        {
          "duration": 0.46875,
          "durationTicks": 60,
          "midi": 36,
          "name": "C2",
          "ticks": 277560,
          "time": 742.9473253666666,
          "velocity": 0.7874015748031497
        },
        {
          "duration": 0.46875,
          "durationTicks": 60,
          "midi": 43,
          "name": "G2",
          "ticks": 277620,
          "time": 743.4160753666666,
          "velocity": 0.7874015748031497
        },
        {
          "duration": 0.46875,
          "durationTicks": 60,
          "midi": 48,
          "name": "C3",
          "ticks": 277680,
          "time": 743.8848253666666,
          "velocity": 0.7874015748031497
        },
        {
          "duration": 0.46875,
          "durationTicks": 60,
          "midi": 46,
          "name": "A#2",
          "ticks": 277740,
          "time": 744.3535753666666,
          "velocity": 0.7874015748031497
        },
        {
          "duration": 0.46875,
          "durationTicks": 60,
          "midi": 44,
          "name": "G#2",
          "ticks": 277800,
          "time": 744.8223253666666,
          "velocity": 0.7874015748031497
        },
        {
          "duration": 0.46875,
          "durationTicks": 60,
          "midi": 43,
          "name": "G2",
          "ticks": 277860,
          "time": 745.2910753666666,
          "velocity": 0.7874015748031497
        },
        {
          "duration": 1.40625,
          "durationTicks": 180,
          "midi": 44,
          "name": "G#2",
          "ticks": 277920,
          "time": 745.7598253666666,
          "velocity": 0.7874015748031497
        },
        {
          "duration": 0.46875,
          "durationTicks": 60,
          "midi": 56,
          "name": "G#3",
          "ticks": 278100,
          "time": 747.1660753666666,
          "velocity": 0.7874015748031497
        },
        {
          "duration": 0.46875,
          "durationTicks": 60,
          "midi": 58,
          "name": "A#3",
          "ticks": 278160,
          "time": 747.6348253666666,
          "velocity": 0.7874015748031497
        },
        {
          "duration": 0.46875,
          "durationTicks": 60,
          "midi": 56,
          "name": "G#3",
          "ticks": 278220,
          "time": 748.1035753666666,
          "velocity": 0.7874015748031497
        },
        {
          "duration": 0.46875,
          "durationTicks": 60,
          "midi": 55,
          "name": "G3",
          "ticks": 278280,
          "time": 748.5723253666666,
          "velocity": 0.7874015748031497
        },
        {
          "duration": 0.46875,
          "durationTicks": 60,
          "midi": 53,
          "name": "F3",
          "ticks": 278340,
          "time": 749.0410753666666,
          "velocity": 0.7874015748031497
        },
        {
          "duration": 0.46875,
          "durationTicks": 60,
          "midi": 51,
          "name": "D#3",
          "ticks": 278400,
          "time": 749.5098253666666,
          "velocity": 0.7874015748031497
        },
        {
          "duration": 0.46875,
          "durationTicks": 60,
          "midi": 53,
          "name": "F3",
          "ticks": 278460,
          "time": 749.9785753666666,
          "velocity": 0.7874015748031497
        },
        {
          "duration": 0.46875,
          "durationTicks": 60,
          "midi": 55,
          "name": "G3",
          "ticks": 278520,
          "time": 750.4473253666666,
          "velocity": 0.7874015748031497
        },
        {
          "duration": 0.46875,
          "durationTicks": 60,
          "midi": 56,
          "name": "G#3",
          "ticks": 278580,
          "time": 750.9160753666666,
          "velocity": 0.7874015748031497
        },
        {
          "duration": 0.9375,
          "durationTicks": 120,
          "midi": 58,
          "name": "A#3",
          "ticks": 278640,
          "time": 751.3848253666666,
          "velocity": 0.7874015748031497
        },
        {
          "duration": 1.40625,
          "durationTicks": 180,
          "midi": 46,
          "name": "A#2",
          "ticks": 278760,
          "time": 752.3223253666666,
          "velocity": 0.7874015748031497
        },
        {
          "duration": 0.46875,
          "durationTicks": 60,
          "midi": 56,
          "name": "G#3",
          "ticks": 278940,
          "time": 753.7285753666666,
          "velocity": 0.7874015748031497
        },
        {
          "duration": 0.46875,
          "durationTicks": 60,
          "midi": 55,
          "name": "G3",
          "ticks": 279000,
          "time": 754.1973253666666,
          "velocity": 0.7874015748031497
        },
        {
          "duration": 0.46875,
          "durationTicks": 60,
          "midi": 53,
          "name": "F3",
          "ticks": 279060,
          "time": 754.6660753666666,
          "velocity": 0.7874015748031497
        },
        {
          "duration": 0.46875,
          "durationTicks": 60,
          "midi": 53,
          "name": "F3",
          "ticks": 279120,
          "time": 755.1348253666666,
          "velocity": 0.7874015748031497
        },
        {
          "duration": 0.46875,
          "durationTicks": 60,
          "midi": 51,
          "name": "D#3",
          "ticks": 279180,
          "time": 755.6035753666666,
          "velocity": 0.7874015748031497
        },
        {
          "duration": 0.46875,
          "durationTicks": 60,
          "midi": 53,
          "name": "F3",
          "ticks": 279240,
          "time": 756.0723253666666,
          "velocity": 0.7874015748031497
        },
        {
          "duration": 0.46875,
          "durationTicks": 60,
          "midi": 55,
          "name": "G3",
          "ticks": 279300,
          "time": 756.5410753666666,
          "velocity": 0.7874015748031497
        },
        {
          "duration": 0.46875,
          "durationTicks": 60,
          "midi": 55,
          "name": "G3",
          "ticks": 279360,
          "time": 757.0098253666666,
          "velocity": 0.7874015748031497
        },
        {
          "duration": 0.46875,
          "durationTicks": 60,
          "midi": 56,
          "name": "G#3",
          "ticks": 279420,
          "time": 757.4785753666666,
          "velocity": 0.7874015748031497
        },
        {
          "duration": 0.9375,
          "durationTicks": 120,
          "midi": 48,
          "name": "C3",
          "ticks": 279480,
          "time": 757.9473253666666,
          "velocity": 0.7874015748031497
        },
        {
          "duration": 0.9375,
          "durationTicks": 120,
          "midi": 47,
          "name": "B2",
          "ticks": 279600,
          "time": 758.8848253666666,
          "velocity": 0.7874015748031497
        },
        {
          "duration": 0.46875,
          "durationTicks": 60,
          "midi": 45,
          "name": "A2",
          "ticks": 279780,
          "time": 760.2910753666666,
          "velocity": 0.7874015748031497
        },
        {
          "duration": 0.46875,
          "durationTicks": 60,
          "midi": 47,
          "name": "B2",
          "ticks": 279840,
          "time": 760.7598253666666,
          "velocity": 0.7874015748031497
        },
        {
          "duration": 0.46875,
          "durationTicks": 60,
          "midi": 43,
          "name": "G2",
          "ticks": 279900,
          "time": 761.2285753666666,
          "velocity": 0.7874015748031497
        },
        {
          "duration": 0.9375,
          "durationTicks": 120,
          "midi": 48,
          "name": "C3",
          "ticks": 279960,
          "time": 761.6973253666666,
          "velocity": 0.7874015748031497
        },
        {
          "duration": 0.9375,
          "durationTicks": 120,
          "midi": 60,
          "name": "C4",
          "ticks": 280080,
          "time": 762.6348253666666,
          "velocity": 0.7874015748031497
        },
        {
          "duration": 1.40625,
          "durationTicks": 180,
          "midi": 48,
          "name": "C3",
          "ticks": 280320,
          "time": 764.5098253666666,
          "velocity": 0.7874015748031497
        },
        {
          "duration": 0.46875,
          "durationTicks": 60,
          "midi": 62,
          "name": "D4",
          "ticks": 280500,
          "time": 765.9160753666666,
          "velocity": 0.7874015748031497
        },
        {
          "duration": 0.46875,
          "durationTicks": 60,
          "midi": 63,
          "name": "D#4",
          "ticks": 280560,
          "time": 766.3848253666666,
          "velocity": 0.7874015748031497
        },
        {
          "duration": 0.46875,
          "durationTicks": 60,
          "midi": 58,
          "name": "A#3",
          "ticks": 280620,
          "time": 766.8535753666666,
          "velocity": 0.7874015748031497
        },
        {
          "duration": 0.46875,
          "durationTicks": 60,
          "midi": 57,
          "name": "A3",
          "ticks": 280680,
          "time": 767.3223253666666,
          "velocity": 0.7874015748031497
        },
        {
          "duration": 0.46875,
          "durationTicks": 60,
          "midi": 58,
          "name": "A#3",
          "ticks": 280740,
          "time": 767.7910753666666,
          "velocity": 0.7874015748031497
        },
        {
          "duration": 0.46875,
          "durationTicks": 60,
          "midi": 60,
          "name": "C4",
          "ticks": 280800,
          "time": 768.2598253666666,
          "velocity": 0.7874015748031497
        },
        {
          "duration": 0.46875,
          "durationTicks": 60,
          "midi": 55,
          "name": "G3",
          "ticks": 280860,
          "time": 768.7285753666666,
          "velocity": 0.7874015748031497
        },
        {
          "duration": 0.9375,
          "durationTicks": 120,
          "midi": 55,
          "name": "G3",
          "ticks": 280920,
          "time": 769.1973253666666,
          "velocity": 0.7874015748031497
        },
        {
          "duration": 0.46875,
          "durationTicks": 60,
          "midi": 54,
          "name": "F#3",
          "ticks": 281040,
          "time": 770.1348253666666,
          "velocity": 0.7874015748031497
        },
        {
          "duration": 0.46875,
          "durationTicks": 60,
          "midi": 55,
          "name": "G3",
          "ticks": 281100,
          "time": 770.6035753666666,
          "velocity": 0.7874015748031497
        },
        {
          "duration": 0.46875,
          "durationTicks": 60,
          "midi": 57,
          "name": "A3",
          "ticks": 281160,
          "time": 771.0723253666666,
          "velocity": 0.7874015748031497
        },
        {
          "duration": 0.234375,
          "durationTicks": 30,
          "midi": 58,
          "name": "A#3",
          "ticks": 281220,
          "time": 771.5410753666666,
          "velocity": 0.7874015748031497
        },
        {
          "duration": 0.234375,
          "durationTicks": 30,
          "midi": 60,
          "name": "C4",
          "ticks": 281250,
          "time": 771.7754503666666,
          "velocity": 0.7874015748031497
        },
        {
          "duration": 0.234375,
          "durationTicks": 30,
          "midi": 62,
          "name": "D4",
          "ticks": 281280,
          "time": 772.0098253666666,
          "velocity": 0.7874015748031497
        },
        {
          "duration": 0.234375,
          "durationTicks": 30,
          "midi": 63,
          "name": "D#4",
          "ticks": 281310,
          "time": 772.2442003666666,
          "velocity": 0.7874015748031497
        },
        {
          "duration": 0.46875,
          "durationTicks": 60,
          "midi": 60,
          "name": "C4",
          "ticks": 281340,
          "time": 772.4785753666666,
          "velocity": 0.7874015748031497
        },
        {
          "duration": 0.234375,
          "durationTicks": 30,
          "midi": 58,
          "name": "A#3",
          "ticks": 281400,
          "time": 772.9473253666666,
          "velocity": 0.7874015748031497
        },
        {
          "duration": 0.234375,
          "durationTicks": 30,
          "midi": 62,
          "name": "D4",
          "ticks": 281430,
          "time": 773.1817003666666,
          "velocity": 0.7874015748031497
        },
        {
          "duration": 0.46875,
          "durationTicks": 60,
          "midi": 60,
          "name": "C4",
          "ticks": 281460,
          "time": 773.4160753666666,
          "velocity": 0.7874015748031497
        },
        {
          "duration": 0.234375,
          "durationTicks": 30,
          "midi": 58,
          "name": "A#3",
          "ticks": 281520,
          "time": 773.8848253666666,
          "velocity": 0.7874015748031497
        },
        {
          "duration": 0.234375,
          "durationTicks": 30,
          "midi": 60,
          "name": "C4",
          "ticks": 281550,
          "time": 774.1192003666666,
          "velocity": 0.7874015748031497
        },
        {
          "duration": 0.46875,
          "durationTicks": 60,
          "midi": 57,
          "name": "A3",
          "ticks": 281580,
          "time": 774.3535753666666,
          "velocity": 0.7874015748031497
        },
        {
          "duration": 0.234375,
          "durationTicks": 30,
          "midi": 55,
          "name": "G3",
          "ticks": 281640,
          "time": 774.8223253666666,
          "velocity": 0.7874015748031497
        },
        {
          "duration": 0.234375,
          "durationTicks": 30,
          "midi": 57,
          "name": "A3",
          "ticks": 281670,
          "time": 775.0567003666666,
          "velocity": 0.7874015748031497
        },
        {
          "duration": 0.46875,
          "durationTicks": 60,
          "midi": 53,
          "name": "F3",
          "ticks": 281700,
          "time": 775.2910753666666,
          "velocity": 0.7874015748031497
        },
        {
          "duration": 0.234375,
          "durationTicks": 30,
          "midi": 51,
          "name": "D#3",
          "ticks": 281760,
          "time": 775.7598253666666,
          "velocity": 0.7874015748031497
        },
        {
          "duration": 0.234375,
          "durationTicks": 30,
          "midi": 53,
          "name": "F3",
          "ticks": 281790,
          "time": 775.9942003666666,
          "velocity": 0.7874015748031497
        },
        {
          "duration": 0.46875,
          "durationTicks": 60,
          "midi": 50,
          "name": "D3",
          "ticks": 281820,
          "time": 776.2285753666666,
          "velocity": 0.7874015748031497
        },
        {
          "duration": 0.46875,
          "durationTicks": 60,
          "midi": 48,
          "name": "C3",
          "ticks": 281880,
          "time": 776.6973253666666,
          "velocity": 0.7874015748031497
        },
        {
          "duration": 0.234375,
          "durationTicks": 30,
          "midi": 51,
          "name": "D#3",
          "ticks": 281940,
          "time": 777.1660753666666,
          "velocity": 0.7874015748031497
        },
        {
          "duration": 0.234375,
          "durationTicks": 30,
          "midi": 50,
          "name": "D3",
          "ticks": 281970,
          "time": 777.4004503666666,
          "velocity": 0.7874015748031497
        },
        {
          "duration": 0.46875,
          "durationTicks": 60,
          "midi": 51,
          "name": "D#3",
          "ticks": 282000,
          "time": 777.6348253666666,
          "velocity": 0.7874015748031497
        },
        {
          "duration": 0.46875,
          "durationTicks": 60,
          "midi": 42,
          "name": "F#2",
          "ticks": 282060,
          "time": 778.1035753666666,
          "velocity": 0.7874015748031497
        },
        {
          "duration": 1.40625,
          "durationTicks": 180,
          "midi": 43,
          "name": "G2",
          "ticks": 282120,
          "time": 778.5723253666666,
          "velocity": 0.7874015748031497
        },
        {
          "duration": 0.46875,
          "durationTicks": 60,
          "midi": 48,
          "name": "C3",
          "ticks": 282300,
          "time": 779.9785753666666,
          "velocity": 0.7874015748031497
        },
        {
          "duration": 1.40625,
          "durationTicks": 180,
          "midi": 50,
          "name": "D3",
          "ticks": 282360,
          "time": 780.4473253666666,
          "velocity": 0.7874015748031497
        },
        {
          "duration": 0.46875,
          "durationTicks": 60,
          "midi": 51,
          "name": "D#3",
          "ticks": 282540,
          "time": 781.8535753666666,
          "velocity": 0.7874015748031497
        },
        {
          "duration": 0.9375,
          "durationTicks": 120,
          "midi": 48,
          "name": "C3",
          "ticks": 282600,
          "time": 782.3223253666666,
          "velocity": 0.7874015748031497
        },
        {
          "duration": 0.9375,
          "durationTicks": 120,
          "midi": 50,
          "name": "D3",
          "ticks": 282720,
          "time": 783.2598253666666,
          "velocity": 0.7874015748031497
        },
        {
          "duration": 0.46875,
          "durationTicks": 60,
          "midi": 55,
          "name": "G3",
          "ticks": 282840,
          "time": 784.1973253666666,
          "velocity": 0.7874015748031497
        },
        {
          "duration": 0.234375,
          "durationTicks": 30,
          "midi": 50,
          "name": "D3",
          "ticks": 282900,
          "time": 784.6660753666666,
          "velocity": 0.7874015748031497
        },
        {
          "duration": 0.234375,
          "durationTicks": 30,
          "midi": 48,
          "name": "C3",
          "ticks": 282930,
          "time": 784.9004503666666,
          "velocity": 0.7874015748031497
        },
        {
          "duration": 0.234375,
          "durationTicks": 30,
          "midi": 46,
          "name": "A#2",
          "ticks": 282960,
          "time": 785.1348253666666,
          "velocity": 0.7874015748031497
        },
        {
          "duration": 0.234375,
          "durationTicks": 30,
          "midi": 48,
          "name": "C3",
          "ticks": 282990,
          "time": 785.3692003666666,
          "velocity": 0.7874015748031497
        },
        {
          "duration": 0.46875,
          "durationTicks": 60,
          "midi": 45,
          "name": "A2",
          "ticks": 283020,
          "time": 785.6035753666666,
          "velocity": 0.7874015748031497
        },
        {
          "duration": 1.875,
          "durationTicks": 240,
          "midi": 43,
          "name": "G2",
          "ticks": 283080,
          "time": 786.0723253666666,
          "velocity": 0.7874015748031497
        },
        {
          "duration": 0.34090900000001056,
          "durationTicks": 120,
          "midi": 55,
          "name": "G3",
          "ticks": 284040,
          "time": 791.7825523666666,
          "velocity": 0.7874015748031497
        },
        {
          "duration": 0.34090900000001056,
          "durationTicks": 120,
          "midi": 43,
          "name": "G2",
          "ticks": 284160,
          "time": 792.1234613666666,
          "velocity": 0.7874015748031497
        },
        {
          "duration": 0.3409089999998969,
          "durationTicks": 120,
          "midi": 55,
          "name": "G3",
          "ticks": 284280,
          "time": 792.4643703666666,
          "velocity": 0.7874015748031497
        },
        {
          "duration": 0.34090900000001056,
          "durationTicks": 120,
          "midi": 54,
          "name": "F#3",
          "ticks": 284400,
          "time": 792.8052793666665,
          "velocity": 0.7874015748031497
        },
        {
          "duration": 0.34090900000001056,
          "durationTicks": 120,
          "midi": 42,
          "name": "F#2",
          "ticks": 284520,
          "time": 793.1461883666665,
          "velocity": 0.7874015748031497
        },
        {
          "duration": 0.34090900000001056,
          "durationTicks": 120,
          "midi": 54,
          "name": "F#3",
          "ticks": 284640,
          "time": 793.4870973666665,
          "velocity": 0.7874015748031497
        },
        {
          "duration": 0.34090900000001056,
          "durationTicks": 120,
          "midi": 52,
          "name": "E3",
          "ticks": 284760,
          "time": 793.8280063666665,
          "velocity": 0.7874015748031497
        },
        {
          "duration": 0.34090900000001056,
          "durationTicks": 120,
          "midi": 40,
          "name": "E2",
          "ticks": 284880,
          "time": 794.1689153666665,
          "velocity": 0.7874015748031497
        },
        {
          "duration": 0.34090900000001056,
          "durationTicks": 120,
          "midi": 52,
          "name": "E3",
          "ticks": 285000,
          "time": 794.5098243666665,
          "velocity": 0.7874015748031497
        },
        {
          "duration": 0.34090900000001056,
          "durationTicks": 120,
          "midi": 50,
          "name": "D3",
          "ticks": 285120,
          "time": 794.8507333666665,
          "velocity": 0.7874015748031497
        },
        {
          "duration": 0.34090900000001056,
          "durationTicks": 120,
          "midi": 38,
          "name": "D2",
          "ticks": 285240,
          "time": 795.1916423666665,
          "velocity": 0.7874015748031497
        },
        {
          "duration": 0.34090900000001056,
          "durationTicks": 120,
          "midi": 48,
          "name": "C3",
          "ticks": 285360,
          "time": 795.5325513666666,
          "velocity": 0.7874015748031497
        },
        {
          "duration": 0.34090900000001056,
          "durationTicks": 120,
          "midi": 47,
          "name": "B2",
          "ticks": 285480,
          "time": 795.8734603666666,
          "velocity": 0.7874015748031497
        },
        {
          "duration": 0.3409089999998969,
          "durationTicks": 120,
          "midi": 59,
          "name": "B3",
          "ticks": 285600,
          "time": 796.2143693666666,
          "velocity": 0.7874015748031497
        },
        {
          "duration": 0.34090900000001056,
          "durationTicks": 120,
          "midi": 55,
          "name": "G3",
          "ticks": 285720,
          "time": 796.5552783666665,
          "velocity": 0.7874015748031497
        },
        {
          "duration": 0.34090900000001056,
          "durationTicks": 120,
          "midi": 60,
          "name": "C4",
          "ticks": 285840,
          "time": 796.8961873666665,
          "velocity": 0.7874015748031497
        },
        {
          "duration": 0.34090900000001056,
          "durationTicks": 120,
          "midi": 48,
          "name": "C3",
          "ticks": 285960,
          "time": 797.2370963666665,
          "velocity": 0.7874015748031497
        },
        {
          "duration": 0.34090900000001056,
          "durationTicks": 120,
          "midi": 60,
          "name": "C4",
          "ticks": 286080,
          "time": 797.5780053666665,
          "velocity": 0.7874015748031497
        },
        {
          "duration": 0.17045450000000528,
          "durationTicks": 60,
          "midi": 59,
          "name": "B3",
          "ticks": 286200,
          "time": 797.9189143666665,
          "velocity": 0.7874015748031497
        },
        {
          "duration": 0.17045450000000528,
          "durationTicks": 60,
          "midi": 57,
          "name": "A3",
          "ticks": 286260,
          "time": 798.0893688666665,
          "velocity": 0.7874015748031497
        },
        {
          "duration": 0.17045450000000528,
          "durationTicks": 60,
          "midi": 55,
          "name": "G3",
          "ticks": 286320,
          "time": 798.2598233666665,
          "velocity": 0.7874015748031497
        },
        {
          "duration": 0.17045450000000528,
          "durationTicks": 60,
          "midi": 57,
          "name": "A3",
          "ticks": 286380,
          "time": 798.4302778666665,
          "velocity": 0.7874015748031497
        },
        {
          "duration": 0.34090900000001056,
          "durationTicks": 120,
          "midi": 59,
          "name": "B3",
          "ticks": 286440,
          "time": 798.6007323666665,
          "velocity": 0.7874015748031497
        },
        {
          "duration": 0.34090900000001056,
          "durationTicks": 120,
          "midi": 55,
          "name": "G3",
          "ticks": 286560,
          "time": 798.9416413666665,
          "velocity": 0.7874015748031497
        },
        {
          "duration": 0.17045450000000528,
          "durationTicks": 60,
          "midi": 43,
          "name": "G2",
          "ticks": 286680,
          "time": 799.2825503666666,
          "velocity": 0.7874015748031497
        },
        {
          "duration": 0.17045450000000528,
          "durationTicks": 60,
          "midi": 50,
          "name": "D3",
          "ticks": 286740,
          "time": 799.4530048666666,
          "velocity": 0.7874015748031497
        },
        {
          "duration": 0.17045450000000528,
          "durationTicks": 60,
          "midi": 55,
          "name": "G3",
          "ticks": 286800,
          "time": 799.6234593666666,
          "velocity": 0.7874015748031497
        },
        {
          "duration": 0.1704544999998916,
          "durationTicks": 60,
          "midi": 57,
          "name": "A3",
          "ticks": 286860,
          "time": 799.7939138666666,
          "velocity": 0.7874015748031497
        },
        {
          "duration": 0.17045450000000528,
          "durationTicks": 60,
          "midi": 59,
          "name": "B3",
          "ticks": 286920,
          "time": 799.9643683666665,
          "velocity": 0.7874015748031497
        },
        {
          "duration": 0.17045450000000528,
          "durationTicks": 60,
          "midi": 57,
          "name": "A3",
          "ticks": 286980,
          "time": 800.1348228666665,
          "velocity": 0.7874015748031497
        },
        {
          "duration": 0.17045450000000528,
          "durationTicks": 60,
          "midi": 59,
          "name": "B3",
          "ticks": 287040,
          "time": 800.3052773666665,
          "velocity": 0.7874015748031497
        },
        {
          "duration": 0.17045450000000528,
          "durationTicks": 60,
          "midi": 55,
          "name": "G3",
          "ticks": 287100,
          "time": 800.4757318666665,
          "velocity": 0.7874015748031497
        },
        {
          "duration": 0.17045450000000528,
          "durationTicks": 60,
          "midi": 52,
          "name": "E3",
          "ticks": 287160,
          "time": 800.6461863666665,
          "velocity": 0.7874015748031497
        },
        {
          "duration": 0.17045450000000528,
          "durationTicks": 60,
          "midi": 55,
          "name": "G3",
          "ticks": 287220,
          "time": 800.8166408666665,
          "velocity": 0.7874015748031497
        },
        {
          "duration": 0.17045450000000528,
          "durationTicks": 60,
          "midi": 57,
          "name": "A3",
          "ticks": 287280,
          "time": 800.9870953666665,
          "velocity": 0.7874015748031497
        },
        {
          "duration": 0.17045450000000528,
          "durationTicks": 60,
          "midi": 55,
          "name": "G3",
          "ticks": 287340,
          "time": 801.1575498666665,
          "velocity": 0.7874015748031497
        },
        {
          "duration": 0.17045450000000528,
          "durationTicks": 60,
          "midi": 57,
          "name": "A3",
          "ticks": 287400,
          "time": 801.3280043666665,
          "velocity": 0.7874015748031497
        },
        {
          "duration": 0.17045450000000528,
          "durationTicks": 60,
          "midi": 54,
          "name": "F#3",
          "ticks": 287460,
          "time": 801.4984588666665,
          "velocity": 0.7874015748031497
        },
        {
          "duration": 0.17045450000000528,
          "durationTicks": 60,
          "midi": 50,
          "name": "D3",
          "ticks": 287520,
          "time": 801.6689133666665,
          "velocity": 0.7874015748031497
        },
        {
          "duration": 0.17045450000000528,
          "durationTicks": 60,
          "midi": 54,
          "name": "F#3",
          "ticks": 287580,
          "time": 801.8393678666665,
          "velocity": 0.7874015748031497
        },
        {
          "duration": 0.17045450000000528,
          "durationTicks": 60,
          "midi": 55,
          "name": "G3",
          "ticks": 287640,
          "time": 802.0098223666665,
          "velocity": 0.7874015748031497
        },
        {
          "duration": 0.17045450000000528,
          "durationTicks": 60,
          "midi": 54,
          "name": "F#3",
          "ticks": 287700,
          "time": 802.1802768666665,
          "velocity": 0.7874015748031497
        },
        {
          "duration": 0.17045450000000528,
          "durationTicks": 60,
          "midi": 55,
          "name": "G3",
          "ticks": 287760,
          "time": 802.3507313666665,
          "velocity": 0.7874015748031497
        },
        {
          "duration": 0.17045450000000528,
          "durationTicks": 60,
          "midi": 52,
          "name": "E3",
          "ticks": 287820,
          "time": 802.5211858666665,
          "velocity": 0.7874015748031497
        },
        {
          "duration": 0.17045450000000528,
          "durationTicks": 60,
          "midi": 47,
          "name": "B2",
          "ticks": 287880,
          "time": 802.6916403666665,
          "velocity": 0.7874015748031497
        },
        {
          "duration": 0.17045450000000528,
          "durationTicks": 60,
          "midi": 52,
          "name": "E3",
          "ticks": 287940,
          "time": 802.8620948666666,
          "velocity": 0.7874015748031497
        },
        {
          "duration": 0.17045450000000528,
          "durationTicks": 60,
          "midi": 55,
          "name": "G3",
          "ticks": 288000,
          "time": 803.0325493666666,
          "velocity": 0.7874015748031497
        },
        {
          "duration": 0.17045450000000528,
          "durationTicks": 60,
          "midi": 54,
          "name": "F#3",
          "ticks": 288060,
          "time": 803.2030038666666,
          "velocity": 0.7874015748031497
        },
        {
          "duration": 0.1704544999998916,
          "durationTicks": 60,
          "midi": 55,
          "name": "G3",
          "ticks": 288120,
          "time": 803.3734583666666,
          "velocity": 0.7874015748031497
        },
        {
          "duration": 0.17045450000000528,
          "durationTicks": 60,
          "midi": 52,
          "name": "E3",
          "ticks": 288180,
          "time": 803.5439128666665,
          "velocity": 0.7874015748031497
        },
        {
          "duration": 0.17045450000000528,
          "durationTicks": 60,
          "midi": 49,
          "name": "C#3",
          "ticks": 288240,
          "time": 803.7143673666665,
          "velocity": 0.7874015748031497
        },
        {
          "duration": 0.17045450000000528,
          "durationTicks": 60,
          "midi": 52,
          "name": "E3",
          "ticks": 288300,
          "time": 803.8848218666665,
          "velocity": 0.7874015748031497
        },
        {
          "duration": 0.17045450000000528,
          "durationTicks": 60,
          "midi": 57,
          "name": "A3",
          "ticks": 288360,
          "time": 804.0552763666665,
          "velocity": 0.7874015748031497
        },
        {
          "duration": 0.17045450000000528,
          "durationTicks": 60,
          "midi": 55,
          "name": "G3",
          "ticks": 288420,
          "time": 804.2257308666665,
          "velocity": 0.7874015748031497
        },
        {
          "duration": 0.17045450000000528,
          "durationTicks": 60,
          "midi": 57,
          "name": "A3",
          "ticks": 288480,
          "time": 804.3961853666665,
          "velocity": 0.7874015748031497
        },
        {
          "duration": 0.17045450000000528,
          "durationTicks": 60,
          "midi": 54,
          "name": "F#3",
          "ticks": 288540,
          "time": 804.5666398666665,
          "velocity": 0.7874015748031497
        },
        {
          "duration": 0.17045450000000528,
          "durationTicks": 60,
          "midi": 50,
          "name": "D3",
          "ticks": 288600,
          "time": 804.7370943666665,
          "velocity": 0.7874015748031497
        },
        {
          "duration": 0.17045450000000528,
          "durationTicks": 60,
          "midi": 54,
          "name": "F#3",
          "ticks": 288660,
          "time": 804.9075488666665,
          "velocity": 0.7874015748031497
        },
        {
          "duration": 0.17045450000000528,
          "durationTicks": 60,
          "midi": 59,
          "name": "B3",
          "ticks": 288720,
          "time": 805.0780033666665,
          "velocity": 0.7874015748031497
        },
        {
          "duration": 0.17045450000000528,
          "durationTicks": 60,
          "midi": 57,
          "name": "A3",
          "ticks": 288780,
          "time": 805.2484578666665,
          "velocity": 0.7874015748031497
        },
        {
          "duration": 0.17045450000000528,
          "durationTicks": 60,
          "midi": 59,
          "name": "B3",
          "ticks": 288840,
          "time": 805.4189123666665,
          "velocity": 0.7874015748031497
        },
        {
          "duration": 0.17045450000000528,
          "durationTicks": 60,
          "midi": 55,
          "name": "G3",
          "ticks": 288900,
          "time": 805.5893668666665,
          "velocity": 0.7874015748031497
        },
        {
          "duration": 0.17045450000000528,
          "durationTicks": 60,
          "midi": 52,
          "name": "E3",
          "ticks": 288960,
          "time": 805.7598213666665,
          "velocity": 0.7874015748031497
        },
        {
          "duration": 0.17045450000000528,
          "durationTicks": 60,
          "midi": 55,
          "name": "G3",
          "ticks": 289020,
          "time": 805.9302758666665,
          "velocity": 0.7874015748031497
        },
        {
          "duration": 0.34090900000001056,
          "durationTicks": 120,
          "midi": 57,
          "name": "A3",
          "ticks": 289080,
          "time": 806.1007303666665,
          "velocity": 0.7874015748031497
        },
        {
          "duration": 0.34090900000001056,
          "durationTicks": 120,
          "midi": 45,
          "name": "A2",
          "ticks": 289200,
          "time": 806.4416393666665,
          "velocity": 0.7874015748031497
        },
        {
          "duration": 0.34090900000001056,
          "durationTicks": 120,
          "midi": 57,
          "name": "A3",
          "ticks": 289320,
          "time": 806.7825483666666,
          "velocity": 0.7874015748031497
        },
        {
          "duration": 0.1704544999998916,
          "durationTicks": 60,
          "midi": 62,
          "name": "D4",
          "ticks": 289440,
          "time": 807.1234573666666,
          "velocity": 0.7874015748031497
        },
        {
          "duration": 0.17045450000000528,
          "durationTicks": 60,
          "midi": 61,
          "name": "C#4",
          "ticks": 289500,
          "time": 807.2939118666665,
          "velocity": 0.7874015748031497
        },
        {
          "duration": 0.17045450000000528,
          "durationTicks": 60,
          "midi": 62,
          "name": "D4",
          "ticks": 289560,
          "time": 807.4643663666665,
          "velocity": 0.7874015748031497
        },
        {
          "duration": 0.17045450000000528,
          "durationTicks": 60,
          "midi": 57,
          "name": "A3",
          "ticks": 289620,
          "time": 807.6348208666665,
          "velocity": 0.7874015748031497
        },
        {
          "duration": 0.17045450000000528,
          "durationTicks": 60,
          "midi": 54,
          "name": "F#3",
          "ticks": 289680,
          "time": 807.8052753666665,
          "velocity": 0.7874015748031497
        },
        {
          "duration": 0.17045450000000528,
          "durationTicks": 60,
          "midi": 50,
          "name": "D3",
          "ticks": 289740,
          "time": 807.9757298666665,
          "velocity": 0.7874015748031497
        },
        {
          "duration": 0.34090900000001056,
          "durationTicks": 120,
          "midi": 62,
          "name": "D4",
          "ticks": 289800,
          "time": 808.1461843666665,
          "velocity": 0.7874015748031497
        },
        {
          "duration": 0.34090900000001056,
          "durationTicks": 120,
          "midi": 50,
          "name": "D3",
          "ticks": 289920,
          "time": 808.4870933666665,
          "velocity": 0.7874015748031497
        },
        {
          "duration": 0.34090900000001056,
          "durationTicks": 120,
          "midi": 60,
          "name": "C4",
          "ticks": 290040,
          "time": 808.8280023666665,
          "velocity": 0.7874015748031497
        },
        {
          "duration": 0.34090900000001056,
          "durationTicks": 120,
          "midi": 59,
          "name": "B3",
          "ticks": 290160,
          "time": 809.1689113666665,
          "velocity": 0.7874015748031497
        },
        {
          "duration": 0.34090900000001056,
          "durationTicks": 120,
          "midi": 55,
          "name": "G3",
          "ticks": 290280,
          "time": 809.5098203666665,
          "velocity": 0.7874015748031497
        },
        {
          "duration": 0.34090900000001056,
          "durationTicks": 120,
          "midi": 59,
          "name": "B3",
          "ticks": 290400,
          "time": 809.8507293666665,
          "velocity": 0.7874015748031497
        },
        {
          "duration": 0.34090900000001056,
          "durationTicks": 120,
          "midi": 60,
          "name": "C4",
          "ticks": 290520,
          "time": 810.1916383666666,
          "velocity": 0.7874015748031497
        },
        {
          "duration": 0.3409089999998969,
          "durationTicks": 120,
          "midi": 59,
          "name": "B3",
          "ticks": 290640,
          "time": 810.5325473666666,
          "velocity": 0.7874015748031497
        },
        {
          "duration": 0.34090900000001056,
          "durationTicks": 120,
          "midi": 57,
          "name": "A3",
          "ticks": 290760,
          "time": 810.8734563666665,
          "velocity": 0.7874015748031497
        },
        {
          "duration": 0.34090900000001056,
          "durationTicks": 120,
          "midi": 59,
          "name": "B3",
          "ticks": 290880,
          "time": 811.2143653666665,
          "velocity": 0.7874015748031497
        },
        {
          "duration": 0.17045450000000528,
          "durationTicks": 60,
          "midi": 57,
          "name": "A3",
          "ticks": 291000,
          "time": 811.5552743666665,
          "velocity": 0.7874015748031497
        },
        {
          "duration": 0.17045450000000528,
          "durationTicks": 60,
          "midi": 55,
          "name": "G3",
          "ticks": 291060,
          "time": 811.7257288666665,
          "velocity": 0.7874015748031497
        },
        {
          "duration": 0.17045450000000528,
          "durationTicks": 60,
          "midi": 57,
          "name": "A3",
          "ticks": 291120,
          "time": 811.8961833666665,
          "velocity": 0.7874015748031497
        },
        {
          "duration": 0.17045450000000528,
          "durationTicks": 60,
          "midi": 54,
          "name": "F#3",
          "ticks": 291180,
          "time": 812.0666378666665,
          "velocity": 0.7874015748031497
        },
        {
          "duration": 0.34090900000001056,
          "durationTicks": 120,
          "midi": 55,
          "name": "G3",
          "ticks": 291240,
          "time": 812.2370923666665,
          "velocity": 0.7874015748031497
        },
        {
          "duration": 0.34090900000001056,
          "durationTicks": 120,
          "midi": 52,
          "name": "E3",
          "ticks": 291360,
          "time": 812.5780013666665,
          "velocity": 0.7874015748031497
        },
        {
          "duration": 0.34090900000001056,
          "durationTicks": 120,
          "midi": 55,
          "name": "G3",
          "ticks": 291480,
          "time": 812.9189103666665,
          "velocity": 0.7874015748031497
        },
        {
          "duration": 0.34090900000001056,
          "durationTicks": 120,
          "midi": 57,
          "name": "A3",
          "ticks": 291600,
          "time": 813.2598193666665,
          "velocity": 0.7874015748031497
        },
        {
          "duration": 0.34090900000001056,
          "durationTicks": 120,
          "midi": 45,
          "name": "A2",
          "ticks": 291720,
          "time": 813.6007283666665,
          "velocity": 0.7874015748031497
        },
        {
          "duration": 0.34090900000001056,
          "durationTicks": 120,
          "midi": 57,
          "name": "A3",
          "ticks": 291840,
          "time": 813.9416373666666,
          "velocity": 0.7874015748031497
        },
        {
          "duration": 0.17045450000000528,
          "durationTicks": 60,
          "midi": 55,
          "name": "G3",
          "ticks": 291960,
          "time": 814.2825463666666,
          "velocity": 0.7874015748031497
        },
        {
          "duration": 0.1704544999998916,
          "durationTicks": 60,
          "midi": 54,
          "name": "F#3",
          "ticks": 292020,
          "time": 814.4530008666666,
          "velocity": 0.7874015748031497
        },
        {
          "duration": 0.17045450000000528,
          "durationTicks": 60,
          "midi": 55,
          "name": "G3",
          "ticks": 292080,
          "time": 814.6234553666665,
          "velocity": 0.7874015748031497
        },
        {
          "duration": 0.17045450000000528,
          "durationTicks": 60,
          "midi": 57,
          "name": "A3",
          "ticks": 292140,
          "time": 814.7939098666665,
          "velocity": 0.7874015748031497
        },
        {
          "duration": 0.34090900000001056,
          "durationTicks": 120,
          "midi": 59,
          "name": "B3",
          "ticks": 292200,
          "time": 814.9643643666665,
          "velocity": 0.7874015748031497
        },
        {
          "duration": 0.34090900000001056,
          "durationTicks": 120,
          "midi": 52,
          "name": "E3",
          "ticks": 292320,
          "time": 815.3052733666665,
          "velocity": 0.7874015748031497
        },
        {
          "duration": 0.34090900000001056,
          "durationTicks": 120,
          "midi": 64,
          "name": "E4",
          "ticks": 292440,
          "time": 815.6461823666665,
          "velocity": 0.7874015748031497
        },
        {
          "duration": 0.34090900000001056,
          "durationTicks": 120,
          "midi": 62,
          "name": "D4",
          "ticks": 292560,
          "time": 815.9870913666665,
          "velocity": 0.7874015748031497
        },
        {
          "duration": 0.17045450000000528,
          "durationTicks": 60,
          "midi": 60,
          "name": "C4",
          "ticks": 292680,
          "time": 816.3280003666665,
          "velocity": 0.7874015748031497
        },
        {
          "duration": 0.17045450000000528,
          "durationTicks": 60,
          "midi": 59,
          "name": "B3",
          "ticks": 292740,
          "time": 816.4984548666665,
          "velocity": 0.7874015748031497
        },
        {
          "duration": 0.17045450000000528,
          "durationTicks": 60,
          "midi": 60,
          "name": "C4",
          "ticks": 292800,
          "time": 816.6689093666665,
          "velocity": 0.7874015748031497
        },
        {
          "duration": 0.17045450000000528,
          "durationTicks": 60,
          "midi": 57,
          "name": "A3",
          "ticks": 292860,
          "time": 816.8393638666665,
          "velocity": 0.7874015748031497
        },
        {
          "duration": 0.17045450000000528,
          "durationTicks": 60,
          "midi": 54,
          "name": "F#3",
          "ticks": 292920,
          "time": 817.0098183666665,
          "velocity": 0.7874015748031497
        },
        {
          "duration": 0.17045450000000528,
          "durationTicks": 60,
          "midi": 57,
          "name": "A3",
          "ticks": 292980,
          "time": 817.1802728666665,
          "velocity": 0.7874015748031497
        },
        {
          "duration": 0.17045450000000528,
          "durationTicks": 60,
          "midi": 59,
          "name": "B3",
          "ticks": 293040,
          "time": 817.3507273666665,
          "velocity": 0.7874015748031497
        },
        {
          "duration": 0.17045450000000528,
          "durationTicks": 60,
          "midi": 57,
          "name": "A3",
          "ticks": 293100,
          "time": 817.5211818666666,
          "velocity": 0.7874015748031497
        },
        {
          "duration": 0.17045450000000528,
          "durationTicks": 60,
          "midi": 59,
          "name": "B3",
          "ticks": 293160,
          "time": 817.6916363666666,
          "velocity": 0.7874015748031497
        },
        {
          "duration": 0.17045450000000528,
          "durationTicks": 60,
          "midi": 55,
          "name": "G3",
          "ticks": 293220,
          "time": 817.8620908666666,
          "velocity": 0.7874015748031497
        },
        {
          "duration": 0.1704544999998916,
          "durationTicks": 60,
          "midi": 52,
          "name": "E3",
          "ticks": 293280,
          "time": 818.0325453666666,
          "velocity": 0.7874015748031497
        },
        {
          "duration": 0.17045450000000528,
          "durationTicks": 60,
          "midi": 55,
          "name": "G3",
          "ticks": 293340,
          "time": 818.2029998666665,
          "velocity": 0.7874015748031497
        },
        {
          "duration": 0.17045450000000528,
          "durationTicks": 60,
          "midi": 57,
          "name": "A3",
          "ticks": 293400,
          "time": 818.3734543666665,
          "velocity": 0.7874015748031497
        },
        {
          "duration": 0.17045450000000528,
          "durationTicks": 60,
          "midi": 55,
          "name": "G3",
          "ticks": 293460,
          "time": 818.5439088666665,
          "velocity": 0.7874015748031497
        },
        {
          "duration": 0.17045450000000528,
          "durationTicks": 60,
          "midi": 57,
          "name": "A3",
          "ticks": 293520,
          "time": 818.7143633666665,
          "velocity": 0.7874015748031497
        },
        {
          "duration": 0.17045450000000528,
          "durationTicks": 60,
          "midi": 60,
          "name": "C4",
          "ticks": 293580,
          "time": 818.8848178666665,
          "velocity": 0.7874015748031497
        },
        {
          "duration": 0.17045450000000528,
          "durationTicks": 60,
          "midi": 52,
          "name": "E3",
          "ticks": 293640,
          "time": 819.0552723666665,
          "velocity": 0.7874015748031497
        },
        {
          "duration": 0.17045450000000528,
          "durationTicks": 60,
          "midi": 55,
          "name": "G3",
          "ticks": 293700,
          "time": 819.2257268666665,
          "velocity": 0.7874015748031497
        },
        {
          "duration": 0.17045450000000528,
          "durationTicks": 60,
          "midi": 54,
          "name": "F#3",
          "ticks": 293760,
          "time": 819.3961813666665,
          "velocity": 0.7874015748031497
        },
        {
          "duration": 0.17045450000000528,
          "durationTicks": 60,
          "midi": 52,
          "name": "E3",
          "ticks": 293820,
          "time": 819.5666358666665,
          "velocity": 0.7874015748031497
        },
        {
          "duration": 0.17045450000000528,
          "durationTicks": 60,
          "midi": 54,
          "name": "F#3",
          "ticks": 293880,
          "time": 819.7370903666665,
          "velocity": 0.7874015748031497
        },
        {
          "duration": 0.17045450000000528,
          "durationTicks": 60,
          "midi": 57,
          "name": "A3",
          "ticks": 293940,
          "time": 819.9075448666665,
          "velocity": 0.7874015748031497
        },
        {
          "duration": 0.17045450000000528,
          "durationTicks": 60,
          "midi": 50,
          "name": "D3",
          "ticks": 294000,
          "time": 820.0779993666665,
          "velocity": 0.7874015748031497
        },
        {
          "duration": 0.17045450000000528,
          "durationTicks": 60,
          "midi": 54,
          "name": "F#3",
          "ticks": 294060,
          "time": 820.2484538666665,
          "velocity": 0.7874015748031497
        },
        {
          "duration": 0.34090900000001056,
          "durationTicks": 120,
          "midi": 47,
          "name": "B2",
          "ticks": 294120,
          "time": 820.4189083666665,
          "velocity": 0.7874015748031497
        },
        {
          "duration": 0.34090900000001056,
          "durationTicks": 120,
          "midi": 43,
          "name": "G2",
          "ticks": 294240,
          "time": 820.7598173666665,
          "velocity": 0.7874015748031497
        },
        {
          "duration": 0.34090900000001056,
          "durationTicks": 120,
          "midi": 47,
          "name": "B2",
          "ticks": 294360,
          "time": 821.1007263666665,
          "velocity": 0.7874015748031497
        },
        {
          "duration": 0.34090900000001056,
          "durationTicks": 120,
          "midi": 48,
          "name": "C3",
          "ticks": 294480,
          "time": 821.4416353666666,
          "velocity": 0.7874015748031497
        },
        {
          "duration": 0.3409089999998969,
          "durationTicks": 120,
          "midi": 45,
          "name": "A2",
          "ticks": 294600,
          "time": 821.7825443666666,
          "velocity": 0.7874015748031497
        },
        {
          "duration": 0.34090900000001056,
          "durationTicks": 120,
          "midi": 48,
          "name": "C3",
          "ticks": 294720,
          "time": 822.1234533666665,
          "velocity": 0.7874015748031497
        },
        {
          "duration": 0.34090900000001056,
          "durationTicks": 120,
          "midi": 50,
          "name": "D3",
          "ticks": 294840,
          "time": 822.4643623666665,
          "velocity": 0.7874015748031497
        },
        {
          "duration": 0.34090900000001056,
          "durationTicks": 120,
          "midi": 48,
          "name": "C3",
          "ticks": 294960,
          "time": 822.8052713666665,
          "velocity": 0.7874015748031497
        },
        {
          "duration": 0.34090900000001056,
          "durationTicks": 120,
          "midi": 50,
          "name": "D3",
          "ticks": 295080,
          "time": 823.1461803666665,
          "velocity": 0.7874015748031497
        },
        {
          "duration": 1.0227270000000317,
          "durationTicks": 360,
          "midi": 55,
          "name": "G3",
          "ticks": 295200,
          "time": 823.4870893666665,
          "velocity": 0.7874015748031497
        },
        {
          "duration": 1.0227270000000317,
          "durationTicks": 720,
          "midi": 64,
          "name": "E4",
          "ticks": 319440,
          "time": 886.2153083333333,
          "velocity": 0.7874015748031497
        },
        {
          "duration": 0.1704544999998916,
          "durationTicks": 120,
          "midi": 62,
          "name": "D4",
          "ticks": 320160,
          "time": 887.2380353333333,
          "velocity": 0.7874015748031497
        },
        {
          "duration": 0.17045450000000528,
          "durationTicks": 120,
          "midi": 61,
          "name": "C#4",
          "ticks": 320280,
          "time": 887.4084898333332,
          "velocity": 0.7874015748031497
        },
        {
          "duration": 1.0227270000000317,
          "durationTicks": 720,
          "midi": 62,
          "name": "D4",
          "ticks": 320400,
          "time": 887.5789443333332,
          "velocity": 0.7874015748031497
        },
        {
          "duration": 0.17045450000000528,
          "durationTicks": 120,
          "midi": 61,
          "name": "C#4",
          "ticks": 321120,
          "time": 888.6016713333332,
          "velocity": 0.7874015748031497
        },
        {
          "duration": 0.17045450000000528,
          "durationTicks": 120,
          "midi": 59,
          "name": "B3",
          "ticks": 321240,
          "time": 888.7721258333332,
          "velocity": 0.7874015748031497
        },
        {
          "duration": 0.34090900000001056,
          "durationTicks": 240,
          "midi": 61,
          "name": "C#4",
          "ticks": 321360,
          "time": 888.9425803333332,
          "velocity": 0.7874015748031497
        },
        {
          "duration": 0.34090900000001056,
          "durationTicks": 240,
          "midi": 64,
          "name": "E4",
          "ticks": 321600,
          "time": 889.2834893333333,
          "velocity": 0.7874015748031497
        },
        {
          "duration": 1.7045449999999391,
          "durationTicks": 1200,
          "midi": 57,
          "name": "A3",
          "ticks": 321840,
          "time": 889.6243983333333,
          "velocity": 0.7874015748031497
        },
        {
          "duration": 0.17045450000000528,
          "durationTicks": 120,
          "midi": 55,
          "name": "G3",
          "ticks": 323040,
          "time": 891.3289433333332,
          "velocity": 0.7874015748031497
        },
        {
          "duration": 0.17045450000000528,
          "durationTicks": 120,
          "midi": 54,
          "name": "F#3",
          "ticks": 323160,
          "time": 891.4993978333332,
          "velocity": 0.7874015748031497
        },
        {
          "duration": 1.0227270000000317,
          "durationTicks": 720,
          "midi": 55,
          "name": "G3",
          "ticks": 323280,
          "time": 891.6698523333332,
          "velocity": 0.7874015748031497
        },
        {
          "duration": 0.34090900000001056,
          "durationTicks": 240,
          "midi": 52,
          "name": "E3",
          "ticks": 324000,
          "time": 892.6925793333332,
          "velocity": 0.7874015748031497
        },
        {
          "duration": 1.0227270000000317,
          "durationTicks": 720,
          "midi": 57,
          "name": "A3",
          "ticks": 324240,
          "time": 893.0334883333333,
          "velocity": 0.7874015748031497
        },
        {
          "duration": 0.17045450000000528,
          "durationTicks": 120,
          "midi": 57,
          "name": "A3",
          "ticks": 324960,
          "time": 894.0562153333333,
          "velocity": 0.7874015748031497
        },
        {
          "duration": 0.17045450000000528,
          "durationTicks": 120,
          "midi": 55,
          "name": "G3",
          "ticks": 325080,
          "time": 894.2266698333333,
          "velocity": 0.7874015748031497
        },
        {
          "duration": 0.3409089999998969,
          "durationTicks": 240,
          "midi": 57,
          "name": "A3",
          "ticks": 325200,
          "time": 894.3971243333333,
          "velocity": 0.7874015748031497
        },
        {
          "duration": 0.34090900000001056,
          "durationTicks": 240,
          "midi": 54,
          "name": "F#3",
          "ticks": 325440,
          "time": 894.7380333333332,
          "velocity": 0.7874015748031497
        },
        {
          "duration": 0.6818180000000211,
          "durationTicks": 480,
          "midi": 62,
          "name": "D4",
          "ticks": 325680,
          "time": 895.0789423333332,
          "velocity": 0.7874015748031497
        },
        {
          "duration": 1.0227270000000317,
          "durationTicks": 720,
          "midi": 64,
          "name": "E4",
          "ticks": 327120,
          "time": 897.1243963333333,
          "velocity": 0.7874015748031497
        },
        {
          "duration": 0.1704544999998916,
          "durationTicks": 120,
          "midi": 62,
          "name": "D4",
          "ticks": 327840,
          "time": 898.1471233333333,
          "velocity": 0.7874015748031497
        },
        {
          "duration": 0.17045450000000528,
          "durationTicks": 120,
          "midi": 61,
          "name": "C#4",
          "ticks": 327960,
          "time": 898.3175778333332,
          "velocity": 0.7874015748031497
        },
        {
          "duration": 1.0227270000000317,
          "durationTicks": 720,
          "midi": 62,
          "name": "D4",
          "ticks": 328080,
          "time": 898.4880323333332,
          "velocity": 0.7874015748031497
        },
        {
          "duration": 0.17045450000000528,
          "durationTicks": 120,
          "midi": 61,
          "name": "C#4",
          "ticks": 328800,
          "time": 899.5107593333332,
          "velocity": 0.7874015748031497
        },
        {
          "duration": 0.17045450000000528,
          "durationTicks": 120,
          "midi": 59,
          "name": "B3",
          "ticks": 328920,
          "time": 899.6812138333332,
          "velocity": 0.7874015748031497
        },
        {
          "duration": 0.34090900000001056,
          "durationTicks": 240,
          "midi": 61,
          "name": "C#4",
          "ticks": 329040,
          "time": 899.8516683333332,
          "velocity": 0.7874015748031497
        },
        {
          "duration": 0.34090900000001056,
          "durationTicks": 240,
          "midi": 64,
          "name": "E4",
          "ticks": 329280,
          "time": 900.1925773333332,
          "velocity": 0.7874015748031497
        },
        {
          "duration": 1.3636360000000423,
          "durationTicks": 960,
          "midi": 57,
          "name": "A3",
          "ticks": 329520,
          "time": 900.5334863333333,
          "velocity": 0.7874015748031497
        },
        {
          "duration": 1.0227270000000317,
          "durationTicks": 720,
          "midi": 57,
          "name": "A3",
          "ticks": 330960,
          "time": 902.5789403333332,
          "velocity": 0.7874015748031497
        },
        {
          "duration": 0.17045450000000528,
          "durationTicks": 120,
          "midi": 55,
          "name": "G3",
          "ticks": 331680,
          "time": 903.6016673333332,
          "velocity": 0.7874015748031497
        },
        {
          "duration": 0.17045450000000528,
          "durationTicks": 120,
          "midi": 54,
          "name": "F#3",
          "ticks": 331800,
          "time": 903.7721218333332,
          "velocity": 0.7874015748031497
        },
        {
          "duration": 0.34090900000001056,
          "durationTicks": 240,
          "midi": 52,
          "name": "E3",
          "ticks": 331920,
          "time": 903.9425763333332,
          "velocity": 0.7874015748031497
        },
        {
          "duration": 0.34090900000001056,
          "durationTicks": 240,
          "midi": 55,
          "name": "G3",
          "ticks": 331920,
          "time": 903.9425763333332,
          "velocity": 0.7874015748031497
        },
        {
          "duration": 0.6818180000000211,
          "durationTicks": 480,
          "midi": 55,
          "name": "G3",
          "ticks": 332160,
          "time": 904.2834853333333,
          "velocity": 0.7874015748031497
        },
        {
          "duration": 0.6818180000000211,
          "durationTicks": 480,
          "midi": 59,
          "name": "B3",
          "ticks": 332160,
          "time": 904.2834853333333,
          "velocity": 0.7874015748031497
        },
        {
          "duration": 0.17045450000000528,
          "durationTicks": 120,
          "midi": 49,
          "name": "C#3",
          "ticks": 332640,
          "time": 904.9653033333333,
          "velocity": 0.7874015748031497
        },
        {
          "duration": 0.17045450000000528,
          "durationTicks": 120,
          "midi": 50,
          "name": "D3",
          "ticks": 332760,
          "time": 905.1357578333333,
          "velocity": 0.7874015748031497
        },
        {
          "duration": 0.17045450000000528,
          "durationTicks": 120,
          "midi": 52,
          "name": "E3",
          "ticks": 332880,
          "time": 905.3062123333333,
          "velocity": 0.7874015748031497
        },
        {
          "duration": 0.1704544999998916,
          "durationTicks": 120,
          "midi": 54,
          "name": "F#3",
          "ticks": 333000,
          "time": 905.4766668333333,
          "velocity": 0.7874015748031497
        },
        {
          "duration": 0.6818180000000211,
          "durationTicks": 480,
          "midi": 55,
          "name": "G3",
          "ticks": 333120,
          "time": 905.6471213333332,
          "velocity": 0.7874015748031497
        },
        {
          "duration": 0.17045450000000528,
          "durationTicks": 120,
          "midi": 54,
          "name": "F#3",
          "ticks": 333600,
          "time": 906.3289393333332,
          "velocity": 0.7874015748031497
        },
        {
          "duration": 0.17045450000000528,
          "durationTicks": 120,
          "midi": 52,
          "name": "E3",
          "ticks": 333720,
          "time": 906.4993938333332,
          "velocity": 0.7874015748031497
        },
        {
          "duration": 0.6818180000000211,
          "durationTicks": 480,
          "midi": 54,
          "name": "F#3",
          "ticks": 333840,
          "time": 906.6698483333332,
          "velocity": 0.7874015748031497
        },
        {
          "duration": 1.022726999999918,
          "durationTicks": 720,
          "midi": 66,
          "name": "F#4",
          "ticks": 337680,
          "time": 912.1243923333333,
          "velocity": 0.7874015748031497
        },
        {
          "duration": 0.17045450000000528,
          "durationTicks": 120,
          "midi": 64,
          "name": "E4",
          "ticks": 338400,
          "time": 913.1471193333332,
          "velocity": 0.7874015748031497
        },
        {
          "duration": 0.17045450000000528,
          "durationTicks": 120,
          "midi": 63,
          "name": "D#4",
          "ticks": 338520,
          "time": 913.3175738333332,
          "velocity": 0.7874015748031497
        },
        {
          "duration": 0.34090900000001056,
          "durationTicks": 240,
          "midi": 64,
          "name": "E4",
          "ticks": 338640,
          "time": 913.4880283333332,
          "velocity": 0.7874015748031497
        },
        {
          "duration": 0.34090900000001056,
          "durationTicks": 240,
          "midi": 67,
          "name": "G4",
          "ticks": 338880,
          "time": 913.8289373333332,
          "velocity": 0.7874015748031497
        },
        {
          "duration": 0.34090900000001056,
          "durationTicks": 240,
          "midi": 60,
          "name": "C4",
          "ticks": 339120,
          "time": 914.1698463333332,
          "velocity": 0.7874015748031497
        },
        {
          "duration": 0.34090900000001056,
          "durationTicks": 240,
          "midi": 64,
          "name": "E4",
          "ticks": 339360,
          "time": 914.5107553333332,
          "velocity": 0.7874015748031497
        },
        {
          "duration": 1.0227270000000317,
          "durationTicks": 720,
          "midi": 69,
          "name": "A4",
          "ticks": 339600,
          "time": 914.8516643333332,
          "velocity": 0.7874015748031497
        },
        {
          "duration": 0.34090900000001056,
          "durationTicks": 240,
          "midi": 67,
          "name": "G4",
          "ticks": 340320,
          "time": 915.8743913333333,
          "velocity": 0.7874015748031497
        },
        {
          "duration": 0.6818179999999074,
          "durationTicks": 480,
          "midi": 66,
          "name": "F#4",
          "ticks": 340560,
          "time": 916.2153003333333,
          "velocity": 0.7874015748031497
        },
        {
          "duration": 0.6818180000000211,
          "durationTicks": 480,
          "midi": 64,
          "name": "E4",
          "ticks": 341040,
          "time": 916.8971183333332,
          "velocity": 0.7874015748031497
        },
        {
          "duration": 1.0227270000000317,
          "durationTicks": 720,
          "midi": 60,
          "name": "C4",
          "ticks": 344400,
          "time": 921.6698443333332,
          "velocity": 0.7874015748031497
        },
        {
          "duration": 0.17045450000000528,
          "durationTicks": 120,
          "midi": 59,
          "name": "B3",
          "ticks": 345120,
          "time": 922.6925713333333,
          "velocity": 0.7874015748031497
        },
        {
          "duration": 0.17045450000000528,
          "durationTicks": 120,
          "midi": 57,
          "name": "A3",
          "ticks": 345240,
          "time": 922.8630258333333,
          "velocity": 0.7874015748031497
        },
        {
          "duration": 0.34090900000001056,
          "durationTicks": 240,
          "midi": 59,
          "name": "B3",
          "ticks": 345360,
          "time": 923.0334803333333,
          "velocity": 0.7874015748031497
        },
        {
          "duration": 0.34090900000001056,
          "durationTicks": 240,
          "midi": 62,
          "name": "D4",
          "ticks": 345600,
          "time": 923.3743893333333,
          "velocity": 0.7874015748031497
        },
        {
          "duration": 1.022726999999918,
          "durationTicks": 720,
          "midi": 55,
          "name": "G3",
          "ticks": 345840,
          "time": 923.7152983333333,
          "velocity": 0.7874015748031497
        },
        {
          "duration": 0.34090900000001056,
          "durationTicks": 240,
          "midi": 59,
          "name": "B3",
          "ticks": 346560,
          "time": 924.7380253333332,
          "velocity": 0.7874015748031497
        },
        {
          "duration": 0.6818180000000211,
          "durationTicks": 480,
          "midi": 52,
          "name": "E3",
          "ticks": 346800,
          "time": 925.0789343333332,
          "velocity": 0.7874015748031497
        },
        {
          "duration": 1.0227270000000317,
          "durationTicks": 720,
          "midi": 57,
          "name": "A3",
          "ticks": 347280,
          "time": 925.7607523333332,
          "velocity": 0.7874015748031497
        },
        {
          "duration": 0.17045450000000528,
          "durationTicks": 120,
          "midi": 57,
          "name": "A3",
          "ticks": 348000,
          "time": 926.7834793333333,
          "velocity": 0.7874015748031497
        },
        {
          "duration": 0.17045450000000528,
          "durationTicks": 120,
          "midi": 55,
          "name": "G3",
          "ticks": 348120,
          "time": 926.9539338333333,
          "velocity": 0.7874015748031497
        },
        {
          "duration": 0.3409089999998969,
          "durationTicks": 240,
          "midi": 57,
          "name": "A3",
          "ticks": 348240,
          "time": 927.1243883333333,
          "velocity": 0.7874015748031497
        },
        {
          "duration": 0.34090900000001056,
          "durationTicks": 240,
          "midi": 54,
          "name": "F#3",
          "ticks": 348480,
          "time": 927.4652973333332,
          "velocity": 0.7874015748031497
        },
        {
          "duration": 1.3636360000000423,
          "durationTicks": 960,
          "midi": 62,
          "name": "D4",
          "ticks": 348720,
          "time": 927.8062063333332,
          "velocity": 0.7874015748031497
        },
        {
          "duration": 0.3125,
          "durationTicks": 120,
          "midi": 67,
          "name": "G4",
          "ticks": 350640,
          "time": 931.6698423333332,
          "velocity": 0.7874015748031497
        },
        {
          "duration": 0.15625,
          "durationTicks": 60,
          "midi": 83,
          "name": "B5",
          "ticks": 350760,
          "time": 931.9823423333332,
          "velocity": 0.7874015748031497
        },
        {
          "duration": 0.15625,
          "durationTicks": 60,
          "midi": 81,
          "name": "A5",
          "ticks": 350820,
          "time": 932.1385923333332,
          "velocity": 0.7874015748031497
        },
        {
          "duration": 0.15625,
          "durationTicks": 60,
          "midi": 79,
          "name": "G5",
          "ticks": 350880,
          "time": 932.2948423333332,
          "velocity": 0.7874015748031497
        },
        {
          "duration": 0.15625,
          "durationTicks": 60,
          "midi": 78,
          "name": "F#5",
          "ticks": 350940,
          "time": 932.4510923333332,
          "velocity": 0.7874015748031497
        },
        {
          "duration": 0.15625,
          "durationTicks": 60,
          "midi": 76,
          "name": "E5",
          "ticks": 351000,
          "time": 932.6073423333332,
          "velocity": 0.7874015748031497
        },
        {
          "duration": 0.15625,
          "durationTicks": 60,
          "midi": 74,
          "name": "D5",
          "ticks": 351060,
          "time": 932.7635923333332,
          "velocity": 0.7874015748031497
        },
        {
          "duration": 0.15625,
          "durationTicks": 60,
          "midi": 73,
          "name": "C#5",
          "ticks": 351120,
          "time": 932.9198423333332,
          "velocity": 0.7874015748031497
        },
        {
          "duration": 0.15625,
          "durationTicks": 60,
          "midi": 71,
          "name": "B4",
          "ticks": 351180,
          "time": 933.0760923333332,
          "velocity": 0.7874015748031497
        },
        {
          "duration": 0.15625,
          "durationTicks": 60,
          "midi": 69,
          "name": "A4",
          "ticks": 351240,
          "time": 933.2323423333332,
          "velocity": 0.7874015748031497
        },
        {
          "duration": 0.15625,
          "durationTicks": 60,
          "midi": 67,
          "name": "G4",
          "ticks": 351300,
          "time": 933.3885923333332,
          "velocity": 0.7874015748031497
        },
        {
          "duration": 0.3125,
          "durationTicks": 120,
          "midi": 66,
          "name": "F#4",
          "ticks": 351360,
          "time": 933.5448423333332,
          "velocity": 0.7874015748031497
        },
        {
          "duration": 0.15625,
          "durationTicks": 60,
          "midi": 81,
          "name": "A5",
          "ticks": 351480,
          "time": 933.8573423333332,
          "velocity": 0.7874015748031497
        },
        {
          "duration": 0.15625,
          "durationTicks": 60,
          "midi": 79,
          "name": "G5",
          "ticks": 351540,
          "time": 934.0135923333332,
          "velocity": 0.7874015748031497
        },
        {
          "duration": 0.15625,
          "durationTicks": 60,
          "midi": 78,
          "name": "F#5",
          "ticks": 351600,
          "time": 934.1698423333332,
          "velocity": 0.7874015748031497
        },
        {
          "duration": 0.15625,
          "durationTicks": 60,
          "midi": 76,
          "name": "E5",
          "ticks": 351660,
          "time": 934.3260923333332,
          "velocity": 0.7874015748031497
        },
        {
          "duration": 0.15625,
          "durationTicks": 60,
          "midi": 74,
          "name": "D5",
          "ticks": 351720,
          "time": 934.4823423333332,
          "velocity": 0.7874015748031497
        },
        {
          "duration": 0.15625,
          "durationTicks": 60,
          "midi": 73,
          "name": "C#5",
          "ticks": 351780,
          "time": 934.6385923333332,
          "velocity": 0.7874015748031497
        },
        {
          "duration": 0.15625,
          "durationTicks": 60,
          "midi": 71,
          "name": "B4",
          "ticks": 351840,
          "time": 934.7948423333332,
          "velocity": 0.7874015748031497
        },
        {
          "duration": 0.15625,
          "durationTicks": 60,
          "midi": 69,
          "name": "A4",
          "ticks": 351900,
          "time": 934.9510923333332,
          "velocity": 0.7874015748031497
        },
        {
          "duration": 0.15625,
          "durationTicks": 60,
          "midi": 67,
          "name": "G4",
          "ticks": 351960,
          "time": 935.1073423333332,
          "velocity": 0.7874015748031497
        },
        {
          "duration": 0.15625,
          "durationTicks": 60,
          "midi": 66,
          "name": "F#4",
          "ticks": 352020,
          "time": 935.2635923333332,
          "velocity": 0.7874015748031497
        },
        {
          "duration": 0.3125,
          "durationTicks": 120,
          "midi": 64,
          "name": "E4",
          "ticks": 352080,
          "time": 935.4198423333332,
          "velocity": 0.7874015748031497
        },
        {
          "duration": 0.15625,
          "durationTicks": 60,
          "midi": 79,
          "name": "G5",
          "ticks": 352200,
          "time": 935.7323423333332,
          "velocity": 0.7874015748031497
        },
        {
          "duration": 0.15625,
          "durationTicks": 60,
          "midi": 78,
          "name": "F#5",
          "ticks": 352260,
          "time": 935.8885923333332,
          "velocity": 0.7874015748031497
        },
        {
          "duration": 0.15625,
          "durationTicks": 60,
          "midi": 76,
          "name": "E5",
          "ticks": 352320,
          "time": 936.0448423333332,
          "velocity": 0.7874015748031497
        },
        {
          "duration": 0.15625,
          "durationTicks": 60,
          "midi": 74,
          "name": "D5",
          "ticks": 352380,
          "time": 936.2010923333332,
          "velocity": 0.7874015748031497
        },
        {
          "duration": 0.15625,
          "durationTicks": 60,
          "midi": 73,
          "name": "C#5",
          "ticks": 352440,
          "time": 936.3573423333332,
          "velocity": 0.7874015748031497
        },
        {
          "duration": 0.15625,
          "durationTicks": 60,
          "midi": 71,
          "name": "B4",
          "ticks": 352500,
          "time": 936.5135923333332,
          "velocity": 0.7874015748031497
        },
        {
          "duration": 0.15625,
          "durationTicks": 60,
          "midi": 69,
          "name": "A4",
          "ticks": 352560,
          "time": 936.6698423333332,
          "velocity": 0.7874015748031497
        },
        {
          "duration": 0.15625,
          "durationTicks": 60,
          "midi": 67,
          "name": "G4",
          "ticks": 352620,
          "time": 936.8260923333332,
          "velocity": 0.7874015748031497
        },
        {
          "duration": 0.15625,
          "durationTicks": 60,
          "midi": 66,
          "name": "F#4",
          "ticks": 352680,
          "time": 936.9823423333332,
          "velocity": 0.7874015748031497
        },
        {
          "duration": 0.15625,
          "durationTicks": 60,
          "midi": 64,
          "name": "E4",
          "ticks": 352740,
          "time": 937.1385923333332,
          "velocity": 0.7874015748031497
        },
        {
          "duration": 0.46875,
          "durationTicks": 180,
          "midi": 62,
          "name": "D4",
          "ticks": 352800,
          "time": 937.2948423333332,
          "velocity": 0.7874015748031497
        },
        {
          "duration": 0.078125,
          "durationTicks": 30,
          "midi": 60,
          "name": "C4",
          "ticks": 352980,
          "time": 937.7635923333332,
          "velocity": 0.7874015748031497
        },
        {
          "duration": 0.078125,
          "durationTicks": 30,
          "midi": 59,
          "name": "B3",
          "ticks": 353010,
          "time": 937.8417173333332,
          "velocity": 0.7874015748031497
        },
        {
          "duration": 0.078125,
          "durationTicks": 30,
          "midi": 57,
          "name": "A3",
          "ticks": 353040,
          "time": 937.9198423333332,
          "velocity": 0.7874015748031497
        },
        {
          "duration": 0.078125,
          "durationTicks": 30,
          "midi": 55,
          "name": "G3",
          "ticks": 353070,
          "time": 937.9979673333332,
          "velocity": 0.7874015748031497
        },
        {
          "duration": 0.078125,
          "durationTicks": 30,
          "midi": 54,
          "name": "F#3",
          "ticks": 353100,
          "time": 938.0760923333332,
          "velocity": 0.7874015748031497
        },
        {
          "duration": 0.078125,
          "durationTicks": 30,
          "midi": 52,
          "name": "E3",
          "ticks": 353130,
          "time": 938.1542173333332,
          "velocity": 0.7874015748031497
        },
        {
          "duration": 0.3125,
          "durationTicks": 120,
          "midi": 50,
          "name": "D3",
          "ticks": 353160,
          "time": 938.2323423333332,
          "velocity": 0.7874015748031497
        },
        {
          "duration": 0.15625,
          "durationTicks": 60,
          "midi": 48,
          "name": "C3",
          "ticks": 353460,
          "time": 939.0135923333332,
          "velocity": 0.7874015748031497
        },
        {
          "duration": 0.3125,
          "durationTicks": 120,
          "midi": 47,
          "name": "B2",
          "ticks": 353520,
          "time": 939.1698423333332,
          "velocity": 0.7874015748031497
        },
        {
          "duration": 0.3125,
          "durationTicks": 120,
          "midi": 74,
          "name": "D5",
          "ticks": 353640,
          "time": 939.4823423333332,
          "velocity": 0.7874015748031497
        },
        {
          "duration": 0.15625,
          "durationTicks": 60,
          "midi": 59,
          "name": "B3",
          "ticks": 353760,
          "time": 939.7948423333332,
          "velocity": 0.7874015748031497
        },
        {
          "duration": 0.15625,
          "durationTicks": 60,
          "midi": 60,
          "name": "C4",
          "ticks": 353820,
          "time": 939.9510923333332,
          "velocity": 0.7874015748031497
        },
        {
          "duration": 0.15625,
          "durationTicks": 60,
          "midi": 62,
          "name": "D4",
          "ticks": 353880,
          "time": 940.1073423333332,
          "velocity": 0.7874015748031497
        },
        {
          "duration": 0.15625,
          "durationTicks": 60,
          "midi": 64,
          "name": "E4",
          "ticks": 353940,
          "time": 940.2635923333332,
          "velocity": 0.7874015748031497
        },
        {
          "duration": 0.15625,
          "durationTicks": 60,
          "midi": 66,
          "name": "F#4",
          "ticks": 354000,
          "time": 940.4198423333332,
          "velocity": 0.7874015748031497
        },
        {
          "duration": 0.15625,
          "durationTicks": 60,
          "midi": 67,
          "name": "G4",
          "ticks": 354060,
          "time": 940.5760923333332,
          "velocity": 0.7874015748031497
        },
        {
          "duration": 0.15625,
          "durationTicks": 60,
          "midi": 69,
          "name": "A4",
          "ticks": 354120,
          "time": 940.7323423333332,
          "velocity": 0.7874015748031497
        },
        {
          "duration": 0.15625,
          "durationTicks": 60,
          "midi": 71,
          "name": "B4",
          "ticks": 354180,
          "time": 940.8885923333332,
          "velocity": 0.7874015748031497
        },
        {
          "duration": 0.15625,
          "durationTicks": 60,
          "midi": 72,
          "name": "C5",
          "ticks": 354240,
          "time": 941.0448423333332,
          "velocity": 0.7874015748031497
        },
        {
          "duration": 0.15625,
          "durationTicks": 60,
          "midi": 74,
          "name": "D5",
          "ticks": 354300,
          "time": 941.2010923333332,
          "velocity": 0.7874015748031497
        },
        {
          "duration": 0.3125,
          "durationTicks": 120,
          "midi": 76,
          "name": "E5",
          "ticks": 354360,
          "time": 941.3573423333332,
          "velocity": 0.7874015748031497
        },
        {
          "duration": 0.15625,
          "durationTicks": 60,
          "midi": 60,
          "name": "C4",
          "ticks": 354480,
          "time": 941.6698423333332,
          "velocity": 0.7874015748031497
        },
        {
          "duration": 0.15625,
          "durationTicks": 60,
          "midi": 62,
          "name": "D4",
          "ticks": 354540,
          "time": 941.8260923333332,
          "velocity": 0.7874015748031497
        },
        {
          "duration": 0.15625,
          "durationTicks": 60,
          "midi": 64,
          "name": "E4",
          "ticks": 354600,
          "time": 941.9823423333332,
          "velocity": 0.7874015748031497
        },
        {
          "duration": 0.15625,
          "durationTicks": 60,
          "midi": 66,
          "name": "F#4",
          "ticks": 354660,
          "time": 942.1385923333332,
          "velocity": 0.7874015748031497
        },
        {
          "duration": 0.15625,
          "durationTicks": 60,
          "midi": 67,
          "name": "G4",
          "ticks": 354720,
          "time": 942.2948423333332,
          "velocity": 0.7874015748031497
        },
        {
          "duration": 0.15625,
          "durationTicks": 60,
          "midi": 69,
          "name": "A4",
          "ticks": 354780,
          "time": 942.4510923333332,
          "velocity": 0.7874015748031497
        },
        {
          "duration": 0.15625,
          "durationTicks": 60,
          "midi": 71,
          "name": "B4",
          "ticks": 354840,
          "time": 942.6073423333332,
          "velocity": 0.7874015748031497
        },
        {
          "duration": 0.15625,
          "durationTicks": 60,
          "midi": 72,
          "name": "C5",
          "ticks": 354900,
          "time": 942.7635923333332,
          "velocity": 0.7874015748031497
        },
        {
          "duration": 0.15625,
          "durationTicks": 60,
          "midi": 74,
          "name": "D5",
          "ticks": 354960,
          "time": 942.9198423333332,
          "velocity": 0.7874015748031497
        },
        {
          "duration": 0.15625,
          "durationTicks": 60,
          "midi": 76,
          "name": "E5",
          "ticks": 355020,
          "time": 943.0760923333332,
          "velocity": 0.7874015748031497
        },
        {
          "duration": 0.3125,
          "durationTicks": 120,
          "midi": 78,
          "name": "F#5",
          "ticks": 355080,
          "time": 943.2323423333332,
          "velocity": 0.7874015748031497
        },
        {
          "duration": 0.15625,
          "durationTicks": 60,
          "midi": 62,
          "name": "D4",
          "ticks": 355200,
          "time": 943.5448423333332,
          "velocity": 0.7874015748031497
        },
        {
          "duration": 0.15625,
          "durationTicks": 60,
          "midi": 64,
          "name": "E4",
          "ticks": 355260,
          "time": 943.7010923333332,
          "velocity": 0.7874015748031497
        },
        {
          "duration": 0.15625,
          "durationTicks": 60,
          "midi": 66,
          "name": "F#4",
          "ticks": 355320,
          "time": 943.8573423333332,
          "velocity": 0.7874015748031497
        },
        {
          "duration": 0.15625,
          "durationTicks": 60,
          "midi": 67,
          "name": "G4",
          "ticks": 355380,
          "time": 944.0135923333332,
          "velocity": 0.7874015748031497
        },
        {
          "duration": 0.15625,
          "durationTicks": 60,
          "midi": 69,
          "name": "A4",
          "ticks": 355440,
          "time": 944.1698423333332,
          "velocity": 0.7874015748031497
        },
        {
          "duration": 0.15625,
          "durationTicks": 60,
          "midi": 71,
          "name": "B4",
          "ticks": 355500,
          "time": 944.3260923333332,
          "velocity": 0.7874015748031497
        },
        {
          "duration": 0.15625,
          "durationTicks": 60,
          "midi": 72,
          "name": "C5",
          "ticks": 355560,
          "time": 944.4823423333332,
          "velocity": 0.7874015748031497
        },
        {
          "duration": 0.15625,
          "durationTicks": 60,
          "midi": 69,
          "name": "A4",
          "ticks": 355620,
          "time": 944.6385923333332,
          "velocity": 0.7874015748031497
        },
        {
          "duration": 0.078125,
          "durationTicks": 30,
          "midi": 71,
          "name": "B4",
          "ticks": 355680,
          "time": 944.7948423333332,
          "velocity": 0.7874015748031497
        },
        {
          "duration": 0.078125,
          "durationTicks": 30,
          "midi": 67,
          "name": "G4",
          "ticks": 355710,
          "time": 944.8729673333332,
          "velocity": 0.7874015748031497
        },
        {
          "duration": 0.078125,
          "durationTicks": 30,
          "midi": 69,
          "name": "A4",
          "ticks": 355740,
          "time": 944.9510923333332,
          "velocity": 0.7874015748031497
        },
        {
          "duration": 0.078125,
          "durationTicks": 30,
          "midi": 71,
          "name": "B4",
          "ticks": 355770,
          "time": 945.0292173333332,
          "velocity": 0.7874015748031497
        },
        {
          "duration": 0.078125,
          "durationTicks": 30,
          "midi": 72,
          "name": "C5",
          "ticks": 355800,
          "time": 945.1073423333332,
          "velocity": 0.7874015748031497
        },
        {
          "duration": 0.078125,
          "durationTicks": 30,
          "midi": 74,
          "name": "D5",
          "ticks": 355830,
          "time": 945.1854673333332,
          "velocity": 0.7874015748031497
        },
        {
          "duration": 0.078125,
          "durationTicks": 30,
          "midi": 76,
          "name": "E5",
          "ticks": 355860,
          "time": 945.2635923333332,
          "velocity": 0.7874015748031497
        },
        {
          "duration": 0.078125,
          "durationTicks": 30,
          "midi": 78,
          "name": "F#5",
          "ticks": 355890,
          "time": 945.3417173333332,
          "velocity": 0.7874015748031497
        },
        {
          "duration": 0.625,
          "durationTicks": 240,
          "midi": 79,
          "name": "G5",
          "ticks": 355920,
          "time": 945.4198423333332,
          "velocity": 0.7874015748031497
        },
        {
          "duration": 0.078125,
          "durationTicks": 30,
          "midi": 66,
          "name": "F#4",
          "ticks": 356220,
          "time": 946.2010923333332,
          "velocity": 0.7874015748031497
        },
        {
          "duration": 0.078125,
          "durationTicks": 30,
          "midi": 64,
          "name": "E4",
          "ticks": 356250,
          "time": 946.2792173333332,
          "velocity": 0.7874015748031497
        },
        {
          "duration": 0.078125,
          "durationTicks": 30,
          "midi": 62,
          "name": "D4",
          "ticks": 356280,
          "time": 946.3573423333332,
          "velocity": 0.7874015748031497
        },
        {
          "duration": 0.078125,
          "durationTicks": 30,
          "midi": 60,
          "name": "C4",
          "ticks": 356310,
          "time": 946.4354673333332,
          "velocity": 0.7874015748031497
        },
        {
          "duration": 0.078125,
          "durationTicks": 30,
          "midi": 59,
          "name": "B3",
          "ticks": 356340,
          "time": 946.5135923333332,
          "velocity": 0.7874015748031497
        },
        {
          "duration": 0.078125,
          "durationTicks": 30,
          "midi": 57,
          "name": "A3",
          "ticks": 356370,
          "time": 946.5917173333332,
          "velocity": 0.7874015748031497
        },
        {
          "duration": 0.15625,
          "durationTicks": 60,
          "midi": 55,
          "name": "G3",
          "ticks": 356400,
          "time": 946.6698423333332,
          "velocity": 0.7874015748031497
        },
        {
          "duration": 0.15625,
          "durationTicks": 60,
          "midi": 43,
          "name": "G2",
          "ticks": 356460,
          "time": 946.8260923333332,
          "velocity": 0.7874015748031497
        },
        {
          "duration": 0.15625,
          "durationTicks": 60,
          "midi": 55,
          "name": "G3",
          "ticks": 356520,
          "time": 946.9823423333332,
          "velocity": 0.7874015748031497
        },
        {
          "duration": 0.15625,
          "durationTicks": 60,
          "midi": 57,
          "name": "A3",
          "ticks": 356580,
          "time": 947.1385923333332,
          "velocity": 0.7874015748031497
        },
        {
          "duration": 0.15625,
          "durationTicks": 60,
          "midi": 59,
          "name": "B3",
          "ticks": 356640,
          "time": 947.2948423333332,
          "velocity": 0.7874015748031497
        },
        {
          "duration": 0.15625,
          "durationTicks": 60,
          "midi": 47,
          "name": "B2",
          "ticks": 356700,
          "time": 947.4510923333332,
          "velocity": 0.7874015748031497
        },
        {
          "duration": 0.15625,
          "durationTicks": 60,
          "midi": 59,
          "name": "B3",
          "ticks": 356760,
          "time": 947.6073423333332,
          "velocity": 0.7874015748031497
        },
        {
          "duration": 0.15625,
          "durationTicks": 60,
          "midi": 60,
          "name": "C4",
          "ticks": 356820,
          "time": 947.7635923333332,
          "velocity": 0.7874015748031497
        },
        {
          "duration": 0.15625,
          "durationTicks": 60,
          "midi": 62,
          "name": "D4",
          "ticks": 356880,
          "time": 947.9198423333332,
          "velocity": 0.7874015748031497
        },
        {
          "duration": 0.15625,
          "durationTicks": 60,
          "midi": 50,
          "name": "D3",
          "ticks": 356940,
          "time": 948.0760923333332,
          "velocity": 0.7874015748031497
        },
        {
          "duration": 0.15625,
          "durationTicks": 60,
          "midi": 62,
          "name": "D4",
          "ticks": 357000,
          "time": 948.2323423333332,
          "velocity": 0.7874015748031497
        },
        {
          "duration": 0.15625,
          "durationTicks": 60,
          "midi": 64,
          "name": "E4",
          "ticks": 357060,
          "time": 948.3885923333332,
          "velocity": 0.7874015748031497
        },
        {
          "duration": 0.15625,
          "durationTicks": 60,
          "midi": 66,
          "name": "F#4",
          "ticks": 357120,
          "time": 948.5448423333332,
          "velocity": 0.7874015748031497
        },
        {
          "duration": 0.15625,
          "durationTicks": 60,
          "midi": 54,
          "name": "F#3",
          "ticks": 357180,
          "time": 948.7010923333332,
          "velocity": 0.7874015748031497
        },
        {
          "duration": 0.15625,
          "durationTicks": 60,
          "midi": 66,
          "name": "F#4",
          "ticks": 357240,
          "time": 948.8573423333332,
          "velocity": 0.7874015748031497
        },
        {
          "duration": 0.15625,
          "durationTicks": 60,
          "midi": 67,
          "name": "G4",
          "ticks": 357300,
          "time": 949.0135923333332,
          "velocity": 0.7874015748031497
        },
        {
          "duration": 0.15625,
          "durationTicks": 60,
          "midi": 69,
          "name": "A4",
          "ticks": 357360,
          "time": 949.1698423333332,
          "velocity": 0.7874015748031497
        },
        {
          "duration": 0.15625,
          "durationTicks": 60,
          "midi": 57,
          "name": "A3",
          "ticks": 357420,
          "time": 949.3260923333332,
          "velocity": 0.7874015748031497
        },
        {
          "duration": 0.15625,
          "durationTicks": 60,
          "midi": 69,
          "name": "A4",
          "ticks": 357480,
          "time": 949.4823423333332,
          "velocity": 0.7874015748031497
        },
        {
          "duration": 0.15625,
          "durationTicks": 60,
          "midi": 71,
          "name": "B4",
          "ticks": 357540,
          "time": 949.6385923333332,
          "velocity": 0.7874015748031497
        },
        {
          "duration": 0.15625,
          "durationTicks": 60,
          "midi": 73,
          "name": "C#5",
          "ticks": 357600,
          "time": 949.7948423333332,
          "velocity": 0.7874015748031497
        },
        {
          "duration": 0.15625,
          "durationTicks": 60,
          "midi": 61,
          "name": "C#4",
          "ticks": 357660,
          "time": 949.9510923333332,
          "velocity": 0.7874015748031497
        },
        {
          "duration": 0.15625,
          "durationTicks": 60,
          "midi": 73,
          "name": "C#5",
          "ticks": 357720,
          "time": 950.1073423333332,
          "velocity": 0.7874015748031497
        },
        {
          "duration": 0.15625,
          "durationTicks": 60,
          "midi": 74,
          "name": "D5",
          "ticks": 357780,
          "time": 950.2635923333332,
          "velocity": 0.7874015748031497
        },
        {
          "duration": 0.15625,
          "durationTicks": 60,
          "midi": 76,
          "name": "E5",
          "ticks": 357840,
          "time": 950.4198423333332,
          "velocity": 0.7874015748031497
        },
        {
          "duration": 0.15625,
          "durationTicks": 60,
          "midi": 64,
          "name": "E4",
          "ticks": 357900,
          "time": 950.5760923333332,
          "velocity": 0.7874015748031497
        },
        {
          "duration": 0.15625,
          "durationTicks": 60,
          "midi": 76,
          "name": "E5",
          "ticks": 357960,
          "time": 950.7323423333332,
          "velocity": 0.7874015748031497
        },
        {
          "duration": 0.15625,
          "durationTicks": 60,
          "midi": 78,
          "name": "F#5",
          "ticks": 358020,
          "time": 950.8885923333332,
          "velocity": 0.7874015748031497
        },
        {
          "duration": 0.15625,
          "durationTicks": 60,
          "midi": 79,
          "name": "G5",
          "ticks": 358080,
          "time": 951.0448423333332,
          "velocity": 0.7874015748031497
        },
        {
          "duration": 0.15625,
          "durationTicks": 60,
          "midi": 67,
          "name": "G4",
          "ticks": 358140,
          "time": 951.2010923333332,
          "velocity": 0.7874015748031497
        },
        {
          "duration": 0.15625,
          "durationTicks": 60,
          "midi": 79,
          "name": "G5",
          "ticks": 358200,
          "time": 951.3573423333332,
          "velocity": 0.7874015748031497
        },
        {
          "duration": 0.15625,
          "durationTicks": 60,
          "midi": 81,
          "name": "A5",
          "ticks": 358260,
          "time": 951.5135923333332,
          "velocity": 0.7874015748031497
        },
        {
          "duration": 0.15625,
          "durationTicks": 60,
          "midi": 83,
          "name": "B5",
          "ticks": 358320,
          "time": 951.6698423333332,
          "velocity": 0.7874015748031497
        },
        {
          "duration": 0.15625,
          "durationTicks": 60,
          "midi": 71,
          "name": "B4",
          "ticks": 358380,
          "time": 951.8260923333332,
          "velocity": 0.7874015748031497
        },
        {
          "duration": 0.15625,
          "durationTicks": 60,
          "midi": 83,
          "name": "B5",
          "ticks": 358440,
          "time": 951.9823423333332,
          "velocity": 0.7874015748031497
        },
        {
          "duration": 0.15625,
          "durationTicks": 60,
          "midi": 74,
          "name": "D5",
          "ticks": 358500,
          "time": 952.1385923333332,
          "velocity": 0.7874015748031497
        },
        {
          "duration": 0.15625,
          "durationTicks": 60,
          "midi": 73,
          "name": "C#5",
          "ticks": 358560,
          "time": 952.2948423333332,
          "velocity": 0.7874015748031497
        },
        {
          "duration": 0.15625,
          "durationTicks": 60,
          "midi": 61,
          "name": "C#4",
          "ticks": 358620,
          "time": 952.4510923333332,
          "velocity": 0.7874015748031497
        },
        {
          "duration": 0.15625,
          "durationTicks": 60,
          "midi": 73,
          "name": "C#5",
          "ticks": 358680,
          "time": 952.6073423333332,
          "velocity": 0.7874015748031497
        },
        {
          "duration": 0.15625,
          "durationTicks": 60,
          "midi": 76,
          "name": "E5",
          "ticks": 358740,
          "time": 952.7635923333332,
          "velocity": 0.7874015748031497
        },
        {
          "duration": 0.15625,
          "durationTicks": 60,
          "midi": 67,
          "name": "G4",
          "ticks": 358800,
          "time": 952.9198423333332,
          "velocity": 0.7874015748031497
        },
        {
          "duration": 0.15625,
          "durationTicks": 60,
          "midi": 55,
          "name": "G3",
          "ticks": 358860,
          "time": 953.0760923333332,
          "velocity": 0.7874015748031497
        },
        {
          "duration": 0.15625,
          "durationTicks": 60,
          "midi": 67,
          "name": "G4",
          "ticks": 358920,
          "time": 953.2323423333332,
          "velocity": 0.7874015748031497
        },
        {
          "duration": 0.15625,
          "durationTicks": 60,
          "midi": 71,
          "name": "B4",
          "ticks": 358980,
          "time": 953.3885923333332,
          "velocity": 0.7874015748031497
        },
        {
          "duration": 0.15625,
          "durationTicks": 60,
          "midi": 69,
          "name": "A4",
          "ticks": 359040,
          "time": 953.5448423333332,
          "velocity": 0.7874015748031497
        },
        {
          "duration": 0.15625,
          "durationTicks": 60,
          "midi": 57,
          "name": "A3",
          "ticks": 359100,
          "time": 953.7010923333332,
          "velocity": 0.7874015748031497
        },
        {
          "duration": 0.15625,
          "durationTicks": 60,
          "midi": 69,
          "name": "A4",
          "ticks": 359160,
          "time": 953.8573423333332,
          "velocity": 0.7874015748031497
        },
        {
          "duration": 0.15625,
          "durationTicks": 60,
          "midi": 67,
          "name": "G4",
          "ticks": 359220,
          "time": 954.0135923333332,
          "velocity": 0.7874015748031497
        },
        {
          "duration": 0.15625,
          "durationTicks": 60,
          "midi": 66,
          "name": "F#4",
          "ticks": 359280,
          "time": 954.1698423333332,
          "velocity": 0.7874015748031497
        },
        {
          "duration": 0.15625,
          "durationTicks": 60,
          "midi": 69,
          "name": "A4",
          "ticks": 359340,
          "time": 954.3260923333332,
          "velocity": 0.7874015748031497
        },
        {
          "duration": 0.15625,
          "durationTicks": 60,
          "midi": 81,
          "name": "A5",
          "ticks": 359400,
          "time": 954.4823423333332,
          "velocity": 0.7874015748031497
        },
        {
          "duration": 0.15625,
          "durationTicks": 60,
          "midi": 79,
          "name": "G5",
          "ticks": 359460,
          "time": 954.6385923333332,
          "velocity": 0.7874015748031497
        },
        {
          "duration": 0.15625,
          "durationTicks": 60,
          "midi": 78,
          "name": "F#5",
          "ticks": 359520,
          "time": 954.7948423333332,
          "velocity": 0.7874015748031497
        },
        {
          "duration": 0.15625,
          "durationTicks": 60,
          "midi": 76,
          "name": "E5",
          "ticks": 359580,
          "time": 954.9510923333332,
          "velocity": 0.7874015748031497
        },
        {
          "duration": 0.15625,
          "durationTicks": 60,
          "midi": 74,
          "name": "D5",
          "ticks": 359640,
          "time": 955.1073423333332,
          "velocity": 0.7874015748031497
        },
        {
          "duration": 0.15625,
          "durationTicks": 60,
          "midi": 72,
          "name": "C5",
          "ticks": 359700,
          "time": 955.2635923333332,
          "velocity": 0.7874015748031497
        },
        {
          "duration": 0.15625,
          "durationTicks": 60,
          "midi": 71,
          "name": "B4",
          "ticks": 359760,
          "time": 955.4198423333332,
          "velocity": 0.7874015748031497
        },
        {
          "duration": 0.15625,
          "durationTicks": 60,
          "midi": 69,
          "name": "A4",
          "ticks": 359820,
          "time": 955.5760923333332,
          "velocity": 0.7874015748031497
        },
        {
          "duration": 0.15625,
          "durationTicks": 60,
          "midi": 67,
          "name": "G4",
          "ticks": 359880,
          "time": 955.7323423333332,
          "velocity": 0.7874015748031497
        },
        {
          "duration": 0.15625,
          "durationTicks": 60,
          "midi": 66,
          "name": "F#4",
          "ticks": 359940,
          "time": 955.8885923333332,
          "velocity": 0.7874015748031497
        },
        {
          "duration": 0.3125,
          "durationTicks": 120,
          "midi": 67,
          "name": "G4",
          "ticks": 360000,
          "time": 956.0448423333332,
          "velocity": 0.7874015748031497
        },
        {
          "duration": 0.15625,
          "durationTicks": 60,
          "midi": 83,
          "name": "B5",
          "ticks": 360120,
          "time": 956.3573423333332,
          "velocity": 0.7874015748031497
        },
        {
          "duration": 0.15625,
          "durationTicks": 60,
          "midi": 81,
          "name": "A5",
          "ticks": 360180,
          "time": 956.5135923333332,
          "velocity": 0.7874015748031497
        },
        {
          "duration": 0.15625,
          "durationTicks": 60,
          "midi": 79,
          "name": "G5",
          "ticks": 360240,
          "time": 956.6698423333332,
          "velocity": 0.7874015748031497
        },
        {
          "duration": 0.15625,
          "durationTicks": 60,
          "midi": 78,
          "name": "F#5",
          "ticks": 360300,
          "time": 956.8260923333332,
          "velocity": 0.7874015748031497
        },
        {
          "duration": 0.15625,
          "durationTicks": 60,
          "midi": 76,
          "name": "E5",
          "ticks": 360360,
          "time": 956.9823423333332,
          "velocity": 0.7874015748031497
        },
        {
          "duration": 0.15625,
          "durationTicks": 60,
          "midi": 74,
          "name": "D5",
          "ticks": 360420,
          "time": 957.1385923333332,
          "velocity": 0.7874015748031497
        },
        {
          "duration": 0.15625,
          "durationTicks": 60,
          "midi": 73,
          "name": "C#5",
          "ticks": 360480,
          "time": 957.2948423333332,
          "velocity": 0.7874015748031497
        },
        {
          "duration": 0.15625,
          "durationTicks": 60,
          "midi": 71,
          "name": "B4",
          "ticks": 360540,
          "time": 957.4510923333332,
          "velocity": 0.7874015748031497
        },
        {
          "duration": 0.15625,
          "durationTicks": 60,
          "midi": 69,
          "name": "A4",
          "ticks": 360600,
          "time": 957.6073423333332,
          "velocity": 0.7874015748031497
        },
        {
          "duration": 0.15625,
          "durationTicks": 60,
          "midi": 67,
          "name": "G4",
          "ticks": 360660,
          "time": 957.7635923333332,
          "velocity": 0.7874015748031497
        },
        {
          "duration": 0.3125,
          "durationTicks": 120,
          "midi": 69,
          "name": "A4",
          "ticks": 360720,
          "time": 957.9198423333332,
          "velocity": 0.7874015748031497
        },
        {
          "duration": 0.15625,
          "durationTicks": 60,
          "midi": 79,
          "name": "G5",
          "ticks": 360840,
          "time": 958.2323423333332,
          "velocity": 0.7874015748031497
        },
        {
          "duration": 0.15625,
          "durationTicks": 60,
          "midi": 78,
          "name": "F#5",
          "ticks": 360900,
          "time": 958.3885923333332,
          "velocity": 0.7874015748031497
        },
        {
          "duration": 0.15625,
          "durationTicks": 60,
          "midi": 76,
          "name": "E5",
          "ticks": 360960,
          "time": 958.5448423333332,
          "velocity": 0.7874015748031497
        },
        {
          "duration": 0.15625,
          "durationTicks": 60,
          "midi": 74,
          "name": "D5",
          "ticks": 361020,
          "time": 958.7010923333332,
          "velocity": 0.7874015748031497
        },
        {
          "duration": 0.15625,
          "durationTicks": 60,
          "midi": 72,
          "name": "C5",
          "ticks": 361080,
          "time": 958.8573423333332,
          "velocity": 0.7874015748031497
        },
        {
          "duration": 0.15625,
          "durationTicks": 60,
          "midi": 71,
          "name": "B4",
          "ticks": 361140,
          "time": 959.0135923333332,
          "velocity": 0.7874015748031497
        },
        {
          "duration": 0.15625,
          "durationTicks": 60,
          "midi": 69,
          "name": "A4",
          "ticks": 361200,
          "time": 959.1698423333332,
          "velocity": 0.7874015748031497
        },
        {
          "duration": 0.15625,
          "durationTicks": 60,
          "midi": 67,
          "name": "G4",
          "ticks": 361260,
          "time": 959.3260923333332,
          "velocity": 0.7874015748031497
        },
        {
          "duration": 0.15625,
          "durationTicks": 60,
          "midi": 66,
          "name": "F#4",
          "ticks": 361320,
          "time": 959.4823423333332,
          "velocity": 0.7874015748031497
        },
        {
          "duration": 0.15625,
          "durationTicks": 60,
          "midi": 64,
          "name": "E4",
          "ticks": 361380,
          "time": 959.6385923333332,
          "velocity": 0.7874015748031497
        },
        {
          "duration": 0.703125,
          "durationTicks": 270,
          "midi": 62,
          "name": "D4",
          "ticks": 361440,
          "time": 959.7948423333332,
          "velocity": 0.7874015748031497
        },
        {
          "duration": 0.078125,
          "durationTicks": 30,
          "midi": 50,
          "name": "D3",
          "ticks": 361710,
          "time": 960.4979673333332,
          "velocity": 0.7874015748031497
        },
        {
          "duration": 0.078125,
          "durationTicks": 30,
          "midi": 52,
          "name": "E3",
          "ticks": 361740,
          "time": 960.5760923333332,
          "velocity": 0.7874015748031497
        },
        {
          "duration": 0.078125,
          "durationTicks": 30,
          "midi": 54,
          "name": "F#3",
          "ticks": 361770,
          "time": 960.6542173333332,
          "velocity": 0.7874015748031497
        },
        {
          "duration": 0.078125,
          "durationTicks": 30,
          "midi": 55,
          "name": "G3",
          "ticks": 361800,
          "time": 960.7323423333332,
          "velocity": 0.7874015748031497
        },
        {
          "duration": 0.078125,
          "durationTicks": 30,
          "midi": 57,
          "name": "A3",
          "ticks": 361830,
          "time": 960.8104673333332,
          "velocity": 0.7874015748031497
        },
        {
          "duration": 0.078125,
          "durationTicks": 30,
          "midi": 59,
          "name": "B3",
          "ticks": 361860,
          "time": 960.8885923333332,
          "velocity": 0.7874015748031497
        },
        {
          "duration": 0.078125,
          "durationTicks": 30,
          "midi": 61,
          "name": "C#4",
          "ticks": 361890,
          "time": 960.9667173333332,
          "velocity": 0.7874015748031497
        },
        {
          "duration": 0.3125,
          "durationTicks": 120,
          "midi": 62,
          "name": "D4",
          "ticks": 361920,
          "time": 961.0448423333332,
          "velocity": 0.7874015748031497
        },
        {
          "duration": 0.15625,
          "durationTicks": 60,
          "midi": 38,
          "name": "D2",
          "ticks": 362220,
          "time": 961.8260923333332,
          "velocity": 0.7874015748031497
        },
        {
          "duration": 0.15625,
          "durationTicks": 60,
          "midi": 50,
          "name": "D3",
          "ticks": 362280,
          "time": 961.9823423333332,
          "velocity": 0.7874015748031497
        },
        {
          "duration": 0.078125,
          "durationTicks": 30,
          "midi": 52,
          "name": "E3",
          "ticks": 362430,
          "time": 962.3729673333332,
          "velocity": 0.7874015748031497
        },
        {
          "duration": 0.078125,
          "durationTicks": 30,
          "midi": 54,
          "name": "F#3",
          "ticks": 362460,
          "time": 962.4510923333332,
          "velocity": 0.7874015748031497
        },
        {
          "duration": 0.078125,
          "durationTicks": 30,
          "midi": 55,
          "name": "G3",
          "ticks": 362490,
          "time": 962.5292173333332,
          "velocity": 0.7874015748031497
        },
        {
          "duration": 0.15625,
          "durationTicks": 60,
          "midi": 57,
          "name": "A3",
          "ticks": 362520,
          "time": 962.6073423333332,
          "velocity": 0.7874015748031497
        },
        {
          "duration": 0.078125,
          "durationTicks": 30,
          "midi": 57,
          "name": "A3",
          "ticks": 362670,
          "time": 962.9979673333332,
          "velocity": 0.7874015748031497
        },
        {
          "duration": 0.078125,
          "durationTicks": 30,
          "midi": 59,
          "name": "B3",
          "ticks": 362700,
          "time": 963.0760923333332,
          "velocity": 0.7874015748031497
        },
        {
          "duration": 0.078125,
          "durationTicks": 30,
          "midi": 60,
          "name": "C4",
          "ticks": 362730,
          "time": 963.1542173333332,
          "velocity": 0.7874015748031497
        },
        {
          "duration": 0.15625,
          "durationTicks": 60,
          "midi": 62,
          "name": "D4",
          "ticks": 362760,
          "time": 963.2323423333332,
          "velocity": 0.7874015748031497
        },
        {
          "duration": 0.15625,
          "durationTicks": 60,
          "midi": 43,
          "name": "G2",
          "ticks": 362940,
          "time": 963.7010923333332,
          "velocity": 0.7874015748031497
        },
        {
          "duration": 0.15625,
          "durationTicks": 60,
          "midi": 55,
          "name": "G3",
          "ticks": 363000,
          "time": 963.8573423333332,
          "velocity": 0.7874015748031497
        },
        {
          "duration": 0.078125,
          "durationTicks": 30,
          "midi": 62,
          "name": "D4",
          "ticks": 363150,
          "time": 964.2479673333332,
          "velocity": 0.7874015748031497
        },
        {
          "duration": 0.078125,
          "durationTicks": 30,
          "midi": 64,
          "name": "E4",
          "ticks": 363180,
          "time": 964.3260923333332,
          "velocity": 0.7874015748031497
        },
        {
          "duration": 0.078125,
          "durationTicks": 30,
          "midi": 66,
          "name": "F#4",
          "ticks": 363210,
          "time": 964.4042173333332,
          "velocity": 0.7874015748031497
        },
        {
          "duration": 0.15625,
          "durationTicks": 60,
          "midi": 67,
          "name": "G4",
          "ticks": 363240,
          "time": 964.4823423333332,
          "velocity": 0.7874015748031497
        },
        {
          "duration": 0.078125,
          "durationTicks": 30,
          "midi": 66,
          "name": "F#4",
          "ticks": 363390,
          "time": 964.8729673333332,
          "velocity": 0.7874015748031497
        },
        {
          "duration": 0.078125,
          "durationTicks": 30,
          "midi": 67,
          "name": "G4",
          "ticks": 363420,
          "time": 964.9510923333332,
          "velocity": 0.7874015748031497
        },
        {
          "duration": 0.078125,
          "durationTicks": 30,
          "midi": 69,
          "name": "A4",
          "ticks": 363450,
          "time": 965.0292173333332,
          "velocity": 0.7874015748031497
        },
        {
          "duration": 0.15625,
          "durationTicks": 60,
          "midi": 71,
          "name": "B4",
          "ticks": 363480,
          "time": 965.1073423333332,
          "velocity": 0.7874015748031497
        },
        {
          "duration": 0.15625,
          "durationTicks": 60,
          "midi": 64,
          "name": "E4",
          "ticks": 363660,
          "time": 965.5760923333332,
          "velocity": 0.7874015748031497
        },
        {
          "duration": 0.15625,
          "durationTicks": 60,
          "midi": 69,
          "name": "A4",
          "ticks": 363660,
          "time": 965.5760923333332,
          "velocity": 0.7874015748031497
        },
        {
          "duration": 0.15625,
          "durationTicks": 60,
          "midi": 64,
          "name": "E4",
          "ticks": 363720,
          "time": 965.7323423333332,
          "velocity": 0.7874015748031497
        },
        {
          "duration": 0.15625,
          "durationTicks": 60,
          "midi": 69,
          "name": "A4",
          "ticks": 363720,
          "time": 965.7323423333332,
          "velocity": 0.7874015748031497
        },
        {
          "duration": 0.078125,
          "durationTicks": 30,
          "midi": 71,
          "name": "B4",
          "ticks": 363870,
          "time": 966.1229673333332,
          "velocity": 0.7874015748031497
        },
        {
          "duration": 0.078125,
          "durationTicks": 30,
          "midi": 72,
          "name": "C5",
          "ticks": 363900,
          "time": 966.2010923333332,
          "velocity": 0.7874015748031497
        },
        {
          "duration": 0.078125,
          "durationTicks": 30,
          "midi": 74,
          "name": "D5",
          "ticks": 363930,
          "time": 966.2792173333332,
          "velocity": 0.7874015748031497
        },
        {
          "duration": 0.15625,
          "durationTicks": 60,
          "midi": 76,
          "name": "E5",
          "ticks": 363960,
          "time": 966.3573423333332,
          "velocity": 0.7874015748031497
        },
        {
          "duration": 0.078125,
          "durationTicks": 30,
          "midi": 76,
          "name": "E5",
          "ticks": 364110,
          "time": 966.7479673333332,
          "velocity": 0.7874015748031497
        },
        {
          "duration": 0.078125,
          "durationTicks": 30,
          "midi": 78,
          "name": "F#5",
          "ticks": 364140,
          "time": 966.8260923333332,
          "velocity": 0.7874015748031497
        },
        {
          "duration": 0.078125,
          "durationTicks": 30,
          "midi": 79,
          "name": "G5",
          "ticks": 364170,
          "time": 966.9042173333332,
          "velocity": 0.7874015748031497
        },
        {
          "duration": 0.15625,
          "durationTicks": 60,
          "midi": 81,
          "name": "A5",
          "ticks": 364200,
          "time": 966.9823423333332,
          "velocity": 0.7874015748031497
        },
        {
          "duration": 0.15625,
          "durationTicks": 60,
          "midi": 81,
          "name": "A5",
          "ticks": 364380,
          "time": 967.4510923333332,
          "velocity": 0.7874015748031497
        },
        {
          "duration": 0.15625,
          "durationTicks": 60,
          "midi": 84,
          "name": "C6",
          "ticks": 364380,
          "time": 967.4510923333332,
          "velocity": 0.7874015748031497
        },
        {
          "duration": 0.15625,
          "durationTicks": 60,
          "midi": 81,
          "name": "A5",
          "ticks": 364440,
          "time": 967.6073423333332,
          "velocity": 0.7874015748031497
        },
        {
          "duration": 0.15625,
          "durationTicks": 60,
          "midi": 84,
          "name": "C6",
          "ticks": 364440,
          "time": 967.6073423333332,
          "velocity": 0.7874015748031497
        },
        {
          "duration": 0.078125,
          "durationTicks": 30,
          "midi": 83,
          "name": "B5",
          "ticks": 364590,
          "time": 967.9979673333332,
          "velocity": 0.7874015748031497
        },
        {
          "duration": 0.078125,
          "durationTicks": 30,
          "midi": 81,
          "name": "A5",
          "ticks": 364620,
          "time": 968.0760923333332,
          "velocity": 0.7874015748031497
        },
        {
          "duration": 0.078125,
          "durationTicks": 30,
          "midi": 79,
          "name": "G5",
          "ticks": 364650,
          "time": 968.1542173333332,
          "velocity": 0.7874015748031497
        },
        {
          "duration": 0.15625,
          "durationTicks": 60,
          "midi": 78,
          "name": "F#5",
          "ticks": 364680,
          "time": 968.2323423333332,
          "velocity": 0.7874015748031497
        },
        {
          "duration": 0.078125,
          "durationTicks": 30,
          "midi": 79,
          "name": "G5",
          "ticks": 364830,
          "time": 968.6229673333332,
          "velocity": 0.7874015748031497
        },
        {
          "duration": 0.078125,
          "durationTicks": 30,
          "midi": 78,
          "name": "F#5",
          "ticks": 364860,
          "time": 968.7010923333332,
          "velocity": 0.7874015748031497
        },
        {
          "duration": 0.078125,
          "durationTicks": 30,
          "midi": 76,
          "name": "E5",
          "ticks": 364890,
          "time": 968.7792173333332,
          "velocity": 0.7874015748031497
        },
        {
          "duration": 0.15625,
          "durationTicks": 60,
          "midi": 75,
          "name": "D#5",
          "ticks": 364920,
          "time": 968.8573423333332,
          "velocity": 0.7874015748031497
        },
        {
          "duration": 0.15625,
          "durationTicks": 60,
          "midi": 76,
          "name": "E5",
          "ticks": 365100,
          "time": 969.3260923333332,
          "velocity": 0.7874015748031497
        },
        {
          "duration": 0.15625,
          "durationTicks": 60,
          "midi": 74,
          "name": "D5",
          "ticks": 365160,
          "time": 969.4823423333332,
          "velocity": 0.7874015748031497
        },
        {
          "duration": 0.15625,
          "durationTicks": 60,
          "midi": 72,
          "name": "C5",
          "ticks": 365220,
          "time": 969.6385923333332,
          "velocity": 0.7874015748031497
        },
        {
          "duration": 0.15625,
          "durationTicks": 60,
          "midi": 71,
          "name": "B4",
          "ticks": 365280,
          "time": 969.7948423333332,
          "velocity": 0.7874015748031497
        },
        {
          "duration": 0.15625,
          "durationTicks": 60,
          "midi": 69,
          "name": "A4",
          "ticks": 365340,
          "time": 969.9510923333332,
          "velocity": 0.7874015748031497
        },
        {
          "duration": 0.15625,
          "durationTicks": 60,
          "midi": 67,
          "name": "G4",
          "ticks": 365400,
          "time": 970.1073423333332,
          "velocity": 0.7874015748031497
        },
        {
          "duration": 0.15625,
          "durationTicks": 60,
          "midi": 66,
          "name": "F#4",
          "ticks": 365460,
          "time": 970.2635923333332,
          "velocity": 0.7874015748031497
        },
        {
          "duration": 0.15625,
          "durationTicks": 60,
          "midi": 64,
          "name": "E4",
          "ticks": 365520,
          "time": 970.4198423333332,
          "velocity": 0.7874015748031497
        },
        {
          "duration": 0.15625,
          "durationTicks": 60,
          "midi": 62,
          "name": "D4",
          "ticks": 365580,
          "time": 970.5760923333332,
          "velocity": 0.7874015748031497
        },
        {
          "duration": 0.15625,
          "durationTicks": 60,
          "midi": 60,
          "name": "C4",
          "ticks": 365640,
          "time": 970.7323423333332,
          "velocity": 0.7874015748031497
        },
        {
          "duration": 0.15625,
          "durationTicks": 60,
          "midi": 59,
          "name": "B3",
          "ticks": 365700,
          "time": 970.8885923333332,
          "velocity": 0.7874015748031497
        },
        {
          "duration": 0.625,
          "durationTicks": 240,
          "midi": 57,
          "name": "A3",
          "ticks": 365760,
          "time": 971.0448423333332,
          "velocity": 0.7874015748031497
        },
        {
          "duration": 0.15625,
          "durationTicks": 60,
          "midi": 56,
          "name": "G#3",
          "ticks": 366060,
          "time": 971.8260923333332,
          "velocity": 0.7874015748031497
        },
        {
          "duration": 0.15625,
          "durationTicks": 60,
          "midi": 57,
          "name": "A3",
          "ticks": 366120,
          "time": 971.9823423333332,
          "velocity": 0.7874015748031497
        },
        {
          "duration": 0.15625,
          "durationTicks": 60,
          "midi": 59,
          "name": "B3",
          "ticks": 366180,
          "time": 972.1385923333332,
          "velocity": 0.7874015748031497
        },
        {
          "duration": 0.15625,
          "durationTicks": 60,
          "midi": 60,
          "name": "C4",
          "ticks": 366240,
          "time": 972.2948423333332,
          "velocity": 0.7874015748031497
        },
        {
          "duration": 0.15625,
          "durationTicks": 60,
          "midi": 61,
          "name": "C#4",
          "ticks": 366300,
          "time": 972.4510923333332,
          "velocity": 0.7874015748031497
        },
        {
          "duration": 0.15625,
          "durationTicks": 60,
          "midi": 62,
          "name": "D4",
          "ticks": 366360,
          "time": 972.6073423333332,
          "velocity": 0.7874015748031497
        },
        {
          "duration": 0.15625,
          "durationTicks": 60,
          "midi": 64,
          "name": "E4",
          "ticks": 366420,
          "time": 972.7635923333332,
          "velocity": 0.7874015748031497
        },
        {
          "duration": 0.15625,
          "durationTicks": 60,
          "midi": 63,
          "name": "D#4",
          "ticks": 366480,
          "time": 972.9198423333332,
          "velocity": 0.7874015748031497
        },
        {
          "duration": 0.15625,
          "durationTicks": 60,
          "midi": 66,
          "name": "F#4",
          "ticks": 366480,
          "time": 972.9198423333332,
          "velocity": 0.7874015748031497
        },
        {
          "duration": 0.15625,
          "durationTicks": 60,
          "midi": 57,
          "name": "A3",
          "ticks": 366660,
          "time": 973.3885923333332,
          "velocity": 0.7874015748031497
        },
        {
          "duration": 0.15625,
          "durationTicks": 60,
          "midi": 55,
          "name": "G3",
          "ticks": 366720,
          "time": 973.5448423333332,
          "velocity": 0.7874015748031497
        },
        {
          "duration": 0.15625,
          "durationTicks": 60,
          "midi": 67,
          "name": "G4",
          "ticks": 366780,
          "time": 973.7010923333332,
          "velocity": 0.7874015748031497
        },
        {
          "duration": 0.15625,
          "durationTicks": 60,
          "midi": 60,
          "name": "C4",
          "ticks": 366840,
          "time": 973.8573423333332,
          "velocity": 0.7874015748031497
        },
        {
          "duration": 0.15625,
          "durationTicks": 60,
          "midi": 64,
          "name": "E4",
          "ticks": 366900,
          "time": 974.0135923333332,
          "velocity": 0.7874015748031497
        },
        {
          "duration": 0.15625,
          "durationTicks": 60,
          "midi": 57,
          "name": "A3",
          "ticks": 366960,
          "time": 974.1698423333332,
          "velocity": 0.7874015748031497
        },
        {
          "duration": 0.15625,
          "durationTicks": 60,
          "midi": 69,
          "name": "A4",
          "ticks": 367020,
          "time": 974.3260923333332,
          "velocity": 0.7874015748031497
        },
        {
          "duration": 0.15625,
          "durationTicks": 60,
          "midi": 59,
          "name": "B3",
          "ticks": 367080,
          "time": 974.4823423333332,
          "velocity": 0.7874015748031497
        },
        {
          "duration": 0.15625,
          "durationTicks": 60,
          "midi": 66,
          "name": "F#4",
          "ticks": 367140,
          "time": 974.6385923333332,
          "velocity": 0.7874015748031497
        },
        {
          "duration": 0.390625,
          "durationTicks": 150,
          "midi": 52,
          "name": "E3",
          "ticks": 367200,
          "time": 974.7948423333332,
          "velocity": 0.7874015748031497
        },
        {
          "duration": 0.078125,
          "durationTicks": 30,
          "midi": 69,
          "name": "A4",
          "ticks": 367350,
          "time": 975.1854673333332,
          "velocity": 0.7874015748031497
        },
        {
          "duration": 0.078125,
          "durationTicks": 30,
          "midi": 67,
          "name": "G4",
          "ticks": 367380,
          "time": 975.2635923333332,
          "velocity": 0.7874015748031497
        },
        {
          "duration": 0.078125,
          "durationTicks": 30,
          "midi": 66,
          "name": "F#4",
          "ticks": 367410,
          "time": 975.3417173333332,
          "velocity": 0.7874015748031497
        },
        {
          "duration": 0.390625,
          "durationTicks": 150,
          "midi": 67,
          "name": "G4",
          "ticks": 367440,
          "time": 975.4198423333332,
          "velocity": 0.7874015748031497
        },
        {
          "duration": 0.078125,
          "durationTicks": 30,
          "midi": 60,
          "name": "C4",
          "ticks": 367590,
          "time": 975.8104673333332,
          "velocity": 0.7874015748031497
        },
        {
          "duration": 0.078125,
          "durationTicks": 30,
          "midi": 59,
          "name": "B3",
          "ticks": 367620,
          "time": 975.8885923333332,
          "velocity": 0.7874015748031497
        },
        {
          "duration": 0.078125,
          "durationTicks": 30,
          "midi": 57,
          "name": "A3",
          "ticks": 367650,
          "time": 975.9667173333332,
          "velocity": 0.7874015748031497
        },
        {
          "duration": 0.390625,
          "durationTicks": 150,
          "midi": 59,
          "name": "B3",
          "ticks": 367680,
          "time": 976.0448423333332,
          "velocity": 0.7874015748031497
        },
        {
          "duration": 0.078125,
          "durationTicks": 30,
          "midi": 53,
          "name": "F3",
          "ticks": 367830,
          "time": 976.4354673333332,
          "velocity": 0.7874015748031497
        },
        {
          "duration": 0.078125,
          "durationTicks": 30,
          "midi": 52,
          "name": "E3",
          "ticks": 367860,
          "time": 976.5135923333332,
          "velocity": 0.7874015748031497
        },
        {
          "duration": 0.078125,
          "durationTicks": 30,
          "midi": 50,
          "name": "D3",
          "ticks": 367890,
          "time": 976.5917173333332,
          "velocity": 0.7874015748031497
        },
        {
          "duration": 0.625,
          "durationTicks": 240,
          "midi": 74,
          "name": "D5",
          "ticks": 372240,
          "time": 987.9198423333332,
          "velocity": 0.7874015748031497
        },
        {
          "duration": 0.15625,
          "durationTicks": 60,
          "midi": 64,
          "name": "E4",
          "ticks": 372540,
          "time": 988.7010923333332,
          "velocity": 0.7874015748031497
        },
        {
          "duration": 0.15625,
          "durationTicks": 60,
          "midi": 62,
          "name": "D4",
          "ticks": 372600,
          "time": 988.8573423333332,
          "velocity": 0.7874015748031497
        },
        {
          "duration": 0.15625,
          "durationTicks": 60,
          "midi": 60,
          "name": "C4",
          "ticks": 372660,
          "time": 989.0135923333332,
          "velocity": 0.7874015748031497
        },
        {
          "duration": 0.15625,
          "durationTicks": 60,
          "midi": 59,
          "name": "B3",
          "ticks": 372720,
          "time": 989.1698423333332,
          "velocity": 0.7874015748031497
        },
        {
          "duration": 0.15625,
          "durationTicks": 60,
          "midi": 57,
          "name": "A3",
          "ticks": 372780,
          "time": 989.3260923333332,
          "velocity": 0.7874015748031497
        },
        {
          "duration": 0.15625,
          "durationTicks": 60,
          "midi": 55,
          "name": "G3",
          "ticks": 372840,
          "time": 989.4823423333332,
          "velocity": 0.7874015748031497
        },
        {
          "duration": 0.15625,
          "durationTicks": 60,
          "midi": 54,
          "name": "F#3",
          "ticks": 372900,
          "time": 989.6385923333332,
          "velocity": 0.7874015748031497
        },
        {
          "duration": 2.5,
          "durationTicks": 240,
          "midi": 31,
          "name": "G1",
          "ticks": 374400,
          "time": 995.4198423333332,
          "velocity": 0.7874015748031497
        },
        {
          "duration": 2.5,
          "durationTicks": 240,
          "midi": 38,
          "name": "D2",
          "ticks": 374400,
          "time": 995.4198423333332,
          "velocity": 0.7874015748031497
        },
        {
          "duration": 2.5,
          "durationTicks": 240,
          "midi": 55,
          "name": "G3",
          "ticks": 374400,
          "time": 995.4198423333332,
          "velocity": 0.7874015748031497
        },
        {
          "duration": 1.25,
          "durationTicks": 120,
          "midi": 55,
          "name": "G3",
          "ticks": 374760,
          "time": 999.1698423333332,
          "velocity": 0.7874015748031497
        },
        {
          "duration": 1.25,
          "durationTicks": 120,
          "midi": 55,
          "name": "G3",
          "ticks": 374880,
          "time": 1000.4198423333332,
          "velocity": 0.7874015748031497
        },
        {
          "duration": 1.25,
          "durationTicks": 120,
          "midi": 55,
          "name": "G3",
          "ticks": 375000,
          "time": 1001.6698423333332,
          "velocity": 0.7874015748031497
        },
        {
          "duration": 1.25,
          "durationTicks": 120,
          "midi": 55,
          "name": "G3",
          "ticks": 375120,
          "time": 1002.9198423333332,
          "velocity": 0.7874015748031497
        },
        {
          "duration": 1.25,
          "durationTicks": 120,
          "midi": 54,
          "name": "F#3",
          "ticks": 375240,
          "time": 1004.1698423333332,
          "velocity": 0.7874015748031497
        },
        {
          "duration": 1.25,
          "durationTicks": 120,
          "midi": 53,
          "name": "F3",
          "ticks": 375480,
          "time": 1006.6698423333332,
          "velocity": 0.7874015748031497
        },
        {
          "duration": 1.25,
          "durationTicks": 120,
          "midi": 53,
          "name": "F3",
          "ticks": 375600,
          "time": 1007.9198423333332,
          "velocity": 0.7874015748031497
        },
        {
          "duration": 1.25,
          "durationTicks": 120,
          "midi": 53,
          "name": "F3",
          "ticks": 375720,
          "time": 1009.1698423333332,
          "velocity": 0.7874015748031497
        },
        {
          "duration": 1.25,
          "durationTicks": 120,
          "midi": 53,
          "name": "F3",
          "ticks": 375840,
          "time": 1010.4198423333332,
          "velocity": 0.7874015748031497
        },
        {
          "duration": 1.25,
          "durationTicks": 120,
          "midi": 52,
          "name": "E3",
          "ticks": 375960,
          "time": 1011.6698423333332,
          "velocity": 0.7874015748031497
        },
        {
          "duration": 1.25,
          "durationTicks": 120,
          "midi": 51,
          "name": "D#3",
          "ticks": 376200,
          "time": 1014.1698423333332,
          "velocity": 0.7874015748031497
        },
        {
          "duration": 1.25,
          "durationTicks": 120,
          "midi": 51,
          "name": "D#3",
          "ticks": 376320,
          "time": 1015.4198423333332,
          "velocity": 0.7874015748031497
        },
        {
          "duration": 1.25,
          "durationTicks": 120,
          "midi": 51,
          "name": "D#3",
          "ticks": 376440,
          "time": 1016.6698423333332,
          "velocity": 0.7874015748031497
        },
        {
          "duration": 2.5,
          "durationTicks": 240,
          "midi": 50,
          "name": "D3",
          "ticks": 376560,
          "time": 1017.9198423333332,
          "velocity": 0.7874015748031497
        },
        {
          "duration": 1.25,
          "durationTicks": 120,
          "midi": 51,
          "name": "D#3",
          "ticks": 376920,
          "time": 1021.6698423333332,
          "velocity": 0.7874015748031497
        },
        {
          "duration": 1.25,
          "durationTicks": 120,
          "midi": 50,
          "name": "D3",
          "ticks": 377040,
          "time": 1022.9198423333332,
          "velocity": 0.7874015748031497
        },
        {
          "duration": 1.25,
          "durationTicks": 120,
          "midi": 48,
          "name": "C3",
          "ticks": 377160,
          "time": 1024.1698423333332,
          "velocity": 0.7874015748031497
        },
        {
          "duration": 2.5,
          "durationTicks": 240,
          "midi": 46,
          "name": "A#2",
          "ticks": 377280,
          "time": 1025.4198423333332,
          "velocity": 0.7874015748031497
        },
        {
          "duration": 1.25,
          "durationTicks": 120,
          "midi": 46,
          "name": "A#2",
          "ticks": 377640,
          "time": 1029.1698423333332,
          "velocity": 0.7874015748031497
        },
        {
          "duration": 1.25,
          "durationTicks": 120,
          "midi": 47,
          "name": "B2",
          "ticks": 377760,
          "time": 1030.4198423333332,
          "velocity": 0.7874015748031497
        },
        {
          "duration": 1.25,
          "durationTicks": 120,
          "midi": 47,
          "name": "B2",
          "ticks": 377880,
          "time": 1031.6698423333332,
          "velocity": 0.7874015748031497
        },
        {
          "duration": 1.25,
          "durationTicks": 120,
          "midi": 47,
          "name": "B2",
          "ticks": 378000,
          "time": 1032.9198423333332,
          "velocity": 0.7874015748031497
        },
        {
          "duration": 1.25,
          "durationTicks": 120,
          "midi": 48,
          "name": "C3",
          "ticks": 378120,
          "time": 1034.1698423333332,
          "velocity": 0.7874015748031497
        },
        {
          "duration": 1.25,
          "durationTicks": 120,
          "midi": 48,
          "name": "C3",
          "ticks": 378360,
          "time": 1036.6698423333332,
          "velocity": 0.7874015748031497
        },
        {
          "duration": 1.25,
          "durationTicks": 120,
          "midi": 49,
          "name": "C#3",
          "ticks": 378480,
          "time": 1037.9198423333332,
          "velocity": 0.7874015748031497
        },
        {
          "duration": 1.25,
          "durationTicks": 120,
          "midi": 49,
          "name": "C#3",
          "ticks": 378600,
          "time": 1039.1698423333332,
          "velocity": 0.7874015748031497
        },
        {
          "duration": 1.25,
          "durationTicks": 120,
          "midi": 49,
          "name": "C#3",
          "ticks": 378720,
          "time": 1040.4198423333332,
          "velocity": 0.7874015748031497
        },
        {
          "duration": 1.25,
          "durationTicks": 120,
          "midi": 50,
          "name": "D3",
          "ticks": 378840,
          "time": 1041.6698423333332,
          "velocity": 0.7874015748031497
        },
        {
          "duration": 1.25,
          "durationTicks": 120,
          "midi": 50,
          "name": "D3",
          "ticks": 379080,
          "time": 1044.1698423333332,
          "velocity": 0.7874015748031497
        },
        {
          "duration": 1.25,
          "durationTicks": 120,
          "midi": 50,
          "name": "D3",
          "ticks": 379200,
          "time": 1045.4198423333332,
          "velocity": 0.7874015748031497
        },
        {
          "duration": 1.25,
          "durationTicks": 120,
          "midi": 50,
          "name": "D3",
          "ticks": 379320,
          "time": 1046.6698423333332,
          "velocity": 0.7874015748031497
        },
        {
          "duration": 2.5,
          "durationTicks": 240,
          "midi": 43,
          "name": "G2",
          "ticks": 379440,
          "time": 1047.9198423333332,
          "velocity": 0.7874015748031497
        },
        {
          "duration": 1.25,
          "durationTicks": 120,
          "midi": 43,
          "name": "G2",
          "ticks": 379800,
          "time": 1051.6698423333332,
          "velocity": 0.7874015748031497
        },
        {
          "duration": 1.25,
          "durationTicks": 120,
          "midi": 46,
          "name": "A#2",
          "ticks": 379920,
          "time": 1052.9198423333332,
          "velocity": 0.7874015748031497
        },
        {
          "duration": 1.25,
          "durationTicks": 120,
          "midi": 50,
          "name": "D3",
          "ticks": 380040,
          "time": 1054.1698423333332,
          "velocity": 0.7874015748031497
        },
        {
          "duration": 1.875,
          "durationTicks": 180,
          "midi": 55,
          "name": "G3",
          "ticks": 380160,
          "time": 1055.4198423333332,
          "velocity": 0.7874015748031497
        },
        {
          "duration": 0.625,
          "durationTicks": 60,
          "midi": 62,
          "name": "D4",
          "ticks": 380340,
          "time": 1057.2948423333332,
          "velocity": 0.7874015748031497
        },
        {
          "duration": 1.25,
          "durationTicks": 120,
          "midi": 67,
          "name": "G4",
          "ticks": 380400,
          "time": 1057.9198423333332,
          "velocity": 0.7874015748031497
        },
        {
          "duration": 1.25,
          "durationTicks": 120,
          "midi": 65,
          "name": "F4",
          "ticks": 380520,
          "time": 1059.1698423333332,
          "velocity": 0.7874015748031497
        },
        {
          "duration": 1.25,
          "durationTicks": 120,
          "midi": 63,
          "name": "D#4",
          "ticks": 380640,
          "time": 1060.4198423333332,
          "velocity": 0.7874015748031497
        },
        {
          "duration": 1.25,
          "durationTicks": 120,
          "midi": 62,
          "name": "D4",
          "ticks": 380760,
          "time": 1061.6698423333332,
          "velocity": 0.7874015748031497
        },
        {
          "duration": 1.25,
          "durationTicks": 120,
          "midi": 61,
          "name": "C#4",
          "ticks": 380880,
          "time": 1062.9198423333332,
          "velocity": 0.7874015748031497
        },
        {
          "duration": 1.25,
          "durationTicks": 120,
          "midi": 57,
          "name": "A3",
          "ticks": 381000,
          "time": 1064.1698423333332,
          "velocity": 0.7874015748031497
        },
        {
          "duration": 1.25,
          "durationTicks": 120,
          "midi": 62,
          "name": "D4",
          "ticks": 381120,
          "time": 1065.4198423333332,
          "velocity": 0.7874015748031497
        },
        {
          "duration": 1.25,
          "durationTicks": 120,
          "midi": 60,
          "name": "C4",
          "ticks": 381240,
          "time": 1066.6698423333332,
          "velocity": 0.7874015748031497
        },
        {
          "duration": 1.25,
          "durationTicks": 120,
          "midi": 58,
          "name": "A#3",
          "ticks": 381360,
          "time": 1067.9198423333332,
          "velocity": 0.7874015748031497
        },
        {
          "duration": 1.25,
          "durationTicks": 120,
          "midi": 57,
          "name": "A3",
          "ticks": 381480,
          "time": 1069.1698423333332,
          "velocity": 0.7874015748031497
        },
        {
          "duration": 1.25,
          "durationTicks": 120,
          "midi": 55,
          "name": "G3",
          "ticks": 381600,
          "time": 1070.4198423333332,
          "velocity": 0.7874015748031497
        },
        {
          "duration": 1.25,
          "durationTicks": 120,
          "midi": 60,
          "name": "C4",
          "ticks": 381720,
          "time": 1071.6698423333332,
          "velocity": 0.7874015748031497
        },
        {
          "duration": 1.25,
          "durationTicks": 120,
          "midi": 53,
          "name": "F3",
          "ticks": 381840,
          "time": 1072.9198423333332,
          "velocity": 0.7874015748031497
        },
        {
          "duration": 1.25,
          "durationTicks": 120,
          "midi": 54,
          "name": "F#3",
          "ticks": 381960,
          "time": 1074.1698423333332,
          "velocity": 0.7874015748031497
        },
        {
          "duration": 1.25,
          "durationTicks": 120,
          "midi": 55,
          "name": "G3",
          "ticks": 382080,
          "time": 1075.4198423333332,
          "velocity": 0.7874015748031497
        },
        {
          "duration": 1.25,
          "durationTicks": 120,
          "midi": 56,
          "name": "G#3",
          "ticks": 382200,
          "time": 1076.6698423333332,
          "velocity": 0.7874015748031497
        },
        {
          "duration": 1.25,
          "durationTicks": 120,
          "midi": 57,
          "name": "A3",
          "ticks": 382320,
          "time": 1077.9198423333332,
          "velocity": 0.7874015748031497
        },
        {
          "duration": 1.25,
          "durationTicks": 120,
          "midi": 58,
          "name": "A#3",
          "ticks": 382440,
          "time": 1079.1698423333332,
          "velocity": 0.7874015748031497
        },
        {
          "duration": 1.25,
          "durationTicks": 120,
          "midi": 57,
          "name": "A3",
          "ticks": 382560,
          "time": 1080.4198423333332,
          "velocity": 0.7874015748031497
        },
        {
          "duration": 1.25,
          "durationTicks": 120,
          "midi": 55,
          "name": "G3",
          "ticks": 382680,
          "time": 1081.6698423333332,
          "velocity": 0.7874015748031497
        },
        {
          "duration": 1.25,
          "durationTicks": 120,
          "midi": 53,
          "name": "F3",
          "ticks": 382800,
          "time": 1082.9198423333332,
          "velocity": 0.7874015748031497
        },
        {
          "duration": 1.25,
          "durationTicks": 120,
          "midi": 52,
          "name": "E3",
          "ticks": 382920,
          "time": 1084.1698423333332,
          "velocity": 0.7874015748031497
        },
        {
          "duration": 2.5,
          "durationTicks": 240,
          "midi": 53,
          "name": "F3",
          "ticks": 383040,
          "time": 1085.4198423333332,
          "velocity": 0.7874015748031497
        },
        {
          "duration": 1.25,
          "durationTicks": 120,
          "midi": 54,
          "name": "F#3",
          "ticks": 383400,
          "time": 1089.1698423333332,
          "velocity": 0.7874015748031497
        },
        {
          "duration": 1.25,
          "durationTicks": 120,
          "midi": 54,
          "name": "F#3",
          "ticks": 383520,
          "time": 1090.4198423333332,
          "velocity": 0.7874015748031497
        },
        {
          "duration": 1.25,
          "durationTicks": 120,
          "midi": 55,
          "name": "G3",
          "ticks": 383640,
          "time": 1091.6698423333332,
          "velocity": 0.7874015748031497
        },
        {
          "duration": 2.5,
          "durationTicks": 240,
          "midi": 55,
          "name": "G3",
          "ticks": 383760,
          "time": 1092.9198423333332,
          "velocity": 0.7874015748031497
        },
        {
          "duration": 1.25,
          "durationTicks": 120,
          "midi": 56,
          "name": "G#3",
          "ticks": 384120,
          "time": 1096.6698423333332,
          "velocity": 0.7874015748031497
        },
        {
          "duration": 1.25,
          "durationTicks": 120,
          "midi": 56,
          "name": "G#3",
          "ticks": 384240,
          "time": 1097.9198423333332,
          "velocity": 0.7874015748031497
        },
        {
          "duration": 1.25,
          "durationTicks": 120,
          "midi": 57,
          "name": "A3",
          "ticks": 384360,
          "time": 1099.1698423333332,
          "velocity": 0.7874015748031497
        },
        {
          "duration": 2.5,
          "durationTicks": 240,
          "midi": 57,
          "name": "A3",
          "ticks": 384480,
          "time": 1100.4198423333332,
          "velocity": 0.7874015748031497
        },
        {
          "duration": 1.25,
          "durationTicks": 120,
          "midi": 57,
          "name": "A3",
          "ticks": 384840,
          "time": 1104.1698423333332,
          "velocity": 0.7874015748031497
        },
        {
          "duration": 1.25,
          "durationTicks": 120,
          "midi": 61,
          "name": "C#4",
          "ticks": 384960,
          "time": 1105.4198423333332,
          "velocity": 0.7874015748031497
        },
        {
          "duration": 1.25,
          "durationTicks": 120,
          "midi": 57,
          "name": "A3",
          "ticks": 385080,
          "time": 1106.6698423333332,
          "velocity": 0.7874015748031497
        },
        {
          "duration": 3.75,
          "durationTicks": 360,
          "midi": 62,
          "name": "D4",
          "ticks": 385200,
          "time": 1107.9198423333332,
          "velocity": 0.7874015748031497
        },
        {
          "duration": 1.25,
          "durationTicks": 120,
          "midi": 60,
          "name": "C4",
          "ticks": 385560,
          "time": 1111.6698423333332,
          "velocity": 0.7874015748031497
        },
        {
          "duration": 1.25,
          "durationTicks": 120,
          "midi": 58,
          "name": "A#3",
          "ticks": 385680,
          "time": 1112.9198423333332,
          "velocity": 0.7874015748031497
        },
        {
          "duration": 1.25,
          "durationTicks": 120,
          "midi": 57,
          "name": "A3",
          "ticks": 385800,
          "time": 1114.1698423333332,
          "velocity": 0.7874015748031497
        },
        {
          "duration": 2.5,
          "durationTicks": 240,
          "midi": 62,
          "name": "D4",
          "ticks": 385920,
          "time": 1115.4198423333332,
          "velocity": 0.7874015748031497
        },
        {
          "duration": 1.25,
          "durationTicks": 120,
          "midi": 60,
          "name": "C4",
          "ticks": 386280,
          "time": 1119.1698423333332,
          "velocity": 0.7874015748031497
        },
        {
          "duration": 1.25,
          "durationTicks": 120,
          "midi": 60,
          "name": "C4",
          "ticks": 386400,
          "time": 1120.4198423333332,
          "velocity": 0.7874015748031497
        },
        {
          "duration": 1.25,
          "durationTicks": 120,
          "midi": 58,
          "name": "A#3",
          "ticks": 386520,
          "time": 1121.6698423333332,
          "velocity": 0.7874015748031497
        },
        {
          "duration": 1.25,
          "durationTicks": 120,
          "midi": 58,
          "name": "A#3",
          "ticks": 386640,
          "time": 1122.9198423333332,
          "velocity": 0.7874015748031497
        },
        {
          "duration": 0.625,
          "durationTicks": 60,
          "midi": 55,
          "name": "G3",
          "ticks": 386760,
          "time": 1124.1698423333332,
          "velocity": 0.7874015748031497
        },
        {
          "duration": 0.625,
          "durationTicks": 60,
          "midi": 57,
          "name": "A3",
          "ticks": 386820,
          "time": 1124.7948423333332,
          "velocity": 0.7874015748031497
        },
        {
          "duration": 1.25,
          "durationTicks": 120,
          "midi": 58,
          "name": "A#3",
          "ticks": 386880,
          "time": 1125.4198423333332,
          "velocity": 0.7874015748031497
        },
        {
          "duration": 1.25,
          "durationTicks": 120,
          "midi": 59,
          "name": "B3",
          "ticks": 387000,
          "time": 1126.6698423333332,
          "velocity": 0.7874015748031497
        },
        {
          "duration": 1.25,
          "durationTicks": 120,
          "midi": 59,
          "name": "B3",
          "ticks": 387120,
          "time": 1127.9198423333332,
          "velocity": 0.7874015748031497
        },
        {
          "duration": 1.25,
          "durationTicks": 120,
          "midi": 60,
          "name": "C4",
          "ticks": 387240,
          "time": 1129.1698423333332,
          "velocity": 0.7874015748031497
        },
        {
          "duration": 2.5,
          "durationTicks": 240,
          "midi": 60,
          "name": "C4",
          "ticks": 387360,
          "time": 1130.4198423333332,
          "velocity": 0.7874015748031497
        },
        {
          "duration": 1.25,
          "durationTicks": 120,
          "midi": 55,
          "name": "G3",
          "ticks": 387720,
          "time": 1134.1698423333332,
          "velocity": 0.7874015748031497
        },
        {
          "duration": 1.25,
          "durationTicks": 120,
          "midi": 56,
          "name": "G#3",
          "ticks": 387840,
          "time": 1135.4198423333332,
          "velocity": 0.7874015748031497
        },
        {
          "duration": 1.25,
          "durationTicks": 120,
          "midi": 57,
          "name": "A3",
          "ticks": 387960,
          "time": 1136.6698423333332,
          "velocity": 0.7874015748031497
        },
        {
          "duration": 2.5,
          "durationTicks": 240,
          "midi": 58,
          "name": "A#3",
          "ticks": 388080,
          "time": 1137.9198423333332,
          "velocity": 0.7874015748031497
        },
        {
          "duration": 1.25,
          "durationTicks": 120,
          "midi": 59,
          "name": "B3",
          "ticks": 388440,
          "time": 1141.6698423333332,
          "velocity": 0.7874015748031497
        },
        {
          "duration": 1.25,
          "durationTicks": 120,
          "midi": 58,
          "name": "A#3",
          "ticks": 388560,
          "time": 1142.9198423333332,
          "velocity": 0.7874015748031497
        },
        {
          "duration": 1.25,
          "durationTicks": 120,
          "midi": 56,
          "name": "G#3",
          "ticks": 388680,
          "time": 1144.1698423333332,
          "velocity": 0.7874015748031497
        },
        {
          "duration": 2.5,
          "durationTicks": 240,
          "midi": 54,
          "name": "F#3",
          "ticks": 388800,
          "time": 1145.4198423333332,
          "velocity": 0.7874015748031497
        },
        {
          "duration": 1.25,
          "durationTicks": 120,
          "midi": 55,
          "name": "G3",
          "ticks": 389160,
          "time": 1149.1698423333332,
          "velocity": 0.7874015748031497
        },
        {
          "duration": 1.25,
          "durationTicks": 120,
          "midi": 55,
          "name": "G3",
          "ticks": 389280,
          "time": 1150.4198423333332,
          "velocity": 0.7874015748031497
        },
        {
          "duration": 1.25,
          "durationTicks": 120,
          "midi": 56,
          "name": "G#3",
          "ticks": 389400,
          "time": 1151.6698423333332,
          "velocity": 0.7874015748031497
        },
        {
          "duration": 2.5,
          "durationTicks": 240,
          "midi": 56,
          "name": "G#3",
          "ticks": 389520,
          "time": 1152.9198423333332,
          "velocity": 0.7874015748031497
        },
        {
          "duration": 1.25,
          "durationTicks": 120,
          "midi": 57,
          "name": "A3",
          "ticks": 389880,
          "time": 1156.6698423333332,
          "velocity": 0.7874015748031497
        },
        {
          "duration": 1.25,
          "durationTicks": 120,
          "midi": 57,
          "name": "A3",
          "ticks": 390000,
          "time": 1157.9198423333332,
          "velocity": 0.7874015748031497
        },
        {
          "duration": 1.25,
          "durationTicks": 120,
          "midi": 58,
          "name": "A#3",
          "ticks": 390120,
          "time": 1159.1698423333332,
          "velocity": 0.7874015748031497
        },
        {
          "duration": 2.5,
          "durationTicks": 240,
          "midi": 58,
          "name": "A#3",
          "ticks": 390240,
          "time": 1160.4198423333332,
          "velocity": 0.7874015748031497
        },
        {
          "duration": 1.25,
          "durationTicks": 120,
          "midi": 58,
          "name": "A#3",
          "ticks": 390600,
          "time": 1164.1698423333332,
          "velocity": 0.7874015748031497
        },
        {
          "duration": 1.25,
          "durationTicks": 120,
          "midi": 62,
          "name": "D4",
          "ticks": 390720,
          "time": 1165.4198423333332,
          "velocity": 0.7874015748031497
        },
        {
          "duration": 1.25,
          "durationTicks": 120,
          "midi": 58,
          "name": "A#3",
          "ticks": 390840,
          "time": 1166.6698423333332,
          "velocity": 0.7874015748031497
        },
        {
          "duration": 2.5,
          "durationTicks": 240,
          "midi": 63,
          "name": "D#4",
          "ticks": 390960,
          "time": 1167.9198423333332,
          "velocity": 0.7874015748031497
        },
        {
          "duration": 1.25,
          "durationTicks": 120,
          "midi": 65,
          "name": "F4",
          "ticks": 391320,
          "time": 1171.6698423333332,
          "velocity": 0.7874015748031497
        },
        {
          "duration": 1.25,
          "durationTicks": 120,
          "midi": 63,
          "name": "D#4",
          "ticks": 391440,
          "time": 1172.9198423333332,
          "velocity": 0.7874015748031497
        },
        {
          "duration": 1.25,
          "durationTicks": 120,
          "midi": 62,
          "name": "D4",
          "ticks": 391560,
          "time": 1174.1698423333332,
          "velocity": 0.7874015748031497
        },
        {
          "duration": 2.5,
          "durationTicks": 240,
          "midi": 60,
          "name": "C4",
          "ticks": 391680,
          "time": 1175.4198423333332,
          "velocity": 0.7874015748031497
        },
        {
          "duration": 1.25,
          "durationTicks": 120,
          "midi": 60,
          "name": "C4",
          "ticks": 392040,
          "time": 1179.1698423333332,
          "velocity": 0.7874015748031497
        },
        {
          "duration": 1.25,
          "durationTicks": 120,
          "midi": 60,
          "name": "C4",
          "ticks": 392160,
          "time": 1180.4198423333332,
          "velocity": 0.7874015748031497
        },
        {
          "duration": 1.25,
          "durationTicks": 120,
          "midi": 60,
          "name": "C4",
          "ticks": 392280,
          "time": 1181.6698423333332,
          "velocity": 0.7874015748031497
        },
        {
          "duration": 1.25,
          "durationTicks": 120,
          "midi": 60,
          "name": "C4",
          "ticks": 392400,
          "time": 1182.9198423333332,
          "velocity": 0.7874015748031497
        },
        {
          "duration": 1.25,
          "durationTicks": 120,
          "midi": 59,
          "name": "B3",
          "ticks": 392520,
          "time": 1184.1698423333332,
          "velocity": 0.7874015748031497
        },
        {
          "duration": 1.25,
          "durationTicks": 120,
          "midi": 58,
          "name": "A#3",
          "ticks": 392760,
          "time": 1186.6698423333332,
          "velocity": 0.7874015748031497
        },
        {
          "duration": 1.25,
          "durationTicks": 120,
          "midi": 58,
          "name": "A#3",
          "ticks": 392880,
          "time": 1187.9198423333332,
          "velocity": 0.7874015748031497
        },
        {
          "duration": 1.25,
          "durationTicks": 120,
          "midi": 58,
          "name": "A#3",
          "ticks": 393000,
          "time": 1189.1698423333332,
          "velocity": 0.7874015748031497
        },
        {
          "duration": 1.25,
          "durationTicks": 120,
          "midi": 58,
          "name": "A#3",
          "ticks": 393120,
          "time": 1190.4198423333332,
          "velocity": 0.7874015748031497
        },
        {
          "duration": 1.25,
          "durationTicks": 120,
          "midi": 57,
          "name": "A3",
          "ticks": 393240,
          "time": 1191.6698423333332,
          "velocity": 0.7874015748031497
        },
        {
          "duration": 1.25,
          "durationTicks": 120,
          "midi": 56,
          "name": "G#3",
          "ticks": 393480,
          "time": 1194.1698423333332,
          "velocity": 0.7874015748031497
        },
        {
          "duration": 1.25,
          "durationTicks": 120,
          "midi": 56,
          "name": "G#3",
          "ticks": 393600,
          "time": 1195.4198423333332,
          "velocity": 0.7874015748031497
        },
        {
          "duration": 1.25,
          "durationTicks": 120,
          "midi": 55,
          "name": "G3",
          "ticks": 393720,
          "time": 1196.6698423333332,
          "velocity": 0.7874015748031497
        },
        {
          "duration": 1.25,
          "durationTicks": 120,
          "midi": 55,
          "name": "G3",
          "ticks": 393840,
          "time": 1197.9198423333332,
          "velocity": 0.7874015748031497
        },
        {
          "duration": 1.25,
          "durationTicks": 120,
          "midi": 54,
          "name": "F#3",
          "ticks": 393960,
          "time": 1199.1698423333332,
          "velocity": 0.7874015748031497
        },
        {
          "duration": 1.25,
          "durationTicks": 120,
          "midi": 54,
          "name": "F#3",
          "ticks": 394200,
          "time": 1201.6698423333332,
          "velocity": 0.7874015748031497
        },
        {
          "duration": 1.25,
          "durationTicks": 120,
          "midi": 55,
          "name": "G3",
          "ticks": 394320,
          "time": 1202.9198423333332,
          "velocity": 0.7874015748031497
        },
        {
          "duration": 1.25,
          "durationTicks": 120,
          "midi": 48,
          "name": "C3",
          "ticks": 394440,
          "time": 1204.1698423333332,
          "velocity": 0.7874015748031497
        },
        {
          "duration": 2.5,
          "durationTicks": 240,
          "midi": 46,
          "name": "A#2",
          "ticks": 394560,
          "time": 1205.4198423333332,
          "velocity": 0.7874015748031497
        },
        {
          "duration": 1.25,
          "durationTicks": 120,
          "midi": 46,
          "name": "A#2",
          "ticks": 394920,
          "time": 1209.1698423333332,
          "velocity": 0.7874015748031497
        },
        {
          "duration": 1.25,
          "durationTicks": 120,
          "midi": 46,
          "name": "A#2",
          "ticks": 395040,
          "time": 1210.4198423333332,
          "velocity": 0.7874015748031497
        },
        {
          "duration": 1.25,
          "durationTicks": 120,
          "midi": 47,
          "name": "B2",
          "ticks": 395160,
          "time": 1211.6698423333332,
          "velocity": 0.7874015748031497
        },
        {
          "duration": 0.625,
          "durationTicks": 60,
          "midi": 47,
          "name": "B2",
          "ticks": 395280,
          "time": 1212.9198423333332,
          "velocity": 0.7874015748031497
        },
        {
          "duration": 0.625,
          "durationTicks": 60,
          "midi": 50,
          "name": "D3",
          "ticks": 395340,
          "time": 1213.5448423333332,
          "velocity": 0.7874015748031497
        },
        {
          "duration": 1.25,
          "durationTicks": 120,
          "midi": 48,
          "name": "C3",
          "ticks": 395400,
          "time": 1214.1698423333332,
          "velocity": 0.7874015748031497
        },
        {
          "duration": 1.25,
          "durationTicks": 120,
          "midi": 48,
          "name": "C3",
          "ticks": 395640,
          "time": 1216.6698423333332,
          "velocity": 0.7874015748031497
        },
        {
          "duration": 1.25,
          "durationTicks": 120,
          "midi": 48,
          "name": "C3",
          "ticks": 395760,
          "time": 1217.9198423333332,
          "velocity": 0.7874015748031497
        },
        {
          "duration": 1.25,
          "durationTicks": 120,
          "midi": 49,
          "name": "C#3",
          "ticks": 395880,
          "time": 1219.1698423333332,
          "velocity": 0.7874015748031497
        },
        {
          "duration": 0.625,
          "durationTicks": 60,
          "midi": 49,
          "name": "C#3",
          "ticks": 396000,
          "time": 1220.4198423333332,
          "velocity": 0.7874015748031497
        },
        {
          "duration": 0.625,
          "durationTicks": 60,
          "midi": 52,
          "name": "E3",
          "ticks": 396060,
          "time": 1221.0448423333332,
          "velocity": 0.7874015748031497
        },
        {
          "duration": 1.25,
          "durationTicks": 120,
          "midi": 50,
          "name": "D3",
          "ticks": 396120,
          "time": 1221.6698423333332,
          "velocity": 0.7874015748031497
        },
        {
          "duration": 1.25,
          "durationTicks": 120,
          "midi": 50,
          "name": "D3",
          "ticks": 396360,
          "time": 1224.1698423333332,
          "velocity": 0.7874015748031497
        },
        {
          "duration": 1.25,
          "durationTicks": 120,
          "midi": 50,
          "name": "D3",
          "ticks": 396480,
          "time": 1225.4198423333332,
          "velocity": 0.7874015748031497
        },
        {
          "duration": 1.25,
          "durationTicks": 120,
          "midi": 38,
          "name": "D2",
          "ticks": 396600,
          "time": 1226.6698423333332,
          "velocity": 0.7874015748031497
        },
        {
          "duration": 1.25,
          "durationTicks": 120,
          "midi": 50,
          "name": "D3",
          "ticks": 396600,
          "time": 1226.6698423333332,
          "velocity": 0.7874015748031497
        },
        {
          "duration": 3.75,
          "durationTicks": 360,
          "midi": 39,
          "name": "D#2",
          "ticks": 396720,
          "time": 1227.9198423333332,
          "velocity": 0.7874015748031497
        },
        {
          "duration": 3.75,
          "durationTicks": 360,
          "midi": 51,
          "name": "D#3",
          "ticks": 396720,
          "time": 1227.9198423333332,
          "velocity": 0.7874015748031497
        },
        {
          "duration": 1.25,
          "durationTicks": 120,
          "midi": 36,
          "name": "C2",
          "ticks": 397080,
          "time": 1231.6698423333332,
          "velocity": 0.7874015748031497
        },
        {
          "duration": 1.25,
          "durationTicks": 120,
          "midi": 48,
          "name": "C3",
          "ticks": 397080,
          "time": 1231.6698423333332,
          "velocity": 0.7874015748031497
        },
        {
          "duration": 2.5,
          "durationTicks": 240,
          "midi": 38,
          "name": "D2",
          "ticks": 397200,
          "time": 1232.9198423333332,
          "velocity": 0.7874015748031497
        },
        {
          "duration": 2.5,
          "durationTicks": 240,
          "midi": 50,
          "name": "D3",
          "ticks": 397200,
          "time": 1232.9198423333332,
          "velocity": 0.7874015748031497
        },
        {
          "duration": 7.5,
          "durationTicks": 720,
          "midi": 31,
          "name": "G1",
          "ticks": 397440,
          "time": 1235.4198423333332,
          "velocity": 0.7874015748031497
        },
        {
          "duration": 7.5,
          "durationTicks": 720,
          "midi": 43,
          "name": "G2",
          "ticks": 397440,
          "time": 1235.4198423333332,
          "velocity": 0.7874015748031497
        },
        {
          "duration": 0.5,
          "durationTicks": 240,
          "midi": 67,
          "name": "G4",
          "ticks": 399600,
          "time": 1255.9198423333332,
          "velocity": 0.7874015748031497
        },
        {
          "duration": 0.5,
          "durationTicks": 240,
          "midi": 62,
          "name": "D4",
          "ticks": 399840,
          "time": 1256.4198423333332,
          "velocity": 0.7874015748031497
        },
        {
          "duration": 0.25,
          "durationTicks": 120,
          "midi": 67,
          "name": "G4",
          "ticks": 400200,
          "time": 1257.1698423333332,
          "velocity": 0.7874015748031497
        },
        {
          "duration": 0.375,
          "durationTicks": 180,
          "midi": 67,
          "name": "G4",
          "ticks": 400320,
          "time": 1257.4198423333332,
          "velocity": 0.7874015748031497
        },
        {
          "duration": 0.125,
          "durationTicks": 60,
          "midi": 64,
          "name": "E4",
          "ticks": 400500,
          "time": 1257.7948423333332,
          "velocity": 0.7874015748031497
        },
        {
          "duration": 0.0625,
          "durationTicks": 30,
          "midi": 64,
          "name": "E4",
          "ticks": 400560,
          "time": 1257.9198423333332,
          "velocity": 0.7874015748031497
        },
        {
          "duration": 0.4375,
          "durationTicks": 210,
          "midi": 66,
          "name": "F#4",
          "ticks": 400590,
          "time": 1257.9823423333332,
          "velocity": 0.7874015748031497
        },
        {
          "duration": 0.25,
          "durationTicks": 120,
          "midi": 69,
          "name": "A4",
          "ticks": 400920,
          "time": 1258.6698423333332,
          "velocity": 0.7874015748031497
        },
        {
          "duration": 0.375,
          "durationTicks": 180,
          "midi": 71,
          "name": "B4",
          "ticks": 401040,
          "time": 1258.9198423333332,
          "velocity": 0.7874015748031497
        },
        {
          "duration": 0.125,
          "durationTicks": 60,
          "midi": 67,
          "name": "G4",
          "ticks": 401220,
          "time": 1259.2948423333332,
          "velocity": 0.7874015748031497
        },
        {
          "duration": 0.5,
          "durationTicks": 240,
          "midi": 64,
          "name": "E4",
          "ticks": 401280,
          "time": 1259.4198423333332,
          "velocity": 0.7874015748031497
        },
        {
          "duration": 0.25,
          "durationTicks": 120,
          "midi": 57,
          "name": "A3",
          "ticks": 401640,
          "time": 1260.1698423333332,
          "velocity": 0.7874015748031497
        },
        {
          "duration": 0.5,
          "durationTicks": 240,
          "midi": 62,
          "name": "D4",
          "ticks": 401760,
          "time": 1260.4198423333332,
          "velocity": 0.7874015748031497
        },
        {
          "duration": 0.5,
          "durationTicks": 240,
          "midi": 62,
          "name": "D4",
          "ticks": 402000,
          "time": 1260.9198423333332,
          "velocity": 0.7874015748031497
        },
        {
          "duration": 0.25,
          "durationTicks": 120,
          "midi": 60,
          "name": "C4",
          "ticks": 402360,
          "time": 1261.6698423333332,
          "velocity": 0.7874015748031497
        },
        {
          "duration": 0.375,
          "durationTicks": 180,
          "midi": 59,
          "name": "B3",
          "ticks": 402480,
          "time": 1261.9198423333332,
          "velocity": 0.7874015748031497
        },
        {
          "duration": 0.125,
          "durationTicks": 60,
          "midi": 60,
          "name": "C4",
          "ticks": 402660,
          "time": 1262.2948423333332,
          "velocity": 0.7874015748031497
        },
        {
          "duration": 0.5,
          "durationTicks": 240,
          "midi": 62,
          "name": "D4",
          "ticks": 402720,
          "time": 1262.4198423333332,
          "velocity": 0.7874015748031497
        },
        {
          "duration": 0.25,
          "durationTicks": 120,
          "midi": 55,
          "name": "G3",
          "ticks": 403080,
          "time": 1263.1698423333332,
          "velocity": 0.7874015748031497
        },
        {
          "duration": 0.5,
          "durationTicks": 240,
          "midi": 60,
          "name": "C4",
          "ticks": 403200,
          "time": 1263.4198423333332,
          "velocity": 0.7874015748031497
        },
        {
          "duration": 0.5,
          "durationTicks": 240,
          "midi": 52,
          "name": "E3",
          "ticks": 403440,
          "time": 1263.9198423333332,
          "velocity": 0.7874015748031497
        },
        {
          "duration": 0.25,
          "durationTicks": 120,
          "midi": 55,
          "name": "G3",
          "ticks": 403800,
          "time": 1264.6698423333332,
          "velocity": 0.7874015748031497
        },
        {
          "duration": 0.375,
          "durationTicks": 180,
          "midi": 54,
          "name": "F#3",
          "ticks": 403920,
          "time": 1264.9198423333332,
          "velocity": 0.7874015748031497
        },
        {
          "duration": 0.125,
          "durationTicks": 60,
          "midi": 55,
          "name": "G3",
          "ticks": 404100,
          "time": 1265.2948423333332,
          "velocity": 0.7874015748031497
        },
        {
          "duration": 0.5,
          "durationTicks": 240,
          "midi": 57,
          "name": "A3",
          "ticks": 404160,
          "time": 1265.4198423333332,
          "velocity": 0.7874015748031497
        },
        {
          "duration": 0.25,
          "durationTicks": 120,
          "midi": 50,
          "name": "D3",
          "ticks": 404520,
          "time": 1266.1698423333332,
          "velocity": 0.7874015748031497
        },
        {
          "duration": 0.5,
          "durationTicks": 240,
          "midi": 55,
          "name": "G3",
          "ticks": 404640,
          "time": 1266.4198423333332,
          "velocity": 0.7874015748031497
        },
        {
          "duration": 0.5,
          "durationTicks": 240,
          "midi": 43,
          "name": "G2",
          "ticks": 404880,
          "time": 1266.9198423333332,
          "velocity": 0.7874015748031497
        },
        {
          "duration": 0.08333333333325754,
          "durationTicks": 40,
          "midi": 43,
          "name": "G2",
          "ticks": 405360,
          "time": 1267.9198423333332,
          "velocity": 0.7874015748031497
        },
        {
          "duration": 0.08333333333348492,
          "durationTicks": 40,
          "midi": 45,
          "name": "A2",
          "ticks": 405400,
          "time": 1268.0031756666665,
          "velocity": 0.7874015748031497
        },
        {
          "duration": 0.08333333333325754,
          "durationTicks": 40,
          "midi": 43,
          "name": "G2",
          "ticks": 405440,
          "time": 1268.086509,
          "velocity": 0.7874015748031497
        },
        {
          "duration": 0.08333333333325754,
          "durationTicks": 40,
          "midi": 38,
          "name": "D2",
          "ticks": 405480,
          "time": 1268.1698423333332,
          "velocity": 0.7874015748031497
        },
        {
          "duration": 0.08333333333348492,
          "durationTicks": 40,
          "midi": 40,
          "name": "E2",
          "ticks": 405520,
          "time": 1268.2531756666665,
          "velocity": 0.7874015748031497
        },
        {
          "duration": 0.08333333333325754,
          "durationTicks": 40,
          "midi": 42,
          "name": "F#2",
          "ticks": 405560,
          "time": 1268.336509,
          "velocity": 0.7874015748031497
        },
        {
          "duration": 0.08333333333325754,
          "durationTicks": 40,
          "midi": 43,
          "name": "G2",
          "ticks": 405600,
          "time": 1268.4198423333332,
          "velocity": 0.7874015748031497
        },
        {
          "duration": 0.08333333333348492,
          "durationTicks": 40,
          "midi": 42,
          "name": "F#2",
          "ticks": 405640,
          "time": 1268.5031756666665,
          "velocity": 0.7874015748031497
        },
        {
          "duration": 0.08333333333325754,
          "durationTicks": 40,
          "midi": 43,
          "name": "G2",
          "ticks": 405680,
          "time": 1268.586509,
          "velocity": 0.7874015748031497
        },
        {
          "duration": 0.08333333333325754,
          "durationTicks": 40,
          "midi": 45,
          "name": "A2",
          "ticks": 405720,
          "time": 1268.6698423333332,
          "velocity": 0.7874015748031497
        },
        {
          "duration": 0.08333333333348492,
          "durationTicks": 40,
          "midi": 43,
          "name": "G2",
          "ticks": 405760,
          "time": 1268.7531756666665,
          "velocity": 0.7874015748031497
        },
        {
          "duration": 0.08333333333325754,
          "durationTicks": 40,
          "midi": 45,
          "name": "A2",
          "ticks": 405800,
          "time": 1268.836509,
          "velocity": 0.7874015748031497
        },
        {
          "duration": 0.08333333333325754,
          "durationTicks": 40,
          "midi": 47,
          "name": "B2",
          "ticks": 405840,
          "time": 1268.9198423333332,
          "velocity": 0.7874015748031497
        },
        {
          "duration": 0.08333333333348492,
          "durationTicks": 40,
          "midi": 45,
          "name": "A2",
          "ticks": 405880,
          "time": 1269.0031756666665,
          "velocity": 0.7874015748031497
        },
        {
          "duration": 0.08333333333325754,
          "durationTicks": 40,
          "midi": 47,
          "name": "B2",
          "ticks": 405920,
          "time": 1269.086509,
          "velocity": 0.7874015748031497
        },
        {
          "duration": 0.08333333333325754,
          "durationTicks": 40,
          "midi": 48,
          "name": "C3",
          "ticks": 405960,
          "time": 1269.1698423333332,
          "velocity": 0.7874015748031497
        },
        {
          "duration": 0.08333333333348492,
          "durationTicks": 40,
          "midi": 47,
          "name": "B2",
          "ticks": 406000,
          "time": 1269.2531756666665,
          "velocity": 0.7874015748031497
        },
        {
          "duration": 0.08333333333325754,
          "durationTicks": 40,
          "midi": 49,
          "name": "C#3",
          "ticks": 406040,
          "time": 1269.336509,
          "velocity": 0.7874015748031497
        },
        {
          "duration": 0.08333333333325754,
          "durationTicks": 40,
          "midi": 50,
          "name": "D3",
          "ticks": 406080,
          "time": 1269.4198423333332,
          "velocity": 0.7874015748031497
        },
        {
          "duration": 0.08333333333348492,
          "durationTicks": 40,
          "midi": 52,
          "name": "E3",
          "ticks": 406120,
          "time": 1269.5031756666665,
          "velocity": 0.7874015748031497
        },
        {
          "duration": 0.08333333333325754,
          "durationTicks": 40,
          "midi": 50,
          "name": "D3",
          "ticks": 406160,
          "time": 1269.586509,
          "velocity": 0.7874015748031497
        },
        {
          "duration": 0.08333333333325754,
          "durationTicks": 40,
          "midi": 45,
          "name": "A2",
          "ticks": 406200,
          "time": 1269.6698423333332,
          "velocity": 0.7874015748031497
        },
        {
          "duration": 0.08333333333348492,
          "durationTicks": 40,
          "midi": 47,
          "name": "B2",
          "ticks": 406240,
          "time": 1269.7531756666665,
          "velocity": 0.7874015748031497
        },
        {
          "duration": 0.08333333333325754,
          "durationTicks": 40,
          "midi": 49,
          "name": "C#3",
          "ticks": 406280,
          "time": 1269.836509,
          "velocity": 0.7874015748031497
        },
        {
          "duration": 0.08333333333325754,
          "durationTicks": 40,
          "midi": 50,
          "name": "D3",
          "ticks": 406320,
          "time": 1269.9198423333332,
          "velocity": 0.7874015748031497
        },
        {
          "duration": 0.08333333333348492,
          "durationTicks": 40,
          "midi": 49,
          "name": "C#3",
          "ticks": 406360,
          "time": 1270.0031756666665,
          "velocity": 0.7874015748031497
        },
        {
          "duration": 0.08333333333325754,
          "durationTicks": 40,
          "midi": 50,
          "name": "D3",
          "ticks": 406400,
          "time": 1270.086509,
          "velocity": 0.7874015748031497
        },
        {
          "duration": 0.08333333333325754,
          "durationTicks": 40,
          "midi": 52,
          "name": "E3",
          "ticks": 406440,
          "time": 1270.1698423333332,
          "velocity": 0.7874015748031497
        },
        {
          "duration": 0.08333333333348492,
          "durationTicks": 40,
          "midi": 50,
          "name": "D3",
          "ticks": 406480,
          "time": 1270.2531756666665,
          "velocity": 0.7874015748031497
        },
        {
          "duration": 0.08333333333325754,
          "durationTicks": 40,
          "midi": 52,
          "name": "E3",
          "ticks": 406520,
          "time": 1270.336509,
          "velocity": 0.7874015748031497
        },
        {
          "duration": 0.08333333333325754,
          "durationTicks": 40,
          "midi": 54,
          "name": "F#3",
          "ticks": 406560,
          "time": 1270.4198423333332,
          "velocity": 0.7874015748031497
        },
        {
          "duration": 0.08333333333348492,
          "durationTicks": 40,
          "midi": 52,
          "name": "E3",
          "ticks": 406600,
          "time": 1270.5031756666665,
          "velocity": 0.7874015748031497
        },
        {
          "duration": 0.08333333333325754,
          "durationTicks": 40,
          "midi": 54,
          "name": "F#3",
          "ticks": 406640,
          "time": 1270.586509,
          "velocity": 0.7874015748031497
        },
        {
          "duration": 0.08333333333325754,
          "durationTicks": 40,
          "midi": 55,
          "name": "G3",
          "ticks": 406680,
          "time": 1270.6698423333332,
          "velocity": 0.7874015748031497
        },
        {
          "duration": 0.08333333333348492,
          "durationTicks": 40,
          "midi": 52,
          "name": "E3",
          "ticks": 406720,
          "time": 1270.7531756666665,
          "velocity": 0.7874015748031497
        },
        {
          "duration": 0.08333333333325754,
          "durationTicks": 40,
          "midi": 54,
          "name": "F#3",
          "ticks": 406760,
          "time": 1270.836509,
          "velocity": 0.7874015748031497
        },
        {
          "duration": 0.08333333333325754,
          "durationTicks": 40,
          "midi": 55,
          "name": "G3",
          "ticks": 406800,
          "time": 1270.9198423333332,
          "velocity": 0.7874015748031497
        },
        {
          "duration": 0.08333333333348492,
          "durationTicks": 40,
          "midi": 57,
          "name": "A3",
          "ticks": 406840,
          "time": 1271.0031756666665,
          "velocity": 0.7874015748031497
        },
        {
          "duration": 0.08333333333325754,
          "durationTicks": 40,
          "midi": 55,
          "name": "G3",
          "ticks": 406880,
          "time": 1271.086509,
          "velocity": 0.7874015748031497
        },
        {
          "duration": 0.08333333333325754,
          "durationTicks": 40,
          "midi": 47,
          "name": "B2",
          "ticks": 406920,
          "time": 1271.1698423333332,
          "velocity": 0.7874015748031497
        },
        {
          "duration": 0.08333333333348492,
          "durationTicks": 40,
          "midi": 52,
          "name": "E3",
          "ticks": 406960,
          "time": 1271.2531756666665,
          "velocity": 0.7874015748031497
        },
        {
          "duration": 0.08333333333325754,
          "durationTicks": 40,
          "midi": 54,
          "name": "F#3",
          "ticks": 407000,
          "time": 1271.336509,
          "velocity": 0.7874015748031497
        },
        {
          "duration": 0.08333333333325754,
          "durationTicks": 40,
          "midi": 55,
          "name": "G3",
          "ticks": 407040,
          "time": 1271.4198423333332,
          "velocity": 0.7874015748031497
        },
        {
          "duration": 0.08333333333348492,
          "durationTicks": 40,
          "midi": 54,
          "name": "F#3",
          "ticks": 407080,
          "time": 1271.5031756666665,
          "velocity": 0.7874015748031497
        },
        {
          "duration": 0.08333333333325754,
          "durationTicks": 40,
          "midi": 55,
          "name": "G3",
          "ticks": 407120,
          "time": 1271.586509,
          "velocity": 0.7874015748031497
        },
        {
          "duration": 0.08333333333325754,
          "durationTicks": 40,
          "midi": 57,
          "name": "A3",
          "ticks": 407160,
          "time": 1271.6698423333332,
          "velocity": 0.7874015748031497
        },
        {
          "duration": 0.08333333333348492,
          "durationTicks": 40,
          "midi": 55,
          "name": "G3",
          "ticks": 407200,
          "time": 1271.7531756666665,
          "velocity": 0.7874015748031497
        },
        {
          "duration": 0.08333333333325754,
          "durationTicks": 40,
          "midi": 57,
          "name": "A3",
          "ticks": 407240,
          "time": 1271.836509,
          "velocity": 0.7874015748031497
        },
        {
          "duration": 0.08333333333325754,
          "durationTicks": 40,
          "midi": 59,
          "name": "B3",
          "ticks": 407280,
          "time": 1271.9198423333332,
          "velocity": 0.7874015748031497
        },
        {
          "duration": 0.08333333333348492,
          "durationTicks": 40,
          "midi": 57,
          "name": "A3",
          "ticks": 407320,
          "time": 1272.0031756666665,
          "velocity": 0.7874015748031497
        },
        {
          "duration": 0.08333333333325754,
          "durationTicks": 40,
          "midi": 59,
          "name": "B3",
          "ticks": 407360,
          "time": 1272.086509,
          "velocity": 0.7874015748031497
        },
        {
          "duration": 0.08333333333325754,
          "durationTicks": 40,
          "midi": 61,
          "name": "C#4",
          "ticks": 407400,
          "time": 1272.1698423333332,
          "velocity": 0.7874015748031497
        },
        {
          "duration": 0.08333333333348492,
          "durationTicks": 40,
          "midi": 57,
          "name": "A3",
          "ticks": 407440,
          "time": 1272.2531756666665,
          "velocity": 0.7874015748031497
        },
        {
          "duration": 0.08333333333325754,
          "durationTicks": 40,
          "midi": 59,
          "name": "B3",
          "ticks": 407480,
          "time": 1272.336509,
          "velocity": 0.7874015748031497
        },
        {
          "duration": 0.08333333333325754,
          "durationTicks": 40,
          "midi": 61,
          "name": "C#4",
          "ticks": 407520,
          "time": 1272.4198423333332,
          "velocity": 0.7874015748031497
        },
        {
          "duration": 0.08333333333348492,
          "durationTicks": 40,
          "midi": 62,
          "name": "D4",
          "ticks": 407560,
          "time": 1272.5031756666665,
          "velocity": 0.7874015748031497
        },
        {
          "duration": 0.08333333333325754,
          "durationTicks": 40,
          "midi": 61,
          "name": "C#4",
          "ticks": 407600,
          "time": 1272.586509,
          "velocity": 0.7874015748031497
        },
        {
          "duration": 0.08333333333325754,
          "durationTicks": 40,
          "midi": 52,
          "name": "E3",
          "ticks": 407640,
          "time": 1272.6698423333332,
          "velocity": 0.7874015748031497
        },
        {
          "duration": 0.08333333333348492,
          "durationTicks": 40,
          "midi": 57,
          "name": "A3",
          "ticks": 407680,
          "time": 1272.7531756666665,
          "velocity": 0.7874015748031497
        },
        {
          "duration": 0.08333333333325754,
          "durationTicks": 40,
          "midi": 59,
          "name": "B3",
          "ticks": 407720,
          "time": 1272.836509,
          "velocity": 0.7874015748031497
        },
        {
          "duration": 0.08333333333325754,
          "durationTicks": 40,
          "midi": 61,
          "name": "C#4",
          "ticks": 407760,
          "time": 1272.9198423333332,
          "velocity": 0.7874015748031497
        },
        {
          "duration": 0.08333333333348492,
          "durationTicks": 40,
          "midi": 59,
          "name": "B3",
          "ticks": 407800,
          "time": 1273.0031756666665,
          "velocity": 0.7874015748031497
        },
        {
          "duration": 0.08333333333325754,
          "durationTicks": 40,
          "midi": 61,
          "name": "C#4",
          "ticks": 407840,
          "time": 1273.086509,
          "velocity": 0.7874015748031497
        },
        {
          "duration": 0.08333333333325754,
          "durationTicks": 40,
          "midi": 62,
          "name": "D4",
          "ticks": 407880,
          "time": 1273.1698423333332,
          "velocity": 0.7874015748031497
        },
        {
          "duration": 0.08333333333348492,
          "durationTicks": 40,
          "midi": 61,
          "name": "C#4",
          "ticks": 407920,
          "time": 1273.2531756666665,
          "velocity": 0.7874015748031497
        },
        {
          "duration": 0.08333333333325754,
          "durationTicks": 40,
          "midi": 62,
          "name": "D4",
          "ticks": 407960,
          "time": 1273.336509,
          "velocity": 0.7874015748031497
        },
        {
          "duration": 0.08333333333325754,
          "durationTicks": 40,
          "midi": 64,
          "name": "E4",
          "ticks": 408000,
          "time": 1273.4198423333332,
          "velocity": 0.7874015748031497
        },
        {
          "duration": 0.08333333333348492,
          "durationTicks": 40,
          "midi": 62,
          "name": "D4",
          "ticks": 408040,
          "time": 1273.5031756666665,
          "velocity": 0.7874015748031497
        },
        {
          "duration": 0.08333333333325754,
          "durationTicks": 40,
          "midi": 64,
          "name": "E4",
          "ticks": 408080,
          "time": 1273.586509,
          "velocity": 0.7874015748031497
        },
        {
          "duration": 0.08333333333325754,
          "durationTicks": 40,
          "midi": 66,
          "name": "F#4",
          "ticks": 408120,
          "time": 1273.6698423333332,
          "velocity": 0.7874015748031497
        },
        {
          "duration": 0.08333333333348492,
          "durationTicks": 40,
          "midi": 62,
          "name": "D4",
          "ticks": 408160,
          "time": 1273.7531756666665,
          "velocity": 0.7874015748031497
        },
        {
          "duration": 0.08333333333325754,
          "durationTicks": 40,
          "midi": 64,
          "name": "E4",
          "ticks": 408200,
          "time": 1273.836509,
          "velocity": 0.7874015748031497
        },
        {
          "duration": 0.08333333333325754,
          "durationTicks": 40,
          "midi": 66,
          "name": "F#4",
          "ticks": 408240,
          "time": 1273.9198423333332,
          "velocity": 0.7874015748031497
        },
        {
          "duration": 0.08333333333348492,
          "durationTicks": 40,
          "midi": 64,
          "name": "E4",
          "ticks": 408280,
          "time": 1274.0031756666665,
          "velocity": 0.7874015748031497
        },
        {
          "duration": 0.08333333333325754,
          "durationTicks": 40,
          "midi": 66,
          "name": "F#4",
          "ticks": 408320,
          "time": 1274.086509,
          "velocity": 0.7874015748031497
        },
        {
          "duration": 0.08333333333325754,
          "durationTicks": 40,
          "midi": 69,
          "name": "A4",
          "ticks": 408360,
          "time": 1274.1698423333332,
          "velocity": 0.7874015748031497
        },
        {
          "duration": 0.08333333333348492,
          "durationTicks": 40,
          "midi": 67,
          "name": "G4",
          "ticks": 408400,
          "time": 1274.2531756666665,
          "velocity": 0.7874015748031497
        },
        {
          "duration": 0.08333333333325754,
          "durationTicks": 40,
          "midi": 69,
          "name": "A4",
          "ticks": 408440,
          "time": 1274.336509,
          "velocity": 0.7874015748031497
        },
        {
          "duration": 0.08333333333325754,
          "durationTicks": 40,
          "midi": 62,
          "name": "D4",
          "ticks": 408480,
          "time": 1274.4198423333332,
          "velocity": 0.7874015748031497
        },
        {
          "duration": 0.08333333333348492,
          "durationTicks": 40,
          "midi": 61,
          "name": "C#4",
          "ticks": 408520,
          "time": 1274.5031756666665,
          "velocity": 0.7874015748031497
        },
        {
          "duration": 0.08333333333325754,
          "durationTicks": 40,
          "midi": 62,
          "name": "D4",
          "ticks": 408560,
          "time": 1274.586509,
          "velocity": 0.7874015748031497
        },
        {
          "duration": 0.08333333333325754,
          "durationTicks": 40,
          "midi": 66,
          "name": "F#4",
          "ticks": 408600,
          "time": 1274.6698423333332,
          "velocity": 0.7874015748031497
        },
        {
          "duration": 0.08333333333348492,
          "durationTicks": 40,
          "midi": 69,
          "name": "A4",
          "ticks": 408640,
          "time": 1274.7531756666665,
          "velocity": 0.7874015748031497
        },
        {
          "duration": 0.08333333333325754,
          "durationTicks": 40,
          "midi": 71,
          "name": "B4",
          "ticks": 408680,
          "time": 1274.836509,
          "velocity": 0.7874015748031497
        },
        {
          "duration": 0.08333333333325754,
          "durationTicks": 40,
          "midi": 72,
          "name": "C5",
          "ticks": 408720,
          "time": 1274.9198423333332,
          "velocity": 0.7874015748031497
        },
        {
          "duration": 0.08333333333348492,
          "durationTicks": 40,
          "midi": 71,
          "name": "B4",
          "ticks": 408760,
          "time": 1275.0031756666665,
          "velocity": 0.7874015748031497
        },
        {
          "duration": 0.08333333333325754,
          "durationTicks": 40,
          "midi": 72,
          "name": "C5",
          "ticks": 408800,
          "time": 1275.086509,
          "velocity": 0.7874015748031497
        },
        {
          "duration": 0.08333333333325754,
          "durationTicks": 40,
          "midi": 69,
          "name": "A4",
          "ticks": 408840,
          "time": 1275.1698423333332,
          "velocity": 0.7874015748031497
        },
        {
          "duration": 0.08333333333348492,
          "durationTicks": 40,
          "midi": 66,
          "name": "F#4",
          "ticks": 408880,
          "time": 1275.2531756666665,
          "velocity": 0.7874015748031497
        },
        {
          "duration": 0.08333333333325754,
          "durationTicks": 40,
          "midi": 69,
          "name": "A4",
          "ticks": 408920,
          "time": 1275.336509,
          "velocity": 0.7874015748031497
        },
        {
          "duration": 0.08333333333325754,
          "durationTicks": 40,
          "midi": 67,
          "name": "G4",
          "ticks": 408960,
          "time": 1275.4198423333332,
          "velocity": 0.7874015748031497
        },
        {
          "duration": 0.08333333333348492,
          "durationTicks": 40,
          "midi": 66,
          "name": "F#4",
          "ticks": 409000,
          "time": 1275.5031756666665,
          "velocity": 0.7874015748031497
        },
        {
          "duration": 0.08333333333325754,
          "durationTicks": 40,
          "midi": 67,
          "name": "G4",
          "ticks": 409040,
          "time": 1275.586509,
          "velocity": 0.7874015748031497
        },
        {
          "duration": 0.08333333333325754,
          "durationTicks": 40,
          "midi": 71,
          "name": "B4",
          "ticks": 409080,
          "time": 1275.6698423333332,
          "velocity": 0.7874015748031497
        },
        {
          "duration": 0.08333333333348492,
          "durationTicks": 40,
          "midi": 69,
          "name": "A4",
          "ticks": 409120,
          "time": 1275.7531756666665,
          "velocity": 0.7874015748031497
        },
        {
          "duration": 0.08333333333325754,
          "durationTicks": 40,
          "midi": 71,
          "name": "B4",
          "ticks": 409160,
          "time": 1275.836509,
          "velocity": 0.7874015748031497
        },
        {
          "duration": 0.08333333333325754,
          "durationTicks": 40,
          "midi": 64,
          "name": "E4",
          "ticks": 409200,
          "time": 1275.9198423333332,
          "velocity": 0.7874015748031497
        },
        {
          "duration": 0.08333333333348492,
          "durationTicks": 40,
          "midi": 63,
          "name": "D#4",
          "ticks": 409240,
          "time": 1276.0031756666665,
          "velocity": 0.7874015748031497
        },
        {
          "duration": 0.08333333333325754,
          "durationTicks": 40,
          "midi": 64,
          "name": "E4",
          "ticks": 409280,
          "time": 1276.086509,
          "velocity": 0.7874015748031497
        },
        {
          "duration": 0.08333333333325754,
          "durationTicks": 40,
          "midi": 67,
          "name": "G4",
          "ticks": 409320,
          "time": 1276.1698423333332,
          "velocity": 0.7874015748031497
        },
        {
          "duration": 0.08333333333348492,
          "durationTicks": 40,
          "midi": 71,
          "name": "B4",
          "ticks": 409360,
          "time": 1276.2531756666665,
          "velocity": 0.7874015748031497
        },
        {
          "duration": 0.08333333333325754,
          "durationTicks": 40,
          "midi": 73,
          "name": "C#5",
          "ticks": 409400,
          "time": 1276.336509,
          "velocity": 0.7874015748031497
        },
        {
          "duration": 0.08333333333325754,
          "durationTicks": 40,
          "midi": 74,
          "name": "D5",
          "ticks": 409440,
          "time": 1276.4198423333332,
          "velocity": 0.7874015748031497
        },
        {
          "duration": 0.08333333333348492,
          "durationTicks": 40,
          "midi": 73,
          "name": "C#5",
          "ticks": 409480,
          "time": 1276.5031756666665,
          "velocity": 0.7874015748031497
        },
        {
          "duration": 0.08333333333325754,
          "durationTicks": 40,
          "midi": 74,
          "name": "D5",
          "ticks": 409520,
          "time": 1276.586509,
          "velocity": 0.7874015748031497
        },
        {
          "duration": 0.08333333333325754,
          "durationTicks": 40,
          "midi": 71,
          "name": "B4",
          "ticks": 409560,
          "time": 1276.6698423333332,
          "velocity": 0.7874015748031497
        },
        {
          "duration": 0.08333333333348492,
          "durationTicks": 40,
          "midi": 67,
          "name": "G4",
          "ticks": 409600,
          "time": 1276.7531756666665,
          "velocity": 0.7874015748031497
        },
        {
          "duration": 0.08333333333325754,
          "durationTicks": 40,
          "midi": 71,
          "name": "B4",
          "ticks": 409640,
          "time": 1276.836509,
          "velocity": 0.7874015748031497
        },
        {
          "duration": 0.08333333333325754,
          "durationTicks": 40,
          "midi": 73,
          "name": "C#5",
          "ticks": 409680,
          "time": 1276.9198423333332,
          "velocity": 0.7874015748031497
        },
        {
          "duration": 0.08333333333348492,
          "durationTicks": 40,
          "midi": 71,
          "name": "B4",
          "ticks": 409720,
          "time": 1277.0031756666665,
          "velocity": 0.7874015748031497
        },
        {
          "duration": 0.08333333333325754,
          "durationTicks": 40,
          "midi": 73,
          "name": "C#5",
          "ticks": 409760,
          "time": 1277.086509,
          "velocity": 0.7874015748031497
        },
        {
          "duration": 0.08333333333325754,
          "durationTicks": 40,
          "midi": 76,
          "name": "E5",
          "ticks": 409800,
          "time": 1277.1698423333332,
          "velocity": 0.7874015748031497
        },
        {
          "duration": 0.08333333333348492,
          "durationTicks": 40,
          "midi": 74,
          "name": "D5",
          "ticks": 409840,
          "time": 1277.2531756666665,
          "velocity": 0.7874015748031497
        },
        {
          "duration": 0.08333333333325754,
          "durationTicks": 40,
          "midi": 76,
          "name": "E5",
          "ticks": 409880,
          "time": 1277.336509,
          "velocity": 0.7874015748031497
        },
        {
          "duration": 0.08333333333325754,
          "durationTicks": 40,
          "midi": 69,
          "name": "A4",
          "ticks": 409920,
          "time": 1277.4198423333332,
          "velocity": 0.7874015748031497
        },
        {
          "duration": 0.08333333333348492,
          "durationTicks": 40,
          "midi": 68,
          "name": "G#4",
          "ticks": 409960,
          "time": 1277.5031756666665,
          "velocity": 0.7874015748031497
        },
        {
          "duration": 0.08333333333325754,
          "durationTicks": 40,
          "midi": 69,
          "name": "A4",
          "ticks": 410000,
          "time": 1277.586509,
          "velocity": 0.7874015748031497
        },
        {
          "duration": 0.08333333333325754,
          "durationTicks": 40,
          "midi": 73,
          "name": "C#5",
          "ticks": 410040,
          "time": 1277.6698423333332,
          "velocity": 0.7874015748031497
        },
        {
          "duration": 0.08333333333348492,
          "durationTicks": 40,
          "midi": 76,
          "name": "E5",
          "ticks": 410080,
          "time": 1277.7531756666665,
          "velocity": 0.7874015748031497
        },
        {
          "duration": 0.08333333333325754,
          "durationTicks": 40,
          "midi": 78,
          "name": "F#5",
          "ticks": 410120,
          "time": 1277.836509,
          "velocity": 0.7874015748031497
        },
        {
          "duration": 0.08333333333325754,
          "durationTicks": 40,
          "midi": 79,
          "name": "G5",
          "ticks": 410160,
          "time": 1277.9198423333332,
          "velocity": 0.7874015748031497
        },
        {
          "duration": 0.08333333333348492,
          "durationTicks": 40,
          "midi": 78,
          "name": "F#5",
          "ticks": 410200,
          "time": 1278.0031756666665,
          "velocity": 0.7874015748031497
        },
        {
          "duration": 0.08333333333325754,
          "durationTicks": 40,
          "midi": 79,
          "name": "G5",
          "ticks": 410240,
          "time": 1278.086509,
          "velocity": 0.7874015748031497
        },
        {
          "duration": 0.08333333333325754,
          "durationTicks": 40,
          "midi": 76,
          "name": "E5",
          "ticks": 410280,
          "time": 1278.1698423333332,
          "velocity": 0.7874015748031497
        },
        {
          "duration": 0.08333333333348492,
          "durationTicks": 40,
          "midi": 73,
          "name": "C#5",
          "ticks": 410320,
          "time": 1278.2531756666665,
          "velocity": 0.7874015748031497
        },
        {
          "duration": 0.08333333333325754,
          "durationTicks": 40,
          "midi": 76,
          "name": "E5",
          "ticks": 410360,
          "time": 1278.336509,
          "velocity": 0.7874015748031497
        },
        {
          "duration": 0.08333333333325754,
          "durationTicks": 40,
          "midi": 78,
          "name": "F#5",
          "ticks": 410400,
          "time": 1278.4198423333332,
          "velocity": 0.7874015748031497
        },
        {
          "duration": 0.08333333333348492,
          "durationTicks": 40,
          "midi": 76,
          "name": "E5",
          "ticks": 410440,
          "time": 1278.5031756666665,
          "velocity": 0.7874015748031497
        },
        {
          "duration": 0.08333333333325754,
          "durationTicks": 40,
          "midi": 78,
          "name": "F#5",
          "ticks": 410480,
          "time": 1278.586509,
          "velocity": 0.7874015748031497
        },
        {
          "duration": 0.08333333333325754,
          "durationTicks": 40,
          "midi": 81,
          "name": "A5",
          "ticks": 410520,
          "time": 1278.6698423333332,
          "velocity": 0.7874015748031497
        },
        {
          "duration": 0.08333333333348492,
          "durationTicks": 40,
          "midi": 79,
          "name": "G5",
          "ticks": 410560,
          "time": 1278.7531756666665,
          "velocity": 0.7874015748031497
        },
        {
          "duration": 0.08333333333325754,
          "durationTicks": 40,
          "midi": 81,
          "name": "A5",
          "ticks": 410600,
          "time": 1278.836509,
          "velocity": 0.7874015748031497
        },
        {
          "duration": 0.08333333333325754,
          "durationTicks": 40,
          "midi": 74,
          "name": "D5",
          "ticks": 410640,
          "time": 1278.9198423333332,
          "velocity": 0.7874015748031497
        },
        {
          "duration": 0.08333333333348492,
          "durationTicks": 40,
          "midi": 73,
          "name": "C#5",
          "ticks": 410680,
          "time": 1279.0031756666665,
          "velocity": 0.7874015748031497
        },
        {
          "duration": 0.08333333333325754,
          "durationTicks": 40,
          "midi": 74,
          "name": "D5",
          "ticks": 410720,
          "time": 1279.086509,
          "velocity": 0.7874015748031497
        },
        {
          "duration": 0.08333333333325754,
          "durationTicks": 40,
          "midi": 78,
          "name": "F#5",
          "ticks": 410760,
          "time": 1279.1698423333332,
          "velocity": 0.7874015748031497
        },
        {
          "duration": 0.08333333333348492,
          "durationTicks": 40,
          "midi": 81,
          "name": "A5",
          "ticks": 410800,
          "time": 1279.2531756666665,
          "velocity": 0.7874015748031497
        },
        {
          "duration": 0.08333333333325754,
          "durationTicks": 40,
          "midi": 85,
          "name": "C#6",
          "ticks": 410840,
          "time": 1279.336509,
          "velocity": 0.7874015748031497
        },
        {
          "duration": 0.0625,
          "durationTicks": 30,
          "midi": 86,
          "name": "D6",
          "ticks": 410880,
          "time": 1279.4198423333332,
          "velocity": 0.7874015748031497
        },
        {
          "duration": 0.0625,
          "durationTicks": 30,
          "midi": 85,
          "name": "C#6",
          "ticks": 410910,
          "time": 1279.4823423333332,
          "velocity": 0.7874015748031497
        },
        {
          "duration": 0.375,
          "durationTicks": 180,
          "midi": 86,
          "name": "D6",
          "ticks": 410940,
          "time": 1279.5448423333332,
          "velocity": 0.7874015748031497
        },
        {
          "duration": 0.5,
          "durationTicks": 240,
          "midi": 62,
          "name": "D4",
          "ticks": 411120,
          "time": 1279.9198423333332,
          "velocity": 0.7874015748031497
        },
        {
          "duration": 0.5,
          "durationTicks": 240,
          "midi": 60,
          "name": "C4",
          "ticks": 411360,
          "time": 1280.4198423333332,
          "velocity": 0.7874015748031497
        },
        {
          "duration": 0.25,
          "durationTicks": 120,
          "midi": 60,
          "name": "C4",
          "ticks": 411720,
          "time": 1281.1698423333332,
          "velocity": 0.7874015748031497
        },
        {
          "duration": 0.375,
          "durationTicks": 180,
          "midi": 59,
          "name": "B3",
          "ticks": 411840,
          "time": 1281.4198423333332,
          "velocity": 0.7874015748031497
        },
        {
          "duration": 0.125,
          "durationTicks": 60,
          "midi": 62,
          "name": "D4",
          "ticks": 412020,
          "time": 1281.7948423333332,
          "velocity": 0.7874015748031497
        },
        {
          "duration": 0.5,
          "durationTicks": 240,
          "midi": 67,
          "name": "G4",
          "ticks": 412080,
          "time": 1281.9198423333332,
          "velocity": 0.7874015748031497
        },
        {
          "duration": 0.25,
          "durationTicks": 120,
          "midi": 74,
          "name": "D5",
          "ticks": 412440,
          "time": 1282.6698423333332,
          "velocity": 0.7874015748031497
        },
        {
          "duration": 0.5,
          "durationTicks": 240,
          "midi": 73,
          "name": "C#5",
          "ticks": 412560,
          "time": 1282.9198423333332,
          "velocity": 0.7874015748031497
        },
        {
          "duration": 0.5,
          "durationTicks": 240,
          "midi": 75,
          "name": "D#5",
          "ticks": 412800,
          "time": 1283.4198423333332,
          "velocity": 0.7874015748031497
        },
        {
          "duration": 0.25,
          "durationTicks": 120,
          "midi": 76,
          "name": "E5",
          "ticks": 413160,
          "time": 1284.1698423333332,
          "velocity": 0.7874015748031497
        },
        {
          "duration": 0.5,
          "durationTicks": 240,
          "midi": 75,
          "name": "D#5",
          "ticks": 413280,
          "time": 1284.4198423333332,
          "velocity": 0.7874015748031497
        },
        {
          "duration": 0.5,
          "durationTicks": 240,
          "midi": 66,
          "name": "F#4",
          "ticks": 413520,
          "time": 1284.9198423333332,
          "velocity": 0.7874015748031497
        },
        {
          "duration": 0.25,
          "durationTicks": 120,
          "midi": 75,
          "name": "D#5",
          "ticks": 413880,
          "time": 1285.6698423333332,
          "velocity": 0.7874015748031497
        },
        {
          "duration": 0.5,
          "durationTicks": 240,
          "midi": 76,
          "name": "E5",
          "ticks": 414000,
          "time": 1285.9198423333332,
          "velocity": 0.7874015748031497
        },
        {
          "duration": 0.5,
          "durationTicks": 240,
          "midi": 71,
          "name": "B4",
          "ticks": 414240,
          "time": 1286.4198423333332,
          "velocity": 0.7874015748031497
        },
        {
          "duration": 0.25,
          "durationTicks": 120,
          "midi": 71,
          "name": "B4",
          "ticks": 414600,
          "time": 1287.1698423333332,
          "velocity": 0.7874015748031497
        },
        {
          "duration": 0.375,
          "durationTicks": 180,
          "midi": 69,
          "name": "A4",
          "ticks": 414720,
          "time": 1287.4198423333332,
          "velocity": 0.7874015748031497
        },
        {
          "duration": 0.125,
          "durationTicks": 60,
          "midi": 71,
          "name": "B4",
          "ticks": 414900,
          "time": 1287.7948423333332,
          "velocity": 0.7874015748031497
        },
        {
          "duration": 0.0625,
          "durationTicks": 30,
          "midi": 71,
          "name": "B4",
          "ticks": 414960,
          "time": 1287.9198423333332,
          "velocity": 0.7874015748031497
        },
        {
          "duration": 0.4375,
          "durationTicks": 210,
          "midi": 72,
          "name": "C5",
          "ticks": 414990,
          "time": 1287.9823423333332,
          "velocity": 0.7874015748031497
        },
        {
          "duration": 0.25,
          "durationTicks": 120,
          "midi": 72,
          "name": "C5",
          "ticks": 415320,
          "time": 1288.6698423333332,
          "velocity": 0.7874015748031497
        },
        {
          "duration": 0.5,
          "durationTicks": 240,
          "midi": 71,
          "name": "B4",
          "ticks": 415440,
          "time": 1288.9198423333332,
          "velocity": 0.7874015748031497
        },
        {
          "duration": 0.5,
          "durationTicks": 240,
          "midi": 69,
          "name": "A4",
          "ticks": 415680,
          "time": 1289.4198423333332,
          "velocity": 0.7874015748031497
        },
        {
          "duration": 0.25,
          "durationTicks": 120,
          "midi": 69,
          "name": "A4",
          "ticks": 416040,
          "time": 1290.1698423333332,
          "velocity": 0.7874015748031497
        },
        {
          "duration": 0.375,
          "durationTicks": 180,
          "midi": 69,
          "name": "A4",
          "ticks": 416160,
          "time": 1290.4198423333332,
          "velocity": 0.7874015748031497
        },
        {
          "duration": 0.125,
          "durationTicks": 60,
          "midi": 66,
          "name": "F#4",
          "ticks": 416340,
          "time": 1290.7948423333332,
          "velocity": 0.7874015748031497
        },
        {
          "duration": 0.0625,
          "durationTicks": 30,
          "midi": 67,
          "name": "G4",
          "ticks": 416400,
          "time": 1290.9198423333332,
          "velocity": 0.7874015748031497
        },
        {
          "duration": 0.0625,
          "durationTicks": 30,
          "midi": 66,
          "name": "F#4",
          "ticks": 416430,
          "time": 1290.9823423333332,
          "velocity": 0.7874015748031497
        },
        {
          "duration": 0.375,
          "durationTicks": 180,
          "midi": 67,
          "name": "G4",
          "ticks": 416460,
          "time": 1291.0448423333332,
          "velocity": 0.7874015748031497
        },
        {
          "duration": 0.08333333333348492,
          "durationTicks": 40,
          "midi": 52,
          "name": "E3",
          "ticks": 416680,
          "time": 1291.5031756666665,
          "velocity": 0.7874015748031497
        },
        {
          "duration": 0.08333333333325754,
          "durationTicks": 40,
          "midi": 54,
          "name": "F#3",
          "ticks": 416720,
          "time": 1291.586509,
          "velocity": 0.7874015748031497
        },
        {
          "duration": 0.08333333333325754,
          "durationTicks": 40,
          "midi": 55,
          "name": "G3",
          "ticks": 416760,
          "time": 1291.6698423333332,
          "velocity": 0.7874015748031497
        },
        {
          "duration": 0.08333333333348492,
          "durationTicks": 40,
          "midi": 57,
          "name": "A3",
          "ticks": 416800,
          "time": 1291.7531756666665,
          "velocity": 0.7874015748031497
        },
        {
          "duration": 0.08333333333325754,
          "durationTicks": 40,
          "midi": 59,
          "name": "B3",
          "ticks": 416840,
          "time": 1291.836509,
          "velocity": 0.7874015748031497
        },
        {
          "duration": 0.08333333333325754,
          "durationTicks": 40,
          "midi": 60,
          "name": "C4",
          "ticks": 416880,
          "time": 1291.9198423333332,
          "velocity": 0.7874015748031497
        },
        {
          "duration": 0.08333333333348492,
          "durationTicks": 40,
          "midi": 59,
          "name": "B3",
          "ticks": 416920,
          "time": 1292.0031756666665,
          "velocity": 0.7874015748031497
        },
        {
          "duration": 0.08333333333325754,
          "durationTicks": 40,
          "midi": 60,
          "name": "C4",
          "ticks": 416960,
          "time": 1292.086509,
          "velocity": 0.7874015748031497
        },
        {
          "duration": 0.08333333333325754,
          "durationTicks": 40,
          "midi": 65,
          "name": "F4",
          "ticks": 417000,
          "time": 1292.1698423333332,
          "velocity": 0.7874015748031497
        },
        {
          "duration": 0.08333333333348492,
          "durationTicks": 40,
          "midi": 64,
          "name": "E4",
          "ticks": 417040,
          "time": 1292.2531756666665,
          "velocity": 0.7874015748031497
        },
        {
          "duration": 0.08333333333325754,
          "durationTicks": 40,
          "midi": 62,
          "name": "D4",
          "ticks": 417080,
          "time": 1292.336509,
          "velocity": 0.7874015748031497
        },
        {
          "duration": 0.08333333333325754,
          "durationTicks": 40,
          "midi": 60,
          "name": "C4",
          "ticks": 417120,
          "time": 1292.4198423333332,
          "velocity": 0.7874015748031497
        },
        {
          "duration": 0.08333333333348492,
          "durationTicks": 40,
          "midi": 62,
          "name": "D4",
          "ticks": 417160,
          "time": 1292.5031756666665,
          "velocity": 0.7874015748031497
        },
        {
          "duration": 0.08333333333325754,
          "durationTicks": 40,
          "midi": 60,
          "name": "C4",
          "ticks": 417200,
          "time": 1292.586509,
          "velocity": 0.7874015748031497
        },
        {
          "duration": 0.08333333333325754,
          "durationTicks": 40,
          "midi": 59,
          "name": "B3",
          "ticks": 417240,
          "time": 1292.6698423333332,
          "velocity": 0.7874015748031497
        },
        {
          "duration": 0.08333333333348492,
          "durationTicks": 40,
          "midi": 60,
          "name": "C4",
          "ticks": 417280,
          "time": 1292.7531756666665,
          "velocity": 0.7874015748031497
        },
        {
          "duration": 0.08333333333325754,
          "durationTicks": 40,
          "midi": 59,
          "name": "B3",
          "ticks": 417320,
          "time": 1292.836509,
          "velocity": 0.7874015748031497
        },
        {
          "duration": 0.08333333333325754,
          "durationTicks": 40,
          "midi": 57,
          "name": "A3",
          "ticks": 417360,
          "time": 1292.9198423333332,
          "velocity": 0.7874015748031497
        },
        {
          "duration": 0.08333333333348492,
          "durationTicks": 40,
          "midi": 59,
          "name": "B3",
          "ticks": 417400,
          "time": 1293.0031756666665,
          "velocity": 0.7874015748031497
        },
        {
          "duration": 0.08333333333325754,
          "durationTicks": 40,
          "midi": 57,
          "name": "A3",
          "ticks": 417440,
          "time": 1293.086509,
          "velocity": 0.7874015748031497
        },
        {
          "duration": 0.08333333333325754,
          "durationTicks": 40,
          "midi": 55,
          "name": "G3",
          "ticks": 417480,
          "time": 1293.1698423333332,
          "velocity": 0.7874015748031497
        },
        {
          "duration": 0.08333333333348492,
          "durationTicks": 40,
          "midi": 57,
          "name": "A3",
          "ticks": 417520,
          "time": 1293.2531756666665,
          "velocity": 0.7874015748031497
        },
        {
          "duration": 0.08333333333325754,
          "durationTicks": 40,
          "midi": 54,
          "name": "F#3",
          "ticks": 417560,
          "time": 1293.336509,
          "velocity": 0.7874015748031497
        },
        {
          "duration": 0.08333333333325754,
          "durationTicks": 40,
          "midi": 59,
          "name": "B3",
          "ticks": 417600,
          "time": 1293.4198423333332,
          "velocity": 0.7874015748031497
        },
        {
          "duration": 0.08333333333348492,
          "durationTicks": 40,
          "midi": 57,
          "name": "A3",
          "ticks": 417640,
          "time": 1293.5031756666665,
          "velocity": 0.7874015748031497
        },
        {
          "duration": 0.08333333333325754,
          "durationTicks": 40,
          "midi": 59,
          "name": "B3",
          "ticks": 417680,
          "time": 1293.586509,
          "velocity": 0.7874015748031497
        },
        {
          "duration": 0.08333333333325754,
          "durationTicks": 40,
          "midi": 64,
          "name": "E4",
          "ticks": 417720,
          "time": 1293.6698423333332,
          "velocity": 0.7874015748031497
        },
        {
          "duration": 0.08333333333348492,
          "durationTicks": 40,
          "midi": 62,
          "name": "D4",
          "ticks": 417760,
          "time": 1293.7531756666665,
          "velocity": 0.7874015748031497
        },
        {
          "duration": 0.08333333333325754,
          "durationTicks": 40,
          "midi": 60,
          "name": "C4",
          "ticks": 417800,
          "time": 1293.836509,
          "velocity": 0.7874015748031497
        },
        {
          "duration": 0.08333333333325754,
          "durationTicks": 40,
          "midi": 59,
          "name": "B3",
          "ticks": 417840,
          "time": 1293.9198423333332,
          "velocity": 0.7874015748031497
        },
        {
          "duration": 0.08333333333348492,
          "durationTicks": 40,
          "midi": 60,
          "name": "C4",
          "ticks": 417880,
          "time": 1294.0031756666665,
          "velocity": 0.7874015748031497
        },
        {
          "duration": 0.08333333333325754,
          "durationTicks": 40,
          "midi": 59,
          "name": "B3",
          "ticks": 417920,
          "time": 1294.086509,
          "velocity": 0.7874015748031497
        },
        {
          "duration": 0.08333333333325754,
          "durationTicks": 40,
          "midi": 57,
          "name": "A3",
          "ticks": 417960,
          "time": 1294.1698423333332,
          "velocity": 0.7874015748031497
        },
        {
          "duration": 0.08333333333348492,
          "durationTicks": 40,
          "midi": 59,
          "name": "B3",
          "ticks": 418000,
          "time": 1294.2531756666665,
          "velocity": 0.7874015748031497
        },
        {
          "duration": 0.08333333333325754,
          "durationTicks": 40,
          "midi": 57,
          "name": "A3",
          "ticks": 418040,
          "time": 1294.336509,
          "velocity": 0.7874015748031497
        },
        {
          "duration": 0.08333333333325754,
          "durationTicks": 40,
          "midi": 55,
          "name": "G3",
          "ticks": 418080,
          "time": 1294.4198423333332,
          "velocity": 0.7874015748031497
        },
        {
          "duration": 0.08333333333348492,
          "durationTicks": 40,
          "midi": 57,
          "name": "A3",
          "ticks": 418120,
          "time": 1294.5031756666665,
          "velocity": 0.7874015748031497
        },
        {
          "duration": 0.08333333333325754,
          "durationTicks": 40,
          "midi": 55,
          "name": "G3",
          "ticks": 418160,
          "time": 1294.586509,
          "velocity": 0.7874015748031497
        },
        {
          "duration": 0.08333333333325754,
          "durationTicks": 40,
          "midi": 54,
          "name": "F#3",
          "ticks": 418200,
          "time": 1294.6698423333332,
          "velocity": 0.7874015748031497
        },
        {
          "duration": 0.08333333333348492,
          "durationTicks": 40,
          "midi": 55,
          "name": "G3",
          "ticks": 418240,
          "time": 1294.7531756666665,
          "velocity": 0.7874015748031497
        },
        {
          "duration": 0.08333333333325754,
          "durationTicks": 40,
          "midi": 52,
          "name": "E3",
          "ticks": 418280,
          "time": 1294.836509,
          "velocity": 0.7874015748031497
        },
        {
          "duration": 0.08333333333325754,
          "durationTicks": 40,
          "midi": 57,
          "name": "A3",
          "ticks": 418320,
          "time": 1294.9198423333332,
          "velocity": 0.7874015748031497
        },
        {
          "duration": 0.08333333333348492,
          "durationTicks": 40,
          "midi": 55,
          "name": "G3",
          "ticks": 418360,
          "time": 1295.0031756666665,
          "velocity": 0.7874015748031497
        },
        {
          "duration": 0.08333333333325754,
          "durationTicks": 40,
          "midi": 57,
          "name": "A3",
          "ticks": 418400,
          "time": 1295.086509,
          "velocity": 0.7874015748031497
        },
        {
          "duration": 0.08333333333325754,
          "durationTicks": 40,
          "midi": 62,
          "name": "D4",
          "ticks": 418440,
          "time": 1295.1698423333332,
          "velocity": 0.7874015748031497
        },
        {
          "duration": 0.08333333333348492,
          "durationTicks": 40,
          "midi": 60,
          "name": "C4",
          "ticks": 418480,
          "time": 1295.2531756666665,
          "velocity": 0.7874015748031497
        },
        {
          "duration": 0.08333333333325754,
          "durationTicks": 40,
          "midi": 59,
          "name": "B3",
          "ticks": 418520,
          "time": 1295.336509,
          "velocity": 0.7874015748031497
        },
        {
          "duration": 0.08333333333325754,
          "durationTicks": 40,
          "midi": 57,
          "name": "A3",
          "ticks": 418560,
          "time": 1295.4198423333332,
          "velocity": 0.7874015748031497
        },
        {
          "duration": 0.08333333333348492,
          "durationTicks": 40,
          "midi": 59,
          "name": "B3",
          "ticks": 418600,
          "time": 1295.5031756666665,
          "velocity": 0.7874015748031497
        },
        {
          "duration": 0.08333333333325754,
          "durationTicks": 40,
          "midi": 57,
          "name": "A3",
          "ticks": 418640,
          "time": 1295.586509,
          "velocity": 0.7874015748031497
        },
        {
          "duration": 0.08333333333325754,
          "durationTicks": 40,
          "midi": 55,
          "name": "G3",
          "ticks": 418680,
          "time": 1295.6698423333332,
          "velocity": 0.7874015748031497
        },
        {
          "duration": 0.08333333333348492,
          "durationTicks": 40,
          "midi": 57,
          "name": "A3",
          "ticks": 418720,
          "time": 1295.7531756666665,
          "velocity": 0.7874015748031497
        },
        {
          "duration": 0.08333333333325754,
          "durationTicks": 40,
          "midi": 55,
          "name": "G3",
          "ticks": 418760,
          "time": 1295.836509,
          "velocity": 0.7874015748031497
        },
        {
          "duration": 0.08333333333325754,
          "durationTicks": 40,
          "midi": 54,
          "name": "F#3",
          "ticks": 418800,
          "time": 1295.9198423333332,
          "velocity": 0.7874015748031497
        },
        {
          "duration": 0.08333333333348492,
          "durationTicks": 40,
          "midi": 55,
          "name": "G3",
          "ticks": 418840,
          "time": 1296.0031756666665,
          "velocity": 0.7874015748031497
        },
        {
          "duration": 0.08333333333325754,
          "durationTicks": 40,
          "midi": 54,
          "name": "F#3",
          "ticks": 418880,
          "time": 1296.086509,
          "velocity": 0.7874015748031497
        },
        {
          "duration": 0.08333333333325754,
          "durationTicks": 40,
          "midi": 52,
          "name": "E3",
          "ticks": 418920,
          "time": 1296.1698423333332,
          "velocity": 0.7874015748031497
        },
        {
          "duration": 0.08333333333348492,
          "durationTicks": 40,
          "midi": 54,
          "name": "F#3",
          "ticks": 418960,
          "time": 1296.2531756666665,
          "velocity": 0.7874015748031497
        },
        {
          "duration": 0.08333333333325754,
          "durationTicks": 40,
          "midi": 52,
          "name": "E3",
          "ticks": 419000,
          "time": 1296.336509,
          "velocity": 0.7874015748031497
        },
        {
          "duration": 0.08333333333325754,
          "durationTicks": 40,
          "midi": 50,
          "name": "D3",
          "ticks": 419040,
          "time": 1296.4198423333332,
          "velocity": 0.7874015748031497
        },
        {
          "duration": 0.08333333333348492,
          "durationTicks": 40,
          "midi": 49,
          "name": "C#3",
          "ticks": 419080,
          "time": 1296.5031756666665,
          "velocity": 0.7874015748031497
        },
        {
          "duration": 0.08333333333325754,
          "durationTicks": 40,
          "midi": 50,
          "name": "D3",
          "ticks": 419120,
          "time": 1296.586509,
          "velocity": 0.7874015748031497
        },
        {
          "duration": 0.08333333333325754,
          "durationTicks": 40,
          "midi": 55,
          "name": "G3",
          "ticks": 419160,
          "time": 1296.6698423333332,
          "velocity": 0.7874015748031497
        },
        {
          "duration": 0.08333333333348492,
          "durationTicks": 40,
          "midi": 54,
          "name": "F#3",
          "ticks": 419200,
          "time": 1296.7531756666665,
          "velocity": 0.7874015748031497
        },
        {
          "duration": 0.08333333333325754,
          "durationTicks": 40,
          "midi": 52,
          "name": "E3",
          "ticks": 419240,
          "time": 1296.836509,
          "velocity": 0.7874015748031497
        },
        {
          "duration": 0.08333333333325754,
          "durationTicks": 40,
          "midi": 50,
          "name": "D3",
          "ticks": 419280,
          "time": 1296.9198423333332,
          "velocity": 0.7874015748031497
        },
        {
          "duration": 0.08333333333348492,
          "durationTicks": 40,
          "midi": 52,
          "name": "E3",
          "ticks": 419320,
          "time": 1297.0031756666665,
          "velocity": 0.7874015748031497
        },
        {
          "duration": 0.08333333333325754,
          "durationTicks": 40,
          "midi": 50,
          "name": "D3",
          "ticks": 419360,
          "time": 1297.086509,
          "velocity": 0.7874015748031497
        },
        {
          "duration": 0.08333333333325754,
          "durationTicks": 40,
          "midi": 48,
          "name": "C3",
          "ticks": 419400,
          "time": 1297.1698423333332,
          "velocity": 0.7874015748031497
        },
        {
          "duration": 0.08333333333348492,
          "durationTicks": 40,
          "midi": 50,
          "name": "D3",
          "ticks": 419440,
          "time": 1297.2531756666665,
          "velocity": 0.7874015748031497
        },
        {
          "duration": 0.08333333333325754,
          "durationTicks": 40,
          "midi": 48,
          "name": "C3",
          "ticks": 419480,
          "time": 1297.336509,
          "velocity": 0.7874015748031497
        },
        {
          "duration": 0.08333333333325754,
          "durationTicks": 40,
          "midi": 47,
          "name": "B2",
          "ticks": 419520,
          "time": 1297.4198423333332,
          "velocity": 0.7874015748031497
        },
        {
          "duration": 0.08333333333348492,
          "durationTicks": 40,
          "midi": 48,
          "name": "C3",
          "ticks": 419560,
          "time": 1297.5031756666665,
          "velocity": 0.7874015748031497
        },
        {
          "duration": 0.08333333333325754,
          "durationTicks": 40,
          "midi": 47,
          "name": "B2",
          "ticks": 419600,
          "time": 1297.586509,
          "velocity": 0.7874015748031497
        },
        {
          "duration": 0.08333333333325754,
          "durationTicks": 40,
          "midi": 45,
          "name": "A2",
          "ticks": 419640,
          "time": 1297.6698423333332,
          "velocity": 0.7874015748031497
        },
        {
          "duration": 0.08333333333348492,
          "durationTicks": 40,
          "midi": 47,
          "name": "B2",
          "ticks": 419680,
          "time": 1297.7531756666665,
          "velocity": 0.7874015748031497
        },
        {
          "duration": 0.08333333333325754,
          "durationTicks": 40,
          "midi": 45,
          "name": "A2",
          "ticks": 419720,
          "time": 1297.836509,
          "velocity": 0.7874015748031497
        },
        {
          "duration": 0.08333333333325754,
          "durationTicks": 40,
          "midi": 43,
          "name": "G2",
          "ticks": 419760,
          "time": 1297.9198423333332,
          "velocity": 0.7874015748031497
        },
        {
          "duration": 0.08333333333348492,
          "durationTicks": 40,
          "midi": 42,
          "name": "F#2",
          "ticks": 419800,
          "time": 1298.0031756666665,
          "velocity": 0.7874015748031497
        },
        {
          "duration": 0.08333333333325754,
          "durationTicks": 40,
          "midi": 43,
          "name": "G2",
          "ticks": 419840,
          "time": 1298.086509,
          "velocity": 0.7874015748031497
        },
        {
          "duration": 0.08333333333325754,
          "durationTicks": 40,
          "midi": 48,
          "name": "C3",
          "ticks": 419880,
          "time": 1298.1698423333332,
          "velocity": 0.7874015748031497
        },
        {
          "duration": 0.08333333333348492,
          "durationTicks": 40,
          "midi": 47,
          "name": "B2",
          "ticks": 419920,
          "time": 1298.2531756666665,
          "velocity": 0.7874015748031497
        },
        {
          "duration": 0.08333333333325754,
          "durationTicks": 40,
          "midi": 45,
          "name": "A2",
          "ticks": 419960,
          "time": 1298.336509,
          "velocity": 0.7874015748031497
        },
        {
          "duration": 0.08333333333325754,
          "durationTicks": 40,
          "midi": 43,
          "name": "G2",
          "ticks": 420000,
          "time": 1298.4198423333332,
          "velocity": 0.7874015748031497
        },
        {
          "duration": 0.08333333333348492,
          "durationTicks": 40,
          "midi": 45,
          "name": "A2",
          "ticks": 420040,
          "time": 1298.5031756666665,
          "velocity": 0.7874015748031497
        },
        {
          "duration": 0.08333333333325754,
          "durationTicks": 40,
          "midi": 43,
          "name": "G2",
          "ticks": 420080,
          "time": 1298.586509,
          "velocity": 0.7874015748031497
        },
        {
          "duration": 0.08333333333325754,
          "durationTicks": 40,
          "midi": 41,
          "name": "F2",
          "ticks": 420120,
          "time": 1298.6698423333332,
          "velocity": 0.7874015748031497
        },
        {
          "duration": 0.08333333333348492,
          "durationTicks": 40,
          "midi": 43,
          "name": "G2",
          "ticks": 420160,
          "time": 1298.7531756666665,
          "velocity": 0.7874015748031497
        },
        {
          "duration": 0.08333333333325754,
          "durationTicks": 40,
          "midi": 41,
          "name": "F2",
          "ticks": 420200,
          "time": 1298.836509,
          "velocity": 0.7874015748031497
        },
        {
          "duration": 0.08333333333325754,
          "durationTicks": 40,
          "midi": 40,
          "name": "E2",
          "ticks": 420240,
          "time": 1298.9198423333332,
          "velocity": 0.7874015748031497
        },
        {
          "duration": 0.08333333333348492,
          "durationTicks": 40,
          "midi": 41,
          "name": "F2",
          "ticks": 420280,
          "time": 1299.0031756666665,
          "velocity": 0.7874015748031497
        },
        {
          "duration": 0.08333333333325754,
          "durationTicks": 40,
          "midi": 40,
          "name": "E2",
          "ticks": 420320,
          "time": 1299.086509,
          "velocity": 0.7874015748031497
        },
        {
          "duration": 0.08333333333325754,
          "durationTicks": 40,
          "midi": 38,
          "name": "D2",
          "ticks": 420360,
          "time": 1299.1698423333332,
          "velocity": 0.7874015748031497
        },
        {
          "duration": 0.08333333333348492,
          "durationTicks": 40,
          "midi": 40,
          "name": "E2",
          "ticks": 420400,
          "time": 1299.2531756666665,
          "velocity": 0.7874015748031497
        },
        {
          "duration": 0.08333333333325754,
          "durationTicks": 40,
          "midi": 38,
          "name": "D2",
          "ticks": 420440,
          "time": 1299.336509,
          "velocity": 0.7874015748031497
        },
        {
          "duration": 0.25,
          "durationTicks": 120,
          "midi": 36,
          "name": "C2",
          "ticks": 420480,
          "time": 1299.4198423333332,
          "velocity": 0.7874015748031497
        },
        {
          "duration": 0.125,
          "durationTicks": 60,
          "midi": 55,
          "name": "G3",
          "ticks": 420660,
          "time": 1299.7948423333332,
          "velocity": 0.7874015748031497
        },
        {
          "duration": 1.375,
          "durationTicks": 660,
          "midi": 60,
          "name": "C4",
          "ticks": 420720,
          "time": 1299.9198423333332,
          "velocity": 0.7874015748031497
        },
        {
          "duration": 0.125,
          "durationTicks": 60,
          "midi": 59,
          "name": "B3",
          "ticks": 420900,
          "time": 1300.2948423333332,
          "velocity": 0.7874015748031497
        },
        {
          "duration": 0.375,
          "durationTicks": 180,
          "midi": 57,
          "name": "A3",
          "ticks": 420960,
          "time": 1300.4198423333332,
          "velocity": 0.7874015748031497
        },
        {
          "duration": 0.125,
          "durationTicks": 60,
          "midi": 55,
          "name": "G3",
          "ticks": 421140,
          "time": 1300.7948423333332,
          "velocity": 0.7874015748031497
        },
        {
          "duration": 0.375,
          "durationTicks": 180,
          "midi": 54,
          "name": "F#3",
          "ticks": 421200,
          "time": 1300.9198423333332,
          "velocity": 0.7874015748031497
        },
        {
          "duration": 0.125,
          "durationTicks": 60,
          "midi": 50,
          "name": "D3",
          "ticks": 421380,
          "time": 1301.2948423333332,
          "velocity": 0.7874015748031497
        },
        {
          "duration": 0.125,
          "durationTicks": 60,
          "midi": 62,
          "name": "D4",
          "ticks": 421380,
          "time": 1301.2948423333332,
          "velocity": 0.7874015748031497
        },
        {
          "duration": 0.375,
          "durationTicks": 180,
          "midi": 55,
          "name": "G3",
          "ticks": 421440,
          "time": 1301.4198423333332,
          "velocity": 0.7874015748031497
        },
        {
          "duration": 0.375,
          "durationTicks": 180,
          "midi": 59,
          "name": "B3",
          "ticks": 421440,
          "time": 1301.4198423333332,
          "velocity": 0.7874015748031497
        },
        {
          "duration": 0.125,
          "durationTicks": 60,
          "midi": 47,
          "name": "B2",
          "ticks": 421620,
          "time": 1301.7948423333332,
          "velocity": 0.7874015748031497
        },
        {
          "duration": 0.125,
          "durationTicks": 60,
          "midi": 55,
          "name": "G3",
          "ticks": 421620,
          "time": 1301.7948423333332,
          "velocity": 0.7874015748031497
        },
        {
          "duration": 0.375,
          "durationTicks": 180,
          "midi": 48,
          "name": "C3",
          "ticks": 421680,
          "time": 1301.9198423333332,
          "velocity": 0.7874015748031497
        },
        {
          "duration": 0.375,
          "durationTicks": 180,
          "midi": 57,
          "name": "A3",
          "ticks": 421680,
          "time": 1301.9198423333332,
          "velocity": 0.7874015748031497
        },
        {
          "duration": 0.125,
          "durationTicks": 60,
          "midi": 50,
          "name": "D3",
          "ticks": 421860,
          "time": 1302.2948423333332,
          "velocity": 0.7874015748031497
        },
        {
          "duration": 0.125,
          "durationTicks": 60,
          "midi": 54,
          "name": "F#3",
          "ticks": 421860,
          "time": 1302.2948423333332,
          "velocity": 0.7874015748031497
        },
        {
          "duration": 0.25,
          "durationTicks": 120,
          "midi": 43,
          "name": "G2",
          "ticks": 421920,
          "time": 1302.4198423333332,
          "velocity": 0.7874015748031497
        },
        {
          "duration": 0.25,
          "durationTicks": 120,
          "midi": 55,
          "name": "G3",
          "ticks": 421920,
          "time": 1302.4198423333332,
          "velocity": 0.7874015748031497
        },
        {
          "duration": 0.08333333333348492,
          "durationTicks": 40,
          "midi": 57,
          "name": "A3",
          "ticks": 422200,
          "time": 1303.0031756666665,
          "velocity": 0.7874015748031497
        },
        {
          "duration": 0.08333333333325754,
          "durationTicks": 40,
          "midi": 55,
          "name": "G3",
          "ticks": 422240,
          "time": 1303.086509,
          "velocity": 0.7874015748031497
        },
        {
          "duration": 0.08333333333325754,
          "durationTicks": 40,
          "midi": 54,
          "name": "F#3",
          "ticks": 422280,
          "time": 1303.1698423333332,
          "velocity": 0.7874015748031497
        },
        {
          "duration": 0.08333333333348492,
          "durationTicks": 40,
          "midi": 55,
          "name": "G3",
          "ticks": 422320,
          "time": 1303.2531756666665,
          "velocity": 0.7874015748031497
        },
        {
          "duration": 0.08333333333325754,
          "durationTicks": 40,
          "midi": 50,
          "name": "D3",
          "ticks": 422360,
          "time": 1303.336509,
          "velocity": 0.7874015748031497
        },
        {
          "duration": 0.08333333333325754,
          "durationTicks": 40,
          "midi": 47,
          "name": "B2",
          "ticks": 422400,
          "time": 1303.4198423333332,
          "velocity": 0.7874015748031497
        },
        {
          "duration": 0.08333333333348492,
          "durationTicks": 40,
          "midi": 45,
          "name": "A2",
          "ticks": 422440,
          "time": 1303.5031756666665,
          "velocity": 0.7874015748031497
        },
        {
          "duration": 0.08333333333325754,
          "durationTicks": 40,
          "midi": 42,
          "name": "F#2",
          "ticks": 422480,
          "time": 1303.586509,
          "velocity": 0.7874015748031497
        },
        {
          "duration": 0.25,
          "durationTicks": 120,
          "midi": 43,
          "name": "G2",
          "ticks": 422520,
          "time": 1303.6698423333332,
          "velocity": 0.7874015748031497
        },
        {
          "duration": 0.08522725000011633,
          "durationTicks": 30,
          "midi": 79,
          "name": "G5",
          "ticks": 426270,
          "time": 1313.8717338833333,
          "velocity": 0.7874015748031497
        },
        {
          "duration": 0.08522724999988895,
          "durationTicks": 30,
          "midi": 81,
          "name": "A5",
          "ticks": 426300,
          "time": 1313.9569611333334,
          "velocity": 0.7874015748031497
        },
        {
          "duration": 0.08522725000011633,
          "durationTicks": 30,
          "midi": 79,
          "name": "G5",
          "ticks": 426330,
          "time": 1314.0421883833333,
          "velocity": 0.7874015748031497
        },
        {
          "duration": 0.08522724999988895,
          "durationTicks": 30,
          "midi": 81,
          "name": "A5",
          "ticks": 426360,
          "time": 1314.1274156333334,
          "velocity": 0.7874015748031497
        },
        {
          "duration": 0.08522725000011633,
          "durationTicks": 30,
          "midi": 79,
          "name": "G5",
          "ticks": 426390,
          "time": 1314.2126428833333,
          "velocity": 0.7874015748031497
        },
        {
          "duration": 0.08522724999988895,
          "durationTicks": 30,
          "midi": 81,
          "name": "A5",
          "ticks": 426420,
          "time": 1314.2978701333334,
          "velocity": 0.7874015748031497
        },
        {
          "duration": 0.08522725000011633,
          "durationTicks": 30,
          "midi": 79,
          "name": "G5",
          "ticks": 426450,
          "time": 1314.3830973833333,
          "velocity": 0.7874015748031497
        },
        {
          "duration": 0.08522725000011633,
          "durationTicks": 30,
          "midi": 79,
          "name": "G5",
          "ticks": 426510,
          "time": 1314.5535518833333,
          "velocity": 0.7874015748031497
        },
        {
          "duration": 0.08522724999988895,
          "durationTicks": 30,
          "midi": 81,
          "name": "A5",
          "ticks": 426540,
          "time": 1314.6387791333334,
          "velocity": 0.7874015748031497
        },
        {
          "duration": 0.08522725000011633,
          "durationTicks": 30,
          "midi": 79,
          "name": "G5",
          "ticks": 426570,
          "time": 1314.7240063833333,
          "velocity": 0.7874015748031497
        },
        {
          "duration": 0.08522724999988895,
          "durationTicks": 30,
          "midi": 81,
          "name": "A5",
          "ticks": 426600,
          "time": 1314.8092336333334,
          "velocity": 0.7874015748031497
        },
        {
          "duration": 0.08522725000011633,
          "durationTicks": 30,
          "midi": 79,
          "name": "G5",
          "ticks": 426630,
          "time": 1314.8944608833333,
          "velocity": 0.7874015748031497
        },
        {
          "duration": 0.08522724999988895,
          "durationTicks": 30,
          "midi": 81,
          "name": "A5",
          "ticks": 426660,
          "time": 1314.9796881333334,
          "velocity": 0.7874015748031497
        },
        {
          "duration": 0.08522725000011633,
          "durationTicks": 30,
          "midi": 79,
          "name": "G5",
          "ticks": 426690,
          "time": 1315.0649153833333,
          "velocity": 0.7874015748031497
        },
        {
          "duration": 0.08522725000011633,
          "durationTicks": 30,
          "midi": 79,
          "name": "G5",
          "ticks": 426750,
          "time": 1315.2353698833333,
          "velocity": 0.7874015748031497
        },
        {
          "duration": 0.08522724999988895,
          "durationTicks": 30,
          "midi": 81,
          "name": "A5",
          "ticks": 426780,
          "time": 1315.3205971333334,
          "velocity": 0.7874015748031497
        },
        {
          "duration": 0.08522725000011633,
          "durationTicks": 30,
          "midi": 79,
          "name": "G5",
          "ticks": 426810,
          "time": 1315.4058243833333,
          "velocity": 0.7874015748031497
        },
        {
          "duration": 0.08522724999988895,
          "durationTicks": 30,
          "midi": 81,
          "name": "A5",
          "ticks": 426840,
          "time": 1315.4910516333334,
          "velocity": 0.7874015748031497
        },
        {
          "duration": 0.08522725000011633,
          "durationTicks": 30,
          "midi": 79,
          "name": "G5",
          "ticks": 426870,
          "time": 1315.5762788833333,
          "velocity": 0.7874015748031497
        },
        {
          "duration": 0.08522724999988895,
          "durationTicks": 30,
          "midi": 81,
          "name": "A5",
          "ticks": 426900,
          "time": 1315.6615061333334,
          "velocity": 0.7874015748031497
        },
        {
          "duration": 0.08522725000011633,
          "durationTicks": 30,
          "midi": 79,
          "name": "G5",
          "ticks": 426930,
          "time": 1315.7467333833333,
          "velocity": 0.7874015748031497
        },
        {
          "duration": 0.08522725000011633,
          "durationTicks": 30,
          "midi": 79,
          "name": "G5",
          "ticks": 426990,
          "time": 1315.9171878833333,
          "velocity": 0.7874015748031497
        },
        {
          "duration": 0.08522724999988895,
          "durationTicks": 30,
          "midi": 81,
          "name": "A5",
          "ticks": 427020,
          "time": 1316.0024151333334,
          "velocity": 0.7874015748031497
        },
        {
          "duration": 0.08522725000011633,
          "durationTicks": 30,
          "midi": 79,
          "name": "G5",
          "ticks": 427050,
          "time": 1316.0876423833333,
          "velocity": 0.7874015748031497
        },
        {
          "duration": 0.08522724999988895,
          "durationTicks": 30,
          "midi": 81,
          "name": "A5",
          "ticks": 427080,
          "time": 1316.1728696333334,
          "velocity": 0.7874015748031497
        },
        {
          "duration": 0.08522725000011633,
          "durationTicks": 30,
          "midi": 79,
          "name": "G5",
          "ticks": 427110,
          "time": 1316.2580968833333,
          "velocity": 0.7874015748031497
        },
        {
          "duration": 0.08522724999988895,
          "durationTicks": 30,
          "midi": 81,
          "name": "A5",
          "ticks": 427140,
          "time": 1316.3433241333335,
          "velocity": 0.7874015748031497
        },
        {
          "duration": 0.08522725000011633,
          "durationTicks": 30,
          "midi": 79,
          "name": "G5",
          "ticks": 427170,
          "time": 1316.4285513833333,
          "velocity": 0.7874015748031497
        },
        {
          "duration": 0.08522725000011633,
          "durationTicks": 30,
          "midi": 79,
          "name": "G5",
          "ticks": 427230,
          "time": 1316.5990058833333,
          "velocity": 0.7874015748031497
        },
        {
          "duration": 0.08522724999988895,
          "durationTicks": 30,
          "midi": 81,
          "name": "A5",
          "ticks": 427260,
          "time": 1316.6842331333335,
          "velocity": 0.7874015748031497
        },
        {
          "duration": 0.08522725000011633,
          "durationTicks": 30,
          "midi": 79,
          "name": "G5",
          "ticks": 427290,
          "time": 1316.7694603833334,
          "velocity": 0.7874015748031497
        },
        {
          "duration": 0.08522724999988895,
          "durationTicks": 30,
          "midi": 81,
          "name": "A5",
          "ticks": 427320,
          "time": 1316.8546876333335,
          "velocity": 0.7874015748031497
        },
        {
          "duration": 0.08522724999988895,
          "durationTicks": 30,
          "midi": 79,
          "name": "G5",
          "ticks": 427350,
          "time": 1316.9399148833334,
          "velocity": 0.7874015748031497
        },
        {
          "duration": 0.08522725000011633,
          "durationTicks": 30,
          "midi": 81,
          "name": "A5",
          "ticks": 427380,
          "time": 1317.0251421333332,
          "velocity": 0.7874015748031497
        },
        {
          "duration": 0.08522724999988895,
          "durationTicks": 30,
          "midi": 79,
          "name": "G5",
          "ticks": 427410,
          "time": 1317.1103693833334,
          "velocity": 0.7874015748031497
        },
        {
          "duration": 0.08522724999988895,
          "durationTicks": 30,
          "midi": 79,
          "name": "G5",
          "ticks": 427470,
          "time": 1317.2808238833334,
          "velocity": 0.7874015748031497
        },
        {
          "duration": 0.08522725000011633,
          "durationTicks": 30,
          "midi": 81,
          "name": "A5",
          "ticks": 427500,
          "time": 1317.3660511333333,
          "velocity": 0.7874015748031497
        },
        {
          "duration": 0.08522724999988895,
          "durationTicks": 30,
          "midi": 79,
          "name": "G5",
          "ticks": 427530,
          "time": 1317.4512783833334,
          "velocity": 0.7874015748031497
        },
        {
          "duration": 0.08522725000011633,
          "durationTicks": 30,
          "midi": 81,
          "name": "A5",
          "ticks": 427560,
          "time": 1317.5365056333333,
          "velocity": 0.7874015748031497
        },
        {
          "duration": 0.08522724999988895,
          "durationTicks": 30,
          "midi": 79,
          "name": "G5",
          "ticks": 427590,
          "time": 1317.6217328833334,
          "velocity": 0.7874015748031497
        },
        {
          "duration": 0.08522725000011633,
          "durationTicks": 30,
          "midi": 81,
          "name": "A5",
          "ticks": 427620,
          "time": 1317.7069601333333,
          "velocity": 0.7874015748031497
        },
        {
          "duration": 0.08522724999988895,
          "durationTicks": 30,
          "midi": 79,
          "name": "G5",
          "ticks": 427650,
          "time": 1317.7921873833334,
          "velocity": 0.7874015748031497
        },
        {
          "duration": 0.08522724999988895,
          "durationTicks": 30,
          "midi": 79,
          "name": "G5",
          "ticks": 427710,
          "time": 1317.9626418833334,
          "velocity": 0.7874015748031497
        },
        {
          "duration": 0.08522725000011633,
          "durationTicks": 30,
          "midi": 81,
          "name": "A5",
          "ticks": 427740,
          "time": 1318.0478691333333,
          "velocity": 0.7874015748031497
        },
        {
          "duration": 0.08522724999988895,
          "durationTicks": 30,
          "midi": 79,
          "name": "G5",
          "ticks": 427770,
          "time": 1318.1330963833334,
          "velocity": 0.7874015748031497
        },
        {
          "duration": 0.08522725000011633,
          "durationTicks": 30,
          "midi": 81,
          "name": "A5",
          "ticks": 427800,
          "time": 1318.2183236333333,
          "velocity": 0.7874015748031497
        },
        {
          "duration": 0.08522724999988895,
          "durationTicks": 30,
          "midi": 79,
          "name": "G5",
          "ticks": 427830,
          "time": 1318.3035508833334,
          "velocity": 0.7874015748031497
        },
        {
          "duration": 0.08522725000011633,
          "durationTicks": 30,
          "midi": 81,
          "name": "A5",
          "ticks": 427860,
          "time": 1318.3887781333333,
          "velocity": 0.7874015748031497
        },
        {
          "duration": 0.08522724999988895,
          "durationTicks": 30,
          "midi": 79,
          "name": "G5",
          "ticks": 427890,
          "time": 1318.4740053833334,
          "velocity": 0.7874015748031497
        },
        {
          "duration": 0.08522724999988895,
          "durationTicks": 30,
          "midi": 79,
          "name": "G5",
          "ticks": 427950,
          "time": 1318.6444598833334,
          "velocity": 0.7874015748031497
        },
        {
          "duration": 0.08522725000011633,
          "durationTicks": 30,
          "midi": 81,
          "name": "A5",
          "ticks": 427980,
          "time": 1318.7296871333333,
          "velocity": 0.7874015748031497
        },
        {
          "duration": 0.08522724999988895,
          "durationTicks": 30,
          "midi": 79,
          "name": "G5",
          "ticks": 428010,
          "time": 1318.8149143833334,
          "velocity": 0.7874015748031497
        },
        {
          "duration": 0.08522725000011633,
          "durationTicks": 30,
          "midi": 81,
          "name": "A5",
          "ticks": 428040,
          "time": 1318.9001416333333,
          "velocity": 0.7874015748031497
        },
        {
          "duration": 0.08522724999988895,
          "durationTicks": 30,
          "midi": 79,
          "name": "G5",
          "ticks": 428070,
          "time": 1318.9853688833334,
          "velocity": 0.7874015748031497
        },
        {
          "duration": 0.08522725000011633,
          "durationTicks": 30,
          "midi": 81,
          "name": "A5",
          "ticks": 428100,
          "time": 1319.0705961333333,
          "velocity": 0.7874015748031497
        },
        {
          "duration": 0.08522724999988895,
          "durationTicks": 30,
          "midi": 79,
          "name": "G5",
          "ticks": 428130,
          "time": 1319.1558233833334,
          "velocity": 0.7874015748031497
        },
        {
          "duration": 0.08522724999988895,
          "durationTicks": 30,
          "midi": 79,
          "name": "G5",
          "ticks": 428190,
          "time": 1319.3262778833334,
          "velocity": 0.7874015748031497
        },
        {
          "duration": 0.08522725000011633,
          "durationTicks": 30,
          "midi": 81,
          "name": "A5",
          "ticks": 428220,
          "time": 1319.4115051333333,
          "velocity": 0.7874015748031497
        },
        {
          "duration": 0.08522724999988895,
          "durationTicks": 30,
          "midi": 79,
          "name": "G5",
          "ticks": 428250,
          "time": 1319.4967323833334,
          "velocity": 0.7874015748031497
        },
        {
          "duration": 0.08522725000011633,
          "durationTicks": 30,
          "midi": 81,
          "name": "A5",
          "ticks": 428280,
          "time": 1319.5819596333333,
          "velocity": 0.7874015748031497
        },
        {
          "duration": 0.08522724999988895,
          "durationTicks": 30,
          "midi": 79,
          "name": "G5",
          "ticks": 428310,
          "time": 1319.6671868833334,
          "velocity": 0.7874015748031497
        },
        {
          "duration": 0.08522725000011633,
          "durationTicks": 30,
          "midi": 81,
          "name": "A5",
          "ticks": 428340,
          "time": 1319.7524141333333,
          "velocity": 0.7874015748031497
        },
        {
          "duration": 0.08522724999988895,
          "durationTicks": 30,
          "midi": 79,
          "name": "G5",
          "ticks": 428370,
          "time": 1319.8376413833334,
          "velocity": 0.7874015748031497
        },
        {
          "duration": 0.08522724999988895,
          "durationTicks": 30,
          "midi": 79,
          "name": "G5",
          "ticks": 428430,
          "time": 1320.0080958833335,
          "velocity": 0.7874015748031497
        },
        {
          "duration": 0.08522725000011633,
          "durationTicks": 30,
          "midi": 81,
          "name": "A5",
          "ticks": 428460,
          "time": 1320.0933231333333,
          "velocity": 0.7874015748031497
        },
        {
          "duration": 0.08522724999988895,
          "durationTicks": 30,
          "midi": 79,
          "name": "G5",
          "ticks": 428490,
          "time": 1320.1785503833335,
          "velocity": 0.7874015748031497
        },
        {
          "duration": 0.08522725000011633,
          "durationTicks": 30,
          "midi": 81,
          "name": "A5",
          "ticks": 428520,
          "time": 1320.2637776333333,
          "velocity": 0.7874015748031497
        },
        {
          "duration": 0.08522724999988895,
          "durationTicks": 30,
          "midi": 79,
          "name": "G5",
          "ticks": 428550,
          "time": 1320.3490048833335,
          "velocity": 0.7874015748031497
        },
        {
          "duration": 0.08522724999988895,
          "durationTicks": 30,
          "midi": 81,
          "name": "A5",
          "ticks": 428580,
          "time": 1320.4342321333334,
          "velocity": 0.7874015748031497
        },
        {
          "duration": 0.08522725000011633,
          "durationTicks": 30,
          "midi": 79,
          "name": "G5",
          "ticks": 428610,
          "time": 1320.5194593833332,
          "velocity": 0.7874015748031497
        },
        {
          "duration": 0.08522725000011633,
          "durationTicks": 30,
          "midi": 79,
          "name": "G5",
          "ticks": 428670,
          "time": 1320.6899138833332,
          "velocity": 0.7874015748031497
        },
        {
          "duration": 0.08522724999988895,
          "durationTicks": 30,
          "midi": 81,
          "name": "A5",
          "ticks": 428700,
          "time": 1320.7751411333334,
          "velocity": 0.7874015748031497
        },
        {
          "duration": 0.08522725000011633,
          "durationTicks": 30,
          "midi": 79,
          "name": "G5",
          "ticks": 428730,
          "time": 1320.8603683833333,
          "velocity": 0.7874015748031497
        },
        {
          "duration": 0.08522724999988895,
          "durationTicks": 30,
          "midi": 81,
          "name": "A5",
          "ticks": 428760,
          "time": 1320.9455956333334,
          "velocity": 0.7874015748031497
        },
        {
          "duration": 0.08522725000011633,
          "durationTicks": 30,
          "midi": 79,
          "name": "G5",
          "ticks": 428790,
          "time": 1321.0308228833333,
          "velocity": 0.7874015748031497
        },
        {
          "duration": 0.08522724999988895,
          "durationTicks": 30,
          "midi": 81,
          "name": "A5",
          "ticks": 428820,
          "time": 1321.1160501333334,
          "velocity": 0.7874015748031497
        },
        {
          "duration": 0.08522725000011633,
          "durationTicks": 30,
          "midi": 79,
          "name": "G5",
          "ticks": 428850,
          "time": 1321.2012773833333,
          "velocity": 0.7874015748031497
        },
        {
          "duration": 0.08522725000011633,
          "durationTicks": 30,
          "midi": 79,
          "name": "G5",
          "ticks": 428910,
          "time": 1321.3717318833333,
          "velocity": 0.7874015748031497
        },
        {
          "duration": 0.08522724999988895,
          "durationTicks": 30,
          "midi": 81,
          "name": "A5",
          "ticks": 428940,
          "time": 1321.4569591333334,
          "velocity": 0.7874015748031497
        },
        {
          "duration": 0.08522725000011633,
          "durationTicks": 30,
          "midi": 79,
          "name": "G5",
          "ticks": 428970,
          "time": 1321.5421863833333,
          "velocity": 0.7874015748031497
        },
        {
          "duration": 0.08522724999988895,
          "durationTicks": 30,
          "midi": 81,
          "name": "A5",
          "ticks": 429000,
          "time": 1321.6274136333334,
          "velocity": 0.7874015748031497
        },
        {
          "duration": 0.08522725000011633,
          "durationTicks": 30,
          "midi": 79,
          "name": "G5",
          "ticks": 429030,
          "time": 1321.7126408833333,
          "velocity": 0.7874015748031497
        },
        {
          "duration": 0.08522724999988895,
          "durationTicks": 30,
          "midi": 81,
          "name": "A5",
          "ticks": 429060,
          "time": 1321.7978681333334,
          "velocity": 0.7874015748031497
        },
        {
          "duration": 0.08522725000011633,
          "durationTicks": 30,
          "midi": 79,
          "name": "G5",
          "ticks": 429090,
          "time": 1321.8830953833333,
          "velocity": 0.7874015748031497
        },
        {
          "duration": 0.17045450000000528,
          "durationTicks": 60,
          "midi": 67,
          "name": "G4",
          "ticks": 429120,
          "time": 1321.9683226333334,
          "velocity": 0.7874015748031497
        },
        {
          "duration": 0.17045450000000528,
          "durationTicks": 60,
          "midi": 71,
          "name": "B4",
          "ticks": 429180,
          "time": 1322.1387771333334,
          "velocity": 0.7874015748031497
        },
        {
          "duration": 0.17045450000000528,
          "durationTicks": 60,
          "midi": 69,
          "name": "A4",
          "ticks": 429240,
          "time": 1322.3092316333334,
          "velocity": 0.7874015748031497
        },
        {
          "duration": 0.08522724999988895,
          "durationTicks": 30,
          "midi": 78,
          "name": "F#5",
          "ticks": 429300,
          "time": 1322.4796861333334,
          "velocity": 0.7874015748031497
        },
        {
          "duration": 0.08522725000011633,
          "durationTicks": 30,
          "midi": 79,
          "name": "G5",
          "ticks": 429330,
          "time": 1322.5649133833333,
          "velocity": 0.7874015748031497
        },
        {
          "duration": 0.08522724999988895,
          "durationTicks": 30,
          "midi": 78,
          "name": "F#5",
          "ticks": 429360,
          "time": 1322.6501406333334,
          "velocity": 0.7874015748031497
        },
        {
          "duration": 0.08522725000011633,
          "durationTicks": 30,
          "midi": 79,
          "name": "G5",
          "ticks": 429390,
          "time": 1322.7353678833333,
          "velocity": 0.7874015748031497
        },
        {
          "duration": 0.08522724999988895,
          "durationTicks": 30,
          "midi": 78,
          "name": "F#5",
          "ticks": 429420,
          "time": 1322.8205951333334,
          "velocity": 0.7874015748031497
        },
        {
          "duration": 0.08522725000011633,
          "durationTicks": 30,
          "midi": 79,
          "name": "G5",
          "ticks": 429450,
          "time": 1322.9058223833333,
          "velocity": 0.7874015748031497
        },
        {
          "duration": 0.08522724999988895,
          "durationTicks": 30,
          "midi": 78,
          "name": "F#5",
          "ticks": 429480,
          "time": 1322.9910496333334,
          "velocity": 0.7874015748031497
        },
        {
          "duration": 0.08522725000011633,
          "durationTicks": 30,
          "midi": 79,
          "name": "G5",
          "ticks": 429510,
          "time": 1323.0762768833333,
          "velocity": 0.7874015748031497
        },
        {
          "duration": 0.08522724999988895,
          "durationTicks": 30,
          "midi": 78,
          "name": "F#5",
          "ticks": 429540,
          "time": 1323.1615041333334,
          "velocity": 0.7874015748031497
        },
        {
          "duration": 0.08522725000011633,
          "durationTicks": 30,
          "midi": 79,
          "name": "G5",
          "ticks": 429570,
          "time": 1323.2467313833333,
          "velocity": 0.7874015748031497
        },
        {
          "duration": 0.08522724999988895,
          "durationTicks": 30,
          "midi": 78,
          "name": "F#5",
          "ticks": 429600,
          "time": 1323.3319586333334,
          "velocity": 0.7874015748031497
        },
        {
          "duration": 0.08522725000011633,
          "durationTicks": 30,
          "midi": 79,
          "name": "G5",
          "ticks": 429630,
          "time": 1323.4171858833333,
          "velocity": 0.7874015748031497
        },
        {
          "duration": 0.08522724999988895,
          "durationTicks": 30,
          "midi": 78,
          "name": "F#5",
          "ticks": 429660,
          "time": 1323.5024131333334,
          "velocity": 0.7874015748031497
        },
        {
          "duration": 0.08522725000011633,
          "durationTicks": 30,
          "midi": 79,
          "name": "G5",
          "ticks": 429690,
          "time": 1323.5876403833333,
          "velocity": 0.7874015748031497
        },
        {
          "duration": 0.34090900000001056,
          "durationTicks": 120,
          "midi": 73,
          "name": "C#5",
          "ticks": 429720,
          "time": 1323.6728676333335,
          "velocity": 0.7874015748031497
        },
        {
          "duration": 0.17045450000000528,
          "durationTicks": 60,
          "midi": 66,
          "name": "F#4",
          "ticks": 429840,
          "time": 1324.0137766333335,
          "velocity": 0.7874015748031497
        },
        {
          "duration": 0.1704544999997779,
          "durationTicks": 60,
          "midi": 69,
          "name": "A4",
          "ticks": 429900,
          "time": 1324.1842311333335,
          "velocity": 0.7874015748031497
        },
        {
          "duration": 0.17045450000000528,
          "durationTicks": 60,
          "midi": 67,
          "name": "G4",
          "ticks": 429960,
          "time": 1324.3546856333332,
          "velocity": 0.7874015748031497
        },
        {
          "duration": 0.17045450000000528,
          "durationTicks": 60,
          "midi": 69,
          "name": "A4",
          "ticks": 430020,
          "time": 1324.5251401333333,
          "velocity": 0.7874015748031497
        },
        {
          "duration": 0.08522725000011633,
          "durationTicks": 30,
          "midi": 76,
          "name": "E5",
          "ticks": 430080,
          "time": 1324.6955946333333,
          "velocity": 0.7874015748031497
        },
        {
          "duration": 0.08522724999988895,
          "durationTicks": 30,
          "midi": 78,
          "name": "F#5",
          "ticks": 430110,
          "time": 1324.7808218833334,
          "velocity": 0.7874015748031497
        },
        {
          "duration": 0.08522725000011633,
          "durationTicks": 30,
          "midi": 76,
          "name": "E5",
          "ticks": 430140,
          "time": 1324.8660491333333,
          "velocity": 0.7874015748031497
        },
        {
          "duration": 0.08522724999988895,
          "durationTicks": 30,
          "midi": 78,
          "name": "F#5",
          "ticks": 430170,
          "time": 1324.9512763833334,
          "velocity": 0.7874015748031497
        },
        {
          "duration": 0.08522725000011633,
          "durationTicks": 30,
          "midi": 76,
          "name": "E5",
          "ticks": 430200,
          "time": 1325.0365036333333,
          "velocity": 0.7874015748031497
        },
        {
          "duration": 0.08522724999988895,
          "durationTicks": 30,
          "midi": 78,
          "name": "F#5",
          "ticks": 430230,
          "time": 1325.1217308833334,
          "velocity": 0.7874015748031497
        },
        {
          "duration": 0.08522725000011633,
          "durationTicks": 30,
          "midi": 76,
          "name": "E5",
          "ticks": 430260,
          "time": 1325.2069581333333,
          "velocity": 0.7874015748031497
        },
        {
          "duration": 0.08522724999988895,
          "durationTicks": 30,
          "midi": 78,
          "name": "F#5",
          "ticks": 430290,
          "time": 1325.2921853833334,
          "velocity": 0.7874015748031497
        },
        {
          "duration": 0.08522725000011633,
          "durationTicks": 30,
          "midi": 76,
          "name": "E5",
          "ticks": 430320,
          "time": 1325.3774126333333,
          "velocity": 0.7874015748031497
        },
        {
          "duration": 0.08522724999988895,
          "durationTicks": 30,
          "midi": 78,
          "name": "F#5",
          "ticks": 430350,
          "time": 1325.4626398833334,
          "velocity": 0.7874015748031497
        },
        {
          "duration": 0.08522725000011633,
          "durationTicks": 30,
          "midi": 76,
          "name": "E5",
          "ticks": 430380,
          "time": 1325.5478671333333,
          "velocity": 0.7874015748031497
        },
        {
          "duration": 0.08522724999988895,
          "durationTicks": 30,
          "midi": 78,
          "name": "F#5",
          "ticks": 430410,
          "time": 1325.6330943833334,
          "velocity": 0.7874015748031497
        },
        {
          "duration": 0.34090900000001056,
          "durationTicks": 120,
          "midi": 71,
          "name": "B4",
          "ticks": 430440,
          "time": 1325.7183216333333,
          "velocity": 0.7874015748031497
        },
        {
          "duration": 0.17045450000000528,
          "durationTicks": 60,
          "midi": 64,
          "name": "E4",
          "ticks": 430560,
          "time": 1326.0592306333333,
          "velocity": 0.7874015748031497
        },
        {
          "duration": 0.17045450000000528,
          "durationTicks": 60,
          "midi": 67,
          "name": "G4",
          "ticks": 430620,
          "time": 1326.2296851333333,
          "velocity": 0.7874015748031497
        },
        {
          "duration": 0.17045450000000528,
          "durationTicks": 60,
          "midi": 66,
          "name": "F#4",
          "ticks": 430680,
          "time": 1326.4001396333333,
          "velocity": 0.7874015748031497
        },
        {
          "duration": 0.17045450000000528,
          "durationTicks": 60,
          "midi": 67,
          "name": "G4",
          "ticks": 430740,
          "time": 1326.5705941333333,
          "velocity": 0.7874015748031497
        },
        {
          "duration": 0.17045450000000528,
          "durationTicks": 60,
          "midi": 71,
          "name": "B4",
          "ticks": 430800,
          "time": 1326.7410486333333,
          "velocity": 0.7874015748031497
        },
        {
          "duration": 0.17045450000000528,
          "durationTicks": 60,
          "midi": 76,
          "name": "E5",
          "ticks": 430860,
          "time": 1326.9115031333333,
          "velocity": 0.7874015748031497
        },
        {
          "duration": 0.17045450000000528,
          "durationTicks": 60,
          "midi": 75,
          "name": "D#5",
          "ticks": 430920,
          "time": 1327.0819576333333,
          "velocity": 0.7874015748031497
        },
        {
          "duration": 0.17045450000000528,
          "durationTicks": 60,
          "midi": 76,
          "name": "E5",
          "ticks": 430980,
          "time": 1327.2524121333333,
          "velocity": 0.7874015748031497
        },
        {
          "duration": 0.17045450000000528,
          "durationTicks": 60,
          "midi": 79,
          "name": "G5",
          "ticks": 431040,
          "time": 1327.4228666333333,
          "velocity": 0.7874015748031497
        },
        {
          "duration": 0.17045450000000528,
          "durationTicks": 60,
          "midi": 76,
          "name": "E5",
          "ticks": 431100,
          "time": 1327.5933211333333,
          "velocity": 0.7874015748031497
        },
        {
          "duration": 0.17045450000000528,
          "durationTicks": 60,
          "midi": 71,
          "name": "B4",
          "ticks": 431160,
          "time": 1327.7637756333334,
          "velocity": 0.7874015748031497
        },
        {
          "duration": 0.17045450000000528,
          "durationTicks": 60,
          "midi": 67,
          "name": "G4",
          "ticks": 431220,
          "time": 1327.9342301333334,
          "velocity": 0.7874015748031497
        },
        {
          "duration": 0.17045450000000528,
          "durationTicks": 60,
          "midi": 69,
          "name": "A4",
          "ticks": 431280,
          "time": 1328.1046846333334,
          "velocity": 0.7874015748031497
        },
        {
          "duration": 0.17045450000000528,
          "durationTicks": 60,
          "midi": 76,
          "name": "E5",
          "ticks": 431340,
          "time": 1328.2751391333334,
          "velocity": 0.7874015748031497
        },
        {
          "duration": 0.17045450000000528,
          "durationTicks": 60,
          "midi": 74,
          "name": "D5",
          "ticks": 431400,
          "time": 1328.4455936333334,
          "velocity": 0.7874015748031497
        },
        {
          "duration": 0.17045450000000528,
          "durationTicks": 60,
          "midi": 76,
          "name": "E5",
          "ticks": 431460,
          "time": 1328.6160481333334,
          "velocity": 0.7874015748031497
        },
        {
          "duration": 0.17045450000000528,
          "durationTicks": 60,
          "midi": 79,
          "name": "G5",
          "ticks": 431520,
          "time": 1328.7865026333334,
          "velocity": 0.7874015748031497
        },
        {
          "duration": 0.17045450000000528,
          "durationTicks": 60,
          "midi": 81,
          "name": "A5",
          "ticks": 431580,
          "time": 1328.9569571333334,
          "velocity": 0.7874015748031497
        },
        {
          "duration": 0.17045450000000528,
          "durationTicks": 60,
          "midi": 79,
          "name": "G5",
          "ticks": 431640,
          "time": 1329.1274116333334,
          "velocity": 0.7874015748031497
        },
        {
          "duration": 0.17045450000000528,
          "durationTicks": 60,
          "midi": 81,
          "name": "A5",
          "ticks": 431700,
          "time": 1329.2978661333334,
          "velocity": 0.7874015748031497
        },
        {
          "duration": 0.17045450000000528,
          "durationTicks": 60,
          "midi": 79,
          "name": "G5",
          "ticks": 431760,
          "time": 1329.4683206333334,
          "velocity": 0.7874015748031497
        },
        {
          "duration": 0.17045450000000528,
          "durationTicks": 60,
          "midi": 76,
          "name": "E5",
          "ticks": 431820,
          "time": 1329.6387751333334,
          "velocity": 0.7874015748031497
        },
        {
          "duration": 0.17045450000000528,
          "durationTicks": 60,
          "midi": 73,
          "name": "C#5",
          "ticks": 431880,
          "time": 1329.8092296333334,
          "velocity": 0.7874015748031497
        },
        {
          "duration": 0.17045450000000528,
          "durationTicks": 60,
          "midi": 69,
          "name": "A4",
          "ticks": 431940,
          "time": 1329.9796841333334,
          "velocity": 0.7874015748031497
        },
        {
          "duration": 0.08522725000011633,
          "durationTicks": 30,
          "midi": 66,
          "name": "F#4",
          "ticks": 432030,
          "time": 1330.2353658833333,
          "velocity": 0.7874015748031497
        },
        {
          "duration": 0.08522724999988895,
          "durationTicks": 30,
          "midi": 67,
          "name": "G4",
          "ticks": 432060,
          "time": 1330.3205931333334,
          "velocity": 0.7874015748031497
        },
        {
          "duration": 0.08522725000011633,
          "durationTicks": 30,
          "midi": 66,
          "name": "F#4",
          "ticks": 432090,
          "time": 1330.4058203833333,
          "velocity": 0.7874015748031497
        },
        {
          "duration": 0.08522724999988895,
          "durationTicks": 30,
          "midi": 67,
          "name": "G4",
          "ticks": 432120,
          "time": 1330.4910476333334,
          "velocity": 0.7874015748031497
        },
        {
          "duration": 0.08522725000011633,
          "durationTicks": 30,
          "midi": 66,
          "name": "F#4",
          "ticks": 432150,
          "time": 1330.5762748833333,
          "velocity": 0.7874015748031497
        },
        {
          "duration": 0.08522724999988895,
          "durationTicks": 30,
          "midi": 67,
          "name": "G4",
          "ticks": 432180,
          "time": 1330.6615021333334,
          "velocity": 0.7874015748031497
        },
        {
          "duration": 0.08522725000011633,
          "durationTicks": 30,
          "midi": 66,
          "name": "F#4",
          "ticks": 432210,
          "time": 1330.7467293833333,
          "velocity": 0.7874015748031497
        },
        {
          "duration": 0.08522725000011633,
          "durationTicks": 30,
          "midi": 66,
          "name": "F#4",
          "ticks": 432270,
          "time": 1330.9171838833333,
          "velocity": 0.7874015748031497
        },
        {
          "duration": 0.08522724999988895,
          "durationTicks": 30,
          "midi": 67,
          "name": "G4",
          "ticks": 432300,
          "time": 1331.0024111333335,
          "velocity": 0.7874015748031497
        },
        {
          "duration": 0.08522725000011633,
          "durationTicks": 30,
          "midi": 66,
          "name": "F#4",
          "ticks": 432330,
          "time": 1331.0876383833333,
          "velocity": 0.7874015748031497
        },
        {
          "duration": 0.08522724999988895,
          "durationTicks": 30,
          "midi": 67,
          "name": "G4",
          "ticks": 432360,
          "time": 1331.1728656333335,
          "velocity": 0.7874015748031497
        },
        {
          "duration": 0.08522725000011633,
          "durationTicks": 30,
          "midi": 66,
          "name": "F#4",
          "ticks": 432390,
          "time": 1331.2580928833333,
          "velocity": 0.7874015748031497
        },
        {
          "duration": 0.08522724999988895,
          "durationTicks": 30,
          "midi": 67,
          "name": "G4",
          "ticks": 432420,
          "time": 1331.3433201333335,
          "velocity": 0.7874015748031497
        },
        {
          "duration": 0.08522724999988895,
          "durationTicks": 30,
          "midi": 66,
          "name": "F#4",
          "ticks": 432450,
          "time": 1331.4285473833334,
          "velocity": 0.7874015748031497
        },
        {
          "duration": 0.08522724999988895,
          "durationTicks": 30,
          "midi": 66,
          "name": "F#4",
          "ticks": 432510,
          "time": 1331.5990018833334,
          "velocity": 0.7874015748031497
        },
        {
          "duration": 0.08522725000011633,
          "durationTicks": 30,
          "midi": 67,
          "name": "G4",
          "ticks": 432540,
          "time": 1331.6842291333332,
          "velocity": 0.7874015748031497
        },
        {
          "duration": 0.08522724999988895,
          "durationTicks": 30,
          "midi": 66,
          "name": "F#4",
          "ticks": 432570,
          "time": 1331.7694563833334,
          "velocity": 0.7874015748031497
        },
        {
          "duration": 0.08522725000011633,
          "durationTicks": 30,
          "midi": 67,
          "name": "G4",
          "ticks": 432600,
          "time": 1331.8546836333333,
          "velocity": 0.7874015748031497
        },
        {
          "duration": 0.08522724999988895,
          "durationTicks": 30,
          "midi": 66,
          "name": "F#4",
          "ticks": 432630,
          "time": 1331.9399108833334,
          "velocity": 0.7874015748031497
        },
        {
          "duration": 0.08522725000011633,
          "durationTicks": 30,
          "midi": 67,
          "name": "G4",
          "ticks": 432660,
          "time": 1332.0251381333333,
          "velocity": 0.7874015748031497
        },
        {
          "duration": 0.08522724999988895,
          "durationTicks": 30,
          "midi": 66,
          "name": "F#4",
          "ticks": 432690,
          "time": 1332.1103653833334,
          "velocity": 0.7874015748031497
        },
        {
          "duration": 0.08522724999988895,
          "durationTicks": 30,
          "midi": 66,
          "name": "F#4",
          "ticks": 432750,
          "time": 1332.2808198833334,
          "velocity": 0.7874015748031497
        },
        {
          "duration": 0.08522725000011633,
          "durationTicks": 30,
          "midi": 67,
          "name": "G4",
          "ticks": 432780,
          "time": 1332.3660471333333,
          "velocity": 0.7874015748031497
        },
        {
          "duration": 0.08522724999988895,
          "durationTicks": 30,
          "midi": 66,
          "name": "F#4",
          "ticks": 432810,
          "time": 1332.4512743833334,
          "velocity": 0.7874015748031497
        },
        {
          "duration": 0.08522725000011633,
          "durationTicks": 30,
          "midi": 67,
          "name": "G4",
          "ticks": 432840,
          "time": 1332.5365016333333,
          "velocity": 0.7874015748031497
        },
        {
          "duration": 0.08522724999988895,
          "durationTicks": 30,
          "midi": 66,
          "name": "F#4",
          "ticks": 432870,
          "time": 1332.6217288833334,
          "velocity": 0.7874015748031497
        },
        {
          "duration": 0.08522725000011633,
          "durationTicks": 30,
          "midi": 67,
          "name": "G4",
          "ticks": 432900,
          "time": 1332.7069561333333,
          "velocity": 0.7874015748031497
        },
        {
          "duration": 0.08522724999988895,
          "durationTicks": 30,
          "midi": 66,
          "name": "F#4",
          "ticks": 432930,
          "time": 1332.7921833833334,
          "velocity": 0.7874015748031497
        },
        {
          "duration": 0.08522724999988895,
          "durationTicks": 30,
          "midi": 66,
          "name": "F#4",
          "ticks": 432990,
          "time": 1332.9626378833334,
          "velocity": 0.7874015748031497
        },
        {
          "duration": 0.08522725000011633,
          "durationTicks": 30,
          "midi": 67,
          "name": "G4",
          "ticks": 433020,
          "time": 1333.0478651333333,
          "velocity": 0.7874015748031497
        },
        {
          "duration": 0.08522724999988895,
          "durationTicks": 30,
          "midi": 66,
          "name": "F#4",
          "ticks": 433050,
          "time": 1333.1330923833334,
          "velocity": 0.7874015748031497
        },
        {
          "duration": 0.08522725000011633,
          "durationTicks": 30,
          "midi": 67,
          "name": "G4",
          "ticks": 433080,
          "time": 1333.2183196333333,
          "velocity": 0.7874015748031497
        },
        {
          "duration": 0.08522724999988895,
          "durationTicks": 30,
          "midi": 66,
          "name": "F#4",
          "ticks": 433110,
          "time": 1333.3035468833334,
          "velocity": 0.7874015748031497
        },
        {
          "duration": 0.08522725000011633,
          "durationTicks": 30,
          "midi": 67,
          "name": "G4",
          "ticks": 433140,
          "time": 1333.3887741333333,
          "velocity": 0.7874015748031497
        },
        {
          "duration": 0.08522724999988895,
          "durationTicks": 30,
          "midi": 66,
          "name": "F#4",
          "ticks": 433170,
          "time": 1333.4740013833334,
          "velocity": 0.7874015748031497
        },
        {
          "duration": 0.08522724999988895,
          "durationTicks": 30,
          "midi": 66,
          "name": "F#4",
          "ticks": 433230,
          "time": 1333.6444558833334,
          "velocity": 0.7874015748031497
        },
        {
          "duration": 0.08522725000011633,
          "durationTicks": 30,
          "midi": 67,
          "name": "G4",
          "ticks": 433260,
          "time": 1333.7296831333333,
          "velocity": 0.7874015748031497
        },
        {
          "duration": 0.08522724999988895,
          "durationTicks": 30,
          "midi": 66,
          "name": "F#4",
          "ticks": 433290,
          "time": 1333.8149103833334,
          "velocity": 0.7874015748031497
        },
        {
          "duration": 0.08522725000011633,
          "durationTicks": 30,
          "midi": 67,
          "name": "G4",
          "ticks": 433320,
          "time": 1333.9001376333333,
          "velocity": 0.7874015748031497
        },
        {
          "duration": 0.08522724999988895,
          "durationTicks": 30,
          "midi": 66,
          "name": "F#4",
          "ticks": 433350,
          "time": 1333.9853648833334,
          "velocity": 0.7874015748031497
        },
        {
          "duration": 0.08522725000011633,
          "durationTicks": 30,
          "midi": 67,
          "name": "G4",
          "ticks": 433380,
          "time": 1334.0705921333333,
          "velocity": 0.7874015748031497
        },
        {
          "duration": 0.08522724999988895,
          "durationTicks": 30,
          "midi": 66,
          "name": "F#4",
          "ticks": 433410,
          "time": 1334.1558193833334,
          "velocity": 0.7874015748031497
        },
        {
          "duration": 0.08522724999988895,
          "durationTicks": 30,
          "midi": 66,
          "name": "F#4",
          "ticks": 433470,
          "time": 1334.3262738833334,
          "velocity": 0.7874015748031497
        },
        {
          "duration": 0.08522725000011633,
          "durationTicks": 30,
          "midi": 67,
          "name": "G4",
          "ticks": 433500,
          "time": 1334.4115011333333,
          "velocity": 0.7874015748031497
        },
        {
          "duration": 0.08522724999988895,
          "durationTicks": 30,
          "midi": 66,
          "name": "F#4",
          "ticks": 433530,
          "time": 1334.4967283833334,
          "velocity": 0.7874015748031497
        },
        {
          "duration": 0.08522725000011633,
          "durationTicks": 30,
          "midi": 67,
          "name": "G4",
          "ticks": 433560,
          "time": 1334.5819556333333,
          "velocity": 0.7874015748031497
        },
        {
          "duration": 0.08522724999988895,
          "durationTicks": 30,
          "midi": 66,
          "name": "F#4",
          "ticks": 433590,
          "time": 1334.6671828833335,
          "velocity": 0.7874015748031497
        },
        {
          "duration": 0.08522725000011633,
          "durationTicks": 30,
          "midi": 67,
          "name": "G4",
          "ticks": 433620,
          "time": 1334.7524101333333,
          "velocity": 0.7874015748031497
        },
        {
          "duration": 0.08522724999988895,
          "durationTicks": 30,
          "midi": 66,
          "name": "F#4",
          "ticks": 433650,
          "time": 1334.8376373833335,
          "velocity": 0.7874015748031497
        },
        {
          "duration": 0.08522724999988895,
          "durationTicks": 30,
          "midi": 66,
          "name": "F#4",
          "ticks": 433710,
          "time": 1335.0080918833335,
          "velocity": 0.7874015748031497
        },
        {
          "duration": 0.08522724999988895,
          "durationTicks": 30,
          "midi": 67,
          "name": "G4",
          "ticks": 433740,
          "time": 1335.0933191333334,
          "velocity": 0.7874015748031497
        },
        {
          "duration": 0.08522725000011633,
          "durationTicks": 30,
          "midi": 66,
          "name": "F#4",
          "ticks": 433770,
          "time": 1335.1785463833332,
          "velocity": 0.7874015748031497
        },
        {
          "duration": 0.08522724999988895,
          "durationTicks": 30,
          "midi": 67,
          "name": "G4",
          "ticks": 433800,
          "time": 1335.2637736333334,
          "velocity": 0.7874015748031497
        },
        {
          "duration": 0.08522725000011633,
          "durationTicks": 30,
          "midi": 66,
          "name": "F#4",
          "ticks": 433830,
          "time": 1335.3490008833332,
          "velocity": 0.7874015748031497
        },
        {
          "duration": 0.08522724999988895,
          "durationTicks": 30,
          "midi": 67,
          "name": "G4",
          "ticks": 433860,
          "time": 1335.4342281333334,
          "velocity": 0.7874015748031497
        },
        {
          "duration": 0.08522725000011633,
          "durationTicks": 30,
          "midi": 66,
          "name": "F#4",
          "ticks": 433890,
          "time": 1335.5194553833333,
          "velocity": 0.7874015748031497
        },
        {
          "duration": 0.08522725000011633,
          "durationTicks": 30,
          "midi": 64,
          "name": "E4",
          "ticks": 433950,
          "time": 1335.6899098833333,
          "velocity": 0.7874015748031497
        },
        {
          "duration": 0.08522724999988895,
          "durationTicks": 30,
          "midi": 66,
          "name": "F#4",
          "ticks": 433980,
          "time": 1335.7751371333334,
          "velocity": 0.7874015748031497
        },
        {
          "duration": 0.08522725000011633,
          "durationTicks": 30,
          "midi": 64,
          "name": "E4",
          "ticks": 434010,
          "time": 1335.8603643833333,
          "velocity": 0.7874015748031497
        },
        {
          "duration": 0.08522724999988895,
          "durationTicks": 30,
          "midi": 66,
          "name": "F#4",
          "ticks": 434040,
          "time": 1335.9455916333334,
          "velocity": 0.7874015748031497
        },
        {
          "duration": 0.08522725000011633,
          "durationTicks": 30,
          "midi": 64,
          "name": "E4",
          "ticks": 434070,
          "time": 1336.0308188833333,
          "velocity": 0.7874015748031497
        },
        {
          "duration": 0.08522724999988895,
          "durationTicks": 30,
          "midi": 66,
          "name": "F#4",
          "ticks": 434100,
          "time": 1336.1160461333334,
          "velocity": 0.7874015748031497
        },
        {
          "duration": 0.08522725000011633,
          "durationTicks": 30,
          "midi": 64,
          "name": "E4",
          "ticks": 434130,
          "time": 1336.2012733833333,
          "velocity": 0.7874015748031497
        },
        {
          "duration": 0.17045450000000528,
          "durationTicks": 60,
          "midi": 50,
          "name": "D3",
          "ticks": 434160,
          "time": 1336.2865006333334,
          "velocity": 0.7874015748031497
        },
        {
          "duration": 0.17045450000000528,
          "durationTicks": 60,
          "midi": 62,
          "name": "D4",
          "ticks": 434160,
          "time": 1336.2865006333334,
          "velocity": 0.7874015748031497
        },
        {
          "duration": 0.17045450000000528,
          "durationTicks": 60,
          "midi": 66,
          "name": "F#4",
          "ticks": 434220,
          "time": 1336.4569551333334,
          "velocity": 0.7874015748031497
        },
        {
          "duration": 0.17045450000000528,
          "durationTicks": 60,
          "midi": 69,
          "name": "A4",
          "ticks": 434220,
          "time": 1336.4569551333334,
          "velocity": 0.7874015748031497
        },
        {
          "duration": 0.17045450000000528,
          "durationTicks": 60,
          "midi": 64,
          "name": "E4",
          "ticks": 434280,
          "time": 1336.6274096333334,
          "velocity": 0.7874015748031497
        },
        {
          "duration": 0.17045450000000528,
          "durationTicks": 60,
          "midi": 67,
          "name": "G4",
          "ticks": 434280,
          "time": 1336.6274096333334,
          "velocity": 0.7874015748031497
        },
        {
          "duration": 0.17045450000000528,
          "durationTicks": 60,
          "midi": 66,
          "name": "F#4",
          "ticks": 434340,
          "time": 1336.7978641333334,
          "velocity": 0.7874015748031497
        },
        {
          "duration": 0.17045450000000528,
          "durationTicks": 60,
          "midi": 69,
          "name": "A4",
          "ticks": 434340,
          "time": 1336.7978641333334,
          "velocity": 0.7874015748031497
        },
        {
          "duration": 0.17045450000000528,
          "durationTicks": 60,
          "midi": 62,
          "name": "D4",
          "ticks": 434400,
          "time": 1336.9683186333334,
          "velocity": 0.7874015748031497
        },
        {
          "duration": 0.17045450000000528,
          "durationTicks": 60,
          "midi": 66,
          "name": "F#4",
          "ticks": 434400,
          "time": 1336.9683186333334,
          "velocity": 0.7874015748031497
        },
        {
          "duration": 0.17045450000000528,
          "durationTicks": 60,
          "midi": 66,
          "name": "F#4",
          "ticks": 434460,
          "time": 1337.1387731333334,
          "velocity": 0.7874015748031497
        },
        {
          "duration": 0.17045450000000528,
          "durationTicks": 60,
          "midi": 74,
          "name": "D5",
          "ticks": 434460,
          "time": 1337.1387731333334,
          "velocity": 0.7874015748031497
        },
        {
          "duration": 0.17045450000000528,
          "durationTicks": 60,
          "midi": 64,
          "name": "E4",
          "ticks": 434520,
          "time": 1337.3092276333334,
          "velocity": 0.7874015748031497
        },
        {
          "duration": 0.17045450000000528,
          "durationTicks": 60,
          "midi": 73,
          "name": "C#5",
          "ticks": 434520,
          "time": 1337.3092276333334,
          "velocity": 0.7874015748031497
        },
        {
          "duration": 0.17045450000000528,
          "durationTicks": 60,
          "midi": 66,
          "name": "F#4",
          "ticks": 434580,
          "time": 1337.4796821333334,
          "velocity": 0.7874015748031497
        },
        {
          "duration": 0.17045450000000528,
          "durationTicks": 60,
          "midi": 74,
          "name": "D5",
          "ticks": 434580,
          "time": 1337.4796821333334,
          "velocity": 0.7874015748031497
        },
        {
          "duration": 0.34090900000001056,
          "durationTicks": 120,
          "midi": 62,
          "name": "D4",
          "ticks": 434640,
          "time": 1337.6501366333334,
          "velocity": 0.7874015748031497
        },
        {
          "duration": 0.34090900000001056,
          "durationTicks": 120,
          "midi": 69,
          "name": "A4",
          "ticks": 434640,
          "time": 1337.6501366333334,
          "velocity": 0.7874015748031497
        },
        {
          "duration": 0.08522724999988895,
          "durationTicks": 30,
          "midi": 64,
          "name": "E4",
          "ticks": 434880,
          "time": 1338.3319546333335,
          "velocity": 0.7874015748031497
        },
        {
          "duration": 0.08522725000011633,
          "durationTicks": 30,
          "midi": 62,
          "name": "D4",
          "ticks": 434910,
          "time": 1338.4171818833333,
          "velocity": 0.7874015748031497
        },
        {
          "duration": 0.08522724999988895,
          "durationTicks": 30,
          "midi": 64,
          "name": "E4",
          "ticks": 434940,
          "time": 1338.5024091333335,
          "velocity": 0.7874015748031497
        },
        {
          "duration": 0.08522724999988895,
          "durationTicks": 30,
          "midi": 62,
          "name": "D4",
          "ticks": 434970,
          "time": 1338.5876363833333,
          "velocity": 0.7874015748031497
        },
        {
          "duration": 0.08522725000011633,
          "durationTicks": 30,
          "midi": 64,
          "name": "E4",
          "ticks": 435000,
          "time": 1338.6728636333332,
          "velocity": 0.7874015748031497
        },
        {
          "duration": 0.08522725000011633,
          "durationTicks": 30,
          "midi": 62,
          "name": "D4",
          "ticks": 435030,
          "time": 1338.7580908833334,
          "velocity": 0.7874015748031497
        },
        {
          "duration": 0.08522724999988895,
          "durationTicks": 30,
          "midi": 64,
          "name": "E4",
          "ticks": 435060,
          "time": 1338.8433181333335,
          "velocity": 0.7874015748031497
        },
        {
          "duration": 0.08522724999988895,
          "durationTicks": 30,
          "midi": 62,
          "name": "D4",
          "ticks": 435090,
          "time": 1338.9285453833334,
          "velocity": 0.7874015748031497
        },
        {
          "duration": 0.08522725000011633,
          "durationTicks": 30,
          "midi": 71,
          "name": "B4",
          "ticks": 435120,
          "time": 1339.0137726333332,
          "velocity": 0.7874015748031497
        },
        {
          "duration": 0.08522724999988895,
          "durationTicks": 30,
          "midi": 69,
          "name": "A4",
          "ticks": 435150,
          "time": 1339.0989998833334,
          "velocity": 0.7874015748031497
        },
        {
          "duration": 0.08522725000011633,
          "durationTicks": 30,
          "midi": 71,
          "name": "B4",
          "ticks": 435180,
          "time": 1339.1842271333333,
          "velocity": 0.7874015748031497
        },
        {
          "duration": 0.08522724999988895,
          "durationTicks": 30,
          "midi": 69,
          "name": "A4",
          "ticks": 435210,
          "time": 1339.2694543833334,
          "velocity": 0.7874015748031497
        },
        {
          "duration": 0.08522725000011633,
          "durationTicks": 30,
          "midi": 71,
          "name": "B4",
          "ticks": 435240,
          "time": 1339.3546816333333,
          "velocity": 0.7874015748031497
        },
        {
          "duration": 0.08522724999988895,
          "durationTicks": 30,
          "midi": 69,
          "name": "A4",
          "ticks": 435270,
          "time": 1339.4399088833334,
          "velocity": 0.7874015748031497
        },
        {
          "duration": 0.08522725000011633,
          "durationTicks": 30,
          "midi": 71,
          "name": "B4",
          "ticks": 435300,
          "time": 1339.5251361333333,
          "velocity": 0.7874015748031497
        },
        {
          "duration": 0.08522724999988895,
          "durationTicks": 30,
          "midi": 69,
          "name": "A4",
          "ticks": 435330,
          "time": 1339.6103633833334,
          "velocity": 0.7874015748031497
        },
        {
          "duration": 0.34090900000001056,
          "durationTicks": 120,
          "midi": 74,
          "name": "D5",
          "ticks": 435360,
          "time": 1339.6955906333333,
          "velocity": 0.7874015748031497
        },
        {
          "duration": 0.34090900000001056,
          "durationTicks": 120,
          "midi": 62,
          "name": "D4",
          "ticks": 435480,
          "time": 1340.0364996333333,
          "velocity": 0.7874015748031497
        },
        {
          "duration": 0.08522725000011633,
          "durationTicks": 30,
          "midi": 66,
          "name": "F#4",
          "ticks": 435600,
          "time": 1340.3774086333333,
          "velocity": 0.7874015748031497
        },
        {
          "duration": 0.08522724999988895,
          "durationTicks": 30,
          "midi": 67,
          "name": "G4",
          "ticks": 435630,
          "time": 1340.4626358833334,
          "velocity": 0.7874015748031497
        },
        {
          "duration": 0.08522725000011633,
          "durationTicks": 30,
          "midi": 66,
          "name": "F#4",
          "ticks": 435660,
          "time": 1340.5478631333333,
          "velocity": 0.7874015748031497
        },
        {
          "duration": 0.08522724999988895,
          "durationTicks": 30,
          "midi": 67,
          "name": "G4",
          "ticks": 435690,
          "time": 1340.6330903833334,
          "velocity": 0.7874015748031497
        },
        {
          "duration": 0.08522725000011633,
          "durationTicks": 30,
          "midi": 66,
          "name": "F#4",
          "ticks": 435720,
          "time": 1340.7183176333333,
          "velocity": 0.7874015748031497
        },
        {
          "duration": 0.08522724999988895,
          "durationTicks": 30,
          "midi": 67,
          "name": "G4",
          "ticks": 435750,
          "time": 1340.8035448833334,
          "velocity": 0.7874015748031497
        },
        {
          "duration": 0.08522725000011633,
          "durationTicks": 30,
          "midi": 66,
          "name": "F#4",
          "ticks": 435780,
          "time": 1340.8887721333333,
          "velocity": 0.7874015748031497
        },
        {
          "duration": 0.08522724999988895,
          "durationTicks": 30,
          "midi": 67,
          "name": "G4",
          "ticks": 435810,
          "time": 1340.9739993833334,
          "velocity": 0.7874015748031497
        },
        {
          "duration": 0.08522725000011633,
          "durationTicks": 30,
          "midi": 61,
          "name": "C#4",
          "ticks": 435840,
          "time": 1341.0592266333333,
          "velocity": 0.7874015748031497
        },
        {
          "duration": 0.08522724999988895,
          "durationTicks": 30,
          "midi": 62,
          "name": "D4",
          "ticks": 435870,
          "time": 1341.1444538833334,
          "velocity": 0.7874015748031497
        },
        {
          "duration": 0.08522725000011633,
          "durationTicks": 30,
          "midi": 61,
          "name": "C#4",
          "ticks": 435900,
          "time": 1341.2296811333333,
          "velocity": 0.7874015748031497
        },
        {
          "duration": 0.08522724999988895,
          "durationTicks": 30,
          "midi": 62,
          "name": "D4",
          "ticks": 435930,
          "time": 1341.3149083833334,
          "velocity": 0.7874015748031497
        },
        {
          "duration": 0.08522725000011633,
          "durationTicks": 30,
          "midi": 61,
          "name": "C#4",
          "ticks": 435960,
          "time": 1341.4001356333333,
          "velocity": 0.7874015748031497
        },
        {
          "duration": 0.08522724999988895,
          "durationTicks": 30,
          "midi": 62,
          "name": "D4",
          "ticks": 435990,
          "time": 1341.4853628833334,
          "velocity": 0.7874015748031497
        },
        {
          "duration": 0.08522725000011633,
          "durationTicks": 30,
          "midi": 61,
          "name": "C#4",
          "ticks": 436020,
          "time": 1341.5705901333333,
          "velocity": 0.7874015748031497
        },
        {
          "duration": 0.08522724999988895,
          "durationTicks": 30,
          "midi": 62,
          "name": "D4",
          "ticks": 436050,
          "time": 1341.6558173833334,
          "velocity": 0.7874015748031497
        },
        {
          "duration": 0.34090900000001056,
          "durationTicks": 120,
          "midi": 55,
          "name": "G3",
          "ticks": 436080,
          "time": 1341.7410446333333,
          "velocity": 0.7874015748031497
        },
        {
          "duration": 0.34090900000001056,
          "durationTicks": 120,
          "midi": 67,
          "name": "G4",
          "ticks": 436200,
          "time": 1342.0819536333333,
          "velocity": 0.7874015748031497
        },
        {
          "duration": 0.08522725000011633,
          "durationTicks": 30,
          "midi": 72,
          "name": "C5",
          "ticks": 436320,
          "time": 1342.4228626333334,
          "velocity": 0.7874015748031497
        },
        {
          "duration": 0.08522724999988895,
          "durationTicks": 30,
          "midi": 74,
          "name": "D5",
          "ticks": 436350,
          "time": 1342.5080898833335,
          "velocity": 0.7874015748031497
        },
        {
          "duration": 0.08522724999988895,
          "durationTicks": 30,
          "midi": 72,
          "name": "C5",
          "ticks": 436380,
          "time": 1342.5933171333334,
          "velocity": 0.7874015748031497
        },
        {
          "duration": 0.08522725000011633,
          "durationTicks": 30,
          "midi": 74,
          "name": "D5",
          "ticks": 436410,
          "time": 1342.6785443833332,
          "velocity": 0.7874015748031497
        },
        {
          "duration": 0.08522724999988895,
          "durationTicks": 30,
          "midi": 72,
          "name": "C5",
          "ticks": 436440,
          "time": 1342.7637716333334,
          "velocity": 0.7874015748031497
        },
        {
          "duration": 0.08522725000011633,
          "durationTicks": 30,
          "midi": 74,
          "name": "D5",
          "ticks": 436470,
          "time": 1342.8489988833333,
          "velocity": 0.7874015748031497
        },
        {
          "duration": 0.08522724999988895,
          "durationTicks": 30,
          "midi": 72,
          "name": "C5",
          "ticks": 436500,
          "time": 1342.9342261333334,
          "velocity": 0.7874015748031497
        },
        {
          "duration": 0.08522725000011633,
          "durationTicks": 30,
          "midi": 74,
          "name": "D5",
          "ticks": 436530,
          "time": 1343.0194533833333,
          "velocity": 0.7874015748031497
        },
        {
          "duration": 0.08522724999988895,
          "durationTicks": 30,
          "midi": 72,
          "name": "C5",
          "ticks": 436560,
          "time": 1343.1046806333334,
          "velocity": 0.7874015748031497
        },
        {
          "duration": 0.08522725000011633,
          "durationTicks": 30,
          "midi": 74,
          "name": "D5",
          "ticks": 436590,
          "time": 1343.1899078833333,
          "velocity": 0.7874015748031497
        },
        {
          "duration": 0.08522724999988895,
          "durationTicks": 30,
          "midi": 72,
          "name": "C5",
          "ticks": 436620,
          "time": 1343.2751351333334,
          "velocity": 0.7874015748031497
        },
        {
          "duration": 0.08522725000011633,
          "durationTicks": 30,
          "midi": 74,
          "name": "D5",
          "ticks": 436650,
          "time": 1343.3603623833333,
          "velocity": 0.7874015748031497
        },
        {
          "duration": 0.08522724999988895,
          "durationTicks": 30,
          "midi": 72,
          "name": "C5",
          "ticks": 436680,
          "time": 1343.4455896333334,
          "velocity": 0.7874015748031497
        },
        {
          "duration": 0.08522725000011633,
          "durationTicks": 30,
          "midi": 74,
          "name": "D5",
          "ticks": 436710,
          "time": 1343.5308168833333,
          "velocity": 0.7874015748031497
        },
        {
          "duration": 0.08522724999988895,
          "durationTicks": 30,
          "midi": 72,
          "name": "C5",
          "ticks": 436740,
          "time": 1343.6160441333334,
          "velocity": 0.7874015748031497
        },
        {
          "duration": 0.08522725000011633,
          "durationTicks": 30,
          "midi": 74,
          "name": "D5",
          "ticks": 436770,
          "time": 1343.7012713833333,
          "velocity": 0.7874015748031497
        },
        {
          "duration": 0.08522724999988895,
          "durationTicks": 30,
          "midi": 72,
          "name": "C5",
          "ticks": 436800,
          "time": 1343.7864986333334,
          "velocity": 0.7874015748031497
        },
        {
          "duration": 0.08522725000011633,
          "durationTicks": 30,
          "midi": 74,
          "name": "D5",
          "ticks": 436830,
          "time": 1343.8717258833333,
          "velocity": 0.7874015748031497
        },
        {
          "duration": 0.08522724999988895,
          "durationTicks": 30,
          "midi": 72,
          "name": "C5",
          "ticks": 436860,
          "time": 1343.9569531333334,
          "velocity": 0.7874015748031497
        },
        {
          "duration": 0.08522725000011633,
          "durationTicks": 30,
          "midi": 71,
          "name": "B4",
          "ticks": 436890,
          "time": 1344.0421803833333,
          "velocity": 0.7874015748031497
        },
        {
          "duration": 0.08522724999988895,
          "durationTicks": 30,
          "midi": 72,
          "name": "C5",
          "ticks": 436920,
          "time": 1344.1274076333334,
          "velocity": 0.7874015748031497
        },
        {
          "duration": 0.08522725000011633,
          "durationTicks": 30,
          "midi": 71,
          "name": "B4",
          "ticks": 436950,
          "time": 1344.2126348833333,
          "velocity": 0.7874015748031497
        },
        {
          "duration": 0.08522724999988895,
          "durationTicks": 30,
          "midi": 72,
          "name": "C5",
          "ticks": 436980,
          "time": 1344.2978621333334,
          "velocity": 0.7874015748031497
        },
        {
          "duration": 0.08522725000011633,
          "durationTicks": 30,
          "midi": 71,
          "name": "B4",
          "ticks": 437010,
          "time": 1344.3830893833333,
          "velocity": 0.7874015748031497
        },
        {
          "duration": 0.08522724999988895,
          "durationTicks": 30,
          "midi": 69,
          "name": "A4",
          "ticks": 437040,
          "time": 1344.4683166333334,
          "velocity": 0.7874015748031497
        },
        {
          "duration": 0.08522725000011633,
          "durationTicks": 30,
          "midi": 71,
          "name": "B4",
          "ticks": 437070,
          "time": 1344.5535438833333,
          "velocity": 0.7874015748031497
        },
        {
          "duration": 0.08522724999988895,
          "durationTicks": 30,
          "midi": 69,
          "name": "A4",
          "ticks": 437100,
          "time": 1344.6387711333334,
          "velocity": 0.7874015748031497
        },
        {
          "duration": 0.08522725000011633,
          "durationTicks": 30,
          "midi": 71,
          "name": "B4",
          "ticks": 437130,
          "time": 1344.7239983833333,
          "velocity": 0.7874015748031497
        },
        {
          "duration": 0.08522724999988895,
          "durationTicks": 30,
          "midi": 67,
          "name": "G4",
          "ticks": 437160,
          "time": 1344.8092256333334,
          "velocity": 0.7874015748031497
        },
        {
          "duration": 0.08522725000011633,
          "durationTicks": 30,
          "midi": 69,
          "name": "A4",
          "ticks": 437190,
          "time": 1344.8944528833333,
          "velocity": 0.7874015748031497
        },
        {
          "duration": 0.08522724999988895,
          "durationTicks": 30,
          "midi": 67,
          "name": "G4",
          "ticks": 437220,
          "time": 1344.9796801333334,
          "velocity": 0.7874015748031497
        },
        {
          "duration": 0.08522725000011633,
          "durationTicks": 30,
          "midi": 69,
          "name": "A4",
          "ticks": 437250,
          "time": 1345.0649073833333,
          "velocity": 0.7874015748031497
        },
        {
          "duration": 0.08522724999988895,
          "durationTicks": 30,
          "midi": 66,
          "name": "F#4",
          "ticks": 437280,
          "time": 1345.1501346333334,
          "velocity": 0.7874015748031497
        },
        {
          "duration": 0.08522725000011633,
          "durationTicks": 30,
          "midi": 67,
          "name": "G4",
          "ticks": 437310,
          "time": 1345.2353618833333,
          "velocity": 0.7874015748031497
        },
        {
          "duration": 0.08522724999988895,
          "durationTicks": 30,
          "midi": 66,
          "name": "F#4",
          "ticks": 437340,
          "time": 1345.3205891333334,
          "velocity": 0.7874015748031497
        },
        {
          "duration": 0.08522725000011633,
          "durationTicks": 30,
          "midi": 67,
          "name": "G4",
          "ticks": 437370,
          "time": 1345.4058163833333,
          "velocity": 0.7874015748031497
        },
        {
          "duration": 0.08522724999988895,
          "durationTicks": 30,
          "midi": 64,
          "name": "E4",
          "ticks": 437400,
          "time": 1345.4910436333334,
          "velocity": 0.7874015748031497
        },
        {
          "duration": 0.08522725000011633,
          "durationTicks": 30,
          "midi": 66,
          "name": "F#4",
          "ticks": 437430,
          "time": 1345.5762708833333,
          "velocity": 0.7874015748031497
        },
        {
          "duration": 0.08522724999988895,
          "durationTicks": 30,
          "midi": 64,
          "name": "E4",
          "ticks": 437460,
          "time": 1345.6614981333335,
          "velocity": 0.7874015748031497
        },
        {
          "duration": 0.08522725000011633,
          "durationTicks": 30,
          "midi": 66,
          "name": "F#4",
          "ticks": 437490,
          "time": 1345.7467253833333,
          "velocity": 0.7874015748031497
        },
        {
          "duration": 0.08522724999988895,
          "durationTicks": 30,
          "midi": 59,
          "name": "B3",
          "ticks": 437520,
          "time": 1345.8319526333335,
          "velocity": 0.7874015748031497
        },
        {
          "duration": 0.08522724999988895,
          "durationTicks": 30,
          "midi": 61,
          "name": "C#4",
          "ticks": 437550,
          "time": 1345.9171798833333,
          "velocity": 0.7874015748031497
        },
        {
          "duration": 0.08522725000011633,
          "durationTicks": 30,
          "midi": 63,
          "name": "D#4",
          "ticks": 437580,
          "time": 1346.0024071333332,
          "velocity": 0.7874015748031497
        },
        {
          "duration": 0.08522725000011633,
          "durationTicks": 30,
          "midi": 64,
          "name": "E4",
          "ticks": 437610,
          "time": 1346.0876343833334,
          "velocity": 0.7874015748031497
        },
        {
          "duration": 0.08522724999988895,
          "durationTicks": 30,
          "midi": 66,
          "name": "F#4",
          "ticks": 437640,
          "time": 1346.1728616333335,
          "velocity": 0.7874015748031497
        },
        {
          "duration": 0.08522724999988895,
          "durationTicks": 30,
          "midi": 67,
          "name": "G4",
          "ticks": 437670,
          "time": 1346.2580888833334,
          "velocity": 0.7874015748031497
        },
        {
          "duration": 0.08522725000011633,
          "durationTicks": 30,
          "midi": 69,
          "name": "A4",
          "ticks": 437700,
          "time": 1346.3433161333332,
          "velocity": 0.7874015748031497
        },
        {
          "duration": 0.08522724999988895,
          "durationTicks": 30,
          "midi": 76,
          "name": "E5",
          "ticks": 437790,
          "time": 1346.5989978833334,
          "velocity": 0.7874015748031497
        },
        {
          "duration": 0.08522725000011633,
          "durationTicks": 30,
          "midi": 78,
          "name": "F#5",
          "ticks": 437820,
          "time": 1346.6842251333333,
          "velocity": 0.7874015748031497
        },
        {
          "duration": 0.08522724999988895,
          "durationTicks": 30,
          "midi": 76,
          "name": "E5",
          "ticks": 437850,
          "time": 1346.7694523833334,
          "velocity": 0.7874015748031497
        },
        {
          "duration": 0.08522725000011633,
          "durationTicks": 30,
          "midi": 78,
          "name": "F#5",
          "ticks": 437880,
          "time": 1346.8546796333333,
          "velocity": 0.7874015748031497
        },
        {
          "duration": 0.08522724999988895,
          "durationTicks": 30,
          "midi": 76,
          "name": "E5",
          "ticks": 437910,
          "time": 1346.9399068833334,
          "velocity": 0.7874015748031497
        },
        {
          "duration": 0.08522725000011633,
          "durationTicks": 30,
          "midi": 78,
          "name": "F#5",
          "ticks": 437940,
          "time": 1347.0251341333333,
          "velocity": 0.7874015748031497
        },
        {
          "duration": 0.08522724999988895,
          "durationTicks": 30,
          "midi": 76,
          "name": "E5",
          "ticks": 437970,
          "time": 1347.1103613833334,
          "velocity": 0.7874015748031497
        },
        {
          "duration": 0.08522724999988895,
          "durationTicks": 30,
          "midi": 76,
          "name": "E5",
          "ticks": 438030,
          "time": 1347.2808158833334,
          "velocity": 0.7874015748031497
        },
        {
          "duration": 0.08522725000011633,
          "durationTicks": 30,
          "midi": 78,
          "name": "F#5",
          "ticks": 438060,
          "time": 1347.3660431333333,
          "velocity": 0.7874015748031497
        },
        {
          "duration": 0.08522724999988895,
          "durationTicks": 30,
          "midi": 76,
          "name": "E5",
          "ticks": 438090,
          "time": 1347.4512703833334,
          "velocity": 0.7874015748031497
        },
        {
          "duration": 0.08522725000011633,
          "durationTicks": 30,
          "midi": 78,
          "name": "F#5",
          "ticks": 438120,
          "time": 1347.5364976333333,
          "velocity": 0.7874015748031497
        },
        {
          "duration": 0.08522724999988895,
          "durationTicks": 30,
          "midi": 76,
          "name": "E5",
          "ticks": 438150,
          "time": 1347.6217248833334,
          "velocity": 0.7874015748031497
        },
        {
          "duration": 0.08522725000011633,
          "durationTicks": 30,
          "midi": 78,
          "name": "F#5",
          "ticks": 438180,
          "time": 1347.7069521333333,
          "velocity": 0.7874015748031497
        },
        {
          "duration": 0.08522724999988895,
          "durationTicks": 30,
          "midi": 76,
          "name": "E5",
          "ticks": 438210,
          "time": 1347.7921793833334,
          "velocity": 0.7874015748031497
        },
        {
          "duration": 0.08522724999988895,
          "durationTicks": 30,
          "midi": 76,
          "name": "E5",
          "ticks": 438270,
          "time": 1347.9626338833334,
          "velocity": 0.7874015748031497
        },
        {
          "duration": 0.08522725000011633,
          "durationTicks": 30,
          "midi": 78,
          "name": "F#5",
          "ticks": 438300,
          "time": 1348.0478611333333,
          "velocity": 0.7874015748031497
        },
        {
          "duration": 0.08522724999988895,
          "durationTicks": 30,
          "midi": 76,
          "name": "E5",
          "ticks": 438330,
          "time": 1348.1330883833334,
          "velocity": 0.7874015748031497
        },
        {
          "duration": 0.08522725000011633,
          "durationTicks": 30,
          "midi": 78,
          "name": "F#5",
          "ticks": 438360,
          "time": 1348.2183156333333,
          "velocity": 0.7874015748031497
        },
        {
          "duration": 0.08522724999988895,
          "durationTicks": 30,
          "midi": 76,
          "name": "E5",
          "ticks": 438390,
          "time": 1348.3035428833334,
          "velocity": 0.7874015748031497
        },
        {
          "duration": 0.08522725000011633,
          "durationTicks": 30,
          "midi": 78,
          "name": "F#5",
          "ticks": 438420,
          "time": 1348.3887701333333,
          "velocity": 0.7874015748031497
        },
        {
          "duration": 0.08522724999988895,
          "durationTicks": 30,
          "midi": 76,
          "name": "E5",
          "ticks": 438450,
          "time": 1348.4739973833334,
          "velocity": 0.7874015748031497
        },
        {
          "duration": 0.08522724999988895,
          "durationTicks": 30,
          "midi": 76,
          "name": "E5",
          "ticks": 438510,
          "time": 1348.6444518833334,
          "velocity": 0.7874015748031497
        },
        {
          "duration": 0.08522725000011633,
          "durationTicks": 30,
          "midi": 78,
          "name": "F#5",
          "ticks": 438540,
          "time": 1348.7296791333333,
          "velocity": 0.7874015748031497
        },
        {
          "duration": 0.08522724999988895,
          "durationTicks": 30,
          "midi": 76,
          "name": "E5",
          "ticks": 438570,
          "time": 1348.8149063833334,
          "velocity": 0.7874015748031497
        },
        {
          "duration": 0.08522725000011633,
          "durationTicks": 30,
          "midi": 78,
          "name": "F#5",
          "ticks": 438600,
          "time": 1348.9001336333333,
          "velocity": 0.7874015748031497
        },
        {
          "duration": 0.08522724999988895,
          "durationTicks": 30,
          "midi": 76,
          "name": "E5",
          "ticks": 438630,
          "time": 1348.9853608833334,
          "velocity": 0.7874015748031497
        },
        {
          "duration": 0.08522725000011633,
          "durationTicks": 30,
          "midi": 78,
          "name": "F#5",
          "ticks": 438660,
          "time": 1349.0705881333333,
          "velocity": 0.7874015748031497
        },
        {
          "duration": 0.08522724999988895,
          "durationTicks": 30,
          "midi": 76,
          "name": "E5",
          "ticks": 438690,
          "time": 1349.1558153833334,
          "velocity": 0.7874015748031497
        },
        {
          "duration": 0.08522724999988895,
          "durationTicks": 30,
          "midi": 76,
          "name": "E5",
          "ticks": 438750,
          "time": 1349.3262698833335,
          "velocity": 0.7874015748031497
        },
        {
          "duration": 0.08522725000011633,
          "durationTicks": 30,
          "midi": 78,
          "name": "F#5",
          "ticks": 438780,
          "time": 1349.4114971333333,
          "velocity": 0.7874015748031497
        },
        {
          "duration": 0.08522724999988895,
          "durationTicks": 30,
          "midi": 76,
          "name": "E5",
          "ticks": 438810,
          "time": 1349.4967243833335,
          "velocity": 0.7874015748031497
        },
        {
          "duration": 0.08522724999988895,
          "durationTicks": 30,
          "midi": 78,
          "name": "F#5",
          "ticks": 438840,
          "time": 1349.5819516333333,
          "velocity": 0.7874015748031497
        },
        {
          "duration": 0.08522725000011633,
          "durationTicks": 30,
          "midi": 76,
          "name": "E5",
          "ticks": 438870,
          "time": 1349.6671788833332,
          "velocity": 0.7874015748031497
        },
        {
          "duration": 0.08522725000011633,
          "durationTicks": 30,
          "midi": 78,
          "name": "F#5",
          "ticks": 438900,
          "time": 1349.7524061333334,
          "velocity": 0.7874015748031497
        },
        {
          "duration": 0.08522724999988895,
          "durationTicks": 30,
          "midi": 76,
          "name": "E5",
          "ticks": 438930,
          "time": 1349.8376333833335,
          "velocity": 0.7874015748031497
        },
        {
          "duration": 0.08522725000011633,
          "durationTicks": 30,
          "midi": 76,
          "name": "E5",
          "ticks": 438990,
          "time": 1350.0080878833332,
          "velocity": 0.7874015748031497
        },
        {
          "duration": 0.08522724999988895,
          "durationTicks": 30,
          "midi": 78,
          "name": "F#5",
          "ticks": 439020,
          "time": 1350.0933151333334,
          "velocity": 0.7874015748031497
        },
        {
          "duration": 0.08522725000011633,
          "durationTicks": 30,
          "midi": 76,
          "name": "E5",
          "ticks": 439050,
          "time": 1350.1785423833333,
          "velocity": 0.7874015748031497
        },
        {
          "duration": 0.08522724999988895,
          "durationTicks": 30,
          "midi": 78,
          "name": "F#5",
          "ticks": 439080,
          "time": 1350.2637696333334,
          "velocity": 0.7874015748031497
        },
        {
          "duration": 0.08522725000011633,
          "durationTicks": 30,
          "midi": 76,
          "name": "E5",
          "ticks": 439110,
          "time": 1350.3489968833333,
          "velocity": 0.7874015748031497
        },
        {
          "duration": 0.08522724999988895,
          "durationTicks": 30,
          "midi": 78,
          "name": "F#5",
          "ticks": 439140,
          "time": 1350.4342241333334,
          "velocity": 0.7874015748031497
        },
        {
          "duration": 0.08522725000011633,
          "durationTicks": 30,
          "midi": 76,
          "name": "E5",
          "ticks": 439170,
          "time": 1350.5194513833333,
          "velocity": 0.7874015748031497
        },
        {
          "duration": 0.08522725000011633,
          "durationTicks": 30,
          "midi": 76,
          "name": "E5",
          "ticks": 439230,
          "time": 1350.6899058833333,
          "velocity": 0.7874015748031497
        },
        {
          "duration": 0.08522724999988895,
          "durationTicks": 30,
          "midi": 78,
          "name": "F#5",
          "ticks": 439260,
          "time": 1350.7751331333334,
          "velocity": 0.7874015748031497
        },
        {
          "duration": 0.08522725000011633,
          "durationTicks": 30,
          "midi": 76,
          "name": "E5",
          "ticks": 439290,
          "time": 1350.8603603833333,
          "velocity": 0.7874015748031497
        },
        {
          "duration": 0.08522724999988895,
          "durationTicks": 30,
          "midi": 78,
          "name": "F#5",
          "ticks": 439320,
          "time": 1350.9455876333334,
          "velocity": 0.7874015748031497
        },
        {
          "duration": 0.08522725000011633,
          "durationTicks": 30,
          "midi": 76,
          "name": "E5",
          "ticks": 439350,
          "time": 1351.0308148833333,
          "velocity": 0.7874015748031497
        },
        {
          "duration": 0.08522724999988895,
          "durationTicks": 30,
          "midi": 78,
          "name": "F#5",
          "ticks": 439380,
          "time": 1351.1160421333334,
          "velocity": 0.7874015748031497
        },
        {
          "duration": 0.08522725000011633,
          "durationTicks": 30,
          "midi": 76,
          "name": "E5",
          "ticks": 439410,
          "time": 1351.2012693833333,
          "velocity": 0.7874015748031497
        },
        {
          "duration": 0.08522725000011633,
          "durationTicks": 30,
          "midi": 76,
          "name": "E5",
          "ticks": 439470,
          "time": 1351.3717238833333,
          "velocity": 0.7874015748031497
        },
        {
          "duration": 0.08522724999988895,
          "durationTicks": 30,
          "midi": 78,
          "name": "F#5",
          "ticks": 439500,
          "time": 1351.4569511333334,
          "velocity": 0.7874015748031497
        },
        {
          "duration": 0.08522725000011633,
          "durationTicks": 30,
          "midi": 76,
          "name": "E5",
          "ticks": 439530,
          "time": 1351.5421783833333,
          "velocity": 0.7874015748031497
        },
        {
          "duration": 0.08522724999988895,
          "durationTicks": 30,
          "midi": 78,
          "name": "F#5",
          "ticks": 439560,
          "time": 1351.6274056333334,
          "velocity": 0.7874015748031497
        },
        {
          "duration": 0.08522725000011633,
          "durationTicks": 30,
          "midi": 76,
          "name": "E5",
          "ticks": 439590,
          "time": 1351.7126328833333,
          "velocity": 0.7874015748031497
        },
        {
          "duration": 0.08522724999988895,
          "durationTicks": 30,
          "midi": 78,
          "name": "F#5",
          "ticks": 439620,
          "time": 1351.7978601333334,
          "velocity": 0.7874015748031497
        },
        {
          "duration": 0.08522725000011633,
          "durationTicks": 30,
          "midi": 76,
          "name": "E5",
          "ticks": 439650,
          "time": 1351.8830873833333,
          "velocity": 0.7874015748031497
        },
        {
          "duration": 0.08522725000011633,
          "durationTicks": 30,
          "midi": 75,
          "name": "D#5",
          "ticks": 439710,
          "time": 1352.0535418833333,
          "velocity": 0.7874015748031497
        },
        {
          "duration": 0.08522724999988895,
          "durationTicks": 30,
          "midi": 76,
          "name": "E5",
          "ticks": 439740,
          "time": 1352.1387691333334,
          "velocity": 0.7874015748031497
        },
        {
          "duration": 0.08522725000011633,
          "durationTicks": 30,
          "midi": 75,
          "name": "D#5",
          "ticks": 439770,
          "time": 1352.2239963833333,
          "velocity": 0.7874015748031497
        },
        {
          "duration": 0.08522724999988895,
          "durationTicks": 30,
          "midi": 76,
          "name": "E5",
          "ticks": 439800,
          "time": 1352.3092236333334,
          "velocity": 0.7874015748031497
        },
        {
          "duration": 0.08522725000011633,
          "durationTicks": 30,
          "midi": 75,
          "name": "D#5",
          "ticks": 439830,
          "time": 1352.3944508833333,
          "velocity": 0.7874015748031497
        },
        {
          "duration": 0.08522724999988895,
          "durationTicks": 30,
          "midi": 76,
          "name": "E5",
          "ticks": 439860,
          "time": 1352.4796781333334,
          "velocity": 0.7874015748031497
        },
        {
          "duration": 0.08522725000011633,
          "durationTicks": 30,
          "midi": 75,
          "name": "D#5",
          "ticks": 439890,
          "time": 1352.5649053833333,
          "velocity": 0.7874015748031497
        },
        {
          "duration": 0.3125,
          "durationTicks": 120,
          "midi": 55,
          "name": "G3",
          "ticks": 466320,
          "time": 1415.9632807333335,
          "velocity": 0.7874015748031497
        },
        {
          "duration": 0.3125,
          "durationTicks": 120,
          "midi": 57,
          "name": "A3",
          "ticks": 466440,
          "time": 1416.2757807333335,
          "velocity": 0.7874015748031497
        },
        {
          "duration": 0.3125,
          "durationTicks": 120,
          "midi": 59,
          "name": "B3",
          "ticks": 466560,
          "time": 1416.5882807333335,
          "velocity": 0.7874015748031497
        },
        {
          "duration": 0.3125,
          "durationTicks": 120,
          "midi": 60,
          "name": "C4",
          "ticks": 466680,
          "time": 1416.9007807333335,
          "velocity": 0.7874015748031497
        },
        {
          "duration": 0.3125,
          "durationTicks": 120,
          "midi": 62,
          "name": "D4",
          "ticks": 466800,
          "time": 1417.2132807333335,
          "velocity": 0.7874015748031497
        },
        {
          "duration": 0.15625,
          "durationTicks": 60,
          "midi": 60,
          "name": "C4",
          "ticks": 466920,
          "time": 1417.5257807333335,
          "velocity": 0.7874015748031497
        },
        {
          "duration": 0.15625,
          "durationTicks": 60,
          "midi": 59,
          "name": "B3",
          "ticks": 466980,
          "time": 1417.6820307333335,
          "velocity": 0.7874015748031497
        },
        {
          "duration": 0.3125,
          "durationTicks": 120,
          "midi": 57,
          "name": "A3",
          "ticks": 467040,
          "time": 1417.8382807333335,
          "velocity": 0.7874015748031497
        },
        {
          "duration": 0.15625,
          "durationTicks": 60,
          "midi": 55,
          "name": "G3",
          "ticks": 467160,
          "time": 1418.1507807333335,
          "velocity": 0.7874015748031497
        },
        {
          "duration": 0.15625,
          "durationTicks": 60,
          "midi": 57,
          "name": "A3",
          "ticks": 467220,
          "time": 1418.3070307333335,
          "velocity": 0.7874015748031497
        },
        {
          "duration": 0.3125,
          "durationTicks": 120,
          "midi": 59,
          "name": "B3",
          "ticks": 467280,
          "time": 1418.4632807333335,
          "velocity": 0.7874015748031497
        },
        {
          "duration": 0.3125,
          "durationTicks": 120,
          "midi": 57,
          "name": "A3",
          "ticks": 467400,
          "time": 1418.7757807333335,
          "velocity": 0.7874015748031497
        },
        {
          "duration": 1.25,
          "durationTicks": 480,
          "midi": 55,
          "name": "G3",
          "ticks": 467520,
          "time": 1419.0882807333335,
          "velocity": 0.7874015748031497
        },
        {
          "duration": 0.3125,
          "durationTicks": 120,
          "midi": 54,
          "name": "F#3",
          "ticks": 468000,
          "time": 1420.3382807333335,
          "velocity": 0.7874015748031497
        },
        {
          "duration": 0.15625,
          "durationTicks": 60,
          "midi": 52,
          "name": "E3",
          "ticks": 468120,
          "time": 1420.6507807333335,
          "velocity": 0.7874015748031497
        },
        {
          "duration": 0.15625,
          "durationTicks": 60,
          "midi": 54,
          "name": "F#3",
          "ticks": 468180,
          "time": 1420.8070307333335,
          "velocity": 0.7874015748031497
        },
        {
          "duration": 0.9375,
          "durationTicks": 360,
          "midi": 55,
          "name": "G3",
          "ticks": 468240,
          "time": 1420.9632807333335,
          "velocity": 0.7874015748031497
        },
        {
          "duration": 0.3125,
          "durationTicks": 120,
          "midi": 62,
          "name": "D4",
          "ticks": 468600,
          "time": 1421.9007807333335,
          "velocity": 0.7874015748031497
        },
        {
          "duration": 0.3125,
          "durationTicks": 120,
          "midi": 60,
          "name": "C4",
          "ticks": 468720,
          "time": 1422.2132807333335,
          "velocity": 0.7874015748031497
        },
        {
          "duration": 0.3125,
          "durationTicks": 120,
          "midi": 59,
          "name": "B3",
          "ticks": 468840,
          "time": 1422.5257807333335,
          "velocity": 0.7874015748031497
        },
        {
          "duration": 0.3125,
          "durationTicks": 120,
          "midi": 57,
          "name": "A3",
          "ticks": 468960,
          "time": 1422.8382807333335,
          "velocity": 0.7874015748031497
        },
        {
          "duration": 0.3125,
          "durationTicks": 120,
          "midi": 55,
          "name": "G3",
          "ticks": 469080,
          "time": 1423.1507807333335,
          "velocity": 0.7874015748031497
        },
        {
          "duration": 0.078125,
          "durationTicks": 30,
          "midi": 55,
          "name": "G3",
          "ticks": 469200,
          "time": 1423.4632807333335,
          "velocity": 0.7874015748031497
        },
        {
          "duration": 0.078125,
          "durationTicks": 30,
          "midi": 54,
          "name": "F#3",
          "ticks": 469230,
          "time": 1423.5414057333335,
          "velocity": 0.7874015748031497
        },
        {
          "duration": 0.078125,
          "durationTicks": 30,
          "midi": 55,
          "name": "G3",
          "ticks": 469260,
          "time": 1423.6195307333335,
          "velocity": 0.7874015748031497
        },
        {
          "duration": 0.078125,
          "durationTicks": 30,
          "midi": 54,
          "name": "F#3",
          "ticks": 469290,
          "time": 1423.6976557333335,
          "velocity": 0.7874015748031497
        },
        {
          "duration": 0.078125,
          "durationTicks": 30,
          "midi": 55,
          "name": "G3",
          "ticks": 469320,
          "time": 1423.7757807333335,
          "velocity": 0.7874015748031497
        },
        {
          "duration": 0.078125,
          "durationTicks": 30,
          "midi": 54,
          "name": "F#3",
          "ticks": 469350,
          "time": 1423.8539057333335,
          "velocity": 0.7874015748031497
        },
        {
          "duration": 0.078125,
          "durationTicks": 30,
          "midi": 55,
          "name": "G3",
          "ticks": 469380,
          "time": 1423.9320307333335,
          "velocity": 0.7874015748031497
        },
        {
          "duration": 0.078125,
          "durationTicks": 30,
          "midi": 54,
          "name": "F#3",
          "ticks": 469410,
          "time": 1424.0101557333335,
          "velocity": 0.7874015748031497
        },
        {
          "duration": 0.078125,
          "durationTicks": 30,
          "midi": 55,
          "name": "G3",
          "ticks": 469440,
          "time": 1424.0882807333335,
          "velocity": 0.7874015748031497
        },
        {
          "duration": 0.078125,
          "durationTicks": 30,
          "midi": 54,
          "name": "F#3",
          "ticks": 469470,
          "time": 1424.1664057333335,
          "velocity": 0.7874015748031497
        },
        {
          "duration": 0.078125,
          "durationTicks": 30,
          "midi": 52,
          "name": "E3",
          "ticks": 469500,
          "time": 1424.2445307333335,
          "velocity": 0.7874015748031497
        },
        {
          "duration": 0.078125,
          "durationTicks": 30,
          "midi": 54,
          "name": "F#3",
          "ticks": 469530,
          "time": 1424.3226557333335,
          "velocity": 0.7874015748031497
        },
        {
          "duration": 1.25,
          "durationTicks": 480,
          "midi": 50,
          "name": "D3",
          "ticks": 469560,
          "time": 1424.4007807333335,
          "velocity": 0.7874015748031497
        },
        {
          "duration": 0.625,
          "durationTicks": 240,
          "midi": 67,
          "name": "G4",
          "ticks": 470160,
          "time": 1425.9632807333335,
          "velocity": 0.7874015748031497
        },
        {
          "duration": 0.625,
          "durationTicks": 240,
          "midi": 67,
          "name": "G4",
          "ticks": 470400,
          "time": 1426.5882807333335,
          "velocity": 0.7874015748031497
        },
        {
          "duration": 0.625,
          "durationTicks": 240,
          "midi": 69,
          "name": "A4",
          "ticks": 470640,
          "time": 1427.2132807333335,
          "velocity": 0.7874015748031497
        },
        {
          "duration": 0.625,
          "durationTicks": 240,
          "midi": 69,
          "name": "A4",
          "ticks": 470880,
          "time": 1427.8382807333335,
          "velocity": 0.7874015748031497
        },
        {
          "duration": 0.3125,
          "durationTicks": 120,
          "midi": 67,
          "name": "G4",
          "ticks": 471120,
          "time": 1428.4632807333335,
          "velocity": 0.7874015748031497
        },
        {
          "duration": 0.3125,
          "durationTicks": 120,
          "midi": 69,
          "name": "A4",
          "ticks": 471240,
          "time": 1428.7757807333335,
          "velocity": 0.7874015748031497
        },
        {
          "duration": 0.3125,
          "durationTicks": 120,
          "midi": 67,
          "name": "G4",
          "ticks": 471360,
          "time": 1429.0882807333335,
          "velocity": 0.7874015748031497
        },
        {
          "duration": 0.3125,
          "durationTicks": 120,
          "midi": 66,
          "name": "F#4",
          "ticks": 471480,
          "time": 1429.4007807333335,
          "velocity": 0.7874015748031497
        },
        {
          "duration": 0.3125,
          "durationTicks": 120,
          "midi": 64,
          "name": "E4",
          "ticks": 471600,
          "time": 1429.7132807333335,
          "velocity": 0.7874015748031497
        },
        {
          "duration": 0.3125,
          "durationTicks": 120,
          "midi": 62,
          "name": "D4",
          "ticks": 471720,
          "time": 1430.0257807333335,
          "velocity": 0.7874015748031497
        },
        {
          "duration": 0.3125,
          "durationTicks": 120,
          "midi": 61,
          "name": "C#4",
          "ticks": 471840,
          "time": 1430.3382807333335,
          "velocity": 0.7874015748031497
        },
        {
          "duration": 0.3125,
          "durationTicks": 120,
          "midi": 54,
          "name": "F#3",
          "ticks": 472080,
          "time": 1430.9632807333335,
          "velocity": 0.7874015748031497
        },
        {
          "duration": 0.3125,
          "durationTicks": 120,
          "midi": 55,
          "name": "G3",
          "ticks": 472200,
          "time": 1431.2757807333335,
          "velocity": 0.7874015748031497
        },
        {
          "duration": 0.3125,
          "durationTicks": 120,
          "midi": 57,
          "name": "A3",
          "ticks": 472320,
          "time": 1431.5882807333335,
          "velocity": 0.7874015748031497
        },
        {
          "duration": 0.3125,
          "durationTicks": 120,
          "midi": 54,
          "name": "F#3",
          "ticks": 472440,
          "time": 1431.9007807333335,
          "velocity": 0.7874015748031497
        },
        {
          "duration": 0.3125,
          "durationTicks": 120,
          "midi": 55,
          "name": "G3",
          "ticks": 472560,
          "time": 1432.2132807333335,
          "velocity": 0.7874015748031497
        },
        {
          "duration": 0.3125,
          "durationTicks": 120,
          "midi": 54,
          "name": "F#3",
          "ticks": 472680,
          "time": 1432.5257807333335,
          "velocity": 0.7874015748031497
        },
        {
          "duration": 0.3125,
          "durationTicks": 120,
          "midi": 52,
          "name": "E3",
          "ticks": 472800,
          "time": 1432.8382807333335,
          "velocity": 0.7874015748031497
        },
        {
          "duration": 0.3125,
          "durationTicks": 120,
          "midi": 50,
          "name": "D3",
          "ticks": 472920,
          "time": 1433.1507807333335,
          "velocity": 0.7874015748031497
        },
        {
          "duration": 0.3125,
          "durationTicks": 120,
          "midi": 49,
          "name": "C#3",
          "ticks": 473040,
          "time": 1433.4632807333335,
          "velocity": 0.7874015748031497
        },
        {
          "duration": 0.3125,
          "durationTicks": 120,
          "midi": 50,
          "name": "D3",
          "ticks": 473160,
          "time": 1433.7757807333335,
          "velocity": 0.7874015748031497
        },
        {
          "duration": 0.3125,
          "durationTicks": 120,
          "midi": 52,
          "name": "E3",
          "ticks": 473280,
          "time": 1434.0882807333335,
          "velocity": 0.7874015748031497
        },
        {
          "duration": 0.3125,
          "durationTicks": 120,
          "midi": 49,
          "name": "C#3",
          "ticks": 473400,
          "time": 1434.4007807333335,
          "velocity": 0.7874015748031497
        },
        {
          "duration": 0.625,
          "durationTicks": 240,
          "midi": 50,
          "name": "D3",
          "ticks": 473520,
          "time": 1434.7132807333335,
          "velocity": 0.7874015748031497
        },
        {
          "duration": 0.3125,
          "durationTicks": 120,
          "midi": 50,
          "name": "D3",
          "ticks": 473760,
          "time": 1435.3382807333335,
          "velocity": 0.7874015748031497
        },
        {
          "duration": 0.3125,
          "durationTicks": 120,
          "midi": 50,
          "name": "D3",
          "ticks": 473880,
          "time": 1435.6507807333335,
          "velocity": 0.7874015748031497
        },
        {
          "duration": 0.3125,
          "durationTicks": 120,
          "midi": 62,
          "name": "D4",
          "ticks": 474000,
          "time": 1435.9632807333335,
          "velocity": 0.7874015748031497
        },
        {
          "duration": 0.3125,
          "durationTicks": 120,
          "midi": 66,
          "name": "F#4",
          "ticks": 474120,
          "time": 1436.2757807333335,
          "velocity": 0.7874015748031497
        },
        {
          "duration": 0.3125,
          "durationTicks": 120,
          "midi": 62,
          "name": "D4",
          "ticks": 474240,
          "time": 1436.5882807333335,
          "velocity": 0.7874015748031497
        },
        {
          "duration": 0.3125,
          "durationTicks": 120,
          "midi": 66,
          "name": "F#4",
          "ticks": 474360,
          "time": 1436.9007807333335,
          "velocity": 0.7874015748031497
        },
        {
          "duration": 0.3125,
          "durationTicks": 120,
          "midi": 67,
          "name": "G4",
          "ticks": 474480,
          "time": 1437.2132807333335,
          "velocity": 0.7874015748031497
        },
        {
          "duration": 0.3125,
          "durationTicks": 120,
          "midi": 62,
          "name": "D4",
          "ticks": 474600,
          "time": 1437.5257807333335,
          "velocity": 0.7874015748031497
        },
        {
          "duration": 0.3125,
          "durationTicks": 120,
          "midi": 62,
          "name": "D4",
          "ticks": 474720,
          "time": 1437.8382807333335,
          "velocity": 0.7874015748031497
        },
        {
          "duration": 0.3125,
          "durationTicks": 120,
          "midi": 67,
          "name": "G4",
          "ticks": 474840,
          "time": 1438.1507807333335,
          "velocity": 0.7874015748031497
        },
        {
          "duration": 0.3125,
          "durationTicks": 120,
          "midi": 64,
          "name": "E4",
          "ticks": 474960,
          "time": 1438.4632807333335,
          "velocity": 0.7874015748031497
        },
        {
          "duration": 0.625,
          "durationTicks": 240,
          "midi": 66,
          "name": "F#4",
          "ticks": 475440,
          "time": 1439.7132807333335,
          "velocity": 0.7874015748031497
        },
        {
          "duration": 0.625,
          "durationTicks": 240,
          "midi": 66,
          "name": "F#4",
          "ticks": 475680,
          "time": 1440.3382807333335,
          "velocity": 0.7874015748031497
        },
        {
          "duration": 0.625,
          "durationTicks": 240,
          "midi": 67,
          "name": "G4",
          "ticks": 475920,
          "time": 1440.9632807333335,
          "velocity": 0.7874015748031497
        },
        {
          "duration": 0.625,
          "durationTicks": 240,
          "midi": 67,
          "name": "G4",
          "ticks": 476160,
          "time": 1441.5882807333335,
          "velocity": 0.7874015748031497
        },
        {
          "duration": 0.3125,
          "durationTicks": 120,
          "midi": 66,
          "name": "F#4",
          "ticks": 476400,
          "time": 1442.2132807333335,
          "velocity": 0.7874015748031497
        },
        {
          "duration": 0.3125,
          "durationTicks": 120,
          "midi": 67,
          "name": "G4",
          "ticks": 476520,
          "time": 1442.5257807333335,
          "velocity": 0.7874015748031497
        },
        {
          "duration": 0.3125,
          "durationTicks": 120,
          "midi": 66,
          "name": "F#4",
          "ticks": 476640,
          "time": 1442.8382807333335,
          "velocity": 0.7874015748031497
        },
        {
          "duration": 0.3125,
          "durationTicks": 120,
          "midi": 64,
          "name": "E4",
          "ticks": 476760,
          "time": 1443.1507807333335,
          "velocity": 0.7874015748031497
        },
        {
          "duration": 0.3125,
          "durationTicks": 120,
          "midi": 63,
          "name": "D#4",
          "ticks": 476880,
          "time": 1443.4632807333335,
          "velocity": 0.7874015748031497
        },
        {
          "duration": 0.3125,
          "durationTicks": 120,
          "midi": 64,
          "name": "E4",
          "ticks": 477000,
          "time": 1443.7757807333335,
          "velocity": 0.7874015748031497
        },
        {
          "duration": 0.3125,
          "durationTicks": 120,
          "midi": 66,
          "name": "F#4",
          "ticks": 477120,
          "time": 1444.0882807333335,
          "velocity": 0.7874015748031497
        },
        {
          "duration": 0.3125,
          "durationTicks": 120,
          "midi": 47,
          "name": "B2",
          "ticks": 477240,
          "time": 1444.4007807333335,
          "velocity": 0.7874015748031497
        },
        {
          "duration": 0.3125,
          "durationTicks": 120,
          "midi": 59,
          "name": "B3",
          "ticks": 477240,
          "time": 1444.4007807333335,
          "velocity": 0.7874015748031497
        },
        {
          "duration": 0.3125,
          "durationTicks": 120,
          "midi": 59,
          "name": "B3",
          "ticks": 477360,
          "time": 1444.7132807333335,
          "velocity": 0.7874015748031497
        },
        {
          "duration": 0.15625,
          "durationTicks": 60,
          "midi": 57,
          "name": "A3",
          "ticks": 477480,
          "time": 1445.0257807333335,
          "velocity": 0.7874015748031497
        },
        {
          "duration": 0.15625,
          "durationTicks": 60,
          "midi": 59,
          "name": "B3",
          "ticks": 477540,
          "time": 1445.1820307333335,
          "velocity": 0.7874015748031497
        },
        {
          "duration": 0.3125,
          "durationTicks": 120,
          "midi": 55,
          "name": "G3",
          "ticks": 477600,
          "time": 1445.3382807333335,
          "velocity": 0.7874015748031497
        },
        {
          "duration": 0.15625,
          "durationTicks": 60,
          "midi": 57,
          "name": "A3",
          "ticks": 477720,
          "time": 1445.6507807333335,
          "velocity": 0.7874015748031497
        },
        {
          "duration": 0.15625,
          "durationTicks": 60,
          "midi": 59,
          "name": "B3",
          "ticks": 477780,
          "time": 1445.8070307333335,
          "velocity": 0.7874015748031497
        },
        {
          "duration": 0.3125,
          "durationTicks": 120,
          "midi": 60,
          "name": "C4",
          "ticks": 477840,
          "time": 1445.9632807333335,
          "velocity": 0.7874015748031497
        },
        {
          "duration": 0.3125,
          "durationTicks": 120,
          "midi": 62,
          "name": "D4",
          "ticks": 477960,
          "time": 1446.2757807333335,
          "velocity": 0.7874015748031497
        },
        {
          "duration": 0.3125,
          "durationTicks": 120,
          "midi": 64,
          "name": "E4",
          "ticks": 478080,
          "time": 1446.5882807333335,
          "velocity": 0.7874015748031497
        },
        {
          "duration": 0.3125,
          "durationTicks": 120,
          "midi": 66,
          "name": "F#4",
          "ticks": 478200,
          "time": 1446.9007807333335,
          "velocity": 0.7874015748031497
        },
        {
          "duration": 0.3125,
          "durationTicks": 120,
          "midi": 67,
          "name": "G4",
          "ticks": 478320,
          "time": 1447.2132807333335,
          "velocity": 0.7874015748031497
        },
        {
          "duration": 0.15625,
          "durationTicks": 60,
          "midi": 66,
          "name": "F#4",
          "ticks": 478440,
          "time": 1447.5257807333335,
          "velocity": 0.7874015748031497
        },
        {
          "duration": 0.15625,
          "durationTicks": 60,
          "midi": 64,
          "name": "E4",
          "ticks": 478500,
          "time": 1447.6820307333335,
          "velocity": 0.7874015748031497
        },
        {
          "duration": 0.3125,
          "durationTicks": 120,
          "midi": 62,
          "name": "D4",
          "ticks": 478560,
          "time": 1447.8382807333335,
          "velocity": 0.7874015748031497
        },
        {
          "duration": 0.3125,
          "durationTicks": 120,
          "midi": 69,
          "name": "A4",
          "ticks": 478920,
          "time": 1448.7757807333335,
          "velocity": 0.7874015748031497
        },
        {
          "duration": 0.3125,
          "durationTicks": 120,
          "midi": 64,
          "name": "E4",
          "ticks": 479040,
          "time": 1449.0882807333335,
          "velocity": 0.7874015748031497
        },
        {
          "duration": 0.15625,
          "durationTicks": 60,
          "midi": 62,
          "name": "D4",
          "ticks": 479160,
          "time": 1449.4007807333335,
          "velocity": 0.7874015748031497
        },
        {
          "duration": 0.15625,
          "durationTicks": 60,
          "midi": 64,
          "name": "E4",
          "ticks": 479220,
          "time": 1449.5570307333335,
          "velocity": 0.7874015748031497
        },
        {
          "duration": 0.3125,
          "durationTicks": 120,
          "midi": 66,
          "name": "F#4",
          "ticks": 479280,
          "time": 1449.7132807333335,
          "velocity": 0.7874015748031497
        },
        {
          "duration": 0.625,
          "durationTicks": 240,
          "midi": 67,
          "name": "G4",
          "ticks": 479400,
          "time": 1450.0257807333335,
          "velocity": 0.7874015748031497
        },
        {
          "duration": 0.3125,
          "durationTicks": 120,
          "midi": 66,
          "name": "F#4",
          "ticks": 479640,
          "time": 1450.6507807333335,
          "velocity": 0.7874015748031497
        },
        {
          "duration": 0.625,
          "durationTicks": 240,
          "midi": 62,
          "name": "D4",
          "ticks": 479760,
          "time": 1450.9632807333335,
          "velocity": 0.7874015748031497
        },
        {
          "duration": 0.625,
          "durationTicks": 240,
          "midi": 62,
          "name": "D4",
          "ticks": 480000,
          "time": 1451.5882807333335,
          "velocity": 0.7874015748031497
        },
        {
          "duration": 0.625,
          "durationTicks": 240,
          "midi": 64,
          "name": "E4",
          "ticks": 480240,
          "time": 1452.2132807333335,
          "velocity": 0.7874015748031497
        },
        {
          "duration": 0.625,
          "durationTicks": 240,
          "midi": 64,
          "name": "E4",
          "ticks": 480480,
          "time": 1452.8382807333335,
          "velocity": 0.7874015748031497
        },
        {
          "duration": 0.3125,
          "durationTicks": 120,
          "midi": 54,
          "name": "F#3",
          "ticks": 480720,
          "time": 1453.4632807333335,
          "velocity": 0.7874015748031497
        },
        {
          "duration": 0.3125,
          "durationTicks": 120,
          "midi": 62,
          "name": "D4",
          "ticks": 480720,
          "time": 1453.4632807333335,
          "velocity": 0.7874015748031497
        },
        {
          "duration": 0.3125,
          "durationTicks": 120,
          "midi": 55,
          "name": "G3",
          "ticks": 480840,
          "time": 1453.7757807333335,
          "velocity": 0.7874015748031497
        },
        {
          "duration": 0.3125,
          "durationTicks": 120,
          "midi": 64,
          "name": "E4",
          "ticks": 480840,
          "time": 1453.7757807333335,
          "velocity": 0.7874015748031497
        },
        {
          "duration": 0.3125,
          "durationTicks": 120,
          "midi": 54,
          "name": "F#3",
          "ticks": 480960,
          "time": 1454.0882807333335,
          "velocity": 0.7874015748031497
        },
        {
          "duration": 0.3125,
          "durationTicks": 120,
          "midi": 62,
          "name": "D4",
          "ticks": 480960,
          "time": 1454.0882807333335,
          "velocity": 0.7874015748031497
        },
        {
          "duration": 0.3125,
          "durationTicks": 120,
          "midi": 57,
          "name": "A3",
          "ticks": 481080,
          "time": 1454.4007807333335,
          "velocity": 0.7874015748031497
        },
        {
          "duration": 0.3125,
          "durationTicks": 120,
          "midi": 60,
          "name": "C4",
          "ticks": 481080,
          "time": 1454.4007807333335,
          "velocity": 0.7874015748031497
        },
        {
          "duration": 0.3125,
          "durationTicks": 120,
          "midi": 55,
          "name": "G3",
          "ticks": 481200,
          "time": 1454.7132807333335,
          "velocity": 0.7874015748031497
        },
        {
          "duration": 0.3125,
          "durationTicks": 120,
          "midi": 59,
          "name": "B3",
          "ticks": 481200,
          "time": 1454.7132807333335,
          "velocity": 0.7874015748031497
        },
        {
          "duration": 0.3125,
          "durationTicks": 120,
          "midi": 50,
          "name": "D3",
          "ticks": 481320,
          "time": 1455.0257807333335,
          "velocity": 0.7874015748031497
        },
        {
          "duration": 0.3125,
          "durationTicks": 120,
          "midi": 57,
          "name": "A3",
          "ticks": 481320,
          "time": 1455.0257807333335,
          "velocity": 0.7874015748031497
        },
        {
          "duration": 0.625,
          "durationTicks": 240,
          "midi": 55,
          "name": "G3",
          "ticks": 481440,
          "time": 1455.3382807333335,
          "velocity": 0.7874015748031497
        },
        {
          "duration": 1.2395833333332575,
          "durationTicks": 240,
          "midi": 31,
          "name": "G1",
          "ticks": 482160,
          "time": 1457.2132807333335,
          "velocity": 0.7874015748031497
        },
        {
          "duration": 1.2395833333332575,
          "durationTicks": 240,
          "midi": 43,
          "name": "G2",
          "ticks": 482160,
          "time": 1457.2132807333335,
          "velocity": 0.7874015748031497
        },
        {
          "duration": 1.25,
          "durationTicks": 240,
          "midi": 35,
          "name": "B1",
          "ticks": 482400,
          "time": 1458.4528640666667,
          "velocity": 0.7874015748031497
        },
        {
          "duration": 1.25,
          "durationTicks": 240,
          "midi": 47,
          "name": "B2",
          "ticks": 482400,
          "time": 1458.4528640666667,
          "velocity": 0.7874015748031497
        },
        {
          "duration": 1.25,
          "durationTicks": 240,
          "midi": 38,
          "name": "D2",
          "ticks": 482640,
          "time": 1459.7028640666667,
          "velocity": 0.7874015748031497
        },
        {
          "duration": 1.25,
          "durationTicks": 240,
          "midi": 50,
          "name": "D3",
          "ticks": 482640,
          "time": 1459.7028640666667,
          "velocity": 0.7874015748031497
        },
        {
          "duration": 1.25,
          "durationTicks": 240,
          "midi": 30,
          "name": "F#1",
          "ticks": 482880,
          "time": 1460.9528640666667,
          "velocity": 0.7874015748031497
        },
        {
          "duration": 1.25,
          "durationTicks": 240,
          "midi": 42,
          "name": "F#2",
          "ticks": 482880,
          "time": 1460.9528640666667,
          "velocity": 0.7874015748031497
        },
        {
          "duration": 1.25,
          "durationTicks": 240,
          "midi": 33,
          "name": "A1",
          "ticks": 483120,
          "time": 1462.2028640666667,
          "velocity": 0.7874015748031497
        },
        {
          "duration": 1.25,
          "durationTicks": 240,
          "midi": 45,
          "name": "A2",
          "ticks": 483120,
          "time": 1462.2028640666667,
          "velocity": 0.7874015748031497
        },
        {
          "duration": 1.25,
          "durationTicks": 240,
          "midi": 38,
          "name": "D2",
          "ticks": 483360,
          "time": 1463.4528640666667,
          "velocity": 0.7874015748031497
        },
        {
          "duration": 1.25,
          "durationTicks": 240,
          "midi": 50,
          "name": "D3",
          "ticks": 483360,
          "time": 1463.4528640666667,
          "velocity": 0.7874015748031497
        },
        {
          "duration": 1.25,
          "durationTicks": 240,
          "midi": 28,
          "name": "E1",
          "ticks": 483600,
          "time": 1464.7028640666667,
          "velocity": 0.7874015748031497
        },
        {
          "duration": 1.25,
          "durationTicks": 240,
          "midi": 40,
          "name": "E2",
          "ticks": 483600,
          "time": 1464.7028640666667,
          "velocity": 0.7874015748031497
        },
        {
          "duration": 1.25,
          "durationTicks": 240,
          "midi": 31,
          "name": "G1",
          "ticks": 483840,
          "time": 1465.9528640666667,
          "velocity": 0.7874015748031497
        },
        {
          "duration": 1.25,
          "durationTicks": 240,
          "midi": 43,
          "name": "G2",
          "ticks": 483840,
          "time": 1465.9528640666667,
          "velocity": 0.7874015748031497
        },
        {
          "duration": 1.25,
          "durationTicks": 240,
          "midi": 37,
          "name": "C#2",
          "ticks": 484080,
          "time": 1467.2028640666667,
          "velocity": 0.7874015748031497
        },
        {
          "duration": 1.25,
          "durationTicks": 240,
          "midi": 49,
          "name": "C#3",
          "ticks": 484080,
          "time": 1467.2028640666667,
          "velocity": 0.7874015748031497
        },
        {
          "duration": 1.25,
          "durationTicks": 240,
          "midi": 26,
          "name": "D1",
          "ticks": 484320,
          "time": 1468.4528640666667,
          "velocity": 0.7874015748031497
        },
        {
          "duration": 1.25,
          "durationTicks": 240,
          "midi": 38,
          "name": "D2",
          "ticks": 484320,
          "time": 1468.4528640666667,
          "velocity": 0.7874015748031497
        },
        {
          "duration": 1.25,
          "durationTicks": 240,
          "midi": 30,
          "name": "F#1",
          "ticks": 484560,
          "time": 1469.7028640666667,
          "velocity": 0.7874015748031497
        },
        {
          "duration": 1.25,
          "durationTicks": 240,
          "midi": 42,
          "name": "F#2",
          "ticks": 484560,
          "time": 1469.7028640666667,
          "velocity": 0.7874015748031497
        },
        {
          "duration": 0.625,
          "durationTicks": 120,
          "midi": 33,
          "name": "A1",
          "ticks": 484800,
          "time": 1470.9528640666667,
          "velocity": 0.7874015748031497
        },
        {
          "duration": 0.625,
          "durationTicks": 120,
          "midi": 24,
          "name": "C1",
          "ticks": 484920,
          "time": 1471.5778640666667,
          "velocity": 0.7874015748031497
        },
        {
          "duration": 0.625,
          "durationTicks": 120,
          "midi": 36,
          "name": "C2",
          "ticks": 484920,
          "time": 1471.5778640666667,
          "velocity": 0.7874015748031497
        },
        {
          "duration": 2.5,
          "durationTicks": 480,
          "midi": 47,
          "name": "B2",
          "ticks": 485280,
          "time": 1473.4528640666667,
          "velocity": 0.7874015748031497
        },
        {
          "duration": 2.5,
          "durationTicks": 480,
          "midi": 47,
          "name": "B2",
          "ticks": 486000,
          "time": 1477.2028640666667,
          "velocity": 0.7874015748031497
        },
        {
          "duration": 0.3125,
          "durationTicks": 60,
          "midi": 59,
          "name": "B3",
          "ticks": 486840,
          "time": 1481.5778640666667,
          "velocity": 0.7874015748031497
        },
        {
          "duration": 0.3125,
          "durationTicks": 60,
          "midi": 57,
          "name": "A3",
          "ticks": 486900,
          "time": 1481.8903640666667,
          "velocity": 0.7874015748031497
        },
        {
          "duration": 0.3125,
          "durationTicks": 60,
          "midi": 55,
          "name": "G3",
          "ticks": 486960,
          "time": 1482.2028640666667,
          "velocity": 0.7874015748031497
        },
        {
          "duration": 0.3125,
          "durationTicks": 60,
          "midi": 54,
          "name": "F#3",
          "ticks": 487020,
          "time": 1482.5153640666667,
          "velocity": 0.7874015748031497
        },
        {
          "duration": 0.3125,
          "durationTicks": 60,
          "midi": 52,
          "name": "E3",
          "ticks": 487080,
          "time": 1482.8278640666667,
          "velocity": 0.7874015748031497
        },
        {
          "duration": 0.3125,
          "durationTicks": 60,
          "midi": 54,
          "name": "F#3",
          "ticks": 487140,
          "time": 1483.1403640666667,
          "velocity": 0.7874015748031497
        },
        {
          "duration": 0.625,
          "durationTicks": 120,
          "midi": 50,
          "name": "D3",
          "ticks": 487200,
          "time": 1483.4528640666667,
          "velocity": 0.7874015748031497
        },
        {
          "duration": 0.625,
          "durationTicks": 120,
          "midi": 45,
          "name": "A2",
          "ticks": 487320,
          "time": 1484.0778640666667,
          "velocity": 0.7874015748031497
        },
        {
          "duration": 1.875,
          "durationTicks": 360,
          "midi": 47,
          "name": "B2",
          "ticks": 487440,
          "time": 1484.7028640666667,
          "velocity": 0.7874015748031497
        },
        {
          "duration": 2.5,
          "durationTicks": 480,
          "midi": 43,
          "name": "G2",
          "ticks": 488160,
          "time": 1488.4528640666667,
          "velocity": 0.7874015748031497
        },
        {
          "duration": 2.5,
          "durationTicks": 480,
          "midi": 43,
          "name": "G2",
          "ticks": 491760,
          "time": 1507.2028640666667,
          "velocity": 0.7874015748031497
        },
        {
          "duration": 0.9375,
          "durationTicks": 180,
          "midi": 52,
          "name": "E3",
          "ticks": 492480,
          "time": 1510.9528640666667,
          "velocity": 0.7874015748031497
        },
        {
          "duration": 0.3125,
          "durationTicks": 60,
          "midi": 54,
          "name": "F#3",
          "ticks": 492660,
          "time": 1511.8903640666667,
          "velocity": 0.7874015748031497
        },
        {
          "duration": 1.25,
          "durationTicks": 240,
          "midi": 55,
          "name": "G3",
          "ticks": 492720,
          "time": 1512.2028640666667,
          "velocity": 0.7874015748031497
        },
        {
          "duration": 1.25,
          "durationTicks": 240,
          "midi": 55,
          "name": "G3",
          "ticks": 492960,
          "time": 1513.4528640666667,
          "velocity": 0.7874015748031497
        },
        {
          "duration": 2.5,
          "durationTicks": 480,
          "midi": 54,
          "name": "F#3",
          "ticks": 493200,
          "time": 1514.7028640666667,
          "velocity": 0.7874015748031497
        },
        {
          "duration": 1.875,
          "durationTicks": 360,
          "midi": 38,
          "name": "D2",
          "ticks": 493680,
          "time": 1517.2028640666667,
          "velocity": 0.7874015748031497
        },
        {
          "duration": 1.875,
          "durationTicks": 360,
          "midi": 50,
          "name": "D3",
          "ticks": 493680,
          "time": 1517.2028640666667,
          "velocity": 0.7874015748031497
        },
        {
          "duration": 0.625,
          "durationTicks": 120,
          "midi": 35,
          "name": "B1",
          "ticks": 494040,
          "time": 1519.0778640666667,
          "velocity": 0.7874015748031497
        },
        {
          "duration": 0.625,
          "durationTicks": 120,
          "midi": 47,
          "name": "B2",
          "ticks": 494040,
          "time": 1519.0778640666667,
          "velocity": 0.7874015748031497
        },
        {
          "duration": 1.25,
          "durationTicks": 240,
          "midi": 36,
          "name": "C2",
          "ticks": 494160,
          "time": 1519.7028640666667,
          "velocity": 0.7874015748031497
        },
        {
          "duration": 1.25,
          "durationTicks": 240,
          "midi": 48,
          "name": "C3",
          "ticks": 494160,
          "time": 1519.7028640666667,
          "velocity": 0.7874015748031497
        },
        {
          "duration": 1.875,
          "durationTicks": 360,
          "midi": 35,
          "name": "B1",
          "ticks": 494400,
          "time": 1520.9528640666667,
          "velocity": 0.7874015748031497
        },
        {
          "duration": 1.875,
          "durationTicks": 360,
          "midi": 47,
          "name": "B2",
          "ticks": 494400,
          "time": 1520.9528640666667,
          "velocity": 0.7874015748031497
        },
        {
          "duration": 0.625,
          "durationTicks": 120,
          "midi": 33,
          "name": "A1",
          "ticks": 494760,
          "time": 1522.8278640666667,
          "velocity": 0.7874015748031497
        },
        {
          "duration": 0.625,
          "durationTicks": 120,
          "midi": 45,
          "name": "A2",
          "ticks": 494760,
          "time": 1522.8278640666667,
          "velocity": 0.7874015748031497
        },
        {
          "duration": 1.25,
          "durationTicks": 240,
          "midi": 35,
          "name": "B1",
          "ticks": 494880,
          "time": 1523.4528640666667,
          "velocity": 0.7874015748031497
        },
        {
          "duration": 1.25,
          "durationTicks": 240,
          "midi": 47,
          "name": "B2",
          "ticks": 494880,
          "time": 1523.4528640666667,
          "velocity": 0.7874015748031497
        },
        {
          "duration": 1.875,
          "durationTicks": 360,
          "midi": 36,
          "name": "C2",
          "ticks": 495120,
          "time": 1524.7028640666667,
          "velocity": 0.7874015748031497
        },
        {
          "duration": 1.875,
          "durationTicks": 360,
          "midi": 48,
          "name": "C3",
          "ticks": 495120,
          "time": 1524.7028640666667,
          "velocity": 0.7874015748031497
        },
        {
          "duration": 0.625,
          "durationTicks": 120,
          "midi": 35,
          "name": "B1",
          "ticks": 495480,
          "time": 1526.5778640666667,
          "velocity": 0.7874015748031497
        },
        {
          "duration": 0.625,
          "durationTicks": 120,
          "midi": 47,
          "name": "B2",
          "ticks": 495480,
          "time": 1526.5778640666667,
          "velocity": 0.7874015748031497
        },
        {
          "duration": 1.25,
          "durationTicks": 240,
          "midi": 33,
          "name": "A1",
          "ticks": 495600,
          "time": 1527.2028640666667,
          "velocity": 0.7874015748031497
        },
        {
          "duration": 1.25,
          "durationTicks": 240,
          "midi": 45,
          "name": "A2",
          "ticks": 495600,
          "time": 1527.2028640666667,
          "velocity": 0.7874015748031497
        },
        {
          "duration": 1.875,
          "durationTicks": 360,
          "midi": 35,
          "name": "B1",
          "ticks": 495840,
          "time": 1528.4528640666667,
          "velocity": 0.7874015748031497
        },
        {
          "duration": 0.625,
          "durationTicks": 120,
          "midi": 45,
          "name": "A2",
          "ticks": 496200,
          "time": 1530.3278640666667,
          "velocity": 0.7874015748031497
        },
        {
          "duration": 0.625,
          "durationTicks": 120,
          "midi": 43,
          "name": "G2",
          "ticks": 496320,
          "time": 1530.9528640666667,
          "velocity": 0.7874015748031497
        },
        {
          "duration": 0.625,
          "durationTicks": 120,
          "midi": 42,
          "name": "F#2",
          "ticks": 496440,
          "time": 1531.5778640666667,
          "velocity": 0.7874015748031497
        },
        {
          "duration": 2.5,
          "durationTicks": 480,
          "midi": 40,
          "name": "E2",
          "ticks": 496560,
          "time": 1532.2028640666667,
          "velocity": 0.7874015748031497
        },
        {
          "duration": 1.25,
          "durationTicks": 240,
          "midi": 52,
          "name": "E3",
          "ticks": 496800,
          "time": 1533.4528640666667,
          "velocity": 0.7874015748031497
        },
        {
          "duration": 1.25,
          "durationTicks": 240,
          "midi": 38,
          "name": "D2",
          "ticks": 497040,
          "time": 1534.7028640666667,
          "velocity": 0.7874015748031497
        },
        {
          "duration": 1.25,
          "durationTicks": 240,
          "midi": 50,
          "name": "D3",
          "ticks": 497040,
          "time": 1534.7028640666667,
          "velocity": 0.7874015748031497
        },
        {
          "duration": 2.5,
          "durationTicks": 480,
          "midi": 36,
          "name": "C2",
          "ticks": 497280,
          "time": 1535.9528640666667,
          "velocity": 0.7874015748031497
        },
        {
          "duration": 2.5,
          "durationTicks": 480,
          "midi": 48,
          "name": "C3",
          "ticks": 497280,
          "time": 1535.9528640666667,
          "velocity": 0.7874015748031497
        },
        {
          "duration": 1.25,
          "durationTicks": 240,
          "midi": 35,
          "name": "B1",
          "ticks": 497760,
          "time": 1538.4528640666667,
          "velocity": 0.7874015748031497
        },
        {
          "duration": 1.25,
          "durationTicks": 240,
          "midi": 47,
          "name": "B2",
          "ticks": 497760,
          "time": 1538.4528640666667,
          "velocity": 0.7874015748031497
        },
        {
          "duration": 0.625,
          "durationTicks": 120,
          "midi": 33,
          "name": "A1",
          "ticks": 498000,
          "time": 1539.7028640666667,
          "velocity": 0.7874015748031497
        },
        {
          "duration": 0.625,
          "durationTicks": 120,
          "midi": 45,
          "name": "A2",
          "ticks": 498000,
          "time": 1539.7028640666667,
          "velocity": 0.7874015748031497
        },
        {
          "duration": 0.625,
          "durationTicks": 120,
          "midi": 36,
          "name": "C2",
          "ticks": 498120,
          "time": 1540.3278640666667,
          "velocity": 0.7874015748031497
        },
        {
          "duration": 0.625,
          "durationTicks": 120,
          "midi": 48,
          "name": "C3",
          "ticks": 498120,
          "time": 1540.3278640666667,
          "velocity": 0.7874015748031497
        },
        {
          "duration": 0.625,
          "durationTicks": 120,
          "midi": 35,
          "name": "B1",
          "ticks": 498240,
          "time": 1540.9528640666667,
          "velocity": 0.7874015748031497
        },
        {
          "duration": 0.625,
          "durationTicks": 120,
          "midi": 47,
          "name": "B2",
          "ticks": 498240,
          "time": 1540.9528640666667,
          "velocity": 0.7874015748031497
        },
        {
          "duration": 0.625,
          "durationTicks": 120,
          "midi": 33,
          "name": "A1",
          "ticks": 498360,
          "time": 1541.5778640666667,
          "velocity": 0.7874015748031497
        },
        {
          "duration": 0.625,
          "durationTicks": 120,
          "midi": 45,
          "name": "A2",
          "ticks": 498360,
          "time": 1541.5778640666667,
          "velocity": 0.7874015748031497
        },
        {
          "duration": 0.625,
          "durationTicks": 120,
          "midi": 35,
          "name": "B1",
          "ticks": 498480,
          "time": 1542.2028640666667,
          "velocity": 0.7874015748031497
        },
        {
          "duration": 0.625,
          "durationTicks": 120,
          "midi": 47,
          "name": "B2",
          "ticks": 498480,
          "time": 1542.2028640666667,
          "velocity": 0.7874015748031497
        },
        {
          "duration": 0.625,
          "durationTicks": 120,
          "midi": 39,
          "name": "D#2",
          "ticks": 498600,
          "time": 1542.8278640666667,
          "velocity": 0.7874015748031497
        },
        {
          "duration": 0.625,
          "durationTicks": 120,
          "midi": 51,
          "name": "D#3",
          "ticks": 498600,
          "time": 1542.8278640666667,
          "velocity": 0.7874015748031497
        },
        {
          "duration": 0.625,
          "durationTicks": 120,
          "midi": 40,
          "name": "E2",
          "ticks": 498720,
          "time": 1543.4528640666667,
          "velocity": 0.7874015748031497
        },
        {
          "duration": 0.625,
          "durationTicks": 120,
          "midi": 52,
          "name": "E3",
          "ticks": 498720,
          "time": 1543.4528640666667,
          "velocity": 0.7874015748031497
        },
        {
          "duration": 0.625,
          "durationTicks": 120,
          "midi": 35,
          "name": "B1",
          "ticks": 498840,
          "time": 1544.0778640666667,
          "velocity": 0.7874015748031497
        },
        {
          "duration": 0.625,
          "durationTicks": 120,
          "midi": 47,
          "name": "B2",
          "ticks": 498840,
          "time": 1544.0778640666667,
          "velocity": 0.7874015748031497
        },
        {
          "duration": 0.625,
          "durationTicks": 120,
          "midi": 28,
          "name": "E1",
          "ticks": 498960,
          "time": 1544.7028640666667,
          "velocity": 0.7874015748031497
        },
        {
          "duration": 0.625,
          "durationTicks": 120,
          "midi": 40,
          "name": "E2",
          "ticks": 498960,
          "time": 1544.7028640666667,
          "velocity": 0.7874015748031497
        },
        {
          "duration": 0.625,
          "durationTicks": 120,
          "midi": 35,
          "name": "B1",
          "ticks": 499080,
          "time": 1545.3278640666667,
          "velocity": 0.7874015748031497
        },
        {
          "duration": 0.625,
          "durationTicks": 120,
          "midi": 47,
          "name": "B2",
          "ticks": 499080,
          "time": 1545.3278640666667,
          "velocity": 0.7874015748031497
        },
        {
          "duration": 0.625,
          "durationTicks": 120,
          "midi": 40,
          "name": "E2",
          "ticks": 499200,
          "time": 1545.9528640666667,
          "velocity": 0.7874015748031497
        },
        {
          "duration": 0.625,
          "durationTicks": 120,
          "midi": 52,
          "name": "E3",
          "ticks": 499200,
          "time": 1545.9528640666667,
          "velocity": 0.7874015748031497
        },
        {
          "duration": 0.625,
          "durationTicks": 120,
          "midi": 38,
          "name": "D2",
          "ticks": 499320,
          "time": 1546.5778640666667,
          "velocity": 0.7874015748031497
        },
        {
          "duration": 0.625,
          "durationTicks": 120,
          "midi": 50,
          "name": "D3",
          "ticks": 499320,
          "time": 1546.5778640666667,
          "velocity": 0.7874015748031497
        },
        {
          "duration": 1.25,
          "durationTicks": 240,
          "midi": 36,
          "name": "C2",
          "ticks": 499440,
          "time": 1547.2028640666667,
          "velocity": 0.7874015748031497
        },
        {
          "duration": 1.25,
          "durationTicks": 240,
          "midi": 48,
          "name": "C3",
          "ticks": 499440,
          "time": 1547.2028640666667,
          "velocity": 0.7874015748031497
        },
        {
          "duration": 1.25,
          "durationTicks": 240,
          "midi": 40,
          "name": "E2",
          "ticks": 499680,
          "time": 1548.4528640666667,
          "velocity": 0.7874015748031497
        },
        {
          "duration": 1.25,
          "durationTicks": 240,
          "midi": 52,
          "name": "E3",
          "ticks": 499680,
          "time": 1548.4528640666667,
          "velocity": 0.7874015748031497
        },
        {
          "duration": 1.25,
          "durationTicks": 240,
          "midi": 45,
          "name": "A2",
          "ticks": 499920,
          "time": 1549.7028640666667,
          "velocity": 0.7874015748031497
        },
        {
          "duration": 3.75,
          "durationTicks": 720,
          "midi": 47,
          "name": "B2",
          "ticks": 500160,
          "time": 1550.9528640666667,
          "velocity": 0.7874015748031497
        },
        {
          "duration": 0.3125,
          "durationTicks": 60,
          "midi": 45,
          "name": "A2",
          "ticks": 500640,
          "time": 1553.4528640666667,
          "velocity": 0.7874015748031497
        },
        {
          "duration": 0.3125,
          "durationTicks": 60,
          "midi": 42,
          "name": "F#2",
          "ticks": 500700,
          "time": 1553.7653640666667,
          "velocity": 0.7874015748031497
        },
        {
          "duration": 1.25,
          "durationTicks": 240,
          "midi": 43,
          "name": "G2",
          "ticks": 500760,
          "time": 1554.0778640666667,
          "velocity": 0.7874015748031497
        },
        {
          "duration": 0.625,
          "durationTicks": 120,
          "midi": 40,
          "name": "E2",
          "ticks": 501000,
          "time": 1555.3278640666667,
          "velocity": 0.7874015748031497
        },
        {
          "duration": 2.5,
          "durationTicks": 480,
          "midi": 45,
          "name": "A2",
          "ticks": 501120,
          "time": 1555.9528640666667,
          "velocity": 0.7874015748031497
        },
        {
          "duration": 0.625,
          "durationTicks": 120,
          "midi": 43,
          "name": "G2",
          "ticks": 501240,
          "time": 1556.5778640666667,
          "velocity": 0.7874015748031497
        },
        {
          "duration": 0.625,
          "durationTicks": 120,
          "midi": 42,
          "name": "F#2",
          "ticks": 501360,
          "time": 1557.2028640666667,
          "velocity": 0.7874015748031497
        },
        {
          "duration": 0.625,
          "durationTicks": 120,
          "midi": 40,
          "name": "E2",
          "ticks": 501480,
          "time": 1557.8278640666667,
          "velocity": 0.7874015748031497
        },
        {
          "duration": 0.625,
          "durationTicks": 120,
          "midi": 42,
          "name": "F#2",
          "ticks": 501600,
          "time": 1558.4528640666667,
          "velocity": 0.7874015748031497
        },
        {
          "duration": 0.625,
          "durationTicks": 120,
          "midi": 45,
          "name": "A2",
          "ticks": 501720,
          "time": 1559.0778640666667,
          "velocity": 0.7874015748031497
        },
        {
          "duration": 0.625,
          "durationTicks": 120,
          "midi": 50,
          "name": "D3",
          "ticks": 501840,
          "time": 1559.7028640666667,
          "velocity": 0.7874015748031497
        },
        {
          "duration": 0.625,
          "durationTicks": 120,
          "midi": 36,
          "name": "C2",
          "ticks": 501960,
          "time": 1560.3278640666667,
          "velocity": 0.7874015748031497
        },
        {
          "duration": 0.625,
          "durationTicks": 120,
          "midi": 48,
          "name": "C3",
          "ticks": 501960,
          "time": 1560.3278640666667,
          "velocity": 0.7874015748031497
        },
        {
          "duration": 0.625,
          "durationTicks": 120,
          "midi": 35,
          "name": "B1",
          "ticks": 502080,
          "time": 1560.9528640666667,
          "velocity": 0.7874015748031497
        },
        {
          "duration": 0.625,
          "durationTicks": 120,
          "midi": 47,
          "name": "B2",
          "ticks": 502080,
          "time": 1560.9528640666667,
          "velocity": 0.7874015748031497
        },
        {
          "duration": 0.625,
          "durationTicks": 120,
          "midi": 33,
          "name": "A1",
          "ticks": 502200,
          "time": 1561.5778640666667,
          "velocity": 0.7874015748031497
        },
        {
          "duration": 0.625,
          "durationTicks": 120,
          "midi": 45,
          "name": "A2",
          "ticks": 502200,
          "time": 1561.5778640666667,
          "velocity": 0.7874015748031497
        },
        {
          "duration": 0.625,
          "durationTicks": 120,
          "midi": 31,
          "name": "G1",
          "ticks": 502320,
          "time": 1562.2028640666667,
          "velocity": 0.7874015748031497
        },
        {
          "duration": 0.625,
          "durationTicks": 120,
          "midi": 38,
          "name": "D2",
          "ticks": 502440,
          "time": 1562.8278640666667,
          "velocity": 0.7874015748031497
        },
        {
          "duration": 0.625,
          "durationTicks": 120,
          "midi": 43,
          "name": "G2",
          "ticks": 502560,
          "time": 1563.4528640666667,
          "velocity": 0.7874015748031497
        },
        {
          "duration": 0.625,
          "durationTicks": 120,
          "midi": 29,
          "name": "F1",
          "ticks": 502680,
          "time": 1564.0778640666667,
          "velocity": 0.7874015748031497
        },
        {
          "duration": 0.625,
          "durationTicks": 120,
          "midi": 41,
          "name": "F2",
          "ticks": 502680,
          "time": 1564.0778640666667,
          "velocity": 0.7874015748031497
        },
        {
          "duration": 0.625,
          "durationTicks": 120,
          "midi": 28,
          "name": "E1",
          "ticks": 502800,
          "time": 1564.7028640666667,
          "velocity": 0.7874015748031497
        },
        {
          "duration": 0.625,
          "durationTicks": 120,
          "midi": 40,
          "name": "E2",
          "ticks": 502800,
          "time": 1564.7028640666667,
          "velocity": 0.7874015748031497
        },
        {
          "duration": 0.625,
          "durationTicks": 120,
          "midi": 26,
          "name": "D1",
          "ticks": 502920,
          "time": 1565.3278640666667,
          "velocity": 0.7874015748031497
        },
        {
          "duration": 0.625,
          "durationTicks": 120,
          "midi": 38,
          "name": "D2",
          "ticks": 502920,
          "time": 1565.3278640666667,
          "velocity": 0.7874015748031497
        },
        {
          "duration": 0.625,
          "durationTicks": 120,
          "midi": 24,
          "name": "C1",
          "ticks": 503040,
          "time": 1565.9528640666667,
          "velocity": 0.7874015748031497
        },
        {
          "duration": 0.625,
          "durationTicks": 120,
          "midi": 36,
          "name": "C2",
          "ticks": 503040,
          "time": 1565.9528640666667,
          "velocity": 0.7874015748031497
        },
        {
          "duration": 0.625,
          "durationTicks": 120,
          "midi": 31,
          "name": "G1",
          "ticks": 503160,
          "time": 1566.5778640666667,
          "velocity": 0.7874015748031497
        },
        {
          "duration": 0.625,
          "durationTicks": 120,
          "midi": 43,
          "name": "G2",
          "ticks": 503160,
          "time": 1566.5778640666667,
          "velocity": 0.7874015748031497
        },
        {
          "duration": 0.625,
          "durationTicks": 120,
          "midi": 36,
          "name": "C2",
          "ticks": 503280,
          "time": 1567.2028640666667,
          "velocity": 0.7874015748031497
        },
        {
          "duration": 0.625,
          "durationTicks": 120,
          "midi": 48,
          "name": "C3",
          "ticks": 503280,
          "time": 1567.2028640666667,
          "velocity": 0.7874015748031497
        },
        {
          "duration": 0.625,
          "durationTicks": 120,
          "midi": 47,
          "name": "B2",
          "ticks": 503400,
          "time": 1567.8278640666667,
          "velocity": 0.7874015748031497
        },
        {
          "duration": 0.625,
          "durationTicks": 120,
          "midi": 59,
          "name": "B3",
          "ticks": 503400,
          "time": 1567.8278640666667,
          "velocity": 0.7874015748031497
        },
        {
          "duration": 0.625,
          "durationTicks": 120,
          "midi": 45,
          "name": "A2",
          "ticks": 503520,
          "time": 1568.4528640666667,
          "velocity": 0.7874015748031497
        },
        {
          "duration": 0.625,
          "durationTicks": 120,
          "midi": 57,
          "name": "A3",
          "ticks": 503520,
          "time": 1568.4528640666667,
          "velocity": 0.7874015748031497
        },
        {
          "duration": 0.625,
          "durationTicks": 120,
          "midi": 43,
          "name": "G2",
          "ticks": 503640,
          "time": 1569.0778640666667,
          "velocity": 0.7874015748031497
        },
        {
          "duration": 0.625,
          "durationTicks": 120,
          "midi": 55,
          "name": "G3",
          "ticks": 503640,
          "time": 1569.0778640666667,
          "velocity": 0.7874015748031497
        },
        {
          "duration": 0.3125,
          "durationTicks": 60,
          "midi": 42,
          "name": "F#2",
          "ticks": 503760,
          "time": 1569.7028640666667,
          "velocity": 0.7874015748031497
        },
        {
          "duration": 0.3125,
          "durationTicks": 60,
          "midi": 54,
          "name": "F#3",
          "ticks": 503760,
          "time": 1569.7028640666667,
          "velocity": 0.7874015748031497
        },
        {
          "duration": 0.3125,
          "durationTicks": 60,
          "midi": 40,
          "name": "E2",
          "ticks": 503820,
          "time": 1570.0153640666667,
          "velocity": 0.7874015748031497
        },
        {
          "duration": 0.3125,
          "durationTicks": 60,
          "midi": 52,
          "name": "E3",
          "ticks": 503820,
          "time": 1570.0153640666667,
          "velocity": 0.7874015748031497
        },
        {
          "duration": 0.9375,
          "durationTicks": 180,
          "midi": 38,
          "name": "D2",
          "ticks": 503880,
          "time": 1570.3278640666667,
          "velocity": 0.7874015748031497
        },
        {
          "duration": 0.9375,
          "durationTicks": 180,
          "midi": 50,
          "name": "D3",
          "ticks": 503880,
          "time": 1570.3278640666667,
          "velocity": 0.7874015748031497
        },
        {
          "duration": 0.3125,
          "durationTicks": 60,
          "midi": 36,
          "name": "C2",
          "ticks": 504060,
          "time": 1571.2653640666667,
          "velocity": 0.7874015748031497
        },
        {
          "duration": 0.3125,
          "durationTicks": 60,
          "midi": 48,
          "name": "C3",
          "ticks": 504060,
          "time": 1571.2653640666667,
          "velocity": 0.7874015748031497
        },
        {
          "duration": 0.625,
          "durationTicks": 120,
          "midi": 35,
          "name": "B1",
          "ticks": 504120,
          "time": 1571.5778640666667,
          "velocity": 0.7874015748031497
        },
        {
          "duration": 0.625,
          "durationTicks": 120,
          "midi": 47,
          "name": "B2",
          "ticks": 504120,
          "time": 1571.5778640666667,
          "velocity": 0.7874015748031497
        },
        {
          "duration": 0.625,
          "durationTicks": 120,
          "midi": 36,
          "name": "C2",
          "ticks": 504240,
          "time": 1572.2028640666667,
          "velocity": 0.7874015748031497
        },
        {
          "duration": 0.625,
          "durationTicks": 120,
          "midi": 48,
          "name": "C3",
          "ticks": 504240,
          "time": 1572.2028640666667,
          "velocity": 0.7874015748031497
        },
        {
          "duration": 0.625,
          "durationTicks": 120,
          "midi": 38,
          "name": "D2",
          "ticks": 504360,
          "time": 1572.8278640666667,
          "velocity": 0.7874015748031497
        },
        {
          "duration": 0.625,
          "durationTicks": 120,
          "midi": 50,
          "name": "D3",
          "ticks": 504360,
          "time": 1572.8278640666667,
          "velocity": 0.7874015748031497
        },
        {
          "duration": 1.25,
          "durationTicks": 240,
          "midi": 38,
          "name": "D2",
          "ticks": 504480,
          "time": 1573.4528640666667,
          "velocity": 0.7874015748031497
        },
        {
          "duration": 1.25,
          "durationTicks": 240,
          "midi": 50,
          "name": "D3",
          "ticks": 504480,
          "time": 1573.4528640666667,
          "velocity": 0.7874015748031497
        },
        {
          "duration": 1.25,
          "durationTicks": 240,
          "midi": 31,
          "name": "G1",
          "ticks": 504720,
          "time": 1574.7028640666667,
          "velocity": 0.7874015748031497
        },
        {
          "duration": 1.25,
          "durationTicks": 240,
          "midi": 43,
          "name": "G2",
          "ticks": 504720,
          "time": 1574.7028640666667,
          "velocity": 0.7874015748031497
        },
        {
          "duration": 1.25,
          "durationTicks": 240,
          "midi": 24,
          "name": "C1",
          "ticks": 504960,
          "time": 1575.9528640666667,
          "velocity": 0.7874015748031497
        },
        {
          "duration": 1.25,
          "durationTicks": 240,
          "midi": 36,
          "name": "C2",
          "ticks": 504960,
          "time": 1575.9528640666667,
          "velocity": 0.7874015748031497
        },
        {
          "duration": 1.25,
          "durationTicks": 240,
          "midi": 23,
          "name": "B0",
          "ticks": 505200,
          "time": 1577.2028640666667,
          "velocity": 0.7874015748031497
        },
        {
          "duration": 1.25,
          "durationTicks": 240,
          "midi": 35,
          "name": "B1",
          "ticks": 505200,
          "time": 1577.2028640666667,
          "velocity": 0.7874015748031497
        },
        {
          "duration": 1.25,
          "durationTicks": 240,
          "midi": 26,
          "name": "D1",
          "ticks": 505440,
          "time": 1578.4528640666667,
          "velocity": 0.7874015748031497
        },
        {
          "duration": 1.25,
          "durationTicks": 240,
          "midi": 38,
          "name": "D2",
          "ticks": 505440,
          "time": 1578.4528640666667,
          "velocity": 0.7874015748031497
        },
        {
          "duration": 1.25,
          "durationTicks": 240,
          "midi": 21,
          "name": "A0",
          "ticks": 505680,
          "time": 1579.7028640666667,
          "velocity": 0.7874015748031497
        },
        {
          "duration": 1.25,
          "durationTicks": 240,
          "midi": 33,
          "name": "A1",
          "ticks": 505680,
          "time": 1579.7028640666667,
          "velocity": 0.7874015748031497
        },
        {
          "duration": 3.75,
          "durationTicks": 720,
          "midi": 31,
          "name": "G1",
          "ticks": 505920,
          "time": 1580.9528640666667,
          "velocity": 0.7874015748031497
        },
        {
          "duration": 3.75,
          "durationTicks": 720,
          "midi": 38,
          "name": "D2",
          "ticks": 505920,
          "time": 1580.9528640666667,
          "velocity": 0.7874015748031497
        },
        {
          "duration": 3.75,
          "durationTicks": 720,
          "midi": 47,
          "name": "B2",
          "ticks": 505920,
          "time": 1580.9528640666667,
          "velocity": 0.7874015748031497
        }
      ],
      "endOfTrackTicks": 506640
    },
    {
      "channel": 3,
      "controlChanges": {
        "0": [
          {
            "number": 0,
            "ticks": 0,
            "time": 0,
            "value": 0
          }
        ],
        "7": [
          {
            "number": 7,
            "ticks": 0,
            "time": 0,
            "value": 0.7874015748031497
          },
          {
            "number": 7,
            "ticks": 61680,
            "time": 190.0256165,
            "value": 0.7874015748031497
          },
          {
            "number": 7,
            "ticks": 156360,
            "time": 385.8893125,
            "value": 0.7874015748031497
          },
          {
            "number": 7,
            "ticks": 219720,
            "time": 487.0768125,
            "value": 0.6929133858267716
          },
          {
            "number": 7,
            "ticks": 318960,
            "time": 885.5334903333332,
            "value": 0.7874015748031497
          },
          {
            "number": 7,
            "ticks": 350640,
            "time": 931.6698423333332,
            "value": 0.7874015748031497
          },
          {
            "number": 7,
            "ticks": 423360,
            "time": 1305.6046906333333,
            "value": 0.7874015748031497
          },
          {
            "number": 7,
            "ticks": 466320,
            "time": 1415.9632807333335,
            "value": 0.7874015748031497
          },
          {
            "number": 7,
            "ticks": 482160,
            "time": 1457.2132807333335,
            "value": 0.6299212598425197
          }
        ],
        "32": [
          {
            "number": 32,
            "ticks": 0,
            "time": 0,
            "value": 0
          }
        ]
      },
      "pitchBends": [],
      "instrument": {
        "family": "piano",
        "number": 0,
        "name": "acoustic grand piano"
      },
      "name": "Accoustic Grand Piano",
      "notes": [
        {
          "duration": 2.8125,
          "durationTicks": 720,
          "midi": 55,
          "name": "G3",
          "ticks": 0,
          "time": 0,
          "velocity": 0.7874015748031497
        },
        {
          "duration": 2.8125,
          "durationTicks": 720,
          "midi": 54,
          "name": "F#3",
          "ticks": 720,
          "time": 2.8125,
          "velocity": 0.7874015748031497
        },
        {
          "duration": 2.8125,
          "durationTicks": 720,
          "midi": 52,
          "name": "E3",
          "ticks": 1440,
          "time": 5.625,
          "velocity": 0.7874015748031497
        },
        {
          "duration": 2.34375,
          "durationTicks": 600,
          "midi": 50,
          "name": "D3",
          "ticks": 2160,
          "time": 8.4375,
          "velocity": 0.7874015748031497
        },
        {
          "duration": 0.46875,
          "durationTicks": 120,
          "midi": 48,
          "name": "C3",
          "ticks": 2760,
          "time": 10.78125,
          "velocity": 0.7874015748031497
        },
        {
          "duration": 2.8125,
          "durationTicks": 720,
          "midi": 47,
          "name": "B2",
          "ticks": 2880,
          "time": 11.25,
          "velocity": 0.7874015748031497
        },
        {
          "duration": 2.34375,
          "durationTicks": 600,
          "midi": 48,
          "name": "C3",
          "ticks": 3600,
          "time": 14.0625,
          "velocity": 0.7874015748031497
        },
        {
          "duration": 0.46875,
          "durationTicks": 120,
          "midi": 50,
          "name": "D3",
          "ticks": 4200,
          "time": 16.40625,
          "velocity": 0.7874015748031497
        },
        {
          "duration": 0.46875,
          "durationTicks": 120,
          "midi": 52,
          "name": "E3",
          "ticks": 4320,
          "time": 16.875,
          "velocity": 0.7874015748031497
        },
        {
          "duration": 0.46875,
          "durationTicks": 120,
          "midi": 48,
          "name": "C3",
          "ticks": 4440,
          "time": 17.34375,
          "velocity": 0.7874015748031497
        },
        {
          "duration": 1.875,
          "durationTicks": 480,
          "midi": 50,
          "name": "D3",
          "ticks": 4560,
          "time": 17.8125,
          "velocity": 0.7874015748031497
        },
        {
          "duration": 1.40625,
          "durationTicks": 360,
          "midi": 43,
          "name": "G2",
          "ticks": 5040,
          "time": 19.6875,
          "velocity": 0.7874015748031497
        },
        {
          "duration": 0.46875,
          "durationTicks": 120,
          "midi": 50,
          "name": "D3",
          "ticks": 5400,
          "time": 21.09375,
          "velocity": 0.7874015748031497
        },
        {
          "duration": 0.05859375,
          "durationTicks": 15,
          "midi": 52,
          "name": "E3",
          "ticks": 5520,
          "time": 21.5625,
          "velocity": 0.7874015748031497
        },
        {
          "duration": 0.05859375,
          "durationTicks": 15,
          "midi": 50,
          "name": "D3",
          "ticks": 5535,
          "time": 21.62109375,
          "velocity": 0.7874015748031497
        },
        {
          "duration": 0.05859375,
          "durationTicks": 15,
          "midi": 52,
          "name": "E3",
          "ticks": 5550,
          "time": 21.6796875,
          "velocity": 0.7874015748031497
        },
        {
          "duration": 0.05859375,
          "durationTicks": 15,
          "midi": 50,
          "name": "D3",
          "ticks": 5565,
          "time": 21.73828125,
          "velocity": 0.7874015748031497
        },
        {
          "duration": 0.46875,
          "durationTicks": 120,
          "midi": 52,
          "name": "E3",
          "ticks": 5580,
          "time": 21.796875,
          "velocity": 0.7874015748031497
        },
        {
          "duration": 0.234375,
          "durationTicks": 60,
          "midi": 54,
          "name": "F#3",
          "ticks": 5700,
          "time": 22.265625,
          "velocity": 0.7874015748031497
        },
        {
          "duration": 3.75,
          "durationTicks": 960,
          "midi": 55,
          "name": "G3",
          "ticks": 5760,
          "time": 22.5,
          "velocity": 0.7874015748031497
        },
        {
          "duration": 0.1171875,
          "durationTicks": 30,
          "midi": 54,
          "name": "F#3",
          "ticks": 6720,
          "time": 26.25,
          "velocity": 0.7874015748031497
        },
        {
          "duration": 0.05859375,
          "durationTicks": 15,
          "midi": 55,
          "name": "G3",
          "ticks": 6750,
          "time": 26.3671875,
          "velocity": 0.7874015748031497
        },
        {
          "duration": 0.05859375,
          "durationTicks": 15,
          "midi": 54,
          "name": "F#3",
          "ticks": 6765,
          "time": 26.42578125,
          "velocity": 0.7874015748031497
        },
        {
          "duration": 0.05859375,
          "durationTicks": 15,
          "midi": 55,
          "name": "G3",
          "ticks": 6780,
          "time": 26.484375,
          "velocity": 0.7874015748031497
        },
        {
          "duration": 0.05859375,
          "durationTicks": 15,
          "midi": 54,
          "name": "F#3",
          "ticks": 6795,
          "time": 26.54296875,
          "velocity": 0.7874015748031497
        },
        {
          "duration": 0.05859375,
          "durationTicks": 15,
          "midi": 52,
          "name": "E3",
          "ticks": 6810,
          "time": 26.6015625,
          "velocity": 0.7874015748031497
        },
        {
          "duration": 0.05859375,
          "durationTicks": 15,
          "midi": 54,
          "name": "F#3",
          "ticks": 6825,
          "time": 26.66015625,
          "velocity": 0.7874015748031497
        },
        {
          "duration": 0.46875,
          "durationTicks": 120,
          "midi": 52,
          "name": "E3",
          "ticks": 6840,
          "time": 26.71875,
          "velocity": 0.7874015748031497
        },
        {
          "duration": 0.46875,
          "durationTicks": 120,
          "midi": 54,
          "name": "F#3",
          "ticks": 6960,
          "time": 27.1875,
          "velocity": 0.7874015748031497
        },
        {
          "duration": 0.46875,
          "durationTicks": 120,
          "midi": 59,
          "name": "B3",
          "ticks": 7080,
          "time": 27.65625,
          "velocity": 0.7874015748031497
        },
        {
          "duration": 1.40625,
          "durationTicks": 360,
          "midi": 52,
          "name": "E3",
          "ticks": 7200,
          "time": 28.125,
          "velocity": 0.7874015748031497
        },
        {
          "duration": 0.46875,
          "durationTicks": 120,
          "midi": 52,
          "name": "E3",
          "ticks": 7560,
          "time": 29.53125,
          "velocity": 0.7874015748031497
        },
        {
          "duration": 0.46875,
          "durationTicks": 120,
          "midi": 54,
          "name": "F#3",
          "ticks": 7680,
          "time": 30,
          "velocity": 0.7874015748031497
        },
        {
          "duration": 0.46875,
          "durationTicks": 120,
          "midi": 55,
          "name": "G3",
          "ticks": 7800,
          "time": 30.46875,
          "velocity": 0.7874015748031497
        },
        {
          "duration": 1.40625,
          "durationTicks": 360,
          "midi": 57,
          "name": "A3",
          "ticks": 7920,
          "time": 30.9375,
          "velocity": 0.7874015748031497
        },
        {
          "duration": 0.46875,
          "durationTicks": 120,
          "midi": 59,
          "name": "B3",
          "ticks": 8280,
          "time": 32.34375,
          "velocity": 0.7874015748031497
        },
        {
          "duration": 0.46875,
          "durationTicks": 120,
          "midi": 57,
          "name": "A3",
          "ticks": 8400,
          "time": 32.8125,
          "velocity": 0.7874015748031497
        },
        {
          "duration": 0.46875,
          "durationTicks": 120,
          "midi": 55,
          "name": "G3",
          "ticks": 8520,
          "time": 33.28125,
          "velocity": 0.7874015748031497
        },
        {
          "duration": 2.8125,
          "durationTicks": 720,
          "midi": 54,
          "name": "F#3",
          "ticks": 8640,
          "time": 33.75,
          "velocity": 0.7874015748031497
        },
        {
          "duration": 1.875,
          "durationTicks": 480,
          "midi": 55,
          "name": "G3",
          "ticks": 9360,
          "time": 36.5625,
          "velocity": 0.7874015748031497
        },
        {
          "duration": 2.8125,
          "durationTicks": 720,
          "midi": 57,
          "name": "A3",
          "ticks": 10080,
          "time": 39.375,
          "velocity": 0.7874015748031497
        },
        {
          "duration": 2.8125,
          "durationTicks": 720,
          "midi": 50,
          "name": "D3",
          "ticks": 10800,
          "time": 42.1875,
          "velocity": 0.7874015748031497
        },
        {
          "duration": 1.875,
          "durationTicks": 480,
          "midi": 62,
          "name": "D4",
          "ticks": 11520,
          "time": 45,
          "velocity": 0.7874015748031497
        },
        {
          "duration": 0.9375,
          "durationTicks": 240,
          "midi": 60,
          "name": "C4",
          "ticks": 12000,
          "time": 46.875,
          "velocity": 0.7874015748031497
        },
        {
          "duration": 1.40625,
          "durationTicks": 360,
          "midi": 59,
          "name": "B3",
          "ticks": 12240,
          "time": 47.8125,
          "velocity": 0.7874015748031497
        },
        {
          "duration": 0.46875,
          "durationTicks": 120,
          "midi": 57,
          "name": "A3",
          "ticks": 12600,
          "time": 49.21875,
          "velocity": 0.7874015748031497
        },
        {
          "duration": 0.9375,
          "durationTicks": 240,
          "midi": 59,
          "name": "B3",
          "ticks": 12720,
          "time": 49.6875,
          "velocity": 0.7874015748031497
        },
        {
          "duration": 1.40625,
          "durationTicks": 360,
          "midi": 60,
          "name": "C4",
          "ticks": 12960,
          "time": 50.625,
          "velocity": 0.7874015748031497
        },
        {
          "duration": 0.46875,
          "durationTicks": 120,
          "midi": 59,
          "name": "B3",
          "ticks": 13320,
          "time": 52.03125,
          "velocity": 0.7874015748031497
        },
        {
          "duration": 0.9375,
          "durationTicks": 240,
          "midi": 57,
          "name": "A3",
          "ticks": 13440,
          "time": 52.5,
          "velocity": 0.7874015748031497
        },
        {
          "duration": 1.40625,
          "durationTicks": 360,
          "midi": 59,
          "name": "B3",
          "ticks": 13680,
          "time": 53.4375,
          "velocity": 0.7874015748031497
        },
        {
          "duration": 0.46875,
          "durationTicks": 120,
          "midi": 57,
          "name": "A3",
          "ticks": 14040,
          "time": 54.84375,
          "velocity": 0.7874015748031497
        },
        {
          "duration": 0.46875,
          "durationTicks": 120,
          "midi": 55,
          "name": "G3",
          "ticks": 14160,
          "time": 55.3125,
          "velocity": 0.7874015748031497
        },
        {
          "duration": 0.46875,
          "durationTicks": 120,
          "midi": 54,
          "name": "F#3",
          "ticks": 14280,
          "time": 55.78125,
          "velocity": 0.7874015748031497
        },
        {
          "duration": 1.875,
          "durationTicks": 480,
          "midi": 52,
          "name": "E3",
          "ticks": 14400,
          "time": 56.25,
          "velocity": 0.7874015748031497
        },
        {
          "duration": 0.9375,
          "durationTicks": 240,
          "midi": 50,
          "name": "D3",
          "ticks": 14880,
          "time": 58.125,
          "velocity": 0.7874015748031497
        },
        {
          "duration": 1.875,
          "durationTicks": 480,
          "midi": 48,
          "name": "C3",
          "ticks": 15120,
          "time": 59.0625,
          "velocity": 0.7874015748031497
        },
        {
          "duration": 0.9375,
          "durationTicks": 240,
          "midi": 47,
          "name": "B2",
          "ticks": 15600,
          "time": 60.9375,
          "velocity": 0.7874015748031497
        },
        {
          "duration": 0.46875,
          "durationTicks": 120,
          "midi": 45,
          "name": "A2",
          "ticks": 15840,
          "time": 61.875,
          "velocity": 0.7874015748031497
        },
        {
          "duration": 0.46875,
          "durationTicks": 120,
          "midi": 48,
          "name": "C3",
          "ticks": 15960,
          "time": 62.34375,
          "velocity": 0.7874015748031497
        },
        {
          "duration": 0.46875,
          "durationTicks": 120,
          "midi": 47,
          "name": "B2",
          "ticks": 16080,
          "time": 62.8125,
          "velocity": 0.7874015748031497
        },
        {
          "duration": 0.46875,
          "durationTicks": 120,
          "midi": 45,
          "name": "A2",
          "ticks": 16200,
          "time": 63.28125,
          "velocity": 0.7874015748031497
        },
        {
          "duration": 0.9375,
          "durationTicks": 240,
          "midi": 47,
          "name": "B2",
          "ticks": 16320,
          "time": 63.75,
          "velocity": 0.7874015748031497
        },
        {
          "duration": 0.46875,
          "durationTicks": 120,
          "midi": 52,
          "name": "E3",
          "ticks": 16560,
          "time": 64.6875,
          "velocity": 0.7874015748031497
        },
        {
          "duration": 0.46875,
          "durationTicks": 120,
          "midi": 47,
          "name": "B2",
          "ticks": 16680,
          "time": 65.15625,
          "velocity": 0.7874015748031497
        },
        {
          "duration": 0.46875,
          "durationTicks": 120,
          "midi": 40,
          "name": "E2",
          "ticks": 16800,
          "time": 65.625,
          "velocity": 0.7874015748031497
        },
        {
          "duration": 0.46875,
          "durationTicks": 120,
          "midi": 47,
          "name": "B2",
          "ticks": 16920,
          "time": 66.09375,
          "velocity": 0.7874015748031497
        },
        {
          "duration": 0.46875,
          "durationTicks": 120,
          "midi": 52,
          "name": "E3",
          "ticks": 17040,
          "time": 66.5625,
          "velocity": 0.7874015748031497
        },
        {
          "duration": 0.46875,
          "durationTicks": 120,
          "midi": 50,
          "name": "D3",
          "ticks": 17160,
          "time": 67.03125,
          "velocity": 0.7874015748031497
        },
        {
          "duration": 2.8125,
          "durationTicks": 720,
          "midi": 48,
          "name": "C3",
          "ticks": 17280,
          "time": 67.5,
          "velocity": 0.7874015748031497
        },
        {
          "duration": 2.8125,
          "durationTicks": 720,
          "midi": 47,
          "name": "B2",
          "ticks": 18000,
          "time": 70.3125,
          "velocity": 0.7874015748031497
        },
        {
          "duration": 1.40625,
          "durationTicks": 360,
          "midi": 45,
          "name": "A2",
          "ticks": 18720,
          "time": 73.125,
          "velocity": 0.7874015748031497
        },
        {
          "duration": 0.46875,
          "durationTicks": 120,
          "midi": 43,
          "name": "G2",
          "ticks": 19080,
          "time": 74.53125,
          "velocity": 0.7874015748031497
        },
        {
          "duration": 0.46875,
          "durationTicks": 120,
          "midi": 42,
          "name": "F#2",
          "ticks": 19200,
          "time": 75,
          "velocity": 0.7874015748031497
        },
        {
          "duration": 0.46875,
          "durationTicks": 120,
          "midi": 40,
          "name": "E2",
          "ticks": 19320,
          "time": 75.46875,
          "velocity": 0.7874015748031497
        },
        {
          "duration": 0.46875,
          "durationTicks": 120,
          "midi": 38,
          "name": "D2",
          "ticks": 19440,
          "time": 75.9375,
          "velocity": 0.7874015748031497
        },
        {
          "duration": 0.46875,
          "durationTicks": 120,
          "midi": 45,
          "name": "A2",
          "ticks": 19560,
          "time": 76.40625,
          "velocity": 0.7874015748031497
        },
        {
          "duration": 0.46875,
          "durationTicks": 120,
          "midi": 50,
          "name": "D3",
          "ticks": 19680,
          "time": 76.875,
          "velocity": 0.7874015748031497
        },
        {
          "duration": 0.46875,
          "durationTicks": 120,
          "midi": 48,
          "name": "C3",
          "ticks": 19800,
          "time": 77.34375,
          "velocity": 0.7874015748031497
        },
        {
          "duration": 0.46875,
          "durationTicks": 120,
          "midi": 47,
          "name": "B2",
          "ticks": 19920,
          "time": 77.8125,
          "velocity": 0.7874015748031497
        },
        {
          "duration": 0.46875,
          "durationTicks": 120,
          "midi": 45,
          "name": "A2",
          "ticks": 20040,
          "time": 78.28125,
          "velocity": 0.7874015748031497
        },
        {
          "duration": 0.46875,
          "durationTicks": 120,
          "midi": 43,
          "name": "G2",
          "ticks": 20160,
          "time": 78.75,
          "velocity": 0.7874015748031497
        },
        {
          "duration": 0.46875,
          "durationTicks": 120,
          "midi": 50,
          "name": "D3",
          "ticks": 20280,
          "time": 79.21875,
          "velocity": 0.7874015748031497
        },
        {
          "duration": 0.46875,
          "durationTicks": 120,
          "midi": 55,
          "name": "G3",
          "ticks": 20400,
          "time": 79.6875,
          "velocity": 0.7874015748031497
        },
        {
          "duration": 0.46875,
          "durationTicks": 120,
          "midi": 53,
          "name": "F3",
          "ticks": 20520,
          "time": 80.15625,
          "velocity": 0.7874015748031497
        },
        {
          "duration": 0.46875,
          "durationTicks": 120,
          "midi": 52,
          "name": "E3",
          "ticks": 20640,
          "time": 80.625,
          "velocity": 0.7874015748031497
        },
        {
          "duration": 0.46875,
          "durationTicks": 120,
          "midi": 50,
          "name": "D3",
          "ticks": 20760,
          "time": 81.09375,
          "velocity": 0.7874015748031497
        },
        {
          "duration": 0.46875,
          "durationTicks": 120,
          "midi": 48,
          "name": "C3",
          "ticks": 20880,
          "time": 81.5625,
          "velocity": 0.7874015748031497
        },
        {
          "duration": 0.46875,
          "durationTicks": 120,
          "midi": 55,
          "name": "G3",
          "ticks": 21000,
          "time": 82.03125,
          "velocity": 0.7874015748031497
        },
        {
          "duration": 0.46875,
          "durationTicks": 120,
          "midi": 60,
          "name": "C4",
          "ticks": 21120,
          "time": 82.5,
          "velocity": 0.7874015748031497
        },
        {
          "duration": 0.46875,
          "durationTicks": 120,
          "midi": 59,
          "name": "B3",
          "ticks": 21240,
          "time": 82.96875,
          "velocity": 0.7874015748031497
        },
        {
          "duration": 0.46875,
          "durationTicks": 120,
          "midi": 57,
          "name": "A3",
          "ticks": 21360,
          "time": 83.4375,
          "velocity": 0.7874015748031497
        },
        {
          "duration": 0.46875,
          "durationTicks": 120,
          "midi": 55,
          "name": "G3",
          "ticks": 21480,
          "time": 83.90625,
          "velocity": 0.7874015748031497
        },
        {
          "duration": 0.46875,
          "durationTicks": 120,
          "midi": 54,
          "name": "F#3",
          "ticks": 21600,
          "time": 84.375,
          "velocity": 0.7874015748031497
        },
        {
          "duration": 0.46875,
          "durationTicks": 120,
          "midi": 50,
          "name": "D3",
          "ticks": 21720,
          "time": 84.84375,
          "velocity": 0.7874015748031497
        },
        {
          "duration": 0.46875,
          "durationTicks": 120,
          "midi": 55,
          "name": "G3",
          "ticks": 21840,
          "time": 85.3125,
          "velocity": 0.7874015748031497
        },
        {
          "duration": 0.46875,
          "durationTicks": 120,
          "midi": 59,
          "name": "B3",
          "ticks": 21960,
          "time": 85.78125,
          "velocity": 0.7874015748031497
        },
        {
          "duration": 0.46875,
          "durationTicks": 120,
          "midi": 62,
          "name": "D4",
          "ticks": 22080,
          "time": 86.25,
          "velocity": 0.7874015748031497
        },
        {
          "duration": 0.46875,
          "durationTicks": 120,
          "midi": 50,
          "name": "D3",
          "ticks": 22200,
          "time": 86.71875,
          "velocity": 0.7874015748031497
        },
        {
          "duration": 1.40625,
          "durationTicks": 360,
          "midi": 55,
          "name": "G3",
          "ticks": 22320,
          "time": 87.1875,
          "velocity": 0.7874015748031497
        },
        {
          "duration": 0.46875,
          "durationTicks": 120,
          "midi": 50,
          "name": "D3",
          "ticks": 22680,
          "time": 88.59375,
          "velocity": 0.7874015748031497
        },
        {
          "duration": 0.9375,
          "durationTicks": 240,
          "midi": 43,
          "name": "G2",
          "ticks": 22800,
          "time": 89.0625,
          "velocity": 0.7874015748031497
        },
        {
          "duration": 0.9375,
          "durationTicks": 360,
          "midi": 55,
          "name": "G3",
          "ticks": 61680,
          "time": 190.0256165,
          "velocity": 0.7874015748031497
        },
        {
          "duration": 0.9375,
          "durationTicks": 360,
          "midi": 54,
          "name": "F#3",
          "ticks": 62040,
          "time": 190.9631165,
          "velocity": 0.7874015748031497
        },
        {
          "duration": 0.9375,
          "durationTicks": 360,
          "midi": 52,
          "name": "E3",
          "ticks": 62400,
          "time": 191.9006165,
          "velocity": 0.7874015748031497
        },
        {
          "duration": 0.3125,
          "durationTicks": 120,
          "midi": 50,
          "name": "D3",
          "ticks": 62880,
          "time": 193.1506165,
          "velocity": 0.7874015748031497
        },
        {
          "duration": 0.3125,
          "durationTicks": 120,
          "midi": 54,
          "name": "F#3",
          "ticks": 63000,
          "time": 193.4631165,
          "velocity": 0.7874015748031497
        },
        {
          "duration": 0.9375,
          "durationTicks": 360,
          "midi": 47,
          "name": "B2",
          "ticks": 63120,
          "time": 193.7756165,
          "velocity": 0.7874015748031497
        },
        {
          "duration": 0.9375,
          "durationTicks": 360,
          "midi": 48,
          "name": "C3",
          "ticks": 63480,
          "time": 194.7131165,
          "velocity": 0.7874015748031497
        },
        {
          "duration": 0.9375,
          "durationTicks": 360,
          "midi": 50,
          "name": "D3",
          "ticks": 63840,
          "time": 195.6506165,
          "velocity": 0.7874015748031497
        },
        {
          "duration": 0.3125,
          "durationTicks": 120,
          "midi": 35,
          "name": "B1",
          "ticks": 64320,
          "time": 196.9006165,
          "velocity": 0.7874015748031497
        },
        {
          "duration": 0.3125,
          "durationTicks": 120,
          "midi": 47,
          "name": "B2",
          "ticks": 64320,
          "time": 196.9006165,
          "velocity": 0.7874015748031497
        },
        {
          "duration": 0.3125,
          "durationTicks": 120,
          "midi": 38,
          "name": "D2",
          "ticks": 64440,
          "time": 197.2131165,
          "velocity": 0.7874015748031497
        },
        {
          "duration": 0.3125,
          "durationTicks": 120,
          "midi": 50,
          "name": "D3",
          "ticks": 64440,
          "time": 197.2131165,
          "velocity": 0.7874015748031497
        },
        {
          "duration": 0.3125,
          "durationTicks": 120,
          "midi": 31,
          "name": "G1",
          "ticks": 64560,
          "time": 197.5256165,
          "velocity": 0.7874015748031497
        },
        {
          "duration": 0.3125,
          "durationTicks": 120,
          "midi": 43,
          "name": "G2",
          "ticks": 64560,
          "time": 197.5256165,
          "velocity": 0.7874015748031497
        },
        {
          "duration": 0.9375,
          "durationTicks": 360,
          "midi": 55,
          "name": "G3",
          "ticks": 64680,
          "time": 197.8381165,
          "velocity": 0.7874015748031497
        },
        {
          "duration": 0.9375,
          "durationTicks": 360,
          "midi": 54,
          "name": "F#3",
          "ticks": 65040,
          "time": 198.7756165,
          "velocity": 0.7874015748031497
        },
        {
          "duration": 0.3125,
          "durationTicks": 120,
          "midi": 52,
          "name": "E3",
          "ticks": 65400,
          "time": 199.7131165,
          "velocity": 0.7874015748031497
        },
        {
          "duration": 0.3125,
          "durationTicks": 120,
          "midi": 55,
          "name": "G3",
          "ticks": 65520,
          "time": 200.0256165,
          "velocity": 0.7874015748031497
        },
        {
          "duration": 0.3125,
          "durationTicks": 120,
          "midi": 49,
          "name": "C#3",
          "ticks": 65640,
          "time": 200.3381165,
          "velocity": 0.7874015748031497
        },
        {
          "duration": 0.3125,
          "durationTicks": 120,
          "midi": 57,
          "name": "A3",
          "ticks": 65760,
          "time": 200.6506165,
          "velocity": 0.7874015748031497
        },
        {
          "duration": 0.3125,
          "durationTicks": 120,
          "midi": 61,
          "name": "C#4",
          "ticks": 65880,
          "time": 200.9631165,
          "velocity": 0.7874015748031497
        },
        {
          "duration": 0.9375,
          "durationTicks": 360,
          "midi": 54,
          "name": "F#3",
          "ticks": 66000,
          "time": 201.2756165,
          "velocity": 0.7874015748031497
        },
        {
          "duration": 0.3125,
          "durationTicks": 120,
          "midi": 55,
          "name": "G3",
          "ticks": 66360,
          "time": 202.2131165,
          "velocity": 0.7874015748031497
        },
        {
          "duration": 0.9375,
          "durationTicks": 360,
          "midi": 43,
          "name": "G2",
          "ticks": 66480,
          "time": 202.5256165,
          "velocity": 0.7874015748031497
        },
        {
          "duration": 0.3125,
          "durationTicks": 120,
          "midi": 30,
          "name": "F#1",
          "ticks": 66840,
          "time": 203.4631165,
          "velocity": 0.7874015748031497
        },
        {
          "duration": 0.3125,
          "durationTicks": 120,
          "midi": 42,
          "name": "F#2",
          "ticks": 66840,
          "time": 203.4631165,
          "velocity": 0.7874015748031497
        },
        {
          "duration": 0.3125,
          "durationTicks": 120,
          "midi": 33,
          "name": "A1",
          "ticks": 66960,
          "time": 203.7756165,
          "velocity": 0.7874015748031497
        },
        {
          "duration": 0.3125,
          "durationTicks": 120,
          "midi": 45,
          "name": "A2",
          "ticks": 66960,
          "time": 203.7756165,
          "velocity": 0.7874015748031497
        },
        {
          "duration": 0.46875,
          "durationTicks": 180,
          "midi": 26,
          "name": "D1",
          "ticks": 67080,
          "time": 204.0881165,
          "velocity": 0.7874015748031497
        },
        {
          "duration": 0.46875,
          "durationTicks": 180,
          "midi": 38,
          "name": "D2",
          "ticks": 67080,
          "time": 204.0881165,
          "velocity": 0.7874015748031497
        },
        {
          "duration": 0.15625,
          "durationTicks": 60,
          "midi": 57,
          "name": "A3",
          "ticks": 67260,
          "time": 204.5568665,
          "velocity": 0.7874015748031497
        },
        {
          "duration": 0.15625,
          "durationTicks": 60,
          "midi": 59,
          "name": "B3",
          "ticks": 67320,
          "time": 204.7131165,
          "velocity": 0.7874015748031497
        },
        {
          "duration": 0.15625,
          "durationTicks": 60,
          "midi": 61,
          "name": "C#4",
          "ticks": 67380,
          "time": 204.8693665,
          "velocity": 0.7874015748031497
        },
        {
          "duration": 0.625,
          "durationTicks": 240,
          "midi": 62,
          "name": "D4",
          "ticks": 67440,
          "time": 205.0256165,
          "velocity": 0.7874015748031497
        },
        {
          "duration": 0.3125,
          "durationTicks": 120,
          "midi": 60,
          "name": "C4",
          "ticks": 67680,
          "time": 205.6506165,
          "velocity": 0.7874015748031497
        },
        {
          "duration": 0.625,
          "durationTicks": 240,
          "midi": 59,
          "name": "B3",
          "ticks": 67800,
          "time": 205.9631165,
          "velocity": 0.7874015748031497
        },
        {
          "duration": 0.3125,
          "durationTicks": 120,
          "midi": 55,
          "name": "G3",
          "ticks": 68040,
          "time": 206.5881165,
          "velocity": 0.7874015748031497
        },
        {
          "duration": 0.3125,
          "durationTicks": 120,
          "midi": 60,
          "name": "C4",
          "ticks": 68160,
          "time": 206.9006165,
          "velocity": 0.7874015748031497
        },
        {
          "duration": 0.3125,
          "durationTicks": 120,
          "midi": 54,
          "name": "F#3",
          "ticks": 68280,
          "time": 207.2131165,
          "velocity": 0.7874015748031497
        },
        {
          "duration": 0.3125,
          "durationTicks": 120,
          "midi": 57,
          "name": "A3",
          "ticks": 68400,
          "time": 207.5256165,
          "velocity": 0.7874015748031497
        },
        {
          "duration": 0.3125,
          "durationTicks": 120,
          "midi": 59,
          "name": "B3",
          "ticks": 68520,
          "time": 207.8381165,
          "velocity": 0.7874015748031497
        },
        {
          "duration": 0.3125,
          "durationTicks": 120,
          "midi": 51,
          "name": "D#3",
          "ticks": 68640,
          "time": 208.1506165,
          "velocity": 0.7874015748031497
        },
        {
          "duration": 0.3125,
          "durationTicks": 120,
          "midi": 47,
          "name": "B2",
          "ticks": 68760,
          "time": 208.4631165,
          "velocity": 0.7874015748031497
        },
        {
          "duration": 0.3125,
          "durationTicks": 120,
          "midi": 52,
          "name": "E3",
          "ticks": 68880,
          "time": 208.7756165,
          "velocity": 0.7874015748031497
        },
        {
          "duration": 0.3125,
          "durationTicks": 120,
          "midi": 55,
          "name": "G3",
          "ticks": 69000,
          "time": 209.0881165,
          "velocity": 0.7874015748031497
        },
        {
          "duration": 0.3125,
          "durationTicks": 120,
          "midi": 52,
          "name": "E3",
          "ticks": 69120,
          "time": 209.4006165,
          "velocity": 0.7874015748031497
        },
        {
          "duration": 0.3125,
          "durationTicks": 120,
          "midi": 57,
          "name": "A3",
          "ticks": 69240,
          "time": 209.7131165,
          "velocity": 0.7874015748031497
        },
        {
          "duration": 0.3125,
          "durationTicks": 120,
          "midi": 54,
          "name": "F#3",
          "ticks": 69360,
          "time": 210.0256165,
          "velocity": 0.7874015748031497
        },
        {
          "duration": 0.3125,
          "durationTicks": 120,
          "midi": 52,
          "name": "E3",
          "ticks": 69480,
          "time": 210.3381165,
          "velocity": 0.7874015748031497
        },
        {
          "duration": 0.3125,
          "durationTicks": 120,
          "midi": 57,
          "name": "A3",
          "ticks": 69600,
          "time": 210.6506165,
          "velocity": 0.7874015748031497
        },
        {
          "duration": 0.3125,
          "durationTicks": 120,
          "midi": 59,
          "name": "B3",
          "ticks": 69720,
          "time": 210.9631165,
          "velocity": 0.7874015748031497
        },
        {
          "duration": 0.3125,
          "durationTicks": 120,
          "midi": 47,
          "name": "B2",
          "ticks": 69840,
          "time": 211.2756165,
          "velocity": 0.7874015748031497
        },
        {
          "duration": 0.625,
          "durationTicks": 240,
          "midi": 52,
          "name": "E3",
          "ticks": 69960,
          "time": 211.5881165,
          "velocity": 0.7874015748031497
        },
        {
          "duration": 0.3125,
          "durationTicks": 120,
          "midi": 50,
          "name": "D3",
          "ticks": 70200,
          "time": 212.2131165,
          "velocity": 0.7874015748031497
        },
        {
          "duration": 1.25,
          "durationTicks": 480,
          "midi": 48,
          "name": "C3",
          "ticks": 70320,
          "time": 212.5256165,
          "velocity": 0.7874015748031497
        },
        {
          "duration": 0.9375,
          "durationTicks": 360,
          "midi": 47,
          "name": "B2",
          "ticks": 70800,
          "time": 213.7756165,
          "velocity": 0.7874015748031497
        },
        {
          "duration": 0.3125,
          "durationTicks": 120,
          "midi": 45,
          "name": "A2",
          "ticks": 71160,
          "time": 214.7131165,
          "velocity": 0.7874015748031497
        },
        {
          "duration": 0.3125,
          "durationTicks": 120,
          "midi": 48,
          "name": "C3",
          "ticks": 71280,
          "time": 215.0256165,
          "velocity": 0.7874015748031497
        },
        {
          "duration": 0.3125,
          "durationTicks": 120,
          "midi": 42,
          "name": "F#2",
          "ticks": 71400,
          "time": 215.3381165,
          "velocity": 0.7874015748031497
        },
        {
          "duration": 0.3125,
          "durationTicks": 120,
          "midi": 38,
          "name": "D2",
          "ticks": 71520,
          "time": 215.6506165,
          "velocity": 0.7874015748031497
        },
        {
          "duration": 0.3125,
          "durationTicks": 120,
          "midi": 42,
          "name": "F#2",
          "ticks": 71640,
          "time": 215.9631165,
          "velocity": 0.7874015748031497
        },
        {
          "duration": 0.3125,
          "durationTicks": 120,
          "midi": 43,
          "name": "G2",
          "ticks": 71760,
          "time": 216.2756165,
          "velocity": 0.7874015748031497
        },
        {
          "duration": 0.3125,
          "durationTicks": 120,
          "midi": 47,
          "name": "B2",
          "ticks": 71880,
          "time": 216.5881165,
          "velocity": 0.7874015748031497
        },
        {
          "duration": 0.3125,
          "durationTicks": 120,
          "midi": 43,
          "name": "G2",
          "ticks": 72000,
          "time": 216.9006165,
          "velocity": 0.7874015748031497
        },
        {
          "duration": 1.25,
          "durationTicks": 480,
          "midi": 48,
          "name": "C3",
          "ticks": 72120,
          "time": 217.2131165,
          "velocity": 0.7874015748031497
        },
        {
          "duration": 0.25,
          "durationTicks": 120,
          "midi": 35,
          "name": "B1",
          "ticks": 72600,
          "time": 218.4631165,
          "velocity": 0.7874015748031497
        },
        {
          "duration": 0.25,
          "durationTicks": 120,
          "midi": 47,
          "name": "B2",
          "ticks": 72600,
          "time": 218.4631165,
          "velocity": 0.7874015748031497
        },
        {
          "duration": 0.25,
          "durationTicks": 120,
          "midi": 38,
          "name": "D2",
          "ticks": 72720,
          "time": 218.7131165,
          "velocity": 0.7874015748031497
        },
        {
          "duration": 0.25,
          "durationTicks": 120,
          "midi": 50,
          "name": "D3",
          "ticks": 72720,
          "time": 218.7131165,
          "velocity": 0.7874015748031497
        },
        {
          "duration": 0.5,
          "durationTicks": 240,
          "midi": 31,
          "name": "G1",
          "ticks": 72840,
          "time": 218.9631165,
          "velocity": 0.7874015748031497
        },
        {
          "duration": 0.5,
          "durationTicks": 240,
          "midi": 43,
          "name": "G2",
          "ticks": 72840,
          "time": 218.9631165,
          "velocity": 0.7874015748031497
        },
        {
          "duration": 0.09375,
          "durationTicks": 60,
          "midi": 55,
          "name": "G3",
          "ticks": 156360,
          "time": 385.8893125,
          "velocity": 0.7874015748031497
        },
        {
          "duration": 0.09375,
          "durationTicks": 60,
          "midi": 54,
          "name": "F#3",
          "ticks": 156420,
          "time": 385.9830625,
          "velocity": 0.7874015748031497
        },
        {
          "duration": 0.5625,
          "durationTicks": 360,
          "midi": 55,
          "name": "G3",
          "ticks": 156480,
          "time": 386.0768125,
          "velocity": 0.7874015748031497
        },
        {
          "duration": 0.09375,
          "durationTicks": 60,
          "midi": 57,
          "name": "A3",
          "ticks": 156840,
          "time": 386.6393125,
          "velocity": 0.7874015748031497
        },
        {
          "duration": 0.09375,
          "durationTicks": 60,
          "midi": 55,
          "name": "G3",
          "ticks": 156900,
          "time": 386.7330625,
          "velocity": 0.7874015748031497
        },
        {
          "duration": 0.09375,
          "durationTicks": 60,
          "midi": 57,
          "name": "A3",
          "ticks": 156960,
          "time": 386.8268125,
          "velocity": 0.7874015748031497
        },
        {
          "duration": 0.09375,
          "durationTicks": 60,
          "midi": 55,
          "name": "G3",
          "ticks": 157020,
          "time": 386.9205625,
          "velocity": 0.7874015748031497
        },
        {
          "duration": 0.09375,
          "durationTicks": 60,
          "midi": 57,
          "name": "A3",
          "ticks": 157080,
          "time": 387.0143125,
          "velocity": 0.7874015748031497
        },
        {
          "duration": 0.09375,
          "durationTicks": 60,
          "midi": 55,
          "name": "G3",
          "ticks": 157140,
          "time": 387.1080625,
          "velocity": 0.7874015748031497
        },
        {
          "duration": 0.09375,
          "durationTicks": 60,
          "midi": 54,
          "name": "F#3",
          "ticks": 157200,
          "time": 387.2018125,
          "velocity": 0.7874015748031497
        },
        {
          "duration": 0.09375,
          "durationTicks": 60,
          "midi": 55,
          "name": "G3",
          "ticks": 157260,
          "time": 387.2955625,
          "velocity": 0.7874015748031497
        },
        {
          "duration": 0.375,
          "durationTicks": 240,
          "midi": 57,
          "name": "A3",
          "ticks": 157320,
          "time": 387.3893125,
          "velocity": 0.7874015748031497
        },
        {
          "duration": 0.375,
          "durationTicks": 240,
          "midi": 54,
          "name": "F#3",
          "ticks": 157560,
          "time": 387.7643125,
          "velocity": 0.7874015748031497
        },
        {
          "duration": 0.375,
          "durationTicks": 240,
          "midi": 50,
          "name": "D3",
          "ticks": 157800,
          "time": 388.1393125,
          "velocity": 0.7874015748031497
        },
        {
          "duration": 0.375,
          "durationTicks": 240,
          "midi": 54,
          "name": "F#3",
          "ticks": 158040,
          "time": 388.5143125,
          "velocity": 0.7874015748031497
        },
        {
          "duration": 0.375,
          "durationTicks": 240,
          "midi": 52,
          "name": "E3",
          "ticks": 158280,
          "time": 388.8893125,
          "velocity": 0.7874015748031497
        },
        {
          "duration": 0.375,
          "durationTicks": 240,
          "midi": 57,
          "name": "A3",
          "ticks": 158520,
          "time": 389.2643125,
          "velocity": 0.7874015748031497
        },
        {
          "duration": 0.375,
          "durationTicks": 240,
          "midi": 45,
          "name": "A2",
          "ticks": 158760,
          "time": 389.6393125,
          "velocity": 0.7874015748031497
        },
        {
          "duration": 0.375,
          "durationTicks": 240,
          "midi": 55,
          "name": "G3",
          "ticks": 159000,
          "time": 390.0143125,
          "velocity": 0.7874015748031497
        },
        {
          "duration": 0.0625,
          "durationTicks": 40,
          "midi": 55,
          "name": "G3",
          "ticks": 159240,
          "time": 390.3893125,
          "velocity": 0.7874015748031497
        },
        {
          "duration": 0.0625,
          "durationTicks": 40,
          "midi": 54,
          "name": "F#3",
          "ticks": 159280,
          "time": 390.4518125,
          "velocity": 0.7874015748031497
        },
        {
          "duration": 0.0625,
          "durationTicks": 40,
          "midi": 55,
          "name": "G3",
          "ticks": 159320,
          "time": 390.5143125,
          "velocity": 0.7874015748031497
        },
        {
          "duration": 0.1875,
          "durationTicks": 120,
          "midi": 54,
          "name": "F#3",
          "ticks": 159360,
          "time": 390.5768125,
          "velocity": 0.7874015748031497
        },
        {
          "duration": 0.1875,
          "durationTicks": 120,
          "midi": 52,
          "name": "E3",
          "ticks": 159480,
          "time": 390.7643125,
          "velocity": 0.7874015748031497
        },
        {
          "duration": 0.1875,
          "durationTicks": 120,
          "midi": 54,
          "name": "F#3",
          "ticks": 159600,
          "time": 390.9518125,
          "velocity": 0.7874015748031497
        },
        {
          "duration": 0.1875,
          "durationTicks": 120,
          "midi": 50,
          "name": "D3",
          "ticks": 159720,
          "time": 391.1393125,
          "velocity": 0.7874015748031497
        },
        {
          "duration": 0.1875,
          "durationTicks": 120,
          "midi": 52,
          "name": "E3",
          "ticks": 159840,
          "time": 391.3268125,
          "velocity": 0.7874015748031497
        },
        {
          "duration": 0.1875,
          "durationTicks": 120,
          "midi": 48,
          "name": "C3",
          "ticks": 159960,
          "time": 391.5143125,
          "velocity": 0.7874015748031497
        },
        {
          "duration": 0.1875,
          "durationTicks": 120,
          "midi": 50,
          "name": "D3",
          "ticks": 160080,
          "time": 391.7018125,
          "velocity": 0.7874015748031497
        },
        {
          "duration": 0.1875,
          "durationTicks": 120,
          "midi": 47,
          "name": "B2",
          "ticks": 160200,
          "time": 391.8893125,
          "velocity": 0.7874015748031497
        },
        {
          "duration": 0.1875,
          "durationTicks": 120,
          "midi": 50,
          "name": "D3",
          "ticks": 160320,
          "time": 392.0768125,
          "velocity": 0.7874015748031497
        },
        {
          "duration": 0.1875,
          "durationTicks": 120,
          "midi": 52,
          "name": "E3",
          "ticks": 160440,
          "time": 392.2643125,
          "velocity": 0.7874015748031497
        },
        {
          "duration": 0.1875,
          "durationTicks": 120,
          "midi": 54,
          "name": "F#3",
          "ticks": 160560,
          "time": 392.4518125,
          "velocity": 0.7874015748031497
        },
        {
          "duration": 0.375,
          "durationTicks": 240,
          "midi": 55,
          "name": "G3",
          "ticks": 160680,
          "time": 392.6393125,
          "velocity": 0.7874015748031497
        },
        {
          "duration": 0.375,
          "durationTicks": 240,
          "midi": 47,
          "name": "B2",
          "ticks": 160920,
          "time": 393.0143125,
          "velocity": 0.7874015748031497
        },
        {
          "duration": 0.75,
          "durationTicks": 480,
          "midi": 48,
          "name": "C3",
          "ticks": 161160,
          "time": 393.3893125,
          "velocity": 0.7874015748031497
        },
        {
          "duration": 0.375,
          "durationTicks": 240,
          "midi": 45,
          "name": "A2",
          "ticks": 161880,
          "time": 394.5143125,
          "velocity": 0.7874015748031497
        },
        {
          "duration": 0.75,
          "durationTicks": 480,
          "midi": 42,
          "name": "F#2",
          "ticks": 162120,
          "time": 394.8893125,
          "velocity": 0.7874015748031497
        },
        {
          "duration": 0.375,
          "durationTicks": 240,
          "midi": 38,
          "name": "D2",
          "ticks": 162840,
          "time": 396.0143125,
          "velocity": 0.7874015748031497
        },
        {
          "duration": 0.375,
          "durationTicks": 240,
          "midi": 43,
          "name": "G2",
          "ticks": 163080,
          "time": 396.3893125,
          "velocity": 0.7874015748031497
        },
        {
          "duration": 0.375,
          "durationTicks": 240,
          "midi": 50,
          "name": "D3",
          "ticks": 163320,
          "time": 396.7643125,
          "velocity": 0.7874015748031497
        },
        {
          "duration": 0.375,
          "durationTicks": 240,
          "midi": 47,
          "name": "B2",
          "ticks": 163560,
          "time": 397.1393125,
          "velocity": 0.7874015748031497
        },
        {
          "duration": 0.375,
          "durationTicks": 240,
          "midi": 50,
          "name": "D3",
          "ticks": 163800,
          "time": 397.5143125,
          "velocity": 0.7874015748031497
        },
        {
          "duration": 0.75,
          "durationTicks": 480,
          "midi": 55,
          "name": "G3",
          "ticks": 164040,
          "time": 397.8893125,
          "velocity": 0.7874015748031497
        },
        {
          "duration": 0.375,
          "durationTicks": 240,
          "midi": 52,
          "name": "E3",
          "ticks": 164760,
          "time": 399.0143125,
          "velocity": 0.7874015748031497
        },
        {
          "duration": 0.75,
          "durationTicks": 480,
          "midi": 54,
          "name": "F#3",
          "ticks": 165000,
          "time": 399.3893125,
          "velocity": 0.7874015748031497
        },
        {
          "duration": 0.375,
          "durationTicks": 240,
          "midi": 50,
          "name": "D3",
          "ticks": 165720,
          "time": 400.5143125,
          "velocity": 0.7874015748031497
        },
        {
          "duration": 0.75,
          "durationTicks": 480,
          "midi": 55,
          "name": "G3",
          "ticks": 165960,
          "time": 400.8893125,
          "velocity": 0.7874015748031497
        },
        {
          "duration": 0.375,
          "durationTicks": 240,
          "midi": 52,
          "name": "E3",
          "ticks": 166680,
          "time": 402.0143125,
          "velocity": 0.7874015748031497
        },
        {
          "duration": 0.75,
          "durationTicks": 480,
          "midi": 57,
          "name": "A3",
          "ticks": 166920,
          "time": 402.3893125,
          "velocity": 0.7874015748031497
        },
        {
          "duration": 0.375,
          "durationTicks": 240,
          "midi": 55,
          "name": "G3",
          "ticks": 167640,
          "time": 403.5143125,
          "velocity": 0.7874015748031497
        },
        {
          "duration": 0.75,
          "durationTicks": 480,
          "midi": 54,
          "name": "F#3",
          "ticks": 167880,
          "time": 403.8893125,
          "velocity": 0.7874015748031497
        },
        {
          "duration": 0.375,
          "durationTicks": 240,
          "midi": 50,
          "name": "D3",
          "ticks": 168600,
          "time": 405.0143125,
          "velocity": 0.7874015748031497
        },
        {
          "duration": 0.375,
          "durationTicks": 240,
          "midi": 43,
          "name": "G2",
          "ticks": 168840,
          "time": 405.3893125,
          "velocity": 0.7874015748031497
        },
        {
          "duration": 0.375,
          "durationTicks": 240,
          "midi": 47,
          "name": "B2",
          "ticks": 169080,
          "time": 405.7643125,
          "velocity": 0.7874015748031497
        },
        {
          "duration": 0.375,
          "durationTicks": 240,
          "midi": 43,
          "name": "G2",
          "ticks": 169320,
          "time": 406.1393125,
          "velocity": 0.7874015748031497
        },
        {
          "duration": 0.375,
          "durationTicks": 240,
          "midi": 40,
          "name": "E2",
          "ticks": 169560,
          "time": 406.5143125,
          "velocity": 0.7874015748031497
        },
        {
          "duration": 0.75,
          "durationTicks": 480,
          "midi": 45,
          "name": "A2",
          "ticks": 169800,
          "time": 406.8893125,
          "velocity": 0.7874015748031497
        },
        {
          "duration": 0.375,
          "durationTicks": 240,
          "midi": 45,
          "name": "A2",
          "ticks": 170520,
          "time": 408.0143125,
          "velocity": 0.7874015748031497
        },
        {
          "duration": 1.5,
          "durationTicks": 960,
          "midi": 50,
          "name": "D3",
          "ticks": 170760,
          "time": 408.3893125,
          "velocity": 0.7874015748031497
        },
        {
          "duration": 0.1875,
          "durationTicks": 120,
          "midi": 50,
          "name": "D3",
          "ticks": 171720,
          "time": 409.8893125,
          "velocity": 0.7874015748031497
        },
        {
          "duration": 0.1875,
          "durationTicks": 120,
          "midi": 52,
          "name": "E3",
          "ticks": 171840,
          "time": 410.0768125,
          "velocity": 0.7874015748031497
        },
        {
          "duration": 0.1875,
          "durationTicks": 120,
          "midi": 54,
          "name": "F#3",
          "ticks": 171960,
          "time": 410.2643125,
          "velocity": 0.7874015748031497
        },
        {
          "duration": 0.1875,
          "durationTicks": 120,
          "midi": 55,
          "name": "G3",
          "ticks": 172080,
          "time": 410.4518125,
          "velocity": 0.7874015748031497
        },
        {
          "duration": 0.375,
          "durationTicks": 240,
          "midi": 57,
          "name": "A3",
          "ticks": 172200,
          "time": 410.6393125,
          "velocity": 0.7874015748031497
        },
        {
          "duration": 0.375,
          "durationTicks": 240,
          "midi": 48,
          "name": "C3",
          "ticks": 172440,
          "time": 411.0143125,
          "velocity": 0.7874015748031497
        },
        {
          "duration": 0.1875,
          "durationTicks": 120,
          "midi": 47,
          "name": "B2",
          "ticks": 172680,
          "time": 411.3893125,
          "velocity": 0.7874015748031497
        },
        {
          "duration": 0.1875,
          "durationTicks": 120,
          "midi": 50,
          "name": "D3",
          "ticks": 172800,
          "time": 411.5768125,
          "velocity": 0.7874015748031497
        },
        {
          "duration": 0.1875,
          "durationTicks": 120,
          "midi": 52,
          "name": "E3",
          "ticks": 172920,
          "time": 411.7643125,
          "velocity": 0.7874015748031497
        },
        {
          "duration": 0.1875,
          "durationTicks": 120,
          "midi": 54,
          "name": "F#3",
          "ticks": 173040,
          "time": 411.9518125,
          "velocity": 0.7874015748031497
        },
        {
          "duration": 0.1875,
          "durationTicks": 120,
          "midi": 55,
          "name": "G3",
          "ticks": 173160,
          "time": 412.1393125,
          "velocity": 0.7874015748031497
        },
        {
          "duration": 0.1875,
          "durationTicks": 120,
          "midi": 57,
          "name": "A3",
          "ticks": 173280,
          "time": 412.3268125,
          "velocity": 0.7874015748031497
        },
        {
          "duration": 0.75,
          "durationTicks": 480,
          "midi": 59,
          "name": "B3",
          "ticks": 173400,
          "time": 412.5143125,
          "velocity": 0.7874015748031497
        },
        {
          "duration": 0.1875,
          "durationTicks": 120,
          "midi": 57,
          "name": "A3",
          "ticks": 173880,
          "time": 413.2643125,
          "velocity": 0.7874015748031497
        },
        {
          "duration": 0.1875,
          "durationTicks": 120,
          "midi": 56,
          "name": "G#3",
          "ticks": 174000,
          "time": 413.4518125,
          "velocity": 0.7874015748031497
        },
        {
          "duration": 0.09375,
          "durationTicks": 60,
          "midi": 59,
          "name": "B3",
          "ticks": 174120,
          "time": 413.6393125,
          "velocity": 0.7874015748031497
        },
        {
          "duration": 0.09375,
          "durationTicks": 60,
          "midi": 57,
          "name": "A3",
          "ticks": 174180,
          "time": 413.7330625,
          "velocity": 0.7874015748031497
        },
        {
          "duration": 0.09375,
          "durationTicks": 60,
          "midi": 59,
          "name": "B3",
          "ticks": 174240,
          "time": 413.8268125,
          "velocity": 0.7874015748031497
        },
        {
          "duration": 0.09375,
          "durationTicks": 60,
          "midi": 57,
          "name": "A3",
          "ticks": 174300,
          "time": 413.9205625,
          "velocity": 0.7874015748031497
        },
        {
          "duration": 0.09375,
          "durationTicks": 60,
          "midi": 59,
          "name": "B3",
          "ticks": 174360,
          "time": 414.0143125,
          "velocity": 0.7874015748031497
        },
        {
          "duration": 0.09375,
          "durationTicks": 60,
          "midi": 57,
          "name": "A3",
          "ticks": 174420,
          "time": 414.1080625,
          "velocity": 0.7874015748031497
        },
        {
          "duration": 0.09375,
          "durationTicks": 60,
          "midi": 56,
          "name": "G#3",
          "ticks": 174480,
          "time": 414.2018125,
          "velocity": 0.7874015748031497
        },
        {
          "duration": 0.09375,
          "durationTicks": 60,
          "midi": 57,
          "name": "A3",
          "ticks": 174540,
          "time": 414.2955625,
          "velocity": 0.7874015748031497
        },
        {
          "duration": 0.375,
          "durationTicks": 240,
          "midi": 54,
          "name": "F#3",
          "ticks": 174600,
          "time": 414.3893125,
          "velocity": 0.7874015748031497
        },
        {
          "duration": 0.375,
          "durationTicks": 240,
          "midi": 59,
          "name": "B3",
          "ticks": 174840,
          "time": 414.7643125,
          "velocity": 0.7874015748031497
        },
        {
          "duration": 0.375,
          "durationTicks": 240,
          "midi": 47,
          "name": "B2",
          "ticks": 175080,
          "time": 415.1393125,
          "velocity": 0.7874015748031497
        },
        {
          "duration": 0.375,
          "durationTicks": 240,
          "midi": 57,
          "name": "A3",
          "ticks": 175320,
          "time": 415.5143125,
          "velocity": 0.7874015748031497
        },
        {
          "duration": 0.1875,
          "durationTicks": 120,
          "midi": 55,
          "name": "G3",
          "ticks": 175560,
          "time": 415.8893125,
          "velocity": 0.7874015748031497
        },
        {
          "duration": 0.1875,
          "durationTicks": 120,
          "midi": 57,
          "name": "A3",
          "ticks": 175680,
          "time": 416.0768125,
          "velocity": 0.7874015748031497
        },
        {
          "duration": 0.1875,
          "durationTicks": 120,
          "midi": 59,
          "name": "B3",
          "ticks": 175800,
          "time": 416.2643125,
          "velocity": 0.7874015748031497
        },
        {
          "duration": 0.1875,
          "durationTicks": 120,
          "midi": 57,
          "name": "A3",
          "ticks": 175920,
          "time": 416.4518125,
          "velocity": 0.7874015748031497
        },
        {
          "duration": 0.1875,
          "durationTicks": 120,
          "midi": 55,
          "name": "G3",
          "ticks": 176040,
          "time": 416.6393125,
          "velocity": 0.7874015748031497
        },
        {
          "duration": 0.1875,
          "durationTicks": 120,
          "midi": 54,
          "name": "F#3",
          "ticks": 176160,
          "time": 416.8268125,
          "velocity": 0.7874015748031497
        },
        {
          "duration": 0.1875,
          "durationTicks": 120,
          "midi": 55,
          "name": "G3",
          "ticks": 176280,
          "time": 417.0143125,
          "velocity": 0.7874015748031497
        },
        {
          "duration": 0.1875,
          "durationTicks": 120,
          "midi": 52,
          "name": "E3",
          "ticks": 176400,
          "time": 417.2018125,
          "velocity": 0.7874015748031497
        },
        {
          "duration": 0.1875,
          "durationTicks": 120,
          "midi": 57,
          "name": "A3",
          "ticks": 176520,
          "time": 417.3893125,
          "velocity": 0.7874015748031497
        },
        {
          "duration": 0.1875,
          "durationTicks": 120,
          "midi": 59,
          "name": "B3",
          "ticks": 176640,
          "time": 417.5768125,
          "velocity": 0.7874015748031497
        },
        {
          "duration": 0.1875,
          "durationTicks": 120,
          "midi": 60,
          "name": "C4",
          "ticks": 176760,
          "time": 417.7643125,
          "velocity": 0.7874015748031497
        },
        {
          "duration": 0.1875,
          "durationTicks": 120,
          "midi": 59,
          "name": "B3",
          "ticks": 176880,
          "time": 417.9518125,
          "velocity": 0.7874015748031497
        },
        {
          "duration": 0.1875,
          "durationTicks": 120,
          "midi": 57,
          "name": "A3",
          "ticks": 177000,
          "time": 418.1393125,
          "velocity": 0.7874015748031497
        },
        {
          "duration": 0.1875,
          "durationTicks": 120,
          "midi": 55,
          "name": "G3",
          "ticks": 177120,
          "time": 418.3268125,
          "velocity": 0.7874015748031497
        },
        {
          "duration": 0.1875,
          "durationTicks": 120,
          "midi": 57,
          "name": "A3",
          "ticks": 177240,
          "time": 418.5143125,
          "velocity": 0.7874015748031497
        },
        {
          "duration": 0.1875,
          "durationTicks": 120,
          "midi": 54,
          "name": "F#3",
          "ticks": 177360,
          "time": 418.7018125,
          "velocity": 0.7874015748031497
        },
        {
          "duration": 0.1875,
          "durationTicks": 120,
          "midi": 59,
          "name": "B3",
          "ticks": 177480,
          "time": 418.8893125,
          "velocity": 0.7874015748031497
        },
        {
          "duration": 0.1875,
          "durationTicks": 120,
          "midi": 57,
          "name": "A3",
          "ticks": 177600,
          "time": 419.0768125,
          "velocity": 0.7874015748031497
        },
        {
          "duration": 0.1875,
          "durationTicks": 120,
          "midi": 55,
          "name": "G3",
          "ticks": 177720,
          "time": 419.2643125,
          "velocity": 0.7874015748031497
        },
        {
          "duration": 0.1875,
          "durationTicks": 120,
          "midi": 57,
          "name": "A3",
          "ticks": 177840,
          "time": 419.4518125,
          "velocity": 0.7874015748031497
        },
        {
          "duration": 0.1875,
          "durationTicks": 120,
          "midi": 59,
          "name": "B3",
          "ticks": 177960,
          "time": 419.6393125,
          "velocity": 0.7874015748031497
        },
        {
          "duration": 0.1875,
          "durationTicks": 120,
          "midi": 57,
          "name": "A3",
          "ticks": 178080,
          "time": 419.8268125,
          "velocity": 0.7874015748031497
        },
        {
          "duration": 0.1875,
          "durationTicks": 120,
          "midi": 59,
          "name": "B3",
          "ticks": 178200,
          "time": 420.0143125,
          "velocity": 0.7874015748031497
        },
        {
          "duration": 0.1875,
          "durationTicks": 120,
          "midi": 47,
          "name": "B2",
          "ticks": 178320,
          "time": 420.2018125,
          "velocity": 0.7874015748031497
        },
        {
          "duration": 0.1875,
          "durationTicks": 120,
          "midi": 52,
          "name": "E3",
          "ticks": 178440,
          "time": 420.3893125,
          "velocity": 0.7874015748031497
        },
        {
          "duration": 0.1875,
          "durationTicks": 120,
          "midi": 47,
          "name": "B2",
          "ticks": 178560,
          "time": 420.5768125,
          "velocity": 0.7874015748031497
        },
        {
          "duration": 0.1875,
          "durationTicks": 120,
          "midi": 45,
          "name": "A2",
          "ticks": 178680,
          "time": 420.7643125,
          "velocity": 0.7874015748031497
        },
        {
          "duration": 0.1875,
          "durationTicks": 120,
          "midi": 47,
          "name": "B2",
          "ticks": 178800,
          "time": 420.9518125,
          "velocity": 0.7874015748031497
        },
        {
          "duration": 0.1875,
          "durationTicks": 120,
          "midi": 43,
          "name": "G2",
          "ticks": 178920,
          "time": 421.1393125,
          "velocity": 0.7874015748031497
        },
        {
          "duration": 0.1875,
          "durationTicks": 120,
          "midi": 42,
          "name": "F#2",
          "ticks": 179040,
          "time": 421.3268125,
          "velocity": 0.7874015748031497
        },
        {
          "duration": 0.1875,
          "durationTicks": 120,
          "midi": 43,
          "name": "G2",
          "ticks": 179160,
          "time": 421.5143125,
          "velocity": 0.7874015748031497
        },
        {
          "duration": 0.1875,
          "durationTicks": 120,
          "midi": 40,
          "name": "E2",
          "ticks": 179280,
          "time": 421.7018125,
          "velocity": 0.7874015748031497
        },
        {
          "duration": 0.75,
          "durationTicks": 480,
          "midi": 49,
          "name": "C#3",
          "ticks": 179400,
          "time": 421.8893125,
          "velocity": 0.7874015748031497
        },
        {
          "duration": 0.09375,
          "durationTicks": 60,
          "midi": 50,
          "name": "D3",
          "ticks": 179880,
          "time": 422.6393125,
          "velocity": 0.7874015748031497
        },
        {
          "duration": 0.09375,
          "durationTicks": 60,
          "midi": 49,
          "name": "C#3",
          "ticks": 179940,
          "time": 422.7330625,
          "velocity": 0.7874015748031497
        },
        {
          "duration": 0.09375,
          "durationTicks": 60,
          "midi": 50,
          "name": "D3",
          "ticks": 180000,
          "time": 422.8268125,
          "velocity": 0.7874015748031497
        },
        {
          "duration": 0.09375,
          "durationTicks": 60,
          "midi": 49,
          "name": "C#3",
          "ticks": 180060,
          "time": 422.9205625,
          "velocity": 0.7874015748031497
        },
        {
          "duration": 0.09375,
          "durationTicks": 60,
          "midi": 50,
          "name": "D3",
          "ticks": 180120,
          "time": 423.0143125,
          "velocity": 0.7874015748031497
        },
        {
          "duration": 0.09375,
          "durationTicks": 60,
          "midi": 49,
          "name": "C#3",
          "ticks": 180180,
          "time": 423.1080625,
          "velocity": 0.7874015748031497
        },
        {
          "duration": 0.09375,
          "durationTicks": 60,
          "midi": 47,
          "name": "B2",
          "ticks": 180240,
          "time": 423.2018125,
          "velocity": 0.7874015748031497
        },
        {
          "duration": 0.09375,
          "durationTicks": 60,
          "midi": 49,
          "name": "C#3",
          "ticks": 180300,
          "time": 423.2955625,
          "velocity": 0.7874015748031497
        },
        {
          "duration": 0.375,
          "durationTicks": 240,
          "midi": 50,
          "name": "D3",
          "ticks": 180360,
          "time": 423.3893125,
          "velocity": 0.7874015748031497
        },
        {
          "duration": 0.375,
          "durationTicks": 240,
          "midi": 47,
          "name": "B2",
          "ticks": 180600,
          "time": 423.7643125,
          "velocity": 0.7874015748031497
        },
        {
          "duration": 0.375,
          "durationTicks": 240,
          "midi": 43,
          "name": "G2",
          "ticks": 180840,
          "time": 424.1393125,
          "velocity": 0.7874015748031497
        },
        {
          "duration": 0.375,
          "durationTicks": 240,
          "midi": 47,
          "name": "B2",
          "ticks": 181080,
          "time": 424.5143125,
          "velocity": 0.7874015748031497
        },
        {
          "duration": 0.375,
          "durationTicks": 240,
          "midi": 48,
          "name": "C3",
          "ticks": 181320,
          "time": 424.8893125,
          "velocity": 0.7874015748031497
        },
        {
          "duration": 0.375,
          "durationTicks": 240,
          "midi": 52,
          "name": "E3",
          "ticks": 181560,
          "time": 425.2643125,
          "velocity": 0.7874015748031497
        },
        {
          "duration": 0.375,
          "durationTicks": 240,
          "midi": 45,
          "name": "A2",
          "ticks": 181800,
          "time": 425.6393125,
          "velocity": 0.7874015748031497
        },
        {
          "duration": 0.375,
          "durationTicks": 240,
          "midi": 55,
          "name": "G3",
          "ticks": 182040,
          "time": 426.0143125,
          "velocity": 0.7874015748031497
        },
        {
          "duration": 0.0625,
          "durationTicks": 40,
          "midi": 55,
          "name": "G3",
          "ticks": 182280,
          "time": 426.3893125,
          "velocity": 0.7874015748031497
        },
        {
          "duration": 0.0625,
          "durationTicks": 40,
          "midi": 54,
          "name": "F#3",
          "ticks": 182320,
          "time": 426.4518125,
          "velocity": 0.7874015748031497
        },
        {
          "duration": 0.0625,
          "durationTicks": 40,
          "midi": 55,
          "name": "G3",
          "ticks": 182360,
          "time": 426.5143125,
          "velocity": 0.7874015748031497
        },
        {
          "duration": 0.1875,
          "durationTicks": 120,
          "midi": 54,
          "name": "F#3",
          "ticks": 182400,
          "time": 426.5768125,
          "velocity": 0.7874015748031497
        },
        {
          "duration": 0.1875,
          "durationTicks": 120,
          "midi": 52,
          "name": "E3",
          "ticks": 182520,
          "time": 426.7643125,
          "velocity": 0.7874015748031497
        },
        {
          "duration": 0.1875,
          "durationTicks": 120,
          "midi": 54,
          "name": "F#3",
          "ticks": 182640,
          "time": 426.9518125,
          "velocity": 0.7874015748031497
        },
        {
          "duration": 0.1875,
          "durationTicks": 120,
          "midi": 50,
          "name": "D3",
          "ticks": 182760,
          "time": 427.1393125,
          "velocity": 0.7874015748031497
        },
        {
          "duration": 0.1875,
          "durationTicks": 120,
          "midi": 52,
          "name": "E3",
          "ticks": 182880,
          "time": 427.3268125,
          "velocity": 0.7874015748031497
        },
        {
          "duration": 0.1875,
          "durationTicks": 120,
          "midi": 54,
          "name": "F#3",
          "ticks": 183000,
          "time": 427.5143125,
          "velocity": 0.7874015748031497
        },
        {
          "duration": 0.1875,
          "durationTicks": 120,
          "midi": 50,
          "name": "D3",
          "ticks": 183120,
          "time": 427.7018125,
          "velocity": 0.7874015748031497
        },
        {
          "duration": 0.375,
          "durationTicks": 240,
          "midi": 55,
          "name": "G3",
          "ticks": 183240,
          "time": 427.8893125,
          "velocity": 0.7874015748031497
        },
        {
          "duration": 0.375,
          "durationTicks": 240,
          "midi": 57,
          "name": "A3",
          "ticks": 183480,
          "time": 428.2643125,
          "velocity": 0.7874015748031497
        },
        {
          "duration": 0.375,
          "durationTicks": 240,
          "midi": 59,
          "name": "B3",
          "ticks": 183720,
          "time": 428.6393125,
          "velocity": 0.7874015748031497
        },
        {
          "duration": 0.375,
          "durationTicks": 240,
          "midi": 55,
          "name": "G3",
          "ticks": 183960,
          "time": 429.0143125,
          "velocity": 0.7874015748031497
        },
        {
          "duration": 0.75,
          "durationTicks": 480,
          "midi": 48,
          "name": "C3",
          "ticks": 184200,
          "time": 429.3893125,
          "velocity": 0.7874015748031497
        },
        {
          "duration": 0.375,
          "durationTicks": 240,
          "midi": 57,
          "name": "A3",
          "ticks": 184920,
          "time": 430.5143125,
          "velocity": 0.7874015748031497
        },
        {
          "duration": 0.75,
          "durationTicks": 480,
          "midi": 50,
          "name": "D3",
          "ticks": 185160,
          "time": 430.8893125,
          "velocity": 0.7874015748031497
        },
        {
          "duration": 0.375,
          "durationTicks": 240,
          "midi": 50,
          "name": "D3",
          "ticks": 185880,
          "time": 432.0143125,
          "velocity": 0.7874015748031497
        },
        {
          "duration": 0.75,
          "durationTicks": 480,
          "midi": 55,
          "name": "G3",
          "ticks": 186120,
          "time": 432.3893125,
          "velocity": 0.7874015748031497
        },
        {
          "duration": 0.75,
          "durationTicks": 480,
          "midi": 43,
          "name": "G2",
          "ticks": 186600,
          "time": 433.1393125,
          "velocity": 0.7874015748031497
        },
        {
          "duration": 1.875,
          "durationTicks": 360,
          "midi": 55,
          "name": "G3",
          "ticks": 219720,
          "time": 487.0768125,
          "velocity": 0.7874015748031497
        },
        {
          "duration": 0.625,
          "durationTicks": 120,
          "midi": 55,
          "name": "G3",
          "ticks": 220080,
          "time": 488.9518125,
          "velocity": 0.7874015748031497
        },
        {
          "duration": 0.625,
          "durationTicks": 120,
          "midi": 54,
          "name": "F#3",
          "ticks": 220200,
          "time": 489.5768125,
          "velocity": 0.7874015748031497
        },
        {
          "duration": 0.625,
          "durationTicks": 120,
          "midi": 52,
          "name": "E3",
          "ticks": 220320,
          "time": 490.2018125,
          "velocity": 0.7874015748031497
        },
        {
          "duration": 1.875,
          "durationTicks": 360,
          "midi": 54,
          "name": "F#3",
          "ticks": 220440,
          "time": 490.8268125,
          "velocity": 0.7874015748031497
        },
        {
          "duration": 0.625,
          "durationTicks": 120,
          "midi": 59,
          "name": "B3",
          "ticks": 220800,
          "time": 492.7018125,
          "velocity": 0.7874015748031497
        },
        {
          "duration": 0.625,
          "durationTicks": 120,
          "midi": 57,
          "name": "A3",
          "ticks": 220920,
          "time": 493.3268125,
          "velocity": 0.7874015748031497
        },
        {
          "duration": 0.625,
          "durationTicks": 120,
          "midi": 59,
          "name": "B3",
          "ticks": 221040,
          "time": 493.9518125,
          "velocity": 0.7874015748031497
        },
        {
          "duration": 1.875,
          "durationTicks": 360,
          "midi": 52,
          "name": "E3",
          "ticks": 221160,
          "time": 494.5768125,
          "velocity": 0.7874015748031497
        },
        {
          "duration": 0.625,
          "durationTicks": 120,
          "midi": 57,
          "name": "A3",
          "ticks": 221520,
          "time": 496.4518125,
          "velocity": 0.7874015748031497
        },
        {
          "duration": 0.625,
          "durationTicks": 120,
          "midi": 55,
          "name": "G3",
          "ticks": 221640,
          "time": 497.0768125,
          "velocity": 0.7874015748031497
        },
        {
          "duration": 0.625,
          "durationTicks": 120,
          "midi": 57,
          "name": "A3",
          "ticks": 221760,
          "time": 497.7018125,
          "velocity": 0.7874015748031497
        },
        {
          "duration": 1.875,
          "durationTicks": 360,
          "midi": 50,
          "name": "D3",
          "ticks": 221880,
          "time": 498.3268125,
          "velocity": 0.7874015748031497
        },
        {
          "duration": 0.625,
          "durationTicks": 120,
          "midi": 52,
          "name": "E3",
          "ticks": 222240,
          "time": 500.2018125,
          "velocity": 0.7874015748031497
        },
        {
          "duration": 0.625,
          "durationTicks": 120,
          "midi": 50,
          "name": "D3",
          "ticks": 222360,
          "time": 500.8268125,
          "velocity": 0.7874015748031497
        },
        {
          "duration": 0.625,
          "durationTicks": 120,
          "midi": 48,
          "name": "C3",
          "ticks": 222480,
          "time": 501.4518125,
          "velocity": 0.7874015748031497
        },
        {
          "duration": 1.875,
          "durationTicks": 360,
          "midi": 47,
          "name": "B2",
          "ticks": 222600,
          "time": 502.0768125,
          "velocity": 0.7874015748031497
        },
        {
          "duration": 0.625,
          "durationTicks": 120,
          "midi": 43,
          "name": "G2",
          "ticks": 222960,
          "time": 503.9518125,
          "velocity": 0.7874015748031497
        },
        {
          "duration": 0.625,
          "durationTicks": 120,
          "midi": 45,
          "name": "A2",
          "ticks": 223080,
          "time": 504.5768125,
          "velocity": 0.7874015748031497
        },
        {
          "duration": 0.625,
          "durationTicks": 120,
          "midi": 47,
          "name": "B2",
          "ticks": 223200,
          "time": 505.2018125,
          "velocity": 0.7874015748031497
        },
        {
          "duration": 1.875,
          "durationTicks": 360,
          "midi": 48,
          "name": "C3",
          "ticks": 223320,
          "time": 505.8268125,
          "velocity": 0.7874015748031497
        },
        {
          "duration": 0.625,
          "durationTicks": 120,
          "midi": 45,
          "name": "A2",
          "ticks": 223680,
          "time": 507.7018125,
          "velocity": 0.7874015748031497
        },
        {
          "duration": 0.625,
          "durationTicks": 120,
          "midi": 47,
          "name": "B2",
          "ticks": 223800,
          "time": 508.3268125,
          "velocity": 0.7874015748031497
        },
        {
          "duration": 0.625,
          "durationTicks": 120,
          "midi": 48,
          "name": "C3",
          "ticks": 223920,
          "time": 508.9518125,
          "velocity": 0.7874015748031497
        },
        {
          "duration": 1.875,
          "durationTicks": 360,
          "midi": 50,
          "name": "D3",
          "ticks": 224040,
          "time": 509.5768125,
          "velocity": 0.7874015748031497
        },
        {
          "duration": 0.6249999999999432,
          "durationTicks": 120,
          "midi": 50,
          "name": "D3",
          "ticks": 224400,
          "time": 511.4518125,
          "velocity": 0.7874015748031497
        },
        {
          "duration": 0.625,
          "durationTicks": 120,
          "midi": 48,
          "name": "C3",
          "ticks": 224520,
          "time": 512.0768125,
          "velocity": 0.7874015748031497
        },
        {
          "duration": 0.625,
          "durationTicks": 120,
          "midi": 50,
          "name": "D3",
          "ticks": 224640,
          "time": 512.7018125,
          "velocity": 0.7874015748031497
        },
        {
          "duration": 1.875,
          "durationTicks": 360,
          "midi": 43,
          "name": "G2",
          "ticks": 224760,
          "time": 513.3268125,
          "velocity": 0.7874015748031497
        },
        {
          "duration": 0.625,
          "durationTicks": 120,
          "midi": 43,
          "name": "G2",
          "ticks": 225120,
          "time": 515.2018125,
          "velocity": 0.7874015748031497
        },
        {
          "duration": 0.625,
          "durationTicks": 120,
          "midi": 47,
          "name": "B2",
          "ticks": 225240,
          "time": 515.8268125,
          "velocity": 0.7874015748031497
        },
        {
          "duration": 0.625,
          "durationTicks": 120,
          "midi": 50,
          "name": "D3",
          "ticks": 225360,
          "time": 516.4518125,
          "velocity": 0.7874015748031497
        },
        {
          "duration": 1.875,
          "durationTicks": 360,
          "midi": 55,
          "name": "G3",
          "ticks": 225480,
          "time": 517.0768125,
          "velocity": 0.7874015748031497
        },
        {
          "duration": 0.625,
          "durationTicks": 120,
          "midi": 55,
          "name": "G3",
          "ticks": 225840,
          "time": 518.9518125,
          "velocity": 0.7874015748031497
        },
        {
          "duration": 0.625,
          "durationTicks": 120,
          "midi": 54,
          "name": "F#3",
          "ticks": 225960,
          "time": 519.5768125,
          "velocity": 0.7874015748031497
        },
        {
          "duration": 0.625,
          "durationTicks": 120,
          "midi": 52,
          "name": "E3",
          "ticks": 226080,
          "time": 520.2018125,
          "velocity": 0.7874015748031497
        },
        {
          "duration": 1.875,
          "durationTicks": 360,
          "midi": 54,
          "name": "F#3",
          "ticks": 226200,
          "time": 520.8268125,
          "velocity": 0.7874015748031497
        },
        {
          "duration": 0.625,
          "durationTicks": 120,
          "midi": 59,
          "name": "B3",
          "ticks": 226560,
          "time": 522.7018125,
          "velocity": 0.7874015748031497
        },
        {
          "duration": 0.625,
          "durationTicks": 120,
          "midi": 57,
          "name": "A3",
          "ticks": 226680,
          "time": 523.3268125,
          "velocity": 0.7874015748031497
        },
        {
          "duration": 0.625,
          "durationTicks": 120,
          "midi": 59,
          "name": "B3",
          "ticks": 226800,
          "time": 523.9518125,
          "velocity": 0.7874015748031497
        },
        {
          "duration": 1.875,
          "durationTicks": 360,
          "midi": 52,
          "name": "E3",
          "ticks": 226920,
          "time": 524.5768125,
          "velocity": 0.7874015748031497
        },
        {
          "duration": 0.625,
          "durationTicks": 120,
          "midi": 54,
          "name": "F#3",
          "ticks": 227280,
          "time": 526.4518125,
          "velocity": 0.7874015748031497
        },
        {
          "duration": 0.625,
          "durationTicks": 120,
          "midi": 52,
          "name": "E3",
          "ticks": 227400,
          "time": 527.0768125,
          "velocity": 0.7874015748031497
        },
        {
          "duration": 0.625,
          "durationTicks": 120,
          "midi": 50,
          "name": "D3",
          "ticks": 227520,
          "time": 527.7018125,
          "velocity": 0.7874015748031497
        },
        {
          "duration": 1.875,
          "durationTicks": 360,
          "midi": 49,
          "name": "C#3",
          "ticks": 227640,
          "time": 528.3268125,
          "velocity": 0.7874015748031497
        },
        {
          "duration": 0.625,
          "durationTicks": 120,
          "midi": 52,
          "name": "E3",
          "ticks": 228000,
          "time": 530.2018125,
          "velocity": 0.7874015748031497
        },
        {
          "duration": 0.625,
          "durationTicks": 120,
          "midi": 45,
          "name": "A2",
          "ticks": 228120,
          "time": 530.8268125,
          "velocity": 0.7874015748031497
        },
        {
          "duration": 0.625,
          "durationTicks": 120,
          "midi": 43,
          "name": "G2",
          "ticks": 228240,
          "time": 531.4518125,
          "velocity": 0.7874015748031497
        },
        {
          "duration": 0.625,
          "durationTicks": 120,
          "midi": 42,
          "name": "F#2",
          "ticks": 228360,
          "time": 532.0768125,
          "velocity": 0.7874015748031497
        },
        {
          "duration": 0.46875,
          "durationTicks": 90,
          "midi": 54,
          "name": "F#3",
          "ticks": 228480,
          "time": 532.7018125,
          "velocity": 0.7874015748031497
        },
        {
          "duration": 0.15625,
          "durationTicks": 30,
          "midi": 52,
          "name": "E3",
          "ticks": 228570,
          "time": 533.1705625,
          "velocity": 0.7874015748031497
        },
        {
          "duration": 0.625,
          "durationTicks": 120,
          "midi": 54,
          "name": "F#3",
          "ticks": 228600,
          "time": 533.3268125,
          "velocity": 0.7874015748031497
        },
        {
          "duration": 0.625,
          "durationTicks": 120,
          "midi": 57,
          "name": "A3",
          "ticks": 228720,
          "time": 533.9518125,
          "velocity": 0.7874015748031497
        },
        {
          "duration": 0.625,
          "durationTicks": 120,
          "midi": 50,
          "name": "D3",
          "ticks": 228840,
          "time": 534.5768125,
          "velocity": 0.7874015748031497
        },
        {
          "duration": 0.625,
          "durationTicks": 120,
          "midi": 54,
          "name": "F#3",
          "ticks": 228960,
          "time": 535.2018125,
          "velocity": 0.7874015748031497
        },
        {
          "duration": 0.625,
          "durationTicks": 120,
          "midi": 43,
          "name": "G2",
          "ticks": 229080,
          "time": 535.8268125,
          "velocity": 0.7874015748031497
        },
        {
          "duration": 0.46875,
          "durationTicks": 90,
          "midi": 55,
          "name": "G3",
          "ticks": 229200,
          "time": 536.4518125,
          "velocity": 0.7874015748031497
        },
        {
          "duration": 0.15625,
          "durationTicks": 30,
          "midi": 54,
          "name": "F#3",
          "ticks": 229290,
          "time": 536.9205625,
          "velocity": 0.7874015748031497
        },
        {
          "duration": 0.625,
          "durationTicks": 120,
          "midi": 55,
          "name": "G3",
          "ticks": 229320,
          "time": 537.0768125,
          "velocity": 0.7874015748031497
        },
        {
          "duration": 0.625,
          "durationTicks": 120,
          "midi": 59,
          "name": "B3",
          "ticks": 229440,
          "time": 537.7018125,
          "velocity": 0.7874015748031497
        },
        {
          "duration": 0.625,
          "durationTicks": 120,
          "midi": 52,
          "name": "E3",
          "ticks": 229560,
          "time": 538.3268125,
          "velocity": 0.7874015748031497
        },
        {
          "duration": 0.625,
          "durationTicks": 120,
          "midi": 55,
          "name": "G3",
          "ticks": 229680,
          "time": 538.9518125,
          "velocity": 0.7874015748031497
        },
        {
          "duration": 0.625,
          "durationTicks": 120,
          "midi": 45,
          "name": "A2",
          "ticks": 229800,
          "time": 539.5768125,
          "velocity": 0.7874015748031497
        },
        {
          "duration": 0.46875,
          "durationTicks": 90,
          "midi": 57,
          "name": "A3",
          "ticks": 229920,
          "time": 540.2018125,
          "velocity": 0.7874015748031497
        },
        {
          "duration": 0.15625,
          "durationTicks": 30,
          "midi": 55,
          "name": "G3",
          "ticks": 230010,
          "time": 540.6705625,
          "velocity": 0.7874015748031497
        },
        {
          "duration": 1.875,
          "durationTicks": 360,
          "midi": 57,
          "name": "A3",
          "ticks": 230040,
          "time": 540.8268125,
          "velocity": 0.7874015748031497
        },
        {
          "duration": 0.625,
          "durationTicks": 120,
          "midi": 57,
          "name": "A3",
          "ticks": 230400,
          "time": 542.7018125,
          "velocity": 0.7874015748031497
        },
        {
          "duration": 1.875,
          "durationTicks": 360,
          "midi": 50,
          "name": "D3",
          "ticks": 230520,
          "time": 543.3268125,
          "velocity": 0.7874015748031497
        },
        {
          "duration": 0.625,
          "durationTicks": 120,
          "midi": 61,
          "name": "C#4",
          "ticks": 230880,
          "time": 545.2018125,
          "velocity": 0.7874015748031497
        },
        {
          "duration": 1.25,
          "durationTicks": 240,
          "midi": 62,
          "name": "D4",
          "ticks": 231000,
          "time": 545.8268125,
          "velocity": 0.7874015748031497
        },
        {
          "duration": 1.875,
          "durationTicks": 360,
          "midi": 62,
          "name": "D4",
          "ticks": 231240,
          "time": 547.0768125,
          "velocity": 0.7874015748031497
        },
        {
          "duration": 0.3125,
          "durationTicks": 60,
          "midi": 60,
          "name": "C4",
          "ticks": 231600,
          "time": 548.9518125,
          "velocity": 0.7874015748031497
        },
        {
          "duration": 0.3125,
          "durationTicks": 60,
          "midi": 59,
          "name": "B3",
          "ticks": 231660,
          "time": 549.2643125,
          "velocity": 0.7874015748031497
        },
        {
          "duration": 0.625,
          "durationTicks": 120,
          "midi": 60,
          "name": "C4",
          "ticks": 231720,
          "time": 549.5768125,
          "velocity": 0.7874015748031497
        },
        {
          "duration": 0.625,
          "durationTicks": 120,
          "midi": 57,
          "name": "A3",
          "ticks": 231840,
          "time": 550.2018125,
          "velocity": 0.7874015748031497
        },
        {
          "duration": 1.875,
          "durationTicks": 360,
          "midi": 59,
          "name": "B3",
          "ticks": 231960,
          "time": 550.8268125,
          "velocity": 0.7874015748031497
        },
        {
          "duration": 0.625,
          "durationTicks": 120,
          "midi": 62,
          "name": "D4",
          "ticks": 232320,
          "time": 552.7018125,
          "velocity": 0.7874015748031497
        },
        {
          "duration": 0.625,
          "durationTicks": 120,
          "midi": 55,
          "name": "G3",
          "ticks": 232440,
          "time": 553.3268125,
          "velocity": 0.7874015748031497
        },
        {
          "duration": 0.625,
          "durationTicks": 120,
          "midi": 59,
          "name": "B3",
          "ticks": 232560,
          "time": 553.9518125,
          "velocity": 0.7874015748031497
        },
        {
          "duration": 1.875,
          "durationTicks": 360,
          "midi": 60,
          "name": "C4",
          "ticks": 232680,
          "time": 554.5768125,
          "velocity": 0.7874015748031497
        },
        {
          "duration": 0.625,
          "durationTicks": 120,
          "midi": 59,
          "name": "B3",
          "ticks": 233040,
          "time": 556.4518125,
          "velocity": 0.7874015748031497
        },
        {
          "duration": 0.625,
          "durationTicks": 120,
          "midi": 60,
          "name": "C4",
          "ticks": 233160,
          "time": 557.0768125,
          "velocity": 0.7874015748031497
        },
        {
          "duration": 0.625,
          "durationTicks": 120,
          "midi": 57,
          "name": "A3",
          "ticks": 233280,
          "time": 557.7018125,
          "velocity": 0.7874015748031497
        },
        {
          "duration": 1.875,
          "durationTicks": 360,
          "midi": 59,
          "name": "B3",
          "ticks": 233400,
          "time": 558.3268125,
          "velocity": 0.7874015748031497
        },
        {
          "duration": 0.625,
          "durationTicks": 120,
          "midi": 47,
          "name": "B2",
          "ticks": 233760,
          "time": 560.2018125,
          "velocity": 0.7874015748031497
        },
        {
          "duration": 0.625,
          "durationTicks": 120,
          "midi": 49,
          "name": "C#3",
          "ticks": 233880,
          "time": 560.8268125,
          "velocity": 0.7874015748031497
        },
        {
          "duration": 0.625,
          "durationTicks": 120,
          "midi": 51,
          "name": "D#3",
          "ticks": 234000,
          "time": 561.4518125,
          "velocity": 0.7874015748031497
        },
        {
          "duration": 0.625,
          "durationTicks": 120,
          "midi": 40,
          "name": "E2",
          "ticks": 234120,
          "time": 562.0768125,
          "velocity": 0.7874015748031497
        },
        {
          "duration": 0.3125,
          "durationTicks": 60,
          "midi": 55,
          "name": "G3",
          "ticks": 234240,
          "time": 562.7018125,
          "velocity": 0.7874015748031497
        },
        {
          "duration": 0.3125,
          "durationTicks": 60,
          "midi": 57,
          "name": "A3",
          "ticks": 234300,
          "time": 563.0143125,
          "velocity": 0.7874015748031497
        },
        {
          "duration": 0.625,
          "durationTicks": 120,
          "midi": 55,
          "name": "G3",
          "ticks": 234360,
          "time": 563.3268125,
          "velocity": 0.7874015748031497
        },
        {
          "duration": 0.625,
          "durationTicks": 120,
          "midi": 54,
          "name": "F#3",
          "ticks": 234480,
          "time": 563.9518125,
          "velocity": 0.7874015748031497
        },
        {
          "duration": 1.25,
          "durationTicks": 240,
          "midi": 52,
          "name": "E3",
          "ticks": 234600,
          "time": 564.5768125,
          "velocity": 0.7874015748031497
        },
        {
          "duration": 0.625,
          "durationTicks": 120,
          "midi": 45,
          "name": "A2",
          "ticks": 234840,
          "time": 565.8268125,
          "velocity": 0.7874015748031497
        },
        {
          "duration": 0.3125,
          "durationTicks": 60,
          "midi": 57,
          "name": "A3",
          "ticks": 234960,
          "time": 566.4518125,
          "velocity": 0.7874015748031497
        },
        {
          "duration": 0.3125,
          "durationTicks": 60,
          "midi": 55,
          "name": "G3",
          "ticks": 235020,
          "time": 566.7643125,
          "velocity": 0.7874015748031497
        },
        {
          "duration": 0.625,
          "durationTicks": 120,
          "midi": 57,
          "name": "A3",
          "ticks": 235080,
          "time": 567.0768125,
          "velocity": 0.7874015748031497
        },
        {
          "duration": 0.625,
          "durationTicks": 120,
          "midi": 60,
          "name": "C4",
          "ticks": 235200,
          "time": 567.7018125,
          "velocity": 0.7874015748031497
        },
        {
          "duration": 0.625,
          "durationTicks": 120,
          "midi": 57,
          "name": "A3",
          "ticks": 235320,
          "time": 568.3268125,
          "velocity": 0.7874015748031497
        },
        {
          "duration": 0.625,
          "durationTicks": 120,
          "midi": 54,
          "name": "F#3",
          "ticks": 235440,
          "time": 568.9518125,
          "velocity": 0.7874015748031497
        },
        {
          "duration": 0.625,
          "durationTicks": 120,
          "midi": 47,
          "name": "B2",
          "ticks": 235560,
          "time": 569.5768125,
          "velocity": 0.7874015748031497
        },
        {
          "duration": 0.625,
          "durationTicks": 120,
          "midi": 51,
          "name": "D#3",
          "ticks": 235680,
          "time": 570.2018125,
          "velocity": 0.7874015748031497
        },
        {
          "duration": 0.625,
          "durationTicks": 120,
          "midi": 52,
          "name": "E3",
          "ticks": 235800,
          "time": 570.8268125,
          "velocity": 0.7874015748031497
        },
        {
          "duration": 0.625,
          "durationTicks": 120,
          "midi": 55,
          "name": "G3",
          "ticks": 235920,
          "time": 571.4518125,
          "velocity": 0.7874015748031497
        },
        {
          "duration": 1.25,
          "durationTicks": 240,
          "midi": 59,
          "name": "B3",
          "ticks": 236040,
          "time": 572.0768125,
          "velocity": 0.7874015748031497
        },
        {
          "duration": 3.125,
          "durationTicks": 600,
          "midi": 52,
          "name": "E3",
          "ticks": 236280,
          "time": 573.3268125,
          "velocity": 0.7874015748031497
        },
        {
          "duration": 0.625,
          "durationTicks": 120,
          "midi": 50,
          "name": "D3",
          "ticks": 236880,
          "time": 576.4518125,
          "velocity": 0.7874015748031497
        },
        {
          "duration": 1.25,
          "durationTicks": 240,
          "midi": 48,
          "name": "C3",
          "ticks": 237000,
          "time": 577.0768125,
          "velocity": 0.7874015748031497
        },
        {
          "duration": 0.625,
          "durationTicks": 120,
          "midi": 60,
          "name": "C4",
          "ticks": 237360,
          "time": 578.9518125,
          "velocity": 0.7874015748031497
        },
        {
          "duration": 0.625,
          "durationTicks": 120,
          "midi": 59,
          "name": "B3",
          "ticks": 237480,
          "time": 579.5768125,
          "velocity": 0.7874015748031497
        },
        {
          "duration": 0.625,
          "durationTicks": 120,
          "midi": 58,
          "name": "A#3",
          "ticks": 237600,
          "time": 580.2018125,
          "velocity": 0.7874015748031497
        },
        {
          "duration": 0.625,
          "durationTicks": 120,
          "midi": 59,
          "name": "B3",
          "ticks": 237720,
          "time": 580.8268125,
          "velocity": 0.7874015748031497
        },
        {
          "duration": 0.625,
          "durationTicks": 120,
          "midi": 47,
          "name": "B2",
          "ticks": 237840,
          "time": 581.4518125,
          "velocity": 0.7874015748031497
        },
        {
          "duration": 0.625,
          "durationTicks": 120,
          "midi": 59,
          "name": "B3",
          "ticks": 238080,
          "time": 582.7018125,
          "velocity": 0.7874015748031497
        },
        {
          "duration": 0.625,
          "durationTicks": 120,
          "midi": 57,
          "name": "A3",
          "ticks": 238200,
          "time": 583.3268125,
          "velocity": 0.7874015748031497
        },
        {
          "duration": 0.625,
          "durationTicks": 120,
          "midi": 56,
          "name": "G#3",
          "ticks": 238320,
          "time": 583.9518125,
          "velocity": 0.7874015748031497
        },
        {
          "duration": 0.625,
          "durationTicks": 120,
          "midi": 57,
          "name": "A3",
          "ticks": 238440,
          "time": 584.5768125,
          "velocity": 0.7874015748031497
        },
        {
          "duration": 0.625,
          "durationTicks": 120,
          "midi": 45,
          "name": "A2",
          "ticks": 238560,
          "time": 585.2018125,
          "velocity": 0.7874015748031497
        },
        {
          "duration": 0.625,
          "durationTicks": 120,
          "midi": 45,
          "name": "A2",
          "ticks": 239280,
          "time": 588.9518125,
          "velocity": 0.7874015748031497
        },
        {
          "duration": 0.625,
          "durationTicks": 120,
          "midi": 38,
          "name": "D2",
          "ticks": 239400,
          "time": 589.5768125,
          "velocity": 0.7874015748031497
        },
        {
          "duration": 0.625,
          "durationTicks": 120,
          "midi": 42,
          "name": "F#2",
          "ticks": 239520,
          "time": 590.2018125,
          "velocity": 0.7874015748031497
        },
        {
          "duration": 0.625,
          "durationTicks": 120,
          "midi": 50,
          "name": "D3",
          "ticks": 239520,
          "time": 590.2018125,
          "velocity": 0.7874015748031497
        },
        {
          "duration": 0.625,
          "durationTicks": 120,
          "midi": 45,
          "name": "A2",
          "ticks": 239640,
          "time": 590.8268125,
          "velocity": 0.7874015748031497
        },
        {
          "duration": 0.625,
          "durationTicks": 120,
          "midi": 54,
          "name": "F#3",
          "ticks": 239640,
          "time": 590.8268125,
          "velocity": 0.7874015748031497
        },
        {
          "duration": 0.625,
          "durationTicks": 120,
          "midi": 50,
          "name": "D3",
          "ticks": 239760,
          "time": 591.4518125,
          "velocity": 0.7874015748031497
        },
        {
          "duration": 0.625,
          "durationTicks": 120,
          "midi": 57,
          "name": "A3",
          "ticks": 239760,
          "time": 591.4518125,
          "velocity": 0.7874015748031497
        },
        {
          "duration": 0.625,
          "durationTicks": 120,
          "midi": 43,
          "name": "G2",
          "ticks": 239880,
          "time": 592.0768125,
          "velocity": 0.7874015748031497
        },
        {
          "duration": 0.625,
          "durationTicks": 120,
          "midi": 55,
          "name": "G3",
          "ticks": 240000,
          "time": 592.7018125,
          "velocity": 0.7874015748031497
        },
        {
          "duration": 0.625,
          "durationTicks": 120,
          "midi": 57,
          "name": "A3",
          "ticks": 240120,
          "time": 593.3268125,
          "velocity": 0.7874015748031497
        },
        {
          "duration": 0.625,
          "durationTicks": 120,
          "midi": 59,
          "name": "B3",
          "ticks": 240240,
          "time": 593.9518125,
          "velocity": 0.7874015748031497
        },
        {
          "duration": 0.625,
          "durationTicks": 120,
          "midi": 55,
          "name": "G3",
          "ticks": 240480,
          "time": 595.2018125,
          "velocity": 0.7874015748031497
        },
        {
          "duration": 0.625,
          "durationTicks": 120,
          "midi": 48,
          "name": "C3",
          "ticks": 240600,
          "time": 595.8268125,
          "velocity": 0.7874015748031497
        },
        {
          "duration": 0.625,
          "durationTicks": 120,
          "midi": 40,
          "name": "E2",
          "ticks": 240720,
          "time": 596.4518125,
          "velocity": 0.7874015748031497
        },
        {
          "duration": 0.625,
          "durationTicks": 120,
          "midi": 52,
          "name": "E3",
          "ticks": 240720,
          "time": 596.4518125,
          "velocity": 0.7874015748031497
        },
        {
          "duration": 0.625,
          "durationTicks": 120,
          "midi": 41,
          "name": "F2",
          "ticks": 240840,
          "time": 597.0768125,
          "velocity": 0.7874015748031497
        },
        {
          "duration": 0.625,
          "durationTicks": 120,
          "midi": 53,
          "name": "F3",
          "ticks": 240840,
          "time": 597.0768125,
          "velocity": 0.7874015748031497
        },
        {
          "duration": 0.625,
          "durationTicks": 120,
          "midi": 42,
          "name": "F#2",
          "ticks": 240960,
          "time": 597.7018125,
          "velocity": 0.7874015748031497
        },
        {
          "duration": 0.625,
          "durationTicks": 120,
          "midi": 54,
          "name": "F#3",
          "ticks": 240960,
          "time": 597.7018125,
          "velocity": 0.7874015748031497
        },
        {
          "duration": 0.625,
          "durationTicks": 120,
          "midi": 43,
          "name": "G2",
          "ticks": 241080,
          "time": 598.3268125,
          "velocity": 0.7874015748031497
        },
        {
          "duration": 0.625,
          "durationTicks": 120,
          "midi": 55,
          "name": "G3",
          "ticks": 241080,
          "time": 598.3268125,
          "velocity": 0.7874015748031497
        },
        {
          "duration": 0.3125,
          "durationTicks": 60,
          "midi": 42,
          "name": "F#2",
          "ticks": 241200,
          "time": 598.9518125,
          "velocity": 0.7874015748031497
        },
        {
          "duration": 0.3125,
          "durationTicks": 60,
          "midi": 54,
          "name": "F#3",
          "ticks": 241200,
          "time": 598.9518125,
          "velocity": 0.7874015748031497
        },
        {
          "duration": 0.3125,
          "durationTicks": 60,
          "midi": 40,
          "name": "E2",
          "ticks": 241260,
          "time": 599.2643125,
          "velocity": 0.7874015748031497
        },
        {
          "duration": 0.3125,
          "durationTicks": 60,
          "midi": 52,
          "name": "E3",
          "ticks": 241260,
          "time": 599.2643125,
          "velocity": 0.7874015748031497
        },
        {
          "duration": 1.875,
          "durationTicks": 360,
          "midi": 38,
          "name": "D2",
          "ticks": 241320,
          "time": 599.5768125,
          "velocity": 0.7874015748031497
        },
        {
          "duration": 1.875,
          "durationTicks": 360,
          "midi": 50,
          "name": "D3",
          "ticks": 241320,
          "time": 599.5768125,
          "velocity": 0.7874015748031497
        },
        {
          "duration": 0.625,
          "durationTicks": 120,
          "midi": 54,
          "name": "F#3",
          "ticks": 241680,
          "time": 601.4518125,
          "velocity": 0.7874015748031497
        },
        {
          "duration": 0.625,
          "durationTicks": 120,
          "midi": 52,
          "name": "E3",
          "ticks": 241800,
          "time": 602.0768125,
          "velocity": 0.7874015748031497
        },
        {
          "duration": 0.625,
          "durationTicks": 120,
          "midi": 50,
          "name": "D3",
          "ticks": 241920,
          "time": 602.7018125,
          "velocity": 0.7874015748031497
        },
        {
          "duration": 1.25,
          "durationTicks": 240,
          "midi": 43,
          "name": "G2",
          "ticks": 242040,
          "time": 603.3268125,
          "velocity": 0.7874015748031497
        },
        {
          "duration": 0.625,
          "durationTicks": 120,
          "midi": 51,
          "name": "D#3",
          "ticks": 242400,
          "time": 605.2018125,
          "velocity": 0.7874015748031497
        },
        {
          "duration": 1.25,
          "durationTicks": 240,
          "midi": 43,
          "name": "G2",
          "ticks": 242520,
          "time": 605.8268125,
          "velocity": 0.7874015748031497
        },
        {
          "duration": 1.25,
          "durationTicks": 240,
          "midi": 50,
          "name": "D3",
          "ticks": 242520,
          "time": 605.8268125,
          "velocity": 0.7874015748031497
        },
        {
          "duration": 1.3636360000000423,
          "durationTicks": 960,
          "midi": 43,
          "name": "G2",
          "ticks": 318960,
          "time": 885.5334903333332,
          "velocity": 0.7874015748031497
        },
        {
          "duration": 1.3636360000000423,
          "durationTicks": 960,
          "midi": 55,
          "name": "G3",
          "ticks": 318960,
          "time": 885.5334903333332,
          "velocity": 0.7874015748031497
        },
        {
          "duration": 1.3636359999999286,
          "durationTicks": 960,
          "midi": 42,
          "name": "F#2",
          "ticks": 319920,
          "time": 886.8971263333333,
          "velocity": 0.7874015748031497
        },
        {
          "duration": 1.3636359999999286,
          "durationTicks": 960,
          "midi": 54,
          "name": "F#3",
          "ticks": 319920,
          "time": 886.8971263333333,
          "velocity": 0.7874015748031497
        },
        {
          "duration": 1.3636360000000423,
          "durationTicks": 960,
          "midi": 40,
          "name": "E2",
          "ticks": 320880,
          "time": 888.2607623333332,
          "velocity": 0.7874015748031497
        },
        {
          "duration": 1.3636360000000423,
          "durationTicks": 960,
          "midi": 52,
          "name": "E3",
          "ticks": 320880,
          "time": 888.2607623333332,
          "velocity": 0.7874015748031497
        },
        {
          "duration": 1.0227270000000317,
          "durationTicks": 720,
          "midi": 38,
          "name": "D2",
          "ticks": 321840,
          "time": 889.6243983333333,
          "velocity": 0.7874015748031497
        },
        {
          "duration": 1.0227270000000317,
          "durationTicks": 720,
          "midi": 50,
          "name": "D3",
          "ticks": 321840,
          "time": 889.6243983333333,
          "velocity": 0.7874015748031497
        },
        {
          "duration": 0.34090900000001056,
          "durationTicks": 240,
          "midi": 36,
          "name": "C2",
          "ticks": 322560,
          "time": 890.6471253333333,
          "velocity": 0.7874015748031497
        },
        {
          "duration": 0.34090900000001056,
          "durationTicks": 240,
          "midi": 48,
          "name": "C3",
          "ticks": 322560,
          "time": 890.6471253333333,
          "velocity": 0.7874015748031497
        },
        {
          "duration": 1.3636359999999286,
          "durationTicks": 960,
          "midi": 35,
          "name": "B1",
          "ticks": 322800,
          "time": 890.9880343333333,
          "velocity": 0.7874015748031497
        },
        {
          "duration": 1.3636359999999286,
          "durationTicks": 960,
          "midi": 47,
          "name": "B2",
          "ticks": 322800,
          "time": 890.9880343333333,
          "velocity": 0.7874015748031497
        },
        {
          "duration": 1.3636360000000423,
          "durationTicks": 960,
          "midi": 36,
          "name": "C2",
          "ticks": 323760,
          "time": 892.3516703333332,
          "velocity": 0.7874015748031497
        },
        {
          "duration": 1.3636360000000423,
          "durationTicks": 960,
          "midi": 48,
          "name": "C3",
          "ticks": 323760,
          "time": 892.3516703333332,
          "velocity": 0.7874015748031497
        },
        {
          "duration": 1.3636359999999286,
          "durationTicks": 960,
          "midi": 38,
          "name": "D2",
          "ticks": 324720,
          "time": 893.7153063333333,
          "velocity": 0.7874015748031497
        },
        {
          "duration": 1.3636359999999286,
          "durationTicks": 960,
          "midi": 50,
          "name": "D3",
          "ticks": 324720,
          "time": 893.7153063333333,
          "velocity": 0.7874015748031497
        },
        {
          "duration": 1.7045450000000528,
          "durationTicks": 1200,
          "midi": 31,
          "name": "G1",
          "ticks": 325680,
          "time": 895.0789423333332,
          "velocity": 0.7874015748031497
        },
        {
          "duration": 1.7045450000000528,
          "durationTicks": 1200,
          "midi": 43,
          "name": "G2",
          "ticks": 325680,
          "time": 895.0789423333332,
          "velocity": 0.7874015748031497
        },
        {
          "duration": 0.17045450000000528,
          "durationTicks": 120,
          "midi": 55,
          "name": "G3",
          "ticks": 326880,
          "time": 896.7834873333333,
          "velocity": 0.7874015748031497
        },
        {
          "duration": 0.17045450000000528,
          "durationTicks": 120,
          "midi": 54,
          "name": "F#3",
          "ticks": 327000,
          "time": 896.9539418333333,
          "velocity": 0.7874015748031497
        },
        {
          "duration": 1.0227270000000317,
          "durationTicks": 720,
          "midi": 43,
          "name": "G2",
          "ticks": 327120,
          "time": 897.1243963333333,
          "velocity": 0.7874015748031497
        },
        {
          "duration": 1.0227270000000317,
          "durationTicks": 720,
          "midi": 55,
          "name": "G3",
          "ticks": 327120,
          "time": 897.1243963333333,
          "velocity": 0.7874015748031497
        },
        {
          "duration": 0.1704544999998916,
          "durationTicks": 120,
          "midi": 42,
          "name": "F#2",
          "ticks": 327840,
          "time": 898.1471233333333,
          "velocity": 0.7874015748031497
        },
        {
          "duration": 0.1704544999998916,
          "durationTicks": 120,
          "midi": 54,
          "name": "F#3",
          "ticks": 327840,
          "time": 898.1471233333333,
          "velocity": 0.7874015748031497
        },
        {
          "duration": 0.17045450000000528,
          "durationTicks": 120,
          "midi": 40,
          "name": "E2",
          "ticks": 327960,
          "time": 898.3175778333332,
          "velocity": 0.7874015748031497
        },
        {
          "duration": 0.17045450000000528,
          "durationTicks": 120,
          "midi": 52,
          "name": "E3",
          "ticks": 327960,
          "time": 898.3175778333332,
          "velocity": 0.7874015748031497
        },
        {
          "duration": 0.34090900000001056,
          "durationTicks": 240,
          "midi": 42,
          "name": "F#2",
          "ticks": 328080,
          "time": 898.4880323333332,
          "velocity": 0.7874015748031497
        },
        {
          "duration": 0.34090900000001056,
          "durationTicks": 240,
          "midi": 54,
          "name": "F#3",
          "ticks": 328080,
          "time": 898.4880323333332,
          "velocity": 0.7874015748031497
        },
        {
          "duration": 0.34090900000001056,
          "durationTicks": 240,
          "midi": 47,
          "name": "B2",
          "ticks": 328320,
          "time": 898.8289413333332,
          "velocity": 0.7874015748031497
        },
        {
          "duration": 0.34090900000001056,
          "durationTicks": 240,
          "midi": 59,
          "name": "B3",
          "ticks": 328320,
          "time": 898.8289413333332,
          "velocity": 0.7874015748031497
        },
        {
          "duration": 1.0227270000000317,
          "durationTicks": 720,
          "midi": 52,
          "name": "E3",
          "ticks": 328560,
          "time": 899.1698503333332,
          "velocity": 0.7874015748031497
        },
        {
          "duration": 0.6818180000000211,
          "durationTicks": 480,
          "midi": 50,
          "name": "D3",
          "ticks": 329280,
          "time": 900.1925773333332,
          "velocity": 0.7874015748031497
        },
        {
          "duration": 0.17045450000000528,
          "durationTicks": 120,
          "midi": 49,
          "name": "C#3",
          "ticks": 329760,
          "time": 900.8743953333333,
          "velocity": 0.7874015748031497
        },
        {
          "duration": 0.17045450000000528,
          "durationTicks": 120,
          "midi": 47,
          "name": "B2",
          "ticks": 329880,
          "time": 901.0448498333333,
          "velocity": 0.7874015748031497
        },
        {
          "duration": 0.34090900000001056,
          "durationTicks": 240,
          "midi": 49,
          "name": "C#3",
          "ticks": 330000,
          "time": 901.2153043333333,
          "velocity": 0.7874015748031497
        },
        {
          "duration": 0.34090900000001056,
          "durationTicks": 240,
          "midi": 52,
          "name": "E3",
          "ticks": 330240,
          "time": 901.5562133333333,
          "velocity": 0.7874015748031497
        },
        {
          "duration": 0.6818179999999074,
          "durationTicks": 480,
          "midi": 30,
          "name": "F#1",
          "ticks": 330480,
          "time": 901.8971223333333,
          "velocity": 0.7874015748031497
        },
        {
          "duration": 0.6818179999999074,
          "durationTicks": 480,
          "midi": 42,
          "name": "F#2",
          "ticks": 330480,
          "time": 901.8971223333333,
          "velocity": 0.7874015748031497
        },
        {
          "duration": 0.6818180000000211,
          "durationTicks": 480,
          "midi": 54,
          "name": "F#3",
          "ticks": 330960,
          "time": 902.5789403333332,
          "velocity": 0.7874015748031497
        },
        {
          "duration": 1.3636360000000423,
          "durationTicks": 960,
          "midi": 31,
          "name": "G1",
          "ticks": 331440,
          "time": 903.2607583333332,
          "velocity": 0.7874015748031497
        },
        {
          "duration": 1.3636360000000423,
          "durationTicks": 960,
          "midi": 43,
          "name": "G2",
          "ticks": 331440,
          "time": 903.2607583333332,
          "velocity": 0.7874015748031497
        },
        {
          "duration": 1.3636359999999286,
          "durationTicks": 960,
          "midi": 33,
          "name": "A1",
          "ticks": 332400,
          "time": 904.6243943333333,
          "velocity": 0.7874015748031497
        },
        {
          "duration": 1.3636359999999286,
          "durationTicks": 960,
          "midi": 45,
          "name": "A2",
          "ticks": 332400,
          "time": 904.6243943333333,
          "velocity": 0.7874015748031497
        },
        {
          "duration": 1.3636360000000423,
          "durationTicks": 960,
          "midi": 30,
          "name": "F#1",
          "ticks": 333360,
          "time": 905.9880303333332,
          "velocity": 0.7874015748031497
        },
        {
          "duration": 1.3636360000000423,
          "durationTicks": 960,
          "midi": 42,
          "name": "F#2",
          "ticks": 333360,
          "time": 905.9880303333332,
          "velocity": 0.7874015748031497
        },
        {
          "duration": 1.0227270000000317,
          "durationTicks": 720,
          "midi": 50,
          "name": "D3",
          "ticks": 334320,
          "time": 907.3516663333332,
          "velocity": 0.7874015748031497
        },
        {
          "duration": 1.0227270000000317,
          "durationTicks": 720,
          "midi": 62,
          "name": "D4",
          "ticks": 334320,
          "time": 907.3516663333332,
          "velocity": 0.7874015748031497
        },
        {
          "duration": 0.34090900000001056,
          "durationTicks": 240,
          "midi": 48,
          "name": "C3",
          "ticks": 335040,
          "time": 908.3743933333333,
          "velocity": 0.7874015748031497
        },
        {
          "duration": 0.34090900000001056,
          "durationTicks": 240,
          "midi": 60,
          "name": "C4",
          "ticks": 335040,
          "time": 908.3743933333333,
          "velocity": 0.7874015748031497
        },
        {
          "duration": 1.022726999999918,
          "durationTicks": 720,
          "midi": 47,
          "name": "B2",
          "ticks": 335280,
          "time": 908.7153023333333,
          "velocity": 0.7874015748031497
        },
        {
          "duration": 1.022726999999918,
          "durationTicks": 720,
          "midi": 59,
          "name": "B3",
          "ticks": 335280,
          "time": 908.7153023333333,
          "velocity": 0.7874015748031497
        },
        {
          "duration": 0.34090900000001056,
          "durationTicks": 240,
          "midi": 43,
          "name": "G2",
          "ticks": 336000,
          "time": 909.7380293333332,
          "velocity": 0.7874015748031497
        },
        {
          "duration": 0.34090900000001056,
          "durationTicks": 240,
          "midi": 55,
          "name": "G3",
          "ticks": 336000,
          "time": 909.7380293333332,
          "velocity": 0.7874015748031497
        },
        {
          "duration": 1.0227270000000317,
          "durationTicks": 720,
          "midi": 48,
          "name": "C3",
          "ticks": 336240,
          "time": 910.0789383333332,
          "velocity": 0.7874015748031497
        },
        {
          "duration": 1.0227270000000317,
          "durationTicks": 720,
          "midi": 60,
          "name": "C4",
          "ticks": 336240,
          "time": 910.0789383333332,
          "velocity": 0.7874015748031497
        },
        {
          "duration": 0.34090900000001056,
          "durationTicks": 240,
          "midi": 45,
          "name": "A2",
          "ticks": 336960,
          "time": 911.1016653333332,
          "velocity": 0.7874015748031497
        },
        {
          "duration": 0.34090900000001056,
          "durationTicks": 240,
          "midi": 57,
          "name": "A3",
          "ticks": 336960,
          "time": 911.1016653333332,
          "velocity": 0.7874015748031497
        },
        {
          "duration": 1.0227270000000317,
          "durationTicks": 720,
          "midi": 47,
          "name": "B2",
          "ticks": 337200,
          "time": 911.4425743333333,
          "velocity": 0.7874015748031497
        },
        {
          "duration": 1.0227270000000317,
          "durationTicks": 720,
          "midi": 59,
          "name": "B3",
          "ticks": 337200,
          "time": 911.4425743333333,
          "velocity": 0.7874015748031497
        },
        {
          "duration": 0.34090900000001056,
          "durationTicks": 240,
          "midi": 45,
          "name": "A2",
          "ticks": 337920,
          "time": 912.4653013333333,
          "velocity": 0.7874015748031497
        },
        {
          "duration": 0.34090900000001056,
          "durationTicks": 240,
          "midi": 57,
          "name": "A3",
          "ticks": 337920,
          "time": 912.4653013333333,
          "velocity": 0.7874015748031497
        },
        {
          "duration": 1.3636359999999286,
          "durationTicks": 960,
          "midi": 43,
          "name": "G2",
          "ticks": 338160,
          "time": 912.8062103333333,
          "velocity": 0.7874015748031497
        },
        {
          "duration": 1.3636359999999286,
          "durationTicks": 960,
          "midi": 55,
          "name": "G3",
          "ticks": 338160,
          "time": 912.8062103333333,
          "velocity": 0.7874015748031497
        },
        {
          "duration": 1.3636360000000423,
          "durationTicks": 960,
          "midi": 45,
          "name": "A2",
          "ticks": 339120,
          "time": 914.1698463333332,
          "velocity": 0.7874015748031497
        },
        {
          "duration": 1.3636360000000423,
          "durationTicks": 960,
          "midi": 57,
          "name": "A3",
          "ticks": 339120,
          "time": 914.1698463333332,
          "velocity": 0.7874015748031497
        },
        {
          "duration": 1.3636359999999286,
          "durationTicks": 960,
          "midi": 47,
          "name": "B2",
          "ticks": 340080,
          "time": 915.5334823333333,
          "velocity": 0.7874015748031497
        },
        {
          "duration": 1.3636359999999286,
          "durationTicks": 960,
          "midi": 59,
          "name": "B3",
          "ticks": 340080,
          "time": 915.5334823333333,
          "velocity": 0.7874015748031497
        },
        {
          "duration": 1.0227270000000317,
          "durationTicks": 720,
          "midi": 40,
          "name": "E2",
          "ticks": 341040,
          "time": 916.8971183333332,
          "velocity": 0.7874015748031497
        },
        {
          "duration": 1.0227270000000317,
          "durationTicks": 720,
          "midi": 52,
          "name": "E3",
          "ticks": 341040,
          "time": 916.8971183333332,
          "velocity": 0.7874015748031497
        },
        {
          "duration": 0.34090900000001056,
          "durationTicks": 240,
          "midi": 38,
          "name": "D2",
          "ticks": 341760,
          "time": 917.9198453333332,
          "velocity": 0.7874015748031497
        },
        {
          "duration": 0.34090900000001056,
          "durationTicks": 240,
          "midi": 50,
          "name": "D3",
          "ticks": 341760,
          "time": 917.9198453333332,
          "velocity": 0.7874015748031497
        },
        {
          "duration": 0.6818180000000211,
          "durationTicks": 480,
          "midi": 36,
          "name": "C2",
          "ticks": 342000,
          "time": 918.2607543333332,
          "velocity": 0.7874015748031497
        },
        {
          "duration": 0.6818180000000211,
          "durationTicks": 480,
          "midi": 48,
          "name": "C3",
          "ticks": 342000,
          "time": 918.2607543333332,
          "velocity": 0.7874015748031497
        },
        {
          "duration": 1.0227270000000317,
          "durationTicks": 720,
          "midi": 48,
          "name": "C3",
          "ticks": 342480,
          "time": 918.9425723333333,
          "velocity": 0.7874015748031497
        },
        {
          "duration": 1.0227270000000317,
          "durationTicks": 720,
          "midi": 60,
          "name": "C4",
          "ticks": 342480,
          "time": 918.9425723333333,
          "velocity": 0.7874015748031497
        },
        {
          "duration": 0.17045450000000528,
          "durationTicks": 120,
          "midi": 47,
          "name": "B2",
          "ticks": 343200,
          "time": 919.9652993333333,
          "velocity": 0.7874015748031497
        },
        {
          "duration": 0.17045450000000528,
          "durationTicks": 120,
          "midi": 59,
          "name": "B3",
          "ticks": 343200,
          "time": 919.9652993333333,
          "velocity": 0.7874015748031497
        },
        {
          "duration": 0.1704544999998916,
          "durationTicks": 120,
          "midi": 45,
          "name": "A2",
          "ticks": 343320,
          "time": 920.1357538333333,
          "velocity": 0.7874015748031497
        },
        {
          "duration": 0.1704544999998916,
          "durationTicks": 120,
          "midi": 57,
          "name": "A3",
          "ticks": 343320,
          "time": 920.1357538333333,
          "velocity": 0.7874015748031497
        },
        {
          "duration": 0.34090900000001056,
          "durationTicks": 240,
          "midi": 47,
          "name": "B2",
          "ticks": 343440,
          "time": 920.3062083333332,
          "velocity": 0.7874015748031497
        },
        {
          "duration": 0.34090900000001056,
          "durationTicks": 240,
          "midi": 59,
          "name": "B3",
          "ticks": 343440,
          "time": 920.3062083333332,
          "velocity": 0.7874015748031497
        },
        {
          "duration": 0.34090900000001056,
          "durationTicks": 240,
          "midi": 52,
          "name": "E3",
          "ticks": 343680,
          "time": 920.6471173333332,
          "velocity": 0.7874015748031497
        },
        {
          "duration": 0.34090900000001056,
          "durationTicks": 240,
          "midi": 64,
          "name": "E4",
          "ticks": 343680,
          "time": 920.6471173333332,
          "velocity": 0.7874015748031497
        },
        {
          "duration": 1.0227270000000317,
          "durationTicks": 720,
          "midi": 45,
          "name": "A2",
          "ticks": 343920,
          "time": 920.9880263333332,
          "velocity": 0.7874015748031497
        },
        {
          "duration": 1.0227270000000317,
          "durationTicks": 720,
          "midi": 57,
          "name": "A3",
          "ticks": 343920,
          "time": 920.9880263333332,
          "velocity": 0.7874015748031497
        },
        {
          "duration": 0.34090900000001056,
          "durationTicks": 240,
          "midi": 43,
          "name": "G2",
          "ticks": 344640,
          "time": 922.0107533333332,
          "velocity": 0.7874015748031497
        },
        {
          "duration": 0.34090900000001056,
          "durationTicks": 240,
          "midi": 55,
          "name": "G3",
          "ticks": 344640,
          "time": 922.0107533333332,
          "velocity": 0.7874015748031497
        },
        {
          "duration": 0.6818180000000211,
          "durationTicks": 480,
          "midi": 42,
          "name": "F#2",
          "ticks": 344880,
          "time": 922.3516623333333,
          "velocity": 0.7874015748031497
        },
        {
          "duration": 0.6818180000000211,
          "durationTicks": 480,
          "midi": 54,
          "name": "F#3",
          "ticks": 344880,
          "time": 922.3516623333333,
          "velocity": 0.7874015748031497
        },
        {
          "duration": 0.6818180000000211,
          "durationTicks": 480,
          "midi": 55,
          "name": "G3",
          "ticks": 345360,
          "time": 923.0334803333333,
          "velocity": 0.7874015748031497
        },
        {
          "duration": 1.022726999999918,
          "durationTicks": 720,
          "midi": 40,
          "name": "E2",
          "ticks": 345840,
          "time": 923.7152983333333,
          "velocity": 0.7874015748031497
        },
        {
          "duration": 1.022726999999918,
          "durationTicks": 720,
          "midi": 52,
          "name": "E3",
          "ticks": 345840,
          "time": 923.7152983333333,
          "velocity": 0.7874015748031497
        },
        {
          "duration": 0.34090900000001056,
          "durationTicks": 240,
          "midi": 38,
          "name": "D2",
          "ticks": 346560,
          "time": 924.7380253333332,
          "velocity": 0.7874015748031497
        },
        {
          "duration": 0.34090900000001056,
          "durationTicks": 240,
          "midi": 47,
          "name": "B2",
          "ticks": 346560,
          "time": 924.7380253333332,
          "velocity": 0.7874015748031497
        },
        {
          "duration": 0.34090900000001056,
          "durationTicks": 240,
          "midi": 50,
          "name": "D3",
          "ticks": 346560,
          "time": 924.7380253333332,
          "velocity": 0.7874015748031497
        },
        {
          "duration": 0.6818180000000211,
          "durationTicks": 480,
          "midi": 36,
          "name": "C2",
          "ticks": 346800,
          "time": 925.0789343333332,
          "velocity": 0.7874015748031497
        },
        {
          "duration": 0.6818180000000211,
          "durationTicks": 480,
          "midi": 40,
          "name": "E2",
          "ticks": 346800,
          "time": 925.0789343333332,
          "velocity": 0.7874015748031497
        },
        {
          "duration": 0.6818180000000211,
          "durationTicks": 480,
          "midi": 48,
          "name": "C3",
          "ticks": 346800,
          "time": 925.0789343333332,
          "velocity": 0.7874015748031497
        },
        {
          "duration": 0.6818180000000211,
          "durationTicks": 480,
          "midi": 37,
          "name": "C#2",
          "ticks": 347280,
          "time": 925.7607523333332,
          "velocity": 0.7874015748031497
        },
        {
          "duration": 0.6818180000000211,
          "durationTicks": 480,
          "midi": 45,
          "name": "A2",
          "ticks": 347280,
          "time": 925.7607523333332,
          "velocity": 0.7874015748031497
        },
        {
          "duration": 0.6818180000000211,
          "durationTicks": 480,
          "midi": 49,
          "name": "C#3",
          "ticks": 347280,
          "time": 925.7607523333332,
          "velocity": 0.7874015748031497
        },
        {
          "duration": 1.3636359999999286,
          "durationTicks": 960,
          "midi": 38,
          "name": "D2",
          "ticks": 347760,
          "time": 926.4425703333333,
          "velocity": 0.7874015748031497
        },
        {
          "duration": 1.3636359999999286,
          "durationTicks": 960,
          "midi": 45,
          "name": "A2",
          "ticks": 347760,
          "time": 926.4425703333333,
          "velocity": 0.7874015748031497
        },
        {
          "duration": 1.3636359999999286,
          "durationTicks": 960,
          "midi": 50,
          "name": "D3",
          "ticks": 347760,
          "time": 926.4425703333333,
          "velocity": 0.7874015748031497
        },
        {
          "duration": 1.3636360000000423,
          "durationTicks": 960,
          "midi": 31,
          "name": "G1",
          "ticks": 348720,
          "time": 927.8062063333332,
          "velocity": 0.7874015748031497
        },
        {
          "duration": 1.3636360000000423,
          "durationTicks": 960,
          "midi": 43,
          "name": "G2",
          "ticks": 348720,
          "time": 927.8062063333332,
          "velocity": 0.7874015748031497
        },
        {
          "duration": 0.625,
          "durationTicks": 240,
          "midi": 48,
          "name": "C3",
          "ticks": 367920,
          "time": 976.6698423333332,
          "velocity": 0.7874015748031497
        },
        {
          "duration": 0.15625,
          "durationTicks": 60,
          "midi": 62,
          "name": "D4",
          "ticks": 368220,
          "time": 977.4510923333332,
          "velocity": 0.7874015748031497
        },
        {
          "duration": 0.15625,
          "durationTicks": 60,
          "midi": 59,
          "name": "B3",
          "ticks": 368220,
          "time": 977.4510923333332,
          "velocity": 0.7874015748031497
        },
        {
          "duration": 0.15625,
          "durationTicks": 60,
          "midi": 60,
          "name": "C4",
          "ticks": 368280,
          "time": 977.6073423333332,
          "velocity": 0.7874015748031497
        },
        {
          "duration": 0.15625,
          "durationTicks": 60,
          "midi": 57,
          "name": "A3",
          "ticks": 368280,
          "time": 977.6073423333332,
          "velocity": 0.7874015748031497
        },
        {
          "duration": 0.15625,
          "durationTicks": 60,
          "midi": 59,
          "name": "B3",
          "ticks": 368340,
          "time": 977.7635923333332,
          "velocity": 0.7874015748031497
        },
        {
          "duration": 0.15625,
          "durationTicks": 60,
          "midi": 55,
          "name": "G3",
          "ticks": 368340,
          "time": 977.7635923333332,
          "velocity": 0.7874015748031497
        },
        {
          "duration": 0.15625,
          "durationTicks": 60,
          "midi": 57,
          "name": "A3",
          "ticks": 368400,
          "time": 977.9198423333332,
          "velocity": 0.7874015748031497
        },
        {
          "duration": 0.15625,
          "durationTicks": 60,
          "midi": 54,
          "name": "F#3",
          "ticks": 368400,
          "time": 977.9198423333332,
          "velocity": 0.7874015748031497
        },
        {
          "duration": 0.15625,
          "durationTicks": 60,
          "midi": 55,
          "name": "G3",
          "ticks": 368460,
          "time": 978.0760923333332,
          "velocity": 0.7874015748031497
        },
        {
          "duration": 0.15625,
          "durationTicks": 60,
          "midi": 52,
          "name": "E3",
          "ticks": 368460,
          "time": 978.0760923333332,
          "velocity": 0.7874015748031497
        },
        {
          "duration": 0.15625,
          "durationTicks": 60,
          "midi": 54,
          "name": "F#3",
          "ticks": 368520,
          "time": 978.2323423333332,
          "velocity": 0.7874015748031497
        },
        {
          "duration": 0.15625,
          "durationTicks": 60,
          "midi": 50,
          "name": "D3",
          "ticks": 368520,
          "time": 978.2323423333332,
          "velocity": 0.7874015748031497
        },
        {
          "duration": 0.15625,
          "durationTicks": 60,
          "midi": 52,
          "name": "E3",
          "ticks": 368580,
          "time": 978.3885923333332,
          "velocity": 0.7874015748031497
        },
        {
          "duration": 0.15625,
          "durationTicks": 60,
          "midi": 48,
          "name": "C3",
          "ticks": 368580,
          "time": 978.3885923333332,
          "velocity": 0.7874015748031497
        },
        {
          "duration": 0.3125,
          "durationTicks": 120,
          "midi": 47,
          "name": "B2",
          "ticks": 368640,
          "time": 978.5448423333332,
          "velocity": 0.7874015748031497
        },
        {
          "duration": 0.3125,
          "durationTicks": 120,
          "midi": 50,
          "name": "D3",
          "ticks": 368640,
          "time": 978.5448423333332,
          "velocity": 0.7874015748031497
        },
        {
          "duration": 0.15625,
          "durationTicks": 60,
          "midi": 69,
          "name": "A4",
          "ticks": 368940,
          "time": 979.3260923333332,
          "velocity": 0.7874015748031497
        },
        {
          "duration": 0.15625,
          "durationTicks": 60,
          "midi": 72,
          "name": "C5",
          "ticks": 368940,
          "time": 979.3260923333332,
          "velocity": 0.7874015748031497
        },
        {
          "duration": 0.15625,
          "durationTicks": 60,
          "midi": 67,
          "name": "G4",
          "ticks": 369000,
          "time": 979.4823423333332,
          "velocity": 0.7874015748031497
        },
        {
          "duration": 0.15625,
          "durationTicks": 60,
          "midi": 71,
          "name": "B4",
          "ticks": 369000,
          "time": 979.4823423333332,
          "velocity": 0.7874015748031497
        },
        {
          "duration": 0.15625,
          "durationTicks": 60,
          "midi": 66,
          "name": "F#4",
          "ticks": 369060,
          "time": 979.6385923333332,
          "velocity": 0.7874015748031497
        },
        {
          "duration": 0.15625,
          "durationTicks": 60,
          "midi": 69,
          "name": "A4",
          "ticks": 369060,
          "time": 979.6385923333332,
          "velocity": 0.7874015748031497
        },
        {
          "duration": 0.15625,
          "durationTicks": 60,
          "midi": 64,
          "name": "E4",
          "ticks": 369120,
          "time": 979.7948423333332,
          "velocity": 0.7874015748031497
        },
        {
          "duration": 0.15625,
          "durationTicks": 60,
          "midi": 67,
          "name": "G4",
          "ticks": 369120,
          "time": 979.7948423333332,
          "velocity": 0.7874015748031497
        },
        {
          "duration": 0.15625,
          "durationTicks": 60,
          "midi": 62,
          "name": "D4",
          "ticks": 369180,
          "time": 979.9510923333332,
          "velocity": 0.7874015748031497
        },
        {
          "duration": 0.15625,
          "durationTicks": 60,
          "midi": 66,
          "name": "F#4",
          "ticks": 369180,
          "time": 979.9510923333332,
          "velocity": 0.7874015748031497
        },
        {
          "duration": 0.15625,
          "durationTicks": 60,
          "midi": 60,
          "name": "C4",
          "ticks": 369240,
          "time": 980.1073423333332,
          "velocity": 0.7874015748031497
        },
        {
          "duration": 0.15625,
          "durationTicks": 60,
          "midi": 64,
          "name": "E4",
          "ticks": 369240,
          "time": 980.1073423333332,
          "velocity": 0.7874015748031497
        },
        {
          "duration": 0.15625,
          "durationTicks": 60,
          "midi": 59,
          "name": "B3",
          "ticks": 369300,
          "time": 980.2635923333332,
          "velocity": 0.7874015748031497
        },
        {
          "duration": 0.15625,
          "durationTicks": 60,
          "midi": 62,
          "name": "D4",
          "ticks": 369300,
          "time": 980.2635923333332,
          "velocity": 0.7874015748031497
        },
        {
          "duration": 0.15625,
          "durationTicks": 60,
          "midi": 57,
          "name": "A3",
          "ticks": 369360,
          "time": 980.4198423333332,
          "velocity": 0.7874015748031497
        },
        {
          "duration": 0.15625,
          "durationTicks": 60,
          "midi": 60,
          "name": "C4",
          "ticks": 369360,
          "time": 980.4198423333332,
          "velocity": 0.7874015748031497
        },
        {
          "duration": 0.15625,
          "durationTicks": 60,
          "midi": 56,
          "name": "G#3",
          "ticks": 369540,
          "time": 980.8885923333332,
          "velocity": 0.7874015748031497
        },
        {
          "duration": 0.15625,
          "durationTicks": 60,
          "midi": 59,
          "name": "B3",
          "ticks": 369540,
          "time": 980.8885923333332,
          "velocity": 0.7874015748031497
        },
        {
          "duration": 0.15625,
          "durationTicks": 60,
          "midi": 57,
          "name": "A3",
          "ticks": 369600,
          "time": 981.0448423333332,
          "velocity": 0.7874015748031497
        },
        {
          "duration": 0.15625,
          "durationTicks": 60,
          "midi": 60,
          "name": "C4",
          "ticks": 369600,
          "time": 981.0448423333332,
          "velocity": 0.7874015748031497
        },
        {
          "duration": 0.15625,
          "durationTicks": 60,
          "midi": 55,
          "name": "G3",
          "ticks": 369780,
          "time": 981.5135923333332,
          "velocity": 0.7874015748031497
        },
        {
          "duration": 0.15625,
          "durationTicks": 60,
          "midi": 59,
          "name": "B3",
          "ticks": 369780,
          "time": 981.5135923333332,
          "velocity": 0.7874015748031497
        },
        {
          "duration": 0.15625,
          "durationTicks": 60,
          "midi": 54,
          "name": "F#3",
          "ticks": 369840,
          "time": 981.6698423333332,
          "velocity": 0.7874015748031497
        },
        {
          "duration": 0.15625,
          "durationTicks": 60,
          "midi": 57,
          "name": "A3",
          "ticks": 369840,
          "time": 981.6698423333332,
          "velocity": 0.7874015748031497
        },
        {
          "duration": 0.15625,
          "durationTicks": 60,
          "midi": 52,
          "name": "E3",
          "ticks": 370020,
          "time": 982.1385923333332,
          "velocity": 0.7874015748031497
        },
        {
          "duration": 0.15625,
          "durationTicks": 60,
          "midi": 55,
          "name": "G3",
          "ticks": 370020,
          "time": 982.1385923333332,
          "velocity": 0.7874015748031497
        },
        {
          "duration": 0.15625,
          "durationTicks": 60,
          "midi": 50,
          "name": "D3",
          "ticks": 370080,
          "time": 982.2948423333332,
          "velocity": 0.7874015748031497
        },
        {
          "duration": 0.15625,
          "durationTicks": 60,
          "midi": 54,
          "name": "F#3",
          "ticks": 370080,
          "time": 982.2948423333332,
          "velocity": 0.7874015748031497
        },
        {
          "duration": 0.15625,
          "durationTicks": 60,
          "midi": 49,
          "name": "C#3",
          "ticks": 370260,
          "time": 982.7635923333332,
          "velocity": 0.7874015748031497
        },
        {
          "duration": 0.15625,
          "durationTicks": 60,
          "midi": 52,
          "name": "E3",
          "ticks": 370260,
          "time": 982.7635923333332,
          "velocity": 0.7874015748031497
        },
        {
          "duration": 0.15625,
          "durationTicks": 60,
          "midi": 50,
          "name": "D3",
          "ticks": 370320,
          "time": 982.9198423333332,
          "velocity": 0.7874015748031497
        },
        {
          "duration": 0.15625,
          "durationTicks": 60,
          "midi": 54,
          "name": "F#3",
          "ticks": 370320,
          "time": 982.9198423333332,
          "velocity": 0.7874015748031497
        },
        {
          "duration": 0.15625,
          "durationTicks": 60,
          "midi": 48,
          "name": "C3",
          "ticks": 370500,
          "time": 983.3885923333332,
          "velocity": 0.7874015748031497
        },
        {
          "duration": 0.15625,
          "durationTicks": 60,
          "midi": 52,
          "name": "E3",
          "ticks": 370500,
          "time": 983.3885923333332,
          "velocity": 0.7874015748031497
        },
        {
          "duration": 0.15625,
          "durationTicks": 60,
          "midi": 47,
          "name": "B2",
          "ticks": 370560,
          "time": 983.5448423333332,
          "velocity": 0.7874015748031497
        },
        {
          "duration": 0.15625,
          "durationTicks": 60,
          "midi": 50,
          "name": "D3",
          "ticks": 370560,
          "time": 983.5448423333332,
          "velocity": 0.7874015748031497
        },
        {
          "duration": 0.15625,
          "durationTicks": 60,
          "midi": 45,
          "name": "A2",
          "ticks": 370740,
          "time": 984.0135923333332,
          "velocity": 0.7874015748031497
        },
        {
          "duration": 0.15625,
          "durationTicks": 60,
          "midi": 48,
          "name": "C3",
          "ticks": 370740,
          "time": 984.0135923333332,
          "velocity": 0.7874015748031497
        },
        {
          "duration": 0.15625,
          "durationTicks": 60,
          "midi": 43,
          "name": "G2",
          "ticks": 370800,
          "time": 984.1698423333332,
          "velocity": 0.7874015748031497
        },
        {
          "duration": 0.15625,
          "durationTicks": 60,
          "midi": 47,
          "name": "B2",
          "ticks": 370800,
          "time": 984.1698423333332,
          "velocity": 0.7874015748031497
        },
        {
          "duration": 0.15625,
          "durationTicks": 60,
          "midi": 42,
          "name": "F#2",
          "ticks": 370980,
          "time": 984.6385923333332,
          "velocity": 0.7874015748031497
        },
        {
          "duration": 0.15625,
          "durationTicks": 60,
          "midi": 45,
          "name": "A2",
          "ticks": 370980,
          "time": 984.6385923333332,
          "velocity": 0.7874015748031497
        },
        {
          "duration": 0.15625,
          "durationTicks": 60,
          "midi": 43,
          "name": "G2",
          "ticks": 371040,
          "time": 984.7948423333332,
          "velocity": 0.7874015748031497
        },
        {
          "duration": 0.15625,
          "durationTicks": 60,
          "midi": 47,
          "name": "B2",
          "ticks": 371040,
          "time": 984.7948423333332,
          "velocity": 0.7874015748031497
        },
        {
          "duration": 0.15625,
          "durationTicks": 60,
          "midi": 48,
          "name": "C3",
          "ticks": 371220,
          "time": 985.2635923333332,
          "velocity": 0.7874015748031497
        },
        {
          "duration": 0.15625,
          "durationTicks": 60,
          "midi": 52,
          "name": "E3",
          "ticks": 371220,
          "time": 985.2635923333332,
          "velocity": 0.7874015748031497
        },
        {
          "duration": 0.15625,
          "durationTicks": 60,
          "midi": 50,
          "name": "D3",
          "ticks": 371280,
          "time": 985.4198423333332,
          "velocity": 0.7874015748031497
        },
        {
          "duration": 0.15625,
          "durationTicks": 60,
          "midi": 53,
          "name": "F3",
          "ticks": 371280,
          "time": 985.4198423333332,
          "velocity": 0.7874015748031497
        },
        {
          "duration": 0.15625,
          "durationTicks": 60,
          "midi": 50,
          "name": "D3",
          "ticks": 371460,
          "time": 985.8885923333332,
          "velocity": 0.7874015748031497
        },
        {
          "duration": 0.15625,
          "durationTicks": 60,
          "midi": 59,
          "name": "B3",
          "ticks": 371460,
          "time": 985.8885923333332,
          "velocity": 0.7874015748031497
        },
        {
          "duration": 0.15625,
          "durationTicks": 60,
          "midi": 52,
          "name": "E3",
          "ticks": 371520,
          "time": 986.0448423333332,
          "velocity": 0.7874015748031497
        },
        {
          "duration": 0.15625,
          "durationTicks": 60,
          "midi": 60,
          "name": "C4",
          "ticks": 371520,
          "time": 986.0448423333332,
          "velocity": 0.7874015748031497
        },
        {
          "duration": 0.15625,
          "durationTicks": 60,
          "midi": 50,
          "name": "D3",
          "ticks": 371700,
          "time": 986.5135923333332,
          "velocity": 0.7874015748031497
        },
        {
          "duration": 0.15625,
          "durationTicks": 60,
          "midi": 59,
          "name": "B3",
          "ticks": 371700,
          "time": 986.5135923333332,
          "velocity": 0.7874015748031497
        },
        {
          "duration": 0.15625,
          "durationTicks": 60,
          "midi": 52,
          "name": "E3",
          "ticks": 371760,
          "time": 986.6698423333332,
          "velocity": 0.7874015748031497
        },
        {
          "duration": 0.15625,
          "durationTicks": 60,
          "midi": 60,
          "name": "C4",
          "ticks": 371760,
          "time": 986.6698423333332,
          "velocity": 0.7874015748031497
        },
        {
          "duration": 0.15625,
          "durationTicks": 60,
          "midi": 57,
          "name": "A3",
          "ticks": 371940,
          "time": 987.1385923333332,
          "velocity": 0.7874015748031497
        },
        {
          "duration": 0.15625,
          "durationTicks": 60,
          "midi": 66,
          "name": "F#4",
          "ticks": 371940,
          "time": 987.1385923333332,
          "velocity": 0.7874015748031497
        },
        {
          "duration": 0.15625,
          "durationTicks": 60,
          "midi": 59,
          "name": "B3",
          "ticks": 372000,
          "time": 987.2948423333332,
          "velocity": 0.7874015748031497
        },
        {
          "duration": 0.15625,
          "durationTicks": 60,
          "midi": 67,
          "name": "G4",
          "ticks": 372000,
          "time": 987.2948423333332,
          "velocity": 0.7874015748031497
        },
        {
          "duration": 0.15625,
          "durationTicks": 60,
          "midi": 64,
          "name": "E4",
          "ticks": 372180,
          "time": 987.7635923333332,
          "velocity": 0.7874015748031497
        },
        {
          "duration": 0.15625,
          "durationTicks": 60,
          "midi": 72,
          "name": "C5",
          "ticks": 372180,
          "time": 987.7635923333332,
          "velocity": 0.7874015748031497
        },
        {
          "duration": 0.625,
          "durationTicks": 240,
          "midi": 66,
          "name": "F#4",
          "ticks": 372240,
          "time": 987.9198423333332,
          "velocity": 0.7874015748031497
        },
        {
          "duration": 0.15625,
          "durationTicks": 60,
          "midi": 55,
          "name": "G3",
          "ticks": 372540,
          "time": 988.7010923333332,
          "velocity": 0.7874015748031497
        },
        {
          "duration": 0.15625,
          "durationTicks": 60,
          "midi": 54,
          "name": "F#3",
          "ticks": 372600,
          "time": 988.8573423333332,
          "velocity": 0.7874015748031497
        },
        {
          "duration": 0.15625,
          "durationTicks": 60,
          "midi": 52,
          "name": "E3",
          "ticks": 372660,
          "time": 989.0135923333332,
          "velocity": 0.7874015748031497
        },
        {
          "duration": 0.15625,
          "durationTicks": 60,
          "midi": 50,
          "name": "D3",
          "ticks": 372720,
          "time": 989.1698423333332,
          "velocity": 0.7874015748031497
        },
        {
          "duration": 0.15625,
          "durationTicks": 60,
          "midi": 48,
          "name": "C3",
          "ticks": 372780,
          "time": 989.3260923333332,
          "velocity": 0.7874015748031497
        },
        {
          "duration": 0.15625,
          "durationTicks": 60,
          "midi": 47,
          "name": "B2",
          "ticks": 372840,
          "time": 989.4823423333332,
          "velocity": 0.7874015748031497
        },
        {
          "duration": 0.15625,
          "durationTicks": 60,
          "midi": 45,
          "name": "A2",
          "ticks": 372900,
          "time": 989.6385923333332,
          "velocity": 0.7874015748031497
        },
        {
          "duration": 0.3125,
          "durationTicks": 120,
          "midi": 43,
          "name": "G2",
          "ticks": 372960,
          "time": 989.7948423333332,
          "velocity": 0.7874015748031497
        },
        {
          "duration": 0.3125,
          "durationTicks": 120,
          "midi": 47,
          "name": "B2",
          "ticks": 372960,
          "time": 989.7948423333332,
          "velocity": 0.7874015748031497
        },
        {
          "duration": 0.3125,
          "durationTicks": 120,
          "midi": 55,
          "name": "G3",
          "ticks": 372960,
          "time": 989.7948423333332,
          "velocity": 0.7874015748031497
        },
        {
          "duration": 0.15625,
          "durationTicks": 60,
          "midi": 42,
          "name": "F#2",
          "ticks": 373080,
          "time": 990.1073423333332,
          "velocity": 0.7874015748031497
        },
        {
          "duration": 0.15625,
          "durationTicks": 60,
          "midi": 45,
          "name": "A2",
          "ticks": 373080,
          "time": 990.1073423333332,
          "velocity": 0.7874015748031497
        },
        {
          "duration": 0.15625,
          "durationTicks": 60,
          "midi": 54,
          "name": "F#3",
          "ticks": 373080,
          "time": 990.1073423333332,
          "velocity": 0.7874015748031497
        },
        {
          "duration": 0.15625,
          "durationTicks": 60,
          "midi": 40,
          "name": "E2",
          "ticks": 373140,
          "time": 990.2635923333332,
          "velocity": 0.7874015748031497
        },
        {
          "duration": 0.15625,
          "durationTicks": 60,
          "midi": 43,
          "name": "G2",
          "ticks": 373140,
          "time": 990.2635923333332,
          "velocity": 0.7874015748031497
        },
        {
          "duration": 0.15625,
          "durationTicks": 60,
          "midi": 52,
          "name": "E3",
          "ticks": 373140,
          "time": 990.2635923333332,
          "velocity": 0.7874015748031497
        },
        {
          "duration": 0.15625,
          "durationTicks": 60,
          "midi": 38,
          "name": "D2",
          "ticks": 373200,
          "time": 990.4198423333332,
          "velocity": 0.7874015748031497
        },
        {
          "duration": 0.15625,
          "durationTicks": 60,
          "midi": 42,
          "name": "F#2",
          "ticks": 373200,
          "time": 990.4198423333332,
          "velocity": 0.7874015748031497
        },
        {
          "duration": 0.15625,
          "durationTicks": 60,
          "midi": 50,
          "name": "D3",
          "ticks": 373200,
          "time": 990.4198423333332,
          "velocity": 0.7874015748031497
        },
        {
          "duration": 0.15625,
          "durationTicks": 60,
          "midi": 36,
          "name": "C2",
          "ticks": 373260,
          "time": 990.5760923333332,
          "velocity": 0.7874015748031497
        },
        {
          "duration": 0.15625,
          "durationTicks": 60,
          "midi": 40,
          "name": "E2",
          "ticks": 373260,
          "time": 990.5760923333332,
          "velocity": 0.7874015748031497
        },
        {
          "duration": 0.15625,
          "durationTicks": 60,
          "midi": 48,
          "name": "C3",
          "ticks": 373260,
          "time": 990.5760923333332,
          "velocity": 0.7874015748031497
        },
        {
          "duration": 0.15625,
          "durationTicks": 60,
          "midi": 35,
          "name": "B1",
          "ticks": 373320,
          "time": 990.7323423333332,
          "velocity": 0.7874015748031497
        },
        {
          "duration": 0.15625,
          "durationTicks": 60,
          "midi": 38,
          "name": "D2",
          "ticks": 373320,
          "time": 990.7323423333332,
          "velocity": 0.7874015748031497
        },
        {
          "duration": 0.15625,
          "durationTicks": 60,
          "midi": 47,
          "name": "B2",
          "ticks": 373320,
          "time": 990.7323423333332,
          "velocity": 0.7874015748031497
        },
        {
          "duration": 0.15625,
          "durationTicks": 60,
          "midi": 33,
          "name": "A1",
          "ticks": 373380,
          "time": 990.8885923333332,
          "velocity": 0.7874015748031497
        },
        {
          "duration": 0.15625,
          "durationTicks": 60,
          "midi": 36,
          "name": "C2",
          "ticks": 373380,
          "time": 990.8885923333332,
          "velocity": 0.7874015748031497
        },
        {
          "duration": 0.15625,
          "durationTicks": 60,
          "midi": 45,
          "name": "A2",
          "ticks": 373380,
          "time": 990.8885923333332,
          "velocity": 0.7874015748031497
        },
        {
          "duration": 0.3125,
          "durationTicks": 120,
          "midi": 31,
          "name": "G1",
          "ticks": 373440,
          "time": 991.0448423333332,
          "velocity": 0.7874015748031497
        },
        {
          "duration": 0.3125,
          "durationTicks": 120,
          "midi": 35,
          "name": "B1",
          "ticks": 373440,
          "time": 991.0448423333332,
          "velocity": 0.7874015748031497
        },
        {
          "duration": 0.3125,
          "durationTicks": 120,
          "midi": 43,
          "name": "G2",
          "ticks": 373440,
          "time": 991.0448423333332,
          "velocity": 0.7874015748031497
        },
        {
          "duration": 0.34090900000001056,
          "durationTicks": 120,
          "midi": 67,
          "name": "G4",
          "ticks": 423360,
          "time": 1305.6046906333333,
          "velocity": 0.7874015748031497
        },
        {
          "duration": 0.34090900000001056,
          "durationTicks": 120,
          "midi": 83,
          "name": "B5",
          "ticks": 423480,
          "time": 1305.9455996333334,
          "velocity": 0.7874015748031497
        },
        {
          "duration": 0.34090900000001056,
          "durationTicks": 120,
          "midi": 81,
          "name": "A5",
          "ticks": 423600,
          "time": 1306.2865086333334,
          "velocity": 0.7874015748031497
        },
        {
          "duration": 0.34090900000001056,
          "durationTicks": 120,
          "midi": 66,
          "name": "F#4",
          "ticks": 423720,
          "time": 1306.6274176333334,
          "velocity": 0.7874015748031497
        },
        {
          "duration": 0.34090900000001056,
          "durationTicks": 120,
          "midi": 64,
          "name": "E4",
          "ticks": 423840,
          "time": 1306.9683266333334,
          "velocity": 0.7874015748031497
        },
        {
          "duration": 0.34090900000001056,
          "durationTicks": 120,
          "midi": 79,
          "name": "G5",
          "ticks": 423960,
          "time": 1307.3092356333334,
          "velocity": 0.7874015748031497
        },
        {
          "duration": 0.34090900000001056,
          "durationTicks": 120,
          "midi": 66,
          "name": "F#4",
          "ticks": 424080,
          "time": 1307.6501446333334,
          "velocity": 0.7874015748031497
        },
        {
          "duration": 0.34090900000001056,
          "durationTicks": 120,
          "midi": 81,
          "name": "A5",
          "ticks": 424200,
          "time": 1307.9910536333334,
          "velocity": 0.7874015748031497
        },
        {
          "duration": 0.34090900000001056,
          "durationTicks": 120,
          "midi": 79,
          "name": "G5",
          "ticks": 424320,
          "time": 1308.3319626333334,
          "velocity": 0.7874015748031497
        },
        {
          "duration": 0.34090900000001056,
          "durationTicks": 120,
          "midi": 64,
          "name": "E4",
          "ticks": 424440,
          "time": 1308.6728716333334,
          "velocity": 0.7874015748031497
        },
        {
          "duration": 0.34090900000001056,
          "durationTicks": 120,
          "midi": 62,
          "name": "D4",
          "ticks": 424560,
          "time": 1309.0137806333335,
          "velocity": 0.7874015748031497
        },
        {
          "duration": 0.3409089999997832,
          "durationTicks": 120,
          "midi": 78,
          "name": "F#5",
          "ticks": 424680,
          "time": 1309.3546896333335,
          "velocity": 0.7874015748031497
        },
        {
          "duration": 0.34090900000001056,
          "durationTicks": 120,
          "midi": 64,
          "name": "E4",
          "ticks": 424800,
          "time": 1309.6955986333332,
          "velocity": 0.7874015748031497
        },
        {
          "duration": 0.34090900000001056,
          "durationTicks": 120,
          "midi": 79,
          "name": "G5",
          "ticks": 424920,
          "time": 1310.0365076333333,
          "velocity": 0.7874015748031497
        },
        {
          "duration": 0.34090900000001056,
          "durationTicks": 120,
          "midi": 78,
          "name": "F#5",
          "ticks": 425040,
          "time": 1310.3774166333333,
          "velocity": 0.7874015748031497
        },
        {
          "duration": 0.34090900000001056,
          "durationTicks": 120,
          "midi": 67,
          "name": "G4",
          "ticks": 425160,
          "time": 1310.7183256333333,
          "velocity": 0.7874015748031497
        },
        {
          "duration": 0.34090900000001056,
          "durationTicks": 120,
          "midi": 69,
          "name": "A4",
          "ticks": 425280,
          "time": 1311.0592346333333,
          "velocity": 0.7874015748031497
        },
        {
          "duration": 0.34090900000001056,
          "durationTicks": 120,
          "midi": 88,
          "name": "E6",
          "ticks": 425400,
          "time": 1311.4001436333333,
          "velocity": 0.7874015748031497
        },
        {
          "duration": 0.34090900000001056,
          "durationTicks": 120,
          "midi": 74,
          "name": "D5",
          "ticks": 425520,
          "time": 1311.7410526333333,
          "velocity": 0.7874015748031497
        },
        {
          "duration": 0.34090900000001056,
          "durationTicks": 120,
          "midi": 90,
          "name": "F#6",
          "ticks": 425640,
          "time": 1312.0819616333333,
          "velocity": 0.7874015748031497
        },
        {
          "duration": 0.34090900000001056,
          "durationTicks": 120,
          "midi": 88,
          "name": "E6",
          "ticks": 425760,
          "time": 1312.4228706333333,
          "velocity": 0.7874015748031497
        },
        {
          "duration": 0.34090900000001056,
          "durationTicks": 120,
          "midi": 79,
          "name": "G5",
          "ticks": 425880,
          "time": 1312.7637796333333,
          "velocity": 0.7874015748031497
        },
        {
          "duration": 0.34090900000001056,
          "durationTicks": 120,
          "midi": 78,
          "name": "F#5",
          "ticks": 426000,
          "time": 1313.1046886333334,
          "velocity": 0.7874015748031497
        },
        {
          "duration": 0.34090900000001056,
          "durationTicks": 120,
          "midi": 84,
          "name": "C6",
          "ticks": 426120,
          "time": 1313.4455976333334,
          "velocity": 0.7874015748031497
        },
        {
          "duration": 0.34090900000001056,
          "durationTicks": 120,
          "midi": 83,
          "name": "B5",
          "ticks": 426240,
          "time": 1313.7865066333334,
          "velocity": 0.7874015748031497
        },
        {
          "duration": 0.34090900000001056,
          "durationTicks": 120,
          "midi": 84,
          "name": "C6",
          "ticks": 426480,
          "time": 1314.4683246333334,
          "velocity": 0.7874015748031497
        },
        {
          "duration": 0.34090900000001056,
          "durationTicks": 120,
          "midi": 86,
          "name": "D6",
          "ticks": 426720,
          "time": 1315.1501426333334,
          "velocity": 0.7874015748031497
        },
        {
          "duration": 0.34090900000001056,
          "durationTicks": 120,
          "midi": 84,
          "name": "C6",
          "ticks": 426960,
          "time": 1315.8319606333334,
          "velocity": 0.7874015748031497
        },
        {
          "duration": 0.34090900000001056,
          "durationTicks": 120,
          "midi": 86,
          "name": "D6",
          "ticks": 427200,
          "time": 1316.5137786333335,
          "velocity": 0.7874015748031497
        },
        {
          "duration": 0.34090900000001056,
          "durationTicks": 120,
          "midi": 88,
          "name": "E6",
          "ticks": 427440,
          "time": 1317.1955966333333,
          "velocity": 0.7874015748031497
        },
        {
          "duration": 0.6818180000000211,
          "durationTicks": 240,
          "midi": 74,
          "name": "D5",
          "ticks": 427680,
          "time": 1317.8774146333333,
          "velocity": 0.7874015748031497
        },
        {
          "duration": 0.6818180000000211,
          "durationTicks": 240,
          "midi": 76,
          "name": "E5",
          "ticks": 427920,
          "time": 1318.5592326333333,
          "velocity": 0.7874015748031497
        },
        {
          "duration": 0.6818180000000211,
          "durationTicks": 240,
          "midi": 69,
          "name": "A4",
          "ticks": 428160,
          "time": 1319.2410506333333,
          "velocity": 0.7874015748031497
        },
        {
          "duration": 0.6818180000000211,
          "durationTicks": 240,
          "midi": 71,
          "name": "B4",
          "ticks": 428400,
          "time": 1319.9228686333333,
          "velocity": 0.7874015748031497
        },
        {
          "duration": 0.6818180000000211,
          "durationTicks": 240,
          "midi": 72,
          "name": "C5",
          "ticks": 428640,
          "time": 1320.6046866333334,
          "velocity": 0.7874015748031497
        },
        {
          "duration": 0.6818180000000211,
          "durationTicks": 240,
          "midi": 74,
          "name": "D5",
          "ticks": 428880,
          "time": 1321.2865046333334,
          "velocity": 0.7874015748031497
        },
        {
          "duration": 0.34090900000001056,
          "durationTicks": 120,
          "midi": 74,
          "name": "D5",
          "ticks": 432000,
          "time": 1330.1501386333334,
          "velocity": 0.7874015748031497
        },
        {
          "duration": 0.34090900000001056,
          "durationTicks": 120,
          "midi": 71,
          "name": "B4",
          "ticks": 432240,
          "time": 1330.8319566333334,
          "velocity": 0.7874015748031497
        },
        {
          "duration": 0.34090900000001056,
          "durationTicks": 120,
          "midi": 69,
          "name": "A4",
          "ticks": 432480,
          "time": 1331.5137746333332,
          "velocity": 0.7874015748031497
        },
        {
          "duration": 0.34090900000001056,
          "durationTicks": 120,
          "midi": 67,
          "name": "G4",
          "ticks": 432720,
          "time": 1332.1955926333333,
          "velocity": 0.7874015748031497
        },
        {
          "duration": 0.34090900000001056,
          "durationTicks": 120,
          "midi": 69,
          "name": "A4",
          "ticks": 432960,
          "time": 1332.8774106333333,
          "velocity": 0.7874015748031497
        },
        {
          "duration": 0.34090900000001056,
          "durationTicks": 120,
          "midi": 71,
          "name": "B4",
          "ticks": 433200,
          "time": 1333.5592286333333,
          "velocity": 0.7874015748031497
        },
        {
          "duration": 0.34090900000001056,
          "durationTicks": 120,
          "midi": 69,
          "name": "A4",
          "ticks": 433440,
          "time": 1334.2410466333333,
          "velocity": 0.7874015748031497
        },
        {
          "duration": 0.34090900000001056,
          "durationTicks": 120,
          "midi": 67,
          "name": "G4",
          "ticks": 433680,
          "time": 1334.9228646333333,
          "velocity": 0.7874015748031497
        },
        {
          "duration": 0.34090900000001056,
          "durationTicks": 120,
          "midi": 69,
          "name": "A4",
          "ticks": 433920,
          "time": 1335.6046826333334,
          "velocity": 0.7874015748031497
        },
        {
          "duration": 0.34090900000001056,
          "durationTicks": 120,
          "midi": 67,
          "name": "G4",
          "ticks": 437760,
          "time": 1346.5137706333333,
          "velocity": 0.7874015748031497
        },
        {
          "duration": 0.34090900000001056,
          "durationTicks": 120,
          "midi": 69,
          "name": "A4",
          "ticks": 438000,
          "time": 1347.1955886333333,
          "velocity": 0.7874015748031497
        },
        {
          "duration": 0.34090900000001056,
          "durationTicks": 120,
          "midi": 71,
          "name": "B4",
          "ticks": 438240,
          "time": 1347.8774066333333,
          "velocity": 0.7874015748031497
        },
        {
          "duration": 0.34090900000001056,
          "durationTicks": 120,
          "midi": 72,
          "name": "C5",
          "ticks": 438480,
          "time": 1348.5592246333333,
          "velocity": 0.7874015748031497
        },
        {
          "duration": 0.34090900000001056,
          "durationTicks": 120,
          "midi": 71,
          "name": "B4",
          "ticks": 438720,
          "time": 1349.2410426333333,
          "velocity": 0.7874015748031497
        },
        {
          "duration": 0.34090900000001056,
          "durationTicks": 120,
          "midi": 72,
          "name": "C5",
          "ticks": 438960,
          "time": 1349.9228606333334,
          "velocity": 0.7874015748031497
        },
        {
          "duration": 0.34090900000001056,
          "durationTicks": 120,
          "midi": 70,
          "name": "A#4",
          "ticks": 439200,
          "time": 1350.6046786333334,
          "velocity": 0.7874015748031497
        },
        {
          "duration": 0.34090900000001056,
          "durationTicks": 120,
          "midi": 71,
          "name": "B4",
          "ticks": 439440,
          "time": 1351.2864966333334,
          "velocity": 0.7874015748031497
        },
        {
          "duration": 0.34090900000001056,
          "durationTicks": 120,
          "midi": 71,
          "name": "B4",
          "ticks": 439680,
          "time": 1351.9683146333334,
          "velocity": 0.7874015748031497
        },
        {
          "duration": 0.08522724999988895,
          "durationTicks": 30,
          "midi": 76,
          "name": "E5",
          "ticks": 439920,
          "time": 1352.6501326333334,
          "velocity": 0.7874015748031497
        },
        {
          "duration": 0.08522725000011633,
          "durationTicks": 30,
          "midi": 71,
          "name": "B4",
          "ticks": 439950,
          "time": 1352.7353598833333,
          "velocity": 0.7874015748031497
        },
        {
          "duration": 0.08522724999988895,
          "durationTicks": 30,
          "midi": 69,
          "name": "A4",
          "ticks": 439980,
          "time": 1352.8205871333334,
          "velocity": 0.7874015748031497
        },
        {
          "duration": 0.08522725000011633,
          "durationTicks": 30,
          "midi": 71,
          "name": "B4",
          "ticks": 440010,
          "time": 1352.9058143833333,
          "velocity": 0.7874015748031497
        },
        {
          "duration": 0.08522724999988895,
          "durationTicks": 30,
          "midi": 69,
          "name": "A4",
          "ticks": 440040,
          "time": 1352.9910416333335,
          "velocity": 0.7874015748031497
        },
        {
          "duration": 0.08522725000011633,
          "durationTicks": 30,
          "midi": 71,
          "name": "B4",
          "ticks": 440070,
          "time": 1353.0762688833333,
          "velocity": 0.7874015748031497
        },
        {
          "duration": 0.08522724999988895,
          "durationTicks": 30,
          "midi": 69,
          "name": "A4",
          "ticks": 440100,
          "time": 1353.1614961333335,
          "velocity": 0.7874015748031497
        },
        {
          "duration": 0.08522724999988895,
          "durationTicks": 30,
          "midi": 71,
          "name": "B4",
          "ticks": 440130,
          "time": 1353.2467233833333,
          "velocity": 0.7874015748031497
        },
        {
          "duration": 0.08522725000011633,
          "durationTicks": 30,
          "midi": 66,
          "name": "F#4",
          "ticks": 440160,
          "time": 1353.3319506333332,
          "velocity": 0.7874015748031497
        },
        {
          "duration": 0.08522724999988895,
          "durationTicks": 30,
          "midi": 67,
          "name": "G4",
          "ticks": 440190,
          "time": 1353.4171778833334,
          "velocity": 0.7874015748031497
        },
        {
          "duration": 0.08522725000011633,
          "durationTicks": 30,
          "midi": 66,
          "name": "F#4",
          "ticks": 440220,
          "time": 1353.5024051333332,
          "velocity": 0.7874015748031497
        },
        {
          "duration": 0.08522724999988895,
          "durationTicks": 30,
          "midi": 67,
          "name": "G4",
          "ticks": 440250,
          "time": 1353.5876323833334,
          "velocity": 0.7874015748031497
        },
        {
          "duration": 0.08522725000011633,
          "durationTicks": 30,
          "midi": 66,
          "name": "F#4",
          "ticks": 440280,
          "time": 1353.6728596333332,
          "velocity": 0.7874015748031497
        },
        {
          "duration": 0.08522724999988895,
          "durationTicks": 30,
          "midi": 67,
          "name": "G4",
          "ticks": 440310,
          "time": 1353.7580868833334,
          "velocity": 0.7874015748031497
        },
        {
          "duration": 0.08522725000011633,
          "durationTicks": 30,
          "midi": 66,
          "name": "F#4",
          "ticks": 440340,
          "time": 1353.8433141333333,
          "velocity": 0.7874015748031497
        },
        {
          "duration": 0.08522724999988895,
          "durationTicks": 30,
          "midi": 67,
          "name": "G4",
          "ticks": 440370,
          "time": 1353.9285413833334,
          "velocity": 0.7874015748031497
        },
        {
          "duration": 0.08522725000011633,
          "durationTicks": 30,
          "midi": 64,
          "name": "E4",
          "ticks": 440400,
          "time": 1354.0137686333333,
          "velocity": 0.7874015748031497
        },
        {
          "duration": 0.08522724999988895,
          "durationTicks": 30,
          "midi": 66,
          "name": "F#4",
          "ticks": 440430,
          "time": 1354.0989958833334,
          "velocity": 0.7874015748031497
        },
        {
          "duration": 0.08522725000011633,
          "durationTicks": 30,
          "midi": 67,
          "name": "G4",
          "ticks": 440460,
          "time": 1354.1842231333333,
          "velocity": 0.7874015748031497
        },
        {
          "duration": 0.08522724999988895,
          "durationTicks": 30,
          "midi": 69,
          "name": "A4",
          "ticks": 440490,
          "time": 1354.2694503833334,
          "velocity": 0.7874015748031497
        },
        {
          "duration": 0.08522725000011633,
          "durationTicks": 30,
          "midi": 71,
          "name": "B4",
          "ticks": 440520,
          "time": 1354.3546776333333,
          "velocity": 0.7874015748031497
        },
        {
          "duration": 0.08522724999988895,
          "durationTicks": 30,
          "midi": 72,
          "name": "C5",
          "ticks": 440550,
          "time": 1354.4399048833334,
          "velocity": 0.7874015748031497
        },
        {
          "duration": 0.17045450000000528,
          "durationTicks": 60,
          "midi": 74,
          "name": "D5",
          "ticks": 440580,
          "time": 1354.5251321333333,
          "velocity": 0.7874015748031497
        },
        {
          "duration": 0.34090900000001056,
          "durationTicks": 120,
          "midi": 72,
          "name": "C5",
          "ticks": 440640,
          "time": 1354.6955866333333,
          "velocity": 0.7874015748031497
        },
        {
          "duration": 0.34090900000001056,
          "durationTicks": 120,
          "midi": 71,
          "name": "B4",
          "ticks": 440880,
          "time": 1355.3774046333333,
          "velocity": 0.7874015748031497
        },
        {
          "duration": 0.34090900000001056,
          "durationTicks": 120,
          "midi": 69,
          "name": "A4",
          "ticks": 441120,
          "time": 1356.0592226333333,
          "velocity": 0.7874015748031497
        },
        {
          "duration": 0.34090900000001056,
          "durationTicks": 120,
          "midi": 71,
          "name": "B4",
          "ticks": 441360,
          "time": 1356.7410406333333,
          "velocity": 0.7874015748031497
        },
        {
          "duration": 0.34090900000001056,
          "durationTicks": 120,
          "midi": 69,
          "name": "A4",
          "ticks": 441600,
          "time": 1357.4228586333334,
          "velocity": 0.7874015748031497
        },
        {
          "duration": 0.34090900000001056,
          "durationTicks": 120,
          "midi": 67,
          "name": "G4",
          "ticks": 441840,
          "time": 1358.1046766333334,
          "velocity": 0.7874015748031497
        },
        {
          "duration": 0.34090900000001056,
          "durationTicks": 120,
          "midi": 69,
          "name": "A4",
          "ticks": 442080,
          "time": 1358.7864946333334,
          "velocity": 0.7874015748031497
        },
        {
          "duration": 0.34090900000001056,
          "durationTicks": 120,
          "midi": 88,
          "name": "E6",
          "ticks": 442200,
          "time": 1359.1274036333334,
          "velocity": 0.7874015748031497
        },
        {
          "duration": 0.34090900000001056,
          "durationTicks": 120,
          "midi": 89,
          "name": "F6",
          "ticks": 442320,
          "time": 1359.4683126333334,
          "velocity": 0.7874015748031497
        },
        {
          "duration": 0.34090900000001056,
          "durationTicks": 120,
          "midi": 90,
          "name": "F#6",
          "ticks": 442440,
          "time": 1359.8092216333334,
          "velocity": 0.7874015748031497
        },
        {
          "duration": 0.34090900000001056,
          "durationTicks": 120,
          "midi": 91,
          "name": "G6",
          "ticks": 442560,
          "time": 1360.1501306333334,
          "velocity": 0.7874015748031497
        },
        {
          "duration": 0.3409089999997832,
          "durationTicks": 120,
          "midi": 69,
          "name": "A4",
          "ticks": 442680,
          "time": 1360.4910396333335,
          "velocity": 0.7874015748031497
        },
        {
          "duration": 0.34090900000001056,
          "durationTicks": 120,
          "midi": 62,
          "name": "D4",
          "ticks": 442800,
          "time": 1360.8319486333332,
          "velocity": 0.7874015748031497
        },
        {
          "duration": 0.34090900000001056,
          "durationTicks": 120,
          "midi": 90,
          "name": "F#6",
          "ticks": 442920,
          "time": 1361.1728576333333,
          "velocity": 0.7874015748031497
        },
        {
          "duration": 0.34090900000001056,
          "durationTicks": 120,
          "midi": 91,
          "name": "G6",
          "ticks": 443040,
          "time": 1361.5137666333333,
          "velocity": 0.7874015748031497
        },
        {
          "duration": 0.34090900000001056,
          "durationTicks": 120,
          "midi": 92,
          "name": "G#6",
          "ticks": 443160,
          "time": 1361.8546756333333,
          "velocity": 0.7874015748031497
        },
        {
          "duration": 0.34090900000001056,
          "durationTicks": 120,
          "midi": 93,
          "name": "A6",
          "ticks": 443280,
          "time": 1362.1955846333333,
          "velocity": 0.7874015748031497
        },
        {
          "duration": 0.34090900000001056,
          "durationTicks": 120,
          "midi": 74,
          "name": "D5",
          "ticks": 443400,
          "time": 1362.5364936333333,
          "velocity": 0.7874015748031497
        },
        {
          "duration": 0.34090900000001056,
          "durationTicks": 120,
          "midi": 71,
          "name": "B4",
          "ticks": 443520,
          "time": 1362.8774026333333,
          "velocity": 0.7874015748031497
        },
        {
          "duration": 0.34090900000001056,
          "durationTicks": 120,
          "midi": 55,
          "name": "G3",
          "ticks": 443640,
          "time": 1363.2183116333333,
          "velocity": 0.7874015748031497
        },
        {
          "duration": 0.34090900000001056,
          "durationTicks": 120,
          "midi": 56,
          "name": "G#3",
          "ticks": 443760,
          "time": 1363.5592206333333,
          "velocity": 0.7874015748031497
        },
        {
          "duration": 0.34090900000001056,
          "durationTicks": 120,
          "midi": 57,
          "name": "A3",
          "ticks": 443880,
          "time": 1363.9001296333333,
          "velocity": 0.7874015748031497
        },
        {
          "duration": 0.34090900000001056,
          "durationTicks": 120,
          "midi": 58,
          "name": "A#3",
          "ticks": 444000,
          "time": 1364.2410386333333,
          "velocity": 0.7874015748031497
        },
        {
          "duration": 0.34090900000001056,
          "durationTicks": 120,
          "midi": 59,
          "name": "B3",
          "ticks": 444120,
          "time": 1364.5819476333334,
          "velocity": 0.7874015748031497
        },
        {
          "duration": 0.34090900000001056,
          "durationTicks": 120,
          "midi": 60,
          "name": "C4",
          "ticks": 444240,
          "time": 1364.9228566333334,
          "velocity": 0.7874015748031497
        },
        {
          "duration": 0.34090900000001056,
          "durationTicks": 120,
          "midi": 62,
          "name": "D4",
          "ticks": 444480,
          "time": 1365.6046746333334,
          "velocity": 0.7874015748031497
        },
        {
          "duration": 0.34090900000001056,
          "durationTicks": 120,
          "midi": 64,
          "name": "E4",
          "ticks": 444720,
          "time": 1366.2864926333334,
          "velocity": 0.7874015748031497
        },
        {
          "duration": 0.17045450000000528,
          "durationTicks": 60,
          "midi": 66,
          "name": "F#4",
          "ticks": 444960,
          "time": 1366.9683106333334,
          "velocity": 0.7874015748031497
        },
        {
          "duration": 0.08522724999988895,
          "durationTicks": 30,
          "midi": 72,
          "name": "C5",
          "ticks": 445020,
          "time": 1367.1387651333334,
          "velocity": 0.7874015748031497
        },
        {
          "duration": 0.08522725000011633,
          "durationTicks": 30,
          "midi": 74,
          "name": "D5",
          "ticks": 445050,
          "time": 1367.2239923833333,
          "velocity": 0.7874015748031497
        },
        {
          "duration": 0.08522724999988895,
          "durationTicks": 30,
          "midi": 72,
          "name": "C5",
          "ticks": 445080,
          "time": 1367.3092196333334,
          "velocity": 0.7874015748031497
        },
        {
          "duration": 0.08522725000011633,
          "durationTicks": 30,
          "midi": 74,
          "name": "D5",
          "ticks": 445110,
          "time": 1367.3944468833333,
          "velocity": 0.7874015748031497
        },
        {
          "duration": 0.08522724999988895,
          "durationTicks": 30,
          "midi": 72,
          "name": "C5",
          "ticks": 445140,
          "time": 1367.4796741333334,
          "velocity": 0.7874015748031497
        },
        {
          "duration": 0.08522725000011633,
          "durationTicks": 30,
          "midi": 74,
          "name": "D5",
          "ticks": 445170,
          "time": 1367.5649013833333,
          "velocity": 0.7874015748031497
        },
        {
          "duration": 0.17045450000000528,
          "durationTicks": 60,
          "midi": 71,
          "name": "B4",
          "ticks": 445200,
          "time": 1367.6501286333335,
          "velocity": 0.7874015748031497
        },
        {
          "duration": 0.08522724999988895,
          "durationTicks": 30,
          "midi": 66,
          "name": "F#4",
          "ticks": 445260,
          "time": 1367.8205831333335,
          "velocity": 0.7874015748031497
        },
        {
          "duration": 0.08522724999988895,
          "durationTicks": 30,
          "midi": 67,
          "name": "G4",
          "ticks": 445290,
          "time": 1367.9058103833333,
          "velocity": 0.7874015748031497
        },
        {
          "duration": 0.08522725000011633,
          "durationTicks": 30,
          "midi": 66,
          "name": "F#4",
          "ticks": 445320,
          "time": 1367.9910376333332,
          "velocity": 0.7874015748031497
        },
        {
          "duration": 0.08522724999988895,
          "durationTicks": 30,
          "midi": 67,
          "name": "G4",
          "ticks": 445350,
          "time": 1368.0762648833334,
          "velocity": 0.7874015748031497
        },
        {
          "duration": 0.08522725000011633,
          "durationTicks": 30,
          "midi": 66,
          "name": "F#4",
          "ticks": 445380,
          "time": 1368.1614921333332,
          "velocity": 0.7874015748031497
        },
        {
          "duration": 0.08522724999988895,
          "durationTicks": 30,
          "midi": 67,
          "name": "G4",
          "ticks": 445410,
          "time": 1368.2467193833334,
          "velocity": 0.7874015748031497
        },
        {
          "duration": 0.08522725000011633,
          "durationTicks": 30,
          "midi": 62,
          "name": "D4",
          "ticks": 445440,
          "time": 1368.3319466333332,
          "velocity": 0.7874015748031497
        },
        {
          "duration": 0.08522724999988895,
          "durationTicks": 30,
          "midi": 64,
          "name": "E4",
          "ticks": 445470,
          "time": 1368.4171738833334,
          "velocity": 0.7874015748031497
        },
        {
          "duration": 0.08522725000011633,
          "durationTicks": 30,
          "midi": 66,
          "name": "F#4",
          "ticks": 445500,
          "time": 1368.5024011333333,
          "velocity": 0.7874015748031497
        },
        {
          "duration": 0.08522724999988895,
          "durationTicks": 30,
          "midi": 67,
          "name": "G4",
          "ticks": 445530,
          "time": 1368.5876283833334,
          "velocity": 0.7874015748031497
        },
        {
          "duration": 0.08522725000011633,
          "durationTicks": 30,
          "midi": 69,
          "name": "A4",
          "ticks": 445560,
          "time": 1368.6728556333333,
          "velocity": 0.7874015748031497
        },
        {
          "duration": 0.08522724999988895,
          "durationTicks": 30,
          "midi": 71,
          "name": "B4",
          "ticks": 445590,
          "time": 1368.7580828833334,
          "velocity": 0.7874015748031497
        },
        {
          "duration": 0.08522725000011633,
          "durationTicks": 30,
          "midi": 60,
          "name": "C4",
          "ticks": 445620,
          "time": 1368.8433101333333,
          "velocity": 0.7874015748031497
        },
        {
          "duration": 0.17045450000000528,
          "durationTicks": 60,
          "midi": 71,
          "name": "B4",
          "ticks": 445740,
          "time": 1369.1842191333333,
          "velocity": 0.7874015748031497
        },
        {
          "duration": 0.17045450000000528,
          "durationTicks": 60,
          "midi": 74,
          "name": "D5",
          "ticks": 445740,
          "time": 1369.1842191333333,
          "velocity": 0.7874015748031497
        },
        {
          "duration": 0.17045450000000528,
          "durationTicks": 60,
          "midi": 69,
          "name": "A4",
          "ticks": 445800,
          "time": 1369.3546736333333,
          "velocity": 0.7874015748031497
        },
        {
          "duration": 0.17045450000000528,
          "durationTicks": 60,
          "midi": 72,
          "name": "C5",
          "ticks": 445800,
          "time": 1369.3546736333333,
          "velocity": 0.7874015748031497
        },
        {
          "duration": 0.17045450000000528,
          "durationTicks": 60,
          "midi": 71,
          "name": "B4",
          "ticks": 445860,
          "time": 1369.5251281333333,
          "velocity": 0.7874015748031497
        },
        {
          "duration": 0.17045450000000528,
          "durationTicks": 60,
          "midi": 74,
          "name": "D5",
          "ticks": 445860,
          "time": 1369.5251281333333,
          "velocity": 0.7874015748031497
        },
        {
          "duration": 0.17045450000000528,
          "durationTicks": 60,
          "midi": 67,
          "name": "G4",
          "ticks": 445920,
          "time": 1369.6955826333333,
          "velocity": 0.7874015748031497
        },
        {
          "duration": 0.17045450000000528,
          "durationTicks": 60,
          "midi": 71,
          "name": "B4",
          "ticks": 445920,
          "time": 1369.6955826333333,
          "velocity": 0.7874015748031497
        },
        {
          "duration": 0.17045450000000528,
          "durationTicks": 60,
          "midi": 59,
          "name": "B3",
          "ticks": 445980,
          "time": 1369.8660371333333,
          "velocity": 0.7874015748031497
        },
        {
          "duration": 0.17045450000000528,
          "durationTicks": 60,
          "midi": 67,
          "name": "G4",
          "ticks": 445980,
          "time": 1369.8660371333333,
          "velocity": 0.7874015748031497
        },
        {
          "duration": 0.17045450000000528,
          "durationTicks": 60,
          "midi": 57,
          "name": "A3",
          "ticks": 446040,
          "time": 1370.0364916333333,
          "velocity": 0.7874015748031497
        },
        {
          "duration": 0.17045450000000528,
          "durationTicks": 60,
          "midi": 66,
          "name": "F#4",
          "ticks": 446040,
          "time": 1370.0364916333333,
          "velocity": 0.7874015748031497
        },
        {
          "duration": 0.17045450000000528,
          "durationTicks": 60,
          "midi": 59,
          "name": "B3",
          "ticks": 446100,
          "time": 1370.2069461333333,
          "velocity": 0.7874015748031497
        },
        {
          "duration": 0.17045450000000528,
          "durationTicks": 60,
          "midi": 67,
          "name": "G4",
          "ticks": 446100,
          "time": 1370.2069461333333,
          "velocity": 0.7874015748031497
        },
        {
          "duration": 0.6818180000000211,
          "durationTicks": 240,
          "midi": 55,
          "name": "G3",
          "ticks": 446160,
          "time": 1370.3774006333333,
          "velocity": 0.7874015748031497
        },
        {
          "duration": 0.6818180000000211,
          "durationTicks": 240,
          "midi": 62,
          "name": "D4",
          "ticks": 446160,
          "time": 1370.3774006333333,
          "velocity": 0.7874015748031497
        },
        {
          "duration": 1.25,
          "durationTicks": 480,
          "midi": 55,
          "name": "G3",
          "ticks": 466320,
          "time": 1415.9632807333335,
          "velocity": 0.7874015748031497
        },
        {
          "duration": 1.25,
          "durationTicks": 480,
          "midi": 54,
          "name": "F#3",
          "ticks": 466800,
          "time": 1417.2132807333335,
          "velocity": 0.7874015748031497
        },
        {
          "duration": 1.25,
          "durationTicks": 480,
          "midi": 52,
          "name": "E3",
          "ticks": 467280,
          "time": 1418.4632807333335,
          "velocity": 0.7874015748031497
        },
        {
          "duration": 0.9375,
          "durationTicks": 360,
          "midi": 50,
          "name": "D3",
          "ticks": 467760,
          "time": 1419.7132807333335,
          "velocity": 0.7874015748031497
        },
        {
          "duration": 0.3125,
          "durationTicks": 120,
          "midi": 48,
          "name": "C3",
          "ticks": 468120,
          "time": 1420.6507807333335,
          "velocity": 0.7874015748031497
        },
        {
          "duration": 1.25,
          "durationTicks": 480,
          "midi": 47,
          "name": "B2",
          "ticks": 468240,
          "time": 1420.9632807333335,
          "velocity": 0.7874015748031497
        },
        {
          "duration": 1.25,
          "durationTicks": 480,
          "midi": 48,
          "name": "C3",
          "ticks": 468720,
          "time": 1422.2132807333335,
          "velocity": 0.7874015748031497
        },
        {
          "duration": 1.25,
          "durationTicks": 480,
          "midi": 50,
          "name": "D3",
          "ticks": 469200,
          "time": 1423.4632807333335,
          "velocity": 0.7874015748031497
        },
        {
          "duration": 0.9375,
          "durationTicks": 360,
          "midi": 43,
          "name": "G2",
          "ticks": 469680,
          "time": 1424.7132807333335,
          "velocity": 0.7874015748031497
        },
        {
          "duration": 0.15625,
          "durationTicks": 60,
          "midi": 47,
          "name": "B2",
          "ticks": 470040,
          "time": 1425.6507807333335,
          "velocity": 0.7874015748031497
        },
        {
          "duration": 0.15625,
          "durationTicks": 60,
          "midi": 45,
          "name": "A2",
          "ticks": 470100,
          "time": 1425.8070307333335,
          "velocity": 0.7874015748031497
        },
        {
          "duration": 0.3125,
          "durationTicks": 120,
          "midi": 43,
          "name": "G2",
          "ticks": 470160,
          "time": 1425.9632807333335,
          "velocity": 0.7874015748031497
        },
        {
          "duration": 0.15625,
          "durationTicks": 60,
          "midi": 42,
          "name": "F#2",
          "ticks": 470280,
          "time": 1426.2757807333335,
          "velocity": 0.7874015748031497
        },
        {
          "duration": 0.15625,
          "durationTicks": 60,
          "midi": 43,
          "name": "G2",
          "ticks": 470340,
          "time": 1426.4320307333335,
          "velocity": 0.7874015748031497
        },
        {
          "duration": 0.3125,
          "durationTicks": 120,
          "midi": 40,
          "name": "E2",
          "ticks": 470400,
          "time": 1426.5882807333335,
          "velocity": 0.7874015748031497
        },
        {
          "duration": 0.15625,
          "durationTicks": 60,
          "midi": 38,
          "name": "D2",
          "ticks": 470520,
          "time": 1426.9007807333335,
          "velocity": 0.7874015748031497
        },
        {
          "duration": 0.15625,
          "durationTicks": 60,
          "midi": 40,
          "name": "E2",
          "ticks": 470580,
          "time": 1427.0570307333335,
          "velocity": 0.7874015748031497
        },
        {
          "duration": 0.9375,
          "durationTicks": 360,
          "midi": 42,
          "name": "F#2",
          "ticks": 470640,
          "time": 1427.2132807333335,
          "velocity": 0.7874015748031497
        },
        {
          "duration": 0.3125,
          "durationTicks": 120,
          "midi": 47,
          "name": "B2",
          "ticks": 471000,
          "time": 1428.1507807333335,
          "velocity": 0.7874015748031497
        },
        {
          "duration": 0.9375,
          "durationTicks": 360,
          "midi": 40,
          "name": "E2",
          "ticks": 471120,
          "time": 1428.4632807333335,
          "velocity": 0.7874015748031497
        },
        {
          "duration": 0.15625,
          "durationTicks": 60,
          "midi": 42,
          "name": "F#2",
          "ticks": 471480,
          "time": 1429.4007807333335,
          "velocity": 0.7874015748031497
        },
        {
          "duration": 0.15625,
          "durationTicks": 60,
          "midi": 43,
          "name": "G2",
          "ticks": 471540,
          "time": 1429.5570307333335,
          "velocity": 0.7874015748031497
        },
        {
          "duration": 0.78125,
          "durationTicks": 300,
          "midi": 45,
          "name": "A2",
          "ticks": 471600,
          "time": 1429.7132807333335,
          "velocity": 0.7874015748031497
        },
        {
          "duration": 0.15625,
          "durationTicks": 60,
          "midi": 55,
          "name": "G3",
          "ticks": 471900,
          "time": 1430.4945307333335,
          "velocity": 0.7874015748031497
        },
        {
          "duration": 0.15625,
          "durationTicks": 60,
          "midi": 54,
          "name": "F#3",
          "ticks": 471960,
          "time": 1430.6507807333335,
          "velocity": 0.7874015748031497
        },
        {
          "duration": 0.15625,
          "durationTicks": 60,
          "midi": 52,
          "name": "E3",
          "ticks": 472020,
          "time": 1430.8070307333335,
          "velocity": 0.7874015748031497
        },
        {
          "duration": 0.625,
          "durationTicks": 240,
          "midi": 54,
          "name": "F#3",
          "ticks": 472080,
          "time": 1430.9632807333335,
          "velocity": 0.7874015748031497
        },
        {
          "duration": 0.625,
          "durationTicks": 240,
          "midi": 50,
          "name": "D3",
          "ticks": 472320,
          "time": 1431.5882807333335,
          "velocity": 0.7874015748031497
        },
        {
          "duration": 0.625,
          "durationTicks": 240,
          "midi": 55,
          "name": "G3",
          "ticks": 472560,
          "time": 1432.2132807333335,
          "velocity": 0.7874015748031497
        },
        {
          "duration": 0.625,
          "durationTicks": 240,
          "midi": 43,
          "name": "G2",
          "ticks": 472800,
          "time": 1432.8382807333335,
          "velocity": 0.7874015748031497
        },
        {
          "duration": 1.25,
          "durationTicks": 480,
          "midi": 45,
          "name": "A2",
          "ticks": 473040,
          "time": 1433.4632807333335,
          "velocity": 0.7874015748031497
        },
        {
          "duration": 0.3125,
          "durationTicks": 120,
          "midi": 38,
          "name": "D2",
          "ticks": 473520,
          "time": 1434.7132807333335,
          "velocity": 0.7874015748031497
        },
        {
          "duration": 0.3125,
          "durationTicks": 120,
          "midi": 50,
          "name": "D3",
          "ticks": 473520,
          "time": 1434.7132807333335,
          "velocity": 0.7874015748031497
        },
        {
          "duration": 0.3125,
          "durationTicks": 120,
          "midi": 33,
          "name": "A1",
          "ticks": 473640,
          "time": 1435.0257807333335,
          "velocity": 0.7874015748031497
        },
        {
          "duration": 0.3125,
          "durationTicks": 120,
          "midi": 45,
          "name": "A2",
          "ticks": 473640,
          "time": 1435.0257807333335,
          "velocity": 0.7874015748031497
        },
        {
          "duration": 0.3125,
          "durationTicks": 120,
          "midi": 38,
          "name": "D2",
          "ticks": 473760,
          "time": 1435.3382807333335,
          "velocity": 0.7874015748031497
        },
        {
          "duration": 0.3125,
          "durationTicks": 120,
          "midi": 50,
          "name": "D3",
          "ticks": 473760,
          "time": 1435.3382807333335,
          "velocity": 0.7874015748031497
        },
        {
          "duration": 0.625,
          "durationTicks": 240,
          "midi": 62,
          "name": "D4",
          "ticks": 474000,
          "time": 1435.9632807333335,
          "velocity": 0.7874015748031497
        },
        {
          "duration": 0.625,
          "durationTicks": 240,
          "midi": 60,
          "name": "C4",
          "ticks": 474240,
          "time": 1436.5882807333335,
          "velocity": 0.7874015748031497
        },
        {
          "duration": 0.625,
          "durationTicks": 240,
          "midi": 59,
          "name": "B3",
          "ticks": 474480,
          "time": 1437.2132807333335,
          "velocity": 0.7874015748031497
        },
        {
          "duration": 0.625,
          "durationTicks": 240,
          "midi": 55,
          "name": "G3",
          "ticks": 474720,
          "time": 1437.8382807333335,
          "velocity": 0.7874015748031497
        },
        {
          "duration": 0.3125,
          "durationTicks": 120,
          "midi": 60,
          "name": "C4",
          "ticks": 474960,
          "time": 1438.4632807333335,
          "velocity": 0.7874015748031497
        },
        {
          "duration": 0.3125,
          "durationTicks": 120,
          "midi": 59,
          "name": "B3",
          "ticks": 475080,
          "time": 1438.7757807333335,
          "velocity": 0.7874015748031497
        },
        {
          "duration": 0.3125,
          "durationTicks": 120,
          "midi": 60,
          "name": "C4",
          "ticks": 475200,
          "time": 1439.0882807333335,
          "velocity": 0.7874015748031497
        },
        {
          "duration": 0.3125,
          "durationTicks": 120,
          "midi": 57,
          "name": "A3",
          "ticks": 475320,
          "time": 1439.4007807333335,
          "velocity": 0.7874015748031497
        },
        {
          "duration": 0.9375,
          "durationTicks": 360,
          "midi": 59,
          "name": "B3",
          "ticks": 475440,
          "time": 1439.7132807333335,
          "velocity": 0.7874015748031497
        },
        {
          "duration": 0.3125,
          "durationTicks": 120,
          "midi": 57,
          "name": "A3",
          "ticks": 475800,
          "time": 1440.6507807333335,
          "velocity": 0.7874015748031497
        },
        {
          "duration": 0.3125,
          "durationTicks": 120,
          "midi": 55,
          "name": "G3",
          "ticks": 475920,
          "time": 1440.9632807333335,
          "velocity": 0.7874015748031497
        },
        {
          "duration": 0.3125,
          "durationTicks": 120,
          "midi": 64,
          "name": "E4",
          "ticks": 476040,
          "time": 1441.2757807333335,
          "velocity": 0.7874015748031497
        },
        {
          "duration": 0.3125,
          "durationTicks": 120,
          "midi": 55,
          "name": "G3",
          "ticks": 476160,
          "time": 1441.5882807333335,
          "velocity": 0.7874015748031497
        },
        {
          "duration": 0.3125,
          "durationTicks": 120,
          "midi": 64,
          "name": "E4",
          "ticks": 476280,
          "time": 1441.9007807333335,
          "velocity": 0.7874015748031497
        },
        {
          "duration": 0.9375,
          "durationTicks": 360,
          "midi": 57,
          "name": "A3",
          "ticks": 476400,
          "time": 1442.2132807333335,
          "velocity": 0.7874015748031497
        },
        {
          "duration": 0.3125,
          "durationTicks": 120,
          "midi": 58,
          "name": "A#3",
          "ticks": 476760,
          "time": 1443.1507807333335,
          "velocity": 0.7874015748031497
        },
        {
          "duration": 0.625,
          "durationTicks": 240,
          "midi": 59,
          "name": "B3",
          "ticks": 476880,
          "time": 1443.4632807333335,
          "velocity": 0.7874015748031497
        },
        {
          "duration": 0.625,
          "durationTicks": 240,
          "midi": 47,
          "name": "B2",
          "ticks": 477120,
          "time": 1444.0882807333335,
          "velocity": 0.7874015748031497
        },
        {
          "duration": 0.9375,
          "durationTicks": 360,
          "midi": 52,
          "name": "E3",
          "ticks": 477360,
          "time": 1444.7132807333335,
          "velocity": 0.7874015748031497
        },
        {
          "duration": 0.3125,
          "durationTicks": 120,
          "midi": 50,
          "name": "D3",
          "ticks": 477720,
          "time": 1445.6507807333335,
          "velocity": 0.7874015748031497
        },
        {
          "duration": 0.625,
          "durationTicks": 240,
          "midi": 48,
          "name": "C3",
          "ticks": 477840,
          "time": 1445.9632807333335,
          "velocity": 0.7874015748031497
        },
        {
          "duration": 0.625,
          "durationTicks": 240,
          "midi": 60,
          "name": "C4",
          "ticks": 478080,
          "time": 1446.5882807333335,
          "velocity": 0.7874015748031497
        },
        {
          "duration": 0.9375,
          "durationTicks": 360,
          "midi": 59,
          "name": "B3",
          "ticks": 478320,
          "time": 1447.2132807333335,
          "velocity": 0.7874015748031497
        },
        {
          "duration": 0.15625,
          "durationTicks": 60,
          "midi": 60,
          "name": "C4",
          "ticks": 478680,
          "time": 1448.1507807333335,
          "velocity": 0.7874015748031497
        },
        {
          "duration": 0.15625,
          "durationTicks": 60,
          "midi": 59,
          "name": "B3",
          "ticks": 478740,
          "time": 1448.3070307333335,
          "velocity": 0.7874015748031497
        },
        {
          "duration": 0.9375,
          "durationTicks": 360,
          "midi": 57,
          "name": "A3",
          "ticks": 478800,
          "time": 1448.4632807333335,
          "velocity": 0.7874015748031497
        },
        {
          "duration": 0.15625,
          "durationTicks": 60,
          "midi": 59,
          "name": "B3",
          "ticks": 479160,
          "time": 1449.4007807333335,
          "velocity": 0.7874015748031497
        },
        {
          "duration": 0.15625,
          "durationTicks": 60,
          "midi": 60,
          "name": "C4",
          "ticks": 479220,
          "time": 1449.5570307333335,
          "velocity": 0.7874015748031497
        },
        {
          "duration": 0.9375,
          "durationTicks": 360,
          "midi": 62,
          "name": "D4",
          "ticks": 479280,
          "time": 1449.7132807333335,
          "velocity": 0.7874015748031497
        },
        {
          "duration": 0.15625,
          "durationTicks": 60,
          "midi": 60,
          "name": "C4",
          "ticks": 479640,
          "time": 1450.6507807333335,
          "velocity": 0.7874015748031497
        },
        {
          "duration": 0.15625,
          "durationTicks": 60,
          "midi": 62,
          "name": "D4",
          "ticks": 479700,
          "time": 1450.8070307333335,
          "velocity": 0.7874015748031497
        },
        {
          "duration": 0.3125,
          "durationTicks": 120,
          "midi": 55,
          "name": "G3",
          "ticks": 479760,
          "time": 1450.9632807333335,
          "velocity": 0.7874015748031497
        },
        {
          "duration": 0.3125,
          "durationTicks": 120,
          "midi": 57,
          "name": "A3",
          "ticks": 479880,
          "time": 1451.2757807333335,
          "velocity": 0.7874015748031497
        },
        {
          "duration": 0.3125,
          "durationTicks": 120,
          "midi": 59,
          "name": "B3",
          "ticks": 480000,
          "time": 1451.5882807333335,
          "velocity": 0.7874015748031497
        },
        {
          "duration": 0.3125,
          "durationTicks": 120,
          "midi": 55,
          "name": "G3",
          "ticks": 480120,
          "time": 1451.9007807333335,
          "velocity": 0.7874015748031497
        },
        {
          "duration": 0.9375,
          "durationTicks": 360,
          "midi": 60,
          "name": "C4",
          "ticks": 480240,
          "time": 1452.2132807333335,
          "velocity": 0.7874015748031497
        },
        {
          "duration": 0.3125,
          "durationTicks": 120,
          "midi": 61,
          "name": "C#4",
          "ticks": 480600,
          "time": 1453.1507807333335,
          "velocity": 0.7874015748031497
        },
        {
          "duration": 0.625,
          "durationTicks": 240,
          "midi": 62,
          "name": "D4",
          "ticks": 480720,
          "time": 1453.4632807333335,
          "velocity": 0.7874015748031497
        },
        {
          "duration": 0.625,
          "durationTicks": 240,
          "midi": 50,
          "name": "D3",
          "ticks": 480960,
          "time": 1454.0882807333335,
          "velocity": 0.7874015748031497
        },
        {
          "duration": 0.625,
          "durationTicks": 240,
          "midi": 55,
          "name": "G3",
          "ticks": 481200,
          "time": 1454.7132807333335,
          "velocity": 0.7874015748031497
        },
        {
          "duration": 0.3125,
          "durationTicks": 120,
          "midi": 43,
          "name": "G2",
          "ticks": 481440,
          "time": 1455.3382807333335,
          "velocity": 0.7874015748031497
        },
        {
          "duration": 0.3125,
          "durationTicks": 120,
          "midi": 38,
          "name": "D2",
          "ticks": 481560,
          "time": 1455.6507807333335,
          "velocity": 0.7874015748031497
        },
        {
          "duration": 0.3125,
          "durationTicks": 120,
          "midi": 50,
          "name": "D3",
          "ticks": 481560,
          "time": 1455.6507807333335,
          "velocity": 0.7874015748031497
        },
        {
          "duration": 1.25,
          "durationTicks": 240,
          "midi": 35,
          "name": "B1",
          "ticks": 485040,
          "time": 1472.2028640666667,
          "velocity": 0.7874015748031497
        },
        {
          "duration": 1.25,
          "durationTicks": 240,
          "midi": 23,
          "name": "B0",
          "ticks": 485040,
          "time": 1472.2028640666667,
          "velocity": 0.7874015748031497
        },
        {
          "duration": 1.25,
          "durationTicks": 240,
          "midi": 38,
          "name": "D2",
          "ticks": 485280,
          "time": 1473.4528640666667,
          "velocity": 0.7874015748031497
        },
        {
          "duration": 1.25,
          "durationTicks": 240,
          "midi": 26,
          "name": "D1",
          "ticks": 485280,
          "time": 1473.4528640666667,
          "velocity": 0.7874015748031497
        },
        {
          "duration": 1.25,
          "durationTicks": 240,
          "midi": 43,
          "name": "G2",
          "ticks": 485520,
          "time": 1474.7028640666667,
          "velocity": 0.7874015748031497
        },
        {
          "duration": 1.25,
          "durationTicks": 240,
          "midi": 31,
          "name": "G1",
          "ticks": 485520,
          "time": 1474.7028640666667,
          "velocity": 0.7874015748031497
        },
        {
          "duration": 1.25,
          "durationTicks": 240,
          "midi": 36,
          "name": "C2",
          "ticks": 485760,
          "time": 1475.9528640666667,
          "velocity": 0.7874015748031497
        },
        {
          "duration": 1.25,
          "durationTicks": 240,
          "midi": 24,
          "name": "C1",
          "ticks": 485760,
          "time": 1475.9528640666667,
          "velocity": 0.7874015748031497
        },
        {
          "duration": 1.25,
          "durationTicks": 240,
          "midi": 40,
          "name": "E2",
          "ticks": 486000,
          "time": 1477.2028640666667,
          "velocity": 0.7874015748031497
        },
        {
          "duration": 1.25,
          "durationTicks": 240,
          "midi": 28,
          "name": "E1",
          "ticks": 486000,
          "time": 1477.2028640666667,
          "velocity": 0.7874015748031497
        },
        {
          "duration": 0.625,
          "durationTicks": 120,
          "midi": 45,
          "name": "A2",
          "ticks": 486240,
          "time": 1478.4528640666667,
          "velocity": 0.7874015748031497
        },
        {
          "duration": 0.625,
          "durationTicks": 120,
          "midi": 33,
          "name": "A1",
          "ticks": 486240,
          "time": 1478.4528640666667,
          "velocity": 0.7874015748031497
        },
        {
          "duration": 0.625,
          "durationTicks": 120,
          "midi": 38,
          "name": "D2",
          "ticks": 486360,
          "time": 1479.0778640666667,
          "velocity": 0.7874015748031497
        },
        {
          "duration": 0.625,
          "durationTicks": 120,
          "midi": 26,
          "name": "D1",
          "ticks": 486360,
          "time": 1479.0778640666667,
          "velocity": 0.7874015748031497
        },
        {
          "duration": 0.625,
          "durationTicks": 120,
          "midi": 40,
          "name": "E2",
          "ticks": 486480,
          "time": 1479.7028640666667,
          "velocity": 0.7874015748031497
        },
        {
          "duration": 0.625,
          "durationTicks": 120,
          "midi": 28,
          "name": "E1",
          "ticks": 486480,
          "time": 1479.7028640666667,
          "velocity": 0.7874015748031497
        },
        {
          "duration": 0.625,
          "durationTicks": 120,
          "midi": 36,
          "name": "C2",
          "ticks": 486600,
          "time": 1480.3278640666667,
          "velocity": 0.7874015748031497
        },
        {
          "duration": 0.625,
          "durationTicks": 120,
          "midi": 24,
          "name": "C1",
          "ticks": 486600,
          "time": 1480.3278640666667,
          "velocity": 0.7874015748031497
        },
        {
          "duration": 2.5,
          "durationTicks": 480,
          "midi": 38,
          "name": "D2",
          "ticks": 486720,
          "time": 1480.9528640666667,
          "velocity": 0.7874015748031497
        },
        {
          "duration": 2.5,
          "durationTicks": 480,
          "midi": 26,
          "name": "D1",
          "ticks": 486720,
          "time": 1480.9528640666667,
          "velocity": 0.7874015748031497
        },
        {
          "duration": 1.875,
          "durationTicks": 360,
          "midi": 43,
          "name": "G2",
          "ticks": 487200,
          "time": 1483.4528640666667,
          "velocity": 0.7874015748031497
        },
        {
          "duration": 1.875,
          "durationTicks": 360,
          "midi": 31,
          "name": "G1",
          "ticks": 487200,
          "time": 1483.4528640666667,
          "velocity": 0.7874015748031497
        },
        {
          "duration": 0.625,
          "durationTicks": 120,
          "midi": 38,
          "name": "D2",
          "ticks": 487560,
          "time": 1485.3278640666667,
          "velocity": 0.7874015748031497
        },
        {
          "duration": 0.625,
          "durationTicks": 120,
          "midi": 26,
          "name": "D1",
          "ticks": 487560,
          "time": 1485.3278640666667,
          "velocity": 0.7874015748031497
        },
        {
          "duration": 0.9375,
          "durationTicks": 180,
          "midi": 40,
          "name": "E2",
          "ticks": 487680,
          "time": 1485.9528640666667,
          "velocity": 0.7874015748031497
        },
        {
          "duration": 0.9375,
          "durationTicks": 180,
          "midi": 28,
          "name": "E1",
          "ticks": 487680,
          "time": 1485.9528640666667,
          "velocity": 0.7874015748031497
        },
        {
          "duration": 0.3125,
          "durationTicks": 60,
          "midi": 42,
          "name": "F#2",
          "ticks": 487860,
          "time": 1486.8903640666667,
          "velocity": 0.7874015748031497
        },
        {
          "duration": 0.3125,
          "durationTicks": 60,
          "midi": 30,
          "name": "F#1",
          "ticks": 487860,
          "time": 1486.8903640666667,
          "velocity": 0.7874015748031497
        },
        {
          "duration": 1.25,
          "durationTicks": 240,
          "midi": 31,
          "name": "G1",
          "ticks": 487920,
          "time": 1487.2028640666667,
          "velocity": 0.7874015748031497
        },
        {
          "duration": 1.25,
          "durationTicks": 240,
          "midi": 43,
          "name": "G2",
          "ticks": 487920,
          "time": 1487.2028640666667,
          "velocity": 0.7874015748031497
        },
        {
          "duration": 1.25,
          "durationTicks": 240,
          "midi": 35,
          "name": "B1",
          "ticks": 488160,
          "time": 1488.4528640666667,
          "velocity": 0.7874015748031497
        },
        {
          "duration": 1.25,
          "durationTicks": 240,
          "midi": 47,
          "name": "B2",
          "ticks": 488160,
          "time": 1488.4528640666667,
          "velocity": 0.7874015748031497
        },
        {
          "duration": 1.25,
          "durationTicks": 240,
          "midi": 40,
          "name": "E2",
          "ticks": 488400,
          "time": 1489.7028640666667,
          "velocity": 0.7874015748031497
        },
        {
          "duration": 1.25,
          "durationTicks": 240,
          "midi": 52,
          "name": "E3",
          "ticks": 488400,
          "time": 1489.7028640666667,
          "velocity": 0.7874015748031497
        },
        {
          "duration": 1.25,
          "durationTicks": 240,
          "midi": 31,
          "name": "G1",
          "ticks": 488640,
          "time": 1490.9528640666667,
          "velocity": 0.7874015748031497
        },
        {
          "duration": 1.25,
          "durationTicks": 240,
          "midi": 43,
          "name": "G2",
          "ticks": 488640,
          "time": 1490.9528640666667,
          "velocity": 0.7874015748031497
        },
        {
          "duration": 0.625,
          "durationTicks": 120,
          "midi": 30,
          "name": "F#1",
          "ticks": 488880,
          "time": 1492.2028640666667,
          "velocity": 0.7874015748031497
        },
        {
          "duration": 0.625,
          "durationTicks": 120,
          "midi": 42,
          "name": "F#2",
          "ticks": 488880,
          "time": 1492.2028640666667,
          "velocity": 0.7874015748031497
        },
        {
          "duration": 0.625,
          "durationTicks": 120,
          "midi": 28,
          "name": "E1",
          "ticks": 489000,
          "time": 1492.8278640666667,
          "velocity": 0.7874015748031497
        },
        {
          "duration": 0.625,
          "durationTicks": 120,
          "midi": 40,
          "name": "E2",
          "ticks": 489000,
          "time": 1492.8278640666667,
          "velocity": 0.7874015748031497
        },
        {
          "duration": 0.625,
          "durationTicks": 120,
          "midi": 30,
          "name": "F#1",
          "ticks": 489120,
          "time": 1493.4528640666667,
          "velocity": 0.7874015748031497
        },
        {
          "duration": 0.625,
          "durationTicks": 120,
          "midi": 42,
          "name": "F#2",
          "ticks": 489120,
          "time": 1493.4528640666667,
          "velocity": 0.7874015748031497
        },
        {
          "duration": 0.625,
          "durationTicks": 120,
          "midi": 35,
          "name": "B1",
          "ticks": 489240,
          "time": 1494.0778640666667,
          "velocity": 0.7874015748031497
        },
        {
          "duration": 0.625,
          "durationTicks": 120,
          "midi": 47,
          "name": "B2",
          "ticks": 489240,
          "time": 1494.0778640666667,
          "velocity": 0.7874015748031497
        },
        {
          "duration": 0.625,
          "durationTicks": 120,
          "midi": 28,
          "name": "E1",
          "ticks": 489360,
          "time": 1494.7028640666667,
          "velocity": 0.7874015748031497
        },
        {
          "duration": 0.625,
          "durationTicks": 120,
          "midi": 40,
          "name": "E2",
          "ticks": 489360,
          "time": 1494.7028640666667,
          "velocity": 0.7874015748031497
        },
        {
          "duration": 0.625,
          "durationTicks": 120,
          "midi": 35,
          "name": "B1",
          "ticks": 489480,
          "time": 1495.3278640666667,
          "velocity": 0.7874015748031497
        },
        {
          "duration": 0.625,
          "durationTicks": 120,
          "midi": 47,
          "name": "B2",
          "ticks": 489480,
          "time": 1495.3278640666667,
          "velocity": 0.7874015748031497
        },
        {
          "duration": 0.625,
          "durationTicks": 120,
          "midi": 40,
          "name": "E2",
          "ticks": 489600,
          "time": 1495.9528640666667,
          "velocity": 0.7874015748031497
        },
        {
          "duration": 0.625,
          "durationTicks": 120,
          "midi": 52,
          "name": "E3",
          "ticks": 489600,
          "time": 1495.9528640666667,
          "velocity": 0.7874015748031497
        },
        {
          "duration": 0.625,
          "durationTicks": 120,
          "midi": 28,
          "name": "E1",
          "ticks": 489720,
          "time": 1496.5778640666667,
          "velocity": 0.7874015748031497
        },
        {
          "duration": 0.625,
          "durationTicks": 120,
          "midi": 40,
          "name": "E2",
          "ticks": 489720,
          "time": 1496.5778640666667,
          "velocity": 0.7874015748031497
        },
        {
          "duration": 0.625,
          "durationTicks": 120,
          "midi": 30,
          "name": "F#1",
          "ticks": 489840,
          "time": 1497.2028640666667,
          "velocity": 0.7874015748031497
        },
        {
          "duration": 0.625,
          "durationTicks": 120,
          "midi": 42,
          "name": "F#2",
          "ticks": 489840,
          "time": 1497.2028640666667,
          "velocity": 0.7874015748031497
        },
        {
          "duration": 0.625,
          "durationTicks": 120,
          "midi": 31,
          "name": "G1",
          "ticks": 489960,
          "time": 1497.8278640666667,
          "velocity": 0.7874015748031497
        },
        {
          "duration": 0.625,
          "durationTicks": 120,
          "midi": 43,
          "name": "G2",
          "ticks": 489960,
          "time": 1497.8278640666667,
          "velocity": 0.7874015748031497
        },
        {
          "duration": 1.875,
          "durationTicks": 360,
          "midi": 33,
          "name": "A1",
          "ticks": 490080,
          "time": 1498.4528640666667,
          "velocity": 0.7874015748031497
        },
        {
          "duration": 1.875,
          "durationTicks": 360,
          "midi": 45,
          "name": "A2",
          "ticks": 490080,
          "time": 1498.4528640666667,
          "velocity": 0.7874015748031497
        },
        {
          "duration": 0.625,
          "durationTicks": 120,
          "midi": 35,
          "name": "B1",
          "ticks": 490440,
          "time": 1500.3278640666667,
          "velocity": 0.7874015748031497
        },
        {
          "duration": 0.625,
          "durationTicks": 120,
          "midi": 47,
          "name": "B2",
          "ticks": 490440,
          "time": 1500.3278640666667,
          "velocity": 0.7874015748031497
        },
        {
          "duration": 0.625,
          "durationTicks": 120,
          "midi": 33,
          "name": "A1",
          "ticks": 490560,
          "time": 1500.9528640666667,
          "velocity": 0.7874015748031497
        },
        {
          "duration": 0.625,
          "durationTicks": 120,
          "midi": 45,
          "name": "A2",
          "ticks": 490560,
          "time": 1500.9528640666667,
          "velocity": 0.7874015748031497
        },
        {
          "duration": 0.625,
          "durationTicks": 120,
          "midi": 31,
          "name": "G1",
          "ticks": 490680,
          "time": 1501.5778640666667,
          "velocity": 0.7874015748031497
        },
        {
          "duration": 0.625,
          "durationTicks": 120,
          "midi": 43,
          "name": "G2",
          "ticks": 490680,
          "time": 1501.5778640666667,
          "velocity": 0.7874015748031497
        },
        {
          "duration": 1.25,
          "durationTicks": 240,
          "midi": 30,
          "name": "F#1",
          "ticks": 490800,
          "time": 1502.2028640666667,
          "velocity": 0.7874015748031497
        },
        {
          "duration": 1.25,
          "durationTicks": 240,
          "midi": 42,
          "name": "F#2",
          "ticks": 490800,
          "time": 1502.2028640666667,
          "velocity": 0.7874015748031497
        },
        {
          "duration": 1.25,
          "durationTicks": 240,
          "midi": 33,
          "name": "A1",
          "ticks": 491040,
          "time": 1503.4528640666667,
          "velocity": 0.7874015748031497
        },
        {
          "duration": 1.25,
          "durationTicks": 240,
          "midi": 45,
          "name": "A2",
          "ticks": 491040,
          "time": 1503.4528640666667,
          "velocity": 0.7874015748031497
        },
        {
          "duration": 1.25,
          "durationTicks": 240,
          "midi": 38,
          "name": "D2",
          "ticks": 491280,
          "time": 1504.7028640666667,
          "velocity": 0.7874015748031497
        },
        {
          "duration": 1.25,
          "durationTicks": 240,
          "midi": 50,
          "name": "D3",
          "ticks": 491280,
          "time": 1504.7028640666667,
          "velocity": 0.7874015748031497
        },
        {
          "duration": 1.25,
          "durationTicks": 240,
          "midi": 31,
          "name": "G1",
          "ticks": 491520,
          "time": 1505.9528640666667,
          "velocity": 0.7874015748031497
        },
        {
          "duration": 1.25,
          "durationTicks": 240,
          "midi": 43,
          "name": "G2",
          "ticks": 491520,
          "time": 1505.9528640666667,
          "velocity": 0.7874015748031497
        },
        {
          "duration": 1.25,
          "durationTicks": 240,
          "midi": 35,
          "name": "B1",
          "ticks": 491760,
          "time": 1507.2028640666667,
          "velocity": 0.7874015748031497
        },
        {
          "duration": 1.25,
          "durationTicks": 240,
          "midi": 47,
          "name": "B2",
          "ticks": 491760,
          "time": 1507.2028640666667,
          "velocity": 0.7874015748031497
        },
        {
          "duration": 1.25,
          "durationTicks": 240,
          "midi": 40,
          "name": "E2",
          "ticks": 492000,
          "time": 1508.4528640666667,
          "velocity": 0.7874015748031497
        },
        {
          "duration": 1.25,
          "durationTicks": 240,
          "midi": 52,
          "name": "E3",
          "ticks": 492000,
          "time": 1508.4528640666667,
          "velocity": 0.7874015748031497
        },
        {
          "duration": 3.75,
          "durationTicks": 720,
          "midi": 33,
          "name": "A1",
          "ticks": 492240,
          "time": 1509.7028640666667,
          "velocity": 0.7874015748031497
        },
        {
          "duration": 3.75,
          "durationTicks": 720,
          "midi": 45,
          "name": "A2",
          "ticks": 492240,
          "time": 1509.7028640666667,
          "velocity": 0.7874015748031497
        },
        {
          "duration": 1.875,
          "durationTicks": 360,
          "midi": 30,
          "name": "F#1",
          "ticks": 492960,
          "time": 1513.4528640666667,
          "velocity": 0.7874015748031497
        },
        {
          "duration": 1.875,
          "durationTicks": 360,
          "midi": 42,
          "name": "F#2",
          "ticks": 492960,
          "time": 1513.4528640666667,
          "velocity": 0.7874015748031497
        },
        {
          "duration": 0.625,
          "durationTicks": 120,
          "midi": 33,
          "name": "A1",
          "ticks": 493320,
          "time": 1515.3278640666667,
          "velocity": 0.7874015748031497
        },
        {
          "duration": 0.625,
          "durationTicks": 120,
          "midi": 45,
          "name": "A2",
          "ticks": 493320,
          "time": 1515.3278640666667,
          "velocity": 0.7874015748031497
        },
        {
          "duration": 1.25,
          "durationTicks": 240,
          "midi": 38,
          "name": "D2",
          "ticks": 493440,
          "time": 1515.9528640666667,
          "velocity": 0.7874015748031497
        },
        {
          "duration": 1.25,
          "durationTicks": 240,
          "midi": 50,
          "name": "D3",
          "ticks": 493440,
          "time": 1515.9528640666667,
          "velocity": 0.7874015748031497
        }
      ],
      "endOfTrackTicks": 493680
    }
  ]
}