{
  "header": {
    "keySignatures": [
      {
        "key": "C",
        "scale": "major",
        "ticks": 0
      }
    ],
    "meta": [],
    "name": "ONE `P­GßÖ`uáÌæ¤É­v@by@AL",
    "ppq": 96,
    "tempos": [
      {
        "bpm": 76.99997818333952,
        "ticks": 0
      },
      {
        "bpm": 77.99997660000702,
        "ticks": 19730
      },
      {
        "bpm": 76.99997818333952,
        "ticks": 19734
      },
      {
        "bpm": 75.99996960001216,
        "ticks": 19737
      },
      {
        "bpm": 75,
        "ticks": 19738
      },
      {
        "bpm": 73.99998273333736,
        "ticks": 19742
      },
      {
        "bpm": 72.99998296667064,
        "ticks": 19745
      },
      {
        "bpm": 72.00002880001152,
        "ticks": 19746
      },
      {
        "bpm": 71.00003550001774,
        "ticks": 19750
      },
      {
        "bpm": 69.99998833333528,
        "ticks": 19753
      },
      {
        "bpm": 69.00001725000432,
        "ticks": 19754
      },
      {
        "bpm": 67.99999546666697,
        "ticks": 19758
      },
      {
        "bpm": 67.00002903334591,
        "ticks": 19761
      },
      {
        "bpm": 65.99999340000066,
        "ticks": 19762
      },
      {
        "bpm": 64.99999458333379,
        "ticks": 19766
      },
      {
        "bpm": 64,
        "ticks": 19769
      },
      {
        "bpm": 62.99999685000016,
        "ticks": 19770
      },
      {
        "bpm": 61.99999586666694,
        "ticks": 19774
      },
      {
        "bpm": 60.99997255001235,
        "ticks": 19775
      },
      {
        "bpm": 60,
        "ticks": 19778
      },
      {
        "bpm": 59.00000885000133,
        "ticks": 19782
      },
      {
        "bpm": 57.999986466669824,
        "ticks": 19783
      },
      {
        "bpm": 56.99997720000912,
        "ticks": 19786
      },
      {
        "bpm": 55.99997760000896,
        "ticks": 19790
      },
      {
        "bpm": 55.00000458333371,
        "ticks": 19791
      },
      {
        "bpm": 54.00000540000054,
        "ticks": 19794
      },
      {
        "bpm": 53.000022083342536,
        "ticks": 19798
      },
      {
        "bpm": 52.000006933334255,
        "ticks": 19799
      },
      {
        "bpm": 50.99998215000625,
        "ticks": 19802
      },
      {
        "bpm": 50,
        "ticks": 19806
      },
      {
        "bpm": 48.9999918333347,
        "ticks": 19807
      },
      {
        "bpm": 48,
        "ticks": 19810
      },
      {
        "bpm": 46.99999060000188,
        "ticks": 19814
      },
      {
        "bpm": 45.99999386666749,
        "ticks": 19815
      },
      {
        "bpm": 45.000011250002814,
        "ticks": 19818
      },
      {
        "bpm": 44.000011733336464,
        "ticks": 19820
      },
      {
        "bpm": 78.9999657666815,
        "ticks": 19921
      }
    ],
    "timeSignatures": [
      {
        "ticks": 0,
        "timeSignature": [
          1,
          8
        ],
        "measures": 0
      },
      {
        "ticks": 48,
        "timeSignature": [
          4,
          4
        ],
        "measures": 0.25
      },
      {
        "ticks": 15024,
        "timeSignature": [
          2,
          4
        ],
        "measures": 39.25
      },
      {
        "ticks": 15216,
        "timeSignature": [
          4,
          4
        ],
        "measures": 40.25
      }
    ]
  },
  "tracks": [
    {
      "channel": 9,
      "controlChanges": {
        "0": [
          {
            "number": 0,
            "ticks": 0,
            "time": 0,
            "value": 0
          }
        ],
        "6": [
          {
            "number": 6,
            "ticks": 4,
            "time": 0.03246754166666666,
            "value": 0.7874015748031497
          },
          {
            "number": 6,
            "ticks": 7,
            "time": 0.05681819791666667,
            "value": 0.5669291338582677
          },
          {
            "number": 6,
            "ticks": 10,
            "time": 0.08116885416666667,
            "value": 0
          },
          {
            "number": 6,
            "ticks": 13,
            "time": 0.10551951041666666,
            "value": 0
          },
          {
            "number": 6,
            "ticks": 16,
            "time": 0.12987016666666665,
            "value": 0
          },
          {
            "number": 6,
            "ticks": 20,
            "time": 0.16233770833333333,
            "value": 0
          },
          {
            "number": 6,
            "ticks": 23,
            "time": 0.18668836458333332,
            "value": 0
          },
          {
            "number": 6,
            "ticks": 26,
            "time": 0.2110390208333333,
            "value": 0
          }
        ],
        "7": [
          {
            "number": 7,
            "ticks": 0,
            "time": 0,
            "value": 0.8346456692913385
          }
        ],
        "10": [
          {
            "number": 10,
            "ticks": 0,
            "time": 0,
            "value": 0.3700787401574803
          }
        ],
        "32": [
          {
            "number": 32,
            "ticks": 0,
            "time": 0,
            "value": 0.015748031496062992
          }
        ],
        "91": [
          {
            "number": 91,
            "ticks": 0,
            "time": 0,
            "value": 0.6692913385826772
          }
        ],
        "98": [
          {
            "number": 98,
            "ticks": 3,
            "time": 0.024350656249999998,
            "value": 0.2992125984251969
          },
          {
            "number": 98,
            "ticks": 6,
            "time": 0.048701312499999996,
            "value": 0.25984251968503935
          },
          {
            "number": 98,
            "ticks": 9,
            "time": 0.07305196875,
            "value": 0.3228346456692913
          },
          {
            "number": 98,
            "ticks": 12,
            "time": 0.09740262499999999,
            "value": 0.33858267716535434
          },
          {
            "number": 98,
            "ticks": 15,
            "time": 0.12175328124999998,
            "value": 0.3543307086614173
          },
          {
            "number": 98,
            "ticks": 19,
            "time": 0.15422082291666664,
            "value": 0.3700787401574803
          },
          {
            "number": 98,
            "ticks": 22,
            "time": 0.17857147916666666,
            "value": 0.3779527559055118
          },
          {
            "number": 98,
            "ticks": 25,
            "time": 0.20292213541666668,
            "value": 0.3937007874015748
          }
        ],
        "99": [
          {
            "number": 99,
            "ticks": 2,
            "time": 0.01623377083333333,
            "value": 0.2204724409448819
          },
          {
            "number": 99,
            "ticks": 5,
            "time": 0.04058442708333333,
            "value": 0.007874015748031496
          },
          {
            "number": 99,
            "ticks": 8,
            "time": 0.06493508333333332,
            "value": 0.2204724409448819
          },
          {
            "number": 99,
            "ticks": 11,
            "time": 0.08928573958333333,
            "value": 0.2204724409448819
          },
          {
            "number": 99,
            "ticks": 14,
            "time": 0.11363639583333333,
            "value": 0.2204724409448819
          },
          {
            "number": 99,
            "ticks": 17,
            "time": 0.13798705208333334,
            "value": 0.2204724409448819
          },
          {
            "number": 99,
            "ticks": 21,
            "time": 0.17045459375,
            "value": 0.2204724409448819
          },
          {
            "number": 99,
            "ticks": 24,
            "time": 0.19480524999999999,
            "value": 0.2204724409448819
          }
        ],
        "121": [
          {
            "number": 121,
            "ticks": 1,
            "time": 0.008116885416666665,
            "value": 0
          }
        ]
      },
      "pitchBends": [],
      "instrument": {
        "family": "drums",
        "number": 0,
        "name": "standard kit"
      },
      "name": "",
      "notes": [
        {
          "duration": 0.08928573958333308,
          "durationTicks": 11,
          "midi": 42,
          "name": "F#2",
          "ticks": 432,
          "time": 3.5064944999999996,
          "velocity": 0.6692913385826772
        },
        {
          "duration": 0.08928573958333352,
          "durationTicks": 11,
          "midi": 42,
          "name": "F#2",
          "ticks": 528,
          "time": 4.285715499999999,
          "velocity": 0.6692913385826772
        },
        {
          "duration": 0.08928573958333264,
          "durationTicks": 11,
          "midi": 42,
          "name": "F#2",
          "ticks": 624,
          "time": 5.0649365,
          "velocity": 0.6692913385826772
        },
        {
          "duration": 0.08928573958333264,
          "durationTicks": 11,
          "midi": 83,
          "name": "B5",
          "ticks": 720,
          "time": 5.8441575,
          "velocity": 0.5905511811023622
        },
        {
          "duration": 0.08928573958333264,
          "durationTicks": 11,
          "midi": 42,
          "name": "F#2",
          "ticks": 720,
          "time": 5.8441575,
          "velocity": 0.6692913385826772
        },
        {
          "duration": 0.08928573958333352,
          "durationTicks": 11,
          "midi": 42,
          "name": "F#2",
          "ticks": 816,
          "time": 6.623378499999999,
          "velocity": 0.6692913385826772
        },
        {
          "duration": 0.08928573958333441,
          "durationTicks": 11,
          "midi": 42,
          "name": "F#2",
          "ticks": 912,
          "time": 7.402599499999999,
          "velocity": 0.6692913385826772
        },
        {
          "duration": 0.08928573958333352,
          "durationTicks": 11,
          "midi": 42,
          "name": "F#2",
          "ticks": 1008,
          "time": 8.181820499999999,
          "velocity": 0.6692913385826772
        },
        {
          "duration": 0.0892857395833353,
          "durationTicks": 11,
          "midi": 83,
          "name": "B5",
          "ticks": 1104,
          "time": 8.961041499999999,
          "velocity": 0.5905511811023622
        },
        {
          "duration": 0.0892857395833353,
          "durationTicks": 11,
          "midi": 42,
          "name": "F#2",
          "ticks": 1104,
          "time": 8.961041499999999,
          "velocity": 0.6692913385826772
        },
        {
          "duration": 0.08928573958333352,
          "durationTicks": 11,
          "midi": 42,
          "name": "F#2",
          "ticks": 1200,
          "time": 9.7402625,
          "velocity": 0.6692913385826772
        },
        {
          "duration": 0.08928573958333352,
          "durationTicks": 11,
          "midi": 42,
          "name": "F#2",
          "ticks": 1296,
          "time": 10.5194835,
          "velocity": 0.6692913385826772
        },
        {
          "duration": 0.08928573958333352,
          "durationTicks": 11,
          "midi": 42,
          "name": "F#2",
          "ticks": 1392,
          "time": 11.2987045,
          "velocity": 0.6692913385826772
        },
        {
          "duration": 0.08928573958333352,
          "durationTicks": 11,
          "midi": 83,
          "name": "B5",
          "ticks": 1488,
          "time": 12.0779255,
          "velocity": 0.5905511811023622
        },
        {
          "duration": 0.08928573958333352,
          "durationTicks": 11,
          "midi": 42,
          "name": "F#2",
          "ticks": 1488,
          "time": 12.0779255,
          "velocity": 0.6692913385826772
        },
        {
          "duration": 0.08928573958333175,
          "durationTicks": 11,
          "midi": 42,
          "name": "F#2",
          "ticks": 1584,
          "time": 12.857146499999999,
          "velocity": 0.6692913385826772
        },
        {
          "duration": 0.08928573958333352,
          "durationTicks": 11,
          "midi": 42,
          "name": "F#2",
          "ticks": 1680,
          "time": 13.636367499999999,
          "velocity": 0.6692913385826772
        },
        {
          "duration": 0.08928573958333352,
          "durationTicks": 11,
          "midi": 42,
          "name": "F#2",
          "ticks": 1776,
          "time": 14.415588499999998,
          "velocity": 0.6692913385826772
        },
        {
          "duration": 0.08928573958333352,
          "durationTicks": 11,
          "midi": 45,
          "name": "A2",
          "ticks": 1872,
          "time": 15.194809499999998,
          "velocity": 0.6692913385826772
        },
        {
          "duration": 0.08928573958333352,
          "durationTicks": 11,
          "midi": 83,
          "name": "B5",
          "ticks": 1872,
          "time": 15.194809499999998,
          "velocity": 0.5905511811023622
        },
        {
          "duration": 0.08928573958333352,
          "durationTicks": 11,
          "midi": 42,
          "name": "F#2",
          "ticks": 1872,
          "time": 15.194809499999998,
          "velocity": 0.6692913385826772
        },
        {
          "duration": 0.08928573958333352,
          "durationTicks": 11,
          "midi": 41,
          "name": "F2",
          "ticks": 1920,
          "time": 15.584419999999998,
          "velocity": 0.6692913385826772
        },
        {
          "duration": 0.08928573958332997,
          "durationTicks": 11,
          "midi": 42,
          "name": "F#2",
          "ticks": 1968,
          "time": 15.9740305,
          "velocity": 0.6692913385826772
        },
        {
          "duration": 0.08928573958332997,
          "durationTicks": 11,
          "midi": 36,
          "name": "C2",
          "ticks": 1968,
          "time": 15.9740305,
          "velocity": 1
        },
        {
          "duration": 0.0892857395833353,
          "durationTicks": 11,
          "midi": 42,
          "name": "F#2",
          "ticks": 2064,
          "time": 16.753251499999998,
          "velocity": 0.6692913385826772
        },
        {
          "duration": 0.0892857395833353,
          "durationTicks": 11,
          "midi": 42,
          "name": "F#2",
          "ticks": 2160,
          "time": 17.532472499999997,
          "velocity": 0.6692913385826772
        },
        {
          "duration": 0.0892857395833353,
          "durationTicks": 11,
          "midi": 36,
          "name": "C2",
          "ticks": 2160,
          "time": 17.532472499999997,
          "velocity": 1
        },
        {
          "duration": 0.0892857395833353,
          "durationTicks": 11,
          "midi": 83,
          "name": "B5",
          "ticks": 2256,
          "time": 18.311693499999997,
          "velocity": 0.5905511811023622
        },
        {
          "duration": 0.0892857395833353,
          "durationTicks": 11,
          "midi": 42,
          "name": "F#2",
          "ticks": 2256,
          "time": 18.311693499999997,
          "velocity": 0.6692913385826772
        },
        {
          "duration": 0.08928573958333175,
          "durationTicks": 11,
          "midi": 36,
          "name": "C2",
          "ticks": 2304,
          "time": 18.701304,
          "velocity": 1
        },
        {
          "duration": 0.08928573958333175,
          "durationTicks": 11,
          "midi": 42,
          "name": "F#2",
          "ticks": 2352,
          "time": 19.0909145,
          "velocity": 0.6692913385826772
        },
        {
          "duration": 0.08928573958333175,
          "durationTicks": 11,
          "midi": 36,
          "name": "C2",
          "ticks": 2352,
          "time": 19.0909145,
          "velocity": 1
        },
        {
          "duration": 0.08928573958333175,
          "durationTicks": 11,
          "midi": 42,
          "name": "F#2",
          "ticks": 2448,
          "time": 19.8701355,
          "velocity": 0.6692913385826772
        },
        {
          "duration": 0.08928573958333175,
          "durationTicks": 11,
          "midi": 42,
          "name": "F#2",
          "ticks": 2544,
          "time": 20.6493565,
          "velocity": 0.6692913385826772
        },
        {
          "duration": 0.08928573958333175,
          "durationTicks": 11,
          "midi": 36,
          "name": "C2",
          "ticks": 2544,
          "time": 20.6493565,
          "velocity": 1
        },
        {
          "duration": 0.08928573958333175,
          "durationTicks": 11,
          "midi": 83,
          "name": "B5",
          "ticks": 2640,
          "time": 21.4285775,
          "velocity": 0.5905511811023622
        },
        {
          "duration": 0.08928573958333175,
          "durationTicks": 11,
          "midi": 42,
          "name": "F#2",
          "ticks": 2640,
          "time": 21.4285775,
          "velocity": 0.6692913385826772
        },
        {
          "duration": 0.08928573958333175,
          "durationTicks": 11,
          "midi": 42,
          "name": "F#2",
          "ticks": 2736,
          "time": 22.2077985,
          "velocity": 0.6692913385826772
        },
        {
          "duration": 0.08928573958333175,
          "durationTicks": 11,
          "midi": 36,
          "name": "C2",
          "ticks": 2736,
          "time": 22.2077985,
          "velocity": 1
        },
        {
          "duration": 0.08928573958333175,
          "durationTicks": 11,
          "midi": 42,
          "name": "F#2",
          "ticks": 2832,
          "time": 22.9870195,
          "velocity": 0.6692913385826772
        },
        {
          "duration": 0.08928573958333175,
          "durationTicks": 11,
          "midi": 42,
          "name": "F#2",
          "ticks": 2928,
          "time": 23.7662405,
          "velocity": 0.6692913385826772
        },
        {
          "duration": 0.08928573958333175,
          "durationTicks": 11,
          "midi": 36,
          "name": "C2",
          "ticks": 2928,
          "time": 23.7662405,
          "velocity": 1
        },
        {
          "duration": 0.08928573958333175,
          "durationTicks": 11,
          "midi": 83,
          "name": "B5",
          "ticks": 3024,
          "time": 24.5454615,
          "velocity": 0.5905511811023622
        },
        {
          "duration": 0.08928573958333175,
          "durationTicks": 11,
          "midi": 42,
          "name": "F#2",
          "ticks": 3024,
          "time": 24.5454615,
          "velocity": 0.6692913385826772
        },
        {
          "duration": 0.0892857395833353,
          "durationTicks": 11,
          "midi": 36,
          "name": "C2",
          "ticks": 3072,
          "time": 24.935071999999998,
          "velocity": 1
        },
        {
          "duration": 0.0892857395833353,
          "durationTicks": 11,
          "midi": 42,
          "name": "F#2",
          "ticks": 3120,
          "time": 25.324682499999998,
          "velocity": 0.6692913385826772
        },
        {
          "duration": 0.0892857395833353,
          "durationTicks": 11,
          "midi": 36,
          "name": "C2",
          "ticks": 3120,
          "time": 25.324682499999998,
          "velocity": 1
        },
        {
          "duration": 0.0892857395833353,
          "durationTicks": 11,
          "midi": 42,
          "name": "F#2",
          "ticks": 3216,
          "time": 26.103903499999998,
          "velocity": 0.6692913385826772
        },
        {
          "duration": 0.0892857395833353,
          "durationTicks": 11,
          "midi": 42,
          "name": "F#2",
          "ticks": 3312,
          "time": 26.883124499999997,
          "velocity": 0.6692913385826772
        },
        {
          "duration": 0.0892857395833353,
          "durationTicks": 11,
          "midi": 36,
          "name": "C2",
          "ticks": 3312,
          "time": 26.883124499999997,
          "velocity": 1
        },
        {
          "duration": 0.0892857395833353,
          "durationTicks": 11,
          "midi": 48,
          "name": "C3",
          "ticks": 3408,
          "time": 27.662345499999997,
          "velocity": 0.5511811023622047
        },
        {
          "duration": 0.0892857395833353,
          "durationTicks": 11,
          "midi": 83,
          "name": "B5",
          "ticks": 3408,
          "time": 27.662345499999997,
          "velocity": 0.5905511811023622
        },
        {
          "duration": 0.0892857395833353,
          "durationTicks": 11,
          "midi": 42,
          "name": "F#2",
          "ticks": 3408,
          "time": 27.662345499999997,
          "velocity": 0.6692913385826772
        },
        {
          "duration": 0.0892857395833353,
          "durationTicks": 11,
          "midi": 43,
          "name": "G2",
          "ticks": 3456,
          "time": 28.051955999999997,
          "velocity": 0.5511811023622047
        },
        {
          "duration": 0.0892857395833353,
          "durationTicks": 11,
          "midi": 42,
          "name": "F#2",
          "ticks": 3504,
          "time": 28.441566499999997,
          "velocity": 0.6692913385826772
        },
        {
          "duration": 0.0892857395833353,
          "durationTicks": 11,
          "midi": 36,
          "name": "C2",
          "ticks": 3504,
          "time": 28.441566499999997,
          "velocity": 1
        },
        {
          "duration": 0.0892857395833353,
          "durationTicks": 11,
          "midi": 42,
          "name": "F#2",
          "ticks": 3600,
          "time": 29.220787499999997,
          "velocity": 0.6692913385826772
        },
        {
          "duration": 0.0892857395833353,
          "durationTicks": 11,
          "midi": 42,
          "name": "F#2",
          "ticks": 3696,
          "time": 30.000008499999996,
          "velocity": 0.6692913385826772
        },
        {
          "duration": 0.0892857395833353,
          "durationTicks": 11,
          "midi": 36,
          "name": "C2",
          "ticks": 3696,
          "time": 30.000008499999996,
          "velocity": 1
        },
        {
          "duration": 0.0892857395833353,
          "durationTicks": 11,
          "midi": 83,
          "name": "B5",
          "ticks": 3792,
          "time": 30.779229499999996,
          "velocity": 0.5905511811023622
        },
        {
          "duration": 0.0892857395833353,
          "durationTicks": 11,
          "midi": 42,
          "name": "F#2",
          "ticks": 3792,
          "time": 30.779229499999996,
          "velocity": 0.6692913385826772
        },
        {
          "duration": 0.0892857395833353,
          "durationTicks": 11,
          "midi": 36,
          "name": "C2",
          "ticks": 3840,
          "time": 31.168839999999996,
          "velocity": 1
        },
        {
          "duration": 0.08928573958333175,
          "durationTicks": 11,
          "midi": 42,
          "name": "F#2",
          "ticks": 3888,
          "time": 31.5584505,
          "velocity": 0.6692913385826772
        },
        {
          "duration": 0.08928573958333175,
          "durationTicks": 11,
          "midi": 36,
          "name": "C2",
          "ticks": 3888,
          "time": 31.5584505,
          "velocity": 1
        },
        {
          "duration": 0.08928573958333175,
          "durationTicks": 11,
          "midi": 42,
          "name": "F#2",
          "ticks": 3984,
          "time": 32.3376715,
          "velocity": 0.6692913385826772
        },
        {
          "duration": 0.08928573958333175,
          "durationTicks": 11,
          "midi": 42,
          "name": "F#2",
          "ticks": 4080,
          "time": 33.1168925,
          "velocity": 0.6692913385826772
        },
        {
          "duration": 0.08928573958333175,
          "durationTicks": 11,
          "midi": 36,
          "name": "C2",
          "ticks": 4080,
          "time": 33.1168925,
          "velocity": 1
        },
        {
          "duration": 0.08928573958333175,
          "durationTicks": 11,
          "midi": 83,
          "name": "B5",
          "ticks": 4176,
          "time": 33.8961135,
          "velocity": 0.5905511811023622
        },
        {
          "duration": 0.08928573958333175,
          "durationTicks": 11,
          "midi": 42,
          "name": "F#2",
          "ticks": 4176,
          "time": 33.8961135,
          "velocity": 0.6692913385826772
        },
        {
          "duration": 0.08928573958333175,
          "durationTicks": 11,
          "midi": 42,
          "name": "F#2",
          "ticks": 4272,
          "time": 34.6753345,
          "velocity": 0.6692913385826772
        },
        {
          "duration": 0.08928573958333175,
          "durationTicks": 11,
          "midi": 36,
          "name": "C2",
          "ticks": 4272,
          "time": 34.6753345,
          "velocity": 1
        },
        {
          "duration": 0.08928573958333175,
          "durationTicks": 11,
          "midi": 42,
          "name": "F#2",
          "ticks": 4368,
          "time": 35.4545555,
          "velocity": 0.6692913385826772
        },
        {
          "duration": 0.08928573958333175,
          "durationTicks": 11,
          "midi": 42,
          "name": "F#2",
          "ticks": 4464,
          "time": 36.2337765,
          "velocity": 0.6692913385826772
        },
        {
          "duration": 0.08928573958333175,
          "durationTicks": 11,
          "midi": 36,
          "name": "C2",
          "ticks": 4464,
          "time": 36.2337765,
          "velocity": 1
        },
        {
          "duration": 0.08928573958333175,
          "durationTicks": 11,
          "midi": 83,
          "name": "B5",
          "ticks": 4560,
          "time": 37.0129975,
          "velocity": 0.5905511811023622
        },
        {
          "duration": 0.08928573958333175,
          "durationTicks": 11,
          "midi": 42,
          "name": "F#2",
          "ticks": 4560,
          "time": 37.0129975,
          "velocity": 0.6692913385826772
        },
        {
          "duration": 0.08928573958333175,
          "durationTicks": 11,
          "midi": 36,
          "name": "C2",
          "ticks": 4608,
          "time": 37.402608,
          "velocity": 1
        },
        {
          "duration": 0.08928573958333175,
          "durationTicks": 11,
          "midi": 42,
          "name": "F#2",
          "ticks": 4656,
          "time": 37.7922185,
          "velocity": 0.6692913385826772
        },
        {
          "duration": 0.08928573958333175,
          "durationTicks": 11,
          "midi": 36,
          "name": "C2",
          "ticks": 4656,
          "time": 37.7922185,
          "velocity": 1
        },
        {
          "duration": 0.08928573958333885,
          "durationTicks": 11,
          "midi": 42,
          "name": "F#2",
          "ticks": 4752,
          "time": 38.5714395,
          "velocity": 0.6692913385826772
        },
        {
          "duration": 0.08928573958333885,
          "durationTicks": 11,
          "midi": 42,
          "name": "F#2",
          "ticks": 4848,
          "time": 39.3506605,
          "velocity": 0.6692913385826772
        },
        {
          "duration": 0.08928573958333885,
          "durationTicks": 11,
          "midi": 36,
          "name": "C2",
          "ticks": 4848,
          "time": 39.3506605,
          "velocity": 1
        },
        {
          "duration": 0.08928573958333885,
          "durationTicks": 11,
          "midi": 46,
          "name": "A#2",
          "ticks": 4944,
          "time": 40.129881499999996,
          "velocity": 0.5905511811023622
        },
        {
          "duration": 0.08928573958333885,
          "durationTicks": 11,
          "midi": 83,
          "name": "B5",
          "ticks": 4944,
          "time": 40.129881499999996,
          "velocity": 0.5905511811023622
        },
        {
          "duration": 0.08928573958333175,
          "durationTicks": 11,
          "midi": 42,
          "name": "F#2",
          "ticks": 4992,
          "time": 40.519492,
          "velocity": 0.6692913385826772
        },
        {
          "duration": 0.08928573958333175,
          "durationTicks": 11,
          "midi": 36,
          "name": "C2",
          "ticks": 4992,
          "time": 40.519492,
          "velocity": 1
        },
        {
          "duration": 0.08928573958333885,
          "durationTicks": 11,
          "midi": 36,
          "name": "C2",
          "ticks": 5040,
          "time": 40.909102499999996,
          "velocity": 1
        },
        {
          "duration": 0.08928573958333885,
          "durationTicks": 11,
          "midi": 49,
          "name": "C#3",
          "ticks": 5040,
          "time": 40.909102499999996,
          "velocity": 0.5511811023622047
        },
        {
          "duration": 0.08928573958333885,
          "durationTicks": 11,
          "midi": 42,
          "name": "F#2",
          "ticks": 5040,
          "time": 40.909102499999996,
          "velocity": 0.6692913385826772
        },
        {
          "duration": 0.08928573958333885,
          "durationTicks": 11,
          "midi": 38,
          "name": "D2",
          "ticks": 5136,
          "time": 41.688323499999996,
          "velocity": 0.7874015748031497
        },
        {
          "duration": 0.08928573958333885,
          "durationTicks": 11,
          "midi": 42,
          "name": "F#2",
          "ticks": 5136,
          "time": 41.688323499999996,
          "velocity": 0.6692913385826772
        },
        {
          "duration": 0.08928573958333175,
          "durationTicks": 11,
          "midi": 36,
          "name": "C2",
          "ticks": 5184,
          "time": 42.077934,
          "velocity": 1
        },
        {
          "duration": 0.08928573958333885,
          "durationTicks": 11,
          "midi": 36,
          "name": "C2",
          "ticks": 5232,
          "time": 42.467544499999995,
          "velocity": 1
        },
        {
          "duration": 0.08928573958333885,
          "durationTicks": 11,
          "midi": 42,
          "name": "F#2",
          "ticks": 5232,
          "time": 42.467544499999995,
          "velocity": 0.6692913385826772
        },
        {
          "duration": 0.08928573958333885,
          "durationTicks": 11,
          "midi": 38,
          "name": "D2",
          "ticks": 5328,
          "time": 43.246765499999995,
          "velocity": 0.7874015748031497
        },
        {
          "duration": 0.08928573958333885,
          "durationTicks": 11,
          "midi": 83,
          "name": "B5",
          "ticks": 5328,
          "time": 43.246765499999995,
          "velocity": 0.5905511811023622
        },
        {
          "duration": 0.08928573958333885,
          "durationTicks": 11,
          "midi": 42,
          "name": "F#2",
          "ticks": 5328,
          "time": 43.246765499999995,
          "velocity": 0.6692913385826772
        },
        {
          "duration": 0.08928573958333175,
          "durationTicks": 11,
          "midi": 36,
          "name": "C2",
          "ticks": 5376,
          "time": 43.636376,
          "velocity": 1
        },
        {
          "duration": 0.08928573958333885,
          "durationTicks": 11,
          "midi": 42,
          "name": "F#2",
          "ticks": 5424,
          "time": 44.025986499999995,
          "velocity": 0.6692913385826772
        },
        {
          "duration": 0.08928573958333885,
          "durationTicks": 11,
          "midi": 36,
          "name": "C2",
          "ticks": 5424,
          "time": 44.025986499999995,
          "velocity": 1
        },
        {
          "duration": 0.08928573958333885,
          "durationTicks": 11,
          "midi": 38,
          "name": "D2",
          "ticks": 5520,
          "time": 44.805207499999995,
          "velocity": 0.7874015748031497
        },
        {
          "duration": 0.08928573958333885,
          "durationTicks": 11,
          "midi": 42,
          "name": "F#2",
          "ticks": 5520,
          "time": 44.805207499999995,
          "velocity": 0.6692913385826772
        },
        {
          "duration": 0.08928573958333885,
          "durationTicks": 11,
          "midi": 42,
          "name": "F#2",
          "ticks": 5616,
          "time": 45.584428499999994,
          "velocity": 0.6692913385826772
        },
        {
          "duration": 0.08928573958333885,
          "durationTicks": 11,
          "midi": 36,
          "name": "C2",
          "ticks": 5616,
          "time": 45.584428499999994,
          "velocity": 1
        },
        {
          "duration": 0.08928573958333885,
          "durationTicks": 11,
          "midi": 49,
          "name": "C#3",
          "ticks": 5808,
          "time": 47.142870499999994,
          "velocity": 0.5511811023622047
        },
        {
          "duration": 0.08928573958333885,
          "durationTicks": 11,
          "midi": 42,
          "name": "F#2",
          "ticks": 5808,
          "time": 47.142870499999994,
          "velocity": 0.6692913385826772
        },
        {
          "duration": 0.08928573958333885,
          "durationTicks": 11,
          "midi": 36,
          "name": "C2",
          "ticks": 5808,
          "time": 47.142870499999994,
          "velocity": 1
        },
        {
          "duration": 0.08928573958333885,
          "durationTicks": 11,
          "midi": 38,
          "name": "D2",
          "ticks": 5904,
          "time": 47.92209149999999,
          "velocity": 0.7874015748031497
        },
        {
          "duration": 0.08928573958333885,
          "durationTicks": 11,
          "midi": 42,
          "name": "F#2",
          "ticks": 5904,
          "time": 47.92209149999999,
          "velocity": 0.6692913385826772
        },
        {
          "duration": 0.08928573958333175,
          "durationTicks": 11,
          "midi": 36,
          "name": "C2",
          "ticks": 5952,
          "time": 48.311702,
          "velocity": 1
        },
        {
          "duration": 0.08928573958333885,
          "durationTicks": 11,
          "midi": 36,
          "name": "C2",
          "ticks": 6000,
          "time": 48.70131249999999,
          "velocity": 1
        },
        {
          "duration": 0.08928573958333885,
          "durationTicks": 11,
          "midi": 42,
          "name": "F#2",
          "ticks": 6000,
          "time": 48.70131249999999,
          "velocity": 0.6692913385826772
        },
        {
          "duration": 0.08928573958333885,
          "durationTicks": 11,
          "midi": 83,
          "name": "B5",
          "ticks": 6096,
          "time": 49.48053349999999,
          "velocity": 0.5905511811023622
        },
        {
          "duration": 0.08928573958333885,
          "durationTicks": 11,
          "midi": 38,
          "name": "D2",
          "ticks": 6096,
          "time": 49.48053349999999,
          "velocity": 0.7874015748031497
        },
        {
          "duration": 0.08928573958333885,
          "durationTicks": 11,
          "midi": 42,
          "name": "F#2",
          "ticks": 6096,
          "time": 49.48053349999999,
          "velocity": 0.6692913385826772
        },
        {
          "duration": 0.08928573958333175,
          "durationTicks": 11,
          "midi": 36,
          "name": "C2",
          "ticks": 6144,
          "time": 49.870143999999996,
          "velocity": 1
        },
        {
          "duration": 0.08928573958332464,
          "durationTicks": 11,
          "midi": 42,
          "name": "F#2",
          "ticks": 6192,
          "time": 50.2597545,
          "velocity": 0.6692913385826772
        },
        {
          "duration": 0.08928573958332464,
          "durationTicks": 11,
          "midi": 36,
          "name": "C2",
          "ticks": 6192,
          "time": 50.2597545,
          "velocity": 1
        },
        {
          "duration": 0.08928573958332464,
          "durationTicks": 11,
          "midi": 38,
          "name": "D2",
          "ticks": 6288,
          "time": 51.0389755,
          "velocity": 0.7874015748031497
        },
        {
          "duration": 0.08928573958332464,
          "durationTicks": 11,
          "midi": 42,
          "name": "F#2",
          "ticks": 6288,
          "time": 51.0389755,
          "velocity": 0.6692913385826772
        },
        {
          "duration": 0.08928573958332464,
          "durationTicks": 11,
          "midi": 42,
          "name": "F#2",
          "ticks": 6384,
          "time": 51.8181965,
          "velocity": 0.6692913385826772
        },
        {
          "duration": 0.08928573958332464,
          "durationTicks": 11,
          "midi": 36,
          "name": "C2",
          "ticks": 6384,
          "time": 51.8181965,
          "velocity": 1
        },
        {
          "duration": 0.08928573958332464,
          "durationTicks": 11,
          "midi": 38,
          "name": "D2",
          "ticks": 6480,
          "time": 52.5974175,
          "velocity": 0.7874015748031497
        },
        {
          "duration": 0.08928573958332464,
          "durationTicks": 11,
          "midi": 83,
          "name": "B5",
          "ticks": 6480,
          "time": 52.5974175,
          "velocity": 0.5905511811023622
        },
        {
          "duration": 0.08928573958332464,
          "durationTicks": 11,
          "midi": 42,
          "name": "F#2",
          "ticks": 6480,
          "time": 52.5974175,
          "velocity": 0.6692913385826772
        },
        {
          "duration": 0.08928573958332464,
          "durationTicks": 11,
          "midi": 42,
          "name": "F#2",
          "ticks": 6576,
          "time": 53.3766385,
          "velocity": 0.6692913385826772
        },
        {
          "duration": 0.08928573958332464,
          "durationTicks": 11,
          "midi": 36,
          "name": "C2",
          "ticks": 6576,
          "time": 53.3766385,
          "velocity": 1
        },
        {
          "duration": 0.08928573958332464,
          "durationTicks": 11,
          "midi": 38,
          "name": "D2",
          "ticks": 6672,
          "time": 54.1558595,
          "velocity": 0.7874015748031497
        },
        {
          "duration": 0.08928573958332464,
          "durationTicks": 11,
          "midi": 42,
          "name": "F#2",
          "ticks": 6672,
          "time": 54.1558595,
          "velocity": 0.6692913385826772
        },
        {
          "duration": 0.08928573958333175,
          "durationTicks": 11,
          "midi": 36,
          "name": "C2",
          "ticks": 6720,
          "time": 54.545469999999995,
          "velocity": 1
        },
        {
          "duration": 0.08928573958332464,
          "durationTicks": 11,
          "midi": 36,
          "name": "C2",
          "ticks": 6768,
          "time": 54.9350805,
          "velocity": 1
        },
        {
          "duration": 0.08928573958332464,
          "durationTicks": 11,
          "midi": 42,
          "name": "F#2",
          "ticks": 6768,
          "time": 54.9350805,
          "velocity": 0.6692913385826772
        },
        {
          "duration": 0.08928573958332464,
          "durationTicks": 11,
          "midi": 38,
          "name": "D2",
          "ticks": 6864,
          "time": 55.7143015,
          "velocity": 0.7874015748031497
        },
        {
          "duration": 0.08928573958332464,
          "durationTicks": 11,
          "midi": 83,
          "name": "B5",
          "ticks": 6864,
          "time": 55.7143015,
          "velocity": 0.5905511811023622
        },
        {
          "duration": 0.08928573958332464,
          "durationTicks": 11,
          "midi": 42,
          "name": "F#2",
          "ticks": 6864,
          "time": 55.7143015,
          "velocity": 0.6692913385826772
        },
        {
          "duration": 0.08928573958333175,
          "durationTicks": 11,
          "midi": 36,
          "name": "C2",
          "ticks": 6912,
          "time": 56.103911999999994,
          "velocity": 1
        },
        {
          "duration": 0.08928573958332464,
          "durationTicks": 11,
          "midi": 42,
          "name": "F#2",
          "ticks": 6960,
          "time": 56.4935225,
          "velocity": 0.6692913385826772
        },
        {
          "duration": 0.08928573958332464,
          "durationTicks": 11,
          "midi": 36,
          "name": "C2",
          "ticks": 6960,
          "time": 56.4935225,
          "velocity": 1
        },
        {
          "duration": 0.08928573958332464,
          "durationTicks": 11,
          "midi": 38,
          "name": "D2",
          "ticks": 7056,
          "time": 57.2727435,
          "velocity": 0.7874015748031497
        },
        {
          "duration": 0.08928573958332464,
          "durationTicks": 11,
          "midi": 42,
          "name": "F#2",
          "ticks": 7056,
          "time": 57.2727435,
          "velocity": 0.6692913385826772
        },
        {
          "duration": 0.08928573958333175,
          "durationTicks": 11,
          "midi": 36,
          "name": "C2",
          "ticks": 7104,
          "time": 57.66235399999999,
          "velocity": 1
        },
        {
          "duration": 0.08928573958333175,
          "durationTicks": 11,
          "midi": 38,
          "name": "D2",
          "ticks": 7152,
          "time": 58.0519645,
          "velocity": 0.7874015748031497
        },
        {
          "duration": 0.08928573958333175,
          "durationTicks": 11,
          "midi": 42,
          "name": "F#2",
          "ticks": 7152,
          "time": 58.0519645,
          "velocity": 0.6692913385826772
        },
        {
          "duration": 0.08928573958333175,
          "durationTicks": 11,
          "midi": 36,
          "name": "C2",
          "ticks": 7200,
          "time": 58.44157499999999,
          "velocity": 1
        },
        {
          "duration": 0.08928573958333175,
          "durationTicks": 11,
          "midi": 47,
          "name": "B2",
          "ticks": 7248,
          "time": 58.8311855,
          "velocity": 0.6692913385826772
        },
        {
          "duration": 0.08928573958333175,
          "durationTicks": 11,
          "midi": 38,
          "name": "D2",
          "ticks": 7248,
          "time": 58.8311855,
          "velocity": 0.7874015748031497
        },
        {
          "duration": 0.08928573958333175,
          "durationTicks": 11,
          "midi": 83,
          "name": "B5",
          "ticks": 7248,
          "time": 58.8311855,
          "velocity": 0.5905511811023622
        },
        {
          "duration": 0.08928573958333175,
          "durationTicks": 11,
          "midi": 42,
          "name": "F#2",
          "ticks": 7248,
          "time": 58.8311855,
          "velocity": 0.6692913385826772
        },
        {
          "duration": 0.08928573958333175,
          "durationTicks": 11,
          "midi": 43,
          "name": "G2",
          "ticks": 7296,
          "time": 59.22079599999999,
          "velocity": 0.6692913385826772
        },
        {
          "duration": 0.08928573958333175,
          "durationTicks": 11,
          "midi": 36,
          "name": "C2",
          "ticks": 7296,
          "time": 59.22079599999999,
          "velocity": 1
        },
        {
          "duration": 0.08928573958333175,
          "durationTicks": 11,
          "midi": 49,
          "name": "C#3",
          "ticks": 7344,
          "time": 59.610406499999996,
          "velocity": 0.5511811023622047
        },
        {
          "duration": 0.08928573958333175,
          "durationTicks": 11,
          "midi": 42,
          "name": "F#2",
          "ticks": 7344,
          "time": 59.610406499999996,
          "velocity": 0.6692913385826772
        },
        {
          "duration": 0.08928573958333175,
          "durationTicks": 11,
          "midi": 36,
          "name": "C2",
          "ticks": 7344,
          "time": 59.610406499999996,
          "velocity": 1
        },
        {
          "duration": 0.08928573958333175,
          "durationTicks": 11,
          "midi": 38,
          "name": "D2",
          "ticks": 7440,
          "time": 60.389627499999996,
          "velocity": 0.7874015748031497
        },
        {
          "duration": 0.08928573958333175,
          "durationTicks": 11,
          "midi": 42,
          "name": "F#2",
          "ticks": 7440,
          "time": 60.389627499999996,
          "velocity": 0.6692913385826772
        },
        {
          "duration": 0.08928573958333175,
          "durationTicks": 11,
          "midi": 36,
          "name": "C2",
          "ticks": 7488,
          "time": 60.77923799999999,
          "velocity": 1
        },
        {
          "duration": 0.08928573958333175,
          "durationTicks": 11,
          "midi": 42,
          "name": "F#2",
          "ticks": 7536,
          "time": 61.168848499999996,
          "velocity": 0.6692913385826772
        },
        {
          "duration": 0.08928573958333175,
          "durationTicks": 11,
          "midi": 36,
          "name": "C2",
          "ticks": 7536,
          "time": 61.168848499999996,
          "velocity": 1
        },
        {
          "duration": 0.08928573958333175,
          "durationTicks": 11,
          "midi": 38,
          "name": "D2",
          "ticks": 7632,
          "time": 61.948069499999995,
          "velocity": 0.7874015748031497
        },
        {
          "duration": 0.08928573958333175,
          "durationTicks": 11,
          "midi": 83,
          "name": "B5",
          "ticks": 7632,
          "time": 61.948069499999995,
          "velocity": 0.5905511811023622
        },
        {
          "duration": 0.08928573958333175,
          "durationTicks": 11,
          "midi": 42,
          "name": "F#2",
          "ticks": 7632,
          "time": 61.948069499999995,
          "velocity": 0.6692913385826772
        },
        {
          "duration": 0.08928573958333175,
          "durationTicks": 11,
          "midi": 36,
          "name": "C2",
          "ticks": 7680,
          "time": 62.33767999999999,
          "velocity": 1
        },
        {
          "duration": 0.08928573958333175,
          "durationTicks": 11,
          "midi": 42,
          "name": "F#2",
          "ticks": 7728,
          "time": 62.727290499999995,
          "velocity": 0.6692913385826772
        },
        {
          "duration": 0.08928573958333175,
          "durationTicks": 11,
          "midi": 36,
          "name": "C2",
          "ticks": 7728,
          "time": 62.727290499999995,
          "velocity": 1
        },
        {
          "duration": 0.08928573958333175,
          "durationTicks": 11,
          "midi": 38,
          "name": "D2",
          "ticks": 7824,
          "time": 63.506511499999995,
          "velocity": 0.7874015748031497
        },
        {
          "duration": 0.08928573958333175,
          "durationTicks": 11,
          "midi": 42,
          "name": "F#2",
          "ticks": 7824,
          "time": 63.506511499999995,
          "velocity": 0.6692913385826772
        },
        {
          "duration": 0.08928573958333175,
          "durationTicks": 11,
          "midi": 42,
          "name": "F#2",
          "ticks": 7920,
          "time": 64.2857325,
          "velocity": 0.6692913385826772
        },
        {
          "duration": 0.08928573958333175,
          "durationTicks": 11,
          "midi": 36,
          "name": "C2",
          "ticks": 7920,
          "time": 64.2857325,
          "velocity": 1
        },
        {
          "duration": 0.08928573958331754,
          "durationTicks": 11,
          "midi": 38,
          "name": "D2",
          "ticks": 8016,
          "time": 65.0649535,
          "velocity": 0.6692913385826772
        },
        {
          "duration": 0.08928573958331754,
          "durationTicks": 11,
          "midi": 83,
          "name": "B5",
          "ticks": 8016,
          "time": 65.0649535,
          "velocity": 0.5905511811023622
        },
        {
          "duration": 0.08928573958331754,
          "durationTicks": 11,
          "midi": 42,
          "name": "F#2",
          "ticks": 8016,
          "time": 65.0649535,
          "velocity": 0.6692913385826772
        },
        {
          "duration": 0.08928573958333175,
          "durationTicks": 11,
          "midi": 42,
          "name": "F#2",
          "ticks": 8112,
          "time": 65.8441745,
          "velocity": 0.6692913385826772
        },
        {
          "duration": 0.08928573958333175,
          "durationTicks": 11,
          "midi": 36,
          "name": "C2",
          "ticks": 8112,
          "time": 65.8441745,
          "velocity": 1
        },
        {
          "duration": 0.08928573958331754,
          "durationTicks": 11,
          "midi": 38,
          "name": "D2",
          "ticks": 8208,
          "time": 66.6233955,
          "velocity": 0.6692913385826772
        },
        {
          "duration": 0.08928573958331754,
          "durationTicks": 11,
          "midi": 42,
          "name": "F#2",
          "ticks": 8208,
          "time": 66.6233955,
          "velocity": 0.6692913385826772
        },
        {
          "duration": 0.08928573958333175,
          "durationTicks": 11,
          "midi": 36,
          "name": "C2",
          "ticks": 8256,
          "time": 67.01300599999999,
          "velocity": 1
        },
        {
          "duration": 0.08928573958333175,
          "durationTicks": 11,
          "midi": 36,
          "name": "C2",
          "ticks": 8304,
          "time": 67.4026165,
          "velocity": 1
        },
        {
          "duration": 0.08928573958333175,
          "durationTicks": 11,
          "midi": 42,
          "name": "F#2",
          "ticks": 8304,
          "time": 67.4026165,
          "velocity": 0.6692913385826772
        },
        {
          "duration": 0.08928573958331754,
          "durationTicks": 11,
          "midi": 38,
          "name": "D2",
          "ticks": 8400,
          "time": 68.1818375,
          "velocity": 0.7874015748031497
        },
        {
          "duration": 0.08928573958331754,
          "durationTicks": 11,
          "midi": 83,
          "name": "B5",
          "ticks": 8400,
          "time": 68.1818375,
          "velocity": 0.5905511811023622
        },
        {
          "duration": 0.08928573958331754,
          "durationTicks": 11,
          "midi": 42,
          "name": "F#2",
          "ticks": 8400,
          "time": 68.1818375,
          "velocity": 0.6692913385826772
        },
        {
          "duration": 0.08928573958333175,
          "durationTicks": 11,
          "midi": 36,
          "name": "C2",
          "ticks": 8448,
          "time": 68.57144799999999,
          "velocity": 1
        },
        {
          "duration": 0.08928573958333175,
          "durationTicks": 11,
          "midi": 42,
          "name": "F#2",
          "ticks": 8496,
          "time": 68.9610585,
          "velocity": 0.6692913385826772
        },
        {
          "duration": 0.08928573958333175,
          "durationTicks": 11,
          "midi": 36,
          "name": "C2",
          "ticks": 8496,
          "time": 68.9610585,
          "velocity": 1
        },
        {
          "duration": 0.08928573958331754,
          "durationTicks": 11,
          "midi": 38,
          "name": "D2",
          "ticks": 8592,
          "time": 69.7402795,
          "velocity": 0.7874015748031497
        },
        {
          "duration": 0.08928573958331754,
          "durationTicks": 11,
          "midi": 42,
          "name": "F#2",
          "ticks": 8592,
          "time": 69.7402795,
          "velocity": 0.6692913385826772
        },
        {
          "duration": 0.08928573958333175,
          "durationTicks": 11,
          "midi": 42,
          "name": "F#2",
          "ticks": 8688,
          "time": 70.51950049999999,
          "velocity": 0.6692913385826772
        },
        {
          "duration": 0.08928573958333175,
          "durationTicks": 11,
          "midi": 36,
          "name": "C2",
          "ticks": 8688,
          "time": 70.51950049999999,
          "velocity": 1
        },
        {
          "duration": 0.08928573958333175,
          "durationTicks": 11,
          "midi": 83,
          "name": "B5",
          "ticks": 8784,
          "time": 71.2987215,
          "velocity": 0.5905511811023622
        },
        {
          "duration": 0.08928573958333175,
          "durationTicks": 11,
          "midi": 57,
          "name": "A3",
          "ticks": 10416,
          "time": 84.54547849999999,
          "velocity": 0.5511811023622047
        },
        {
          "duration": 0.08928573958333175,
          "durationTicks": 11,
          "midi": 42,
          "name": "F#2",
          "ticks": 10416,
          "time": 84.54547849999999,
          "velocity": 0.6692913385826772
        },
        {
          "duration": 0.08928573958333175,
          "durationTicks": 11,
          "midi": 36,
          "name": "C2",
          "ticks": 10416,
          "time": 84.54547849999999,
          "velocity": 1
        },
        {
          "duration": 0.08928573958333175,
          "durationTicks": 11,
          "midi": 38,
          "name": "D2",
          "ticks": 10512,
          "time": 85.3246995,
          "velocity": 0.7874015748031497
        },
        {
          "duration": 0.08928573958333175,
          "durationTicks": 11,
          "midi": 42,
          "name": "F#2",
          "ticks": 10512,
          "time": 85.3246995,
          "velocity": 0.6692913385826772
        },
        {
          "duration": 0.08928573958333175,
          "durationTicks": 11,
          "midi": 42,
          "name": "F#2",
          "ticks": 10608,
          "time": 86.10392049999999,
          "velocity": 0.6692913385826772
        },
        {
          "duration": 0.08928573958333175,
          "durationTicks": 11,
          "midi": 36,
          "name": "C2",
          "ticks": 10608,
          "time": 86.10392049999999,
          "velocity": 1
        },
        {
          "duration": 0.08928573958333175,
          "durationTicks": 11,
          "midi": 38,
          "name": "D2",
          "ticks": 10704,
          "time": 86.8831415,
          "velocity": 0.7874015748031497
        },
        {
          "duration": 0.08928573958333175,
          "durationTicks": 11,
          "midi": 83,
          "name": "B5",
          "ticks": 10704,
          "time": 86.8831415,
          "velocity": 0.5905511811023622
        },
        {
          "duration": 0.08928573958333175,
          "durationTicks": 11,
          "midi": 42,
          "name": "F#2",
          "ticks": 10704,
          "time": 86.8831415,
          "velocity": 0.6692913385826772
        },
        {
          "duration": 0.08928573958333175,
          "durationTicks": 11,
          "midi": 36,
          "name": "C2",
          "ticks": 10752,
          "time": 87.272752,
          "velocity": 1
        },
        {
          "duration": 0.08928573958331754,
          "durationTicks": 11,
          "midi": 42,
          "name": "F#2",
          "ticks": 10800,
          "time": 87.6623625,
          "velocity": 0.6692913385826772
        },
        {
          "duration": 0.08928573958331754,
          "durationTicks": 11,
          "midi": 36,
          "name": "C2",
          "ticks": 10800,
          "time": 87.6623625,
          "velocity": 1
        },
        {
          "duration": 0.08928573958333175,
          "durationTicks": 11,
          "midi": 38,
          "name": "D2",
          "ticks": 10896,
          "time": 88.4415835,
          "velocity": 0.7874015748031497
        },
        {
          "duration": 0.08928573958333175,
          "durationTicks": 11,
          "midi": 42,
          "name": "F#2",
          "ticks": 10896,
          "time": 88.4415835,
          "velocity": 0.6692913385826772
        },
        {
          "duration": 0.08928573958331754,
          "durationTicks": 11,
          "midi": 42,
          "name": "F#2",
          "ticks": 10992,
          "time": 89.2208045,
          "velocity": 0.6692913385826772
        },
        {
          "duration": 0.08928573958331754,
          "durationTicks": 11,
          "midi": 36,
          "name": "C2",
          "ticks": 10992,
          "time": 89.2208045,
          "velocity": 1
        },
        {
          "duration": 0.08928573958333175,
          "durationTicks": 11,
          "midi": 38,
          "name": "D2",
          "ticks": 11088,
          "time": 90.00002549999999,
          "velocity": 0.7874015748031497
        },
        {
          "duration": 0.08928573958333175,
          "durationTicks": 11,
          "midi": 83,
          "name": "B5",
          "ticks": 11088,
          "time": 90.00002549999999,
          "velocity": 0.5905511811023622
        },
        {
          "duration": 0.08928573958333175,
          "durationTicks": 11,
          "midi": 42,
          "name": "F#2",
          "ticks": 11088,
          "time": 90.00002549999999,
          "velocity": 0.6692913385826772
        },
        {
          "duration": 0.08928573958331754,
          "durationTicks": 11,
          "midi": 42,
          "name": "F#2",
          "ticks": 11184,
          "time": 90.7792465,
          "velocity": 0.6692913385826772
        },
        {
          "duration": 0.08928573958331754,
          "durationTicks": 11,
          "midi": 36,
          "name": "C2",
          "ticks": 11184,
          "time": 90.7792465,
          "velocity": 1
        },
        {
          "duration": 0.08928573958333175,
          "durationTicks": 11,
          "midi": 38,
          "name": "D2",
          "ticks": 11280,
          "time": 91.55846749999999,
          "velocity": 0.7874015748031497
        },
        {
          "duration": 0.08928573958333175,
          "durationTicks": 11,
          "midi": 42,
          "name": "F#2",
          "ticks": 11280,
          "time": 91.55846749999999,
          "velocity": 0.6692913385826772
        },
        {
          "duration": 0.08928573958331754,
          "durationTicks": 11,
          "midi": 42,
          "name": "F#2",
          "ticks": 11376,
          "time": 92.3376885,
          "velocity": 0.6692913385826772
        },
        {
          "duration": 0.08928573958331754,
          "durationTicks": 11,
          "midi": 36,
          "name": "C2",
          "ticks": 11376,
          "time": 92.3376885,
          "velocity": 1
        },
        {
          "duration": 0.08928573958333175,
          "durationTicks": 11,
          "midi": 38,
          "name": "D2",
          "ticks": 11472,
          "time": 93.11690949999999,
          "velocity": 0.7874015748031497
        },
        {
          "duration": 0.08928573958333175,
          "durationTicks": 11,
          "midi": 83,
          "name": "B5",
          "ticks": 11472,
          "time": 93.11690949999999,
          "velocity": 0.5905511811023622
        },
        {
          "duration": 0.08928573958333175,
          "durationTicks": 11,
          "midi": 42,
          "name": "F#2",
          "ticks": 11472,
          "time": 93.11690949999999,
          "velocity": 0.6692913385826772
        },
        {
          "duration": 0.08928573958333175,
          "durationTicks": 11,
          "midi": 36,
          "name": "C2",
          "ticks": 11520,
          "time": 93.50652,
          "velocity": 1
        },
        {
          "duration": 0.08928573958331754,
          "durationTicks": 11,
          "midi": 42,
          "name": "F#2",
          "ticks": 11568,
          "time": 93.8961305,
          "velocity": 0.6692913385826772
        },
        {
          "duration": 0.08928573958331754,
          "durationTicks": 11,
          "midi": 36,
          "name": "C2",
          "ticks": 11568,
          "time": 93.8961305,
          "velocity": 1
        },
        {
          "duration": 0.08928573958333175,
          "durationTicks": 11,
          "midi": 38,
          "name": "D2",
          "ticks": 11664,
          "time": 94.67535149999999,
          "velocity": 0.7874015748031497
        },
        {
          "duration": 0.08928573958333175,
          "durationTicks": 11,
          "midi": 42,
          "name": "F#2",
          "ticks": 11664,
          "time": 94.67535149999999,
          "velocity": 0.6692913385826772
        },
        {
          "duration": 0.08928573958333175,
          "durationTicks": 11,
          "midi": 42,
          "name": "F#2",
          "ticks": 11760,
          "time": 95.4545725,
          "velocity": 0.6692913385826772
        },
        {
          "duration": 0.08928573958333175,
          "durationTicks": 11,
          "midi": 36,
          "name": "C2",
          "ticks": 11760,
          "time": 95.4545725,
          "velocity": 1
        },
        {
          "duration": 0.08928573958333175,
          "durationTicks": 11,
          "midi": 38,
          "name": "D2",
          "ticks": 11856,
          "time": 96.23379349999999,
          "velocity": 0.7874015748031497
        },
        {
          "duration": 0.08928573958333175,
          "durationTicks": 11,
          "midi": 48,
          "name": "C3",
          "ticks": 11856,
          "time": 96.23379349999999,
          "velocity": 0.5511811023622047
        },
        {
          "duration": 0.08928573958333175,
          "durationTicks": 11,
          "midi": 83,
          "name": "B5",
          "ticks": 11856,
          "time": 96.23379349999999,
          "velocity": 0.5905511811023622
        },
        {
          "duration": 0.08928573958333175,
          "durationTicks": 11,
          "midi": 42,
          "name": "F#2",
          "ticks": 11856,
          "time": 96.23379349999999,
          "velocity": 0.6692913385826772
        },
        {
          "duration": 0.08928573958333175,
          "durationTicks": 11,
          "midi": 43,
          "name": "G2",
          "ticks": 11904,
          "time": 96.623404,
          "velocity": 0.5511811023622047
        },
        {
          "duration": 0.08928573958333175,
          "durationTicks": 11,
          "midi": 42,
          "name": "F#2",
          "ticks": 11952,
          "time": 97.0130145,
          "velocity": 0.6692913385826772
        },
        {
          "duration": 0.08928573958333175,
          "durationTicks": 11,
          "midi": 36,
          "name": "C2",
          "ticks": 11952,
          "time": 97.0130145,
          "velocity": 1
        },
        {
          "duration": 0.08928573958333175,
          "durationTicks": 11,
          "midi": 38,
          "name": "D2",
          "ticks": 12048,
          "time": 97.79223549999999,
          "velocity": 0.7874015748031497
        },
        {
          "duration": 0.08928573958333175,
          "durationTicks": 11,
          "midi": 42,
          "name": "F#2",
          "ticks": 12048,
          "time": 97.79223549999999,
          "velocity": 0.6692913385826772
        },
        {
          "duration": 0.08928573958333175,
          "durationTicks": 11,
          "midi": 42,
          "name": "F#2",
          "ticks": 12144,
          "time": 98.5714565,
          "velocity": 0.6692913385826772
        },
        {
          "duration": 0.08928573958333175,
          "durationTicks": 11,
          "midi": 36,
          "name": "C2",
          "ticks": 12144,
          "time": 98.5714565,
          "velocity": 1
        },
        {
          "duration": 0.08928573958333175,
          "durationTicks": 11,
          "midi": 38,
          "name": "D2",
          "ticks": 12240,
          "time": 99.35067749999999,
          "velocity": 0.7874015748031497
        },
        {
          "duration": 0.08928573958333175,
          "durationTicks": 11,
          "midi": 83,
          "name": "B5",
          "ticks": 12240,
          "time": 99.35067749999999,
          "velocity": 0.5905511811023622
        },
        {
          "duration": 0.08928573958333175,
          "durationTicks": 11,
          "midi": 42,
          "name": "F#2",
          "ticks": 12240,
          "time": 99.35067749999999,
          "velocity": 0.6692913385826772
        },
        {
          "duration": 0.08928573958334596,
          "durationTicks": 11,
          "midi": 36,
          "name": "C2",
          "ticks": 12288,
          "time": 99.74028799999999,
          "velocity": 1
        },
        {
          "duration": 0.08928573958333175,
          "durationTicks": 11,
          "midi": 42,
          "name": "F#2",
          "ticks": 12336,
          "time": 100.1298985,
          "velocity": 0.6692913385826772
        },
        {
          "duration": 0.08928573958333175,
          "durationTicks": 11,
          "midi": 36,
          "name": "C2",
          "ticks": 12336,
          "time": 100.1298985,
          "velocity": 1
        },
        {
          "duration": 0.08928573958334596,
          "durationTicks": 11,
          "midi": 38,
          "name": "D2",
          "ticks": 12432,
          "time": 100.90911949999999,
          "velocity": 0.7874015748031497
        },
        {
          "duration": 0.08928573958334596,
          "durationTicks": 11,
          "midi": 42,
          "name": "F#2",
          "ticks": 12432,
          "time": 100.90911949999999,
          "velocity": 0.6692913385826772
        },
        {
          "duration": 0.08928573958333175,
          "durationTicks": 11,
          "midi": 42,
          "name": "F#2",
          "ticks": 12528,
          "time": 101.6883405,
          "velocity": 0.6692913385826772
        },
        {
          "duration": 0.08928573958333175,
          "durationTicks": 11,
          "midi": 36,
          "name": "C2",
          "ticks": 12528,
          "time": 101.6883405,
          "velocity": 1
        },
        {
          "duration": 0.08928573958334596,
          "durationTicks": 11,
          "midi": 38,
          "name": "D2",
          "ticks": 12624,
          "time": 102.46756149999999,
          "velocity": 0.7874015748031497
        },
        {
          "duration": 0.08928573958334596,
          "durationTicks": 11,
          "midi": 83,
          "name": "B5",
          "ticks": 12624,
          "time": 102.46756149999999,
          "velocity": 0.5905511811023622
        },
        {
          "duration": 0.08928573958334596,
          "durationTicks": 11,
          "midi": 42,
          "name": "F#2",
          "ticks": 12624,
          "time": 102.46756149999999,
          "velocity": 0.6692913385826772
        },
        {
          "duration": 0.08928573958333175,
          "durationTicks": 11,
          "midi": 42,
          "name": "F#2",
          "ticks": 12720,
          "time": 103.2467825,
          "velocity": 0.6692913385826772
        },
        {
          "duration": 0.08928573958333175,
          "durationTicks": 11,
          "midi": 36,
          "name": "C2",
          "ticks": 12720,
          "time": 103.2467825,
          "velocity": 1
        },
        {
          "duration": 0.08928573958334596,
          "durationTicks": 11,
          "midi": 38,
          "name": "D2",
          "ticks": 12816,
          "time": 104.02600349999999,
          "velocity": 0.7874015748031497
        },
        {
          "duration": 0.08928573958334596,
          "durationTicks": 11,
          "midi": 42,
          "name": "F#2",
          "ticks": 12816,
          "time": 104.02600349999999,
          "velocity": 0.6692913385826772
        },
        {
          "duration": 0.08928573958333175,
          "durationTicks": 11,
          "midi": 42,
          "name": "F#2",
          "ticks": 12912,
          "time": 104.8052245,
          "velocity": 0.6692913385826772
        },
        {
          "duration": 0.08928573958333175,
          "durationTicks": 11,
          "midi": 36,
          "name": "C2",
          "ticks": 12912,
          "time": 104.8052245,
          "velocity": 1
        },
        {
          "duration": 0.08928573958334596,
          "durationTicks": 11,
          "midi": 38,
          "name": "D2",
          "ticks": 13008,
          "time": 105.58444549999999,
          "velocity": 0.7874015748031497
        },
        {
          "duration": 0.08928573958334596,
          "durationTicks": 11,
          "midi": 83,
          "name": "B5",
          "ticks": 13008,
          "time": 105.58444549999999,
          "velocity": 0.5905511811023622
        },
        {
          "duration": 0.08928573958334596,
          "durationTicks": 11,
          "midi": 42,
          "name": "F#2",
          "ticks": 13008,
          "time": 105.58444549999999,
          "velocity": 0.6692913385826772
        },
        {
          "duration": 0.08928573958334596,
          "durationTicks": 11,
          "midi": 36,
          "name": "C2",
          "ticks": 13056,
          "time": 105.97405599999999,
          "velocity": 1
        },
        {
          "duration": 0.08928573958334596,
          "durationTicks": 11,
          "midi": 42,
          "name": "F#2",
          "ticks": 13104,
          "time": 106.3636665,
          "velocity": 0.6692913385826772
        },
        {
          "duration": 0.08928573958334596,
          "durationTicks": 11,
          "midi": 36,
          "name": "C2",
          "ticks": 13104,
          "time": 106.3636665,
          "velocity": 1
        },
        {
          "duration": 0.08928573958334596,
          "durationTicks": 11,
          "midi": 38,
          "name": "D2",
          "ticks": 13200,
          "time": 107.14288749999999,
          "velocity": 0.7874015748031497
        },
        {
          "duration": 0.08928573958334596,
          "durationTicks": 11,
          "midi": 42,
          "name": "F#2",
          "ticks": 13200,
          "time": 107.14288749999999,
          "velocity": 0.6692913385826772
        },
        {
          "duration": 0.08928573958334596,
          "durationTicks": 11,
          "midi": 36,
          "name": "C2",
          "ticks": 13296,
          "time": 107.9221085,
          "velocity": 1
        },
        {
          "duration": 0.08928573958334596,
          "durationTicks": 11,
          "midi": 42,
          "name": "F#2",
          "ticks": 13296,
          "time": 107.9221085,
          "velocity": 0.6692913385826772
        },
        {
          "duration": 0.08928573958334596,
          "durationTicks": 11,
          "midi": 83,
          "name": "B5",
          "ticks": 13392,
          "time": 108.70132949999999,
          "velocity": 0.5905511811023622
        },
        {
          "duration": 0.08928573958334596,
          "durationTicks": 11,
          "midi": 42,
          "name": "F#2",
          "ticks": 13488,
          "time": 109.48055049999999,
          "velocity": 0.5905511811023622
        },
        {
          "duration": 0.08928573958334596,
          "durationTicks": 11,
          "midi": 42,
          "name": "F#2",
          "ticks": 13584,
          "time": 110.25977149999999,
          "velocity": 0.5905511811023622
        },
        {
          "duration": 0.08928573958334596,
          "durationTicks": 11,
          "midi": 42,
          "name": "F#2",
          "ticks": 13680,
          "time": 111.03899249999999,
          "velocity": 0.5905511811023622
        },
        {
          "duration": 0.08928573958334596,
          "durationTicks": 11,
          "midi": 42,
          "name": "F#2",
          "ticks": 13776,
          "time": 111.81821349999998,
          "velocity": 0.5905511811023622
        },
        {
          "duration": 0.08928573958334596,
          "durationTicks": 11,
          "midi": 42,
          "name": "F#2",
          "ticks": 13872,
          "time": 112.59743449999999,
          "velocity": 0.5905511811023622
        },
        {
          "duration": 0.08928573958333175,
          "durationTicks": 11,
          "midi": 42,
          "name": "F#2",
          "ticks": 13968,
          "time": 113.3766555,
          "velocity": 0.5905511811023622
        },
        {
          "duration": 0.08928573958334596,
          "durationTicks": 11,
          "midi": 42,
          "name": "F#2",
          "ticks": 14064,
          "time": 114.15587649999999,
          "velocity": 0.5905511811023622
        },
        {
          "duration": 0.08928573958333175,
          "durationTicks": 11,
          "midi": 42,
          "name": "F#2",
          "ticks": 14160,
          "time": 114.9350975,
          "velocity": 0.5905511811023622
        },
        {
          "duration": 0.08928573958334596,
          "durationTicks": 11,
          "midi": 42,
          "name": "F#2",
          "ticks": 14256,
          "time": 115.71431849999999,
          "velocity": 0.5905511811023622
        },
        {
          "duration": 0.08928573958333175,
          "durationTicks": 11,
          "midi": 42,
          "name": "F#2",
          "ticks": 14352,
          "time": 116.4935395,
          "velocity": 0.5905511811023622
        },
        {
          "duration": 0.08928573958334596,
          "durationTicks": 11,
          "midi": 42,
          "name": "F#2",
          "ticks": 14448,
          "time": 117.27276049999999,
          "velocity": 0.5905511811023622
        },
        {
          "duration": 0.08928573958333175,
          "durationTicks": 11,
          "midi": 42,
          "name": "F#2",
          "ticks": 14544,
          "time": 118.0519815,
          "velocity": 0.5905511811023622
        },
        {
          "duration": 0.08928573958334596,
          "durationTicks": 11,
          "midi": 42,
          "name": "F#2",
          "ticks": 14640,
          "time": 118.83120249999999,
          "velocity": 0.5905511811023622
        },
        {
          "duration": 0.08928573958333175,
          "durationTicks": 11,
          "midi": 42,
          "name": "F#2",
          "ticks": 14736,
          "time": 119.6104235,
          "velocity": 0.5905511811023622
        },
        {
          "duration": 0.08928573958334596,
          "durationTicks": 11,
          "midi": 49,
          "name": "C#3",
          "ticks": 15216,
          "time": 123.50652849999999,
          "velocity": 0.5511811023622047
        },
        {
          "duration": 0.08928573958334596,
          "durationTicks": 11,
          "midi": 42,
          "name": "F#2",
          "ticks": 15216,
          "time": 123.50652849999999,
          "velocity": 0.6692913385826772
        },
        {
          "duration": 0.08928573958334596,
          "durationTicks": 11,
          "midi": 36,
          "name": "C2",
          "ticks": 15216,
          "time": 123.50652849999999,
          "velocity": 1
        },
        {
          "duration": 0.08928573958333175,
          "durationTicks": 11,
          "midi": 38,
          "name": "D2",
          "ticks": 15312,
          "time": 124.2857495,
          "velocity": 0.7874015748031497
        },
        {
          "duration": 0.08928573958333175,
          "durationTicks": 11,
          "midi": 42,
          "name": "F#2",
          "ticks": 15312,
          "time": 124.2857495,
          "velocity": 0.6692913385826772
        },
        {
          "duration": 0.08928573958334596,
          "durationTicks": 11,
          "midi": 36,
          "name": "C2",
          "ticks": 15360,
          "time": 124.67535999999998,
          "velocity": 1
        },
        {
          "duration": 0.08928573958334596,
          "durationTicks": 11,
          "midi": 36,
          "name": "C2",
          "ticks": 15408,
          "time": 125.06497049999999,
          "velocity": 1
        },
        {
          "duration": 0.08928573958334596,
          "durationTicks": 11,
          "midi": 42,
          "name": "F#2",
          "ticks": 15408,
          "time": 125.06497049999999,
          "velocity": 0.6692913385826772
        },
        {
          "duration": 0.08928573958333175,
          "durationTicks": 11,
          "midi": 83,
          "name": "B5",
          "ticks": 15504,
          "time": 125.8441915,
          "velocity": 0.5905511811023622
        },
        {
          "duration": 0.08928573958333175,
          "durationTicks": 11,
          "midi": 38,
          "name": "D2",
          "ticks": 15504,
          "time": 125.8441915,
          "velocity": 0.7874015748031497
        },
        {
          "duration": 0.08928573958333175,
          "durationTicks": 11,
          "midi": 42,
          "name": "F#2",
          "ticks": 15504,
          "time": 125.8441915,
          "velocity": 0.6692913385826772
        },
        {
          "duration": 0.08928573958333175,
          "durationTicks": 11,
          "midi": 36,
          "name": "C2",
          "ticks": 15552,
          "time": 126.233802,
          "velocity": 1
        },
        {
          "duration": 0.08928573958334596,
          "durationTicks": 11,
          "midi": 42,
          "name": "F#2",
          "ticks": 15600,
          "time": 126.62341249999999,
          "velocity": 0.6692913385826772
        },
        {
          "duration": 0.08928573958334596,
          "durationTicks": 11,
          "midi": 36,
          "name": "C2",
          "ticks": 15600,
          "time": 126.62341249999999,
          "velocity": 1
        },
        {
          "duration": 0.08928573958333175,
          "durationTicks": 11,
          "midi": 38,
          "name": "D2",
          "ticks": 15696,
          "time": 127.4026335,
          "velocity": 0.7874015748031497
        },
        {
          "duration": 0.08928573958333175,
          "durationTicks": 11,
          "midi": 42,
          "name": "F#2",
          "ticks": 15696,
          "time": 127.4026335,
          "velocity": 0.6692913385826772
        },
        {
          "duration": 0.08928573958334596,
          "durationTicks": 11,
          "midi": 42,
          "name": "F#2",
          "ticks": 15792,
          "time": 128.1818545,
          "velocity": 0.6692913385826772
        },
        {
          "duration": 0.08928573958334596,
          "durationTicks": 11,
          "midi": 36,
          "name": "C2",
          "ticks": 15792,
          "time": 128.1818545,
          "velocity": 1
        },
        {
          "duration": 0.08928573958334596,
          "durationTicks": 11,
          "midi": 38,
          "name": "D2",
          "ticks": 15888,
          "time": 128.9610755,
          "velocity": 0.7874015748031497
        },
        {
          "duration": 0.08928573958334596,
          "durationTicks": 11,
          "midi": 83,
          "name": "B5",
          "ticks": 15888,
          "time": 128.9610755,
          "velocity": 0.5905511811023622
        },
        {
          "duration": 0.08928573958334596,
          "durationTicks": 11,
          "midi": 42,
          "name": "F#2",
          "ticks": 15888,
          "time": 128.9610755,
          "velocity": 0.6692913385826772
        },
        {
          "duration": 0.08928573958331754,
          "durationTicks": 11,
          "midi": 42,
          "name": "F#2",
          "ticks": 15984,
          "time": 129.7402965,
          "velocity": 0.6692913385826772
        },
        {
          "duration": 0.08928573958331754,
          "durationTicks": 11,
          "midi": 36,
          "name": "C2",
          "ticks": 15984,
          "time": 129.7402965,
          "velocity": 1
        },
        {
          "duration": 0.08928573958334596,
          "durationTicks": 11,
          "midi": 38,
          "name": "D2",
          "ticks": 16080,
          "time": 130.51951749999998,
          "velocity": 0.7874015748031497
        },
        {
          "duration": 0.08928573958334596,
          "durationTicks": 11,
          "midi": 42,
          "name": "F#2",
          "ticks": 16080,
          "time": 130.51951749999998,
          "velocity": 0.6692913385826772
        },
        {
          "duration": 0.08928573958334596,
          "durationTicks": 11,
          "midi": 36,
          "name": "C2",
          "ticks": 16128,
          "time": 130.90912799999998,
          "velocity": 1
        },
        {
          "duration": 0.08928573958334596,
          "durationTicks": 11,
          "midi": 36,
          "name": "C2",
          "ticks": 16176,
          "time": 131.29873849999998,
          "velocity": 1
        },
        {
          "duration": 0.08928573958334596,
          "durationTicks": 11,
          "midi": 42,
          "name": "F#2",
          "ticks": 16176,
          "time": 131.29873849999998,
          "velocity": 0.6692913385826772
        },
        {
          "duration": 0.08928573958334596,
          "durationTicks": 11,
          "midi": 38,
          "name": "D2",
          "ticks": 16272,
          "time": 132.0779595,
          "velocity": 0.7874015748031497
        },
        {
          "duration": 0.08928573958334596,
          "durationTicks": 11,
          "midi": 83,
          "name": "B5",
          "ticks": 16272,
          "time": 132.0779595,
          "velocity": 0.5905511811023622
        },
        {
          "duration": 0.08928573958334596,
          "durationTicks": 11,
          "midi": 42,
          "name": "F#2",
          "ticks": 16272,
          "time": 132.0779595,
          "velocity": 0.6692913385826772
        },
        {
          "duration": 0.08928573958334596,
          "durationTicks": 11,
          "midi": 36,
          "name": "C2",
          "ticks": 16320,
          "time": 132.46757,
          "velocity": 1
        },
        {
          "duration": 0.08928573958334596,
          "durationTicks": 11,
          "midi": 42,
          "name": "F#2",
          "ticks": 16368,
          "time": 132.8571805,
          "velocity": 0.6692913385826772
        },
        {
          "duration": 0.08928573958334596,
          "durationTicks": 11,
          "midi": 36,
          "name": "C2",
          "ticks": 16368,
          "time": 132.8571805,
          "velocity": 1
        },
        {
          "duration": 0.08928573958334596,
          "durationTicks": 11,
          "midi": 38,
          "name": "D2",
          "ticks": 16464,
          "time": 133.63640149999998,
          "velocity": 0.7874015748031497
        },
        {
          "duration": 0.08928573958334596,
          "durationTicks": 11,
          "midi": 42,
          "name": "F#2",
          "ticks": 16464,
          "time": 133.63640149999998,
          "velocity": 0.6692913385826772
        },
        {
          "duration": 0.08928573958334596,
          "durationTicks": 11,
          "midi": 36,
          "name": "C2",
          "ticks": 16512,
          "time": 134.02601199999998,
          "velocity": 1
        },
        {
          "duration": 0.08928573958334596,
          "durationTicks": 11,
          "midi": 38,
          "name": "D2",
          "ticks": 16560,
          "time": 134.41562249999998,
          "velocity": 0.7874015748031497
        },
        {
          "duration": 0.08928573958334596,
          "durationTicks": 11,
          "midi": 42,
          "name": "F#2",
          "ticks": 16560,
          "time": 134.41562249999998,
          "velocity": 0.6692913385826772
        },
        {
          "duration": 0.08928573958334596,
          "durationTicks": 11,
          "midi": 36,
          "name": "C2",
          "ticks": 16608,
          "time": 134.805233,
          "velocity": 1
        },
        {
          "duration": 0.08928573958334596,
          "durationTicks": 11,
          "midi": 47,
          "name": "B2",
          "ticks": 16656,
          "time": 135.1948435,
          "velocity": 0.6692913385826772
        },
        {
          "duration": 0.08928573958334596,
          "durationTicks": 11,
          "midi": 38,
          "name": "D2",
          "ticks": 16656,
          "time": 135.1948435,
          "velocity": 0.7874015748031497
        },
        {
          "duration": 0.08928573958334596,
          "durationTicks": 11,
          "midi": 83,
          "name": "B5",
          "ticks": 16656,
          "time": 135.1948435,
          "velocity": 0.5905511811023622
        },
        {
          "duration": 0.08928573958334596,
          "durationTicks": 11,
          "midi": 42,
          "name": "F#2",
          "ticks": 16656,
          "time": 135.1948435,
          "velocity": 0.6692913385826772
        },
        {
          "duration": 0.08928573958334596,
          "durationTicks": 11,
          "midi": 43,
          "name": "G2",
          "ticks": 16704,
          "time": 135.584454,
          "velocity": 0.6692913385826772
        },
        {
          "duration": 0.08928573958334596,
          "durationTicks": 11,
          "midi": 36,
          "name": "C2",
          "ticks": 16704,
          "time": 135.584454,
          "velocity": 1
        },
        {
          "duration": 0.08928573958334596,
          "durationTicks": 11,
          "midi": 49,
          "name": "C#3",
          "ticks": 16752,
          "time": 135.9740645,
          "velocity": 0.5511811023622047
        },
        {
          "duration": 0.08928573958334596,
          "durationTicks": 11,
          "midi": 42,
          "name": "F#2",
          "ticks": 16752,
          "time": 135.9740645,
          "velocity": 0.6692913385826772
        },
        {
          "duration": 0.08928573958334596,
          "durationTicks": 11,
          "midi": 36,
          "name": "C2",
          "ticks": 16752,
          "time": 135.9740645,
          "velocity": 1
        },
        {
          "duration": 0.08928573958334596,
          "durationTicks": 11,
          "midi": 38,
          "name": "D2",
          "ticks": 16848,
          "time": 136.75328549999998,
          "velocity": 0.7874015748031497
        },
        {
          "duration": 0.08928573958334596,
          "durationTicks": 11,
          "midi": 42,
          "name": "F#2",
          "ticks": 16848,
          "time": 136.75328549999998,
          "velocity": 0.6692913385826772
        },
        {
          "duration": 0.08928573958334596,
          "durationTicks": 11,
          "midi": 36,
          "name": "C2",
          "ticks": 16896,
          "time": 137.14289599999998,
          "velocity": 1
        },
        {
          "duration": 0.08928573958334596,
          "durationTicks": 11,
          "midi": 42,
          "name": "F#2",
          "ticks": 16944,
          "time": 137.53250649999998,
          "velocity": 0.6692913385826772
        },
        {
          "duration": 0.08928573958334596,
          "durationTicks": 11,
          "midi": 36,
          "name": "C2",
          "ticks": 16944,
          "time": 137.53250649999998,
          "velocity": 1
        },
        {
          "duration": 0.08928573958334596,
          "durationTicks": 11,
          "midi": 38,
          "name": "D2",
          "ticks": 17040,
          "time": 138.3117275,
          "velocity": 0.7874015748031497
        },
        {
          "duration": 0.08928573958334596,
          "durationTicks": 11,
          "midi": 83,
          "name": "B5",
          "ticks": 17040,
          "time": 138.3117275,
          "velocity": 0.5905511811023622
        },
        {
          "duration": 0.08928573958334596,
          "durationTicks": 11,
          "midi": 42,
          "name": "F#2",
          "ticks": 17040,
          "time": 138.3117275,
          "velocity": 0.6692913385826772
        },
        {
          "duration": 0.08928573958334596,
          "durationTicks": 11,
          "midi": 36,
          "name": "C2",
          "ticks": 17088,
          "time": 138.701338,
          "velocity": 1
        },
        {
          "duration": 0.08928573958334596,
          "durationTicks": 11,
          "midi": 42,
          "name": "F#2",
          "ticks": 17136,
          "time": 139.0909485,
          "velocity": 0.6692913385826772
        },
        {
          "duration": 0.08928573958334596,
          "durationTicks": 11,
          "midi": 36,
          "name": "C2",
          "ticks": 17136,
          "time": 139.0909485,
          "velocity": 1
        },
        {
          "duration": 0.08928573958331754,
          "durationTicks": 11,
          "midi": 38,
          "name": "D2",
          "ticks": 17232,
          "time": 139.8701695,
          "velocity": 0.7874015748031497
        },
        {
          "duration": 0.08928573958331754,
          "durationTicks": 11,
          "midi": 42,
          "name": "F#2",
          "ticks": 17232,
          "time": 139.8701695,
          "velocity": 0.6692913385826772
        },
        {
          "duration": 0.08928573958334596,
          "durationTicks": 11,
          "midi": 42,
          "name": "F#2",
          "ticks": 17328,
          "time": 140.64939049999998,
          "velocity": 0.6692913385826772
        },
        {
          "duration": 0.08928573958334596,
          "durationTicks": 11,
          "midi": 36,
          "name": "C2",
          "ticks": 17328,
          "time": 140.64939049999998,
          "velocity": 1
        },
        {
          "duration": 0.08928573958334596,
          "durationTicks": 11,
          "midi": 38,
          "name": "D2",
          "ticks": 17424,
          "time": 141.4286115,
          "velocity": 0.6692913385826772
        },
        {
          "duration": 0.08928573958334596,
          "durationTicks": 11,
          "midi": 83,
          "name": "B5",
          "ticks": 17424,
          "time": 141.4286115,
          "velocity": 0.5905511811023622
        },
        {
          "duration": 0.08928573958334596,
          "durationTicks": 11,
          "midi": 42,
          "name": "F#2",
          "ticks": 17424,
          "time": 141.4286115,
          "velocity": 0.6692913385826772
        },
        {
          "duration": 0.08928573958334596,
          "durationTicks": 11,
          "midi": 42,
          "name": "F#2",
          "ticks": 17520,
          "time": 142.2078325,
          "velocity": 0.6692913385826772
        },
        {
          "duration": 0.08928573958334596,
          "durationTicks": 11,
          "midi": 36,
          "name": "C2",
          "ticks": 17520,
          "time": 142.2078325,
          "velocity": 1
        },
        {
          "duration": 0.08928573958331754,
          "durationTicks": 11,
          "midi": 38,
          "name": "D2",
          "ticks": 17616,
          "time": 142.9870535,
          "velocity": 0.6692913385826772
        },
        {
          "duration": 0.08928573958331754,
          "durationTicks": 11,
          "midi": 42,
          "name": "F#2",
          "ticks": 17616,
          "time": 142.9870535,
          "velocity": 0.6692913385826772
        },
        {
          "duration": 0.08928573958334596,
          "durationTicks": 11,
          "midi": 36,
          "name": "C2",
          "ticks": 17664,
          "time": 143.37666399999998,
          "velocity": 1
        },
        {
          "duration": 0.08928573958334596,
          "durationTicks": 11,
          "midi": 36,
          "name": "C2",
          "ticks": 17712,
          "time": 143.76627449999998,
          "velocity": 1
        },
        {
          "duration": 0.08928573958334596,
          "durationTicks": 11,
          "midi": 42,
          "name": "F#2",
          "ticks": 17712,
          "time": 143.76627449999998,
          "velocity": 0.6692913385826772
        },
        {
          "duration": 0.08928573958334596,
          "durationTicks": 11,
          "midi": 38,
          "name": "D2",
          "ticks": 17808,
          "time": 144.5454955,
          "velocity": 0.7874015748031497
        },
        {
          "duration": 0.08928573958334596,
          "durationTicks": 11,
          "midi": 83,
          "name": "B5",
          "ticks": 17808,
          "time": 144.5454955,
          "velocity": 0.5905511811023622
        },
        {
          "duration": 0.08928573958334596,
          "durationTicks": 11,
          "midi": 42,
          "name": "F#2",
          "ticks": 17808,
          "time": 144.5454955,
          "velocity": 0.6692913385826772
        },
        {
          "duration": 0.08928573958334596,
          "durationTicks": 11,
          "midi": 36,
          "name": "C2",
          "ticks": 17856,
          "time": 144.935106,
          "velocity": 1
        },
        {
          "duration": 0.08928573958334596,
          "durationTicks": 11,
          "midi": 42,
          "name": "F#2",
          "ticks": 17904,
          "time": 145.3247165,
          "velocity": 0.6692913385826772
        },
        {
          "duration": 0.08928573958334596,
          "durationTicks": 11,
          "midi": 36,
          "name": "C2",
          "ticks": 17904,
          "time": 145.3247165,
          "velocity": 1
        },
        {
          "duration": 0.08928573958331754,
          "durationTicks": 11,
          "midi": 38,
          "name": "D2",
          "ticks": 18000,
          "time": 146.1039375,
          "velocity": 0.7874015748031497
        },
        {
          "duration": 0.08928573958331754,
          "durationTicks": 11,
          "midi": 42,
          "name": "F#2",
          "ticks": 18000,
          "time": 146.1039375,
          "velocity": 0.6692913385826772
        },
        {
          "duration": 0.08928573958334596,
          "durationTicks": 11,
          "midi": 42,
          "name": "F#2",
          "ticks": 18096,
          "time": 146.88315849999998,
          "velocity": 0.6692913385826772
        },
        {
          "duration": 0.08928573958334596,
          "durationTicks": 11,
          "midi": 36,
          "name": "C2",
          "ticks": 18096,
          "time": 146.88315849999998,
          "velocity": 1
        },
        {
          "duration": 0.08928573958334596,
          "durationTicks": 11,
          "midi": 83,
          "name": "B5",
          "ticks": 18192,
          "time": 147.6623795,
          "velocity": 0.5905511811023622
        }
      ],
      "endOfTrackTicks": 18203
    },
    {
      "channel": 0,
      "controlChanges": {
        "0": [
          {
            "number": 0,
            "ticks": 0,
            "time": 0,
            "value": 0
          }
        ],
        "32": [
          {
            "number": 32,
            "ticks": 0,
            "time": 0,
            "value": 0.015748031496062992
          }
        ]
      },
      "pitchBends": [],
      "instrument": {
        "family": "piano",
        "number": 0,
        "name": "acoustic grand piano"
      },
      "name": "",
      "notes": [],
      "endOfTrackTicks": 20399
    },
    {
      "channel": 0,
      "controlChanges": {
        "1": [
          {
            "number": 1,
            "ticks": 0,
            "time": 0,
            "value": 0
          }
        ],
        "6": [
          {
            "number": 6,
            "ticks": 36,
            "time": 0.292207875,
            "value": 0.6141732283464567
          },
          {
            "number": 6,
            "ticks": 39,
            "time": 0.31655853125,
            "value": 0.09448818897637795
          },
          {
            "number": 6,
            "ticks": 44,
            "time": 0.3571429583333333,
            "value": 0.5905511811023622
          }
        ],
        "7": [
          {
            "number": 7,
            "ticks": 0,
            "time": 0,
            "value": 0.9921259842519685
          }
        ],
        "10": [
          {
            "number": 10,
            "ticks": 0,
            "time": 0,
            "value": 0.5039370078740157
          }
        ],
        "91": [
          {
            "number": 91,
            "ticks": 16,
            "time": 0.12987016666666665,
            "value": 0
          }
        ],
        "93": [
          {
            "number": 93,
            "ticks": 32,
            "time": 0.2597403333333333,
            "value": 0.3937007874015748
          }
        ],
        "98": [
          {
            "number": 98,
            "ticks": 35,
            "time": 0.2840909895833333,
            "value": 0.25196850393700787
          },
          {
            "number": 98,
            "ticks": 42,
            "time": 0.3409091875,
            "value": 0.25984251968503935
          }
        ],
        "99": [
          {
            "number": 99,
            "ticks": 34,
            "time": 0.2759741041666667,
            "value": 0.007874015748031496
          },
          {
            "number": 99,
            "ticks": 41,
            "time": 0.33279230208333327,
            "value": 0.007874015748031496
          }
        ],
        "100": [
          {
            "number": 100,
            "ticks": 38,
            "time": 0.3084416458333333,
            "value": 0
          }
        ],
        "101": [
          {
            "number": 101,
            "ticks": 37,
            "time": 0.30032476041666667,
            "value": 0
          }
        ],
        "121": [
          {
            "number": 121,
            "ticks": 0,
            "time": 0,
            "value": 0
          }
        ]
      },
      "pitchBends": [],
      "instrument": {
        "family": "bass",
        "number": 33,
        "name": "electric bass (finger)"
      },
      "name": "",
      "notes": [
        {
          "duration": 1.1688314999999978,
          "durationTicks": 144,
          "midi": 37,
          "name": "C#2",
          "ticks": 1968,
          "time": 15.9740305,
          "velocity": 0.9448818897637795
        },
        {
          "duration": 0.38961049999999986,
          "durationTicks": 48,
          "midi": 32,
          "name": "G#1",
          "ticks": 2112,
          "time": 17.142861999999997,
          "velocity": 0.9448818897637795
        },
        {
          "duration": 1.558442000000003,
          "durationTicks": 192,
          "midi": 30,
          "name": "F#1",
          "ticks": 2160,
          "time": 17.532472499999997,
          "velocity": 0.9448818897637795
        },
        {
          "duration": 1.1688314999999996,
          "durationTicks": 144,
          "midi": 37,
          "name": "C#2",
          "ticks": 2352,
          "time": 19.0909145,
          "velocity": 0.9448818897637795
        },
        {
          "duration": 0.38961049999999986,
          "durationTicks": 48,
          "midi": 32,
          "name": "G#1",
          "ticks": 2496,
          "time": 20.259746,
          "velocity": 0.9448818897637795
        },
        {
          "duration": 1.5584419999999994,
          "durationTicks": 192,
          "midi": 30,
          "name": "F#1",
          "ticks": 2544,
          "time": 20.6493565,
          "velocity": 0.9448818897637795
        },
        {
          "duration": 1.1688314999999996,
          "durationTicks": 144,
          "midi": 41,
          "name": "F2",
          "ticks": 2736,
          "time": 22.2077985,
          "velocity": 0.9448818897637795
        },
        {
          "duration": 0.38961049999999986,
          "durationTicks": 48,
          "midi": 36,
          "name": "C2",
          "ticks": 2880,
          "time": 23.37663,
          "velocity": 0.9448818897637795
        },
        {
          "duration": 1.5584419999999994,
          "durationTicks": 192,
          "midi": 34,
          "name": "A#1",
          "ticks": 2928,
          "time": 23.7662405,
          "velocity": 0.9448818897637795
        },
        {
          "duration": 1.1688314999999996,
          "durationTicks": 144,
          "midi": 39,
          "name": "D#2",
          "ticks": 3120,
          "time": 25.324682499999998,
          "velocity": 0.9448818897637795
        },
        {
          "duration": 0.38961049999999986,
          "durationTicks": 48,
          "midi": 39,
          "name": "D#2",
          "ticks": 3264,
          "time": 26.493513999999998,
          "velocity": 0.9448818897637795
        },
        {
          "duration": 1.5584419999999994,
          "durationTicks": 192,
          "midi": 33,
          "name": "A1",
          "ticks": 3312,
          "time": 26.883124499999997,
          "velocity": 0.9448818897637795
        },
        {
          "duration": 1.1688314999999996,
          "durationTicks": 144,
          "midi": 37,
          "name": "C#2",
          "ticks": 3504,
          "time": 28.441566499999997,
          "velocity": 0.9448818897637795
        },
        {
          "duration": 0.38961049999999986,
          "durationTicks": 48,
          "midi": 32,
          "name": "G#1",
          "ticks": 3648,
          "time": 29.610397999999996,
          "velocity": 0.9448818897637795
        },
        {
          "duration": 1.558442000000003,
          "durationTicks": 192,
          "midi": 30,
          "name": "F#1",
          "ticks": 3696,
          "time": 30.000008499999996,
          "velocity": 0.9448818897637795
        },
        {
          "duration": 1.168831499999996,
          "durationTicks": 144,
          "midi": 37,
          "name": "C#2",
          "ticks": 3888,
          "time": 31.5584505,
          "velocity": 0.9448818897637795
        },
        {
          "duration": 0.3896105000000034,
          "durationTicks": 48,
          "midi": 32,
          "name": "G#1",
          "ticks": 4032,
          "time": 32.727281999999995,
          "velocity": 0.9448818897637795
        },
        {
          "duration": 1.168831499999996,
          "durationTicks": 144,
          "midi": 30,
          "name": "F#1",
          "ticks": 4080,
          "time": 33.1168925,
          "velocity": 0.9448818897637795
        },
        {
          "duration": 0.3896105000000034,
          "durationTicks": 48,
          "midi": 37,
          "name": "C#2",
          "ticks": 4224,
          "time": 34.285723999999995,
          "velocity": 0.9448818897637795
        },
        {
          "duration": 1.168831499999996,
          "durationTicks": 144,
          "midi": 41,
          "name": "F2",
          "ticks": 4272,
          "time": 34.6753345,
          "velocity": 0.9448818897637795
        },
        {
          "duration": 0.3896105000000034,
          "durationTicks": 48,
          "midi": 41,
          "name": "F2",
          "ticks": 4416,
          "time": 35.844165999999994,
          "velocity": 0.9448818897637795
        },
        {
          "duration": 1.5584419999999994,
          "durationTicks": 192,
          "midi": 34,
          "name": "A#1",
          "ticks": 4464,
          "time": 36.2337765,
          "velocity": 0.9448818897637795
        },
        {
          "duration": 1.1688315000000031,
          "durationTicks": 144,
          "midi": 39,
          "name": "D#2",
          "ticks": 4656,
          "time": 37.7922185,
          "velocity": 0.9448818897637795
        },
        {
          "duration": 0.3896104999999963,
          "durationTicks": 48,
          "midi": 39,
          "name": "D#2",
          "ticks": 4800,
          "time": 38.96105,
          "velocity": 0.9448818897637795
        },
        {
          "duration": 1.5584419999999994,
          "durationTicks": 192,
          "midi": 44,
          "name": "G#2",
          "ticks": 4848,
          "time": 39.3506605,
          "velocity": 0.9448818897637795
        },
        {
          "duration": 1.160714614583334,
          "durationTicks": 143,
          "midi": 37,
          "name": "C#2",
          "ticks": 5040,
          "time": 40.909102499999996,
          "velocity": 0.9448818897637795
        },
        {
          "duration": 0.3814936145833343,
          "durationTicks": 47,
          "midi": 37,
          "name": "C#2",
          "ticks": 5184,
          "time": 42.077934,
          "velocity": 0.9448818897637795
        },
        {
          "duration": 1.160714614583334,
          "durationTicks": 143,
          "midi": 30,
          "name": "F#1",
          "ticks": 5232,
          "time": 42.467544499999995,
          "velocity": 0.9448818897637795
        },
        {
          "duration": 0.3896104999999963,
          "durationTicks": 48,
          "midi": 32,
          "name": "G#1",
          "ticks": 5376,
          "time": 43.636376,
          "velocity": 0.9448818897637795
        },
        {
          "duration": 1.1688315000000031,
          "durationTicks": 144,
          "midi": 37,
          "name": "C#2",
          "ticks": 5424,
          "time": 44.025986499999995,
          "velocity": 0.9448818897637795
        },
        {
          "duration": 0.3896104999999963,
          "durationTicks": 48,
          "midi": 32,
          "name": "G#1",
          "ticks": 5568,
          "time": 45.194818,
          "velocity": 0.9448818897637795
        },
        {
          "duration": 1.5584419999999994,
          "durationTicks": 192,
          "midi": 31,
          "name": "G1",
          "ticks": 5616,
          "time": 45.584428499999994,
          "velocity": 0.9448818897637795
        },
        {
          "duration": 1.1688315000000031,
          "durationTicks": 144,
          "midi": 30,
          "name": "F#1",
          "ticks": 5808,
          "time": 47.142870499999994,
          "velocity": 0.9448818897637795
        },
        {
          "duration": 0.3896104999999963,
          "durationTicks": 48,
          "midi": 30,
          "name": "F#1",
          "ticks": 5952,
          "time": 48.311702,
          "velocity": 0.9448818897637795
        },
        {
          "duration": 1.1688315000000031,
          "durationTicks": 144,
          "midi": 30,
          "name": "F#1",
          "ticks": 6000,
          "time": 48.70131249999999,
          "velocity": 0.9448818897637795
        },
        {
          "duration": 0.3896105000000034,
          "durationTicks": 48,
          "midi": 30,
          "name": "F#1",
          "ticks": 6144,
          "time": 49.870143999999996,
          "velocity": 0.9448818897637795
        },
        {
          "duration": 1.168831499999996,
          "durationTicks": 144,
          "midi": 41,
          "name": "F2",
          "ticks": 6192,
          "time": 50.2597545,
          "velocity": 0.9448818897637795
        },
        {
          "duration": 0.3896105000000034,
          "durationTicks": 48,
          "midi": 36,
          "name": "C2",
          "ticks": 6336,
          "time": 51.428585999999996,
          "velocity": 0.9448818897637795
        },
        {
          "duration": 1.168831499999996,
          "durationTicks": 144,
          "midi": 34,
          "name": "A#1",
          "ticks": 6384,
          "time": 51.8181965,
          "velocity": 0.9448818897637795
        },
        {
          "duration": 0.3896105000000034,
          "durationTicks": 48,
          "midi": 34,
          "name": "A#1",
          "ticks": 6528,
          "time": 52.987027999999995,
          "velocity": 0.9448818897637795
        },
        {
          "duration": 1.168831499999996,
          "durationTicks": 144,
          "midi": 39,
          "name": "D#2",
          "ticks": 6576,
          "time": 53.3766385,
          "velocity": 0.9448818897637795
        },
        {
          "duration": 0.3896105000000034,
          "durationTicks": 48,
          "midi": 39,
          "name": "D#2",
          "ticks": 6720,
          "time": 54.545469999999995,
          "velocity": 0.9448818897637795
        },
        {
          "duration": 1.168831499999996,
          "durationTicks": 144,
          "midi": 39,
          "name": "D#2",
          "ticks": 6768,
          "time": 54.9350805,
          "velocity": 0.9448818897637795
        },
        {
          "duration": 0.3896105000000034,
          "durationTicks": 48,
          "midi": 39,
          "name": "D#2",
          "ticks": 6912,
          "time": 56.103911999999994,
          "velocity": 0.9448818897637795
        },
        {
          "duration": 1.168831499999996,
          "durationTicks": 144,
          "midi": 32,
          "name": "G#1",
          "ticks": 6960,
          "time": 56.4935225,
          "velocity": 0.9448818897637795
        },
        {
          "duration": 0.3896105000000034,
          "durationTicks": 48,
          "midi": 32,
          "name": "G#1",
          "ticks": 7104,
          "time": 57.66235399999999,
          "velocity": 0.9448818897637795
        },
        {
          "duration": 1.168831499999996,
          "durationTicks": 144,
          "midi": 32,
          "name": "G#1",
          "ticks": 7152,
          "time": 58.0519645,
          "velocity": 0.9448818897637795
        },
        {
          "duration": 0.3896105000000034,
          "durationTicks": 48,
          "midi": 32,
          "name": "G#1",
          "ticks": 7296,
          "time": 59.22079599999999,
          "velocity": 0.9448818897637795
        },
        {
          "duration": 1.168831499999996,
          "durationTicks": 144,
          "midi": 30,
          "name": "F#1",
          "ticks": 7344,
          "time": 59.610406499999996,
          "velocity": 0.9448818897637795
        },
        {
          "duration": 0.3896105000000034,
          "durationTicks": 48,
          "midi": 30,
          "name": "F#1",
          "ticks": 7488,
          "time": 60.77923799999999,
          "velocity": 0.9448818897637795
        },
        {
          "duration": 1.168831499999996,
          "durationTicks": 144,
          "midi": 30,
          "name": "F#1",
          "ticks": 7536,
          "time": 61.168848499999996,
          "velocity": 0.9448818897637795
        },
        {
          "duration": 0.3896105000000034,
          "durationTicks": 48,
          "midi": 30,
          "name": "F#1",
          "ticks": 7680,
          "time": 62.33767999999999,
          "velocity": 0.9448818897637795
        },
        {
          "duration": 1.1688315000000031,
          "durationTicks": 144,
          "midi": 41,
          "name": "F2",
          "ticks": 7728,
          "time": 62.727290499999995,
          "velocity": 0.9448818897637795
        },
        {
          "duration": 0.3896104999999963,
          "durationTicks": 48,
          "midi": 36,
          "name": "C2",
          "ticks": 7872,
          "time": 63.896122,
          "velocity": 0.9448818897637795
        },
        {
          "duration": 1.168831499999996,
          "durationTicks": 144,
          "midi": 34,
          "name": "A#1",
          "ticks": 7920,
          "time": 64.2857325,
          "velocity": 0.9448818897637795
        },
        {
          "duration": 0.3896105000000034,
          "durationTicks": 48,
          "midi": 34,
          "name": "A#1",
          "ticks": 8064,
          "time": 65.45456399999999,
          "velocity": 0.9448818897637795
        },
        {
          "duration": 1.168831499999996,
          "durationTicks": 144,
          "midi": 39,
          "name": "D#2",
          "ticks": 8112,
          "time": 65.8441745,
          "velocity": 0.9448818897637795
        },
        {
          "duration": 0.3896105000000034,
          "durationTicks": 48,
          "midi": 39,
          "name": "D#2",
          "ticks": 8256,
          "time": 67.01300599999999,
          "velocity": 0.9448818897637795
        },
        {
          "duration": 1.168831499999996,
          "durationTicks": 144,
          "midi": 39,
          "name": "D#2",
          "ticks": 8304,
          "time": 67.4026165,
          "velocity": 0.9448818897637795
        },
        {
          "duration": 0.3896105000000034,
          "durationTicks": 48,
          "midi": 34,
          "name": "A#1",
          "ticks": 8448,
          "time": 68.57144799999999,
          "velocity": 0.9448818897637795
        },
        {
          "duration": 1.168831499999996,
          "durationTicks": 144,
          "midi": 32,
          "name": "G#1",
          "ticks": 8496,
          "time": 68.9610585,
          "velocity": 0.9448818897637795
        },
        {
          "duration": 0.3896105000000034,
          "durationTicks": 48,
          "midi": 32,
          "name": "G#1",
          "ticks": 8640,
          "time": 70.12988999999999,
          "velocity": 0.9448818897637795
        },
        {
          "duration": 1.5503251145833303,
          "durationTicks": 191,
          "midi": 32,
          "name": "G#1",
          "ticks": 8688,
          "time": 70.51950049999999,
          "velocity": 0.9448818897637795
        },
        {
          "duration": 2.7272735000000097,
          "durationTicks": 336,
          "midi": 37,
          "name": "C#2",
          "ticks": 8880,
          "time": 72.07794249999999,
          "velocity": 0.9448818897637795
        },
        {
          "duration": 0.3896104999999892,
          "durationTicks": 48,
          "midi": 32,
          "name": "G#1",
          "ticks": 9216,
          "time": 74.805216,
          "velocity": 0.9448818897637795
        },
        {
          "duration": 2.7272735000000097,
          "durationTicks": 336,
          "midi": 37,
          "name": "C#2",
          "ticks": 9264,
          "time": 75.19482649999999,
          "velocity": 0.9448818897637795
        },
        {
          "duration": 0.3896104999999892,
          "durationTicks": 48,
          "midi": 32,
          "name": "G#1",
          "ticks": 9600,
          "time": 77.9221,
          "velocity": 0.9448818897637795
        },
        {
          "duration": 2.7272735000000097,
          "durationTicks": 336,
          "midi": 37,
          "name": "C#2",
          "ticks": 9648,
          "time": 78.31171049999999,
          "velocity": 0.9448818897637795
        },
        {
          "duration": 0.3896104999999892,
          "durationTicks": 48,
          "midi": 32,
          "name": "G#1",
          "ticks": 9984,
          "time": 81.038984,
          "velocity": 0.9448818897637795
        },
        {
          "duration": 2.7191566145833406,
          "durationTicks": 335,
          "midi": 37,
          "name": "C#2",
          "ticks": 10032,
          "time": 81.42859449999999,
          "velocity": 0.9448818897637795
        },
        {
          "duration": 0.3814936145833201,
          "durationTicks": 47,
          "midi": 32,
          "name": "G#1",
          "ticks": 10368,
          "time": 84.155868,
          "velocity": 0.9448818897637795
        },
        {
          "duration": 1.1688315000000102,
          "durationTicks": 144,
          "midi": 37,
          "name": "C#2",
          "ticks": 10416,
          "time": 84.54547849999999,
          "velocity": 0.9448818897637795
        },
        {
          "duration": 0.3896104999999892,
          "durationTicks": 48,
          "midi": 32,
          "name": "G#1",
          "ticks": 10560,
          "time": 85.71431,
          "velocity": 0.9448818897637795
        },
        {
          "duration": 1.5584420000000136,
          "durationTicks": 192,
          "midi": 30,
          "name": "F#1",
          "ticks": 10608,
          "time": 86.10392049999999,
          "velocity": 0.9448818897637795
        },
        {
          "duration": 1.168831499999996,
          "durationTicks": 144,
          "midi": 37,
          "name": "C#2",
          "ticks": 10800,
          "time": 87.6623625,
          "velocity": 0.9448818897637795
        },
        {
          "duration": 0.3896105000000034,
          "durationTicks": 48,
          "midi": 32,
          "name": "G#1",
          "ticks": 10944,
          "time": 88.831194,
          "velocity": 0.9448818897637795
        },
        {
          "duration": 1.5584419999999994,
          "durationTicks": 192,
          "midi": 30,
          "name": "F#1",
          "ticks": 10992,
          "time": 89.2208045,
          "velocity": 0.9448818897637795
        },
        {
          "duration": 1.168831499999996,
          "durationTicks": 144,
          "midi": 41,
          "name": "F2",
          "ticks": 11184,
          "time": 90.7792465,
          "velocity": 0.9448818897637795
        },
        {
          "duration": 0.3896105000000034,
          "durationTicks": 48,
          "midi": 36,
          "name": "C2",
          "ticks": 11328,
          "time": 91.948078,
          "velocity": 0.9448818897637795
        },
        {
          "duration": 1.5584419999999994,
          "durationTicks": 192,
          "midi": 34,
          "name": "A#1",
          "ticks": 11376,
          "time": 92.3376885,
          "velocity": 0.9448818897637795
        },
        {
          "duration": 1.168831499999996,
          "durationTicks": 144,
          "midi": 39,
          "name": "D#2",
          "ticks": 11568,
          "time": 93.8961305,
          "velocity": 0.9448818897637795
        },
        {
          "duration": 0.3896105000000034,
          "durationTicks": 48,
          "midi": 39,
          "name": "D#2",
          "ticks": 11712,
          "time": 95.064962,
          "velocity": 0.9448818897637795
        },
        {
          "duration": 1.5584419999999994,
          "durationTicks": 192,
          "midi": 33,
          "name": "A1",
          "ticks": 11760,
          "time": 95.4545725,
          "velocity": 0.9448818897637795
        },
        {
          "duration": 1.168831499999996,
          "durationTicks": 144,
          "midi": 37,
          "name": "C#2",
          "ticks": 11952,
          "time": 97.0130145,
          "velocity": 0.9448818897637795
        },
        {
          "duration": 0.3896105000000034,
          "durationTicks": 48,
          "midi": 32,
          "name": "G#1",
          "ticks": 12096,
          "time": 98.181846,
          "velocity": 0.9448818897637795
        },
        {
          "duration": 1.5584419999999994,
          "durationTicks": 192,
          "midi": 30,
          "name": "F#1",
          "ticks": 12144,
          "time": 98.5714565,
          "velocity": 0.9448818897637795
        },
        {
          "duration": 1.168831499999996,
          "durationTicks": 144,
          "midi": 37,
          "name": "C#2",
          "ticks": 12336,
          "time": 100.1298985,
          "velocity": 0.9448818897637795
        },
        {
          "duration": 0.3896105000000034,
          "durationTicks": 48,
          "midi": 32,
          "name": "G#1",
          "ticks": 12480,
          "time": 101.29872999999999,
          "velocity": 0.9448818897637795
        },
        {
          "duration": 1.168831499999996,
          "durationTicks": 144,
          "midi": 30,
          "name": "F#1",
          "ticks": 12528,
          "time": 101.6883405,
          "velocity": 0.9448818897637795
        },
        {
          "duration": 0.3896105000000034,
          "durationTicks": 48,
          "midi": 37,
          "name": "C#2",
          "ticks": 12672,
          "time": 102.85717199999999,
          "velocity": 0.9448818897637795
        },
        {
          "duration": 1.168831499999996,
          "durationTicks": 144,
          "midi": 41,
          "name": "F2",
          "ticks": 12720,
          "time": 103.2467825,
          "velocity": 0.9448818897637795
        },
        {
          "duration": 0.3896105000000034,
          "durationTicks": 48,
          "midi": 41,
          "name": "F2",
          "ticks": 12864,
          "time": 104.41561399999999,
          "velocity": 0.9448818897637795
        },
        {
          "duration": 1.5584419999999994,
          "durationTicks": 192,
          "midi": 34,
          "name": "A#1",
          "ticks": 12912,
          "time": 104.8052245,
          "velocity": 0.9448818897637795
        },
        {
          "duration": 1.168831499999996,
          "durationTicks": 144,
          "midi": 39,
          "name": "D#2",
          "ticks": 13104,
          "time": 106.3636665,
          "velocity": 0.9448818897637795
        },
        {
          "duration": 0.3896105000000034,
          "durationTicks": 48,
          "midi": 39,
          "name": "D#2",
          "ticks": 13248,
          "time": 107.53249799999999,
          "velocity": 0.9448818897637795
        },
        {
          "duration": 1.5503251145833445,
          "durationTicks": 191,
          "midi": 44,
          "name": "G#2",
          "ticks": 13296,
          "time": 107.9221085,
          "velocity": 0.9448818897637795
        },
        {
          "duration": 1.1607146145833411,
          "durationTicks": 143,
          "midi": 37,
          "name": "C#2",
          "ticks": 13488,
          "time": 109.48055049999999,
          "velocity": 0.9448818897637795
        },
        {
          "duration": 0.3814936145833485,
          "durationTicks": 47,
          "midi": 32,
          "name": "G#1",
          "ticks": 13632,
          "time": 110.64938199999999,
          "velocity": 0.9448818897637795
        },
        {
          "duration": 1.1607146145833411,
          "durationTicks": 143,
          "midi": 30,
          "name": "F#1",
          "ticks": 13680,
          "time": 111.03899249999999,
          "velocity": 0.9448818897637795
        },
        {
          "duration": 0.3896105000000034,
          "durationTicks": 48,
          "midi": 32,
          "name": "G#1",
          "ticks": 13824,
          "time": 112.20782399999999,
          "velocity": 0.9448818897637795
        },
        {
          "duration": 1.168831499999996,
          "durationTicks": 144,
          "midi": 37,
          "name": "C#2",
          "ticks": 13872,
          "time": 112.59743449999999,
          "velocity": 0.9448818897637795
        },
        {
          "duration": 0.3896105000000034,
          "durationTicks": 48,
          "midi": 32,
          "name": "G#1",
          "ticks": 14016,
          "time": 113.76626599999999,
          "velocity": 0.9448818897637795
        },
        {
          "duration": 1.1607146145833411,
          "durationTicks": 143,
          "midi": 30,
          "name": "F#1",
          "ticks": 14064,
          "time": 114.15587649999999,
          "velocity": 0.9448818897637795
        },
        {
          "duration": 0.3814936145833485,
          "durationTicks": 47,
          "midi": 32,
          "name": "G#1",
          "ticks": 14208,
          "time": 115.32470799999999,
          "velocity": 0.9448818897637795
        },
        {
          "duration": 1.1607146145833411,
          "durationTicks": 143,
          "midi": 37,
          "name": "C#2",
          "ticks": 14256,
          "time": 115.71431849999999,
          "velocity": 0.9448818897637795
        },
        {
          "duration": 0.3814936145833485,
          "durationTicks": 47,
          "midi": 32,
          "name": "G#1",
          "ticks": 14400,
          "time": 116.88314999999999,
          "velocity": 0.9448818897637795
        },
        {
          "duration": 1.1607146145833411,
          "durationTicks": 143,
          "midi": 30,
          "name": "F#1",
          "ticks": 14448,
          "time": 117.27276049999999,
          "velocity": 0.9448818897637795
        },
        {
          "duration": 0.3896105000000034,
          "durationTicks": 48,
          "midi": 32,
          "name": "G#1",
          "ticks": 14592,
          "time": 118.44159199999999,
          "velocity": 0.9448818897637795
        },
        {
          "duration": 1.168831499999996,
          "durationTicks": 144,
          "midi": 37,
          "name": "C#2",
          "ticks": 14640,
          "time": 118.83120249999999,
          "velocity": 0.9448818897637795
        },
        {
          "duration": 0.3814936145833485,
          "durationTicks": 47,
          "midi": 32,
          "name": "G#1",
          "ticks": 14784,
          "time": 120.00003399999999,
          "velocity": 0.9448818897637795
        },
        {
          "duration": 3.108767114583344,
          "durationTicks": 383,
          "midi": 31,
          "name": "G1",
          "ticks": 14832,
          "time": 120.38964449999999,
          "velocity": 0.9448818897637795
        },
        {
          "duration": 1.168831499999996,
          "durationTicks": 144,
          "midi": 30,
          "name": "F#1",
          "ticks": 15216,
          "time": 123.50652849999999,
          "velocity": 0.9448818897637795
        },
        {
          "duration": 0.3896105000000034,
          "durationTicks": 48,
          "midi": 30,
          "name": "F#1",
          "ticks": 15360,
          "time": 124.67535999999998,
          "velocity": 0.9448818897637795
        },
        {
          "duration": 1.1688315000000102,
          "durationTicks": 144,
          "midi": 30,
          "name": "F#1",
          "ticks": 15408,
          "time": 125.06497049999999,
          "velocity": 0.9448818897637795
        },
        {
          "duration": 0.3896104999999892,
          "durationTicks": 48,
          "midi": 30,
          "name": "F#1",
          "ticks": 15552,
          "time": 126.233802,
          "velocity": 0.9448818897637795
        },
        {
          "duration": 1.1688315000000102,
          "durationTicks": 144,
          "midi": 41,
          "name": "F2",
          "ticks": 15600,
          "time": 126.62341249999999,
          "velocity": 0.9448818897637795
        },
        {
          "duration": 0.3896104999999892,
          "durationTicks": 48,
          "midi": 36,
          "name": "C2",
          "ticks": 15744,
          "time": 127.792244,
          "velocity": 0.9448818897637795
        },
        {
          "duration": 1.1688315000000102,
          "durationTicks": 144,
          "midi": 34,
          "name": "A#1",
          "ticks": 15792,
          "time": 128.1818545,
          "velocity": 0.9448818897637795
        },
        {
          "duration": 0.3896105000000034,
          "durationTicks": 48,
          "midi": 34,
          "name": "A#1",
          "ticks": 15936,
          "time": 129.350686,
          "velocity": 0.9448818897637795
        },
        {
          "duration": 1.1688314999999818,
          "durationTicks": 144,
          "midi": 39,
          "name": "D#2",
          "ticks": 15984,
          "time": 129.7402965,
          "velocity": 0.9448818897637795
        },
        {
          "duration": 0.3896105000000034,
          "durationTicks": 48,
          "midi": 39,
          "name": "D#2",
          "ticks": 16128,
          "time": 130.90912799999998,
          "velocity": 0.9448818897637795
        },
        {
          "duration": 1.1688315000000102,
          "durationTicks": 144,
          "midi": 39,
          "name": "D#2",
          "ticks": 16176,
          "time": 131.29873849999998,
          "velocity": 0.9448818897637795
        },
        {
          "duration": 0.3896105000000034,
          "durationTicks": 48,
          "midi": 39,
          "name": "D#2",
          "ticks": 16320,
          "time": 132.46757,
          "velocity": 0.9448818897637795
        },
        {
          "duration": 1.1688314999999818,
          "durationTicks": 144,
          "midi": 32,
          "name": "G#1",
          "ticks": 16368,
          "time": 132.8571805,
          "velocity": 0.9448818897637795
        },
        {
          "duration": 0.3896105000000034,
          "durationTicks": 48,
          "midi": 32,
          "name": "G#1",
          "ticks": 16512,
          "time": 134.02601199999998,
          "velocity": 0.9448818897637795
        },
        {
          "duration": 1.1688315000000102,
          "durationTicks": 144,
          "midi": 32,
          "name": "G#1",
          "ticks": 16560,
          "time": 134.41562249999998,
          "velocity": 0.9448818897637795
        },
        {
          "duration": 0.3896105000000034,
          "durationTicks": 48,
          "midi": 32,
          "name": "G#1",
          "ticks": 16704,
          "time": 135.584454,
          "velocity": 0.9448818897637795
        },
        {
          "duration": 1.1688314999999818,
          "durationTicks": 144,
          "midi": 30,
          "name": "F#1",
          "ticks": 16752,
          "time": 135.9740645,
          "velocity": 0.9448818897637795
        },
        {
          "duration": 0.3896105000000034,
          "durationTicks": 48,
          "midi": 30,
          "name": "F#1",
          "ticks": 16896,
          "time": 137.14289599999998,
          "velocity": 0.9448818897637795
        },
        {
          "duration": 1.1688315000000102,
          "durationTicks": 144,
          "midi": 30,
          "name": "F#1",
          "ticks": 16944,
          "time": 137.53250649999998,
          "velocity": 0.9448818897637795
        },
        {
          "duration": 0.3896105000000034,
          "durationTicks": 48,
          "midi": 30,
          "name": "F#1",
          "ticks": 17088,
          "time": 138.701338,
          "velocity": 0.9448818897637795
        },
        {
          "duration": 1.1688314999999818,
          "durationTicks": 144,
          "midi": 41,
          "name": "F2",
          "ticks": 17136,
          "time": 139.0909485,
          "velocity": 0.9448818897637795
        },
        {
          "duration": 0.3896105000000034,
          "durationTicks": 48,
          "midi": 36,
          "name": "C2",
          "ticks": 17280,
          "time": 140.25977999999998,
          "velocity": 0.9448818897637795
        },
        {
          "duration": 1.1688315000000102,
          "durationTicks": 144,
          "midi": 34,
          "name": "A#1",
          "ticks": 17328,
          "time": 140.64939049999998,
          "velocity": 0.9448818897637795
        },
        {
          "duration": 0.3896105000000034,
          "durationTicks": 48,
          "midi": 34,
          "name": "A#1",
          "ticks": 17472,
          "time": 141.818222,
          "velocity": 0.9448818897637795
        },
        {
          "duration": 1.1688314999999818,
          "durationTicks": 144,
          "midi": 39,
          "name": "D#2",
          "ticks": 17520,
          "time": 142.2078325,
          "velocity": 0.9448818897637795
        },
        {
          "duration": 0.3896105000000034,
          "durationTicks": 48,
          "midi": 39,
          "name": "D#2",
          "ticks": 17664,
          "time": 143.37666399999998,
          "velocity": 0.9448818897637795
        },
        {
          "duration": 1.1688315000000102,
          "durationTicks": 144,
          "midi": 39,
          "name": "D#2",
          "ticks": 17712,
          "time": 143.76627449999998,
          "velocity": 0.9448818897637795
        },
        {
          "duration": 0.3896105000000034,
          "durationTicks": 48,
          "midi": 34,
          "name": "A#1",
          "ticks": 17856,
          "time": 144.935106,
          "velocity": 0.9448818897637795
        },
        {
          "duration": 1.1688314999999818,
          "durationTicks": 144,
          "midi": 32,
          "name": "G#1",
          "ticks": 17904,
          "time": 145.3247165,
          "velocity": 0.9448818897637795
        },
        {
          "duration": 0.3896105000000034,
          "durationTicks": 48,
          "midi": 32,
          "name": "G#1",
          "ticks": 18048,
          "time": 146.49354799999998,
          "velocity": 0.9448818897637795
        },
        {
          "duration": 1.1688315000000102,
          "durationTicks": 144,
          "midi": 32,
          "name": "G#1",
          "ticks": 18096,
          "time": 146.88315849999998,
          "velocity": 0.9448818897637795
        },
        {
          "duration": 0.3896105000000034,
          "durationTicks": 48,
          "midi": 39,
          "name": "D#2",
          "ticks": 18240,
          "time": 148.05199,
          "velocity": 0.9448818897637795
        },
        {
          "duration": 2.7272734999999955,
          "durationTicks": 336,
          "midi": 37,
          "name": "C#2",
          "ticks": 18288,
          "time": 148.4416005,
          "velocity": 0.9448818897637795
        },
        {
          "duration": 0.3896105000000034,
          "durationTicks": 48,
          "midi": 32,
          "name": "G#1",
          "ticks": 18624,
          "time": 151.168874,
          "velocity": 0.9448818897637795
        },
        {
          "duration": 2.7272734999999955,
          "durationTicks": 336,
          "midi": 37,
          "name": "C#2",
          "ticks": 18672,
          "time": 151.5584845,
          "velocity": 0.9448818897637795
        },
        {
          "duration": 0.3896105000000034,
          "durationTicks": 48,
          "midi": 32,
          "name": "G#1",
          "ticks": 19008,
          "time": 154.285758,
          "velocity": 0.9448818897637795
        },
        {
          "duration": 2.7272734999999955,
          "durationTicks": 336,
          "midi": 37,
          "name": "C#2",
          "ticks": 19056,
          "time": 154.6753685,
          "velocity": 0.9448818897637795
        },
        {
          "duration": 0.3896105000000034,
          "durationTicks": 48,
          "midi": 32,
          "name": "G#1",
          "ticks": 19392,
          "time": 157.402642,
          "velocity": 0.9448818897637795
        },
        {
          "duration": 2.7552019687500433,
          "durationTicks": 335,
          "midi": 37,
          "name": "C#2",
          "ticks": 19440,
          "time": 157.7922525,
          "velocity": 0.9448818897637795
        },
        {
          "duration": 0.5646554270833519,
          "durationTicks": 47,
          "midi": 32,
          "name": "G#1",
          "ticks": 19776,
          "time": 160.55770037500002,
          "velocity": 0.9448818897637795
        },
        {
          "duration": 5.1594877499999825,
          "durationTicks": 575,
          "midi": 37,
          "name": "C#2",
          "ticks": 19824,
          "time": 161.13656034375003,
          "velocity": 0.9448818897637795
        }
      ]
    },
    {
      "channel": 0,
      "controlChanges": {
        "0": [
          {
            "number": 0,
            "ticks": 0,
            "time": 0,
            "value": 0
          }
        ],
        "32": [
          {
            "number": 32,
            "ticks": 0,
            "time": 0,
            "value": 0.015748031496062992
          }
        ]
      },
      "pitchBends": [],
      "instrument": {
        "family": "piano",
        "number": 0,
        "name": "acoustic grand piano"
      },
      "name": "",
      "notes": [],
      "endOfTrackTicks": 17819
    },
    {
      "channel": 8,
      "controlChanges": {
        "6": [
          {
            "number": 6,
            "ticks": 7,
            "time": 0.05681819791666667,
            "value": 0.5039370078740157
          },
          {
            "number": 6,
            "ticks": 10,
            "time": 0.08116885416666667,
            "value": 0.5511811023622047
          },
          {
            "number": 6,
            "ticks": 13,
            "time": 0.10551951041666666,
            "value": 0.5196850393700787
          }
        ],
        "7": [
          {
            "number": 7,
            "ticks": 0,
            "time": 0,
            "value": 0.6299212598425197
          }
        ],
        "10": [
          {
            "number": 10,
            "ticks": 0,
            "time": 0,
            "value": 0.15748031496062992
          }
        ],
        "91": [
          {
            "number": 91,
            "ticks": 0,
            "time": 0,
            "value": 1
          }
        ],
        "94": [
          {
            "number": 94,
            "ticks": 0,
            "time": 0,
            "value": 0.11811023622047244
          }
        ],
        "98": [
          {
            "number": 98,
            "ticks": 6,
            "time": 0.048701312499999996,
            "value": 0.25984251968503935
          },
          {
            "number": 98,
            "ticks": 9,
            "time": 0.07305196875,
            "value": 0.25196850393700787
          },
          {
            "number": 98,
            "ticks": 12,
            "time": 0.09740262499999999,
            "value": 0.2992125984251969
          }
        ],
        "99": [
          {
            "number": 99,
            "ticks": 5,
            "time": 0.04058442708333333,
            "value": 0.007874015748031496
          },
          {
            "number": 99,
            "ticks": 8,
            "time": 0.06493508333333332,
            "value": 0.007874015748031496
          },
          {
            "number": 99,
            "ticks": 11,
            "time": 0.08928573958333333,
            "value": 0.1889763779527559
          }
        ],
        "121": [
          {
            "number": 121,
            "ticks": 0,
            "time": 0,
            "value": 0
          }
        ]
      },
      "pitchBends": [],
      "instrument": {
        "family": "brass",
        "number": 57,
        "name": "trombone"
      },
      "name": "",
      "notes": [
        {
          "duration": 0.08928573958333264,
          "durationTicks": 11,
          "midi": 75,
          "name": "D#5",
          "ticks": 624,
          "time": 5.0649365,
          "velocity": 0.8661417322834646
        },
        {
          "duration": 0.08928573958333264,
          "durationTicks": 11,
          "midi": 75,
          "name": "D#5",
          "ticks": 672,
          "time": 5.454547,
          "velocity": 0.5118110236220472
        },
        {
          "duration": 0.08928573958333264,
          "durationTicks": 11,
          "midi": 75,
          "name": "D#5",
          "ticks": 720,
          "time": 5.8441575,
          "velocity": 0.2755905511811024
        },
        {
          "duration": 0.08928573958333352,
          "durationTicks": 11,
          "midi": 75,
          "name": "D#5",
          "ticks": 1392,
          "time": 11.2987045,
          "velocity": 0.8661417322834646
        },
        {
          "duration": 0.08928573958333352,
          "durationTicks": 11,
          "midi": 75,
          "name": "D#5",
          "ticks": 1440,
          "time": 11.688315,
          "velocity": 0.5118110236220472
        },
        {
          "duration": 0.08928573958333352,
          "durationTicks": 11,
          "midi": 75,
          "name": "D#5",
          "ticks": 1488,
          "time": 12.0779255,
          "velocity": 0.2755905511811024
        },
        {
          "duration": 0.0892857395833353,
          "durationTicks": 11,
          "midi": 75,
          "name": "D#5",
          "ticks": 2160,
          "time": 17.532472499999997,
          "velocity": 0.8661417322834646
        },
        {
          "duration": 0.0892857395833353,
          "durationTicks": 11,
          "midi": 75,
          "name": "D#5",
          "ticks": 2208,
          "time": 17.922082999999997,
          "velocity": 0.5118110236220472
        },
        {
          "duration": 0.0892857395833353,
          "durationTicks": 11,
          "midi": 75,
          "name": "D#5",
          "ticks": 2256,
          "time": 18.311693499999997,
          "velocity": 0.2755905511811024
        },
        {
          "duration": 0.08928573958333175,
          "durationTicks": 11,
          "midi": 75,
          "name": "D#5",
          "ticks": 2928,
          "time": 23.7662405,
          "velocity": 0.8661417322834646
        },
        {
          "duration": 0.08928573958333175,
          "durationTicks": 11,
          "midi": 75,
          "name": "D#5",
          "ticks": 2976,
          "time": 24.155851,
          "velocity": 0.5118110236220472
        },
        {
          "duration": 0.08928573958333175,
          "durationTicks": 11,
          "midi": 75,
          "name": "D#5",
          "ticks": 3024,
          "time": 24.5454615,
          "velocity": 0.2755905511811024
        },
        {
          "duration": 0.0892857395833353,
          "durationTicks": 11,
          "midi": 75,
          "name": "D#5",
          "ticks": 3696,
          "time": 30.000008499999996,
          "velocity": 0.8661417322834646
        },
        {
          "duration": 0.0892857395833353,
          "durationTicks": 11,
          "midi": 75,
          "name": "D#5",
          "ticks": 3744,
          "time": 30.389618999999996,
          "velocity": 0.5118110236220472
        },
        {
          "duration": 0.0892857395833353,
          "durationTicks": 11,
          "midi": 75,
          "name": "D#5",
          "ticks": 3792,
          "time": 30.779229499999996,
          "velocity": 0.2755905511811024
        },
        {
          "duration": 0.08928573958333175,
          "durationTicks": 11,
          "midi": 75,
          "name": "D#5",
          "ticks": 4464,
          "time": 36.2337765,
          "velocity": 0.8661417322834646
        },
        {
          "duration": 0.08928573958333885,
          "durationTicks": 11,
          "midi": 75,
          "name": "D#5",
          "ticks": 4512,
          "time": 36.623386999999994,
          "velocity": 0.5118110236220472
        },
        {
          "duration": 0.08928573958333175,
          "durationTicks": 11,
          "midi": 75,
          "name": "D#5",
          "ticks": 4560,
          "time": 37.0129975,
          "velocity": 0.2755905511811024
        },
        {
          "duration": 0.08928573958333885,
          "durationTicks": 11,
          "midi": 75,
          "name": "D#5",
          "ticks": 5232,
          "time": 42.467544499999995,
          "velocity": 0.8661417322834646
        },
        {
          "duration": 0.08928573958333175,
          "durationTicks": 11,
          "midi": 75,
          "name": "D#5",
          "ticks": 5280,
          "time": 42.857155,
          "velocity": 0.5118110236220472
        },
        {
          "duration": 0.08928573958333885,
          "durationTicks": 11,
          "midi": 75,
          "name": "D#5",
          "ticks": 5328,
          "time": 43.246765499999995,
          "velocity": 0.2755905511811024
        },
        {
          "duration": 0.08928573958333885,
          "durationTicks": 11,
          "midi": 75,
          "name": "D#5",
          "ticks": 5616,
          "time": 45.584428499999994,
          "velocity": 0.8661417322834646
        },
        {
          "duration": 0.08928573958333175,
          "durationTicks": 11,
          "midi": 75,
          "name": "D#5",
          "ticks": 5664,
          "time": 45.974039,
          "velocity": 0.5118110236220472
        },
        {
          "duration": 0.08928573958333885,
          "durationTicks": 11,
          "midi": 75,
          "name": "D#5",
          "ticks": 5712,
          "time": 46.363649499999994,
          "velocity": 0.2755905511811024
        },
        {
          "duration": 0.08928573958333885,
          "durationTicks": 11,
          "midi": 75,
          "name": "D#5",
          "ticks": 6000,
          "time": 48.70131249999999,
          "velocity": 0.8661417322834646
        },
        {
          "duration": 0.08928573958333175,
          "durationTicks": 11,
          "midi": 75,
          "name": "D#5",
          "ticks": 6048,
          "time": 49.090923,
          "velocity": 0.5118110236220472
        },
        {
          "duration": 0.08928573958333885,
          "durationTicks": 11,
          "midi": 75,
          "name": "D#5",
          "ticks": 6096,
          "time": 49.48053349999999,
          "velocity": 0.2755905511811024
        },
        {
          "duration": 0.08928573958332464,
          "durationTicks": 11,
          "midi": 75,
          "name": "D#5",
          "ticks": 6768,
          "time": 54.9350805,
          "velocity": 0.8661417322834646
        },
        {
          "duration": 0.08928573958333175,
          "durationTicks": 11,
          "midi": 75,
          "name": "D#5",
          "ticks": 6816,
          "time": 55.324690999999994,
          "velocity": 0.5118110236220472
        },
        {
          "duration": 0.08928573958332464,
          "durationTicks": 11,
          "midi": 75,
          "name": "D#5",
          "ticks": 6864,
          "time": 55.7143015,
          "velocity": 0.2755905511811024
        },
        {
          "duration": 0.08928573958333175,
          "durationTicks": 11,
          "midi": 75,
          "name": "D#5",
          "ticks": 7536,
          "time": 61.168848499999996,
          "velocity": 0.8661417322834646
        },
        {
          "duration": 0.08928573958333175,
          "durationTicks": 11,
          "midi": 75,
          "name": "D#5",
          "ticks": 7584,
          "time": 61.55845899999999,
          "velocity": 0.5118110236220472
        },
        {
          "duration": 0.08928573958333175,
          "durationTicks": 11,
          "midi": 75,
          "name": "D#5",
          "ticks": 7632,
          "time": 61.948069499999995,
          "velocity": 0.2755905511811024
        },
        {
          "duration": 0.08928573958333175,
          "durationTicks": 11,
          "midi": 75,
          "name": "D#5",
          "ticks": 8304,
          "time": 67.4026165,
          "velocity": 0.8661417322834646
        },
        {
          "duration": 0.08928573958333175,
          "durationTicks": 11,
          "midi": 75,
          "name": "D#5",
          "ticks": 8352,
          "time": 67.792227,
          "velocity": 0.5118110236220472
        },
        {
          "duration": 0.08928573958331754,
          "durationTicks": 11,
          "midi": 75,
          "name": "D#5",
          "ticks": 8400,
          "time": 68.1818375,
          "velocity": 0.2755905511811024
        },
        {
          "duration": 0.08928573958333175,
          "durationTicks": 11,
          "midi": 75,
          "name": "D#5",
          "ticks": 10608,
          "time": 86.10392049999999,
          "velocity": 0.8661417322834646
        },
        {
          "duration": 0.08928573958333175,
          "durationTicks": 11,
          "midi": 75,
          "name": "D#5",
          "ticks": 10656,
          "time": 86.49353099999999,
          "velocity": 0.5118110236220472
        },
        {
          "duration": 0.08928573958333175,
          "durationTicks": 11,
          "midi": 75,
          "name": "D#5",
          "ticks": 10704,
          "time": 86.8831415,
          "velocity": 0.2755905511811024
        },
        {
          "duration": 0.08928573958331754,
          "durationTicks": 11,
          "midi": 75,
          "name": "D#5",
          "ticks": 11376,
          "time": 92.3376885,
          "velocity": 0.8661417322834646
        },
        {
          "duration": 0.08928573958333175,
          "durationTicks": 11,
          "midi": 75,
          "name": "D#5",
          "ticks": 11424,
          "time": 92.72729899999999,
          "velocity": 0.5118110236220472
        },
        {
          "duration": 0.08928573958333175,
          "durationTicks": 11,
          "midi": 75,
          "name": "D#5",
          "ticks": 11472,
          "time": 93.11690949999999,
          "velocity": 0.2755905511811024
        },
        {
          "duration": 0.08928573958333175,
          "durationTicks": 11,
          "midi": 75,
          "name": "D#5",
          "ticks": 12144,
          "time": 98.5714565,
          "velocity": 0.8661417322834646
        },
        {
          "duration": 0.08928573958333175,
          "durationTicks": 11,
          "midi": 75,
          "name": "D#5",
          "ticks": 12192,
          "time": 98.96106699999999,
          "velocity": 0.5118110236220472
        },
        {
          "duration": 0.08928573958333175,
          "durationTicks": 11,
          "midi": 75,
          "name": "D#5",
          "ticks": 12240,
          "time": 99.35067749999999,
          "velocity": 0.2755905511811024
        },
        {
          "duration": 0.08928573958333175,
          "durationTicks": 11,
          "midi": 75,
          "name": "D#5",
          "ticks": 12912,
          "time": 104.8052245,
          "velocity": 0.8661417322834646
        },
        {
          "duration": 0.08928573958333175,
          "durationTicks": 11,
          "midi": 75,
          "name": "D#5",
          "ticks": 12960,
          "time": 105.194835,
          "velocity": 0.5118110236220472
        },
        {
          "duration": 0.08928573958334596,
          "durationTicks": 11,
          "midi": 75,
          "name": "D#5",
          "ticks": 13008,
          "time": 105.58444549999999,
          "velocity": 0.2755905511811024
        },
        {
          "duration": 0.08928573958334596,
          "durationTicks": 11,
          "midi": 75,
          "name": "D#5",
          "ticks": 15408,
          "time": 125.06497049999999,
          "velocity": 0.8661417322834646
        },
        {
          "duration": 0.08928573958334596,
          "durationTicks": 11,
          "midi": 75,
          "name": "D#5",
          "ticks": 15456,
          "time": 125.45458099999999,
          "velocity": 0.5118110236220472
        },
        {
          "duration": 0.08928573958333175,
          "durationTicks": 11,
          "midi": 75,
          "name": "D#5",
          "ticks": 15504,
          "time": 125.8441915,
          "velocity": 0.2755905511811024
        },
        {
          "duration": 0.08928573958334596,
          "durationTicks": 11,
          "midi": 75,
          "name": "D#5",
          "ticks": 16176,
          "time": 131.29873849999998,
          "velocity": 0.8661417322834646
        },
        {
          "duration": 0.08928573958334596,
          "durationTicks": 11,
          "midi": 75,
          "name": "D#5",
          "ticks": 16224,
          "time": 131.688349,
          "velocity": 0.5118110236220472
        },
        {
          "duration": 0.08928573958334596,
          "durationTicks": 11,
          "midi": 75,
          "name": "D#5",
          "ticks": 16272,
          "time": 132.0779595,
          "velocity": 0.2755905511811024
        },
        {
          "duration": 0.08928573958334596,
          "durationTicks": 11,
          "midi": 75,
          "name": "D#5",
          "ticks": 16944,
          "time": 137.53250649999998,
          "velocity": 0.8661417322834646
        },
        {
          "duration": 0.08928573958334596,
          "durationTicks": 11,
          "midi": 75,
          "name": "D#5",
          "ticks": 16992,
          "time": 137.922117,
          "velocity": 0.5118110236220472
        },
        {
          "duration": 0.08928573958334596,
          "durationTicks": 11,
          "midi": 75,
          "name": "D#5",
          "ticks": 17040,
          "time": 138.3117275,
          "velocity": 0.2755905511811024
        },
        {
          "duration": 0.08928573958334596,
          "durationTicks": 11,
          "midi": 75,
          "name": "D#5",
          "ticks": 17712,
          "time": 143.76627449999998,
          "velocity": 0.8661417322834646
        },
        {
          "duration": 0.08928573958334596,
          "durationTicks": 11,
          "midi": 75,
          "name": "D#5",
          "ticks": 17760,
          "time": 144.15588499999998,
          "velocity": 0.5118110236220472
        },
        {
          "duration": 0.08928573958334596,
          "durationTicks": 11,
          "midi": 75,
          "name": "D#5",
          "ticks": 17808,
          "time": 144.5454955,
          "velocity": 0.2755905511811024
        }
      ]
    },
    {
      "channel": 0,
      "controlChanges": {
        "0": [
          {
            "number": 0,
            "ticks": 0,
            "time": 0,
            "value": 0.06299212598425197
          }
        ],
        "32": [
          {
            "number": 32,
            "ticks": 0,
            "time": 0,
            "value": 0.015748031496062992
          }
        ]
      },
      "pitchBends": [],
      "instrument": {
        "family": "piano",
        "number": 0,
        "name": "acoustic grand piano"
      },
      "name": "",
      "notes": [],
      "endOfTrackTicks": 20403
    },
    {
      "channel": 1,
      "controlChanges": {
        "6": [
          {
            "number": 6,
            "ticks": 4,
            "time": 0.03246754166666666,
            "value": 0.4566929133858268
          },
          {
            "number": 6,
            "ticks": 7,
            "time": 0.05681819791666667,
            "value": 0.47244094488188976
          },
          {
            "number": 6,
            "ticks": 10,
            "time": 0.08116885416666667,
            "value": 0.3700787401574803
          },
          {
            "number": 6,
            "ticks": 13,
            "time": 0.10551951041666666,
            "value": 0.47244094488188976
          },
          {
            "number": 6,
            "ticks": 14824,
            "time": 120.32470941666665,
            "value": 0.5039370078740157
          },
          {
            "number": 6,
            "ticks": 15215,
            "time": 123.49841161458333,
            "value": 0.47244094488188976
          }
        ],
        "7": [
          {
            "number": 7,
            "ticks": 0,
            "time": 0,
            "value": 0.9448818897637795
          }
        ],
        "10": [
          {
            "number": 10,
            "ticks": 0,
            "time": 0,
            "value": 0.5511811023622047
          }
        ],
        "91": [
          {
            "number": 91,
            "ticks": 0,
            "time": 0,
            "value": 0.47244094488188976
          }
        ],
        "94": [
          {
            "number": 94,
            "ticks": 2,
            "time": 0.01623377083333333,
            "value": 0.03937007874015748
          }
        ],
        "98": [
          {
            "number": 98,
            "ticks": 3,
            "time": 0.024350656249999998,
            "value": 0.25196850393700787
          },
          {
            "number": 98,
            "ticks": 6,
            "time": 0.048701312499999996,
            "value": 0.25984251968503935
          },
          {
            "number": 98,
            "ticks": 9,
            "time": 0.07305196875,
            "value": 0.7795275590551181
          },
          {
            "number": 98,
            "ticks": 12,
            "time": 0.09740262499999999,
            "value": 0.7874015748031497
          },
          {
            "number": 98,
            "ticks": 14821,
            "time": 120.30035876041666,
            "value": 0.7874015748031497
          },
          {
            "number": 98,
            "ticks": 15214,
            "time": 123.49029472916665,
            "value": 0.7874015748031497
          }
        ],
        "99": [
          {
            "number": 99,
            "ticks": 2,
            "time": 0.01623377083333333,
            "value": 0.007874015748031496
          },
          {
            "number": 99,
            "ticks": 5,
            "time": 0.04058442708333333,
            "value": 0.007874015748031496
          },
          {
            "number": 99,
            "ticks": 8,
            "time": 0.06493508333333332,
            "value": 0.007874015748031496
          },
          {
            "number": 99,
            "ticks": 11,
            "time": 0.08928573958333333,
            "value": 0.007874015748031496
          },
          {
            "number": 99,
            "ticks": 14819,
            "time": 120.28412498958333,
            "value": 0.007874015748031496
          },
          {
            "number": 99,
            "ticks": 15212,
            "time": 123.47406095833333,
            "value": 0.007874015748031496
          }
        ],
        "121": [
          {
            "number": 121,
            "ticks": 0,
            "time": 0,
            "value": 0
          }
        ]
      },
      "pitchBends": [
        {
          "ticks": 44,
          "time": 0.3571429583333333,
          "value": 0
        }
      ],
      "instrument": {
        "family": "piano",
        "number": 1,
        "name": "bright acoustic piano"
      },
      "name": "",
      "notes": [
        {
          "duration": 0.7792209999999997,
          "durationTicks": 96,
          "midi": 56,
          "name": "G#3",
          "ticks": 432,
          "time": 3.5064944999999996,
          "velocity": 1
        },
        {
          "duration": 0.7792209999999997,
          "durationTicks": 96,
          "midi": 60,
          "name": "C4",
          "ticks": 432,
          "time": 3.5064944999999996,
          "velocity": 0.8976377952755905
        },
        {
          "duration": 0.7792209999999997,
          "durationTicks": 96,
          "midi": 61,
          "name": "C#4",
          "ticks": 432,
          "time": 3.5064944999999996,
          "velocity": 0.8976377952755905
        },
        {
          "duration": 0.7792209999999997,
          "durationTicks": 96,
          "midi": 65,
          "name": "F4",
          "ticks": 432,
          "time": 3.5064944999999996,
          "velocity": 0.8976377952755905
        },
        {
          "duration": 0.7792210000000006,
          "durationTicks": 96,
          "midi": 65,
          "name": "F4",
          "ticks": 528,
          "time": 4.285715499999999,
          "velocity": 0.8031496062992126
        },
        {
          "duration": 0.7792210000000006,
          "durationTicks": 96,
          "midi": 61,
          "name": "C#4",
          "ticks": 528,
          "time": 4.285715499999999,
          "velocity": 0.8031496062992126
        },
        {
          "duration": 0.7792210000000006,
          "durationTicks": 96,
          "midi": 56,
          "name": "G#3",
          "ticks": 528,
          "time": 4.285715499999999,
          "velocity": 1
        },
        {
          "duration": 0.7792210000000006,
          "durationTicks": 96,
          "midi": 60,
          "name": "C4",
          "ticks": 528,
          "time": 4.285715499999999,
          "velocity": 0.8031496062992126
        },
        {
          "duration": 0.7792209999999997,
          "durationTicks": 96,
          "midi": 54,
          "name": "F#3",
          "ticks": 624,
          "time": 5.0649365,
          "velocity": 1
        },
        {
          "duration": 0.7792209999999997,
          "durationTicks": 96,
          "midi": 61,
          "name": "C#4",
          "ticks": 624,
          "time": 5.0649365,
          "velocity": 0.8031496062992126
        },
        {
          "duration": 0.7792209999999997,
          "durationTicks": 96,
          "midi": 65,
          "name": "F4",
          "ticks": 624,
          "time": 5.0649365,
          "velocity": 0.8031496062992126
        },
        {
          "duration": 0.7792209999999997,
          "durationTicks": 96,
          "midi": 58,
          "name": "A#3",
          "ticks": 624,
          "time": 5.0649365,
          "velocity": 0.8031496062992126
        },
        {
          "duration": 0.7792209999999997,
          "durationTicks": 96,
          "midi": 54,
          "name": "F#3",
          "ticks": 720,
          "time": 5.8441575,
          "velocity": 1
        },
        {
          "duration": 0.7792209999999997,
          "durationTicks": 96,
          "midi": 61,
          "name": "C#4",
          "ticks": 720,
          "time": 5.8441575,
          "velocity": 0.7637795275590551
        },
        {
          "duration": 0.7792209999999997,
          "durationTicks": 96,
          "midi": 65,
          "name": "F4",
          "ticks": 720,
          "time": 5.8441575,
          "velocity": 0.7637795275590551
        },
        {
          "duration": 0.7792209999999997,
          "durationTicks": 96,
          "midi": 58,
          "name": "A#3",
          "ticks": 720,
          "time": 5.8441575,
          "velocity": 0.7637795275590551
        },
        {
          "duration": 0.7792209999999997,
          "durationTicks": 96,
          "midi": 56,
          "name": "G#3",
          "ticks": 816,
          "time": 6.623378499999999,
          "velocity": 1
        },
        {
          "duration": 0.7792209999999997,
          "durationTicks": 96,
          "midi": 60,
          "name": "C4",
          "ticks": 816,
          "time": 6.623378499999999,
          "velocity": 0.8976377952755905
        },
        {
          "duration": 0.7792209999999997,
          "durationTicks": 96,
          "midi": 61,
          "name": "C#4",
          "ticks": 816,
          "time": 6.623378499999999,
          "velocity": 0.8976377952755905
        },
        {
          "duration": 0.7792209999999997,
          "durationTicks": 96,
          "midi": 65,
          "name": "F4",
          "ticks": 816,
          "time": 6.623378499999999,
          "velocity": 0.8976377952755905
        },
        {
          "duration": 0.7792209999999997,
          "durationTicks": 96,
          "midi": 65,
          "name": "F4",
          "ticks": 912,
          "time": 7.402599499999999,
          "velocity": 0.8031496062992126
        },
        {
          "duration": 0.7792209999999997,
          "durationTicks": 96,
          "midi": 61,
          "name": "C#4",
          "ticks": 912,
          "time": 7.402599499999999,
          "velocity": 0.8031496062992126
        },
        {
          "duration": 0.7792209999999997,
          "durationTicks": 96,
          "midi": 56,
          "name": "G#3",
          "ticks": 912,
          "time": 7.402599499999999,
          "velocity": 1
        },
        {
          "duration": 0.7792209999999997,
          "durationTicks": 96,
          "midi": 60,
          "name": "C4",
          "ticks": 912,
          "time": 7.402599499999999,
          "velocity": 0.8031496062992126
        },
        {
          "duration": 0.7792209999999997,
          "durationTicks": 96,
          "midi": 54,
          "name": "F#3",
          "ticks": 1008,
          "time": 8.181820499999999,
          "velocity": 1
        },
        {
          "duration": 0.7792209999999997,
          "durationTicks": 96,
          "midi": 61,
          "name": "C#4",
          "ticks": 1008,
          "time": 8.181820499999999,
          "velocity": 0.8031496062992126
        },
        {
          "duration": 0.7792209999999997,
          "durationTicks": 96,
          "midi": 65,
          "name": "F4",
          "ticks": 1008,
          "time": 8.181820499999999,
          "velocity": 0.8031496062992126
        },
        {
          "duration": 0.7792209999999997,
          "durationTicks": 96,
          "midi": 58,
          "name": "A#3",
          "ticks": 1008,
          "time": 8.181820499999999,
          "velocity": 0.8031496062992126
        },
        {
          "duration": 0.7792210000000015,
          "durationTicks": 96,
          "midi": 54,
          "name": "F#3",
          "ticks": 1104,
          "time": 8.961041499999999,
          "velocity": 1
        },
        {
          "duration": 0.7792210000000015,
          "durationTicks": 96,
          "midi": 61,
          "name": "C#4",
          "ticks": 1104,
          "time": 8.961041499999999,
          "velocity": 0.7637795275590551
        },
        {
          "duration": 0.7792210000000015,
          "durationTicks": 96,
          "midi": 65,
          "name": "F4",
          "ticks": 1104,
          "time": 8.961041499999999,
          "velocity": 0.7637795275590551
        },
        {
          "duration": 0.7792210000000015,
          "durationTicks": 96,
          "midi": 58,
          "name": "A#3",
          "ticks": 1104,
          "time": 8.961041499999999,
          "velocity": 0.7637795275590551
        },
        {
          "duration": 0.7792209999999997,
          "durationTicks": 96,
          "midi": 56,
          "name": "G#3",
          "ticks": 1200,
          "time": 9.7402625,
          "velocity": 1
        },
        {
          "duration": 0.7792209999999997,
          "durationTicks": 96,
          "midi": 60,
          "name": "C4",
          "ticks": 1200,
          "time": 9.7402625,
          "velocity": 0.8976377952755905
        },
        {
          "duration": 0.7792209999999997,
          "durationTicks": 96,
          "midi": 61,
          "name": "C#4",
          "ticks": 1200,
          "time": 9.7402625,
          "velocity": 0.8976377952755905
        },
        {
          "duration": 0.7792209999999997,
          "durationTicks": 96,
          "midi": 65,
          "name": "F4",
          "ticks": 1200,
          "time": 9.7402625,
          "velocity": 0.8976377952755905
        },
        {
          "duration": 0.7792209999999997,
          "durationTicks": 96,
          "midi": 65,
          "name": "F4",
          "ticks": 1296,
          "time": 10.5194835,
          "velocity": 0.8031496062992126
        },
        {
          "duration": 0.7792209999999997,
          "durationTicks": 96,
          "midi": 61,
          "name": "C#4",
          "ticks": 1296,
          "time": 10.5194835,
          "velocity": 0.8031496062992126
        },
        {
          "duration": 0.7792209999999997,
          "durationTicks": 96,
          "midi": 56,
          "name": "G#3",
          "ticks": 1296,
          "time": 10.5194835,
          "velocity": 1
        },
        {
          "duration": 0.7792209999999997,
          "durationTicks": 96,
          "midi": 60,
          "name": "C4",
          "ticks": 1296,
          "time": 10.5194835,
          "velocity": 0.8031496062992126
        },
        {
          "duration": 0.7792209999999997,
          "durationTicks": 96,
          "midi": 54,
          "name": "F#3",
          "ticks": 1392,
          "time": 11.2987045,
          "velocity": 1
        },
        {
          "duration": 0.7792209999999997,
          "durationTicks": 96,
          "midi": 61,
          "name": "C#4",
          "ticks": 1392,
          "time": 11.2987045,
          "velocity": 0.8031496062992126
        },
        {
          "duration": 0.7792209999999997,
          "durationTicks": 96,
          "midi": 65,
          "name": "F4",
          "ticks": 1392,
          "time": 11.2987045,
          "velocity": 0.8031496062992126
        },
        {
          "duration": 0.7792209999999997,
          "durationTicks": 96,
          "midi": 58,
          "name": "A#3",
          "ticks": 1392,
          "time": 11.2987045,
          "velocity": 0.8031496062992126
        },
        {
          "duration": 0.7792209999999997,
          "durationTicks": 96,
          "midi": 54,
          "name": "F#3",
          "ticks": 1488,
          "time": 12.0779255,
          "velocity": 1
        },
        {
          "duration": 0.7792209999999997,
          "durationTicks": 96,
          "midi": 61,
          "name": "C#4",
          "ticks": 1488,
          "time": 12.0779255,
          "velocity": 0.7637795275590551
        },
        {
          "duration": 0.7792209999999997,
          "durationTicks": 96,
          "midi": 65,
          "name": "F4",
          "ticks": 1488,
          "time": 12.0779255,
          "velocity": 0.7637795275590551
        },
        {
          "duration": 0.7792209999999997,
          "durationTicks": 96,
          "midi": 58,
          "name": "A#3",
          "ticks": 1488,
          "time": 12.0779255,
          "velocity": 0.7637795275590551
        },
        {
          "duration": 0.7792209999999997,
          "durationTicks": 96,
          "midi": 56,
          "name": "G#3",
          "ticks": 1584,
          "time": 12.857146499999999,
          "velocity": 1
        },
        {
          "duration": 0.7792209999999997,
          "durationTicks": 96,
          "midi": 60,
          "name": "C4",
          "ticks": 1584,
          "time": 12.857146499999999,
          "velocity": 0.8976377952755905
        },
        {
          "duration": 0.7792209999999997,
          "durationTicks": 96,
          "midi": 61,
          "name": "C#4",
          "ticks": 1584,
          "time": 12.857146499999999,
          "velocity": 0.8976377952755905
        },
        {
          "duration": 0.7792209999999997,
          "durationTicks": 96,
          "midi": 65,
          "name": "F4",
          "ticks": 1584,
          "time": 12.857146499999999,
          "velocity": 0.8976377952755905
        },
        {
          "duration": 0.7792209999999997,
          "durationTicks": 96,
          "midi": 65,
          "name": "F4",
          "ticks": 1680,
          "time": 13.636367499999999,
          "velocity": 0.8031496062992126
        },
        {
          "duration": 0.7792209999999997,
          "durationTicks": 96,
          "midi": 61,
          "name": "C#4",
          "ticks": 1680,
          "time": 13.636367499999999,
          "velocity": 0.8031496062992126
        },
        {
          "duration": 0.7792209999999997,
          "durationTicks": 96,
          "midi": 56,
          "name": "G#3",
          "ticks": 1680,
          "time": 13.636367499999999,
          "velocity": 1
        },
        {
          "duration": 0.7792209999999997,
          "durationTicks": 96,
          "midi": 60,
          "name": "C4",
          "ticks": 1680,
          "time": 13.636367499999999,
          "velocity": 0.8031496062992126
        },
        {
          "duration": 0.7792209999999997,
          "durationTicks": 96,
          "midi": 54,
          "name": "F#3",
          "ticks": 1776,
          "time": 14.415588499999998,
          "velocity": 1
        },
        {
          "duration": 0.7792209999999997,
          "durationTicks": 96,
          "midi": 61,
          "name": "C#4",
          "ticks": 1776,
          "time": 14.415588499999998,
          "velocity": 0.8031496062992126
        },
        {
          "duration": 0.7792209999999997,
          "durationTicks": 96,
          "midi": 65,
          "name": "F4",
          "ticks": 1776,
          "time": 14.415588499999998,
          "velocity": 0.8031496062992126
        },
        {
          "duration": 0.7792209999999997,
          "durationTicks": 96,
          "midi": 58,
          "name": "A#3",
          "ticks": 1776,
          "time": 14.415588499999998,
          "velocity": 0.8031496062992126
        },
        {
          "duration": 0.7711041145833324,
          "durationTicks": 95,
          "midi": 54,
          "name": "F#3",
          "ticks": 1872,
          "time": 15.194809499999998,
          "velocity": 1
        },
        {
          "duration": 0.7711041145833324,
          "durationTicks": 95,
          "midi": 61,
          "name": "C#4",
          "ticks": 1872,
          "time": 15.194809499999998,
          "velocity": 0.7637795275590551
        },
        {
          "duration": 0.7711041145833324,
          "durationTicks": 95,
          "midi": 65,
          "name": "F4",
          "ticks": 1872,
          "time": 15.194809499999998,
          "velocity": 0.7637795275590551
        },
        {
          "duration": 0.7711041145833324,
          "durationTicks": 95,
          "midi": 58,
          "name": "A#3",
          "ticks": 1872,
          "time": 15.194809499999998,
          "velocity": 0.7637795275590551
        },
        {
          "duration": 0.7792209999999979,
          "durationTicks": 96,
          "midi": 56,
          "name": "G#3",
          "ticks": 1968,
          "time": 15.9740305,
          "velocity": 1
        },
        {
          "duration": 0.7792209999999979,
          "durationTicks": 96,
          "midi": 60,
          "name": "C4",
          "ticks": 1968,
          "time": 15.9740305,
          "velocity": 0.8976377952755905
        },
        {
          "duration": 0.7792209999999979,
          "durationTicks": 96,
          "midi": 61,
          "name": "C#4",
          "ticks": 1968,
          "time": 15.9740305,
          "velocity": 0.8976377952755905
        },
        {
          "duration": 0.7792209999999979,
          "durationTicks": 96,
          "midi": 65,
          "name": "F4",
          "ticks": 1968,
          "time": 15.9740305,
          "velocity": 0.8976377952755905
        },
        {
          "duration": 0.7792209999999997,
          "durationTicks": 96,
          "midi": 65,
          "name": "F4",
          "ticks": 2064,
          "time": 16.753251499999998,
          "velocity": 0.8031496062992126
        },
        {
          "duration": 0.7792209999999997,
          "durationTicks": 96,
          "midi": 61,
          "name": "C#4",
          "ticks": 2064,
          "time": 16.753251499999998,
          "velocity": 0.8031496062992126
        },
        {
          "duration": 0.7792209999999997,
          "durationTicks": 96,
          "midi": 56,
          "name": "G#3",
          "ticks": 2064,
          "time": 16.753251499999998,
          "velocity": 1
        },
        {
          "duration": 0.7792209999999997,
          "durationTicks": 96,
          "midi": 60,
          "name": "C4",
          "ticks": 2064,
          "time": 16.753251499999998,
          "velocity": 0.8031496062992126
        },
        {
          "duration": 0.7792209999999997,
          "durationTicks": 96,
          "midi": 54,
          "name": "F#3",
          "ticks": 2160,
          "time": 17.532472499999997,
          "velocity": 1
        },
        {
          "duration": 0.7792209999999997,
          "durationTicks": 96,
          "midi": 61,
          "name": "C#4",
          "ticks": 2160,
          "time": 17.532472499999997,
          "velocity": 0.8031496062992126
        },
        {
          "duration": 0.7792209999999997,
          "durationTicks": 96,
          "midi": 65,
          "name": "F4",
          "ticks": 2160,
          "time": 17.532472499999997,
          "velocity": 0.8031496062992126
        },
        {
          "duration": 0.7792209999999997,
          "durationTicks": 96,
          "midi": 58,
          "name": "A#3",
          "ticks": 2160,
          "time": 17.532472499999997,
          "velocity": 0.8031496062992126
        },
        {
          "duration": 0.7792210000000033,
          "durationTicks": 96,
          "midi": 54,
          "name": "F#3",
          "ticks": 2256,
          "time": 18.311693499999997,
          "velocity": 1
        },
        {
          "duration": 0.7792210000000033,
          "durationTicks": 96,
          "midi": 61,
          "name": "C#4",
          "ticks": 2256,
          "time": 18.311693499999997,
          "velocity": 0.7637795275590551
        },
        {
          "duration": 0.7792210000000033,
          "durationTicks": 96,
          "midi": 65,
          "name": "F4",
          "ticks": 2256,
          "time": 18.311693499999997,
          "velocity": 0.7637795275590551
        },
        {
          "duration": 0.7792210000000033,
          "durationTicks": 96,
          "midi": 58,
          "name": "A#3",
          "ticks": 2256,
          "time": 18.311693499999997,
          "velocity": 0.7637795275590551
        },
        {
          "duration": 0.7792209999999997,
          "durationTicks": 96,
          "midi": 56,
          "name": "G#3",
          "ticks": 2352,
          "time": 19.0909145,
          "velocity": 1
        },
        {
          "duration": 0.7792209999999997,
          "durationTicks": 96,
          "midi": 60,
          "name": "C4",
          "ticks": 2352,
          "time": 19.0909145,
          "velocity": 0.8976377952755905
        },
        {
          "duration": 0.7792209999999997,
          "durationTicks": 96,
          "midi": 61,
          "name": "C#4",
          "ticks": 2352,
          "time": 19.0909145,
          "velocity": 0.8976377952755905
        },
        {
          "duration": 0.7792209999999997,
          "durationTicks": 96,
          "midi": 65,
          "name": "F4",
          "ticks": 2352,
          "time": 19.0909145,
          "velocity": 0.8976377952755905
        },
        {
          "duration": 0.7792209999999997,
          "durationTicks": 96,
          "midi": 65,
          "name": "F4",
          "ticks": 2448,
          "time": 19.8701355,
          "velocity": 0.8031496062992126
        },
        {
          "duration": 0.7792209999999997,
          "durationTicks": 96,
          "midi": 61,
          "name": "C#4",
          "ticks": 2448,
          "time": 19.8701355,
          "velocity": 0.8031496062992126
        },
        {
          "duration": 0.7792209999999997,
          "durationTicks": 96,
          "midi": 56,
          "name": "G#3",
          "ticks": 2448,
          "time": 19.8701355,
          "velocity": 1
        },
        {
          "duration": 0.7792209999999997,
          "durationTicks": 96,
          "midi": 60,
          "name": "C4",
          "ticks": 2448,
          "time": 19.8701355,
          "velocity": 0.8031496062992126
        },
        {
          "duration": 0.7792209999999997,
          "durationTicks": 96,
          "midi": 54,
          "name": "F#3",
          "ticks": 2544,
          "time": 20.6493565,
          "velocity": 1
        },
        {
          "duration": 0.7792209999999997,
          "durationTicks": 96,
          "midi": 61,
          "name": "C#4",
          "ticks": 2544,
          "time": 20.6493565,
          "velocity": 0.8031496062992126
        },
        {
          "duration": 0.7792209999999997,
          "durationTicks": 96,
          "midi": 65,
          "name": "F4",
          "ticks": 2544,
          "time": 20.6493565,
          "velocity": 0.8031496062992126
        },
        {
          "duration": 0.7792209999999997,
          "durationTicks": 96,
          "midi": 58,
          "name": "A#3",
          "ticks": 2544,
          "time": 20.6493565,
          "velocity": 0.8031496062992126
        },
        {
          "duration": 0.7792209999999997,
          "durationTicks": 96,
          "midi": 54,
          "name": "F#3",
          "ticks": 2640,
          "time": 21.4285775,
          "velocity": 1
        },
        {
          "duration": 0.7792209999999997,
          "durationTicks": 96,
          "midi": 61,
          "name": "C#4",
          "ticks": 2640,
          "time": 21.4285775,
          "velocity": 0.7637795275590551
        },
        {
          "duration": 0.7792209999999997,
          "durationTicks": 96,
          "midi": 65,
          "name": "F4",
          "ticks": 2640,
          "time": 21.4285775,
          "velocity": 0.7637795275590551
        },
        {
          "duration": 0.7792209999999997,
          "durationTicks": 96,
          "midi": 58,
          "name": "A#3",
          "ticks": 2640,
          "time": 21.4285775,
          "velocity": 0.7637795275590551
        },
        {
          "duration": 0.7792209999999997,
          "durationTicks": 96,
          "midi": 63,
          "name": "D#4",
          "ticks": 2736,
          "time": 22.2077985,
          "velocity": 0.8976377952755905
        },
        {
          "duration": 0.7792209999999997,
          "durationTicks": 96,
          "midi": 53,
          "name": "F3",
          "ticks": 2736,
          "time": 22.2077985,
          "velocity": 1
        },
        {
          "duration": 0.7792209999999997,
          "durationTicks": 96,
          "midi": 56,
          "name": "G#3",
          "ticks": 2736,
          "time": 22.2077985,
          "velocity": 0.8976377952755905
        },
        {
          "duration": 0.7792209999999997,
          "durationTicks": 96,
          "midi": 60,
          "name": "C4",
          "ticks": 2736,
          "time": 22.2077985,
          "velocity": 0.8976377952755905
        },
        {
          "duration": 0.7792209999999997,
          "durationTicks": 96,
          "midi": 63,
          "name": "D#4",
          "ticks": 2832,
          "time": 22.9870195,
          "velocity": 0.8031496062992126
        },
        {
          "duration": 0.7792209999999997,
          "durationTicks": 96,
          "midi": 53,
          "name": "F3",
          "ticks": 2832,
          "time": 22.9870195,
          "velocity": 1
        },
        {
          "duration": 0.7792209999999997,
          "durationTicks": 96,
          "midi": 56,
          "name": "G#3",
          "ticks": 2832,
          "time": 22.9870195,
          "velocity": 0.8031496062992126
        },
        {
          "duration": 0.7792209999999997,
          "durationTicks": 96,
          "midi": 60,
          "name": "C4",
          "ticks": 2832,
          "time": 22.9870195,
          "velocity": 0.8031496062992126
        },
        {
          "duration": 0.7792209999999997,
          "durationTicks": 96,
          "midi": 56,
          "name": "G#3",
          "ticks": 2928,
          "time": 23.7662405,
          "velocity": 1
        },
        {
          "duration": 0.7792209999999997,
          "durationTicks": 96,
          "midi": 61,
          "name": "C#4",
          "ticks": 2928,
          "time": 23.7662405,
          "velocity": 0.8031496062992126
        },
        {
          "duration": 0.7792209999999997,
          "durationTicks": 96,
          "midi": 65,
          "name": "F4",
          "ticks": 2928,
          "time": 23.7662405,
          "velocity": 0.8031496062992126
        },
        {
          "duration": 0.7792209999999997,
          "durationTicks": 96,
          "midi": 58,
          "name": "A#3",
          "ticks": 2928,
          "time": 23.7662405,
          "velocity": 0.8031496062992126
        },
        {
          "duration": 0.7792209999999997,
          "durationTicks": 96,
          "midi": 56,
          "name": "G#3",
          "ticks": 3024,
          "time": 24.5454615,
          "velocity": 1
        },
        {
          "duration": 0.7792209999999997,
          "durationTicks": 96,
          "midi": 61,
          "name": "C#4",
          "ticks": 3024,
          "time": 24.5454615,
          "velocity": 0.7637795275590551
        },
        {
          "duration": 0.7792209999999997,
          "durationTicks": 96,
          "midi": 65,
          "name": "F4",
          "ticks": 3024,
          "time": 24.5454615,
          "velocity": 0.7637795275590551
        },
        {
          "duration": 0.7792209999999997,
          "durationTicks": 96,
          "midi": 58,
          "name": "A#3",
          "ticks": 3024,
          "time": 24.5454615,
          "velocity": 0.7637795275590551
        },
        {
          "duration": 0.7792209999999997,
          "durationTicks": 96,
          "midi": 63,
          "name": "D#4",
          "ticks": 3120,
          "time": 25.324682499999998,
          "velocity": 0.8976377952755905
        },
        {
          "duration": 0.7792209999999997,
          "durationTicks": 96,
          "midi": 54,
          "name": "F#3",
          "ticks": 3120,
          "time": 25.324682499999998,
          "velocity": 1
        },
        {
          "duration": 0.7792209999999997,
          "durationTicks": 96,
          "midi": 58,
          "name": "A#3",
          "ticks": 3120,
          "time": 25.324682499999998,
          "velocity": 0.8976377952755905
        },
        {
          "duration": 0.7792209999999997,
          "durationTicks": 96,
          "midi": 61,
          "name": "C#4",
          "ticks": 3120,
          "time": 25.324682499999998,
          "velocity": 0.8976377952755905
        },
        {
          "duration": 0.7792209999999997,
          "durationTicks": 96,
          "midi": 63,
          "name": "D#4",
          "ticks": 3216,
          "time": 26.103903499999998,
          "velocity": 0.8031496062992126
        },
        {
          "duration": 0.7792209999999997,
          "durationTicks": 96,
          "midi": 54,
          "name": "F#3",
          "ticks": 3216,
          "time": 26.103903499999998,
          "velocity": 1
        },
        {
          "duration": 0.7792209999999997,
          "durationTicks": 96,
          "midi": 58,
          "name": "A#3",
          "ticks": 3216,
          "time": 26.103903499999998,
          "velocity": 0.8031496062992126
        },
        {
          "duration": 0.7792209999999997,
          "durationTicks": 96,
          "midi": 61,
          "name": "C#4",
          "ticks": 3216,
          "time": 26.103903499999998,
          "velocity": 0.8031496062992126
        },
        {
          "duration": 0.7792209999999997,
          "durationTicks": 96,
          "midi": 57,
          "name": "A3",
          "ticks": 3312,
          "time": 26.883124499999997,
          "velocity": 0.8031496062992126
        },
        {
          "duration": 0.7792209999999997,
          "durationTicks": 96,
          "midi": 54,
          "name": "F#3",
          "ticks": 3312,
          "time": 26.883124499999997,
          "velocity": 1
        },
        {
          "duration": 0.7792209999999997,
          "durationTicks": 96,
          "midi": 65,
          "name": "F4",
          "ticks": 3312,
          "time": 26.883124499999997,
          "velocity": 0.8031496062992126
        },
        {
          "duration": 0.7792209999999997,
          "durationTicks": 96,
          "midi": 61,
          "name": "C#4",
          "ticks": 3312,
          "time": 26.883124499999997,
          "velocity": 0.8031496062992126
        },
        {
          "duration": 0.7792209999999997,
          "durationTicks": 96,
          "midi": 54,
          "name": "F#3",
          "ticks": 3408,
          "time": 27.662345499999997,
          "velocity": 0.8976377952755905
        },
        {
          "duration": 0.7792209999999997,
          "durationTicks": 96,
          "midi": 56,
          "name": "G#3",
          "ticks": 3408,
          "time": 27.662345499999997,
          "velocity": 0.8976377952755905
        },
        {
          "duration": 0.7792209999999997,
          "durationTicks": 96,
          "midi": 60,
          "name": "C4",
          "ticks": 3408,
          "time": 27.662345499999997,
          "velocity": 0.6850393700787402
        },
        {
          "duration": 0.7792209999999997,
          "durationTicks": 96,
          "midi": 63,
          "name": "D#4",
          "ticks": 3408,
          "time": 27.662345499999997,
          "velocity": 0.6850393700787402
        },
        {
          "duration": 0.7792209999999997,
          "durationTicks": 96,
          "midi": 65,
          "name": "F4",
          "ticks": 3504,
          "time": 28.441566499999997,
          "velocity": 0.8976377952755905
        },
        {
          "duration": 0.7792209999999997,
          "durationTicks": 96,
          "midi": 61,
          "name": "C#4",
          "ticks": 3504,
          "time": 28.441566499999997,
          "velocity": 0.8976377952755905
        },
        {
          "duration": 0.7792209999999997,
          "durationTicks": 96,
          "midi": 56,
          "name": "G#3",
          "ticks": 3504,
          "time": 28.441566499999997,
          "velocity": 1
        },
        {
          "duration": 0.7792209999999997,
          "durationTicks": 96,
          "midi": 60,
          "name": "C4",
          "ticks": 3504,
          "time": 28.441566499999997,
          "velocity": 0.8976377952755905
        },
        {
          "duration": 0.7792209999999997,
          "durationTicks": 96,
          "midi": 65,
          "name": "F4",
          "ticks": 3600,
          "time": 29.220787499999997,
          "velocity": 0.8031496062992126
        },
        {
          "duration": 0.7792209999999997,
          "durationTicks": 96,
          "midi": 61,
          "name": "C#4",
          "ticks": 3600,
          "time": 29.220787499999997,
          "velocity": 0.8031496062992126
        },
        {
          "duration": 0.7792209999999997,
          "durationTicks": 96,
          "midi": 56,
          "name": "G#3",
          "ticks": 3600,
          "time": 29.220787499999997,
          "velocity": 1
        },
        {
          "duration": 0.7792209999999997,
          "durationTicks": 96,
          "midi": 60,
          "name": "C4",
          "ticks": 3600,
          "time": 29.220787499999997,
          "velocity": 0.8031496062992126
        },
        {
          "duration": 0.7792209999999997,
          "durationTicks": 96,
          "midi": 54,
          "name": "F#3",
          "ticks": 3696,
          "time": 30.000008499999996,
          "velocity": 1
        },
        {
          "duration": 0.7792209999999997,
          "durationTicks": 96,
          "midi": 61,
          "name": "C#4",
          "ticks": 3696,
          "time": 30.000008499999996,
          "velocity": 0.8031496062992126
        },
        {
          "duration": 0.7792209999999997,
          "durationTicks": 96,
          "midi": 65,
          "name": "F4",
          "ticks": 3696,
          "time": 30.000008499999996,
          "velocity": 0.8031496062992126
        },
        {
          "duration": 0.7792209999999997,
          "durationTicks": 96,
          "midi": 58,
          "name": "A#3",
          "ticks": 3696,
          "time": 30.000008499999996,
          "velocity": 0.8031496062992126
        },
        {
          "duration": 0.7792210000000033,
          "durationTicks": 96,
          "midi": 54,
          "name": "F#3",
          "ticks": 3792,
          "time": 30.779229499999996,
          "velocity": 1
        },
        {
          "duration": 0.7792210000000033,
          "durationTicks": 96,
          "midi": 61,
          "name": "C#4",
          "ticks": 3792,
          "time": 30.779229499999996,
          "velocity": 0.7637795275590551
        },
        {
          "duration": 0.7792210000000033,
          "durationTicks": 96,
          "midi": 65,
          "name": "F4",
          "ticks": 3792,
          "time": 30.779229499999996,
          "velocity": 0.7637795275590551
        },
        {
          "duration": 0.7792210000000033,
          "durationTicks": 96,
          "midi": 58,
          "name": "A#3",
          "ticks": 3792,
          "time": 30.779229499999996,
          "velocity": 0.7637795275590551
        },
        {
          "duration": 0.7792209999999997,
          "durationTicks": 96,
          "midi": 65,
          "name": "F4",
          "ticks": 3888,
          "time": 31.5584505,
          "velocity": 0.8976377952755905
        },
        {
          "duration": 0.7792209999999997,
          "durationTicks": 96,
          "midi": 61,
          "name": "C#4",
          "ticks": 3888,
          "time": 31.5584505,
          "velocity": 0.8976377952755905
        },
        {
          "duration": 0.7792209999999997,
          "durationTicks": 96,
          "midi": 56,
          "name": "G#3",
          "ticks": 3888,
          "time": 31.5584505,
          "velocity": 1
        },
        {
          "duration": 0.7792209999999997,
          "durationTicks": 96,
          "midi": 60,
          "name": "C4",
          "ticks": 3888,
          "time": 31.5584505,
          "velocity": 0.8976377952755905
        },
        {
          "duration": 0.7792209999999997,
          "durationTicks": 96,
          "midi": 65,
          "name": "F4",
          "ticks": 3984,
          "time": 32.3376715,
          "velocity": 0.8031496062992126
        },
        {
          "duration": 0.7792209999999997,
          "durationTicks": 96,
          "midi": 61,
          "name": "C#4",
          "ticks": 3984,
          "time": 32.3376715,
          "velocity": 0.8031496062992126
        },
        {
          "duration": 0.7792209999999997,
          "durationTicks": 96,
          "midi": 56,
          "name": "G#3",
          "ticks": 3984,
          "time": 32.3376715,
          "velocity": 1
        },
        {
          "duration": 0.7792209999999997,
          "durationTicks": 96,
          "midi": 60,
          "name": "C4",
          "ticks": 3984,
          "time": 32.3376715,
          "velocity": 0.8031496062992126
        },
        {
          "duration": 0.7792209999999997,
          "durationTicks": 96,
          "midi": 54,
          "name": "F#3",
          "ticks": 4080,
          "time": 33.1168925,
          "velocity": 1
        },
        {
          "duration": 0.7792209999999997,
          "durationTicks": 96,
          "midi": 61,
          "name": "C#4",
          "ticks": 4080,
          "time": 33.1168925,
          "velocity": 0.8031496062992126
        },
        {
          "duration": 0.7792209999999997,
          "durationTicks": 96,
          "midi": 65,
          "name": "F4",
          "ticks": 4080,
          "time": 33.1168925,
          "velocity": 0.8031496062992126
        },
        {
          "duration": 0.7792209999999997,
          "durationTicks": 96,
          "midi": 58,
          "name": "A#3",
          "ticks": 4080,
          "time": 33.1168925,
          "velocity": 0.8031496062992126
        },
        {
          "duration": 0.7792209999999997,
          "durationTicks": 96,
          "midi": 54,
          "name": "F#3",
          "ticks": 4176,
          "time": 33.8961135,
          "velocity": 1
        },
        {
          "duration": 0.7792209999999997,
          "durationTicks": 96,
          "midi": 61,
          "name": "C#4",
          "ticks": 4176,
          "time": 33.8961135,
          "velocity": 0.7637795275590551
        },
        {
          "duration": 0.7792209999999997,
          "durationTicks": 96,
          "midi": 65,
          "name": "F4",
          "ticks": 4176,
          "time": 33.8961135,
          "velocity": 0.7637795275590551
        },
        {
          "duration": 0.7792209999999997,
          "durationTicks": 96,
          "midi": 58,
          "name": "A#3",
          "ticks": 4176,
          "time": 33.8961135,
          "velocity": 0.7637795275590551
        },
        {
          "duration": 0.7792209999999997,
          "durationTicks": 96,
          "midi": 63,
          "name": "D#4",
          "ticks": 4272,
          "time": 34.6753345,
          "velocity": 0.8976377952755905
        },
        {
          "duration": 0.7792209999999997,
          "durationTicks": 96,
          "midi": 53,
          "name": "F3",
          "ticks": 4272,
          "time": 34.6753345,
          "velocity": 1
        },
        {
          "duration": 0.7792209999999997,
          "durationTicks": 96,
          "midi": 56,
          "name": "G#3",
          "ticks": 4272,
          "time": 34.6753345,
          "velocity": 0.8976377952755905
        },
        {
          "duration": 0.7792209999999997,
          "durationTicks": 96,
          "midi": 60,
          "name": "C4",
          "ticks": 4272,
          "time": 34.6753345,
          "velocity": 0.8976377952755905
        },
        {
          "duration": 0.7792209999999997,
          "durationTicks": 96,
          "midi": 63,
          "name": "D#4",
          "ticks": 4368,
          "time": 35.4545555,
          "velocity": 0.8031496062992126
        },
        {
          "duration": 0.7792209999999997,
          "durationTicks": 96,
          "midi": 53,
          "name": "F3",
          "ticks": 4368,
          "time": 35.4545555,
          "velocity": 1
        },
        {
          "duration": 0.7792209999999997,
          "durationTicks": 96,
          "midi": 56,
          "name": "G#3",
          "ticks": 4368,
          "time": 35.4545555,
          "velocity": 0.8031496062992126
        },
        {
          "duration": 0.7792209999999997,
          "durationTicks": 96,
          "midi": 60,
          "name": "C4",
          "ticks": 4368,
          "time": 35.4545555,
          "velocity": 0.8031496062992126
        },
        {
          "duration": 0.7792209999999997,
          "durationTicks": 96,
          "midi": 56,
          "name": "G#3",
          "ticks": 4464,
          "time": 36.2337765,
          "velocity": 1
        },
        {
          "duration": 0.7792209999999997,
          "durationTicks": 96,
          "midi": 61,
          "name": "C#4",
          "ticks": 4464,
          "time": 36.2337765,
          "velocity": 0.8031496062992126
        },
        {
          "duration": 0.7792209999999997,
          "durationTicks": 96,
          "midi": 65,
          "name": "F4",
          "ticks": 4464,
          "time": 36.2337765,
          "velocity": 0.8031496062992126
        },
        {
          "duration": 0.7792209999999997,
          "durationTicks": 96,
          "midi": 58,
          "name": "A#3",
          "ticks": 4464,
          "time": 36.2337765,
          "velocity": 0.8031496062992126
        },
        {
          "duration": 0.7792209999999997,
          "durationTicks": 96,
          "midi": 56,
          "name": "G#3",
          "ticks": 4560,
          "time": 37.0129975,
          "velocity": 1
        },
        {
          "duration": 0.7792209999999997,
          "durationTicks": 96,
          "midi": 61,
          "name": "C#4",
          "ticks": 4560,
          "time": 37.0129975,
          "velocity": 0.7637795275590551
        },
        {
          "duration": 0.7792209999999997,
          "durationTicks": 96,
          "midi": 65,
          "name": "F4",
          "ticks": 4560,
          "time": 37.0129975,
          "velocity": 0.7637795275590551
        },
        {
          "duration": 0.7792209999999997,
          "durationTicks": 96,
          "midi": 58,
          "name": "A#3",
          "ticks": 4560,
          "time": 37.0129975,
          "velocity": 0.7637795275590551
        },
        {
          "duration": 0.7792209999999997,
          "durationTicks": 96,
          "midi": 63,
          "name": "D#4",
          "ticks": 4656,
          "time": 37.7922185,
          "velocity": 0.8976377952755905
        },
        {
          "duration": 0.7792209999999997,
          "durationTicks": 96,
          "midi": 54,
          "name": "F#3",
          "ticks": 4656,
          "time": 37.7922185,
          "velocity": 1
        },
        {
          "duration": 0.7792209999999997,
          "durationTicks": 96,
          "midi": 58,
          "name": "A#3",
          "ticks": 4656,
          "time": 37.7922185,
          "velocity": 0.8976377952755905
        },
        {
          "duration": 0.7792209999999997,
          "durationTicks": 96,
          "midi": 61,
          "name": "C#4",
          "ticks": 4656,
          "time": 37.7922185,
          "velocity": 0.8976377952755905
        },
        {
          "duration": 0.7792209999999997,
          "durationTicks": 96,
          "midi": 63,
          "name": "D#4",
          "ticks": 4752,
          "time": 38.5714395,
          "velocity": 0.8031496062992126
        },
        {
          "duration": 0.7792209999999997,
          "durationTicks": 96,
          "midi": 54,
          "name": "F#3",
          "ticks": 4752,
          "time": 38.5714395,
          "velocity": 1
        },
        {
          "duration": 0.7792209999999997,
          "durationTicks": 96,
          "midi": 58,
          "name": "A#3",
          "ticks": 4752,
          "time": 38.5714395,
          "velocity": 0.8031496062992126
        },
        {
          "duration": 0.7792209999999997,
          "durationTicks": 96,
          "midi": 61,
          "name": "C#4",
          "ticks": 4752,
          "time": 38.5714395,
          "velocity": 0.8031496062992126
        },
        {
          "duration": 0.7792209999999997,
          "durationTicks": 96,
          "midi": 56,
          "name": "G#3",
          "ticks": 4848,
          "time": 39.3506605,
          "velocity": 0.7007874015748031
        },
        {
          "duration": 0.7792209999999997,
          "durationTicks": 96,
          "midi": 65,
          "name": "F4",
          "ticks": 4848,
          "time": 39.3506605,
          "velocity": 0.8031496062992126
        },
        {
          "duration": 0.7792209999999997,
          "durationTicks": 96,
          "midi": 61,
          "name": "C#4",
          "ticks": 4848,
          "time": 39.3506605,
          "velocity": 0.8031496062992126
        },
        {
          "duration": 0.7792209999999997,
          "durationTicks": 96,
          "midi": 54,
          "name": "F#3",
          "ticks": 4848,
          "time": 39.3506605,
          "velocity": 1
        },
        {
          "duration": 0.7792209999999997,
          "durationTicks": 96,
          "midi": 60,
          "name": "C4",
          "ticks": 4944,
          "time": 40.129881499999996,
          "velocity": 0.6850393700787402
        },
        {
          "duration": 0.7792209999999997,
          "durationTicks": 96,
          "midi": 63,
          "name": "D#4",
          "ticks": 4944,
          "time": 40.129881499999996,
          "velocity": 0.6850393700787402
        },
        {
          "duration": 0.7792209999999997,
          "durationTicks": 96,
          "midi": 56,
          "name": "G#3",
          "ticks": 4944,
          "time": 40.129881499999996,
          "velocity": 0.6850393700787402
        },
        {
          "duration": 0.7792209999999997,
          "durationTicks": 96,
          "midi": 54,
          "name": "F#3",
          "ticks": 4944,
          "time": 40.129881499999996,
          "velocity": 0.8976377952755905
        },
        {
          "duration": 0.7792209999999997,
          "durationTicks": 96,
          "midi": 65,
          "name": "F4",
          "ticks": 5040,
          "time": 40.909102499999996,
          "velocity": 0.8976377952755905
        },
        {
          "duration": 0.7792209999999997,
          "durationTicks": 96,
          "midi": 61,
          "name": "C#4",
          "ticks": 5040,
          "time": 40.909102499999996,
          "velocity": 0.8976377952755905
        },
        {
          "duration": 0.7792209999999997,
          "durationTicks": 96,
          "midi": 56,
          "name": "G#3",
          "ticks": 5040,
          "time": 40.909102499999996,
          "velocity": 1
        },
        {
          "duration": 0.7792209999999997,
          "durationTicks": 96,
          "midi": 60,
          "name": "C4",
          "ticks": 5040,
          "time": 40.909102499999996,
          "velocity": 0.8976377952755905
        },
        {
          "duration": 0.7792209999999997,
          "durationTicks": 96,
          "midi": 65,
          "name": "F4",
          "ticks": 5136,
          "time": 41.688323499999996,
          "velocity": 0.8503937007874016
        },
        {
          "duration": 0.7792209999999997,
          "durationTicks": 96,
          "midi": 61,
          "name": "C#4",
          "ticks": 5136,
          "time": 41.688323499999996,
          "velocity": 0.8503937007874016
        },
        {
          "duration": 0.7792209999999997,
          "durationTicks": 96,
          "midi": 56,
          "name": "G#3",
          "ticks": 5136,
          "time": 41.688323499999996,
          "velocity": 1
        },
        {
          "duration": 0.7792209999999997,
          "durationTicks": 96,
          "midi": 60,
          "name": "C4",
          "ticks": 5136,
          "time": 41.688323499999996,
          "velocity": 0.8503937007874016
        },
        {
          "duration": 0.7792209999999997,
          "durationTicks": 96,
          "midi": 54,
          "name": "F#3",
          "ticks": 5232,
          "time": 42.467544499999995,
          "velocity": 1
        },
        {
          "duration": 0.7792209999999997,
          "durationTicks": 96,
          "midi": 61,
          "name": "C#4",
          "ticks": 5232,
          "time": 42.467544499999995,
          "velocity": 0.8976377952755905
        },
        {
          "duration": 0.7792209999999997,
          "durationTicks": 96,
          "midi": 65,
          "name": "F4",
          "ticks": 5232,
          "time": 42.467544499999995,
          "velocity": 0.8976377952755905
        },
        {
          "duration": 0.7792209999999997,
          "durationTicks": 96,
          "midi": 58,
          "name": "A#3",
          "ticks": 5232,
          "time": 42.467544499999995,
          "velocity": 0.8976377952755905
        },
        {
          "duration": 0.7792209999999997,
          "durationTicks": 96,
          "midi": 54,
          "name": "F#3",
          "ticks": 5328,
          "time": 43.246765499999995,
          "velocity": 1
        },
        {
          "duration": 0.7792209999999997,
          "durationTicks": 96,
          "midi": 61,
          "name": "C#4",
          "ticks": 5328,
          "time": 43.246765499999995,
          "velocity": 0.8503937007874016
        },
        {
          "duration": 0.7792209999999997,
          "durationTicks": 96,
          "midi": 65,
          "name": "F4",
          "ticks": 5328,
          "time": 43.246765499999995,
          "velocity": 0.8503937007874016
        },
        {
          "duration": 0.7792209999999997,
          "durationTicks": 96,
          "midi": 58,
          "name": "A#3",
          "ticks": 5328,
          "time": 43.246765499999995,
          "velocity": 0.8503937007874016
        },
        {
          "duration": 0.7792209999999997,
          "durationTicks": 96,
          "midi": 65,
          "name": "F4",
          "ticks": 5424,
          "time": 44.025986499999995,
          "velocity": 0.8976377952755905
        },
        {
          "duration": 0.7792209999999997,
          "durationTicks": 96,
          "midi": 61,
          "name": "C#4",
          "ticks": 5424,
          "time": 44.025986499999995,
          "velocity": 0.8976377952755905
        },
        {
          "duration": 0.7792209999999997,
          "durationTicks": 96,
          "midi": 56,
          "name": "G#3",
          "ticks": 5424,
          "time": 44.025986499999995,
          "velocity": 1
        },
        {
          "duration": 0.7792209999999997,
          "durationTicks": 96,
          "midi": 60,
          "name": "C4",
          "ticks": 5424,
          "time": 44.025986499999995,
          "velocity": 0.8976377952755905
        },
        {
          "duration": 0.7792209999999997,
          "durationTicks": 96,
          "midi": 65,
          "name": "F4",
          "ticks": 5520,
          "time": 44.805207499999995,
          "velocity": 0.7637795275590551
        },
        {
          "duration": 0.7792209999999997,
          "durationTicks": 96,
          "midi": 61,
          "name": "C#4",
          "ticks": 5520,
          "time": 44.805207499999995,
          "velocity": 0.7637795275590551
        },
        {
          "duration": 0.7792209999999997,
          "durationTicks": 96,
          "midi": 56,
          "name": "G#3",
          "ticks": 5520,
          "time": 44.805207499999995,
          "velocity": 1
        },
        {
          "duration": 0.7792209999999997,
          "durationTicks": 96,
          "midi": 60,
          "name": "C4",
          "ticks": 5520,
          "time": 44.805207499999995,
          "velocity": 0.7637795275590551
        },
        {
          "duration": 1.5503251145833374,
          "durationTicks": 191,
          "midi": 55,
          "name": "G3",
          "ticks": 5610,
          "time": 45.535727187499994,
          "velocity": 1
        },
        {
          "duration": 1.5503251145833374,
          "durationTicks": 191,
          "midi": 58,
          "name": "A#3",
          "ticks": 5616,
          "time": 45.584428499999994,
          "velocity": 0.8976377952755905
        },
        {
          "duration": 1.4529224895833366,
          "durationTicks": 179,
          "midi": 61,
          "name": "C#4",
          "ticks": 5619,
          "time": 45.608779156249994,
          "velocity": 0.8503937007874016
        },
        {
          "duration": 1.4529224895833366,
          "durationTicks": 179,
          "midi": 65,
          "name": "F4",
          "ticks": 5622,
          "time": 45.633129812499995,
          "velocity": 0.8976377952755905
        },
        {
          "duration": 0.7792209999999997,
          "durationTicks": 96,
          "midi": 54,
          "name": "F#3",
          "ticks": 5808,
          "time": 47.142870499999994,
          "velocity": 1
        },
        {
          "duration": 0.7792209999999997,
          "durationTicks": 96,
          "midi": 61,
          "name": "C#4",
          "ticks": 5808,
          "time": 47.142870499999994,
          "velocity": 0.8976377952755905
        },
        {
          "duration": 0.7792209999999997,
          "durationTicks": 96,
          "midi": 65,
          "name": "F4",
          "ticks": 5808,
          "time": 47.142870499999994,
          "velocity": 0.8976377952755905
        },
        {
          "duration": 0.7792209999999997,
          "durationTicks": 96,
          "midi": 58,
          "name": "A#3",
          "ticks": 5808,
          "time": 47.142870499999994,
          "velocity": 0.8976377952755905
        },
        {
          "duration": 0.7792209999999997,
          "durationTicks": 96,
          "midi": 54,
          "name": "F#3",
          "ticks": 5904,
          "time": 47.92209149999999,
          "velocity": 1
        },
        {
          "duration": 0.7792209999999997,
          "durationTicks": 96,
          "midi": 61,
          "name": "C#4",
          "ticks": 5904,
          "time": 47.92209149999999,
          "velocity": 0.8031496062992126
        },
        {
          "duration": 0.7792209999999997,
          "durationTicks": 96,
          "midi": 65,
          "name": "F4",
          "ticks": 5904,
          "time": 47.92209149999999,
          "velocity": 0.8031496062992126
        },
        {
          "duration": 0.7792209999999997,
          "durationTicks": 96,
          "midi": 58,
          "name": "A#3",
          "ticks": 5904,
          "time": 47.92209149999999,
          "velocity": 0.8031496062992126
        },
        {
          "duration": 0.7792209999999997,
          "durationTicks": 96,
          "midi": 56,
          "name": "G#3",
          "ticks": 6000,
          "time": 48.70131249999999,
          "velocity": 1
        },
        {
          "duration": 0.7792209999999997,
          "durationTicks": 96,
          "midi": 63,
          "name": "D#4",
          "ticks": 6000,
          "time": 48.70131249999999,
          "velocity": 0.7716535433070866
        },
        {
          "duration": 0.7792209999999997,
          "durationTicks": 96,
          "midi": 65,
          "name": "F4",
          "ticks": 6000,
          "time": 48.70131249999999,
          "velocity": 0.7716535433070866
        },
        {
          "duration": 0.7792209999999997,
          "durationTicks": 96,
          "midi": 60,
          "name": "C4",
          "ticks": 6000,
          "time": 48.70131249999999,
          "velocity": 0.7716535433070866
        },
        {
          "duration": 0.7792210000000068,
          "durationTicks": 96,
          "midi": 56,
          "name": "G#3",
          "ticks": 6096,
          "time": 49.48053349999999,
          "velocity": 1
        },
        {
          "duration": 0.7792210000000068,
          "durationTicks": 96,
          "midi": 63,
          "name": "D#4",
          "ticks": 6096,
          "time": 49.48053349999999,
          "velocity": 0.7637795275590551
        },
        {
          "duration": 0.7792210000000068,
          "durationTicks": 96,
          "midi": 65,
          "name": "F4",
          "ticks": 6096,
          "time": 49.48053349999999,
          "velocity": 0.7637795275590551
        },
        {
          "duration": 0.7792210000000068,
          "durationTicks": 96,
          "midi": 60,
          "name": "C4",
          "ticks": 6096,
          "time": 49.48053349999999,
          "velocity": 0.7637795275590551
        },
        {
          "duration": 0.7792209999999997,
          "durationTicks": 96,
          "midi": 56,
          "name": "G#3",
          "ticks": 6192,
          "time": 50.2597545,
          "velocity": 0.8582677165354331
        },
        {
          "duration": 0.7792209999999997,
          "durationTicks": 96,
          "midi": 63,
          "name": "D#4",
          "ticks": 6192,
          "time": 50.2597545,
          "velocity": 0.8582677165354331
        },
        {
          "duration": 0.7792209999999997,
          "durationTicks": 96,
          "midi": 53,
          "name": "F3",
          "ticks": 6192,
          "time": 50.2597545,
          "velocity": 1
        },
        {
          "duration": 0.7792209999999997,
          "durationTicks": 96,
          "midi": 60,
          "name": "C4",
          "ticks": 6192,
          "time": 50.2597545,
          "velocity": 0.8582677165354331
        },
        {
          "duration": 0.7792209999999997,
          "durationTicks": 96,
          "midi": 56,
          "name": "G#3",
          "ticks": 6288,
          "time": 51.0389755,
          "velocity": 0.8031496062992126
        },
        {
          "duration": 0.7792209999999997,
          "durationTicks": 96,
          "midi": 63,
          "name": "D#4",
          "ticks": 6288,
          "time": 51.0389755,
          "velocity": 0.8031496062992126
        },
        {
          "duration": 0.7792209999999997,
          "durationTicks": 96,
          "midi": 53,
          "name": "F3",
          "ticks": 6288,
          "time": 51.0389755,
          "velocity": 1
        },
        {
          "duration": 0.7792209999999997,
          "durationTicks": 96,
          "midi": 60,
          "name": "C4",
          "ticks": 6288,
          "time": 51.0389755,
          "velocity": 0.8031496062992126
        },
        {
          "duration": 0.7792209999999997,
          "durationTicks": 96,
          "midi": 56,
          "name": "G#3",
          "ticks": 6384,
          "time": 51.8181965,
          "velocity": 0.7559055118110236
        },
        {
          "duration": 0.7792209999999997,
          "durationTicks": 96,
          "midi": 62,
          "name": "D4",
          "ticks": 6384,
          "time": 51.8181965,
          "velocity": 0.7559055118110236
        },
        {
          "duration": 0.7792209999999997,
          "durationTicks": 96,
          "midi": 53,
          "name": "F3",
          "ticks": 6384,
          "time": 51.8181965,
          "velocity": 1
        },
        {
          "duration": 0.7792209999999997,
          "durationTicks": 96,
          "midi": 58,
          "name": "A#3",
          "ticks": 6384,
          "time": 51.8181965,
          "velocity": 0.7559055118110236
        },
        {
          "duration": 0.7792209999999997,
          "durationTicks": 96,
          "midi": 56,
          "name": "G#3",
          "ticks": 6480,
          "time": 52.5974175,
          "velocity": 0.8031496062992126
        },
        {
          "duration": 0.7792209999999997,
          "durationTicks": 96,
          "midi": 62,
          "name": "D4",
          "ticks": 6480,
          "time": 52.5974175,
          "velocity": 0.8031496062992126
        },
        {
          "duration": 0.7792209999999997,
          "durationTicks": 96,
          "midi": 53,
          "name": "F3",
          "ticks": 6480,
          "time": 52.5974175,
          "velocity": 1
        },
        {
          "duration": 0.7792209999999997,
          "durationTicks": 96,
          "midi": 58,
          "name": "A#3",
          "ticks": 6480,
          "time": 52.5974175,
          "velocity": 0.8031496062992126
        },
        {
          "duration": 0.7792209999999997,
          "durationTicks": 96,
          "midi": 54,
          "name": "F#3",
          "ticks": 6576,
          "time": 53.3766385,
          "velocity": 0.8582677165354331
        },
        {
          "duration": 0.7792209999999997,
          "durationTicks": 96,
          "midi": 61,
          "name": "C#4",
          "ticks": 6576,
          "time": 53.3766385,
          "velocity": 0.8582677165354331
        },
        {
          "duration": 0.7792209999999997,
          "durationTicks": 96,
          "midi": 63,
          "name": "D#4",
          "ticks": 6576,
          "time": 53.3766385,
          "velocity": 0.8582677165354331
        },
        {
          "duration": 0.7792209999999997,
          "durationTicks": 96,
          "midi": 58,
          "name": "A#3",
          "ticks": 6576,
          "time": 53.3766385,
          "velocity": 0.8582677165354331
        },
        {
          "duration": 0.7792209999999997,
          "durationTicks": 96,
          "midi": 54,
          "name": "F#3",
          "ticks": 6672,
          "time": 54.1558595,
          "velocity": 1
        },
        {
          "duration": 0.7792209999999997,
          "durationTicks": 96,
          "midi": 61,
          "name": "C#4",
          "ticks": 6672,
          "time": 54.1558595,
          "velocity": 0.8031496062992126
        },
        {
          "duration": 0.7792209999999997,
          "durationTicks": 96,
          "midi": 63,
          "name": "D#4",
          "ticks": 6672,
          "time": 54.1558595,
          "velocity": 0.8031496062992126
        },
        {
          "duration": 0.7792209999999997,
          "durationTicks": 96,
          "midi": 58,
          "name": "A#3",
          "ticks": 6672,
          "time": 54.1558595,
          "velocity": 0.8031496062992126
        },
        {
          "duration": 0.7792209999999997,
          "durationTicks": 96,
          "midi": 57,
          "name": "A3",
          "ticks": 6768,
          "time": 54.9350805,
          "velocity": 0.7322834645669292
        },
        {
          "duration": 0.7792209999999997,
          "durationTicks": 96,
          "midi": 54,
          "name": "F#3",
          "ticks": 6768,
          "time": 54.9350805,
          "velocity": 1
        },
        {
          "duration": 0.7792209999999997,
          "durationTicks": 96,
          "midi": 63,
          "name": "D#4",
          "ticks": 6768,
          "time": 54.9350805,
          "velocity": 0.7322834645669292
        },
        {
          "duration": 0.7792209999999997,
          "durationTicks": 96,
          "midi": 61,
          "name": "C#4",
          "ticks": 6768,
          "time": 54.9350805,
          "velocity": 0.7322834645669292
        },
        {
          "duration": 0.7792209999999997,
          "durationTicks": 96,
          "midi": 57,
          "name": "A3",
          "ticks": 6864,
          "time": 55.7143015,
          "velocity": 0.8031496062992126
        },
        {
          "duration": 0.7792209999999997,
          "durationTicks": 96,
          "midi": 54,
          "name": "F#3",
          "ticks": 6864,
          "time": 55.7143015,
          "velocity": 1
        },
        {
          "duration": 0.7792209999999997,
          "durationTicks": 96,
          "midi": 63,
          "name": "D#4",
          "ticks": 6864,
          "time": 55.7143015,
          "velocity": 0.8031496062992126
        },
        {
          "duration": 0.7792209999999997,
          "durationTicks": 96,
          "midi": 61,
          "name": "C#4",
          "ticks": 6864,
          "time": 55.7143015,
          "velocity": 0.8031496062992126
        },
        {
          "duration": 0.7792209999999997,
          "durationTicks": 96,
          "midi": 54,
          "name": "F#3",
          "ticks": 6960,
          "time": 56.4935225,
          "velocity": 1
        },
        {
          "duration": 0.7792209999999997,
          "durationTicks": 96,
          "midi": 65,
          "name": "F4",
          "ticks": 6960,
          "time": 56.4935225,
          "velocity": 0.8582677165354331
        },
        {
          "duration": 0.7792209999999997,
          "durationTicks": 96,
          "midi": 56,
          "name": "G#3",
          "ticks": 6960,
          "time": 56.4935225,
          "velocity": 0.8582677165354331
        },
        {
          "duration": 0.7792209999999997,
          "durationTicks": 96,
          "midi": 60,
          "name": "C4",
          "ticks": 6960,
          "time": 56.4935225,
          "velocity": 0.8582677165354331
        },
        {
          "duration": 0.7792209999999997,
          "durationTicks": 96,
          "midi": 54,
          "name": "F#3",
          "ticks": 7056,
          "time": 57.2727435,
          "velocity": 1
        },
        {
          "duration": 0.7792209999999997,
          "durationTicks": 96,
          "midi": 65,
          "name": "F4",
          "ticks": 7056,
          "time": 57.2727435,
          "velocity": 0.8503937007874016
        },
        {
          "duration": 0.7792209999999997,
          "durationTicks": 96,
          "midi": 56,
          "name": "G#3",
          "ticks": 7056,
          "time": 57.2727435,
          "velocity": 0.8503937007874016
        },
        {
          "duration": 0.7792209999999997,
          "durationTicks": 96,
          "midi": 60,
          "name": "C4",
          "ticks": 7056,
          "time": 57.2727435,
          "velocity": 0.8503937007874016
        },
        {
          "duration": 0.7792209999999997,
          "durationTicks": 96,
          "midi": 54,
          "name": "F#3",
          "ticks": 7152,
          "time": 58.0519645,
          "velocity": 1
        },
        {
          "duration": 0.7792209999999997,
          "durationTicks": 96,
          "midi": 63,
          "name": "D#4",
          "ticks": 7152,
          "time": 58.0519645,
          "velocity": 0.7716535433070866
        },
        {
          "duration": 0.7792209999999997,
          "durationTicks": 96,
          "midi": 60,
          "name": "C4",
          "ticks": 7152,
          "time": 58.0519645,
          "velocity": 0.7716535433070866
        },
        {
          "duration": 0.7792209999999997,
          "durationTicks": 96,
          "midi": 56,
          "name": "G#3",
          "ticks": 7152,
          "time": 58.0519645,
          "velocity": 0.7716535433070866
        },
        {
          "duration": 0.7792209999999997,
          "durationTicks": 96,
          "midi": 54,
          "name": "F#3",
          "ticks": 7248,
          "time": 58.8311855,
          "velocity": 1
        },
        {
          "duration": 0.7792209999999997,
          "durationTicks": 96,
          "midi": 63,
          "name": "D#4",
          "ticks": 7248,
          "time": 58.8311855,
          "velocity": 0.7637795275590551
        },
        {
          "duration": 0.7792209999999997,
          "durationTicks": 96,
          "midi": 60,
          "name": "C4",
          "ticks": 7248,
          "time": 58.8311855,
          "velocity": 0.7637795275590551
        },
        {
          "duration": 0.7792209999999997,
          "durationTicks": 96,
          "midi": 56,
          "name": "G#3",
          "ticks": 7248,
          "time": 58.8311855,
          "velocity": 0.7637795275590551
        },
        {
          "duration": 0.7792209999999997,
          "durationTicks": 96,
          "midi": 54,
          "name": "F#3",
          "ticks": 7344,
          "time": 59.610406499999996,
          "velocity": 1
        },
        {
          "duration": 0.7792209999999997,
          "durationTicks": 96,
          "midi": 61,
          "name": "C#4",
          "ticks": 7344,
          "time": 59.610406499999996,
          "velocity": 0.8976377952755905
        },
        {
          "duration": 0.7792209999999997,
          "durationTicks": 96,
          "midi": 65,
          "name": "F4",
          "ticks": 7344,
          "time": 59.610406499999996,
          "velocity": 0.8976377952755905
        },
        {
          "duration": 0.7792209999999997,
          "durationTicks": 96,
          "midi": 58,
          "name": "A#3",
          "ticks": 7344,
          "time": 59.610406499999996,
          "velocity": 0.8976377952755905
        },
        {
          "duration": 0.7792209999999997,
          "durationTicks": 96,
          "midi": 54,
          "name": "F#3",
          "ticks": 7440,
          "time": 60.389627499999996,
          "velocity": 1
        },
        {
          "duration": 0.7792209999999997,
          "durationTicks": 96,
          "midi": 61,
          "name": "C#4",
          "ticks": 7440,
          "time": 60.389627499999996,
          "velocity": 0.8031496062992126
        },
        {
          "duration": 0.7792209999999997,
          "durationTicks": 96,
          "midi": 65,
          "name": "F4",
          "ticks": 7440,
          "time": 60.389627499999996,
          "velocity": 0.8031496062992126
        },
        {
          "duration": 0.7792209999999997,
          "durationTicks": 96,
          "midi": 58,
          "name": "A#3",
          "ticks": 7440,
          "time": 60.389627499999996,
          "velocity": 0.8031496062992126
        },
        {
          "duration": 0.7792209999999997,
          "durationTicks": 96,
          "midi": 56,
          "name": "G#3",
          "ticks": 7536,
          "time": 61.168848499999996,
          "velocity": 1
        },
        {
          "duration": 0.7792209999999997,
          "durationTicks": 96,
          "midi": 63,
          "name": "D#4",
          "ticks": 7536,
          "time": 61.168848499999996,
          "velocity": 0.7716535433070866
        },
        {
          "duration": 0.7792209999999997,
          "durationTicks": 96,
          "midi": 65,
          "name": "F4",
          "ticks": 7536,
          "time": 61.168848499999996,
          "velocity": 0.7716535433070866
        },
        {
          "duration": 0.7792209999999997,
          "durationTicks": 96,
          "midi": 60,
          "name": "C4",
          "ticks": 7536,
          "time": 61.168848499999996,
          "velocity": 0.7716535433070866
        },
        {
          "duration": 0.7792209999999997,
          "durationTicks": 96,
          "midi": 56,
          "name": "G#3",
          "ticks": 7632,
          "time": 61.948069499999995,
          "velocity": 1
        },
        {
          "duration": 0.7792209999999997,
          "durationTicks": 96,
          "midi": 63,
          "name": "D#4",
          "ticks": 7632,
          "time": 61.948069499999995,
          "velocity": 0.7637795275590551
        },
        {
          "duration": 0.7792209999999997,
          "durationTicks": 96,
          "midi": 65,
          "name": "F4",
          "ticks": 7632,
          "time": 61.948069499999995,
          "velocity": 0.7637795275590551
        },
        {
          "duration": 0.7792209999999997,
          "durationTicks": 96,
          "midi": 60,
          "name": "C4",
          "ticks": 7632,
          "time": 61.948069499999995,
          "velocity": 0.7637795275590551
        },
        {
          "duration": 0.7792209999999997,
          "durationTicks": 96,
          "midi": 56,
          "name": "G#3",
          "ticks": 7728,
          "time": 62.727290499999995,
          "velocity": 0.8582677165354331
        },
        {
          "duration": 0.7792209999999997,
          "durationTicks": 96,
          "midi": 63,
          "name": "D#4",
          "ticks": 7728,
          "time": 62.727290499999995,
          "velocity": 0.8582677165354331
        },
        {
          "duration": 0.7792209999999997,
          "durationTicks": 96,
          "midi": 53,
          "name": "F3",
          "ticks": 7728,
          "time": 62.727290499999995,
          "velocity": 1
        },
        {
          "duration": 0.7792209999999997,
          "durationTicks": 96,
          "midi": 60,
          "name": "C4",
          "ticks": 7728,
          "time": 62.727290499999995,
          "velocity": 0.8582677165354331
        },
        {
          "duration": 0.7792209999999997,
          "durationTicks": 96,
          "midi": 56,
          "name": "G#3",
          "ticks": 7824,
          "time": 63.506511499999995,
          "velocity": 0.8031496062992126
        },
        {
          "duration": 0.7792209999999997,
          "durationTicks": 96,
          "midi": 63,
          "name": "D#4",
          "ticks": 7824,
          "time": 63.506511499999995,
          "velocity": 0.8031496062992126
        },
        {
          "duration": 0.7792209999999997,
          "durationTicks": 96,
          "midi": 53,
          "name": "F3",
          "ticks": 7824,
          "time": 63.506511499999995,
          "velocity": 1
        },
        {
          "duration": 0.7792209999999997,
          "durationTicks": 96,
          "midi": 60,
          "name": "C4",
          "ticks": 7824,
          "time": 63.506511499999995,
          "velocity": 0.8031496062992126
        },
        {
          "duration": 0.7711041145833235,
          "durationTicks": 95,
          "midi": 56,
          "name": "G#3",
          "ticks": 7920,
          "time": 64.2857325,
          "velocity": 0.7559055118110236
        },
        {
          "duration": 0.7792210000000068,
          "durationTicks": 96,
          "midi": 62,
          "name": "D4",
          "ticks": 7920,
          "time": 64.2857325,
          "velocity": 0.7559055118110236
        },
        {
          "duration": 0.7792210000000068,
          "durationTicks": 96,
          "midi": 53,
          "name": "F3",
          "ticks": 7920,
          "time": 64.2857325,
          "velocity": 1
        },
        {
          "duration": 0.7792210000000068,
          "durationTicks": 96,
          "midi": 58,
          "name": "A#3",
          "ticks": 7920,
          "time": 64.2857325,
          "velocity": 0.7559055118110236
        },
        {
          "duration": 0.7792209999999926,
          "durationTicks": 96,
          "midi": 56,
          "name": "G#3",
          "ticks": 8016,
          "time": 65.0649535,
          "velocity": 0.8031496062992126
        },
        {
          "duration": 0.7792209999999926,
          "durationTicks": 96,
          "midi": 62,
          "name": "D4",
          "ticks": 8016,
          "time": 65.0649535,
          "velocity": 0.8031496062992126
        },
        {
          "duration": 0.7792209999999926,
          "durationTicks": 96,
          "midi": 53,
          "name": "F3",
          "ticks": 8016,
          "time": 65.0649535,
          "velocity": 1
        },
        {
          "duration": 0.7792209999999926,
          "durationTicks": 96,
          "midi": 58,
          "name": "A#3",
          "ticks": 8016,
          "time": 65.0649535,
          "velocity": 0.8031496062992126
        },
        {
          "duration": 0.7792210000000068,
          "durationTicks": 96,
          "midi": 54,
          "name": "F#3",
          "ticks": 8112,
          "time": 65.8441745,
          "velocity": 1
        },
        {
          "duration": 0.7792210000000068,
          "durationTicks": 96,
          "midi": 61,
          "name": "C#4",
          "ticks": 8112,
          "time": 65.8441745,
          "velocity": 0.8582677165354331
        },
        {
          "duration": 0.7792210000000068,
          "durationTicks": 96,
          "midi": 63,
          "name": "D#4",
          "ticks": 8112,
          "time": 65.8441745,
          "velocity": 0.8582677165354331
        },
        {
          "duration": 0.7792210000000068,
          "durationTicks": 96,
          "midi": 58,
          "name": "A#3",
          "ticks": 8112,
          "time": 65.8441745,
          "velocity": 0.8582677165354331
        },
        {
          "duration": 0.7792209999999926,
          "durationTicks": 96,
          "midi": 54,
          "name": "F#3",
          "ticks": 8208,
          "time": 66.6233955,
          "velocity": 1
        },
        {
          "duration": 0.7792209999999926,
          "durationTicks": 96,
          "midi": 61,
          "name": "C#4",
          "ticks": 8208,
          "time": 66.6233955,
          "velocity": 0.8031496062992126
        },
        {
          "duration": 0.7792209999999926,
          "durationTicks": 96,
          "midi": 63,
          "name": "D#4",
          "ticks": 8208,
          "time": 66.6233955,
          "velocity": 0.8031496062992126
        },
        {
          "duration": 0.7792209999999926,
          "durationTicks": 96,
          "midi": 58,
          "name": "A#3",
          "ticks": 8208,
          "time": 66.6233955,
          "velocity": 0.8031496062992126
        },
        {
          "duration": 0.7792210000000068,
          "durationTicks": 96,
          "midi": 68,
          "name": "G#4",
          "ticks": 8304,
          "time": 67.4026165,
          "velocity": 0.7716535433070866
        },
        {
          "duration": 0.7792210000000068,
          "durationTicks": 96,
          "midi": 54,
          "name": "F#3",
          "ticks": 8304,
          "time": 67.4026165,
          "velocity": 1
        },
        {
          "duration": 0.7792210000000068,
          "durationTicks": 96,
          "midi": 61,
          "name": "C#4",
          "ticks": 8304,
          "time": 67.4026165,
          "velocity": 0.7716535433070866
        },
        {
          "duration": 0.7792210000000068,
          "durationTicks": 96,
          "midi": 58,
          "name": "A#3",
          "ticks": 8304,
          "time": 67.4026165,
          "velocity": 0.7716535433070866
        },
        {
          "duration": 0.7792209999999926,
          "durationTicks": 96,
          "midi": 66,
          "name": "F#4",
          "ticks": 8400,
          "time": 68.1818375,
          "velocity": 0.7637795275590551
        },
        {
          "duration": 0.7792209999999926,
          "durationTicks": 96,
          "midi": 54,
          "name": "F#3",
          "ticks": 8400,
          "time": 68.1818375,
          "velocity": 1
        },
        {
          "duration": 0.7792209999999926,
          "durationTicks": 96,
          "midi": 61,
          "name": "C#4",
          "ticks": 8400,
          "time": 68.1818375,
          "velocity": 0.7637795275590551
        },
        {
          "duration": 0.7792209999999926,
          "durationTicks": 96,
          "midi": 58,
          "name": "A#3",
          "ticks": 8400,
          "time": 68.1818375,
          "velocity": 0.7637795275590551
        },
        {
          "duration": 0.7792210000000068,
          "durationTicks": 96,
          "midi": 54,
          "name": "F#3",
          "ticks": 8496,
          "time": 68.9610585,
          "velocity": 1
        },
        {
          "duration": 0.7792210000000068,
          "durationTicks": 96,
          "midi": 60,
          "name": "C4",
          "ticks": 8496,
          "time": 68.9610585,
          "velocity": 0.8582677165354331
        },
        {
          "duration": 0.7792210000000068,
          "durationTicks": 96,
          "midi": 63,
          "name": "D#4",
          "ticks": 8496,
          "time": 68.9610585,
          "velocity": 0.8582677165354331
        },
        {
          "duration": 0.7792210000000068,
          "durationTicks": 96,
          "midi": 56,
          "name": "G#3",
          "ticks": 8496,
          "time": 68.9610585,
          "velocity": 0.8582677165354331
        },
        {
          "duration": 0.7792209999999926,
          "durationTicks": 96,
          "midi": 54,
          "name": "F#3",
          "ticks": 8592,
          "time": 69.7402795,
          "velocity": 1
        },
        {
          "duration": 0.7792209999999926,
          "durationTicks": 96,
          "midi": 60,
          "name": "C4",
          "ticks": 8592,
          "time": 69.7402795,
          "velocity": 0.8031496062992126
        },
        {
          "duration": 0.7792209999999926,
          "durationTicks": 96,
          "midi": 63,
          "name": "D#4",
          "ticks": 8592,
          "time": 69.7402795,
          "velocity": 0.8031496062992126
        },
        {
          "duration": 0.7386365729166613,
          "durationTicks": 91,
          "midi": 56,
          "name": "G#3",
          "ticks": 8592,
          "time": 69.7402795,
          "velocity": 0.8031496062992126
        },
        {
          "duration": 1.5584419999999994,
          "durationTicks": 192,
          "midi": 56,
          "name": "G#3",
          "ticks": 8686,
          "time": 70.50326672916667,
          "velocity": 1
        },
        {
          "duration": 1.5584419999999994,
          "durationTicks": 192,
          "midi": 63,
          "name": "D#4",
          "ticks": 8688,
          "time": 70.51950049999999,
          "velocity": 0.7637795275590551
        },
        {
          "duration": 1.5584419999999994,
          "durationTicks": 192,
          "midi": 66,
          "name": "F#4",
          "ticks": 8691,
          "time": 70.54385115625,
          "velocity": 0.7637795275590551
        },
        {
          "duration": 1.5584419999999994,
          "durationTicks": 192,
          "midi": 70,
          "name": "A#4",
          "ticks": 8694,
          "time": 70.56820181249999,
          "velocity": 0.7637795275590551
        },
        {
          "duration": 0.7792210000000068,
          "durationTicks": 96,
          "midi": 56,
          "name": "G#3",
          "ticks": 8880,
          "time": 72.07794249999999,
          "velocity": 1
        },
        {
          "duration": 0.7792210000000068,
          "durationTicks": 96,
          "midi": 60,
          "name": "C4",
          "ticks": 8880,
          "time": 72.07794249999999,
          "velocity": 0.8976377952755905
        },
        {
          "duration": 0.7792210000000068,
          "durationTicks": 96,
          "midi": 61,
          "name": "C#4",
          "ticks": 8880,
          "time": 72.07794249999999,
          "velocity": 0.8976377952755905
        },
        {
          "duration": 0.7792210000000068,
          "durationTicks": 96,
          "midi": 65,
          "name": "F4",
          "ticks": 8880,
          "time": 72.07794249999999,
          "velocity": 0.8976377952755905
        },
        {
          "duration": 0.7792209999999926,
          "durationTicks": 96,
          "midi": 65,
          "name": "F4",
          "ticks": 8976,
          "time": 72.8571635,
          "velocity": 0.8031496062992126
        },
        {
          "duration": 0.7792209999999926,
          "durationTicks": 96,
          "midi": 61,
          "name": "C#4",
          "ticks": 8976,
          "time": 72.8571635,
          "velocity": 0.8031496062992126
        },
        {
          "duration": 0.7792209999999926,
          "durationTicks": 96,
          "midi": 56,
          "name": "G#3",
          "ticks": 8976,
          "time": 72.8571635,
          "velocity": 1
        },
        {
          "duration": 0.7792209999999926,
          "durationTicks": 96,
          "midi": 60,
          "name": "C4",
          "ticks": 8976,
          "time": 72.8571635,
          "velocity": 0.8031496062992126
        },
        {
          "duration": 0.7792210000000068,
          "durationTicks": 96,
          "midi": 54,
          "name": "F#3",
          "ticks": 9072,
          "time": 73.63638449999999,
          "velocity": 1
        },
        {
          "duration": 0.7792210000000068,
          "durationTicks": 96,
          "midi": 61,
          "name": "C#4",
          "ticks": 9072,
          "time": 73.63638449999999,
          "velocity": 0.8031496062992126
        },
        {
          "duration": 0.7792210000000068,
          "durationTicks": 96,
          "midi": 65,
          "name": "F4",
          "ticks": 9072,
          "time": 73.63638449999999,
          "velocity": 0.8031496062992126
        },
        {
          "duration": 0.7792210000000068,
          "durationTicks": 96,
          "midi": 58,
          "name": "A#3",
          "ticks": 9072,
          "time": 73.63638449999999,
          "velocity": 0.8031496062992126
        },
        {
          "duration": 0.7792209999999926,
          "durationTicks": 96,
          "midi": 54,
          "name": "F#3",
          "ticks": 9168,
          "time": 74.4156055,
          "velocity": 1
        },
        {
          "duration": 0.7792209999999926,
          "durationTicks": 96,
          "midi": 61,
          "name": "C#4",
          "ticks": 9168,
          "time": 74.4156055,
          "velocity": 0.7637795275590551
        },
        {
          "duration": 0.7792209999999926,
          "durationTicks": 96,
          "midi": 65,
          "name": "F4",
          "ticks": 9168,
          "time": 74.4156055,
          "velocity": 0.7637795275590551
        },
        {
          "duration": 0.7792209999999926,
          "durationTicks": 96,
          "midi": 58,
          "name": "A#3",
          "ticks": 9168,
          "time": 74.4156055,
          "velocity": 0.7637795275590551
        },
        {
          "duration": 0.7792210000000068,
          "durationTicks": 96,
          "midi": 56,
          "name": "G#3",
          "ticks": 9264,
          "time": 75.19482649999999,
          "velocity": 1
        },
        {
          "duration": 0.7792210000000068,
          "durationTicks": 96,
          "midi": 60,
          "name": "C4",
          "ticks": 9264,
          "time": 75.19482649999999,
          "velocity": 0.8976377952755905
        },
        {
          "duration": 0.7792210000000068,
          "durationTicks": 96,
          "midi": 61,
          "name": "C#4",
          "ticks": 9264,
          "time": 75.19482649999999,
          "velocity": 0.8976377952755905
        },
        {
          "duration": 0.7792210000000068,
          "durationTicks": 96,
          "midi": 65,
          "name": "F4",
          "ticks": 9264,
          "time": 75.19482649999999,
          "velocity": 0.8976377952755905
        },
        {
          "duration": 0.7792209999999926,
          "durationTicks": 96,
          "midi": 65,
          "name": "F4",
          "ticks": 9360,
          "time": 75.9740475,
          "velocity": 0.8031496062992126
        },
        {
          "duration": 0.7792209999999926,
          "durationTicks": 96,
          "midi": 61,
          "name": "C#4",
          "ticks": 9360,
          "time": 75.9740475,
          "velocity": 0.8031496062992126
        },
        {
          "duration": 0.7792209999999926,
          "durationTicks": 96,
          "midi": 56,
          "name": "G#3",
          "ticks": 9360,
          "time": 75.9740475,
          "velocity": 1
        },
        {
          "duration": 0.7792209999999926,
          "durationTicks": 96,
          "midi": 60,
          "name": "C4",
          "ticks": 9360,
          "time": 75.9740475,
          "velocity": 0.8031496062992126
        },
        {
          "duration": 0.7792210000000068,
          "durationTicks": 96,
          "midi": 54,
          "name": "F#3",
          "ticks": 9456,
          "time": 76.75326849999999,
          "velocity": 1
        },
        {
          "duration": 0.7792210000000068,
          "durationTicks": 96,
          "midi": 61,
          "name": "C#4",
          "ticks": 9456,
          "time": 76.75326849999999,
          "velocity": 0.8031496062992126
        },
        {
          "duration": 0.7792210000000068,
          "durationTicks": 96,
          "midi": 65,
          "name": "F4",
          "ticks": 9456,
          "time": 76.75326849999999,
          "velocity": 0.8031496062992126
        },
        {
          "duration": 0.7792210000000068,
          "durationTicks": 96,
          "midi": 58,
          "name": "A#3",
          "ticks": 9456,
          "time": 76.75326849999999,
          "velocity": 0.8031496062992126
        },
        {
          "duration": 0.7792209999999926,
          "durationTicks": 96,
          "midi": 54,
          "name": "F#3",
          "ticks": 9552,
          "time": 77.5324895,
          "velocity": 1
        },
        {
          "duration": 0.7792209999999926,
          "durationTicks": 96,
          "midi": 61,
          "name": "C#4",
          "ticks": 9552,
          "time": 77.5324895,
          "velocity": 0.7637795275590551
        },
        {
          "duration": 0.7792209999999926,
          "durationTicks": 96,
          "midi": 65,
          "name": "F4",
          "ticks": 9552,
          "time": 77.5324895,
          "velocity": 0.7637795275590551
        },
        {
          "duration": 0.7792209999999926,
          "durationTicks": 96,
          "midi": 58,
          "name": "A#3",
          "ticks": 9552,
          "time": 77.5324895,
          "velocity": 0.7637795275590551
        },
        {
          "duration": 0.7792210000000068,
          "durationTicks": 96,
          "midi": 56,
          "name": "G#3",
          "ticks": 9648,
          "time": 78.31171049999999,
          "velocity": 1
        },
        {
          "duration": 0.7792210000000068,
          "durationTicks": 96,
          "midi": 60,
          "name": "C4",
          "ticks": 9648,
          "time": 78.31171049999999,
          "velocity": 0.8976377952755905
        },
        {
          "duration": 0.7792210000000068,
          "durationTicks": 96,
          "midi": 61,
          "name": "C#4",
          "ticks": 9648,
          "time": 78.31171049999999,
          "velocity": 0.8976377952755905
        },
        {
          "duration": 0.7792210000000068,
          "durationTicks": 96,
          "midi": 65,
          "name": "F4",
          "ticks": 9648,
          "time": 78.31171049999999,
          "velocity": 0.8976377952755905
        },
        {
          "duration": 0.7792209999999926,
          "durationTicks": 96,
          "midi": 65,
          "name": "F4",
          "ticks": 9744,
          "time": 79.0909315,
          "velocity": 0.8031496062992126
        },
        {
          "duration": 0.7792209999999926,
          "durationTicks": 96,
          "midi": 61,
          "name": "C#4",
          "ticks": 9744,
          "time": 79.0909315,
          "velocity": 0.8031496062992126
        },
        {
          "duration": 0.7792209999999926,
          "durationTicks": 96,
          "midi": 56,
          "name": "G#3",
          "ticks": 9744,
          "time": 79.0909315,
          "velocity": 1
        },
        {
          "duration": 0.7792209999999926,
          "durationTicks": 96,
          "midi": 60,
          "name": "C4",
          "ticks": 9744,
          "time": 79.0909315,
          "velocity": 0.8031496062992126
        },
        {
          "duration": 0.7792210000000068,
          "durationTicks": 96,
          "midi": 54,
          "name": "F#3",
          "ticks": 9840,
          "time": 79.87015249999999,
          "velocity": 1
        },
        {
          "duration": 0.7792210000000068,
          "durationTicks": 96,
          "midi": 61,
          "name": "C#4",
          "ticks": 9840,
          "time": 79.87015249999999,
          "velocity": 0.8031496062992126
        },
        {
          "duration": 0.7792210000000068,
          "durationTicks": 96,
          "midi": 65,
          "name": "F4",
          "ticks": 9840,
          "time": 79.87015249999999,
          "velocity": 0.8031496062992126
        },
        {
          "duration": 0.7792210000000068,
          "durationTicks": 96,
          "midi": 58,
          "name": "A#3",
          "ticks": 9840,
          "time": 79.87015249999999,
          "velocity": 0.8031496062992126
        },
        {
          "duration": 0.7792209999999926,
          "durationTicks": 96,
          "midi": 54,
          "name": "F#3",
          "ticks": 9936,
          "time": 80.6493735,
          "velocity": 1
        },
        {
          "duration": 0.7792209999999926,
          "durationTicks": 96,
          "midi": 61,
          "name": "C#4",
          "ticks": 9936,
          "time": 80.6493735,
          "velocity": 0.7637795275590551
        },
        {
          "duration": 0.7792209999999926,
          "durationTicks": 96,
          "midi": 65,
          "name": "F4",
          "ticks": 9936,
          "time": 80.6493735,
          "velocity": 0.7637795275590551
        },
        {
          "duration": 0.7792209999999926,
          "durationTicks": 96,
          "midi": 58,
          "name": "A#3",
          "ticks": 9936,
          "time": 80.6493735,
          "velocity": 0.7637795275590551
        },
        {
          "duration": 0.7792210000000068,
          "durationTicks": 96,
          "midi": 56,
          "name": "G#3",
          "ticks": 10032,
          "time": 81.42859449999999,
          "velocity": 1
        },
        {
          "duration": 0.7792210000000068,
          "durationTicks": 96,
          "midi": 60,
          "name": "C4",
          "ticks": 10032,
          "time": 81.42859449999999,
          "velocity": 0.8976377952755905
        },
        {
          "duration": 0.7792210000000068,
          "durationTicks": 96,
          "midi": 61,
          "name": "C#4",
          "ticks": 10032,
          "time": 81.42859449999999,
          "velocity": 0.8976377952755905
        },
        {
          "duration": 0.7792210000000068,
          "durationTicks": 96,
          "midi": 65,
          "name": "F4",
          "ticks": 10032,
          "time": 81.42859449999999,
          "velocity": 0.8976377952755905
        },
        {
          "duration": 0.7792209999999926,
          "durationTicks": 96,
          "midi": 65,
          "name": "F4",
          "ticks": 10128,
          "time": 82.2078155,
          "velocity": 0.8031496062992126
        },
        {
          "duration": 0.7792209999999926,
          "durationTicks": 96,
          "midi": 61,
          "name": "C#4",
          "ticks": 10128,
          "time": 82.2078155,
          "velocity": 0.8031496062992126
        },
        {
          "duration": 0.7792209999999926,
          "durationTicks": 96,
          "midi": 56,
          "name": "G#3",
          "ticks": 10128,
          "time": 82.2078155,
          "velocity": 1
        },
        {
          "duration": 0.7792209999999926,
          "durationTicks": 96,
          "midi": 60,
          "name": "C4",
          "ticks": 10128,
          "time": 82.2078155,
          "velocity": 0.8031496062992126
        },
        {
          "duration": 0.7792210000000068,
          "durationTicks": 96,
          "midi": 54,
          "name": "F#3",
          "ticks": 10224,
          "time": 82.98703649999999,
          "velocity": 1
        },
        {
          "duration": 0.7792210000000068,
          "durationTicks": 96,
          "midi": 61,
          "name": "C#4",
          "ticks": 10224,
          "time": 82.98703649999999,
          "velocity": 0.8031496062992126
        },
        {
          "duration": 0.7792210000000068,
          "durationTicks": 96,
          "midi": 65,
          "name": "F4",
          "ticks": 10224,
          "time": 82.98703649999999,
          "velocity": 0.8031496062992126
        },
        {
          "duration": 0.7792210000000068,
          "durationTicks": 96,
          "midi": 58,
          "name": "A#3",
          "ticks": 10224,
          "time": 82.98703649999999,
          "velocity": 0.8031496062992126
        },
        {
          "duration": 0.7711041145833235,
          "durationTicks": 95,
          "midi": 54,
          "name": "F#3",
          "ticks": 10320,
          "time": 83.7662575,
          "velocity": 1
        },
        {
          "duration": 0.7711041145833235,
          "durationTicks": 95,
          "midi": 61,
          "name": "C#4",
          "ticks": 10320,
          "time": 83.7662575,
          "velocity": 0.7637795275590551
        },
        {
          "duration": 0.7711041145833235,
          "durationTicks": 95,
          "midi": 65,
          "name": "F4",
          "ticks": 10320,
          "time": 83.7662575,
          "velocity": 0.7637795275590551
        },
        {
          "duration": 0.7711041145833235,
          "durationTicks": 95,
          "midi": 58,
          "name": "A#3",
          "ticks": 10320,
          "time": 83.7662575,
          "velocity": 0.7637795275590551
        },
        {
          "duration": 0.7792210000000068,
          "durationTicks": 96,
          "midi": 56,
          "name": "G#3",
          "ticks": 10416,
          "time": 84.54547849999999,
          "velocity": 1
        },
        {
          "duration": 0.7792210000000068,
          "durationTicks": 96,
          "midi": 60,
          "name": "C4",
          "ticks": 10416,
          "time": 84.54547849999999,
          "velocity": 0.8976377952755905
        },
        {
          "duration": 0.7792210000000068,
          "durationTicks": 96,
          "midi": 61,
          "name": "C#4",
          "ticks": 10416,
          "time": 84.54547849999999,
          "velocity": 0.8976377952755905
        },
        {
          "duration": 0.7792210000000068,
          "durationTicks": 96,
          "midi": 65,
          "name": "F4",
          "ticks": 10416,
          "time": 84.54547849999999,
          "velocity": 0.8976377952755905
        },
        {
          "duration": 0.7792209999999926,
          "durationTicks": 96,
          "midi": 65,
          "name": "F4",
          "ticks": 10512,
          "time": 85.3246995,
          "velocity": 0.8031496062992126
        },
        {
          "duration": 0.7792209999999926,
          "durationTicks": 96,
          "midi": 61,
          "name": "C#4",
          "ticks": 10512,
          "time": 85.3246995,
          "velocity": 0.8031496062992126
        },
        {
          "duration": 0.7792209999999926,
          "durationTicks": 96,
          "midi": 56,
          "name": "G#3",
          "ticks": 10512,
          "time": 85.3246995,
          "velocity": 1
        },
        {
          "duration": 0.7792209999999926,
          "durationTicks": 96,
          "midi": 60,
          "name": "C4",
          "ticks": 10512,
          "time": 85.3246995,
          "velocity": 0.8031496062992126
        },
        {
          "duration": 0.7792210000000068,
          "durationTicks": 96,
          "midi": 54,
          "name": "F#3",
          "ticks": 10608,
          "time": 86.10392049999999,
          "velocity": 1
        },
        {
          "duration": 0.7792210000000068,
          "durationTicks": 96,
          "midi": 61,
          "name": "C#4",
          "ticks": 10608,
          "time": 86.10392049999999,
          "velocity": 0.8031496062992126
        },
        {
          "duration": 0.7792210000000068,
          "durationTicks": 96,
          "midi": 65,
          "name": "F4",
          "ticks": 10608,
          "time": 86.10392049999999,
          "velocity": 0.8031496062992126
        },
        {
          "duration": 0.7792210000000068,
          "durationTicks": 96,
          "midi": 58,
          "name": "A#3",
          "ticks": 10608,
          "time": 86.10392049999999,
          "velocity": 0.8031496062992126
        },
        {
          "duration": 0.7792210000000068,
          "durationTicks": 96,
          "midi": 54,
          "name": "F#3",
          "ticks": 10704,
          "time": 86.8831415,
          "velocity": 1
        },
        {
          "duration": 0.7792210000000068,
          "durationTicks": 96,
          "midi": 61,
          "name": "C#4",
          "ticks": 10704,
          "time": 86.8831415,
          "velocity": 0.7637795275590551
        },
        {
          "duration": 0.7792210000000068,
          "durationTicks": 96,
          "midi": 65,
          "name": "F4",
          "ticks": 10704,
          "time": 86.8831415,
          "velocity": 0.7637795275590551
        },
        {
          "duration": 0.7792210000000068,
          "durationTicks": 96,
          "midi": 58,
          "name": "A#3",
          "ticks": 10704,
          "time": 86.8831415,
          "velocity": 0.7637795275590551
        },
        {
          "duration": 0.7792209999999926,
          "durationTicks": 96,
          "midi": 56,
          "name": "G#3",
          "ticks": 10800,
          "time": 87.6623625,
          "velocity": 1
        },
        {
          "duration": 0.7792209999999926,
          "durationTicks": 96,
          "midi": 60,
          "name": "C4",
          "ticks": 10800,
          "time": 87.6623625,
          "velocity": 0.8976377952755905
        },
        {
          "duration": 0.7792209999999926,
          "durationTicks": 96,
          "midi": 61,
          "name": "C#4",
          "ticks": 10800,
          "time": 87.6623625,
          "velocity": 0.8976377952755905
        },
        {
          "duration": 0.7792209999999926,
          "durationTicks": 96,
          "midi": 65,
          "name": "F4",
          "ticks": 10800,
          "time": 87.6623625,
          "velocity": 0.8976377952755905
        },
        {
          "duration": 0.7792210000000068,
          "durationTicks": 96,
          "midi": 65,
          "name": "F4",
          "ticks": 10896,
          "time": 88.4415835,
          "velocity": 0.8031496062992126
        },
        {
          "duration": 0.7792210000000068,
          "durationTicks": 96,
          "midi": 61,
          "name": "C#4",
          "ticks": 10896,
          "time": 88.4415835,
          "velocity": 0.8031496062992126
        },
        {
          "duration": 0.7792210000000068,
          "durationTicks": 96,
          "midi": 56,
          "name": "G#3",
          "ticks": 10896,
          "time": 88.4415835,
          "velocity": 1
        },
        {
          "duration": 0.7792210000000068,
          "durationTicks": 96,
          "midi": 60,
          "name": "C4",
          "ticks": 10896,
          "time": 88.4415835,
          "velocity": 0.8031496062992126
        },
        {
          "duration": 0.7792209999999926,
          "durationTicks": 96,
          "midi": 54,
          "name": "F#3",
          "ticks": 10992,
          "time": 89.2208045,
          "velocity": 1
        },
        {
          "duration": 0.7792209999999926,
          "durationTicks": 96,
          "midi": 61,
          "name": "C#4",
          "ticks": 10992,
          "time": 89.2208045,
          "velocity": 0.8031496062992126
        },
        {
          "duration": 0.7792209999999926,
          "durationTicks": 96,
          "midi": 65,
          "name": "F4",
          "ticks": 10992,
          "time": 89.2208045,
          "velocity": 0.8031496062992126
        },
        {
          "duration": 0.7792209999999926,
          "durationTicks": 96,
          "midi": 58,
          "name": "A#3",
          "ticks": 10992,
          "time": 89.2208045,
          "velocity": 0.8031496062992126
        },
        {
          "duration": 0.7792210000000068,
          "durationTicks": 96,
          "midi": 54,
          "name": "F#3",
          "ticks": 11088,
          "time": 90.00002549999999,
          "velocity": 1
        },
        {
          "duration": 0.7792210000000068,
          "durationTicks": 96,
          "midi": 61,
          "name": "C#4",
          "ticks": 11088,
          "time": 90.00002549999999,
          "velocity": 0.7637795275590551
        },
        {
          "duration": 0.7792210000000068,
          "durationTicks": 96,
          "midi": 65,
          "name": "F4",
          "ticks": 11088,
          "time": 90.00002549999999,
          "velocity": 0.7637795275590551
        },
        {
          "duration": 0.7792210000000068,
          "durationTicks": 96,
          "midi": 58,
          "name": "A#3",
          "ticks": 11088,
          "time": 90.00002549999999,
          "velocity": 0.7637795275590551
        },
        {
          "duration": 0.7792209999999926,
          "durationTicks": 96,
          "midi": 63,
          "name": "D#4",
          "ticks": 11184,
          "time": 90.7792465,
          "velocity": 0.8976377952755905
        },
        {
          "duration": 0.7792209999999926,
          "durationTicks": 96,
          "midi": 53,
          "name": "F3",
          "ticks": 11184,
          "time": 90.7792465,
          "velocity": 1
        },
        {
          "duration": 0.7792209999999926,
          "durationTicks": 96,
          "midi": 56,
          "name": "G#3",
          "ticks": 11184,
          "time": 90.7792465,
          "velocity": 0.8976377952755905
        },
        {
          "duration": 0.7792209999999926,
          "durationTicks": 96,
          "midi": 60,
          "name": "C4",
          "ticks": 11184,
          "time": 90.7792465,
          "velocity": 0.8976377952755905
        },
        {
          "duration": 0.7792210000000068,
          "durationTicks": 96,
          "midi": 63,
          "name": "D#4",
          "ticks": 11280,
          "time": 91.55846749999999,
          "velocity": 0.8031496062992126
        },
        {
          "duration": 0.7792210000000068,
          "durationTicks": 96,
          "midi": 53,
          "name": "F3",
          "ticks": 11280,
          "time": 91.55846749999999,
          "velocity": 1
        },
        {
          "duration": 0.7792210000000068,
          "durationTicks": 96,
          "midi": 56,
          "name": "G#3",
          "ticks": 11280,
          "time": 91.55846749999999,
          "velocity": 0.8031496062992126
        },
        {
          "duration": 0.7792210000000068,
          "durationTicks": 96,
          "midi": 60,
          "name": "C4",
          "ticks": 11280,
          "time": 91.55846749999999,
          "velocity": 0.8031496062992126
        },
        {
          "duration": 0.7792209999999926,
          "durationTicks": 96,
          "midi": 56,
          "name": "G#3",
          "ticks": 11376,
          "time": 92.3376885,
          "velocity": 1
        },
        {
          "duration": 0.7792209999999926,
          "durationTicks": 96,
          "midi": 61,
          "name": "C#4",
          "ticks": 11376,
          "time": 92.3376885,
          "velocity": 0.8031496062992126
        },
        {
          "duration": 0.7792209999999926,
          "durationTicks": 96,
          "midi": 65,
          "name": "F4",
          "ticks": 11376,
          "time": 92.3376885,
          "velocity": 0.8031496062992126
        },
        {
          "duration": 0.7792209999999926,
          "durationTicks": 96,
          "midi": 58,
          "name": "A#3",
          "ticks": 11376,
          "time": 92.3376885,
          "velocity": 0.8031496062992126
        },
        {
          "duration": 0.7792210000000068,
          "durationTicks": 96,
          "midi": 56,
          "name": "G#3",
          "ticks": 11472,
          "time": 93.11690949999999,
          "velocity": 1
        },
        {
          "duration": 0.7792210000000068,
          "durationTicks": 96,
          "midi": 61,
          "name": "C#4",
          "ticks": 11472,
          "time": 93.11690949999999,
          "velocity": 0.7637795275590551
        },
        {
          "duration": 0.7792210000000068,
          "durationTicks": 96,
          "midi": 65,
          "name": "F4",
          "ticks": 11472,
          "time": 93.11690949999999,
          "velocity": 0.7637795275590551
        },
        {
          "duration": 0.7792210000000068,
          "durationTicks": 96,
          "midi": 58,
          "name": "A#3",
          "ticks": 11472,
          "time": 93.11690949999999,
          "velocity": 0.7637795275590551
        },
        {
          "duration": 0.7792209999999926,
          "durationTicks": 96,
          "midi": 63,
          "name": "D#4",
          "ticks": 11568,
          "time": 93.8961305,
          "velocity": 0.8976377952755905
        },
        {
          "duration": 0.7792209999999926,
          "durationTicks": 96,
          "midi": 54,
          "name": "F#3",
          "ticks": 11568,
          "time": 93.8961305,
          "velocity": 1
        },
        {
          "duration": 0.7792209999999926,
          "durationTicks": 96,
          "midi": 58,
          "name": "A#3",
          "ticks": 11568,
          "time": 93.8961305,
          "velocity": 0.8976377952755905
        },
        {
          "duration": 0.7792209999999926,
          "durationTicks": 96,
          "midi": 61,
          "name": "C#4",
          "ticks": 11568,
          "time": 93.8961305,
          "velocity": 0.8976377952755905
        },
        {
          "duration": 0.7792210000000068,
          "durationTicks": 96,
          "midi": 63,
          "name": "D#4",
          "ticks": 11664,
          "time": 94.67535149999999,
          "velocity": 0.8031496062992126
        },
        {
          "duration": 0.7792210000000068,
          "durationTicks": 96,
          "midi": 54,
          "name": "F#3",
          "ticks": 11664,
          "time": 94.67535149999999,
          "velocity": 1
        },
        {
          "duration": 0.7792210000000068,
          "durationTicks": 96,
          "midi": 58,
          "name": "A#3",
          "ticks": 11664,
          "time": 94.67535149999999,
          "velocity": 0.8031496062992126
        },
        {
          "duration": 0.7792210000000068,
          "durationTicks": 96,
          "midi": 61,
          "name": "C#4",
          "ticks": 11664,
          "time": 94.67535149999999,
          "velocity": 0.8031496062992126
        },
        {
          "duration": 0.7792209999999926,
          "durationTicks": 96,
          "midi": 57,
          "name": "A3",
          "ticks": 11760,
          "time": 95.4545725,
          "velocity": 0.8031496062992126
        },
        {
          "duration": 0.7792209999999926,
          "durationTicks": 96,
          "midi": 54,
          "name": "F#3",
          "ticks": 11760,
          "time": 95.4545725,
          "velocity": 1
        },
        {
          "duration": 0.7792209999999926,
          "durationTicks": 96,
          "midi": 61,
          "name": "C#4",
          "ticks": 11760,
          "time": 95.4545725,
          "velocity": 0.8031496062992126
        },
        {
          "duration": 0.7792209999999926,
          "durationTicks": 96,
          "midi": 65,
          "name": "F4",
          "ticks": 11760,
          "time": 95.4545725,
          "velocity": 0.8031496062992126
        },
        {
          "duration": 0.7792210000000068,
          "durationTicks": 96,
          "midi": 54,
          "name": "F#3",
          "ticks": 11856,
          "time": 96.23379349999999,
          "velocity": 0.8976377952755905
        },
        {
          "duration": 0.7792210000000068,
          "durationTicks": 96,
          "midi": 60,
          "name": "C4",
          "ticks": 11856,
          "time": 96.23379349999999,
          "velocity": 0.6850393700787402
        },
        {
          "duration": 0.7792210000000068,
          "durationTicks": 96,
          "midi": 63,
          "name": "D#4",
          "ticks": 11856,
          "time": 96.23379349999999,
          "velocity": 0.6850393700787402
        },
        {
          "duration": 0.7792210000000068,
          "durationTicks": 96,
          "midi": 56,
          "name": "G#3",
          "ticks": 11856,
          "time": 96.23379349999999,
          "velocity": 0.8976377952755905
        },
        {
          "duration": 0.7792209999999926,
          "durationTicks": 96,
          "midi": 65,
          "name": "F4",
          "ticks": 11952,
          "time": 97.0130145,
          "velocity": 0.8976377952755905
        },
        {
          "duration": 0.7792209999999926,
          "durationTicks": 96,
          "midi": 61,
          "name": "C#4",
          "ticks": 11952,
          "time": 97.0130145,
          "velocity": 0.8976377952755905
        },
        {
          "duration": 0.7792209999999926,
          "durationTicks": 96,
          "midi": 56,
          "name": "G#3",
          "ticks": 11952,
          "time": 97.0130145,
          "velocity": 1
        },
        {
          "duration": 0.7792209999999926,
          "durationTicks": 96,
          "midi": 60,
          "name": "C4",
          "ticks": 11952,
          "time": 97.0130145,
          "velocity": 0.8976377952755905
        },
        {
          "duration": 0.7792210000000068,
          "durationTicks": 96,
          "midi": 65,
          "name": "F4",
          "ticks": 12048,
          "time": 97.79223549999999,
          "velocity": 0.8031496062992126
        },
        {
          "duration": 0.7792210000000068,
          "durationTicks": 96,
          "midi": 61,
          "name": "C#4",
          "ticks": 12048,
          "time": 97.79223549999999,
          "velocity": 0.8031496062992126
        },
        {
          "duration": 0.7792210000000068,
          "durationTicks": 96,
          "midi": 56,
          "name": "G#3",
          "ticks": 12048,
          "time": 97.79223549999999,
          "velocity": 1
        },
        {
          "duration": 0.7792210000000068,
          "durationTicks": 96,
          "midi": 60,
          "name": "C4",
          "ticks": 12048,
          "time": 97.79223549999999,
          "velocity": 0.8031496062992126
        },
        {
          "duration": 0.7792209999999926,
          "durationTicks": 96,
          "midi": 54,
          "name": "F#3",
          "ticks": 12144,
          "time": 98.5714565,
          "velocity": 1
        },
        {
          "duration": 0.7792209999999926,
          "durationTicks": 96,
          "midi": 61,
          "name": "C#4",
          "ticks": 12144,
          "time": 98.5714565,
          "velocity": 0.8031496062992126
        },
        {
          "duration": 0.7792209999999926,
          "durationTicks": 96,
          "midi": 65,
          "name": "F4",
          "ticks": 12144,
          "time": 98.5714565,
          "velocity": 0.8031496062992126
        },
        {
          "duration": 0.7792209999999926,
          "durationTicks": 96,
          "midi": 58,
          "name": "A#3",
          "ticks": 12144,
          "time": 98.5714565,
          "velocity": 0.8031496062992126
        },
        {
          "duration": 0.7792210000000068,
          "durationTicks": 96,
          "midi": 54,
          "name": "F#3",
          "ticks": 12240,
          "time": 99.35067749999999,
          "velocity": 1
        },
        {
          "duration": 0.7792210000000068,
          "durationTicks": 96,
          "midi": 61,
          "name": "C#4",
          "ticks": 12240,
          "time": 99.35067749999999,
          "velocity": 0.7637795275590551
        },
        {
          "duration": 0.7792210000000068,
          "durationTicks": 96,
          "midi": 65,
          "name": "F4",
          "ticks": 12240,
          "time": 99.35067749999999,
          "velocity": 0.7637795275590551
        },
        {
          "duration": 0.7792210000000068,
          "durationTicks": 96,
          "midi": 58,
          "name": "A#3",
          "ticks": 12240,
          "time": 99.35067749999999,
          "velocity": 0.7637795275590551
        },
        {
          "duration": 0.7792209999999926,
          "durationTicks": 96,
          "midi": 65,
          "name": "F4",
          "ticks": 12336,
          "time": 100.1298985,
          "velocity": 0.8976377952755905
        },
        {
          "duration": 0.7792209999999926,
          "durationTicks": 96,
          "midi": 61,
          "name": "C#4",
          "ticks": 12336,
          "time": 100.1298985,
          "velocity": 0.8976377952755905
        },
        {
          "duration": 0.7792209999999926,
          "durationTicks": 96,
          "midi": 56,
          "name": "G#3",
          "ticks": 12336,
          "time": 100.1298985,
          "velocity": 1
        },
        {
          "duration": 0.7792209999999926,
          "durationTicks": 96,
          "midi": 60,
          "name": "C4",
          "ticks": 12336,
          "time": 100.1298985,
          "velocity": 0.8976377952755905
        },
        {
          "duration": 0.7792210000000068,
          "durationTicks": 96,
          "midi": 65,
          "name": "F4",
          "ticks": 12432,
          "time": 100.90911949999999,
          "velocity": 0.8031496062992126
        },
        {
          "duration": 0.7792210000000068,
          "durationTicks": 96,
          "midi": 61,
          "name": "C#4",
          "ticks": 12432,
          "time": 100.90911949999999,
          "velocity": 0.8031496062992126
        },
        {
          "duration": 0.7792210000000068,
          "durationTicks": 96,
          "midi": 56,
          "name": "G#3",
          "ticks": 12432,
          "time": 100.90911949999999,
          "velocity": 1
        },
        {
          "duration": 0.7792210000000068,
          "durationTicks": 96,
          "midi": 60,
          "name": "C4",
          "ticks": 12432,
          "time": 100.90911949999999,
          "velocity": 0.8031496062992126
        },
        {
          "duration": 0.7792209999999926,
          "durationTicks": 96,
          "midi": 54,
          "name": "F#3",
          "ticks": 12528,
          "time": 101.6883405,
          "velocity": 1
        },
        {
          "duration": 0.7792209999999926,
          "durationTicks": 96,
          "midi": 61,
          "name": "C#4",
          "ticks": 12528,
          "time": 101.6883405,
          "velocity": 0.8031496062992126
        },
        {
          "duration": 0.7792209999999926,
          "durationTicks": 96,
          "midi": 65,
          "name": "F4",
          "ticks": 12528,
          "time": 101.6883405,
          "velocity": 0.8031496062992126
        },
        {
          "duration": 0.7792209999999926,
          "durationTicks": 96,
          "midi": 58,
          "name": "A#3",
          "ticks": 12528,
          "time": 101.6883405,
          "velocity": 0.8031496062992126
        },
        {
          "duration": 0.7792210000000068,
          "durationTicks": 96,
          "midi": 54,
          "name": "F#3",
          "ticks": 12624,
          "time": 102.46756149999999,
          "velocity": 1
        },
        {
          "duration": 0.7792210000000068,
          "durationTicks": 96,
          "midi": 61,
          "name": "C#4",
          "ticks": 12624,
          "time": 102.46756149999999,
          "velocity": 0.7637795275590551
        },
        {
          "duration": 0.7792210000000068,
          "durationTicks": 96,
          "midi": 65,
          "name": "F4",
          "ticks": 12624,
          "time": 102.46756149999999,
          "velocity": 0.7637795275590551
        },
        {
          "duration": 0.7792210000000068,
          "durationTicks": 96,
          "midi": 58,
          "name": "A#3",
          "ticks": 12624,
          "time": 102.46756149999999,
          "velocity": 0.7637795275590551
        },
        {
          "duration": 0.7792209999999926,
          "durationTicks": 96,
          "midi": 63,
          "name": "D#4",
          "ticks": 12720,
          "time": 103.2467825,
          "velocity": 0.8976377952755905
        },
        {
          "duration": 0.7792209999999926,
          "durationTicks": 96,
          "midi": 53,
          "name": "F3",
          "ticks": 12720,
          "time": 103.2467825,
          "velocity": 1
        },
        {
          "duration": 0.7792209999999926,
          "durationTicks": 96,
          "midi": 56,
          "name": "G#3",
          "ticks": 12720,
          "time": 103.2467825,
          "velocity": 0.8976377952755905
        },
        {
          "duration": 0.7792209999999926,
          "durationTicks": 96,
          "midi": 60,
          "name": "C4",
          "ticks": 12720,
          "time": 103.2467825,
          "velocity": 0.8976377952755905
        },
        {
          "duration": 0.7792210000000068,
          "durationTicks": 96,
          "midi": 63,
          "name": "D#4",
          "ticks": 12816,
          "time": 104.02600349999999,
          "velocity": 0.8031496062992126
        },
        {
          "duration": 0.7792210000000068,
          "durationTicks": 96,
          "midi": 53,
          "name": "F3",
          "ticks": 12816,
          "time": 104.02600349999999,
          "velocity": 1
        },
        {
          "duration": 0.7792210000000068,
          "durationTicks": 96,
          "midi": 56,
          "name": "G#3",
          "ticks": 12816,
          "time": 104.02600349999999,
          "velocity": 0.8031496062992126
        },
        {
          "duration": 0.7792210000000068,
          "durationTicks": 96,
          "midi": 60,
          "name": "C4",
          "ticks": 12816,
          "time": 104.02600349999999,
          "velocity": 0.8031496062992126
        },
        {
          "duration": 0.7792209999999926,
          "durationTicks": 96,
          "midi": 56,
          "name": "G#3",
          "ticks": 12912,
          "time": 104.8052245,
          "velocity": 1
        },
        {
          "duration": 0.7792209999999926,
          "durationTicks": 96,
          "midi": 61,
          "name": "C#4",
          "ticks": 12912,
          "time": 104.8052245,
          "velocity": 0.8031496062992126
        },
        {
          "duration": 0.7792209999999926,
          "durationTicks": 96,
          "midi": 65,
          "name": "F4",
          "ticks": 12912,
          "time": 104.8052245,
          "velocity": 0.8031496062992126
        },
        {
          "duration": 0.7792209999999926,
          "durationTicks": 96,
          "midi": 58,
          "name": "A#3",
          "ticks": 12912,
          "time": 104.8052245,
          "velocity": 0.8031496062992126
        },
        {
          "duration": 0.7792210000000068,
          "durationTicks": 96,
          "midi": 56,
          "name": "G#3",
          "ticks": 13008,
          "time": 105.58444549999999,
          "velocity": 1
        },
        {
          "duration": 0.7792210000000068,
          "durationTicks": 96,
          "midi": 61,
          "name": "C#4",
          "ticks": 13008,
          "time": 105.58444549999999,
          "velocity": 0.7637795275590551
        },
        {
          "duration": 0.7792210000000068,
          "durationTicks": 96,
          "midi": 65,
          "name": "F4",
          "ticks": 13008,
          "time": 105.58444549999999,
          "velocity": 0.7637795275590551
        },
        {
          "duration": 0.7792210000000068,
          "durationTicks": 96,
          "midi": 58,
          "name": "A#3",
          "ticks": 13008,
          "time": 105.58444549999999,
          "velocity": 0.7637795275590551
        },
        {
          "duration": 0.7792209999999926,
          "durationTicks": 96,
          "midi": 63,
          "name": "D#4",
          "ticks": 13104,
          "time": 106.3636665,
          "velocity": 0.8976377952755905
        },
        {
          "duration": 0.7792209999999926,
          "durationTicks": 96,
          "midi": 54,
          "name": "F#3",
          "ticks": 13104,
          "time": 106.3636665,
          "velocity": 1
        },
        {
          "duration": 0.7792209999999926,
          "durationTicks": 96,
          "midi": 58,
          "name": "A#3",
          "ticks": 13104,
          "time": 106.3636665,
          "velocity": 0.8976377952755905
        },
        {
          "duration": 0.7792209999999926,
          "durationTicks": 96,
          "midi": 61,
          "name": "C#4",
          "ticks": 13104,
          "time": 106.3636665,
          "velocity": 0.8976377952755905
        },
        {
          "duration": 0.7792210000000068,
          "durationTicks": 96,
          "midi": 63,
          "name": "D#4",
          "ticks": 13200,
          "time": 107.14288749999999,
          "velocity": 0.8031496062992126
        },
        {
          "duration": 0.7792210000000068,
          "durationTicks": 96,
          "midi": 54,
          "name": "F#3",
          "ticks": 13200,
          "time": 107.14288749999999,
          "velocity": 1
        },
        {
          "duration": 0.7792210000000068,
          "durationTicks": 96,
          "midi": 58,
          "name": "A#3",
          "ticks": 13200,
          "time": 107.14288749999999,
          "velocity": 0.8031496062992126
        },
        {
          "duration": 0.7792210000000068,
          "durationTicks": 96,
          "midi": 61,
          "name": "C#4",
          "ticks": 13200,
          "time": 107.14288749999999,
          "velocity": 0.8031496062992126
        },
        {
          "duration": 0.7792209999999926,
          "durationTicks": 96,
          "midi": 65,
          "name": "F4",
          "ticks": 13296,
          "time": 107.9221085,
          "velocity": 0.8031496062992126
        },
        {
          "duration": 0.7792209999999926,
          "durationTicks": 96,
          "midi": 56,
          "name": "G#3",
          "ticks": 13296,
          "time": 107.9221085,
          "velocity": 0.7007874015748031
        },
        {
          "duration": 0.7792209999999926,
          "durationTicks": 96,
          "midi": 61,
          "name": "C#4",
          "ticks": 13296,
          "time": 107.9221085,
          "velocity": 0.8031496062992126
        },
        {
          "duration": 0.7792209999999926,
          "durationTicks": 96,
          "midi": 54,
          "name": "F#3",
          "ticks": 13296,
          "time": 107.9221085,
          "velocity": 1
        },
        {
          "duration": 0.7792210000000068,
          "durationTicks": 96,
          "midi": 60,
          "name": "C4",
          "ticks": 13392,
          "time": 108.70132949999999,
          "velocity": 0.6850393700787402
        },
        {
          "duration": 0.7792210000000068,
          "durationTicks": 96,
          "midi": 63,
          "name": "D#4",
          "ticks": 13392,
          "time": 108.70132949999999,
          "velocity": 0.6850393700787402
        },
        {
          "duration": 0.7792210000000068,
          "durationTicks": 96,
          "midi": 56,
          "name": "G#3",
          "ticks": 13392,
          "time": 108.70132949999999,
          "velocity": 0.6850393700787402
        },
        {
          "duration": 0.7792210000000068,
          "durationTicks": 96,
          "midi": 54,
          "name": "F#3",
          "ticks": 13392,
          "time": 108.70132949999999,
          "velocity": 0.8976377952755905
        },
        {
          "duration": 0.7792209999999926,
          "durationTicks": 96,
          "midi": 65,
          "name": "F4",
          "ticks": 13488,
          "time": 109.48055049999999,
          "velocity": 0.8976377952755905
        },
        {
          "duration": 0.7792209999999926,
          "durationTicks": 96,
          "midi": 61,
          "name": "C#4",
          "ticks": 13488,
          "time": 109.48055049999999,
          "velocity": 0.8976377952755905
        },
        {
          "duration": 0.7792209999999926,
          "durationTicks": 96,
          "midi": 56,
          "name": "G#3",
          "ticks": 13488,
          "time": 109.48055049999999,
          "velocity": 1
        },
        {
          "duration": 0.7792209999999926,
          "durationTicks": 96,
          "midi": 60,
          "name": "C4",
          "ticks": 13488,
          "time": 109.48055049999999,
          "velocity": 0.8976377952755905
        },
        {
          "duration": 0.7792210000000068,
          "durationTicks": 96,
          "midi": 65,
          "name": "F4",
          "ticks": 13584,
          "time": 110.25977149999999,
          "velocity": 0.8503937007874016
        },
        {
          "duration": 0.7792210000000068,
          "durationTicks": 96,
          "midi": 61,
          "name": "C#4",
          "ticks": 13584,
          "time": 110.25977149999999,
          "velocity": 0.8503937007874016
        },
        {
          "duration": 0.7792210000000068,
          "durationTicks": 96,
          "midi": 56,
          "name": "G#3",
          "ticks": 13584,
          "time": 110.25977149999999,
          "velocity": 1
        },
        {
          "duration": 0.7792210000000068,
          "durationTicks": 96,
          "midi": 60,
          "name": "C4",
          "ticks": 13584,
          "time": 110.25977149999999,
          "velocity": 0.8503937007874016
        },
        {
          "duration": 0.7792209999999926,
          "durationTicks": 96,
          "midi": 54,
          "name": "F#3",
          "ticks": 13680,
          "time": 111.03899249999999,
          "velocity": 1
        },
        {
          "duration": 0.7792209999999926,
          "durationTicks": 96,
          "midi": 61,
          "name": "C#4",
          "ticks": 13680,
          "time": 111.03899249999999,
          "velocity": 0.8976377952755905
        },
        {
          "duration": 0.7792209999999926,
          "durationTicks": 96,
          "midi": 65,
          "name": "F4",
          "ticks": 13680,
          "time": 111.03899249999999,
          "velocity": 0.8976377952755905
        },
        {
          "duration": 0.7792209999999926,
          "durationTicks": 96,
          "midi": 58,
          "name": "A#3",
          "ticks": 13680,
          "time": 111.03899249999999,
          "velocity": 0.8976377952755905
        },
        {
          "duration": 0.7792210000000068,
          "durationTicks": 96,
          "midi": 54,
          "name": "F#3",
          "ticks": 13776,
          "time": 111.81821349999998,
          "velocity": 1
        },
        {
          "duration": 0.7792210000000068,
          "durationTicks": 96,
          "midi": 61,
          "name": "C#4",
          "ticks": 13776,
          "time": 111.81821349999998,
          "velocity": 0.8503937007874016
        },
        {
          "duration": 0.7792210000000068,
          "durationTicks": 96,
          "midi": 65,
          "name": "F4",
          "ticks": 13776,
          "time": 111.81821349999998,
          "velocity": 0.8503937007874016
        },
        {
          "duration": 0.7792210000000068,
          "durationTicks": 96,
          "midi": 58,
          "name": "A#3",
          "ticks": 13776,
          "time": 111.81821349999998,
          "velocity": 0.8503937007874016
        },
        {
          "duration": 0.7792210000000068,
          "durationTicks": 96,
          "midi": 65,
          "name": "F4",
          "ticks": 13872,
          "time": 112.59743449999999,
          "velocity": 0.8976377952755905
        },
        {
          "duration": 0.7792210000000068,
          "durationTicks": 96,
          "midi": 61,
          "name": "C#4",
          "ticks": 13872,
          "time": 112.59743449999999,
          "velocity": 0.8976377952755905
        },
        {
          "duration": 0.7792210000000068,
          "durationTicks": 96,
          "midi": 56,
          "name": "G#3",
          "ticks": 13872,
          "time": 112.59743449999999,
          "velocity": 1
        },
        {
          "duration": 0.7792210000000068,
          "durationTicks": 96,
          "midi": 60,
          "name": "C4",
          "ticks": 13872,
          "time": 112.59743449999999,
          "velocity": 0.8976377952755905
        },
        {
          "duration": 0.7792209999999926,
          "durationTicks": 96,
          "midi": 65,
          "name": "F4",
          "ticks": 13968,
          "time": 113.3766555,
          "velocity": 0.8503937007874016
        },
        {
          "duration": 0.7792209999999926,
          "durationTicks": 96,
          "midi": 61,
          "name": "C#4",
          "ticks": 13968,
          "time": 113.3766555,
          "velocity": 0.8503937007874016
        },
        {
          "duration": 0.7792209999999926,
          "durationTicks": 96,
          "midi": 56,
          "name": "G#3",
          "ticks": 13968,
          "time": 113.3766555,
          "velocity": 1
        },
        {
          "duration": 0.7792209999999926,
          "durationTicks": 96,
          "midi": 60,
          "name": "C4",
          "ticks": 13968,
          "time": 113.3766555,
          "velocity": 0.8503937007874016
        },
        {
          "duration": 0.7792210000000068,
          "durationTicks": 96,
          "midi": 54,
          "name": "F#3",
          "ticks": 14064,
          "time": 114.15587649999999,
          "velocity": 1
        },
        {
          "duration": 0.7792210000000068,
          "durationTicks": 96,
          "midi": 61,
          "name": "C#4",
          "ticks": 14064,
          "time": 114.15587649999999,
          "velocity": 0.8976377952755905
        },
        {
          "duration": 0.7792210000000068,
          "durationTicks": 96,
          "midi": 65,
          "name": "F4",
          "ticks": 14064,
          "time": 114.15587649999999,
          "velocity": 0.8976377952755905
        },
        {
          "duration": 0.7792210000000068,
          "durationTicks": 96,
          "midi": 58,
          "name": "A#3",
          "ticks": 14064,
          "time": 114.15587649999999,
          "velocity": 0.8976377952755905
        },
        {
          "duration": 0.7792209999999926,
          "durationTicks": 96,
          "midi": 54,
          "name": "F#3",
          "ticks": 14160,
          "time": 114.9350975,
          "velocity": 1
        },
        {
          "duration": 0.7792209999999926,
          "durationTicks": 96,
          "midi": 61,
          "name": "C#4",
          "ticks": 14160,
          "time": 114.9350975,
          "velocity": 0.8503937007874016
        },
        {
          "duration": 0.7792209999999926,
          "durationTicks": 96,
          "midi": 65,
          "name": "F4",
          "ticks": 14160,
          "time": 114.9350975,
          "velocity": 0.8503937007874016
        },
        {
          "duration": 0.7792209999999926,
          "durationTicks": 96,
          "midi": 58,
          "name": "A#3",
          "ticks": 14160,
          "time": 114.9350975,
          "velocity": 0.8503937007874016
        },
        {
          "duration": 0.7792210000000068,
          "durationTicks": 96,
          "midi": 65,
          "name": "F4",
          "ticks": 14256,
          "time": 115.71431849999999,
          "velocity": 0.8976377952755905
        },
        {
          "duration": 0.7792210000000068,
          "durationTicks": 96,
          "midi": 61,
          "name": "C#4",
          "ticks": 14256,
          "time": 115.71431849999999,
          "velocity": 0.8976377952755905
        },
        {
          "duration": 0.7792210000000068,
          "durationTicks": 96,
          "midi": 56,
          "name": "G#3",
          "ticks": 14256,
          "time": 115.71431849999999,
          "velocity": 1
        },
        {
          "duration": 0.7792210000000068,
          "durationTicks": 96,
          "midi": 60,
          "name": "C4",
          "ticks": 14256,
          "time": 115.71431849999999,
          "velocity": 0.8976377952755905
        },
        {
          "duration": 0.7792209999999926,
          "durationTicks": 96,
          "midi": 65,
          "name": "F4",
          "ticks": 14352,
          "time": 116.4935395,
          "velocity": 0.8503937007874016
        },
        {
          "duration": 0.7792209999999926,
          "durationTicks": 96,
          "midi": 61,
          "name": "C#4",
          "ticks": 14352,
          "time": 116.4935395,
          "velocity": 0.8503937007874016
        },
        {
          "duration": 0.7792209999999926,
          "durationTicks": 96,
          "midi": 56,
          "name": "G#3",
          "ticks": 14352,
          "time": 116.4935395,
          "velocity": 1
        },
        {
          "duration": 0.7792209999999926,
          "durationTicks": 96,
          "midi": 60,
          "name": "C4",
          "ticks": 14352,
          "time": 116.4935395,
          "velocity": 0.8503937007874016
        },
        {
          "duration": 0.7792210000000068,
          "durationTicks": 96,
          "midi": 54,
          "name": "F#3",
          "ticks": 14448,
          "time": 117.27276049999999,
          "velocity": 1
        },
        {
          "duration": 0.7792210000000068,
          "durationTicks": 96,
          "midi": 61,
          "name": "C#4",
          "ticks": 14448,
          "time": 117.27276049999999,
          "velocity": 0.8976377952755905
        },
        {
          "duration": 0.7792210000000068,
          "durationTicks": 96,
          "midi": 65,
          "name": "F4",
          "ticks": 14448,
          "time": 117.27276049999999,
          "velocity": 0.8976377952755905
        },
        {
          "duration": 0.7792210000000068,
          "durationTicks": 96,
          "midi": 58,
          "name": "A#3",
          "ticks": 14448,
          "time": 117.27276049999999,
          "velocity": 0.8976377952755905
        },
        {
          "duration": 0.7792209999999926,
          "durationTicks": 96,
          "midi": 54,
          "name": "F#3",
          "ticks": 14544,
          "time": 118.0519815,
          "velocity": 1
        },
        {
          "duration": 0.7792209999999926,
          "durationTicks": 96,
          "midi": 61,
          "name": "C#4",
          "ticks": 14544,
          "time": 118.0519815,
          "velocity": 0.8503937007874016
        },
        {
          "duration": 0.7792209999999926,
          "durationTicks": 96,
          "midi": 65,
          "name": "F4",
          "ticks": 14544,
          "time": 118.0519815,
          "velocity": 0.8503937007874016
        },
        {
          "duration": 0.7792209999999926,
          "durationTicks": 96,
          "midi": 58,
          "name": "A#3",
          "ticks": 14544,
          "time": 118.0519815,
          "velocity": 0.8503937007874016
        },
        {
          "duration": 0.7792210000000068,
          "durationTicks": 96,
          "midi": 65,
          "name": "F4",
          "ticks": 14640,
          "time": 118.83120249999999,
          "velocity": 0.8976377952755905
        },
        {
          "duration": 0.7792210000000068,
          "durationTicks": 96,
          "midi": 61,
          "name": "C#4",
          "ticks": 14640,
          "time": 118.83120249999999,
          "velocity": 0.8976377952755905
        },
        {
          "duration": 0.7792210000000068,
          "durationTicks": 96,
          "midi": 56,
          "name": "G#3",
          "ticks": 14640,
          "time": 118.83120249999999,
          "velocity": 1
        },
        {
          "duration": 0.7792210000000068,
          "durationTicks": 96,
          "midi": 60,
          "name": "C4",
          "ticks": 14640,
          "time": 118.83120249999999,
          "velocity": 0.8976377952755905
        },
        {
          "duration": 0.7792209999999926,
          "durationTicks": 96,
          "midi": 65,
          "name": "F4",
          "ticks": 14736,
          "time": 119.6104235,
          "velocity": 0.7637795275590551
        },
        {
          "duration": 0.7792209999999926,
          "durationTicks": 96,
          "midi": 61,
          "name": "C#4",
          "ticks": 14736,
          "time": 119.6104235,
          "velocity": 0.7637795275590551
        },
        {
          "duration": 0.7792209999999926,
          "durationTicks": 96,
          "midi": 56,
          "name": "G#3",
          "ticks": 14736,
          "time": 119.6104235,
          "velocity": 1
        },
        {
          "duration": 0.7792209999999926,
          "durationTicks": 96,
          "midi": 60,
          "name": "C4",
          "ticks": 14736,
          "time": 119.6104235,
          "velocity": 0.7637795275590551
        },
        {
          "duration": 3.108767114583344,
          "durationTicks": 383,
          "midi": 55,
          "name": "G3",
          "ticks": 14826,
          "time": 120.34094318749999,
          "velocity": 1
        },
        {
          "duration": 3.108767114583344,
          "durationTicks": 383,
          "midi": 58,
          "name": "A#3",
          "ticks": 14832,
          "time": 120.38964449999999,
          "velocity": 0.8503937007874016
        },
        {
          "duration": 3.011364489583329,
          "durationTicks": 371,
          "midi": 61,
          "name": "C#4",
          "ticks": 14835,
          "time": 120.41399515625,
          "velocity": 0.8110236220472441
        },
        {
          "duration": 3.011364489583343,
          "durationTicks": 371,
          "midi": 65,
          "name": "F4",
          "ticks": 14838,
          "time": 120.43834581249999,
          "velocity": 0.7795275590551181
        },
        {
          "duration": 0.7792210000000068,
          "durationTicks": 96,
          "midi": 54,
          "name": "F#3",
          "ticks": 15216,
          "time": 123.50652849999999,
          "velocity": 1
        },
        {
          "duration": 0.7792210000000068,
          "durationTicks": 96,
          "midi": 61,
          "name": "C#4",
          "ticks": 15216,
          "time": 123.50652849999999,
          "velocity": 0.8976377952755905
        },
        {
          "duration": 0.7792210000000068,
          "durationTicks": 96,
          "midi": 65,
          "name": "F4",
          "ticks": 15216,
          "time": 123.50652849999999,
          "velocity": 0.8976377952755905
        },
        {
          "duration": 0.7792210000000068,
          "durationTicks": 96,
          "midi": 58,
          "name": "A#3",
          "ticks": 15216,
          "time": 123.50652849999999,
          "velocity": 0.8976377952755905
        },
        {
          "duration": 0.7792209999999926,
          "durationTicks": 96,
          "midi": 54,
          "name": "F#3",
          "ticks": 15312,
          "time": 124.2857495,
          "velocity": 1
        },
        {
          "duration": 0.7792209999999926,
          "durationTicks": 96,
          "midi": 61,
          "name": "C#4",
          "ticks": 15312,
          "time": 124.2857495,
          "velocity": 0.8031496062992126
        },
        {
          "duration": 0.7792209999999926,
          "durationTicks": 96,
          "midi": 65,
          "name": "F4",
          "ticks": 15312,
          "time": 124.2857495,
          "velocity": 0.8031496062992126
        },
        {
          "duration": 0.7792209999999926,
          "durationTicks": 96,
          "midi": 58,
          "name": "A#3",
          "ticks": 15312,
          "time": 124.2857495,
          "velocity": 0.8031496062992126
        },
        {
          "duration": 0.7792210000000068,
          "durationTicks": 96,
          "midi": 56,
          "name": "G#3",
          "ticks": 15408,
          "time": 125.06497049999999,
          "velocity": 1
        },
        {
          "duration": 0.7792210000000068,
          "durationTicks": 96,
          "midi": 63,
          "name": "D#4",
          "ticks": 15408,
          "time": 125.06497049999999,
          "velocity": 0.7716535433070866
        },
        {
          "duration": 0.7792210000000068,
          "durationTicks": 96,
          "midi": 65,
          "name": "F4",
          "ticks": 15408,
          "time": 125.06497049999999,
          "velocity": 0.7716535433070866
        },
        {
          "duration": 0.7792210000000068,
          "durationTicks": 96,
          "midi": 60,
          "name": "C4",
          "ticks": 15408,
          "time": 125.06497049999999,
          "velocity": 0.7716535433070866
        },
        {
          "duration": 0.7792209999999926,
          "durationTicks": 96,
          "midi": 56,
          "name": "G#3",
          "ticks": 15504,
          "time": 125.8441915,
          "velocity": 1
        },
        {
          "duration": 0.7792209999999926,
          "durationTicks": 96,
          "midi": 63,
          "name": "D#4",
          "ticks": 15504,
          "time": 125.8441915,
          "velocity": 0.7637795275590551
        },
        {
          "duration": 0.7792209999999926,
          "durationTicks": 96,
          "midi": 65,
          "name": "F4",
          "ticks": 15504,
          "time": 125.8441915,
          "velocity": 0.7637795275590551
        },
        {
          "duration": 0.7792209999999926,
          "durationTicks": 96,
          "midi": 60,
          "name": "C4",
          "ticks": 15504,
          "time": 125.8441915,
          "velocity": 0.7637795275590551
        },
        {
          "duration": 0.7792210000000068,
          "durationTicks": 96,
          "midi": 56,
          "name": "G#3",
          "ticks": 15600,
          "time": 126.62341249999999,
          "velocity": 0.8582677165354331
        },
        {
          "duration": 0.7792210000000068,
          "durationTicks": 96,
          "midi": 63,
          "name": "D#4",
          "ticks": 15600,
          "time": 126.62341249999999,
          "velocity": 0.8582677165354331
        },
        {
          "duration": 0.7792210000000068,
          "durationTicks": 96,
          "midi": 53,
          "name": "F3",
          "ticks": 15600,
          "time": 126.62341249999999,
          "velocity": 1
        },
        {
          "duration": 0.7792210000000068,
          "durationTicks": 96,
          "midi": 60,
          "name": "C4",
          "ticks": 15600,
          "time": 126.62341249999999,
          "velocity": 0.8582677165354331
        },
        {
          "duration": 0.7792209999999926,
          "durationTicks": 96,
          "midi": 56,
          "name": "G#3",
          "ticks": 15696,
          "time": 127.4026335,
          "velocity": 0.8031496062992126
        },
        {
          "duration": 0.7792209999999926,
          "durationTicks": 96,
          "midi": 63,
          "name": "D#4",
          "ticks": 15696,
          "time": 127.4026335,
          "velocity": 0.8031496062992126
        },
        {
          "duration": 0.7792209999999926,
          "durationTicks": 96,
          "midi": 53,
          "name": "F3",
          "ticks": 15696,
          "time": 127.4026335,
          "velocity": 1
        },
        {
          "duration": 0.7792209999999926,
          "durationTicks": 96,
          "midi": 60,
          "name": "C4",
          "ticks": 15696,
          "time": 127.4026335,
          "velocity": 0.8031496062992126
        },
        {
          "duration": 0.7792210000000068,
          "durationTicks": 96,
          "midi": 56,
          "name": "G#3",
          "ticks": 15792,
          "time": 128.1818545,
          "velocity": 0.7559055118110236
        },
        {
          "duration": 0.7792210000000068,
          "durationTicks": 96,
          "midi": 62,
          "name": "D4",
          "ticks": 15792,
          "time": 128.1818545,
          "velocity": 0.7559055118110236
        },
        {
          "duration": 0.7792210000000068,
          "durationTicks": 96,
          "midi": 53,
          "name": "F3",
          "ticks": 15792,
          "time": 128.1818545,
          "velocity": 1
        },
        {
          "duration": 0.7792210000000068,
          "durationTicks": 96,
          "midi": 58,
          "name": "A#3",
          "ticks": 15792,
          "time": 128.1818545,
          "velocity": 0.7559055118110236
        },
        {
          "duration": 0.7792210000000068,
          "durationTicks": 96,
          "midi": 56,
          "name": "G#3",
          "ticks": 15888,
          "time": 128.9610755,
          "velocity": 0.8031496062992126
        },
        {
          "duration": 0.7792210000000068,
          "durationTicks": 96,
          "midi": 62,
          "name": "D4",
          "ticks": 15888,
          "time": 128.9610755,
          "velocity": 0.8031496062992126
        },
        {
          "duration": 0.7792210000000068,
          "durationTicks": 96,
          "midi": 53,
          "name": "F3",
          "ticks": 15888,
          "time": 128.9610755,
          "velocity": 1
        },
        {
          "duration": 0.7792210000000068,
          "durationTicks": 96,
          "midi": 58,
          "name": "A#3",
          "ticks": 15888,
          "time": 128.9610755,
          "velocity": 0.8031496062992126
        },
        {
          "duration": 0.7792209999999784,
          "durationTicks": 96,
          "midi": 54,
          "name": "F#3",
          "ticks": 15984,
          "time": 129.7402965,
          "velocity": 0.8582677165354331
        },
        {
          "duration": 0.7792209999999784,
          "durationTicks": 96,
          "midi": 61,
          "name": "C#4",
          "ticks": 15984,
          "time": 129.7402965,
          "velocity": 0.8582677165354331
        },
        {
          "duration": 0.7792209999999784,
          "durationTicks": 96,
          "midi": 63,
          "name": "D#4",
          "ticks": 15984,
          "time": 129.7402965,
          "velocity": 0.8582677165354331
        },
        {
          "duration": 0.7792209999999784,
          "durationTicks": 96,
          "midi": 58,
          "name": "A#3",
          "ticks": 15984,
          "time": 129.7402965,
          "velocity": 0.8582677165354331
        },
        {
          "duration": 0.7792210000000068,
          "durationTicks": 96,
          "midi": 54,
          "name": "F#3",
          "ticks": 16080,
          "time": 130.51951749999998,
          "velocity": 1
        },
        {
          "duration": 0.7792210000000068,
          "durationTicks": 96,
          "midi": 61,
          "name": "C#4",
          "ticks": 16080,
          "time": 130.51951749999998,
          "velocity": 0.8031496062992126
        },
        {
          "duration": 0.7792210000000068,
          "durationTicks": 96,
          "midi": 63,
          "name": "D#4",
          "ticks": 16080,
          "time": 130.51951749999998,
          "velocity": 0.8031496062992126
        },
        {
          "duration": 0.7792210000000068,
          "durationTicks": 96,
          "midi": 58,
          "name": "A#3",
          "ticks": 16080,
          "time": 130.51951749999998,
          "velocity": 0.8031496062992126
        },
        {
          "duration": 0.7792210000000068,
          "durationTicks": 96,
          "midi": 54,
          "name": "F#3",
          "ticks": 16176,
          "time": 131.29873849999998,
          "velocity": 1
        },
        {
          "duration": 0.7792210000000068,
          "durationTicks": 96,
          "midi": 63,
          "name": "D#4",
          "ticks": 16176,
          "time": 131.29873849999998,
          "velocity": 0.7322834645669292
        },
        {
          "duration": 0.7792210000000068,
          "durationTicks": 96,
          "midi": 57,
          "name": "A3",
          "ticks": 16176,
          "time": 131.29873849999998,
          "velocity": 0.7322834645669292
        },
        {
          "duration": 0.7792210000000068,
          "durationTicks": 96,
          "midi": 61,
          "name": "C#4",
          "ticks": 16176,
          "time": 131.29873849999998,
          "velocity": 0.7322834645669292
        },
        {
          "duration": 0.7792210000000068,
          "durationTicks": 96,
          "midi": 54,
          "name": "F#3",
          "ticks": 16272,
          "time": 132.0779595,
          "velocity": 1
        },
        {
          "duration": 0.7792210000000068,
          "durationTicks": 96,
          "midi": 63,
          "name": "D#4",
          "ticks": 16272,
          "time": 132.0779595,
          "velocity": 0.8031496062992126
        },
        {
          "duration": 0.7792210000000068,
          "durationTicks": 96,
          "midi": 57,
          "name": "A3",
          "ticks": 16272,
          "time": 132.0779595,
          "velocity": 0.8031496062992126
        },
        {
          "duration": 0.7792210000000068,
          "durationTicks": 96,
          "midi": 61,
          "name": "C#4",
          "ticks": 16272,
          "time": 132.0779595,
          "velocity": 0.8031496062992126
        },
        {
          "duration": 0.7792209999999784,
          "durationTicks": 96,
          "midi": 54,
          "name": "F#3",
          "ticks": 16368,
          "time": 132.8571805,
          "velocity": 1
        },
        {
          "duration": 0.7792209999999784,
          "durationTicks": 96,
          "midi": 65,
          "name": "F4",
          "ticks": 16368,
          "time": 132.8571805,
          "velocity": 0.8582677165354331
        },
        {
          "duration": 0.7792209999999784,
          "durationTicks": 96,
          "midi": 56,
          "name": "G#3",
          "ticks": 16368,
          "time": 132.8571805,
          "velocity": 0.8582677165354331
        },
        {
          "duration": 0.7792209999999784,
          "durationTicks": 96,
          "midi": 60,
          "name": "C4",
          "ticks": 16368,
          "time": 132.8571805,
          "velocity": 0.8582677165354331
        },
        {
          "duration": 0.7792210000000068,
          "durationTicks": 96,
          "midi": 54,
          "name": "F#3",
          "ticks": 16464,
          "time": 133.63640149999998,
          "velocity": 1
        },
        {
          "duration": 0.7792210000000068,
          "durationTicks": 96,
          "midi": 65,
          "name": "F4",
          "ticks": 16464,
          "time": 133.63640149999998,
          "velocity": 0.8503937007874016
        },
        {
          "duration": 0.7792210000000068,
          "durationTicks": 96,
          "midi": 56,
          "name": "G#3",
          "ticks": 16464,
          "time": 133.63640149999998,
          "velocity": 0.8503937007874016
        },
        {
          "duration": 0.7792210000000068,
          "durationTicks": 96,
          "midi": 60,
          "name": "C4",
          "ticks": 16464,
          "time": 133.63640149999998,
          "velocity": 0.8503937007874016
        },
        {
          "duration": 0.7792210000000068,
          "durationTicks": 96,
          "midi": 54,
          "name": "F#3",
          "ticks": 16560,
          "time": 134.41562249999998,
          "velocity": 1
        },
        {
          "duration": 0.7792210000000068,
          "durationTicks": 96,
          "midi": 63,
          "name": "D#4",
          "ticks": 16560,
          "time": 134.41562249999998,
          "velocity": 0.7716535433070866
        },
        {
          "duration": 0.7792210000000068,
          "durationTicks": 96,
          "midi": 60,
          "name": "C4",
          "ticks": 16560,
          "time": 134.41562249999998,
          "velocity": 0.7716535433070866
        },
        {
          "duration": 0.7792210000000068,
          "durationTicks": 96,
          "midi": 56,
          "name": "G#3",
          "ticks": 16560,
          "time": 134.41562249999998,
          "velocity": 0.7716535433070866
        },
        {
          "duration": 0.7792210000000068,
          "durationTicks": 96,
          "midi": 54,
          "name": "F#3",
          "ticks": 16656,
          "time": 135.1948435,
          "velocity": 1
        },
        {
          "duration": 0.7792210000000068,
          "durationTicks": 96,
          "midi": 63,
          "name": "D#4",
          "ticks": 16656,
          "time": 135.1948435,
          "velocity": 0.7637795275590551
        },
        {
          "duration": 0.7792210000000068,
          "durationTicks": 96,
          "midi": 60,
          "name": "C4",
          "ticks": 16656,
          "time": 135.1948435,
          "velocity": 0.7637795275590551
        },
        {
          "duration": 0.7792210000000068,
          "durationTicks": 96,
          "midi": 56,
          "name": "G#3",
          "ticks": 16656,
          "time": 135.1948435,
          "velocity": 0.7637795275590551
        },
        {
          "duration": 0.7792209999999784,
          "durationTicks": 96,
          "midi": 54,
          "name": "F#3",
          "ticks": 16752,
          "time": 135.9740645,
          "velocity": 1
        },
        {
          "duration": 0.7792209999999784,
          "durationTicks": 96,
          "midi": 61,
          "name": "C#4",
          "ticks": 16752,
          "time": 135.9740645,
          "velocity": 0.8976377952755905
        },
        {
          "duration": 0.7792209999999784,
          "durationTicks": 96,
          "midi": 65,
          "name": "F4",
          "ticks": 16752,
          "time": 135.9740645,
          "velocity": 0.8976377952755905
        },
        {
          "duration": 0.7792209999999784,
          "durationTicks": 96,
          "midi": 58,
          "name": "A#3",
          "ticks": 16752,
          "time": 135.9740645,
          "velocity": 0.8976377952755905
        },
        {
          "duration": 0.7792210000000068,
          "durationTicks": 96,
          "midi": 54,
          "name": "F#3",
          "ticks": 16848,
          "time": 136.75328549999998,
          "velocity": 1
        },
        {
          "duration": 0.7792210000000068,
          "durationTicks": 96,
          "midi": 61,
          "name": "C#4",
          "ticks": 16848,
          "time": 136.75328549999998,
          "velocity": 0.8031496062992126
        },
        {
          "duration": 0.7792210000000068,
          "durationTicks": 96,
          "midi": 65,
          "name": "F4",
          "ticks": 16848,
          "time": 136.75328549999998,
          "velocity": 0.8031496062992126
        },
        {
          "duration": 0.7792210000000068,
          "durationTicks": 96,
          "midi": 58,
          "name": "A#3",
          "ticks": 16848,
          "time": 136.75328549999998,
          "velocity": 0.8031496062992126
        },
        {
          "duration": 0.7792210000000068,
          "durationTicks": 96,
          "midi": 56,
          "name": "G#3",
          "ticks": 16944,
          "time": 137.53250649999998,
          "velocity": 1
        },
        {
          "duration": 0.7792210000000068,
          "durationTicks": 96,
          "midi": 63,
          "name": "D#4",
          "ticks": 16944,
          "time": 137.53250649999998,
          "velocity": 0.7716535433070866
        },
        {
          "duration": 0.7792210000000068,
          "durationTicks": 96,
          "midi": 65,
          "name": "F4",
          "ticks": 16944,
          "time": 137.53250649999998,
          "velocity": 0.7716535433070866
        },
        {
          "duration": 0.7792210000000068,
          "durationTicks": 96,
          "midi": 60,
          "name": "C4",
          "ticks": 16944,
          "time": 137.53250649999998,
          "velocity": 0.7716535433070866
        },
        {
          "duration": 0.7792210000000068,
          "durationTicks": 96,
          "midi": 56,
          "name": "G#3",
          "ticks": 17040,
          "time": 138.3117275,
          "velocity": 1
        },
        {
          "duration": 0.7792210000000068,
          "durationTicks": 96,
          "midi": 63,
          "name": "D#4",
          "ticks": 17040,
          "time": 138.3117275,
          "velocity": 0.7637795275590551
        },
        {
          "duration": 0.7792210000000068,
          "durationTicks": 96,
          "midi": 65,
          "name": "F4",
          "ticks": 17040,
          "time": 138.3117275,
          "velocity": 0.7637795275590551
        },
        {
          "duration": 0.7792210000000068,
          "durationTicks": 96,
          "midi": 60,
          "name": "C4",
          "ticks": 17040,
          "time": 138.3117275,
          "velocity": 0.7637795275590551
        },
        {
          "duration": 0.7792210000000068,
          "durationTicks": 96,
          "midi": 56,
          "name": "G#3",
          "ticks": 17136,
          "time": 139.0909485,
          "velocity": 0.8582677165354331
        },
        {
          "duration": 0.7792210000000068,
          "durationTicks": 96,
          "midi": 63,
          "name": "D#4",
          "ticks": 17136,
          "time": 139.0909485,
          "velocity": 0.8582677165354331
        },
        {
          "duration": 0.7792210000000068,
          "durationTicks": 96,
          "midi": 53,
          "name": "F3",
          "ticks": 17136,
          "time": 139.0909485,
          "velocity": 1
        },
        {
          "duration": 0.7792210000000068,
          "durationTicks": 96,
          "midi": 60,
          "name": "C4",
          "ticks": 17136,
          "time": 139.0909485,
          "velocity": 0.8582677165354331
        },
        {
          "duration": 0.7792209999999784,
          "durationTicks": 96,
          "midi": 56,
          "name": "G#3",
          "ticks": 17232,
          "time": 139.8701695,
          "velocity": 0.8031496062992126
        },
        {
          "duration": 0.7792209999999784,
          "durationTicks": 96,
          "midi": 63,
          "name": "D#4",
          "ticks": 17232,
          "time": 139.8701695,
          "velocity": 0.8031496062992126
        },
        {
          "duration": 0.7792209999999784,
          "durationTicks": 96,
          "midi": 53,
          "name": "F3",
          "ticks": 17232,
          "time": 139.8701695,
          "velocity": 1
        },
        {
          "duration": 0.7792209999999784,
          "durationTicks": 96,
          "midi": 60,
          "name": "C4",
          "ticks": 17232,
          "time": 139.8701695,
          "velocity": 0.8031496062992126
        },
        {
          "duration": 0.7711041145833519,
          "durationTicks": 95,
          "midi": 56,
          "name": "G#3",
          "ticks": 17328,
          "time": 140.64939049999998,
          "velocity": 0.7559055118110236
        },
        {
          "duration": 0.7792210000000068,
          "durationTicks": 96,
          "midi": 62,
          "name": "D4",
          "ticks": 17328,
          "time": 140.64939049999998,
          "velocity": 0.7559055118110236
        },
        {
          "duration": 0.7792210000000068,
          "durationTicks": 96,
          "midi": 53,
          "name": "F3",
          "ticks": 17328,
          "time": 140.64939049999998,
          "velocity": 1
        },
        {
          "duration": 0.7792210000000068,
          "durationTicks": 96,
          "midi": 58,
          "name": "A#3",
          "ticks": 17328,
          "time": 140.64939049999998,
          "velocity": 0.7559055118110236
        },
        {
          "duration": 0.7792210000000068,
          "durationTicks": 96,
          "midi": 56,
          "name": "G#3",
          "ticks": 17424,
          "time": 141.4286115,
          "velocity": 0.8031496062992126
        },
        {
          "duration": 0.7792210000000068,
          "durationTicks": 96,
          "midi": 62,
          "name": "D4",
          "ticks": 17424,
          "time": 141.4286115,
          "velocity": 0.8031496062992126
        },
        {
          "duration": 0.7792210000000068,
          "durationTicks": 96,
          "midi": 53,
          "name": "F3",
          "ticks": 17424,
          "time": 141.4286115,
          "velocity": 1
        },
        {
          "duration": 0.7792210000000068,
          "durationTicks": 96,
          "midi": 58,
          "name": "A#3",
          "ticks": 17424,
          "time": 141.4286115,
          "velocity": 0.8031496062992126
        },
        {
          "duration": 0.7792210000000068,
          "durationTicks": 96,
          "midi": 54,
          "name": "F#3",
          "ticks": 17520,
          "time": 142.2078325,
          "velocity": 1
        },
        {
          "duration": 0.7792210000000068,
          "durationTicks": 96,
          "midi": 61,
          "name": "C#4",
          "ticks": 17520,
          "time": 142.2078325,
          "velocity": 0.8582677165354331
        },
        {
          "duration": 0.7792210000000068,
          "durationTicks": 96,
          "midi": 63,
          "name": "D#4",
          "ticks": 17520,
          "time": 142.2078325,
          "velocity": 0.8582677165354331
        },
        {
          "duration": 0.7792210000000068,
          "durationTicks": 96,
          "midi": 58,
          "name": "A#3",
          "ticks": 17520,
          "time": 142.2078325,
          "velocity": 0.8582677165354331
        },
        {
          "duration": 0.7792209999999784,
          "durationTicks": 96,
          "midi": 54,
          "name": "F#3",
          "ticks": 17616,
          "time": 142.9870535,
          "velocity": 1
        },
        {
          "duration": 0.7792209999999784,
          "durationTicks": 96,
          "midi": 61,
          "name": "C#4",
          "ticks": 17616,
          "time": 142.9870535,
          "velocity": 0.8031496062992126
        },
        {
          "duration": 0.7792209999999784,
          "durationTicks": 96,
          "midi": 63,
          "name": "D#4",
          "ticks": 17616,
          "time": 142.9870535,
          "velocity": 0.8031496062992126
        },
        {
          "duration": 0.7792209999999784,
          "durationTicks": 96,
          "midi": 58,
          "name": "A#3",
          "ticks": 17616,
          "time": 142.9870535,
          "velocity": 0.8031496062992126
        },
        {
          "duration": 0.7792210000000068,
          "durationTicks": 96,
          "midi": 54,
          "name": "F#3",
          "ticks": 17712,
          "time": 143.76627449999998,
          "velocity": 1
        },
        {
          "duration": 0.7792210000000068,
          "durationTicks": 96,
          "midi": 61,
          "name": "C#4",
          "ticks": 17712,
          "time": 143.76627449999998,
          "velocity": 0.7716535433070866
        },
        {
          "duration": 0.7792210000000068,
          "durationTicks": 96,
          "midi": 63,
          "name": "D#4",
          "ticks": 17712,
          "time": 143.76627449999998,
          "velocity": 0.7716535433070866
        },
        {
          "duration": 0.7792210000000068,
          "durationTicks": 96,
          "midi": 58,
          "name": "A#3",
          "ticks": 17712,
          "time": 143.76627449999998,
          "velocity": 0.7716535433070866
        },
        {
          "duration": 0.7792210000000068,
          "durationTicks": 96,
          "midi": 54,
          "name": "F#3",
          "ticks": 17808,
          "time": 144.5454955,
          "velocity": 1
        },
        {
          "duration": 0.7792210000000068,
          "durationTicks": 96,
          "midi": 61,
          "name": "C#4",
          "ticks": 17808,
          "time": 144.5454955,
          "velocity": 0.7637795275590551
        },
        {
          "duration": 0.7792210000000068,
          "durationTicks": 96,
          "midi": 63,
          "name": "D#4",
          "ticks": 17808,
          "time": 144.5454955,
          "velocity": 0.7637795275590551
        },
        {
          "duration": 0.7792210000000068,
          "durationTicks": 96,
          "midi": 58,
          "name": "A#3",
          "ticks": 17808,
          "time": 144.5454955,
          "velocity": 0.7637795275590551
        },
        {
          "duration": 0.7792210000000068,
          "durationTicks": 96,
          "midi": 54,
          "name": "F#3",
          "ticks": 17904,
          "time": 145.3247165,
          "velocity": 1
        },
        {
          "duration": 0.7792210000000068,
          "durationTicks": 96,
          "midi": 60,
          "name": "C4",
          "ticks": 17904,
          "time": 145.3247165,
          "velocity": 0.8582677165354331
        },
        {
          "duration": 0.7792210000000068,
          "durationTicks": 96,
          "midi": 63,
          "name": "D#4",
          "ticks": 17904,
          "time": 145.3247165,
          "velocity": 0.8582677165354331
        },
        {
          "duration": 0.7792210000000068,
          "durationTicks": 96,
          "midi": 56,
          "name": "G#3",
          "ticks": 17904,
          "time": 145.3247165,
          "velocity": 0.8582677165354331
        },
        {
          "duration": 0.7792209999999784,
          "durationTicks": 96,
          "midi": 54,
          "name": "F#3",
          "ticks": 18000,
          "time": 146.1039375,
          "velocity": 1
        },
        {
          "duration": 0.7792209999999784,
          "durationTicks": 96,
          "midi": 60,
          "name": "C4",
          "ticks": 18000,
          "time": 146.1039375,
          "velocity": 0.8031496062992126
        },
        {
          "duration": 0.7792209999999784,
          "durationTicks": 96,
          "midi": 63,
          "name": "D#4",
          "ticks": 18000,
          "time": 146.1039375,
          "velocity": 0.8031496062992126
        },
        {
          "duration": 0.7386365729166471,
          "durationTicks": 91,
          "midi": 56,
          "name": "G#3",
          "ticks": 18000,
          "time": 146.1039375,
          "velocity": 0.8031496062992126
        },
        {
          "duration": 1.5584420000000136,
          "durationTicks": 192,
          "midi": 56,
          "name": "G#3",
          "ticks": 18094,
          "time": 146.86692472916664,
          "velocity": 1
        },
        {
          "duration": 1.5584420000000136,
          "durationTicks": 192,
          "midi": 63,
          "name": "D#4",
          "ticks": 18096,
          "time": 146.88315849999998,
          "velocity": 0.7637795275590551
        },
        {
          "duration": 1.5584419999999852,
          "durationTicks": 192,
          "midi": 66,
          "name": "F#4",
          "ticks": 18099,
          "time": 146.90750915625,
          "velocity": 0.7637795275590551
        },
        {
          "duration": 1.5584419999999852,
          "durationTicks": 192,
          "midi": 70,
          "name": "A#4",
          "ticks": 18102,
          "time": 146.9318598125,
          "velocity": 0.7637795275590551
        },
        {
          "duration": 0.7792210000000068,
          "durationTicks": 96,
          "midi": 56,
          "name": "G#3",
          "ticks": 18288,
          "time": 148.4416005,
          "velocity": 1
        },
        {
          "duration": 0.7792210000000068,
          "durationTicks": 96,
          "midi": 60,
          "name": "C4",
          "ticks": 18288,
          "time": 148.4416005,
          "velocity": 0.8976377952755905
        },
        {
          "duration": 0.7792210000000068,
          "durationTicks": 96,
          "midi": 61,
          "name": "C#4",
          "ticks": 18288,
          "time": 148.4416005,
          "velocity": 0.8976377952755905
        },
        {
          "duration": 0.7792210000000068,
          "durationTicks": 96,
          "midi": 65,
          "name": "F4",
          "ticks": 18288,
          "time": 148.4416005,
          "velocity": 0.8976377952755905
        },
        {
          "duration": 0.7792209999999784,
          "durationTicks": 96,
          "midi": 65,
          "name": "F4",
          "ticks": 18384,
          "time": 149.2208215,
          "velocity": 0.8031496062992126
        },
        {
          "duration": 0.7792209999999784,
          "durationTicks": 96,
          "midi": 61,
          "name": "C#4",
          "ticks": 18384,
          "time": 149.2208215,
          "velocity": 0.8031496062992126
        },
        {
          "duration": 0.7792209999999784,
          "durationTicks": 96,
          "midi": 56,
          "name": "G#3",
          "ticks": 18384,
          "time": 149.2208215,
          "velocity": 1
        },
        {
          "duration": 0.7792209999999784,
          "durationTicks": 96,
          "midi": 60,
          "name": "C4",
          "ticks": 18384,
          "time": 149.2208215,
          "velocity": 0.8031496062992126
        },
        {
          "duration": 0.7792210000000068,
          "durationTicks": 96,
          "midi": 54,
          "name": "F#3",
          "ticks": 18480,
          "time": 150.00004249999998,
          "velocity": 1
        },
        {
          "duration": 0.7792210000000068,
          "durationTicks": 96,
          "midi": 61,
          "name": "C#4",
          "ticks": 18480,
          "time": 150.00004249999998,
          "velocity": 0.8031496062992126
        },
        {
          "duration": 0.7792210000000068,
          "durationTicks": 96,
          "midi": 65,
          "name": "F4",
          "ticks": 18480,
          "time": 150.00004249999998,
          "velocity": 0.8031496062992126
        },
        {
          "duration": 0.7792210000000068,
          "durationTicks": 96,
          "midi": 58,
          "name": "A#3",
          "ticks": 18480,
          "time": 150.00004249999998,
          "velocity": 0.8031496062992126
        },
        {
          "duration": 0.7792210000000068,
          "durationTicks": 96,
          "midi": 54,
          "name": "F#3",
          "ticks": 18576,
          "time": 150.77926349999998,
          "velocity": 1
        },
        {
          "duration": 0.7792210000000068,
          "durationTicks": 96,
          "midi": 61,
          "name": "C#4",
          "ticks": 18576,
          "time": 150.77926349999998,
          "velocity": 0.7637795275590551
        },
        {
          "duration": 0.7792210000000068,
          "durationTicks": 96,
          "midi": 65,
          "name": "F4",
          "ticks": 18576,
          "time": 150.77926349999998,
          "velocity": 0.7637795275590551
        },
        {
          "duration": 0.7792210000000068,
          "durationTicks": 96,
          "midi": 58,
          "name": "A#3",
          "ticks": 18576,
          "time": 150.77926349999998,
          "velocity": 0.7637795275590551
        },
        {
          "duration": 0.7792210000000068,
          "durationTicks": 96,
          "midi": 56,
          "name": "G#3",
          "ticks": 18672,
          "time": 151.5584845,
          "velocity": 1
        },
        {
          "duration": 0.7792210000000068,
          "durationTicks": 96,
          "midi": 60,
          "name": "C4",
          "ticks": 18672,
          "time": 151.5584845,
          "velocity": 0.8976377952755905
        },
        {
          "duration": 0.7792210000000068,
          "durationTicks": 96,
          "midi": 61,
          "name": "C#4",
          "ticks": 18672,
          "time": 151.5584845,
          "velocity": 0.8976377952755905
        },
        {
          "duration": 0.7792210000000068,
          "durationTicks": 96,
          "midi": 65,
          "name": "F4",
          "ticks": 18672,
          "time": 151.5584845,
          "velocity": 0.8976377952755905
        },
        {
          "duration": 0.7792209999999784,
          "durationTicks": 96,
          "midi": 65,
          "name": "F4",
          "ticks": 18768,
          "time": 152.3377055,
          "velocity": 0.8031496062992126
        },
        {
          "duration": 0.7792209999999784,
          "durationTicks": 96,
          "midi": 61,
          "name": "C#4",
          "ticks": 18768,
          "time": 152.3377055,
          "velocity": 0.8031496062992126
        },
        {
          "duration": 0.7792209999999784,
          "durationTicks": 96,
          "midi": 56,
          "name": "G#3",
          "ticks": 18768,
          "time": 152.3377055,
          "velocity": 1
        },
        {
          "duration": 0.7792209999999784,
          "durationTicks": 96,
          "midi": 60,
          "name": "C4",
          "ticks": 18768,
          "time": 152.3377055,
          "velocity": 0.8031496062992126
        },
        {
          "duration": 0.7792210000000068,
          "durationTicks": 96,
          "midi": 54,
          "name": "F#3",
          "ticks": 18864,
          "time": 153.11692649999998,
          "velocity": 1
        },
        {
          "duration": 0.7792210000000068,
          "durationTicks": 96,
          "midi": 61,
          "name": "C#4",
          "ticks": 18864,
          "time": 153.11692649999998,
          "velocity": 0.8031496062992126
        },
        {
          "duration": 0.7792210000000068,
          "durationTicks": 96,
          "midi": 65,
          "name": "F4",
          "ticks": 18864,
          "time": 153.11692649999998,
          "velocity": 0.8031496062992126
        },
        {
          "duration": 0.7792210000000068,
          "durationTicks": 96,
          "midi": 58,
          "name": "A#3",
          "ticks": 18864,
          "time": 153.11692649999998,
          "velocity": 0.8031496062992126
        },
        {
          "duration": 0.7792210000000068,
          "durationTicks": 96,
          "midi": 54,
          "name": "F#3",
          "ticks": 18960,
          "time": 153.89614749999998,
          "velocity": 1
        },
        {
          "duration": 0.7792210000000068,
          "durationTicks": 96,
          "midi": 61,
          "name": "C#4",
          "ticks": 18960,
          "time": 153.89614749999998,
          "velocity": 0.7637795275590551
        },
        {
          "duration": 0.7792210000000068,
          "durationTicks": 96,
          "midi": 65,
          "name": "F4",
          "ticks": 18960,
          "time": 153.89614749999998,
          "velocity": 0.7637795275590551
        },
        {
          "duration": 0.7792210000000068,
          "durationTicks": 96,
          "midi": 58,
          "name": "A#3",
          "ticks": 18960,
          "time": 153.89614749999998,
          "velocity": 0.7637795275590551
        },
        {
          "duration": 0.7792210000000068,
          "durationTicks": 96,
          "midi": 56,
          "name": "G#3",
          "ticks": 19056,
          "time": 154.6753685,
          "velocity": 1
        },
        {
          "duration": 0.7792210000000068,
          "durationTicks": 96,
          "midi": 60,
          "name": "C4",
          "ticks": 19056,
          "time": 154.6753685,
          "velocity": 0.8976377952755905
        },
        {
          "duration": 0.7792210000000068,
          "durationTicks": 96,
          "midi": 61,
          "name": "C#4",
          "ticks": 19056,
          "time": 154.6753685,
          "velocity": 0.8976377952755905
        },
        {
          "duration": 0.7792210000000068,
          "durationTicks": 96,
          "midi": 65,
          "name": "F4",
          "ticks": 19056,
          "time": 154.6753685,
          "velocity": 0.8976377952755905
        },
        {
          "duration": 0.7792209999999784,
          "durationTicks": 96,
          "midi": 65,
          "name": "F4",
          "ticks": 19152,
          "time": 155.4545895,
          "velocity": 0.8031496062992126
        },
        {
          "duration": 0.7792209999999784,
          "durationTicks": 96,
          "midi": 61,
          "name": "C#4",
          "ticks": 19152,
          "time": 155.4545895,
          "velocity": 0.8031496062992126
        },
        {
          "duration": 0.7792209999999784,
          "durationTicks": 96,
          "midi": 56,
          "name": "G#3",
          "ticks": 19152,
          "time": 155.4545895,
          "velocity": 1
        },
        {
          "duration": 0.7792209999999784,
          "durationTicks": 96,
          "midi": 60,
          "name": "C4",
          "ticks": 19152,
          "time": 155.4545895,
          "velocity": 0.8031496062992126
        },
        {
          "duration": 0.7792210000000068,
          "durationTicks": 96,
          "midi": 54,
          "name": "F#3",
          "ticks": 19248,
          "time": 156.23381049999998,
          "velocity": 1
        },
        {
          "duration": 0.7792210000000068,
          "durationTicks": 96,
          "midi": 61,
          "name": "C#4",
          "ticks": 19248,
          "time": 156.23381049999998,
          "velocity": 0.8031496062992126
        },
        {
          "duration": 0.7792210000000068,
          "durationTicks": 96,
          "midi": 65,
          "name": "F4",
          "ticks": 19248,
          "time": 156.23381049999998,
          "velocity": 0.8031496062992126
        },
        {
          "duration": 0.7792210000000068,
          "durationTicks": 96,
          "midi": 58,
          "name": "A#3",
          "ticks": 19248,
          "time": 156.23381049999998,
          "velocity": 0.8031496062992126
        },
        {
          "duration": 0.7792210000000068,
          "durationTicks": 96,
          "midi": 54,
          "name": "F#3",
          "ticks": 19344,
          "time": 157.01303149999998,
          "velocity": 1
        },
        {
          "duration": 0.7792210000000068,
          "durationTicks": 96,
          "midi": 61,
          "name": "C#4",
          "ticks": 19344,
          "time": 157.01303149999998,
          "velocity": 0.7637795275590551
        },
        {
          "duration": 0.7792210000000068,
          "durationTicks": 96,
          "midi": 65,
          "name": "F4",
          "ticks": 19344,
          "time": 157.01303149999998,
          "velocity": 0.7637795275590551
        },
        {
          "duration": 0.7792210000000068,
          "durationTicks": 96,
          "midi": 58,
          "name": "A#3",
          "ticks": 19344,
          "time": 157.01303149999998,
          "velocity": 0.7637795275590551
        },
        {
          "duration": 0.7792210000000068,
          "durationTicks": 96,
          "midi": 56,
          "name": "G#3",
          "ticks": 19440,
          "time": 157.7922525,
          "velocity": 1
        },
        {
          "duration": 0.7792210000000068,
          "durationTicks": 96,
          "midi": 60,
          "name": "C4",
          "ticks": 19440,
          "time": 157.7922525,
          "velocity": 0.8976377952755905
        },
        {
          "duration": 0.7792210000000068,
          "durationTicks": 96,
          "midi": 61,
          "name": "C#4",
          "ticks": 19440,
          "time": 157.7922525,
          "velocity": 0.8976377952755905
        },
        {
          "duration": 0.7792210000000068,
          "durationTicks": 96,
          "midi": 65,
          "name": "F4",
          "ticks": 19440,
          "time": 157.7922525,
          "velocity": 0.8976377952755905
        },
        {
          "duration": 0.7792209999999784,
          "durationTicks": 96,
          "midi": 65,
          "name": "F4",
          "ticks": 19536,
          "time": 158.5714735,
          "velocity": 0.8031496062992126
        },
        {
          "duration": 0.7792209999999784,
          "durationTicks": 96,
          "midi": 61,
          "name": "C#4",
          "ticks": 19536,
          "time": 158.5714735,
          "velocity": 0.8031496062992126
        },
        {
          "duration": 0.7792209999999784,
          "durationTicks": 96,
          "midi": 56,
          "name": "G#3",
          "ticks": 19536,
          "time": 158.5714735,
          "velocity": 1
        },
        {
          "duration": 0.7792209999999784,
          "durationTicks": 96,
          "midi": 60,
          "name": "C4",
          "ticks": 19536,
          "time": 158.5714735,
          "velocity": 0.8031496062992126
        },
        {
          "duration": 0.7792210000000068,
          "durationTicks": 96,
          "midi": 54,
          "name": "F#3",
          "ticks": 19632,
          "time": 159.35069449999997,
          "velocity": 1
        },
        {
          "duration": 0.7792210000000068,
          "durationTicks": 96,
          "midi": 61,
          "name": "C#4",
          "ticks": 19632,
          "time": 159.35069449999997,
          "velocity": 0.8031496062992126
        },
        {
          "duration": 0.7792210000000068,
          "durationTicks": 96,
          "midi": 65,
          "name": "F4",
          "ticks": 19632,
          "time": 159.35069449999997,
          "velocity": 0.8031496062992126
        },
        {
          "duration": 0.7792210000000068,
          "durationTicks": 96,
          "midi": 58,
          "name": "A#3",
          "ticks": 19632,
          "time": 159.35069449999997,
          "velocity": 0.8031496062992126
        },
        {
          "duration": 0.992440302083395,
          "durationTicks": 95,
          "midi": 54,
          "name": "F#3",
          "ticks": 19728,
          "time": 160.12991549999998,
          "velocity": 1
        },
        {
          "duration": 0.992440302083395,
          "durationTicks": 95,
          "midi": 65,
          "name": "F4",
          "ticks": 19728,
          "time": 160.12991549999998,
          "velocity": 0.7637795275590551
        },
        {
          "duration": 0.992440302083395,
          "durationTicks": 95,
          "midi": 61,
          "name": "C#4",
          "ticks": 19728,
          "time": 160.12991549999998,
          "velocity": 0.7637795275590551
        },
        {
          "duration": 0.992440302083395,
          "durationTicks": 95,
          "midi": 58,
          "name": "A#3",
          "ticks": 19728,
          "time": 160.12991549999998,
          "velocity": 0.7637795275590551
        },
        {
          "duration": 5.1594877499999825,
          "durationTicks": 575,
          "midi": 56,
          "name": "G#3",
          "ticks": 19824,
          "time": 161.13656034375003,
          "velocity": 1
        },
        {
          "duration": 5.1469014583333035,
          "durationTicks": 575,
          "midi": 61,
          "name": "C#4",
          "ticks": 19826,
          "time": 161.16496942708338,
          "velocity": 0.8740157480314961
        },
        {
          "duration": 5.1343151666666245,
          "durationTicks": 575,
          "midi": 65,
          "name": "F4",
          "ticks": 19828,
          "time": 161.19337851041672,
          "velocity": 0.9763779527559056
        }
      ]
    },
    {
      "channel": 0,
      "controlChanges": {
        "0": [
          {
            "number": 0,
            "ticks": 0,
            "time": 0,
            "value": 0.015748031496062992
          }
        ],
        "32": [
          {
            "number": 32,
            "ticks": 0,
            "time": 0,
            "value": 0.015748031496062992
          }
        ]
      },
      "pitchBends": [],
      "instrument": {
        "family": "piano",
        "number": 0,
        "name": "acoustic grand piano"
      },
      "name": "",
      "notes": [],
      "endOfTrackTicks": 19632
    },
    {
      "channel": 11,
      "controlChanges": {
        "6": [
          {
            "number": 6,
            "ticks": 7,
            "time": 0.05681819791666667,
            "value": 0.7480314960629921
          },
          {
            "number": 6,
            "ticks": 10,
            "time": 0.08116885416666667,
            "value": 0.5669291338582677
          },
          {
            "number": 6,
            "ticks": 14,
            "time": 0.11363639583333333,
            "value": 0.09448818897637795
          }
        ],
        "7": [
          {
            "number": 7,
            "ticks": 0,
            "time": 0,
            "value": 0.6929133858267716
          }
        ],
        "10": [
          {
            "number": 10,
            "ticks": 0,
            "time": 0,
            "value": 0.5039370078740157
          },
          {
            "number": 10,
            "ticks": 432,
            "time": 3.5064944999999996,
            "value": 1
          },
          {
            "number": 10,
            "ticks": 436,
            "time": 3.5389620416666667,
            "value": 0.9921259842519685
          },
          {
            "number": 10,
            "ticks": 514,
            "time": 4.1720791041666665,
            "value": 0.7559055118110236
          },
          {
            "number": 10,
            "ticks": 570,
            "time": 4.6266246875,
            "value": 0.5039370078740157
          },
          {
            "number": 10,
            "ticks": 820,
            "time": 6.655846041666666,
            "value": 0
          },
          {
            "number": 10,
            "ticks": 898,
            "time": 7.288963104166665,
            "value": 0.25196850393700787
          },
          {
            "number": 10,
            "ticks": 952,
            "time": 7.727274916666666,
            "value": 0.49606299212598426
          },
          {
            "number": 10,
            "ticks": 1200,
            "time": 9.7402625,
            "value": 1
          },
          {
            "number": 10,
            "ticks": 1204,
            "time": 9.772730041666666,
            "value": 0.9921259842519685
          },
          {
            "number": 10,
            "ticks": 1282,
            "time": 10.405847104166666,
            "value": 0.7559055118110236
          },
          {
            "number": 10,
            "ticks": 1338,
            "time": 10.8603926875,
            "value": 0.5039370078740157
          },
          {
            "number": 10,
            "ticks": 1588,
            "time": 12.889614041666666,
            "value": 0
          },
          {
            "number": 10,
            "ticks": 1666,
            "time": 13.522731104166667,
            "value": 0.25196850393700787
          },
          {
            "number": 10,
            "ticks": 1720,
            "time": 13.961042916666667,
            "value": 0.49606299212598426
          },
          {
            "number": 10,
            "ticks": 1968,
            "time": 15.9740305,
            "value": 1
          },
          {
            "number": 10,
            "ticks": 1972,
            "time": 16.006498041666667,
            "value": 0.9921259842519685
          },
          {
            "number": 10,
            "ticks": 2050,
            "time": 16.639615104166666,
            "value": 0.7559055118110236
          },
          {
            "number": 10,
            "ticks": 2106,
            "time": 17.094160687499997,
            "value": 0.5039370078740157
          },
          {
            "number": 10,
            "ticks": 2356,
            "time": 19.123382041666666,
            "value": 0
          },
          {
            "number": 10,
            "ticks": 2434,
            "time": 19.756499104166664,
            "value": 0.25196850393700787
          },
          {
            "number": 10,
            "ticks": 2488,
            "time": 20.194810916666665,
            "value": 0.49606299212598426
          },
          {
            "number": 10,
            "ticks": 2736,
            "time": 22.2077985,
            "value": 1
          },
          {
            "number": 10,
            "ticks": 2740,
            "time": 22.240266041666665,
            "value": 0.9921259842519685
          },
          {
            "number": 10,
            "ticks": 2818,
            "time": 22.873383104166667,
            "value": 0.7559055118110236
          },
          {
            "number": 10,
            "ticks": 2874,
            "time": 23.3279286875,
            "value": 0.5039370078740157
          },
          {
            "number": 10,
            "ticks": 3124,
            "time": 25.357150041666664,
            "value": 0
          },
          {
            "number": 10,
            "ticks": 3202,
            "time": 25.990267104166662,
            "value": 0.25196850393700787
          },
          {
            "number": 10,
            "ticks": 3256,
            "time": 26.428578916666662,
            "value": 0.49606299212598426
          },
          {
            "number": 10,
            "ticks": 3504,
            "time": 28.441566499999997,
            "value": 1
          },
          {
            "number": 10,
            "ticks": 3508,
            "time": 28.474034041666663,
            "value": 0.9921259842519685
          },
          {
            "number": 10,
            "ticks": 3586,
            "time": 29.10715110416666,
            "value": 0.7559055118110236
          },
          {
            "number": 10,
            "ticks": 3642,
            "time": 29.561696687499996,
            "value": 0.5039370078740157
          },
          {
            "number": 10,
            "ticks": 3892,
            "time": 31.59091804166666,
            "value": 0
          },
          {
            "number": 10,
            "ticks": 3970,
            "time": 32.22403510416666,
            "value": 0.25196850393700787
          },
          {
            "number": 10,
            "ticks": 4024,
            "time": 32.662346916666664,
            "value": 0.49606299212598426
          },
          {
            "number": 10,
            "ticks": 4272,
            "time": 34.6753345,
            "value": 1
          },
          {
            "number": 10,
            "ticks": 4276,
            "time": 34.70780204166666,
            "value": 0.9921259842519685
          },
          {
            "number": 10,
            "ticks": 4354,
            "time": 35.34091910416666,
            "value": 0.7559055118110236
          },
          {
            "number": 10,
            "ticks": 4410,
            "time": 35.795464687499994,
            "value": 0.5039370078740157
          },
          {
            "number": 10,
            "ticks": 4660,
            "time": 37.82468604166666,
            "value": 0
          },
          {
            "number": 10,
            "ticks": 4738,
            "time": 38.457803104166665,
            "value": 0.25196850393700787
          },
          {
            "number": 10,
            "ticks": 4792,
            "time": 38.89611491666666,
            "value": 0.49606299212598426
          },
          {
            "number": 10,
            "ticks": 5040,
            "time": 40.909102499999996,
            "value": 1
          },
          {
            "number": 10,
            "ticks": 5044,
            "time": 40.941570041666665,
            "value": 0.9921259842519685
          },
          {
            "number": 10,
            "ticks": 5122,
            "time": 41.574687104166664,
            "value": 0.7559055118110236
          },
          {
            "number": 10,
            "ticks": 5178,
            "time": 42.0292326875,
            "value": 0.5039370078740157
          },
          {
            "number": 10,
            "ticks": 5428,
            "time": 44.058454041666664,
            "value": 0
          },
          {
            "number": 10,
            "ticks": 5506,
            "time": 44.69157110416666,
            "value": 0.25196850393700787
          },
          {
            "number": 10,
            "ticks": 5560,
            "time": 45.12988291666666,
            "value": 0.49606299212598426
          },
          {
            "number": 10,
            "ticks": 5808,
            "time": 47.142870499999994,
            "value": 1
          },
          {
            "number": 10,
            "ticks": 5844,
            "time": 47.435078374999996,
            "value": 0.5039370078740157
          },
          {
            "number": 10,
            "ticks": 5892,
            "time": 47.824688875,
            "value": 0
          },
          {
            "number": 10,
            "ticks": 5944,
            "time": 48.24676691666666,
            "value": 0.4881889763779528
          },
          {
            "number": 10,
            "ticks": 5996,
            "time": 48.66884495833333,
            "value": 1
          },
          {
            "number": 10,
            "ticks": 6048,
            "time": 49.090923,
            "value": 0.49606299212598426
          },
          {
            "number": 10,
            "ticks": 6096,
            "time": 49.48053349999999,
            "value": 0
          },
          {
            "number": 10,
            "ticks": 6136,
            "time": 49.80520891666666,
            "value": 0.5118110236220472
          },
          {
            "number": 10,
            "ticks": 6138,
            "time": 49.821442687499996,
            "value": 0.49606299212598426
          },
          {
            "number": 10,
            "ticks": 6192,
            "time": 50.2597545,
            "value": 1
          },
          {
            "number": 10,
            "ticks": 6228,
            "time": 50.551962374999995,
            "value": 0.5039370078740157
          },
          {
            "number": 10,
            "ticks": 6276,
            "time": 50.941572875,
            "value": 0
          },
          {
            "number": 10,
            "ticks": 6328,
            "time": 51.363650916666664,
            "value": 0.4881889763779528
          },
          {
            "number": 10,
            "ticks": 6380,
            "time": 51.78572895833332,
            "value": 1
          },
          {
            "number": 10,
            "ticks": 6432,
            "time": 52.207806999999995,
            "value": 0.49606299212598426
          },
          {
            "number": 10,
            "ticks": 6480,
            "time": 52.5974175,
            "value": 0
          },
          {
            "number": 10,
            "ticks": 6520,
            "time": 52.922092916666664,
            "value": 0.5118110236220472
          },
          {
            "number": 10,
            "ticks": 6522,
            "time": 52.938326687499995,
            "value": 0.49606299212598426
          },
          {
            "number": 10,
            "ticks": 6576,
            "time": 53.3766385,
            "value": 1
          },
          {
            "number": 10,
            "ticks": 6612,
            "time": 53.668846374999994,
            "value": 0.5039370078740157
          },
          {
            "number": 10,
            "ticks": 6660,
            "time": 54.058456875,
            "value": 0
          },
          {
            "number": 10,
            "ticks": 6712,
            "time": 54.48053491666666,
            "value": 0.4881889763779528
          },
          {
            "number": 10,
            "ticks": 6764,
            "time": 54.90261295833333,
            "value": 1
          },
          {
            "number": 10,
            "ticks": 6816,
            "time": 55.324690999999994,
            "value": 0.49606299212598426
          },
          {
            "number": 10,
            "ticks": 6864,
            "time": 55.7143015,
            "value": 0
          },
          {
            "number": 10,
            "ticks": 6904,
            "time": 56.03897691666667,
            "value": 0.5118110236220472
          },
          {
            "number": 10,
            "ticks": 6906,
            "time": 56.055210687499994,
            "value": 0.49606299212598426
          },
          {
            "number": 10,
            "ticks": 6960,
            "time": 56.4935225,
            "value": 1
          },
          {
            "number": 10,
            "ticks": 6996,
            "time": 56.78573037499999,
            "value": 0.5039370078740157
          },
          {
            "number": 10,
            "ticks": 7044,
            "time": 57.175340874999996,
            "value": 0
          },
          {
            "number": 10,
            "ticks": 7096,
            "time": 57.59741891666667,
            "value": 0.4881889763779528
          },
          {
            "number": 10,
            "ticks": 7148,
            "time": 58.01949695833333,
            "value": 1
          },
          {
            "number": 10,
            "ticks": 7200,
            "time": 58.44157499999999,
            "value": 0.49606299212598426
          },
          {
            "number": 10,
            "ticks": 7248,
            "time": 58.8311855,
            "value": 0
          },
          {
            "number": 10,
            "ticks": 7288,
            "time": 59.15586091666667,
            "value": 0.5118110236220472
          },
          {
            "number": 10,
            "ticks": 7290,
            "time": 59.17209468749999,
            "value": 0.49606299212598426
          },
          {
            "number": 10,
            "ticks": 7344,
            "time": 59.610406499999996,
            "value": 1
          },
          {
            "number": 10,
            "ticks": 7380,
            "time": 59.902614375,
            "value": 0.5039370078740157
          },
          {
            "number": 10,
            "ticks": 7428,
            "time": 60.292224874999995,
            "value": 0
          },
          {
            "number": 10,
            "ticks": 7480,
            "time": 60.71430291666667,
            "value": 0.4881889763779528
          },
          {
            "number": 10,
            "ticks": 7532,
            "time": 61.136380958333326,
            "value": 1
          },
          {
            "number": 10,
            "ticks": 7584,
            "time": 61.55845899999999,
            "value": 0.49606299212598426
          },
          {
            "number": 10,
            "ticks": 7632,
            "time": 61.948069499999995,
            "value": 0
          },
          {
            "number": 10,
            "ticks": 7672,
            "time": 62.27274491666667,
            "value": 0.5118110236220472
          },
          {
            "number": 10,
            "ticks": 7674,
            "time": 62.2889786875,
            "value": 0.49606299212598426
          },
          {
            "number": 10,
            "ticks": 7728,
            "time": 62.727290499999995,
            "value": 1
          },
          {
            "number": 10,
            "ticks": 7764,
            "time": 63.019498375,
            "value": 0.5039370078740157
          },
          {
            "number": 10,
            "ticks": 7812,
            "time": 63.409108874999994,
            "value": 0
          },
          {
            "number": 10,
            "ticks": 7864,
            "time": 63.83118691666667,
            "value": 0.4881889763779528
          },
          {
            "number": 10,
            "ticks": 7916,
            "time": 64.25326495833332,
            "value": 1
          },
          {
            "number": 10,
            "ticks": 7968,
            "time": 64.675343,
            "value": 0.49606299212598426
          },
          {
            "number": 10,
            "ticks": 8016,
            "time": 65.0649535,
            "value": 0
          },
          {
            "number": 10,
            "ticks": 8056,
            "time": 65.38962891666667,
            "value": 0.5118110236220472
          },
          {
            "number": 10,
            "ticks": 8058,
            "time": 65.40586268749999,
            "value": 0.49606299212598426
          },
          {
            "number": 10,
            "ticks": 8112,
            "time": 65.8441745,
            "value": 1
          },
          {
            "number": 10,
            "ticks": 8148,
            "time": 66.136382375,
            "value": 0.5039370078740157
          },
          {
            "number": 10,
            "ticks": 8196,
            "time": 66.525992875,
            "value": 0
          },
          {
            "number": 10,
            "ticks": 8248,
            "time": 66.94807091666667,
            "value": 0.4881889763779528
          },
          {
            "number": 10,
            "ticks": 8300,
            "time": 67.37014895833333,
            "value": 1
          },
          {
            "number": 10,
            "ticks": 8352,
            "time": 67.792227,
            "value": 0.49606299212598426
          },
          {
            "number": 10,
            "ticks": 8400,
            "time": 68.1818375,
            "value": 0
          },
          {
            "number": 10,
            "ticks": 8440,
            "time": 68.50651291666667,
            "value": 0.5118110236220472
          },
          {
            "number": 10,
            "ticks": 8442,
            "time": 68.52274668749999,
            "value": 0.49606299212598426
          },
          {
            "number": 10,
            "ticks": 8496,
            "time": 68.9610585,
            "value": 1
          },
          {
            "number": 10,
            "ticks": 8532,
            "time": 69.253266375,
            "value": 0.5039370078740157
          },
          {
            "number": 10,
            "ticks": 8580,
            "time": 69.642876875,
            "value": 0
          },
          {
            "number": 10,
            "ticks": 8632,
            "time": 70.06495491666666,
            "value": 0.4881889763779528
          },
          {
            "number": 10,
            "ticks": 8684,
            "time": 70.48703295833333,
            "value": 1
          },
          {
            "number": 10,
            "ticks": 8736,
            "time": 70.909111,
            "value": 0.49606299212598426
          },
          {
            "number": 10,
            "ticks": 8784,
            "time": 71.2987215,
            "value": 0
          },
          {
            "number": 10,
            "ticks": 8824,
            "time": 71.62339691666666,
            "value": 0.5118110236220472
          },
          {
            "number": 10,
            "ticks": 8826,
            "time": 71.63963068749999,
            "value": 0.49606299212598426
          },
          {
            "number": 10,
            "ticks": 8880,
            "time": 72.07794249999999,
            "value": 1
          },
          {
            "number": 10,
            "ticks": 8884,
            "time": 72.11041004166667,
            "value": 0.9921259842519685
          },
          {
            "number": 10,
            "ticks": 8962,
            "time": 72.74352710416666,
            "value": 0.7559055118110236
          },
          {
            "number": 10,
            "ticks": 9018,
            "time": 73.19807268749999,
            "value": 0.5039370078740157
          },
          {
            "number": 10,
            "ticks": 9268,
            "time": 75.22729404166667,
            "value": 0
          },
          {
            "number": 10,
            "ticks": 9346,
            "time": 75.86041110416666,
            "value": 0.25196850393700787
          },
          {
            "number": 10,
            "ticks": 9400,
            "time": 76.29872291666666,
            "value": 0.49606299212598426
          },
          {
            "number": 10,
            "ticks": 9648,
            "time": 78.31171049999999,
            "value": 1
          },
          {
            "number": 10,
            "ticks": 9652,
            "time": 78.34417804166667,
            "value": 0.9921259842519685
          },
          {
            "number": 10,
            "ticks": 9730,
            "time": 78.97729510416666,
            "value": 0.7559055118110236
          },
          {
            "number": 10,
            "ticks": 9786,
            "time": 79.4318406875,
            "value": 0.5039370078740157
          },
          {
            "number": 10,
            "ticks": 10036,
            "time": 81.46106204166666,
            "value": 0
          },
          {
            "number": 10,
            "ticks": 10114,
            "time": 82.09417910416667,
            "value": 0.25196850393700787
          },
          {
            "number": 10,
            "ticks": 10168,
            "time": 82.53249091666666,
            "value": 0.49606299212598426
          },
          {
            "number": 10,
            "ticks": 10416,
            "time": 84.54547849999999,
            "value": 1
          },
          {
            "number": 10,
            "ticks": 10420,
            "time": 84.57794604166666,
            "value": 0.9921259842519685
          },
          {
            "number": 10,
            "ticks": 10498,
            "time": 85.21106310416667,
            "value": 0.7559055118110236
          },
          {
            "number": 10,
            "ticks": 10554,
            "time": 85.6656086875,
            "value": 0.5039370078740157
          },
          {
            "number": 10,
            "ticks": 10804,
            "time": 87.69483004166666,
            "value": 0
          },
          {
            "number": 10,
            "ticks": 10882,
            "time": 88.32794710416667,
            "value": 0.25196850393700787
          },
          {
            "number": 10,
            "ticks": 10936,
            "time": 88.76625891666666,
            "value": 0.49606299212598426
          },
          {
            "number": 10,
            "ticks": 11184,
            "time": 90.7792465,
            "value": 1
          },
          {
            "number": 10,
            "ticks": 11188,
            "time": 90.81171404166666,
            "value": 0.9921259842519685
          },
          {
            "number": 10,
            "ticks": 11266,
            "time": 91.44483110416667,
            "value": 0.7559055118110236
          },
          {
            "number": 10,
            "ticks": 11322,
            "time": 91.8993766875,
            "value": 0.5039370078740157
          },
          {
            "number": 10,
            "ticks": 11572,
            "time": 93.92859804166666,
            "value": 0
          },
          {
            "number": 10,
            "ticks": 11650,
            "time": 94.56171510416667,
            "value": 0.25196850393700787
          },
          {
            "number": 10,
            "ticks": 11704,
            "time": 95.00002691666667,
            "value": 0.49606299212598426
          },
          {
            "number": 10,
            "ticks": 11952,
            "time": 97.0130145,
            "value": 1
          },
          {
            "number": 10,
            "ticks": 11956,
            "time": 97.04548204166666,
            "value": 0.9921259842519685
          },
          {
            "number": 10,
            "ticks": 12034,
            "time": 97.67859910416666,
            "value": 0.7559055118110236
          },
          {
            "number": 10,
            "ticks": 12090,
            "time": 98.13314468749999,
            "value": 0.5039370078740157
          },
          {
            "number": 10,
            "ticks": 12340,
            "time": 100.16236604166666,
            "value": 0
          },
          {
            "number": 10,
            "ticks": 12418,
            "time": 100.79548310416665,
            "value": 0.25196850393700787
          },
          {
            "number": 10,
            "ticks": 12472,
            "time": 101.23379491666665,
            "value": 0.49606299212598426
          },
          {
            "number": 10,
            "ticks": 12720,
            "time": 103.2467825,
            "value": 1
          },
          {
            "number": 10,
            "ticks": 12724,
            "time": 103.27925004166666,
            "value": 0.9921259842519685
          },
          {
            "number": 10,
            "ticks": 12802,
            "time": 103.91236710416665,
            "value": 0.7559055118110236
          },
          {
            "number": 10,
            "ticks": 12858,
            "time": 104.36691268749999,
            "value": 0.5039370078740157
          },
          {
            "number": 10,
            "ticks": 13108,
            "time": 106.39613404166666,
            "value": 0
          },
          {
            "number": 10,
            "ticks": 13186,
            "time": 107.02925110416665,
            "value": 0.25196850393700787
          },
          {
            "number": 10,
            "ticks": 13240,
            "time": 107.46756291666665,
            "value": 0.49606299212598426
          },
          {
            "number": 10,
            "ticks": 13488,
            "time": 109.48055049999999,
            "value": 1
          },
          {
            "number": 10,
            "ticks": 13492,
            "time": 109.51301804166665,
            "value": 0.9921259842519685
          },
          {
            "number": 10,
            "ticks": 13570,
            "time": 110.14613510416665,
            "value": 0.7559055118110236
          },
          {
            "number": 10,
            "ticks": 13626,
            "time": 110.60068068749999,
            "value": 0.5039370078740157
          },
          {
            "number": 10,
            "ticks": 13876,
            "time": 112.62990204166665,
            "value": 0
          },
          {
            "number": 10,
            "ticks": 13954,
            "time": 113.26301910416664,
            "value": 0.25196850393700787
          },
          {
            "number": 10,
            "ticks": 14008,
            "time": 113.70133091666665,
            "value": 0.49606299212598426
          },
          {
            "number": 10,
            "ticks": 14256,
            "time": 115.71431849999999,
            "value": 1
          },
          {
            "number": 10,
            "ticks": 14260,
            "time": 115.74678604166665,
            "value": 0.9921259842519685
          },
          {
            "number": 10,
            "ticks": 14338,
            "time": 116.37990310416664,
            "value": 0.7559055118110236
          },
          {
            "number": 10,
            "ticks": 14394,
            "time": 116.83444868749999,
            "value": 0.5039370078740157
          },
          {
            "number": 10,
            "ticks": 14644,
            "time": 118.86367004166665,
            "value": 0
          },
          {
            "number": 10,
            "ticks": 14722,
            "time": 119.49678710416666,
            "value": 0.25196850393700787
          },
          {
            "number": 10,
            "ticks": 14776,
            "time": 119.93509891666665,
            "value": 0.49606299212598426
          },
          {
            "number": 10,
            "ticks": 15216,
            "time": 123.50652849999999,
            "value": 1
          },
          {
            "number": 10,
            "ticks": 15252,
            "time": 123.79873637499999,
            "value": 0.5039370078740157
          },
          {
            "number": 10,
            "ticks": 15300,
            "time": 124.188346875,
            "value": 0
          },
          {
            "number": 10,
            "ticks": 15352,
            "time": 124.61042491666664,
            "value": 0.4881889763779528
          },
          {
            "number": 10,
            "ticks": 15404,
            "time": 125.03250295833332,
            "value": 1
          },
          {
            "number": 10,
            "ticks": 15456,
            "time": 125.45458099999999,
            "value": 0.49606299212598426
          },
          {
            "number": 10,
            "ticks": 15504,
            "time": 125.8441915,
            "value": 0
          },
          {
            "number": 10,
            "ticks": 15544,
            "time": 126.16886691666664,
            "value": 0.5118110236220472
          },
          {
            "number": 10,
            "ticks": 15546,
            "time": 126.1851006875,
            "value": 0.49606299212598426
          },
          {
            "number": 10,
            "ticks": 15600,
            "time": 126.62341249999999,
            "value": 1
          },
          {
            "number": 10,
            "ticks": 15636,
            "time": 126.91562037499999,
            "value": 0.5039370078740157
          },
          {
            "number": 10,
            "ticks": 15684,
            "time": 127.30523087499999,
            "value": 0
          },
          {
            "number": 10,
            "ticks": 15736,
            "time": 127.72730891666664,
            "value": 0.4881889763779528
          },
          {
            "number": 10,
            "ticks": 15788,
            "time": 128.14938695833334,
            "value": 1
          },
          {
            "number": 10,
            "ticks": 15840,
            "time": 128.571465,
            "value": 0.49606299212598426
          },
          {
            "number": 10,
            "ticks": 15888,
            "time": 128.9610755,
            "value": 0
          },
          {
            "number": 10,
            "ticks": 15928,
            "time": 129.28575091666664,
            "value": 0.5118110236220472
          },
          {
            "number": 10,
            "ticks": 15930,
            "time": 129.30198468749998,
            "value": 0.49606299212598426
          },
          {
            "number": 10,
            "ticks": 15984,
            "time": 129.7402965,
            "value": 1
          },
          {
            "number": 10,
            "ticks": 16020,
            "time": 130.032504375,
            "value": 0.5039370078740157
          },
          {
            "number": 10,
            "ticks": 16068,
            "time": 130.42211487499998,
            "value": 0
          },
          {
            "number": 10,
            "ticks": 16120,
            "time": 130.84419291666666,
            "value": 0.4881889763779528
          },
          {
            "number": 10,
            "ticks": 16172,
            "time": 131.26627095833334,
            "value": 1
          },
          {
            "number": 10,
            "ticks": 16224,
            "time": 131.688349,
            "value": 0.49606299212598426
          },
          {
            "number": 10,
            "ticks": 16272,
            "time": 132.0779595,
            "value": 0
          },
          {
            "number": 10,
            "ticks": 16312,
            "time": 132.40263491666664,
            "value": 0.5118110236220472
          },
          {
            "number": 10,
            "ticks": 16314,
            "time": 132.41886868749998,
            "value": 0.49606299212598426
          },
          {
            "number": 10,
            "ticks": 16368,
            "time": 132.8571805,
            "value": 1
          },
          {
            "number": 10,
            "ticks": 16404,
            "time": 133.149388375,
            "value": 0.5039370078740157
          },
          {
            "number": 10,
            "ticks": 16452,
            "time": 133.53899887499998,
            "value": 0
          },
          {
            "number": 10,
            "ticks": 16504,
            "time": 133.96107691666666,
            "value": 0.4881889763779528
          },
          {
            "number": 10,
            "ticks": 16556,
            "time": 134.38315495833334,
            "value": 1
          },
          {
            "number": 10,
            "ticks": 16608,
            "time": 134.805233,
            "value": 0.49606299212598426
          },
          {
            "number": 10,
            "ticks": 16656,
            "time": 135.1948435,
            "value": 0
          },
          {
            "number": 10,
            "ticks": 16696,
            "time": 135.51951891666664,
            "value": 0.5118110236220472
          },
          {
            "number": 10,
            "ticks": 16698,
            "time": 135.53575268749998,
            "value": 0.49606299212598426
          },
          {
            "number": 10,
            "ticks": 16752,
            "time": 135.9740645,
            "value": 1
          },
          {
            "number": 10,
            "ticks": 16788,
            "time": 136.266272375,
            "value": 0.5039370078740157
          },
          {
            "number": 10,
            "ticks": 16836,
            "time": 136.655882875,
            "value": 0
          },
          {
            "number": 10,
            "ticks": 16888,
            "time": 137.07796091666665,
            "value": 0.4881889763779528
          },
          {
            "number": 10,
            "ticks": 16940,
            "time": 137.50003895833333,
            "value": 1
          },
          {
            "number": 10,
            "ticks": 16992,
            "time": 137.922117,
            "value": 0.49606299212598426
          },
          {
            "number": 10,
            "ticks": 17040,
            "time": 138.3117275,
            "value": 0
          },
          {
            "number": 10,
            "ticks": 17080,
            "time": 138.63640291666664,
            "value": 0.5118110236220472
          },
          {
            "number": 10,
            "ticks": 17082,
            "time": 138.65263668749998,
            "value": 0.49606299212598426
          },
          {
            "number": 10,
            "ticks": 17136,
            "time": 139.0909485,
            "value": 1
          },
          {
            "number": 10,
            "ticks": 17172,
            "time": 139.383156375,
            "value": 0.5039370078740157
          },
          {
            "number": 10,
            "ticks": 17220,
            "time": 139.772766875,
            "value": 0
          },
          {
            "number": 10,
            "ticks": 17272,
            "time": 140.19484491666665,
            "value": 0.4881889763779528
          },
          {
            "number": 10,
            "ticks": 17324,
            "time": 140.61692295833333,
            "value": 1
          },
          {
            "number": 10,
            "ticks": 17376,
            "time": 141.03900099999998,
            "value": 0.49606299212598426
          },
          {
            "number": 10,
            "ticks": 17424,
            "time": 141.4286115,
            "value": 0
          },
          {
            "number": 10,
            "ticks": 17464,
            "time": 141.75328691666664,
            "value": 0.5118110236220472
          },
          {
            "number": 10,
            "ticks": 17466,
            "time": 141.76952068749998,
            "value": 0.49606299212598426
          },
          {
            "number": 10,
            "ticks": 17520,
            "time": 142.2078325,
            "value": 1
          },
          {
            "number": 10,
            "ticks": 17556,
            "time": 142.500040375,
            "value": 0.5039370078740157
          },
          {
            "number": 10,
            "ticks": 17604,
            "time": 142.889650875,
            "value": 0
          },
          {
            "number": 10,
            "ticks": 17656,
            "time": 143.31172891666665,
            "value": 0.4881889763779528
          },
          {
            "number": 10,
            "ticks": 17708,
            "time": 143.73380695833333,
            "value": 1
          },
          {
            "number": 10,
            "ticks": 17760,
            "time": 144.15588499999998,
            "value": 0.49606299212598426
          },
          {
            "number": 10,
            "ticks": 17808,
            "time": 144.5454955,
            "value": 0
          },
          {
            "number": 10,
            "ticks": 17848,
            "time": 144.87017091666664,
            "value": 0.5118110236220472
          },
          {
            "number": 10,
            "ticks": 17850,
            "time": 144.88640468749998,
            "value": 0.49606299212598426
          },
          {
            "number": 10,
            "ticks": 17904,
            "time": 145.3247165,
            "value": 1
          },
          {
            "number": 10,
            "ticks": 17940,
            "time": 145.616924375,
            "value": 0.5039370078740157
          },
          {
            "number": 10,
            "ticks": 17988,
            "time": 146.006534875,
            "value": 0
          },
          {
            "number": 10,
            "ticks": 18040,
            "time": 146.42861291666665,
            "value": 0.4881889763779528
          },
          {
            "number": 10,
            "ticks": 18092,
            "time": 146.85069095833333,
            "value": 1
          },
          {
            "number": 10,
            "ticks": 18144,
            "time": 147.27276899999998,
            "value": 0.49606299212598426
          },
          {
            "number": 10,
            "ticks": 18192,
            "time": 147.6623795,
            "value": 0
          },
          {
            "number": 10,
            "ticks": 18232,
            "time": 147.98705491666664,
            "value": 0.5118110236220472
          },
          {
            "number": 10,
            "ticks": 18234,
            "time": 148.00328868749997,
            "value": 0.49606299212598426
          },
          {
            "number": 10,
            "ticks": 18288,
            "time": 148.4416005,
            "value": 1
          },
          {
            "number": 10,
            "ticks": 18292,
            "time": 148.47406804166664,
            "value": 0.9921259842519685
          },
          {
            "number": 10,
            "ticks": 18370,
            "time": 149.10718510416666,
            "value": 0.7559055118110236
          },
          {
            "number": 10,
            "ticks": 18426,
            "time": 149.5617306875,
            "value": 0.5039370078740157
          },
          {
            "number": 10,
            "ticks": 18676,
            "time": 151.59095204166664,
            "value": 0
          },
          {
            "number": 10,
            "ticks": 18754,
            "time": 152.22406910416666,
            "value": 0.25196850393700787
          },
          {
            "number": 10,
            "ticks": 18808,
            "time": 152.66238091666665,
            "value": 0.49606299212598426
          },
          {
            "number": 10,
            "ticks": 19056,
            "time": 154.6753685,
            "value": 1
          },
          {
            "number": 10,
            "ticks": 19060,
            "time": 154.70783604166664,
            "value": 0.9921259842519685
          },
          {
            "number": 10,
            "ticks": 19138,
            "time": 155.34095310416666,
            "value": 0.7559055118110236
          },
          {
            "number": 10,
            "ticks": 19194,
            "time": 155.7954986875,
            "value": 0.5039370078740157
          },
          {
            "number": 10,
            "ticks": 19444,
            "time": 157.82472004166664,
            "value": 0
          },
          {
            "number": 10,
            "ticks": 19522,
            "time": 158.45783710416666,
            "value": 0.25196850393700787
          },
          {
            "number": 10,
            "ticks": 19576,
            "time": 158.89614891666665,
            "value": 0.49606299212598426
          }
        ],
        "11": [
          {
            "number": 11,
            "ticks": 4,
            "time": 0.03246754166666666,
            "value": 1
          }
        ],
        "91": [
          {
            "number": 91,
            "ticks": 0,
            "time": 0,
            "value": 0.15748031496062992
          }
        ],
        "93": [
          {
            "number": 93,
            "ticks": 1,
            "time": 0.008116885416666665,
            "value": 0
          }
        ],
        "94": [
          {
            "number": 94,
            "ticks": 2,
            "time": 0.01623377083333333,
            "value": 0.07874015748031496
          }
        ],
        "98": [
          {
            "number": 98,
            "ticks": 6,
            "time": 0.048701312499999996,
            "value": 0.25196850393700787
          },
          {
            "number": 98,
            "ticks": 9,
            "time": 0.07305196875,
            "value": 0.25984251968503935
          }
        ],
        "99": [
          {
            "number": 99,
            "ticks": 5,
            "time": 0.04058442708333333,
            "value": 0.007874015748031496
          },
          {
            "number": 99,
            "ticks": 8,
            "time": 0.06493508333333332,
            "value": 0.007874015748031496
          }
        ],
        "100": [
          {
            "number": 100,
            "ticks": 13,
            "time": 0.10551951041666666,
            "value": 0
          }
        ],
        "101": [
          {
            "number": 101,
            "ticks": 11,
            "time": 0.08928573958333333,
            "value": 0
          }
        ],
        "121": [
          {
            "number": 121,
            "ticks": 0,
            "time": 0,
            "value": 0
          }
        ]
      },
      "pitchBends": [],
      "instrument": {
        "family": "synth effects",
        "number": 96,
        "name": "fx 1 (rain)"
      },
      "name": "",
      "notes": [
        {
          "duration": 0.38961049999999986,
          "durationTicks": 48,
          "midi": 80,
          "name": "G#5",
          "ticks": 480,
          "time": 3.8961049999999995,
          "velocity": 0.5039370078740157
        },
        {
          "duration": 0.38961050000000075,
          "durationTicks": 48,
          "midi": 82,
          "name": "A#5",
          "ticks": 528,
          "time": 4.285715499999999,
          "velocity": 0.5039370078740157
        },
        {
          "duration": 0.38961049999999986,
          "durationTicks": 48,
          "midi": 89,
          "name": "F6",
          "ticks": 576,
          "time": 4.675326,
          "velocity": 0.5039370078740157
        },
        {
          "duration": 0.38961049999999986,
          "durationTicks": 48,
          "midi": 89,
          "name": "F6",
          "ticks": 864,
          "time": 7.012988999999999,
          "velocity": 0.5039370078740157
        },
        {
          "duration": 0.38961049999999986,
          "durationTicks": 48,
          "midi": 82,
          "name": "A#5",
          "ticks": 912,
          "time": 7.402599499999999,
          "velocity": 0.5039370078740157
        },
        {
          "duration": 0.38961049999999986,
          "durationTicks": 48,
          "midi": 85,
          "name": "C#6",
          "ticks": 960,
          "time": 7.792209999999999,
          "velocity": 0.5039370078740157
        },
        {
          "duration": 0.38961049999999986,
          "durationTicks": 48,
          "midi": 80,
          "name": "G#5",
          "ticks": 1248,
          "time": 10.129873,
          "velocity": 0.5039370078740157
        },
        {
          "duration": 0.38961049999999986,
          "durationTicks": 48,
          "midi": 82,
          "name": "A#5",
          "ticks": 1296,
          "time": 10.5194835,
          "velocity": 0.5039370078740157
        },
        {
          "duration": 0.38961049999999986,
          "durationTicks": 48,
          "midi": 89,
          "name": "F6",
          "ticks": 1344,
          "time": 10.909094,
          "velocity": 0.5039370078740157
        },
        {
          "duration": 0.38961049999999986,
          "durationTicks": 48,
          "midi": 89,
          "name": "F6",
          "ticks": 1632,
          "time": 13.246756999999999,
          "velocity": 0.5039370078740157
        },
        {
          "duration": 0.38961049999999986,
          "durationTicks": 48,
          "midi": 82,
          "name": "A#5",
          "ticks": 1680,
          "time": 13.636367499999999,
          "velocity": 0.5039370078740157
        },
        {
          "duration": 0.38961049999999986,
          "durationTicks": 48,
          "midi": 85,
          "name": "C#6",
          "ticks": 1728,
          "time": 14.025977999999999,
          "velocity": 0.5039370078740157
        },
        {
          "duration": 0.38961049999999986,
          "durationTicks": 48,
          "midi": 80,
          "name": "G#5",
          "ticks": 2016,
          "time": 16.363640999999998,
          "velocity": 0.5039370078740157
        },
        {
          "duration": 0.38961049999999986,
          "durationTicks": 48,
          "midi": 82,
          "name": "A#5",
          "ticks": 2064,
          "time": 16.753251499999998,
          "velocity": 0.5039370078740157
        },
        {
          "duration": 0.38961049999999986,
          "durationTicks": 48,
          "midi": 89,
          "name": "F6",
          "ticks": 2112,
          "time": 17.142861999999997,
          "velocity": 0.5039370078740157
        },
        {
          "duration": 0.38961049999999986,
          "durationTicks": 48,
          "midi": 89,
          "name": "F6",
          "ticks": 2400,
          "time": 19.480525,
          "velocity": 0.5039370078740157
        },
        {
          "duration": 0.38961049999999986,
          "durationTicks": 48,
          "midi": 82,
          "name": "A#5",
          "ticks": 2448,
          "time": 19.8701355,
          "velocity": 0.5039370078740157
        },
        {
          "duration": 0.38961049999999986,
          "durationTicks": 48,
          "midi": 85,
          "name": "C#6",
          "ticks": 2496,
          "time": 20.259746,
          "velocity": 0.5039370078740157
        },
        {
          "duration": 0.38961049999999986,
          "durationTicks": 48,
          "midi": 80,
          "name": "G#5",
          "ticks": 2784,
          "time": 22.597409,
          "velocity": 0.5039370078740157
        },
        {
          "duration": 0.38961049999999986,
          "durationTicks": 48,
          "midi": 82,
          "name": "A#5",
          "ticks": 2832,
          "time": 22.9870195,
          "velocity": 0.5039370078740157
        },
        {
          "duration": 0.38961049999999986,
          "durationTicks": 48,
          "midi": 89,
          "name": "F6",
          "ticks": 2880,
          "time": 23.37663,
          "velocity": 0.5039370078740157
        },
        {
          "duration": 0.38961049999999986,
          "durationTicks": 48,
          "midi": 80,
          "name": "G#5",
          "ticks": 3168,
          "time": 25.714292999999998,
          "velocity": 0.5039370078740157
        },
        {
          "duration": 0.38961049999999986,
          "durationTicks": 48,
          "midi": 82,
          "name": "A#5",
          "ticks": 3216,
          "time": 26.103903499999998,
          "velocity": 0.5039370078740157
        },
        {
          "duration": 0.38961049999999986,
          "durationTicks": 48,
          "midi": 85,
          "name": "C#6",
          "ticks": 3264,
          "time": 26.493513999999998,
          "velocity": 0.5039370078740157
        },
        {
          "duration": 0.38961049999999986,
          "durationTicks": 48,
          "midi": 80,
          "name": "G#5",
          "ticks": 3552,
          "time": 28.831176999999997,
          "velocity": 0.5039370078740157
        },
        {
          "duration": 0.38961049999999986,
          "durationTicks": 48,
          "midi": 82,
          "name": "A#5",
          "ticks": 3600,
          "time": 29.220787499999997,
          "velocity": 0.5039370078740157
        },
        {
          "duration": 0.38961049999999986,
          "durationTicks": 48,
          "midi": 89,
          "name": "F6",
          "ticks": 3648,
          "time": 29.610397999999996,
          "velocity": 0.5039370078740157
        },
        {
          "duration": 0.38961049999999986,
          "durationTicks": 48,
          "midi": 89,
          "name": "F6",
          "ticks": 3936,
          "time": 31.948061,
          "velocity": 0.5039370078740157
        },
        {
          "duration": 0.3896104999999963,
          "durationTicks": 48,
          "midi": 82,
          "name": "A#5",
          "ticks": 3984,
          "time": 32.3376715,
          "velocity": 0.5039370078740157
        },
        {
          "duration": 0.3896105000000034,
          "durationTicks": 48,
          "midi": 85,
          "name": "C#6",
          "ticks": 4032,
          "time": 32.727281999999995,
          "velocity": 0.5039370078740157
        },
        {
          "duration": 0.3896105000000034,
          "durationTicks": 48,
          "midi": 80,
          "name": "G#5",
          "ticks": 4320,
          "time": 35.064944999999994,
          "velocity": 0.5039370078740157
        },
        {
          "duration": 0.3896104999999963,
          "durationTicks": 48,
          "midi": 82,
          "name": "A#5",
          "ticks": 4368,
          "time": 35.4545555,
          "velocity": 0.5039370078740157
        },
        {
          "duration": 0.3896105000000034,
          "durationTicks": 48,
          "midi": 85,
          "name": "C#6",
          "ticks": 4416,
          "time": 35.844165999999994,
          "velocity": 0.5039370078740157
        },
        {
          "duration": 0.3896105000000034,
          "durationTicks": 48,
          "midi": 82,
          "name": "A#5",
          "ticks": 4656,
          "time": 37.7922185,
          "velocity": 0.31496062992125984
        },
        {
          "duration": 0.3896104999999963,
          "durationTicks": 48,
          "midi": 82,
          "name": "A#5",
          "ticks": 4800,
          "time": 38.96105,
          "velocity": 0.31496062992125984
        },
        {
          "duration": 0.3896105000000034,
          "durationTicks": 48,
          "midi": 82,
          "name": "A#5",
          "ticks": 4848,
          "time": 39.3506605,
          "velocity": 0.31496062992125984
        },
        {
          "duration": 0.3896104999999963,
          "durationTicks": 48,
          "midi": 80,
          "name": "G#5",
          "ticks": 4896,
          "time": 39.740271,
          "velocity": 0.31496062992125984
        },
        {
          "duration": 0.3896105000000034,
          "durationTicks": 48,
          "midi": 80,
          "name": "G#5",
          "ticks": 4944,
          "time": 40.129881499999996,
          "velocity": 0.31496062992125984
        },
        {
          "duration": 0.3896104999999963,
          "durationTicks": 48,
          "midi": 78,
          "name": "F#5",
          "ticks": 4992,
          "time": 40.519492,
          "velocity": 0.31496062992125984
        },
        {
          "duration": 0.3896105000000034,
          "durationTicks": 48,
          "midi": 80,
          "name": "G#5",
          "ticks": 5040,
          "time": 40.909102499999996,
          "velocity": 0.31496062992125984
        },
        {
          "duration": 0.3896104999999963,
          "durationTicks": 48,
          "midi": 80,
          "name": "G#5",
          "ticks": 5088,
          "time": 41.298713,
          "velocity": 0.5039370078740157
        },
        {
          "duration": 0.3896105000000034,
          "durationTicks": 48,
          "midi": 82,
          "name": "A#5",
          "ticks": 5136,
          "time": 41.688323499999996,
          "velocity": 0.5039370078740157
        },
        {
          "duration": 0.3896104999999963,
          "durationTicks": 48,
          "midi": 89,
          "name": "F6",
          "ticks": 5184,
          "time": 42.077934,
          "velocity": 0.5039370078740157
        },
        {
          "duration": 0.3896104999999963,
          "durationTicks": 48,
          "midi": 89,
          "name": "F6",
          "ticks": 5472,
          "time": 44.415597,
          "velocity": 0.5039370078740157
        },
        {
          "duration": 0.3896105000000034,
          "durationTicks": 48,
          "midi": 82,
          "name": "A#5",
          "ticks": 5520,
          "time": 44.805207499999995,
          "velocity": 0.5039370078740157
        },
        {
          "duration": 0.3896104999999963,
          "durationTicks": 48,
          "midi": 85,
          "name": "C#6",
          "ticks": 5568,
          "time": 45.194818,
          "velocity": 0.5039370078740157
        },
        {
          "duration": 0.3896105000000034,
          "durationTicks": 48,
          "midi": 86,
          "name": "D6",
          "ticks": 5616,
          "time": 45.584428499999994,
          "velocity": 0.5039370078740157
        },
        {
          "duration": 0.3896105000000034,
          "durationTicks": 48,
          "midi": 89,
          "name": "F6",
          "ticks": 5808,
          "time": 47.142870499999994,
          "velocity": 0.3937007874015748
        },
        {
          "duration": 0.3896104999999963,
          "durationTicks": 48,
          "midi": 78,
          "name": "F#5",
          "ticks": 5856,
          "time": 47.532481,
          "velocity": 0.3937007874015748
        },
        {
          "duration": 0.3896105000000034,
          "durationTicks": 48,
          "midi": 85,
          "name": "C#6",
          "ticks": 5904,
          "time": 47.92209149999999,
          "velocity": 0.3937007874015748
        },
        {
          "duration": 0.3896104999999963,
          "durationTicks": 48,
          "midi": 78,
          "name": "F#5",
          "ticks": 5952,
          "time": 48.311702,
          "velocity": 0.3937007874015748
        },
        {
          "duration": 0.3896105000000034,
          "durationTicks": 48,
          "midi": 89,
          "name": "F6",
          "ticks": 6000,
          "time": 48.70131249999999,
          "velocity": 0.3937007874015748
        },
        {
          "duration": 0.3896104999999963,
          "durationTicks": 48,
          "midi": 80,
          "name": "G#5",
          "ticks": 6048,
          "time": 49.090923,
          "velocity": 0.3937007874015748
        },
        {
          "duration": 0.3896105000000034,
          "durationTicks": 48,
          "midi": 84,
          "name": "C6",
          "ticks": 6096,
          "time": 49.48053349999999,
          "velocity": 0.3937007874015748
        },
        {
          "duration": 0.3896105000000034,
          "durationTicks": 48,
          "midi": 80,
          "name": "G#5",
          "ticks": 6144,
          "time": 49.870143999999996,
          "velocity": 0.3937007874015748
        },
        {
          "duration": 0.3896104999999963,
          "durationTicks": 48,
          "midi": 87,
          "name": "D#6",
          "ticks": 6192,
          "time": 50.2597545,
          "velocity": 0.3937007874015748
        },
        {
          "duration": 0.3896105000000034,
          "durationTicks": 48,
          "midi": 80,
          "name": "G#5",
          "ticks": 6240,
          "time": 50.649364999999996,
          "velocity": 0.3937007874015748
        },
        {
          "duration": 0.3896104999999963,
          "durationTicks": 48,
          "midi": 84,
          "name": "C6",
          "ticks": 6288,
          "time": 51.0389755,
          "velocity": 0.3937007874015748
        },
        {
          "duration": 0.3896105000000034,
          "durationTicks": 48,
          "midi": 80,
          "name": "G#5",
          "ticks": 6336,
          "time": 51.428585999999996,
          "velocity": 0.3937007874015748
        },
        {
          "duration": 0.3896104999999963,
          "durationTicks": 48,
          "midi": 87,
          "name": "D#6",
          "ticks": 6384,
          "time": 51.8181965,
          "velocity": 0.3937007874015748
        },
        {
          "duration": 0.3896105000000034,
          "durationTicks": 48,
          "midi": 80,
          "name": "G#5",
          "ticks": 6432,
          "time": 52.207806999999995,
          "velocity": 0.3937007874015748
        },
        {
          "duration": 0.3896104999999963,
          "durationTicks": 48,
          "midi": 82,
          "name": "A#5",
          "ticks": 6480,
          "time": 52.5974175,
          "velocity": 0.3937007874015748
        },
        {
          "duration": 0.3896105000000034,
          "durationTicks": 48,
          "midi": 80,
          "name": "G#5",
          "ticks": 6528,
          "time": 52.987027999999995,
          "velocity": 0.3937007874015748
        },
        {
          "duration": 0.3896104999999963,
          "durationTicks": 48,
          "midi": 87,
          "name": "D#6",
          "ticks": 6576,
          "time": 53.3766385,
          "velocity": 0.3937007874015748
        },
        {
          "duration": 0.3896105000000034,
          "durationTicks": 48,
          "midi": 78,
          "name": "F#5",
          "ticks": 6624,
          "time": 53.766248999999995,
          "velocity": 0.3937007874015748
        },
        {
          "duration": 0.3896104999999963,
          "durationTicks": 48,
          "midi": 85,
          "name": "C#6",
          "ticks": 6672,
          "time": 54.1558595,
          "velocity": 0.3937007874015748
        },
        {
          "duration": 0.3896105000000034,
          "durationTicks": 48,
          "midi": 78,
          "name": "F#5",
          "ticks": 6720,
          "time": 54.545469999999995,
          "velocity": 0.3937007874015748
        },
        {
          "duration": 0.3896104999999963,
          "durationTicks": 48,
          "midi": 85,
          "name": "C#6",
          "ticks": 6768,
          "time": 54.9350805,
          "velocity": 0.3937007874015748
        },
        {
          "duration": 0.3896105000000034,
          "durationTicks": 48,
          "midi": 78,
          "name": "F#5",
          "ticks": 6816,
          "time": 55.324690999999994,
          "velocity": 0.3937007874015748
        },
        {
          "duration": 0.3896104999999963,
          "durationTicks": 48,
          "midi": 81,
          "name": "A5",
          "ticks": 6864,
          "time": 55.7143015,
          "velocity": 0.3937007874015748
        },
        {
          "duration": 0.3896105000000034,
          "durationTicks": 48,
          "midi": 85,
          "name": "C#6",
          "ticks": 6912,
          "time": 56.103911999999994,
          "velocity": 0.3937007874015748
        },
        {
          "duration": 0.3896104999999963,
          "durationTicks": 48,
          "midi": 89,
          "name": "F6",
          "ticks": 6960,
          "time": 56.4935225,
          "velocity": 0.3937007874015748
        },
        {
          "duration": 0.3896105000000034,
          "durationTicks": 48,
          "midi": 80,
          "name": "G#5",
          "ticks": 7008,
          "time": 56.883132999999994,
          "velocity": 0.3937007874015748
        },
        {
          "duration": 0.3896104999999963,
          "durationTicks": 48,
          "midi": 84,
          "name": "C6",
          "ticks": 7056,
          "time": 57.2727435,
          "velocity": 0.3937007874015748
        },
        {
          "duration": 0.3896105000000034,
          "durationTicks": 48,
          "midi": 80,
          "name": "G#5",
          "ticks": 7104,
          "time": 57.66235399999999,
          "velocity": 0.3937007874015748
        },
        {
          "duration": 0.3896104999999963,
          "durationTicks": 48,
          "midi": 89,
          "name": "F6",
          "ticks": 7152,
          "time": 58.0519645,
          "velocity": 0.3937007874015748
        },
        {
          "duration": 0.3896105000000034,
          "durationTicks": 48,
          "midi": 80,
          "name": "G#5",
          "ticks": 7200,
          "time": 58.44157499999999,
          "velocity": 0.3937007874015748
        },
        {
          "duration": 0.3896104999999963,
          "durationTicks": 48,
          "midi": 84,
          "name": "C6",
          "ticks": 7248,
          "time": 58.8311855,
          "velocity": 0.3937007874015748
        },
        {
          "duration": 0.3896105000000034,
          "durationTicks": 48,
          "midi": 80,
          "name": "G#5",
          "ticks": 7296,
          "time": 59.22079599999999,
          "velocity": 0.3937007874015748
        },
        {
          "duration": 0.3896104999999963,
          "durationTicks": 48,
          "midi": 89,
          "name": "F6",
          "ticks": 7344,
          "time": 59.610406499999996,
          "velocity": 0.3937007874015748
        },
        {
          "duration": 0.3896105000000034,
          "durationTicks": 48,
          "midi": 78,
          "name": "F#5",
          "ticks": 7392,
          "time": 60.00001699999999,
          "velocity": 0.3937007874015748
        },
        {
          "duration": 0.3896104999999963,
          "durationTicks": 48,
          "midi": 85,
          "name": "C#6",
          "ticks": 7440,
          "time": 60.389627499999996,
          "velocity": 0.3937007874015748
        },
        {
          "duration": 0.3896105000000034,
          "durationTicks": 48,
          "midi": 78,
          "name": "F#5",
          "ticks": 7488,
          "time": 60.77923799999999,
          "velocity": 0.3937007874015748
        },
        {
          "duration": 0.3896104999999963,
          "durationTicks": 48,
          "midi": 89,
          "name": "F6",
          "ticks": 7536,
          "time": 61.168848499999996,
          "velocity": 0.3937007874015748
        },
        {
          "duration": 0.3896105000000034,
          "durationTicks": 48,
          "midi": 80,
          "name": "G#5",
          "ticks": 7584,
          "time": 61.55845899999999,
          "velocity": 0.3937007874015748
        },
        {
          "duration": 0.3896104999999963,
          "durationTicks": 48,
          "midi": 84,
          "name": "C6",
          "ticks": 7632,
          "time": 61.948069499999995,
          "velocity": 0.3937007874015748
        },
        {
          "duration": 0.3896105000000034,
          "durationTicks": 48,
          "midi": 80,
          "name": "G#5",
          "ticks": 7680,
          "time": 62.33767999999999,
          "velocity": 0.3937007874015748
        },
        {
          "duration": 0.3896105000000034,
          "durationTicks": 48,
          "midi": 87,
          "name": "D#6",
          "ticks": 7728,
          "time": 62.727290499999995,
          "velocity": 0.3937007874015748
        },
        {
          "duration": 0.3896104999999963,
          "durationTicks": 48,
          "midi": 80,
          "name": "G#5",
          "ticks": 7776,
          "time": 63.116901,
          "velocity": 0.3937007874015748
        },
        {
          "duration": 0.3896105000000034,
          "durationTicks": 48,
          "midi": 84,
          "name": "C6",
          "ticks": 7824,
          "time": 63.506511499999995,
          "velocity": 0.3937007874015748
        },
        {
          "duration": 0.3896104999999963,
          "durationTicks": 48,
          "midi": 80,
          "name": "G#5",
          "ticks": 7872,
          "time": 63.896122,
          "velocity": 0.3937007874015748
        },
        {
          "duration": 0.3896105000000034,
          "durationTicks": 48,
          "midi": 87,
          "name": "D#6",
          "ticks": 7920,
          "time": 64.2857325,
          "velocity": 0.3937007874015748
        },
        {
          "duration": 0.3896105000000034,
          "durationTicks": 48,
          "midi": 80,
          "name": "G#5",
          "ticks": 7968,
          "time": 64.675343,
          "velocity": 0.3937007874015748
        },
        {
          "duration": 0.3896104999999892,
          "durationTicks": 48,
          "midi": 82,
          "name": "A#5",
          "ticks": 8016,
          "time": 65.0649535,
          "velocity": 0.3937007874015748
        },
        {
          "duration": 0.3896105000000034,
          "durationTicks": 48,
          "midi": 80,
          "name": "G#5",
          "ticks": 8064,
          "time": 65.45456399999999,
          "velocity": 0.3937007874015748
        },
        {
          "duration": 0.3896105000000034,
          "durationTicks": 48,
          "midi": 87,
          "name": "D#6",
          "ticks": 8112,
          "time": 65.8441745,
          "velocity": 0.3937007874015748
        },
        {
          "duration": 0.3896105000000034,
          "durationTicks": 48,
          "midi": 78,
          "name": "F#5",
          "ticks": 8160,
          "time": 66.233785,
          "velocity": 0.3937007874015748
        },
        {
          "duration": 0.3896104999999892,
          "durationTicks": 48,
          "midi": 82,
          "name": "A#5",
          "ticks": 8208,
          "time": 66.6233955,
          "velocity": 0.3937007874015748
        },
        {
          "duration": 0.3896105000000034,
          "durationTicks": 48,
          "midi": 78,
          "name": "F#5",
          "ticks": 8256,
          "time": 67.01300599999999,
          "velocity": 0.3937007874015748
        },
        {
          "duration": 0.3896105000000034,
          "durationTicks": 48,
          "midi": 87,
          "name": "D#6",
          "ticks": 8304,
          "time": 67.4026165,
          "velocity": 0.3937007874015748
        },
        {
          "duration": 0.3896105000000034,
          "durationTicks": 48,
          "midi": 78,
          "name": "F#5",
          "ticks": 8352,
          "time": 67.792227,
          "velocity": 0.3937007874015748
        },
        {
          "duration": 0.3896104999999892,
          "durationTicks": 48,
          "midi": 82,
          "name": "A#5",
          "ticks": 8400,
          "time": 68.1818375,
          "velocity": 0.3937007874015748
        },
        {
          "duration": 0.3896105000000034,
          "durationTicks": 48,
          "midi": 78,
          "name": "F#5",
          "ticks": 8448,
          "time": 68.57144799999999,
          "velocity": 0.3937007874015748
        },
        {
          "duration": 0.3896105000000034,
          "durationTicks": 48,
          "midi": 89,
          "name": "F6",
          "ticks": 8496,
          "time": 68.9610585,
          "velocity": 0.3937007874015748
        },
        {
          "duration": 0.3896105000000034,
          "durationTicks": 48,
          "midi": 80,
          "name": "G#5",
          "ticks": 8544,
          "time": 69.350669,
          "velocity": 0.3937007874015748
        },
        {
          "duration": 0.3896104999999892,
          "durationTicks": 48,
          "midi": 84,
          "name": "C6",
          "ticks": 8592,
          "time": 69.7402795,
          "velocity": 0.3937007874015748
        },
        {
          "duration": 0.3896105000000034,
          "durationTicks": 48,
          "midi": 80,
          "name": "G#5",
          "ticks": 8640,
          "time": 70.12988999999999,
          "velocity": 0.3937007874015748
        },
        {
          "duration": 0.3896105000000034,
          "durationTicks": 48,
          "midi": 87,
          "name": "D#6",
          "ticks": 8688,
          "time": 70.51950049999999,
          "velocity": 0.3937007874015748
        },
        {
          "duration": 0.3896105000000034,
          "durationTicks": 48,
          "midi": 80,
          "name": "G#5",
          "ticks": 8736,
          "time": 70.909111,
          "velocity": 0.3937007874015748
        },
        {
          "duration": 0.3896104999999892,
          "durationTicks": 48,
          "midi": 84,
          "name": "C6",
          "ticks": 8784,
          "time": 71.2987215,
          "velocity": 0.3937007874015748
        },
        {
          "duration": 0.3896105000000034,
          "durationTicks": 48,
          "midi": 80,
          "name": "G#5",
          "ticks": 8832,
          "time": 71.68833199999999,
          "velocity": 0.3937007874015748
        },
        {
          "duration": 0.3896105000000034,
          "durationTicks": 48,
          "midi": 80,
          "name": "G#5",
          "ticks": 8928,
          "time": 72.467553,
          "velocity": 0.5039370078740157
        },
        {
          "duration": 0.3896104999999892,
          "durationTicks": 48,
          "midi": 82,
          "name": "A#5",
          "ticks": 8976,
          "time": 72.8571635,
          "velocity": 0.5039370078740157
        },
        {
          "duration": 0.3896105000000034,
          "durationTicks": 48,
          "midi": 89,
          "name": "F6",
          "ticks": 9024,
          "time": 73.24677399999999,
          "velocity": 0.5039370078740157
        },
        {
          "duration": 0.3896105000000034,
          "durationTicks": 48,
          "midi": 89,
          "name": "F6",
          "ticks": 9312,
          "time": 75.584437,
          "velocity": 0.5039370078740157
        },
        {
          "duration": 0.3896105000000034,
          "durationTicks": 48,
          "midi": 82,
          "name": "A#5",
          "ticks": 9360,
          "time": 75.9740475,
          "velocity": 0.5039370078740157
        },
        {
          "duration": 0.3896104999999892,
          "durationTicks": 48,
          "midi": 85,
          "name": "C#6",
          "ticks": 9408,
          "time": 76.363658,
          "velocity": 0.5039370078740157
        },
        {
          "duration": 0.3896105000000034,
          "durationTicks": 48,
          "midi": 80,
          "name": "G#5",
          "ticks": 9696,
          "time": 78.701321,
          "velocity": 0.5039370078740157
        },
        {
          "duration": 0.3896105000000034,
          "durationTicks": 48,
          "midi": 82,
          "name": "A#5",
          "ticks": 9744,
          "time": 79.0909315,
          "velocity": 0.5039370078740157
        },
        {
          "duration": 0.3896104999999892,
          "durationTicks": 48,
          "midi": 89,
          "name": "F6",
          "ticks": 9792,
          "time": 79.480542,
          "velocity": 0.5039370078740157
        },
        {
          "duration": 0.3896105000000034,
          "durationTicks": 48,
          "midi": 89,
          "name": "F6",
          "ticks": 10080,
          "time": 81.81820499999999,
          "velocity": 0.5039370078740157
        },
        {
          "duration": 0.3896105000000034,
          "durationTicks": 48,
          "midi": 82,
          "name": "A#5",
          "ticks": 10128,
          "time": 82.2078155,
          "velocity": 0.5039370078740157
        },
        {
          "duration": 0.3896104999999892,
          "durationTicks": 48,
          "midi": 85,
          "name": "C#6",
          "ticks": 10176,
          "time": 82.597426,
          "velocity": 0.5039370078740157
        },
        {
          "duration": 0.3896105000000034,
          "durationTicks": 48,
          "midi": 80,
          "name": "G#5",
          "ticks": 10464,
          "time": 84.93508899999999,
          "velocity": 0.5039370078740157
        },
        {
          "duration": 0.3896105000000034,
          "durationTicks": 48,
          "midi": 82,
          "name": "A#5",
          "ticks": 10512,
          "time": 85.3246995,
          "velocity": 0.5039370078740157
        },
        {
          "duration": 0.3896104999999892,
          "durationTicks": 48,
          "midi": 89,
          "name": "F6",
          "ticks": 10560,
          "time": 85.71431,
          "velocity": 0.5039370078740157
        },
        {
          "duration": 0.3896105000000034,
          "durationTicks": 48,
          "midi": 89,
          "name": "F6",
          "ticks": 10848,
          "time": 88.05197299999999,
          "velocity": 0.5039370078740157
        },
        {
          "duration": 0.3896105000000034,
          "durationTicks": 48,
          "midi": 82,
          "name": "A#5",
          "ticks": 10896,
          "time": 88.4415835,
          "velocity": 0.5039370078740157
        },
        {
          "duration": 0.3896105000000034,
          "durationTicks": 48,
          "midi": 85,
          "name": "C#6",
          "ticks": 10944,
          "time": 88.831194,
          "velocity": 0.5039370078740157
        },
        {
          "duration": 0.3896105000000034,
          "durationTicks": 48,
          "midi": 80,
          "name": "G#5",
          "ticks": 11232,
          "time": 91.16885699999999,
          "velocity": 0.5039370078740157
        },
        {
          "duration": 0.3896105000000034,
          "durationTicks": 48,
          "midi": 82,
          "name": "A#5",
          "ticks": 11280,
          "time": 91.55846749999999,
          "velocity": 0.5039370078740157
        },
        {
          "duration": 0.3896105000000034,
          "durationTicks": 48,
          "midi": 89,
          "name": "F6",
          "ticks": 11328,
          "time": 91.948078,
          "velocity": 0.5039370078740157
        },
        {
          "duration": 0.3896105000000034,
          "durationTicks": 48,
          "midi": 80,
          "name": "G#5",
          "ticks": 11616,
          "time": 94.28574099999999,
          "velocity": 0.5039370078740157
        },
        {
          "duration": 0.3896105000000034,
          "durationTicks": 48,
          "midi": 82,
          "name": "A#5",
          "ticks": 11664,
          "time": 94.67535149999999,
          "velocity": 0.5039370078740157
        },
        {
          "duration": 0.3896105000000034,
          "durationTicks": 48,
          "midi": 85,
          "name": "C#6",
          "ticks": 11712,
          "time": 95.064962,
          "velocity": 0.5039370078740157
        },
        {
          "duration": 0.3896105000000034,
          "durationTicks": 48,
          "midi": 80,
          "name": "G#5",
          "ticks": 12000,
          "time": 97.40262499999999,
          "velocity": 0.5039370078740157
        },
        {
          "duration": 0.3896105000000034,
          "durationTicks": 48,
          "midi": 82,
          "name": "A#5",
          "ticks": 12048,
          "time": 97.79223549999999,
          "velocity": 0.5039370078740157
        },
        {
          "duration": 0.3896105000000034,
          "durationTicks": 48,
          "midi": 89,
          "name": "F6",
          "ticks": 12096,
          "time": 98.181846,
          "velocity": 0.5039370078740157
        },
        {
          "duration": 0.3896104999999892,
          "durationTicks": 48,
          "midi": 89,
          "name": "F6",
          "ticks": 12384,
          "time": 100.519509,
          "velocity": 0.5039370078740157
        },
        {
          "duration": 0.3896105000000034,
          "durationTicks": 48,
          "midi": 82,
          "name": "A#5",
          "ticks": 12432,
          "time": 100.90911949999999,
          "velocity": 0.5039370078740157
        },
        {
          "duration": 0.3896105000000034,
          "durationTicks": 48,
          "midi": 85,
          "name": "C#6",
          "ticks": 12480,
          "time": 101.29872999999999,
          "velocity": 0.5039370078740157
        },
        {
          "duration": 0.3896104999999892,
          "durationTicks": 48,
          "midi": 80,
          "name": "G#5",
          "ticks": 12768,
          "time": 103.636393,
          "velocity": 0.5039370078740157
        },
        {
          "duration": 0.3896105000000034,
          "durationTicks": 48,
          "midi": 82,
          "name": "A#5",
          "ticks": 12816,
          "time": 104.02600349999999,
          "velocity": 0.5039370078740157
        },
        {
          "duration": 0.3896105000000034,
          "durationTicks": 48,
          "midi": 85,
          "name": "C#6",
          "ticks": 12864,
          "time": 104.41561399999999,
          "velocity": 0.5039370078740157
        },
        {
          "duration": 0.3896105000000034,
          "durationTicks": 48,
          "midi": 82,
          "name": "A#5",
          "ticks": 13104,
          "time": 106.3636665,
          "velocity": 0.31496062992125984
        },
        {
          "duration": 0.3896105000000034,
          "durationTicks": 48,
          "midi": 82,
          "name": "A#5",
          "ticks": 13248,
          "time": 107.53249799999999,
          "velocity": 0.31496062992125984
        },
        {
          "duration": 0.3896105000000034,
          "durationTicks": 48,
          "midi": 82,
          "name": "A#5",
          "ticks": 13296,
          "time": 107.9221085,
          "velocity": 0.31496062992125984
        },
        {
          "duration": 0.3896104999999892,
          "durationTicks": 48,
          "midi": 80,
          "name": "G#5",
          "ticks": 13344,
          "time": 108.311719,
          "velocity": 0.31496062992125984
        },
        {
          "duration": 0.3896105000000034,
          "durationTicks": 48,
          "midi": 80,
          "name": "G#5",
          "ticks": 13392,
          "time": 108.70132949999999,
          "velocity": 0.31496062992125984
        },
        {
          "duration": 0.3896105000000034,
          "durationTicks": 48,
          "midi": 78,
          "name": "F#5",
          "ticks": 13440,
          "time": 109.09093999999999,
          "velocity": 0.31496062992125984
        },
        {
          "duration": 0.3896105000000034,
          "durationTicks": 48,
          "midi": 80,
          "name": "G#5",
          "ticks": 13488,
          "time": 109.48055049999999,
          "velocity": 0.31496062992125984
        },
        {
          "duration": 0.3896104999999892,
          "durationTicks": 48,
          "midi": 80,
          "name": "G#5",
          "ticks": 13536,
          "time": 109.870161,
          "velocity": 0.5039370078740157
        },
        {
          "duration": 0.3896105000000034,
          "durationTicks": 48,
          "midi": 82,
          "name": "A#5",
          "ticks": 13584,
          "time": 110.25977149999999,
          "velocity": 0.5039370078740157
        },
        {
          "duration": 0.3896105000000034,
          "durationTicks": 48,
          "midi": 89,
          "name": "F6",
          "ticks": 13632,
          "time": 110.64938199999999,
          "velocity": 0.5039370078740157
        },
        {
          "duration": 0.3896105000000034,
          "durationTicks": 48,
          "midi": 89,
          "name": "F6",
          "ticks": 13920,
          "time": 112.987045,
          "velocity": 0.5039370078740157
        },
        {
          "duration": 0.3896104999999892,
          "durationTicks": 48,
          "midi": 82,
          "name": "A#5",
          "ticks": 13968,
          "time": 113.3766555,
          "velocity": 0.5039370078740157
        },
        {
          "duration": 0.3896105000000034,
          "durationTicks": 48,
          "midi": 85,
          "name": "C#6",
          "ticks": 14016,
          "time": 113.76626599999999,
          "velocity": 0.5039370078740157
        },
        {
          "duration": 0.3896105000000034,
          "durationTicks": 48,
          "midi": 86,
          "name": "D6",
          "ticks": 14064,
          "time": 114.15587649999999,
          "velocity": 0.5039370078740157
        },
        {
          "duration": 0.3896105000000034,
          "durationTicks": 48,
          "midi": 80,
          "name": "G#5",
          "ticks": 14256,
          "time": 115.71431849999999,
          "velocity": 0.31496062992125984
        },
        {
          "duration": 0.3896105000000034,
          "durationTicks": 48,
          "midi": 80,
          "name": "G#5",
          "ticks": 14304,
          "time": 116.103929,
          "velocity": 0.5039370078740157
        },
        {
          "duration": 0.3896104999999892,
          "durationTicks": 48,
          "midi": 82,
          "name": "A#5",
          "ticks": 14352,
          "time": 116.4935395,
          "velocity": 0.5039370078740157
        },
        {
          "duration": 0.3896105000000034,
          "durationTicks": 48,
          "midi": 89,
          "name": "F6",
          "ticks": 14400,
          "time": 116.88314999999999,
          "velocity": 0.5039370078740157
        },
        {
          "duration": 0.3896105000000034,
          "durationTicks": 48,
          "midi": 89,
          "name": "F6",
          "ticks": 14688,
          "time": 119.22081299999999,
          "velocity": 0.5039370078740157
        },
        {
          "duration": 0.3896104999999892,
          "durationTicks": 48,
          "midi": 82,
          "name": "A#5",
          "ticks": 14736,
          "time": 119.6104235,
          "velocity": 0.5039370078740157
        },
        {
          "duration": 0.3896105000000034,
          "durationTicks": 48,
          "midi": 85,
          "name": "C#6",
          "ticks": 14784,
          "time": 120.00003399999999,
          "velocity": 0.5039370078740157
        },
        {
          "duration": 0.3896105000000034,
          "durationTicks": 48,
          "midi": 86,
          "name": "D6",
          "ticks": 14832,
          "time": 120.38964449999999,
          "velocity": 0.5039370078740157
        },
        {
          "duration": 0.3896105000000034,
          "durationTicks": 48,
          "midi": 89,
          "name": "F6",
          "ticks": 15216,
          "time": 123.50652849999999,
          "velocity": 0.3937007874015748
        },
        {
          "duration": 0.3896105000000034,
          "durationTicks": 48,
          "midi": 78,
          "name": "F#5",
          "ticks": 15264,
          "time": 123.89613899999999,
          "velocity": 0.3937007874015748
        },
        {
          "duration": 0.3896104999999892,
          "durationTicks": 48,
          "midi": 85,
          "name": "C#6",
          "ticks": 15312,
          "time": 124.2857495,
          "velocity": 0.3937007874015748
        },
        {
          "duration": 0.3896105000000034,
          "durationTicks": 48,
          "midi": 78,
          "name": "F#5",
          "ticks": 15360,
          "time": 124.67535999999998,
          "velocity": 0.3937007874015748
        },
        {
          "duration": 0.3896105000000034,
          "durationTicks": 48,
          "midi": 89,
          "name": "F6",
          "ticks": 15408,
          "time": 125.06497049999999,
          "velocity": 0.3937007874015748
        },
        {
          "duration": 0.3896105000000034,
          "durationTicks": 48,
          "midi": 80,
          "name": "G#5",
          "ticks": 15456,
          "time": 125.45458099999999,
          "velocity": 0.3937007874015748
        },
        {
          "duration": 0.3896105000000034,
          "durationTicks": 48,
          "midi": 84,
          "name": "C6",
          "ticks": 15504,
          "time": 125.8441915,
          "velocity": 0.3937007874015748
        },
        {
          "duration": 0.3896104999999892,
          "durationTicks": 48,
          "midi": 80,
          "name": "G#5",
          "ticks": 15552,
          "time": 126.233802,
          "velocity": 0.3937007874015748
        },
        {
          "duration": 0.3896105000000034,
          "durationTicks": 48,
          "midi": 87,
          "name": "D#6",
          "ticks": 15600,
          "time": 126.62341249999999,
          "velocity": 0.3937007874015748
        },
        {
          "duration": 0.3896105000000034,
          "durationTicks": 48,
          "midi": 80,
          "name": "G#5",
          "ticks": 15648,
          "time": 127.01302299999999,
          "velocity": 0.3937007874015748
        },
        {
          "duration": 0.3896105000000034,
          "durationTicks": 48,
          "midi": 84,
          "name": "C6",
          "ticks": 15696,
          "time": 127.4026335,
          "velocity": 0.3937007874015748
        },
        {
          "duration": 0.3896104999999892,
          "durationTicks": 48,
          "midi": 80,
          "name": "G#5",
          "ticks": 15744,
          "time": 127.792244,
          "velocity": 0.3937007874015748
        },
        {
          "duration": 0.3896105000000034,
          "durationTicks": 48,
          "midi": 87,
          "name": "D#6",
          "ticks": 15792,
          "time": 128.1818545,
          "velocity": 0.3937007874015748
        },
        {
          "duration": 0.3896105000000034,
          "durationTicks": 48,
          "midi": 80,
          "name": "G#5",
          "ticks": 15840,
          "time": 128.571465,
          "velocity": 0.3937007874015748
        },
        {
          "duration": 0.3896105000000034,
          "durationTicks": 48,
          "midi": 82,
          "name": "A#5",
          "ticks": 15888,
          "time": 128.9610755,
          "velocity": 0.3937007874015748
        },
        {
          "duration": 0.3896105000000034,
          "durationTicks": 48,
          "midi": 80,
          "name": "G#5",
          "ticks": 15936,
          "time": 129.350686,
          "velocity": 0.3937007874015748
        },
        {
          "duration": 0.3896105000000034,
          "durationTicks": 48,
          "midi": 87,
          "name": "D#6",
          "ticks": 15984,
          "time": 129.7402965,
          "velocity": 0.3937007874015748
        },
        {
          "duration": 0.389610499999975,
          "durationTicks": 48,
          "midi": 78,
          "name": "F#5",
          "ticks": 16032,
          "time": 130.129907,
          "velocity": 0.3937007874015748
        },
        {
          "duration": 0.3896105000000034,
          "durationTicks": 48,
          "midi": 85,
          "name": "C#6",
          "ticks": 16080,
          "time": 130.51951749999998,
          "velocity": 0.3937007874015748
        },
        {
          "duration": 0.3896105000000034,
          "durationTicks": 48,
          "midi": 78,
          "name": "F#5",
          "ticks": 16128,
          "time": 130.90912799999998,
          "velocity": 0.3937007874015748
        },
        {
          "duration": 0.3896105000000034,
          "durationTicks": 48,
          "midi": 85,
          "name": "C#6",
          "ticks": 16176,
          "time": 131.29873849999998,
          "velocity": 0.3937007874015748
        },
        {
          "duration": 0.3896105000000034,
          "durationTicks": 48,
          "midi": 78,
          "name": "F#5",
          "ticks": 16224,
          "time": 131.688349,
          "velocity": 0.3937007874015748
        },
        {
          "duration": 0.3896105000000034,
          "durationTicks": 48,
          "midi": 81,
          "name": "A5",
          "ticks": 16272,
          "time": 132.0779595,
          "velocity": 0.3937007874015748
        },
        {
          "duration": 0.3896105000000034,
          "durationTicks": 48,
          "midi": 85,
          "name": "C#6",
          "ticks": 16320,
          "time": 132.46757,
          "velocity": 0.3937007874015748
        },
        {
          "duration": 0.3896105000000034,
          "durationTicks": 48,
          "midi": 89,
          "name": "F6",
          "ticks": 16368,
          "time": 132.8571805,
          "velocity": 0.3937007874015748
        },
        {
          "duration": 0.389610499999975,
          "durationTicks": 48,
          "midi": 80,
          "name": "G#5",
          "ticks": 16416,
          "time": 133.246791,
          "velocity": 0.3937007874015748
        },
        {
          "duration": 0.3896105000000034,
          "durationTicks": 48,
          "midi": 84,
          "name": "C6",
          "ticks": 16464,
          "time": 133.63640149999998,
          "velocity": 0.3937007874015748
        },
        {
          "duration": 0.3896105000000034,
          "durationTicks": 48,
          "midi": 80,
          "name": "G#5",
          "ticks": 16512,
          "time": 134.02601199999998,
          "velocity": 0.3937007874015748
        },
        {
          "duration": 0.3896105000000034,
          "durationTicks": 48,
          "midi": 89,
          "name": "F6",
          "ticks": 16560,
          "time": 134.41562249999998,
          "velocity": 0.3937007874015748
        },
        {
          "duration": 0.3896105000000034,
          "durationTicks": 48,
          "midi": 80,
          "name": "G#5",
          "ticks": 16608,
          "time": 134.805233,
          "velocity": 0.3937007874015748
        },
        {
          "duration": 0.3896105000000034,
          "durationTicks": 48,
          "midi": 84,
          "name": "C6",
          "ticks": 16656,
          "time": 135.1948435,
          "velocity": 0.3937007874015748
        },
        {
          "duration": 0.3896105000000034,
          "durationTicks": 48,
          "midi": 80,
          "name": "G#5",
          "ticks": 16704,
          "time": 135.584454,
          "velocity": 0.3937007874015748
        },
        {
          "duration": 0.3896105000000034,
          "durationTicks": 48,
          "midi": 89,
          "name": "F6",
          "ticks": 16752,
          "time": 135.9740645,
          "velocity": 0.3937007874015748
        },
        {
          "duration": 0.389610499999975,
          "durationTicks": 48,
          "midi": 78,
          "name": "F#5",
          "ticks": 16800,
          "time": 136.363675,
          "velocity": 0.3937007874015748
        },
        {
          "duration": 0.3896105000000034,
          "durationTicks": 48,
          "midi": 85,
          "name": "C#6",
          "ticks": 16848,
          "time": 136.75328549999998,
          "velocity": 0.3937007874015748
        },
        {
          "duration": 0.3896105000000034,
          "durationTicks": 48,
          "midi": 78,
          "name": "F#5",
          "ticks": 16896,
          "time": 137.14289599999998,
          "velocity": 0.3937007874015748
        },
        {
          "duration": 0.3896105000000034,
          "durationTicks": 48,
          "midi": 89,
          "name": "F6",
          "ticks": 16944,
          "time": 137.53250649999998,
          "velocity": 0.3937007874015748
        },
        {
          "duration": 0.3896105000000034,
          "durationTicks": 48,
          "midi": 80,
          "name": "G#5",
          "ticks": 16992,
          "time": 137.922117,
          "velocity": 0.3937007874015748
        },
        {
          "duration": 0.3896105000000034,
          "durationTicks": 48,
          "midi": 84,
          "name": "C6",
          "ticks": 17040,
          "time": 138.3117275,
          "velocity": 0.3937007874015748
        },
        {
          "duration": 0.3896105000000034,
          "durationTicks": 48,
          "midi": 80,
          "name": "G#5",
          "ticks": 17088,
          "time": 138.701338,
          "velocity": 0.3937007874015748
        },
        {
          "duration": 0.3896105000000034,
          "durationTicks": 48,
          "midi": 87,
          "name": "D#6",
          "ticks": 17136,
          "time": 139.0909485,
          "velocity": 0.3937007874015748
        },
        {
          "duration": 0.3896105000000034,
          "durationTicks": 48,
          "midi": 80,
          "name": "G#5",
          "ticks": 17184,
          "time": 139.480559,
          "velocity": 0.3937007874015748
        },
        {
          "duration": 0.389610499999975,
          "durationTicks": 48,
          "midi": 84,
          "name": "C6",
          "ticks": 17232,
          "time": 139.8701695,
          "velocity": 0.3937007874015748
        },
        {
          "duration": 0.3896105000000034,
          "durationTicks": 48,
          "midi": 80,
          "name": "G#5",
          "ticks": 17280,
          "time": 140.25977999999998,
          "velocity": 0.3937007874015748
        },
        {
          "duration": 0.3896105000000034,
          "durationTicks": 48,
          "midi": 87,
          "name": "D#6",
          "ticks": 17328,
          "time": 140.64939049999998,
          "velocity": 0.3937007874015748
        },
        {
          "duration": 0.3896105000000034,
          "durationTicks": 48,
          "midi": 80,
          "name": "G#5",
          "ticks": 17376,
          "time": 141.03900099999998,
          "velocity": 0.3937007874015748
        },
        {
          "duration": 0.3896105000000034,
          "durationTicks": 48,
          "midi": 82,
          "name": "A#5",
          "ticks": 17424,
          "time": 141.4286115,
          "velocity": 0.3937007874015748
        },
        {
          "duration": 0.3896105000000034,
          "durationTicks": 48,
          "midi": 80,
          "name": "G#5",
          "ticks": 17472,
          "time": 141.818222,
          "velocity": 0.3937007874015748
        },
        {
          "duration": 0.3896105000000034,
          "durationTicks": 48,
          "midi": 87,
          "name": "D#6",
          "ticks": 17520,
          "time": 142.2078325,
          "velocity": 0.3937007874015748
        },
        {
          "duration": 0.3896105000000034,
          "durationTicks": 48,
          "midi": 78,
          "name": "F#5",
          "ticks": 17568,
          "time": 142.597443,
          "velocity": 0.3937007874015748
        },
        {
          "duration": 0.389610499999975,
          "durationTicks": 48,
          "midi": 82,
          "name": "A#5",
          "ticks": 17616,
          "time": 142.9870535,
          "velocity": 0.3937007874015748
        },
        {
          "duration": 0.3896105000000034,
          "durationTicks": 48,
          "midi": 78,
          "name": "F#5",
          "ticks": 17664,
          "time": 143.37666399999998,
          "velocity": 0.3937007874015748
        },
        {
          "duration": 0.3896105000000034,
          "durationTicks": 48,
          "midi": 87,
          "name": "D#6",
          "ticks": 17712,
          "time": 143.76627449999998,
          "velocity": 0.3937007874015748
        },
        {
          "duration": 0.3896105000000034,
          "durationTicks": 48,
          "midi": 78,
          "name": "F#5",
          "ticks": 17760,
          "time": 144.15588499999998,
          "velocity": 0.3937007874015748
        },
        {
          "duration": 0.3896105000000034,
          "durationTicks": 48,
          "midi": 82,
          "name": "A#5",
          "ticks": 17808,
          "time": 144.5454955,
          "velocity": 0.3937007874015748
        },
        {
          "duration": 0.3896105000000034,
          "durationTicks": 48,
          "midi": 78,
          "name": "F#5",
          "ticks": 17856,
          "time": 144.935106,
          "velocity": 0.3937007874015748
        },
        {
          "duration": 0.3896105000000034,
          "durationTicks": 48,
          "midi": 89,
          "name": "F6",
          "ticks": 17904,
          "time": 145.3247165,
          "velocity": 0.3937007874015748
        },
        {
          "duration": 0.3896105000000034,
          "durationTicks": 48,
          "midi": 80,
          "name": "G#5",
          "ticks": 17952,
          "time": 145.714327,
          "velocity": 0.3937007874015748
        },
        {
          "duration": 0.389610499999975,
          "durationTicks": 48,
          "midi": 84,
          "name": "C6",
          "ticks": 18000,
          "time": 146.1039375,
          "velocity": 0.3937007874015748
        },
        {
          "duration": 0.3896105000000034,
          "durationTicks": 48,
          "midi": 80,
          "name": "G#5",
          "ticks": 18048,
          "time": 146.49354799999998,
          "velocity": 0.3937007874015748
        },
        {
          "duration": 0.3896105000000034,
          "durationTicks": 48,
          "midi": 87,
          "name": "D#6",
          "ticks": 18096,
          "time": 146.88315849999998,
          "velocity": 0.3937007874015748
        },
        {
          "duration": 0.3896105000000034,
          "durationTicks": 48,
          "midi": 80,
          "name": "G#5",
          "ticks": 18144,
          "time": 147.27276899999998,
          "velocity": 0.3937007874015748
        },
        {
          "duration": 0.3896105000000034,
          "durationTicks": 48,
          "midi": 84,
          "name": "C6",
          "ticks": 18192,
          "time": 147.6623795,
          "velocity": 0.3937007874015748
        },
        {
          "duration": 0.3896105000000034,
          "durationTicks": 48,
          "midi": 80,
          "name": "G#5",
          "ticks": 18240,
          "time": 148.05199,
          "velocity": 0.3937007874015748
        },
        {
          "duration": 0.3896105000000034,
          "durationTicks": 48,
          "midi": 80,
          "name": "G#5",
          "ticks": 18336,
          "time": 148.831211,
          "velocity": 0.5039370078740157
        },
        {
          "duration": 0.3896105000000034,
          "durationTicks": 48,
          "midi": 82,
          "name": "A#5",
          "ticks": 18384,
          "time": 149.2208215,
          "velocity": 0.5039370078740157
        },
        {
          "duration": 0.389610499999975,
          "durationTicks": 48,
          "midi": 89,
          "name": "F6",
          "ticks": 18432,
          "time": 149.610432,
          "velocity": 0.5039370078740157
        },
        {
          "duration": 0.3896105000000034,
          "durationTicks": 48,
          "midi": 89,
          "name": "F6",
          "ticks": 18720,
          "time": 151.948095,
          "velocity": 0.5039370078740157
        },
        {
          "duration": 0.3896105000000034,
          "durationTicks": 48,
          "midi": 82,
          "name": "A#5",
          "ticks": 18768,
          "time": 152.3377055,
          "velocity": 0.5039370078740157
        },
        {
          "duration": 0.389610499999975,
          "durationTicks": 48,
          "midi": 85,
          "name": "C#6",
          "ticks": 18816,
          "time": 152.727316,
          "velocity": 0.5039370078740157
        },
        {
          "duration": 0.3896105000000034,
          "durationTicks": 48,
          "midi": 80,
          "name": "G#5",
          "ticks": 19104,
          "time": 155.064979,
          "velocity": 0.5039370078740157
        },
        {
          "duration": 0.3896105000000034,
          "durationTicks": 48,
          "midi": 82,
          "name": "A#5",
          "ticks": 19152,
          "time": 155.4545895,
          "velocity": 0.5039370078740157
        },
        {
          "duration": 0.389610499999975,
          "durationTicks": 48,
          "midi": 89,
          "name": "F6",
          "ticks": 19200,
          "time": 155.8442,
          "velocity": 0.5039370078740157
        },
        {
          "duration": 0.3896105000000034,
          "durationTicks": 48,
          "midi": 89,
          "name": "F6",
          "ticks": 19488,
          "time": 158.181863,
          "velocity": 0.5039370078740157
        },
        {
          "duration": 0.3896105000000034,
          "durationTicks": 48,
          "midi": 82,
          "name": "A#5",
          "ticks": 19536,
          "time": 158.5714735,
          "velocity": 0.5039370078740157
        },
        {
          "duration": 0.389610499999975,
          "durationTicks": 48,
          "midi": 85,
          "name": "C#6",
          "ticks": 19584,
          "time": 158.961084,
          "velocity": 0.5039370078740157
        }
      ]
    },
    {
      "channel": 0,
      "controlChanges": {
        "0": [
          {
            "number": 0,
            "ticks": 0,
            "time": 0,
            "value": 0.023622047244094488
          }
        ],
        "32": [
          {
            "number": 32,
            "ticks": 0,
            "time": 0,
            "value": 0.015748031496062992
          }
        ]
      },
      "pitchBends": [],
      "instrument": {
        "family": "piano",
        "number": 0,
        "name": "acoustic grand piano"
      },
      "name": "",
      "notes": [],
      "endOfTrackTicks": 19632
    },
    {
      "channel": 3,
      "controlChanges": {
        "6": [
          {
            "number": 6,
            "ticks": 7,
            "time": 0.05681819791666667,
            "value": 0.5118110236220472
          },
          {
            "number": 6,
            "ticks": 10,
            "time": 0.08116885416666667,
            "value": 0.5039370078740157
          },
          {
            "number": 6,
            "ticks": 14,
            "time": 0.11363639583333333,
            "value": 0.09448818897637795
          }
        ],
        "7": [
          {
            "number": 7,
            "ticks": 0,
            "time": 0,
            "value": 0.7086614173228346
          }
        ],
        "10": [
          {
            "number": 10,
            "ticks": 0,
            "time": 0,
            "value": 0.5039370078740157
          },
          {
            "number": 10,
            "ticks": 432,
            "time": 3.5064944999999996,
            "value": 1
          },
          {
            "number": 10,
            "ticks": 436,
            "time": 3.5389620416666667,
            "value": 0.9921259842519685
          },
          {
            "number": 10,
            "ticks": 514,
            "time": 4.1720791041666665,
            "value": 0.7559055118110236
          },
          {
            "number": 10,
            "ticks": 570,
            "time": 4.6266246875,
            "value": 0.5039370078740157
          },
          {
            "number": 10,
            "ticks": 820,
            "time": 6.655846041666666,
            "value": 0
          },
          {
            "number": 10,
            "ticks": 898,
            "time": 7.288963104166665,
            "value": 0.25196850393700787
          },
          {
            "number": 10,
            "ticks": 952,
            "time": 7.727274916666666,
            "value": 0.49606299212598426
          },
          {
            "number": 10,
            "ticks": 1200,
            "time": 9.7402625,
            "value": 1
          },
          {
            "number": 10,
            "ticks": 1204,
            "time": 9.772730041666666,
            "value": 0.9921259842519685
          },
          {
            "number": 10,
            "ticks": 1282,
            "time": 10.405847104166666,
            "value": 0.7559055118110236
          },
          {
            "number": 10,
            "ticks": 1338,
            "time": 10.8603926875,
            "value": 0.5039370078740157
          },
          {
            "number": 10,
            "ticks": 1588,
            "time": 12.889614041666666,
            "value": 0
          },
          {
            "number": 10,
            "ticks": 1666,
            "time": 13.522731104166667,
            "value": 0.25196850393700787
          },
          {
            "number": 10,
            "ticks": 1720,
            "time": 13.961042916666667,
            "value": 0.49606299212598426
          },
          {
            "number": 10,
            "ticks": 1968,
            "time": 15.9740305,
            "value": 1
          },
          {
            "number": 10,
            "ticks": 1972,
            "time": 16.006498041666667,
            "value": 0.9921259842519685
          },
          {
            "number": 10,
            "ticks": 2050,
            "time": 16.639615104166666,
            "value": 0.7559055118110236
          },
          {
            "number": 10,
            "ticks": 2106,
            "time": 17.094160687499997,
            "value": 0.5039370078740157
          },
          {
            "number": 10,
            "ticks": 2356,
            "time": 19.123382041666666,
            "value": 0
          },
          {
            "number": 10,
            "ticks": 2434,
            "time": 19.756499104166664,
            "value": 0.25196850393700787
          },
          {
            "number": 10,
            "ticks": 2488,
            "time": 20.194810916666665,
            "value": 0.49606299212598426
          },
          {
            "number": 10,
            "ticks": 2736,
            "time": 22.2077985,
            "value": 1
          },
          {
            "number": 10,
            "ticks": 2740,
            "time": 22.240266041666665,
            "value": 0.9921259842519685
          },
          {
            "number": 10,
            "ticks": 2818,
            "time": 22.873383104166667,
            "value": 0.7559055118110236
          },
          {
            "number": 10,
            "ticks": 2874,
            "time": 23.3279286875,
            "value": 0.5039370078740157
          },
          {
            "number": 10,
            "ticks": 3124,
            "time": 25.357150041666664,
            "value": 0
          },
          {
            "number": 10,
            "ticks": 3202,
            "time": 25.990267104166662,
            "value": 0.25196850393700787
          },
          {
            "number": 10,
            "ticks": 3256,
            "time": 26.428578916666662,
            "value": 0.49606299212598426
          },
          {
            "number": 10,
            "ticks": 3504,
            "time": 28.441566499999997,
            "value": 1
          },
          {
            "number": 10,
            "ticks": 3508,
            "time": 28.474034041666663,
            "value": 0.9921259842519685
          },
          {
            "number": 10,
            "ticks": 3586,
            "time": 29.10715110416666,
            "value": 0.7559055118110236
          },
          {
            "number": 10,
            "ticks": 3642,
            "time": 29.561696687499996,
            "value": 0.5039370078740157
          },
          {
            "number": 10,
            "ticks": 3892,
            "time": 31.59091804166666,
            "value": 0
          },
          {
            "number": 10,
            "ticks": 3970,
            "time": 32.22403510416666,
            "value": 0.25196850393700787
          },
          {
            "number": 10,
            "ticks": 4024,
            "time": 32.662346916666664,
            "value": 0.49606299212598426
          },
          {
            "number": 10,
            "ticks": 4272,
            "time": 34.6753345,
            "value": 1
          },
          {
            "number": 10,
            "ticks": 4276,
            "time": 34.70780204166666,
            "value": 0.9921259842519685
          },
          {
            "number": 10,
            "ticks": 4354,
            "time": 35.34091910416666,
            "value": 0.7559055118110236
          },
          {
            "number": 10,
            "ticks": 4410,
            "time": 35.795464687499994,
            "value": 0.5039370078740157
          },
          {
            "number": 10,
            "ticks": 4660,
            "time": 37.82468604166666,
            "value": 0
          },
          {
            "number": 10,
            "ticks": 4738,
            "time": 38.457803104166665,
            "value": 0.25196850393700787
          },
          {
            "number": 10,
            "ticks": 4792,
            "time": 38.89611491666666,
            "value": 0.49606299212598426
          },
          {
            "number": 10,
            "ticks": 5040,
            "time": 40.909102499999996,
            "value": 1
          },
          {
            "number": 10,
            "ticks": 5044,
            "time": 40.941570041666665,
            "value": 0.9921259842519685
          },
          {
            "number": 10,
            "ticks": 5122,
            "time": 41.574687104166664,
            "value": 0.7559055118110236
          },
          {
            "number": 10,
            "ticks": 5178,
            "time": 42.0292326875,
            "value": 0.5039370078740157
          },
          {
            "number": 10,
            "ticks": 5428,
            "time": 44.058454041666664,
            "value": 0
          },
          {
            "number": 10,
            "ticks": 5506,
            "time": 44.69157110416666,
            "value": 0.25196850393700787
          },
          {
            "number": 10,
            "ticks": 5560,
            "time": 45.12988291666666,
            "value": 0.49606299212598426
          },
          {
            "number": 10,
            "ticks": 5808,
            "time": 47.142870499999994,
            "value": 1
          },
          {
            "number": 10,
            "ticks": 5844,
            "time": 47.435078374999996,
            "value": 0.5039370078740157
          },
          {
            "number": 10,
            "ticks": 5892,
            "time": 47.824688875,
            "value": 0
          },
          {
            "number": 10,
            "ticks": 5944,
            "time": 48.24676691666666,
            "value": 0.4881889763779528
          },
          {
            "number": 10,
            "ticks": 5996,
            "time": 48.66884495833333,
            "value": 1
          },
          {
            "number": 10,
            "ticks": 6048,
            "time": 49.090923,
            "value": 0.49606299212598426
          },
          {
            "number": 10,
            "ticks": 6096,
            "time": 49.48053349999999,
            "value": 0
          },
          {
            "number": 10,
            "ticks": 6136,
            "time": 49.80520891666666,
            "value": 0.5118110236220472
          },
          {
            "number": 10,
            "ticks": 6138,
            "time": 49.821442687499996,
            "value": 0.49606299212598426
          },
          {
            "number": 10,
            "ticks": 6192,
            "time": 50.2597545,
            "value": 1
          },
          {
            "number": 10,
            "ticks": 6228,
            "time": 50.551962374999995,
            "value": 0.5039370078740157
          },
          {
            "number": 10,
            "ticks": 6276,
            "time": 50.941572875,
            "value": 0
          },
          {
            "number": 10,
            "ticks": 6328,
            "time": 51.363650916666664,
            "value": 0.4881889763779528
          },
          {
            "number": 10,
            "ticks": 6380,
            "time": 51.78572895833332,
            "value": 1
          },
          {
            "number": 10,
            "ticks": 6432,
            "time": 52.207806999999995,
            "value": 0.49606299212598426
          },
          {
            "number": 10,
            "ticks": 6480,
            "time": 52.5974175,
            "value": 0
          },
          {
            "number": 10,
            "ticks": 6520,
            "time": 52.922092916666664,
            "value": 0.5118110236220472
          },
          {
            "number": 10,
            "ticks": 6522,
            "time": 52.938326687499995,
            "value": 0.49606299212598426
          },
          {
            "number": 10,
            "ticks": 6576,
            "time": 53.3766385,
            "value": 1
          },
          {
            "number": 10,
            "ticks": 6612,
            "time": 53.668846374999994,
            "value": 0.5039370078740157
          },
          {
            "number": 10,
            "ticks": 6660,
            "time": 54.058456875,
            "value": 0
          },
          {
            "number": 10,
            "ticks": 6712,
            "time": 54.48053491666666,
            "value": 0.4881889763779528
          },
          {
            "number": 10,
            "ticks": 6764,
            "time": 54.90261295833333,
            "value": 1
          },
          {
            "number": 10,
            "ticks": 6816,
            "time": 55.324690999999994,
            "value": 0.49606299212598426
          },
          {
            "number": 10,
            "ticks": 6864,
            "time": 55.7143015,
            "value": 0
          },
          {
            "number": 10,
            "ticks": 6904,
            "time": 56.03897691666667,
            "value": 0.5118110236220472
          },
          {
            "number": 10,
            "ticks": 6906,
            "time": 56.055210687499994,
            "value": 0.49606299212598426
          },
          {
            "number": 10,
            "ticks": 6960,
            "time": 56.4935225,
            "value": 1
          },
          {
            "number": 10,
            "ticks": 6996,
            "time": 56.78573037499999,
            "value": 0.5039370078740157
          },
          {
            "number": 10,
            "ticks": 7044,
            "time": 57.175340874999996,
            "value": 0
          },
          {
            "number": 10,
            "ticks": 7096,
            "time": 57.59741891666667,
            "value": 0.4881889763779528
          },
          {
            "number": 10,
            "ticks": 7148,
            "time": 58.01949695833333,
            "value": 1
          },
          {
            "number": 10,
            "ticks": 7200,
            "time": 58.44157499999999,
            "value": 0.49606299212598426
          },
          {
            "number": 10,
            "ticks": 7248,
            "time": 58.8311855,
            "value": 0
          },
          {
            "number": 10,
            "ticks": 7288,
            "time": 59.15586091666667,
            "value": 0.5118110236220472
          },
          {
            "number": 10,
            "ticks": 7290,
            "time": 59.17209468749999,
            "value": 0.49606299212598426
          },
          {
            "number": 10,
            "ticks": 7344,
            "time": 59.610406499999996,
            "value": 1
          },
          {
            "number": 10,
            "ticks": 7380,
            "time": 59.902614375,
            "value": 0.5039370078740157
          },
          {
            "number": 10,
            "ticks": 7428,
            "time": 60.292224874999995,
            "value": 0
          },
          {
            "number": 10,
            "ticks": 7480,
            "time": 60.71430291666667,
            "value": 0.4881889763779528
          },
          {
            "number": 10,
            "ticks": 7532,
            "time": 61.136380958333326,
            "value": 1
          },
          {
            "number": 10,
            "ticks": 7584,
            "time": 61.55845899999999,
            "value": 0.49606299212598426
          },
          {
            "number": 10,
            "ticks": 7632,
            "time": 61.948069499999995,
            "value": 0
          },
          {
            "number": 10,
            "ticks": 7672,
            "time": 62.27274491666667,
            "value": 0.5118110236220472
          },
          {
            "number": 10,
            "ticks": 7674,
            "time": 62.2889786875,
            "value": 0.49606299212598426
          },
          {
            "number": 10,
            "ticks": 7728,
            "time": 62.727290499999995,
            "value": 1
          },
          {
            "number": 10,
            "ticks": 7764,
            "time": 63.019498375,
            "value": 0.5039370078740157
          },
          {
            "number": 10,
            "ticks": 7812,
            "time": 63.409108874999994,
            "value": 0
          },
          {
            "number": 10,
            "ticks": 7864,
            "time": 63.83118691666667,
            "value": 0.4881889763779528
          },
          {
            "number": 10,
            "ticks": 7916,
            "time": 64.25326495833332,
            "value": 1
          },
          {
            "number": 10,
            "ticks": 7968,
            "time": 64.675343,
            "value": 0.49606299212598426
          },
          {
            "number": 10,
            "ticks": 8016,
            "time": 65.0649535,
            "value": 0
          },
          {
            "number": 10,
            "ticks": 8056,
            "time": 65.38962891666667,
            "value": 0.5118110236220472
          },
          {
            "number": 10,
            "ticks": 8058,
            "time": 65.40586268749999,
            "value": 0.49606299212598426
          },
          {
            "number": 10,
            "ticks": 8112,
            "time": 65.8441745,
            "value": 1
          },
          {
            "number": 10,
            "ticks": 8148,
            "time": 66.136382375,
            "value": 0.5039370078740157
          },
          {
            "number": 10,
            "ticks": 8196,
            "time": 66.525992875,
            "value": 0
          },
          {
            "number": 10,
            "ticks": 8248,
            "time": 66.94807091666667,
            "value": 0.4881889763779528
          },
          {
            "number": 10,
            "ticks": 8300,
            "time": 67.37014895833333,
            "value": 1
          },
          {
            "number": 10,
            "ticks": 8352,
            "time": 67.792227,
            "value": 0.49606299212598426
          },
          {
            "number": 10,
            "ticks": 8400,
            "time": 68.1818375,
            "value": 0
          },
          {
            "number": 10,
            "ticks": 8440,
            "time": 68.50651291666667,
            "value": 0.5118110236220472
          },
          {
            "number": 10,
            "ticks": 8442,
            "time": 68.52274668749999,
            "value": 0.49606299212598426
          },
          {
            "number": 10,
            "ticks": 8496,
            "time": 68.9610585,
            "value": 1
          },
          {
            "number": 10,
            "ticks": 8532,
            "time": 69.253266375,
            "value": 0.5039370078740157
          },
          {
            "number": 10,
            "ticks": 8580,
            "time": 69.642876875,
            "value": 0
          },
          {
            "number": 10,
            "ticks": 8632,
            "time": 70.06495491666666,
            "value": 0.4881889763779528
          },
          {
            "number": 10,
            "ticks": 8684,
            "time": 70.48703295833333,
            "value": 1
          },
          {
            "number": 10,
            "ticks": 8736,
            "time": 70.909111,
            "value": 0.49606299212598426
          },
          {
            "number": 10,
            "ticks": 8784,
            "time": 71.2987215,
            "value": 0
          },
          {
            "number": 10,
            "ticks": 8824,
            "time": 71.62339691666666,
            "value": 0.5118110236220472
          },
          {
            "number": 10,
            "ticks": 8826,
            "time": 71.63963068749999,
            "value": 0.49606299212598426
          },
          {
            "number": 10,
            "ticks": 8880,
            "time": 72.07794249999999,
            "value": 1
          },
          {
            "number": 10,
            "ticks": 8884,
            "time": 72.11041004166667,
            "value": 0.9921259842519685
          },
          {
            "number": 10,
            "ticks": 8962,
            "time": 72.74352710416666,
            "value": 0.7559055118110236
          },
          {
            "number": 10,
            "ticks": 9018,
            "time": 73.19807268749999,
            "value": 0.5039370078740157
          },
          {
            "number": 10,
            "ticks": 9268,
            "time": 75.22729404166667,
            "value": 0
          },
          {
            "number": 10,
            "ticks": 9346,
            "time": 75.86041110416666,
            "value": 0.25196850393700787
          },
          {
            "number": 10,
            "ticks": 9400,
            "time": 76.29872291666666,
            "value": 0.49606299212598426
          },
          {
            "number": 10,
            "ticks": 9648,
            "time": 78.31171049999999,
            "value": 1
          },
          {
            "number": 10,
            "ticks": 9652,
            "time": 78.34417804166667,
            "value": 0.9921259842519685
          },
          {
            "number": 10,
            "ticks": 9730,
            "time": 78.97729510416666,
            "value": 0.7559055118110236
          },
          {
            "number": 10,
            "ticks": 9786,
            "time": 79.4318406875,
            "value": 0.5039370078740157
          },
          {
            "number": 10,
            "ticks": 10036,
            "time": 81.46106204166666,
            "value": 0
          },
          {
            "number": 10,
            "ticks": 10114,
            "time": 82.09417910416667,
            "value": 0.25196850393700787
          },
          {
            "number": 10,
            "ticks": 10168,
            "time": 82.53249091666666,
            "value": 0.49606299212598426
          },
          {
            "number": 10,
            "ticks": 10416,
            "time": 84.54547849999999,
            "value": 1
          },
          {
            "number": 10,
            "ticks": 10420,
            "time": 84.57794604166666,
            "value": 0.9921259842519685
          },
          {
            "number": 10,
            "ticks": 10498,
            "time": 85.21106310416667,
            "value": 0.7559055118110236
          },
          {
            "number": 10,
            "ticks": 10554,
            "time": 85.6656086875,
            "value": 0.5039370078740157
          },
          {
            "number": 10,
            "ticks": 10804,
            "time": 87.69483004166666,
            "value": 0
          },
          {
            "number": 10,
            "ticks": 10882,
            "time": 88.32794710416667,
            "value": 0.25196850393700787
          },
          {
            "number": 10,
            "ticks": 10936,
            "time": 88.76625891666666,
            "value": 0.49606299212598426
          },
          {
            "number": 10,
            "ticks": 11184,
            "time": 90.7792465,
            "value": 1
          },
          {
            "number": 10,
            "ticks": 11188,
            "time": 90.81171404166666,
            "value": 0.9921259842519685
          },
          {
            "number": 10,
            "ticks": 11266,
            "time": 91.44483110416667,
            "value": 0.7559055118110236
          },
          {
            "number": 10,
            "ticks": 11322,
            "time": 91.8993766875,
            "value": 0.5039370078740157
          },
          {
            "number": 10,
            "ticks": 11572,
            "time": 93.92859804166666,
            "value": 0
          },
          {
            "number": 10,
            "ticks": 11650,
            "time": 94.56171510416667,
            "value": 0.25196850393700787
          },
          {
            "number": 10,
            "ticks": 11704,
            "time": 95.00002691666667,
            "value": 0.49606299212598426
          },
          {
            "number": 10,
            "ticks": 11952,
            "time": 97.0130145,
            "value": 1
          },
          {
            "number": 10,
            "ticks": 11956,
            "time": 97.04548204166666,
            "value": 0.9921259842519685
          },
          {
            "number": 10,
            "ticks": 12034,
            "time": 97.67859910416666,
            "value": 0.7559055118110236
          },
          {
            "number": 10,
            "ticks": 12090,
            "time": 98.13314468749999,
            "value": 0.5039370078740157
          },
          {
            "number": 10,
            "ticks": 12340,
            "time": 100.16236604166666,
            "value": 0
          },
          {
            "number": 10,
            "ticks": 12418,
            "time": 100.79548310416665,
            "value": 0.25196850393700787
          },
          {
            "number": 10,
            "ticks": 12472,
            "time": 101.23379491666665,
            "value": 0.49606299212598426
          },
          {
            "number": 10,
            "ticks": 12720,
            "time": 103.2467825,
            "value": 1
          },
          {
            "number": 10,
            "ticks": 12724,
            "time": 103.27925004166666,
            "value": 0.9921259842519685
          },
          {
            "number": 10,
            "ticks": 12802,
            "time": 103.91236710416665,
            "value": 0.7559055118110236
          },
          {
            "number": 10,
            "ticks": 12858,
            "time": 104.36691268749999,
            "value": 0.5039370078740157
          },
          {
            "number": 10,
            "ticks": 13108,
            "time": 106.39613404166666,
            "value": 0
          },
          {
            "number": 10,
            "ticks": 13186,
            "time": 107.02925110416665,
            "value": 0.25196850393700787
          },
          {
            "number": 10,
            "ticks": 13240,
            "time": 107.46756291666665,
            "value": 0.49606299212598426
          },
          {
            "number": 10,
            "ticks": 13488,
            "time": 109.48055049999999,
            "value": 1
          },
          {
            "number": 10,
            "ticks": 13492,
            "time": 109.51301804166665,
            "value": 0.9921259842519685
          },
          {
            "number": 10,
            "ticks": 13570,
            "time": 110.14613510416665,
            "value": 0.7559055118110236
          },
          {
            "number": 10,
            "ticks": 13626,
            "time": 110.60068068749999,
            "value": 0.5039370078740157
          },
          {
            "number": 10,
            "ticks": 13876,
            "time": 112.62990204166665,
            "value": 0
          },
          {
            "number": 10,
            "ticks": 13954,
            "time": 113.26301910416664,
            "value": 0.25196850393700787
          },
          {
            "number": 10,
            "ticks": 14008,
            "time": 113.70133091666665,
            "value": 0.49606299212598426
          },
          {
            "number": 10,
            "ticks": 14256,
            "time": 115.71431849999999,
            "value": 1
          },
          {
            "number": 10,
            "ticks": 14260,
            "time": 115.74678604166665,
            "value": 0.9921259842519685
          },
          {
            "number": 10,
            "ticks": 14338,
            "time": 116.37990310416664,
            "value": 0.7559055118110236
          },
          {
            "number": 10,
            "ticks": 14394,
            "time": 116.83444868749999,
            "value": 0.5039370078740157
          },
          {
            "number": 10,
            "ticks": 14644,
            "time": 118.86367004166665,
            "value": 0
          },
          {
            "number": 10,
            "ticks": 14722,
            "time": 119.49678710416666,
            "value": 0.25196850393700787
          },
          {
            "number": 10,
            "ticks": 14776,
            "time": 119.93509891666665,
            "value": 0.49606299212598426
          },
          {
            "number": 10,
            "ticks": 15216,
            "time": 123.50652849999999,
            "value": 1
          },
          {
            "number": 10,
            "ticks": 15252,
            "time": 123.79873637499999,
            "value": 0.5039370078740157
          },
          {
            "number": 10,
            "ticks": 15300,
            "time": 124.188346875,
            "value": 0
          },
          {
            "number": 10,
            "ticks": 15352,
            "time": 124.61042491666664,
            "value": 0.4881889763779528
          },
          {
            "number": 10,
            "ticks": 15404,
            "time": 125.03250295833332,
            "value": 1
          },
          {
            "number": 10,
            "ticks": 15456,
            "time": 125.45458099999999,
            "value": 0.49606299212598426
          },
          {
            "number": 10,
            "ticks": 15504,
            "time": 125.8441915,
            "value": 0
          },
          {
            "number": 10,
            "ticks": 15544,
            "time": 126.16886691666664,
            "value": 0.5118110236220472
          },
          {
            "number": 10,
            "ticks": 15546,
            "time": 126.1851006875,
            "value": 0.49606299212598426
          },
          {
            "number": 10,
            "ticks": 15600,
            "time": 126.62341249999999,
            "value": 1
          },
          {
            "number": 10,
            "ticks": 15636,
            "time": 126.91562037499999,
            "value": 0.5039370078740157
          },
          {
            "number": 10,
            "ticks": 15684,
            "time": 127.30523087499999,
            "value": 0
          },
          {
            "number": 10,
            "ticks": 15736,
            "time": 127.72730891666664,
            "value": 0.4881889763779528
          },
          {
            "number": 10,
            "ticks": 15788,
            "time": 128.14938695833334,
            "value": 1
          },
          {
            "number": 10,
            "ticks": 15840,
            "time": 128.571465,
            "value": 0.49606299212598426
          },
          {
            "number": 10,
            "ticks": 15888,
            "time": 128.9610755,
            "value": 0
          },
          {
            "number": 10,
            "ticks": 15928,
            "time": 129.28575091666664,
            "value": 0.5118110236220472
          },
          {
            "number": 10,
            "ticks": 15930,
            "time": 129.30198468749998,
            "value": 0.49606299212598426
          },
          {
            "number": 10,
            "ticks": 15984,
            "time": 129.7402965,
            "value": 1
          },
          {
            "number": 10,
            "ticks": 16020,
            "time": 130.032504375,
            "value": 0.5039370078740157
          },
          {
            "number": 10,
            "ticks": 16068,
            "time": 130.42211487499998,
            "value": 0
          },
          {
            "number": 10,
            "ticks": 16120,
            "time": 130.84419291666666,
            "value": 0.4881889763779528
          },
          {
            "number": 10,
            "ticks": 16172,
            "time": 131.26627095833334,
            "value": 1
          },
          {
            "number": 10,
            "ticks": 16224,
            "time": 131.688349,
            "value": 0.49606299212598426
          },
          {
            "number": 10,
            "ticks": 16272,
            "time": 132.0779595,
            "value": 0
          },
          {
            "number": 10,
            "ticks": 16312,
            "time": 132.40263491666664,
            "value": 0.5118110236220472
          },
          {
            "number": 10,
            "ticks": 16314,
            "time": 132.41886868749998,
            "value": 0.49606299212598426
          },
          {
            "number": 10,
            "ticks": 16368,
            "time": 132.8571805,
            "value": 1
          },
          {
            "number": 10,
            "ticks": 16404,
            "time": 133.149388375,
            "value": 0.5039370078740157
          },
          {
            "number": 10,
            "ticks": 16452,
            "time": 133.53899887499998,
            "value": 0
          },
          {
            "number": 10,
            "ticks": 16504,
            "time": 133.96107691666666,
            "value": 0.4881889763779528
          },
          {
            "number": 10,
            "ticks": 16556,
            "time": 134.38315495833334,
            "value": 1
          },
          {
            "number": 10,
            "ticks": 16608,
            "time": 134.805233,
            "value": 0.49606299212598426
          },
          {
            "number": 10,
            "ticks": 16656,
            "time": 135.1948435,
            "value": 0
          },
          {
            "number": 10,
            "ticks": 16696,
            "time": 135.51951891666664,
            "value": 0.5118110236220472
          },
          {
            "number": 10,
            "ticks": 16698,
            "time": 135.53575268749998,
            "value": 0.49606299212598426
          },
          {
            "number": 10,
            "ticks": 16752,
            "time": 135.9740645,
            "value": 1
          },
          {
            "number": 10,
            "ticks": 16788,
            "time": 136.266272375,
            "value": 0.5039370078740157
          },
          {
            "number": 10,
            "ticks": 16836,
            "time": 136.655882875,
            "value": 0
          },
          {
            "number": 10,
            "ticks": 16888,
            "time": 137.07796091666665,
            "value": 0.4881889763779528
          },
          {
            "number": 10,
            "ticks": 16940,
            "time": 137.50003895833333,
            "value": 1
          },
          {
            "number": 10,
            "ticks": 16992,
            "time": 137.922117,
            "value": 0.49606299212598426
          },
          {
            "number": 10,
            "ticks": 17040,
            "time": 138.3117275,
            "value": 0
          },
          {
            "number": 10,
            "ticks": 17080,
            "time": 138.63640291666664,
            "value": 0.5118110236220472
          },
          {
            "number": 10,
            "ticks": 17082,
            "time": 138.65263668749998,
            "value": 0.49606299212598426
          },
          {
            "number": 10,
            "ticks": 17136,
            "time": 139.0909485,
            "value": 1
          },
          {
            "number": 10,
            "ticks": 17172,
            "time": 139.383156375,
            "value": 0.5039370078740157
          },
          {
            "number": 10,
            "ticks": 17220,
            "time": 139.772766875,
            "value": 0
          },
          {
            "number": 10,
            "ticks": 17272,
            "time": 140.19484491666665,
            "value": 0.4881889763779528
          },
          {
            "number": 10,
            "ticks": 17324,
            "time": 140.61692295833333,
            "value": 1
          },
          {
            "number": 10,
            "ticks": 17376,
            "time": 141.03900099999998,
            "value": 0.49606299212598426
          },
          {
            "number": 10,
            "ticks": 17424,
            "time": 141.4286115,
            "value": 0
          },
          {
            "number": 10,
            "ticks": 17464,
            "time": 141.75328691666664,
            "value": 0.5118110236220472
          },
          {
            "number": 10,
            "ticks": 17466,
            "time": 141.76952068749998,
            "value": 0.49606299212598426
          },
          {
            "number": 10,
            "ticks": 17520,
            "time": 142.2078325,
            "value": 1
          },
          {
            "number": 10,
            "ticks": 17556,
            "time": 142.500040375,
            "value": 0.5039370078740157
          },
          {
            "number": 10,
            "ticks": 17604,
            "time": 142.889650875,
            "value": 0
          },
          {
            "number": 10,
            "ticks": 17656,
            "time": 143.31172891666665,
            "value": 0.4881889763779528
          },
          {
            "number": 10,
            "ticks": 17708,
            "time": 143.73380695833333,
            "value": 1
          },
          {
            "number": 10,
            "ticks": 17760,
            "time": 144.15588499999998,
            "value": 0.49606299212598426
          },
          {
            "number": 10,
            "ticks": 17808,
            "time": 144.5454955,
            "value": 0
          },
          {
            "number": 10,
            "ticks": 17848,
            "time": 144.87017091666664,
            "value": 0.5118110236220472
          },
          {
            "number": 10,
            "ticks": 17850,
            "time": 144.88640468749998,
            "value": 0.49606299212598426
          },
          {
            "number": 10,
            "ticks": 17904,
            "time": 145.3247165,
            "value": 1
          },
          {
            "number": 10,
            "ticks": 17940,
            "time": 145.616924375,
            "value": 0.5039370078740157
          },
          {
            "number": 10,
            "ticks": 17988,
            "time": 146.006534875,
            "value": 0
          },
          {
            "number": 10,
            "ticks": 18040,
            "time": 146.42861291666665,
            "value": 0.4881889763779528
          },
          {
            "number": 10,
            "ticks": 18092,
            "time": 146.85069095833333,
            "value": 1
          },
          {
            "number": 10,
            "ticks": 18144,
            "time": 147.27276899999998,
            "value": 0.49606299212598426
          },
          {
            "number": 10,
            "ticks": 18192,
            "time": 147.6623795,
            "value": 0
          },
          {
            "number": 10,
            "ticks": 18232,
            "time": 147.98705491666664,
            "value": 0.5118110236220472
          },
          {
            "number": 10,
            "ticks": 18234,
            "time": 148.00328868749997,
            "value": 0.49606299212598426
          },
          {
            "number": 10,
            "ticks": 18288,
            "time": 148.4416005,
            "value": 1
          },
          {
            "number": 10,
            "ticks": 18292,
            "time": 148.47406804166664,
            "value": 0.9921259842519685
          },
          {
            "number": 10,
            "ticks": 18370,
            "time": 149.10718510416666,
            "value": 0.7559055118110236
          },
          {
            "number": 10,
            "ticks": 18426,
            "time": 149.5617306875,
            "value": 0.5039370078740157
          },
          {
            "number": 10,
            "ticks": 18676,
            "time": 151.59095204166664,
            "value": 0
          },
          {
            "number": 10,
            "ticks": 18754,
            "time": 152.22406910416666,
            "value": 0.25196850393700787
          },
          {
            "number": 10,
            "ticks": 18808,
            "time": 152.66238091666665,
            "value": 0.49606299212598426
          },
          {
            "number": 10,
            "ticks": 19056,
            "time": 154.6753685,
            "value": 1
          },
          {
            "number": 10,
            "ticks": 19060,
            "time": 154.70783604166664,
            "value": 0.9921259842519685
          },
          {
            "number": 10,
            "ticks": 19138,
            "time": 155.34095310416666,
            "value": 0.7559055118110236
          },
          {
            "number": 10,
            "ticks": 19194,
            "time": 155.7954986875,
            "value": 0.5039370078740157
          },
          {
            "number": 10,
            "ticks": 19444,
            "time": 157.82472004166664,
            "value": 0
          },
          {
            "number": 10,
            "ticks": 19522,
            "time": 158.45783710416666,
            "value": 0.25196850393700787
          },
          {
            "number": 10,
            "ticks": 19576,
            "time": 158.89614891666665,
            "value": 0.49606299212598426
          }
        ],
        "11": [
          {
            "number": 11,
            "ticks": 4,
            "time": 0.03246754166666666,
            "value": 1
          }
        ],
        "91": [
          {
            "number": 91,
            "ticks": 0,
            "time": 0,
            "value": 0.15748031496062992
          }
        ],
        "93": [
          {
            "number": 93,
            "ticks": 1,
            "time": 0.008116885416666665,
            "value": 0
          }
        ],
        "94": [
          {
            "number": 94,
            "ticks": 2,
            "time": 0.01623377083333333,
            "value": 0
          }
        ],
        "98": [
          {
            "number": 98,
            "ticks": 6,
            "time": 0.048701312499999996,
            "value": 0.25196850393700787
          },
          {
            "number": 98,
            "ticks": 9,
            "time": 0.07305196875,
            "value": 0.25984251968503935
          }
        ],
        "99": [
          {
            "number": 99,
            "ticks": 5,
            "time": 0.04058442708333333,
            "value": 0.007874015748031496
          },
          {
            "number": 99,
            "ticks": 8,
            "time": 0.06493508333333332,
            "value": 0.007874015748031496
          }
        ],
        "100": [
          {
            "number": 100,
            "ticks": 13,
            "time": 0.10551951041666666,
            "value": 0
          }
        ],
        "101": [
          {
            "number": 101,
            "ticks": 11,
            "time": 0.08928573958333333,
            "value": 0
          }
        ],
        "121": [
          {
            "number": 121,
            "ticks": 0,
            "time": 0,
            "value": 0
          }
        ]
      },
      "pitchBends": [],
      "instrument": {
        "family": "synth effects",
        "number": 98,
        "name": "fx 3 (crystal)"
      },
      "name": "",
      "notes": [
        {
          "duration": 0.38961049999999986,
          "durationTicks": 48,
          "midi": 80,
          "name": "G#5",
          "ticks": 480,
          "time": 3.8961049999999995,
          "velocity": 0.8031496062992126
        },
        {
          "duration": 0.38961050000000075,
          "durationTicks": 48,
          "midi": 82,
          "name": "A#5",
          "ticks": 528,
          "time": 4.285715499999999,
          "velocity": 0.8031496062992126
        },
        {
          "duration": 0.38961049999999986,
          "durationTicks": 48,
          "midi": 89,
          "name": "F6",
          "ticks": 576,
          "time": 4.675326,
          "velocity": 0.8031496062992126
        },
        {
          "duration": 0.38961049999999986,
          "durationTicks": 48,
          "midi": 89,
          "name": "F6",
          "ticks": 864,
          "time": 7.012988999999999,
          "velocity": 0.8031496062992126
        },
        {
          "duration": 0.38961049999999986,
          "durationTicks": 48,
          "midi": 82,
          "name": "A#5",
          "ticks": 912,
          "time": 7.402599499999999,
          "velocity": 0.8031496062992126
        },
        {
          "duration": 0.38961049999999986,
          "durationTicks": 48,
          "midi": 85,
          "name": "C#6",
          "ticks": 960,
          "time": 7.792209999999999,
          "velocity": 0.8031496062992126
        },
        {
          "duration": 0.38961049999999986,
          "durationTicks": 48,
          "midi": 80,
          "name": "G#5",
          "ticks": 1248,
          "time": 10.129873,
          "velocity": 0.8031496062992126
        },
        {
          "duration": 0.38961049999999986,
          "durationTicks": 48,
          "midi": 82,
          "name": "A#5",
          "ticks": 1296,
          "time": 10.5194835,
          "velocity": 0.8031496062992126
        },
        {
          "duration": 0.38961049999999986,
          "durationTicks": 48,
          "midi": 89,
          "name": "F6",
          "ticks": 1344,
          "time": 10.909094,
          "velocity": 0.8031496062992126
        },
        {
          "duration": 0.38961049999999986,
          "durationTicks": 48,
          "midi": 89,
          "name": "F6",
          "ticks": 1632,
          "time": 13.246756999999999,
          "velocity": 0.8031496062992126
        },
        {
          "duration": 0.38961049999999986,
          "durationTicks": 48,
          "midi": 82,
          "name": "A#5",
          "ticks": 1680,
          "time": 13.636367499999999,
          "velocity": 0.8031496062992126
        },
        {
          "duration": 0.38961049999999986,
          "durationTicks": 48,
          "midi": 85,
          "name": "C#6",
          "ticks": 1728,
          "time": 14.025977999999999,
          "velocity": 0.8031496062992126
        },
        {
          "duration": 0.38961049999999986,
          "durationTicks": 48,
          "midi": 80,
          "name": "G#5",
          "ticks": 2016,
          "time": 16.363640999999998,
          "velocity": 0.8031496062992126
        },
        {
          "duration": 0.38961049999999986,
          "durationTicks": 48,
          "midi": 82,
          "name": "A#5",
          "ticks": 2064,
          "time": 16.753251499999998,
          "velocity": 0.8031496062992126
        },
        {
          "duration": 0.38961049999999986,
          "durationTicks": 48,
          "midi": 89,
          "name": "F6",
          "ticks": 2112,
          "time": 17.142861999999997,
          "velocity": 0.8031496062992126
        },
        {
          "duration": 0.38961049999999986,
          "durationTicks": 48,
          "midi": 89,
          "name": "F6",
          "ticks": 2400,
          "time": 19.480525,
          "velocity": 0.8031496062992126
        },
        {
          "duration": 0.38961049999999986,
          "durationTicks": 48,
          "midi": 82,
          "name": "A#5",
          "ticks": 2448,
          "time": 19.8701355,
          "velocity": 0.8031496062992126
        },
        {
          "duration": 0.38961049999999986,
          "durationTicks": 48,
          "midi": 85,
          "name": "C#6",
          "ticks": 2496,
          "time": 20.259746,
          "velocity": 0.8031496062992126
        },
        {
          "duration": 0.38961049999999986,
          "durationTicks": 48,
          "midi": 80,
          "name": "G#5",
          "ticks": 2784,
          "time": 22.597409,
          "velocity": 0.8031496062992126
        },
        {
          "duration": 0.38961049999999986,
          "durationTicks": 48,
          "midi": 82,
          "name": "A#5",
          "ticks": 2832,
          "time": 22.9870195,
          "velocity": 0.8031496062992126
        },
        {
          "duration": 0.38961049999999986,
          "durationTicks": 48,
          "midi": 89,
          "name": "F6",
          "ticks": 2880,
          "time": 23.37663,
          "velocity": 0.8031496062992126
        },
        {
          "duration": 0.38961049999999986,
          "durationTicks": 48,
          "midi": 80,
          "name": "G#5",
          "ticks": 3168,
          "time": 25.714292999999998,
          "velocity": 0.8031496062992126
        },
        {
          "duration": 0.38961049999999986,
          "durationTicks": 48,
          "midi": 82,
          "name": "A#5",
          "ticks": 3216,
          "time": 26.103903499999998,
          "velocity": 0.8031496062992126
        },
        {
          "duration": 0.38961049999999986,
          "durationTicks": 48,
          "midi": 85,
          "name": "C#6",
          "ticks": 3264,
          "time": 26.493513999999998,
          "velocity": 0.8031496062992126
        },
        {
          "duration": 0.38961049999999986,
          "durationTicks": 48,
          "midi": 80,
          "name": "G#5",
          "ticks": 3552,
          "time": 28.831176999999997,
          "velocity": 0.8031496062992126
        },
        {
          "duration": 0.38961049999999986,
          "durationTicks": 48,
          "midi": 82,
          "name": "A#5",
          "ticks": 3600,
          "time": 29.220787499999997,
          "velocity": 0.8031496062992126
        },
        {
          "duration": 0.38961049999999986,
          "durationTicks": 48,
          "midi": 89,
          "name": "F6",
          "ticks": 3648,
          "time": 29.610397999999996,
          "velocity": 0.8031496062992126
        },
        {
          "duration": 0.38961049999999986,
          "durationTicks": 48,
          "midi": 89,
          "name": "F6",
          "ticks": 3936,
          "time": 31.948061,
          "velocity": 0.8031496062992126
        },
        {
          "duration": 0.3896104999999963,
          "durationTicks": 48,
          "midi": 82,
          "name": "A#5",
          "ticks": 3984,
          "time": 32.3376715,
          "velocity": 0.8031496062992126
        },
        {
          "duration": 0.3896105000000034,
          "durationTicks": 48,
          "midi": 85,
          "name": "C#6",
          "ticks": 4032,
          "time": 32.727281999999995,
          "velocity": 0.8031496062992126
        },
        {
          "duration": 0.3896105000000034,
          "durationTicks": 48,
          "midi": 80,
          "name": "G#5",
          "ticks": 4320,
          "time": 35.064944999999994,
          "velocity": 0.8031496062992126
        },
        {
          "duration": 0.3896104999999963,
          "durationTicks": 48,
          "midi": 82,
          "name": "A#5",
          "ticks": 4368,
          "time": 35.4545555,
          "velocity": 0.8031496062992126
        },
        {
          "duration": 0.3896105000000034,
          "durationTicks": 48,
          "midi": 85,
          "name": "C#6",
          "ticks": 4416,
          "time": 35.844165999999994,
          "velocity": 0.8031496062992126
        },
        {
          "duration": 0.3896105000000034,
          "durationTicks": 48,
          "midi": 82,
          "name": "A#5",
          "ticks": 4656,
          "time": 37.7922185,
          "velocity": 0.49606299212598426
        },
        {
          "duration": 0.3896104999999963,
          "durationTicks": 48,
          "midi": 82,
          "name": "A#5",
          "ticks": 4800,
          "time": 38.96105,
          "velocity": 0.49606299212598426
        },
        {
          "duration": 0.3896105000000034,
          "durationTicks": 48,
          "midi": 82,
          "name": "A#5",
          "ticks": 4848,
          "time": 39.3506605,
          "velocity": 0.49606299212598426
        },
        {
          "duration": 0.3896104999999963,
          "durationTicks": 48,
          "midi": 80,
          "name": "G#5",
          "ticks": 4896,
          "time": 39.740271,
          "velocity": 0.49606299212598426
        },
        {
          "duration": 0.3896105000000034,
          "durationTicks": 48,
          "midi": 80,
          "name": "G#5",
          "ticks": 4944,
          "time": 40.129881499999996,
          "velocity": 0.49606299212598426
        },
        {
          "duration": 0.3896104999999963,
          "durationTicks": 48,
          "midi": 78,
          "name": "F#5",
          "ticks": 4992,
          "time": 40.519492,
          "velocity": 0.49606299212598426
        },
        {
          "duration": 0.3896105000000034,
          "durationTicks": 48,
          "midi": 80,
          "name": "G#5",
          "ticks": 5040,
          "time": 40.909102499999996,
          "velocity": 0.49606299212598426
        },
        {
          "duration": 0.3896104999999963,
          "durationTicks": 48,
          "midi": 80,
          "name": "G#5",
          "ticks": 5088,
          "time": 41.298713,
          "velocity": 0.8031496062992126
        },
        {
          "duration": 0.3896105000000034,
          "durationTicks": 48,
          "midi": 82,
          "name": "A#5",
          "ticks": 5136,
          "time": 41.688323499999996,
          "velocity": 0.8031496062992126
        },
        {
          "duration": 0.3896104999999963,
          "durationTicks": 48,
          "midi": 89,
          "name": "F6",
          "ticks": 5184,
          "time": 42.077934,
          "velocity": 0.8031496062992126
        },
        {
          "duration": 0.3896104999999963,
          "durationTicks": 48,
          "midi": 89,
          "name": "F6",
          "ticks": 5472,
          "time": 44.415597,
          "velocity": 0.8031496062992126
        },
        {
          "duration": 0.3896105000000034,
          "durationTicks": 48,
          "midi": 82,
          "name": "A#5",
          "ticks": 5520,
          "time": 44.805207499999995,
          "velocity": 0.8031496062992126
        },
        {
          "duration": 0.3896104999999963,
          "durationTicks": 48,
          "midi": 85,
          "name": "C#6",
          "ticks": 5568,
          "time": 45.194818,
          "velocity": 0.8031496062992126
        },
        {
          "duration": 0.3896105000000034,
          "durationTicks": 48,
          "midi": 86,
          "name": "D6",
          "ticks": 5616,
          "time": 45.584428499999994,
          "velocity": 0.8031496062992126
        },
        {
          "duration": 0.3896105000000034,
          "durationTicks": 48,
          "midi": 89,
          "name": "F6",
          "ticks": 5808,
          "time": 47.142870499999994,
          "velocity": 0.6299212598425197
        },
        {
          "duration": 0.3896104999999963,
          "durationTicks": 48,
          "midi": 78,
          "name": "F#5",
          "ticks": 5856,
          "time": 47.532481,
          "velocity": 0.6299212598425197
        },
        {
          "duration": 0.3896105000000034,
          "durationTicks": 48,
          "midi": 85,
          "name": "C#6",
          "ticks": 5904,
          "time": 47.92209149999999,
          "velocity": 0.6299212598425197
        },
        {
          "duration": 0.3896104999999963,
          "durationTicks": 48,
          "midi": 78,
          "name": "F#5",
          "ticks": 5952,
          "time": 48.311702,
          "velocity": 0.6299212598425197
        },
        {
          "duration": 0.3896105000000034,
          "durationTicks": 48,
          "midi": 89,
          "name": "F6",
          "ticks": 6000,
          "time": 48.70131249999999,
          "velocity": 0.6299212598425197
        },
        {
          "duration": 0.3896104999999963,
          "durationTicks": 48,
          "midi": 80,
          "name": "G#5",
          "ticks": 6048,
          "time": 49.090923,
          "velocity": 0.6299212598425197
        },
        {
          "duration": 0.3896105000000034,
          "durationTicks": 48,
          "midi": 84,
          "name": "C6",
          "ticks": 6096,
          "time": 49.48053349999999,
          "velocity": 0.6299212598425197
        },
        {
          "duration": 0.3896105000000034,
          "durationTicks": 48,
          "midi": 80,
          "name": "G#5",
          "ticks": 6144,
          "time": 49.870143999999996,
          "velocity": 0.6299212598425197
        },
        {
          "duration": 0.3896104999999963,
          "durationTicks": 48,
          "midi": 87,
          "name": "D#6",
          "ticks": 6192,
          "time": 50.2597545,
          "velocity": 0.6299212598425197
        },
        {
          "duration": 0.3896105000000034,
          "durationTicks": 48,
          "midi": 80,
          "name": "G#5",
          "ticks": 6240,
          "time": 50.649364999999996,
          "velocity": 0.6299212598425197
        },
        {
          "duration": 0.3896104999999963,
          "durationTicks": 48,
          "midi": 84,
          "name": "C6",
          "ticks": 6288,
          "time": 51.0389755,
          "velocity": 0.6299212598425197
        },
        {
          "duration": 0.3896105000000034,
          "durationTicks": 48,
          "midi": 80,
          "name": "G#5",
          "ticks": 6336,
          "time": 51.428585999999996,
          "velocity": 0.6299212598425197
        },
        {
          "duration": 0.3896104999999963,
          "durationTicks": 48,
          "midi": 87,
          "name": "D#6",
          "ticks": 6384,
          "time": 51.8181965,
          "velocity": 0.6299212598425197
        },
        {
          "duration": 0.3896105000000034,
          "durationTicks": 48,
          "midi": 80,
          "name": "G#5",
          "ticks": 6432,
          "time": 52.207806999999995,
          "velocity": 0.6299212598425197
        },
        {
          "duration": 0.3896104999999963,
          "durationTicks": 48,
          "midi": 82,
          "name": "A#5",
          "ticks": 6480,
          "time": 52.5974175,
          "velocity": 0.6299212598425197
        },
        {
          "duration": 0.3896105000000034,
          "durationTicks": 48,
          "midi": 80,
          "name": "G#5",
          "ticks": 6528,
          "time": 52.987027999999995,
          "velocity": 0.6299212598425197
        },
        {
          "duration": 0.3896104999999963,
          "durationTicks": 48,
          "midi": 87,
          "name": "D#6",
          "ticks": 6576,
          "time": 53.3766385,
          "velocity": 0.6299212598425197
        },
        {
          "duration": 0.3896105000000034,
          "durationTicks": 48,
          "midi": 78,
          "name": "F#5",
          "ticks": 6624,
          "time": 53.766248999999995,
          "velocity": 0.6299212598425197
        },
        {
          "duration": 0.3896104999999963,
          "durationTicks": 48,
          "midi": 85,
          "name": "C#6",
          "ticks": 6672,
          "time": 54.1558595,
          "velocity": 0.6299212598425197
        },
        {
          "duration": 0.3896105000000034,
          "durationTicks": 48,
          "midi": 78,
          "name": "F#5",
          "ticks": 6720,
          "time": 54.545469999999995,
          "velocity": 0.6299212598425197
        },
        {
          "duration": 0.3896104999999963,
          "durationTicks": 48,
          "midi": 85,
          "name": "C#6",
          "ticks": 6768,
          "time": 54.9350805,
          "velocity": 0.6299212598425197
        },
        {
          "duration": 0.3896105000000034,
          "durationTicks": 48,
          "midi": 78,
          "name": "F#5",
          "ticks": 6816,
          "time": 55.324690999999994,
          "velocity": 0.6299212598425197
        },
        {
          "duration": 0.3896104999999963,
          "durationTicks": 48,
          "midi": 81,
          "name": "A5",
          "ticks": 6864,
          "time": 55.7143015,
          "velocity": 0.6299212598425197
        },
        {
          "duration": 0.3896105000000034,
          "durationTicks": 48,
          "midi": 85,
          "name": "C#6",
          "ticks": 6912,
          "time": 56.103911999999994,
          "velocity": 0.6299212598425197
        },
        {
          "duration": 0.3896104999999963,
          "durationTicks": 48,
          "midi": 89,
          "name": "F6",
          "ticks": 6960,
          "time": 56.4935225,
          "velocity": 0.6299212598425197
        },
        {
          "duration": 0.3896105000000034,
          "durationTicks": 48,
          "midi": 80,
          "name": "G#5",
          "ticks": 7008,
          "time": 56.883132999999994,
          "velocity": 0.6299212598425197
        },
        {
          "duration": 0.3896104999999963,
          "durationTicks": 48,
          "midi": 84,
          "name": "C6",
          "ticks": 7056,
          "time": 57.2727435,
          "velocity": 0.6299212598425197
        },
        {
          "duration": 0.3896105000000034,
          "durationTicks": 48,
          "midi": 80,
          "name": "G#5",
          "ticks": 7104,
          "time": 57.66235399999999,
          "velocity": 0.6299212598425197
        },
        {
          "duration": 0.3896104999999963,
          "durationTicks": 48,
          "midi": 89,
          "name": "F6",
          "ticks": 7152,
          "time": 58.0519645,
          "velocity": 0.6299212598425197
        },
        {
          "duration": 0.3896105000000034,
          "durationTicks": 48,
          "midi": 80,
          "name": "G#5",
          "ticks": 7200,
          "time": 58.44157499999999,
          "velocity": 0.6299212598425197
        },
        {
          "duration": 0.3896104999999963,
          "durationTicks": 48,
          "midi": 84,
          "name": "C6",
          "ticks": 7248,
          "time": 58.8311855,
          "velocity": 0.6299212598425197
        },
        {
          "duration": 0.3896105000000034,
          "durationTicks": 48,
          "midi": 80,
          "name": "G#5",
          "ticks": 7296,
          "time": 59.22079599999999,
          "velocity": 0.6299212598425197
        },
        {
          "duration": 0.3896104999999963,
          "durationTicks": 48,
          "midi": 89,
          "name": "F6",
          "ticks": 7344,
          "time": 59.610406499999996,
          "velocity": 0.6299212598425197
        },
        {
          "duration": 0.3896105000000034,
          "durationTicks": 48,
          "midi": 78,
          "name": "F#5",
          "ticks": 7392,
          "time": 60.00001699999999,
          "velocity": 0.6299212598425197
        },
        {
          "duration": 0.3896104999999963,
          "durationTicks": 48,
          "midi": 85,
          "name": "C#6",
          "ticks": 7440,
          "time": 60.389627499999996,
          "velocity": 0.6299212598425197
        },
        {
          "duration": 0.3896105000000034,
          "durationTicks": 48,
          "midi": 78,
          "name": "F#5",
          "ticks": 7488,
          "time": 60.77923799999999,
          "velocity": 0.6299212598425197
        },
        {
          "duration": 0.3896104999999963,
          "durationTicks": 48,
          "midi": 89,
          "name": "F6",
          "ticks": 7536,
          "time": 61.168848499999996,
          "velocity": 0.6299212598425197
        },
        {
          "duration": 0.3896105000000034,
          "durationTicks": 48,
          "midi": 80,
          "name": "G#5",
          "ticks": 7584,
          "time": 61.55845899999999,
          "velocity": 0.6299212598425197
        },
        {
          "duration": 0.3896104999999963,
          "durationTicks": 48,
          "midi": 84,
          "name": "C6",
          "ticks": 7632,
          "time": 61.948069499999995,
          "velocity": 0.6299212598425197
        },
        {
          "duration": 0.3896105000000034,
          "durationTicks": 48,
          "midi": 80,
          "name": "G#5",
          "ticks": 7680,
          "time": 62.33767999999999,
          "velocity": 0.6299212598425197
        },
        {
          "duration": 0.3896105000000034,
          "durationTicks": 48,
          "midi": 87,
          "name": "D#6",
          "ticks": 7728,
          "time": 62.727290499999995,
          "velocity": 0.6299212598425197
        },
        {
          "duration": 0.3896104999999963,
          "durationTicks": 48,
          "midi": 80,
          "name": "G#5",
          "ticks": 7776,
          "time": 63.116901,
          "velocity": 0.6299212598425197
        },
        {
          "duration": 0.3896105000000034,
          "durationTicks": 48,
          "midi": 84,
          "name": "C6",
          "ticks": 7824,
          "time": 63.506511499999995,
          "velocity": 0.6299212598425197
        },
        {
          "duration": 0.3896104999999963,
          "durationTicks": 48,
          "midi": 80,
          "name": "G#5",
          "ticks": 7872,
          "time": 63.896122,
          "velocity": 0.6299212598425197
        },
        {
          "duration": 0.3896105000000034,
          "durationTicks": 48,
          "midi": 87,
          "name": "D#6",
          "ticks": 7920,
          "time": 64.2857325,
          "velocity": 0.6299212598425197
        },
        {
          "duration": 0.3896105000000034,
          "durationTicks": 48,
          "midi": 80,
          "name": "G#5",
          "ticks": 7968,
          "time": 64.675343,
          "velocity": 0.6299212598425197
        },
        {
          "duration": 0.3896104999999892,
          "durationTicks": 48,
          "midi": 82,
          "name": "A#5",
          "ticks": 8016,
          "time": 65.0649535,
          "velocity": 0.6299212598425197
        },
        {
          "duration": 0.3896105000000034,
          "durationTicks": 48,
          "midi": 80,
          "name": "G#5",
          "ticks": 8064,
          "time": 65.45456399999999,
          "velocity": 0.6299212598425197
        },
        {
          "duration": 0.3896105000000034,
          "durationTicks": 48,
          "midi": 87,
          "name": "D#6",
          "ticks": 8112,
          "time": 65.8441745,
          "velocity": 0.6299212598425197
        },
        {
          "duration": 0.3896105000000034,
          "durationTicks": 48,
          "midi": 78,
          "name": "F#5",
          "ticks": 8160,
          "time": 66.233785,
          "velocity": 0.6299212598425197
        },
        {
          "duration": 0.3896104999999892,
          "durationTicks": 48,
          "midi": 82,
          "name": "A#5",
          "ticks": 8208,
          "time": 66.6233955,
          "velocity": 0.6299212598425197
        },
        {
          "duration": 0.3896105000000034,
          "durationTicks": 48,
          "midi": 78,
          "name": "F#5",
          "ticks": 8256,
          "time": 67.01300599999999,
          "velocity": 0.6299212598425197
        },
        {
          "duration": 0.3896105000000034,
          "durationTicks": 48,
          "midi": 87,
          "name": "D#6",
          "ticks": 8304,
          "time": 67.4026165,
          "velocity": 0.6299212598425197
        },
        {
          "duration": 0.3896105000000034,
          "durationTicks": 48,
          "midi": 78,
          "name": "F#5",
          "ticks": 8352,
          "time": 67.792227,
          "velocity": 0.6299212598425197
        },
        {
          "duration": 0.3896104999999892,
          "durationTicks": 48,
          "midi": 82,
          "name": "A#5",
          "ticks": 8400,
          "time": 68.1818375,
          "velocity": 0.6299212598425197
        },
        {
          "duration": 0.3896105000000034,
          "durationTicks": 48,
          "midi": 78,
          "name": "F#5",
          "ticks": 8448,
          "time": 68.57144799999999,
          "velocity": 0.6299212598425197
        },
        {
          "duration": 0.3896105000000034,
          "durationTicks": 48,
          "midi": 89,
          "name": "F6",
          "ticks": 8496,
          "time": 68.9610585,
          "velocity": 0.6299212598425197
        },
        {
          "duration": 0.3896105000000034,
          "durationTicks": 48,
          "midi": 80,
          "name": "G#5",
          "ticks": 8544,
          "time": 69.350669,
          "velocity": 0.6299212598425197
        },
        {
          "duration": 0.3896104999999892,
          "durationTicks": 48,
          "midi": 84,
          "name": "C6",
          "ticks": 8592,
          "time": 69.7402795,
          "velocity": 0.6299212598425197
        },
        {
          "duration": 0.3896105000000034,
          "durationTicks": 48,
          "midi": 80,
          "name": "G#5",
          "ticks": 8640,
          "time": 70.12988999999999,
          "velocity": 0.6299212598425197
        },
        {
          "duration": 0.3896105000000034,
          "durationTicks": 48,
          "midi": 87,
          "name": "D#6",
          "ticks": 8688,
          "time": 70.51950049999999,
          "velocity": 0.6299212598425197
        },
        {
          "duration": 0.3896105000000034,
          "durationTicks": 48,
          "midi": 80,
          "name": "G#5",
          "ticks": 8736,
          "time": 70.909111,
          "velocity": 0.6299212598425197
        },
        {
          "duration": 0.3896104999999892,
          "durationTicks": 48,
          "midi": 84,
          "name": "C6",
          "ticks": 8784,
          "time": 71.2987215,
          "velocity": 0.6299212598425197
        },
        {
          "duration": 0.3896105000000034,
          "durationTicks": 48,
          "midi": 80,
          "name": "G#5",
          "ticks": 8832,
          "time": 71.68833199999999,
          "velocity": 0.6299212598425197
        },
        {
          "duration": 0.3896105000000034,
          "durationTicks": 48,
          "midi": 80,
          "name": "G#5",
          "ticks": 8928,
          "time": 72.467553,
          "velocity": 0.8031496062992126
        },
        {
          "duration": 0.3896104999999892,
          "durationTicks": 48,
          "midi": 82,
          "name": "A#5",
          "ticks": 8976,
          "time": 72.8571635,
          "velocity": 0.8031496062992126
        },
        {
          "duration": 0.3896105000000034,
          "durationTicks": 48,
          "midi": 89,
          "name": "F6",
          "ticks": 9024,
          "time": 73.24677399999999,
          "velocity": 0.8031496062992126
        },
        {
          "duration": 0.3896105000000034,
          "durationTicks": 48,
          "midi": 89,
          "name": "F6",
          "ticks": 9312,
          "time": 75.584437,
          "velocity": 0.8031496062992126
        },
        {
          "duration": 0.3896105000000034,
          "durationTicks": 48,
          "midi": 82,
          "name": "A#5",
          "ticks": 9360,
          "time": 75.9740475,
          "velocity": 0.8031496062992126
        },
        {
          "duration": 0.3896104999999892,
          "durationTicks": 48,
          "midi": 85,
          "name": "C#6",
          "ticks": 9408,
          "time": 76.363658,
          "velocity": 0.8031496062992126
        },
        {
          "duration": 0.3896105000000034,
          "durationTicks": 48,
          "midi": 80,
          "name": "G#5",
          "ticks": 9696,
          "time": 78.701321,
          "velocity": 0.8031496062992126
        },
        {
          "duration": 0.3896105000000034,
          "durationTicks": 48,
          "midi": 82,
          "name": "A#5",
          "ticks": 9744,
          "time": 79.0909315,
          "velocity": 0.8031496062992126
        },
        {
          "duration": 0.3896104999999892,
          "durationTicks": 48,
          "midi": 89,
          "name": "F6",
          "ticks": 9792,
          "time": 79.480542,
          "velocity": 0.8031496062992126
        },
        {
          "duration": 0.3896105000000034,
          "durationTicks": 48,
          "midi": 89,
          "name": "F6",
          "ticks": 10080,
          "time": 81.81820499999999,
          "velocity": 0.8031496062992126
        },
        {
          "duration": 0.3896105000000034,
          "durationTicks": 48,
          "midi": 82,
          "name": "A#5",
          "ticks": 10128,
          "time": 82.2078155,
          "velocity": 0.8031496062992126
        },
        {
          "duration": 0.3896104999999892,
          "durationTicks": 48,
          "midi": 85,
          "name": "C#6",
          "ticks": 10176,
          "time": 82.597426,
          "velocity": 0.8031496062992126
        },
        {
          "duration": 0.3896105000000034,
          "durationTicks": 48,
          "midi": 80,
          "name": "G#5",
          "ticks": 10464,
          "time": 84.93508899999999,
          "velocity": 0.8031496062992126
        },
        {
          "duration": 0.3896105000000034,
          "durationTicks": 48,
          "midi": 82,
          "name": "A#5",
          "ticks": 10512,
          "time": 85.3246995,
          "velocity": 0.8031496062992126
        },
        {
          "duration": 0.3896104999999892,
          "durationTicks": 48,
          "midi": 89,
          "name": "F6",
          "ticks": 10560,
          "time": 85.71431,
          "velocity": 0.8031496062992126
        },
        {
          "duration": 0.3896105000000034,
          "durationTicks": 48,
          "midi": 89,
          "name": "F6",
          "ticks": 10848,
          "time": 88.05197299999999,
          "velocity": 0.8031496062992126
        },
        {
          "duration": 0.3896105000000034,
          "durationTicks": 48,
          "midi": 82,
          "name": "A#5",
          "ticks": 10896,
          "time": 88.4415835,
          "velocity": 0.8031496062992126
        },
        {
          "duration": 0.3896105000000034,
          "durationTicks": 48,
          "midi": 85,
          "name": "C#6",
          "ticks": 10944,
          "time": 88.831194,
          "velocity": 0.8031496062992126
        },
        {
          "duration": 0.3896105000000034,
          "durationTicks": 48,
          "midi": 80,
          "name": "G#5",
          "ticks": 11232,
          "time": 91.16885699999999,
          "velocity": 0.8031496062992126
        },
        {
          "duration": 0.3896105000000034,
          "durationTicks": 48,
          "midi": 82,
          "name": "A#5",
          "ticks": 11280,
          "time": 91.55846749999999,
          "velocity": 0.8031496062992126
        },
        {
          "duration": 0.3896105000000034,
          "durationTicks": 48,
          "midi": 89,
          "name": "F6",
          "ticks": 11328,
          "time": 91.948078,
          "velocity": 0.8031496062992126
        },
        {
          "duration": 0.3896105000000034,
          "durationTicks": 48,
          "midi": 80,
          "name": "G#5",
          "ticks": 11616,
          "time": 94.28574099999999,
          "velocity": 0.8031496062992126
        },
        {
          "duration": 0.3896105000000034,
          "durationTicks": 48,
          "midi": 82,
          "name": "A#5",
          "ticks": 11664,
          "time": 94.67535149999999,
          "velocity": 0.8031496062992126
        },
        {
          "duration": 0.3896105000000034,
          "durationTicks": 48,
          "midi": 85,
          "name": "C#6",
          "ticks": 11712,
          "time": 95.064962,
          "velocity": 0.8031496062992126
        },
        {
          "duration": 0.3896105000000034,
          "durationTicks": 48,
          "midi": 80,
          "name": "G#5",
          "ticks": 12000,
          "time": 97.40262499999999,
          "velocity": 0.8031496062992126
        },
        {
          "duration": 0.3896105000000034,
          "durationTicks": 48,
          "midi": 82,
          "name": "A#5",
          "ticks": 12048,
          "time": 97.79223549999999,
          "velocity": 0.8031496062992126
        },
        {
          "duration": 0.3896105000000034,
          "durationTicks": 48,
          "midi": 89,
          "name": "F6",
          "ticks": 12096,
          "time": 98.181846,
          "velocity": 0.8031496062992126
        },
        {
          "duration": 0.3896104999999892,
          "durationTicks": 48,
          "midi": 89,
          "name": "F6",
          "ticks": 12384,
          "time": 100.519509,
          "velocity": 0.8031496062992126
        },
        {
          "duration": 0.3896105000000034,
          "durationTicks": 48,
          "midi": 82,
          "name": "A#5",
          "ticks": 12432,
          "time": 100.90911949999999,
          "velocity": 0.8031496062992126
        },
        {
          "duration": 0.3896105000000034,
          "durationTicks": 48,
          "midi": 85,
          "name": "C#6",
          "ticks": 12480,
          "time": 101.29872999999999,
          "velocity": 0.8031496062992126
        },
        {
          "duration": 0.3896104999999892,
          "durationTicks": 48,
          "midi": 80,
          "name": "G#5",
          "ticks": 12768,
          "time": 103.636393,
          "velocity": 0.8031496062992126
        },
        {
          "duration": 0.3896105000000034,
          "durationTicks": 48,
          "midi": 82,
          "name": "A#5",
          "ticks": 12816,
          "time": 104.02600349999999,
          "velocity": 0.8031496062992126
        },
        {
          "duration": 0.3896105000000034,
          "durationTicks": 48,
          "midi": 85,
          "name": "C#6",
          "ticks": 12864,
          "time": 104.41561399999999,
          "velocity": 0.8031496062992126
        },
        {
          "duration": 0.3896105000000034,
          "durationTicks": 48,
          "midi": 82,
          "name": "A#5",
          "ticks": 13104,
          "time": 106.3636665,
          "velocity": 0.49606299212598426
        },
        {
          "duration": 0.3896105000000034,
          "durationTicks": 48,
          "midi": 82,
          "name": "A#5",
          "ticks": 13248,
          "time": 107.53249799999999,
          "velocity": 0.49606299212598426
        },
        {
          "duration": 0.3896105000000034,
          "durationTicks": 48,
          "midi": 82,
          "name": "A#5",
          "ticks": 13296,
          "time": 107.9221085,
          "velocity": 0.49606299212598426
        },
        {
          "duration": 0.3896104999999892,
          "durationTicks": 48,
          "midi": 80,
          "name": "G#5",
          "ticks": 13344,
          "time": 108.311719,
          "velocity": 0.49606299212598426
        },
        {
          "duration": 0.3896105000000034,
          "durationTicks": 48,
          "midi": 80,
          "name": "G#5",
          "ticks": 13392,
          "time": 108.70132949999999,
          "velocity": 0.49606299212598426
        },
        {
          "duration": 0.3896105000000034,
          "durationTicks": 48,
          "midi": 78,
          "name": "F#5",
          "ticks": 13440,
          "time": 109.09093999999999,
          "velocity": 0.49606299212598426
        },
        {
          "duration": 0.3896105000000034,
          "durationTicks": 48,
          "midi": 80,
          "name": "G#5",
          "ticks": 13488,
          "time": 109.48055049999999,
          "velocity": 0.49606299212598426
        },
        {
          "duration": 0.3896104999999892,
          "durationTicks": 48,
          "midi": 80,
          "name": "G#5",
          "ticks": 13536,
          "time": 109.870161,
          "velocity": 0.8031496062992126
        },
        {
          "duration": 0.3896105000000034,
          "durationTicks": 48,
          "midi": 82,
          "name": "A#5",
          "ticks": 13584,
          "time": 110.25977149999999,
          "velocity": 0.8031496062992126
        },
        {
          "duration": 0.3896105000000034,
          "durationTicks": 48,
          "midi": 89,
          "name": "F6",
          "ticks": 13632,
          "time": 110.64938199999999,
          "velocity": 0.8031496062992126
        },
        {
          "duration": 0.3896105000000034,
          "durationTicks": 48,
          "midi": 89,
          "name": "F6",
          "ticks": 13920,
          "time": 112.987045,
          "velocity": 0.8031496062992126
        },
        {
          "duration": 0.3896104999999892,
          "durationTicks": 48,
          "midi": 82,
          "name": "A#5",
          "ticks": 13968,
          "time": 113.3766555,
          "velocity": 0.8031496062992126
        },
        {
          "duration": 0.3896105000000034,
          "durationTicks": 48,
          "midi": 85,
          "name": "C#6",
          "ticks": 14016,
          "time": 113.76626599999999,
          "velocity": 0.8031496062992126
        },
        {
          "duration": 0.3896105000000034,
          "durationTicks": 48,
          "midi": 86,
          "name": "D6",
          "ticks": 14064,
          "time": 114.15587649999999,
          "velocity": 0.8031496062992126
        },
        {
          "duration": 0.3896105000000034,
          "durationTicks": 48,
          "midi": 80,
          "name": "G#5",
          "ticks": 14256,
          "time": 115.71431849999999,
          "velocity": 0.49606299212598426
        },
        {
          "duration": 0.3896105000000034,
          "durationTicks": 48,
          "midi": 80,
          "name": "G#5",
          "ticks": 14304,
          "time": 116.103929,
          "velocity": 0.8031496062992126
        },
        {
          "duration": 0.3896104999999892,
          "durationTicks": 48,
          "midi": 82,
          "name": "A#5",
          "ticks": 14352,
          "time": 116.4935395,
          "velocity": 0.8031496062992126
        },
        {
          "duration": 0.3896105000000034,
          "durationTicks": 48,
          "midi": 89,
          "name": "F6",
          "ticks": 14400,
          "time": 116.88314999999999,
          "velocity": 0.8031496062992126
        },
        {
          "duration": 0.3896105000000034,
          "durationTicks": 48,
          "midi": 89,
          "name": "F6",
          "ticks": 14688,
          "time": 119.22081299999999,
          "velocity": 0.8031496062992126
        },
        {
          "duration": 0.3896104999999892,
          "durationTicks": 48,
          "midi": 82,
          "name": "A#5",
          "ticks": 14736,
          "time": 119.6104235,
          "velocity": 0.8031496062992126
        },
        {
          "duration": 0.3896105000000034,
          "durationTicks": 48,
          "midi": 85,
          "name": "C#6",
          "ticks": 14784,
          "time": 120.00003399999999,
          "velocity": 0.8031496062992126
        },
        {
          "duration": 0.3896105000000034,
          "durationTicks": 48,
          "midi": 86,
          "name": "D6",
          "ticks": 14832,
          "time": 120.38964449999999,
          "velocity": 0.8031496062992126
        },
        {
          "duration": 0.3896105000000034,
          "durationTicks": 48,
          "midi": 89,
          "name": "F6",
          "ticks": 15216,
          "time": 123.50652849999999,
          "velocity": 0.6299212598425197
        },
        {
          "duration": 0.3896105000000034,
          "durationTicks": 48,
          "midi": 78,
          "name": "F#5",
          "ticks": 15264,
          "time": 123.89613899999999,
          "velocity": 0.6299212598425197
        },
        {
          "duration": 0.3896104999999892,
          "durationTicks": 48,
          "midi": 85,
          "name": "C#6",
          "ticks": 15312,
          "time": 124.2857495,
          "velocity": 0.6299212598425197
        },
        {
          "duration": 0.3896105000000034,
          "durationTicks": 48,
          "midi": 78,
          "name": "F#5",
          "ticks": 15360,
          "time": 124.67535999999998,
          "velocity": 0.6299212598425197
        },
        {
          "duration": 0.3896105000000034,
          "durationTicks": 48,
          "midi": 89,
          "name": "F6",
          "ticks": 15408,
          "time": 125.06497049999999,
          "velocity": 0.6299212598425197
        },
        {
          "duration": 0.3896105000000034,
          "durationTicks": 48,
          "midi": 80,
          "name": "G#5",
          "ticks": 15456,
          "time": 125.45458099999999,
          "velocity": 0.6299212598425197
        },
        {
          "duration": 0.3896105000000034,
          "durationTicks": 48,
          "midi": 84,
          "name": "C6",
          "ticks": 15504,
          "time": 125.8441915,
          "velocity": 0.6299212598425197
        },
        {
          "duration": 0.3896104999999892,
          "durationTicks": 48,
          "midi": 80,
          "name": "G#5",
          "ticks": 15552,
          "time": 126.233802,
          "velocity": 0.6299212598425197
        },
        {
          "duration": 0.3896105000000034,
          "durationTicks": 48,
          "midi": 87,
          "name": "D#6",
          "ticks": 15600,
          "time": 126.62341249999999,
          "velocity": 0.6299212598425197
        },
        {
          "duration": 0.3896105000000034,
          "durationTicks": 48,
          "midi": 80,
          "name": "G#5",
          "ticks": 15648,
          "time": 127.01302299999999,
          "velocity": 0.6299212598425197
        },
        {
          "duration": 0.3896105000000034,
          "durationTicks": 48,
          "midi": 84,
          "name": "C6",
          "ticks": 15696,
          "time": 127.4026335,
          "velocity": 0.6299212598425197
        },
        {
          "duration": 0.3896104999999892,
          "durationTicks": 48,
          "midi": 80,
          "name": "G#5",
          "ticks": 15744,
          "time": 127.792244,
          "velocity": 0.6299212598425197
        },
        {
          "duration": 0.3896105000000034,
          "durationTicks": 48,
          "midi": 87,
          "name": "D#6",
          "ticks": 15792,
          "time": 128.1818545,
          "velocity": 0.6299212598425197
        },
        {
          "duration": 0.3896105000000034,
          "durationTicks": 48,
          "midi": 80,
          "name": "G#5",
          "ticks": 15840,
          "time": 128.571465,
          "velocity": 0.6299212598425197
        },
        {
          "duration": 0.3896105000000034,
          "durationTicks": 48,
          "midi": 82,
          "name": "A#5",
          "ticks": 15888,
          "time": 128.9610755,
          "velocity": 0.6299212598425197
        },
        {
          "duration": 0.3896105000000034,
          "durationTicks": 48,
          "midi": 80,
          "name": "G#5",
          "ticks": 15936,
          "time": 129.350686,
          "velocity": 0.6299212598425197
        },
        {
          "duration": 0.3896105000000034,
          "durationTicks": 48,
          "midi": 87,
          "name": "D#6",
          "ticks": 15984,
          "time": 129.7402965,
          "velocity": 0.6299212598425197
        },
        {
          "duration": 0.389610499999975,
          "durationTicks": 48,
          "midi": 78,
          "name": "F#5",
          "ticks": 16032,
          "time": 130.129907,
          "velocity": 0.6299212598425197
        },
        {
          "duration": 0.3896105000000034,
          "durationTicks": 48,
          "midi": 85,
          "name": "C#6",
          "ticks": 16080,
          "time": 130.51951749999998,
          "velocity": 0.6299212598425197
        },
        {
          "duration": 0.3896105000000034,
          "durationTicks": 48,
          "midi": 78,
          "name": "F#5",
          "ticks": 16128,
          "time": 130.90912799999998,
          "velocity": 0.6299212598425197
        },
        {
          "duration": 0.3896105000000034,
          "durationTicks": 48,
          "midi": 85,
          "name": "C#6",
          "ticks": 16176,
          "time": 131.29873849999998,
          "velocity": 0.6299212598425197
        },
        {
          "duration": 0.3896105000000034,
          "durationTicks": 48,
          "midi": 78,
          "name": "F#5",
          "ticks": 16224,
          "time": 131.688349,
          "velocity": 0.6299212598425197
        },
        {
          "duration": 0.3896105000000034,
          "durationTicks": 48,
          "midi": 81,
          "name": "A5",
          "ticks": 16272,
          "time": 132.0779595,
          "velocity": 0.6299212598425197
        },
        {
          "duration": 0.3896105000000034,
          "durationTicks": 48,
          "midi": 85,
          "name": "C#6",
          "ticks": 16320,
          "time": 132.46757,
          "velocity": 0.6299212598425197
        },
        {
          "duration": 0.3896105000000034,
          "durationTicks": 48,
          "midi": 89,
          "name": "F6",
          "ticks": 16368,
          "time": 132.8571805,
          "velocity": 0.6299212598425197
        },
        {
          "duration": 0.389610499999975,
          "durationTicks": 48,
          "midi": 80,
          "name": "G#5",
          "ticks": 16416,
          "time": 133.246791,
          "velocity": 0.6299212598425197
        },
        {
          "duration": 0.3896105000000034,
          "durationTicks": 48,
          "midi": 84,
          "name": "C6",
          "ticks": 16464,
          "time": 133.63640149999998,
          "velocity": 0.6299212598425197
        },
        {
          "duration": 0.3896105000000034,
          "durationTicks": 48,
          "midi": 80,
          "name": "G#5",
          "ticks": 16512,
          "time": 134.02601199999998,
          "velocity": 0.6299212598425197
        },
        {
          "duration": 0.3896105000000034,
          "durationTicks": 48,
          "midi": 89,
          "name": "F6",
          "ticks": 16560,
          "time": 134.41562249999998,
          "velocity": 0.6299212598425197
        },
        {
          "duration": 0.3896105000000034,
          "durationTicks": 48,
          "midi": 80,
          "name": "G#5",
          "ticks": 16608,
          "time": 134.805233,
          "velocity": 0.6299212598425197
        },
        {
          "duration": 0.3896105000000034,
          "durationTicks": 48,
          "midi": 84,
          "name": "C6",
          "ticks": 16656,
          "time": 135.1948435,
          "velocity": 0.6299212598425197
        },
        {
          "duration": 0.3896105000000034,
          "durationTicks": 48,
          "midi": 80,
          "name": "G#5",
          "ticks": 16704,
          "time": 135.584454,
          "velocity": 0.6299212598425197
        },
        {
          "duration": 0.3896105000000034,
          "durationTicks": 48,
          "midi": 89,
          "name": "F6",
          "ticks": 16752,
          "time": 135.9740645,
          "velocity": 0.6299212598425197
        },
        {
          "duration": 0.389610499999975,
          "durationTicks": 48,
          "midi": 78,
          "name": "F#5",
          "ticks": 16800,
          "time": 136.363675,
          "velocity": 0.6299212598425197
        },
        {
          "duration": 0.3896105000000034,
          "durationTicks": 48,
          "midi": 85,
          "name": "C#6",
          "ticks": 16848,
          "time": 136.75328549999998,
          "velocity": 0.6299212598425197
        },
        {
          "duration": 0.3896105000000034,
          "durationTicks": 48,
          "midi": 78,
          "name": "F#5",
          "ticks": 16896,
          "time": 137.14289599999998,
          "velocity": 0.6299212598425197
        },
        {
          "duration": 0.3896105000000034,
          "durationTicks": 48,
          "midi": 89,
          "name": "F6",
          "ticks": 16944,
          "time": 137.53250649999998,
          "velocity": 0.6299212598425197
        },
        {
          "duration": 0.3896105000000034,
          "durationTicks": 48,
          "midi": 80,
          "name": "G#5",
          "ticks": 16992,
          "time": 137.922117,
          "velocity": 0.6299212598425197
        },
        {
          "duration": 0.3896105000000034,
          "durationTicks": 48,
          "midi": 84,
          "name": "C6",
          "ticks": 17040,
          "time": 138.3117275,
          "velocity": 0.6299212598425197
        },
        {
          "duration": 0.3896105000000034,
          "durationTicks": 48,
          "midi": 80,
          "name": "G#5",
          "ticks": 17088,
          "time": 138.701338,
          "velocity": 0.6299212598425197
        },
        {
          "duration": 0.3896105000000034,
          "durationTicks": 48,
          "midi": 87,
          "name": "D#6",
          "ticks": 17136,
          "time": 139.0909485,
          "velocity": 0.6299212598425197
        },
        {
          "duration": 0.3896105000000034,
          "durationTicks": 48,
          "midi": 80,
          "name": "G#5",
          "ticks": 17184,
          "time": 139.480559,
          "velocity": 0.6299212598425197
        },
        {
          "duration": 0.389610499999975,
          "durationTicks": 48,
          "midi": 84,
          "name": "C6",
          "ticks": 17232,
          "time": 139.8701695,
          "velocity": 0.6299212598425197
        },
        {
          "duration": 0.3896105000000034,
          "durationTicks": 48,
          "midi": 80,
          "name": "G#5",
          "ticks": 17280,
          "time": 140.25977999999998,
          "velocity": 0.6299212598425197
        },
        {
          "duration": 0.3896105000000034,
          "durationTicks": 48,
          "midi": 87,
          "name": "D#6",
          "ticks": 17328,
          "time": 140.64939049999998,
          "velocity": 0.6299212598425197
        },
        {
          "duration": 0.3896105000000034,
          "durationTicks": 48,
          "midi": 80,
          "name": "G#5",
          "ticks": 17376,
          "time": 141.03900099999998,
          "velocity": 0.6299212598425197
        },
        {
          "duration": 0.3896105000000034,
          "durationTicks": 48,
          "midi": 82,
          "name": "A#5",
          "ticks": 17424,
          "time": 141.4286115,
          "velocity": 0.6299212598425197
        },
        {
          "duration": 0.3896105000000034,
          "durationTicks": 48,
          "midi": 80,
          "name": "G#5",
          "ticks": 17472,
          "time": 141.818222,
          "velocity": 0.6299212598425197
        },
        {
          "duration": 0.3896105000000034,
          "durationTicks": 48,
          "midi": 87,
          "name": "D#6",
          "ticks": 17520,
          "time": 142.2078325,
          "velocity": 0.6299212598425197
        },
        {
          "duration": 0.3896105000000034,
          "durationTicks": 48,
          "midi": 78,
          "name": "F#5",
          "ticks": 17568,
          "time": 142.597443,
          "velocity": 0.6299212598425197
        },
        {
          "duration": 0.389610499999975,
          "durationTicks": 48,
          "midi": 82,
          "name": "A#5",
          "ticks": 17616,
          "time": 142.9870535,
          "velocity": 0.6299212598425197
        },
        {
          "duration": 0.3896105000000034,
          "durationTicks": 48,
          "midi": 78,
          "name": "F#5",
          "ticks": 17664,
          "time": 143.37666399999998,
          "velocity": 0.6299212598425197
        },
        {
          "duration": 0.3896105000000034,
          "durationTicks": 48,
          "midi": 87,
          "name": "D#6",
          "ticks": 17712,
          "time": 143.76627449999998,
          "velocity": 0.6299212598425197
        },
        {
          "duration": 0.3896105000000034,
          "durationTicks": 48,
          "midi": 78,
          "name": "F#5",
          "ticks": 17760,
          "time": 144.15588499999998,
          "velocity": 0.6299212598425197
        },
        {
          "duration": 0.3896105000000034,
          "durationTicks": 48,
          "midi": 82,
          "name": "A#5",
          "ticks": 17808,
          "time": 144.5454955,
          "velocity": 0.6299212598425197
        },
        {
          "duration": 0.3896105000000034,
          "durationTicks": 48,
          "midi": 78,
          "name": "F#5",
          "ticks": 17856,
          "time": 144.935106,
          "velocity": 0.6299212598425197
        },
        {
          "duration": 0.3896105000000034,
          "durationTicks": 48,
          "midi": 89,
          "name": "F6",
          "ticks": 17904,
          "time": 145.3247165,
          "velocity": 0.6299212598425197
        },
        {
          "duration": 0.3896105000000034,
          "durationTicks": 48,
          "midi": 80,
          "name": "G#5",
          "ticks": 17952,
          "time": 145.714327,
          "velocity": 0.6299212598425197
        },
        {
          "duration": 0.389610499999975,
          "durationTicks": 48,
          "midi": 84,
          "name": "C6",
          "ticks": 18000,
          "time": 146.1039375,
          "velocity": 0.6299212598425197
        },
        {
          "duration": 0.3896105000000034,
          "durationTicks": 48,
          "midi": 80,
          "name": "G#5",
          "ticks": 18048,
          "time": 146.49354799999998,
          "velocity": 0.6299212598425197
        },
        {
          "duration": 0.3896105000000034,
          "durationTicks": 48,
          "midi": 87,
          "name": "D#6",
          "ticks": 18096,
          "time": 146.88315849999998,
          "velocity": 0.6299212598425197
        },
        {
          "duration": 0.3896105000000034,
          "durationTicks": 48,
          "midi": 80,
          "name": "G#5",
          "ticks": 18144,
          "time": 147.27276899999998,
          "velocity": 0.6299212598425197
        },
        {
          "duration": 0.3896105000000034,
          "durationTicks": 48,
          "midi": 84,
          "name": "C6",
          "ticks": 18192,
          "time": 147.6623795,
          "velocity": 0.6299212598425197
        },
        {
          "duration": 0.3896105000000034,
          "durationTicks": 48,
          "midi": 80,
          "name": "G#5",
          "ticks": 18240,
          "time": 148.05199,
          "velocity": 0.6299212598425197
        },
        {
          "duration": 0.3896105000000034,
          "durationTicks": 48,
          "midi": 80,
          "name": "G#5",
          "ticks": 18336,
          "time": 148.831211,
          "velocity": 0.8031496062992126
        },
        {
          "duration": 0.3896105000000034,
          "durationTicks": 48,
          "midi": 82,
          "name": "A#5",
          "ticks": 18384,
          "time": 149.2208215,
          "velocity": 0.8031496062992126
        },
        {
          "duration": 0.389610499999975,
          "durationTicks": 48,
          "midi": 89,
          "name": "F6",
          "ticks": 18432,
          "time": 149.610432,
          "velocity": 0.8031496062992126
        },
        {
          "duration": 0.3896105000000034,
          "durationTicks": 48,
          "midi": 89,
          "name": "F6",
          "ticks": 18720,
          "time": 151.948095,
          "velocity": 0.8031496062992126
        },
        {
          "duration": 0.3896105000000034,
          "durationTicks": 48,
          "midi": 82,
          "name": "A#5",
          "ticks": 18768,
          "time": 152.3377055,
          "velocity": 0.8031496062992126
        },
        {
          "duration": 0.389610499999975,
          "durationTicks": 48,
          "midi": 85,
          "name": "C#6",
          "ticks": 18816,
          "time": 152.727316,
          "velocity": 0.8031496062992126
        },
        {
          "duration": 0.3896105000000034,
          "durationTicks": 48,
          "midi": 80,
          "name": "G#5",
          "ticks": 19104,
          "time": 155.064979,
          "velocity": 0.8031496062992126
        },
        {
          "duration": 0.3896105000000034,
          "durationTicks": 48,
          "midi": 82,
          "name": "A#5",
          "ticks": 19152,
          "time": 155.4545895,
          "velocity": 0.8031496062992126
        },
        {
          "duration": 0.389610499999975,
          "durationTicks": 48,
          "midi": 89,
          "name": "F6",
          "ticks": 19200,
          "time": 155.8442,
          "velocity": 0.8031496062992126
        },
        {
          "duration": 0.3896105000000034,
          "durationTicks": 48,
          "midi": 89,
          "name": "F6",
          "ticks": 19488,
          "time": 158.181863,
          "velocity": 0.8031496062992126
        },
        {
          "duration": 0.3896105000000034,
          "durationTicks": 48,
          "midi": 82,
          "name": "A#5",
          "ticks": 19536,
          "time": 158.5714735,
          "velocity": 0.8031496062992126
        },
        {
          "duration": 0.389610499999975,
          "durationTicks": 48,
          "midi": 85,
          "name": "C#6",
          "ticks": 19584,
          "time": 158.961084,
          "velocity": 0.8031496062992126
        }
      ]
    },
    {
      "channel": 0,
      "controlChanges": {
        "0": [
          {
            "number": 0,
            "ticks": 0,
            "time": 0,
            "value": 0.06299212598425197
          }
        ],
        "32": [
          {
            "number": 32,
            "ticks": 0,
            "time": 0,
            "value": 0.015748031496062992
          }
        ]
      },
      "pitchBends": [],
      "instrument": {
        "family": "piano",
        "number": 0,
        "name": "acoustic grand piano"
      },
      "name": "",
      "notes": [],
      "endOfTrackTicks": 13872
    },
    {
      "channel": 4,
      "controlChanges": {
        "6": [
          {
            "number": 6,
            "ticks": 4,
            "time": 0.03246754166666666,
            "value": 0.6141732283464567
          },
          {
            "number": 6,
            "ticks": 7,
            "time": 0.05681819791666667,
            "value": 0.5039370078740157
          },
          {
            "number": 6,
            "ticks": 10,
            "time": 0.08116885416666667,
            "value": 0.4094488188976378
          },
          {
            "number": 6,
            "ticks": 13,
            "time": 0.10551951041666666,
            "value": 0.4881889763779528
          }
        ],
        "7": [
          {
            "number": 7,
            "ticks": 0,
            "time": 0,
            "value": 1
          }
        ],
        "10": [
          {
            "number": 10,
            "ticks": 0,
            "time": 0,
            "value": 0.3464566929133858
          }
        ],
        "11": [
          {
            "number": 11,
            "ticks": 2682,
            "time": 21.7694866875,
            "value": 0.984251968503937
          },
          {
            "number": 11,
            "ticks": 2684,
            "time": 21.78572045833333,
            "value": 0.9763779527559056
          },
          {
            "number": 11,
            "ticks": 2688,
            "time": 21.818188,
            "value": 0.9606299212598425
          },
          {
            "number": 11,
            "ticks": 2690,
            "time": 21.83442177083333,
            "value": 0.9448818897637795
          },
          {
            "number": 11,
            "ticks": 2692,
            "time": 21.850655541666665,
            "value": 0.937007874015748
          },
          {
            "number": 11,
            "ticks": 2696,
            "time": 21.88312308333333,
            "value": 0.9212598425196851
          },
          {
            "number": 11,
            "ticks": 2698,
            "time": 21.899356854166665,
            "value": 0.905511811023622
          },
          {
            "number": 11,
            "ticks": 2700,
            "time": 21.915590625,
            "value": 0.889763779527559
          },
          {
            "number": 11,
            "ticks": 2704,
            "time": 21.948058166666666,
            "value": 0.8818897637795275
          },
          {
            "number": 11,
            "ticks": 2706,
            "time": 21.964291937499997,
            "value": 0.8661417322834646
          },
          {
            "number": 11,
            "ticks": 2708,
            "time": 21.98052570833333,
            "value": 0.8503937007874016
          },
          {
            "number": 11,
            "ticks": 2712,
            "time": 22.012993249999997,
            "value": 0.84251968503937
          },
          {
            "number": 11,
            "ticks": 2714,
            "time": 22.029227020833332,
            "value": 0.8267716535433071
          },
          {
            "number": 11,
            "ticks": 2716,
            "time": 22.045460791666667,
            "value": 0.8110236220472441
          },
          {
            "number": 11,
            "ticks": 2720,
            "time": 22.077928333333332,
            "value": 0.7952755905511811
          },
          {
            "number": 11,
            "ticks": 2722,
            "time": 22.094162104166667,
            "value": 0.7874015748031497
          },
          {
            "number": 11,
            "ticks": 2724,
            "time": 22.110395875,
            "value": 0.7716535433070866
          },
          {
            "number": 11,
            "ticks": 2728,
            "time": 22.142863416666668,
            "value": 0.7559055118110236
          },
          {
            "number": 11,
            "ticks": 2730,
            "time": 22.1590971875,
            "value": 0.7401574803149606
          },
          {
            "number": 11,
            "ticks": 2732,
            "time": 22.17533095833333,
            "value": 0.7322834645669292
          },
          {
            "number": 11,
            "ticks": 2736,
            "time": 22.2077985,
            "value": 0.7165354330708661
          },
          {
            "number": 11,
            "ticks": 2738,
            "time": 22.22403227083333,
            "value": 0.7007874015748031
          },
          {
            "number": 11,
            "ticks": 2740,
            "time": 22.240266041666665,
            "value": 0.6929133858267716
          },
          {
            "number": 11,
            "ticks": 2744,
            "time": 22.27273358333333,
            "value": 0.6771653543307087
          },
          {
            "number": 11,
            "ticks": 2746,
            "time": 22.288967354166665,
            "value": 0.6614173228346457
          },
          {
            "number": 11,
            "ticks": 2748,
            "time": 22.305201125,
            "value": 0.6456692913385826
          },
          {
            "number": 11,
            "ticks": 2752,
            "time": 22.337668666666666,
            "value": 0.6377952755905512
          },
          {
            "number": 11,
            "ticks": 2754,
            "time": 22.353902437499997,
            "value": 0.6220472440944882
          },
          {
            "number": 11,
            "ticks": 2756,
            "time": 22.37013620833333,
            "value": 0.6062992125984252
          },
          {
            "number": 11,
            "ticks": 2760,
            "time": 22.402603749999997,
            "value": 0.5984251968503937
          },
          {
            "number": 11,
            "ticks": 2762,
            "time": 22.418837520833332,
            "value": 0.5826771653543307
          },
          {
            "number": 11,
            "ticks": 2764,
            "time": 22.435071291666667,
            "value": 0.5669291338582677
          },
          {
            "number": 11,
            "ticks": 2768,
            "time": 22.467538833333332,
            "value": 0.5511811023622047
          },
          {
            "number": 11,
            "ticks": 2770,
            "time": 22.483772604166667,
            "value": 0.5433070866141733
          },
          {
            "number": 11,
            "ticks": 2772,
            "time": 22.500006374999998,
            "value": 0.5275590551181102
          },
          {
            "number": 11,
            "ticks": 2780,
            "time": 22.56494145833333,
            "value": 1
          },
          {
            "number": 11,
            "ticks": 4212,
            "time": 34.188321374999994,
            "value": 1
          },
          {
            "number": 11,
            "ticks": 4216,
            "time": 34.22078891666666,
            "value": 0.9921259842519685
          },
          {
            "number": 11,
            "ticks": 4218,
            "time": 34.237022687499994,
            "value": 0.9763779527559056
          },
          {
            "number": 11,
            "ticks": 4220,
            "time": 34.25325645833333,
            "value": 0.9606299212598425
          },
          {
            "number": 11,
            "ticks": 4224,
            "time": 34.285723999999995,
            "value": 0.952755905511811
          },
          {
            "number": 11,
            "ticks": 4226,
            "time": 34.30195777083333,
            "value": 0.937007874015748
          },
          {
            "number": 11,
            "ticks": 4228,
            "time": 34.318191541666664,
            "value": 0.9212598425196851
          },
          {
            "number": 11,
            "ticks": 4232,
            "time": 34.35065908333333,
            "value": 0.9133858267716536
          },
          {
            "number": 11,
            "ticks": 4234,
            "time": 34.366892854166665,
            "value": 0.8976377952755905
          },
          {
            "number": 11,
            "ticks": 4236,
            "time": 34.383126624999996,
            "value": 0.8818897637795275
          },
          {
            "number": 11,
            "ticks": 4240,
            "time": 34.415594166666665,
            "value": 0.8740157480314961
          },
          {
            "number": 11,
            "ticks": 4242,
            "time": 34.431827937499996,
            "value": 0.8582677165354331
          },
          {
            "number": 11,
            "ticks": 4244,
            "time": 34.448061708333334,
            "value": 0.84251968503937
          },
          {
            "number": 11,
            "ticks": 4248,
            "time": 34.48052925,
            "value": 0.8267716535433071
          },
          {
            "number": 11,
            "ticks": 4250,
            "time": 34.496763020833335,
            "value": 0.8188976377952756
          },
          {
            "number": 11,
            "ticks": 4252,
            "time": 34.51299679166666,
            "value": 0.8031496062992126
          },
          {
            "number": 11,
            "ticks": 4256,
            "time": 34.545464333333335,
            "value": 0.7874015748031497
          },
          {
            "number": 11,
            "ticks": 4258,
            "time": 34.56169810416666,
            "value": 0.7795275590551181
          },
          {
            "number": 11,
            "ticks": 4260,
            "time": 34.577931875,
            "value": 0.7637795275590551
          },
          {
            "number": 11,
            "ticks": 4264,
            "time": 34.61039941666666,
            "value": 0.7480314960629921
          },
          {
            "number": 11,
            "ticks": 4266,
            "time": 34.6266331875,
            "value": 0.7401574803149606
          },
          {
            "number": 11,
            "ticks": 4268,
            "time": 34.642866958333336,
            "value": 0.7244094488188977
          },
          {
            "number": 11,
            "ticks": 4272,
            "time": 34.6753345,
            "value": 0.7086614173228346
          },
          {
            "number": 11,
            "ticks": 4274,
            "time": 34.69156827083333,
            "value": 0.7007874015748031
          },
          {
            "number": 11,
            "ticks": 4276,
            "time": 34.70780204166666,
            "value": 0.6850393700787402
          },
          {
            "number": 11,
            "ticks": 4280,
            "time": 34.74026958333333,
            "value": 0.6692913385826772
          },
          {
            "number": 11,
            "ticks": 4282,
            "time": 34.75650335416666,
            "value": 0.6535433070866141
          },
          {
            "number": 11,
            "ticks": 4284,
            "time": 34.772737125,
            "value": 0.6456692913385826
          },
          {
            "number": 11,
            "ticks": 4288,
            "time": 34.80520466666666,
            "value": 0.6299212598425197
          },
          {
            "number": 11,
            "ticks": 4290,
            "time": 34.8214384375,
            "value": 0.6141732283464567
          },
          {
            "number": 11,
            "ticks": 4292,
            "time": 34.83767220833333,
            "value": 0.6062992125984252
          },
          {
            "number": 11,
            "ticks": 4296,
            "time": 34.87013975,
            "value": 0.5905511811023622
          },
          {
            "number": 11,
            "ticks": 4298,
            "time": 34.88637352083333,
            "value": 0.5748031496062992
          },
          {
            "number": 11,
            "ticks": 4300,
            "time": 34.90260729166666,
            "value": 0.5669291338582677
          },
          {
            "number": 11,
            "ticks": 4304,
            "time": 34.93507483333333,
            "value": 0.5511811023622047
          },
          {
            "number": 11,
            "ticks": 4306,
            "time": 34.95130860416666,
            "value": 0.5354330708661418
          },
          {
            "number": 11,
            "ticks": 4308,
            "time": 34.967542375,
            "value": 0.5196850393700787
          },
          {
            "number": 11,
            "ticks": 4316,
            "time": 35.03247745833333,
            "value": 0.9921259842519685
          },
          {
            "number": 11,
            "ticks": 4320,
            "time": 35.064944999999994,
            "value": 1
          },
          {
            "number": 11,
            "ticks": 11130,
            "time": 90.3409346875,
            "value": 0.984251968503937
          },
          {
            "number": 11,
            "ticks": 11132,
            "time": 90.35716845833332,
            "value": 0.9763779527559056
          },
          {
            "number": 11,
            "ticks": 11136,
            "time": 90.389636,
            "value": 0.9606299212598425
          },
          {
            "number": 11,
            "ticks": 11138,
            "time": 90.40586977083332,
            "value": 0.9448818897637795
          },
          {
            "number": 11,
            "ticks": 11140,
            "time": 90.42210354166666,
            "value": 0.937007874015748
          },
          {
            "number": 11,
            "ticks": 11144,
            "time": 90.45457108333332,
            "value": 0.9212598425196851
          },
          {
            "number": 11,
            "ticks": 11146,
            "time": 90.47080485416666,
            "value": 0.905511811023622
          },
          {
            "number": 11,
            "ticks": 11148,
            "time": 90.487038625,
            "value": 0.889763779527559
          },
          {
            "number": 11,
            "ticks": 11152,
            "time": 90.51950616666666,
            "value": 0.8818897637795275
          },
          {
            "number": 11,
            "ticks": 11154,
            "time": 90.5357399375,
            "value": 0.8661417322834646
          },
          {
            "number": 11,
            "ticks": 11156,
            "time": 90.55197370833332,
            "value": 0.8503937007874016
          },
          {
            "number": 11,
            "ticks": 11160,
            "time": 90.58444125,
            "value": 0.84251968503937
          },
          {
            "number": 11,
            "ticks": 11162,
            "time": 90.60067502083332,
            "value": 0.8267716535433071
          },
          {
            "number": 11,
            "ticks": 11164,
            "time": 90.61690879166666,
            "value": 0.8110236220472441
          },
          {
            "number": 11,
            "ticks": 11168,
            "time": 90.64937633333332,
            "value": 0.7952755905511811
          },
          {
            "number": 11,
            "ticks": 11170,
            "time": 90.66561010416666,
            "value": 0.7874015748031497
          },
          {
            "number": 11,
            "ticks": 11172,
            "time": 90.681843875,
            "value": 0.7716535433070866
          },
          {
            "number": 11,
            "ticks": 11176,
            "time": 90.71431141666666,
            "value": 0.7559055118110236
          },
          {
            "number": 11,
            "ticks": 11178,
            "time": 90.7305451875,
            "value": 0.7401574803149606
          },
          {
            "number": 11,
            "ticks": 11180,
            "time": 90.74677895833332,
            "value": 0.7322834645669292
          },
          {
            "number": 11,
            "ticks": 11184,
            "time": 90.7792465,
            "value": 0.7165354330708661
          },
          {
            "number": 11,
            "ticks": 11186,
            "time": 90.79548027083332,
            "value": 0.7007874015748031
          },
          {
            "number": 11,
            "ticks": 11188,
            "time": 90.81171404166666,
            "value": 0.6929133858267716
          },
          {
            "number": 11,
            "ticks": 11192,
            "time": 90.84418158333332,
            "value": 0.6771653543307087
          },
          {
            "number": 11,
            "ticks": 11194,
            "time": 90.86041535416666,
            "value": 0.6614173228346457
          },
          {
            "number": 11,
            "ticks": 11196,
            "time": 90.876649125,
            "value": 0.6456692913385826
          },
          {
            "number": 11,
            "ticks": 11200,
            "time": 90.90911666666666,
            "value": 0.6377952755905512
          },
          {
            "number": 11,
            "ticks": 11202,
            "time": 90.92535043749999,
            "value": 0.6220472440944882
          },
          {
            "number": 11,
            "ticks": 11204,
            "time": 90.94158420833332,
            "value": 0.6062992125984252
          },
          {
            "number": 11,
            "ticks": 11208,
            "time": 90.97405174999999,
            "value": 0.5984251968503937
          },
          {
            "number": 11,
            "ticks": 11210,
            "time": 90.99028552083332,
            "value": 0.5826771653543307
          },
          {
            "number": 11,
            "ticks": 11212,
            "time": 91.00651929166666,
            "value": 0.5669291338582677
          },
          {
            "number": 11,
            "ticks": 11216,
            "time": 91.03898683333333,
            "value": 0.5511811023622047
          },
          {
            "number": 11,
            "ticks": 11218,
            "time": 91.05522060416666,
            "value": 0.5433070866141733
          },
          {
            "number": 11,
            "ticks": 11220,
            "time": 91.07145437499999,
            "value": 0.5275590551181102
          },
          {
            "number": 11,
            "ticks": 11228,
            "time": 91.13638945833333,
            "value": 1
          },
          {
            "number": 11,
            "ticks": 12660,
            "time": 102.75976937499999,
            "value": 1
          },
          {
            "number": 11,
            "ticks": 12664,
            "time": 102.79223691666665,
            "value": 0.9921259842519685
          },
          {
            "number": 11,
            "ticks": 12666,
            "time": 102.80847068749999,
            "value": 0.9763779527559056
          },
          {
            "number": 11,
            "ticks": 12668,
            "time": 102.82470445833333,
            "value": 0.9606299212598425
          },
          {
            "number": 11,
            "ticks": 12672,
            "time": 102.85717199999999,
            "value": 0.952755905511811
          },
          {
            "number": 11,
            "ticks": 12674,
            "time": 102.87340577083333,
            "value": 0.937007874015748
          },
          {
            "number": 11,
            "ticks": 12676,
            "time": 102.88963954166665,
            "value": 0.9212598425196851
          },
          {
            "number": 11,
            "ticks": 12680,
            "time": 102.92210708333333,
            "value": 0.9133858267716536
          },
          {
            "number": 11,
            "ticks": 12682,
            "time": 102.93834085416665,
            "value": 0.8976377952755905
          },
          {
            "number": 11,
            "ticks": 12684,
            "time": 102.95457462499999,
            "value": 0.8818897637795275
          },
          {
            "number": 11,
            "ticks": 12688,
            "time": 102.98704216666665,
            "value": 0.8740157480314961
          },
          {
            "number": 11,
            "ticks": 12690,
            "time": 103.00327593749999,
            "value": 0.8582677165354331
          },
          {
            "number": 11,
            "ticks": 12692,
            "time": 103.01950970833333,
            "value": 0.84251968503937
          },
          {
            "number": 11,
            "ticks": 12696,
            "time": 103.05197725,
            "value": 0.8267716535433071
          },
          {
            "number": 11,
            "ticks": 12698,
            "time": 103.06821102083333,
            "value": 0.8188976377952756
          },
          {
            "number": 11,
            "ticks": 12700,
            "time": 103.08444479166666,
            "value": 0.8031496062992126
          },
          {
            "number": 11,
            "ticks": 12704,
            "time": 103.11691233333333,
            "value": 0.7874015748031497
          },
          {
            "number": 11,
            "ticks": 12706,
            "time": 103.13314610416666,
            "value": 0.7795275590551181
          },
          {
            "number": 11,
            "ticks": 12708,
            "time": 103.149379875,
            "value": 0.7637795275590551
          },
          {
            "number": 11,
            "ticks": 12712,
            "time": 103.18184741666666,
            "value": 0.7480314960629921
          },
          {
            "number": 11,
            "ticks": 12714,
            "time": 103.1980811875,
            "value": 0.7401574803149606
          },
          {
            "number": 11,
            "ticks": 12716,
            "time": 103.21431495833333,
            "value": 0.7244094488188977
          },
          {
            "number": 11,
            "ticks": 12720,
            "time": 103.2467825,
            "value": 0.7086614173228346
          },
          {
            "number": 11,
            "ticks": 12722,
            "time": 103.26301627083333,
            "value": 0.7007874015748031
          },
          {
            "number": 11,
            "ticks": 12724,
            "time": 103.27925004166666,
            "value": 0.6850393700787402
          },
          {
            "number": 11,
            "ticks": 12728,
            "time": 103.31171758333333,
            "value": 0.6692913385826772
          },
          {
            "number": 11,
            "ticks": 12730,
            "time": 103.32795135416666,
            "value": 0.6535433070866141
          },
          {
            "number": 11,
            "ticks": 12732,
            "time": 103.344185125,
            "value": 0.6456692913385826
          },
          {
            "number": 11,
            "ticks": 12736,
            "time": 103.37665266666666,
            "value": 0.6299212598425197
          },
          {
            "number": 11,
            "ticks": 12738,
            "time": 103.3928864375,
            "value": 0.6141732283464567
          },
          {
            "number": 11,
            "ticks": 12740,
            "time": 103.40912020833333,
            "value": 0.6062992125984252
          },
          {
            "number": 11,
            "ticks": 12744,
            "time": 103.44158775,
            "value": 0.5905511811023622
          },
          {
            "number": 11,
            "ticks": 12746,
            "time": 103.45782152083333,
            "value": 0.5748031496062992
          },
          {
            "number": 11,
            "ticks": 12748,
            "time": 103.47405529166664,
            "value": 0.5669291338582677
          },
          {
            "number": 11,
            "ticks": 12752,
            "time": 103.50652283333334,
            "value": 0.5511811023622047
          },
          {
            "number": 11,
            "ticks": 12754,
            "time": 103.52275660416664,
            "value": 0.5354330708661418
          },
          {
            "number": 11,
            "ticks": 12756,
            "time": 103.538990375,
            "value": 0.5196850393700787
          },
          {
            "number": 11,
            "ticks": 12764,
            "time": 103.60392545833334,
            "value": 0.9921259842519685
          },
          {
            "number": 11,
            "ticks": 12768,
            "time": 103.636393,
            "value": 1
          }
        ],
        "91": [
          {
            "number": 91,
            "ticks": 0,
            "time": 0,
            "value": 0.3937007874015748
          }
        ],
        "94": [
          {
            "number": 94,
            "ticks": 2,
            "time": 0.01623377083333333,
            "value": 0.07874015748031496
          }
        ],
        "98": [
          {
            "number": 98,
            "ticks": 3,
            "time": 0.024350656249999998,
            "value": 0.25196850393700787
          },
          {
            "number": 98,
            "ticks": 6,
            "time": 0.048701312499999996,
            "value": 0.25984251968503935
          },
          {
            "number": 98,
            "ticks": 9,
            "time": 0.07305196875,
            "value": 0.7795275590551181
          },
          {
            "number": 98,
            "ticks": 12,
            "time": 0.09740262499999999,
            "value": 0.7874015748031497
          }
        ],
        "99": [
          {
            "number": 99,
            "ticks": 2,
            "time": 0.01623377083333333,
            "value": 0.007874015748031496
          },
          {
            "number": 99,
            "ticks": 5,
            "time": 0.04058442708333333,
            "value": 0.007874015748031496
          },
          {
            "number": 99,
            "ticks": 8,
            "time": 0.06493508333333332,
            "value": 0.007874015748031496
          },
          {
            "number": 99,
            "ticks": 11,
            "time": 0.08928573958333333,
            "value": 0.007874015748031496
          }
        ],
        "121": [
          {
            "number": 121,
            "ticks": 0,
            "time": 0,
            "value": 0
          }
        ]
      },
      "pitchBends": [
        {
          "ticks": 44,
          "time": 0.3571429583333333,
          "value": 0
        }
      ],
      "instrument": {
        "family": "piano",
        "number": 1,
        "name": "bright acoustic piano"
      },
      "name": "",
      "notes": [
        {
          "duration": 0.38961049999999986,
          "durationTicks": 48,
          "midi": 77,
          "name": "F5",
          "ticks": 2016,
          "time": 16.363640999999998,
          "velocity": 1
        },
        {
          "duration": 0.38961049999999986,
          "durationTicks": 48,
          "midi": 77,
          "name": "F5",
          "ticks": 2064,
          "time": 16.753251499999998,
          "velocity": 0.8976377952755905
        },
        {
          "duration": 0.38961049999999986,
          "durationTicks": 48,
          "midi": 77,
          "name": "F5",
          "ticks": 2112,
          "time": 17.142861999999997,
          "velocity": 1
        },
        {
          "duration": 0.38961049999999986,
          "durationTicks": 48,
          "midi": 77,
          "name": "F5",
          "ticks": 2160,
          "time": 17.532472499999997,
          "velocity": 0.8740157480314961
        },
        {
          "duration": 0.38961049999999986,
          "durationTicks": 48,
          "midi": 77,
          "name": "F5",
          "ticks": 2208,
          "time": 17.922082999999997,
          "velocity": 0.937007874015748
        },
        {
          "duration": 0.3896105000000034,
          "durationTicks": 48,
          "midi": 77,
          "name": "F5",
          "ticks": 2256,
          "time": 18.311693499999997,
          "velocity": 0.937007874015748
        },
        {
          "duration": 0.38961049999999986,
          "durationTicks": 48,
          "midi": 77,
          "name": "F5",
          "ticks": 2304,
          "time": 18.701304,
          "velocity": 1
        },
        {
          "duration": 0.38961049999999986,
          "durationTicks": 48,
          "midi": 77,
          "name": "F5",
          "ticks": 2352,
          "time": 19.0909145,
          "velocity": 1
        },
        {
          "duration": 0.38961049999999986,
          "durationTicks": 48,
          "midi": 75,
          "name": "D#5",
          "ticks": 2400,
          "time": 19.480525,
          "velocity": 1
        },
        {
          "duration": 0.38961049999999986,
          "durationTicks": 48,
          "midi": 73,
          "name": "C#5",
          "ticks": 2448,
          "time": 19.8701355,
          "velocity": 1
        },
        {
          "duration": 0.38961049999999986,
          "durationTicks": 48,
          "midi": 75,
          "name": "D#5",
          "ticks": 2496,
          "time": 20.259746,
          "velocity": 1
        },
        {
          "duration": 0.38961049999999986,
          "durationTicks": 48,
          "midi": 77,
          "name": "F5",
          "ticks": 2544,
          "time": 20.6493565,
          "velocity": 1
        },
        {
          "duration": 0.19480524999999815,
          "durationTicks": 24,
          "midi": 80,
          "name": "G#5",
          "ticks": 2592,
          "time": 21.038967,
          "velocity": 1
        },
        {
          "duration": 1.160714614583334,
          "durationTicks": 143,
          "midi": 77,
          "name": "F5",
          "ticks": 2616,
          "time": 21.233772249999998,
          "velocity": 1
        },
        {
          "duration": 0.38961049999999986,
          "durationTicks": 48,
          "midi": 75,
          "name": "D#5",
          "ticks": 2784,
          "time": 22.597409,
          "velocity": 0.9133858267716536
        },
        {
          "duration": 0.38961049999999986,
          "durationTicks": 48,
          "midi": 75,
          "name": "D#5",
          "ticks": 2832,
          "time": 22.9870195,
          "velocity": 1
        },
        {
          "duration": 0.38961049999999986,
          "durationTicks": 48,
          "midi": 77,
          "name": "F5",
          "ticks": 2880,
          "time": 23.37663,
          "velocity": 1
        },
        {
          "duration": 0.38961049999999986,
          "durationTicks": 48,
          "midi": 77,
          "name": "F5",
          "ticks": 2928,
          "time": 23.7662405,
          "velocity": 1
        },
        {
          "duration": 0.38961049999999986,
          "durationTicks": 48,
          "midi": 75,
          "name": "D#5",
          "ticks": 2976,
          "time": 24.155851,
          "velocity": 1
        },
        {
          "duration": 0.38961049999999986,
          "durationTicks": 48,
          "midi": 73,
          "name": "C#5",
          "ticks": 3024,
          "time": 24.5454615,
          "velocity": 0.937007874015748
        },
        {
          "duration": 0.38961049999999986,
          "durationTicks": 48,
          "midi": 70,
          "name": "A#4",
          "ticks": 3072,
          "time": 24.935071999999998,
          "velocity": 0.8976377952755905
        },
        {
          "duration": 0.7792209999999997,
          "durationTicks": 96,
          "midi": 70,
          "name": "A#4",
          "ticks": 3120,
          "time": 25.324682499999998,
          "velocity": 0.6929133858267716
        },
        {
          "duration": 0.7792209999999997,
          "durationTicks": 96,
          "midi": 73,
          "name": "C#5",
          "ticks": 3120,
          "time": 25.324682499999998,
          "velocity": 0.9133858267716536
        },
        {
          "duration": 0.7792209999999997,
          "durationTicks": 96,
          "midi": 75,
          "name": "D#5",
          "ticks": 3216,
          "time": 26.103903499999998,
          "velocity": 1
        },
        {
          "duration": 0.7792209999999997,
          "durationTicks": 96,
          "midi": 70,
          "name": "A#4",
          "ticks": 3216,
          "time": 26.103903499999998,
          "velocity": 0.6929133858267716
        },
        {
          "duration": 0.7792209999999997,
          "durationTicks": 96,
          "midi": 77,
          "name": "F5",
          "ticks": 3312,
          "time": 26.883124499999997,
          "velocity": 1
        },
        {
          "duration": 0.7792209999999997,
          "durationTicks": 96,
          "midi": 69,
          "name": "A4",
          "ticks": 3312,
          "time": 26.883124499999997,
          "velocity": 0.6929133858267716
        },
        {
          "duration": 0.7792209999999997,
          "durationTicks": 96,
          "midi": 68,
          "name": "G#4",
          "ticks": 3408,
          "time": 27.662345499999997,
          "velocity": 0.6929133858267716
        },
        {
          "duration": 0.7792209999999997,
          "durationTicks": 96,
          "midi": 75,
          "name": "D#5",
          "ticks": 3408,
          "time": 27.662345499999997,
          "velocity": 0.9133858267716536
        },
        {
          "duration": 0.38961049999999986,
          "durationTicks": 48,
          "midi": 77,
          "name": "F5",
          "ticks": 3552,
          "time": 28.831176999999997,
          "velocity": 1
        },
        {
          "duration": 0.38961049999999986,
          "durationTicks": 48,
          "midi": 77,
          "name": "F5",
          "ticks": 3600,
          "time": 29.220787499999997,
          "velocity": 0.9133858267716536
        },
        {
          "duration": 0.38961049999999986,
          "durationTicks": 48,
          "midi": 77,
          "name": "F5",
          "ticks": 3648,
          "time": 29.610397999999996,
          "velocity": 1
        },
        {
          "duration": 0.38961049999999986,
          "durationTicks": 48,
          "midi": 77,
          "name": "F5",
          "ticks": 3696,
          "time": 30.000008499999996,
          "velocity": 0.8740157480314961
        },
        {
          "duration": 0.38961049999999986,
          "durationTicks": 48,
          "midi": 77,
          "name": "F5",
          "ticks": 3744,
          "time": 30.389618999999996,
          "velocity": 0.937007874015748
        },
        {
          "duration": 0.38961049999999986,
          "durationTicks": 48,
          "midi": 77,
          "name": "F5",
          "ticks": 3792,
          "time": 30.779229499999996,
          "velocity": 0.937007874015748
        },
        {
          "duration": 0.3896105000000034,
          "durationTicks": 48,
          "midi": 77,
          "name": "F5",
          "ticks": 3840,
          "time": 31.168839999999996,
          "velocity": 1
        },
        {
          "duration": 0.38961049999999986,
          "durationTicks": 48,
          "midi": 77,
          "name": "F5",
          "ticks": 3888,
          "time": 31.5584505,
          "velocity": 1
        },
        {
          "duration": 0.38961049999999986,
          "durationTicks": 48,
          "midi": 75,
          "name": "D#5",
          "ticks": 3936,
          "time": 31.948061,
          "velocity": 1
        },
        {
          "duration": 0.3896104999999963,
          "durationTicks": 48,
          "midi": 73,
          "name": "C#5",
          "ticks": 3984,
          "time": 32.3376715,
          "velocity": 1
        },
        {
          "duration": 0.3896105000000034,
          "durationTicks": 48,
          "midi": 75,
          "name": "D#5",
          "ticks": 4032,
          "time": 32.727281999999995,
          "velocity": 1
        },
        {
          "duration": 0.3896104999999963,
          "durationTicks": 48,
          "midi": 77,
          "name": "F5",
          "ticks": 4080,
          "time": 33.1168925,
          "velocity": 1
        },
        {
          "duration": 0.1948052500000017,
          "durationTicks": 24,
          "midi": 80,
          "name": "G#5",
          "ticks": 4128,
          "time": 33.506502999999995,
          "velocity": 1
        },
        {
          "duration": 1.160714614583334,
          "durationTicks": 143,
          "midi": 77,
          "name": "F5",
          "ticks": 4152,
          "time": 33.70130825,
          "velocity": 1
        },
        {
          "duration": 0.3896105000000034,
          "durationTicks": 48,
          "midi": 77,
          "name": "F5",
          "ticks": 4320,
          "time": 35.064944999999994,
          "velocity": 1
        },
        {
          "duration": 0.3896104999999963,
          "durationTicks": 48,
          "midi": 77,
          "name": "F5",
          "ticks": 4368,
          "time": 35.4545555,
          "velocity": 1
        },
        {
          "duration": 0.3896105000000034,
          "durationTicks": 48,
          "midi": 78,
          "name": "F#5",
          "ticks": 4416,
          "time": 35.844165999999994,
          "velocity": 0.8740157480314961
        },
        {
          "duration": 0.3896104999999963,
          "durationTicks": 48,
          "midi": 80,
          "name": "G#5",
          "ticks": 4464,
          "time": 36.2337765,
          "velocity": 1
        },
        {
          "duration": 0.1948052500000017,
          "durationTicks": 24,
          "midi": 85,
          "name": "C#6",
          "ticks": 4512,
          "time": 36.623386999999994,
          "velocity": 1
        },
        {
          "duration": 0.5844157500000051,
          "durationTicks": 72,
          "midi": 84,
          "name": "C6",
          "ticks": 4536,
          "time": 36.818192249999996,
          "velocity": 1
        },
        {
          "duration": 0.3896104999999963,
          "durationTicks": 48,
          "midi": 80,
          "name": "G#5",
          "ticks": 4608,
          "time": 37.402608,
          "velocity": 0.937007874015748
        },
        {
          "duration": 1.1688315000000031,
          "durationTicks": 144,
          "midi": 73,
          "name": "C#5",
          "ticks": 4656,
          "time": 37.7922185,
          "velocity": 0.8188976377952756
        },
        {
          "duration": 1.1688315000000031,
          "durationTicks": 144,
          "midi": 82,
          "name": "A#5",
          "ticks": 4656,
          "time": 37.7922185,
          "velocity": 0.8976377952755905
        },
        {
          "duration": 0.3896104999999963,
          "durationTicks": 48,
          "midi": 82,
          "name": "A#5",
          "ticks": 4800,
          "time": 38.96105,
          "velocity": 0.937007874015748
        },
        {
          "duration": 0.3896105000000034,
          "durationTicks": 48,
          "midi": 82,
          "name": "A#5",
          "ticks": 4848,
          "time": 39.3506605,
          "velocity": 1
        },
        {
          "duration": 0.3896105000000034,
          "durationTicks": 48,
          "midi": 77,
          "name": "F5",
          "ticks": 4848,
          "time": 39.3506605,
          "velocity": 0.7165354330708661
        },
        {
          "duration": 0.3896104999999963,
          "durationTicks": 48,
          "midi": 80,
          "name": "G#5",
          "ticks": 4896,
          "time": 39.740271,
          "velocity": 1
        },
        {
          "duration": 0.3896104999999963,
          "durationTicks": 48,
          "midi": 75,
          "name": "D#5",
          "ticks": 4896,
          "time": 39.740271,
          "velocity": 0.6929133858267716
        },
        {
          "duration": 0.3896105000000034,
          "durationTicks": 48,
          "midi": 77,
          "name": "F5",
          "ticks": 4944,
          "time": 40.129881499999996,
          "velocity": 0.9133858267716536
        },
        {
          "duration": 0.3896105000000034,
          "durationTicks": 48,
          "midi": 72,
          "name": "C5",
          "ticks": 4944,
          "time": 40.129881499999996,
          "velocity": 0.6377952755905512
        },
        {
          "duration": 0.3896104999999963,
          "durationTicks": 48,
          "midi": 75,
          "name": "D#5",
          "ticks": 4992,
          "time": 40.519492,
          "velocity": 0.9133858267716536
        },
        {
          "duration": 0.3896104999999963,
          "durationTicks": 48,
          "midi": 66,
          "name": "F#4",
          "ticks": 4992,
          "time": 40.519492,
          "velocity": 0.6377952755905512
        },
        {
          "duration": 3.116883999999999,
          "durationTicks": 384,
          "midi": 77,
          "name": "F5",
          "ticks": 5040,
          "time": 40.909102499999996,
          "velocity": 0.952755905511811
        },
        {
          "duration": 3.116883999999999,
          "durationTicks": 384,
          "midi": 68,
          "name": "G#4",
          "ticks": 5040,
          "time": 40.909102499999996,
          "velocity": 0.7874015748031497
        },
        {
          "duration": 0.3896105000000034,
          "durationTicks": 48,
          "midi": 77,
          "name": "F5",
          "ticks": 10464,
          "time": 84.93508899999999,
          "velocity": 1
        },
        {
          "duration": 0.3896105000000034,
          "durationTicks": 48,
          "midi": 77,
          "name": "F5",
          "ticks": 10512,
          "time": 85.3246995,
          "velocity": 0.8976377952755905
        },
        {
          "duration": 0.3896104999999892,
          "durationTicks": 48,
          "midi": 77,
          "name": "F5",
          "ticks": 10560,
          "time": 85.71431,
          "velocity": 1
        },
        {
          "duration": 0.3896105000000034,
          "durationTicks": 48,
          "midi": 77,
          "name": "F5",
          "ticks": 10608,
          "time": 86.10392049999999,
          "velocity": 0.8740157480314961
        },
        {
          "duration": 0.3896105000000034,
          "durationTicks": 48,
          "midi": 77,
          "name": "F5",
          "ticks": 10656,
          "time": 86.49353099999999,
          "velocity": 0.937007874015748
        },
        {
          "duration": 0.3896105000000034,
          "durationTicks": 48,
          "midi": 77,
          "name": "F5",
          "ticks": 10704,
          "time": 86.8831415,
          "velocity": 0.937007874015748
        },
        {
          "duration": 0.3896105000000034,
          "durationTicks": 48,
          "midi": 77,
          "name": "F5",
          "ticks": 10752,
          "time": 87.272752,
          "velocity": 1
        },
        {
          "duration": 0.3896104999999892,
          "durationTicks": 48,
          "midi": 77,
          "name": "F5",
          "ticks": 10800,
          "time": 87.6623625,
          "velocity": 1
        },
        {
          "duration": 0.3896105000000034,
          "durationTicks": 48,
          "midi": 75,
          "name": "D#5",
          "ticks": 10848,
          "time": 88.05197299999999,
          "velocity": 1
        },
        {
          "duration": 0.3896105000000034,
          "durationTicks": 48,
          "midi": 73,
          "name": "C#5",
          "ticks": 10896,
          "time": 88.4415835,
          "velocity": 1
        },
        {
          "duration": 0.3896105000000034,
          "durationTicks": 48,
          "midi": 75,
          "name": "D#5",
          "ticks": 10944,
          "time": 88.831194,
          "velocity": 1
        },
        {
          "duration": 0.3896104999999892,
          "durationTicks": 48,
          "midi": 77,
          "name": "F5",
          "ticks": 10992,
          "time": 89.2208045,
          "velocity": 1
        },
        {
          "duration": 0.1948052500000017,
          "durationTicks": 24,
          "midi": 80,
          "name": "G#5",
          "ticks": 11040,
          "time": 89.61041499999999,
          "velocity": 1
        },
        {
          "duration": 1.160714614583327,
          "durationTicks": 143,
          "midi": 77,
          "name": "F5",
          "ticks": 11064,
          "time": 89.80522024999999,
          "velocity": 1
        },
        {
          "duration": 0.3896105000000034,
          "durationTicks": 48,
          "midi": 75,
          "name": "D#5",
          "ticks": 11232,
          "time": 91.16885699999999,
          "velocity": 0.9133858267716536
        },
        {
          "duration": 0.3896105000000034,
          "durationTicks": 48,
          "midi": 75,
          "name": "D#5",
          "ticks": 11280,
          "time": 91.55846749999999,
          "velocity": 1
        },
        {
          "duration": 0.3896105000000034,
          "durationTicks": 48,
          "midi": 77,
          "name": "F5",
          "ticks": 11328,
          "time": 91.948078,
          "velocity": 1
        },
        {
          "duration": 0.3896104999999892,
          "durationTicks": 48,
          "midi": 77,
          "name": "F5",
          "ticks": 11376,
          "time": 92.3376885,
          "velocity": 1
        },
        {
          "duration": 0.3896105000000034,
          "durationTicks": 48,
          "midi": 75,
          "name": "D#5",
          "ticks": 11424,
          "time": 92.72729899999999,
          "velocity": 1
        },
        {
          "duration": 0.3896105000000034,
          "durationTicks": 48,
          "midi": 73,
          "name": "C#5",
          "ticks": 11472,
          "time": 93.11690949999999,
          "velocity": 0.937007874015748
        },
        {
          "duration": 0.3896105000000034,
          "durationTicks": 48,
          "midi": 70,
          "name": "A#4",
          "ticks": 11520,
          "time": 93.50652,
          "velocity": 0.8976377952755905
        },
        {
          "duration": 0.7792209999999926,
          "durationTicks": 96,
          "midi": 70,
          "name": "A#4",
          "ticks": 11568,
          "time": 93.8961305,
          "velocity": 0.6929133858267716
        },
        {
          "duration": 0.7792209999999926,
          "durationTicks": 96,
          "midi": 73,
          "name": "C#5",
          "ticks": 11568,
          "time": 93.8961305,
          "velocity": 0.9133858267716536
        },
        {
          "duration": 0.7792210000000068,
          "durationTicks": 96,
          "midi": 75,
          "name": "D#5",
          "ticks": 11664,
          "time": 94.67535149999999,
          "velocity": 1
        },
        {
          "duration": 0.7792210000000068,
          "durationTicks": 96,
          "midi": 70,
          "name": "A#4",
          "ticks": 11664,
          "time": 94.67535149999999,
          "velocity": 0.6929133858267716
        },
        {
          "duration": 0.7792209999999926,
          "durationTicks": 96,
          "midi": 77,
          "name": "F5",
          "ticks": 11760,
          "time": 95.4545725,
          "velocity": 1
        },
        {
          "duration": 0.7792209999999926,
          "durationTicks": 96,
          "midi": 69,
          "name": "A4",
          "ticks": 11760,
          "time": 95.4545725,
          "velocity": 0.6929133858267716
        },
        {
          "duration": 0.7792210000000068,
          "durationTicks": 96,
          "midi": 68,
          "name": "G#4",
          "ticks": 11856,
          "time": 96.23379349999999,
          "velocity": 0.6929133858267716
        },
        {
          "duration": 0.7792210000000068,
          "durationTicks": 96,
          "midi": 75,
          "name": "D#5",
          "ticks": 11856,
          "time": 96.23379349999999,
          "velocity": 0.9133858267716536
        },
        {
          "duration": 0.3896105000000034,
          "durationTicks": 48,
          "midi": 77,
          "name": "F5",
          "ticks": 12000,
          "time": 97.40262499999999,
          "velocity": 1
        },
        {
          "duration": 0.3896105000000034,
          "durationTicks": 48,
          "midi": 77,
          "name": "F5",
          "ticks": 12048,
          "time": 97.79223549999999,
          "velocity": 0.9133858267716536
        },
        {
          "duration": 0.3896105000000034,
          "durationTicks": 48,
          "midi": 77,
          "name": "F5",
          "ticks": 12096,
          "time": 98.181846,
          "velocity": 1
        },
        {
          "duration": 0.3896104999999892,
          "durationTicks": 48,
          "midi": 77,
          "name": "F5",
          "ticks": 12144,
          "time": 98.5714565,
          "velocity": 0.8740157480314961
        },
        {
          "duration": 0.3896105000000034,
          "durationTicks": 48,
          "midi": 77,
          "name": "F5",
          "ticks": 12192,
          "time": 98.96106699999999,
          "velocity": 0.937007874015748
        },
        {
          "duration": 0.3896105000000034,
          "durationTicks": 48,
          "midi": 77,
          "name": "F5",
          "ticks": 12240,
          "time": 99.35067749999999,
          "velocity": 0.937007874015748
        },
        {
          "duration": 0.3896105000000034,
          "durationTicks": 48,
          "midi": 77,
          "name": "F5",
          "ticks": 12288,
          "time": 99.74028799999999,
          "velocity": 1
        },
        {
          "duration": 0.3896105000000034,
          "durationTicks": 48,
          "midi": 77,
          "name": "F5",
          "ticks": 12336,
          "time": 100.1298985,
          "velocity": 1
        },
        {
          "duration": 0.3896104999999892,
          "durationTicks": 48,
          "midi": 75,
          "name": "D#5",
          "ticks": 12384,
          "time": 100.519509,
          "velocity": 1
        },
        {
          "duration": 0.3896105000000034,
          "durationTicks": 48,
          "midi": 73,
          "name": "C#5",
          "ticks": 12432,
          "time": 100.90911949999999,
          "velocity": 1
        },
        {
          "duration": 0.3896105000000034,
          "durationTicks": 48,
          "midi": 75,
          "name": "D#5",
          "ticks": 12480,
          "time": 101.29872999999999,
          "velocity": 1
        },
        {
          "duration": 0.3896105000000034,
          "durationTicks": 48,
          "midi": 77,
          "name": "F5",
          "ticks": 12528,
          "time": 101.6883405,
          "velocity": 1
        },
        {
          "duration": 0.1948052499999875,
          "durationTicks": 24,
          "midi": 80,
          "name": "G#5",
          "ticks": 12576,
          "time": 102.077951,
          "velocity": 1
        },
        {
          "duration": 1.1607146145833411,
          "durationTicks": 143,
          "midi": 77,
          "name": "F5",
          "ticks": 12600,
          "time": 102.27275624999999,
          "velocity": 1
        },
        {
          "duration": 0.3896104999999892,
          "durationTicks": 48,
          "midi": 77,
          "name": "F5",
          "ticks": 12768,
          "time": 103.636393,
          "velocity": 1
        },
        {
          "duration": 0.3896105000000034,
          "durationTicks": 48,
          "midi": 77,
          "name": "F5",
          "ticks": 12816,
          "time": 104.02600349999999,
          "velocity": 1
        },
        {
          "duration": 0.3896105000000034,
          "durationTicks": 48,
          "midi": 78,
          "name": "F#5",
          "ticks": 12864,
          "time": 104.41561399999999,
          "velocity": 0.8740157480314961
        },
        {
          "duration": 0.3896105000000034,
          "durationTicks": 48,
          "midi": 80,
          "name": "G#5",
          "ticks": 12912,
          "time": 104.8052245,
          "velocity": 1
        },
        {
          "duration": 0.1948052499999875,
          "durationTicks": 24,
          "midi": 85,
          "name": "C#6",
          "ticks": 12960,
          "time": 105.194835,
          "velocity": 1
        },
        {
          "duration": 0.5844157500000051,
          "durationTicks": 72,
          "midi": 84,
          "name": "C6",
          "ticks": 12984,
          "time": 105.38964024999999,
          "velocity": 1
        },
        {
          "duration": 0.3896105000000034,
          "durationTicks": 48,
          "midi": 80,
          "name": "G#5",
          "ticks": 13056,
          "time": 105.97405599999999,
          "velocity": 0.937007874015748
        },
        {
          "duration": 1.168831499999996,
          "durationTicks": 144,
          "midi": 73,
          "name": "C#5",
          "ticks": 13104,
          "time": 106.3636665,
          "velocity": 0.8188976377952756
        },
        {
          "duration": 1.168831499999996,
          "durationTicks": 144,
          "midi": 82,
          "name": "A#5",
          "ticks": 13104,
          "time": 106.3636665,
          "velocity": 0.8976377952755905
        },
        {
          "duration": 0.3896105000000034,
          "durationTicks": 48,
          "midi": 82,
          "name": "A#5",
          "ticks": 13248,
          "time": 107.53249799999999,
          "velocity": 0.937007874015748
        },
        {
          "duration": 0.3896105000000034,
          "durationTicks": 48,
          "midi": 82,
          "name": "A#5",
          "ticks": 13296,
          "time": 107.9221085,
          "velocity": 1
        },
        {
          "duration": 0.3896105000000034,
          "durationTicks": 48,
          "midi": 77,
          "name": "F5",
          "ticks": 13296,
          "time": 107.9221085,
          "velocity": 0.7165354330708661
        },
        {
          "duration": 0.3896104999999892,
          "durationTicks": 48,
          "midi": 80,
          "name": "G#5",
          "ticks": 13344,
          "time": 108.311719,
          "velocity": 1
        },
        {
          "duration": 0.3896104999999892,
          "durationTicks": 48,
          "midi": 75,
          "name": "D#5",
          "ticks": 13344,
          "time": 108.311719,
          "velocity": 0.6929133858267716
        },
        {
          "duration": 0.3896105000000034,
          "durationTicks": 48,
          "midi": 77,
          "name": "F5",
          "ticks": 13392,
          "time": 108.70132949999999,
          "velocity": 0.9133858267716536
        },
        {
          "duration": 0.3896105000000034,
          "durationTicks": 48,
          "midi": 72,
          "name": "C5",
          "ticks": 13392,
          "time": 108.70132949999999,
          "velocity": 0.6377952755905512
        },
        {
          "duration": 0.3896105000000034,
          "durationTicks": 48,
          "midi": 75,
          "name": "D#5",
          "ticks": 13440,
          "time": 109.09093999999999,
          "velocity": 0.9133858267716536
        },
        {
          "duration": 0.3896105000000034,
          "durationTicks": 48,
          "midi": 66,
          "name": "F#4",
          "ticks": 13440,
          "time": 109.09093999999999,
          "velocity": 0.6377952755905512
        },
        {
          "duration": 3.116883999999999,
          "durationTicks": 384,
          "midi": 77,
          "name": "F5",
          "ticks": 13488,
          "time": 109.48055049999999,
          "velocity": 0.952755905511811
        },
        {
          "duration": 3.116883999999999,
          "durationTicks": 384,
          "midi": 68,
          "name": "G#4",
          "ticks": 13488,
          "time": 109.48055049999999,
          "velocity": 0.7874015748031497
        }
      ]
    },
    {
      "channel": 0,
      "controlChanges": {
        "0": [
          {
            "number": 0,
            "ticks": 0,
            "time": 0,
            "value": 0
          }
        ],
        "32": [
          {
            "number": 32,
            "ticks": 0,
            "time": 0,
            "value": 0.015748031496062992
          }
        ]
      },
      "pitchBends": [],
      "instrument": {
        "family": "piano",
        "number": 0,
        "name": "acoustic grand piano"
      },
      "name": "",
      "notes": [],
      "endOfTrackTicks": 18288
    },
    {
      "channel": 5,
      "controlChanges": {
        "6": [
          {
            "number": 6,
            "ticks": 4,
            "time": 0.03246754166666666,
            "value": 0.49606299212598426
          },
          {
            "number": 6,
            "ticks": 7,
            "time": 0.05681819791666667,
            "value": 0.4330708661417323
          },
          {
            "number": 6,
            "ticks": 12,
            "time": 0.09740262499999999,
            "value": 0.5039370078740157
          },
          {
            "number": 6,
            "ticks": 15,
            "time": 0.12175328124999998,
            "value": 0.015748031496062992
          }
        ],
        "7": [
          {
            "number": 7,
            "ticks": 0,
            "time": 0,
            "value": 0.3858267716535433
          }
        ],
        "10": [
          {
            "number": 10,
            "ticks": 0,
            "time": 0,
            "value": 0.5039370078740157
          }
        ],
        "11": [
          {
            "number": 11,
            "ticks": 436,
            "time": 3.5389620416666667,
            "value": 0.5039370078740157
          },
          {
            "number": 11,
            "ticks": 440,
            "time": 3.571429583333333,
            "value": 0.5118110236220472
          },
          {
            "number": 11,
            "ticks": 441,
            "time": 3.57954646875,
            "value": 0.5196850393700787
          },
          {
            "number": 11,
            "ticks": 445,
            "time": 3.6120140104166665,
            "value": 0.5275590551181102
          },
          {
            "number": 11,
            "ticks": 448,
            "time": 3.6363646666666667,
            "value": 0.5354330708661418
          },
          {
            "number": 11,
            "ticks": 449,
            "time": 3.6444815520833327,
            "value": 0.5433070866141733
          },
          {
            "number": 11,
            "ticks": 453,
            "time": 3.67694909375,
            "value": 0.5511811023622047
          },
          {
            "number": 11,
            "ticks": 456,
            "time": 3.7012997499999996,
            "value": 0.5590551181102362
          },
          {
            "number": 11,
            "ticks": 460,
            "time": 3.7337672916666667,
            "value": 0.5669291338582677
          },
          {
            "number": 11,
            "ticks": 461,
            "time": 3.7418841770833327,
            "value": 0.5748031496062992
          },
          {
            "number": 11,
            "ticks": 464,
            "time": 3.766234833333333,
            "value": 0.5826771653543307
          },
          {
            "number": 11,
            "ticks": 468,
            "time": 3.7987023749999995,
            "value": 0.5905511811023622
          },
          {
            "number": 11,
            "ticks": 469,
            "time": 3.8068192604166664,
            "value": 0.5984251968503937
          },
          {
            "number": 11,
            "ticks": 472,
            "time": 3.8311699166666666,
            "value": 0.6062992125984252
          },
          {
            "number": 11,
            "ticks": 476,
            "time": 3.863637458333333,
            "value": 0.6141732283464567
          },
          {
            "number": 11,
            "ticks": 477,
            "time": 3.8717543437499997,
            "value": 0.6220472440944882
          },
          {
            "number": 11,
            "ticks": 481,
            "time": 3.904221885416667,
            "value": 0.6299212598425197
          },
          {
            "number": 11,
            "ticks": 484,
            "time": 3.9285725416666666,
            "value": 0.6377952755905512
          },
          {
            "number": 11,
            "ticks": 485,
            "time": 3.936689427083333,
            "value": 0.6456692913385826
          },
          {
            "number": 11,
            "ticks": 489,
            "time": 3.9691569687499997,
            "value": 0.6535433070866141
          },
          {
            "number": 11,
            "ticks": 492,
            "time": 3.993507625,
            "value": 0.6614173228346457
          },
          {
            "number": 11,
            "ticks": 493,
            "time": 4.001624510416667,
            "value": 0.6692913385826772
          },
          {
            "number": 11,
            "ticks": 497,
            "time": 4.0340920520833325,
            "value": 0.6771653543307087
          },
          {
            "number": 11,
            "ticks": 500,
            "time": 4.058442708333333,
            "value": 0.6850393700787402
          },
          {
            "number": 11,
            "ticks": 504,
            "time": 4.090910249999999,
            "value": 0.6929133858267716
          },
          {
            "number": 11,
            "ticks": 505,
            "time": 4.099027135416667,
            "value": 0.7007874015748031
          },
          {
            "number": 11,
            "ticks": 508,
            "time": 4.123377791666667,
            "value": 0.7086614173228346
          },
          {
            "number": 11,
            "ticks": 512,
            "time": 4.155845333333333,
            "value": 0.7165354330708661
          },
          {
            "number": 11,
            "ticks": 513,
            "time": 4.16396221875,
            "value": 0.7244094488188977
          },
          {
            "number": 11,
            "ticks": 517,
            "time": 4.196429760416667,
            "value": 0.7322834645669292
          },
          {
            "number": 11,
            "ticks": 520,
            "time": 4.220780416666667,
            "value": 0.7401574803149606
          },
          {
            "number": 11,
            "ticks": 521,
            "time": 4.2288973020833325,
            "value": 0.7480314960629921
          },
          {
            "number": 11,
            "ticks": 525,
            "time": 4.26136484375,
            "value": 0.7559055118110236
          },
          {
            "number": 11,
            "ticks": 528,
            "time": 4.285715499999999,
            "value": 0.7637795275590551
          },
          {
            "number": 11,
            "ticks": 529,
            "time": 4.293832385416667,
            "value": 0.7716535433070866
          },
          {
            "number": 11,
            "ticks": 533,
            "time": 4.326299927083332,
            "value": 0.7795275590551181
          },
          {
            "number": 11,
            "ticks": 536,
            "time": 4.350650583333333,
            "value": 0.7874015748031497
          },
          {
            "number": 11,
            "ticks": 540,
            "time": 4.383118124999999,
            "value": 0.7952755905511811
          },
          {
            "number": 11,
            "ticks": 541,
            "time": 4.391235010416667,
            "value": 0.8031496062992126
          },
          {
            "number": 11,
            "ticks": 544,
            "time": 4.415585666666667,
            "value": 0.8110236220472441
          },
          {
            "number": 11,
            "ticks": 548,
            "time": 4.448053208333333,
            "value": 0.8188976377952756
          },
          {
            "number": 11,
            "ticks": 549,
            "time": 4.45617009375,
            "value": 0.8267716535433071
          },
          {
            "number": 11,
            "ticks": 552,
            "time": 4.480520749999999,
            "value": 0.8346456692913385
          },
          {
            "number": 11,
            "ticks": 556,
            "time": 4.512988291666667,
            "value": 0.84251968503937
          },
          {
            "number": 11,
            "ticks": 557,
            "time": 4.521105177083332,
            "value": 0.8503937007874016
          },
          {
            "number": 11,
            "ticks": 561,
            "time": 4.55357271875,
            "value": 0.8582677165354331
          },
          {
            "number": 11,
            "ticks": 564,
            "time": 4.577923374999999,
            "value": 0.8661417322834646
          },
          {
            "number": 11,
            "ticks": 565,
            "time": 4.586040260416667,
            "value": 0.8740157480314961
          },
          {
            "number": 11,
            "ticks": 569,
            "time": 4.618507802083332,
            "value": 0.8818897637795275
          },
          {
            "number": 11,
            "ticks": 572,
            "time": 4.6428584583333325,
            "value": 0.889763779527559
          },
          {
            "number": 11,
            "ticks": 576,
            "time": 4.675326,
            "value": 0.8976377952755905
          },
          {
            "number": 11,
            "ticks": 577,
            "time": 4.6834428854166665,
            "value": 0.905511811023622
          },
          {
            "number": 11,
            "ticks": 580,
            "time": 4.707793541666667,
            "value": 0.9133858267716536
          },
          {
            "number": 11,
            "ticks": 584,
            "time": 4.7402610833333325,
            "value": 0.9212598425196851
          },
          {
            "number": 11,
            "ticks": 585,
            "time": 4.74837796875,
            "value": 0.9291338582677166
          },
          {
            "number": 11,
            "ticks": 588,
            "time": 4.772728625,
            "value": 0.937007874015748
          },
          {
            "number": 11,
            "ticks": 592,
            "time": 4.805196166666667,
            "value": 0.9448818897637795
          },
          {
            "number": 11,
            "ticks": 593,
            "time": 4.813313052083333,
            "value": 0.952755905511811
          },
          {
            "number": 11,
            "ticks": 597,
            "time": 4.84578059375,
            "value": 0.9606299212598425
          },
          {
            "number": 11,
            "ticks": 600,
            "time": 4.87013125,
            "value": 0.968503937007874
          },
          {
            "number": 11,
            "ticks": 601,
            "time": 4.8782481354166665,
            "value": 0.9763779527559056
          },
          {
            "number": 11,
            "ticks": 605,
            "time": 4.910715677083333,
            "value": 0.984251968503937
          },
          {
            "number": 11,
            "ticks": 608,
            "time": 4.9350663333333324,
            "value": 0.9921259842519685
          },
          {
            "number": 11,
            "ticks": 609,
            "time": 4.94318321875,
            "value": 1
          },
          {
            "number": 11,
            "ticks": 1009,
            "time": 8.189937385416666,
            "value": 0.9921259842519685
          },
          {
            "number": 11,
            "ticks": 1013,
            "time": 8.222404927083334,
            "value": 0.984251968503937
          },
          {
            "number": 11,
            "ticks": 1017,
            "time": 8.25487246875,
            "value": 0.9763779527559056
          },
          {
            "number": 11,
            "ticks": 1020,
            "time": 8.279223125,
            "value": 0.968503937007874
          },
          {
            "number": 11,
            "ticks": 1024,
            "time": 8.311690666666665,
            "value": 0.9606299212598425
          },
          {
            "number": 11,
            "ticks": 1025,
            "time": 8.319807552083333,
            "value": 0.952755905511811
          },
          {
            "number": 11,
            "ticks": 1029,
            "time": 8.352275093749999,
            "value": 0.9448818897637795
          },
          {
            "number": 11,
            "ticks": 1033,
            "time": 8.384742635416666,
            "value": 0.937007874015748
          },
          {
            "number": 11,
            "ticks": 1036,
            "time": 8.409093291666666,
            "value": 0.9291338582677166
          },
          {
            "number": 11,
            "ticks": 1040,
            "time": 8.441560833333334,
            "value": 0.9212598425196851
          },
          {
            "number": 11,
            "ticks": 1041,
            "time": 8.44967771875,
            "value": 0.9133858267716536
          },
          {
            "number": 11,
            "ticks": 1045,
            "time": 8.482145260416665,
            "value": 0.905511811023622
          },
          {
            "number": 11,
            "ticks": 1048,
            "time": 8.506495916666665,
            "value": 0.8976377952755905
          },
          {
            "number": 11,
            "ticks": 1052,
            "time": 8.538963458333333,
            "value": 0.889763779527559
          },
          {
            "number": 11,
            "ticks": 1056,
            "time": 8.571430999999999,
            "value": 0.8818897637795275
          },
          {
            "number": 11,
            "ticks": 1057,
            "time": 8.579547885416666,
            "value": 0.8740157480314961
          },
          {
            "number": 11,
            "ticks": 1061,
            "time": 8.612015427083334,
            "value": 0.8661417322834646
          },
          {
            "number": 11,
            "ticks": 1064,
            "time": 8.636366083333334,
            "value": 0.8582677165354331
          },
          {
            "number": 11,
            "ticks": 1068,
            "time": 8.668833625,
            "value": 0.8503937007874016
          },
          {
            "number": 11,
            "ticks": 1069,
            "time": 8.676950510416665,
            "value": 0.84251968503937
          },
          {
            "number": 11,
            "ticks": 1073,
            "time": 8.709418052083333,
            "value": 0.8346456692913385
          },
          {
            "number": 11,
            "ticks": 1077,
            "time": 8.74188559375,
            "value": 0.8267716535433071
          },
          {
            "number": 11,
            "ticks": 1080,
            "time": 8.766236249999999,
            "value": 0.8188976377952756
          },
          {
            "number": 11,
            "ticks": 1084,
            "time": 8.798703791666666,
            "value": 0.8110236220472441
          },
          {
            "number": 11,
            "ticks": 1085,
            "time": 8.806820677083333,
            "value": 0.8031496062992126
          },
          {
            "number": 11,
            "ticks": 1089,
            "time": 8.83928821875,
            "value": 0.7952755905511811
          },
          {
            "number": 11,
            "ticks": 1092,
            "time": 8.863638875,
            "value": 0.7874015748031497
          },
          {
            "number": 11,
            "ticks": 1096,
            "time": 8.896106416666665,
            "value": 0.7795275590551181
          },
          {
            "number": 11,
            "ticks": 1100,
            "time": 8.928573958333333,
            "value": 0.7716535433070866
          },
          {
            "number": 11,
            "ticks": 1101,
            "time": 8.93669084375,
            "value": 0.7637795275590551
          },
          {
            "number": 11,
            "ticks": 1105,
            "time": 8.969158385416666,
            "value": 0.7559055118110236
          },
          {
            "number": 11,
            "ticks": 1108,
            "time": 8.993509041666666,
            "value": 0.7480314960629921
          },
          {
            "number": 11,
            "ticks": 1112,
            "time": 9.025976583333334,
            "value": 0.7401574803149606
          },
          {
            "number": 11,
            "ticks": 1116,
            "time": 9.058444125,
            "value": 0.7322834645669292
          },
          {
            "number": 11,
            "ticks": 1117,
            "time": 9.066561010416665,
            "value": 0.7244094488188977
          },
          {
            "number": 11,
            "ticks": 1121,
            "time": 9.099028552083332,
            "value": 0.7165354330708661
          },
          {
            "number": 11,
            "ticks": 1124,
            "time": 9.123379208333333,
            "value": 0.7086614173228346
          },
          {
            "number": 11,
            "ticks": 1128,
            "time": 9.155846749999998,
            "value": 0.7007874015748031
          },
          {
            "number": 11,
            "ticks": 1129,
            "time": 9.163963635416666,
            "value": 0.6929133858267716
          },
          {
            "number": 11,
            "ticks": 1133,
            "time": 9.196431177083333,
            "value": 0.6850393700787402
          },
          {
            "number": 11,
            "ticks": 1137,
            "time": 9.22889871875,
            "value": 0.6771653543307087
          },
          {
            "number": 11,
            "ticks": 1140,
            "time": 9.253249375,
            "value": 0.6692913385826772
          },
          {
            "number": 11,
            "ticks": 1144,
            "time": 9.285716916666665,
            "value": 0.6614173228346457
          },
          {
            "number": 11,
            "ticks": 1145,
            "time": 9.293833802083332,
            "value": 0.6535433070866141
          },
          {
            "number": 11,
            "ticks": 1149,
            "time": 9.32630134375,
            "value": 0.6456692913385826
          },
          {
            "number": 11,
            "ticks": 1152,
            "time": 9.350652,
            "value": 0.6377952755905512
          },
          {
            "number": 11,
            "ticks": 1156,
            "time": 9.383119541666666,
            "value": 0.6299212598425197
          },
          {
            "number": 11,
            "ticks": 1160,
            "time": 9.415587083333333,
            "value": 0.6220472440944882
          },
          {
            "number": 11,
            "ticks": 1161,
            "time": 9.423703968749999,
            "value": 0.6141732283464567
          },
          {
            "number": 11,
            "ticks": 1165,
            "time": 9.456171510416665,
            "value": 0.6062992125984252
          },
          {
            "number": 11,
            "ticks": 1168,
            "time": 9.480522166666665,
            "value": 0.5984251968503937
          },
          {
            "number": 11,
            "ticks": 1172,
            "time": 9.512989708333333,
            "value": 0.5905511811023622
          },
          {
            "number": 11,
            "ticks": 1173,
            "time": 9.52110659375,
            "value": 0.5826771653543307
          },
          {
            "number": 11,
            "ticks": 1177,
            "time": 9.553574135416666,
            "value": 0.5748031496062992
          },
          {
            "number": 11,
            "ticks": 1181,
            "time": 9.586041677083333,
            "value": 0.5669291338582677
          },
          {
            "number": 11,
            "ticks": 1184,
            "time": 9.610392333333333,
            "value": 0.5590551181102362
          },
          {
            "number": 11,
            "ticks": 1188,
            "time": 9.642859875,
            "value": 0.5511811023622047
          },
          {
            "number": 11,
            "ticks": 1189,
            "time": 9.650976760416665,
            "value": 0.5433070866141733
          },
          {
            "number": 11,
            "ticks": 1193,
            "time": 9.683444302083332,
            "value": 0.5354330708661418
          },
          {
            "number": 11,
            "ticks": 1196,
            "time": 9.707794958333333,
            "value": 0.5275590551181102
          },
          {
            "number": 11,
            "ticks": 1204,
            "time": 9.772730041666666,
            "value": 0.5039370078740157
          },
          {
            "number": 11,
            "ticks": 1208,
            "time": 9.805197583333333,
            "value": 0.5118110236220472
          },
          {
            "number": 11,
            "ticks": 1209,
            "time": 9.813314468749999,
            "value": 0.5196850393700787
          },
          {
            "number": 11,
            "ticks": 1213,
            "time": 9.845782010416665,
            "value": 0.5275590551181102
          },
          {
            "number": 11,
            "ticks": 1216,
            "time": 9.870132666666665,
            "value": 0.5354330708661418
          },
          {
            "number": 11,
            "ticks": 1217,
            "time": 9.878249552083332,
            "value": 0.5433070866141733
          },
          {
            "number": 11,
            "ticks": 1221,
            "time": 9.91071709375,
            "value": 0.5511811023622047
          },
          {
            "number": 11,
            "ticks": 1224,
            "time": 9.93506775,
            "value": 0.5590551181102362
          },
          {
            "number": 11,
            "ticks": 1228,
            "time": 9.967535291666666,
            "value": 0.5669291338582677
          },
          {
            "number": 11,
            "ticks": 1229,
            "time": 9.975652177083333,
            "value": 0.5748031496062992
          },
          {
            "number": 11,
            "ticks": 1232,
            "time": 10.000002833333333,
            "value": 0.5826771653543307
          },
          {
            "number": 11,
            "ticks": 1236,
            "time": 10.032470374999999,
            "value": 0.5905511811023622
          },
          {
            "number": 11,
            "ticks": 1237,
            "time": 10.040587260416665,
            "value": 0.5984251968503937
          },
          {
            "number": 11,
            "ticks": 1240,
            "time": 10.064937916666665,
            "value": 0.6062992125984252
          },
          {
            "number": 11,
            "ticks": 1244,
            "time": 10.097405458333332,
            "value": 0.6141732283464567
          },
          {
            "number": 11,
            "ticks": 1245,
            "time": 10.10552234375,
            "value": 0.6220472440944882
          },
          {
            "number": 11,
            "ticks": 1249,
            "time": 10.137989885416665,
            "value": 0.6299212598425197
          },
          {
            "number": 11,
            "ticks": 1252,
            "time": 10.162340541666666,
            "value": 0.6377952755905512
          },
          {
            "number": 11,
            "ticks": 1253,
            "time": 10.170457427083333,
            "value": 0.6456692913385826
          },
          {
            "number": 11,
            "ticks": 1257,
            "time": 10.202924968749999,
            "value": 0.6535433070866141
          },
          {
            "number": 11,
            "ticks": 1260,
            "time": 10.227275624999999,
            "value": 0.6614173228346457
          },
          {
            "number": 11,
            "ticks": 1261,
            "time": 10.235392510416666,
            "value": 0.6692913385826772
          },
          {
            "number": 11,
            "ticks": 1265,
            "time": 10.267860052083334,
            "value": 0.6771653543307087
          },
          {
            "number": 11,
            "ticks": 1268,
            "time": 10.292210708333332,
            "value": 0.6850393700787402
          },
          {
            "number": 11,
            "ticks": 1272,
            "time": 10.32467825,
            "value": 0.6929133858267716
          },
          {
            "number": 11,
            "ticks": 1273,
            "time": 10.332795135416665,
            "value": 0.7007874015748031
          },
          {
            "number": 11,
            "ticks": 1276,
            "time": 10.357145791666666,
            "value": 0.7086614173228346
          },
          {
            "number": 11,
            "ticks": 1280,
            "time": 10.389613333333333,
            "value": 0.7165354330708661
          },
          {
            "number": 11,
            "ticks": 1281,
            "time": 10.397730218749999,
            "value": 0.7244094488188977
          },
          {
            "number": 11,
            "ticks": 1285,
            "time": 10.430197760416666,
            "value": 0.7322834645669292
          },
          {
            "number": 11,
            "ticks": 1288,
            "time": 10.454548416666665,
            "value": 0.7401574803149606
          },
          {
            "number": 11,
            "ticks": 1289,
            "time": 10.462665302083334,
            "value": 0.7480314960629921
          },
          {
            "number": 11,
            "ticks": 1293,
            "time": 10.49513284375,
            "value": 0.7559055118110236
          },
          {
            "number": 11,
            "ticks": 1296,
            "time": 10.5194835,
            "value": 0.7637795275590551
          },
          {
            "number": 11,
            "ticks": 1297,
            "time": 10.527600385416665,
            "value": 0.7716535433070866
          },
          {
            "number": 11,
            "ticks": 1301,
            "time": 10.560067927083333,
            "value": 0.7795275590551181
          },
          {
            "number": 11,
            "ticks": 1304,
            "time": 10.584418583333333,
            "value": 0.7874015748031497
          },
          {
            "number": 11,
            "ticks": 1308,
            "time": 10.616886124999999,
            "value": 0.7952755905511811
          },
          {
            "number": 11,
            "ticks": 1309,
            "time": 10.625003010416666,
            "value": 0.8031496062992126
          },
          {
            "number": 11,
            "ticks": 1312,
            "time": 10.649353666666665,
            "value": 0.8110236220472441
          },
          {
            "number": 11,
            "ticks": 1316,
            "time": 10.681821208333332,
            "value": 0.8188976377952756
          },
          {
            "number": 11,
            "ticks": 1317,
            "time": 10.68993809375,
            "value": 0.8267716535433071
          },
          {
            "number": 11,
            "ticks": 1320,
            "time": 10.71428875,
            "value": 0.8346456692913385
          },
          {
            "number": 11,
            "ticks": 1324,
            "time": 10.746756291666665,
            "value": 0.84251968503937
          },
          {
            "number": 11,
            "ticks": 1325,
            "time": 10.754873177083333,
            "value": 0.8503937007874016
          },
          {
            "number": 11,
            "ticks": 1329,
            "time": 10.787340718749999,
            "value": 0.8582677165354331
          },
          {
            "number": 11,
            "ticks": 1332,
            "time": 10.811691374999999,
            "value": 0.8661417322834646
          },
          {
            "number": 11,
            "ticks": 1333,
            "time": 10.819808260416666,
            "value": 0.8740157480314961
          },
          {
            "number": 11,
            "ticks": 1337,
            "time": 10.852275802083334,
            "value": 0.8818897637795275
          },
          {
            "number": 11,
            "ticks": 1340,
            "time": 10.876626458333334,
            "value": 0.889763779527559
          },
          {
            "number": 11,
            "ticks": 1344,
            "time": 10.909094,
            "value": 0.8976377952755905
          },
          {
            "number": 11,
            "ticks": 1345,
            "time": 10.917210885416665,
            "value": 0.905511811023622
          },
          {
            "number": 11,
            "ticks": 1348,
            "time": 10.941561541666665,
            "value": 0.9133858267716536
          },
          {
            "number": 11,
            "ticks": 1352,
            "time": 10.974029083333333,
            "value": 0.9212598425196851
          },
          {
            "number": 11,
            "ticks": 1353,
            "time": 10.982145968749998,
            "value": 0.9291338582677166
          },
          {
            "number": 11,
            "ticks": 1356,
            "time": 11.006496624999999,
            "value": 0.937007874015748
          },
          {
            "number": 11,
            "ticks": 1360,
            "time": 11.038964166666666,
            "value": 0.9448818897637795
          },
          {
            "number": 11,
            "ticks": 1361,
            "time": 11.047081052083334,
            "value": 0.952755905511811
          },
          {
            "number": 11,
            "ticks": 1365,
            "time": 11.07954859375,
            "value": 0.9606299212598425
          },
          {
            "number": 11,
            "ticks": 1368,
            "time": 11.10389925,
            "value": 0.968503937007874
          },
          {
            "number": 11,
            "ticks": 1369,
            "time": 11.112016135416665,
            "value": 0.9763779527559056
          },
          {
            "number": 11,
            "ticks": 1373,
            "time": 11.144483677083333,
            "value": 0.984251968503937
          },
          {
            "number": 11,
            "ticks": 1376,
            "time": 11.168834333333333,
            "value": 0.9921259842519685
          },
          {
            "number": 11,
            "ticks": 1377,
            "time": 11.176951218749998,
            "value": 1
          },
          {
            "number": 11,
            "ticks": 1777,
            "time": 14.423705385416666,
            "value": 0.9921259842519685
          },
          {
            "number": 11,
            "ticks": 1781,
            "time": 14.456172927083331,
            "value": 0.984251968503937
          },
          {
            "number": 11,
            "ticks": 1785,
            "time": 14.488640468749999,
            "value": 0.9763779527559056
          },
          {
            "number": 11,
            "ticks": 1788,
            "time": 14.512991125,
            "value": 0.968503937007874
          },
          {
            "number": 11,
            "ticks": 1792,
            "time": 14.545458666666667,
            "value": 0.9606299212598425
          },
          {
            "number": 11,
            "ticks": 1793,
            "time": 14.55357555208333,
            "value": 0.952755905511811
          },
          {
            "number": 11,
            "ticks": 1797,
            "time": 14.586043093749998,
            "value": 0.9448818897637795
          },
          {
            "number": 11,
            "ticks": 1801,
            "time": 14.618510635416666,
            "value": 0.937007874015748
          },
          {
            "number": 11,
            "ticks": 1804,
            "time": 14.642861291666666,
            "value": 0.9291338582677166
          },
          {
            "number": 11,
            "ticks": 1808,
            "time": 14.675328833333332,
            "value": 0.9212598425196851
          },
          {
            "number": 11,
            "ticks": 1809,
            "time": 14.683445718749999,
            "value": 0.9133858267716536
          },
          {
            "number": 11,
            "ticks": 1813,
            "time": 14.715913260416666,
            "value": 0.905511811023622
          },
          {
            "number": 11,
            "ticks": 1816,
            "time": 14.740263916666667,
            "value": 0.8976377952755905
          },
          {
            "number": 11,
            "ticks": 1820,
            "time": 14.77273145833333,
            "value": 0.889763779527559
          },
          {
            "number": 11,
            "ticks": 1824,
            "time": 14.805198999999998,
            "value": 0.8818897637795275
          },
          {
            "number": 11,
            "ticks": 1825,
            "time": 14.813315885416667,
            "value": 0.8740157480314961
          },
          {
            "number": 11,
            "ticks": 1829,
            "time": 14.845783427083331,
            "value": 0.8661417322834646
          },
          {
            "number": 11,
            "ticks": 1832,
            "time": 14.870134083333332,
            "value": 0.8582677165354331
          },
          {
            "number": 11,
            "ticks": 1836,
            "time": 14.902601624999999,
            "value": 0.8503937007874016
          },
          {
            "number": 11,
            "ticks": 1837,
            "time": 14.910718510416666,
            "value": 0.84251968503937
          },
          {
            "number": 11,
            "ticks": 1841,
            "time": 14.943186052083332,
            "value": 0.8346456692913385
          },
          {
            "number": 11,
            "ticks": 1845,
            "time": 14.97565359375,
            "value": 0.8267716535433071
          },
          {
            "number": 11,
            "ticks": 1848,
            "time": 15.000004249999998,
            "value": 0.8188976377952756
          },
          {
            "number": 11,
            "ticks": 1852,
            "time": 15.032471791666666,
            "value": 0.8110236220472441
          },
          {
            "number": 11,
            "ticks": 1853,
            "time": 15.040588677083331,
            "value": 0.8031496062992126
          },
          {
            "number": 11,
            "ticks": 1857,
            "time": 15.073056218749999,
            "value": 0.7952755905511811
          },
          {
            "number": 11,
            "ticks": 1860,
            "time": 15.097406874999999,
            "value": 0.7874015748031497
          },
          {
            "number": 11,
            "ticks": 1864,
            "time": 15.129874416666667,
            "value": 0.7795275590551181
          },
          {
            "number": 11,
            "ticks": 1868,
            "time": 15.16234195833333,
            "value": 0.7716535433070866
          },
          {
            "number": 11,
            "ticks": 1869,
            "time": 15.17045884375,
            "value": 0.7637795275590551
          },
          {
            "number": 11,
            "ticks": 1873,
            "time": 15.202926385416667,
            "value": 0.7559055118110236
          },
          {
            "number": 11,
            "ticks": 1876,
            "time": 15.227277041666666,
            "value": 0.7480314960629921
          },
          {
            "number": 11,
            "ticks": 1880,
            "time": 15.259744583333331,
            "value": 0.7401574803149606
          },
          {
            "number": 11,
            "ticks": 1884,
            "time": 15.292212124999999,
            "value": 0.7322834645669292
          },
          {
            "number": 11,
            "ticks": 1885,
            "time": 15.300329010416666,
            "value": 0.7244094488188977
          },
          {
            "number": 11,
            "ticks": 1889,
            "time": 15.332796552083332,
            "value": 0.7165354330708661
          },
          {
            "number": 11,
            "ticks": 1892,
            "time": 15.35714720833333,
            "value": 0.7086614173228346
          },
          {
            "number": 11,
            "ticks": 1896,
            "time": 15.389614749999998,
            "value": 0.7007874015748031
          },
          {
            "number": 11,
            "ticks": 1897,
            "time": 15.397731635416667,
            "value": 0.6929133858267716
          },
          {
            "number": 11,
            "ticks": 1901,
            "time": 15.430199177083331,
            "value": 0.6850393700787402
          },
          {
            "number": 11,
            "ticks": 1905,
            "time": 15.462666718749999,
            "value": 0.6771653543307087
          },
          {
            "number": 11,
            "ticks": 1908,
            "time": 15.487017374999999,
            "value": 0.6692913385826772
          },
          {
            "number": 11,
            "ticks": 1912,
            "time": 15.519484916666666,
            "value": 0.6614173228346457
          },
          {
            "number": 11,
            "ticks": 1913,
            "time": 15.527601802083332,
            "value": 0.6535433070866141
          },
          {
            "number": 11,
            "ticks": 1917,
            "time": 15.56006934375,
            "value": 0.6456692913385826
          },
          {
            "number": 11,
            "ticks": 1920,
            "time": 15.584419999999998,
            "value": 0.6377952755905512
          },
          {
            "number": 11,
            "ticks": 1924,
            "time": 15.616887541666667,
            "value": 0.6299212598425197
          },
          {
            "number": 11,
            "ticks": 1928,
            "time": 15.649355083333331,
            "value": 0.6220472440944882
          },
          {
            "number": 11,
            "ticks": 1929,
            "time": 15.657471968749999,
            "value": 0.6141732283464567
          },
          {
            "number": 11,
            "ticks": 1933,
            "time": 15.689939510416666,
            "value": 0.6062992125984252
          },
          {
            "number": 11,
            "ticks": 1936,
            "time": 15.714290166666666,
            "value": 0.5984251968503937
          },
          {
            "number": 11,
            "ticks": 1940,
            "time": 15.746757708333332,
            "value": 0.5905511811023622
          },
          {
            "number": 11,
            "ticks": 1941,
            "time": 15.75487459375,
            "value": 0.5826771653543307
          },
          {
            "number": 11,
            "ticks": 1945,
            "time": 15.787342135416667,
            "value": 0.5748031496062992
          },
          {
            "number": 11,
            "ticks": 1949,
            "time": 15.819809677083331,
            "value": 0.5669291338582677
          },
          {
            "number": 11,
            "ticks": 1952,
            "time": 15.844160333333331,
            "value": 0.5590551181102362
          },
          {
            "number": 11,
            "ticks": 1956,
            "time": 15.876627874999999,
            "value": 0.5511811023622047
          },
          {
            "number": 11,
            "ticks": 1957,
            "time": 15.884744760416666,
            "value": 0.5433070866141733
          },
          {
            "number": 11,
            "ticks": 1961,
            "time": 15.917212302083332,
            "value": 0.5354330708661418
          },
          {
            "number": 11,
            "ticks": 1964,
            "time": 15.941562958333332,
            "value": 0.5275590551181102
          },
          {
            "number": 11,
            "ticks": 1972,
            "time": 16.006498041666667,
            "value": 0.5039370078740157
          },
          {
            "number": 11,
            "ticks": 1976,
            "time": 16.038965583333333,
            "value": 0.5118110236220472
          },
          {
            "number": 11,
            "ticks": 1977,
            "time": 16.04708246875,
            "value": 0.5196850393700787
          },
          {
            "number": 11,
            "ticks": 1981,
            "time": 16.079550010416668,
            "value": 0.5275590551181102
          },
          {
            "number": 11,
            "ticks": 1984,
            "time": 16.103900666666668,
            "value": 0.5354330708661418
          },
          {
            "number": 11,
            "ticks": 1985,
            "time": 16.11201755208333,
            "value": 0.5433070866141733
          },
          {
            "number": 11,
            "ticks": 1989,
            "time": 16.14448509375,
            "value": 0.5511811023622047
          },
          {
            "number": 11,
            "ticks": 1992,
            "time": 16.16883575,
            "value": 0.5590551181102362
          },
          {
            "number": 11,
            "ticks": 1996,
            "time": 16.201303291666665,
            "value": 0.5669291338582677
          },
          {
            "number": 11,
            "ticks": 1997,
            "time": 16.20942017708333,
            "value": 0.5748031496062992
          },
          {
            "number": 11,
            "ticks": 2000,
            "time": 16.23377083333333,
            "value": 0.5826771653543307
          },
          {
            "number": 11,
            "ticks": 2004,
            "time": 16.266238375,
            "value": 0.5905511811023622
          },
          {
            "number": 11,
            "ticks": 2005,
            "time": 16.274355260416666,
            "value": 0.5984251968503937
          },
          {
            "number": 11,
            "ticks": 2008,
            "time": 16.298705916666666,
            "value": 0.6062992125984252
          },
          {
            "number": 11,
            "ticks": 2012,
            "time": 16.331173458333332,
            "value": 0.6141732283464567
          },
          {
            "number": 11,
            "ticks": 2013,
            "time": 16.339290343749997,
            "value": 0.6220472440944882
          },
          {
            "number": 11,
            "ticks": 2017,
            "time": 16.371757885416667,
            "value": 0.6299212598425197
          },
          {
            "number": 11,
            "ticks": 2020,
            "time": 16.396108541666667,
            "value": 0.6377952755905512
          },
          {
            "number": 11,
            "ticks": 2021,
            "time": 16.404225427083333,
            "value": 0.6456692913385826
          },
          {
            "number": 11,
            "ticks": 2025,
            "time": 16.43669296875,
            "value": 0.6535433070866141
          },
          {
            "number": 11,
            "ticks": 2028,
            "time": 16.461043625,
            "value": 0.6614173228346457
          },
          {
            "number": 11,
            "ticks": 2029,
            "time": 16.469160510416668,
            "value": 0.6692913385826772
          },
          {
            "number": 11,
            "ticks": 2033,
            "time": 16.50162805208333,
            "value": 0.6771653543307087
          },
          {
            "number": 11,
            "ticks": 2036,
            "time": 16.52597870833333,
            "value": 0.6850393700787402
          },
          {
            "number": 11,
            "ticks": 2040,
            "time": 16.55844625,
            "value": 0.6929133858267716
          },
          {
            "number": 11,
            "ticks": 2041,
            "time": 16.566563135416665,
            "value": 0.7007874015748031
          },
          {
            "number": 11,
            "ticks": 2044,
            "time": 16.590913791666665,
            "value": 0.7086614173228346
          },
          {
            "number": 11,
            "ticks": 2048,
            "time": 16.62338133333333,
            "value": 0.7165354330708661
          },
          {
            "number": 11,
            "ticks": 2049,
            "time": 16.63149821875,
            "value": 0.7244094488188977
          },
          {
            "number": 11,
            "ticks": 2053,
            "time": 16.663965760416666,
            "value": 0.7322834645669292
          },
          {
            "number": 11,
            "ticks": 2056,
            "time": 16.688316416666666,
            "value": 0.7401574803149606
          },
          {
            "number": 11,
            "ticks": 2057,
            "time": 16.69643330208333,
            "value": 0.7480314960629921
          },
          {
            "number": 11,
            "ticks": 2061,
            "time": 16.728900843749997,
            "value": 0.7559055118110236
          },
          {
            "number": 11,
            "ticks": 2064,
            "time": 16.753251499999998,
            "value": 0.7637795275590551
          },
          {
            "number": 11,
            "ticks": 2065,
            "time": 16.761368385416667,
            "value": 0.7716535433070866
          },
          {
            "number": 11,
            "ticks": 2069,
            "time": 16.793835927083332,
            "value": 0.7795275590551181
          },
          {
            "number": 11,
            "ticks": 2072,
            "time": 16.818186583333333,
            "value": 0.7874015748031497
          },
          {
            "number": 11,
            "ticks": 2076,
            "time": 16.850654125,
            "value": 0.7952755905511811
          },
          {
            "number": 11,
            "ticks": 2077,
            "time": 16.858771010416667,
            "value": 0.8031496062992126
          },
          {
            "number": 11,
            "ticks": 2080,
            "time": 16.883121666666668,
            "value": 0.8110236220472441
          },
          {
            "number": 11,
            "ticks": 2084,
            "time": 16.91558920833333,
            "value": 0.8188976377952756
          },
          {
            "number": 11,
            "ticks": 2085,
            "time": 16.92370609375,
            "value": 0.8267716535433071
          },
          {
            "number": 11,
            "ticks": 2088,
            "time": 16.94805675,
            "value": 0.8346456692913385
          },
          {
            "number": 11,
            "ticks": 2092,
            "time": 16.980524291666665,
            "value": 0.84251968503937
          },
          {
            "number": 11,
            "ticks": 2093,
            "time": 16.98864117708333,
            "value": 0.8503937007874016
          },
          {
            "number": 11,
            "ticks": 2097,
            "time": 17.02110871875,
            "value": 0.8582677165354331
          },
          {
            "number": 11,
            "ticks": 2100,
            "time": 17.045459375,
            "value": 0.8661417322834646
          },
          {
            "number": 11,
            "ticks": 2101,
            "time": 17.053576260416666,
            "value": 0.8740157480314961
          },
          {
            "number": 11,
            "ticks": 2105,
            "time": 17.08604380208333,
            "value": 0.8818897637795275
          },
          {
            "number": 11,
            "ticks": 2108,
            "time": 17.11039445833333,
            "value": 0.889763779527559
          },
          {
            "number": 11,
            "ticks": 2112,
            "time": 17.142861999999997,
            "value": 0.8976377952755905
          },
          {
            "number": 11,
            "ticks": 2113,
            "time": 17.150978885416666,
            "value": 0.905511811023622
          },
          {
            "number": 11,
            "ticks": 2116,
            "time": 17.175329541666667,
            "value": 0.9133858267716536
          },
          {
            "number": 11,
            "ticks": 2120,
            "time": 17.207797083333332,
            "value": 0.9212598425196851
          },
          {
            "number": 11,
            "ticks": 2121,
            "time": 17.215913968749998,
            "value": 0.9291338582677166
          },
          {
            "number": 11,
            "ticks": 2124,
            "time": 17.240264625,
            "value": 0.937007874015748
          },
          {
            "number": 11,
            "ticks": 2128,
            "time": 17.272732166666668,
            "value": 0.9448818897637795
          },
          {
            "number": 11,
            "ticks": 2129,
            "time": 17.28084905208333,
            "value": 0.952755905511811
          },
          {
            "number": 11,
            "ticks": 2133,
            "time": 17.31331659375,
            "value": 0.9606299212598425
          },
          {
            "number": 11,
            "ticks": 2136,
            "time": 17.33766725,
            "value": 0.968503937007874
          },
          {
            "number": 11,
            "ticks": 2137,
            "time": 17.345784135416665,
            "value": 0.9763779527559056
          },
          {
            "number": 11,
            "ticks": 2141,
            "time": 17.37825167708333,
            "value": 0.984251968503937
          },
          {
            "number": 11,
            "ticks": 2144,
            "time": 17.40260233333333,
            "value": 0.9921259842519685
          },
          {
            "number": 11,
            "ticks": 2145,
            "time": 17.41071921875,
            "value": 1
          },
          {
            "number": 11,
            "ticks": 2545,
            "time": 20.657473385416665,
            "value": 0.9921259842519685
          },
          {
            "number": 11,
            "ticks": 2549,
            "time": 20.68994092708333,
            "value": 0.984251968503937
          },
          {
            "number": 11,
            "ticks": 2553,
            "time": 20.722408468749997,
            "value": 0.9763779527559056
          },
          {
            "number": 11,
            "ticks": 2556,
            "time": 20.746759124999997,
            "value": 0.968503937007874
          },
          {
            "number": 11,
            "ticks": 2560,
            "time": 20.779226666666666,
            "value": 0.9606299212598425
          },
          {
            "number": 11,
            "ticks": 2561,
            "time": 20.787343552083332,
            "value": 0.952755905511811
          },
          {
            "number": 11,
            "ticks": 2565,
            "time": 20.819811093749998,
            "value": 0.9448818897637795
          },
          {
            "number": 11,
            "ticks": 2569,
            "time": 20.852278635416667,
            "value": 0.937007874015748
          },
          {
            "number": 11,
            "ticks": 2572,
            "time": 20.876629291666667,
            "value": 0.9291338582677166
          },
          {
            "number": 11,
            "ticks": 2576,
            "time": 20.90909683333333,
            "value": 0.9212598425196851
          },
          {
            "number": 11,
            "ticks": 2577,
            "time": 20.91721371875,
            "value": 0.9133858267716536
          },
          {
            "number": 11,
            "ticks": 2581,
            "time": 20.949681260416668,
            "value": 0.905511811023622
          },
          {
            "number": 11,
            "ticks": 2584,
            "time": 20.974031916666664,
            "value": 0.8976377952755905
          },
          {
            "number": 11,
            "ticks": 2588,
            "time": 21.00649945833333,
            "value": 0.889763779527559
          },
          {
            "number": 11,
            "ticks": 2592,
            "time": 21.038967,
            "value": 0.8818897637795275
          },
          {
            "number": 11,
            "ticks": 2593,
            "time": 21.047083885416665,
            "value": 0.8740157480314961
          },
          {
            "number": 11,
            "ticks": 2597,
            "time": 21.07955142708333,
            "value": 0.8661417322834646
          },
          {
            "number": 11,
            "ticks": 2600,
            "time": 21.10390208333333,
            "value": 0.8582677165354331
          },
          {
            "number": 11,
            "ticks": 2604,
            "time": 21.136369624999997,
            "value": 0.8503937007874016
          },
          {
            "number": 11,
            "ticks": 2605,
            "time": 21.144486510416666,
            "value": 0.84251968503937
          },
          {
            "number": 11,
            "ticks": 2609,
            "time": 21.17695405208333,
            "value": 0.8346456692913385
          },
          {
            "number": 11,
            "ticks": 2613,
            "time": 21.209421593749997,
            "value": 0.8267716535433071
          },
          {
            "number": 11,
            "ticks": 2616,
            "time": 21.233772249999998,
            "value": 0.8188976377952756
          },
          {
            "number": 11,
            "ticks": 2620,
            "time": 21.266239791666667,
            "value": 0.8110236220472441
          },
          {
            "number": 11,
            "ticks": 2621,
            "time": 21.274356677083333,
            "value": 0.8031496062992126
          },
          {
            "number": 11,
            "ticks": 2625,
            "time": 21.30682421875,
            "value": 0.7952755905511811
          },
          {
            "number": 11,
            "ticks": 2628,
            "time": 21.331174875,
            "value": 0.7874015748031497
          },
          {
            "number": 11,
            "ticks": 2632,
            "time": 21.363642416666664,
            "value": 0.7795275590551181
          },
          {
            "number": 11,
            "ticks": 2636,
            "time": 21.39610995833333,
            "value": 0.7716535433070866
          },
          {
            "number": 11,
            "ticks": 2637,
            "time": 21.40422684375,
            "value": 0.7637795275590551
          },
          {
            "number": 11,
            "ticks": 2641,
            "time": 21.436694385416665,
            "value": 0.7559055118110236
          },
          {
            "number": 11,
            "ticks": 2644,
            "time": 21.461045041666665,
            "value": 0.7480314960629921
          },
          {
            "number": 11,
            "ticks": 2648,
            "time": 21.49351258333333,
            "value": 0.7401574803149606
          },
          {
            "number": 11,
            "ticks": 2652,
            "time": 21.525980124999997,
            "value": 0.7322834645669292
          },
          {
            "number": 11,
            "ticks": 2653,
            "time": 21.534097010416666,
            "value": 0.7244094488188977
          },
          {
            "number": 11,
            "ticks": 2657,
            "time": 21.56656455208333,
            "value": 0.7165354330708661
          },
          {
            "number": 11,
            "ticks": 2660,
            "time": 21.59091520833333,
            "value": 0.7086614173228346
          },
          {
            "number": 11,
            "ticks": 2664,
            "time": 21.623382749999998,
            "value": 0.7007874015748031
          },
          {
            "number": 11,
            "ticks": 2665,
            "time": 21.631499635416667,
            "value": 0.6929133858267716
          },
          {
            "number": 11,
            "ticks": 2669,
            "time": 21.663967177083332,
            "value": 0.6850393700787402
          },
          {
            "number": 11,
            "ticks": 2673,
            "time": 21.696434718749998,
            "value": 0.6771653543307087
          },
          {
            "number": 11,
            "ticks": 2676,
            "time": 21.720785375,
            "value": 0.6692913385826772
          },
          {
            "number": 11,
            "ticks": 2680,
            "time": 21.753252916666668,
            "value": 0.6614173228346457
          },
          {
            "number": 11,
            "ticks": 2681,
            "time": 21.76136980208333,
            "value": 0.6535433070866141
          },
          {
            "number": 11,
            "ticks": 2685,
            "time": 21.79383734375,
            "value": 0.6456692913385826
          },
          {
            "number": 11,
            "ticks": 2688,
            "time": 21.818188,
            "value": 0.6377952755905512
          },
          {
            "number": 11,
            "ticks": 2692,
            "time": 21.850655541666665,
            "value": 0.6299212598425197
          },
          {
            "number": 11,
            "ticks": 2696,
            "time": 21.88312308333333,
            "value": 0.6220472440944882
          },
          {
            "number": 11,
            "ticks": 2697,
            "time": 21.89123996875,
            "value": 0.6141732283464567
          },
          {
            "number": 11,
            "ticks": 2701,
            "time": 21.923707510416666,
            "value": 0.6062992125984252
          },
          {
            "number": 11,
            "ticks": 2704,
            "time": 21.948058166666666,
            "value": 0.5984251968503937
          },
          {
            "number": 11,
            "ticks": 2708,
            "time": 21.98052570833333,
            "value": 0.5905511811023622
          },
          {
            "number": 11,
            "ticks": 2709,
            "time": 21.988642593749997,
            "value": 0.5826771653543307
          },
          {
            "number": 11,
            "ticks": 2713,
            "time": 22.021110135416667,
            "value": 0.5748031496062992
          },
          {
            "number": 11,
            "ticks": 2717,
            "time": 22.053577677083332,
            "value": 0.5669291338582677
          },
          {
            "number": 11,
            "ticks": 2720,
            "time": 22.077928333333332,
            "value": 0.5590551181102362
          },
          {
            "number": 11,
            "ticks": 2724,
            "time": 22.110395875,
            "value": 0.5511811023622047
          },
          {
            "number": 11,
            "ticks": 2725,
            "time": 22.118512760416667,
            "value": 0.5433070866141733
          },
          {
            "number": 11,
            "ticks": 2729,
            "time": 22.15098030208333,
            "value": 0.5354330708661418
          },
          {
            "number": 11,
            "ticks": 2732,
            "time": 22.17533095833333,
            "value": 0.5275590551181102
          },
          {
            "number": 11,
            "ticks": 2740,
            "time": 22.240266041666665,
            "value": 0.5039370078740157
          },
          {
            "number": 11,
            "ticks": 2744,
            "time": 22.27273358333333,
            "value": 0.5118110236220472
          },
          {
            "number": 11,
            "ticks": 2745,
            "time": 22.28085046875,
            "value": 0.5196850393700787
          },
          {
            "number": 11,
            "ticks": 2749,
            "time": 22.313318010416666,
            "value": 0.5275590551181102
          },
          {
            "number": 11,
            "ticks": 2752,
            "time": 22.337668666666666,
            "value": 0.5354330708661418
          },
          {
            "number": 11,
            "ticks": 2753,
            "time": 22.34578555208333,
            "value": 0.5433070866141733
          },
          {
            "number": 11,
            "ticks": 2757,
            "time": 22.378253093749997,
            "value": 0.5511811023622047
          },
          {
            "number": 11,
            "ticks": 2760,
            "time": 22.402603749999997,
            "value": 0.5590551181102362
          },
          {
            "number": 11,
            "ticks": 2764,
            "time": 22.435071291666667,
            "value": 0.5669291338582677
          },
          {
            "number": 11,
            "ticks": 2765,
            "time": 22.443188177083332,
            "value": 0.5748031496062992
          },
          {
            "number": 11,
            "ticks": 2768,
            "time": 22.467538833333332,
            "value": 0.5826771653543307
          },
          {
            "number": 11,
            "ticks": 2772,
            "time": 22.500006374999998,
            "value": 0.5905511811023622
          },
          {
            "number": 11,
            "ticks": 2773,
            "time": 22.508123260416667,
            "value": 0.5984251968503937
          },
          {
            "number": 11,
            "ticks": 2776,
            "time": 22.532473916666667,
            "value": 0.6062992125984252
          },
          {
            "number": 11,
            "ticks": 2780,
            "time": 22.56494145833333,
            "value": 0.6141732283464567
          },
          {
            "number": 11,
            "ticks": 2781,
            "time": 22.57305834375,
            "value": 0.6220472440944882
          },
          {
            "number": 11,
            "ticks": 2785,
            "time": 22.605525885416665,
            "value": 0.6299212598425197
          },
          {
            "number": 11,
            "ticks": 2788,
            "time": 22.629876541666665,
            "value": 0.6377952755905512
          },
          {
            "number": 11,
            "ticks": 2789,
            "time": 22.63799342708333,
            "value": 0.6456692913385826
          },
          {
            "number": 11,
            "ticks": 2793,
            "time": 22.67046096875,
            "value": 0.6535433070866141
          },
          {
            "number": 11,
            "ticks": 2796,
            "time": 22.694811625,
            "value": 0.6614173228346457
          },
          {
            "number": 11,
            "ticks": 2797,
            "time": 22.702928510416665,
            "value": 0.6692913385826772
          },
          {
            "number": 11,
            "ticks": 2801,
            "time": 22.73539605208333,
            "value": 0.6771653543307087
          },
          {
            "number": 11,
            "ticks": 2804,
            "time": 22.75974670833333,
            "value": 0.6850393700787402
          },
          {
            "number": 11,
            "ticks": 2808,
            "time": 22.792214249999997,
            "value": 0.6929133858267716
          },
          {
            "number": 11,
            "ticks": 2809,
            "time": 22.800331135416666,
            "value": 0.7007874015748031
          },
          {
            "number": 11,
            "ticks": 2812,
            "time": 22.824681791666666,
            "value": 0.7086614173228346
          },
          {
            "number": 11,
            "ticks": 2816,
            "time": 22.857149333333332,
            "value": 0.7165354330708661
          },
          {
            "number": 11,
            "ticks": 2817,
            "time": 22.865266218749998,
            "value": 0.7244094488188977
          },
          {
            "number": 11,
            "ticks": 2821,
            "time": 22.897733760416667,
            "value": 0.7322834645669292
          },
          {
            "number": 11,
            "ticks": 2824,
            "time": 22.922084416666667,
            "value": 0.7401574803149606
          },
          {
            "number": 11,
            "ticks": 2825,
            "time": 22.93020130208333,
            "value": 0.7480314960629921
          },
          {
            "number": 11,
            "ticks": 2829,
            "time": 22.96266884375,
            "value": 0.7559055118110236
          },
          {
            "number": 11,
            "ticks": 2832,
            "time": 22.9870195,
            "value": 0.7637795275590551
          },
          {
            "number": 11,
            "ticks": 2833,
            "time": 22.995136385416664,
            "value": 0.7716535433070866
          },
          {
            "number": 11,
            "ticks": 2837,
            "time": 23.02760392708333,
            "value": 0.7795275590551181
          },
          {
            "number": 11,
            "ticks": 2840,
            "time": 23.05195458333333,
            "value": 0.7874015748031497
          },
          {
            "number": 11,
            "ticks": 2844,
            "time": 23.084422125,
            "value": 0.7952755905511811
          },
          {
            "number": 11,
            "ticks": 2845,
            "time": 23.092539010416665,
            "value": 0.8031496062992126
          },
          {
            "number": 11,
            "ticks": 2848,
            "time": 23.116889666666665,
            "value": 0.8110236220472441
          },
          {
            "number": 11,
            "ticks": 2852,
            "time": 23.14935720833333,
            "value": 0.8188976377952756
          },
          {
            "number": 11,
            "ticks": 2853,
            "time": 23.157474093749997,
            "value": 0.8267716535433071
          },
          {
            "number": 11,
            "ticks": 2856,
            "time": 23.181824749999997,
            "value": 0.8346456692913385
          },
          {
            "number": 11,
            "ticks": 2860,
            "time": 23.214292291666666,
            "value": 0.84251968503937
          },
          {
            "number": 11,
            "ticks": 2861,
            "time": 23.222409177083332,
            "value": 0.8503937007874016
          },
          {
            "number": 11,
            "ticks": 2865,
            "time": 23.254876718749998,
            "value": 0.8582677165354331
          },
          {
            "number": 11,
            "ticks": 2868,
            "time": 23.279227374999998,
            "value": 0.8661417322834646
          },
          {
            "number": 11,
            "ticks": 2869,
            "time": 23.287344260416667,
            "value": 0.8740157480314961
          },
          {
            "number": 11,
            "ticks": 2873,
            "time": 23.31981180208333,
            "value": 0.8818897637795275
          },
          {
            "number": 11,
            "ticks": 2876,
            "time": 23.34416245833333,
            "value": 0.889763779527559
          },
          {
            "number": 11,
            "ticks": 2880,
            "time": 23.37663,
            "value": 0.8976377952755905
          },
          {
            "number": 11,
            "ticks": 2881,
            "time": 23.384746885416664,
            "value": 0.905511811023622
          },
          {
            "number": 11,
            "ticks": 2884,
            "time": 23.409097541666664,
            "value": 0.9133858267716536
          },
          {
            "number": 11,
            "ticks": 2888,
            "time": 23.44156508333333,
            "value": 0.9212598425196851
          },
          {
            "number": 11,
            "ticks": 2889,
            "time": 23.44968196875,
            "value": 0.9291338582677166
          },
          {
            "number": 11,
            "ticks": 2892,
            "time": 23.474032625,
            "value": 0.937007874015748
          },
          {
            "number": 11,
            "ticks": 2896,
            "time": 23.506500166666665,
            "value": 0.9448818897637795
          },
          {
            "number": 11,
            "ticks": 2897,
            "time": 23.51461705208333,
            "value": 0.952755905511811
          },
          {
            "number": 11,
            "ticks": 2901,
            "time": 23.547084593749997,
            "value": 0.9606299212598425
          },
          {
            "number": 11,
            "ticks": 2904,
            "time": 23.571435249999997,
            "value": 0.968503937007874
          },
          {
            "number": 11,
            "ticks": 2905,
            "time": 23.579552135416666,
            "value": 0.9763779527559056
          },
          {
            "number": 11,
            "ticks": 2909,
            "time": 23.61201967708333,
            "value": 0.984251968503937
          },
          {
            "number": 11,
            "ticks": 2912,
            "time": 23.636370333333332,
            "value": 0.9921259842519685
          },
          {
            "number": 11,
            "ticks": 2913,
            "time": 23.644487218749997,
            "value": 1
          },
          {
            "number": 11,
            "ticks": 3313,
            "time": 26.891241385416663,
            "value": 0.9921259842519685
          },
          {
            "number": 11,
            "ticks": 3317,
            "time": 26.923708927083332,
            "value": 0.984251968503937
          },
          {
            "number": 11,
            "ticks": 3321,
            "time": 26.956176468749998,
            "value": 0.9763779527559056
          },
          {
            "number": 11,
            "ticks": 3324,
            "time": 26.980527125,
            "value": 0.968503937007874
          },
          {
            "number": 11,
            "ticks": 3328,
            "time": 27.012994666666664,
            "value": 0.9606299212598425
          },
          {
            "number": 11,
            "ticks": 3329,
            "time": 27.021111552083333,
            "value": 0.952755905511811
          },
          {
            "number": 11,
            "ticks": 3333,
            "time": 27.05357909375,
            "value": 0.9448818897637795
          },
          {
            "number": 11,
            "ticks": 3337,
            "time": 27.08604663541666,
            "value": 0.937007874015748
          },
          {
            "number": 11,
            "ticks": 3340,
            "time": 27.11039729166666,
            "value": 0.9291338582677166
          },
          {
            "number": 11,
            "ticks": 3344,
            "time": 27.142864833333334,
            "value": 0.9212598425196851
          },
          {
            "number": 11,
            "ticks": 3345,
            "time": 27.150981718749996,
            "value": 0.9133858267716536
          },
          {
            "number": 11,
            "ticks": 3349,
            "time": 27.183449260416662,
            "value": 0.905511811023622
          },
          {
            "number": 11,
            "ticks": 3352,
            "time": 27.207799916666662,
            "value": 0.8976377952755905
          },
          {
            "number": 11,
            "ticks": 3356,
            "time": 27.24026745833333,
            "value": 0.889763779527559
          },
          {
            "number": 11,
            "ticks": 3360,
            "time": 27.272734999999997,
            "value": 0.8818897637795275
          },
          {
            "number": 11,
            "ticks": 3361,
            "time": 27.280851885416663,
            "value": 0.8740157480314961
          },
          {
            "number": 11,
            "ticks": 3365,
            "time": 27.313319427083332,
            "value": 0.8661417322834646
          },
          {
            "number": 11,
            "ticks": 3368,
            "time": 27.337670083333332,
            "value": 0.8582677165354331
          },
          {
            "number": 11,
            "ticks": 3372,
            "time": 27.370137624999998,
            "value": 0.8503937007874016
          },
          {
            "number": 11,
            "ticks": 3373,
            "time": 27.378254510416664,
            "value": 0.84251968503937
          },
          {
            "number": 11,
            "ticks": 3377,
            "time": 27.410722052083333,
            "value": 0.8346456692913385
          },
          {
            "number": 11,
            "ticks": 3381,
            "time": 27.44318959375,
            "value": 0.8267716535433071
          },
          {
            "number": 11,
            "ticks": 3384,
            "time": 27.46754025,
            "value": 0.8188976377952756
          },
          {
            "number": 11,
            "ticks": 3388,
            "time": 27.50000779166666,
            "value": 0.8110236220472441
          },
          {
            "number": 11,
            "ticks": 3389,
            "time": 27.508124677083334,
            "value": 0.8031496062992126
          },
          {
            "number": 11,
            "ticks": 3393,
            "time": 27.54059221875,
            "value": 0.7952755905511811
          },
          {
            "number": 11,
            "ticks": 3396,
            "time": 27.564942874999996,
            "value": 0.7874015748031497
          },
          {
            "number": 11,
            "ticks": 3400,
            "time": 27.597410416666662,
            "value": 0.7795275590551181
          },
          {
            "number": 11,
            "ticks": 3404,
            "time": 27.62987795833333,
            "value": 0.7716535433070866
          },
          {
            "number": 11,
            "ticks": 3405,
            "time": 27.637994843749997,
            "value": 0.7637795275590551
          },
          {
            "number": 11,
            "ticks": 3409,
            "time": 27.670462385416663,
            "value": 0.7559055118110236
          },
          {
            "number": 11,
            "ticks": 3412,
            "time": 27.694813041666663,
            "value": 0.7480314960629921
          },
          {
            "number": 11,
            "ticks": 3416,
            "time": 27.727280583333332,
            "value": 0.7401574803149606
          },
          {
            "number": 11,
            "ticks": 3420,
            "time": 27.759748124999998,
            "value": 0.7322834645669292
          },
          {
            "number": 11,
            "ticks": 3421,
            "time": 27.767865010416664,
            "value": 0.7244094488188977
          },
          {
            "number": 11,
            "ticks": 3425,
            "time": 27.800332552083333,
            "value": 0.7165354330708661
          },
          {
            "number": 11,
            "ticks": 3428,
            "time": 27.824683208333333,
            "value": 0.7086614173228346
          },
          {
            "number": 11,
            "ticks": 3432,
            "time": 27.85715075,
            "value": 0.7007874015748031
          },
          {
            "number": 11,
            "ticks": 3433,
            "time": 27.865267635416664,
            "value": 0.6929133858267716
          },
          {
            "number": 11,
            "ticks": 3437,
            "time": 27.897735177083334,
            "value": 0.6850393700787402
          },
          {
            "number": 11,
            "ticks": 3441,
            "time": 27.93020271875,
            "value": 0.6771653543307087
          },
          {
            "number": 11,
            "ticks": 3444,
            "time": 27.954553374999996,
            "value": 0.6692913385826772
          },
          {
            "number": 11,
            "ticks": 3448,
            "time": 27.987020916666662,
            "value": 0.6614173228346457
          },
          {
            "number": 11,
            "ticks": 3449,
            "time": 27.995137802083335,
            "value": 0.6535433070866141
          },
          {
            "number": 11,
            "ticks": 3453,
            "time": 28.027605343749997,
            "value": 0.6456692913385826
          },
          {
            "number": 11,
            "ticks": 3456,
            "time": 28.051955999999997,
            "value": 0.6377952755905512
          },
          {
            "number": 11,
            "ticks": 3460,
            "time": 28.084423541666663,
            "value": 0.6299212598425197
          },
          {
            "number": 11,
            "ticks": 3464,
            "time": 28.116891083333332,
            "value": 0.6220472440944882
          },
          {
            "number": 11,
            "ticks": 3465,
            "time": 28.125007968749998,
            "value": 0.6141732283464567
          },
          {
            "number": 11,
            "ticks": 3469,
            "time": 28.157475510416663,
            "value": 0.6062992125984252
          },
          {
            "number": 11,
            "ticks": 3472,
            "time": 28.181826166666664,
            "value": 0.5984251968503937
          },
          {
            "number": 11,
            "ticks": 3476,
            "time": 28.214293708333333,
            "value": 0.5905511811023622
          },
          {
            "number": 11,
            "ticks": 3477,
            "time": 28.22241059375,
            "value": 0.5826771653543307
          },
          {
            "number": 11,
            "ticks": 3481,
            "time": 28.254878135416664,
            "value": 0.5748031496062992
          },
          {
            "number": 11,
            "ticks": 3485,
            "time": 28.287345677083334,
            "value": 0.5669291338582677
          },
          {
            "number": 11,
            "ticks": 3488,
            "time": 28.311696333333334,
            "value": 0.5590551181102362
          },
          {
            "number": 11,
            "ticks": 3492,
            "time": 28.344163875,
            "value": 0.5511811023622047
          },
          {
            "number": 11,
            "ticks": 3493,
            "time": 28.35228076041666,
            "value": 0.5433070866141733
          },
          {
            "number": 11,
            "ticks": 3497,
            "time": 28.384748302083334,
            "value": 0.5354330708661418
          },
          {
            "number": 11,
            "ticks": 3500,
            "time": 28.409098958333335,
            "value": 0.5275590551181102
          },
          {
            "number": 11,
            "ticks": 3508,
            "time": 28.474034041666663,
            "value": 0.5039370078740157
          },
          {
            "number": 11,
            "ticks": 3512,
            "time": 28.506501583333332,
            "value": 0.5118110236220472
          },
          {
            "number": 11,
            "ticks": 3513,
            "time": 28.514618468749998,
            "value": 0.5196850393700787
          },
          {
            "number": 11,
            "ticks": 3517,
            "time": 28.547086010416663,
            "value": 0.5275590551181102
          },
          {
            "number": 11,
            "ticks": 3520,
            "time": 28.571436666666663,
            "value": 0.5354330708661418
          },
          {
            "number": 11,
            "ticks": 3521,
            "time": 28.579553552083333,
            "value": 0.5433070866141733
          },
          {
            "number": 11,
            "ticks": 3525,
            "time": 28.61202109375,
            "value": 0.5511811023622047
          },
          {
            "number": 11,
            "ticks": 3528,
            "time": 28.63637175,
            "value": 0.5590551181102362
          },
          {
            "number": 11,
            "ticks": 3532,
            "time": 28.668839291666664,
            "value": 0.5669291338582677
          },
          {
            "number": 11,
            "ticks": 3533,
            "time": 28.676956177083333,
            "value": 0.5748031496062992
          },
          {
            "number": 11,
            "ticks": 3536,
            "time": 28.701306833333334,
            "value": 0.5826771653543307
          },
          {
            "number": 11,
            "ticks": 3540,
            "time": 28.733774375,
            "value": 0.5905511811023622
          },
          {
            "number": 11,
            "ticks": 3541,
            "time": 28.74189126041666,
            "value": 0.5984251968503937
          },
          {
            "number": 11,
            "ticks": 3544,
            "time": 28.76624191666666,
            "value": 0.6062992125984252
          },
          {
            "number": 11,
            "ticks": 3548,
            "time": 28.798709458333335,
            "value": 0.6141732283464567
          },
          {
            "number": 11,
            "ticks": 3549,
            "time": 28.806826343749997,
            "value": 0.6220472440944882
          },
          {
            "number": 11,
            "ticks": 3553,
            "time": 28.839293885416662,
            "value": 0.6299212598425197
          },
          {
            "number": 11,
            "ticks": 3556,
            "time": 28.863644541666662,
            "value": 0.6377952755905512
          },
          {
            "number": 11,
            "ticks": 3557,
            "time": 28.87176142708333,
            "value": 0.6456692913385826
          },
          {
            "number": 11,
            "ticks": 3561,
            "time": 28.904228968749997,
            "value": 0.6535433070866141
          },
          {
            "number": 11,
            "ticks": 3564,
            "time": 28.928579624999998,
            "value": 0.6614173228346457
          },
          {
            "number": 11,
            "ticks": 3565,
            "time": 28.936696510416663,
            "value": 0.6692913385826772
          },
          {
            "number": 11,
            "ticks": 3569,
            "time": 28.969164052083332,
            "value": 0.6771653543307087
          },
          {
            "number": 11,
            "ticks": 3572,
            "time": 28.993514708333333,
            "value": 0.6850393700787402
          },
          {
            "number": 11,
            "ticks": 3576,
            "time": 29.02598225,
            "value": 0.6929133858267716
          },
          {
            "number": 11,
            "ticks": 3577,
            "time": 29.034099135416664,
            "value": 0.7007874015748031
          },
          {
            "number": 11,
            "ticks": 3580,
            "time": 29.058449791666664,
            "value": 0.7086614173228346
          },
          {
            "number": 11,
            "ticks": 3584,
            "time": 29.090917333333334,
            "value": 0.7165354330708661
          },
          {
            "number": 11,
            "ticks": 3585,
            "time": 29.09903421875,
            "value": 0.7244094488188977
          },
          {
            "number": 11,
            "ticks": 3589,
            "time": 29.13150176041666,
            "value": 0.7322834645669292
          },
          {
            "number": 11,
            "ticks": 3592,
            "time": 29.15585241666666,
            "value": 0.7401574803149606
          },
          {
            "number": 11,
            "ticks": 3593,
            "time": 29.163969302083334,
            "value": 0.7480314960629921
          },
          {
            "number": 11,
            "ticks": 3597,
            "time": 29.196436843749996,
            "value": 0.7559055118110236
          },
          {
            "number": 11,
            "ticks": 3600,
            "time": 29.220787499999997,
            "value": 0.7637795275590551
          },
          {
            "number": 11,
            "ticks": 3601,
            "time": 29.228904385416662,
            "value": 0.7716535433070866
          },
          {
            "number": 11,
            "ticks": 3605,
            "time": 29.26137192708333,
            "value": 0.7795275590551181
          },
          {
            "number": 11,
            "ticks": 3608,
            "time": 29.28572258333333,
            "value": 0.7874015748031497
          },
          {
            "number": 11,
            "ticks": 3612,
            "time": 29.318190124999997,
            "value": 0.7952755905511811
          },
          {
            "number": 11,
            "ticks": 3613,
            "time": 29.326307010416663,
            "value": 0.8031496062992126
          },
          {
            "number": 11,
            "ticks": 3616,
            "time": 29.350657666666663,
            "value": 0.8110236220472441
          },
          {
            "number": 11,
            "ticks": 3620,
            "time": 29.383125208333333,
            "value": 0.8188976377952756
          },
          {
            "number": 11,
            "ticks": 3621,
            "time": 29.391242093749998,
            "value": 0.8267716535433071
          },
          {
            "number": 11,
            "ticks": 3624,
            "time": 29.41559275,
            "value": 0.8346456692913385
          },
          {
            "number": 11,
            "ticks": 3628,
            "time": 29.448060291666664,
            "value": 0.84251968503937
          },
          {
            "number": 11,
            "ticks": 3629,
            "time": 29.456177177083333,
            "value": 0.8503937007874016
          },
          {
            "number": 11,
            "ticks": 3633,
            "time": 29.48864471875,
            "value": 0.8582677165354331
          },
          {
            "number": 11,
            "ticks": 3636,
            "time": 29.512995375,
            "value": 0.8661417322834646
          },
          {
            "number": 11,
            "ticks": 3637,
            "time": 29.52111226041666,
            "value": 0.8740157480314961
          },
          {
            "number": 11,
            "ticks": 3641,
            "time": 29.553579802083334,
            "value": 0.8818897637795275
          },
          {
            "number": 11,
            "ticks": 3644,
            "time": 29.577930458333334,
            "value": 0.889763779527559
          },
          {
            "number": 11,
            "ticks": 3648,
            "time": 29.610397999999996,
            "value": 0.8976377952755905
          },
          {
            "number": 11,
            "ticks": 3649,
            "time": 29.618514885416662,
            "value": 0.905511811023622
          },
          {
            "number": 11,
            "ticks": 3652,
            "time": 29.642865541666662,
            "value": 0.9133858267716536
          },
          {
            "number": 11,
            "ticks": 3656,
            "time": 29.67533308333333,
            "value": 0.9212598425196851
          },
          {
            "number": 11,
            "ticks": 3657,
            "time": 29.683449968749997,
            "value": 0.9291338582677166
          },
          {
            "number": 11,
            "ticks": 3660,
            "time": 29.707800624999997,
            "value": 0.937007874015748
          },
          {
            "number": 11,
            "ticks": 3664,
            "time": 29.740268166666663,
            "value": 0.9448818897637795
          },
          {
            "number": 11,
            "ticks": 3665,
            "time": 29.748385052083332,
            "value": 0.952755905511811
          },
          {
            "number": 11,
            "ticks": 3669,
            "time": 29.780852593749998,
            "value": 0.9606299212598425
          },
          {
            "number": 11,
            "ticks": 3672,
            "time": 29.805203249999998,
            "value": 0.968503937007874
          },
          {
            "number": 11,
            "ticks": 3673,
            "time": 29.813320135416664,
            "value": 0.9763779527559056
          },
          {
            "number": 11,
            "ticks": 3677,
            "time": 29.845787677083333,
            "value": 0.984251968503937
          },
          {
            "number": 11,
            "ticks": 3680,
            "time": 29.870138333333333,
            "value": 0.9921259842519685
          },
          {
            "number": 11,
            "ticks": 3681,
            "time": 29.87825521875,
            "value": 1
          },
          {
            "number": 11,
            "ticks": 4081,
            "time": 33.12500938541666,
            "value": 0.9921259842519685
          },
          {
            "number": 11,
            "ticks": 4085,
            "time": 33.15747692708333,
            "value": 0.984251968503937
          },
          {
            "number": 11,
            "ticks": 4089,
            "time": 33.18994446875,
            "value": 0.9763779527559056
          },
          {
            "number": 11,
            "ticks": 4092,
            "time": 33.214295125,
            "value": 0.968503937007874
          },
          {
            "number": 11,
            "ticks": 4096,
            "time": 33.24676266666666,
            "value": 0.9606299212598425
          },
          {
            "number": 11,
            "ticks": 4097,
            "time": 33.25487955208333,
            "value": 0.952755905511811
          },
          {
            "number": 11,
            "ticks": 4101,
            "time": 33.28734709375,
            "value": 0.9448818897637795
          },
          {
            "number": 11,
            "ticks": 4105,
            "time": 33.31981463541666,
            "value": 0.937007874015748
          },
          {
            "number": 11,
            "ticks": 4108,
            "time": 33.34416529166666,
            "value": 0.9291338582677166
          },
          {
            "number": 11,
            "ticks": 4112,
            "time": 33.37663283333333,
            "value": 0.9212598425196851
          },
          {
            "number": 11,
            "ticks": 4113,
            "time": 33.384749718749994,
            "value": 0.9133858267716536
          },
          {
            "number": 11,
            "ticks": 4117,
            "time": 33.41721726041666,
            "value": 0.905511811023622
          },
          {
            "number": 11,
            "ticks": 4120,
            "time": 33.44156791666666,
            "value": 0.8976377952755905
          },
          {
            "number": 11,
            "ticks": 4124,
            "time": 33.47403545833333,
            "value": 0.889763779527559
          },
          {
            "number": 11,
            "ticks": 4128,
            "time": 33.506502999999995,
            "value": 0.8818897637795275
          },
          {
            "number": 11,
            "ticks": 4129,
            "time": 33.514619885416664,
            "value": 0.8740157480314961
          },
          {
            "number": 11,
            "ticks": 4133,
            "time": 33.54708742708333,
            "value": 0.8661417322834646
          },
          {
            "number": 11,
            "ticks": 4136,
            "time": 33.571438083333334,
            "value": 0.8582677165354331
          },
          {
            "number": 11,
            "ticks": 4140,
            "time": 33.603905624999996,
            "value": 0.8503937007874016
          },
          {
            "number": 11,
            "ticks": 4141,
            "time": 33.612022510416665,
            "value": 0.84251968503937
          },
          {
            "number": 11,
            "ticks": 4145,
            "time": 33.644490052083334,
            "value": 0.8346456692913385
          },
          {
            "number": 11,
            "ticks": 4149,
            "time": 33.67695759375,
            "value": 0.8267716535433071
          },
          {
            "number": 11,
            "ticks": 4152,
            "time": 33.70130825,
            "value": 0.8188976377952756
          },
          {
            "number": 11,
            "ticks": 4156,
            "time": 33.73377579166666,
            "value": 0.8110236220472441
          },
          {
            "number": 11,
            "ticks": 4157,
            "time": 33.741892677083335,
            "value": 0.8031496062992126
          },
          {
            "number": 11,
            "ticks": 4161,
            "time": 33.77436021875,
            "value": 0.7952755905511811
          },
          {
            "number": 11,
            "ticks": 4164,
            "time": 33.798710875,
            "value": 0.7874015748031497
          },
          {
            "number": 11,
            "ticks": 4168,
            "time": 33.83117841666666,
            "value": 0.7795275590551181
          },
          {
            "number": 11,
            "ticks": 4172,
            "time": 33.86364595833333,
            "value": 0.7716535433070866
          },
          {
            "number": 11,
            "ticks": 4173,
            "time": 33.87176284375,
            "value": 0.7637795275590551
          },
          {
            "number": 11,
            "ticks": 4177,
            "time": 33.90423038541666,
            "value": 0.7559055118110236
          },
          {
            "number": 11,
            "ticks": 4180,
            "time": 33.92858104166666,
            "value": 0.7480314960629921
          },
          {
            "number": 11,
            "ticks": 4184,
            "time": 33.96104858333333,
            "value": 0.7401574803149606
          },
          {
            "number": 11,
            "ticks": 4188,
            "time": 33.993516125,
            "value": 0.7322834645669292
          },
          {
            "number": 11,
            "ticks": 4189,
            "time": 34.00163301041666,
            "value": 0.7244094488188977
          },
          {
            "number": 11,
            "ticks": 4193,
            "time": 34.03410055208333,
            "value": 0.7165354330708661
          },
          {
            "number": 11,
            "ticks": 4196,
            "time": 34.05845120833333,
            "value": 0.7086614173228346
          },
          {
            "number": 11,
            "ticks": 4200,
            "time": 34.09091875,
            "value": 0.7007874015748031
          },
          {
            "number": 11,
            "ticks": 4201,
            "time": 34.09903563541666,
            "value": 0.6929133858267716
          },
          {
            "number": 11,
            "ticks": 4205,
            "time": 34.13150317708333,
            "value": 0.6850393700787402
          },
          {
            "number": 11,
            "ticks": 4209,
            "time": 34.16397071875,
            "value": 0.6771653543307087
          },
          {
            "number": 11,
            "ticks": 4212,
            "time": 34.188321374999994,
            "value": 0.6692913385826772
          },
          {
            "number": 11,
            "ticks": 4216,
            "time": 34.22078891666666,
            "value": 0.6614173228346457
          },
          {
            "number": 11,
            "ticks": 4217,
            "time": 34.22890580208333,
            "value": 0.6535433070866141
          },
          {
            "number": 11,
            "ticks": 4221,
            "time": 34.261373343749995,
            "value": 0.6456692913385826
          },
          {
            "number": 11,
            "ticks": 4224,
            "time": 34.285723999999995,
            "value": 0.6377952755905512
          },
          {
            "number": 11,
            "ticks": 4228,
            "time": 34.318191541666664,
            "value": 0.6299212598425197
          },
          {
            "number": 11,
            "ticks": 4232,
            "time": 34.35065908333333,
            "value": 0.6220472440944882
          },
          {
            "number": 11,
            "ticks": 4233,
            "time": 34.358775968749995,
            "value": 0.6141732283464567
          },
          {
            "number": 11,
            "ticks": 4237,
            "time": 34.391243510416665,
            "value": 0.6062992125984252
          },
          {
            "number": 11,
            "ticks": 4240,
            "time": 34.415594166666665,
            "value": 0.5984251968503937
          },
          {
            "number": 11,
            "ticks": 4244,
            "time": 34.448061708333334,
            "value": 0.5905511811023622
          },
          {
            "number": 11,
            "ticks": 4245,
            "time": 34.456178593749996,
            "value": 0.5826771653543307
          },
          {
            "number": 11,
            "ticks": 4249,
            "time": 34.488646135416666,
            "value": 0.5748031496062992
          },
          {
            "number": 11,
            "ticks": 4253,
            "time": 34.521113677083335,
            "value": 0.5669291338582677
          },
          {
            "number": 11,
            "ticks": 4256,
            "time": 34.545464333333335,
            "value": 0.5590551181102362
          },
          {
            "number": 11,
            "ticks": 4260,
            "time": 34.577931875,
            "value": 0.5511811023622047
          },
          {
            "number": 11,
            "ticks": 4261,
            "time": 34.58604876041666,
            "value": 0.5433070866141733
          },
          {
            "number": 11,
            "ticks": 4265,
            "time": 34.618516302083336,
            "value": 0.5354330708661418
          },
          {
            "number": 11,
            "ticks": 4268,
            "time": 34.642866958333336,
            "value": 0.5275590551181102
          },
          {
            "number": 11,
            "ticks": 4276,
            "time": 34.70780204166666,
            "value": 0.5039370078740157
          },
          {
            "number": 11,
            "ticks": 4280,
            "time": 34.74026958333333,
            "value": 0.5118110236220472
          },
          {
            "number": 11,
            "ticks": 4281,
            "time": 34.74838646875,
            "value": 0.5196850393700787
          },
          {
            "number": 11,
            "ticks": 4285,
            "time": 34.78085401041666,
            "value": 0.5275590551181102
          },
          {
            "number": 11,
            "ticks": 4288,
            "time": 34.80520466666666,
            "value": 0.5354330708661418
          },
          {
            "number": 11,
            "ticks": 4289,
            "time": 34.81332155208333,
            "value": 0.5433070866141733
          },
          {
            "number": 11,
            "ticks": 4293,
            "time": 34.84578909375,
            "value": 0.5511811023622047
          },
          {
            "number": 11,
            "ticks": 4296,
            "time": 34.87013975,
            "value": 0.5590551181102362
          },
          {
            "number": 11,
            "ticks": 4300,
            "time": 34.90260729166666,
            "value": 0.5669291338582677
          },
          {
            "number": 11,
            "ticks": 4301,
            "time": 34.91072417708333,
            "value": 0.5748031496062992
          },
          {
            "number": 11,
            "ticks": 4304,
            "time": 34.93507483333333,
            "value": 0.5826771653543307
          },
          {
            "number": 11,
            "ticks": 4308,
            "time": 34.967542375,
            "value": 0.5905511811023622
          },
          {
            "number": 11,
            "ticks": 4309,
            "time": 34.97565926041666,
            "value": 0.5984251968503937
          },
          {
            "number": 11,
            "ticks": 4312,
            "time": 35.00000991666666,
            "value": 0.6062992125984252
          },
          {
            "number": 11,
            "ticks": 4316,
            "time": 35.03247745833333,
            "value": 0.6141732283464567
          },
          {
            "number": 11,
            "ticks": 4317,
            "time": 35.040594343749994,
            "value": 0.6220472440944882
          },
          {
            "number": 11,
            "ticks": 4321,
            "time": 35.073061885416664,
            "value": 0.6299212598425197
          },
          {
            "number": 11,
            "ticks": 4324,
            "time": 35.097412541666664,
            "value": 0.6377952755905512
          },
          {
            "number": 11,
            "ticks": 4325,
            "time": 35.10552942708333,
            "value": 0.6456692913385826
          },
          {
            "number": 11,
            "ticks": 4329,
            "time": 35.137996968749995,
            "value": 0.6535433070866141
          },
          {
            "number": 11,
            "ticks": 4332,
            "time": 35.162347624999995,
            "value": 0.6614173228346457
          },
          {
            "number": 11,
            "ticks": 4333,
            "time": 35.170464510416664,
            "value": 0.6692913385826772
          },
          {
            "number": 11,
            "ticks": 4337,
            "time": 35.202932052083334,
            "value": 0.6771653543307087
          },
          {
            "number": 11,
            "ticks": 4340,
            "time": 35.227282708333334,
            "value": 0.6850393700787402
          },
          {
            "number": 11,
            "ticks": 4344,
            "time": 35.259750249999996,
            "value": 0.6929133858267716
          },
          {
            "number": 11,
            "ticks": 4345,
            "time": 35.267867135416665,
            "value": 0.7007874015748031
          },
          {
            "number": 11,
            "ticks": 4348,
            "time": 35.292217791666666,
            "value": 0.7086614173228346
          },
          {
            "number": 11,
            "ticks": 4352,
            "time": 35.324685333333335,
            "value": 0.7165354330708661
          },
          {
            "number": 11,
            "ticks": 4353,
            "time": 35.33280221875,
            "value": 0.7244094488188977
          },
          {
            "number": 11,
            "ticks": 4357,
            "time": 35.36526976041666,
            "value": 0.7322834645669292
          },
          {
            "number": 11,
            "ticks": 4360,
            "time": 35.38962041666666,
            "value": 0.7401574803149606
          },
          {
            "number": 11,
            "ticks": 4361,
            "time": 35.397737302083335,
            "value": 0.7480314960629921
          },
          {
            "number": 11,
            "ticks": 4365,
            "time": 35.43020484375,
            "value": 0.7559055118110236
          },
          {
            "number": 11,
            "ticks": 4368,
            "time": 35.4545555,
            "value": 0.7637795275590551
          },
          {
            "number": 11,
            "ticks": 4369,
            "time": 35.46267238541666,
            "value": 0.7716535433070866
          },
          {
            "number": 11,
            "ticks": 4373,
            "time": 35.49513992708333,
            "value": 0.7795275590551181
          },
          {
            "number": 11,
            "ticks": 4376,
            "time": 35.51949058333333,
            "value": 0.7874015748031497
          },
          {
            "number": 11,
            "ticks": 4380,
            "time": 35.551958125,
            "value": 0.7952755905511811
          },
          {
            "number": 11,
            "ticks": 4381,
            "time": 35.56007501041666,
            "value": 0.8031496062992126
          },
          {
            "number": 11,
            "ticks": 4384,
            "time": 35.58442566666666,
            "value": 0.8110236220472441
          },
          {
            "number": 11,
            "ticks": 4388,
            "time": 35.61689320833333,
            "value": 0.8188976377952756
          },
          {
            "number": 11,
            "ticks": 4389,
            "time": 35.62501009375,
            "value": 0.8267716535433071
          },
          {
            "number": 11,
            "ticks": 4392,
            "time": 35.64936075,
            "value": 0.8346456692913385
          },
          {
            "number": 11,
            "ticks": 4396,
            "time": 35.68182829166666,
            "value": 0.84251968503937
          },
          {
            "number": 11,
            "ticks": 4397,
            "time": 35.68994517708333,
            "value": 0.8503937007874016
          },
          {
            "number": 11,
            "ticks": 4401,
            "time": 35.72241271875,
            "value": 0.8582677165354331
          },
          {
            "number": 11,
            "ticks": 4404,
            "time": 35.746763375,
            "value": 0.8661417322834646
          },
          {
            "number": 11,
            "ticks": 4405,
            "time": 35.75488026041666,
            "value": 0.8740157480314961
          },
          {
            "number": 11,
            "ticks": 4409,
            "time": 35.78734780208333,
            "value": 0.8818897637795275
          },
          {
            "number": 11,
            "ticks": 4412,
            "time": 35.81169845833333,
            "value": 0.889763779527559
          },
          {
            "number": 11,
            "ticks": 4416,
            "time": 35.844165999999994,
            "value": 0.8976377952755905
          },
          {
            "number": 11,
            "ticks": 4417,
            "time": 35.85228288541666,
            "value": 0.905511811023622
          },
          {
            "number": 11,
            "ticks": 4420,
            "time": 35.87663354166666,
            "value": 0.9133858267716536
          },
          {
            "number": 11,
            "ticks": 4424,
            "time": 35.90910108333333,
            "value": 0.9212598425196851
          },
          {
            "number": 11,
            "ticks": 4425,
            "time": 35.917217968749995,
            "value": 0.9291338582677166
          },
          {
            "number": 11,
            "ticks": 4428,
            "time": 35.941568624999995,
            "value": 0.937007874015748
          },
          {
            "number": 11,
            "ticks": 4432,
            "time": 35.974036166666664,
            "value": 0.9448818897637795
          },
          {
            "number": 11,
            "ticks": 4433,
            "time": 35.98215305208333,
            "value": 0.952755905511811
          },
          {
            "number": 11,
            "ticks": 4437,
            "time": 36.014620593749996,
            "value": 0.9606299212598425
          },
          {
            "number": 11,
            "ticks": 4440,
            "time": 36.038971249999996,
            "value": 0.968503937007874
          },
          {
            "number": 11,
            "ticks": 4441,
            "time": 36.047088135416665,
            "value": 0.9763779527559056
          },
          {
            "number": 11,
            "ticks": 4445,
            "time": 36.079555677083334,
            "value": 0.984251968503937
          },
          {
            "number": 11,
            "ticks": 4448,
            "time": 36.103906333333335,
            "value": 0.9921259842519685
          },
          {
            "number": 11,
            "ticks": 4449,
            "time": 36.11202321875,
            "value": 1
          },
          {
            "number": 11,
            "ticks": 4849,
            "time": 39.35877738541666,
            "value": 0.9921259842519685
          },
          {
            "number": 11,
            "ticks": 4853,
            "time": 39.391244927083335,
            "value": 0.984251968503937
          },
          {
            "number": 11,
            "ticks": 4857,
            "time": 39.42371246875,
            "value": 0.9763779527559056
          },
          {
            "number": 11,
            "ticks": 4860,
            "time": 39.448063125,
            "value": 0.968503937007874
          },
          {
            "number": 11,
            "ticks": 4864,
            "time": 39.48053066666666,
            "value": 0.9606299212598425
          },
          {
            "number": 11,
            "ticks": 4865,
            "time": 39.48864755208333,
            "value": 0.952755905511811
          },
          {
            "number": 11,
            "ticks": 4869,
            "time": 39.52111509375,
            "value": 0.9448818897637795
          },
          {
            "number": 11,
            "ticks": 4873,
            "time": 39.55358263541666,
            "value": 0.937007874015748
          },
          {
            "number": 11,
            "ticks": 4876,
            "time": 39.57793329166666,
            "value": 0.9291338582677166
          },
          {
            "number": 11,
            "ticks": 4880,
            "time": 39.61040083333333,
            "value": 0.9212598425196851
          },
          {
            "number": 11,
            "ticks": 4881,
            "time": 39.61851771875,
            "value": 0.9133858267716536
          },
          {
            "number": 11,
            "ticks": 4885,
            "time": 39.65098526041666,
            "value": 0.905511811023622
          },
          {
            "number": 11,
            "ticks": 4888,
            "time": 39.67533591666666,
            "value": 0.8976377952755905
          },
          {
            "number": 11,
            "ticks": 4892,
            "time": 39.70780345833333,
            "value": 0.889763779527559
          },
          {
            "number": 11,
            "ticks": 4896,
            "time": 39.740271,
            "value": 0.8818897637795275
          },
          {
            "number": 11,
            "ticks": 4897,
            "time": 39.74838788541666,
            "value": 0.8740157480314961
          },
          {
            "number": 11,
            "ticks": 4901,
            "time": 39.78085542708333,
            "value": 0.8661417322834646
          },
          {
            "number": 11,
            "ticks": 4904,
            "time": 39.80520608333333,
            "value": 0.8582677165354331
          },
          {
            "number": 11,
            "ticks": 4908,
            "time": 39.837673624999994,
            "value": 0.8503937007874016
          },
          {
            "number": 11,
            "ticks": 4909,
            "time": 39.84579051041666,
            "value": 0.84251968503937
          },
          {
            "number": 11,
            "ticks": 4913,
            "time": 39.87825805208333,
            "value": 0.8346456692913385
          },
          {
            "number": 11,
            "ticks": 4917,
            "time": 39.910725593749994,
            "value": 0.8267716535433071
          },
          {
            "number": 11,
            "ticks": 4920,
            "time": 39.935076249999995,
            "value": 0.8188976377952756
          },
          {
            "number": 11,
            "ticks": 4924,
            "time": 39.967543791666664,
            "value": 0.8110236220472441
          },
          {
            "number": 11,
            "ticks": 4925,
            "time": 39.97566067708333,
            "value": 0.8031496062992126
          },
          {
            "number": 11,
            "ticks": 4929,
            "time": 40.008128218749995,
            "value": 0.7952755905511811
          },
          {
            "number": 11,
            "ticks": 4932,
            "time": 40.032478874999995,
            "value": 0.7874015748031497
          },
          {
            "number": 11,
            "ticks": 4936,
            "time": 40.064946416666665,
            "value": 0.7795275590551181
          },
          {
            "number": 11,
            "ticks": 4940,
            "time": 40.097413958333334,
            "value": 0.7716535433070866
          },
          {
            "number": 11,
            "ticks": 4941,
            "time": 40.105530843749996,
            "value": 0.7637795275590551
          },
          {
            "number": 11,
            "ticks": 4945,
            "time": 40.137998385416665,
            "value": 0.7559055118110236
          },
          {
            "number": 11,
            "ticks": 4948,
            "time": 40.16234904166666,
            "value": 0.7480314960629921
          },
          {
            "number": 11,
            "ticks": 4952,
            "time": 40.194816583333335,
            "value": 0.7401574803149606
          },
          {
            "number": 11,
            "ticks": 4956,
            "time": 40.227284125,
            "value": 0.7322834645669292
          },
          {
            "number": 11,
            "ticks": 4957,
            "time": 40.23540101041666,
            "value": 0.7244094488188977
          },
          {
            "number": 11,
            "ticks": 4961,
            "time": 40.267868552083335,
            "value": 0.7165354330708661
          },
          {
            "number": 11,
            "ticks": 4964,
            "time": 40.292219208333336,
            "value": 0.7086614173228346
          },
          {
            "number": 11,
            "ticks": 4968,
            "time": 40.32468675,
            "value": 0.7007874015748031
          },
          {
            "number": 11,
            "ticks": 4969,
            "time": 40.33280363541666,
            "value": 0.6929133858267716
          },
          {
            "number": 11,
            "ticks": 4973,
            "time": 40.36527117708333,
            "value": 0.6850393700787402
          },
          {
            "number": 11,
            "ticks": 4977,
            "time": 40.39773871875,
            "value": 0.6771653543307087
          },
          {
            "number": 11,
            "ticks": 4980,
            "time": 40.422089375,
            "value": 0.6692913385826772
          },
          {
            "number": 11,
            "ticks": 4984,
            "time": 40.45455691666666,
            "value": 0.6614173228346457
          },
          {
            "number": 11,
            "ticks": 4985,
            "time": 40.46267380208333,
            "value": 0.6535433070866141
          },
          {
            "number": 11,
            "ticks": 4989,
            "time": 40.49514134375,
            "value": 0.6456692913385826
          },
          {
            "number": 11,
            "ticks": 4992,
            "time": 40.519492,
            "value": 0.6377952755905512
          },
          {
            "number": 11,
            "ticks": 4996,
            "time": 40.55195954166666,
            "value": 0.6299212598425197
          },
          {
            "number": 11,
            "ticks": 5000,
            "time": 40.58442708333333,
            "value": 0.6220472440944882
          },
          {
            "number": 11,
            "ticks": 5001,
            "time": 40.59254396875,
            "value": 0.6141732283464567
          },
          {
            "number": 11,
            "ticks": 5005,
            "time": 40.62501151041666,
            "value": 0.6062992125984252
          },
          {
            "number": 11,
            "ticks": 5008,
            "time": 40.64936216666666,
            "value": 0.5984251968503937
          },
          {
            "number": 11,
            "ticks": 5012,
            "time": 40.68182970833333,
            "value": 0.5905511811023622
          },
          {
            "number": 11,
            "ticks": 5013,
            "time": 40.689946593749994,
            "value": 0.5826771653543307
          },
          {
            "number": 11,
            "ticks": 5017,
            "time": 40.72241413541666,
            "value": 0.5748031496062992
          },
          {
            "number": 11,
            "ticks": 5021,
            "time": 40.75488167708333,
            "value": 0.5669291338582677
          },
          {
            "number": 11,
            "ticks": 5024,
            "time": 40.77923233333333,
            "value": 0.5590551181102362
          },
          {
            "number": 11,
            "ticks": 5028,
            "time": 40.811699874999995,
            "value": 0.5511811023622047
          },
          {
            "number": 11,
            "ticks": 5029,
            "time": 40.819816760416664,
            "value": 0.5433070866141733
          },
          {
            "number": 11,
            "ticks": 5033,
            "time": 40.85228430208333,
            "value": 0.5354330708661418
          },
          {
            "number": 11,
            "ticks": 5036,
            "time": 40.876634958333334,
            "value": 0.5275590551181102
          },
          {
            "number": 11,
            "ticks": 5044,
            "time": 40.941570041666665,
            "value": 0.5039370078740157
          },
          {
            "number": 11,
            "ticks": 5048,
            "time": 40.974037583333335,
            "value": 0.5118110236220472
          },
          {
            "number": 11,
            "ticks": 5049,
            "time": 40.98215446875,
            "value": 0.5196850393700787
          },
          {
            "number": 11,
            "ticks": 5053,
            "time": 41.01462201041666,
            "value": 0.5275590551181102
          },
          {
            "number": 11,
            "ticks": 5056,
            "time": 41.03897266666666,
            "value": 0.5354330708661418
          },
          {
            "number": 11,
            "ticks": 5057,
            "time": 41.047089552083335,
            "value": 0.5433070866141733
          },
          {
            "number": 11,
            "ticks": 5061,
            "time": 41.07955709375,
            "value": 0.5511811023622047
          },
          {
            "number": 11,
            "ticks": 5064,
            "time": 41.10390775,
            "value": 0.5590551181102362
          },
          {
            "number": 11,
            "ticks": 5068,
            "time": 41.13637529166666,
            "value": 0.5669291338582677
          },
          {
            "number": 11,
            "ticks": 5069,
            "time": 41.14449217708333,
            "value": 0.5748031496062992
          },
          {
            "number": 11,
            "ticks": 5072,
            "time": 41.16884283333333,
            "value": 0.5826771653543307
          },
          {
            "number": 11,
            "ticks": 5076,
            "time": 41.201310375,
            "value": 0.5905511811023622
          },
          {
            "number": 11,
            "ticks": 5077,
            "time": 41.20942726041666,
            "value": 0.5984251968503937
          },
          {
            "number": 11,
            "ticks": 5080,
            "time": 41.23377791666666,
            "value": 0.6062992125984252
          },
          {
            "number": 11,
            "ticks": 5084,
            "time": 41.26624545833333,
            "value": 0.6141732283464567
          },
          {
            "number": 11,
            "ticks": 5085,
            "time": 41.27436234375,
            "value": 0.6220472440944882
          },
          {
            "number": 11,
            "ticks": 5089,
            "time": 41.30682988541666,
            "value": 0.6299212598425197
          },
          {
            "number": 11,
            "ticks": 5092,
            "time": 41.33118054166666,
            "value": 0.6377952755905512
          },
          {
            "number": 11,
            "ticks": 5093,
            "time": 41.33929742708333,
            "value": 0.6456692913385826
          },
          {
            "number": 11,
            "ticks": 5097,
            "time": 41.37176496875,
            "value": 0.6535433070866141
          },
          {
            "number": 11,
            "ticks": 5100,
            "time": 41.396115625,
            "value": 0.6614173228346457
          },
          {
            "number": 11,
            "ticks": 5101,
            "time": 41.40423251041666,
            "value": 0.6692913385826772
          },
          {
            "number": 11,
            "ticks": 5105,
            "time": 41.43670005208333,
            "value": 0.6771653543307087
          },
          {
            "number": 11,
            "ticks": 5108,
            "time": 41.46105070833333,
            "value": 0.6850393700787402
          },
          {
            "number": 11,
            "ticks": 5112,
            "time": 41.493518249999994,
            "value": 0.6929133858267716
          },
          {
            "number": 11,
            "ticks": 5113,
            "time": 41.50163513541666,
            "value": 0.7007874015748031
          },
          {
            "number": 11,
            "ticks": 5116,
            "time": 41.52598579166666,
            "value": 0.7086614173228346
          },
          {
            "number": 11,
            "ticks": 5120,
            "time": 41.55845333333333,
            "value": 0.7165354330708661
          },
          {
            "number": 11,
            "ticks": 5121,
            "time": 41.566570218749995,
            "value": 0.7244094488188977
          },
          {
            "number": 11,
            "ticks": 5125,
            "time": 41.599037760416664,
            "value": 0.7322834645669292
          },
          {
            "number": 11,
            "ticks": 5128,
            "time": 41.623388416666664,
            "value": 0.7401574803149606
          },
          {
            "number": 11,
            "ticks": 5129,
            "time": 41.63150530208333,
            "value": 0.7480314960629921
          },
          {
            "number": 11,
            "ticks": 5133,
            "time": 41.663972843749995,
            "value": 0.7559055118110236
          },
          {
            "number": 11,
            "ticks": 5136,
            "time": 41.688323499999996,
            "value": 0.7637795275590551
          },
          {
            "number": 11,
            "ticks": 5137,
            "time": 41.696440385416665,
            "value": 0.7716535433070866
          },
          {
            "number": 11,
            "ticks": 5141,
            "time": 41.728907927083334,
            "value": 0.7795275590551181
          },
          {
            "number": 11,
            "ticks": 5144,
            "time": 41.753258583333334,
            "value": 0.7874015748031497
          },
          {
            "number": 11,
            "ticks": 5148,
            "time": 41.785726125,
            "value": 0.7952755905511811
          },
          {
            "number": 11,
            "ticks": 5149,
            "time": 41.79384301041666,
            "value": 0.8031496062992126
          },
          {
            "number": 11,
            "ticks": 5152,
            "time": 41.81819366666666,
            "value": 0.8110236220472441
          },
          {
            "number": 11,
            "ticks": 5156,
            "time": 41.850661208333335,
            "value": 0.8188976377952756
          },
          {
            "number": 11,
            "ticks": 5157,
            "time": 41.85877809375,
            "value": 0.8267716535433071
          },
          {
            "number": 11,
            "ticks": 5160,
            "time": 41.88312875,
            "value": 0.8346456692913385
          },
          {
            "number": 11,
            "ticks": 5164,
            "time": 41.91559629166666,
            "value": 0.84251968503937
          },
          {
            "number": 11,
            "ticks": 5165,
            "time": 41.92371317708333,
            "value": 0.8503937007874016
          },
          {
            "number": 11,
            "ticks": 5169,
            "time": 41.95618071875,
            "value": 0.8582677165354331
          },
          {
            "number": 11,
            "ticks": 5172,
            "time": 41.980531375,
            "value": 0.8661417322834646
          },
          {
            "number": 11,
            "ticks": 5173,
            "time": 41.98864826041666,
            "value": 0.8740157480314961
          },
          {
            "number": 11,
            "ticks": 5177,
            "time": 42.02111580208333,
            "value": 0.8818897637795275
          },
          {
            "number": 11,
            "ticks": 5180,
            "time": 42.04546645833333,
            "value": 0.889763779527559
          },
          {
            "number": 11,
            "ticks": 5184,
            "time": 42.077934,
            "value": 0.8976377952755905
          },
          {
            "number": 11,
            "ticks": 5185,
            "time": 42.08605088541666,
            "value": 0.905511811023622
          },
          {
            "number": 11,
            "ticks": 5188,
            "time": 42.11040154166666,
            "value": 0.9133858267716536
          },
          {
            "number": 11,
            "ticks": 5192,
            "time": 42.14286908333333,
            "value": 0.9212598425196851
          },
          {
            "number": 11,
            "ticks": 5193,
            "time": 42.15098596875,
            "value": 0.9291338582677166
          },
          {
            "number": 11,
            "ticks": 5196,
            "time": 42.175336625,
            "value": 0.937007874015748
          },
          {
            "number": 11,
            "ticks": 5200,
            "time": 42.20780416666666,
            "value": 0.9448818897637795
          },
          {
            "number": 11,
            "ticks": 5201,
            "time": 42.21592105208333,
            "value": 0.952755905511811
          },
          {
            "number": 11,
            "ticks": 5205,
            "time": 42.24838859374999,
            "value": 0.9606299212598425
          },
          {
            "number": 11,
            "ticks": 5208,
            "time": 42.272739249999994,
            "value": 0.968503937007874
          },
          {
            "number": 11,
            "ticks": 5209,
            "time": 42.28085613541666,
            "value": 0.9763779527559056
          },
          {
            "number": 11,
            "ticks": 5213,
            "time": 42.31332367708333,
            "value": 0.984251968503937
          },
          {
            "number": 11,
            "ticks": 5216,
            "time": 42.33767433333333,
            "value": 0.9921259842519685
          },
          {
            "number": 11,
            "ticks": 5217,
            "time": 42.345791218749994,
            "value": 1
          },
          {
            "number": 11,
            "ticks": 5617,
            "time": 45.59254538541666,
            "value": 0.9921259842519685
          },
          {
            "number": 11,
            "ticks": 5621,
            "time": 45.62501292708333,
            "value": 0.984251968503937
          },
          {
            "number": 11,
            "ticks": 5625,
            "time": 45.657480468749995,
            "value": 0.9763779527559056
          },
          {
            "number": 11,
            "ticks": 5628,
            "time": 45.681831124999995,
            "value": 0.968503937007874
          },
          {
            "number": 11,
            "ticks": 5632,
            "time": 45.714298666666664,
            "value": 0.9606299212598425
          },
          {
            "number": 11,
            "ticks": 5633,
            "time": 45.72241555208333,
            "value": 0.952755905511811
          },
          {
            "number": 11,
            "ticks": 5637,
            "time": 45.754883093749996,
            "value": 0.9448818897637795
          },
          {
            "number": 11,
            "ticks": 5641,
            "time": 45.78735063541666,
            "value": 0.937007874015748
          },
          {
            "number": 11,
            "ticks": 5644,
            "time": 45.81170129166666,
            "value": 0.9291338582677166
          },
          {
            "number": 11,
            "ticks": 5648,
            "time": 45.844168833333335,
            "value": 0.9212598425196851
          },
          {
            "number": 11,
            "ticks": 5649,
            "time": 45.85228571875,
            "value": 0.9133858267716536
          },
          {
            "number": 11,
            "ticks": 5653,
            "time": 45.88475326041666,
            "value": 0.905511811023622
          },
          {
            "number": 11,
            "ticks": 5656,
            "time": 45.90910391666666,
            "value": 0.8976377952755905
          },
          {
            "number": 11,
            "ticks": 5660,
            "time": 45.94157145833333,
            "value": 0.889763779527559
          },
          {
            "number": 11,
            "ticks": 5664,
            "time": 45.974039,
            "value": 0.8818897637795275
          },
          {
            "number": 11,
            "ticks": 5665,
            "time": 45.98215588541666,
            "value": 0.8740157480314961
          },
          {
            "number": 11,
            "ticks": 5669,
            "time": 46.01462342708333,
            "value": 0.8661417322834646
          },
          {
            "number": 11,
            "ticks": 5672,
            "time": 46.03897408333333,
            "value": 0.8582677165354331
          },
          {
            "number": 11,
            "ticks": 5676,
            "time": 46.071441625,
            "value": 0.8503937007874016
          },
          {
            "number": 11,
            "ticks": 5677,
            "time": 46.07955851041666,
            "value": 0.84251968503937
          },
          {
            "number": 11,
            "ticks": 5681,
            "time": 46.11202605208333,
            "value": 0.8346456692913385
          },
          {
            "number": 11,
            "ticks": 5685,
            "time": 46.14449359375,
            "value": 0.8267716535433071
          },
          {
            "number": 11,
            "ticks": 5688,
            "time": 46.16884425,
            "value": 0.8188976377952756
          },
          {
            "number": 11,
            "ticks": 5692,
            "time": 46.20131179166666,
            "value": 0.8110236220472441
          },
          {
            "number": 11,
            "ticks": 5693,
            "time": 46.20942867708333,
            "value": 0.8031496062992126
          },
          {
            "number": 11,
            "ticks": 5697,
            "time": 46.24189621875,
            "value": 0.7952755905511811
          },
          {
            "number": 11,
            "ticks": 5700,
            "time": 46.26624687499999,
            "value": 0.7874015748031497
          },
          {
            "number": 11,
            "ticks": 5704,
            "time": 46.29871441666666,
            "value": 0.7795275590551181
          },
          {
            "number": 11,
            "ticks": 5708,
            "time": 46.33118195833333,
            "value": 0.7716535433070866
          },
          {
            "number": 11,
            "ticks": 5709,
            "time": 46.339298843749994,
            "value": 0.7637795275590551
          },
          {
            "number": 11,
            "ticks": 5713,
            "time": 46.37176638541666,
            "value": 0.7559055118110236
          },
          {
            "number": 11,
            "ticks": 5716,
            "time": 46.39611704166666,
            "value": 0.7480314960629921
          },
          {
            "number": 11,
            "ticks": 5720,
            "time": 46.42858458333333,
            "value": 0.7401574803149606
          },
          {
            "number": 11,
            "ticks": 5724,
            "time": 46.461052124999995,
            "value": 0.7322834645669292
          },
          {
            "number": 11,
            "ticks": 5725,
            "time": 46.469169010416664,
            "value": 0.7244094488188977
          },
          {
            "number": 11,
            "ticks": 5729,
            "time": 46.50163655208333,
            "value": 0.7165354330708661
          },
          {
            "number": 11,
            "ticks": 5732,
            "time": 46.52598720833333,
            "value": 0.7086614173228346
          },
          {
            "number": 11,
            "ticks": 5736,
            "time": 46.558454749999996,
            "value": 0.7007874015748031
          },
          {
            "number": 11,
            "ticks": 5737,
            "time": 46.566571635416665,
            "value": 0.6929133858267716
          },
          {
            "number": 11,
            "ticks": 5741,
            "time": 46.599039177083334,
            "value": 0.6850393700787402
          },
          {
            "number": 11,
            "ticks": 5745,
            "time": 46.631506718749996,
            "value": 0.6771653543307087
          },
          {
            "number": 11,
            "ticks": 5748,
            "time": 46.655857375,
            "value": 0.6692913385826772
          },
          {
            "number": 11,
            "ticks": 5752,
            "time": 46.68832491666666,
            "value": 0.6614173228346457
          },
          {
            "number": 11,
            "ticks": 5753,
            "time": 46.696441802083335,
            "value": 0.6535433070866141
          },
          {
            "number": 11,
            "ticks": 5757,
            "time": 46.72890934375,
            "value": 0.6456692913385826
          },
          {
            "number": 11,
            "ticks": 5760,
            "time": 46.75326,
            "value": 0.6377952755905512
          },
          {
            "number": 11,
            "ticks": 5764,
            "time": 46.78572754166666,
            "value": 0.6299212598425197
          },
          {
            "number": 11,
            "ticks": 5768,
            "time": 46.81819508333333,
            "value": 0.6220472440944882
          },
          {
            "number": 11,
            "ticks": 5769,
            "time": 46.82631196875,
            "value": 0.6141732283464567
          },
          {
            "number": 11,
            "ticks": 5773,
            "time": 46.85877951041666,
            "value": 0.6062992125984252
          },
          {
            "number": 11,
            "ticks": 5776,
            "time": 46.88313016666666,
            "value": 0.5984251968503937
          },
          {
            "number": 11,
            "ticks": 5780,
            "time": 46.91559770833333,
            "value": 0.5905511811023622
          },
          {
            "number": 11,
            "ticks": 5781,
            "time": 46.92371459375,
            "value": 0.5826771653543307
          },
          {
            "number": 11,
            "ticks": 5785,
            "time": 46.95618213541666,
            "value": 0.5748031496062992
          },
          {
            "number": 11,
            "ticks": 5789,
            "time": 46.98864967708333,
            "value": 0.5669291338582677
          },
          {
            "number": 11,
            "ticks": 5792,
            "time": 47.01300033333333,
            "value": 0.5590551181102362
          },
          {
            "number": 11,
            "ticks": 5796,
            "time": 47.045467875,
            "value": 0.5511811023622047
          },
          {
            "number": 11,
            "ticks": 5797,
            "time": 47.05358476041666,
            "value": 0.5433070866141733
          },
          {
            "number": 11,
            "ticks": 5801,
            "time": 47.08605230208333,
            "value": 0.5354330708661418
          },
          {
            "number": 11,
            "ticks": 5804,
            "time": 47.11040295833333,
            "value": 0.5275590551181102
          },
          {
            "number": 11,
            "ticks": 5812,
            "time": 47.17533804166666,
            "value": 0.5039370078740157
          },
          {
            "number": 11,
            "ticks": 5816,
            "time": 47.20780558333333,
            "value": 0.5118110236220472
          },
          {
            "number": 11,
            "ticks": 5817,
            "time": 47.215922468749994,
            "value": 0.5196850393700787
          },
          {
            "number": 11,
            "ticks": 5821,
            "time": 47.248390010416664,
            "value": 0.5275590551181102
          },
          {
            "number": 11,
            "ticks": 5824,
            "time": 47.272740666666664,
            "value": 0.5354330708661418
          },
          {
            "number": 11,
            "ticks": 5825,
            "time": 47.28085755208333,
            "value": 0.5433070866141733
          },
          {
            "number": 11,
            "ticks": 5829,
            "time": 47.313325093749995,
            "value": 0.5511811023622047
          },
          {
            "number": 11,
            "ticks": 5832,
            "time": 47.337675749999995,
            "value": 0.5590551181102362
          },
          {
            "number": 11,
            "ticks": 5836,
            "time": 47.370143291666665,
            "value": 0.5669291338582677
          },
          {
            "number": 11,
            "ticks": 5837,
            "time": 47.378260177083334,
            "value": 0.5748031496062992
          },
          {
            "number": 11,
            "ticks": 5840,
            "time": 47.402610833333334,
            "value": 0.5826771653543307
          },
          {
            "number": 11,
            "ticks": 5844,
            "time": 47.435078374999996,
            "value": 0.5905511811023622
          },
          {
            "number": 11,
            "ticks": 5845,
            "time": 47.44319526041666,
            "value": 0.5984251968503937
          },
          {
            "number": 11,
            "ticks": 5848,
            "time": 47.46754591666666,
            "value": 0.6062992125984252
          },
          {
            "number": 11,
            "ticks": 5852,
            "time": 47.500013458333335,
            "value": 0.6141732283464567
          },
          {
            "number": 11,
            "ticks": 5853,
            "time": 47.50813034375,
            "value": 0.6220472440944882
          },
          {
            "number": 11,
            "ticks": 5857,
            "time": 47.54059788541666,
            "value": 0.6299212598425197
          },
          {
            "number": 11,
            "ticks": 5860,
            "time": 47.56494854166666,
            "value": 0.6377952755905512
          },
          {
            "number": 11,
            "ticks": 5861,
            "time": 47.57306542708333,
            "value": 0.6456692913385826
          },
          {
            "number": 11,
            "ticks": 5865,
            "time": 47.60553296875,
            "value": 0.6535433070866141
          },
          {
            "number": 11,
            "ticks": 5868,
            "time": 47.629883625,
            "value": 0.6614173228346457
          },
          {
            "number": 11,
            "ticks": 5869,
            "time": 47.63800051041666,
            "value": 0.6692913385826772
          },
          {
            "number": 11,
            "ticks": 5873,
            "time": 47.67046805208333,
            "value": 0.6771653543307087
          },
          {
            "number": 11,
            "ticks": 5876,
            "time": 47.69481870833333,
            "value": 0.6850393700787402
          },
          {
            "number": 11,
            "ticks": 5880,
            "time": 47.72728625,
            "value": 0.6929133858267716
          },
          {
            "number": 11,
            "ticks": 5881,
            "time": 47.73540313541666,
            "value": 0.7007874015748031
          },
          {
            "number": 11,
            "ticks": 5884,
            "time": 47.75975379166666,
            "value": 0.7086614173228346
          },
          {
            "number": 11,
            "ticks": 5888,
            "time": 47.79222133333333,
            "value": 0.7165354330708661
          },
          {
            "number": 11,
            "ticks": 5889,
            "time": 47.80033821875,
            "value": 0.7244094488188977
          },
          {
            "number": 11,
            "ticks": 5893,
            "time": 47.83280576041666,
            "value": 0.7322834645669292
          },
          {
            "number": 11,
            "ticks": 5896,
            "time": 47.85715641666666,
            "value": 0.7401574803149606
          },
          {
            "number": 11,
            "ticks": 5897,
            "time": 47.86527330208333,
            "value": 0.7480314960629921
          },
          {
            "number": 11,
            "ticks": 5901,
            "time": 47.89774084374999,
            "value": 0.7559055118110236
          },
          {
            "number": 11,
            "ticks": 5904,
            "time": 47.92209149999999,
            "value": 0.7637795275590551
          },
          {
            "number": 11,
            "ticks": 5905,
            "time": 47.93020838541666,
            "value": 0.7716535433070866
          },
          {
            "number": 11,
            "ticks": 5909,
            "time": 47.96267592708333,
            "value": 0.7795275590551181
          },
          {
            "number": 11,
            "ticks": 5912,
            "time": 47.98702658333333,
            "value": 0.7874015748031497
          },
          {
            "number": 11,
            "ticks": 5916,
            "time": 48.019494124999994,
            "value": 0.7952755905511811
          },
          {
            "number": 11,
            "ticks": 5917,
            "time": 48.02761101041666,
            "value": 0.8031496062992126
          },
          {
            "number": 11,
            "ticks": 5920,
            "time": 48.051961666666664,
            "value": 0.8110236220472441
          },
          {
            "number": 11,
            "ticks": 5924,
            "time": 48.08442920833333,
            "value": 0.8188976377952756
          },
          {
            "number": 11,
            "ticks": 5925,
            "time": 48.092546093749995,
            "value": 0.8267716535433071
          },
          {
            "number": 11,
            "ticks": 5928,
            "time": 48.116896749999995,
            "value": 0.8346456692913385
          },
          {
            "number": 11,
            "ticks": 5932,
            "time": 48.149364291666664,
            "value": 0.84251968503937
          },
          {
            "number": 11,
            "ticks": 5933,
            "time": 48.15748117708333,
            "value": 0.8503937007874016
          },
          {
            "number": 11,
            "ticks": 5937,
            "time": 48.189948718749996,
            "value": 0.8582677165354331
          },
          {
            "number": 11,
            "ticks": 5940,
            "time": 48.214299374999996,
            "value": 0.8661417322834646
          },
          {
            "number": 11,
            "ticks": 5941,
            "time": 48.22241626041666,
            "value": 0.8740157480314961
          },
          {
            "number": 11,
            "ticks": 5945,
            "time": 48.254883802083334,
            "value": 0.8818897637795275
          },
          {
            "number": 11,
            "ticks": 5948,
            "time": 48.279234458333335,
            "value": 0.889763779527559
          },
          {
            "number": 11,
            "ticks": 5952,
            "time": 48.311702,
            "value": 0.8976377952755905
          },
          {
            "number": 11,
            "ticks": 5953,
            "time": 48.31981888541666,
            "value": 0.905511811023622
          },
          {
            "number": 11,
            "ticks": 5956,
            "time": 48.34416954166666,
            "value": 0.9133858267716536
          },
          {
            "number": 11,
            "ticks": 5960,
            "time": 48.37663708333333,
            "value": 0.9212598425196851
          },
          {
            "number": 11,
            "ticks": 5961,
            "time": 48.38475396875,
            "value": 0.9291338582677166
          },
          {
            "number": 11,
            "ticks": 5964,
            "time": 48.409104625,
            "value": 0.937007874015748
          },
          {
            "number": 11,
            "ticks": 5968,
            "time": 48.44157216666666,
            "value": 0.9448818897637795
          },
          {
            "number": 11,
            "ticks": 5969,
            "time": 48.44968905208333,
            "value": 0.952755905511811
          },
          {
            "number": 11,
            "ticks": 5973,
            "time": 48.48215659375,
            "value": 0.9606299212598425
          },
          {
            "number": 11,
            "ticks": 5976,
            "time": 48.50650725,
            "value": 0.968503937007874
          },
          {
            "number": 11,
            "ticks": 5977,
            "time": 48.51462413541666,
            "value": 0.9763779527559056
          },
          {
            "number": 11,
            "ticks": 5981,
            "time": 48.54709167708333,
            "value": 0.984251968503937
          },
          {
            "number": 11,
            "ticks": 5984,
            "time": 48.57144233333333,
            "value": 0.9921259842519685
          },
          {
            "number": 11,
            "ticks": 5985,
            "time": 48.57955921875,
            "value": 1
          },
          {
            "number": 11,
            "ticks": 6385,
            "time": 51.82631338541667,
            "value": 0.9921259842519685
          },
          {
            "number": 11,
            "ticks": 6389,
            "time": 51.85878092708332,
            "value": 0.984251968503937
          },
          {
            "number": 11,
            "ticks": 6393,
            "time": 51.89124846874999,
            "value": 0.9763779527559056
          },
          {
            "number": 11,
            "ticks": 6396,
            "time": 51.91559912499999,
            "value": 0.968503937007874
          },
          {
            "number": 11,
            "ticks": 6400,
            "time": 51.94806666666667,
            "value": 0.9606299212598425
          },
          {
            "number": 11,
            "ticks": 6401,
            "time": 51.956183552083324,
            "value": 0.952755905511811
          },
          {
            "number": 11,
            "ticks": 6405,
            "time": 51.98865109374999,
            "value": 0.9448818897637795
          },
          {
            "number": 11,
            "ticks": 6409,
            "time": 52.02111863541667,
            "value": 0.937007874015748
          },
          {
            "number": 11,
            "ticks": 6412,
            "time": 52.04546929166666,
            "value": 0.9291338582677166
          },
          {
            "number": 11,
            "ticks": 6416,
            "time": 52.077936833333325,
            "value": 0.9212598425196851
          },
          {
            "number": 11,
            "ticks": 6417,
            "time": 52.086053718749994,
            "value": 0.9133858267716536
          },
          {
            "number": 11,
            "ticks": 6421,
            "time": 52.118521260416664,
            "value": 0.905511811023622
          },
          {
            "number": 11,
            "ticks": 6424,
            "time": 52.142871916666664,
            "value": 0.8976377952755905
          },
          {
            "number": 11,
            "ticks": 6428,
            "time": 52.175339458333326,
            "value": 0.889763779527559
          },
          {
            "number": 11,
            "ticks": 6432,
            "time": 52.207806999999995,
            "value": 0.8818897637795275
          },
          {
            "number": 11,
            "ticks": 6433,
            "time": 52.215923885416665,
            "value": 0.8740157480314961
          },
          {
            "number": 11,
            "ticks": 6437,
            "time": 52.24839142708333,
            "value": 0.8661417322834646
          },
          {
            "number": 11,
            "ticks": 6440,
            "time": 52.27274208333333,
            "value": 0.8582677165354331
          },
          {
            "number": 11,
            "ticks": 6444,
            "time": 52.305209624999996,
            "value": 0.8503937007874016
          },
          {
            "number": 11,
            "ticks": 6445,
            "time": 52.313326510416665,
            "value": 0.84251968503937
          },
          {
            "number": 11,
            "ticks": 6449,
            "time": 52.34579405208333,
            "value": 0.8346456692913385
          },
          {
            "number": 11,
            "ticks": 6453,
            "time": 52.37826159375,
            "value": 0.8267716535433071
          },
          {
            "number": 11,
            "ticks": 6456,
            "time": 52.40261225,
            "value": 0.8188976377952756
          },
          {
            "number": 11,
            "ticks": 6460,
            "time": 52.435079791666666,
            "value": 0.8110236220472441
          },
          {
            "number": 11,
            "ticks": 6461,
            "time": 52.44319667708333,
            "value": 0.8031496062992126
          },
          {
            "number": 11,
            "ticks": 6465,
            "time": 52.47566421875,
            "value": 0.7952755905511811
          },
          {
            "number": 11,
            "ticks": 6468,
            "time": 52.500014875,
            "value": 0.7874015748031497
          },
          {
            "number": 11,
            "ticks": 6472,
            "time": 52.53248241666667,
            "value": 0.7795275590551181
          },
          {
            "number": 11,
            "ticks": 6476,
            "time": 52.56494995833332,
            "value": 0.7716535433070866
          },
          {
            "number": 11,
            "ticks": 6477,
            "time": 52.57306684375,
            "value": 0.7637795275590551
          },
          {
            "number": 11,
            "ticks": 6481,
            "time": 52.60553438541667,
            "value": 0.7559055118110236
          },
          {
            "number": 11,
            "ticks": 6484,
            "time": 52.62988504166667,
            "value": 0.7480314960629921
          },
          {
            "number": 11,
            "ticks": 6488,
            "time": 52.66235258333332,
            "value": 0.7401574803149606
          },
          {
            "number": 11,
            "ticks": 6492,
            "time": 52.69482012499999,
            "value": 0.7322834645669292
          },
          {
            "number": 11,
            "ticks": 6493,
            "time": 52.70293701041667,
            "value": 0.7244094488188977
          },
          {
            "number": 11,
            "ticks": 6497,
            "time": 52.735404552083324,
            "value": 0.7165354330708661
          },
          {
            "number": 11,
            "ticks": 6500,
            "time": 52.759755208333324,
            "value": 0.7086614173228346
          },
          {
            "number": 11,
            "ticks": 6504,
            "time": 52.79222274999999,
            "value": 0.7007874015748031
          },
          {
            "number": 11,
            "ticks": 6505,
            "time": 52.80033963541667,
            "value": 0.6929133858267716
          },
          {
            "number": 11,
            "ticks": 6509,
            "time": 52.832807177083325,
            "value": 0.6850393700787402
          },
          {
            "number": 11,
            "ticks": 6513,
            "time": 52.865274718749994,
            "value": 0.6771653543307087
          },
          {
            "number": 11,
            "ticks": 6516,
            "time": 52.889625374999994,
            "value": 0.6692913385826772
          },
          {
            "number": 11,
            "ticks": 6520,
            "time": 52.922092916666664,
            "value": 0.6614173228346457
          },
          {
            "number": 11,
            "ticks": 6521,
            "time": 52.930209802083326,
            "value": 0.6535433070866141
          },
          {
            "number": 11,
            "ticks": 6525,
            "time": 52.962677343749995,
            "value": 0.6456692913385826
          },
          {
            "number": 11,
            "ticks": 6528,
            "time": 52.987027999999995,
            "value": 0.6377952755905512
          },
          {
            "number": 11,
            "ticks": 6532,
            "time": 53.019495541666664,
            "value": 0.6299212598425197
          },
          {
            "number": 11,
            "ticks": 6536,
            "time": 53.05196308333333,
            "value": 0.6220472440944882
          },
          {
            "number": 11,
            "ticks": 6537,
            "time": 53.060079968749996,
            "value": 0.6141732283464567
          },
          {
            "number": 11,
            "ticks": 6541,
            "time": 53.092547510416665,
            "value": 0.6062992125984252
          },
          {
            "number": 11,
            "ticks": 6544,
            "time": 53.116898166666665,
            "value": 0.5984251968503937
          },
          {
            "number": 11,
            "ticks": 6548,
            "time": 53.14936570833333,
            "value": 0.5905511811023622
          },
          {
            "number": 11,
            "ticks": 6549,
            "time": 53.15748259375,
            "value": 0.5826771653543307
          },
          {
            "number": 11,
            "ticks": 6553,
            "time": 53.189950135416666,
            "value": 0.5748031496062992
          },
          {
            "number": 11,
            "ticks": 6557,
            "time": 53.22241767708333,
            "value": 0.5669291338582677
          },
          {
            "number": 11,
            "ticks": 6560,
            "time": 53.24676833333333,
            "value": 0.5590551181102362
          },
          {
            "number": 11,
            "ticks": 6564,
            "time": 53.279235875,
            "value": 0.5511811023622047
          },
          {
            "number": 11,
            "ticks": 6565,
            "time": 53.28735276041667,
            "value": 0.5433070866141733
          },
          {
            "number": 11,
            "ticks": 6569,
            "time": 53.31982030208333,
            "value": 0.5354330708661418
          },
          {
            "number": 11,
            "ticks": 6572,
            "time": 53.34417095833332,
            "value": 0.5275590551181102
          },
          {
            "number": 11,
            "ticks": 6580,
            "time": 53.40910604166667,
            "value": 0.5039370078740157
          },
          {
            "number": 11,
            "ticks": 6584,
            "time": 53.44157358333332,
            "value": 0.5118110236220472
          },
          {
            "number": 11,
            "ticks": 6585,
            "time": 53.44969046875,
            "value": 0.5196850393700787
          },
          {
            "number": 11,
            "ticks": 6589,
            "time": 53.48215801041667,
            "value": 0.5275590551181102
          },
          {
            "number": 11,
            "ticks": 6592,
            "time": 53.50650866666667,
            "value": 0.5354330708661418
          },
          {
            "number": 11,
            "ticks": 6593,
            "time": 53.514625552083324,
            "value": 0.5433070866141733
          },
          {
            "number": 11,
            "ticks": 6597,
            "time": 53.54709309374999,
            "value": 0.5511811023622047
          },
          {
            "number": 11,
            "ticks": 6600,
            "time": 53.57144374999999,
            "value": 0.5590551181102362
          },
          {
            "number": 11,
            "ticks": 6604,
            "time": 53.60391129166667,
            "value": 0.5669291338582677
          },
          {
            "number": 11,
            "ticks": 6605,
            "time": 53.612028177083324,
            "value": 0.5748031496062992
          },
          {
            "number": 11,
            "ticks": 6608,
            "time": 53.636378833333325,
            "value": 0.5826771653543307
          },
          {
            "number": 11,
            "ticks": 6612,
            "time": 53.668846374999994,
            "value": 0.5905511811023622
          },
          {
            "number": 11,
            "ticks": 6613,
            "time": 53.67696326041666,
            "value": 0.5984251968503937
          },
          {
            "number": 11,
            "ticks": 6616,
            "time": 53.70131391666666,
            "value": 0.6062992125984252
          },
          {
            "number": 11,
            "ticks": 6620,
            "time": 53.733781458333326,
            "value": 0.6141732283464567
          },
          {
            "number": 11,
            "ticks": 6621,
            "time": 53.741898343749995,
            "value": 0.6220472440944882
          },
          {
            "number": 11,
            "ticks": 6625,
            "time": 53.774365885416664,
            "value": 0.6299212598425197
          },
          {
            "number": 11,
            "ticks": 6628,
            "time": 53.798716541666664,
            "value": 0.6377952755905512
          },
          {
            "number": 11,
            "ticks": 6629,
            "time": 53.806833427083326,
            "value": 0.6456692913385826
          },
          {
            "number": 11,
            "ticks": 6633,
            "time": 53.839300968749995,
            "value": 0.6535433070866141
          },
          {
            "number": 11,
            "ticks": 6636,
            "time": 53.863651624999996,
            "value": 0.6614173228346457
          },
          {
            "number": 11,
            "ticks": 6637,
            "time": 53.871768510416665,
            "value": 0.6692913385826772
          },
          {
            "number": 11,
            "ticks": 6641,
            "time": 53.90423605208333,
            "value": 0.6771653543307087
          },
          {
            "number": 11,
            "ticks": 6644,
            "time": 53.92858670833333,
            "value": 0.6850393700787402
          },
          {
            "number": 11,
            "ticks": 6648,
            "time": 53.96105425,
            "value": 0.6929133858267716
          },
          {
            "number": 11,
            "ticks": 6649,
            "time": 53.969171135416666,
            "value": 0.7007874015748031
          },
          {
            "number": 11,
            "ticks": 6652,
            "time": 53.993521791666666,
            "value": 0.7086614173228346
          },
          {
            "number": 11,
            "ticks": 6656,
            "time": 54.02598933333333,
            "value": 0.7165354330708661
          },
          {
            "number": 11,
            "ticks": 6657,
            "time": 54.03410621875,
            "value": 0.7244094488188977
          },
          {
            "number": 11,
            "ticks": 6661,
            "time": 54.06657376041667,
            "value": 0.7322834645669292
          },
          {
            "number": 11,
            "ticks": 6664,
            "time": 54.09092441666667,
            "value": 0.7401574803149606
          },
          {
            "number": 11,
            "ticks": 6665,
            "time": 54.09904130208333,
            "value": 0.7480314960629921
          },
          {
            "number": 11,
            "ticks": 6669,
            "time": 54.13150884375,
            "value": 0.7559055118110236
          },
          {
            "number": 11,
            "ticks": 6672,
            "time": 54.1558595,
            "value": 0.7637795275590551
          },
          {
            "number": 11,
            "ticks": 6673,
            "time": 54.16397638541667,
            "value": 0.7716535433070866
          },
          {
            "number": 11,
            "ticks": 6677,
            "time": 54.19644392708332,
            "value": 0.7795275590551181
          },
          {
            "number": 11,
            "ticks": 6680,
            "time": 54.22079458333332,
            "value": 0.7874015748031497
          },
          {
            "number": 11,
            "ticks": 6684,
            "time": 54.253262125,
            "value": 0.7952755905511811
          },
          {
            "number": 11,
            "ticks": 6685,
            "time": 54.26137901041667,
            "value": 0.8031496062992126
          },
          {
            "number": 11,
            "ticks": 6688,
            "time": 54.28572966666667,
            "value": 0.8110236220472441
          },
          {
            "number": 11,
            "ticks": 6692,
            "time": 54.31819720833332,
            "value": 0.8188976377952756
          },
          {
            "number": 11,
            "ticks": 6693,
            "time": 54.32631409374999,
            "value": 0.8267716535433071
          },
          {
            "number": 11,
            "ticks": 6696,
            "time": 54.35066474999999,
            "value": 0.8346456692913385
          },
          {
            "number": 11,
            "ticks": 6700,
            "time": 54.38313229166667,
            "value": 0.84251968503937
          },
          {
            "number": 11,
            "ticks": 6701,
            "time": 54.391249177083324,
            "value": 0.8503937007874016
          },
          {
            "number": 11,
            "ticks": 6705,
            "time": 54.42371671874999,
            "value": 0.8582677165354331
          },
          {
            "number": 11,
            "ticks": 6708,
            "time": 54.448067374999994,
            "value": 0.8661417322834646
          },
          {
            "number": 11,
            "ticks": 6709,
            "time": 54.45618426041666,
            "value": 0.8740157480314961
          },
          {
            "number": 11,
            "ticks": 6713,
            "time": 54.488651802083325,
            "value": 0.8818897637795275
          },
          {
            "number": 11,
            "ticks": 6716,
            "time": 54.513002458333325,
            "value": 0.889763779527559
          },
          {
            "number": 11,
            "ticks": 6720,
            "time": 54.545469999999995,
            "value": 0.8976377952755905
          },
          {
            "number": 11,
            "ticks": 6721,
            "time": 54.553586885416664,
            "value": 0.905511811023622
          },
          {
            "number": 11,
            "ticks": 6724,
            "time": 54.577937541666664,
            "value": 0.9133858267716536
          },
          {
            "number": 11,
            "ticks": 6728,
            "time": 54.610405083333326,
            "value": 0.9212598425196851
          },
          {
            "number": 11,
            "ticks": 6729,
            "time": 54.618521968749995,
            "value": 0.9291338582677166
          },
          {
            "number": 11,
            "ticks": 6732,
            "time": 54.642872624999995,
            "value": 0.937007874015748
          },
          {
            "number": 11,
            "ticks": 6736,
            "time": 54.675340166666665,
            "value": 0.9448818897637795
          },
          {
            "number": 11,
            "ticks": 6737,
            "time": 54.68345705208333,
            "value": 0.952755905511811
          },
          {
            "number": 11,
            "ticks": 6741,
            "time": 54.715924593749996,
            "value": 0.9606299212598425
          },
          {
            "number": 11,
            "ticks": 6744,
            "time": 54.740275249999996,
            "value": 0.968503937007874
          },
          {
            "number": 11,
            "ticks": 6745,
            "time": 54.748392135416665,
            "value": 0.9763779527559056
          },
          {
            "number": 11,
            "ticks": 6749,
            "time": 54.78085967708333,
            "value": 0.984251968503937
          },
          {
            "number": 11,
            "ticks": 6752,
            "time": 54.80521033333333,
            "value": 0.9921259842519685
          },
          {
            "number": 11,
            "ticks": 6753,
            "time": 54.81332721875,
            "value": 1
          },
          {
            "number": 11,
            "ticks": 7153,
            "time": 58.060081385416666,
            "value": 0.9921259842519685
          },
          {
            "number": 11,
            "ticks": 7157,
            "time": 58.09254892708333,
            "value": 0.984251968503937
          },
          {
            "number": 11,
            "ticks": 7161,
            "time": 58.12501646875,
            "value": 0.9763779527559056
          },
          {
            "number": 11,
            "ticks": 7164,
            "time": 58.149367125,
            "value": 0.968503937007874
          },
          {
            "number": 11,
            "ticks": 7168,
            "time": 58.18183466666667,
            "value": 0.9606299212598425
          },
          {
            "number": 11,
            "ticks": 7169,
            "time": 58.18995155208332,
            "value": 0.952755905511811
          },
          {
            "number": 11,
            "ticks": 7173,
            "time": 58.22241909375,
            "value": 0.9448818897637795
          },
          {
            "number": 11,
            "ticks": 7177,
            "time": 58.25488663541667,
            "value": 0.937007874015748
          },
          {
            "number": 11,
            "ticks": 7180,
            "time": 58.27923729166667,
            "value": 0.9291338582677166
          },
          {
            "number": 11,
            "ticks": 7184,
            "time": 58.31170483333332,
            "value": 0.9212598425196851
          },
          {
            "number": 11,
            "ticks": 7185,
            "time": 58.31982171874999,
            "value": 0.9133858267716536
          },
          {
            "number": 11,
            "ticks": 7189,
            "time": 58.35228926041667,
            "value": 0.905511811023622
          },
          {
            "number": 11,
            "ticks": 7192,
            "time": 58.37663991666667,
            "value": 0.8976377952755905
          },
          {
            "number": 11,
            "ticks": 7196,
            "time": 58.409107458333324,
            "value": 0.889763779527559
          },
          {
            "number": 11,
            "ticks": 7200,
            "time": 58.44157499999999,
            "value": 0.8818897637795275
          },
          {
            "number": 11,
            "ticks": 7201,
            "time": 58.44969188541667,
            "value": 0.8740157480314961
          },
          {
            "number": 11,
            "ticks": 7205,
            "time": 58.482159427083324,
            "value": 0.8661417322834646
          },
          {
            "number": 11,
            "ticks": 7208,
            "time": 58.506510083333325,
            "value": 0.8582677165354331
          },
          {
            "number": 11,
            "ticks": 7212,
            "time": 58.538977624999994,
            "value": 0.8503937007874016
          },
          {
            "number": 11,
            "ticks": 7213,
            "time": 58.54709451041666,
            "value": 0.84251968503937
          },
          {
            "number": 11,
            "ticks": 7217,
            "time": 58.579562052083325,
            "value": 0.8346456692913385
          },
          {
            "number": 11,
            "ticks": 7221,
            "time": 58.612029593749995,
            "value": 0.8267716535433071
          },
          {
            "number": 11,
            "ticks": 7224,
            "time": 58.636380249999995,
            "value": 0.8188976377952756
          },
          {
            "number": 11,
            "ticks": 7228,
            "time": 58.668847791666664,
            "value": 0.8110236220472441
          },
          {
            "number": 11,
            "ticks": 7229,
            "time": 58.676964677083326,
            "value": 0.8031496062992126
          },
          {
            "number": 11,
            "ticks": 7233,
            "time": 58.709432218749996,
            "value": 0.7952755905511811
          },
          {
            "number": 11,
            "ticks": 7236,
            "time": 58.733782874999996,
            "value": 0.7874015748031497
          },
          {
            "number": 11,
            "ticks": 7240,
            "time": 58.766250416666665,
            "value": 0.7795275590551181
          },
          {
            "number": 11,
            "ticks": 7244,
            "time": 58.79871795833333,
            "value": 0.7716535433070866
          },
          {
            "number": 11,
            "ticks": 7245,
            "time": 58.806834843749996,
            "value": 0.7637795275590551
          },
          {
            "number": 11,
            "ticks": 7249,
            "time": 58.839302385416666,
            "value": 0.7559055118110236
          },
          {
            "number": 11,
            "ticks": 7252,
            "time": 58.863653041666666,
            "value": 0.7480314960629921
          },
          {
            "number": 11,
            "ticks": 7256,
            "time": 58.89612058333333,
            "value": 0.7401574803149606
          },
          {
            "number": 11,
            "ticks": 7260,
            "time": 58.928588125,
            "value": 0.7322834645669292
          },
          {
            "number": 11,
            "ticks": 7261,
            "time": 58.93670501041667,
            "value": 0.7244094488188977
          },
          {
            "number": 11,
            "ticks": 7265,
            "time": 58.96917255208333,
            "value": 0.7165354330708661
          },
          {
            "number": 11,
            "ticks": 7268,
            "time": 58.99352320833332,
            "value": 0.7086614173228346
          },
          {
            "number": 11,
            "ticks": 7272,
            "time": 59.02599075,
            "value": 0.7007874015748031
          },
          {
            "number": 11,
            "ticks": 7273,
            "time": 59.03410763541667,
            "value": 0.6929133858267716
          },
          {
            "number": 11,
            "ticks": 7277,
            "time": 59.06657517708332,
            "value": 0.6850393700787402
          },
          {
            "number": 11,
            "ticks": 7281,
            "time": 59.09904271875,
            "value": 0.6771653543307087
          },
          {
            "number": 11,
            "ticks": 7284,
            "time": 59.12339337499999,
            "value": 0.6692913385826772
          },
          {
            "number": 11,
            "ticks": 7288,
            "time": 59.15586091666667,
            "value": 0.6614173228346457
          },
          {
            "number": 11,
            "ticks": 7289,
            "time": 59.16397780208332,
            "value": 0.6535433070866141
          },
          {
            "number": 11,
            "ticks": 7293,
            "time": 59.19644534374999,
            "value": 0.6456692913385826
          },
          {
            "number": 11,
            "ticks": 7296,
            "time": 59.22079599999999,
            "value": 0.6377952755905512
          },
          {
            "number": 11,
            "ticks": 7300,
            "time": 59.25326354166667,
            "value": 0.6299212598425197
          },
          {
            "number": 11,
            "ticks": 7304,
            "time": 59.285731083333324,
            "value": 0.6220472440944882
          },
          {
            "number": 11,
            "ticks": 7305,
            "time": 59.29384796874999,
            "value": 0.6141732283464567
          },
          {
            "number": 11,
            "ticks": 7309,
            "time": 59.32631551041666,
            "value": 0.6062992125984252
          },
          {
            "number": 11,
            "ticks": 7312,
            "time": 59.35066616666666,
            "value": 0.5984251968503937
          },
          {
            "number": 11,
            "ticks": 7316,
            "time": 59.383133708333325,
            "value": 0.5905511811023622
          },
          {
            "number": 11,
            "ticks": 7317,
            "time": 59.391250593749994,
            "value": 0.5826771653543307
          },
          {
            "number": 11,
            "ticks": 7321,
            "time": 59.423718135416664,
            "value": 0.5748031496062992
          },
          {
            "number": 11,
            "ticks": 7325,
            "time": 59.456185677083326,
            "value": 0.5669291338582677
          },
          {
            "number": 11,
            "ticks": 7328,
            "time": 59.480536333333326,
            "value": 0.5590551181102362
          },
          {
            "number": 11,
            "ticks": 7332,
            "time": 59.513003874999995,
            "value": 0.5511811023622047
          },
          {
            "number": 11,
            "ticks": 7333,
            "time": 59.521120760416665,
            "value": 0.5433070866141733
          },
          {
            "number": 11,
            "ticks": 7337,
            "time": 59.55358830208333,
            "value": 0.5354330708661418
          },
          {
            "number": 11,
            "ticks": 7340,
            "time": 59.57793895833333,
            "value": 0.5275590551181102
          },
          {
            "number": 11,
            "ticks": 7348,
            "time": 59.642874041666666,
            "value": 0.5039370078740157
          },
          {
            "number": 11,
            "ticks": 7352,
            "time": 59.67534158333333,
            "value": 0.5118110236220472
          },
          {
            "number": 11,
            "ticks": 7353,
            "time": 59.68345846875,
            "value": 0.5196850393700787
          },
          {
            "number": 11,
            "ticks": 7357,
            "time": 59.715926010416666,
            "value": 0.5275590551181102
          },
          {
            "number": 11,
            "ticks": 7360,
            "time": 59.74027666666667,
            "value": 0.5354330708661418
          },
          {
            "number": 11,
            "ticks": 7361,
            "time": 59.74839355208333,
            "value": 0.5433070866141733
          },
          {
            "number": 11,
            "ticks": 7365,
            "time": 59.78086109375,
            "value": 0.5511811023622047
          },
          {
            "number": 11,
            "ticks": 7368,
            "time": 59.80521175,
            "value": 0.5590551181102362
          },
          {
            "number": 11,
            "ticks": 7372,
            "time": 59.83767929166667,
            "value": 0.5669291338582677
          },
          {
            "number": 11,
            "ticks": 7373,
            "time": 59.84579617708332,
            "value": 0.5748031496062992
          },
          {
            "number": 11,
            "ticks": 7376,
            "time": 59.87014683333332,
            "value": 0.5826771653543307
          },
          {
            "number": 11,
            "ticks": 7380,
            "time": 59.902614375,
            "value": 0.5905511811023622
          },
          {
            "number": 11,
            "ticks": 7381,
            "time": 59.91073126041667,
            "value": 0.5984251968503937
          },
          {
            "number": 11,
            "ticks": 7384,
            "time": 59.93508191666667,
            "value": 0.6062992125984252
          },
          {
            "number": 11,
            "ticks": 7388,
            "time": 59.96754945833332,
            "value": 0.6141732283464567
          },
          {
            "number": 11,
            "ticks": 7389,
            "time": 59.97566634374999,
            "value": 0.6220472440944882
          },
          {
            "number": 11,
            "ticks": 7393,
            "time": 60.00813388541667,
            "value": 0.6299212598425197
          },
          {
            "number": 11,
            "ticks": 7396,
            "time": 60.03248454166667,
            "value": 0.6377952755905512
          },
          {
            "number": 11,
            "ticks": 7397,
            "time": 60.040601427083324,
            "value": 0.6456692913385826
          },
          {
            "number": 11,
            "ticks": 7401,
            "time": 60.07306896874999,
            "value": 0.6535433070866141
          },
          {
            "number": 11,
            "ticks": 7404,
            "time": 60.09741962499999,
            "value": 0.6614173228346457
          },
          {
            "number": 11,
            "ticks": 7405,
            "time": 60.10553651041666,
            "value": 0.6692913385826772
          },
          {
            "number": 11,
            "ticks": 7409,
            "time": 60.138004052083325,
            "value": 0.6771653543307087
          },
          {
            "number": 11,
            "ticks": 7412,
            "time": 60.162354708333325,
            "value": 0.6850393700787402
          },
          {
            "number": 11,
            "ticks": 7416,
            "time": 60.194822249999994,
            "value": 0.6929133858267716
          },
          {
            "number": 11,
            "ticks": 7417,
            "time": 60.20293913541666,
            "value": 0.7007874015748031
          },
          {
            "number": 11,
            "ticks": 7420,
            "time": 60.227289791666664,
            "value": 0.7086614173228346
          },
          {
            "number": 11,
            "ticks": 7424,
            "time": 60.259757333333326,
            "value": 0.7165354330708661
          },
          {
            "number": 11,
            "ticks": 7425,
            "time": 60.267874218749995,
            "value": 0.7244094488188977
          },
          {
            "number": 11,
            "ticks": 7429,
            "time": 60.300341760416664,
            "value": 0.7322834645669292
          },
          {
            "number": 11,
            "ticks": 7432,
            "time": 60.324692416666664,
            "value": 0.7401574803149606
          },
          {
            "number": 11,
            "ticks": 7433,
            "time": 60.33280930208333,
            "value": 0.7480314960629921
          },
          {
            "number": 11,
            "ticks": 7437,
            "time": 60.365276843749996,
            "value": 0.7559055118110236
          },
          {
            "number": 11,
            "ticks": 7440,
            "time": 60.389627499999996,
            "value": 0.7637795275590551
          },
          {
            "number": 11,
            "ticks": 7441,
            "time": 60.397744385416665,
            "value": 0.7716535433070866
          },
          {
            "number": 11,
            "ticks": 7445,
            "time": 60.43021192708333,
            "value": 0.7795275590551181
          },
          {
            "number": 11,
            "ticks": 7448,
            "time": 60.45456258333333,
            "value": 0.7874015748031497
          },
          {
            "number": 11,
            "ticks": 7452,
            "time": 60.487030125,
            "value": 0.7952755905511811
          },
          {
            "number": 11,
            "ticks": 7453,
            "time": 60.495147010416666,
            "value": 0.8031496062992126
          },
          {
            "number": 11,
            "ticks": 7456,
            "time": 60.519497666666666,
            "value": 0.8110236220472441
          },
          {
            "number": 11,
            "ticks": 7460,
            "time": 60.55196520833333,
            "value": 0.8188976377952756
          },
          {
            "number": 11,
            "ticks": 7461,
            "time": 60.56008209375,
            "value": 0.8267716535433071
          },
          {
            "number": 11,
            "ticks": 7464,
            "time": 60.58443275,
            "value": 0.8346456692913385
          },
          {
            "number": 11,
            "ticks": 7468,
            "time": 60.61690029166667,
            "value": 0.84251968503937
          },
          {
            "number": 11,
            "ticks": 7469,
            "time": 60.62501717708332,
            "value": 0.8503937007874016
          },
          {
            "number": 11,
            "ticks": 7473,
            "time": 60.65748471875,
            "value": 0.8582677165354331
          },
          {
            "number": 11,
            "ticks": 7476,
            "time": 60.681835375,
            "value": 0.8661417322834646
          },
          {
            "number": 11,
            "ticks": 7477,
            "time": 60.68995226041667,
            "value": 0.8740157480314961
          },
          {
            "number": 11,
            "ticks": 7481,
            "time": 60.72241980208332,
            "value": 0.8818897637795275
          },
          {
            "number": 11,
            "ticks": 7484,
            "time": 60.74677045833332,
            "value": 0.889763779527559
          },
          {
            "number": 11,
            "ticks": 7488,
            "time": 60.77923799999999,
            "value": 0.8976377952755905
          },
          {
            "number": 11,
            "ticks": 7489,
            "time": 60.78735488541667,
            "value": 0.905511811023622
          },
          {
            "number": 11,
            "ticks": 7492,
            "time": 60.81170554166667,
            "value": 0.9133858267716536
          },
          {
            "number": 11,
            "ticks": 7496,
            "time": 60.844173083333324,
            "value": 0.9212598425196851
          },
          {
            "number": 11,
            "ticks": 7497,
            "time": 60.85228996874999,
            "value": 0.9291338582677166
          },
          {
            "number": 11,
            "ticks": 7500,
            "time": 60.87664062499999,
            "value": 0.937007874015748
          },
          {
            "number": 11,
            "ticks": 7504,
            "time": 60.90910816666666,
            "value": 0.9448818897637795
          },
          {
            "number": 11,
            "ticks": 7505,
            "time": 60.917225052083324,
            "value": 0.952755905511811
          },
          {
            "number": 11,
            "ticks": 7509,
            "time": 60.949692593749994,
            "value": 0.9606299212598425
          },
          {
            "number": 11,
            "ticks": 7512,
            "time": 60.974043249999994,
            "value": 0.968503937007874
          },
          {
            "number": 11,
            "ticks": 7513,
            "time": 60.98216013541666,
            "value": 0.9763779527559056
          },
          {
            "number": 11,
            "ticks": 7517,
            "time": 61.014627677083325,
            "value": 0.984251968503937
          },
          {
            "number": 11,
            "ticks": 7520,
            "time": 61.038978333333326,
            "value": 0.9921259842519685
          },
          {
            "number": 11,
            "ticks": 7521,
            "time": 61.047095218749995,
            "value": 1
          },
          {
            "number": 11,
            "ticks": 7921,
            "time": 64.29384938541666,
            "value": 0.9921259842519685
          },
          {
            "number": 11,
            "ticks": 7925,
            "time": 64.32631692708333,
            "value": 0.984251968503937
          },
          {
            "number": 11,
            "ticks": 7929,
            "time": 64.35878446874999,
            "value": 0.9763779527559056
          },
          {
            "number": 11,
            "ticks": 7932,
            "time": 64.383135125,
            "value": 0.968503937007874
          },
          {
            "number": 11,
            "ticks": 7936,
            "time": 64.41560266666667,
            "value": 0.9606299212598425
          },
          {
            "number": 11,
            "ticks": 7937,
            "time": 64.42371955208333,
            "value": 0.952755905511811
          },
          {
            "number": 11,
            "ticks": 7941,
            "time": 64.45618709374999,
            "value": 0.9448818897637795
          },
          {
            "number": 11,
            "ticks": 7945,
            "time": 64.48865463541667,
            "value": 0.937007874015748
          },
          {
            "number": 11,
            "ticks": 7948,
            "time": 64.51300529166666,
            "value": 0.9291338582677166
          },
          {
            "number": 11,
            "ticks": 7952,
            "time": 64.54547283333332,
            "value": 0.9212598425196851
          },
          {
            "number": 11,
            "ticks": 7953,
            "time": 64.55358971874999,
            "value": 0.9133858267716536
          },
          {
            "number": 11,
            "ticks": 7957,
            "time": 64.58605726041667,
            "value": 0.905511811023622
          },
          {
            "number": 11,
            "ticks": 7960,
            "time": 64.61040791666666,
            "value": 0.8976377952755905
          },
          {
            "number": 11,
            "ticks": 7964,
            "time": 64.64287545833332,
            "value": 0.889763779527559
          },
          {
            "number": 11,
            "ticks": 7968,
            "time": 64.675343,
            "value": 0.8818897637795275
          },
          {
            "number": 11,
            "ticks": 7969,
            "time": 64.68345988541667,
            "value": 0.8740157480314961
          },
          {
            "number": 11,
            "ticks": 7973,
            "time": 64.71592742708333,
            "value": 0.8661417322834646
          },
          {
            "number": 11,
            "ticks": 7976,
            "time": 64.74027808333332,
            "value": 0.8582677165354331
          },
          {
            "number": 11,
            "ticks": 7980,
            "time": 64.772745625,
            "value": 0.8503937007874016
          },
          {
            "number": 11,
            "ticks": 7981,
            "time": 64.78086251041667,
            "value": 0.84251968503937
          },
          {
            "number": 11,
            "ticks": 7985,
            "time": 64.81333005208333,
            "value": 0.8346456692913385
          },
          {
            "number": 11,
            "ticks": 7989,
            "time": 64.84579759374999,
            "value": 0.8267716535433071
          },
          {
            "number": 11,
            "ticks": 7992,
            "time": 64.87014825,
            "value": 0.8188976377952756
          },
          {
            "number": 11,
            "ticks": 7996,
            "time": 64.90261579166666,
            "value": 0.8110236220472441
          },
          {
            "number": 11,
            "ticks": 7997,
            "time": 64.91073267708333,
            "value": 0.8031496062992126
          },
          {
            "number": 11,
            "ticks": 8001,
            "time": 64.94320021875,
            "value": 0.7952755905511811
          },
          {
            "number": 11,
            "ticks": 8004,
            "time": 64.967550875,
            "value": 0.7874015748031497
          },
          {
            "number": 11,
            "ticks": 8008,
            "time": 65.00001841666666,
            "value": 0.7795275590551181
          },
          {
            "number": 11,
            "ticks": 8012,
            "time": 65.03248595833333,
            "value": 0.7716535433070866
          },
          {
            "number": 11,
            "ticks": 8013,
            "time": 65.04060284375,
            "value": 0.7637795275590551
          },
          {
            "number": 11,
            "ticks": 8017,
            "time": 65.07307038541667,
            "value": 0.7559055118110236
          },
          {
            "number": 11,
            "ticks": 8020,
            "time": 65.09742104166666,
            "value": 0.7480314960629921
          },
          {
            "number": 11,
            "ticks": 8024,
            "time": 65.12988858333333,
            "value": 0.7401574803149606
          },
          {
            "number": 11,
            "ticks": 8028,
            "time": 65.16235612499999,
            "value": 0.7322834645669292
          },
          {
            "number": 11,
            "ticks": 8029,
            "time": 65.17047301041667,
            "value": 0.7244094488188977
          },
          {
            "number": 11,
            "ticks": 8033,
            "time": 65.20294055208332,
            "value": 0.7165354330708661
          },
          {
            "number": 11,
            "ticks": 8036,
            "time": 65.22729120833333,
            "value": 0.7086614173228346
          },
          {
            "number": 11,
            "ticks": 8040,
            "time": 65.25975874999999,
            "value": 0.7007874015748031
          },
          {
            "number": 11,
            "ticks": 8041,
            "time": 65.26787563541667,
            "value": 0.6929133858267716
          },
          {
            "number": 11,
            "ticks": 8045,
            "time": 65.30034317708332,
            "value": 0.6850393700787402
          },
          {
            "number": 11,
            "ticks": 8049,
            "time": 65.33281071875,
            "value": 0.6771653543307087
          },
          {
            "number": 11,
            "ticks": 8052,
            "time": 65.35716137499999,
            "value": 0.6692913385826772
          },
          {
            "number": 11,
            "ticks": 8056,
            "time": 65.38962891666667,
            "value": 0.6614173228346457
          },
          {
            "number": 11,
            "ticks": 8057,
            "time": 65.39774580208332,
            "value": 0.6535433070866141
          },
          {
            "number": 11,
            "ticks": 8061,
            "time": 65.43021334375,
            "value": 0.6456692913385826
          },
          {
            "number": 11,
            "ticks": 8064,
            "time": 65.45456399999999,
            "value": 0.6377952755905512
          },
          {
            "number": 11,
            "ticks": 8068,
            "time": 65.48703154166667,
            "value": 0.6299212598425197
          },
          {
            "number": 11,
            "ticks": 8072,
            "time": 65.51949908333333,
            "value": 0.6220472440944882
          },
          {
            "number": 11,
            "ticks": 8073,
            "time": 65.52761596875,
            "value": 0.6141732283464567
          },
          {
            "number": 11,
            "ticks": 8077,
            "time": 65.56008351041666,
            "value": 0.6062992125984252
          },
          {
            "number": 11,
            "ticks": 8080,
            "time": 65.58443416666667,
            "value": 0.5984251968503937
          },
          {
            "number": 11,
            "ticks": 8084,
            "time": 65.61690170833333,
            "value": 0.5905511811023622
          },
          {
            "number": 11,
            "ticks": 8085,
            "time": 65.62501859375,
            "value": 0.5826771653543307
          },
          {
            "number": 11,
            "ticks": 8089,
            "time": 65.65748613541666,
            "value": 0.5748031496062992
          },
          {
            "number": 11,
            "ticks": 8093,
            "time": 65.68995367708332,
            "value": 0.5669291338582677
          },
          {
            "number": 11,
            "ticks": 8096,
            "time": 65.71430433333333,
            "value": 0.5590551181102362
          },
          {
            "number": 11,
            "ticks": 8100,
            "time": 65.746771875,
            "value": 0.5511811023622047
          },
          {
            "number": 11,
            "ticks": 8101,
            "time": 65.75488876041666,
            "value": 0.5433070866141733
          },
          {
            "number": 11,
            "ticks": 8105,
            "time": 65.78735630208332,
            "value": 0.5354330708661418
          },
          {
            "number": 11,
            "ticks": 8108,
            "time": 65.81170695833332,
            "value": 0.5275590551181102
          },
          {
            "number": 11,
            "ticks": 8116,
            "time": 65.87664204166667,
            "value": 0.5039370078740157
          },
          {
            "number": 11,
            "ticks": 8120,
            "time": 65.90910958333332,
            "value": 0.5118110236220472
          },
          {
            "number": 11,
            "ticks": 8121,
            "time": 65.91722646875,
            "value": 0.5196850393700787
          },
          {
            "number": 11,
            "ticks": 8125,
            "time": 65.94969401041666,
            "value": 0.5275590551181102
          },
          {
            "number": 11,
            "ticks": 8128,
            "time": 65.97404466666667,
            "value": 0.5354330708661418
          },
          {
            "number": 11,
            "ticks": 8129,
            "time": 65.98216155208333,
            "value": 0.5433070866141733
          },
          {
            "number": 11,
            "ticks": 8133,
            "time": 66.01462909374999,
            "value": 0.5511811023622047
          },
          {
            "number": 11,
            "ticks": 8136,
            "time": 66.03897975,
            "value": 0.5590551181102362
          },
          {
            "number": 11,
            "ticks": 8140,
            "time": 66.07144729166667,
            "value": 0.5669291338582677
          },
          {
            "number": 11,
            "ticks": 8141,
            "time": 66.07956417708333,
            "value": 0.5748031496062992
          },
          {
            "number": 11,
            "ticks": 8144,
            "time": 66.10391483333332,
            "value": 0.5826771653543307
          },
          {
            "number": 11,
            "ticks": 8148,
            "time": 66.136382375,
            "value": 0.5905511811023622
          },
          {
            "number": 11,
            "ticks": 8149,
            "time": 66.14449926041667,
            "value": 0.5984251968503937
          },
          {
            "number": 11,
            "ticks": 8152,
            "time": 66.16884991666666,
            "value": 0.6062992125984252
          },
          {
            "number": 11,
            "ticks": 8156,
            "time": 66.20131745833332,
            "value": 0.6141732283464567
          },
          {
            "number": 11,
            "ticks": 8157,
            "time": 66.20943434374999,
            "value": 0.6220472440944882
          },
          {
            "number": 11,
            "ticks": 8161,
            "time": 66.24190188541667,
            "value": 0.6299212598425197
          },
          {
            "number": 11,
            "ticks": 8164,
            "time": 66.26625254166666,
            "value": 0.6377952755905512
          },
          {
            "number": 11,
            "ticks": 8165,
            "time": 66.27436942708333,
            "value": 0.6456692913385826
          },
          {
            "number": 11,
            "ticks": 8169,
            "time": 66.30683696874999,
            "value": 0.6535433070866141
          },
          {
            "number": 11,
            "ticks": 8172,
            "time": 66.331187625,
            "value": 0.6614173228346457
          },
          {
            "number": 11,
            "ticks": 8173,
            "time": 66.33930451041667,
            "value": 0.6692913385826772
          },
          {
            "number": 11,
            "ticks": 8177,
            "time": 66.37177205208333,
            "value": 0.6771653543307087
          },
          {
            "number": 11,
            "ticks": 8180,
            "time": 66.39612270833332,
            "value": 0.6850393700787402
          },
          {
            "number": 11,
            "ticks": 8184,
            "time": 66.42859025,
            "value": 0.6929133858267716
          },
          {
            "number": 11,
            "ticks": 8185,
            "time": 66.43670713541667,
            "value": 0.7007874015748031
          },
          {
            "number": 11,
            "ticks": 8188,
            "time": 66.46105779166666,
            "value": 0.7086614173228346
          },
          {
            "number": 11,
            "ticks": 8192,
            "time": 66.49352533333332,
            "value": 0.7165354330708661
          },
          {
            "number": 11,
            "ticks": 8193,
            "time": 66.50164221874999,
            "value": 0.7244094488188977
          },
          {
            "number": 11,
            "ticks": 8197,
            "time": 66.53410976041667,
            "value": 0.7322834645669292
          },
          {
            "number": 11,
            "ticks": 8200,
            "time": 66.55846041666666,
            "value": 0.7401574803149606
          },
          {
            "number": 11,
            "ticks": 8201,
            "time": 66.56657730208333,
            "value": 0.7480314960629921
          },
          {
            "number": 11,
            "ticks": 8205,
            "time": 66.59904484375,
            "value": 0.7559055118110236
          },
          {
            "number": 11,
            "ticks": 8208,
            "time": 66.6233955,
            "value": 0.7637795275590551
          },
          {
            "number": 11,
            "ticks": 8209,
            "time": 66.63151238541667,
            "value": 0.7716535433070866
          },
          {
            "number": 11,
            "ticks": 8213,
            "time": 66.66397992708332,
            "value": 0.7795275590551181
          },
          {
            "number": 11,
            "ticks": 8216,
            "time": 66.68833058333333,
            "value": 0.7874015748031497
          },
          {
            "number": 11,
            "ticks": 8220,
            "time": 66.720798125,
            "value": 0.7952755905511811
          },
          {
            "number": 11,
            "ticks": 8221,
            "time": 66.72891501041667,
            "value": 0.8031496062992126
          },
          {
            "number": 11,
            "ticks": 8224,
            "time": 66.75326566666666,
            "value": 0.8110236220472441
          },
          {
            "number": 11,
            "ticks": 8228,
            "time": 66.78573320833333,
            "value": 0.8188976377952756
          },
          {
            "number": 11,
            "ticks": 8229,
            "time": 66.79385009375,
            "value": 0.8267716535433071
          },
          {
            "number": 11,
            "ticks": 8232,
            "time": 66.81820074999999,
            "value": 0.8346456692913385
          },
          {
            "number": 11,
            "ticks": 8236,
            "time": 66.85066829166666,
            "value": 0.84251968503937
          },
          {
            "number": 11,
            "ticks": 8237,
            "time": 66.85878517708332,
            "value": 0.8503937007874016
          },
          {
            "number": 11,
            "ticks": 8241,
            "time": 66.89125271875,
            "value": 0.8582677165354331
          },
          {
            "number": 11,
            "ticks": 8244,
            "time": 66.91560337499999,
            "value": 0.8661417322834646
          },
          {
            "number": 11,
            "ticks": 8245,
            "time": 66.92372026041666,
            "value": 0.8740157480314961
          },
          {
            "number": 11,
            "ticks": 8249,
            "time": 66.95618780208332,
            "value": 0.8818897637795275
          },
          {
            "number": 11,
            "ticks": 8252,
            "time": 66.98053845833333,
            "value": 0.889763779527559
          },
          {
            "number": 11,
            "ticks": 8256,
            "time": 67.01300599999999,
            "value": 0.8976377952755905
          },
          {
            "number": 11,
            "ticks": 8257,
            "time": 67.02112288541666,
            "value": 0.905511811023622
          },
          {
            "number": 11,
            "ticks": 8260,
            "time": 67.04547354166667,
            "value": 0.9133858267716536
          },
          {
            "number": 11,
            "ticks": 8264,
            "time": 67.07794108333333,
            "value": 0.9212598425196851
          },
          {
            "number": 11,
            "ticks": 8265,
            "time": 67.08605796875,
            "value": 0.9291338582677166
          },
          {
            "number": 11,
            "ticks": 8268,
            "time": 67.11040862499999,
            "value": 0.937007874015748
          },
          {
            "number": 11,
            "ticks": 8272,
            "time": 67.14287616666667,
            "value": 0.9448818897637795
          },
          {
            "number": 11,
            "ticks": 8273,
            "time": 67.15099305208332,
            "value": 0.952755905511811
          },
          {
            "number": 11,
            "ticks": 8277,
            "time": 67.18346059375,
            "value": 0.9606299212598425
          },
          {
            "number": 11,
            "ticks": 8280,
            "time": 67.20781124999999,
            "value": 0.968503937007874
          },
          {
            "number": 11,
            "ticks": 8281,
            "time": 67.21592813541666,
            "value": 0.9763779527559056
          },
          {
            "number": 11,
            "ticks": 8285,
            "time": 67.24839567708332,
            "value": 0.984251968503937
          },
          {
            "number": 11,
            "ticks": 8288,
            "time": 67.27274633333333,
            "value": 0.9921259842519685
          },
          {
            "number": 11,
            "ticks": 8289,
            "time": 67.28086321875,
            "value": 1
          },
          {
            "number": 11,
            "ticks": 8689,
            "time": 70.52761738541666,
            "value": 0.9921259842519685
          },
          {
            "number": 11,
            "ticks": 8693,
            "time": 70.56008492708332,
            "value": 0.984251968503937
          },
          {
            "number": 11,
            "ticks": 8697,
            "time": 70.59255246875,
            "value": 0.9763779527559056
          },
          {
            "number": 11,
            "ticks": 8700,
            "time": 70.616903125,
            "value": 0.968503937007874
          },
          {
            "number": 11,
            "ticks": 8704,
            "time": 70.64937066666667,
            "value": 0.9606299212598425
          },
          {
            "number": 11,
            "ticks": 8705,
            "time": 70.65748755208332,
            "value": 0.952755905511811
          },
          {
            "number": 11,
            "ticks": 8709,
            "time": 70.68995509375,
            "value": 0.9448818897637795
          },
          {
            "number": 11,
            "ticks": 8713,
            "time": 70.72242263541666,
            "value": 0.937007874015748
          },
          {
            "number": 11,
            "ticks": 8716,
            "time": 70.74677329166667,
            "value": 0.9291338582677166
          },
          {
            "number": 11,
            "ticks": 8720,
            "time": 70.77924083333332,
            "value": 0.9212598425196851
          },
          {
            "number": 11,
            "ticks": 8721,
            "time": 70.78735771874999,
            "value": 0.9133858267716536
          },
          {
            "number": 11,
            "ticks": 8725,
            "time": 70.81982526041666,
            "value": 0.905511811023622
          },
          {
            "number": 11,
            "ticks": 8728,
            "time": 70.84417591666667,
            "value": 0.8976377952755905
          },
          {
            "number": 11,
            "ticks": 8732,
            "time": 70.87664345833332,
            "value": 0.889763779527559
          },
          {
            "number": 11,
            "ticks": 8736,
            "time": 70.909111,
            "value": 0.8818897637795275
          },
          {
            "number": 11,
            "ticks": 8737,
            "time": 70.91722788541666,
            "value": 0.8740157480314961
          },
          {
            "number": 11,
            "ticks": 8741,
            "time": 70.94969542708333,
            "value": 0.8661417322834646
          },
          {
            "number": 11,
            "ticks": 8744,
            "time": 70.97404608333332,
            "value": 0.8582677165354331
          },
          {
            "number": 11,
            "ticks": 8748,
            "time": 71.006513625,
            "value": 0.8503937007874016
          },
          {
            "number": 11,
            "ticks": 8749,
            "time": 71.01463051041667,
            "value": 0.84251968503937
          },
          {
            "number": 11,
            "ticks": 8753,
            "time": 71.04709805208333,
            "value": 0.8346456692913385
          },
          {
            "number": 11,
            "ticks": 8757,
            "time": 71.07956559374999,
            "value": 0.8267716535433071
          },
          {
            "number": 11,
            "ticks": 8760,
            "time": 71.10391625,
            "value": 0.8188976377952756
          },
          {
            "number": 11,
            "ticks": 8764,
            "time": 71.13638379166666,
            "value": 0.8110236220472441
          },
          {
            "number": 11,
            "ticks": 8765,
            "time": 71.14450067708333,
            "value": 0.8031496062992126
          },
          {
            "number": 11,
            "ticks": 8769,
            "time": 71.17696821874999,
            "value": 0.7952755905511811
          },
          {
            "number": 11,
            "ticks": 8772,
            "time": 71.201318875,
            "value": 0.7874015748031497
          },
          {
            "number": 11,
            "ticks": 8776,
            "time": 71.23378641666666,
            "value": 0.7795275590551181
          },
          {
            "number": 11,
            "ticks": 8780,
            "time": 71.26625395833332,
            "value": 0.7716535433070866
          },
          {
            "number": 11,
            "ticks": 8781,
            "time": 71.27437084374999,
            "value": 0.7637795275590551
          },
          {
            "number": 11,
            "ticks": 8785,
            "time": 71.30683838541667,
            "value": 0.7559055118110236
          },
          {
            "number": 11,
            "ticks": 8788,
            "time": 71.33118904166666,
            "value": 0.7480314960629921
          },
          {
            "number": 11,
            "ticks": 8792,
            "time": 71.36365658333332,
            "value": 0.7401574803149606
          },
          {
            "number": 11,
            "ticks": 8796,
            "time": 71.396124125,
            "value": 0.7322834645669292
          },
          {
            "number": 11,
            "ticks": 8797,
            "time": 71.40424101041667,
            "value": 0.7244094488188977
          },
          {
            "number": 11,
            "ticks": 8801,
            "time": 71.43670855208333,
            "value": 0.7165354330708661
          },
          {
            "number": 11,
            "ticks": 8804,
            "time": 71.46105920833332,
            "value": 0.7086614173228346
          },
          {
            "number": 11,
            "ticks": 8808,
            "time": 71.49352675,
            "value": 0.7007874015748031
          },
          {
            "number": 11,
            "ticks": 8809,
            "time": 71.50164363541667,
            "value": 0.6929133858267716
          },
          {
            "number": 11,
            "ticks": 8813,
            "time": 71.53411117708332,
            "value": 0.6850393700787402
          },
          {
            "number": 11,
            "ticks": 8817,
            "time": 71.56657871875,
            "value": 0.6771653543307087
          },
          {
            "number": 11,
            "ticks": 8820,
            "time": 71.59092937499999,
            "value": 0.6692913385826772
          },
          {
            "number": 11,
            "ticks": 8824,
            "time": 71.62339691666666,
            "value": 0.6614173228346457
          },
          {
            "number": 11,
            "ticks": 8825,
            "time": 71.63151380208332,
            "value": 0.6535433070866141
          },
          {
            "number": 11,
            "ticks": 8829,
            "time": 71.66398134375,
            "value": 0.6456692913385826
          },
          {
            "number": 11,
            "ticks": 8832,
            "time": 71.68833199999999,
            "value": 0.6377952755905512
          },
          {
            "number": 11,
            "ticks": 8836,
            "time": 71.72079954166666,
            "value": 0.6299212598425197
          },
          {
            "number": 11,
            "ticks": 8840,
            "time": 71.75326708333333,
            "value": 0.6220472440944882
          },
          {
            "number": 11,
            "ticks": 8841,
            "time": 71.76138396875,
            "value": 0.6141732283464567
          },
          {
            "number": 11,
            "ticks": 8845,
            "time": 71.79385151041666,
            "value": 0.6062992125984252
          },
          {
            "number": 11,
            "ticks": 8848,
            "time": 71.81820216666667,
            "value": 0.5984251968503937
          },
          {
            "number": 11,
            "ticks": 8852,
            "time": 71.85066970833333,
            "value": 0.5905511811023622
          },
          {
            "number": 11,
            "ticks": 8853,
            "time": 71.85878659375,
            "value": 0.5826771653543307
          },
          {
            "number": 11,
            "ticks": 8857,
            "time": 71.89125413541666,
            "value": 0.5748031496062992
          },
          {
            "number": 11,
            "ticks": 8861,
            "time": 71.92372167708332,
            "value": 0.5669291338582677
          },
          {
            "number": 11,
            "ticks": 8864,
            "time": 71.94807233333333,
            "value": 0.5590551181102362
          },
          {
            "number": 11,
            "ticks": 8868,
            "time": 71.98053987499999,
            "value": 0.5511811023622047
          },
          {
            "number": 11,
            "ticks": 8869,
            "time": 71.98865676041666,
            "value": 0.5433070866141733
          },
          {
            "number": 11,
            "ticks": 8873,
            "time": 72.02112430208332,
            "value": 0.5354330708661418
          },
          {
            "number": 11,
            "ticks": 8876,
            "time": 72.04547495833333,
            "value": 0.5275590551181102
          },
          {
            "number": 11,
            "ticks": 8884,
            "time": 72.11041004166667,
            "value": 0.5039370078740157
          },
          {
            "number": 11,
            "ticks": 8888,
            "time": 72.14287758333333,
            "value": 0.5118110236220472
          },
          {
            "number": 11,
            "ticks": 8889,
            "time": 72.15099446875,
            "value": 0.5196850393700787
          },
          {
            "number": 11,
            "ticks": 8893,
            "time": 72.18346201041666,
            "value": 0.5275590551181102
          },
          {
            "number": 11,
            "ticks": 8896,
            "time": 72.20781266666667,
            "value": 0.5354330708661418
          },
          {
            "number": 11,
            "ticks": 8897,
            "time": 72.21592955208332,
            "value": 0.5433070866141733
          },
          {
            "number": 11,
            "ticks": 8901,
            "time": 72.24839709375,
            "value": 0.5511811023622047
          },
          {
            "number": 11,
            "ticks": 8904,
            "time": 72.27274775,
            "value": 0.5590551181102362
          },
          {
            "number": 11,
            "ticks": 8908,
            "time": 72.30521529166667,
            "value": 0.5669291338582677
          },
          {
            "number": 11,
            "ticks": 8909,
            "time": 72.31333217708332,
            "value": 0.5748031496062992
          },
          {
            "number": 11,
            "ticks": 8912,
            "time": 72.33768283333332,
            "value": 0.5826771653543307
          },
          {
            "number": 11,
            "ticks": 8916,
            "time": 72.370150375,
            "value": 0.5905511811023622
          },
          {
            "number": 11,
            "ticks": 8917,
            "time": 72.37826726041666,
            "value": 0.5984251968503937
          },
          {
            "number": 11,
            "ticks": 8920,
            "time": 72.40261791666667,
            "value": 0.6062992125984252
          },
          {
            "number": 11,
            "ticks": 8924,
            "time": 72.43508545833332,
            "value": 0.6141732283464567
          },
          {
            "number": 11,
            "ticks": 8925,
            "time": 72.44320234374999,
            "value": 0.6220472440944882
          },
          {
            "number": 11,
            "ticks": 8929,
            "time": 72.47566988541666,
            "value": 0.6299212598425197
          },
          {
            "number": 11,
            "ticks": 8932,
            "time": 72.50002054166667,
            "value": 0.6377952755905512
          },
          {
            "number": 11,
            "ticks": 8933,
            "time": 72.50813742708333,
            "value": 0.6456692913385826
          },
          {
            "number": 11,
            "ticks": 8937,
            "time": 72.54060496874999,
            "value": 0.6535433070866141
          },
          {
            "number": 11,
            "ticks": 8940,
            "time": 72.564955625,
            "value": 0.6614173228346457
          },
          {
            "number": 11,
            "ticks": 8941,
            "time": 72.57307251041667,
            "value": 0.6692913385826772
          },
          {
            "number": 11,
            "ticks": 8945,
            "time": 72.60554005208333,
            "value": 0.6771653543307087
          },
          {
            "number": 11,
            "ticks": 8948,
            "time": 72.62989070833332,
            "value": 0.6850393700787402
          },
          {
            "number": 11,
            "ticks": 8952,
            "time": 72.66235825,
            "value": 0.6929133858267716
          },
          {
            "number": 11,
            "ticks": 8953,
            "time": 72.67047513541667,
            "value": 0.7007874015748031
          },
          {
            "number": 11,
            "ticks": 8956,
            "time": 72.69482579166666,
            "value": 0.7086614173228346
          },
          {
            "number": 11,
            "ticks": 8960,
            "time": 72.72729333333332,
            "value": 0.7165354330708661
          },
          {
            "number": 11,
            "ticks": 8961,
            "time": 72.73541021874999,
            "value": 0.7244094488188977
          },
          {
            "number": 11,
            "ticks": 8965,
            "time": 72.76787776041667,
            "value": 0.7322834645669292
          },
          {
            "number": 11,
            "ticks": 8968,
            "time": 72.79222841666666,
            "value": 0.7401574803149606
          },
          {
            "number": 11,
            "ticks": 8969,
            "time": 72.80034530208333,
            "value": 0.7480314960629921
          },
          {
            "number": 11,
            "ticks": 8973,
            "time": 72.83281284374999,
            "value": 0.7559055118110236
          },
          {
            "number": 11,
            "ticks": 8976,
            "time": 72.8571635,
            "value": 0.7637795275590551
          },
          {
            "number": 11,
            "ticks": 8977,
            "time": 72.86528038541667,
            "value": 0.7716535433070866
          },
          {
            "number": 11,
            "ticks": 8981,
            "time": 72.89774792708333,
            "value": 0.7795275590551181
          },
          {
            "number": 11,
            "ticks": 8984,
            "time": 72.92209858333332,
            "value": 0.7874015748031497
          },
          {
            "number": 11,
            "ticks": 8988,
            "time": 72.954566125,
            "value": 0.7952755905511811
          },
          {
            "number": 11,
            "ticks": 8989,
            "time": 72.96268301041667,
            "value": 0.8031496062992126
          },
          {
            "number": 11,
            "ticks": 8992,
            "time": 72.98703366666666,
            "value": 0.8110236220472441
          },
          {
            "number": 11,
            "ticks": 8996,
            "time": 73.01950120833332,
            "value": 0.8188976377952756
          },
          {
            "number": 11,
            "ticks": 8997,
            "time": 73.02761809375,
            "value": 0.8267716535433071
          },
          {
            "number": 11,
            "ticks": 9000,
            "time": 73.05196875,
            "value": 0.8346456692913385
          },
          {
            "number": 11,
            "ticks": 9004,
            "time": 73.08443629166666,
            "value": 0.84251968503937
          },
          {
            "number": 11,
            "ticks": 9005,
            "time": 73.09255317708332,
            "value": 0.8503937007874016
          },
          {
            "number": 11,
            "ticks": 9009,
            "time": 73.12502071875,
            "value": 0.8582677165354331
          },
          {
            "number": 11,
            "ticks": 9012,
            "time": 73.149371375,
            "value": 0.8661417322834646
          },
          {
            "number": 11,
            "ticks": 9013,
            "time": 73.15748826041667,
            "value": 0.8740157480314961
          },
          {
            "number": 11,
            "ticks": 9017,
            "time": 73.18995580208332,
            "value": 0.8818897637795275
          },
          {
            "number": 11,
            "ticks": 9020,
            "time": 73.21430645833333,
            "value": 0.889763779527559
          },
          {
            "number": 11,
            "ticks": 9024,
            "time": 73.24677399999999,
            "value": 0.8976377952755905
          },
          {
            "number": 11,
            "ticks": 9025,
            "time": 73.25489088541667,
            "value": 0.905511811023622
          },
          {
            "number": 11,
            "ticks": 9028,
            "time": 73.27924154166666,
            "value": 0.9133858267716536
          },
          {
            "number": 11,
            "ticks": 9032,
            "time": 73.31170908333333,
            "value": 0.9212598425196851
          },
          {
            "number": 11,
            "ticks": 9033,
            "time": 73.31982596875,
            "value": 0.9291338582677166
          },
          {
            "number": 11,
            "ticks": 9036,
            "time": 73.34417662499999,
            "value": 0.937007874015748
          },
          {
            "number": 11,
            "ticks": 9040,
            "time": 73.37664416666667,
            "value": 0.9448818897637795
          },
          {
            "number": 11,
            "ticks": 9041,
            "time": 73.38476105208332,
            "value": 0.952755905511811
          },
          {
            "number": 11,
            "ticks": 9045,
            "time": 73.41722859375,
            "value": 0.9606299212598425
          },
          {
            "number": 11,
            "ticks": 9048,
            "time": 73.44157924999999,
            "value": 0.968503937007874
          },
          {
            "number": 11,
            "ticks": 9049,
            "time": 73.44969613541666,
            "value": 0.9763779527559056
          },
          {
            "number": 11,
            "ticks": 9053,
            "time": 73.48216367708332,
            "value": 0.984251968503937
          },
          {
            "number": 11,
            "ticks": 9056,
            "time": 73.50651433333333,
            "value": 0.9921259842519685
          },
          {
            "number": 11,
            "ticks": 9057,
            "time": 73.51463121875,
            "value": 1
          },
          {
            "number": 11,
            "ticks": 9457,
            "time": 76.76138538541666,
            "value": 0.9921259842519685
          },
          {
            "number": 11,
            "ticks": 9461,
            "time": 76.79385292708332,
            "value": 0.984251968503937
          },
          {
            "number": 11,
            "ticks": 9465,
            "time": 76.82632046875,
            "value": 0.9763779527559056
          },
          {
            "number": 11,
            "ticks": 9468,
            "time": 76.85067112499999,
            "value": 0.968503937007874
          },
          {
            "number": 11,
            "ticks": 9472,
            "time": 76.88313866666667,
            "value": 0.9606299212598425
          },
          {
            "number": 11,
            "ticks": 9473,
            "time": 76.89125555208332,
            "value": 0.952755905511811
          },
          {
            "number": 11,
            "ticks": 9477,
            "time": 76.92372309375,
            "value": 0.9448818897637795
          },
          {
            "number": 11,
            "ticks": 9481,
            "time": 76.95619063541666,
            "value": 0.937007874015748
          },
          {
            "number": 11,
            "ticks": 9484,
            "time": 76.98054129166667,
            "value": 0.9291338582677166
          },
          {
            "number": 11,
            "ticks": 9488,
            "time": 77.01300883333333,
            "value": 0.9212598425196851
          },
          {
            "number": 11,
            "ticks": 9489,
            "time": 77.02112571875,
            "value": 0.9133858267716536
          },
          {
            "number": 11,
            "ticks": 9493,
            "time": 77.05359326041666,
            "value": 0.905511811023622
          },
          {
            "number": 11,
            "ticks": 9496,
            "time": 77.07794391666667,
            "value": 0.8976377952755905
          },
          {
            "number": 11,
            "ticks": 9500,
            "time": 77.11041145833332,
            "value": 0.889763779527559
          },
          {
            "number": 11,
            "ticks": 9504,
            "time": 77.142879,
            "value": 0.8818897637795275
          },
          {
            "number": 11,
            "ticks": 9505,
            "time": 77.15099588541666,
            "value": 0.8740157480314961
          },
          {
            "number": 11,
            "ticks": 9509,
            "time": 77.18346342708332,
            "value": 0.8661417322834646
          },
          {
            "number": 11,
            "ticks": 9512,
            "time": 77.20781408333332,
            "value": 0.8582677165354331
          },
          {
            "number": 11,
            "ticks": 9516,
            "time": 77.240281625,
            "value": 0.8503937007874016
          },
          {
            "number": 11,
            "ticks": 9517,
            "time": 77.24839851041666,
            "value": 0.84251968503937
          },
          {
            "number": 11,
            "ticks": 9521,
            "time": 77.28086605208333,
            "value": 0.8346456692913385
          },
          {
            "number": 11,
            "ticks": 9525,
            "time": 77.31333359374999,
            "value": 0.8267716535433071
          },
          {
            "number": 11,
            "ticks": 9528,
            "time": 77.33768425,
            "value": 0.8188976377952756
          },
          {
            "number": 11,
            "ticks": 9532,
            "time": 77.37015179166666,
            "value": 0.8110236220472441
          },
          {
            "number": 11,
            "ticks": 9533,
            "time": 77.37826867708333,
            "value": 0.8031496062992126
          },
          {
            "number": 11,
            "ticks": 9537,
            "time": 77.41073621874999,
            "value": 0.7952755905511811
          },
          {
            "number": 11,
            "ticks": 9540,
            "time": 77.435086875,
            "value": 0.7874015748031497
          },
          {
            "number": 11,
            "ticks": 9544,
            "time": 77.46755441666666,
            "value": 0.7795275590551181
          },
          {
            "number": 11,
            "ticks": 9548,
            "time": 77.50002195833332,
            "value": 0.7716535433070866
          },
          {
            "number": 11,
            "ticks": 9549,
            "time": 77.50813884374999,
            "value": 0.7637795275590551
          },
          {
            "number": 11,
            "ticks": 9553,
            "time": 77.54060638541667,
            "value": 0.7559055118110236
          },
          {
            "number": 11,
            "ticks": 9556,
            "time": 77.56495704166666,
            "value": 0.7480314960629921
          },
          {
            "number": 11,
            "ticks": 9560,
            "time": 77.59742458333332,
            "value": 0.7401574803149606
          },
          {
            "number": 11,
            "ticks": 9564,
            "time": 77.629892125,
            "value": 0.7322834645669292
          },
          {
            "number": 11,
            "ticks": 9565,
            "time": 77.63800901041667,
            "value": 0.7244094488188977
          },
          {
            "number": 11,
            "ticks": 9569,
            "time": 77.67047655208333,
            "value": 0.7165354330708661
          },
          {
            "number": 11,
            "ticks": 9572,
            "time": 77.69482720833332,
            "value": 0.7086614173228346
          },
          {
            "number": 11,
            "ticks": 9576,
            "time": 77.72729475,
            "value": 0.7007874015748031
          },
          {
            "number": 11,
            "ticks": 9577,
            "time": 77.73541163541667,
            "value": 0.6929133858267716
          },
          {
            "number": 11,
            "ticks": 9581,
            "time": 77.76787917708333,
            "value": 0.6850393700787402
          },
          {
            "number": 11,
            "ticks": 9585,
            "time": 77.80034671874999,
            "value": 0.6771653543307087
          },
          {
            "number": 11,
            "ticks": 9588,
            "time": 77.824697375,
            "value": 0.6692913385826772
          },
          {
            "number": 11,
            "ticks": 9592,
            "time": 77.85716491666666,
            "value": 0.6614173228346457
          },
          {
            "number": 11,
            "ticks": 9593,
            "time": 77.86528180208333,
            "value": 0.6535433070866141
          },
          {
            "number": 11,
            "ticks": 9597,
            "time": 77.89774934375,
            "value": 0.6456692913385826
          },
          {
            "number": 11,
            "ticks": 9600,
            "time": 77.9221,
            "value": 0.6377952755905512
          },
          {
            "number": 11,
            "ticks": 9604,
            "time": 77.95456754166666,
            "value": 0.6299212598425197
          },
          {
            "number": 11,
            "ticks": 9608,
            "time": 77.98703508333332,
            "value": 0.6220472440944882
          },
          {
            "number": 11,
            "ticks": 9609,
            "time": 77.99515196875,
            "value": 0.6141732283464567
          },
          {
            "number": 11,
            "ticks": 9613,
            "time": 78.02761951041667,
            "value": 0.6062992125984252
          },
          {
            "number": 11,
            "ticks": 9616,
            "time": 78.05197016666666,
            "value": 0.5984251968503937
          },
          {
            "number": 11,
            "ticks": 9620,
            "time": 78.08443770833333,
            "value": 0.5905511811023622
          },
          {
            "number": 11,
            "ticks": 9621,
            "time": 78.09255459375,
            "value": 0.5826771653543307
          },
          {
            "number": 11,
            "ticks": 9625,
            "time": 78.12502213541667,
            "value": 0.5748031496062992
          },
          {
            "number": 11,
            "ticks": 9629,
            "time": 78.15748967708332,
            "value": 0.5669291338582677
          },
          {
            "number": 11,
            "ticks": 9632,
            "time": 78.18184033333333,
            "value": 0.5590551181102362
          },
          {
            "number": 11,
            "ticks": 9636,
            "time": 78.21430787499999,
            "value": 0.5511811023622047
          },
          {
            "number": 11,
            "ticks": 9637,
            "time": 78.22242476041666,
            "value": 0.5433070866141733
          },
          {
            "number": 11,
            "ticks": 9641,
            "time": 78.25489230208332,
            "value": 0.5354330708661418
          },
          {
            "number": 11,
            "ticks": 9644,
            "time": 78.27924295833333,
            "value": 0.5275590551181102
          },
          {
            "number": 11,
            "ticks": 9652,
            "time": 78.34417804166667,
            "value": 0.5039370078740157
          },
          {
            "number": 11,
            "ticks": 9656,
            "time": 78.37664558333333,
            "value": 0.5118110236220472
          },
          {
            "number": 11,
            "ticks": 9657,
            "time": 78.38476246875,
            "value": 0.5196850393700787
          },
          {
            "number": 11,
            "ticks": 9661,
            "time": 78.41723001041666,
            "value": 0.5275590551181102
          },
          {
            "number": 11,
            "ticks": 9664,
            "time": 78.44158066666667,
            "value": 0.5354330708661418
          },
          {
            "number": 11,
            "ticks": 9665,
            "time": 78.44969755208332,
            "value": 0.5433070866141733
          },
          {
            "number": 11,
            "ticks": 9669,
            "time": 78.48216509375,
            "value": 0.5511811023622047
          },
          {
            "number": 11,
            "ticks": 9672,
            "time": 78.50651574999999,
            "value": 0.5590551181102362
          },
          {
            "number": 11,
            "ticks": 9676,
            "time": 78.53898329166667,
            "value": 0.5669291338582677
          },
          {
            "number": 11,
            "ticks": 9677,
            "time": 78.54710017708332,
            "value": 0.5748031496062992
          },
          {
            "number": 11,
            "ticks": 9680,
            "time": 78.57145083333333,
            "value": 0.5826771653543307
          },
          {
            "number": 11,
            "ticks": 9684,
            "time": 78.60391837499999,
            "value": 0.5905511811023622
          },
          {
            "number": 11,
            "ticks": 9685,
            "time": 78.61203526041666,
            "value": 0.5984251968503937
          },
          {
            "number": 11,
            "ticks": 9688,
            "time": 78.63638591666667,
            "value": 0.6062992125984252
          },
          {
            "number": 11,
            "ticks": 9692,
            "time": 78.66885345833333,
            "value": 0.6141732283464567
          },
          {
            "number": 11,
            "ticks": 9693,
            "time": 78.67697034375,
            "value": 0.6220472440944882
          },
          {
            "number": 11,
            "ticks": 9697,
            "time": 78.70943788541666,
            "value": 0.6299212598425197
          },
          {
            "number": 11,
            "ticks": 9700,
            "time": 78.73378854166667,
            "value": 0.6377952755905512
          },
          {
            "number": 11,
            "ticks": 9701,
            "time": 78.74190542708332,
            "value": 0.6456692913385826
          },
          {
            "number": 11,
            "ticks": 9705,
            "time": 78.77437296875,
            "value": 0.6535433070866141
          },
          {
            "number": 11,
            "ticks": 9708,
            "time": 78.798723625,
            "value": 0.6614173228346457
          },
          {
            "number": 11,
            "ticks": 9709,
            "time": 78.80684051041666,
            "value": 0.6692913385826772
          },
          {
            "number": 11,
            "ticks": 9713,
            "time": 78.83930805208333,
            "value": 0.6771653543307087
          },
          {
            "number": 11,
            "ticks": 9716,
            "time": 78.86365870833332,
            "value": 0.6850393700787402
          },
          {
            "number": 11,
            "ticks": 9720,
            "time": 78.89612625,
            "value": 0.6929133858267716
          },
          {
            "number": 11,
            "ticks": 9721,
            "time": 78.90424313541666,
            "value": 0.7007874015748031
          },
          {
            "number": 11,
            "ticks": 9724,
            "time": 78.92859379166667,
            "value": 0.7086614173228346
          },
          {
            "number": 11,
            "ticks": 9728,
            "time": 78.96106133333332,
            "value": 0.7165354330708661
          },
          {
            "number": 11,
            "ticks": 9729,
            "time": 78.96917821874999,
            "value": 0.7244094488188977
          },
          {
            "number": 11,
            "ticks": 9733,
            "time": 79.00164576041666,
            "value": 0.7322834645669292
          },
          {
            "number": 11,
            "ticks": 9736,
            "time": 79.02599641666666,
            "value": 0.7401574803149606
          },
          {
            "number": 11,
            "ticks": 9737,
            "time": 79.03411330208333,
            "value": 0.7480314960629921
          },
          {
            "number": 11,
            "ticks": 9741,
            "time": 79.06658084374999,
            "value": 0.7559055118110236
          },
          {
            "number": 11,
            "ticks": 9744,
            "time": 79.0909315,
            "value": 0.7637795275590551
          },
          {
            "number": 11,
            "ticks": 9745,
            "time": 79.09904838541667,
            "value": 0.7716535433070866
          },
          {
            "number": 11,
            "ticks": 9749,
            "time": 79.13151592708333,
            "value": 0.7795275590551181
          },
          {
            "number": 11,
            "ticks": 9752,
            "time": 79.15586658333332,
            "value": 0.7874015748031497
          },
          {
            "number": 11,
            "ticks": 9756,
            "time": 79.188334125,
            "value": 0.7952755905511811
          },
          {
            "number": 11,
            "ticks": 9757,
            "time": 79.19645101041667,
            "value": 0.8031496062992126
          },
          {
            "number": 11,
            "ticks": 9760,
            "time": 79.22080166666666,
            "value": 0.8110236220472441
          },
          {
            "number": 11,
            "ticks": 9764,
            "time": 79.25326920833332,
            "value": 0.8188976377952756
          },
          {
            "number": 11,
            "ticks": 9765,
            "time": 79.26138609374999,
            "value": 0.8267716535433071
          },
          {
            "number": 11,
            "ticks": 9768,
            "time": 79.28573675,
            "value": 0.8346456692913385
          },
          {
            "number": 11,
            "ticks": 9772,
            "time": 79.31820429166666,
            "value": 0.84251968503937
          },
          {
            "number": 11,
            "ticks": 9773,
            "time": 79.32632117708333,
            "value": 0.8503937007874016
          },
          {
            "number": 11,
            "ticks": 9777,
            "time": 79.35878871874999,
            "value": 0.8582677165354331
          },
          {
            "number": 11,
            "ticks": 9780,
            "time": 79.383139375,
            "value": 0.8661417322834646
          },
          {
            "number": 11,
            "ticks": 9781,
            "time": 79.39125626041667,
            "value": 0.8740157480314961
          },
          {
            "number": 11,
            "ticks": 9785,
            "time": 79.42372380208333,
            "value": 0.8818897637795275
          },
          {
            "number": 11,
            "ticks": 9788,
            "time": 79.44807445833332,
            "value": 0.889763779527559
          },
          {
            "number": 11,
            "ticks": 9792,
            "time": 79.480542,
            "value": 0.8976377952755905
          },
          {
            "number": 11,
            "ticks": 9793,
            "time": 79.48865888541667,
            "value": 0.905511811023622
          },
          {
            "number": 11,
            "ticks": 9796,
            "time": 79.51300954166666,
            "value": 0.9133858267716536
          },
          {
            "number": 11,
            "ticks": 9800,
            "time": 79.54547708333332,
            "value": 0.9212598425196851
          },
          {
            "number": 11,
            "ticks": 9801,
            "time": 79.55359396875,
            "value": 0.9291338582677166
          },
          {
            "number": 11,
            "ticks": 9804,
            "time": 79.577944625,
            "value": 0.937007874015748
          },
          {
            "number": 11,
            "ticks": 9808,
            "time": 79.61041216666666,
            "value": 0.9448818897637795
          },
          {
            "number": 11,
            "ticks": 9809,
            "time": 79.61852905208332,
            "value": 0.952755905511811
          },
          {
            "number": 11,
            "ticks": 9813,
            "time": 79.65099659375,
            "value": 0.9606299212598425
          },
          {
            "number": 11,
            "ticks": 9816,
            "time": 79.67534724999999,
            "value": 0.968503937007874
          },
          {
            "number": 11,
            "ticks": 9817,
            "time": 79.68346413541667,
            "value": 0.9763779527559056
          },
          {
            "number": 11,
            "ticks": 9821,
            "time": 79.71593167708332,
            "value": 0.984251968503937
          },
          {
            "number": 11,
            "ticks": 9824,
            "time": 79.74028233333333,
            "value": 0.9921259842519685
          },
          {
            "number": 11,
            "ticks": 9825,
            "time": 79.74839921875,
            "value": 1
          },
          {
            "number": 11,
            "ticks": 10225,
            "time": 82.99515338541667,
            "value": 0.9921259842519685
          },
          {
            "number": 11,
            "ticks": 10229,
            "time": 83.02762092708332,
            "value": 0.984251968503937
          },
          {
            "number": 11,
            "ticks": 10233,
            "time": 83.06008846875,
            "value": 0.9763779527559056
          },
          {
            "number": 11,
            "ticks": 10236,
            "time": 83.08443912499999,
            "value": 0.968503937007874
          },
          {
            "number": 11,
            "ticks": 10240,
            "time": 83.11690666666667,
            "value": 0.9606299212598425
          },
          {
            "number": 11,
            "ticks": 10241,
            "time": 83.12502355208332,
            "value": 0.952755905511811
          },
          {
            "number": 11,
            "ticks": 10245,
            "time": 83.15749109375,
            "value": 0.9448818897637795
          },
          {
            "number": 11,
            "ticks": 10249,
            "time": 83.18995863541666,
            "value": 0.937007874015748
          },
          {
            "number": 11,
            "ticks": 10252,
            "time": 83.21430929166667,
            "value": 0.9291338582677166
          },
          {
            "number": 11,
            "ticks": 10256,
            "time": 83.24677683333333,
            "value": 0.9212598425196851
          },
          {
            "number": 11,
            "ticks": 10257,
            "time": 83.25489371875,
            "value": 0.9133858267716536
          },
          {
            "number": 11,
            "ticks": 10261,
            "time": 83.28736126041666,
            "value": 0.905511811023622
          },
          {
            "number": 11,
            "ticks": 10264,
            "time": 83.31171191666667,
            "value": 0.8976377952755905
          },
          {
            "number": 11,
            "ticks": 10268,
            "time": 83.34417945833333,
            "value": 0.889763779527559
          },
          {
            "number": 11,
            "ticks": 10272,
            "time": 83.37664699999999,
            "value": 0.8818897637795275
          },
          {
            "number": 11,
            "ticks": 10273,
            "time": 83.38476388541666,
            "value": 0.8740157480314961
          },
          {
            "number": 11,
            "ticks": 10277,
            "time": 83.41723142708332,
            "value": 0.8661417322834646
          },
          {
            "number": 11,
            "ticks": 10280,
            "time": 83.44158208333333,
            "value": 0.8582677165354331
          },
          {
            "number": 11,
            "ticks": 10284,
            "time": 83.47404962499999,
            "value": 0.8503937007874016
          },
          {
            "number": 11,
            "ticks": 10285,
            "time": 83.48216651041666,
            "value": 0.84251968503937
          },
          {
            "number": 11,
            "ticks": 10289,
            "time": 83.51463405208332,
            "value": 0.8346456692913385
          },
          {
            "number": 11,
            "ticks": 10293,
            "time": 83.54710159375,
            "value": 0.8267716535433071
          },
          {
            "number": 11,
            "ticks": 10296,
            "time": 83.57145225,
            "value": 0.8188976377952756
          },
          {
            "number": 11,
            "ticks": 10300,
            "time": 83.60391979166667,
            "value": 0.8110236220472441
          },
          {
            "number": 11,
            "ticks": 10301,
            "time": 83.61203667708332,
            "value": 0.8031496062992126
          },
          {
            "number": 11,
            "ticks": 10305,
            "time": 83.64450421875,
            "value": 0.7952755905511811
          },
          {
            "number": 11,
            "ticks": 10308,
            "time": 83.668854875,
            "value": 0.7874015748031497
          },
          {
            "number": 11,
            "ticks": 10312,
            "time": 83.70132241666667,
            "value": 0.7795275590551181
          },
          {
            "number": 11,
            "ticks": 10316,
            "time": 83.73378995833332,
            "value": 0.7716535433070866
          },
          {
            "number": 11,
            "ticks": 10317,
            "time": 83.74190684374999,
            "value": 0.7637795275590551
          },
          {
            "number": 11,
            "ticks": 10321,
            "time": 83.77437438541666,
            "value": 0.7559055118110236
          },
          {
            "number": 11,
            "ticks": 10324,
            "time": 83.79872504166667,
            "value": 0.7480314960629921
          },
          {
            "number": 11,
            "ticks": 10328,
            "time": 83.83119258333332,
            "value": 0.7401574803149606
          },
          {
            "number": 11,
            "ticks": 10332,
            "time": 83.863660125,
            "value": 0.7322834645669292
          },
          {
            "number": 11,
            "ticks": 10333,
            "time": 83.87177701041666,
            "value": 0.7244094488188977
          },
          {
            "number": 11,
            "ticks": 10337,
            "time": 83.90424455208333,
            "value": 0.7165354330708661
          },
          {
            "number": 11,
            "ticks": 10340,
            "time": 83.92859520833332,
            "value": 0.7086614173228346
          },
          {
            "number": 11,
            "ticks": 10344,
            "time": 83.96106275,
            "value": 0.7007874015748031
          },
          {
            "number": 11,
            "ticks": 10345,
            "time": 83.96917963541667,
            "value": 0.6929133858267716
          },
          {
            "number": 11,
            "ticks": 10349,
            "time": 84.00164717708333,
            "value": 0.6850393700787402
          },
          {
            "number": 11,
            "ticks": 10353,
            "time": 84.03411471874999,
            "value": 0.6771653543307087
          },
          {
            "number": 11,
            "ticks": 10356,
            "time": 84.058465375,
            "value": 0.6692913385826772
          },
          {
            "number": 11,
            "ticks": 10360,
            "time": 84.09093291666666,
            "value": 0.6614173228346457
          },
          {
            "number": 11,
            "ticks": 10361,
            "time": 84.09904980208333,
            "value": 0.6535433070866141
          },
          {
            "number": 11,
            "ticks": 10365,
            "time": 84.13151734374999,
            "value": 0.6456692913385826
          },
          {
            "number": 11,
            "ticks": 10368,
            "time": 84.155868,
            "value": 0.6377952755905512
          },
          {
            "number": 11,
            "ticks": 10372,
            "time": 84.18833554166666,
            "value": 0.6299212598425197
          },
          {
            "number": 11,
            "ticks": 10376,
            "time": 84.22080308333332,
            "value": 0.6220472440944882
          },
          {
            "number": 11,
            "ticks": 10377,
            "time": 84.22891996874999,
            "value": 0.6141732283464567
          },
          {
            "number": 11,
            "ticks": 10381,
            "time": 84.26138751041667,
            "value": 0.6062992125984252
          },
          {
            "number": 11,
            "ticks": 10384,
            "time": 84.28573816666666,
            "value": 0.5984251968503937
          },
          {
            "number": 11,
            "ticks": 10388,
            "time": 84.31820570833332,
            "value": 0.5905511811023622
          },
          {
            "number": 11,
            "ticks": 10389,
            "time": 84.32632259374999,
            "value": 0.5826771653543307
          },
          {
            "number": 11,
            "ticks": 10393,
            "time": 84.35879013541667,
            "value": 0.5748031496062992
          },
          {
            "number": 11,
            "ticks": 10397,
            "time": 84.39125767708332,
            "value": 0.5669291338582677
          },
          {
            "number": 11,
            "ticks": 10400,
            "time": 84.41560833333332,
            "value": 0.5590551181102362
          },
          {
            "number": 11,
            "ticks": 10404,
            "time": 84.448075875,
            "value": 0.5511811023622047
          },
          {
            "number": 11,
            "ticks": 10405,
            "time": 84.45619276041667,
            "value": 0.5433070866141733
          },
          {
            "number": 11,
            "ticks": 10409,
            "time": 84.48866030208332,
            "value": 0.5354330708661418
          },
          {
            "number": 11,
            "ticks": 10412,
            "time": 84.51301095833333,
            "value": 0.5275590551181102
          },
          {
            "number": 11,
            "ticks": 10420,
            "time": 84.57794604166666,
            "value": 0.5039370078740157
          },
          {
            "number": 11,
            "ticks": 10424,
            "time": 84.61041358333333,
            "value": 0.5118110236220472
          },
          {
            "number": 11,
            "ticks": 10425,
            "time": 84.61853046875,
            "value": 0.5196850393700787
          },
          {
            "number": 11,
            "ticks": 10429,
            "time": 84.65099801041666,
            "value": 0.5275590551181102
          },
          {
            "number": 11,
            "ticks": 10432,
            "time": 84.67534866666666,
            "value": 0.5354330708661418
          },
          {
            "number": 11,
            "ticks": 10433,
            "time": 84.68346555208332,
            "value": 0.5433070866141733
          },
          {
            "number": 11,
            "ticks": 10437,
            "time": 84.71593309375,
            "value": 0.5511811023622047
          },
          {
            "number": 11,
            "ticks": 10440,
            "time": 84.74028374999999,
            "value": 0.5590551181102362
          },
          {
            "number": 11,
            "ticks": 10444,
            "time": 84.77275129166667,
            "value": 0.5669291338582677
          },
          {
            "number": 11,
            "ticks": 10445,
            "time": 84.78086817708332,
            "value": 0.5748031496062992
          },
          {
            "number": 11,
            "ticks": 10448,
            "time": 84.80521883333333,
            "value": 0.5826771653543307
          },
          {
            "number": 11,
            "ticks": 10452,
            "time": 84.83768637499999,
            "value": 0.5905511811023622
          },
          {
            "number": 11,
            "ticks": 10453,
            "time": 84.84580326041666,
            "value": 0.5984251968503937
          },
          {
            "number": 11,
            "ticks": 10456,
            "time": 84.87015391666667,
            "value": 0.6062992125984252
          },
          {
            "number": 11,
            "ticks": 10460,
            "time": 84.90262145833333,
            "value": 0.6141732283464567
          },
          {
            "number": 11,
            "ticks": 10461,
            "time": 84.91073834375,
            "value": 0.6220472440944882
          },
          {
            "number": 11,
            "ticks": 10465,
            "time": 84.94320588541666,
            "value": 0.6299212598425197
          },
          {
            "number": 11,
            "ticks": 10468,
            "time": 84.96755654166667,
            "value": 0.6377952755905512
          },
          {
            "number": 11,
            "ticks": 10469,
            "time": 84.97567342708332,
            "value": 0.6456692913385826
          },
          {
            "number": 11,
            "ticks": 10473,
            "time": 85.00814096875,
            "value": 0.6535433070866141
          },
          {
            "number": 11,
            "ticks": 10476,
            "time": 85.03249162499999,
            "value": 0.6614173228346457
          },
          {
            "number": 11,
            "ticks": 10477,
            "time": 85.04060851041666,
            "value": 0.6692913385826772
          },
          {
            "number": 11,
            "ticks": 10481,
            "time": 85.07307605208332,
            "value": 0.6771653543307087
          },
          {
            "number": 11,
            "ticks": 10484,
            "time": 85.09742670833333,
            "value": 0.6850393700787402
          },
          {
            "number": 11,
            "ticks": 10488,
            "time": 85.12989424999999,
            "value": 0.6929133858267716
          },
          {
            "number": 11,
            "ticks": 10489,
            "time": 85.13801113541666,
            "value": 0.7007874015748031
          },
          {
            "number": 11,
            "ticks": 10492,
            "time": 85.16236179166667,
            "value": 0.7086614173228346
          },
          {
            "number": 11,
            "ticks": 10496,
            "time": 85.19482933333332,
            "value": 0.7165354330708661
          },
          {
            "number": 11,
            "ticks": 10497,
            "time": 85.20294621875,
            "value": 0.7244094488188977
          },
          {
            "number": 11,
            "ticks": 10501,
            "time": 85.23541376041666,
            "value": 0.7322834645669292
          },
          {
            "number": 11,
            "ticks": 10504,
            "time": 85.25976441666667,
            "value": 0.7401574803149606
          },
          {
            "number": 11,
            "ticks": 10505,
            "time": 85.26788130208332,
            "value": 0.7480314960629921
          },
          {
            "number": 11,
            "ticks": 10509,
            "time": 85.30034884374999,
            "value": 0.7559055118110236
          },
          {
            "number": 11,
            "ticks": 10512,
            "time": 85.3246995,
            "value": 0.7637795275590551
          },
          {
            "number": 11,
            "ticks": 10513,
            "time": 85.33281638541666,
            "value": 0.7716535433070866
          },
          {
            "number": 11,
            "ticks": 10517,
            "time": 85.36528392708333,
            "value": 0.7795275590551181
          },
          {
            "number": 11,
            "ticks": 10520,
            "time": 85.38963458333332,
            "value": 0.7874015748031497
          },
          {
            "number": 11,
            "ticks": 10524,
            "time": 85.422102125,
            "value": 0.7952755905511811
          },
          {
            "number": 11,
            "ticks": 10525,
            "time": 85.43021901041666,
            "value": 0.8031496062992126
          },
          {
            "number": 11,
            "ticks": 10528,
            "time": 85.45456966666666,
            "value": 0.8110236220472441
          },
          {
            "number": 11,
            "ticks": 10532,
            "time": 85.48703720833332,
            "value": 0.8188976377952756
          },
          {
            "number": 11,
            "ticks": 10533,
            "time": 85.49515409374999,
            "value": 0.8267716535433071
          },
          {
            "number": 11,
            "ticks": 10536,
            "time": 85.51950475,
            "value": 0.8346456692913385
          },
          {
            "number": 11,
            "ticks": 10540,
            "time": 85.55197229166666,
            "value": 0.84251968503937
          },
          {
            "number": 11,
            "ticks": 10541,
            "time": 85.56008917708333,
            "value": 0.8503937007874016
          },
          {
            "number": 11,
            "ticks": 10545,
            "time": 85.59255671874999,
            "value": 0.8582677165354331
          },
          {
            "number": 11,
            "ticks": 10548,
            "time": 85.616907375,
            "value": 0.8661417322834646
          },
          {
            "number": 11,
            "ticks": 10549,
            "time": 85.62502426041667,
            "value": 0.8740157480314961
          },
          {
            "number": 11,
            "ticks": 10553,
            "time": 85.65749180208333,
            "value": 0.8818897637795275
          },
          {
            "number": 11,
            "ticks": 10556,
            "time": 85.68184245833332,
            "value": 0.889763779527559
          },
          {
            "number": 11,
            "ticks": 10560,
            "time": 85.71431,
            "value": 0.8976377952755905
          },
          {
            "number": 11,
            "ticks": 10561,
            "time": 85.72242688541667,
            "value": 0.905511811023622
          },
          {
            "number": 11,
            "ticks": 10564,
            "time": 85.74677754166666,
            "value": 0.9133858267716536
          },
          {
            "number": 11,
            "ticks": 10568,
            "time": 85.77924508333332,
            "value": 0.9212598425196851
          },
          {
            "number": 11,
            "ticks": 10569,
            "time": 85.78736196874999,
            "value": 0.9291338582677166
          },
          {
            "number": 11,
            "ticks": 10572,
            "time": 85.811712625,
            "value": 0.937007874015748
          },
          {
            "number": 11,
            "ticks": 10576,
            "time": 85.84418016666666,
            "value": 0.9448818897637795
          },
          {
            "number": 11,
            "ticks": 10577,
            "time": 85.85229705208333,
            "value": 0.952755905511811
          },
          {
            "number": 11,
            "ticks": 10581,
            "time": 85.88476459374999,
            "value": 0.9606299212598425
          },
          {
            "number": 11,
            "ticks": 10584,
            "time": 85.90911525,
            "value": 0.968503937007874
          },
          {
            "number": 11,
            "ticks": 10585,
            "time": 85.91723213541667,
            "value": 0.9763779527559056
          },
          {
            "number": 11,
            "ticks": 10589,
            "time": 85.94969967708332,
            "value": 0.984251968503937
          },
          {
            "number": 11,
            "ticks": 10592,
            "time": 85.97405033333332,
            "value": 0.9921259842519685
          },
          {
            "number": 11,
            "ticks": 10593,
            "time": 85.98216721874999,
            "value": 1
          },
          {
            "number": 11,
            "ticks": 10993,
            "time": 89.22892138541667,
            "value": 0.9921259842519685
          },
          {
            "number": 11,
            "ticks": 10997,
            "time": 89.26138892708332,
            "value": 0.984251968503937
          },
          {
            "number": 11,
            "ticks": 11001,
            "time": 89.29385646875,
            "value": 0.9763779527559056
          },
          {
            "number": 11,
            "ticks": 11004,
            "time": 89.31820712499999,
            "value": 0.968503937007874
          },
          {
            "number": 11,
            "ticks": 11008,
            "time": 89.35067466666666,
            "value": 0.9606299212598425
          },
          {
            "number": 11,
            "ticks": 11009,
            "time": 89.35879155208332,
            "value": 0.952755905511811
          },
          {
            "number": 11,
            "ticks": 11013,
            "time": 89.39125909375,
            "value": 0.9448818897637795
          },
          {
            "number": 11,
            "ticks": 11017,
            "time": 89.42372663541667,
            "value": 0.937007874015748
          },
          {
            "number": 11,
            "ticks": 11020,
            "time": 89.44807729166666,
            "value": 0.9291338582677166
          },
          {
            "number": 11,
            "ticks": 11024,
            "time": 89.48054483333333,
            "value": 0.9212598425196851
          },
          {
            "number": 11,
            "ticks": 11025,
            "time": 89.48866171875,
            "value": 0.9133858267716536
          },
          {
            "number": 11,
            "ticks": 11029,
            "time": 89.52112926041666,
            "value": 0.905511811023622
          },
          {
            "number": 11,
            "ticks": 11032,
            "time": 89.54547991666666,
            "value": 0.8976377952755905
          },
          {
            "number": 11,
            "ticks": 11036,
            "time": 89.57794745833333,
            "value": 0.889763779527559
          },
          {
            "number": 11,
            "ticks": 11040,
            "time": 89.61041499999999,
            "value": 0.8818897637795275
          },
          {
            "number": 11,
            "ticks": 11041,
            "time": 89.61853188541666,
            "value": 0.8740157480314961
          },
          {
            "number": 11,
            "ticks": 11045,
            "time": 89.65099942708332,
            "value": 0.8661417322834646
          },
          {
            "number": 11,
            "ticks": 11048,
            "time": 89.67535008333333,
            "value": 0.8582677165354331
          },
          {
            "number": 11,
            "ticks": 11052,
            "time": 89.70781762499999,
            "value": 0.8503937007874016
          },
          {
            "number": 11,
            "ticks": 11053,
            "time": 89.71593451041666,
            "value": 0.84251968503937
          },
          {
            "number": 11,
            "ticks": 11057,
            "time": 89.74840205208332,
            "value": 0.8346456692913385
          },
          {
            "number": 11,
            "ticks": 11061,
            "time": 89.78086959375,
            "value": 0.8267716535433071
          },
          {
            "number": 11,
            "ticks": 11064,
            "time": 89.80522024999999,
            "value": 0.8188976377952756
          },
          {
            "number": 11,
            "ticks": 11068,
            "time": 89.83768779166667,
            "value": 0.8110236220472441
          },
          {
            "number": 11,
            "ticks": 11069,
            "time": 89.84580467708332,
            "value": 0.8031496062992126
          },
          {
            "number": 11,
            "ticks": 11073,
            "time": 89.87827221875,
            "value": 0.7952755905511811
          },
          {
            "number": 11,
            "ticks": 11076,
            "time": 89.90262287499999,
            "value": 0.7874015748031497
          },
          {
            "number": 11,
            "ticks": 11080,
            "time": 89.93509041666667,
            "value": 0.7795275590551181
          },
          {
            "number": 11,
            "ticks": 11084,
            "time": 89.96755795833332,
            "value": 0.7716535433070866
          },
          {
            "number": 11,
            "ticks": 11085,
            "time": 89.97567484375,
            "value": 0.7637795275590551
          },
          {
            "number": 11,
            "ticks": 11089,
            "time": 90.00814238541666,
            "value": 0.7559055118110236
          },
          {
            "number": 11,
            "ticks": 11092,
            "time": 90.03249304166667,
            "value": 0.7480314960629921
          },
          {
            "number": 11,
            "ticks": 11096,
            "time": 90.06496058333332,
            "value": 0.7401574803149606
          },
          {
            "number": 11,
            "ticks": 11100,
            "time": 90.097428125,
            "value": 0.7322834645669292
          },
          {
            "number": 11,
            "ticks": 11101,
            "time": 90.10554501041666,
            "value": 0.7244094488188977
          },
          {
            "number": 11,
            "ticks": 11105,
            "time": 90.13801255208332,
            "value": 0.7165354330708661
          },
          {
            "number": 11,
            "ticks": 11108,
            "time": 90.16236320833332,
            "value": 0.7086614173228346
          },
          {
            "number": 11,
            "ticks": 11112,
            "time": 90.19483075,
            "value": 0.7007874015748031
          },
          {
            "number": 11,
            "ticks": 11113,
            "time": 90.20294763541666,
            "value": 0.6929133858267716
          },
          {
            "number": 11,
            "ticks": 11117,
            "time": 90.23541517708333,
            "value": 0.6850393700787402
          },
          {
            "number": 11,
            "ticks": 11121,
            "time": 90.26788271874999,
            "value": 0.6771653543307087
          },
          {
            "number": 11,
            "ticks": 11124,
            "time": 90.292233375,
            "value": 0.6692913385826772
          },
          {
            "number": 11,
            "ticks": 11128,
            "time": 90.32470091666666,
            "value": 0.6614173228346457
          },
          {
            "number": 11,
            "ticks": 11129,
            "time": 90.33281780208333,
            "value": 0.6535433070866141
          },
          {
            "number": 11,
            "ticks": 11133,
            "time": 90.36528534374999,
            "value": 0.6456692913385826
          },
          {
            "number": 11,
            "ticks": 11136,
            "time": 90.389636,
            "value": 0.6377952755905512
          },
          {
            "number": 11,
            "ticks": 11140,
            "time": 90.42210354166666,
            "value": 0.6299212598425197
          },
          {
            "number": 11,
            "ticks": 11144,
            "time": 90.45457108333332,
            "value": 0.6220472440944882
          },
          {
            "number": 11,
            "ticks": 11145,
            "time": 90.46268796874999,
            "value": 0.6141732283464567
          },
          {
            "number": 11,
            "ticks": 11149,
            "time": 90.49515551041667,
            "value": 0.6062992125984252
          },
          {
            "number": 11,
            "ticks": 11152,
            "time": 90.51950616666666,
            "value": 0.5984251968503937
          },
          {
            "number": 11,
            "ticks": 11156,
            "time": 90.55197370833332,
            "value": 0.5905511811023622
          },
          {
            "number": 11,
            "ticks": 11157,
            "time": 90.56009059374999,
            "value": 0.5826771653543307
          },
          {
            "number": 11,
            "ticks": 11161,
            "time": 90.59255813541667,
            "value": 0.5748031496062992
          },
          {
            "number": 11,
            "ticks": 11165,
            "time": 90.62502567708333,
            "value": 0.5669291338582677
          },
          {
            "number": 11,
            "ticks": 11168,
            "time": 90.64937633333332,
            "value": 0.5590551181102362
          },
          {
            "number": 11,
            "ticks": 11172,
            "time": 90.681843875,
            "value": 0.5511811023622047
          },
          {
            "number": 11,
            "ticks": 11173,
            "time": 90.68996076041667,
            "value": 0.5433070866141733
          },
          {
            "number": 11,
            "ticks": 11177,
            "time": 90.72242830208333,
            "value": 0.5354330708661418
          },
          {
            "number": 11,
            "ticks": 11180,
            "time": 90.74677895833332,
            "value": 0.5275590551181102
          },
          {
            "number": 11,
            "ticks": 11188,
            "time": 90.81171404166666,
            "value": 0.5039370078740157
          },
          {
            "number": 11,
            "ticks": 11192,
            "time": 90.84418158333332,
            "value": 0.5118110236220472
          },
          {
            "number": 11,
            "ticks": 11193,
            "time": 90.85229846874999,
            "value": 0.5196850393700787
          },
          {
            "number": 11,
            "ticks": 11197,
            "time": 90.88476601041667,
            "value": 0.5275590551181102
          },
          {
            "number": 11,
            "ticks": 11200,
            "time": 90.90911666666666,
            "value": 0.5354330708661418
          },
          {
            "number": 11,
            "ticks": 11201,
            "time": 90.91723355208332,
            "value": 0.5433070866141733
          },
          {
            "number": 11,
            "ticks": 11205,
            "time": 90.94970109375,
            "value": 0.5511811023622047
          },
          {
            "number": 11,
            "ticks": 11208,
            "time": 90.97405174999999,
            "value": 0.5590551181102362
          },
          {
            "number": 11,
            "ticks": 11212,
            "time": 91.00651929166666,
            "value": 0.5669291338582677
          },
          {
            "number": 11,
            "ticks": 11213,
            "time": 91.01463617708332,
            "value": 0.5748031496062992
          },
          {
            "number": 11,
            "ticks": 11216,
            "time": 91.03898683333333,
            "value": 0.5826771653543307
          },
          {
            "number": 11,
            "ticks": 11220,
            "time": 91.07145437499999,
            "value": 0.5905511811023622
          },
          {
            "number": 11,
            "ticks": 11221,
            "time": 91.07957126041666,
            "value": 0.5984251968503937
          },
          {
            "number": 11,
            "ticks": 11224,
            "time": 91.10392191666666,
            "value": 0.6062992125984252
          },
          {
            "number": 11,
            "ticks": 11228,
            "time": 91.13638945833333,
            "value": 0.6141732283464567
          },
          {
            "number": 11,
            "ticks": 11229,
            "time": 91.14450634375,
            "value": 0.6220472440944882
          },
          {
            "number": 11,
            "ticks": 11233,
            "time": 91.17697388541666,
            "value": 0.6299212598425197
          },
          {
            "number": 11,
            "ticks": 11236,
            "time": 91.20132454166666,
            "value": 0.6377952755905512
          },
          {
            "number": 11,
            "ticks": 11237,
            "time": 91.20944142708332,
            "value": 0.6456692913385826
          },
          {
            "number": 11,
            "ticks": 11241,
            "time": 91.24190896875,
            "value": 0.6535433070866141
          },
          {
            "number": 11,
            "ticks": 11244,
            "time": 91.26625962499999,
            "value": 0.6614173228346457
          },
          {
            "number": 11,
            "ticks": 11245,
            "time": 91.27437651041666,
            "value": 0.6692913385826772
          },
          {
            "number": 11,
            "ticks": 11249,
            "time": 91.30684405208332,
            "value": 0.6771653543307087
          },
          {
            "number": 11,
            "ticks": 11252,
            "time": 91.33119470833333,
            "value": 0.6850393700787402
          },
          {
            "number": 11,
            "ticks": 11256,
            "time": 91.36366224999999,
            "value": 0.6929133858267716
          },
          {
            "number": 11,
            "ticks": 11257,
            "time": 91.37177913541666,
            "value": 0.7007874015748031
          },
          {
            "number": 11,
            "ticks": 11260,
            "time": 91.39612979166667,
            "value": 0.7086614173228346
          },
          {
            "number": 11,
            "ticks": 11264,
            "time": 91.42859733333333,
            "value": 0.7165354330708661
          },
          {
            "number": 11,
            "ticks": 11265,
            "time": 91.43671421875,
            "value": 0.7244094488188977
          },
          {
            "number": 11,
            "ticks": 11269,
            "time": 91.46918176041666,
            "value": 0.7322834645669292
          },
          {
            "number": 11,
            "ticks": 11272,
            "time": 91.49353241666667,
            "value": 0.7401574803149606
          },
          {
            "number": 11,
            "ticks": 11273,
            "time": 91.50164930208332,
            "value": 0.7480314960629921
          },
          {
            "number": 11,
            "ticks": 11277,
            "time": 91.53411684375,
            "value": 0.7559055118110236
          },
          {
            "number": 11,
            "ticks": 11280,
            "time": 91.55846749999999,
            "value": 0.7637795275590551
          },
          {
            "number": 11,
            "ticks": 11281,
            "time": 91.56658438541666,
            "value": 0.7716535433070866
          },
          {
            "number": 11,
            "ticks": 11285,
            "time": 91.59905192708332,
            "value": 0.7795275590551181
          },
          {
            "number": 11,
            "ticks": 11288,
            "time": 91.62340258333332,
            "value": 0.7874015748031497
          },
          {
            "number": 11,
            "ticks": 11292,
            "time": 91.65587012499999,
            "value": 0.7952755905511811
          },
          {
            "number": 11,
            "ticks": 11293,
            "time": 91.66398701041666,
            "value": 0.8031496062992126
          },
          {
            "number": 11,
            "ticks": 11296,
            "time": 91.68833766666667,
            "value": 0.8110236220472441
          },
          {
            "number": 11,
            "ticks": 11300,
            "time": 91.72080520833332,
            "value": 0.8188976377952756
          },
          {
            "number": 11,
            "ticks": 11301,
            "time": 91.72892209374999,
            "value": 0.8267716535433071
          },
          {
            "number": 11,
            "ticks": 11304,
            "time": 91.75327275,
            "value": 0.8346456692913385
          },
          {
            "number": 11,
            "ticks": 11308,
            "time": 91.78574029166667,
            "value": 0.84251968503937
          },
          {
            "number": 11,
            "ticks": 11309,
            "time": 91.79385717708332,
            "value": 0.8503937007874016
          },
          {
            "number": 11,
            "ticks": 11313,
            "time": 91.82632471874999,
            "value": 0.8582677165354331
          },
          {
            "number": 11,
            "ticks": 11316,
            "time": 91.850675375,
            "value": 0.8661417322834646
          },
          {
            "number": 11,
            "ticks": 11317,
            "time": 91.85879226041666,
            "value": 0.8740157480314961
          },
          {
            "number": 11,
            "ticks": 11321,
            "time": 91.89125980208333,
            "value": 0.8818897637795275
          },
          {
            "number": 11,
            "ticks": 11324,
            "time": 91.91561045833332,
            "value": 0.889763779527559
          },
          {
            "number": 11,
            "ticks": 11328,
            "time": 91.948078,
            "value": 0.8976377952755905
          },
          {
            "number": 11,
            "ticks": 11329,
            "time": 91.95619488541666,
            "value": 0.905511811023622
          },
          {
            "number": 11,
            "ticks": 11332,
            "time": 91.98054554166666,
            "value": 0.9133858267716536
          },
          {
            "number": 11,
            "ticks": 11336,
            "time": 92.01301308333332,
            "value": 0.9212598425196851
          },
          {
            "number": 11,
            "ticks": 11337,
            "time": 92.02112996874999,
            "value": 0.9291338582677166
          },
          {
            "number": 11,
            "ticks": 11340,
            "time": 92.045480625,
            "value": 0.937007874015748
          },
          {
            "number": 11,
            "ticks": 11344,
            "time": 92.07794816666666,
            "value": 0.9448818897637795
          },
          {
            "number": 11,
            "ticks": 11345,
            "time": 92.08606505208333,
            "value": 0.952755905511811
          },
          {
            "number": 11,
            "ticks": 11349,
            "time": 92.11853259374999,
            "value": 0.9606299212598425
          },
          {
            "number": 11,
            "ticks": 11352,
            "time": 92.14288325,
            "value": 0.968503937007874
          },
          {
            "number": 11,
            "ticks": 11353,
            "time": 92.15100013541667,
            "value": 0.9763779527559056
          },
          {
            "number": 11,
            "ticks": 11357,
            "time": 92.18346767708333,
            "value": 0.984251968503937
          },
          {
            "number": 11,
            "ticks": 11360,
            "time": 92.20781833333332,
            "value": 0.9921259842519685
          },
          {
            "number": 11,
            "ticks": 11361,
            "time": 92.21593521874999,
            "value": 1
          },
          {
            "number": 11,
            "ticks": 11761,
            "time": 95.46268938541667,
            "value": 0.9921259842519685
          },
          {
            "number": 11,
            "ticks": 11765,
            "time": 95.49515692708333,
            "value": 0.984251968503937
          },
          {
            "number": 11,
            "ticks": 11769,
            "time": 95.52762446874999,
            "value": 0.9763779527559056
          },
          {
            "number": 11,
            "ticks": 11772,
            "time": 95.551975125,
            "value": 0.968503937007874
          },
          {
            "number": 11,
            "ticks": 11776,
            "time": 95.58444266666666,
            "value": 0.9606299212598425
          },
          {
            "number": 11,
            "ticks": 11777,
            "time": 95.59255955208332,
            "value": 0.952755905511811
          },
          {
            "number": 11,
            "ticks": 11781,
            "time": 95.62502709374999,
            "value": 0.9448818897637795
          },
          {
            "number": 11,
            "ticks": 11785,
            "time": 95.65749463541667,
            "value": 0.937007874015748
          },
          {
            "number": 11,
            "ticks": 11788,
            "time": 95.68184529166666,
            "value": 0.9291338582677166
          },
          {
            "number": 11,
            "ticks": 11792,
            "time": 95.71431283333332,
            "value": 0.9212598425196851
          },
          {
            "number": 11,
            "ticks": 11793,
            "time": 95.72242971874999,
            "value": 0.9133858267716536
          },
          {
            "number": 11,
            "ticks": 11797,
            "time": 95.75489726041667,
            "value": 0.905511811023622
          },
          {
            "number": 11,
            "ticks": 11800,
            "time": 95.77924791666666,
            "value": 0.8976377952755905
          },
          {
            "number": 11,
            "ticks": 11804,
            "time": 95.81171545833332,
            "value": 0.889763779527559
          },
          {
            "number": 11,
            "ticks": 11808,
            "time": 95.84418299999999,
            "value": 0.8818897637795275
          },
          {
            "number": 11,
            "ticks": 11809,
            "time": 95.85229988541667,
            "value": 0.8740157480314961
          },
          {
            "number": 11,
            "ticks": 11813,
            "time": 95.88476742708332,
            "value": 0.8661417322834646
          },
          {
            "number": 11,
            "ticks": 11816,
            "time": 95.90911808333333,
            "value": 0.8582677165354331
          },
          {
            "number": 11,
            "ticks": 11820,
            "time": 95.94158562499999,
            "value": 0.8503937007874016
          },
          {
            "number": 11,
            "ticks": 11821,
            "time": 95.94970251041666,
            "value": 0.84251968503937
          },
          {
            "number": 11,
            "ticks": 11825,
            "time": 95.98217005208332,
            "value": 0.8346456692913385
          },
          {
            "number": 11,
            "ticks": 11829,
            "time": 96.01463759375,
            "value": 0.8267716535433071
          },
          {
            "number": 11,
            "ticks": 11832,
            "time": 96.03898824999999,
            "value": 0.8188976377952756
          },
          {
            "number": 11,
            "ticks": 11836,
            "time": 96.07145579166666,
            "value": 0.8110236220472441
          },
          {
            "number": 11,
            "ticks": 11837,
            "time": 96.07957267708332,
            "value": 0.8031496062992126
          },
          {
            "number": 11,
            "ticks": 11841,
            "time": 96.11204021875,
            "value": 0.7952755905511811
          },
          {
            "number": 11,
            "ticks": 11844,
            "time": 96.13639087499999,
            "value": 0.7874015748031497
          },
          {
            "number": 11,
            "ticks": 11848,
            "time": 96.16885841666667,
            "value": 0.7795275590551181
          },
          {
            "number": 11,
            "ticks": 11852,
            "time": 96.20132595833333,
            "value": 0.7716535433070866
          },
          {
            "number": 11,
            "ticks": 11853,
            "time": 96.20944284375,
            "value": 0.7637795275590551
          },
          {
            "number": 11,
            "ticks": 11857,
            "time": 96.24191038541666,
            "value": 0.7559055118110236
          },
          {
            "number": 11,
            "ticks": 11860,
            "time": 96.26626104166667,
            "value": 0.7480314960629921
          },
          {
            "number": 11,
            "ticks": 11864,
            "time": 96.29872858333333,
            "value": 0.7401574803149606
          },
          {
            "number": 11,
            "ticks": 11868,
            "time": 96.33119612499999,
            "value": 0.7322834645669292
          },
          {
            "number": 11,
            "ticks": 11869,
            "time": 96.33931301041666,
            "value": 0.7244094488188977
          },
          {
            "number": 11,
            "ticks": 11873,
            "time": 96.37178055208332,
            "value": 0.7165354330708661
          },
          {
            "number": 11,
            "ticks": 11876,
            "time": 96.39613120833332,
            "value": 0.7086614173228346
          },
          {
            "number": 11,
            "ticks": 11880,
            "time": 96.42859874999999,
            "value": 0.7007874015748031
          },
          {
            "number": 11,
            "ticks": 11881,
            "time": 96.43671563541666,
            "value": 0.6929133858267716
          },
          {
            "number": 11,
            "ticks": 11885,
            "time": 96.46918317708332,
            "value": 0.6850393700787402
          },
          {
            "number": 11,
            "ticks": 11889,
            "time": 96.50165071875,
            "value": 0.6771653543307087
          },
          {
            "number": 11,
            "ticks": 11892,
            "time": 96.52600137499999,
            "value": 0.6692913385826772
          },
          {
            "number": 11,
            "ticks": 11896,
            "time": 96.55846891666667,
            "value": 0.6614173228346457
          },
          {
            "number": 11,
            "ticks": 11897,
            "time": 96.56658580208332,
            "value": 0.6535433070866141
          },
          {
            "number": 11,
            "ticks": 11901,
            "time": 96.59905334374999,
            "value": 0.6456692913385826
          },
          {
            "number": 11,
            "ticks": 11904,
            "time": 96.623404,
            "value": 0.6377952755905512
          },
          {
            "number": 11,
            "ticks": 11908,
            "time": 96.65587154166667,
            "value": 0.6299212598425197
          },
          {
            "number": 11,
            "ticks": 11912,
            "time": 96.68833908333332,
            "value": 0.6220472440944882
          },
          {
            "number": 11,
            "ticks": 11913,
            "time": 96.69645596874999,
            "value": 0.6141732283464567
          },
          {
            "number": 11,
            "ticks": 11917,
            "time": 96.72892351041666,
            "value": 0.6062992125984252
          },
          {
            "number": 11,
            "ticks": 11920,
            "time": 96.75327416666666,
            "value": 0.5984251968503937
          },
          {
            "number": 11,
            "ticks": 11924,
            "time": 96.78574170833332,
            "value": 0.5905511811023622
          },
          {
            "number": 11,
            "ticks": 11925,
            "time": 96.79385859374999,
            "value": 0.5826771653543307
          },
          {
            "number": 11,
            "ticks": 11929,
            "time": 96.82632613541666,
            "value": 0.5748031496062992
          },
          {
            "number": 11,
            "ticks": 11933,
            "time": 96.85879367708333,
            "value": 0.5669291338582677
          },
          {
            "number": 11,
            "ticks": 11936,
            "time": 96.88314433333332,
            "value": 0.5590551181102362
          },
          {
            "number": 11,
            "ticks": 11940,
            "time": 96.915611875,
            "value": 0.5511811023622047
          },
          {
            "number": 11,
            "ticks": 11941,
            "time": 96.92372876041667,
            "value": 0.5433070866141733
          },
          {
            "number": 11,
            "ticks": 11945,
            "time": 96.95619630208333,
            "value": 0.5354330708661418
          },
          {
            "number": 11,
            "ticks": 11948,
            "time": 96.98054695833332,
            "value": 0.5275590551181102
          },
          {
            "number": 11,
            "ticks": 11956,
            "time": 97.04548204166666,
            "value": 0.5039370078740157
          },
          {
            "number": 11,
            "ticks": 11960,
            "time": 97.07794958333332,
            "value": 0.5118110236220472
          },
          {
            "number": 11,
            "ticks": 11961,
            "time": 97.08606646874999,
            "value": 0.5196850393700787
          },
          {
            "number": 11,
            "ticks": 11965,
            "time": 97.11853401041667,
            "value": 0.5275590551181102
          },
          {
            "number": 11,
            "ticks": 11968,
            "time": 97.14288466666666,
            "value": 0.5354330708661418
          },
          {
            "number": 11,
            "ticks": 11969,
            "time": 97.15100155208333,
            "value": 0.5433070866141733
          },
          {
            "number": 11,
            "ticks": 11973,
            "time": 97.18346909374999,
            "value": 0.5511811023622047
          },
          {
            "number": 11,
            "ticks": 11976,
            "time": 97.20781975,
            "value": 0.5590551181102362
          },
          {
            "number": 11,
            "ticks": 11980,
            "time": 97.24028729166666,
            "value": 0.5669291338582677
          },
          {
            "number": 11,
            "ticks": 11981,
            "time": 97.24840417708332,
            "value": 0.5748031496062992
          },
          {
            "number": 11,
            "ticks": 11984,
            "time": 97.27275483333332,
            "value": 0.5826771653543307
          },
          {
            "number": 11,
            "ticks": 11988,
            "time": 97.305222375,
            "value": 0.5905511811023622
          },
          {
            "number": 11,
            "ticks": 11989,
            "time": 97.31333926041667,
            "value": 0.5984251968503937
          },
          {
            "number": 11,
            "ticks": 11992,
            "time": 97.33768991666666,
            "value": 0.6062992125984252
          },
          {
            "number": 11,
            "ticks": 11996,
            "time": 97.37015745833332,
            "value": 0.6141732283464567
          },
          {
            "number": 11,
            "ticks": 11997,
            "time": 97.37827434375,
            "value": 0.6220472440944882
          },
          {
            "number": 11,
            "ticks": 12001,
            "time": 97.41074188541667,
            "value": 0.6299212598425197
          },
          {
            "number": 11,
            "ticks": 12004,
            "time": 97.43509254166666,
            "value": 0.6377952755905512
          },
          {
            "number": 11,
            "ticks": 12005,
            "time": 97.44320942708332,
            "value": 0.6456692913385826
          },
          {
            "number": 11,
            "ticks": 12009,
            "time": 97.47567696875,
            "value": 0.6535433070866141
          },
          {
            "number": 11,
            "ticks": 12012,
            "time": 97.50002762499999,
            "value": 0.6614173228346457
          },
          {
            "number": 11,
            "ticks": 12013,
            "time": 97.50814451041666,
            "value": 0.6692913385826772
          },
          {
            "number": 11,
            "ticks": 12017,
            "time": 97.54061205208332,
            "value": 0.6771653543307087
          },
          {
            "number": 11,
            "ticks": 12020,
            "time": 97.56496270833333,
            "value": 0.6850393700787402
          },
          {
            "number": 11,
            "ticks": 12024,
            "time": 97.59743024999999,
            "value": 0.6929133858267716
          },
          {
            "number": 11,
            "ticks": 12025,
            "time": 97.60554713541666,
            "value": 0.7007874015748031
          },
          {
            "number": 11,
            "ticks": 12028,
            "time": 97.62989779166666,
            "value": 0.7086614173228346
          },
          {
            "number": 11,
            "ticks": 12032,
            "time": 97.66236533333333,
            "value": 0.7165354330708661
          },
          {
            "number": 11,
            "ticks": 12033,
            "time": 97.67048221875,
            "value": 0.7244094488188977
          },
          {
            "number": 11,
            "ticks": 12037,
            "time": 97.70294976041666,
            "value": 0.7322834645669292
          },
          {
            "number": 11,
            "ticks": 12040,
            "time": 97.72730041666667,
            "value": 0.7401574803149606
          },
          {
            "number": 11,
            "ticks": 12041,
            "time": 97.73541730208332,
            "value": 0.7480314960629921
          },
          {
            "number": 11,
            "ticks": 12045,
            "time": 97.76788484375,
            "value": 0.7559055118110236
          },
          {
            "number": 11,
            "ticks": 12048,
            "time": 97.79223549999999,
            "value": 0.7637795275590551
          },
          {
            "number": 11,
            "ticks": 12049,
            "time": 97.80035238541666,
            "value": 0.7716535433070866
          },
          {
            "number": 11,
            "ticks": 12053,
            "time": 97.83281992708332,
            "value": 0.7795275590551181
          },
          {
            "number": 11,
            "ticks": 12056,
            "time": 97.85717058333333,
            "value": 0.7874015748031497
          },
          {
            "number": 11,
            "ticks": 12060,
            "time": 97.88963812499999,
            "value": 0.7952755905511811
          },
          {
            "number": 11,
            "ticks": 12061,
            "time": 97.89775501041666,
            "value": 0.8031496062992126
          },
          {
            "number": 11,
            "ticks": 12064,
            "time": 97.92210566666667,
            "value": 0.8110236220472441
          },
          {
            "number": 11,
            "ticks": 12068,
            "time": 97.95457320833333,
            "value": 0.8188976377952756
          },
          {
            "number": 11,
            "ticks": 12069,
            "time": 97.96269009375,
            "value": 0.8267716535433071
          },
          {
            "number": 11,
            "ticks": 12072,
            "time": 97.98704074999999,
            "value": 0.8346456692913385
          },
          {
            "number": 11,
            "ticks": 12076,
            "time": 98.01950829166667,
            "value": 0.84251968503937
          },
          {
            "number": 11,
            "ticks": 12077,
            "time": 98.02762517708332,
            "value": 0.8503937007874016
          },
          {
            "number": 11,
            "ticks": 12081,
            "time": 98.06009271875,
            "value": 0.8582677165354331
          },
          {
            "number": 11,
            "ticks": 12084,
            "time": 98.08444337499999,
            "value": 0.8661417322834646
          },
          {
            "number": 11,
            "ticks": 12085,
            "time": 98.09256026041666,
            "value": 0.8740157480314961
          },
          {
            "number": 11,
            "ticks": 12089,
            "time": 98.12502780208332,
            "value": 0.8818897637795275
          },
          {
            "number": 11,
            "ticks": 12092,
            "time": 98.14937845833332,
            "value": 0.889763779527559
          },
          {
            "number": 11,
            "ticks": 12096,
            "time": 98.181846,
            "value": 0.8976377952755905
          },
          {
            "number": 11,
            "ticks": 12097,
            "time": 98.18996288541666,
            "value": 0.905511811023622
          },
          {
            "number": 11,
            "ticks": 12100,
            "time": 98.21431354166667,
            "value": 0.9133858267716536
          },
          {
            "number": 11,
            "ticks": 12104,
            "time": 98.24678108333332,
            "value": 0.9212598425196851
          },
          {
            "number": 11,
            "ticks": 12105,
            "time": 98.25489796874999,
            "value": 0.9291338582677166
          },
          {
            "number": 11,
            "ticks": 12108,
            "time": 98.279248625,
            "value": 0.937007874015748
          },
          {
            "number": 11,
            "ticks": 12112,
            "time": 98.31171616666666,
            "value": 0.9448818897637795
          },
          {
            "number": 11,
            "ticks": 12113,
            "time": 98.31983305208333,
            "value": 0.952755905511811
          },
          {
            "number": 11,
            "ticks": 12117,
            "time": 98.35230059374999,
            "value": 0.9606299212598425
          },
          {
            "number": 11,
            "ticks": 12120,
            "time": 98.37665125,
            "value": 0.968503937007874
          },
          {
            "number": 11,
            "ticks": 12121,
            "time": 98.38476813541666,
            "value": 0.9763779527559056
          },
          {
            "number": 11,
            "ticks": 12125,
            "time": 98.41723567708333,
            "value": 0.984251968503937
          },
          {
            "number": 11,
            "ticks": 12128,
            "time": 98.44158633333332,
            "value": 0.9921259842519685
          },
          {
            "number": 11,
            "ticks": 12129,
            "time": 98.44970321874999,
            "value": 1
          },
          {
            "number": 11,
            "ticks": 12529,
            "time": 101.69645738541665,
            "value": 0.9921259842519685
          },
          {
            "number": 11,
            "ticks": 12533,
            "time": 101.72892492708333,
            "value": 0.984251968503937
          },
          {
            "number": 11,
            "ticks": 12537,
            "time": 101.76139246874999,
            "value": 0.9763779527559056
          },
          {
            "number": 11,
            "ticks": 12540,
            "time": 101.785743125,
            "value": 0.968503937007874
          },
          {
            "number": 11,
            "ticks": 12544,
            "time": 101.81821066666666,
            "value": 0.9606299212598425
          },
          {
            "number": 11,
            "ticks": 12545,
            "time": 101.82632755208333,
            "value": 0.952755905511811
          },
          {
            "number": 11,
            "ticks": 12549,
            "time": 101.85879509374999,
            "value": 0.9448818897637795
          },
          {
            "number": 11,
            "ticks": 12553,
            "time": 101.89126263541665,
            "value": 0.937007874015748
          },
          {
            "number": 11,
            "ticks": 12556,
            "time": 101.91561329166665,
            "value": 0.9291338582677166
          },
          {
            "number": 11,
            "ticks": 12560,
            "time": 101.94808083333334,
            "value": 0.9212598425196851
          },
          {
            "number": 11,
            "ticks": 12561,
            "time": 101.95619771874999,
            "value": 0.9133858267716536
          },
          {
            "number": 11,
            "ticks": 12565,
            "time": 101.98866526041665,
            "value": 0.905511811023622
          },
          {
            "number": 11,
            "ticks": 12568,
            "time": 102.01301591666665,
            "value": 0.8976377952755905
          },
          {
            "number": 11,
            "ticks": 12572,
            "time": 102.04548345833334,
            "value": 0.889763779527559
          },
          {
            "number": 11,
            "ticks": 12576,
            "time": 102.077951,
            "value": 0.8818897637795275
          },
          {
            "number": 11,
            "ticks": 12577,
            "time": 102.08606788541665,
            "value": 0.8740157480314961
          },
          {
            "number": 11,
            "ticks": 12581,
            "time": 102.11853542708333,
            "value": 0.8661417322834646
          },
          {
            "number": 11,
            "ticks": 12584,
            "time": 102.14288608333334,
            "value": 0.8582677165354331
          },
          {
            "number": 11,
            "ticks": 12588,
            "time": 102.17535362499999,
            "value": 0.8503937007874016
          },
          {
            "number": 11,
            "ticks": 12589,
            "time": 102.18347051041665,
            "value": 0.84251968503937
          },
          {
            "number": 11,
            "ticks": 12593,
            "time": 102.21593805208333,
            "value": 0.8346456692913385
          },
          {
            "number": 11,
            "ticks": 12597,
            "time": 102.24840559375,
            "value": 0.8267716535433071
          },
          {
            "number": 11,
            "ticks": 12600,
            "time": 102.27275624999999,
            "value": 0.8188976377952756
          },
          {
            "number": 11,
            "ticks": 12604,
            "time": 102.30522379166665,
            "value": 0.8110236220472441
          },
          {
            "number": 11,
            "ticks": 12605,
            "time": 102.31334067708333,
            "value": 0.8031496062992126
          },
          {
            "number": 11,
            "ticks": 12609,
            "time": 102.34580821875,
            "value": 0.7952755905511811
          },
          {
            "number": 11,
            "ticks": 12612,
            "time": 102.37015887499999,
            "value": 0.7874015748031497
          },
          {
            "number": 11,
            "ticks": 12616,
            "time": 102.40262641666665,
            "value": 0.7795275590551181
          },
          {
            "number": 11,
            "ticks": 12620,
            "time": 102.43509395833334,
            "value": 0.7716535433070866
          },
          {
            "number": 11,
            "ticks": 12621,
            "time": 102.44321084375,
            "value": 0.7637795275590551
          },
          {
            "number": 11,
            "ticks": 12625,
            "time": 102.47567838541666,
            "value": 0.7559055118110236
          },
          {
            "number": 11,
            "ticks": 12628,
            "time": 102.50002904166665,
            "value": 0.7480314960629921
          },
          {
            "number": 11,
            "ticks": 12632,
            "time": 102.53249658333333,
            "value": 0.7401574803149606
          },
          {
            "number": 11,
            "ticks": 12636,
            "time": 102.56496412499999,
            "value": 0.7322834645669292
          },
          {
            "number": 11,
            "ticks": 12637,
            "time": 102.57308101041666,
            "value": 0.7244094488188977
          },
          {
            "number": 11,
            "ticks": 12641,
            "time": 102.60554855208333,
            "value": 0.7165354330708661
          },
          {
            "number": 11,
            "ticks": 12644,
            "time": 102.62989920833333,
            "value": 0.7086614173228346
          },
          {
            "number": 11,
            "ticks": 12648,
            "time": 102.66236674999999,
            "value": 0.7007874015748031
          },
          {
            "number": 11,
            "ticks": 12649,
            "time": 102.67048363541664,
            "value": 0.6929133858267716
          },
          {
            "number": 11,
            "ticks": 12653,
            "time": 102.70295117708334,
            "value": 0.6850393700787402
          },
          {
            "number": 11,
            "ticks": 12657,
            "time": 102.73541871875,
            "value": 0.6771653543307087
          },
          {
            "number": 11,
            "ticks": 12660,
            "time": 102.75976937499999,
            "value": 0.6692913385826772
          },
          {
            "number": 11,
            "ticks": 12664,
            "time": 102.79223691666665,
            "value": 0.6614173228346457
          },
          {
            "number": 11,
            "ticks": 12665,
            "time": 102.80035380208334,
            "value": 0.6535433070866141
          },
          {
            "number": 11,
            "ticks": 12669,
            "time": 102.83282134375,
            "value": 0.6456692913385826
          },
          {
            "number": 11,
            "ticks": 12672,
            "time": 102.85717199999999,
            "value": 0.6377952755905512
          },
          {
            "number": 11,
            "ticks": 12676,
            "time": 102.88963954166665,
            "value": 0.6299212598425197
          },
          {
            "number": 11,
            "ticks": 12680,
            "time": 102.92210708333333,
            "value": 0.6220472440944882
          },
          {
            "number": 11,
            "ticks": 12681,
            "time": 102.93022396875,
            "value": 0.6141732283464567
          },
          {
            "number": 11,
            "ticks": 12685,
            "time": 102.96269151041665,
            "value": 0.6062992125984252
          },
          {
            "number": 11,
            "ticks": 12688,
            "time": 102.98704216666665,
            "value": 0.5984251968503937
          },
          {
            "number": 11,
            "ticks": 12692,
            "time": 103.01950970833333,
            "value": 0.5905511811023622
          },
          {
            "number": 11,
            "ticks": 12693,
            "time": 103.02762659374999,
            "value": 0.5826771653543307
          },
          {
            "number": 11,
            "ticks": 12697,
            "time": 103.06009413541665,
            "value": 0.5748031496062992
          },
          {
            "number": 11,
            "ticks": 12701,
            "time": 103.09256167708334,
            "value": 0.5669291338582677
          },
          {
            "number": 11,
            "ticks": 12704,
            "time": 103.11691233333333,
            "value": 0.5590551181102362
          },
          {
            "number": 11,
            "ticks": 12708,
            "time": 103.149379875,
            "value": 0.5511811023622047
          },
          {
            "number": 11,
            "ticks": 12709,
            "time": 103.15749676041665,
            "value": 0.5433070866141733
          },
          {
            "number": 11,
            "ticks": 12713,
            "time": 103.18996430208334,
            "value": 0.5354330708661418
          },
          {
            "number": 11,
            "ticks": 12716,
            "time": 103.21431495833333,
            "value": 0.5275590551181102
          },
          {
            "number": 11,
            "ticks": 12724,
            "time": 103.27925004166666,
            "value": 0.5039370078740157
          },
          {
            "number": 11,
            "ticks": 12728,
            "time": 103.31171758333333,
            "value": 0.5118110236220472
          },
          {
            "number": 11,
            "ticks": 12729,
            "time": 103.31983446874999,
            "value": 0.5196850393700787
          },
          {
            "number": 11,
            "ticks": 12733,
            "time": 103.35230201041665,
            "value": 0.5275590551181102
          },
          {
            "number": 11,
            "ticks": 12736,
            "time": 103.37665266666666,
            "value": 0.5354330708661418
          },
          {
            "number": 11,
            "ticks": 12737,
            "time": 103.38476955208333,
            "value": 0.5433070866141733
          },
          {
            "number": 11,
            "ticks": 12741,
            "time": 103.41723709374999,
            "value": 0.5511811023622047
          },
          {
            "number": 11,
            "ticks": 12744,
            "time": 103.44158775,
            "value": 0.5590551181102362
          },
          {
            "number": 11,
            "ticks": 12748,
            "time": 103.47405529166664,
            "value": 0.5669291338582677
          },
          {
            "number": 11,
            "ticks": 12749,
            "time": 103.48217217708333,
            "value": 0.5748031496062992
          },
          {
            "number": 11,
            "ticks": 12752,
            "time": 103.50652283333334,
            "value": 0.5826771653543307
          },
          {
            "number": 11,
            "ticks": 12756,
            "time": 103.538990375,
            "value": 0.5905511811023622
          },
          {
            "number": 11,
            "ticks": 12757,
            "time": 103.54710726041665,
            "value": 0.5984251968503937
          },
          {
            "number": 11,
            "ticks": 12760,
            "time": 103.57145791666665,
            "value": 0.6062992125984252
          },
          {
            "number": 11,
            "ticks": 12764,
            "time": 103.60392545833334,
            "value": 0.6141732283464567
          },
          {
            "number": 11,
            "ticks": 12765,
            "time": 103.61204234374999,
            "value": 0.6220472440944882
          },
          {
            "number": 11,
            "ticks": 12769,
            "time": 103.64450988541665,
            "value": 0.6299212598425197
          },
          {
            "number": 11,
            "ticks": 12772,
            "time": 103.66886054166665,
            "value": 0.6377952755905512
          },
          {
            "number": 11,
            "ticks": 12773,
            "time": 103.67697742708333,
            "value": 0.6456692913385826
          },
          {
            "number": 11,
            "ticks": 12777,
            "time": 103.70944496874999,
            "value": 0.6535433070866141
          },
          {
            "number": 11,
            "ticks": 12780,
            "time": 103.733795625,
            "value": 0.6614173228346457
          },
          {
            "number": 11,
            "ticks": 12781,
            "time": 103.74191251041665,
            "value": 0.6692913385826772
          },
          {
            "number": 11,
            "ticks": 12785,
            "time": 103.77438005208333,
            "value": 0.6771653543307087
          },
          {
            "number": 11,
            "ticks": 12788,
            "time": 103.79873070833334,
            "value": 0.6850393700787402
          },
          {
            "number": 11,
            "ticks": 12792,
            "time": 103.83119824999999,
            "value": 0.6929133858267716
          },
          {
            "number": 11,
            "ticks": 12793,
            "time": 103.83931513541665,
            "value": 0.7007874015748031
          },
          {
            "number": 11,
            "ticks": 12796,
            "time": 103.86366579166665,
            "value": 0.7086614173228346
          },
          {
            "number": 11,
            "ticks": 12800,
            "time": 103.89613333333334,
            "value": 0.7165354330708661
          },
          {
            "number": 11,
            "ticks": 12801,
            "time": 103.90425021875,
            "value": 0.7244094488188977
          },
          {
            "number": 11,
            "ticks": 12805,
            "time": 103.93671776041666,
            "value": 0.7322834645669292
          },
          {
            "number": 11,
            "ticks": 12808,
            "time": 103.96106841666665,
            "value": 0.7401574803149606
          },
          {
            "number": 11,
            "ticks": 12809,
            "time": 103.96918530208333,
            "value": 0.7480314960629921
          },
          {
            "number": 11,
            "ticks": 12813,
            "time": 104.00165284375,
            "value": 0.7559055118110236
          },
          {
            "number": 11,
            "ticks": 12816,
            "time": 104.02600349999999,
            "value": 0.7637795275590551
          },
          {
            "number": 11,
            "ticks": 12817,
            "time": 104.03412038541666,
            "value": 0.7716535433070866
          },
          {
            "number": 11,
            "ticks": 12821,
            "time": 104.06658792708333,
            "value": 0.7795275590551181
          },
          {
            "number": 11,
            "ticks": 12824,
            "time": 104.09093858333333,
            "value": 0.7874015748031497
          },
          {
            "number": 11,
            "ticks": 12828,
            "time": 104.12340612499999,
            "value": 0.7952755905511811
          },
          {
            "number": 11,
            "ticks": 12829,
            "time": 104.13152301041666,
            "value": 0.8031496062992126
          },
          {
            "number": 11,
            "ticks": 12832,
            "time": 104.15587366666665,
            "value": 0.8110236220472441
          },
          {
            "number": 11,
            "ticks": 12836,
            "time": 104.18834120833333,
            "value": 0.8188976377952756
          },
          {
            "number": 11,
            "ticks": 12837,
            "time": 104.19645809375,
            "value": 0.8267716535433071
          },
          {
            "number": 11,
            "ticks": 12840,
            "time": 104.22080874999999,
            "value": 0.8346456692913385
          },
          {
            "number": 11,
            "ticks": 12844,
            "time": 104.25327629166665,
            "value": 0.84251968503937
          },
          {
            "number": 11,
            "ticks": 12845,
            "time": 104.26139317708333,
            "value": 0.8503937007874016
          },
          {
            "number": 11,
            "ticks": 12849,
            "time": 104.29386071875,
            "value": 0.8582677165354331
          },
          {
            "number": 11,
            "ticks": 12852,
            "time": 104.31821137499999,
            "value": 0.8661417322834646
          },
          {
            "number": 11,
            "ticks": 12853,
            "time": 104.32632826041664,
            "value": 0.8740157480314961
          },
          {
            "number": 11,
            "ticks": 12857,
            "time": 104.35879580208334,
            "value": 0.8818897637795275
          },
          {
            "number": 11,
            "ticks": 12860,
            "time": 104.38314645833333,
            "value": 0.889763779527559
          },
          {
            "number": 11,
            "ticks": 12864,
            "time": 104.41561399999999,
            "value": 0.8976377952755905
          },
          {
            "number": 11,
            "ticks": 12865,
            "time": 104.42373088541665,
            "value": 0.905511811023622
          },
          {
            "number": 11,
            "ticks": 12868,
            "time": 104.44808154166665,
            "value": 0.9133858267716536
          },
          {
            "number": 11,
            "ticks": 12872,
            "time": 104.48054908333333,
            "value": 0.9212598425196851
          },
          {
            "number": 11,
            "ticks": 12873,
            "time": 104.48866596875,
            "value": 0.9291338582677166
          },
          {
            "number": 11,
            "ticks": 12876,
            "time": 104.51301662499999,
            "value": 0.937007874015748
          },
          {
            "number": 11,
            "ticks": 12880,
            "time": 104.54548416666665,
            "value": 0.9448818897637795
          },
          {
            "number": 11,
            "ticks": 12881,
            "time": 104.55360105208334,
            "value": 0.952755905511811
          },
          {
            "number": 11,
            "ticks": 12885,
            "time": 104.58606859374999,
            "value": 0.9606299212598425
          },
          {
            "number": 11,
            "ticks": 12888,
            "time": 104.61041924999999,
            "value": 0.968503937007874
          },
          {
            "number": 11,
            "ticks": 12889,
            "time": 104.61853613541665,
            "value": 0.9763779527559056
          },
          {
            "number": 11,
            "ticks": 12893,
            "time": 104.65100367708334,
            "value": 0.984251968503937
          },
          {
            "number": 11,
            "ticks": 12896,
            "time": 104.67535433333333,
            "value": 0.9921259842519685
          },
          {
            "number": 11,
            "ticks": 12897,
            "time": 104.68347121874999,
            "value": 1
          },
          {
            "number": 11,
            "ticks": 13297,
            "time": 107.93022538541665,
            "value": 0.9921259842519685
          },
          {
            "number": 11,
            "ticks": 13301,
            "time": 107.96269292708334,
            "value": 0.984251968503937
          },
          {
            "number": 11,
            "ticks": 13305,
            "time": 107.99516046874999,
            "value": 0.9763779527559056
          },
          {
            "number": 11,
            "ticks": 13308,
            "time": 108.019511125,
            "value": 0.968503937007874
          },
          {
            "number": 11,
            "ticks": 13312,
            "time": 108.05197866666666,
            "value": 0.9606299212598425
          },
          {
            "number": 11,
            "ticks": 13313,
            "time": 108.06009555208334,
            "value": 0.952755905511811
          },
          {
            "number": 11,
            "ticks": 13317,
            "time": 108.09256309374999,
            "value": 0.9448818897637795
          },
          {
            "number": 11,
            "ticks": 13321,
            "time": 108.12503063541665,
            "value": 0.937007874015748
          },
          {
            "number": 11,
            "ticks": 13324,
            "time": 108.14938129166666,
            "value": 0.9291338582677166
          },
          {
            "number": 11,
            "ticks": 13328,
            "time": 108.18184883333333,
            "value": 0.9212598425196851
          },
          {
            "number": 11,
            "ticks": 13329,
            "time": 108.18996571874999,
            "value": 0.9133858267716536
          },
          {
            "number": 11,
            "ticks": 13333,
            "time": 108.22243326041665,
            "value": 0.905511811023622
          },
          {
            "number": 11,
            "ticks": 13336,
            "time": 108.24678391666666,
            "value": 0.8976377952755905
          },
          {
            "number": 11,
            "ticks": 13340,
            "time": 108.27925145833333,
            "value": 0.889763779527559
          },
          {
            "number": 11,
            "ticks": 13344,
            "time": 108.311719,
            "value": 0.8818897637795275
          },
          {
            "number": 11,
            "ticks": 13345,
            "time": 108.31983588541665,
            "value": 0.8740157480314961
          },
          {
            "number": 11,
            "ticks": 13349,
            "time": 108.35230342708333,
            "value": 0.8661417322834646
          },
          {
            "number": 11,
            "ticks": 13352,
            "time": 108.37665408333334,
            "value": 0.8582677165354331
          },
          {
            "number": 11,
            "ticks": 13356,
            "time": 108.409121625,
            "value": 0.8503937007874016
          },
          {
            "number": 11,
            "ticks": 13357,
            "time": 108.41723851041665,
            "value": 0.84251968503937
          },
          {
            "number": 11,
            "ticks": 13361,
            "time": 108.44970605208333,
            "value": 0.8346456692913385
          },
          {
            "number": 11,
            "ticks": 13365,
            "time": 108.48217359374999,
            "value": 0.8267716535433071
          },
          {
            "number": 11,
            "ticks": 13368,
            "time": 108.50652425,
            "value": 0.8188976377952756
          },
          {
            "number": 11,
            "ticks": 13372,
            "time": 108.53899179166665,
            "value": 0.8110236220472441
          },
          {
            "number": 11,
            "ticks": 13373,
            "time": 108.54710867708333,
            "value": 0.8031496062992126
          },
          {
            "number": 11,
            "ticks": 13377,
            "time": 108.57957621874999,
            "value": 0.7952755905511811
          },
          {
            "number": 11,
            "ticks": 13380,
            "time": 108.60392687499998,
            "value": 0.7874015748031497
          },
          {
            "number": 11,
            "ticks": 13384,
            "time": 108.63639441666665,
            "value": 0.7795275590551181
          },
          {
            "number": 11,
            "ticks": 13388,
            "time": 108.66886195833334,
            "value": 0.7716535433070866
          },
          {
            "number": 11,
            "ticks": 13389,
            "time": 108.67697884374999,
            "value": 0.7637795275590551
          },
          {
            "number": 11,
            "ticks": 13393,
            "time": 108.70944638541665,
            "value": 0.7559055118110236
          },
          {
            "number": 11,
            "ticks": 13396,
            "time": 108.73379704166665,
            "value": 0.7480314960629921
          },
          {
            "number": 11,
            "ticks": 13400,
            "time": 108.76626458333334,
            "value": 0.7401574803149606
          },
          {
            "number": 11,
            "ticks": 13404,
            "time": 108.79873212499999,
            "value": 0.7322834645669292
          },
          {
            "number": 11,
            "ticks": 13405,
            "time": 108.80684901041666,
            "value": 0.7244094488188977
          },
          {
            "number": 11,
            "ticks": 13409,
            "time": 108.83931655208333,
            "value": 0.7165354330708661
          },
          {
            "number": 11,
            "ticks": 13412,
            "time": 108.86366720833334,
            "value": 0.7086614173228346
          },
          {
            "number": 11,
            "ticks": 13416,
            "time": 108.89613474999999,
            "value": 0.7007874015748031
          },
          {
            "number": 11,
            "ticks": 13417,
            "time": 108.90425163541666,
            "value": 0.6929133858267716
          },
          {
            "number": 11,
            "ticks": 13421,
            "time": 108.93671917708333,
            "value": 0.6850393700787402
          },
          {
            "number": 11,
            "ticks": 13425,
            "time": 108.96918671875,
            "value": 0.6771653543307087
          },
          {
            "number": 11,
            "ticks": 13428,
            "time": 108.99353737499999,
            "value": 0.6692913385826772
          },
          {
            "number": 11,
            "ticks": 13432,
            "time": 109.02600491666665,
            "value": 0.6614173228346457
          },
          {
            "number": 11,
            "ticks": 13433,
            "time": 109.03412180208333,
            "value": 0.6535433070866141
          },
          {
            "number": 11,
            "ticks": 13437,
            "time": 109.06658934375,
            "value": 0.6456692913385826
          },
          {
            "number": 11,
            "ticks": 13440,
            "time": 109.09093999999999,
            "value": 0.6377952755905512
          },
          {
            "number": 11,
            "ticks": 13444,
            "time": 109.12340754166665,
            "value": 0.6299212598425197
          },
          {
            "number": 11,
            "ticks": 13448,
            "time": 109.15587508333333,
            "value": 0.6220472440944882
          },
          {
            "number": 11,
            "ticks": 13449,
            "time": 109.16399196875,
            "value": 0.6141732283464567
          },
          {
            "number": 11,
            "ticks": 13453,
            "time": 109.19645951041664,
            "value": 0.6062992125984252
          },
          {
            "number": 11,
            "ticks": 13456,
            "time": 109.22081016666665,
            "value": 0.5984251968503937
          },
          {
            "number": 11,
            "ticks": 13460,
            "time": 109.25327770833333,
            "value": 0.5905511811023622
          },
          {
            "number": 11,
            "ticks": 13461,
            "time": 109.26139459375,
            "value": 0.5826771653543307
          },
          {
            "number": 11,
            "ticks": 13465,
            "time": 109.29386213541665,
            "value": 0.5748031496062992
          },
          {
            "number": 11,
            "ticks": 13469,
            "time": 109.32632967708334,
            "value": 0.5669291338582677
          },
          {
            "number": 11,
            "ticks": 13472,
            "time": 109.35068033333333,
            "value": 0.5590551181102362
          },
          {
            "number": 11,
            "ticks": 13476,
            "time": 109.38314787499999,
            "value": 0.5511811023622047
          },
          {
            "number": 11,
            "ticks": 13477,
            "time": 109.39126476041665,
            "value": 0.5433070866141733
          },
          {
            "number": 11,
            "ticks": 13481,
            "time": 109.42373230208334,
            "value": 0.5354330708661418
          },
          {
            "number": 11,
            "ticks": 13484,
            "time": 109.44808295833333,
            "value": 0.5275590551181102
          },
          {
            "number": 11,
            "ticks": 13492,
            "time": 109.51301804166665,
            "value": 0.5039370078740157
          },
          {
            "number": 11,
            "ticks": 13496,
            "time": 109.54548558333333,
            "value": 0.5118110236220472
          },
          {
            "number": 11,
            "ticks": 13497,
            "time": 109.55360246874999,
            "value": 0.5196850393700787
          },
          {
            "number": 11,
            "ticks": 13501,
            "time": 109.58607001041665,
            "value": 0.5275590551181102
          },
          {
            "number": 11,
            "ticks": 13504,
            "time": 109.61042066666666,
            "value": 0.5354330708661418
          },
          {
            "number": 11,
            "ticks": 13505,
            "time": 109.61853755208334,
            "value": 0.5433070866141733
          },
          {
            "number": 11,
            "ticks": 13509,
            "time": 109.65100509374999,
            "value": 0.5511811023622047
          },
          {
            "number": 11,
            "ticks": 13512,
            "time": 109.67535575,
            "value": 0.5590551181102362
          },
          {
            "number": 11,
            "ticks": 13516,
            "time": 109.70782329166666,
            "value": 0.5669291338582677
          },
          {
            "number": 11,
            "ticks": 13517,
            "time": 109.71594017708333,
            "value": 0.5748031496062992
          },
          {
            "number": 11,
            "ticks": 13520,
            "time": 109.74029083333333,
            "value": 0.5826771653543307
          },
          {
            "number": 11,
            "ticks": 13524,
            "time": 109.772758375,
            "value": 0.5905511811023622
          },
          {
            "number": 11,
            "ticks": 13525,
            "time": 109.78087526041665,
            "value": 0.5984251968503937
          },
          {
            "number": 11,
            "ticks": 13528,
            "time": 109.80522591666666,
            "value": 0.6062992125984252
          },
          {
            "number": 11,
            "ticks": 13532,
            "time": 109.83769345833333,
            "value": 0.6141732283464567
          },
          {
            "number": 11,
            "ticks": 13533,
            "time": 109.84581034374999,
            "value": 0.6220472440944882
          },
          {
            "number": 11,
            "ticks": 13537,
            "time": 109.87827788541665,
            "value": 0.6299212598425197
          },
          {
            "number": 11,
            "ticks": 13540,
            "time": 109.90262854166664,
            "value": 0.6377952755905512
          },
          {
            "number": 11,
            "ticks": 13541,
            "time": 109.91074542708333,
            "value": 0.6456692913385826
          },
          {
            "number": 11,
            "ticks": 13545,
            "time": 109.94321296874999,
            "value": 0.6535433070866141
          },
          {
            "number": 11,
            "ticks": 13548,
            "time": 109.967563625,
            "value": 0.6614173228346457
          },
          {
            "number": 11,
            "ticks": 13549,
            "time": 109.97568051041665,
            "value": 0.6692913385826772
          },
          {
            "number": 11,
            "ticks": 13553,
            "time": 110.00814805208333,
            "value": 0.6771653543307087
          },
          {
            "number": 11,
            "ticks": 13556,
            "time": 110.03249870833334,
            "value": 0.6850393700787402
          },
          {
            "number": 11,
            "ticks": 13560,
            "time": 110.06496625,
            "value": 0.6929133858267716
          },
          {
            "number": 11,
            "ticks": 13561,
            "time": 110.07308313541665,
            "value": 0.7007874015748031
          },
          {
            "number": 11,
            "ticks": 13564,
            "time": 110.09743379166665,
            "value": 0.7086614173228346
          },
          {
            "number": 11,
            "ticks": 13568,
            "time": 110.12990133333334,
            "value": 0.7165354330708661
          },
          {
            "number": 11,
            "ticks": 13569,
            "time": 110.13801821874999,
            "value": 0.7244094488188977
          },
          {
            "number": 11,
            "ticks": 13573,
            "time": 110.17048576041665,
            "value": 0.7322834645669292
          },
          {
            "number": 11,
            "ticks": 13576,
            "time": 110.19483641666665,
            "value": 0.7401574803149606
          },
          {
            "number": 11,
            "ticks": 13577,
            "time": 110.20295330208333,
            "value": 0.7480314960629921
          },
          {
            "number": 11,
            "ticks": 13581,
            "time": 110.23542084374999,
            "value": 0.7559055118110236
          },
          {
            "number": 11,
            "ticks": 13584,
            "time": 110.25977149999999,
            "value": 0.7637795275590551
          },
          {
            "number": 11,
            "ticks": 13585,
            "time": 110.26788838541665,
            "value": 0.7716535433070866
          },
          {
            "number": 11,
            "ticks": 13589,
            "time": 110.30035592708333,
            "value": 0.7795275590551181
          },
          {
            "number": 11,
            "ticks": 13592,
            "time": 110.32470658333334,
            "value": 0.7874015748031497
          },
          {
            "number": 11,
            "ticks": 13596,
            "time": 110.35717412499999,
            "value": 0.7952755905511811
          },
          {
            "number": 11,
            "ticks": 13597,
            "time": 110.36529101041666,
            "value": 0.8031496062992126
          },
          {
            "number": 11,
            "ticks": 13600,
            "time": 110.38964166666665,
            "value": 0.8110236220472441
          },
          {
            "number": 11,
            "ticks": 13604,
            "time": 110.42210920833334,
            "value": 0.8188976377952756
          },
          {
            "number": 11,
            "ticks": 13605,
            "time": 110.43022609375,
            "value": 0.8267716535433071
          },
          {
            "number": 11,
            "ticks": 13608,
            "time": 110.45457674999999,
            "value": 0.8346456692913385
          },
          {
            "number": 11,
            "ticks": 13612,
            "time": 110.48704429166665,
            "value": 0.84251968503937
          },
          {
            "number": 11,
            "ticks": 13613,
            "time": 110.49516117708333,
            "value": 0.8503937007874016
          },
          {
            "number": 11,
            "ticks": 13617,
            "time": 110.52762871875,
            "value": 0.8582677165354331
          },
          {
            "number": 11,
            "ticks": 13620,
            "time": 110.55197937499999,
            "value": 0.8661417322834646
          },
          {
            "number": 11,
            "ticks": 13621,
            "time": 110.56009626041666,
            "value": 0.8740157480314961
          },
          {
            "number": 11,
            "ticks": 13625,
            "time": 110.59256380208333,
            "value": 0.8818897637795275
          },
          {
            "number": 11,
            "ticks": 13628,
            "time": 110.61691445833333,
            "value": 0.889763779527559
          },
          {
            "number": 11,
            "ticks": 13632,
            "time": 110.64938199999999,
            "value": 0.8976377952755905
          },
          {
            "number": 11,
            "ticks": 13633,
            "time": 110.65749888541666,
            "value": 0.905511811023622
          },
          {
            "number": 11,
            "ticks": 13636,
            "time": 110.68184954166665,
            "value": 0.9133858267716536
          },
          {
            "number": 11,
            "ticks": 13640,
            "time": 110.71431708333333,
            "value": 0.9212598425196851
          },
          {
            "number": 11,
            "ticks": 13641,
            "time": 110.72243396875,
            "value": 0.9291338582677166
          },
          {
            "number": 11,
            "ticks": 13644,
            "time": 110.74678462499999,
            "value": 0.937007874015748
          },
          {
            "number": 11,
            "ticks": 13648,
            "time": 110.77925216666665,
            "value": 0.9448818897637795
          },
          {
            "number": 11,
            "ticks": 13649,
            "time": 110.78736905208333,
            "value": 0.952755905511811
          },
          {
            "number": 11,
            "ticks": 13653,
            "time": 110.81983659375,
            "value": 0.9606299212598425
          },
          {
            "number": 11,
            "ticks": 13656,
            "time": 110.84418724999999,
            "value": 0.968503937007874
          },
          {
            "number": 11,
            "ticks": 13657,
            "time": 110.85230413541665,
            "value": 0.9763779527559056
          },
          {
            "number": 11,
            "ticks": 13661,
            "time": 110.88477167708334,
            "value": 0.984251968503937
          },
          {
            "number": 11,
            "ticks": 13664,
            "time": 110.90912233333333,
            "value": 0.9921259842519685
          },
          {
            "number": 11,
            "ticks": 13665,
            "time": 110.91723921875,
            "value": 1
          },
          {
            "number": 11,
            "ticks": 14065,
            "time": 114.16399338541665,
            "value": 0.9921259842519685
          },
          {
            "number": 11,
            "ticks": 14069,
            "time": 114.19646092708334,
            "value": 0.984251968503937
          },
          {
            "number": 11,
            "ticks": 14073,
            "time": 114.22892846874998,
            "value": 0.9763779527559056
          },
          {
            "number": 11,
            "ticks": 14076,
            "time": 114.25327912499999,
            "value": 0.968503937007874
          },
          {
            "number": 11,
            "ticks": 14080,
            "time": 114.28574666666665,
            "value": 0.9606299212598425
          },
          {
            "number": 11,
            "ticks": 14081,
            "time": 114.29386355208334,
            "value": 0.952755905511811
          },
          {
            "number": 11,
            "ticks": 14085,
            "time": 114.32633109374999,
            "value": 0.9448818897637795
          },
          {
            "number": 11,
            "ticks": 14089,
            "time": 114.35879863541665,
            "value": 0.937007874015748
          },
          {
            "number": 11,
            "ticks": 14092,
            "time": 114.38314929166665,
            "value": 0.9291338582677166
          },
          {
            "number": 11,
            "ticks": 14096,
            "time": 114.41561683333333,
            "value": 0.9212598425196851
          },
          {
            "number": 11,
            "ticks": 14097,
            "time": 114.42373371874999,
            "value": 0.9133858267716536
          },
          {
            "number": 11,
            "ticks": 14101,
            "time": 114.45620126041665,
            "value": 0.905511811023622
          },
          {
            "number": 11,
            "ticks": 14104,
            "time": 114.48055191666666,
            "value": 0.8976377952755905
          },
          {
            "number": 11,
            "ticks": 14108,
            "time": 114.51301945833333,
            "value": 0.889763779527559
          },
          {
            "number": 11,
            "ticks": 14112,
            "time": 114.545487,
            "value": 0.8818897637795275
          },
          {
            "number": 11,
            "ticks": 14113,
            "time": 114.55360388541665,
            "value": 0.8740157480314961
          },
          {
            "number": 11,
            "ticks": 14117,
            "time": 114.58607142708333,
            "value": 0.8661417322834646
          },
          {
            "number": 11,
            "ticks": 14120,
            "time": 114.61042208333333,
            "value": 0.8582677165354331
          },
          {
            "number": 11,
            "ticks": 14124,
            "time": 114.642889625,
            "value": 0.8503937007874016
          },
          {
            "number": 11,
            "ticks": 14125,
            "time": 114.65100651041665,
            "value": 0.84251968503937
          },
          {
            "number": 11,
            "ticks": 14129,
            "time": 114.68347405208333,
            "value": 0.8346456692913385
          },
          {
            "number": 11,
            "ticks": 14133,
            "time": 114.71594159374999,
            "value": 0.8267716535433071
          },
          {
            "number": 11,
            "ticks": 14136,
            "time": 114.74029225,
            "value": 0.8188976377952756
          },
          {
            "number": 11,
            "ticks": 14140,
            "time": 114.77275979166664,
            "value": 0.8110236220472441
          },
          {
            "number": 11,
            "ticks": 14141,
            "time": 114.78087667708333,
            "value": 0.8031496062992126
          },
          {
            "number": 11,
            "ticks": 14145,
            "time": 114.81334421874999,
            "value": 0.7952755905511811
          },
          {
            "number": 11,
            "ticks": 14148,
            "time": 114.837694875,
            "value": 0.7874015748031497
          },
          {
            "number": 11,
            "ticks": 14152,
            "time": 114.87016241666664,
            "value": 0.7795275590551181
          },
          {
            "number": 11,
            "ticks": 14156,
            "time": 114.90262995833334,
            "value": 0.7716535433070866
          },
          {
            "number": 11,
            "ticks": 14157,
            "time": 114.91074684374999,
            "value": 0.7637795275590551
          },
          {
            "number": 11,
            "ticks": 14161,
            "time": 114.94321438541665,
            "value": 0.7559055118110236
          },
          {
            "number": 11,
            "ticks": 14164,
            "time": 114.96756504166665,
            "value": 0.7480314960629921
          },
          {
            "number": 11,
            "ticks": 14168,
            "time": 115.00003258333334,
            "value": 0.7401574803149606
          },
          {
            "number": 11,
            "ticks": 14172,
            "time": 115.03250012499998,
            "value": 0.7322834645669292
          },
          {
            "number": 11,
            "ticks": 14173,
            "time": 115.04061701041665,
            "value": 0.7244094488188977
          },
          {
            "number": 11,
            "ticks": 14177,
            "time": 115.07308455208333,
            "value": 0.7165354330708661
          },
          {
            "number": 11,
            "ticks": 14180,
            "time": 115.09743520833334,
            "value": 0.7086614173228346
          },
          {
            "number": 11,
            "ticks": 14184,
            "time": 115.12990274999999,
            "value": 0.7007874015748031
          },
          {
            "number": 11,
            "ticks": 14185,
            "time": 115.13801963541665,
            "value": 0.6929133858267716
          },
          {
            "number": 11,
            "ticks": 14189,
            "time": 115.17048717708333,
            "value": 0.6850393700787402
          },
          {
            "number": 11,
            "ticks": 14193,
            "time": 115.20295471875,
            "value": 0.6771653543307087
          },
          {
            "number": 11,
            "ticks": 14196,
            "time": 115.22730537499999,
            "value": 0.6692913385826772
          },
          {
            "number": 11,
            "ticks": 14200,
            "time": 115.25977291666665,
            "value": 0.6614173228346457
          },
          {
            "number": 11,
            "ticks": 14201,
            "time": 115.26788980208333,
            "value": 0.6535433070866141
          },
          {
            "number": 11,
            "ticks": 14205,
            "time": 115.30035734375,
            "value": 0.6456692913385826
          },
          {
            "number": 11,
            "ticks": 14208,
            "time": 115.32470799999999,
            "value": 0.6377952755905512
          },
          {
            "number": 11,
            "ticks": 14212,
            "time": 115.35717554166665,
            "value": 0.6299212598425197
          },
          {
            "number": 11,
            "ticks": 14216,
            "time": 115.38964308333333,
            "value": 0.6220472440944882
          },
          {
            "number": 11,
            "ticks": 14217,
            "time": 115.39775996875,
            "value": 0.6141732283464567
          },
          {
            "number": 11,
            "ticks": 14221,
            "time": 115.43022751041666,
            "value": 0.6062992125984252
          },
          {
            "number": 11,
            "ticks": 14224,
            "time": 115.45457816666665,
            "value": 0.5984251968503937
          },
          {
            "number": 11,
            "ticks": 14228,
            "time": 115.48704570833333,
            "value": 0.5905511811023622
          },
          {
            "number": 11,
            "ticks": 14229,
            "time": 115.49516259375,
            "value": 0.5826771653543307
          },
          {
            "number": 11,
            "ticks": 14233,
            "time": 115.52763013541666,
            "value": 0.5748031496062992
          },
          {
            "number": 11,
            "ticks": 14237,
            "time": 115.56009767708333,
            "value": 0.5669291338582677
          },
          {
            "number": 11,
            "ticks": 14240,
            "time": 115.58444833333333,
            "value": 0.5590551181102362
          },
          {
            "number": 11,
            "ticks": 14244,
            "time": 115.61691587499999,
            "value": 0.5511811023622047
          },
          {
            "number": 11,
            "ticks": 14245,
            "time": 115.62503276041664,
            "value": 0.5433070866141733
          },
          {
            "number": 11,
            "ticks": 14249,
            "time": 115.65750030208333,
            "value": 0.5354330708661418
          },
          {
            "number": 11,
            "ticks": 14252,
            "time": 115.68185095833333,
            "value": 0.5275590551181102
          },
          {
            "number": 11,
            "ticks": 14260,
            "time": 115.74678604166665,
            "value": 0.5039370078740157
          },
          {
            "number": 11,
            "ticks": 14264,
            "time": 115.77925358333333,
            "value": 0.5118110236220472
          },
          {
            "number": 11,
            "ticks": 14265,
            "time": 115.78737046875,
            "value": 0.5196850393700787
          },
          {
            "number": 11,
            "ticks": 14269,
            "time": 115.81983801041665,
            "value": 0.5275590551181102
          },
          {
            "number": 11,
            "ticks": 14272,
            "time": 115.84418866666665,
            "value": 0.5354330708661418
          },
          {
            "number": 11,
            "ticks": 14273,
            "time": 115.85230555208334,
            "value": 0.5433070866141733
          },
          {
            "number": 11,
            "ticks": 14277,
            "time": 115.88477309374998,
            "value": 0.5511811023622047
          },
          {
            "number": 11,
            "ticks": 14280,
            "time": 115.90912374999999,
            "value": 0.5590551181102362
          },
          {
            "number": 11,
            "ticks": 14284,
            "time": 115.94159129166665,
            "value": 0.5669291338582677
          },
          {
            "number": 11,
            "ticks": 14285,
            "time": 115.94970817708334,
            "value": 0.5748031496062992
          },
          {
            "number": 11,
            "ticks": 14288,
            "time": 115.97405883333333,
            "value": 0.5826771653543307
          },
          {
            "number": 11,
            "ticks": 14292,
            "time": 116.00652637499999,
            "value": 0.5905511811023622
          },
          {
            "number": 11,
            "ticks": 14293,
            "time": 116.01464326041665,
            "value": 0.5984251968503937
          },
          {
            "number": 11,
            "ticks": 14296,
            "time": 116.03899391666666,
            "value": 0.6062992125984252
          },
          {
            "number": 11,
            "ticks": 14300,
            "time": 116.07146145833333,
            "value": 0.6141732283464567
          },
          {
            "number": 11,
            "ticks": 14301,
            "time": 116.07957834374999,
            "value": 0.6220472440944882
          },
          {
            "number": 11,
            "ticks": 14305,
            "time": 116.11204588541665,
            "value": 0.6299212598425197
          },
          {
            "number": 11,
            "ticks": 14308,
            "time": 116.13639654166666,
            "value": 0.6377952755905512
          },
          {
            "number": 11,
            "ticks": 14309,
            "time": 116.14451342708333,
            "value": 0.6456692913385826
          },
          {
            "number": 11,
            "ticks": 14313,
            "time": 116.17698096874999,
            "value": 0.6535433070866141
          },
          {
            "number": 11,
            "ticks": 14316,
            "time": 116.201331625,
            "value": 0.6614173228346457
          },
          {
            "number": 11,
            "ticks": 14317,
            "time": 116.20944851041665,
            "value": 0.6692913385826772
          },
          {
            "number": 11,
            "ticks": 14321,
            "time": 116.24191605208333,
            "value": 0.6771653543307087
          },
          {
            "number": 11,
            "ticks": 14324,
            "time": 116.26626670833333,
            "value": 0.6850393700787402
          },
          {
            "number": 11,
            "ticks": 14328,
            "time": 116.29873425,
            "value": 0.6929133858267716
          },
          {
            "number": 11,
            "ticks": 14329,
            "time": 116.30685113541665,
            "value": 0.7007874015748031
          },
          {
            "number": 11,
            "ticks": 14332,
            "time": 116.33120179166666,
            "value": 0.7086614173228346
          },
          {
            "number": 11,
            "ticks": 14336,
            "time": 116.36366933333333,
            "value": 0.7165354330708661
          },
          {
            "number": 11,
            "ticks": 14337,
            "time": 116.37178621874999,
            "value": 0.7244094488188977
          },
          {
            "number": 11,
            "ticks": 14341,
            "time": 116.40425376041665,
            "value": 0.7322834645669292
          },
          {
            "number": 11,
            "ticks": 14344,
            "time": 116.42860441666664,
            "value": 0.7401574803149606
          },
          {
            "number": 11,
            "ticks": 14345,
            "time": 116.43672130208333,
            "value": 0.7480314960629921
          },
          {
            "number": 11,
            "ticks": 14349,
            "time": 116.46918884374999,
            "value": 0.7559055118110236
          },
          {
            "number": 11,
            "ticks": 14352,
            "time": 116.4935395,
            "value": 0.7637795275590551
          },
          {
            "number": 11,
            "ticks": 14353,
            "time": 116.50165638541665,
            "value": 0.7716535433070866
          },
          {
            "number": 11,
            "ticks": 14357,
            "time": 116.53412392708333,
            "value": 0.7795275590551181
          },
          {
            "number": 11,
            "ticks": 14360,
            "time": 116.55847458333334,
            "value": 0.7874015748031497
          },
          {
            "number": 11,
            "ticks": 14364,
            "time": 116.590942125,
            "value": 0.7952755905511811
          },
          {
            "number": 11,
            "ticks": 14365,
            "time": 116.59905901041665,
            "value": 0.8031496062992126
          },
          {
            "number": 11,
            "ticks": 14368,
            "time": 116.62340966666665,
            "value": 0.8110236220472441
          },
          {
            "number": 11,
            "ticks": 14372,
            "time": 116.65587720833334,
            "value": 0.8188976377952756
          },
          {
            "number": 11,
            "ticks": 14373,
            "time": 116.66399409374999,
            "value": 0.8267716535433071
          },
          {
            "number": 11,
            "ticks": 14376,
            "time": 116.68834474999998,
            "value": 0.8346456692913385
          },
          {
            "number": 11,
            "ticks": 14380,
            "time": 116.72081229166665,
            "value": 0.84251968503937
          },
          {
            "number": 11,
            "ticks": 14381,
            "time": 116.72892917708333,
            "value": 0.8503937007874016
          },
          {
            "number": 11,
            "ticks": 14385,
            "time": 116.76139671874999,
            "value": 0.8582677165354331
          },
          {
            "number": 11,
            "ticks": 14388,
            "time": 116.78574737499999,
            "value": 0.8661417322834646
          },
          {
            "number": 11,
            "ticks": 14389,
            "time": 116.79386426041665,
            "value": 0.8740157480314961
          },
          {
            "number": 11,
            "ticks": 14393,
            "time": 116.82633180208333,
            "value": 0.8818897637795275
          },
          {
            "number": 11,
            "ticks": 14396,
            "time": 116.85068245833334,
            "value": 0.889763779527559
          },
          {
            "number": 11,
            "ticks": 14400,
            "time": 116.88314999999999,
            "value": 0.8976377952755905
          },
          {
            "number": 11,
            "ticks": 14401,
            "time": 116.89126688541666,
            "value": 0.905511811023622
          },
          {
            "number": 11,
            "ticks": 14404,
            "time": 116.91561754166665,
            "value": 0.9133858267716536
          },
          {
            "number": 11,
            "ticks": 14408,
            "time": 116.94808508333332,
            "value": 0.9212598425196851
          },
          {
            "number": 11,
            "ticks": 14409,
            "time": 116.95620196875,
            "value": 0.9291338582677166
          },
          {
            "number": 11,
            "ticks": 14412,
            "time": 116.98055262499999,
            "value": 0.937007874015748
          },
          {
            "number": 11,
            "ticks": 14416,
            "time": 117.01302016666665,
            "value": 0.9448818897637795
          },
          {
            "number": 11,
            "ticks": 14417,
            "time": 117.02113705208333,
            "value": 0.952755905511811
          },
          {
            "number": 11,
            "ticks": 14421,
            "time": 117.05360459375,
            "value": 0.9606299212598425
          },
          {
            "number": 11,
            "ticks": 14424,
            "time": 117.07795524999999,
            "value": 0.968503937007874
          },
          {
            "number": 11,
            "ticks": 14425,
            "time": 117.08607213541666,
            "value": 0.9763779527559056
          },
          {
            "number": 11,
            "ticks": 14429,
            "time": 117.11853967708333,
            "value": 0.984251968503937
          },
          {
            "number": 11,
            "ticks": 14432,
            "time": 117.14289033333333,
            "value": 0.9921259842519685
          },
          {
            "number": 11,
            "ticks": 14433,
            "time": 117.15100721875,
            "value": 1
          },
          {
            "number": 11,
            "ticks": 14833,
            "time": 120.39776138541664,
            "value": 0.9921259842519685
          },
          {
            "number": 11,
            "ticks": 14837,
            "time": 120.43022892708333,
            "value": 0.984251968503937
          },
          {
            "number": 11,
            "ticks": 14841,
            "time": 120.46269646875,
            "value": 0.9763779527559056
          },
          {
            "number": 11,
            "ticks": 14844,
            "time": 120.48704712499999,
            "value": 0.968503937007874
          },
          {
            "number": 11,
            "ticks": 14848,
            "time": 120.51951466666665,
            "value": 0.9606299212598425
          },
          {
            "number": 11,
            "ticks": 14849,
            "time": 120.52763155208334,
            "value": 0.952755905511811
          },
          {
            "number": 11,
            "ticks": 14853,
            "time": 120.56009909375,
            "value": 0.9448818897637795
          },
          {
            "number": 11,
            "ticks": 14857,
            "time": 120.59256663541665,
            "value": 0.937007874015748
          },
          {
            "number": 11,
            "ticks": 14860,
            "time": 120.61691729166665,
            "value": 0.9291338582677166
          },
          {
            "number": 11,
            "ticks": 14864,
            "time": 120.64938483333333,
            "value": 0.9212598425196851
          },
          {
            "number": 11,
            "ticks": 14865,
            "time": 120.65750171874998,
            "value": 0.9133858267716536
          },
          {
            "number": 11,
            "ticks": 14869,
            "time": 120.68996926041665,
            "value": 0.905511811023622
          },
          {
            "number": 11,
            "ticks": 14872,
            "time": 120.71431991666665,
            "value": 0.8976377952755905
          },
          {
            "number": 11,
            "ticks": 14876,
            "time": 120.74678745833333,
            "value": 0.889763779527559
          },
          {
            "number": 11,
            "ticks": 14880,
            "time": 120.77925499999999,
            "value": 0.8818897637795275
          },
          {
            "number": 11,
            "ticks": 14881,
            "time": 120.78737188541665,
            "value": 0.8740157480314961
          },
          {
            "number": 11,
            "ticks": 14885,
            "time": 120.81983942708334,
            "value": 0.8661417322834646
          },
          {
            "number": 11,
            "ticks": 14888,
            "time": 120.84419008333333,
            "value": 0.8582677165354331
          },
          {
            "number": 11,
            "ticks": 14892,
            "time": 120.87665762499999,
            "value": 0.8503937007874016
          },
          {
            "number": 11,
            "ticks": 14893,
            "time": 120.88477451041665,
            "value": 0.84251968503937
          },
          {
            "number": 11,
            "ticks": 14897,
            "time": 120.91724205208334,
            "value": 0.8346456692913385
          },
          {
            "number": 11,
            "ticks": 14901,
            "time": 120.94970959374999,
            "value": 0.8267716535433071
          },
          {
            "number": 11,
            "ticks": 14904,
            "time": 120.97406025,
            "value": 0.8188976377952756
          },
          {
            "number": 11,
            "ticks": 14908,
            "time": 121.00652779166666,
            "value": 0.8110236220472441
          },
          {
            "number": 11,
            "ticks": 14909,
            "time": 121.01464467708333,
            "value": 0.8031496062992126
          },
          {
            "number": 11,
            "ticks": 14913,
            "time": 121.04711221874999,
            "value": 0.7952755905511811
          },
          {
            "number": 11,
            "ticks": 14916,
            "time": 121.071462875,
            "value": 0.7874015748031497
          },
          {
            "number": 11,
            "ticks": 14920,
            "time": 121.10393041666666,
            "value": 0.7795275590551181
          },
          {
            "number": 11,
            "ticks": 14924,
            "time": 121.13639795833333,
            "value": 0.7716535433070866
          },
          {
            "number": 11,
            "ticks": 14925,
            "time": 121.14451484374999,
            "value": 0.7637795275590551
          },
          {
            "number": 11,
            "ticks": 14929,
            "time": 121.17698238541665,
            "value": 0.7559055118110236
          },
          {
            "number": 11,
            "ticks": 14932,
            "time": 121.20133304166664,
            "value": 0.7480314960629921
          },
          {
            "number": 11,
            "ticks": 14936,
            "time": 121.23380058333333,
            "value": 0.7401574803149606
          },
          {
            "number": 11,
            "ticks": 14940,
            "time": 121.266268125,
            "value": 0.7322834645669292
          },
          {
            "number": 11,
            "ticks": 14941,
            "time": 121.27438501041665,
            "value": 0.7244094488188977
          },
          {
            "number": 11,
            "ticks": 14945,
            "time": 121.30685255208333,
            "value": 0.7165354330708661
          },
          {
            "number": 11,
            "ticks": 14948,
            "time": 121.33120320833333,
            "value": 0.7086614173228346
          },
          {
            "number": 11,
            "ticks": 14952,
            "time": 121.36367075,
            "value": 0.7007874015748031
          },
          {
            "number": 11,
            "ticks": 14953,
            "time": 121.37178763541665,
            "value": 0.6929133858267716
          },
          {
            "number": 11,
            "ticks": 14957,
            "time": 121.40425517708333,
            "value": 0.6850393700787402
          },
          {
            "number": 11,
            "ticks": 14961,
            "time": 121.43672271874999,
            "value": 0.6771653543307087
          },
          {
            "number": 11,
            "ticks": 14964,
            "time": 121.46107337499998,
            "value": 0.6692913385826772
          },
          {
            "number": 11,
            "ticks": 14968,
            "time": 121.49354091666665,
            "value": 0.6614173228346457
          },
          {
            "number": 11,
            "ticks": 14969,
            "time": 121.50165780208333,
            "value": 0.6535433070866141
          },
          {
            "number": 11,
            "ticks": 14973,
            "time": 121.53412534374999,
            "value": 0.6456692913385826
          },
          {
            "number": 11,
            "ticks": 14976,
            "time": 121.55847599999998,
            "value": 0.6377952755905512
          },
          {
            "number": 11,
            "ticks": 14980,
            "time": 121.59094354166665,
            "value": 0.6299212598425197
          },
          {
            "number": 11,
            "ticks": 14984,
            "time": 121.62341108333334,
            "value": 0.6220472440944882
          },
          {
            "number": 11,
            "ticks": 14985,
            "time": 121.63152796874999,
            "value": 0.6141732283464567
          },
          {
            "number": 11,
            "ticks": 14989,
            "time": 121.66399551041665,
            "value": 0.6062992125984252
          },
          {
            "number": 11,
            "ticks": 14992,
            "time": 121.68834616666665,
            "value": 0.5984251968503937
          },
          {
            "number": 11,
            "ticks": 14996,
            "time": 121.72081370833334,
            "value": 0.5905511811023622
          },
          {
            "number": 11,
            "ticks": 14997,
            "time": 121.72893059375,
            "value": 0.5826771653543307
          },
          {
            "number": 11,
            "ticks": 15001,
            "time": 121.76139813541666,
            "value": 0.5748031496062992
          },
          {
            "number": 11,
            "ticks": 15005,
            "time": 121.79386567708333,
            "value": 0.5669291338582677
          },
          {
            "number": 11,
            "ticks": 15008,
            "time": 121.81821633333332,
            "value": 0.5590551181102362
          },
          {
            "number": 11,
            "ticks": 15012,
            "time": 121.85068387499999,
            "value": 0.5511811023622047
          },
          {
            "number": 11,
            "ticks": 15013,
            "time": 121.85880076041666,
            "value": 0.5433070866141733
          },
          {
            "number": 11,
            "ticks": 15017,
            "time": 121.89126830208333,
            "value": 0.5354330708661418
          },
          {
            "number": 11,
            "ticks": 15020,
            "time": 121.91561895833333,
            "value": 0.5275590551181102
          },
          {
            "number": 11,
            "ticks": 15028,
            "time": 121.98055404166665,
            "value": 0.5039370078740157
          },
          {
            "number": 11,
            "ticks": 15220,
            "time": 123.53899604166665,
            "value": 0.5039370078740157
          },
          {
            "number": 11,
            "ticks": 15224,
            "time": 123.57146358333333,
            "value": 0.5118110236220472
          },
          {
            "number": 11,
            "ticks": 15225,
            "time": 123.57958046875,
            "value": 0.5196850393700787
          },
          {
            "number": 11,
            "ticks": 15229,
            "time": 123.61204801041664,
            "value": 0.5275590551181102
          },
          {
            "number": 11,
            "ticks": 15232,
            "time": 123.63639866666665,
            "value": 0.5354330708661418
          },
          {
            "number": 11,
            "ticks": 15233,
            "time": 123.64451555208333,
            "value": 0.5433070866141733
          },
          {
            "number": 11,
            "ticks": 15237,
            "time": 123.67698309375,
            "value": 0.5511811023622047
          },
          {
            "number": 11,
            "ticks": 15240,
            "time": 123.70133374999999,
            "value": 0.5590551181102362
          },
          {
            "number": 11,
            "ticks": 15244,
            "time": 123.73380129166665,
            "value": 0.5669291338582677
          },
          {
            "number": 11,
            "ticks": 15245,
            "time": 123.74191817708333,
            "value": 0.5748031496062992
          },
          {
            "number": 11,
            "ticks": 15248,
            "time": 123.76626883333333,
            "value": 0.5826771653543307
          },
          {
            "number": 11,
            "ticks": 15252,
            "time": 123.79873637499999,
            "value": 0.5905511811023622
          },
          {
            "number": 11,
            "ticks": 15253,
            "time": 123.80685326041664,
            "value": 0.5984251968503937
          },
          {
            "number": 11,
            "ticks": 15256,
            "time": 123.83120391666665,
            "value": 0.6062992125984252
          },
          {
            "number": 11,
            "ticks": 15260,
            "time": 123.86367145833333,
            "value": 0.6141732283464567
          },
          {
            "number": 11,
            "ticks": 15261,
            "time": 123.87178834374998,
            "value": 0.6220472440944882
          },
          {
            "number": 11,
            "ticks": 15265,
            "time": 123.90425588541665,
            "value": 0.6299212598425197
          },
          {
            "number": 11,
            "ticks": 15268,
            "time": 123.92860654166665,
            "value": 0.6377952755905512
          },
          {
            "number": 11,
            "ticks": 15269,
            "time": 123.93672342708334,
            "value": 0.6456692913385826
          },
          {
            "number": 11,
            "ticks": 15273,
            "time": 123.96919096874998,
            "value": 0.6535433070866141
          },
          {
            "number": 11,
            "ticks": 15276,
            "time": 123.99354162499999,
            "value": 0.6614173228346457
          },
          {
            "number": 11,
            "ticks": 15277,
            "time": 124.00165851041665,
            "value": 0.6692913385826772
          },
          {
            "number": 11,
            "ticks": 15281,
            "time": 124.03412605208334,
            "value": 0.6771653543307087
          },
          {
            "number": 11,
            "ticks": 15284,
            "time": 124.05847670833333,
            "value": 0.6850393700787402
          },
          {
            "number": 11,
            "ticks": 15288,
            "time": 124.09094424999999,
            "value": 0.6929133858267716
          },
          {
            "number": 11,
            "ticks": 15289,
            "time": 124.09906113541665,
            "value": 0.7007874015748031
          },
          {
            "number": 11,
            "ticks": 15292,
            "time": 124.12341179166665,
            "value": 0.7086614173228346
          },
          {
            "number": 11,
            "ticks": 15296,
            "time": 124.15587933333333,
            "value": 0.7165354330708661
          },
          {
            "number": 11,
            "ticks": 15297,
            "time": 124.16399621874999,
            "value": 0.7244094488188977
          },
          {
            "number": 11,
            "ticks": 15301,
            "time": 124.19646376041665,
            "value": 0.7322834645669292
          },
          {
            "number": 11,
            "ticks": 15304,
            "time": 124.22081441666666,
            "value": 0.7401574803149606
          },
          {
            "number": 11,
            "ticks": 15305,
            "time": 124.22893130208332,
            "value": 0.7480314960629921
          },
          {
            "number": 11,
            "ticks": 15309,
            "time": 124.26139884374999,
            "value": 0.7559055118110236
          },
          {
            "number": 11,
            "ticks": 15312,
            "time": 124.2857495,
            "value": 0.7637795275590551
          },
          {
            "number": 11,
            "ticks": 15313,
            "time": 124.29386638541665,
            "value": 0.7716535433070866
          },
          {
            "number": 11,
            "ticks": 15317,
            "time": 124.32633392708333,
            "value": 0.7795275590551181
          },
          {
            "number": 11,
            "ticks": 15320,
            "time": 124.35068458333333,
            "value": 0.7874015748031497
          },
          {
            "number": 11,
            "ticks": 15324,
            "time": 124.383152125,
            "value": 0.7952755905511811
          },
          {
            "number": 11,
            "ticks": 15325,
            "time": 124.39126901041665,
            "value": 0.8031496062992126
          },
          {
            "number": 11,
            "ticks": 15328,
            "time": 124.41561966666664,
            "value": 0.8110236220472441
          },
          {
            "number": 11,
            "ticks": 15332,
            "time": 124.44808720833333,
            "value": 0.8188976377952756
          },
          {
            "number": 11,
            "ticks": 15333,
            "time": 124.45620409374999,
            "value": 0.8267716535433071
          },
          {
            "number": 11,
            "ticks": 15336,
            "time": 124.48055475,
            "value": 0.8346456692913385
          },
          {
            "number": 11,
            "ticks": 15340,
            "time": 124.51302229166664,
            "value": 0.84251968503937
          },
          {
            "number": 11,
            "ticks": 15341,
            "time": 124.52113917708333,
            "value": 0.8503937007874016
          },
          {
            "number": 11,
            "ticks": 15345,
            "time": 124.55360671874999,
            "value": 0.8582677165354331
          },
          {
            "number": 11,
            "ticks": 15348,
            "time": 124.577957375,
            "value": 0.8661417322834646
          },
          {
            "number": 11,
            "ticks": 15349,
            "time": 124.58607426041665,
            "value": 0.8740157480314961
          },
          {
            "number": 11,
            "ticks": 15353,
            "time": 124.61854180208333,
            "value": 0.8818897637795275
          },
          {
            "number": 11,
            "ticks": 15356,
            "time": 124.64289245833334,
            "value": 0.889763779527559
          },
          {
            "number": 11,
            "ticks": 15360,
            "time": 124.67535999999998,
            "value": 0.8976377952755905
          },
          {
            "number": 11,
            "ticks": 15361,
            "time": 124.68347688541665,
            "value": 0.905511811023622
          },
          {
            "number": 11,
            "ticks": 15364,
            "time": 124.70782754166665,
            "value": 0.9133858267716536
          },
          {
            "number": 11,
            "ticks": 15368,
            "time": 124.74029508333334,
            "value": 0.9212598425196851
          },
          {
            "number": 11,
            "ticks": 15369,
            "time": 124.74841196874999,
            "value": 0.9291338582677166
          },
          {
            "number": 11,
            "ticks": 15372,
            "time": 124.77276262499998,
            "value": 0.937007874015748
          },
          {
            "number": 11,
            "ticks": 15376,
            "time": 124.80523016666665,
            "value": 0.9448818897637795
          },
          {
            "number": 11,
            "ticks": 15377,
            "time": 124.81334705208333,
            "value": 0.952755905511811
          },
          {
            "number": 11,
            "ticks": 15381,
            "time": 124.84581459374999,
            "value": 0.9606299212598425
          },
          {
            "number": 11,
            "ticks": 15384,
            "time": 124.87016524999999,
            "value": 0.968503937007874
          },
          {
            "number": 11,
            "ticks": 15385,
            "time": 124.87828213541665,
            "value": 0.9763779527559056
          },
          {
            "number": 11,
            "ticks": 15389,
            "time": 124.91074967708333,
            "value": 0.984251968503937
          },
          {
            "number": 11,
            "ticks": 15392,
            "time": 124.93510033333334,
            "value": 0.9921259842519685
          },
          {
            "number": 11,
            "ticks": 15393,
            "time": 124.94321721875,
            "value": 1
          },
          {
            "number": 11,
            "ticks": 15793,
            "time": 128.18997138541664,
            "value": 0.9921259842519685
          },
          {
            "number": 11,
            "ticks": 15797,
            "time": 128.22243892708332,
            "value": 0.984251968503937
          },
          {
            "number": 11,
            "ticks": 15801,
            "time": 128.25490646875,
            "value": 0.9763779527559056
          },
          {
            "number": 11,
            "ticks": 15804,
            "time": 128.279257125,
            "value": 0.968503937007874
          },
          {
            "number": 11,
            "ticks": 15808,
            "time": 128.31172466666666,
            "value": 0.9606299212598425
          },
          {
            "number": 11,
            "ticks": 15809,
            "time": 128.31984155208332,
            "value": 0.952755905511811
          },
          {
            "number": 11,
            "ticks": 15813,
            "time": 128.35230909375,
            "value": 0.9448818897637795
          },
          {
            "number": 11,
            "ticks": 15817,
            "time": 128.38477663541664,
            "value": 0.937007874015748
          },
          {
            "number": 11,
            "ticks": 15820,
            "time": 128.40912729166664,
            "value": 0.9291338582677166
          },
          {
            "number": 11,
            "ticks": 15824,
            "time": 128.44159483333334,
            "value": 0.9212598425196851
          },
          {
            "number": 11,
            "ticks": 15825,
            "time": 128.44971171875,
            "value": 0.9133858267716536
          },
          {
            "number": 11,
            "ticks": 15829,
            "time": 128.48217926041664,
            "value": 0.905511811023622
          },
          {
            "number": 11,
            "ticks": 15832,
            "time": 128.50652991666664,
            "value": 0.8976377952755905
          },
          {
            "number": 11,
            "ticks": 15836,
            "time": 128.53899745833334,
            "value": 0.889763779527559
          },
          {
            "number": 11,
            "ticks": 15840,
            "time": 128.571465,
            "value": 0.8818897637795275
          },
          {
            "number": 11,
            "ticks": 15841,
            "time": 128.57958188541664,
            "value": 0.8740157480314961
          },
          {
            "number": 11,
            "ticks": 15845,
            "time": 128.61204942708332,
            "value": 0.8661417322834646
          },
          {
            "number": 11,
            "ticks": 15848,
            "time": 128.63640008333334,
            "value": 0.8582677165354331
          },
          {
            "number": 11,
            "ticks": 15852,
            "time": 128.668867625,
            "value": 0.8503937007874016
          },
          {
            "number": 11,
            "ticks": 15853,
            "time": 128.67698451041664,
            "value": 0.84251968503937
          },
          {
            "number": 11,
            "ticks": 15857,
            "time": 128.70945205208332,
            "value": 0.8346456692913385
          },
          {
            "number": 11,
            "ticks": 15861,
            "time": 128.74191959375,
            "value": 0.8267716535433071
          },
          {
            "number": 11,
            "ticks": 15864,
            "time": 128.76627025,
            "value": 0.8188976377952756
          },
          {
            "number": 11,
            "ticks": 15868,
            "time": 128.79873779166664,
            "value": 0.8110236220472441
          },
          {
            "number": 11,
            "ticks": 15869,
            "time": 128.80685467708332,
            "value": 0.8031496062992126
          },
          {
            "number": 11,
            "ticks": 15873,
            "time": 128.83932221875,
            "value": 0.7952755905511811
          },
          {
            "number": 11,
            "ticks": 15876,
            "time": 128.863672875,
            "value": 0.7874015748031497
          },
          {
            "number": 11,
            "ticks": 15880,
            "time": 128.89614041666664,
            "value": 0.7795275590551181
          },
          {
            "number": 11,
            "ticks": 15884,
            "time": 128.92860795833334,
            "value": 0.7716535433070866
          },
          {
            "number": 11,
            "ticks": 15885,
            "time": 128.93672484375,
            "value": 0.7637795275590551
          },
          {
            "number": 11,
            "ticks": 15889,
            "time": 128.96919238541665,
            "value": 0.7559055118110236
          },
          {
            "number": 11,
            "ticks": 15892,
            "time": 128.99354304166664,
            "value": 0.7480314960629921
          },
          {
            "number": 11,
            "ticks": 15896,
            "time": 129.02601058333332,
            "value": 0.7401574803149606
          },
          {
            "number": 11,
            "ticks": 15900,
            "time": 129.058478125,
            "value": 0.7322834645669292
          },
          {
            "number": 11,
            "ticks": 15901,
            "time": 129.06659501041665,
            "value": 0.7244094488188977
          },
          {
            "number": 11,
            "ticks": 15905,
            "time": 129.09906255208332,
            "value": 0.7165354330708661
          },
          {
            "number": 11,
            "ticks": 15908,
            "time": 129.12341320833332,
            "value": 0.7086614173228346
          },
          {
            "number": 11,
            "ticks": 15912,
            "time": 129.15588075,
            "value": 0.7007874015748031
          },
          {
            "number": 11,
            "ticks": 15913,
            "time": 129.16399763541665,
            "value": 0.6929133858267716
          },
          {
            "number": 11,
            "ticks": 15917,
            "time": 129.19646517708333,
            "value": 0.6850393700787402
          },
          {
            "number": 11,
            "ticks": 15921,
            "time": 129.22893271875,
            "value": 0.6771653543307087
          },
          {
            "number": 11,
            "ticks": 15924,
            "time": 129.253283375,
            "value": 0.6692913385826772
          },
          {
            "number": 11,
            "ticks": 15928,
            "time": 129.28575091666664,
            "value": 0.6614173228346457
          },
          {
            "number": 11,
            "ticks": 15929,
            "time": 129.29386780208333,
            "value": 0.6535433070866141
          },
          {
            "number": 11,
            "ticks": 15933,
            "time": 129.32633534375,
            "value": 0.6456692913385826
          },
          {
            "number": 11,
            "ticks": 15936,
            "time": 129.350686,
            "value": 0.6377952755905512
          },
          {
            "number": 11,
            "ticks": 15940,
            "time": 129.38315354166664,
            "value": 0.6299212598425197
          },
          {
            "number": 11,
            "ticks": 15944,
            "time": 129.41562108333332,
            "value": 0.6220472440944882
          },
          {
            "number": 11,
            "ticks": 15945,
            "time": 129.42373796875,
            "value": 0.6141732283464567
          },
          {
            "number": 11,
            "ticks": 15949,
            "time": 129.45620551041665,
            "value": 0.6062992125984252
          },
          {
            "number": 11,
            "ticks": 15952,
            "time": 129.48055616666664,
            "value": 0.5984251968503937
          },
          {
            "number": 11,
            "ticks": 15956,
            "time": 129.51302370833332,
            "value": 0.5905511811023622
          },
          {
            "number": 11,
            "ticks": 15957,
            "time": 129.52114059374998,
            "value": 0.5826771653543307
          },
          {
            "number": 11,
            "ticks": 15961,
            "time": 129.55360813541665,
            "value": 0.5748031496062992
          },
          {
            "number": 11,
            "ticks": 15965,
            "time": 129.58607567708333,
            "value": 0.5669291338582677
          },
          {
            "number": 11,
            "ticks": 15968,
            "time": 129.61042633333332,
            "value": 0.5590551181102362
          },
          {
            "number": 11,
            "ticks": 15972,
            "time": 129.642893875,
            "value": 0.5511811023622047
          },
          {
            "number": 11,
            "ticks": 15973,
            "time": 129.65101076041665,
            "value": 0.5433070866141733
          },
          {
            "number": 11,
            "ticks": 15977,
            "time": 129.68347830208333,
            "value": 0.5354330708661418
          },
          {
            "number": 11,
            "ticks": 15980,
            "time": 129.70782895833332,
            "value": 0.5275590551181102
          },
          {
            "number": 11,
            "ticks": 15988,
            "time": 129.77276404166665,
            "value": 0.5039370078740157
          },
          {
            "number": 11,
            "ticks": 15992,
            "time": 129.80523158333332,
            "value": 0.5118110236220472
          },
          {
            "number": 11,
            "ticks": 15993,
            "time": 129.81334846874998,
            "value": 0.5196850393700787
          },
          {
            "number": 11,
            "ticks": 15997,
            "time": 129.84581601041666,
            "value": 0.5275590551181102
          },
          {
            "number": 11,
            "ticks": 16000,
            "time": 129.87016666666665,
            "value": 0.5354330708661418
          },
          {
            "number": 11,
            "ticks": 16001,
            "time": 129.87828355208333,
            "value": 0.5433070866141733
          },
          {
            "number": 11,
            "ticks": 16005,
            "time": 129.91075109374998,
            "value": 0.5511811023622047
          },
          {
            "number": 11,
            "ticks": 16008,
            "time": 129.93510175,
            "value": 0.5590551181102362
          },
          {
            "number": 11,
            "ticks": 16012,
            "time": 129.96756929166665,
            "value": 0.5669291338582677
          },
          {
            "number": 11,
            "ticks": 16013,
            "time": 129.97568617708333,
            "value": 0.5748031496062992
          },
          {
            "number": 11,
            "ticks": 16016,
            "time": 130.00003683333333,
            "value": 0.5826771653543307
          },
          {
            "number": 11,
            "ticks": 16020,
            "time": 130.032504375,
            "value": 0.5905511811023622
          },
          {
            "number": 11,
            "ticks": 16021,
            "time": 130.04062126041666,
            "value": 0.5984251968503937
          },
          {
            "number": 11,
            "ticks": 16024,
            "time": 130.06497191666665,
            "value": 0.6062992125984252
          },
          {
            "number": 11,
            "ticks": 16028,
            "time": 130.09743945833333,
            "value": 0.6141732283464567
          },
          {
            "number": 11,
            "ticks": 16029,
            "time": 130.10555634374998,
            "value": 0.6220472440944882
          },
          {
            "number": 11,
            "ticks": 16033,
            "time": 130.13802388541666,
            "value": 0.6299212598425197
          },
          {
            "number": 11,
            "ticks": 16036,
            "time": 130.16237454166665,
            "value": 0.6377952755905512
          },
          {
            "number": 11,
            "ticks": 16037,
            "time": 130.17049142708333,
            "value": 0.6456692913385826
          },
          {
            "number": 11,
            "ticks": 16041,
            "time": 130.20295896874998,
            "value": 0.6535433070866141
          },
          {
            "number": 11,
            "ticks": 16044,
            "time": 130.227309625,
            "value": 0.6614173228346457
          },
          {
            "number": 11,
            "ticks": 16045,
            "time": 130.23542651041666,
            "value": 0.6692913385826772
          },
          {
            "number": 11,
            "ticks": 16049,
            "time": 130.26789405208334,
            "value": 0.6771653543307087
          },
          {
            "number": 11,
            "ticks": 16052,
            "time": 130.29224470833333,
            "value": 0.6850393700787402
          },
          {
            "number": 11,
            "ticks": 16056,
            "time": 130.32471224999998,
            "value": 0.6929133858267716
          },
          {
            "number": 11,
            "ticks": 16057,
            "time": 130.33282913541666,
            "value": 0.7007874015748031
          },
          {
            "number": 11,
            "ticks": 16060,
            "time": 130.35717979166665,
            "value": 0.7086614173228346
          },
          {
            "number": 11,
            "ticks": 16064,
            "time": 130.38964733333333,
            "value": 0.7165354330708661
          },
          {
            "number": 11,
            "ticks": 16065,
            "time": 130.39776421874998,
            "value": 0.7244094488188977
          },
          {
            "number": 11,
            "ticks": 16069,
            "time": 130.43023176041666,
            "value": 0.7322834645669292
          },
          {
            "number": 11,
            "ticks": 16072,
            "time": 130.45458241666665,
            "value": 0.7401574803149606
          },
          {
            "number": 11,
            "ticks": 16073,
            "time": 130.46269930208334,
            "value": 0.7480314960629921
          },
          {
            "number": 11,
            "ticks": 16077,
            "time": 130.49516684374998,
            "value": 0.7559055118110236
          },
          {
            "number": 11,
            "ticks": 16080,
            "time": 130.51951749999998,
            "value": 0.7637795275590551
          },
          {
            "number": 11,
            "ticks": 16081,
            "time": 130.52763438541666,
            "value": 0.7716535433070866
          },
          {
            "number": 11,
            "ticks": 16085,
            "time": 130.56010192708334,
            "value": 0.7795275590551181
          },
          {
            "number": 11,
            "ticks": 16088,
            "time": 130.58445258333333,
            "value": 0.7874015748031497
          },
          {
            "number": 11,
            "ticks": 16092,
            "time": 130.61692012499998,
            "value": 0.7952755905511811
          },
          {
            "number": 11,
            "ticks": 16093,
            "time": 130.62503701041666,
            "value": 0.8031496062992126
          },
          {
            "number": 11,
            "ticks": 16096,
            "time": 130.64938766666666,
            "value": 0.8110236220472441
          },
          {
            "number": 11,
            "ticks": 16100,
            "time": 130.68185520833333,
            "value": 0.8188976377952756
          },
          {
            "number": 11,
            "ticks": 16101,
            "time": 130.68997209375,
            "value": 0.8267716535433071
          },
          {
            "number": 11,
            "ticks": 16104,
            "time": 130.71432274999998,
            "value": 0.8346456692913385
          },
          {
            "number": 11,
            "ticks": 16108,
            "time": 130.74679029166666,
            "value": 0.84251968503937
          },
          {
            "number": 11,
            "ticks": 16109,
            "time": 130.75490717708334,
            "value": 0.8503937007874016
          },
          {
            "number": 11,
            "ticks": 16113,
            "time": 130.78737471875,
            "value": 0.8582677165354331
          },
          {
            "number": 11,
            "ticks": 16116,
            "time": 130.81172537499998,
            "value": 0.8661417322834646
          },
          {
            "number": 11,
            "ticks": 16117,
            "time": 130.81984226041664,
            "value": 0.8740157480314961
          },
          {
            "number": 11,
            "ticks": 16121,
            "time": 130.85230980208334,
            "value": 0.8818897637795275
          },
          {
            "number": 11,
            "ticks": 16124,
            "time": 130.87666045833333,
            "value": 0.889763779527559
          },
          {
            "number": 11,
            "ticks": 16128,
            "time": 130.90912799999998,
            "value": 0.8976377952755905
          },
          {
            "number": 11,
            "ticks": 16129,
            "time": 130.91724488541664,
            "value": 0.905511811023622
          },
          {
            "number": 11,
            "ticks": 16132,
            "time": 130.94159554166666,
            "value": 0.9133858267716536
          },
          {
            "number": 11,
            "ticks": 16136,
            "time": 130.97406308333333,
            "value": 0.9212598425196851
          },
          {
            "number": 11,
            "ticks": 16137,
            "time": 130.98217996875,
            "value": 0.9291338582677166
          },
          {
            "number": 11,
            "ticks": 16140,
            "time": 131.00653062499998,
            "value": 0.937007874015748
          },
          {
            "number": 11,
            "ticks": 16144,
            "time": 131.03899816666666,
            "value": 0.9448818897637795
          },
          {
            "number": 11,
            "ticks": 16145,
            "time": 131.04711505208334,
            "value": 0.952755905511811
          },
          {
            "number": 11,
            "ticks": 16149,
            "time": 131.07958259375,
            "value": 0.9606299212598425
          },
          {
            "number": 11,
            "ticks": 16152,
            "time": 131.10393324999998,
            "value": 0.968503937007874
          },
          {
            "number": 11,
            "ticks": 16153,
            "time": 131.11205013541664,
            "value": 0.9763779527559056
          },
          {
            "number": 11,
            "ticks": 16157,
            "time": 131.14451767708334,
            "value": 0.984251968503937
          },
          {
            "number": 11,
            "ticks": 16160,
            "time": 131.16886833333334,
            "value": 0.9921259842519685
          },
          {
            "number": 11,
            "ticks": 16161,
            "time": 131.17698521875,
            "value": 1
          },
          {
            "number": 11,
            "ticks": 16561,
            "time": 134.42373938541664,
            "value": 0.9921259842519685
          },
          {
            "number": 11,
            "ticks": 16565,
            "time": 134.45620692708334,
            "value": 0.984251968503937
          },
          {
            "number": 11,
            "ticks": 16569,
            "time": 134.48867446875,
            "value": 0.9763779527559056
          },
          {
            "number": 11,
            "ticks": 16572,
            "time": 134.51302512499998,
            "value": 0.968503937007874
          },
          {
            "number": 11,
            "ticks": 16576,
            "time": 134.54549266666666,
            "value": 0.9606299212598425
          },
          {
            "number": 11,
            "ticks": 16577,
            "time": 134.55360955208334,
            "value": 0.952755905511811
          },
          {
            "number": 11,
            "ticks": 16581,
            "time": 134.58607709375,
            "value": 0.9448818897637795
          },
          {
            "number": 11,
            "ticks": 16585,
            "time": 134.61854463541664,
            "value": 0.937007874015748
          },
          {
            "number": 11,
            "ticks": 16588,
            "time": 134.64289529166666,
            "value": 0.9291338582677166
          },
          {
            "number": 11,
            "ticks": 16592,
            "time": 134.67536283333334,
            "value": 0.9212598425196851
          },
          {
            "number": 11,
            "ticks": 16593,
            "time": 134.68347971875,
            "value": 0.9133858267716536
          },
          {
            "number": 11,
            "ticks": 16597,
            "time": 134.71594726041664,
            "value": 0.905511811023622
          },
          {
            "number": 11,
            "ticks": 16600,
            "time": 134.74029791666666,
            "value": 0.8976377952755905
          },
          {
            "number": 11,
            "ticks": 16604,
            "time": 134.77276545833334,
            "value": 0.889763779527559
          },
          {
            "number": 11,
            "ticks": 16608,
            "time": 134.805233,
            "value": 0.8818897637795275
          },
          {
            "number": 11,
            "ticks": 16609,
            "time": 134.81334988541664,
            "value": 0.8740157480314961
          },
          {
            "number": 11,
            "ticks": 16613,
            "time": 134.84581742708332,
            "value": 0.8661417322834646
          },
          {
            "number": 11,
            "ticks": 16616,
            "time": 134.87016808333334,
            "value": 0.8582677165354331
          },
          {
            "number": 11,
            "ticks": 16620,
            "time": 134.902635625,
            "value": 0.8503937007874016
          },
          {
            "number": 11,
            "ticks": 16621,
            "time": 134.91075251041664,
            "value": 0.84251968503937
          },
          {
            "number": 11,
            "ticks": 16625,
            "time": 134.94322005208332,
            "value": 0.8346456692913385
          },
          {
            "number": 11,
            "ticks": 16629,
            "time": 134.97568759375,
            "value": 0.8267716535433071
          },
          {
            "number": 11,
            "ticks": 16632,
            "time": 135.00003825,
            "value": 0.8188976377952756
          },
          {
            "number": 11,
            "ticks": 16636,
            "time": 135.03250579166664,
            "value": 0.8110236220472441
          },
          {
            "number": 11,
            "ticks": 16637,
            "time": 135.04062267708332,
            "value": 0.8031496062992126
          },
          {
            "number": 11,
            "ticks": 16641,
            "time": 135.07309021875,
            "value": 0.7952755905511811
          },
          {
            "number": 11,
            "ticks": 16644,
            "time": 135.097440875,
            "value": 0.7874015748031497
          },
          {
            "number": 11,
            "ticks": 16648,
            "time": 135.12990841666664,
            "value": 0.7795275590551181
          },
          {
            "number": 11,
            "ticks": 16652,
            "time": 135.16237595833334,
            "value": 0.7716535433070866
          },
          {
            "number": 11,
            "ticks": 16653,
            "time": 135.17049284375,
            "value": 0.7637795275590551
          },
          {
            "number": 11,
            "ticks": 16657,
            "time": 135.20296038541665,
            "value": 0.7559055118110236
          },
          {
            "number": 11,
            "ticks": 16660,
            "time": 135.22731104166664,
            "value": 0.7480314960629921
          },
          {
            "number": 11,
            "ticks": 16664,
            "time": 135.25977858333334,
            "value": 0.7401574803149606
          },
          {
            "number": 11,
            "ticks": 16668,
            "time": 135.292246125,
            "value": 0.7322834645669292
          },
          {
            "number": 11,
            "ticks": 16669,
            "time": 135.30036301041665,
            "value": 0.7244094488188977
          },
          {
            "number": 11,
            "ticks": 16673,
            "time": 135.33283055208332,
            "value": 0.7165354330708661
          },
          {
            "number": 11,
            "ticks": 16676,
            "time": 135.35718120833334,
            "value": 0.7086614173228346
          },
          {
            "number": 11,
            "ticks": 16680,
            "time": 135.38964875,
            "value": 0.7007874015748031
          },
          {
            "number": 11,
            "ticks": 16681,
            "time": 135.39776563541665,
            "value": 0.6929133858267716
          },
          {
            "number": 11,
            "ticks": 16685,
            "time": 135.43023317708332,
            "value": 0.6850393700787402
          },
          {
            "number": 11,
            "ticks": 16689,
            "time": 135.46270071875,
            "value": 0.6771653543307087
          },
          {
            "number": 11,
            "ticks": 16692,
            "time": 135.487051375,
            "value": 0.6692913385826772
          },
          {
            "number": 11,
            "ticks": 16696,
            "time": 135.51951891666664,
            "value": 0.6614173228346457
          },
          {
            "number": 11,
            "ticks": 16697,
            "time": 135.52763580208332,
            "value": 0.6535433070866141
          },
          {
            "number": 11,
            "ticks": 16701,
            "time": 135.56010334375,
            "value": 0.6456692913385826
          },
          {
            "number": 11,
            "ticks": 16704,
            "time": 135.584454,
            "value": 0.6377952755905512
          },
          {
            "number": 11,
            "ticks": 16708,
            "time": 135.61692154166664,
            "value": 0.6299212598425197
          },
          {
            "number": 11,
            "ticks": 16712,
            "time": 135.64938908333332,
            "value": 0.6220472440944882
          },
          {
            "number": 11,
            "ticks": 16713,
            "time": 135.65750596875,
            "value": 0.6141732283464567
          },
          {
            "number": 11,
            "ticks": 16717,
            "time": 135.68997351041665,
            "value": 0.6062992125984252
          },
          {
            "number": 11,
            "ticks": 16720,
            "time": 135.71432416666664,
            "value": 0.5984251968503937
          },
          {
            "number": 11,
            "ticks": 16724,
            "time": 135.74679170833332,
            "value": 0.5905511811023622
          },
          {
            "number": 11,
            "ticks": 16725,
            "time": 135.75490859375,
            "value": 0.5826771653543307
          },
          {
            "number": 11,
            "ticks": 16729,
            "time": 135.78737613541665,
            "value": 0.5748031496062992
          },
          {
            "number": 11,
            "ticks": 16733,
            "time": 135.81984367708333,
            "value": 0.5669291338582677
          },
          {
            "number": 11,
            "ticks": 16736,
            "time": 135.84419433333332,
            "value": 0.5590551181102362
          },
          {
            "number": 11,
            "ticks": 16740,
            "time": 135.876661875,
            "value": 0.5511811023622047
          },
          {
            "number": 11,
            "ticks": 16741,
            "time": 135.88477876041665,
            "value": 0.5433070866141733
          },
          {
            "number": 11,
            "ticks": 16745,
            "time": 135.91724630208333,
            "value": 0.5354330708661418
          },
          {
            "number": 11,
            "ticks": 16748,
            "time": 135.94159695833332,
            "value": 0.5275590551181102
          },
          {
            "number": 11,
            "ticks": 16756,
            "time": 136.00653204166665,
            "value": 0.5039370078740157
          },
          {
            "number": 11,
            "ticks": 16760,
            "time": 136.03899958333332,
            "value": 0.5118110236220472
          },
          {
            "number": 11,
            "ticks": 16761,
            "time": 136.04711646874998,
            "value": 0.5196850393700787
          },
          {
            "number": 11,
            "ticks": 16765,
            "time": 136.07958401041665,
            "value": 0.5275590551181102
          },
          {
            "number": 11,
            "ticks": 16768,
            "time": 136.10393466666665,
            "value": 0.5354330708661418
          },
          {
            "number": 11,
            "ticks": 16769,
            "time": 136.11205155208333,
            "value": 0.5433070866141733
          },
          {
            "number": 11,
            "ticks": 16773,
            "time": 136.14451909374998,
            "value": 0.5511811023622047
          },
          {
            "number": 11,
            "ticks": 16776,
            "time": 136.16886975,
            "value": 0.5590551181102362
          },
          {
            "number": 11,
            "ticks": 16780,
            "time": 136.20133729166665,
            "value": 0.5669291338582677
          },
          {
            "number": 11,
            "ticks": 16781,
            "time": 136.20945417708333,
            "value": 0.5748031496062992
          },
          {
            "number": 11,
            "ticks": 16784,
            "time": 136.23380483333332,
            "value": 0.5826771653543307
          },
          {
            "number": 11,
            "ticks": 16788,
            "time": 136.266272375,
            "value": 0.5905511811023622
          },
          {
            "number": 11,
            "ticks": 16789,
            "time": 136.27438926041665,
            "value": 0.5984251968503937
          },
          {
            "number": 11,
            "ticks": 16792,
            "time": 136.29873991666665,
            "value": 0.6062992125984252
          },
          {
            "number": 11,
            "ticks": 16796,
            "time": 136.33120745833332,
            "value": 0.6141732283464567
          },
          {
            "number": 11,
            "ticks": 16797,
            "time": 136.33932434374998,
            "value": 0.6220472440944882
          },
          {
            "number": 11,
            "ticks": 16801,
            "time": 136.37179188541666,
            "value": 0.6299212598425197
          },
          {
            "number": 11,
            "ticks": 16804,
            "time": 136.39614254166665,
            "value": 0.6377952755905512
          },
          {
            "number": 11,
            "ticks": 16805,
            "time": 136.40425942708333,
            "value": 0.6456692913385826
          },
          {
            "number": 11,
            "ticks": 16809,
            "time": 136.43672696874998,
            "value": 0.6535433070866141
          },
          {
            "number": 11,
            "ticks": 16812,
            "time": 136.461077625,
            "value": 0.6614173228346457
          },
          {
            "number": 11,
            "ticks": 16813,
            "time": 136.46919451041666,
            "value": 0.6692913385826772
          },
          {
            "number": 11,
            "ticks": 16817,
            "time": 136.50166205208333,
            "value": 0.6771653543307087
          },
          {
            "number": 11,
            "ticks": 16820,
            "time": 136.52601270833333,
            "value": 0.6850393700787402
          },
          {
            "number": 11,
            "ticks": 16824,
            "time": 136.55848025,
            "value": 0.6929133858267716
          },
          {
            "number": 11,
            "ticks": 16825,
            "time": 136.56659713541666,
            "value": 0.7007874015748031
          },
          {
            "number": 11,
            "ticks": 16828,
            "time": 136.59094779166665,
            "value": 0.7086614173228346
          },
          {
            "number": 11,
            "ticks": 16832,
            "time": 136.62341533333333,
            "value": 0.7165354330708661
          },
          {
            "number": 11,
            "ticks": 16833,
            "time": 136.63153221874998,
            "value": 0.7244094488188977
          },
          {
            "number": 11,
            "ticks": 16837,
            "time": 136.66399976041666,
            "value": 0.7322834645669292
          },
          {
            "number": 11,
            "ticks": 16840,
            "time": 136.68835041666665,
            "value": 0.7401574803149606
          },
          {
            "number": 11,
            "ticks": 16841,
            "time": 136.69646730208333,
            "value": 0.7480314960629921
          },
          {
            "number": 11,
            "ticks": 16845,
            "time": 136.72893484374998,
            "value": 0.7559055118110236
          },
          {
            "number": 11,
            "ticks": 16848,
            "time": 136.75328549999998,
            "value": 0.7637795275590551
          },
          {
            "number": 11,
            "ticks": 16849,
            "time": 136.76140238541666,
            "value": 0.7716535433070866
          },
          {
            "number": 11,
            "ticks": 16853,
            "time": 136.79386992708334,
            "value": 0.7795275590551181
          },
          {
            "number": 11,
            "ticks": 16856,
            "time": 136.81822058333333,
            "value": 0.7874015748031497
          },
          {
            "number": 11,
            "ticks": 16860,
            "time": 136.85068812499998,
            "value": 0.7952755905511811
          },
          {
            "number": 11,
            "ticks": 16861,
            "time": 136.85880501041666,
            "value": 0.8031496062992126
          },
          {
            "number": 11,
            "ticks": 16864,
            "time": 136.88315566666665,
            "value": 0.8110236220472441
          },
          {
            "number": 11,
            "ticks": 16868,
            "time": 136.91562320833333,
            "value": 0.8188976377952756
          },
          {
            "number": 11,
            "ticks": 16869,
            "time": 136.92374009374998,
            "value": 0.8267716535433071
          },
          {
            "number": 11,
            "ticks": 16872,
            "time": 136.94809074999998,
            "value": 0.8346456692913385
          },
          {
            "number": 11,
            "ticks": 16876,
            "time": 136.98055829166665,
            "value": 0.84251968503937
          },
          {
            "number": 11,
            "ticks": 16877,
            "time": 136.98867517708334,
            "value": 0.8503937007874016
          },
          {
            "number": 11,
            "ticks": 16881,
            "time": 137.02114271874999,
            "value": 0.8582677165354331
          },
          {
            "number": 11,
            "ticks": 16884,
            "time": 137.04549337499998,
            "value": 0.8661417322834646
          },
          {
            "number": 11,
            "ticks": 16885,
            "time": 137.05361026041666,
            "value": 0.8740157480314961
          },
          {
            "number": 11,
            "ticks": 16889,
            "time": 137.08607780208334,
            "value": 0.8818897637795275
          },
          {
            "number": 11,
            "ticks": 16892,
            "time": 137.11042845833333,
            "value": 0.889763779527559
          },
          {
            "number": 11,
            "ticks": 16896,
            "time": 137.14289599999998,
            "value": 0.8976377952755905
          },
          {
            "number": 11,
            "ticks": 16897,
            "time": 137.15101288541666,
            "value": 0.905511811023622
          },
          {
            "number": 11,
            "ticks": 16900,
            "time": 137.17536354166666,
            "value": 0.9133858267716536
          },
          {
            "number": 11,
            "ticks": 16904,
            "time": 137.20783108333333,
            "value": 0.9212598425196851
          },
          {
            "number": 11,
            "ticks": 16905,
            "time": 137.21594796875,
            "value": 0.9291338582677166
          },
          {
            "number": 11,
            "ticks": 16908,
            "time": 137.24029862499998,
            "value": 0.937007874015748
          },
          {
            "number": 11,
            "ticks": 16912,
            "time": 137.27276616666666,
            "value": 0.9448818897637795
          },
          {
            "number": 11,
            "ticks": 16913,
            "time": 137.28088305208334,
            "value": 0.952755905511811
          },
          {
            "number": 11,
            "ticks": 16917,
            "time": 137.31335059375,
            "value": 0.9606299212598425
          },
          {
            "number": 11,
            "ticks": 16920,
            "time": 137.33770124999998,
            "value": 0.968503937007874
          },
          {
            "number": 11,
            "ticks": 16921,
            "time": 137.34581813541664,
            "value": 0.9763779527559056
          },
          {
            "number": 11,
            "ticks": 16925,
            "time": 137.37828567708334,
            "value": 0.984251968503937
          },
          {
            "number": 11,
            "ticks": 16928,
            "time": 137.40263633333333,
            "value": 0.9921259842519685
          },
          {
            "number": 11,
            "ticks": 16929,
            "time": 137.41075321875,
            "value": 1
          },
          {
            "number": 11,
            "ticks": 17329,
            "time": 140.65750738541664,
            "value": 0.9921259842519685
          },
          {
            "number": 11,
            "ticks": 17333,
            "time": 140.68997492708334,
            "value": 0.984251968503937
          },
          {
            "number": 11,
            "ticks": 17337,
            "time": 140.72244246875,
            "value": 0.9763779527559056
          },
          {
            "number": 11,
            "ticks": 17340,
            "time": 140.74679312499998,
            "value": 0.968503937007874
          },
          {
            "number": 11,
            "ticks": 17344,
            "time": 140.77926066666666,
            "value": 0.9606299212598425
          },
          {
            "number": 11,
            "ticks": 17345,
            "time": 140.78737755208334,
            "value": 0.952755905511811
          },
          {
            "number": 11,
            "ticks": 17349,
            "time": 140.81984509375,
            "value": 0.9448818897637795
          },
          {
            "number": 11,
            "ticks": 17353,
            "time": 140.85231263541664,
            "value": 0.937007874015748
          },
          {
            "number": 11,
            "ticks": 17356,
            "time": 140.87666329166666,
            "value": 0.9291338582677166
          },
          {
            "number": 11,
            "ticks": 17360,
            "time": 140.90913083333334,
            "value": 0.9212598425196851
          },
          {
            "number": 11,
            "ticks": 17361,
            "time": 140.91724771875,
            "value": 0.9133858267716536
          },
          {
            "number": 11,
            "ticks": 17365,
            "time": 140.94971526041664,
            "value": 0.905511811023622
          },
          {
            "number": 11,
            "ticks": 17368,
            "time": 140.97406591666666,
            "value": 0.8976377952755905
          },
          {
            "number": 11,
            "ticks": 17372,
            "time": 141.00653345833334,
            "value": 0.889763779527559
          },
          {
            "number": 11,
            "ticks": 17376,
            "time": 141.03900099999998,
            "value": 0.8818897637795275
          },
          {
            "number": 11,
            "ticks": 17377,
            "time": 141.04711788541664,
            "value": 0.8740157480314961
          },
          {
            "number": 11,
            "ticks": 17381,
            "time": 141.07958542708332,
            "value": 0.8661417322834646
          },
          {
            "number": 11,
            "ticks": 17384,
            "time": 141.10393608333334,
            "value": 0.8582677165354331
          },
          {
            "number": 11,
            "ticks": 17388,
            "time": 141.13640362499999,
            "value": 0.8503937007874016
          },
          {
            "number": 11,
            "ticks": 17389,
            "time": 141.14452051041664,
            "value": 0.84251968503937
          },
          {
            "number": 11,
            "ticks": 17393,
            "time": 141.17698805208332,
            "value": 0.8346456692913385
          },
          {
            "number": 11,
            "ticks": 17397,
            "time": 141.20945559375,
            "value": 0.8267716535433071
          },
          {
            "number": 11,
            "ticks": 17400,
            "time": 141.23380625,
            "value": 0.8188976377952756
          },
          {
            "number": 11,
            "ticks": 17404,
            "time": 141.26627379166666,
            "value": 0.8110236220472441
          },
          {
            "number": 11,
            "ticks": 17405,
            "time": 141.27439067708332,
            "value": 0.8031496062992126
          },
          {
            "number": 11,
            "ticks": 17409,
            "time": 141.30685821875,
            "value": 0.7952755905511811
          },
          {
            "number": 11,
            "ticks": 17412,
            "time": 141.331208875,
            "value": 0.7874015748031497
          },
          {
            "number": 11,
            "ticks": 17416,
            "time": 141.36367641666664,
            "value": 0.7795275590551181
          },
          {
            "number": 11,
            "ticks": 17420,
            "time": 141.39614395833334,
            "value": 0.7716535433070866
          },
          {
            "number": 11,
            "ticks": 17421,
            "time": 141.40426084375,
            "value": 0.7637795275590551
          },
          {
            "number": 11,
            "ticks": 17425,
            "time": 141.43672838541664,
            "value": 0.7559055118110236
          },
          {
            "number": 11,
            "ticks": 17428,
            "time": 141.46107904166664,
            "value": 0.7480314960629921
          },
          {
            "number": 11,
            "ticks": 17432,
            "time": 141.49354658333334,
            "value": 0.7401574803149606
          },
          {
            "number": 11,
            "ticks": 17436,
            "time": 141.526014125,
            "value": 0.7322834645669292
          },
          {
            "number": 11,
            "ticks": 17437,
            "time": 141.53413101041664,
            "value": 0.7244094488188977
          },
          {
            "number": 11,
            "ticks": 17441,
            "time": 141.56659855208332,
            "value": 0.7165354330708661
          },
          {
            "number": 11,
            "ticks": 17444,
            "time": 141.59094920833334,
            "value": 0.7086614173228346
          },
          {
            "number": 11,
            "ticks": 17448,
            "time": 141.62341675,
            "value": 0.7007874015748031
          },
          {
            "number": 11,
            "ticks": 17449,
            "time": 141.63153363541664,
            "value": 0.6929133858267716
          },
          {
            "number": 11,
            "ticks": 17453,
            "time": 141.66400117708332,
            "value": 0.6850393700787402
          },
          {
            "number": 11,
            "ticks": 17457,
            "time": 141.69646871875,
            "value": 0.6771653543307087
          },
          {
            "number": 11,
            "ticks": 17460,
            "time": 141.720819375,
            "value": 0.6692913385826772
          },
          {
            "number": 11,
            "ticks": 17464,
            "time": 141.75328691666664,
            "value": 0.6614173228346457
          },
          {
            "number": 11,
            "ticks": 17465,
            "time": 141.76140380208332,
            "value": 0.6535433070866141
          },
          {
            "number": 11,
            "ticks": 17469,
            "time": 141.79387134375,
            "value": 0.6456692913385826
          },
          {
            "number": 11,
            "ticks": 17472,
            "time": 141.818222,
            "value": 0.6377952755905512
          },
          {
            "number": 11,
            "ticks": 17476,
            "time": 141.85068954166664,
            "value": 0.6299212598425197
          },
          {
            "number": 11,
            "ticks": 17480,
            "time": 141.88315708333332,
            "value": 0.6220472440944882
          },
          {
            "number": 11,
            "ticks": 17481,
            "time": 141.89127396875,
            "value": 0.6141732283464567
          },
          {
            "number": 11,
            "ticks": 17485,
            "time": 141.92374151041665,
            "value": 0.6062992125984252
          },
          {
            "number": 11,
            "ticks": 17488,
            "time": 141.94809216666664,
            "value": 0.5984251968503937
          },
          {
            "number": 11,
            "ticks": 17492,
            "time": 141.98055970833332,
            "value": 0.5905511811023622
          },
          {
            "number": 11,
            "ticks": 17493,
            "time": 141.98867659375,
            "value": 0.5826771653543307
          },
          {
            "number": 11,
            "ticks": 17497,
            "time": 142.02114413541665,
            "value": 0.5748031496062992
          },
          {
            "number": 11,
            "ticks": 17501,
            "time": 142.05361167708332,
            "value": 0.5669291338582677
          },
          {
            "number": 11,
            "ticks": 17504,
            "time": 142.07796233333332,
            "value": 0.5590551181102362
          },
          {
            "number": 11,
            "ticks": 17508,
            "time": 142.110429875,
            "value": 0.5511811023622047
          },
          {
            "number": 11,
            "ticks": 17509,
            "time": 142.11854676041665,
            "value": 0.5433070866141733
          },
          {
            "number": 11,
            "ticks": 17513,
            "time": 142.15101430208333,
            "value": 0.5354330708661418
          },
          {
            "number": 11,
            "ticks": 17516,
            "time": 142.17536495833332,
            "value": 0.5275590551181102
          },
          {
            "number": 11,
            "ticks": 17524,
            "time": 142.24030004166664,
            "value": 0.5039370078740157
          },
          {
            "number": 11,
            "ticks": 17528,
            "time": 142.27276758333332,
            "value": 0.5118110236220472
          },
          {
            "number": 11,
            "ticks": 17529,
            "time": 142.28088446875,
            "value": 0.5196850393700787
          },
          {
            "number": 11,
            "ticks": 17533,
            "time": 142.31335201041665,
            "value": 0.5275590551181102
          },
          {
            "number": 11,
            "ticks": 17536,
            "time": 142.33770266666664,
            "value": 0.5354330708661418
          },
          {
            "number": 11,
            "ticks": 17537,
            "time": 142.34581955208333,
            "value": 0.5433070866141733
          },
          {
            "number": 11,
            "ticks": 17541,
            "time": 142.37828709374998,
            "value": 0.5511811023622047
          },
          {
            "number": 11,
            "ticks": 17544,
            "time": 142.40263775,
            "value": 0.5590551181102362
          },
          {
            "number": 11,
            "ticks": 17548,
            "time": 142.43510529166664,
            "value": 0.5669291338582677
          },
          {
            "number": 11,
            "ticks": 17549,
            "time": 142.44322217708333,
            "value": 0.5748031496062992
          },
          {
            "number": 11,
            "ticks": 17552,
            "time": 142.46757283333332,
            "value": 0.5826771653543307
          },
          {
            "number": 11,
            "ticks": 17556,
            "time": 142.500040375,
            "value": 0.5905511811023622
          },
          {
            "number": 11,
            "ticks": 17557,
            "time": 142.50815726041665,
            "value": 0.5984251968503937
          },
          {
            "number": 11,
            "ticks": 17560,
            "time": 142.53250791666665,
            "value": 0.6062992125984252
          },
          {
            "number": 11,
            "ticks": 17564,
            "time": 142.56497545833332,
            "value": 0.6141732283464567
          },
          {
            "number": 11,
            "ticks": 17565,
            "time": 142.57309234374998,
            "value": 0.6220472440944882
          },
          {
            "number": 11,
            "ticks": 17569,
            "time": 142.60555988541665,
            "value": 0.6299212598425197
          },
          {
            "number": 11,
            "ticks": 17572,
            "time": 142.62991054166665,
            "value": 0.6377952755905512
          },
          {
            "number": 11,
            "ticks": 17573,
            "time": 142.63802742708333,
            "value": 0.6456692913385826
          },
          {
            "number": 11,
            "ticks": 17577,
            "time": 142.67049496874998,
            "value": 0.6535433070866141
          },
          {
            "number": 11,
            "ticks": 17580,
            "time": 142.694845625,
            "value": 0.6614173228346457
          },
          {
            "number": 11,
            "ticks": 17581,
            "time": 142.70296251041665,
            "value": 0.6692913385826772
          },
          {
            "number": 11,
            "ticks": 17585,
            "time": 142.73543005208333,
            "value": 0.6771653543307087
          },
          {
            "number": 11,
            "ticks": 17588,
            "time": 142.75978070833332,
            "value": 0.6850393700787402
          },
          {
            "number": 11,
            "ticks": 17592,
            "time": 142.79224825,
            "value": 0.6929133858267716
          },
          {
            "number": 11,
            "ticks": 17593,
            "time": 142.80036513541665,
            "value": 0.7007874015748031
          },
          {
            "number": 11,
            "ticks": 17596,
            "time": 142.82471579166665,
            "value": 0.7086614173228346
          },
          {
            "number": 11,
            "ticks": 17600,
            "time": 142.85718333333332,
            "value": 0.7165354330708661
          },
          {
            "number": 11,
            "ticks": 17601,
            "time": 142.86530021874998,
            "value": 0.7244094488188977
          },
          {
            "number": 11,
            "ticks": 17605,
            "time": 142.89776776041666,
            "value": 0.7322834645669292
          },
          {
            "number": 11,
            "ticks": 17608,
            "time": 142.92211841666665,
            "value": 0.7401574803149606
          },
          {
            "number": 11,
            "ticks": 17609,
            "time": 142.93023530208333,
            "value": 0.7480314960629921
          },
          {
            "number": 11,
            "ticks": 17613,
            "time": 142.96270284374998,
            "value": 0.7559055118110236
          },
          {
            "number": 11,
            "ticks": 17616,
            "time": 142.9870535,
            "value": 0.7637795275590551
          },
          {
            "number": 11,
            "ticks": 17617,
            "time": 142.99517038541666,
            "value": 0.7716535433070866
          },
          {
            "number": 11,
            "ticks": 17621,
            "time": 143.02763792708333,
            "value": 0.7795275590551181
          },
          {
            "number": 11,
            "ticks": 17624,
            "time": 143.05198858333333,
            "value": 0.7874015748031497
          },
          {
            "number": 11,
            "ticks": 17628,
            "time": 143.084456125,
            "value": 0.7952755905511811
          },
          {
            "number": 11,
            "ticks": 17629,
            "time": 143.09257301041666,
            "value": 0.8031496062992126
          },
          {
            "number": 11,
            "ticks": 17632,
            "time": 143.11692366666665,
            "value": 0.8110236220472441
          },
          {
            "number": 11,
            "ticks": 17636,
            "time": 143.14939120833333,
            "value": 0.8188976377952756
          },
          {
            "number": 11,
            "ticks": 17637,
            "time": 143.15750809374998,
            "value": 0.8267716535433071
          },
          {
            "number": 11,
            "ticks": 17640,
            "time": 143.18185874999998,
            "value": 0.8346456692913385
          },
          {
            "number": 11,
            "ticks": 17644,
            "time": 143.21432629166665,
            "value": 0.84251968503937
          },
          {
            "number": 11,
            "ticks": 17645,
            "time": 143.22244317708333,
            "value": 0.8503937007874016
          },
          {
            "number": 11,
            "ticks": 17649,
            "time": 143.25491071874998,
            "value": 0.8582677165354331
          },
          {
            "number": 11,
            "ticks": 17652,
            "time": 143.27926137499998,
            "value": 0.8661417322834646
          },
          {
            "number": 11,
            "ticks": 17653,
            "time": 143.28737826041666,
            "value": 0.8740157480314961
          },
          {
            "number": 11,
            "ticks": 17657,
            "time": 143.31984580208334,
            "value": 0.8818897637795275
          },
          {
            "number": 11,
            "ticks": 17660,
            "time": 143.34419645833333,
            "value": 0.889763779527559
          },
          {
            "number": 11,
            "ticks": 17664,
            "time": 143.37666399999998,
            "value": 0.8976377952755905
          },
          {
            "number": 11,
            "ticks": 17665,
            "time": 143.38478088541666,
            "value": 0.905511811023622
          },
          {
            "number": 11,
            "ticks": 17668,
            "time": 143.40913154166665,
            "value": 0.9133858267716536
          },
          {
            "number": 11,
            "ticks": 17672,
            "time": 143.44159908333333,
            "value": 0.9212598425196851
          },
          {
            "number": 11,
            "ticks": 17673,
            "time": 143.44971596874998,
            "value": 0.9291338582677166
          },
          {
            "number": 11,
            "ticks": 17676,
            "time": 143.47406662499998,
            "value": 0.937007874015748
          },
          {
            "number": 11,
            "ticks": 17680,
            "time": 143.50653416666665,
            "value": 0.9448818897637795
          },
          {
            "number": 11,
            "ticks": 17681,
            "time": 143.51465105208334,
            "value": 0.952755905511811
          },
          {
            "number": 11,
            "ticks": 17685,
            "time": 143.54711859374999,
            "value": 0.9606299212598425
          },
          {
            "number": 11,
            "ticks": 17688,
            "time": 143.57146924999998,
            "value": 0.968503937007874
          },
          {
            "number": 11,
            "ticks": 17689,
            "time": 143.57958613541666,
            "value": 0.9763779527559056
          },
          {
            "number": 11,
            "ticks": 17693,
            "time": 143.61205367708334,
            "value": 0.984251968503937
          },
          {
            "number": 11,
            "ticks": 17696,
            "time": 143.63640433333333,
            "value": 0.9921259842519685
          },
          {
            "number": 11,
            "ticks": 17697,
            "time": 143.64452121875,
            "value": 1
          },
          {
            "number": 11,
            "ticks": 18097,
            "time": 146.89127538541666,
            "value": 0.9921259842519685
          },
          {
            "number": 11,
            "ticks": 18101,
            "time": 146.92374292708334,
            "value": 0.984251968503937
          },
          {
            "number": 11,
            "ticks": 18105,
            "time": 146.95621046875,
            "value": 0.9763779527559056
          },
          {
            "number": 11,
            "ticks": 18108,
            "time": 146.98056112499998,
            "value": 0.968503937007874
          },
          {
            "number": 11,
            "ticks": 18112,
            "time": 147.01302866666666,
            "value": 0.9606299212598425
          },
          {
            "number": 11,
            "ticks": 18113,
            "time": 147.02114555208334,
            "value": 0.952755905511811
          },
          {
            "number": 11,
            "ticks": 18117,
            "time": 147.05361309375,
            "value": 0.9448818897637795
          },
          {
            "number": 11,
            "ticks": 18121,
            "time": 147.08608063541664,
            "value": 0.937007874015748
          },
          {
            "number": 11,
            "ticks": 18124,
            "time": 147.11043129166666,
            "value": 0.9291338582677166
          },
          {
            "number": 11,
            "ticks": 18128,
            "time": 147.14289883333333,
            "value": 0.9212598425196851
          },
          {
            "number": 11,
            "ticks": 18129,
            "time": 147.15101571875,
            "value": 0.9133858267716536
          },
          {
            "number": 11,
            "ticks": 18133,
            "time": 147.18348326041664,
            "value": 0.905511811023622
          },
          {
            "number": 11,
            "ticks": 18136,
            "time": 147.20783391666666,
            "value": 0.8976377952755905
          },
          {
            "number": 11,
            "ticks": 18140,
            "time": 147.24030145833333,
            "value": 0.889763779527559
          },
          {
            "number": 11,
            "ticks": 18144,
            "time": 147.27276899999998,
            "value": 0.8818897637795275
          },
          {
            "number": 11,
            "ticks": 18145,
            "time": 147.28088588541664,
            "value": 0.8740157480314961
          },
          {
            "number": 11,
            "ticks": 18149,
            "time": 147.31335342708334,
            "value": 0.8661417322834646
          },
          {
            "number": 11,
            "ticks": 18152,
            "time": 147.33770408333334,
            "value": 0.8582677165354331
          },
          {
            "number": 11,
            "ticks": 18156,
            "time": 147.37017162499998,
            "value": 0.8503937007874016
          },
          {
            "number": 11,
            "ticks": 18157,
            "time": 147.37828851041664,
            "value": 0.84251968503937
          },
          {
            "number": 11,
            "ticks": 18161,
            "time": 147.41075605208334,
            "value": 0.8346456692913385
          },
          {
            "number": 11,
            "ticks": 18165,
            "time": 147.44322359375,
            "value": 0.8267716535433071
          },
          {
            "number": 11,
            "ticks": 18168,
            "time": 147.46757424999998,
            "value": 0.8188976377952756
          },
          {
            "number": 11,
            "ticks": 18172,
            "time": 147.50004179166666,
            "value": 0.8110236220472441
          },
          {
            "number": 11,
            "ticks": 18173,
            "time": 147.50815867708332,
            "value": 0.8031496062992126
          },
          {
            "number": 11,
            "ticks": 18177,
            "time": 147.54062621875,
            "value": 0.7952755905511811
          },
          {
            "number": 11,
            "ticks": 18180,
            "time": 147.56497687499999,
            "value": 0.7874015748031497
          },
          {
            "number": 11,
            "ticks": 18184,
            "time": 147.59744441666666,
            "value": 0.7795275590551181
          },
          {
            "number": 11,
            "ticks": 18188,
            "time": 147.62991195833334,
            "value": 0.7716535433070866
          },
          {
            "number": 11,
            "ticks": 18189,
            "time": 147.63802884375,
            "value": 0.7637795275590551
          },
          {
            "number": 11,
            "ticks": 18193,
            "time": 147.67049638541664,
            "value": 0.7559055118110236
          },
          {
            "number": 11,
            "ticks": 18196,
            "time": 147.69484704166666,
            "value": 0.7480314960629921
          },
          {
            "number": 11,
            "ticks": 18200,
            "time": 147.72731458333334,
            "value": 0.7401574803149606
          },
          {
            "number": 11,
            "ticks": 18204,
            "time": 147.759782125,
            "value": 0.7322834645669292
          },
          {
            "number": 11,
            "ticks": 18205,
            "time": 147.76789901041664,
            "value": 0.7244094488188977
          },
          {
            "number": 11,
            "ticks": 18209,
            "time": 147.80036655208332,
            "value": 0.7165354330708661
          },
          {
            "number": 11,
            "ticks": 18212,
            "time": 147.82471720833334,
            "value": 0.7086614173228346
          },
          {
            "number": 11,
            "ticks": 18216,
            "time": 147.85718475,
            "value": 0.7007874015748031
          },
          {
            "number": 11,
            "ticks": 18217,
            "time": 147.86530163541664,
            "value": 0.6929133858267716
          },
          {
            "number": 11,
            "ticks": 18221,
            "time": 147.89776917708332,
            "value": 0.6850393700787402
          },
          {
            "number": 11,
            "ticks": 18225,
            "time": 147.93023671875,
            "value": 0.6771653543307087
          },
          {
            "number": 11,
            "ticks": 18228,
            "time": 147.954587375,
            "value": 0.6692913385826772
          },
          {
            "number": 11,
            "ticks": 18232,
            "time": 147.98705491666664,
            "value": 0.6614173228346457
          },
          {
            "number": 11,
            "ticks": 18233,
            "time": 147.99517180208332,
            "value": 0.6535433070866141
          },
          {
            "number": 11,
            "ticks": 18237,
            "time": 148.02763934375,
            "value": 0.6456692913385826
          },
          {
            "number": 11,
            "ticks": 18240,
            "time": 148.05199,
            "value": 0.6377952755905512
          },
          {
            "number": 11,
            "ticks": 18244,
            "time": 148.08445754166664,
            "value": 0.6299212598425197
          },
          {
            "number": 11,
            "ticks": 18248,
            "time": 148.11692508333334,
            "value": 0.6220472440944882
          },
          {
            "number": 11,
            "ticks": 18249,
            "time": 148.12504196875,
            "value": 0.6141732283464567
          },
          {
            "number": 11,
            "ticks": 18253,
            "time": 148.15750951041665,
            "value": 0.6062992125984252
          },
          {
            "number": 11,
            "ticks": 18256,
            "time": 148.18186016666664,
            "value": 0.5984251968503937
          },
          {
            "number": 11,
            "ticks": 18260,
            "time": 148.21432770833334,
            "value": 0.5905511811023622
          },
          {
            "number": 11,
            "ticks": 18261,
            "time": 148.22244459375,
            "value": 0.5826771653543307
          },
          {
            "number": 11,
            "ticks": 18265,
            "time": 148.25491213541665,
            "value": 0.5748031496062992
          },
          {
            "number": 11,
            "ticks": 18269,
            "time": 148.28737967708332,
            "value": 0.5669291338582677
          },
          {
            "number": 11,
            "ticks": 18272,
            "time": 148.31173033333332,
            "value": 0.5590551181102362
          },
          {
            "number": 11,
            "ticks": 18276,
            "time": 148.344197875,
            "value": 0.5511811023622047
          },
          {
            "number": 11,
            "ticks": 18277,
            "time": 148.35231476041665,
            "value": 0.5433070866141733
          },
          {
            "number": 11,
            "ticks": 18281,
            "time": 148.38478230208332,
            "value": 0.5354330708661418
          },
          {
            "number": 11,
            "ticks": 18284,
            "time": 148.40913295833332,
            "value": 0.5275590551181102
          }
        ],
        "91": [
          {
            "number": 91,
            "ticks": 0,
            "time": 0,
            "value": 0.5511811023622047
          }
        ],
        "93": [
          {
            "number": 93,
            "ticks": 1,
            "time": 0.008116885416666665,
            "value": 0
          }
        ],
        "94": [
          {
            "number": 94,
            "ticks": 1,
            "time": 0.008116885416666665,
            "value": 0
          }
        ],
        "98": [
          {
            "number": 98,
            "ticks": 3,
            "time": 0.024350656249999998,
            "value": 0.25196850393700787
          },
          {
            "number": 98,
            "ticks": 6,
            "time": 0.048701312499999996,
            "value": 0.25984251968503935
          },
          {
            "number": 98,
            "ticks": 9,
            "time": 0.07305196875,
            "value": 0.7795275590551181
          }
        ],
        "99": [
          {
            "number": 99,
            "ticks": 2,
            "time": 0.01623377083333333,
            "value": 0.007874015748031496
          },
          {
            "number": 99,
            "ticks": 5,
            "time": 0.04058442708333333,
            "value": 0.007874015748031496
          },
          {
            "number": 99,
            "ticks": 8,
            "time": 0.06493508333333332,
            "value": 0.007874015748031496
          }
        ],
        "100": [
          {
            "number": 100,
            "ticks": 14,
            "time": 0.11363639583333333,
            "value": 0
          }
        ],
        "101": [
          {
            "number": 101,
            "ticks": 13,
            "time": 0.10551951041666666,
            "value": 0
          }
        ],
        "121": [
          {
            "number": 121,
            "ticks": 0,
            "time": 0,
            "value": 0
          }
        ]
      },
      "pitchBends": [],
      "instrument": {
        "family": "ensemble",
        "number": 48,
        "name": "string ensemble 1"
      },
      "name": "",
      "notes": [
        {
          "duration": 6.233768,
          "durationTicks": 768,
          "midi": 60,
          "name": "C4",
          "ticks": 432,
          "time": 3.5064944999999996,
          "velocity": 1
        },
        {
          "duration": 6.233768,
          "durationTicks": 768,
          "midi": 68,
          "name": "G#4",
          "ticks": 432,
          "time": 3.5064944999999996,
          "velocity": 1
        },
        {
          "duration": 6.233768,
          "durationTicks": 768,
          "midi": 61,
          "name": "C#4",
          "ticks": 432,
          "time": 3.5064944999999996,
          "velocity": 1
        },
        {
          "duration": 6.22565111458333,
          "durationTicks": 767,
          "midi": 60,
          "name": "C4",
          "ticks": 1200,
          "time": 9.7402625,
          "velocity": 1
        },
        {
          "duration": 6.22565111458333,
          "durationTicks": 767,
          "midi": 68,
          "name": "G#4",
          "ticks": 1200,
          "time": 9.7402625,
          "velocity": 1
        },
        {
          "duration": 6.22565111458333,
          "durationTicks": 767,
          "midi": 61,
          "name": "C#4",
          "ticks": 1200,
          "time": 9.7402625,
          "velocity": 1
        },
        {
          "duration": 6.2337679999999995,
          "durationTicks": 768,
          "midi": 60,
          "name": "C4",
          "ticks": 1968,
          "time": 15.9740305,
          "velocity": 1
        },
        {
          "duration": 6.2337679999999995,
          "durationTicks": 768,
          "midi": 68,
          "name": "G#4",
          "ticks": 1968,
          "time": 15.9740305,
          "velocity": 1
        },
        {
          "duration": 6.2337679999999995,
          "durationTicks": 768,
          "midi": 61,
          "name": "C#4",
          "ticks": 1968,
          "time": 15.9740305,
          "velocity": 1
        },
        {
          "duration": 4.675325999999998,
          "durationTicks": 576,
          "midi": 60,
          "name": "C4",
          "ticks": 2736,
          "time": 22.2077985,
          "velocity": 1
        },
        {
          "duration": 3.116883999999999,
          "durationTicks": 384,
          "midi": 68,
          "name": "G#4",
          "ticks": 2736,
          "time": 22.2077985,
          "velocity": 1
        },
        {
          "duration": 1.5584419999999994,
          "durationTicks": 192,
          "midi": 63,
          "name": "D#4",
          "ticks": 2736,
          "time": 22.2077985,
          "velocity": 1
        },
        {
          "duration": 1.5584419999999994,
          "durationTicks": 192,
          "midi": 61,
          "name": "C#4",
          "ticks": 2928,
          "time": 23.7662405,
          "velocity": 1
        },
        {
          "duration": 1.5584419999999994,
          "durationTicks": 192,
          "midi": 70,
          "name": "A#4",
          "ticks": 3120,
          "time": 25.324682499999998,
          "velocity": 1
        },
        {
          "duration": 1.5584419999999994,
          "durationTicks": 192,
          "midi": 63,
          "name": "D#4",
          "ticks": 3120,
          "time": 25.324682499999998,
          "velocity": 1
        },
        {
          "duration": 0.7792209999999997,
          "durationTicks": 96,
          "midi": 60,
          "name": "C4",
          "ticks": 3312,
          "time": 26.883124499999997,
          "velocity": 1
        },
        {
          "duration": 0.7792209999999997,
          "durationTicks": 96,
          "midi": 69,
          "name": "A4",
          "ticks": 3312,
          "time": 26.883124499999997,
          "velocity": 1
        },
        {
          "duration": 0.7792209999999997,
          "durationTicks": 96,
          "midi": 61,
          "name": "C#4",
          "ticks": 3312,
          "time": 26.883124499999997,
          "velocity": 1
        },
        {
          "duration": 0.7792209999999997,
          "durationTicks": 96,
          "midi": 56,
          "name": "G#3",
          "ticks": 3408,
          "time": 27.662345499999997,
          "velocity": 1
        },
        {
          "duration": 0.7792209999999997,
          "durationTicks": 96,
          "midi": 68,
          "name": "G#4",
          "ticks": 3408,
          "time": 27.662345499999997,
          "velocity": 1
        },
        {
          "duration": 0.7792209999999997,
          "durationTicks": 96,
          "midi": 63,
          "name": "D#4",
          "ticks": 3408,
          "time": 27.662345499999997,
          "velocity": 1
        },
        {
          "duration": 6.233768000000001,
          "durationTicks": 768,
          "midi": 60,
          "name": "C4",
          "ticks": 3504,
          "time": 28.441566499999997,
          "velocity": 1
        },
        {
          "duration": 6.233768000000001,
          "durationTicks": 768,
          "midi": 68,
          "name": "G#4",
          "ticks": 3504,
          "time": 28.441566499999997,
          "velocity": 1
        },
        {
          "duration": 6.233768000000001,
          "durationTicks": 768,
          "midi": 61,
          "name": "C#4",
          "ticks": 3504,
          "time": 28.441566499999997,
          "velocity": 1
        },
        {
          "duration": 4.675325999999998,
          "durationTicks": 576,
          "midi": 60,
          "name": "C4",
          "ticks": 4272,
          "time": 34.6753345,
          "velocity": 1
        },
        {
          "duration": 3.116883999999999,
          "durationTicks": 384,
          "midi": 68,
          "name": "G#4",
          "ticks": 4272,
          "time": 34.6753345,
          "velocity": 1
        },
        {
          "duration": 1.5584419999999994,
          "durationTicks": 192,
          "midi": 63,
          "name": "D#4",
          "ticks": 4272,
          "time": 34.6753345,
          "velocity": 1
        },
        {
          "duration": 1.5584419999999994,
          "durationTicks": 192,
          "midi": 61,
          "name": "C#4",
          "ticks": 4464,
          "time": 36.2337765,
          "velocity": 1
        },
        {
          "duration": 1.5584419999999994,
          "durationTicks": 192,
          "midi": 70,
          "name": "A#4",
          "ticks": 4656,
          "time": 37.7922185,
          "velocity": 1
        },
        {
          "duration": 1.5584419999999994,
          "durationTicks": 192,
          "midi": 63,
          "name": "D#4",
          "ticks": 4656,
          "time": 37.7922185,
          "velocity": 1
        },
        {
          "duration": 0.7792209999999997,
          "durationTicks": 96,
          "midi": 60,
          "name": "C4",
          "ticks": 4848,
          "time": 39.3506605,
          "velocity": 1
        },
        {
          "duration": 0.7792209999999997,
          "durationTicks": 96,
          "midi": 69,
          "name": "A4",
          "ticks": 4848,
          "time": 39.3506605,
          "velocity": 1
        },
        {
          "duration": 0.7792209999999997,
          "durationTicks": 96,
          "midi": 61,
          "name": "C#4",
          "ticks": 4848,
          "time": 39.3506605,
          "velocity": 1
        },
        {
          "duration": 0.7792209999999997,
          "durationTicks": 96,
          "midi": 56,
          "name": "G#3",
          "ticks": 4944,
          "time": 40.129881499999996,
          "velocity": 1
        },
        {
          "duration": 0.7792209999999997,
          "durationTicks": 96,
          "midi": 68,
          "name": "G#4",
          "ticks": 4944,
          "time": 40.129881499999996,
          "velocity": 1
        },
        {
          "duration": 0.7792209999999997,
          "durationTicks": 96,
          "midi": 63,
          "name": "D#4",
          "ticks": 4944,
          "time": 40.129881499999996,
          "velocity": 1
        },
        {
          "duration": 4.667209114583336,
          "durationTicks": 575,
          "midi": 60,
          "name": "C4",
          "ticks": 5040,
          "time": 40.909102499999996,
          "velocity": 1
        },
        {
          "duration": 4.667209114583336,
          "durationTicks": 575,
          "midi": 68,
          "name": "G#4",
          "ticks": 5040,
          "time": 40.909102499999996,
          "velocity": 1
        },
        {
          "duration": 4.667209114583336,
          "durationTicks": 575,
          "midi": 61,
          "name": "C#4",
          "ticks": 5040,
          "time": 40.909102499999996,
          "velocity": 1
        },
        {
          "duration": 1.5503251145833374,
          "durationTicks": 191,
          "midi": 65,
          "name": "F4",
          "ticks": 5616,
          "time": 45.584428499999994,
          "velocity": 1
        },
        {
          "duration": 1.5503251145833374,
          "durationTicks": 191,
          "midi": 61,
          "name": "C#4",
          "ticks": 5616,
          "time": 45.584428499999994,
          "velocity": 1
        },
        {
          "duration": 1.5503251145833374,
          "durationTicks": 191,
          "midi": 58,
          "name": "A#3",
          "ticks": 5616,
          "time": 45.584428499999994,
          "velocity": 1
        },
        {
          "duration": 1.5503251145833374,
          "durationTicks": 191,
          "midi": 55,
          "name": "G3",
          "ticks": 5616,
          "time": 45.584428499999994,
          "velocity": 1
        },
        {
          "duration": 3.116884000000006,
          "durationTicks": 384,
          "midi": 61,
          "name": "C#4",
          "ticks": 5808,
          "time": 47.142870499999994,
          "velocity": 1
        },
        {
          "duration": 3.116884000000006,
          "durationTicks": 384,
          "midi": 65,
          "name": "F4",
          "ticks": 5808,
          "time": 47.142870499999994,
          "velocity": 1
        },
        {
          "duration": 3.116884000000006,
          "durationTicks": 384,
          "midi": 70,
          "name": "A#4",
          "ticks": 5808,
          "time": 47.142870499999994,
          "velocity": 1
        },
        {
          "duration": 1.5584419999999994,
          "durationTicks": 192,
          "midi": 60,
          "name": "C4",
          "ticks": 6192,
          "time": 50.2597545,
          "velocity": 1
        },
        {
          "duration": 3.116883999999999,
          "durationTicks": 384,
          "midi": 68,
          "name": "G#4",
          "ticks": 6192,
          "time": 50.2597545,
          "velocity": 1
        },
        {
          "duration": 1.5584419999999994,
          "durationTicks": 192,
          "midi": 63,
          "name": "D#4",
          "ticks": 6192,
          "time": 50.2597545,
          "velocity": 1
        },
        {
          "duration": 1.5584419999999994,
          "durationTicks": 192,
          "midi": 62,
          "name": "D4",
          "ticks": 6384,
          "time": 51.8181965,
          "velocity": 1
        },
        {
          "duration": 1.5584419999999994,
          "durationTicks": 192,
          "midi": 58,
          "name": "A#3",
          "ticks": 6384,
          "time": 51.8181965,
          "velocity": 1
        },
        {
          "duration": 1.5584419999999994,
          "durationTicks": 192,
          "midi": 58,
          "name": "A#3",
          "ticks": 6576,
          "time": 53.3766385,
          "velocity": 1
        },
        {
          "duration": 3.116883999999999,
          "durationTicks": 384,
          "midi": 63,
          "name": "D#4",
          "ticks": 6576,
          "time": 53.3766385,
          "velocity": 1
        },
        {
          "duration": 3.116883999999999,
          "durationTicks": 384,
          "midi": 66,
          "name": "F#4",
          "ticks": 6576,
          "time": 53.3766385,
          "velocity": 1
        },
        {
          "duration": 1.5584419999999994,
          "durationTicks": 192,
          "midi": 57,
          "name": "A3",
          "ticks": 6768,
          "time": 54.9350805,
          "velocity": 1
        },
        {
          "duration": 3.116883999999999,
          "durationTicks": 384,
          "midi": 60,
          "name": "C4",
          "ticks": 6960,
          "time": 56.4935225,
          "velocity": 1
        },
        {
          "duration": 3.116883999999999,
          "durationTicks": 384,
          "midi": 63,
          "name": "D#4",
          "ticks": 6960,
          "time": 56.4935225,
          "velocity": 1
        },
        {
          "duration": 3.116883999999999,
          "durationTicks": 384,
          "midi": 68,
          "name": "G#4",
          "ticks": 6960,
          "time": 56.4935225,
          "velocity": 1
        },
        {
          "duration": 3.116883999999999,
          "durationTicks": 384,
          "midi": 61,
          "name": "C#4",
          "ticks": 7344,
          "time": 59.610406499999996,
          "velocity": 1
        },
        {
          "duration": 3.116883999999999,
          "durationTicks": 384,
          "midi": 65,
          "name": "F4",
          "ticks": 7344,
          "time": 59.610406499999996,
          "velocity": 1
        },
        {
          "duration": 3.116883999999999,
          "durationTicks": 384,
          "midi": 70,
          "name": "A#4",
          "ticks": 7344,
          "time": 59.610406499999996,
          "velocity": 1
        },
        {
          "duration": 1.5584419999999994,
          "durationTicks": 192,
          "midi": 60,
          "name": "C4",
          "ticks": 7728,
          "time": 62.727290499999995,
          "velocity": 1
        },
        {
          "duration": 3.116883999999999,
          "durationTicks": 384,
          "midi": 68,
          "name": "G#4",
          "ticks": 7728,
          "time": 62.727290499999995,
          "velocity": 1
        },
        {
          "duration": 1.5584419999999994,
          "durationTicks": 192,
          "midi": 63,
          "name": "D#4",
          "ticks": 7728,
          "time": 62.727290499999995,
          "velocity": 1
        },
        {
          "duration": 1.5584419999999994,
          "durationTicks": 192,
          "midi": 62,
          "name": "D4",
          "ticks": 7920,
          "time": 64.2857325,
          "velocity": 1
        },
        {
          "duration": 1.5584419999999994,
          "durationTicks": 192,
          "midi": 58,
          "name": "A#3",
          "ticks": 7920,
          "time": 64.2857325,
          "velocity": 1
        },
        {
          "duration": 3.116883999999999,
          "durationTicks": 384,
          "midi": 58,
          "name": "A#3",
          "ticks": 8112,
          "time": 65.8441745,
          "velocity": 1
        },
        {
          "duration": 3.116883999999999,
          "durationTicks": 384,
          "midi": 63,
          "name": "D#4",
          "ticks": 8112,
          "time": 65.8441745,
          "velocity": 1
        },
        {
          "duration": 3.116883999999999,
          "durationTicks": 384,
          "midi": 66,
          "name": "F#4",
          "ticks": 8112,
          "time": 65.8441745,
          "velocity": 1
        },
        {
          "duration": 3.116883999999999,
          "durationTicks": 384,
          "midi": 58,
          "name": "A#3",
          "ticks": 8496,
          "time": 68.9610585,
          "velocity": 1
        },
        {
          "duration": 3.116883999999999,
          "durationTicks": 384,
          "midi": 63,
          "name": "D#4",
          "ticks": 8496,
          "time": 68.9610585,
          "velocity": 1
        },
        {
          "duration": 3.116883999999999,
          "durationTicks": 384,
          "midi": 66,
          "name": "F#4",
          "ticks": 8496,
          "time": 68.9610585,
          "velocity": 1
        },
        {
          "duration": 6.233768000000012,
          "durationTicks": 768,
          "midi": 60,
          "name": "C4",
          "ticks": 10416,
          "time": 84.54547849999999,
          "velocity": 1
        },
        {
          "duration": 6.233768000000012,
          "durationTicks": 768,
          "midi": 68,
          "name": "G#4",
          "ticks": 10416,
          "time": 84.54547849999999,
          "velocity": 1
        },
        {
          "duration": 6.233768000000012,
          "durationTicks": 768,
          "midi": 61,
          "name": "C#4",
          "ticks": 10416,
          "time": 84.54547849999999,
          "velocity": 1
        },
        {
          "duration": 4.675325999999998,
          "durationTicks": 576,
          "midi": 60,
          "name": "C4",
          "ticks": 11184,
          "time": 90.7792465,
          "velocity": 1
        },
        {
          "duration": 3.116883999999999,
          "durationTicks": 384,
          "midi": 68,
          "name": "G#4",
          "ticks": 11184,
          "time": 90.7792465,
          "velocity": 1
        },
        {
          "duration": 1.5584419999999994,
          "durationTicks": 192,
          "midi": 63,
          "name": "D#4",
          "ticks": 11184,
          "time": 90.7792465,
          "velocity": 1
        },
        {
          "duration": 1.5584419999999994,
          "durationTicks": 192,
          "midi": 61,
          "name": "C#4",
          "ticks": 11376,
          "time": 92.3376885,
          "velocity": 1
        },
        {
          "duration": 1.5584419999999994,
          "durationTicks": 192,
          "midi": 70,
          "name": "A#4",
          "ticks": 11568,
          "time": 93.8961305,
          "velocity": 1
        },
        {
          "duration": 1.5584419999999994,
          "durationTicks": 192,
          "midi": 63,
          "name": "D#4",
          "ticks": 11568,
          "time": 93.8961305,
          "velocity": 1
        },
        {
          "duration": 0.7792209999999926,
          "durationTicks": 96,
          "midi": 60,
          "name": "C4",
          "ticks": 11760,
          "time": 95.4545725,
          "velocity": 1
        },
        {
          "duration": 0.7792209999999926,
          "durationTicks": 96,
          "midi": 69,
          "name": "A4",
          "ticks": 11760,
          "time": 95.4545725,
          "velocity": 1
        },
        {
          "duration": 0.7792209999999926,
          "durationTicks": 96,
          "midi": 61,
          "name": "C#4",
          "ticks": 11760,
          "time": 95.4545725,
          "velocity": 1
        },
        {
          "duration": 0.7792210000000068,
          "durationTicks": 96,
          "midi": 56,
          "name": "G#3",
          "ticks": 11856,
          "time": 96.23379349999999,
          "velocity": 1
        },
        {
          "duration": 0.7792210000000068,
          "durationTicks": 96,
          "midi": 68,
          "name": "G#4",
          "ticks": 11856,
          "time": 96.23379349999999,
          "velocity": 1
        },
        {
          "duration": 0.7792210000000068,
          "durationTicks": 96,
          "midi": 63,
          "name": "D#4",
          "ticks": 11856,
          "time": 96.23379349999999,
          "velocity": 1
        },
        {
          "duration": 6.233767999999998,
          "durationTicks": 768,
          "midi": 60,
          "name": "C4",
          "ticks": 11952,
          "time": 97.0130145,
          "velocity": 1
        },
        {
          "duration": 6.233767999999998,
          "durationTicks": 768,
          "midi": 68,
          "name": "G#4",
          "ticks": 11952,
          "time": 97.0130145,
          "velocity": 1
        },
        {
          "duration": 6.233767999999998,
          "durationTicks": 768,
          "midi": 61,
          "name": "C#4",
          "ticks": 11952,
          "time": 97.0130145,
          "velocity": 1
        },
        {
          "duration": 4.675325999999998,
          "durationTicks": 576,
          "midi": 60,
          "name": "C4",
          "ticks": 12720,
          "time": 103.2467825,
          "velocity": 1
        },
        {
          "duration": 3.116883999999999,
          "durationTicks": 384,
          "midi": 68,
          "name": "G#4",
          "ticks": 12720,
          "time": 103.2467825,
          "velocity": 1
        },
        {
          "duration": 1.5584419999999994,
          "durationTicks": 192,
          "midi": 63,
          "name": "D#4",
          "ticks": 12720,
          "time": 103.2467825,
          "velocity": 1
        },
        {
          "duration": 1.5584419999999994,
          "durationTicks": 192,
          "midi": 61,
          "name": "C#4",
          "ticks": 12912,
          "time": 104.8052245,
          "velocity": 1
        },
        {
          "duration": 1.5584419999999994,
          "durationTicks": 192,
          "midi": 70,
          "name": "A#4",
          "ticks": 13104,
          "time": 106.3636665,
          "velocity": 1
        },
        {
          "duration": 1.5584419999999994,
          "durationTicks": 192,
          "midi": 63,
          "name": "D#4",
          "ticks": 13104,
          "time": 106.3636665,
          "velocity": 1
        },
        {
          "duration": 0.7792209999999926,
          "durationTicks": 96,
          "midi": 60,
          "name": "C4",
          "ticks": 13296,
          "time": 107.9221085,
          "velocity": 1
        },
        {
          "duration": 0.7792209999999926,
          "durationTicks": 96,
          "midi": 69,
          "name": "A4",
          "ticks": 13296,
          "time": 107.9221085,
          "velocity": 1
        },
        {
          "duration": 0.7792209999999926,
          "durationTicks": 96,
          "midi": 61,
          "name": "C#4",
          "ticks": 13296,
          "time": 107.9221085,
          "velocity": 1
        },
        {
          "duration": 0.7792210000000068,
          "durationTicks": 96,
          "midi": 56,
          "name": "G#3",
          "ticks": 13392,
          "time": 108.70132949999999,
          "velocity": 1
        },
        {
          "duration": 0.7792210000000068,
          "durationTicks": 96,
          "midi": 68,
          "name": "G#4",
          "ticks": 13392,
          "time": 108.70132949999999,
          "velocity": 1
        },
        {
          "duration": 0.7792210000000068,
          "durationTicks": 96,
          "midi": 63,
          "name": "D#4",
          "ticks": 13392,
          "time": 108.70132949999999,
          "velocity": 1
        },
        {
          "duration": 4.667209114583343,
          "durationTicks": 575,
          "midi": 60,
          "name": "C4",
          "ticks": 13488,
          "time": 109.48055049999999,
          "velocity": 1
        },
        {
          "duration": 4.667209114583343,
          "durationTicks": 575,
          "midi": 68,
          "name": "G#4",
          "ticks": 13488,
          "time": 109.48055049999999,
          "velocity": 1
        },
        {
          "duration": 4.667209114583343,
          "durationTicks": 575,
          "midi": 61,
          "name": "C#4",
          "ticks": 13488,
          "time": 109.48055049999999,
          "velocity": 1
        },
        {
          "duration": 4.667209114583343,
          "durationTicks": 575,
          "midi": 60,
          "name": "C4",
          "ticks": 13872,
          "time": 112.59743449999999,
          "velocity": 1
        },
        {
          "duration": 4.667209114583343,
          "durationTicks": 575,
          "midi": 68,
          "name": "G#4",
          "ticks": 13872,
          "time": 112.59743449999999,
          "velocity": 1
        },
        {
          "duration": 4.667209114583343,
          "durationTicks": 575,
          "midi": 61,
          "name": "C#4",
          "ticks": 13872,
          "time": 112.59743449999999,
          "velocity": 1
        },
        {
          "duration": 4.667209114583343,
          "durationTicks": 575,
          "midi": 60,
          "name": "C4",
          "ticks": 14256,
          "time": 115.71431849999999,
          "velocity": 1
        },
        {
          "duration": 4.667209114583343,
          "durationTicks": 575,
          "midi": 68,
          "name": "G#4",
          "ticks": 14256,
          "time": 115.71431849999999,
          "velocity": 1
        },
        {
          "duration": 4.667209114583343,
          "durationTicks": 575,
          "midi": 61,
          "name": "C#4",
          "ticks": 14256,
          "time": 115.71431849999999,
          "velocity": 1
        },
        {
          "duration": 1.5503251145833445,
          "durationTicks": 191,
          "midi": 65,
          "name": "F4",
          "ticks": 14832,
          "time": 120.38964449999999,
          "velocity": 1
        },
        {
          "duration": 1.5503251145833445,
          "durationTicks": 191,
          "midi": 61,
          "name": "C#4",
          "ticks": 14832,
          "time": 120.38964449999999,
          "velocity": 1
        },
        {
          "duration": 1.5503251145833445,
          "durationTicks": 191,
          "midi": 58,
          "name": "A#3",
          "ticks": 14832,
          "time": 120.38964449999999,
          "velocity": 1
        },
        {
          "duration": 1.5503251145833445,
          "durationTicks": 191,
          "midi": 55,
          "name": "G3",
          "ticks": 14832,
          "time": 120.38964449999999,
          "velocity": 1
        },
        {
          "duration": 3.116883999999999,
          "durationTicks": 384,
          "midi": 61,
          "name": "C#4",
          "ticks": 15216,
          "time": 123.50652849999999,
          "velocity": 1
        },
        {
          "duration": 3.116883999999999,
          "durationTicks": 384,
          "midi": 65,
          "name": "F4",
          "ticks": 15216,
          "time": 123.50652849999999,
          "velocity": 1
        },
        {
          "duration": 3.116883999999999,
          "durationTicks": 384,
          "midi": 70,
          "name": "A#4",
          "ticks": 15216,
          "time": 123.50652849999999,
          "velocity": 1
        },
        {
          "duration": 1.5584419999999994,
          "durationTicks": 192,
          "midi": 60,
          "name": "C4",
          "ticks": 15600,
          "time": 126.62341249999999,
          "velocity": 1
        },
        {
          "duration": 3.116884000000013,
          "durationTicks": 384,
          "midi": 68,
          "name": "G#4",
          "ticks": 15600,
          "time": 126.62341249999999,
          "velocity": 1
        },
        {
          "duration": 1.5584419999999994,
          "durationTicks": 192,
          "midi": 63,
          "name": "D#4",
          "ticks": 15600,
          "time": 126.62341249999999,
          "velocity": 1
        },
        {
          "duration": 1.5584420000000136,
          "durationTicks": 192,
          "midi": 62,
          "name": "D4",
          "ticks": 15792,
          "time": 128.1818545,
          "velocity": 1
        },
        {
          "duration": 1.5584420000000136,
          "durationTicks": 192,
          "midi": 58,
          "name": "A#3",
          "ticks": 15792,
          "time": 128.1818545,
          "velocity": 1
        },
        {
          "duration": 1.5584419999999852,
          "durationTicks": 192,
          "midi": 58,
          "name": "A#3",
          "ticks": 15984,
          "time": 129.7402965,
          "velocity": 1
        },
        {
          "duration": 3.116883999999999,
          "durationTicks": 384,
          "midi": 63,
          "name": "D#4",
          "ticks": 15984,
          "time": 129.7402965,
          "velocity": 1
        },
        {
          "duration": 3.116883999999999,
          "durationTicks": 384,
          "midi": 66,
          "name": "F#4",
          "ticks": 15984,
          "time": 129.7402965,
          "velocity": 1
        },
        {
          "duration": 1.5584420000000136,
          "durationTicks": 192,
          "midi": 57,
          "name": "A3",
          "ticks": 16176,
          "time": 131.29873849999998,
          "velocity": 1
        },
        {
          "duration": 3.116883999999999,
          "durationTicks": 384,
          "midi": 60,
          "name": "C4",
          "ticks": 16368,
          "time": 132.8571805,
          "velocity": 1
        },
        {
          "duration": 3.116883999999999,
          "durationTicks": 384,
          "midi": 63,
          "name": "D#4",
          "ticks": 16368,
          "time": 132.8571805,
          "velocity": 1
        },
        {
          "duration": 3.116883999999999,
          "durationTicks": 384,
          "midi": 68,
          "name": "G#4",
          "ticks": 16368,
          "time": 132.8571805,
          "velocity": 1
        },
        {
          "duration": 3.116883999999999,
          "durationTicks": 384,
          "midi": 61,
          "name": "C#4",
          "ticks": 16752,
          "time": 135.9740645,
          "velocity": 1
        },
        {
          "duration": 3.116883999999999,
          "durationTicks": 384,
          "midi": 65,
          "name": "F4",
          "ticks": 16752,
          "time": 135.9740645,
          "velocity": 1
        },
        {
          "duration": 3.116883999999999,
          "durationTicks": 384,
          "midi": 70,
          "name": "A#4",
          "ticks": 16752,
          "time": 135.9740645,
          "velocity": 1
        },
        {
          "duration": 1.5584419999999852,
          "durationTicks": 192,
          "midi": 60,
          "name": "C4",
          "ticks": 17136,
          "time": 139.0909485,
          "velocity": 1
        },
        {
          "duration": 3.116883999999999,
          "durationTicks": 384,
          "midi": 68,
          "name": "G#4",
          "ticks": 17136,
          "time": 139.0909485,
          "velocity": 1
        },
        {
          "duration": 1.5584419999999852,
          "durationTicks": 192,
          "midi": 63,
          "name": "D#4",
          "ticks": 17136,
          "time": 139.0909485,
          "velocity": 1
        },
        {
          "duration": 1.5584420000000136,
          "durationTicks": 192,
          "midi": 62,
          "name": "D4",
          "ticks": 17328,
          "time": 140.64939049999998,
          "velocity": 1
        },
        {
          "duration": 1.5584420000000136,
          "durationTicks": 192,
          "midi": 58,
          "name": "A#3",
          "ticks": 17328,
          "time": 140.64939049999998,
          "velocity": 1
        },
        {
          "duration": 3.116883999999999,
          "durationTicks": 384,
          "midi": 58,
          "name": "A#3",
          "ticks": 17520,
          "time": 142.2078325,
          "velocity": 1
        },
        {
          "duration": 3.116883999999999,
          "durationTicks": 384,
          "midi": 63,
          "name": "D#4",
          "ticks": 17520,
          "time": 142.2078325,
          "velocity": 1
        },
        {
          "duration": 3.116883999999999,
          "durationTicks": 384,
          "midi": 66,
          "name": "F#4",
          "ticks": 17520,
          "time": 142.2078325,
          "velocity": 1
        },
        {
          "duration": 3.116883999999999,
          "durationTicks": 384,
          "midi": 58,
          "name": "A#3",
          "ticks": 17904,
          "time": 145.3247165,
          "velocity": 1
        },
        {
          "duration": 3.116883999999999,
          "durationTicks": 384,
          "midi": 63,
          "name": "D#4",
          "ticks": 17904,
          "time": 145.3247165,
          "velocity": 1
        },
        {
          "duration": 3.116883999999999,
          "durationTicks": 384,
          "midi": 66,
          "name": "F#4",
          "ticks": 17904,
          "time": 145.3247165,
          "velocity": 1
        }
      ]
    },
    {
      "channel": 0,
      "controlChanges": {
        "0": [
          {
            "number": 0,
            "ticks": 0,
            "time": 0,
            "value": 0
          }
        ],
        "32": [
          {
            "number": 32,
            "ticks": 0,
            "time": 0,
            "value": 0.015748031496062992
          }
        ]
      },
      "pitchBends": [],
      "instrument": {
        "family": "piano",
        "number": 0,
        "name": "acoustic grand piano"
      },
      "name": "",
      "notes": [],
      "endOfTrackTicks": 19104
    },
    {
      "channel": 7,
      "controlChanges": {
        "1": [
          {
            "number": 1,
            "ticks": 5856,
            "time": 47.532481,
            "value": 0.015748031496062992
          },
          {
            "number": 1,
            "ticks": 5862,
            "time": 47.5811823125,
            "value": 0.03937007874015748
          },
          {
            "number": 1,
            "ticks": 5869,
            "time": 47.63800051041666,
            "value": 0.06299212598425197
          },
          {
            "number": 1,
            "ticks": 5876,
            "time": 47.69481870833333,
            "value": 0.09448818897637795
          },
          {
            "number": 1,
            "ticks": 5883,
            "time": 47.75163690625,
            "value": 0.11811023622047244
          },
          {
            "number": 1,
            "ticks": 5890,
            "time": 47.80845510416666,
            "value": 0.14960629921259844
          },
          {
            "number": 1,
            "ticks": 5897,
            "time": 47.86527330208333,
            "value": 0.1732283464566929
          },
          {
            "number": 1,
            "ticks": 5904,
            "time": 47.92209149999999,
            "value": 0.1968503937007874
          },
          {
            "number": 1,
            "ticks": 5910,
            "time": 47.970792812499994,
            "value": 0.2283464566929134
          },
          {
            "number": 1,
            "ticks": 5917,
            "time": 48.02761101041666,
            "value": 0.25196850393700787
          },
          {
            "number": 1,
            "ticks": 5924,
            "time": 48.08442920833333,
            "value": 0.28346456692913385
          },
          {
            "number": 1,
            "ticks": 5931,
            "time": 48.141247406249995,
            "value": 0.30708661417322836
          },
          {
            "number": 1,
            "ticks": 5938,
            "time": 48.19806560416666,
            "value": 0.33858267716535434
          },
          {
            "number": 1,
            "ticks": 5945,
            "time": 48.254883802083334,
            "value": 0.36220472440944884
          },
          {
            "number": 1,
            "ticks": 5951,
            "time": 48.303585114583335,
            "value": 0.3937007874015748
          },
          {
            "number": 1,
            "ticks": 6048,
            "time": 49.090923,
            "value": 0
          },
          {
            "number": 1,
            "ticks": 6192,
            "time": 50.2597545,
            "value": 0.015748031496062992
          },
          {
            "number": 1,
            "ticks": 6198,
            "time": 50.30845581249999,
            "value": 0.03937007874015748
          },
          {
            "number": 1,
            "ticks": 6205,
            "time": 50.36527401041667,
            "value": 0.06299212598425197
          },
          {
            "number": 1,
            "ticks": 6212,
            "time": 50.422092208333325,
            "value": 0.09448818897637795
          },
          {
            "number": 1,
            "ticks": 6219,
            "time": 50.478910406249994,
            "value": 0.11811023622047244
          },
          {
            "number": 1,
            "ticks": 6226,
            "time": 50.535728604166664,
            "value": 0.14960629921259844
          },
          {
            "number": 1,
            "ticks": 6233,
            "time": 50.592546802083326,
            "value": 0.1732283464566929
          },
          {
            "number": 1,
            "ticks": 6240,
            "time": 50.649364999999996,
            "value": 0.1968503937007874
          },
          {
            "number": 1,
            "ticks": 6246,
            "time": 50.698066312499996,
            "value": 0.2283464566929134
          },
          {
            "number": 1,
            "ticks": 6253,
            "time": 50.754884510416666,
            "value": 0.25196850393700787
          },
          {
            "number": 1,
            "ticks": 6260,
            "time": 50.81170270833333,
            "value": 0.28346456692913385
          },
          {
            "number": 1,
            "ticks": 6267,
            "time": 50.86852090625,
            "value": 0.30708661417322836
          },
          {
            "number": 1,
            "ticks": 6274,
            "time": 50.92533910416667,
            "value": 0.33858267716535434
          },
          {
            "number": 1,
            "ticks": 6281,
            "time": 50.98215730208332,
            "value": 0.36220472440944884
          },
          {
            "number": 1,
            "ticks": 6287,
            "time": 51.03085861458332,
            "value": 0.3937007874015748
          },
          {
            "number": 1,
            "ticks": 6336,
            "time": 51.428585999999996,
            "value": 0
          },
          {
            "number": 1,
            "ticks": 6432,
            "time": 52.207806999999995,
            "value": 0.015748031496062992
          },
          {
            "number": 1,
            "ticks": 6438,
            "time": 52.256508312499996,
            "value": 0.06299212598425197
          },
          {
            "number": 1,
            "ticks": 6445,
            "time": 52.313326510416665,
            "value": 0.11811023622047244
          },
          {
            "number": 1,
            "ticks": 6452,
            "time": 52.37014470833333,
            "value": 0.1732283464566929
          },
          {
            "number": 1,
            "ticks": 6459,
            "time": 52.42696290625,
            "value": 0.2283464566929134
          },
          {
            "number": 1,
            "ticks": 6466,
            "time": 52.48378110416667,
            "value": 0.28346456692913385
          },
          {
            "number": 1,
            "ticks": 6473,
            "time": 52.54059930208332,
            "value": 0.33070866141732286
          },
          {
            "number": 1,
            "ticks": 6479,
            "time": 52.58930061458332,
            "value": 0.3937007874015748
          },
          {
            "number": 1,
            "ticks": 6528,
            "time": 52.987027999999995,
            "value": 0
          },
          {
            "number": 1,
            "ticks": 6768,
            "time": 54.9350805,
            "value": 0.015748031496062992
          },
          {
            "number": 1,
            "ticks": 6774,
            "time": 54.9837818125,
            "value": 0.03937007874015748
          },
          {
            "number": 1,
            "ticks": 6781,
            "time": 55.04060001041667,
            "value": 0.06299212598425197
          },
          {
            "number": 1,
            "ticks": 6788,
            "time": 55.09741820833332,
            "value": 0.09448818897637795
          },
          {
            "number": 1,
            "ticks": 6795,
            "time": 55.15423640624999,
            "value": 0.11811023622047244
          },
          {
            "number": 1,
            "ticks": 6802,
            "time": 55.21105460416667,
            "value": 0.14960629921259844
          },
          {
            "number": 1,
            "ticks": 6809,
            "time": 55.267872802083325,
            "value": 0.1732283464566929
          },
          {
            "number": 1,
            "ticks": 6816,
            "time": 55.324690999999994,
            "value": 0.1968503937007874
          },
          {
            "number": 1,
            "ticks": 6822,
            "time": 55.373392312499995,
            "value": 0.2283464566929134
          },
          {
            "number": 1,
            "ticks": 6829,
            "time": 55.430210510416664,
            "value": 0.25196850393700787
          },
          {
            "number": 1,
            "ticks": 6836,
            "time": 55.48702870833333,
            "value": 0.28346456692913385
          },
          {
            "number": 1,
            "ticks": 6843,
            "time": 55.543846906249996,
            "value": 0.30708661417322836
          },
          {
            "number": 1,
            "ticks": 6850,
            "time": 55.600665104166666,
            "value": 0.33858267716535434
          },
          {
            "number": 1,
            "ticks": 6857,
            "time": 55.65748330208333,
            "value": 0.36220472440944884
          },
          {
            "number": 1,
            "ticks": 6863,
            "time": 55.70618461458333,
            "value": 0.3937007874015748
          },
          {
            "number": 1,
            "ticks": 6912,
            "time": 56.103911999999994,
            "value": 0
          },
          {
            "number": 1,
            "ticks": 6984,
            "time": 56.68832775,
            "value": 0.015748031496062992
          },
          {
            "number": 1,
            "ticks": 6990,
            "time": 56.73702906249999,
            "value": 0.06299212598425197
          },
          {
            "number": 1,
            "ticks": 6997,
            "time": 56.79384726041667,
            "value": 0.11811023622047244
          },
          {
            "number": 1,
            "ticks": 7004,
            "time": 56.850665458333324,
            "value": 0.1732283464566929
          },
          {
            "number": 1,
            "ticks": 7011,
            "time": 56.907483656249994,
            "value": 0.2283464566929134
          },
          {
            "number": 1,
            "ticks": 7018,
            "time": 56.96430185416666,
            "value": 0.28346456692913385
          },
          {
            "number": 1,
            "ticks": 7025,
            "time": 57.021120052083326,
            "value": 0.33070866141732286
          },
          {
            "number": 1,
            "ticks": 7031,
            "time": 57.069821364583326,
            "value": 0.3937007874015748
          },
          {
            "number": 1,
            "ticks": 7104,
            "time": 57.66235399999999,
            "value": 0
          },
          {
            "number": 1,
            "ticks": 7152,
            "time": 58.0519645,
            "value": 0.015748031496062992
          },
          {
            "number": 1,
            "ticks": 7158,
            "time": 58.1006658125,
            "value": 0.06299212598425197
          },
          {
            "number": 1,
            "ticks": 7165,
            "time": 58.15748401041667,
            "value": 0.11811023622047244
          },
          {
            "number": 1,
            "ticks": 7172,
            "time": 58.21430220833332,
            "value": 0.1732283464566929
          },
          {
            "number": 1,
            "ticks": 7179,
            "time": 58.27112040625,
            "value": 0.2283464566929134
          },
          {
            "number": 1,
            "ticks": 7186,
            "time": 58.32793860416667,
            "value": 0.28346456692913385
          },
          {
            "number": 1,
            "ticks": 7193,
            "time": 58.384756802083324,
            "value": 0.33070866141732286
          },
          {
            "number": 1,
            "ticks": 7199,
            "time": 58.433458114583324,
            "value": 0.3937007874015748
          },
          {
            "number": 1,
            "ticks": 7272,
            "time": 59.02599075,
            "value": 0
          },
          {
            "number": 1,
            "ticks": 7392,
            "time": 60.00001699999999,
            "value": 0.015748031496062992
          },
          {
            "number": 1,
            "ticks": 7398,
            "time": 60.04871831249999,
            "value": 0.03937007874015748
          },
          {
            "number": 1,
            "ticks": 7405,
            "time": 60.10553651041666,
            "value": 0.06299212598425197
          },
          {
            "number": 1,
            "ticks": 7412,
            "time": 60.162354708333325,
            "value": 0.09448818897637795
          },
          {
            "number": 1,
            "ticks": 7419,
            "time": 60.219172906249995,
            "value": 0.11811023622047244
          },
          {
            "number": 1,
            "ticks": 7426,
            "time": 60.275991104166664,
            "value": 0.14960629921259844
          },
          {
            "number": 1,
            "ticks": 7433,
            "time": 60.33280930208333,
            "value": 0.1732283464566929
          },
          {
            "number": 1,
            "ticks": 7440,
            "time": 60.389627499999996,
            "value": 0.1968503937007874
          },
          {
            "number": 1,
            "ticks": 7446,
            "time": 60.438328812499996,
            "value": 0.2283464566929134
          },
          {
            "number": 1,
            "ticks": 7453,
            "time": 60.495147010416666,
            "value": 0.25196850393700787
          },
          {
            "number": 1,
            "ticks": 7460,
            "time": 60.55196520833333,
            "value": 0.28346456692913385
          },
          {
            "number": 1,
            "ticks": 7467,
            "time": 60.60878340625,
            "value": 0.30708661417322836
          },
          {
            "number": 1,
            "ticks": 7474,
            "time": 60.66560160416667,
            "value": 0.33858267716535434
          },
          {
            "number": 1,
            "ticks": 7481,
            "time": 60.72241980208332,
            "value": 0.36220472440944884
          },
          {
            "number": 1,
            "ticks": 7487,
            "time": 60.77112111458332,
            "value": 0.3937007874015748
          },
          {
            "number": 1,
            "ticks": 7584,
            "time": 61.55845899999999,
            "value": 0
          },
          {
            "number": 1,
            "ticks": 7920,
            "time": 64.2857325,
            "value": 0.015748031496062992
          },
          {
            "number": 1,
            "ticks": 7926,
            "time": 64.3344338125,
            "value": 0.06299212598425197
          },
          {
            "number": 1,
            "ticks": 7933,
            "time": 64.39125201041666,
            "value": 0.11811023622047244
          },
          {
            "number": 1,
            "ticks": 7940,
            "time": 64.44807020833332,
            "value": 0.1732283464566929
          },
          {
            "number": 1,
            "ticks": 7947,
            "time": 64.50488840624999,
            "value": 0.2283464566929134
          },
          {
            "number": 1,
            "ticks": 7954,
            "time": 64.56170660416666,
            "value": 0.28346456692913385
          },
          {
            "number": 1,
            "ticks": 7961,
            "time": 64.61852480208333,
            "value": 0.33070866141732286
          },
          {
            "number": 1,
            "ticks": 7967,
            "time": 64.66722611458333,
            "value": 0.3937007874015748
          },
          {
            "number": 1,
            "ticks": 8016,
            "time": 65.0649535,
            "value": 0
          },
          {
            "number": 1,
            "ticks": 8016,
            "time": 65.0649535,
            "value": 0.015748031496062992
          },
          {
            "number": 1,
            "ticks": 8022,
            "time": 65.1136548125,
            "value": 0.06299212598425197
          },
          {
            "number": 1,
            "ticks": 8029,
            "time": 65.17047301041667,
            "value": 0.11811023622047244
          },
          {
            "number": 1,
            "ticks": 8036,
            "time": 65.22729120833333,
            "value": 0.1732283464566929
          },
          {
            "number": 1,
            "ticks": 8043,
            "time": 65.28410940625,
            "value": 0.2283464566929134
          },
          {
            "number": 1,
            "ticks": 8050,
            "time": 65.34092760416667,
            "value": 0.28346456692913385
          },
          {
            "number": 1,
            "ticks": 8057,
            "time": 65.39774580208332,
            "value": 0.33070866141732286
          },
          {
            "number": 1,
            "ticks": 8063,
            "time": 65.44644711458332,
            "value": 0.3937007874015748
          },
          {
            "number": 1,
            "ticks": 8112,
            "time": 65.8441745,
            "value": 0
          },
          {
            "number": 1,
            "ticks": 8136,
            "time": 66.03897975,
            "value": 0.015748031496062992
          },
          {
            "number": 1,
            "ticks": 8142,
            "time": 66.0876810625,
            "value": 0.06299212598425197
          },
          {
            "number": 1,
            "ticks": 8149,
            "time": 66.14449926041667,
            "value": 0.11811023622047244
          },
          {
            "number": 1,
            "ticks": 8156,
            "time": 66.20131745833332,
            "value": 0.1732283464566929
          },
          {
            "number": 1,
            "ticks": 8163,
            "time": 66.25813565624999,
            "value": 0.2283464566929134
          },
          {
            "number": 1,
            "ticks": 8170,
            "time": 66.31495385416666,
            "value": 0.28346456692913385
          },
          {
            "number": 1,
            "ticks": 8177,
            "time": 66.37177205208333,
            "value": 0.33070866141732286
          },
          {
            "number": 1,
            "ticks": 8183,
            "time": 66.42047336458333,
            "value": 0.3937007874015748
          },
          {
            "number": 1,
            "ticks": 8232,
            "time": 66.81820074999999,
            "value": 0
          },
          {
            "number": 1,
            "ticks": 8304,
            "time": 67.4026165,
            "value": 0.015748031496062992
          },
          {
            "number": 1,
            "ticks": 8310,
            "time": 67.4513178125,
            "value": 0.03937007874015748
          },
          {
            "number": 1,
            "ticks": 8317,
            "time": 67.50813601041666,
            "value": 0.06299212598425197
          },
          {
            "number": 1,
            "ticks": 8324,
            "time": 67.56495420833332,
            "value": 0.09448818897637795
          },
          {
            "number": 1,
            "ticks": 8331,
            "time": 67.62177240624999,
            "value": 0.11811023622047244
          },
          {
            "number": 1,
            "ticks": 8338,
            "time": 67.67859060416667,
            "value": 0.14960629921259844
          },
          {
            "number": 1,
            "ticks": 8345,
            "time": 67.73540880208333,
            "value": 0.1732283464566929
          },
          {
            "number": 1,
            "ticks": 8352,
            "time": 67.792227,
            "value": 0.1968503937007874
          },
          {
            "number": 1,
            "ticks": 8358,
            "time": 67.8409283125,
            "value": 0.2283464566929134
          },
          {
            "number": 1,
            "ticks": 8365,
            "time": 67.89774651041667,
            "value": 0.25196850393700787
          },
          {
            "number": 1,
            "ticks": 8372,
            "time": 67.95456470833332,
            "value": 0.28346456692913385
          },
          {
            "number": 1,
            "ticks": 8379,
            "time": 68.01138290624999,
            "value": 0.30708661417322836
          },
          {
            "number": 1,
            "ticks": 8386,
            "time": 68.06820110416666,
            "value": 0.33858267716535434
          },
          {
            "number": 1,
            "ticks": 8393,
            "time": 68.12501930208333,
            "value": 0.36220472440944884
          },
          {
            "number": 1,
            "ticks": 8399,
            "time": 68.17372061458333,
            "value": 0.3937007874015748
          },
          {
            "number": 1,
            "ticks": 8592,
            "time": 69.7402795,
            "value": 0
          },
          {
            "number": 1,
            "ticks": 8880,
            "time": 72.07794249999999,
            "value": 0.015748031496062992
          },
          {
            "number": 1,
            "ticks": 8886,
            "time": 72.12664381249999,
            "value": 0.03937007874015748
          },
          {
            "number": 1,
            "ticks": 8893,
            "time": 72.18346201041666,
            "value": 0.06299212598425197
          },
          {
            "number": 1,
            "ticks": 8900,
            "time": 72.24028020833333,
            "value": 0.09448818897637795
          },
          {
            "number": 1,
            "ticks": 8907,
            "time": 72.29709840625,
            "value": 0.11811023622047244
          },
          {
            "number": 1,
            "ticks": 8914,
            "time": 72.35391660416667,
            "value": 0.14960629921259844
          },
          {
            "number": 1,
            "ticks": 8921,
            "time": 72.41073480208333,
            "value": 0.1732283464566929
          },
          {
            "number": 1,
            "ticks": 8928,
            "time": 72.467553,
            "value": 0.1968503937007874
          },
          {
            "number": 1,
            "ticks": 8934,
            "time": 72.5162543125,
            "value": 0.2283464566929134
          },
          {
            "number": 1,
            "ticks": 8941,
            "time": 72.57307251041667,
            "value": 0.25196850393700787
          },
          {
            "number": 1,
            "ticks": 8948,
            "time": 72.62989070833332,
            "value": 0.28346456692913385
          },
          {
            "number": 1,
            "ticks": 8955,
            "time": 72.68670890624999,
            "value": 0.30708661417322836
          },
          {
            "number": 1,
            "ticks": 8962,
            "time": 72.74352710416666,
            "value": 0.33858267716535434
          },
          {
            "number": 1,
            "ticks": 8969,
            "time": 72.80034530208333,
            "value": 0.36220472440944884
          },
          {
            "number": 1,
            "ticks": 8975,
            "time": 72.84904661458333,
            "value": 0.3937007874015748
          },
          {
            "number": 1,
            "ticks": 9648,
            "time": 78.31171049999999,
            "value": 0
          },
          {
            "number": 1,
            "ticks": 15264,
            "time": 123.89613899999999,
            "value": 0.015748031496062992
          },
          {
            "number": 1,
            "ticks": 15270,
            "time": 123.94484031249999,
            "value": 0.03937007874015748
          },
          {
            "number": 1,
            "ticks": 15277,
            "time": 124.00165851041665,
            "value": 0.06299212598425197
          },
          {
            "number": 1,
            "ticks": 15284,
            "time": 124.05847670833333,
            "value": 0.09448818897637795
          },
          {
            "number": 1,
            "ticks": 15291,
            "time": 124.11529490624999,
            "value": 0.11811023622047244
          },
          {
            "number": 1,
            "ticks": 15298,
            "time": 124.17211310416666,
            "value": 0.14960629921259844
          },
          {
            "number": 1,
            "ticks": 15305,
            "time": 124.22893130208332,
            "value": 0.1732283464566929
          },
          {
            "number": 1,
            "ticks": 15312,
            "time": 124.2857495,
            "value": 0.1968503937007874
          },
          {
            "number": 1,
            "ticks": 15318,
            "time": 124.3344508125,
            "value": 0.2283464566929134
          },
          {
            "number": 1,
            "ticks": 15325,
            "time": 124.39126901041665,
            "value": 0.25196850393700787
          },
          {
            "number": 1,
            "ticks": 15332,
            "time": 124.44808720833333,
            "value": 0.28346456692913385
          },
          {
            "number": 1,
            "ticks": 15339,
            "time": 124.50490540624999,
            "value": 0.30708661417322836
          },
          {
            "number": 1,
            "ticks": 15346,
            "time": 124.56172360416664,
            "value": 0.33858267716535434
          },
          {
            "number": 1,
            "ticks": 15353,
            "time": 124.61854180208333,
            "value": 0.36220472440944884
          },
          {
            "number": 1,
            "ticks": 15359,
            "time": 124.66724311458333,
            "value": 0.3937007874015748
          },
          {
            "number": 1,
            "ticks": 15456,
            "time": 125.45458099999999,
            "value": 0
          },
          {
            "number": 1,
            "ticks": 15600,
            "time": 126.62341249999999,
            "value": 0.015748031496062992
          },
          {
            "number": 1,
            "ticks": 15606,
            "time": 126.67211381249999,
            "value": 0.03937007874015748
          },
          {
            "number": 1,
            "ticks": 15613,
            "time": 126.72893201041666,
            "value": 0.06299212598425197
          },
          {
            "number": 1,
            "ticks": 15620,
            "time": 126.78575020833333,
            "value": 0.09448818897637795
          },
          {
            "number": 1,
            "ticks": 15627,
            "time": 126.84256840625,
            "value": 0.11811023622047244
          },
          {
            "number": 1,
            "ticks": 15634,
            "time": 126.89938660416665,
            "value": 0.14960629921259844
          },
          {
            "number": 1,
            "ticks": 15641,
            "time": 126.95620480208333,
            "value": 0.1732283464566929
          },
          {
            "number": 1,
            "ticks": 15648,
            "time": 127.01302299999999,
            "value": 0.1968503937007874
          },
          {
            "number": 1,
            "ticks": 15654,
            "time": 127.06172431249999,
            "value": 0.2283464566929134
          },
          {
            "number": 1,
            "ticks": 15661,
            "time": 127.11854251041665,
            "value": 0.25196850393700787
          },
          {
            "number": 1,
            "ticks": 15668,
            "time": 127.17536070833333,
            "value": 0.28346456692913385
          },
          {
            "number": 1,
            "ticks": 15675,
            "time": 127.23217890624998,
            "value": 0.30708661417322836
          },
          {
            "number": 1,
            "ticks": 15682,
            "time": 127.28899710416665,
            "value": 0.33858267716535434
          },
          {
            "number": 1,
            "ticks": 15689,
            "time": 127.34581530208334,
            "value": 0.36220472440944884
          },
          {
            "number": 1,
            "ticks": 15695,
            "time": 127.39451661458332,
            "value": 0.3937007874015748
          },
          {
            "number": 1,
            "ticks": 15744,
            "time": 127.792244,
            "value": 0
          },
          {
            "number": 1,
            "ticks": 15840,
            "time": 128.571465,
            "value": 0.015748031496062992
          },
          {
            "number": 1,
            "ticks": 15846,
            "time": 128.6201663125,
            "value": 0.06299212598425197
          },
          {
            "number": 1,
            "ticks": 15853,
            "time": 128.67698451041664,
            "value": 0.11811023622047244
          },
          {
            "number": 1,
            "ticks": 15860,
            "time": 128.73380270833334,
            "value": 0.1732283464566929
          },
          {
            "number": 1,
            "ticks": 15867,
            "time": 128.79062090624998,
            "value": 0.2283464566929134
          },
          {
            "number": 1,
            "ticks": 15874,
            "time": 128.84743910416665,
            "value": 0.28346456692913385
          },
          {
            "number": 1,
            "ticks": 15881,
            "time": 128.90425730208332,
            "value": 0.33070866141732286
          },
          {
            "number": 1,
            "ticks": 15887,
            "time": 128.95295861458334,
            "value": 0.3937007874015748
          },
          {
            "number": 1,
            "ticks": 15936,
            "time": 129.350686,
            "value": 0
          },
          {
            "number": 1,
            "ticks": 16176,
            "time": 131.29873849999998,
            "value": 0.015748031496062992
          },
          {
            "number": 1,
            "ticks": 16182,
            "time": 131.3474398125,
            "value": 0.03937007874015748
          },
          {
            "number": 1,
            "ticks": 16189,
            "time": 131.40425801041664,
            "value": 0.06299212598425197
          },
          {
            "number": 1,
            "ticks": 16196,
            "time": 131.46107620833334,
            "value": 0.09448818897637795
          },
          {
            "number": 1,
            "ticks": 16203,
            "time": 131.51789440624998,
            "value": 0.11811023622047244
          },
          {
            "number": 1,
            "ticks": 16210,
            "time": 131.57471260416665,
            "value": 0.14960629921259844
          },
          {
            "number": 1,
            "ticks": 16217,
            "time": 131.63153080208332,
            "value": 0.1732283464566929
          },
          {
            "number": 1,
            "ticks": 16224,
            "time": 131.688349,
            "value": 0.1968503937007874
          },
          {
            "number": 1,
            "ticks": 16230,
            "time": 131.7370503125,
            "value": 0.2283464566929134
          },
          {
            "number": 1,
            "ticks": 16237,
            "time": 131.79386851041664,
            "value": 0.25196850393700787
          },
          {
            "number": 1,
            "ticks": 16244,
            "time": 131.85068670833334,
            "value": 0.28346456692913385
          },
          {
            "number": 1,
            "ticks": 16251,
            "time": 131.90750490624998,
            "value": 0.30708661417322836
          },
          {
            "number": 1,
            "ticks": 16258,
            "time": 131.96432310416665,
            "value": 0.33858267716535434
          },
          {
            "number": 1,
            "ticks": 16265,
            "time": 132.02114130208332,
            "value": 0.36220472440944884
          },
          {
            "number": 1,
            "ticks": 16271,
            "time": 132.06984261458334,
            "value": 0.3937007874015748
          },
          {
            "number": 1,
            "ticks": 16320,
            "time": 132.46757,
            "value": 0
          },
          {
            "number": 1,
            "ticks": 16392,
            "time": 133.05198575,
            "value": 0.015748031496062992
          },
          {
            "number": 1,
            "ticks": 16398,
            "time": 133.1006870625,
            "value": 0.06299212598425197
          },
          {
            "number": 1,
            "ticks": 16405,
            "time": 133.15750526041666,
            "value": 0.11811023622047244
          },
          {
            "number": 1,
            "ticks": 16412,
            "time": 133.21432345833333,
            "value": 0.1732283464566929
          },
          {
            "number": 1,
            "ticks": 16419,
            "time": 133.27114165625,
            "value": 0.2283464566929134
          },
          {
            "number": 1,
            "ticks": 16426,
            "time": 133.32795985416664,
            "value": 0.28346456692913385
          },
          {
            "number": 1,
            "ticks": 16433,
            "time": 133.38477805208333,
            "value": 0.33070866141732286
          },
          {
            "number": 1,
            "ticks": 16439,
            "time": 133.43347936458332,
            "value": 0.3937007874015748
          },
          {
            "number": 1,
            "ticks": 16512,
            "time": 134.02601199999998,
            "value": 0
          },
          {
            "number": 1,
            "ticks": 16560,
            "time": 134.41562249999998,
            "value": 0.015748031496062992
          },
          {
            "number": 1,
            "ticks": 16566,
            "time": 134.4643238125,
            "value": 0.06299212598425197
          },
          {
            "number": 1,
            "ticks": 16573,
            "time": 134.52114201041664,
            "value": 0.11811023622047244
          },
          {
            "number": 1,
            "ticks": 16580,
            "time": 134.57796020833334,
            "value": 0.1732283464566929
          },
          {
            "number": 1,
            "ticks": 16587,
            "time": 134.63477840624998,
            "value": 0.2283464566929134
          },
          {
            "number": 1,
            "ticks": 16594,
            "time": 134.69159660416665,
            "value": 0.28346456692913385
          },
          {
            "number": 1,
            "ticks": 16601,
            "time": 134.74841480208332,
            "value": 0.33070866141732286
          },
          {
            "number": 1,
            "ticks": 16607,
            "time": 134.79711611458333,
            "value": 0.3937007874015748
          },
          {
            "number": 1,
            "ticks": 16680,
            "time": 135.38964875,
            "value": 0
          },
          {
            "number": 1,
            "ticks": 16800,
            "time": 136.363675,
            "value": 0.015748031496062992
          },
          {
            "number": 1,
            "ticks": 16806,
            "time": 136.4123763125,
            "value": 0.03937007874015748
          },
          {
            "number": 1,
            "ticks": 16813,
            "time": 136.46919451041666,
            "value": 0.06299212598425197
          },
          {
            "number": 1,
            "ticks": 16820,
            "time": 136.52601270833333,
            "value": 0.09448818897637795
          },
          {
            "number": 1,
            "ticks": 16827,
            "time": 136.58283090625,
            "value": 0.11811023622047244
          },
          {
            "number": 1,
            "ticks": 16834,
            "time": 136.63964910416664,
            "value": 0.14960629921259844
          },
          {
            "number": 1,
            "ticks": 16841,
            "time": 136.69646730208333,
            "value": 0.1732283464566929
          },
          {
            "number": 1,
            "ticks": 16848,
            "time": 136.75328549999998,
            "value": 0.1968503937007874
          },
          {
            "number": 1,
            "ticks": 16854,
            "time": 136.8019868125,
            "value": 0.2283464566929134
          },
          {
            "number": 1,
            "ticks": 16861,
            "time": 136.85880501041666,
            "value": 0.25196850393700787
          },
          {
            "number": 1,
            "ticks": 16868,
            "time": 136.91562320833333,
            "value": 0.28346456692913385
          },
          {
            "number": 1,
            "ticks": 16875,
            "time": 136.97244140625,
            "value": 0.30708661417322836
          },
          {
            "number": 1,
            "ticks": 16882,
            "time": 137.02925960416664,
            "value": 0.33858267716535434
          },
          {
            "number": 1,
            "ticks": 16889,
            "time": 137.08607780208334,
            "value": 0.36220472440944884
          },
          {
            "number": 1,
            "ticks": 16895,
            "time": 137.13477911458332,
            "value": 0.3937007874015748
          },
          {
            "number": 1,
            "ticks": 16992,
            "time": 137.922117,
            "value": 0
          },
          {
            "number": 1,
            "ticks": 17328,
            "time": 140.64939049999998,
            "value": 0.015748031496062992
          },
          {
            "number": 1,
            "ticks": 17334,
            "time": 140.6980918125,
            "value": 0.06299212598425197
          },
          {
            "number": 1,
            "ticks": 17341,
            "time": 140.75491001041664,
            "value": 0.11811023622047244
          },
          {
            "number": 1,
            "ticks": 17348,
            "time": 140.81172820833334,
            "value": 0.1732283464566929
          },
          {
            "number": 1,
            "ticks": 17355,
            "time": 140.86854640624998,
            "value": 0.2283464566929134
          },
          {
            "number": 1,
            "ticks": 17362,
            "time": 140.92536460416665,
            "value": 0.28346456692913385
          },
          {
            "number": 1,
            "ticks": 17369,
            "time": 140.98218280208334,
            "value": 0.33070866141732286
          },
          {
            "number": 1,
            "ticks": 17375,
            "time": 141.03088411458333,
            "value": 0.3937007874015748
          },
          {
            "number": 1,
            "ticks": 17424,
            "time": 141.4286115,
            "value": 0
          },
          {
            "number": 1,
            "ticks": 17424,
            "time": 141.4286115,
            "value": 0.015748031496062992
          },
          {
            "number": 1,
            "ticks": 17430,
            "time": 141.4773128125,
            "value": 0.06299212598425197
          },
          {
            "number": 1,
            "ticks": 17437,
            "time": 141.53413101041664,
            "value": 0.11811023622047244
          },
          {
            "number": 1,
            "ticks": 17444,
            "time": 141.59094920833334,
            "value": 0.1732283464566929
          },
          {
            "number": 1,
            "ticks": 17451,
            "time": 141.64776740624998,
            "value": 0.2283464566929134
          },
          {
            "number": 1,
            "ticks": 17458,
            "time": 141.70458560416665,
            "value": 0.28346456692913385
          },
          {
            "number": 1,
            "ticks": 17465,
            "time": 141.76140380208332,
            "value": 0.33070866141732286
          },
          {
            "number": 1,
            "ticks": 17471,
            "time": 141.81010511458334,
            "value": 0.3937007874015748
          },
          {
            "number": 1,
            "ticks": 17520,
            "time": 142.2078325,
            "value": 0
          },
          {
            "number": 1,
            "ticks": 17544,
            "time": 142.40263775,
            "value": 0.015748031496062992
          },
          {
            "number": 1,
            "ticks": 17550,
            "time": 142.45133906249998,
            "value": 0.06299212598425197
          },
          {
            "number": 1,
            "ticks": 17557,
            "time": 142.50815726041665,
            "value": 0.11811023622047244
          },
          {
            "number": 1,
            "ticks": 17564,
            "time": 142.56497545833332,
            "value": 0.1732283464566929
          },
          {
            "number": 1,
            "ticks": 17571,
            "time": 142.62179365625,
            "value": 0.2283464566929134
          },
          {
            "number": 1,
            "ticks": 17578,
            "time": 142.67861185416666,
            "value": 0.28346456692913385
          },
          {
            "number": 1,
            "ticks": 17585,
            "time": 142.73543005208333,
            "value": 0.33070866141732286
          },
          {
            "number": 1,
            "ticks": 17591,
            "time": 142.78413136458332,
            "value": 0.3937007874015748
          },
          {
            "number": 1,
            "ticks": 17640,
            "time": 143.18185874999998,
            "value": 0
          },
          {
            "number": 1,
            "ticks": 17712,
            "time": 143.76627449999998,
            "value": 0.015748031496062992
          },
          {
            "number": 1,
            "ticks": 17718,
            "time": 143.8149758125,
            "value": 0.03937007874015748
          },
          {
            "number": 1,
            "ticks": 17725,
            "time": 143.87179401041664,
            "value": 0.06299212598425197
          },
          {
            "number": 1,
            "ticks": 17732,
            "time": 143.92861220833333,
            "value": 0.09448818897637795
          },
          {
            "number": 1,
            "ticks": 17739,
            "time": 143.98543040624998,
            "value": 0.11811023622047244
          },
          {
            "number": 1,
            "ticks": 17746,
            "time": 144.04224860416664,
            "value": 0.14960629921259844
          },
          {
            "number": 1,
            "ticks": 17753,
            "time": 144.09906680208334,
            "value": 0.1732283464566929
          },
          {
            "number": 1,
            "ticks": 17760,
            "time": 144.15588499999998,
            "value": 0.1968503937007874
          },
          {
            "number": 1,
            "ticks": 17766,
            "time": 144.2045863125,
            "value": 0.2283464566929134
          },
          {
            "number": 1,
            "ticks": 17773,
            "time": 144.26140451041664,
            "value": 0.25196850393700787
          },
          {
            "number": 1,
            "ticks": 17780,
            "time": 144.31822270833334,
            "value": 0.28346456692913385
          },
          {
            "number": 1,
            "ticks": 17787,
            "time": 144.37504090624998,
            "value": 0.30708661417322836
          },
          {
            "number": 1,
            "ticks": 17794,
            "time": 144.43185910416665,
            "value": 0.33858267716535434
          },
          {
            "number": 1,
            "ticks": 17801,
            "time": 144.48867730208332,
            "value": 0.36220472440944884
          },
          {
            "number": 1,
            "ticks": 17807,
            "time": 144.53737861458333,
            "value": 0.3937007874015748
          },
          {
            "number": 1,
            "ticks": 18000,
            "time": 146.1039375,
            "value": 0
          },
          {
            "number": 1,
            "ticks": 18288,
            "time": 148.4416005,
            "value": 0.015748031496062992
          },
          {
            "number": 1,
            "ticks": 18294,
            "time": 148.49030181249998,
            "value": 0.03937007874015748
          },
          {
            "number": 1,
            "ticks": 18301,
            "time": 148.54712001041665,
            "value": 0.06299212598425197
          },
          {
            "number": 1,
            "ticks": 18308,
            "time": 148.60393820833332,
            "value": 0.09448818897637795
          },
          {
            "number": 1,
            "ticks": 18315,
            "time": 148.66075640625,
            "value": 0.11811023622047244
          },
          {
            "number": 1,
            "ticks": 18322,
            "time": 148.71757460416666,
            "value": 0.14960629921259844
          },
          {
            "number": 1,
            "ticks": 18329,
            "time": 148.77439280208333,
            "value": 0.1732283464566929
          },
          {
            "number": 1,
            "ticks": 18336,
            "time": 148.831211,
            "value": 0.1968503937007874
          },
          {
            "number": 1,
            "ticks": 18342,
            "time": 148.87991231249998,
            "value": 0.2283464566929134
          },
          {
            "number": 1,
            "ticks": 18349,
            "time": 148.93673051041665,
            "value": 0.25196850393700787
          },
          {
            "number": 1,
            "ticks": 18356,
            "time": 148.99354870833332,
            "value": 0.28346456692913385
          },
          {
            "number": 1,
            "ticks": 18363,
            "time": 149.05036690625,
            "value": 0.30708661417322836
          },
          {
            "number": 1,
            "ticks": 18370,
            "time": 149.10718510416666,
            "value": 0.33858267716535434
          },
          {
            "number": 1,
            "ticks": 18377,
            "time": 149.16400330208333,
            "value": 0.36220472440944884
          },
          {
            "number": 1,
            "ticks": 18383,
            "time": 149.21270461458332,
            "value": 0.3937007874015748
          },
          {
            "number": 1,
            "ticks": 19056,
            "time": 154.6753685,
            "value": 0
          }
        ],
        "6": [
          {
            "number": 6,
            "ticks": 4,
            "time": 0.03246754166666666,
            "value": 0.5905511811023622
          },
          {
            "number": 6,
            "ticks": 7,
            "time": 0.05681819791666667,
            "value": 0.48031496062992124
          },
          {
            "number": 6,
            "ticks": 10,
            "time": 0.08116885416666667,
            "value": 0.5039370078740157
          }
        ],
        "7": [
          {
            "number": 7,
            "ticks": 0,
            "time": 0,
            "value": 0.84251968503937
          }
        ],
        "10": [
          {
            "number": 10,
            "ticks": 0,
            "time": 0,
            "value": 0.5039370078740157
          }
        ],
        "11": [
          {
            "number": 11,
            "ticks": 5808,
            "time": 47.142870499999994,
            "value": 0.7086614173228346
          },
          {
            "number": 11,
            "ticks": 5814,
            "time": 47.191571812499994,
            "value": 0.7322834645669292
          },
          {
            "number": 11,
            "ticks": 5821,
            "time": 47.248390010416664,
            "value": 0.7559055118110236
          },
          {
            "number": 11,
            "ticks": 5827,
            "time": 47.297091322916664,
            "value": 0.7795275590551181
          },
          {
            "number": 11,
            "ticks": 5834,
            "time": 47.353909520833334,
            "value": 0.8031496062992126
          },
          {
            "number": 11,
            "ticks": 5840,
            "time": 47.402610833333334,
            "value": 0.8188976377952756
          },
          {
            "number": 11,
            "ticks": 5847,
            "time": 47.45942903125,
            "value": 0.84251968503937
          },
          {
            "number": 11,
            "ticks": 5853,
            "time": 47.50813034375,
            "value": 0.8582677165354331
          },
          {
            "number": 11,
            "ticks": 5860,
            "time": 47.56494854166666,
            "value": 0.8740157480314961
          },
          {
            "number": 11,
            "ticks": 5866,
            "time": 47.61364985416666,
            "value": 0.889763779527559
          },
          {
            "number": 11,
            "ticks": 5873,
            "time": 47.67046805208333,
            "value": 0.905511811023622
          },
          {
            "number": 11,
            "ticks": 5879,
            "time": 47.71916936458333,
            "value": 0.9212598425196851
          },
          {
            "number": 11,
            "ticks": 5886,
            "time": 47.7759875625,
            "value": 0.937007874015748
          },
          {
            "number": 11,
            "ticks": 5892,
            "time": 47.824688875,
            "value": 0.9448818897637795
          },
          {
            "number": 11,
            "ticks": 5899,
            "time": 47.88150707291666,
            "value": 0.952755905511811
          },
          {
            "number": 11,
            "ticks": 5905,
            "time": 47.93020838541666,
            "value": 0.968503937007874
          },
          {
            "number": 11,
            "ticks": 5912,
            "time": 47.98702658333333,
            "value": 0.9763779527559056
          },
          {
            "number": 11,
            "ticks": 5925,
            "time": 48.092546093749995,
            "value": 0.984251968503937
          },
          {
            "number": 11,
            "ticks": 5931,
            "time": 48.141247406249995,
            "value": 0.9921259842519685
          },
          {
            "number": 11,
            "ticks": 5952,
            "time": 48.311702,
            "value": 1
          },
          {
            "number": 11,
            "ticks": 6048,
            "time": 49.090923,
            "value": 0.8661417322834646
          },
          {
            "number": 11,
            "ticks": 6192,
            "time": 50.2597545,
            "value": 0.6299212598425197
          },
          {
            "number": 11,
            "ticks": 6198,
            "time": 50.30845581249999,
            "value": 0.6692913385826772
          },
          {
            "number": 11,
            "ticks": 6205,
            "time": 50.36527401041667,
            "value": 0.7086614173228346
          },
          {
            "number": 11,
            "ticks": 6211,
            "time": 50.41397532291667,
            "value": 0.7480314960629921
          },
          {
            "number": 11,
            "ticks": 6218,
            "time": 50.470793520833325,
            "value": 0.7795275590551181
          },
          {
            "number": 11,
            "ticks": 6224,
            "time": 50.519494833333326,
            "value": 0.8110236220472441
          },
          {
            "number": 11,
            "ticks": 6231,
            "time": 50.576313031249995,
            "value": 0.84251968503937
          },
          {
            "number": 11,
            "ticks": 6237,
            "time": 50.625014343749996,
            "value": 0.8661417322834646
          },
          {
            "number": 11,
            "ticks": 6244,
            "time": 50.681832541666665,
            "value": 0.889763779527559
          },
          {
            "number": 11,
            "ticks": 6250,
            "time": 50.730533854166666,
            "value": 0.905511811023622
          },
          {
            "number": 11,
            "ticks": 6257,
            "time": 50.78735205208333,
            "value": 0.9212598425196851
          },
          {
            "number": 11,
            "ticks": 6263,
            "time": 50.83605336458333,
            "value": 0.937007874015748
          },
          {
            "number": 11,
            "ticks": 6270,
            "time": 50.8928715625,
            "value": 0.9448818897637795
          },
          {
            "number": 11,
            "ticks": 6276,
            "time": 50.941572875,
            "value": 0.952755905511811
          },
          {
            "number": 11,
            "ticks": 6288,
            "time": 51.0389755,
            "value": 0.9606299212598425
          },
          {
            "number": 11,
            "ticks": 6336,
            "time": 51.428585999999996,
            "value": 0.8503937007874016
          },
          {
            "number": 11,
            "ticks": 6360,
            "time": 51.62339125,
            "value": 0.7086614173228346
          },
          {
            "number": 11,
            "ticks": 6366,
            "time": 51.6720925625,
            "value": 0.7322834645669292
          },
          {
            "number": 11,
            "ticks": 6373,
            "time": 51.72891076041667,
            "value": 0.7637795275590551
          },
          {
            "number": 11,
            "ticks": 6379,
            "time": 51.77761207291667,
            "value": 0.7952755905511811
          },
          {
            "number": 11,
            "ticks": 6386,
            "time": 51.83443027083332,
            "value": 0.8188976377952756
          },
          {
            "number": 11,
            "ticks": 6392,
            "time": 51.88313158333332,
            "value": 0.84251968503937
          },
          {
            "number": 11,
            "ticks": 6399,
            "time": 51.93994978124999,
            "value": 0.8661417322834646
          },
          {
            "number": 11,
            "ticks": 6405,
            "time": 51.98865109374999,
            "value": 0.8818897637795275
          },
          {
            "number": 11,
            "ticks": 6412,
            "time": 52.04546929166666,
            "value": 0.905511811023622
          },
          {
            "number": 11,
            "ticks": 6418,
            "time": 52.09417060416666,
            "value": 0.9212598425196851
          },
          {
            "number": 11,
            "ticks": 6425,
            "time": 52.150988802083326,
            "value": 0.937007874015748
          },
          {
            "number": 11,
            "ticks": 6431,
            "time": 52.199690114583326,
            "value": 0.9448818897637795
          },
          {
            "number": 11,
            "ticks": 6438,
            "time": 52.256508312499996,
            "value": 0.9606299212598425
          },
          {
            "number": 11,
            "ticks": 6444,
            "time": 52.305209624999996,
            "value": 0.968503937007874
          },
          {
            "number": 11,
            "ticks": 6451,
            "time": 52.362027822916666,
            "value": 0.9763779527559056
          },
          {
            "number": 11,
            "ticks": 6457,
            "time": 52.410729135416666,
            "value": 0.984251968503937
          },
          {
            "number": 11,
            "ticks": 6464,
            "time": 52.46754733333333,
            "value": 0.9921259842519685
          },
          {
            "number": 11,
            "ticks": 6480,
            "time": 52.5974175,
            "value": 1
          },
          {
            "number": 11,
            "ticks": 6528,
            "time": 52.987027999999995,
            "value": 0.8661417322834646
          },
          {
            "number": 11,
            "ticks": 6768,
            "time": 54.9350805,
            "value": 0.7086614173228346
          },
          {
            "number": 11,
            "ticks": 6774,
            "time": 54.9837818125,
            "value": 0.7401574803149606
          },
          {
            "number": 11,
            "ticks": 6781,
            "time": 55.04060001041667,
            "value": 0.7795275590551181
          },
          {
            "number": 11,
            "ticks": 6787,
            "time": 55.08930132291667,
            "value": 0.8110236220472441
          },
          {
            "number": 11,
            "ticks": 6794,
            "time": 55.146119520833324,
            "value": 0.84251968503937
          },
          {
            "number": 11,
            "ticks": 6800,
            "time": 55.194820833333324,
            "value": 0.8661417322834646
          },
          {
            "number": 11,
            "ticks": 6807,
            "time": 55.251639031249994,
            "value": 0.889763779527559
          },
          {
            "number": 11,
            "ticks": 6813,
            "time": 55.300340343749994,
            "value": 0.9133858267716536
          },
          {
            "number": 11,
            "ticks": 6820,
            "time": 55.357158541666664,
            "value": 0.937007874015748
          },
          {
            "number": 11,
            "ticks": 6826,
            "time": 55.405859854166664,
            "value": 0.952755905511811
          },
          {
            "number": 11,
            "ticks": 6833,
            "time": 55.46267805208333,
            "value": 0.968503937007874
          },
          {
            "number": 11,
            "ticks": 6839,
            "time": 55.51137936458333,
            "value": 0.9763779527559056
          },
          {
            "number": 11,
            "ticks": 6846,
            "time": 55.568197562499996,
            "value": 0.984251968503937
          },
          {
            "number": 11,
            "ticks": 6852,
            "time": 55.616898875,
            "value": 0.9921259842519685
          },
          {
            "number": 11,
            "ticks": 6864,
            "time": 55.7143015,
            "value": 1
          },
          {
            "number": 11,
            "ticks": 6912,
            "time": 56.103911999999994,
            "value": 0.8661417322834646
          },
          {
            "number": 11,
            "ticks": 6960,
            "time": 56.4935225,
            "value": 0.7086614173228346
          },
          {
            "number": 11,
            "ticks": 6966,
            "time": 56.5422238125,
            "value": 0.7401574803149606
          },
          {
            "number": 11,
            "ticks": 6973,
            "time": 56.59904201041667,
            "value": 0.7795275590551181
          },
          {
            "number": 11,
            "ticks": 6979,
            "time": 56.64774332291667,
            "value": 0.8110236220472441
          },
          {
            "number": 11,
            "ticks": 6986,
            "time": 56.70456152083332,
            "value": 0.84251968503937
          },
          {
            "number": 11,
            "ticks": 6992,
            "time": 56.753262833333324,
            "value": 0.8661417322834646
          },
          {
            "number": 11,
            "ticks": 6999,
            "time": 56.81008103124999,
            "value": 0.889763779527559
          },
          {
            "number": 11,
            "ticks": 7005,
            "time": 56.85878234374999,
            "value": 0.9133858267716536
          },
          {
            "number": 11,
            "ticks": 7012,
            "time": 56.91560054166666,
            "value": 0.937007874015748
          },
          {
            "number": 11,
            "ticks": 7018,
            "time": 56.96430185416666,
            "value": 0.952755905511811
          },
          {
            "number": 11,
            "ticks": 7025,
            "time": 57.021120052083326,
            "value": 0.968503937007874
          },
          {
            "number": 11,
            "ticks": 7031,
            "time": 57.069821364583326,
            "value": 0.9763779527559056
          },
          {
            "number": 11,
            "ticks": 7038,
            "time": 57.126639562499996,
            "value": 0.984251968503937
          },
          {
            "number": 11,
            "ticks": 7044,
            "time": 57.175340874999996,
            "value": 0.9921259842519685
          },
          {
            "number": 11,
            "ticks": 7056,
            "time": 57.2727435,
            "value": 1
          },
          {
            "number": 11,
            "ticks": 7104,
            "time": 57.66235399999999,
            "value": 0.8661417322834646
          },
          {
            "number": 11,
            "ticks": 7128,
            "time": 57.857159249999995,
            "value": 0.3937007874015748
          },
          {
            "number": 11,
            "ticks": 7134,
            "time": 57.905860562499996,
            "value": 0.47244094488188976
          },
          {
            "number": 11,
            "ticks": 7141,
            "time": 57.962678760416665,
            "value": 0.5433070866141733
          },
          {
            "number": 11,
            "ticks": 7147,
            "time": 58.011380072916666,
            "value": 0.6141732283464567
          },
          {
            "number": 11,
            "ticks": 7154,
            "time": 58.06819827083333,
            "value": 0.6692913385826772
          },
          {
            "number": 11,
            "ticks": 7160,
            "time": 58.11689958333333,
            "value": 0.7322834645669292
          },
          {
            "number": 11,
            "ticks": 7167,
            "time": 58.17371778125,
            "value": 0.7795275590551181
          },
          {
            "number": 11,
            "ticks": 7173,
            "time": 58.22241909375,
            "value": 0.8267716535433071
          },
          {
            "number": 11,
            "ticks": 7180,
            "time": 58.27923729166667,
            "value": 0.8661417322834646
          },
          {
            "number": 11,
            "ticks": 7186,
            "time": 58.32793860416667,
            "value": 0.905511811023622
          },
          {
            "number": 11,
            "ticks": 7193,
            "time": 58.384756802083324,
            "value": 0.9291338582677166
          },
          {
            "number": 11,
            "ticks": 7199,
            "time": 58.433458114583324,
            "value": 0.952755905511811
          },
          {
            "number": 11,
            "ticks": 7206,
            "time": 58.490276312499994,
            "value": 0.9763779527559056
          },
          {
            "number": 11,
            "ticks": 7212,
            "time": 58.538977624999994,
            "value": 0.984251968503937
          },
          {
            "number": 11,
            "ticks": 7219,
            "time": 58.595795822916664,
            "value": 0.9921259842519685
          },
          {
            "number": 11,
            "ticks": 7224,
            "time": 58.636380249999995,
            "value": 1
          },
          {
            "number": 11,
            "ticks": 7272,
            "time": 59.02599075,
            "value": 0.8661417322834646
          },
          {
            "number": 11,
            "ticks": 7344,
            "time": 59.610406499999996,
            "value": 0.7086614173228346
          },
          {
            "number": 11,
            "ticks": 7350,
            "time": 59.6591078125,
            "value": 0.7322834645669292
          },
          {
            "number": 11,
            "ticks": 7357,
            "time": 59.715926010416666,
            "value": 0.7559055118110236
          },
          {
            "number": 11,
            "ticks": 7363,
            "time": 59.76462732291667,
            "value": 0.7795275590551181
          },
          {
            "number": 11,
            "ticks": 7370,
            "time": 59.82144552083332,
            "value": 0.8031496062992126
          },
          {
            "number": 11,
            "ticks": 7376,
            "time": 59.87014683333332,
            "value": 0.8188976377952756
          },
          {
            "number": 11,
            "ticks": 7383,
            "time": 59.92696503124999,
            "value": 0.84251968503937
          },
          {
            "number": 11,
            "ticks": 7389,
            "time": 59.97566634374999,
            "value": 0.8582677165354331
          },
          {
            "number": 11,
            "ticks": 7396,
            "time": 60.03248454166667,
            "value": 0.8740157480314961
          },
          {
            "number": 11,
            "ticks": 7402,
            "time": 60.08118585416666,
            "value": 0.889763779527559
          },
          {
            "number": 11,
            "ticks": 7409,
            "time": 60.138004052083325,
            "value": 0.905511811023622
          },
          {
            "number": 11,
            "ticks": 7415,
            "time": 60.186705364583325,
            "value": 0.9212598425196851
          },
          {
            "number": 11,
            "ticks": 7422,
            "time": 60.243523562499995,
            "value": 0.937007874015748
          },
          {
            "number": 11,
            "ticks": 7428,
            "time": 60.292224874999995,
            "value": 0.9448818897637795
          },
          {
            "number": 11,
            "ticks": 7435,
            "time": 60.349043072916665,
            "value": 0.952755905511811
          },
          {
            "number": 11,
            "ticks": 7441,
            "time": 60.397744385416665,
            "value": 0.968503937007874
          },
          {
            "number": 11,
            "ticks": 7448,
            "time": 60.45456258333333,
            "value": 0.9763779527559056
          },
          {
            "number": 11,
            "ticks": 7461,
            "time": 60.56008209375,
            "value": 0.984251968503937
          },
          {
            "number": 11,
            "ticks": 7467,
            "time": 60.60878340625,
            "value": 0.9921259842519685
          },
          {
            "number": 11,
            "ticks": 7488,
            "time": 60.77923799999999,
            "value": 1
          },
          {
            "number": 11,
            "ticks": 7584,
            "time": 61.55845899999999,
            "value": 0.8661417322834646
          },
          {
            "number": 11,
            "ticks": 7920,
            "time": 64.2857325,
            "value": 0.7086614173228346
          },
          {
            "number": 11,
            "ticks": 7926,
            "time": 64.3344338125,
            "value": 0.7559055118110236
          },
          {
            "number": 11,
            "ticks": 7933,
            "time": 64.39125201041666,
            "value": 0.8031496062992126
          },
          {
            "number": 11,
            "ticks": 7939,
            "time": 64.43995332291667,
            "value": 0.84251968503937
          },
          {
            "number": 11,
            "ticks": 7946,
            "time": 64.49677152083332,
            "value": 0.8740157480314961
          },
          {
            "number": 11,
            "ticks": 7952,
            "time": 64.54547283333332,
            "value": 0.905511811023622
          },
          {
            "number": 11,
            "ticks": 7959,
            "time": 64.60229103124999,
            "value": 0.937007874015748
          },
          {
            "number": 11,
            "ticks": 7965,
            "time": 64.65099234374999,
            "value": 0.952755905511811
          },
          {
            "number": 11,
            "ticks": 7972,
            "time": 64.70781054166666,
            "value": 0.9763779527559056
          },
          {
            "number": 11,
            "ticks": 7978,
            "time": 64.75651185416666,
            "value": 0.984251968503937
          },
          {
            "number": 11,
            "ticks": 7985,
            "time": 64.81333005208333,
            "value": 0.9921259842519685
          },
          {
            "number": 11,
            "ticks": 7992,
            "time": 64.87014825,
            "value": 1
          },
          {
            "number": 11,
            "ticks": 8016,
            "time": 65.0649535,
            "value": 0.5826771653543307
          },
          {
            "number": 11,
            "ticks": 8022,
            "time": 65.1136548125,
            "value": 0.6299212598425197
          },
          {
            "number": 11,
            "ticks": 8029,
            "time": 65.17047301041667,
            "value": 0.6692913385826772
          },
          {
            "number": 11,
            "ticks": 8035,
            "time": 65.21917432291667,
            "value": 0.7086614173228346
          },
          {
            "number": 11,
            "ticks": 8042,
            "time": 65.27599252083333,
            "value": 0.7480314960629921
          },
          {
            "number": 11,
            "ticks": 8048,
            "time": 65.32469383333333,
            "value": 0.7795275590551181
          },
          {
            "number": 11,
            "ticks": 8055,
            "time": 65.38151203125,
            "value": 0.8110236220472441
          },
          {
            "number": 11,
            "ticks": 8061,
            "time": 65.43021334375,
            "value": 0.84251968503937
          },
          {
            "number": 11,
            "ticks": 8068,
            "time": 65.48703154166667,
            "value": 0.8661417322834646
          },
          {
            "number": 11,
            "ticks": 8074,
            "time": 65.53573285416667,
            "value": 0.8818897637795275
          },
          {
            "number": 11,
            "ticks": 8081,
            "time": 65.59255105208332,
            "value": 0.905511811023622
          },
          {
            "number": 11,
            "ticks": 8087,
            "time": 65.64125236458332,
            "value": 0.9212598425196851
          },
          {
            "number": 11,
            "ticks": 8094,
            "time": 65.69807056249999,
            "value": 0.9291338582677166
          },
          {
            "number": 11,
            "ticks": 8100,
            "time": 65.746771875,
            "value": 0.937007874015748
          },
          {
            "number": 11,
            "ticks": 8112,
            "time": 65.8441745,
            "value": 0.6299212598425197
          },
          {
            "number": 11,
            "ticks": 8118,
            "time": 65.8928758125,
            "value": 0.6771653543307087
          },
          {
            "number": 11,
            "ticks": 8125,
            "time": 65.94969401041666,
            "value": 0.7165354330708661
          },
          {
            "number": 11,
            "ticks": 8131,
            "time": 65.99839532291666,
            "value": 0.7637795275590551
          },
          {
            "number": 11,
            "ticks": 8138,
            "time": 66.05521352083332,
            "value": 0.7952755905511811
          },
          {
            "number": 11,
            "ticks": 8144,
            "time": 66.10391483333332,
            "value": 0.8346456692913385
          },
          {
            "number": 11,
            "ticks": 8151,
            "time": 66.16073303124999,
            "value": 0.8661417322834646
          },
          {
            "number": 11,
            "ticks": 8157,
            "time": 66.20943434374999,
            "value": 0.889763779527559
          },
          {
            "number": 11,
            "ticks": 8164,
            "time": 66.26625254166666,
            "value": 0.9212598425196851
          },
          {
            "number": 11,
            "ticks": 8170,
            "time": 66.31495385416666,
            "value": 0.937007874015748
          },
          {
            "number": 11,
            "ticks": 8177,
            "time": 66.37177205208333,
            "value": 0.9606299212598425
          },
          {
            "number": 11,
            "ticks": 8183,
            "time": 66.42047336458333,
            "value": 0.968503937007874
          },
          {
            "number": 11,
            "ticks": 8190,
            "time": 66.4772915625,
            "value": 0.984251968503937
          },
          {
            "number": 11,
            "ticks": 8196,
            "time": 66.525992875,
            "value": 0.9921259842519685
          },
          {
            "number": 11,
            "ticks": 8208,
            "time": 66.6233955,
            "value": 1
          },
          {
            "number": 11,
            "ticks": 8280,
            "time": 67.20781124999999,
            "value": 0.7086614173228346
          },
          {
            "number": 11,
            "ticks": 8286,
            "time": 67.25651256249999,
            "value": 0.7322834645669292
          },
          {
            "number": 11,
            "ticks": 8293,
            "time": 67.31333076041666,
            "value": 0.7637795275590551
          },
          {
            "number": 11,
            "ticks": 8299,
            "time": 67.36203207291666,
            "value": 0.7952755905511811
          },
          {
            "number": 11,
            "ticks": 8306,
            "time": 67.41885027083332,
            "value": 0.8188976377952756
          },
          {
            "number": 11,
            "ticks": 8312,
            "time": 67.46755158333332,
            "value": 0.84251968503937
          },
          {
            "number": 11,
            "ticks": 8319,
            "time": 67.52436978125,
            "value": 0.8661417322834646
          },
          {
            "number": 11,
            "ticks": 8325,
            "time": 67.57307109374999,
            "value": 0.8818897637795275
          },
          {
            "number": 11,
            "ticks": 8332,
            "time": 67.62988929166667,
            "value": 0.905511811023622
          },
          {
            "number": 11,
            "ticks": 8338,
            "time": 67.67859060416667,
            "value": 0.9212598425196851
          },
          {
            "number": 11,
            "ticks": 8345,
            "time": 67.73540880208333,
            "value": 0.937007874015748
          },
          {
            "number": 11,
            "ticks": 8351,
            "time": 67.78411011458333,
            "value": 0.9448818897637795
          },
          {
            "number": 11,
            "ticks": 8358,
            "time": 67.8409283125,
            "value": 0.9606299212598425
          },
          {
            "number": 11,
            "ticks": 8364,
            "time": 67.889629625,
            "value": 0.968503937007874
          },
          {
            "number": 11,
            "ticks": 8371,
            "time": 67.94644782291667,
            "value": 0.9763779527559056
          },
          {
            "number": 11,
            "ticks": 8377,
            "time": 67.99514913541667,
            "value": 0.984251968503937
          },
          {
            "number": 11,
            "ticks": 8384,
            "time": 68.05196733333332,
            "value": 0.9921259842519685
          },
          {
            "number": 11,
            "ticks": 8400,
            "time": 68.1818375,
            "value": 1
          },
          {
            "number": 11,
            "ticks": 8592,
            "time": 69.7402795,
            "value": 0.8661417322834646
          },
          {
            "number": 11,
            "ticks": 8880,
            "time": 72.07794249999999,
            "value": 0.7086614173228346
          },
          {
            "number": 11,
            "ticks": 8886,
            "time": 72.12664381249999,
            "value": 0.7322834645669292
          },
          {
            "number": 11,
            "ticks": 8893,
            "time": 72.18346201041666,
            "value": 0.7637795275590551
          },
          {
            "number": 11,
            "ticks": 8899,
            "time": 72.23216332291666,
            "value": 0.7874015748031497
          },
          {
            "number": 11,
            "ticks": 8906,
            "time": 72.28898152083332,
            "value": 0.8110236220472441
          },
          {
            "number": 11,
            "ticks": 8912,
            "time": 72.33768283333332,
            "value": 0.8346456692913385
          },
          {
            "number": 11,
            "ticks": 8919,
            "time": 72.39450103124999,
            "value": 0.8582677165354331
          },
          {
            "number": 11,
            "ticks": 8925,
            "time": 72.44320234374999,
            "value": 0.8818897637795275
          },
          {
            "number": 11,
            "ticks": 8932,
            "time": 72.50002054166667,
            "value": 0.8976377952755905
          },
          {
            "number": 11,
            "ticks": 8938,
            "time": 72.54872185416666,
            "value": 0.9133858267716536
          },
          {
            "number": 11,
            "ticks": 8945,
            "time": 72.60554005208333,
            "value": 0.9291338582677166
          },
          {
            "number": 11,
            "ticks": 8951,
            "time": 72.65424136458333,
            "value": 0.9448818897637795
          },
          {
            "number": 11,
            "ticks": 8958,
            "time": 72.7110595625,
            "value": 0.952755905511811
          },
          {
            "number": 11,
            "ticks": 8964,
            "time": 72.759760875,
            "value": 0.9606299212598425
          },
          {
            "number": 11,
            "ticks": 8971,
            "time": 72.81657907291667,
            "value": 0.968503937007874
          },
          {
            "number": 11,
            "ticks": 8977,
            "time": 72.86528038541667,
            "value": 0.9763779527559056
          },
          {
            "number": 11,
            "ticks": 8984,
            "time": 72.92209858333332,
            "value": 0.984251968503937
          },
          {
            "number": 11,
            "ticks": 9000,
            "time": 73.05196875,
            "value": 0.9921259842519685
          },
          {
            "number": 11,
            "ticks": 9168,
            "time": 74.4156055,
            "value": 1
          },
          {
            "number": 11,
            "ticks": 9175,
            "time": 74.47242369791667,
            "value": 0.9921259842519685
          },
          {
            "number": 11,
            "ticks": 9183,
            "time": 74.53735878124999,
            "value": 0.984251968503937
          },
          {
            "number": 11,
            "ticks": 9191,
            "time": 74.60229386458333,
            "value": 0.9763779527559056
          },
          {
            "number": 11,
            "ticks": 9199,
            "time": 74.66722894791667,
            "value": 0.968503937007874
          },
          {
            "number": 11,
            "ticks": 9206,
            "time": 74.72404714583332,
            "value": 0.9606299212598425
          },
          {
            "number": 11,
            "ticks": 9214,
            "time": 74.78898222916666,
            "value": 0.952755905511811
          },
          {
            "number": 11,
            "ticks": 9222,
            "time": 74.85391731249999,
            "value": 0.9448818897637795
          },
          {
            "number": 11,
            "ticks": 9230,
            "time": 74.91885239583333,
            "value": 0.937007874015748
          },
          {
            "number": 11,
            "ticks": 9238,
            "time": 74.98378747916666,
            "value": 0.9291338582677166
          },
          {
            "number": 11,
            "ticks": 9245,
            "time": 75.04060567708332,
            "value": 0.9212598425196851
          },
          {
            "number": 11,
            "ticks": 9253,
            "time": 75.10554076041666,
            "value": 0.9133858267716536
          },
          {
            "number": 11,
            "ticks": 9261,
            "time": 75.17047584375,
            "value": 0.905511811023622
          },
          {
            "number": 11,
            "ticks": 9269,
            "time": 75.23541092708332,
            "value": 0.8976377952755905
          },
          {
            "number": 11,
            "ticks": 9276,
            "time": 75.29222912499999,
            "value": 0.889763779527559
          },
          {
            "number": 11,
            "ticks": 9284,
            "time": 75.35716420833333,
            "value": 0.8818897637795275
          },
          {
            "number": 11,
            "ticks": 9292,
            "time": 75.42209929166667,
            "value": 0.8740157480314961
          },
          {
            "number": 11,
            "ticks": 9300,
            "time": 75.487034375,
            "value": 0.8661417322834646
          },
          {
            "number": 11,
            "ticks": 9308,
            "time": 75.55196945833332,
            "value": 0.8582677165354331
          },
          {
            "number": 11,
            "ticks": 9315,
            "time": 75.60878765625,
            "value": 0.8503937007874016
          },
          {
            "number": 11,
            "ticks": 9323,
            "time": 75.67372273958333,
            "value": 0.84251968503937
          },
          {
            "number": 11,
            "ticks": 9331,
            "time": 75.73865782291666,
            "value": 0.8346456692913385
          },
          {
            "number": 11,
            "ticks": 9339,
            "time": 75.80359290624999,
            "value": 0.8267716535433071
          },
          {
            "number": 11,
            "ticks": 9347,
            "time": 75.86852798958333,
            "value": 0.8188976377952756
          },
          {
            "number": 11,
            "ticks": 9354,
            "time": 75.9253461875,
            "value": 0.8110236220472441
          },
          {
            "number": 11,
            "ticks": 9362,
            "time": 75.99028127083332,
            "value": 0.8031496062992126
          },
          {
            "number": 11,
            "ticks": 9370,
            "time": 76.05521635416666,
            "value": 0.7952755905511811
          },
          {
            "number": 11,
            "ticks": 9378,
            "time": 76.1201514375,
            "value": 0.7874015748031497
          },
          {
            "number": 11,
            "ticks": 9385,
            "time": 76.17696963541667,
            "value": 0.7795275590551181
          },
          {
            "number": 11,
            "ticks": 9393,
            "time": 76.24190471874999,
            "value": 0.7716535433070866
          },
          {
            "number": 11,
            "ticks": 9401,
            "time": 76.30683980208332,
            "value": 0.7637795275590551
          },
          {
            "number": 11,
            "ticks": 9409,
            "time": 76.37177488541667,
            "value": 0.7559055118110236
          },
          {
            "number": 11,
            "ticks": 9417,
            "time": 76.43670996875,
            "value": 0.7480314960629921
          },
          {
            "number": 11,
            "ticks": 9424,
            "time": 76.49352816666666,
            "value": 0.7401574803149606
          },
          {
            "number": 11,
            "ticks": 9432,
            "time": 76.55846324999999,
            "value": 0.7322834645669292
          },
          {
            "number": 11,
            "ticks": 9440,
            "time": 76.62339833333333,
            "value": 0.7244094488188977
          },
          {
            "number": 11,
            "ticks": 9448,
            "time": 76.68833341666667,
            "value": 0.7165354330708661
          },
          {
            "number": 11,
            "ticks": 9455,
            "time": 76.74515161458332,
            "value": 0.7086614173228346
          },
          {
            "number": 11,
            "ticks": 9456,
            "time": 76.75326849999999,
            "value": 0.7086614173228346
          },
          {
            "number": 11,
            "ticks": 9462,
            "time": 76.80196981249999,
            "value": 0.7007874015748031
          },
          {
            "number": 11,
            "ticks": 9482,
            "time": 76.96430752083333,
            "value": 0.6929133858267716
          },
          {
            "number": 11,
            "ticks": 9488,
            "time": 77.01300883333333,
            "value": 0.6850393700787402
          },
          {
            "number": 11,
            "ticks": 9495,
            "time": 77.06982703125,
            "value": 0.6771653543307087
          },
          {
            "number": 11,
            "ticks": 9501,
            "time": 77.11852834375,
            "value": 0.6614173228346457
          },
          {
            "number": 11,
            "ticks": 9508,
            "time": 77.17534654166667,
            "value": 0.6535433070866141
          },
          {
            "number": 11,
            "ticks": 9514,
            "time": 77.22404785416667,
            "value": 0.6377952755905512
          },
          {
            "number": 11,
            "ticks": 9521,
            "time": 77.28086605208333,
            "value": 0.6220472440944882
          },
          {
            "number": 11,
            "ticks": 9527,
            "time": 77.32956736458333,
            "value": 0.6062992125984252
          },
          {
            "number": 11,
            "ticks": 9534,
            "time": 77.3863855625,
            "value": 0.5905511811023622
          },
          {
            "number": 11,
            "ticks": 9540,
            "time": 77.435086875,
            "value": 0.5669291338582677
          },
          {
            "number": 11,
            "ticks": 9547,
            "time": 77.49190507291667,
            "value": 0.5433070866141733
          },
          {
            "number": 11,
            "ticks": 9553,
            "time": 77.54060638541667,
            "value": 0.5196850393700787
          },
          {
            "number": 11,
            "ticks": 9560,
            "time": 77.59742458333332,
            "value": 0.49606299212598426
          },
          {
            "number": 11,
            "ticks": 9566,
            "time": 77.64612589583332,
            "value": 0.47244094488188976
          },
          {
            "number": 11,
            "ticks": 9573,
            "time": 77.70294409374999,
            "value": 0.4409448818897638
          },
          {
            "number": 11,
            "ticks": 9579,
            "time": 77.75164540624999,
            "value": 0.4094488188976378
          },
          {
            "number": 11,
            "ticks": 9586,
            "time": 77.80846360416666,
            "value": 0.3779527559055118
          },
          {
            "number": 11,
            "ticks": 9592,
            "time": 77.85716491666666,
            "value": 0.3464566929133858
          },
          {
            "number": 11,
            "ticks": 9599,
            "time": 77.91398311458332,
            "value": 0.30708661417322836
          },
          {
            "number": 11,
            "ticks": 9605,
            "time": 77.96268442708332,
            "value": 0.2755905511811024
          },
          {
            "number": 11,
            "ticks": 9612,
            "time": 78.019502625,
            "value": 0.23622047244094488
          },
          {
            "number": 11,
            "ticks": 9618,
            "time": 78.06820393749999,
            "value": 0.1968503937007874
          },
          {
            "number": 11,
            "ticks": 9625,
            "time": 78.12502213541667,
            "value": 0.15748031496062992
          },
          {
            "number": 11,
            "ticks": 9631,
            "time": 78.17372344791666,
            "value": 0.11023622047244094
          },
          {
            "number": 11,
            "ticks": 9638,
            "time": 78.23054164583333,
            "value": 0.06299212598425197
          },
          {
            "number": 11,
            "ticks": 9644,
            "time": 78.27924295833333,
            "value": 0.023622047244094488
          },
          {
            "number": 11,
            "ticks": 9648,
            "time": 78.31171049999999,
            "value": 0
          },
          {
            "number": 11,
            "ticks": 9696,
            "time": 78.701321,
            "value": 0.8661417322834646
          },
          {
            "number": 11,
            "ticks": 15216,
            "time": 123.50652849999999,
            "value": 0.7086614173228346
          },
          {
            "number": 11,
            "ticks": 15222,
            "time": 123.55522981249999,
            "value": 0.7322834645669292
          },
          {
            "number": 11,
            "ticks": 15229,
            "time": 123.61204801041664,
            "value": 0.7559055118110236
          },
          {
            "number": 11,
            "ticks": 15235,
            "time": 123.66074932291664,
            "value": 0.7795275590551181
          },
          {
            "number": 11,
            "ticks": 15242,
            "time": 123.71756752083333,
            "value": 0.8031496062992126
          },
          {
            "number": 11,
            "ticks": 15248,
            "time": 123.76626883333333,
            "value": 0.8188976377952756
          },
          {
            "number": 11,
            "ticks": 15255,
            "time": 123.82308703125,
            "value": 0.84251968503937
          },
          {
            "number": 11,
            "ticks": 15261,
            "time": 123.87178834374998,
            "value": 0.8582677165354331
          },
          {
            "number": 11,
            "ticks": 15268,
            "time": 123.92860654166665,
            "value": 0.8740157480314961
          },
          {
            "number": 11,
            "ticks": 15274,
            "time": 123.97730785416665,
            "value": 0.889763779527559
          },
          {
            "number": 11,
            "ticks": 15281,
            "time": 124.03412605208334,
            "value": 0.905511811023622
          },
          {
            "number": 11,
            "ticks": 15287,
            "time": 124.08282736458334,
            "value": 0.9212598425196851
          },
          {
            "number": 11,
            "ticks": 15294,
            "time": 124.1396455625,
            "value": 0.937007874015748
          },
          {
            "number": 11,
            "ticks": 15300,
            "time": 124.188346875,
            "value": 0.9448818897637795
          },
          {
            "number": 11,
            "ticks": 15307,
            "time": 124.24516507291665,
            "value": 0.952755905511811
          },
          {
            "number": 11,
            "ticks": 15313,
            "time": 124.29386638541665,
            "value": 0.968503937007874
          },
          {
            "number": 11,
            "ticks": 15320,
            "time": 124.35068458333333,
            "value": 0.9763779527559056
          },
          {
            "number": 11,
            "ticks": 15333,
            "time": 124.45620409374999,
            "value": 0.984251968503937
          },
          {
            "number": 11,
            "ticks": 15339,
            "time": 124.50490540624999,
            "value": 0.9921259842519685
          },
          {
            "number": 11,
            "ticks": 15360,
            "time": 124.67535999999998,
            "value": 1
          },
          {
            "number": 11,
            "ticks": 15456,
            "time": 125.45458099999999,
            "value": 0.8661417322834646
          },
          {
            "number": 11,
            "ticks": 15600,
            "time": 126.62341249999999,
            "value": 0.6299212598425197
          },
          {
            "number": 11,
            "ticks": 15606,
            "time": 126.67211381249999,
            "value": 0.6692913385826772
          },
          {
            "number": 11,
            "ticks": 15613,
            "time": 126.72893201041666,
            "value": 0.7086614173228346
          },
          {
            "number": 11,
            "ticks": 15619,
            "time": 126.77763332291666,
            "value": 0.7480314960629921
          },
          {
            "number": 11,
            "ticks": 15626,
            "time": 126.83445152083333,
            "value": 0.7795275590551181
          },
          {
            "number": 11,
            "ticks": 15632,
            "time": 126.88315283333333,
            "value": 0.8110236220472441
          },
          {
            "number": 11,
            "ticks": 15639,
            "time": 126.93997103125,
            "value": 0.84251968503937
          },
          {
            "number": 11,
            "ticks": 15645,
            "time": 126.98867234375,
            "value": 0.8661417322834646
          },
          {
            "number": 11,
            "ticks": 15652,
            "time": 127.04549054166665,
            "value": 0.889763779527559
          },
          {
            "number": 11,
            "ticks": 15658,
            "time": 127.09419185416665,
            "value": 0.905511811023622
          },
          {
            "number": 11,
            "ticks": 15665,
            "time": 127.15101005208334,
            "value": 0.9212598425196851
          },
          {
            "number": 11,
            "ticks": 15671,
            "time": 127.19971136458334,
            "value": 0.937007874015748
          },
          {
            "number": 11,
            "ticks": 15678,
            "time": 127.25652956249999,
            "value": 0.9448818897637795
          },
          {
            "number": 11,
            "ticks": 15684,
            "time": 127.30523087499999,
            "value": 0.952755905511811
          },
          {
            "number": 11,
            "ticks": 15696,
            "time": 127.4026335,
            "value": 0.9606299212598425
          },
          {
            "number": 11,
            "ticks": 15744,
            "time": 127.792244,
            "value": 0.8503937007874016
          },
          {
            "number": 11,
            "ticks": 15768,
            "time": 127.98704924999998,
            "value": 0.7086614173228346
          },
          {
            "number": 11,
            "ticks": 15774,
            "time": 128.0357505625,
            "value": 0.7322834645669292
          },
          {
            "number": 11,
            "ticks": 15781,
            "time": 128.09256876041664,
            "value": 0.7637795275590551
          },
          {
            "number": 11,
            "ticks": 15787,
            "time": 128.14127007291665,
            "value": 0.7952755905511811
          },
          {
            "number": 11,
            "ticks": 15794,
            "time": 128.19808827083332,
            "value": 0.8188976377952756
          },
          {
            "number": 11,
            "ticks": 15800,
            "time": 128.24678958333334,
            "value": 0.84251968503937
          },
          {
            "number": 11,
            "ticks": 15807,
            "time": 128.30360778124998,
            "value": 0.8661417322834646
          },
          {
            "number": 11,
            "ticks": 15813,
            "time": 128.35230909375,
            "value": 0.8818897637795275
          },
          {
            "number": 11,
            "ticks": 15820,
            "time": 128.40912729166664,
            "value": 0.905511811023622
          },
          {
            "number": 11,
            "ticks": 15826,
            "time": 128.45782860416665,
            "value": 0.9212598425196851
          },
          {
            "number": 11,
            "ticks": 15833,
            "time": 128.51464680208332,
            "value": 0.937007874015748
          },
          {
            "number": 11,
            "ticks": 15839,
            "time": 128.56334811458333,
            "value": 0.9448818897637795
          },
          {
            "number": 11,
            "ticks": 15846,
            "time": 128.6201663125,
            "value": 0.9606299212598425
          },
          {
            "number": 11,
            "ticks": 15852,
            "time": 128.668867625,
            "value": 0.968503937007874
          },
          {
            "number": 11,
            "ticks": 15859,
            "time": 128.72568582291666,
            "value": 0.9763779527559056
          },
          {
            "number": 11,
            "ticks": 15865,
            "time": 128.77438713541665,
            "value": 0.984251968503937
          },
          {
            "number": 11,
            "ticks": 15872,
            "time": 128.83120533333334,
            "value": 0.9921259842519685
          },
          {
            "number": 11,
            "ticks": 15888,
            "time": 128.9610755,
            "value": 1
          },
          {
            "number": 11,
            "ticks": 15936,
            "time": 129.350686,
            "value": 0.8661417322834646
          },
          {
            "number": 11,
            "ticks": 16176,
            "time": 131.29873849999998,
            "value": 0.7086614173228346
          },
          {
            "number": 11,
            "ticks": 16182,
            "time": 131.3474398125,
            "value": 0.7401574803149606
          },
          {
            "number": 11,
            "ticks": 16189,
            "time": 131.40425801041664,
            "value": 0.7795275590551181
          },
          {
            "number": 11,
            "ticks": 16195,
            "time": 131.45295932291666,
            "value": 0.8110236220472441
          },
          {
            "number": 11,
            "ticks": 16202,
            "time": 131.50977752083332,
            "value": 0.84251968503937
          },
          {
            "number": 11,
            "ticks": 16208,
            "time": 131.55847883333334,
            "value": 0.8661417322834646
          },
          {
            "number": 11,
            "ticks": 16215,
            "time": 131.61529703124998,
            "value": 0.889763779527559
          },
          {
            "number": 11,
            "ticks": 16221,
            "time": 131.66399834375,
            "value": 0.9133858267716536
          },
          {
            "number": 11,
            "ticks": 16228,
            "time": 131.72081654166664,
            "value": 0.937007874015748
          },
          {
            "number": 11,
            "ticks": 16234,
            "time": 131.76951785416665,
            "value": 0.952755905511811
          },
          {
            "number": 11,
            "ticks": 16241,
            "time": 131.82633605208332,
            "value": 0.968503937007874
          },
          {
            "number": 11,
            "ticks": 16247,
            "time": 131.87503736458333,
            "value": 0.9763779527559056
          },
          {
            "number": 11,
            "ticks": 16254,
            "time": 131.93185556249998,
            "value": 0.984251968503937
          },
          {
            "number": 11,
            "ticks": 16260,
            "time": 131.980556875,
            "value": 0.9921259842519685
          },
          {
            "number": 11,
            "ticks": 16272,
            "time": 132.0779595,
            "value": 1
          },
          {
            "number": 11,
            "ticks": 16320,
            "time": 132.46757,
            "value": 0.8661417322834646
          },
          {
            "number": 11,
            "ticks": 16368,
            "time": 132.8571805,
            "value": 0.7086614173228346
          },
          {
            "number": 11,
            "ticks": 16374,
            "time": 132.90588181249998,
            "value": 0.7401574803149606
          },
          {
            "number": 11,
            "ticks": 16381,
            "time": 132.96270001041665,
            "value": 0.7795275590551181
          },
          {
            "number": 11,
            "ticks": 16387,
            "time": 133.01140132291664,
            "value": 0.8110236220472441
          },
          {
            "number": 11,
            "ticks": 16394,
            "time": 133.06821952083334,
            "value": 0.84251968503937
          },
          {
            "number": 11,
            "ticks": 16400,
            "time": 133.11692083333332,
            "value": 0.8661417322834646
          },
          {
            "number": 11,
            "ticks": 16407,
            "time": 133.17373903125,
            "value": 0.889763779527559
          },
          {
            "number": 11,
            "ticks": 16413,
            "time": 133.22244034374998,
            "value": 0.9133858267716536
          },
          {
            "number": 11,
            "ticks": 16420,
            "time": 133.27925854166665,
            "value": 0.937007874015748
          },
          {
            "number": 11,
            "ticks": 16426,
            "time": 133.32795985416664,
            "value": 0.952755905511811
          },
          {
            "number": 11,
            "ticks": 16433,
            "time": 133.38477805208333,
            "value": 0.968503937007874
          },
          {
            "number": 11,
            "ticks": 16439,
            "time": 133.43347936458332,
            "value": 0.9763779527559056
          },
          {
            "number": 11,
            "ticks": 16446,
            "time": 133.4902975625,
            "value": 0.984251968503937
          },
          {
            "number": 11,
            "ticks": 16452,
            "time": 133.53899887499998,
            "value": 0.9921259842519685
          },
          {
            "number": 11,
            "ticks": 16464,
            "time": 133.63640149999998,
            "value": 1
          },
          {
            "number": 11,
            "ticks": 16512,
            "time": 134.02601199999998,
            "value": 0.8661417322834646
          },
          {
            "number": 11,
            "ticks": 16536,
            "time": 134.22081724999998,
            "value": 0.3937007874015748
          },
          {
            "number": 11,
            "ticks": 16542,
            "time": 134.2695185625,
            "value": 0.47244094488188976
          },
          {
            "number": 11,
            "ticks": 16549,
            "time": 134.32633676041664,
            "value": 0.5433070866141733
          },
          {
            "number": 11,
            "ticks": 16555,
            "time": 134.37503807291665,
            "value": 0.6141732283464567
          },
          {
            "number": 11,
            "ticks": 16562,
            "time": 134.43185627083332,
            "value": 0.6692913385826772
          },
          {
            "number": 11,
            "ticks": 16568,
            "time": 134.48055758333334,
            "value": 0.7322834645669292
          },
          {
            "number": 11,
            "ticks": 16575,
            "time": 134.53737578124998,
            "value": 0.7795275590551181
          },
          {
            "number": 11,
            "ticks": 16581,
            "time": 134.58607709375,
            "value": 0.8267716535433071
          },
          {
            "number": 11,
            "ticks": 16588,
            "time": 134.64289529166666,
            "value": 0.8661417322834646
          },
          {
            "number": 11,
            "ticks": 16594,
            "time": 134.69159660416665,
            "value": 0.905511811023622
          },
          {
            "number": 11,
            "ticks": 16601,
            "time": 134.74841480208332,
            "value": 0.9291338582677166
          },
          {
            "number": 11,
            "ticks": 16607,
            "time": 134.79711611458333,
            "value": 0.952755905511811
          },
          {
            "number": 11,
            "ticks": 16614,
            "time": 134.8539343125,
            "value": 0.9763779527559056
          },
          {
            "number": 11,
            "ticks": 16620,
            "time": 134.902635625,
            "value": 0.984251968503937
          },
          {
            "number": 11,
            "ticks": 16627,
            "time": 134.95945382291666,
            "value": 0.9921259842519685
          },
          {
            "number": 11,
            "ticks": 16632,
            "time": 135.00003825,
            "value": 1
          },
          {
            "number": 11,
            "ticks": 16680,
            "time": 135.38964875,
            "value": 0.8661417322834646
          },
          {
            "number": 11,
            "ticks": 16752,
            "time": 135.9740645,
            "value": 0.7086614173228346
          },
          {
            "number": 11,
            "ticks": 16758,
            "time": 136.02276581249998,
            "value": 0.7322834645669292
          },
          {
            "number": 11,
            "ticks": 16765,
            "time": 136.07958401041665,
            "value": 0.7559055118110236
          },
          {
            "number": 11,
            "ticks": 16771,
            "time": 136.12828532291664,
            "value": 0.7795275590551181
          },
          {
            "number": 11,
            "ticks": 16778,
            "time": 136.18510352083334,
            "value": 0.8031496062992126
          },
          {
            "number": 11,
            "ticks": 16784,
            "time": 136.23380483333332,
            "value": 0.8188976377952756
          },
          {
            "number": 11,
            "ticks": 16791,
            "time": 136.29062303125,
            "value": 0.84251968503937
          },
          {
            "number": 11,
            "ticks": 16797,
            "time": 136.33932434374998,
            "value": 0.8582677165354331
          },
          {
            "number": 11,
            "ticks": 16804,
            "time": 136.39614254166665,
            "value": 0.8740157480314961
          },
          {
            "number": 11,
            "ticks": 16810,
            "time": 136.44484385416663,
            "value": 0.889763779527559
          },
          {
            "number": 11,
            "ticks": 16817,
            "time": 136.50166205208333,
            "value": 0.905511811023622
          },
          {
            "number": 11,
            "ticks": 16823,
            "time": 136.55036336458332,
            "value": 0.9212598425196851
          },
          {
            "number": 11,
            "ticks": 16830,
            "time": 136.6071815625,
            "value": 0.937007874015748
          },
          {
            "number": 11,
            "ticks": 16836,
            "time": 136.655882875,
            "value": 0.9448818897637795
          },
          {
            "number": 11,
            "ticks": 16843,
            "time": 136.71270107291664,
            "value": 0.952755905511811
          },
          {
            "number": 11,
            "ticks": 16849,
            "time": 136.76140238541666,
            "value": 0.968503937007874
          },
          {
            "number": 11,
            "ticks": 16856,
            "time": 136.81822058333333,
            "value": 0.9763779527559056
          },
          {
            "number": 11,
            "ticks": 16869,
            "time": 136.92374009374998,
            "value": 0.984251968503937
          },
          {
            "number": 11,
            "ticks": 16875,
            "time": 136.97244140625,
            "value": 0.9921259842519685
          },
          {
            "number": 11,
            "ticks": 16896,
            "time": 137.14289599999998,
            "value": 1
          },
          {
            "number": 11,
            "ticks": 16992,
            "time": 137.922117,
            "value": 0.8661417322834646
          },
          {
            "number": 11,
            "ticks": 17328,
            "time": 140.64939049999998,
            "value": 0.7086614173228346
          },
          {
            "number": 11,
            "ticks": 17334,
            "time": 140.6980918125,
            "value": 0.7559055118110236
          },
          {
            "number": 11,
            "ticks": 17341,
            "time": 140.75491001041664,
            "value": 0.8031496062992126
          },
          {
            "number": 11,
            "ticks": 17347,
            "time": 140.80361132291665,
            "value": 0.84251968503937
          },
          {
            "number": 11,
            "ticks": 17354,
            "time": 140.86042952083332,
            "value": 0.8740157480314961
          },
          {
            "number": 11,
            "ticks": 17360,
            "time": 140.90913083333334,
            "value": 0.905511811023622
          },
          {
            "number": 11,
            "ticks": 17367,
            "time": 140.96594903124998,
            "value": 0.937007874015748
          },
          {
            "number": 11,
            "ticks": 17373,
            "time": 141.01465034375,
            "value": 0.952755905511811
          },
          {
            "number": 11,
            "ticks": 17380,
            "time": 141.07146854166666,
            "value": 0.9763779527559056
          },
          {
            "number": 11,
            "ticks": 17386,
            "time": 141.12016985416665,
            "value": 0.984251968503937
          },
          {
            "number": 11,
            "ticks": 17393,
            "time": 141.17698805208332,
            "value": 0.9921259842519685
          },
          {
            "number": 11,
            "ticks": 17400,
            "time": 141.23380625,
            "value": 1
          },
          {
            "number": 11,
            "ticks": 17424,
            "time": 141.4286115,
            "value": 0.5826771653543307
          },
          {
            "number": 11,
            "ticks": 17430,
            "time": 141.4773128125,
            "value": 0.6299212598425197
          },
          {
            "number": 11,
            "ticks": 17437,
            "time": 141.53413101041664,
            "value": 0.6692913385826772
          },
          {
            "number": 11,
            "ticks": 17443,
            "time": 141.58283232291666,
            "value": 0.7086614173228346
          },
          {
            "number": 11,
            "ticks": 17450,
            "time": 141.63965052083333,
            "value": 0.7480314960629921
          },
          {
            "number": 11,
            "ticks": 17456,
            "time": 141.68835183333334,
            "value": 0.7795275590551181
          },
          {
            "number": 11,
            "ticks": 17463,
            "time": 141.74517003124998,
            "value": 0.8110236220472441
          },
          {
            "number": 11,
            "ticks": 17469,
            "time": 141.79387134375,
            "value": 0.84251968503937
          },
          {
            "number": 11,
            "ticks": 17476,
            "time": 141.85068954166664,
            "value": 0.8661417322834646
          },
          {
            "number": 11,
            "ticks": 17482,
            "time": 141.89939085416665,
            "value": 0.8818897637795275
          },
          {
            "number": 11,
            "ticks": 17489,
            "time": 141.95620905208332,
            "value": 0.905511811023622
          },
          {
            "number": 11,
            "ticks": 17495,
            "time": 142.00491036458334,
            "value": 0.9212598425196851
          },
          {
            "number": 11,
            "ticks": 17502,
            "time": 142.06172856249998,
            "value": 0.9291338582677166
          },
          {
            "number": 11,
            "ticks": 17508,
            "time": 142.110429875,
            "value": 0.937007874015748
          },
          {
            "number": 11,
            "ticks": 17520,
            "time": 142.2078325,
            "value": 0.6299212598425197
          },
          {
            "number": 11,
            "ticks": 17526,
            "time": 142.25653381249998,
            "value": 0.6771653543307087
          },
          {
            "number": 11,
            "ticks": 17533,
            "time": 142.31335201041665,
            "value": 0.7165354330708661
          },
          {
            "number": 11,
            "ticks": 17539,
            "time": 142.36205332291664,
            "value": 0.7637795275590551
          },
          {
            "number": 11,
            "ticks": 17546,
            "time": 142.41887152083333,
            "value": 0.7952755905511811
          },
          {
            "number": 11,
            "ticks": 17552,
            "time": 142.46757283333332,
            "value": 0.8346456692913385
          },
          {
            "number": 11,
            "ticks": 17559,
            "time": 142.52439103125,
            "value": 0.8661417322834646
          },
          {
            "number": 11,
            "ticks": 17565,
            "time": 142.57309234374998,
            "value": 0.889763779527559
          },
          {
            "number": 11,
            "ticks": 17572,
            "time": 142.62991054166665,
            "value": 0.9212598425196851
          },
          {
            "number": 11,
            "ticks": 17578,
            "time": 142.67861185416666,
            "value": 0.937007874015748
          },
          {
            "number": 11,
            "ticks": 17585,
            "time": 142.73543005208333,
            "value": 0.9606299212598425
          },
          {
            "number": 11,
            "ticks": 17591,
            "time": 142.78413136458332,
            "value": 0.968503937007874
          },
          {
            "number": 11,
            "ticks": 17598,
            "time": 142.8409495625,
            "value": 0.984251968503937
          },
          {
            "number": 11,
            "ticks": 17604,
            "time": 142.889650875,
            "value": 0.9921259842519685
          },
          {
            "number": 11,
            "ticks": 17616,
            "time": 142.9870535,
            "value": 1
          },
          {
            "number": 11,
            "ticks": 17688,
            "time": 143.57146924999998,
            "value": 0.7086614173228346
          },
          {
            "number": 11,
            "ticks": 17694,
            "time": 143.6201705625,
            "value": 0.7322834645669292
          },
          {
            "number": 11,
            "ticks": 17701,
            "time": 143.67698876041666,
            "value": 0.7637795275590551
          },
          {
            "number": 11,
            "ticks": 17707,
            "time": 143.72569007291665,
            "value": 0.7952755905511811
          },
          {
            "number": 11,
            "ticks": 17714,
            "time": 143.78250827083332,
            "value": 0.8188976377952756
          },
          {
            "number": 11,
            "ticks": 17720,
            "time": 143.83120958333333,
            "value": 0.84251968503937
          },
          {
            "number": 11,
            "ticks": 17727,
            "time": 143.88802778125,
            "value": 0.8661417322834646
          },
          {
            "number": 11,
            "ticks": 17733,
            "time": 143.93672909375,
            "value": 0.8818897637795275
          },
          {
            "number": 11,
            "ticks": 17740,
            "time": 143.99354729166666,
            "value": 0.905511811023622
          },
          {
            "number": 11,
            "ticks": 17746,
            "time": 144.04224860416664,
            "value": 0.9212598425196851
          },
          {
            "number": 11,
            "ticks": 17753,
            "time": 144.09906680208334,
            "value": 0.937007874015748
          },
          {
            "number": 11,
            "ticks": 17759,
            "time": 144.14776811458333,
            "value": 0.9448818897637795
          },
          {
            "number": 11,
            "ticks": 17766,
            "time": 144.2045863125,
            "value": 0.9606299212598425
          },
          {
            "number": 11,
            "ticks": 17772,
            "time": 144.25328762499998,
            "value": 0.968503937007874
          },
          {
            "number": 11,
            "ticks": 17779,
            "time": 144.31010582291665,
            "value": 0.9763779527559056
          },
          {
            "number": 11,
            "ticks": 17785,
            "time": 144.35880713541664,
            "value": 0.984251968503937
          },
          {
            "number": 11,
            "ticks": 17792,
            "time": 144.41562533333334,
            "value": 0.9921259842519685
          },
          {
            "number": 11,
            "ticks": 17808,
            "time": 144.5454955,
            "value": 1
          },
          {
            "number": 11,
            "ticks": 18000,
            "time": 146.1039375,
            "value": 0.8661417322834646
          },
          {
            "number": 11,
            "ticks": 18288,
            "time": 148.4416005,
            "value": 0.7086614173228346
          },
          {
            "number": 11,
            "ticks": 18294,
            "time": 148.49030181249998,
            "value": 0.7322834645669292
          },
          {
            "number": 11,
            "ticks": 18301,
            "time": 148.54712001041665,
            "value": 0.7637795275590551
          },
          {
            "number": 11,
            "ticks": 18307,
            "time": 148.59582132291663,
            "value": 0.7874015748031497
          },
          {
            "number": 11,
            "ticks": 18314,
            "time": 148.65263952083333,
            "value": 0.8110236220472441
          },
          {
            "number": 11,
            "ticks": 18320,
            "time": 148.70134083333332,
            "value": 0.8346456692913385
          },
          {
            "number": 11,
            "ticks": 18327,
            "time": 148.75815903125,
            "value": 0.8582677165354331
          },
          {
            "number": 11,
            "ticks": 18333,
            "time": 148.80686034374997,
            "value": 0.8818897637795275
          },
          {
            "number": 11,
            "ticks": 18340,
            "time": 148.86367854166664,
            "value": 0.8976377952755905
          },
          {
            "number": 11,
            "ticks": 18346,
            "time": 148.91237985416666,
            "value": 0.9133858267716536
          },
          {
            "number": 11,
            "ticks": 18353,
            "time": 148.96919805208333,
            "value": 0.9291338582677166
          },
          {
            "number": 11,
            "ticks": 18359,
            "time": 149.01789936458334,
            "value": 0.9448818897637795
          },
          {
            "number": 11,
            "ticks": 18366,
            "time": 149.07471756249998,
            "value": 0.952755905511811
          },
          {
            "number": 11,
            "ticks": 18372,
            "time": 149.123418875,
            "value": 0.9606299212598425
          },
          {
            "number": 11,
            "ticks": 18379,
            "time": 149.18023707291664,
            "value": 0.968503937007874
          },
          {
            "number": 11,
            "ticks": 18385,
            "time": 149.22893838541665,
            "value": 0.9763779527559056
          },
          {
            "number": 11,
            "ticks": 18392,
            "time": 149.28575658333332,
            "value": 0.984251968503937
          },
          {
            "number": 11,
            "ticks": 18408,
            "time": 149.41562675,
            "value": 0.9921259842519685
          },
          {
            "number": 11,
            "ticks": 18576,
            "time": 150.77926349999998,
            "value": 1
          },
          {
            "number": 11,
            "ticks": 18583,
            "time": 150.83608169791665,
            "value": 0.9921259842519685
          },
          {
            "number": 11,
            "ticks": 18591,
            "time": 150.90101678124998,
            "value": 0.984251968503937
          },
          {
            "number": 11,
            "ticks": 18599,
            "time": 150.96595186458333,
            "value": 0.9763779527559056
          },
          {
            "number": 11,
            "ticks": 18607,
            "time": 151.03088694791666,
            "value": 0.968503937007874
          },
          {
            "number": 11,
            "ticks": 18614,
            "time": 151.08770514583333,
            "value": 0.9606299212598425
          },
          {
            "number": 11,
            "ticks": 18622,
            "time": 151.15264022916665,
            "value": 0.952755905511811
          },
          {
            "number": 11,
            "ticks": 18630,
            "time": 151.2175753125,
            "value": 0.9448818897637795
          },
          {
            "number": 11,
            "ticks": 18638,
            "time": 151.28251039583333,
            "value": 0.937007874015748
          },
          {
            "number": 11,
            "ticks": 18646,
            "time": 151.34744547916665,
            "value": 0.9291338582677166
          },
          {
            "number": 11,
            "ticks": 18653,
            "time": 151.40426367708332,
            "value": 0.9212598425196851
          },
          {
            "number": 11,
            "ticks": 18661,
            "time": 151.46919876041665,
            "value": 0.9133858267716536
          },
          {
            "number": 11,
            "ticks": 18669,
            "time": 151.53413384375,
            "value": 0.905511811023622
          },
          {
            "number": 11,
            "ticks": 18677,
            "time": 151.59906892708332,
            "value": 0.8976377952755905
          },
          {
            "number": 11,
            "ticks": 18684,
            "time": 151.655887125,
            "value": 0.889763779527559
          },
          {
            "number": 11,
            "ticks": 18692,
            "time": 151.72082220833332,
            "value": 0.8818897637795275
          },
          {
            "number": 11,
            "ticks": 18700,
            "time": 151.78575729166664,
            "value": 0.8740157480314961
          },
          {
            "number": 11,
            "ticks": 18708,
            "time": 151.850692375,
            "value": 0.8661417322834646
          },
          {
            "number": 11,
            "ticks": 18716,
            "time": 151.91562745833332,
            "value": 0.8582677165354331
          },
          {
            "number": 11,
            "ticks": 18723,
            "time": 151.97244565625,
            "value": 0.8503937007874016
          },
          {
            "number": 11,
            "ticks": 18731,
            "time": 152.03738073958334,
            "value": 0.84251968503937
          },
          {
            "number": 11,
            "ticks": 18739,
            "time": 152.10231582291664,
            "value": 0.8346456692913385
          },
          {
            "number": 11,
            "ticks": 18747,
            "time": 152.16725090625,
            "value": 0.8267716535433071
          },
          {
            "number": 11,
            "ticks": 18755,
            "time": 152.23218598958334,
            "value": 0.8188976377952756
          },
          {
            "number": 11,
            "ticks": 18762,
            "time": 152.28900418749998,
            "value": 0.8110236220472441
          },
          {
            "number": 11,
            "ticks": 18770,
            "time": 152.35393927083334,
            "value": 0.8031496062992126
          },
          {
            "number": 11,
            "ticks": 18778,
            "time": 152.41887435416666,
            "value": 0.7952755905511811
          },
          {
            "number": 11,
            "ticks": 18786,
            "time": 152.48380943749999,
            "value": 0.7874015748031497
          },
          {
            "number": 11,
            "ticks": 18793,
            "time": 152.54062763541666,
            "value": 0.7795275590551181
          },
          {
            "number": 11,
            "ticks": 18801,
            "time": 152.60556271874998,
            "value": 0.7716535433070866
          },
          {
            "number": 11,
            "ticks": 18809,
            "time": 152.67049780208333,
            "value": 0.7637795275590551
          },
          {
            "number": 11,
            "ticks": 18817,
            "time": 152.73543288541666,
            "value": 0.7559055118110236
          },
          {
            "number": 11,
            "ticks": 18825,
            "time": 152.80036796874998,
            "value": 0.7480314960629921
          },
          {
            "number": 11,
            "ticks": 18832,
            "time": 152.85718616666665,
            "value": 0.7401574803149606
          },
          {
            "number": 11,
            "ticks": 18840,
            "time": 152.92212124999998,
            "value": 0.7322834645669292
          },
          {
            "number": 11,
            "ticks": 18848,
            "time": 152.98705633333333,
            "value": 0.7244094488188977
          },
          {
            "number": 11,
            "ticks": 18856,
            "time": 153.05199141666665,
            "value": 0.7165354330708661
          },
          {
            "number": 11,
            "ticks": 18863,
            "time": 153.10880961458332,
            "value": 0.7086614173228346
          },
          {
            "number": 11,
            "ticks": 18864,
            "time": 153.11692649999998,
            "value": 0.7086614173228346
          },
          {
            "number": 11,
            "ticks": 18870,
            "time": 153.1656278125,
            "value": 0.7007874015748031
          },
          {
            "number": 11,
            "ticks": 18890,
            "time": 153.32796552083332,
            "value": 0.6929133858267716
          },
          {
            "number": 11,
            "ticks": 18896,
            "time": 153.37666683333333,
            "value": 0.6850393700787402
          },
          {
            "number": 11,
            "ticks": 18903,
            "time": 153.43348503125,
            "value": 0.6771653543307087
          },
          {
            "number": 11,
            "ticks": 18909,
            "time": 153.48218634375,
            "value": 0.6614173228346457
          },
          {
            "number": 11,
            "ticks": 18916,
            "time": 153.53900454166666,
            "value": 0.6535433070866141
          },
          {
            "number": 11,
            "ticks": 18922,
            "time": 153.58770585416664,
            "value": 0.6377952755905512
          },
          {
            "number": 11,
            "ticks": 18929,
            "time": 153.64452405208334,
            "value": 0.6220472440944882
          },
          {
            "number": 11,
            "ticks": 18935,
            "time": 153.69322536458333,
            "value": 0.6062992125984252
          },
          {
            "number": 11,
            "ticks": 18942,
            "time": 153.7500435625,
            "value": 0.5905511811023622
          },
          {
            "number": 11,
            "ticks": 18948,
            "time": 153.79874487499998,
            "value": 0.5669291338582677
          },
          {
            "number": 11,
            "ticks": 18955,
            "time": 153.85556307291665,
            "value": 0.5433070866141733
          },
          {
            "number": 11,
            "ticks": 18961,
            "time": 153.90426438541664,
            "value": 0.5196850393700787
          },
          {
            "number": 11,
            "ticks": 18968,
            "time": 153.96108258333334,
            "value": 0.49606299212598426
          },
          {
            "number": 11,
            "ticks": 18974,
            "time": 154.00978389583332,
            "value": 0.47244094488188976
          },
          {
            "number": 11,
            "ticks": 18981,
            "time": 154.06660209375,
            "value": 0.4409448818897638
          },
          {
            "number": 11,
            "ticks": 18987,
            "time": 154.11530340624998,
            "value": 0.4094488188976378
          },
          {
            "number": 11,
            "ticks": 18994,
            "time": 154.17212160416665,
            "value": 0.3779527559055118
          },
          {
            "number": 11,
            "ticks": 19000,
            "time": 154.22082291666663,
            "value": 0.3464566929133858
          },
          {
            "number": 11,
            "ticks": 19007,
            "time": 154.27764111458333,
            "value": 0.30708661417322836
          },
          {
            "number": 11,
            "ticks": 19013,
            "time": 154.32634242708332,
            "value": 0.2755905511811024
          },
          {
            "number": 11,
            "ticks": 19020,
            "time": 154.383160625,
            "value": 0.23622047244094488
          },
          {
            "number": 11,
            "ticks": 19026,
            "time": 154.4318619375,
            "value": 0.1968503937007874
          },
          {
            "number": 11,
            "ticks": 19033,
            "time": 154.48868013541664,
            "value": 0.15748031496062992
          },
          {
            "number": 11,
            "ticks": 19039,
            "time": 154.53738144791666,
            "value": 0.11023622047244094
          },
          {
            "number": 11,
            "ticks": 19046,
            "time": 154.59419964583333,
            "value": 0.06299212598425197
          },
          {
            "number": 11,
            "ticks": 19052,
            "time": 154.64290095833334,
            "value": 0.023622047244094488
          },
          {
            "number": 11,
            "ticks": 19056,
            "time": 154.6753685,
            "value": 0
          },
          {
            "number": 11,
            "ticks": 19104,
            "time": 155.064979,
            "value": 0.8661417322834646
          }
        ],
        "91": [
          {
            "number": 91,
            "ticks": 1,
            "time": 0.008116885416666665,
            "value": 0.4251968503937008
          }
        ],
        "93": [
          {
            "number": 93,
            "ticks": 2,
            "time": 0.01623377083333333,
            "value": 0.6299212598425197
          }
        ],
        "94": [
          {
            "number": 94,
            "ticks": 2,
            "time": 0.01623377083333333,
            "value": 0.15748031496062992
          }
        ],
        "98": [
          {
            "number": 98,
            "ticks": 3,
            "time": 0.024350656249999998,
            "value": 0.25196850393700787
          },
          {
            "number": 98,
            "ticks": 6,
            "time": 0.048701312499999996,
            "value": 0.25984251968503935
          },
          {
            "number": 98,
            "ticks": 9,
            "time": 0.07305196875,
            "value": 0.7874015748031497
          }
        ],
        "99": [
          {
            "number": 99,
            "ticks": 2,
            "time": 0.01623377083333333,
            "value": 0.007874015748031496
          },
          {
            "number": 99,
            "ticks": 5,
            "time": 0.04058442708333333,
            "value": 0.007874015748031496
          },
          {
            "number": 99,
            "ticks": 8,
            "time": 0.06493508333333332,
            "value": 0.007874015748031496
          }
        ],
        "121": [
          {
            "number": 121,
            "ticks": 0,
            "time": 0,
            "value": 0
          }
        ]
      },
      "pitchBends": [],
      "instrument": {
        "family": "pipe",
        "number": 73,
        "name": "flute"
      },
      "name": "",
      "notes": [
        {
          "duration": 0.3896104999999963,
          "durationTicks": 48,
          "midi": 77,
          "name": "F5",
          "ticks": 5760,
          "time": 46.75326,
          "velocity": 0.7874015748031497
        },
        {
          "duration": 1.9480525000000029,
          "durationTicks": 240,
          "midi": 82,
          "name": "A#5",
          "ticks": 5808,
          "time": 47.142870499999994,
          "velocity": 0.7874015748031497
        },
        {
          "duration": 0.3896104999999963,
          "durationTicks": 48,
          "midi": 84,
          "name": "C6",
          "ticks": 6048,
          "time": 49.090923,
          "velocity": 0.7874015748031497
        },
        {
          "duration": 0.3896105000000034,
          "durationTicks": 48,
          "midi": 87,
          "name": "D#6",
          "ticks": 6096,
          "time": 49.48053349999999,
          "velocity": 0.7874015748031497
        },
        {
          "duration": 0.3896105000000034,
          "durationTicks": 48,
          "midi": 82,
          "name": "A#5",
          "ticks": 6144,
          "time": 49.870143999999996,
          "velocity": 0.7874015748031497
        },
        {
          "duration": 1.168831499999996,
          "durationTicks": 144,
          "midi": 80,
          "name": "G#5",
          "ticks": 6192,
          "time": 50.2597545,
          "velocity": 0.7874015748031497
        },
        {
          "duration": 0.1948052500000017,
          "durationTicks": 24,
          "midi": 75,
          "name": "D#5",
          "ticks": 6336,
          "time": 51.428585999999996,
          "velocity": 0.7874015748031497
        },
        {
          "duration": 1.2662341249999969,
          "durationTicks": 156,
          "midi": 77,
          "name": "F5",
          "ticks": 6360,
          "time": 51.62339125,
          "velocity": 0.7874015748031497
        },
        {
          "duration": 0.3896105000000034,
          "durationTicks": 48,
          "midi": 77,
          "name": "F5",
          "ticks": 6528,
          "time": 52.987027999999995,
          "velocity": 0.7874015748031497
        },
        {
          "duration": 0.3896104999999963,
          "durationTicks": 48,
          "midi": 78,
          "name": "F#5",
          "ticks": 6576,
          "time": 53.3766385,
          "velocity": 0.7874015748031497
        },
        {
          "duration": 0.3896105000000034,
          "durationTicks": 48,
          "midi": 77,
          "name": "F5",
          "ticks": 6624,
          "time": 53.766248999999995,
          "velocity": 0.7874015748031497
        },
        {
          "duration": 0.3896104999999963,
          "durationTicks": 48,
          "midi": 70,
          "name": "A#4",
          "ticks": 6672,
          "time": 54.1558595,
          "velocity": 0.7874015748031497
        },
        {
          "duration": 0.3896105000000034,
          "durationTicks": 48,
          "midi": 73,
          "name": "C#5",
          "ticks": 6720,
          "time": 54.545469999999995,
          "velocity": 0.7874015748031497
        },
        {
          "duration": 1.168831499999996,
          "durationTicks": 144,
          "midi": 80,
          "name": "G#5",
          "ticks": 6768,
          "time": 54.9350805,
          "velocity": 0.7874015748031497
        },
        {
          "duration": 0.3896105000000034,
          "durationTicks": 48,
          "midi": 78,
          "name": "F#5",
          "ticks": 6912,
          "time": 56.103911999999994,
          "velocity": 0.7874015748031497
        },
        {
          "duration": 1.168831499999996,
          "durationTicks": 144,
          "midi": 77,
          "name": "F5",
          "ticks": 6960,
          "time": 56.4935225,
          "velocity": 0.7874015748031497
        },
        {
          "duration": 0.14610393750000128,
          "durationTicks": 18,
          "midi": 75,
          "name": "D#5",
          "ticks": 7104,
          "time": 57.66235399999999,
          "velocity": 0.7874015748031497
        },
        {
          "duration": 1.1688315000000031,
          "durationTicks": 144,
          "midi": 75,
          "name": "D#5",
          "ticks": 7128,
          "time": 57.857159249999995,
          "velocity": 0.7874015748031497
        },
        {
          "duration": 0.3896105000000034,
          "durationTicks": 48,
          "midi": 77,
          "name": "F5",
          "ticks": 7296,
          "time": 59.22079599999999,
          "velocity": 0.7874015748031497
        },
        {
          "duration": 1.9480524999999957,
          "durationTicks": 240,
          "midi": 82,
          "name": "A#5",
          "ticks": 7344,
          "time": 59.610406499999996,
          "velocity": 0.7874015748031497
        },
        {
          "duration": 0.3896105000000034,
          "durationTicks": 48,
          "midi": 84,
          "name": "C6",
          "ticks": 7584,
          "time": 61.55845899999999,
          "velocity": 0.7874015748031497
        },
        {
          "duration": 0.3896104999999963,
          "durationTicks": 48,
          "midi": 85,
          "name": "C#6",
          "ticks": 7632,
          "time": 61.948069499999995,
          "velocity": 0.7874015748031497
        },
        {
          "duration": 0.3896105000000034,
          "durationTicks": 48,
          "midi": 87,
          "name": "D#6",
          "ticks": 7680,
          "time": 62.33767999999999,
          "velocity": 0.7874015748031497
        },
        {
          "duration": 0.3896105000000034,
          "durationTicks": 48,
          "midi": 89,
          "name": "F6",
          "ticks": 7728,
          "time": 62.727290499999995,
          "velocity": 0.7874015748031497
        },
        {
          "duration": 0.3896104999999963,
          "durationTicks": 48,
          "midi": 84,
          "name": "C6",
          "ticks": 7776,
          "time": 63.116901,
          "velocity": 0.7874015748031497
        },
        {
          "duration": 0.3896105000000034,
          "durationTicks": 48,
          "midi": 82,
          "name": "A#5",
          "ticks": 7824,
          "time": 63.506511499999995,
          "velocity": 0.7874015748031497
        },
        {
          "duration": 0.3896104999999963,
          "durationTicks": 48,
          "midi": 80,
          "name": "G#5",
          "ticks": 7872,
          "time": 63.896122,
          "velocity": 0.7874015748031497
        },
        {
          "duration": 0.7792210000000068,
          "durationTicks": 96,
          "midi": 90,
          "name": "F#6",
          "ticks": 7920,
          "time": 64.2857325,
          "velocity": 0.7874015748031497
        },
        {
          "duration": 0.7792209999999926,
          "durationTicks": 96,
          "midi": 89,
          "name": "F6",
          "ticks": 8016,
          "time": 65.0649535,
          "velocity": 0.7874015748031497
        },
        {
          "duration": 1.168831499999996,
          "durationTicks": 144,
          "midi": 87,
          "name": "D#6",
          "ticks": 8112,
          "time": 65.8441745,
          "velocity": 0.7874015748031497
        },
        {
          "duration": 0.1948052500000017,
          "durationTicks": 24,
          "midi": 89,
          "name": "F6",
          "ticks": 8256,
          "time": 67.01300599999999,
          "velocity": 0.7874015748031497
        },
        {
          "duration": 2.532468250000008,
          "durationTicks": 312,
          "midi": 82,
          "name": "A#5",
          "ticks": 8280,
          "time": 67.20781124999999,
          "velocity": 0.7874015748031497
        },
        {
          "duration": 0.3896105000000034,
          "durationTicks": 48,
          "midi": 82,
          "name": "A#5",
          "ticks": 8640,
          "time": 70.12988999999999,
          "velocity": 0.7874015748031497
        },
        {
          "duration": 0.3896105000000034,
          "durationTicks": 48,
          "midi": 85,
          "name": "C#6",
          "ticks": 8688,
          "time": 70.51950049999999,
          "velocity": 0.7874015748031497
        },
        {
          "duration": 0.3896105000000034,
          "durationTicks": 48,
          "midi": 84,
          "name": "C6",
          "ticks": 8736,
          "time": 70.909111,
          "velocity": 0.7874015748031497
        },
        {
          "duration": 0.3896104999999892,
          "durationTicks": 48,
          "midi": 82,
          "name": "A#5",
          "ticks": 8784,
          "time": 71.2987215,
          "velocity": 0.7874015748031497
        },
        {
          "duration": 0.3896105000000034,
          "durationTicks": 48,
          "midi": 84,
          "name": "C6",
          "ticks": 8832,
          "time": 71.68833199999999,
          "velocity": 0.7874015748031497
        },
        {
          "duration": 6.233767999999998,
          "durationTicks": 768,
          "midi": 85,
          "name": "C#6",
          "ticks": 8880,
          "time": 72.07794249999999,
          "velocity": 0.7874015748031497
        },
        {
          "duration": 0.3896105000000034,
          "durationTicks": 48,
          "midi": 77,
          "name": "F5",
          "ticks": 15168,
          "time": 123.11691799999998,
          "velocity": 0.7874015748031497
        },
        {
          "duration": 1.9480525000000029,
          "durationTicks": 240,
          "midi": 82,
          "name": "A#5",
          "ticks": 15216,
          "time": 123.50652849999999,
          "velocity": 0.7874015748031497
        },
        {
          "duration": 0.3896105000000034,
          "durationTicks": 48,
          "midi": 84,
          "name": "C6",
          "ticks": 15456,
          "time": 125.45458099999999,
          "velocity": 0.7874015748031497
        },
        {
          "duration": 0.3896105000000034,
          "durationTicks": 48,
          "midi": 87,
          "name": "D#6",
          "ticks": 15504,
          "time": 125.8441915,
          "velocity": 0.7874015748031497
        },
        {
          "duration": 0.3896104999999892,
          "durationTicks": 48,
          "midi": 82,
          "name": "A#5",
          "ticks": 15552,
          "time": 126.233802,
          "velocity": 0.7874015748031497
        },
        {
          "duration": 1.1688315000000102,
          "durationTicks": 144,
          "midi": 80,
          "name": "G#5",
          "ticks": 15600,
          "time": 126.62341249999999,
          "velocity": 0.7874015748031497
        },
        {
          "duration": 0.1948052499999875,
          "durationTicks": 24,
          "midi": 75,
          "name": "D#5",
          "ticks": 15744,
          "time": 127.792244,
          "velocity": 0.7874015748031497
        },
        {
          "duration": 1.266234125000011,
          "durationTicks": 156,
          "midi": 77,
          "name": "F5",
          "ticks": 15768,
          "time": 127.98704924999998,
          "velocity": 0.7874015748031497
        },
        {
          "duration": 0.3896105000000034,
          "durationTicks": 48,
          "midi": 77,
          "name": "F5",
          "ticks": 15936,
          "time": 129.350686,
          "velocity": 0.7874015748031497
        },
        {
          "duration": 0.3896105000000034,
          "durationTicks": 48,
          "midi": 78,
          "name": "F#5",
          "ticks": 15984,
          "time": 129.7402965,
          "velocity": 0.7874015748031497
        },
        {
          "duration": 0.389610499999975,
          "durationTicks": 48,
          "midi": 77,
          "name": "F5",
          "ticks": 16032,
          "time": 130.129907,
          "velocity": 0.7874015748031497
        },
        {
          "duration": 0.3896105000000034,
          "durationTicks": 48,
          "midi": 70,
          "name": "A#4",
          "ticks": 16080,
          "time": 130.51951749999998,
          "velocity": 0.7874015748031497
        },
        {
          "duration": 0.3896105000000034,
          "durationTicks": 48,
          "midi": 73,
          "name": "C#5",
          "ticks": 16128,
          "time": 130.90912799999998,
          "velocity": 0.7874015748031497
        },
        {
          "duration": 1.1688315000000102,
          "durationTicks": 144,
          "midi": 80,
          "name": "G#5",
          "ticks": 16176,
          "time": 131.29873849999998,
          "velocity": 0.7874015748031497
        },
        {
          "duration": 0.3896105000000034,
          "durationTicks": 48,
          "midi": 78,
          "name": "F#5",
          "ticks": 16320,
          "time": 132.46757,
          "velocity": 0.7874015748031497
        },
        {
          "duration": 1.1688314999999818,
          "durationTicks": 144,
          "midi": 77,
          "name": "F5",
          "ticks": 16368,
          "time": 132.8571805,
          "velocity": 0.7874015748031497
        },
        {
          "duration": 0.1461039375000155,
          "durationTicks": 18,
          "midi": 75,
          "name": "D#5",
          "ticks": 16512,
          "time": 134.02601199999998,
          "velocity": 0.7874015748031497
        },
        {
          "duration": 1.1688315000000102,
          "durationTicks": 144,
          "midi": 75,
          "name": "D#5",
          "ticks": 16536,
          "time": 134.22081724999998,
          "velocity": 0.7874015748031497
        },
        {
          "duration": 0.3896105000000034,
          "durationTicks": 48,
          "midi": 77,
          "name": "F5",
          "ticks": 16704,
          "time": 135.584454,
          "velocity": 0.7874015748031497
        },
        {
          "duration": 1.9480524999999886,
          "durationTicks": 240,
          "midi": 82,
          "name": "A#5",
          "ticks": 16752,
          "time": 135.9740645,
          "velocity": 0.7874015748031497
        },
        {
          "duration": 0.3896105000000034,
          "durationTicks": 48,
          "midi": 84,
          "name": "C6",
          "ticks": 16992,
          "time": 137.922117,
          "velocity": 0.7874015748031497
        },
        {
          "duration": 0.3896105000000034,
          "durationTicks": 48,
          "midi": 85,
          "name": "C#6",
          "ticks": 17040,
          "time": 138.3117275,
          "velocity": 0.7874015748031497
        },
        {
          "duration": 0.3896105000000034,
          "durationTicks": 48,
          "midi": 87,
          "name": "D#6",
          "ticks": 17088,
          "time": 138.701338,
          "velocity": 0.7874015748031497
        },
        {
          "duration": 0.3896105000000034,
          "durationTicks": 48,
          "midi": 89,
          "name": "F6",
          "ticks": 17136,
          "time": 139.0909485,
          "velocity": 0.7874015748031497
        },
        {
          "duration": 0.3896105000000034,
          "durationTicks": 48,
          "midi": 84,
          "name": "C6",
          "ticks": 17184,
          "time": 139.480559,
          "velocity": 0.7874015748031497
        },
        {
          "duration": 0.389610499999975,
          "durationTicks": 48,
          "midi": 82,
          "name": "A#5",
          "ticks": 17232,
          "time": 139.8701695,
          "velocity": 0.7874015748031497
        },
        {
          "duration": 0.3896105000000034,
          "durationTicks": 48,
          "midi": 80,
          "name": "G#5",
          "ticks": 17280,
          "time": 140.25977999999998,
          "velocity": 0.7874015748031497
        },
        {
          "duration": 0.7792210000000068,
          "durationTicks": 96,
          "midi": 90,
          "name": "F#6",
          "ticks": 17328,
          "time": 140.64939049999998,
          "velocity": 0.7874015748031497
        },
        {
          "duration": 0.7792210000000068,
          "durationTicks": 96,
          "midi": 89,
          "name": "F6",
          "ticks": 17424,
          "time": 141.4286115,
          "velocity": 0.7874015748031497
        },
        {
          "duration": 1.1688314999999818,
          "durationTicks": 144,
          "midi": 87,
          "name": "D#6",
          "ticks": 17520,
          "time": 142.2078325,
          "velocity": 0.7874015748031497
        },
        {
          "duration": 0.1948052500000017,
          "durationTicks": 24,
          "midi": 89,
          "name": "F6",
          "ticks": 17664,
          "time": 143.37666399999998,
          "velocity": 0.7874015748031497
        },
        {
          "duration": 2.532468250000022,
          "durationTicks": 312,
          "midi": 82,
          "name": "A#5",
          "ticks": 17688,
          "time": 143.57146924999998,
          "velocity": 0.7874015748031497
        },
        {
          "duration": 0.3896105000000034,
          "durationTicks": 48,
          "midi": 82,
          "name": "A#5",
          "ticks": 18048,
          "time": 146.49354799999998,
          "velocity": 0.7874015748031497
        },
        {
          "duration": 0.3896105000000034,
          "durationTicks": 48,
          "midi": 85,
          "name": "C#6",
          "ticks": 18096,
          "time": 146.88315849999998,
          "velocity": 0.7874015748031497
        },
        {
          "duration": 0.3896105000000034,
          "durationTicks": 48,
          "midi": 84,
          "name": "C6",
          "ticks": 18144,
          "time": 147.27276899999998,
          "velocity": 0.7874015748031497
        },
        {
          "duration": 0.3896105000000034,
          "durationTicks": 48,
          "midi": 82,
          "name": "A#5",
          "ticks": 18192,
          "time": 147.6623795,
          "velocity": 0.7874015748031497
        },
        {
          "duration": 0.3896105000000034,
          "durationTicks": 48,
          "midi": 84,
          "name": "C6",
          "ticks": 18240,
          "time": 148.05199,
          "velocity": 0.7874015748031497
        },
        {
          "duration": 6.233767999999998,
          "durationTicks": 768,
          "midi": 85,
          "name": "C#6",
          "ticks": 18288,
          "time": 148.4416005,
          "velocity": 0.7874015748031497
        }
      ]
    },
    {
      "channel": 0,
      "controlChanges": {
        "0": [
          {
            "number": 0,
            "ticks": 0,
            "time": 0,
            "value": 0
          }
        ],
        "32": [
          {
            "number": 32,
            "ticks": 0,
            "time": 0,
            "value": 0.007874015748031496
          }
        ]
      },
      "pitchBends": [],
      "instrument": {
        "family": "piano",
        "number": 0,
        "name": "acoustic grand piano"
      },
      "name": "",
      "notes": [],
      "endOfTrackTicks": 20407
    },
    {
      "channel": 2,
      "controlChanges": {
        "6": [
          {
            "number": 6,
            "ticks": 4,
            "time": 0.03246754166666666,
            "value": 0.5039370078740157
          },
          {
            "number": 6,
            "ticks": 7,
            "time": 0.05681819791666667,
            "value": 0.48031496062992124
          },
          {
            "number": 6,
            "ticks": 10,
            "time": 0.08116885416666667,
            "value": 0.5039370078740157
          }
        ],
        "7": [
          {
            "number": 7,
            "ticks": 0,
            "time": 0,
            "value": 0.6377952755905512
          }
        ],
        "10": [
          {
            "number": 10,
            "ticks": 0,
            "time": 0,
            "value": 0.15748031496062992
          }
        ],
        "64": [
          {
            "number": 64,
            "ticks": 456,
            "time": 3.7012997499999996,
            "value": 1
          },
          {
            "number": 64,
            "ticks": 624,
            "time": 5.0649365,
            "value": 0
          },
          {
            "number": 64,
            "ticks": 648,
            "time": 5.25974175,
            "value": 1
          },
          {
            "number": 64,
            "ticks": 816,
            "time": 6.623378499999999,
            "value": 0
          },
          {
            "number": 64,
            "ticks": 840,
            "time": 6.818183749999999,
            "value": 1
          },
          {
            "number": 64,
            "ticks": 1008,
            "time": 8.181820499999999,
            "value": 0
          },
          {
            "number": 64,
            "ticks": 1032,
            "time": 8.376625749999999,
            "value": 1
          },
          {
            "number": 64,
            "ticks": 1224,
            "time": 9.93506775,
            "value": 1
          },
          {
            "number": 64,
            "ticks": 1392,
            "time": 11.2987045,
            "value": 0
          },
          {
            "number": 64,
            "ticks": 1416,
            "time": 11.49350975,
            "value": 1
          },
          {
            "number": 64,
            "ticks": 1584,
            "time": 12.857146499999999,
            "value": 0
          },
          {
            "number": 64,
            "ticks": 1608,
            "time": 13.051951749999999,
            "value": 1
          },
          {
            "number": 64,
            "ticks": 1776,
            "time": 14.415588499999998,
            "value": 0
          },
          {
            "number": 64,
            "ticks": 1800,
            "time": 14.610393749999998,
            "value": 1
          },
          {
            "number": 64,
            "ticks": 1992,
            "time": 16.16883575,
            "value": 1
          },
          {
            "number": 64,
            "ticks": 2160,
            "time": 17.532472499999997,
            "value": 0
          },
          {
            "number": 64,
            "ticks": 2184,
            "time": 17.72727775,
            "value": 1
          },
          {
            "number": 64,
            "ticks": 2352,
            "time": 19.0909145,
            "value": 0
          },
          {
            "number": 64,
            "ticks": 2376,
            "time": 19.28571975,
            "value": 1
          },
          {
            "number": 64,
            "ticks": 2544,
            "time": 20.6493565,
            "value": 0
          },
          {
            "number": 64,
            "ticks": 2568,
            "time": 20.844161749999998,
            "value": 1
          },
          {
            "number": 64,
            "ticks": 2760,
            "time": 22.402603749999997,
            "value": 1
          },
          {
            "number": 64,
            "ticks": 2928,
            "time": 23.7662405,
            "value": 0
          },
          {
            "number": 64,
            "ticks": 2952,
            "time": 23.961045749999997,
            "value": 1
          },
          {
            "number": 64,
            "ticks": 3120,
            "time": 25.324682499999998,
            "value": 0
          },
          {
            "number": 64,
            "ticks": 3144,
            "time": 25.51948775,
            "value": 1
          },
          {
            "number": 64,
            "ticks": 3312,
            "time": 26.883124499999997,
            "value": 0
          },
          {
            "number": 64,
            "ticks": 3336,
            "time": 27.07792975,
            "value": 1
          },
          {
            "number": 64,
            "ticks": 3528,
            "time": 28.63637175,
            "value": 1
          },
          {
            "number": 64,
            "ticks": 3696,
            "time": 30.000008499999996,
            "value": 0
          },
          {
            "number": 64,
            "ticks": 3720,
            "time": 30.194813749999998,
            "value": 1
          },
          {
            "number": 64,
            "ticks": 3888,
            "time": 31.5584505,
            "value": 0
          },
          {
            "number": 64,
            "ticks": 3912,
            "time": 31.753255749999997,
            "value": 1
          },
          {
            "number": 64,
            "ticks": 4080,
            "time": 33.1168925,
            "value": 0
          },
          {
            "number": 64,
            "ticks": 4104,
            "time": 33.31169775,
            "value": 1
          },
          {
            "number": 64,
            "ticks": 4296,
            "time": 34.87013975,
            "value": 1
          },
          {
            "number": 64,
            "ticks": 4464,
            "time": 36.2337765,
            "value": 0
          },
          {
            "number": 64,
            "ticks": 4488,
            "time": 36.42858175,
            "value": 1
          },
          {
            "number": 64,
            "ticks": 4656,
            "time": 37.7922185,
            "value": 0
          },
          {
            "number": 64,
            "ticks": 4680,
            "time": 37.98702375,
            "value": 1
          },
          {
            "number": 64,
            "ticks": 4848,
            "time": 39.3506605,
            "value": 0
          },
          {
            "number": 64,
            "ticks": 4872,
            "time": 39.54546575,
            "value": 1
          },
          {
            "number": 64,
            "ticks": 5064,
            "time": 41.10390775,
            "value": 1
          },
          {
            "number": 64,
            "ticks": 5232,
            "time": 42.467544499999995,
            "value": 0
          },
          {
            "number": 64,
            "ticks": 5256,
            "time": 42.66234975,
            "value": 1
          },
          {
            "number": 64,
            "ticks": 5424,
            "time": 44.025986499999995,
            "value": 0
          },
          {
            "number": 64,
            "ticks": 5448,
            "time": 44.22079175,
            "value": 1
          },
          {
            "number": 64,
            "ticks": 5616,
            "time": 45.584428499999994,
            "value": 1
          },
          {
            "number": 64,
            "ticks": 5832,
            "time": 47.337675749999995,
            "value": 1
          },
          {
            "number": 64,
            "ticks": 6000,
            "time": 48.70131249999999,
            "value": 0
          },
          {
            "number": 64,
            "ticks": 6024,
            "time": 48.896117749999995,
            "value": 1
          },
          {
            "number": 64,
            "ticks": 6192,
            "time": 50.2597545,
            "value": 0
          },
          {
            "number": 64,
            "ticks": 6216,
            "time": 50.454559749999994,
            "value": 1
          },
          {
            "number": 64,
            "ticks": 6414,
            "time": 52.061703062499994,
            "value": 1
          },
          {
            "number": 64,
            "ticks": 6456,
            "time": 52.40261225,
            "value": 0
          },
          {
            "number": 64,
            "ticks": 6600,
            "time": 53.57144374999999,
            "value": 1
          },
          {
            "number": 64,
            "ticks": 6768,
            "time": 54.9350805,
            "value": 0
          },
          {
            "number": 64,
            "ticks": 6792,
            "time": 55.12988574999999,
            "value": 1
          },
          {
            "number": 64,
            "ticks": 6984,
            "time": 56.68832775,
            "value": 1
          },
          {
            "number": 64,
            "ticks": 7152,
            "time": 58.0519645,
            "value": 0
          },
          {
            "number": 64,
            "ticks": 7176,
            "time": 58.24676975,
            "value": 1
          },
          {
            "number": 64,
            "ticks": 7368,
            "time": 59.80521175,
            "value": 1
          },
          {
            "number": 64,
            "ticks": 7536,
            "time": 61.168848499999996,
            "value": 0
          },
          {
            "number": 64,
            "ticks": 7560,
            "time": 61.36365375,
            "value": 1
          },
          {
            "number": 64,
            "ticks": 7728,
            "time": 62.727290499999995,
            "value": 0
          },
          {
            "number": 64,
            "ticks": 7752,
            "time": 62.92209575,
            "value": 1
          },
          {
            "number": 64,
            "ticks": 7950,
            "time": 64.5292390625,
            "value": 1
          },
          {
            "number": 64,
            "ticks": 7992,
            "time": 64.87014825,
            "value": 0
          },
          {
            "number": 64,
            "ticks": 8136,
            "time": 66.03897975,
            "value": 1
          },
          {
            "number": 64,
            "ticks": 8304,
            "time": 67.4026165,
            "value": 0
          },
          {
            "number": 64,
            "ticks": 8328,
            "time": 67.59742175,
            "value": 1
          },
          {
            "number": 64,
            "ticks": 8520,
            "time": 69.15586375,
            "value": 1
          },
          {
            "number": 64,
            "ticks": 8688,
            "time": 70.51950049999999,
            "value": 0
          },
          {
            "number": 64,
            "ticks": 8712,
            "time": 70.71430575,
            "value": 1
          },
          {
            "number": 64,
            "ticks": 8904,
            "time": 72.27274775,
            "value": 1
          },
          {
            "number": 64,
            "ticks": 9072,
            "time": 73.63638449999999,
            "value": 0
          },
          {
            "number": 64,
            "ticks": 9096,
            "time": 73.83118975,
            "value": 1
          },
          {
            "number": 64,
            "ticks": 9264,
            "time": 75.19482649999999,
            "value": 0
          },
          {
            "number": 64,
            "ticks": 9288,
            "time": 75.38963174999999,
            "value": 1
          },
          {
            "number": 64,
            "ticks": 9456,
            "time": 76.75326849999999,
            "value": 0
          },
          {
            "number": 64,
            "ticks": 9480,
            "time": 76.94807374999999,
            "value": 1
          },
          {
            "number": 64,
            "ticks": 9672,
            "time": 78.50651574999999,
            "value": 1
          },
          {
            "number": 64,
            "ticks": 9840,
            "time": 79.87015249999999,
            "value": 0
          },
          {
            "number": 64,
            "ticks": 9864,
            "time": 80.06495774999999,
            "value": 1
          },
          {
            "number": 64,
            "ticks": 10032,
            "time": 81.42859449999999,
            "value": 0
          },
          {
            "number": 64,
            "ticks": 10056,
            "time": 81.62339974999999,
            "value": 1
          },
          {
            "number": 64,
            "ticks": 10224,
            "time": 82.98703649999999,
            "value": 0
          },
          {
            "number": 64,
            "ticks": 10248,
            "time": 83.18184174999999,
            "value": 1
          },
          {
            "number": 64,
            "ticks": 10440,
            "time": 84.74028374999999,
            "value": 1
          },
          {
            "number": 64,
            "ticks": 10608,
            "time": 86.10392049999999,
            "value": 0
          },
          {
            "number": 64,
            "ticks": 10632,
            "time": 86.29872574999999,
            "value": 1
          },
          {
            "number": 64,
            "ticks": 10800,
            "time": 87.6623625,
            "value": 0
          },
          {
            "number": 64,
            "ticks": 10824,
            "time": 87.85716774999999,
            "value": 1
          },
          {
            "number": 64,
            "ticks": 10992,
            "time": 89.2208045,
            "value": 0
          },
          {
            "number": 64,
            "ticks": 11016,
            "time": 89.41560974999999,
            "value": 1
          },
          {
            "number": 64,
            "ticks": 11208,
            "time": 90.97405174999999,
            "value": 1
          },
          {
            "number": 64,
            "ticks": 11376,
            "time": 92.3376885,
            "value": 0
          },
          {
            "number": 64,
            "ticks": 11400,
            "time": 92.53249374999999,
            "value": 1
          },
          {
            "number": 64,
            "ticks": 11568,
            "time": 93.8961305,
            "value": 0
          },
          {
            "number": 64,
            "ticks": 11592,
            "time": 94.09093575,
            "value": 1
          },
          {
            "number": 64,
            "ticks": 11760,
            "time": 95.4545725,
            "value": 0
          },
          {
            "number": 64,
            "ticks": 11784,
            "time": 95.64937775,
            "value": 1
          },
          {
            "number": 64,
            "ticks": 11976,
            "time": 97.20781975,
            "value": 1
          },
          {
            "number": 64,
            "ticks": 12144,
            "time": 98.5714565,
            "value": 0
          },
          {
            "number": 64,
            "ticks": 12168,
            "time": 98.76626175,
            "value": 1
          },
          {
            "number": 64,
            "ticks": 12336,
            "time": 100.1298985,
            "value": 0
          },
          {
            "number": 64,
            "ticks": 12360,
            "time": 100.32470375,
            "value": 1
          },
          {
            "number": 64,
            "ticks": 12528,
            "time": 101.6883405,
            "value": 0
          },
          {
            "number": 64,
            "ticks": 12552,
            "time": 101.88314575,
            "value": 1
          },
          {
            "number": 64,
            "ticks": 12744,
            "time": 103.44158775,
            "value": 1
          },
          {
            "number": 64,
            "ticks": 12912,
            "time": 104.8052245,
            "value": 0
          },
          {
            "number": 64,
            "ticks": 12936,
            "time": 105.00002975,
            "value": 1
          },
          {
            "number": 64,
            "ticks": 13104,
            "time": 106.3636665,
            "value": 0
          },
          {
            "number": 64,
            "ticks": 13128,
            "time": 106.55847175,
            "value": 1
          },
          {
            "number": 64,
            "ticks": 13296,
            "time": 107.9221085,
            "value": 0
          },
          {
            "number": 64,
            "ticks": 13320,
            "time": 108.11691375,
            "value": 1
          },
          {
            "number": 64,
            "ticks": 13512,
            "time": 109.67535575,
            "value": 1
          },
          {
            "number": 64,
            "ticks": 13680,
            "time": 111.03899249999999,
            "value": 0
          },
          {
            "number": 64,
            "ticks": 13704,
            "time": 111.23379775,
            "value": 1
          },
          {
            "number": 64,
            "ticks": 13896,
            "time": 112.79223975,
            "value": 1
          },
          {
            "number": 64,
            "ticks": 14064,
            "time": 114.15587649999999,
            "value": 0
          },
          {
            "number": 64,
            "ticks": 14088,
            "time": 114.35068174999999,
            "value": 1
          },
          {
            "number": 64,
            "ticks": 14280,
            "time": 115.90912374999999,
            "value": 1
          },
          {
            "number": 64,
            "ticks": 14448,
            "time": 117.27276049999999,
            "value": 0
          },
          {
            "number": 64,
            "ticks": 14472,
            "time": 117.46756574999999,
            "value": 1
          },
          {
            "number": 64,
            "ticks": 14640,
            "time": 118.83120249999999,
            "value": 0
          },
          {
            "number": 64,
            "ticks": 14664,
            "time": 119.02600774999999,
            "value": 1
          },
          {
            "number": 64,
            "ticks": 14832,
            "time": 120.38964449999999,
            "value": 1
          },
          {
            "number": 64,
            "ticks": 15240,
            "time": 123.70133374999999,
            "value": 1
          },
          {
            "number": 64,
            "ticks": 15408,
            "time": 125.06497049999999,
            "value": 0
          },
          {
            "number": 64,
            "ticks": 15432,
            "time": 125.25977574999999,
            "value": 1
          },
          {
            "number": 64,
            "ticks": 15600,
            "time": 126.62341249999999,
            "value": 0
          },
          {
            "number": 64,
            "ticks": 15624,
            "time": 126.81821774999999,
            "value": 1
          },
          {
            "number": 64,
            "ticks": 15822,
            "time": 128.4253610625,
            "value": 1
          },
          {
            "number": 64,
            "ticks": 15864,
            "time": 128.76627025,
            "value": 0
          },
          {
            "number": 64,
            "ticks": 16008,
            "time": 129.93510175,
            "value": 1
          },
          {
            "number": 64,
            "ticks": 16176,
            "time": 131.29873849999998,
            "value": 0
          },
          {
            "number": 64,
            "ticks": 16200,
            "time": 131.49354375,
            "value": 1
          },
          {
            "number": 64,
            "ticks": 16392,
            "time": 133.05198575,
            "value": 1
          },
          {
            "number": 64,
            "ticks": 16560,
            "time": 134.41562249999998,
            "value": 0
          },
          {
            "number": 64,
            "ticks": 16584,
            "time": 134.61042774999999,
            "value": 1
          },
          {
            "number": 64,
            "ticks": 16776,
            "time": 136.16886975,
            "value": 1
          },
          {
            "number": 64,
            "ticks": 16944,
            "time": 137.53250649999998,
            "value": 0
          },
          {
            "number": 64,
            "ticks": 16968,
            "time": 137.72731174999998,
            "value": 1
          },
          {
            "number": 64,
            "ticks": 17136,
            "time": 139.0909485,
            "value": 0
          },
          {
            "number": 64,
            "ticks": 17160,
            "time": 139.28575375,
            "value": 1
          },
          {
            "number": 64,
            "ticks": 17358,
            "time": 140.8928970625,
            "value": 1
          },
          {
            "number": 64,
            "ticks": 17400,
            "time": 141.23380625,
            "value": 0
          },
          {
            "number": 64,
            "ticks": 17544,
            "time": 142.40263775,
            "value": 1
          },
          {
            "number": 64,
            "ticks": 17712,
            "time": 143.76627449999998,
            "value": 0
          },
          {
            "number": 64,
            "ticks": 17736,
            "time": 143.96107974999998,
            "value": 1
          },
          {
            "number": 64,
            "ticks": 17928,
            "time": 145.51952175,
            "value": 1
          },
          {
            "number": 64,
            "ticks": 18096,
            "time": 146.88315849999998,
            "value": 0
          },
          {
            "number": 64,
            "ticks": 18120,
            "time": 147.07796374999998,
            "value": 1
          },
          {
            "number": 64,
            "ticks": 18312,
            "time": 148.63640575,
            "value": 1
          },
          {
            "number": 64,
            "ticks": 18480,
            "time": 150.00004249999998,
            "value": 0
          },
          {
            "number": 64,
            "ticks": 18504,
            "time": 150.19484774999998,
            "value": 1
          },
          {
            "number": 64,
            "ticks": 18672,
            "time": 151.5584845,
            "value": 0
          },
          {
            "number": 64,
            "ticks": 18696,
            "time": 151.75328975,
            "value": 1
          },
          {
            "number": 64,
            "ticks": 18864,
            "time": 153.11692649999998,
            "value": 0
          },
          {
            "number": 64,
            "ticks": 18888,
            "time": 153.31173174999998,
            "value": 1
          },
          {
            "number": 64,
            "ticks": 19080,
            "time": 154.87017375,
            "value": 1
          },
          {
            "number": 64,
            "ticks": 19248,
            "time": 156.23381049999998,
            "value": 0
          },
          {
            "number": 64,
            "ticks": 19272,
            "time": 156.42861574999998,
            "value": 1
          },
          {
            "number": 64,
            "ticks": 19440,
            "time": 157.7922525,
            "value": 0
          },
          {
            "number": 64,
            "ticks": 19464,
            "time": 157.98705775,
            "value": 1
          },
          {
            "number": 64,
            "ticks": 19632,
            "time": 159.35069449999997,
            "value": 0
          },
          {
            "number": 64,
            "ticks": 19656,
            "time": 159.54549974999998,
            "value": 1
          }
        ],
        "91": [
          {
            "number": 91,
            "ticks": 1,
            "time": 0.008116885416666665,
            "value": 0.23622047244094488
          }
        ],
        "93": [
          {
            "number": 93,
            "ticks": 2,
            "time": 0.01623377083333333,
            "value": 0.47244094488188976
          }
        ],
        "94": [
          {
            "number": 94,
            "ticks": 2,
            "time": 0.01623377083333333,
            "value": 0.11811023622047244
          }
        ],
        "98": [
          {
            "number": 98,
            "ticks": 3,
            "time": 0.024350656249999998,
            "value": 0.25196850393700787
          },
          {
            "number": 98,
            "ticks": 6,
            "time": 0.048701312499999996,
            "value": 0.25984251968503935
          },
          {
            "number": 98,
            "ticks": 9,
            "time": 0.07305196875,
            "value": 0.7874015748031497
          }
        ],
        "99": [
          {
            "number": 99,
            "ticks": 2,
            "time": 0.01623377083333333,
            "value": 0.007874015748031496
          },
          {
            "number": 99,
            "ticks": 5,
            "time": 0.04058442708333333,
            "value": 0.007874015748031496
          },
          {
            "number": 99,
            "ticks": 8,
            "time": 0.06493508333333332,
            "value": 0.007874015748031496
          }
        ],
        "121": [
          {
            "number": 121,
            "ticks": 0,
            "time": 0,
            "value": 0
          }
        ]
      },
      "pitchBends": [],
      "instrument": {
        "family": "guitar",
        "number": 24,
        "name": "acoustic guitar (nylon)"
      },
      "name": "",
      "notes": [
        {
          "duration": 1.550325114583333,
          "durationTicks": 191,
          "midi": 49,
          "name": "C#3",
          "ticks": 432,
          "time": 3.5064944999999996,
          "velocity": 0.7322834645669292
        },
        {
          "duration": 0.1866883645833335,
          "durationTicks": 23,
          "midi": 56,
          "name": "G#3",
          "ticks": 480,
          "time": 3.8961049999999995,
          "velocity": 0.7007874015748031
        },
        {
          "duration": 0.1866883645833335,
          "durationTicks": 23,
          "midi": 61,
          "name": "C#4",
          "ticks": 528,
          "time": 4.285715499999999,
          "velocity": 0.6456692913385826
        },
        {
          "duration": 0.1866883645833326,
          "durationTicks": 23,
          "midi": 65,
          "name": "F4",
          "ticks": 576,
          "time": 4.675326,
          "velocity": 0.6141732283464567
        },
        {
          "duration": 1.550325114583333,
          "durationTicks": 191,
          "midi": 42,
          "name": "F#2",
          "ticks": 624,
          "time": 5.0649365,
          "velocity": 0.7165354330708661
        },
        {
          "duration": 0.1866883645833326,
          "durationTicks": 23,
          "midi": 49,
          "name": "C#3",
          "ticks": 672,
          "time": 5.454547,
          "velocity": 0.5905511811023622
        },
        {
          "duration": 0.1866883645833326,
          "durationTicks": 23,
          "midi": 54,
          "name": "F#3",
          "ticks": 720,
          "time": 5.8441575,
          "velocity": 0.5196850393700787
        },
        {
          "duration": 0.1866883645833335,
          "durationTicks": 23,
          "midi": 58,
          "name": "A#3",
          "ticks": 768,
          "time": 6.2337679999999995,
          "velocity": 0.6377952755905512
        },
        {
          "duration": 1.5503251145833339,
          "durationTicks": 191,
          "midi": 49,
          "name": "C#3",
          "ticks": 816,
          "time": 6.623378499999999,
          "velocity": 0.8661417322834646
        },
        {
          "duration": 0.18668836458333438,
          "durationTicks": 23,
          "midi": 56,
          "name": "G#3",
          "ticks": 864,
          "time": 7.012988999999999,
          "velocity": 0.6377952755905512
        },
        {
          "duration": 0.18668836458333438,
          "durationTicks": 23,
          "midi": 61,
          "name": "C#4",
          "ticks": 912,
          "time": 7.402599499999999,
          "velocity": 0.5905511811023622
        },
        {
          "duration": 0.2110390208333346,
          "durationTicks": 26,
          "midi": 65,
          "name": "F4",
          "ticks": 960,
          "time": 7.792209999999999,
          "velocity": 0.6535433070866141
        },
        {
          "duration": 1.5503251145833339,
          "durationTicks": 191,
          "midi": 42,
          "name": "F#2",
          "ticks": 1008,
          "time": 8.181820499999999,
          "velocity": 0.7322834645669292
        },
        {
          "duration": 0.18668836458333438,
          "durationTicks": 23,
          "midi": 49,
          "name": "C#3",
          "ticks": 1056,
          "time": 8.571430999999999,
          "velocity": 0.6220472440944882
        },
        {
          "duration": 0.18668836458333438,
          "durationTicks": 23,
          "midi": 54,
          "name": "F#3",
          "ticks": 1104,
          "time": 8.961041499999999,
          "velocity": 0.6614173228346457
        },
        {
          "duration": 0.1866883645833326,
          "durationTicks": 23,
          "midi": 58,
          "name": "A#3",
          "ticks": 1152,
          "time": 9.350652,
          "velocity": 0.7795275590551181
        },
        {
          "duration": 1.550325114583332,
          "durationTicks": 191,
          "midi": 49,
          "name": "C#3",
          "ticks": 1200,
          "time": 9.7402625,
          "velocity": 0.7322834645669292
        },
        {
          "duration": 0.1866883645833326,
          "durationTicks": 23,
          "midi": 56,
          "name": "G#3",
          "ticks": 1248,
          "time": 10.129873,
          "velocity": 0.7007874015748031
        },
        {
          "duration": 0.1866883645833326,
          "durationTicks": 23,
          "midi": 61,
          "name": "C#4",
          "ticks": 1296,
          "time": 10.5194835,
          "velocity": 0.6456692913385826
        },
        {
          "duration": 0.1866883645833326,
          "durationTicks": 23,
          "midi": 65,
          "name": "F4",
          "ticks": 1344,
          "time": 10.909094,
          "velocity": 0.6141732283464567
        },
        {
          "duration": 1.550325114583332,
          "durationTicks": 191,
          "midi": 42,
          "name": "F#2",
          "ticks": 1392,
          "time": 11.2987045,
          "velocity": 0.7165354330708661
        },
        {
          "duration": 0.18668836458333438,
          "durationTicks": 23,
          "midi": 49,
          "name": "C#3",
          "ticks": 1440,
          "time": 11.688315,
          "velocity": 0.5905511811023622
        },
        {
          "duration": 0.18668836458333438,
          "durationTicks": 23,
          "midi": 54,
          "name": "F#3",
          "ticks": 1488,
          "time": 12.0779255,
          "velocity": 0.5196850393700787
        },
        {
          "duration": 0.1866883645833326,
          "durationTicks": 23,
          "midi": 58,
          "name": "A#3",
          "ticks": 1536,
          "time": 12.467535999999999,
          "velocity": 0.6377952755905512
        },
        {
          "duration": 1.550325114583332,
          "durationTicks": 191,
          "midi": 49,
          "name": "C#3",
          "ticks": 1584,
          "time": 12.857146499999999,
          "velocity": 0.8661417322834646
        },
        {
          "duration": 0.1866883645833326,
          "durationTicks": 23,
          "midi": 56,
          "name": "G#3",
          "ticks": 1632,
          "time": 13.246756999999999,
          "velocity": 0.6377952755905512
        },
        {
          "duration": 0.1866883645833326,
          "durationTicks": 23,
          "midi": 61,
          "name": "C#4",
          "ticks": 1680,
          "time": 13.636367499999999,
          "velocity": 0.5905511811023622
        },
        {
          "duration": 0.2110390208333328,
          "durationTicks": 26,
          "midi": 65,
          "name": "F4",
          "ticks": 1728,
          "time": 14.025977999999999,
          "velocity": 0.6535433070866141
        },
        {
          "duration": 1.550325114583332,
          "durationTicks": 191,
          "midi": 42,
          "name": "F#2",
          "ticks": 1776,
          "time": 14.415588499999998,
          "velocity": 0.7322834645669292
        },
        {
          "duration": 0.1866883645833326,
          "durationTicks": 23,
          "midi": 49,
          "name": "C#3",
          "ticks": 1824,
          "time": 14.805198999999998,
          "velocity": 0.6220472440944882
        },
        {
          "duration": 0.1866883645833326,
          "durationTicks": 23,
          "midi": 54,
          "name": "F#3",
          "ticks": 1872,
          "time": 15.194809499999998,
          "velocity": 0.6614173228346457
        },
        {
          "duration": 0.1866883645833326,
          "durationTicks": 23,
          "midi": 56,
          "name": "G#3",
          "ticks": 1920,
          "time": 15.584419999999998,
          "velocity": 0.7795275590551181
        },
        {
          "duration": 1.550325114583332,
          "durationTicks": 191,
          "midi": 49,
          "name": "C#3",
          "ticks": 1968,
          "time": 15.9740305,
          "velocity": 0.7322834645669292
        },
        {
          "duration": 0.1866883645833326,
          "durationTicks": 23,
          "midi": 56,
          "name": "G#3",
          "ticks": 2016,
          "time": 16.363640999999998,
          "velocity": 0.7007874015748031
        },
        {
          "duration": 0.1866883645833326,
          "durationTicks": 23,
          "midi": 61,
          "name": "C#4",
          "ticks": 2064,
          "time": 16.753251499999998,
          "velocity": 0.6456692913385826
        },
        {
          "duration": 0.1866883645833326,
          "durationTicks": 23,
          "midi": 65,
          "name": "F4",
          "ticks": 2112,
          "time": 17.142861999999997,
          "velocity": 0.6141732283464567
        },
        {
          "duration": 1.5503251145833339,
          "durationTicks": 191,
          "midi": 42,
          "name": "F#2",
          "ticks": 2160,
          "time": 17.532472499999997,
          "velocity": 0.7165354330708661
        },
        {
          "duration": 0.1866883645833326,
          "durationTicks": 23,
          "midi": 49,
          "name": "C#3",
          "ticks": 2208,
          "time": 17.922082999999997,
          "velocity": 0.5905511811023622
        },
        {
          "duration": 0.1866883645833326,
          "durationTicks": 23,
          "midi": 54,
          "name": "F#3",
          "ticks": 2256,
          "time": 18.311693499999997,
          "velocity": 0.5196850393700787
        },
        {
          "duration": 0.18668836458332905,
          "durationTicks": 23,
          "midi": 58,
          "name": "A#3",
          "ticks": 2304,
          "time": 18.701304,
          "velocity": 0.6377952755905512
        },
        {
          "duration": 1.5503251145833303,
          "durationTicks": 191,
          "midi": 49,
          "name": "C#3",
          "ticks": 2352,
          "time": 19.0909145,
          "velocity": 0.8661417322834646
        },
        {
          "duration": 0.1866883645833326,
          "durationTicks": 23,
          "midi": 56,
          "name": "G#3",
          "ticks": 2400,
          "time": 19.480525,
          "velocity": 0.6377952755905512
        },
        {
          "duration": 0.1866883645833326,
          "durationTicks": 23,
          "midi": 61,
          "name": "C#4",
          "ticks": 2448,
          "time": 19.8701355,
          "velocity": 0.5905511811023622
        },
        {
          "duration": 0.2110390208333328,
          "durationTicks": 26,
          "midi": 56,
          "name": "G#3",
          "ticks": 2496,
          "time": 20.259746,
          "velocity": 0.6535433070866141
        },
        {
          "duration": 1.5503251145833303,
          "durationTicks": 191,
          "midi": 42,
          "name": "F#2",
          "ticks": 2544,
          "time": 20.6493565,
          "velocity": 0.7322834645669292
        },
        {
          "duration": 0.1866883645833326,
          "durationTicks": 23,
          "midi": 49,
          "name": "C#3",
          "ticks": 2592,
          "time": 21.038967,
          "velocity": 0.6220472440944882
        },
        {
          "duration": 0.1866883645833326,
          "durationTicks": 23,
          "midi": 54,
          "name": "F#3",
          "ticks": 2640,
          "time": 21.4285775,
          "velocity": 0.6614173228346457
        },
        {
          "duration": 0.1866883645833326,
          "durationTicks": 23,
          "midi": 58,
          "name": "A#3",
          "ticks": 2688,
          "time": 21.818188,
          "velocity": 0.7795275590551181
        },
        {
          "duration": 1.5503251145833303,
          "durationTicks": 191,
          "midi": 41,
          "name": "F2",
          "ticks": 2736,
          "time": 22.2077985,
          "velocity": 0.7322834645669292
        },
        {
          "duration": 0.1866883645833326,
          "durationTicks": 23,
          "midi": 48,
          "name": "C3",
          "ticks": 2784,
          "time": 22.597409,
          "velocity": 0.7007874015748031
        },
        {
          "duration": 0.1866883645833326,
          "durationTicks": 23,
          "midi": 53,
          "name": "F3",
          "ticks": 2832,
          "time": 22.9870195,
          "velocity": 0.6456692913385826
        },
        {
          "duration": 0.1866883645833326,
          "durationTicks": 23,
          "midi": 56,
          "name": "G#3",
          "ticks": 2880,
          "time": 23.37663,
          "velocity": 0.6141732283464567
        },
        {
          "duration": 1.5503251145833339,
          "durationTicks": 191,
          "midi": 46,
          "name": "A#2",
          "ticks": 2928,
          "time": 23.7662405,
          "velocity": 0.7165354330708661
        },
        {
          "duration": 0.1866883645833326,
          "durationTicks": 23,
          "midi": 53,
          "name": "F3",
          "ticks": 2976,
          "time": 24.155851,
          "velocity": 0.5905511811023622
        },
        {
          "duration": 0.1866883645833326,
          "durationTicks": 23,
          "midi": 58,
          "name": "A#3",
          "ticks": 3024,
          "time": 24.5454615,
          "velocity": 0.5196850393700787
        },
        {
          "duration": 0.18668836458333615,
          "durationTicks": 23,
          "midi": 61,
          "name": "C#4",
          "ticks": 3072,
          "time": 24.935071999999998,
          "velocity": 0.6377952755905512
        },
        {
          "duration": 1.5503251145833339,
          "durationTicks": 191,
          "midi": 51,
          "name": "D#3",
          "ticks": 3120,
          "time": 25.324682499999998,
          "velocity": 0.8661417322834646
        },
        {
          "duration": 0.18668836458333615,
          "durationTicks": 23,
          "midi": 58,
          "name": "A#3",
          "ticks": 3168,
          "time": 25.714292999999998,
          "velocity": 0.6377952755905512
        },
        {
          "duration": 0.18668836458333615,
          "durationTicks": 23,
          "midi": 63,
          "name": "D#4",
          "ticks": 3216,
          "time": 26.103903499999998,
          "velocity": 0.5905511811023622
        },
        {
          "duration": 0.21103902083333637,
          "durationTicks": 26,
          "midi": 58,
          "name": "A#3",
          "ticks": 3264,
          "time": 26.493513999999998,
          "velocity": 0.6535433070866141
        },
        {
          "duration": 1.5503251145833339,
          "durationTicks": 191,
          "midi": 44,
          "name": "G#2",
          "ticks": 3312,
          "time": 26.883124499999997,
          "velocity": 0.7322834645669292
        },
        {
          "duration": 0.18668836458333615,
          "durationTicks": 23,
          "midi": 51,
          "name": "D#3",
          "ticks": 3360,
          "time": 27.272734999999997,
          "velocity": 0.6220472440944882
        },
        {
          "duration": 0.18668836458333615,
          "durationTicks": 23,
          "midi": 56,
          "name": "G#3",
          "ticks": 3408,
          "time": 27.662345499999997,
          "velocity": 0.6614173228346457
        },
        {
          "duration": 0.18668836458333615,
          "durationTicks": 23,
          "midi": 60,
          "name": "C4",
          "ticks": 3456,
          "time": 28.051955999999997,
          "velocity": 0.7795275590551181
        },
        {
          "duration": 1.5503251145833374,
          "durationTicks": 191,
          "midi": 49,
          "name": "C#3",
          "ticks": 3504,
          "time": 28.441566499999997,
          "velocity": 0.7322834645669292
        },
        {
          "duration": 0.18668836458333615,
          "durationTicks": 23,
          "midi": 56,
          "name": "G#3",
          "ticks": 3552,
          "time": 28.831176999999997,
          "velocity": 0.7007874015748031
        },
        {
          "duration": 0.18668836458333615,
          "durationTicks": 23,
          "midi": 61,
          "name": "C#4",
          "ticks": 3600,
          "time": 29.220787499999997,
          "velocity": 0.6456692913385826
        },
        {
          "duration": 0.18668836458333615,
          "durationTicks": 23,
          "midi": 65,
          "name": "F4",
          "ticks": 3648,
          "time": 29.610397999999996,
          "velocity": 0.6141732283464567
        },
        {
          "duration": 1.5503251145833374,
          "durationTicks": 191,
          "midi": 42,
          "name": "F#2",
          "ticks": 3696,
          "time": 30.000008499999996,
          "velocity": 0.7165354330708661
        },
        {
          "duration": 0.18668836458333615,
          "durationTicks": 23,
          "midi": 49,
          "name": "C#3",
          "ticks": 3744,
          "time": 30.389618999999996,
          "velocity": 0.5905511811023622
        },
        {
          "duration": 0.18668836458333615,
          "durationTicks": 23,
          "midi": 54,
          "name": "F#3",
          "ticks": 3792,
          "time": 30.779229499999996,
          "velocity": 0.5196850393700787
        },
        {
          "duration": 0.18668836458333615,
          "durationTicks": 23,
          "midi": 58,
          "name": "A#3",
          "ticks": 3840,
          "time": 31.168839999999996,
          "velocity": 0.6377952755905512
        },
        {
          "duration": 1.5503251145833303,
          "durationTicks": 191,
          "midi": 49,
          "name": "C#3",
          "ticks": 3888,
          "time": 31.5584505,
          "velocity": 0.8661417322834646
        },
        {
          "duration": 0.18668836458333615,
          "durationTicks": 23,
          "midi": 56,
          "name": "G#3",
          "ticks": 3936,
          "time": 31.948061,
          "velocity": 0.6377952755905512
        },
        {
          "duration": 0.1866883645833326,
          "durationTicks": 23,
          "midi": 61,
          "name": "C#4",
          "ticks": 3984,
          "time": 32.3376715,
          "velocity": 0.5905511811023622
        },
        {
          "duration": 0.21103902083333992,
          "durationTicks": 26,
          "midi": 56,
          "name": "G#3",
          "ticks": 4032,
          "time": 32.727281999999995,
          "velocity": 0.6535433070866141
        },
        {
          "duration": 1.5503251145833303,
          "durationTicks": 191,
          "midi": 42,
          "name": "F#2",
          "ticks": 4080,
          "time": 33.1168925,
          "velocity": 0.7322834645669292
        },
        {
          "duration": 0.1866883645833397,
          "durationTicks": 23,
          "midi": 49,
          "name": "C#3",
          "ticks": 4128,
          "time": 33.506502999999995,
          "velocity": 0.6220472440944882
        },
        {
          "duration": 0.1866883645833326,
          "durationTicks": 23,
          "midi": 54,
          "name": "F#3",
          "ticks": 4176,
          "time": 33.8961135,
          "velocity": 0.6614173228346457
        },
        {
          "duration": 0.1866883645833397,
          "durationTicks": 23,
          "midi": 58,
          "name": "A#3",
          "ticks": 4224,
          "time": 34.285723999999995,
          "velocity": 0.7795275590551181
        },
        {
          "duration": 1.5503251145833374,
          "durationTicks": 191,
          "midi": 41,
          "name": "F2",
          "ticks": 4272,
          "time": 34.6753345,
          "velocity": 0.7322834645669292
        },
        {
          "duration": 0.1866883645833397,
          "durationTicks": 23,
          "midi": 48,
          "name": "C3",
          "ticks": 4320,
          "time": 35.064944999999994,
          "velocity": 0.7007874015748031
        },
        {
          "duration": 0.1866883645833326,
          "durationTicks": 23,
          "midi": 53,
          "name": "F3",
          "ticks": 4368,
          "time": 35.4545555,
          "velocity": 0.6456692913385826
        },
        {
          "duration": 0.1866883645833397,
          "durationTicks": 23,
          "midi": 56,
          "name": "G#3",
          "ticks": 4416,
          "time": 35.844165999999994,
          "velocity": 0.6141732283464567
        },
        {
          "duration": 1.5503251145833374,
          "durationTicks": 191,
          "midi": 46,
          "name": "A#2",
          "ticks": 4464,
          "time": 36.2337765,
          "velocity": 0.7165354330708661
        },
        {
          "duration": 0.1866883645833397,
          "durationTicks": 23,
          "midi": 53,
          "name": "F3",
          "ticks": 4512,
          "time": 36.623386999999994,
          "velocity": 0.5905511811023622
        },
        {
          "duration": 0.1866883645833326,
          "durationTicks": 23,
          "midi": 58,
          "name": "A#3",
          "ticks": 4560,
          "time": 37.0129975,
          "velocity": 0.5196850393700787
        },
        {
          "duration": 0.1866883645833326,
          "durationTicks": 23,
          "midi": 61,
          "name": "C#4",
          "ticks": 4608,
          "time": 37.402608,
          "velocity": 0.6377952755905512
        },
        {
          "duration": 1.5503251145833374,
          "durationTicks": 191,
          "midi": 51,
          "name": "D#3",
          "ticks": 4656,
          "time": 37.7922185,
          "velocity": 0.8661417322834646
        },
        {
          "duration": 0.1866883645833326,
          "durationTicks": 23,
          "midi": 58,
          "name": "A#3",
          "ticks": 4704,
          "time": 38.181829,
          "velocity": 0.6377952755905512
        },
        {
          "duration": 0.1866883645833326,
          "durationTicks": 23,
          "midi": 63,
          "name": "D#4",
          "ticks": 4752,
          "time": 38.5714395,
          "velocity": 0.5905511811023622
        },
        {
          "duration": 0.2110390208333328,
          "durationTicks": 26,
          "midi": 58,
          "name": "A#3",
          "ticks": 4800,
          "time": 38.96105,
          "velocity": 0.6535433070866141
        },
        {
          "duration": 1.5503251145833374,
          "durationTicks": 191,
          "midi": 44,
          "name": "G#2",
          "ticks": 4848,
          "time": 39.3506605,
          "velocity": 0.7322834645669292
        },
        {
          "duration": 0.1866883645833326,
          "durationTicks": 23,
          "midi": 51,
          "name": "D#3",
          "ticks": 4896,
          "time": 39.740271,
          "velocity": 0.6220472440944882
        },
        {
          "duration": 0.1866883645833326,
          "durationTicks": 23,
          "midi": 56,
          "name": "G#3",
          "ticks": 4944,
          "time": 40.129881499999996,
          "velocity": 0.6614173228346457
        },
        {
          "duration": 0.1866883645833326,
          "durationTicks": 23,
          "midi": 60,
          "name": "C4",
          "ticks": 4992,
          "time": 40.519492,
          "velocity": 0.7795275590551181
        },
        {
          "duration": 1.5503251145833374,
          "durationTicks": 191,
          "midi": 49,
          "name": "C#3",
          "ticks": 5040,
          "time": 40.909102499999996,
          "velocity": 0.7322834645669292
        },
        {
          "duration": 0.1866883645833326,
          "durationTicks": 23,
          "midi": 56,
          "name": "G#3",
          "ticks": 5088,
          "time": 41.298713,
          "velocity": 0.7007874015748031
        },
        {
          "duration": 0.1866883645833397,
          "durationTicks": 23,
          "midi": 61,
          "name": "C#4",
          "ticks": 5136,
          "time": 41.688323499999996,
          "velocity": 0.6456692913385826
        },
        {
          "duration": 0.1866883645833326,
          "durationTicks": 23,
          "midi": 65,
          "name": "F4",
          "ticks": 5184,
          "time": 42.077934,
          "velocity": 0.6141732283464567
        },
        {
          "duration": 1.5503251145833374,
          "durationTicks": 191,
          "midi": 42,
          "name": "F#2",
          "ticks": 5232,
          "time": 42.467544499999995,
          "velocity": 0.7165354330708661
        },
        {
          "duration": 0.1866883645833326,
          "durationTicks": 23,
          "midi": 49,
          "name": "C#3",
          "ticks": 5280,
          "time": 42.857155,
          "velocity": 0.5905511811023622
        },
        {
          "duration": 0.1866883645833397,
          "durationTicks": 23,
          "midi": 54,
          "name": "F#3",
          "ticks": 5328,
          "time": 43.246765499999995,
          "velocity": 0.5196850393700787
        },
        {
          "duration": 0.1866883645833326,
          "durationTicks": 23,
          "midi": 58,
          "name": "A#3",
          "ticks": 5376,
          "time": 43.636376,
          "velocity": 0.6377952755905512
        },
        {
          "duration": 1.5503251145833374,
          "durationTicks": 191,
          "midi": 49,
          "name": "C#3",
          "ticks": 5424,
          "time": 44.025986499999995,
          "velocity": 0.8661417322834646
        },
        {
          "duration": 0.1866883645833326,
          "durationTicks": 23,
          "midi": 56,
          "name": "G#3",
          "ticks": 5472,
          "time": 44.415597,
          "velocity": 0.6377952755905512
        },
        {
          "duration": 0.1866883645833397,
          "durationTicks": 23,
          "midi": 61,
          "name": "C#4",
          "ticks": 5520,
          "time": 44.805207499999995,
          "velocity": 0.5905511811023622
        },
        {
          "duration": 0.2110390208333328,
          "durationTicks": 26,
          "midi": 65,
          "name": "F4",
          "ticks": 5568,
          "time": 45.194818,
          "velocity": 0.6535433070866141
        },
        {
          "duration": 1.5503251145833374,
          "durationTicks": 191,
          "midi": 43,
          "name": "G2",
          "ticks": 5616,
          "time": 45.584428499999994,
          "velocity": 0.7322834645669292
        },
        {
          "duration": 0.1866883645833326,
          "durationTicks": 23,
          "midi": 58,
          "name": "A#3",
          "ticks": 5620,
          "time": 45.616896041666664,
          "velocity": 0.6220472440944882
        },
        {
          "duration": 0.1866883645833255,
          "durationTicks": 23,
          "midi": 61,
          "name": "C#4",
          "ticks": 5624,
          "time": 45.64936358333333,
          "velocity": 0.6614173228346457
        },
        {
          "duration": 0.1866883645833397,
          "durationTicks": 23,
          "midi": 65,
          "name": "F4",
          "ticks": 5628,
          "time": 45.681831124999995,
          "velocity": 0.7795275590551181
        },
        {
          "duration": 1.5503251145833374,
          "durationTicks": 191,
          "midi": 42,
          "name": "F#2",
          "ticks": 5808,
          "time": 47.142870499999994,
          "velocity": 0.7322834645669292
        },
        {
          "duration": 0.1866883645833326,
          "durationTicks": 23,
          "midi": 49,
          "name": "C#3",
          "ticks": 5856,
          "time": 47.532481,
          "velocity": 0.7007874015748031
        },
        {
          "duration": 0.1866883645833397,
          "durationTicks": 23,
          "midi": 54,
          "name": "F#3",
          "ticks": 5904,
          "time": 47.92209149999999,
          "velocity": 0.6456692913385826
        },
        {
          "duration": 0.1866883645833326,
          "durationTicks": 23,
          "midi": 58,
          "name": "A#3",
          "ticks": 5952,
          "time": 48.311702,
          "velocity": 0.6141732283464567
        },
        {
          "duration": 1.5503251145833303,
          "durationTicks": 191,
          "midi": 61,
          "name": "C#4",
          "ticks": 6000,
          "time": 48.70131249999999,
          "velocity": 0.7165354330708661
        },
        {
          "duration": 0.1866883645833326,
          "durationTicks": 23,
          "midi": 58,
          "name": "A#3",
          "ticks": 6048,
          "time": 49.090923,
          "velocity": 0.5905511811023622
        },
        {
          "duration": 0.1866883645833397,
          "durationTicks": 23,
          "midi": 54,
          "name": "F#3",
          "ticks": 6096,
          "time": 49.48053349999999,
          "velocity": 0.5196850393700787
        },
        {
          "duration": 0.1866883645833326,
          "durationTicks": 23,
          "midi": 49,
          "name": "C#3",
          "ticks": 6144,
          "time": 49.870143999999996,
          "velocity": 0.6377952755905512
        },
        {
          "duration": 1.5503251145833232,
          "durationTicks": 191,
          "midi": 41,
          "name": "F2",
          "ticks": 6192,
          "time": 50.2597545,
          "velocity": 0.8661417322834646
        },
        {
          "duration": 0.1866883645833326,
          "durationTicks": 23,
          "midi": 48,
          "name": "C3",
          "ticks": 6240,
          "time": 50.649364999999996,
          "velocity": 0.6377952755905512
        },
        {
          "duration": 0.1866883645833255,
          "durationTicks": 23,
          "midi": 53,
          "name": "F3",
          "ticks": 6288,
          "time": 51.0389755,
          "velocity": 0.5905511811023622
        },
        {
          "duration": 0.2110390208333328,
          "durationTicks": 26,
          "midi": 56,
          "name": "G#3",
          "ticks": 6336,
          "time": 51.428585999999996,
          "velocity": 0.6535433070866141
        },
        {
          "duration": 1.5503251145833232,
          "durationTicks": 191,
          "midi": 53,
          "name": "F3",
          "ticks": 6384,
          "time": 51.8181965,
          "velocity": 0.7165354330708661
        },
        {
          "duration": 1.0633119895833403,
          "durationTicks": 131,
          "midi": 56,
          "name": "G#3",
          "ticks": 6386,
          "time": 51.83443027083332,
          "velocity": 0.7637795275590551
        },
        {
          "duration": 0.6737014895833298,
          "durationTicks": 83,
          "midi": 58,
          "name": "A#3",
          "ticks": 6388,
          "time": 51.85066404166667,
          "velocity": 0.7637795275590551
        },
        {
          "duration": 1.4529224895833295,
          "durationTicks": 179,
          "midi": 62,
          "name": "D4",
          "ticks": 6390,
          "time": 51.8668978125,
          "velocity": 0.7007874015748031
        },
        {
          "duration": 1.160714614583327,
          "durationTicks": 143,
          "midi": 60,
          "name": "C4",
          "ticks": 6432,
          "time": 52.207806999999995,
          "velocity": 0.7559055118110236
        },
        {
          "duration": 0.7711041145833235,
          "durationTicks": 95,
          "midi": 58,
          "name": "A#3",
          "ticks": 6480,
          "time": 52.5974175,
          "velocity": 0.6220472440944882
        },
        {
          "duration": 0.3814936145833272,
          "durationTicks": 47,
          "midi": 56,
          "name": "G#3",
          "ticks": 6528,
          "time": 52.987027999999995,
          "velocity": 0.5433070866141733
        },
        {
          "duration": 1.5503251145833303,
          "durationTicks": 191,
          "midi": 39,
          "name": "D#2",
          "ticks": 6576,
          "time": 53.3766385,
          "velocity": 0.7322834645669292
        },
        {
          "duration": 0.1866883645833326,
          "durationTicks": 23,
          "midi": 46,
          "name": "A#2",
          "ticks": 6624,
          "time": 53.766248999999995,
          "velocity": 0.7007874015748031
        },
        {
          "duration": 0.1866883645833255,
          "durationTicks": 23,
          "midi": 51,
          "name": "D#3",
          "ticks": 6672,
          "time": 54.1558595,
          "velocity": 0.6456692913385826
        },
        {
          "duration": 0.1866883645833326,
          "durationTicks": 23,
          "midi": 54,
          "name": "F#3",
          "ticks": 6720,
          "time": 54.545469999999995,
          "velocity": 0.6141732283464567
        },
        {
          "duration": 1.5503251145833303,
          "durationTicks": 191,
          "midi": 58,
          "name": "A#3",
          "ticks": 6768,
          "time": 54.9350805,
          "velocity": 0.7165354330708661
        },
        {
          "duration": 0.1866883645833326,
          "durationTicks": 23,
          "midi": 56,
          "name": "G#3",
          "ticks": 6816,
          "time": 55.324690999999994,
          "velocity": 0.5905511811023622
        },
        {
          "duration": 0.1866883645833255,
          "durationTicks": 23,
          "midi": 54,
          "name": "F#3",
          "ticks": 6864,
          "time": 55.7143015,
          "velocity": 0.5196850393700787
        },
        {
          "duration": 0.1866883645833326,
          "durationTicks": 23,
          "midi": 53,
          "name": "F3",
          "ticks": 6912,
          "time": 56.103911999999994,
          "velocity": 0.6377952755905512
        },
        {
          "duration": 1.5503251145833303,
          "durationTicks": 191,
          "midi": 44,
          "name": "G#2",
          "ticks": 6960,
          "time": 56.4935225,
          "velocity": 0.7322834645669292
        },
        {
          "duration": 0.1866883645833326,
          "durationTicks": 23,
          "midi": 51,
          "name": "D#3",
          "ticks": 7008,
          "time": 56.883132999999994,
          "velocity": 0.7007874015748031
        },
        {
          "duration": 0.1866883645833255,
          "durationTicks": 23,
          "midi": 56,
          "name": "G#3",
          "ticks": 7056,
          "time": 57.2727435,
          "velocity": 0.6456692913385826
        },
        {
          "duration": 0.1866883645833326,
          "durationTicks": 23,
          "midi": 58,
          "name": "A#3",
          "ticks": 7104,
          "time": 57.66235399999999,
          "velocity": 0.6141732283464567
        },
        {
          "duration": 1.5503251145833303,
          "durationTicks": 191,
          "midi": 60,
          "name": "C4",
          "ticks": 7152,
          "time": 58.0519645,
          "velocity": 0.7165354330708661
        },
        {
          "duration": 0.1866883645833255,
          "durationTicks": 23,
          "midi": 56,
          "name": "G#3",
          "ticks": 7248,
          "time": 58.8311855,
          "velocity": 0.5196850393700787
        },
        {
          "duration": 0.1866883645833326,
          "durationTicks": 23,
          "midi": 51,
          "name": "D#3",
          "ticks": 7296,
          "time": 59.22079599999999,
          "velocity": 0.6377952755905512
        },
        {
          "duration": 1.5503251145833303,
          "durationTicks": 191,
          "midi": 42,
          "name": "F#2",
          "ticks": 7344,
          "time": 59.610406499999996,
          "velocity": 0.7322834645669292
        },
        {
          "duration": 0.1866883645833326,
          "durationTicks": 23,
          "midi": 49,
          "name": "C#3",
          "ticks": 7392,
          "time": 60.00001699999999,
          "velocity": 0.7007874015748031
        },
        {
          "duration": 0.1866883645833326,
          "durationTicks": 23,
          "midi": 54,
          "name": "F#3",
          "ticks": 7440,
          "time": 60.389627499999996,
          "velocity": 0.6456692913385826
        },
        {
          "duration": 0.1866883645833326,
          "durationTicks": 23,
          "midi": 58,
          "name": "A#3",
          "ticks": 7488,
          "time": 60.77923799999999,
          "velocity": 0.6141732283464567
        },
        {
          "duration": 1.5503251145833303,
          "durationTicks": 191,
          "midi": 61,
          "name": "C#4",
          "ticks": 7536,
          "time": 61.168848499999996,
          "velocity": 0.7165354330708661
        },
        {
          "duration": 0.1866883645833326,
          "durationTicks": 23,
          "midi": 58,
          "name": "A#3",
          "ticks": 7584,
          "time": 61.55845899999999,
          "velocity": 0.5905511811023622
        },
        {
          "duration": 0.1866883645833326,
          "durationTicks": 23,
          "midi": 54,
          "name": "F#3",
          "ticks": 7632,
          "time": 61.948069499999995,
          "velocity": 0.5196850393700787
        },
        {
          "duration": 0.1866883645833326,
          "durationTicks": 23,
          "midi": 49,
          "name": "C#3",
          "ticks": 7680,
          "time": 62.33767999999999,
          "velocity": 0.6377952755905512
        },
        {
          "duration": 1.5503251145833303,
          "durationTicks": 191,
          "midi": 41,
          "name": "F2",
          "ticks": 7728,
          "time": 62.727290499999995,
          "velocity": 0.8661417322834646
        },
        {
          "duration": 0.1866883645833255,
          "durationTicks": 23,
          "midi": 48,
          "name": "C3",
          "ticks": 7776,
          "time": 63.116901,
          "velocity": 0.6377952755905512
        },
        {
          "duration": 0.1866883645833326,
          "durationTicks": 23,
          "midi": 53,
          "name": "F3",
          "ticks": 7824,
          "time": 63.506511499999995,
          "velocity": 0.5905511811023622
        },
        {
          "duration": 0.2110390208333328,
          "durationTicks": 26,
          "midi": 56,
          "name": "G#3",
          "ticks": 7872,
          "time": 63.896122,
          "velocity": 0.6535433070866141
        },
        {
          "duration": 1.5503251145833303,
          "durationTicks": 191,
          "midi": 53,
          "name": "F3",
          "ticks": 7920,
          "time": 64.2857325,
          "velocity": 0.7165354330708661
        },
        {
          "duration": 1.0633119895833403,
          "durationTicks": 131,
          "midi": 56,
          "name": "G#3",
          "ticks": 7922,
          "time": 64.30196627083332,
          "velocity": 0.7637795275590551
        },
        {
          "duration": 0.6737014895833227,
          "durationTicks": 83,
          "midi": 58,
          "name": "A#3",
          "ticks": 7924,
          "time": 64.31820004166667,
          "velocity": 0.7637795275590551
        },
        {
          "duration": 1.4529224895833295,
          "durationTicks": 179,
          "midi": 62,
          "name": "D4",
          "ticks": 7926,
          "time": 64.3344338125,
          "velocity": 0.7007874015748031
        },
        {
          "duration": 1.160714614583327,
          "durationTicks": 143,
          "midi": 60,
          "name": "C4",
          "ticks": 7968,
          "time": 64.675343,
          "velocity": 0.7559055118110236
        },
        {
          "duration": 0.7711041145833235,
          "durationTicks": 95,
          "midi": 58,
          "name": "A#3",
          "ticks": 8016,
          "time": 65.0649535,
          "velocity": 0.6220472440944882
        },
        {
          "duration": 0.3814936145833343,
          "durationTicks": 47,
          "midi": 56,
          "name": "G#3",
          "ticks": 8064,
          "time": 65.45456399999999,
          "velocity": 0.5433070866141733
        },
        {
          "duration": 1.5503251145833303,
          "durationTicks": 191,
          "midi": 51,
          "name": "D#3",
          "ticks": 8112,
          "time": 65.8441745,
          "velocity": 0.7322834645669292
        },
        {
          "duration": 0.1866883645833326,
          "durationTicks": 23,
          "midi": 58,
          "name": "A#3",
          "ticks": 8160,
          "time": 66.233785,
          "velocity": 0.7007874015748031
        },
        {
          "duration": 0.1866883645833184,
          "durationTicks": 23,
          "midi": 63,
          "name": "D#4",
          "ticks": 8208,
          "time": 66.6233955,
          "velocity": 0.6456692913385826
        },
        {
          "duration": 0.1866883645833326,
          "durationTicks": 23,
          "midi": 66,
          "name": "F#4",
          "ticks": 8256,
          "time": 67.01300599999999,
          "velocity": 0.6141732283464567
        },
        {
          "duration": 1.5503251145833303,
          "durationTicks": 191,
          "midi": 68,
          "name": "G#4",
          "ticks": 8304,
          "time": 67.4026165,
          "velocity": 0.7165354330708661
        },
        {
          "duration": 0.1866883645833326,
          "durationTicks": 23,
          "midi": 66,
          "name": "F#4",
          "ticks": 8352,
          "time": 67.792227,
          "velocity": 0.5905511811023622
        },
        {
          "duration": 0.1866883645833184,
          "durationTicks": 23,
          "midi": 63,
          "name": "D#4",
          "ticks": 8400,
          "time": 68.1818375,
          "velocity": 0.5196850393700787
        },
        {
          "duration": 0.1866883645833326,
          "durationTicks": 23,
          "midi": 58,
          "name": "A#3",
          "ticks": 8448,
          "time": 68.57144799999999,
          "velocity": 0.6377952755905512
        },
        {
          "duration": 1.5503251145833303,
          "durationTicks": 191,
          "midi": 44,
          "name": "G#2",
          "ticks": 8496,
          "time": 68.9610585,
          "velocity": 0.7322834645669292
        },
        {
          "duration": 0.1866883645833326,
          "durationTicks": 23,
          "midi": 51,
          "name": "D#3",
          "ticks": 8544,
          "time": 69.350669,
          "velocity": 0.7007874015748031
        },
        {
          "duration": 0.1866883645833184,
          "durationTicks": 23,
          "midi": 56,
          "name": "G#3",
          "ticks": 8592,
          "time": 69.7402795,
          "velocity": 0.6456692913385826
        },
        {
          "duration": 0.1866883645833326,
          "durationTicks": 23,
          "midi": 58,
          "name": "A#3",
          "ticks": 8640,
          "time": 70.12988999999999,
          "velocity": 0.6141732283464567
        },
        {
          "duration": 1.5503251145833303,
          "durationTicks": 191,
          "midi": 60,
          "name": "C4",
          "ticks": 8688,
          "time": 70.51950049999999,
          "velocity": 0.7165354330708661
        },
        {
          "duration": 0.1866883645833184,
          "durationTicks": 23,
          "midi": 56,
          "name": "G#3",
          "ticks": 8784,
          "time": 71.2987215,
          "velocity": 0.5196850393700787
        },
        {
          "duration": 0.1866883645833326,
          "durationTicks": 23,
          "midi": 51,
          "name": "D#3",
          "ticks": 8832,
          "time": 71.68833199999999,
          "velocity": 0.6377952755905512
        },
        {
          "duration": 1.5503251145833303,
          "durationTicks": 191,
          "midi": 49,
          "name": "C#3",
          "ticks": 8880,
          "time": 72.07794249999999,
          "velocity": 0.7322834645669292
        },
        {
          "duration": 0.1866883645833326,
          "durationTicks": 23,
          "midi": 56,
          "name": "G#3",
          "ticks": 8928,
          "time": 72.467553,
          "velocity": 0.7007874015748031
        },
        {
          "duration": 0.1866883645833326,
          "durationTicks": 23,
          "midi": 61,
          "name": "C#4",
          "ticks": 8976,
          "time": 72.8571635,
          "velocity": 0.6456692913385826
        },
        {
          "duration": 0.1866883645833326,
          "durationTicks": 23,
          "midi": 65,
          "name": "F4",
          "ticks": 9024,
          "time": 73.24677399999999,
          "velocity": 0.6141732283464567
        },
        {
          "duration": 1.5503251145833303,
          "durationTicks": 191,
          "midi": 42,
          "name": "F#2",
          "ticks": 9072,
          "time": 73.63638449999999,
          "velocity": 0.7165354330708661
        },
        {
          "duration": 0.1866883645833326,
          "durationTicks": 23,
          "midi": 49,
          "name": "C#3",
          "ticks": 9120,
          "time": 74.025995,
          "velocity": 0.5905511811023622
        },
        {
          "duration": 0.1866883645833326,
          "durationTicks": 23,
          "midi": 54,
          "name": "F#3",
          "ticks": 9168,
          "time": 74.4156055,
          "velocity": 0.5196850393700787
        },
        {
          "duration": 0.1866883645833184,
          "durationTicks": 23,
          "midi": 58,
          "name": "A#3",
          "ticks": 9216,
          "time": 74.805216,
          "velocity": 0.6377952755905512
        },
        {
          "duration": 1.5503251145833303,
          "durationTicks": 191,
          "midi": 49,
          "name": "C#3",
          "ticks": 9264,
          "time": 75.19482649999999,
          "velocity": 0.8661417322834646
        },
        {
          "duration": 0.1866883645833326,
          "durationTicks": 23,
          "midi": 56,
          "name": "G#3",
          "ticks": 9312,
          "time": 75.584437,
          "velocity": 0.6377952755905512
        },
        {
          "duration": 0.1866883645833326,
          "durationTicks": 23,
          "midi": 61,
          "name": "C#4",
          "ticks": 9360,
          "time": 75.9740475,
          "velocity": 0.5905511811023622
        },
        {
          "duration": 0.2110390208333257,
          "durationTicks": 26,
          "midi": 65,
          "name": "F4",
          "ticks": 9408,
          "time": 76.363658,
          "velocity": 0.6535433070866141
        },
        {
          "duration": 1.5503251145833303,
          "durationTicks": 191,
          "midi": 42,
          "name": "F#2",
          "ticks": 9456,
          "time": 76.75326849999999,
          "velocity": 0.7322834645669292
        },
        {
          "duration": 0.1866883645833326,
          "durationTicks": 23,
          "midi": 49,
          "name": "C#3",
          "ticks": 9504,
          "time": 77.142879,
          "velocity": 0.6220472440944882
        },
        {
          "duration": 0.1866883645833326,
          "durationTicks": 23,
          "midi": 54,
          "name": "F#3",
          "ticks": 9552,
          "time": 77.5324895,
          "velocity": 0.6614173228346457
        },
        {
          "duration": 0.1866883645833184,
          "durationTicks": 23,
          "midi": 58,
          "name": "A#3",
          "ticks": 9600,
          "time": 77.9221,
          "velocity": 0.7795275590551181
        },
        {
          "duration": 1.5503251145833303,
          "durationTicks": 191,
          "midi": 49,
          "name": "C#3",
          "ticks": 9648,
          "time": 78.31171049999999,
          "velocity": 0.7322834645669292
        },
        {
          "duration": 0.1866883645833326,
          "durationTicks": 23,
          "midi": 56,
          "name": "G#3",
          "ticks": 9696,
          "time": 78.701321,
          "velocity": 0.7007874015748031
        },
        {
          "duration": 0.1866883645833326,
          "durationTicks": 23,
          "midi": 61,
          "name": "C#4",
          "ticks": 9744,
          "time": 79.0909315,
          "velocity": 0.6456692913385826
        },
        {
          "duration": 0.1866883645833184,
          "durationTicks": 23,
          "midi": 65,
          "name": "F4",
          "ticks": 9792,
          "time": 79.480542,
          "velocity": 0.6141732283464567
        },
        {
          "duration": 1.5503251145833303,
          "durationTicks": 191,
          "midi": 42,
          "name": "F#2",
          "ticks": 9840,
          "time": 79.87015249999999,
          "velocity": 0.7165354330708661
        },
        {
          "duration": 0.1866883645833326,
          "durationTicks": 23,
          "midi": 49,
          "name": "C#3",
          "ticks": 9888,
          "time": 80.25976299999999,
          "velocity": 0.5905511811023622
        },
        {
          "duration": 0.1866883645833326,
          "durationTicks": 23,
          "midi": 54,
          "name": "F#3",
          "ticks": 9936,
          "time": 80.6493735,
          "velocity": 0.5196850393700787
        },
        {
          "duration": 0.1866883645833184,
          "durationTicks": 23,
          "midi": 58,
          "name": "A#3",
          "ticks": 9984,
          "time": 81.038984,
          "velocity": 0.6377952755905512
        },
        {
          "duration": 1.5503251145833303,
          "durationTicks": 191,
          "midi": 49,
          "name": "C#3",
          "ticks": 10032,
          "time": 81.42859449999999,
          "velocity": 0.8661417322834646
        },
        {
          "duration": 0.1866883645833326,
          "durationTicks": 23,
          "midi": 56,
          "name": "G#3",
          "ticks": 10080,
          "time": 81.81820499999999,
          "velocity": 0.6377952755905512
        },
        {
          "duration": 0.1866883645833326,
          "durationTicks": 23,
          "midi": 61,
          "name": "C#4",
          "ticks": 10128,
          "time": 82.2078155,
          "velocity": 0.5905511811023622
        },
        {
          "duration": 0.2110390208333257,
          "durationTicks": 26,
          "midi": 65,
          "name": "F4",
          "ticks": 10176,
          "time": 82.597426,
          "velocity": 0.6535433070866141
        },
        {
          "duration": 1.5503251145833303,
          "durationTicks": 191,
          "midi": 42,
          "name": "F#2",
          "ticks": 10224,
          "time": 82.98703649999999,
          "velocity": 0.7322834645669292
        },
        {
          "duration": 0.1866883645833326,
          "durationTicks": 23,
          "midi": 49,
          "name": "C#3",
          "ticks": 10272,
          "time": 83.37664699999999,
          "velocity": 0.6220472440944882
        },
        {
          "duration": 0.1866883645833326,
          "durationTicks": 23,
          "midi": 54,
          "name": "F#3",
          "ticks": 10320,
          "time": 83.7662575,
          "velocity": 0.6614173228346457
        },
        {
          "duration": 0.1866883645833184,
          "durationTicks": 23,
          "midi": 56,
          "name": "G#3",
          "ticks": 10368,
          "time": 84.155868,
          "velocity": 0.7795275590551181
        },
        {
          "duration": 1.5503251145833303,
          "durationTicks": 191,
          "midi": 49,
          "name": "C#3",
          "ticks": 10416,
          "time": 84.54547849999999,
          "velocity": 0.7322834645669292
        },
        {
          "duration": 0.1866883645833326,
          "durationTicks": 23,
          "midi": 56,
          "name": "G#3",
          "ticks": 10464,
          "time": 84.93508899999999,
          "velocity": 0.7007874015748031
        },
        {
          "duration": 0.1866883645833326,
          "durationTicks": 23,
          "midi": 61,
          "name": "C#4",
          "ticks": 10512,
          "time": 85.3246995,
          "velocity": 0.6456692913385826
        },
        {
          "duration": 0.1866883645833326,
          "durationTicks": 23,
          "midi": 65,
          "name": "F4",
          "ticks": 10560,
          "time": 85.71431,
          "velocity": 0.6141732283464567
        },
        {
          "duration": 1.5503251145833303,
          "durationTicks": 191,
          "midi": 42,
          "name": "F#2",
          "ticks": 10608,
          "time": 86.10392049999999,
          "velocity": 0.7165354330708661
        },
        {
          "duration": 0.1866883645833326,
          "durationTicks": 23,
          "midi": 49,
          "name": "C#3",
          "ticks": 10656,
          "time": 86.49353099999999,
          "velocity": 0.5905511811023622
        },
        {
          "duration": 0.1866883645833326,
          "durationTicks": 23,
          "midi": 54,
          "name": "F#3",
          "ticks": 10704,
          "time": 86.8831415,
          "velocity": 0.5196850393700787
        },
        {
          "duration": 0.1866883645833326,
          "durationTicks": 23,
          "midi": 58,
          "name": "A#3",
          "ticks": 10752,
          "time": 87.272752,
          "velocity": 0.6377952755905512
        },
        {
          "duration": 1.5503251145833161,
          "durationTicks": 191,
          "midi": 49,
          "name": "C#3",
          "ticks": 10800,
          "time": 87.6623625,
          "velocity": 0.8661417322834646
        },
        {
          "duration": 0.1866883645833326,
          "durationTicks": 23,
          "midi": 56,
          "name": "G#3",
          "ticks": 10848,
          "time": 88.05197299999999,
          "velocity": 0.6377952755905512
        },
        {
          "duration": 0.1866883645833326,
          "durationTicks": 23,
          "midi": 61,
          "name": "C#4",
          "ticks": 10896,
          "time": 88.4415835,
          "velocity": 0.5905511811023622
        },
        {
          "duration": 0.2110390208333257,
          "durationTicks": 26,
          "midi": 56,
          "name": "G#3",
          "ticks": 10944,
          "time": 88.831194,
          "velocity": 0.6535433070866141
        },
        {
          "duration": 1.5503251145833161,
          "durationTicks": 191,
          "midi": 42,
          "name": "F#2",
          "ticks": 10992,
          "time": 89.2208045,
          "velocity": 0.7322834645669292
        },
        {
          "duration": 0.1866883645833326,
          "durationTicks": 23,
          "midi": 49,
          "name": "C#3",
          "ticks": 11040,
          "time": 89.61041499999999,
          "velocity": 0.6220472440944882
        },
        {
          "duration": 0.1866883645833326,
          "durationTicks": 23,
          "midi": 54,
          "name": "F#3",
          "ticks": 11088,
          "time": 90.00002549999999,
          "velocity": 0.6614173228346457
        },
        {
          "duration": 0.1866883645833326,
          "durationTicks": 23,
          "midi": 58,
          "name": "A#3",
          "ticks": 11136,
          "time": 90.389636,
          "velocity": 0.7795275590551181
        },
        {
          "duration": 1.5503251145833303,
          "durationTicks": 191,
          "midi": 41,
          "name": "F2",
          "ticks": 11184,
          "time": 90.7792465,
          "velocity": 0.7322834645669292
        },
        {
          "duration": 0.1866883645833326,
          "durationTicks": 23,
          "midi": 48,
          "name": "C3",
          "ticks": 11232,
          "time": 91.16885699999999,
          "velocity": 0.7007874015748031
        },
        {
          "duration": 0.1866883645833326,
          "durationTicks": 23,
          "midi": 53,
          "name": "F3",
          "ticks": 11280,
          "time": 91.55846749999999,
          "velocity": 0.6456692913385826
        },
        {
          "duration": 0.1866883645833326,
          "durationTicks": 23,
          "midi": 56,
          "name": "G#3",
          "ticks": 11328,
          "time": 91.948078,
          "velocity": 0.6141732283464567
        },
        {
          "duration": 1.5503251145833303,
          "durationTicks": 191,
          "midi": 46,
          "name": "A#2",
          "ticks": 11376,
          "time": 92.3376885,
          "velocity": 0.7165354330708661
        },
        {
          "duration": 0.1866883645833326,
          "durationTicks": 23,
          "midi": 53,
          "name": "F3",
          "ticks": 11424,
          "time": 92.72729899999999,
          "velocity": 0.5905511811023622
        },
        {
          "duration": 0.1866883645833326,
          "durationTicks": 23,
          "midi": 58,
          "name": "A#3",
          "ticks": 11472,
          "time": 93.11690949999999,
          "velocity": 0.5196850393700787
        },
        {
          "duration": 0.1866883645833326,
          "durationTicks": 23,
          "midi": 61,
          "name": "C#4",
          "ticks": 11520,
          "time": 93.50652,
          "velocity": 0.6377952755905512
        },
        {
          "duration": 1.5503251145833303,
          "durationTicks": 191,
          "midi": 51,
          "name": "D#3",
          "ticks": 11568,
          "time": 93.8961305,
          "velocity": 0.8661417322834646
        },
        {
          "duration": 0.1866883645833326,
          "durationTicks": 23,
          "midi": 58,
          "name": "A#3",
          "ticks": 11616,
          "time": 94.28574099999999,
          "velocity": 0.6377952755905512
        },
        {
          "duration": 0.1866883645833326,
          "durationTicks": 23,
          "midi": 63,
          "name": "D#4",
          "ticks": 11664,
          "time": 94.67535149999999,
          "velocity": 0.5905511811023622
        },
        {
          "duration": 0.2110390208333257,
          "durationTicks": 26,
          "midi": 58,
          "name": "A#3",
          "ticks": 11712,
          "time": 95.064962,
          "velocity": 0.6535433070866141
        },
        {
          "duration": 1.5503251145833303,
          "durationTicks": 191,
          "midi": 44,
          "name": "G#2",
          "ticks": 11760,
          "time": 95.4545725,
          "velocity": 0.7322834645669292
        },
        {
          "duration": 0.1866883645833326,
          "durationTicks": 23,
          "midi": 51,
          "name": "D#3",
          "ticks": 11808,
          "time": 95.84418299999999,
          "velocity": 0.6220472440944882
        },
        {
          "duration": 0.1866883645833326,
          "durationTicks": 23,
          "midi": 56,
          "name": "G#3",
          "ticks": 11856,
          "time": 96.23379349999999,
          "velocity": 0.6614173228346457
        },
        {
          "duration": 0.1866883645833326,
          "durationTicks": 23,
          "midi": 60,
          "name": "C4",
          "ticks": 11904,
          "time": 96.623404,
          "velocity": 0.7795275590551181
        },
        {
          "duration": 1.5503251145833303,
          "durationTicks": 191,
          "midi": 49,
          "name": "C#3",
          "ticks": 11952,
          "time": 97.0130145,
          "velocity": 0.7322834645669292
        },
        {
          "duration": 0.1866883645833326,
          "durationTicks": 23,
          "midi": 56,
          "name": "G#3",
          "ticks": 12000,
          "time": 97.40262499999999,
          "velocity": 0.7007874015748031
        },
        {
          "duration": 0.1866883645833326,
          "durationTicks": 23,
          "midi": 61,
          "name": "C#4",
          "ticks": 12048,
          "time": 97.79223549999999,
          "velocity": 0.6456692913385826
        },
        {
          "duration": 0.1866883645833326,
          "durationTicks": 23,
          "midi": 65,
          "name": "F4",
          "ticks": 12096,
          "time": 98.181846,
          "velocity": 0.6141732283464567
        },
        {
          "duration": 1.5503251145833303,
          "durationTicks": 191,
          "midi": 42,
          "name": "F#2",
          "ticks": 12144,
          "time": 98.5714565,
          "velocity": 0.7165354330708661
        },
        {
          "duration": 0.1866883645833326,
          "durationTicks": 23,
          "midi": 49,
          "name": "C#3",
          "ticks": 12192,
          "time": 98.96106699999999,
          "velocity": 0.5905511811023622
        },
        {
          "duration": 0.1866883645833326,
          "durationTicks": 23,
          "midi": 54,
          "name": "F#3",
          "ticks": 12240,
          "time": 99.35067749999999,
          "velocity": 0.5196850393700787
        },
        {
          "duration": 0.1866883645833468,
          "durationTicks": 23,
          "midi": 58,
          "name": "A#3",
          "ticks": 12288,
          "time": 99.74028799999999,
          "velocity": 0.6377952755905512
        },
        {
          "duration": 1.5503251145833303,
          "durationTicks": 191,
          "midi": 49,
          "name": "C#3",
          "ticks": 12336,
          "time": 100.1298985,
          "velocity": 0.8661417322834646
        },
        {
          "duration": 0.1866883645833326,
          "durationTicks": 23,
          "midi": 56,
          "name": "G#3",
          "ticks": 12384,
          "time": 100.519509,
          "velocity": 0.6377952755905512
        },
        {
          "duration": 0.1866883645833468,
          "durationTicks": 23,
          "midi": 61,
          "name": "C#4",
          "ticks": 12432,
          "time": 100.90911949999999,
          "velocity": 0.5905511811023622
        },
        {
          "duration": 0.21103902083333992,
          "durationTicks": 26,
          "midi": 56,
          "name": "G#3",
          "ticks": 12480,
          "time": 101.29872999999999,
          "velocity": 0.6535433070866141
        },
        {
          "duration": 1.5503251145833445,
          "durationTicks": 191,
          "midi": 42,
          "name": "F#2",
          "ticks": 12528,
          "time": 101.6883405,
          "velocity": 0.7322834645669292
        },
        {
          "duration": 0.1866883645833326,
          "durationTicks": 23,
          "midi": 49,
          "name": "C#3",
          "ticks": 12576,
          "time": 102.077951,
          "velocity": 0.6220472440944882
        },
        {
          "duration": 0.1866883645833468,
          "durationTicks": 23,
          "midi": 54,
          "name": "F#3",
          "ticks": 12624,
          "time": 102.46756149999999,
          "velocity": 0.6614173228346457
        },
        {
          "duration": 0.1866883645833468,
          "durationTicks": 23,
          "midi": 58,
          "name": "A#3",
          "ticks": 12672,
          "time": 102.85717199999999,
          "velocity": 0.7795275590551181
        },
        {
          "duration": 1.5503251145833445,
          "durationTicks": 191,
          "midi": 41,
          "name": "F2",
          "ticks": 12720,
          "time": 103.2467825,
          "velocity": 0.7322834645669292
        },
        {
          "duration": 0.1866883645833326,
          "durationTicks": 23,
          "midi": 48,
          "name": "C3",
          "ticks": 12768,
          "time": 103.636393,
          "velocity": 0.7007874015748031
        },
        {
          "duration": 0.1866883645833468,
          "durationTicks": 23,
          "midi": 53,
          "name": "F3",
          "ticks": 12816,
          "time": 104.02600349999999,
          "velocity": 0.6456692913385826
        },
        {
          "duration": 0.1866883645833468,
          "durationTicks": 23,
          "midi": 56,
          "name": "G#3",
          "ticks": 12864,
          "time": 104.41561399999999,
          "velocity": 0.6141732283464567
        },
        {
          "duration": 1.5503251145833445,
          "durationTicks": 191,
          "midi": 46,
          "name": "A#2",
          "ticks": 12912,
          "time": 104.8052245,
          "velocity": 0.7165354330708661
        },
        {
          "duration": 0.1866883645833326,
          "durationTicks": 23,
          "midi": 53,
          "name": "F3",
          "ticks": 12960,
          "time": 105.194835,
          "velocity": 0.5905511811023622
        },
        {
          "duration": 0.1866883645833468,
          "durationTicks": 23,
          "midi": 58,
          "name": "A#3",
          "ticks": 13008,
          "time": 105.58444549999999,
          "velocity": 0.5196850393700787
        },
        {
          "duration": 0.1866883645833468,
          "durationTicks": 23,
          "midi": 61,
          "name": "C#4",
          "ticks": 13056,
          "time": 105.97405599999999,
          "velocity": 0.6377952755905512
        },
        {
          "duration": 1.5503251145833445,
          "durationTicks": 191,
          "midi": 51,
          "name": "D#3",
          "ticks": 13104,
          "time": 106.3636665,
          "velocity": 0.8661417322834646
        },
        {
          "duration": 0.1866883645833326,
          "durationTicks": 23,
          "midi": 58,
          "name": "A#3",
          "ticks": 13152,
          "time": 106.753277,
          "velocity": 0.6377952755905512
        },
        {
          "duration": 0.1866883645833468,
          "durationTicks": 23,
          "midi": 63,
          "name": "D#4",
          "ticks": 13200,
          "time": 107.14288749999999,
          "velocity": 0.5905511811023622
        },
        {
          "duration": 0.21103902083333992,
          "durationTicks": 26,
          "midi": 58,
          "name": "A#3",
          "ticks": 13248,
          "time": 107.53249799999999,
          "velocity": 0.6535433070866141
        },
        {
          "duration": 1.5503251145833445,
          "durationTicks": 191,
          "midi": 44,
          "name": "G#2",
          "ticks": 13296,
          "time": 107.9221085,
          "velocity": 0.7322834645669292
        },
        {
          "duration": 0.1866883645833326,
          "durationTicks": 23,
          "midi": 51,
          "name": "D#3",
          "ticks": 13344,
          "time": 108.311719,
          "velocity": 0.6220472440944882
        },
        {
          "duration": 0.1866883645833468,
          "durationTicks": 23,
          "midi": 56,
          "name": "G#3",
          "ticks": 13392,
          "time": 108.70132949999999,
          "velocity": 0.6614173228346457
        },
        {
          "duration": 0.1866883645833468,
          "durationTicks": 23,
          "midi": 60,
          "name": "C4",
          "ticks": 13440,
          "time": 109.09093999999999,
          "velocity": 0.7795275590551181
        },
        {
          "duration": 1.5503251145833445,
          "durationTicks": 191,
          "midi": 49,
          "name": "C#3",
          "ticks": 13488,
          "time": 109.48055049999999,
          "velocity": 0.905511811023622
        },
        {
          "duration": 0.1866883645833326,
          "durationTicks": 23,
          "midi": 56,
          "name": "G#3",
          "ticks": 13536,
          "time": 109.870161,
          "velocity": 0.7007874015748031
        },
        {
          "duration": 0.1866883645833468,
          "durationTicks": 23,
          "midi": 61,
          "name": "C#4",
          "ticks": 13584,
          "time": 110.25977149999999,
          "velocity": 0.6456692913385826
        },
        {
          "duration": 0.1866883645833468,
          "durationTicks": 23,
          "midi": 65,
          "name": "F4",
          "ticks": 13632,
          "time": 110.64938199999999,
          "velocity": 0.6141732283464567
        },
        {
          "duration": 1.5503251145833445,
          "durationTicks": 191,
          "midi": 42,
          "name": "F#2",
          "ticks": 13680,
          "time": 111.03899249999999,
          "velocity": 0.905511811023622
        },
        {
          "duration": 0.1866883645833326,
          "durationTicks": 23,
          "midi": 49,
          "name": "C#3",
          "ticks": 13728,
          "time": 111.428603,
          "velocity": 0.5905511811023622
        },
        {
          "duration": 0.1866883645833468,
          "durationTicks": 23,
          "midi": 54,
          "name": "F#3",
          "ticks": 13776,
          "time": 111.81821349999998,
          "velocity": 0.5196850393700787
        },
        {
          "duration": 0.1866883645833468,
          "durationTicks": 23,
          "midi": 58,
          "name": "A#3",
          "ticks": 13824,
          "time": 112.20782399999999,
          "velocity": 0.6377952755905512
        },
        {
          "duration": 1.5503251145833445,
          "durationTicks": 191,
          "midi": 49,
          "name": "C#3",
          "ticks": 13872,
          "time": 112.59743449999999,
          "velocity": 0.905511811023622
        },
        {
          "duration": 0.1866883645833326,
          "durationTicks": 23,
          "midi": 56,
          "name": "G#3",
          "ticks": 13920,
          "time": 112.987045,
          "velocity": 0.7007874015748031
        },
        {
          "duration": 0.1866883645833326,
          "durationTicks": 23,
          "midi": 61,
          "name": "C#4",
          "ticks": 13968,
          "time": 113.3766555,
          "velocity": 0.6456692913385826
        },
        {
          "duration": 0.1866883645833468,
          "durationTicks": 23,
          "midi": 65,
          "name": "F4",
          "ticks": 14016,
          "time": 113.76626599999999,
          "velocity": 0.6141732283464567
        },
        {
          "duration": 1.5503251145833445,
          "durationTicks": 191,
          "midi": 42,
          "name": "F#2",
          "ticks": 14064,
          "time": 114.15587649999999,
          "velocity": 0.905511811023622
        },
        {
          "duration": 0.1866883645833326,
          "durationTicks": 23,
          "midi": 49,
          "name": "C#3",
          "ticks": 14112,
          "time": 114.545487,
          "velocity": 0.5905511811023622
        },
        {
          "duration": 0.1866883645833326,
          "durationTicks": 23,
          "midi": 54,
          "name": "F#3",
          "ticks": 14160,
          "time": 114.9350975,
          "velocity": 0.5196850393700787
        },
        {
          "duration": 0.1866883645833468,
          "durationTicks": 23,
          "midi": 58,
          "name": "A#3",
          "ticks": 14208,
          "time": 115.32470799999999,
          "velocity": 0.6377952755905512
        },
        {
          "duration": 1.5503251145833445,
          "durationTicks": 191,
          "midi": 49,
          "name": "C#3",
          "ticks": 14256,
          "time": 115.71431849999999,
          "velocity": 0.905511811023622
        },
        {
          "duration": 0.1866883645833326,
          "durationTicks": 23,
          "midi": 56,
          "name": "G#3",
          "ticks": 14304,
          "time": 116.103929,
          "velocity": 0.7007874015748031
        },
        {
          "duration": 0.1866883645833326,
          "durationTicks": 23,
          "midi": 61,
          "name": "C#4",
          "ticks": 14352,
          "time": 116.4935395,
          "velocity": 0.6456692913385826
        },
        {
          "duration": 0.1866883645833468,
          "durationTicks": 23,
          "midi": 65,
          "name": "F4",
          "ticks": 14400,
          "time": 116.88314999999999,
          "velocity": 0.6141732283464567
        },
        {
          "duration": 1.5503251145833445,
          "durationTicks": 191,
          "midi": 42,
          "name": "F#2",
          "ticks": 14448,
          "time": 117.27276049999999,
          "velocity": 0.905511811023622
        },
        {
          "duration": 0.1866883645833326,
          "durationTicks": 23,
          "midi": 49,
          "name": "C#3",
          "ticks": 14496,
          "time": 117.662371,
          "velocity": 0.5905511811023622
        },
        {
          "duration": 0.1866883645833326,
          "durationTicks": 23,
          "midi": 54,
          "name": "F#3",
          "ticks": 14544,
          "time": 118.0519815,
          "velocity": 0.5196850393700787
        },
        {
          "duration": 0.1866883645833468,
          "durationTicks": 23,
          "midi": 58,
          "name": "A#3",
          "ticks": 14592,
          "time": 118.44159199999999,
          "velocity": 0.6377952755905512
        },
        {
          "duration": 1.5503251145833445,
          "durationTicks": 191,
          "midi": 49,
          "name": "C#3",
          "ticks": 14640,
          "time": 118.83120249999999,
          "velocity": 0.9133858267716536
        },
        {
          "duration": 0.1866883645833326,
          "durationTicks": 23,
          "midi": 56,
          "name": "G#3",
          "ticks": 14688,
          "time": 119.22081299999999,
          "velocity": 0.6377952755905512
        },
        {
          "duration": 0.1866883645833326,
          "durationTicks": 23,
          "midi": 61,
          "name": "C#4",
          "ticks": 14736,
          "time": 119.6104235,
          "velocity": 0.5905511811023622
        },
        {
          "duration": 0.21103902083333992,
          "durationTicks": 26,
          "midi": 65,
          "name": "F4",
          "ticks": 14784,
          "time": 120.00003399999999,
          "velocity": 0.6535433070866141
        },
        {
          "duration": 3.108767114583344,
          "durationTicks": 383,
          "midi": 43,
          "name": "G2",
          "ticks": 14832,
          "time": 120.38964449999999,
          "velocity": 0.905511811023622
        },
        {
          "duration": 0.1866883645833468,
          "durationTicks": 23,
          "midi": 58,
          "name": "A#3",
          "ticks": 14836,
          "time": 120.42211204166665,
          "velocity": 0.6220472440944882
        },
        {
          "duration": 0.1866883645833184,
          "durationTicks": 23,
          "midi": 61,
          "name": "C#4",
          "ticks": 14840,
          "time": 120.45457958333333,
          "velocity": 0.6614173228346457
        },
        {
          "duration": 0.1866883645833468,
          "durationTicks": 23,
          "midi": 65,
          "name": "F4",
          "ticks": 14844,
          "time": 120.48704712499999,
          "velocity": 0.7795275590551181
        },
        {
          "duration": 1.5503251145833445,
          "durationTicks": 191,
          "midi": 42,
          "name": "F#2",
          "ticks": 15216,
          "time": 123.50652849999999,
          "velocity": 0.7322834645669292
        },
        {
          "duration": 0.1866883645833468,
          "durationTicks": 23,
          "midi": 49,
          "name": "C#3",
          "ticks": 15264,
          "time": 123.89613899999999,
          "velocity": 0.7007874015748031
        },
        {
          "duration": 0.1866883645833326,
          "durationTicks": 23,
          "midi": 54,
          "name": "F#3",
          "ticks": 15312,
          "time": 124.2857495,
          "velocity": 0.6456692913385826
        },
        {
          "duration": 0.1866883645833468,
          "durationTicks": 23,
          "midi": 58,
          "name": "A#3",
          "ticks": 15360,
          "time": 124.67535999999998,
          "velocity": 0.6141732283464567
        },
        {
          "duration": 1.5503251145833445,
          "durationTicks": 191,
          "midi": 61,
          "name": "C#4",
          "ticks": 15408,
          "time": 125.06497049999999,
          "velocity": 0.7165354330708661
        },
        {
          "duration": 0.1866883645833468,
          "durationTicks": 23,
          "midi": 58,
          "name": "A#3",
          "ticks": 15456,
          "time": 125.45458099999999,
          "velocity": 0.5905511811023622
        },
        {
          "duration": 0.1866883645833326,
          "durationTicks": 23,
          "midi": 54,
          "name": "F#3",
          "ticks": 15504,
          "time": 125.8441915,
          "velocity": 0.5196850393700787
        },
        {
          "duration": 0.1866883645833326,
          "durationTicks": 23,
          "midi": 49,
          "name": "C#3",
          "ticks": 15552,
          "time": 126.233802,
          "velocity": 0.6377952755905512
        },
        {
          "duration": 1.5503251145833445,
          "durationTicks": 191,
          "midi": 41,
          "name": "F2",
          "ticks": 15600,
          "time": 126.62341249999999,
          "velocity": 0.8661417322834646
        },
        {
          "duration": 0.1866883645833468,
          "durationTicks": 23,
          "midi": 48,
          "name": "C3",
          "ticks": 15648,
          "time": 127.01302299999999,
          "velocity": 0.6377952755905512
        },
        {
          "duration": 0.1866883645833326,
          "durationTicks": 23,
          "midi": 53,
          "name": "F3",
          "ticks": 15696,
          "time": 127.4026335,
          "velocity": 0.5905511811023622
        },
        {
          "duration": 0.2110390208333257,
          "durationTicks": 26,
          "midi": 56,
          "name": "G#3",
          "ticks": 15744,
          "time": 127.792244,
          "velocity": 0.6535433070866141
        },
        {
          "duration": 1.5503251145833588,
          "durationTicks": 191,
          "midi": 53,
          "name": "F3",
          "ticks": 15792,
          "time": 128.1818545,
          "velocity": 0.7165354330708661
        },
        {
          "duration": 1.063311989583326,
          "durationTicks": 131,
          "midi": 56,
          "name": "G#3",
          "ticks": 15794,
          "time": 128.19808827083332,
          "velocity": 0.7637795275590551
        },
        {
          "duration": 0.6737014895833227,
          "durationTicks": 83,
          "midi": 58,
          "name": "A#3",
          "ticks": 15796,
          "time": 128.21432204166666,
          "velocity": 0.7637795275590551
        },
        {
          "duration": 1.4529224895833295,
          "durationTicks": 179,
          "midi": 62,
          "name": "D4",
          "ticks": 15798,
          "time": 128.2305558125,
          "velocity": 0.7007874015748031
        },
        {
          "duration": 1.1607146145833553,
          "durationTicks": 143,
          "midi": 60,
          "name": "C4",
          "ticks": 15840,
          "time": 128.571465,
          "velocity": 0.7559055118110236
        },
        {
          "duration": 0.7711041145833519,
          "durationTicks": 95,
          "midi": 58,
          "name": "A#3",
          "ticks": 15888,
          "time": 128.9610755,
          "velocity": 0.6220472440944882
        },
        {
          "duration": 0.3814936145833485,
          "durationTicks": 47,
          "midi": 56,
          "name": "G#3",
          "ticks": 15936,
          "time": 129.350686,
          "velocity": 0.5433070866141733
        },
        {
          "duration": 1.5503251145833303,
          "durationTicks": 191,
          "midi": 39,
          "name": "D#2",
          "ticks": 15984,
          "time": 129.7402965,
          "velocity": 0.7322834645669292
        },
        {
          "duration": 0.1866883645833184,
          "durationTicks": 23,
          "midi": 46,
          "name": "A#2",
          "ticks": 16032,
          "time": 130.129907,
          "velocity": 0.7007874015748031
        },
        {
          "duration": 0.1866883645833468,
          "durationTicks": 23,
          "midi": 51,
          "name": "D#3",
          "ticks": 16080,
          "time": 130.51951749999998,
          "velocity": 0.6456692913385826
        },
        {
          "duration": 0.1866883645833468,
          "durationTicks": 23,
          "midi": 54,
          "name": "F#3",
          "ticks": 16128,
          "time": 130.90912799999998,
          "velocity": 0.6141732283464567
        },
        {
          "duration": 1.5503251145833588,
          "durationTicks": 191,
          "midi": 58,
          "name": "A#3",
          "ticks": 16176,
          "time": 131.29873849999998,
          "velocity": 0.7165354330708661
        },
        {
          "duration": 0.1866883645833468,
          "durationTicks": 23,
          "midi": 56,
          "name": "G#3",
          "ticks": 16224,
          "time": 131.688349,
          "velocity": 0.5905511811023622
        },
        {
          "duration": 0.1866883645833468,
          "durationTicks": 23,
          "midi": 54,
          "name": "F#3",
          "ticks": 16272,
          "time": 132.0779595,
          "velocity": 0.5196850393700787
        },
        {
          "duration": 0.1866883645833468,
          "durationTicks": 23,
          "midi": 53,
          "name": "F3",
          "ticks": 16320,
          "time": 132.46757,
          "velocity": 0.6377952755905512
        },
        {
          "duration": 1.5503251145833303,
          "durationTicks": 191,
          "midi": 44,
          "name": "G#2",
          "ticks": 16368,
          "time": 132.8571805,
          "velocity": 0.7322834645669292
        },
        {
          "duration": 0.1866883645833184,
          "durationTicks": 23,
          "midi": 51,
          "name": "D#3",
          "ticks": 16416,
          "time": 133.246791,
          "velocity": 0.7007874015748031
        },
        {
          "duration": 0.1866883645833468,
          "durationTicks": 23,
          "midi": 56,
          "name": "G#3",
          "ticks": 16464,
          "time": 133.63640149999998,
          "velocity": 0.6456692913385826
        },
        {
          "duration": 0.1866883645833468,
          "durationTicks": 23,
          "midi": 58,
          "name": "A#3",
          "ticks": 16512,
          "time": 134.02601199999998,
          "velocity": 0.6141732283464567
        },
        {
          "duration": 1.5503251145833588,
          "durationTicks": 191,
          "midi": 60,
          "name": "C4",
          "ticks": 16560,
          "time": 134.41562249999998,
          "velocity": 0.7165354330708661
        },
        {
          "duration": 0.1866883645833468,
          "durationTicks": 23,
          "midi": 56,
          "name": "G#3",
          "ticks": 16656,
          "time": 135.1948435,
          "velocity": 0.5196850393700787
        },
        {
          "duration": 0.1866883645833468,
          "durationTicks": 23,
          "midi": 51,
          "name": "D#3",
          "ticks": 16704,
          "time": 135.584454,
          "velocity": 0.6377952755905512
        },
        {
          "duration": 1.5503251145833303,
          "durationTicks": 191,
          "midi": 42,
          "name": "F#2",
          "ticks": 16752,
          "time": 135.9740645,
          "velocity": 0.7322834645669292
        },
        {
          "duration": 0.1866883645833184,
          "durationTicks": 23,
          "midi": 49,
          "name": "C#3",
          "ticks": 16800,
          "time": 136.363675,
          "velocity": 0.7007874015748031
        },
        {
          "duration": 0.1866883645833468,
          "durationTicks": 23,
          "midi": 54,
          "name": "F#3",
          "ticks": 16848,
          "time": 136.75328549999998,
          "velocity": 0.6456692913385826
        },
        {
          "duration": 0.1866883645833468,
          "durationTicks": 23,
          "midi": 58,
          "name": "A#3",
          "ticks": 16896,
          "time": 137.14289599999998,
          "velocity": 0.6141732283464567
        },
        {
          "duration": 1.5503251145833588,
          "durationTicks": 191,
          "midi": 61,
          "name": "C#4",
          "ticks": 16944,
          "time": 137.53250649999998,
          "velocity": 0.7165354330708661
        },
        {
          "duration": 0.1866883645833468,
          "durationTicks": 23,
          "midi": 58,
          "name": "A#3",
          "ticks": 16992,
          "time": 137.922117,
          "velocity": 0.5905511811023622
        },
        {
          "duration": 0.1866883645833468,
          "durationTicks": 23,
          "midi": 54,
          "name": "F#3",
          "ticks": 17040,
          "time": 138.3117275,
          "velocity": 0.5196850393700787
        },
        {
          "duration": 0.1866883645833468,
          "durationTicks": 23,
          "midi": 49,
          "name": "C#3",
          "ticks": 17088,
          "time": 138.701338,
          "velocity": 0.6377952755905512
        },
        {
          "duration": 1.5503251145833303,
          "durationTicks": 191,
          "midi": 41,
          "name": "F2",
          "ticks": 17136,
          "time": 139.0909485,
          "velocity": 0.8661417322834646
        },
        {
          "duration": 0.1866883645833184,
          "durationTicks": 23,
          "midi": 48,
          "name": "C3",
          "ticks": 17184,
          "time": 139.480559,
          "velocity": 0.6377952755905512
        },
        {
          "duration": 0.1866883645833184,
          "durationTicks": 23,
          "midi": 53,
          "name": "F3",
          "ticks": 17232,
          "time": 139.8701695,
          "velocity": 0.5905511811023622
        },
        {
          "duration": 0.21103902083333992,
          "durationTicks": 26,
          "midi": 56,
          "name": "G#3",
          "ticks": 17280,
          "time": 140.25977999999998,
          "velocity": 0.6535433070866141
        },
        {
          "duration": 1.5503251145833588,
          "durationTicks": 191,
          "midi": 53,
          "name": "F3",
          "ticks": 17328,
          "time": 140.64939049999998,
          "velocity": 0.7165354330708661
        },
        {
          "duration": 1.063311989583326,
          "durationTicks": 131,
          "midi": 56,
          "name": "G#3",
          "ticks": 17330,
          "time": 140.66562427083332,
          "velocity": 0.7637795275590551
        },
        {
          "duration": 0.6737014895833227,
          "durationTicks": 83,
          "midi": 58,
          "name": "A#3",
          "ticks": 17332,
          "time": 140.68185804166666,
          "velocity": 0.7637795275590551
        },
        {
          "duration": 1.4529224895833295,
          "durationTicks": 179,
          "midi": 62,
          "name": "D4",
          "ticks": 17334,
          "time": 140.6980918125,
          "velocity": 0.7007874015748031
        },
        {
          "duration": 1.1607146145833553,
          "durationTicks": 143,
          "midi": 60,
          "name": "C4",
          "ticks": 17376,
          "time": 141.03900099999998,
          "velocity": 0.7559055118110236
        },
        {
          "duration": 0.7711041145833519,
          "durationTicks": 95,
          "midi": 58,
          "name": "A#3",
          "ticks": 17424,
          "time": 141.4286115,
          "velocity": 0.6220472440944882
        },
        {
          "duration": 0.3814936145833485,
          "durationTicks": 47,
          "midi": 56,
          "name": "G#3",
          "ticks": 17472,
          "time": 141.818222,
          "velocity": 0.5433070866141733
        },
        {
          "duration": 1.5503251145833303,
          "durationTicks": 191,
          "midi": 51,
          "name": "D#3",
          "ticks": 17520,
          "time": 142.2078325,
          "velocity": 0.7322834645669292
        },
        {
          "duration": 0.1866883645833184,
          "durationTicks": 23,
          "midi": 58,
          "name": "A#3",
          "ticks": 17568,
          "time": 142.597443,
          "velocity": 0.7007874015748031
        },
        {
          "duration": 0.1866883645833184,
          "durationTicks": 23,
          "midi": 63,
          "name": "D#4",
          "ticks": 17616,
          "time": 142.9870535,
          "velocity": 0.6456692913385826
        },
        {
          "duration": 0.1866883645833468,
          "durationTicks": 23,
          "midi": 66,
          "name": "F#4",
          "ticks": 17664,
          "time": 143.37666399999998,
          "velocity": 0.6141732283464567
        },
        {
          "duration": 1.5503251145833588,
          "durationTicks": 191,
          "midi": 68,
          "name": "G#4",
          "ticks": 17712,
          "time": 143.76627449999998,
          "velocity": 0.7165354330708661
        },
        {
          "duration": 0.1866883645833468,
          "durationTicks": 23,
          "midi": 66,
          "name": "F#4",
          "ticks": 17760,
          "time": 144.15588499999998,
          "velocity": 0.5905511811023622
        },
        {
          "duration": 0.1866883645833468,
          "durationTicks": 23,
          "midi": 63,
          "name": "D#4",
          "ticks": 17808,
          "time": 144.5454955,
          "velocity": 0.5196850393700787
        },
        {
          "duration": 0.1866883645833468,
          "durationTicks": 23,
          "midi": 58,
          "name": "A#3",
          "ticks": 17856,
          "time": 144.935106,
          "velocity": 0.6377952755905512
        },
        {
          "duration": 1.5503251145833303,
          "durationTicks": 191,
          "midi": 44,
          "name": "G#2",
          "ticks": 17904,
          "time": 145.3247165,
          "velocity": 0.7322834645669292
        },
        {
          "duration": 0.1866883645833184,
          "durationTicks": 23,
          "midi": 51,
          "name": "D#3",
          "ticks": 17952,
          "time": 145.714327,
          "velocity": 0.7007874015748031
        },
        {
          "duration": 0.1866883645833184,
          "durationTicks": 23,
          "midi": 56,
          "name": "G#3",
          "ticks": 18000,
          "time": 146.1039375,
          "velocity": 0.6456692913385826
        },
        {
          "duration": 0.1866883645833468,
          "durationTicks": 23,
          "midi": 58,
          "name": "A#3",
          "ticks": 18048,
          "time": 146.49354799999998,
          "velocity": 0.6141732283464567
        },
        {
          "duration": 1.5503251145833588,
          "durationTicks": 191,
          "midi": 60,
          "name": "C4",
          "ticks": 18096,
          "time": 146.88315849999998,
          "velocity": 0.7165354330708661
        },
        {
          "duration": 0.1866883645833468,
          "durationTicks": 23,
          "midi": 56,
          "name": "G#3",
          "ticks": 18192,
          "time": 147.6623795,
          "velocity": 0.5196850393700787
        },
        {
          "duration": 0.1866883645833468,
          "durationTicks": 23,
          "midi": 51,
          "name": "D#3",
          "ticks": 18240,
          "time": 148.05199,
          "velocity": 0.6377952755905512
        },
        {
          "duration": 1.5503251145833303,
          "durationTicks": 191,
          "midi": 49,
          "name": "C#3",
          "ticks": 18288,
          "time": 148.4416005,
          "velocity": 0.7322834645669292
        },
        {
          "duration": 0.1866883645833468,
          "durationTicks": 23,
          "midi": 56,
          "name": "G#3",
          "ticks": 18336,
          "time": 148.831211,
          "velocity": 0.7007874015748031
        },
        {
          "duration": 0.1866883645833184,
          "durationTicks": 23,
          "midi": 61,
          "name": "C#4",
          "ticks": 18384,
          "time": 149.2208215,
          "velocity": 0.6456692913385826
        },
        {
          "duration": 0.1866883645833184,
          "durationTicks": 23,
          "midi": 65,
          "name": "F4",
          "ticks": 18432,
          "time": 149.610432,
          "velocity": 0.6141732283464567
        },
        {
          "duration": 1.5503251145833588,
          "durationTicks": 191,
          "midi": 42,
          "name": "F#2",
          "ticks": 18480,
          "time": 150.00004249999998,
          "velocity": 0.7165354330708661
        },
        {
          "duration": 0.1866883645833468,
          "durationTicks": 23,
          "midi": 49,
          "name": "C#3",
          "ticks": 18528,
          "time": 150.38965299999998,
          "velocity": 0.5905511811023622
        },
        {
          "duration": 0.1866883645833468,
          "durationTicks": 23,
          "midi": 54,
          "name": "F#3",
          "ticks": 18576,
          "time": 150.77926349999998,
          "velocity": 0.5196850393700787
        },
        {
          "duration": 0.1866883645833468,
          "durationTicks": 23,
          "midi": 58,
          "name": "A#3",
          "ticks": 18624,
          "time": 151.168874,
          "velocity": 0.6377952755905512
        },
        {
          "duration": 1.5503251145833303,
          "durationTicks": 191,
          "midi": 49,
          "name": "C#3",
          "ticks": 18672,
          "time": 151.5584845,
          "velocity": 0.8661417322834646
        },
        {
          "duration": 0.1866883645833468,
          "durationTicks": 23,
          "midi": 56,
          "name": "G#3",
          "ticks": 18720,
          "time": 151.948095,
          "velocity": 0.6377952755905512
        },
        {
          "duration": 0.1866883645833184,
          "durationTicks": 23,
          "midi": 61,
          "name": "C#4",
          "ticks": 18768,
          "time": 152.3377055,
          "velocity": 0.5905511811023622
        },
        {
          "duration": 0.21103902083333992,
          "durationTicks": 26,
          "midi": 65,
          "name": "F4",
          "ticks": 18816,
          "time": 152.727316,
          "velocity": 0.6535433070866141
        },
        {
          "duration": 1.5503251145833588,
          "durationTicks": 191,
          "midi": 42,
          "name": "F#2",
          "ticks": 18864,
          "time": 153.11692649999998,
          "velocity": 0.7322834645669292
        },
        {
          "duration": 0.1866883645833468,
          "durationTicks": 23,
          "midi": 49,
          "name": "C#3",
          "ticks": 18912,
          "time": 153.50653699999998,
          "velocity": 0.6220472440944882
        },
        {
          "duration": 0.1866883645833468,
          "durationTicks": 23,
          "midi": 54,
          "name": "F#3",
          "ticks": 18960,
          "time": 153.89614749999998,
          "velocity": 0.6614173228346457
        },
        {
          "duration": 0.1866883645833468,
          "durationTicks": 23,
          "midi": 58,
          "name": "A#3",
          "ticks": 19008,
          "time": 154.285758,
          "velocity": 0.7795275590551181
        },
        {
          "duration": 1.5503251145833303,
          "durationTicks": 191,
          "midi": 49,
          "name": "C#3",
          "ticks": 19056,
          "time": 154.6753685,
          "velocity": 0.7322834645669292
        },
        {
          "duration": 0.1866883645833468,
          "durationTicks": 23,
          "midi": 56,
          "name": "G#3",
          "ticks": 19104,
          "time": 155.064979,
          "velocity": 0.7007874015748031
        },
        {
          "duration": 0.1866883645833184,
          "durationTicks": 23,
          "midi": 61,
          "name": "C#4",
          "ticks": 19152,
          "time": 155.4545895,
          "velocity": 0.6456692913385826
        },
        {
          "duration": 0.1866883645833184,
          "durationTicks": 23,
          "midi": 65,
          "name": "F4",
          "ticks": 19200,
          "time": 155.8442,
          "velocity": 0.6141732283464567
        },
        {
          "duration": 1.5503251145833588,
          "durationTicks": 191,
          "midi": 42,
          "name": "F#2",
          "ticks": 19248,
          "time": 156.23381049999998,
          "velocity": 0.7165354330708661
        },
        {
          "duration": 0.1866883645833468,
          "durationTicks": 23,
          "midi": 49,
          "name": "C#3",
          "ticks": 19296,
          "time": 156.62342099999998,
          "velocity": 0.5905511811023622
        },
        {
          "duration": 0.1866883645833468,
          "durationTicks": 23,
          "midi": 54,
          "name": "F#3",
          "ticks": 19344,
          "time": 157.01303149999998,
          "velocity": 0.5196850393700787
        },
        {
          "duration": 0.1866883645833468,
          "durationTicks": 23,
          "midi": 58,
          "name": "A#3",
          "ticks": 19392,
          "time": 157.402642,
          "velocity": 0.6377952755905512
        },
        {
          "duration": 1.5503251145833303,
          "durationTicks": 191,
          "midi": 49,
          "name": "C#3",
          "ticks": 19440,
          "time": 157.7922525,
          "velocity": 0.8661417322834646
        },
        {
          "duration": 0.1866883645833468,
          "durationTicks": 23,
          "midi": 56,
          "name": "G#3",
          "ticks": 19488,
          "time": 158.181863,
          "velocity": 0.6377952755905512
        },
        {
          "duration": 0.1866883645833184,
          "durationTicks": 23,
          "midi": 61,
          "name": "C#4",
          "ticks": 19536,
          "time": 158.5714735,
          "velocity": 0.5905511811023622
        },
        {
          "duration": 0.21103902083333992,
          "durationTicks": 26,
          "midi": 65,
          "name": "F4",
          "ticks": 19584,
          "time": 158.961084,
          "velocity": 0.6535433070866141
        },
        {
          "duration": 1.7716613020834018,
          "durationTicks": 191,
          "midi": 42,
          "name": "F#2",
          "ticks": 19632,
          "time": 159.35069449999997,
          "velocity": 0.7322834645669292
        },
        {
          "duration": 0.1866883645833468,
          "durationTicks": 23,
          "midi": 49,
          "name": "C#3",
          "ticks": 19680,
          "time": 159.74030499999998,
          "velocity": 0.6220472440944882
        },
        {
          "duration": 0.1916172500000073,
          "durationTicks": 23,
          "midi": 54,
          "name": "F#3",
          "ticks": 19728,
          "time": 160.12991549999998,
          "velocity": 0.6614173228346457
        },
        {
          "duration": 0.252279322916678,
          "durationTicks": 23,
          "midi": 56,
          "name": "G#3",
          "ticks": 19776,
          "time": 160.55770037500002,
          "velocity": 0.7795275590551181
        },
        {
          "duration": 5.1594877499999825,
          "durationTicks": 575,
          "midi": 49,
          "name": "C#3",
          "ticks": 19824,
          "time": 161.13656034375003,
          "velocity": 0.7322834645669292
        },
        {
          "duration": 5.140608312499978,
          "durationTicks": 575,
          "midi": 53,
          "name": "F3",
          "ticks": 19827,
          "time": 161.17917396875004,
          "velocity": 0.7322834645669292
        },
        {
          "duration": 5.128022020833299,
          "durationTicks": 575,
          "midi": 56,
          "name": "G#3",
          "ticks": 19829,
          "time": 161.20758305208338,
          "velocity": 0.7322834645669292
        },
        {
          "duration": 5.109142583333295,
          "durationTicks": 575,
          "midi": 61,
          "name": "C#4",
          "ticks": 19832,
          "time": 161.25019667708338,
          "velocity": 0.7322834645669292
        }
      ]
    },
    {
      "channel": 0,
      "controlChanges": {
        "0": [
          {
            "number": 0,
            "ticks": 0,
            "time": 0,
            "value": 0
          }
        ],
        "32": [
          {
            "number": 32,
            "ticks": 0,
            "time": 0,
            "value": 0.015748031496062992
          }
        ]
      },
      "pitchBends": [],
      "instrument": {
        "family": "piano",
        "number": 0,
        "name": "acoustic grand piano"
      },
      "name": "",
      "notes": [],
      "endOfTrackTicks": 19152
    },
    {
      "channel": 10,
      "controlChanges": {
        "1": [
          {
            "number": 1,
            "ticks": 5904,
            "time": 47.92209149999999,
            "value": 0.015748031496062992
          },
          {
            "number": 1,
            "ticks": 5910,
            "time": 47.970792812499994,
            "value": 0.03937007874015748
          },
          {
            "number": 1,
            "ticks": 5917,
            "time": 48.02761101041666,
            "value": 0.06299212598425197
          },
          {
            "number": 1,
            "ticks": 5924,
            "time": 48.08442920833333,
            "value": 0.09448818897637795
          },
          {
            "number": 1,
            "ticks": 5931,
            "time": 48.141247406249995,
            "value": 0.11811023622047244
          },
          {
            "number": 1,
            "ticks": 5938,
            "time": 48.19806560416666,
            "value": 0.14960629921259844
          },
          {
            "number": 1,
            "ticks": 5945,
            "time": 48.254883802083334,
            "value": 0.1732283464566929
          },
          {
            "number": 1,
            "ticks": 5952,
            "time": 48.311702,
            "value": 0.1968503937007874
          },
          {
            "number": 1,
            "ticks": 5958,
            "time": 48.3604033125,
            "value": 0.2283464566929134
          },
          {
            "number": 1,
            "ticks": 5965,
            "time": 48.41722151041666,
            "value": 0.25196850393700787
          },
          {
            "number": 1,
            "ticks": 5972,
            "time": 48.47403970833333,
            "value": 0.28346456692913385
          },
          {
            "number": 1,
            "ticks": 5979,
            "time": 48.53085790625,
            "value": 0.30708661417322836
          },
          {
            "number": 1,
            "ticks": 5986,
            "time": 48.58767610416666,
            "value": 0.33858267716535434
          },
          {
            "number": 1,
            "ticks": 5993,
            "time": 48.64449430208333,
            "value": 0.36220472440944884
          },
          {
            "number": 1,
            "ticks": 5999,
            "time": 48.69319561458333,
            "value": 0.3937007874015748
          },
          {
            "number": 1,
            "ticks": 6096,
            "time": 49.48053349999999,
            "value": 0
          },
          {
            "number": 1,
            "ticks": 6240,
            "time": 50.649364999999996,
            "value": 0.015748031496062992
          },
          {
            "number": 1,
            "ticks": 6246,
            "time": 50.698066312499996,
            "value": 0.03937007874015748
          },
          {
            "number": 1,
            "ticks": 6253,
            "time": 50.754884510416666,
            "value": 0.06299212598425197
          },
          {
            "number": 1,
            "ticks": 6260,
            "time": 50.81170270833333,
            "value": 0.09448818897637795
          },
          {
            "number": 1,
            "ticks": 6267,
            "time": 50.86852090625,
            "value": 0.11811023622047244
          },
          {
            "number": 1,
            "ticks": 6274,
            "time": 50.92533910416667,
            "value": 0.14960629921259844
          },
          {
            "number": 1,
            "ticks": 6281,
            "time": 50.98215730208332,
            "value": 0.1732283464566929
          },
          {
            "number": 1,
            "ticks": 6288,
            "time": 51.0389755,
            "value": 0.1968503937007874
          },
          {
            "number": 1,
            "ticks": 6294,
            "time": 51.08767681249999,
            "value": 0.2283464566929134
          },
          {
            "number": 1,
            "ticks": 6301,
            "time": 51.14449501041667,
            "value": 0.25196850393700787
          },
          {
            "number": 1,
            "ticks": 6308,
            "time": 51.201313208333325,
            "value": 0.28346456692913385
          },
          {
            "number": 1,
            "ticks": 6315,
            "time": 51.258131406249994,
            "value": 0.30708661417322836
          },
          {
            "number": 1,
            "ticks": 6322,
            "time": 51.314949604166664,
            "value": 0.33858267716535434
          },
          {
            "number": 1,
            "ticks": 6329,
            "time": 51.371767802083326,
            "value": 0.36220472440944884
          },
          {
            "number": 1,
            "ticks": 6335,
            "time": 51.42046911458333,
            "value": 0.3937007874015748
          },
          {
            "number": 1,
            "ticks": 6384,
            "time": 51.8181965,
            "value": 0
          },
          {
            "number": 1,
            "ticks": 6480,
            "time": 52.5974175,
            "value": 0.015748031496062992
          },
          {
            "number": 1,
            "ticks": 6486,
            "time": 52.6461188125,
            "value": 0.06299212598425197
          },
          {
            "number": 1,
            "ticks": 6493,
            "time": 52.70293701041667,
            "value": 0.11811023622047244
          },
          {
            "number": 1,
            "ticks": 6500,
            "time": 52.759755208333324,
            "value": 0.1732283464566929
          },
          {
            "number": 1,
            "ticks": 6507,
            "time": 52.816573406249994,
            "value": 0.2283464566929134
          },
          {
            "number": 1,
            "ticks": 6514,
            "time": 52.87339160416666,
            "value": 0.28346456692913385
          },
          {
            "number": 1,
            "ticks": 6521,
            "time": 52.930209802083326,
            "value": 0.33070866141732286
          },
          {
            "number": 1,
            "ticks": 6527,
            "time": 52.978911114583326,
            "value": 0.3937007874015748
          },
          {
            "number": 1,
            "ticks": 6576,
            "time": 53.3766385,
            "value": 0
          },
          {
            "number": 1,
            "ticks": 6816,
            "time": 55.324690999999994,
            "value": 0.015748031496062992
          },
          {
            "number": 1,
            "ticks": 6822,
            "time": 55.373392312499995,
            "value": 0.03937007874015748
          },
          {
            "number": 1,
            "ticks": 6829,
            "time": 55.430210510416664,
            "value": 0.06299212598425197
          },
          {
            "number": 1,
            "ticks": 6836,
            "time": 55.48702870833333,
            "value": 0.09448818897637795
          },
          {
            "number": 1,
            "ticks": 6843,
            "time": 55.543846906249996,
            "value": 0.11811023622047244
          },
          {
            "number": 1,
            "ticks": 6850,
            "time": 55.600665104166666,
            "value": 0.14960629921259844
          },
          {
            "number": 1,
            "ticks": 6857,
            "time": 55.65748330208333,
            "value": 0.1732283464566929
          },
          {
            "number": 1,
            "ticks": 6864,
            "time": 55.7143015,
            "value": 0.1968503937007874
          },
          {
            "number": 1,
            "ticks": 6870,
            "time": 55.7630028125,
            "value": 0.2283464566929134
          },
          {
            "number": 1,
            "ticks": 6877,
            "time": 55.81982101041667,
            "value": 0.25196850393700787
          },
          {
            "number": 1,
            "ticks": 6884,
            "time": 55.87663920833332,
            "value": 0.28346456692913385
          },
          {
            "number": 1,
            "ticks": 6891,
            "time": 55.93345740624999,
            "value": 0.30708661417322836
          },
          {
            "number": 1,
            "ticks": 6898,
            "time": 55.99027560416667,
            "value": 0.33858267716535434
          },
          {
            "number": 1,
            "ticks": 6905,
            "time": 56.047093802083324,
            "value": 0.36220472440944884
          },
          {
            "number": 1,
            "ticks": 6911,
            "time": 56.095795114583325,
            "value": 0.3937007874015748
          },
          {
            "number": 1,
            "ticks": 6960,
            "time": 56.4935225,
            "value": 0
          },
          {
            "number": 1,
            "ticks": 7032,
            "time": 57.077938249999995,
            "value": 0.015748031496062992
          },
          {
            "number": 1,
            "ticks": 7038,
            "time": 57.126639562499996,
            "value": 0.06299212598425197
          },
          {
            "number": 1,
            "ticks": 7045,
            "time": 57.183457760416665,
            "value": 0.11811023622047244
          },
          {
            "number": 1,
            "ticks": 7052,
            "time": 57.24027595833333,
            "value": 0.1732283464566929
          },
          {
            "number": 1,
            "ticks": 7059,
            "time": 57.29709415625,
            "value": 0.2283464566929134
          },
          {
            "number": 1,
            "ticks": 7066,
            "time": 57.35391235416667,
            "value": 0.28346456692913385
          },
          {
            "number": 1,
            "ticks": 7073,
            "time": 57.41073055208332,
            "value": 0.33070866141732286
          },
          {
            "number": 1,
            "ticks": 7079,
            "time": 57.45943186458332,
            "value": 0.3937007874015748
          },
          {
            "number": 1,
            "ticks": 7152,
            "time": 58.0519645,
            "value": 0
          },
          {
            "number": 1,
            "ticks": 7200,
            "time": 58.44157499999999,
            "value": 0.015748031496062992
          },
          {
            "number": 1,
            "ticks": 7206,
            "time": 58.490276312499994,
            "value": 0.06299212598425197
          },
          {
            "number": 1,
            "ticks": 7213,
            "time": 58.54709451041666,
            "value": 0.11811023622047244
          },
          {
            "number": 1,
            "ticks": 7220,
            "time": 58.603912708333326,
            "value": 0.1732283464566929
          },
          {
            "number": 1,
            "ticks": 7227,
            "time": 58.660730906249995,
            "value": 0.2283464566929134
          },
          {
            "number": 1,
            "ticks": 7234,
            "time": 58.717549104166665,
            "value": 0.28346456692913385
          },
          {
            "number": 1,
            "ticks": 7241,
            "time": 58.77436730208333,
            "value": 0.33070866141732286
          },
          {
            "number": 1,
            "ticks": 7247,
            "time": 58.82306861458333,
            "value": 0.3937007874015748
          },
          {
            "number": 1,
            "ticks": 7320,
            "time": 59.415601249999995,
            "value": 0
          },
          {
            "number": 1,
            "ticks": 7440,
            "time": 60.389627499999996,
            "value": 0.015748031496062992
          },
          {
            "number": 1,
            "ticks": 7446,
            "time": 60.438328812499996,
            "value": 0.03937007874015748
          },
          {
            "number": 1,
            "ticks": 7453,
            "time": 60.495147010416666,
            "value": 0.06299212598425197
          },
          {
            "number": 1,
            "ticks": 7460,
            "time": 60.55196520833333,
            "value": 0.09448818897637795
          },
          {
            "number": 1,
            "ticks": 7467,
            "time": 60.60878340625,
            "value": 0.11811023622047244
          },
          {
            "number": 1,
            "ticks": 7474,
            "time": 60.66560160416667,
            "value": 0.14960629921259844
          },
          {
            "number": 1,
            "ticks": 7481,
            "time": 60.72241980208332,
            "value": 0.1732283464566929
          },
          {
            "number": 1,
            "ticks": 7488,
            "time": 60.77923799999999,
            "value": 0.1968503937007874
          },
          {
            "number": 1,
            "ticks": 7494,
            "time": 60.82793931249999,
            "value": 0.2283464566929134
          },
          {
            "number": 1,
            "ticks": 7501,
            "time": 60.88475751041666,
            "value": 0.25196850393700787
          },
          {
            "number": 1,
            "ticks": 7508,
            "time": 60.941575708333325,
            "value": 0.28346456692913385
          },
          {
            "number": 1,
            "ticks": 7515,
            "time": 60.998393906249994,
            "value": 0.30708661417322836
          },
          {
            "number": 1,
            "ticks": 7522,
            "time": 61.055212104166664,
            "value": 0.33858267716535434
          },
          {
            "number": 1,
            "ticks": 7529,
            "time": 61.112030302083326,
            "value": 0.36220472440944884
          },
          {
            "number": 1,
            "ticks": 7535,
            "time": 61.16073161458333,
            "value": 0.3937007874015748
          },
          {
            "number": 1,
            "ticks": 7632,
            "time": 61.948069499999995,
            "value": 0
          },
          {
            "number": 1,
            "ticks": 7968,
            "time": 64.675343,
            "value": 0.015748031496062992
          },
          {
            "number": 1,
            "ticks": 7974,
            "time": 64.7240443125,
            "value": 0.06299212598425197
          },
          {
            "number": 1,
            "ticks": 7981,
            "time": 64.78086251041667,
            "value": 0.11811023622047244
          },
          {
            "number": 1,
            "ticks": 7988,
            "time": 64.83768070833332,
            "value": 0.1732283464566929
          },
          {
            "number": 1,
            "ticks": 7995,
            "time": 64.89449890624999,
            "value": 0.2283464566929134
          },
          {
            "number": 1,
            "ticks": 8002,
            "time": 64.95131710416666,
            "value": 0.28346456692913385
          },
          {
            "number": 1,
            "ticks": 8009,
            "time": 65.00813530208332,
            "value": 0.33070866141732286
          },
          {
            "number": 1,
            "ticks": 8015,
            "time": 65.05683661458332,
            "value": 0.3937007874015748
          },
          {
            "number": 1,
            "ticks": 8064,
            "time": 65.45456399999999,
            "value": 0
          },
          {
            "number": 1,
            "ticks": 8064,
            "time": 65.45456399999999,
            "value": 0.015748031496062992
          },
          {
            "number": 1,
            "ticks": 8070,
            "time": 65.50326531249999,
            "value": 0.06299212598425197
          },
          {
            "number": 1,
            "ticks": 8077,
            "time": 65.56008351041666,
            "value": 0.11811023622047244
          },
          {
            "number": 1,
            "ticks": 8084,
            "time": 65.61690170833333,
            "value": 0.1732283464566929
          },
          {
            "number": 1,
            "ticks": 8091,
            "time": 65.67371990625,
            "value": 0.2283464566929134
          },
          {
            "number": 1,
            "ticks": 8098,
            "time": 65.73053810416667,
            "value": 0.28346456692913385
          },
          {
            "number": 1,
            "ticks": 8105,
            "time": 65.78735630208332,
            "value": 0.33070866141732286
          },
          {
            "number": 1,
            "ticks": 8111,
            "time": 65.83605761458332,
            "value": 0.3937007874015748
          },
          {
            "number": 1,
            "ticks": 8160,
            "time": 66.233785,
            "value": 0
          },
          {
            "number": 1,
            "ticks": 8184,
            "time": 66.42859025,
            "value": 0.015748031496062992
          },
          {
            "number": 1,
            "ticks": 8190,
            "time": 66.4772915625,
            "value": 0.06299212598425197
          },
          {
            "number": 1,
            "ticks": 8197,
            "time": 66.53410976041667,
            "value": 0.11811023622047244
          },
          {
            "number": 1,
            "ticks": 8204,
            "time": 66.59092795833332,
            "value": 0.1732283464566929
          },
          {
            "number": 1,
            "ticks": 8211,
            "time": 66.64774615625,
            "value": 0.2283464566929134
          },
          {
            "number": 1,
            "ticks": 8218,
            "time": 66.70456435416666,
            "value": 0.28346456692913385
          },
          {
            "number": 1,
            "ticks": 8225,
            "time": 66.76138255208332,
            "value": 0.33070866141732286
          },
          {
            "number": 1,
            "ticks": 8231,
            "time": 66.81008386458332,
            "value": 0.3937007874015748
          },
          {
            "number": 1,
            "ticks": 8280,
            "time": 67.20781124999999,
            "value": 0
          },
          {
            "number": 1,
            "ticks": 8352,
            "time": 67.792227,
            "value": 0.015748031496062992
          },
          {
            "number": 1,
            "ticks": 8358,
            "time": 67.8409283125,
            "value": 0.03937007874015748
          },
          {
            "number": 1,
            "ticks": 8365,
            "time": 67.89774651041667,
            "value": 0.06299212598425197
          },
          {
            "number": 1,
            "ticks": 8372,
            "time": 67.95456470833332,
            "value": 0.09448818897637795
          },
          {
            "number": 1,
            "ticks": 8379,
            "time": 68.01138290624999,
            "value": 0.11811023622047244
          },
          {
            "number": 1,
            "ticks": 8386,
            "time": 68.06820110416666,
            "value": 0.14960629921259844
          },
          {
            "number": 1,
            "ticks": 8393,
            "time": 68.12501930208333,
            "value": 0.1732283464566929
          },
          {
            "number": 1,
            "ticks": 8400,
            "time": 68.1818375,
            "value": 0.1968503937007874
          },
          {
            "number": 1,
            "ticks": 8406,
            "time": 68.2305388125,
            "value": 0.2283464566929134
          },
          {
            "number": 1,
            "ticks": 8413,
            "time": 68.28735701041667,
            "value": 0.25196850393700787
          },
          {
            "number": 1,
            "ticks": 8420,
            "time": 68.34417520833333,
            "value": 0.28346456692913385
          },
          {
            "number": 1,
            "ticks": 8427,
            "time": 68.40099340625,
            "value": 0.30708661417322836
          },
          {
            "number": 1,
            "ticks": 8434,
            "time": 68.45781160416666,
            "value": 0.33858267716535434
          },
          {
            "number": 1,
            "ticks": 8441,
            "time": 68.51462980208332,
            "value": 0.36220472440944884
          },
          {
            "number": 1,
            "ticks": 8447,
            "time": 68.56333111458332,
            "value": 0.3937007874015748
          },
          {
            "number": 1,
            "ticks": 8640,
            "time": 70.12988999999999,
            "value": 0
          },
          {
            "number": 1,
            "ticks": 8928,
            "time": 72.467553,
            "value": 0.015748031496062992
          },
          {
            "number": 1,
            "ticks": 8934,
            "time": 72.5162543125,
            "value": 0.03937007874015748
          },
          {
            "number": 1,
            "ticks": 8941,
            "time": 72.57307251041667,
            "value": 0.06299212598425197
          },
          {
            "number": 1,
            "ticks": 8948,
            "time": 72.62989070833332,
            "value": 0.09448818897637795
          },
          {
            "number": 1,
            "ticks": 8955,
            "time": 72.68670890624999,
            "value": 0.11811023622047244
          },
          {
            "number": 1,
            "ticks": 8962,
            "time": 72.74352710416666,
            "value": 0.14960629921259844
          },
          {
            "number": 1,
            "ticks": 8969,
            "time": 72.80034530208333,
            "value": 0.1732283464566929
          },
          {
            "number": 1,
            "ticks": 8976,
            "time": 72.8571635,
            "value": 0.1968503937007874
          },
          {
            "number": 1,
            "ticks": 8982,
            "time": 72.9058648125,
            "value": 0.2283464566929134
          },
          {
            "number": 1,
            "ticks": 8989,
            "time": 72.96268301041667,
            "value": 0.25196850393700787
          },
          {
            "number": 1,
            "ticks": 8996,
            "time": 73.01950120833332,
            "value": 0.28346456692913385
          },
          {
            "number": 1,
            "ticks": 9003,
            "time": 73.07631940625,
            "value": 0.30708661417322836
          },
          {
            "number": 1,
            "ticks": 9010,
            "time": 73.13313760416666,
            "value": 0.33858267716535434
          },
          {
            "number": 1,
            "ticks": 9017,
            "time": 73.18995580208332,
            "value": 0.36220472440944884
          },
          {
            "number": 1,
            "ticks": 9023,
            "time": 73.23865711458332,
            "value": 0.3937007874015748
          },
          {
            "number": 1,
            "ticks": 9696,
            "time": 78.701321,
            "value": 0
          },
          {
            "number": 1,
            "ticks": 15312,
            "time": 124.2857495,
            "value": 0.015748031496062992
          },
          {
            "number": 1,
            "ticks": 15318,
            "time": 124.3344508125,
            "value": 0.03937007874015748
          },
          {
            "number": 1,
            "ticks": 15325,
            "time": 124.39126901041665,
            "value": 0.06299212598425197
          },
          {
            "number": 1,
            "ticks": 15332,
            "time": 124.44808720833333,
            "value": 0.09448818897637795
          },
          {
            "number": 1,
            "ticks": 15339,
            "time": 124.50490540624999,
            "value": 0.11811023622047244
          },
          {
            "number": 1,
            "ticks": 15346,
            "time": 124.56172360416664,
            "value": 0.14960629921259844
          },
          {
            "number": 1,
            "ticks": 15353,
            "time": 124.61854180208333,
            "value": 0.1732283464566929
          },
          {
            "number": 1,
            "ticks": 15360,
            "time": 124.67535999999998,
            "value": 0.1968503937007874
          },
          {
            "number": 1,
            "ticks": 15366,
            "time": 124.72406131249998,
            "value": 0.2283464566929134
          },
          {
            "number": 1,
            "ticks": 15373,
            "time": 124.78087951041665,
            "value": 0.25196850393700787
          },
          {
            "number": 1,
            "ticks": 15380,
            "time": 124.83769770833334,
            "value": 0.28346456692913385
          },
          {
            "number": 1,
            "ticks": 15387,
            "time": 124.89451590624999,
            "value": 0.30708661417322836
          },
          {
            "number": 1,
            "ticks": 15394,
            "time": 124.95133410416665,
            "value": 0.33858267716535434
          },
          {
            "number": 1,
            "ticks": 15401,
            "time": 125.00815230208333,
            "value": 0.36220472440944884
          },
          {
            "number": 1,
            "ticks": 15407,
            "time": 125.05685361458333,
            "value": 0.3937007874015748
          },
          {
            "number": 1,
            "ticks": 15504,
            "time": 125.8441915,
            "value": 0
          },
          {
            "number": 1,
            "ticks": 15648,
            "time": 127.01302299999999,
            "value": 0.015748031496062992
          },
          {
            "number": 1,
            "ticks": 15654,
            "time": 127.06172431249999,
            "value": 0.03937007874015748
          },
          {
            "number": 1,
            "ticks": 15661,
            "time": 127.11854251041665,
            "value": 0.06299212598425197
          },
          {
            "number": 1,
            "ticks": 15668,
            "time": 127.17536070833333,
            "value": 0.09448818897637795
          },
          {
            "number": 1,
            "ticks": 15675,
            "time": 127.23217890624998,
            "value": 0.11811023622047244
          },
          {
            "number": 1,
            "ticks": 15682,
            "time": 127.28899710416665,
            "value": 0.14960629921259844
          },
          {
            "number": 1,
            "ticks": 15689,
            "time": 127.34581530208334,
            "value": 0.1732283464566929
          },
          {
            "number": 1,
            "ticks": 15696,
            "time": 127.4026335,
            "value": 0.1968503937007874
          },
          {
            "number": 1,
            "ticks": 15702,
            "time": 127.4513348125,
            "value": 0.2283464566929134
          },
          {
            "number": 1,
            "ticks": 15709,
            "time": 127.50815301041665,
            "value": 0.25196850393700787
          },
          {
            "number": 1,
            "ticks": 15716,
            "time": 127.56497120833333,
            "value": 0.28346456692913385
          },
          {
            "number": 1,
            "ticks": 15723,
            "time": 127.62178940624999,
            "value": 0.30708661417322836
          },
          {
            "number": 1,
            "ticks": 15730,
            "time": 127.67860760416664,
            "value": 0.33858267716535434
          },
          {
            "number": 1,
            "ticks": 15737,
            "time": 127.73542580208333,
            "value": 0.36220472440944884
          },
          {
            "number": 1,
            "ticks": 15743,
            "time": 127.78412711458333,
            "value": 0.3937007874015748
          },
          {
            "number": 1,
            "ticks": 15792,
            "time": 128.1818545,
            "value": 0
          },
          {
            "number": 1,
            "ticks": 15888,
            "time": 128.9610755,
            "value": 0.015748031496062992
          },
          {
            "number": 1,
            "ticks": 15894,
            "time": 129.00977681249998,
            "value": 0.06299212598425197
          },
          {
            "number": 1,
            "ticks": 15901,
            "time": 129.06659501041665,
            "value": 0.11811023622047244
          },
          {
            "number": 1,
            "ticks": 15908,
            "time": 129.12341320833332,
            "value": 0.1732283464566929
          },
          {
            "number": 1,
            "ticks": 15915,
            "time": 129.18023140625,
            "value": 0.2283464566929134
          },
          {
            "number": 1,
            "ticks": 15922,
            "time": 129.23704960416666,
            "value": 0.28346456692913385
          },
          {
            "number": 1,
            "ticks": 15929,
            "time": 129.29386780208333,
            "value": 0.33070866141732286
          },
          {
            "number": 1,
            "ticks": 15935,
            "time": 129.34256911458334,
            "value": 0.3937007874015748
          },
          {
            "number": 1,
            "ticks": 15984,
            "time": 129.7402965,
            "value": 0
          },
          {
            "number": 1,
            "ticks": 16224,
            "time": 131.688349,
            "value": 0.015748031496062992
          },
          {
            "number": 1,
            "ticks": 16230,
            "time": 131.7370503125,
            "value": 0.03937007874015748
          },
          {
            "number": 1,
            "ticks": 16237,
            "time": 131.79386851041664,
            "value": 0.06299212598425197
          },
          {
            "number": 1,
            "ticks": 16244,
            "time": 131.85068670833334,
            "value": 0.09448818897637795
          },
          {
            "number": 1,
            "ticks": 16251,
            "time": 131.90750490624998,
            "value": 0.11811023622047244
          },
          {
            "number": 1,
            "ticks": 16258,
            "time": 131.96432310416665,
            "value": 0.14960629921259844
          },
          {
            "number": 1,
            "ticks": 16265,
            "time": 132.02114130208332,
            "value": 0.1732283464566929
          },
          {
            "number": 1,
            "ticks": 16272,
            "time": 132.0779595,
            "value": 0.1968503937007874
          },
          {
            "number": 1,
            "ticks": 16278,
            "time": 132.12666081249998,
            "value": 0.2283464566929134
          },
          {
            "number": 1,
            "ticks": 16285,
            "time": 132.18347901041665,
            "value": 0.25196850393700787
          },
          {
            "number": 1,
            "ticks": 16292,
            "time": 132.24029720833332,
            "value": 0.28346456692913385
          },
          {
            "number": 1,
            "ticks": 16299,
            "time": 132.29711540625,
            "value": 0.30708661417322836
          },
          {
            "number": 1,
            "ticks": 16306,
            "time": 132.35393360416666,
            "value": 0.33858267716535434
          },
          {
            "number": 1,
            "ticks": 16313,
            "time": 132.41075180208333,
            "value": 0.36220472440944884
          },
          {
            "number": 1,
            "ticks": 16319,
            "time": 132.45945311458334,
            "value": 0.3937007874015748
          },
          {
            "number": 1,
            "ticks": 16368,
            "time": 132.8571805,
            "value": 0
          },
          {
            "number": 1,
            "ticks": 16440,
            "time": 133.44159625,
            "value": 0.015748031496062992
          },
          {
            "number": 1,
            "ticks": 16446,
            "time": 133.4902975625,
            "value": 0.06299212598425197
          },
          {
            "number": 1,
            "ticks": 16453,
            "time": 133.54711576041666,
            "value": 0.11811023622047244
          },
          {
            "number": 1,
            "ticks": 16460,
            "time": 133.60393395833333,
            "value": 0.1732283464566929
          },
          {
            "number": 1,
            "ticks": 16467,
            "time": 133.66075215625,
            "value": 0.2283464566929134
          },
          {
            "number": 1,
            "ticks": 16474,
            "time": 133.71757035416664,
            "value": 0.28346456692913385
          },
          {
            "number": 1,
            "ticks": 16481,
            "time": 133.77438855208334,
            "value": 0.33070866141732286
          },
          {
            "number": 1,
            "ticks": 16487,
            "time": 133.82308986458332,
            "value": 0.3937007874015748
          },
          {
            "number": 1,
            "ticks": 16560,
            "time": 134.41562249999998,
            "value": 0
          },
          {
            "number": 1,
            "ticks": 16608,
            "time": 134.805233,
            "value": 0.015748031496062992
          },
          {
            "number": 1,
            "ticks": 16614,
            "time": 134.8539343125,
            "value": 0.06299212598425197
          },
          {
            "number": 1,
            "ticks": 16621,
            "time": 134.91075251041664,
            "value": 0.11811023622047244
          },
          {
            "number": 1,
            "ticks": 16628,
            "time": 134.96757070833334,
            "value": 0.1732283464566929
          },
          {
            "number": 1,
            "ticks": 16635,
            "time": 135.02438890624998,
            "value": 0.2283464566929134
          },
          {
            "number": 1,
            "ticks": 16642,
            "time": 135.08120710416665,
            "value": 0.28346456692913385
          },
          {
            "number": 1,
            "ticks": 16649,
            "time": 135.13802530208332,
            "value": 0.33070866141732286
          },
          {
            "number": 1,
            "ticks": 16655,
            "time": 135.18672661458334,
            "value": 0.3937007874015748
          },
          {
            "number": 1,
            "ticks": 16728,
            "time": 135.77925925,
            "value": 0
          },
          {
            "number": 1,
            "ticks": 16848,
            "time": 136.75328549999998,
            "value": 0.015748031496062992
          },
          {
            "number": 1,
            "ticks": 16854,
            "time": 136.8019868125,
            "value": 0.03937007874015748
          },
          {
            "number": 1,
            "ticks": 16861,
            "time": 136.85880501041666,
            "value": 0.06299212598425197
          },
          {
            "number": 1,
            "ticks": 16868,
            "time": 136.91562320833333,
            "value": 0.09448818897637795
          },
          {
            "number": 1,
            "ticks": 16875,
            "time": 136.97244140625,
            "value": 0.11811023622047244
          },
          {
            "number": 1,
            "ticks": 16882,
            "time": 137.02925960416664,
            "value": 0.14960629921259844
          },
          {
            "number": 1,
            "ticks": 16889,
            "time": 137.08607780208334,
            "value": 0.1732283464566929
          },
          {
            "number": 1,
            "ticks": 16896,
            "time": 137.14289599999998,
            "value": 0.1968503937007874
          },
          {
            "number": 1,
            "ticks": 16902,
            "time": 137.1915973125,
            "value": 0.2283464566929134
          },
          {
            "number": 1,
            "ticks": 16909,
            "time": 137.24841551041663,
            "value": 0.25196850393700787
          },
          {
            "number": 1,
            "ticks": 16916,
            "time": 137.30523370833333,
            "value": 0.28346456692913385
          },
          {
            "number": 1,
            "ticks": 16923,
            "time": 137.36205190625,
            "value": 0.30708661417322836
          },
          {
            "number": 1,
            "ticks": 16930,
            "time": 137.41887010416664,
            "value": 0.33858267716535434
          },
          {
            "number": 1,
            "ticks": 16937,
            "time": 137.47568830208334,
            "value": 0.36220472440944884
          },
          {
            "number": 1,
            "ticks": 16943,
            "time": 137.52438961458333,
            "value": 0.3937007874015748
          },
          {
            "number": 1,
            "ticks": 17040,
            "time": 138.3117275,
            "value": 0
          },
          {
            "number": 1,
            "ticks": 17376,
            "time": 141.03900099999998,
            "value": 0.015748031496062992
          },
          {
            "number": 1,
            "ticks": 17382,
            "time": 141.0877023125,
            "value": 0.06299212598425197
          },
          {
            "number": 1,
            "ticks": 17389,
            "time": 141.14452051041664,
            "value": 0.11811023622047244
          },
          {
            "number": 1,
            "ticks": 17396,
            "time": 141.20133870833334,
            "value": 0.1732283464566929
          },
          {
            "number": 1,
            "ticks": 17403,
            "time": 141.25815690624998,
            "value": 0.2283464566929134
          },
          {
            "number": 1,
            "ticks": 17410,
            "time": 141.31497510416665,
            "value": 0.28346456692913385
          },
          {
            "number": 1,
            "ticks": 17417,
            "time": 141.37179330208332,
            "value": 0.33070866141732286
          },
          {
            "number": 1,
            "ticks": 17423,
            "time": 141.42049461458333,
            "value": 0.3937007874015748
          },
          {
            "number": 1,
            "ticks": 17472,
            "time": 141.818222,
            "value": 0
          },
          {
            "number": 1,
            "ticks": 17472,
            "time": 141.818222,
            "value": 0.015748031496062992
          },
          {
            "number": 1,
            "ticks": 17478,
            "time": 141.86692331249998,
            "value": 0.06299212598425197
          },
          {
            "number": 1,
            "ticks": 17485,
            "time": 141.92374151041665,
            "value": 0.11811023622047244
          },
          {
            "number": 1,
            "ticks": 17492,
            "time": 141.98055970833332,
            "value": 0.1732283464566929
          },
          {
            "number": 1,
            "ticks": 17499,
            "time": 142.03737790625,
            "value": 0.2283464566929134
          },
          {
            "number": 1,
            "ticks": 17506,
            "time": 142.09419610416666,
            "value": 0.28346456692913385
          },
          {
            "number": 1,
            "ticks": 17513,
            "time": 142.15101430208333,
            "value": 0.33070866141732286
          },
          {
            "number": 1,
            "ticks": 17519,
            "time": 142.19971561458334,
            "value": 0.3937007874015748
          },
          {
            "number": 1,
            "ticks": 17568,
            "time": 142.597443,
            "value": 0
          },
          {
            "number": 1,
            "ticks": 17592,
            "time": 142.79224825,
            "value": 0.015748031496062992
          },
          {
            "number": 1,
            "ticks": 17598,
            "time": 142.8409495625,
            "value": 0.06299212598425197
          },
          {
            "number": 1,
            "ticks": 17605,
            "time": 142.89776776041666,
            "value": 0.11811023622047244
          },
          {
            "number": 1,
            "ticks": 17612,
            "time": 142.95458595833333,
            "value": 0.1732283464566929
          },
          {
            "number": 1,
            "ticks": 17619,
            "time": 143.01140415625,
            "value": 0.2283464566929134
          },
          {
            "number": 1,
            "ticks": 17626,
            "time": 143.06822235416664,
            "value": 0.28346456692913385
          },
          {
            "number": 1,
            "ticks": 17633,
            "time": 143.12504055208333,
            "value": 0.33070866141732286
          },
          {
            "number": 1,
            "ticks": 17639,
            "time": 143.17374186458332,
            "value": 0.3937007874015748
          },
          {
            "number": 1,
            "ticks": 17688,
            "time": 143.57146924999998,
            "value": 0
          },
          {
            "number": 1,
            "ticks": 17760,
            "time": 144.15588499999998,
            "value": 0.015748031496062992
          },
          {
            "number": 1,
            "ticks": 17766,
            "time": 144.2045863125,
            "value": 0.03937007874015748
          },
          {
            "number": 1,
            "ticks": 17773,
            "time": 144.26140451041664,
            "value": 0.06299212598425197
          },
          {
            "number": 1,
            "ticks": 17780,
            "time": 144.31822270833334,
            "value": 0.09448818897637795
          },
          {
            "number": 1,
            "ticks": 17787,
            "time": 144.37504090624998,
            "value": 0.11811023622047244
          },
          {
            "number": 1,
            "ticks": 17794,
            "time": 144.43185910416665,
            "value": 0.14960629921259844
          },
          {
            "number": 1,
            "ticks": 17801,
            "time": 144.48867730208332,
            "value": 0.1732283464566929
          },
          {
            "number": 1,
            "ticks": 17808,
            "time": 144.5454955,
            "value": 0.1968503937007874
          },
          {
            "number": 1,
            "ticks": 17814,
            "time": 144.5941968125,
            "value": 0.2283464566929134
          },
          {
            "number": 1,
            "ticks": 17821,
            "time": 144.65101501041664,
            "value": 0.25196850393700787
          },
          {
            "number": 1,
            "ticks": 17828,
            "time": 144.70783320833334,
            "value": 0.28346456692913385
          },
          {
            "number": 1,
            "ticks": 17835,
            "time": 144.76465140624998,
            "value": 0.30708661417322836
          },
          {
            "number": 1,
            "ticks": 17842,
            "time": 144.82146960416665,
            "value": 0.33858267716535434
          },
          {
            "number": 1,
            "ticks": 17849,
            "time": 144.87828780208332,
            "value": 0.36220472440944884
          },
          {
            "number": 1,
            "ticks": 17855,
            "time": 144.92698911458334,
            "value": 0.3937007874015748
          },
          {
            "number": 1,
            "ticks": 18048,
            "time": 146.49354799999998,
            "value": 0
          },
          {
            "number": 1,
            "ticks": 18336,
            "time": 148.831211,
            "value": 0.015748031496062992
          },
          {
            "number": 1,
            "ticks": 18342,
            "time": 148.87991231249998,
            "value": 0.03937007874015748
          },
          {
            "number": 1,
            "ticks": 18349,
            "time": 148.93673051041665,
            "value": 0.06299212598425197
          },
          {
            "number": 1,
            "ticks": 18356,
            "time": 148.99354870833332,
            "value": 0.09448818897637795
          },
          {
            "number": 1,
            "ticks": 18363,
            "time": 149.05036690625,
            "value": 0.11811023622047244
          },
          {
            "number": 1,
            "ticks": 18370,
            "time": 149.10718510416666,
            "value": 0.14960629921259844
          },
          {
            "number": 1,
            "ticks": 18377,
            "time": 149.16400330208333,
            "value": 0.1732283464566929
          },
          {
            "number": 1,
            "ticks": 18384,
            "time": 149.2208215,
            "value": 0.1968503937007874
          },
          {
            "number": 1,
            "ticks": 18390,
            "time": 149.26952281249999,
            "value": 0.2283464566929134
          },
          {
            "number": 1,
            "ticks": 18397,
            "time": 149.32634101041666,
            "value": 0.25196850393700787
          },
          {
            "number": 1,
            "ticks": 18404,
            "time": 149.38315920833332,
            "value": 0.28346456692913385
          },
          {
            "number": 1,
            "ticks": 18411,
            "time": 149.43997740625,
            "value": 0.30708661417322836
          },
          {
            "number": 1,
            "ticks": 18418,
            "time": 149.49679560416664,
            "value": 0.33858267716535434
          },
          {
            "number": 1,
            "ticks": 18425,
            "time": 149.55361380208333,
            "value": 0.36220472440944884
          },
          {
            "number": 1,
            "ticks": 18431,
            "time": 149.60231511458332,
            "value": 0.3937007874015748
          },
          {
            "number": 1,
            "ticks": 19104,
            "time": 155.064979,
            "value": 0
          }
        ],
        "6": [
          {
            "number": 6,
            "ticks": 4,
            "time": 0.03246754166666666,
            "value": 0.5905511811023622
          },
          {
            "number": 6,
            "ticks": 7,
            "time": 0.05681819791666667,
            "value": 0.48031496062992124
          },
          {
            "number": 6,
            "ticks": 10,
            "time": 0.08116885416666667,
            "value": 0.5039370078740157
          }
        ],
        "7": [
          {
            "number": 7,
            "ticks": 0,
            "time": 0,
            "value": 0.5433070866141733
          }
        ],
        "10": [
          {
            "number": 10,
            "ticks": 0,
            "time": 0,
            "value": 0.5039370078740157
          }
        ],
        "11": [
          {
            "number": 11,
            "ticks": 5856,
            "time": 47.532481,
            "value": 0.7086614173228346
          },
          {
            "number": 11,
            "ticks": 5862,
            "time": 47.5811823125,
            "value": 0.7322834645669292
          },
          {
            "number": 11,
            "ticks": 5869,
            "time": 47.63800051041666,
            "value": 0.7559055118110236
          },
          {
            "number": 11,
            "ticks": 5875,
            "time": 47.68670182291666,
            "value": 0.7795275590551181
          },
          {
            "number": 11,
            "ticks": 5882,
            "time": 47.74352002083333,
            "value": 0.8031496062992126
          },
          {
            "number": 11,
            "ticks": 5888,
            "time": 47.79222133333333,
            "value": 0.8188976377952756
          },
          {
            "number": 11,
            "ticks": 5895,
            "time": 47.84903953125,
            "value": 0.84251968503937
          },
          {
            "number": 11,
            "ticks": 5901,
            "time": 47.89774084374999,
            "value": 0.8582677165354331
          },
          {
            "number": 11,
            "ticks": 5908,
            "time": 47.95455904166666,
            "value": 0.8740157480314961
          },
          {
            "number": 11,
            "ticks": 5914,
            "time": 48.00326035416666,
            "value": 0.889763779527559
          },
          {
            "number": 11,
            "ticks": 5921,
            "time": 48.06007855208333,
            "value": 0.905511811023622
          },
          {
            "number": 11,
            "ticks": 5927,
            "time": 48.10877986458333,
            "value": 0.9212598425196851
          },
          {
            "number": 11,
            "ticks": 5934,
            "time": 48.165598062499996,
            "value": 0.937007874015748
          },
          {
            "number": 11,
            "ticks": 5940,
            "time": 48.214299374999996,
            "value": 0.9448818897637795
          },
          {
            "number": 11,
            "ticks": 5947,
            "time": 48.27111757291666,
            "value": 0.952755905511811
          },
          {
            "number": 11,
            "ticks": 5953,
            "time": 48.31981888541666,
            "value": 0.968503937007874
          },
          {
            "number": 11,
            "ticks": 5960,
            "time": 48.37663708333333,
            "value": 0.9763779527559056
          },
          {
            "number": 11,
            "ticks": 5973,
            "time": 48.48215659375,
            "value": 0.984251968503937
          },
          {
            "number": 11,
            "ticks": 5979,
            "time": 48.53085790625,
            "value": 0.9921259842519685
          },
          {
            "number": 11,
            "ticks": 6000,
            "time": 48.70131249999999,
            "value": 1
          },
          {
            "number": 11,
            "ticks": 6096,
            "time": 49.48053349999999,
            "value": 0.8661417322834646
          },
          {
            "number": 11,
            "ticks": 6240,
            "time": 50.649364999999996,
            "value": 0.6299212598425197
          },
          {
            "number": 11,
            "ticks": 6246,
            "time": 50.698066312499996,
            "value": 0.6692913385826772
          },
          {
            "number": 11,
            "ticks": 6253,
            "time": 50.754884510416666,
            "value": 0.7086614173228346
          },
          {
            "number": 11,
            "ticks": 6259,
            "time": 50.803585822916666,
            "value": 0.7480314960629921
          },
          {
            "number": 11,
            "ticks": 6266,
            "time": 50.86040402083333,
            "value": 0.7795275590551181
          },
          {
            "number": 11,
            "ticks": 6272,
            "time": 50.90910533333333,
            "value": 0.8110236220472441
          },
          {
            "number": 11,
            "ticks": 6279,
            "time": 50.96592353125,
            "value": 0.84251968503937
          },
          {
            "number": 11,
            "ticks": 6285,
            "time": 51.01462484375,
            "value": 0.8661417322834646
          },
          {
            "number": 11,
            "ticks": 6292,
            "time": 51.07144304166667,
            "value": 0.889763779527559
          },
          {
            "number": 11,
            "ticks": 6298,
            "time": 51.12014435416667,
            "value": 0.905511811023622
          },
          {
            "number": 11,
            "ticks": 6305,
            "time": 51.176962552083324,
            "value": 0.9212598425196851
          },
          {
            "number": 11,
            "ticks": 6311,
            "time": 51.225663864583325,
            "value": 0.937007874015748
          },
          {
            "number": 11,
            "ticks": 6318,
            "time": 51.282482062499994,
            "value": 0.9448818897637795
          },
          {
            "number": 11,
            "ticks": 6324,
            "time": 51.331183374999995,
            "value": 0.952755905511811
          },
          {
            "number": 11,
            "ticks": 6336,
            "time": 51.428585999999996,
            "value": 0.9606299212598425
          },
          {
            "number": 11,
            "ticks": 6384,
            "time": 51.8181965,
            "value": 0.8503937007874016
          },
          {
            "number": 11,
            "ticks": 6408,
            "time": 52.013001749999994,
            "value": 0.7086614173228346
          },
          {
            "number": 11,
            "ticks": 6414,
            "time": 52.061703062499994,
            "value": 0.7322834645669292
          },
          {
            "number": 11,
            "ticks": 6421,
            "time": 52.118521260416664,
            "value": 0.7637795275590551
          },
          {
            "number": 11,
            "ticks": 6427,
            "time": 52.167222572916664,
            "value": 0.7952755905511811
          },
          {
            "number": 11,
            "ticks": 6434,
            "time": 52.22404077083333,
            "value": 0.8188976377952756
          },
          {
            "number": 11,
            "ticks": 6440,
            "time": 52.27274208333333,
            "value": 0.84251968503937
          },
          {
            "number": 11,
            "ticks": 6447,
            "time": 52.32956028125,
            "value": 0.8661417322834646
          },
          {
            "number": 11,
            "ticks": 6453,
            "time": 52.37826159375,
            "value": 0.8818897637795275
          },
          {
            "number": 11,
            "ticks": 6460,
            "time": 52.435079791666666,
            "value": 0.905511811023622
          },
          {
            "number": 11,
            "ticks": 6466,
            "time": 52.48378110416667,
            "value": 0.9212598425196851
          },
          {
            "number": 11,
            "ticks": 6473,
            "time": 52.54059930208332,
            "value": 0.937007874015748
          },
          {
            "number": 11,
            "ticks": 6479,
            "time": 52.58930061458332,
            "value": 0.9448818897637795
          },
          {
            "number": 11,
            "ticks": 6486,
            "time": 52.6461188125,
            "value": 0.9606299212598425
          },
          {
            "number": 11,
            "ticks": 6492,
            "time": 52.69482012499999,
            "value": 0.968503937007874
          },
          {
            "number": 11,
            "ticks": 6499,
            "time": 52.75163832291667,
            "value": 0.9763779527559056
          },
          {
            "number": 11,
            "ticks": 6505,
            "time": 52.80033963541667,
            "value": 0.984251968503937
          },
          {
            "number": 11,
            "ticks": 6512,
            "time": 52.857157833333325,
            "value": 0.9921259842519685
          },
          {
            "number": 11,
            "ticks": 6528,
            "time": 52.987027999999995,
            "value": 1
          },
          {
            "number": 11,
            "ticks": 6576,
            "time": 53.3766385,
            "value": 0.8661417322834646
          },
          {
            "number": 11,
            "ticks": 6816,
            "time": 55.324690999999994,
            "value": 0.7086614173228346
          },
          {
            "number": 11,
            "ticks": 6822,
            "time": 55.373392312499995,
            "value": 0.7401574803149606
          },
          {
            "number": 11,
            "ticks": 6829,
            "time": 55.430210510416664,
            "value": 0.7795275590551181
          },
          {
            "number": 11,
            "ticks": 6835,
            "time": 55.478911822916665,
            "value": 0.8110236220472441
          },
          {
            "number": 11,
            "ticks": 6842,
            "time": 55.53573002083333,
            "value": 0.84251968503937
          },
          {
            "number": 11,
            "ticks": 6848,
            "time": 55.58443133333333,
            "value": 0.8661417322834646
          },
          {
            "number": 11,
            "ticks": 6855,
            "time": 55.64124953125,
            "value": 0.889763779527559
          },
          {
            "number": 11,
            "ticks": 6861,
            "time": 55.68995084375,
            "value": 0.9133858267716536
          },
          {
            "number": 11,
            "ticks": 6868,
            "time": 55.74676904166667,
            "value": 0.937007874015748
          },
          {
            "number": 11,
            "ticks": 6874,
            "time": 55.79547035416667,
            "value": 0.952755905511811
          },
          {
            "number": 11,
            "ticks": 6881,
            "time": 55.85228855208332,
            "value": 0.968503937007874
          },
          {
            "number": 11,
            "ticks": 6887,
            "time": 55.90098986458332,
            "value": 0.9763779527559056
          },
          {
            "number": 11,
            "ticks": 6894,
            "time": 55.95780806249999,
            "value": 0.984251968503937
          },
          {
            "number": 11,
            "ticks": 6900,
            "time": 56.00650937499999,
            "value": 0.9921259842519685
          },
          {
            "number": 11,
            "ticks": 6912,
            "time": 56.103911999999994,
            "value": 1
          },
          {
            "number": 11,
            "ticks": 6960,
            "time": 56.4935225,
            "value": 0.8661417322834646
          },
          {
            "number": 11,
            "ticks": 7008,
            "time": 56.883132999999994,
            "value": 0.7086614173228346
          },
          {
            "number": 11,
            "ticks": 7014,
            "time": 56.931834312499994,
            "value": 0.7401574803149606
          },
          {
            "number": 11,
            "ticks": 7021,
            "time": 56.988652510416664,
            "value": 0.7795275590551181
          },
          {
            "number": 11,
            "ticks": 7027,
            "time": 57.037353822916664,
            "value": 0.8110236220472441
          },
          {
            "number": 11,
            "ticks": 7034,
            "time": 57.09417202083333,
            "value": 0.84251968503937
          },
          {
            "number": 11,
            "ticks": 7040,
            "time": 57.14287333333333,
            "value": 0.8661417322834646
          },
          {
            "number": 11,
            "ticks": 7047,
            "time": 57.19969153125,
            "value": 0.889763779527559
          },
          {
            "number": 11,
            "ticks": 7053,
            "time": 57.24839284375,
            "value": 0.9133858267716536
          },
          {
            "number": 11,
            "ticks": 7060,
            "time": 57.30521104166667,
            "value": 0.937007874015748
          },
          {
            "number": 11,
            "ticks": 7066,
            "time": 57.35391235416667,
            "value": 0.952755905511811
          },
          {
            "number": 11,
            "ticks": 7073,
            "time": 57.41073055208332,
            "value": 0.968503937007874
          },
          {
            "number": 11,
            "ticks": 7079,
            "time": 57.45943186458332,
            "value": 0.9763779527559056
          },
          {
            "number": 11,
            "ticks": 7086,
            "time": 57.51625006249999,
            "value": 0.984251968503937
          },
          {
            "number": 11,
            "ticks": 7092,
            "time": 57.56495137499999,
            "value": 0.9921259842519685
          },
          {
            "number": 11,
            "ticks": 7104,
            "time": 57.66235399999999,
            "value": 1
          },
          {
            "number": 11,
            "ticks": 7152,
            "time": 58.0519645,
            "value": 0.8661417322834646
          },
          {
            "number": 11,
            "ticks": 7176,
            "time": 58.24676975,
            "value": 0.3937007874015748
          },
          {
            "number": 11,
            "ticks": 7182,
            "time": 58.2954710625,
            "value": 0.47244094488188976
          },
          {
            "number": 11,
            "ticks": 7189,
            "time": 58.35228926041667,
            "value": 0.5433070866141733
          },
          {
            "number": 11,
            "ticks": 7195,
            "time": 58.40099057291667,
            "value": 0.6141732283464567
          },
          {
            "number": 11,
            "ticks": 7202,
            "time": 58.457808770833324,
            "value": 0.6692913385826772
          },
          {
            "number": 11,
            "ticks": 7208,
            "time": 58.506510083333325,
            "value": 0.7322834645669292
          },
          {
            "number": 11,
            "ticks": 7215,
            "time": 58.563328281249994,
            "value": 0.7795275590551181
          },
          {
            "number": 11,
            "ticks": 7221,
            "time": 58.612029593749995,
            "value": 0.8267716535433071
          },
          {
            "number": 11,
            "ticks": 7228,
            "time": 58.668847791666664,
            "value": 0.8661417322834646
          },
          {
            "number": 11,
            "ticks": 7234,
            "time": 58.717549104166665,
            "value": 0.905511811023622
          },
          {
            "number": 11,
            "ticks": 7241,
            "time": 58.77436730208333,
            "value": 0.9291338582677166
          },
          {
            "number": 11,
            "ticks": 7247,
            "time": 58.82306861458333,
            "value": 0.952755905511811
          },
          {
            "number": 11,
            "ticks": 7254,
            "time": 58.8798868125,
            "value": 0.9763779527559056
          },
          {
            "number": 11,
            "ticks": 7260,
            "time": 58.928588125,
            "value": 0.984251968503937
          },
          {
            "number": 11,
            "ticks": 7267,
            "time": 58.98540632291667,
            "value": 0.9921259842519685
          },
          {
            "number": 11,
            "ticks": 7272,
            "time": 59.02599075,
            "value": 1
          },
          {
            "number": 11,
            "ticks": 7320,
            "time": 59.415601249999995,
            "value": 0.8661417322834646
          },
          {
            "number": 11,
            "ticks": 7392,
            "time": 60.00001699999999,
            "value": 0.7086614173228346
          },
          {
            "number": 11,
            "ticks": 7398,
            "time": 60.04871831249999,
            "value": 0.7322834645669292
          },
          {
            "number": 11,
            "ticks": 7405,
            "time": 60.10553651041666,
            "value": 0.7559055118110236
          },
          {
            "number": 11,
            "ticks": 7411,
            "time": 60.15423782291666,
            "value": 0.7795275590551181
          },
          {
            "number": 11,
            "ticks": 7418,
            "time": 60.211056020833325,
            "value": 0.8031496062992126
          },
          {
            "number": 11,
            "ticks": 7424,
            "time": 60.259757333333326,
            "value": 0.8188976377952756
          },
          {
            "number": 11,
            "ticks": 7431,
            "time": 60.316575531249995,
            "value": 0.84251968503937
          },
          {
            "number": 11,
            "ticks": 7437,
            "time": 60.365276843749996,
            "value": 0.8582677165354331
          },
          {
            "number": 11,
            "ticks": 7444,
            "time": 60.422095041666665,
            "value": 0.8740157480314961
          },
          {
            "number": 11,
            "ticks": 7450,
            "time": 60.470796354166666,
            "value": 0.889763779527559
          },
          {
            "number": 11,
            "ticks": 7457,
            "time": 60.52761455208333,
            "value": 0.905511811023622
          },
          {
            "number": 11,
            "ticks": 7463,
            "time": 60.57631586458333,
            "value": 0.9212598425196851
          },
          {
            "number": 11,
            "ticks": 7470,
            "time": 60.6331340625,
            "value": 0.937007874015748
          },
          {
            "number": 11,
            "ticks": 7476,
            "time": 60.681835375,
            "value": 0.9448818897637795
          },
          {
            "number": 11,
            "ticks": 7483,
            "time": 60.73865357291667,
            "value": 0.952755905511811
          },
          {
            "number": 11,
            "ticks": 7489,
            "time": 60.78735488541667,
            "value": 0.968503937007874
          },
          {
            "number": 11,
            "ticks": 7496,
            "time": 60.844173083333324,
            "value": 0.9763779527559056
          },
          {
            "number": 11,
            "ticks": 7509,
            "time": 60.949692593749994,
            "value": 0.984251968503937
          },
          {
            "number": 11,
            "ticks": 7515,
            "time": 60.998393906249994,
            "value": 0.9921259842519685
          },
          {
            "number": 11,
            "ticks": 7536,
            "time": 61.168848499999996,
            "value": 1
          },
          {
            "number": 11,
            "ticks": 7632,
            "time": 61.948069499999995,
            "value": 0.8661417322834646
          },
          {
            "number": 11,
            "ticks": 7968,
            "time": 64.675343,
            "value": 0.7086614173228346
          },
          {
            "number": 11,
            "ticks": 7974,
            "time": 64.7240443125,
            "value": 0.7559055118110236
          },
          {
            "number": 11,
            "ticks": 7981,
            "time": 64.78086251041667,
            "value": 0.8031496062992126
          },
          {
            "number": 11,
            "ticks": 7987,
            "time": 64.82956382291667,
            "value": 0.84251968503937
          },
          {
            "number": 11,
            "ticks": 7994,
            "time": 64.88638202083332,
            "value": 0.8740157480314961
          },
          {
            "number": 11,
            "ticks": 8000,
            "time": 64.93508333333332,
            "value": 0.905511811023622
          },
          {
            "number": 11,
            "ticks": 8007,
            "time": 64.99190153125,
            "value": 0.937007874015748
          },
          {
            "number": 11,
            "ticks": 8013,
            "time": 65.04060284375,
            "value": 0.952755905511811
          },
          {
            "number": 11,
            "ticks": 8020,
            "time": 65.09742104166666,
            "value": 0.9763779527559056
          },
          {
            "number": 11,
            "ticks": 8026,
            "time": 65.14612235416666,
            "value": 0.984251968503937
          },
          {
            "number": 11,
            "ticks": 8033,
            "time": 65.20294055208332,
            "value": 0.9921259842519685
          },
          {
            "number": 11,
            "ticks": 8040,
            "time": 65.25975874999999,
            "value": 1
          },
          {
            "number": 11,
            "ticks": 8064,
            "time": 65.45456399999999,
            "value": 0.5826771653543307
          },
          {
            "number": 11,
            "ticks": 8070,
            "time": 65.50326531249999,
            "value": 0.6299212598425197
          },
          {
            "number": 11,
            "ticks": 8077,
            "time": 65.56008351041666,
            "value": 0.6692913385826772
          },
          {
            "number": 11,
            "ticks": 8083,
            "time": 65.60878482291666,
            "value": 0.7086614173228346
          },
          {
            "number": 11,
            "ticks": 8090,
            "time": 65.66560302083333,
            "value": 0.7480314960629921
          },
          {
            "number": 11,
            "ticks": 8096,
            "time": 65.71430433333333,
            "value": 0.7795275590551181
          },
          {
            "number": 11,
            "ticks": 8103,
            "time": 65.77112253125,
            "value": 0.8110236220472441
          },
          {
            "number": 11,
            "ticks": 8109,
            "time": 65.81982384375,
            "value": 0.84251968503937
          },
          {
            "number": 11,
            "ticks": 8116,
            "time": 65.87664204166667,
            "value": 0.8661417322834646
          },
          {
            "number": 11,
            "ticks": 8122,
            "time": 65.92534335416667,
            "value": 0.8818897637795275
          },
          {
            "number": 11,
            "ticks": 8129,
            "time": 65.98216155208333,
            "value": 0.905511811023622
          },
          {
            "number": 11,
            "ticks": 8135,
            "time": 66.03086286458333,
            "value": 0.9212598425196851
          },
          {
            "number": 11,
            "ticks": 8142,
            "time": 66.0876810625,
            "value": 0.9291338582677166
          },
          {
            "number": 11,
            "ticks": 8148,
            "time": 66.136382375,
            "value": 0.937007874015748
          },
          {
            "number": 11,
            "ticks": 8160,
            "time": 66.233785,
            "value": 0.6299212598425197
          },
          {
            "number": 11,
            "ticks": 8166,
            "time": 66.2824863125,
            "value": 0.6771653543307087
          },
          {
            "number": 11,
            "ticks": 8173,
            "time": 66.33930451041667,
            "value": 0.7165354330708661
          },
          {
            "number": 11,
            "ticks": 8179,
            "time": 66.38800582291667,
            "value": 0.7637795275590551
          },
          {
            "number": 11,
            "ticks": 8186,
            "time": 66.44482402083332,
            "value": 0.7952755905511811
          },
          {
            "number": 11,
            "ticks": 8192,
            "time": 66.49352533333332,
            "value": 0.8346456692913385
          },
          {
            "number": 11,
            "ticks": 8199,
            "time": 66.55034353125,
            "value": 0.8661417322834646
          },
          {
            "number": 11,
            "ticks": 8205,
            "time": 66.59904484375,
            "value": 0.889763779527559
          },
          {
            "number": 11,
            "ticks": 8212,
            "time": 66.65586304166666,
            "value": 0.9212598425196851
          },
          {
            "number": 11,
            "ticks": 8218,
            "time": 66.70456435416666,
            "value": 0.937007874015748
          },
          {
            "number": 11,
            "ticks": 8225,
            "time": 66.76138255208332,
            "value": 0.9606299212598425
          },
          {
            "number": 11,
            "ticks": 8231,
            "time": 66.81008386458332,
            "value": 0.968503937007874
          },
          {
            "number": 11,
            "ticks": 8238,
            "time": 66.86690206249999,
            "value": 0.984251968503937
          },
          {
            "number": 11,
            "ticks": 8244,
            "time": 66.91560337499999,
            "value": 0.9921259842519685
          },
          {
            "number": 11,
            "ticks": 8256,
            "time": 67.01300599999999,
            "value": 1
          },
          {
            "number": 11,
            "ticks": 8328,
            "time": 67.59742175,
            "value": 0.7086614173228346
          },
          {
            "number": 11,
            "ticks": 8334,
            "time": 67.6461230625,
            "value": 0.7322834645669292
          },
          {
            "number": 11,
            "ticks": 8341,
            "time": 67.70294126041667,
            "value": 0.7637795275590551
          },
          {
            "number": 11,
            "ticks": 8347,
            "time": 67.75164257291667,
            "value": 0.7952755905511811
          },
          {
            "number": 11,
            "ticks": 8354,
            "time": 67.80846077083332,
            "value": 0.8188976377952756
          },
          {
            "number": 11,
            "ticks": 8360,
            "time": 67.85716208333332,
            "value": 0.84251968503937
          },
          {
            "number": 11,
            "ticks": 8367,
            "time": 67.91398028124999,
            "value": 0.8661417322834646
          },
          {
            "number": 11,
            "ticks": 8373,
            "time": 67.96268159374999,
            "value": 0.8818897637795275
          },
          {
            "number": 11,
            "ticks": 8380,
            "time": 68.01949979166666,
            "value": 0.905511811023622
          },
          {
            "number": 11,
            "ticks": 8386,
            "time": 68.06820110416666,
            "value": 0.9212598425196851
          },
          {
            "number": 11,
            "ticks": 8393,
            "time": 68.12501930208333,
            "value": 0.937007874015748
          },
          {
            "number": 11,
            "ticks": 8399,
            "time": 68.17372061458333,
            "value": 0.9448818897637795
          },
          {
            "number": 11,
            "ticks": 8406,
            "time": 68.2305388125,
            "value": 0.9606299212598425
          },
          {
            "number": 11,
            "ticks": 8412,
            "time": 68.279240125,
            "value": 0.968503937007874
          },
          {
            "number": 11,
            "ticks": 8419,
            "time": 68.33605832291667,
            "value": 0.9763779527559056
          },
          {
            "number": 11,
            "ticks": 8425,
            "time": 68.38475963541667,
            "value": 0.984251968503937
          },
          {
            "number": 11,
            "ticks": 8432,
            "time": 68.44157783333333,
            "value": 0.9921259842519685
          },
          {
            "number": 11,
            "ticks": 8448,
            "time": 68.57144799999999,
            "value": 1
          },
          {
            "number": 11,
            "ticks": 8640,
            "time": 70.12988999999999,
            "value": 0.8661417322834646
          },
          {
            "number": 11,
            "ticks": 8928,
            "time": 72.467553,
            "value": 0.7086614173228346
          },
          {
            "number": 11,
            "ticks": 8934,
            "time": 72.5162543125,
            "value": 0.7322834645669292
          },
          {
            "number": 11,
            "ticks": 8941,
            "time": 72.57307251041667,
            "value": 0.7637795275590551
          },
          {
            "number": 11,
            "ticks": 8947,
            "time": 72.62177382291667,
            "value": 0.7874015748031497
          },
          {
            "number": 11,
            "ticks": 8954,
            "time": 72.67859202083332,
            "value": 0.8110236220472441
          },
          {
            "number": 11,
            "ticks": 8960,
            "time": 72.72729333333332,
            "value": 0.8346456692913385
          },
          {
            "number": 11,
            "ticks": 8967,
            "time": 72.78411153124999,
            "value": 0.8582677165354331
          },
          {
            "number": 11,
            "ticks": 8973,
            "time": 72.83281284374999,
            "value": 0.8818897637795275
          },
          {
            "number": 11,
            "ticks": 8980,
            "time": 72.88963104166666,
            "value": 0.8976377952755905
          },
          {
            "number": 11,
            "ticks": 8986,
            "time": 72.93833235416666,
            "value": 0.9133858267716536
          },
          {
            "number": 11,
            "ticks": 8993,
            "time": 72.99515055208333,
            "value": 0.9291338582677166
          },
          {
            "number": 11,
            "ticks": 8999,
            "time": 73.04385186458333,
            "value": 0.9448818897637795
          },
          {
            "number": 11,
            "ticks": 9006,
            "time": 73.1006700625,
            "value": 0.952755905511811
          },
          {
            "number": 11,
            "ticks": 9012,
            "time": 73.149371375,
            "value": 0.9606299212598425
          },
          {
            "number": 11,
            "ticks": 9019,
            "time": 73.20618957291667,
            "value": 0.968503937007874
          },
          {
            "number": 11,
            "ticks": 9025,
            "time": 73.25489088541667,
            "value": 0.9763779527559056
          },
          {
            "number": 11,
            "ticks": 9032,
            "time": 73.31170908333333,
            "value": 0.984251968503937
          },
          {
            "number": 11,
            "ticks": 9048,
            "time": 73.44157924999999,
            "value": 0.9921259842519685
          },
          {
            "number": 11,
            "ticks": 9216,
            "time": 74.805216,
            "value": 1
          },
          {
            "number": 11,
            "ticks": 9223,
            "time": 74.86203419791667,
            "value": 0.9921259842519685
          },
          {
            "number": 11,
            "ticks": 9231,
            "time": 74.92696928125,
            "value": 0.984251968503937
          },
          {
            "number": 11,
            "ticks": 9239,
            "time": 74.99190436458332,
            "value": 0.9763779527559056
          },
          {
            "number": 11,
            "ticks": 9247,
            "time": 75.05683944791666,
            "value": 0.968503937007874
          },
          {
            "number": 11,
            "ticks": 9254,
            "time": 75.11365764583333,
            "value": 0.9606299212598425
          },
          {
            "number": 11,
            "ticks": 9262,
            "time": 75.17859272916667,
            "value": 0.952755905511811
          },
          {
            "number": 11,
            "ticks": 9270,
            "time": 75.24352781249999,
            "value": 0.9448818897637795
          },
          {
            "number": 11,
            "ticks": 9278,
            "time": 75.30846289583333,
            "value": 0.937007874015748
          },
          {
            "number": 11,
            "ticks": 9286,
            "time": 75.37339797916667,
            "value": 0.9291338582677166
          },
          {
            "number": 11,
            "ticks": 9293,
            "time": 75.43021617708332,
            "value": 0.9212598425196851
          },
          {
            "number": 11,
            "ticks": 9301,
            "time": 75.49515126041666,
            "value": 0.9133858267716536
          },
          {
            "number": 11,
            "ticks": 9309,
            "time": 75.56008634375,
            "value": 0.905511811023622
          },
          {
            "number": 11,
            "ticks": 9317,
            "time": 75.62502142708333,
            "value": 0.8976377952755905
          },
          {
            "number": 11,
            "ticks": 9324,
            "time": 75.681839625,
            "value": 0.889763779527559
          },
          {
            "number": 11,
            "ticks": 9332,
            "time": 75.74677470833332,
            "value": 0.8818897637795275
          },
          {
            "number": 11,
            "ticks": 9340,
            "time": 75.81170979166666,
            "value": 0.8740157480314961
          },
          {
            "number": 11,
            "ticks": 9348,
            "time": 75.876644875,
            "value": 0.8661417322834646
          },
          {
            "number": 11,
            "ticks": 9356,
            "time": 75.94157995833332,
            "value": 0.8582677165354331
          },
          {
            "number": 11,
            "ticks": 9363,
            "time": 75.99839815624999,
            "value": 0.8503937007874016
          },
          {
            "number": 11,
            "ticks": 9371,
            "time": 76.06333323958333,
            "value": 0.84251968503937
          },
          {
            "number": 11,
            "ticks": 9379,
            "time": 76.12826832291667,
            "value": 0.8346456692913385
          },
          {
            "number": 11,
            "ticks": 9387,
            "time": 76.19320340624999,
            "value": 0.8267716535433071
          },
          {
            "number": 11,
            "ticks": 9395,
            "time": 76.25813848958333,
            "value": 0.8188976377952756
          },
          {
            "number": 11,
            "ticks": 9402,
            "time": 76.3149566875,
            "value": 0.8110236220472441
          },
          {
            "number": 11,
            "ticks": 9410,
            "time": 76.37989177083332,
            "value": 0.8031496062992126
          },
          {
            "number": 11,
            "ticks": 9418,
            "time": 76.44482685416666,
            "value": 0.7952755905511811
          },
          {
            "number": 11,
            "ticks": 9426,
            "time": 76.50976193749999,
            "value": 0.7874015748031497
          },
          {
            "number": 11,
            "ticks": 9433,
            "time": 76.56658013541666,
            "value": 0.7795275590551181
          },
          {
            "number": 11,
            "ticks": 9441,
            "time": 76.63151521875,
            "value": 0.7716535433070866
          },
          {
            "number": 11,
            "ticks": 9449,
            "time": 76.69645030208332,
            "value": 0.7637795275590551
          },
          {
            "number": 11,
            "ticks": 9457,
            "time": 76.76138538541666,
            "value": 0.7559055118110236
          },
          {
            "number": 11,
            "ticks": 9465,
            "time": 76.82632046875,
            "value": 0.7480314960629921
          },
          {
            "number": 11,
            "ticks": 9472,
            "time": 76.88313866666667,
            "value": 0.7401574803149606
          },
          {
            "number": 11,
            "ticks": 9480,
            "time": 76.94807374999999,
            "value": 0.7322834645669292
          },
          {
            "number": 11,
            "ticks": 9488,
            "time": 77.01300883333333,
            "value": 0.7244094488188977
          },
          {
            "number": 11,
            "ticks": 9496,
            "time": 77.07794391666667,
            "value": 0.7165354330708661
          },
          {
            "number": 11,
            "ticks": 9503,
            "time": 77.13476211458332,
            "value": 0.7086614173228346
          },
          {
            "number": 11,
            "ticks": 9504,
            "time": 77.142879,
            "value": 0.7086614173228346
          },
          {
            "number": 11,
            "ticks": 9510,
            "time": 77.1915803125,
            "value": 0.7007874015748031
          },
          {
            "number": 11,
            "ticks": 9530,
            "time": 77.35391802083332,
            "value": 0.6929133858267716
          },
          {
            "number": 11,
            "ticks": 9536,
            "time": 77.40261933333332,
            "value": 0.6850393700787402
          },
          {
            "number": 11,
            "ticks": 9543,
            "time": 77.45943753124999,
            "value": 0.6771653543307087
          },
          {
            "number": 11,
            "ticks": 9549,
            "time": 77.50813884374999,
            "value": 0.6614173228346457
          },
          {
            "number": 11,
            "ticks": 9556,
            "time": 77.56495704166666,
            "value": 0.6535433070866141
          },
          {
            "number": 11,
            "ticks": 9562,
            "time": 77.61365835416666,
            "value": 0.6377952755905512
          },
          {
            "number": 11,
            "ticks": 9569,
            "time": 77.67047655208333,
            "value": 0.6220472440944882
          },
          {
            "number": 11,
            "ticks": 9575,
            "time": 77.71917786458333,
            "value": 0.6062992125984252
          },
          {
            "number": 11,
            "ticks": 9582,
            "time": 77.7759960625,
            "value": 0.5905511811023622
          },
          {
            "number": 11,
            "ticks": 9588,
            "time": 77.824697375,
            "value": 0.5669291338582677
          },
          {
            "number": 11,
            "ticks": 9595,
            "time": 77.88151557291667,
            "value": 0.5433070866141733
          },
          {
            "number": 11,
            "ticks": 9601,
            "time": 77.93021688541667,
            "value": 0.5196850393700787
          },
          {
            "number": 11,
            "ticks": 9608,
            "time": 77.98703508333332,
            "value": 0.49606299212598426
          },
          {
            "number": 11,
            "ticks": 9614,
            "time": 78.03573639583333,
            "value": 0.47244094488188976
          },
          {
            "number": 11,
            "ticks": 9621,
            "time": 78.09255459375,
            "value": 0.4409448818897638
          },
          {
            "number": 11,
            "ticks": 9627,
            "time": 78.14125590625,
            "value": 0.4094488188976378
          },
          {
            "number": 11,
            "ticks": 9634,
            "time": 78.19807410416666,
            "value": 0.3779527559055118
          },
          {
            "number": 11,
            "ticks": 9640,
            "time": 78.24677541666667,
            "value": 0.3464566929133858
          },
          {
            "number": 11,
            "ticks": 9647,
            "time": 78.30359361458332,
            "value": 0.30708661417322836
          },
          {
            "number": 11,
            "ticks": 9653,
            "time": 78.35229492708332,
            "value": 0.2755905511811024
          },
          {
            "number": 11,
            "ticks": 9660,
            "time": 78.40911312499999,
            "value": 0.23622047244094488
          },
          {
            "number": 11,
            "ticks": 9666,
            "time": 78.45781443749999,
            "value": 0.1968503937007874
          },
          {
            "number": 11,
            "ticks": 9673,
            "time": 78.51463263541666,
            "value": 0.15748031496062992
          },
          {
            "number": 11,
            "ticks": 9679,
            "time": 78.56333394791666,
            "value": 0.11023622047244094
          },
          {
            "number": 11,
            "ticks": 9686,
            "time": 78.62015214583333,
            "value": 0.06299212598425197
          },
          {
            "number": 11,
            "ticks": 9692,
            "time": 78.66885345833333,
            "value": 0.023622047244094488
          },
          {
            "number": 11,
            "ticks": 9696,
            "time": 78.701321,
            "value": 0
          },
          {
            "number": 11,
            "ticks": 9744,
            "time": 79.0909315,
            "value": 0.8661417322834646
          },
          {
            "number": 11,
            "ticks": 15264,
            "time": 123.89613899999999,
            "value": 0.7086614173228346
          },
          {
            "number": 11,
            "ticks": 15270,
            "time": 123.94484031249999,
            "value": 0.7322834645669292
          },
          {
            "number": 11,
            "ticks": 15277,
            "time": 124.00165851041665,
            "value": 0.7559055118110236
          },
          {
            "number": 11,
            "ticks": 15283,
            "time": 124.05035982291665,
            "value": 0.7795275590551181
          },
          {
            "number": 11,
            "ticks": 15290,
            "time": 124.10717802083333,
            "value": 0.8031496062992126
          },
          {
            "number": 11,
            "ticks": 15296,
            "time": 124.15587933333333,
            "value": 0.8188976377952756
          },
          {
            "number": 11,
            "ticks": 15303,
            "time": 124.21269753124999,
            "value": 0.84251968503937
          },
          {
            "number": 11,
            "ticks": 15309,
            "time": 124.26139884374999,
            "value": 0.8582677165354331
          },
          {
            "number": 11,
            "ticks": 15316,
            "time": 124.31821704166666,
            "value": 0.8740157480314961
          },
          {
            "number": 11,
            "ticks": 15322,
            "time": 124.36691835416666,
            "value": 0.889763779527559
          },
          {
            "number": 11,
            "ticks": 15329,
            "time": 124.42373655208333,
            "value": 0.905511811023622
          },
          {
            "number": 11,
            "ticks": 15335,
            "time": 124.47243786458333,
            "value": 0.9212598425196851
          },
          {
            "number": 11,
            "ticks": 15342,
            "time": 124.5292560625,
            "value": 0.937007874015748
          },
          {
            "number": 11,
            "ticks": 15348,
            "time": 124.577957375,
            "value": 0.9448818897637795
          },
          {
            "number": 11,
            "ticks": 15355,
            "time": 124.63477557291665,
            "value": 0.952755905511811
          },
          {
            "number": 11,
            "ticks": 15361,
            "time": 124.68347688541665,
            "value": 0.968503937007874
          },
          {
            "number": 11,
            "ticks": 15368,
            "time": 124.74029508333334,
            "value": 0.9763779527559056
          },
          {
            "number": 11,
            "ticks": 15381,
            "time": 124.84581459374999,
            "value": 0.984251968503937
          },
          {
            "number": 11,
            "ticks": 15387,
            "time": 124.89451590624999,
            "value": 0.9921259842519685
          },
          {
            "number": 11,
            "ticks": 15408,
            "time": 125.06497049999999,
            "value": 1
          },
          {
            "number": 11,
            "ticks": 15504,
            "time": 125.8441915,
            "value": 0.8661417322834646
          },
          {
            "number": 11,
            "ticks": 15648,
            "time": 127.01302299999999,
            "value": 0.6299212598425197
          },
          {
            "number": 11,
            "ticks": 15654,
            "time": 127.06172431249999,
            "value": 0.6692913385826772
          },
          {
            "number": 11,
            "ticks": 15661,
            "time": 127.11854251041665,
            "value": 0.7086614173228346
          },
          {
            "number": 11,
            "ticks": 15667,
            "time": 127.16724382291665,
            "value": 0.7480314960629921
          },
          {
            "number": 11,
            "ticks": 15674,
            "time": 127.22406202083333,
            "value": 0.7795275590551181
          },
          {
            "number": 11,
            "ticks": 15680,
            "time": 127.27276333333333,
            "value": 0.8110236220472441
          },
          {
            "number": 11,
            "ticks": 15687,
            "time": 127.32958153124999,
            "value": 0.84251968503937
          },
          {
            "number": 11,
            "ticks": 15693,
            "time": 127.37828284374999,
            "value": 0.8661417322834646
          },
          {
            "number": 11,
            "ticks": 15700,
            "time": 127.43510104166666,
            "value": 0.889763779527559
          },
          {
            "number": 11,
            "ticks": 15706,
            "time": 127.48380235416666,
            "value": 0.905511811023622
          },
          {
            "number": 11,
            "ticks": 15713,
            "time": 127.54062055208333,
            "value": 0.9212598425196851
          },
          {
            "number": 11,
            "ticks": 15719,
            "time": 127.58932186458333,
            "value": 0.937007874015748
          },
          {
            "number": 11,
            "ticks": 15726,
            "time": 127.6461400625,
            "value": 0.9448818897637795
          },
          {
            "number": 11,
            "ticks": 15732,
            "time": 127.694841375,
            "value": 0.952755905511811
          },
          {
            "number": 11,
            "ticks": 15744,
            "time": 127.792244,
            "value": 0.9606299212598425
          },
          {
            "number": 11,
            "ticks": 15792,
            "time": 128.1818545,
            "value": 0.8503937007874016
          },
          {
            "number": 11,
            "ticks": 15816,
            "time": 128.37665975,
            "value": 0.7086614173228346
          },
          {
            "number": 11,
            "ticks": 15822,
            "time": 128.4253610625,
            "value": 0.7322834645669292
          },
          {
            "number": 11,
            "ticks": 15829,
            "time": 128.48217926041664,
            "value": 0.7637795275590551
          },
          {
            "number": 11,
            "ticks": 15835,
            "time": 128.53088057291666,
            "value": 0.7952755905511811
          },
          {
            "number": 11,
            "ticks": 15842,
            "time": 128.58769877083333,
            "value": 0.8188976377952756
          },
          {
            "number": 11,
            "ticks": 15848,
            "time": 128.63640008333334,
            "value": 0.84251968503937
          },
          {
            "number": 11,
            "ticks": 15855,
            "time": 128.69321828124998,
            "value": 0.8661417322834646
          },
          {
            "number": 11,
            "ticks": 15861,
            "time": 128.74191959375,
            "value": 0.8818897637795275
          },
          {
            "number": 11,
            "ticks": 15868,
            "time": 128.79873779166664,
            "value": 0.905511811023622
          },
          {
            "number": 11,
            "ticks": 15874,
            "time": 128.84743910416665,
            "value": 0.9212598425196851
          },
          {
            "number": 11,
            "ticks": 15881,
            "time": 128.90425730208332,
            "value": 0.937007874015748
          },
          {
            "number": 11,
            "ticks": 15887,
            "time": 128.95295861458334,
            "value": 0.9448818897637795
          },
          {
            "number": 11,
            "ticks": 15894,
            "time": 129.00977681249998,
            "value": 0.9606299212598425
          },
          {
            "number": 11,
            "ticks": 15900,
            "time": 129.058478125,
            "value": 0.968503937007874
          },
          {
            "number": 11,
            "ticks": 15907,
            "time": 129.11529632291666,
            "value": 0.9763779527559056
          },
          {
            "number": 11,
            "ticks": 15913,
            "time": 129.16399763541665,
            "value": 0.984251968503937
          },
          {
            "number": 11,
            "ticks": 15920,
            "time": 129.22081583333332,
            "value": 0.9921259842519685
          },
          {
            "number": 11,
            "ticks": 15936,
            "time": 129.350686,
            "value": 1
          },
          {
            "number": 11,
            "ticks": 15984,
            "time": 129.7402965,
            "value": 0.8661417322834646
          },
          {
            "number": 11,
            "ticks": 16224,
            "time": 131.688349,
            "value": 0.7086614173228346
          },
          {
            "number": 11,
            "ticks": 16230,
            "time": 131.7370503125,
            "value": 0.7401574803149606
          },
          {
            "number": 11,
            "ticks": 16237,
            "time": 131.79386851041664,
            "value": 0.7795275590551181
          },
          {
            "number": 11,
            "ticks": 16243,
            "time": 131.84256982291666,
            "value": 0.8110236220472441
          },
          {
            "number": 11,
            "ticks": 16250,
            "time": 131.89938802083333,
            "value": 0.84251968503937
          },
          {
            "number": 11,
            "ticks": 16256,
            "time": 131.94808933333334,
            "value": 0.8661417322834646
          },
          {
            "number": 11,
            "ticks": 16263,
            "time": 132.00490753124998,
            "value": 0.889763779527559
          },
          {
            "number": 11,
            "ticks": 16269,
            "time": 132.05360884375,
            "value": 0.9133858267716536
          },
          {
            "number": 11,
            "ticks": 16276,
            "time": 132.11042704166664,
            "value": 0.937007874015748
          },
          {
            "number": 11,
            "ticks": 16282,
            "time": 132.15912835416665,
            "value": 0.952755905511811
          },
          {
            "number": 11,
            "ticks": 16289,
            "time": 132.21594655208332,
            "value": 0.968503937007874
          },
          {
            "number": 11,
            "ticks": 16295,
            "time": 132.26464786458334,
            "value": 0.9763779527559056
          },
          {
            "number": 11,
            "ticks": 16302,
            "time": 132.32146606249998,
            "value": 0.984251968503937
          },
          {
            "number": 11,
            "ticks": 16308,
            "time": 132.370167375,
            "value": 0.9921259842519685
          },
          {
            "number": 11,
            "ticks": 16320,
            "time": 132.46757,
            "value": 1
          },
          {
            "number": 11,
            "ticks": 16368,
            "time": 132.8571805,
            "value": 0.8661417322834646
          },
          {
            "number": 11,
            "ticks": 16416,
            "time": 133.246791,
            "value": 0.7086614173228346
          },
          {
            "number": 11,
            "ticks": 16422,
            "time": 133.2954923125,
            "value": 0.7401574803149606
          },
          {
            "number": 11,
            "ticks": 16429,
            "time": 133.35231051041666,
            "value": 0.7795275590551181
          },
          {
            "number": 11,
            "ticks": 16435,
            "time": 133.40101182291664,
            "value": 0.8110236220472441
          },
          {
            "number": 11,
            "ticks": 16442,
            "time": 133.45783002083334,
            "value": 0.84251968503937
          },
          {
            "number": 11,
            "ticks": 16448,
            "time": 133.50653133333333,
            "value": 0.8661417322834646
          },
          {
            "number": 11,
            "ticks": 16455,
            "time": 133.56334953125,
            "value": 0.889763779527559
          },
          {
            "number": 11,
            "ticks": 16461,
            "time": 133.61205084374998,
            "value": 0.9133858267716536
          },
          {
            "number": 11,
            "ticks": 16468,
            "time": 133.66886904166665,
            "value": 0.937007874015748
          },
          {
            "number": 11,
            "ticks": 16474,
            "time": 133.71757035416664,
            "value": 0.952755905511811
          },
          {
            "number": 11,
            "ticks": 16481,
            "time": 133.77438855208334,
            "value": 0.968503937007874
          },
          {
            "number": 11,
            "ticks": 16487,
            "time": 133.82308986458332,
            "value": 0.9763779527559056
          },
          {
            "number": 11,
            "ticks": 16494,
            "time": 133.8799080625,
            "value": 0.984251968503937
          },
          {
            "number": 11,
            "ticks": 16500,
            "time": 133.92860937499998,
            "value": 0.9921259842519685
          },
          {
            "number": 11,
            "ticks": 16512,
            "time": 134.02601199999998,
            "value": 1
          },
          {
            "number": 11,
            "ticks": 16560,
            "time": 134.41562249999998,
            "value": 0.8661417322834646
          },
          {
            "number": 11,
            "ticks": 16584,
            "time": 134.61042774999999,
            "value": 0.3937007874015748
          },
          {
            "number": 11,
            "ticks": 16590,
            "time": 134.6591290625,
            "value": 0.47244094488188976
          },
          {
            "number": 11,
            "ticks": 16597,
            "time": 134.71594726041664,
            "value": 0.5433070866141733
          },
          {
            "number": 11,
            "ticks": 16603,
            "time": 134.76464857291666,
            "value": 0.6141732283464567
          },
          {
            "number": 11,
            "ticks": 16610,
            "time": 134.82146677083333,
            "value": 0.6692913385826772
          },
          {
            "number": 11,
            "ticks": 16616,
            "time": 134.87016808333334,
            "value": 0.7322834645669292
          },
          {
            "number": 11,
            "ticks": 16623,
            "time": 134.92698628124998,
            "value": 0.7795275590551181
          },
          {
            "number": 11,
            "ticks": 16629,
            "time": 134.97568759375,
            "value": 0.8267716535433071
          },
          {
            "number": 11,
            "ticks": 16636,
            "time": 135.03250579166664,
            "value": 0.8661417322834646
          },
          {
            "number": 11,
            "ticks": 16642,
            "time": 135.08120710416665,
            "value": 0.905511811023622
          },
          {
            "number": 11,
            "ticks": 16649,
            "time": 135.13802530208332,
            "value": 0.9291338582677166
          },
          {
            "number": 11,
            "ticks": 16655,
            "time": 135.18672661458334,
            "value": 0.952755905511811
          },
          {
            "number": 11,
            "ticks": 16662,
            "time": 135.24354481249998,
            "value": 0.9763779527559056
          },
          {
            "number": 11,
            "ticks": 16668,
            "time": 135.292246125,
            "value": 0.984251968503937
          },
          {
            "number": 11,
            "ticks": 16675,
            "time": 135.34906432291666,
            "value": 0.9921259842519685
          },
          {
            "number": 11,
            "ticks": 16680,
            "time": 135.38964875,
            "value": 1
          },
          {
            "number": 11,
            "ticks": 16728,
            "time": 135.77925925,
            "value": 0.8661417322834646
          },
          {
            "number": 11,
            "ticks": 16800,
            "time": 136.363675,
            "value": 0.7086614173228346
          },
          {
            "number": 11,
            "ticks": 16806,
            "time": 136.4123763125,
            "value": 0.7322834645669292
          },
          {
            "number": 11,
            "ticks": 16813,
            "time": 136.46919451041666,
            "value": 0.7559055118110236
          },
          {
            "number": 11,
            "ticks": 16819,
            "time": 136.51789582291664,
            "value": 0.7795275590551181
          },
          {
            "number": 11,
            "ticks": 16826,
            "time": 136.57471402083334,
            "value": 0.8031496062992126
          },
          {
            "number": 11,
            "ticks": 16832,
            "time": 136.62341533333333,
            "value": 0.8188976377952756
          },
          {
            "number": 11,
            "ticks": 16839,
            "time": 136.68023353125,
            "value": 0.84251968503937
          },
          {
            "number": 11,
            "ticks": 16845,
            "time": 136.72893484374998,
            "value": 0.8582677165354331
          },
          {
            "number": 11,
            "ticks": 16852,
            "time": 136.78575304166665,
            "value": 0.8740157480314961
          },
          {
            "number": 11,
            "ticks": 16858,
            "time": 136.83445435416664,
            "value": 0.889763779527559
          },
          {
            "number": 11,
            "ticks": 16865,
            "time": 136.89127255208334,
            "value": 0.905511811023622
          },
          {
            "number": 11,
            "ticks": 16871,
            "time": 136.93997386458332,
            "value": 0.9212598425196851
          },
          {
            "number": 11,
            "ticks": 16878,
            "time": 136.9967920625,
            "value": 0.937007874015748
          },
          {
            "number": 11,
            "ticks": 16884,
            "time": 137.04549337499998,
            "value": 0.9448818897637795
          },
          {
            "number": 11,
            "ticks": 16891,
            "time": 137.10231157291665,
            "value": 0.952755905511811
          },
          {
            "number": 11,
            "ticks": 16897,
            "time": 137.15101288541666,
            "value": 0.968503937007874
          },
          {
            "number": 11,
            "ticks": 16904,
            "time": 137.20783108333333,
            "value": 0.9763779527559056
          },
          {
            "number": 11,
            "ticks": 16917,
            "time": 137.31335059375,
            "value": 0.984251968503937
          },
          {
            "number": 11,
            "ticks": 16923,
            "time": 137.36205190625,
            "value": 0.9921259842519685
          },
          {
            "number": 11,
            "ticks": 16944,
            "time": 137.53250649999998,
            "value": 1
          },
          {
            "number": 11,
            "ticks": 17040,
            "time": 138.3117275,
            "value": 0.8661417322834646
          },
          {
            "number": 11,
            "ticks": 17376,
            "time": 141.03900099999998,
            "value": 0.7086614173228346
          },
          {
            "number": 11,
            "ticks": 17382,
            "time": 141.0877023125,
            "value": 0.7559055118110236
          },
          {
            "number": 11,
            "ticks": 17389,
            "time": 141.14452051041664,
            "value": 0.8031496062992126
          },
          {
            "number": 11,
            "ticks": 17395,
            "time": 141.19322182291666,
            "value": 0.84251968503937
          },
          {
            "number": 11,
            "ticks": 17402,
            "time": 141.25004002083332,
            "value": 0.8740157480314961
          },
          {
            "number": 11,
            "ticks": 17408,
            "time": 141.29874133333334,
            "value": 0.905511811023622
          },
          {
            "number": 11,
            "ticks": 17415,
            "time": 141.35555953124998,
            "value": 0.937007874015748
          },
          {
            "number": 11,
            "ticks": 17421,
            "time": 141.40426084375,
            "value": 0.952755905511811
          },
          {
            "number": 11,
            "ticks": 17428,
            "time": 141.46107904166664,
            "value": 0.9763779527559056
          },
          {
            "number": 11,
            "ticks": 17434,
            "time": 141.50978035416665,
            "value": 0.984251968503937
          },
          {
            "number": 11,
            "ticks": 17441,
            "time": 141.56659855208332,
            "value": 0.9921259842519685
          },
          {
            "number": 11,
            "ticks": 17448,
            "time": 141.62341675,
            "value": 1
          },
          {
            "number": 11,
            "ticks": 17472,
            "time": 141.818222,
            "value": 0.5826771653543307
          },
          {
            "number": 11,
            "ticks": 17478,
            "time": 141.86692331249998,
            "value": 0.6299212598425197
          },
          {
            "number": 11,
            "ticks": 17485,
            "time": 141.92374151041665,
            "value": 0.6692913385826772
          },
          {
            "number": 11,
            "ticks": 17491,
            "time": 141.97244282291666,
            "value": 0.7086614173228346
          },
          {
            "number": 11,
            "ticks": 17498,
            "time": 142.02926102083333,
            "value": 0.7480314960629921
          },
          {
            "number": 11,
            "ticks": 17504,
            "time": 142.07796233333332,
            "value": 0.7795275590551181
          },
          {
            "number": 11,
            "ticks": 17511,
            "time": 142.13478053125,
            "value": 0.8110236220472441
          },
          {
            "number": 11,
            "ticks": 17517,
            "time": 142.18348184375,
            "value": 0.84251968503937
          },
          {
            "number": 11,
            "ticks": 17524,
            "time": 142.24030004166664,
            "value": 0.8661417322834646
          },
          {
            "number": 11,
            "ticks": 17530,
            "time": 142.28900135416666,
            "value": 0.8818897637795275
          },
          {
            "number": 11,
            "ticks": 17537,
            "time": 142.34581955208333,
            "value": 0.905511811023622
          },
          {
            "number": 11,
            "ticks": 17543,
            "time": 142.39452086458334,
            "value": 0.9212598425196851
          },
          {
            "number": 11,
            "ticks": 17550,
            "time": 142.45133906249998,
            "value": 0.9291338582677166
          },
          {
            "number": 11,
            "ticks": 17556,
            "time": 142.500040375,
            "value": 0.937007874015748
          },
          {
            "number": 11,
            "ticks": 17568,
            "time": 142.597443,
            "value": 0.6299212598425197
          },
          {
            "number": 11,
            "ticks": 17574,
            "time": 142.64614431249998,
            "value": 0.6771653543307087
          },
          {
            "number": 11,
            "ticks": 17581,
            "time": 142.70296251041665,
            "value": 0.7165354330708661
          },
          {
            "number": 11,
            "ticks": 17587,
            "time": 142.75166382291664,
            "value": 0.7637795275590551
          },
          {
            "number": 11,
            "ticks": 17594,
            "time": 142.80848202083334,
            "value": 0.7952755905511811
          },
          {
            "number": 11,
            "ticks": 17600,
            "time": 142.85718333333332,
            "value": 0.8346456692913385
          },
          {
            "number": 11,
            "ticks": 17607,
            "time": 142.91400153125,
            "value": 0.8661417322834646
          },
          {
            "number": 11,
            "ticks": 17613,
            "time": 142.96270284374998,
            "value": 0.889763779527559
          },
          {
            "number": 11,
            "ticks": 17620,
            "time": 143.01952104166665,
            "value": 0.9212598425196851
          },
          {
            "number": 11,
            "ticks": 17626,
            "time": 143.06822235416664,
            "value": 0.937007874015748
          },
          {
            "number": 11,
            "ticks": 17633,
            "time": 143.12504055208333,
            "value": 0.9606299212598425
          },
          {
            "number": 11,
            "ticks": 17639,
            "time": 143.17374186458332,
            "value": 0.968503937007874
          },
          {
            "number": 11,
            "ticks": 17646,
            "time": 143.2305600625,
            "value": 0.984251968503937
          },
          {
            "number": 11,
            "ticks": 17652,
            "time": 143.27926137499998,
            "value": 0.9921259842519685
          },
          {
            "number": 11,
            "ticks": 17664,
            "time": 143.37666399999998,
            "value": 1
          },
          {
            "number": 11,
            "ticks": 17736,
            "time": 143.96107974999998,
            "value": 0.7086614173228346
          },
          {
            "number": 11,
            "ticks": 17742,
            "time": 144.0097810625,
            "value": 0.7322834645669292
          },
          {
            "number": 11,
            "ticks": 17749,
            "time": 144.06659926041664,
            "value": 0.7637795275590551
          },
          {
            "number": 11,
            "ticks": 17755,
            "time": 144.11530057291665,
            "value": 0.7952755905511811
          },
          {
            "number": 11,
            "ticks": 17762,
            "time": 144.17211877083332,
            "value": 0.8188976377952756
          },
          {
            "number": 11,
            "ticks": 17768,
            "time": 144.22082008333334,
            "value": 0.84251968503937
          },
          {
            "number": 11,
            "ticks": 17775,
            "time": 144.27763828124998,
            "value": 0.8661417322834646
          },
          {
            "number": 11,
            "ticks": 17781,
            "time": 144.32633959375,
            "value": 0.8818897637795275
          },
          {
            "number": 11,
            "ticks": 17788,
            "time": 144.38315779166666,
            "value": 0.905511811023622
          },
          {
            "number": 11,
            "ticks": 17794,
            "time": 144.43185910416665,
            "value": 0.9212598425196851
          },
          {
            "number": 11,
            "ticks": 17801,
            "time": 144.48867730208332,
            "value": 0.937007874015748
          },
          {
            "number": 11,
            "ticks": 17807,
            "time": 144.53737861458333,
            "value": 0.9448818897637795
          },
          {
            "number": 11,
            "ticks": 17814,
            "time": 144.5941968125,
            "value": 0.9606299212598425
          },
          {
            "number": 11,
            "ticks": 17820,
            "time": 144.642898125,
            "value": 0.968503937007874
          },
          {
            "number": 11,
            "ticks": 17827,
            "time": 144.69971632291666,
            "value": 0.9763779527559056
          },
          {
            "number": 11,
            "ticks": 17833,
            "time": 144.74841763541664,
            "value": 0.984251968503937
          },
          {
            "number": 11,
            "ticks": 17840,
            "time": 144.80523583333334,
            "value": 0.9921259842519685
          },
          {
            "number": 11,
            "ticks": 17856,
            "time": 144.935106,
            "value": 1
          },
          {
            "number": 11,
            "ticks": 18048,
            "time": 146.49354799999998,
            "value": 0.8661417322834646
          },
          {
            "number": 11,
            "ticks": 18336,
            "time": 148.831211,
            "value": 0.7086614173228346
          },
          {
            "number": 11,
            "ticks": 18342,
            "time": 148.87991231249998,
            "value": 0.7322834645669292
          },
          {
            "number": 11,
            "ticks": 18349,
            "time": 148.93673051041665,
            "value": 0.7637795275590551
          },
          {
            "number": 11,
            "ticks": 18355,
            "time": 148.98543182291664,
            "value": 0.7874015748031497
          },
          {
            "number": 11,
            "ticks": 18362,
            "time": 149.04225002083334,
            "value": 0.8110236220472441
          },
          {
            "number": 11,
            "ticks": 18368,
            "time": 149.09095133333332,
            "value": 0.8346456692913385
          },
          {
            "number": 11,
            "ticks": 18375,
            "time": 149.14776953125,
            "value": 0.8582677165354331
          },
          {
            "number": 11,
            "ticks": 18381,
            "time": 149.19647084374998,
            "value": 0.8818897637795275
          },
          {
            "number": 11,
            "ticks": 18388,
            "time": 149.25328904166665,
            "value": 0.8976377952755905
          },
          {
            "number": 11,
            "ticks": 18394,
            "time": 149.30199035416666,
            "value": 0.9133858267716536
          },
          {
            "number": 11,
            "ticks": 18401,
            "time": 149.35880855208333,
            "value": 0.9291338582677166
          },
          {
            "number": 11,
            "ticks": 18407,
            "time": 149.40750986458332,
            "value": 0.9448818897637795
          },
          {
            "number": 11,
            "ticks": 18414,
            "time": 149.4643280625,
            "value": 0.952755905511811
          },
          {
            "number": 11,
            "ticks": 18420,
            "time": 149.513029375,
            "value": 0.9606299212598425
          },
          {
            "number": 11,
            "ticks": 18427,
            "time": 149.56984757291664,
            "value": 0.968503937007874
          },
          {
            "number": 11,
            "ticks": 18433,
            "time": 149.61854888541666,
            "value": 0.9763779527559056
          },
          {
            "number": 11,
            "ticks": 18440,
            "time": 149.67536708333333,
            "value": 0.984251968503937
          },
          {
            "number": 11,
            "ticks": 18456,
            "time": 149.80523724999998,
            "value": 0.9921259842519685
          },
          {
            "number": 11,
            "ticks": 18624,
            "time": 151.168874,
            "value": 1
          },
          {
            "number": 11,
            "ticks": 18631,
            "time": 151.22569219791666,
            "value": 0.9921259842519685
          },
          {
            "number": 11,
            "ticks": 18639,
            "time": 151.29062728124998,
            "value": 0.984251968503937
          },
          {
            "number": 11,
            "ticks": 18647,
            "time": 151.35556236458334,
            "value": 0.9763779527559056
          },
          {
            "number": 11,
            "ticks": 18655,
            "time": 151.42049744791666,
            "value": 0.968503937007874
          },
          {
            "number": 11,
            "ticks": 18662,
            "time": 151.47731564583333,
            "value": 0.9606299212598425
          },
          {
            "number": 11,
            "ticks": 18670,
            "time": 151.54225072916665,
            "value": 0.952755905511811
          },
          {
            "number": 11,
            "ticks": 18678,
            "time": 151.60718581249998,
            "value": 0.9448818897637795
          },
          {
            "number": 11,
            "ticks": 18686,
            "time": 151.67212089583333,
            "value": 0.937007874015748
          },
          {
            "number": 11,
            "ticks": 18694,
            "time": 151.73705597916666,
            "value": 0.9291338582677166
          },
          {
            "number": 11,
            "ticks": 18701,
            "time": 151.79387417708332,
            "value": 0.9212598425196851
          },
          {
            "number": 11,
            "ticks": 18709,
            "time": 151.85880926041665,
            "value": 0.9133858267716536
          },
          {
            "number": 11,
            "ticks": 18717,
            "time": 151.92374434375,
            "value": 0.905511811023622
          },
          {
            "number": 11,
            "ticks": 18725,
            "time": 151.98867942708333,
            "value": 0.8976377952755905
          },
          {
            "number": 11,
            "ticks": 18732,
            "time": 152.045497625,
            "value": 0.889763779527559
          },
          {
            "number": 11,
            "ticks": 18740,
            "time": 152.11043270833332,
            "value": 0.8818897637795275
          },
          {
            "number": 11,
            "ticks": 18748,
            "time": 152.17536779166664,
            "value": 0.8740157480314961
          },
          {
            "number": 11,
            "ticks": 18756,
            "time": 152.240302875,
            "value": 0.8661417322834646
          },
          {
            "number": 11,
            "ticks": 18764,
            "time": 152.30523795833332,
            "value": 0.8582677165354331
          },
          {
            "number": 11,
            "ticks": 18771,
            "time": 152.36205615625,
            "value": 0.8503937007874016
          },
          {
            "number": 11,
            "ticks": 18779,
            "time": 152.42699123958332,
            "value": 0.84251968503937
          },
          {
            "number": 11,
            "ticks": 18787,
            "time": 152.49192632291664,
            "value": 0.8346456692913385
          },
          {
            "number": 11,
            "ticks": 18795,
            "time": 152.55686140625,
            "value": 0.8267716535433071
          },
          {
            "number": 11,
            "ticks": 18803,
            "time": 152.62179648958332,
            "value": 0.8188976377952756
          },
          {
            "number": 11,
            "ticks": 18810,
            "time": 152.6786146875,
            "value": 0.8110236220472441
          },
          {
            "number": 11,
            "ticks": 18818,
            "time": 152.74354977083334,
            "value": 0.8031496062992126
          },
          {
            "number": 11,
            "ticks": 18826,
            "time": 152.80848485416664,
            "value": 0.7952755905511811
          },
          {
            "number": 11,
            "ticks": 18834,
            "time": 152.8734199375,
            "value": 0.7874015748031497
          },
          {
            "number": 11,
            "ticks": 18841,
            "time": 152.93023813541666,
            "value": 0.7795275590551181
          },
          {
            "number": 11,
            "ticks": 18849,
            "time": 152.99517321874998,
            "value": 0.7716535433070866
          },
          {
            "number": 11,
            "ticks": 18857,
            "time": 153.06010830208334,
            "value": 0.7637795275590551
          },
          {
            "number": 11,
            "ticks": 18865,
            "time": 153.12504338541666,
            "value": 0.7559055118110236
          },
          {
            "number": 11,
            "ticks": 18873,
            "time": 153.18997846874998,
            "value": 0.7480314960629921
          },
          {
            "number": 11,
            "ticks": 18880,
            "time": 153.24679666666665,
            "value": 0.7401574803149606
          },
          {
            "number": 11,
            "ticks": 18888,
            "time": 153.31173174999998,
            "value": 0.7322834645669292
          },
          {
            "number": 11,
            "ticks": 18896,
            "time": 153.37666683333333,
            "value": 0.7244094488188977
          },
          {
            "number": 11,
            "ticks": 18904,
            "time": 153.44160191666666,
            "value": 0.7165354330708661
          },
          {
            "number": 11,
            "ticks": 18911,
            "time": 153.49842011458333,
            "value": 0.7086614173228346
          },
          {
            "number": 11,
            "ticks": 18912,
            "time": 153.50653699999998,
            "value": 0.7086614173228346
          },
          {
            "number": 11,
            "ticks": 18918,
            "time": 153.5552383125,
            "value": 0.7007874015748031
          },
          {
            "number": 11,
            "ticks": 18938,
            "time": 153.71757602083332,
            "value": 0.6929133858267716
          },
          {
            "number": 11,
            "ticks": 18944,
            "time": 153.76627733333333,
            "value": 0.6850393700787402
          },
          {
            "number": 11,
            "ticks": 18951,
            "time": 153.82309553124998,
            "value": 0.6771653543307087
          },
          {
            "number": 11,
            "ticks": 18957,
            "time": 153.87179684375,
            "value": 0.6614173228346457
          },
          {
            "number": 11,
            "ticks": 18964,
            "time": 153.92861504166666,
            "value": 0.6535433070866141
          },
          {
            "number": 11,
            "ticks": 18970,
            "time": 153.97731635416665,
            "value": 0.6377952755905512
          },
          {
            "number": 11,
            "ticks": 18977,
            "time": 154.03413455208332,
            "value": 0.6220472440944882
          },
          {
            "number": 11,
            "ticks": 18983,
            "time": 154.08283586458333,
            "value": 0.6062992125984252
          },
          {
            "number": 11,
            "ticks": 18990,
            "time": 154.1396540625,
            "value": 0.5905511811023622
          },
          {
            "number": 11,
            "ticks": 18996,
            "time": 154.188355375,
            "value": 0.5669291338582677
          },
          {
            "number": 11,
            "ticks": 19003,
            "time": 154.24517357291666,
            "value": 0.5433070866141733
          },
          {
            "number": 11,
            "ticks": 19009,
            "time": 154.29387488541664,
            "value": 0.5196850393700787
          },
          {
            "number": 11,
            "ticks": 19016,
            "time": 154.35069308333334,
            "value": 0.49606299212598426
          },
          {
            "number": 11,
            "ticks": 19022,
            "time": 154.39939439583333,
            "value": 0.47244094488188976
          },
          {
            "number": 11,
            "ticks": 19029,
            "time": 154.45621259375,
            "value": 0.4409448818897638
          },
          {
            "number": 11,
            "ticks": 19035,
            "time": 154.50491390624998,
            "value": 0.4094488188976378
          },
          {
            "number": 11,
            "ticks": 19042,
            "time": 154.56173210416665,
            "value": 0.3779527559055118
          },
          {
            "number": 11,
            "ticks": 19048,
            "time": 154.61043341666664,
            "value": 0.3464566929133858
          },
          {
            "number": 11,
            "ticks": 19055,
            "time": 154.66725161458334,
            "value": 0.30708661417322836
          },
          {
            "number": 11,
            "ticks": 19061,
            "time": 154.71595292708332,
            "value": 0.2755905511811024
          },
          {
            "number": 11,
            "ticks": 19068,
            "time": 154.772771125,
            "value": 0.23622047244094488
          },
          {
            "number": 11,
            "ticks": 19074,
            "time": 154.82147243749998,
            "value": 0.1968503937007874
          },
          {
            "number": 11,
            "ticks": 19081,
            "time": 154.87829063541665,
            "value": 0.15748031496062992
          },
          {
            "number": 11,
            "ticks": 19087,
            "time": 154.92699194791666,
            "value": 0.11023622047244094
          },
          {
            "number": 11,
            "ticks": 19094,
            "time": 154.98381014583333,
            "value": 0.06299212598425197
          },
          {
            "number": 11,
            "ticks": 19100,
            "time": 155.03251145833332,
            "value": 0.023622047244094488
          },
          {
            "number": 11,
            "ticks": 19104,
            "time": 155.064979,
            "value": 0
          },
          {
            "number": 11,
            "ticks": 19152,
            "time": 155.4545895,
            "value": 0.8661417322834646
          }
        ],
        "91": [
          {
            "number": 91,
            "ticks": 1,
            "time": 0.008116885416666665,
            "value": 0.2677165354330709
          }
        ],
        "93": [
          {
            "number": 93,
            "ticks": 2,
            "time": 0.01623377083333333,
            "value": 0.6299212598425197
          }
        ],
        "94": [
          {
            "number": 94,
            "ticks": 2,
            "time": 0.01623377083333333,
            "value": 0.11811023622047244
          }
        ],
        "98": [
          {
            "number": 98,
            "ticks": 3,
            "time": 0.024350656249999998,
            "value": 0.25196850393700787
          },
          {
            "number": 98,
            "ticks": 6,
            "time": 0.048701312499999996,
            "value": 0.25984251968503935
          },
          {
            "number": 98,
            "ticks": 9,
            "time": 0.07305196875,
            "value": 0.7874015748031497
          }
        ],
        "99": [
          {
            "number": 99,
            "ticks": 2,
            "time": 0.01623377083333333,
            "value": 0.007874015748031496
          },
          {
            "number": 99,
            "ticks": 5,
            "time": 0.04058442708333333,
            "value": 0.007874015748031496
          },
          {
            "number": 99,
            "ticks": 8,
            "time": 0.06493508333333332,
            "value": 0.007874015748031496
          }
        ],
        "121": [
          {
            "number": 121,
            "ticks": 0,
            "time": 0,
            "value": 0
          }
        ]
      },
      "pitchBends": [],
      "instrument": {
        "family": "pipe",
        "number": 73,
        "name": "flute"
      },
      "name": "",
      "notes": [
        {
          "duration": 0.3896105000000034,
          "durationTicks": 48,
          "midi": 77,
          "name": "F5",
          "ticks": 5808,
          "time": 47.142870499999994,
          "velocity": 0.7874015748031497
        },
        {
          "duration": 1.9480524999999957,
          "durationTicks": 240,
          "midi": 82,
          "name": "A#5",
          "ticks": 5856,
          "time": 47.532481,
          "velocity": 0.7874015748031497
        },
        {
          "duration": 0.3896105000000034,
          "durationTicks": 48,
          "midi": 84,
          "name": "C6",
          "ticks": 6096,
          "time": 49.48053349999999,
          "velocity": 0.7874015748031497
        },
        {
          "duration": 0.3896105000000034,
          "durationTicks": 48,
          "midi": 87,
          "name": "D#6",
          "ticks": 6144,
          "time": 49.870143999999996,
          "velocity": 0.7874015748031497
        },
        {
          "duration": 0.3896104999999963,
          "durationTicks": 48,
          "midi": 82,
          "name": "A#5",
          "ticks": 6192,
          "time": 50.2597545,
          "velocity": 0.7874015748031497
        },
        {
          "duration": 1.1688315000000031,
          "durationTicks": 144,
          "midi": 80,
          "name": "G#5",
          "ticks": 6240,
          "time": 50.649364999999996,
          "velocity": 0.7874015748031497
        },
        {
          "duration": 0.1948052499999946,
          "durationTicks": 24,
          "midi": 75,
          "name": "D#5",
          "ticks": 6384,
          "time": 51.8181965,
          "velocity": 0.7874015748031497
        },
        {
          "duration": 1.266234125000004,
          "durationTicks": 156,
          "midi": 77,
          "name": "F5",
          "ticks": 6408,
          "time": 52.013001749999994,
          "velocity": 0.7874015748031497
        },
        {
          "duration": 0.3896104999999963,
          "durationTicks": 48,
          "midi": 77,
          "name": "F5",
          "ticks": 6576,
          "time": 53.3766385,
          "velocity": 0.7874015748031497
        },
        {
          "duration": 0.3896105000000034,
          "durationTicks": 48,
          "midi": 78,
          "name": "F#5",
          "ticks": 6624,
          "time": 53.766248999999995,
          "velocity": 0.7874015748031497
        },
        {
          "duration": 0.3896104999999963,
          "durationTicks": 48,
          "midi": 77,
          "name": "F5",
          "ticks": 6672,
          "time": 54.1558595,
          "velocity": 0.7874015748031497
        },
        {
          "duration": 0.3896105000000034,
          "durationTicks": 48,
          "midi": 70,
          "name": "A#4",
          "ticks": 6720,
          "time": 54.545469999999995,
          "velocity": 0.7874015748031497
        },
        {
          "duration": 0.3896104999999963,
          "durationTicks": 48,
          "midi": 73,
          "name": "C#5",
          "ticks": 6768,
          "time": 54.9350805,
          "velocity": 0.7874015748031497
        },
        {
          "duration": 1.1688315000000031,
          "durationTicks": 144,
          "midi": 80,
          "name": "G#5",
          "ticks": 6816,
          "time": 55.324690999999994,
          "velocity": 0.7874015748031497
        },
        {
          "duration": 0.3896104999999963,
          "durationTicks": 48,
          "midi": 78,
          "name": "F#5",
          "ticks": 6960,
          "time": 56.4935225,
          "velocity": 0.7874015748031497
        },
        {
          "duration": 1.1688315000000031,
          "durationTicks": 144,
          "midi": 77,
          "name": "F5",
          "ticks": 7008,
          "time": 56.883132999999994,
          "velocity": 0.7874015748031497
        },
        {
          "duration": 0.14610393750000128,
          "durationTicks": 18,
          "midi": 75,
          "name": "D#5",
          "ticks": 7152,
          "time": 58.0519645,
          "velocity": 0.7874015748031497
        },
        {
          "duration": 1.168831499999996,
          "durationTicks": 144,
          "midi": 75,
          "name": "D#5",
          "ticks": 7176,
          "time": 58.24676975,
          "velocity": 0.7874015748031497
        },
        {
          "duration": 0.3896104999999963,
          "durationTicks": 48,
          "midi": 77,
          "name": "F5",
          "ticks": 7344,
          "time": 59.610406499999996,
          "velocity": 0.7874015748031497
        },
        {
          "duration": 1.9480525000000029,
          "durationTicks": 240,
          "midi": 82,
          "name": "A#5",
          "ticks": 7392,
          "time": 60.00001699999999,
          "velocity": 0.7874015748031497
        },
        {
          "duration": 0.3896104999999963,
          "durationTicks": 48,
          "midi": 84,
          "name": "C6",
          "ticks": 7632,
          "time": 61.948069499999995,
          "velocity": 0.7874015748031497
        },
        {
          "duration": 0.3896105000000034,
          "durationTicks": 48,
          "midi": 85,
          "name": "C#6",
          "ticks": 7680,
          "time": 62.33767999999999,
          "velocity": 0.7874015748031497
        },
        {
          "duration": 0.3896105000000034,
          "durationTicks": 48,
          "midi": 87,
          "name": "D#6",
          "ticks": 7728,
          "time": 62.727290499999995,
          "velocity": 0.7874015748031497
        },
        {
          "duration": 0.3896104999999963,
          "durationTicks": 48,
          "midi": 89,
          "name": "F6",
          "ticks": 7776,
          "time": 63.116901,
          "velocity": 0.7874015748031497
        },
        {
          "duration": 0.3896105000000034,
          "durationTicks": 48,
          "midi": 84,
          "name": "C6",
          "ticks": 7824,
          "time": 63.506511499999995,
          "velocity": 0.7874015748031497
        },
        {
          "duration": 0.3896104999999963,
          "durationTicks": 48,
          "midi": 82,
          "name": "A#5",
          "ticks": 7872,
          "time": 63.896122,
          "velocity": 0.7874015748031497
        },
        {
          "duration": 0.3896105000000034,
          "durationTicks": 48,
          "midi": 80,
          "name": "G#5",
          "ticks": 7920,
          "time": 64.2857325,
          "velocity": 0.7874015748031497
        },
        {
          "duration": 0.7792209999999926,
          "durationTicks": 96,
          "midi": 90,
          "name": "F#6",
          "ticks": 7968,
          "time": 64.675343,
          "velocity": 0.7874015748031497
        },
        {
          "duration": 0.7792210000000068,
          "durationTicks": 96,
          "midi": 89,
          "name": "F6",
          "ticks": 8064,
          "time": 65.45456399999999,
          "velocity": 0.7874015748031497
        },
        {
          "duration": 1.168831499999996,
          "durationTicks": 144,
          "midi": 87,
          "name": "D#6",
          "ticks": 8160,
          "time": 66.233785,
          "velocity": 0.7874015748031497
        },
        {
          "duration": 0.1948052500000017,
          "durationTicks": 24,
          "midi": 89,
          "name": "F6",
          "ticks": 8304,
          "time": 67.4026165,
          "velocity": 0.7874015748031497
        },
        {
          "duration": 2.5324682499999938,
          "durationTicks": 312,
          "midi": 82,
          "name": "A#5",
          "ticks": 8328,
          "time": 67.59742175,
          "velocity": 0.7874015748031497
        },
        {
          "duration": 0.3896105000000034,
          "durationTicks": 48,
          "midi": 82,
          "name": "A#5",
          "ticks": 8688,
          "time": 70.51950049999999,
          "velocity": 0.7874015748031497
        },
        {
          "duration": 0.3896105000000034,
          "durationTicks": 48,
          "midi": 85,
          "name": "C#6",
          "ticks": 8736,
          "time": 70.909111,
          "velocity": 0.7874015748031497
        },
        {
          "duration": 0.3896104999999892,
          "durationTicks": 48,
          "midi": 84,
          "name": "C6",
          "ticks": 8784,
          "time": 71.2987215,
          "velocity": 0.7874015748031497
        },
        {
          "duration": 0.3896105000000034,
          "durationTicks": 48,
          "midi": 82,
          "name": "A#5",
          "ticks": 8832,
          "time": 71.68833199999999,
          "velocity": 0.7874015748031497
        },
        {
          "duration": 0.3896105000000034,
          "durationTicks": 48,
          "midi": 84,
          "name": "C6",
          "ticks": 8880,
          "time": 72.07794249999999,
          "velocity": 0.7874015748031497
        },
        {
          "duration": 6.233767999999998,
          "durationTicks": 768,
          "midi": 85,
          "name": "C#6",
          "ticks": 8928,
          "time": 72.467553,
          "velocity": 0.7874015748031497
        },
        {
          "duration": 0.3896105000000034,
          "durationTicks": 48,
          "midi": 77,
          "name": "F5",
          "ticks": 15216,
          "time": 123.50652849999999,
          "velocity": 0.7874015748031497
        },
        {
          "duration": 1.9480525000000029,
          "durationTicks": 240,
          "midi": 82,
          "name": "A#5",
          "ticks": 15264,
          "time": 123.89613899999999,
          "velocity": 0.7874015748031497
        },
        {
          "duration": 0.3896105000000034,
          "durationTicks": 48,
          "midi": 84,
          "name": "C6",
          "ticks": 15504,
          "time": 125.8441915,
          "velocity": 0.7874015748031497
        },
        {
          "duration": 0.3896104999999892,
          "durationTicks": 48,
          "midi": 87,
          "name": "D#6",
          "ticks": 15552,
          "time": 126.233802,
          "velocity": 0.7874015748031497
        },
        {
          "duration": 0.3896105000000034,
          "durationTicks": 48,
          "midi": 82,
          "name": "A#5",
          "ticks": 15600,
          "time": 126.62341249999999,
          "velocity": 0.7874015748031497
        },
        {
          "duration": 1.168831499999996,
          "durationTicks": 144,
          "midi": 80,
          "name": "G#5",
          "ticks": 15648,
          "time": 127.01302299999999,
          "velocity": 0.7874015748031497
        },
        {
          "duration": 0.1948052500000017,
          "durationTicks": 24,
          "midi": 75,
          "name": "D#5",
          "ticks": 15792,
          "time": 128.1818545,
          "velocity": 0.7874015748031497
        },
        {
          "duration": 1.266234125000011,
          "durationTicks": 156,
          "midi": 77,
          "name": "F5",
          "ticks": 15816,
          "time": 128.37665975,
          "velocity": 0.7874015748031497
        },
        {
          "duration": 0.3896105000000034,
          "durationTicks": 48,
          "midi": 77,
          "name": "F5",
          "ticks": 15984,
          "time": 129.7402965,
          "velocity": 0.7874015748031497
        },
        {
          "duration": 0.389610499999975,
          "durationTicks": 48,
          "midi": 78,
          "name": "F#5",
          "ticks": 16032,
          "time": 130.129907,
          "velocity": 0.7874015748031497
        },
        {
          "duration": 0.3896105000000034,
          "durationTicks": 48,
          "midi": 77,
          "name": "F5",
          "ticks": 16080,
          "time": 130.51951749999998,
          "velocity": 0.7874015748031497
        },
        {
          "duration": 0.3896105000000034,
          "durationTicks": 48,
          "midi": 70,
          "name": "A#4",
          "ticks": 16128,
          "time": 130.90912799999998,
          "velocity": 0.7874015748031497
        },
        {
          "duration": 0.3896105000000034,
          "durationTicks": 48,
          "midi": 73,
          "name": "C#5",
          "ticks": 16176,
          "time": 131.29873849999998,
          "velocity": 0.7874015748031497
        },
        {
          "duration": 1.1688315000000102,
          "durationTicks": 144,
          "midi": 80,
          "name": "G#5",
          "ticks": 16224,
          "time": 131.688349,
          "velocity": 0.7874015748031497
        },
        {
          "duration": 0.3896105000000034,
          "durationTicks": 48,
          "midi": 78,
          "name": "F#5",
          "ticks": 16368,
          "time": 132.8571805,
          "velocity": 0.7874015748031497
        },
        {
          "duration": 1.1688314999999818,
          "durationTicks": 144,
          "midi": 77,
          "name": "F5",
          "ticks": 16416,
          "time": 133.246791,
          "velocity": 0.7874015748031497
        },
        {
          "duration": 0.1461039375000155,
          "durationTicks": 18,
          "midi": 75,
          "name": "D#5",
          "ticks": 16560,
          "time": 134.41562249999998,
          "velocity": 0.7874015748031497
        },
        {
          "duration": 1.1688315000000102,
          "durationTicks": 144,
          "midi": 75,
          "name": "D#5",
          "ticks": 16584,
          "time": 134.61042774999999,
          "velocity": 0.7874015748031497
        },
        {
          "duration": 0.3896105000000034,
          "durationTicks": 48,
          "midi": 77,
          "name": "F5",
          "ticks": 16752,
          "time": 135.9740645,
          "velocity": 0.7874015748031497
        },
        {
          "duration": 1.9480524999999886,
          "durationTicks": 240,
          "midi": 82,
          "name": "A#5",
          "ticks": 16800,
          "time": 136.363675,
          "velocity": 0.7874015748031497
        },
        {
          "duration": 0.3896105000000034,
          "durationTicks": 48,
          "midi": 84,
          "name": "C6",
          "ticks": 17040,
          "time": 138.3117275,
          "velocity": 0.7874015748031497
        },
        {
          "duration": 0.3896105000000034,
          "durationTicks": 48,
          "midi": 85,
          "name": "C#6",
          "ticks": 17088,
          "time": 138.701338,
          "velocity": 0.7874015748031497
        },
        {
          "duration": 0.3896105000000034,
          "durationTicks": 48,
          "midi": 87,
          "name": "D#6",
          "ticks": 17136,
          "time": 139.0909485,
          "velocity": 0.7874015748031497
        },
        {
          "duration": 0.3896105000000034,
          "durationTicks": 48,
          "midi": 89,
          "name": "F6",
          "ticks": 17184,
          "time": 139.480559,
          "velocity": 0.7874015748031497
        },
        {
          "duration": 0.389610499999975,
          "durationTicks": 48,
          "midi": 84,
          "name": "C6",
          "ticks": 17232,
          "time": 139.8701695,
          "velocity": 0.7874015748031497
        },
        {
          "duration": 0.3896105000000034,
          "durationTicks": 48,
          "midi": 82,
          "name": "A#5",
          "ticks": 17280,
          "time": 140.25977999999998,
          "velocity": 0.7874015748031497
        },
        {
          "duration": 0.3896105000000034,
          "durationTicks": 48,
          "midi": 80,
          "name": "G#5",
          "ticks": 17328,
          "time": 140.64939049999998,
          "velocity": 0.7874015748031497
        },
        {
          "duration": 0.7792210000000068,
          "durationTicks": 96,
          "midi": 90,
          "name": "F#6",
          "ticks": 17376,
          "time": 141.03900099999998,
          "velocity": 0.7874015748031497
        },
        {
          "duration": 0.7792210000000068,
          "durationTicks": 96,
          "midi": 89,
          "name": "F6",
          "ticks": 17472,
          "time": 141.818222,
          "velocity": 0.7874015748031497
        },
        {
          "duration": 1.1688314999999818,
          "durationTicks": 144,
          "midi": 87,
          "name": "D#6",
          "ticks": 17568,
          "time": 142.597443,
          "velocity": 0.7874015748031497
        },
        {
          "duration": 0.1948052500000017,
          "durationTicks": 24,
          "midi": 89,
          "name": "F6",
          "ticks": 17712,
          "time": 143.76627449999998,
          "velocity": 0.7874015748031497
        },
        {
          "duration": 2.5324682499999938,
          "durationTicks": 312,
          "midi": 82,
          "name": "A#5",
          "ticks": 17736,
          "time": 143.96107974999998,
          "velocity": 0.7874015748031497
        },
        {
          "duration": 0.3896105000000034,
          "durationTicks": 48,
          "midi": 82,
          "name": "A#5",
          "ticks": 18096,
          "time": 146.88315849999998,
          "velocity": 0.7874015748031497
        },
        {
          "duration": 0.3896105000000034,
          "durationTicks": 48,
          "midi": 85,
          "name": "C#6",
          "ticks": 18144,
          "time": 147.27276899999998,
          "velocity": 0.7874015748031497
        },
        {
          "duration": 0.3896105000000034,
          "durationTicks": 48,
          "midi": 84,
          "name": "C6",
          "ticks": 18192,
          "time": 147.6623795,
          "velocity": 0.7874015748031497
        },
        {
          "duration": 0.3896105000000034,
          "durationTicks": 48,
          "midi": 82,
          "name": "A#5",
          "ticks": 18240,
          "time": 148.05199,
          "velocity": 0.7874015748031497
        },
        {
          "duration": 0.3896105000000034,
          "durationTicks": 48,
          "midi": 84,
          "name": "C6",
          "ticks": 18288,
          "time": 148.4416005,
          "velocity": 0.7874015748031497
        },
        {
          "duration": 6.233767999999998,
          "durationTicks": 768,
          "midi": 85,
          "name": "C#6",
          "ticks": 18336,
          "time": 148.831211,
          "velocity": 0.7874015748031497
        }
      ]
    },
    {
      "channel": 0,
      "controlChanges": {},
      "pitchBends": [],
      "instrument": {
        "family": "piano",
        "number": 0,
        "name": "acoustic grand piano"
      },
      "name": "",
      "notes": [],
      "endOfTrackTicks": 45
    }
  ]
}