{
  "header": {
    "keySignatures": [],
    "meta": [
      {
        "text": "",
        "ticks": 0,
        "type": "text"
      }
    ],
    "name": "AhoXhEt@^WA`ubg`rdqv@2004/1/3@-yuki",
    "ppq": 480,
    "tempos": [
      {
        "bpm": 100,
        "ticks": 0
      }
    ],
    "timeSignatures": [
      {
        "ticks": 0,
        "timeSignature": [
          4,
          4
        ],
        "measures": 0
      }
    ]
  },
  "tracks": [
    {
      "channel": 0,
      "controlChanges": {
        "0": [
          {
            "number": 0,
            "ticks": 364,
            "time": 0.45499999999999996,
            "value": 0.007874015748031496
          }
        ],
        "32": [
          {
            "number": 32,
            "ticks": 368,
            "time": 0.46,
            "value": 0.023622047244094488
          }
        ],
        "91": [
          {
            "number": 91,
            "ticks": 320,
            "time": 0.39999999999999997,
            "value": 0.4330708661417323
          },
          {
            "number": 91,
            "ticks": 350,
            "time": 0.43749999999999994,
            "value": 0.4330708661417323
          }
        ]
      },
      "pitchBends": [],
      "instrument": {
        "family": "piano",
        "number": 0,
        "name": "acoustic grand piano"
      },
      "name": "",
      "notes": [],
      "endOfTrackTicks": 92064
    },
    {
      "channel": 0,
      "controlChanges": {
        "7": [
          {
            "number": 7,
            "ticks": 376,
            "time": 0.47,
            "value": 0.7874015748031497
          }
        ],
        "10": [
          {
            "number": 10,
            "ticks": 380,
            "time": 0.475,
            "value": 0.2677165354330709
          }
        ],
        "91": [
          {
            "number": 91,
            "ticks": 388,
            "time": 0.485,
            "value": 0.4409448818897638
          },
          {
            "number": 91,
            "ticks": 410,
            "time": 0.5125,
            "value": 0.4409448818897638
          }
        ],
        "93": [
          {
            "number": 93,
            "ticks": 388,
            "time": 0.485,
            "value": 0.23622047244094488
          }
        ]
      },
      "pitchBends": [],
      "instrument": {
        "family": "piano",
        "number": 2,
        "name": "electric grand piano"
      },
      "name": "",
      "notes": [
        {
          "duration": 0.1800000000000006,
          "durationTicks": 144,
          "midi": 76,
          "name": "E5",
          "ticks": 4080,
          "time": 5.1,
          "velocity": 0.7874015748031497
        },
        {
          "duration": 0.1800000000000006,
          "durationTicks": 144,
          "midi": 67,
          "name": "G4",
          "ticks": 4080,
          "time": 5.1,
          "velocity": 0.7874015748031497
        },
        {
          "duration": 0.1800000000000006,
          "durationTicks": 144,
          "midi": 72,
          "name": "C5",
          "ticks": 4080,
          "time": 5.1,
          "velocity": 0.7874015748031497
        },
        {
          "duration": 0.17999999999999883,
          "durationTicks": 144,
          "midi": 67,
          "name": "G4",
          "ticks": 4480,
          "time": 5.6000000000000005,
          "velocity": 0.7874015748031497
        },
        {
          "duration": 0.17999999999999883,
          "durationTicks": 144,
          "midi": 76,
          "name": "E5",
          "ticks": 4480,
          "time": 5.6000000000000005,
          "velocity": 0.7874015748031497
        },
        {
          "duration": 0.17999999999999883,
          "durationTicks": 144,
          "midi": 72,
          "name": "C5",
          "ticks": 4480,
          "time": 5.6000000000000005,
          "velocity": 0.7874015748031497
        },
        {
          "duration": 0.1800000000000006,
          "durationTicks": 144,
          "midi": 66,
          "name": "F#4",
          "ticks": 4800,
          "time": 6,
          "velocity": 0.7874015748031497
        },
        {
          "duration": 0.1800000000000006,
          "durationTicks": 144,
          "midi": 74,
          "name": "D5",
          "ticks": 4800,
          "time": 6,
          "velocity": 0.7874015748031497
        },
        {
          "duration": 0.1800000000000006,
          "durationTicks": 144,
          "midi": 71,
          "name": "B4",
          "ticks": 4800,
          "time": 6,
          "velocity": 0.7874015748031497
        },
        {
          "duration": 0.1800000000000006,
          "durationTicks": 144,
          "midi": 66,
          "name": "F#4",
          "ticks": 5040,
          "time": 6.3,
          "velocity": 0.7874015748031497
        },
        {
          "duration": 0.1800000000000006,
          "durationTicks": 144,
          "midi": 74,
          "name": "D5",
          "ticks": 5040,
          "time": 6.3,
          "velocity": 0.7874015748031497
        },
        {
          "duration": 0.1800000000000006,
          "durationTicks": 144,
          "midi": 71,
          "name": "B4",
          "ticks": 5040,
          "time": 6.3,
          "velocity": 0.7874015748031497
        },
        {
          "duration": 0.1800000000000006,
          "durationTicks": 144,
          "midi": 74,
          "name": "D5",
          "ticks": 5520,
          "time": 6.8999999999999995,
          "velocity": 0.7874015748031497
        },
        {
          "duration": 0.1800000000000006,
          "durationTicks": 144,
          "midi": 66,
          "name": "F#4",
          "ticks": 5520,
          "time": 6.8999999999999995,
          "velocity": 0.7874015748031497
        },
        {
          "duration": 0.1800000000000006,
          "durationTicks": 144,
          "midi": 71,
          "name": "B4",
          "ticks": 5520,
          "time": 6.8999999999999995,
          "velocity": 0.7874015748031497
        },
        {
          "duration": 0.08999999999999897,
          "durationTicks": 72,
          "midi": 76,
          "name": "E5",
          "ticks": 5680,
          "time": 7.1000000000000005,
          "velocity": 0.7874015748031497
        },
        {
          "duration": 0.08999999999999897,
          "durationTicks": 72,
          "midi": 67,
          "name": "G4",
          "ticks": 5680,
          "time": 7.1000000000000005,
          "velocity": 0.7874015748031497
        },
        {
          "duration": 0.08999999999999897,
          "durationTicks": 72,
          "midi": 72,
          "name": "C5",
          "ticks": 5680,
          "time": 7.1000000000000005,
          "velocity": 0.7874015748031497
        },
        {
          "duration": 0.28000000000000114,
          "durationTicks": 224,
          "midi": 74,
          "name": "D5",
          "ticks": 7440,
          "time": 9.299999999999999,
          "velocity": 0.7874015748031497
        },
        {
          "duration": 0.28000000000000114,
          "durationTicks": 224,
          "midi": 66,
          "name": "F#4",
          "ticks": 7440,
          "time": 9.299999999999999,
          "velocity": 0.7874015748031497
        },
        {
          "duration": 0.28000000000000114,
          "durationTicks": 224,
          "midi": 71,
          "name": "B4",
          "ticks": 7440,
          "time": 9.299999999999999,
          "velocity": 0.7874015748031497
        },
        {
          "duration": 0.17999999999999972,
          "durationTicks": 144,
          "midi": 76,
          "name": "E5",
          "ticks": 7920,
          "time": 9.9,
          "velocity": 0.7874015748031497
        },
        {
          "duration": 0.17999999999999972,
          "durationTicks": 144,
          "midi": 67,
          "name": "G4",
          "ticks": 7920,
          "time": 9.9,
          "velocity": 0.7874015748031497
        },
        {
          "duration": 0.17999999999999972,
          "durationTicks": 144,
          "midi": 72,
          "name": "C5",
          "ticks": 7920,
          "time": 9.9,
          "velocity": 0.7874015748031497
        },
        {
          "duration": 0.1800000000000015,
          "durationTicks": 144,
          "midi": 67,
          "name": "G4",
          "ticks": 8320,
          "time": 10.399999999999999,
          "velocity": 0.7874015748031497
        },
        {
          "duration": 0.1800000000000015,
          "durationTicks": 144,
          "midi": 76,
          "name": "E5",
          "ticks": 8320,
          "time": 10.399999999999999,
          "velocity": 0.7874015748031497
        },
        {
          "duration": 0.1800000000000015,
          "durationTicks": 144,
          "midi": 72,
          "name": "C5",
          "ticks": 8320,
          "time": 10.399999999999999,
          "velocity": 0.7874015748031497
        },
        {
          "duration": 0.1800000000000015,
          "durationTicks": 144,
          "midi": 66,
          "name": "F#4",
          "ticks": 8640,
          "time": 10.799999999999999,
          "velocity": 0.7874015748031497
        },
        {
          "duration": 0.1800000000000015,
          "durationTicks": 144,
          "midi": 74,
          "name": "D5",
          "ticks": 8640,
          "time": 10.799999999999999,
          "velocity": 0.7874015748031497
        },
        {
          "duration": 0.1800000000000015,
          "durationTicks": 144,
          "midi": 71,
          "name": "B4",
          "ticks": 8640,
          "time": 10.799999999999999,
          "velocity": 0.7874015748031497
        },
        {
          "duration": 0.17999999999999972,
          "durationTicks": 144,
          "midi": 66,
          "name": "F#4",
          "ticks": 8880,
          "time": 11.1,
          "velocity": 0.7874015748031497
        },
        {
          "duration": 0.17999999999999972,
          "durationTicks": 144,
          "midi": 74,
          "name": "D5",
          "ticks": 8880,
          "time": 11.1,
          "velocity": 0.7874015748031497
        },
        {
          "duration": 0.17999999999999972,
          "durationTicks": 144,
          "midi": 71,
          "name": "B4",
          "ticks": 8880,
          "time": 11.1,
          "velocity": 0.7874015748031497
        },
        {
          "duration": 0.1800000000000015,
          "durationTicks": 144,
          "midi": 74,
          "name": "D5",
          "ticks": 9360,
          "time": 11.7,
          "velocity": 0.7874015748031497
        },
        {
          "duration": 0.1800000000000015,
          "durationTicks": 144,
          "midi": 66,
          "name": "F#4",
          "ticks": 9360,
          "time": 11.7,
          "velocity": 0.7874015748031497
        },
        {
          "duration": 0.1800000000000015,
          "durationTicks": 144,
          "midi": 71,
          "name": "B4",
          "ticks": 9360,
          "time": 11.7,
          "velocity": 0.7874015748031497
        },
        {
          "duration": 0.09000000000000163,
          "durationTicks": 72,
          "midi": 76,
          "name": "E5",
          "ticks": 9520,
          "time": 11.899999999999999,
          "velocity": 0.7874015748031497
        },
        {
          "duration": 0.09000000000000163,
          "durationTicks": 72,
          "midi": 67,
          "name": "G4",
          "ticks": 9520,
          "time": 11.899999999999999,
          "velocity": 0.7874015748031497
        },
        {
          "duration": 0.09000000000000163,
          "durationTicks": 72,
          "midi": 72,
          "name": "C5",
          "ticks": 9520,
          "time": 11.899999999999999,
          "velocity": 0.7874015748031497
        },
        {
          "duration": 0.17999999999999972,
          "durationTicks": 144,
          "midi": 76,
          "name": "E5",
          "ticks": 11760,
          "time": 14.7,
          "velocity": 0.7874015748031497
        },
        {
          "duration": 0.17999999999999972,
          "durationTicks": 144,
          "midi": 67,
          "name": "G4",
          "ticks": 11760,
          "time": 14.7,
          "velocity": 0.7874015748031497
        },
        {
          "duration": 0.17999999999999972,
          "durationTicks": 144,
          "midi": 72,
          "name": "C5",
          "ticks": 11760,
          "time": 14.7,
          "velocity": 0.7874015748031497
        },
        {
          "duration": 0.17999999999999972,
          "durationTicks": 144,
          "midi": 67,
          "name": "G4",
          "ticks": 12160,
          "time": 15.2,
          "velocity": 0.7874015748031497
        },
        {
          "duration": 0.17999999999999972,
          "durationTicks": 144,
          "midi": 76,
          "name": "E5",
          "ticks": 12160,
          "time": 15.2,
          "velocity": 0.7874015748031497
        },
        {
          "duration": 0.17999999999999972,
          "durationTicks": 144,
          "midi": 72,
          "name": "C5",
          "ticks": 12160,
          "time": 15.2,
          "velocity": 0.7874015748031497
        },
        {
          "duration": 0.17999999999999972,
          "durationTicks": 144,
          "midi": 66,
          "name": "F#4",
          "ticks": 12480,
          "time": 15.6,
          "velocity": 0.7874015748031497
        },
        {
          "duration": 0.17999999999999972,
          "durationTicks": 144,
          "midi": 74,
          "name": "D5",
          "ticks": 12480,
          "time": 15.6,
          "velocity": 0.7874015748031497
        },
        {
          "duration": 0.17999999999999972,
          "durationTicks": 144,
          "midi": 71,
          "name": "B4",
          "ticks": 12480,
          "time": 15.6,
          "velocity": 0.7874015748031497
        },
        {
          "duration": 0.17999999999999972,
          "durationTicks": 144,
          "midi": 66,
          "name": "F#4",
          "ticks": 12720,
          "time": 15.899999999999999,
          "velocity": 0.7874015748031497
        },
        {
          "duration": 0.17999999999999972,
          "durationTicks": 144,
          "midi": 74,
          "name": "D5",
          "ticks": 12720,
          "time": 15.899999999999999,
          "velocity": 0.7874015748031497
        },
        {
          "duration": 0.17999999999999972,
          "durationTicks": 144,
          "midi": 71,
          "name": "B4",
          "ticks": 12720,
          "time": 15.899999999999999,
          "velocity": 0.7874015748031497
        },
        {
          "duration": 0.17999999999999972,
          "durationTicks": 144,
          "midi": 74,
          "name": "D5",
          "ticks": 13200,
          "time": 16.5,
          "velocity": 0.7874015748031497
        },
        {
          "duration": 0.17999999999999972,
          "durationTicks": 144,
          "midi": 66,
          "name": "F#4",
          "ticks": 13200,
          "time": 16.5,
          "velocity": 0.7874015748031497
        },
        {
          "duration": 0.17999999999999972,
          "durationTicks": 144,
          "midi": 71,
          "name": "B4",
          "ticks": 13200,
          "time": 16.5,
          "velocity": 0.7874015748031497
        },
        {
          "duration": 0.08999999999999986,
          "durationTicks": 72,
          "midi": 76,
          "name": "E5",
          "ticks": 13360,
          "time": 16.7,
          "velocity": 0.7874015748031497
        },
        {
          "duration": 0.08999999999999986,
          "durationTicks": 72,
          "midi": 67,
          "name": "G4",
          "ticks": 13360,
          "time": 16.7,
          "velocity": 0.7874015748031497
        },
        {
          "duration": 0.08999999999999986,
          "durationTicks": 72,
          "midi": 72,
          "name": "C5",
          "ticks": 13360,
          "time": 16.7,
          "velocity": 0.7874015748031497
        },
        {
          "duration": 0.17999999999999616,
          "durationTicks": 144,
          "midi": 76,
          "name": "E5",
          "ticks": 15600,
          "time": 19.5,
          "velocity": 0.7874015748031497
        },
        {
          "duration": 0.17999999999999616,
          "durationTicks": 144,
          "midi": 67,
          "name": "G4",
          "ticks": 15600,
          "time": 19.5,
          "velocity": 0.7874015748031497
        },
        {
          "duration": 0.17999999999999616,
          "durationTicks": 144,
          "midi": 72,
          "name": "C5",
          "ticks": 15600,
          "time": 19.5,
          "velocity": 0.7874015748031497
        },
        {
          "duration": 0.17999999999999972,
          "durationTicks": 144,
          "midi": 67,
          "name": "G4",
          "ticks": 16000,
          "time": 20,
          "velocity": 0.7874015748031497
        },
        {
          "duration": 0.17999999999999972,
          "durationTicks": 144,
          "midi": 76,
          "name": "E5",
          "ticks": 16000,
          "time": 20,
          "velocity": 0.7874015748031497
        },
        {
          "duration": 0.17999999999999972,
          "durationTicks": 144,
          "midi": 72,
          "name": "C5",
          "ticks": 16000,
          "time": 20,
          "velocity": 0.7874015748031497
        },
        {
          "duration": 0.17999999999999972,
          "durationTicks": 144,
          "midi": 66,
          "name": "F#4",
          "ticks": 16320,
          "time": 20.4,
          "velocity": 0.7874015748031497
        },
        {
          "duration": 0.17999999999999972,
          "durationTicks": 144,
          "midi": 74,
          "name": "D5",
          "ticks": 16320,
          "time": 20.4,
          "velocity": 0.7874015748031497
        },
        {
          "duration": 0.17999999999999972,
          "durationTicks": 144,
          "midi": 71,
          "name": "B4",
          "ticks": 16320,
          "time": 20.4,
          "velocity": 0.7874015748031497
        },
        {
          "duration": 0.17999999999999972,
          "durationTicks": 144,
          "midi": 66,
          "name": "F#4",
          "ticks": 16560,
          "time": 20.7,
          "velocity": 0.7874015748031497
        },
        {
          "duration": 0.17999999999999972,
          "durationTicks": 144,
          "midi": 74,
          "name": "D5",
          "ticks": 16560,
          "time": 20.7,
          "velocity": 0.7874015748031497
        },
        {
          "duration": 0.17999999999999972,
          "durationTicks": 144,
          "midi": 71,
          "name": "B4",
          "ticks": 16560,
          "time": 20.7,
          "velocity": 0.7874015748031497
        },
        {
          "duration": 0.17999999999999616,
          "durationTicks": 144,
          "midi": 74,
          "name": "D5",
          "ticks": 17040,
          "time": 21.3,
          "velocity": 0.7874015748031497
        },
        {
          "duration": 0.17999999999999616,
          "durationTicks": 144,
          "midi": 66,
          "name": "F#4",
          "ticks": 17040,
          "time": 21.3,
          "velocity": 0.7874015748031497
        },
        {
          "duration": 0.17999999999999616,
          "durationTicks": 144,
          "midi": 71,
          "name": "B4",
          "ticks": 17040,
          "time": 21.3,
          "velocity": 0.7874015748031497
        },
        {
          "duration": 0.08999999999999986,
          "durationTicks": 72,
          "midi": 76,
          "name": "E5",
          "ticks": 17200,
          "time": 21.5,
          "velocity": 0.7874015748031497
        },
        {
          "duration": 0.08999999999999986,
          "durationTicks": 72,
          "midi": 67,
          "name": "G4",
          "ticks": 17200,
          "time": 21.5,
          "velocity": 0.7874015748031497
        },
        {
          "duration": 0.08999999999999986,
          "durationTicks": 72,
          "midi": 72,
          "name": "C5",
          "ticks": 17200,
          "time": 21.5,
          "velocity": 0.7874015748031497
        },
        {
          "duration": 0.2699999999999996,
          "durationTicks": 216,
          "midi": 60,
          "name": "C4",
          "ticks": 18240,
          "time": 22.8,
          "velocity": 0.7874015748031497
        },
        {
          "duration": 0.17999999999999616,
          "durationTicks": 144,
          "midi": 64,
          "name": "E4",
          "ticks": 18240,
          "time": 22.8,
          "velocity": 0.7874015748031497
        },
        {
          "duration": 0.08999999999999986,
          "durationTicks": 72,
          "midi": 63,
          "name": "D#4",
          "ticks": 18400,
          "time": 23,
          "velocity": 0.7874015748031497
        },
        {
          "duration": 0.08999999999999986,
          "durationTicks": 72,
          "midi": 66,
          "name": "F#4",
          "ticks": 18400,
          "time": 23,
          "velocity": 0.7874015748031497
        },
        {
          "duration": 0.17999999999999972,
          "durationTicks": 144,
          "midi": 64,
          "name": "E4",
          "ticks": 18480,
          "time": 23.099999999999998,
          "velocity": 0.7874015748031497
        },
        {
          "duration": 0.17999999999999972,
          "durationTicks": 144,
          "midi": 67,
          "name": "G4",
          "ticks": 18480,
          "time": 23.099999999999998,
          "velocity": 0.7874015748031497
        },
        {
          "duration": 0.08999999999999986,
          "durationTicks": 72,
          "midi": 66,
          "name": "F#4",
          "ticks": 18640,
          "time": 23.3,
          "velocity": 0.7874015748031497
        },
        {
          "duration": 0.08999999999999986,
          "durationTicks": 72,
          "midi": 69,
          "name": "A4",
          "ticks": 18640,
          "time": 23.3,
          "velocity": 0.7874015748031497
        },
        {
          "duration": 0.08999999999999986,
          "durationTicks": 72,
          "midi": 64,
          "name": "E4",
          "ticks": 18720,
          "time": 23.4,
          "velocity": 0.7874015748031497
        },
        {
          "duration": 0.08999999999999986,
          "durationTicks": 72,
          "midi": 67,
          "name": "G4",
          "ticks": 18720,
          "time": 23.4,
          "velocity": 0.7874015748031497
        },
        {
          "duration": 0.09000000000000341,
          "durationTicks": 72,
          "midi": 65,
          "name": "F4",
          "ticks": 18800,
          "time": 23.499999999999996,
          "velocity": 0.7874015748031497
        },
        {
          "duration": 0.09000000000000341,
          "durationTicks": 72,
          "midi": 69,
          "name": "A4",
          "ticks": 18800,
          "time": 23.499999999999996,
          "velocity": 0.7874015748031497
        },
        {
          "duration": 0.08999999999999986,
          "durationTicks": 72,
          "midi": 67,
          "name": "G4",
          "ticks": 18880,
          "time": 23.6,
          "velocity": 0.7874015748031497
        },
        {
          "duration": 0.08999999999999986,
          "durationTicks": 72,
          "midi": 71,
          "name": "B4",
          "ticks": 18880,
          "time": 23.6,
          "velocity": 0.7874015748031497
        },
        {
          "duration": 0.08999999999999986,
          "durationTicks": 72,
          "midi": 69,
          "name": "A4",
          "ticks": 18960,
          "time": 23.7,
          "velocity": 0.7874015748031497
        },
        {
          "duration": 0.08999999999999986,
          "durationTicks": 72,
          "midi": 72,
          "name": "C5",
          "ticks": 18960,
          "time": 23.7,
          "velocity": 0.7874015748031497
        },
        {
          "duration": 0.09000000000000341,
          "durationTicks": 72,
          "midi": 71,
          "name": "B4",
          "ticks": 19040,
          "time": 23.799999999999997,
          "velocity": 0.7874015748031497
        },
        {
          "duration": 0.09000000000000341,
          "durationTicks": 72,
          "midi": 74,
          "name": "D5",
          "ticks": 19040,
          "time": 23.799999999999997,
          "velocity": 0.7874015748031497
        },
        {
          "duration": 0.0899999999999963,
          "durationTicks": 72,
          "midi": 72,
          "name": "C5",
          "ticks": 19120,
          "time": 23.900000000000002,
          "velocity": 0.7874015748031497
        },
        {
          "duration": 0.0899999999999963,
          "durationTicks": 72,
          "midi": 75,
          "name": "D#5",
          "ticks": 19120,
          "time": 23.900000000000002,
          "velocity": 0.7874015748031497
        },
        {
          "duration": 1.0799999999999983,
          "durationTicks": 864,
          "midi": 72,
          "name": "C5",
          "ticks": 19200,
          "time": 24,
          "velocity": 0.7874015748031497
        },
        {
          "duration": 1.0799999999999983,
          "durationTicks": 864,
          "midi": 64,
          "name": "E4",
          "ticks": 19200,
          "time": 24,
          "velocity": 0.7874015748031497
        },
        {
          "duration": 1.0799999999999983,
          "durationTicks": 864,
          "midi": 69,
          "name": "A4",
          "ticks": 19200,
          "time": 24,
          "velocity": 0.7874015748031497
        },
        {
          "duration": 0.2700000000000031,
          "durationTicks": 216,
          "midi": 71,
          "name": "B4",
          "ticks": 21360,
          "time": 26.7,
          "velocity": 0.7874015748031497
        },
        {
          "duration": 0.2700000000000031,
          "durationTicks": 216,
          "midi": 62,
          "name": "D4",
          "ticks": 21360,
          "time": 26.7,
          "velocity": 0.7874015748031497
        },
        {
          "duration": 0.2700000000000031,
          "durationTicks": 216,
          "midi": 67,
          "name": "G4",
          "ticks": 21360,
          "time": 26.7,
          "velocity": 0.7874015748031497
        },
        {
          "duration": 0.17999999999999972,
          "durationTicks": 144,
          "midi": 71,
          "name": "B4",
          "ticks": 21760,
          "time": 27.2,
          "velocity": 0.7874015748031497
        },
        {
          "duration": 0.17999999999999972,
          "durationTicks": 144,
          "midi": 62,
          "name": "D4",
          "ticks": 21760,
          "time": 27.2,
          "velocity": 0.7874015748031497
        },
        {
          "duration": 0.17999999999999972,
          "durationTicks": 144,
          "midi": 67,
          "name": "G4",
          "ticks": 21760,
          "time": 27.2,
          "velocity": 0.7874015748031497
        },
        {
          "duration": 1.0799999999999983,
          "durationTicks": 864,
          "midi": 71,
          "name": "B4",
          "ticks": 22080,
          "time": 27.599999999999998,
          "velocity": 0.7874015748031497
        },
        {
          "duration": 1.0799999999999983,
          "durationTicks": 864,
          "midi": 62,
          "name": "D4",
          "ticks": 22080,
          "time": 27.599999999999998,
          "velocity": 0.7874015748031497
        },
        {
          "duration": 1.0799999999999983,
          "durationTicks": 864,
          "midi": 67,
          "name": "G4",
          "ticks": 22080,
          "time": 27.599999999999998,
          "velocity": 0.7874015748031497
        },
        {
          "duration": 1.0799999999999983,
          "durationTicks": 864,
          "midi": 72,
          "name": "C5",
          "ticks": 23040,
          "time": 28.799999999999997,
          "velocity": 0.7874015748031497
        },
        {
          "duration": 1.0799999999999983,
          "durationTicks": 864,
          "midi": 64,
          "name": "E4",
          "ticks": 23040,
          "time": 28.799999999999997,
          "velocity": 0.7874015748031497
        },
        {
          "duration": 1.0799999999999983,
          "durationTicks": 864,
          "midi": 69,
          "name": "A4",
          "ticks": 23040,
          "time": 28.799999999999997,
          "velocity": 0.7874015748031497
        },
        {
          "duration": 0.19000000000000128,
          "durationTicks": 152,
          "midi": 74,
          "name": "D5",
          "ticks": 25200,
          "time": 31.5,
          "velocity": 0.7874015748031497
        },
        {
          "duration": 0.19000000000000128,
          "durationTicks": 152,
          "midi": 66,
          "name": "F#4",
          "ticks": 25200,
          "time": 31.5,
          "velocity": 0.7874015748031497
        },
        {
          "duration": 0.19000000000000128,
          "durationTicks": 152,
          "midi": 71,
          "name": "B4",
          "ticks": 25200,
          "time": 31.5,
          "velocity": 0.7874015748031497
        },
        {
          "duration": 0.18999999999999773,
          "durationTicks": 152,
          "midi": 74,
          "name": "D5",
          "ticks": 25600,
          "time": 32,
          "velocity": 0.7874015748031497
        },
        {
          "duration": 0.18999999999999773,
          "durationTicks": 152,
          "midi": 66,
          "name": "F#4",
          "ticks": 25600,
          "time": 32,
          "velocity": 0.7874015748031497
        },
        {
          "duration": 0.18999999999999773,
          "durationTicks": 152,
          "midi": 71,
          "name": "B4",
          "ticks": 25600,
          "time": 32,
          "velocity": 0.7874015748031497
        },
        {
          "duration": 0.2700000000000031,
          "durationTicks": 216,
          "midi": 66,
          "name": "F#4",
          "ticks": 25920,
          "time": 32.4,
          "velocity": 0.7874015748031497
        },
        {
          "duration": 0.2700000000000031,
          "durationTicks": 216,
          "midi": 74,
          "name": "D5",
          "ticks": 25920,
          "time": 32.4,
          "velocity": 0.7874015748031497
        },
        {
          "duration": 0.2700000000000031,
          "durationTicks": 216,
          "midi": 71,
          "name": "B4",
          "ticks": 25920,
          "time": 32.4,
          "velocity": 0.7874015748031497
        },
        {
          "duration": 1.0799999999999983,
          "durationTicks": 864,
          "midi": 72,
          "name": "C5",
          "ticks": 26880,
          "time": 33.6,
          "velocity": 0.7874015748031497
        },
        {
          "duration": 1.0799999999999983,
          "durationTicks": 864,
          "midi": 64,
          "name": "E4",
          "ticks": 26880,
          "time": 33.6,
          "velocity": 0.7874015748031497
        },
        {
          "duration": 1.0799999999999983,
          "durationTicks": 864,
          "midi": 69,
          "name": "A4",
          "ticks": 26880,
          "time": 33.6,
          "velocity": 0.7874015748031497
        },
        {
          "duration": 0.30000000000000426,
          "durationTicks": 240,
          "midi": 71,
          "name": "B4",
          "ticks": 29040,
          "time": 36.3,
          "velocity": 0.7874015748031497
        },
        {
          "duration": 0.30000000000000426,
          "durationTicks": 240,
          "midi": 62,
          "name": "D4",
          "ticks": 29040,
          "time": 36.3,
          "velocity": 0.7874015748031497
        },
        {
          "duration": 0.30000000000000426,
          "durationTicks": 240,
          "midi": 67,
          "name": "G4",
          "ticks": 29040,
          "time": 36.3,
          "velocity": 0.7874015748031497
        },
        {
          "duration": 0.20000000000000284,
          "durationTicks": 160,
          "midi": 71,
          "name": "B4",
          "ticks": 29440,
          "time": 36.8,
          "velocity": 0.7874015748031497
        },
        {
          "duration": 0.20000000000000284,
          "durationTicks": 160,
          "midi": 62,
          "name": "D4",
          "ticks": 29440,
          "time": 36.8,
          "velocity": 0.7874015748031497
        },
        {
          "duration": 0.20000000000000284,
          "durationTicks": 160,
          "midi": 67,
          "name": "G4",
          "ticks": 29440,
          "time": 36.8,
          "velocity": 0.7874015748031497
        },
        {
          "duration": 1.0799999999999983,
          "durationTicks": 864,
          "midi": 71,
          "name": "B4",
          "ticks": 29760,
          "time": 37.199999999999996,
          "velocity": 0.7874015748031497
        },
        {
          "duration": 1.0799999999999983,
          "durationTicks": 864,
          "midi": 62,
          "name": "D4",
          "ticks": 29760,
          "time": 37.199999999999996,
          "velocity": 0.7874015748031497
        },
        {
          "duration": 1.0799999999999983,
          "durationTicks": 864,
          "midi": 67,
          "name": "G4",
          "ticks": 29760,
          "time": 37.199999999999996,
          "velocity": 0.7874015748031497
        },
        {
          "duration": 1.0799999999999983,
          "durationTicks": 864,
          "midi": 72,
          "name": "C5",
          "ticks": 30720,
          "time": 38.4,
          "velocity": 0.7874015748031497
        },
        {
          "duration": 1.0799999999999983,
          "durationTicks": 864,
          "midi": 64,
          "name": "E4",
          "ticks": 30720,
          "time": 38.4,
          "velocity": 0.7874015748031497
        },
        {
          "duration": 1.0799999999999983,
          "durationTicks": 864,
          "midi": 69,
          "name": "A4",
          "ticks": 30720,
          "time": 38.4,
          "velocity": 0.7874015748031497
        },
        {
          "duration": 0.4799999999999969,
          "durationTicks": 384,
          "midi": 71,
          "name": "B4",
          "ticks": 32640,
          "time": 40.8,
          "velocity": 0.7874015748031497
        },
        {
          "duration": 0.4799999999999969,
          "durationTicks": 384,
          "midi": 66,
          "name": "F#4",
          "ticks": 32640,
          "time": 40.8,
          "velocity": 0.7874015748031497
        },
        {
          "duration": 0.4799999999999969,
          "durationTicks": 384,
          "midi": 76,
          "name": "E5",
          "ticks": 32640,
          "time": 40.8,
          "velocity": 0.7874015748031497
        },
        {
          "duration": 0.10249999999999915,
          "durationTicks": 82,
          "midi": 76,
          "name": "E5",
          "ticks": 33040,
          "time": 41.3,
          "velocity": 0.7874015748031497
        },
        {
          "duration": 0.09000000000000341,
          "durationTicks": 72,
          "midi": 66,
          "name": "F#4",
          "ticks": 33040,
          "time": 41.3,
          "velocity": 0.7874015748031497
        },
        {
          "duration": 0.10249999999999915,
          "durationTicks": 82,
          "midi": 71,
          "name": "B4",
          "ticks": 33040,
          "time": 41.3,
          "velocity": 0.7874015748031497
        },
        {
          "duration": 0.17999999999999972,
          "durationTicks": 144,
          "midi": 76,
          "name": "E5",
          "ticks": 34800,
          "time": 43.5,
          "velocity": 0.7874015748031497
        },
        {
          "duration": 0.17999999999999972,
          "durationTicks": 144,
          "midi": 67,
          "name": "G4",
          "ticks": 34800,
          "time": 43.5,
          "velocity": 0.7874015748031497
        },
        {
          "duration": 0.17999999999999972,
          "durationTicks": 144,
          "midi": 72,
          "name": "C5",
          "ticks": 34800,
          "time": 43.5,
          "velocity": 0.7874015748031497
        },
        {
          "duration": 0.18000000000000682,
          "durationTicks": 144,
          "midi": 67,
          "name": "G4",
          "ticks": 35200,
          "time": 43.99999999999999,
          "velocity": 0.7874015748031497
        },
        {
          "duration": 0.18000000000000682,
          "durationTicks": 144,
          "midi": 76,
          "name": "E5",
          "ticks": 35200,
          "time": 43.99999999999999,
          "velocity": 0.7874015748031497
        },
        {
          "duration": 0.18000000000000682,
          "durationTicks": 144,
          "midi": 72,
          "name": "C5",
          "ticks": 35200,
          "time": 43.99999999999999,
          "velocity": 0.7874015748031497
        },
        {
          "duration": 0.17999999999999972,
          "durationTicks": 144,
          "midi": 66,
          "name": "F#4",
          "ticks": 35520,
          "time": 44.4,
          "velocity": 0.7874015748031497
        },
        {
          "duration": 0.17999999999999972,
          "durationTicks": 144,
          "midi": 74,
          "name": "D5",
          "ticks": 35520,
          "time": 44.4,
          "velocity": 0.7874015748031497
        },
        {
          "duration": 0.17999999999999972,
          "durationTicks": 144,
          "midi": 71,
          "name": "B4",
          "ticks": 35520,
          "time": 44.4,
          "velocity": 0.7874015748031497
        },
        {
          "duration": 0.17999999999999972,
          "durationTicks": 144,
          "midi": 66,
          "name": "F#4",
          "ticks": 35760,
          "time": 44.699999999999996,
          "velocity": 0.7874015748031497
        },
        {
          "duration": 0.17999999999999972,
          "durationTicks": 144,
          "midi": 74,
          "name": "D5",
          "ticks": 35760,
          "time": 44.699999999999996,
          "velocity": 0.7874015748031497
        },
        {
          "duration": 0.17999999999999972,
          "durationTicks": 144,
          "midi": 71,
          "name": "B4",
          "ticks": 35760,
          "time": 44.699999999999996,
          "velocity": 0.7874015748031497
        },
        {
          "duration": 0.17999999999999972,
          "durationTicks": 144,
          "midi": 74,
          "name": "D5",
          "ticks": 36240,
          "time": 45.3,
          "velocity": 0.7874015748031497
        },
        {
          "duration": 0.17999999999999972,
          "durationTicks": 144,
          "midi": 66,
          "name": "F#4",
          "ticks": 36240,
          "time": 45.3,
          "velocity": 0.7874015748031497
        },
        {
          "duration": 0.17999999999999972,
          "durationTicks": 144,
          "midi": 71,
          "name": "B4",
          "ticks": 36240,
          "time": 45.3,
          "velocity": 0.7874015748031497
        },
        {
          "duration": 0.09000000000000341,
          "durationTicks": 72,
          "midi": 76,
          "name": "E5",
          "ticks": 36400,
          "time": 45.49999999999999,
          "velocity": 0.7874015748031497
        },
        {
          "duration": 0.09000000000000341,
          "durationTicks": 72,
          "midi": 67,
          "name": "G4",
          "ticks": 36400,
          "time": 45.49999999999999,
          "velocity": 0.7874015748031497
        },
        {
          "duration": 0.09000000000000341,
          "durationTicks": 72,
          "midi": 72,
          "name": "C5",
          "ticks": 36400,
          "time": 45.49999999999999,
          "velocity": 0.7874015748031497
        },
        {
          "duration": 0.28000000000000114,
          "durationTicks": 224,
          "midi": 74,
          "name": "D5",
          "ticks": 38160,
          "time": 47.699999999999996,
          "velocity": 0.7874015748031497
        },
        {
          "duration": 0.28000000000000114,
          "durationTicks": 224,
          "midi": 66,
          "name": "F#4",
          "ticks": 38160,
          "time": 47.699999999999996,
          "velocity": 0.7874015748031497
        },
        {
          "duration": 0.28000000000000114,
          "durationTicks": 224,
          "midi": 71,
          "name": "B4",
          "ticks": 38160,
          "time": 47.699999999999996,
          "velocity": 0.7874015748031497
        },
        {
          "duration": 0.17999999999999972,
          "durationTicks": 144,
          "midi": 76,
          "name": "E5",
          "ticks": 38640,
          "time": 48.3,
          "velocity": 0.7874015748031497
        },
        {
          "duration": 0.17999999999999972,
          "durationTicks": 144,
          "midi": 67,
          "name": "G4",
          "ticks": 38640,
          "time": 48.3,
          "velocity": 0.7874015748031497
        },
        {
          "duration": 0.17999999999999972,
          "durationTicks": 144,
          "midi": 72,
          "name": "C5",
          "ticks": 38640,
          "time": 48.3,
          "velocity": 0.7874015748031497
        },
        {
          "duration": 0.18000000000000682,
          "durationTicks": 144,
          "midi": 67,
          "name": "G4",
          "ticks": 39040,
          "time": 48.8,
          "velocity": 0.7874015748031497
        },
        {
          "duration": 0.18000000000000682,
          "durationTicks": 144,
          "midi": 76,
          "name": "E5",
          "ticks": 39040,
          "time": 48.8,
          "velocity": 0.7874015748031497
        },
        {
          "duration": 0.18000000000000682,
          "durationTicks": 144,
          "midi": 72,
          "name": "C5",
          "ticks": 39040,
          "time": 48.8,
          "velocity": 0.7874015748031497
        },
        {
          "duration": 0.17999999999999972,
          "durationTicks": 144,
          "midi": 66,
          "name": "F#4",
          "ticks": 39360,
          "time": 49.199999999999996,
          "velocity": 0.7874015748031497
        },
        {
          "duration": 0.17999999999999972,
          "durationTicks": 144,
          "midi": 74,
          "name": "D5",
          "ticks": 39360,
          "time": 49.199999999999996,
          "velocity": 0.7874015748031497
        },
        {
          "duration": 0.17999999999999972,
          "durationTicks": 144,
          "midi": 71,
          "name": "B4",
          "ticks": 39360,
          "time": 49.199999999999996,
          "velocity": 0.7874015748031497
        },
        {
          "duration": 0.17999999999999972,
          "durationTicks": 144,
          "midi": 66,
          "name": "F#4",
          "ticks": 39600,
          "time": 49.5,
          "velocity": 0.7874015748031497
        },
        {
          "duration": 0.17999999999999972,
          "durationTicks": 144,
          "midi": 74,
          "name": "D5",
          "ticks": 39600,
          "time": 49.5,
          "velocity": 0.7874015748031497
        },
        {
          "duration": 0.17999999999999972,
          "durationTicks": 144,
          "midi": 71,
          "name": "B4",
          "ticks": 39600,
          "time": 49.5,
          "velocity": 0.7874015748031497
        },
        {
          "duration": 0.1799999999999926,
          "durationTicks": 144,
          "midi": 74,
          "name": "D5",
          "ticks": 40080,
          "time": 50.1,
          "velocity": 0.7874015748031497
        },
        {
          "duration": 0.1799999999999926,
          "durationTicks": 144,
          "midi": 66,
          "name": "F#4",
          "ticks": 40080,
          "time": 50.1,
          "velocity": 0.7874015748031497
        },
        {
          "duration": 0.1799999999999926,
          "durationTicks": 144,
          "midi": 71,
          "name": "B4",
          "ticks": 40080,
          "time": 50.1,
          "velocity": 0.7874015748031497
        },
        {
          "duration": 0.09000000000000341,
          "durationTicks": 72,
          "midi": 76,
          "name": "E5",
          "ticks": 40240,
          "time": 50.3,
          "velocity": 0.7874015748031497
        },
        {
          "duration": 0.09000000000000341,
          "durationTicks": 72,
          "midi": 67,
          "name": "G4",
          "ticks": 40240,
          "time": 50.3,
          "velocity": 0.7874015748031497
        },
        {
          "duration": 0.09000000000000341,
          "durationTicks": 72,
          "midi": 72,
          "name": "C5",
          "ticks": 40240,
          "time": 50.3,
          "velocity": 0.7874015748031497
        },
        {
          "duration": 0.1799999999999926,
          "durationTicks": 144,
          "midi": 76,
          "name": "E5",
          "ticks": 42480,
          "time": 53.1,
          "velocity": 0.7874015748031497
        },
        {
          "duration": 0.1799999999999926,
          "durationTicks": 144,
          "midi": 67,
          "name": "G4",
          "ticks": 42480,
          "time": 53.1,
          "velocity": 0.7874015748031497
        },
        {
          "duration": 0.1799999999999926,
          "durationTicks": 144,
          "midi": 72,
          "name": "C5",
          "ticks": 42480,
          "time": 53.1,
          "velocity": 0.7874015748031497
        },
        {
          "duration": 0.18000000000000682,
          "durationTicks": 144,
          "midi": 67,
          "name": "G4",
          "ticks": 42880,
          "time": 53.599999999999994,
          "velocity": 0.7874015748031497
        },
        {
          "duration": 0.18000000000000682,
          "durationTicks": 144,
          "midi": 76,
          "name": "E5",
          "ticks": 42880,
          "time": 53.599999999999994,
          "velocity": 0.7874015748031497
        },
        {
          "duration": 0.18000000000000682,
          "durationTicks": 144,
          "midi": 72,
          "name": "C5",
          "ticks": 42880,
          "time": 53.599999999999994,
          "velocity": 0.7874015748031497
        },
        {
          "duration": 0.17999999999999972,
          "durationTicks": 144,
          "midi": 66,
          "name": "F#4",
          "ticks": 43200,
          "time": 54,
          "velocity": 0.7874015748031497
        },
        {
          "duration": 0.17999999999999972,
          "durationTicks": 144,
          "midi": 74,
          "name": "D5",
          "ticks": 43200,
          "time": 54,
          "velocity": 0.7874015748031497
        },
        {
          "duration": 0.17999999999999972,
          "durationTicks": 144,
          "midi": 71,
          "name": "B4",
          "ticks": 43200,
          "time": 54,
          "velocity": 0.7874015748031497
        },
        {
          "duration": 0.17999999999999972,
          "durationTicks": 144,
          "midi": 66,
          "name": "F#4",
          "ticks": 43440,
          "time": 54.3,
          "velocity": 0.7874015748031497
        },
        {
          "duration": 0.17999999999999972,
          "durationTicks": 144,
          "midi": 74,
          "name": "D5",
          "ticks": 43440,
          "time": 54.3,
          "velocity": 0.7874015748031497
        },
        {
          "duration": 0.17999999999999972,
          "durationTicks": 144,
          "midi": 71,
          "name": "B4",
          "ticks": 43440,
          "time": 54.3,
          "velocity": 0.7874015748031497
        },
        {
          "duration": 0.17999999999999972,
          "durationTicks": 144,
          "midi": 74,
          "name": "D5",
          "ticks": 43920,
          "time": 54.9,
          "velocity": 0.7874015748031497
        },
        {
          "duration": 0.17999999999999972,
          "durationTicks": 144,
          "midi": 66,
          "name": "F#4",
          "ticks": 43920,
          "time": 54.9,
          "velocity": 0.7874015748031497
        },
        {
          "duration": 0.17999999999999972,
          "durationTicks": 144,
          "midi": 71,
          "name": "B4",
          "ticks": 43920,
          "time": 54.9,
          "velocity": 0.7874015748031497
        },
        {
          "duration": 0.09000000000000341,
          "durationTicks": 72,
          "midi": 76,
          "name": "E5",
          "ticks": 44080,
          "time": 55.099999999999994,
          "velocity": 0.7874015748031497
        },
        {
          "duration": 0.09000000000000341,
          "durationTicks": 72,
          "midi": 67,
          "name": "G4",
          "ticks": 44080,
          "time": 55.099999999999994,
          "velocity": 0.7874015748031497
        },
        {
          "duration": 0.09000000000000341,
          "durationTicks": 72,
          "midi": 72,
          "name": "C5",
          "ticks": 44080,
          "time": 55.099999999999994,
          "velocity": 0.7874015748031497
        },
        {
          "duration": 0.17999999999999972,
          "durationTicks": 144,
          "midi": 76,
          "name": "E5",
          "ticks": 46320,
          "time": 57.9,
          "velocity": 0.7874015748031497
        },
        {
          "duration": 0.17999999999999972,
          "durationTicks": 144,
          "midi": 67,
          "name": "G4",
          "ticks": 46320,
          "time": 57.9,
          "velocity": 0.7874015748031497
        },
        {
          "duration": 0.17999999999999972,
          "durationTicks": 144,
          "midi": 72,
          "name": "C5",
          "ticks": 46320,
          "time": 57.9,
          "velocity": 0.7874015748031497
        },
        {
          "duration": 0.18000000000000682,
          "durationTicks": 144,
          "midi": 67,
          "name": "G4",
          "ticks": 46720,
          "time": 58.39999999999999,
          "velocity": 0.7874015748031497
        },
        {
          "duration": 0.18000000000000682,
          "durationTicks": 144,
          "midi": 76,
          "name": "E5",
          "ticks": 46720,
          "time": 58.39999999999999,
          "velocity": 0.7874015748031497
        },
        {
          "duration": 0.18000000000000682,
          "durationTicks": 144,
          "midi": 72,
          "name": "C5",
          "ticks": 46720,
          "time": 58.39999999999999,
          "velocity": 0.7874015748031497
        },
        {
          "duration": 0.17999999999999972,
          "durationTicks": 144,
          "midi": 66,
          "name": "F#4",
          "ticks": 47040,
          "time": 58.8,
          "velocity": 0.7874015748031497
        },
        {
          "duration": 0.17999999999999972,
          "durationTicks": 144,
          "midi": 74,
          "name": "D5",
          "ticks": 47040,
          "time": 58.8,
          "velocity": 0.7874015748031497
        },
        {
          "duration": 0.17999999999999972,
          "durationTicks": 144,
          "midi": 71,
          "name": "B4",
          "ticks": 47040,
          "time": 58.8,
          "velocity": 0.7874015748031497
        },
        {
          "duration": 0.17999999999999972,
          "durationTicks": 144,
          "midi": 66,
          "name": "F#4",
          "ticks": 47280,
          "time": 59.099999999999994,
          "velocity": 0.7874015748031497
        },
        {
          "duration": 0.17999999999999972,
          "durationTicks": 144,
          "midi": 74,
          "name": "D5",
          "ticks": 47280,
          "time": 59.099999999999994,
          "velocity": 0.7874015748031497
        },
        {
          "duration": 0.17999999999999972,
          "durationTicks": 144,
          "midi": 71,
          "name": "B4",
          "ticks": 47280,
          "time": 59.099999999999994,
          "velocity": 0.7874015748031497
        },
        {
          "duration": 0.17999999999999972,
          "durationTicks": 144,
          "midi": 74,
          "name": "D5",
          "ticks": 47760,
          "time": 59.699999999999996,
          "velocity": 0.7874015748031497
        },
        {
          "duration": 0.17999999999999972,
          "durationTicks": 144,
          "midi": 66,
          "name": "F#4",
          "ticks": 47760,
          "time": 59.699999999999996,
          "velocity": 0.7874015748031497
        },
        {
          "duration": 0.17999999999999972,
          "durationTicks": 144,
          "midi": 71,
          "name": "B4",
          "ticks": 47760,
          "time": 59.699999999999996,
          "velocity": 0.7874015748031497
        },
        {
          "duration": 0.09000000000000341,
          "durationTicks": 72,
          "midi": 76,
          "name": "E5",
          "ticks": 47920,
          "time": 59.89999999999999,
          "velocity": 0.7874015748031497
        },
        {
          "duration": 0.09000000000000341,
          "durationTicks": 72,
          "midi": 67,
          "name": "G4",
          "ticks": 47920,
          "time": 59.89999999999999,
          "velocity": 0.7874015748031497
        },
        {
          "duration": 0.09000000000000341,
          "durationTicks": 72,
          "midi": 72,
          "name": "C5",
          "ticks": 47920,
          "time": 59.89999999999999,
          "velocity": 0.7874015748031497
        },
        {
          "duration": 0.2700000000000031,
          "durationTicks": 216,
          "midi": 60,
          "name": "C4",
          "ticks": 48960,
          "time": 61.199999999999996,
          "velocity": 0.7874015748031497
        },
        {
          "duration": 0.17999999999999972,
          "durationTicks": 144,
          "midi": 64,
          "name": "E4",
          "ticks": 48960,
          "time": 61.199999999999996,
          "velocity": 0.7874015748031497
        },
        {
          "duration": 0.09000000000000341,
          "durationTicks": 72,
          "midi": 63,
          "name": "D#4",
          "ticks": 49120,
          "time": 61.39999999999999,
          "velocity": 0.7874015748031497
        },
        {
          "duration": 0.09000000000000341,
          "durationTicks": 72,
          "midi": 66,
          "name": "F#4",
          "ticks": 49120,
          "time": 61.39999999999999,
          "velocity": 0.7874015748031497
        },
        {
          "duration": 0.1799999999999926,
          "durationTicks": 144,
          "midi": 64,
          "name": "E4",
          "ticks": 49200,
          "time": 61.5,
          "velocity": 0.7874015748031497
        },
        {
          "duration": 0.1799999999999926,
          "durationTicks": 144,
          "midi": 67,
          "name": "G4",
          "ticks": 49200,
          "time": 61.5,
          "velocity": 0.7874015748031497
        },
        {
          "duration": 0.09000000000000341,
          "durationTicks": 72,
          "midi": 66,
          "name": "F#4",
          "ticks": 49360,
          "time": 61.699999999999996,
          "velocity": 0.7874015748031497
        },
        {
          "duration": 0.09000000000000341,
          "durationTicks": 72,
          "midi": 69,
          "name": "A4",
          "ticks": 49360,
          "time": 61.699999999999996,
          "velocity": 0.7874015748031497
        },
        {
          "duration": 0.09000000000000341,
          "durationTicks": 72,
          "midi": 64,
          "name": "E4",
          "ticks": 49440,
          "time": 61.8,
          "velocity": 0.7874015748031497
        },
        {
          "duration": 0.09000000000000341,
          "durationTicks": 72,
          "midi": 67,
          "name": "G4",
          "ticks": 49440,
          "time": 61.8,
          "velocity": 0.7874015748031497
        },
        {
          "duration": 0.0899999999999963,
          "durationTicks": 72,
          "midi": 65,
          "name": "F4",
          "ticks": 49520,
          "time": 61.9,
          "velocity": 0.7874015748031497
        },
        {
          "duration": 0.0899999999999963,
          "durationTicks": 72,
          "midi": 69,
          "name": "A4",
          "ticks": 49520,
          "time": 61.9,
          "velocity": 0.7874015748031497
        },
        {
          "duration": 0.09000000000000341,
          "durationTicks": 72,
          "midi": 67,
          "name": "G4",
          "ticks": 49600,
          "time": 61.99999999999999,
          "velocity": 0.7874015748031497
        },
        {
          "duration": 0.09000000000000341,
          "durationTicks": 72,
          "midi": 71,
          "name": "B4",
          "ticks": 49600,
          "time": 61.99999999999999,
          "velocity": 0.7874015748031497
        },
        {
          "duration": 0.09000000000000341,
          "durationTicks": 72,
          "midi": 69,
          "name": "A4",
          "ticks": 49680,
          "time": 62.099999999999994,
          "velocity": 0.7874015748031497
        },
        {
          "duration": 0.09000000000000341,
          "durationTicks": 72,
          "midi": 72,
          "name": "C5",
          "ticks": 49680,
          "time": 62.099999999999994,
          "velocity": 0.7874015748031497
        },
        {
          "duration": 0.0899999999999892,
          "durationTicks": 72,
          "midi": 71,
          "name": "B4",
          "ticks": 49760,
          "time": 62.2,
          "velocity": 0.7874015748031497
        },
        {
          "duration": 0.0899999999999892,
          "durationTicks": 72,
          "midi": 74,
          "name": "D5",
          "ticks": 49760,
          "time": 62.2,
          "velocity": 0.7874015748031497
        },
        {
          "duration": 0.09000000000000341,
          "durationTicks": 72,
          "midi": 72,
          "name": "C5",
          "ticks": 49840,
          "time": 62.3,
          "velocity": 0.7874015748031497
        },
        {
          "duration": 0.09000000000000341,
          "durationTicks": 72,
          "midi": 75,
          "name": "D#5",
          "ticks": 49840,
          "time": 62.3,
          "velocity": 0.7874015748031497
        },
        {
          "duration": 1.0799999999999983,
          "durationTicks": 864,
          "midi": 72,
          "name": "C5",
          "ticks": 49920,
          "time": 62.4,
          "velocity": 0.7874015748031497
        },
        {
          "duration": 1.0799999999999983,
          "durationTicks": 864,
          "midi": 64,
          "name": "E4",
          "ticks": 49920,
          "time": 62.4,
          "velocity": 0.7874015748031497
        },
        {
          "duration": 1.0799999999999983,
          "durationTicks": 864,
          "midi": 69,
          "name": "A4",
          "ticks": 49920,
          "time": 62.4,
          "velocity": 0.7874015748031497
        },
        {
          "duration": 0.27000000000001023,
          "durationTicks": 216,
          "midi": 71,
          "name": "B4",
          "ticks": 52080,
          "time": 65.1,
          "velocity": 0.7874015748031497
        },
        {
          "duration": 0.27000000000001023,
          "durationTicks": 216,
          "midi": 62,
          "name": "D4",
          "ticks": 52080,
          "time": 65.1,
          "velocity": 0.7874015748031497
        },
        {
          "duration": 0.27000000000001023,
          "durationTicks": 216,
          "midi": 67,
          "name": "G4",
          "ticks": 52080,
          "time": 65.1,
          "velocity": 0.7874015748031497
        },
        {
          "duration": 0.18000000000000682,
          "durationTicks": 144,
          "midi": 71,
          "name": "B4",
          "ticks": 52480,
          "time": 65.6,
          "velocity": 0.7874015748031497
        },
        {
          "duration": 0.18000000000000682,
          "durationTicks": 144,
          "midi": 62,
          "name": "D4",
          "ticks": 52480,
          "time": 65.6,
          "velocity": 0.7874015748031497
        },
        {
          "duration": 0.18000000000000682,
          "durationTicks": 144,
          "midi": 67,
          "name": "G4",
          "ticks": 52480,
          "time": 65.6,
          "velocity": 0.7874015748031497
        },
        {
          "duration": 1.0799999999999983,
          "durationTicks": 864,
          "midi": 71,
          "name": "B4",
          "ticks": 52800,
          "time": 66,
          "velocity": 0.7874015748031497
        },
        {
          "duration": 1.0799999999999983,
          "durationTicks": 864,
          "midi": 62,
          "name": "D4",
          "ticks": 52800,
          "time": 66,
          "velocity": 0.7874015748031497
        },
        {
          "duration": 1.0799999999999983,
          "durationTicks": 864,
          "midi": 67,
          "name": "G4",
          "ticks": 52800,
          "time": 66,
          "velocity": 0.7874015748031497
        },
        {
          "duration": 1.0799999999999983,
          "durationTicks": 864,
          "midi": 72,
          "name": "C5",
          "ticks": 53760,
          "time": 67.2,
          "velocity": 0.7874015748031497
        },
        {
          "duration": 1.0799999999999983,
          "durationTicks": 864,
          "midi": 64,
          "name": "E4",
          "ticks": 53760,
          "time": 67.2,
          "velocity": 0.7874015748031497
        },
        {
          "duration": 1.0799999999999983,
          "durationTicks": 864,
          "midi": 69,
          "name": "A4",
          "ticks": 53760,
          "time": 67.2,
          "velocity": 0.7874015748031497
        },
        {
          "duration": 0.18999999999999773,
          "durationTicks": 152,
          "midi": 74,
          "name": "D5",
          "ticks": 55920,
          "time": 69.89999999999999,
          "velocity": 0.7874015748031497
        },
        {
          "duration": 0.18999999999999773,
          "durationTicks": 152,
          "midi": 66,
          "name": "F#4",
          "ticks": 55920,
          "time": 69.89999999999999,
          "velocity": 0.7874015748031497
        },
        {
          "duration": 0.18999999999999773,
          "durationTicks": 152,
          "midi": 71,
          "name": "B4",
          "ticks": 55920,
          "time": 69.89999999999999,
          "velocity": 0.7874015748031497
        },
        {
          "duration": 0.19000000000001194,
          "durationTicks": 152,
          "midi": 74,
          "name": "D5",
          "ticks": 56320,
          "time": 70.39999999999999,
          "velocity": 0.7874015748031497
        },
        {
          "duration": 0.19000000000001194,
          "durationTicks": 152,
          "midi": 66,
          "name": "F#4",
          "ticks": 56320,
          "time": 70.39999999999999,
          "velocity": 0.7874015748031497
        },
        {
          "duration": 0.19000000000001194,
          "durationTicks": 152,
          "midi": 71,
          "name": "B4",
          "ticks": 56320,
          "time": 70.39999999999999,
          "velocity": 0.7874015748031497
        },
        {
          "duration": 0.269999999999996,
          "durationTicks": 216,
          "midi": 66,
          "name": "F#4",
          "ticks": 56640,
          "time": 70.8,
          "velocity": 0.7874015748031497
        },
        {
          "duration": 0.269999999999996,
          "durationTicks": 216,
          "midi": 74,
          "name": "D5",
          "ticks": 56640,
          "time": 70.8,
          "velocity": 0.7874015748031497
        },
        {
          "duration": 0.269999999999996,
          "durationTicks": 216,
          "midi": 71,
          "name": "B4",
          "ticks": 56640,
          "time": 70.8,
          "velocity": 0.7874015748031497
        },
        {
          "duration": 1.0799999999999983,
          "durationTicks": 864,
          "midi": 72,
          "name": "C5",
          "ticks": 57600,
          "time": 72,
          "velocity": 0.7874015748031497
        },
        {
          "duration": 1.0799999999999983,
          "durationTicks": 864,
          "midi": 64,
          "name": "E4",
          "ticks": 57600,
          "time": 72,
          "velocity": 0.7874015748031497
        },
        {
          "duration": 1.0799999999999983,
          "durationTicks": 864,
          "midi": 69,
          "name": "A4",
          "ticks": 57600,
          "time": 72,
          "velocity": 0.7874015748031497
        },
        {
          "duration": 0.29999999999999716,
          "durationTicks": 240,
          "midi": 71,
          "name": "B4",
          "ticks": 59760,
          "time": 74.7,
          "velocity": 0.7874015748031497
        },
        {
          "duration": 0.29999999999999716,
          "durationTicks": 240,
          "midi": 62,
          "name": "D4",
          "ticks": 59760,
          "time": 74.7,
          "velocity": 0.7874015748031497
        },
        {
          "duration": 0.29999999999999716,
          "durationTicks": 240,
          "midi": 67,
          "name": "G4",
          "ticks": 59760,
          "time": 74.7,
          "velocity": 0.7874015748031497
        },
        {
          "duration": 0.20000000000001705,
          "durationTicks": 160,
          "midi": 71,
          "name": "B4",
          "ticks": 60160,
          "time": 75.19999999999999,
          "velocity": 0.7874015748031497
        },
        {
          "duration": 0.20000000000001705,
          "durationTicks": 160,
          "midi": 62,
          "name": "D4",
          "ticks": 60160,
          "time": 75.19999999999999,
          "velocity": 0.7874015748031497
        },
        {
          "duration": 0.20000000000001705,
          "durationTicks": 160,
          "midi": 67,
          "name": "G4",
          "ticks": 60160,
          "time": 75.19999999999999,
          "velocity": 0.7874015748031497
        },
        {
          "duration": 1.0799999999999983,
          "durationTicks": 864,
          "midi": 71,
          "name": "B4",
          "ticks": 60480,
          "time": 75.6,
          "velocity": 0.7874015748031497
        },
        {
          "duration": 1.0799999999999983,
          "durationTicks": 864,
          "midi": 62,
          "name": "D4",
          "ticks": 60480,
          "time": 75.6,
          "velocity": 0.7874015748031497
        },
        {
          "duration": 1.0799999999999983,
          "durationTicks": 864,
          "midi": 67,
          "name": "G4",
          "ticks": 60480,
          "time": 75.6,
          "velocity": 0.7874015748031497
        },
        {
          "duration": 1.0800000000000125,
          "durationTicks": 864,
          "midi": 72,
          "name": "C5",
          "ticks": 61440,
          "time": 76.8,
          "velocity": 0.7874015748031497
        },
        {
          "duration": 1.0800000000000125,
          "durationTicks": 864,
          "midi": 64,
          "name": "E4",
          "ticks": 61440,
          "time": 76.8,
          "velocity": 0.7874015748031497
        },
        {
          "duration": 1.0800000000000125,
          "durationTicks": 864,
          "midi": 69,
          "name": "A4",
          "ticks": 61440,
          "time": 76.8,
          "velocity": 0.7874015748031497
        },
        {
          "duration": 0.480000000000004,
          "durationTicks": 384,
          "midi": 71,
          "name": "B4",
          "ticks": 63360,
          "time": 79.2,
          "velocity": 0.7874015748031497
        },
        {
          "duration": 0.480000000000004,
          "durationTicks": 384,
          "midi": 66,
          "name": "F#4",
          "ticks": 63360,
          "time": 79.2,
          "velocity": 0.7874015748031497
        },
        {
          "duration": 0.480000000000004,
          "durationTicks": 384,
          "midi": 76,
          "name": "E5",
          "ticks": 63360,
          "time": 79.2,
          "velocity": 0.7874015748031497
        },
        {
          "duration": 0.10249999999999204,
          "durationTicks": 82,
          "midi": 76,
          "name": "E5",
          "ticks": 63760,
          "time": 79.7,
          "velocity": 0.7874015748031497
        },
        {
          "duration": 0.0899999999999892,
          "durationTicks": 72,
          "midi": 66,
          "name": "F#4",
          "ticks": 63760,
          "time": 79.7,
          "velocity": 0.7874015748031497
        },
        {
          "duration": 0.10249999999999204,
          "durationTicks": 82,
          "midi": 71,
          "name": "B4",
          "ticks": 63760,
          "time": 79.7,
          "velocity": 0.7874015748031497
        },
        {
          "duration": 0.18000000000000682,
          "durationTicks": 144,
          "midi": 76,
          "name": "E5",
          "ticks": 65520,
          "time": 81.89999999999999,
          "velocity": 0.7874015748031497
        },
        {
          "duration": 0.18000000000000682,
          "durationTicks": 144,
          "midi": 67,
          "name": "G4",
          "ticks": 65520,
          "time": 81.89999999999999,
          "velocity": 0.7874015748031497
        },
        {
          "duration": 0.18000000000000682,
          "durationTicks": 144,
          "midi": 72,
          "name": "C5",
          "ticks": 65520,
          "time": 81.89999999999999,
          "velocity": 0.7874015748031497
        },
        {
          "duration": 0.1799999999999926,
          "durationTicks": 144,
          "midi": 67,
          "name": "G4",
          "ticks": 65920,
          "time": 82.4,
          "velocity": 0.7874015748031497
        },
        {
          "duration": 0.1799999999999926,
          "durationTicks": 144,
          "midi": 76,
          "name": "E5",
          "ticks": 65920,
          "time": 82.4,
          "velocity": 0.7874015748031497
        },
        {
          "duration": 0.1799999999999926,
          "durationTicks": 144,
          "midi": 72,
          "name": "C5",
          "ticks": 65920,
          "time": 82.4,
          "velocity": 0.7874015748031497
        },
        {
          "duration": 0.18000000000000682,
          "durationTicks": 144,
          "midi": 66,
          "name": "F#4",
          "ticks": 66240,
          "time": 82.8,
          "velocity": 0.7874015748031497
        },
        {
          "duration": 0.18000000000000682,
          "durationTicks": 144,
          "midi": 74,
          "name": "D5",
          "ticks": 66240,
          "time": 82.8,
          "velocity": 0.7874015748031497
        },
        {
          "duration": 0.18000000000000682,
          "durationTicks": 144,
          "midi": 71,
          "name": "B4",
          "ticks": 66240,
          "time": 82.8,
          "velocity": 0.7874015748031497
        },
        {
          "duration": 0.18000000000000682,
          "durationTicks": 144,
          "midi": 66,
          "name": "F#4",
          "ticks": 66480,
          "time": 83.1,
          "velocity": 0.7874015748031497
        },
        {
          "duration": 0.18000000000000682,
          "durationTicks": 144,
          "midi": 74,
          "name": "D5",
          "ticks": 66480,
          "time": 83.1,
          "velocity": 0.7874015748031497
        },
        {
          "duration": 0.18000000000000682,
          "durationTicks": 144,
          "midi": 71,
          "name": "B4",
          "ticks": 66480,
          "time": 83.1,
          "velocity": 0.7874015748031497
        },
        {
          "duration": 0.18000000000000682,
          "durationTicks": 144,
          "midi": 74,
          "name": "D5",
          "ticks": 66960,
          "time": 83.7,
          "velocity": 0.7874015748031497
        },
        {
          "duration": 0.18000000000000682,
          "durationTicks": 144,
          "midi": 66,
          "name": "F#4",
          "ticks": 66960,
          "time": 83.7,
          "velocity": 0.7874015748031497
        },
        {
          "duration": 0.18000000000000682,
          "durationTicks": 144,
          "midi": 71,
          "name": "B4",
          "ticks": 66960,
          "time": 83.7,
          "velocity": 0.7874015748031497
        },
        {
          "duration": 0.0899999999999892,
          "durationTicks": 72,
          "midi": 76,
          "name": "E5",
          "ticks": 67120,
          "time": 83.9,
          "velocity": 0.7874015748031497
        },
        {
          "duration": 0.0899999999999892,
          "durationTicks": 72,
          "midi": 67,
          "name": "G4",
          "ticks": 67120,
          "time": 83.9,
          "velocity": 0.7874015748031497
        },
        {
          "duration": 0.0899999999999892,
          "durationTicks": 72,
          "midi": 72,
          "name": "C5",
          "ticks": 67120,
          "time": 83.9,
          "velocity": 0.7874015748031497
        },
        {
          "duration": 0.28000000000000114,
          "durationTicks": 224,
          "midi": 74,
          "name": "D5",
          "ticks": 68880,
          "time": 86.1,
          "velocity": 0.7874015748031497
        },
        {
          "duration": 0.28000000000000114,
          "durationTicks": 224,
          "midi": 66,
          "name": "F#4",
          "ticks": 68880,
          "time": 86.1,
          "velocity": 0.7874015748031497
        },
        {
          "duration": 0.28000000000000114,
          "durationTicks": 224,
          "midi": 71,
          "name": "B4",
          "ticks": 68880,
          "time": 86.1,
          "velocity": 0.7874015748031497
        },
        {
          "duration": 0.18000000000000682,
          "durationTicks": 144,
          "midi": 76,
          "name": "E5",
          "ticks": 69360,
          "time": 86.7,
          "velocity": 0.7874015748031497
        },
        {
          "duration": 0.18000000000000682,
          "durationTicks": 144,
          "midi": 67,
          "name": "G4",
          "ticks": 69360,
          "time": 86.7,
          "velocity": 0.7874015748031497
        },
        {
          "duration": 0.18000000000000682,
          "durationTicks": 144,
          "midi": 72,
          "name": "C5",
          "ticks": 69360,
          "time": 86.7,
          "velocity": 0.7874015748031497
        },
        {
          "duration": 0.1799999999999926,
          "durationTicks": 144,
          "midi": 67,
          "name": "G4",
          "ticks": 69760,
          "time": 87.2,
          "velocity": 0.7874015748031497
        },
        {
          "duration": 0.1799999999999926,
          "durationTicks": 144,
          "midi": 76,
          "name": "E5",
          "ticks": 69760,
          "time": 87.2,
          "velocity": 0.7874015748031497
        },
        {
          "duration": 0.1799999999999926,
          "durationTicks": 144,
          "midi": 72,
          "name": "C5",
          "ticks": 69760,
          "time": 87.2,
          "velocity": 0.7874015748031497
        },
        {
          "duration": 0.18000000000000682,
          "durationTicks": 144,
          "midi": 66,
          "name": "F#4",
          "ticks": 70080,
          "time": 87.6,
          "velocity": 0.7874015748031497
        },
        {
          "duration": 0.18000000000000682,
          "durationTicks": 144,
          "midi": 74,
          "name": "D5",
          "ticks": 70080,
          "time": 87.6,
          "velocity": 0.7874015748031497
        },
        {
          "duration": 0.18000000000000682,
          "durationTicks": 144,
          "midi": 71,
          "name": "B4",
          "ticks": 70080,
          "time": 87.6,
          "velocity": 0.7874015748031497
        },
        {
          "duration": 0.18000000000000682,
          "durationTicks": 144,
          "midi": 66,
          "name": "F#4",
          "ticks": 70320,
          "time": 87.89999999999999,
          "velocity": 0.7874015748031497
        },
        {
          "duration": 0.18000000000000682,
          "durationTicks": 144,
          "midi": 74,
          "name": "D5",
          "ticks": 70320,
          "time": 87.89999999999999,
          "velocity": 0.7874015748031497
        },
        {
          "duration": 0.18000000000000682,
          "durationTicks": 144,
          "midi": 71,
          "name": "B4",
          "ticks": 70320,
          "time": 87.89999999999999,
          "velocity": 0.7874015748031497
        },
        {
          "duration": 0.18000000000000682,
          "durationTicks": 144,
          "midi": 74,
          "name": "D5",
          "ticks": 70800,
          "time": 88.5,
          "velocity": 0.7874015748031497
        },
        {
          "duration": 0.18000000000000682,
          "durationTicks": 144,
          "midi": 66,
          "name": "F#4",
          "ticks": 70800,
          "time": 88.5,
          "velocity": 0.7874015748031497
        },
        {
          "duration": 0.18000000000000682,
          "durationTicks": 144,
          "midi": 71,
          "name": "B4",
          "ticks": 70800,
          "time": 88.5,
          "velocity": 0.7874015748031497
        },
        {
          "duration": 0.0899999999999892,
          "durationTicks": 72,
          "midi": 76,
          "name": "E5",
          "ticks": 70960,
          "time": 88.7,
          "velocity": 0.7874015748031497
        },
        {
          "duration": 0.0899999999999892,
          "durationTicks": 72,
          "midi": 67,
          "name": "G4",
          "ticks": 70960,
          "time": 88.7,
          "velocity": 0.7874015748031497
        },
        {
          "duration": 0.0899999999999892,
          "durationTicks": 72,
          "midi": 72,
          "name": "C5",
          "ticks": 70960,
          "time": 88.7,
          "velocity": 0.7874015748031497
        },
        {
          "duration": 0.18000000000000682,
          "durationTicks": 144,
          "midi": 76,
          "name": "E5",
          "ticks": 73200,
          "time": 91.5,
          "velocity": 0.7874015748031497
        },
        {
          "duration": 0.18000000000000682,
          "durationTicks": 144,
          "midi": 67,
          "name": "G4",
          "ticks": 73200,
          "time": 91.5,
          "velocity": 0.7874015748031497
        },
        {
          "duration": 0.18000000000000682,
          "durationTicks": 144,
          "midi": 72,
          "name": "C5",
          "ticks": 73200,
          "time": 91.5,
          "velocity": 0.7874015748031497
        },
        {
          "duration": 0.1799999999999926,
          "durationTicks": 144,
          "midi": 67,
          "name": "G4",
          "ticks": 73600,
          "time": 92,
          "velocity": 0.7874015748031497
        },
        {
          "duration": 0.1799999999999926,
          "durationTicks": 144,
          "midi": 76,
          "name": "E5",
          "ticks": 73600,
          "time": 92,
          "velocity": 0.7874015748031497
        },
        {
          "duration": 0.1799999999999926,
          "durationTicks": 144,
          "midi": 72,
          "name": "C5",
          "ticks": 73600,
          "time": 92,
          "velocity": 0.7874015748031497
        },
        {
          "duration": 0.18000000000000682,
          "durationTicks": 144,
          "midi": 66,
          "name": "F#4",
          "ticks": 73920,
          "time": 92.39999999999999,
          "velocity": 0.7874015748031497
        },
        {
          "duration": 0.18000000000000682,
          "durationTicks": 144,
          "midi": 74,
          "name": "D5",
          "ticks": 73920,
          "time": 92.39999999999999,
          "velocity": 0.7874015748031497
        },
        {
          "duration": 0.18000000000000682,
          "durationTicks": 144,
          "midi": 71,
          "name": "B4",
          "ticks": 73920,
          "time": 92.39999999999999,
          "velocity": 0.7874015748031497
        },
        {
          "duration": 0.18000000000000682,
          "durationTicks": 144,
          "midi": 66,
          "name": "F#4",
          "ticks": 74160,
          "time": 92.7,
          "velocity": 0.7874015748031497
        },
        {
          "duration": 0.18000000000000682,
          "durationTicks": 144,
          "midi": 74,
          "name": "D5",
          "ticks": 74160,
          "time": 92.7,
          "velocity": 0.7874015748031497
        },
        {
          "duration": 0.18000000000000682,
          "durationTicks": 144,
          "midi": 71,
          "name": "B4",
          "ticks": 74160,
          "time": 92.7,
          "velocity": 0.7874015748031497
        },
        {
          "duration": 0.18000000000000682,
          "durationTicks": 144,
          "midi": 74,
          "name": "D5",
          "ticks": 74640,
          "time": 93.3,
          "velocity": 0.7874015748031497
        },
        {
          "duration": 0.18000000000000682,
          "durationTicks": 144,
          "midi": 66,
          "name": "F#4",
          "ticks": 74640,
          "time": 93.3,
          "velocity": 0.7874015748031497
        },
        {
          "duration": 0.18000000000000682,
          "durationTicks": 144,
          "midi": 71,
          "name": "B4",
          "ticks": 74640,
          "time": 93.3,
          "velocity": 0.7874015748031497
        },
        {
          "duration": 0.0899999999999892,
          "durationTicks": 72,
          "midi": 76,
          "name": "E5",
          "ticks": 74800,
          "time": 93.5,
          "velocity": 0.7874015748031497
        },
        {
          "duration": 0.0899999999999892,
          "durationTicks": 72,
          "midi": 67,
          "name": "G4",
          "ticks": 74800,
          "time": 93.5,
          "velocity": 0.7874015748031497
        },
        {
          "duration": 0.0899999999999892,
          "durationTicks": 72,
          "midi": 72,
          "name": "C5",
          "ticks": 74800,
          "time": 93.5,
          "velocity": 0.7874015748031497
        },
        {
          "duration": 0.18000000000000682,
          "durationTicks": 144,
          "midi": 76,
          "name": "E5",
          "ticks": 77040,
          "time": 96.3,
          "velocity": 0.7874015748031497
        },
        {
          "duration": 0.18000000000000682,
          "durationTicks": 144,
          "midi": 67,
          "name": "G4",
          "ticks": 77040,
          "time": 96.3,
          "velocity": 0.7874015748031497
        },
        {
          "duration": 0.18000000000000682,
          "durationTicks": 144,
          "midi": 72,
          "name": "C5",
          "ticks": 77040,
          "time": 96.3,
          "velocity": 0.7874015748031497
        },
        {
          "duration": 0.1799999999999926,
          "durationTicks": 144,
          "midi": 67,
          "name": "G4",
          "ticks": 77440,
          "time": 96.8,
          "velocity": 0.7874015748031497
        },
        {
          "duration": 0.1799999999999926,
          "durationTicks": 144,
          "midi": 76,
          "name": "E5",
          "ticks": 77440,
          "time": 96.8,
          "velocity": 0.7874015748031497
        },
        {
          "duration": 0.1799999999999926,
          "durationTicks": 144,
          "midi": 72,
          "name": "C5",
          "ticks": 77440,
          "time": 96.8,
          "velocity": 0.7874015748031497
        },
        {
          "duration": 0.18000000000000682,
          "durationTicks": 144,
          "midi": 66,
          "name": "F#4",
          "ticks": 77760,
          "time": 97.2,
          "velocity": 0.7874015748031497
        },
        {
          "duration": 0.18000000000000682,
          "durationTicks": 144,
          "midi": 74,
          "name": "D5",
          "ticks": 77760,
          "time": 97.2,
          "velocity": 0.7874015748031497
        },
        {
          "duration": 0.18000000000000682,
          "durationTicks": 144,
          "midi": 71,
          "name": "B4",
          "ticks": 77760,
          "time": 97.2,
          "velocity": 0.7874015748031497
        },
        {
          "duration": 0.18000000000000682,
          "durationTicks": 144,
          "midi": 66,
          "name": "F#4",
          "ticks": 78000,
          "time": 97.5,
          "velocity": 0.7874015748031497
        },
        {
          "duration": 0.18000000000000682,
          "durationTicks": 144,
          "midi": 74,
          "name": "D5",
          "ticks": 78000,
          "time": 97.5,
          "velocity": 0.7874015748031497
        },
        {
          "duration": 0.18000000000000682,
          "durationTicks": 144,
          "midi": 71,
          "name": "B4",
          "ticks": 78000,
          "time": 97.5,
          "velocity": 0.7874015748031497
        },
        {
          "duration": 0.18000000000000682,
          "durationTicks": 144,
          "midi": 74,
          "name": "D5",
          "ticks": 78480,
          "time": 98.1,
          "velocity": 0.7874015748031497
        },
        {
          "duration": 0.18000000000000682,
          "durationTicks": 144,
          "midi": 66,
          "name": "F#4",
          "ticks": 78480,
          "time": 98.1,
          "velocity": 0.7874015748031497
        },
        {
          "duration": 0.18000000000000682,
          "durationTicks": 144,
          "midi": 71,
          "name": "B4",
          "ticks": 78480,
          "time": 98.1,
          "velocity": 0.7874015748031497
        },
        {
          "duration": 0.0899999999999892,
          "durationTicks": 72,
          "midi": 76,
          "name": "E5",
          "ticks": 78640,
          "time": 98.3,
          "velocity": 0.7874015748031497
        },
        {
          "duration": 0.0899999999999892,
          "durationTicks": 72,
          "midi": 67,
          "name": "G4",
          "ticks": 78640,
          "time": 98.3,
          "velocity": 0.7874015748031497
        },
        {
          "duration": 0.0899999999999892,
          "durationTicks": 72,
          "midi": 72,
          "name": "C5",
          "ticks": 78640,
          "time": 98.3,
          "velocity": 0.7874015748031497
        },
        {
          "duration": 0.269999999999996,
          "durationTicks": 216,
          "midi": 60,
          "name": "C4",
          "ticks": 79680,
          "time": 99.6,
          "velocity": 0.7874015748031497
        },
        {
          "duration": 0.18000000000000682,
          "durationTicks": 144,
          "midi": 64,
          "name": "E4",
          "ticks": 79680,
          "time": 99.6,
          "velocity": 0.7874015748031497
        },
        {
          "duration": 0.0899999999999892,
          "durationTicks": 72,
          "midi": 63,
          "name": "D#4",
          "ticks": 79840,
          "time": 99.8,
          "velocity": 0.7874015748031497
        },
        {
          "duration": 0.0899999999999892,
          "durationTicks": 72,
          "midi": 66,
          "name": "F#4",
          "ticks": 79840,
          "time": 99.8,
          "velocity": 0.7874015748031497
        },
        {
          "duration": 0.18000000000000682,
          "durationTicks": 144,
          "midi": 64,
          "name": "E4",
          "ticks": 79920,
          "time": 99.89999999999999,
          "velocity": 0.7874015748031497
        },
        {
          "duration": 0.18000000000000682,
          "durationTicks": 144,
          "midi": 67,
          "name": "G4",
          "ticks": 79920,
          "time": 99.89999999999999,
          "velocity": 0.7874015748031497
        },
        {
          "duration": 0.08999999999997499,
          "durationTicks": 72,
          "midi": 66,
          "name": "F#4",
          "ticks": 80080,
          "time": 100.10000000000001,
          "velocity": 0.7874015748031497
        },
        {
          "duration": 0.08999999999997499,
          "durationTicks": 72,
          "midi": 69,
          "name": "A4",
          "ticks": 80080,
          "time": 100.10000000000001,
          "velocity": 0.7874015748031497
        },
        {
          "duration": 0.09000000000000341,
          "durationTicks": 72,
          "midi": 64,
          "name": "E4",
          "ticks": 80160,
          "time": 100.2,
          "velocity": 0.7874015748031497
        },
        {
          "duration": 0.09000000000000341,
          "durationTicks": 72,
          "midi": 67,
          "name": "G4",
          "ticks": 80160,
          "time": 100.2,
          "velocity": 0.7874015748031497
        },
        {
          "duration": 0.09000000000000341,
          "durationTicks": 72,
          "midi": 65,
          "name": "F4",
          "ticks": 80240,
          "time": 100.3,
          "velocity": 0.7874015748031497
        },
        {
          "duration": 0.09000000000000341,
          "durationTicks": 72,
          "midi": 69,
          "name": "A4",
          "ticks": 80240,
          "time": 100.3,
          "velocity": 0.7874015748031497
        },
        {
          "duration": 0.0899999999999892,
          "durationTicks": 72,
          "midi": 67,
          "name": "G4",
          "ticks": 80320,
          "time": 100.4,
          "velocity": 0.7874015748031497
        },
        {
          "duration": 0.0899999999999892,
          "durationTicks": 72,
          "midi": 71,
          "name": "B4",
          "ticks": 80320,
          "time": 100.4,
          "velocity": 0.7874015748031497
        },
        {
          "duration": 0.09000000000000341,
          "durationTicks": 72,
          "midi": 69,
          "name": "A4",
          "ticks": 80400,
          "time": 100.5,
          "velocity": 0.7874015748031497
        },
        {
          "duration": 0.09000000000000341,
          "durationTicks": 72,
          "midi": 72,
          "name": "C5",
          "ticks": 80400,
          "time": 100.5,
          "velocity": 0.7874015748031497
        },
        {
          "duration": 0.09000000000000341,
          "durationTicks": 72,
          "midi": 71,
          "name": "B4",
          "ticks": 80480,
          "time": 100.6,
          "velocity": 0.7874015748031497
        },
        {
          "duration": 0.09000000000000341,
          "durationTicks": 72,
          "midi": 74,
          "name": "D5",
          "ticks": 80480,
          "time": 100.6,
          "velocity": 0.7874015748031497
        },
        {
          "duration": 0.0899999999999892,
          "durationTicks": 72,
          "midi": 72,
          "name": "C5",
          "ticks": 80560,
          "time": 100.7,
          "velocity": 0.7874015748031497
        },
        {
          "duration": 0.0899999999999892,
          "durationTicks": 72,
          "midi": 75,
          "name": "D#5",
          "ticks": 80560,
          "time": 100.7,
          "velocity": 0.7874015748031497
        },
        {
          "duration": 1.0800000000000125,
          "durationTicks": 864,
          "midi": 72,
          "name": "C5",
          "ticks": 80640,
          "time": 100.8,
          "velocity": 0.7874015748031497
        },
        {
          "duration": 1.0800000000000125,
          "durationTicks": 864,
          "midi": 64,
          "name": "E4",
          "ticks": 80640,
          "time": 100.8,
          "velocity": 0.7874015748031497
        },
        {
          "duration": 1.0800000000000125,
          "durationTicks": 864,
          "midi": 69,
          "name": "A4",
          "ticks": 80640,
          "time": 100.8,
          "velocity": 0.7874015748031497
        },
        {
          "duration": 0.269999999999996,
          "durationTicks": 216,
          "midi": 71,
          "name": "B4",
          "ticks": 82800,
          "time": 103.5,
          "velocity": 0.7874015748031497
        },
        {
          "duration": 0.269999999999996,
          "durationTicks": 216,
          "midi": 62,
          "name": "D4",
          "ticks": 82800,
          "time": 103.5,
          "velocity": 0.7874015748031497
        },
        {
          "duration": 0.269999999999996,
          "durationTicks": 216,
          "midi": 67,
          "name": "G4",
          "ticks": 82800,
          "time": 103.5,
          "velocity": 0.7874015748031497
        },
        {
          "duration": 0.1799999999999926,
          "durationTicks": 144,
          "midi": 71,
          "name": "B4",
          "ticks": 83200,
          "time": 104,
          "velocity": 0.7874015748031497
        },
        {
          "duration": 0.1799999999999926,
          "durationTicks": 144,
          "midi": 62,
          "name": "D4",
          "ticks": 83200,
          "time": 104,
          "velocity": 0.7874015748031497
        },
        {
          "duration": 0.1799999999999926,
          "durationTicks": 144,
          "midi": 67,
          "name": "G4",
          "ticks": 83200,
          "time": 104,
          "velocity": 0.7874015748031497
        },
        {
          "duration": 1.0800000000000125,
          "durationTicks": 864,
          "midi": 71,
          "name": "B4",
          "ticks": 83520,
          "time": 104.39999999999999,
          "velocity": 0.7874015748031497
        },
        {
          "duration": 1.0800000000000125,
          "durationTicks": 864,
          "midi": 62,
          "name": "D4",
          "ticks": 83520,
          "time": 104.39999999999999,
          "velocity": 0.7874015748031497
        },
        {
          "duration": 1.0800000000000125,
          "durationTicks": 864,
          "midi": 67,
          "name": "G4",
          "ticks": 83520,
          "time": 104.39999999999999,
          "velocity": 0.7874015748031497
        },
        {
          "duration": 1.0800000000000125,
          "durationTicks": 864,
          "midi": 72,
          "name": "C5",
          "ticks": 84480,
          "time": 105.6,
          "velocity": 0.7874015748031497
        },
        {
          "duration": 1.0800000000000125,
          "durationTicks": 864,
          "midi": 64,
          "name": "E4",
          "ticks": 84480,
          "time": 105.6,
          "velocity": 0.7874015748031497
        },
        {
          "duration": 1.0800000000000125,
          "durationTicks": 864,
          "midi": 69,
          "name": "A4",
          "ticks": 84480,
          "time": 105.6,
          "velocity": 0.7874015748031497
        },
        {
          "duration": 0.18999999999999773,
          "durationTicks": 152,
          "midi": 74,
          "name": "D5",
          "ticks": 86640,
          "time": 108.3,
          "velocity": 0.7874015748031497
        },
        {
          "duration": 0.18999999999999773,
          "durationTicks": 152,
          "midi": 66,
          "name": "F#4",
          "ticks": 86640,
          "time": 108.3,
          "velocity": 0.7874015748031497
        },
        {
          "duration": 0.18999999999999773,
          "durationTicks": 152,
          "midi": 71,
          "name": "B4",
          "ticks": 86640,
          "time": 108.3,
          "velocity": 0.7874015748031497
        },
        {
          "duration": 0.18999999999999773,
          "durationTicks": 152,
          "midi": 74,
          "name": "D5",
          "ticks": 87040,
          "time": 108.8,
          "velocity": 0.7874015748031497
        },
        {
          "duration": 0.18999999999999773,
          "durationTicks": 152,
          "midi": 66,
          "name": "F#4",
          "ticks": 87040,
          "time": 108.8,
          "velocity": 0.7874015748031497
        },
        {
          "duration": 0.18999999999999773,
          "durationTicks": 152,
          "midi": 71,
          "name": "B4",
          "ticks": 87040,
          "time": 108.8,
          "velocity": 0.7874015748031497
        },
        {
          "duration": 0.2699999999999818,
          "durationTicks": 216,
          "midi": 66,
          "name": "F#4",
          "ticks": 87360,
          "time": 109.2,
          "velocity": 0.7874015748031497
        },
        {
          "duration": 0.2699999999999818,
          "durationTicks": 216,
          "midi": 74,
          "name": "D5",
          "ticks": 87360,
          "time": 109.2,
          "velocity": 0.7874015748031497
        },
        {
          "duration": 0.2699999999999818,
          "durationTicks": 216,
          "midi": 71,
          "name": "B4",
          "ticks": 87360,
          "time": 109.2,
          "velocity": 0.7874015748031497
        },
        {
          "duration": 1.0800000000000125,
          "durationTicks": 864,
          "midi": 72,
          "name": "C5",
          "ticks": 88320,
          "time": 110.39999999999999,
          "velocity": 0.7874015748031497
        },
        {
          "duration": 1.0800000000000125,
          "durationTicks": 864,
          "midi": 64,
          "name": "E4",
          "ticks": 88320,
          "time": 110.39999999999999,
          "velocity": 0.7874015748031497
        },
        {
          "duration": 1.0800000000000125,
          "durationTicks": 864,
          "midi": 69,
          "name": "A4",
          "ticks": 88320,
          "time": 110.39999999999999,
          "velocity": 0.7874015748031497
        },
        {
          "duration": 0.29999999999999716,
          "durationTicks": 240,
          "midi": 71,
          "name": "B4",
          "ticks": 90480,
          "time": 113.1,
          "velocity": 0.7874015748031497
        },
        {
          "duration": 0.29999999999999716,
          "durationTicks": 240,
          "midi": 62,
          "name": "D4",
          "ticks": 90480,
          "time": 113.1,
          "velocity": 0.7874015748031497
        },
        {
          "duration": 0.29999999999999716,
          "durationTicks": 240,
          "midi": 67,
          "name": "G4",
          "ticks": 90480,
          "time": 113.1,
          "velocity": 0.7874015748031497
        },
        {
          "duration": 0.19999999999998863,
          "durationTicks": 160,
          "midi": 71,
          "name": "B4",
          "ticks": 90880,
          "time": 113.60000000000001,
          "velocity": 0.7874015748031497
        },
        {
          "duration": 0.19999999999998863,
          "durationTicks": 160,
          "midi": 62,
          "name": "D4",
          "ticks": 90880,
          "time": 113.60000000000001,
          "velocity": 0.7874015748031497
        },
        {
          "duration": 0.19999999999998863,
          "durationTicks": 160,
          "midi": 67,
          "name": "G4",
          "ticks": 90880,
          "time": 113.60000000000001,
          "velocity": 0.7874015748031497
        },
        {
          "duration": 1.0799999999999983,
          "durationTicks": 864,
          "midi": 71,
          "name": "B4",
          "ticks": 91200,
          "time": 114,
          "velocity": 0.7874015748031497
        },
        {
          "duration": 1.0799999999999983,
          "durationTicks": 864,
          "midi": 62,
          "name": "D4",
          "ticks": 91200,
          "time": 114,
          "velocity": 0.7874015748031497
        },
        {
          "duration": 1.0799999999999983,
          "durationTicks": 864,
          "midi": 67,
          "name": "G4",
          "ticks": 91200,
          "time": 114,
          "velocity": 0.7874015748031497
        }
      ]
    },
    {
      "channel": 0,
      "controlChanges": {
        "0": [
          {
            "number": 0,
            "ticks": 396,
            "time": 0.49499999999999994,
            "value": 0
          }
        ],
        "32": [
          {
            "number": 32,
            "ticks": 400,
            "time": 0.5,
            "value": 0.023622047244094488
          }
        ]
      },
      "pitchBends": [],
      "instrument": {
        "family": "piano",
        "number": 0,
        "name": "acoustic grand piano"
      },
      "name": "",
      "notes": [],
      "endOfTrackTicks": 432
    },
    {
      "channel": 0,
      "controlChanges": {
        "6": [
          {
            "number": 6,
            "ticks": 432,
            "time": 0.54,
            "value": 0.9763779527559056
          }
        ],
        "7": [
          {
            "number": 7,
            "ticks": 408,
            "time": 0.51,
            "value": 0.7874015748031497
          }
        ],
        "10": [
          {
            "number": 10,
            "ticks": 412,
            "time": 0.5149999999999999,
            "value": 0.7401574803149606
          }
        ],
        "91": [
          {
            "number": 91,
            "ticks": 416,
            "time": 0.52,
            "value": 0.7874015748031497
          }
        ],
        "93": [
          {
            "number": 93,
            "ticks": 420,
            "time": 0.525,
            "value": 0
          }
        ],
        "98": [
          {
            "number": 98,
            "ticks": 428,
            "time": 0.535,
            "value": 0.25196850393700787
          }
        ],
        "99": [
          {
            "number": 99,
            "ticks": 424,
            "time": 0.5299999999999999,
            "value": 0.007874015748031496
          }
        ]
      },
      "pitchBends": [],
      "instrument": {
        "family": "synth pad",
        "number": 88,
        "name": "pad 1 (new age)"
      },
      "name": "",
      "notes": []
    },
    {
      "channel": 0,
      "controlChanges": {
        "0": [
          {
            "number": 0,
            "ticks": 480,
            "time": 0.6,
            "value": 0
          }
        ],
        "32": [
          {
            "number": 32,
            "ticks": 480,
            "time": 0.6,
            "value": 0.015748031496062992
          }
        ],
        "94": [
          {
            "number": 94,
            "ticks": 426,
            "time": 0.5325,
            "value": 0.11023622047244094
          },
          {
            "number": 94,
            "ticks": 456,
            "time": 0.57,
            "value": 0.11023622047244094
          }
        ]
      },
      "pitchBends": [],
      "instrument": {
        "family": "piano",
        "number": 0,
        "name": "acoustic grand piano"
      },
      "name": "",
      "notes": [],
      "endOfTrackTicks": 91282
    },
    {
      "channel": 2,
      "controlChanges": {
        "1": [
          {
            "number": 1,
            "ticks": 4400,
            "time": 5.499999999999999,
            "value": 0
          },
          {
            "number": 1,
            "ticks": 4400,
            "time": 5.499999999999999,
            "value": 1
          },
          {
            "number": 1,
            "ticks": 4455,
            "time": 5.56875,
            "value": 1
          },
          {
            "number": 1,
            "ticks": 4720,
            "time": 5.9,
            "value": 0
          },
          {
            "number": 1,
            "ticks": 5360,
            "time": 6.699999999999999,
            "value": 1
          },
          {
            "number": 1,
            "ticks": 5409,
            "time": 6.76125,
            "value": 1
          },
          {
            "number": 1,
            "ticks": 5680,
            "time": 7.1000000000000005,
            "value": 0
          },
          {
            "number": 1,
            "ticks": 6620,
            "time": 8.274999999999999,
            "value": 0
          },
          {
            "number": 1,
            "ticks": 7520,
            "time": 9.399999999999999,
            "value": 1
          },
          {
            "number": 1,
            "ticks": 7556,
            "time": 9.445,
            "value": 1
          },
          {
            "number": 1,
            "ticks": 7586,
            "time": 9.4825,
            "value": 1
          },
          {
            "number": 1,
            "ticks": 7840,
            "time": 9.799999999999999,
            "value": 1
          },
          {
            "number": 1,
            "ticks": 7840,
            "time": 9.799999999999999,
            "value": 0
          },
          {
            "number": 1,
            "ticks": 12080,
            "time": 15.1,
            "value": 0
          },
          {
            "number": 1,
            "ticks": 12080,
            "time": 15.1,
            "value": 1
          },
          {
            "number": 1,
            "ticks": 12135,
            "time": 15.16875,
            "value": 1
          },
          {
            "number": 1,
            "ticks": 12400,
            "time": 15.499999999999998,
            "value": 0
          },
          {
            "number": 1,
            "ticks": 13040,
            "time": 16.3,
            "value": 1
          },
          {
            "number": 1,
            "ticks": 13089,
            "time": 16.36125,
            "value": 1
          },
          {
            "number": 1,
            "ticks": 13360,
            "time": 16.7,
            "value": 0
          },
          {
            "number": 1,
            "ticks": 14300,
            "time": 17.875,
            "value": 0
          },
          {
            "number": 1,
            "ticks": 15200,
            "time": 19,
            "value": 1
          },
          {
            "number": 1,
            "ticks": 15236,
            "time": 19.044999999999998,
            "value": 1
          },
          {
            "number": 1,
            "ticks": 15266,
            "time": 19.0825,
            "value": 1
          },
          {
            "number": 1,
            "ticks": 15520,
            "time": 19.400000000000002,
            "value": 1
          },
          {
            "number": 1,
            "ticks": 15520,
            "time": 19.400000000000002,
            "value": 0
          },
          {
            "number": 1,
            "ticks": 35120,
            "time": 43.9,
            "value": 0
          },
          {
            "number": 1,
            "ticks": 35120,
            "time": 43.9,
            "value": 1
          },
          {
            "number": 1,
            "ticks": 35175,
            "time": 43.96875,
            "value": 1
          },
          {
            "number": 1,
            "ticks": 35440,
            "time": 44.3,
            "value": 0
          },
          {
            "number": 1,
            "ticks": 36080,
            "time": 45.1,
            "value": 1
          },
          {
            "number": 1,
            "ticks": 36129,
            "time": 45.161249999999995,
            "value": 1
          },
          {
            "number": 1,
            "ticks": 36400,
            "time": 45.49999999999999,
            "value": 0
          },
          {
            "number": 1,
            "ticks": 37340,
            "time": 46.675000000000004,
            "value": 0
          },
          {
            "number": 1,
            "ticks": 38240,
            "time": 47.800000000000004,
            "value": 1
          },
          {
            "number": 1,
            "ticks": 38276,
            "time": 47.84499999999999,
            "value": 1
          },
          {
            "number": 1,
            "ticks": 38306,
            "time": 47.88249999999999,
            "value": 1
          },
          {
            "number": 1,
            "ticks": 38560,
            "time": 48.199999999999996,
            "value": 1
          },
          {
            "number": 1,
            "ticks": 38560,
            "time": 48.199999999999996,
            "value": 0
          },
          {
            "number": 1,
            "ticks": 42800,
            "time": 53.5,
            "value": 0
          },
          {
            "number": 1,
            "ticks": 42800,
            "time": 53.5,
            "value": 1
          },
          {
            "number": 1,
            "ticks": 42855,
            "time": 53.56875,
            "value": 1
          },
          {
            "number": 1,
            "ticks": 43120,
            "time": 53.9,
            "value": 0
          },
          {
            "number": 1,
            "ticks": 43760,
            "time": 54.7,
            "value": 1
          },
          {
            "number": 1,
            "ticks": 43809,
            "time": 54.76125,
            "value": 1
          },
          {
            "number": 1,
            "ticks": 44080,
            "time": 55.099999999999994,
            "value": 0
          },
          {
            "number": 1,
            "ticks": 45020,
            "time": 56.275,
            "value": 0
          },
          {
            "number": 1,
            "ticks": 45920,
            "time": 57.4,
            "value": 1
          },
          {
            "number": 1,
            "ticks": 45956,
            "time": 57.44499999999999,
            "value": 1
          },
          {
            "number": 1,
            "ticks": 45986,
            "time": 57.482499999999995,
            "value": 1
          },
          {
            "number": 1,
            "ticks": 46240,
            "time": 57.8,
            "value": 1
          },
          {
            "number": 1,
            "ticks": 46240,
            "time": 57.8,
            "value": 0
          },
          {
            "number": 1,
            "ticks": 65840,
            "time": 82.3,
            "value": 0
          },
          {
            "number": 1,
            "ticks": 65840,
            "time": 82.3,
            "value": 1
          },
          {
            "number": 1,
            "ticks": 65895,
            "time": 82.36874999999999,
            "value": 1
          },
          {
            "number": 1,
            "ticks": 66160,
            "time": 82.7,
            "value": 0
          },
          {
            "number": 1,
            "ticks": 66800,
            "time": 83.49999999999999,
            "value": 1
          },
          {
            "number": 1,
            "ticks": 66849,
            "time": 83.56125,
            "value": 1
          },
          {
            "number": 1,
            "ticks": 67120,
            "time": 83.9,
            "value": 0
          },
          {
            "number": 1,
            "ticks": 68060,
            "time": 85.07499999999999,
            "value": 0
          },
          {
            "number": 1,
            "ticks": 68960,
            "time": 86.19999999999999,
            "value": 1
          },
          {
            "number": 1,
            "ticks": 68996,
            "time": 86.245,
            "value": 1
          },
          {
            "number": 1,
            "ticks": 69026,
            "time": 86.2825,
            "value": 1
          },
          {
            "number": 1,
            "ticks": 69280,
            "time": 86.60000000000001,
            "value": 1
          },
          {
            "number": 1,
            "ticks": 69280,
            "time": 86.60000000000001,
            "value": 0
          },
          {
            "number": 1,
            "ticks": 73520,
            "time": 91.89999999999999,
            "value": 0
          },
          {
            "number": 1,
            "ticks": 73520,
            "time": 91.89999999999999,
            "value": 1
          },
          {
            "number": 1,
            "ticks": 73575,
            "time": 91.96875,
            "value": 1
          },
          {
            "number": 1,
            "ticks": 73840,
            "time": 92.3,
            "value": 0
          },
          {
            "number": 1,
            "ticks": 74480,
            "time": 93.1,
            "value": 1
          },
          {
            "number": 1,
            "ticks": 74529,
            "time": 93.16125000000001,
            "value": 1
          },
          {
            "number": 1,
            "ticks": 74800,
            "time": 93.5,
            "value": 0
          },
          {
            "number": 1,
            "ticks": 75740,
            "time": 94.675,
            "value": 0
          },
          {
            "number": 1,
            "ticks": 76640,
            "time": 95.8,
            "value": 1
          },
          {
            "number": 1,
            "ticks": 76676,
            "time": 95.845,
            "value": 1
          },
          {
            "number": 1,
            "ticks": 76706,
            "time": 95.88250000000001,
            "value": 1
          },
          {
            "number": 1,
            "ticks": 76960,
            "time": 96.2,
            "value": 1
          },
          {
            "number": 1,
            "ticks": 76960,
            "time": 96.2,
            "value": 0
          }
        ],
        "6": [
          {
            "number": 6,
            "ticks": 480,
            "time": 0.6,
            "value": 0.5826771653543307
          },
          {
            "number": 6,
            "ticks": 4320,
            "time": 5.3999999999999995,
            "value": 0.09448818897637795
          },
          {
            "number": 6,
            "ticks": 5280,
            "time": 6.6,
            "value": 0.09448818897637795
          },
          {
            "number": 6,
            "ticks": 6480,
            "time": 8.1,
            "value": 0.09448818897637795
          },
          {
            "number": 6,
            "ticks": 7440,
            "time": 9.299999999999999,
            "value": 0.09448818897637795
          },
          {
            "number": 6,
            "ticks": 12000,
            "time": 15,
            "value": 0.09448818897637795
          },
          {
            "number": 6,
            "ticks": 12960,
            "time": 16.2,
            "value": 0.09448818897637795
          },
          {
            "number": 6,
            "ticks": 14160,
            "time": 17.7,
            "value": 0.09448818897637795
          },
          {
            "number": 6,
            "ticks": 15120,
            "time": 18.9,
            "value": 0.09448818897637795
          },
          {
            "number": 6,
            "ticks": 35040,
            "time": 43.8,
            "value": 0.09448818897637795
          },
          {
            "number": 6,
            "ticks": 36000,
            "time": 45,
            "value": 0.09448818897637795
          },
          {
            "number": 6,
            "ticks": 37200,
            "time": 46.5,
            "value": 0.09448818897637795
          },
          {
            "number": 6,
            "ticks": 38160,
            "time": 47.699999999999996,
            "value": 0.09448818897637795
          },
          {
            "number": 6,
            "ticks": 42720,
            "time": 53.4,
            "value": 0.09448818897637795
          },
          {
            "number": 6,
            "ticks": 43680,
            "time": 54.6,
            "value": 0.09448818897637795
          },
          {
            "number": 6,
            "ticks": 44880,
            "time": 56.1,
            "value": 0.09448818897637795
          },
          {
            "number": 6,
            "ticks": 45840,
            "time": 57.3,
            "value": 0.09448818897637795
          },
          {
            "number": 6,
            "ticks": 65760,
            "time": 82.2,
            "value": 0.09448818897637795
          },
          {
            "number": 6,
            "ticks": 66720,
            "time": 83.39999999999999,
            "value": 0.09448818897637795
          },
          {
            "number": 6,
            "ticks": 67920,
            "time": 84.89999999999999,
            "value": 0.09448818897637795
          },
          {
            "number": 6,
            "ticks": 68880,
            "time": 86.1,
            "value": 0.09448818897637795
          },
          {
            "number": 6,
            "ticks": 73440,
            "time": 91.8,
            "value": 0.09448818897637795
          },
          {
            "number": 6,
            "ticks": 74400,
            "time": 93,
            "value": 0.09448818897637795
          },
          {
            "number": 6,
            "ticks": 75600,
            "time": 94.5,
            "value": 0.09448818897637795
          },
          {
            "number": 6,
            "ticks": 76560,
            "time": 95.7,
            "value": 0.09448818897637795
          }
        ],
        "7": [
          {
            "number": 7,
            "ticks": 480,
            "time": 0.6,
            "value": 0.7874015748031497
          }
        ],
        "10": [
          {
            "number": 10,
            "ticks": 480,
            "time": 0.6,
            "value": 0.8188976377952756
          }
        ],
        "91": [
          {
            "number": 91,
            "ticks": 480,
            "time": 0.6,
            "value": 0.47244094488188976
          },
          {
            "number": 91,
            "ticks": 497,
            "time": 0.62125,
            "value": 0.30708661417322836
          },
          {
            "number": 91,
            "ticks": 527,
            "time": 0.65875,
            "value": 0.31496062992125984
          }
        ],
        "93": [
          {
            "number": 93,
            "ticks": 480,
            "time": 0.6,
            "value": 0.3937007874015748
          }
        ],
        "94": [
          {
            "number": 94,
            "ticks": 486,
            "time": 0.6074999999999999,
            "value": 0.11023622047244094
          }
        ],
        "98": [
          {
            "number": 98,
            "ticks": 480,
            "time": 0.6,
            "value": 0.25196850393700787
          }
        ],
        "99": [
          {
            "number": 99,
            "ticks": 480,
            "time": 0.6,
            "value": 0.007874015748031496
          }
        ],
        "100": [
          {
            "number": 100,
            "ticks": 4320,
            "time": 5.3999999999999995,
            "value": 0
          },
          {
            "number": 100,
            "ticks": 5280,
            "time": 6.6,
            "value": 0
          },
          {
            "number": 100,
            "ticks": 6480,
            "time": 8.1,
            "value": 0
          },
          {
            "number": 100,
            "ticks": 7440,
            "time": 9.299999999999999,
            "value": 0
          },
          {
            "number": 100,
            "ticks": 12000,
            "time": 15,
            "value": 0
          },
          {
            "number": 100,
            "ticks": 12960,
            "time": 16.2,
            "value": 0
          },
          {
            "number": 100,
            "ticks": 14160,
            "time": 17.7,
            "value": 0
          },
          {
            "number": 100,
            "ticks": 15120,
            "time": 18.9,
            "value": 0
          },
          {
            "number": 100,
            "ticks": 35040,
            "time": 43.8,
            "value": 0
          },
          {
            "number": 100,
            "ticks": 36000,
            "time": 45,
            "value": 0
          },
          {
            "number": 100,
            "ticks": 37200,
            "time": 46.5,
            "value": 0
          },
          {
            "number": 100,
            "ticks": 38160,
            "time": 47.699999999999996,
            "value": 0
          },
          {
            "number": 100,
            "ticks": 42720,
            "time": 53.4,
            "value": 0
          },
          {
            "number": 100,
            "ticks": 43680,
            "time": 54.6,
            "value": 0
          },
          {
            "number": 100,
            "ticks": 44880,
            "time": 56.1,
            "value": 0
          },
          {
            "number": 100,
            "ticks": 45840,
            "time": 57.3,
            "value": 0
          },
          {
            "number": 100,
            "ticks": 65760,
            "time": 82.2,
            "value": 0
          },
          {
            "number": 100,
            "ticks": 66720,
            "time": 83.39999999999999,
            "value": 0
          },
          {
            "number": 100,
            "ticks": 67920,
            "time": 84.89999999999999,
            "value": 0
          },
          {
            "number": 100,
            "ticks": 68880,
            "time": 86.1,
            "value": 0
          },
          {
            "number": 100,
            "ticks": 73440,
            "time": 91.8,
            "value": 0
          },
          {
            "number": 100,
            "ticks": 74400,
            "time": 93,
            "value": 0
          },
          {
            "number": 100,
            "ticks": 75600,
            "time": 94.5,
            "value": 0
          },
          {
            "number": 100,
            "ticks": 76560,
            "time": 95.7,
            "value": 0
          }
        ],
        "101": [
          {
            "number": 101,
            "ticks": 4320,
            "time": 5.3999999999999995,
            "value": 0
          },
          {
            "number": 101,
            "ticks": 5280,
            "time": 6.6,
            "value": 0
          },
          {
            "number": 101,
            "ticks": 6480,
            "time": 8.1,
            "value": 0
          },
          {
            "number": 101,
            "ticks": 7440,
            "time": 9.299999999999999,
            "value": 0
          },
          {
            "number": 101,
            "ticks": 12000,
            "time": 15,
            "value": 0
          },
          {
            "number": 101,
            "ticks": 12960,
            "time": 16.2,
            "value": 0
          },
          {
            "number": 101,
            "ticks": 14160,
            "time": 17.7,
            "value": 0
          },
          {
            "number": 101,
            "ticks": 15120,
            "time": 18.9,
            "value": 0
          },
          {
            "number": 101,
            "ticks": 35040,
            "time": 43.8,
            "value": 0
          },
          {
            "number": 101,
            "ticks": 36000,
            "time": 45,
            "value": 0
          },
          {
            "number": 101,
            "ticks": 37200,
            "time": 46.5,
            "value": 0
          },
          {
            "number": 101,
            "ticks": 38160,
            "time": 47.699999999999996,
            "value": 0
          },
          {
            "number": 101,
            "ticks": 42720,
            "time": 53.4,
            "value": 0
          },
          {
            "number": 101,
            "ticks": 43680,
            "time": 54.6,
            "value": 0
          },
          {
            "number": 101,
            "ticks": 44880,
            "time": 56.1,
            "value": 0
          },
          {
            "number": 101,
            "ticks": 45840,
            "time": 57.3,
            "value": 0
          },
          {
            "number": 101,
            "ticks": 65760,
            "time": 82.2,
            "value": 0
          },
          {
            "number": 101,
            "ticks": 66720,
            "time": 83.39999999999999,
            "value": 0
          },
          {
            "number": 101,
            "ticks": 67920,
            "time": 84.89999999999999,
            "value": 0
          },
          {
            "number": 101,
            "ticks": 68880,
            "time": 86.1,
            "value": 0
          },
          {
            "number": 101,
            "ticks": 73440,
            "time": 91.8,
            "value": 0
          },
          {
            "number": 101,
            "ticks": 74400,
            "time": 93,
            "value": 0
          },
          {
            "number": 101,
            "ticks": 75600,
            "time": 94.5,
            "value": 0
          },
          {
            "number": 101,
            "ticks": 76560,
            "time": 95.7,
            "value": 0
          }
        ]
      },
      "pitchBends": [
        {
          "ticks": 4320,
          "time": 5.3999999999999995,
          "value": -0.08544921875
        },
        {
          "ticks": 4380,
          "time": 5.475,
          "value": -0.048828125
        },
        {
          "ticks": 4390,
          "time": 5.4875,
          "value": -0.03662109375
        },
        {
          "ticks": 4400,
          "time": 5.499999999999999,
          "value": -0.0244140625
        },
        {
          "ticks": 4420,
          "time": 5.525,
          "value": -0.01220703125
        },
        {
          "ticks": 4440,
          "time": 5.55,
          "value": 0
        },
        {
          "ticks": 4460,
          "time": 5.574999999999999,
          "value": 0
        },
        {
          "ticks": 4460,
          "time": 5.574999999999999,
          "value": 0
        },
        {
          "ticks": 5280,
          "time": 6.6,
          "value": -0.08544921875
        },
        {
          "ticks": 5340,
          "time": 6.675,
          "value": -0.048828125
        },
        {
          "ticks": 5350,
          "time": 6.6875,
          "value": -0.03662109375
        },
        {
          "ticks": 5360,
          "time": 6.699999999999999,
          "value": -0.0244140625
        },
        {
          "ticks": 5380,
          "time": 6.7250000000000005,
          "value": -0.01220703125
        },
        {
          "ticks": 5400,
          "time": 6.75,
          "value": 0
        },
        {
          "ticks": 5420,
          "time": 6.7749999999999995,
          "value": 0
        },
        {
          "ticks": 5420,
          "time": 6.7749999999999995,
          "value": 0
        },
        {
          "ticks": 6480,
          "time": 8.1,
          "value": -0.08544921875
        },
        {
          "ticks": 6540,
          "time": 8.174999999999999,
          "value": -0.048828125
        },
        {
          "ticks": 6550,
          "time": 8.1875,
          "value": -0.03662109375
        },
        {
          "ticks": 6560,
          "time": 8.2,
          "value": -0.0244140625
        },
        {
          "ticks": 6580,
          "time": 8.225,
          "value": -0.01220703125
        },
        {
          "ticks": 6600,
          "time": 8.25,
          "value": 0
        },
        {
          "ticks": 6620,
          "time": 8.274999999999999,
          "value": 0
        },
        {
          "ticks": 6620,
          "time": 8.274999999999999,
          "value": 0
        },
        {
          "ticks": 7440,
          "time": 9.299999999999999,
          "value": -0.08544921875
        },
        {
          "ticks": 7500,
          "time": 9.375,
          "value": -0.048828125
        },
        {
          "ticks": 7510,
          "time": 9.3875,
          "value": -0.03662109375
        },
        {
          "ticks": 7520,
          "time": 9.399999999999999,
          "value": -0.0244140625
        },
        {
          "ticks": 7540,
          "time": 9.425,
          "value": -0.01220703125
        },
        {
          "ticks": 7560,
          "time": 9.45,
          "value": 0
        },
        {
          "ticks": 7580,
          "time": 9.475,
          "value": 0
        },
        {
          "ticks": 7580,
          "time": 9.475,
          "value": 0
        },
        {
          "ticks": 12000,
          "time": 15,
          "value": -0.08544921875
        },
        {
          "ticks": 12060,
          "time": 15.075,
          "value": -0.048828125
        },
        {
          "ticks": 12070,
          "time": 15.087499999999999,
          "value": -0.03662109375
        },
        {
          "ticks": 12080,
          "time": 15.1,
          "value": -0.0244140625
        },
        {
          "ticks": 12100,
          "time": 15.124999999999998,
          "value": -0.01220703125
        },
        {
          "ticks": 12120,
          "time": 15.149999999999999,
          "value": 0
        },
        {
          "ticks": 12140,
          "time": 15.175,
          "value": 0
        },
        {
          "ticks": 12140,
          "time": 15.175,
          "value": 0
        },
        {
          "ticks": 12960,
          "time": 16.2,
          "value": -0.08544921875
        },
        {
          "ticks": 13020,
          "time": 16.275,
          "value": -0.048828125
        },
        {
          "ticks": 13030,
          "time": 16.287499999999998,
          "value": -0.03662109375
        },
        {
          "ticks": 13040,
          "time": 16.3,
          "value": -0.0244140625
        },
        {
          "ticks": 13060,
          "time": 16.325,
          "value": -0.01220703125
        },
        {
          "ticks": 13080,
          "time": 16.349999999999998,
          "value": 0
        },
        {
          "ticks": 13100,
          "time": 16.375,
          "value": 0
        },
        {
          "ticks": 13100,
          "time": 16.375,
          "value": 0
        },
        {
          "ticks": 14160,
          "time": 17.7,
          "value": -0.08544921875
        },
        {
          "ticks": 14220,
          "time": 17.775,
          "value": -0.048828125
        },
        {
          "ticks": 14230,
          "time": 17.787499999999998,
          "value": -0.03662109375
        },
        {
          "ticks": 14240,
          "time": 17.8,
          "value": -0.0244140625
        },
        {
          "ticks": 14260,
          "time": 17.825,
          "value": -0.01220703125
        },
        {
          "ticks": 14280,
          "time": 17.849999999999998,
          "value": 0
        },
        {
          "ticks": 14300,
          "time": 17.875,
          "value": 0
        },
        {
          "ticks": 14300,
          "time": 17.875,
          "value": 0
        },
        {
          "ticks": 15120,
          "time": 18.9,
          "value": -0.08544921875
        },
        {
          "ticks": 15180,
          "time": 18.974999999999998,
          "value": -0.048828125
        },
        {
          "ticks": 15190,
          "time": 18.987499999999997,
          "value": -0.03662109375
        },
        {
          "ticks": 15200,
          "time": 19,
          "value": -0.0244140625
        },
        {
          "ticks": 15220,
          "time": 19.025,
          "value": -0.01220703125
        },
        {
          "ticks": 15240,
          "time": 19.05,
          "value": 0
        },
        {
          "ticks": 15260,
          "time": 19.075,
          "value": 0
        },
        {
          "ticks": 15260,
          "time": 19.075,
          "value": 0
        },
        {
          "ticks": 35040,
          "time": 43.8,
          "value": -0.08544921875
        },
        {
          "ticks": 35100,
          "time": 43.875,
          "value": -0.048828125
        },
        {
          "ticks": 35110,
          "time": 43.887499999999996,
          "value": -0.03662109375
        },
        {
          "ticks": 35120,
          "time": 43.9,
          "value": -0.0244140625
        },
        {
          "ticks": 35140,
          "time": 43.925,
          "value": -0.01220703125
        },
        {
          "ticks": 35160,
          "time": 43.949999999999996,
          "value": 0
        },
        {
          "ticks": 35180,
          "time": 43.975,
          "value": 0
        },
        {
          "ticks": 35180,
          "time": 43.975,
          "value": 0
        },
        {
          "ticks": 36000,
          "time": 45,
          "value": -0.08544921875
        },
        {
          "ticks": 36060,
          "time": 45.074999999999996,
          "value": -0.048828125
        },
        {
          "ticks": 36070,
          "time": 45.0875,
          "value": -0.03662109375
        },
        {
          "ticks": 36080,
          "time": 45.1,
          "value": -0.0244140625
        },
        {
          "ticks": 36100,
          "time": 45.12499999999999,
          "value": -0.01220703125
        },
        {
          "ticks": 36120,
          "time": 45.15,
          "value": 0
        },
        {
          "ticks": 36140,
          "time": 45.175000000000004,
          "value": 0
        },
        {
          "ticks": 36140,
          "time": 45.175000000000004,
          "value": 0
        },
        {
          "ticks": 37200,
          "time": 46.5,
          "value": -0.08544921875
        },
        {
          "ticks": 37260,
          "time": 46.574999999999996,
          "value": -0.048828125
        },
        {
          "ticks": 37270,
          "time": 46.5875,
          "value": -0.03662109375
        },
        {
          "ticks": 37280,
          "time": 46.6,
          "value": -0.0244140625
        },
        {
          "ticks": 37300,
          "time": 46.62499999999999,
          "value": -0.01220703125
        },
        {
          "ticks": 37320,
          "time": 46.65,
          "value": 0
        },
        {
          "ticks": 37340,
          "time": 46.675000000000004,
          "value": 0
        },
        {
          "ticks": 37340,
          "time": 46.675000000000004,
          "value": 0
        },
        {
          "ticks": 38160,
          "time": 47.699999999999996,
          "value": -0.08544921875
        },
        {
          "ticks": 38220,
          "time": 47.775,
          "value": -0.048828125
        },
        {
          "ticks": 38230,
          "time": 47.787499999999994,
          "value": -0.03662109375
        },
        {
          "ticks": 38240,
          "time": 47.800000000000004,
          "value": -0.0244140625
        },
        {
          "ticks": 38260,
          "time": 47.824999999999996,
          "value": -0.01220703125
        },
        {
          "ticks": 38280,
          "time": 47.85,
          "value": 0
        },
        {
          "ticks": 38300,
          "time": 47.875,
          "value": 0
        },
        {
          "ticks": 38300,
          "time": 47.875,
          "value": 0
        },
        {
          "ticks": 42720,
          "time": 53.4,
          "value": -0.08544921875
        },
        {
          "ticks": 42780,
          "time": 53.475,
          "value": -0.048828125
        },
        {
          "ticks": 42790,
          "time": 53.4875,
          "value": -0.03662109375
        },
        {
          "ticks": 42800,
          "time": 53.5,
          "value": -0.0244140625
        },
        {
          "ticks": 42820,
          "time": 53.525,
          "value": -0.01220703125
        },
        {
          "ticks": 42840,
          "time": 53.55,
          "value": 0
        },
        {
          "ticks": 42860,
          "time": 53.575,
          "value": 0
        },
        {
          "ticks": 42860,
          "time": 53.575,
          "value": 0
        },
        {
          "ticks": 43680,
          "time": 54.6,
          "value": -0.08544921875
        },
        {
          "ticks": 43740,
          "time": 54.675,
          "value": -0.048828125
        },
        {
          "ticks": 43750,
          "time": 54.68749999999999,
          "value": -0.03662109375
        },
        {
          "ticks": 43760,
          "time": 54.7,
          "value": -0.0244140625
        },
        {
          "ticks": 43780,
          "time": 54.724999999999994,
          "value": -0.01220703125
        },
        {
          "ticks": 43800,
          "time": 54.75,
          "value": 0
        },
        {
          "ticks": 43820,
          "time": 54.775,
          "value": 0
        },
        {
          "ticks": 43820,
          "time": 54.775,
          "value": 0
        },
        {
          "ticks": 44880,
          "time": 56.1,
          "value": -0.08544921875
        },
        {
          "ticks": 44940,
          "time": 56.175,
          "value": -0.048828125
        },
        {
          "ticks": 44950,
          "time": 56.18749999999999,
          "value": -0.03662109375
        },
        {
          "ticks": 44960,
          "time": 56.2,
          "value": -0.0244140625
        },
        {
          "ticks": 44980,
          "time": 56.224999999999994,
          "value": -0.01220703125
        },
        {
          "ticks": 45000,
          "time": 56.25,
          "value": 0
        },
        {
          "ticks": 45020,
          "time": 56.275,
          "value": 0
        },
        {
          "ticks": 45020,
          "time": 56.275,
          "value": 0
        },
        {
          "ticks": 45840,
          "time": 57.3,
          "value": -0.08544921875
        },
        {
          "ticks": 45900,
          "time": 57.375,
          "value": -0.048828125
        },
        {
          "ticks": 45910,
          "time": 57.387499999999996,
          "value": -0.03662109375
        },
        {
          "ticks": 45920,
          "time": 57.4,
          "value": -0.0244140625
        },
        {
          "ticks": 45940,
          "time": 57.425,
          "value": -0.01220703125
        },
        {
          "ticks": 45960,
          "time": 57.449999999999996,
          "value": 0
        },
        {
          "ticks": 45980,
          "time": 57.475,
          "value": 0
        },
        {
          "ticks": 45980,
          "time": 57.475,
          "value": 0
        },
        {
          "ticks": 65760,
          "time": 82.2,
          "value": -0.08544921875
        },
        {
          "ticks": 65820,
          "time": 82.27499999999999,
          "value": -0.048828125
        },
        {
          "ticks": 65830,
          "time": 82.28750000000001,
          "value": -0.03662109375
        },
        {
          "ticks": 65840,
          "time": 82.3,
          "value": -0.0244140625
        },
        {
          "ticks": 65860,
          "time": 82.325,
          "value": -0.01220703125
        },
        {
          "ticks": 65880,
          "time": 82.35,
          "value": 0
        },
        {
          "ticks": 65900,
          "time": 82.37499999999999,
          "value": 0
        },
        {
          "ticks": 65900,
          "time": 82.37499999999999,
          "value": 0
        },
        {
          "ticks": 66720,
          "time": 83.39999999999999,
          "value": -0.08544921875
        },
        {
          "ticks": 66780,
          "time": 83.475,
          "value": -0.048828125
        },
        {
          "ticks": 66790,
          "time": 83.4875,
          "value": -0.03662109375
        },
        {
          "ticks": 66800,
          "time": 83.49999999999999,
          "value": -0.0244140625
        },
        {
          "ticks": 66820,
          "time": 83.525,
          "value": -0.01220703125
        },
        {
          "ticks": 66840,
          "time": 83.55,
          "value": 0
        },
        {
          "ticks": 66860,
          "time": 83.57499999999999,
          "value": 0
        },
        {
          "ticks": 66860,
          "time": 83.57499999999999,
          "value": 0
        },
        {
          "ticks": 67920,
          "time": 84.89999999999999,
          "value": -0.08544921875
        },
        {
          "ticks": 67980,
          "time": 84.975,
          "value": -0.048828125
        },
        {
          "ticks": 67990,
          "time": 84.9875,
          "value": -0.03662109375
        },
        {
          "ticks": 68000,
          "time": 84.99999999999999,
          "value": -0.0244140625
        },
        {
          "ticks": 68020,
          "time": 85.025,
          "value": -0.01220703125
        },
        {
          "ticks": 68040,
          "time": 85.05,
          "value": 0
        },
        {
          "ticks": 68060,
          "time": 85.07499999999999,
          "value": 0
        },
        {
          "ticks": 68060,
          "time": 85.07499999999999,
          "value": 0
        },
        {
          "ticks": 68880,
          "time": 86.1,
          "value": -0.08544921875
        },
        {
          "ticks": 68940,
          "time": 86.175,
          "value": -0.048828125
        },
        {
          "ticks": 68950,
          "time": 86.1875,
          "value": -0.03662109375
        },
        {
          "ticks": 68960,
          "time": 86.19999999999999,
          "value": -0.0244140625
        },
        {
          "ticks": 68980,
          "time": 86.22500000000001,
          "value": -0.01220703125
        },
        {
          "ticks": 69000,
          "time": 86.25,
          "value": 0
        },
        {
          "ticks": 69020,
          "time": 86.27499999999999,
          "value": 0
        },
        {
          "ticks": 69020,
          "time": 86.27499999999999,
          "value": 0
        },
        {
          "ticks": 73440,
          "time": 91.8,
          "value": -0.08544921875
        },
        {
          "ticks": 73500,
          "time": 91.875,
          "value": -0.048828125
        },
        {
          "ticks": 73510,
          "time": 91.8875,
          "value": -0.03662109375
        },
        {
          "ticks": 73520,
          "time": 91.89999999999999,
          "value": -0.0244140625
        },
        {
          "ticks": 73540,
          "time": 91.925,
          "value": -0.01220703125
        },
        {
          "ticks": 73560,
          "time": 91.95,
          "value": 0
        },
        {
          "ticks": 73580,
          "time": 91.975,
          "value": 0
        },
        {
          "ticks": 73580,
          "time": 91.975,
          "value": 0
        },
        {
          "ticks": 74400,
          "time": 93,
          "value": -0.08544921875
        },
        {
          "ticks": 74460,
          "time": 93.075,
          "value": -0.048828125
        },
        {
          "ticks": 74470,
          "time": 93.0875,
          "value": -0.03662109375
        },
        {
          "ticks": 74480,
          "time": 93.1,
          "value": -0.0244140625
        },
        {
          "ticks": 74500,
          "time": 93.125,
          "value": -0.01220703125
        },
        {
          "ticks": 74520,
          "time": 93.14999999999999,
          "value": 0
        },
        {
          "ticks": 74540,
          "time": 93.175,
          "value": 0
        },
        {
          "ticks": 74540,
          "time": 93.175,
          "value": 0
        },
        {
          "ticks": 75600,
          "time": 94.5,
          "value": -0.08544921875
        },
        {
          "ticks": 75660,
          "time": 94.575,
          "value": -0.048828125
        },
        {
          "ticks": 75670,
          "time": 94.5875,
          "value": -0.03662109375
        },
        {
          "ticks": 75680,
          "time": 94.6,
          "value": -0.0244140625
        },
        {
          "ticks": 75700,
          "time": 94.625,
          "value": -0.01220703125
        },
        {
          "ticks": 75720,
          "time": 94.64999999999999,
          "value": 0
        },
        {
          "ticks": 75740,
          "time": 94.675,
          "value": 0
        },
        {
          "ticks": 75740,
          "time": 94.675,
          "value": 0
        },
        {
          "ticks": 76560,
          "time": 95.7,
          "value": -0.08544921875
        },
        {
          "ticks": 76620,
          "time": 95.77499999999999,
          "value": -0.048828125
        },
        {
          "ticks": 76630,
          "time": 95.78750000000001,
          "value": -0.03662109375
        },
        {
          "ticks": 76640,
          "time": 95.8,
          "value": -0.0244140625
        },
        {
          "ticks": 76660,
          "time": 95.825,
          "value": -0.01220703125
        },
        {
          "ticks": 76680,
          "time": 95.85,
          "value": 0
        },
        {
          "ticks": 76700,
          "time": 95.87499999999999,
          "value": 0
        },
        {
          "ticks": 76700,
          "time": 95.87499999999999,
          "value": 0
        }
      ],
      "instrument": {
        "family": "synth lead",
        "number": 81,
        "name": "lead 2 (sawtooth)"
      },
      "name": "",
      "notes": [
        {
          "duration": 0.46000000000000085,
          "durationTicks": 368,
          "midi": 76,
          "name": "E5",
          "ticks": 4320,
          "time": 5.3999999999999995,
          "velocity": 0.7874015748031497
        },
        {
          "duration": 0.46000000000000085,
          "durationTicks": 368,
          "midi": 72,
          "name": "C5",
          "ticks": 4320,
          "time": 5.3999999999999995,
          "velocity": 0.7874015748031497
        },
        {
          "duration": 0.46000000000000085,
          "durationTicks": 368,
          "midi": 67,
          "name": "G4",
          "ticks": 4320,
          "time": 5.3999999999999995,
          "velocity": 0.7874015748031497
        },
        {
          "duration": 0.08999999999999897,
          "durationTicks": 72,
          "midi": 74,
          "name": "D5",
          "ticks": 4720,
          "time": 5.9,
          "velocity": 0.7874015748031497
        },
        {
          "duration": 0.08999999999999897,
          "durationTicks": 72,
          "midi": 71,
          "name": "B4",
          "ticks": 4720,
          "time": 5.9,
          "velocity": 0.7874015748031497
        },
        {
          "duration": 0.08999999999999897,
          "durationTicks": 72,
          "midi": 66,
          "name": "F#4",
          "ticks": 4720,
          "time": 5.9,
          "velocity": 0.7874015748031497
        },
        {
          "duration": 0.46000000000000085,
          "durationTicks": 368,
          "midi": 74,
          "name": "D5",
          "ticks": 5280,
          "time": 6.6,
          "velocity": 0.7874015748031497
        },
        {
          "duration": 0.46000000000000085,
          "durationTicks": 368,
          "midi": 71,
          "name": "B4",
          "ticks": 5280,
          "time": 6.6,
          "velocity": 0.7874015748031497
        },
        {
          "duration": 0.46000000000000085,
          "durationTicks": 368,
          "midi": 66,
          "name": "F#4",
          "ticks": 5280,
          "time": 6.6,
          "velocity": 0.7874015748031497
        },
        {
          "duration": 0.08999999999999897,
          "durationTicks": 72,
          "midi": 72,
          "name": "C5",
          "ticks": 5680,
          "time": 7.1000000000000005,
          "velocity": 0.7874015748031497
        },
        {
          "duration": 0.08999999999999897,
          "durationTicks": 72,
          "midi": 69,
          "name": "A4",
          "ticks": 5680,
          "time": 7.1000000000000005,
          "velocity": 0.7874015748031497
        },
        {
          "duration": 0.08999999999999897,
          "durationTicks": 72,
          "midi": 64,
          "name": "E4",
          "ticks": 5680,
          "time": 7.1000000000000005,
          "velocity": 0.7874015748031497
        },
        {
          "duration": 0.17999999999999972,
          "durationTicks": 144,
          "midi": 72,
          "name": "C5",
          "ticks": 6480,
          "time": 8.1,
          "velocity": 0.7874015748031497
        },
        {
          "duration": 0.17999999999999972,
          "durationTicks": 144,
          "midi": 64,
          "name": "E4",
          "ticks": 6480,
          "time": 8.1,
          "velocity": 0.7874015748031497
        },
        {
          "duration": 0.17999999999999972,
          "durationTicks": 144,
          "midi": 69,
          "name": "A4",
          "ticks": 6480,
          "time": 8.1,
          "velocity": 0.7874015748031497
        },
        {
          "duration": 0.08999999999999808,
          "durationTicks": 72,
          "midi": 74,
          "name": "D5",
          "ticks": 6640,
          "time": 8.3,
          "velocity": 0.7874015748031497
        },
        {
          "duration": 0.17999999999999794,
          "durationTicks": 144,
          "midi": 66,
          "name": "F#4",
          "ticks": 6640,
          "time": 8.3,
          "velocity": 0.7874015748031497
        },
        {
          "duration": 0.08999999999999808,
          "durationTicks": 72,
          "midi": 71,
          "name": "B4",
          "ticks": 6640,
          "time": 8.3,
          "velocity": 0.7874015748031497
        },
        {
          "duration": 0.17999999999999972,
          "durationTicks": 144,
          "midi": 76,
          "name": "E5",
          "ticks": 6720,
          "time": 8.4,
          "velocity": 0.7874015748031497
        },
        {
          "duration": 0.17999999999999972,
          "durationTicks": 144,
          "midi": 67,
          "name": "G4",
          "ticks": 6720,
          "time": 8.4,
          "velocity": 0.7874015748031497
        },
        {
          "duration": 0.17999999999999972,
          "durationTicks": 144,
          "midi": 72,
          "name": "C5",
          "ticks": 6720,
          "time": 8.4,
          "velocity": 0.7874015748031497
        },
        {
          "duration": 0.1800000000000015,
          "durationTicks": 144,
          "midi": 76,
          "name": "E5",
          "ticks": 6960,
          "time": 8.7,
          "velocity": 0.7874015748031497
        },
        {
          "duration": 0.1800000000000015,
          "durationTicks": 144,
          "midi": 67,
          "name": "G4",
          "ticks": 6960,
          "time": 8.7,
          "velocity": 0.7874015748031497
        },
        {
          "duration": 0.1800000000000015,
          "durationTicks": 144,
          "midi": 72,
          "name": "C5",
          "ticks": 6960,
          "time": 8.7,
          "velocity": 0.7874015748031497
        },
        {
          "duration": 0.08999999999999808,
          "durationTicks": 72,
          "midi": 74,
          "name": "D5",
          "ticks": 7120,
          "time": 8.9,
          "velocity": 0.7874015748031497
        },
        {
          "duration": 0.08999999999999808,
          "durationTicks": 72,
          "midi": 66,
          "name": "F#4",
          "ticks": 7120,
          "time": 8.9,
          "velocity": 0.7874015748031497
        },
        {
          "duration": 0.08999999999999808,
          "durationTicks": 72,
          "midi": 71,
          "name": "B4",
          "ticks": 7120,
          "time": 8.9,
          "velocity": 0.7874015748031497
        },
        {
          "duration": 0.08999999999999986,
          "durationTicks": 72,
          "midi": 74,
          "name": "D5",
          "ticks": 7360,
          "time": 9.2,
          "velocity": 0.7874015748031497
        },
        {
          "duration": 0.5999999999999996,
          "durationTicks": 480,
          "midi": 66,
          "name": "F#4",
          "ticks": 7360,
          "time": 9.2,
          "velocity": 0.7874015748031497
        },
        {
          "duration": 0.5999999999999996,
          "durationTicks": 480,
          "midi": 71,
          "name": "B4",
          "ticks": 7360,
          "time": 9.2,
          "velocity": 0.7874015748031497
        },
        {
          "duration": 0.5,
          "durationTicks": 400,
          "midi": 74,
          "name": "D5",
          "ticks": 7440,
          "time": 9.299999999999999,
          "velocity": 0.7874015748031497
        },
        {
          "duration": 0.09000000000000163,
          "durationTicks": 72,
          "midi": 72,
          "name": "C5",
          "ticks": 7840,
          "time": 9.799999999999999,
          "velocity": 0.7874015748031497
        },
        {
          "duration": 0.09000000000000163,
          "durationTicks": 72,
          "midi": 64,
          "name": "E4",
          "ticks": 7840,
          "time": 9.799999999999999,
          "velocity": 0.7874015748031497
        },
        {
          "duration": 0.09000000000000163,
          "durationTicks": 72,
          "midi": 69,
          "name": "A4",
          "ticks": 7840,
          "time": 9.799999999999999,
          "velocity": 0.7874015748031497
        },
        {
          "duration": 0.17999999999999972,
          "durationTicks": 144,
          "midi": 72,
          "name": "C5",
          "ticks": 7920,
          "time": 9.9,
          "velocity": 0.7874015748031497
        },
        {
          "duration": 0.08999999999999808,
          "durationTicks": 72,
          "midi": 64,
          "name": "E4",
          "ticks": 7920,
          "time": 9.9,
          "velocity": 0.7874015748031497
        },
        {
          "duration": 0.08999999999999808,
          "durationTicks": 72,
          "midi": 69,
          "name": "A4",
          "ticks": 7920,
          "time": 9.9,
          "velocity": 0.7874015748031497
        },
        {
          "duration": 0.1800000000000015,
          "durationTicks": 144,
          "midi": 74,
          "name": "D5",
          "ticks": 9840,
          "time": 12.299999999999999,
          "velocity": 0.7874015748031497
        },
        {
          "duration": 0.1800000000000015,
          "durationTicks": 144,
          "midi": 66,
          "name": "F#4",
          "ticks": 9840,
          "time": 12.299999999999999,
          "velocity": 0.7874015748031497
        },
        {
          "duration": 0.1800000000000015,
          "durationTicks": 144,
          "midi": 71,
          "name": "B4",
          "ticks": 9840,
          "time": 12.299999999999999,
          "velocity": 0.7874015748031497
        },
        {
          "duration": 0.09000000000000163,
          "durationTicks": 72,
          "midi": 74,
          "name": "D5",
          "ticks": 10000,
          "time": 12.499999999999998,
          "velocity": 0.7874015748031497
        },
        {
          "duration": 0.09000000000000163,
          "durationTicks": 72,
          "midi": 66,
          "name": "F#4",
          "ticks": 10000,
          "time": 12.499999999999998,
          "velocity": 0.7874015748031497
        },
        {
          "duration": 0.09000000000000163,
          "durationTicks": 72,
          "midi": 71,
          "name": "B4",
          "ticks": 10000,
          "time": 12.499999999999998,
          "velocity": 0.7874015748031497
        },
        {
          "duration": 0.4599999999999991,
          "durationTicks": 368,
          "midi": 76,
          "name": "E5",
          "ticks": 12000,
          "time": 15,
          "velocity": 0.7874015748031497
        },
        {
          "duration": 0.4599999999999991,
          "durationTicks": 368,
          "midi": 72,
          "name": "C5",
          "ticks": 12000,
          "time": 15,
          "velocity": 0.7874015748031497
        },
        {
          "duration": 0.4599999999999991,
          "durationTicks": 368,
          "midi": 67,
          "name": "G4",
          "ticks": 12000,
          "time": 15,
          "velocity": 0.7874015748031497
        },
        {
          "duration": 0.09000000000000163,
          "durationTicks": 72,
          "midi": 74,
          "name": "D5",
          "ticks": 12400,
          "time": 15.499999999999998,
          "velocity": 0.7874015748031497
        },
        {
          "duration": 0.09000000000000163,
          "durationTicks": 72,
          "midi": 71,
          "name": "B4",
          "ticks": 12400,
          "time": 15.499999999999998,
          "velocity": 0.7874015748031497
        },
        {
          "duration": 0.09000000000000163,
          "durationTicks": 72,
          "midi": 66,
          "name": "F#4",
          "ticks": 12400,
          "time": 15.499999999999998,
          "velocity": 0.7874015748031497
        },
        {
          "duration": 0.46000000000000085,
          "durationTicks": 368,
          "midi": 74,
          "name": "D5",
          "ticks": 12960,
          "time": 16.2,
          "velocity": 0.7874015748031497
        },
        {
          "duration": 0.46000000000000085,
          "durationTicks": 368,
          "midi": 71,
          "name": "B4",
          "ticks": 12960,
          "time": 16.2,
          "velocity": 0.7874015748031497
        },
        {
          "duration": 0.46000000000000085,
          "durationTicks": 368,
          "midi": 66,
          "name": "F#4",
          "ticks": 12960,
          "time": 16.2,
          "velocity": 0.7874015748031497
        },
        {
          "duration": 0.08999999999999986,
          "durationTicks": 72,
          "midi": 72,
          "name": "C5",
          "ticks": 13360,
          "time": 16.7,
          "velocity": 0.7874015748031497
        },
        {
          "duration": 0.08999999999999986,
          "durationTicks": 72,
          "midi": 69,
          "name": "A4",
          "ticks": 13360,
          "time": 16.7,
          "velocity": 0.7874015748031497
        },
        {
          "duration": 0.08999999999999986,
          "durationTicks": 72,
          "midi": 64,
          "name": "E4",
          "ticks": 13360,
          "time": 16.7,
          "velocity": 0.7874015748031497
        },
        {
          "duration": 0.17999999999999972,
          "durationTicks": 144,
          "midi": 72,
          "name": "C5",
          "ticks": 14160,
          "time": 17.7,
          "velocity": 0.7874015748031497
        },
        {
          "duration": 0.17999999999999972,
          "durationTicks": 144,
          "midi": 64,
          "name": "E4",
          "ticks": 14160,
          "time": 17.7,
          "velocity": 0.7874015748031497
        },
        {
          "duration": 0.17999999999999972,
          "durationTicks": 144,
          "midi": 69,
          "name": "A4",
          "ticks": 14160,
          "time": 17.7,
          "velocity": 0.7874015748031497
        },
        {
          "duration": 0.08999999999999986,
          "durationTicks": 72,
          "midi": 74,
          "name": "D5",
          "ticks": 14320,
          "time": 17.9,
          "velocity": 0.7874015748031497
        },
        {
          "duration": 0.17999999999999972,
          "durationTicks": 144,
          "midi": 66,
          "name": "F#4",
          "ticks": 14320,
          "time": 17.9,
          "velocity": 0.7874015748031497
        },
        {
          "duration": 0.08999999999999986,
          "durationTicks": 72,
          "midi": 71,
          "name": "B4",
          "ticks": 14320,
          "time": 17.9,
          "velocity": 0.7874015748031497
        },
        {
          "duration": 0.17999999999999972,
          "durationTicks": 144,
          "midi": 76,
          "name": "E5",
          "ticks": 14400,
          "time": 18,
          "velocity": 0.7874015748031497
        },
        {
          "duration": 0.17999999999999972,
          "durationTicks": 144,
          "midi": 67,
          "name": "G4",
          "ticks": 14400,
          "time": 18,
          "velocity": 0.7874015748031497
        },
        {
          "duration": 0.17999999999999972,
          "durationTicks": 144,
          "midi": 72,
          "name": "C5",
          "ticks": 14400,
          "time": 18,
          "velocity": 0.7874015748031497
        },
        {
          "duration": 0.17999999999999972,
          "durationTicks": 144,
          "midi": 76,
          "name": "E5",
          "ticks": 14640,
          "time": 18.3,
          "velocity": 0.7874015748031497
        },
        {
          "duration": 0.17999999999999972,
          "durationTicks": 144,
          "midi": 67,
          "name": "G4",
          "ticks": 14640,
          "time": 18.3,
          "velocity": 0.7874015748031497
        },
        {
          "duration": 0.17999999999999972,
          "durationTicks": 144,
          "midi": 72,
          "name": "C5",
          "ticks": 14640,
          "time": 18.3,
          "velocity": 0.7874015748031497
        },
        {
          "duration": 0.08999999999999986,
          "durationTicks": 72,
          "midi": 74,
          "name": "D5",
          "ticks": 14800,
          "time": 18.5,
          "velocity": 0.7874015748031497
        },
        {
          "duration": 0.08999999999999986,
          "durationTicks": 72,
          "midi": 66,
          "name": "F#4",
          "ticks": 14800,
          "time": 18.5,
          "velocity": 0.7874015748031497
        },
        {
          "duration": 0.08999999999999986,
          "durationTicks": 72,
          "midi": 71,
          "name": "B4",
          "ticks": 14800,
          "time": 18.5,
          "velocity": 0.7874015748031497
        },
        {
          "duration": 0.09000000000000341,
          "durationTicks": 72,
          "midi": 74,
          "name": "D5",
          "ticks": 15040,
          "time": 18.799999999999997,
          "velocity": 0.7874015748031497
        },
        {
          "duration": 0.600000000000005,
          "durationTicks": 480,
          "midi": 66,
          "name": "F#4",
          "ticks": 15040,
          "time": 18.799999999999997,
          "velocity": 0.7874015748031497
        },
        {
          "duration": 0.600000000000005,
          "durationTicks": 480,
          "midi": 71,
          "name": "B4",
          "ticks": 15040,
          "time": 18.799999999999997,
          "velocity": 0.7874015748031497
        },
        {
          "duration": 0.5000000000000036,
          "durationTicks": 400,
          "midi": 74,
          "name": "D5",
          "ticks": 15120,
          "time": 18.9,
          "velocity": 0.7874015748031497
        },
        {
          "duration": 0.0899999999999963,
          "durationTicks": 72,
          "midi": 72,
          "name": "C5",
          "ticks": 15520,
          "time": 19.400000000000002,
          "velocity": 0.7874015748031497
        },
        {
          "duration": 0.0899999999999963,
          "durationTicks": 72,
          "midi": 64,
          "name": "E4",
          "ticks": 15520,
          "time": 19.400000000000002,
          "velocity": 0.7874015748031497
        },
        {
          "duration": 0.0899999999999963,
          "durationTicks": 72,
          "midi": 69,
          "name": "A4",
          "ticks": 15520,
          "time": 19.400000000000002,
          "velocity": 0.7874015748031497
        },
        {
          "duration": 0.17999999999999616,
          "durationTicks": 144,
          "midi": 72,
          "name": "C5",
          "ticks": 15600,
          "time": 19.5,
          "velocity": 0.7874015748031497
        },
        {
          "duration": 0.08999999999999986,
          "durationTicks": 72,
          "midi": 64,
          "name": "E4",
          "ticks": 15600,
          "time": 19.5,
          "velocity": 0.7874015748031497
        },
        {
          "duration": 0.08999999999999986,
          "durationTicks": 72,
          "midi": 69,
          "name": "A4",
          "ticks": 15600,
          "time": 19.5,
          "velocity": 0.7874015748031497
        },
        {
          "duration": 0.2699999999999996,
          "durationTicks": 216,
          "midi": 72,
          "name": "C5",
          "ticks": 18240,
          "time": 22.8,
          "velocity": 0.7874015748031497
        },
        {
          "duration": 0.17999999999999616,
          "durationTicks": 144,
          "midi": 76,
          "name": "E5",
          "ticks": 18240,
          "time": 22.8,
          "velocity": 0.7874015748031497
        },
        {
          "duration": 0.08999999999999986,
          "durationTicks": 72,
          "midi": 75,
          "name": "D#5",
          "ticks": 18400,
          "time": 23,
          "velocity": 0.7874015748031497
        },
        {
          "duration": 0.08999999999999986,
          "durationTicks": 72,
          "midi": 78,
          "name": "F#5",
          "ticks": 18400,
          "time": 23,
          "velocity": 0.7874015748031497
        },
        {
          "duration": 0.17999999999999972,
          "durationTicks": 144,
          "midi": 76,
          "name": "E5",
          "ticks": 18480,
          "time": 23.099999999999998,
          "velocity": 0.7874015748031497
        },
        {
          "duration": 0.17999999999999972,
          "durationTicks": 144,
          "midi": 79,
          "name": "G5",
          "ticks": 18480,
          "time": 23.099999999999998,
          "velocity": 0.7874015748031497
        },
        {
          "duration": 0.08999999999999986,
          "durationTicks": 72,
          "midi": 78,
          "name": "F#5",
          "ticks": 18640,
          "time": 23.3,
          "velocity": 0.7874015748031497
        },
        {
          "duration": 0.08999999999999986,
          "durationTicks": 72,
          "midi": 81,
          "name": "A5",
          "ticks": 18640,
          "time": 23.3,
          "velocity": 0.7874015748031497
        },
        {
          "duration": 0.08999999999999986,
          "durationTicks": 72,
          "midi": 76,
          "name": "E5",
          "ticks": 18720,
          "time": 23.4,
          "velocity": 0.7874015748031497
        },
        {
          "duration": 0.08999999999999986,
          "durationTicks": 72,
          "midi": 79,
          "name": "G5",
          "ticks": 18720,
          "time": 23.4,
          "velocity": 0.7874015748031497
        },
        {
          "duration": 0.09000000000000341,
          "durationTicks": 72,
          "midi": 77,
          "name": "F5",
          "ticks": 18800,
          "time": 23.499999999999996,
          "velocity": 0.7874015748031497
        },
        {
          "duration": 0.09000000000000341,
          "durationTicks": 72,
          "midi": 81,
          "name": "A5",
          "ticks": 18800,
          "time": 23.499999999999996,
          "velocity": 0.7874015748031497
        },
        {
          "duration": 0.08999999999999986,
          "durationTicks": 72,
          "midi": 79,
          "name": "G5",
          "ticks": 18880,
          "time": 23.6,
          "velocity": 0.7874015748031497
        },
        {
          "duration": 0.08999999999999986,
          "durationTicks": 72,
          "midi": 83,
          "name": "B5",
          "ticks": 18880,
          "time": 23.6,
          "velocity": 0.7874015748031497
        },
        {
          "duration": 0.08999999999999986,
          "durationTicks": 72,
          "midi": 81,
          "name": "A5",
          "ticks": 18960,
          "time": 23.7,
          "velocity": 0.7874015748031497
        },
        {
          "duration": 0.08999999999999986,
          "durationTicks": 72,
          "midi": 84,
          "name": "C6",
          "ticks": 18960,
          "time": 23.7,
          "velocity": 0.7874015748031497
        },
        {
          "duration": 0.09000000000000341,
          "durationTicks": 72,
          "midi": 83,
          "name": "B5",
          "ticks": 19040,
          "time": 23.799999999999997,
          "velocity": 0.7874015748031497
        },
        {
          "duration": 0.09000000000000341,
          "durationTicks": 72,
          "midi": 86,
          "name": "D6",
          "ticks": 19040,
          "time": 23.799999999999997,
          "velocity": 0.7874015748031497
        },
        {
          "duration": 0.0899999999999963,
          "durationTicks": 72,
          "midi": 84,
          "name": "C6",
          "ticks": 19120,
          "time": 23.900000000000002,
          "velocity": 0.7874015748031497
        },
        {
          "duration": 0.0899999999999963,
          "durationTicks": 72,
          "midi": 87,
          "name": "D#6",
          "ticks": 19120,
          "time": 23.900000000000002,
          "velocity": 0.7874015748031497
        },
        {
          "duration": 0.10249999999999915,
          "durationTicks": 82,
          "midi": 72,
          "name": "C5",
          "ticks": 19440,
          "time": 24.3,
          "velocity": 0.7874015748031497
        },
        {
          "duration": 0.10249999999999915,
          "durationTicks": 82,
          "midi": 64,
          "name": "E4",
          "ticks": 19440,
          "time": 24.3,
          "velocity": 0.7874015748031497
        },
        {
          "duration": 0.10249999999999915,
          "durationTicks": 82,
          "midi": 69,
          "name": "A4",
          "ticks": 19440,
          "time": 24.3,
          "velocity": 0.7874015748031497
        },
        {
          "duration": 0.10249999999999915,
          "durationTicks": 82,
          "midi": 72,
          "name": "C5",
          "ticks": 19840,
          "time": 24.8,
          "velocity": 0.7874015748031497
        },
        {
          "duration": 0.10249999999999915,
          "durationTicks": 82,
          "midi": 64,
          "name": "E4",
          "ticks": 19840,
          "time": 24.8,
          "velocity": 0.7874015748031497
        },
        {
          "duration": 0.10249999999999915,
          "durationTicks": 82,
          "midi": 69,
          "name": "A4",
          "ticks": 19840,
          "time": 24.8,
          "velocity": 0.7874015748031497
        },
        {
          "duration": 0.10249999999999915,
          "durationTicks": 82,
          "midi": 72,
          "name": "C5",
          "ticks": 20160,
          "time": 25.2,
          "velocity": 0.7874015748031497
        },
        {
          "duration": 0.10249999999999915,
          "durationTicks": 82,
          "midi": 64,
          "name": "E4",
          "ticks": 20160,
          "time": 25.2,
          "velocity": 0.7874015748031497
        },
        {
          "duration": 0.10249999999999915,
          "durationTicks": 82,
          "midi": 69,
          "name": "A4",
          "ticks": 20160,
          "time": 25.2,
          "velocity": 0.7874015748031497
        },
        {
          "duration": 0.10249999999999915,
          "durationTicks": 82,
          "midi": 71,
          "name": "B4",
          "ticks": 21360,
          "time": 26.7,
          "velocity": 0.7874015748031497
        },
        {
          "duration": 0.10249999999999915,
          "durationTicks": 82,
          "midi": 62,
          "name": "D4",
          "ticks": 21360,
          "time": 26.7,
          "velocity": 0.7874015748031497
        },
        {
          "duration": 0.10249999999999915,
          "durationTicks": 82,
          "midi": 67,
          "name": "G4",
          "ticks": 21360,
          "time": 26.7,
          "velocity": 0.7874015748031497
        },
        {
          "duration": 0.1025000000000027,
          "durationTicks": 82,
          "midi": 71,
          "name": "B4",
          "ticks": 21760,
          "time": 27.2,
          "velocity": 0.7874015748031497
        },
        {
          "duration": 0.1025000000000027,
          "durationTicks": 82,
          "midi": 62,
          "name": "D4",
          "ticks": 21760,
          "time": 27.2,
          "velocity": 0.7874015748031497
        },
        {
          "duration": 0.1025000000000027,
          "durationTicks": 82,
          "midi": 67,
          "name": "G4",
          "ticks": 21760,
          "time": 27.2,
          "velocity": 0.7874015748031497
        },
        {
          "duration": 0.1025000000000027,
          "durationTicks": 82,
          "midi": 71,
          "name": "B4",
          "ticks": 22080,
          "time": 27.599999999999998,
          "velocity": 0.7874015748031497
        },
        {
          "duration": 0.1025000000000027,
          "durationTicks": 82,
          "midi": 62,
          "name": "D4",
          "ticks": 22080,
          "time": 27.599999999999998,
          "velocity": 0.7874015748031497
        },
        {
          "duration": 0.1025000000000027,
          "durationTicks": 82,
          "midi": 67,
          "name": "G4",
          "ticks": 22080,
          "time": 27.599999999999998,
          "velocity": 0.7874015748031497
        },
        {
          "duration": 0.1025000000000027,
          "durationTicks": 82,
          "midi": 72,
          "name": "C5",
          "ticks": 23280,
          "time": 29.099999999999998,
          "velocity": 0.7874015748031497
        },
        {
          "duration": 0.1025000000000027,
          "durationTicks": 82,
          "midi": 64,
          "name": "E4",
          "ticks": 23280,
          "time": 29.099999999999998,
          "velocity": 0.7874015748031497
        },
        {
          "duration": 0.1025000000000027,
          "durationTicks": 82,
          "midi": 69,
          "name": "A4",
          "ticks": 23280,
          "time": 29.099999999999998,
          "velocity": 0.7874015748031497
        },
        {
          "duration": 0.10249999999999915,
          "durationTicks": 82,
          "midi": 72,
          "name": "C5",
          "ticks": 23680,
          "time": 29.6,
          "velocity": 0.7874015748031497
        },
        {
          "duration": 0.10249999999999915,
          "durationTicks": 82,
          "midi": 64,
          "name": "E4",
          "ticks": 23680,
          "time": 29.6,
          "velocity": 0.7874015748031497
        },
        {
          "duration": 0.10249999999999915,
          "durationTicks": 82,
          "midi": 69,
          "name": "A4",
          "ticks": 23680,
          "time": 29.6,
          "velocity": 0.7874015748031497
        },
        {
          "duration": 0.10249999999999915,
          "durationTicks": 82,
          "midi": 72,
          "name": "C5",
          "ticks": 24000,
          "time": 30,
          "velocity": 0.7874015748031497
        },
        {
          "duration": 0.10249999999999915,
          "durationTicks": 82,
          "midi": 64,
          "name": "E4",
          "ticks": 24000,
          "time": 30,
          "velocity": 0.7874015748031497
        },
        {
          "duration": 0.10249999999999915,
          "durationTicks": 82,
          "midi": 69,
          "name": "A4",
          "ticks": 24000,
          "time": 30,
          "velocity": 0.7874015748031497
        },
        {
          "duration": 0.10249999999999915,
          "durationTicks": 82,
          "midi": 74,
          "name": "D5",
          "ticks": 25200,
          "time": 31.5,
          "velocity": 0.7874015748031497
        },
        {
          "duration": 0.10249999999999915,
          "durationTicks": 82,
          "midi": 66,
          "name": "F#4",
          "ticks": 25200,
          "time": 31.5,
          "velocity": 0.7874015748031497
        },
        {
          "duration": 0.10249999999999915,
          "durationTicks": 82,
          "midi": 71,
          "name": "B4",
          "ticks": 25200,
          "time": 31.5,
          "velocity": 0.7874015748031497
        },
        {
          "duration": 0.10249999999999915,
          "durationTicks": 82,
          "midi": 74,
          "name": "D5",
          "ticks": 25600,
          "time": 32,
          "velocity": 0.7874015748031497
        },
        {
          "duration": 0.10249999999999915,
          "durationTicks": 82,
          "midi": 66,
          "name": "F#4",
          "ticks": 25600,
          "time": 32,
          "velocity": 0.7874015748031497
        },
        {
          "duration": 0.10249999999999915,
          "durationTicks": 82,
          "midi": 71,
          "name": "B4",
          "ticks": 25600,
          "time": 32,
          "velocity": 0.7874015748031497
        },
        {
          "duration": 0.0899999999999963,
          "durationTicks": 72,
          "midi": 66,
          "name": "F#4",
          "ticks": 25920,
          "time": 32.4,
          "velocity": 0.7874015748031497
        },
        {
          "duration": 0.0899999999999963,
          "durationTicks": 72,
          "midi": 74,
          "name": "D5",
          "ticks": 25920,
          "time": 32.4,
          "velocity": 0.7874015748031497
        },
        {
          "duration": 0.0899999999999963,
          "durationTicks": 72,
          "midi": 71,
          "name": "B4",
          "ticks": 25920,
          "time": 32.4,
          "velocity": 0.7874015748031497
        },
        {
          "duration": 0.09000000000000341,
          "durationTicks": 72,
          "midi": 74,
          "name": "D5",
          "ticks": 26160,
          "time": 32.699999999999996,
          "velocity": 0.7874015748031497
        },
        {
          "duration": 0.09000000000000341,
          "durationTicks": 72,
          "midi": 66,
          "name": "F#4",
          "ticks": 26160,
          "time": 32.699999999999996,
          "velocity": 0.7874015748031497
        },
        {
          "duration": 0.09000000000000341,
          "durationTicks": 72,
          "midi": 71,
          "name": "B4",
          "ticks": 26160,
          "time": 32.699999999999996,
          "velocity": 0.7874015748031497
        },
        {
          "duration": 0.10249999999999915,
          "durationTicks": 82,
          "midi": 72,
          "name": "C5",
          "ticks": 27120,
          "time": 33.9,
          "velocity": 0.7874015748031497
        },
        {
          "duration": 0.10249999999999915,
          "durationTicks": 82,
          "midi": 64,
          "name": "E4",
          "ticks": 27120,
          "time": 33.9,
          "velocity": 0.7874015748031497
        },
        {
          "duration": 0.10249999999999915,
          "durationTicks": 82,
          "midi": 69,
          "name": "A4",
          "ticks": 27120,
          "time": 33.9,
          "velocity": 0.7874015748031497
        },
        {
          "duration": 0.10249999999999915,
          "durationTicks": 82,
          "midi": 72,
          "name": "C5",
          "ticks": 27520,
          "time": 34.4,
          "velocity": 0.7874015748031497
        },
        {
          "duration": 0.10249999999999915,
          "durationTicks": 82,
          "midi": 64,
          "name": "E4",
          "ticks": 27520,
          "time": 34.4,
          "velocity": 0.7874015748031497
        },
        {
          "duration": 0.10249999999999915,
          "durationTicks": 82,
          "midi": 69,
          "name": "A4",
          "ticks": 27520,
          "time": 34.4,
          "velocity": 0.7874015748031497
        },
        {
          "duration": 0.10249999999999915,
          "durationTicks": 82,
          "midi": 72,
          "name": "C5",
          "ticks": 27840,
          "time": 34.8,
          "velocity": 0.7874015748031497
        },
        {
          "duration": 0.10249999999999915,
          "durationTicks": 82,
          "midi": 64,
          "name": "E4",
          "ticks": 27840,
          "time": 34.8,
          "velocity": 0.7874015748031497
        },
        {
          "duration": 0.10249999999999915,
          "durationTicks": 82,
          "midi": 69,
          "name": "A4",
          "ticks": 27840,
          "time": 34.8,
          "velocity": 0.7874015748031497
        },
        {
          "duration": 0.10249999999999915,
          "durationTicks": 82,
          "midi": 71,
          "name": "B4",
          "ticks": 29040,
          "time": 36.3,
          "velocity": 0.7874015748031497
        },
        {
          "duration": 0.10249999999999915,
          "durationTicks": 82,
          "midi": 62,
          "name": "D4",
          "ticks": 29040,
          "time": 36.3,
          "velocity": 0.7874015748031497
        },
        {
          "duration": 0.10249999999999915,
          "durationTicks": 82,
          "midi": 67,
          "name": "G4",
          "ticks": 29040,
          "time": 36.3,
          "velocity": 0.7874015748031497
        },
        {
          "duration": 0.10250000000000625,
          "durationTicks": 82,
          "midi": 71,
          "name": "B4",
          "ticks": 29440,
          "time": 36.8,
          "velocity": 0.7874015748031497
        },
        {
          "duration": 0.10250000000000625,
          "durationTicks": 82,
          "midi": 62,
          "name": "D4",
          "ticks": 29440,
          "time": 36.8,
          "velocity": 0.7874015748031497
        },
        {
          "duration": 0.10250000000000625,
          "durationTicks": 82,
          "midi": 67,
          "name": "G4",
          "ticks": 29440,
          "time": 36.8,
          "velocity": 0.7874015748031497
        },
        {
          "duration": 0.10250000000000625,
          "durationTicks": 82,
          "midi": 71,
          "name": "B4",
          "ticks": 29760,
          "time": 37.199999999999996,
          "velocity": 0.7874015748031497
        },
        {
          "duration": 0.10250000000000625,
          "durationTicks": 82,
          "midi": 62,
          "name": "D4",
          "ticks": 29760,
          "time": 37.199999999999996,
          "velocity": 0.7874015748031497
        },
        {
          "duration": 0.10250000000000625,
          "durationTicks": 82,
          "midi": 67,
          "name": "G4",
          "ticks": 29760,
          "time": 37.199999999999996,
          "velocity": 0.7874015748031497
        },
        {
          "duration": 0.10250000000000625,
          "durationTicks": 82,
          "midi": 72,
          "name": "C5",
          "ticks": 30960,
          "time": 38.699999999999996,
          "velocity": 0.7874015748031497
        },
        {
          "duration": 0.10250000000000625,
          "durationTicks": 82,
          "midi": 64,
          "name": "E4",
          "ticks": 30960,
          "time": 38.699999999999996,
          "velocity": 0.7874015748031497
        },
        {
          "duration": 0.10250000000000625,
          "durationTicks": 82,
          "midi": 69,
          "name": "A4",
          "ticks": 30960,
          "time": 38.699999999999996,
          "velocity": 0.7874015748031497
        },
        {
          "duration": 0.10249999999999915,
          "durationTicks": 82,
          "midi": 72,
          "name": "C5",
          "ticks": 31360,
          "time": 39.199999999999996,
          "velocity": 0.7874015748031497
        },
        {
          "duration": 0.10249999999999915,
          "durationTicks": 82,
          "midi": 64,
          "name": "E4",
          "ticks": 31360,
          "time": 39.199999999999996,
          "velocity": 0.7874015748031497
        },
        {
          "duration": 0.10249999999999915,
          "durationTicks": 82,
          "midi": 69,
          "name": "A4",
          "ticks": 31360,
          "time": 39.199999999999996,
          "velocity": 0.7874015748031497
        },
        {
          "duration": 0.10249999999999915,
          "durationTicks": 82,
          "midi": 72,
          "name": "C5",
          "ticks": 31680,
          "time": 39.6,
          "velocity": 0.7874015748031497
        },
        {
          "duration": 0.10249999999999915,
          "durationTicks": 82,
          "midi": 64,
          "name": "E4",
          "ticks": 31680,
          "time": 39.6,
          "velocity": 0.7874015748031497
        },
        {
          "duration": 0.10249999999999915,
          "durationTicks": 82,
          "midi": 69,
          "name": "A4",
          "ticks": 31680,
          "time": 39.6,
          "velocity": 0.7874015748031497
        },
        {
          "duration": 0.4799999999999969,
          "durationTicks": 384,
          "midi": 71,
          "name": "B4",
          "ticks": 32640,
          "time": 40.8,
          "velocity": 0.7874015748031497
        },
        {
          "duration": 0.4799999999999969,
          "durationTicks": 384,
          "midi": 66,
          "name": "F#4",
          "ticks": 32640,
          "time": 40.8,
          "velocity": 0.7874015748031497
        },
        {
          "duration": 0.4799999999999969,
          "durationTicks": 384,
          "midi": 76,
          "name": "E5",
          "ticks": 32640,
          "time": 40.8,
          "velocity": 0.7874015748031497
        },
        {
          "duration": 0.10249999999999915,
          "durationTicks": 82,
          "midi": 76,
          "name": "E5",
          "ticks": 33040,
          "time": 41.3,
          "velocity": 0.7874015748031497
        },
        {
          "duration": 0.09000000000000341,
          "durationTicks": 72,
          "midi": 66,
          "name": "F#4",
          "ticks": 33040,
          "time": 41.3,
          "velocity": 0.7874015748031497
        },
        {
          "duration": 0.10249999999999915,
          "durationTicks": 82,
          "midi": 71,
          "name": "B4",
          "ticks": 33040,
          "time": 41.3,
          "velocity": 0.7874015748031497
        },
        {
          "duration": 0.46000000000000085,
          "durationTicks": 368,
          "midi": 76,
          "name": "E5",
          "ticks": 35040,
          "time": 43.8,
          "velocity": 0.7874015748031497
        },
        {
          "duration": 0.46000000000000085,
          "durationTicks": 368,
          "midi": 72,
          "name": "C5",
          "ticks": 35040,
          "time": 43.8,
          "velocity": 0.7874015748031497
        },
        {
          "duration": 0.46000000000000085,
          "durationTicks": 368,
          "midi": 67,
          "name": "G4",
          "ticks": 35040,
          "time": 43.8,
          "velocity": 0.7874015748031497
        },
        {
          "duration": 0.09000000000000341,
          "durationTicks": 72,
          "midi": 74,
          "name": "D5",
          "ticks": 35440,
          "time": 44.3,
          "velocity": 0.7874015748031497
        },
        {
          "duration": 0.09000000000000341,
          "durationTicks": 72,
          "midi": 71,
          "name": "B4",
          "ticks": 35440,
          "time": 44.3,
          "velocity": 0.7874015748031497
        },
        {
          "duration": 0.09000000000000341,
          "durationTicks": 72,
          "midi": 66,
          "name": "F#4",
          "ticks": 35440,
          "time": 44.3,
          "velocity": 0.7874015748031497
        },
        {
          "duration": 0.46000000000000085,
          "durationTicks": 368,
          "midi": 74,
          "name": "D5",
          "ticks": 36000,
          "time": 45,
          "velocity": 0.7874015748031497
        },
        {
          "duration": 0.46000000000000085,
          "durationTicks": 368,
          "midi": 71,
          "name": "B4",
          "ticks": 36000,
          "time": 45,
          "velocity": 0.7874015748031497
        },
        {
          "duration": 0.46000000000000085,
          "durationTicks": 368,
          "midi": 66,
          "name": "F#4",
          "ticks": 36000,
          "time": 45,
          "velocity": 0.7874015748031497
        },
        {
          "duration": 0.09000000000000341,
          "durationTicks": 72,
          "midi": 72,
          "name": "C5",
          "ticks": 36400,
          "time": 45.49999999999999,
          "velocity": 0.7874015748031497
        },
        {
          "duration": 0.09000000000000341,
          "durationTicks": 72,
          "midi": 69,
          "name": "A4",
          "ticks": 36400,
          "time": 45.49999999999999,
          "velocity": 0.7874015748031497
        },
        {
          "duration": 0.09000000000000341,
          "durationTicks": 72,
          "midi": 64,
          "name": "E4",
          "ticks": 36400,
          "time": 45.49999999999999,
          "velocity": 0.7874015748031497
        },
        {
          "duration": 0.17999999999999972,
          "durationTicks": 144,
          "midi": 72,
          "name": "C5",
          "ticks": 37200,
          "time": 46.5,
          "velocity": 0.7874015748031497
        },
        {
          "duration": 0.17999999999999972,
          "durationTicks": 144,
          "midi": 64,
          "name": "E4",
          "ticks": 37200,
          "time": 46.5,
          "velocity": 0.7874015748031497
        },
        {
          "duration": 0.17999999999999972,
          "durationTicks": 144,
          "midi": 69,
          "name": "A4",
          "ticks": 37200,
          "time": 46.5,
          "velocity": 0.7874015748031497
        },
        {
          "duration": 0.09000000000000341,
          "durationTicks": 72,
          "midi": 74,
          "name": "D5",
          "ticks": 37360,
          "time": 46.699999999999996,
          "velocity": 0.7874015748031497
        },
        {
          "duration": 0.18000000000000682,
          "durationTicks": 144,
          "midi": 66,
          "name": "F#4",
          "ticks": 37360,
          "time": 46.699999999999996,
          "velocity": 0.7874015748031497
        },
        {
          "duration": 0.09000000000000341,
          "durationTicks": 72,
          "midi": 71,
          "name": "B4",
          "ticks": 37360,
          "time": 46.699999999999996,
          "velocity": 0.7874015748031497
        },
        {
          "duration": 0.17999999999999972,
          "durationTicks": 144,
          "midi": 76,
          "name": "E5",
          "ticks": 37440,
          "time": 46.8,
          "velocity": 0.7874015748031497
        },
        {
          "duration": 0.17999999999999972,
          "durationTicks": 144,
          "midi": 67,
          "name": "G4",
          "ticks": 37440,
          "time": 46.8,
          "velocity": 0.7874015748031497
        },
        {
          "duration": 0.17999999999999972,
          "durationTicks": 144,
          "midi": 72,
          "name": "C5",
          "ticks": 37440,
          "time": 46.8,
          "velocity": 0.7874015748031497
        },
        {
          "duration": 0.1799999999999926,
          "durationTicks": 144,
          "midi": 76,
          "name": "E5",
          "ticks": 37680,
          "time": 47.1,
          "velocity": 0.7874015748031497
        },
        {
          "duration": 0.1799999999999926,
          "durationTicks": 144,
          "midi": 67,
          "name": "G4",
          "ticks": 37680,
          "time": 47.1,
          "velocity": 0.7874015748031497
        },
        {
          "duration": 0.1799999999999926,
          "durationTicks": 144,
          "midi": 72,
          "name": "C5",
          "ticks": 37680,
          "time": 47.1,
          "velocity": 0.7874015748031497
        },
        {
          "duration": 0.09000000000000341,
          "durationTicks": 72,
          "midi": 74,
          "name": "D5",
          "ticks": 37840,
          "time": 47.3,
          "velocity": 0.7874015748031497
        },
        {
          "duration": 0.09000000000000341,
          "durationTicks": 72,
          "midi": 66,
          "name": "F#4",
          "ticks": 37840,
          "time": 47.3,
          "velocity": 0.7874015748031497
        },
        {
          "duration": 0.09000000000000341,
          "durationTicks": 72,
          "midi": 71,
          "name": "B4",
          "ticks": 37840,
          "time": 47.3,
          "velocity": 0.7874015748031497
        },
        {
          "duration": 0.09000000000000341,
          "durationTicks": 72,
          "midi": 74,
          "name": "D5",
          "ticks": 38080,
          "time": 47.599999999999994,
          "velocity": 0.7874015748031497
        },
        {
          "duration": 0.6000000000000014,
          "durationTicks": 480,
          "midi": 66,
          "name": "F#4",
          "ticks": 38080,
          "time": 47.599999999999994,
          "velocity": 0.7874015748031497
        },
        {
          "duration": 0.6000000000000014,
          "durationTicks": 480,
          "midi": 71,
          "name": "B4",
          "ticks": 38080,
          "time": 47.599999999999994,
          "velocity": 0.7874015748031497
        },
        {
          "duration": 0.5,
          "durationTicks": 400,
          "midi": 74,
          "name": "D5",
          "ticks": 38160,
          "time": 47.699999999999996,
          "velocity": 0.7874015748031497
        },
        {
          "duration": 0.09000000000000341,
          "durationTicks": 72,
          "midi": 72,
          "name": "C5",
          "ticks": 38560,
          "time": 48.199999999999996,
          "velocity": 0.7874015748031497
        },
        {
          "duration": 0.09000000000000341,
          "durationTicks": 72,
          "midi": 64,
          "name": "E4",
          "ticks": 38560,
          "time": 48.199999999999996,
          "velocity": 0.7874015748031497
        },
        {
          "duration": 0.09000000000000341,
          "durationTicks": 72,
          "midi": 69,
          "name": "A4",
          "ticks": 38560,
          "time": 48.199999999999996,
          "velocity": 0.7874015748031497
        },
        {
          "duration": 0.17999999999999972,
          "durationTicks": 144,
          "midi": 72,
          "name": "C5",
          "ticks": 38640,
          "time": 48.3,
          "velocity": 0.7874015748031497
        },
        {
          "duration": 0.09000000000000341,
          "durationTicks": 72,
          "midi": 64,
          "name": "E4",
          "ticks": 38640,
          "time": 48.3,
          "velocity": 0.7874015748031497
        },
        {
          "duration": 0.09000000000000341,
          "durationTicks": 72,
          "midi": 69,
          "name": "A4",
          "ticks": 38640,
          "time": 48.3,
          "velocity": 0.7874015748031497
        },
        {
          "duration": 0.17999999999999972,
          "durationTicks": 144,
          "midi": 74,
          "name": "D5",
          "ticks": 40560,
          "time": 50.699999999999996,
          "velocity": 0.7874015748031497
        },
        {
          "duration": 0.17999999999999972,
          "durationTicks": 144,
          "midi": 66,
          "name": "F#4",
          "ticks": 40560,
          "time": 50.699999999999996,
          "velocity": 0.7874015748031497
        },
        {
          "duration": 0.17999999999999972,
          "durationTicks": 144,
          "midi": 71,
          "name": "B4",
          "ticks": 40560,
          "time": 50.699999999999996,
          "velocity": 0.7874015748031497
        },
        {
          "duration": 0.09000000000000341,
          "durationTicks": 72,
          "midi": 74,
          "name": "D5",
          "ticks": 40720,
          "time": 50.9,
          "velocity": 0.7874015748031497
        },
        {
          "duration": 0.09000000000000341,
          "durationTicks": 72,
          "midi": 66,
          "name": "F#4",
          "ticks": 40720,
          "time": 50.9,
          "velocity": 0.7874015748031497
        },
        {
          "duration": 0.09000000000000341,
          "durationTicks": 72,
          "midi": 71,
          "name": "B4",
          "ticks": 40720,
          "time": 50.9,
          "velocity": 0.7874015748031497
        },
        {
          "duration": 0.46000000000000085,
          "durationTicks": 368,
          "midi": 76,
          "name": "E5",
          "ticks": 42720,
          "time": 53.4,
          "velocity": 0.7874015748031497
        },
        {
          "duration": 0.46000000000000085,
          "durationTicks": 368,
          "midi": 72,
          "name": "C5",
          "ticks": 42720,
          "time": 53.4,
          "velocity": 0.7874015748031497
        },
        {
          "duration": 0.46000000000000085,
          "durationTicks": 368,
          "midi": 67,
          "name": "G4",
          "ticks": 42720,
          "time": 53.4,
          "velocity": 0.7874015748031497
        },
        {
          "duration": 0.09000000000000341,
          "durationTicks": 72,
          "midi": 74,
          "name": "D5",
          "ticks": 43120,
          "time": 53.9,
          "velocity": 0.7874015748031497
        },
        {
          "duration": 0.09000000000000341,
          "durationTicks": 72,
          "midi": 71,
          "name": "B4",
          "ticks": 43120,
          "time": 53.9,
          "velocity": 0.7874015748031497
        },
        {
          "duration": 0.09000000000000341,
          "durationTicks": 72,
          "midi": 66,
          "name": "F#4",
          "ticks": 43120,
          "time": 53.9,
          "velocity": 0.7874015748031497
        },
        {
          "duration": 0.45999999999999375,
          "durationTicks": 368,
          "midi": 74,
          "name": "D5",
          "ticks": 43680,
          "time": 54.6,
          "velocity": 0.7874015748031497
        },
        {
          "duration": 0.45999999999999375,
          "durationTicks": 368,
          "midi": 71,
          "name": "B4",
          "ticks": 43680,
          "time": 54.6,
          "velocity": 0.7874015748031497
        },
        {
          "duration": 0.45999999999999375,
          "durationTicks": 368,
          "midi": 66,
          "name": "F#4",
          "ticks": 43680,
          "time": 54.6,
          "velocity": 0.7874015748031497
        },
        {
          "duration": 0.09000000000000341,
          "durationTicks": 72,
          "midi": 72,
          "name": "C5",
          "ticks": 44080,
          "time": 55.099999999999994,
          "velocity": 0.7874015748031497
        },
        {
          "duration": 0.09000000000000341,
          "durationTicks": 72,
          "midi": 69,
          "name": "A4",
          "ticks": 44080,
          "time": 55.099999999999994,
          "velocity": 0.7874015748031497
        },
        {
          "duration": 0.09000000000000341,
          "durationTicks": 72,
          "midi": 64,
          "name": "E4",
          "ticks": 44080,
          "time": 55.099999999999994,
          "velocity": 0.7874015748031497
        },
        {
          "duration": 0.1799999999999926,
          "durationTicks": 144,
          "midi": 72,
          "name": "C5",
          "ticks": 44880,
          "time": 56.1,
          "velocity": 0.7874015748031497
        },
        {
          "duration": 0.1799999999999926,
          "durationTicks": 144,
          "midi": 64,
          "name": "E4",
          "ticks": 44880,
          "time": 56.1,
          "velocity": 0.7874015748031497
        },
        {
          "duration": 0.1799999999999926,
          "durationTicks": 144,
          "midi": 69,
          "name": "A4",
          "ticks": 44880,
          "time": 56.1,
          "velocity": 0.7874015748031497
        },
        {
          "duration": 0.09000000000000341,
          "durationTicks": 72,
          "midi": 74,
          "name": "D5",
          "ticks": 45040,
          "time": 56.3,
          "velocity": 0.7874015748031497
        },
        {
          "duration": 0.18000000000000682,
          "durationTicks": 144,
          "midi": 66,
          "name": "F#4",
          "ticks": 45040,
          "time": 56.3,
          "velocity": 0.7874015748031497
        },
        {
          "duration": 0.09000000000000341,
          "durationTicks": 72,
          "midi": 71,
          "name": "B4",
          "ticks": 45040,
          "time": 56.3,
          "velocity": 0.7874015748031497
        },
        {
          "duration": 0.17999999999999972,
          "durationTicks": 144,
          "midi": 76,
          "name": "E5",
          "ticks": 45120,
          "time": 56.4,
          "velocity": 0.7874015748031497
        },
        {
          "duration": 0.17999999999999972,
          "durationTicks": 144,
          "midi": 67,
          "name": "G4",
          "ticks": 45120,
          "time": 56.4,
          "velocity": 0.7874015748031497
        },
        {
          "duration": 0.17999999999999972,
          "durationTicks": 144,
          "midi": 72,
          "name": "C5",
          "ticks": 45120,
          "time": 56.4,
          "velocity": 0.7874015748031497
        },
        {
          "duration": 0.17999999999999972,
          "durationTicks": 144,
          "midi": 76,
          "name": "E5",
          "ticks": 45360,
          "time": 56.699999999999996,
          "velocity": 0.7874015748031497
        },
        {
          "duration": 0.17999999999999972,
          "durationTicks": 144,
          "midi": 67,
          "name": "G4",
          "ticks": 45360,
          "time": 56.699999999999996,
          "velocity": 0.7874015748031497
        },
        {
          "duration": 0.17999999999999972,
          "durationTicks": 144,
          "midi": 72,
          "name": "C5",
          "ticks": 45360,
          "time": 56.699999999999996,
          "velocity": 0.7874015748031497
        },
        {
          "duration": 0.09000000000000341,
          "durationTicks": 72,
          "midi": 74,
          "name": "D5",
          "ticks": 45520,
          "time": 56.9,
          "velocity": 0.7874015748031497
        },
        {
          "duration": 0.09000000000000341,
          "durationTicks": 72,
          "midi": 66,
          "name": "F#4",
          "ticks": 45520,
          "time": 56.9,
          "velocity": 0.7874015748031497
        },
        {
          "duration": 0.09000000000000341,
          "durationTicks": 72,
          "midi": 71,
          "name": "B4",
          "ticks": 45520,
          "time": 56.9,
          "velocity": 0.7874015748031497
        },
        {
          "duration": 0.09000000000000341,
          "durationTicks": 72,
          "midi": 74,
          "name": "D5",
          "ticks": 45760,
          "time": 57.199999999999996,
          "velocity": 0.7874015748031497
        },
        {
          "duration": 0.6000000000000014,
          "durationTicks": 480,
          "midi": 66,
          "name": "F#4",
          "ticks": 45760,
          "time": 57.199999999999996,
          "velocity": 0.7874015748031497
        },
        {
          "duration": 0.6000000000000014,
          "durationTicks": 480,
          "midi": 71,
          "name": "B4",
          "ticks": 45760,
          "time": 57.199999999999996,
          "velocity": 0.7874015748031497
        },
        {
          "duration": 0.5,
          "durationTicks": 400,
          "midi": 74,
          "name": "D5",
          "ticks": 45840,
          "time": 57.3,
          "velocity": 0.7874015748031497
        },
        {
          "duration": 0.09000000000000341,
          "durationTicks": 72,
          "midi": 72,
          "name": "C5",
          "ticks": 46240,
          "time": 57.8,
          "velocity": 0.7874015748031497
        },
        {
          "duration": 0.09000000000000341,
          "durationTicks": 72,
          "midi": 64,
          "name": "E4",
          "ticks": 46240,
          "time": 57.8,
          "velocity": 0.7874015748031497
        },
        {
          "duration": 0.09000000000000341,
          "durationTicks": 72,
          "midi": 69,
          "name": "A4",
          "ticks": 46240,
          "time": 57.8,
          "velocity": 0.7874015748031497
        },
        {
          "duration": 0.17999999999999972,
          "durationTicks": 144,
          "midi": 72,
          "name": "C5",
          "ticks": 46320,
          "time": 57.9,
          "velocity": 0.7874015748031497
        },
        {
          "duration": 0.09000000000000341,
          "durationTicks": 72,
          "midi": 64,
          "name": "E4",
          "ticks": 46320,
          "time": 57.9,
          "velocity": 0.7874015748031497
        },
        {
          "duration": 0.09000000000000341,
          "durationTicks": 72,
          "midi": 69,
          "name": "A4",
          "ticks": 46320,
          "time": 57.9,
          "velocity": 0.7874015748031497
        },
        {
          "duration": 0.2700000000000031,
          "durationTicks": 216,
          "midi": 72,
          "name": "C5",
          "ticks": 48960,
          "time": 61.199999999999996,
          "velocity": 0.7874015748031497
        },
        {
          "duration": 0.17999999999999972,
          "durationTicks": 144,
          "midi": 76,
          "name": "E5",
          "ticks": 48960,
          "time": 61.199999999999996,
          "velocity": 0.7874015748031497
        },
        {
          "duration": 0.09000000000000341,
          "durationTicks": 72,
          "midi": 75,
          "name": "D#5",
          "ticks": 49120,
          "time": 61.39999999999999,
          "velocity": 0.7874015748031497
        },
        {
          "duration": 0.09000000000000341,
          "durationTicks": 72,
          "midi": 78,
          "name": "F#5",
          "ticks": 49120,
          "time": 61.39999999999999,
          "velocity": 0.7874015748031497
        },
        {
          "duration": 0.1799999999999926,
          "durationTicks": 144,
          "midi": 76,
          "name": "E5",
          "ticks": 49200,
          "time": 61.5,
          "velocity": 0.7874015748031497
        },
        {
          "duration": 0.1799999999999926,
          "durationTicks": 144,
          "midi": 79,
          "name": "G5",
          "ticks": 49200,
          "time": 61.5,
          "velocity": 0.7874015748031497
        },
        {
          "duration": 0.09000000000000341,
          "durationTicks": 72,
          "midi": 78,
          "name": "F#5",
          "ticks": 49360,
          "time": 61.699999999999996,
          "velocity": 0.7874015748031497
        },
        {
          "duration": 0.09000000000000341,
          "durationTicks": 72,
          "midi": 81,
          "name": "A5",
          "ticks": 49360,
          "time": 61.699999999999996,
          "velocity": 0.7874015748031497
        },
        {
          "duration": 0.09000000000000341,
          "durationTicks": 72,
          "midi": 76,
          "name": "E5",
          "ticks": 49440,
          "time": 61.8,
          "velocity": 0.7874015748031497
        },
        {
          "duration": 0.09000000000000341,
          "durationTicks": 72,
          "midi": 79,
          "name": "G5",
          "ticks": 49440,
          "time": 61.8,
          "velocity": 0.7874015748031497
        },
        {
          "duration": 0.0899999999999963,
          "durationTicks": 72,
          "midi": 77,
          "name": "F5",
          "ticks": 49520,
          "time": 61.9,
          "velocity": 0.7874015748031497
        },
        {
          "duration": 0.0899999999999963,
          "durationTicks": 72,
          "midi": 81,
          "name": "A5",
          "ticks": 49520,
          "time": 61.9,
          "velocity": 0.7874015748031497
        },
        {
          "duration": 0.09000000000000341,
          "durationTicks": 72,
          "midi": 79,
          "name": "G5",
          "ticks": 49600,
          "time": 61.99999999999999,
          "velocity": 0.7874015748031497
        },
        {
          "duration": 0.09000000000000341,
          "durationTicks": 72,
          "midi": 83,
          "name": "B5",
          "ticks": 49600,
          "time": 61.99999999999999,
          "velocity": 0.7874015748031497
        },
        {
          "duration": 0.09000000000000341,
          "durationTicks": 72,
          "midi": 81,
          "name": "A5",
          "ticks": 49680,
          "time": 62.099999999999994,
          "velocity": 0.7874015748031497
        },
        {
          "duration": 0.09000000000000341,
          "durationTicks": 72,
          "midi": 84,
          "name": "C6",
          "ticks": 49680,
          "time": 62.099999999999994,
          "velocity": 0.7874015748031497
        },
        {
          "duration": 0.0899999999999892,
          "durationTicks": 72,
          "midi": 83,
          "name": "B5",
          "ticks": 49760,
          "time": 62.2,
          "velocity": 0.7874015748031497
        },
        {
          "duration": 0.0899999999999892,
          "durationTicks": 72,
          "midi": 86,
          "name": "D6",
          "ticks": 49760,
          "time": 62.2,
          "velocity": 0.7874015748031497
        },
        {
          "duration": 0.09000000000000341,
          "durationTicks": 72,
          "midi": 84,
          "name": "C6",
          "ticks": 49840,
          "time": 62.3,
          "velocity": 0.7874015748031497
        },
        {
          "duration": 0.09000000000000341,
          "durationTicks": 72,
          "midi": 87,
          "name": "D#6",
          "ticks": 49840,
          "time": 62.3,
          "velocity": 0.7874015748031497
        },
        {
          "duration": 0.10249999999999915,
          "durationTicks": 82,
          "midi": 72,
          "name": "C5",
          "ticks": 50160,
          "time": 62.699999999999996,
          "velocity": 0.7874015748031497
        },
        {
          "duration": 0.10249999999999915,
          "durationTicks": 82,
          "midi": 64,
          "name": "E4",
          "ticks": 50160,
          "time": 62.699999999999996,
          "velocity": 0.7874015748031497
        },
        {
          "duration": 0.10249999999999915,
          "durationTicks": 82,
          "midi": 69,
          "name": "A4",
          "ticks": 50160,
          "time": 62.699999999999996,
          "velocity": 0.7874015748031497
        },
        {
          "duration": 0.10249999999999915,
          "durationTicks": 82,
          "midi": 72,
          "name": "C5",
          "ticks": 50560,
          "time": 63.199999999999996,
          "velocity": 0.7874015748031497
        },
        {
          "duration": 0.10249999999999915,
          "durationTicks": 82,
          "midi": 64,
          "name": "E4",
          "ticks": 50560,
          "time": 63.199999999999996,
          "velocity": 0.7874015748031497
        },
        {
          "duration": 0.10249999999999915,
          "durationTicks": 82,
          "midi": 69,
          "name": "A4",
          "ticks": 50560,
          "time": 63.199999999999996,
          "velocity": 0.7874015748031497
        },
        {
          "duration": 0.10250000000000625,
          "durationTicks": 82,
          "midi": 72,
          "name": "C5",
          "ticks": 50880,
          "time": 63.599999999999994,
          "velocity": 0.7874015748031497
        },
        {
          "duration": 0.10250000000000625,
          "durationTicks": 82,
          "midi": 64,
          "name": "E4",
          "ticks": 50880,
          "time": 63.599999999999994,
          "velocity": 0.7874015748031497
        },
        {
          "duration": 0.10250000000000625,
          "durationTicks": 82,
          "midi": 69,
          "name": "A4",
          "ticks": 50880,
          "time": 63.599999999999994,
          "velocity": 0.7874015748031497
        },
        {
          "duration": 0.10250000000000625,
          "durationTicks": 82,
          "midi": 71,
          "name": "B4",
          "ticks": 52080,
          "time": 65.1,
          "velocity": 0.7874015748031497
        },
        {
          "duration": 0.10250000000000625,
          "durationTicks": 82,
          "midi": 62,
          "name": "D4",
          "ticks": 52080,
          "time": 65.1,
          "velocity": 0.7874015748031497
        },
        {
          "duration": 0.10250000000000625,
          "durationTicks": 82,
          "midi": 67,
          "name": "G4",
          "ticks": 52080,
          "time": 65.1,
          "velocity": 0.7874015748031497
        },
        {
          "duration": 0.10250000000000625,
          "durationTicks": 82,
          "midi": 71,
          "name": "B4",
          "ticks": 52480,
          "time": 65.6,
          "velocity": 0.7874015748031497
        },
        {
          "duration": 0.10250000000000625,
          "durationTicks": 82,
          "midi": 62,
          "name": "D4",
          "ticks": 52480,
          "time": 65.6,
          "velocity": 0.7874015748031497
        },
        {
          "duration": 0.10250000000000625,
          "durationTicks": 82,
          "midi": 67,
          "name": "G4",
          "ticks": 52480,
          "time": 65.6,
          "velocity": 0.7874015748031497
        },
        {
          "duration": 0.10249999999999204,
          "durationTicks": 82,
          "midi": 71,
          "name": "B4",
          "ticks": 52800,
          "time": 66,
          "velocity": 0.7874015748031497
        },
        {
          "duration": 0.10249999999999204,
          "durationTicks": 82,
          "midi": 62,
          "name": "D4",
          "ticks": 52800,
          "time": 66,
          "velocity": 0.7874015748031497
        },
        {
          "duration": 0.10249999999999204,
          "durationTicks": 82,
          "midi": 67,
          "name": "G4",
          "ticks": 52800,
          "time": 66,
          "velocity": 0.7874015748031497
        },
        {
          "duration": 0.10249999999999204,
          "durationTicks": 82,
          "midi": 72,
          "name": "C5",
          "ticks": 54000,
          "time": 67.5,
          "velocity": 0.7874015748031497
        },
        {
          "duration": 0.10249999999999204,
          "durationTicks": 82,
          "midi": 64,
          "name": "E4",
          "ticks": 54000,
          "time": 67.5,
          "velocity": 0.7874015748031497
        },
        {
          "duration": 0.10249999999999204,
          "durationTicks": 82,
          "midi": 69,
          "name": "A4",
          "ticks": 54000,
          "time": 67.5,
          "velocity": 0.7874015748031497
        },
        {
          "duration": 0.10249999999999204,
          "durationTicks": 82,
          "midi": 72,
          "name": "C5",
          "ticks": 54400,
          "time": 68,
          "velocity": 0.7874015748031497
        },
        {
          "duration": 0.10249999999999204,
          "durationTicks": 82,
          "midi": 64,
          "name": "E4",
          "ticks": 54400,
          "time": 68,
          "velocity": 0.7874015748031497
        },
        {
          "duration": 0.10249999999999204,
          "durationTicks": 82,
          "midi": 69,
          "name": "A4",
          "ticks": 54400,
          "time": 68,
          "velocity": 0.7874015748031497
        },
        {
          "duration": 0.10250000000000625,
          "durationTicks": 82,
          "midi": 72,
          "name": "C5",
          "ticks": 54720,
          "time": 68.39999999999999,
          "velocity": 0.7874015748031497
        },
        {
          "duration": 0.10250000000000625,
          "durationTicks": 82,
          "midi": 64,
          "name": "E4",
          "ticks": 54720,
          "time": 68.39999999999999,
          "velocity": 0.7874015748031497
        },
        {
          "duration": 0.10250000000000625,
          "durationTicks": 82,
          "midi": 69,
          "name": "A4",
          "ticks": 54720,
          "time": 68.39999999999999,
          "velocity": 0.7874015748031497
        },
        {
          "duration": 0.10250000000000625,
          "durationTicks": 82,
          "midi": 74,
          "name": "D5",
          "ticks": 55920,
          "time": 69.89999999999999,
          "velocity": 0.7874015748031497
        },
        {
          "duration": 0.10250000000000625,
          "durationTicks": 82,
          "midi": 66,
          "name": "F#4",
          "ticks": 55920,
          "time": 69.89999999999999,
          "velocity": 0.7874015748031497
        },
        {
          "duration": 0.10250000000000625,
          "durationTicks": 82,
          "midi": 71,
          "name": "B4",
          "ticks": 55920,
          "time": 69.89999999999999,
          "velocity": 0.7874015748031497
        },
        {
          "duration": 0.10250000000000625,
          "durationTicks": 82,
          "midi": 74,
          "name": "D5",
          "ticks": 56320,
          "time": 70.39999999999999,
          "velocity": 0.7874015748031497
        },
        {
          "duration": 0.10250000000000625,
          "durationTicks": 82,
          "midi": 66,
          "name": "F#4",
          "ticks": 56320,
          "time": 70.39999999999999,
          "velocity": 0.7874015748031497
        },
        {
          "duration": 0.10250000000000625,
          "durationTicks": 82,
          "midi": 71,
          "name": "B4",
          "ticks": 56320,
          "time": 70.39999999999999,
          "velocity": 0.7874015748031497
        },
        {
          "duration": 0.09000000000000341,
          "durationTicks": 72,
          "midi": 66,
          "name": "F#4",
          "ticks": 56640,
          "time": 70.8,
          "velocity": 0.7874015748031497
        },
        {
          "duration": 0.09000000000000341,
          "durationTicks": 72,
          "midi": 74,
          "name": "D5",
          "ticks": 56640,
          "time": 70.8,
          "velocity": 0.7874015748031497
        },
        {
          "duration": 0.09000000000000341,
          "durationTicks": 72,
          "midi": 71,
          "name": "B4",
          "ticks": 56640,
          "time": 70.8,
          "velocity": 0.7874015748031497
        },
        {
          "duration": 0.09000000000000341,
          "durationTicks": 72,
          "midi": 74,
          "name": "D5",
          "ticks": 56880,
          "time": 71.1,
          "velocity": 0.7874015748031497
        },
        {
          "duration": 0.09000000000000341,
          "durationTicks": 72,
          "midi": 66,
          "name": "F#4",
          "ticks": 56880,
          "time": 71.1,
          "velocity": 0.7874015748031497
        },
        {
          "duration": 0.09000000000000341,
          "durationTicks": 72,
          "midi": 71,
          "name": "B4",
          "ticks": 56880,
          "time": 71.1,
          "velocity": 0.7874015748031497
        },
        {
          "duration": 0.10250000000000625,
          "durationTicks": 82,
          "midi": 72,
          "name": "C5",
          "ticks": 57840,
          "time": 72.3,
          "velocity": 0.7874015748031497
        },
        {
          "duration": 0.10250000000000625,
          "durationTicks": 82,
          "midi": 64,
          "name": "E4",
          "ticks": 57840,
          "time": 72.3,
          "velocity": 0.7874015748031497
        },
        {
          "duration": 0.10250000000000625,
          "durationTicks": 82,
          "midi": 69,
          "name": "A4",
          "ticks": 57840,
          "time": 72.3,
          "velocity": 0.7874015748031497
        },
        {
          "duration": 0.10249999999999204,
          "durationTicks": 82,
          "midi": 72,
          "name": "C5",
          "ticks": 58240,
          "time": 72.8,
          "velocity": 0.7874015748031497
        },
        {
          "duration": 0.10249999999999204,
          "durationTicks": 82,
          "midi": 64,
          "name": "E4",
          "ticks": 58240,
          "time": 72.8,
          "velocity": 0.7874015748031497
        },
        {
          "duration": 0.10249999999999204,
          "durationTicks": 82,
          "midi": 69,
          "name": "A4",
          "ticks": 58240,
          "time": 72.8,
          "velocity": 0.7874015748031497
        },
        {
          "duration": 0.10249999999999204,
          "durationTicks": 82,
          "midi": 72,
          "name": "C5",
          "ticks": 58560,
          "time": 73.2,
          "velocity": 0.7874015748031497
        },
        {
          "duration": 0.10249999999999204,
          "durationTicks": 82,
          "midi": 64,
          "name": "E4",
          "ticks": 58560,
          "time": 73.2,
          "velocity": 0.7874015748031497
        },
        {
          "duration": 0.10249999999999204,
          "durationTicks": 82,
          "midi": 69,
          "name": "A4",
          "ticks": 58560,
          "time": 73.2,
          "velocity": 0.7874015748031497
        },
        {
          "duration": 0.10249999999999204,
          "durationTicks": 82,
          "midi": 71,
          "name": "B4",
          "ticks": 59760,
          "time": 74.7,
          "velocity": 0.7874015748031497
        },
        {
          "duration": 0.10249999999999204,
          "durationTicks": 82,
          "midi": 62,
          "name": "D4",
          "ticks": 59760,
          "time": 74.7,
          "velocity": 0.7874015748031497
        },
        {
          "duration": 0.10249999999999204,
          "durationTicks": 82,
          "midi": 67,
          "name": "G4",
          "ticks": 59760,
          "time": 74.7,
          "velocity": 0.7874015748031497
        },
        {
          "duration": 0.10250000000000625,
          "durationTicks": 82,
          "midi": 71,
          "name": "B4",
          "ticks": 60160,
          "time": 75.19999999999999,
          "velocity": 0.7874015748031497
        },
        {
          "duration": 0.10250000000000625,
          "durationTicks": 82,
          "midi": 62,
          "name": "D4",
          "ticks": 60160,
          "time": 75.19999999999999,
          "velocity": 0.7874015748031497
        },
        {
          "duration": 0.10250000000000625,
          "durationTicks": 82,
          "midi": 67,
          "name": "G4",
          "ticks": 60160,
          "time": 75.19999999999999,
          "velocity": 0.7874015748031497
        },
        {
          "duration": 0.10250000000000625,
          "durationTicks": 82,
          "midi": 71,
          "name": "B4",
          "ticks": 60480,
          "time": 75.6,
          "velocity": 0.7874015748031497
        },
        {
          "duration": 0.10250000000000625,
          "durationTicks": 82,
          "midi": 62,
          "name": "D4",
          "ticks": 60480,
          "time": 75.6,
          "velocity": 0.7874015748031497
        },
        {
          "duration": 0.10250000000000625,
          "durationTicks": 82,
          "midi": 67,
          "name": "G4",
          "ticks": 60480,
          "time": 75.6,
          "velocity": 0.7874015748031497
        },
        {
          "duration": 0.10249999999999204,
          "durationTicks": 82,
          "midi": 72,
          "name": "C5",
          "ticks": 61680,
          "time": 77.1,
          "velocity": 0.7874015748031497
        },
        {
          "duration": 0.10249999999999204,
          "durationTicks": 82,
          "midi": 64,
          "name": "E4",
          "ticks": 61680,
          "time": 77.1,
          "velocity": 0.7874015748031497
        },
        {
          "duration": 0.10249999999999204,
          "durationTicks": 82,
          "midi": 69,
          "name": "A4",
          "ticks": 61680,
          "time": 77.1,
          "velocity": 0.7874015748031497
        },
        {
          "duration": 0.10249999999999204,
          "durationTicks": 82,
          "midi": 72,
          "name": "C5",
          "ticks": 62080,
          "time": 77.60000000000001,
          "velocity": 0.7874015748031497
        },
        {
          "duration": 0.10249999999999204,
          "durationTicks": 82,
          "midi": 64,
          "name": "E4",
          "ticks": 62080,
          "time": 77.60000000000001,
          "velocity": 0.7874015748031497
        },
        {
          "duration": 0.10249999999999204,
          "durationTicks": 82,
          "midi": 69,
          "name": "A4",
          "ticks": 62080,
          "time": 77.60000000000001,
          "velocity": 0.7874015748031497
        },
        {
          "duration": 0.10249999999999204,
          "durationTicks": 82,
          "midi": 72,
          "name": "C5",
          "ticks": 62400,
          "time": 78,
          "velocity": 0.7874015748031497
        },
        {
          "duration": 0.10249999999999204,
          "durationTicks": 82,
          "midi": 64,
          "name": "E4",
          "ticks": 62400,
          "time": 78,
          "velocity": 0.7874015748031497
        },
        {
          "duration": 0.10249999999999204,
          "durationTicks": 82,
          "midi": 69,
          "name": "A4",
          "ticks": 62400,
          "time": 78,
          "velocity": 0.7874015748031497
        },
        {
          "duration": 0.480000000000004,
          "durationTicks": 384,
          "midi": 71,
          "name": "B4",
          "ticks": 63360,
          "time": 79.2,
          "velocity": 0.7874015748031497
        },
        {
          "duration": 0.480000000000004,
          "durationTicks": 384,
          "midi": 66,
          "name": "F#4",
          "ticks": 63360,
          "time": 79.2,
          "velocity": 0.7874015748031497
        },
        {
          "duration": 0.480000000000004,
          "durationTicks": 384,
          "midi": 76,
          "name": "E5",
          "ticks": 63360,
          "time": 79.2,
          "velocity": 0.7874015748031497
        },
        {
          "duration": 0.10249999999999204,
          "durationTicks": 82,
          "midi": 76,
          "name": "E5",
          "ticks": 63760,
          "time": 79.7,
          "velocity": 0.7874015748031497
        },
        {
          "duration": 0.0899999999999892,
          "durationTicks": 72,
          "midi": 66,
          "name": "F#4",
          "ticks": 63760,
          "time": 79.7,
          "velocity": 0.7874015748031497
        },
        {
          "duration": 0.10249999999999204,
          "durationTicks": 82,
          "midi": 71,
          "name": "B4",
          "ticks": 63760,
          "time": 79.7,
          "velocity": 0.7874015748031497
        },
        {
          "duration": 0.46000000000000796,
          "durationTicks": 368,
          "midi": 76,
          "name": "E5",
          "ticks": 65760,
          "time": 82.2,
          "velocity": 0.7874015748031497
        },
        {
          "duration": 0.46000000000000796,
          "durationTicks": 368,
          "midi": 72,
          "name": "C5",
          "ticks": 65760,
          "time": 82.2,
          "velocity": 0.7874015748031497
        },
        {
          "duration": 0.46000000000000796,
          "durationTicks": 368,
          "midi": 67,
          "name": "G4",
          "ticks": 65760,
          "time": 82.2,
          "velocity": 0.7874015748031497
        },
        {
          "duration": 0.0899999999999892,
          "durationTicks": 72,
          "midi": 74,
          "name": "D5",
          "ticks": 66160,
          "time": 82.7,
          "velocity": 0.7874015748031497
        },
        {
          "duration": 0.0899999999999892,
          "durationTicks": 72,
          "midi": 71,
          "name": "B4",
          "ticks": 66160,
          "time": 82.7,
          "velocity": 0.7874015748031497
        },
        {
          "duration": 0.0899999999999892,
          "durationTicks": 72,
          "midi": 66,
          "name": "F#4",
          "ticks": 66160,
          "time": 82.7,
          "velocity": 0.7874015748031497
        },
        {
          "duration": 0.46000000000000796,
          "durationTicks": 368,
          "midi": 74,
          "name": "D5",
          "ticks": 66720,
          "time": 83.39999999999999,
          "velocity": 0.7874015748031497
        },
        {
          "duration": 0.46000000000000796,
          "durationTicks": 368,
          "midi": 71,
          "name": "B4",
          "ticks": 66720,
          "time": 83.39999999999999,
          "velocity": 0.7874015748031497
        },
        {
          "duration": 0.46000000000000796,
          "durationTicks": 368,
          "midi": 66,
          "name": "F#4",
          "ticks": 66720,
          "time": 83.39999999999999,
          "velocity": 0.7874015748031497
        },
        {
          "duration": 0.0899999999999892,
          "durationTicks": 72,
          "midi": 72,
          "name": "C5",
          "ticks": 67120,
          "time": 83.9,
          "velocity": 0.7874015748031497
        },
        {
          "duration": 0.0899999999999892,
          "durationTicks": 72,
          "midi": 69,
          "name": "A4",
          "ticks": 67120,
          "time": 83.9,
          "velocity": 0.7874015748031497
        },
        {
          "duration": 0.0899999999999892,
          "durationTicks": 72,
          "midi": 64,
          "name": "E4",
          "ticks": 67120,
          "time": 83.9,
          "velocity": 0.7874015748031497
        },
        {
          "duration": 0.18000000000000682,
          "durationTicks": 144,
          "midi": 72,
          "name": "C5",
          "ticks": 67920,
          "time": 84.89999999999999,
          "velocity": 0.7874015748031497
        },
        {
          "duration": 0.18000000000000682,
          "durationTicks": 144,
          "midi": 64,
          "name": "E4",
          "ticks": 67920,
          "time": 84.89999999999999,
          "velocity": 0.7874015748031497
        },
        {
          "duration": 0.18000000000000682,
          "durationTicks": 144,
          "midi": 69,
          "name": "A4",
          "ticks": 67920,
          "time": 84.89999999999999,
          "velocity": 0.7874015748031497
        },
        {
          "duration": 0.08999999999997499,
          "durationTicks": 72,
          "midi": 74,
          "name": "D5",
          "ticks": 68080,
          "time": 85.10000000000001,
          "velocity": 0.7874015748031497
        },
        {
          "duration": 0.1799999999999784,
          "durationTicks": 144,
          "midi": 66,
          "name": "F#4",
          "ticks": 68080,
          "time": 85.10000000000001,
          "velocity": 0.7874015748031497
        },
        {
          "duration": 0.08999999999997499,
          "durationTicks": 72,
          "midi": 71,
          "name": "B4",
          "ticks": 68080,
          "time": 85.10000000000001,
          "velocity": 0.7874015748031497
        },
        {
          "duration": 0.18000000000000682,
          "durationTicks": 144,
          "midi": 76,
          "name": "E5",
          "ticks": 68160,
          "time": 85.2,
          "velocity": 0.7874015748031497
        },
        {
          "duration": 0.18000000000000682,
          "durationTicks": 144,
          "midi": 67,
          "name": "G4",
          "ticks": 68160,
          "time": 85.2,
          "velocity": 0.7874015748031497
        },
        {
          "duration": 0.18000000000000682,
          "durationTicks": 144,
          "midi": 72,
          "name": "C5",
          "ticks": 68160,
          "time": 85.2,
          "velocity": 0.7874015748031497
        },
        {
          "duration": 0.18000000000000682,
          "durationTicks": 144,
          "midi": 76,
          "name": "E5",
          "ticks": 68400,
          "time": 85.5,
          "velocity": 0.7874015748031497
        },
        {
          "duration": 0.18000000000000682,
          "durationTicks": 144,
          "midi": 67,
          "name": "G4",
          "ticks": 68400,
          "time": 85.5,
          "velocity": 0.7874015748031497
        },
        {
          "duration": 0.18000000000000682,
          "durationTicks": 144,
          "midi": 72,
          "name": "C5",
          "ticks": 68400,
          "time": 85.5,
          "velocity": 0.7874015748031497
        },
        {
          "duration": 0.0899999999999892,
          "durationTicks": 72,
          "midi": 74,
          "name": "D5",
          "ticks": 68560,
          "time": 85.7,
          "velocity": 0.7874015748031497
        },
        {
          "duration": 0.0899999999999892,
          "durationTicks": 72,
          "midi": 66,
          "name": "F#4",
          "ticks": 68560,
          "time": 85.7,
          "velocity": 0.7874015748031497
        },
        {
          "duration": 0.0899999999999892,
          "durationTicks": 72,
          "midi": 71,
          "name": "B4",
          "ticks": 68560,
          "time": 85.7,
          "velocity": 0.7874015748031497
        },
        {
          "duration": 0.0899999999999892,
          "durationTicks": 72,
          "midi": 74,
          "name": "D5",
          "ticks": 68800,
          "time": 86,
          "velocity": 0.7874015748031497
        },
        {
          "duration": 0.6000000000000085,
          "durationTicks": 480,
          "midi": 66,
          "name": "F#4",
          "ticks": 68800,
          "time": 86,
          "velocity": 0.7874015748031497
        },
        {
          "duration": 0.6000000000000085,
          "durationTicks": 480,
          "midi": 71,
          "name": "B4",
          "ticks": 68800,
          "time": 86,
          "velocity": 0.7874015748031497
        },
        {
          "duration": 0.5000000000000142,
          "durationTicks": 400,
          "midi": 74,
          "name": "D5",
          "ticks": 68880,
          "time": 86.1,
          "velocity": 0.7874015748031497
        },
        {
          "duration": 0.08999999999997499,
          "durationTicks": 72,
          "midi": 72,
          "name": "C5",
          "ticks": 69280,
          "time": 86.60000000000001,
          "velocity": 0.7874015748031497
        },
        {
          "duration": 0.08999999999997499,
          "durationTicks": 72,
          "midi": 64,
          "name": "E4",
          "ticks": 69280,
          "time": 86.60000000000001,
          "velocity": 0.7874015748031497
        },
        {
          "duration": 0.08999999999997499,
          "durationTicks": 72,
          "midi": 69,
          "name": "A4",
          "ticks": 69280,
          "time": 86.60000000000001,
          "velocity": 0.7874015748031497
        },
        {
          "duration": 0.18000000000000682,
          "durationTicks": 144,
          "midi": 72,
          "name": "C5",
          "ticks": 69360,
          "time": 86.7,
          "velocity": 0.7874015748031497
        },
        {
          "duration": 0.09000000000000341,
          "durationTicks": 72,
          "midi": 64,
          "name": "E4",
          "ticks": 69360,
          "time": 86.7,
          "velocity": 0.7874015748031497
        },
        {
          "duration": 0.09000000000000341,
          "durationTicks": 72,
          "midi": 69,
          "name": "A4",
          "ticks": 69360,
          "time": 86.7,
          "velocity": 0.7874015748031497
        },
        {
          "duration": 0.18000000000000682,
          "durationTicks": 144,
          "midi": 74,
          "name": "D5",
          "ticks": 71280,
          "time": 89.1,
          "velocity": 0.7874015748031497
        },
        {
          "duration": 0.18000000000000682,
          "durationTicks": 144,
          "midi": 66,
          "name": "F#4",
          "ticks": 71280,
          "time": 89.1,
          "velocity": 0.7874015748031497
        },
        {
          "duration": 0.18000000000000682,
          "durationTicks": 144,
          "midi": 71,
          "name": "B4",
          "ticks": 71280,
          "time": 89.1,
          "velocity": 0.7874015748031497
        },
        {
          "duration": 0.0899999999999892,
          "durationTicks": 72,
          "midi": 74,
          "name": "D5",
          "ticks": 71440,
          "time": 89.3,
          "velocity": 0.7874015748031497
        },
        {
          "duration": 0.0899999999999892,
          "durationTicks": 72,
          "midi": 66,
          "name": "F#4",
          "ticks": 71440,
          "time": 89.3,
          "velocity": 0.7874015748031497
        },
        {
          "duration": 0.0899999999999892,
          "durationTicks": 72,
          "midi": 71,
          "name": "B4",
          "ticks": 71440,
          "time": 89.3,
          "velocity": 0.7874015748031497
        },
        {
          "duration": 0.46000000000000796,
          "durationTicks": 368,
          "midi": 76,
          "name": "E5",
          "ticks": 73440,
          "time": 91.8,
          "velocity": 0.7874015748031497
        },
        {
          "duration": 0.46000000000000796,
          "durationTicks": 368,
          "midi": 72,
          "name": "C5",
          "ticks": 73440,
          "time": 91.8,
          "velocity": 0.7874015748031497
        },
        {
          "duration": 0.46000000000000796,
          "durationTicks": 368,
          "midi": 67,
          "name": "G4",
          "ticks": 73440,
          "time": 91.8,
          "velocity": 0.7874015748031497
        },
        {
          "duration": 0.0899999999999892,
          "durationTicks": 72,
          "midi": 74,
          "name": "D5",
          "ticks": 73840,
          "time": 92.3,
          "velocity": 0.7874015748031497
        },
        {
          "duration": 0.0899999999999892,
          "durationTicks": 72,
          "midi": 71,
          "name": "B4",
          "ticks": 73840,
          "time": 92.3,
          "velocity": 0.7874015748031497
        },
        {
          "duration": 0.0899999999999892,
          "durationTicks": 72,
          "midi": 66,
          "name": "F#4",
          "ticks": 73840,
          "time": 92.3,
          "velocity": 0.7874015748031497
        },
        {
          "duration": 0.46000000000000796,
          "durationTicks": 368,
          "midi": 74,
          "name": "D5",
          "ticks": 74400,
          "time": 93,
          "velocity": 0.7874015748031497
        },
        {
          "duration": 0.46000000000000796,
          "durationTicks": 368,
          "midi": 71,
          "name": "B4",
          "ticks": 74400,
          "time": 93,
          "velocity": 0.7874015748031497
        },
        {
          "duration": 0.46000000000000796,
          "durationTicks": 368,
          "midi": 66,
          "name": "F#4",
          "ticks": 74400,
          "time": 93,
          "velocity": 0.7874015748031497
        },
        {
          "duration": 0.0899999999999892,
          "durationTicks": 72,
          "midi": 72,
          "name": "C5",
          "ticks": 74800,
          "time": 93.5,
          "velocity": 0.7874015748031497
        },
        {
          "duration": 0.0899999999999892,
          "durationTicks": 72,
          "midi": 69,
          "name": "A4",
          "ticks": 74800,
          "time": 93.5,
          "velocity": 0.7874015748031497
        },
        {
          "duration": 0.0899999999999892,
          "durationTicks": 72,
          "midi": 64,
          "name": "E4",
          "ticks": 74800,
          "time": 93.5,
          "velocity": 0.7874015748031497
        },
        {
          "duration": 0.18000000000000682,
          "durationTicks": 144,
          "midi": 72,
          "name": "C5",
          "ticks": 75600,
          "time": 94.5,
          "velocity": 0.7874015748031497
        },
        {
          "duration": 0.18000000000000682,
          "durationTicks": 144,
          "midi": 64,
          "name": "E4",
          "ticks": 75600,
          "time": 94.5,
          "velocity": 0.7874015748031497
        },
        {
          "duration": 0.18000000000000682,
          "durationTicks": 144,
          "midi": 69,
          "name": "A4",
          "ticks": 75600,
          "time": 94.5,
          "velocity": 0.7874015748031497
        },
        {
          "duration": 0.0899999999999892,
          "durationTicks": 72,
          "midi": 74,
          "name": "D5",
          "ticks": 75760,
          "time": 94.7,
          "velocity": 0.7874015748031497
        },
        {
          "duration": 0.1799999999999926,
          "durationTicks": 144,
          "midi": 66,
          "name": "F#4",
          "ticks": 75760,
          "time": 94.7,
          "velocity": 0.7874015748031497
        },
        {
          "duration": 0.0899999999999892,
          "durationTicks": 72,
          "midi": 71,
          "name": "B4",
          "ticks": 75760,
          "time": 94.7,
          "velocity": 0.7874015748031497
        },
        {
          "duration": 0.18000000000000682,
          "durationTicks": 144,
          "midi": 76,
          "name": "E5",
          "ticks": 75840,
          "time": 94.8,
          "velocity": 0.7874015748031497
        },
        {
          "duration": 0.18000000000000682,
          "durationTicks": 144,
          "midi": 67,
          "name": "G4",
          "ticks": 75840,
          "time": 94.8,
          "velocity": 0.7874015748031497
        },
        {
          "duration": 0.18000000000000682,
          "durationTicks": 144,
          "midi": 72,
          "name": "C5",
          "ticks": 75840,
          "time": 94.8,
          "velocity": 0.7874015748031497
        },
        {
          "duration": 0.18000000000000682,
          "durationTicks": 144,
          "midi": 76,
          "name": "E5",
          "ticks": 76080,
          "time": 95.1,
          "velocity": 0.7874015748031497
        },
        {
          "duration": 0.18000000000000682,
          "durationTicks": 144,
          "midi": 67,
          "name": "G4",
          "ticks": 76080,
          "time": 95.1,
          "velocity": 0.7874015748031497
        },
        {
          "duration": 0.18000000000000682,
          "durationTicks": 144,
          "midi": 72,
          "name": "C5",
          "ticks": 76080,
          "time": 95.1,
          "velocity": 0.7874015748031497
        },
        {
          "duration": 0.0899999999999892,
          "durationTicks": 72,
          "midi": 74,
          "name": "D5",
          "ticks": 76240,
          "time": 95.3,
          "velocity": 0.7874015748031497
        },
        {
          "duration": 0.0899999999999892,
          "durationTicks": 72,
          "midi": 66,
          "name": "F#4",
          "ticks": 76240,
          "time": 95.3,
          "velocity": 0.7874015748031497
        },
        {
          "duration": 0.0899999999999892,
          "durationTicks": 72,
          "midi": 71,
          "name": "B4",
          "ticks": 76240,
          "time": 95.3,
          "velocity": 0.7874015748031497
        },
        {
          "duration": 0.08999999999997499,
          "durationTicks": 72,
          "midi": 74,
          "name": "D5",
          "ticks": 76480,
          "time": 95.60000000000001,
          "velocity": 0.7874015748031497
        },
        {
          "duration": 0.5999999999999943,
          "durationTicks": 480,
          "midi": 66,
          "name": "F#4",
          "ticks": 76480,
          "time": 95.60000000000001,
          "velocity": 0.7874015748031497
        },
        {
          "duration": 0.5999999999999943,
          "durationTicks": 480,
          "midi": 71,
          "name": "B4",
          "ticks": 76480,
          "time": 95.60000000000001,
          "velocity": 0.7874015748031497
        },
        {
          "duration": 0.5,
          "durationTicks": 400,
          "midi": 74,
          "name": "D5",
          "ticks": 76560,
          "time": 95.7,
          "velocity": 0.7874015748031497
        },
        {
          "duration": 0.0899999999999892,
          "durationTicks": 72,
          "midi": 72,
          "name": "C5",
          "ticks": 76960,
          "time": 96.2,
          "velocity": 0.7874015748031497
        },
        {
          "duration": 0.0899999999999892,
          "durationTicks": 72,
          "midi": 64,
          "name": "E4",
          "ticks": 76960,
          "time": 96.2,
          "velocity": 0.7874015748031497
        },
        {
          "duration": 0.0899999999999892,
          "durationTicks": 72,
          "midi": 69,
          "name": "A4",
          "ticks": 76960,
          "time": 96.2,
          "velocity": 0.7874015748031497
        },
        {
          "duration": 0.18000000000000682,
          "durationTicks": 144,
          "midi": 72,
          "name": "C5",
          "ticks": 77040,
          "time": 96.3,
          "velocity": 0.7874015748031497
        },
        {
          "duration": 0.09000000000000341,
          "durationTicks": 72,
          "midi": 64,
          "name": "E4",
          "ticks": 77040,
          "time": 96.3,
          "velocity": 0.7874015748031497
        },
        {
          "duration": 0.09000000000000341,
          "durationTicks": 72,
          "midi": 69,
          "name": "A4",
          "ticks": 77040,
          "time": 96.3,
          "velocity": 0.7874015748031497
        },
        {
          "duration": 0.269999999999996,
          "durationTicks": 216,
          "midi": 72,
          "name": "C5",
          "ticks": 79680,
          "time": 99.6,
          "velocity": 0.7874015748031497
        },
        {
          "duration": 0.18000000000000682,
          "durationTicks": 144,
          "midi": 76,
          "name": "E5",
          "ticks": 79680,
          "time": 99.6,
          "velocity": 0.7874015748031497
        },
        {
          "duration": 0.0899999999999892,
          "durationTicks": 72,
          "midi": 75,
          "name": "D#5",
          "ticks": 79840,
          "time": 99.8,
          "velocity": 0.7874015748031497
        },
        {
          "duration": 0.0899999999999892,
          "durationTicks": 72,
          "midi": 78,
          "name": "F#5",
          "ticks": 79840,
          "time": 99.8,
          "velocity": 0.7874015748031497
        },
        {
          "duration": 0.18000000000000682,
          "durationTicks": 144,
          "midi": 76,
          "name": "E5",
          "ticks": 79920,
          "time": 99.89999999999999,
          "velocity": 0.7874015748031497
        },
        {
          "duration": 0.18000000000000682,
          "durationTicks": 144,
          "midi": 79,
          "name": "G5",
          "ticks": 79920,
          "time": 99.89999999999999,
          "velocity": 0.7874015748031497
        },
        {
          "duration": 0.08999999999997499,
          "durationTicks": 72,
          "midi": 78,
          "name": "F#5",
          "ticks": 80080,
          "time": 100.10000000000001,
          "velocity": 0.7874015748031497
        },
        {
          "duration": 0.08999999999997499,
          "durationTicks": 72,
          "midi": 81,
          "name": "A5",
          "ticks": 80080,
          "time": 100.10000000000001,
          "velocity": 0.7874015748031497
        },
        {
          "duration": 0.09000000000000341,
          "durationTicks": 72,
          "midi": 76,
          "name": "E5",
          "ticks": 80160,
          "time": 100.2,
          "velocity": 0.7874015748031497
        },
        {
          "duration": 0.09000000000000341,
          "durationTicks": 72,
          "midi": 79,
          "name": "G5",
          "ticks": 80160,
          "time": 100.2,
          "velocity": 0.7874015748031497
        },
        {
          "duration": 0.09000000000000341,
          "durationTicks": 72,
          "midi": 77,
          "name": "F5",
          "ticks": 80240,
          "time": 100.3,
          "velocity": 0.7874015748031497
        },
        {
          "duration": 0.09000000000000341,
          "durationTicks": 72,
          "midi": 81,
          "name": "A5",
          "ticks": 80240,
          "time": 100.3,
          "velocity": 0.7874015748031497
        },
        {
          "duration": 0.0899999999999892,
          "durationTicks": 72,
          "midi": 79,
          "name": "G5",
          "ticks": 80320,
          "time": 100.4,
          "velocity": 0.7874015748031497
        },
        {
          "duration": 0.0899999999999892,
          "durationTicks": 72,
          "midi": 83,
          "name": "B5",
          "ticks": 80320,
          "time": 100.4,
          "velocity": 0.7874015748031497
        },
        {
          "duration": 0.09000000000000341,
          "durationTicks": 72,
          "midi": 81,
          "name": "A5",
          "ticks": 80400,
          "time": 100.5,
          "velocity": 0.7874015748031497
        },
        {
          "duration": 0.09000000000000341,
          "durationTicks": 72,
          "midi": 84,
          "name": "C6",
          "ticks": 80400,
          "time": 100.5,
          "velocity": 0.7874015748031497
        },
        {
          "duration": 0.09000000000000341,
          "durationTicks": 72,
          "midi": 83,
          "name": "B5",
          "ticks": 80480,
          "time": 100.6,
          "velocity": 0.7874015748031497
        },
        {
          "duration": 0.09000000000000341,
          "durationTicks": 72,
          "midi": 86,
          "name": "D6",
          "ticks": 80480,
          "time": 100.6,
          "velocity": 0.7874015748031497
        },
        {
          "duration": 0.0899999999999892,
          "durationTicks": 72,
          "midi": 84,
          "name": "C6",
          "ticks": 80560,
          "time": 100.7,
          "velocity": 0.7874015748031497
        },
        {
          "duration": 0.0899999999999892,
          "durationTicks": 72,
          "midi": 87,
          "name": "D#6",
          "ticks": 80560,
          "time": 100.7,
          "velocity": 0.7874015748031497
        },
        {
          "duration": 0.10249999999999204,
          "durationTicks": 82,
          "midi": 72,
          "name": "C5",
          "ticks": 80880,
          "time": 101.1,
          "velocity": 0.7874015748031497
        },
        {
          "duration": 0.10249999999999204,
          "durationTicks": 82,
          "midi": 64,
          "name": "E4",
          "ticks": 80880,
          "time": 101.1,
          "velocity": 0.7874015748031497
        },
        {
          "duration": 0.10249999999999204,
          "durationTicks": 82,
          "midi": 69,
          "name": "A4",
          "ticks": 80880,
          "time": 101.1,
          "velocity": 0.7874015748031497
        },
        {
          "duration": 0.10249999999999204,
          "durationTicks": 82,
          "midi": 72,
          "name": "C5",
          "ticks": 81280,
          "time": 101.60000000000001,
          "velocity": 0.7874015748031497
        },
        {
          "duration": 0.10249999999999204,
          "durationTicks": 82,
          "midi": 64,
          "name": "E4",
          "ticks": 81280,
          "time": 101.60000000000001,
          "velocity": 0.7874015748031497
        },
        {
          "duration": 0.10249999999999204,
          "durationTicks": 82,
          "midi": 69,
          "name": "A4",
          "ticks": 81280,
          "time": 101.60000000000001,
          "velocity": 0.7874015748031497
        },
        {
          "duration": 0.10249999999999204,
          "durationTicks": 82,
          "midi": 72,
          "name": "C5",
          "ticks": 81600,
          "time": 102,
          "velocity": 0.7874015748031497
        },
        {
          "duration": 0.10249999999999204,
          "durationTicks": 82,
          "midi": 64,
          "name": "E4",
          "ticks": 81600,
          "time": 102,
          "velocity": 0.7874015748031497
        },
        {
          "duration": 0.10249999999999204,
          "durationTicks": 82,
          "midi": 69,
          "name": "A4",
          "ticks": 81600,
          "time": 102,
          "velocity": 0.7874015748031497
        },
        {
          "duration": 0.10249999999999204,
          "durationTicks": 82,
          "midi": 71,
          "name": "B4",
          "ticks": 82800,
          "time": 103.5,
          "velocity": 0.7874015748031497
        },
        {
          "duration": 0.10249999999999204,
          "durationTicks": 82,
          "midi": 62,
          "name": "D4",
          "ticks": 82800,
          "time": 103.5,
          "velocity": 0.7874015748031497
        },
        {
          "duration": 0.10249999999999204,
          "durationTicks": 82,
          "midi": 67,
          "name": "G4",
          "ticks": 82800,
          "time": 103.5,
          "velocity": 0.7874015748031497
        },
        {
          "duration": 0.10249999999999204,
          "durationTicks": 82,
          "midi": 71,
          "name": "B4",
          "ticks": 83200,
          "time": 104,
          "velocity": 0.7874015748031497
        },
        {
          "duration": 0.10249999999999204,
          "durationTicks": 82,
          "midi": 62,
          "name": "D4",
          "ticks": 83200,
          "time": 104,
          "velocity": 0.7874015748031497
        },
        {
          "duration": 0.10249999999999204,
          "durationTicks": 82,
          "midi": 67,
          "name": "G4",
          "ticks": 83200,
          "time": 104,
          "velocity": 0.7874015748031497
        },
        {
          "duration": 0.10249999999999204,
          "durationTicks": 82,
          "midi": 71,
          "name": "B4",
          "ticks": 83520,
          "time": 104.39999999999999,
          "velocity": 0.7874015748031497
        },
        {
          "duration": 0.10249999999999204,
          "durationTicks": 82,
          "midi": 62,
          "name": "D4",
          "ticks": 83520,
          "time": 104.39999999999999,
          "velocity": 0.7874015748031497
        },
        {
          "duration": 0.10249999999999204,
          "durationTicks": 82,
          "midi": 67,
          "name": "G4",
          "ticks": 83520,
          "time": 104.39999999999999,
          "velocity": 0.7874015748031497
        },
        {
          "duration": 0.10249999999999204,
          "durationTicks": 82,
          "midi": 72,
          "name": "C5",
          "ticks": 84720,
          "time": 105.89999999999999,
          "velocity": 0.7874015748031497
        },
        {
          "duration": 0.10249999999999204,
          "durationTicks": 82,
          "midi": 64,
          "name": "E4",
          "ticks": 84720,
          "time": 105.89999999999999,
          "velocity": 0.7874015748031497
        },
        {
          "duration": 0.10249999999999204,
          "durationTicks": 82,
          "midi": 69,
          "name": "A4",
          "ticks": 84720,
          "time": 105.89999999999999,
          "velocity": 0.7874015748031497
        },
        {
          "duration": 0.10249999999999204,
          "durationTicks": 82,
          "midi": 72,
          "name": "C5",
          "ticks": 85120,
          "time": 106.4,
          "velocity": 0.7874015748031497
        },
        {
          "duration": 0.10249999999999204,
          "durationTicks": 82,
          "midi": 64,
          "name": "E4",
          "ticks": 85120,
          "time": 106.4,
          "velocity": 0.7874015748031497
        },
        {
          "duration": 0.10249999999999204,
          "durationTicks": 82,
          "midi": 69,
          "name": "A4",
          "ticks": 85120,
          "time": 106.4,
          "velocity": 0.7874015748031497
        },
        {
          "duration": 0.10249999999999204,
          "durationTicks": 82,
          "midi": 72,
          "name": "C5",
          "ticks": 85440,
          "time": 106.8,
          "velocity": 0.7874015748031497
        },
        {
          "duration": 0.10249999999999204,
          "durationTicks": 82,
          "midi": 64,
          "name": "E4",
          "ticks": 85440,
          "time": 106.8,
          "velocity": 0.7874015748031497
        },
        {
          "duration": 0.10249999999999204,
          "durationTicks": 82,
          "midi": 69,
          "name": "A4",
          "ticks": 85440,
          "time": 106.8,
          "velocity": 0.7874015748031497
        },
        {
          "duration": 0.10249999999999204,
          "durationTicks": 82,
          "midi": 74,
          "name": "D5",
          "ticks": 86640,
          "time": 108.3,
          "velocity": 0.7874015748031497
        },
        {
          "duration": 0.10249999999999204,
          "durationTicks": 82,
          "midi": 66,
          "name": "F#4",
          "ticks": 86640,
          "time": 108.3,
          "velocity": 0.7874015748031497
        },
        {
          "duration": 0.10249999999999204,
          "durationTicks": 82,
          "midi": 71,
          "name": "B4",
          "ticks": 86640,
          "time": 108.3,
          "velocity": 0.7874015748031497
        },
        {
          "duration": 0.10249999999999204,
          "durationTicks": 82,
          "midi": 74,
          "name": "D5",
          "ticks": 87040,
          "time": 108.8,
          "velocity": 0.7874015748031497
        },
        {
          "duration": 0.10249999999999204,
          "durationTicks": 82,
          "midi": 66,
          "name": "F#4",
          "ticks": 87040,
          "time": 108.8,
          "velocity": 0.7874015748031497
        },
        {
          "duration": 0.10249999999999204,
          "durationTicks": 82,
          "midi": 71,
          "name": "B4",
          "ticks": 87040,
          "time": 108.8,
          "velocity": 0.7874015748031497
        },
        {
          "duration": 0.09000000000000341,
          "durationTicks": 72,
          "midi": 66,
          "name": "F#4",
          "ticks": 87360,
          "time": 109.2,
          "velocity": 0.7874015748031497
        },
        {
          "duration": 0.09000000000000341,
          "durationTicks": 72,
          "midi": 74,
          "name": "D5",
          "ticks": 87360,
          "time": 109.2,
          "velocity": 0.7874015748031497
        },
        {
          "duration": 0.09000000000000341,
          "durationTicks": 72,
          "midi": 71,
          "name": "B4",
          "ticks": 87360,
          "time": 109.2,
          "velocity": 0.7874015748031497
        },
        {
          "duration": 0.09000000000000341,
          "durationTicks": 72,
          "midi": 74,
          "name": "D5",
          "ticks": 87600,
          "time": 109.5,
          "velocity": 0.7874015748031497
        },
        {
          "duration": 0.09000000000000341,
          "durationTicks": 72,
          "midi": 66,
          "name": "F#4",
          "ticks": 87600,
          "time": 109.5,
          "velocity": 0.7874015748031497
        },
        {
          "duration": 0.09000000000000341,
          "durationTicks": 72,
          "midi": 71,
          "name": "B4",
          "ticks": 87600,
          "time": 109.5,
          "velocity": 0.7874015748031497
        },
        {
          "duration": 0.10249999999999204,
          "durationTicks": 82,
          "midi": 72,
          "name": "C5",
          "ticks": 88560,
          "time": 110.7,
          "velocity": 0.7874015748031497
        },
        {
          "duration": 0.10249999999999204,
          "durationTicks": 82,
          "midi": 64,
          "name": "E4",
          "ticks": 88560,
          "time": 110.7,
          "velocity": 0.7874015748031497
        },
        {
          "duration": 0.10249999999999204,
          "durationTicks": 82,
          "midi": 69,
          "name": "A4",
          "ticks": 88560,
          "time": 110.7,
          "velocity": 0.7874015748031497
        },
        {
          "duration": 0.10249999999999204,
          "durationTicks": 82,
          "midi": 72,
          "name": "C5",
          "ticks": 88960,
          "time": 111.2,
          "velocity": 0.7874015748031497
        },
        {
          "duration": 0.10249999999999204,
          "durationTicks": 82,
          "midi": 64,
          "name": "E4",
          "ticks": 88960,
          "time": 111.2,
          "velocity": 0.7874015748031497
        },
        {
          "duration": 0.10249999999999204,
          "durationTicks": 82,
          "midi": 69,
          "name": "A4",
          "ticks": 88960,
          "time": 111.2,
          "velocity": 0.7874015748031497
        },
        {
          "duration": 0.10249999999999204,
          "durationTicks": 82,
          "midi": 72,
          "name": "C5",
          "ticks": 89280,
          "time": 111.6,
          "velocity": 0.7874015748031497
        },
        {
          "duration": 0.10249999999999204,
          "durationTicks": 82,
          "midi": 64,
          "name": "E4",
          "ticks": 89280,
          "time": 111.6,
          "velocity": 0.7874015748031497
        },
        {
          "duration": 0.10249999999999204,
          "durationTicks": 82,
          "midi": 69,
          "name": "A4",
          "ticks": 89280,
          "time": 111.6,
          "velocity": 0.7874015748031497
        },
        {
          "duration": 0.10249999999999204,
          "durationTicks": 82,
          "midi": 71,
          "name": "B4",
          "ticks": 90480,
          "time": 113.1,
          "velocity": 0.7874015748031497
        },
        {
          "duration": 0.10249999999999204,
          "durationTicks": 82,
          "midi": 62,
          "name": "D4",
          "ticks": 90480,
          "time": 113.1,
          "velocity": 0.7874015748031497
        },
        {
          "duration": 0.10249999999999204,
          "durationTicks": 82,
          "midi": 67,
          "name": "G4",
          "ticks": 90480,
          "time": 113.1,
          "velocity": 0.7874015748031497
        },
        {
          "duration": 0.10249999999999204,
          "durationTicks": 82,
          "midi": 71,
          "name": "B4",
          "ticks": 90880,
          "time": 113.60000000000001,
          "velocity": 0.7874015748031497
        },
        {
          "duration": 0.10249999999999204,
          "durationTicks": 82,
          "midi": 62,
          "name": "D4",
          "ticks": 90880,
          "time": 113.60000000000001,
          "velocity": 0.7874015748031497
        },
        {
          "duration": 0.10249999999999204,
          "durationTicks": 82,
          "midi": 67,
          "name": "G4",
          "ticks": 90880,
          "time": 113.60000000000001,
          "velocity": 0.7874015748031497
        },
        {
          "duration": 0.10249999999999204,
          "durationTicks": 82,
          "midi": 71,
          "name": "B4",
          "ticks": 91200,
          "time": 114,
          "velocity": 0.7874015748031497
        },
        {
          "duration": 0.10249999999999204,
          "durationTicks": 82,
          "midi": 62,
          "name": "D4",
          "ticks": 91200,
          "time": 114,
          "velocity": 0.7874015748031497
        },
        {
          "duration": 0.10249999999999204,
          "durationTicks": 82,
          "midi": 67,
          "name": "G4",
          "ticks": 91200,
          "time": 114,
          "velocity": 0.7874015748031497
        }
      ]
    },
    {
      "channel": 0,
      "controlChanges": {
        "0": [
          {
            "number": 0,
            "ticks": 488,
            "time": 0.61,
            "value": 0.031496062992125984
          }
        ],
        "32": [
          {
            "number": 32,
            "ticks": 492,
            "time": 0.6149999999999999,
            "value": 0.023622047244094488
          }
        ]
      },
      "pitchBends": [],
      "instrument": {
        "family": "piano",
        "number": 0,
        "name": "acoustic grand piano"
      },
      "name": "",
      "notes": [],
      "endOfTrackTicks": 512
    },
    {
      "channel": 0,
      "controlChanges": {
        "7": [
          {
            "number": 7,
            "ticks": 500,
            "time": 0.625,
            "value": 0.7874015748031497
          }
        ],
        "10": [
          {
            "number": 10,
            "ticks": 504,
            "time": 0.63,
            "value": 0.5039370078740157
          }
        ],
        "91": [
          {
            "number": 91,
            "ticks": 508,
            "time": 0.635,
            "value": 0.31496062992125984
          }
        ],
        "93": [
          {
            "number": 93,
            "ticks": 512,
            "time": 0.64,
            "value": 1
          }
        ]
      },
      "pitchBends": [],
      "instrument": {
        "family": "synth pad",
        "number": 89,
        "name": "pad 2 (warm)"
      },
      "name": "",
      "notes": []
    },
    {
      "channel": 0,
      "controlChanges": {
        "0": [
          {
            "number": 0,
            "ticks": 520,
            "time": 0.6499999999999999,
            "value": 0.015748031496062992
          }
        ],
        "32": [
          {
            "number": 32,
            "ticks": 524,
            "time": 0.6549999999999999,
            "value": 0.023622047244094488
          }
        ]
      },
      "pitchBends": [],
      "instrument": {
        "family": "piano",
        "number": 0,
        "name": "acoustic grand piano"
      },
      "name": "",
      "notes": [],
      "endOfTrackTicks": 560
    },
    {
      "channel": 0,
      "controlChanges": {
        "6": [
          {
            "number": 6,
            "ticks": 560,
            "time": 0.7000000000000001,
            "value": 0
          }
        ],
        "7": [
          {
            "number": 7,
            "ticks": 532,
            "time": 0.665,
            "value": 0.7874015748031497
          }
        ],
        "10": [
          {
            "number": 10,
            "ticks": 536,
            "time": 0.67,
            "value": 0.5039370078740157
          }
        ],
        "91": [
          {
            "number": 91,
            "ticks": 540,
            "time": 0.6749999999999999,
            "value": 0.31496062992125984
          }
        ],
        "93": [
          {
            "number": 93,
            "ticks": 544,
            "time": 0.6799999999999999,
            "value": 0
          }
        ],
        "94": [
          {
            "number": 94,
            "ticks": 548,
            "time": 0.6849999999999999,
            "value": 0.3937007874015748
          }
        ],
        "98": [
          {
            "number": 98,
            "ticks": 556,
            "time": 0.6950000000000001,
            "value": 0.8031496062992126
          }
        ],
        "99": [
          {
            "number": 99,
            "ticks": 552,
            "time": 0.69,
            "value": 0.007874015748031496
          }
        ]
      },
      "pitchBends": [],
      "instrument": {
        "family": "guitar",
        "number": 27,
        "name": "electric guitar (clean)"
      },
      "name": "",
      "notes": []
    },
    {
      "channel": 0,
      "controlChanges": {
        "0": [
          {
            "number": 0,
            "ticks": 568,
            "time": 0.71,
            "value": 0.07874015748031496
          }
        ],
        "32": [
          {
            "number": 32,
            "ticks": 572,
            "time": 0.715,
            "value": 0.023622047244094488
          }
        ]
      },
      "pitchBends": [],
      "instrument": {
        "family": "piano",
        "number": 0,
        "name": "acoustic grand piano"
      },
      "name": "",
      "notes": [],
      "endOfTrackTicks": 592
    },
    {
      "channel": 0,
      "controlChanges": {
        "7": [
          {
            "number": 7,
            "ticks": 580,
            "time": 0.725,
            "value": 0.7874015748031497
          }
        ],
        "10": [
          {
            "number": 10,
            "ticks": 584,
            "time": 0.7299999999999999,
            "value": 0.11023622047244094
          }
        ],
        "91": [
          {
            "number": 91,
            "ticks": 588,
            "time": 0.735,
            "value": 0.31496062992125984
          }
        ],
        "93": [
          {
            "number": 93,
            "ticks": 592,
            "time": 0.74,
            "value": 0
          }
        ]
      },
      "pitchBends": [],
      "instrument": {
        "family": "brass",
        "number": 61,
        "name": "brass section"
      },
      "name": "",
      "notes": []
    },
    {
      "channel": 0,
      "controlChanges": {
        "0": [
          {
            "number": 0,
            "ticks": 600,
            "time": 0.75,
            "value": 0.07874015748031496
          }
        ],
        "32": [
          {
            "number": 32,
            "ticks": 604,
            "time": 0.755,
            "value": 0.023622047244094488
          }
        ]
      },
      "pitchBends": [],
      "instrument": {
        "family": "piano",
        "number": 0,
        "name": "acoustic grand piano"
      },
      "name": "",
      "notes": [],
      "endOfTrackTicks": 624
    },
    {
      "channel": 0,
      "controlChanges": {
        "7": [
          {
            "number": 7,
            "ticks": 612,
            "time": 0.7649999999999999,
            "value": 0.7874015748031497
          }
        ],
        "10": [
          {
            "number": 10,
            "ticks": 616,
            "time": 0.77,
            "value": 0.8976377952755905
          }
        ],
        "91": [
          {
            "number": 91,
            "ticks": 620,
            "time": 0.775,
            "value": 0.31496062992125984
          }
        ],
        "93": [
          {
            "number": 93,
            "ticks": 624,
            "time": 0.78,
            "value": 0
          }
        ]
      },
      "pitchBends": [],
      "instrument": {
        "family": "brass",
        "number": 61,
        "name": "brass section"
      },
      "name": "",
      "notes": []
    },
    {
      "channel": 0,
      "controlChanges": {
        "0": [
          {
            "number": 0,
            "ticks": 632,
            "time": 0.7899999999999999,
            "value": 0.023622047244094488
          }
        ],
        "32": [
          {
            "number": 32,
            "ticks": 636,
            "time": 0.7949999999999999,
            "value": 0.023622047244094488
          }
        ]
      },
      "pitchBends": [],
      "instrument": {
        "family": "piano",
        "number": 0,
        "name": "acoustic grand piano"
      },
      "name": "",
      "notes": [],
      "endOfTrackTicks": 80632
    },
    {
      "channel": 0,
      "controlChanges": {
        "0": [
          {
            "number": 0,
            "ticks": 7200,
            "time": 9,
            "value": 0.12598425196850394
          }
        ],
        "6": [
          {
            "number": 6,
            "ticks": 668,
            "time": 0.835,
            "value": 0.3858267716535433
          }
        ],
        "7": [
          {
            "number": 7,
            "ticks": 644,
            "time": 0.8049999999999999,
            "value": 0.7874015748031497
          }
        ],
        "10": [
          {
            "number": 10,
            "ticks": 648,
            "time": 0.81,
            "value": 0.5039370078740157
          }
        ],
        "91": [
          {
            "number": 91,
            "ticks": 652,
            "time": 0.8150000000000001,
            "value": 0.31496062992125984
          }
        ],
        "93": [
          {
            "number": 93,
            "ticks": 656,
            "time": 0.82,
            "value": 0.937007874015748
          }
        ],
        "98": [
          {
            "number": 98,
            "ticks": 664,
            "time": 0.83,
            "value": 0.7795275590551181
          }
        ],
        "99": [
          {
            "number": 99,
            "ticks": 660,
            "time": 0.825,
            "value": 0.007874015748031496
          }
        ]
      },
      "pitchBends": [],
      "instrument": {
        "family": "guitar",
        "number": 29,
        "name": "overdriven guitar"
      },
      "name": "",
      "notes": []
    },
    {
      "channel": 7,
      "controlChanges": {
        "1": [
          {
            "number": 1,
            "ticks": 7820,
            "time": 9.775,
            "value": 0
          },
          {
            "number": 1,
            "ticks": 8300,
            "time": 10.375,
            "value": 0
          },
          {
            "number": 1,
            "ticks": 8680,
            "time": 10.85,
            "value": 0.015748031496062992
          },
          {
            "number": 1,
            "ticks": 8710,
            "time": 10.8875,
            "value": 0.12598425196850394
          },
          {
            "number": 1,
            "ticks": 8740,
            "time": 10.924999999999999,
            "value": 0.2440944881889764
          },
          {
            "number": 1,
            "ticks": 8770,
            "time": 10.962499999999999,
            "value": 0.3543307086614173
          },
          {
            "number": 1,
            "ticks": 8800,
            "time": 10.999999999999998,
            "value": 0.47244094488188976
          },
          {
            "number": 1,
            "ticks": 8830,
            "time": 11.0375,
            "value": 0.5826771653543307
          },
          {
            "number": 1,
            "ticks": 8860,
            "time": 11.075,
            "value": 0.7007874015748031
          },
          {
            "number": 1,
            "ticks": 8890,
            "time": 11.112499999999999,
            "value": 0.8188976377952756
          },
          {
            "number": 1,
            "ticks": 8920,
            "time": 11.149999999999999,
            "value": 0.9291338582677166
          },
          {
            "number": 1,
            "ticks": 8938,
            "time": 11.1725,
            "value": 1
          },
          {
            "number": 1,
            "ticks": 9360,
            "time": 11.7,
            "value": 0
          },
          {
            "number": 1,
            "ticks": 9440,
            "time": 11.8,
            "value": 0
          },
          {
            "number": 1,
            "ticks": 9680,
            "time": 12.1,
            "value": 0
          },
          {
            "number": 1,
            "ticks": 9787,
            "time": 12.23375,
            "value": 0.007874015748031496
          },
          {
            "number": 1,
            "ticks": 9817,
            "time": 12.27125,
            "value": 0.1889763779527559
          },
          {
            "number": 1,
            "ticks": 9847,
            "time": 12.30875,
            "value": 0.3700787401574803
          },
          {
            "number": 1,
            "ticks": 9877,
            "time": 12.34625,
            "value": 0.5511811023622047
          },
          {
            "number": 1,
            "ticks": 9907,
            "time": 12.383750000000001,
            "value": 0.7322834645669292
          },
          {
            "number": 1,
            "ticks": 9937,
            "time": 12.42125,
            "value": 0.9133858267716536
          },
          {
            "number": 1,
            "ticks": 9951,
            "time": 12.438749999999999,
            "value": 1
          },
          {
            "number": 1,
            "ticks": 10320,
            "time": 12.9,
            "value": 0
          },
          {
            "number": 1,
            "ticks": 11133,
            "time": 13.91625,
            "value": 0.007874015748031496
          },
          {
            "number": 1,
            "ticks": 11163,
            "time": 13.953750000000001,
            "value": 0.36220472440944884
          },
          {
            "number": 1,
            "ticks": 11193,
            "time": 13.99125,
            "value": 0.7244094488188977
          },
          {
            "number": 1,
            "ticks": 11215,
            "time": 14.018749999999999,
            "value": 1
          },
          {
            "number": 1,
            "ticks": 11360,
            "time": 14.200000000000001,
            "value": 0
          },
          {
            "number": 1,
            "ticks": 38540,
            "time": 48.175000000000004,
            "value": 0
          },
          {
            "number": 1,
            "ticks": 39020,
            "time": 48.775,
            "value": 0
          },
          {
            "number": 1,
            "ticks": 39400,
            "time": 49.24999999999999,
            "value": 0.015748031496062992
          },
          {
            "number": 1,
            "ticks": 39430,
            "time": 49.287499999999994,
            "value": 0.12598425196850394
          },
          {
            "number": 1,
            "ticks": 39460,
            "time": 49.324999999999996,
            "value": 0.2440944881889764
          },
          {
            "number": 1,
            "ticks": 39490,
            "time": 49.3625,
            "value": 0.3543307086614173
          },
          {
            "number": 1,
            "ticks": 39520,
            "time": 49.4,
            "value": 0.47244094488188976
          },
          {
            "number": 1,
            "ticks": 39550,
            "time": 49.43749999999999,
            "value": 0.5826771653543307
          },
          {
            "number": 1,
            "ticks": 39580,
            "time": 49.474999999999994,
            "value": 0.7007874015748031
          },
          {
            "number": 1,
            "ticks": 39610,
            "time": 49.512499999999996,
            "value": 0.8188976377952756
          },
          {
            "number": 1,
            "ticks": 39640,
            "time": 49.55,
            "value": 0.9291338582677166
          },
          {
            "number": 1,
            "ticks": 39658,
            "time": 49.5725,
            "value": 1
          },
          {
            "number": 1,
            "ticks": 40080,
            "time": 50.1,
            "value": 0
          },
          {
            "number": 1,
            "ticks": 40160,
            "time": 50.2,
            "value": 0
          },
          {
            "number": 1,
            "ticks": 40400,
            "time": 50.5,
            "value": 0
          },
          {
            "number": 1,
            "ticks": 40507,
            "time": 50.63375,
            "value": 0.007874015748031496
          },
          {
            "number": 1,
            "ticks": 40537,
            "time": 50.67125,
            "value": 0.1889763779527559
          },
          {
            "number": 1,
            "ticks": 40567,
            "time": 50.70875,
            "value": 0.3700787401574803
          },
          {
            "number": 1,
            "ticks": 40597,
            "time": 50.746249999999996,
            "value": 0.5511811023622047
          },
          {
            "number": 1,
            "ticks": 40627,
            "time": 50.78375,
            "value": 0.7322834645669292
          },
          {
            "number": 1,
            "ticks": 40657,
            "time": 50.82125,
            "value": 0.9133858267716536
          },
          {
            "number": 1,
            "ticks": 40671,
            "time": 50.83875,
            "value": 1
          },
          {
            "number": 1,
            "ticks": 41040,
            "time": 51.3,
            "value": 0
          },
          {
            "number": 1,
            "ticks": 41853,
            "time": 52.31625,
            "value": 0.007874015748031496
          },
          {
            "number": 1,
            "ticks": 41883,
            "time": 52.35375,
            "value": 0.36220472440944884
          },
          {
            "number": 1,
            "ticks": 41913,
            "time": 52.39124999999999,
            "value": 0.7244094488188977
          },
          {
            "number": 1,
            "ticks": 41935,
            "time": 52.418749999999996,
            "value": 1
          },
          {
            "number": 1,
            "ticks": 42080,
            "time": 52.6,
            "value": 0
          },
          {
            "number": 1,
            "ticks": 69740,
            "time": 87.175,
            "value": 0
          },
          {
            "number": 1,
            "ticks": 70800,
            "time": 88.5,
            "value": 0
          },
          {
            "number": 1,
            "ticks": 70880,
            "time": 88.6,
            "value": 0
          },
          {
            "number": 1,
            "ticks": 71120,
            "time": 88.89999999999999,
            "value": 0
          },
          {
            "number": 1,
            "ticks": 71227,
            "time": 89.03374999999998,
            "value": 0.007874015748031496
          },
          {
            "number": 1,
            "ticks": 71257,
            "time": 89.07124999999999,
            "value": 0.1889763779527559
          },
          {
            "number": 1,
            "ticks": 71287,
            "time": 89.10874999999999,
            "value": 0.3700787401574803
          },
          {
            "number": 1,
            "ticks": 71317,
            "time": 89.14625,
            "value": 0.5511811023622047
          },
          {
            "number": 1,
            "ticks": 71347,
            "time": 89.18374999999999,
            "value": 0.7322834645669292
          },
          {
            "number": 1,
            "ticks": 71377,
            "time": 89.22124999999998,
            "value": 0.9133858267716536
          },
          {
            "number": 1,
            "ticks": 71391,
            "time": 89.23875,
            "value": 1
          },
          {
            "number": 1,
            "ticks": 71760,
            "time": 89.7,
            "value": 0
          },
          {
            "number": 1,
            "ticks": 72573,
            "time": 90.71624999999999,
            "value": 0.007874015748031496
          },
          {
            "number": 1,
            "ticks": 72603,
            "time": 90.75375,
            "value": 0.36220472440944884
          },
          {
            "number": 1,
            "ticks": 72633,
            "time": 90.79124999999999,
            "value": 0.7244094488188977
          },
          {
            "number": 1,
            "ticks": 72655,
            "time": 90.81875000000001,
            "value": 1
          },
          {
            "number": 1,
            "ticks": 72800,
            "time": 90.99999999999999,
            "value": 0
          }
        ],
        "6": [
          {
            "number": 6,
            "ticks": 7680,
            "time": 9.6,
            "value": 0.09448818897637795
          },
          {
            "number": 6,
            "ticks": 8160,
            "time": 10.2,
            "value": 0.09448818897637795
          },
          {
            "number": 6,
            "ticks": 9360,
            "time": 11.7,
            "value": 0.09448818897637795
          },
          {
            "number": 6,
            "ticks": 9600,
            "time": 12,
            "value": 0.09448818897637795
          },
          {
            "number": 6,
            "ticks": 38400,
            "time": 48,
            "value": 0.09448818897637795
          },
          {
            "number": 6,
            "ticks": 38880,
            "time": 48.6,
            "value": 0.09448818897637795
          },
          {
            "number": 6,
            "ticks": 40080,
            "time": 50.1,
            "value": 0.09448818897637795
          },
          {
            "number": 6,
            "ticks": 40320,
            "time": 50.4,
            "value": 0.09448818897637795
          },
          {
            "number": 6,
            "ticks": 69600,
            "time": 87,
            "value": 0.09448818897637795
          },
          {
            "number": 6,
            "ticks": 70800,
            "time": 88.5,
            "value": 0.09448818897637795
          },
          {
            "number": 6,
            "ticks": 71040,
            "time": 88.8,
            "value": 0.09448818897637795
          }
        ],
        "100": [
          {
            "number": 100,
            "ticks": 7680,
            "time": 9.6,
            "value": 0
          },
          {
            "number": 100,
            "ticks": 8160,
            "time": 10.2,
            "value": 0
          },
          {
            "number": 100,
            "ticks": 9360,
            "time": 11.7,
            "value": 0
          },
          {
            "number": 100,
            "ticks": 9600,
            "time": 12,
            "value": 0
          },
          {
            "number": 100,
            "ticks": 38400,
            "time": 48,
            "value": 0
          },
          {
            "number": 100,
            "ticks": 38880,
            "time": 48.6,
            "value": 0
          },
          {
            "number": 100,
            "ticks": 40080,
            "time": 50.1,
            "value": 0
          },
          {
            "number": 100,
            "ticks": 40320,
            "time": 50.4,
            "value": 0
          },
          {
            "number": 100,
            "ticks": 69600,
            "time": 87,
            "value": 0
          },
          {
            "number": 100,
            "ticks": 70800,
            "time": 88.5,
            "value": 0
          },
          {
            "number": 100,
            "ticks": 71040,
            "time": 88.8,
            "value": 0
          }
        ],
        "101": [
          {
            "number": 101,
            "ticks": 7680,
            "time": 9.6,
            "value": 0
          },
          {
            "number": 101,
            "ticks": 8160,
            "time": 10.2,
            "value": 0
          },
          {
            "number": 101,
            "ticks": 9360,
            "time": 11.7,
            "value": 0
          },
          {
            "number": 101,
            "ticks": 9600,
            "time": 12,
            "value": 0
          },
          {
            "number": 101,
            "ticks": 38400,
            "time": 48,
            "value": 0
          },
          {
            "number": 101,
            "ticks": 38880,
            "time": 48.6,
            "value": 0
          },
          {
            "number": 101,
            "ticks": 40080,
            "time": 50.1,
            "value": 0
          },
          {
            "number": 101,
            "ticks": 40320,
            "time": 50.4,
            "value": 0
          },
          {
            "number": 101,
            "ticks": 69600,
            "time": 87,
            "value": 0
          },
          {
            "number": 101,
            "ticks": 70800,
            "time": 88.5,
            "value": 0
          },
          {
            "number": 101,
            "ticks": 71040,
            "time": 88.8,
            "value": 0
          }
        ]
      },
      "pitchBends": [
        {
          "ticks": 7680,
          "time": 9.6,
          "value": -0.08544921875
        },
        {
          "ticks": 7740,
          "time": 9.674999999999999,
          "value": -0.048828125
        },
        {
          "ticks": 7750,
          "time": 9.687499999999998,
          "value": -0.03662109375
        },
        {
          "ticks": 7760,
          "time": 9.700000000000001,
          "value": -0.0244140625
        },
        {
          "ticks": 7780,
          "time": 9.725,
          "value": -0.01220703125
        },
        {
          "ticks": 7800,
          "time": 9.75,
          "value": 0
        },
        {
          "ticks": 7820,
          "time": 9.775,
          "value": 0
        },
        {
          "ticks": 7820,
          "time": 9.775,
          "value": 0
        },
        {
          "ticks": 8160,
          "time": 10.2,
          "value": -0.1708984375
        },
        {
          "ticks": 8220,
          "time": 10.275,
          "value": -0.1220703125
        },
        {
          "ticks": 8230,
          "time": 10.2875,
          "value": -0.0732421875
        },
        {
          "ticks": 8240,
          "time": 10.3,
          "value": -0.048828125
        },
        {
          "ticks": 8260,
          "time": 10.325,
          "value": -0.0244140625
        },
        {
          "ticks": 8280,
          "time": 10.35,
          "value": -0.01220703125
        },
        {
          "ticks": 8300,
          "time": 10.375,
          "value": 0
        },
        {
          "ticks": 8300,
          "time": 10.375,
          "value": 0
        },
        {
          "ticks": 9360,
          "time": 11.7,
          "value": -0.08544921875
        },
        {
          "ticks": 9440,
          "time": 11.8,
          "value": 0
        },
        {
          "ticks": 9440,
          "time": 11.8,
          "value": 0
        },
        {
          "ticks": 9600,
          "time": 12,
          "value": -0.1708984375
        },
        {
          "ticks": 9680,
          "time": 12.1,
          "value": 0
        },
        {
          "ticks": 9680,
          "time": 12.1,
          "value": 0
        },
        {
          "ticks": 11367,
          "time": 14.208749999999998,
          "value": 0
        },
        {
          "ticks": 11397,
          "time": 14.246249999999998,
          "value": -0.0447998046875
        },
        {
          "ticks": 11427,
          "time": 14.28375,
          "value": -0.0897216796875
        },
        {
          "ticks": 11457,
          "time": 14.32125,
          "value": -0.134521484375
        },
        {
          "ticks": 11487,
          "time": 14.358749999999999,
          "value": -0.179443359375
        },
        {
          "ticks": 11520,
          "time": 14.399999999999999,
          "value": 0
        },
        {
          "ticks": 38400,
          "time": 48,
          "value": -0.08544921875
        },
        {
          "ticks": 38460,
          "time": 48.074999999999996,
          "value": -0.048828125
        },
        {
          "ticks": 38470,
          "time": 48.0875,
          "value": -0.03662109375
        },
        {
          "ticks": 38480,
          "time": 48.1,
          "value": -0.0244140625
        },
        {
          "ticks": 38500,
          "time": 48.12499999999999,
          "value": -0.01220703125
        },
        {
          "ticks": 38520,
          "time": 48.15,
          "value": 0
        },
        {
          "ticks": 38540,
          "time": 48.175000000000004,
          "value": 0
        },
        {
          "ticks": 38540,
          "time": 48.175000000000004,
          "value": 0
        },
        {
          "ticks": 38880,
          "time": 48.6,
          "value": -0.1708984375
        },
        {
          "ticks": 38940,
          "time": 48.675,
          "value": -0.1220703125
        },
        {
          "ticks": 38950,
          "time": 48.68749999999999,
          "value": -0.0732421875
        },
        {
          "ticks": 38960,
          "time": 48.7,
          "value": -0.048828125
        },
        {
          "ticks": 38980,
          "time": 48.724999999999994,
          "value": -0.0244140625
        },
        {
          "ticks": 39000,
          "time": 48.75,
          "value": -0.01220703125
        },
        {
          "ticks": 39020,
          "time": 48.775,
          "value": 0
        },
        {
          "ticks": 39020,
          "time": 48.775,
          "value": 0
        },
        {
          "ticks": 40080,
          "time": 50.1,
          "value": -0.08544921875
        },
        {
          "ticks": 40160,
          "time": 50.2,
          "value": 0
        },
        {
          "ticks": 40160,
          "time": 50.2,
          "value": 0
        },
        {
          "ticks": 40320,
          "time": 50.4,
          "value": -0.1708984375
        },
        {
          "ticks": 40400,
          "time": 50.5,
          "value": 0
        },
        {
          "ticks": 40400,
          "time": 50.5,
          "value": 0
        },
        {
          "ticks": 42087,
          "time": 52.60875,
          "value": 0
        },
        {
          "ticks": 42117,
          "time": 52.64625,
          "value": -0.0447998046875
        },
        {
          "ticks": 42147,
          "time": 52.68375,
          "value": -0.0897216796875
        },
        {
          "ticks": 42177,
          "time": 52.721250000000005,
          "value": -0.134521484375
        },
        {
          "ticks": 42207,
          "time": 52.75875,
          "value": -0.179443359375
        },
        {
          "ticks": 42240,
          "time": 52.8,
          "value": 0
        },
        {
          "ticks": 69600,
          "time": 87,
          "value": -0.1708984375
        },
        {
          "ticks": 69660,
          "time": 87.075,
          "value": -0.1220703125
        },
        {
          "ticks": 69670,
          "time": 87.0875,
          "value": -0.0732421875
        },
        {
          "ticks": 69680,
          "time": 87.1,
          "value": -0.048828125
        },
        {
          "ticks": 69700,
          "time": 87.125,
          "value": -0.0244140625
        },
        {
          "ticks": 69720,
          "time": 87.14999999999999,
          "value": -0.01220703125
        },
        {
          "ticks": 69740,
          "time": 87.175,
          "value": 0
        },
        {
          "ticks": 69740,
          "time": 87.175,
          "value": 0
        },
        {
          "ticks": 70800,
          "time": 88.5,
          "value": -0.08544921875
        },
        {
          "ticks": 70880,
          "time": 88.6,
          "value": 0
        },
        {
          "ticks": 70880,
          "time": 88.6,
          "value": 0
        },
        {
          "ticks": 71040,
          "time": 88.8,
          "value": -0.1708984375
        },
        {
          "ticks": 71120,
          "time": 88.89999999999999,
          "value": 0
        },
        {
          "ticks": 71120,
          "time": 88.89999999999999,
          "value": 0
        },
        {
          "ticks": 72807,
          "time": 91.00875,
          "value": 0
        },
        {
          "ticks": 72837,
          "time": 91.04625,
          "value": -0.0447998046875
        },
        {
          "ticks": 72867,
          "time": 91.08375,
          "value": -0.0897216796875
        },
        {
          "ticks": 72897,
          "time": 91.12125,
          "value": -0.134521484375
        },
        {
          "ticks": 72927,
          "time": 91.15875,
          "value": -0.179443359375
        },
        {
          "ticks": 72960,
          "time": 91.2,
          "value": 0
        }
      ],
      "instrument": {
        "family": "guitar",
        "number": 27,
        "name": "electric guitar (clean)"
      },
      "name": "",
      "notes": [
        {
          "duration": 0.1999999999999993,
          "durationTicks": 160,
          "midi": 71,
          "name": "B4",
          "ticks": 7680,
          "time": 9.6,
          "velocity": 0.7874015748031497
        },
        {
          "duration": 0.10000000000000142,
          "durationTicks": 80,
          "midi": 72,
          "name": "C5",
          "ticks": 7840,
          "time": 9.799999999999999,
          "velocity": 0.7874015748031497
        },
        {
          "duration": 0.1999999999999993,
          "durationTicks": 160,
          "midi": 76,
          "name": "E5",
          "ticks": 7920,
          "time": 9.9,
          "velocity": 0.7874015748031497
        },
        {
          "duration": 0.09999999999999964,
          "durationTicks": 80,
          "midi": 79,
          "name": "G5",
          "ticks": 8080,
          "time": 10.1,
          "velocity": 0.7874015748031497
        },
        {
          "duration": 1.5,
          "durationTicks": 1200,
          "midi": 83,
          "name": "B5",
          "ticks": 8160,
          "time": 10.2,
          "velocity": 0.7874015748031497
        },
        {
          "duration": 0.3000000000000007,
          "durationTicks": 240,
          "midi": 81,
          "name": "A5",
          "ticks": 9360,
          "time": 11.7,
          "velocity": 0.7874015748031497
        },
        {
          "duration": 0.9000000000000004,
          "durationTicks": 720,
          "midi": 86,
          "name": "D6",
          "ticks": 9600,
          "time": 12,
          "velocity": 0.7874015748031497
        },
        {
          "duration": 0.17999999999999972,
          "durationTicks": 144,
          "midi": 84,
          "name": "C6",
          "ticks": 10320,
          "time": 12.9,
          "velocity": 0.7874015748031497
        },
        {
          "duration": 0.08999999999999986,
          "durationTicks": 72,
          "midi": 86,
          "name": "D6",
          "ticks": 10480,
          "time": 13.1,
          "velocity": 0.7874015748031497
        },
        {
          "duration": 0.27999999999999936,
          "durationTicks": 224,
          "midi": 83,
          "name": "B5",
          "ticks": 10560,
          "time": 13.2,
          "velocity": 0.7874015748031497
        },
        {
          "duration": 0.17999999999999972,
          "durationTicks": 144,
          "midi": 79,
          "name": "G5",
          "ticks": 10800,
          "time": 13.5,
          "velocity": 0.7874015748031497
        },
        {
          "duration": 0.6999999999999993,
          "durationTicks": 560,
          "midi": 76,
          "name": "E5",
          "ticks": 10960,
          "time": 13.7,
          "velocity": 0.7874015748031497
        },
        {
          "duration": 0.3000000000000007,
          "durationTicks": 240,
          "midi": 83,
          "name": "B5",
          "ticks": 16320,
          "time": 20.4,
          "velocity": 0.7874015748031497
        },
        {
          "duration": 0.09999999999999787,
          "durationTicks": 80,
          "midi": 79,
          "name": "G5",
          "ticks": 16560,
          "time": 20.7,
          "velocity": 0.7874015748031497
        },
        {
          "duration": 0.10000000000000497,
          "durationTicks": 80,
          "midi": 76,
          "name": "E5",
          "ticks": 16640,
          "time": 20.799999999999997,
          "velocity": 0.7874015748031497
        },
        {
          "duration": 0.09999999999999787,
          "durationTicks": 80,
          "midi": 72,
          "name": "C5",
          "ticks": 16720,
          "time": 20.900000000000002,
          "velocity": 0.7874015748031497
        },
        {
          "duration": 0.1999999999999993,
          "durationTicks": 160,
          "midi": 71,
          "name": "B4",
          "ticks": 16800,
          "time": 21,
          "velocity": 0.7874015748031497
        },
        {
          "duration": 0.10000000000000142,
          "durationTicks": 80,
          "midi": 74,
          "name": "D5",
          "ticks": 16960,
          "time": 21.2,
          "velocity": 0.7874015748031497
        },
        {
          "duration": 0.1999999999999993,
          "durationTicks": 160,
          "midi": 72,
          "name": "C5",
          "ticks": 17040,
          "time": 21.3,
          "velocity": 0.7874015748031497
        },
        {
          "duration": 0.08999999999999986,
          "durationTicks": 72,
          "midi": 66,
          "name": "F#4",
          "ticks": 17200,
          "time": 21.5,
          "velocity": 0.7874015748031497
        },
        {
          "duration": 0.20000000000000284,
          "durationTicks": 160,
          "midi": 71,
          "name": "B4",
          "ticks": 17280,
          "time": 21.599999999999998,
          "velocity": 0.7874015748031497
        },
        {
          "duration": 0.08999999999999986,
          "durationTicks": 72,
          "midi": 68,
          "name": "G#4",
          "ticks": 17440,
          "time": 21.8,
          "velocity": 0.7874015748031497
        },
        {
          "duration": 0.17999999999999972,
          "durationTicks": 144,
          "midi": 69,
          "name": "A4",
          "ticks": 17520,
          "time": 21.9,
          "velocity": 0.7874015748031497
        },
        {
          "duration": 0.08999999999999986,
          "durationTicks": 72,
          "midi": 71,
          "name": "B4",
          "ticks": 17680,
          "time": 22.1,
          "velocity": 0.7874015748031497
        },
        {
          "duration": 0.17999999999999972,
          "durationTicks": 144,
          "midi": 72,
          "name": "C5",
          "ticks": 17760,
          "time": 22.2,
          "velocity": 0.7874015748031497
        },
        {
          "duration": 0.0899999999999963,
          "durationTicks": 72,
          "midi": 76,
          "name": "E5",
          "ticks": 17920,
          "time": 22.400000000000002,
          "velocity": 0.7874015748031497
        },
        {
          "duration": 0.17999999999999616,
          "durationTicks": 144,
          "midi": 79,
          "name": "G5",
          "ticks": 18000,
          "time": 22.5,
          "velocity": 0.7874015748031497
        },
        {
          "duration": 0.08999999999999986,
          "durationTicks": 72,
          "midi": 72,
          "name": "C5",
          "ticks": 18160,
          "time": 22.7,
          "velocity": 0.7874015748031497
        },
        {
          "duration": 0.17999999999999616,
          "durationTicks": 144,
          "midi": 74,
          "name": "D5",
          "ticks": 18240,
          "time": 22.8,
          "velocity": 0.7874015748031497
        },
        {
          "duration": 0.08999999999999986,
          "durationTicks": 72,
          "midi": 76,
          "name": "E5",
          "ticks": 18400,
          "time": 23,
          "velocity": 0.7874015748031497
        },
        {
          "duration": 0.17999999999999972,
          "durationTicks": 144,
          "midi": 78,
          "name": "F#5",
          "ticks": 18480,
          "time": 23.099999999999998,
          "velocity": 0.7874015748031497
        },
        {
          "duration": 0.08999999999999986,
          "durationTicks": 72,
          "midi": 72,
          "name": "C5",
          "ticks": 18640,
          "time": 23.3,
          "velocity": 0.7874015748031497
        },
        {
          "duration": 0.08999999999999986,
          "durationTicks": 72,
          "midi": 76,
          "name": "E5",
          "ticks": 18720,
          "time": 23.4,
          "velocity": 0.7874015748031497
        },
        {
          "duration": 0.09000000000000341,
          "durationTicks": 72,
          "midi": 78,
          "name": "F#5",
          "ticks": 18800,
          "time": 23.499999999999996,
          "velocity": 0.7874015748031497
        },
        {
          "duration": 0.08999999999999986,
          "durationTicks": 72,
          "midi": 79,
          "name": "G5",
          "ticks": 18880,
          "time": 23.6,
          "velocity": 0.7874015748031497
        },
        {
          "duration": 0.08999999999999986,
          "durationTicks": 72,
          "midi": 81,
          "name": "A5",
          "ticks": 18960,
          "time": 23.7,
          "velocity": 0.7874015748031497
        },
        {
          "duration": 0.09000000000000341,
          "durationTicks": 72,
          "midi": 83,
          "name": "B5",
          "ticks": 19040,
          "time": 23.799999999999997,
          "velocity": 0.7874015748031497
        },
        {
          "duration": 0.0899999999999963,
          "durationTicks": 72,
          "midi": 84,
          "name": "C6",
          "ticks": 19120,
          "time": 23.900000000000002,
          "velocity": 0.7874015748031497
        },
        {
          "duration": 0.19999999999999574,
          "durationTicks": 160,
          "midi": 71,
          "name": "B4",
          "ticks": 38400,
          "time": 48,
          "velocity": 0.7874015748031497
        },
        {
          "duration": 0.10000000000000142,
          "durationTicks": 80,
          "midi": 72,
          "name": "C5",
          "ticks": 38560,
          "time": 48.199999999999996,
          "velocity": 0.7874015748031497
        },
        {
          "duration": 0.19999999999999574,
          "durationTicks": 160,
          "midi": 76,
          "name": "E5",
          "ticks": 38640,
          "time": 48.3,
          "velocity": 0.7874015748031497
        },
        {
          "duration": 0.10000000000000853,
          "durationTicks": 80,
          "midi": 79,
          "name": "G5",
          "ticks": 38800,
          "time": 48.49999999999999,
          "velocity": 0.7874015748031497
        },
        {
          "duration": 1.5,
          "durationTicks": 1200,
          "midi": 83,
          "name": "B5",
          "ticks": 38880,
          "time": 48.6,
          "velocity": 0.7874015748031497
        },
        {
          "duration": 0.29999999999999716,
          "durationTicks": 240,
          "midi": 81,
          "name": "A5",
          "ticks": 40080,
          "time": 50.1,
          "velocity": 0.7874015748031497
        },
        {
          "duration": 0.8999999999999986,
          "durationTicks": 720,
          "midi": 86,
          "name": "D6",
          "ticks": 40320,
          "time": 50.4,
          "velocity": 0.7874015748031497
        },
        {
          "duration": 0.17999999999999972,
          "durationTicks": 144,
          "midi": 84,
          "name": "C6",
          "ticks": 41040,
          "time": 51.3,
          "velocity": 0.7874015748031497
        },
        {
          "duration": 0.09000000000000341,
          "durationTicks": 72,
          "midi": 86,
          "name": "D6",
          "ticks": 41200,
          "time": 51.49999999999999,
          "velocity": 0.7874015748031497
        },
        {
          "duration": 0.28000000000000114,
          "durationTicks": 224,
          "midi": 83,
          "name": "B5",
          "ticks": 41280,
          "time": 51.6,
          "velocity": 0.7874015748031497
        },
        {
          "duration": 0.17999999999999972,
          "durationTicks": 144,
          "midi": 79,
          "name": "G5",
          "ticks": 41520,
          "time": 51.9,
          "velocity": 0.7874015748031497
        },
        {
          "duration": 0.7000000000000028,
          "durationTicks": 560,
          "midi": 76,
          "name": "E5",
          "ticks": 41680,
          "time": 52.099999999999994,
          "velocity": 0.7874015748031497
        },
        {
          "duration": 0.29999999999999716,
          "durationTicks": 240,
          "midi": 83,
          "name": "B5",
          "ticks": 47040,
          "time": 58.8,
          "velocity": 0.7874015748031497
        },
        {
          "duration": 0.10000000000000853,
          "durationTicks": 80,
          "midi": 79,
          "name": "G5",
          "ticks": 47280,
          "time": 59.099999999999994,
          "velocity": 0.7874015748031497
        },
        {
          "duration": 0.09999999999999432,
          "durationTicks": 80,
          "midi": 76,
          "name": "E5",
          "ticks": 47360,
          "time": 59.2,
          "velocity": 0.7874015748031497
        },
        {
          "duration": 0.10000000000000142,
          "durationTicks": 80,
          "midi": 72,
          "name": "C5",
          "ticks": 47440,
          "time": 59.3,
          "velocity": 0.7874015748031497
        },
        {
          "duration": 0.19999999999999574,
          "durationTicks": 160,
          "midi": 71,
          "name": "B4",
          "ticks": 47520,
          "time": 59.4,
          "velocity": 0.7874015748031497
        },
        {
          "duration": 0.10000000000000142,
          "durationTicks": 80,
          "midi": 74,
          "name": "D5",
          "ticks": 47680,
          "time": 59.599999999999994,
          "velocity": 0.7874015748031497
        },
        {
          "duration": 0.19999999999999574,
          "durationTicks": 160,
          "midi": 72,
          "name": "C5",
          "ticks": 47760,
          "time": 59.699999999999996,
          "velocity": 0.7874015748031497
        },
        {
          "duration": 0.09000000000000341,
          "durationTicks": 72,
          "midi": 66,
          "name": "F#4",
          "ticks": 47920,
          "time": 59.89999999999999,
          "velocity": 0.7874015748031497
        },
        {
          "duration": 0.19999999999999574,
          "durationTicks": 160,
          "midi": 71,
          "name": "B4",
          "ticks": 48000,
          "time": 60,
          "velocity": 0.7874015748031497
        },
        {
          "duration": 0.09000000000000341,
          "durationTicks": 72,
          "midi": 68,
          "name": "G#4",
          "ticks": 48160,
          "time": 60.199999999999996,
          "velocity": 0.7874015748031497
        },
        {
          "duration": 0.17999999999999972,
          "durationTicks": 144,
          "midi": 69,
          "name": "A4",
          "ticks": 48240,
          "time": 60.3,
          "velocity": 0.7874015748031497
        },
        {
          "duration": 0.09000000000000341,
          "durationTicks": 72,
          "midi": 71,
          "name": "B4",
          "ticks": 48400,
          "time": 60.49999999999999,
          "velocity": 0.7874015748031497
        },
        {
          "duration": 0.17999999999999972,
          "durationTicks": 144,
          "midi": 72,
          "name": "C5",
          "ticks": 48480,
          "time": 60.599999999999994,
          "velocity": 0.7874015748031497
        },
        {
          "duration": 0.09000000000000341,
          "durationTicks": 72,
          "midi": 76,
          "name": "E5",
          "ticks": 48640,
          "time": 60.8,
          "velocity": 0.7874015748031497
        },
        {
          "duration": 0.17999999999999972,
          "durationTicks": 144,
          "midi": 79,
          "name": "G5",
          "ticks": 48720,
          "time": 60.9,
          "velocity": 0.7874015748031497
        },
        {
          "duration": 0.09000000000000341,
          "durationTicks": 72,
          "midi": 72,
          "name": "C5",
          "ticks": 48880,
          "time": 61.099999999999994,
          "velocity": 0.7874015748031497
        },
        {
          "duration": 0.17999999999999972,
          "durationTicks": 144,
          "midi": 74,
          "name": "D5",
          "ticks": 48960,
          "time": 61.199999999999996,
          "velocity": 0.7874015748031497
        },
        {
          "duration": 0.09000000000000341,
          "durationTicks": 72,
          "midi": 76,
          "name": "E5",
          "ticks": 49120,
          "time": 61.39999999999999,
          "velocity": 0.7874015748031497
        },
        {
          "duration": 0.1799999999999926,
          "durationTicks": 144,
          "midi": 78,
          "name": "F#5",
          "ticks": 49200,
          "time": 61.5,
          "velocity": 0.7874015748031497
        },
        {
          "duration": 0.09000000000000341,
          "durationTicks": 72,
          "midi": 72,
          "name": "C5",
          "ticks": 49360,
          "time": 61.699999999999996,
          "velocity": 0.7874015748031497
        },
        {
          "duration": 0.09000000000000341,
          "durationTicks": 72,
          "midi": 76,
          "name": "E5",
          "ticks": 49440,
          "time": 61.8,
          "velocity": 0.7874015748031497
        },
        {
          "duration": 0.0899999999999963,
          "durationTicks": 72,
          "midi": 78,
          "name": "F#5",
          "ticks": 49520,
          "time": 61.9,
          "velocity": 0.7874015748031497
        },
        {
          "duration": 0.09000000000000341,
          "durationTicks": 72,
          "midi": 79,
          "name": "G5",
          "ticks": 49600,
          "time": 61.99999999999999,
          "velocity": 0.7874015748031497
        },
        {
          "duration": 0.09000000000000341,
          "durationTicks": 72,
          "midi": 81,
          "name": "A5",
          "ticks": 49680,
          "time": 62.099999999999994,
          "velocity": 0.7874015748031497
        },
        {
          "duration": 0.0899999999999892,
          "durationTicks": 72,
          "midi": 83,
          "name": "B5",
          "ticks": 49760,
          "time": 62.2,
          "velocity": 0.7874015748031497
        },
        {
          "duration": 0.09000000000000341,
          "durationTicks": 72,
          "midi": 84,
          "name": "C6",
          "ticks": 49840,
          "time": 62.3,
          "velocity": 0.7874015748031497
        },
        {
          "duration": 0.09999999999999432,
          "durationTicks": 80,
          "midi": 71,
          "name": "B4",
          "ticks": 69120,
          "time": 86.39999999999999,
          "velocity": 0.7874015748031497
        },
        {
          "duration": 0.10000000000002274,
          "durationTicks": 80,
          "midi": 72,
          "name": "C5",
          "ticks": 69200,
          "time": 86.49999999999999,
          "velocity": 0.7874015748031497
        },
        {
          "duration": 0.09999999999999432,
          "durationTicks": 80,
          "midi": 74,
          "name": "D5",
          "ticks": 69280,
          "time": 86.60000000000001,
          "velocity": 0.7874015748031497
        },
        {
          "duration": 0.09999999999999432,
          "durationTicks": 80,
          "midi": 72,
          "name": "C5",
          "ticks": 69360,
          "time": 86.7,
          "velocity": 0.7874015748031497
        },
        {
          "duration": 0.10000000000000853,
          "durationTicks": 80,
          "midi": 74,
          "name": "D5",
          "ticks": 69440,
          "time": 86.8,
          "velocity": 0.7874015748031497
        },
        {
          "duration": 0.09999999999999432,
          "durationTicks": 80,
          "midi": 76,
          "name": "E5",
          "ticks": 69520,
          "time": 86.9,
          "velocity": 0.7874015748031497
        },
        {
          "duration": 1.5,
          "durationTicks": 1200,
          "midi": 83,
          "name": "B5",
          "ticks": 69600,
          "time": 87,
          "velocity": 0.7874015748031497
        },
        {
          "duration": 0.29999999999999716,
          "durationTicks": 240,
          "midi": 81,
          "name": "A5",
          "ticks": 70800,
          "time": 88.5,
          "velocity": 0.7874015748031497
        },
        {
          "duration": 0.9000000000000057,
          "durationTicks": 720,
          "midi": 86,
          "name": "D6",
          "ticks": 71040,
          "time": 88.8,
          "velocity": 0.7874015748031497
        },
        {
          "duration": 0.18000000000000682,
          "durationTicks": 144,
          "midi": 84,
          "name": "C6",
          "ticks": 71760,
          "time": 89.7,
          "velocity": 0.7874015748031497
        },
        {
          "duration": 0.0899999999999892,
          "durationTicks": 72,
          "midi": 86,
          "name": "D6",
          "ticks": 71920,
          "time": 89.9,
          "velocity": 0.7874015748031497
        },
        {
          "duration": 0.28000000000000114,
          "durationTicks": 224,
          "midi": 83,
          "name": "B5",
          "ticks": 72000,
          "time": 90,
          "velocity": 0.7874015748031497
        },
        {
          "duration": 0.18000000000000682,
          "durationTicks": 144,
          "midi": 79,
          "name": "G5",
          "ticks": 72240,
          "time": 90.3,
          "velocity": 0.7874015748031497
        },
        {
          "duration": 0.7000000000000028,
          "durationTicks": 560,
          "midi": 76,
          "name": "E5",
          "ticks": 72400,
          "time": 90.5,
          "velocity": 0.7874015748031497
        },
        {
          "duration": 0.29999999999999716,
          "durationTicks": 240,
          "midi": 83,
          "name": "B5",
          "ticks": 77760,
          "time": 97.2,
          "velocity": 0.7874015748031497
        },
        {
          "duration": 0.09999999999999432,
          "durationTicks": 80,
          "midi": 79,
          "name": "G5",
          "ticks": 78000,
          "time": 97.5,
          "velocity": 0.7874015748031497
        },
        {
          "duration": 0.10000000000000853,
          "durationTicks": 80,
          "midi": 76,
          "name": "E5",
          "ticks": 78080,
          "time": 97.6,
          "velocity": 0.7874015748031497
        },
        {
          "duration": 0.09999999999999432,
          "durationTicks": 80,
          "midi": 72,
          "name": "C5",
          "ticks": 78160,
          "time": 97.7,
          "velocity": 0.7874015748031497
        },
        {
          "duration": 0.20000000000000284,
          "durationTicks": 160,
          "midi": 71,
          "name": "B4",
          "ticks": 78240,
          "time": 97.8,
          "velocity": 0.7874015748031497
        },
        {
          "duration": 0.09999999999999432,
          "durationTicks": 80,
          "midi": 74,
          "name": "D5",
          "ticks": 78400,
          "time": 98,
          "velocity": 0.7874015748031497
        },
        {
          "duration": 0.20000000000000284,
          "durationTicks": 160,
          "midi": 72,
          "name": "C5",
          "ticks": 78480,
          "time": 98.1,
          "velocity": 0.7874015748031497
        },
        {
          "duration": 0.0899999999999892,
          "durationTicks": 72,
          "midi": 66,
          "name": "F#4",
          "ticks": 78640,
          "time": 98.3,
          "velocity": 0.7874015748031497
        },
        {
          "duration": 0.20000000000001705,
          "durationTicks": 160,
          "midi": 71,
          "name": "B4",
          "ticks": 78720,
          "time": 98.39999999999999,
          "velocity": 0.7874015748031497
        },
        {
          "duration": 0.08999999999997499,
          "durationTicks": 72,
          "midi": 68,
          "name": "G#4",
          "ticks": 78880,
          "time": 98.60000000000001,
          "velocity": 0.7874015748031497
        },
        {
          "duration": 0.18000000000000682,
          "durationTicks": 144,
          "midi": 69,
          "name": "A4",
          "ticks": 78960,
          "time": 98.7,
          "velocity": 0.7874015748031497
        },
        {
          "duration": 0.0899999999999892,
          "durationTicks": 72,
          "midi": 71,
          "name": "B4",
          "ticks": 79120,
          "time": 98.9,
          "velocity": 0.7874015748031497
        },
        {
          "duration": 0.18000000000000682,
          "durationTicks": 144,
          "midi": 72,
          "name": "C5",
          "ticks": 79200,
          "time": 99,
          "velocity": 0.7874015748031497
        },
        {
          "duration": 0.0899999999999892,
          "durationTicks": 72,
          "midi": 76,
          "name": "E5",
          "ticks": 79360,
          "time": 99.2,
          "velocity": 0.7874015748031497
        },
        {
          "duration": 0.18000000000000682,
          "durationTicks": 144,
          "midi": 79,
          "name": "G5",
          "ticks": 79440,
          "time": 99.3,
          "velocity": 0.7874015748031497
        },
        {
          "duration": 0.0899999999999892,
          "durationTicks": 72,
          "midi": 72,
          "name": "C5",
          "ticks": 79600,
          "time": 99.5,
          "velocity": 0.7874015748031497
        },
        {
          "duration": 0.18000000000000682,
          "durationTicks": 144,
          "midi": 74,
          "name": "D5",
          "ticks": 79680,
          "time": 99.6,
          "velocity": 0.7874015748031497
        },
        {
          "duration": 0.0899999999999892,
          "durationTicks": 72,
          "midi": 76,
          "name": "E5",
          "ticks": 79840,
          "time": 99.8,
          "velocity": 0.7874015748031497
        },
        {
          "duration": 0.18000000000000682,
          "durationTicks": 144,
          "midi": 78,
          "name": "F#5",
          "ticks": 79920,
          "time": 99.89999999999999,
          "velocity": 0.7874015748031497
        },
        {
          "duration": 0.08999999999997499,
          "durationTicks": 72,
          "midi": 72,
          "name": "C5",
          "ticks": 80080,
          "time": 100.10000000000001,
          "velocity": 0.7874015748031497
        },
        {
          "duration": 0.09000000000000341,
          "durationTicks": 72,
          "midi": 76,
          "name": "E5",
          "ticks": 80160,
          "time": 100.2,
          "velocity": 0.7874015748031497
        },
        {
          "duration": 0.09000000000000341,
          "durationTicks": 72,
          "midi": 78,
          "name": "F#5",
          "ticks": 80240,
          "time": 100.3,
          "velocity": 0.7874015748031497
        },
        {
          "duration": 0.0899999999999892,
          "durationTicks": 72,
          "midi": 79,
          "name": "G5",
          "ticks": 80320,
          "time": 100.4,
          "velocity": 0.7874015748031497
        },
        {
          "duration": 0.09000000000000341,
          "durationTicks": 72,
          "midi": 81,
          "name": "A5",
          "ticks": 80400,
          "time": 100.5,
          "velocity": 0.7874015748031497
        },
        {
          "duration": 0.09000000000000341,
          "durationTicks": 72,
          "midi": 83,
          "name": "B5",
          "ticks": 80480,
          "time": 100.6,
          "velocity": 0.7874015748031497
        },
        {
          "duration": 0.0899999999999892,
          "durationTicks": 72,
          "midi": 84,
          "name": "C6",
          "ticks": 80560,
          "time": 100.7,
          "velocity": 0.7874015748031497
        }
      ]
    },
    {
      "channel": 0,
      "controlChanges": {
        "0": [
          {
            "number": 0,
            "ticks": 676,
            "time": 0.8450000000000001,
            "value": 0
          }
        ],
        "32": [
          {
            "number": 32,
            "ticks": 680,
            "time": 0.85,
            "value": 0.023622047244094488
          }
        ]
      },
      "pitchBends": [],
      "instrument": {
        "family": "piano",
        "number": 0,
        "name": "acoustic grand piano"
      },
      "name": "",
      "notes": [],
      "endOfTrackTicks": 92152
    },
    {
      "channel": 8,
      "controlChanges": {
        "1": [
          {
            "number": 1,
            "ticks": 3020,
            "time": 3.775,
            "value": 0
          },
          {
            "number": 1,
            "ticks": 4860,
            "time": 6.075,
            "value": 0
          },
          {
            "number": 1,
            "ticks": 5420,
            "time": 6.7749999999999995,
            "value": 0
          },
          {
            "number": 1,
            "ticks": 7580,
            "time": 9.475,
            "value": 0
          },
          {
            "number": 1,
            "ticks": 8700,
            "time": 10.875,
            "value": 0
          },
          {
            "number": 1,
            "ticks": 9260,
            "time": 11.575000000000001,
            "value": 0
          },
          {
            "number": 1,
            "ticks": 11180,
            "time": 13.975,
            "value": 0
          },
          {
            "number": 1,
            "ticks": 12540,
            "time": 15.674999999999999,
            "value": 0
          },
          {
            "number": 1,
            "ticks": 13100,
            "time": 16.375,
            "value": 0
          },
          {
            "number": 1,
            "ticks": 15260,
            "time": 19.075,
            "value": 0
          },
          {
            "number": 1,
            "ticks": 16380,
            "time": 20.474999999999998,
            "value": 0
          },
          {
            "number": 1,
            "ticks": 16940,
            "time": 21.174999999999997,
            "value": 0
          },
          {
            "number": 1,
            "ticks": 19020,
            "time": 23.775,
            "value": 0
          },
          {
            "number": 1,
            "ticks": 33740,
            "time": 42.175000000000004,
            "value": 0
          },
          {
            "number": 1,
            "ticks": 35580,
            "time": 44.475,
            "value": 0
          },
          {
            "number": 1,
            "ticks": 36140,
            "time": 45.175000000000004,
            "value": 0
          },
          {
            "number": 1,
            "ticks": 38300,
            "time": 47.875,
            "value": 0
          },
          {
            "number": 1,
            "ticks": 39420,
            "time": 49.275,
            "value": 0
          },
          {
            "number": 1,
            "ticks": 39980,
            "time": 49.975,
            "value": 0
          },
          {
            "number": 1,
            "ticks": 41900,
            "time": 52.375,
            "value": 0
          },
          {
            "number": 1,
            "ticks": 43260,
            "time": 54.074999999999996,
            "value": 0
          },
          {
            "number": 1,
            "ticks": 43820,
            "time": 54.775,
            "value": 0
          },
          {
            "number": 1,
            "ticks": 45980,
            "time": 57.475,
            "value": 0
          },
          {
            "number": 1,
            "ticks": 47100,
            "time": 58.875,
            "value": 0
          },
          {
            "number": 1,
            "ticks": 47660,
            "time": 59.575,
            "value": 0
          },
          {
            "number": 1,
            "ticks": 49740,
            "time": 62.175,
            "value": 0
          },
          {
            "number": 1,
            "ticks": 64460,
            "time": 80.57499999999999,
            "value": 0
          },
          {
            "number": 1,
            "ticks": 66300,
            "time": 82.875,
            "value": 0
          },
          {
            "number": 1,
            "ticks": 66860,
            "time": 83.57499999999999,
            "value": 0
          },
          {
            "number": 1,
            "ticks": 69020,
            "time": 86.27499999999999,
            "value": 0
          },
          {
            "number": 1,
            "ticks": 70140,
            "time": 87.675,
            "value": 0
          },
          {
            "number": 1,
            "ticks": 70700,
            "time": 88.37499999999999,
            "value": 0
          },
          {
            "number": 1,
            "ticks": 72620,
            "time": 90.77499999999999,
            "value": 0
          },
          {
            "number": 1,
            "ticks": 73980,
            "time": 92.475,
            "value": 0
          },
          {
            "number": 1,
            "ticks": 74540,
            "time": 93.175,
            "value": 0
          },
          {
            "number": 1,
            "ticks": 76700,
            "time": 95.87499999999999,
            "value": 0
          },
          {
            "number": 1,
            "ticks": 77820,
            "time": 97.27499999999999,
            "value": 0
          },
          {
            "number": 1,
            "ticks": 78380,
            "time": 97.975,
            "value": 0
          },
          {
            "number": 1,
            "ticks": 80460,
            "time": 100.575,
            "value": 0
          }
        ],
        "6": [
          {
            "number": 6,
            "ticks": 2880,
            "time": 3.5999999999999996,
            "value": 0.09448818897637795
          },
          {
            "number": 6,
            "ticks": 4720,
            "time": 5.9,
            "value": 0.09448818897637795
          },
          {
            "number": 6,
            "ticks": 5280,
            "time": 6.6,
            "value": 0.09448818897637795
          },
          {
            "number": 6,
            "ticks": 7440,
            "time": 9.299999999999999,
            "value": 0.09448818897637795
          },
          {
            "number": 6,
            "ticks": 8560,
            "time": 10.7,
            "value": 0.09448818897637795
          },
          {
            "number": 6,
            "ticks": 9120,
            "time": 11.4,
            "value": 0.09448818897637795
          },
          {
            "number": 6,
            "ticks": 11040,
            "time": 13.799999999999999,
            "value": 0.09448818897637795
          },
          {
            "number": 6,
            "ticks": 12400,
            "time": 15.499999999999998,
            "value": 0.09448818897637795
          },
          {
            "number": 6,
            "ticks": 12960,
            "time": 16.2,
            "value": 0.09448818897637795
          },
          {
            "number": 6,
            "ticks": 15120,
            "time": 18.9,
            "value": 0.09448818897637795
          },
          {
            "number": 6,
            "ticks": 16240,
            "time": 20.3,
            "value": 0.09448818897637795
          },
          {
            "number": 6,
            "ticks": 16800,
            "time": 21,
            "value": 0.09448818897637795
          },
          {
            "number": 6,
            "ticks": 18880,
            "time": 23.6,
            "value": 0.09448818897637795
          },
          {
            "number": 6,
            "ticks": 33600,
            "time": 42,
            "value": 0.09448818897637795
          },
          {
            "number": 6,
            "ticks": 35440,
            "time": 44.3,
            "value": 0.09448818897637795
          },
          {
            "number": 6,
            "ticks": 36000,
            "time": 45,
            "value": 0.09448818897637795
          },
          {
            "number": 6,
            "ticks": 38160,
            "time": 47.699999999999996,
            "value": 0.09448818897637795
          },
          {
            "number": 6,
            "ticks": 39280,
            "time": 49.099999999999994,
            "value": 0.09448818897637795
          },
          {
            "number": 6,
            "ticks": 39840,
            "time": 49.8,
            "value": 0.09448818897637795
          },
          {
            "number": 6,
            "ticks": 41760,
            "time": 52.199999999999996,
            "value": 0.09448818897637795
          },
          {
            "number": 6,
            "ticks": 43120,
            "time": 53.9,
            "value": 0.09448818897637795
          },
          {
            "number": 6,
            "ticks": 43680,
            "time": 54.6,
            "value": 0.09448818897637795
          },
          {
            "number": 6,
            "ticks": 45840,
            "time": 57.3,
            "value": 0.09448818897637795
          },
          {
            "number": 6,
            "ticks": 46960,
            "time": 58.699999999999996,
            "value": 0.09448818897637795
          },
          {
            "number": 6,
            "ticks": 47520,
            "time": 59.4,
            "value": 0.09448818897637795
          },
          {
            "number": 6,
            "ticks": 49600,
            "time": 61.99999999999999,
            "value": 0.09448818897637795
          },
          {
            "number": 6,
            "ticks": 64320,
            "time": 80.39999999999999,
            "value": 0.09448818897637795
          },
          {
            "number": 6,
            "ticks": 66160,
            "time": 82.7,
            "value": 0.09448818897637795
          },
          {
            "number": 6,
            "ticks": 66720,
            "time": 83.39999999999999,
            "value": 0.09448818897637795
          },
          {
            "number": 6,
            "ticks": 68880,
            "time": 86.1,
            "value": 0.09448818897637795
          },
          {
            "number": 6,
            "ticks": 70000,
            "time": 87.5,
            "value": 0.09448818897637795
          },
          {
            "number": 6,
            "ticks": 70560,
            "time": 88.2,
            "value": 0.09448818897637795
          },
          {
            "number": 6,
            "ticks": 72480,
            "time": 90.6,
            "value": 0.09448818897637795
          },
          {
            "number": 6,
            "ticks": 73840,
            "time": 92.3,
            "value": 0.09448818897637795
          },
          {
            "number": 6,
            "ticks": 74400,
            "time": 93,
            "value": 0.09448818897637795
          },
          {
            "number": 6,
            "ticks": 76560,
            "time": 95.7,
            "value": 0.09448818897637795
          },
          {
            "number": 6,
            "ticks": 77680,
            "time": 97.10000000000001,
            "value": 0.09448818897637795
          },
          {
            "number": 6,
            "ticks": 78240,
            "time": 97.8,
            "value": 0.09448818897637795
          },
          {
            "number": 6,
            "ticks": 80320,
            "time": 100.4,
            "value": 0.09448818897637795
          }
        ],
        "7": [
          {
            "number": 7,
            "ticks": 688,
            "time": 0.86,
            "value": 0.7874015748031497
          }
        ],
        "10": [
          {
            "number": 10,
            "ticks": 692,
            "time": 0.865,
            "value": 0.5039370078740157
          }
        ],
        "91": [
          {
            "number": 91,
            "ticks": 696,
            "time": 0.87,
            "value": 0
          }
        ],
        "93": [
          {
            "number": 93,
            "ticks": 700,
            "time": 0.8749999999999999,
            "value": 1
          }
        ],
        "100": [
          {
            "number": 100,
            "ticks": 2880,
            "time": 3.5999999999999996,
            "value": 0
          },
          {
            "number": 100,
            "ticks": 4720,
            "time": 5.9,
            "value": 0
          },
          {
            "number": 100,
            "ticks": 5280,
            "time": 6.6,
            "value": 0
          },
          {
            "number": 100,
            "ticks": 7440,
            "time": 9.299999999999999,
            "value": 0
          },
          {
            "number": 100,
            "ticks": 8560,
            "time": 10.7,
            "value": 0
          },
          {
            "number": 100,
            "ticks": 9120,
            "time": 11.4,
            "value": 0
          },
          {
            "number": 100,
            "ticks": 11040,
            "time": 13.799999999999999,
            "value": 0
          },
          {
            "number": 100,
            "ticks": 12400,
            "time": 15.499999999999998,
            "value": 0
          },
          {
            "number": 100,
            "ticks": 12960,
            "time": 16.2,
            "value": 0
          },
          {
            "number": 100,
            "ticks": 15120,
            "time": 18.9,
            "value": 0
          },
          {
            "number": 100,
            "ticks": 16240,
            "time": 20.3,
            "value": 0
          },
          {
            "number": 100,
            "ticks": 16800,
            "time": 21,
            "value": 0
          },
          {
            "number": 100,
            "ticks": 18880,
            "time": 23.6,
            "value": 0
          },
          {
            "number": 100,
            "ticks": 33600,
            "time": 42,
            "value": 0
          },
          {
            "number": 100,
            "ticks": 35440,
            "time": 44.3,
            "value": 0
          },
          {
            "number": 100,
            "ticks": 36000,
            "time": 45,
            "value": 0
          },
          {
            "number": 100,
            "ticks": 38160,
            "time": 47.699999999999996,
            "value": 0
          },
          {
            "number": 100,
            "ticks": 39280,
            "time": 49.099999999999994,
            "value": 0
          },
          {
            "number": 100,
            "ticks": 39840,
            "time": 49.8,
            "value": 0
          },
          {
            "number": 100,
            "ticks": 41760,
            "time": 52.199999999999996,
            "value": 0
          },
          {
            "number": 100,
            "ticks": 43120,
            "time": 53.9,
            "value": 0
          },
          {
            "number": 100,
            "ticks": 43680,
            "time": 54.6,
            "value": 0
          },
          {
            "number": 100,
            "ticks": 45840,
            "time": 57.3,
            "value": 0
          },
          {
            "number": 100,
            "ticks": 46960,
            "time": 58.699999999999996,
            "value": 0
          },
          {
            "number": 100,
            "ticks": 47520,
            "time": 59.4,
            "value": 0
          },
          {
            "number": 100,
            "ticks": 49600,
            "time": 61.99999999999999,
            "value": 0
          },
          {
            "number": 100,
            "ticks": 64320,
            "time": 80.39999999999999,
            "value": 0
          },
          {
            "number": 100,
            "ticks": 66160,
            "time": 82.7,
            "value": 0
          },
          {
            "number": 100,
            "ticks": 66720,
            "time": 83.39999999999999,
            "value": 0
          },
          {
            "number": 100,
            "ticks": 68880,
            "time": 86.1,
            "value": 0
          },
          {
            "number": 100,
            "ticks": 70000,
            "time": 87.5,
            "value": 0
          },
          {
            "number": 100,
            "ticks": 70560,
            "time": 88.2,
            "value": 0
          },
          {
            "number": 100,
            "ticks": 72480,
            "time": 90.6,
            "value": 0
          },
          {
            "number": 100,
            "ticks": 73840,
            "time": 92.3,
            "value": 0
          },
          {
            "number": 100,
            "ticks": 74400,
            "time": 93,
            "value": 0
          },
          {
            "number": 100,
            "ticks": 76560,
            "time": 95.7,
            "value": 0
          },
          {
            "number": 100,
            "ticks": 77680,
            "time": 97.10000000000001,
            "value": 0
          },
          {
            "number": 100,
            "ticks": 78240,
            "time": 97.8,
            "value": 0
          },
          {
            "number": 100,
            "ticks": 80320,
            "time": 100.4,
            "value": 0
          }
        ],
        "101": [
          {
            "number": 101,
            "ticks": 2880,
            "time": 3.5999999999999996,
            "value": 0
          },
          {
            "number": 101,
            "ticks": 4720,
            "time": 5.9,
            "value": 0
          },
          {
            "number": 101,
            "ticks": 5280,
            "time": 6.6,
            "value": 0
          },
          {
            "number": 101,
            "ticks": 7440,
            "time": 9.299999999999999,
            "value": 0
          },
          {
            "number": 101,
            "ticks": 8560,
            "time": 10.7,
            "value": 0
          },
          {
            "number": 101,
            "ticks": 9120,
            "time": 11.4,
            "value": 0
          },
          {
            "number": 101,
            "ticks": 11040,
            "time": 13.799999999999999,
            "value": 0
          },
          {
            "number": 101,
            "ticks": 12400,
            "time": 15.499999999999998,
            "value": 0
          },
          {
            "number": 101,
            "ticks": 12960,
            "time": 16.2,
            "value": 0
          },
          {
            "number": 101,
            "ticks": 15120,
            "time": 18.9,
            "value": 0
          },
          {
            "number": 101,
            "ticks": 16240,
            "time": 20.3,
            "value": 0
          },
          {
            "number": 101,
            "ticks": 16800,
            "time": 21,
            "value": 0
          },
          {
            "number": 101,
            "ticks": 18880,
            "time": 23.6,
            "value": 0
          },
          {
            "number": 101,
            "ticks": 33600,
            "time": 42,
            "value": 0
          },
          {
            "number": 101,
            "ticks": 35440,
            "time": 44.3,
            "value": 0
          },
          {
            "number": 101,
            "ticks": 36000,
            "time": 45,
            "value": 0
          },
          {
            "number": 101,
            "ticks": 38160,
            "time": 47.699999999999996,
            "value": 0
          },
          {
            "number": 101,
            "ticks": 39280,
            "time": 49.099999999999994,
            "value": 0
          },
          {
            "number": 101,
            "ticks": 39840,
            "time": 49.8,
            "value": 0
          },
          {
            "number": 101,
            "ticks": 41760,
            "time": 52.199999999999996,
            "value": 0
          },
          {
            "number": 101,
            "ticks": 43120,
            "time": 53.9,
            "value": 0
          },
          {
            "number": 101,
            "ticks": 43680,
            "time": 54.6,
            "value": 0
          },
          {
            "number": 101,
            "ticks": 45840,
            "time": 57.3,
            "value": 0
          },
          {
            "number": 101,
            "ticks": 46960,
            "time": 58.699999999999996,
            "value": 0
          },
          {
            "number": 101,
            "ticks": 47520,
            "time": 59.4,
            "value": 0
          },
          {
            "number": 101,
            "ticks": 49600,
            "time": 61.99999999999999,
            "value": 0
          },
          {
            "number": 101,
            "ticks": 64320,
            "time": 80.39999999999999,
            "value": 0
          },
          {
            "number": 101,
            "ticks": 66160,
            "time": 82.7,
            "value": 0
          },
          {
            "number": 101,
            "ticks": 66720,
            "time": 83.39999999999999,
            "value": 0
          },
          {
            "number": 101,
            "ticks": 68880,
            "time": 86.1,
            "value": 0
          },
          {
            "number": 101,
            "ticks": 70000,
            "time": 87.5,
            "value": 0
          },
          {
            "number": 101,
            "ticks": 70560,
            "time": 88.2,
            "value": 0
          },
          {
            "number": 101,
            "ticks": 72480,
            "time": 90.6,
            "value": 0
          },
          {
            "number": 101,
            "ticks": 73840,
            "time": 92.3,
            "value": 0
          },
          {
            "number": 101,
            "ticks": 74400,
            "time": 93,
            "value": 0
          },
          {
            "number": 101,
            "ticks": 76560,
            "time": 95.7,
            "value": 0
          },
          {
            "number": 101,
            "ticks": 77680,
            "time": 97.10000000000001,
            "value": 0
          },
          {
            "number": 101,
            "ticks": 78240,
            "time": 97.8,
            "value": 0
          },
          {
            "number": 101,
            "ticks": 80320,
            "time": 100.4,
            "value": 0
          }
        ]
      },
      "pitchBends": [
        {
          "ticks": 2880,
          "time": 3.5999999999999996,
          "value": -0.08544921875
        },
        {
          "ticks": 2940,
          "time": 3.675,
          "value": -0.048828125
        },
        {
          "ticks": 2950,
          "time": 3.6874999999999996,
          "value": -0.03662109375
        },
        {
          "ticks": 2960,
          "time": 3.7,
          "value": -0.0244140625
        },
        {
          "ticks": 2980,
          "time": 3.7249999999999996,
          "value": -0.01220703125
        },
        {
          "ticks": 3000,
          "time": 3.75,
          "value": 0
        },
        {
          "ticks": 3020,
          "time": 3.775,
          "value": 0
        },
        {
          "ticks": 3020,
          "time": 3.775,
          "value": 0
        },
        {
          "ticks": 4720,
          "time": 5.9,
          "value": -0.08544921875
        },
        {
          "ticks": 4780,
          "time": 5.9750000000000005,
          "value": -0.048828125
        },
        {
          "ticks": 4790,
          "time": 5.9875,
          "value": -0.03662109375
        },
        {
          "ticks": 4800,
          "time": 6,
          "value": -0.0244140625
        },
        {
          "ticks": 4820,
          "time": 6.0249999999999995,
          "value": -0.01220703125
        },
        {
          "ticks": 4840,
          "time": 6.05,
          "value": 0
        },
        {
          "ticks": 4860,
          "time": 6.075,
          "value": 0
        },
        {
          "ticks": 4860,
          "time": 6.075,
          "value": 0
        },
        {
          "ticks": 5280,
          "time": 6.6,
          "value": -0.08544921875
        },
        {
          "ticks": 5340,
          "time": 6.675,
          "value": -0.048828125
        },
        {
          "ticks": 5350,
          "time": 6.6875,
          "value": -0.03662109375
        },
        {
          "ticks": 5360,
          "time": 6.699999999999999,
          "value": -0.0244140625
        },
        {
          "ticks": 5380,
          "time": 6.7250000000000005,
          "value": -0.01220703125
        },
        {
          "ticks": 5400,
          "time": 6.75,
          "value": 0
        },
        {
          "ticks": 5420,
          "time": 6.7749999999999995,
          "value": 0
        },
        {
          "ticks": 5420,
          "time": 6.7749999999999995,
          "value": 0
        },
        {
          "ticks": 7440,
          "time": 9.299999999999999,
          "value": -0.08544921875
        },
        {
          "ticks": 7500,
          "time": 9.375,
          "value": -0.048828125
        },
        {
          "ticks": 7510,
          "time": 9.3875,
          "value": -0.03662109375
        },
        {
          "ticks": 7520,
          "time": 9.399999999999999,
          "value": -0.0244140625
        },
        {
          "ticks": 7540,
          "time": 9.425,
          "value": -0.01220703125
        },
        {
          "ticks": 7560,
          "time": 9.45,
          "value": 0
        },
        {
          "ticks": 7580,
          "time": 9.475,
          "value": 0
        },
        {
          "ticks": 7580,
          "time": 9.475,
          "value": 0
        },
        {
          "ticks": 8560,
          "time": 10.7,
          "value": -0.08544921875
        },
        {
          "ticks": 8620,
          "time": 10.774999999999999,
          "value": -0.048828125
        },
        {
          "ticks": 8630,
          "time": 10.7875,
          "value": -0.03662109375
        },
        {
          "ticks": 8640,
          "time": 10.799999999999999,
          "value": -0.0244140625
        },
        {
          "ticks": 8660,
          "time": 10.825000000000001,
          "value": -0.01220703125
        },
        {
          "ticks": 8680,
          "time": 10.85,
          "value": 0
        },
        {
          "ticks": 8700,
          "time": 10.875,
          "value": 0
        },
        {
          "ticks": 8700,
          "time": 10.875,
          "value": 0
        },
        {
          "ticks": 9120,
          "time": 11.4,
          "value": -0.08544921875
        },
        {
          "ticks": 9180,
          "time": 11.475,
          "value": -0.048828125
        },
        {
          "ticks": 9190,
          "time": 11.487499999999999,
          "value": -0.03662109375
        },
        {
          "ticks": 9200,
          "time": 11.5,
          "value": -0.0244140625
        },
        {
          "ticks": 9220,
          "time": 11.524999999999999,
          "value": -0.01220703125
        },
        {
          "ticks": 9240,
          "time": 11.549999999999999,
          "value": 0
        },
        {
          "ticks": 9260,
          "time": 11.575000000000001,
          "value": 0
        },
        {
          "ticks": 9260,
          "time": 11.575000000000001,
          "value": 0
        },
        {
          "ticks": 11040,
          "time": 13.799999999999999,
          "value": -0.08544921875
        },
        {
          "ticks": 11100,
          "time": 13.875,
          "value": -0.048828125
        },
        {
          "ticks": 11110,
          "time": 13.8875,
          "value": -0.03662109375
        },
        {
          "ticks": 11120,
          "time": 13.9,
          "value": -0.0244140625
        },
        {
          "ticks": 11140,
          "time": 13.924999999999999,
          "value": -0.01220703125
        },
        {
          "ticks": 11160,
          "time": 13.95,
          "value": 0
        },
        {
          "ticks": 11180,
          "time": 13.975,
          "value": 0
        },
        {
          "ticks": 11180,
          "time": 13.975,
          "value": 0
        },
        {
          "ticks": 12400,
          "time": 15.499999999999998,
          "value": -0.08544921875
        },
        {
          "ticks": 12460,
          "time": 15.575,
          "value": -0.048828125
        },
        {
          "ticks": 12470,
          "time": 15.5875,
          "value": -0.03662109375
        },
        {
          "ticks": 12480,
          "time": 15.6,
          "value": -0.0244140625
        },
        {
          "ticks": 12500,
          "time": 15.625,
          "value": -0.01220703125
        },
        {
          "ticks": 12520,
          "time": 15.649999999999999,
          "value": 0
        },
        {
          "ticks": 12540,
          "time": 15.674999999999999,
          "value": 0
        },
        {
          "ticks": 12540,
          "time": 15.674999999999999,
          "value": 0
        },
        {
          "ticks": 12960,
          "time": 16.2,
          "value": -0.08544921875
        },
        {
          "ticks": 13020,
          "time": 16.275,
          "value": -0.048828125
        },
        {
          "ticks": 13030,
          "time": 16.287499999999998,
          "value": -0.03662109375
        },
        {
          "ticks": 13040,
          "time": 16.3,
          "value": -0.0244140625
        },
        {
          "ticks": 13060,
          "time": 16.325,
          "value": -0.01220703125
        },
        {
          "ticks": 13080,
          "time": 16.349999999999998,
          "value": 0
        },
        {
          "ticks": 13100,
          "time": 16.375,
          "value": 0
        },
        {
          "ticks": 13100,
          "time": 16.375,
          "value": 0
        },
        {
          "ticks": 15120,
          "time": 18.9,
          "value": -0.08544921875
        },
        {
          "ticks": 15180,
          "time": 18.974999999999998,
          "value": -0.048828125
        },
        {
          "ticks": 15190,
          "time": 18.987499999999997,
          "value": -0.03662109375
        },
        {
          "ticks": 15200,
          "time": 19,
          "value": -0.0244140625
        },
        {
          "ticks": 15220,
          "time": 19.025,
          "value": -0.01220703125
        },
        {
          "ticks": 15240,
          "time": 19.05,
          "value": 0
        },
        {
          "ticks": 15260,
          "time": 19.075,
          "value": 0
        },
        {
          "ticks": 15260,
          "time": 19.075,
          "value": 0
        },
        {
          "ticks": 16240,
          "time": 20.3,
          "value": -0.08544921875
        },
        {
          "ticks": 16300,
          "time": 20.375,
          "value": -0.048828125
        },
        {
          "ticks": 16310,
          "time": 20.3875,
          "value": -0.03662109375
        },
        {
          "ticks": 16320,
          "time": 20.4,
          "value": -0.0244140625
        },
        {
          "ticks": 16340,
          "time": 20.424999999999997,
          "value": -0.01220703125
        },
        {
          "ticks": 16360,
          "time": 20.45,
          "value": 0
        },
        {
          "ticks": 16380,
          "time": 20.474999999999998,
          "value": 0
        },
        {
          "ticks": 16380,
          "time": 20.474999999999998,
          "value": 0
        },
        {
          "ticks": 16800,
          "time": 21,
          "value": -0.08544921875
        },
        {
          "ticks": 16860,
          "time": 21.075,
          "value": -0.048828125
        },
        {
          "ticks": 16870,
          "time": 21.087500000000002,
          "value": -0.03662109375
        },
        {
          "ticks": 16880,
          "time": 21.099999999999998,
          "value": -0.0244140625
        },
        {
          "ticks": 16900,
          "time": 21.125,
          "value": -0.01220703125
        },
        {
          "ticks": 16920,
          "time": 21.15,
          "value": 0
        },
        {
          "ticks": 16940,
          "time": 21.174999999999997,
          "value": 0
        },
        {
          "ticks": 16940,
          "time": 21.174999999999997,
          "value": 0
        },
        {
          "ticks": 18880,
          "time": 23.6,
          "value": -0.08544921875
        },
        {
          "ticks": 18940,
          "time": 23.675,
          "value": -0.048828125
        },
        {
          "ticks": 18950,
          "time": 23.687499999999996,
          "value": -0.03662109375
        },
        {
          "ticks": 18960,
          "time": 23.7,
          "value": -0.0244140625
        },
        {
          "ticks": 18980,
          "time": 23.724999999999998,
          "value": -0.01220703125
        },
        {
          "ticks": 19000,
          "time": 23.75,
          "value": 0
        },
        {
          "ticks": 19020,
          "time": 23.775,
          "value": 0
        },
        {
          "ticks": 19020,
          "time": 23.775,
          "value": 0
        },
        {
          "ticks": 33600,
          "time": 42,
          "value": -0.08544921875
        },
        {
          "ticks": 33660,
          "time": 42.074999999999996,
          "value": -0.048828125
        },
        {
          "ticks": 33670,
          "time": 42.0875,
          "value": -0.03662109375
        },
        {
          "ticks": 33680,
          "time": 42.1,
          "value": -0.0244140625
        },
        {
          "ticks": 33700,
          "time": 42.12499999999999,
          "value": -0.01220703125
        },
        {
          "ticks": 33720,
          "time": 42.15,
          "value": 0
        },
        {
          "ticks": 33740,
          "time": 42.175000000000004,
          "value": 0
        },
        {
          "ticks": 33740,
          "time": 42.175000000000004,
          "value": 0
        },
        {
          "ticks": 35440,
          "time": 44.3,
          "value": -0.08544921875
        },
        {
          "ticks": 35500,
          "time": 44.37499999999999,
          "value": -0.048828125
        },
        {
          "ticks": 35510,
          "time": 44.3875,
          "value": -0.03662109375
        },
        {
          "ticks": 35520,
          "time": 44.4,
          "value": -0.0244140625
        },
        {
          "ticks": 35540,
          "time": 44.425000000000004,
          "value": -0.01220703125
        },
        {
          "ticks": 35560,
          "time": 44.449999999999996,
          "value": 0
        },
        {
          "ticks": 35580,
          "time": 44.475,
          "value": 0
        },
        {
          "ticks": 35580,
          "time": 44.475,
          "value": 0
        },
        {
          "ticks": 36000,
          "time": 45,
          "value": -0.08544921875
        },
        {
          "ticks": 36060,
          "time": 45.074999999999996,
          "value": -0.048828125
        },
        {
          "ticks": 36070,
          "time": 45.0875,
          "value": -0.03662109375
        },
        {
          "ticks": 36080,
          "time": 45.1,
          "value": -0.0244140625
        },
        {
          "ticks": 36100,
          "time": 45.12499999999999,
          "value": -0.01220703125
        },
        {
          "ticks": 36120,
          "time": 45.15,
          "value": 0
        },
        {
          "ticks": 36140,
          "time": 45.175000000000004,
          "value": 0
        },
        {
          "ticks": 36140,
          "time": 45.175000000000004,
          "value": 0
        },
        {
          "ticks": 38160,
          "time": 47.699999999999996,
          "value": -0.08544921875
        },
        {
          "ticks": 38220,
          "time": 47.775,
          "value": -0.048828125
        },
        {
          "ticks": 38230,
          "time": 47.787499999999994,
          "value": -0.03662109375
        },
        {
          "ticks": 38240,
          "time": 47.800000000000004,
          "value": -0.0244140625
        },
        {
          "ticks": 38260,
          "time": 47.824999999999996,
          "value": -0.01220703125
        },
        {
          "ticks": 38280,
          "time": 47.85,
          "value": 0
        },
        {
          "ticks": 38300,
          "time": 47.875,
          "value": 0
        },
        {
          "ticks": 38300,
          "time": 47.875,
          "value": 0
        },
        {
          "ticks": 39280,
          "time": 49.099999999999994,
          "value": -0.08544921875
        },
        {
          "ticks": 39340,
          "time": 49.175,
          "value": -0.048828125
        },
        {
          "ticks": 39350,
          "time": 49.1875,
          "value": -0.03662109375
        },
        {
          "ticks": 39360,
          "time": 49.199999999999996,
          "value": -0.0244140625
        },
        {
          "ticks": 39380,
          "time": 49.225,
          "value": -0.01220703125
        },
        {
          "ticks": 39400,
          "time": 49.24999999999999,
          "value": 0
        },
        {
          "ticks": 39420,
          "time": 49.275,
          "value": 0
        },
        {
          "ticks": 39420,
          "time": 49.275,
          "value": 0
        },
        {
          "ticks": 39840,
          "time": 49.8,
          "value": -0.08544921875
        },
        {
          "ticks": 39900,
          "time": 49.875,
          "value": -0.048828125
        },
        {
          "ticks": 39910,
          "time": 49.887499999999996,
          "value": -0.03662109375
        },
        {
          "ticks": 39920,
          "time": 49.9,
          "value": -0.0244140625
        },
        {
          "ticks": 39940,
          "time": 49.925,
          "value": -0.01220703125
        },
        {
          "ticks": 39960,
          "time": 49.949999999999996,
          "value": 0
        },
        {
          "ticks": 39980,
          "time": 49.975,
          "value": 0
        },
        {
          "ticks": 39980,
          "time": 49.975,
          "value": 0
        },
        {
          "ticks": 41760,
          "time": 52.199999999999996,
          "value": -0.08544921875
        },
        {
          "ticks": 41820,
          "time": 52.275,
          "value": -0.048828125
        },
        {
          "ticks": 41830,
          "time": 52.287499999999994,
          "value": -0.03662109375
        },
        {
          "ticks": 41840,
          "time": 52.300000000000004,
          "value": -0.0244140625
        },
        {
          "ticks": 41860,
          "time": 52.324999999999996,
          "value": -0.01220703125
        },
        {
          "ticks": 41880,
          "time": 52.35,
          "value": 0
        },
        {
          "ticks": 41900,
          "time": 52.375,
          "value": 0
        },
        {
          "ticks": 41900,
          "time": 52.375,
          "value": 0
        },
        {
          "ticks": 43120,
          "time": 53.9,
          "value": -0.08544921875
        },
        {
          "ticks": 43180,
          "time": 53.974999999999994,
          "value": -0.048828125
        },
        {
          "ticks": 43190,
          "time": 53.987500000000004,
          "value": -0.03662109375
        },
        {
          "ticks": 43200,
          "time": 54,
          "value": -0.0244140625
        },
        {
          "ticks": 43220,
          "time": 54.025,
          "value": -0.01220703125
        },
        {
          "ticks": 43240,
          "time": 54.05,
          "value": 0
        },
        {
          "ticks": 43260,
          "time": 54.074999999999996,
          "value": 0
        },
        {
          "ticks": 43260,
          "time": 54.074999999999996,
          "value": 0
        },
        {
          "ticks": 43680,
          "time": 54.6,
          "value": -0.08544921875
        },
        {
          "ticks": 43740,
          "time": 54.675,
          "value": -0.048828125
        },
        {
          "ticks": 43750,
          "time": 54.68749999999999,
          "value": -0.03662109375
        },
        {
          "ticks": 43760,
          "time": 54.7,
          "value": -0.0244140625
        },
        {
          "ticks": 43780,
          "time": 54.724999999999994,
          "value": -0.01220703125
        },
        {
          "ticks": 43800,
          "time": 54.75,
          "value": 0
        },
        {
          "ticks": 43820,
          "time": 54.775,
          "value": 0
        },
        {
          "ticks": 43820,
          "time": 54.775,
          "value": 0
        },
        {
          "ticks": 45840,
          "time": 57.3,
          "value": -0.08544921875
        },
        {
          "ticks": 45900,
          "time": 57.375,
          "value": -0.048828125
        },
        {
          "ticks": 45910,
          "time": 57.387499999999996,
          "value": -0.03662109375
        },
        {
          "ticks": 45920,
          "time": 57.4,
          "value": -0.0244140625
        },
        {
          "ticks": 45940,
          "time": 57.425,
          "value": -0.01220703125
        },
        {
          "ticks": 45960,
          "time": 57.449999999999996,
          "value": 0
        },
        {
          "ticks": 45980,
          "time": 57.475,
          "value": 0
        },
        {
          "ticks": 45980,
          "time": 57.475,
          "value": 0
        },
        {
          "ticks": 46960,
          "time": 58.699999999999996,
          "value": -0.08544921875
        },
        {
          "ticks": 47020,
          "time": 58.77499999999999,
          "value": -0.048828125
        },
        {
          "ticks": 47030,
          "time": 58.7875,
          "value": -0.03662109375
        },
        {
          "ticks": 47040,
          "time": 58.8,
          "value": -0.0244140625
        },
        {
          "ticks": 47060,
          "time": 58.825,
          "value": -0.01220703125
        },
        {
          "ticks": 47080,
          "time": 58.849999999999994,
          "value": 0
        },
        {
          "ticks": 47100,
          "time": 58.875,
          "value": 0
        },
        {
          "ticks": 47100,
          "time": 58.875,
          "value": 0
        },
        {
          "ticks": 47520,
          "time": 59.4,
          "value": -0.08544921875
        },
        {
          "ticks": 47580,
          "time": 59.474999999999994,
          "value": -0.048828125
        },
        {
          "ticks": 47590,
          "time": 59.4875,
          "value": -0.03662109375
        },
        {
          "ticks": 47600,
          "time": 59.5,
          "value": -0.0244140625
        },
        {
          "ticks": 47620,
          "time": 59.52499999999999,
          "value": -0.01220703125
        },
        {
          "ticks": 47640,
          "time": 59.55,
          "value": 0
        },
        {
          "ticks": 47660,
          "time": 59.575,
          "value": 0
        },
        {
          "ticks": 47660,
          "time": 59.575,
          "value": 0
        },
        {
          "ticks": 49600,
          "time": 61.99999999999999,
          "value": -0.08544921875
        },
        {
          "ticks": 49660,
          "time": 62.074999999999996,
          "value": -0.048828125
        },
        {
          "ticks": 49670,
          "time": 62.0875,
          "value": -0.03662109375
        },
        {
          "ticks": 49680,
          "time": 62.099999999999994,
          "value": -0.0244140625
        },
        {
          "ticks": 49700,
          "time": 62.125,
          "value": -0.01220703125
        },
        {
          "ticks": 49720,
          "time": 62.14999999999999,
          "value": 0
        },
        {
          "ticks": 49740,
          "time": 62.175,
          "value": 0
        },
        {
          "ticks": 49740,
          "time": 62.175,
          "value": 0
        },
        {
          "ticks": 64320,
          "time": 80.39999999999999,
          "value": -0.08544921875
        },
        {
          "ticks": 64380,
          "time": 80.475,
          "value": -0.048828125
        },
        {
          "ticks": 64390,
          "time": 80.4875,
          "value": -0.03662109375
        },
        {
          "ticks": 64400,
          "time": 80.49999999999999,
          "value": -0.0244140625
        },
        {
          "ticks": 64420,
          "time": 80.525,
          "value": -0.01220703125
        },
        {
          "ticks": 64440,
          "time": 80.55,
          "value": 0
        },
        {
          "ticks": 64460,
          "time": 80.57499999999999,
          "value": 0
        },
        {
          "ticks": 64460,
          "time": 80.57499999999999,
          "value": 0
        },
        {
          "ticks": 66160,
          "time": 82.7,
          "value": -0.08544921875
        },
        {
          "ticks": 66220,
          "time": 82.775,
          "value": -0.048828125
        },
        {
          "ticks": 66230,
          "time": 82.7875,
          "value": -0.03662109375
        },
        {
          "ticks": 66240,
          "time": 82.8,
          "value": -0.0244140625
        },
        {
          "ticks": 66260,
          "time": 82.82499999999999,
          "value": -0.01220703125
        },
        {
          "ticks": 66280,
          "time": 82.85000000000001,
          "value": 0
        },
        {
          "ticks": 66300,
          "time": 82.875,
          "value": 0
        },
        {
          "ticks": 66300,
          "time": 82.875,
          "value": 0
        },
        {
          "ticks": 66720,
          "time": 83.39999999999999,
          "value": -0.08544921875
        },
        {
          "ticks": 66780,
          "time": 83.475,
          "value": -0.048828125
        },
        {
          "ticks": 66790,
          "time": 83.4875,
          "value": -0.03662109375
        },
        {
          "ticks": 66800,
          "time": 83.49999999999999,
          "value": -0.0244140625
        },
        {
          "ticks": 66820,
          "time": 83.525,
          "value": -0.01220703125
        },
        {
          "ticks": 66840,
          "time": 83.55,
          "value": 0
        },
        {
          "ticks": 66860,
          "time": 83.57499999999999,
          "value": 0
        },
        {
          "ticks": 66860,
          "time": 83.57499999999999,
          "value": 0
        },
        {
          "ticks": 68880,
          "time": 86.1,
          "value": -0.08544921875
        },
        {
          "ticks": 68940,
          "time": 86.175,
          "value": -0.048828125
        },
        {
          "ticks": 68950,
          "time": 86.1875,
          "value": -0.03662109375
        },
        {
          "ticks": 68960,
          "time": 86.19999999999999,
          "value": -0.0244140625
        },
        {
          "ticks": 68980,
          "time": 86.22500000000001,
          "value": -0.01220703125
        },
        {
          "ticks": 69000,
          "time": 86.25,
          "value": 0
        },
        {
          "ticks": 69020,
          "time": 86.27499999999999,
          "value": 0
        },
        {
          "ticks": 69020,
          "time": 86.27499999999999,
          "value": 0
        },
        {
          "ticks": 70000,
          "time": 87.5,
          "value": -0.08544921875
        },
        {
          "ticks": 70060,
          "time": 87.575,
          "value": -0.048828125
        },
        {
          "ticks": 70070,
          "time": 87.58749999999999,
          "value": -0.03662109375
        },
        {
          "ticks": 70080,
          "time": 87.6,
          "value": -0.0244140625
        },
        {
          "ticks": 70100,
          "time": 87.62499999999999,
          "value": -0.01220703125
        },
        {
          "ticks": 70120,
          "time": 87.65,
          "value": 0
        },
        {
          "ticks": 70140,
          "time": 87.675,
          "value": 0
        },
        {
          "ticks": 70140,
          "time": 87.675,
          "value": 0
        },
        {
          "ticks": 70560,
          "time": 88.2,
          "value": -0.08544921875
        },
        {
          "ticks": 70620,
          "time": 88.27499999999999,
          "value": -0.048828125
        },
        {
          "ticks": 70630,
          "time": 88.28750000000001,
          "value": -0.03662109375
        },
        {
          "ticks": 70640,
          "time": 88.3,
          "value": -0.0244140625
        },
        {
          "ticks": 70660,
          "time": 88.325,
          "value": -0.01220703125
        },
        {
          "ticks": 70680,
          "time": 88.35,
          "value": 0
        },
        {
          "ticks": 70700,
          "time": 88.37499999999999,
          "value": 0
        },
        {
          "ticks": 70700,
          "time": 88.37499999999999,
          "value": 0
        },
        {
          "ticks": 72480,
          "time": 90.6,
          "value": -0.08544921875
        },
        {
          "ticks": 72540,
          "time": 90.675,
          "value": -0.048828125
        },
        {
          "ticks": 72550,
          "time": 90.6875,
          "value": -0.03662109375
        },
        {
          "ticks": 72560,
          "time": 90.69999999999999,
          "value": -0.0244140625
        },
        {
          "ticks": 72580,
          "time": 90.72500000000001,
          "value": -0.01220703125
        },
        {
          "ticks": 72600,
          "time": 90.75,
          "value": 0
        },
        {
          "ticks": 72620,
          "time": 90.77499999999999,
          "value": 0
        },
        {
          "ticks": 72620,
          "time": 90.77499999999999,
          "value": 0
        },
        {
          "ticks": 73840,
          "time": 92.3,
          "value": -0.08544921875
        },
        {
          "ticks": 73900,
          "time": 92.375,
          "value": -0.048828125
        },
        {
          "ticks": 73910,
          "time": 92.38749999999999,
          "value": -0.03662109375
        },
        {
          "ticks": 73920,
          "time": 92.39999999999999,
          "value": -0.0244140625
        },
        {
          "ticks": 73940,
          "time": 92.425,
          "value": -0.01220703125
        },
        {
          "ticks": 73960,
          "time": 92.45,
          "value": 0
        },
        {
          "ticks": 73980,
          "time": 92.475,
          "value": 0
        },
        {
          "ticks": 73980,
          "time": 92.475,
          "value": 0
        },
        {
          "ticks": 74400,
          "time": 93,
          "value": -0.08544921875
        },
        {
          "ticks": 74460,
          "time": 93.075,
          "value": -0.048828125
        },
        {
          "ticks": 74470,
          "time": 93.0875,
          "value": -0.03662109375
        },
        {
          "ticks": 74480,
          "time": 93.1,
          "value": -0.0244140625
        },
        {
          "ticks": 74500,
          "time": 93.125,
          "value": -0.01220703125
        },
        {
          "ticks": 74520,
          "time": 93.14999999999999,
          "value": 0
        },
        {
          "ticks": 74540,
          "time": 93.175,
          "value": 0
        },
        {
          "ticks": 74540,
          "time": 93.175,
          "value": 0
        },
        {
          "ticks": 76560,
          "time": 95.7,
          "value": -0.08544921875
        },
        {
          "ticks": 76620,
          "time": 95.77499999999999,
          "value": -0.048828125
        },
        {
          "ticks": 76630,
          "time": 95.78750000000001,
          "value": -0.03662109375
        },
        {
          "ticks": 76640,
          "time": 95.8,
          "value": -0.0244140625
        },
        {
          "ticks": 76660,
          "time": 95.825,
          "value": -0.01220703125
        },
        {
          "ticks": 76680,
          "time": 95.85,
          "value": 0
        },
        {
          "ticks": 76700,
          "time": 95.87499999999999,
          "value": 0
        },
        {
          "ticks": 76700,
          "time": 95.87499999999999,
          "value": 0
        },
        {
          "ticks": 77680,
          "time": 97.10000000000001,
          "value": -0.08544921875
        },
        {
          "ticks": 77740,
          "time": 97.175,
          "value": -0.048828125
        },
        {
          "ticks": 77750,
          "time": 97.18749999999999,
          "value": -0.03662109375
        },
        {
          "ticks": 77760,
          "time": 97.2,
          "value": -0.0244140625
        },
        {
          "ticks": 77780,
          "time": 97.225,
          "value": -0.01220703125
        },
        {
          "ticks": 77800,
          "time": 97.25,
          "value": 0
        },
        {
          "ticks": 77820,
          "time": 97.27499999999999,
          "value": 0
        },
        {
          "ticks": 77820,
          "time": 97.27499999999999,
          "value": 0
        },
        {
          "ticks": 78240,
          "time": 97.8,
          "value": -0.08544921875
        },
        {
          "ticks": 78300,
          "time": 97.875,
          "value": -0.048828125
        },
        {
          "ticks": 78310,
          "time": 97.8875,
          "value": -0.03662109375
        },
        {
          "ticks": 78320,
          "time": 97.89999999999999,
          "value": -0.0244140625
        },
        {
          "ticks": 78340,
          "time": 97.925,
          "value": -0.01220703125
        },
        {
          "ticks": 78360,
          "time": 97.95,
          "value": 0
        },
        {
          "ticks": 78380,
          "time": 97.975,
          "value": 0
        },
        {
          "ticks": 78380,
          "time": 97.975,
          "value": 0
        },
        {
          "ticks": 80320,
          "time": 100.4,
          "value": -0.08544921875
        },
        {
          "ticks": 80380,
          "time": 100.47500000000001,
          "value": -0.048828125
        },
        {
          "ticks": 80390,
          "time": 100.4875,
          "value": -0.03662109375
        },
        {
          "ticks": 80400,
          "time": 100.5,
          "value": -0.0244140625
        },
        {
          "ticks": 80420,
          "time": 100.52499999999999,
          "value": -0.01220703125
        },
        {
          "ticks": 80440,
          "time": 100.55,
          "value": 0
        },
        {
          "ticks": 80460,
          "time": 100.575,
          "value": 0
        },
        {
          "ticks": 80460,
          "time": 100.575,
          "value": 0
        }
      ],
      "instrument": {
        "family": "bass",
        "number": 39,
        "name": "synth bass 2"
      },
      "name": "",
      "notes": [
        {
          "duration": 0.18000000000000016,
          "durationTicks": 144,
          "midi": 39,
          "name": "D#2",
          "ticks": 2880,
          "time": 3.5999999999999996,
          "velocity": 0.7874015748031497
        },
        {
          "duration": 0.08999999999999986,
          "durationTicks": 72,
          "midi": 38,
          "name": "D2",
          "ticks": 3040,
          "time": 3.8,
          "velocity": 0.7874015748031497
        },
        {
          "duration": 0.1800000000000006,
          "durationTicks": 144,
          "midi": 36,
          "name": "C2",
          "ticks": 3280,
          "time": 4.1,
          "velocity": 0.7874015748031497
        },
        {
          "duration": 0.09000000000000075,
          "durationTicks": 72,
          "midi": 33,
          "name": "A1",
          "ticks": 3520,
          "time": 4.3999999999999995,
          "velocity": 0.7874015748031497
        },
        {
          "duration": 0.17999999999999972,
          "durationTicks": 144,
          "midi": 31,
          "name": "G1",
          "ticks": 3600,
          "time": 4.5,
          "velocity": 0.7874015748031497
        },
        {
          "duration": 0.09000000000000075,
          "durationTicks": 72,
          "midi": 32,
          "name": "G#1",
          "ticks": 3760,
          "time": 4.699999999999999,
          "velocity": 0.7874015748031497
        },
        {
          "duration": 0.1800000000000006,
          "durationTicks": 144,
          "midi": 33,
          "name": "A1",
          "ticks": 3840,
          "time": 4.8,
          "velocity": 0.7874015748031497
        },
        {
          "duration": 0.08999999999999897,
          "durationTicks": 72,
          "midi": 33,
          "name": "A1",
          "ticks": 4000,
          "time": 5,
          "velocity": 0.7874015748031497
        },
        {
          "duration": 0.1800000000000006,
          "durationTicks": 144,
          "midi": 33,
          "name": "A1",
          "ticks": 4080,
          "time": 5.1,
          "velocity": 0.7874015748031497
        },
        {
          "duration": 0.1800000000000006,
          "durationTicks": 144,
          "midi": 33,
          "name": "A1",
          "ticks": 4320,
          "time": 5.3999999999999995,
          "velocity": 0.7874015748031497
        },
        {
          "duration": 0.17999999999999883,
          "durationTicks": 144,
          "midi": 36,
          "name": "C2",
          "ticks": 4480,
          "time": 5.6000000000000005,
          "velocity": 0.7874015748031497
        },
        {
          "duration": 0.1999999999999993,
          "durationTicks": 160,
          "midi": 38,
          "name": "D2",
          "ticks": 4720,
          "time": 5.9,
          "velocity": 0.7874015748031497
        },
        {
          "duration": 0.46000000000000085,
          "durationTicks": 368,
          "midi": 33,
          "name": "A1",
          "ticks": 5280,
          "time": 6.6,
          "velocity": 0.7874015748031497
        },
        {
          "duration": 0.08999999999999897,
          "durationTicks": 72,
          "midi": 31,
          "name": "G1",
          "ticks": 5680,
          "time": 7.1000000000000005,
          "velocity": 0.7874015748031497
        },
        {
          "duration": 0.01249999999999929,
          "durationTicks": 10,
          "midi": 31,
          "name": "G1",
          "ticks": 6640,
          "time": 8.3,
          "velocity": 0.8818897637795275
        },
        {
          "duration": 0.17999999999999972,
          "durationTicks": 144,
          "midi": 31,
          "name": "G1",
          "ticks": 6720,
          "time": 8.4,
          "velocity": 0.7874015748031497
        },
        {
          "duration": 0.08999999999999986,
          "durationTicks": 72,
          "midi": 31,
          "name": "G1",
          "ticks": 6960,
          "time": 8.7,
          "velocity": 0.7874015748031497
        },
        {
          "duration": 0.08999999999999808,
          "durationTicks": 72,
          "midi": 31,
          "name": "G1",
          "ticks": 7120,
          "time": 8.9,
          "velocity": 0.7874015748031497
        },
        {
          "duration": 0.08999999999999986,
          "durationTicks": 72,
          "midi": 31,
          "name": "G1",
          "ticks": 7360,
          "time": 9.2,
          "velocity": 0.7874015748031497
        },
        {
          "duration": 0.28000000000000114,
          "durationTicks": 224,
          "midi": 32,
          "name": "G#1",
          "ticks": 7440,
          "time": 9.299999999999999,
          "velocity": 0.7874015748031497
        },
        {
          "duration": 0.17999999999999972,
          "durationTicks": 144,
          "midi": 33,
          "name": "A1",
          "ticks": 7680,
          "time": 9.6,
          "velocity": 0.7874015748031497
        },
        {
          "duration": 0.09000000000000163,
          "durationTicks": 72,
          "midi": 33,
          "name": "A1",
          "ticks": 7840,
          "time": 9.799999999999999,
          "velocity": 0.7874015748031497
        },
        {
          "duration": 0.17999999999999972,
          "durationTicks": 144,
          "midi": 33,
          "name": "A1",
          "ticks": 7920,
          "time": 9.9,
          "velocity": 0.7874015748031497
        },
        {
          "duration": 0.1800000000000015,
          "durationTicks": 144,
          "midi": 33,
          "name": "A1",
          "ticks": 8160,
          "time": 10.2,
          "velocity": 0.7874015748031497
        },
        {
          "duration": 0.1800000000000015,
          "durationTicks": 144,
          "midi": 36,
          "name": "C2",
          "ticks": 8320,
          "time": 10.399999999999999,
          "velocity": 0.7874015748031497
        },
        {
          "duration": 0.20000000000000107,
          "durationTicks": 160,
          "midi": 38,
          "name": "D2",
          "ticks": 8560,
          "time": 10.7,
          "velocity": 0.7874015748031497
        },
        {
          "duration": 0.4599999999999991,
          "durationTicks": 368,
          "midi": 33,
          "name": "A1",
          "ticks": 9120,
          "time": 11.4,
          "velocity": 0.7874015748031497
        },
        {
          "duration": 0.09000000000000163,
          "durationTicks": 72,
          "midi": 31,
          "name": "G1",
          "ticks": 9520,
          "time": 11.899999999999999,
          "velocity": 0.7874015748031497
        },
        {
          "duration": 0.1800000000000015,
          "durationTicks": 144,
          "midi": 26,
          "name": "D1",
          "ticks": 10560,
          "time": 13.2,
          "velocity": 0.7874015748031497
        },
        {
          "duration": 0.09000000000000163,
          "durationTicks": 72,
          "midi": 28,
          "name": "E1",
          "ticks": 10720,
          "time": 13.399999999999999,
          "velocity": 0.7874015748031497
        },
        {
          "duration": 0.17999999999999972,
          "durationTicks": 144,
          "midi": 31,
          "name": "G1",
          "ticks": 10800,
          "time": 13.5,
          "velocity": 0.7874015748031497
        },
        {
          "duration": 0.09000000000000163,
          "durationTicks": 72,
          "midi": 33,
          "name": "A1",
          "ticks": 10960,
          "time": 13.7,
          "velocity": 0.7874015748031497
        },
        {
          "duration": 0.1800000000000015,
          "durationTicks": 144,
          "midi": 38,
          "name": "D2",
          "ticks": 11040,
          "time": 13.799999999999999,
          "velocity": 0.7874015748031497
        },
        {
          "duration": 0.3600000000000012,
          "durationTicks": 288,
          "midi": 36,
          "name": "C2",
          "ticks": 11200,
          "time": 13.999999999999998,
          "velocity": 0.7874015748031497
        },
        {
          "duration": 0.1800000000000015,
          "durationTicks": 144,
          "midi": 33,
          "name": "A1",
          "ticks": 11520,
          "time": 14.399999999999999,
          "velocity": 0.7874015748031497
        },
        {
          "duration": 0.09000000000000163,
          "durationTicks": 72,
          "midi": 33,
          "name": "A1",
          "ticks": 11680,
          "time": 14.599999999999998,
          "velocity": 0.7874015748031497
        },
        {
          "duration": 0.17999999999999972,
          "durationTicks": 144,
          "midi": 33,
          "name": "A1",
          "ticks": 11760,
          "time": 14.7,
          "velocity": 0.7874015748031497
        },
        {
          "duration": 0.17999999999999972,
          "durationTicks": 144,
          "midi": 33,
          "name": "A1",
          "ticks": 12000,
          "time": 15,
          "velocity": 0.7874015748031497
        },
        {
          "duration": 0.17999999999999972,
          "durationTicks": 144,
          "midi": 36,
          "name": "C2",
          "ticks": 12160,
          "time": 15.2,
          "velocity": 0.7874015748031497
        },
        {
          "duration": 0.20000000000000107,
          "durationTicks": 160,
          "midi": 38,
          "name": "D2",
          "ticks": 12400,
          "time": 15.499999999999998,
          "velocity": 0.7874015748031497
        },
        {
          "duration": 0.46000000000000085,
          "durationTicks": 368,
          "midi": 33,
          "name": "A1",
          "ticks": 12960,
          "time": 16.2,
          "velocity": 0.7874015748031497
        },
        {
          "duration": 0.08999999999999986,
          "durationTicks": 72,
          "midi": 31,
          "name": "G1",
          "ticks": 13360,
          "time": 16.7,
          "velocity": 0.7874015748031497
        },
        {
          "duration": 0.012500000000002842,
          "durationTicks": 10,
          "midi": 31,
          "name": "G1",
          "ticks": 14320,
          "time": 17.9,
          "velocity": 0.8818897637795275
        },
        {
          "duration": 0.17999999999999972,
          "durationTicks": 144,
          "midi": 31,
          "name": "G1",
          "ticks": 14400,
          "time": 18,
          "velocity": 0.7874015748031497
        },
        {
          "duration": 0.0899999999999963,
          "durationTicks": 72,
          "midi": 31,
          "name": "G1",
          "ticks": 14640,
          "time": 18.3,
          "velocity": 0.7874015748031497
        },
        {
          "duration": 0.08999999999999986,
          "durationTicks": 72,
          "midi": 31,
          "name": "G1",
          "ticks": 14800,
          "time": 18.5,
          "velocity": 0.7874015748031497
        },
        {
          "duration": 0.09000000000000341,
          "durationTicks": 72,
          "midi": 31,
          "name": "G1",
          "ticks": 15040,
          "time": 18.799999999999997,
          "velocity": 0.7874015748031497
        },
        {
          "duration": 0.28000000000000114,
          "durationTicks": 224,
          "midi": 32,
          "name": "G#1",
          "ticks": 15120,
          "time": 18.9,
          "velocity": 0.7874015748031497
        },
        {
          "duration": 0.17999999999999972,
          "durationTicks": 144,
          "midi": 33,
          "name": "A1",
          "ticks": 15360,
          "time": 19.2,
          "velocity": 0.7874015748031497
        },
        {
          "duration": 0.0899999999999963,
          "durationTicks": 72,
          "midi": 33,
          "name": "A1",
          "ticks": 15520,
          "time": 19.400000000000002,
          "velocity": 0.7874015748031497
        },
        {
          "duration": 0.17999999999999616,
          "durationTicks": 144,
          "midi": 33,
          "name": "A1",
          "ticks": 15600,
          "time": 19.5,
          "velocity": 0.7874015748031497
        },
        {
          "duration": 0.17999999999999616,
          "durationTicks": 144,
          "midi": 33,
          "name": "A1",
          "ticks": 15840,
          "time": 19.8,
          "velocity": 0.7874015748031497
        },
        {
          "duration": 0.17999999999999972,
          "durationTicks": 144,
          "midi": 36,
          "name": "C2",
          "ticks": 16000,
          "time": 20,
          "velocity": 0.7874015748031497
        },
        {
          "duration": 0.19999999999999574,
          "durationTicks": 160,
          "midi": 38,
          "name": "D2",
          "ticks": 16240,
          "time": 20.3,
          "velocity": 0.7874015748031497
        },
        {
          "duration": 0.4599999999999973,
          "durationTicks": 368,
          "midi": 33,
          "name": "A1",
          "ticks": 16800,
          "time": 21,
          "velocity": 0.7874015748031497
        },
        {
          "duration": 0.08999999999999986,
          "durationTicks": 72,
          "midi": 31,
          "name": "G1",
          "ticks": 17200,
          "time": 21.5,
          "velocity": 0.7874015748031497
        },
        {
          "duration": 0.17999999999999616,
          "durationTicks": 144,
          "midi": 28,
          "name": "E1",
          "ticks": 18240,
          "time": 22.8,
          "velocity": 0.7874015748031497
        },
        {
          "duration": 0.08999999999999986,
          "durationTicks": 72,
          "midi": 23,
          "name": "B0",
          "ticks": 18400,
          "time": 23,
          "velocity": 0.7874015748031497
        },
        {
          "duration": 0.17999999999999972,
          "durationTicks": 144,
          "midi": 26,
          "name": "D1",
          "ticks": 18480,
          "time": 23.099999999999998,
          "velocity": 0.7874015748031497
        },
        {
          "duration": 0.14624999999999844,
          "durationTicks": 117,
          "midi": 28,
          "name": "E1",
          "ticks": 18640,
          "time": 23.3,
          "velocity": 0.7874015748031497
        },
        {
          "duration": 0.3999999999999986,
          "durationTicks": 320,
          "midi": 28,
          "name": "E1",
          "ticks": 18880,
          "time": 23.6,
          "velocity": 0.7874015748031497
        },
        {
          "duration": 0.28000000000000114,
          "durationTicks": 224,
          "midi": 29,
          "name": "F1",
          "ticks": 19200,
          "time": 24,
          "velocity": 0.7874015748031497
        },
        {
          "duration": 0.28000000000000114,
          "durationTicks": 224,
          "midi": 29,
          "name": "F1",
          "ticks": 19440,
          "time": 24.3,
          "velocity": 0.7874015748031497
        },
        {
          "duration": 0.17999999999999972,
          "durationTicks": 144,
          "midi": 29,
          "name": "F1",
          "ticks": 19840,
          "time": 24.8,
          "velocity": 0.7874015748031497
        },
        {
          "duration": 0.08999999999999986,
          "durationTicks": 72,
          "midi": 29,
          "name": "F1",
          "ticks": 20080,
          "time": 25.1,
          "velocity": 0.7874015748031497
        },
        {
          "duration": 0.2799999999999976,
          "durationTicks": 224,
          "midi": 29,
          "name": "F1",
          "ticks": 20800,
          "time": 26,
          "velocity": 0.7874015748031497
        },
        {
          "duration": 0.08999999999999986,
          "durationTicks": 72,
          "midi": 29,
          "name": "F1",
          "ticks": 21040,
          "time": 26.3,
          "velocity": 0.7874015748031497
        },
        {
          "duration": 0.28000000000000114,
          "durationTicks": 224,
          "midi": 28,
          "name": "E1",
          "ticks": 21120,
          "time": 26.4,
          "velocity": 0.7874015748031497
        },
        {
          "duration": 0.28000000000000114,
          "durationTicks": 224,
          "midi": 28,
          "name": "E1",
          "ticks": 21360,
          "time": 26.7,
          "velocity": 0.7874015748031497
        },
        {
          "duration": 0.17999999999999972,
          "durationTicks": 144,
          "midi": 28,
          "name": "E1",
          "ticks": 21760,
          "time": 27.2,
          "velocity": 0.7874015748031497
        },
        {
          "duration": 0.08999999999999986,
          "durationTicks": 72,
          "midi": 28,
          "name": "E1",
          "ticks": 22000,
          "time": 27.5,
          "velocity": 0.7874015748031497
        },
        {
          "duration": 0.27999999999999403,
          "durationTicks": 224,
          "midi": 28,
          "name": "E1",
          "ticks": 22720,
          "time": 28.400000000000002,
          "velocity": 0.7874015748031497
        },
        {
          "duration": 0.08999999999999986,
          "durationTicks": 72,
          "midi": 28,
          "name": "E1",
          "ticks": 22960,
          "time": 28.7,
          "velocity": 0.7874015748031497
        },
        {
          "duration": 0.28000000000000114,
          "durationTicks": 224,
          "midi": 26,
          "name": "D1",
          "ticks": 23040,
          "time": 28.799999999999997,
          "velocity": 0.7874015748031497
        },
        {
          "duration": 0.28000000000000114,
          "durationTicks": 224,
          "midi": 26,
          "name": "D1",
          "ticks": 23280,
          "time": 29.099999999999998,
          "velocity": 0.7874015748031497
        },
        {
          "duration": 0.17999999999999616,
          "durationTicks": 144,
          "midi": 26,
          "name": "D1",
          "ticks": 23680,
          "time": 29.6,
          "velocity": 0.7874015748031497
        },
        {
          "duration": 0.08999999999999986,
          "durationTicks": 72,
          "midi": 26,
          "name": "D1",
          "ticks": 23920,
          "time": 29.9,
          "velocity": 0.7874015748031497
        },
        {
          "duration": 0.2799999999999976,
          "durationTicks": 224,
          "midi": 27,
          "name": "D#1",
          "ticks": 24640,
          "time": 30.8,
          "velocity": 0.7874015748031497
        },
        {
          "duration": 0.0899999999999963,
          "durationTicks": 72,
          "midi": 27,
          "name": "D#1",
          "ticks": 24880,
          "time": 31.1,
          "velocity": 0.7874015748031497
        },
        {
          "duration": 0.28000000000000114,
          "durationTicks": 224,
          "midi": 28,
          "name": "E1",
          "ticks": 24960,
          "time": 31.2,
          "velocity": 0.7874015748031497
        },
        {
          "duration": 0.28000000000000114,
          "durationTicks": 224,
          "midi": 28,
          "name": "E1",
          "ticks": 25200,
          "time": 31.5,
          "velocity": 0.7874015748031497
        },
        {
          "duration": 0.17999999999999972,
          "durationTicks": 144,
          "midi": 28,
          "name": "E1",
          "ticks": 25600,
          "time": 32,
          "velocity": 0.7874015748031497
        },
        {
          "duration": 0.09000000000000341,
          "durationTicks": 72,
          "midi": 28,
          "name": "E1",
          "ticks": 25840,
          "time": 32.3,
          "velocity": 0.7874015748031497
        },
        {
          "duration": 0.0899999999999963,
          "durationTicks": 72,
          "midi": 39,
          "name": "D#2",
          "ticks": 26400,
          "time": 33,
          "velocity": 0.7874015748031497
        },
        {
          "duration": 0.09000000000000341,
          "durationTicks": 72,
          "midi": 38,
          "name": "D2",
          "ticks": 26480,
          "time": 33.099999999999994,
          "velocity": 0.7874015748031497
        },
        {
          "duration": 0.0899999999999963,
          "durationTicks": 72,
          "midi": 36,
          "name": "C2",
          "ticks": 26560,
          "time": 33.2,
          "velocity": 0.7874015748031497
        },
        {
          "duration": 0.09000000000000341,
          "durationTicks": 72,
          "midi": 33,
          "name": "A1",
          "ticks": 26640,
          "time": 33.3,
          "velocity": 0.7874015748031497
        },
        {
          "duration": 0.09000000000000341,
          "durationTicks": 72,
          "midi": 31,
          "name": "G1",
          "ticks": 26720,
          "time": 33.4,
          "velocity": 0.7874015748031497
        },
        {
          "duration": 0.0899999999999963,
          "durationTicks": 72,
          "midi": 30,
          "name": "F#1",
          "ticks": 26800,
          "time": 33.5,
          "velocity": 0.7874015748031497
        },
        {
          "duration": 0.1799999999999926,
          "durationTicks": 144,
          "midi": 29,
          "name": "F1",
          "ticks": 26880,
          "time": 33.6,
          "velocity": 0.7874015748031497
        },
        {
          "duration": 0.09000000000000341,
          "durationTicks": 72,
          "midi": 29,
          "name": "F1",
          "ticks": 27040,
          "time": 33.8,
          "velocity": 0.7874015748031497
        },
        {
          "duration": 0.17999999999999972,
          "durationTicks": 144,
          "midi": 29,
          "name": "F1",
          "ticks": 27120,
          "time": 33.9,
          "velocity": 0.7874015748031497
        },
        {
          "duration": 0.09000000000000341,
          "durationTicks": 72,
          "midi": 41,
          "name": "F2",
          "ticks": 27360,
          "time": 34.199999999999996,
          "velocity": 0.7874015748031497
        },
        {
          "duration": 0.17999999999999972,
          "durationTicks": 144,
          "midi": 29,
          "name": "F1",
          "ticks": 27520,
          "time": 34.4,
          "velocity": 0.7874015748031497
        },
        {
          "duration": 0.0899999999999963,
          "durationTicks": 72,
          "midi": 29,
          "name": "F1",
          "ticks": 27760,
          "time": 34.7,
          "velocity": 0.7874015748031497
        },
        {
          "duration": 0.0899999999999963,
          "durationTicks": 72,
          "midi": 41,
          "name": "F2",
          "ticks": 28480,
          "time": 35.6,
          "velocity": 0.7874015748031497
        },
        {
          "duration": 0.09000000000000341,
          "durationTicks": 72,
          "midi": 29,
          "name": "F1",
          "ticks": 28560,
          "time": 35.699999999999996,
          "velocity": 0.7874015748031497
        },
        {
          "duration": 0.09000000000000341,
          "durationTicks": 72,
          "midi": 24,
          "name": "C1",
          "ticks": 28720,
          "time": 35.9,
          "velocity": 0.7874015748031497
        },
        {
          "duration": 0.17999999999999972,
          "durationTicks": 144,
          "midi": 28,
          "name": "E1",
          "ticks": 28800,
          "time": 36,
          "velocity": 0.7874015748031497
        },
        {
          "duration": 0.0899999999999963,
          "durationTicks": 72,
          "midi": 28,
          "name": "E1",
          "ticks": 28960,
          "time": 36.2,
          "velocity": 0.7874015748031497
        },
        {
          "duration": 0.17999999999999972,
          "durationTicks": 144,
          "midi": 28,
          "name": "E1",
          "ticks": 29040,
          "time": 36.3,
          "velocity": 0.7874015748031497
        },
        {
          "duration": 0.0899999999999963,
          "durationTicks": 72,
          "midi": 40,
          "name": "E2",
          "ticks": 29280,
          "time": 36.6,
          "velocity": 0.7874015748031497
        },
        {
          "duration": 0.17999999999999972,
          "durationTicks": 144,
          "midi": 28,
          "name": "E1",
          "ticks": 29440,
          "time": 36.8,
          "velocity": 0.7874015748031497
        },
        {
          "duration": 0.0899999999999963,
          "durationTicks": 72,
          "midi": 28,
          "name": "E1",
          "ticks": 29680,
          "time": 37.1,
          "velocity": 0.7874015748031497
        },
        {
          "duration": 0.0899999999999963,
          "durationTicks": 72,
          "midi": 40,
          "name": "E2",
          "ticks": 30400,
          "time": 38,
          "velocity": 0.7874015748031497
        },
        {
          "duration": 0.0899999999999963,
          "durationTicks": 72,
          "midi": 28,
          "name": "E1",
          "ticks": 30480,
          "time": 38.1,
          "velocity": 0.7874015748031497
        },
        {
          "duration": 0.09000000000000341,
          "durationTicks": 72,
          "midi": 26,
          "name": "D1",
          "ticks": 30640,
          "time": 38.3,
          "velocity": 0.7874015748031497
        },
        {
          "duration": 0.17999999999999972,
          "durationTicks": 144,
          "midi": 26,
          "name": "D1",
          "ticks": 30720,
          "time": 38.4,
          "velocity": 0.7874015748031497
        },
        {
          "duration": 0.09000000000000341,
          "durationTicks": 72,
          "midi": 26,
          "name": "D1",
          "ticks": 30880,
          "time": 38.599999999999994,
          "velocity": 0.7874015748031497
        },
        {
          "duration": 0.17999999999999972,
          "durationTicks": 144,
          "midi": 26,
          "name": "D1",
          "ticks": 30960,
          "time": 38.699999999999996,
          "velocity": 0.7874015748031497
        },
        {
          "duration": 0.09000000000000341,
          "durationTicks": 72,
          "midi": 38,
          "name": "D2",
          "ticks": 31200,
          "time": 39,
          "velocity": 0.7874015748031497
        },
        {
          "duration": 0.18000000000000682,
          "durationTicks": 144,
          "midi": 26,
          "name": "D1",
          "ticks": 31360,
          "time": 39.199999999999996,
          "velocity": 0.7874015748031497
        },
        {
          "duration": 0.09000000000000341,
          "durationTicks": 72,
          "midi": 26,
          "name": "D1",
          "ticks": 31600,
          "time": 39.49999999999999,
          "velocity": 0.7874015748031497
        },
        {
          "duration": 0.09000000000000341,
          "durationTicks": 72,
          "midi": 38,
          "name": "D2",
          "ticks": 32320,
          "time": 40.4,
          "velocity": 0.7874015748031497
        },
        {
          "duration": 0.09000000000000341,
          "durationTicks": 72,
          "midi": 26,
          "name": "D1",
          "ticks": 32400,
          "time": 40.5,
          "velocity": 0.7874015748031497
        },
        {
          "duration": 0.09000000000000341,
          "durationTicks": 72,
          "midi": 27,
          "name": "D#1",
          "ticks": 32560,
          "time": 40.699999999999996,
          "velocity": 0.7874015748031497
        },
        {
          "duration": 0.46000000000000085,
          "durationTicks": 368,
          "midi": 28,
          "name": "E1",
          "ticks": 32640,
          "time": 40.8,
          "velocity": 0.7874015748031497
        },
        {
          "duration": 0.20000000000000284,
          "durationTicks": 160,
          "midi": 28,
          "name": "E1",
          "ticks": 33040,
          "time": 41.3,
          "velocity": 0.7874015748031497
        },
        {
          "duration": 0.17999999999999972,
          "durationTicks": 144,
          "midi": 39,
          "name": "D#2",
          "ticks": 33600,
          "time": 42,
          "velocity": 0.7874015748031497
        },
        {
          "duration": 0.09000000000000341,
          "durationTicks": 72,
          "midi": 38,
          "name": "D2",
          "ticks": 33760,
          "time": 42.199999999999996,
          "velocity": 0.7874015748031497
        },
        {
          "duration": 0.18000000000000682,
          "durationTicks": 144,
          "midi": 36,
          "name": "C2",
          "ticks": 34000,
          "time": 42.49999999999999,
          "velocity": 0.7874015748031497
        },
        {
          "duration": 0.09000000000000341,
          "durationTicks": 72,
          "midi": 33,
          "name": "A1",
          "ticks": 34240,
          "time": 42.8,
          "velocity": 0.7874015748031497
        },
        {
          "duration": 0.17999999999999972,
          "durationTicks": 144,
          "midi": 31,
          "name": "G1",
          "ticks": 34320,
          "time": 42.9,
          "velocity": 0.7874015748031497
        },
        {
          "duration": 0.09000000000000341,
          "durationTicks": 72,
          "midi": 32,
          "name": "G#1",
          "ticks": 34480,
          "time": 43.099999999999994,
          "velocity": 0.7874015748031497
        },
        {
          "duration": 0.17999999999999972,
          "durationTicks": 144,
          "midi": 33,
          "name": "A1",
          "ticks": 34560,
          "time": 43.199999999999996,
          "velocity": 0.7874015748031497
        },
        {
          "duration": 0.09000000000000341,
          "durationTicks": 72,
          "midi": 33,
          "name": "A1",
          "ticks": 34720,
          "time": 43.4,
          "velocity": 0.7874015748031497
        },
        {
          "duration": 0.17999999999999972,
          "durationTicks": 144,
          "midi": 33,
          "name": "A1",
          "ticks": 34800,
          "time": 43.5,
          "velocity": 0.7874015748031497
        },
        {
          "duration": 0.17999999999999972,
          "durationTicks": 144,
          "midi": 33,
          "name": "A1",
          "ticks": 35040,
          "time": 43.8,
          "velocity": 0.7874015748031497
        },
        {
          "duration": 0.18000000000000682,
          "durationTicks": 144,
          "midi": 36,
          "name": "C2",
          "ticks": 35200,
          "time": 43.99999999999999,
          "velocity": 0.7874015748031497
        },
        {
          "duration": 0.20000000000000284,
          "durationTicks": 160,
          "midi": 38,
          "name": "D2",
          "ticks": 35440,
          "time": 44.3,
          "velocity": 0.7874015748031497
        },
        {
          "duration": 0.46000000000000085,
          "durationTicks": 368,
          "midi": 33,
          "name": "A1",
          "ticks": 36000,
          "time": 45,
          "velocity": 0.7874015748031497
        },
        {
          "duration": 0.09000000000000341,
          "durationTicks": 72,
          "midi": 31,
          "name": "G1",
          "ticks": 36400,
          "time": 45.49999999999999,
          "velocity": 0.7874015748031497
        },
        {
          "duration": 0.012500000000002842,
          "durationTicks": 10,
          "midi": 31,
          "name": "G1",
          "ticks": 37360,
          "time": 46.699999999999996,
          "velocity": 0.8818897637795275
        },
        {
          "duration": 0.17999999999999972,
          "durationTicks": 144,
          "midi": 31,
          "name": "G1",
          "ticks": 37440,
          "time": 46.8,
          "velocity": 0.7874015748031497
        },
        {
          "duration": 0.09000000000000341,
          "durationTicks": 72,
          "midi": 31,
          "name": "G1",
          "ticks": 37680,
          "time": 47.1,
          "velocity": 0.7874015748031497
        },
        {
          "duration": 0.09000000000000341,
          "durationTicks": 72,
          "midi": 31,
          "name": "G1",
          "ticks": 37840,
          "time": 47.3,
          "velocity": 0.7874015748031497
        },
        {
          "duration": 0.09000000000000341,
          "durationTicks": 72,
          "midi": 31,
          "name": "G1",
          "ticks": 38080,
          "time": 47.599999999999994,
          "velocity": 0.7874015748031497
        },
        {
          "duration": 0.28000000000000114,
          "durationTicks": 224,
          "midi": 32,
          "name": "G#1",
          "ticks": 38160,
          "time": 47.699999999999996,
          "velocity": 0.7874015748031497
        },
        {
          "duration": 0.17999999999999972,
          "durationTicks": 144,
          "midi": 33,
          "name": "A1",
          "ticks": 38400,
          "time": 48,
          "velocity": 0.7874015748031497
        },
        {
          "duration": 0.09000000000000341,
          "durationTicks": 72,
          "midi": 33,
          "name": "A1",
          "ticks": 38560,
          "time": 48.199999999999996,
          "velocity": 0.7874015748031497
        },
        {
          "duration": 0.17999999999999972,
          "durationTicks": 144,
          "midi": 33,
          "name": "A1",
          "ticks": 38640,
          "time": 48.3,
          "velocity": 0.7874015748031497
        },
        {
          "duration": 0.1799999999999926,
          "durationTicks": 144,
          "midi": 33,
          "name": "A1",
          "ticks": 38880,
          "time": 48.6,
          "velocity": 0.7874015748031497
        },
        {
          "duration": 0.18000000000000682,
          "durationTicks": 144,
          "midi": 36,
          "name": "C2",
          "ticks": 39040,
          "time": 48.8,
          "velocity": 0.7874015748031497
        },
        {
          "duration": 0.20000000000000995,
          "durationTicks": 160,
          "midi": 38,
          "name": "D2",
          "ticks": 39280,
          "time": 49.099999999999994,
          "velocity": 0.7874015748031497
        },
        {
          "duration": 0.46000000000000085,
          "durationTicks": 368,
          "midi": 33,
          "name": "A1",
          "ticks": 39840,
          "time": 49.8,
          "velocity": 0.7874015748031497
        },
        {
          "duration": 0.09000000000000341,
          "durationTicks": 72,
          "midi": 31,
          "name": "G1",
          "ticks": 40240,
          "time": 50.3,
          "velocity": 0.7874015748031497
        },
        {
          "duration": 0.1799999999999926,
          "durationTicks": 144,
          "midi": 26,
          "name": "D1",
          "ticks": 41280,
          "time": 51.6,
          "velocity": 0.7874015748031497
        },
        {
          "duration": 0.09000000000000341,
          "durationTicks": 72,
          "midi": 28,
          "name": "E1",
          "ticks": 41440,
          "time": 51.8,
          "velocity": 0.7874015748031497
        },
        {
          "duration": 0.17999999999999972,
          "durationTicks": 144,
          "midi": 31,
          "name": "G1",
          "ticks": 41520,
          "time": 51.9,
          "velocity": 0.7874015748031497
        },
        {
          "duration": 0.09000000000000341,
          "durationTicks": 72,
          "midi": 33,
          "name": "A1",
          "ticks": 41680,
          "time": 52.099999999999994,
          "velocity": 0.7874015748031497
        },
        {
          "duration": 0.17999999999999972,
          "durationTicks": 144,
          "midi": 38,
          "name": "D2",
          "ticks": 41760,
          "time": 52.199999999999996,
          "velocity": 0.7874015748031497
        },
        {
          "duration": 0.35999999999999943,
          "durationTicks": 288,
          "midi": 36,
          "name": "C2",
          "ticks": 41920,
          "time": 52.4,
          "velocity": 0.7874015748031497
        },
        {
          "duration": 0.17999999999999972,
          "durationTicks": 144,
          "midi": 33,
          "name": "A1",
          "ticks": 42240,
          "time": 52.8,
          "velocity": 0.7874015748031497
        },
        {
          "duration": 0.09000000000000341,
          "durationTicks": 72,
          "midi": 33,
          "name": "A1",
          "ticks": 42400,
          "time": 52.99999999999999,
          "velocity": 0.7874015748031497
        },
        {
          "duration": 0.1799999999999926,
          "durationTicks": 144,
          "midi": 33,
          "name": "A1",
          "ticks": 42480,
          "time": 53.1,
          "velocity": 0.7874015748031497
        },
        {
          "duration": 0.17999999999999972,
          "durationTicks": 144,
          "midi": 33,
          "name": "A1",
          "ticks": 42720,
          "time": 53.4,
          "velocity": 0.7874015748031497
        },
        {
          "duration": 0.18000000000000682,
          "durationTicks": 144,
          "midi": 36,
          "name": "C2",
          "ticks": 42880,
          "time": 53.599999999999994,
          "velocity": 0.7874015748031497
        },
        {
          "duration": 0.20000000000000284,
          "durationTicks": 160,
          "midi": 38,
          "name": "D2",
          "ticks": 43120,
          "time": 53.9,
          "velocity": 0.7874015748031497
        },
        {
          "duration": 0.45999999999999375,
          "durationTicks": 368,
          "midi": 33,
          "name": "A1",
          "ticks": 43680,
          "time": 54.6,
          "velocity": 0.7874015748031497
        },
        {
          "duration": 0.09000000000000341,
          "durationTicks": 72,
          "midi": 31,
          "name": "G1",
          "ticks": 44080,
          "time": 55.099999999999994,
          "velocity": 0.7874015748031497
        },
        {
          "duration": 0.012500000000002842,
          "durationTicks": 10,
          "midi": 31,
          "name": "G1",
          "ticks": 45040,
          "time": 56.3,
          "velocity": 0.8818897637795275
        },
        {
          "duration": 0.17999999999999972,
          "durationTicks": 144,
          "midi": 31,
          "name": "G1",
          "ticks": 45120,
          "time": 56.4,
          "velocity": 0.7874015748031497
        },
        {
          "duration": 0.09000000000000341,
          "durationTicks": 72,
          "midi": 31,
          "name": "G1",
          "ticks": 45360,
          "time": 56.699999999999996,
          "velocity": 0.7874015748031497
        },
        {
          "duration": 0.09000000000000341,
          "durationTicks": 72,
          "midi": 31,
          "name": "G1",
          "ticks": 45520,
          "time": 56.9,
          "velocity": 0.7874015748031497
        },
        {
          "duration": 0.09000000000000341,
          "durationTicks": 72,
          "midi": 31,
          "name": "G1",
          "ticks": 45760,
          "time": 57.199999999999996,
          "velocity": 0.7874015748031497
        },
        {
          "duration": 0.28000000000000114,
          "durationTicks": 224,
          "midi": 32,
          "name": "G#1",
          "ticks": 45840,
          "time": 57.3,
          "velocity": 0.7874015748031497
        },
        {
          "duration": 0.17999999999999972,
          "durationTicks": 144,
          "midi": 33,
          "name": "A1",
          "ticks": 46080,
          "time": 57.599999999999994,
          "velocity": 0.7874015748031497
        },
        {
          "duration": 0.09000000000000341,
          "durationTicks": 72,
          "midi": 33,
          "name": "A1",
          "ticks": 46240,
          "time": 57.8,
          "velocity": 0.7874015748031497
        },
        {
          "duration": 0.17999999999999972,
          "durationTicks": 144,
          "midi": 33,
          "name": "A1",
          "ticks": 46320,
          "time": 57.9,
          "velocity": 0.7874015748031497
        },
        {
          "duration": 0.17999999999999972,
          "durationTicks": 144,
          "midi": 33,
          "name": "A1",
          "ticks": 46560,
          "time": 58.199999999999996,
          "velocity": 0.7874015748031497
        },
        {
          "duration": 0.18000000000000682,
          "durationTicks": 144,
          "midi": 36,
          "name": "C2",
          "ticks": 46720,
          "time": 58.39999999999999,
          "velocity": 0.7874015748031497
        },
        {
          "duration": 0.20000000000000284,
          "durationTicks": 160,
          "midi": 38,
          "name": "D2",
          "ticks": 46960,
          "time": 58.699999999999996,
          "velocity": 0.7874015748031497
        },
        {
          "duration": 0.46000000000000085,
          "durationTicks": 368,
          "midi": 33,
          "name": "A1",
          "ticks": 47520,
          "time": 59.4,
          "velocity": 0.7874015748031497
        },
        {
          "duration": 0.09000000000000341,
          "durationTicks": 72,
          "midi": 31,
          "name": "G1",
          "ticks": 47920,
          "time": 59.89999999999999,
          "velocity": 0.7874015748031497
        },
        {
          "duration": 0.17999999999999972,
          "durationTicks": 144,
          "midi": 28,
          "name": "E1",
          "ticks": 48960,
          "time": 61.199999999999996,
          "velocity": 0.7874015748031497
        },
        {
          "duration": 0.09000000000000341,
          "durationTicks": 72,
          "midi": 23,
          "name": "B0",
          "ticks": 49120,
          "time": 61.39999999999999,
          "velocity": 0.7874015748031497
        },
        {
          "duration": 0.1799999999999926,
          "durationTicks": 144,
          "midi": 26,
          "name": "D1",
          "ticks": 49200,
          "time": 61.5,
          "velocity": 0.7874015748031497
        },
        {
          "duration": 0.146250000000002,
          "durationTicks": 117,
          "midi": 28,
          "name": "E1",
          "ticks": 49360,
          "time": 61.699999999999996,
          "velocity": 0.7874015748031497
        },
        {
          "duration": 0.4000000000000057,
          "durationTicks": 320,
          "midi": 28,
          "name": "E1",
          "ticks": 49600,
          "time": 61.99999999999999,
          "velocity": 0.7874015748031497
        },
        {
          "duration": 0.28000000000000114,
          "durationTicks": 224,
          "midi": 29,
          "name": "F1",
          "ticks": 49920,
          "time": 62.4,
          "velocity": 0.7874015748031497
        },
        {
          "duration": 0.28000000000000114,
          "durationTicks": 224,
          "midi": 29,
          "name": "F1",
          "ticks": 50160,
          "time": 62.699999999999996,
          "velocity": 0.7874015748031497
        },
        {
          "duration": 0.18000000000000682,
          "durationTicks": 144,
          "midi": 29,
          "name": "F1",
          "ticks": 50560,
          "time": 63.199999999999996,
          "velocity": 0.7874015748031497
        },
        {
          "duration": 0.09000000000000341,
          "durationTicks": 72,
          "midi": 29,
          "name": "F1",
          "ticks": 50800,
          "time": 63.49999999999999,
          "velocity": 0.7874015748031497
        },
        {
          "duration": 0.28000000000000114,
          "durationTicks": 224,
          "midi": 29,
          "name": "F1",
          "ticks": 51520,
          "time": 64.39999999999999,
          "velocity": 0.7874015748031497
        },
        {
          "duration": 0.09000000000000341,
          "durationTicks": 72,
          "midi": 29,
          "name": "F1",
          "ticks": 51760,
          "time": 64.69999999999999,
          "velocity": 0.7874015748031497
        },
        {
          "duration": 0.28000000000000114,
          "durationTicks": 224,
          "midi": 28,
          "name": "E1",
          "ticks": 51840,
          "time": 64.8,
          "velocity": 0.7874015748031497
        },
        {
          "duration": 0.28000000000000114,
          "durationTicks": 224,
          "midi": 28,
          "name": "E1",
          "ticks": 52080,
          "time": 65.1,
          "velocity": 0.7874015748031497
        },
        {
          "duration": 0.18000000000000682,
          "durationTicks": 144,
          "midi": 28,
          "name": "E1",
          "ticks": 52480,
          "time": 65.6,
          "velocity": 0.7874015748031497
        },
        {
          "duration": 0.09000000000000341,
          "durationTicks": 72,
          "midi": 28,
          "name": "E1",
          "ticks": 52720,
          "time": 65.89999999999999,
          "velocity": 0.7874015748031497
        },
        {
          "duration": 0.28000000000000114,
          "durationTicks": 224,
          "midi": 28,
          "name": "E1",
          "ticks": 53440,
          "time": 66.8,
          "velocity": 0.7874015748031497
        },
        {
          "duration": 0.09000000000000341,
          "durationTicks": 72,
          "midi": 28,
          "name": "E1",
          "ticks": 53680,
          "time": 67.1,
          "velocity": 0.7874015748031497
        },
        {
          "duration": 0.28000000000000114,
          "durationTicks": 224,
          "midi": 26,
          "name": "D1",
          "ticks": 53760,
          "time": 67.2,
          "velocity": 0.7874015748031497
        },
        {
          "duration": 0.28000000000000114,
          "durationTicks": 224,
          "midi": 26,
          "name": "D1",
          "ticks": 54000,
          "time": 67.5,
          "velocity": 0.7874015748031497
        },
        {
          "duration": 0.18000000000000682,
          "durationTicks": 144,
          "midi": 26,
          "name": "D1",
          "ticks": 54400,
          "time": 68,
          "velocity": 0.7874015748031497
        },
        {
          "duration": 0.09000000000000341,
          "durationTicks": 72,
          "midi": 26,
          "name": "D1",
          "ticks": 54640,
          "time": 68.3,
          "velocity": 0.7874015748031497
        },
        {
          "duration": 0.28000000000000114,
          "durationTicks": 224,
          "midi": 27,
          "name": "D#1",
          "ticks": 55360,
          "time": 69.19999999999999,
          "velocity": 0.7874015748031497
        },
        {
          "duration": 0.09000000000000341,
          "durationTicks": 72,
          "midi": 27,
          "name": "D#1",
          "ticks": 55600,
          "time": 69.5,
          "velocity": 0.7874015748031497
        },
        {
          "duration": 0.28000000000000114,
          "durationTicks": 224,
          "midi": 28,
          "name": "E1",
          "ticks": 55680,
          "time": 69.6,
          "velocity": 0.7874015748031497
        },
        {
          "duration": 0.28000000000000114,
          "durationTicks": 224,
          "midi": 28,
          "name": "E1",
          "ticks": 55920,
          "time": 69.89999999999999,
          "velocity": 0.7874015748031497
        },
        {
          "duration": 0.18000000000000682,
          "durationTicks": 144,
          "midi": 28,
          "name": "E1",
          "ticks": 56320,
          "time": 70.39999999999999,
          "velocity": 0.7874015748031497
        },
        {
          "duration": 0.09000000000000341,
          "durationTicks": 72,
          "midi": 28,
          "name": "E1",
          "ticks": 56560,
          "time": 70.69999999999999,
          "velocity": 0.7874015748031497
        },
        {
          "duration": 0.09000000000000341,
          "durationTicks": 72,
          "midi": 39,
          "name": "D#2",
          "ticks": 57120,
          "time": 71.39999999999999,
          "velocity": 0.7874015748031497
        },
        {
          "duration": 0.0899999999999892,
          "durationTicks": 72,
          "midi": 38,
          "name": "D2",
          "ticks": 57200,
          "time": 71.5,
          "velocity": 0.7874015748031497
        },
        {
          "duration": 0.09000000000000341,
          "durationTicks": 72,
          "midi": 36,
          "name": "C2",
          "ticks": 57280,
          "time": 71.6,
          "velocity": 0.7874015748031497
        },
        {
          "duration": 0.09000000000000341,
          "durationTicks": 72,
          "midi": 33,
          "name": "A1",
          "ticks": 57360,
          "time": 71.7,
          "velocity": 0.7874015748031497
        },
        {
          "duration": 0.09000000000000341,
          "durationTicks": 72,
          "midi": 31,
          "name": "G1",
          "ticks": 57440,
          "time": 71.8,
          "velocity": 0.7874015748031497
        },
        {
          "duration": 0.09000000000000341,
          "durationTicks": 72,
          "midi": 30,
          "name": "F#1",
          "ticks": 57520,
          "time": 71.89999999999999,
          "velocity": 0.7874015748031497
        },
        {
          "duration": 0.1799999999999926,
          "durationTicks": 144,
          "midi": 29,
          "name": "F1",
          "ticks": 57600,
          "time": 72,
          "velocity": 0.7874015748031497
        },
        {
          "duration": 0.09000000000000341,
          "durationTicks": 72,
          "midi": 29,
          "name": "F1",
          "ticks": 57760,
          "time": 72.19999999999999,
          "velocity": 0.7874015748031497
        },
        {
          "duration": 0.1799999999999926,
          "durationTicks": 144,
          "midi": 29,
          "name": "F1",
          "ticks": 57840,
          "time": 72.3,
          "velocity": 0.7874015748031497
        },
        {
          "duration": 0.09000000000000341,
          "durationTicks": 72,
          "midi": 41,
          "name": "F2",
          "ticks": 58080,
          "time": 72.6,
          "velocity": 0.7874015748031497
        },
        {
          "duration": 0.18000000000000682,
          "durationTicks": 144,
          "midi": 29,
          "name": "F1",
          "ticks": 58240,
          "time": 72.8,
          "velocity": 0.7874015748031497
        },
        {
          "duration": 0.09000000000000341,
          "durationTicks": 72,
          "midi": 29,
          "name": "F1",
          "ticks": 58480,
          "time": 73.1,
          "velocity": 0.7874015748031497
        },
        {
          "duration": 0.09000000000000341,
          "durationTicks": 72,
          "midi": 41,
          "name": "F2",
          "ticks": 59200,
          "time": 74,
          "velocity": 0.7874015748031497
        },
        {
          "duration": 0.09000000000000341,
          "durationTicks": 72,
          "midi": 29,
          "name": "F1",
          "ticks": 59280,
          "time": 74.1,
          "velocity": 0.7874015748031497
        },
        {
          "duration": 0.09000000000000341,
          "durationTicks": 72,
          "midi": 24,
          "name": "C1",
          "ticks": 59440,
          "time": 74.3,
          "velocity": 0.7874015748031497
        },
        {
          "duration": 0.18000000000000682,
          "durationTicks": 144,
          "midi": 28,
          "name": "E1",
          "ticks": 59520,
          "time": 74.39999999999999,
          "velocity": 0.7874015748031497
        },
        {
          "duration": 0.09000000000000341,
          "durationTicks": 72,
          "midi": 28,
          "name": "E1",
          "ticks": 59680,
          "time": 74.6,
          "velocity": 0.7874015748031497
        },
        {
          "duration": 0.1799999999999926,
          "durationTicks": 144,
          "midi": 28,
          "name": "E1",
          "ticks": 59760,
          "time": 74.7,
          "velocity": 0.7874015748031497
        },
        {
          "duration": 0.09000000000000341,
          "durationTicks": 72,
          "midi": 40,
          "name": "E2",
          "ticks": 60000,
          "time": 75,
          "velocity": 0.7874015748031497
        },
        {
          "duration": 0.18000000000000682,
          "durationTicks": 144,
          "midi": 28,
          "name": "E1",
          "ticks": 60160,
          "time": 75.19999999999999,
          "velocity": 0.7874015748031497
        },
        {
          "duration": 0.09000000000000341,
          "durationTicks": 72,
          "midi": 28,
          "name": "E1",
          "ticks": 60400,
          "time": 75.5,
          "velocity": 0.7874015748031497
        },
        {
          "duration": 0.09000000000000341,
          "durationTicks": 72,
          "midi": 40,
          "name": "E2",
          "ticks": 61120,
          "time": 76.39999999999999,
          "velocity": 0.7874015748031497
        },
        {
          "duration": 0.09000000000000341,
          "durationTicks": 72,
          "midi": 28,
          "name": "E1",
          "ticks": 61200,
          "time": 76.5,
          "velocity": 0.7874015748031497
        },
        {
          "duration": 0.09000000000000341,
          "durationTicks": 72,
          "midi": 26,
          "name": "D1",
          "ticks": 61360,
          "time": 76.69999999999999,
          "velocity": 0.7874015748031497
        },
        {
          "duration": 0.18000000000000682,
          "durationTicks": 144,
          "midi": 26,
          "name": "D1",
          "ticks": 61440,
          "time": 76.8,
          "velocity": 0.7874015748031497
        },
        {
          "duration": 0.0899999999999892,
          "durationTicks": 72,
          "midi": 26,
          "name": "D1",
          "ticks": 61600,
          "time": 77,
          "velocity": 0.7874015748031497
        },
        {
          "duration": 0.18000000000000682,
          "durationTicks": 144,
          "midi": 26,
          "name": "D1",
          "ticks": 61680,
          "time": 77.1,
          "velocity": 0.7874015748031497
        },
        {
          "duration": 0.09000000000000341,
          "durationTicks": 72,
          "midi": 38,
          "name": "D2",
          "ticks": 61920,
          "time": 77.39999999999999,
          "velocity": 0.7874015748031497
        },
        {
          "duration": 0.1799999999999784,
          "durationTicks": 144,
          "midi": 26,
          "name": "D1",
          "ticks": 62080,
          "time": 77.60000000000001,
          "velocity": 0.7874015748031497
        },
        {
          "duration": 0.0899999999999892,
          "durationTicks": 72,
          "midi": 26,
          "name": "D1",
          "ticks": 62320,
          "time": 77.9,
          "velocity": 0.7874015748031497
        },
        {
          "duration": 0.0899999999999892,
          "durationTicks": 72,
          "midi": 38,
          "name": "D2",
          "ticks": 63040,
          "time": 78.8,
          "velocity": 0.7874015748031497
        },
        {
          "duration": 0.09000000000000341,
          "durationTicks": 72,
          "midi": 26,
          "name": "D1",
          "ticks": 63120,
          "time": 78.89999999999999,
          "velocity": 0.7874015748031497
        },
        {
          "duration": 0.08999999999997499,
          "durationTicks": 72,
          "midi": 27,
          "name": "D#1",
          "ticks": 63280,
          "time": 79.10000000000001,
          "velocity": 0.7874015748031497
        },
        {
          "duration": 0.46000000000000796,
          "durationTicks": 368,
          "midi": 28,
          "name": "E1",
          "ticks": 63360,
          "time": 79.2,
          "velocity": 0.7874015748031497
        },
        {
          "duration": 0.19999999999998863,
          "durationTicks": 160,
          "midi": 28,
          "name": "E1",
          "ticks": 63760,
          "time": 79.7,
          "velocity": 0.7874015748031497
        },
        {
          "duration": 0.18000000000000682,
          "durationTicks": 144,
          "midi": 39,
          "name": "D#2",
          "ticks": 64320,
          "time": 80.39999999999999,
          "velocity": 0.7874015748031497
        },
        {
          "duration": 0.08999999999997499,
          "durationTicks": 72,
          "midi": 38,
          "name": "D2",
          "ticks": 64480,
          "time": 80.60000000000001,
          "velocity": 0.7874015748031497
        },
        {
          "duration": 0.1799999999999926,
          "durationTicks": 144,
          "midi": 36,
          "name": "C2",
          "ticks": 64720,
          "time": 80.9,
          "velocity": 0.7874015748031497
        },
        {
          "duration": 0.0899999999999892,
          "durationTicks": 72,
          "midi": 33,
          "name": "A1",
          "ticks": 64960,
          "time": 81.2,
          "velocity": 0.7874015748031497
        },
        {
          "duration": 0.18000000000000682,
          "durationTicks": 144,
          "midi": 31,
          "name": "G1",
          "ticks": 65040,
          "time": 81.3,
          "velocity": 0.7874015748031497
        },
        {
          "duration": 0.0899999999999892,
          "durationTicks": 72,
          "midi": 32,
          "name": "G#1",
          "ticks": 65200,
          "time": 81.5,
          "velocity": 0.7874015748031497
        },
        {
          "duration": 0.18000000000000682,
          "durationTicks": 144,
          "midi": 33,
          "name": "A1",
          "ticks": 65280,
          "time": 81.6,
          "velocity": 0.7874015748031497
        },
        {
          "duration": 0.0899999999999892,
          "durationTicks": 72,
          "midi": 33,
          "name": "A1",
          "ticks": 65440,
          "time": 81.8,
          "velocity": 0.7874015748031497
        },
        {
          "duration": 0.18000000000000682,
          "durationTicks": 144,
          "midi": 33,
          "name": "A1",
          "ticks": 65520,
          "time": 81.89999999999999,
          "velocity": 0.7874015748031497
        },
        {
          "duration": 0.18000000000000682,
          "durationTicks": 144,
          "midi": 33,
          "name": "A1",
          "ticks": 65760,
          "time": 82.2,
          "velocity": 0.7874015748031497
        },
        {
          "duration": 0.1799999999999926,
          "durationTicks": 144,
          "midi": 36,
          "name": "C2",
          "ticks": 65920,
          "time": 82.4,
          "velocity": 0.7874015748031497
        },
        {
          "duration": 0.19999999999998863,
          "durationTicks": 160,
          "midi": 38,
          "name": "D2",
          "ticks": 66160,
          "time": 82.7,
          "velocity": 0.7874015748031497
        },
        {
          "duration": 0.46000000000000796,
          "durationTicks": 368,
          "midi": 33,
          "name": "A1",
          "ticks": 66720,
          "time": 83.39999999999999,
          "velocity": 0.7874015748031497
        },
        {
          "duration": 0.0899999999999892,
          "durationTicks": 72,
          "midi": 31,
          "name": "G1",
          "ticks": 67120,
          "time": 83.9,
          "velocity": 0.7874015748031497
        },
        {
          "duration": 0.012499999999988631,
          "durationTicks": 10,
          "midi": 31,
          "name": "G1",
          "ticks": 68080,
          "time": 85.10000000000001,
          "velocity": 0.8818897637795275
        },
        {
          "duration": 0.18000000000000682,
          "durationTicks": 144,
          "midi": 31,
          "name": "G1",
          "ticks": 68160,
          "time": 85.2,
          "velocity": 0.7874015748031497
        },
        {
          "duration": 0.09000000000000341,
          "durationTicks": 72,
          "midi": 31,
          "name": "G1",
          "ticks": 68400,
          "time": 85.5,
          "velocity": 0.7874015748031497
        },
        {
          "duration": 0.0899999999999892,
          "durationTicks": 72,
          "midi": 31,
          "name": "G1",
          "ticks": 68560,
          "time": 85.7,
          "velocity": 0.7874015748031497
        },
        {
          "duration": 0.0899999999999892,
          "durationTicks": 72,
          "midi": 31,
          "name": "G1",
          "ticks": 68800,
          "time": 86,
          "velocity": 0.7874015748031497
        },
        {
          "duration": 0.28000000000000114,
          "durationTicks": 224,
          "midi": 32,
          "name": "G#1",
          "ticks": 68880,
          "time": 86.1,
          "velocity": 0.7874015748031497
        },
        {
          "duration": 0.18000000000000682,
          "durationTicks": 144,
          "midi": 33,
          "name": "A1",
          "ticks": 69120,
          "time": 86.39999999999999,
          "velocity": 0.7874015748031497
        },
        {
          "duration": 0.08999999999997499,
          "durationTicks": 72,
          "midi": 33,
          "name": "A1",
          "ticks": 69280,
          "time": 86.60000000000001,
          "velocity": 0.7874015748031497
        },
        {
          "duration": 0.18000000000000682,
          "durationTicks": 144,
          "midi": 33,
          "name": "A1",
          "ticks": 69360,
          "time": 86.7,
          "velocity": 0.7874015748031497
        },
        {
          "duration": 0.18000000000000682,
          "durationTicks": 144,
          "midi": 33,
          "name": "A1",
          "ticks": 69600,
          "time": 87,
          "velocity": 0.7874015748031497
        },
        {
          "duration": 0.1799999999999926,
          "durationTicks": 144,
          "midi": 36,
          "name": "C2",
          "ticks": 69760,
          "time": 87.2,
          "velocity": 0.7874015748031497
        },
        {
          "duration": 0.19999999999998863,
          "durationTicks": 160,
          "midi": 38,
          "name": "D2",
          "ticks": 70000,
          "time": 87.5,
          "velocity": 0.7874015748031497
        },
        {
          "duration": 0.46000000000000796,
          "durationTicks": 368,
          "midi": 33,
          "name": "A1",
          "ticks": 70560,
          "time": 88.2,
          "velocity": 0.7874015748031497
        },
        {
          "duration": 0.0899999999999892,
          "durationTicks": 72,
          "midi": 31,
          "name": "G1",
          "ticks": 70960,
          "time": 88.7,
          "velocity": 0.7874015748031497
        },
        {
          "duration": 0.18000000000000682,
          "durationTicks": 144,
          "midi": 26,
          "name": "D1",
          "ticks": 72000,
          "time": 90,
          "velocity": 0.7874015748031497
        },
        {
          "duration": 0.0899999999999892,
          "durationTicks": 72,
          "midi": 28,
          "name": "E1",
          "ticks": 72160,
          "time": 90.2,
          "velocity": 0.7874015748031497
        },
        {
          "duration": 0.18000000000000682,
          "durationTicks": 144,
          "midi": 31,
          "name": "G1",
          "ticks": 72240,
          "time": 90.3,
          "velocity": 0.7874015748031497
        },
        {
          "duration": 0.0899999999999892,
          "durationTicks": 72,
          "midi": 33,
          "name": "A1",
          "ticks": 72400,
          "time": 90.5,
          "velocity": 0.7874015748031497
        },
        {
          "duration": 0.18000000000000682,
          "durationTicks": 144,
          "midi": 38,
          "name": "D2",
          "ticks": 72480,
          "time": 90.6,
          "velocity": 0.7874015748031497
        },
        {
          "duration": 0.35999999999999943,
          "durationTicks": 288,
          "midi": 36,
          "name": "C2",
          "ticks": 72640,
          "time": 90.8,
          "velocity": 0.7874015748031497
        },
        {
          "duration": 0.18000000000000682,
          "durationTicks": 144,
          "midi": 33,
          "name": "A1",
          "ticks": 72960,
          "time": 91.2,
          "velocity": 0.7874015748031497
        },
        {
          "duration": 0.0899999999999892,
          "durationTicks": 72,
          "midi": 33,
          "name": "A1",
          "ticks": 73120,
          "time": 91.4,
          "velocity": 0.7874015748031497
        },
        {
          "duration": 0.18000000000000682,
          "durationTicks": 144,
          "midi": 33,
          "name": "A1",
          "ticks": 73200,
          "time": 91.5,
          "velocity": 0.7874015748031497
        },
        {
          "duration": 0.18000000000000682,
          "durationTicks": 144,
          "midi": 33,
          "name": "A1",
          "ticks": 73440,
          "time": 91.8,
          "velocity": 0.7874015748031497
        },
        {
          "duration": 0.1799999999999926,
          "durationTicks": 144,
          "midi": 36,
          "name": "C2",
          "ticks": 73600,
          "time": 92,
          "velocity": 0.7874015748031497
        },
        {
          "duration": 0.19999999999998863,
          "durationTicks": 160,
          "midi": 38,
          "name": "D2",
          "ticks": 73840,
          "time": 92.3,
          "velocity": 0.7874015748031497
        },
        {
          "duration": 0.46000000000000796,
          "durationTicks": 368,
          "midi": 33,
          "name": "A1",
          "ticks": 74400,
          "time": 93,
          "velocity": 0.7874015748031497
        },
        {
          "duration": 0.0899999999999892,
          "durationTicks": 72,
          "midi": 31,
          "name": "G1",
          "ticks": 74800,
          "time": 93.5,
          "velocity": 0.7874015748031497
        },
        {
          "duration": 0.012499999999988631,
          "durationTicks": 10,
          "midi": 31,
          "name": "G1",
          "ticks": 75760,
          "time": 94.7,
          "velocity": 0.8818897637795275
        },
        {
          "duration": 0.18000000000000682,
          "durationTicks": 144,
          "midi": 31,
          "name": "G1",
          "ticks": 75840,
          "time": 94.8,
          "velocity": 0.7874015748031497
        },
        {
          "duration": 0.09000000000000341,
          "durationTicks": 72,
          "midi": 31,
          "name": "G1",
          "ticks": 76080,
          "time": 95.1,
          "velocity": 0.7874015748031497
        },
        {
          "duration": 0.0899999999999892,
          "durationTicks": 72,
          "midi": 31,
          "name": "G1",
          "ticks": 76240,
          "time": 95.3,
          "velocity": 0.7874015748031497
        },
        {
          "duration": 0.08999999999997499,
          "durationTicks": 72,
          "midi": 31,
          "name": "G1",
          "ticks": 76480,
          "time": 95.60000000000001,
          "velocity": 0.7874015748031497
        },
        {
          "duration": 0.28000000000000114,
          "durationTicks": 224,
          "midi": 32,
          "name": "G#1",
          "ticks": 76560,
          "time": 95.7,
          "velocity": 0.7874015748031497
        },
        {
          "duration": 0.18000000000000682,
          "durationTicks": 144,
          "midi": 33,
          "name": "A1",
          "ticks": 76800,
          "time": 96,
          "velocity": 0.7874015748031497
        },
        {
          "duration": 0.0899999999999892,
          "durationTicks": 72,
          "midi": 33,
          "name": "A1",
          "ticks": 76960,
          "time": 96.2,
          "velocity": 0.7874015748031497
        },
        {
          "duration": 0.18000000000000682,
          "durationTicks": 144,
          "midi": 33,
          "name": "A1",
          "ticks": 77040,
          "time": 96.3,
          "velocity": 0.7874015748031497
        },
        {
          "duration": 0.18000000000000682,
          "durationTicks": 144,
          "midi": 33,
          "name": "A1",
          "ticks": 77280,
          "time": 96.6,
          "velocity": 0.7874015748031497
        },
        {
          "duration": 0.1799999999999926,
          "durationTicks": 144,
          "midi": 36,
          "name": "C2",
          "ticks": 77440,
          "time": 96.8,
          "velocity": 0.7874015748031497
        },
        {
          "duration": 0.19999999999998863,
          "durationTicks": 160,
          "midi": 38,
          "name": "D2",
          "ticks": 77680,
          "time": 97.10000000000001,
          "velocity": 0.7874015748031497
        },
        {
          "duration": 0.46000000000000796,
          "durationTicks": 368,
          "midi": 33,
          "name": "A1",
          "ticks": 78240,
          "time": 97.8,
          "velocity": 0.7874015748031497
        },
        {
          "duration": 0.0899999999999892,
          "durationTicks": 72,
          "midi": 31,
          "name": "G1",
          "ticks": 78640,
          "time": 98.3,
          "velocity": 0.7874015748031497
        },
        {
          "duration": 0.18000000000000682,
          "durationTicks": 144,
          "midi": 28,
          "name": "E1",
          "ticks": 79680,
          "time": 99.6,
          "velocity": 0.7874015748031497
        },
        {
          "duration": 0.0899999999999892,
          "durationTicks": 72,
          "midi": 23,
          "name": "B0",
          "ticks": 79840,
          "time": 99.8,
          "velocity": 0.7874015748031497
        },
        {
          "duration": 0.18000000000000682,
          "durationTicks": 144,
          "midi": 26,
          "name": "D1",
          "ticks": 79920,
          "time": 99.89999999999999,
          "velocity": 0.7874015748031497
        },
        {
          "duration": 0.14624999999998067,
          "durationTicks": 117,
          "midi": 28,
          "name": "E1",
          "ticks": 80080,
          "time": 100.10000000000001,
          "velocity": 0.7874015748031497
        },
        {
          "duration": 0.3999999999999915,
          "durationTicks": 320,
          "midi": 28,
          "name": "E1",
          "ticks": 80320,
          "time": 100.4,
          "velocity": 0.7874015748031497
        },
        {
          "duration": 0.28000000000000114,
          "durationTicks": 224,
          "midi": 29,
          "name": "F1",
          "ticks": 80640,
          "time": 100.8,
          "velocity": 0.7874015748031497
        },
        {
          "duration": 0.28000000000000114,
          "durationTicks": 224,
          "midi": 29,
          "name": "F1",
          "ticks": 80880,
          "time": 101.1,
          "velocity": 0.7874015748031497
        },
        {
          "duration": 0.1799999999999784,
          "durationTicks": 144,
          "midi": 29,
          "name": "F1",
          "ticks": 81280,
          "time": 101.60000000000001,
          "velocity": 0.7874015748031497
        },
        {
          "duration": 0.0899999999999892,
          "durationTicks": 72,
          "midi": 29,
          "name": "F1",
          "ticks": 81520,
          "time": 101.9,
          "velocity": 0.7874015748031497
        },
        {
          "duration": 0.28000000000000114,
          "durationTicks": 224,
          "midi": 29,
          "name": "F1",
          "ticks": 82240,
          "time": 102.8,
          "velocity": 0.7874015748031497
        },
        {
          "duration": 0.08999999999997499,
          "durationTicks": 72,
          "midi": 29,
          "name": "F1",
          "ticks": 82480,
          "time": 103.10000000000001,
          "velocity": 0.7874015748031497
        },
        {
          "duration": 0.28000000000000114,
          "durationTicks": 224,
          "midi": 28,
          "name": "E1",
          "ticks": 82560,
          "time": 103.2,
          "velocity": 0.7874015748031497
        },
        {
          "duration": 0.28000000000000114,
          "durationTicks": 224,
          "midi": 28,
          "name": "E1",
          "ticks": 82800,
          "time": 103.5,
          "velocity": 0.7874015748031497
        },
        {
          "duration": 0.1799999999999926,
          "durationTicks": 144,
          "midi": 28,
          "name": "E1",
          "ticks": 83200,
          "time": 104,
          "velocity": 0.7874015748031497
        },
        {
          "duration": 0.0899999999999892,
          "durationTicks": 72,
          "midi": 28,
          "name": "E1",
          "ticks": 83440,
          "time": 104.3,
          "velocity": 0.7874015748031497
        },
        {
          "duration": 0.28000000000000114,
          "durationTicks": 224,
          "midi": 28,
          "name": "E1",
          "ticks": 84160,
          "time": 105.2,
          "velocity": 0.7874015748031497
        },
        {
          "duration": 0.0899999999999892,
          "durationTicks": 72,
          "midi": 28,
          "name": "E1",
          "ticks": 84400,
          "time": 105.5,
          "velocity": 0.7874015748031497
        },
        {
          "duration": 0.28000000000000114,
          "durationTicks": 224,
          "midi": 26,
          "name": "D1",
          "ticks": 84480,
          "time": 105.6,
          "velocity": 0.7874015748031497
        },
        {
          "duration": 0.28000000000000114,
          "durationTicks": 224,
          "midi": 26,
          "name": "D1",
          "ticks": 84720,
          "time": 105.89999999999999,
          "velocity": 0.7874015748031497
        },
        {
          "duration": 0.1799999999999926,
          "durationTicks": 144,
          "midi": 26,
          "name": "D1",
          "ticks": 85120,
          "time": 106.4,
          "velocity": 0.7874015748031497
        },
        {
          "duration": 0.0899999999999892,
          "durationTicks": 72,
          "midi": 26,
          "name": "D1",
          "ticks": 85360,
          "time": 106.7,
          "velocity": 0.7874015748031497
        },
        {
          "duration": 0.28000000000000114,
          "durationTicks": 224,
          "midi": 27,
          "name": "D#1",
          "ticks": 86080,
          "time": 107.60000000000001,
          "velocity": 0.7874015748031497
        },
        {
          "duration": 0.0899999999999892,
          "durationTicks": 72,
          "midi": 27,
          "name": "D#1",
          "ticks": 86320,
          "time": 107.9,
          "velocity": 0.7874015748031497
        },
        {
          "duration": 0.28000000000000114,
          "durationTicks": 224,
          "midi": 28,
          "name": "E1",
          "ticks": 86400,
          "time": 108,
          "velocity": 0.7874015748031497
        },
        {
          "duration": 0.28000000000000114,
          "durationTicks": 224,
          "midi": 28,
          "name": "E1",
          "ticks": 86640,
          "time": 108.3,
          "velocity": 0.7874015748031497
        },
        {
          "duration": 0.1799999999999926,
          "durationTicks": 144,
          "midi": 28,
          "name": "E1",
          "ticks": 87040,
          "time": 108.8,
          "velocity": 0.7874015748031497
        },
        {
          "duration": 0.08999999999997499,
          "durationTicks": 72,
          "midi": 28,
          "name": "E1",
          "ticks": 87280,
          "time": 109.10000000000001,
          "velocity": 0.7874015748031497
        },
        {
          "duration": 0.09000000000000341,
          "durationTicks": 72,
          "midi": 39,
          "name": "D#2",
          "ticks": 87840,
          "time": 109.8,
          "velocity": 0.7874015748031497
        },
        {
          "duration": 0.09000000000000341,
          "durationTicks": 72,
          "midi": 38,
          "name": "D2",
          "ticks": 87920,
          "time": 109.89999999999999,
          "velocity": 0.7874015748031497
        },
        {
          "duration": 0.0899999999999892,
          "durationTicks": 72,
          "midi": 36,
          "name": "C2",
          "ticks": 88000,
          "time": 110,
          "velocity": 0.7874015748031497
        },
        {
          "duration": 0.09000000000000341,
          "durationTicks": 72,
          "midi": 33,
          "name": "A1",
          "ticks": 88080,
          "time": 110.1,
          "velocity": 0.7874015748031497
        },
        {
          "duration": 0.09000000000000341,
          "durationTicks": 72,
          "midi": 31,
          "name": "G1",
          "ticks": 88160,
          "time": 110.19999999999999,
          "velocity": 0.7874015748031497
        },
        {
          "duration": 0.0899999999999892,
          "durationTicks": 72,
          "midi": 30,
          "name": "F#1",
          "ticks": 88240,
          "time": 110.3,
          "velocity": 0.7874015748031497
        },
        {
          "duration": 0.18000000000000682,
          "durationTicks": 144,
          "midi": 29,
          "name": "F1",
          "ticks": 88320,
          "time": 110.39999999999999,
          "velocity": 0.7874015748031497
        },
        {
          "duration": 0.08999999999997499,
          "durationTicks": 72,
          "midi": 29,
          "name": "F1",
          "ticks": 88480,
          "time": 110.60000000000001,
          "velocity": 0.7874015748031497
        },
        {
          "duration": 0.18000000000000682,
          "durationTicks": 144,
          "midi": 29,
          "name": "F1",
          "ticks": 88560,
          "time": 110.7,
          "velocity": 0.7874015748031497
        },
        {
          "duration": 0.09000000000000341,
          "durationTicks": 72,
          "midi": 41,
          "name": "F2",
          "ticks": 88800,
          "time": 111,
          "velocity": 0.7874015748031497
        },
        {
          "duration": 0.1799999999999926,
          "durationTicks": 144,
          "midi": 29,
          "name": "F1",
          "ticks": 88960,
          "time": 111.2,
          "velocity": 0.7874015748031497
        },
        {
          "duration": 0.0899999999999892,
          "durationTicks": 72,
          "midi": 29,
          "name": "F1",
          "ticks": 89200,
          "time": 111.5,
          "velocity": 0.7874015748031497
        },
        {
          "duration": 0.0899999999999892,
          "durationTicks": 72,
          "midi": 41,
          "name": "F2",
          "ticks": 89920,
          "time": 112.4,
          "velocity": 0.7874015748031497
        },
        {
          "duration": 0.09000000000000341,
          "durationTicks": 72,
          "midi": 29,
          "name": "F1",
          "ticks": 90000,
          "time": 112.5,
          "velocity": 0.7874015748031497
        },
        {
          "duration": 0.0899999999999892,
          "durationTicks": 72,
          "midi": 24,
          "name": "C1",
          "ticks": 90160,
          "time": 112.7,
          "velocity": 0.7874015748031497
        },
        {
          "duration": 0.18000000000000682,
          "durationTicks": 144,
          "midi": 28,
          "name": "E1",
          "ticks": 90240,
          "time": 112.8,
          "velocity": 0.7874015748031497
        },
        {
          "duration": 0.0899999999999892,
          "durationTicks": 72,
          "midi": 28,
          "name": "E1",
          "ticks": 90400,
          "time": 113,
          "velocity": 0.7874015748031497
        },
        {
          "duration": 0.18000000000000682,
          "durationTicks": 144,
          "midi": 28,
          "name": "E1",
          "ticks": 90480,
          "time": 113.1,
          "velocity": 0.7874015748031497
        },
        {
          "duration": 0.09000000000000341,
          "durationTicks": 72,
          "midi": 40,
          "name": "E2",
          "ticks": 90720,
          "time": 113.39999999999999,
          "velocity": 0.7874015748031497
        },
        {
          "duration": 0.1799999999999784,
          "durationTicks": 144,
          "midi": 28,
          "name": "E1",
          "ticks": 90880,
          "time": 113.60000000000001,
          "velocity": 0.7874015748031497
        },
        {
          "duration": 0.0899999999999892,
          "durationTicks": 72,
          "midi": 28,
          "name": "E1",
          "ticks": 91120,
          "time": 113.9,
          "velocity": 0.7874015748031497
        },
        {
          "duration": 0.0899999999999892,
          "durationTicks": 72,
          "midi": 40,
          "name": "E2",
          "ticks": 91840,
          "time": 114.8,
          "velocity": 0.7874015748031497
        },
        {
          "duration": 0.09000000000000341,
          "durationTicks": 72,
          "midi": 28,
          "name": "E1",
          "ticks": 91920,
          "time": 114.89999999999999,
          "velocity": 0.7874015748031497
        },
        {
          "duration": 0.08999999999997499,
          "durationTicks": 72,
          "midi": 26,
          "name": "D1",
          "ticks": 92080,
          "time": 115.10000000000001,
          "velocity": 0.7874015748031497
        }
      ]
    },
    {
      "channel": 0,
      "controlChanges": {
        "0": [
          {
            "number": 0,
            "ticks": 708,
            "time": 0.885,
            "value": 0
          }
        ],
        "32": [
          {
            "number": 32,
            "ticks": 712,
            "time": 0.89,
            "value": 0.023622047244094488
          }
        ]
      },
      "pitchBends": [],
      "instrument": {
        "family": "piano",
        "number": 0,
        "name": "acoustic grand piano"
      },
      "name": "",
      "notes": [],
      "endOfTrackTicks": 92090
    },
    {
      "channel": 9,
      "controlChanges": {
        "6": [
          {
            "number": 6,
            "ticks": 748,
            "time": 0.9349999999999999,
            "value": 0.5354330708661418
          }
        ],
        "7": [
          {
            "number": 7,
            "ticks": 720,
            "time": 0.8999999999999999,
            "value": 0.7874015748031497
          }
        ],
        "10": [
          {
            "number": 10,
            "ticks": 724,
            "time": 0.9049999999999999,
            "value": 0.5039370078740157
          }
        ],
        "91": [
          {
            "number": 91,
            "ticks": 728,
            "time": 0.9099999999999999,
            "value": 0.7086614173228346
          }
        ],
        "93": [
          {
            "number": 93,
            "ticks": 732,
            "time": 0.9149999999999999,
            "value": 0.9448818897637795
          }
        ],
        "94": [
          {
            "number": 94,
            "ticks": 736,
            "time": 0.92,
            "value": 0.31496062992125984
          }
        ],
        "98": [
          {
            "number": 98,
            "ticks": 744,
            "time": 0.9299999999999999,
            "value": 0.7874015748031497
          }
        ],
        "99": [
          {
            "number": 99,
            "ticks": 740,
            "time": 0.925,
            "value": 0.007874015748031496
          }
        ]
      },
      "pitchBends": [],
      "instrument": {
        "family": "drums",
        "number": 24,
        "name": "electronic kit"
      },
      "name": "",
      "notes": [
        {
          "duration": 0.012500000000000178,
          "durationTicks": 10,
          "midi": 9,
          "name": "A-1",
          "ticks": 2880,
          "time": 3.5999999999999996,
          "velocity": 0.8818897637795275
        },
        {
          "duration": 0.012500000000000178,
          "durationTicks": 10,
          "midi": 120,
          "name": "C9",
          "ticks": 3040,
          "time": 3.8,
          "velocity": 0.8818897637795275
        },
        {
          "duration": 0.012499999999999734,
          "durationTicks": 10,
          "midi": 120,
          "name": "C9",
          "ticks": 3120,
          "time": 3.9,
          "velocity": 0.8818897637795275
        },
        {
          "duration": 0.01249999999999929,
          "durationTicks": 10,
          "midi": 120,
          "name": "C9",
          "ticks": 3360,
          "time": 4.2,
          "velocity": 0.8818897637795275
        },
        {
          "duration": 0.012500000000000178,
          "durationTicks": 10,
          "midi": 120,
          "name": "C9",
          "ticks": 3520,
          "time": 4.3999999999999995,
          "velocity": 0.8818897637795275
        },
        {
          "duration": 0.012500000000001066,
          "durationTicks": 10,
          "midi": 120,
          "name": "C9",
          "ticks": 3760,
          "time": 4.699999999999999,
          "velocity": 0.8818897637795275
        },
        {
          "duration": 0.012500000000000178,
          "durationTicks": 10,
          "midi": 42,
          "name": "F#2",
          "ticks": 3840,
          "time": 4.8,
          "velocity": 0.5511811023622047
        },
        {
          "duration": 0.012500000000000178,
          "durationTicks": 10,
          "midi": 49,
          "name": "C#3",
          "ticks": 3840,
          "time": 4.8,
          "velocity": 0.7874015748031497
        },
        {
          "duration": 0.012500000000000178,
          "durationTicks": 10,
          "midi": 9,
          "name": "A-1",
          "ticks": 3840,
          "time": 4.8,
          "velocity": 0.7874015748031497
        },
        {
          "duration": 0.01249999999999929,
          "durationTicks": 10,
          "midi": 42,
          "name": "F#2",
          "ticks": 4000,
          "time": 5,
          "velocity": 0.30708661417322836
        },
        {
          "duration": 0.012500000000000178,
          "durationTicks": 10,
          "midi": 42,
          "name": "F#2",
          "ticks": 4080,
          "time": 5.1,
          "velocity": 0.3228346456692913
        },
        {
          "duration": 0.01249999999999929,
          "durationTicks": 10,
          "midi": 9,
          "name": "A-1",
          "ticks": 4240,
          "time": 5.3,
          "velocity": 0.7874015748031497
        },
        {
          "duration": 0.012500000000001066,
          "durationTicks": 10,
          "midi": 120,
          "name": "C9",
          "ticks": 4320,
          "time": 5.3999999999999995,
          "velocity": 0.7874015748031497
        },
        {
          "duration": 0.012500000000001066,
          "durationTicks": 10,
          "midi": 42,
          "name": "F#2",
          "ticks": 4400,
          "time": 5.499999999999999,
          "velocity": 0.6062992125984252
        },
        {
          "duration": 0.01249999999999929,
          "durationTicks": 10,
          "midi": 9,
          "name": "A-1",
          "ticks": 4480,
          "time": 5.6000000000000005,
          "velocity": 0.7874015748031497
        },
        {
          "duration": 0.012500000000000178,
          "durationTicks": 10,
          "midi": 42,
          "name": "F#2",
          "ticks": 4560,
          "time": 5.7,
          "velocity": 0.6062992125984252
        },
        {
          "duration": 0.012500000000000178,
          "durationTicks": 10,
          "midi": 42,
          "name": "F#2",
          "ticks": 4640,
          "time": 5.8,
          "velocity": 0.6062992125984252
        },
        {
          "duration": 0.01249999999999929,
          "durationTicks": 10,
          "midi": 42,
          "name": "F#2",
          "ticks": 4720,
          "time": 5.9,
          "velocity": 0.6062992125984252
        },
        {
          "duration": 0.01249999999999929,
          "durationTicks": 10,
          "midi": 9,
          "name": "A-1",
          "ticks": 4720,
          "time": 5.9,
          "velocity": 0.7874015748031497
        },
        {
          "duration": 0.012500000000000178,
          "durationTicks": 10,
          "midi": 42,
          "name": "F#2",
          "ticks": 4800,
          "time": 6,
          "velocity": 0.6535433070866141
        },
        {
          "duration": 0.012500000000000178,
          "durationTicks": 10,
          "midi": 42,
          "name": "F#2",
          "ticks": 4880,
          "time": 6.1,
          "velocity": 0.41732283464566927
        },
        {
          "duration": 0.01249999999999929,
          "durationTicks": 10,
          "midi": 42,
          "name": "F#2",
          "ticks": 4960,
          "time": 6.2,
          "velocity": 0.2992125984251969
        },
        {
          "duration": 0.01249999999999929,
          "durationTicks": 10,
          "midi": 9,
          "name": "A-1",
          "ticks": 4960,
          "time": 6.2,
          "velocity": 0.7874015748031497
        },
        {
          "duration": 0.012500000000000178,
          "durationTicks": 10,
          "midi": 46,
          "name": "A#2",
          "ticks": 5040,
          "time": 6.3,
          "velocity": 0.5748031496062992
        },
        {
          "duration": 0.012500000000000178,
          "durationTicks": 10,
          "midi": 9,
          "name": "A-1",
          "ticks": 5040,
          "time": 6.3,
          "velocity": 0.7874015748031497
        },
        {
          "duration": 0.012500000000000178,
          "durationTicks": 10,
          "midi": 120,
          "name": "C9",
          "ticks": 5280,
          "time": 6.6,
          "velocity": 0.7874015748031497
        },
        {
          "duration": 0.012500000000001066,
          "durationTicks": 10,
          "midi": 42,
          "name": "F#2",
          "ticks": 5520,
          "time": 6.8999999999999995,
          "velocity": 0.5748031496062992
        },
        {
          "duration": 0.012500000000001066,
          "durationTicks": 10,
          "midi": 42,
          "name": "F#2",
          "ticks": 5600,
          "time": 6.999999999999999,
          "velocity": 0.4645669291338583
        },
        {
          "duration": 0.01249999999999929,
          "durationTicks": 10,
          "midi": 42,
          "name": "F#2",
          "ticks": 5680,
          "time": 7.1000000000000005,
          "velocity": 0.30708661417322836
        },
        {
          "duration": 0.01249999999999929,
          "durationTicks": 10,
          "midi": 9,
          "name": "A-1",
          "ticks": 5680,
          "time": 7.1000000000000005,
          "velocity": 1
        },
        {
          "duration": 0.01249999999999929,
          "durationTicks": 10,
          "midi": 9,
          "name": "A-1",
          "ticks": 6640,
          "time": 8.3,
          "velocity": 0.7874015748031497
        },
        {
          "duration": 0.01249999999999929,
          "durationTicks": 10,
          "midi": 9,
          "name": "A-1",
          "ticks": 6720,
          "time": 8.4,
          "velocity": 0.7874015748031497
        },
        {
          "duration": 0.012500000000001066,
          "durationTicks": 10,
          "midi": 9,
          "name": "A-1",
          "ticks": 6960,
          "time": 8.7,
          "velocity": 0.8818897637795275
        },
        {
          "duration": 0.01249999999999929,
          "durationTicks": 10,
          "midi": 120,
          "name": "C9",
          "ticks": 7120,
          "time": 8.9,
          "velocity": 0.7874015748031497
        },
        {
          "duration": 0.01249999999999929,
          "durationTicks": 10,
          "midi": 9,
          "name": "A-1",
          "ticks": 7120,
          "time": 8.9,
          "velocity": 0.8818897637795275
        },
        {
          "duration": 0.01249999999999929,
          "durationTicks": 10,
          "midi": 9,
          "name": "A-1",
          "ticks": 7360,
          "time": 9.2,
          "velocity": 0.8818897637795275
        },
        {
          "duration": 0.012500000000001066,
          "durationTicks": 10,
          "midi": 120,
          "name": "C9",
          "ticks": 7440,
          "time": 9.299999999999999,
          "velocity": 0.8818897637795275
        },
        {
          "duration": 0.01249999999999929,
          "durationTicks": 10,
          "midi": 42,
          "name": "F#2",
          "ticks": 7680,
          "time": 9.6,
          "velocity": 0.5511811023622047
        },
        {
          "duration": 0.01249999999999929,
          "durationTicks": 10,
          "midi": 9,
          "name": "A-1",
          "ticks": 7680,
          "time": 9.6,
          "velocity": 0.7874015748031497
        },
        {
          "duration": 0.012500000000001066,
          "durationTicks": 10,
          "midi": 42,
          "name": "F#2",
          "ticks": 7840,
          "time": 9.799999999999999,
          "velocity": 0.30708661417322836
        },
        {
          "duration": 0.01249999999999929,
          "durationTicks": 10,
          "midi": 42,
          "name": "F#2",
          "ticks": 7920,
          "time": 9.9,
          "velocity": 0.3228346456692913
        },
        {
          "duration": 0.012500000000001066,
          "durationTicks": 10,
          "midi": 9,
          "name": "A-1",
          "ticks": 8080,
          "time": 10.1,
          "velocity": 0.7874015748031497
        },
        {
          "duration": 0.01249999999999929,
          "durationTicks": 10,
          "midi": 120,
          "name": "C9",
          "ticks": 8160,
          "time": 10.2,
          "velocity": 0.7874015748031497
        },
        {
          "duration": 0.01249999999999929,
          "durationTicks": 10,
          "midi": 42,
          "name": "F#2",
          "ticks": 8240,
          "time": 10.3,
          "velocity": 0.6062992125984252
        },
        {
          "duration": 0.012500000000001066,
          "durationTicks": 10,
          "midi": 9,
          "name": "A-1",
          "ticks": 8320,
          "time": 10.399999999999999,
          "velocity": 0.7874015748031497
        },
        {
          "duration": 0.01249999999999929,
          "durationTicks": 10,
          "midi": 42,
          "name": "F#2",
          "ticks": 8400,
          "time": 10.5,
          "velocity": 0.6062992125984252
        },
        {
          "duration": 0.01249999999999929,
          "durationTicks": 10,
          "midi": 42,
          "name": "F#2",
          "ticks": 8480,
          "time": 10.6,
          "velocity": 0.6062992125984252
        },
        {
          "duration": 0.012500000000001066,
          "durationTicks": 10,
          "midi": 42,
          "name": "F#2",
          "ticks": 8560,
          "time": 10.7,
          "velocity": 0.6062992125984252
        },
        {
          "duration": 0.012500000000001066,
          "durationTicks": 10,
          "midi": 9,
          "name": "A-1",
          "ticks": 8560,
          "time": 10.7,
          "velocity": 0.7874015748031497
        },
        {
          "duration": 0.01249999999999929,
          "durationTicks": 10,
          "midi": 42,
          "name": "F#2",
          "ticks": 8640,
          "time": 10.799999999999999,
          "velocity": 0.6535433070866141
        },
        {
          "duration": 0.01249999999999929,
          "durationTicks": 10,
          "midi": 42,
          "name": "F#2",
          "ticks": 8720,
          "time": 10.9,
          "velocity": 0.41732283464566927
        },
        {
          "duration": 0.012500000000002842,
          "durationTicks": 10,
          "midi": 42,
          "name": "F#2",
          "ticks": 8800,
          "time": 10.999999999999998,
          "velocity": 0.2992125984251969
        },
        {
          "duration": 0.012500000000002842,
          "durationTicks": 10,
          "midi": 9,
          "name": "A-1",
          "ticks": 8800,
          "time": 10.999999999999998,
          "velocity": 0.7874015748031497
        },
        {
          "duration": 0.01249999999999929,
          "durationTicks": 10,
          "midi": 46,
          "name": "A#2",
          "ticks": 8880,
          "time": 11.1,
          "velocity": 0.5748031496062992
        },
        {
          "duration": 0.01249999999999929,
          "durationTicks": 10,
          "midi": 9,
          "name": "A-1",
          "ticks": 8880,
          "time": 11.1,
          "velocity": 0.7874015748031497
        },
        {
          "duration": 0.01249999999999929,
          "durationTicks": 10,
          "midi": 120,
          "name": "C9",
          "ticks": 9120,
          "time": 11.4,
          "velocity": 0.7874015748031497
        },
        {
          "duration": 0.01249999999999929,
          "durationTicks": 10,
          "midi": 42,
          "name": "F#2",
          "ticks": 9360,
          "time": 11.7,
          "velocity": 0.5748031496062992
        },
        {
          "duration": 0.01249999999999929,
          "durationTicks": 10,
          "midi": 42,
          "name": "F#2",
          "ticks": 9440,
          "time": 11.8,
          "velocity": 0.4645669291338583
        },
        {
          "duration": 0.012500000000001066,
          "durationTicks": 10,
          "midi": 42,
          "name": "F#2",
          "ticks": 9520,
          "time": 11.899999999999999,
          "velocity": 0.30708661417322836
        },
        {
          "duration": 0.012500000000001066,
          "durationTicks": 10,
          "midi": 9,
          "name": "A-1",
          "ticks": 9520,
          "time": 11.899999999999999,
          "velocity": 1
        },
        {
          "duration": 0.01249999999999929,
          "durationTicks": 10,
          "midi": 9,
          "name": "A-1",
          "ticks": 10560,
          "time": 13.2,
          "velocity": 0.7874015748031497
        },
        {
          "duration": 0.012500000000001066,
          "durationTicks": 10,
          "midi": 120,
          "name": "C9",
          "ticks": 10720,
          "time": 13.399999999999999,
          "velocity": 0.7874015748031497
        },
        {
          "duration": 0.01249999999999929,
          "durationTicks": 10,
          "midi": 120,
          "name": "C9",
          "ticks": 10800,
          "time": 13.5,
          "velocity": 0.7874015748031497
        },
        {
          "duration": 0.01249999999999929,
          "durationTicks": 10,
          "midi": 9,
          "name": "A-1",
          "ticks": 10880,
          "time": 13.6,
          "velocity": 0.7874015748031497
        },
        {
          "duration": 0.012500000000001066,
          "durationTicks": 10,
          "midi": 120,
          "name": "C9",
          "ticks": 10960,
          "time": 13.7,
          "velocity": 0.7874015748031497
        },
        {
          "duration": 0.01249999999999929,
          "durationTicks": 10,
          "midi": 120,
          "name": "C9",
          "ticks": 11040,
          "time": 13.799999999999999,
          "velocity": 0.7874015748031497
        },
        {
          "duration": 0.01249999999999929,
          "durationTicks": 10,
          "midi": 9,
          "name": "A-1",
          "ticks": 11120,
          "time": 13.9,
          "velocity": 0.7874015748031497
        },
        {
          "duration": 0.012500000000002842,
          "durationTicks": 10,
          "midi": 120,
          "name": "C9",
          "ticks": 11200,
          "time": 13.999999999999998,
          "velocity": 0.7874015748031497
        },
        {
          "duration": 0.01249999999999929,
          "durationTicks": 10,
          "midi": 42,
          "name": "F#2",
          "ticks": 11520,
          "time": 14.399999999999999,
          "velocity": 0.5511811023622047
        },
        {
          "duration": 0.01249999999999929,
          "durationTicks": 10,
          "midi": 49,
          "name": "C#3",
          "ticks": 11520,
          "time": 14.399999999999999,
          "velocity": 0.7874015748031497
        },
        {
          "duration": 0.01249999999999929,
          "durationTicks": 10,
          "midi": 9,
          "name": "A-1",
          "ticks": 11520,
          "time": 14.399999999999999,
          "velocity": 0.7874015748031497
        },
        {
          "duration": 0.012500000000002842,
          "durationTicks": 10,
          "midi": 42,
          "name": "F#2",
          "ticks": 11680,
          "time": 14.599999999999998,
          "velocity": 0.30708661417322836
        },
        {
          "duration": 0.01249999999999929,
          "durationTicks": 10,
          "midi": 42,
          "name": "F#2",
          "ticks": 11760,
          "time": 14.7,
          "velocity": 0.3228346456692913
        },
        {
          "duration": 0.012500000000001066,
          "durationTicks": 10,
          "midi": 9,
          "name": "A-1",
          "ticks": 11920,
          "time": 14.899999999999999,
          "velocity": 0.7874015748031497
        },
        {
          "duration": 0.01249999999999929,
          "durationTicks": 10,
          "midi": 120,
          "name": "C9",
          "ticks": 12000,
          "time": 15,
          "velocity": 0.7874015748031497
        },
        {
          "duration": 0.01249999999999929,
          "durationTicks": 10,
          "midi": 42,
          "name": "F#2",
          "ticks": 12080,
          "time": 15.1,
          "velocity": 0.6062992125984252
        },
        {
          "duration": 0.012500000000001066,
          "durationTicks": 10,
          "midi": 9,
          "name": "A-1",
          "ticks": 12160,
          "time": 15.2,
          "velocity": 0.7874015748031497
        },
        {
          "duration": 0.01249999999999929,
          "durationTicks": 10,
          "midi": 42,
          "name": "F#2",
          "ticks": 12240,
          "time": 15.299999999999999,
          "velocity": 0.6062992125984252
        },
        {
          "duration": 0.01249999999999929,
          "durationTicks": 10,
          "midi": 42,
          "name": "F#2",
          "ticks": 12320,
          "time": 15.4,
          "velocity": 0.6062992125984252
        },
        {
          "duration": 0.012500000000001066,
          "durationTicks": 10,
          "midi": 42,
          "name": "F#2",
          "ticks": 12400,
          "time": 15.499999999999998,
          "velocity": 0.6062992125984252
        },
        {
          "duration": 0.012500000000001066,
          "durationTicks": 10,
          "midi": 9,
          "name": "A-1",
          "ticks": 12400,
          "time": 15.499999999999998,
          "velocity": 0.7874015748031497
        },
        {
          "duration": 0.01249999999999929,
          "durationTicks": 10,
          "midi": 42,
          "name": "F#2",
          "ticks": 12480,
          "time": 15.6,
          "velocity": 0.6535433070866141
        },
        {
          "duration": 0.01249999999999929,
          "durationTicks": 10,
          "midi": 42,
          "name": "F#2",
          "ticks": 12560,
          "time": 15.7,
          "velocity": 0.41732283464566927
        },
        {
          "duration": 0.012500000000001066,
          "durationTicks": 10,
          "midi": 42,
          "name": "F#2",
          "ticks": 12640,
          "time": 15.799999999999999,
          "velocity": 0.2992125984251969
        },
        {
          "duration": 0.012500000000001066,
          "durationTicks": 10,
          "midi": 9,
          "name": "A-1",
          "ticks": 12640,
          "time": 15.799999999999999,
          "velocity": 0.7874015748031497
        },
        {
          "duration": 0.01249999999999929,
          "durationTicks": 10,
          "midi": 46,
          "name": "A#2",
          "ticks": 12720,
          "time": 15.899999999999999,
          "velocity": 0.5748031496062992
        },
        {
          "duration": 0.01249999999999929,
          "durationTicks": 10,
          "midi": 9,
          "name": "A-1",
          "ticks": 12720,
          "time": 15.899999999999999,
          "velocity": 0.7874015748031497
        },
        {
          "duration": 0.01249999999999929,
          "durationTicks": 10,
          "midi": 120,
          "name": "C9",
          "ticks": 12960,
          "time": 16.2,
          "velocity": 0.7874015748031497
        },
        {
          "duration": 0.01249999999999929,
          "durationTicks": 10,
          "midi": 42,
          "name": "F#2",
          "ticks": 13200,
          "time": 16.5,
          "velocity": 0.5748031496062992
        },
        {
          "duration": 0.01249999999999929,
          "durationTicks": 10,
          "midi": 42,
          "name": "F#2",
          "ticks": 13280,
          "time": 16.6,
          "velocity": 0.4645669291338583
        },
        {
          "duration": 0.01249999999999929,
          "durationTicks": 10,
          "midi": 42,
          "name": "F#2",
          "ticks": 13360,
          "time": 16.7,
          "velocity": 0.30708661417322836
        },
        {
          "duration": 0.01249999999999929,
          "durationTicks": 10,
          "midi": 9,
          "name": "A-1",
          "ticks": 13360,
          "time": 16.7,
          "velocity": 1
        },
        {
          "duration": 0.012500000000002842,
          "durationTicks": 10,
          "midi": 9,
          "name": "A-1",
          "ticks": 14320,
          "time": 17.9,
          "velocity": 0.7874015748031497
        },
        {
          "duration": 0.01249999999999929,
          "durationTicks": 10,
          "midi": 9,
          "name": "A-1",
          "ticks": 14400,
          "time": 18,
          "velocity": 0.7874015748031497
        },
        {
          "duration": 0.01249999999999929,
          "durationTicks": 10,
          "midi": 9,
          "name": "A-1",
          "ticks": 14640,
          "time": 18.3,
          "velocity": 0.8818897637795275
        },
        {
          "duration": 0.01249999999999929,
          "durationTicks": 10,
          "midi": 120,
          "name": "C9",
          "ticks": 14800,
          "time": 18.5,
          "velocity": 0.7874015748031497
        },
        {
          "duration": 0.01249999999999929,
          "durationTicks": 10,
          "midi": 9,
          "name": "A-1",
          "ticks": 14800,
          "time": 18.5,
          "velocity": 0.8818897637795275
        },
        {
          "duration": 0.012500000000002842,
          "durationTicks": 10,
          "midi": 9,
          "name": "A-1",
          "ticks": 15040,
          "time": 18.799999999999997,
          "velocity": 0.8818897637795275
        },
        {
          "duration": 0.01249999999999929,
          "durationTicks": 10,
          "midi": 120,
          "name": "C9",
          "ticks": 15120,
          "time": 18.9,
          "velocity": 0.8818897637795275
        },
        {
          "duration": 0.012500000000002842,
          "durationTicks": 10,
          "midi": 42,
          "name": "F#2",
          "ticks": 15360,
          "time": 19.2,
          "velocity": 0.5511811023622047
        },
        {
          "duration": 0.012500000000002842,
          "durationTicks": 10,
          "midi": 9,
          "name": "A-1",
          "ticks": 15360,
          "time": 19.2,
          "velocity": 0.7874015748031497
        },
        {
          "duration": 0.012499999999995737,
          "durationTicks": 10,
          "midi": 42,
          "name": "F#2",
          "ticks": 15520,
          "time": 19.400000000000002,
          "velocity": 0.30708661417322836
        },
        {
          "duration": 0.01249999999999929,
          "durationTicks": 10,
          "midi": 42,
          "name": "F#2",
          "ticks": 15600,
          "time": 19.5,
          "velocity": 0.3228346456692913
        },
        {
          "duration": 0.01249999999999929,
          "durationTicks": 10,
          "midi": 9,
          "name": "A-1",
          "ticks": 15760,
          "time": 19.7,
          "velocity": 0.7874015748031497
        },
        {
          "duration": 0.01249999999999929,
          "durationTicks": 10,
          "midi": 120,
          "name": "C9",
          "ticks": 15840,
          "time": 19.8,
          "velocity": 0.7874015748031497
        },
        {
          "duration": 0.01249999999999929,
          "durationTicks": 10,
          "midi": 42,
          "name": "F#2",
          "ticks": 15920,
          "time": 19.9,
          "velocity": 0.6062992125984252
        },
        {
          "duration": 0.01249999999999929,
          "durationTicks": 10,
          "midi": 9,
          "name": "A-1",
          "ticks": 16000,
          "time": 20,
          "velocity": 0.7874015748031497
        },
        {
          "duration": 0.012500000000002842,
          "durationTicks": 10,
          "midi": 42,
          "name": "F#2",
          "ticks": 16080,
          "time": 20.099999999999998,
          "velocity": 0.6062992125984252
        },
        {
          "duration": 0.01249999999999929,
          "durationTicks": 10,
          "midi": 42,
          "name": "F#2",
          "ticks": 16160,
          "time": 20.2,
          "velocity": 0.6062992125984252
        },
        {
          "duration": 0.012499999999995737,
          "durationTicks": 10,
          "midi": 42,
          "name": "F#2",
          "ticks": 16240,
          "time": 20.3,
          "velocity": 0.6062992125984252
        },
        {
          "duration": 0.012499999999995737,
          "durationTicks": 10,
          "midi": 9,
          "name": "A-1",
          "ticks": 16240,
          "time": 20.3,
          "velocity": 0.7874015748031497
        },
        {
          "duration": 0.012500000000002842,
          "durationTicks": 10,
          "midi": 42,
          "name": "F#2",
          "ticks": 16320,
          "time": 20.4,
          "velocity": 0.6535433070866141
        },
        {
          "duration": 0.012500000000002842,
          "durationTicks": 10,
          "midi": 42,
          "name": "F#2",
          "ticks": 16400,
          "time": 20.499999999999996,
          "velocity": 0.41732283464566927
        },
        {
          "duration": 0.012499999999995737,
          "durationTicks": 10,
          "midi": 42,
          "name": "F#2",
          "ticks": 16480,
          "time": 20.6,
          "velocity": 0.2992125984251969
        },
        {
          "duration": 0.012499999999995737,
          "durationTicks": 10,
          "midi": 9,
          "name": "A-1",
          "ticks": 16480,
          "time": 20.6,
          "velocity": 0.7874015748031497
        },
        {
          "duration": 0.012500000000002842,
          "durationTicks": 10,
          "midi": 46,
          "name": "A#2",
          "ticks": 16560,
          "time": 20.7,
          "velocity": 0.5748031496062992
        },
        {
          "duration": 0.012500000000002842,
          "durationTicks": 10,
          "midi": 9,
          "name": "A-1",
          "ticks": 16560,
          "time": 20.7,
          "velocity": 0.7874015748031497
        },
        {
          "duration": 0.01249999999999929,
          "durationTicks": 10,
          "midi": 120,
          "name": "C9",
          "ticks": 16800,
          "time": 21,
          "velocity": 0.7874015748031497
        },
        {
          "duration": 0.01249999999999929,
          "durationTicks": 10,
          "midi": 42,
          "name": "F#2",
          "ticks": 17040,
          "time": 21.3,
          "velocity": 0.5748031496062992
        },
        {
          "duration": 0.01249999999999929,
          "durationTicks": 10,
          "midi": 42,
          "name": "F#2",
          "ticks": 17120,
          "time": 21.4,
          "velocity": 0.4645669291338583
        },
        {
          "duration": 0.01249999999999929,
          "durationTicks": 10,
          "midi": 42,
          "name": "F#2",
          "ticks": 17200,
          "time": 21.5,
          "velocity": 0.30708661417322836
        },
        {
          "duration": 0.01249999999999929,
          "durationTicks": 10,
          "midi": 9,
          "name": "A-1",
          "ticks": 17200,
          "time": 21.5,
          "velocity": 1
        },
        {
          "duration": 0.01249999999999929,
          "durationTicks": 10,
          "midi": 9,
          "name": "A-1",
          "ticks": 18240,
          "time": 22.8,
          "velocity": 0.7874015748031497
        },
        {
          "duration": 0.01249999999999929,
          "durationTicks": 10,
          "midi": 120,
          "name": "C9",
          "ticks": 18400,
          "time": 23,
          "velocity": 0.7874015748031497
        },
        {
          "duration": 0.012500000000002842,
          "durationTicks": 10,
          "midi": 120,
          "name": "C9",
          "ticks": 18480,
          "time": 23.099999999999998,
          "velocity": 0.7874015748031497
        },
        {
          "duration": 0.01249999999999929,
          "durationTicks": 10,
          "midi": 9,
          "name": "A-1",
          "ticks": 18560,
          "time": 23.2,
          "velocity": 0.7874015748031497
        },
        {
          "duration": 0.012499999999995737,
          "durationTicks": 10,
          "midi": 120,
          "name": "C9",
          "ticks": 18640,
          "time": 23.3,
          "velocity": 0.7874015748031497
        },
        {
          "duration": 0.012500000000002842,
          "durationTicks": 10,
          "midi": 120,
          "name": "C9",
          "ticks": 18720,
          "time": 23.4,
          "velocity": 0.7874015748031497
        },
        {
          "duration": 0.012500000000002842,
          "durationTicks": 10,
          "midi": 120,
          "name": "C9",
          "ticks": 18800,
          "time": 23.499999999999996,
          "velocity": 0.7874015748031497
        },
        {
          "duration": 0.012500000000002842,
          "durationTicks": 10,
          "midi": 9,
          "name": "A-1",
          "ticks": 18800,
          "time": 23.499999999999996,
          "velocity": 0.7874015748031497
        },
        {
          "duration": 0.012499999999995737,
          "durationTicks": 10,
          "midi": 120,
          "name": "C9",
          "ticks": 18880,
          "time": 23.6,
          "velocity": 0.7874015748031497
        },
        {
          "duration": 0.012500000000002842,
          "durationTicks": 10,
          "midi": 120,
          "name": "C9",
          "ticks": 18960,
          "time": 23.7,
          "velocity": 0.7874015748031497
        },
        {
          "duration": 0.012500000000002842,
          "durationTicks": 10,
          "midi": 9,
          "name": "A-1",
          "ticks": 19040,
          "time": 23.799999999999997,
          "velocity": 0.7874015748031497
        },
        {
          "duration": 0.012500000000002842,
          "durationTicks": 10,
          "midi": 120,
          "name": "C9",
          "ticks": 19040,
          "time": 23.799999999999997,
          "velocity": 0.7874015748031497
        },
        {
          "duration": 0.012499999999995737,
          "durationTicks": 10,
          "midi": 120,
          "name": "C9",
          "ticks": 19120,
          "time": 23.900000000000002,
          "velocity": 0.7874015748031497
        },
        {
          "duration": 0.01249999999999929,
          "durationTicks": 10,
          "midi": 42,
          "name": "F#2",
          "ticks": 19200,
          "time": 24,
          "velocity": 0.7874015748031497
        },
        {
          "duration": 0.01249999999999929,
          "durationTicks": 10,
          "midi": 49,
          "name": "C#3",
          "ticks": 19200,
          "time": 24,
          "velocity": 0.7874015748031497
        },
        {
          "duration": 0.01249999999999929,
          "durationTicks": 10,
          "midi": 9,
          "name": "A-1",
          "ticks": 19200,
          "time": 24,
          "velocity": 0.7874015748031497
        },
        {
          "duration": 0.01249999999999929,
          "durationTicks": 10,
          "midi": 42,
          "name": "F#2",
          "ticks": 19360,
          "time": 24.2,
          "velocity": 0.5590551181102362
        },
        {
          "duration": 0.01249999999999929,
          "durationTicks": 10,
          "midi": 46,
          "name": "A#2",
          "ticks": 19440,
          "time": 24.3,
          "velocity": 0.5590551181102362
        },
        {
          "duration": 0.01249999999999929,
          "durationTicks": 10,
          "midi": 9,
          "name": "A-1",
          "ticks": 19600,
          "time": 24.5,
          "velocity": 0.7874015748031497
        },
        {
          "duration": 0.012500000000002842,
          "durationTicks": 10,
          "midi": 42,
          "name": "F#2",
          "ticks": 19680,
          "time": 24.599999999999998,
          "velocity": 0.7874015748031497
        },
        {
          "duration": 0.012500000000002842,
          "durationTicks": 10,
          "midi": 120,
          "name": "C9",
          "ticks": 19680,
          "time": 24.599999999999998,
          "velocity": 0.8661417322834646
        },
        {
          "duration": 0.012499999999995737,
          "durationTicks": 10,
          "midi": 42,
          "name": "F#2",
          "ticks": 19840,
          "time": 24.8,
          "velocity": 0.5590551181102362
        },
        {
          "duration": 0.012499999999995737,
          "durationTicks": 10,
          "midi": 9,
          "name": "A-1",
          "ticks": 19840,
          "time": 24.8,
          "velocity": 0.7874015748031497
        },
        {
          "duration": 0.012500000000002842,
          "durationTicks": 10,
          "midi": 46,
          "name": "A#2",
          "ticks": 19920,
          "time": 24.9,
          "velocity": 0.5590551181102362
        },
        {
          "duration": 0.012499999999995737,
          "durationTicks": 10,
          "midi": 9,
          "name": "A-1",
          "ticks": 20080,
          "time": 25.1,
          "velocity": 0.7874015748031497
        },
        {
          "duration": 0.012500000000002842,
          "durationTicks": 10,
          "midi": 42,
          "name": "F#2",
          "ticks": 20160,
          "time": 25.2,
          "velocity": 0.7874015748031497
        },
        {
          "duration": 0.012499999999995737,
          "durationTicks": 10,
          "midi": 9,
          "name": "A-1",
          "ticks": 20320,
          "time": 25.400000000000002,
          "velocity": 0.7874015748031497
        },
        {
          "duration": 0.012499999999995737,
          "durationTicks": 10,
          "midi": 42,
          "name": "F#2",
          "ticks": 20320,
          "time": 25.400000000000002,
          "velocity": 0.5590551181102362
        },
        {
          "duration": 0.01249999999999929,
          "durationTicks": 10,
          "midi": 9,
          "name": "A-1",
          "ticks": 20400,
          "time": 25.5,
          "velocity": 0.7874015748031497
        },
        {
          "duration": 0.01249999999999929,
          "durationTicks": 10,
          "midi": 46,
          "name": "A#2",
          "ticks": 20400,
          "time": 25.5,
          "velocity": 0.5590551181102362
        },
        {
          "duration": 0.01249999999999929,
          "durationTicks": 10,
          "midi": 120,
          "name": "C9",
          "ticks": 20640,
          "time": 25.8,
          "velocity": 0.8661417322834646
        },
        {
          "duration": 0.01249999999999929,
          "durationTicks": 10,
          "midi": 42,
          "name": "F#2",
          "ticks": 20640,
          "time": 25.8,
          "velocity": 0.7874015748031497
        },
        {
          "duration": 0.01249999999999929,
          "durationTicks": 10,
          "midi": 9,
          "name": "A-1",
          "ticks": 20800,
          "time": 26,
          "velocity": 0.7874015748031497
        },
        {
          "duration": 0.01249999999999929,
          "durationTicks": 10,
          "midi": 42,
          "name": "F#2",
          "ticks": 20800,
          "time": 26,
          "velocity": 0.5590551181102362
        },
        {
          "duration": 0.012500000000002842,
          "durationTicks": 10,
          "midi": 46,
          "name": "A#2",
          "ticks": 20880,
          "time": 26.099999999999998,
          "velocity": 0.5590551181102362
        },
        {
          "duration": 0.012499999999995737,
          "durationTicks": 10,
          "midi": 9,
          "name": "A-1",
          "ticks": 21040,
          "time": 26.3,
          "velocity": 0.7874015748031497
        },
        {
          "duration": 0.012500000000002842,
          "durationTicks": 10,
          "midi": 42,
          "name": "F#2",
          "ticks": 21120,
          "time": 26.4,
          "velocity": 0.7874015748031497
        },
        {
          "duration": 0.012500000000002842,
          "durationTicks": 10,
          "midi": 9,
          "name": "A-1",
          "ticks": 21120,
          "time": 26.4,
          "velocity": 0.7874015748031497
        },
        {
          "duration": 0.012499999999995737,
          "durationTicks": 10,
          "midi": 42,
          "name": "F#2",
          "ticks": 21280,
          "time": 26.6,
          "velocity": 0.5590551181102362
        },
        {
          "duration": 0.012500000000002842,
          "durationTicks": 10,
          "midi": 46,
          "name": "A#2",
          "ticks": 21360,
          "time": 26.7,
          "velocity": 0.5590551181102362
        },
        {
          "duration": 0.012499999999995737,
          "durationTicks": 10,
          "midi": 9,
          "name": "A-1",
          "ticks": 21520,
          "time": 26.900000000000002,
          "velocity": 0.7874015748031497
        },
        {
          "duration": 0.01249999999999929,
          "durationTicks": 10,
          "midi": 42,
          "name": "F#2",
          "ticks": 21600,
          "time": 27,
          "velocity": 0.7874015748031497
        },
        {
          "duration": 0.01249999999999929,
          "durationTicks": 10,
          "midi": 120,
          "name": "C9",
          "ticks": 21600,
          "time": 27,
          "velocity": 0.8661417322834646
        },
        {
          "duration": 0.01249999999999929,
          "durationTicks": 10,
          "midi": 42,
          "name": "F#2",
          "ticks": 21760,
          "time": 27.2,
          "velocity": 0.5590551181102362
        },
        {
          "duration": 0.01249999999999929,
          "durationTicks": 10,
          "midi": 9,
          "name": "A-1",
          "ticks": 21760,
          "time": 27.2,
          "velocity": 0.7874015748031497
        },
        {
          "duration": 0.01249999999999929,
          "durationTicks": 10,
          "midi": 46,
          "name": "A#2",
          "ticks": 21840,
          "time": 27.3,
          "velocity": 0.5590551181102362
        },
        {
          "duration": 0.01249999999999929,
          "durationTicks": 10,
          "midi": 9,
          "name": "A-1",
          "ticks": 22000,
          "time": 27.5,
          "velocity": 0.7874015748031497
        },
        {
          "duration": 0.012500000000002842,
          "durationTicks": 10,
          "midi": 42,
          "name": "F#2",
          "ticks": 22080,
          "time": 27.599999999999998,
          "velocity": 0.7874015748031497
        },
        {
          "duration": 0.012499999999995737,
          "durationTicks": 10,
          "midi": 9,
          "name": "A-1",
          "ticks": 22240,
          "time": 27.8,
          "velocity": 0.7874015748031497
        },
        {
          "duration": 0.012499999999995737,
          "durationTicks": 10,
          "midi": 42,
          "name": "F#2",
          "ticks": 22240,
          "time": 27.8,
          "velocity": 0.5590551181102362
        },
        {
          "duration": 0.012500000000002842,
          "durationTicks": 10,
          "midi": 42,
          "name": "F#2",
          "ticks": 22320,
          "time": 27.9,
          "velocity": 0.7874015748031497
        },
        {
          "duration": 0.012500000000002842,
          "durationTicks": 10,
          "midi": 9,
          "name": "A-1",
          "ticks": 22320,
          "time": 27.9,
          "velocity": 0.7874015748031497
        },
        {
          "duration": 0.012500000000002842,
          "durationTicks": 10,
          "midi": 42,
          "name": "F#2",
          "ticks": 22400,
          "time": 27.999999999999996,
          "velocity": 0.5039370078740157
        },
        {
          "duration": 0.012499999999995737,
          "durationTicks": 10,
          "midi": 42,
          "name": "F#2",
          "ticks": 22480,
          "time": 28.1,
          "velocity": 0.4015748031496063
        },
        {
          "duration": 0.012500000000002842,
          "durationTicks": 10,
          "midi": 120,
          "name": "C9",
          "ticks": 22560,
          "time": 28.2,
          "velocity": 0.8661417322834646
        },
        {
          "duration": 0.012500000000002842,
          "durationTicks": 10,
          "midi": 42,
          "name": "F#2",
          "ticks": 22560,
          "time": 28.2,
          "velocity": 0.7874015748031497
        },
        {
          "duration": 0.012499999999995737,
          "durationTicks": 10,
          "midi": 9,
          "name": "A-1",
          "ticks": 22720,
          "time": 28.400000000000002,
          "velocity": 0.7874015748031497
        },
        {
          "duration": 0.012499999999995737,
          "durationTicks": 10,
          "midi": 42,
          "name": "F#2",
          "ticks": 22720,
          "time": 28.400000000000002,
          "velocity": 0.5590551181102362
        },
        {
          "duration": 0.01249999999999929,
          "durationTicks": 10,
          "midi": 46,
          "name": "A#2",
          "ticks": 22800,
          "time": 28.5,
          "velocity": 0.5590551181102362
        },
        {
          "duration": 0.01249999999999929,
          "durationTicks": 10,
          "midi": 9,
          "name": "A-1",
          "ticks": 22960,
          "time": 28.7,
          "velocity": 0.7874015748031497
        },
        {
          "duration": 0.012500000000002842,
          "durationTicks": 10,
          "midi": 42,
          "name": "F#2",
          "ticks": 23040,
          "time": 28.799999999999997,
          "velocity": 0.7874015748031497
        },
        {
          "duration": 0.012500000000002842,
          "durationTicks": 10,
          "midi": 9,
          "name": "A-1",
          "ticks": 23040,
          "time": 28.799999999999997,
          "velocity": 0.7874015748031497
        },
        {
          "duration": 0.012499999999995737,
          "durationTicks": 10,
          "midi": 42,
          "name": "F#2",
          "ticks": 23200,
          "time": 29,
          "velocity": 0.5590551181102362
        },
        {
          "duration": 0.012500000000002842,
          "durationTicks": 10,
          "midi": 46,
          "name": "A#2",
          "ticks": 23280,
          "time": 29.099999999999998,
          "velocity": 0.5590551181102362
        },
        {
          "duration": 0.012499999999995737,
          "durationTicks": 10,
          "midi": 9,
          "name": "A-1",
          "ticks": 23440,
          "time": 29.3,
          "velocity": 0.7874015748031497
        },
        {
          "duration": 0.012500000000002842,
          "durationTicks": 10,
          "midi": 42,
          "name": "F#2",
          "ticks": 23520,
          "time": 29.4,
          "velocity": 0.7874015748031497
        },
        {
          "duration": 0.012500000000002842,
          "durationTicks": 10,
          "midi": 120,
          "name": "C9",
          "ticks": 23520,
          "time": 29.4,
          "velocity": 0.8661417322834646
        },
        {
          "duration": 0.012499999999995737,
          "durationTicks": 10,
          "midi": 42,
          "name": "F#2",
          "ticks": 23680,
          "time": 29.6,
          "velocity": 0.5590551181102362
        },
        {
          "duration": 0.012499999999995737,
          "durationTicks": 10,
          "midi": 9,
          "name": "A-1",
          "ticks": 23680,
          "time": 29.6,
          "velocity": 0.7874015748031497
        },
        {
          "duration": 0.01249999999999929,
          "durationTicks": 10,
          "midi": 46,
          "name": "A#2",
          "ticks": 23760,
          "time": 29.7,
          "velocity": 0.5590551181102362
        },
        {
          "duration": 0.01249999999999929,
          "durationTicks": 10,
          "midi": 9,
          "name": "A-1",
          "ticks": 23920,
          "time": 29.9,
          "velocity": 0.7874015748031497
        },
        {
          "duration": 0.01249999999999929,
          "durationTicks": 10,
          "midi": 42,
          "name": "F#2",
          "ticks": 24000,
          "time": 30,
          "velocity": 0.7874015748031497
        },
        {
          "duration": 0.01249999999999929,
          "durationTicks": 10,
          "midi": 9,
          "name": "A-1",
          "ticks": 24160,
          "time": 30.2,
          "velocity": 0.7874015748031497
        },
        {
          "duration": 0.01249999999999929,
          "durationTicks": 10,
          "midi": 42,
          "name": "F#2",
          "ticks": 24160,
          "time": 30.2,
          "velocity": 0.5590551181102362
        },
        {
          "duration": 0.012500000000002842,
          "durationTicks": 10,
          "midi": 9,
          "name": "A-1",
          "ticks": 24240,
          "time": 30.299999999999997,
          "velocity": 0.7874015748031497
        },
        {
          "duration": 0.012500000000002842,
          "durationTicks": 10,
          "midi": 46,
          "name": "A#2",
          "ticks": 24240,
          "time": 30.299999999999997,
          "velocity": 0.5590551181102362
        },
        {
          "duration": 0.012500000000002842,
          "durationTicks": 10,
          "midi": 120,
          "name": "C9",
          "ticks": 24480,
          "time": 30.599999999999998,
          "velocity": 0.8661417322834646
        },
        {
          "duration": 0.012500000000002842,
          "durationTicks": 10,
          "midi": 42,
          "name": "F#2",
          "ticks": 24480,
          "time": 30.599999999999998,
          "velocity": 0.7874015748031497
        },
        {
          "duration": 0.012499999999995737,
          "durationTicks": 10,
          "midi": 9,
          "name": "A-1",
          "ticks": 24640,
          "time": 30.8,
          "velocity": 0.7874015748031497
        },
        {
          "duration": 0.012499999999995737,
          "durationTicks": 10,
          "midi": 42,
          "name": "F#2",
          "ticks": 24640,
          "time": 30.8,
          "velocity": 0.5590551181102362
        },
        {
          "duration": 0.012500000000002842,
          "durationTicks": 10,
          "midi": 46,
          "name": "A#2",
          "ticks": 24720,
          "time": 30.9,
          "velocity": 0.5590551181102362
        },
        {
          "duration": 0.012499999999995737,
          "durationTicks": 10,
          "midi": 9,
          "name": "A-1",
          "ticks": 24880,
          "time": 31.1,
          "velocity": 0.7874015748031497
        },
        {
          "duration": 0.01249999999999929,
          "durationTicks": 10,
          "midi": 42,
          "name": "F#2",
          "ticks": 24960,
          "time": 31.2,
          "velocity": 0.7874015748031497
        },
        {
          "duration": 0.01249999999999929,
          "durationTicks": 10,
          "midi": 9,
          "name": "A-1",
          "ticks": 24960,
          "time": 31.2,
          "velocity": 0.7874015748031497
        },
        {
          "duration": 0.01249999999999929,
          "durationTicks": 10,
          "midi": 42,
          "name": "F#2",
          "ticks": 25120,
          "time": 31.4,
          "velocity": 0.5590551181102362
        },
        {
          "duration": 0.01249999999999929,
          "durationTicks": 10,
          "midi": 46,
          "name": "A#2",
          "ticks": 25200,
          "time": 31.5,
          "velocity": 0.5590551181102362
        },
        {
          "duration": 0.01249999999999929,
          "durationTicks": 10,
          "midi": 9,
          "name": "A-1",
          "ticks": 25360,
          "time": 31.7,
          "velocity": 0.7874015748031497
        },
        {
          "duration": 0.012500000000002842,
          "durationTicks": 10,
          "midi": 42,
          "name": "F#2",
          "ticks": 25440,
          "time": 31.799999999999997,
          "velocity": 0.7874015748031497
        },
        {
          "duration": 0.012500000000002842,
          "durationTicks": 10,
          "midi": 120,
          "name": "C9",
          "ticks": 25440,
          "time": 31.799999999999997,
          "velocity": 0.8661417322834646
        },
        {
          "duration": 0.012499999999995737,
          "durationTicks": 10,
          "midi": 42,
          "name": "F#2",
          "ticks": 25600,
          "time": 32,
          "velocity": 0.5590551181102362
        },
        {
          "duration": 0.012499999999995737,
          "durationTicks": 10,
          "midi": 9,
          "name": "A-1",
          "ticks": 25600,
          "time": 32,
          "velocity": 0.7874015748031497
        },
        {
          "duration": 0.012499999999995737,
          "durationTicks": 10,
          "midi": 46,
          "name": "A#2",
          "ticks": 25680,
          "time": 32.1,
          "velocity": 0.5590551181102362
        },
        {
          "duration": 0.012500000000002842,
          "durationTicks": 10,
          "midi": 9,
          "name": "A-1",
          "ticks": 25840,
          "time": 32.3,
          "velocity": 0.7874015748031497
        },
        {
          "duration": 0.012500000000002842,
          "durationTicks": 10,
          "midi": 42,
          "name": "F#2",
          "ticks": 25920,
          "time": 32.4,
          "velocity": 0.7874015748031497
        },
        {
          "duration": 0.012499999999995737,
          "durationTicks": 10,
          "midi": 9,
          "name": "A-1",
          "ticks": 26080,
          "time": 32.6,
          "velocity": 0.7874015748031497
        },
        {
          "duration": 0.012499999999995737,
          "durationTicks": 10,
          "midi": 42,
          "name": "F#2",
          "ticks": 26080,
          "time": 32.6,
          "velocity": 0.5590551181102362
        },
        {
          "duration": 0.012500000000002842,
          "durationTicks": 10,
          "midi": 42,
          "name": "F#2",
          "ticks": 26160,
          "time": 32.699999999999996,
          "velocity": 0.7874015748031497
        },
        {
          "duration": 0.012500000000002842,
          "durationTicks": 10,
          "midi": 9,
          "name": "A-1",
          "ticks": 26160,
          "time": 32.699999999999996,
          "velocity": 0.7874015748031497
        },
        {
          "duration": 0.012500000000002842,
          "durationTicks": 10,
          "midi": 42,
          "name": "F#2",
          "ticks": 26240,
          "time": 32.8,
          "velocity": 0.5039370078740157
        },
        {
          "duration": 0.012499999999995737,
          "durationTicks": 10,
          "midi": 42,
          "name": "F#2",
          "ticks": 26320,
          "time": 32.9,
          "velocity": 0.4015748031496063
        },
        {
          "duration": 0.012500000000002842,
          "durationTicks": 10,
          "midi": 120,
          "name": "C9",
          "ticks": 26400,
          "time": 33,
          "velocity": 0.8661417322834646
        },
        {
          "duration": 0.012500000000002842,
          "durationTicks": 10,
          "midi": 42,
          "name": "F#2",
          "ticks": 26400,
          "time": 33,
          "velocity": 0.7874015748031497
        },
        {
          "duration": 0.012499999999995737,
          "durationTicks": 10,
          "midi": 9,
          "name": "A-1",
          "ticks": 26560,
          "time": 33.2,
          "velocity": 0.7874015748031497
        },
        {
          "duration": 0.012499999999995737,
          "durationTicks": 10,
          "midi": 42,
          "name": "F#2",
          "ticks": 26560,
          "time": 33.2,
          "velocity": 0.5590551181102362
        },
        {
          "duration": 0.012500000000002842,
          "durationTicks": 10,
          "midi": 46,
          "name": "A#2",
          "ticks": 26640,
          "time": 33.3,
          "velocity": 0.5590551181102362
        },
        {
          "duration": 0.012499999999995737,
          "durationTicks": 10,
          "midi": 9,
          "name": "A-1",
          "ticks": 26800,
          "time": 33.5,
          "velocity": 0.7874015748031497
        },
        {
          "duration": 0.012499999999995737,
          "durationTicks": 10,
          "midi": 42,
          "name": "F#2",
          "ticks": 26880,
          "time": 33.6,
          "velocity": 0.7874015748031497
        },
        {
          "duration": 0.012499999999995737,
          "durationTicks": 10,
          "midi": 49,
          "name": "C#3",
          "ticks": 26880,
          "time": 33.6,
          "velocity": 0.7874015748031497
        },
        {
          "duration": 0.012499999999995737,
          "durationTicks": 10,
          "midi": 9,
          "name": "A-1",
          "ticks": 26880,
          "time": 33.6,
          "velocity": 0.7874015748031497
        },
        {
          "duration": 0.012500000000002842,
          "durationTicks": 10,
          "midi": 42,
          "name": "F#2",
          "ticks": 27040,
          "time": 33.8,
          "velocity": 0.5590551181102362
        },
        {
          "duration": 0.012500000000002842,
          "durationTicks": 10,
          "midi": 46,
          "name": "A#2",
          "ticks": 27120,
          "time": 33.9,
          "velocity": 0.5590551181102362
        },
        {
          "duration": 0.012499999999995737,
          "durationTicks": 10,
          "midi": 9,
          "name": "A-1",
          "ticks": 27280,
          "time": 34.1,
          "velocity": 0.7874015748031497
        },
        {
          "duration": 0.012500000000002842,
          "durationTicks": 10,
          "midi": 42,
          "name": "F#2",
          "ticks": 27360,
          "time": 34.199999999999996,
          "velocity": 0.7874015748031497
        },
        {
          "duration": 0.012500000000002842,
          "durationTicks": 10,
          "midi": 120,
          "name": "C9",
          "ticks": 27360,
          "time": 34.199999999999996,
          "velocity": 0.8661417322834646
        },
        {
          "duration": 0.012499999999995737,
          "durationTicks": 10,
          "midi": 42,
          "name": "F#2",
          "ticks": 27520,
          "time": 34.4,
          "velocity": 0.5590551181102362
        },
        {
          "duration": 0.012499999999995737,
          "durationTicks": 10,
          "midi": 9,
          "name": "A-1",
          "ticks": 27520,
          "time": 34.4,
          "velocity": 0.7874015748031497
        },
        {
          "duration": 0.012500000000002842,
          "durationTicks": 10,
          "midi": 46,
          "name": "A#2",
          "ticks": 27600,
          "time": 34.5,
          "velocity": 0.5590551181102362
        },
        {
          "duration": 0.012499999999995737,
          "durationTicks": 10,
          "midi": 9,
          "name": "A-1",
          "ticks": 27760,
          "time": 34.7,
          "velocity": 0.7874015748031497
        },
        {
          "duration": 0.012500000000002842,
          "durationTicks": 10,
          "midi": 42,
          "name": "F#2",
          "ticks": 27840,
          "time": 34.8,
          "velocity": 0.7874015748031497
        },
        {
          "duration": 0.012499999999995737,
          "durationTicks": 10,
          "midi": 9,
          "name": "A-1",
          "ticks": 28000,
          "time": 35,
          "velocity": 0.7874015748031497
        },
        {
          "duration": 0.012499999999995737,
          "durationTicks": 10,
          "midi": 42,
          "name": "F#2",
          "ticks": 28000,
          "time": 35,
          "velocity": 0.5590551181102362
        },
        {
          "duration": 0.012499999999995737,
          "durationTicks": 10,
          "midi": 9,
          "name": "A-1",
          "ticks": 28080,
          "time": 35.1,
          "velocity": 0.7874015748031497
        },
        {
          "duration": 0.012499999999995737,
          "durationTicks": 10,
          "midi": 46,
          "name": "A#2",
          "ticks": 28080,
          "time": 35.1,
          "velocity": 0.5590551181102362
        },
        {
          "duration": 0.012500000000002842,
          "durationTicks": 10,
          "midi": 120,
          "name": "C9",
          "ticks": 28320,
          "time": 35.4,
          "velocity": 0.8661417322834646
        },
        {
          "duration": 0.012500000000002842,
          "durationTicks": 10,
          "midi": 42,
          "name": "F#2",
          "ticks": 28320,
          "time": 35.4,
          "velocity": 0.7874015748031497
        },
        {
          "duration": 0.012499999999995737,
          "durationTicks": 10,
          "midi": 9,
          "name": "A-1",
          "ticks": 28480,
          "time": 35.6,
          "velocity": 0.7874015748031497
        },
        {
          "duration": 0.012499999999995737,
          "durationTicks": 10,
          "midi": 42,
          "name": "F#2",
          "ticks": 28480,
          "time": 35.6,
          "velocity": 0.5590551181102362
        },
        {
          "duration": 0.012500000000002842,
          "durationTicks": 10,
          "midi": 46,
          "name": "A#2",
          "ticks": 28560,
          "time": 35.699999999999996,
          "velocity": 0.5590551181102362
        },
        {
          "duration": 0.012499999999995737,
          "durationTicks": 10,
          "midi": 9,
          "name": "A-1",
          "ticks": 28720,
          "time": 35.9,
          "velocity": 0.7874015748031497
        },
        {
          "duration": 0.012500000000002842,
          "durationTicks": 10,
          "midi": 42,
          "name": "F#2",
          "ticks": 28800,
          "time": 36,
          "velocity": 0.7874015748031497
        },
        {
          "duration": 0.012500000000002842,
          "durationTicks": 10,
          "midi": 9,
          "name": "A-1",
          "ticks": 28800,
          "time": 36,
          "velocity": 0.7874015748031497
        },
        {
          "duration": 0.012499999999995737,
          "durationTicks": 10,
          "midi": 42,
          "name": "F#2",
          "ticks": 28960,
          "time": 36.2,
          "velocity": 0.5590551181102362
        },
        {
          "duration": 0.012500000000002842,
          "durationTicks": 10,
          "midi": 46,
          "name": "A#2",
          "ticks": 29040,
          "time": 36.3,
          "velocity": 0.5590551181102362
        },
        {
          "duration": 0.012499999999995737,
          "durationTicks": 10,
          "midi": 9,
          "name": "A-1",
          "ticks": 29200,
          "time": 36.5,
          "velocity": 0.7874015748031497
        },
        {
          "duration": 0.012499999999995737,
          "durationTicks": 10,
          "midi": 42,
          "name": "F#2",
          "ticks": 29280,
          "time": 36.6,
          "velocity": 0.7874015748031497
        },
        {
          "duration": 0.012499999999995737,
          "durationTicks": 10,
          "midi": 120,
          "name": "C9",
          "ticks": 29280,
          "time": 36.6,
          "velocity": 0.8661417322834646
        },
        {
          "duration": 0.012500000000002842,
          "durationTicks": 10,
          "midi": 42,
          "name": "F#2",
          "ticks": 29440,
          "time": 36.8,
          "velocity": 0.5590551181102362
        },
        {
          "duration": 0.012500000000002842,
          "durationTicks": 10,
          "midi": 9,
          "name": "A-1",
          "ticks": 29440,
          "time": 36.8,
          "velocity": 0.7874015748031497
        },
        {
          "duration": 0.012500000000002842,
          "durationTicks": 10,
          "midi": 46,
          "name": "A#2",
          "ticks": 29520,
          "time": 36.9,
          "velocity": 0.5590551181102362
        },
        {
          "duration": 0.012499999999995737,
          "durationTicks": 10,
          "midi": 9,
          "name": "A-1",
          "ticks": 29680,
          "time": 37.1,
          "velocity": 0.7874015748031497
        },
        {
          "duration": 0.012500000000002842,
          "durationTicks": 10,
          "midi": 42,
          "name": "F#2",
          "ticks": 29760,
          "time": 37.199999999999996,
          "velocity": 0.7874015748031497
        },
        {
          "duration": 0.012499999999995737,
          "durationTicks": 10,
          "midi": 9,
          "name": "A-1",
          "ticks": 29920,
          "time": 37.4,
          "velocity": 0.7874015748031497
        },
        {
          "duration": 0.012499999999995737,
          "durationTicks": 10,
          "midi": 42,
          "name": "F#2",
          "ticks": 29920,
          "time": 37.4,
          "velocity": 0.5590551181102362
        },
        {
          "duration": 0.012500000000002842,
          "durationTicks": 10,
          "midi": 42,
          "name": "F#2",
          "ticks": 30000,
          "time": 37.5,
          "velocity": 0.7874015748031497
        },
        {
          "duration": 0.012500000000002842,
          "durationTicks": 10,
          "midi": 9,
          "name": "A-1",
          "ticks": 30000,
          "time": 37.5,
          "velocity": 0.7874015748031497
        },
        {
          "duration": 0.012500000000002842,
          "durationTicks": 10,
          "midi": 42,
          "name": "F#2",
          "ticks": 30080,
          "time": 37.599999999999994,
          "velocity": 0.5039370078740157
        },
        {
          "duration": 0.012499999999995737,
          "durationTicks": 10,
          "midi": 42,
          "name": "F#2",
          "ticks": 30160,
          "time": 37.7,
          "velocity": 0.4015748031496063
        },
        {
          "duration": 0.012500000000002842,
          "durationTicks": 10,
          "midi": 120,
          "name": "C9",
          "ticks": 30240,
          "time": 37.8,
          "velocity": 0.8661417322834646
        },
        {
          "duration": 0.012500000000002842,
          "durationTicks": 10,
          "midi": 42,
          "name": "F#2",
          "ticks": 30240,
          "time": 37.8,
          "velocity": 0.7874015748031497
        },
        {
          "duration": 0.012499999999995737,
          "durationTicks": 10,
          "midi": 9,
          "name": "A-1",
          "ticks": 30400,
          "time": 38,
          "velocity": 0.7874015748031497
        },
        {
          "duration": 0.012499999999995737,
          "durationTicks": 10,
          "midi": 42,
          "name": "F#2",
          "ticks": 30400,
          "time": 38,
          "velocity": 0.5590551181102362
        },
        {
          "duration": 0.012499999999995737,
          "durationTicks": 10,
          "midi": 46,
          "name": "A#2",
          "ticks": 30480,
          "time": 38.1,
          "velocity": 0.5590551181102362
        },
        {
          "duration": 0.012500000000002842,
          "durationTicks": 10,
          "midi": 9,
          "name": "A-1",
          "ticks": 30640,
          "time": 38.3,
          "velocity": 0.7874015748031497
        },
        {
          "duration": 0.012499999999995737,
          "durationTicks": 10,
          "midi": 42,
          "name": "F#2",
          "ticks": 30720,
          "time": 38.4,
          "velocity": 0.7874015748031497
        },
        {
          "duration": 0.012499999999995737,
          "durationTicks": 10,
          "midi": 9,
          "name": "A-1",
          "ticks": 30720,
          "time": 38.4,
          "velocity": 0.7874015748031497
        },
        {
          "duration": 0.012500000000009948,
          "durationTicks": 10,
          "midi": 42,
          "name": "F#2",
          "ticks": 30880,
          "time": 38.599999999999994,
          "velocity": 0.5590551181102362
        },
        {
          "duration": 0.012500000000002842,
          "durationTicks": 10,
          "midi": 46,
          "name": "A#2",
          "ticks": 30960,
          "time": 38.699999999999996,
          "velocity": 0.5590551181102362
        },
        {
          "duration": 0.012500000000002842,
          "durationTicks": 10,
          "midi": 9,
          "name": "A-1",
          "ticks": 31120,
          "time": 38.9,
          "velocity": 0.7874015748031497
        },
        {
          "duration": 0.012499999999995737,
          "durationTicks": 10,
          "midi": 42,
          "name": "F#2",
          "ticks": 31200,
          "time": 39,
          "velocity": 0.7874015748031497
        },
        {
          "duration": 0.012499999999995737,
          "durationTicks": 10,
          "midi": 120,
          "name": "C9",
          "ticks": 31200,
          "time": 39,
          "velocity": 0.8661417322834646
        },
        {
          "duration": 0.012500000000002842,
          "durationTicks": 10,
          "midi": 42,
          "name": "F#2",
          "ticks": 31360,
          "time": 39.199999999999996,
          "velocity": 0.5590551181102362
        },
        {
          "duration": 0.012500000000002842,
          "durationTicks": 10,
          "midi": 9,
          "name": "A-1",
          "ticks": 31360,
          "time": 39.199999999999996,
          "velocity": 0.7874015748031497
        },
        {
          "duration": 0.012499999999995737,
          "durationTicks": 10,
          "midi": 46,
          "name": "A#2",
          "ticks": 31440,
          "time": 39.3,
          "velocity": 0.5590551181102362
        },
        {
          "duration": 0.012500000000009948,
          "durationTicks": 10,
          "midi": 9,
          "name": "A-1",
          "ticks": 31600,
          "time": 39.49999999999999,
          "velocity": 0.7874015748031497
        },
        {
          "duration": 0.012499999999995737,
          "durationTicks": 10,
          "midi": 42,
          "name": "F#2",
          "ticks": 31680,
          "time": 39.6,
          "velocity": 0.7874015748031497
        },
        {
          "duration": 0.012500000000002842,
          "durationTicks": 10,
          "midi": 9,
          "name": "A-1",
          "ticks": 31840,
          "time": 39.8,
          "velocity": 0.7874015748031497
        },
        {
          "duration": 0.012500000000002842,
          "durationTicks": 10,
          "midi": 42,
          "name": "F#2",
          "ticks": 31840,
          "time": 39.8,
          "velocity": 0.5590551181102362
        },
        {
          "duration": 0.012499999999995737,
          "durationTicks": 10,
          "midi": 9,
          "name": "A-1",
          "ticks": 31920,
          "time": 39.9,
          "velocity": 0.7874015748031497
        },
        {
          "duration": 0.012499999999995737,
          "durationTicks": 10,
          "midi": 46,
          "name": "A#2",
          "ticks": 31920,
          "time": 39.9,
          "velocity": 0.5590551181102362
        },
        {
          "duration": 0.012500000000002842,
          "durationTicks": 10,
          "midi": 120,
          "name": "C9",
          "ticks": 32160,
          "time": 40.199999999999996,
          "velocity": 0.8661417322834646
        },
        {
          "duration": 0.012500000000002842,
          "durationTicks": 10,
          "midi": 42,
          "name": "F#2",
          "ticks": 32160,
          "time": 40.199999999999996,
          "velocity": 0.7874015748031497
        },
        {
          "duration": 0.012500000000002842,
          "durationTicks": 10,
          "midi": 9,
          "name": "A-1",
          "ticks": 32320,
          "time": 40.4,
          "velocity": 0.7874015748031497
        },
        {
          "duration": 0.012500000000002842,
          "durationTicks": 10,
          "midi": 42,
          "name": "F#2",
          "ticks": 32320,
          "time": 40.4,
          "velocity": 0.5590551181102362
        },
        {
          "duration": 0.012499999999995737,
          "durationTicks": 10,
          "midi": 46,
          "name": "A#2",
          "ticks": 32400,
          "time": 40.5,
          "velocity": 0.5590551181102362
        },
        {
          "duration": 0.012500000000002842,
          "durationTicks": 10,
          "midi": 9,
          "name": "A-1",
          "ticks": 32560,
          "time": 40.699999999999996,
          "velocity": 0.7874015748031497
        },
        {
          "duration": 0.012499999999995737,
          "durationTicks": 10,
          "midi": 120,
          "name": "C9",
          "ticks": 32640,
          "time": 40.8,
          "velocity": 0.7874015748031497
        },
        {
          "duration": 0.012499999999995737,
          "durationTicks": 10,
          "midi": 49,
          "name": "C#3",
          "ticks": 32640,
          "time": 40.8,
          "velocity": 0.7874015748031497
        },
        {
          "duration": 0.012499999999995737,
          "durationTicks": 10,
          "midi": 9,
          "name": "A-1",
          "ticks": 32640,
          "time": 40.8,
          "velocity": 0.7874015748031497
        },
        {
          "duration": 0.012500000000002842,
          "durationTicks": 10,
          "midi": 120,
          "name": "C9",
          "ticks": 33040,
          "time": 41.3,
          "velocity": 0.7874015748031497
        },
        {
          "duration": 0.012500000000002842,
          "durationTicks": 10,
          "midi": 49,
          "name": "C#3",
          "ticks": 33040,
          "time": 41.3,
          "velocity": 0.7874015748031497
        },
        {
          "duration": 0.012500000000002842,
          "durationTicks": 10,
          "midi": 9,
          "name": "A-1",
          "ticks": 33040,
          "time": 41.3,
          "velocity": 0.7874015748031497
        },
        {
          "duration": 0.012499999999995737,
          "durationTicks": 10,
          "midi": 120,
          "name": "C9",
          "ticks": 34080,
          "time": 42.6,
          "velocity": 0.8818897637795275
        },
        {
          "duration": 0.012499999999995737,
          "durationTicks": 10,
          "midi": 120,
          "name": "C9",
          "ticks": 34160,
          "time": 42.7,
          "velocity": 0.8818897637795275
        },
        {
          "duration": 0.012500000000002842,
          "durationTicks": 10,
          "midi": 120,
          "name": "C9",
          "ticks": 34240,
          "time": 42.8,
          "velocity": 0.8818897637795275
        },
        {
          "duration": 0.012499999999995737,
          "durationTicks": 10,
          "midi": 120,
          "name": "C9",
          "ticks": 34320,
          "time": 42.9,
          "velocity": 0.8818897637795275
        },
        {
          "duration": 0.012500000000009948,
          "durationTicks": 10,
          "midi": 120,
          "name": "C9",
          "ticks": 34480,
          "time": 43.099999999999994,
          "velocity": 0.8818897637795275
        },
        {
          "duration": 0.012500000000002842,
          "durationTicks": 10,
          "midi": 42,
          "name": "F#2",
          "ticks": 34560,
          "time": 43.199999999999996,
          "velocity": 0.5511811023622047
        },
        {
          "duration": 0.012500000000002842,
          "durationTicks": 10,
          "midi": 49,
          "name": "C#3",
          "ticks": 34560,
          "time": 43.199999999999996,
          "velocity": 0.7874015748031497
        },
        {
          "duration": 0.012500000000002842,
          "durationTicks": 10,
          "midi": 9,
          "name": "A-1",
          "ticks": 34560,
          "time": 43.199999999999996,
          "velocity": 0.7874015748031497
        },
        {
          "duration": 0.012500000000002842,
          "durationTicks": 10,
          "midi": 42,
          "name": "F#2",
          "ticks": 34720,
          "time": 43.4,
          "velocity": 0.30708661417322836
        },
        {
          "duration": 0.012499999999995737,
          "durationTicks": 10,
          "midi": 42,
          "name": "F#2",
          "ticks": 34800,
          "time": 43.5,
          "velocity": 0.3228346456692913
        },
        {
          "duration": 0.012500000000002842,
          "durationTicks": 10,
          "midi": 9,
          "name": "A-1",
          "ticks": 34960,
          "time": 43.699999999999996,
          "velocity": 0.7874015748031497
        },
        {
          "duration": 0.012499999999995737,
          "durationTicks": 10,
          "midi": 120,
          "name": "C9",
          "ticks": 35040,
          "time": 43.8,
          "velocity": 0.7874015748031497
        },
        {
          "duration": 0.012500000000002842,
          "durationTicks": 10,
          "midi": 42,
          "name": "F#2",
          "ticks": 35120,
          "time": 43.9,
          "velocity": 0.6062992125984252
        },
        {
          "duration": 0.012500000000009948,
          "durationTicks": 10,
          "midi": 9,
          "name": "A-1",
          "ticks": 35200,
          "time": 43.99999999999999,
          "velocity": 0.7874015748031497
        },
        {
          "duration": 0.012499999999995737,
          "durationTicks": 10,
          "midi": 42,
          "name": "F#2",
          "ticks": 35280,
          "time": 44.1,
          "velocity": 0.6062992125984252
        },
        {
          "duration": 0.012499999999995737,
          "durationTicks": 10,
          "midi": 42,
          "name": "F#2",
          "ticks": 35360,
          "time": 44.2,
          "velocity": 0.6062992125984252
        },
        {
          "duration": 0.012500000000002842,
          "durationTicks": 10,
          "midi": 42,
          "name": "F#2",
          "ticks": 35440,
          "time": 44.3,
          "velocity": 0.6062992125984252
        },
        {
          "duration": 0.012500000000002842,
          "durationTicks": 10,
          "midi": 9,
          "name": "A-1",
          "ticks": 35440,
          "time": 44.3,
          "velocity": 0.7874015748031497
        },
        {
          "duration": 0.012499999999995737,
          "durationTicks": 10,
          "midi": 42,
          "name": "F#2",
          "ticks": 35520,
          "time": 44.4,
          "velocity": 0.6535433070866141
        },
        {
          "duration": 0.012499999999995737,
          "durationTicks": 10,
          "midi": 42,
          "name": "F#2",
          "ticks": 35600,
          "time": 44.5,
          "velocity": 0.41732283464566927
        },
        {
          "duration": 0.012500000000009948,
          "durationTicks": 10,
          "midi": 42,
          "name": "F#2",
          "ticks": 35680,
          "time": 44.599999999999994,
          "velocity": 0.2992125984251969
        },
        {
          "duration": 0.012500000000009948,
          "durationTicks": 10,
          "midi": 9,
          "name": "A-1",
          "ticks": 35680,
          "time": 44.599999999999994,
          "velocity": 0.7874015748031497
        },
        {
          "duration": 0.012500000000002842,
          "durationTicks": 10,
          "midi": 46,
          "name": "A#2",
          "ticks": 35760,
          "time": 44.699999999999996,
          "velocity": 0.5748031496062992
        },
        {
          "duration": 0.012500000000002842,
          "durationTicks": 10,
          "midi": 9,
          "name": "A-1",
          "ticks": 35760,
          "time": 44.699999999999996,
          "velocity": 0.7874015748031497
        },
        {
          "duration": 0.012499999999995737,
          "durationTicks": 10,
          "midi": 120,
          "name": "C9",
          "ticks": 36000,
          "time": 45,
          "velocity": 0.7874015748031497
        },
        {
          "duration": 0.012499999999995737,
          "durationTicks": 10,
          "midi": 42,
          "name": "F#2",
          "ticks": 36240,
          "time": 45.3,
          "velocity": 0.5748031496062992
        },
        {
          "duration": 0.012500000000002842,
          "durationTicks": 10,
          "midi": 42,
          "name": "F#2",
          "ticks": 36320,
          "time": 45.4,
          "velocity": 0.4645669291338583
        },
        {
          "duration": 0.012500000000009948,
          "durationTicks": 10,
          "midi": 42,
          "name": "F#2",
          "ticks": 36400,
          "time": 45.49999999999999,
          "velocity": 0.30708661417322836
        },
        {
          "duration": 0.012500000000009948,
          "durationTicks": 10,
          "midi": 9,
          "name": "A-1",
          "ticks": 36400,
          "time": 45.49999999999999,
          "velocity": 1
        },
        {
          "duration": 0.012500000000002842,
          "durationTicks": 10,
          "midi": 9,
          "name": "A-1",
          "ticks": 37360,
          "time": 46.699999999999996,
          "velocity": 0.7874015748031497
        },
        {
          "duration": 0.012499999999995737,
          "durationTicks": 10,
          "midi": 9,
          "name": "A-1",
          "ticks": 37440,
          "time": 46.8,
          "velocity": 0.7874015748031497
        },
        {
          "duration": 0.012499999999995737,
          "durationTicks": 10,
          "midi": 9,
          "name": "A-1",
          "ticks": 37680,
          "time": 47.1,
          "velocity": 0.8818897637795275
        },
        {
          "duration": 0.012500000000002842,
          "durationTicks": 10,
          "midi": 120,
          "name": "C9",
          "ticks": 37840,
          "time": 47.3,
          "velocity": 0.7874015748031497
        },
        {
          "duration": 0.012500000000002842,
          "durationTicks": 10,
          "midi": 9,
          "name": "A-1",
          "ticks": 37840,
          "time": 47.3,
          "velocity": 0.8818897637795275
        },
        {
          "duration": 0.012500000000009948,
          "durationTicks": 10,
          "midi": 9,
          "name": "A-1",
          "ticks": 38080,
          "time": 47.599999999999994,
          "velocity": 0.8818897637795275
        },
        {
          "duration": 0.012500000000002842,
          "durationTicks": 10,
          "midi": 120,
          "name": "C9",
          "ticks": 38160,
          "time": 47.699999999999996,
          "velocity": 0.8818897637795275
        },
        {
          "duration": 0.012499999999995737,
          "durationTicks": 10,
          "midi": 42,
          "name": "F#2",
          "ticks": 38400,
          "time": 48,
          "velocity": 0.5511811023622047
        },
        {
          "duration": 0.012499999999995737,
          "durationTicks": 10,
          "midi": 9,
          "name": "A-1",
          "ticks": 38400,
          "time": 48,
          "velocity": 0.7874015748031497
        },
        {
          "duration": 0.012500000000002842,
          "durationTicks": 10,
          "midi": 42,
          "name": "F#2",
          "ticks": 38560,
          "time": 48.199999999999996,
          "velocity": 0.30708661417322836
        },
        {
          "duration": 0.012499999999995737,
          "durationTicks": 10,
          "midi": 42,
          "name": "F#2",
          "ticks": 38640,
          "time": 48.3,
          "velocity": 0.3228346456692913
        },
        {
          "duration": 0.012500000000009948,
          "durationTicks": 10,
          "midi": 9,
          "name": "A-1",
          "ticks": 38800,
          "time": 48.49999999999999,
          "velocity": 0.7874015748031497
        },
        {
          "duration": 0.012499999999995737,
          "durationTicks": 10,
          "midi": 120,
          "name": "C9",
          "ticks": 38880,
          "time": 48.6,
          "velocity": 0.7874015748031497
        },
        {
          "duration": 0.012499999999995737,
          "durationTicks": 10,
          "midi": 42,
          "name": "F#2",
          "ticks": 38960,
          "time": 48.7,
          "velocity": 0.6062992125984252
        },
        {
          "duration": 0.012500000000002842,
          "durationTicks": 10,
          "midi": 9,
          "name": "A-1",
          "ticks": 39040,
          "time": 48.8,
          "velocity": 0.7874015748031497
        },
        {
          "duration": 0.012499999999995737,
          "durationTicks": 10,
          "midi": 42,
          "name": "F#2",
          "ticks": 39120,
          "time": 48.9,
          "velocity": 0.6062992125984252
        },
        {
          "duration": 0.012499999999995737,
          "durationTicks": 10,
          "midi": 42,
          "name": "F#2",
          "ticks": 39200,
          "time": 49,
          "velocity": 0.6062992125984252
        },
        {
          "duration": 0.012500000000009948,
          "durationTicks": 10,
          "midi": 42,
          "name": "F#2",
          "ticks": 39280,
          "time": 49.099999999999994,
          "velocity": 0.6062992125984252
        },
        {
          "duration": 0.012500000000009948,
          "durationTicks": 10,
          "midi": 9,
          "name": "A-1",
          "ticks": 39280,
          "time": 49.099999999999994,
          "velocity": 0.7874015748031497
        },
        {
          "duration": 0.012500000000002842,
          "durationTicks": 10,
          "midi": 42,
          "name": "F#2",
          "ticks": 39360,
          "time": 49.199999999999996,
          "velocity": 0.6535433070866141
        },
        {
          "duration": 0.012499999999995737,
          "durationTicks": 10,
          "midi": 42,
          "name": "F#2",
          "ticks": 39440,
          "time": 49.300000000000004,
          "velocity": 0.41732283464566927
        },
        {
          "duration": 0.012500000000002842,
          "durationTicks": 10,
          "midi": 42,
          "name": "F#2",
          "ticks": 39520,
          "time": 49.4,
          "velocity": 0.2992125984251969
        },
        {
          "duration": 0.012500000000002842,
          "durationTicks": 10,
          "midi": 9,
          "name": "A-1",
          "ticks": 39520,
          "time": 49.4,
          "velocity": 0.7874015748031497
        },
        {
          "duration": 0.012499999999995737,
          "durationTicks": 10,
          "midi": 46,
          "name": "A#2",
          "ticks": 39600,
          "time": 49.5,
          "velocity": 0.5748031496062992
        },
        {
          "duration": 0.012499999999995737,
          "durationTicks": 10,
          "midi": 9,
          "name": "A-1",
          "ticks": 39600,
          "time": 49.5,
          "velocity": 0.7874015748031497
        },
        {
          "duration": 0.012499999999995737,
          "durationTicks": 10,
          "midi": 120,
          "name": "C9",
          "ticks": 39840,
          "time": 49.8,
          "velocity": 0.7874015748031497
        },
        {
          "duration": 0.012499999999995737,
          "durationTicks": 10,
          "midi": 42,
          "name": "F#2",
          "ticks": 40080,
          "time": 50.1,
          "velocity": 0.5748031496062992
        },
        {
          "duration": 0.012499999999995737,
          "durationTicks": 10,
          "midi": 42,
          "name": "F#2",
          "ticks": 40160,
          "time": 50.2,
          "velocity": 0.4645669291338583
        },
        {
          "duration": 0.012500000000002842,
          "durationTicks": 10,
          "midi": 42,
          "name": "F#2",
          "ticks": 40240,
          "time": 50.3,
          "velocity": 0.30708661417322836
        },
        {
          "duration": 0.012500000000002842,
          "durationTicks": 10,
          "midi": 9,
          "name": "A-1",
          "ticks": 40240,
          "time": 50.3,
          "velocity": 1
        },
        {
          "duration": 0.012499999999995737,
          "durationTicks": 10,
          "midi": 9,
          "name": "A-1",
          "ticks": 41280,
          "time": 51.6,
          "velocity": 0.7874015748031497
        },
        {
          "duration": 0.012500000000002842,
          "durationTicks": 10,
          "midi": 120,
          "name": "C9",
          "ticks": 41440,
          "time": 51.8,
          "velocity": 0.7874015748031497
        },
        {
          "duration": 0.012499999999995737,
          "durationTicks": 10,
          "midi": 120,
          "name": "C9",
          "ticks": 41520,
          "time": 51.9,
          "velocity": 0.7874015748031497
        },
        {
          "duration": 0.012499999999995737,
          "durationTicks": 10,
          "midi": 9,
          "name": "A-1",
          "ticks": 41600,
          "time": 52,
          "velocity": 0.7874015748031497
        },
        {
          "duration": 0.012500000000009948,
          "durationTicks": 10,
          "midi": 120,
          "name": "C9",
          "ticks": 41680,
          "time": 52.099999999999994,
          "velocity": 0.7874015748031497
        },
        {
          "duration": 0.012500000000002842,
          "durationTicks": 10,
          "midi": 120,
          "name": "C9",
          "ticks": 41760,
          "time": 52.199999999999996,
          "velocity": 0.7874015748031497
        },
        {
          "duration": 0.012499999999995737,
          "durationTicks": 10,
          "midi": 9,
          "name": "A-1",
          "ticks": 41840,
          "time": 52.300000000000004,
          "velocity": 0.7874015748031497
        },
        {
          "duration": 0.012500000000002842,
          "durationTicks": 10,
          "midi": 120,
          "name": "C9",
          "ticks": 41920,
          "time": 52.4,
          "velocity": 0.7874015748031497
        },
        {
          "duration": 0.012499999999995737,
          "durationTicks": 10,
          "midi": 9,
          "name": "A-1",
          "ticks": 42240,
          "time": 52.8,
          "velocity": 0.7874015748031497
        },
        {
          "duration": 0.012499999999995737,
          "durationTicks": 10,
          "midi": 42,
          "name": "F#2",
          "ticks": 42240,
          "time": 52.8,
          "velocity": 0.5511811023622047
        },
        {
          "duration": 0.012500000000009948,
          "durationTicks": 10,
          "midi": 42,
          "name": "F#2",
          "ticks": 42400,
          "time": 52.99999999999999,
          "velocity": 0.30708661417322836
        },
        {
          "duration": 0.012499999999995737,
          "durationTicks": 10,
          "midi": 42,
          "name": "F#2",
          "ticks": 42480,
          "time": 53.1,
          "velocity": 0.3228346456692913
        },
        {
          "duration": 0.012500000000002842,
          "durationTicks": 10,
          "midi": 9,
          "name": "A-1",
          "ticks": 42640,
          "time": 53.3,
          "velocity": 0.7874015748031497
        },
        {
          "duration": 0.012499999999995737,
          "durationTicks": 10,
          "midi": 120,
          "name": "C9",
          "ticks": 42720,
          "time": 53.4,
          "velocity": 0.7874015748031497
        },
        {
          "duration": 0.012499999999995737,
          "durationTicks": 10,
          "midi": 42,
          "name": "F#2",
          "ticks": 42800,
          "time": 53.5,
          "velocity": 0.6062992125984252
        },
        {
          "duration": 0.012500000000009948,
          "durationTicks": 10,
          "midi": 9,
          "name": "A-1",
          "ticks": 42880,
          "time": 53.599999999999994,
          "velocity": 0.7874015748031497
        },
        {
          "duration": 0.012500000000002842,
          "durationTicks": 10,
          "midi": 42,
          "name": "F#2",
          "ticks": 42960,
          "time": 53.699999999999996,
          "velocity": 0.6062992125984252
        },
        {
          "duration": 0.012499999999995737,
          "durationTicks": 10,
          "midi": 42,
          "name": "F#2",
          "ticks": 43040,
          "time": 53.800000000000004,
          "velocity": 0.6062992125984252
        },
        {
          "duration": 0.012500000000002842,
          "durationTicks": 10,
          "midi": 42,
          "name": "F#2",
          "ticks": 43120,
          "time": 53.9,
          "velocity": 0.6062992125984252
        },
        {
          "duration": 0.012500000000002842,
          "durationTicks": 10,
          "midi": 9,
          "name": "A-1",
          "ticks": 43120,
          "time": 53.9,
          "velocity": 0.7874015748031497
        },
        {
          "duration": 0.012499999999995737,
          "durationTicks": 10,
          "midi": 42,
          "name": "F#2",
          "ticks": 43200,
          "time": 54,
          "velocity": 0.6535433070866141
        },
        {
          "duration": 0.012499999999995737,
          "durationTicks": 10,
          "midi": 42,
          "name": "F#2",
          "ticks": 43280,
          "time": 54.1,
          "velocity": 0.41732283464566927
        },
        {
          "duration": 0.012500000000002842,
          "durationTicks": 10,
          "midi": 42,
          "name": "F#2",
          "ticks": 43360,
          "time": 54.199999999999996,
          "velocity": 0.2992125984251969
        },
        {
          "duration": 0.012500000000002842,
          "durationTicks": 10,
          "midi": 9,
          "name": "A-1",
          "ticks": 43360,
          "time": 54.199999999999996,
          "velocity": 0.7874015748031497
        },
        {
          "duration": 0.012499999999995737,
          "durationTicks": 10,
          "midi": 46,
          "name": "A#2",
          "ticks": 43440,
          "time": 54.3,
          "velocity": 0.5748031496062992
        },
        {
          "duration": 0.012499999999995737,
          "durationTicks": 10,
          "midi": 9,
          "name": "A-1",
          "ticks": 43440,
          "time": 54.3,
          "velocity": 0.7874015748031497
        },
        {
          "duration": 0.012499999999995737,
          "durationTicks": 10,
          "midi": 120,
          "name": "C9",
          "ticks": 43680,
          "time": 54.6,
          "velocity": 0.7874015748031497
        },
        {
          "duration": 0.012499999999995737,
          "durationTicks": 10,
          "midi": 42,
          "name": "F#2",
          "ticks": 43920,
          "time": 54.9,
          "velocity": 0.5748031496062992
        },
        {
          "duration": 0.012499999999995737,
          "durationTicks": 10,
          "midi": 42,
          "name": "F#2",
          "ticks": 44000,
          "time": 55,
          "velocity": 0.4645669291338583
        },
        {
          "duration": 0.012500000000009948,
          "durationTicks": 10,
          "midi": 42,
          "name": "F#2",
          "ticks": 44080,
          "time": 55.099999999999994,
          "velocity": 0.30708661417322836
        },
        {
          "duration": 0.012500000000009948,
          "durationTicks": 10,
          "midi": 9,
          "name": "A-1",
          "ticks": 44080,
          "time": 55.099999999999994,
          "velocity": 1
        },
        {
          "duration": 0.012500000000002842,
          "durationTicks": 10,
          "midi": 9,
          "name": "A-1",
          "ticks": 45040,
          "time": 56.3,
          "velocity": 0.7874015748031497
        },
        {
          "duration": 0.012499999999995737,
          "durationTicks": 10,
          "midi": 9,
          "name": "A-1",
          "ticks": 45120,
          "time": 56.4,
          "velocity": 0.7874015748031497
        },
        {
          "duration": 0.012500000000002842,
          "durationTicks": 10,
          "midi": 9,
          "name": "A-1",
          "ticks": 45360,
          "time": 56.699999999999996,
          "velocity": 0.8818897637795275
        },
        {
          "duration": 0.012500000000002842,
          "durationTicks": 10,
          "midi": 120,
          "name": "C9",
          "ticks": 45520,
          "time": 56.9,
          "velocity": 0.7874015748031497
        },
        {
          "duration": 0.012500000000002842,
          "durationTicks": 10,
          "midi": 9,
          "name": "A-1",
          "ticks": 45520,
          "time": 56.9,
          "velocity": 0.8818897637795275
        },
        {
          "duration": 0.012500000000002842,
          "durationTicks": 10,
          "midi": 9,
          "name": "A-1",
          "ticks": 45760,
          "time": 57.199999999999996,
          "velocity": 0.8818897637795275
        },
        {
          "duration": 0.012499999999995737,
          "durationTicks": 10,
          "midi": 120,
          "name": "C9",
          "ticks": 45840,
          "time": 57.3,
          "velocity": 0.8818897637795275
        },
        {
          "duration": 0.012500000000002842,
          "durationTicks": 10,
          "midi": 42,
          "name": "F#2",
          "ticks": 46080,
          "time": 57.599999999999994,
          "velocity": 0.5511811023622047
        },
        {
          "duration": 0.012500000000002842,
          "durationTicks": 10,
          "midi": 9,
          "name": "A-1",
          "ticks": 46080,
          "time": 57.599999999999994,
          "velocity": 0.7874015748031497
        },
        {
          "duration": 0.012500000000002842,
          "durationTicks": 10,
          "midi": 42,
          "name": "F#2",
          "ticks": 46240,
          "time": 57.8,
          "velocity": 0.30708661417322836
        },
        {
          "duration": 0.012499999999995737,
          "durationTicks": 10,
          "midi": 42,
          "name": "F#2",
          "ticks": 46320,
          "time": 57.9,
          "velocity": 0.3228346456692913
        },
        {
          "duration": 0.012500000000002842,
          "durationTicks": 10,
          "midi": 9,
          "name": "A-1",
          "ticks": 46480,
          "time": 58.099999999999994,
          "velocity": 0.7874015748031497
        },
        {
          "duration": 0.012499999999995737,
          "durationTicks": 10,
          "midi": 120,
          "name": "C9",
          "ticks": 46560,
          "time": 58.199999999999996,
          "velocity": 0.7874015748031497
        },
        {
          "duration": 0.012500000000002842,
          "durationTicks": 10,
          "midi": 42,
          "name": "F#2",
          "ticks": 46640,
          "time": 58.3,
          "velocity": 0.6062992125984252
        },
        {
          "duration": 0.012500000000009948,
          "durationTicks": 10,
          "midi": 9,
          "name": "A-1",
          "ticks": 46720,
          "time": 58.39999999999999,
          "velocity": 0.7874015748031497
        },
        {
          "duration": 0.012499999999995737,
          "durationTicks": 10,
          "midi": 42,
          "name": "F#2",
          "ticks": 46800,
          "time": 58.5,
          "velocity": 0.6062992125984252
        },
        {
          "duration": 0.012499999999995737,
          "durationTicks": 10,
          "midi": 42,
          "name": "F#2",
          "ticks": 46880,
          "time": 58.6,
          "velocity": 0.6062992125984252
        },
        {
          "duration": 0.012500000000002842,
          "durationTicks": 10,
          "midi": 42,
          "name": "F#2",
          "ticks": 46960,
          "time": 58.699999999999996,
          "velocity": 0.6062992125984252
        },
        {
          "duration": 0.012500000000002842,
          "durationTicks": 10,
          "midi": 9,
          "name": "A-1",
          "ticks": 46960,
          "time": 58.699999999999996,
          "velocity": 0.7874015748031497
        },
        {
          "duration": 0.012499999999995737,
          "durationTicks": 10,
          "midi": 42,
          "name": "F#2",
          "ticks": 47040,
          "time": 58.8,
          "velocity": 0.6535433070866141
        },
        {
          "duration": 0.012499999999995737,
          "durationTicks": 10,
          "midi": 42,
          "name": "F#2",
          "ticks": 47120,
          "time": 58.9,
          "velocity": 0.41732283464566927
        },
        {
          "duration": 0.012500000000009948,
          "durationTicks": 10,
          "midi": 42,
          "name": "F#2",
          "ticks": 47200,
          "time": 58.99999999999999,
          "velocity": 0.2992125984251969
        },
        {
          "duration": 0.012500000000009948,
          "durationTicks": 10,
          "midi": 9,
          "name": "A-1",
          "ticks": 47200,
          "time": 58.99999999999999,
          "velocity": 0.7874015748031497
        },
        {
          "duration": 0.012500000000002842,
          "durationTicks": 10,
          "midi": 46,
          "name": "A#2",
          "ticks": 47280,
          "time": 59.099999999999994,
          "velocity": 0.5748031496062992
        },
        {
          "duration": 0.012500000000002842,
          "durationTicks": 10,
          "midi": 9,
          "name": "A-1",
          "ticks": 47280,
          "time": 59.099999999999994,
          "velocity": 0.7874015748031497
        },
        {
          "duration": 0.012499999999995737,
          "durationTicks": 10,
          "midi": 120,
          "name": "C9",
          "ticks": 47520,
          "time": 59.4,
          "velocity": 0.7874015748031497
        },
        {
          "duration": 0.012499999999995737,
          "durationTicks": 10,
          "midi": 42,
          "name": "F#2",
          "ticks": 47760,
          "time": 59.699999999999996,
          "velocity": 0.5748031496062992
        },
        {
          "duration": 0.012500000000002842,
          "durationTicks": 10,
          "midi": 42,
          "name": "F#2",
          "ticks": 47840,
          "time": 59.8,
          "velocity": 0.4645669291338583
        },
        {
          "duration": 0.012500000000009948,
          "durationTicks": 10,
          "midi": 42,
          "name": "F#2",
          "ticks": 47920,
          "time": 59.89999999999999,
          "velocity": 0.30708661417322836
        },
        {
          "duration": 0.012500000000009948,
          "durationTicks": 10,
          "midi": 9,
          "name": "A-1",
          "ticks": 47920,
          "time": 59.89999999999999,
          "velocity": 1
        },
        {
          "duration": 0.012499999999995737,
          "durationTicks": 10,
          "midi": 9,
          "name": "A-1",
          "ticks": 48960,
          "time": 61.199999999999996,
          "velocity": 0.7874015748031497
        },
        {
          "duration": 0.012500000000009948,
          "durationTicks": 10,
          "midi": 120,
          "name": "C9",
          "ticks": 49120,
          "time": 61.39999999999999,
          "velocity": 0.7874015748031497
        },
        {
          "duration": 0.012499999999995737,
          "durationTicks": 10,
          "midi": 120,
          "name": "C9",
          "ticks": 49200,
          "time": 61.5,
          "velocity": 0.7874015748031497
        },
        {
          "duration": 0.012499999999995737,
          "durationTicks": 10,
          "midi": 9,
          "name": "A-1",
          "ticks": 49280,
          "time": 61.6,
          "velocity": 0.7874015748031497
        },
        {
          "duration": 0.012500000000002842,
          "durationTicks": 10,
          "midi": 120,
          "name": "C9",
          "ticks": 49360,
          "time": 61.699999999999996,
          "velocity": 0.7874015748031497
        },
        {
          "duration": 0.012499999999995737,
          "durationTicks": 10,
          "midi": 120,
          "name": "C9",
          "ticks": 49440,
          "time": 61.8,
          "velocity": 0.7874015748031497
        },
        {
          "duration": 0.012499999999995737,
          "durationTicks": 10,
          "midi": 120,
          "name": "C9",
          "ticks": 49520,
          "time": 61.9,
          "velocity": 0.7874015748031497
        },
        {
          "duration": 0.012499999999995737,
          "durationTicks": 10,
          "midi": 9,
          "name": "A-1",
          "ticks": 49520,
          "time": 61.9,
          "velocity": 0.7874015748031497
        },
        {
          "duration": 0.012500000000009948,
          "durationTicks": 10,
          "midi": 120,
          "name": "C9",
          "ticks": 49600,
          "time": 61.99999999999999,
          "velocity": 0.7874015748031497
        },
        {
          "duration": 0.012500000000002842,
          "durationTicks": 10,
          "midi": 120,
          "name": "C9",
          "ticks": 49680,
          "time": 62.099999999999994,
          "velocity": 0.7874015748031497
        },
        {
          "duration": 0.012499999999995737,
          "durationTicks": 10,
          "midi": 9,
          "name": "A-1",
          "ticks": 49760,
          "time": 62.2,
          "velocity": 0.7874015748031497
        },
        {
          "duration": 0.012499999999995737,
          "durationTicks": 10,
          "midi": 120,
          "name": "C9",
          "ticks": 49760,
          "time": 62.2,
          "velocity": 0.7874015748031497
        },
        {
          "duration": 0.012500000000002842,
          "durationTicks": 10,
          "midi": 120,
          "name": "C9",
          "ticks": 49840,
          "time": 62.3,
          "velocity": 0.7874015748031497
        },
        {
          "duration": 0.012499999999995737,
          "durationTicks": 10,
          "midi": 42,
          "name": "F#2",
          "ticks": 49920,
          "time": 62.4,
          "velocity": 0.7874015748031497
        },
        {
          "duration": 0.012499999999995737,
          "durationTicks": 10,
          "midi": 49,
          "name": "C#3",
          "ticks": 49920,
          "time": 62.4,
          "velocity": 0.7874015748031497
        },
        {
          "duration": 0.012499999999995737,
          "durationTicks": 10,
          "midi": 9,
          "name": "A-1",
          "ticks": 49920,
          "time": 62.4,
          "velocity": 0.7874015748031497
        },
        {
          "duration": 0.012500000000002842,
          "durationTicks": 10,
          "midi": 42,
          "name": "F#2",
          "ticks": 50080,
          "time": 62.599999999999994,
          "velocity": 0.5590551181102362
        },
        {
          "duration": 0.012499999999995737,
          "durationTicks": 10,
          "midi": 46,
          "name": "A#2",
          "ticks": 50160,
          "time": 62.699999999999996,
          "velocity": 0.5590551181102362
        },
        {
          "duration": 0.012500000000009948,
          "durationTicks": 10,
          "midi": 9,
          "name": "A-1",
          "ticks": 50320,
          "time": 62.89999999999999,
          "velocity": 0.7874015748031497
        },
        {
          "duration": 0.012499999999995737,
          "durationTicks": 10,
          "midi": 42,
          "name": "F#2",
          "ticks": 50400,
          "time": 63,
          "velocity": 0.7874015748031497
        },
        {
          "duration": 0.012499999999995737,
          "durationTicks": 10,
          "midi": 120,
          "name": "C9",
          "ticks": 50400,
          "time": 63,
          "velocity": 0.8661417322834646
        },
        {
          "duration": 0.012500000000002842,
          "durationTicks": 10,
          "midi": 42,
          "name": "F#2",
          "ticks": 50560,
          "time": 63.199999999999996,
          "velocity": 0.5590551181102362
        },
        {
          "duration": 0.012500000000002842,
          "durationTicks": 10,
          "midi": 9,
          "name": "A-1",
          "ticks": 50560,
          "time": 63.199999999999996,
          "velocity": 0.7874015748031497
        },
        {
          "duration": 0.012499999999995737,
          "durationTicks": 10,
          "midi": 46,
          "name": "A#2",
          "ticks": 50640,
          "time": 63.3,
          "velocity": 0.5590551181102362
        },
        {
          "duration": 0.012500000000009948,
          "durationTicks": 10,
          "midi": 9,
          "name": "A-1",
          "ticks": 50800,
          "time": 63.49999999999999,
          "velocity": 0.7874015748031497
        },
        {
          "duration": 0.012500000000002842,
          "durationTicks": 10,
          "midi": 42,
          "name": "F#2",
          "ticks": 50880,
          "time": 63.599999999999994,
          "velocity": 0.7874015748031497
        },
        {
          "duration": 0.012500000000002842,
          "durationTicks": 10,
          "midi": 9,
          "name": "A-1",
          "ticks": 51040,
          "time": 63.8,
          "velocity": 0.7874015748031497
        },
        {
          "duration": 0.012500000000002842,
          "durationTicks": 10,
          "midi": 42,
          "name": "F#2",
          "ticks": 51040,
          "time": 63.8,
          "velocity": 0.5590551181102362
        },
        {
          "duration": 0.012499999999995737,
          "durationTicks": 10,
          "midi": 9,
          "name": "A-1",
          "ticks": 51120,
          "time": 63.9,
          "velocity": 0.7874015748031497
        },
        {
          "duration": 0.012499999999995737,
          "durationTicks": 10,
          "midi": 46,
          "name": "A#2",
          "ticks": 51120,
          "time": 63.9,
          "velocity": 0.5590551181102362
        },
        {
          "duration": 0.012499999999988631,
          "durationTicks": 10,
          "midi": 120,
          "name": "C9",
          "ticks": 51360,
          "time": 64.2,
          "velocity": 0.8661417322834646
        },
        {
          "duration": 0.012499999999988631,
          "durationTicks": 10,
          "midi": 42,
          "name": "F#2",
          "ticks": 51360,
          "time": 64.2,
          "velocity": 0.7874015748031497
        },
        {
          "duration": 0.012500000000002842,
          "durationTicks": 10,
          "midi": 9,
          "name": "A-1",
          "ticks": 51520,
          "time": 64.39999999999999,
          "velocity": 0.7874015748031497
        },
        {
          "duration": 0.012500000000002842,
          "durationTicks": 10,
          "midi": 42,
          "name": "F#2",
          "ticks": 51520,
          "time": 64.39999999999999,
          "velocity": 0.5590551181102362
        },
        {
          "duration": 0.012499999999988631,
          "durationTicks": 10,
          "midi": 46,
          "name": "A#2",
          "ticks": 51600,
          "time": 64.5,
          "velocity": 0.5590551181102362
        },
        {
          "duration": 0.012500000000017053,
          "durationTicks": 10,
          "midi": 9,
          "name": "A-1",
          "ticks": 51760,
          "time": 64.69999999999999,
          "velocity": 0.7874015748031497
        },
        {
          "duration": 0.012500000000002842,
          "durationTicks": 10,
          "midi": 42,
          "name": "F#2",
          "ticks": 51840,
          "time": 64.8,
          "velocity": 0.7874015748031497
        },
        {
          "duration": 0.012500000000002842,
          "durationTicks": 10,
          "midi": 9,
          "name": "A-1",
          "ticks": 51840,
          "time": 64.8,
          "velocity": 0.7874015748031497
        },
        {
          "duration": 0.012500000000002842,
          "durationTicks": 10,
          "midi": 42,
          "name": "F#2",
          "ticks": 52000,
          "time": 65,
          "velocity": 0.5590551181102362
        },
        {
          "duration": 0.012500000000002842,
          "durationTicks": 10,
          "midi": 46,
          "name": "A#2",
          "ticks": 52080,
          "time": 65.1,
          "velocity": 0.5590551181102362
        },
        {
          "duration": 0.012500000000002842,
          "durationTicks": 10,
          "midi": 9,
          "name": "A-1",
          "ticks": 52240,
          "time": 65.3,
          "velocity": 0.7874015748031497
        },
        {
          "duration": 0.012500000000002842,
          "durationTicks": 10,
          "midi": 42,
          "name": "F#2",
          "ticks": 52320,
          "time": 65.39999999999999,
          "velocity": 0.7874015748031497
        },
        {
          "duration": 0.012500000000002842,
          "durationTicks": 10,
          "midi": 120,
          "name": "C9",
          "ticks": 52320,
          "time": 65.39999999999999,
          "velocity": 0.8661417322834646
        },
        {
          "duration": 0.012500000000002842,
          "durationTicks": 10,
          "midi": 42,
          "name": "F#2",
          "ticks": 52480,
          "time": 65.6,
          "velocity": 0.5590551181102362
        },
        {
          "duration": 0.012500000000002842,
          "durationTicks": 10,
          "midi": 9,
          "name": "A-1",
          "ticks": 52480,
          "time": 65.6,
          "velocity": 0.7874015748031497
        },
        {
          "duration": 0.012499999999988631,
          "durationTicks": 10,
          "midi": 46,
          "name": "A#2",
          "ticks": 52560,
          "time": 65.7,
          "velocity": 0.5590551181102362
        },
        {
          "duration": 0.012500000000002842,
          "durationTicks": 10,
          "midi": 9,
          "name": "A-1",
          "ticks": 52720,
          "time": 65.89999999999999,
          "velocity": 0.7874015748031497
        },
        {
          "duration": 0.012499999999988631,
          "durationTicks": 10,
          "midi": 42,
          "name": "F#2",
          "ticks": 52800,
          "time": 66,
          "velocity": 0.7874015748031497
        },
        {
          "duration": 0.012500000000017053,
          "durationTicks": 10,
          "midi": 9,
          "name": "A-1",
          "ticks": 52960,
          "time": 66.19999999999999,
          "velocity": 0.7874015748031497
        },
        {
          "duration": 0.012500000000017053,
          "durationTicks": 10,
          "midi": 42,
          "name": "F#2",
          "ticks": 52960,
          "time": 66.19999999999999,
          "velocity": 0.5590551181102362
        },
        {
          "duration": 0.012500000000002842,
          "durationTicks": 10,
          "midi": 42,
          "name": "F#2",
          "ticks": 53040,
          "time": 66.3,
          "velocity": 0.7874015748031497
        },
        {
          "duration": 0.012500000000002842,
          "durationTicks": 10,
          "midi": 9,
          "name": "A-1",
          "ticks": 53040,
          "time": 66.3,
          "velocity": 0.7874015748031497
        },
        {
          "duration": 0.012499999999988631,
          "durationTicks": 10,
          "midi": 42,
          "name": "F#2",
          "ticks": 53120,
          "time": 66.4,
          "velocity": 0.5039370078740157
        },
        {
          "duration": 0.012500000000002842,
          "durationTicks": 10,
          "midi": 42,
          "name": "F#2",
          "ticks": 53200,
          "time": 66.5,
          "velocity": 0.4015748031496063
        },
        {
          "duration": 0.012500000000002842,
          "durationTicks": 10,
          "midi": 120,
          "name": "C9",
          "ticks": 53280,
          "time": 66.6,
          "velocity": 0.8661417322834646
        },
        {
          "duration": 0.012500000000002842,
          "durationTicks": 10,
          "midi": 42,
          "name": "F#2",
          "ticks": 53280,
          "time": 66.6,
          "velocity": 0.7874015748031497
        },
        {
          "duration": 0.012500000000002842,
          "durationTicks": 10,
          "midi": 9,
          "name": "A-1",
          "ticks": 53440,
          "time": 66.8,
          "velocity": 0.7874015748031497
        },
        {
          "duration": 0.012500000000002842,
          "durationTicks": 10,
          "midi": 42,
          "name": "F#2",
          "ticks": 53440,
          "time": 66.8,
          "velocity": 0.5590551181102362
        },
        {
          "duration": 0.012500000000002842,
          "durationTicks": 10,
          "midi": 46,
          "name": "A#2",
          "ticks": 53520,
          "time": 66.89999999999999,
          "velocity": 0.5590551181102362
        },
        {
          "duration": 0.012500000000002842,
          "durationTicks": 10,
          "midi": 9,
          "name": "A-1",
          "ticks": 53680,
          "time": 67.1,
          "velocity": 0.7874015748031497
        },
        {
          "duration": 0.012499999999988631,
          "durationTicks": 10,
          "midi": 42,
          "name": "F#2",
          "ticks": 53760,
          "time": 67.2,
          "velocity": 0.7874015748031497
        },
        {
          "duration": 0.012499999999988631,
          "durationTicks": 10,
          "midi": 9,
          "name": "A-1",
          "ticks": 53760,
          "time": 67.2,
          "velocity": 0.7874015748031497
        },
        {
          "duration": 0.012500000000002842,
          "durationTicks": 10,
          "midi": 42,
          "name": "F#2",
          "ticks": 53920,
          "time": 67.39999999999999,
          "velocity": 0.5590551181102362
        },
        {
          "duration": 0.012499999999988631,
          "durationTicks": 10,
          "midi": 46,
          "name": "A#2",
          "ticks": 54000,
          "time": 67.5,
          "velocity": 0.5590551181102362
        },
        {
          "duration": 0.012500000000017053,
          "durationTicks": 10,
          "midi": 9,
          "name": "A-1",
          "ticks": 54160,
          "time": 67.69999999999999,
          "velocity": 0.7874015748031497
        },
        {
          "duration": 0.012500000000002842,
          "durationTicks": 10,
          "midi": 42,
          "name": "F#2",
          "ticks": 54240,
          "time": 67.8,
          "velocity": 0.7874015748031497
        },
        {
          "duration": 0.012500000000002842,
          "durationTicks": 10,
          "midi": 120,
          "name": "C9",
          "ticks": 54240,
          "time": 67.8,
          "velocity": 0.8661417322834646
        },
        {
          "duration": 0.012500000000002842,
          "durationTicks": 10,
          "midi": 42,
          "name": "F#2",
          "ticks": 54400,
          "time": 68,
          "velocity": 0.5590551181102362
        },
        {
          "duration": 0.012500000000002842,
          "durationTicks": 10,
          "midi": 9,
          "name": "A-1",
          "ticks": 54400,
          "time": 68,
          "velocity": 0.7874015748031497
        },
        {
          "duration": 0.012500000000002842,
          "durationTicks": 10,
          "midi": 46,
          "name": "A#2",
          "ticks": 54480,
          "time": 68.1,
          "velocity": 0.5590551181102362
        },
        {
          "duration": 0.012500000000002842,
          "durationTicks": 10,
          "midi": 9,
          "name": "A-1",
          "ticks": 54640,
          "time": 68.3,
          "velocity": 0.7874015748031497
        },
        {
          "duration": 0.012500000000002842,
          "durationTicks": 10,
          "midi": 42,
          "name": "F#2",
          "ticks": 54720,
          "time": 68.39999999999999,
          "velocity": 0.7874015748031497
        },
        {
          "duration": 0.012500000000002842,
          "durationTicks": 10,
          "midi": 9,
          "name": "A-1",
          "ticks": 54880,
          "time": 68.6,
          "velocity": 0.7874015748031497
        },
        {
          "duration": 0.012500000000002842,
          "durationTicks": 10,
          "midi": 42,
          "name": "F#2",
          "ticks": 54880,
          "time": 68.6,
          "velocity": 0.5590551181102362
        },
        {
          "duration": 0.012499999999988631,
          "durationTicks": 10,
          "midi": 9,
          "name": "A-1",
          "ticks": 54960,
          "time": 68.7,
          "velocity": 0.7874015748031497
        },
        {
          "duration": 0.012499999999988631,
          "durationTicks": 10,
          "midi": 46,
          "name": "A#2",
          "ticks": 54960,
          "time": 68.7,
          "velocity": 0.5590551181102362
        },
        {
          "duration": 0.012499999999988631,
          "durationTicks": 10,
          "midi": 120,
          "name": "C9",
          "ticks": 55200,
          "time": 69,
          "velocity": 0.8661417322834646
        },
        {
          "duration": 0.012499999999988631,
          "durationTicks": 10,
          "midi": 42,
          "name": "F#2",
          "ticks": 55200,
          "time": 69,
          "velocity": 0.7874015748031497
        },
        {
          "duration": 0.012500000000017053,
          "durationTicks": 10,
          "midi": 9,
          "name": "A-1",
          "ticks": 55360,
          "time": 69.19999999999999,
          "velocity": 0.7874015748031497
        },
        {
          "duration": 0.012500000000017053,
          "durationTicks": 10,
          "midi": 42,
          "name": "F#2",
          "ticks": 55360,
          "time": 69.19999999999999,
          "velocity": 0.5590551181102362
        },
        {
          "duration": 0.012500000000002842,
          "durationTicks": 10,
          "midi": 46,
          "name": "A#2",
          "ticks": 55440,
          "time": 69.3,
          "velocity": 0.5590551181102362
        },
        {
          "duration": 0.012500000000002842,
          "durationTicks": 10,
          "midi": 9,
          "name": "A-1",
          "ticks": 55600,
          "time": 69.5,
          "velocity": 0.7874015748031497
        },
        {
          "duration": 0.012500000000002842,
          "durationTicks": 10,
          "midi": 42,
          "name": "F#2",
          "ticks": 55680,
          "time": 69.6,
          "velocity": 0.7874015748031497
        },
        {
          "duration": 0.012500000000002842,
          "durationTicks": 10,
          "midi": 9,
          "name": "A-1",
          "ticks": 55680,
          "time": 69.6,
          "velocity": 0.7874015748031497
        },
        {
          "duration": 0.012500000000002842,
          "durationTicks": 10,
          "midi": 42,
          "name": "F#2",
          "ticks": 55840,
          "time": 69.8,
          "velocity": 0.5590551181102362
        },
        {
          "duration": 0.012500000000002842,
          "durationTicks": 10,
          "midi": 46,
          "name": "A#2",
          "ticks": 55920,
          "time": 69.89999999999999,
          "velocity": 0.5590551181102362
        },
        {
          "duration": 0.012500000000002842,
          "durationTicks": 10,
          "midi": 9,
          "name": "A-1",
          "ticks": 56080,
          "time": 70.1,
          "velocity": 0.7874015748031497
        },
        {
          "duration": 0.012499999999988631,
          "durationTicks": 10,
          "midi": 42,
          "name": "F#2",
          "ticks": 56160,
          "time": 70.2,
          "velocity": 0.7874015748031497
        },
        {
          "duration": 0.012499999999988631,
          "durationTicks": 10,
          "midi": 120,
          "name": "C9",
          "ticks": 56160,
          "time": 70.2,
          "velocity": 0.8661417322834646
        },
        {
          "duration": 0.012500000000002842,
          "durationTicks": 10,
          "midi": 42,
          "name": "F#2",
          "ticks": 56320,
          "time": 70.39999999999999,
          "velocity": 0.5590551181102362
        },
        {
          "duration": 0.012500000000002842,
          "durationTicks": 10,
          "midi": 9,
          "name": "A-1",
          "ticks": 56320,
          "time": 70.39999999999999,
          "velocity": 0.7874015748031497
        },
        {
          "duration": 0.012499999999988631,
          "durationTicks": 10,
          "midi": 46,
          "name": "A#2",
          "ticks": 56400,
          "time": 70.5,
          "velocity": 0.5590551181102362
        },
        {
          "duration": 0.012500000000017053,
          "durationTicks": 10,
          "midi": 9,
          "name": "A-1",
          "ticks": 56560,
          "time": 70.69999999999999,
          "velocity": 0.7874015748031497
        },
        {
          "duration": 0.012500000000002842,
          "durationTicks": 10,
          "midi": 42,
          "name": "F#2",
          "ticks": 56640,
          "time": 70.8,
          "velocity": 0.7874015748031497
        },
        {
          "duration": 0.012500000000002842,
          "durationTicks": 10,
          "midi": 9,
          "name": "A-1",
          "ticks": 56800,
          "time": 71,
          "velocity": 0.7874015748031497
        },
        {
          "duration": 0.012500000000002842,
          "durationTicks": 10,
          "midi": 42,
          "name": "F#2",
          "ticks": 56800,
          "time": 71,
          "velocity": 0.5590551181102362
        },
        {
          "duration": 0.012500000000002842,
          "durationTicks": 10,
          "midi": 42,
          "name": "F#2",
          "ticks": 56880,
          "time": 71.1,
          "velocity": 0.7874015748031497
        },
        {
          "duration": 0.012500000000002842,
          "durationTicks": 10,
          "midi": 9,
          "name": "A-1",
          "ticks": 56880,
          "time": 71.1,
          "velocity": 0.7874015748031497
        },
        {
          "duration": 0.012499999999988631,
          "durationTicks": 10,
          "midi": 42,
          "name": "F#2",
          "ticks": 56960,
          "time": 71.2,
          "velocity": 0.5039370078740157
        },
        {
          "duration": 0.012500000000002842,
          "durationTicks": 10,
          "midi": 42,
          "name": "F#2",
          "ticks": 57040,
          "time": 71.3,
          "velocity": 0.4015748031496063
        },
        {
          "duration": 0.012500000000002842,
          "durationTicks": 10,
          "midi": 120,
          "name": "C9",
          "ticks": 57120,
          "time": 71.39999999999999,
          "velocity": 0.8661417322834646
        },
        {
          "duration": 0.012500000000002842,
          "durationTicks": 10,
          "midi": 42,
          "name": "F#2",
          "ticks": 57120,
          "time": 71.39999999999999,
          "velocity": 0.7874015748031497
        },
        {
          "duration": 0.012500000000002842,
          "durationTicks": 10,
          "midi": 9,
          "name": "A-1",
          "ticks": 57280,
          "time": 71.6,
          "velocity": 0.7874015748031497
        },
        {
          "duration": 0.012500000000002842,
          "durationTicks": 10,
          "midi": 42,
          "name": "F#2",
          "ticks": 57280,
          "time": 71.6,
          "velocity": 0.5590551181102362
        },
        {
          "duration": 0.012499999999988631,
          "durationTicks": 10,
          "midi": 46,
          "name": "A#2",
          "ticks": 57360,
          "time": 71.7,
          "velocity": 0.5590551181102362
        },
        {
          "duration": 0.012500000000002842,
          "durationTicks": 10,
          "midi": 9,
          "name": "A-1",
          "ticks": 57520,
          "time": 71.89999999999999,
          "velocity": 0.7874015748031497
        },
        {
          "duration": 0.012499999999988631,
          "durationTicks": 10,
          "midi": 42,
          "name": "F#2",
          "ticks": 57600,
          "time": 72,
          "velocity": 0.7874015748031497
        },
        {
          "duration": 0.012499999999988631,
          "durationTicks": 10,
          "midi": 49,
          "name": "C#3",
          "ticks": 57600,
          "time": 72,
          "velocity": 0.7874015748031497
        },
        {
          "duration": 0.012499999999988631,
          "durationTicks": 10,
          "midi": 9,
          "name": "A-1",
          "ticks": 57600,
          "time": 72,
          "velocity": 0.7874015748031497
        },
        {
          "duration": 0.012500000000017053,
          "durationTicks": 10,
          "midi": 42,
          "name": "F#2",
          "ticks": 57760,
          "time": 72.19999999999999,
          "velocity": 0.5590551181102362
        },
        {
          "duration": 0.012500000000002842,
          "durationTicks": 10,
          "midi": 46,
          "name": "A#2",
          "ticks": 57840,
          "time": 72.3,
          "velocity": 0.5590551181102362
        },
        {
          "duration": 0.012500000000002842,
          "durationTicks": 10,
          "midi": 9,
          "name": "A-1",
          "ticks": 58000,
          "time": 72.5,
          "velocity": 0.7874015748031497
        },
        {
          "duration": 0.012500000000002842,
          "durationTicks": 10,
          "midi": 42,
          "name": "F#2",
          "ticks": 58080,
          "time": 72.6,
          "velocity": 0.7874015748031497
        },
        {
          "duration": 0.012500000000002842,
          "durationTicks": 10,
          "midi": 120,
          "name": "C9",
          "ticks": 58080,
          "time": 72.6,
          "velocity": 0.8661417322834646
        },
        {
          "duration": 0.012500000000002842,
          "durationTicks": 10,
          "midi": 42,
          "name": "F#2",
          "ticks": 58240,
          "time": 72.8,
          "velocity": 0.5590551181102362
        },
        {
          "duration": 0.012500000000002842,
          "durationTicks": 10,
          "midi": 9,
          "name": "A-1",
          "ticks": 58240,
          "time": 72.8,
          "velocity": 0.7874015748031497
        },
        {
          "duration": 0.012500000000002842,
          "durationTicks": 10,
          "midi": 46,
          "name": "A#2",
          "ticks": 58320,
          "time": 72.89999999999999,
          "velocity": 0.5590551181102362
        },
        {
          "duration": 0.012500000000002842,
          "durationTicks": 10,
          "midi": 9,
          "name": "A-1",
          "ticks": 58480,
          "time": 73.1,
          "velocity": 0.7874015748031497
        },
        {
          "duration": 0.012499999999988631,
          "durationTicks": 10,
          "midi": 42,
          "name": "F#2",
          "ticks": 58560,
          "time": 73.2,
          "velocity": 0.7874015748031497
        },
        {
          "duration": 0.012500000000002842,
          "durationTicks": 10,
          "midi": 9,
          "name": "A-1",
          "ticks": 58720,
          "time": 73.39999999999999,
          "velocity": 0.7874015748031497
        },
        {
          "duration": 0.012500000000002842,
          "durationTicks": 10,
          "midi": 42,
          "name": "F#2",
          "ticks": 58720,
          "time": 73.39999999999999,
          "velocity": 0.5590551181102362
        },
        {
          "duration": 0.012499999999988631,
          "durationTicks": 10,
          "midi": 9,
          "name": "A-1",
          "ticks": 58800,
          "time": 73.5,
          "velocity": 0.7874015748031497
        },
        {
          "duration": 0.012499999999988631,
          "durationTicks": 10,
          "midi": 46,
          "name": "A#2",
          "ticks": 58800,
          "time": 73.5,
          "velocity": 0.5590551181102362
        },
        {
          "duration": 0.012500000000002842,
          "durationTicks": 10,
          "midi": 120,
          "name": "C9",
          "ticks": 59040,
          "time": 73.8,
          "velocity": 0.8661417322834646
        },
        {
          "duration": 0.012500000000002842,
          "durationTicks": 10,
          "midi": 42,
          "name": "F#2",
          "ticks": 59040,
          "time": 73.8,
          "velocity": 0.7874015748031497
        },
        {
          "duration": 0.012500000000002842,
          "durationTicks": 10,
          "midi": 9,
          "name": "A-1",
          "ticks": 59200,
          "time": 74,
          "velocity": 0.7874015748031497
        },
        {
          "duration": 0.012500000000002842,
          "durationTicks": 10,
          "midi": 42,
          "name": "F#2",
          "ticks": 59200,
          "time": 74,
          "velocity": 0.5590551181102362
        },
        {
          "duration": 0.012500000000002842,
          "durationTicks": 10,
          "midi": 46,
          "name": "A#2",
          "ticks": 59280,
          "time": 74.1,
          "velocity": 0.5590551181102362
        },
        {
          "duration": 0.012500000000002842,
          "durationTicks": 10,
          "midi": 9,
          "name": "A-1",
          "ticks": 59440,
          "time": 74.3,
          "velocity": 0.7874015748031497
        },
        {
          "duration": 0.012500000000002842,
          "durationTicks": 10,
          "midi": 42,
          "name": "F#2",
          "ticks": 59520,
          "time": 74.39999999999999,
          "velocity": 0.7874015748031497
        },
        {
          "duration": 0.012500000000002842,
          "durationTicks": 10,
          "midi": 9,
          "name": "A-1",
          "ticks": 59520,
          "time": 74.39999999999999,
          "velocity": 0.7874015748031497
        },
        {
          "duration": 0.012500000000002842,
          "durationTicks": 10,
          "midi": 42,
          "name": "F#2",
          "ticks": 59680,
          "time": 74.6,
          "velocity": 0.5590551181102362
        },
        {
          "duration": 0.012499999999988631,
          "durationTicks": 10,
          "midi": 46,
          "name": "A#2",
          "ticks": 59760,
          "time": 74.7,
          "velocity": 0.5590551181102362
        },
        {
          "duration": 0.012500000000002842,
          "durationTicks": 10,
          "midi": 9,
          "name": "A-1",
          "ticks": 59920,
          "time": 74.89999999999999,
          "velocity": 0.7874015748031497
        },
        {
          "duration": 0.012499999999988631,
          "durationTicks": 10,
          "midi": 42,
          "name": "F#2",
          "ticks": 60000,
          "time": 75,
          "velocity": 0.7874015748031497
        },
        {
          "duration": 0.012499999999988631,
          "durationTicks": 10,
          "midi": 120,
          "name": "C9",
          "ticks": 60000,
          "time": 75,
          "velocity": 0.8661417322834646
        },
        {
          "duration": 0.012500000000017053,
          "durationTicks": 10,
          "midi": 42,
          "name": "F#2",
          "ticks": 60160,
          "time": 75.19999999999999,
          "velocity": 0.5590551181102362
        },
        {
          "duration": 0.012500000000017053,
          "durationTicks": 10,
          "midi": 9,
          "name": "A-1",
          "ticks": 60160,
          "time": 75.19999999999999,
          "velocity": 0.7874015748031497
        },
        {
          "duration": 0.012500000000002842,
          "durationTicks": 10,
          "midi": 46,
          "name": "A#2",
          "ticks": 60240,
          "time": 75.3,
          "velocity": 0.5590551181102362
        },
        {
          "duration": 0.012500000000002842,
          "durationTicks": 10,
          "midi": 9,
          "name": "A-1",
          "ticks": 60400,
          "time": 75.5,
          "velocity": 0.7874015748031497
        },
        {
          "duration": 0.012500000000002842,
          "durationTicks": 10,
          "midi": 42,
          "name": "F#2",
          "ticks": 60480,
          "time": 75.6,
          "velocity": 0.7874015748031497
        },
        {
          "duration": 0.012500000000002842,
          "durationTicks": 10,
          "midi": 9,
          "name": "A-1",
          "ticks": 60640,
          "time": 75.8,
          "velocity": 0.7874015748031497
        },
        {
          "duration": 0.012500000000002842,
          "durationTicks": 10,
          "midi": 42,
          "name": "F#2",
          "ticks": 60640,
          "time": 75.8,
          "velocity": 0.5590551181102362
        },
        {
          "duration": 0.012500000000002842,
          "durationTicks": 10,
          "midi": 42,
          "name": "F#2",
          "ticks": 60720,
          "time": 75.89999999999999,
          "velocity": 0.7874015748031497
        },
        {
          "duration": 0.012500000000002842,
          "durationTicks": 10,
          "midi": 9,
          "name": "A-1",
          "ticks": 60720,
          "time": 75.89999999999999,
          "velocity": 0.7874015748031497
        },
        {
          "duration": 0.012500000000002842,
          "durationTicks": 10,
          "midi": 42,
          "name": "F#2",
          "ticks": 60800,
          "time": 76,
          "velocity": 0.5039370078740157
        },
        {
          "duration": 0.012500000000002842,
          "durationTicks": 10,
          "midi": 42,
          "name": "F#2",
          "ticks": 60880,
          "time": 76.1,
          "velocity": 0.4015748031496063
        },
        {
          "duration": 0.012499999999988631,
          "durationTicks": 10,
          "midi": 120,
          "name": "C9",
          "ticks": 60960,
          "time": 76.2,
          "velocity": 0.8661417322834646
        },
        {
          "duration": 0.012499999999988631,
          "durationTicks": 10,
          "midi": 42,
          "name": "F#2",
          "ticks": 60960,
          "time": 76.2,
          "velocity": 0.7874015748031497
        },
        {
          "duration": 0.012500000000002842,
          "durationTicks": 10,
          "midi": 9,
          "name": "A-1",
          "ticks": 61120,
          "time": 76.39999999999999,
          "velocity": 0.7874015748031497
        },
        {
          "duration": 0.012500000000002842,
          "durationTicks": 10,
          "midi": 42,
          "name": "F#2",
          "ticks": 61120,
          "time": 76.39999999999999,
          "velocity": 0.5590551181102362
        },
        {
          "duration": 0.012499999999988631,
          "durationTicks": 10,
          "midi": 46,
          "name": "A#2",
          "ticks": 61200,
          "time": 76.5,
          "velocity": 0.5590551181102362
        },
        {
          "duration": 0.012500000000017053,
          "durationTicks": 10,
          "midi": 9,
          "name": "A-1",
          "ticks": 61360,
          "time": 76.69999999999999,
          "velocity": 0.7874015748031497
        },
        {
          "duration": 0.012500000000002842,
          "durationTicks": 10,
          "midi": 42,
          "name": "F#2",
          "ticks": 61440,
          "time": 76.8,
          "velocity": 0.7874015748031497
        },
        {
          "duration": 0.012500000000002842,
          "durationTicks": 10,
          "midi": 9,
          "name": "A-1",
          "ticks": 61440,
          "time": 76.8,
          "velocity": 0.7874015748031497
        },
        {
          "duration": 0.012499999999988631,
          "durationTicks": 10,
          "midi": 42,
          "name": "F#2",
          "ticks": 61600,
          "time": 77,
          "velocity": 0.5590551181102362
        },
        {
          "duration": 0.012500000000002842,
          "durationTicks": 10,
          "midi": 46,
          "name": "A#2",
          "ticks": 61680,
          "time": 77.1,
          "velocity": 0.5590551181102362
        },
        {
          "duration": 0.012499999999988631,
          "durationTicks": 10,
          "midi": 9,
          "name": "A-1",
          "ticks": 61840,
          "time": 77.3,
          "velocity": 0.7874015748031497
        },
        {
          "duration": 0.012500000000017053,
          "durationTicks": 10,
          "midi": 42,
          "name": "F#2",
          "ticks": 61920,
          "time": 77.39999999999999,
          "velocity": 0.7874015748031497
        },
        {
          "duration": 0.012500000000017053,
          "durationTicks": 10,
          "midi": 120,
          "name": "C9",
          "ticks": 61920,
          "time": 77.39999999999999,
          "velocity": 0.8661417322834646
        },
        {
          "duration": 0.012499999999988631,
          "durationTicks": 10,
          "midi": 42,
          "name": "F#2",
          "ticks": 62080,
          "time": 77.60000000000001,
          "velocity": 0.5590551181102362
        },
        {
          "duration": 0.012499999999988631,
          "durationTicks": 10,
          "midi": 9,
          "name": "A-1",
          "ticks": 62080,
          "time": 77.60000000000001,
          "velocity": 0.7874015748031497
        },
        {
          "duration": 0.012500000000002842,
          "durationTicks": 10,
          "midi": 46,
          "name": "A#2",
          "ticks": 62160,
          "time": 77.7,
          "velocity": 0.5590551181102362
        },
        {
          "duration": 0.012499999999988631,
          "durationTicks": 10,
          "midi": 9,
          "name": "A-1",
          "ticks": 62320,
          "time": 77.9,
          "velocity": 0.7874015748031497
        },
        {
          "duration": 0.012500000000002842,
          "durationTicks": 10,
          "midi": 42,
          "name": "F#2",
          "ticks": 62400,
          "time": 78,
          "velocity": 0.7874015748031497
        },
        {
          "duration": 0.012499999999988631,
          "durationTicks": 10,
          "midi": 9,
          "name": "A-1",
          "ticks": 62560,
          "time": 78.2,
          "velocity": 0.7874015748031497
        },
        {
          "duration": 0.012499999999988631,
          "durationTicks": 10,
          "midi": 42,
          "name": "F#2",
          "ticks": 62560,
          "time": 78.2,
          "velocity": 0.5590551181102362
        },
        {
          "duration": 0.012500000000002842,
          "durationTicks": 10,
          "midi": 9,
          "name": "A-1",
          "ticks": 62640,
          "time": 78.3,
          "velocity": 0.7874015748031497
        },
        {
          "duration": 0.012500000000002842,
          "durationTicks": 10,
          "midi": 46,
          "name": "A#2",
          "ticks": 62640,
          "time": 78.3,
          "velocity": 0.5590551181102362
        },
        {
          "duration": 0.012500000000002842,
          "durationTicks": 10,
          "midi": 120,
          "name": "C9",
          "ticks": 62880,
          "time": 78.6,
          "velocity": 0.8661417322834646
        },
        {
          "duration": 0.012500000000002842,
          "durationTicks": 10,
          "midi": 42,
          "name": "F#2",
          "ticks": 62880,
          "time": 78.6,
          "velocity": 0.7874015748031497
        },
        {
          "duration": 0.012499999999988631,
          "durationTicks": 10,
          "midi": 9,
          "name": "A-1",
          "ticks": 63040,
          "time": 78.8,
          "velocity": 0.7874015748031497
        },
        {
          "duration": 0.012499999999988631,
          "durationTicks": 10,
          "midi": 42,
          "name": "F#2",
          "ticks": 63040,
          "time": 78.8,
          "velocity": 0.5590551181102362
        },
        {
          "duration": 0.012500000000017053,
          "durationTicks": 10,
          "midi": 46,
          "name": "A#2",
          "ticks": 63120,
          "time": 78.89999999999999,
          "velocity": 0.5590551181102362
        },
        {
          "duration": 0.012499999999988631,
          "durationTicks": 10,
          "midi": 9,
          "name": "A-1",
          "ticks": 63280,
          "time": 79.10000000000001,
          "velocity": 0.7874015748031497
        },
        {
          "duration": 0.012500000000002842,
          "durationTicks": 10,
          "midi": 120,
          "name": "C9",
          "ticks": 63360,
          "time": 79.2,
          "velocity": 0.7874015748031497
        },
        {
          "duration": 0.012500000000002842,
          "durationTicks": 10,
          "midi": 49,
          "name": "C#3",
          "ticks": 63360,
          "time": 79.2,
          "velocity": 0.7874015748031497
        },
        {
          "duration": 0.012500000000002842,
          "durationTicks": 10,
          "midi": 9,
          "name": "A-1",
          "ticks": 63360,
          "time": 79.2,
          "velocity": 0.7874015748031497
        },
        {
          "duration": 0.012499999999988631,
          "durationTicks": 10,
          "midi": 120,
          "name": "C9",
          "ticks": 63760,
          "time": 79.7,
          "velocity": 0.7874015748031497
        },
        {
          "duration": 0.012499999999988631,
          "durationTicks": 10,
          "midi": 49,
          "name": "C#3",
          "ticks": 63760,
          "time": 79.7,
          "velocity": 0.7874015748031497
        },
        {
          "duration": 0.012499999999988631,
          "durationTicks": 10,
          "midi": 9,
          "name": "A-1",
          "ticks": 63760,
          "time": 79.7,
          "velocity": 0.7874015748031497
        },
        {
          "duration": 0.012499999999988631,
          "durationTicks": 10,
          "midi": 9,
          "name": "A-1",
          "ticks": 64960,
          "time": 81.2,
          "velocity": 0.7874015748031497
        },
        {
          "duration": 0.012500000000002842,
          "durationTicks": 10,
          "midi": 120,
          "name": "C9",
          "ticks": 65040,
          "time": 81.3,
          "velocity": 0.8818897637795275
        },
        {
          "duration": 0.012500000000002842,
          "durationTicks": 10,
          "midi": 120,
          "name": "C9",
          "ticks": 65120,
          "time": 81.39999999999999,
          "velocity": 0.8818897637795275
        },
        {
          "duration": 0.012499999999988631,
          "durationTicks": 10,
          "midi": 120,
          "name": "C9",
          "ticks": 65200,
          "time": 81.5,
          "velocity": 0.8818897637795275
        },
        {
          "duration": 0.012500000000002842,
          "durationTicks": 10,
          "midi": 9,
          "name": "A-1",
          "ticks": 65280,
          "time": 81.6,
          "velocity": 0.7874015748031497
        },
        {
          "duration": 0.012500000000002842,
          "durationTicks": 10,
          "midi": 42,
          "name": "F#2",
          "ticks": 65280,
          "time": 81.6,
          "velocity": 0.5511811023622047
        },
        {
          "duration": 0.012499999999988631,
          "durationTicks": 10,
          "midi": 42,
          "name": "F#2",
          "ticks": 65440,
          "time": 81.8,
          "velocity": 0.30708661417322836
        },
        {
          "duration": 0.012500000000017053,
          "durationTicks": 10,
          "midi": 42,
          "name": "F#2",
          "ticks": 65520,
          "time": 81.89999999999999,
          "velocity": 0.3228346456692913
        },
        {
          "duration": 0.012499999999988631,
          "durationTicks": 10,
          "midi": 9,
          "name": "A-1",
          "ticks": 65680,
          "time": 82.10000000000001,
          "velocity": 0.7874015748031497
        },
        {
          "duration": 0.012500000000002842,
          "durationTicks": 10,
          "midi": 120,
          "name": "C9",
          "ticks": 65760,
          "time": 82.2,
          "velocity": 0.7874015748031497
        },
        {
          "duration": 0.012500000000002842,
          "durationTicks": 10,
          "midi": 42,
          "name": "F#2",
          "ticks": 65840,
          "time": 82.3,
          "velocity": 0.6062992125984252
        },
        {
          "duration": 0.012499999999988631,
          "durationTicks": 10,
          "midi": 9,
          "name": "A-1",
          "ticks": 65920,
          "time": 82.4,
          "velocity": 0.7874015748031497
        },
        {
          "duration": 0.012500000000002842,
          "durationTicks": 10,
          "midi": 42,
          "name": "F#2",
          "ticks": 66000,
          "time": 82.5,
          "velocity": 0.6062992125984252
        },
        {
          "duration": 0.012500000000002842,
          "durationTicks": 10,
          "midi": 42,
          "name": "F#2",
          "ticks": 66080,
          "time": 82.6,
          "velocity": 0.6062992125984252
        },
        {
          "duration": 0.012499999999988631,
          "durationTicks": 10,
          "midi": 42,
          "name": "F#2",
          "ticks": 66160,
          "time": 82.7,
          "velocity": 0.6062992125984252
        },
        {
          "duration": 0.012499999999988631,
          "durationTicks": 10,
          "midi": 9,
          "name": "A-1",
          "ticks": 66160,
          "time": 82.7,
          "velocity": 0.7874015748031497
        },
        {
          "duration": 0.012500000000002842,
          "durationTicks": 10,
          "midi": 42,
          "name": "F#2",
          "ticks": 66240,
          "time": 82.8,
          "velocity": 0.6535433070866141
        },
        {
          "duration": 0.012500000000002842,
          "durationTicks": 10,
          "midi": 42,
          "name": "F#2",
          "ticks": 66320,
          "time": 82.89999999999999,
          "velocity": 0.41732283464566927
        },
        {
          "duration": 0.012499999999988631,
          "durationTicks": 10,
          "midi": 42,
          "name": "F#2",
          "ticks": 66400,
          "time": 83,
          "velocity": 0.2992125984251969
        },
        {
          "duration": 0.012499999999988631,
          "durationTicks": 10,
          "midi": 9,
          "name": "A-1",
          "ticks": 66400,
          "time": 83,
          "velocity": 0.7874015748031497
        },
        {
          "duration": 0.012500000000002842,
          "durationTicks": 10,
          "midi": 46,
          "name": "A#2",
          "ticks": 66480,
          "time": 83.1,
          "velocity": 0.5748031496062992
        },
        {
          "duration": 0.012500000000002842,
          "durationTicks": 10,
          "midi": 9,
          "name": "A-1",
          "ticks": 66480,
          "time": 83.1,
          "velocity": 0.7874015748031497
        },
        {
          "duration": 0.012500000000017053,
          "durationTicks": 10,
          "midi": 120,
          "name": "C9",
          "ticks": 66720,
          "time": 83.39999999999999,
          "velocity": 0.7874015748031497
        },
        {
          "duration": 0.012500000000002842,
          "durationTicks": 10,
          "midi": 42,
          "name": "F#2",
          "ticks": 66960,
          "time": 83.7,
          "velocity": 0.5748031496062992
        },
        {
          "duration": 0.012500000000002842,
          "durationTicks": 10,
          "midi": 42,
          "name": "F#2",
          "ticks": 67040,
          "time": 83.8,
          "velocity": 0.4645669291338583
        },
        {
          "duration": 0.012499999999988631,
          "durationTicks": 10,
          "midi": 42,
          "name": "F#2",
          "ticks": 67120,
          "time": 83.9,
          "velocity": 0.30708661417322836
        },
        {
          "duration": 0.012499999999988631,
          "durationTicks": 10,
          "midi": 9,
          "name": "A-1",
          "ticks": 67120,
          "time": 83.9,
          "velocity": 1
        },
        {
          "duration": 0.012499999999988631,
          "durationTicks": 10,
          "midi": 9,
          "name": "A-1",
          "ticks": 68080,
          "time": 85.10000000000001,
          "velocity": 0.7874015748031497
        },
        {
          "duration": 0.012500000000002842,
          "durationTicks": 10,
          "midi": 9,
          "name": "A-1",
          "ticks": 68160,
          "time": 85.2,
          "velocity": 0.7874015748031497
        },
        {
          "duration": 0.012500000000002842,
          "durationTicks": 10,
          "midi": 9,
          "name": "A-1",
          "ticks": 68400,
          "time": 85.5,
          "velocity": 0.8818897637795275
        },
        {
          "duration": 0.012499999999988631,
          "durationTicks": 10,
          "midi": 120,
          "name": "C9",
          "ticks": 68560,
          "time": 85.7,
          "velocity": 0.7874015748031497
        },
        {
          "duration": 0.012499999999988631,
          "durationTicks": 10,
          "midi": 9,
          "name": "A-1",
          "ticks": 68560,
          "time": 85.7,
          "velocity": 0.8818897637795275
        },
        {
          "duration": 0.012499999999988631,
          "durationTicks": 10,
          "midi": 9,
          "name": "A-1",
          "ticks": 68800,
          "time": 86,
          "velocity": 0.8818897637795275
        },
        {
          "duration": 0.012500000000002842,
          "durationTicks": 10,
          "midi": 120,
          "name": "C9",
          "ticks": 68880,
          "time": 86.1,
          "velocity": 0.8818897637795275
        },
        {
          "duration": 0.012500000000017053,
          "durationTicks": 10,
          "midi": 42,
          "name": "F#2",
          "ticks": 69120,
          "time": 86.39999999999999,
          "velocity": 0.5511811023622047
        },
        {
          "duration": 0.012500000000017053,
          "durationTicks": 10,
          "midi": 9,
          "name": "A-1",
          "ticks": 69120,
          "time": 86.39999999999999,
          "velocity": 0.7874015748031497
        },
        {
          "duration": 0.012499999999988631,
          "durationTicks": 10,
          "midi": 42,
          "name": "F#2",
          "ticks": 69280,
          "time": 86.60000000000001,
          "velocity": 0.30708661417322836
        },
        {
          "duration": 0.012500000000002842,
          "durationTicks": 10,
          "midi": 42,
          "name": "F#2",
          "ticks": 69360,
          "time": 86.7,
          "velocity": 0.3228346456692913
        },
        {
          "duration": 0.012499999999988631,
          "durationTicks": 10,
          "midi": 9,
          "name": "A-1",
          "ticks": 69520,
          "time": 86.9,
          "velocity": 0.7874015748031497
        },
        {
          "duration": 0.012500000000002842,
          "durationTicks": 10,
          "midi": 120,
          "name": "C9",
          "ticks": 69600,
          "time": 87,
          "velocity": 0.7874015748031497
        },
        {
          "duration": 0.012500000000002842,
          "durationTicks": 10,
          "midi": 42,
          "name": "F#2",
          "ticks": 69680,
          "time": 87.1,
          "velocity": 0.6062992125984252
        },
        {
          "duration": 0.012499999999988631,
          "durationTicks": 10,
          "midi": 9,
          "name": "A-1",
          "ticks": 69760,
          "time": 87.2,
          "velocity": 0.7874015748031497
        },
        {
          "duration": 0.012500000000002842,
          "durationTicks": 10,
          "midi": 42,
          "name": "F#2",
          "ticks": 69840,
          "time": 87.3,
          "velocity": 0.6062992125984252
        },
        {
          "duration": 0.012500000000002842,
          "durationTicks": 10,
          "midi": 42,
          "name": "F#2",
          "ticks": 69920,
          "time": 87.39999999999999,
          "velocity": 0.6062992125984252
        },
        {
          "duration": 0.012499999999988631,
          "durationTicks": 10,
          "midi": 42,
          "name": "F#2",
          "ticks": 70000,
          "time": 87.5,
          "velocity": 0.6062992125984252
        },
        {
          "duration": 0.012499999999988631,
          "durationTicks": 10,
          "midi": 9,
          "name": "A-1",
          "ticks": 70000,
          "time": 87.5,
          "velocity": 0.7874015748031497
        },
        {
          "duration": 0.012500000000002842,
          "durationTicks": 10,
          "midi": 42,
          "name": "F#2",
          "ticks": 70080,
          "time": 87.6,
          "velocity": 0.6535433070866141
        },
        {
          "duration": 0.012500000000002842,
          "durationTicks": 10,
          "midi": 42,
          "name": "F#2",
          "ticks": 70160,
          "time": 87.69999999999999,
          "velocity": 0.41732283464566927
        },
        {
          "duration": 0.012499999999988631,
          "durationTicks": 10,
          "midi": 42,
          "name": "F#2",
          "ticks": 70240,
          "time": 87.8,
          "velocity": 0.2992125984251969
        },
        {
          "duration": 0.012499999999988631,
          "durationTicks": 10,
          "midi": 9,
          "name": "A-1",
          "ticks": 70240,
          "time": 87.8,
          "velocity": 0.7874015748031497
        },
        {
          "duration": 0.012500000000017053,
          "durationTicks": 10,
          "midi": 46,
          "name": "A#2",
          "ticks": 70320,
          "time": 87.89999999999999,
          "velocity": 0.5748031496062992
        },
        {
          "duration": 0.012500000000017053,
          "durationTicks": 10,
          "midi": 9,
          "name": "A-1",
          "ticks": 70320,
          "time": 87.89999999999999,
          "velocity": 0.7874015748031497
        },
        {
          "duration": 0.012500000000002842,
          "durationTicks": 10,
          "midi": 120,
          "name": "C9",
          "ticks": 70560,
          "time": 88.2,
          "velocity": 0.7874015748031497
        },
        {
          "duration": 0.012500000000002842,
          "durationTicks": 10,
          "midi": 42,
          "name": "F#2",
          "ticks": 70800,
          "time": 88.5,
          "velocity": 0.5748031496062992
        },
        {
          "duration": 0.012500000000002842,
          "durationTicks": 10,
          "midi": 42,
          "name": "F#2",
          "ticks": 70880,
          "time": 88.6,
          "velocity": 0.4645669291338583
        },
        {
          "duration": 0.012499999999988631,
          "durationTicks": 10,
          "midi": 42,
          "name": "F#2",
          "ticks": 70960,
          "time": 88.7,
          "velocity": 0.30708661417322836
        },
        {
          "duration": 0.012499999999988631,
          "durationTicks": 10,
          "midi": 9,
          "name": "A-1",
          "ticks": 70960,
          "time": 88.7,
          "velocity": 1
        },
        {
          "duration": 0.012500000000002842,
          "durationTicks": 10,
          "midi": 9,
          "name": "A-1",
          "ticks": 72000,
          "time": 90,
          "velocity": 0.7874015748031497
        },
        {
          "duration": 0.012499999999988631,
          "durationTicks": 10,
          "midi": 120,
          "name": "C9",
          "ticks": 72160,
          "time": 90.2,
          "velocity": 0.7874015748031497
        },
        {
          "duration": 0.012500000000002842,
          "durationTicks": 10,
          "midi": 120,
          "name": "C9",
          "ticks": 72240,
          "time": 90.3,
          "velocity": 0.7874015748031497
        },
        {
          "duration": 0.012500000000002842,
          "durationTicks": 10,
          "midi": 9,
          "name": "A-1",
          "ticks": 72320,
          "time": 90.39999999999999,
          "velocity": 0.7874015748031497
        },
        {
          "duration": 0.012499999999988631,
          "durationTicks": 10,
          "midi": 120,
          "name": "C9",
          "ticks": 72400,
          "time": 90.5,
          "velocity": 0.7874015748031497
        },
        {
          "duration": 0.012500000000002842,
          "durationTicks": 10,
          "midi": 120,
          "name": "C9",
          "ticks": 72480,
          "time": 90.6,
          "velocity": 0.7874015748031497
        },
        {
          "duration": 0.012500000000002842,
          "durationTicks": 10,
          "midi": 9,
          "name": "A-1",
          "ticks": 72560,
          "time": 90.69999999999999,
          "velocity": 0.7874015748031497
        },
        {
          "duration": 0.012499999999988631,
          "durationTicks": 10,
          "midi": 120,
          "name": "C9",
          "ticks": 72640,
          "time": 90.8,
          "velocity": 0.7874015748031497
        },
        {
          "duration": 0.012500000000002842,
          "durationTicks": 10,
          "midi": 9,
          "name": "A-1",
          "ticks": 72960,
          "time": 91.2,
          "velocity": 0.7874015748031497
        },
        {
          "duration": 0.012500000000002842,
          "durationTicks": 10,
          "midi": 42,
          "name": "F#2",
          "ticks": 72960,
          "time": 91.2,
          "velocity": 0.5511811023622047
        },
        {
          "duration": 0.012499999999988631,
          "durationTicks": 10,
          "midi": 42,
          "name": "F#2",
          "ticks": 73120,
          "time": 91.4,
          "velocity": 0.30708661417322836
        },
        {
          "duration": 0.012500000000002842,
          "durationTicks": 10,
          "midi": 42,
          "name": "F#2",
          "ticks": 73200,
          "time": 91.5,
          "velocity": 0.3228346456692913
        },
        {
          "duration": 0.012499999999988631,
          "durationTicks": 10,
          "midi": 9,
          "name": "A-1",
          "ticks": 73360,
          "time": 91.7,
          "velocity": 0.7874015748031497
        },
        {
          "duration": 0.012500000000002842,
          "durationTicks": 10,
          "midi": 120,
          "name": "C9",
          "ticks": 73440,
          "time": 91.8,
          "velocity": 0.7874015748031497
        },
        {
          "duration": 0.012500000000002842,
          "durationTicks": 10,
          "midi": 42,
          "name": "F#2",
          "ticks": 73520,
          "time": 91.89999999999999,
          "velocity": 0.6062992125984252
        },
        {
          "duration": 0.012499999999988631,
          "durationTicks": 10,
          "midi": 9,
          "name": "A-1",
          "ticks": 73600,
          "time": 92,
          "velocity": 0.7874015748031497
        },
        {
          "duration": 0.012500000000002842,
          "durationTicks": 10,
          "midi": 42,
          "name": "F#2",
          "ticks": 73680,
          "time": 92.1,
          "velocity": 0.6062992125984252
        },
        {
          "duration": 0.012500000000002842,
          "durationTicks": 10,
          "midi": 42,
          "name": "F#2",
          "ticks": 73760,
          "time": 92.19999999999999,
          "velocity": 0.6062992125984252
        },
        {
          "duration": 0.012499999999988631,
          "durationTicks": 10,
          "midi": 42,
          "name": "F#2",
          "ticks": 73840,
          "time": 92.3,
          "velocity": 0.6062992125984252
        },
        {
          "duration": 0.012499999999988631,
          "durationTicks": 10,
          "midi": 9,
          "name": "A-1",
          "ticks": 73840,
          "time": 92.3,
          "velocity": 0.7874015748031497
        },
        {
          "duration": 0.012500000000017053,
          "durationTicks": 10,
          "midi": 42,
          "name": "F#2",
          "ticks": 73920,
          "time": 92.39999999999999,
          "velocity": 0.6535433070866141
        },
        {
          "duration": 0.012500000000017053,
          "durationTicks": 10,
          "midi": 42,
          "name": "F#2",
          "ticks": 74000,
          "time": 92.49999999999999,
          "velocity": 0.41732283464566927
        },
        {
          "duration": 0.012499999999988631,
          "durationTicks": 10,
          "midi": 42,
          "name": "F#2",
          "ticks": 74080,
          "time": 92.60000000000001,
          "velocity": 0.2992125984251969
        },
        {
          "duration": 0.012499999999988631,
          "durationTicks": 10,
          "midi": 9,
          "name": "A-1",
          "ticks": 74080,
          "time": 92.60000000000001,
          "velocity": 0.7874015748031497
        },
        {
          "duration": 0.012500000000002842,
          "durationTicks": 10,
          "midi": 46,
          "name": "A#2",
          "ticks": 74160,
          "time": 92.7,
          "velocity": 0.5748031496062992
        },
        {
          "duration": 0.012500000000002842,
          "durationTicks": 10,
          "midi": 9,
          "name": "A-1",
          "ticks": 74160,
          "time": 92.7,
          "velocity": 0.7874015748031497
        },
        {
          "duration": 0.012500000000002842,
          "durationTicks": 10,
          "midi": 120,
          "name": "C9",
          "ticks": 74400,
          "time": 93,
          "velocity": 0.7874015748031497
        },
        {
          "duration": 0.012500000000002842,
          "durationTicks": 10,
          "midi": 42,
          "name": "F#2",
          "ticks": 74640,
          "time": 93.3,
          "velocity": 0.5748031496062992
        },
        {
          "duration": 0.012500000000002842,
          "durationTicks": 10,
          "midi": 42,
          "name": "F#2",
          "ticks": 74720,
          "time": 93.39999999999999,
          "velocity": 0.4645669291338583
        },
        {
          "duration": 0.012499999999988631,
          "durationTicks": 10,
          "midi": 42,
          "name": "F#2",
          "ticks": 74800,
          "time": 93.5,
          "velocity": 0.30708661417322836
        },
        {
          "duration": 0.012499999999988631,
          "durationTicks": 10,
          "midi": 9,
          "name": "A-1",
          "ticks": 74800,
          "time": 93.5,
          "velocity": 1
        },
        {
          "duration": 0.012499999999988631,
          "durationTicks": 10,
          "midi": 9,
          "name": "A-1",
          "ticks": 75760,
          "time": 94.7,
          "velocity": 0.7874015748031497
        },
        {
          "duration": 0.012500000000002842,
          "durationTicks": 10,
          "midi": 9,
          "name": "A-1",
          "ticks": 75840,
          "time": 94.8,
          "velocity": 0.7874015748031497
        },
        {
          "duration": 0.012500000000002842,
          "durationTicks": 10,
          "midi": 9,
          "name": "A-1",
          "ticks": 76080,
          "time": 95.1,
          "velocity": 0.8818897637795275
        },
        {
          "duration": 0.012499999999988631,
          "durationTicks": 10,
          "midi": 120,
          "name": "C9",
          "ticks": 76240,
          "time": 95.3,
          "velocity": 0.7874015748031497
        },
        {
          "duration": 0.012499999999988631,
          "durationTicks": 10,
          "midi": 9,
          "name": "A-1",
          "ticks": 76240,
          "time": 95.3,
          "velocity": 0.8818897637795275
        },
        {
          "duration": 0.012499999999988631,
          "durationTicks": 10,
          "midi": 9,
          "name": "A-1",
          "ticks": 76480,
          "time": 95.60000000000001,
          "velocity": 0.8818897637795275
        },
        {
          "duration": 0.012500000000002842,
          "durationTicks": 10,
          "midi": 120,
          "name": "C9",
          "ticks": 76560,
          "time": 95.7,
          "velocity": 0.8818897637795275
        },
        {
          "duration": 0.012500000000002842,
          "durationTicks": 10,
          "midi": 42,
          "name": "F#2",
          "ticks": 76800,
          "time": 96,
          "velocity": 0.5511811023622047
        },
        {
          "duration": 0.012500000000002842,
          "durationTicks": 10,
          "midi": 9,
          "name": "A-1",
          "ticks": 76800,
          "time": 96,
          "velocity": 0.7874015748031497
        },
        {
          "duration": 0.012499999999988631,
          "durationTicks": 10,
          "midi": 42,
          "name": "F#2",
          "ticks": 76960,
          "time": 96.2,
          "velocity": 0.30708661417322836
        },
        {
          "duration": 0.012500000000002842,
          "durationTicks": 10,
          "midi": 42,
          "name": "F#2",
          "ticks": 77040,
          "time": 96.3,
          "velocity": 0.3228346456692913
        },
        {
          "duration": 0.012499999999988631,
          "durationTicks": 10,
          "midi": 9,
          "name": "A-1",
          "ticks": 77200,
          "time": 96.5,
          "velocity": 0.7874015748031497
        },
        {
          "duration": 0.012500000000002842,
          "durationTicks": 10,
          "midi": 120,
          "name": "C9",
          "ticks": 77280,
          "time": 96.6,
          "velocity": 0.7874015748031497
        },
        {
          "duration": 0.012500000000002842,
          "durationTicks": 10,
          "midi": 42,
          "name": "F#2",
          "ticks": 77360,
          "time": 96.69999999999999,
          "velocity": 0.6062992125984252
        },
        {
          "duration": 0.012499999999988631,
          "durationTicks": 10,
          "midi": 9,
          "name": "A-1",
          "ticks": 77440,
          "time": 96.8,
          "velocity": 0.7874015748031497
        },
        {
          "duration": 0.012500000000017053,
          "durationTicks": 10,
          "midi": 42,
          "name": "F#2",
          "ticks": 77520,
          "time": 96.89999999999999,
          "velocity": 0.6062992125984252
        },
        {
          "duration": 0.012500000000017053,
          "durationTicks": 10,
          "midi": 42,
          "name": "F#2",
          "ticks": 77600,
          "time": 96.99999999999999,
          "velocity": 0.6062992125984252
        },
        {
          "duration": 0.012499999999988631,
          "durationTicks": 10,
          "midi": 42,
          "name": "F#2",
          "ticks": 77680,
          "time": 97.10000000000001,
          "velocity": 0.6062992125984252
        },
        {
          "duration": 0.012499999999988631,
          "durationTicks": 10,
          "midi": 9,
          "name": "A-1",
          "ticks": 77680,
          "time": 97.10000000000001,
          "velocity": 0.7874015748031497
        },
        {
          "duration": 0.012500000000002842,
          "durationTicks": 10,
          "midi": 42,
          "name": "F#2",
          "ticks": 77760,
          "time": 97.2,
          "velocity": 0.6535433070866141
        },
        {
          "duration": 0.012500000000002842,
          "durationTicks": 10,
          "midi": 42,
          "name": "F#2",
          "ticks": 77840,
          "time": 97.3,
          "velocity": 0.41732283464566927
        },
        {
          "duration": 0.012499999999988631,
          "durationTicks": 10,
          "midi": 42,
          "name": "F#2",
          "ticks": 77920,
          "time": 97.4,
          "velocity": 0.2992125984251969
        },
        {
          "duration": 0.012499999999988631,
          "durationTicks": 10,
          "midi": 9,
          "name": "A-1",
          "ticks": 77920,
          "time": 97.4,
          "velocity": 0.7874015748031497
        },
        {
          "duration": 0.012500000000002842,
          "durationTicks": 10,
          "midi": 46,
          "name": "A#2",
          "ticks": 78000,
          "time": 97.5,
          "velocity": 0.5748031496062992
        },
        {
          "duration": 0.012500000000002842,
          "durationTicks": 10,
          "midi": 9,
          "name": "A-1",
          "ticks": 78000,
          "time": 97.5,
          "velocity": 0.7874015748031497
        },
        {
          "duration": 0.012500000000002842,
          "durationTicks": 10,
          "midi": 120,
          "name": "C9",
          "ticks": 78240,
          "time": 97.8,
          "velocity": 0.7874015748031497
        },
        {
          "duration": 0.012500000000002842,
          "durationTicks": 10,
          "midi": 42,
          "name": "F#2",
          "ticks": 78480,
          "time": 98.1,
          "velocity": 0.5748031496062992
        },
        {
          "duration": 0.012500000000002842,
          "durationTicks": 10,
          "midi": 42,
          "name": "F#2",
          "ticks": 78560,
          "time": 98.19999999999999,
          "velocity": 0.4645669291338583
        },
        {
          "duration": 0.012499999999988631,
          "durationTicks": 10,
          "midi": 42,
          "name": "F#2",
          "ticks": 78640,
          "time": 98.3,
          "velocity": 0.30708661417322836
        },
        {
          "duration": 0.012499999999988631,
          "durationTicks": 10,
          "midi": 9,
          "name": "A-1",
          "ticks": 78640,
          "time": 98.3,
          "velocity": 1
        },
        {
          "duration": 0.012500000000002842,
          "durationTicks": 10,
          "midi": 9,
          "name": "A-1",
          "ticks": 79680,
          "time": 99.6,
          "velocity": 0.7874015748031497
        },
        {
          "duration": 0.012499999999988631,
          "durationTicks": 10,
          "midi": 120,
          "name": "C9",
          "ticks": 79840,
          "time": 99.8,
          "velocity": 0.7874015748031497
        },
        {
          "duration": 0.012500000000017053,
          "durationTicks": 10,
          "midi": 120,
          "name": "C9",
          "ticks": 79920,
          "time": 99.89999999999999,
          "velocity": 0.7874015748031497
        },
        {
          "duration": 0.012500000000017053,
          "durationTicks": 10,
          "midi": 9,
          "name": "A-1",
          "ticks": 80000,
          "time": 99.99999999999999,
          "velocity": 0.7874015748031497
        },
        {
          "duration": 0.012499999999988631,
          "durationTicks": 10,
          "midi": 120,
          "name": "C9",
          "ticks": 80080,
          "time": 100.10000000000001,
          "velocity": 0.7874015748031497
        },
        {
          "duration": 0.012500000000002842,
          "durationTicks": 10,
          "midi": 120,
          "name": "C9",
          "ticks": 80160,
          "time": 100.2,
          "velocity": 0.7874015748031497
        },
        {
          "duration": 0.012500000000002842,
          "durationTicks": 10,
          "midi": 120,
          "name": "C9",
          "ticks": 80240,
          "time": 100.3,
          "velocity": 0.7874015748031497
        },
        {
          "duration": 0.012500000000002842,
          "durationTicks": 10,
          "midi": 9,
          "name": "A-1",
          "ticks": 80240,
          "time": 100.3,
          "velocity": 0.7874015748031497
        },
        {
          "duration": 0.012499999999988631,
          "durationTicks": 10,
          "midi": 120,
          "name": "C9",
          "ticks": 80320,
          "time": 100.4,
          "velocity": 0.7874015748031497
        },
        {
          "duration": 0.012500000000002842,
          "durationTicks": 10,
          "midi": 120,
          "name": "C9",
          "ticks": 80400,
          "time": 100.5,
          "velocity": 0.7874015748031497
        },
        {
          "duration": 0.012500000000002842,
          "durationTicks": 10,
          "midi": 9,
          "name": "A-1",
          "ticks": 80480,
          "time": 100.6,
          "velocity": 0.7874015748031497
        },
        {
          "duration": 0.012500000000002842,
          "durationTicks": 10,
          "midi": 120,
          "name": "C9",
          "ticks": 80480,
          "time": 100.6,
          "velocity": 0.7874015748031497
        },
        {
          "duration": 0.012499999999988631,
          "durationTicks": 10,
          "midi": 120,
          "name": "C9",
          "ticks": 80560,
          "time": 100.7,
          "velocity": 0.7874015748031497
        },
        {
          "duration": 0.012500000000002842,
          "durationTicks": 10,
          "midi": 42,
          "name": "F#2",
          "ticks": 80640,
          "time": 100.8,
          "velocity": 0.7874015748031497
        },
        {
          "duration": 0.012500000000002842,
          "durationTicks": 10,
          "midi": 49,
          "name": "C#3",
          "ticks": 80640,
          "time": 100.8,
          "velocity": 0.7874015748031497
        },
        {
          "duration": 0.012500000000002842,
          "durationTicks": 10,
          "midi": 9,
          "name": "A-1",
          "ticks": 80640,
          "time": 100.8,
          "velocity": 0.7874015748031497
        },
        {
          "duration": 0.012499999999988631,
          "durationTicks": 10,
          "midi": 42,
          "name": "F#2",
          "ticks": 80800,
          "time": 101,
          "velocity": 0.5590551181102362
        },
        {
          "duration": 0.012500000000002842,
          "durationTicks": 10,
          "midi": 46,
          "name": "A#2",
          "ticks": 80880,
          "time": 101.1,
          "velocity": 0.5590551181102362
        },
        {
          "duration": 0.012499999999988631,
          "durationTicks": 10,
          "midi": 9,
          "name": "A-1",
          "ticks": 81040,
          "time": 101.3,
          "velocity": 0.7874015748031497
        },
        {
          "duration": 0.012500000000017053,
          "durationTicks": 10,
          "midi": 42,
          "name": "F#2",
          "ticks": 81120,
          "time": 101.39999999999999,
          "velocity": 0.7874015748031497
        },
        {
          "duration": 0.012500000000017053,
          "durationTicks": 10,
          "midi": 120,
          "name": "C9",
          "ticks": 81120,
          "time": 101.39999999999999,
          "velocity": 0.8661417322834646
        },
        {
          "duration": 0.012499999999988631,
          "durationTicks": 10,
          "midi": 42,
          "name": "F#2",
          "ticks": 81280,
          "time": 101.60000000000001,
          "velocity": 0.5590551181102362
        },
        {
          "duration": 0.012499999999988631,
          "durationTicks": 10,
          "midi": 9,
          "name": "A-1",
          "ticks": 81280,
          "time": 101.60000000000001,
          "velocity": 0.7874015748031497
        },
        {
          "duration": 0.012500000000002842,
          "durationTicks": 10,
          "midi": 46,
          "name": "A#2",
          "ticks": 81360,
          "time": 101.7,
          "velocity": 0.5590551181102362
        },
        {
          "duration": 0.012499999999988631,
          "durationTicks": 10,
          "midi": 9,
          "name": "A-1",
          "ticks": 81520,
          "time": 101.9,
          "velocity": 0.7874015748031497
        },
        {
          "duration": 0.012500000000002842,
          "durationTicks": 10,
          "midi": 42,
          "name": "F#2",
          "ticks": 81600,
          "time": 102,
          "velocity": 0.7874015748031497
        },
        {
          "duration": 0.012499999999988631,
          "durationTicks": 10,
          "midi": 9,
          "name": "A-1",
          "ticks": 81760,
          "time": 102.2,
          "velocity": 0.7874015748031497
        },
        {
          "duration": 0.012499999999988631,
          "durationTicks": 10,
          "midi": 42,
          "name": "F#2",
          "ticks": 81760,
          "time": 102.2,
          "velocity": 0.5590551181102362
        },
        {
          "duration": 0.012500000000002842,
          "durationTicks": 10,
          "midi": 9,
          "name": "A-1",
          "ticks": 81840,
          "time": 102.3,
          "velocity": 0.7874015748031497
        },
        {
          "duration": 0.012500000000002842,
          "durationTicks": 10,
          "midi": 46,
          "name": "A#2",
          "ticks": 81840,
          "time": 102.3,
          "velocity": 0.5590551181102362
        },
        {
          "duration": 0.012500000000002842,
          "durationTicks": 10,
          "midi": 120,
          "name": "C9",
          "ticks": 82080,
          "time": 102.6,
          "velocity": 0.8661417322834646
        },
        {
          "duration": 0.012500000000002842,
          "durationTicks": 10,
          "midi": 42,
          "name": "F#2",
          "ticks": 82080,
          "time": 102.6,
          "velocity": 0.7874015748031497
        },
        {
          "duration": 0.012499999999988631,
          "durationTicks": 10,
          "midi": 9,
          "name": "A-1",
          "ticks": 82240,
          "time": 102.8,
          "velocity": 0.7874015748031497
        },
        {
          "duration": 0.012499999999988631,
          "durationTicks": 10,
          "midi": 42,
          "name": "F#2",
          "ticks": 82240,
          "time": 102.8,
          "velocity": 0.5590551181102362
        },
        {
          "duration": 0.012500000000017053,
          "durationTicks": 10,
          "midi": 46,
          "name": "A#2",
          "ticks": 82320,
          "time": 102.89999999999999,
          "velocity": 0.5590551181102362
        },
        {
          "duration": 0.012499999999988631,
          "durationTicks": 10,
          "midi": 9,
          "name": "A-1",
          "ticks": 82480,
          "time": 103.10000000000001,
          "velocity": 0.7874015748031497
        },
        {
          "duration": 0.012500000000002842,
          "durationTicks": 10,
          "midi": 42,
          "name": "F#2",
          "ticks": 82560,
          "time": 103.2,
          "velocity": 0.7874015748031497
        },
        {
          "duration": 0.012500000000002842,
          "durationTicks": 10,
          "midi": 9,
          "name": "A-1",
          "ticks": 82560,
          "time": 103.2,
          "velocity": 0.7874015748031497
        },
        {
          "duration": 0.012499999999988631,
          "durationTicks": 10,
          "midi": 42,
          "name": "F#2",
          "ticks": 82720,
          "time": 103.4,
          "velocity": 0.5590551181102362
        },
        {
          "duration": 0.012500000000002842,
          "durationTicks": 10,
          "midi": 46,
          "name": "A#2",
          "ticks": 82800,
          "time": 103.5,
          "velocity": 0.5590551181102362
        },
        {
          "duration": 0.012499999999988631,
          "durationTicks": 10,
          "midi": 9,
          "name": "A-1",
          "ticks": 82960,
          "time": 103.7,
          "velocity": 0.7874015748031497
        },
        {
          "duration": 0.012500000000002842,
          "durationTicks": 10,
          "midi": 42,
          "name": "F#2",
          "ticks": 83040,
          "time": 103.8,
          "velocity": 0.7874015748031497
        },
        {
          "duration": 0.012500000000002842,
          "durationTicks": 10,
          "midi": 120,
          "name": "C9",
          "ticks": 83040,
          "time": 103.8,
          "velocity": 0.8661417322834646
        },
        {
          "duration": 0.012499999999988631,
          "durationTicks": 10,
          "midi": 42,
          "name": "F#2",
          "ticks": 83200,
          "time": 104,
          "velocity": 0.5590551181102362
        },
        {
          "duration": 0.012499999999988631,
          "durationTicks": 10,
          "midi": 9,
          "name": "A-1",
          "ticks": 83200,
          "time": 104,
          "velocity": 0.7874015748031497
        },
        {
          "duration": 0.012500000000002842,
          "durationTicks": 10,
          "midi": 46,
          "name": "A#2",
          "ticks": 83280,
          "time": 104.1,
          "velocity": 0.5590551181102362
        },
        {
          "duration": 0.012499999999988631,
          "durationTicks": 10,
          "midi": 9,
          "name": "A-1",
          "ticks": 83440,
          "time": 104.3,
          "velocity": 0.7874015748031497
        },
        {
          "duration": 0.012500000000017053,
          "durationTicks": 10,
          "midi": 42,
          "name": "F#2",
          "ticks": 83520,
          "time": 104.39999999999999,
          "velocity": 0.7874015748031497
        },
        {
          "duration": 0.012499999999988631,
          "durationTicks": 10,
          "midi": 9,
          "name": "A-1",
          "ticks": 83680,
          "time": 104.60000000000001,
          "velocity": 0.7874015748031497
        },
        {
          "duration": 0.012499999999988631,
          "durationTicks": 10,
          "midi": 42,
          "name": "F#2",
          "ticks": 83680,
          "time": 104.60000000000001,
          "velocity": 0.5590551181102362
        },
        {
          "duration": 0.012500000000002842,
          "durationTicks": 10,
          "midi": 42,
          "name": "F#2",
          "ticks": 83760,
          "time": 104.7,
          "velocity": 0.7874015748031497
        },
        {
          "duration": 0.012500000000002842,
          "durationTicks": 10,
          "midi": 9,
          "name": "A-1",
          "ticks": 83760,
          "time": 104.7,
          "velocity": 0.7874015748031497
        },
        {
          "duration": 0.012500000000002842,
          "durationTicks": 10,
          "midi": 42,
          "name": "F#2",
          "ticks": 83840,
          "time": 104.8,
          "velocity": 0.5039370078740157
        },
        {
          "duration": 0.012499999999988631,
          "durationTicks": 10,
          "midi": 42,
          "name": "F#2",
          "ticks": 83920,
          "time": 104.9,
          "velocity": 0.4015748031496063
        },
        {
          "duration": 0.012500000000002842,
          "durationTicks": 10,
          "midi": 120,
          "name": "C9",
          "ticks": 84000,
          "time": 105,
          "velocity": 0.8661417322834646
        },
        {
          "duration": 0.012500000000002842,
          "durationTicks": 10,
          "midi": 42,
          "name": "F#2",
          "ticks": 84000,
          "time": 105,
          "velocity": 0.7874015748031497
        },
        {
          "duration": 0.012499999999988631,
          "durationTicks": 10,
          "midi": 9,
          "name": "A-1",
          "ticks": 84160,
          "time": 105.2,
          "velocity": 0.7874015748031497
        },
        {
          "duration": 0.012499999999988631,
          "durationTicks": 10,
          "midi": 42,
          "name": "F#2",
          "ticks": 84160,
          "time": 105.2,
          "velocity": 0.5590551181102362
        },
        {
          "duration": 0.012500000000002842,
          "durationTicks": 10,
          "midi": 46,
          "name": "A#2",
          "ticks": 84240,
          "time": 105.3,
          "velocity": 0.5590551181102362
        },
        {
          "duration": 0.012499999999988631,
          "durationTicks": 10,
          "midi": 9,
          "name": "A-1",
          "ticks": 84400,
          "time": 105.5,
          "velocity": 0.7874015748031497
        },
        {
          "duration": 0.012500000000002842,
          "durationTicks": 10,
          "midi": 42,
          "name": "F#2",
          "ticks": 84480,
          "time": 105.6,
          "velocity": 0.7874015748031497
        },
        {
          "duration": 0.012500000000002842,
          "durationTicks": 10,
          "midi": 9,
          "name": "A-1",
          "ticks": 84480,
          "time": 105.6,
          "velocity": 0.7874015748031497
        },
        {
          "duration": 0.012499999999988631,
          "durationTicks": 10,
          "midi": 42,
          "name": "F#2",
          "ticks": 84640,
          "time": 105.8,
          "velocity": 0.5590551181102362
        },
        {
          "duration": 0.012500000000017053,
          "durationTicks": 10,
          "midi": 46,
          "name": "A#2",
          "ticks": 84720,
          "time": 105.89999999999999,
          "velocity": 0.5590551181102362
        },
        {
          "duration": 0.012499999999988631,
          "durationTicks": 10,
          "midi": 9,
          "name": "A-1",
          "ticks": 84880,
          "time": 106.10000000000001,
          "velocity": 0.7874015748031497
        },
        {
          "duration": 0.012500000000002842,
          "durationTicks": 10,
          "midi": 42,
          "name": "F#2",
          "ticks": 84960,
          "time": 106.2,
          "velocity": 0.7874015748031497
        },
        {
          "duration": 0.012500000000002842,
          "durationTicks": 10,
          "midi": 120,
          "name": "C9",
          "ticks": 84960,
          "time": 106.2,
          "velocity": 0.8661417322834646
        },
        {
          "duration": 0.012499999999988631,
          "durationTicks": 10,
          "midi": 42,
          "name": "F#2",
          "ticks": 85120,
          "time": 106.4,
          "velocity": 0.5590551181102362
        },
        {
          "duration": 0.012499999999988631,
          "durationTicks": 10,
          "midi": 9,
          "name": "A-1",
          "ticks": 85120,
          "time": 106.4,
          "velocity": 0.7874015748031497
        },
        {
          "duration": 0.012500000000002842,
          "durationTicks": 10,
          "midi": 46,
          "name": "A#2",
          "ticks": 85200,
          "time": 106.5,
          "velocity": 0.5590551181102362
        },
        {
          "duration": 0.012499999999988631,
          "durationTicks": 10,
          "midi": 9,
          "name": "A-1",
          "ticks": 85360,
          "time": 106.7,
          "velocity": 0.7874015748031497
        },
        {
          "duration": 0.012500000000002842,
          "durationTicks": 10,
          "midi": 42,
          "name": "F#2",
          "ticks": 85440,
          "time": 106.8,
          "velocity": 0.7874015748031497
        },
        {
          "duration": 0.012499999999988631,
          "durationTicks": 10,
          "midi": 9,
          "name": "A-1",
          "ticks": 85600,
          "time": 107,
          "velocity": 0.7874015748031497
        },
        {
          "duration": 0.012499999999988631,
          "durationTicks": 10,
          "midi": 42,
          "name": "F#2",
          "ticks": 85600,
          "time": 107,
          "velocity": 0.5590551181102362
        },
        {
          "duration": 0.012500000000002842,
          "durationTicks": 10,
          "midi": 9,
          "name": "A-1",
          "ticks": 85680,
          "time": 107.1,
          "velocity": 0.7874015748031497
        },
        {
          "duration": 0.012500000000002842,
          "durationTicks": 10,
          "midi": 46,
          "name": "A#2",
          "ticks": 85680,
          "time": 107.1,
          "velocity": 0.5590551181102362
        },
        {
          "duration": 0.012500000000017053,
          "durationTicks": 10,
          "midi": 120,
          "name": "C9",
          "ticks": 85920,
          "time": 107.39999999999999,
          "velocity": 0.8661417322834646
        },
        {
          "duration": 0.012500000000017053,
          "durationTicks": 10,
          "midi": 42,
          "name": "F#2",
          "ticks": 85920,
          "time": 107.39999999999999,
          "velocity": 0.7874015748031497
        },
        {
          "duration": 0.012499999999988631,
          "durationTicks": 10,
          "midi": 9,
          "name": "A-1",
          "ticks": 86080,
          "time": 107.60000000000001,
          "velocity": 0.7874015748031497
        },
        {
          "duration": 0.012499999999988631,
          "durationTicks": 10,
          "midi": 42,
          "name": "F#2",
          "ticks": 86080,
          "time": 107.60000000000001,
          "velocity": 0.5590551181102362
        },
        {
          "duration": 0.012500000000002842,
          "durationTicks": 10,
          "midi": 46,
          "name": "A#2",
          "ticks": 86160,
          "time": 107.7,
          "velocity": 0.5590551181102362
        },
        {
          "duration": 0.012499999999988631,
          "durationTicks": 10,
          "midi": 9,
          "name": "A-1",
          "ticks": 86320,
          "time": 107.9,
          "velocity": 0.7874015748031497
        },
        {
          "duration": 0.012500000000002842,
          "durationTicks": 10,
          "midi": 42,
          "name": "F#2",
          "ticks": 86400,
          "time": 108,
          "velocity": 0.7874015748031497
        },
        {
          "duration": 0.012500000000002842,
          "durationTicks": 10,
          "midi": 9,
          "name": "A-1",
          "ticks": 86400,
          "time": 108,
          "velocity": 0.7874015748031497
        },
        {
          "duration": 0.012499999999988631,
          "durationTicks": 10,
          "midi": 42,
          "name": "F#2",
          "ticks": 86560,
          "time": 108.2,
          "velocity": 0.5590551181102362
        },
        {
          "duration": 0.012500000000002842,
          "durationTicks": 10,
          "midi": 46,
          "name": "A#2",
          "ticks": 86640,
          "time": 108.3,
          "velocity": 0.5590551181102362
        },
        {
          "duration": 0.012499999999988631,
          "durationTicks": 10,
          "midi": 9,
          "name": "A-1",
          "ticks": 86800,
          "time": 108.5,
          "velocity": 0.7874015748031497
        },
        {
          "duration": 0.012500000000002842,
          "durationTicks": 10,
          "midi": 42,
          "name": "F#2",
          "ticks": 86880,
          "time": 108.6,
          "velocity": 0.7874015748031497
        },
        {
          "duration": 0.012500000000002842,
          "durationTicks": 10,
          "midi": 120,
          "name": "C9",
          "ticks": 86880,
          "time": 108.6,
          "velocity": 0.8661417322834646
        },
        {
          "duration": 0.012499999999988631,
          "durationTicks": 10,
          "midi": 42,
          "name": "F#2",
          "ticks": 87040,
          "time": 108.8,
          "velocity": 0.5590551181102362
        },
        {
          "duration": 0.012499999999988631,
          "durationTicks": 10,
          "midi": 9,
          "name": "A-1",
          "ticks": 87040,
          "time": 108.8,
          "velocity": 0.7874015748031497
        },
        {
          "duration": 0.012500000000017053,
          "durationTicks": 10,
          "midi": 46,
          "name": "A#2",
          "ticks": 87120,
          "time": 108.89999999999999,
          "velocity": 0.5590551181102362
        },
        {
          "duration": 0.012499999999988631,
          "durationTicks": 10,
          "midi": 9,
          "name": "A-1",
          "ticks": 87280,
          "time": 109.10000000000001,
          "velocity": 0.7874015748031497
        },
        {
          "duration": 0.012500000000002842,
          "durationTicks": 10,
          "midi": 42,
          "name": "F#2",
          "ticks": 87360,
          "time": 109.2,
          "velocity": 0.7874015748031497
        },
        {
          "duration": 0.012499999999988631,
          "durationTicks": 10,
          "midi": 9,
          "name": "A-1",
          "ticks": 87520,
          "time": 109.4,
          "velocity": 0.7874015748031497
        },
        {
          "duration": 0.012499999999988631,
          "durationTicks": 10,
          "midi": 42,
          "name": "F#2",
          "ticks": 87520,
          "time": 109.4,
          "velocity": 0.5590551181102362
        },
        {
          "duration": 0.012500000000002842,
          "durationTicks": 10,
          "midi": 42,
          "name": "F#2",
          "ticks": 87600,
          "time": 109.5,
          "velocity": 0.7874015748031497
        },
        {
          "duration": 0.012500000000002842,
          "durationTicks": 10,
          "midi": 9,
          "name": "A-1",
          "ticks": 87600,
          "time": 109.5,
          "velocity": 0.7874015748031497
        },
        {
          "duration": 0.012500000000002842,
          "durationTicks": 10,
          "midi": 42,
          "name": "F#2",
          "ticks": 87680,
          "time": 109.6,
          "velocity": 0.5039370078740157
        },
        {
          "duration": 0.012499999999988631,
          "durationTicks": 10,
          "midi": 42,
          "name": "F#2",
          "ticks": 87760,
          "time": 109.7,
          "velocity": 0.4015748031496063
        },
        {
          "duration": 0.012500000000002842,
          "durationTicks": 10,
          "midi": 120,
          "name": "C9",
          "ticks": 87840,
          "time": 109.8,
          "velocity": 0.8661417322834646
        },
        {
          "duration": 0.012500000000002842,
          "durationTicks": 10,
          "midi": 42,
          "name": "F#2",
          "ticks": 87840,
          "time": 109.8,
          "velocity": 0.7874015748031497
        },
        {
          "duration": 0.012499999999988631,
          "durationTicks": 10,
          "midi": 9,
          "name": "A-1",
          "ticks": 88000,
          "time": 110,
          "velocity": 0.7874015748031497
        },
        {
          "duration": 0.012499999999988631,
          "durationTicks": 10,
          "midi": 42,
          "name": "F#2",
          "ticks": 88000,
          "time": 110,
          "velocity": 0.5590551181102362
        },
        {
          "duration": 0.012500000000002842,
          "durationTicks": 10,
          "midi": 46,
          "name": "A#2",
          "ticks": 88080,
          "time": 110.1,
          "velocity": 0.5590551181102362
        },
        {
          "duration": 0.012499999999988631,
          "durationTicks": 10,
          "midi": 9,
          "name": "A-1",
          "ticks": 88240,
          "time": 110.3,
          "velocity": 0.7874015748031497
        },
        {
          "duration": 0.012500000000017053,
          "durationTicks": 10,
          "midi": 42,
          "name": "F#2",
          "ticks": 88320,
          "time": 110.39999999999999,
          "velocity": 0.7874015748031497
        },
        {
          "duration": 0.012500000000017053,
          "durationTicks": 10,
          "midi": 49,
          "name": "C#3",
          "ticks": 88320,
          "time": 110.39999999999999,
          "velocity": 0.7874015748031497
        },
        {
          "duration": 0.012500000000017053,
          "durationTicks": 10,
          "midi": 9,
          "name": "A-1",
          "ticks": 88320,
          "time": 110.39999999999999,
          "velocity": 0.7874015748031497
        },
        {
          "duration": 0.012499999999988631,
          "durationTicks": 10,
          "midi": 42,
          "name": "F#2",
          "ticks": 88480,
          "time": 110.60000000000001,
          "velocity": 0.5590551181102362
        },
        {
          "duration": 0.012500000000002842,
          "durationTicks": 10,
          "midi": 46,
          "name": "A#2",
          "ticks": 88560,
          "time": 110.7,
          "velocity": 0.5590551181102362
        },
        {
          "duration": 0.012499999999988631,
          "durationTicks": 10,
          "midi": 9,
          "name": "A-1",
          "ticks": 88720,
          "time": 110.9,
          "velocity": 0.7874015748031497
        },
        {
          "duration": 0.012500000000002842,
          "durationTicks": 10,
          "midi": 42,
          "name": "F#2",
          "ticks": 88800,
          "time": 111,
          "velocity": 0.7874015748031497
        },
        {
          "duration": 0.012500000000002842,
          "durationTicks": 10,
          "midi": 120,
          "name": "C9",
          "ticks": 88800,
          "time": 111,
          "velocity": 0.8661417322834646
        },
        {
          "duration": 0.012499999999988631,
          "durationTicks": 10,
          "midi": 42,
          "name": "F#2",
          "ticks": 88960,
          "time": 111.2,
          "velocity": 0.5590551181102362
        },
        {
          "duration": 0.012499999999988631,
          "durationTicks": 10,
          "midi": 9,
          "name": "A-1",
          "ticks": 88960,
          "time": 111.2,
          "velocity": 0.7874015748031497
        },
        {
          "duration": 0.012500000000002842,
          "durationTicks": 10,
          "midi": 46,
          "name": "A#2",
          "ticks": 89040,
          "time": 111.3,
          "velocity": 0.5590551181102362
        },
        {
          "duration": 0.012499999999988631,
          "durationTicks": 10,
          "midi": 9,
          "name": "A-1",
          "ticks": 89200,
          "time": 111.5,
          "velocity": 0.7874015748031497
        },
        {
          "duration": 0.012500000000002842,
          "durationTicks": 10,
          "midi": 42,
          "name": "F#2",
          "ticks": 89280,
          "time": 111.6,
          "velocity": 0.7874015748031497
        },
        {
          "duration": 0.012499999999988631,
          "durationTicks": 10,
          "midi": 9,
          "name": "A-1",
          "ticks": 89440,
          "time": 111.8,
          "velocity": 0.7874015748031497
        },
        {
          "duration": 0.012499999999988631,
          "durationTicks": 10,
          "midi": 42,
          "name": "F#2",
          "ticks": 89440,
          "time": 111.8,
          "velocity": 0.5590551181102362
        },
        {
          "duration": 0.012500000000017053,
          "durationTicks": 10,
          "midi": 9,
          "name": "A-1",
          "ticks": 89520,
          "time": 111.89999999999999,
          "velocity": 0.7874015748031497
        },
        {
          "duration": 0.012500000000017053,
          "durationTicks": 10,
          "midi": 46,
          "name": "A#2",
          "ticks": 89520,
          "time": 111.89999999999999,
          "velocity": 0.5590551181102362
        },
        {
          "duration": 0.012500000000002842,
          "durationTicks": 10,
          "midi": 120,
          "name": "C9",
          "ticks": 89760,
          "time": 112.2,
          "velocity": 0.8661417322834646
        },
        {
          "duration": 0.012500000000002842,
          "durationTicks": 10,
          "midi": 42,
          "name": "F#2",
          "ticks": 89760,
          "time": 112.2,
          "velocity": 0.7874015748031497
        },
        {
          "duration": 0.012499999999988631,
          "durationTicks": 10,
          "midi": 9,
          "name": "A-1",
          "ticks": 89920,
          "time": 112.4,
          "velocity": 0.7874015748031497
        },
        {
          "duration": 0.012499999999988631,
          "durationTicks": 10,
          "midi": 42,
          "name": "F#2",
          "ticks": 89920,
          "time": 112.4,
          "velocity": 0.5590551181102362
        },
        {
          "duration": 0.012500000000002842,
          "durationTicks": 10,
          "midi": 46,
          "name": "A#2",
          "ticks": 90000,
          "time": 112.5,
          "velocity": 0.5590551181102362
        },
        {
          "duration": 0.012499999999988631,
          "durationTicks": 10,
          "midi": 9,
          "name": "A-1",
          "ticks": 90160,
          "time": 112.7,
          "velocity": 0.7874015748031497
        },
        {
          "duration": 0.012500000000002842,
          "durationTicks": 10,
          "midi": 42,
          "name": "F#2",
          "ticks": 90240,
          "time": 112.8,
          "velocity": 0.7874015748031497
        },
        {
          "duration": 0.012500000000002842,
          "durationTicks": 10,
          "midi": 9,
          "name": "A-1",
          "ticks": 90240,
          "time": 112.8,
          "velocity": 0.7874015748031497
        },
        {
          "duration": 0.012499999999988631,
          "durationTicks": 10,
          "midi": 42,
          "name": "F#2",
          "ticks": 90400,
          "time": 113,
          "velocity": 0.5590551181102362
        },
        {
          "duration": 0.012500000000002842,
          "durationTicks": 10,
          "midi": 46,
          "name": "A#2",
          "ticks": 90480,
          "time": 113.1,
          "velocity": 0.5590551181102362
        },
        {
          "duration": 0.012499999999988631,
          "durationTicks": 10,
          "midi": 9,
          "name": "A-1",
          "ticks": 90640,
          "time": 113.3,
          "velocity": 0.7874015748031497
        },
        {
          "duration": 0.012500000000017053,
          "durationTicks": 10,
          "midi": 42,
          "name": "F#2",
          "ticks": 90720,
          "time": 113.39999999999999,
          "velocity": 0.7874015748031497
        },
        {
          "duration": 0.012500000000017053,
          "durationTicks": 10,
          "midi": 120,
          "name": "C9",
          "ticks": 90720,
          "time": 113.39999999999999,
          "velocity": 0.8661417322834646
        },
        {
          "duration": 0.012499999999988631,
          "durationTicks": 10,
          "midi": 42,
          "name": "F#2",
          "ticks": 90880,
          "time": 113.60000000000001,
          "velocity": 0.5590551181102362
        },
        {
          "duration": 0.012499999999988631,
          "durationTicks": 10,
          "midi": 9,
          "name": "A-1",
          "ticks": 90880,
          "time": 113.60000000000001,
          "velocity": 0.7874015748031497
        },
        {
          "duration": 0.012500000000002842,
          "durationTicks": 10,
          "midi": 46,
          "name": "A#2",
          "ticks": 90960,
          "time": 113.7,
          "velocity": 0.5590551181102362
        },
        {
          "duration": 0.012499999999988631,
          "durationTicks": 10,
          "midi": 9,
          "name": "A-1",
          "ticks": 91120,
          "time": 113.9,
          "velocity": 0.7874015748031497
        },
        {
          "duration": 0.012500000000002842,
          "durationTicks": 10,
          "midi": 42,
          "name": "F#2",
          "ticks": 91200,
          "time": 114,
          "velocity": 0.7874015748031497
        },
        {
          "duration": 0.012499999999988631,
          "durationTicks": 10,
          "midi": 9,
          "name": "A-1",
          "ticks": 91360,
          "time": 114.2,
          "velocity": 0.7874015748031497
        },
        {
          "duration": 0.012499999999988631,
          "durationTicks": 10,
          "midi": 42,
          "name": "F#2",
          "ticks": 91360,
          "time": 114.2,
          "velocity": 0.5590551181102362
        },
        {
          "duration": 0.012500000000002842,
          "durationTicks": 10,
          "midi": 42,
          "name": "F#2",
          "ticks": 91440,
          "time": 114.3,
          "velocity": 0.7874015748031497
        },
        {
          "duration": 0.012500000000002842,
          "durationTicks": 10,
          "midi": 9,
          "name": "A-1",
          "ticks": 91440,
          "time": 114.3,
          "velocity": 0.7874015748031497
        },
        {
          "duration": 0.012500000000002842,
          "durationTicks": 10,
          "midi": 42,
          "name": "F#2",
          "ticks": 91520,
          "time": 114.39999999999999,
          "velocity": 0.5039370078740157
        },
        {
          "duration": 0.012499999999988631,
          "durationTicks": 10,
          "midi": 42,
          "name": "F#2",
          "ticks": 91600,
          "time": 114.5,
          "velocity": 0.4015748031496063
        },
        {
          "duration": 0.012500000000002842,
          "durationTicks": 10,
          "midi": 120,
          "name": "C9",
          "ticks": 91680,
          "time": 114.6,
          "velocity": 0.8661417322834646
        },
        {
          "duration": 0.012500000000002842,
          "durationTicks": 10,
          "midi": 42,
          "name": "F#2",
          "ticks": 91680,
          "time": 114.6,
          "velocity": 0.7874015748031497
        },
        {
          "duration": 0.012499999999988631,
          "durationTicks": 10,
          "midi": 9,
          "name": "A-1",
          "ticks": 91840,
          "time": 114.8,
          "velocity": 0.7874015748031497
        },
        {
          "duration": 0.012499999999988631,
          "durationTicks": 10,
          "midi": 42,
          "name": "F#2",
          "ticks": 91840,
          "time": 114.8,
          "velocity": 0.5590551181102362
        },
        {
          "duration": 0.012500000000017053,
          "durationTicks": 10,
          "midi": 46,
          "name": "A#2",
          "ticks": 91920,
          "time": 114.89999999999999,
          "velocity": 0.5590551181102362
        },
        {
          "duration": 0.012499999999988631,
          "durationTicks": 10,
          "midi": 9,
          "name": "A-1",
          "ticks": 92080,
          "time": 115.10000000000001,
          "velocity": 0.7874015748031497
        }
      ]
    },
    {
      "channel": 0,
      "controlChanges": {
        "0": [
          {
            "number": 0,
            "ticks": 756,
            "time": 0.945,
            "value": 0
          }
        ],
        "32": [
          {
            "number": 32,
            "ticks": 760,
            "time": 0.95,
            "value": 0.023622047244094488
          }
        ]
      },
      "pitchBends": [],
      "instrument": {
        "family": "piano",
        "number": 0,
        "name": "acoustic grand piano"
      },
      "name": "",
      "notes": [],
      "endOfTrackTicks": 792
    },
    {
      "channel": 0,
      "controlChanges": {
        "6": [
          {
            "number": 6,
            "ticks": 792,
            "time": 0.9899999999999999,
            "value": 0.5511811023622047
          }
        ],
        "7": [
          {
            "number": 7,
            "ticks": 768,
            "time": 0.96,
            "value": 0.7874015748031497
          }
        ],
        "10": [
          {
            "number": 10,
            "ticks": 772,
            "time": 0.965,
            "value": 0.5039370078740157
          }
        ],
        "91": [
          {
            "number": 91,
            "ticks": 776,
            "time": 0.97,
            "value": 0.31496062992125984
          }
        ],
        "93": [
          {
            "number": 93,
            "ticks": 780,
            "time": 0.975,
            "value": 0
          }
        ],
        "98": [
          {
            "number": 98,
            "ticks": 788,
            "time": 0.9849999999999999,
            "value": 0.7874015748031497
          }
        ],
        "99": [
          {
            "number": 99,
            "ticks": 784,
            "time": 0.98,
            "value": 0.007874015748031496
          }
        ]
      },
      "pitchBends": [],
      "instrument": {
        "family": "brass",
        "number": 57,
        "name": "trombone"
      },
      "name": "",
      "notes": []
    },
    {
      "channel": 0,
      "controlChanges": {
        "0": [
          {
            "number": 0,
            "ticks": 800,
            "time": 1,
            "value": 0
          }
        ],
        "32": [
          {
            "number": 32,
            "ticks": 804,
            "time": 1.005,
            "value": 0.015748031496062992
          }
        ]
      },
      "pitchBends": [],
      "instrument": {
        "family": "piano",
        "number": 0,
        "name": "acoustic grand piano"
      },
      "name": "",
      "notes": [],
      "endOfTrackTicks": 92152
    },
    {
      "channel": 11,
      "controlChanges": {
        "1": [
          {
            "number": 1,
            "ticks": 19340,
            "time": 24.174999999999997,
            "value": 0
          },
          {
            "number": 1,
            "ticks": 19484,
            "time": 24.355,
            "value": 0.007874015748031496
          },
          {
            "number": 1,
            "ticks": 19514,
            "time": 24.392500000000002,
            "value": 0.06299212598425197
          },
          {
            "number": 1,
            "ticks": 19544,
            "time": 24.43,
            "value": 0.11811023622047244
          },
          {
            "number": 1,
            "ticks": 19574,
            "time": 24.4675,
            "value": 0.1732283464566929
          },
          {
            "number": 1,
            "ticks": 19604,
            "time": 24.505,
            "value": 0.2283464566929134
          },
          {
            "number": 1,
            "ticks": 19634,
            "time": 24.5425,
            "value": 0.28346456692913385
          },
          {
            "number": 1,
            "ticks": 19664,
            "time": 24.580000000000002,
            "value": 0.33858267716535434
          },
          {
            "number": 1,
            "ticks": 19694,
            "time": 24.6175,
            "value": 0.3937007874015748
          },
          {
            "number": 1,
            "ticks": 19724,
            "time": 24.655,
            "value": 0.44881889763779526
          },
          {
            "number": 1,
            "ticks": 19754,
            "time": 24.6925,
            "value": 0.5039370078740157
          },
          {
            "number": 1,
            "ticks": 19784,
            "time": 24.73,
            "value": 0.5590551181102362
          },
          {
            "number": 1,
            "ticks": 19814,
            "time": 24.767500000000002,
            "value": 0.6141732283464567
          },
          {
            "number": 1,
            "ticks": 19844,
            "time": 24.805,
            "value": 0.6692913385826772
          },
          {
            "number": 1,
            "ticks": 19874,
            "time": 24.8425,
            "value": 0.7244094488188977
          },
          {
            "number": 1,
            "ticks": 19904,
            "time": 24.88,
            "value": 0.7795275590551181
          },
          {
            "number": 1,
            "ticks": 19920,
            "time": 24.9,
            "value": 0
          },
          {
            "number": 1,
            "ticks": 20160,
            "time": 25.2,
            "value": 0
          },
          {
            "number": 1,
            "ticks": 20900,
            "time": 26.124999999999996,
            "value": 0
          },
          {
            "number": 1,
            "ticks": 27020,
            "time": 33.775,
            "value": 0
          },
          {
            "number": 1,
            "ticks": 27244,
            "time": 34.055,
            "value": 0.007874015748031496
          },
          {
            "number": 1,
            "ticks": 27274,
            "time": 34.0925,
            "value": 0.07874015748031496
          },
          {
            "number": 1,
            "ticks": 27304,
            "time": 34.129999999999995,
            "value": 0.15748031496062992
          },
          {
            "number": 1,
            "ticks": 27334,
            "time": 34.1675,
            "value": 0.2283464566929134
          },
          {
            "number": 1,
            "ticks": 27364,
            "time": 34.205,
            "value": 0.30708661417322836
          },
          {
            "number": 1,
            "ticks": 27394,
            "time": 34.2425,
            "value": 0.3858267716535433
          },
          {
            "number": 1,
            "ticks": 27424,
            "time": 34.28,
            "value": 0.4566929133858268
          },
          {
            "number": 1,
            "ticks": 27454,
            "time": 34.317499999999995,
            "value": 0.5354330708661418
          },
          {
            "number": 1,
            "ticks": 27484,
            "time": 34.355,
            "value": 0.6141732283464567
          },
          {
            "number": 1,
            "ticks": 27514,
            "time": 34.3925,
            "value": 0.6850393700787402
          },
          {
            "number": 1,
            "ticks": 27544,
            "time": 34.43,
            "value": 0.7637795275590551
          },
          {
            "number": 1,
            "ticks": 27600,
            "time": 34.5,
            "value": 0
          },
          {
            "number": 1,
            "ticks": 28580,
            "time": 35.724999999999994,
            "value": 0
          },
          {
            "number": 1,
            "ticks": 31271,
            "time": 39.08875,
            "value": 0.015748031496062992
          },
          {
            "number": 1,
            "ticks": 31301,
            "time": 39.12624999999999,
            "value": 0.047244094488188976
          },
          {
            "number": 1,
            "ticks": 31331,
            "time": 39.16374999999999,
            "value": 0.08661417322834646
          },
          {
            "number": 1,
            "ticks": 31361,
            "time": 39.201249999999995,
            "value": 0.11811023622047244
          },
          {
            "number": 1,
            "ticks": 31391,
            "time": 39.238749999999996,
            "value": 0.15748031496062992
          },
          {
            "number": 1,
            "ticks": 31421,
            "time": 39.27625,
            "value": 0.1889763779527559
          },
          {
            "number": 1,
            "ticks": 31451,
            "time": 39.31374999999999,
            "value": 0.2283464566929134
          },
          {
            "number": 1,
            "ticks": 31481,
            "time": 39.35124999999999,
            "value": 0.2677165354330709
          },
          {
            "number": 1,
            "ticks": 31511,
            "time": 39.388749999999995,
            "value": 0.2992125984251969
          },
          {
            "number": 1,
            "ticks": 31541,
            "time": 39.426249999999996,
            "value": 0.33858267716535434
          },
          {
            "number": 1,
            "ticks": 31571,
            "time": 39.46375,
            "value": 0.3700787401574803
          },
          {
            "number": 1,
            "ticks": 31601,
            "time": 39.50124999999999,
            "value": 0.4094488188976378
          },
          {
            "number": 1,
            "ticks": 31631,
            "time": 39.53874999999999,
            "value": 0.44881889763779526
          },
          {
            "number": 1,
            "ticks": 31661,
            "time": 39.576249999999995,
            "value": 0.48031496062992124
          },
          {
            "number": 1,
            "ticks": 31691,
            "time": 39.613749999999996,
            "value": 0.5196850393700787
          },
          {
            "number": 1,
            "ticks": 31721,
            "time": 39.65125,
            "value": 0.5511811023622047
          },
          {
            "number": 1,
            "ticks": 31751,
            "time": 39.68874999999999,
            "value": 0.5905511811023622
          },
          {
            "number": 1,
            "ticks": 31781,
            "time": 39.72624999999999,
            "value": 0.6299212598425197
          },
          {
            "number": 1,
            "ticks": 31811,
            "time": 39.763749999999995,
            "value": 0.6614173228346457
          },
          {
            "number": 1,
            "ticks": 31920,
            "time": 39.9,
            "value": 0
          },
          {
            "number": 1,
            "ticks": 32780,
            "time": 40.975,
            "value": 0
          },
          {
            "number": 1,
            "ticks": 50060,
            "time": 62.575,
            "value": 0
          },
          {
            "number": 1,
            "ticks": 50204,
            "time": 62.754999999999995,
            "value": 0.007874015748031496
          },
          {
            "number": 1,
            "ticks": 50234,
            "time": 62.7925,
            "value": 0.06299212598425197
          },
          {
            "number": 1,
            "ticks": 50264,
            "time": 62.83,
            "value": 0.11811023622047244
          },
          {
            "number": 1,
            "ticks": 50294,
            "time": 62.8675,
            "value": 0.1732283464566929
          },
          {
            "number": 1,
            "ticks": 50324,
            "time": 62.905,
            "value": 0.2283464566929134
          },
          {
            "number": 1,
            "ticks": 50354,
            "time": 62.942499999999995,
            "value": 0.28346456692913385
          },
          {
            "number": 1,
            "ticks": 50384,
            "time": 62.98,
            "value": 0.33858267716535434
          },
          {
            "number": 1,
            "ticks": 50414,
            "time": 63.0175,
            "value": 0.3937007874015748
          },
          {
            "number": 1,
            "ticks": 50444,
            "time": 63.055,
            "value": 0.44881889763779526
          },
          {
            "number": 1,
            "ticks": 50474,
            "time": 63.0925,
            "value": 0.5039370078740157
          },
          {
            "number": 1,
            "ticks": 50504,
            "time": 63.129999999999995,
            "value": 0.5590551181102362
          },
          {
            "number": 1,
            "ticks": 50534,
            "time": 63.1675,
            "value": 0.6141732283464567
          },
          {
            "number": 1,
            "ticks": 50564,
            "time": 63.205,
            "value": 0.6692913385826772
          },
          {
            "number": 1,
            "ticks": 50594,
            "time": 63.2425,
            "value": 0.7244094488188977
          },
          {
            "number": 1,
            "ticks": 50624,
            "time": 63.28,
            "value": 0.7795275590551181
          },
          {
            "number": 1,
            "ticks": 50640,
            "time": 63.3,
            "value": 0
          },
          {
            "number": 1,
            "ticks": 50880,
            "time": 63.599999999999994,
            "value": 0
          },
          {
            "number": 1,
            "ticks": 51620,
            "time": 64.525,
            "value": 0
          },
          {
            "number": 1,
            "ticks": 57740,
            "time": 72.175,
            "value": 0
          },
          {
            "number": 1,
            "ticks": 57964,
            "time": 72.455,
            "value": 0.007874015748031496
          },
          {
            "number": 1,
            "ticks": 57994,
            "time": 72.4925,
            "value": 0.07874015748031496
          },
          {
            "number": 1,
            "ticks": 58024,
            "time": 72.53,
            "value": 0.15748031496062992
          },
          {
            "number": 1,
            "ticks": 58054,
            "time": 72.5675,
            "value": 0.2283464566929134
          },
          {
            "number": 1,
            "ticks": 58084,
            "time": 72.605,
            "value": 0.30708661417322836
          },
          {
            "number": 1,
            "ticks": 58114,
            "time": 72.6425,
            "value": 0.3858267716535433
          },
          {
            "number": 1,
            "ticks": 58144,
            "time": 72.68,
            "value": 0.4566929133858268
          },
          {
            "number": 1,
            "ticks": 58174,
            "time": 72.7175,
            "value": 0.5354330708661418
          },
          {
            "number": 1,
            "ticks": 58204,
            "time": 72.755,
            "value": 0.6141732283464567
          },
          {
            "number": 1,
            "ticks": 58234,
            "time": 72.7925,
            "value": 0.6850393700787402
          },
          {
            "number": 1,
            "ticks": 58264,
            "time": 72.83,
            "value": 0.7637795275590551
          },
          {
            "number": 1,
            "ticks": 58320,
            "time": 72.89999999999999,
            "value": 0
          },
          {
            "number": 1,
            "ticks": 59300,
            "time": 74.125,
            "value": 0
          },
          {
            "number": 1,
            "ticks": 61991,
            "time": 77.48875,
            "value": 0.015748031496062992
          },
          {
            "number": 1,
            "ticks": 62021,
            "time": 77.52625,
            "value": 0.047244094488188976
          },
          {
            "number": 1,
            "ticks": 62051,
            "time": 77.56375,
            "value": 0.08661417322834646
          },
          {
            "number": 1,
            "ticks": 62081,
            "time": 77.60125000000001,
            "value": 0.11811023622047244
          },
          {
            "number": 1,
            "ticks": 62111,
            "time": 77.63875,
            "value": 0.15748031496062992
          },
          {
            "number": 1,
            "ticks": 62141,
            "time": 77.67625,
            "value": 0.1889763779527559
          },
          {
            "number": 1,
            "ticks": 62171,
            "time": 77.71375,
            "value": 0.2283464566929134
          },
          {
            "number": 1,
            "ticks": 62201,
            "time": 77.75125,
            "value": 0.2677165354330709
          },
          {
            "number": 1,
            "ticks": 62231,
            "time": 77.78875000000001,
            "value": 0.2992125984251969
          },
          {
            "number": 1,
            "ticks": 62261,
            "time": 77.82625,
            "value": 0.33858267716535434
          },
          {
            "number": 1,
            "ticks": 62291,
            "time": 77.86375,
            "value": 0.3700787401574803
          },
          {
            "number": 1,
            "ticks": 62321,
            "time": 77.90125,
            "value": 0.4094488188976378
          },
          {
            "number": 1,
            "ticks": 62351,
            "time": 77.93875,
            "value": 0.44881889763779526
          },
          {
            "number": 1,
            "ticks": 62381,
            "time": 77.97625000000001,
            "value": 0.48031496062992124
          },
          {
            "number": 1,
            "ticks": 62411,
            "time": 78.01375,
            "value": 0.5196850393700787
          },
          {
            "number": 1,
            "ticks": 62441,
            "time": 78.05125,
            "value": 0.5511811023622047
          },
          {
            "number": 1,
            "ticks": 62471,
            "time": 78.08875,
            "value": 0.5905511811023622
          },
          {
            "number": 1,
            "ticks": 62501,
            "time": 78.12625,
            "value": 0.6299212598425197
          },
          {
            "number": 1,
            "ticks": 62531,
            "time": 78.16375000000001,
            "value": 0.6614173228346457
          },
          {
            "number": 1,
            "ticks": 62640,
            "time": 78.3,
            "value": 0
          },
          {
            "number": 1,
            "ticks": 63500,
            "time": 79.37499999999999,
            "value": 0
          },
          {
            "number": 1,
            "ticks": 80780,
            "time": 100.975,
            "value": 0
          },
          {
            "number": 1,
            "ticks": 80924,
            "time": 101.155,
            "value": 0.007874015748031496
          },
          {
            "number": 1,
            "ticks": 80954,
            "time": 101.1925,
            "value": 0.06299212598425197
          },
          {
            "number": 1,
            "ticks": 80984,
            "time": 101.23,
            "value": 0.11811023622047244
          },
          {
            "number": 1,
            "ticks": 81014,
            "time": 101.2675,
            "value": 0.1732283464566929
          },
          {
            "number": 1,
            "ticks": 81044,
            "time": 101.30499999999999,
            "value": 0.2283464566929134
          },
          {
            "number": 1,
            "ticks": 81074,
            "time": 101.3425,
            "value": 0.28346456692913385
          },
          {
            "number": 1,
            "ticks": 81104,
            "time": 101.38,
            "value": 0.33858267716535434
          },
          {
            "number": 1,
            "ticks": 81134,
            "time": 101.4175,
            "value": 0.3937007874015748
          },
          {
            "number": 1,
            "ticks": 81164,
            "time": 101.455,
            "value": 0.44881889763779526
          },
          {
            "number": 1,
            "ticks": 81194,
            "time": 101.49249999999999,
            "value": 0.5039370078740157
          },
          {
            "number": 1,
            "ticks": 81224,
            "time": 101.53,
            "value": 0.5590551181102362
          },
          {
            "number": 1,
            "ticks": 81254,
            "time": 101.5675,
            "value": 0.6141732283464567
          },
          {
            "number": 1,
            "ticks": 81284,
            "time": 101.605,
            "value": 0.6692913385826772
          },
          {
            "number": 1,
            "ticks": 81314,
            "time": 101.6425,
            "value": 0.7244094488188977
          },
          {
            "number": 1,
            "ticks": 81344,
            "time": 101.67999999999999,
            "value": 0.7795275590551181
          },
          {
            "number": 1,
            "ticks": 81360,
            "time": 101.7,
            "value": 0
          },
          {
            "number": 1,
            "ticks": 81600,
            "time": 102,
            "value": 0
          },
          {
            "number": 1,
            "ticks": 82340,
            "time": 102.925,
            "value": 0
          },
          {
            "number": 1,
            "ticks": 88460,
            "time": 110.57499999999999,
            "value": 0
          },
          {
            "number": 1,
            "ticks": 88684,
            "time": 110.85499999999999,
            "value": 0.007874015748031496
          },
          {
            "number": 1,
            "ticks": 88714,
            "time": 110.8925,
            "value": 0.07874015748031496
          },
          {
            "number": 1,
            "ticks": 88744,
            "time": 110.92999999999999,
            "value": 0.15748031496062992
          },
          {
            "number": 1,
            "ticks": 88774,
            "time": 110.96749999999999,
            "value": 0.2283464566929134
          },
          {
            "number": 1,
            "ticks": 88804,
            "time": 111.005,
            "value": 0.30708661417322836
          },
          {
            "number": 1,
            "ticks": 88834,
            "time": 111.04249999999999,
            "value": 0.3858267716535433
          },
          {
            "number": 1,
            "ticks": 88864,
            "time": 111.08,
            "value": 0.4566929133858268
          },
          {
            "number": 1,
            "ticks": 88894,
            "time": 111.11749999999999,
            "value": 0.5354330708661418
          },
          {
            "number": 1,
            "ticks": 88924,
            "time": 111.15499999999999,
            "value": 0.6141732283464567
          },
          {
            "number": 1,
            "ticks": 88954,
            "time": 111.1925,
            "value": 0.6850393700787402
          },
          {
            "number": 1,
            "ticks": 88984,
            "time": 111.22999999999999,
            "value": 0.7637795275590551
          },
          {
            "number": 1,
            "ticks": 89040,
            "time": 111.3,
            "value": 0
          },
          {
            "number": 1,
            "ticks": 90020,
            "time": 112.52499999999999,
            "value": 0
          }
        ],
        "6": [
          {
            "number": 6,
            "ticks": 836,
            "time": 1.045,
            "value": 0.5590551181102362
          },
          {
            "number": 6,
            "ticks": 848,
            "time": 1.0599999999999998,
            "value": 0.5275590551181102
          },
          {
            "number": 6,
            "ticks": 19200,
            "time": 24,
            "value": 0.09448818897637795
          },
          {
            "number": 6,
            "ticks": 20760,
            "time": 25.95,
            "value": 0.09448818897637795
          },
          {
            "number": 6,
            "ticks": 26880,
            "time": 33.6,
            "value": 0.09448818897637795
          },
          {
            "number": 6,
            "ticks": 28440,
            "time": 35.55,
            "value": 0.09448818897637795
          },
          {
            "number": 6,
            "ticks": 32640,
            "time": 40.8,
            "value": 0.09448818897637795
          },
          {
            "number": 6,
            "ticks": 49920,
            "time": 62.4,
            "value": 0.09448818897637795
          },
          {
            "number": 6,
            "ticks": 51480,
            "time": 64.35,
            "value": 0.09448818897637795
          },
          {
            "number": 6,
            "ticks": 57600,
            "time": 72,
            "value": 0.09448818897637795
          },
          {
            "number": 6,
            "ticks": 59160,
            "time": 73.95,
            "value": 0.09448818897637795
          },
          {
            "number": 6,
            "ticks": 63360,
            "time": 79.2,
            "value": 0.09448818897637795
          },
          {
            "number": 6,
            "ticks": 80640,
            "time": 100.8,
            "value": 0.09448818897637795
          },
          {
            "number": 6,
            "ticks": 82200,
            "time": 102.75,
            "value": 0.09448818897637795
          },
          {
            "number": 6,
            "ticks": 88320,
            "time": 110.39999999999999,
            "value": 0.09448818897637795
          },
          {
            "number": 6,
            "ticks": 89880,
            "time": 112.35,
            "value": 0.09448818897637795
          }
        ],
        "7": [
          {
            "number": 7,
            "ticks": 812,
            "time": 1.015,
            "value": 0.9448818897637795
          }
        ],
        "10": [
          {
            "number": 10,
            "ticks": 816,
            "time": 1.02,
            "value": 0.5039370078740157
          }
        ],
        "91": [
          {
            "number": 91,
            "ticks": 820,
            "time": 1.025,
            "value": 0.7637795275590551
          }
        ],
        "93": [
          {
            "number": 93,
            "ticks": 824,
            "time": 1.0299999999999998,
            "value": 0
          }
        ],
        "98": [
          {
            "number": 98,
            "ticks": 832,
            "time": 1.04,
            "value": 0.25196850393700787
          },
          {
            "number": 98,
            "ticks": 844,
            "time": 1.055,
            "value": 0.25984251968503935
          }
        ],
        "99": [
          {
            "number": 99,
            "ticks": 828,
            "time": 1.035,
            "value": 0.007874015748031496
          },
          {
            "number": 99,
            "ticks": 840,
            "time": 1.05,
            "value": 0.007874015748031496
          }
        ],
        "100": [
          {
            "number": 100,
            "ticks": 19200,
            "time": 24,
            "value": 0
          },
          {
            "number": 100,
            "ticks": 20760,
            "time": 25.95,
            "value": 0
          },
          {
            "number": 100,
            "ticks": 26880,
            "time": 33.6,
            "value": 0
          },
          {
            "number": 100,
            "ticks": 28440,
            "time": 35.55,
            "value": 0
          },
          {
            "number": 100,
            "ticks": 32640,
            "time": 40.8,
            "value": 0
          },
          {
            "number": 100,
            "ticks": 49920,
            "time": 62.4,
            "value": 0
          },
          {
            "number": 100,
            "ticks": 51480,
            "time": 64.35,
            "value": 0
          },
          {
            "number": 100,
            "ticks": 57600,
            "time": 72,
            "value": 0
          },
          {
            "number": 100,
            "ticks": 59160,
            "time": 73.95,
            "value": 0
          },
          {
            "number": 100,
            "ticks": 63360,
            "time": 79.2,
            "value": 0
          },
          {
            "number": 100,
            "ticks": 80640,
            "time": 100.8,
            "value": 0
          },
          {
            "number": 100,
            "ticks": 82200,
            "time": 102.75,
            "value": 0
          },
          {
            "number": 100,
            "ticks": 88320,
            "time": 110.39999999999999,
            "value": 0
          },
          {
            "number": 100,
            "ticks": 89880,
            "time": 112.35,
            "value": 0
          }
        ],
        "101": [
          {
            "number": 101,
            "ticks": 19200,
            "time": 24,
            "value": 0
          },
          {
            "number": 101,
            "ticks": 20760,
            "time": 25.95,
            "value": 0
          },
          {
            "number": 101,
            "ticks": 26880,
            "time": 33.6,
            "value": 0
          },
          {
            "number": 101,
            "ticks": 28440,
            "time": 35.55,
            "value": 0
          },
          {
            "number": 101,
            "ticks": 32640,
            "time": 40.8,
            "value": 0
          },
          {
            "number": 101,
            "ticks": 49920,
            "time": 62.4,
            "value": 0
          },
          {
            "number": 101,
            "ticks": 51480,
            "time": 64.35,
            "value": 0
          },
          {
            "number": 101,
            "ticks": 57600,
            "time": 72,
            "value": 0
          },
          {
            "number": 101,
            "ticks": 59160,
            "time": 73.95,
            "value": 0
          },
          {
            "number": 101,
            "ticks": 63360,
            "time": 79.2,
            "value": 0
          },
          {
            "number": 101,
            "ticks": 80640,
            "time": 100.8,
            "value": 0
          },
          {
            "number": 101,
            "ticks": 82200,
            "time": 102.75,
            "value": 0
          },
          {
            "number": 101,
            "ticks": 88320,
            "time": 110.39999999999999,
            "value": 0
          },
          {
            "number": 101,
            "ticks": 89880,
            "time": 112.35,
            "value": 0
          }
        ]
      },
      "pitchBends": [
        {
          "ticks": 19200,
          "time": 24,
          "value": -0.08544921875
        },
        {
          "ticks": 19260,
          "time": 24.075,
          "value": -0.048828125
        },
        {
          "ticks": 19270,
          "time": 24.087500000000002,
          "value": -0.03662109375
        },
        {
          "ticks": 19280,
          "time": 24.099999999999998,
          "value": -0.0244140625
        },
        {
          "ticks": 19300,
          "time": 24.125,
          "value": -0.01220703125
        },
        {
          "ticks": 19320,
          "time": 24.15,
          "value": 0
        },
        {
          "ticks": 19340,
          "time": 24.174999999999997,
          "value": 0
        },
        {
          "ticks": 19340,
          "time": 24.174999999999997,
          "value": 0
        },
        {
          "ticks": 20019,
          "time": 25.023749999999996,
          "value": 0
        },
        {
          "ticks": 20042,
          "time": 25.052500000000002,
          "value": 0
        },
        {
          "ticks": 20072,
          "time": 25.09,
          "value": -0.01708984375
        },
        {
          "ticks": 20102,
          "time": 25.1275,
          "value": -0.0341796875
        },
        {
          "ticks": 20160,
          "time": 25.2,
          "value": 0
        },
        {
          "ticks": 20760,
          "time": 25.95,
          "value": -0.08544921875
        },
        {
          "ticks": 20820,
          "time": 26.025,
          "value": -0.048828125
        },
        {
          "ticks": 20830,
          "time": 26.0375,
          "value": -0.03662109375
        },
        {
          "ticks": 20840,
          "time": 26.049999999999997,
          "value": -0.0244140625
        },
        {
          "ticks": 20860,
          "time": 26.075,
          "value": -0.01220703125
        },
        {
          "ticks": 20880,
          "time": 26.099999999999998,
          "value": 0
        },
        {
          "ticks": 20900,
          "time": 26.124999999999996,
          "value": 0
        },
        {
          "ticks": 20900,
          "time": 26.124999999999996,
          "value": 0
        },
        {
          "ticks": 22460,
          "time": 28.075,
          "value": 0
        },
        {
          "ticks": 22490,
          "time": 28.112499999999997,
          "value": -0.02001953125
        },
        {
          "ticks": 22520,
          "time": 28.15,
          "value": -0.0401611328125
        },
        {
          "ticks": 22550,
          "time": 28.187499999999996,
          "value": -0.060302734375
        },
        {
          "ticks": 22560,
          "time": 28.2,
          "value": 0
        },
        {
          "ticks": 26880,
          "time": 33.6,
          "value": -0.08544921875
        },
        {
          "ticks": 26940,
          "time": 33.675,
          "value": -0.048828125
        },
        {
          "ticks": 26950,
          "time": 33.6875,
          "value": -0.03662109375
        },
        {
          "ticks": 26960,
          "time": 33.699999999999996,
          "value": -0.0244140625
        },
        {
          "ticks": 26980,
          "time": 33.725,
          "value": -0.01220703125
        },
        {
          "ticks": 27000,
          "time": 33.75,
          "value": 0
        },
        {
          "ticks": 27020,
          "time": 33.775,
          "value": 0
        },
        {
          "ticks": 27020,
          "time": 33.775,
          "value": 0
        },
        {
          "ticks": 27740,
          "time": 34.675,
          "value": 0
        },
        {
          "ticks": 27770,
          "time": 34.7125,
          "value": -0.042724609375
        },
        {
          "ticks": 27800,
          "time": 34.75,
          "value": -0.0855712890625
        },
        {
          "ticks": 27830,
          "time": 34.787499999999994,
          "value": -0.1282958984375
        },
        {
          "ticks": 27840,
          "time": 34.8,
          "value": 0
        },
        {
          "ticks": 28440,
          "time": 35.55,
          "value": -0.08544921875
        },
        {
          "ticks": 28500,
          "time": 35.625,
          "value": -0.048828125
        },
        {
          "ticks": 28510,
          "time": 35.6375,
          "value": -0.03662109375
        },
        {
          "ticks": 28520,
          "time": 35.65,
          "value": -0.0244140625
        },
        {
          "ticks": 28540,
          "time": 35.675,
          "value": -0.01220703125
        },
        {
          "ticks": 28560,
          "time": 35.699999999999996,
          "value": 0
        },
        {
          "ticks": 28580,
          "time": 35.724999999999994,
          "value": 0
        },
        {
          "ticks": 28580,
          "time": 35.724999999999994,
          "value": 0
        },
        {
          "ticks": 31911,
          "time": 39.88875,
          "value": 0
        },
        {
          "ticks": 31941,
          "time": 39.92625,
          "value": 0
        },
        {
          "ticks": 31971,
          "time": 39.96375,
          "value": 0
        },
        {
          "ticks": 32001,
          "time": 40.00125,
          "value": 0
        },
        {
          "ticks": 32031,
          "time": 40.03875,
          "value": 0
        },
        {
          "ticks": 32061,
          "time": 40.07625,
          "value": 0
        },
        {
          "ticks": 32062,
          "time": 40.0775,
          "value": 0.016845703125
        },
        {
          "ticks": 32092,
          "time": 40.115,
          "value": -0.025390625
        },
        {
          "ticks": 32122,
          "time": 40.152499999999996,
          "value": -0.0677490234375
        },
        {
          "ticks": 32160,
          "time": 40.199999999999996,
          "value": 0
        },
        {
          "ticks": 32640,
          "time": 40.8,
          "value": -0.08544921875
        },
        {
          "ticks": 32700,
          "time": 40.875,
          "value": -0.048828125
        },
        {
          "ticks": 32710,
          "time": 40.887499999999996,
          "value": -0.03662109375
        },
        {
          "ticks": 32720,
          "time": 40.9,
          "value": -0.0244140625
        },
        {
          "ticks": 32740,
          "time": 40.925,
          "value": -0.01220703125
        },
        {
          "ticks": 32760,
          "time": 40.949999999999996,
          "value": 0
        },
        {
          "ticks": 32780,
          "time": 40.975,
          "value": 0
        },
        {
          "ticks": 32780,
          "time": 40.975,
          "value": 0
        },
        {
          "ticks": 49920,
          "time": 62.4,
          "value": -0.08544921875
        },
        {
          "ticks": 49980,
          "time": 62.474999999999994,
          "value": -0.048828125
        },
        {
          "ticks": 49990,
          "time": 62.4875,
          "value": -0.03662109375
        },
        {
          "ticks": 50000,
          "time": 62.5,
          "value": -0.0244140625
        },
        {
          "ticks": 50020,
          "time": 62.52499999999999,
          "value": -0.01220703125
        },
        {
          "ticks": 50040,
          "time": 62.55,
          "value": 0
        },
        {
          "ticks": 50060,
          "time": 62.575,
          "value": 0
        },
        {
          "ticks": 50060,
          "time": 62.575,
          "value": 0
        },
        {
          "ticks": 50739,
          "time": 63.42375,
          "value": 0
        },
        {
          "ticks": 50762,
          "time": 63.45249999999999,
          "value": 0
        },
        {
          "ticks": 50792,
          "time": 63.489999999999995,
          "value": -0.01708984375
        },
        {
          "ticks": 50822,
          "time": 63.527499999999996,
          "value": -0.0341796875
        },
        {
          "ticks": 50880,
          "time": 63.599999999999994,
          "value": 0
        },
        {
          "ticks": 51480,
          "time": 64.35,
          "value": -0.08544921875
        },
        {
          "ticks": 51540,
          "time": 64.425,
          "value": -0.048828125
        },
        {
          "ticks": 51550,
          "time": 64.4375,
          "value": -0.03662109375
        },
        {
          "ticks": 51560,
          "time": 64.45,
          "value": -0.0244140625
        },
        {
          "ticks": 51580,
          "time": 64.475,
          "value": -0.01220703125
        },
        {
          "ticks": 51600,
          "time": 64.5,
          "value": 0
        },
        {
          "ticks": 51620,
          "time": 64.525,
          "value": 0
        },
        {
          "ticks": 51620,
          "time": 64.525,
          "value": 0
        },
        {
          "ticks": 53180,
          "time": 66.475,
          "value": 0
        },
        {
          "ticks": 53210,
          "time": 66.5125,
          "value": -0.02001953125
        },
        {
          "ticks": 53240,
          "time": 66.55,
          "value": -0.0401611328125
        },
        {
          "ticks": 53270,
          "time": 66.5875,
          "value": -0.060302734375
        },
        {
          "ticks": 53280,
          "time": 66.6,
          "value": 0
        },
        {
          "ticks": 57600,
          "time": 72,
          "value": -0.08544921875
        },
        {
          "ticks": 57660,
          "time": 72.075,
          "value": -0.048828125
        },
        {
          "ticks": 57670,
          "time": 72.08749999999999,
          "value": -0.03662109375
        },
        {
          "ticks": 57680,
          "time": 72.1,
          "value": -0.0244140625
        },
        {
          "ticks": 57700,
          "time": 72.125,
          "value": -0.01220703125
        },
        {
          "ticks": 57720,
          "time": 72.14999999999999,
          "value": 0
        },
        {
          "ticks": 57740,
          "time": 72.175,
          "value": 0
        },
        {
          "ticks": 57740,
          "time": 72.175,
          "value": 0
        },
        {
          "ticks": 58460,
          "time": 73.075,
          "value": 0
        },
        {
          "ticks": 58490,
          "time": 73.1125,
          "value": -0.042724609375
        },
        {
          "ticks": 58520,
          "time": 73.15,
          "value": -0.0855712890625
        },
        {
          "ticks": 58550,
          "time": 73.1875,
          "value": -0.1282958984375
        },
        {
          "ticks": 58560,
          "time": 73.2,
          "value": 0
        },
        {
          "ticks": 59160,
          "time": 73.95,
          "value": -0.08544921875
        },
        {
          "ticks": 59220,
          "time": 74.02499999999999,
          "value": -0.048828125
        },
        {
          "ticks": 59230,
          "time": 74.0375,
          "value": -0.03662109375
        },
        {
          "ticks": 59240,
          "time": 74.05,
          "value": -0.0244140625
        },
        {
          "ticks": 59260,
          "time": 74.07499999999999,
          "value": -0.01220703125
        },
        {
          "ticks": 59280,
          "time": 74.1,
          "value": 0
        },
        {
          "ticks": 59300,
          "time": 74.125,
          "value": 0
        },
        {
          "ticks": 59300,
          "time": 74.125,
          "value": 0
        },
        {
          "ticks": 62631,
          "time": 78.28875,
          "value": 0
        },
        {
          "ticks": 62661,
          "time": 78.32624999999999,
          "value": 0
        },
        {
          "ticks": 62691,
          "time": 78.36375,
          "value": 0
        },
        {
          "ticks": 62721,
          "time": 78.40124999999999,
          "value": 0
        },
        {
          "ticks": 62751,
          "time": 78.43874999999998,
          "value": 0
        },
        {
          "ticks": 62781,
          "time": 78.47625,
          "value": 0
        },
        {
          "ticks": 62782,
          "time": 78.47749999999999,
          "value": 0.016845703125
        },
        {
          "ticks": 62812,
          "time": 78.51499999999999,
          "value": -0.025390625
        },
        {
          "ticks": 62842,
          "time": 78.5525,
          "value": -0.0677490234375
        },
        {
          "ticks": 62880,
          "time": 78.6,
          "value": 0
        },
        {
          "ticks": 63360,
          "time": 79.2,
          "value": -0.08544921875
        },
        {
          "ticks": 63420,
          "time": 79.27499999999999,
          "value": -0.048828125
        },
        {
          "ticks": 63430,
          "time": 79.28750000000001,
          "value": -0.03662109375
        },
        {
          "ticks": 63440,
          "time": 79.3,
          "value": -0.0244140625
        },
        {
          "ticks": 63460,
          "time": 79.325,
          "value": -0.01220703125
        },
        {
          "ticks": 63480,
          "time": 79.35,
          "value": 0
        },
        {
          "ticks": 63500,
          "time": 79.37499999999999,
          "value": 0
        },
        {
          "ticks": 63500,
          "time": 79.37499999999999,
          "value": 0
        },
        {
          "ticks": 80640,
          "time": 100.8,
          "value": -0.08544921875
        },
        {
          "ticks": 80700,
          "time": 100.875,
          "value": -0.048828125
        },
        {
          "ticks": 80710,
          "time": 100.8875,
          "value": -0.03662109375
        },
        {
          "ticks": 80720,
          "time": 100.89999999999999,
          "value": -0.0244140625
        },
        {
          "ticks": 80740,
          "time": 100.925,
          "value": -0.01220703125
        },
        {
          "ticks": 80760,
          "time": 100.95,
          "value": 0
        },
        {
          "ticks": 80780,
          "time": 100.975,
          "value": 0
        },
        {
          "ticks": 80780,
          "time": 100.975,
          "value": 0
        },
        {
          "ticks": 81459,
          "time": 101.82375,
          "value": 0
        },
        {
          "ticks": 81482,
          "time": 101.85249999999999,
          "value": 0
        },
        {
          "ticks": 81512,
          "time": 101.89,
          "value": -0.01708984375
        },
        {
          "ticks": 81542,
          "time": 101.9275,
          "value": -0.0341796875
        },
        {
          "ticks": 81600,
          "time": 102,
          "value": 0
        },
        {
          "ticks": 82200,
          "time": 102.75,
          "value": -0.08544921875
        },
        {
          "ticks": 82260,
          "time": 102.825,
          "value": -0.048828125
        },
        {
          "ticks": 82270,
          "time": 102.8375,
          "value": -0.03662109375
        },
        {
          "ticks": 82280,
          "time": 102.85,
          "value": -0.0244140625
        },
        {
          "ticks": 82300,
          "time": 102.875,
          "value": -0.01220703125
        },
        {
          "ticks": 82320,
          "time": 102.89999999999999,
          "value": 0
        },
        {
          "ticks": 82340,
          "time": 102.925,
          "value": 0
        },
        {
          "ticks": 82340,
          "time": 102.925,
          "value": 0
        },
        {
          "ticks": 83900,
          "time": 104.87499999999999,
          "value": 0
        },
        {
          "ticks": 83930,
          "time": 104.9125,
          "value": -0.02001953125
        },
        {
          "ticks": 83960,
          "time": 104.94999999999999,
          "value": -0.0401611328125
        },
        {
          "ticks": 83990,
          "time": 104.9875,
          "value": -0.060302734375
        },
        {
          "ticks": 84000,
          "time": 105,
          "value": 0
        },
        {
          "ticks": 88320,
          "time": 110.39999999999999,
          "value": -0.08544921875
        },
        {
          "ticks": 88380,
          "time": 110.475,
          "value": -0.048828125
        },
        {
          "ticks": 88390,
          "time": 110.4875,
          "value": -0.03662109375
        },
        {
          "ticks": 88400,
          "time": 110.49999999999999,
          "value": -0.0244140625
        },
        {
          "ticks": 88420,
          "time": 110.525,
          "value": -0.01220703125
        },
        {
          "ticks": 88440,
          "time": 110.55,
          "value": 0
        },
        {
          "ticks": 88460,
          "time": 110.57499999999999,
          "value": 0
        },
        {
          "ticks": 88460,
          "time": 110.57499999999999,
          "value": 0
        },
        {
          "ticks": 89180,
          "time": 111.475,
          "value": 0
        },
        {
          "ticks": 89210,
          "time": 111.51249999999999,
          "value": -0.042724609375
        },
        {
          "ticks": 89240,
          "time": 111.55,
          "value": -0.0855712890625
        },
        {
          "ticks": 89270,
          "time": 111.58749999999999,
          "value": -0.1282958984375
        },
        {
          "ticks": 89280,
          "time": 111.6,
          "value": 0
        },
        {
          "ticks": 89880,
          "time": 112.35,
          "value": -0.08544921875
        },
        {
          "ticks": 89940,
          "time": 112.425,
          "value": -0.048828125
        },
        {
          "ticks": 89950,
          "time": 112.4375,
          "value": -0.03662109375
        },
        {
          "ticks": 89960,
          "time": 112.44999999999999,
          "value": -0.0244140625
        },
        {
          "ticks": 89980,
          "time": 112.47500000000001,
          "value": -0.01220703125
        },
        {
          "ticks": 90000,
          "time": 112.5,
          "value": 0
        },
        {
          "ticks": 90020,
          "time": 112.52499999999999,
          "value": 0
        },
        {
          "ticks": 90020,
          "time": 112.52499999999999,
          "value": 0
        }
      ],
      "instrument": {
        "family": "reed",
        "number": 65,
        "name": "alto sax"
      },
      "name": "",
      "notes": [
        {
          "duration": 1.1999999999999993,
          "durationTicks": 960,
          "midi": 76,
          "name": "E5",
          "ticks": 19200,
          "time": 24,
          "velocity": 0.8346456692913385
        },
        {
          "duration": 0.13500000000000156,
          "durationTicks": 108,
          "midi": 69,
          "name": "A4",
          "ticks": 20400,
          "time": 25.5,
          "velocity": 0.7874015748031497
        },
        {
          "duration": 0.134999999999998,
          "durationTicks": 108,
          "midi": 72,
          "name": "C5",
          "ticks": 20640,
          "time": 25.8,
          "velocity": 0.7874015748031497
        },
        {
          "duration": 0.28249999999999886,
          "durationTicks": 226,
          "midi": 76,
          "name": "E5",
          "ticks": 20760,
          "time": 25.95,
          "velocity": 0.7874015748031497
        },
        {
          "duration": 0.2700000000000031,
          "durationTicks": 216,
          "midi": 74,
          "name": "D5",
          "ticks": 21120,
          "time": 26.4,
          "velocity": 0.7874015748031497
        },
        {
          "duration": 0.13500000000000156,
          "durationTicks": 108,
          "midi": 79,
          "name": "G5",
          "ticks": 21480,
          "time": 26.849999999999998,
          "velocity": 0.7874015748031497
        },
        {
          "duration": 0.8999999999999986,
          "durationTicks": 720,
          "midi": 67,
          "name": "G4",
          "ticks": 21840,
          "time": 27.3,
          "velocity": 0.8346456692913385
        },
        {
          "duration": 0.17999999999999616,
          "durationTicks": 144,
          "midi": 67,
          "name": "G4",
          "ticks": 22800,
          "time": 28.5,
          "velocity": 0.7874015748031497
        },
        {
          "duration": 0.08999999999999986,
          "durationTicks": 72,
          "midi": 69,
          "name": "A4",
          "ticks": 22960,
          "time": 28.7,
          "velocity": 0.7874015748031497
        },
        {
          "duration": 0.17999999999999972,
          "durationTicks": 144,
          "midi": 72,
          "name": "C5",
          "ticks": 23040,
          "time": 28.799999999999997,
          "velocity": 0.7874015748031497
        },
        {
          "duration": 0.134999999999998,
          "durationTicks": 108,
          "midi": 72,
          "name": "C5",
          "ticks": 23400,
          "time": 29.25,
          "velocity": 0.7874015748031497
        },
        {
          "duration": 0.28000000000000114,
          "durationTicks": 224,
          "midi": 69,
          "name": "A4",
          "ticks": 23760,
          "time": 29.7,
          "velocity": 0.7874015748031497
        },
        {
          "duration": 0.2699999999999996,
          "durationTicks": 216,
          "midi": 72,
          "name": "C5",
          "ticks": 24000,
          "time": 30,
          "velocity": 0.7874015748031497
        },
        {
          "duration": 0.2700000000000031,
          "durationTicks": 216,
          "midi": 69,
          "name": "A4",
          "ticks": 24480,
          "time": 30.599999999999998,
          "velocity": 0.7874015748031497
        },
        {
          "duration": 0.2700000000000031,
          "durationTicks": 216,
          "midi": 67,
          "name": "G4",
          "ticks": 24720,
          "time": 30.9,
          "velocity": 0.7874015748031497
        },
        {
          "duration": 0.2699999999999996,
          "durationTicks": 216,
          "midi": 74,
          "name": "D5",
          "ticks": 24960,
          "time": 31.2,
          "velocity": 0.7874015748031497
        },
        {
          "duration": 0.12124999999999986,
          "durationTicks": 97,
          "midi": 76,
          "name": "E5",
          "ticks": 25320,
          "time": 31.65,
          "velocity": 0.7874015748031497
        },
        {
          "duration": 0.8099999999999952,
          "durationTicks": 648,
          "midi": 67,
          "name": "G4",
          "ticks": 25680,
          "time": 32.1,
          "velocity": 0.7874015748031497
        },
        {
          "duration": 1.1999999999999957,
          "durationTicks": 960,
          "midi": 76,
          "name": "E5",
          "ticks": 26880,
          "time": 33.6,
          "velocity": 0.84251968503937
        },
        {
          "duration": 0.134999999999998,
          "durationTicks": 108,
          "midi": 69,
          "name": "A4",
          "ticks": 28080,
          "time": 35.1,
          "velocity": 0.7874015748031497
        },
        {
          "duration": 0.134999999999998,
          "durationTicks": 108,
          "midi": 72,
          "name": "C5",
          "ticks": 28320,
          "time": 35.4,
          "velocity": 0.7874015748031497
        },
        {
          "duration": 0.28249999999999886,
          "durationTicks": 226,
          "midi": 76,
          "name": "E5",
          "ticks": 28440,
          "time": 35.55,
          "velocity": 0.7874015748031497
        },
        {
          "duration": 0.2700000000000031,
          "durationTicks": 216,
          "midi": 74,
          "name": "D5",
          "ticks": 28800,
          "time": 36,
          "velocity": 0.7874015748031497
        },
        {
          "duration": 0.13500000000000512,
          "durationTicks": 108,
          "midi": 79,
          "name": "G5",
          "ticks": 29160,
          "time": 36.449999999999996,
          "velocity": 0.8818897637795275
        },
        {
          "duration": 0.8399999999999963,
          "durationTicks": 672,
          "midi": 67,
          "name": "G4",
          "ticks": 29520,
          "time": 36.9,
          "velocity": 0.7874015748031497
        },
        {
          "duration": 0.1799999999999926,
          "durationTicks": 144,
          "midi": 67,
          "name": "G4",
          "ticks": 30480,
          "time": 38.1,
          "velocity": 0.7874015748031497
        },
        {
          "duration": 0.09000000000000341,
          "durationTicks": 72,
          "midi": 69,
          "name": "A4",
          "ticks": 30640,
          "time": 38.3,
          "velocity": 0.7874015748031497
        },
        {
          "duration": 1.7999999999999972,
          "durationTicks": 1440,
          "midi": 72,
          "name": "C5",
          "ticks": 30720,
          "time": 38.4,
          "velocity": 0.8740157480314961
        },
        {
          "duration": 0.17999999999999972,
          "durationTicks": 144,
          "midi": 74,
          "name": "D5",
          "ticks": 32400,
          "time": 40.5,
          "velocity": 0.8976377952755905
        },
        {
          "duration": 0.09000000000000341,
          "durationTicks": 72,
          "midi": 72,
          "name": "C5",
          "ticks": 32560,
          "time": 40.699999999999996,
          "velocity": 0.8976377952755905
        },
        {
          "duration": 0.4799999999999969,
          "durationTicks": 384,
          "midi": 76,
          "name": "E5",
          "ticks": 32640,
          "time": 40.8,
          "velocity": 0.9212598425196851
        },
        {
          "duration": 0.1250000000000071,
          "durationTicks": 100,
          "midi": 76,
          "name": "E5",
          "ticks": 33040,
          "time": 41.3,
          "velocity": 0.7874015748031497
        },
        {
          "duration": 1.1999999999999957,
          "durationTicks": 960,
          "midi": 76,
          "name": "E5",
          "ticks": 49920,
          "time": 62.4,
          "velocity": 0.8346456692913385
        },
        {
          "duration": 0.134999999999998,
          "durationTicks": 108,
          "midi": 69,
          "name": "A4",
          "ticks": 51120,
          "time": 63.9,
          "velocity": 0.7874015748031497
        },
        {
          "duration": 0.1349999999999909,
          "durationTicks": 108,
          "midi": 72,
          "name": "C5",
          "ticks": 51360,
          "time": 64.2,
          "velocity": 0.7874015748031497
        },
        {
          "duration": 0.28249999999999886,
          "durationTicks": 226,
          "midi": 76,
          "name": "E5",
          "ticks": 51480,
          "time": 64.35,
          "velocity": 0.7874015748031497
        },
        {
          "duration": 0.269999999999996,
          "durationTicks": 216,
          "midi": 74,
          "name": "D5",
          "ticks": 51840,
          "time": 64.8,
          "velocity": 0.7874015748031497
        },
        {
          "duration": 0.1349999999999909,
          "durationTicks": 108,
          "midi": 79,
          "name": "G5",
          "ticks": 52200,
          "time": 65.25,
          "velocity": 0.7874015748031497
        },
        {
          "duration": 0.8999999999999915,
          "durationTicks": 720,
          "midi": 67,
          "name": "G4",
          "ticks": 52560,
          "time": 65.7,
          "velocity": 0.8346456692913385
        },
        {
          "duration": 0.18000000000000682,
          "durationTicks": 144,
          "midi": 67,
          "name": "G4",
          "ticks": 53520,
          "time": 66.89999999999999,
          "velocity": 0.7874015748031497
        },
        {
          "duration": 0.09000000000000341,
          "durationTicks": 72,
          "midi": 69,
          "name": "A4",
          "ticks": 53680,
          "time": 67.1,
          "velocity": 0.7874015748031497
        },
        {
          "duration": 0.1799999999999926,
          "durationTicks": 144,
          "midi": 72,
          "name": "C5",
          "ticks": 53760,
          "time": 67.2,
          "velocity": 0.7874015748031497
        },
        {
          "duration": 0.13500000000000512,
          "durationTicks": 108,
          "midi": 72,
          "name": "C5",
          "ticks": 54120,
          "time": 67.64999999999999,
          "velocity": 0.7874015748031497
        },
        {
          "duration": 0.28000000000000114,
          "durationTicks": 224,
          "midi": 69,
          "name": "A4",
          "ticks": 54480,
          "time": 68.1,
          "velocity": 0.7874015748031497
        },
        {
          "duration": 0.27000000000001023,
          "durationTicks": 216,
          "midi": 72,
          "name": "C5",
          "ticks": 54720,
          "time": 68.39999999999999,
          "velocity": 0.7874015748031497
        },
        {
          "duration": 0.269999999999996,
          "durationTicks": 216,
          "midi": 69,
          "name": "A4",
          "ticks": 55200,
          "time": 69,
          "velocity": 0.7874015748031497
        },
        {
          "duration": 0.269999999999996,
          "durationTicks": 216,
          "midi": 67,
          "name": "G4",
          "ticks": 55440,
          "time": 69.3,
          "velocity": 0.7874015748031497
        },
        {
          "duration": 0.27000000000001023,
          "durationTicks": 216,
          "midi": 74,
          "name": "D5",
          "ticks": 55680,
          "time": 69.6,
          "velocity": 0.7874015748031497
        },
        {
          "duration": 0.12125000000000341,
          "durationTicks": 97,
          "midi": 76,
          "name": "E5",
          "ticks": 56040,
          "time": 70.05,
          "velocity": 0.7874015748031497
        },
        {
          "duration": 0.8099999999999881,
          "durationTicks": 648,
          "midi": 67,
          "name": "G4",
          "ticks": 56400,
          "time": 70.5,
          "velocity": 0.7874015748031497
        },
        {
          "duration": 1.2000000000000028,
          "durationTicks": 960,
          "midi": 76,
          "name": "E5",
          "ticks": 57600,
          "time": 72,
          "velocity": 0.84251968503937
        },
        {
          "duration": 0.1349999999999909,
          "durationTicks": 108,
          "midi": 69,
          "name": "A4",
          "ticks": 58800,
          "time": 73.5,
          "velocity": 0.7874015748031497
        },
        {
          "duration": 0.1349999999999909,
          "durationTicks": 108,
          "midi": 72,
          "name": "C5",
          "ticks": 59040,
          "time": 73.8,
          "velocity": 0.7874015748031497
        },
        {
          "duration": 0.28249999999999886,
          "durationTicks": 226,
          "midi": 76,
          "name": "E5",
          "ticks": 59160,
          "time": 73.95,
          "velocity": 0.7874015748031497
        },
        {
          "duration": 0.27000000000001023,
          "durationTicks": 216,
          "midi": 74,
          "name": "D5",
          "ticks": 59520,
          "time": 74.39999999999999,
          "velocity": 0.7874015748031497
        },
        {
          "duration": 0.13500000000000512,
          "durationTicks": 108,
          "midi": 79,
          "name": "G5",
          "ticks": 59880,
          "time": 74.85,
          "velocity": 0.8818897637795275
        },
        {
          "duration": 0.8400000000000034,
          "durationTicks": 672,
          "midi": 67,
          "name": "G4",
          "ticks": 60240,
          "time": 75.3,
          "velocity": 0.7874015748031497
        },
        {
          "duration": 0.1799999999999926,
          "durationTicks": 144,
          "midi": 67,
          "name": "G4",
          "ticks": 61200,
          "time": 76.5,
          "velocity": 0.7874015748031497
        },
        {
          "duration": 0.09000000000000341,
          "durationTicks": 72,
          "midi": 69,
          "name": "A4",
          "ticks": 61360,
          "time": 76.69999999999999,
          "velocity": 0.7874015748031497
        },
        {
          "duration": 1.7999999999999972,
          "durationTicks": 1440,
          "midi": 72,
          "name": "C5",
          "ticks": 61440,
          "time": 76.8,
          "velocity": 0.8740157480314961
        },
        {
          "duration": 0.18000000000000682,
          "durationTicks": 144,
          "midi": 74,
          "name": "D5",
          "ticks": 63120,
          "time": 78.89999999999999,
          "velocity": 0.8976377952755905
        },
        {
          "duration": 0.08999999999997499,
          "durationTicks": 72,
          "midi": 72,
          "name": "C5",
          "ticks": 63280,
          "time": 79.10000000000001,
          "velocity": 0.8976377952755905
        },
        {
          "duration": 0.480000000000004,
          "durationTicks": 384,
          "midi": 76,
          "name": "E5",
          "ticks": 63360,
          "time": 79.2,
          "velocity": 0.9212598425196851
        },
        {
          "duration": 0.12499999999998579,
          "durationTicks": 100,
          "midi": 76,
          "name": "E5",
          "ticks": 63760,
          "time": 79.7,
          "velocity": 0.7874015748031497
        },
        {
          "duration": 1.2000000000000028,
          "durationTicks": 960,
          "midi": 76,
          "name": "E5",
          "ticks": 80640,
          "time": 100.8,
          "velocity": 0.8346456692913385
        },
        {
          "duration": 0.1349999999999909,
          "durationTicks": 108,
          "midi": 69,
          "name": "A4",
          "ticks": 81840,
          "time": 102.3,
          "velocity": 0.7874015748031497
        },
        {
          "duration": 0.13500000000000512,
          "durationTicks": 108,
          "midi": 72,
          "name": "C5",
          "ticks": 82080,
          "time": 102.6,
          "velocity": 0.7874015748031497
        },
        {
          "duration": 0.28249999999999886,
          "durationTicks": 226,
          "midi": 76,
          "name": "E5",
          "ticks": 82200,
          "time": 102.75,
          "velocity": 0.7874015748031497
        },
        {
          "duration": 0.2699999999999818,
          "durationTicks": 216,
          "midi": 74,
          "name": "D5",
          "ticks": 82560,
          "time": 103.2,
          "velocity": 0.7874015748031497
        },
        {
          "duration": 0.13500000000000512,
          "durationTicks": 108,
          "midi": 79,
          "name": "G5",
          "ticks": 82920,
          "time": 103.64999999999999,
          "velocity": 0.7874015748031497
        },
        {
          "duration": 0.9000000000000057,
          "durationTicks": 720,
          "midi": 67,
          "name": "G4",
          "ticks": 83280,
          "time": 104.1,
          "velocity": 0.8346456692913385
        },
        {
          "duration": 0.18000000000000682,
          "durationTicks": 144,
          "midi": 67,
          "name": "G4",
          "ticks": 84240,
          "time": 105.3,
          "velocity": 0.7874015748031497
        },
        {
          "duration": 0.0899999999999892,
          "durationTicks": 72,
          "midi": 69,
          "name": "A4",
          "ticks": 84400,
          "time": 105.5,
          "velocity": 0.7874015748031497
        },
        {
          "duration": 0.18000000000000682,
          "durationTicks": 144,
          "midi": 72,
          "name": "C5",
          "ticks": 84480,
          "time": 105.6,
          "velocity": 0.7874015748031497
        },
        {
          "duration": 0.1349999999999909,
          "durationTicks": 108,
          "midi": 72,
          "name": "C5",
          "ticks": 84840,
          "time": 106.05,
          "velocity": 0.7874015748031497
        },
        {
          "duration": 0.28000000000000114,
          "durationTicks": 224,
          "midi": 69,
          "name": "A4",
          "ticks": 85200,
          "time": 106.5,
          "velocity": 0.7874015748031497
        },
        {
          "duration": 0.269999999999996,
          "durationTicks": 216,
          "midi": 72,
          "name": "C5",
          "ticks": 85440,
          "time": 106.8,
          "velocity": 0.7874015748031497
        },
        {
          "duration": 0.269999999999996,
          "durationTicks": 216,
          "midi": 69,
          "name": "A4",
          "ticks": 85920,
          "time": 107.39999999999999,
          "velocity": 0.7874015748031497
        },
        {
          "duration": 0.2699999999999818,
          "durationTicks": 216,
          "midi": 67,
          "name": "G4",
          "ticks": 86160,
          "time": 107.7,
          "velocity": 0.7874015748031497
        },
        {
          "duration": 0.269999999999996,
          "durationTicks": 216,
          "midi": 74,
          "name": "D5",
          "ticks": 86400,
          "time": 108,
          "velocity": 0.7874015748031497
        },
        {
          "duration": 0.1212499999999892,
          "durationTicks": 97,
          "midi": 76,
          "name": "E5",
          "ticks": 86760,
          "time": 108.45,
          "velocity": 0.7874015748031497
        },
        {
          "duration": 0.8100000000000023,
          "durationTicks": 648,
          "midi": 67,
          "name": "G4",
          "ticks": 87120,
          "time": 108.89999999999999,
          "velocity": 0.7874015748031497
        },
        {
          "duration": 1.2000000000000028,
          "durationTicks": 960,
          "midi": 76,
          "name": "E5",
          "ticks": 88320,
          "time": 110.39999999999999,
          "velocity": 0.84251968503937
        },
        {
          "duration": 0.13500000000000512,
          "durationTicks": 108,
          "midi": 69,
          "name": "A4",
          "ticks": 89520,
          "time": 111.89999999999999,
          "velocity": 0.7874015748031497
        },
        {
          "duration": 0.1349999999999909,
          "durationTicks": 108,
          "midi": 72,
          "name": "C5",
          "ticks": 89760,
          "time": 112.2,
          "velocity": 0.7874015748031497
        },
        {
          "duration": 0.28249999999999886,
          "durationTicks": 226,
          "midi": 76,
          "name": "E5",
          "ticks": 89880,
          "time": 112.35,
          "velocity": 0.7874015748031497
        },
        {
          "duration": 0.269999999999996,
          "durationTicks": 216,
          "midi": 74,
          "name": "D5",
          "ticks": 90240,
          "time": 112.8,
          "velocity": 0.7874015748031497
        },
        {
          "duration": 0.1349999999999909,
          "durationTicks": 108,
          "midi": 79,
          "name": "G5",
          "ticks": 90600,
          "time": 113.25,
          "velocity": 0.8818897637795275
        },
        {
          "duration": 0.8400000000000034,
          "durationTicks": 672,
          "midi": 67,
          "name": "G4",
          "ticks": 90960,
          "time": 113.7,
          "velocity": 0.7874015748031497
        },
        {
          "duration": 0.18000000000000682,
          "durationTicks": 144,
          "midi": 67,
          "name": "G4",
          "ticks": 91920,
          "time": 114.89999999999999,
          "velocity": 0.7874015748031497
        },
        {
          "duration": 0.08999999999997499,
          "durationTicks": 72,
          "midi": 69,
          "name": "A4",
          "ticks": 92080,
          "time": 115.10000000000001,
          "velocity": 0.7874015748031497
        }
      ]
    },
    {
      "channel": 0,
      "controlChanges": {
        "0": [
          {
            "number": 0,
            "ticks": 856,
            "time": 1.07,
            "value": 0
          }
        ],
        "32": [
          {
            "number": 32,
            "ticks": 860,
            "time": 1.075,
            "value": 0.015748031496062992
          }
        ]
      },
      "pitchBends": [],
      "instrument": {
        "family": "piano",
        "number": 0,
        "name": "acoustic grand piano"
      },
      "name": "",
      "notes": [],
      "endOfTrackTicks": 91872
    },
    {
      "channel": 12,
      "controlChanges": {
        "1": [
          {
            "number": 1,
            "ticks": 19580,
            "time": 24.474999999999998,
            "value": 0
          },
          {
            "number": 1,
            "ticks": 19724,
            "time": 24.655,
            "value": 0.007874015748031496
          },
          {
            "number": 1,
            "ticks": 19754,
            "time": 24.6925,
            "value": 0.06299212598425197
          },
          {
            "number": 1,
            "ticks": 19784,
            "time": 24.73,
            "value": 0.11811023622047244
          },
          {
            "number": 1,
            "ticks": 19814,
            "time": 24.767500000000002,
            "value": 0.1732283464566929
          },
          {
            "number": 1,
            "ticks": 19844,
            "time": 24.805,
            "value": 0.2283464566929134
          },
          {
            "number": 1,
            "ticks": 19874,
            "time": 24.8425,
            "value": 0.28346456692913385
          },
          {
            "number": 1,
            "ticks": 19904,
            "time": 24.88,
            "value": 0.33858267716535434
          },
          {
            "number": 1,
            "ticks": 19934,
            "time": 24.9175,
            "value": 0.3937007874015748
          },
          {
            "number": 1,
            "ticks": 19964,
            "time": 24.955000000000002,
            "value": 0.44881889763779526
          },
          {
            "number": 1,
            "ticks": 19994,
            "time": 24.9925,
            "value": 0.5039370078740157
          },
          {
            "number": 1,
            "ticks": 20024,
            "time": 25.03,
            "value": 0.5590551181102362
          },
          {
            "number": 1,
            "ticks": 20054,
            "time": 25.0675,
            "value": 0.6141732283464567
          },
          {
            "number": 1,
            "ticks": 20084,
            "time": 25.105,
            "value": 0.6692913385826772
          },
          {
            "number": 1,
            "ticks": 20114,
            "time": 25.142500000000002,
            "value": 0.7244094488188977
          },
          {
            "number": 1,
            "ticks": 20144,
            "time": 25.18,
            "value": 0.7795275590551181
          },
          {
            "number": 1,
            "ticks": 20160,
            "time": 25.2,
            "value": 0
          },
          {
            "number": 1,
            "ticks": 20400,
            "time": 25.5,
            "value": 0
          },
          {
            "number": 1,
            "ticks": 21140,
            "time": 26.424999999999997,
            "value": 0
          },
          {
            "number": 1,
            "ticks": 27260,
            "time": 34.074999999999996,
            "value": 0
          },
          {
            "number": 1,
            "ticks": 27484,
            "time": 34.355,
            "value": 0.007874015748031496
          },
          {
            "number": 1,
            "ticks": 27514,
            "time": 34.3925,
            "value": 0.07874015748031496
          },
          {
            "number": 1,
            "ticks": 27544,
            "time": 34.43,
            "value": 0.15748031496062992
          },
          {
            "number": 1,
            "ticks": 27574,
            "time": 34.4675,
            "value": 0.2283464566929134
          },
          {
            "number": 1,
            "ticks": 27604,
            "time": 34.504999999999995,
            "value": 0.30708661417322836
          },
          {
            "number": 1,
            "ticks": 27634,
            "time": 34.5425,
            "value": 0.3858267716535433
          },
          {
            "number": 1,
            "ticks": 27664,
            "time": 34.58,
            "value": 0.4566929133858268
          },
          {
            "number": 1,
            "ticks": 27694,
            "time": 34.6175,
            "value": 0.5354330708661418
          },
          {
            "number": 1,
            "ticks": 27724,
            "time": 34.655,
            "value": 0.6141732283464567
          },
          {
            "number": 1,
            "ticks": 27754,
            "time": 34.692499999999995,
            "value": 0.6850393700787402
          },
          {
            "number": 1,
            "ticks": 27784,
            "time": 34.73,
            "value": 0.7637795275590551
          },
          {
            "number": 1,
            "ticks": 27840,
            "time": 34.8,
            "value": 0
          },
          {
            "number": 1,
            "ticks": 28820,
            "time": 36.025,
            "value": 0
          },
          {
            "number": 1,
            "ticks": 31511,
            "time": 39.388749999999995,
            "value": 0.015748031496062992
          },
          {
            "number": 1,
            "ticks": 31541,
            "time": 39.426249999999996,
            "value": 0.047244094488188976
          },
          {
            "number": 1,
            "ticks": 31571,
            "time": 39.46375,
            "value": 0.08661417322834646
          },
          {
            "number": 1,
            "ticks": 31601,
            "time": 39.50124999999999,
            "value": 0.11811023622047244
          },
          {
            "number": 1,
            "ticks": 31631,
            "time": 39.53874999999999,
            "value": 0.15748031496062992
          },
          {
            "number": 1,
            "ticks": 31661,
            "time": 39.576249999999995,
            "value": 0.1889763779527559
          },
          {
            "number": 1,
            "ticks": 31691,
            "time": 39.613749999999996,
            "value": 0.2283464566929134
          },
          {
            "number": 1,
            "ticks": 31721,
            "time": 39.65125,
            "value": 0.2677165354330709
          },
          {
            "number": 1,
            "ticks": 31751,
            "time": 39.68874999999999,
            "value": 0.2992125984251969
          },
          {
            "number": 1,
            "ticks": 31781,
            "time": 39.72624999999999,
            "value": 0.33858267716535434
          },
          {
            "number": 1,
            "ticks": 31811,
            "time": 39.763749999999995,
            "value": 0.3700787401574803
          },
          {
            "number": 1,
            "ticks": 31841,
            "time": 39.801249999999996,
            "value": 0.4094488188976378
          },
          {
            "number": 1,
            "ticks": 31871,
            "time": 39.83875,
            "value": 0.44881889763779526
          },
          {
            "number": 1,
            "ticks": 31901,
            "time": 39.87624999999999,
            "value": 0.48031496062992124
          },
          {
            "number": 1,
            "ticks": 31931,
            "time": 39.91374999999999,
            "value": 0.5196850393700787
          },
          {
            "number": 1,
            "ticks": 31961,
            "time": 39.951249999999995,
            "value": 0.5511811023622047
          },
          {
            "number": 1,
            "ticks": 31991,
            "time": 39.988749999999996,
            "value": 0.5905511811023622
          },
          {
            "number": 1,
            "ticks": 32021,
            "time": 40.02625,
            "value": 0.6299212598425197
          },
          {
            "number": 1,
            "ticks": 32051,
            "time": 40.06374999999999,
            "value": 0.6614173228346457
          },
          {
            "number": 1,
            "ticks": 32160,
            "time": 40.199999999999996,
            "value": 0
          },
          {
            "number": 1,
            "ticks": 33020,
            "time": 41.275,
            "value": 0
          },
          {
            "number": 1,
            "ticks": 50300,
            "time": 62.875,
            "value": 0
          },
          {
            "number": 1,
            "ticks": 50444,
            "time": 63.055,
            "value": 0.007874015748031496
          },
          {
            "number": 1,
            "ticks": 50474,
            "time": 63.0925,
            "value": 0.06299212598425197
          },
          {
            "number": 1,
            "ticks": 50504,
            "time": 63.129999999999995,
            "value": 0.11811023622047244
          },
          {
            "number": 1,
            "ticks": 50534,
            "time": 63.1675,
            "value": 0.1732283464566929
          },
          {
            "number": 1,
            "ticks": 50564,
            "time": 63.205,
            "value": 0.2283464566929134
          },
          {
            "number": 1,
            "ticks": 50594,
            "time": 63.2425,
            "value": 0.28346456692913385
          },
          {
            "number": 1,
            "ticks": 50624,
            "time": 63.28,
            "value": 0.33858267716535434
          },
          {
            "number": 1,
            "ticks": 50654,
            "time": 63.317499999999995,
            "value": 0.3937007874015748
          },
          {
            "number": 1,
            "ticks": 50684,
            "time": 63.355,
            "value": 0.44881889763779526
          },
          {
            "number": 1,
            "ticks": 50714,
            "time": 63.3925,
            "value": 0.5039370078740157
          },
          {
            "number": 1,
            "ticks": 50744,
            "time": 63.43,
            "value": 0.5590551181102362
          },
          {
            "number": 1,
            "ticks": 50774,
            "time": 63.4675,
            "value": 0.6141732283464567
          },
          {
            "number": 1,
            "ticks": 50804,
            "time": 63.504999999999995,
            "value": 0.6692913385826772
          },
          {
            "number": 1,
            "ticks": 50834,
            "time": 63.5425,
            "value": 0.7244094488188977
          },
          {
            "number": 1,
            "ticks": 50864,
            "time": 63.58,
            "value": 0.7795275590551181
          },
          {
            "number": 1,
            "ticks": 50880,
            "time": 63.599999999999994,
            "value": 0
          },
          {
            "number": 1,
            "ticks": 51120,
            "time": 63.9,
            "value": 0
          },
          {
            "number": 1,
            "ticks": 51860,
            "time": 64.825,
            "value": 0
          },
          {
            "number": 1,
            "ticks": 57980,
            "time": 72.475,
            "value": 0
          },
          {
            "number": 1,
            "ticks": 58204,
            "time": 72.755,
            "value": 0.007874015748031496
          },
          {
            "number": 1,
            "ticks": 58234,
            "time": 72.7925,
            "value": 0.07874015748031496
          },
          {
            "number": 1,
            "ticks": 58264,
            "time": 72.83,
            "value": 0.15748031496062992
          },
          {
            "number": 1,
            "ticks": 58294,
            "time": 72.8675,
            "value": 0.2283464566929134
          },
          {
            "number": 1,
            "ticks": 58324,
            "time": 72.905,
            "value": 0.30708661417322836
          },
          {
            "number": 1,
            "ticks": 58354,
            "time": 72.9425,
            "value": 0.3858267716535433
          },
          {
            "number": 1,
            "ticks": 58384,
            "time": 72.98,
            "value": 0.4566929133858268
          },
          {
            "number": 1,
            "ticks": 58414,
            "time": 73.0175,
            "value": 0.5354330708661418
          },
          {
            "number": 1,
            "ticks": 58444,
            "time": 73.055,
            "value": 0.6141732283464567
          },
          {
            "number": 1,
            "ticks": 58474,
            "time": 73.0925,
            "value": 0.6850393700787402
          },
          {
            "number": 1,
            "ticks": 58504,
            "time": 73.13,
            "value": 0.7637795275590551
          },
          {
            "number": 1,
            "ticks": 58560,
            "time": 73.2,
            "value": 0
          },
          {
            "number": 1,
            "ticks": 59540,
            "time": 74.425,
            "value": 0
          },
          {
            "number": 1,
            "ticks": 62231,
            "time": 77.78875000000001,
            "value": 0.015748031496062992
          },
          {
            "number": 1,
            "ticks": 62261,
            "time": 77.82625,
            "value": 0.047244094488188976
          },
          {
            "number": 1,
            "ticks": 62291,
            "time": 77.86375,
            "value": 0.08661417322834646
          },
          {
            "number": 1,
            "ticks": 62321,
            "time": 77.90125,
            "value": 0.11811023622047244
          },
          {
            "number": 1,
            "ticks": 62351,
            "time": 77.93875,
            "value": 0.15748031496062992
          },
          {
            "number": 1,
            "ticks": 62381,
            "time": 77.97625000000001,
            "value": 0.1889763779527559
          },
          {
            "number": 1,
            "ticks": 62411,
            "time": 78.01375,
            "value": 0.2283464566929134
          },
          {
            "number": 1,
            "ticks": 62441,
            "time": 78.05125,
            "value": 0.2677165354330709
          },
          {
            "number": 1,
            "ticks": 62471,
            "time": 78.08875,
            "value": 0.2992125984251969
          },
          {
            "number": 1,
            "ticks": 62501,
            "time": 78.12625,
            "value": 0.33858267716535434
          },
          {
            "number": 1,
            "ticks": 62531,
            "time": 78.16375000000001,
            "value": 0.3700787401574803
          },
          {
            "number": 1,
            "ticks": 62561,
            "time": 78.20125,
            "value": 0.4094488188976378
          },
          {
            "number": 1,
            "ticks": 62591,
            "time": 78.23875,
            "value": 0.44881889763779526
          },
          {
            "number": 1,
            "ticks": 62621,
            "time": 78.27625,
            "value": 0.48031496062992124
          },
          {
            "number": 1,
            "ticks": 62651,
            "time": 78.31375,
            "value": 0.5196850393700787
          },
          {
            "number": 1,
            "ticks": 62681,
            "time": 78.35125000000001,
            "value": 0.5511811023622047
          },
          {
            "number": 1,
            "ticks": 62711,
            "time": 78.38875,
            "value": 0.5905511811023622
          },
          {
            "number": 1,
            "ticks": 62741,
            "time": 78.42625,
            "value": 0.6299212598425197
          },
          {
            "number": 1,
            "ticks": 62771,
            "time": 78.46375,
            "value": 0.6614173228346457
          },
          {
            "number": 1,
            "ticks": 62880,
            "time": 78.6,
            "value": 0
          },
          {
            "number": 1,
            "ticks": 63740,
            "time": 79.675,
            "value": 0
          },
          {
            "number": 1,
            "ticks": 81020,
            "time": 101.27499999999999,
            "value": 0
          },
          {
            "number": 1,
            "ticks": 81164,
            "time": 101.455,
            "value": 0.007874015748031496
          },
          {
            "number": 1,
            "ticks": 81194,
            "time": 101.49249999999999,
            "value": 0.06299212598425197
          },
          {
            "number": 1,
            "ticks": 81224,
            "time": 101.53,
            "value": 0.11811023622047244
          },
          {
            "number": 1,
            "ticks": 81254,
            "time": 101.5675,
            "value": 0.1732283464566929
          },
          {
            "number": 1,
            "ticks": 81284,
            "time": 101.605,
            "value": 0.2283464566929134
          },
          {
            "number": 1,
            "ticks": 81314,
            "time": 101.6425,
            "value": 0.28346456692913385
          },
          {
            "number": 1,
            "ticks": 81344,
            "time": 101.67999999999999,
            "value": 0.33858267716535434
          },
          {
            "number": 1,
            "ticks": 81374,
            "time": 101.7175,
            "value": 0.3937007874015748
          },
          {
            "number": 1,
            "ticks": 81404,
            "time": 101.755,
            "value": 0.44881889763779526
          },
          {
            "number": 1,
            "ticks": 81434,
            "time": 101.7925,
            "value": 0.5039370078740157
          },
          {
            "number": 1,
            "ticks": 81464,
            "time": 101.83,
            "value": 0.5590551181102362
          },
          {
            "number": 1,
            "ticks": 81494,
            "time": 101.86749999999999,
            "value": 0.6141732283464567
          },
          {
            "number": 1,
            "ticks": 81524,
            "time": 101.905,
            "value": 0.6692913385826772
          },
          {
            "number": 1,
            "ticks": 81554,
            "time": 101.9425,
            "value": 0.7244094488188977
          },
          {
            "number": 1,
            "ticks": 81584,
            "time": 101.98,
            "value": 0.7795275590551181
          },
          {
            "number": 1,
            "ticks": 81600,
            "time": 102,
            "value": 0
          },
          {
            "number": 1,
            "ticks": 81840,
            "time": 102.3,
            "value": 0
          },
          {
            "number": 1,
            "ticks": 82580,
            "time": 103.225,
            "value": 0
          },
          {
            "number": 1,
            "ticks": 88700,
            "time": 110.87499999999999,
            "value": 0
          },
          {
            "number": 1,
            "ticks": 88924,
            "time": 111.15499999999999,
            "value": 0.007874015748031496
          },
          {
            "number": 1,
            "ticks": 88954,
            "time": 111.1925,
            "value": 0.07874015748031496
          },
          {
            "number": 1,
            "ticks": 88984,
            "time": 111.22999999999999,
            "value": 0.15748031496062992
          },
          {
            "number": 1,
            "ticks": 89014,
            "time": 111.2675,
            "value": 0.2283464566929134
          },
          {
            "number": 1,
            "ticks": 89044,
            "time": 111.30499999999999,
            "value": 0.30708661417322836
          },
          {
            "number": 1,
            "ticks": 89074,
            "time": 111.34249999999999,
            "value": 0.3858267716535433
          },
          {
            "number": 1,
            "ticks": 89104,
            "time": 111.38,
            "value": 0.4566929133858268
          },
          {
            "number": 1,
            "ticks": 89134,
            "time": 111.41749999999999,
            "value": 0.5354330708661418
          },
          {
            "number": 1,
            "ticks": 89164,
            "time": 111.455,
            "value": 0.6141732283464567
          },
          {
            "number": 1,
            "ticks": 89194,
            "time": 111.49249999999999,
            "value": 0.6850393700787402
          },
          {
            "number": 1,
            "ticks": 89224,
            "time": 111.52999999999999,
            "value": 0.7637795275590551
          },
          {
            "number": 1,
            "ticks": 89280,
            "time": 111.6,
            "value": 0
          },
          {
            "number": 1,
            "ticks": 90260,
            "time": 112.82499999999999,
            "value": 0
          }
        ],
        "6": [
          {
            "number": 6,
            "ticks": 19440,
            "time": 24.3,
            "value": 0.09448818897637795
          },
          {
            "number": 6,
            "ticks": 21000,
            "time": 26.25,
            "value": 0.09448818897637795
          },
          {
            "number": 6,
            "ticks": 27120,
            "time": 33.9,
            "value": 0.09448818897637795
          },
          {
            "number": 6,
            "ticks": 28680,
            "time": 35.85,
            "value": 0.09448818897637795
          },
          {
            "number": 6,
            "ticks": 32880,
            "time": 41.1,
            "value": 0.09448818897637795
          },
          {
            "number": 6,
            "ticks": 50160,
            "time": 62.699999999999996,
            "value": 0.09448818897637795
          },
          {
            "number": 6,
            "ticks": 51720,
            "time": 64.64999999999999,
            "value": 0.09448818897637795
          },
          {
            "number": 6,
            "ticks": 57840,
            "time": 72.3,
            "value": 0.09448818897637795
          },
          {
            "number": 6,
            "ticks": 59400,
            "time": 74.25,
            "value": 0.09448818897637795
          },
          {
            "number": 6,
            "ticks": 63600,
            "time": 79.5,
            "value": 0.09448818897637795
          },
          {
            "number": 6,
            "ticks": 80880,
            "time": 101.1,
            "value": 0.09448818897637795
          },
          {
            "number": 6,
            "ticks": 82440,
            "time": 103.05,
            "value": 0.09448818897637795
          },
          {
            "number": 6,
            "ticks": 88560,
            "time": 110.7,
            "value": 0.09448818897637795
          },
          {
            "number": 6,
            "ticks": 90120,
            "time": 112.64999999999999,
            "value": 0.09448818897637795
          }
        ],
        "7": [
          {
            "number": 7,
            "ticks": 868,
            "time": 1.085,
            "value": 0.5511811023622047
          }
        ],
        "10": [
          {
            "number": 10,
            "ticks": 872,
            "time": 1.0899999999999999,
            "value": 0.5039370078740157
          }
        ],
        "91": [
          {
            "number": 91,
            "ticks": 876,
            "time": 1.095,
            "value": 0.6850393700787402
          }
        ],
        "93": [
          {
            "number": 93,
            "ticks": 880,
            "time": 1.0999999999999999,
            "value": 0
          }
        ],
        "100": [
          {
            "number": 100,
            "ticks": 19440,
            "time": 24.3,
            "value": 0
          },
          {
            "number": 100,
            "ticks": 21000,
            "time": 26.25,
            "value": 0
          },
          {
            "number": 100,
            "ticks": 27120,
            "time": 33.9,
            "value": 0
          },
          {
            "number": 100,
            "ticks": 28680,
            "time": 35.85,
            "value": 0
          },
          {
            "number": 100,
            "ticks": 32880,
            "time": 41.1,
            "value": 0
          },
          {
            "number": 100,
            "ticks": 50160,
            "time": 62.699999999999996,
            "value": 0
          },
          {
            "number": 100,
            "ticks": 51720,
            "time": 64.64999999999999,
            "value": 0
          },
          {
            "number": 100,
            "ticks": 57840,
            "time": 72.3,
            "value": 0
          },
          {
            "number": 100,
            "ticks": 59400,
            "time": 74.25,
            "value": 0
          },
          {
            "number": 100,
            "ticks": 63600,
            "time": 79.5,
            "value": 0
          },
          {
            "number": 100,
            "ticks": 80880,
            "time": 101.1,
            "value": 0
          },
          {
            "number": 100,
            "ticks": 82440,
            "time": 103.05,
            "value": 0
          },
          {
            "number": 100,
            "ticks": 88560,
            "time": 110.7,
            "value": 0
          },
          {
            "number": 100,
            "ticks": 90120,
            "time": 112.64999999999999,
            "value": 0
          }
        ],
        "101": [
          {
            "number": 101,
            "ticks": 19440,
            "time": 24.3,
            "value": 0
          },
          {
            "number": 101,
            "ticks": 21000,
            "time": 26.25,
            "value": 0
          },
          {
            "number": 101,
            "ticks": 27120,
            "time": 33.9,
            "value": 0
          },
          {
            "number": 101,
            "ticks": 28680,
            "time": 35.85,
            "value": 0
          },
          {
            "number": 101,
            "ticks": 32880,
            "time": 41.1,
            "value": 0
          },
          {
            "number": 101,
            "ticks": 50160,
            "time": 62.699999999999996,
            "value": 0
          },
          {
            "number": 101,
            "ticks": 51720,
            "time": 64.64999999999999,
            "value": 0
          },
          {
            "number": 101,
            "ticks": 57840,
            "time": 72.3,
            "value": 0
          },
          {
            "number": 101,
            "ticks": 59400,
            "time": 74.25,
            "value": 0
          },
          {
            "number": 101,
            "ticks": 63600,
            "time": 79.5,
            "value": 0
          },
          {
            "number": 101,
            "ticks": 80880,
            "time": 101.1,
            "value": 0
          },
          {
            "number": 101,
            "ticks": 82440,
            "time": 103.05,
            "value": 0
          },
          {
            "number": 101,
            "ticks": 88560,
            "time": 110.7,
            "value": 0
          },
          {
            "number": 101,
            "ticks": 90120,
            "time": 112.64999999999999,
            "value": 0
          }
        ]
      },
      "pitchBends": [
        {
          "ticks": 19440,
          "time": 24.3,
          "value": -0.08544921875
        },
        {
          "ticks": 19500,
          "time": 24.375,
          "value": -0.048828125
        },
        {
          "ticks": 19510,
          "time": 24.3875,
          "value": -0.03662109375
        },
        {
          "ticks": 19520,
          "time": 24.4,
          "value": -0.0244140625
        },
        {
          "ticks": 19540,
          "time": 24.425,
          "value": -0.01220703125
        },
        {
          "ticks": 19560,
          "time": 24.45,
          "value": 0
        },
        {
          "ticks": 19580,
          "time": 24.474999999999998,
          "value": 0
        },
        {
          "ticks": 19580,
          "time": 24.474999999999998,
          "value": 0
        },
        {
          "ticks": 20259,
          "time": 25.323749999999997,
          "value": 0
        },
        {
          "ticks": 20282,
          "time": 25.352500000000003,
          "value": 0
        },
        {
          "ticks": 20312,
          "time": 25.39,
          "value": -0.01708984375
        },
        {
          "ticks": 20342,
          "time": 25.427500000000002,
          "value": -0.0341796875
        },
        {
          "ticks": 20400,
          "time": 25.5,
          "value": 0
        },
        {
          "ticks": 21000,
          "time": 26.25,
          "value": -0.08544921875
        },
        {
          "ticks": 21060,
          "time": 26.325,
          "value": -0.048828125
        },
        {
          "ticks": 21070,
          "time": 26.337500000000002,
          "value": -0.03662109375
        },
        {
          "ticks": 21080,
          "time": 26.349999999999998,
          "value": -0.0244140625
        },
        {
          "ticks": 21100,
          "time": 26.375,
          "value": -0.01220703125
        },
        {
          "ticks": 21120,
          "time": 26.4,
          "value": 0
        },
        {
          "ticks": 21140,
          "time": 26.424999999999997,
          "value": 0
        },
        {
          "ticks": 21140,
          "time": 26.424999999999997,
          "value": 0
        },
        {
          "ticks": 22700,
          "time": 28.374999999999996,
          "value": 0
        },
        {
          "ticks": 22730,
          "time": 28.412499999999998,
          "value": -0.02001953125
        },
        {
          "ticks": 22760,
          "time": 28.45,
          "value": -0.0401611328125
        },
        {
          "ticks": 22790,
          "time": 28.487499999999997,
          "value": -0.060302734375
        },
        {
          "ticks": 22800,
          "time": 28.5,
          "value": 0
        },
        {
          "ticks": 27120,
          "time": 33.9,
          "value": -0.08544921875
        },
        {
          "ticks": 27180,
          "time": 33.975,
          "value": -0.048828125
        },
        {
          "ticks": 27190,
          "time": 33.9875,
          "value": -0.03662109375
        },
        {
          "ticks": 27200,
          "time": 34,
          "value": -0.0244140625
        },
        {
          "ticks": 27220,
          "time": 34.025,
          "value": -0.01220703125
        },
        {
          "ticks": 27240,
          "time": 34.05,
          "value": 0
        },
        {
          "ticks": 27260,
          "time": 34.074999999999996,
          "value": 0
        },
        {
          "ticks": 27260,
          "time": 34.074999999999996,
          "value": 0
        },
        {
          "ticks": 27980,
          "time": 34.974999999999994,
          "value": 0
        },
        {
          "ticks": 28010,
          "time": 35.012499999999996,
          "value": -0.042724609375
        },
        {
          "ticks": 28040,
          "time": 35.05,
          "value": -0.0855712890625
        },
        {
          "ticks": 28070,
          "time": 35.0875,
          "value": -0.1282958984375
        },
        {
          "ticks": 28080,
          "time": 35.1,
          "value": 0
        },
        {
          "ticks": 28680,
          "time": 35.85,
          "value": -0.08544921875
        },
        {
          "ticks": 28740,
          "time": 35.925,
          "value": -0.048828125
        },
        {
          "ticks": 28750,
          "time": 35.9375,
          "value": -0.03662109375
        },
        {
          "ticks": 28760,
          "time": 35.949999999999996,
          "value": -0.0244140625
        },
        {
          "ticks": 28780,
          "time": 35.975,
          "value": -0.01220703125
        },
        {
          "ticks": 28800,
          "time": 36,
          "value": 0
        },
        {
          "ticks": 28820,
          "time": 36.025,
          "value": 0
        },
        {
          "ticks": 28820,
          "time": 36.025,
          "value": 0
        },
        {
          "ticks": 32151,
          "time": 40.18875,
          "value": 0
        },
        {
          "ticks": 32181,
          "time": 40.22625,
          "value": 0
        },
        {
          "ticks": 32211,
          "time": 40.26375,
          "value": 0
        },
        {
          "ticks": 32241,
          "time": 40.30125,
          "value": 0
        },
        {
          "ticks": 32271,
          "time": 40.33875,
          "value": 0
        },
        {
          "ticks": 32301,
          "time": 40.37625,
          "value": 0
        },
        {
          "ticks": 32302,
          "time": 40.3775,
          "value": 0.016845703125
        },
        {
          "ticks": 32332,
          "time": 40.415,
          "value": -0.025390625
        },
        {
          "ticks": 32362,
          "time": 40.4525,
          "value": -0.0677490234375
        },
        {
          "ticks": 32400,
          "time": 40.5,
          "value": 0
        },
        {
          "ticks": 32880,
          "time": 41.1,
          "value": -0.08544921875
        },
        {
          "ticks": 32940,
          "time": 41.175,
          "value": -0.048828125
        },
        {
          "ticks": 32950,
          "time": 41.18749999999999,
          "value": -0.03662109375
        },
        {
          "ticks": 32960,
          "time": 41.2,
          "value": -0.0244140625
        },
        {
          "ticks": 32980,
          "time": 41.224999999999994,
          "value": -0.01220703125
        },
        {
          "ticks": 33000,
          "time": 41.25,
          "value": 0
        },
        {
          "ticks": 33020,
          "time": 41.275,
          "value": 0
        },
        {
          "ticks": 33020,
          "time": 41.275,
          "value": 0
        },
        {
          "ticks": 50160,
          "time": 62.699999999999996,
          "value": -0.08544921875
        },
        {
          "ticks": 50220,
          "time": 62.775,
          "value": -0.048828125
        },
        {
          "ticks": 50230,
          "time": 62.787499999999994,
          "value": -0.03662109375
        },
        {
          "ticks": 50240,
          "time": 62.8,
          "value": -0.0244140625
        },
        {
          "ticks": 50260,
          "time": 62.824999999999996,
          "value": -0.01220703125
        },
        {
          "ticks": 50280,
          "time": 62.849999999999994,
          "value": 0
        },
        {
          "ticks": 50300,
          "time": 62.875,
          "value": 0
        },
        {
          "ticks": 50300,
          "time": 62.875,
          "value": 0
        },
        {
          "ticks": 50979,
          "time": 63.723749999999995,
          "value": 0
        },
        {
          "ticks": 51002,
          "time": 63.7525,
          "value": 0
        },
        {
          "ticks": 51032,
          "time": 63.78999999999999,
          "value": -0.01708984375
        },
        {
          "ticks": 51062,
          "time": 63.82749999999999,
          "value": -0.0341796875
        },
        {
          "ticks": 51120,
          "time": 63.9,
          "value": 0
        },
        {
          "ticks": 51720,
          "time": 64.64999999999999,
          "value": -0.08544921875
        },
        {
          "ticks": 51780,
          "time": 64.725,
          "value": -0.048828125
        },
        {
          "ticks": 51790,
          "time": 64.7375,
          "value": -0.03662109375
        },
        {
          "ticks": 51800,
          "time": 64.75,
          "value": -0.0244140625
        },
        {
          "ticks": 51820,
          "time": 64.77499999999999,
          "value": -0.01220703125
        },
        {
          "ticks": 51840,
          "time": 64.8,
          "value": 0
        },
        {
          "ticks": 51860,
          "time": 64.825,
          "value": 0
        },
        {
          "ticks": 51860,
          "time": 64.825,
          "value": 0
        },
        {
          "ticks": 53420,
          "time": 66.775,
          "value": 0
        },
        {
          "ticks": 53450,
          "time": 66.8125,
          "value": -0.02001953125
        },
        {
          "ticks": 53480,
          "time": 66.85,
          "value": -0.0401611328125
        },
        {
          "ticks": 53510,
          "time": 66.8875,
          "value": -0.060302734375
        },
        {
          "ticks": 53520,
          "time": 66.89999999999999,
          "value": 0
        },
        {
          "ticks": 57840,
          "time": 72.3,
          "value": -0.08544921875
        },
        {
          "ticks": 57900,
          "time": 72.375,
          "value": -0.048828125
        },
        {
          "ticks": 57910,
          "time": 72.38749999999999,
          "value": -0.03662109375
        },
        {
          "ticks": 57920,
          "time": 72.4,
          "value": -0.0244140625
        },
        {
          "ticks": 57940,
          "time": 72.425,
          "value": -0.01220703125
        },
        {
          "ticks": 57960,
          "time": 72.45,
          "value": 0
        },
        {
          "ticks": 57980,
          "time": 72.475,
          "value": 0
        },
        {
          "ticks": 57980,
          "time": 72.475,
          "value": 0
        },
        {
          "ticks": 58700,
          "time": 73.375,
          "value": 0
        },
        {
          "ticks": 58730,
          "time": 73.4125,
          "value": -0.042724609375
        },
        {
          "ticks": 58760,
          "time": 73.45,
          "value": -0.0855712890625
        },
        {
          "ticks": 58790,
          "time": 73.4875,
          "value": -0.1282958984375
        },
        {
          "ticks": 58800,
          "time": 73.5,
          "value": 0
        },
        {
          "ticks": 59400,
          "time": 74.25,
          "value": -0.08544921875
        },
        {
          "ticks": 59460,
          "time": 74.325,
          "value": -0.048828125
        },
        {
          "ticks": 59470,
          "time": 74.33749999999999,
          "value": -0.03662109375
        },
        {
          "ticks": 59480,
          "time": 74.35,
          "value": -0.0244140625
        },
        {
          "ticks": 59500,
          "time": 74.375,
          "value": -0.01220703125
        },
        {
          "ticks": 59520,
          "time": 74.39999999999999,
          "value": 0
        },
        {
          "ticks": 59540,
          "time": 74.425,
          "value": 0
        },
        {
          "ticks": 59540,
          "time": 74.425,
          "value": 0
        },
        {
          "ticks": 62871,
          "time": 78.58874999999999,
          "value": 0
        },
        {
          "ticks": 62901,
          "time": 78.62624999999998,
          "value": 0
        },
        {
          "ticks": 62931,
          "time": 78.66375,
          "value": 0
        },
        {
          "ticks": 62961,
          "time": 78.70124999999999,
          "value": 0
        },
        {
          "ticks": 62991,
          "time": 78.73875,
          "value": 0
        },
        {
          "ticks": 63021,
          "time": 78.77624999999999,
          "value": 0
        },
        {
          "ticks": 63022,
          "time": 78.77749999999999,
          "value": 0.016845703125
        },
        {
          "ticks": 63052,
          "time": 78.81499999999998,
          "value": -0.025390625
        },
        {
          "ticks": 63082,
          "time": 78.85249999999999,
          "value": -0.0677490234375
        },
        {
          "ticks": 63120,
          "time": 78.89999999999999,
          "value": 0
        },
        {
          "ticks": 63600,
          "time": 79.5,
          "value": -0.08544921875
        },
        {
          "ticks": 63660,
          "time": 79.575,
          "value": -0.048828125
        },
        {
          "ticks": 63670,
          "time": 79.5875,
          "value": -0.03662109375
        },
        {
          "ticks": 63680,
          "time": 79.6,
          "value": -0.0244140625
        },
        {
          "ticks": 63700,
          "time": 79.625,
          "value": -0.01220703125
        },
        {
          "ticks": 63720,
          "time": 79.64999999999999,
          "value": 0
        },
        {
          "ticks": 63740,
          "time": 79.675,
          "value": 0
        },
        {
          "ticks": 63740,
          "time": 79.675,
          "value": 0
        },
        {
          "ticks": 80880,
          "time": 101.1,
          "value": -0.08544921875
        },
        {
          "ticks": 80940,
          "time": 101.175,
          "value": -0.048828125
        },
        {
          "ticks": 80950,
          "time": 101.1875,
          "value": -0.03662109375
        },
        {
          "ticks": 80960,
          "time": 101.19999999999999,
          "value": -0.0244140625
        },
        {
          "ticks": 80980,
          "time": 101.22500000000001,
          "value": -0.01220703125
        },
        {
          "ticks": 81000,
          "time": 101.25,
          "value": 0
        },
        {
          "ticks": 81020,
          "time": 101.27499999999999,
          "value": 0
        },
        {
          "ticks": 81020,
          "time": 101.27499999999999,
          "value": 0
        },
        {
          "ticks": 81699,
          "time": 102.12375,
          "value": 0
        },
        {
          "ticks": 81722,
          "time": 102.15249999999999,
          "value": 0
        },
        {
          "ticks": 81752,
          "time": 102.19,
          "value": -0.01708984375
        },
        {
          "ticks": 81782,
          "time": 102.22749999999999,
          "value": -0.0341796875
        },
        {
          "ticks": 81840,
          "time": 102.3,
          "value": 0
        },
        {
          "ticks": 82440,
          "time": 103.05,
          "value": -0.08544921875
        },
        {
          "ticks": 82500,
          "time": 103.125,
          "value": -0.048828125
        },
        {
          "ticks": 82510,
          "time": 103.1375,
          "value": -0.03662109375
        },
        {
          "ticks": 82520,
          "time": 103.14999999999999,
          "value": -0.0244140625
        },
        {
          "ticks": 82540,
          "time": 103.175,
          "value": -0.01220703125
        },
        {
          "ticks": 82560,
          "time": 103.2,
          "value": 0
        },
        {
          "ticks": 82580,
          "time": 103.225,
          "value": 0
        },
        {
          "ticks": 82580,
          "time": 103.225,
          "value": 0
        },
        {
          "ticks": 84140,
          "time": 105.175,
          "value": 0
        },
        {
          "ticks": 84170,
          "time": 105.21249999999999,
          "value": -0.02001953125
        },
        {
          "ticks": 84200,
          "time": 105.24999999999999,
          "value": -0.0401611328125
        },
        {
          "ticks": 84230,
          "time": 105.2875,
          "value": -0.060302734375
        },
        {
          "ticks": 84240,
          "time": 105.3,
          "value": 0
        },
        {
          "ticks": 88560,
          "time": 110.7,
          "value": -0.08544921875
        },
        {
          "ticks": 88620,
          "time": 110.77499999999999,
          "value": -0.048828125
        },
        {
          "ticks": 88630,
          "time": 110.78750000000001,
          "value": -0.03662109375
        },
        {
          "ticks": 88640,
          "time": 110.8,
          "value": -0.0244140625
        },
        {
          "ticks": 88660,
          "time": 110.825,
          "value": -0.01220703125
        },
        {
          "ticks": 88680,
          "time": 110.85,
          "value": 0
        },
        {
          "ticks": 88700,
          "time": 110.87499999999999,
          "value": 0
        },
        {
          "ticks": 88700,
          "time": 110.87499999999999,
          "value": 0
        },
        {
          "ticks": 89420,
          "time": 111.77499999999999,
          "value": 0
        },
        {
          "ticks": 89450,
          "time": 111.81249999999999,
          "value": -0.042724609375
        },
        {
          "ticks": 89480,
          "time": 111.85,
          "value": -0.0855712890625
        },
        {
          "ticks": 89510,
          "time": 111.88749999999999,
          "value": -0.1282958984375
        },
        {
          "ticks": 89520,
          "time": 111.89999999999999,
          "value": 0
        },
        {
          "ticks": 90120,
          "time": 112.64999999999999,
          "value": -0.08544921875
        },
        {
          "ticks": 90180,
          "time": 112.725,
          "value": -0.048828125
        },
        {
          "ticks": 90190,
          "time": 112.7375,
          "value": -0.03662109375
        },
        {
          "ticks": 90200,
          "time": 112.74999999999999,
          "value": -0.0244140625
        },
        {
          "ticks": 90220,
          "time": 112.775,
          "value": -0.01220703125
        },
        {
          "ticks": 90240,
          "time": 112.8,
          "value": 0
        },
        {
          "ticks": 90260,
          "time": 112.82499999999999,
          "value": 0
        },
        {
          "ticks": 90260,
          "time": 112.82499999999999,
          "value": 0
        }
      ],
      "instrument": {
        "family": "reed",
        "number": 65,
        "name": "alto sax"
      },
      "name": "",
      "notes": [
        {
          "duration": 1.1999999999999993,
          "durationTicks": 960,
          "midi": 76,
          "name": "E5",
          "ticks": 19440,
          "time": 24.3,
          "velocity": 0.8346456692913385
        },
        {
          "duration": 0.134999999999998,
          "durationTicks": 108,
          "midi": 69,
          "name": "A4",
          "ticks": 20640,
          "time": 25.8,
          "velocity": 0.7874015748031497
        },
        {
          "duration": 0.13500000000000156,
          "durationTicks": 108,
          "midi": 72,
          "name": "C5",
          "ticks": 20880,
          "time": 26.099999999999998,
          "velocity": 0.7874015748031497
        },
        {
          "duration": 0.28249999999999886,
          "durationTicks": 226,
          "midi": 76,
          "name": "E5",
          "ticks": 21000,
          "time": 26.25,
          "velocity": 0.7874015748031497
        },
        {
          "duration": 0.2700000000000031,
          "durationTicks": 216,
          "midi": 74,
          "name": "D5",
          "ticks": 21360,
          "time": 26.7,
          "velocity": 0.7874015748031497
        },
        {
          "duration": 0.13500000000000156,
          "durationTicks": 108,
          "midi": 79,
          "name": "G5",
          "ticks": 21720,
          "time": 27.15,
          "velocity": 0.7874015748031497
        },
        {
          "duration": 0.9000000000000021,
          "durationTicks": 720,
          "midi": 67,
          "name": "G4",
          "ticks": 22080,
          "time": 27.599999999999998,
          "velocity": 0.8346456692913385
        },
        {
          "duration": 0.17999999999999972,
          "durationTicks": 144,
          "midi": 67,
          "name": "G4",
          "ticks": 23040,
          "time": 28.799999999999997,
          "velocity": 0.7874015748031497
        },
        {
          "duration": 0.08999999999999986,
          "durationTicks": 72,
          "midi": 69,
          "name": "A4",
          "ticks": 23200,
          "time": 29,
          "velocity": 0.7874015748031497
        },
        {
          "duration": 0.17999999999999972,
          "durationTicks": 144,
          "midi": 72,
          "name": "C5",
          "ticks": 23280,
          "time": 29.099999999999998,
          "velocity": 0.7874015748031497
        },
        {
          "duration": 0.13500000000000156,
          "durationTicks": 108,
          "midi": 72,
          "name": "C5",
          "ticks": 23640,
          "time": 29.549999999999997,
          "velocity": 0.7874015748031497
        },
        {
          "duration": 0.28000000000000114,
          "durationTicks": 224,
          "midi": 69,
          "name": "A4",
          "ticks": 24000,
          "time": 30,
          "velocity": 0.7874015748031497
        },
        {
          "duration": 0.2700000000000031,
          "durationTicks": 216,
          "midi": 72,
          "name": "C5",
          "ticks": 24240,
          "time": 30.299999999999997,
          "velocity": 0.7874015748031497
        },
        {
          "duration": 0.2700000000000031,
          "durationTicks": 216,
          "midi": 69,
          "name": "A4",
          "ticks": 24720,
          "time": 30.9,
          "velocity": 0.7874015748031497
        },
        {
          "duration": 0.2699999999999996,
          "durationTicks": 216,
          "midi": 67,
          "name": "G4",
          "ticks": 24960,
          "time": 31.2,
          "velocity": 0.7874015748031497
        },
        {
          "duration": 0.2699999999999996,
          "durationTicks": 216,
          "midi": 74,
          "name": "D5",
          "ticks": 25200,
          "time": 31.5,
          "velocity": 0.7874015748031497
        },
        {
          "duration": 0.12124999999999986,
          "durationTicks": 97,
          "midi": 76,
          "name": "E5",
          "ticks": 25560,
          "time": 31.95,
          "velocity": 0.7874015748031497
        },
        {
          "duration": 0.8100000000000023,
          "durationTicks": 648,
          "midi": 67,
          "name": "G4",
          "ticks": 25920,
          "time": 32.4,
          "velocity": 0.7874015748031497
        },
        {
          "duration": 1.2000000000000028,
          "durationTicks": 960,
          "midi": 76,
          "name": "E5",
          "ticks": 27120,
          "time": 33.9,
          "velocity": 0.84251968503937
        },
        {
          "duration": 0.134999999999998,
          "durationTicks": 108,
          "midi": 69,
          "name": "A4",
          "ticks": 28320,
          "time": 35.4,
          "velocity": 0.7874015748031497
        },
        {
          "duration": 0.13500000000000512,
          "durationTicks": 108,
          "midi": 72,
          "name": "C5",
          "ticks": 28560,
          "time": 35.699999999999996,
          "velocity": 0.7874015748031497
        },
        {
          "duration": 0.28249999999999886,
          "durationTicks": 226,
          "midi": 76,
          "name": "E5",
          "ticks": 28680,
          "time": 35.85,
          "velocity": 0.7874015748031497
        },
        {
          "duration": 0.2700000000000031,
          "durationTicks": 216,
          "midi": 74,
          "name": "D5",
          "ticks": 29040,
          "time": 36.3,
          "velocity": 0.7874015748031497
        },
        {
          "duration": 0.134999999999998,
          "durationTicks": 108,
          "midi": 79,
          "name": "G5",
          "ticks": 29400,
          "time": 36.75,
          "velocity": 0.8818897637795275
        },
        {
          "duration": 0.8400000000000034,
          "durationTicks": 672,
          "midi": 67,
          "name": "G4",
          "ticks": 29760,
          "time": 37.199999999999996,
          "velocity": 0.7874015748031497
        },
        {
          "duration": 0.17999999999999972,
          "durationTicks": 144,
          "midi": 67,
          "name": "G4",
          "ticks": 30720,
          "time": 38.4,
          "velocity": 0.7874015748031497
        },
        {
          "duration": 0.09000000000000341,
          "durationTicks": 72,
          "midi": 69,
          "name": "A4",
          "ticks": 30880,
          "time": 38.599999999999994,
          "velocity": 0.7874015748031497
        },
        {
          "duration": 1.8000000000000043,
          "durationTicks": 1440,
          "midi": 72,
          "name": "C5",
          "ticks": 30960,
          "time": 38.699999999999996,
          "velocity": 0.8740157480314961
        },
        {
          "duration": 0.17999999999999972,
          "durationTicks": 144,
          "midi": 74,
          "name": "D5",
          "ticks": 32640,
          "time": 40.8,
          "velocity": 0.8976377952755905
        },
        {
          "duration": 0.09000000000000341,
          "durationTicks": 72,
          "midi": 72,
          "name": "C5",
          "ticks": 32800,
          "time": 40.99999999999999,
          "velocity": 0.8976377952755905
        },
        {
          "duration": 0.4799999999999969,
          "durationTicks": 384,
          "midi": 76,
          "name": "E5",
          "ticks": 32880,
          "time": 41.1,
          "velocity": 0.9212598425196851
        },
        {
          "duration": 0.1250000000000071,
          "durationTicks": 100,
          "midi": 76,
          "name": "E5",
          "ticks": 33280,
          "time": 41.599999999999994,
          "velocity": 0.7874015748031497
        },
        {
          "duration": 1.2000000000000028,
          "durationTicks": 960,
          "midi": 76,
          "name": "E5",
          "ticks": 50160,
          "time": 62.699999999999996,
          "velocity": 0.8346456692913385
        },
        {
          "duration": 0.1349999999999909,
          "durationTicks": 108,
          "midi": 69,
          "name": "A4",
          "ticks": 51360,
          "time": 64.2,
          "velocity": 0.7874015748031497
        },
        {
          "duration": 0.1349999999999909,
          "durationTicks": 108,
          "midi": 72,
          "name": "C5",
          "ticks": 51600,
          "time": 64.5,
          "velocity": 0.7874015748031497
        },
        {
          "duration": 0.28249999999999886,
          "durationTicks": 226,
          "midi": 76,
          "name": "E5",
          "ticks": 51720,
          "time": 64.64999999999999,
          "velocity": 0.7874015748031497
        },
        {
          "duration": 0.27000000000001023,
          "durationTicks": 216,
          "midi": 74,
          "name": "D5",
          "ticks": 52080,
          "time": 65.1,
          "velocity": 0.7874015748031497
        },
        {
          "duration": 0.1349999999999909,
          "durationTicks": 108,
          "midi": 79,
          "name": "G5",
          "ticks": 52440,
          "time": 65.55,
          "velocity": 0.7874015748031497
        },
        {
          "duration": 0.8999999999999915,
          "durationTicks": 720,
          "midi": 67,
          "name": "G4",
          "ticks": 52800,
          "time": 66,
          "velocity": 0.8346456692913385
        },
        {
          "duration": 0.1799999999999926,
          "durationTicks": 144,
          "midi": 67,
          "name": "G4",
          "ticks": 53760,
          "time": 67.2,
          "velocity": 0.7874015748031497
        },
        {
          "duration": 0.09000000000000341,
          "durationTicks": 72,
          "midi": 69,
          "name": "A4",
          "ticks": 53920,
          "time": 67.39999999999999,
          "velocity": 0.7874015748031497
        },
        {
          "duration": 0.1799999999999926,
          "durationTicks": 144,
          "midi": 72,
          "name": "C5",
          "ticks": 54000,
          "time": 67.5,
          "velocity": 0.7874015748031497
        },
        {
          "duration": 0.1349999999999909,
          "durationTicks": 108,
          "midi": 72,
          "name": "C5",
          "ticks": 54360,
          "time": 67.95,
          "velocity": 0.7874015748031497
        },
        {
          "duration": 0.28000000000000114,
          "durationTicks": 224,
          "midi": 69,
          "name": "A4",
          "ticks": 54720,
          "time": 68.39999999999999,
          "velocity": 0.7874015748031497
        },
        {
          "duration": 0.269999999999996,
          "durationTicks": 216,
          "midi": 72,
          "name": "C5",
          "ticks": 54960,
          "time": 68.7,
          "velocity": 0.7874015748031497
        },
        {
          "duration": 0.269999999999996,
          "durationTicks": 216,
          "midi": 69,
          "name": "A4",
          "ticks": 55440,
          "time": 69.3,
          "velocity": 0.7874015748031497
        },
        {
          "duration": 0.27000000000001023,
          "durationTicks": 216,
          "midi": 67,
          "name": "G4",
          "ticks": 55680,
          "time": 69.6,
          "velocity": 0.7874015748031497
        },
        {
          "duration": 0.27000000000001023,
          "durationTicks": 216,
          "midi": 74,
          "name": "D5",
          "ticks": 55920,
          "time": 69.89999999999999,
          "velocity": 0.7874015748031497
        },
        {
          "duration": 0.12125000000000341,
          "durationTicks": 97,
          "midi": 76,
          "name": "E5",
          "ticks": 56280,
          "time": 70.35,
          "velocity": 0.7874015748031497
        },
        {
          "duration": 0.8100000000000023,
          "durationTicks": 648,
          "midi": 67,
          "name": "G4",
          "ticks": 56640,
          "time": 70.8,
          "velocity": 0.7874015748031497
        },
        {
          "duration": 1.2000000000000028,
          "durationTicks": 960,
          "midi": 76,
          "name": "E5",
          "ticks": 57840,
          "time": 72.3,
          "velocity": 0.84251968503937
        },
        {
          "duration": 0.1349999999999909,
          "durationTicks": 108,
          "midi": 69,
          "name": "A4",
          "ticks": 59040,
          "time": 73.8,
          "velocity": 0.7874015748031497
        },
        {
          "duration": 0.13500000000000512,
          "durationTicks": 108,
          "midi": 72,
          "name": "C5",
          "ticks": 59280,
          "time": 74.1,
          "velocity": 0.7874015748031497
        },
        {
          "duration": 0.28249999999999886,
          "durationTicks": 226,
          "midi": 76,
          "name": "E5",
          "ticks": 59400,
          "time": 74.25,
          "velocity": 0.7874015748031497
        },
        {
          "duration": 0.269999999999996,
          "durationTicks": 216,
          "midi": 74,
          "name": "D5",
          "ticks": 59760,
          "time": 74.7,
          "velocity": 0.7874015748031497
        },
        {
          "duration": 0.13500000000000512,
          "durationTicks": 108,
          "midi": 79,
          "name": "G5",
          "ticks": 60120,
          "time": 75.14999999999999,
          "velocity": 0.8818897637795275
        },
        {
          "duration": 0.8400000000000034,
          "durationTicks": 672,
          "midi": 67,
          "name": "G4",
          "ticks": 60480,
          "time": 75.6,
          "velocity": 0.7874015748031497
        },
        {
          "duration": 0.18000000000000682,
          "durationTicks": 144,
          "midi": 67,
          "name": "G4",
          "ticks": 61440,
          "time": 76.8,
          "velocity": 0.7874015748031497
        },
        {
          "duration": 0.0899999999999892,
          "durationTicks": 72,
          "midi": 69,
          "name": "A4",
          "ticks": 61600,
          "time": 77,
          "velocity": 0.7874015748031497
        },
        {
          "duration": 1.7999999999999972,
          "durationTicks": 1440,
          "midi": 72,
          "name": "C5",
          "ticks": 61680,
          "time": 77.1,
          "velocity": 0.8740157480314961
        },
        {
          "duration": 0.18000000000000682,
          "durationTicks": 144,
          "midi": 74,
          "name": "D5",
          "ticks": 63360,
          "time": 79.2,
          "velocity": 0.8976377952755905
        },
        {
          "duration": 0.0899999999999892,
          "durationTicks": 72,
          "midi": 72,
          "name": "C5",
          "ticks": 63520,
          "time": 79.4,
          "velocity": 0.8976377952755905
        },
        {
          "duration": 0.480000000000004,
          "durationTicks": 384,
          "midi": 76,
          "name": "E5",
          "ticks": 63600,
          "time": 79.5,
          "velocity": 0.9212598425196851
        },
        {
          "duration": 0.12499999999998579,
          "durationTicks": 100,
          "midi": 76,
          "name": "E5",
          "ticks": 64000,
          "time": 80,
          "velocity": 0.7874015748031497
        },
        {
          "duration": 1.2000000000000028,
          "durationTicks": 960,
          "midi": 76,
          "name": "E5",
          "ticks": 80880,
          "time": 101.1,
          "velocity": 0.8346456692913385
        },
        {
          "duration": 0.13500000000000512,
          "durationTicks": 108,
          "midi": 69,
          "name": "A4",
          "ticks": 82080,
          "time": 102.6,
          "velocity": 0.7874015748031497
        },
        {
          "duration": 0.13500000000000512,
          "durationTicks": 108,
          "midi": 72,
          "name": "C5",
          "ticks": 82320,
          "time": 102.89999999999999,
          "velocity": 0.7874015748031497
        },
        {
          "duration": 0.28249999999999886,
          "durationTicks": 226,
          "midi": 76,
          "name": "E5",
          "ticks": 82440,
          "time": 103.05,
          "velocity": 0.7874015748031497
        },
        {
          "duration": 0.269999999999996,
          "durationTicks": 216,
          "midi": 74,
          "name": "D5",
          "ticks": 82800,
          "time": 103.5,
          "velocity": 0.7874015748031497
        },
        {
          "duration": 0.1349999999999909,
          "durationTicks": 108,
          "midi": 79,
          "name": "G5",
          "ticks": 83160,
          "time": 103.95,
          "velocity": 0.7874015748031497
        },
        {
          "duration": 0.9000000000000057,
          "durationTicks": 720,
          "midi": 67,
          "name": "G4",
          "ticks": 83520,
          "time": 104.39999999999999,
          "velocity": 0.8346456692913385
        },
        {
          "duration": 0.18000000000000682,
          "durationTicks": 144,
          "midi": 67,
          "name": "G4",
          "ticks": 84480,
          "time": 105.6,
          "velocity": 0.7874015748031497
        },
        {
          "duration": 0.0899999999999892,
          "durationTicks": 72,
          "midi": 69,
          "name": "A4",
          "ticks": 84640,
          "time": 105.8,
          "velocity": 0.7874015748031497
        },
        {
          "duration": 0.18000000000000682,
          "durationTicks": 144,
          "midi": 72,
          "name": "C5",
          "ticks": 84720,
          "time": 105.89999999999999,
          "velocity": 0.7874015748031497
        },
        {
          "duration": 0.13500000000000512,
          "durationTicks": 108,
          "midi": 72,
          "name": "C5",
          "ticks": 85080,
          "time": 106.35,
          "velocity": 0.7874015748031497
        },
        {
          "duration": 0.28000000000000114,
          "durationTicks": 224,
          "midi": 69,
          "name": "A4",
          "ticks": 85440,
          "time": 106.8,
          "velocity": 0.7874015748031497
        },
        {
          "duration": 0.269999999999996,
          "durationTicks": 216,
          "midi": 72,
          "name": "C5",
          "ticks": 85680,
          "time": 107.1,
          "velocity": 0.7874015748031497
        },
        {
          "duration": 0.2699999999999818,
          "durationTicks": 216,
          "midi": 69,
          "name": "A4",
          "ticks": 86160,
          "time": 107.7,
          "velocity": 0.7874015748031497
        },
        {
          "duration": 0.269999999999996,
          "durationTicks": 216,
          "midi": 67,
          "name": "G4",
          "ticks": 86400,
          "time": 108,
          "velocity": 0.7874015748031497
        },
        {
          "duration": 0.269999999999996,
          "durationTicks": 216,
          "midi": 74,
          "name": "D5",
          "ticks": 86640,
          "time": 108.3,
          "velocity": 0.7874015748031497
        },
        {
          "duration": 0.1212499999999892,
          "durationTicks": 97,
          "midi": 76,
          "name": "E5",
          "ticks": 87000,
          "time": 108.75,
          "velocity": 0.7874015748031497
        },
        {
          "duration": 0.8099999999999881,
          "durationTicks": 648,
          "midi": 67,
          "name": "G4",
          "ticks": 87360,
          "time": 109.2,
          "velocity": 0.7874015748031497
        },
        {
          "duration": 1.1999999999999886,
          "durationTicks": 960,
          "midi": 76,
          "name": "E5",
          "ticks": 88560,
          "time": 110.7,
          "velocity": 0.84251968503937
        },
        {
          "duration": 0.1349999999999909,
          "durationTicks": 108,
          "midi": 69,
          "name": "A4",
          "ticks": 89760,
          "time": 112.2,
          "velocity": 0.7874015748031497
        },
        {
          "duration": 0.1349999999999909,
          "durationTicks": 108,
          "midi": 72,
          "name": "C5",
          "ticks": 90000,
          "time": 112.5,
          "velocity": 0.7874015748031497
        },
        {
          "duration": 0.28249999999999886,
          "durationTicks": 226,
          "midi": 76,
          "name": "E5",
          "ticks": 90120,
          "time": 112.64999999999999,
          "velocity": 0.7874015748031497
        },
        {
          "duration": 0.269999999999996,
          "durationTicks": 216,
          "midi": 74,
          "name": "D5",
          "ticks": 90480,
          "time": 113.1,
          "velocity": 0.7874015748031497
        },
        {
          "duration": 0.1349999999999909,
          "durationTicks": 108,
          "midi": 79,
          "name": "G5",
          "ticks": 90840,
          "time": 113.55,
          "velocity": 0.8818897637795275
        },
        {
          "duration": 0.8400000000000034,
          "durationTicks": 672,
          "midi": 67,
          "name": "G4",
          "ticks": 91200,
          "time": 114,
          "velocity": 0.7874015748031497
        }
      ]
    },
    {
      "channel": 0,
      "controlChanges": {
        "0": [
          {
            "number": 0,
            "ticks": 888,
            "time": 1.11,
            "value": 0
          }
        ],
        "7": [
          {
            "number": 7,
            "ticks": 900,
            "time": 1.125,
            "value": 0.7874015748031497
          }
        ],
        "10": [
          {
            "number": 10,
            "ticks": 904,
            "time": 1.13,
            "value": 0.5039370078740157
          }
        ],
        "32": [
          {
            "number": 32,
            "ticks": 892,
            "time": 1.115,
            "value": 0.023622047244094488
          }
        ],
        "91": [
          {
            "number": 91,
            "ticks": 908,
            "time": 1.135,
            "value": 0.31496062992125984
          }
        ],
        "93": [
          {
            "number": 93,
            "ticks": 912,
            "time": 1.14,
            "value": 0
          }
        ]
      },
      "pitchBends": [],
      "instrument": {
        "family": "piano",
        "number": 0,
        "name": "acoustic grand piano"
      },
      "name": "",
      "notes": [],
      "endOfTrackTicks": 912
    },
    {
      "channel": 0,
      "controlChanges": {
        "0": [
          {
            "number": 0,
            "ticks": 920,
            "time": 1.15,
            "value": 0
          }
        ],
        "7": [
          {
            "number": 7,
            "ticks": 932,
            "time": 1.165,
            "value": 0.7874015748031497
          }
        ],
        "10": [
          {
            "number": 10,
            "ticks": 936,
            "time": 1.17,
            "value": 0.5039370078740157
          }
        ],
        "32": [
          {
            "number": 32,
            "ticks": 924,
            "time": 1.155,
            "value": 0.023622047244094488
          }
        ],
        "91": [
          {
            "number": 91,
            "ticks": 940,
            "time": 1.1749999999999998,
            "value": 0.31496062992125984
          }
        ],
        "93": [
          {
            "number": 93,
            "ticks": 944,
            "time": 1.18,
            "value": 0
          }
        ]
      },
      "pitchBends": [],
      "instrument": {
        "family": "piano",
        "number": 0,
        "name": "acoustic grand piano"
      },
      "name": "",
      "notes": [],
      "endOfTrackTicks": 944
    },
    {
      "channel": 0,
      "controlChanges": {
        "0": [
          {
            "number": 0,
            "ticks": 952,
            "time": 1.19,
            "value": 0
          }
        ],
        "32": [
          {
            "number": 32,
            "ticks": 956,
            "time": 1.195,
            "value": 0.023622047244094488
          }
        ]
      },
      "pitchBends": [],
      "instrument": {
        "family": "piano",
        "number": 0,
        "name": "acoustic grand piano"
      },
      "name": "",
      "notes": [],
      "endOfTrackTicks": 92152
    },
    {
      "channel": 15,
      "controlChanges": {
        "1": [
          {
            "number": 1,
            "ticks": 3020,
            "time": 3.775,
            "value": 0
          },
          {
            "number": 1,
            "ticks": 4860,
            "time": 6.075,
            "value": 0
          },
          {
            "number": 1,
            "ticks": 5420,
            "time": 6.7749999999999995,
            "value": 0
          },
          {
            "number": 1,
            "ticks": 7580,
            "time": 9.475,
            "value": 0
          },
          {
            "number": 1,
            "ticks": 8700,
            "time": 10.875,
            "value": 0
          },
          {
            "number": 1,
            "ticks": 9260,
            "time": 11.575000000000001,
            "value": 0
          },
          {
            "number": 1,
            "ticks": 11180,
            "time": 13.975,
            "value": 0
          },
          {
            "number": 1,
            "ticks": 12540,
            "time": 15.674999999999999,
            "value": 0
          },
          {
            "number": 1,
            "ticks": 13100,
            "time": 16.375,
            "value": 0
          },
          {
            "number": 1,
            "ticks": 15260,
            "time": 19.075,
            "value": 0
          },
          {
            "number": 1,
            "ticks": 16380,
            "time": 20.474999999999998,
            "value": 0
          },
          {
            "number": 1,
            "ticks": 16940,
            "time": 21.174999999999997,
            "value": 0
          },
          {
            "number": 1,
            "ticks": 19020,
            "time": 23.775,
            "value": 0
          },
          {
            "number": 1,
            "ticks": 33740,
            "time": 42.175000000000004,
            "value": 0
          },
          {
            "number": 1,
            "ticks": 66300,
            "time": 82.875,
            "value": 0
          },
          {
            "number": 1,
            "ticks": 66860,
            "time": 83.57499999999999,
            "value": 0
          },
          {
            "number": 1,
            "ticks": 69020,
            "time": 86.27499999999999,
            "value": 0
          },
          {
            "number": 1,
            "ticks": 70140,
            "time": 87.675,
            "value": 0
          },
          {
            "number": 1,
            "ticks": 70700,
            "time": 88.37499999999999,
            "value": 0
          },
          {
            "number": 1,
            "ticks": 72620,
            "time": 90.77499999999999,
            "value": 0
          },
          {
            "number": 1,
            "ticks": 73980,
            "time": 92.475,
            "value": 0
          },
          {
            "number": 1,
            "ticks": 74540,
            "time": 93.175,
            "value": 0
          },
          {
            "number": 1,
            "ticks": 76700,
            "time": 95.87499999999999,
            "value": 0
          },
          {
            "number": 1,
            "ticks": 77820,
            "time": 97.27499999999999,
            "value": 0
          },
          {
            "number": 1,
            "ticks": 78380,
            "time": 97.975,
            "value": 0
          },
          {
            "number": 1,
            "ticks": 80460,
            "time": 100.575,
            "value": 0
          }
        ],
        "6": [
          {
            "number": 6,
            "ticks": 2880,
            "time": 3.5999999999999996,
            "value": 0.09448818897637795
          },
          {
            "number": 6,
            "ticks": 4720,
            "time": 5.9,
            "value": 0.09448818897637795
          },
          {
            "number": 6,
            "ticks": 5280,
            "time": 6.6,
            "value": 0.09448818897637795
          },
          {
            "number": 6,
            "ticks": 7440,
            "time": 9.299999999999999,
            "value": 0.09448818897637795
          },
          {
            "number": 6,
            "ticks": 8560,
            "time": 10.7,
            "value": 0.09448818897637795
          },
          {
            "number": 6,
            "ticks": 9120,
            "time": 11.4,
            "value": 0.09448818897637795
          },
          {
            "number": 6,
            "ticks": 11040,
            "time": 13.799999999999999,
            "value": 0.09448818897637795
          },
          {
            "number": 6,
            "ticks": 12400,
            "time": 15.499999999999998,
            "value": 0.09448818897637795
          },
          {
            "number": 6,
            "ticks": 12960,
            "time": 16.2,
            "value": 0.09448818897637795
          },
          {
            "number": 6,
            "ticks": 15120,
            "time": 18.9,
            "value": 0.09448818897637795
          },
          {
            "number": 6,
            "ticks": 16240,
            "time": 20.3,
            "value": 0.09448818897637795
          },
          {
            "number": 6,
            "ticks": 16800,
            "time": 21,
            "value": 0.09448818897637795
          },
          {
            "number": 6,
            "ticks": 18880,
            "time": 23.6,
            "value": 0.09448818897637795
          },
          {
            "number": 6,
            "ticks": 33600,
            "time": 42,
            "value": 0.09448818897637795
          },
          {
            "number": 6,
            "ticks": 66160,
            "time": 82.7,
            "value": 0.09448818897637795
          },
          {
            "number": 6,
            "ticks": 66720,
            "time": 83.39999999999999,
            "value": 0.09448818897637795
          },
          {
            "number": 6,
            "ticks": 68880,
            "time": 86.1,
            "value": 0.09448818897637795
          },
          {
            "number": 6,
            "ticks": 70000,
            "time": 87.5,
            "value": 0.09448818897637795
          },
          {
            "number": 6,
            "ticks": 70560,
            "time": 88.2,
            "value": 0.09448818897637795
          },
          {
            "number": 6,
            "ticks": 72480,
            "time": 90.6,
            "value": 0.09448818897637795
          },
          {
            "number": 6,
            "ticks": 73840,
            "time": 92.3,
            "value": 0.09448818897637795
          },
          {
            "number": 6,
            "ticks": 74400,
            "time": 93,
            "value": 0.09448818897637795
          },
          {
            "number": 6,
            "ticks": 76560,
            "time": 95.7,
            "value": 0.09448818897637795
          },
          {
            "number": 6,
            "ticks": 77680,
            "time": 97.10000000000001,
            "value": 0.09448818897637795
          },
          {
            "number": 6,
            "ticks": 78240,
            "time": 97.8,
            "value": 0.09448818897637795
          },
          {
            "number": 6,
            "ticks": 80320,
            "time": 100.4,
            "value": 0.09448818897637795
          }
        ],
        "7": [
          {
            "number": 7,
            "ticks": 964,
            "time": 1.2049999999999998,
            "value": 0.7874015748031497
          }
        ],
        "10": [
          {
            "number": 10,
            "ticks": 968,
            "time": 1.21,
            "value": 0.5039370078740157
          }
        ],
        "91": [
          {
            "number": 91,
            "ticks": 972,
            "time": 1.2149999999999999,
            "value": 0
          }
        ],
        "93": [
          {
            "number": 93,
            "ticks": 976,
            "time": 1.22,
            "value": 0
          }
        ],
        "100": [
          {
            "number": 100,
            "ticks": 2880,
            "time": 3.5999999999999996,
            "value": 0
          },
          {
            "number": 100,
            "ticks": 4720,
            "time": 5.9,
            "value": 0
          },
          {
            "number": 100,
            "ticks": 5280,
            "time": 6.6,
            "value": 0
          },
          {
            "number": 100,
            "ticks": 7440,
            "time": 9.299999999999999,
            "value": 0
          },
          {
            "number": 100,
            "ticks": 8560,
            "time": 10.7,
            "value": 0
          },
          {
            "number": 100,
            "ticks": 9120,
            "time": 11.4,
            "value": 0
          },
          {
            "number": 100,
            "ticks": 11040,
            "time": 13.799999999999999,
            "value": 0
          },
          {
            "number": 100,
            "ticks": 12400,
            "time": 15.499999999999998,
            "value": 0
          },
          {
            "number": 100,
            "ticks": 12960,
            "time": 16.2,
            "value": 0
          },
          {
            "number": 100,
            "ticks": 15120,
            "time": 18.9,
            "value": 0
          },
          {
            "number": 100,
            "ticks": 16240,
            "time": 20.3,
            "value": 0
          },
          {
            "number": 100,
            "ticks": 16800,
            "time": 21,
            "value": 0
          },
          {
            "number": 100,
            "ticks": 18880,
            "time": 23.6,
            "value": 0
          },
          {
            "number": 100,
            "ticks": 33600,
            "time": 42,
            "value": 0
          },
          {
            "number": 100,
            "ticks": 66160,
            "time": 82.7,
            "value": 0
          },
          {
            "number": 100,
            "ticks": 66720,
            "time": 83.39999999999999,
            "value": 0
          },
          {
            "number": 100,
            "ticks": 68880,
            "time": 86.1,
            "value": 0
          },
          {
            "number": 100,
            "ticks": 70000,
            "time": 87.5,
            "value": 0
          },
          {
            "number": 100,
            "ticks": 70560,
            "time": 88.2,
            "value": 0
          },
          {
            "number": 100,
            "ticks": 72480,
            "time": 90.6,
            "value": 0
          },
          {
            "number": 100,
            "ticks": 73840,
            "time": 92.3,
            "value": 0
          },
          {
            "number": 100,
            "ticks": 74400,
            "time": 93,
            "value": 0
          },
          {
            "number": 100,
            "ticks": 76560,
            "time": 95.7,
            "value": 0
          },
          {
            "number": 100,
            "ticks": 77680,
            "time": 97.10000000000001,
            "value": 0
          },
          {
            "number": 100,
            "ticks": 78240,
            "time": 97.8,
            "value": 0
          },
          {
            "number": 100,
            "ticks": 80320,
            "time": 100.4,
            "value": 0
          }
        ],
        "101": [
          {
            "number": 101,
            "ticks": 2880,
            "time": 3.5999999999999996,
            "value": 0
          },
          {
            "number": 101,
            "ticks": 4720,
            "time": 5.9,
            "value": 0
          },
          {
            "number": 101,
            "ticks": 5280,
            "time": 6.6,
            "value": 0
          },
          {
            "number": 101,
            "ticks": 7440,
            "time": 9.299999999999999,
            "value": 0
          },
          {
            "number": 101,
            "ticks": 8560,
            "time": 10.7,
            "value": 0
          },
          {
            "number": 101,
            "ticks": 9120,
            "time": 11.4,
            "value": 0
          },
          {
            "number": 101,
            "ticks": 11040,
            "time": 13.799999999999999,
            "value": 0
          },
          {
            "number": 101,
            "ticks": 12400,
            "time": 15.499999999999998,
            "value": 0
          },
          {
            "number": 101,
            "ticks": 12960,
            "time": 16.2,
            "value": 0
          },
          {
            "number": 101,
            "ticks": 15120,
            "time": 18.9,
            "value": 0
          },
          {
            "number": 101,
            "ticks": 16240,
            "time": 20.3,
            "value": 0
          },
          {
            "number": 101,
            "ticks": 16800,
            "time": 21,
            "value": 0
          },
          {
            "number": 101,
            "ticks": 18880,
            "time": 23.6,
            "value": 0
          },
          {
            "number": 101,
            "ticks": 33600,
            "time": 42,
            "value": 0
          },
          {
            "number": 101,
            "ticks": 66160,
            "time": 82.7,
            "value": 0
          },
          {
            "number": 101,
            "ticks": 66720,
            "time": 83.39999999999999,
            "value": 0
          },
          {
            "number": 101,
            "ticks": 68880,
            "time": 86.1,
            "value": 0
          },
          {
            "number": 101,
            "ticks": 70000,
            "time": 87.5,
            "value": 0
          },
          {
            "number": 101,
            "ticks": 70560,
            "time": 88.2,
            "value": 0
          },
          {
            "number": 101,
            "ticks": 72480,
            "time": 90.6,
            "value": 0
          },
          {
            "number": 101,
            "ticks": 73840,
            "time": 92.3,
            "value": 0
          },
          {
            "number": 101,
            "ticks": 74400,
            "time": 93,
            "value": 0
          },
          {
            "number": 101,
            "ticks": 76560,
            "time": 95.7,
            "value": 0
          },
          {
            "number": 101,
            "ticks": 77680,
            "time": 97.10000000000001,
            "value": 0
          },
          {
            "number": 101,
            "ticks": 78240,
            "time": 97.8,
            "value": 0
          },
          {
            "number": 101,
            "ticks": 80320,
            "time": 100.4,
            "value": 0
          }
        ]
      },
      "pitchBends": [
        {
          "ticks": 2880,
          "time": 3.5999999999999996,
          "value": -0.08544921875
        },
        {
          "ticks": 2940,
          "time": 3.675,
          "value": -0.048828125
        },
        {
          "ticks": 2950,
          "time": 3.6874999999999996,
          "value": -0.03662109375
        },
        {
          "ticks": 2960,
          "time": 3.7,
          "value": -0.0244140625
        },
        {
          "ticks": 2980,
          "time": 3.7249999999999996,
          "value": -0.01220703125
        },
        {
          "ticks": 3000,
          "time": 3.75,
          "value": 0
        },
        {
          "ticks": 3020,
          "time": 3.775,
          "value": 0
        },
        {
          "ticks": 3020,
          "time": 3.775,
          "value": 0
        },
        {
          "ticks": 4720,
          "time": 5.9,
          "value": -0.08544921875
        },
        {
          "ticks": 4780,
          "time": 5.9750000000000005,
          "value": -0.048828125
        },
        {
          "ticks": 4790,
          "time": 5.9875,
          "value": -0.03662109375
        },
        {
          "ticks": 4800,
          "time": 6,
          "value": -0.0244140625
        },
        {
          "ticks": 4820,
          "time": 6.0249999999999995,
          "value": -0.01220703125
        },
        {
          "ticks": 4840,
          "time": 6.05,
          "value": 0
        },
        {
          "ticks": 4860,
          "time": 6.075,
          "value": 0
        },
        {
          "ticks": 4860,
          "time": 6.075,
          "value": 0
        },
        {
          "ticks": 5280,
          "time": 6.6,
          "value": -0.08544921875
        },
        {
          "ticks": 5340,
          "time": 6.675,
          "value": -0.048828125
        },
        {
          "ticks": 5350,
          "time": 6.6875,
          "value": -0.03662109375
        },
        {
          "ticks": 5360,
          "time": 6.699999999999999,
          "value": -0.0244140625
        },
        {
          "ticks": 5380,
          "time": 6.7250000000000005,
          "value": -0.01220703125
        },
        {
          "ticks": 5400,
          "time": 6.75,
          "value": 0
        },
        {
          "ticks": 5420,
          "time": 6.7749999999999995,
          "value": 0
        },
        {
          "ticks": 5420,
          "time": 6.7749999999999995,
          "value": 0
        },
        {
          "ticks": 7440,
          "time": 9.299999999999999,
          "value": -0.08544921875
        },
        {
          "ticks": 7500,
          "time": 9.375,
          "value": -0.048828125
        },
        {
          "ticks": 7510,
          "time": 9.3875,
          "value": -0.03662109375
        },
        {
          "ticks": 7520,
          "time": 9.399999999999999,
          "value": -0.0244140625
        },
        {
          "ticks": 7540,
          "time": 9.425,
          "value": -0.01220703125
        },
        {
          "ticks": 7560,
          "time": 9.45,
          "value": 0
        },
        {
          "ticks": 7580,
          "time": 9.475,
          "value": 0
        },
        {
          "ticks": 7580,
          "time": 9.475,
          "value": 0
        },
        {
          "ticks": 8560,
          "time": 10.7,
          "value": -0.08544921875
        },
        {
          "ticks": 8620,
          "time": 10.774999999999999,
          "value": -0.048828125
        },
        {
          "ticks": 8630,
          "time": 10.7875,
          "value": -0.03662109375
        },
        {
          "ticks": 8640,
          "time": 10.799999999999999,
          "value": -0.0244140625
        },
        {
          "ticks": 8660,
          "time": 10.825000000000001,
          "value": -0.01220703125
        },
        {
          "ticks": 8680,
          "time": 10.85,
          "value": 0
        },
        {
          "ticks": 8700,
          "time": 10.875,
          "value": 0
        },
        {
          "ticks": 8700,
          "time": 10.875,
          "value": 0
        },
        {
          "ticks": 9120,
          "time": 11.4,
          "value": -0.08544921875
        },
        {
          "ticks": 9180,
          "time": 11.475,
          "value": -0.048828125
        },
        {
          "ticks": 9190,
          "time": 11.487499999999999,
          "value": -0.03662109375
        },
        {
          "ticks": 9200,
          "time": 11.5,
          "value": -0.0244140625
        },
        {
          "ticks": 9220,
          "time": 11.524999999999999,
          "value": -0.01220703125
        },
        {
          "ticks": 9240,
          "time": 11.549999999999999,
          "value": 0
        },
        {
          "ticks": 9260,
          "time": 11.575000000000001,
          "value": 0
        },
        {
          "ticks": 9260,
          "time": 11.575000000000001,
          "value": 0
        },
        {
          "ticks": 11040,
          "time": 13.799999999999999,
          "value": -0.08544921875
        },
        {
          "ticks": 11100,
          "time": 13.875,
          "value": -0.048828125
        },
        {
          "ticks": 11110,
          "time": 13.8875,
          "value": -0.03662109375
        },
        {
          "ticks": 11120,
          "time": 13.9,
          "value": -0.0244140625
        },
        {
          "ticks": 11140,
          "time": 13.924999999999999,
          "value": -0.01220703125
        },
        {
          "ticks": 11160,
          "time": 13.95,
          "value": 0
        },
        {
          "ticks": 11180,
          "time": 13.975,
          "value": 0
        },
        {
          "ticks": 11180,
          "time": 13.975,
          "value": 0
        },
        {
          "ticks": 12400,
          "time": 15.499999999999998,
          "value": -0.08544921875
        },
        {
          "ticks": 12460,
          "time": 15.575,
          "value": -0.048828125
        },
        {
          "ticks": 12470,
          "time": 15.5875,
          "value": -0.03662109375
        },
        {
          "ticks": 12480,
          "time": 15.6,
          "value": -0.0244140625
        },
        {
          "ticks": 12500,
          "time": 15.625,
          "value": -0.01220703125
        },
        {
          "ticks": 12520,
          "time": 15.649999999999999,
          "value": 0
        },
        {
          "ticks": 12540,
          "time": 15.674999999999999,
          "value": 0
        },
        {
          "ticks": 12540,
          "time": 15.674999999999999,
          "value": 0
        },
        {
          "ticks": 12960,
          "time": 16.2,
          "value": -0.08544921875
        },
        {
          "ticks": 13020,
          "time": 16.275,
          "value": -0.048828125
        },
        {
          "ticks": 13030,
          "time": 16.287499999999998,
          "value": -0.03662109375
        },
        {
          "ticks": 13040,
          "time": 16.3,
          "value": -0.0244140625
        },
        {
          "ticks": 13060,
          "time": 16.325,
          "value": -0.01220703125
        },
        {
          "ticks": 13080,
          "time": 16.349999999999998,
          "value": 0
        },
        {
          "ticks": 13100,
          "time": 16.375,
          "value": 0
        },
        {
          "ticks": 13100,
          "time": 16.375,
          "value": 0
        },
        {
          "ticks": 15120,
          "time": 18.9,
          "value": -0.08544921875
        },
        {
          "ticks": 15180,
          "time": 18.974999999999998,
          "value": -0.048828125
        },
        {
          "ticks": 15190,
          "time": 18.987499999999997,
          "value": -0.03662109375
        },
        {
          "ticks": 15200,
          "time": 19,
          "value": -0.0244140625
        },
        {
          "ticks": 15220,
          "time": 19.025,
          "value": -0.01220703125
        },
        {
          "ticks": 15240,
          "time": 19.05,
          "value": 0
        },
        {
          "ticks": 15260,
          "time": 19.075,
          "value": 0
        },
        {
          "ticks": 15260,
          "time": 19.075,
          "value": 0
        },
        {
          "ticks": 16240,
          "time": 20.3,
          "value": -0.08544921875
        },
        {
          "ticks": 16300,
          "time": 20.375,
          "value": -0.048828125
        },
        {
          "ticks": 16310,
          "time": 20.3875,
          "value": -0.03662109375
        },
        {
          "ticks": 16320,
          "time": 20.4,
          "value": -0.0244140625
        },
        {
          "ticks": 16340,
          "time": 20.424999999999997,
          "value": -0.01220703125
        },
        {
          "ticks": 16360,
          "time": 20.45,
          "value": 0
        },
        {
          "ticks": 16380,
          "time": 20.474999999999998,
          "value": 0
        },
        {
          "ticks": 16380,
          "time": 20.474999999999998,
          "value": 0
        },
        {
          "ticks": 16800,
          "time": 21,
          "value": -0.08544921875
        },
        {
          "ticks": 16860,
          "time": 21.075,
          "value": -0.048828125
        },
        {
          "ticks": 16870,
          "time": 21.087500000000002,
          "value": -0.03662109375
        },
        {
          "ticks": 16880,
          "time": 21.099999999999998,
          "value": -0.0244140625
        },
        {
          "ticks": 16900,
          "time": 21.125,
          "value": -0.01220703125
        },
        {
          "ticks": 16920,
          "time": 21.15,
          "value": 0
        },
        {
          "ticks": 16940,
          "time": 21.174999999999997,
          "value": 0
        },
        {
          "ticks": 16940,
          "time": 21.174999999999997,
          "value": 0
        },
        {
          "ticks": 18880,
          "time": 23.6,
          "value": -0.08544921875
        },
        {
          "ticks": 18940,
          "time": 23.675,
          "value": -0.048828125
        },
        {
          "ticks": 18950,
          "time": 23.687499999999996,
          "value": -0.03662109375
        },
        {
          "ticks": 18960,
          "time": 23.7,
          "value": -0.0244140625
        },
        {
          "ticks": 18980,
          "time": 23.724999999999998,
          "value": -0.01220703125
        },
        {
          "ticks": 19000,
          "time": 23.75,
          "value": 0
        },
        {
          "ticks": 19020,
          "time": 23.775,
          "value": 0
        },
        {
          "ticks": 19020,
          "time": 23.775,
          "value": 0
        },
        {
          "ticks": 33600,
          "time": 42,
          "value": -0.08544921875
        },
        {
          "ticks": 33660,
          "time": 42.074999999999996,
          "value": -0.048828125
        },
        {
          "ticks": 33670,
          "time": 42.0875,
          "value": -0.03662109375
        },
        {
          "ticks": 33680,
          "time": 42.1,
          "value": -0.0244140625
        },
        {
          "ticks": 33700,
          "time": 42.12499999999999,
          "value": -0.01220703125
        },
        {
          "ticks": 33720,
          "time": 42.15,
          "value": 0
        },
        {
          "ticks": 33740,
          "time": 42.175000000000004,
          "value": 0
        },
        {
          "ticks": 33740,
          "time": 42.175000000000004,
          "value": 0
        },
        {
          "ticks": 66160,
          "time": 82.7,
          "value": -0.08544921875
        },
        {
          "ticks": 66220,
          "time": 82.775,
          "value": -0.048828125
        },
        {
          "ticks": 66230,
          "time": 82.7875,
          "value": -0.03662109375
        },
        {
          "ticks": 66240,
          "time": 82.8,
          "value": -0.0244140625
        },
        {
          "ticks": 66260,
          "time": 82.82499999999999,
          "value": -0.01220703125
        },
        {
          "ticks": 66280,
          "time": 82.85000000000001,
          "value": 0
        },
        {
          "ticks": 66300,
          "time": 82.875,
          "value": 0
        },
        {
          "ticks": 66300,
          "time": 82.875,
          "value": 0
        },
        {
          "ticks": 66720,
          "time": 83.39999999999999,
          "value": -0.08544921875
        },
        {
          "ticks": 66780,
          "time": 83.475,
          "value": -0.048828125
        },
        {
          "ticks": 66790,
          "time": 83.4875,
          "value": -0.03662109375
        },
        {
          "ticks": 66800,
          "time": 83.49999999999999,
          "value": -0.0244140625
        },
        {
          "ticks": 66820,
          "time": 83.525,
          "value": -0.01220703125
        },
        {
          "ticks": 66840,
          "time": 83.55,
          "value": 0
        },
        {
          "ticks": 66860,
          "time": 83.57499999999999,
          "value": 0
        },
        {
          "ticks": 66860,
          "time": 83.57499999999999,
          "value": 0
        },
        {
          "ticks": 68880,
          "time": 86.1,
          "value": -0.08544921875
        },
        {
          "ticks": 68940,
          "time": 86.175,
          "value": -0.048828125
        },
        {
          "ticks": 68950,
          "time": 86.1875,
          "value": -0.03662109375
        },
        {
          "ticks": 68960,
          "time": 86.19999999999999,
          "value": -0.0244140625
        },
        {
          "ticks": 68980,
          "time": 86.22500000000001,
          "value": -0.01220703125
        },
        {
          "ticks": 69000,
          "time": 86.25,
          "value": 0
        },
        {
          "ticks": 69020,
          "time": 86.27499999999999,
          "value": 0
        },
        {
          "ticks": 69020,
          "time": 86.27499999999999,
          "value": 0
        },
        {
          "ticks": 70000,
          "time": 87.5,
          "value": -0.08544921875
        },
        {
          "ticks": 70060,
          "time": 87.575,
          "value": -0.048828125
        },
        {
          "ticks": 70070,
          "time": 87.58749999999999,
          "value": -0.03662109375
        },
        {
          "ticks": 70080,
          "time": 87.6,
          "value": -0.0244140625
        },
        {
          "ticks": 70100,
          "time": 87.62499999999999,
          "value": -0.01220703125
        },
        {
          "ticks": 70120,
          "time": 87.65,
          "value": 0
        },
        {
          "ticks": 70140,
          "time": 87.675,
          "value": 0
        },
        {
          "ticks": 70140,
          "time": 87.675,
          "value": 0
        },
        {
          "ticks": 70560,
          "time": 88.2,
          "value": -0.08544921875
        },
        {
          "ticks": 70620,
          "time": 88.27499999999999,
          "value": -0.048828125
        },
        {
          "ticks": 70630,
          "time": 88.28750000000001,
          "value": -0.03662109375
        },
        {
          "ticks": 70640,
          "time": 88.3,
          "value": -0.0244140625
        },
        {
          "ticks": 70660,
          "time": 88.325,
          "value": -0.01220703125
        },
        {
          "ticks": 70680,
          "time": 88.35,
          "value": 0
        },
        {
          "ticks": 70700,
          "time": 88.37499999999999,
          "value": 0
        },
        {
          "ticks": 70700,
          "time": 88.37499999999999,
          "value": 0
        },
        {
          "ticks": 72480,
          "time": 90.6,
          "value": -0.08544921875
        },
        {
          "ticks": 72540,
          "time": 90.675,
          "value": -0.048828125
        },
        {
          "ticks": 72550,
          "time": 90.6875,
          "value": -0.03662109375
        },
        {
          "ticks": 72560,
          "time": 90.69999999999999,
          "value": -0.0244140625
        },
        {
          "ticks": 72580,
          "time": 90.72500000000001,
          "value": -0.01220703125
        },
        {
          "ticks": 72600,
          "time": 90.75,
          "value": 0
        },
        {
          "ticks": 72620,
          "time": 90.77499999999999,
          "value": 0
        },
        {
          "ticks": 72620,
          "time": 90.77499999999999,
          "value": 0
        },
        {
          "ticks": 73840,
          "time": 92.3,
          "value": -0.08544921875
        },
        {
          "ticks": 73900,
          "time": 92.375,
          "value": -0.048828125
        },
        {
          "ticks": 73910,
          "time": 92.38749999999999,
          "value": -0.03662109375
        },
        {
          "ticks": 73920,
          "time": 92.39999999999999,
          "value": -0.0244140625
        },
        {
          "ticks": 73940,
          "time": 92.425,
          "value": -0.01220703125
        },
        {
          "ticks": 73960,
          "time": 92.45,
          "value": 0
        },
        {
          "ticks": 73980,
          "time": 92.475,
          "value": 0
        },
        {
          "ticks": 73980,
          "time": 92.475,
          "value": 0
        },
        {
          "ticks": 74400,
          "time": 93,
          "value": -0.08544921875
        },
        {
          "ticks": 74460,
          "time": 93.075,
          "value": -0.048828125
        },
        {
          "ticks": 74470,
          "time": 93.0875,
          "value": -0.03662109375
        },
        {
          "ticks": 74480,
          "time": 93.1,
          "value": -0.0244140625
        },
        {
          "ticks": 74500,
          "time": 93.125,
          "value": -0.01220703125
        },
        {
          "ticks": 74520,
          "time": 93.14999999999999,
          "value": 0
        },
        {
          "ticks": 74540,
          "time": 93.175,
          "value": 0
        },
        {
          "ticks": 74540,
          "time": 93.175,
          "value": 0
        },
        {
          "ticks": 76560,
          "time": 95.7,
          "value": -0.08544921875
        },
        {
          "ticks": 76620,
          "time": 95.77499999999999,
          "value": -0.048828125
        },
        {
          "ticks": 76630,
          "time": 95.78750000000001,
          "value": -0.03662109375
        },
        {
          "ticks": 76640,
          "time": 95.8,
          "value": -0.0244140625
        },
        {
          "ticks": 76660,
          "time": 95.825,
          "value": -0.01220703125
        },
        {
          "ticks": 76680,
          "time": 95.85,
          "value": 0
        },
        {
          "ticks": 76700,
          "time": 95.87499999999999,
          "value": 0
        },
        {
          "ticks": 76700,
          "time": 95.87499999999999,
          "value": 0
        },
        {
          "ticks": 77680,
          "time": 97.10000000000001,
          "value": -0.08544921875
        },
        {
          "ticks": 77740,
          "time": 97.175,
          "value": -0.048828125
        },
        {
          "ticks": 77750,
          "time": 97.18749999999999,
          "value": -0.03662109375
        },
        {
          "ticks": 77760,
          "time": 97.2,
          "value": -0.0244140625
        },
        {
          "ticks": 77780,
          "time": 97.225,
          "value": -0.01220703125
        },
        {
          "ticks": 77800,
          "time": 97.25,
          "value": 0
        },
        {
          "ticks": 77820,
          "time": 97.27499999999999,
          "value": 0
        },
        {
          "ticks": 77820,
          "time": 97.27499999999999,
          "value": 0
        },
        {
          "ticks": 78240,
          "time": 97.8,
          "value": -0.08544921875
        },
        {
          "ticks": 78300,
          "time": 97.875,
          "value": -0.048828125
        },
        {
          "ticks": 78310,
          "time": 97.8875,
          "value": -0.03662109375
        },
        {
          "ticks": 78320,
          "time": 97.89999999999999,
          "value": -0.0244140625
        },
        {
          "ticks": 78340,
          "time": 97.925,
          "value": -0.01220703125
        },
        {
          "ticks": 78360,
          "time": 97.95,
          "value": 0
        },
        {
          "ticks": 78380,
          "time": 97.975,
          "value": 0
        },
        {
          "ticks": 78380,
          "time": 97.975,
          "value": 0
        },
        {
          "ticks": 80320,
          "time": 100.4,
          "value": -0.08544921875
        },
        {
          "ticks": 80380,
          "time": 100.47500000000001,
          "value": -0.048828125
        },
        {
          "ticks": 80390,
          "time": 100.4875,
          "value": -0.03662109375
        },
        {
          "ticks": 80400,
          "time": 100.5,
          "value": -0.0244140625
        },
        {
          "ticks": 80420,
          "time": 100.52499999999999,
          "value": -0.01220703125
        },
        {
          "ticks": 80440,
          "time": 100.55,
          "value": 0
        },
        {
          "ticks": 80460,
          "time": 100.575,
          "value": 0
        },
        {
          "ticks": 80460,
          "time": 100.575,
          "value": 0
        }
      ],
      "instrument": {
        "family": "bass",
        "number": 38,
        "name": "synth bass 1"
      },
      "name": "",
      "notes": [
        {
          "duration": 0.18000000000000016,
          "durationTicks": 144,
          "midi": 51,
          "name": "D#3",
          "ticks": 2880,
          "time": 3.5999999999999996,
          "velocity": 0.7874015748031497
        },
        {
          "duration": 0.08999999999999986,
          "durationTicks": 72,
          "midi": 50,
          "name": "D3",
          "ticks": 3040,
          "time": 3.8,
          "velocity": 0.7874015748031497
        },
        {
          "duration": 0.1800000000000006,
          "durationTicks": 144,
          "midi": 48,
          "name": "C3",
          "ticks": 3280,
          "time": 4.1,
          "velocity": 0.7874015748031497
        },
        {
          "duration": 0.09000000000000075,
          "durationTicks": 72,
          "midi": 45,
          "name": "A2",
          "ticks": 3520,
          "time": 4.3999999999999995,
          "velocity": 0.7874015748031497
        },
        {
          "duration": 0.17999999999999972,
          "durationTicks": 144,
          "midi": 43,
          "name": "G2",
          "ticks": 3600,
          "time": 4.5,
          "velocity": 0.7874015748031497
        },
        {
          "duration": 0.09000000000000075,
          "durationTicks": 72,
          "midi": 44,
          "name": "G#2",
          "ticks": 3760,
          "time": 4.699999999999999,
          "velocity": 0.7874015748031497
        },
        {
          "duration": 0.1800000000000006,
          "durationTicks": 144,
          "midi": 45,
          "name": "A2",
          "ticks": 3840,
          "time": 4.8,
          "velocity": 0.7874015748031497
        },
        {
          "duration": 0.08999999999999897,
          "durationTicks": 72,
          "midi": 45,
          "name": "A2",
          "ticks": 4000,
          "time": 5,
          "velocity": 0.7874015748031497
        },
        {
          "duration": 0.1800000000000006,
          "durationTicks": 144,
          "midi": 45,
          "name": "A2",
          "ticks": 4080,
          "time": 5.1,
          "velocity": 0.7874015748031497
        },
        {
          "duration": 0.1800000000000006,
          "durationTicks": 144,
          "midi": 45,
          "name": "A2",
          "ticks": 4320,
          "time": 5.3999999999999995,
          "velocity": 0.7874015748031497
        },
        {
          "duration": 0.17999999999999883,
          "durationTicks": 144,
          "midi": 48,
          "name": "C3",
          "ticks": 4480,
          "time": 5.6000000000000005,
          "velocity": 0.7874015748031497
        },
        {
          "duration": 0.1999999999999993,
          "durationTicks": 160,
          "midi": 50,
          "name": "D3",
          "ticks": 4720,
          "time": 5.9,
          "velocity": 0.7874015748031497
        },
        {
          "duration": 0.46000000000000085,
          "durationTicks": 368,
          "midi": 45,
          "name": "A2",
          "ticks": 5280,
          "time": 6.6,
          "velocity": 0.7874015748031497
        },
        {
          "duration": 0.08999999999999897,
          "durationTicks": 72,
          "midi": 43,
          "name": "G2",
          "ticks": 5680,
          "time": 7.1000000000000005,
          "velocity": 0.7874015748031497
        },
        {
          "duration": 0.01249999999999929,
          "durationTicks": 10,
          "midi": 43,
          "name": "G2",
          "ticks": 6640,
          "time": 8.3,
          "velocity": 0.8818897637795275
        },
        {
          "duration": 0.17999999999999972,
          "durationTicks": 144,
          "midi": 43,
          "name": "G2",
          "ticks": 6720,
          "time": 8.4,
          "velocity": 0.7874015748031497
        },
        {
          "duration": 0.08999999999999986,
          "durationTicks": 72,
          "midi": 43,
          "name": "G2",
          "ticks": 6960,
          "time": 8.7,
          "velocity": 0.7874015748031497
        },
        {
          "duration": 0.08999999999999808,
          "durationTicks": 72,
          "midi": 43,
          "name": "G2",
          "ticks": 7120,
          "time": 8.9,
          "velocity": 0.7874015748031497
        },
        {
          "duration": 0.08999999999999986,
          "durationTicks": 72,
          "midi": 43,
          "name": "G2",
          "ticks": 7360,
          "time": 9.2,
          "velocity": 0.7874015748031497
        },
        {
          "duration": 0.28000000000000114,
          "durationTicks": 224,
          "midi": 44,
          "name": "G#2",
          "ticks": 7440,
          "time": 9.299999999999999,
          "velocity": 0.7874015748031497
        },
        {
          "duration": 0.17999999999999972,
          "durationTicks": 144,
          "midi": 45,
          "name": "A2",
          "ticks": 7680,
          "time": 9.6,
          "velocity": 0.7874015748031497
        },
        {
          "duration": 0.09000000000000163,
          "durationTicks": 72,
          "midi": 45,
          "name": "A2",
          "ticks": 7840,
          "time": 9.799999999999999,
          "velocity": 0.7874015748031497
        },
        {
          "duration": 0.17999999999999972,
          "durationTicks": 144,
          "midi": 45,
          "name": "A2",
          "ticks": 7920,
          "time": 9.9,
          "velocity": 0.7874015748031497
        },
        {
          "duration": 0.1800000000000015,
          "durationTicks": 144,
          "midi": 45,
          "name": "A2",
          "ticks": 8160,
          "time": 10.2,
          "velocity": 0.7874015748031497
        },
        {
          "duration": 0.1800000000000015,
          "durationTicks": 144,
          "midi": 48,
          "name": "C3",
          "ticks": 8320,
          "time": 10.399999999999999,
          "velocity": 0.7874015748031497
        },
        {
          "duration": 0.20000000000000107,
          "durationTicks": 160,
          "midi": 50,
          "name": "D3",
          "ticks": 8560,
          "time": 10.7,
          "velocity": 0.7874015748031497
        },
        {
          "duration": 0.4599999999999991,
          "durationTicks": 368,
          "midi": 45,
          "name": "A2",
          "ticks": 9120,
          "time": 11.4,
          "velocity": 0.7874015748031497
        },
        {
          "duration": 0.09000000000000163,
          "durationTicks": 72,
          "midi": 43,
          "name": "G2",
          "ticks": 9520,
          "time": 11.899999999999999,
          "velocity": 0.7874015748031497
        },
        {
          "duration": 0.1800000000000015,
          "durationTicks": 144,
          "midi": 38,
          "name": "D2",
          "ticks": 10560,
          "time": 13.2,
          "velocity": 0.7874015748031497
        },
        {
          "duration": 0.09000000000000163,
          "durationTicks": 72,
          "midi": 40,
          "name": "E2",
          "ticks": 10720,
          "time": 13.399999999999999,
          "velocity": 0.7874015748031497
        },
        {
          "duration": 0.17999999999999972,
          "durationTicks": 144,
          "midi": 43,
          "name": "G2",
          "ticks": 10800,
          "time": 13.5,
          "velocity": 0.7874015748031497
        },
        {
          "duration": 0.09000000000000163,
          "durationTicks": 72,
          "midi": 45,
          "name": "A2",
          "ticks": 10960,
          "time": 13.7,
          "velocity": 0.7874015748031497
        },
        {
          "duration": 0.1800000000000015,
          "durationTicks": 144,
          "midi": 50,
          "name": "D3",
          "ticks": 11040,
          "time": 13.799999999999999,
          "velocity": 0.7874015748031497
        },
        {
          "duration": 0.3600000000000012,
          "durationTicks": 288,
          "midi": 48,
          "name": "C3",
          "ticks": 11200,
          "time": 13.999999999999998,
          "velocity": 0.7874015748031497
        },
        {
          "duration": 0.1800000000000015,
          "durationTicks": 144,
          "midi": 45,
          "name": "A2",
          "ticks": 11520,
          "time": 14.399999999999999,
          "velocity": 0.7874015748031497
        },
        {
          "duration": 0.09000000000000163,
          "durationTicks": 72,
          "midi": 45,
          "name": "A2",
          "ticks": 11680,
          "time": 14.599999999999998,
          "velocity": 0.7874015748031497
        },
        {
          "duration": 0.17999999999999972,
          "durationTicks": 144,
          "midi": 45,
          "name": "A2",
          "ticks": 11760,
          "time": 14.7,
          "velocity": 0.7874015748031497
        },
        {
          "duration": 0.17999999999999972,
          "durationTicks": 144,
          "midi": 45,
          "name": "A2",
          "ticks": 12000,
          "time": 15,
          "velocity": 0.7874015748031497
        },
        {
          "duration": 0.17999999999999972,
          "durationTicks": 144,
          "midi": 48,
          "name": "C3",
          "ticks": 12160,
          "time": 15.2,
          "velocity": 0.7874015748031497
        },
        {
          "duration": 0.20000000000000107,
          "durationTicks": 160,
          "midi": 50,
          "name": "D3",
          "ticks": 12400,
          "time": 15.499999999999998,
          "velocity": 0.7874015748031497
        },
        {
          "duration": 0.46000000000000085,
          "durationTicks": 368,
          "midi": 45,
          "name": "A2",
          "ticks": 12960,
          "time": 16.2,
          "velocity": 0.7874015748031497
        },
        {
          "duration": 0.08999999999999986,
          "durationTicks": 72,
          "midi": 43,
          "name": "G2",
          "ticks": 13360,
          "time": 16.7,
          "velocity": 0.7874015748031497
        },
        {
          "duration": 0.012500000000002842,
          "durationTicks": 10,
          "midi": 43,
          "name": "G2",
          "ticks": 14320,
          "time": 17.9,
          "velocity": 0.8818897637795275
        },
        {
          "duration": 0.17999999999999972,
          "durationTicks": 144,
          "midi": 43,
          "name": "G2",
          "ticks": 14400,
          "time": 18,
          "velocity": 0.7874015748031497
        },
        {
          "duration": 0.0899999999999963,
          "durationTicks": 72,
          "midi": 43,
          "name": "G2",
          "ticks": 14640,
          "time": 18.3,
          "velocity": 0.7874015748031497
        },
        {
          "duration": 0.08999999999999986,
          "durationTicks": 72,
          "midi": 43,
          "name": "G2",
          "ticks": 14800,
          "time": 18.5,
          "velocity": 0.7874015748031497
        },
        {
          "duration": 0.09000000000000341,
          "durationTicks": 72,
          "midi": 43,
          "name": "G2",
          "ticks": 15040,
          "time": 18.799999999999997,
          "velocity": 0.7874015748031497
        },
        {
          "duration": 0.28000000000000114,
          "durationTicks": 224,
          "midi": 44,
          "name": "G#2",
          "ticks": 15120,
          "time": 18.9,
          "velocity": 0.7874015748031497
        },
        {
          "duration": 0.17999999999999972,
          "durationTicks": 144,
          "midi": 45,
          "name": "A2",
          "ticks": 15360,
          "time": 19.2,
          "velocity": 0.7874015748031497
        },
        {
          "duration": 0.0899999999999963,
          "durationTicks": 72,
          "midi": 45,
          "name": "A2",
          "ticks": 15520,
          "time": 19.400000000000002,
          "velocity": 0.7874015748031497
        },
        {
          "duration": 0.17999999999999616,
          "durationTicks": 144,
          "midi": 45,
          "name": "A2",
          "ticks": 15600,
          "time": 19.5,
          "velocity": 0.7874015748031497
        },
        {
          "duration": 0.17999999999999616,
          "durationTicks": 144,
          "midi": 45,
          "name": "A2",
          "ticks": 15840,
          "time": 19.8,
          "velocity": 0.7874015748031497
        },
        {
          "duration": 0.17999999999999972,
          "durationTicks": 144,
          "midi": 48,
          "name": "C3",
          "ticks": 16000,
          "time": 20,
          "velocity": 0.7874015748031497
        },
        {
          "duration": 0.19999999999999574,
          "durationTicks": 160,
          "midi": 50,
          "name": "D3",
          "ticks": 16240,
          "time": 20.3,
          "velocity": 0.7874015748031497
        },
        {
          "duration": 0.4599999999999973,
          "durationTicks": 368,
          "midi": 45,
          "name": "A2",
          "ticks": 16800,
          "time": 21,
          "velocity": 0.7874015748031497
        },
        {
          "duration": 0.08999999999999986,
          "durationTicks": 72,
          "midi": 43,
          "name": "G2",
          "ticks": 17200,
          "time": 21.5,
          "velocity": 0.7874015748031497
        },
        {
          "duration": 0.17999999999999616,
          "durationTicks": 144,
          "midi": 40,
          "name": "E2",
          "ticks": 18240,
          "time": 22.8,
          "velocity": 0.7874015748031497
        },
        {
          "duration": 0.08999999999999986,
          "durationTicks": 72,
          "midi": 35,
          "name": "B1",
          "ticks": 18400,
          "time": 23,
          "velocity": 0.7874015748031497
        },
        {
          "duration": 0.17999999999999972,
          "durationTicks": 144,
          "midi": 38,
          "name": "D2",
          "ticks": 18480,
          "time": 23.099999999999998,
          "velocity": 0.7874015748031497
        },
        {
          "duration": 0.14624999999999844,
          "durationTicks": 117,
          "midi": 40,
          "name": "E2",
          "ticks": 18640,
          "time": 23.3,
          "velocity": 0.7874015748031497
        },
        {
          "duration": 0.3999999999999986,
          "durationTicks": 320,
          "midi": 40,
          "name": "E2",
          "ticks": 18880,
          "time": 23.6,
          "velocity": 0.7874015748031497
        },
        {
          "duration": 0.28000000000000114,
          "durationTicks": 224,
          "midi": 41,
          "name": "F2",
          "ticks": 19200,
          "time": 24,
          "velocity": 0.7874015748031497
        },
        {
          "duration": 0.28000000000000114,
          "durationTicks": 224,
          "midi": 41,
          "name": "F2",
          "ticks": 19440,
          "time": 24.3,
          "velocity": 0.7874015748031497
        },
        {
          "duration": 0.17999999999999972,
          "durationTicks": 144,
          "midi": 41,
          "name": "F2",
          "ticks": 19840,
          "time": 24.8,
          "velocity": 0.7874015748031497
        },
        {
          "duration": 0.08999999999999986,
          "durationTicks": 72,
          "midi": 41,
          "name": "F2",
          "ticks": 20080,
          "time": 25.1,
          "velocity": 0.7874015748031497
        },
        {
          "duration": 0.2799999999999976,
          "durationTicks": 224,
          "midi": 41,
          "name": "F2",
          "ticks": 20800,
          "time": 26,
          "velocity": 0.7874015748031497
        },
        {
          "duration": 0.08999999999999986,
          "durationTicks": 72,
          "midi": 41,
          "name": "F2",
          "ticks": 21040,
          "time": 26.3,
          "velocity": 0.7874015748031497
        },
        {
          "duration": 0.28000000000000114,
          "durationTicks": 224,
          "midi": 40,
          "name": "E2",
          "ticks": 21120,
          "time": 26.4,
          "velocity": 0.7874015748031497
        },
        {
          "duration": 0.28000000000000114,
          "durationTicks": 224,
          "midi": 40,
          "name": "E2",
          "ticks": 21360,
          "time": 26.7,
          "velocity": 0.7874015748031497
        },
        {
          "duration": 0.17999999999999972,
          "durationTicks": 144,
          "midi": 40,
          "name": "E2",
          "ticks": 21760,
          "time": 27.2,
          "velocity": 0.7874015748031497
        },
        {
          "duration": 0.08999999999999986,
          "durationTicks": 72,
          "midi": 40,
          "name": "E2",
          "ticks": 22000,
          "time": 27.5,
          "velocity": 0.7874015748031497
        },
        {
          "duration": 0.27999999999999403,
          "durationTicks": 224,
          "midi": 40,
          "name": "E2",
          "ticks": 22720,
          "time": 28.400000000000002,
          "velocity": 0.7874015748031497
        },
        {
          "duration": 0.08999999999999986,
          "durationTicks": 72,
          "midi": 40,
          "name": "E2",
          "ticks": 22960,
          "time": 28.7,
          "velocity": 0.7874015748031497
        },
        {
          "duration": 0.28000000000000114,
          "durationTicks": 224,
          "midi": 38,
          "name": "D2",
          "ticks": 23040,
          "time": 28.799999999999997,
          "velocity": 0.7874015748031497
        },
        {
          "duration": 0.28000000000000114,
          "durationTicks": 224,
          "midi": 38,
          "name": "D2",
          "ticks": 23280,
          "time": 29.099999999999998,
          "velocity": 0.7874015748031497
        },
        {
          "duration": 0.17999999999999616,
          "durationTicks": 144,
          "midi": 38,
          "name": "D2",
          "ticks": 23680,
          "time": 29.6,
          "velocity": 0.7874015748031497
        },
        {
          "duration": 0.08999999999999986,
          "durationTicks": 72,
          "midi": 38,
          "name": "D2",
          "ticks": 23920,
          "time": 29.9,
          "velocity": 0.7874015748031497
        },
        {
          "duration": 0.2799999999999976,
          "durationTicks": 224,
          "midi": 39,
          "name": "D#2",
          "ticks": 24640,
          "time": 30.8,
          "velocity": 0.7874015748031497
        },
        {
          "duration": 0.0899999999999963,
          "durationTicks": 72,
          "midi": 39,
          "name": "D#2",
          "ticks": 24880,
          "time": 31.1,
          "velocity": 0.7874015748031497
        },
        {
          "duration": 0.28000000000000114,
          "durationTicks": 224,
          "midi": 40,
          "name": "E2",
          "ticks": 24960,
          "time": 31.2,
          "velocity": 0.7874015748031497
        },
        {
          "duration": 0.28000000000000114,
          "durationTicks": 224,
          "midi": 40,
          "name": "E2",
          "ticks": 25200,
          "time": 31.5,
          "velocity": 0.7874015748031497
        },
        {
          "duration": 0.17999999999999972,
          "durationTicks": 144,
          "midi": 40,
          "name": "E2",
          "ticks": 25600,
          "time": 32,
          "velocity": 0.7874015748031497
        },
        {
          "duration": 0.09000000000000341,
          "durationTicks": 72,
          "midi": 40,
          "name": "E2",
          "ticks": 25840,
          "time": 32.3,
          "velocity": 0.7874015748031497
        },
        {
          "duration": 0.0899999999999963,
          "durationTicks": 72,
          "midi": 51,
          "name": "D#3",
          "ticks": 26400,
          "time": 33,
          "velocity": 0.7874015748031497
        },
        {
          "duration": 0.09000000000000341,
          "durationTicks": 72,
          "midi": 50,
          "name": "D3",
          "ticks": 26480,
          "time": 33.099999999999994,
          "velocity": 0.7874015748031497
        },
        {
          "duration": 0.0899999999999963,
          "durationTicks": 72,
          "midi": 48,
          "name": "C3",
          "ticks": 26560,
          "time": 33.2,
          "velocity": 0.7874015748031497
        },
        {
          "duration": 0.09000000000000341,
          "durationTicks": 72,
          "midi": 45,
          "name": "A2",
          "ticks": 26640,
          "time": 33.3,
          "velocity": 0.7874015748031497
        },
        {
          "duration": 0.09000000000000341,
          "durationTicks": 72,
          "midi": 43,
          "name": "G2",
          "ticks": 26720,
          "time": 33.4,
          "velocity": 0.7874015748031497
        },
        {
          "duration": 0.0899999999999963,
          "durationTicks": 72,
          "midi": 42,
          "name": "F#2",
          "ticks": 26800,
          "time": 33.5,
          "velocity": 0.7874015748031497
        },
        {
          "duration": 0.1799999999999926,
          "durationTicks": 144,
          "midi": 41,
          "name": "F2",
          "ticks": 26880,
          "time": 33.6,
          "velocity": 0.7874015748031497
        },
        {
          "duration": 0.09000000000000341,
          "durationTicks": 72,
          "midi": 41,
          "name": "F2",
          "ticks": 27040,
          "time": 33.8,
          "velocity": 0.7874015748031497
        },
        {
          "duration": 0.17999999999999972,
          "durationTicks": 144,
          "midi": 41,
          "name": "F2",
          "ticks": 27120,
          "time": 33.9,
          "velocity": 0.7874015748031497
        },
        {
          "duration": 0.09000000000000341,
          "durationTicks": 72,
          "midi": 53,
          "name": "F3",
          "ticks": 27360,
          "time": 34.199999999999996,
          "velocity": 0.7874015748031497
        },
        {
          "duration": 0.17999999999999972,
          "durationTicks": 144,
          "midi": 41,
          "name": "F2",
          "ticks": 27520,
          "time": 34.4,
          "velocity": 0.7874015748031497
        },
        {
          "duration": 0.0899999999999963,
          "durationTicks": 72,
          "midi": 41,
          "name": "F2",
          "ticks": 27760,
          "time": 34.7,
          "velocity": 0.7874015748031497
        },
        {
          "duration": 0.0899999999999963,
          "durationTicks": 72,
          "midi": 53,
          "name": "F3",
          "ticks": 28480,
          "time": 35.6,
          "velocity": 0.7874015748031497
        },
        {
          "duration": 0.09000000000000341,
          "durationTicks": 72,
          "midi": 41,
          "name": "F2",
          "ticks": 28560,
          "time": 35.699999999999996,
          "velocity": 0.7874015748031497
        },
        {
          "duration": 0.09000000000000341,
          "durationTicks": 72,
          "midi": 36,
          "name": "C2",
          "ticks": 28720,
          "time": 35.9,
          "velocity": 0.7874015748031497
        },
        {
          "duration": 0.17999999999999972,
          "durationTicks": 144,
          "midi": 40,
          "name": "E2",
          "ticks": 28800,
          "time": 36,
          "velocity": 0.7874015748031497
        },
        {
          "duration": 0.0899999999999963,
          "durationTicks": 72,
          "midi": 40,
          "name": "E2",
          "ticks": 28960,
          "time": 36.2,
          "velocity": 0.7874015748031497
        },
        {
          "duration": 0.17999999999999972,
          "durationTicks": 144,
          "midi": 40,
          "name": "E2",
          "ticks": 29040,
          "time": 36.3,
          "velocity": 0.7874015748031497
        },
        {
          "duration": 0.0899999999999963,
          "durationTicks": 72,
          "midi": 52,
          "name": "E3",
          "ticks": 29280,
          "time": 36.6,
          "velocity": 0.7874015748031497
        },
        {
          "duration": 0.17999999999999972,
          "durationTicks": 144,
          "midi": 40,
          "name": "E2",
          "ticks": 29440,
          "time": 36.8,
          "velocity": 0.7874015748031497
        },
        {
          "duration": 0.0899999999999963,
          "durationTicks": 72,
          "midi": 40,
          "name": "E2",
          "ticks": 29680,
          "time": 37.1,
          "velocity": 0.7874015748031497
        },
        {
          "duration": 0.0899999999999963,
          "durationTicks": 72,
          "midi": 52,
          "name": "E3",
          "ticks": 30400,
          "time": 38,
          "velocity": 0.7874015748031497
        },
        {
          "duration": 0.0899999999999963,
          "durationTicks": 72,
          "midi": 40,
          "name": "E2",
          "ticks": 30480,
          "time": 38.1,
          "velocity": 0.7874015748031497
        },
        {
          "duration": 0.09000000000000341,
          "durationTicks": 72,
          "midi": 38,
          "name": "D2",
          "ticks": 30640,
          "time": 38.3,
          "velocity": 0.7874015748031497
        },
        {
          "duration": 0.17999999999999972,
          "durationTicks": 144,
          "midi": 38,
          "name": "D2",
          "ticks": 30720,
          "time": 38.4,
          "velocity": 0.7874015748031497
        },
        {
          "duration": 0.09000000000000341,
          "durationTicks": 72,
          "midi": 38,
          "name": "D2",
          "ticks": 30880,
          "time": 38.599999999999994,
          "velocity": 0.7874015748031497
        },
        {
          "duration": 0.17999999999999972,
          "durationTicks": 144,
          "midi": 38,
          "name": "D2",
          "ticks": 30960,
          "time": 38.699999999999996,
          "velocity": 0.7874015748031497
        },
        {
          "duration": 0.09000000000000341,
          "durationTicks": 72,
          "midi": 50,
          "name": "D3",
          "ticks": 31200,
          "time": 39,
          "velocity": 0.7874015748031497
        },
        {
          "duration": 0.18000000000000682,
          "durationTicks": 144,
          "midi": 38,
          "name": "D2",
          "ticks": 31360,
          "time": 39.199999999999996,
          "velocity": 0.7874015748031497
        },
        {
          "duration": 0.09000000000000341,
          "durationTicks": 72,
          "midi": 38,
          "name": "D2",
          "ticks": 31600,
          "time": 39.49999999999999,
          "velocity": 0.7874015748031497
        },
        {
          "duration": 0.09000000000000341,
          "durationTicks": 72,
          "midi": 50,
          "name": "D3",
          "ticks": 32320,
          "time": 40.4,
          "velocity": 0.7874015748031497
        },
        {
          "duration": 0.09000000000000341,
          "durationTicks": 72,
          "midi": 38,
          "name": "D2",
          "ticks": 32400,
          "time": 40.5,
          "velocity": 0.7874015748031497
        },
        {
          "duration": 0.09000000000000341,
          "durationTicks": 72,
          "midi": 39,
          "name": "D#2",
          "ticks": 32560,
          "time": 40.699999999999996,
          "velocity": 0.7874015748031497
        },
        {
          "duration": 0.46000000000000085,
          "durationTicks": 368,
          "midi": 40,
          "name": "E2",
          "ticks": 32640,
          "time": 40.8,
          "velocity": 0.7874015748031497
        },
        {
          "duration": 0.20000000000000284,
          "durationTicks": 160,
          "midi": 40,
          "name": "E2",
          "ticks": 33040,
          "time": 41.3,
          "velocity": 0.7874015748031497
        },
        {
          "duration": 0.17999999999999972,
          "durationTicks": 144,
          "midi": 51,
          "name": "D#3",
          "ticks": 33600,
          "time": 42,
          "velocity": 0.7874015748031497
        },
        {
          "duration": 0.09000000000000341,
          "durationTicks": 72,
          "midi": 50,
          "name": "D3",
          "ticks": 33760,
          "time": 42.199999999999996,
          "velocity": 0.7874015748031497
        },
        {
          "duration": 0.18000000000000682,
          "durationTicks": 144,
          "midi": 48,
          "name": "C3",
          "ticks": 34000,
          "time": 42.49999999999999,
          "velocity": 0.7874015748031497
        },
        {
          "duration": 0.09000000000000341,
          "durationTicks": 72,
          "midi": 45,
          "name": "A2",
          "ticks": 34240,
          "time": 42.8,
          "velocity": 0.7874015748031497
        },
        {
          "duration": 0.17999999999999972,
          "durationTicks": 144,
          "midi": 43,
          "name": "G2",
          "ticks": 34320,
          "time": 42.9,
          "velocity": 0.7874015748031497
        },
        {
          "duration": 0.09000000000000341,
          "durationTicks": 72,
          "midi": 44,
          "name": "G#2",
          "ticks": 34480,
          "time": 43.099999999999994,
          "velocity": 0.7874015748031497
        },
        {
          "duration": 0.18000000000000682,
          "durationTicks": 144,
          "midi": 45,
          "name": "A2",
          "ticks": 65280,
          "time": 81.6,
          "velocity": 0.7874015748031497
        },
        {
          "duration": 0.0899999999999892,
          "durationTicks": 72,
          "midi": 45,
          "name": "A2",
          "ticks": 65440,
          "time": 81.8,
          "velocity": 0.7874015748031497
        },
        {
          "duration": 0.18000000000000682,
          "durationTicks": 144,
          "midi": 45,
          "name": "A2",
          "ticks": 65520,
          "time": 81.89999999999999,
          "velocity": 0.7874015748031497
        },
        {
          "duration": 0.18000000000000682,
          "durationTicks": 144,
          "midi": 45,
          "name": "A2",
          "ticks": 65760,
          "time": 82.2,
          "velocity": 0.7874015748031497
        },
        {
          "duration": 0.1799999999999926,
          "durationTicks": 144,
          "midi": 48,
          "name": "C3",
          "ticks": 65920,
          "time": 82.4,
          "velocity": 0.7874015748031497
        },
        {
          "duration": 0.19999999999998863,
          "durationTicks": 160,
          "midi": 50,
          "name": "D3",
          "ticks": 66160,
          "time": 82.7,
          "velocity": 0.7874015748031497
        },
        {
          "duration": 0.46000000000000796,
          "durationTicks": 368,
          "midi": 45,
          "name": "A2",
          "ticks": 66720,
          "time": 83.39999999999999,
          "velocity": 0.7874015748031497
        },
        {
          "duration": 0.0899999999999892,
          "durationTicks": 72,
          "midi": 43,
          "name": "G2",
          "ticks": 67120,
          "time": 83.9,
          "velocity": 0.7874015748031497
        },
        {
          "duration": 0.012499999999988631,
          "durationTicks": 10,
          "midi": 43,
          "name": "G2",
          "ticks": 68080,
          "time": 85.10000000000001,
          "velocity": 0.8818897637795275
        },
        {
          "duration": 0.18000000000000682,
          "durationTicks": 144,
          "midi": 43,
          "name": "G2",
          "ticks": 68160,
          "time": 85.2,
          "velocity": 0.7874015748031497
        },
        {
          "duration": 0.09000000000000341,
          "durationTicks": 72,
          "midi": 43,
          "name": "G2",
          "ticks": 68400,
          "time": 85.5,
          "velocity": 0.7874015748031497
        },
        {
          "duration": 0.0899999999999892,
          "durationTicks": 72,
          "midi": 43,
          "name": "G2",
          "ticks": 68560,
          "time": 85.7,
          "velocity": 0.7874015748031497
        },
        {
          "duration": 0.0899999999999892,
          "durationTicks": 72,
          "midi": 43,
          "name": "G2",
          "ticks": 68800,
          "time": 86,
          "velocity": 0.7874015748031497
        },
        {
          "duration": 0.28000000000000114,
          "durationTicks": 224,
          "midi": 44,
          "name": "G#2",
          "ticks": 68880,
          "time": 86.1,
          "velocity": 0.7874015748031497
        },
        {
          "duration": 0.18000000000000682,
          "durationTicks": 144,
          "midi": 45,
          "name": "A2",
          "ticks": 69120,
          "time": 86.39999999999999,
          "velocity": 0.7874015748031497
        },
        {
          "duration": 0.08999999999997499,
          "durationTicks": 72,
          "midi": 45,
          "name": "A2",
          "ticks": 69280,
          "time": 86.60000000000001,
          "velocity": 0.7874015748031497
        },
        {
          "duration": 0.18000000000000682,
          "durationTicks": 144,
          "midi": 45,
          "name": "A2",
          "ticks": 69360,
          "time": 86.7,
          "velocity": 0.7874015748031497
        },
        {
          "duration": 0.18000000000000682,
          "durationTicks": 144,
          "midi": 45,
          "name": "A2",
          "ticks": 69600,
          "time": 87,
          "velocity": 0.7874015748031497
        },
        {
          "duration": 0.1799999999999926,
          "durationTicks": 144,
          "midi": 48,
          "name": "C3",
          "ticks": 69760,
          "time": 87.2,
          "velocity": 0.7874015748031497
        },
        {
          "duration": 0.19999999999998863,
          "durationTicks": 160,
          "midi": 50,
          "name": "D3",
          "ticks": 70000,
          "time": 87.5,
          "velocity": 0.7874015748031497
        },
        {
          "duration": 0.46000000000000796,
          "durationTicks": 368,
          "midi": 45,
          "name": "A2",
          "ticks": 70560,
          "time": 88.2,
          "velocity": 0.7874015748031497
        },
        {
          "duration": 0.0899999999999892,
          "durationTicks": 72,
          "midi": 43,
          "name": "G2",
          "ticks": 70960,
          "time": 88.7,
          "velocity": 0.7874015748031497
        },
        {
          "duration": 0.18000000000000682,
          "durationTicks": 144,
          "midi": 38,
          "name": "D2",
          "ticks": 72000,
          "time": 90,
          "velocity": 0.7874015748031497
        },
        {
          "duration": 0.0899999999999892,
          "durationTicks": 72,
          "midi": 40,
          "name": "E2",
          "ticks": 72160,
          "time": 90.2,
          "velocity": 0.7874015748031497
        },
        {
          "duration": 0.18000000000000682,
          "durationTicks": 144,
          "midi": 43,
          "name": "G2",
          "ticks": 72240,
          "time": 90.3,
          "velocity": 0.7874015748031497
        },
        {
          "duration": 0.0899999999999892,
          "durationTicks": 72,
          "midi": 45,
          "name": "A2",
          "ticks": 72400,
          "time": 90.5,
          "velocity": 0.7874015748031497
        },
        {
          "duration": 0.18000000000000682,
          "durationTicks": 144,
          "midi": 50,
          "name": "D3",
          "ticks": 72480,
          "time": 90.6,
          "velocity": 0.7874015748031497
        },
        {
          "duration": 0.35999999999999943,
          "durationTicks": 288,
          "midi": 48,
          "name": "C3",
          "ticks": 72640,
          "time": 90.8,
          "velocity": 0.7874015748031497
        },
        {
          "duration": 0.18000000000000682,
          "durationTicks": 144,
          "midi": 45,
          "name": "A2",
          "ticks": 72960,
          "time": 91.2,
          "velocity": 0.7874015748031497
        },
        {
          "duration": 0.0899999999999892,
          "durationTicks": 72,
          "midi": 45,
          "name": "A2",
          "ticks": 73120,
          "time": 91.4,
          "velocity": 0.7874015748031497
        },
        {
          "duration": 0.18000000000000682,
          "durationTicks": 144,
          "midi": 45,
          "name": "A2",
          "ticks": 73200,
          "time": 91.5,
          "velocity": 0.7874015748031497
        },
        {
          "duration": 0.18000000000000682,
          "durationTicks": 144,
          "midi": 45,
          "name": "A2",
          "ticks": 73440,
          "time": 91.8,
          "velocity": 0.7874015748031497
        },
        {
          "duration": 0.1799999999999926,
          "durationTicks": 144,
          "midi": 48,
          "name": "C3",
          "ticks": 73600,
          "time": 92,
          "velocity": 0.7874015748031497
        },
        {
          "duration": 0.19999999999998863,
          "durationTicks": 160,
          "midi": 50,
          "name": "D3",
          "ticks": 73840,
          "time": 92.3,
          "velocity": 0.7874015748031497
        },
        {
          "duration": 0.46000000000000796,
          "durationTicks": 368,
          "midi": 45,
          "name": "A2",
          "ticks": 74400,
          "time": 93,
          "velocity": 0.7874015748031497
        },
        {
          "duration": 0.0899999999999892,
          "durationTicks": 72,
          "midi": 43,
          "name": "G2",
          "ticks": 74800,
          "time": 93.5,
          "velocity": 0.7874015748031497
        },
        {
          "duration": 0.012499999999988631,
          "durationTicks": 10,
          "midi": 43,
          "name": "G2",
          "ticks": 75760,
          "time": 94.7,
          "velocity": 0.8818897637795275
        },
        {
          "duration": 0.18000000000000682,
          "durationTicks": 144,
          "midi": 43,
          "name": "G2",
          "ticks": 75840,
          "time": 94.8,
          "velocity": 0.7874015748031497
        },
        {
          "duration": 0.09000000000000341,
          "durationTicks": 72,
          "midi": 43,
          "name": "G2",
          "ticks": 76080,
          "time": 95.1,
          "velocity": 0.7874015748031497
        },
        {
          "duration": 0.0899999999999892,
          "durationTicks": 72,
          "midi": 43,
          "name": "G2",
          "ticks": 76240,
          "time": 95.3,
          "velocity": 0.7874015748031497
        },
        {
          "duration": 0.08999999999997499,
          "durationTicks": 72,
          "midi": 43,
          "name": "G2",
          "ticks": 76480,
          "time": 95.60000000000001,
          "velocity": 0.7874015748031497
        },
        {
          "duration": 0.28000000000000114,
          "durationTicks": 224,
          "midi": 44,
          "name": "G#2",
          "ticks": 76560,
          "time": 95.7,
          "velocity": 0.7874015748031497
        },
        {
          "duration": 0.18000000000000682,
          "durationTicks": 144,
          "midi": 45,
          "name": "A2",
          "ticks": 76800,
          "time": 96,
          "velocity": 0.7874015748031497
        },
        {
          "duration": 0.0899999999999892,
          "durationTicks": 72,
          "midi": 45,
          "name": "A2",
          "ticks": 76960,
          "time": 96.2,
          "velocity": 0.7874015748031497
        },
        {
          "duration": 0.18000000000000682,
          "durationTicks": 144,
          "midi": 45,
          "name": "A2",
          "ticks": 77040,
          "time": 96.3,
          "velocity": 0.7874015748031497
        },
        {
          "duration": 0.18000000000000682,
          "durationTicks": 144,
          "midi": 45,
          "name": "A2",
          "ticks": 77280,
          "time": 96.6,
          "velocity": 0.7874015748031497
        },
        {
          "duration": 0.1799999999999926,
          "durationTicks": 144,
          "midi": 48,
          "name": "C3",
          "ticks": 77440,
          "time": 96.8,
          "velocity": 0.7874015748031497
        },
        {
          "duration": 0.19999999999998863,
          "durationTicks": 160,
          "midi": 50,
          "name": "D3",
          "ticks": 77680,
          "time": 97.10000000000001,
          "velocity": 0.7874015748031497
        },
        {
          "duration": 0.46000000000000796,
          "durationTicks": 368,
          "midi": 45,
          "name": "A2",
          "ticks": 78240,
          "time": 97.8,
          "velocity": 0.7874015748031497
        },
        {
          "duration": 0.0899999999999892,
          "durationTicks": 72,
          "midi": 43,
          "name": "G2",
          "ticks": 78640,
          "time": 98.3,
          "velocity": 0.7874015748031497
        },
        {
          "duration": 0.18000000000000682,
          "durationTicks": 144,
          "midi": 40,
          "name": "E2",
          "ticks": 79680,
          "time": 99.6,
          "velocity": 0.7874015748031497
        },
        {
          "duration": 0.0899999999999892,
          "durationTicks": 72,
          "midi": 35,
          "name": "B1",
          "ticks": 79840,
          "time": 99.8,
          "velocity": 0.7874015748031497
        },
        {
          "duration": 0.18000000000000682,
          "durationTicks": 144,
          "midi": 38,
          "name": "D2",
          "ticks": 79920,
          "time": 99.89999999999999,
          "velocity": 0.7874015748031497
        },
        {
          "duration": 0.14624999999998067,
          "durationTicks": 117,
          "midi": 40,
          "name": "E2",
          "ticks": 80080,
          "time": 100.10000000000001,
          "velocity": 0.7874015748031497
        },
        {
          "duration": 0.3999999999999915,
          "durationTicks": 320,
          "midi": 40,
          "name": "E2",
          "ticks": 80320,
          "time": 100.4,
          "velocity": 0.7874015748031497
        },
        {
          "duration": 0.28000000000000114,
          "durationTicks": 224,
          "midi": 41,
          "name": "F2",
          "ticks": 80640,
          "time": 100.8,
          "velocity": 0.7874015748031497
        },
        {
          "duration": 0.28000000000000114,
          "durationTicks": 224,
          "midi": 41,
          "name": "F2",
          "ticks": 80880,
          "time": 101.1,
          "velocity": 0.7874015748031497
        },
        {
          "duration": 0.1799999999999784,
          "durationTicks": 144,
          "midi": 41,
          "name": "F2",
          "ticks": 81280,
          "time": 101.60000000000001,
          "velocity": 0.7874015748031497
        },
        {
          "duration": 0.0899999999999892,
          "durationTicks": 72,
          "midi": 41,
          "name": "F2",
          "ticks": 81520,
          "time": 101.9,
          "velocity": 0.7874015748031497
        },
        {
          "duration": 0.28000000000000114,
          "durationTicks": 224,
          "midi": 41,
          "name": "F2",
          "ticks": 82240,
          "time": 102.8,
          "velocity": 0.7874015748031497
        },
        {
          "duration": 0.08999999999997499,
          "durationTicks": 72,
          "midi": 41,
          "name": "F2",
          "ticks": 82480,
          "time": 103.10000000000001,
          "velocity": 0.7874015748031497
        },
        {
          "duration": 0.28000000000000114,
          "durationTicks": 224,
          "midi": 40,
          "name": "E2",
          "ticks": 82560,
          "time": 103.2,
          "velocity": 0.7874015748031497
        },
        {
          "duration": 0.28000000000000114,
          "durationTicks": 224,
          "midi": 40,
          "name": "E2",
          "ticks": 82800,
          "time": 103.5,
          "velocity": 0.7874015748031497
        },
        {
          "duration": 0.1799999999999926,
          "durationTicks": 144,
          "midi": 40,
          "name": "E2",
          "ticks": 83200,
          "time": 104,
          "velocity": 0.7874015748031497
        },
        {
          "duration": 0.0899999999999892,
          "durationTicks": 72,
          "midi": 40,
          "name": "E2",
          "ticks": 83440,
          "time": 104.3,
          "velocity": 0.7874015748031497
        },
        {
          "duration": 0.28000000000000114,
          "durationTicks": 224,
          "midi": 40,
          "name": "E2",
          "ticks": 84160,
          "time": 105.2,
          "velocity": 0.7874015748031497
        },
        {
          "duration": 0.0899999999999892,
          "durationTicks": 72,
          "midi": 40,
          "name": "E2",
          "ticks": 84400,
          "time": 105.5,
          "velocity": 0.7874015748031497
        },
        {
          "duration": 0.28000000000000114,
          "durationTicks": 224,
          "midi": 38,
          "name": "D2",
          "ticks": 84480,
          "time": 105.6,
          "velocity": 0.7874015748031497
        },
        {
          "duration": 0.28000000000000114,
          "durationTicks": 224,
          "midi": 38,
          "name": "D2",
          "ticks": 84720,
          "time": 105.89999999999999,
          "velocity": 0.7874015748031497
        },
        {
          "duration": 0.1799999999999926,
          "durationTicks": 144,
          "midi": 38,
          "name": "D2",
          "ticks": 85120,
          "time": 106.4,
          "velocity": 0.7874015748031497
        },
        {
          "duration": 0.0899999999999892,
          "durationTicks": 72,
          "midi": 38,
          "name": "D2",
          "ticks": 85360,
          "time": 106.7,
          "velocity": 0.7874015748031497
        },
        {
          "duration": 0.28000000000000114,
          "durationTicks": 224,
          "midi": 39,
          "name": "D#2",
          "ticks": 86080,
          "time": 107.60000000000001,
          "velocity": 0.7874015748031497
        },
        {
          "duration": 0.0899999999999892,
          "durationTicks": 72,
          "midi": 39,
          "name": "D#2",
          "ticks": 86320,
          "time": 107.9,
          "velocity": 0.7874015748031497
        },
        {
          "duration": 0.28000000000000114,
          "durationTicks": 224,
          "midi": 40,
          "name": "E2",
          "ticks": 86400,
          "time": 108,
          "velocity": 0.7874015748031497
        },
        {
          "duration": 0.28000000000000114,
          "durationTicks": 224,
          "midi": 40,
          "name": "E2",
          "ticks": 86640,
          "time": 108.3,
          "velocity": 0.7874015748031497
        },
        {
          "duration": 0.1799999999999926,
          "durationTicks": 144,
          "midi": 40,
          "name": "E2",
          "ticks": 87040,
          "time": 108.8,
          "velocity": 0.7874015748031497
        },
        {
          "duration": 0.08999999999997499,
          "durationTicks": 72,
          "midi": 40,
          "name": "E2",
          "ticks": 87280,
          "time": 109.10000000000001,
          "velocity": 0.7874015748031497
        },
        {
          "duration": 0.09000000000000341,
          "durationTicks": 72,
          "midi": 51,
          "name": "D#3",
          "ticks": 87840,
          "time": 109.8,
          "velocity": 0.7874015748031497
        },
        {
          "duration": 0.09000000000000341,
          "durationTicks": 72,
          "midi": 50,
          "name": "D3",
          "ticks": 87920,
          "time": 109.89999999999999,
          "velocity": 0.7874015748031497
        },
        {
          "duration": 0.0899999999999892,
          "durationTicks": 72,
          "midi": 48,
          "name": "C3",
          "ticks": 88000,
          "time": 110,
          "velocity": 0.7874015748031497
        },
        {
          "duration": 0.09000000000000341,
          "durationTicks": 72,
          "midi": 45,
          "name": "A2",
          "ticks": 88080,
          "time": 110.1,
          "velocity": 0.7874015748031497
        },
        {
          "duration": 0.09000000000000341,
          "durationTicks": 72,
          "midi": 43,
          "name": "G2",
          "ticks": 88160,
          "time": 110.19999999999999,
          "velocity": 0.7874015748031497
        },
        {
          "duration": 0.0899999999999892,
          "durationTicks": 72,
          "midi": 42,
          "name": "F#2",
          "ticks": 88240,
          "time": 110.3,
          "velocity": 0.7874015748031497
        },
        {
          "duration": 0.18000000000000682,
          "durationTicks": 144,
          "midi": 41,
          "name": "F2",
          "ticks": 88320,
          "time": 110.39999999999999,
          "velocity": 0.7874015748031497
        },
        {
          "duration": 0.08999999999997499,
          "durationTicks": 72,
          "midi": 41,
          "name": "F2",
          "ticks": 88480,
          "time": 110.60000000000001,
          "velocity": 0.7874015748031497
        },
        {
          "duration": 0.18000000000000682,
          "durationTicks": 144,
          "midi": 41,
          "name": "F2",
          "ticks": 88560,
          "time": 110.7,
          "velocity": 0.7874015748031497
        },
        {
          "duration": 0.09000000000000341,
          "durationTicks": 72,
          "midi": 53,
          "name": "F3",
          "ticks": 88800,
          "time": 111,
          "velocity": 0.7874015748031497
        },
        {
          "duration": 0.1799999999999926,
          "durationTicks": 144,
          "midi": 41,
          "name": "F2",
          "ticks": 88960,
          "time": 111.2,
          "velocity": 0.7874015748031497
        },
        {
          "duration": 0.0899999999999892,
          "durationTicks": 72,
          "midi": 41,
          "name": "F2",
          "ticks": 89200,
          "time": 111.5,
          "velocity": 0.7874015748031497
        },
        {
          "duration": 0.0899999999999892,
          "durationTicks": 72,
          "midi": 53,
          "name": "F3",
          "ticks": 89920,
          "time": 112.4,
          "velocity": 0.7874015748031497
        },
        {
          "duration": 0.09000000000000341,
          "durationTicks": 72,
          "midi": 41,
          "name": "F2",
          "ticks": 90000,
          "time": 112.5,
          "velocity": 0.7874015748031497
        },
        {
          "duration": 0.0899999999999892,
          "durationTicks": 72,
          "midi": 36,
          "name": "C2",
          "ticks": 90160,
          "time": 112.7,
          "velocity": 0.7874015748031497
        },
        {
          "duration": 0.18000000000000682,
          "durationTicks": 144,
          "midi": 40,
          "name": "E2",
          "ticks": 90240,
          "time": 112.8,
          "velocity": 0.7874015748031497
        },
        {
          "duration": 0.0899999999999892,
          "durationTicks": 72,
          "midi": 40,
          "name": "E2",
          "ticks": 90400,
          "time": 113,
          "velocity": 0.7874015748031497
        },
        {
          "duration": 0.18000000000000682,
          "durationTicks": 144,
          "midi": 40,
          "name": "E2",
          "ticks": 90480,
          "time": 113.1,
          "velocity": 0.7874015748031497
        },
        {
          "duration": 0.09000000000000341,
          "durationTicks": 72,
          "midi": 52,
          "name": "E3",
          "ticks": 90720,
          "time": 113.39999999999999,
          "velocity": 0.7874015748031497
        },
        {
          "duration": 0.1799999999999784,
          "durationTicks": 144,
          "midi": 40,
          "name": "E2",
          "ticks": 90880,
          "time": 113.60000000000001,
          "velocity": 0.7874015748031497
        },
        {
          "duration": 0.0899999999999892,
          "durationTicks": 72,
          "midi": 40,
          "name": "E2",
          "ticks": 91120,
          "time": 113.9,
          "velocity": 0.7874015748031497
        },
        {
          "duration": 0.0899999999999892,
          "durationTicks": 72,
          "midi": 52,
          "name": "E3",
          "ticks": 91840,
          "time": 114.8,
          "velocity": 0.7874015748031497
        },
        {
          "duration": 0.09000000000000341,
          "durationTicks": 72,
          "midi": 40,
          "name": "E2",
          "ticks": 91920,
          "time": 114.89999999999999,
          "velocity": 0.7874015748031497
        },
        {
          "duration": 0.08999999999997499,
          "durationTicks": 72,
          "midi": 38,
          "name": "D2",
          "ticks": 92080,
          "time": 115.10000000000001,
          "velocity": 0.7874015748031497
        }
      ]
    }
  ]
}