{
  "header": {
    "keySignatures": [],
    "meta": [],
    "name": "77AVÅC[XwFEENAx(C){xj",
    "ppq": 120,
    "tempos": [
      {
        "bpm": 800,
        "ticks": 0
      },
      {
        "bpm": 125,
        "ticks": 480
      }
    ],
    "timeSignatures": [
      {
        "ticks": 0,
        "timeSignature": [
          4,
          4
        ],
        "measures": 0
      }
    ]
  },
  "tracks": [
    {
      "channel": 0,
      "controlChanges": {
        "6": [
          {
            "number": 6,
            "ticks": 166,
            "time": 0.10375,
            "value": 0.1889763779527559
          }
        ],
        "100": [
          {
            "number": 100,
            "ticks": 164,
            "time": 0.1025,
            "value": 0
          }
        ],
        "101": [
          {
            "number": 101,
            "ticks": 162,
            "time": 0.10125,
            "value": 0
          }
        ]
      },
      "pitchBends": [],
      "instrument": {
        "family": "piano",
        "number": 0,
        "name": "acoustic grand piano"
      },
      "name": "77AVÅC[XwFEENAx(C){xj",
      "notes": [],
      "endOfTrackTicks": 43457
    },
    {
      "channel": 4,
      "controlChanges": {
        "0": [
          {
            "number": 0,
            "ticks": 600,
            "time": 0.78,
            "value": 0
          }
        ],
        "1": [
          {
            "number": 1,
            "ticks": 7658,
            "time": 29.012,
            "value": 0.12598425196850394
          }
        ],
        "6": [
          {
            "number": 6,
            "ticks": 172,
            "time": 0.1075,
            "value": 0.1889763779527559
          }
        ],
        "11": [
          {
            "number": 11,
            "ticks": 16886,
            "time": 65.92399999999999,
            "value": 0.7559055118110236
          },
          {
            "number": 11,
            "ticks": 34886,
            "time": 137.924,
            "value": 0.7559055118110236
          }
        ],
        "32": [
          {
            "number": 32,
            "ticks": 600,
            "time": 0.78,
            "value": 0
          }
        ],
        "100": [
          {
            "number": 100,
            "ticks": 170,
            "time": 0.10625,
            "value": 0
          }
        ],
        "101": [
          {
            "number": 101,
            "ticks": 168,
            "time": 0.105,
            "value": 0
          }
        ]
      },
      "pitchBends": [],
      "instrument": {
        "family": "piano",
        "number": 0,
        "name": "acoustic grand piano"
      },
      "name": "",
      "notes": [
        {
          "duration": 0.2120000000000033,
          "durationTicks": 53,
          "midi": 62,
          "name": "D4",
          "ticks": 7685,
          "time": 29.119999999999997,
          "velocity": 0.5669291338582677
        },
        {
          "duration": 0.4319999999999986,
          "durationTicks": 108,
          "midi": 62,
          "name": "D4",
          "ticks": 7738,
          "time": 29.332,
          "velocity": 0.5669291338582677
        },
        {
          "duration": 0.4319999999999986,
          "durationTicks": 108,
          "midi": 67,
          "name": "G4",
          "ticks": 7738,
          "time": 29.332,
          "velocity": 0.5669291338582677
        },
        {
          "duration": 1.9280000000000044,
          "durationTicks": 482,
          "midi": 62,
          "name": "D4",
          "ticks": 7846,
          "time": 29.764,
          "velocity": 0.5669291338582677
        },
        {
          "duration": 1.9280000000000044,
          "durationTicks": 482,
          "midi": 67,
          "name": "G4",
          "ticks": 7846,
          "time": 29.764,
          "velocity": 0.5669291338582677
        },
        {
          "duration": 0.21600000000000108,
          "durationTicks": 54,
          "midi": 62,
          "name": "D4",
          "ticks": 8542,
          "time": 32.547999999999995,
          "velocity": 0.5669291338582677
        },
        {
          "duration": 0.21600000000000108,
          "durationTicks": 54,
          "midi": 67,
          "name": "G4",
          "ticks": 8542,
          "time": 32.547999999999995,
          "velocity": 0.5669291338582677
        },
        {
          "duration": 0.4280000000000044,
          "durationTicks": 107,
          "midi": 62,
          "name": "D4",
          "ticks": 8596,
          "time": 32.763999999999996,
          "velocity": 0.5669291338582677
        },
        {
          "duration": 0.4280000000000044,
          "durationTicks": 107,
          "midi": 67,
          "name": "G4",
          "ticks": 8596,
          "time": 32.763999999999996,
          "velocity": 0.5669291338582677
        },
        {
          "duration": 1.9279999999999973,
          "durationTicks": 482,
          "midi": 62,
          "name": "D4",
          "ticks": 8703,
          "time": 33.192,
          "velocity": 0.5669291338582677
        },
        {
          "duration": 1.9279999999999973,
          "durationTicks": 482,
          "midi": 67,
          "name": "G4",
          "ticks": 8703,
          "time": 33.192,
          "velocity": 0.5669291338582677
        },
        {
          "duration": 0.21600000000000108,
          "durationTicks": 54,
          "midi": 62,
          "name": "D4",
          "ticks": 9399,
          "time": 35.976,
          "velocity": 0.5669291338582677
        },
        {
          "duration": 0.21600000000000108,
          "durationTicks": 54,
          "midi": 67,
          "name": "G4",
          "ticks": 9399,
          "time": 35.976,
          "velocity": 0.5669291338582677
        },
        {
          "duration": 0.42799999999999727,
          "durationTicks": 107,
          "midi": 62,
          "name": "D4",
          "ticks": 9453,
          "time": 36.192,
          "velocity": 0.5669291338582677
        },
        {
          "duration": 0.42799999999999727,
          "durationTicks": 107,
          "midi": 67,
          "name": "G4",
          "ticks": 9453,
          "time": 36.192,
          "velocity": 0.5669291338582677
        },
        {
          "duration": 1.9279999999999973,
          "durationTicks": 482,
          "midi": 62,
          "name": "D4",
          "ticks": 9560,
          "time": 36.62,
          "velocity": 0.5669291338582677
        },
        {
          "duration": 1.9279999999999973,
          "durationTicks": 482,
          "midi": 67,
          "name": "G4",
          "ticks": 9560,
          "time": 36.62,
          "velocity": 0.5669291338582677
        },
        {
          "duration": 0.21600000000000108,
          "durationTicks": 54,
          "midi": 62,
          "name": "D4",
          "ticks": 10256,
          "time": 39.403999999999996,
          "velocity": 0.5669291338582677
        },
        {
          "duration": 0.21600000000000108,
          "durationTicks": 54,
          "midi": 67,
          "name": "G4",
          "ticks": 10256,
          "time": 39.403999999999996,
          "velocity": 0.5669291338582677
        },
        {
          "duration": 0.42799999999999727,
          "durationTicks": 107,
          "midi": 62,
          "name": "D4",
          "ticks": 10310,
          "time": 39.62,
          "velocity": 0.5669291338582677
        },
        {
          "duration": 0.42799999999999727,
          "durationTicks": 107,
          "midi": 67,
          "name": "G4",
          "ticks": 10310,
          "time": 39.62,
          "velocity": 0.5669291338582677
        },
        {
          "duration": 1.9280000000000044,
          "durationTicks": 482,
          "midi": 62,
          "name": "D4",
          "ticks": 10417,
          "time": 40.047999999999995,
          "velocity": 0.5669291338582677
        },
        {
          "duration": 1.9280000000000044,
          "durationTicks": 482,
          "midi": 67,
          "name": "G4",
          "ticks": 10417,
          "time": 40.047999999999995,
          "velocity": 0.5669291338582677
        },
        {
          "duration": 0.21600000000000108,
          "durationTicks": 54,
          "midi": 60,
          "name": "C4",
          "ticks": 11113,
          "time": 42.831999999999994,
          "velocity": 0.5669291338582677
        },
        {
          "duration": 0.21600000000000108,
          "durationTicks": 54,
          "midi": 67,
          "name": "G4",
          "ticks": 11113,
          "time": 42.831999999999994,
          "velocity": 0.5669291338582677
        },
        {
          "duration": 0.4280000000000044,
          "durationTicks": 107,
          "midi": 60,
          "name": "C4",
          "ticks": 11167,
          "time": 43.047999999999995,
          "velocity": 0.5669291338582677
        },
        {
          "duration": 0.4280000000000044,
          "durationTicks": 107,
          "midi": 67,
          "name": "G4",
          "ticks": 11167,
          "time": 43.047999999999995,
          "velocity": 0.5669291338582677
        },
        {
          "duration": 1.9279999999999973,
          "durationTicks": 482,
          "midi": 60,
          "name": "C4",
          "ticks": 11274,
          "time": 43.476,
          "velocity": 0.5669291338582677
        },
        {
          "duration": 1.9279999999999973,
          "durationTicks": 482,
          "midi": 67,
          "name": "G4",
          "ticks": 11274,
          "time": 43.476,
          "velocity": 0.5669291338582677
        },
        {
          "duration": 0.2120000000000033,
          "durationTicks": 53,
          "midi": 60,
          "name": "C4",
          "ticks": 11971,
          "time": 46.263999999999996,
          "velocity": 0.5669291338582677
        },
        {
          "duration": 0.2120000000000033,
          "durationTicks": 53,
          "midi": 67,
          "name": "G4",
          "ticks": 11971,
          "time": 46.263999999999996,
          "velocity": 0.5669291338582677
        },
        {
          "duration": 0.42799999999999727,
          "durationTicks": 107,
          "midi": 60,
          "name": "C4",
          "ticks": 12024,
          "time": 46.476,
          "velocity": 0.5669291338582677
        },
        {
          "duration": 0.42799999999999727,
          "durationTicks": 107,
          "midi": 67,
          "name": "G4",
          "ticks": 12024,
          "time": 46.476,
          "velocity": 0.5669291338582677
        },
        {
          "duration": 1.9279999999999973,
          "durationTicks": 482,
          "midi": 60,
          "name": "C4",
          "ticks": 12131,
          "time": 46.903999999999996,
          "velocity": 0.5669291338582677
        },
        {
          "duration": 1.9279999999999973,
          "durationTicks": 482,
          "midi": 67,
          "name": "G4",
          "ticks": 12131,
          "time": 46.903999999999996,
          "velocity": 0.5669291338582677
        },
        {
          "duration": 0.2119999999999962,
          "durationTicks": 53,
          "midi": 62,
          "name": "D4",
          "ticks": 12828,
          "time": 49.692,
          "velocity": 0.5669291338582677
        },
        {
          "duration": 0.2119999999999962,
          "durationTicks": 53,
          "midi": 67,
          "name": "G4",
          "ticks": 12828,
          "time": 49.692,
          "velocity": 0.5669291338582677
        },
        {
          "duration": 0.42799999999999727,
          "durationTicks": 107,
          "midi": 62,
          "name": "D4",
          "ticks": 12881,
          "time": 49.903999999999996,
          "velocity": 0.5669291338582677
        },
        {
          "duration": 0.42799999999999727,
          "durationTicks": 107,
          "midi": 67,
          "name": "G4",
          "ticks": 12881,
          "time": 49.903999999999996,
          "velocity": 0.5669291338582677
        },
        {
          "duration": 1.9320000000000022,
          "durationTicks": 483,
          "midi": 62,
          "name": "D4",
          "ticks": 12988,
          "time": 50.331999999999994,
          "velocity": 0.5669291338582677
        },
        {
          "duration": 1.9320000000000022,
          "durationTicks": 483,
          "midi": 67,
          "name": "G4",
          "ticks": 12988,
          "time": 50.331999999999994,
          "velocity": 0.5669291338582677
        },
        {
          "duration": 0.2119999999999962,
          "durationTicks": 53,
          "midi": 62,
          "name": "D4",
          "ticks": 13685,
          "time": 53.12,
          "velocity": 0.5669291338582677
        },
        {
          "duration": 0.2119999999999962,
          "durationTicks": 53,
          "midi": 67,
          "name": "G4",
          "ticks": 13685,
          "time": 53.12,
          "velocity": 0.5669291338582677
        },
        {
          "duration": 0.43200000000000216,
          "durationTicks": 108,
          "midi": 62,
          "name": "D4",
          "ticks": 13738,
          "time": 53.331999999999994,
          "velocity": 0.5669291338582677
        },
        {
          "duration": 0.43200000000000216,
          "durationTicks": 108,
          "midi": 67,
          "name": "G4",
          "ticks": 13738,
          "time": 53.331999999999994,
          "velocity": 0.5669291338582677
        },
        {
          "duration": 1.9280000000000044,
          "durationTicks": 482,
          "midi": 62,
          "name": "D4",
          "ticks": 13846,
          "time": 53.763999999999996,
          "velocity": 0.5669291338582677
        },
        {
          "duration": 1.9280000000000044,
          "durationTicks": 482,
          "midi": 67,
          "name": "G4",
          "ticks": 13846,
          "time": 53.763999999999996,
          "velocity": 0.5669291338582677
        },
        {
          "duration": 0.21600000000000108,
          "durationTicks": 54,
          "midi": 60,
          "name": "C4",
          "ticks": 14542,
          "time": 56.547999999999995,
          "velocity": 0.5669291338582677
        },
        {
          "duration": 0.21600000000000108,
          "durationTicks": 54,
          "midi": 67,
          "name": "G4",
          "ticks": 14542,
          "time": 56.547999999999995,
          "velocity": 0.5669291338582677
        },
        {
          "duration": 0.4280000000000044,
          "durationTicks": 107,
          "midi": 60,
          "name": "C4",
          "ticks": 14596,
          "time": 56.763999999999996,
          "velocity": 0.5669291338582677
        },
        {
          "duration": 0.4280000000000044,
          "durationTicks": 107,
          "midi": 67,
          "name": "G4",
          "ticks": 14596,
          "time": 56.763999999999996,
          "velocity": 0.5669291338582677
        },
        {
          "duration": 1.9279999999999973,
          "durationTicks": 482,
          "midi": 60,
          "name": "C4",
          "ticks": 14703,
          "time": 57.192,
          "velocity": 0.5669291338582677
        },
        {
          "duration": 1.9279999999999973,
          "durationTicks": 482,
          "midi": 67,
          "name": "G4",
          "ticks": 14703,
          "time": 57.192,
          "velocity": 0.5669291338582677
        },
        {
          "duration": 0.21600000000000108,
          "durationTicks": 54,
          "midi": 60,
          "name": "C4",
          "ticks": 15399,
          "time": 59.976,
          "velocity": 0.5669291338582677
        },
        {
          "duration": 0.21600000000000108,
          "durationTicks": 54,
          "midi": 67,
          "name": "G4",
          "ticks": 15399,
          "time": 59.976,
          "velocity": 0.5669291338582677
        },
        {
          "duration": 0.42799999999999727,
          "durationTicks": 107,
          "midi": 60,
          "name": "C4",
          "ticks": 15453,
          "time": 60.192,
          "velocity": 0.5669291338582677
        },
        {
          "duration": 0.42799999999999727,
          "durationTicks": 107,
          "midi": 67,
          "name": "G4",
          "ticks": 15453,
          "time": 60.192,
          "velocity": 0.5669291338582677
        },
        {
          "duration": 1.9279999999999973,
          "durationTicks": 482,
          "midi": 60,
          "name": "C4",
          "ticks": 15560,
          "time": 60.62,
          "velocity": 0.5669291338582677
        },
        {
          "duration": 1.9279999999999973,
          "durationTicks": 482,
          "midi": 67,
          "name": "G4",
          "ticks": 15560,
          "time": 60.62,
          "velocity": 0.5669291338582677
        },
        {
          "duration": 3.42799999999999,
          "durationTicks": 857,
          "midi": 66,
          "name": "F#4",
          "ticks": 16042,
          "time": 62.547999999999995,
          "velocity": 0.5669291338582677
        },
        {
          "duration": 3.42799999999999,
          "durationTicks": 857,
          "midi": 59,
          "name": "B3",
          "ticks": 16042,
          "time": 62.547999999999995,
          "velocity": 0.5669291338582677
        },
        {
          "duration": 72.00000000000001,
          "durationTicks": 18000,
          "midi": 66,
          "name": "F#4",
          "ticks": 16899,
          "time": 65.97599999999998,
          "velocity": 0.5669291338582677
        },
        {
          "duration": 72.00000000000001,
          "durationTicks": 18000,
          "midi": 59,
          "name": "B3",
          "ticks": 16899,
          "time": 65.97599999999998,
          "velocity": 0.5669291338582677
        },
        {
          "duration": 0.2120000000000033,
          "durationTicks": 53,
          "midi": 62,
          "name": "D4",
          "ticks": 25685,
          "time": 101.11999999999999,
          "velocity": 0.5669291338582677
        },
        {
          "duration": 0.2120000000000033,
          "durationTicks": 53,
          "midi": 67,
          "name": "G4",
          "ticks": 25685,
          "time": 101.11999999999999,
          "velocity": 0.5669291338582677
        },
        {
          "duration": 0.43200000000000216,
          "durationTicks": 108,
          "midi": 62,
          "name": "D4",
          "ticks": 25738,
          "time": 101.332,
          "velocity": 0.5669291338582677
        },
        {
          "duration": 0.43200000000000216,
          "durationTicks": 108,
          "midi": 67,
          "name": "G4",
          "ticks": 25738,
          "time": 101.332,
          "velocity": 0.5669291338582677
        },
        {
          "duration": 1.9279999999999973,
          "durationTicks": 482,
          "midi": 62,
          "name": "D4",
          "ticks": 25846,
          "time": 101.764,
          "velocity": 0.5669291338582677
        },
        {
          "duration": 1.9279999999999973,
          "durationTicks": 482,
          "midi": 67,
          "name": "G4",
          "ticks": 25846,
          "time": 101.764,
          "velocity": 0.5669291338582677
        },
        {
          "duration": 0.21599999999999397,
          "durationTicks": 54,
          "midi": 62,
          "name": "D4",
          "ticks": 26542,
          "time": 104.548,
          "velocity": 0.5669291338582677
        },
        {
          "duration": 0.21599999999999397,
          "durationTicks": 54,
          "midi": 67,
          "name": "G4",
          "ticks": 26542,
          "time": 104.548,
          "velocity": 0.5669291338582677
        },
        {
          "duration": 0.42799999999999727,
          "durationTicks": 107,
          "midi": 62,
          "name": "D4",
          "ticks": 26596,
          "time": 104.764,
          "velocity": 0.5669291338582677
        },
        {
          "duration": 0.42799999999999727,
          "durationTicks": 107,
          "midi": 67,
          "name": "G4",
          "ticks": 26596,
          "time": 104.764,
          "velocity": 0.5669291338582677
        },
        {
          "duration": 1.9279999999999973,
          "durationTicks": 482,
          "midi": 62,
          "name": "D4",
          "ticks": 26703,
          "time": 105.192,
          "velocity": 0.5669291338582677
        },
        {
          "duration": 1.9279999999999973,
          "durationTicks": 482,
          "midi": 67,
          "name": "G4",
          "ticks": 26703,
          "time": 105.192,
          "velocity": 0.5669291338582677
        },
        {
          "duration": 0.21600000000000819,
          "durationTicks": 54,
          "midi": 62,
          "name": "D4",
          "ticks": 27399,
          "time": 107.97599999999998,
          "velocity": 0.5669291338582677
        },
        {
          "duration": 0.21600000000000819,
          "durationTicks": 54,
          "midi": 67,
          "name": "G4",
          "ticks": 27399,
          "time": 107.97599999999998,
          "velocity": 0.5669291338582677
        },
        {
          "duration": 0.42799999999999727,
          "durationTicks": 107,
          "midi": 62,
          "name": "D4",
          "ticks": 27453,
          "time": 108.192,
          "velocity": 0.5669291338582677
        },
        {
          "duration": 0.42799999999999727,
          "durationTicks": 107,
          "midi": 67,
          "name": "G4",
          "ticks": 27453,
          "time": 108.192,
          "velocity": 0.5669291338582677
        },
        {
          "duration": 1.9280000000000115,
          "durationTicks": 482,
          "midi": 62,
          "name": "D4",
          "ticks": 27560,
          "time": 108.61999999999999,
          "velocity": 0.5669291338582677
        },
        {
          "duration": 1.9280000000000115,
          "durationTicks": 482,
          "midi": 67,
          "name": "G4",
          "ticks": 27560,
          "time": 108.61999999999999,
          "velocity": 0.5669291338582677
        },
        {
          "duration": 0.21599999999999397,
          "durationTicks": 54,
          "midi": 62,
          "name": "D4",
          "ticks": 28256,
          "time": 111.404,
          "velocity": 0.5669291338582677
        },
        {
          "duration": 0.21599999999999397,
          "durationTicks": 54,
          "midi": 67,
          "name": "G4",
          "ticks": 28256,
          "time": 111.404,
          "velocity": 0.5669291338582677
        },
        {
          "duration": 0.4280000000000115,
          "durationTicks": 107,
          "midi": 62,
          "name": "D4",
          "ticks": 28310,
          "time": 111.61999999999999,
          "velocity": 0.5669291338582677
        },
        {
          "duration": 0.4280000000000115,
          "durationTicks": 107,
          "midi": 67,
          "name": "G4",
          "ticks": 28310,
          "time": 111.61999999999999,
          "velocity": 0.5669291338582677
        },
        {
          "duration": 1.927999999999983,
          "durationTicks": 482,
          "midi": 62,
          "name": "D4",
          "ticks": 28417,
          "time": 112.048,
          "velocity": 0.5669291338582677
        },
        {
          "duration": 1.927999999999983,
          "durationTicks": 482,
          "midi": 67,
          "name": "G4",
          "ticks": 28417,
          "time": 112.048,
          "velocity": 0.5669291338582677
        },
        {
          "duration": 0.21600000000000819,
          "durationTicks": 54,
          "midi": 60,
          "name": "C4",
          "ticks": 29113,
          "time": 114.832,
          "velocity": 0.5669291338582677
        },
        {
          "duration": 0.21600000000000819,
          "durationTicks": 54,
          "midi": 67,
          "name": "G4",
          "ticks": 29113,
          "time": 114.832,
          "velocity": 0.5669291338582677
        },
        {
          "duration": 0.42799999999998306,
          "durationTicks": 107,
          "midi": 60,
          "name": "C4",
          "ticks": 29167,
          "time": 115.048,
          "velocity": 0.5669291338582677
        },
        {
          "duration": 0.42799999999998306,
          "durationTicks": 107,
          "midi": 67,
          "name": "G4",
          "ticks": 29167,
          "time": 115.048,
          "velocity": 0.5669291338582677
        },
        {
          "duration": 1.9280000000000115,
          "durationTicks": 482,
          "midi": 60,
          "name": "C4",
          "ticks": 29274,
          "time": 115.47599999999998,
          "velocity": 0.5669291338582677
        },
        {
          "duration": 1.9280000000000115,
          "durationTicks": 482,
          "midi": 67,
          "name": "G4",
          "ticks": 29274,
          "time": 115.47599999999998,
          "velocity": 0.5669291338582677
        },
        {
          "duration": 0.21199999999998909,
          "durationTicks": 53,
          "midi": 60,
          "name": "C4",
          "ticks": 29971,
          "time": 118.264,
          "velocity": 0.5669291338582677
        },
        {
          "duration": 0.21199999999998909,
          "durationTicks": 53,
          "midi": 67,
          "name": "G4",
          "ticks": 29971,
          "time": 118.264,
          "velocity": 0.5669291338582677
        },
        {
          "duration": 0.4280000000000115,
          "durationTicks": 107,
          "midi": 60,
          "name": "C4",
          "ticks": 30024,
          "time": 118.47599999999998,
          "velocity": 0.5669291338582677
        },
        {
          "duration": 0.4280000000000115,
          "durationTicks": 107,
          "midi": 67,
          "name": "G4",
          "ticks": 30024,
          "time": 118.47599999999998,
          "velocity": 0.5669291338582677
        },
        {
          "duration": 1.927999999999983,
          "durationTicks": 482,
          "midi": 60,
          "name": "C4",
          "ticks": 30131,
          "time": 118.904,
          "velocity": 0.5669291338582677
        },
        {
          "duration": 1.927999999999983,
          "durationTicks": 482,
          "midi": 67,
          "name": "G4",
          "ticks": 30131,
          "time": 118.904,
          "velocity": 0.5669291338582677
        },
        {
          "duration": 0.2120000000000033,
          "durationTicks": 53,
          "midi": 62,
          "name": "D4",
          "ticks": 30828,
          "time": 121.692,
          "velocity": 0.5669291338582677
        },
        {
          "duration": 0.2120000000000033,
          "durationTicks": 53,
          "midi": 67,
          "name": "G4",
          "ticks": 30828,
          "time": 121.692,
          "velocity": 0.5669291338582677
        },
        {
          "duration": 0.42799999999998306,
          "durationTicks": 107,
          "midi": 62,
          "name": "D4",
          "ticks": 30881,
          "time": 121.904,
          "velocity": 0.5669291338582677
        },
        {
          "duration": 0.42799999999998306,
          "durationTicks": 107,
          "midi": 67,
          "name": "G4",
          "ticks": 30881,
          "time": 121.904,
          "velocity": 0.5669291338582677
        },
        {
          "duration": 1.9320000000000164,
          "durationTicks": 483,
          "midi": 62,
          "name": "D4",
          "ticks": 30988,
          "time": 122.33199999999998,
          "velocity": 0.5669291338582677
        },
        {
          "duration": 1.9320000000000164,
          "durationTicks": 483,
          "midi": 67,
          "name": "G4",
          "ticks": 30988,
          "time": 122.33199999999998,
          "velocity": 0.5669291338582677
        },
        {
          "duration": 0.21199999999998909,
          "durationTicks": 53,
          "midi": 62,
          "name": "D4",
          "ticks": 31685,
          "time": 125.12,
          "velocity": 0.5669291338582677
        },
        {
          "duration": 0.21199999999998909,
          "durationTicks": 53,
          "midi": 67,
          "name": "G4",
          "ticks": 31685,
          "time": 125.12,
          "velocity": 0.5669291338582677
        },
        {
          "duration": 0.43200000000000216,
          "durationTicks": 108,
          "midi": 62,
          "name": "D4",
          "ticks": 31738,
          "time": 125.332,
          "velocity": 0.5669291338582677
        },
        {
          "duration": 0.43200000000000216,
          "durationTicks": 108,
          "midi": 67,
          "name": "G4",
          "ticks": 31738,
          "time": 125.332,
          "velocity": 0.5669291338582677
        },
        {
          "duration": 1.927999999999983,
          "durationTicks": 482,
          "midi": 62,
          "name": "D4",
          "ticks": 31846,
          "time": 125.764,
          "velocity": 0.5669291338582677
        },
        {
          "duration": 1.927999999999983,
          "durationTicks": 482,
          "midi": 67,
          "name": "G4",
          "ticks": 31846,
          "time": 125.764,
          "velocity": 0.5669291338582677
        },
        {
          "duration": 0.21600000000000819,
          "durationTicks": 54,
          "midi": 60,
          "name": "C4",
          "ticks": 32542,
          "time": 128.548,
          "velocity": 0.5669291338582677
        },
        {
          "duration": 0.21600000000000819,
          "durationTicks": 54,
          "midi": 67,
          "name": "G4",
          "ticks": 32542,
          "time": 128.548,
          "velocity": 0.5669291338582677
        },
        {
          "duration": 0.42799999999999727,
          "durationTicks": 107,
          "midi": 60,
          "name": "C4",
          "ticks": 32596,
          "time": 128.764,
          "velocity": 0.5669291338582677
        },
        {
          "duration": 0.42799999999999727,
          "durationTicks": 107,
          "midi": 67,
          "name": "G4",
          "ticks": 32596,
          "time": 128.764,
          "velocity": 0.5669291338582677
        },
        {
          "duration": 1.9279999999999973,
          "durationTicks": 482,
          "midi": 60,
          "name": "C4",
          "ticks": 32703,
          "time": 129.192,
          "velocity": 0.5669291338582677
        },
        {
          "duration": 1.9279999999999973,
          "durationTicks": 482,
          "midi": 67,
          "name": "G4",
          "ticks": 32703,
          "time": 129.192,
          "velocity": 0.5669291338582677
        },
        {
          "duration": 0.21600000000000819,
          "durationTicks": 54,
          "midi": 60,
          "name": "C4",
          "ticks": 33399,
          "time": 131.976,
          "velocity": 0.5669291338582677
        },
        {
          "duration": 0.21600000000000819,
          "durationTicks": 54,
          "midi": 67,
          "name": "G4",
          "ticks": 33399,
          "time": 131.976,
          "velocity": 0.5669291338582677
        },
        {
          "duration": 0.42799999999999727,
          "durationTicks": 107,
          "midi": 60,
          "name": "C4",
          "ticks": 33453,
          "time": 132.192,
          "velocity": 0.5669291338582677
        },
        {
          "duration": 0.42799999999999727,
          "durationTicks": 107,
          "midi": 67,
          "name": "G4",
          "ticks": 33453,
          "time": 132.192,
          "velocity": 0.5669291338582677
        },
        {
          "duration": 1.9279999999999973,
          "durationTicks": 482,
          "midi": 60,
          "name": "C4",
          "ticks": 33560,
          "time": 132.62,
          "velocity": 0.5669291338582677
        },
        {
          "duration": 1.9279999999999973,
          "durationTicks": 482,
          "midi": 67,
          "name": "G4",
          "ticks": 33560,
          "time": 132.62,
          "velocity": 0.5669291338582677
        }
      ]
    },
    {
      "channel": 6,
      "controlChanges": {
        "1": [
          {
            "number": 1,
            "ticks": 9319,
            "time": 35.65599999999999,
            "value": 0.12598425196850394
          }
        ],
        "6": [
          {
            "number": 6,
            "ticks": 178,
            "time": 0.11125,
            "value": 0.1889763779527559
          }
        ],
        "10": [
          {
            "number": 10,
            "ticks": 9359,
            "time": 35.815999999999995,
            "value": 0.06299212598425197
          },
          {
            "number": 10,
            "ticks": 9386,
            "time": 35.924,
            "value": 0.5039370078740157
          },
          {
            "number": 10,
            "ticks": 9413,
            "time": 36.032,
            "value": 0.9448818897637795
          },
          {
            "number": 10,
            "ticks": 9439,
            "time": 36.135999999999996,
            "value": 0.5039370078740157
          },
          {
            "number": 10,
            "ticks": 9466,
            "time": 36.244,
            "value": 0.06299212598425197
          },
          {
            "number": 10,
            "ticks": 9493,
            "time": 36.352,
            "value": 0.5039370078740157
          },
          {
            "number": 10,
            "ticks": 9520,
            "time": 36.459999999999994,
            "value": 0.9448818897637795
          },
          {
            "number": 10,
            "ticks": 9546,
            "time": 36.56399999999999,
            "value": 0.5039370078740157
          },
          {
            "number": 10,
            "ticks": 9573,
            "time": 36.672,
            "value": 0.06299212598425197
          },
          {
            "number": 10,
            "ticks": 9600,
            "time": 36.779999999999994,
            "value": 0.5039370078740157
          },
          {
            "number": 10,
            "ticks": 9627,
            "time": 36.88799999999999,
            "value": 0.9448818897637795
          },
          {
            "number": 10,
            "ticks": 9654,
            "time": 36.995999999999995,
            "value": 0.5039370078740157
          },
          {
            "number": 10,
            "ticks": 9680,
            "time": 37.1,
            "value": 0.06299212598425197
          },
          {
            "number": 10,
            "ticks": 9707,
            "time": 37.208,
            "value": 0.5039370078740157
          },
          {
            "number": 10,
            "ticks": 9734,
            "time": 37.315999999999995,
            "value": 0.9448818897637795
          },
          {
            "number": 10,
            "ticks": 9761,
            "time": 37.424,
            "value": 0.5039370078740157
          },
          {
            "number": 10,
            "ticks": 9788,
            "time": 37.532,
            "value": 0.06299212598425197
          },
          {
            "number": 10,
            "ticks": 9814,
            "time": 37.635999999999996,
            "value": 0.5039370078740157
          },
          {
            "number": 10,
            "ticks": 9841,
            "time": 37.744,
            "value": 0.9448818897637795
          },
          {
            "number": 10,
            "ticks": 9868,
            "time": 37.852,
            "value": 0.5039370078740157
          },
          {
            "number": 10,
            "ticks": 9895,
            "time": 37.959999999999994,
            "value": 0.06299212598425197
          },
          {
            "number": 10,
            "ticks": 9921,
            "time": 38.06399999999999,
            "value": 0.5039370078740157
          },
          {
            "number": 10,
            "ticks": 9948,
            "time": 38.172,
            "value": 0.9448818897637795
          },
          {
            "number": 10,
            "ticks": 9975,
            "time": 38.279999999999994,
            "value": 0.5039370078740157
          },
          {
            "number": 10,
            "ticks": 10002,
            "time": 38.38799999999999,
            "value": 0.06299212598425197
          },
          {
            "number": 10,
            "ticks": 10029,
            "time": 38.495999999999995,
            "value": 0.5039370078740157
          },
          {
            "number": 10,
            "ticks": 10055,
            "time": 38.6,
            "value": 0.9448818897637795
          },
          {
            "number": 10,
            "ticks": 10082,
            "time": 38.708,
            "value": 0.5039370078740157
          },
          {
            "number": 10,
            "ticks": 10109,
            "time": 38.815999999999995,
            "value": 0.06299212598425197
          },
          {
            "number": 10,
            "ticks": 10136,
            "time": 38.924,
            "value": 0.5039370078740157
          },
          {
            "number": 10,
            "ticks": 10163,
            "time": 39.032,
            "value": 0.9448818897637795
          },
          {
            "number": 10,
            "ticks": 10189,
            "time": 39.135999999999996,
            "value": 0.5039370078740157
          },
          {
            "number": 10,
            "ticks": 10216,
            "time": 39.244,
            "value": 0.06299212598425197
          },
          {
            "number": 10,
            "ticks": 10243,
            "time": 39.352,
            "value": 0.5039370078740157
          },
          {
            "number": 10,
            "ticks": 10270,
            "time": 39.459999999999994,
            "value": 0.9448818897637795
          },
          {
            "number": 10,
            "ticks": 10296,
            "time": 39.56399999999999,
            "value": 0.5039370078740157
          },
          {
            "number": 10,
            "ticks": 10323,
            "time": 39.672,
            "value": 0.06299212598425197
          },
          {
            "number": 10,
            "ticks": 10350,
            "time": 39.779999999999994,
            "value": 0.5039370078740157
          },
          {
            "number": 10,
            "ticks": 10377,
            "time": 39.88799999999999,
            "value": 0.9448818897637795
          },
          {
            "number": 10,
            "ticks": 10404,
            "time": 39.995999999999995,
            "value": 0.5039370078740157
          },
          {
            "number": 10,
            "ticks": 10430,
            "time": 40.1,
            "value": 0.06299212598425197
          },
          {
            "number": 10,
            "ticks": 10457,
            "time": 40.208,
            "value": 0.5039370078740157
          },
          {
            "number": 10,
            "ticks": 10484,
            "time": 40.315999999999995,
            "value": 0.9448818897637795
          },
          {
            "number": 10,
            "ticks": 10511,
            "time": 40.424,
            "value": 0.5039370078740157
          },
          {
            "number": 10,
            "ticks": 10538,
            "time": 40.532,
            "value": 0.06299212598425197
          },
          {
            "number": 10,
            "ticks": 10564,
            "time": 40.635999999999996,
            "value": 0.5039370078740157
          },
          {
            "number": 10,
            "ticks": 10591,
            "time": 40.744,
            "value": 0.9448818897637795
          },
          {
            "number": 10,
            "ticks": 10618,
            "time": 40.852,
            "value": 0.5039370078740157
          },
          {
            "number": 10,
            "ticks": 10645,
            "time": 40.959999999999994,
            "value": 0.06299212598425197
          },
          {
            "number": 10,
            "ticks": 10671,
            "time": 41.06399999999999,
            "value": 0.5039370078740157
          },
          {
            "number": 10,
            "ticks": 10698,
            "time": 41.172,
            "value": 0.9448818897637795
          },
          {
            "number": 10,
            "ticks": 10725,
            "time": 41.279999999999994,
            "value": 0.5039370078740157
          },
          {
            "number": 10,
            "ticks": 10752,
            "time": 41.38799999999999,
            "value": 0.06299212598425197
          },
          {
            "number": 10,
            "ticks": 10779,
            "time": 41.495999999999995,
            "value": 0.5039370078740157
          },
          {
            "number": 10,
            "ticks": 10805,
            "time": 41.6,
            "value": 0.9448818897637795
          },
          {
            "number": 10,
            "ticks": 10832,
            "time": 41.708,
            "value": 0.5039370078740157
          },
          {
            "number": 10,
            "ticks": 10859,
            "time": 41.815999999999995,
            "value": 0.06299212598425197
          },
          {
            "number": 10,
            "ticks": 10886,
            "time": 41.924,
            "value": 0.5039370078740157
          },
          {
            "number": 10,
            "ticks": 10913,
            "time": 42.032,
            "value": 0.9448818897637795
          },
          {
            "number": 10,
            "ticks": 10939,
            "time": 42.135999999999996,
            "value": 0.5039370078740157
          },
          {
            "number": 10,
            "ticks": 10966,
            "time": 42.244,
            "value": 0.06299212598425197
          },
          {
            "number": 10,
            "ticks": 10993,
            "time": 42.352,
            "value": 0.5039370078740157
          },
          {
            "number": 10,
            "ticks": 11020,
            "time": 42.459999999999994,
            "value": 0.9448818897637795
          },
          {
            "number": 10,
            "ticks": 11046,
            "time": 42.56399999999999,
            "value": 0.5039370078740157
          },
          {
            "number": 10,
            "ticks": 11073,
            "time": 42.672,
            "value": 0.06299212598425197
          },
          {
            "number": 10,
            "ticks": 11100,
            "time": 42.779999999999994,
            "value": 0.5039370078740157
          },
          {
            "number": 10,
            "ticks": 11127,
            "time": 42.88799999999999,
            "value": 0.9448818897637795
          },
          {
            "number": 10,
            "ticks": 11154,
            "time": 42.995999999999995,
            "value": 0.5039370078740157
          },
          {
            "number": 10,
            "ticks": 11180,
            "time": 43.099999999999994,
            "value": 0.06299212598425197
          },
          {
            "number": 10,
            "ticks": 11207,
            "time": 43.208,
            "value": 0.5039370078740157
          },
          {
            "number": 10,
            "ticks": 11234,
            "time": 43.315999999999995,
            "value": 0.9448818897637795
          },
          {
            "number": 10,
            "ticks": 11261,
            "time": 43.424,
            "value": 0.5039370078740157
          },
          {
            "number": 10,
            "ticks": 11288,
            "time": 43.532,
            "value": 0.06299212598425197
          },
          {
            "number": 10,
            "ticks": 11314,
            "time": 43.635999999999996,
            "value": 0.5039370078740157
          },
          {
            "number": 10,
            "ticks": 11341,
            "time": 43.744,
            "value": 0.9448818897637795
          },
          {
            "number": 10,
            "ticks": 11368,
            "time": 43.852,
            "value": 0.5039370078740157
          },
          {
            "number": 10,
            "ticks": 11395,
            "time": 43.959999999999994,
            "value": 0.06299212598425197
          },
          {
            "number": 10,
            "ticks": 11421,
            "time": 44.06399999999999,
            "value": 0.5039370078740157
          },
          {
            "number": 10,
            "ticks": 11448,
            "time": 44.172,
            "value": 0.9448818897637795
          },
          {
            "number": 10,
            "ticks": 11475,
            "time": 44.279999999999994,
            "value": 0.5039370078740157
          },
          {
            "number": 10,
            "ticks": 11502,
            "time": 44.38799999999999,
            "value": 0.06299212598425197
          },
          {
            "number": 10,
            "ticks": 11529,
            "time": 44.495999999999995,
            "value": 0.5039370078740157
          },
          {
            "number": 10,
            "ticks": 11555,
            "time": 44.599999999999994,
            "value": 0.9448818897637795
          },
          {
            "number": 10,
            "ticks": 11582,
            "time": 44.708,
            "value": 0.5039370078740157
          },
          {
            "number": 10,
            "ticks": 11609,
            "time": 44.815999999999995,
            "value": 0.06299212598425197
          },
          {
            "number": 10,
            "ticks": 11636,
            "time": 44.924,
            "value": 0.5039370078740157
          },
          {
            "number": 10,
            "ticks": 11663,
            "time": 45.032,
            "value": 0.9448818897637795
          },
          {
            "number": 10,
            "ticks": 11689,
            "time": 45.135999999999996,
            "value": 0.5039370078740157
          },
          {
            "number": 10,
            "ticks": 11716,
            "time": 45.244,
            "value": 0.06299212598425197
          },
          {
            "number": 10,
            "ticks": 11743,
            "time": 45.352,
            "value": 0.5039370078740157
          },
          {
            "number": 10,
            "ticks": 11770,
            "time": 45.459999999999994,
            "value": 0.9448818897637795
          },
          {
            "number": 10,
            "ticks": 11796,
            "time": 45.56399999999999,
            "value": 0.5039370078740157
          },
          {
            "number": 10,
            "ticks": 11823,
            "time": 45.672,
            "value": 0.06299212598425197
          },
          {
            "number": 10,
            "ticks": 11850,
            "time": 45.779999999999994,
            "value": 0.5039370078740157
          },
          {
            "number": 10,
            "ticks": 11877,
            "time": 45.88799999999999,
            "value": 0.9448818897637795
          },
          {
            "number": 10,
            "ticks": 11904,
            "time": 45.995999999999995,
            "value": 0.5039370078740157
          },
          {
            "number": 10,
            "ticks": 11930,
            "time": 46.099999999999994,
            "value": 0.06299212598425197
          },
          {
            "number": 10,
            "ticks": 11957,
            "time": 46.208,
            "value": 0.5039370078740157
          },
          {
            "number": 10,
            "ticks": 11984,
            "time": 46.315999999999995,
            "value": 0.9448818897637795
          },
          {
            "number": 10,
            "ticks": 12011,
            "time": 46.424,
            "value": 0.5039370078740157
          },
          {
            "number": 10,
            "ticks": 12038,
            "time": 46.532,
            "value": 0.06299212598425197
          },
          {
            "number": 10,
            "ticks": 12064,
            "time": 46.635999999999996,
            "value": 0.5039370078740157
          },
          {
            "number": 10,
            "ticks": 12091,
            "time": 46.744,
            "value": 0.9448818897637795
          },
          {
            "number": 10,
            "ticks": 12118,
            "time": 46.852,
            "value": 0.5039370078740157
          },
          {
            "number": 10,
            "ticks": 12788,
            "time": 49.532,
            "value": 0.06299212598425197
          },
          {
            "number": 10,
            "ticks": 12814,
            "time": 49.635999999999996,
            "value": 0.5039370078740157
          },
          {
            "number": 10,
            "ticks": 12841,
            "time": 49.744,
            "value": 0.9448818897637795
          },
          {
            "number": 10,
            "ticks": 12868,
            "time": 49.852,
            "value": 0.5039370078740157
          },
          {
            "number": 10,
            "ticks": 12895,
            "time": 49.959999999999994,
            "value": 0.06299212598425197
          },
          {
            "number": 10,
            "ticks": 12921,
            "time": 50.06399999999999,
            "value": 0.5039370078740157
          },
          {
            "number": 10,
            "ticks": 12948,
            "time": 50.172,
            "value": 0.9448818897637795
          },
          {
            "number": 10,
            "ticks": 12975,
            "time": 50.279999999999994,
            "value": 0.5039370078740157
          },
          {
            "number": 10,
            "ticks": 13002,
            "time": 50.38799999999999,
            "value": 0.06299212598425197
          },
          {
            "number": 10,
            "ticks": 13029,
            "time": 50.495999999999995,
            "value": 0.5039370078740157
          },
          {
            "number": 10,
            "ticks": 13055,
            "time": 50.599999999999994,
            "value": 0.9448818897637795
          },
          {
            "number": 10,
            "ticks": 13082,
            "time": 50.70799999999999,
            "value": 0.5039370078740157
          },
          {
            "number": 10,
            "ticks": 13109,
            "time": 50.815999999999995,
            "value": 0.06299212598425197
          },
          {
            "number": 10,
            "ticks": 13136,
            "time": 50.924,
            "value": 0.5039370078740157
          },
          {
            "number": 10,
            "ticks": 13163,
            "time": 51.032,
            "value": 0.9448818897637795
          },
          {
            "number": 10,
            "ticks": 13189,
            "time": 51.135999999999996,
            "value": 0.5039370078740157
          },
          {
            "number": 10,
            "ticks": 13216,
            "time": 51.244,
            "value": 0.06299212598425197
          },
          {
            "number": 10,
            "ticks": 13243,
            "time": 51.352,
            "value": 0.5039370078740157
          },
          {
            "number": 10,
            "ticks": 13270,
            "time": 51.459999999999994,
            "value": 0.9448818897637795
          },
          {
            "number": 10,
            "ticks": 13296,
            "time": 51.56399999999999,
            "value": 0.5039370078740157
          },
          {
            "number": 10,
            "ticks": 13323,
            "time": 51.672,
            "value": 0.06299212598425197
          },
          {
            "number": 10,
            "ticks": 13350,
            "time": 51.779999999999994,
            "value": 0.5039370078740157
          },
          {
            "number": 10,
            "ticks": 13377,
            "time": 51.88799999999999,
            "value": 0.9448818897637795
          },
          {
            "number": 10,
            "ticks": 13404,
            "time": 51.995999999999995,
            "value": 0.5039370078740157
          },
          {
            "number": 10,
            "ticks": 13430,
            "time": 52.099999999999994,
            "value": 0.06299212598425197
          },
          {
            "number": 10,
            "ticks": 13457,
            "time": 52.20799999999999,
            "value": 0.5039370078740157
          },
          {
            "number": 10,
            "ticks": 13484,
            "time": 52.315999999999995,
            "value": 0.9448818897637795
          },
          {
            "number": 10,
            "ticks": 13511,
            "time": 52.424,
            "value": 0.5039370078740157
          },
          {
            "number": 10,
            "ticks": 13538,
            "time": 52.532,
            "value": 0.06299212598425197
          },
          {
            "number": 10,
            "ticks": 13564,
            "time": 52.635999999999996,
            "value": 0.5039370078740157
          },
          {
            "number": 10,
            "ticks": 13591,
            "time": 52.744,
            "value": 0.9448818897637795
          },
          {
            "number": 10,
            "ticks": 13618,
            "time": 52.852,
            "value": 0.5039370078740157
          },
          {
            "number": 10,
            "ticks": 13645,
            "time": 52.959999999999994,
            "value": 0.06299212598425197
          },
          {
            "number": 10,
            "ticks": 13671,
            "time": 53.06399999999999,
            "value": 0.5039370078740157
          },
          {
            "number": 10,
            "ticks": 13698,
            "time": 53.172,
            "value": 0.9448818897637795
          },
          {
            "number": 10,
            "ticks": 13725,
            "time": 53.279999999999994,
            "value": 0.5039370078740157
          },
          {
            "number": 10,
            "ticks": 13752,
            "time": 53.38799999999999,
            "value": 0.06299212598425197
          },
          {
            "number": 10,
            "ticks": 13779,
            "time": 53.495999999999995,
            "value": 0.5039370078740157
          },
          {
            "number": 10,
            "ticks": 13805,
            "time": 53.599999999999994,
            "value": 0.9448818897637795
          },
          {
            "number": 10,
            "ticks": 13832,
            "time": 53.70799999999999,
            "value": 0.5039370078740157
          },
          {
            "number": 10,
            "ticks": 13859,
            "time": 53.815999999999995,
            "value": 0.06299212598425197
          },
          {
            "number": 10,
            "ticks": 13886,
            "time": 53.924,
            "value": 0.5039370078740157
          },
          {
            "number": 10,
            "ticks": 13913,
            "time": 54.032,
            "value": 0.9448818897637795
          },
          {
            "number": 10,
            "ticks": 13939,
            "time": 54.135999999999996,
            "value": 0.5039370078740157
          },
          {
            "number": 10,
            "ticks": 13966,
            "time": 54.244,
            "value": 0.06299212598425197
          },
          {
            "number": 10,
            "ticks": 13993,
            "time": 54.352,
            "value": 0.5039370078740157
          },
          {
            "number": 10,
            "ticks": 14020,
            "time": 54.459999999999994,
            "value": 0.9448818897637795
          },
          {
            "number": 10,
            "ticks": 14046,
            "time": 54.56399999999999,
            "value": 0.5039370078740157
          },
          {
            "number": 10,
            "ticks": 14073,
            "time": 54.672,
            "value": 0.06299212598425197
          },
          {
            "number": 10,
            "ticks": 14100,
            "time": 54.779999999999994,
            "value": 0.5039370078740157
          },
          {
            "number": 10,
            "ticks": 14127,
            "time": 54.88799999999999,
            "value": 0.9448818897637795
          },
          {
            "number": 10,
            "ticks": 14154,
            "time": 54.995999999999995,
            "value": 0.5039370078740157
          },
          {
            "number": 10,
            "ticks": 14180,
            "time": 55.099999999999994,
            "value": 0.06299212598425197
          },
          {
            "number": 10,
            "ticks": 14207,
            "time": 55.20799999999999,
            "value": 0.5039370078740157
          },
          {
            "number": 10,
            "ticks": 14234,
            "time": 55.315999999999995,
            "value": 0.9448818897637795
          },
          {
            "number": 10,
            "ticks": 14261,
            "time": 55.424,
            "value": 0.5039370078740157
          },
          {
            "number": 10,
            "ticks": 14288,
            "time": 55.532,
            "value": 0.06299212598425197
          },
          {
            "number": 10,
            "ticks": 14314,
            "time": 55.635999999999996,
            "value": 0.5039370078740157
          },
          {
            "number": 10,
            "ticks": 14341,
            "time": 55.744,
            "value": 0.9448818897637795
          },
          {
            "number": 10,
            "ticks": 14368,
            "time": 55.852,
            "value": 0.5039370078740157
          },
          {
            "number": 10,
            "ticks": 14395,
            "time": 55.959999999999994,
            "value": 0.06299212598425197
          },
          {
            "number": 10,
            "ticks": 14421,
            "time": 56.06399999999999,
            "value": 0.5039370078740157
          },
          {
            "number": 10,
            "ticks": 14448,
            "time": 56.172,
            "value": 0.9448818897637795
          },
          {
            "number": 10,
            "ticks": 14475,
            "time": 56.279999999999994,
            "value": 0.5039370078740157
          },
          {
            "number": 10,
            "ticks": 14502,
            "time": 56.38799999999999,
            "value": 0.06299212598425197
          },
          {
            "number": 10,
            "ticks": 14529,
            "time": 56.495999999999995,
            "value": 0.5039370078740157
          },
          {
            "number": 10,
            "ticks": 14555,
            "time": 56.599999999999994,
            "value": 0.9448818897637795
          },
          {
            "number": 10,
            "ticks": 14582,
            "time": 56.70799999999999,
            "value": 0.5039370078740157
          },
          {
            "number": 10,
            "ticks": 14609,
            "time": 56.815999999999995,
            "value": 0.06299212598425197
          },
          {
            "number": 10,
            "ticks": 14636,
            "time": 56.924,
            "value": 0.5039370078740157
          },
          {
            "number": 10,
            "ticks": 14663,
            "time": 57.032,
            "value": 0.9448818897637795
          },
          {
            "number": 10,
            "ticks": 14689,
            "time": 57.135999999999996,
            "value": 0.5039370078740157
          },
          {
            "number": 10,
            "ticks": 14716,
            "time": 57.244,
            "value": 0.06299212598425197
          },
          {
            "number": 10,
            "ticks": 14743,
            "time": 57.352,
            "value": 0.5039370078740157
          },
          {
            "number": 10,
            "ticks": 14770,
            "time": 57.459999999999994,
            "value": 0.9448818897637795
          },
          {
            "number": 10,
            "ticks": 14796,
            "time": 57.56399999999999,
            "value": 0.5039370078740157
          },
          {
            "number": 10,
            "ticks": 14823,
            "time": 57.672,
            "value": 0.06299212598425197
          },
          {
            "number": 10,
            "ticks": 14850,
            "time": 57.779999999999994,
            "value": 0.5039370078740157
          },
          {
            "number": 10,
            "ticks": 14877,
            "time": 57.88799999999999,
            "value": 0.9448818897637795
          },
          {
            "number": 10,
            "ticks": 14904,
            "time": 57.995999999999995,
            "value": 0.5039370078740157
          },
          {
            "number": 10,
            "ticks": 14930,
            "time": 58.099999999999994,
            "value": 0.06299212598425197
          },
          {
            "number": 10,
            "ticks": 14957,
            "time": 58.20799999999999,
            "value": 0.5039370078740157
          },
          {
            "number": 10,
            "ticks": 14984,
            "time": 58.31599999999999,
            "value": 0.9448818897637795
          },
          {
            "number": 10,
            "ticks": 15011,
            "time": 58.42399999999999,
            "value": 0.5039370078740157
          },
          {
            "number": 10,
            "ticks": 15038,
            "time": 58.532,
            "value": 0.06299212598425197
          },
          {
            "number": 10,
            "ticks": 15064,
            "time": 58.635999999999996,
            "value": 0.5039370078740157
          },
          {
            "number": 10,
            "ticks": 15091,
            "time": 58.744,
            "value": 0.9448818897637795
          },
          {
            "number": 10,
            "ticks": 15118,
            "time": 58.852,
            "value": 0.5039370078740157
          },
          {
            "number": 10,
            "ticks": 15145,
            "time": 58.959999999999994,
            "value": 0.06299212598425197
          },
          {
            "number": 10,
            "ticks": 15171,
            "time": 59.06399999999999,
            "value": 0.5039370078740157
          },
          {
            "number": 10,
            "ticks": 15198,
            "time": 59.172,
            "value": 0.9448818897637795
          },
          {
            "number": 10,
            "ticks": 15225,
            "time": 59.279999999999994,
            "value": 0.5039370078740157
          },
          {
            "number": 10,
            "ticks": 15252,
            "time": 59.38799999999999,
            "value": 0.06299212598425197
          },
          {
            "number": 10,
            "ticks": 15279,
            "time": 59.495999999999995,
            "value": 0.5039370078740157
          },
          {
            "number": 10,
            "ticks": 15305,
            "time": 59.599999999999994,
            "value": 0.9448818897637795
          },
          {
            "number": 10,
            "ticks": 15332,
            "time": 59.70799999999999,
            "value": 0.5039370078740157
          },
          {
            "number": 10,
            "ticks": 15359,
            "time": 59.81599999999999,
            "value": 0.06299212598425197
          },
          {
            "number": 10,
            "ticks": 15386,
            "time": 59.92399999999999,
            "value": 0.5039370078740157
          },
          {
            "number": 10,
            "ticks": 15413,
            "time": 60.032,
            "value": 0.9448818897637795
          },
          {
            "number": 10,
            "ticks": 15439,
            "time": 60.135999999999996,
            "value": 0.5039370078740157
          },
          {
            "number": 10,
            "ticks": 15466,
            "time": 60.244,
            "value": 0.06299212598425197
          },
          {
            "number": 10,
            "ticks": 15493,
            "time": 60.352,
            "value": 0.5039370078740157
          },
          {
            "number": 10,
            "ticks": 15520,
            "time": 60.459999999999994,
            "value": 0.9448818897637795
          },
          {
            "number": 10,
            "ticks": 15546,
            "time": 60.56399999999999,
            "value": 0.5039370078740157
          },
          {
            "number": 10,
            "ticks": 15573,
            "time": 60.672,
            "value": 0.06299212598425197
          },
          {
            "number": 10,
            "ticks": 15600,
            "time": 60.779999999999994,
            "value": 0.5039370078740157
          },
          {
            "number": 10,
            "ticks": 15627,
            "time": 60.88799999999999,
            "value": 0.9448818897637795
          },
          {
            "number": 10,
            "ticks": 15654,
            "time": 60.995999999999995,
            "value": 0.5039370078740157
          },
          {
            "number": 10,
            "ticks": 15680,
            "time": 61.099999999999994,
            "value": 0.06299212598425197
          },
          {
            "number": 10,
            "ticks": 15707,
            "time": 61.20799999999999,
            "value": 0.5039370078740157
          },
          {
            "number": 10,
            "ticks": 15734,
            "time": 61.31599999999999,
            "value": 0.9448818897637795
          },
          {
            "number": 10,
            "ticks": 15761,
            "time": 61.42399999999999,
            "value": 0.5039370078740157
          },
          {
            "number": 10,
            "ticks": 15788,
            "time": 61.532,
            "value": 0.06299212598425197
          },
          {
            "number": 10,
            "ticks": 15814,
            "time": 61.635999999999996,
            "value": 0.5039370078740157
          },
          {
            "number": 10,
            "ticks": 15841,
            "time": 61.74399999999999,
            "value": 0.9448818897637795
          },
          {
            "number": 10,
            "ticks": 15868,
            "time": 61.85199999999999,
            "value": 0.5039370078740157
          },
          {
            "number": 10,
            "ticks": 15895,
            "time": 61.96,
            "value": 0.06299212598425197
          },
          {
            "number": 10,
            "ticks": 15921,
            "time": 62.064,
            "value": 0.5039370078740157
          },
          {
            "number": 10,
            "ticks": 15948,
            "time": 62.172,
            "value": 0.9448818897637795
          },
          {
            "number": 10,
            "ticks": 15975,
            "time": 62.279999999999994,
            "value": 0.5039370078740157
          },
          {
            "number": 10,
            "ticks": 16002,
            "time": 62.38799999999999,
            "value": 0.06299212598425197
          },
          {
            "number": 10,
            "ticks": 16029,
            "time": 62.49599999999999,
            "value": 0.5039370078740157
          },
          {
            "number": 10,
            "ticks": 16055,
            "time": 62.59999999999999,
            "value": 0.9448818897637795
          },
          {
            "number": 10,
            "ticks": 16082,
            "time": 62.708,
            "value": 0.5039370078740157
          },
          {
            "number": 10,
            "ticks": 16109,
            "time": 62.815999999999995,
            "value": 0.06299212598425197
          },
          {
            "number": 10,
            "ticks": 16136,
            "time": 62.92399999999999,
            "value": 0.5039370078740157
          },
          {
            "number": 10,
            "ticks": 16163,
            "time": 63.032,
            "value": 0.9448818897637795
          },
          {
            "number": 10,
            "ticks": 16189,
            "time": 63.135999999999996,
            "value": 0.5039370078740157
          },
          {
            "number": 10,
            "ticks": 16216,
            "time": 63.24399999999999,
            "value": 0.06299212598425197
          },
          {
            "number": 10,
            "ticks": 16243,
            "time": 63.35199999999999,
            "value": 0.5039370078740157
          },
          {
            "number": 10,
            "ticks": 16270,
            "time": 63.46,
            "value": 0.9448818897637795
          },
          {
            "number": 10,
            "ticks": 16296,
            "time": 63.564,
            "value": 0.5039370078740157
          },
          {
            "number": 10,
            "ticks": 16323,
            "time": 63.672,
            "value": 0.06299212598425197
          },
          {
            "number": 10,
            "ticks": 16350,
            "time": 63.779999999999994,
            "value": 0.5039370078740157
          },
          {
            "number": 10,
            "ticks": 16377,
            "time": 63.88799999999999,
            "value": 0.9448818897637795
          },
          {
            "number": 10,
            "ticks": 16404,
            "time": 63.99599999999999,
            "value": 0.5039370078740157
          },
          {
            "number": 10,
            "ticks": 16430,
            "time": 64.1,
            "value": 0.06299212598425197
          },
          {
            "number": 10,
            "ticks": 16457,
            "time": 64.208,
            "value": 0.5039370078740157
          },
          {
            "number": 10,
            "ticks": 16484,
            "time": 64.316,
            "value": 0.9448818897637795
          },
          {
            "number": 10,
            "ticks": 16511,
            "time": 64.42399999999999,
            "value": 0.5039370078740157
          },
          {
            "number": 10,
            "ticks": 16538,
            "time": 64.532,
            "value": 0.06299212598425197
          },
          {
            "number": 10,
            "ticks": 16564,
            "time": 64.636,
            "value": 0.5039370078740157
          },
          {
            "number": 10,
            "ticks": 16591,
            "time": 64.74399999999999,
            "value": 0.9448818897637795
          },
          {
            "number": 10,
            "ticks": 16618,
            "time": 64.85199999999999,
            "value": 0.5039370078740157
          },
          {
            "number": 10,
            "ticks": 16645,
            "time": 64.96,
            "value": 0.06299212598425197
          },
          {
            "number": 10,
            "ticks": 16671,
            "time": 65.06400000000001,
            "value": 0.5039370078740157
          },
          {
            "number": 10,
            "ticks": 16698,
            "time": 65.172,
            "value": 0.9448818897637795
          },
          {
            "number": 10,
            "ticks": 16725,
            "time": 65.28,
            "value": 0.5039370078740157
          },
          {
            "number": 10,
            "ticks": 16752,
            "time": 65.38799999999999,
            "value": 0.06299212598425197
          },
          {
            "number": 10,
            "ticks": 16779,
            "time": 65.496,
            "value": 0.5039370078740157
          },
          {
            "number": 10,
            "ticks": 16805,
            "time": 65.6,
            "value": 0.9448818897637795
          },
          {
            "number": 10,
            "ticks": 16832,
            "time": 65.708,
            "value": 0.5039370078740157
          },
          {
            "number": 10,
            "ticks": 16859,
            "time": 65.816,
            "value": 0.06299212598425197
          },
          {
            "number": 10,
            "ticks": 16886,
            "time": 65.92399999999999,
            "value": 0.5039370078740157
          },
          {
            "number": 10,
            "ticks": 16913,
            "time": 66.032,
            "value": 0.9448818897637795
          },
          {
            "number": 10,
            "ticks": 16939,
            "time": 66.136,
            "value": 0.5039370078740157
          },
          {
            "number": 10,
            "ticks": 16966,
            "time": 66.24399999999999,
            "value": 0.06299212598425197
          },
          {
            "number": 10,
            "ticks": 16993,
            "time": 66.35199999999999,
            "value": 0.5039370078740157
          },
          {
            "number": 10,
            "ticks": 17020,
            "time": 66.46,
            "value": 0.9448818897637795
          },
          {
            "number": 10,
            "ticks": 17046,
            "time": 66.56400000000001,
            "value": 0.5039370078740157
          },
          {
            "number": 10,
            "ticks": 27359,
            "time": 107.816,
            "value": 0.06299212598425197
          },
          {
            "number": 10,
            "ticks": 27386,
            "time": 107.92399999999999,
            "value": 0.5039370078740157
          },
          {
            "number": 10,
            "ticks": 27413,
            "time": 108.032,
            "value": 0.9448818897637795
          },
          {
            "number": 10,
            "ticks": 27439,
            "time": 108.136,
            "value": 0.5039370078740157
          },
          {
            "number": 10,
            "ticks": 27466,
            "time": 108.24399999999999,
            "value": 0.06299212598425197
          },
          {
            "number": 10,
            "ticks": 27493,
            "time": 108.35199999999999,
            "value": 0.5039370078740157
          },
          {
            "number": 10,
            "ticks": 27520,
            "time": 108.46,
            "value": 0.9448818897637795
          },
          {
            "number": 10,
            "ticks": 27546,
            "time": 108.564,
            "value": 0.5039370078740157
          },
          {
            "number": 10,
            "ticks": 27573,
            "time": 108.672,
            "value": 0.06299212598425197
          },
          {
            "number": 10,
            "ticks": 27600,
            "time": 108.77999999999999,
            "value": 0.5039370078740157
          },
          {
            "number": 10,
            "ticks": 27627,
            "time": 108.88799999999999,
            "value": 0.9448818897637795
          },
          {
            "number": 10,
            "ticks": 27654,
            "time": 108.99599999999998,
            "value": 0.5039370078740157
          },
          {
            "number": 10,
            "ticks": 27680,
            "time": 109.1,
            "value": 0.06299212598425197
          },
          {
            "number": 10,
            "ticks": 27707,
            "time": 109.208,
            "value": 0.5039370078740157
          },
          {
            "number": 10,
            "ticks": 27734,
            "time": 109.316,
            "value": 0.9448818897637795
          },
          {
            "number": 10,
            "ticks": 27761,
            "time": 109.42399999999999,
            "value": 0.5039370078740157
          },
          {
            "number": 10,
            "ticks": 27788,
            "time": 109.532,
            "value": 0.06299212598425197
          },
          {
            "number": 10,
            "ticks": 27814,
            "time": 109.636,
            "value": 0.5039370078740157
          },
          {
            "number": 10,
            "ticks": 27841,
            "time": 109.74399999999999,
            "value": 0.9448818897637795
          },
          {
            "number": 10,
            "ticks": 27868,
            "time": 109.85199999999999,
            "value": 0.5039370078740157
          },
          {
            "number": 10,
            "ticks": 27895,
            "time": 109.96,
            "value": 0.06299212598425197
          },
          {
            "number": 10,
            "ticks": 27921,
            "time": 110.064,
            "value": 0.5039370078740157
          },
          {
            "number": 10,
            "ticks": 27948,
            "time": 110.172,
            "value": 0.9448818897637795
          },
          {
            "number": 10,
            "ticks": 27975,
            "time": 110.27999999999999,
            "value": 0.5039370078740157
          },
          {
            "number": 10,
            "ticks": 28002,
            "time": 110.38799999999999,
            "value": 0.06299212598425197
          },
          {
            "number": 10,
            "ticks": 28029,
            "time": 110.49599999999998,
            "value": 0.5039370078740157
          },
          {
            "number": 10,
            "ticks": 28055,
            "time": 110.6,
            "value": 0.9448818897637795
          },
          {
            "number": 10,
            "ticks": 28082,
            "time": 110.708,
            "value": 0.5039370078740157
          },
          {
            "number": 10,
            "ticks": 28109,
            "time": 110.816,
            "value": 0.06299212598425197
          },
          {
            "number": 10,
            "ticks": 28136,
            "time": 110.92399999999999,
            "value": 0.5039370078740157
          },
          {
            "number": 10,
            "ticks": 28163,
            "time": 111.032,
            "value": 0.9448818897637795
          },
          {
            "number": 10,
            "ticks": 28189,
            "time": 111.136,
            "value": 0.5039370078740157
          },
          {
            "number": 10,
            "ticks": 28216,
            "time": 111.24399999999999,
            "value": 0.06299212598425197
          },
          {
            "number": 10,
            "ticks": 28243,
            "time": 111.35199999999999,
            "value": 0.5039370078740157
          },
          {
            "number": 10,
            "ticks": 28270,
            "time": 111.46,
            "value": 0.9448818897637795
          },
          {
            "number": 10,
            "ticks": 28296,
            "time": 111.564,
            "value": 0.5039370078740157
          },
          {
            "number": 10,
            "ticks": 28323,
            "time": 111.672,
            "value": 0.06299212598425197
          },
          {
            "number": 10,
            "ticks": 28350,
            "time": 111.77999999999999,
            "value": 0.5039370078740157
          },
          {
            "number": 10,
            "ticks": 28377,
            "time": 111.88799999999999,
            "value": 0.9448818897637795
          },
          {
            "number": 10,
            "ticks": 28404,
            "time": 111.99599999999998,
            "value": 0.5039370078740157
          },
          {
            "number": 10,
            "ticks": 28430,
            "time": 112.1,
            "value": 0.06299212598425197
          },
          {
            "number": 10,
            "ticks": 28457,
            "time": 112.208,
            "value": 0.5039370078740157
          },
          {
            "number": 10,
            "ticks": 28484,
            "time": 112.316,
            "value": 0.9448818897637795
          },
          {
            "number": 10,
            "ticks": 28511,
            "time": 112.42399999999999,
            "value": 0.5039370078740157
          },
          {
            "number": 10,
            "ticks": 28538,
            "time": 112.532,
            "value": 0.06299212598425197
          },
          {
            "number": 10,
            "ticks": 28564,
            "time": 112.636,
            "value": 0.5039370078740157
          },
          {
            "number": 10,
            "ticks": 28591,
            "time": 112.74399999999999,
            "value": 0.9448818897637795
          },
          {
            "number": 10,
            "ticks": 28618,
            "time": 112.85199999999999,
            "value": 0.5039370078740157
          },
          {
            "number": 10,
            "ticks": 28645,
            "time": 112.96,
            "value": 0.06299212598425197
          },
          {
            "number": 10,
            "ticks": 28671,
            "time": 113.064,
            "value": 0.5039370078740157
          },
          {
            "number": 10,
            "ticks": 28698,
            "time": 113.172,
            "value": 0.9448818897637795
          },
          {
            "number": 10,
            "ticks": 28725,
            "time": 113.27999999999999,
            "value": 0.5039370078740157
          },
          {
            "number": 10,
            "ticks": 28752,
            "time": 113.38799999999999,
            "value": 0.06299212598425197
          },
          {
            "number": 10,
            "ticks": 28779,
            "time": 113.49599999999998,
            "value": 0.5039370078740157
          },
          {
            "number": 10,
            "ticks": 28805,
            "time": 113.6,
            "value": 0.9448818897637795
          },
          {
            "number": 10,
            "ticks": 28832,
            "time": 113.708,
            "value": 0.5039370078740157
          },
          {
            "number": 10,
            "ticks": 28859,
            "time": 113.816,
            "value": 0.06299212598425197
          },
          {
            "number": 10,
            "ticks": 28886,
            "time": 113.92399999999999,
            "value": 0.5039370078740157
          },
          {
            "number": 10,
            "ticks": 28913,
            "time": 114.032,
            "value": 0.9448818897637795
          },
          {
            "number": 10,
            "ticks": 28939,
            "time": 114.136,
            "value": 0.5039370078740157
          },
          {
            "number": 10,
            "ticks": 28966,
            "time": 114.24399999999999,
            "value": 0.06299212598425197
          },
          {
            "number": 10,
            "ticks": 28993,
            "time": 114.35199999999999,
            "value": 0.5039370078740157
          },
          {
            "number": 10,
            "ticks": 29020,
            "time": 114.46,
            "value": 0.9448818897637795
          },
          {
            "number": 10,
            "ticks": 29046,
            "time": 114.564,
            "value": 0.5039370078740157
          },
          {
            "number": 10,
            "ticks": 29073,
            "time": 114.672,
            "value": 0.06299212598425197
          },
          {
            "number": 10,
            "ticks": 29100,
            "time": 114.77999999999999,
            "value": 0.5039370078740157
          },
          {
            "number": 10,
            "ticks": 29127,
            "time": 114.88799999999999,
            "value": 0.9448818897637795
          },
          {
            "number": 10,
            "ticks": 29154,
            "time": 114.99599999999998,
            "value": 0.5039370078740157
          },
          {
            "number": 10,
            "ticks": 29180,
            "time": 115.1,
            "value": 0.06299212598425197
          },
          {
            "number": 10,
            "ticks": 29207,
            "time": 115.208,
            "value": 0.5039370078740157
          },
          {
            "number": 10,
            "ticks": 29234,
            "time": 115.316,
            "value": 0.9448818897637795
          },
          {
            "number": 10,
            "ticks": 29261,
            "time": 115.42399999999999,
            "value": 0.5039370078740157
          },
          {
            "number": 10,
            "ticks": 29288,
            "time": 115.532,
            "value": 0.06299212598425197
          },
          {
            "number": 10,
            "ticks": 29314,
            "time": 115.636,
            "value": 0.5039370078740157
          },
          {
            "number": 10,
            "ticks": 29341,
            "time": 115.74399999999999,
            "value": 0.9448818897637795
          },
          {
            "number": 10,
            "ticks": 29368,
            "time": 115.85199999999999,
            "value": 0.5039370078740157
          },
          {
            "number": 10,
            "ticks": 29395,
            "time": 115.96,
            "value": 0.06299212598425197
          },
          {
            "number": 10,
            "ticks": 29421,
            "time": 116.064,
            "value": 0.5039370078740157
          },
          {
            "number": 10,
            "ticks": 29448,
            "time": 116.172,
            "value": 0.9448818897637795
          },
          {
            "number": 10,
            "ticks": 29475,
            "time": 116.27999999999999,
            "value": 0.5039370078740157
          },
          {
            "number": 10,
            "ticks": 29502,
            "time": 116.38799999999999,
            "value": 0.06299212598425197
          },
          {
            "number": 10,
            "ticks": 29529,
            "time": 116.49599999999998,
            "value": 0.5039370078740157
          },
          {
            "number": 10,
            "ticks": 29555,
            "time": 116.6,
            "value": 0.9448818897637795
          },
          {
            "number": 10,
            "ticks": 29582,
            "time": 116.708,
            "value": 0.5039370078740157
          },
          {
            "number": 10,
            "ticks": 29609,
            "time": 116.816,
            "value": 0.06299212598425197
          },
          {
            "number": 10,
            "ticks": 29636,
            "time": 116.92399999999999,
            "value": 0.5039370078740157
          },
          {
            "number": 10,
            "ticks": 29663,
            "time": 117.032,
            "value": 0.9448818897637795
          },
          {
            "number": 10,
            "ticks": 29689,
            "time": 117.136,
            "value": 0.5039370078740157
          },
          {
            "number": 10,
            "ticks": 29716,
            "time": 117.24399999999999,
            "value": 0.06299212598425197
          },
          {
            "number": 10,
            "ticks": 29743,
            "time": 117.35199999999999,
            "value": 0.5039370078740157
          },
          {
            "number": 10,
            "ticks": 29770,
            "time": 117.46,
            "value": 0.9448818897637795
          },
          {
            "number": 10,
            "ticks": 29796,
            "time": 117.564,
            "value": 0.5039370078740157
          },
          {
            "number": 10,
            "ticks": 29823,
            "time": 117.672,
            "value": 0.06299212598425197
          },
          {
            "number": 10,
            "ticks": 29850,
            "time": 117.77999999999999,
            "value": 0.5039370078740157
          },
          {
            "number": 10,
            "ticks": 29877,
            "time": 117.88799999999999,
            "value": 0.9448818897637795
          },
          {
            "number": 10,
            "ticks": 29904,
            "time": 117.99599999999998,
            "value": 0.5039370078740157
          },
          {
            "number": 10,
            "ticks": 29930,
            "time": 118.1,
            "value": 0.06299212598425197
          },
          {
            "number": 10,
            "ticks": 29957,
            "time": 118.208,
            "value": 0.5039370078740157
          },
          {
            "number": 10,
            "ticks": 29984,
            "time": 118.316,
            "value": 0.9448818897637795
          },
          {
            "number": 10,
            "ticks": 30011,
            "time": 118.42399999999999,
            "value": 0.5039370078740157
          },
          {
            "number": 10,
            "ticks": 30038,
            "time": 118.532,
            "value": 0.06299212598425197
          },
          {
            "number": 10,
            "ticks": 30064,
            "time": 118.636,
            "value": 0.5039370078740157
          },
          {
            "number": 10,
            "ticks": 30091,
            "time": 118.74399999999999,
            "value": 0.9448818897637795
          },
          {
            "number": 10,
            "ticks": 30118,
            "time": 118.85199999999999,
            "value": 0.5039370078740157
          },
          {
            "number": 10,
            "ticks": 30788,
            "time": 121.532,
            "value": 0.06299212598425197
          },
          {
            "number": 10,
            "ticks": 30814,
            "time": 121.636,
            "value": 0.5039370078740157
          },
          {
            "number": 10,
            "ticks": 30841,
            "time": 121.74399999999999,
            "value": 0.9448818897637795
          },
          {
            "number": 10,
            "ticks": 30868,
            "time": 121.85199999999999,
            "value": 0.5039370078740157
          },
          {
            "number": 10,
            "ticks": 30895,
            "time": 121.96,
            "value": 0.06299212598425197
          },
          {
            "number": 10,
            "ticks": 30921,
            "time": 122.064,
            "value": 0.5039370078740157
          },
          {
            "number": 10,
            "ticks": 30948,
            "time": 122.172,
            "value": 0.9448818897637795
          },
          {
            "number": 10,
            "ticks": 30975,
            "time": 122.27999999999999,
            "value": 0.5039370078740157
          },
          {
            "number": 10,
            "ticks": 31002,
            "time": 122.38799999999999,
            "value": 0.06299212598425197
          },
          {
            "number": 10,
            "ticks": 31029,
            "time": 122.49599999999998,
            "value": 0.5039370078740157
          },
          {
            "number": 10,
            "ticks": 31055,
            "time": 122.6,
            "value": 0.9448818897637795
          },
          {
            "number": 10,
            "ticks": 31082,
            "time": 122.708,
            "value": 0.5039370078740157
          },
          {
            "number": 10,
            "ticks": 31109,
            "time": 122.816,
            "value": 0.06299212598425197
          },
          {
            "number": 10,
            "ticks": 31136,
            "time": 122.92399999999999,
            "value": 0.5039370078740157
          },
          {
            "number": 10,
            "ticks": 31163,
            "time": 123.032,
            "value": 0.9448818897637795
          },
          {
            "number": 10,
            "ticks": 31189,
            "time": 123.136,
            "value": 0.5039370078740157
          },
          {
            "number": 10,
            "ticks": 31216,
            "time": 123.24399999999999,
            "value": 0.06299212598425197
          },
          {
            "number": 10,
            "ticks": 31243,
            "time": 123.352,
            "value": 0.5039370078740157
          },
          {
            "number": 10,
            "ticks": 31270,
            "time": 123.45999999999998,
            "value": 0.9448818897637795
          },
          {
            "number": 10,
            "ticks": 31296,
            "time": 123.564,
            "value": 0.5039370078740157
          },
          {
            "number": 10,
            "ticks": 31323,
            "time": 123.67199999999998,
            "value": 0.06299212598425197
          },
          {
            "number": 10,
            "ticks": 31350,
            "time": 123.77999999999999,
            "value": 0.5039370078740157
          },
          {
            "number": 10,
            "ticks": 31377,
            "time": 123.888,
            "value": 0.9448818897637795
          },
          {
            "number": 10,
            "ticks": 31404,
            "time": 123.99599999999998,
            "value": 0.5039370078740157
          },
          {
            "number": 10,
            "ticks": 31430,
            "time": 124.10000000000001,
            "value": 0.06299212598425197
          },
          {
            "number": 10,
            "ticks": 31457,
            "time": 124.20799999999998,
            "value": 0.5039370078740157
          },
          {
            "number": 10,
            "ticks": 31484,
            "time": 124.316,
            "value": 0.9448818897637795
          },
          {
            "number": 10,
            "ticks": 31511,
            "time": 124.42399999999998,
            "value": 0.5039370078740157
          },
          {
            "number": 10,
            "ticks": 31538,
            "time": 124.532,
            "value": 0.06299212598425197
          },
          {
            "number": 10,
            "ticks": 31564,
            "time": 124.63600000000001,
            "value": 0.5039370078740157
          },
          {
            "number": 10,
            "ticks": 31591,
            "time": 124.74399999999999,
            "value": 0.9448818897637795
          },
          {
            "number": 10,
            "ticks": 31618,
            "time": 124.852,
            "value": 0.5039370078740157
          },
          {
            "number": 10,
            "ticks": 31645,
            "time": 124.95999999999998,
            "value": 0.06299212598425197
          },
          {
            "number": 10,
            "ticks": 31671,
            "time": 125.064,
            "value": 0.5039370078740157
          },
          {
            "number": 10,
            "ticks": 31698,
            "time": 125.17199999999998,
            "value": 0.9448818897637795
          },
          {
            "number": 10,
            "ticks": 31725,
            "time": 125.27999999999999,
            "value": 0.5039370078740157
          },
          {
            "number": 10,
            "ticks": 31752,
            "time": 125.388,
            "value": 0.06299212598425197
          },
          {
            "number": 10,
            "ticks": 31779,
            "time": 125.49599999999998,
            "value": 0.5039370078740157
          },
          {
            "number": 10,
            "ticks": 31805,
            "time": 125.60000000000001,
            "value": 0.9448818897637795
          },
          {
            "number": 10,
            "ticks": 31832,
            "time": 125.70799999999998,
            "value": 0.5039370078740157
          },
          {
            "number": 10,
            "ticks": 31859,
            "time": 125.816,
            "value": 0.06299212598425197
          },
          {
            "number": 10,
            "ticks": 31886,
            "time": 125.92399999999998,
            "value": 0.5039370078740157
          },
          {
            "number": 10,
            "ticks": 31913,
            "time": 126.032,
            "value": 0.9448818897637795
          },
          {
            "number": 10,
            "ticks": 31939,
            "time": 126.13600000000001,
            "value": 0.5039370078740157
          },
          {
            "number": 10,
            "ticks": 31966,
            "time": 126.24399999999999,
            "value": 0.06299212598425197
          },
          {
            "number": 10,
            "ticks": 31993,
            "time": 126.352,
            "value": 0.5039370078740157
          },
          {
            "number": 10,
            "ticks": 32020,
            "time": 126.45999999999998,
            "value": 0.9448818897637795
          },
          {
            "number": 10,
            "ticks": 32046,
            "time": 126.564,
            "value": 0.5039370078740157
          },
          {
            "number": 10,
            "ticks": 32073,
            "time": 126.67199999999998,
            "value": 0.06299212598425197
          },
          {
            "number": 10,
            "ticks": 32100,
            "time": 126.77999999999999,
            "value": 0.5039370078740157
          },
          {
            "number": 10,
            "ticks": 32127,
            "time": 126.888,
            "value": 0.9448818897637795
          },
          {
            "number": 10,
            "ticks": 32154,
            "time": 126.99599999999998,
            "value": 0.5039370078740157
          },
          {
            "number": 10,
            "ticks": 32180,
            "time": 127.10000000000001,
            "value": 0.06299212598425197
          },
          {
            "number": 10,
            "ticks": 32207,
            "time": 127.20799999999998,
            "value": 0.5039370078740157
          },
          {
            "number": 10,
            "ticks": 32234,
            "time": 127.316,
            "value": 0.9448818897637795
          },
          {
            "number": 10,
            "ticks": 32261,
            "time": 127.42399999999998,
            "value": 0.5039370078740157
          },
          {
            "number": 10,
            "ticks": 32288,
            "time": 127.532,
            "value": 0.06299212598425197
          },
          {
            "number": 10,
            "ticks": 32314,
            "time": 127.63600000000001,
            "value": 0.5039370078740157
          },
          {
            "number": 10,
            "ticks": 32341,
            "time": 127.74399999999999,
            "value": 0.9448818897637795
          },
          {
            "number": 10,
            "ticks": 32368,
            "time": 127.852,
            "value": 0.5039370078740157
          },
          {
            "number": 10,
            "ticks": 32395,
            "time": 127.95999999999998,
            "value": 0.06299212598425197
          },
          {
            "number": 10,
            "ticks": 32421,
            "time": 128.064,
            "value": 0.5039370078740157
          },
          {
            "number": 10,
            "ticks": 32448,
            "time": 128.172,
            "value": 0.9448818897637795
          },
          {
            "number": 10,
            "ticks": 32475,
            "time": 128.28,
            "value": 0.5039370078740157
          },
          {
            "number": 10,
            "ticks": 32502,
            "time": 128.388,
            "value": 0.06299212598425197
          },
          {
            "number": 10,
            "ticks": 32529,
            "time": 128.496,
            "value": 0.5039370078740157
          },
          {
            "number": 10,
            "ticks": 32555,
            "time": 128.60000000000002,
            "value": 0.9448818897637795
          },
          {
            "number": 10,
            "ticks": 32582,
            "time": 128.708,
            "value": 0.5039370078740157
          },
          {
            "number": 10,
            "ticks": 32609,
            "time": 128.816,
            "value": 0.06299212598425197
          },
          {
            "number": 10,
            "ticks": 32636,
            "time": 128.924,
            "value": 0.5039370078740157
          },
          {
            "number": 10,
            "ticks": 32663,
            "time": 129.032,
            "value": 0.9448818897637795
          },
          {
            "number": 10,
            "ticks": 32689,
            "time": 129.13600000000002,
            "value": 0.5039370078740157
          },
          {
            "number": 10,
            "ticks": 32716,
            "time": 129.244,
            "value": 0.06299212598425197
          },
          {
            "number": 10,
            "ticks": 32743,
            "time": 129.352,
            "value": 0.5039370078740157
          },
          {
            "number": 10,
            "ticks": 32770,
            "time": 129.46,
            "value": 0.9448818897637795
          },
          {
            "number": 10,
            "ticks": 32796,
            "time": 129.56400000000002,
            "value": 0.5039370078740157
          },
          {
            "number": 10,
            "ticks": 32823,
            "time": 129.672,
            "value": 0.06299212598425197
          },
          {
            "number": 10,
            "ticks": 32850,
            "time": 129.78,
            "value": 0.5039370078740157
          },
          {
            "number": 10,
            "ticks": 32877,
            "time": 129.888,
            "value": 0.9448818897637795
          },
          {
            "number": 10,
            "ticks": 32904,
            "time": 129.996,
            "value": 0.5039370078740157
          },
          {
            "number": 10,
            "ticks": 32930,
            "time": 130.10000000000002,
            "value": 0.06299212598425197
          },
          {
            "number": 10,
            "ticks": 32957,
            "time": 130.208,
            "value": 0.5039370078740157
          },
          {
            "number": 10,
            "ticks": 32984,
            "time": 130.316,
            "value": 0.9448818897637795
          },
          {
            "number": 10,
            "ticks": 33011,
            "time": 130.424,
            "value": 0.5039370078740157
          },
          {
            "number": 10,
            "ticks": 33038,
            "time": 130.532,
            "value": 0.06299212598425197
          },
          {
            "number": 10,
            "ticks": 33064,
            "time": 130.63600000000002,
            "value": 0.5039370078740157
          },
          {
            "number": 10,
            "ticks": 33091,
            "time": 130.744,
            "value": 0.9448818897637795
          },
          {
            "number": 10,
            "ticks": 33118,
            "time": 130.852,
            "value": 0.5039370078740157
          },
          {
            "number": 10,
            "ticks": 33145,
            "time": 130.96,
            "value": 0.06299212598425197
          },
          {
            "number": 10,
            "ticks": 33171,
            "time": 131.06400000000002,
            "value": 0.5039370078740157
          },
          {
            "number": 10,
            "ticks": 33198,
            "time": 131.172,
            "value": 0.9448818897637795
          },
          {
            "number": 10,
            "ticks": 33225,
            "time": 131.28,
            "value": 0.5039370078740157
          },
          {
            "number": 10,
            "ticks": 33252,
            "time": 131.388,
            "value": 0.06299212598425197
          },
          {
            "number": 10,
            "ticks": 33279,
            "time": 131.496,
            "value": 0.5039370078740157
          },
          {
            "number": 10,
            "ticks": 33305,
            "time": 131.60000000000002,
            "value": 0.9448818897637795
          },
          {
            "number": 10,
            "ticks": 33332,
            "time": 131.708,
            "value": 0.5039370078740157
          },
          {
            "number": 10,
            "ticks": 33359,
            "time": 131.816,
            "value": 0.06299212598425197
          },
          {
            "number": 10,
            "ticks": 33386,
            "time": 131.924,
            "value": 0.5039370078740157
          },
          {
            "number": 10,
            "ticks": 33413,
            "time": 132.032,
            "value": 0.9448818897637795
          },
          {
            "number": 10,
            "ticks": 33439,
            "time": 132.13600000000002,
            "value": 0.5039370078740157
          },
          {
            "number": 10,
            "ticks": 33466,
            "time": 132.244,
            "value": 0.06299212598425197
          },
          {
            "number": 10,
            "ticks": 33493,
            "time": 132.352,
            "value": 0.5039370078740157
          },
          {
            "number": 10,
            "ticks": 33520,
            "time": 132.46,
            "value": 0.9448818897637795
          },
          {
            "number": 10,
            "ticks": 33546,
            "time": 132.56400000000002,
            "value": 0.5039370078740157
          },
          {
            "number": 10,
            "ticks": 33573,
            "time": 132.672,
            "value": 0.06299212598425197
          },
          {
            "number": 10,
            "ticks": 33600,
            "time": 132.78,
            "value": 0.5039370078740157
          },
          {
            "number": 10,
            "ticks": 33627,
            "time": 132.888,
            "value": 0.9448818897637795
          },
          {
            "number": 10,
            "ticks": 33654,
            "time": 132.996,
            "value": 0.5039370078740157
          },
          {
            "number": 10,
            "ticks": 33680,
            "time": 133.10000000000002,
            "value": 0.06299212598425197
          },
          {
            "number": 10,
            "ticks": 33707,
            "time": 133.208,
            "value": 0.5039370078740157
          },
          {
            "number": 10,
            "ticks": 33734,
            "time": 133.316,
            "value": 0.9448818897637795
          },
          {
            "number": 10,
            "ticks": 33761,
            "time": 133.424,
            "value": 0.5039370078740157
          },
          {
            "number": 10,
            "ticks": 33788,
            "time": 133.532,
            "value": 0.06299212598425197
          },
          {
            "number": 10,
            "ticks": 33814,
            "time": 133.63600000000002,
            "value": 0.5039370078740157
          },
          {
            "number": 10,
            "ticks": 33841,
            "time": 133.744,
            "value": 0.9448818897637795
          },
          {
            "number": 10,
            "ticks": 33868,
            "time": 133.852,
            "value": 0.5039370078740157
          },
          {
            "number": 10,
            "ticks": 33895,
            "time": 133.96,
            "value": 0.06299212598425197
          },
          {
            "number": 10,
            "ticks": 33921,
            "time": 134.06400000000002,
            "value": 0.5039370078740157
          },
          {
            "number": 10,
            "ticks": 33948,
            "time": 134.172,
            "value": 0.9448818897637795
          },
          {
            "number": 10,
            "ticks": 33975,
            "time": 134.28,
            "value": 0.5039370078740157
          },
          {
            "number": 10,
            "ticks": 34002,
            "time": 134.388,
            "value": 0.06299212598425197
          },
          {
            "number": 10,
            "ticks": 34029,
            "time": 134.496,
            "value": 0.5039370078740157
          },
          {
            "number": 10,
            "ticks": 34055,
            "time": 134.60000000000002,
            "value": 0.9448818897637795
          },
          {
            "number": 10,
            "ticks": 34082,
            "time": 134.708,
            "value": 0.5039370078740157
          },
          {
            "number": 10,
            "ticks": 34109,
            "time": 134.816,
            "value": 0.06299212598425197
          },
          {
            "number": 10,
            "ticks": 34136,
            "time": 134.924,
            "value": 0.5039370078740157
          },
          {
            "number": 10,
            "ticks": 34163,
            "time": 135.032,
            "value": 0.9448818897637795
          },
          {
            "number": 10,
            "ticks": 34189,
            "time": 135.13600000000002,
            "value": 0.5039370078740157
          },
          {
            "number": 10,
            "ticks": 34216,
            "time": 135.244,
            "value": 0.06299212598425197
          },
          {
            "number": 10,
            "ticks": 34243,
            "time": 135.352,
            "value": 0.5039370078740157
          },
          {
            "number": 10,
            "ticks": 34270,
            "time": 135.46,
            "value": 0.9448818897637795
          },
          {
            "number": 10,
            "ticks": 34296,
            "time": 135.56400000000002,
            "value": 0.5039370078740157
          },
          {
            "number": 10,
            "ticks": 34323,
            "time": 135.672,
            "value": 0.06299212598425197
          },
          {
            "number": 10,
            "ticks": 34350,
            "time": 135.78,
            "value": 0.5039370078740157
          },
          {
            "number": 10,
            "ticks": 34377,
            "time": 135.888,
            "value": 0.9448818897637795
          },
          {
            "number": 10,
            "ticks": 34404,
            "time": 135.996,
            "value": 0.5039370078740157
          },
          {
            "number": 10,
            "ticks": 34430,
            "time": 136.10000000000002,
            "value": 0.06299212598425197
          },
          {
            "number": 10,
            "ticks": 34457,
            "time": 136.208,
            "value": 0.5039370078740157
          },
          {
            "number": 10,
            "ticks": 34484,
            "time": 136.316,
            "value": 0.9448818897637795
          },
          {
            "number": 10,
            "ticks": 34511,
            "time": 136.424,
            "value": 0.5039370078740157
          },
          {
            "number": 10,
            "ticks": 34538,
            "time": 136.532,
            "value": 0.06299212598425197
          },
          {
            "number": 10,
            "ticks": 34564,
            "time": 136.63600000000002,
            "value": 0.5039370078740157
          },
          {
            "number": 10,
            "ticks": 34591,
            "time": 136.744,
            "value": 0.9448818897637795
          },
          {
            "number": 10,
            "ticks": 34618,
            "time": 136.852,
            "value": 0.5039370078740157
          },
          {
            "number": 10,
            "ticks": 34645,
            "time": 136.96,
            "value": 0.06299212598425197
          },
          {
            "number": 10,
            "ticks": 34671,
            "time": 137.06400000000002,
            "value": 0.5039370078740157
          },
          {
            "number": 10,
            "ticks": 34698,
            "time": 137.172,
            "value": 0.9448818897637795
          },
          {
            "number": 10,
            "ticks": 34725,
            "time": 137.28,
            "value": 0.5039370078740157
          },
          {
            "number": 10,
            "ticks": 34752,
            "time": 137.388,
            "value": 0.06299212598425197
          },
          {
            "number": 10,
            "ticks": 34779,
            "time": 137.496,
            "value": 0.5039370078740157
          },
          {
            "number": 10,
            "ticks": 34805,
            "time": 137.60000000000002,
            "value": 0.9448818897637795
          },
          {
            "number": 10,
            "ticks": 34832,
            "time": 137.708,
            "value": 0.5039370078740157
          },
          {
            "number": 10,
            "ticks": 34859,
            "time": 137.816,
            "value": 0.06299212598425197
          },
          {
            "number": 10,
            "ticks": 34886,
            "time": 137.924,
            "value": 0.5039370078740157
          },
          {
            "number": 10,
            "ticks": 34913,
            "time": 138.032,
            "value": 0.9448818897637795
          },
          {
            "number": 10,
            "ticks": 34939,
            "time": 138.13600000000002,
            "value": 0.5039370078740157
          },
          {
            "number": 10,
            "ticks": 34966,
            "time": 138.244,
            "value": 0.06299212598425197
          },
          {
            "number": 10,
            "ticks": 34993,
            "time": 138.352,
            "value": 0.5039370078740157
          },
          {
            "number": 10,
            "ticks": 35020,
            "time": 138.46,
            "value": 0.9448818897637795
          },
          {
            "number": 10,
            "ticks": 35046,
            "time": 138.56400000000002,
            "value": 0.5039370078740157
          }
        ],
        "100": [
          {
            "number": 100,
            "ticks": 176,
            "time": 0.10999999999999999,
            "value": 0
          }
        ],
        "101": [
          {
            "number": 101,
            "ticks": 174,
            "time": 0.10875,
            "value": 0
          }
        ]
      },
      "pitchBends": [],
      "instrument": {
        "family": "piano",
        "number": 0,
        "name": "acoustic grand piano"
      },
      "name": "",
      "notes": [
        {
          "duration": 0.21600000000000108,
          "durationTicks": 54,
          "midi": 78,
          "name": "F#5",
          "ticks": 9332,
          "time": 35.708,
          "velocity": 0.47244094488188976
        },
        {
          "duration": 0.21600000000000108,
          "durationTicks": 54,
          "midi": 90,
          "name": "F#6",
          "ticks": 9332,
          "time": 35.708,
          "velocity": 0.47244094488188976
        },
        {
          "duration": 0.2119999999999962,
          "durationTicks": 53,
          "midi": 76,
          "name": "E5",
          "ticks": 9386,
          "time": 35.924,
          "velocity": 0.47244094488188976
        },
        {
          "duration": 0.2119999999999962,
          "durationTicks": 53,
          "midi": 88,
          "name": "E6",
          "ticks": 9386,
          "time": 35.924,
          "velocity": 0.47244094488188976
        },
        {
          "duration": 0.21600000000000108,
          "durationTicks": 54,
          "midi": 78,
          "name": "F#5",
          "ticks": 9439,
          "time": 36.135999999999996,
          "velocity": 0.47244094488188976
        },
        {
          "duration": 0.21600000000000108,
          "durationTicks": 54,
          "midi": 90,
          "name": "F#6",
          "ticks": 9439,
          "time": 36.135999999999996,
          "velocity": 0.47244094488188976
        },
        {
          "duration": 0.2119999999999962,
          "durationTicks": 53,
          "midi": 83,
          "name": "B5",
          "ticks": 9493,
          "time": 36.352,
          "velocity": 0.47244094488188976
        },
        {
          "duration": 0.2119999999999962,
          "durationTicks": 53,
          "midi": 95,
          "name": "B6",
          "ticks": 9493,
          "time": 36.352,
          "velocity": 0.47244094488188976
        },
        {
          "duration": 1.716000000000001,
          "durationTicks": 429,
          "midi": 78,
          "name": "F#5",
          "ticks": 9546,
          "time": 36.56399999999999,
          "velocity": 0.47244094488188976
        },
        {
          "duration": 1.716000000000001,
          "durationTicks": 429,
          "midi": 90,
          "name": "F#6",
          "ticks": 9546,
          "time": 36.56399999999999,
          "velocity": 0.47244094488188976
        },
        {
          "duration": 0.8560000000000016,
          "durationTicks": 214,
          "midi": 76,
          "name": "E5",
          "ticks": 9975,
          "time": 38.279999999999994,
          "velocity": 0.47244094488188976
        },
        {
          "duration": 0.8560000000000016,
          "durationTicks": 214,
          "midi": 88,
          "name": "E6",
          "ticks": 9975,
          "time": 38.279999999999994,
          "velocity": 0.47244094488188976
        },
        {
          "duration": 0.21600000000000108,
          "durationTicks": 54,
          "midi": 78,
          "name": "F#5",
          "ticks": 10189,
          "time": 39.135999999999996,
          "velocity": 0.47244094488188976
        },
        {
          "duration": 0.21600000000000108,
          "durationTicks": 54,
          "midi": 90,
          "name": "F#6",
          "ticks": 10189,
          "time": 39.135999999999996,
          "velocity": 0.47244094488188976
        },
        {
          "duration": 0.2119999999999962,
          "durationTicks": 53,
          "midi": 76,
          "name": "E5",
          "ticks": 10243,
          "time": 39.352,
          "velocity": 0.47244094488188976
        },
        {
          "duration": 0.2119999999999962,
          "durationTicks": 53,
          "midi": 88,
          "name": "E6",
          "ticks": 10243,
          "time": 39.352,
          "velocity": 0.47244094488188976
        },
        {
          "duration": 0.21600000000000108,
          "durationTicks": 54,
          "midi": 78,
          "name": "F#5",
          "ticks": 10296,
          "time": 39.56399999999999,
          "velocity": 0.47244094488188976
        },
        {
          "duration": 0.21600000000000108,
          "durationTicks": 54,
          "midi": 90,
          "name": "F#6",
          "ticks": 10296,
          "time": 39.56399999999999,
          "velocity": 0.47244094488188976
        },
        {
          "duration": 0.21600000000000108,
          "durationTicks": 54,
          "midi": 83,
          "name": "B5",
          "ticks": 10350,
          "time": 39.779999999999994,
          "velocity": 0.47244094488188976
        },
        {
          "duration": 0.21600000000000108,
          "durationTicks": 54,
          "midi": 95,
          "name": "B6",
          "ticks": 10350,
          "time": 39.779999999999994,
          "velocity": 0.47244094488188976
        },
        {
          "duration": 1.7120000000000033,
          "durationTicks": 428,
          "midi": 78,
          "name": "F#5",
          "ticks": 10404,
          "time": 39.995999999999995,
          "velocity": 0.47244094488188976
        },
        {
          "duration": 1.7120000000000033,
          "durationTicks": 428,
          "midi": 90,
          "name": "F#6",
          "ticks": 10404,
          "time": 39.995999999999995,
          "velocity": 0.47244094488188976
        },
        {
          "duration": 0.8559999999999945,
          "durationTicks": 214,
          "midi": 74,
          "name": "D5",
          "ticks": 10832,
          "time": 41.708,
          "velocity": 0.47244094488188976
        },
        {
          "duration": 0.8559999999999945,
          "durationTicks": 214,
          "midi": 86,
          "name": "D6",
          "ticks": 10832,
          "time": 41.708,
          "velocity": 0.47244094488188976
        },
        {
          "duration": 0.8600000000000065,
          "durationTicks": 215,
          "midi": 76,
          "name": "E5",
          "ticks": 11046,
          "time": 42.56399999999999,
          "velocity": 0.47244094488188976
        },
        {
          "duration": 0.8600000000000065,
          "durationTicks": 215,
          "midi": 88,
          "name": "E6",
          "ticks": 11046,
          "time": 42.56399999999999,
          "velocity": 0.47244094488188976
        },
        {
          "duration": 3.4279999999999973,
          "durationTicks": 857,
          "midi": 81,
          "name": "A5",
          "ticks": 11261,
          "time": 43.424,
          "velocity": 0.47244094488188976
        },
        {
          "duration": 3.4279999999999973,
          "durationTicks": 857,
          "midi": 93,
          "name": "A6",
          "ticks": 11261,
          "time": 43.424,
          "velocity": 0.47244094488188976
        },
        {
          "duration": 0.2119999999999962,
          "durationTicks": 53,
          "midi": 78,
          "name": "F#5",
          "ticks": 12761,
          "time": 49.424,
          "velocity": 0.47244094488188976
        },
        {
          "duration": 0.2119999999999962,
          "durationTicks": 53,
          "midi": 90,
          "name": "F#6",
          "ticks": 12761,
          "time": 49.424,
          "velocity": 0.47244094488188976
        },
        {
          "duration": 0.21600000000000108,
          "durationTicks": 54,
          "midi": 76,
          "name": "E5",
          "ticks": 12814,
          "time": 49.635999999999996,
          "velocity": 0.47244094488188976
        },
        {
          "duration": 0.21600000000000108,
          "durationTicks": 54,
          "midi": 88,
          "name": "E6",
          "ticks": 12814,
          "time": 49.635999999999996,
          "velocity": 0.47244094488188976
        },
        {
          "duration": 0.2119999999999962,
          "durationTicks": 53,
          "midi": 78,
          "name": "F#5",
          "ticks": 12868,
          "time": 49.852,
          "velocity": 0.47244094488188976
        },
        {
          "duration": 0.2119999999999962,
          "durationTicks": 53,
          "midi": 90,
          "name": "F#6",
          "ticks": 12868,
          "time": 49.852,
          "velocity": 0.47244094488188976
        },
        {
          "duration": 0.21600000000000108,
          "durationTicks": 54,
          "midi": 83,
          "name": "B5",
          "ticks": 12921,
          "time": 50.06399999999999,
          "velocity": 0.47244094488188976
        },
        {
          "duration": 0.21600000000000108,
          "durationTicks": 54,
          "midi": 95,
          "name": "B6",
          "ticks": 12921,
          "time": 50.06399999999999,
          "velocity": 0.47244094488188976
        },
        {
          "duration": 1.716000000000001,
          "durationTicks": 429,
          "midi": 78,
          "name": "F#5",
          "ticks": 12975,
          "time": 50.279999999999994,
          "velocity": 0.47244094488188976
        },
        {
          "duration": 1.716000000000001,
          "durationTicks": 429,
          "midi": 90,
          "name": "F#6",
          "ticks": 12975,
          "time": 50.279999999999994,
          "velocity": 0.47244094488188976
        },
        {
          "duration": 0.8560000000000016,
          "durationTicks": 214,
          "midi": 76,
          "name": "E5",
          "ticks": 13404,
          "time": 51.995999999999995,
          "velocity": 0.47244094488188976
        },
        {
          "duration": 0.8560000000000016,
          "durationTicks": 214,
          "midi": 88,
          "name": "E6",
          "ticks": 13404,
          "time": 51.995999999999995,
          "velocity": 0.47244094488188976
        },
        {
          "duration": 0.2119999999999962,
          "durationTicks": 53,
          "midi": 78,
          "name": "F#5",
          "ticks": 13618,
          "time": 52.852,
          "velocity": 0.47244094488188976
        },
        {
          "duration": 0.2119999999999962,
          "durationTicks": 53,
          "midi": 90,
          "name": "F#6",
          "ticks": 13618,
          "time": 52.852,
          "velocity": 0.47244094488188976
        },
        {
          "duration": 0.21600000000000108,
          "durationTicks": 54,
          "midi": 76,
          "name": "E5",
          "ticks": 13671,
          "time": 53.06399999999999,
          "velocity": 0.47244094488188976
        },
        {
          "duration": 0.21600000000000108,
          "durationTicks": 54,
          "midi": 88,
          "name": "E6",
          "ticks": 13671,
          "time": 53.06399999999999,
          "velocity": 0.47244094488188976
        },
        {
          "duration": 0.21600000000000108,
          "durationTicks": 54,
          "midi": 78,
          "name": "F#5",
          "ticks": 13725,
          "time": 53.279999999999994,
          "velocity": 0.47244094488188976
        },
        {
          "duration": 0.21600000000000108,
          "durationTicks": 54,
          "midi": 90,
          "name": "F#6",
          "ticks": 13725,
          "time": 53.279999999999994,
          "velocity": 0.47244094488188976
        },
        {
          "duration": 0.2119999999999962,
          "durationTicks": 53,
          "midi": 83,
          "name": "B5",
          "ticks": 13779,
          "time": 53.495999999999995,
          "velocity": 0.47244094488188976
        },
        {
          "duration": 0.2119999999999962,
          "durationTicks": 53,
          "midi": 95,
          "name": "B6",
          "ticks": 13779,
          "time": 53.495999999999995,
          "velocity": 0.47244094488188976
        },
        {
          "duration": 1.7160000000000082,
          "durationTicks": 429,
          "midi": 78,
          "name": "F#5",
          "ticks": 13832,
          "time": 53.70799999999999,
          "velocity": 0.47244094488188976
        },
        {
          "duration": 1.7160000000000082,
          "durationTicks": 429,
          "midi": 90,
          "name": "F#6",
          "ticks": 13832,
          "time": 53.70799999999999,
          "velocity": 0.47244094488188976
        },
        {
          "duration": 0.8559999999999945,
          "durationTicks": 214,
          "midi": 74,
          "name": "D5",
          "ticks": 14261,
          "time": 55.424,
          "velocity": 0.47244094488188976
        },
        {
          "duration": 0.8559999999999945,
          "durationTicks": 214,
          "midi": 86,
          "name": "D6",
          "ticks": 14261,
          "time": 55.424,
          "velocity": 0.47244094488188976
        },
        {
          "duration": 0.8560000000000016,
          "durationTicks": 214,
          "midi": 76,
          "name": "E5",
          "ticks": 14475,
          "time": 56.279999999999994,
          "velocity": 0.47244094488188976
        },
        {
          "duration": 0.8560000000000016,
          "durationTicks": 214,
          "midi": 88,
          "name": "E6",
          "ticks": 14475,
          "time": 56.279999999999994,
          "velocity": 0.47244094488188976
        },
        {
          "duration": 1.716000000000001,
          "durationTicks": 429,
          "midi": 69,
          "name": "A4",
          "ticks": 14689,
          "time": 57.135999999999996,
          "velocity": 0.47244094488188976
        },
        {
          "duration": 1.716000000000001,
          "durationTicks": 429,
          "midi": 81,
          "name": "A5",
          "ticks": 14689,
          "time": 57.135999999999996,
          "velocity": 0.47244094488188976
        },
        {
          "duration": 0.8559999999999945,
          "durationTicks": 214,
          "midi": 72,
          "name": "C5",
          "ticks": 15118,
          "time": 58.852,
          "velocity": 0.47244094488188976
        },
        {
          "duration": 0.8559999999999945,
          "durationTicks": 214,
          "midi": 84,
          "name": "C6",
          "ticks": 15118,
          "time": 58.852,
          "velocity": 0.47244094488188976
        },
        {
          "duration": 0.8560000000000016,
          "durationTicks": 214,
          "midi": 76,
          "name": "E5",
          "ticks": 15332,
          "time": 59.70799999999999,
          "velocity": 0.47244094488188976
        },
        {
          "duration": 0.8560000000000016,
          "durationTicks": 214,
          "midi": 88,
          "name": "E6",
          "ticks": 15332,
          "time": 59.70799999999999,
          "velocity": 0.47244094488188976
        },
        {
          "duration": 1.716000000000001,
          "durationTicks": 429,
          "midi": 69,
          "name": "A4",
          "ticks": 15546,
          "time": 60.56399999999999,
          "velocity": 0.47244094488188976
        },
        {
          "duration": 1.716000000000001,
          "durationTicks": 429,
          "midi": 81,
          "name": "A5",
          "ticks": 15546,
          "time": 60.56399999999999,
          "velocity": 0.47244094488188976
        },
        {
          "duration": 0.8560000000000016,
          "durationTicks": 214,
          "midi": 74,
          "name": "D5",
          "ticks": 15975,
          "time": 62.279999999999994,
          "velocity": 0.47244094488188976
        },
        {
          "duration": 0.8560000000000016,
          "durationTicks": 214,
          "midi": 86,
          "name": "D6",
          "ticks": 15975,
          "time": 62.279999999999994,
          "velocity": 0.47244094488188976
        },
        {
          "duration": 3.4280000000000115,
          "durationTicks": 857,
          "midi": 71,
          "name": "B4",
          "ticks": 16189,
          "time": 63.135999999999996,
          "velocity": 0.47244094488188976
        },
        {
          "duration": 3.4280000000000115,
          "durationTicks": 857,
          "midi": 83,
          "name": "B5",
          "ticks": 16189,
          "time": 63.135999999999996,
          "velocity": 0.47244094488188976
        },
        {
          "duration": 0.21599999999999397,
          "durationTicks": 54,
          "midi": 78,
          "name": "F#5",
          "ticks": 27332,
          "time": 107.708,
          "velocity": 0.47244094488188976
        },
        {
          "duration": 0.21599999999999397,
          "durationTicks": 54,
          "midi": 90,
          "name": "F#6",
          "ticks": 27332,
          "time": 107.708,
          "velocity": 0.47244094488188976
        },
        {
          "duration": 0.2120000000000033,
          "durationTicks": 53,
          "midi": 76,
          "name": "E5",
          "ticks": 27386,
          "time": 107.92399999999999,
          "velocity": 0.47244094488188976
        },
        {
          "duration": 0.2120000000000033,
          "durationTicks": 53,
          "midi": 88,
          "name": "E6",
          "ticks": 27386,
          "time": 107.92399999999999,
          "velocity": 0.47244094488188976
        },
        {
          "duration": 0.21599999999999397,
          "durationTicks": 54,
          "midi": 78,
          "name": "F#5",
          "ticks": 27439,
          "time": 108.136,
          "velocity": 0.47244094488188976
        },
        {
          "duration": 0.21599999999999397,
          "durationTicks": 54,
          "midi": 90,
          "name": "F#6",
          "ticks": 27439,
          "time": 108.136,
          "velocity": 0.47244094488188976
        },
        {
          "duration": 0.2120000000000033,
          "durationTicks": 53,
          "midi": 83,
          "name": "B5",
          "ticks": 27493,
          "time": 108.35199999999999,
          "velocity": 0.47244094488188976
        },
        {
          "duration": 0.2120000000000033,
          "durationTicks": 53,
          "midi": 95,
          "name": "B6",
          "ticks": 27493,
          "time": 108.35199999999999,
          "velocity": 0.47244094488188976
        },
        {
          "duration": 1.715999999999994,
          "durationTicks": 429,
          "midi": 78,
          "name": "F#5",
          "ticks": 27546,
          "time": 108.564,
          "velocity": 0.47244094488188976
        },
        {
          "duration": 1.715999999999994,
          "durationTicks": 429,
          "midi": 90,
          "name": "F#6",
          "ticks": 27546,
          "time": 108.564,
          "velocity": 0.47244094488188976
        },
        {
          "duration": 0.8560000000000088,
          "durationTicks": 214,
          "midi": 76,
          "name": "E5",
          "ticks": 27975,
          "time": 110.27999999999999,
          "velocity": 0.47244094488188976
        },
        {
          "duration": 0.8560000000000088,
          "durationTicks": 214,
          "midi": 88,
          "name": "E6",
          "ticks": 27975,
          "time": 110.27999999999999,
          "velocity": 0.47244094488188976
        },
        {
          "duration": 0.21599999999999397,
          "durationTicks": 54,
          "midi": 78,
          "name": "F#5",
          "ticks": 28189,
          "time": 111.136,
          "velocity": 0.47244094488188976
        },
        {
          "duration": 0.21599999999999397,
          "durationTicks": 54,
          "midi": 90,
          "name": "F#6",
          "ticks": 28189,
          "time": 111.136,
          "velocity": 0.47244094488188976
        },
        {
          "duration": 0.2120000000000033,
          "durationTicks": 53,
          "midi": 76,
          "name": "E5",
          "ticks": 28243,
          "time": 111.35199999999999,
          "velocity": 0.47244094488188976
        },
        {
          "duration": 0.2120000000000033,
          "durationTicks": 53,
          "midi": 88,
          "name": "E6",
          "ticks": 28243,
          "time": 111.35199999999999,
          "velocity": 0.47244094488188976
        },
        {
          "duration": 0.21599999999999397,
          "durationTicks": 54,
          "midi": 78,
          "name": "F#5",
          "ticks": 28296,
          "time": 111.564,
          "velocity": 0.47244094488188976
        },
        {
          "duration": 0.21599999999999397,
          "durationTicks": 54,
          "midi": 90,
          "name": "F#6",
          "ticks": 28296,
          "time": 111.564,
          "velocity": 0.47244094488188976
        },
        {
          "duration": 0.21599999999999397,
          "durationTicks": 54,
          "midi": 83,
          "name": "B5",
          "ticks": 28350,
          "time": 111.77999999999999,
          "velocity": 0.47244094488188976
        },
        {
          "duration": 0.21599999999999397,
          "durationTicks": 54,
          "midi": 95,
          "name": "B6",
          "ticks": 28350,
          "time": 111.77999999999999,
          "velocity": 0.47244094488188976
        },
        {
          "duration": 1.7120000000000175,
          "durationTicks": 428,
          "midi": 78,
          "name": "F#5",
          "ticks": 28404,
          "time": 111.99599999999998,
          "velocity": 0.47244094488188976
        },
        {
          "duration": 1.7120000000000175,
          "durationTicks": 428,
          "midi": 90,
          "name": "F#6",
          "ticks": 28404,
          "time": 111.99599999999998,
          "velocity": 0.47244094488188976
        },
        {
          "duration": 0.8559999999999945,
          "durationTicks": 214,
          "midi": 74,
          "name": "D5",
          "ticks": 28832,
          "time": 113.708,
          "velocity": 0.47244094488188976
        },
        {
          "duration": 0.8559999999999945,
          "durationTicks": 214,
          "midi": 86,
          "name": "D6",
          "ticks": 28832,
          "time": 113.708,
          "velocity": 0.47244094488188976
        },
        {
          "duration": 0.8599999999999994,
          "durationTicks": 215,
          "midi": 76,
          "name": "E5",
          "ticks": 29046,
          "time": 114.564,
          "velocity": 0.47244094488188976
        },
        {
          "duration": 0.8599999999999994,
          "durationTicks": 215,
          "midi": 88,
          "name": "E6",
          "ticks": 29046,
          "time": 114.564,
          "velocity": 0.47244094488188976
        },
        {
          "duration": 3.4279999999999973,
          "durationTicks": 857,
          "midi": 81,
          "name": "A5",
          "ticks": 29261,
          "time": 115.42399999999999,
          "velocity": 0.47244094488188976
        },
        {
          "duration": 3.4279999999999973,
          "durationTicks": 857,
          "midi": 93,
          "name": "A6",
          "ticks": 29261,
          "time": 115.42399999999999,
          "velocity": 0.47244094488188976
        },
        {
          "duration": 0.2120000000000033,
          "durationTicks": 53,
          "midi": 78,
          "name": "F#5",
          "ticks": 30761,
          "time": 121.42399999999999,
          "velocity": 0.47244094488188976
        },
        {
          "duration": 0.2120000000000033,
          "durationTicks": 53,
          "midi": 90,
          "name": "F#6",
          "ticks": 30761,
          "time": 121.42399999999999,
          "velocity": 0.47244094488188976
        },
        {
          "duration": 0.21599999999999397,
          "durationTicks": 54,
          "midi": 76,
          "name": "E5",
          "ticks": 30814,
          "time": 121.636,
          "velocity": 0.47244094488188976
        },
        {
          "duration": 0.21599999999999397,
          "durationTicks": 54,
          "midi": 88,
          "name": "E6",
          "ticks": 30814,
          "time": 121.636,
          "velocity": 0.47244094488188976
        },
        {
          "duration": 0.2120000000000033,
          "durationTicks": 53,
          "midi": 78,
          "name": "F#5",
          "ticks": 30868,
          "time": 121.85199999999999,
          "velocity": 0.47244094488188976
        },
        {
          "duration": 0.2120000000000033,
          "durationTicks": 53,
          "midi": 90,
          "name": "F#6",
          "ticks": 30868,
          "time": 121.85199999999999,
          "velocity": 0.47244094488188976
        },
        {
          "duration": 0.21599999999999397,
          "durationTicks": 54,
          "midi": 83,
          "name": "B5",
          "ticks": 30921,
          "time": 122.064,
          "velocity": 0.47244094488188976
        },
        {
          "duration": 0.21599999999999397,
          "durationTicks": 54,
          "midi": 95,
          "name": "B6",
          "ticks": 30921,
          "time": 122.064,
          "velocity": 0.47244094488188976
        },
        {
          "duration": 1.715999999999994,
          "durationTicks": 429,
          "midi": 78,
          "name": "F#5",
          "ticks": 30975,
          "time": 122.27999999999999,
          "velocity": 0.47244094488188976
        },
        {
          "duration": 1.715999999999994,
          "durationTicks": 429,
          "midi": 90,
          "name": "F#6",
          "ticks": 30975,
          "time": 122.27999999999999,
          "velocity": 0.47244094488188976
        },
        {
          "duration": 0.856000000000023,
          "durationTicks": 214,
          "midi": 76,
          "name": "E5",
          "ticks": 31404,
          "time": 123.99599999999998,
          "velocity": 0.47244094488188976
        },
        {
          "duration": 0.856000000000023,
          "durationTicks": 214,
          "midi": 88,
          "name": "E6",
          "ticks": 31404,
          "time": 123.99599999999998,
          "velocity": 0.47244094488188976
        },
        {
          "duration": 0.21199999999998909,
          "durationTicks": 53,
          "midi": 78,
          "name": "F#5",
          "ticks": 31618,
          "time": 124.852,
          "velocity": 0.47244094488188976
        },
        {
          "duration": 0.21199999999998909,
          "durationTicks": 53,
          "midi": 90,
          "name": "F#6",
          "ticks": 31618,
          "time": 124.852,
          "velocity": 0.47244094488188976
        },
        {
          "duration": 0.21599999999999397,
          "durationTicks": 54,
          "midi": 76,
          "name": "E5",
          "ticks": 31671,
          "time": 125.064,
          "velocity": 0.47244094488188976
        },
        {
          "duration": 0.21599999999999397,
          "durationTicks": 54,
          "midi": 88,
          "name": "E6",
          "ticks": 31671,
          "time": 125.064,
          "velocity": 0.47244094488188976
        },
        {
          "duration": 0.21599999999999397,
          "durationTicks": 54,
          "midi": 78,
          "name": "F#5",
          "ticks": 31725,
          "time": 125.27999999999999,
          "velocity": 0.47244094488188976
        },
        {
          "duration": 0.21599999999999397,
          "durationTicks": 54,
          "midi": 90,
          "name": "F#6",
          "ticks": 31725,
          "time": 125.27999999999999,
          "velocity": 0.47244094488188976
        },
        {
          "duration": 0.2120000000000033,
          "durationTicks": 53,
          "midi": 83,
          "name": "B5",
          "ticks": 31779,
          "time": 125.49599999999998,
          "velocity": 0.47244094488188976
        },
        {
          "duration": 0.2120000000000033,
          "durationTicks": 53,
          "midi": 95,
          "name": "B6",
          "ticks": 31779,
          "time": 125.49599999999998,
          "velocity": 0.47244094488188976
        },
        {
          "duration": 1.715999999999994,
          "durationTicks": 429,
          "midi": 78,
          "name": "F#5",
          "ticks": 31832,
          "time": 125.70799999999998,
          "velocity": 0.47244094488188976
        },
        {
          "duration": 1.715999999999994,
          "durationTicks": 429,
          "midi": 90,
          "name": "F#6",
          "ticks": 31832,
          "time": 125.70799999999998,
          "velocity": 0.47244094488188976
        },
        {
          "duration": 0.856000000000023,
          "durationTicks": 214,
          "midi": 74,
          "name": "D5",
          "ticks": 32261,
          "time": 127.42399999999998,
          "velocity": 0.47244094488188976
        },
        {
          "duration": 0.856000000000023,
          "durationTicks": 214,
          "midi": 86,
          "name": "D6",
          "ticks": 32261,
          "time": 127.42399999999998,
          "velocity": 0.47244094488188976
        },
        {
          "duration": 0.856000000000023,
          "durationTicks": 214,
          "midi": 76,
          "name": "E5",
          "ticks": 32475,
          "time": 128.28,
          "velocity": 0.47244094488188976
        },
        {
          "duration": 0.856000000000023,
          "durationTicks": 214,
          "midi": 88,
          "name": "E6",
          "ticks": 32475,
          "time": 128.28,
          "velocity": 0.47244094488188976
        },
        {
          "duration": 1.7159999999999798,
          "durationTicks": 429,
          "midi": 69,
          "name": "A4",
          "ticks": 32689,
          "time": 129.13600000000002,
          "velocity": 0.47244094488188976
        },
        {
          "duration": 1.7159999999999798,
          "durationTicks": 429,
          "midi": 81,
          "name": "A5",
          "ticks": 32689,
          "time": 129.13600000000002,
          "velocity": 0.47244094488188976
        },
        {
          "duration": 0.8559999999999945,
          "durationTicks": 214,
          "midi": 72,
          "name": "C5",
          "ticks": 33118,
          "time": 130.852,
          "velocity": 0.47244094488188976
        },
        {
          "duration": 0.8559999999999945,
          "durationTicks": 214,
          "midi": 84,
          "name": "C6",
          "ticks": 33118,
          "time": 130.852,
          "velocity": 0.47244094488188976
        },
        {
          "duration": 0.856000000000023,
          "durationTicks": 214,
          "midi": 76,
          "name": "E5",
          "ticks": 33332,
          "time": 131.708,
          "velocity": 0.47244094488188976
        },
        {
          "duration": 0.856000000000023,
          "durationTicks": 214,
          "midi": 88,
          "name": "E6",
          "ticks": 33332,
          "time": 131.708,
          "velocity": 0.47244094488188976
        },
        {
          "duration": 1.7159999999999798,
          "durationTicks": 429,
          "midi": 69,
          "name": "A4",
          "ticks": 33546,
          "time": 132.56400000000002,
          "velocity": 0.47244094488188976
        },
        {
          "duration": 1.7159999999999798,
          "durationTicks": 429,
          "midi": 81,
          "name": "A5",
          "ticks": 33546,
          "time": 132.56400000000002,
          "velocity": 0.47244094488188976
        },
        {
          "duration": 0.856000000000023,
          "durationTicks": 214,
          "midi": 74,
          "name": "D5",
          "ticks": 33975,
          "time": 134.28,
          "velocity": 0.47244094488188976
        },
        {
          "duration": 0.856000000000023,
          "durationTicks": 214,
          "midi": 86,
          "name": "D6",
          "ticks": 33975,
          "time": 134.28,
          "velocity": 0.47244094488188976
        },
        {
          "duration": 3.4279999999999973,
          "durationTicks": 857,
          "midi": 71,
          "name": "B4",
          "ticks": 34189,
          "time": 135.13600000000002,
          "velocity": 0.47244094488188976
        },
        {
          "duration": 3.4279999999999973,
          "durationTicks": 857,
          "midi": 83,
          "name": "B5",
          "ticks": 34189,
          "time": 135.13600000000002,
          "velocity": 0.47244094488188976
        }
      ]
    },
    {
      "channel": 0,
      "controlChanges": {
        "6": [
          {
            "number": 6,
            "ticks": 184,
            "time": 0.115,
            "value": 0.1889763779527559
          }
        ],
        "100": [
          {
            "number": 100,
            "ticks": 182,
            "time": 0.11374999999999999,
            "value": 0
          }
        ],
        "101": [
          {
            "number": 101,
            "ticks": 180,
            "time": 0.11249999999999999,
            "value": 0
          }
        ]
      },
      "pitchBends": [],
      "instrument": {
        "family": "piano",
        "number": 0,
        "name": "acoustic grand piano"
      },
      "name": "",
      "notes": []
    },
    {
      "channel": 9,
      "controlChanges": {
        "1": [
          {
            "number": 1,
            "ticks": 600,
            "time": 0.78,
            "value": 0
          }
        ],
        "6": [
          {
            "number": 6,
            "ticks": 190,
            "time": 0.11875,
            "value": 0.1889763779527559
          }
        ],
        "10": [
          {
            "number": 10,
            "ticks": 600,
            "time": 0.78,
            "value": 0
          }
        ],
        "11": [
          {
            "number": 11,
            "ticks": 16886,
            "time": 65.92399999999999,
            "value": 0.7559055118110236
          },
          {
            "number": 11,
            "ticks": 17743,
            "time": 69.35199999999999,
            "value": 1
          },
          {
            "number": 11,
            "ticks": 34886,
            "time": 137.924,
            "value": 0.7559055118110236
          },
          {
            "number": 11,
            "ticks": 35743,
            "time": 141.352,
            "value": 1
          }
        ],
        "100": [
          {
            "number": 100,
            "ticks": 188,
            "time": 0.1175,
            "value": 0
          }
        ],
        "101": [
          {
            "number": 101,
            "ticks": 186,
            "time": 0.11624999999999999,
            "value": 0
          }
        ],
        "120": [
          {
            "number": 120,
            "ticks": 43457,
            "time": 172.208,
            "value": 0
          }
        ]
      },
      "pitchBends": [
        {
          "ticks": 600,
          "time": 0.78,
          "value": -0.8333740234375
        }
      ],
      "instrument": {
        "family": "drums",
        "number": 0,
        "name": "standard kit"
      },
      "name": "",
      "notes": [
        {
          "duration": 0.8560000000000016,
          "durationTicks": 214,
          "midi": 46,
          "name": "A#2",
          "ticks": 7457,
          "time": 28.208,
          "velocity": 0.3779527559055118
        },
        {
          "duration": 0.8560000000000016,
          "durationTicks": 214,
          "midi": 46,
          "name": "A#2",
          "ticks": 7886,
          "time": 29.924,
          "velocity": 0.3779527559055118
        },
        {
          "duration": 0.8599999999999959,
          "durationTicks": 215,
          "midi": 46,
          "name": "A#2",
          "ticks": 8314,
          "time": 31.636,
          "velocity": 0.3779527559055118
        },
        {
          "duration": 0.8560000000000016,
          "durationTicks": 214,
          "midi": 46,
          "name": "A#2",
          "ticks": 8743,
          "time": 33.352,
          "velocity": 0.3779527559055118
        },
        {
          "duration": 0.8600000000000065,
          "durationTicks": 215,
          "midi": 46,
          "name": "A#2",
          "ticks": 9171,
          "time": 35.06399999999999,
          "velocity": 0.3779527559055118
        },
        {
          "duration": 0.8560000000000016,
          "durationTicks": 214,
          "midi": 46,
          "name": "A#2",
          "ticks": 9600,
          "time": 36.779999999999994,
          "velocity": 0.3779527559055118
        },
        {
          "duration": 0.8560000000000016,
          "durationTicks": 214,
          "midi": 46,
          "name": "A#2",
          "ticks": 10029,
          "time": 38.495999999999995,
          "velocity": 0.3779527559055118
        },
        {
          "duration": 0.8559999999999945,
          "durationTicks": 214,
          "midi": 46,
          "name": "A#2",
          "ticks": 10457,
          "time": 40.208,
          "velocity": 0.3779527559055118
        },
        {
          "duration": 0.8559999999999945,
          "durationTicks": 214,
          "midi": 46,
          "name": "A#2",
          "ticks": 10886,
          "time": 41.924,
          "velocity": 0.3779527559055118
        },
        {
          "duration": 0.8599999999999994,
          "durationTicks": 215,
          "midi": 46,
          "name": "A#2",
          "ticks": 11314,
          "time": 43.635999999999996,
          "velocity": 0.3779527559055118
        },
        {
          "duration": 0.8560000000000016,
          "durationTicks": 214,
          "midi": 46,
          "name": "A#2",
          "ticks": 11743,
          "time": 45.352,
          "velocity": 0.3779527559055118
        },
        {
          "duration": 0.8600000000000065,
          "durationTicks": 215,
          "midi": 46,
          "name": "A#2",
          "ticks": 12171,
          "time": 47.06399999999999,
          "velocity": 0.3779527559055118
        },
        {
          "duration": 0.8560000000000016,
          "durationTicks": 214,
          "midi": 46,
          "name": "A#2",
          "ticks": 12600,
          "time": 48.779999999999994,
          "velocity": 0.3779527559055118
        },
        {
          "duration": 0.8560000000000016,
          "durationTicks": 214,
          "midi": 46,
          "name": "A#2",
          "ticks": 13029,
          "time": 50.495999999999995,
          "velocity": 0.3779527559055118
        },
        {
          "duration": 0.8560000000000016,
          "durationTicks": 214,
          "midi": 46,
          "name": "A#2",
          "ticks": 13457,
          "time": 52.20799999999999,
          "velocity": 0.3779527559055118
        },
        {
          "duration": 0.8559999999999945,
          "durationTicks": 214,
          "midi": 46,
          "name": "A#2",
          "ticks": 13886,
          "time": 53.924,
          "velocity": 0.3779527559055118
        },
        {
          "duration": 0.8599999999999994,
          "durationTicks": 215,
          "midi": 46,
          "name": "A#2",
          "ticks": 14314,
          "time": 55.635999999999996,
          "velocity": 0.3779527559055118
        },
        {
          "duration": 0.8559999999999945,
          "durationTicks": 214,
          "midi": 46,
          "name": "A#2",
          "ticks": 14743,
          "time": 57.352,
          "velocity": 0.3779527559055118
        },
        {
          "duration": 0.8599999999999994,
          "durationTicks": 215,
          "midi": 46,
          "name": "A#2",
          "ticks": 15171,
          "time": 59.06399999999999,
          "velocity": 0.3779527559055118
        },
        {
          "duration": 0.8560000000000016,
          "durationTicks": 214,
          "midi": 46,
          "name": "A#2",
          "ticks": 15600,
          "time": 60.779999999999994,
          "velocity": 0.3779527559055118
        },
        {
          "duration": 0.8560000000000016,
          "durationTicks": 214,
          "midi": 46,
          "name": "A#2",
          "ticks": 16029,
          "time": 62.49599999999999,
          "velocity": 0.3779527559055118
        },
        {
          "duration": 0.8560000000000016,
          "durationTicks": 214,
          "midi": 49,
          "name": "C#3",
          "ticks": 16029,
          "time": 62.49599999999999,
          "velocity": 0.5039370078740157
        },
        {
          "duration": 0.8560000000000016,
          "durationTicks": 214,
          "midi": 57,
          "name": "A3",
          "ticks": 16029,
          "time": 62.49599999999999,
          "velocity": 0.5039370078740157
        },
        {
          "duration": 0.8560000000000088,
          "durationTicks": 214,
          "midi": 46,
          "name": "A#2",
          "ticks": 16457,
          "time": 64.208,
          "velocity": 0.3779527559055118
        },
        {
          "duration": 0.8560000000000088,
          "durationTicks": 214,
          "midi": 46,
          "name": "A#2",
          "ticks": 16886,
          "time": 65.92399999999999,
          "velocity": 0.3779527559055118
        },
        {
          "duration": 0.8599999999999994,
          "durationTicks": 215,
          "midi": 46,
          "name": "A#2",
          "ticks": 17314,
          "time": 67.636,
          "velocity": 0.3779527559055118
        },
        {
          "duration": 0.8559999999999945,
          "durationTicks": 214,
          "midi": 46,
          "name": "A#2",
          "ticks": 25457,
          "time": 100.208,
          "velocity": 0.3779527559055118
        },
        {
          "duration": 0.8559999999999945,
          "durationTicks": 214,
          "midi": 46,
          "name": "A#2",
          "ticks": 25886,
          "time": 101.92399999999999,
          "velocity": 0.3779527559055118
        },
        {
          "duration": 0.8599999999999852,
          "durationTicks": 215,
          "midi": 46,
          "name": "A#2",
          "ticks": 26314,
          "time": 103.636,
          "velocity": 0.3779527559055118
        },
        {
          "duration": 0.8560000000000088,
          "durationTicks": 214,
          "midi": 46,
          "name": "A#2",
          "ticks": 26743,
          "time": 105.35199999999999,
          "velocity": 0.3779527559055118
        },
        {
          "duration": 0.8599999999999994,
          "durationTicks": 215,
          "midi": 46,
          "name": "A#2",
          "ticks": 27171,
          "time": 107.064,
          "velocity": 0.3779527559055118
        },
        {
          "duration": 0.8560000000000088,
          "durationTicks": 214,
          "midi": 46,
          "name": "A#2",
          "ticks": 27600,
          "time": 108.77999999999999,
          "velocity": 0.3779527559055118
        },
        {
          "duration": 0.8560000000000088,
          "durationTicks": 214,
          "midi": 46,
          "name": "A#2",
          "ticks": 28029,
          "time": 110.49599999999998,
          "velocity": 0.3779527559055118
        },
        {
          "duration": 0.8559999999999945,
          "durationTicks": 214,
          "midi": 46,
          "name": "A#2",
          "ticks": 28457,
          "time": 112.208,
          "velocity": 0.3779527559055118
        },
        {
          "duration": 0.8559999999999945,
          "durationTicks": 214,
          "midi": 46,
          "name": "A#2",
          "ticks": 28886,
          "time": 113.92399999999999,
          "velocity": 0.3779527559055118
        },
        {
          "duration": 0.8599999999999852,
          "durationTicks": 215,
          "midi": 46,
          "name": "A#2",
          "ticks": 29314,
          "time": 115.636,
          "velocity": 0.3779527559055118
        },
        {
          "duration": 0.8560000000000088,
          "durationTicks": 214,
          "midi": 46,
          "name": "A#2",
          "ticks": 29743,
          "time": 117.35199999999999,
          "velocity": 0.3779527559055118
        },
        {
          "duration": 0.8599999999999994,
          "durationTicks": 215,
          "midi": 46,
          "name": "A#2",
          "ticks": 30171,
          "time": 119.064,
          "velocity": 0.3779527559055118
        },
        {
          "duration": 0.8560000000000088,
          "durationTicks": 214,
          "midi": 46,
          "name": "A#2",
          "ticks": 30600,
          "time": 120.77999999999999,
          "velocity": 0.3779527559055118
        },
        {
          "duration": 0.856000000000023,
          "durationTicks": 214,
          "midi": 46,
          "name": "A#2",
          "ticks": 31029,
          "time": 122.49599999999998,
          "velocity": 0.3779527559055118
        },
        {
          "duration": 0.8560000000000088,
          "durationTicks": 214,
          "midi": 46,
          "name": "A#2",
          "ticks": 31457,
          "time": 124.20799999999998,
          "velocity": 0.3779527559055118
        },
        {
          "duration": 0.8560000000000088,
          "durationTicks": 214,
          "midi": 46,
          "name": "A#2",
          "ticks": 31886,
          "time": 125.92399999999998,
          "velocity": 0.3779527559055118
        },
        {
          "duration": 0.8599999999999994,
          "durationTicks": 215,
          "midi": 46,
          "name": "A#2",
          "ticks": 32314,
          "time": 127.63600000000001,
          "velocity": 0.3779527559055118
        },
        {
          "duration": 0.8559999999999945,
          "durationTicks": 214,
          "midi": 46,
          "name": "A#2",
          "ticks": 32743,
          "time": 129.352,
          "velocity": 0.3779527559055118
        },
        {
          "duration": 0.8599999999999852,
          "durationTicks": 215,
          "midi": 46,
          "name": "A#2",
          "ticks": 33171,
          "time": 131.06400000000002,
          "velocity": 0.3779527559055118
        },
        {
          "duration": 0.856000000000023,
          "durationTicks": 214,
          "midi": 46,
          "name": "A#2",
          "ticks": 33600,
          "time": 132.78,
          "velocity": 0.3779527559055118
        },
        {
          "duration": 0.8559999999999945,
          "durationTicks": 214,
          "midi": 46,
          "name": "A#2",
          "ticks": 34029,
          "time": 134.496,
          "velocity": 0.3779527559055118
        },
        {
          "duration": 0.8559999999999945,
          "durationTicks": 214,
          "midi": 49,
          "name": "C#3",
          "ticks": 34029,
          "time": 134.496,
          "velocity": 0.5039370078740157
        },
        {
          "duration": 0.8559999999999945,
          "durationTicks": 214,
          "midi": 57,
          "name": "A3",
          "ticks": 34029,
          "time": 134.496,
          "velocity": 0.5039370078740157
        },
        {
          "duration": 0.856000000000023,
          "durationTicks": 214,
          "midi": 46,
          "name": "A#2",
          "ticks": 34457,
          "time": 136.208,
          "velocity": 0.3779527559055118
        },
        {
          "duration": 0.8559999999999945,
          "durationTicks": 214,
          "midi": 46,
          "name": "A#2",
          "ticks": 34886,
          "time": 137.924,
          "velocity": 0.3779527559055118
        },
        {
          "duration": 0.8599999999999852,
          "durationTicks": 215,
          "midi": 46,
          "name": "A#2",
          "ticks": 35314,
          "time": 139.63600000000002,
          "velocity": 0.3779527559055118
        }
      ]
    },
    {
      "channel": 15,
      "controlChanges": {
        "1": [
          {
            "number": 1,
            "ticks": 600,
            "time": 0.78,
            "value": 0.1889763779527559
          }
        ],
        "6": [
          {
            "number": 6,
            "ticks": 196,
            "time": 0.1225,
            "value": 0.1889763779527559
          }
        ],
        "11": [
          {
            "number": 11,
            "ticks": 16993,
            "time": 66.35199999999999,
            "value": 0.7559055118110236
          },
          {
            "number": 11,
            "ticks": 17850,
            "time": 69.78,
            "value": 1
          },
          {
            "number": 11,
            "ticks": 34993,
            "time": 138.352,
            "value": 0.7559055118110236
          },
          {
            "number": 11,
            "ticks": 35850,
            "time": 141.78,
            "value": 1
          }
        ],
        "100": [
          {
            "number": 100,
            "ticks": 194,
            "time": 0.12125,
            "value": 0
          }
        ],
        "101": [
          {
            "number": 101,
            "ticks": 192,
            "time": 0.12,
            "value": 0
          }
        ],
        "120": [
          {
            "number": 120,
            "ticks": 43457,
            "time": 172.208,
            "value": 0
          }
        ]
      },
      "pitchBends": [
        {
          "ticks": 600,
          "time": 0.78,
          "value": 0.00830078125
        }
      ],
      "instrument": {
        "family": "piano",
        "number": 0,
        "name": "acoustic grand piano"
      },
      "name": "",
      "notes": [
        {
          "duration": 0.2119999999999962,
          "durationTicks": 53,
          "midi": 62,
          "name": "D4",
          "ticks": 7779,
          "time": 29.496000000000002,
          "velocity": 0.3543307086614173
        },
        {
          "duration": 0.4280000000000008,
          "durationTicks": 107,
          "midi": 62,
          "name": "D4",
          "ticks": 7832,
          "time": 29.708,
          "velocity": 0.3543307086614173
        },
        {
          "duration": 0.4280000000000008,
          "durationTicks": 107,
          "midi": 67,
          "name": "G4",
          "ticks": 7832,
          "time": 29.708,
          "velocity": 0.3543307086614173
        },
        {
          "duration": 1.9279999999999937,
          "durationTicks": 482,
          "midi": 62,
          "name": "D4",
          "ticks": 7939,
          "time": 30.136,
          "velocity": 0.3543307086614173
        },
        {
          "duration": 1.9279999999999937,
          "durationTicks": 482,
          "midi": 67,
          "name": "G4",
          "ticks": 7939,
          "time": 30.136,
          "velocity": 0.3543307086614173
        },
        {
          "duration": 0.2119999999999962,
          "durationTicks": 53,
          "midi": 62,
          "name": "D4",
          "ticks": 8636,
          "time": 32.924,
          "velocity": 0.3543307086614173
        },
        {
          "duration": 0.2119999999999962,
          "durationTicks": 53,
          "midi": 67,
          "name": "G4",
          "ticks": 8636,
          "time": 32.924,
          "velocity": 0.3543307086614173
        },
        {
          "duration": 0.42799999999999727,
          "durationTicks": 107,
          "midi": 62,
          "name": "D4",
          "ticks": 8689,
          "time": 33.135999999999996,
          "velocity": 0.3543307086614173
        },
        {
          "duration": 0.42799999999999727,
          "durationTicks": 107,
          "midi": 67,
          "name": "G4",
          "ticks": 8689,
          "time": 33.135999999999996,
          "velocity": 0.3543307086614173
        },
        {
          "duration": 1.9320000000000022,
          "durationTicks": 483,
          "midi": 62,
          "name": "D4",
          "ticks": 8796,
          "time": 33.56399999999999,
          "velocity": 0.3543307086614173
        },
        {
          "duration": 1.9320000000000022,
          "durationTicks": 483,
          "midi": 67,
          "name": "G4",
          "ticks": 8796,
          "time": 33.56399999999999,
          "velocity": 0.3543307086614173
        },
        {
          "duration": 0.2119999999999962,
          "durationTicks": 53,
          "midi": 62,
          "name": "D4",
          "ticks": 9493,
          "time": 36.352,
          "velocity": 0.3543307086614173
        },
        {
          "duration": 0.2119999999999962,
          "durationTicks": 53,
          "midi": 67,
          "name": "G4",
          "ticks": 9493,
          "time": 36.352,
          "velocity": 0.3543307086614173
        },
        {
          "duration": 0.43200000000000216,
          "durationTicks": 108,
          "midi": 62,
          "name": "D4",
          "ticks": 9546,
          "time": 36.56399999999999,
          "velocity": 0.3543307086614173
        },
        {
          "duration": 0.43200000000000216,
          "durationTicks": 108,
          "midi": 67,
          "name": "G4",
          "ticks": 9546,
          "time": 36.56399999999999,
          "velocity": 0.3543307086614173
        },
        {
          "duration": 1.9280000000000044,
          "durationTicks": 482,
          "midi": 62,
          "name": "D4",
          "ticks": 9654,
          "time": 36.995999999999995,
          "velocity": 0.3543307086614173
        },
        {
          "duration": 1.9280000000000044,
          "durationTicks": 482,
          "midi": 67,
          "name": "G4",
          "ticks": 9654,
          "time": 36.995999999999995,
          "velocity": 0.3543307086614173
        },
        {
          "duration": 0.21600000000000108,
          "durationTicks": 54,
          "midi": 62,
          "name": "D4",
          "ticks": 10350,
          "time": 39.779999999999994,
          "velocity": 0.3543307086614173
        },
        {
          "duration": 0.21600000000000108,
          "durationTicks": 54,
          "midi": 67,
          "name": "G4",
          "ticks": 10350,
          "time": 39.779999999999994,
          "velocity": 0.3543307086614173
        },
        {
          "duration": 0.4280000000000044,
          "durationTicks": 107,
          "midi": 62,
          "name": "D4",
          "ticks": 10404,
          "time": 39.995999999999995,
          "velocity": 0.3543307086614173
        },
        {
          "duration": 0.4280000000000044,
          "durationTicks": 107,
          "midi": 67,
          "name": "G4",
          "ticks": 10404,
          "time": 39.995999999999995,
          "velocity": 0.3543307086614173
        },
        {
          "duration": 1.9279999999999973,
          "durationTicks": 482,
          "midi": 62,
          "name": "D4",
          "ticks": 10511,
          "time": 40.424,
          "velocity": 0.3543307086614173
        },
        {
          "duration": 1.9279999999999973,
          "durationTicks": 482,
          "midi": 67,
          "name": "G4",
          "ticks": 10511,
          "time": 40.424,
          "velocity": 0.3543307086614173
        },
        {
          "duration": 0.21600000000000108,
          "durationTicks": 54,
          "midi": 60,
          "name": "C4",
          "ticks": 11207,
          "time": 43.208,
          "velocity": 0.3543307086614173
        },
        {
          "duration": 0.21600000000000108,
          "durationTicks": 54,
          "midi": 67,
          "name": "G4",
          "ticks": 11207,
          "time": 43.208,
          "velocity": 0.3543307086614173
        },
        {
          "duration": 0.42799999999999727,
          "durationTicks": 107,
          "midi": 60,
          "name": "C4",
          "ticks": 11261,
          "time": 43.424,
          "velocity": 0.3543307086614173
        },
        {
          "duration": 0.42799999999999727,
          "durationTicks": 107,
          "midi": 67,
          "name": "G4",
          "ticks": 11261,
          "time": 43.424,
          "velocity": 0.3543307086614173
        },
        {
          "duration": 1.9279999999999973,
          "durationTicks": 482,
          "midi": 60,
          "name": "C4",
          "ticks": 11368,
          "time": 43.852,
          "velocity": 0.3543307086614173
        },
        {
          "duration": 1.9279999999999973,
          "durationTicks": 482,
          "midi": 67,
          "name": "G4",
          "ticks": 11368,
          "time": 43.852,
          "velocity": 0.3543307086614173
        },
        {
          "duration": 0.21600000000000108,
          "durationTicks": 54,
          "midi": 60,
          "name": "C4",
          "ticks": 12064,
          "time": 46.635999999999996,
          "velocity": 0.3543307086614173
        },
        {
          "duration": 0.21600000000000108,
          "durationTicks": 54,
          "midi": 67,
          "name": "G4",
          "ticks": 12064,
          "time": 46.635999999999996,
          "velocity": 0.3543307086614173
        },
        {
          "duration": 0.42799999999999727,
          "durationTicks": 107,
          "midi": 60,
          "name": "C4",
          "ticks": 12118,
          "time": 46.852,
          "velocity": 0.3543307086614173
        },
        {
          "duration": 0.42799999999999727,
          "durationTicks": 107,
          "midi": 67,
          "name": "G4",
          "ticks": 12118,
          "time": 46.852,
          "velocity": 0.3543307086614173
        },
        {
          "duration": 1.9280000000000044,
          "durationTicks": 482,
          "midi": 60,
          "name": "C4",
          "ticks": 12225,
          "time": 47.279999999999994,
          "velocity": 0.3543307086614173
        },
        {
          "duration": 1.9280000000000044,
          "durationTicks": 482,
          "midi": 67,
          "name": "G4",
          "ticks": 12225,
          "time": 47.279999999999994,
          "velocity": 0.3543307086614173
        },
        {
          "duration": 0.21600000000000108,
          "durationTicks": 54,
          "midi": 62,
          "name": "D4",
          "ticks": 12921,
          "time": 50.06399999999999,
          "velocity": 0.3543307086614173
        },
        {
          "duration": 0.21600000000000108,
          "durationTicks": 54,
          "midi": 67,
          "name": "G4",
          "ticks": 12921,
          "time": 50.06399999999999,
          "velocity": 0.3543307086614173
        },
        {
          "duration": 0.42799999999999727,
          "durationTicks": 107,
          "midi": 62,
          "name": "D4",
          "ticks": 12975,
          "time": 50.279999999999994,
          "velocity": 0.3543307086614173
        },
        {
          "duration": 0.42799999999999727,
          "durationTicks": 107,
          "midi": 67,
          "name": "G4",
          "ticks": 12975,
          "time": 50.279999999999994,
          "velocity": 0.3543307086614173
        },
        {
          "duration": 1.9280000000000044,
          "durationTicks": 482,
          "midi": 62,
          "name": "D4",
          "ticks": 13082,
          "time": 50.70799999999999,
          "velocity": 0.3543307086614173
        },
        {
          "duration": 1.9280000000000044,
          "durationTicks": 482,
          "midi": 67,
          "name": "G4",
          "ticks": 13082,
          "time": 50.70799999999999,
          "velocity": 0.3543307086614173
        },
        {
          "duration": 0.2119999999999962,
          "durationTicks": 53,
          "midi": 62,
          "name": "D4",
          "ticks": 13779,
          "time": 53.495999999999995,
          "velocity": 0.3543307086614173
        },
        {
          "duration": 0.2119999999999962,
          "durationTicks": 53,
          "midi": 67,
          "name": "G4",
          "ticks": 13779,
          "time": 53.495999999999995,
          "velocity": 0.3543307086614173
        },
        {
          "duration": 0.4280000000000044,
          "durationTicks": 107,
          "midi": 62,
          "name": "D4",
          "ticks": 13832,
          "time": 53.70799999999999,
          "velocity": 0.3543307086614173
        },
        {
          "duration": 0.4280000000000044,
          "durationTicks": 107,
          "midi": 67,
          "name": "G4",
          "ticks": 13832,
          "time": 53.70799999999999,
          "velocity": 0.3543307086614173
        },
        {
          "duration": 1.9279999999999973,
          "durationTicks": 482,
          "midi": 62,
          "name": "D4",
          "ticks": 13939,
          "time": 54.135999999999996,
          "velocity": 0.3543307086614173
        },
        {
          "duration": 1.9279999999999973,
          "durationTicks": 482,
          "midi": 67,
          "name": "G4",
          "ticks": 13939,
          "time": 54.135999999999996,
          "velocity": 0.3543307086614173
        },
        {
          "duration": 0.2119999999999962,
          "durationTicks": 53,
          "midi": 60,
          "name": "C4",
          "ticks": 14636,
          "time": 56.924,
          "velocity": 0.3543307086614173
        },
        {
          "duration": 0.2119999999999962,
          "durationTicks": 53,
          "midi": 67,
          "name": "G4",
          "ticks": 14636,
          "time": 56.924,
          "velocity": 0.3543307086614173
        },
        {
          "duration": 0.42799999999999727,
          "durationTicks": 107,
          "midi": 60,
          "name": "C4",
          "ticks": 14689,
          "time": 57.135999999999996,
          "velocity": 0.3543307086614173
        },
        {
          "duration": 0.42799999999999727,
          "durationTicks": 107,
          "midi": 67,
          "name": "G4",
          "ticks": 14689,
          "time": 57.135999999999996,
          "velocity": 0.3543307086614173
        },
        {
          "duration": 1.9320000000000022,
          "durationTicks": 483,
          "midi": 60,
          "name": "C4",
          "ticks": 14796,
          "time": 57.56399999999999,
          "velocity": 0.3543307086614173
        },
        {
          "duration": 1.9320000000000022,
          "durationTicks": 483,
          "midi": 67,
          "name": "G4",
          "ticks": 14796,
          "time": 57.56399999999999,
          "velocity": 0.3543307086614173
        },
        {
          "duration": 0.2119999999999962,
          "durationTicks": 53,
          "midi": 60,
          "name": "C4",
          "ticks": 15493,
          "time": 60.352,
          "velocity": 0.3543307086614173
        },
        {
          "duration": 0.2119999999999962,
          "durationTicks": 53,
          "midi": 67,
          "name": "G4",
          "ticks": 15493,
          "time": 60.352,
          "velocity": 0.3543307086614173
        },
        {
          "duration": 0.43200000000000216,
          "durationTicks": 108,
          "midi": 60,
          "name": "C4",
          "ticks": 15546,
          "time": 60.56399999999999,
          "velocity": 0.3543307086614173
        },
        {
          "duration": 0.43200000000000216,
          "durationTicks": 108,
          "midi": 67,
          "name": "G4",
          "ticks": 15546,
          "time": 60.56399999999999,
          "velocity": 0.3543307086614173
        },
        {
          "duration": 1.9279999999999973,
          "durationTicks": 482,
          "midi": 60,
          "name": "C4",
          "ticks": 15654,
          "time": 60.995999999999995,
          "velocity": 0.3543307086614173
        },
        {
          "duration": 1.9279999999999973,
          "durationTicks": 482,
          "midi": 67,
          "name": "G4",
          "ticks": 15654,
          "time": 60.995999999999995,
          "velocity": 0.3543307086614173
        },
        {
          "duration": 3.4279999999999973,
          "durationTicks": 857,
          "midi": 66,
          "name": "F#4",
          "ticks": 16136,
          "time": 62.92399999999999,
          "velocity": 0.3543307086614173
        },
        {
          "duration": 3.4279999999999973,
          "durationTicks": 857,
          "midi": 59,
          "name": "B3",
          "ticks": 16136,
          "time": 62.92399999999999,
          "velocity": 0.3543307086614173
        },
        {
          "duration": 3.4280000000000115,
          "durationTicks": 857,
          "midi": 66,
          "name": "F#4",
          "ticks": 16993,
          "time": 66.35199999999999,
          "velocity": 0.3543307086614173
        },
        {
          "duration": 3.4280000000000115,
          "durationTicks": 857,
          "midi": 59,
          "name": "B3",
          "ticks": 16993,
          "time": 66.35199999999999,
          "velocity": 0.3543307086614173
        },
        {
          "duration": 0.2120000000000175,
          "durationTicks": 53,
          "midi": 62,
          "name": "D4",
          "ticks": 25779,
          "time": 101.49599999999998,
          "velocity": 0.3543307086614173
        },
        {
          "duration": 0.2120000000000175,
          "durationTicks": 53,
          "midi": 67,
          "name": "G4",
          "ticks": 25779,
          "time": 101.49599999999998,
          "velocity": 0.3543307086614173
        },
        {
          "duration": 0.42799999999999727,
          "durationTicks": 107,
          "midi": 62,
          "name": "D4",
          "ticks": 25832,
          "time": 101.708,
          "velocity": 0.3543307086614173
        },
        {
          "duration": 0.42799999999999727,
          "durationTicks": 107,
          "midi": 67,
          "name": "G4",
          "ticks": 25832,
          "time": 101.708,
          "velocity": 0.3543307086614173
        },
        {
          "duration": 1.9279999999999973,
          "durationTicks": 482,
          "midi": 62,
          "name": "D4",
          "ticks": 25939,
          "time": 102.136,
          "velocity": 0.3543307086614173
        },
        {
          "duration": 1.9279999999999973,
          "durationTicks": 482,
          "midi": 67,
          "name": "G4",
          "ticks": 25939,
          "time": 102.136,
          "velocity": 0.3543307086614173
        },
        {
          "duration": 0.2120000000000033,
          "durationTicks": 53,
          "midi": 62,
          "name": "D4",
          "ticks": 26636,
          "time": 104.92399999999999,
          "velocity": 0.3543307086614173
        },
        {
          "duration": 0.2120000000000033,
          "durationTicks": 53,
          "midi": 67,
          "name": "G4",
          "ticks": 26636,
          "time": 104.92399999999999,
          "velocity": 0.3543307086614173
        },
        {
          "duration": 0.42799999999999727,
          "durationTicks": 107,
          "midi": 62,
          "name": "D4",
          "ticks": 26689,
          "time": 105.136,
          "velocity": 0.3543307086614173
        },
        {
          "duration": 0.42799999999999727,
          "durationTicks": 107,
          "midi": 67,
          "name": "G4",
          "ticks": 26689,
          "time": 105.136,
          "velocity": 0.3543307086614173
        },
        {
          "duration": 1.931999999999988,
          "durationTicks": 483,
          "midi": 62,
          "name": "D4",
          "ticks": 26796,
          "time": 105.564,
          "velocity": 0.3543307086614173
        },
        {
          "duration": 1.931999999999988,
          "durationTicks": 483,
          "midi": 67,
          "name": "G4",
          "ticks": 26796,
          "time": 105.564,
          "velocity": 0.3543307086614173
        },
        {
          "duration": 0.2120000000000033,
          "durationTicks": 53,
          "midi": 62,
          "name": "D4",
          "ticks": 27493,
          "time": 108.35199999999999,
          "velocity": 0.3543307086614173
        },
        {
          "duration": 0.2120000000000033,
          "durationTicks": 53,
          "midi": 67,
          "name": "G4",
          "ticks": 27493,
          "time": 108.35199999999999,
          "velocity": 0.3543307086614173
        },
        {
          "duration": 0.43199999999998795,
          "durationTicks": 108,
          "midi": 62,
          "name": "D4",
          "ticks": 27546,
          "time": 108.564,
          "velocity": 0.3543307086614173
        },
        {
          "duration": 0.43199999999998795,
          "durationTicks": 108,
          "midi": 67,
          "name": "G4",
          "ticks": 27546,
          "time": 108.564,
          "velocity": 0.3543307086614173
        },
        {
          "duration": 1.9280000000000115,
          "durationTicks": 482,
          "midi": 62,
          "name": "D4",
          "ticks": 27654,
          "time": 108.99599999999998,
          "velocity": 0.3543307086614173
        },
        {
          "duration": 1.9280000000000115,
          "durationTicks": 482,
          "midi": 67,
          "name": "G4",
          "ticks": 27654,
          "time": 108.99599999999998,
          "velocity": 0.3543307086614173
        },
        {
          "duration": 0.21599999999999397,
          "durationTicks": 54,
          "midi": 62,
          "name": "D4",
          "ticks": 28350,
          "time": 111.77999999999999,
          "velocity": 0.3543307086614173
        },
        {
          "duration": 0.21599999999999397,
          "durationTicks": 54,
          "midi": 67,
          "name": "G4",
          "ticks": 28350,
          "time": 111.77999999999999,
          "velocity": 0.3543307086614173
        },
        {
          "duration": 0.4280000000000115,
          "durationTicks": 107,
          "midi": 62,
          "name": "D4",
          "ticks": 28404,
          "time": 111.99599999999998,
          "velocity": 0.3543307086614173
        },
        {
          "duration": 0.4280000000000115,
          "durationTicks": 107,
          "midi": 67,
          "name": "G4",
          "ticks": 28404,
          "time": 111.99599999999998,
          "velocity": 0.3543307086614173
        },
        {
          "duration": 1.9279999999999973,
          "durationTicks": 482,
          "midi": 62,
          "name": "D4",
          "ticks": 28511,
          "time": 112.42399999999999,
          "velocity": 0.3543307086614173
        },
        {
          "duration": 1.9279999999999973,
          "durationTicks": 482,
          "midi": 67,
          "name": "G4",
          "ticks": 28511,
          "time": 112.42399999999999,
          "velocity": 0.3543307086614173
        },
        {
          "duration": 0.21599999999999397,
          "durationTicks": 54,
          "midi": 60,
          "name": "C4",
          "ticks": 29207,
          "time": 115.208,
          "velocity": 0.3543307086614173
        },
        {
          "duration": 0.21599999999999397,
          "durationTicks": 54,
          "midi": 67,
          "name": "G4",
          "ticks": 29207,
          "time": 115.208,
          "velocity": 0.3543307086614173
        },
        {
          "duration": 0.42799999999999727,
          "durationTicks": 107,
          "midi": 60,
          "name": "C4",
          "ticks": 29261,
          "time": 115.42399999999999,
          "velocity": 0.3543307086614173
        },
        {
          "duration": 0.42799999999999727,
          "durationTicks": 107,
          "midi": 67,
          "name": "G4",
          "ticks": 29261,
          "time": 115.42399999999999,
          "velocity": 0.3543307086614173
        },
        {
          "duration": 1.9279999999999973,
          "durationTicks": 482,
          "midi": 60,
          "name": "C4",
          "ticks": 29368,
          "time": 115.85199999999999,
          "velocity": 0.3543307086614173
        },
        {
          "duration": 1.9279999999999973,
          "durationTicks": 482,
          "midi": 67,
          "name": "G4",
          "ticks": 29368,
          "time": 115.85199999999999,
          "velocity": 0.3543307086614173
        },
        {
          "duration": 0.21599999999999397,
          "durationTicks": 54,
          "midi": 60,
          "name": "C4",
          "ticks": 30064,
          "time": 118.636,
          "velocity": 0.3543307086614173
        },
        {
          "duration": 0.21599999999999397,
          "durationTicks": 54,
          "midi": 67,
          "name": "G4",
          "ticks": 30064,
          "time": 118.636,
          "velocity": 0.3543307086614173
        },
        {
          "duration": 0.42799999999999727,
          "durationTicks": 107,
          "midi": 60,
          "name": "C4",
          "ticks": 30118,
          "time": 118.85199999999999,
          "velocity": 0.3543307086614173
        },
        {
          "duration": 0.42799999999999727,
          "durationTicks": 107,
          "midi": 67,
          "name": "G4",
          "ticks": 30118,
          "time": 118.85199999999999,
          "velocity": 0.3543307086614173
        },
        {
          "duration": 1.9280000000000115,
          "durationTicks": 482,
          "midi": 60,
          "name": "C4",
          "ticks": 30225,
          "time": 119.27999999999999,
          "velocity": 0.3543307086614173
        },
        {
          "duration": 1.9280000000000115,
          "durationTicks": 482,
          "midi": 67,
          "name": "G4",
          "ticks": 30225,
          "time": 119.27999999999999,
          "velocity": 0.3543307086614173
        },
        {
          "duration": 0.21599999999999397,
          "durationTicks": 54,
          "midi": 62,
          "name": "D4",
          "ticks": 30921,
          "time": 122.064,
          "velocity": 0.3543307086614173
        },
        {
          "duration": 0.21599999999999397,
          "durationTicks": 54,
          "midi": 67,
          "name": "G4",
          "ticks": 30921,
          "time": 122.064,
          "velocity": 0.3543307086614173
        },
        {
          "duration": 0.4280000000000115,
          "durationTicks": 107,
          "midi": 62,
          "name": "D4",
          "ticks": 30975,
          "time": 122.27999999999999,
          "velocity": 0.3543307086614173
        },
        {
          "duration": 0.4280000000000115,
          "durationTicks": 107,
          "midi": 67,
          "name": "G4",
          "ticks": 30975,
          "time": 122.27999999999999,
          "velocity": 0.3543307086614173
        },
        {
          "duration": 1.9280000000000115,
          "durationTicks": 482,
          "midi": 62,
          "name": "D4",
          "ticks": 31082,
          "time": 122.708,
          "velocity": 0.3543307086614173
        },
        {
          "duration": 1.9280000000000115,
          "durationTicks": 482,
          "midi": 67,
          "name": "G4",
          "ticks": 31082,
          "time": 122.708,
          "velocity": 0.3543307086614173
        },
        {
          "duration": 0.2120000000000033,
          "durationTicks": 53,
          "midi": 62,
          "name": "D4",
          "ticks": 31779,
          "time": 125.49599999999998,
          "velocity": 0.3543307086614173
        },
        {
          "duration": 0.2120000000000033,
          "durationTicks": 53,
          "midi": 67,
          "name": "G4",
          "ticks": 31779,
          "time": 125.49599999999998,
          "velocity": 0.3543307086614173
        },
        {
          "duration": 0.4280000000000257,
          "durationTicks": 107,
          "midi": 62,
          "name": "D4",
          "ticks": 31832,
          "time": 125.70799999999998,
          "velocity": 0.3543307086614173
        },
        {
          "duration": 0.4280000000000257,
          "durationTicks": 107,
          "midi": 67,
          "name": "G4",
          "ticks": 31832,
          "time": 125.70799999999998,
          "velocity": 0.3543307086614173
        },
        {
          "duration": 1.927999999999983,
          "durationTicks": 482,
          "midi": 62,
          "name": "D4",
          "ticks": 31939,
          "time": 126.13600000000001,
          "velocity": 0.3543307086614173
        },
        {
          "duration": 1.927999999999983,
          "durationTicks": 482,
          "midi": 67,
          "name": "G4",
          "ticks": 31939,
          "time": 126.13600000000001,
          "velocity": 0.3543307086614173
        },
        {
          "duration": 0.2120000000000175,
          "durationTicks": 53,
          "midi": 60,
          "name": "C4",
          "ticks": 32636,
          "time": 128.924,
          "velocity": 0.3543307086614173
        },
        {
          "duration": 0.2120000000000175,
          "durationTicks": 53,
          "midi": 67,
          "name": "G4",
          "ticks": 32636,
          "time": 128.924,
          "velocity": 0.3543307086614173
        },
        {
          "duration": 0.42799999999999727,
          "durationTicks": 107,
          "midi": 60,
          "name": "C4",
          "ticks": 32689,
          "time": 129.13600000000002,
          "velocity": 0.3543307086614173
        },
        {
          "duration": 0.42799999999999727,
          "durationTicks": 107,
          "midi": 67,
          "name": "G4",
          "ticks": 32689,
          "time": 129.13600000000002,
          "velocity": 0.3543307086614173
        },
        {
          "duration": 1.931999999999988,
          "durationTicks": 483,
          "midi": 60,
          "name": "C4",
          "ticks": 32796,
          "time": 129.56400000000002,
          "velocity": 0.3543307086614173
        },
        {
          "duration": 1.931999999999988,
          "durationTicks": 483,
          "midi": 67,
          "name": "G4",
          "ticks": 32796,
          "time": 129.56400000000002,
          "velocity": 0.3543307086614173
        },
        {
          "duration": 0.2120000000000175,
          "durationTicks": 53,
          "midi": 60,
          "name": "C4",
          "ticks": 33493,
          "time": 132.352,
          "velocity": 0.3543307086614173
        },
        {
          "duration": 0.2120000000000175,
          "durationTicks": 53,
          "midi": 67,
          "name": "G4",
          "ticks": 33493,
          "time": 132.352,
          "velocity": 0.3543307086614173
        },
        {
          "duration": 0.43199999999998795,
          "durationTicks": 108,
          "midi": 60,
          "name": "C4",
          "ticks": 33546,
          "time": 132.56400000000002,
          "velocity": 0.3543307086614173
        },
        {
          "duration": 0.43199999999998795,
          "durationTicks": 108,
          "midi": 67,
          "name": "G4",
          "ticks": 33546,
          "time": 132.56400000000002,
          "velocity": 0.3543307086614173
        },
        {
          "duration": 1.9279999999999973,
          "durationTicks": 482,
          "midi": 60,
          "name": "C4",
          "ticks": 33654,
          "time": 132.996,
          "velocity": 0.3543307086614173
        },
        {
          "duration": 1.9279999999999973,
          "durationTicks": 482,
          "midi": 67,
          "name": "G4",
          "ticks": 33654,
          "time": 132.996,
          "velocity": 0.3543307086614173
        },
        {
          "duration": 3.4279999999999973,
          "durationTicks": 857,
          "midi": 66,
          "name": "F#4",
          "ticks": 34136,
          "time": 134.924,
          "velocity": 0.3543307086614173
        },
        {
          "duration": 3.4279999999999973,
          "durationTicks": 857,
          "midi": 59,
          "name": "B3",
          "ticks": 34136,
          "time": 134.924,
          "velocity": 0.3543307086614173
        },
        {
          "duration": 3.4279999999999973,
          "durationTicks": 857,
          "midi": 66,
          "name": "F#4",
          "ticks": 34993,
          "time": 138.352,
          "velocity": 0.3543307086614173
        },
        {
          "duration": 3.4279999999999973,
          "durationTicks": 857,
          "midi": 59,
          "name": "B3",
          "ticks": 34993,
          "time": 138.352,
          "velocity": 0.3543307086614173
        }
      ]
    },
    {
      "channel": 0,
      "controlChanges": {
        "1": [
          {
            "number": 1,
            "ticks": 600,
            "time": 0.78,
            "value": 0.12598425196850394
          }
        ],
        "10": [
          {
            "number": 10,
            "ticks": 600,
            "time": 0.78,
            "value": 0
          }
        ],
        "11": [
          {
            "number": 11,
            "ticks": 2301,
            "time": 7.584,
            "value": 0
          },
          {
            "number": 11,
            "ticks": 2321,
            "time": 7.664,
            "value": 0.007874015748031496
          },
          {
            "number": 11,
            "ticks": 2328,
            "time": 7.691999999999999,
            "value": 0.015748031496062992
          },
          {
            "number": 11,
            "ticks": 2335,
            "time": 7.72,
            "value": 0.023622047244094488
          },
          {
            "number": 11,
            "ticks": 2341,
            "time": 7.743999999999999,
            "value": 0.031496062992125984
          },
          {
            "number": 11,
            "ticks": 2348,
            "time": 7.771999999999999,
            "value": 0.03937007874015748
          },
          {
            "number": 11,
            "ticks": 2355,
            "time": 7.8,
            "value": 0.047244094488188976
          },
          {
            "number": 11,
            "ticks": 2362,
            "time": 7.827999999999999,
            "value": 0.05511811023622047
          },
          {
            "number": 11,
            "ticks": 2368,
            "time": 7.851999999999999,
            "value": 0.06299212598425197
          },
          {
            "number": 11,
            "ticks": 2375,
            "time": 7.879999999999999,
            "value": 0.07086614173228346
          },
          {
            "number": 11,
            "ticks": 2382,
            "time": 7.9079999999999995,
            "value": 0.07874015748031496
          },
          {
            "number": 11,
            "ticks": 2389,
            "time": 7.935999999999999,
            "value": 0.08661417322834646
          },
          {
            "number": 11,
            "ticks": 2395,
            "time": 7.96,
            "value": 0.09448818897637795
          },
          {
            "number": 11,
            "ticks": 2402,
            "time": 7.987999999999999,
            "value": 0.10236220472440945
          },
          {
            "number": 11,
            "ticks": 2409,
            "time": 8.016,
            "value": 0.11023622047244094
          },
          {
            "number": 11,
            "ticks": 2416,
            "time": 8.044,
            "value": 0.11811023622047244
          },
          {
            "number": 11,
            "ticks": 2422,
            "time": 8.068,
            "value": 0.12598425196850394
          },
          {
            "number": 11,
            "ticks": 2429,
            "time": 8.096,
            "value": 0.13385826771653545
          },
          {
            "number": 11,
            "ticks": 2436,
            "time": 8.124,
            "value": 0.14173228346456693
          },
          {
            "number": 11,
            "ticks": 2442,
            "time": 8.148000000000001,
            "value": 0.14960629921259844
          },
          {
            "number": 11,
            "ticks": 2449,
            "time": 8.176,
            "value": 0.15748031496062992
          },
          {
            "number": 11,
            "ticks": 2456,
            "time": 8.203999999999999,
            "value": 0.16535433070866143
          },
          {
            "number": 11,
            "ticks": 2463,
            "time": 8.232,
            "value": 0.1732283464566929
          },
          {
            "number": 11,
            "ticks": 2469,
            "time": 8.256,
            "value": 0.18110236220472442
          },
          {
            "number": 11,
            "ticks": 2476,
            "time": 8.283999999999999,
            "value": 0.1889763779527559
          },
          {
            "number": 11,
            "ticks": 2483,
            "time": 8.312000000000001,
            "value": 0.1968503937007874
          },
          {
            "number": 11,
            "ticks": 2490,
            "time": 8.34,
            "value": 0.2047244094488189
          },
          {
            "number": 11,
            "ticks": 2496,
            "time": 8.364,
            "value": 0.2125984251968504
          },
          {
            "number": 11,
            "ticks": 2503,
            "time": 8.392000000000001,
            "value": 0.2204724409448819
          },
          {
            "number": 11,
            "ticks": 2510,
            "time": 8.420000000000002,
            "value": 0.2283464566929134
          },
          {
            "number": 11,
            "ticks": 2517,
            "time": 8.448,
            "value": 0.23622047244094488
          },
          {
            "number": 11,
            "ticks": 2523,
            "time": 8.472,
            "value": 0.2440944881889764
          },
          {
            "number": 11,
            "ticks": 2530,
            "time": 8.5,
            "value": 0.25196850393700787
          },
          {
            "number": 11,
            "ticks": 2537,
            "time": 8.528,
            "value": 0.25984251968503935
          },
          {
            "number": 11,
            "ticks": 2544,
            "time": 8.556000000000001,
            "value": 0.2677165354330709
          },
          {
            "number": 11,
            "ticks": 2550,
            "time": 8.58,
            "value": 0.2755905511811024
          },
          {
            "number": 11,
            "ticks": 2557,
            "time": 8.608,
            "value": 0.28346456692913385
          },
          {
            "number": 11,
            "ticks": 2564,
            "time": 8.636000000000001,
            "value": 0.29133858267716534
          },
          {
            "number": 11,
            "ticks": 2571,
            "time": 8.664000000000001,
            "value": 0.2992125984251969
          },
          {
            "number": 11,
            "ticks": 2577,
            "time": 8.688,
            "value": 0.30708661417322836
          },
          {
            "number": 11,
            "ticks": 2584,
            "time": 8.716000000000001,
            "value": 0.31496062992125984
          },
          {
            "number": 11,
            "ticks": 2591,
            "time": 8.744,
            "value": 0.3228346456692913
          },
          {
            "number": 11,
            "ticks": 2598,
            "time": 8.772,
            "value": 0.33070866141732286
          },
          {
            "number": 11,
            "ticks": 2604,
            "time": 8.796,
            "value": 0.33858267716535434
          },
          {
            "number": 11,
            "ticks": 2611,
            "time": 8.824,
            "value": 0.3464566929133858
          },
          {
            "number": 11,
            "ticks": 2618,
            "time": 8.852,
            "value": 0.3543307086614173
          },
          {
            "number": 11,
            "ticks": 2625,
            "time": 8.88,
            "value": 0.36220472440944884
          },
          {
            "number": 11,
            "ticks": 2631,
            "time": 8.904,
            "value": 0.3700787401574803
          },
          {
            "number": 11,
            "ticks": 2638,
            "time": 8.932,
            "value": 0.3779527559055118
          },
          {
            "number": 11,
            "ticks": 2645,
            "time": 8.96,
            "value": 0.3858267716535433
          },
          {
            "number": 11,
            "ticks": 2652,
            "time": 8.988000000000001,
            "value": 0.3937007874015748
          },
          {
            "number": 11,
            "ticks": 2658,
            "time": 9.012,
            "value": 0.4015748031496063
          },
          {
            "number": 11,
            "ticks": 2665,
            "time": 9.04,
            "value": 0.4094488188976378
          },
          {
            "number": 11,
            "ticks": 2672,
            "time": 9.068,
            "value": 0.41732283464566927
          },
          {
            "number": 11,
            "ticks": 2679,
            "time": 9.096,
            "value": 0.4251968503937008
          },
          {
            "number": 11,
            "ticks": 2685,
            "time": 9.120000000000001,
            "value": 0.4330708661417323
          },
          {
            "number": 11,
            "ticks": 2692,
            "time": 9.148,
            "value": 0.4409448818897638
          },
          {
            "number": 11,
            "ticks": 2699,
            "time": 9.176,
            "value": 0.44881889763779526
          },
          {
            "number": 11,
            "ticks": 2706,
            "time": 9.204,
            "value": 0.4566929133858268
          },
          {
            "number": 11,
            "ticks": 2713,
            "time": 9.232000000000001,
            "value": 0.4645669291338583
          },
          {
            "number": 11,
            "ticks": 2719,
            "time": 9.256000000000002,
            "value": 0.47244094488188976
          },
          {
            "number": 11,
            "ticks": 2726,
            "time": 9.283999999999999,
            "value": 0.48031496062992124
          },
          {
            "number": 11,
            "ticks": 2733,
            "time": 9.312,
            "value": 0.4881889763779528
          },
          {
            "number": 11,
            "ticks": 2740,
            "time": 9.34,
            "value": 0.49606299212598426
          },
          {
            "number": 11,
            "ticks": 2746,
            "time": 9.364,
            "value": 0.5039370078740157
          },
          {
            "number": 11,
            "ticks": 2753,
            "time": 9.392,
            "value": 0.5118110236220472
          },
          {
            "number": 11,
            "ticks": 2760,
            "time": 9.42,
            "value": 0.5196850393700787
          },
          {
            "number": 11,
            "ticks": 2767,
            "time": 9.448,
            "value": 0.5275590551181102
          },
          {
            "number": 11,
            "ticks": 2773,
            "time": 9.472000000000001,
            "value": 0.5354330708661418
          },
          {
            "number": 11,
            "ticks": 2780,
            "time": 9.500000000000002,
            "value": 0.5433070866141733
          },
          {
            "number": 11,
            "ticks": 2787,
            "time": 9.528,
            "value": 0.5511811023622047
          },
          {
            "number": 11,
            "ticks": 2794,
            "time": 9.556000000000001,
            "value": 0.5590551181102362
          },
          {
            "number": 11,
            "ticks": 2800,
            "time": 9.58,
            "value": 0.5669291338582677
          },
          {
            "number": 11,
            "ticks": 2807,
            "time": 9.608,
            "value": 0.5748031496062992
          },
          {
            "number": 11,
            "ticks": 2814,
            "time": 9.636,
            "value": 0.5826771653543307
          },
          {
            "number": 11,
            "ticks": 2821,
            "time": 9.664,
            "value": 0.5905511811023622
          },
          {
            "number": 11,
            "ticks": 2827,
            "time": 9.688,
            "value": 0.5984251968503937
          },
          {
            "number": 11,
            "ticks": 2834,
            "time": 9.716000000000001,
            "value": 0.6062992125984252
          },
          {
            "number": 11,
            "ticks": 2841,
            "time": 9.744000000000002,
            "value": 0.6141732283464567
          },
          {
            "number": 11,
            "ticks": 2848,
            "time": 9.772,
            "value": 0.6220472440944882
          },
          {
            "number": 11,
            "ticks": 2854,
            "time": 9.796000000000001,
            "value": 0.6299212598425197
          },
          {
            "number": 11,
            "ticks": 2861,
            "time": 9.824,
            "value": 0.6377952755905512
          },
          {
            "number": 11,
            "ticks": 2868,
            "time": 9.852,
            "value": 0.6456692913385826
          },
          {
            "number": 11,
            "ticks": 2875,
            "time": 9.879999999999999,
            "value": 0.6535433070866141
          },
          {
            "number": 11,
            "ticks": 2881,
            "time": 9.904,
            "value": 0.6614173228346457
          },
          {
            "number": 11,
            "ticks": 2888,
            "time": 9.932,
            "value": 0.6692913385826772
          },
          {
            "number": 11,
            "ticks": 2895,
            "time": 9.96,
            "value": 0.6771653543307087
          },
          {
            "number": 11,
            "ticks": 2902,
            "time": 9.988000000000001,
            "value": 0.6850393700787402
          },
          {
            "number": 11,
            "ticks": 2908,
            "time": 10.012,
            "value": 0.6929133858267716
          },
          {
            "number": 11,
            "ticks": 2915,
            "time": 10.040000000000001,
            "value": 0.7007874015748031
          },
          {
            "number": 11,
            "ticks": 2922,
            "time": 10.068000000000001,
            "value": 0.7086614173228346
          },
          {
            "number": 11,
            "ticks": 2928,
            "time": 10.092,
            "value": 0.7165354330708661
          },
          {
            "number": 11,
            "ticks": 2935,
            "time": 10.12,
            "value": 0.7244094488188977
          },
          {
            "number": 11,
            "ticks": 2942,
            "time": 10.148,
            "value": 0.7322834645669292
          },
          {
            "number": 11,
            "ticks": 2949,
            "time": 10.176,
            "value": 0.7401574803149606
          },
          {
            "number": 11,
            "ticks": 2955,
            "time": 10.200000000000001,
            "value": 0.7480314960629921
          },
          {
            "number": 11,
            "ticks": 2962,
            "time": 10.228,
            "value": 0.7559055118110236
          },
          {
            "number": 11,
            "ticks": 2969,
            "time": 10.256,
            "value": 0.7637795275590551
          },
          {
            "number": 11,
            "ticks": 2976,
            "time": 10.284,
            "value": 0.7716535433070866
          },
          {
            "number": 11,
            "ticks": 2982,
            "time": 10.308000000000002,
            "value": 0.7795275590551181
          },
          {
            "number": 11,
            "ticks": 2989,
            "time": 10.336,
            "value": 0.7874015748031497
          },
          {
            "number": 11,
            "ticks": 2996,
            "time": 10.363999999999999,
            "value": 0.7952755905511811
          },
          {
            "number": 11,
            "ticks": 3003,
            "time": 10.392,
            "value": 0.8031496062992126
          },
          {
            "number": 11,
            "ticks": 3009,
            "time": 10.416,
            "value": 0.8110236220472441
          },
          {
            "number": 11,
            "ticks": 3016,
            "time": 10.444,
            "value": 0.8188976377952756
          },
          {
            "number": 11,
            "ticks": 3023,
            "time": 10.472,
            "value": 0.8267716535433071
          },
          {
            "number": 11,
            "ticks": 3030,
            "time": 10.5,
            "value": 0.8346456692913385
          },
          {
            "number": 11,
            "ticks": 3036,
            "time": 10.524000000000001,
            "value": 0.84251968503937
          },
          {
            "number": 11,
            "ticks": 3043,
            "time": 10.552000000000001,
            "value": 0.8503937007874016
          },
          {
            "number": 11,
            "ticks": 3050,
            "time": 10.58,
            "value": 0.8582677165354331
          },
          {
            "number": 11,
            "ticks": 3057,
            "time": 10.608,
            "value": 0.8661417322834646
          },
          {
            "number": 11,
            "ticks": 3063,
            "time": 10.632,
            "value": 0.8740157480314961
          },
          {
            "number": 11,
            "ticks": 3070,
            "time": 10.66,
            "value": 0.8818897637795275
          },
          {
            "number": 11,
            "ticks": 3077,
            "time": 10.688,
            "value": 0.889763779527559
          },
          {
            "number": 11,
            "ticks": 3084,
            "time": 10.716,
            "value": 0.8976377952755905
          },
          {
            "number": 11,
            "ticks": 3090,
            "time": 10.74,
            "value": 0.905511811023622
          },
          {
            "number": 11,
            "ticks": 3097,
            "time": 10.768,
            "value": 0.9133858267716536
          },
          {
            "number": 11,
            "ticks": 3104,
            "time": 10.796000000000001,
            "value": 0.9212598425196851
          },
          {
            "number": 11,
            "ticks": 3111,
            "time": 10.824,
            "value": 0.9291338582677166
          },
          {
            "number": 11,
            "ticks": 3117,
            "time": 10.848,
            "value": 0.937007874015748
          },
          {
            "number": 11,
            "ticks": 3124,
            "time": 10.876000000000001,
            "value": 0.9448818897637795
          },
          {
            "number": 11,
            "ticks": 3131,
            "time": 10.904,
            "value": 0.952755905511811
          },
          {
            "number": 11,
            "ticks": 3138,
            "time": 10.932,
            "value": 0.9606299212598425
          },
          {
            "number": 11,
            "ticks": 3144,
            "time": 10.956,
            "value": 0.968503937007874
          },
          {
            "number": 11,
            "ticks": 3151,
            "time": 10.984,
            "value": 0.9763779527559056
          },
          {
            "number": 11,
            "ticks": 3158,
            "time": 11.012,
            "value": 0.984251968503937
          },
          {
            "number": 11,
            "ticks": 3165,
            "time": 11.040000000000001,
            "value": 0.9921259842519685
          },
          {
            "number": 11,
            "ticks": 3171,
            "time": 11.064,
            "value": 1
          },
          {
            "number": 11,
            "ticks": 3179,
            "time": 11.096,
            "value": 0.9921259842519685
          },
          {
            "number": 11,
            "ticks": 3187,
            "time": 11.128,
            "value": 0.984251968503937
          },
          {
            "number": 11,
            "ticks": 3195,
            "time": 11.16,
            "value": 0.9763779527559056
          },
          {
            "number": 11,
            "ticks": 3202,
            "time": 11.188,
            "value": 0.968503937007874
          },
          {
            "number": 11,
            "ticks": 3210,
            "time": 11.22,
            "value": 0.9606299212598425
          },
          {
            "number": 11,
            "ticks": 3218,
            "time": 11.252,
            "value": 0.952755905511811
          },
          {
            "number": 11,
            "ticks": 3225,
            "time": 11.280000000000001,
            "value": 0.9448818897637795
          },
          {
            "number": 11,
            "ticks": 3233,
            "time": 11.312,
            "value": 0.937007874015748
          },
          {
            "number": 11,
            "ticks": 3241,
            "time": 11.344,
            "value": 0.9291338582677166
          },
          {
            "number": 11,
            "ticks": 3249,
            "time": 11.376,
            "value": 0.9212598425196851
          },
          {
            "number": 11,
            "ticks": 3256,
            "time": 11.404,
            "value": 0.9133858267716536
          },
          {
            "number": 11,
            "ticks": 3264,
            "time": 11.436,
            "value": 0.905511811023622
          },
          {
            "number": 11,
            "ticks": 3272,
            "time": 11.468,
            "value": 0.8976377952755905
          },
          {
            "number": 11,
            "ticks": 3279,
            "time": 11.496,
            "value": 0.889763779527559
          },
          {
            "number": 11,
            "ticks": 3287,
            "time": 11.528,
            "value": 0.8818897637795275
          },
          {
            "number": 11,
            "ticks": 3295,
            "time": 11.56,
            "value": 0.8740157480314961
          },
          {
            "number": 11,
            "ticks": 3303,
            "time": 11.591999999999999,
            "value": 0.8661417322834646
          },
          {
            "number": 11,
            "ticks": 3310,
            "time": 11.62,
            "value": 0.8582677165354331
          },
          {
            "number": 11,
            "ticks": 3318,
            "time": 11.652,
            "value": 0.8503937007874016
          },
          {
            "number": 11,
            "ticks": 3326,
            "time": 11.684,
            "value": 0.84251968503937
          },
          {
            "number": 11,
            "ticks": 3333,
            "time": 11.712,
            "value": 0.8346456692913385
          },
          {
            "number": 11,
            "ticks": 3341,
            "time": 11.744,
            "value": 0.8267716535433071
          },
          {
            "number": 11,
            "ticks": 3349,
            "time": 11.776000000000002,
            "value": 0.8188976377952756
          },
          {
            "number": 11,
            "ticks": 3357,
            "time": 11.808000000000002,
            "value": 0.8110236220472441
          },
          {
            "number": 11,
            "ticks": 3365,
            "time": 11.840000000000002,
            "value": 0.8031496062992126
          },
          {
            "number": 11,
            "ticks": 3372,
            "time": 11.868,
            "value": 0.7952755905511811
          },
          {
            "number": 11,
            "ticks": 3380,
            "time": 11.9,
            "value": 0.7874015748031497
          },
          {
            "number": 11,
            "ticks": 3388,
            "time": 11.932,
            "value": 0.7795275590551181
          },
          {
            "number": 11,
            "ticks": 3395,
            "time": 11.96,
            "value": 0.7716535433070866
          },
          {
            "number": 11,
            "ticks": 3403,
            "time": 11.992,
            "value": 0.7637795275590551
          },
          {
            "number": 11,
            "ticks": 3411,
            "time": 12.024000000000001,
            "value": 0.7559055118110236
          },
          {
            "number": 11,
            "ticks": 3419,
            "time": 12.056000000000001,
            "value": 0.7480314960629921
          },
          {
            "number": 11,
            "ticks": 3426,
            "time": 12.084000000000001,
            "value": 0.7401574803149606
          },
          {
            "number": 11,
            "ticks": 3434,
            "time": 12.116,
            "value": 0.7322834645669292
          },
          {
            "number": 11,
            "ticks": 3442,
            "time": 12.148,
            "value": 0.7244094488188977
          },
          {
            "number": 11,
            "ticks": 3449,
            "time": 12.176,
            "value": 0.7165354330708661
          },
          {
            "number": 11,
            "ticks": 3457,
            "time": 12.208,
            "value": 0.7086614173228346
          },
          {
            "number": 11,
            "ticks": 3465,
            "time": 12.24,
            "value": 0.7007874015748031
          },
          {
            "number": 11,
            "ticks": 3473,
            "time": 12.272,
            "value": 0.6929133858267716
          },
          {
            "number": 11,
            "ticks": 3480,
            "time": 12.3,
            "value": 0.6850393700787402
          },
          {
            "number": 11,
            "ticks": 3488,
            "time": 12.332,
            "value": 0.6771653543307087
          },
          {
            "number": 11,
            "ticks": 3496,
            "time": 12.364,
            "value": 0.6692913385826772
          },
          {
            "number": 11,
            "ticks": 3504,
            "time": 12.396,
            "value": 0.6614173228346457
          },
          {
            "number": 11,
            "ticks": 3511,
            "time": 12.424,
            "value": 0.6535433070866141
          },
          {
            "number": 11,
            "ticks": 3519,
            "time": 12.456,
            "value": 0.6456692913385826
          },
          {
            "number": 11,
            "ticks": 3527,
            "time": 12.488,
            "value": 0.6377952755905512
          },
          {
            "number": 11,
            "ticks": 3534,
            "time": 12.516,
            "value": 0.6299212598425197
          },
          {
            "number": 11,
            "ticks": 3542,
            "time": 12.548,
            "value": 0.6220472440944882
          },
          {
            "number": 11,
            "ticks": 3550,
            "time": 12.58,
            "value": 0.6141732283464567
          },
          {
            "number": 11,
            "ticks": 3558,
            "time": 12.612,
            "value": 0.6062992125984252
          },
          {
            "number": 11,
            "ticks": 3565,
            "time": 12.64,
            "value": 0.5984251968503937
          },
          {
            "number": 11,
            "ticks": 3573,
            "time": 12.671999999999999,
            "value": 0.5905511811023622
          },
          {
            "number": 11,
            "ticks": 3581,
            "time": 12.703999999999999,
            "value": 0.5826771653543307
          },
          {
            "number": 11,
            "ticks": 3588,
            "time": 12.732,
            "value": 0.5748031496062992
          },
          {
            "number": 11,
            "ticks": 3596,
            "time": 12.764,
            "value": 0.5669291338582677
          },
          {
            "number": 11,
            "ticks": 3604,
            "time": 12.796000000000001,
            "value": 0.5590551181102362
          },
          {
            "number": 11,
            "ticks": 3612,
            "time": 12.828000000000001,
            "value": 0.5511811023622047
          },
          {
            "number": 11,
            "ticks": 3619,
            "time": 12.856000000000002,
            "value": 0.5433070866141733
          },
          {
            "number": 11,
            "ticks": 3627,
            "time": 12.888000000000002,
            "value": 0.5354330708661418
          },
          {
            "number": 11,
            "ticks": 3635,
            "time": 12.92,
            "value": 0.5275590551181102
          },
          {
            "number": 11,
            "ticks": 3642,
            "time": 12.948,
            "value": 0.5196850393700787
          },
          {
            "number": 11,
            "ticks": 3650,
            "time": 12.98,
            "value": 0.5118110236220472
          },
          {
            "number": 11,
            "ticks": 3658,
            "time": 13.012,
            "value": 0.5039370078740157
          },
          {
            "number": 11,
            "ticks": 3666,
            "time": 13.044,
            "value": 0.49606299212598426
          },
          {
            "number": 11,
            "ticks": 3673,
            "time": 13.072000000000001,
            "value": 0.4881889763779528
          },
          {
            "number": 11,
            "ticks": 3681,
            "time": 13.104000000000001,
            "value": 0.48031496062992124
          },
          {
            "number": 11,
            "ticks": 3689,
            "time": 13.136000000000001,
            "value": 0.47244094488188976
          },
          {
            "number": 11,
            "ticks": 3696,
            "time": 13.164,
            "value": 0.4645669291338583
          },
          {
            "number": 11,
            "ticks": 3704,
            "time": 13.196,
            "value": 0.4566929133858268
          },
          {
            "number": 11,
            "ticks": 3712,
            "time": 13.228,
            "value": 0.44881889763779526
          },
          {
            "number": 11,
            "ticks": 3720,
            "time": 13.26,
            "value": 0.4409448818897638
          },
          {
            "number": 11,
            "ticks": 3727,
            "time": 13.288,
            "value": 0.4330708661417323
          },
          {
            "number": 11,
            "ticks": 3735,
            "time": 13.32,
            "value": 0.4251968503937008
          },
          {
            "number": 11,
            "ticks": 3743,
            "time": 13.352,
            "value": 0.41732283464566927
          },
          {
            "number": 11,
            "ticks": 3751,
            "time": 13.384,
            "value": 0.4094488188976378
          },
          {
            "number": 11,
            "ticks": 3758,
            "time": 13.412,
            "value": 0.4015748031496063
          },
          {
            "number": 11,
            "ticks": 3766,
            "time": 13.444,
            "value": 0.3937007874015748
          },
          {
            "number": 11,
            "ticks": 3774,
            "time": 13.475999999999999,
            "value": 0.3858267716535433
          },
          {
            "number": 11,
            "ticks": 3781,
            "time": 13.504,
            "value": 0.3779527559055118
          },
          {
            "number": 11,
            "ticks": 3789,
            "time": 13.536,
            "value": 0.3700787401574803
          },
          {
            "number": 11,
            "ticks": 3797,
            "time": 13.568,
            "value": 0.36220472440944884
          },
          {
            "number": 11,
            "ticks": 3805,
            "time": 13.6,
            "value": 0.3543307086614173
          },
          {
            "number": 11,
            "ticks": 3812,
            "time": 13.628,
            "value": 0.3464566929133858
          },
          {
            "number": 11,
            "ticks": 3820,
            "time": 13.66,
            "value": 0.33858267716535434
          },
          {
            "number": 11,
            "ticks": 3828,
            "time": 13.692,
            "value": 0.33070866141732286
          },
          {
            "number": 11,
            "ticks": 3835,
            "time": 13.719999999999999,
            "value": 0.3228346456692913
          },
          {
            "number": 11,
            "ticks": 3843,
            "time": 13.751999999999999,
            "value": 0.31496062992125984
          },
          {
            "number": 11,
            "ticks": 3851,
            "time": 13.783999999999999,
            "value": 0.30708661417322836
          },
          {
            "number": 11,
            "ticks": 3859,
            "time": 13.816,
            "value": 0.2992125984251969
          },
          {
            "number": 11,
            "ticks": 3867,
            "time": 13.848,
            "value": 0.29133858267716534
          },
          {
            "number": 11,
            "ticks": 3874,
            "time": 13.876000000000001,
            "value": 0.28346456692913385
          },
          {
            "number": 11,
            "ticks": 3882,
            "time": 13.908000000000001,
            "value": 0.2755905511811024
          },
          {
            "number": 11,
            "ticks": 3890,
            "time": 13.940000000000001,
            "value": 0.2677165354330709
          },
          {
            "number": 11,
            "ticks": 3897,
            "time": 13.968000000000002,
            "value": 0.25984251968503935
          },
          {
            "number": 11,
            "ticks": 3905,
            "time": 14,
            "value": 0.25196850393700787
          },
          {
            "number": 11,
            "ticks": 3913,
            "time": 14.032,
            "value": 0.2440944881889764
          },
          {
            "number": 11,
            "ticks": 3921,
            "time": 14.064,
            "value": 0.23622047244094488
          },
          {
            "number": 11,
            "ticks": 3928,
            "time": 14.092,
            "value": 0.2283464566929134
          },
          {
            "number": 11,
            "ticks": 3936,
            "time": 14.124,
            "value": 0.2204724409448819
          },
          {
            "number": 11,
            "ticks": 3944,
            "time": 14.156,
            "value": 0.2125984251968504
          },
          {
            "number": 11,
            "ticks": 3951,
            "time": 14.184000000000001,
            "value": 0.2047244094488189
          },
          {
            "number": 11,
            "ticks": 3959,
            "time": 14.216000000000001,
            "value": 0.1968503937007874
          },
          {
            "number": 11,
            "ticks": 3967,
            "time": 14.248000000000001,
            "value": 0.1889763779527559
          },
          {
            "number": 11,
            "ticks": 3975,
            "time": 14.28,
            "value": 0.18110236220472442
          },
          {
            "number": 11,
            "ticks": 3982,
            "time": 14.308,
            "value": 0.1732283464566929
          },
          {
            "number": 11,
            "ticks": 3990,
            "time": 14.34,
            "value": 0.16535433070866143
          },
          {
            "number": 11,
            "ticks": 3998,
            "time": 14.372,
            "value": 0.15748031496062992
          },
          {
            "number": 11,
            "ticks": 4005,
            "time": 14.4,
            "value": 0.14960629921259844
          },
          {
            "number": 11,
            "ticks": 4013,
            "time": 14.432,
            "value": 0.14173228346456693
          },
          {
            "number": 11,
            "ticks": 4021,
            "time": 14.464,
            "value": 0.13385826771653545
          },
          {
            "number": 11,
            "ticks": 4029,
            "time": 14.496,
            "value": 0.12598425196850394
          },
          {
            "number": 11,
            "ticks": 5729,
            "time": 21.296,
            "value": 0
          },
          {
            "number": 11,
            "ticks": 5750,
            "time": 21.38,
            "value": 0.007874015748031496
          },
          {
            "number": 11,
            "ticks": 5756,
            "time": 21.404,
            "value": 0.015748031496062992
          },
          {
            "number": 11,
            "ticks": 5763,
            "time": 21.432,
            "value": 0.023622047244094488
          },
          {
            "number": 11,
            "ticks": 5770,
            "time": 21.46,
            "value": 0.031496062992125984
          },
          {
            "number": 11,
            "ticks": 5777,
            "time": 21.488,
            "value": 0.03937007874015748
          },
          {
            "number": 11,
            "ticks": 5783,
            "time": 21.512,
            "value": 0.047244094488188976
          },
          {
            "number": 11,
            "ticks": 5790,
            "time": 21.54,
            "value": 0.05511811023622047
          },
          {
            "number": 11,
            "ticks": 5797,
            "time": 21.567999999999998,
            "value": 0.06299212598425197
          },
          {
            "number": 11,
            "ticks": 5804,
            "time": 21.596,
            "value": 0.07086614173228346
          },
          {
            "number": 11,
            "ticks": 5810,
            "time": 21.619999999999997,
            "value": 0.07874015748031496
          },
          {
            "number": 11,
            "ticks": 5817,
            "time": 21.648,
            "value": 0.08661417322834646
          },
          {
            "number": 11,
            "ticks": 5824,
            "time": 21.676,
            "value": 0.09448818897637795
          },
          {
            "number": 11,
            "ticks": 5831,
            "time": 21.704,
            "value": 0.10236220472440945
          },
          {
            "number": 11,
            "ticks": 5837,
            "time": 21.727999999999998,
            "value": 0.11023622047244094
          },
          {
            "number": 11,
            "ticks": 5844,
            "time": 21.756,
            "value": 0.11811023622047244
          },
          {
            "number": 11,
            "ticks": 5851,
            "time": 21.784,
            "value": 0.12598425196850394
          },
          {
            "number": 11,
            "ticks": 5858,
            "time": 21.812,
            "value": 0.13385826771653545
          },
          {
            "number": 11,
            "ticks": 5864,
            "time": 21.836,
            "value": 0.14173228346456693
          },
          {
            "number": 11,
            "ticks": 5871,
            "time": 21.863999999999997,
            "value": 0.14960629921259844
          },
          {
            "number": 11,
            "ticks": 5878,
            "time": 21.892,
            "value": 0.15748031496062992
          },
          {
            "number": 11,
            "ticks": 5885,
            "time": 21.919999999999998,
            "value": 0.16535433070866143
          },
          {
            "number": 11,
            "ticks": 5891,
            "time": 21.944,
            "value": 0.1732283464566929
          },
          {
            "number": 11,
            "ticks": 5898,
            "time": 21.971999999999998,
            "value": 0.18110236220472442
          },
          {
            "number": 11,
            "ticks": 5905,
            "time": 22,
            "value": 0.1889763779527559
          },
          {
            "number": 11,
            "ticks": 5912,
            "time": 22.028,
            "value": 0.1968503937007874
          },
          {
            "number": 11,
            "ticks": 5918,
            "time": 22.052000000000003,
            "value": 0.2047244094488189
          },
          {
            "number": 11,
            "ticks": 5925,
            "time": 22.08,
            "value": 0.2125984251968504
          },
          {
            "number": 11,
            "ticks": 5932,
            "time": 22.107999999999997,
            "value": 0.2204724409448819
          },
          {
            "number": 11,
            "ticks": 5939,
            "time": 22.136,
            "value": 0.2283464566929134
          },
          {
            "number": 11,
            "ticks": 5945,
            "time": 22.16,
            "value": 0.23622047244094488
          },
          {
            "number": 11,
            "ticks": 5952,
            "time": 22.188,
            "value": 0.2440944881889764
          },
          {
            "number": 11,
            "ticks": 5959,
            "time": 22.215999999999998,
            "value": 0.25196850393700787
          },
          {
            "number": 11,
            "ticks": 5966,
            "time": 22.244,
            "value": 0.25984251968503935
          },
          {
            "number": 11,
            "ticks": 5972,
            "time": 22.268,
            "value": 0.2677165354330709
          },
          {
            "number": 11,
            "ticks": 5979,
            "time": 22.296000000000003,
            "value": 0.2755905511811024
          },
          {
            "number": 11,
            "ticks": 5986,
            "time": 22.323999999999998,
            "value": 0.28346456692913385
          },
          {
            "number": 11,
            "ticks": 5993,
            "time": 22.352,
            "value": 0.29133858267716534
          },
          {
            "number": 11,
            "ticks": 5999,
            "time": 22.376,
            "value": 0.2992125984251969
          },
          {
            "number": 11,
            "ticks": 6006,
            "time": 22.404,
            "value": 0.30708661417322836
          },
          {
            "number": 11,
            "ticks": 6013,
            "time": 22.432,
            "value": 0.31496062992125984
          },
          {
            "number": 11,
            "ticks": 6020,
            "time": 22.459999999999997,
            "value": 0.3228346456692913
          },
          {
            "number": 11,
            "ticks": 6026,
            "time": 22.484,
            "value": 0.33070866141732286
          },
          {
            "number": 11,
            "ticks": 6033,
            "time": 22.512,
            "value": 0.33858267716535434
          },
          {
            "number": 11,
            "ticks": 6040,
            "time": 22.540000000000003,
            "value": 0.3464566929133858
          },
          {
            "number": 11,
            "ticks": 6047,
            "time": 22.567999999999998,
            "value": 0.3543307086614173
          },
          {
            "number": 11,
            "ticks": 6053,
            "time": 22.592000000000002,
            "value": 0.36220472440944884
          },
          {
            "number": 11,
            "ticks": 6060,
            "time": 22.62,
            "value": 0.3700787401574803
          },
          {
            "number": 11,
            "ticks": 6067,
            "time": 22.648,
            "value": 0.3779527559055118
          },
          {
            "number": 11,
            "ticks": 6074,
            "time": 22.676,
            "value": 0.3858267716535433
          },
          {
            "number": 11,
            "ticks": 6080,
            "time": 22.7,
            "value": 0.3937007874015748
          },
          {
            "number": 11,
            "ticks": 6087,
            "time": 22.728,
            "value": 0.4015748031496063
          },
          {
            "number": 11,
            "ticks": 6094,
            "time": 22.756,
            "value": 0.4094488188976378
          },
          {
            "number": 11,
            "ticks": 6101,
            "time": 22.784000000000002,
            "value": 0.41732283464566927
          },
          {
            "number": 11,
            "ticks": 6107,
            "time": 22.808,
            "value": 0.4251968503937008
          },
          {
            "number": 11,
            "ticks": 6114,
            "time": 22.836000000000002,
            "value": 0.4330708661417323
          },
          {
            "number": 11,
            "ticks": 6121,
            "time": 22.864,
            "value": 0.4409448818897638
          },
          {
            "number": 11,
            "ticks": 6127,
            "time": 22.887999999999998,
            "value": 0.44881889763779526
          },
          {
            "number": 11,
            "ticks": 6134,
            "time": 22.916,
            "value": 0.4566929133858268
          },
          {
            "number": 11,
            "ticks": 6141,
            "time": 22.944,
            "value": 0.4645669291338583
          },
          {
            "number": 11,
            "ticks": 6148,
            "time": 22.972,
            "value": 0.47244094488188976
          },
          {
            "number": 11,
            "ticks": 6154,
            "time": 22.996,
            "value": 0.48031496062992124
          },
          {
            "number": 11,
            "ticks": 6161,
            "time": 23.024,
            "value": 0.4881889763779528
          },
          {
            "number": 11,
            "ticks": 6168,
            "time": 23.052,
            "value": 0.49606299212598426
          },
          {
            "number": 11,
            "ticks": 6175,
            "time": 23.080000000000002,
            "value": 0.5039370078740157
          },
          {
            "number": 11,
            "ticks": 6181,
            "time": 23.104,
            "value": 0.5118110236220472
          },
          {
            "number": 11,
            "ticks": 6188,
            "time": 23.132,
            "value": 0.5196850393700787
          },
          {
            "number": 11,
            "ticks": 6195,
            "time": 23.16,
            "value": 0.5275590551181102
          },
          {
            "number": 11,
            "ticks": 6202,
            "time": 23.188,
            "value": 0.5354330708661418
          },
          {
            "number": 11,
            "ticks": 6208,
            "time": 23.212,
            "value": 0.5433070866141733
          },
          {
            "number": 11,
            "ticks": 6215,
            "time": 23.24,
            "value": 0.5511811023622047
          },
          {
            "number": 11,
            "ticks": 6222,
            "time": 23.268,
            "value": 0.5590551181102362
          },
          {
            "number": 11,
            "ticks": 6229,
            "time": 23.296,
            "value": 0.5669291338582677
          },
          {
            "number": 11,
            "ticks": 6235,
            "time": 23.32,
            "value": 0.5748031496062992
          },
          {
            "number": 11,
            "ticks": 6242,
            "time": 23.348,
            "value": 0.5826771653543307
          },
          {
            "number": 11,
            "ticks": 6249,
            "time": 23.376,
            "value": 0.5905511811023622
          },
          {
            "number": 11,
            "ticks": 6256,
            "time": 23.404,
            "value": 0.5984251968503937
          },
          {
            "number": 11,
            "ticks": 6263,
            "time": 23.432000000000002,
            "value": 0.6062992125984252
          },
          {
            "number": 11,
            "ticks": 6269,
            "time": 23.456,
            "value": 0.6141732283464567
          },
          {
            "number": 11,
            "ticks": 6276,
            "time": 23.483999999999998,
            "value": 0.6220472440944882
          },
          {
            "number": 11,
            "ticks": 6283,
            "time": 23.512,
            "value": 0.6299212598425197
          },
          {
            "number": 11,
            "ticks": 6290,
            "time": 23.54,
            "value": 0.6377952755905512
          },
          {
            "number": 11,
            "ticks": 6296,
            "time": 23.564,
            "value": 0.6456692913385826
          },
          {
            "number": 11,
            "ticks": 6303,
            "time": 23.592,
            "value": 0.6535433070866141
          },
          {
            "number": 11,
            "ticks": 6310,
            "time": 23.62,
            "value": 0.6614173228346457
          },
          {
            "number": 11,
            "ticks": 6317,
            "time": 23.648,
            "value": 0.6692913385826772
          },
          {
            "number": 11,
            "ticks": 6323,
            "time": 23.672,
            "value": 0.6771653543307087
          },
          {
            "number": 11,
            "ticks": 6330,
            "time": 23.7,
            "value": 0.6850393700787402
          },
          {
            "number": 11,
            "ticks": 6337,
            "time": 23.727999999999998,
            "value": 0.6929133858267716
          },
          {
            "number": 11,
            "ticks": 6344,
            "time": 23.756,
            "value": 0.7007874015748031
          },
          {
            "number": 11,
            "ticks": 6350,
            "time": 23.779999999999998,
            "value": 0.7086614173228346
          },
          {
            "number": 11,
            "ticks": 6357,
            "time": 23.808,
            "value": 0.7165354330708661
          },
          {
            "number": 11,
            "ticks": 6364,
            "time": 23.836,
            "value": 0.7244094488188977
          },
          {
            "number": 11,
            "ticks": 6371,
            "time": 23.864,
            "value": 0.7322834645669292
          },
          {
            "number": 11,
            "ticks": 6377,
            "time": 23.887999999999998,
            "value": 0.7401574803149606
          },
          {
            "number": 11,
            "ticks": 6384,
            "time": 23.916,
            "value": 0.7480314960629921
          },
          {
            "number": 11,
            "ticks": 6391,
            "time": 23.944,
            "value": 0.7559055118110236
          },
          {
            "number": 11,
            "ticks": 6398,
            "time": 23.972,
            "value": 0.7637795275590551
          },
          {
            "number": 11,
            "ticks": 6404,
            "time": 23.996,
            "value": 0.7716535433070866
          },
          {
            "number": 11,
            "ticks": 6411,
            "time": 24.023999999999997,
            "value": 0.7795275590551181
          },
          {
            "number": 11,
            "ticks": 6418,
            "time": 24.052,
            "value": 0.7874015748031497
          },
          {
            "number": 11,
            "ticks": 6425,
            "time": 24.08,
            "value": 0.7952755905511811
          },
          {
            "number": 11,
            "ticks": 6431,
            "time": 24.104,
            "value": 0.8031496062992126
          },
          {
            "number": 11,
            "ticks": 6438,
            "time": 24.131999999999998,
            "value": 0.8110236220472441
          },
          {
            "number": 11,
            "ticks": 6445,
            "time": 24.16,
            "value": 0.8188976377952756
          },
          {
            "number": 11,
            "ticks": 6452,
            "time": 24.188,
            "value": 0.8267716535433071
          },
          {
            "number": 11,
            "ticks": 6458,
            "time": 24.212,
            "value": 0.8346456692913385
          },
          {
            "number": 11,
            "ticks": 6465,
            "time": 24.24,
            "value": 0.84251968503937
          },
          {
            "number": 11,
            "ticks": 6472,
            "time": 24.267999999999997,
            "value": 0.8503937007874016
          },
          {
            "number": 11,
            "ticks": 6479,
            "time": 24.296,
            "value": 0.8582677165354331
          },
          {
            "number": 11,
            "ticks": 6485,
            "time": 24.32,
            "value": 0.8661417322834646
          },
          {
            "number": 11,
            "ticks": 6492,
            "time": 24.348,
            "value": 0.8740157480314961
          },
          {
            "number": 11,
            "ticks": 6499,
            "time": 24.375999999999998,
            "value": 0.8818897637795275
          },
          {
            "number": 11,
            "ticks": 6506,
            "time": 24.404,
            "value": 0.889763779527559
          },
          {
            "number": 11,
            "ticks": 6512,
            "time": 24.428,
            "value": 0.8976377952755905
          },
          {
            "number": 11,
            "ticks": 6519,
            "time": 24.456,
            "value": 0.905511811023622
          },
          {
            "number": 11,
            "ticks": 6526,
            "time": 24.483999999999998,
            "value": 0.9133858267716536
          },
          {
            "number": 11,
            "ticks": 6533,
            "time": 24.512,
            "value": 0.9212598425196851
          },
          {
            "number": 11,
            "ticks": 6539,
            "time": 24.536,
            "value": 0.9291338582677166
          },
          {
            "number": 11,
            "ticks": 6546,
            "time": 24.564,
            "value": 0.937007874015748
          },
          {
            "number": 11,
            "ticks": 6553,
            "time": 24.592,
            "value": 0.9448818897637795
          },
          {
            "number": 11,
            "ticks": 6560,
            "time": 24.619999999999997,
            "value": 0.952755905511811
          },
          {
            "number": 11,
            "ticks": 6566,
            "time": 24.644000000000002,
            "value": 0.9606299212598425
          },
          {
            "number": 11,
            "ticks": 6573,
            "time": 24.672,
            "value": 0.968503937007874
          },
          {
            "number": 11,
            "ticks": 6580,
            "time": 24.7,
            "value": 0.9763779527559056
          },
          {
            "number": 11,
            "ticks": 6587,
            "time": 24.727999999999998,
            "value": 0.984251968503937
          },
          {
            "number": 11,
            "ticks": 6593,
            "time": 24.752000000000002,
            "value": 0.9921259842519685
          },
          {
            "number": 11,
            "ticks": 6600,
            "time": 24.78,
            "value": 1
          }
        ]
      },
      "pitchBends": [],
      "instrument": {
        "family": "ensemble",
        "number": 48,
        "name": "string ensemble 1"
      },
      "name": "",
      "notes": [
        {
          "duration": 6.860000000000001,
          "durationTicks": 1715,
          "midi": 76,
          "name": "E5",
          "ticks": 2314,
          "time": 7.635999999999999,
          "velocity": 0.5039370078740157
        }
      ]
    },
    {
      "channel": 1,
      "controlChanges": {
        "1": [
          {
            "number": 1,
            "ticks": 600,
            "time": 0.78,
            "value": 0.12598425196850394
          }
        ],
        "10": [
          {
            "number": 10,
            "ticks": 600,
            "time": 0.78,
            "value": 1
          }
        ],
        "11": [
          {
            "number": 11,
            "ticks": 2381,
            "time": 7.904,
            "value": 0
          },
          {
            "number": 11,
            "ticks": 2401,
            "time": 7.983999999999999,
            "value": 0.007874015748031496
          },
          {
            "number": 11,
            "ticks": 2408,
            "time": 8.012,
            "value": 0.015748031496062992
          },
          {
            "number": 11,
            "ticks": 2415,
            "time": 8.04,
            "value": 0.023622047244094488
          },
          {
            "number": 11,
            "ticks": 2422,
            "time": 8.068,
            "value": 0.031496062992125984
          },
          {
            "number": 11,
            "ticks": 2428,
            "time": 8.092,
            "value": 0.03937007874015748
          },
          {
            "number": 11,
            "ticks": 2435,
            "time": 8.120000000000001,
            "value": 0.047244094488188976
          },
          {
            "number": 11,
            "ticks": 2442,
            "time": 8.148000000000001,
            "value": 0.05511811023622047
          },
          {
            "number": 11,
            "ticks": 2449,
            "time": 8.176,
            "value": 0.06299212598425197
          },
          {
            "number": 11,
            "ticks": 2455,
            "time": 8.2,
            "value": 0.07086614173228346
          },
          {
            "number": 11,
            "ticks": 2462,
            "time": 8.228,
            "value": 0.07874015748031496
          },
          {
            "number": 11,
            "ticks": 2469,
            "time": 8.256,
            "value": 0.08661417322834646
          },
          {
            "number": 11,
            "ticks": 2476,
            "time": 8.283999999999999,
            "value": 0.09448818897637795
          },
          {
            "number": 11,
            "ticks": 2482,
            "time": 8.308,
            "value": 0.10236220472440945
          },
          {
            "number": 11,
            "ticks": 2489,
            "time": 8.336,
            "value": 0.11023622047244094
          },
          {
            "number": 11,
            "ticks": 2496,
            "time": 8.364,
            "value": 0.11811023622047244
          },
          {
            "number": 11,
            "ticks": 2503,
            "time": 8.392000000000001,
            "value": 0.12598425196850394
          },
          {
            "number": 11,
            "ticks": 2509,
            "time": 8.416,
            "value": 0.13385826771653545
          },
          {
            "number": 11,
            "ticks": 2516,
            "time": 8.443999999999999,
            "value": 0.14173228346456693
          },
          {
            "number": 11,
            "ticks": 2523,
            "time": 8.472,
            "value": 0.14960629921259844
          },
          {
            "number": 11,
            "ticks": 2530,
            "time": 8.5,
            "value": 0.15748031496062992
          },
          {
            "number": 11,
            "ticks": 2536,
            "time": 8.524000000000001,
            "value": 0.16535433070866143
          },
          {
            "number": 11,
            "ticks": 2543,
            "time": 8.552,
            "value": 0.1732283464566929
          },
          {
            "number": 11,
            "ticks": 2550,
            "time": 8.58,
            "value": 0.18110236220472442
          },
          {
            "number": 11,
            "ticks": 2557,
            "time": 8.608,
            "value": 0.1889763779527559
          },
          {
            "number": 11,
            "ticks": 2563,
            "time": 8.632000000000001,
            "value": 0.1968503937007874
          },
          {
            "number": 11,
            "ticks": 2570,
            "time": 8.66,
            "value": 0.2047244094488189
          },
          {
            "number": 11,
            "ticks": 2577,
            "time": 8.688,
            "value": 0.2125984251968504
          },
          {
            "number": 11,
            "ticks": 2584,
            "time": 8.716000000000001,
            "value": 0.2204724409448819
          },
          {
            "number": 11,
            "ticks": 2590,
            "time": 8.74,
            "value": 0.2283464566929134
          },
          {
            "number": 11,
            "ticks": 2597,
            "time": 8.768,
            "value": 0.23622047244094488
          },
          {
            "number": 11,
            "ticks": 2604,
            "time": 8.796,
            "value": 0.2440944881889764
          },
          {
            "number": 11,
            "ticks": 2611,
            "time": 8.824,
            "value": 0.25196850393700787
          },
          {
            "number": 11,
            "ticks": 2617,
            "time": 8.848,
            "value": 0.25984251968503935
          },
          {
            "number": 11,
            "ticks": 2624,
            "time": 8.876000000000001,
            "value": 0.2677165354330709
          },
          {
            "number": 11,
            "ticks": 2631,
            "time": 8.904,
            "value": 0.2755905511811024
          },
          {
            "number": 11,
            "ticks": 2638,
            "time": 8.932,
            "value": 0.28346456692913385
          },
          {
            "number": 11,
            "ticks": 2644,
            "time": 8.956000000000001,
            "value": 0.29133858267716534
          },
          {
            "number": 11,
            "ticks": 2651,
            "time": 8.984,
            "value": 0.2992125984251969
          },
          {
            "number": 11,
            "ticks": 2658,
            "time": 9.012,
            "value": 0.30708661417322836
          },
          {
            "number": 11,
            "ticks": 2665,
            "time": 9.04,
            "value": 0.31496062992125984
          },
          {
            "number": 11,
            "ticks": 2671,
            "time": 9.064,
            "value": 0.3228346456692913
          },
          {
            "number": 11,
            "ticks": 2678,
            "time": 9.092,
            "value": 0.33070866141732286
          },
          {
            "number": 11,
            "ticks": 2685,
            "time": 9.120000000000001,
            "value": 0.33858267716535434
          },
          {
            "number": 11,
            "ticks": 2692,
            "time": 9.148,
            "value": 0.3464566929133858
          },
          {
            "number": 11,
            "ticks": 2698,
            "time": 9.172,
            "value": 0.3543307086614173
          },
          {
            "number": 11,
            "ticks": 2705,
            "time": 9.200000000000001,
            "value": 0.36220472440944884
          },
          {
            "number": 11,
            "ticks": 2712,
            "time": 9.228000000000002,
            "value": 0.3700787401574803
          },
          {
            "number": 11,
            "ticks": 2719,
            "time": 9.256000000000002,
            "value": 0.3779527559055118
          },
          {
            "number": 11,
            "ticks": 2725,
            "time": 9.28,
            "value": 0.3858267716535433
          },
          {
            "number": 11,
            "ticks": 2732,
            "time": 9.308,
            "value": 0.3937007874015748
          },
          {
            "number": 11,
            "ticks": 2739,
            "time": 9.336,
            "value": 0.4015748031496063
          },
          {
            "number": 11,
            "ticks": 2746,
            "time": 9.364,
            "value": 0.4094488188976378
          },
          {
            "number": 11,
            "ticks": 2752,
            "time": 9.388,
            "value": 0.41732283464566927
          },
          {
            "number": 11,
            "ticks": 2759,
            "time": 9.416,
            "value": 0.4251968503937008
          },
          {
            "number": 11,
            "ticks": 2766,
            "time": 9.444,
            "value": 0.4330708661417323
          },
          {
            "number": 11,
            "ticks": 2773,
            "time": 9.472000000000001,
            "value": 0.4409448818897638
          },
          {
            "number": 11,
            "ticks": 2779,
            "time": 9.496,
            "value": 0.44881889763779526
          },
          {
            "number": 11,
            "ticks": 2786,
            "time": 9.524,
            "value": 0.4566929133858268
          },
          {
            "number": 11,
            "ticks": 2793,
            "time": 9.552,
            "value": 0.4645669291338583
          },
          {
            "number": 11,
            "ticks": 2800,
            "time": 9.58,
            "value": 0.47244094488188976
          },
          {
            "number": 11,
            "ticks": 2806,
            "time": 9.604000000000001,
            "value": 0.48031496062992124
          },
          {
            "number": 11,
            "ticks": 2813,
            "time": 9.632,
            "value": 0.4881889763779528
          },
          {
            "number": 11,
            "ticks": 2820,
            "time": 9.66,
            "value": 0.49606299212598426
          },
          {
            "number": 11,
            "ticks": 2827,
            "time": 9.688,
            "value": 0.5039370078740157
          },
          {
            "number": 11,
            "ticks": 2833,
            "time": 9.712000000000002,
            "value": 0.5118110236220472
          },
          {
            "number": 11,
            "ticks": 2840,
            "time": 9.74,
            "value": 0.5196850393700787
          },
          {
            "number": 11,
            "ticks": 2847,
            "time": 9.768,
            "value": 0.5275590551181102
          },
          {
            "number": 11,
            "ticks": 2854,
            "time": 9.796000000000001,
            "value": 0.5354330708661418
          },
          {
            "number": 11,
            "ticks": 2860,
            "time": 9.82,
            "value": 0.5433070866141733
          },
          {
            "number": 11,
            "ticks": 2867,
            "time": 9.848,
            "value": 0.5511811023622047
          },
          {
            "number": 11,
            "ticks": 2874,
            "time": 9.876,
            "value": 0.5590551181102362
          },
          {
            "number": 11,
            "ticks": 2881,
            "time": 9.904,
            "value": 0.5669291338582677
          },
          {
            "number": 11,
            "ticks": 2887,
            "time": 9.928,
            "value": 0.5748031496062992
          },
          {
            "number": 11,
            "ticks": 2894,
            "time": 9.956000000000001,
            "value": 0.5826771653543307
          },
          {
            "number": 11,
            "ticks": 2901,
            "time": 9.984,
            "value": 0.5905511811023622
          },
          {
            "number": 11,
            "ticks": 2908,
            "time": 10.012,
            "value": 0.5984251968503937
          },
          {
            "number": 11,
            "ticks": 2914,
            "time": 10.036000000000001,
            "value": 0.6062992125984252
          },
          {
            "number": 11,
            "ticks": 2921,
            "time": 10.064,
            "value": 0.6141732283464567
          },
          {
            "number": 11,
            "ticks": 2928,
            "time": 10.092,
            "value": 0.6220472440944882
          },
          {
            "number": 11,
            "ticks": 2935,
            "time": 10.12,
            "value": 0.6299212598425197
          },
          {
            "number": 11,
            "ticks": 2941,
            "time": 10.144,
            "value": 0.6377952755905512
          },
          {
            "number": 11,
            "ticks": 2948,
            "time": 10.172,
            "value": 0.6456692913385826
          },
          {
            "number": 11,
            "ticks": 2955,
            "time": 10.200000000000001,
            "value": 0.6535433070866141
          },
          {
            "number": 11,
            "ticks": 2962,
            "time": 10.228,
            "value": 0.6614173228346457
          },
          {
            "number": 11,
            "ticks": 2968,
            "time": 10.252,
            "value": 0.6692913385826772
          },
          {
            "number": 11,
            "ticks": 2975,
            "time": 10.280000000000001,
            "value": 0.6771653543307087
          },
          {
            "number": 11,
            "ticks": 2982,
            "time": 10.308000000000002,
            "value": 0.6850393700787402
          },
          {
            "number": 11,
            "ticks": 2989,
            "time": 10.336,
            "value": 0.6929133858267716
          },
          {
            "number": 11,
            "ticks": 2995,
            "time": 10.36,
            "value": 0.7007874015748031
          },
          {
            "number": 11,
            "ticks": 3002,
            "time": 10.388,
            "value": 0.7086614173228346
          },
          {
            "number": 11,
            "ticks": 3009,
            "time": 10.416,
            "value": 0.7165354330708661
          },
          {
            "number": 11,
            "ticks": 3016,
            "time": 10.444,
            "value": 0.7244094488188977
          },
          {
            "number": 11,
            "ticks": 3022,
            "time": 10.468,
            "value": 0.7322834645669292
          },
          {
            "number": 11,
            "ticks": 3029,
            "time": 10.496,
            "value": 0.7401574803149606
          },
          {
            "number": 11,
            "ticks": 3036,
            "time": 10.524000000000001,
            "value": 0.7480314960629921
          },
          {
            "number": 11,
            "ticks": 3043,
            "time": 10.552000000000001,
            "value": 0.7559055118110236
          },
          {
            "number": 11,
            "ticks": 3049,
            "time": 10.576,
            "value": 0.7637795275590551
          },
          {
            "number": 11,
            "ticks": 3056,
            "time": 10.604,
            "value": 0.7716535433070866
          },
          {
            "number": 11,
            "ticks": 3063,
            "time": 10.632,
            "value": 0.7795275590551181
          },
          {
            "number": 11,
            "ticks": 3070,
            "time": 10.66,
            "value": 0.7874015748031497
          },
          {
            "number": 11,
            "ticks": 3076,
            "time": 10.684,
            "value": 0.7952755905511811
          },
          {
            "number": 11,
            "ticks": 3083,
            "time": 10.712,
            "value": 0.8031496062992126
          },
          {
            "number": 11,
            "ticks": 3090,
            "time": 10.74,
            "value": 0.8110236220472441
          },
          {
            "number": 11,
            "ticks": 3097,
            "time": 10.768,
            "value": 0.8188976377952756
          },
          {
            "number": 11,
            "ticks": 3103,
            "time": 10.792000000000002,
            "value": 0.8267716535433071
          },
          {
            "number": 11,
            "ticks": 3110,
            "time": 10.82,
            "value": 0.8346456692913385
          },
          {
            "number": 11,
            "ticks": 3117,
            "time": 10.848,
            "value": 0.84251968503937
          },
          {
            "number": 11,
            "ticks": 3124,
            "time": 10.876000000000001,
            "value": 0.8503937007874016
          },
          {
            "number": 11,
            "ticks": 3130,
            "time": 10.9,
            "value": 0.8582677165354331
          },
          {
            "number": 11,
            "ticks": 3137,
            "time": 10.927999999999999,
            "value": 0.8661417322834646
          },
          {
            "number": 11,
            "ticks": 3144,
            "time": 10.956,
            "value": 0.8740157480314961
          },
          {
            "number": 11,
            "ticks": 3150,
            "time": 10.98,
            "value": 0.8818897637795275
          },
          {
            "number": 11,
            "ticks": 3157,
            "time": 11.008000000000001,
            "value": 0.889763779527559
          },
          {
            "number": 11,
            "ticks": 3164,
            "time": 11.036000000000001,
            "value": 0.8976377952755905
          },
          {
            "number": 11,
            "ticks": 3171,
            "time": 11.064,
            "value": 0.905511811023622
          },
          {
            "number": 11,
            "ticks": 3177,
            "time": 11.088000000000001,
            "value": 0.9133858267716536
          },
          {
            "number": 11,
            "ticks": 3184,
            "time": 11.116000000000001,
            "value": 0.9212598425196851
          },
          {
            "number": 11,
            "ticks": 3191,
            "time": 11.144,
            "value": 0.9291338582677166
          },
          {
            "number": 11,
            "ticks": 3198,
            "time": 11.171999999999999,
            "value": 0.937007874015748
          },
          {
            "number": 11,
            "ticks": 3204,
            "time": 11.196,
            "value": 0.9448818897637795
          },
          {
            "number": 11,
            "ticks": 3211,
            "time": 11.224,
            "value": 0.952755905511811
          },
          {
            "number": 11,
            "ticks": 3218,
            "time": 11.252,
            "value": 0.9606299212598425
          },
          {
            "number": 11,
            "ticks": 3225,
            "time": 11.280000000000001,
            "value": 0.968503937007874
          },
          {
            "number": 11,
            "ticks": 3231,
            "time": 11.304,
            "value": 0.9763779527559056
          },
          {
            "number": 11,
            "ticks": 3238,
            "time": 11.332,
            "value": 0.984251968503937
          },
          {
            "number": 11,
            "ticks": 3245,
            "time": 11.360000000000001,
            "value": 0.9921259842519685
          },
          {
            "number": 11,
            "ticks": 3252,
            "time": 11.388000000000002,
            "value": 1
          },
          {
            "number": 11,
            "ticks": 3260,
            "time": 11.420000000000002,
            "value": 0.9921259842519685
          },
          {
            "number": 11,
            "ticks": 3267,
            "time": 11.448,
            "value": 0.984251968503937
          },
          {
            "number": 11,
            "ticks": 3275,
            "time": 11.48,
            "value": 0.9763779527559056
          },
          {
            "number": 11,
            "ticks": 3283,
            "time": 11.512,
            "value": 0.968503937007874
          },
          {
            "number": 11,
            "ticks": 3290,
            "time": 11.540000000000001,
            "value": 0.9606299212598425
          },
          {
            "number": 11,
            "ticks": 3298,
            "time": 11.572000000000001,
            "value": 0.952755905511811
          },
          {
            "number": 11,
            "ticks": 3306,
            "time": 11.604000000000001,
            "value": 0.9448818897637795
          },
          {
            "number": 11,
            "ticks": 3314,
            "time": 11.636000000000001,
            "value": 0.937007874015748
          },
          {
            "number": 11,
            "ticks": 3321,
            "time": 11.664000000000001,
            "value": 0.9291338582677166
          },
          {
            "number": 11,
            "ticks": 3329,
            "time": 11.696,
            "value": 0.9212598425196851
          },
          {
            "number": 11,
            "ticks": 3337,
            "time": 11.728,
            "value": 0.9133858267716536
          },
          {
            "number": 11,
            "ticks": 3344,
            "time": 11.756,
            "value": 0.905511811023622
          },
          {
            "number": 11,
            "ticks": 3352,
            "time": 11.788,
            "value": 0.8976377952755905
          },
          {
            "number": 11,
            "ticks": 3360,
            "time": 11.82,
            "value": 0.889763779527559
          },
          {
            "number": 11,
            "ticks": 3368,
            "time": 11.852,
            "value": 0.8818897637795275
          },
          {
            "number": 11,
            "ticks": 3375,
            "time": 11.88,
            "value": 0.8740157480314961
          },
          {
            "number": 11,
            "ticks": 3383,
            "time": 11.912,
            "value": 0.8661417322834646
          },
          {
            "number": 11,
            "ticks": 3391,
            "time": 11.944,
            "value": 0.8582677165354331
          },
          {
            "number": 11,
            "ticks": 3398,
            "time": 11.972,
            "value": 0.8503937007874016
          },
          {
            "number": 11,
            "ticks": 3406,
            "time": 12.004,
            "value": 0.84251968503937
          },
          {
            "number": 11,
            "ticks": 3414,
            "time": 12.036,
            "value": 0.8346456692913385
          },
          {
            "number": 11,
            "ticks": 3422,
            "time": 12.068,
            "value": 0.8267716535433071
          },
          {
            "number": 11,
            "ticks": 3429,
            "time": 12.096,
            "value": 0.8188976377952756
          },
          {
            "number": 11,
            "ticks": 3437,
            "time": 12.128,
            "value": 0.8110236220472441
          },
          {
            "number": 11,
            "ticks": 3445,
            "time": 12.16,
            "value": 0.8031496062992126
          },
          {
            "number": 11,
            "ticks": 3452,
            "time": 12.188,
            "value": 0.7952755905511811
          },
          {
            "number": 11,
            "ticks": 3460,
            "time": 12.219999999999999,
            "value": 0.7874015748031497
          },
          {
            "number": 11,
            "ticks": 3468,
            "time": 12.251999999999999,
            "value": 0.7795275590551181
          },
          {
            "number": 11,
            "ticks": 3476,
            "time": 12.283999999999999,
            "value": 0.7716535433070866
          },
          {
            "number": 11,
            "ticks": 3483,
            "time": 12.312,
            "value": 0.7637795275590551
          },
          {
            "number": 11,
            "ticks": 3491,
            "time": 12.344,
            "value": 0.7559055118110236
          },
          {
            "number": 11,
            "ticks": 3499,
            "time": 12.376000000000001,
            "value": 0.7480314960629921
          },
          {
            "number": 11,
            "ticks": 3507,
            "time": 12.408000000000001,
            "value": 0.7401574803149606
          },
          {
            "number": 11,
            "ticks": 3514,
            "time": 12.436000000000002,
            "value": 0.7322834645669292
          },
          {
            "number": 11,
            "ticks": 3522,
            "time": 12.468000000000002,
            "value": 0.7244094488188977
          },
          {
            "number": 11,
            "ticks": 3530,
            "time": 12.5,
            "value": 0.7165354330708661
          },
          {
            "number": 11,
            "ticks": 3538,
            "time": 12.532,
            "value": 0.7086614173228346
          },
          {
            "number": 11,
            "ticks": 3545,
            "time": 12.56,
            "value": 0.7007874015748031
          },
          {
            "number": 11,
            "ticks": 3553,
            "time": 12.592,
            "value": 0.6929133858267716
          },
          {
            "number": 11,
            "ticks": 3561,
            "time": 12.624,
            "value": 0.6850393700787402
          },
          {
            "number": 11,
            "ticks": 3568,
            "time": 12.652000000000001,
            "value": 0.6771653543307087
          },
          {
            "number": 11,
            "ticks": 3576,
            "time": 12.684000000000001,
            "value": 0.6692913385826772
          },
          {
            "number": 11,
            "ticks": 3584,
            "time": 12.716000000000001,
            "value": 0.6614173228346457
          },
          {
            "number": 11,
            "ticks": 3592,
            "time": 12.748000000000001,
            "value": 0.6535433070866141
          },
          {
            "number": 11,
            "ticks": 3599,
            "time": 12.776,
            "value": 0.6456692913385826
          },
          {
            "number": 11,
            "ticks": 3607,
            "time": 12.808,
            "value": 0.6377952755905512
          },
          {
            "number": 11,
            "ticks": 3615,
            "time": 12.84,
            "value": 0.6299212598425197
          },
          {
            "number": 11,
            "ticks": 3623,
            "time": 12.872,
            "value": 0.6220472440944882
          },
          {
            "number": 11,
            "ticks": 3630,
            "time": 12.9,
            "value": 0.6141732283464567
          },
          {
            "number": 11,
            "ticks": 3638,
            "time": 12.932,
            "value": 0.6062992125984252
          },
          {
            "number": 11,
            "ticks": 3646,
            "time": 12.964,
            "value": 0.5984251968503937
          },
          {
            "number": 11,
            "ticks": 3653,
            "time": 12.992,
            "value": 0.5905511811023622
          },
          {
            "number": 11,
            "ticks": 3661,
            "time": 13.024,
            "value": 0.5826771653543307
          },
          {
            "number": 11,
            "ticks": 3669,
            "time": 13.056,
            "value": 0.5748031496062992
          },
          {
            "number": 11,
            "ticks": 3677,
            "time": 13.088,
            "value": 0.5669291338582677
          },
          {
            "number": 11,
            "ticks": 3684,
            "time": 13.116,
            "value": 0.5590551181102362
          },
          {
            "number": 11,
            "ticks": 3692,
            "time": 13.148,
            "value": 0.5511811023622047
          },
          {
            "number": 11,
            "ticks": 3700,
            "time": 13.18,
            "value": 0.5433070866141733
          },
          {
            "number": 11,
            "ticks": 3707,
            "time": 13.208,
            "value": 0.5354330708661418
          },
          {
            "number": 11,
            "ticks": 3715,
            "time": 13.24,
            "value": 0.5275590551181102
          },
          {
            "number": 11,
            "ticks": 3723,
            "time": 13.272,
            "value": 0.5196850393700787
          },
          {
            "number": 11,
            "ticks": 3731,
            "time": 13.304,
            "value": 0.5118110236220472
          },
          {
            "number": 11,
            "ticks": 3738,
            "time": 13.331999999999999,
            "value": 0.5039370078740157
          },
          {
            "number": 11,
            "ticks": 3746,
            "time": 13.363999999999999,
            "value": 0.49606299212598426
          },
          {
            "number": 11,
            "ticks": 3754,
            "time": 13.396,
            "value": 0.4881889763779528
          },
          {
            "number": 11,
            "ticks": 3761,
            "time": 13.424,
            "value": 0.48031496062992124
          },
          {
            "number": 11,
            "ticks": 3769,
            "time": 13.456000000000001,
            "value": 0.47244094488188976
          },
          {
            "number": 11,
            "ticks": 3777,
            "time": 13.488000000000001,
            "value": 0.4645669291338583
          },
          {
            "number": 11,
            "ticks": 3785,
            "time": 13.520000000000001,
            "value": 0.4566929133858268
          },
          {
            "number": 11,
            "ticks": 3792,
            "time": 13.548,
            "value": 0.44881889763779526
          },
          {
            "number": 11,
            "ticks": 3800,
            "time": 13.58,
            "value": 0.4409448818897638
          },
          {
            "number": 11,
            "ticks": 3808,
            "time": 13.612,
            "value": 0.4330708661417323
          },
          {
            "number": 11,
            "ticks": 3815,
            "time": 13.64,
            "value": 0.4251968503937008
          },
          {
            "number": 11,
            "ticks": 3823,
            "time": 13.672,
            "value": 0.41732283464566927
          },
          {
            "number": 11,
            "ticks": 3831,
            "time": 13.704,
            "value": 0.4094488188976378
          },
          {
            "number": 11,
            "ticks": 3839,
            "time": 13.736,
            "value": 0.4015748031496063
          },
          {
            "number": 11,
            "ticks": 3846,
            "time": 13.764000000000001,
            "value": 0.3937007874015748
          },
          {
            "number": 11,
            "ticks": 3854,
            "time": 13.796000000000001,
            "value": 0.3858267716535433
          },
          {
            "number": 11,
            "ticks": 3862,
            "time": 13.828000000000001,
            "value": 0.3779527559055118
          },
          {
            "number": 11,
            "ticks": 3870,
            "time": 13.86,
            "value": 0.3700787401574803
          },
          {
            "number": 11,
            "ticks": 3877,
            "time": 13.888,
            "value": 0.36220472440944884
          },
          {
            "number": 11,
            "ticks": 3885,
            "time": 13.92,
            "value": 0.3543307086614173
          },
          {
            "number": 11,
            "ticks": 3893,
            "time": 13.952,
            "value": 0.3464566929133858
          },
          {
            "number": 11,
            "ticks": 3900,
            "time": 13.98,
            "value": 0.33858267716535434
          },
          {
            "number": 11,
            "ticks": 3908,
            "time": 14.012,
            "value": 0.33070866141732286
          },
          {
            "number": 11,
            "ticks": 3916,
            "time": 14.044,
            "value": 0.3228346456692913
          },
          {
            "number": 11,
            "ticks": 3924,
            "time": 14.076,
            "value": 0.31496062992125984
          },
          {
            "number": 11,
            "ticks": 3931,
            "time": 14.104,
            "value": 0.30708661417322836
          },
          {
            "number": 11,
            "ticks": 3939,
            "time": 14.136,
            "value": 0.2992125984251969
          },
          {
            "number": 11,
            "ticks": 3947,
            "time": 14.168,
            "value": 0.29133858267716534
          },
          {
            "number": 11,
            "ticks": 3954,
            "time": 14.196,
            "value": 0.28346456692913385
          },
          {
            "number": 11,
            "ticks": 3962,
            "time": 14.228,
            "value": 0.2755905511811024
          },
          {
            "number": 11,
            "ticks": 3970,
            "time": 14.26,
            "value": 0.2677165354330709
          },
          {
            "number": 11,
            "ticks": 3978,
            "time": 14.292,
            "value": 0.25984251968503935
          },
          {
            "number": 11,
            "ticks": 3985,
            "time": 14.32,
            "value": 0.25196850393700787
          },
          {
            "number": 11,
            "ticks": 3993,
            "time": 14.352,
            "value": 0.2440944881889764
          },
          {
            "number": 11,
            "ticks": 4001,
            "time": 14.383999999999999,
            "value": 0.23622047244094488
          },
          {
            "number": 11,
            "ticks": 4008,
            "time": 14.411999999999999,
            "value": 0.2283464566929134
          },
          {
            "number": 11,
            "ticks": 4016,
            "time": 14.443999999999999,
            "value": 0.2204724409448819
          },
          {
            "number": 11,
            "ticks": 4024,
            "time": 14.476,
            "value": 0.2125984251968504
          },
          {
            "number": 11,
            "ticks": 4032,
            "time": 14.508000000000001,
            "value": 0.2047244094488189
          },
          {
            "number": 11,
            "ticks": 4040,
            "time": 14.540000000000001,
            "value": 0.1968503937007874
          },
          {
            "number": 11,
            "ticks": 4047,
            "time": 14.568000000000001,
            "value": 0.1889763779527559
          },
          {
            "number": 11,
            "ticks": 4055,
            "time": 14.600000000000001,
            "value": 0.18110236220472442
          },
          {
            "number": 11,
            "ticks": 4063,
            "time": 14.632000000000001,
            "value": 0.1732283464566929
          },
          {
            "number": 11,
            "ticks": 4070,
            "time": 14.66,
            "value": 0.16535433070866143
          },
          {
            "number": 11,
            "ticks": 4078,
            "time": 14.692,
            "value": 0.15748031496062992
          },
          {
            "number": 11,
            "ticks": 4086,
            "time": 14.724,
            "value": 0.14960629921259844
          },
          {
            "number": 11,
            "ticks": 4094,
            "time": 14.756,
            "value": 0.14173228346456693
          },
          {
            "number": 11,
            "ticks": 4101,
            "time": 14.784,
            "value": 0.13385826771653545
          },
          {
            "number": 11,
            "ticks": 4109,
            "time": 14.816,
            "value": 0.12598425196850394
          },
          {
            "number": 11,
            "ticks": 5810,
            "time": 21.619999999999997,
            "value": 0
          },
          {
            "number": 11,
            "ticks": 5830,
            "time": 21.7,
            "value": 0.007874015748031496
          },
          {
            "number": 11,
            "ticks": 5837,
            "time": 21.727999999999998,
            "value": 0.015748031496062992
          },
          {
            "number": 11,
            "ticks": 5844,
            "time": 21.756,
            "value": 0.023622047244094488
          },
          {
            "number": 11,
            "ticks": 5850,
            "time": 21.78,
            "value": 0.031496062992125984
          },
          {
            "number": 11,
            "ticks": 5857,
            "time": 21.808,
            "value": 0.03937007874015748
          },
          {
            "number": 11,
            "ticks": 5864,
            "time": 21.836,
            "value": 0.047244094488188976
          },
          {
            "number": 11,
            "ticks": 5871,
            "time": 21.863999999999997,
            "value": 0.05511811023622047
          },
          {
            "number": 11,
            "ticks": 5877,
            "time": 21.888,
            "value": 0.06299212598425197
          },
          {
            "number": 11,
            "ticks": 5884,
            "time": 21.916,
            "value": 0.07086614173228346
          },
          {
            "number": 11,
            "ticks": 5891,
            "time": 21.944,
            "value": 0.07874015748031496
          },
          {
            "number": 11,
            "ticks": 5898,
            "time": 21.971999999999998,
            "value": 0.08661417322834646
          },
          {
            "number": 11,
            "ticks": 5904,
            "time": 21.996000000000002,
            "value": 0.09448818897637795
          },
          {
            "number": 11,
            "ticks": 5911,
            "time": 22.024,
            "value": 0.10236220472440945
          },
          {
            "number": 11,
            "ticks": 5918,
            "time": 22.052000000000003,
            "value": 0.11023622047244094
          },
          {
            "number": 11,
            "ticks": 5925,
            "time": 22.08,
            "value": 0.11811023622047244
          },
          {
            "number": 11,
            "ticks": 5931,
            "time": 22.104,
            "value": 0.12598425196850394
          },
          {
            "number": 11,
            "ticks": 5938,
            "time": 22.132,
            "value": 0.13385826771653545
          },
          {
            "number": 11,
            "ticks": 5945,
            "time": 22.16,
            "value": 0.14173228346456693
          },
          {
            "number": 11,
            "ticks": 5951,
            "time": 22.184,
            "value": 0.14960629921259844
          },
          {
            "number": 11,
            "ticks": 5958,
            "time": 22.212,
            "value": 0.15748031496062992
          },
          {
            "number": 11,
            "ticks": 5965,
            "time": 22.240000000000002,
            "value": 0.16535433070866143
          },
          {
            "number": 11,
            "ticks": 5972,
            "time": 22.268,
            "value": 0.1732283464566929
          },
          {
            "number": 11,
            "ticks": 5978,
            "time": 22.292,
            "value": 0.18110236220472442
          },
          {
            "number": 11,
            "ticks": 5985,
            "time": 22.32,
            "value": 0.1889763779527559
          },
          {
            "number": 11,
            "ticks": 5992,
            "time": 22.348,
            "value": 0.1968503937007874
          },
          {
            "number": 11,
            "ticks": 5999,
            "time": 22.376,
            "value": 0.2047244094488189
          },
          {
            "number": 11,
            "ticks": 6005,
            "time": 22.4,
            "value": 0.2125984251968504
          },
          {
            "number": 11,
            "ticks": 6012,
            "time": 22.428,
            "value": 0.2204724409448819
          },
          {
            "number": 11,
            "ticks": 6019,
            "time": 22.456,
            "value": 0.2283464566929134
          },
          {
            "number": 11,
            "ticks": 6026,
            "time": 22.484,
            "value": 0.23622047244094488
          },
          {
            "number": 11,
            "ticks": 6032,
            "time": 22.508,
            "value": 0.2440944881889764
          },
          {
            "number": 11,
            "ticks": 6039,
            "time": 22.536,
            "value": 0.25196850393700787
          },
          {
            "number": 11,
            "ticks": 6046,
            "time": 22.564,
            "value": 0.25984251968503935
          },
          {
            "number": 11,
            "ticks": 6053,
            "time": 22.592000000000002,
            "value": 0.2677165354330709
          },
          {
            "number": 11,
            "ticks": 6059,
            "time": 22.616,
            "value": 0.2755905511811024
          },
          {
            "number": 11,
            "ticks": 6066,
            "time": 22.644,
            "value": 0.28346456692913385
          },
          {
            "number": 11,
            "ticks": 6073,
            "time": 22.672,
            "value": 0.29133858267716534
          },
          {
            "number": 11,
            "ticks": 6080,
            "time": 22.7,
            "value": 0.2992125984251969
          },
          {
            "number": 11,
            "ticks": 6086,
            "time": 22.724,
            "value": 0.30708661417322836
          },
          {
            "number": 11,
            "ticks": 6093,
            "time": 22.752,
            "value": 0.31496062992125984
          },
          {
            "number": 11,
            "ticks": 6100,
            "time": 22.78,
            "value": 0.3228346456692913
          },
          {
            "number": 11,
            "ticks": 6107,
            "time": 22.808,
            "value": 0.33070866141732286
          },
          {
            "number": 11,
            "ticks": 6113,
            "time": 22.832,
            "value": 0.33858267716535434
          },
          {
            "number": 11,
            "ticks": 6120,
            "time": 22.86,
            "value": 0.3464566929133858
          },
          {
            "number": 11,
            "ticks": 6127,
            "time": 22.887999999999998,
            "value": 0.3543307086614173
          },
          {
            "number": 11,
            "ticks": 6134,
            "time": 22.916,
            "value": 0.36220472440944884
          },
          {
            "number": 11,
            "ticks": 6140,
            "time": 22.939999999999998,
            "value": 0.3700787401574803
          },
          {
            "number": 11,
            "ticks": 6147,
            "time": 22.968,
            "value": 0.3779527559055118
          },
          {
            "number": 11,
            "ticks": 6154,
            "time": 22.996,
            "value": 0.3858267716535433
          },
          {
            "number": 11,
            "ticks": 6161,
            "time": 23.024,
            "value": 0.3937007874015748
          },
          {
            "number": 11,
            "ticks": 6167,
            "time": 23.048,
            "value": 0.4015748031496063
          },
          {
            "number": 11,
            "ticks": 6174,
            "time": 23.076,
            "value": 0.4094488188976378
          },
          {
            "number": 11,
            "ticks": 6181,
            "time": 23.104,
            "value": 0.41732283464566927
          },
          {
            "number": 11,
            "ticks": 6188,
            "time": 23.132,
            "value": 0.4251968503937008
          },
          {
            "number": 11,
            "ticks": 6194,
            "time": 23.156,
            "value": 0.4330708661417323
          },
          {
            "number": 11,
            "ticks": 6201,
            "time": 23.183999999999997,
            "value": 0.4409448818897638
          },
          {
            "number": 11,
            "ticks": 6208,
            "time": 23.212,
            "value": 0.44881889763779526
          },
          {
            "number": 11,
            "ticks": 6215,
            "time": 23.24,
            "value": 0.4566929133858268
          },
          {
            "number": 11,
            "ticks": 6221,
            "time": 23.264,
            "value": 0.4645669291338583
          },
          {
            "number": 11,
            "ticks": 6228,
            "time": 23.291999999999998,
            "value": 0.47244094488188976
          },
          {
            "number": 11,
            "ticks": 6235,
            "time": 23.32,
            "value": 0.48031496062992124
          },
          {
            "number": 11,
            "ticks": 6242,
            "time": 23.348,
            "value": 0.4881889763779528
          },
          {
            "number": 11,
            "ticks": 6248,
            "time": 23.372,
            "value": 0.49606299212598426
          },
          {
            "number": 11,
            "ticks": 6255,
            "time": 23.4,
            "value": 0.5039370078740157
          },
          {
            "number": 11,
            "ticks": 6262,
            "time": 23.427999999999997,
            "value": 0.5118110236220472
          },
          {
            "number": 11,
            "ticks": 6269,
            "time": 23.456,
            "value": 0.5196850393700787
          },
          {
            "number": 11,
            "ticks": 6275,
            "time": 23.48,
            "value": 0.5275590551181102
          },
          {
            "number": 11,
            "ticks": 6282,
            "time": 23.508,
            "value": 0.5354330708661418
          },
          {
            "number": 11,
            "ticks": 6289,
            "time": 23.535999999999998,
            "value": 0.5433070866141733
          },
          {
            "number": 11,
            "ticks": 6296,
            "time": 23.564,
            "value": 0.5511811023622047
          },
          {
            "number": 11,
            "ticks": 6302,
            "time": 23.588,
            "value": 0.5590551181102362
          },
          {
            "number": 11,
            "ticks": 6309,
            "time": 23.616,
            "value": 0.5669291338582677
          },
          {
            "number": 11,
            "ticks": 6316,
            "time": 23.644,
            "value": 0.5748031496062992
          },
          {
            "number": 11,
            "ticks": 6323,
            "time": 23.672,
            "value": 0.5826771653543307
          },
          {
            "number": 11,
            "ticks": 6329,
            "time": 23.696,
            "value": 0.5905511811023622
          },
          {
            "number": 11,
            "ticks": 6336,
            "time": 23.724,
            "value": 0.5984251968503937
          },
          {
            "number": 11,
            "ticks": 6343,
            "time": 23.752,
            "value": 0.6062992125984252
          },
          {
            "number": 11,
            "ticks": 6350,
            "time": 23.779999999999998,
            "value": 0.6141732283464567
          },
          {
            "number": 11,
            "ticks": 6356,
            "time": 23.804000000000002,
            "value": 0.6220472440944882
          },
          {
            "number": 11,
            "ticks": 6363,
            "time": 23.832,
            "value": 0.6299212598425197
          },
          {
            "number": 11,
            "ticks": 6370,
            "time": 23.86,
            "value": 0.6377952755905512
          },
          {
            "number": 11,
            "ticks": 6377,
            "time": 23.887999999999998,
            "value": 0.6456692913385826
          },
          {
            "number": 11,
            "ticks": 6383,
            "time": 23.912000000000003,
            "value": 0.6535433070866141
          },
          {
            "number": 11,
            "ticks": 6390,
            "time": 23.94,
            "value": 0.6614173228346457
          },
          {
            "number": 11,
            "ticks": 6397,
            "time": 23.968,
            "value": 0.6692913385826772
          },
          {
            "number": 11,
            "ticks": 6404,
            "time": 23.996,
            "value": 0.6771653543307087
          },
          {
            "number": 11,
            "ticks": 6410,
            "time": 24.02,
            "value": 0.6850393700787402
          },
          {
            "number": 11,
            "ticks": 6417,
            "time": 24.048000000000002,
            "value": 0.6929133858267716
          },
          {
            "number": 11,
            "ticks": 6424,
            "time": 24.076,
            "value": 0.7007874015748031
          },
          {
            "number": 11,
            "ticks": 6431,
            "time": 24.104,
            "value": 0.7086614173228346
          },
          {
            "number": 11,
            "ticks": 6437,
            "time": 24.128,
            "value": 0.7165354330708661
          },
          {
            "number": 11,
            "ticks": 6444,
            "time": 24.156000000000002,
            "value": 0.7244094488188977
          },
          {
            "number": 11,
            "ticks": 6451,
            "time": 24.184,
            "value": 0.7322834645669292
          },
          {
            "number": 11,
            "ticks": 6458,
            "time": 24.212,
            "value": 0.7401574803149606
          },
          {
            "number": 11,
            "ticks": 6464,
            "time": 24.236,
            "value": 0.7480314960629921
          },
          {
            "number": 11,
            "ticks": 6471,
            "time": 24.264,
            "value": 0.7559055118110236
          },
          {
            "number": 11,
            "ticks": 6478,
            "time": 24.292,
            "value": 0.7637795275590551
          },
          {
            "number": 11,
            "ticks": 6485,
            "time": 24.32,
            "value": 0.7716535433070866
          },
          {
            "number": 11,
            "ticks": 6491,
            "time": 24.344,
            "value": 0.7795275590551181
          },
          {
            "number": 11,
            "ticks": 6498,
            "time": 24.372,
            "value": 0.7874015748031497
          },
          {
            "number": 11,
            "ticks": 6505,
            "time": 24.400000000000002,
            "value": 0.7952755905511811
          },
          {
            "number": 11,
            "ticks": 6512,
            "time": 24.428,
            "value": 0.8031496062992126
          },
          {
            "number": 11,
            "ticks": 6518,
            "time": 24.452,
            "value": 0.8110236220472441
          },
          {
            "number": 11,
            "ticks": 6525,
            "time": 24.48,
            "value": 0.8188976377952756
          },
          {
            "number": 11,
            "ticks": 6532,
            "time": 24.508,
            "value": 0.8267716535433071
          },
          {
            "number": 11,
            "ticks": 6539,
            "time": 24.536,
            "value": 0.8346456692913385
          },
          {
            "number": 11,
            "ticks": 6545,
            "time": 24.56,
            "value": 0.84251968503937
          },
          {
            "number": 11,
            "ticks": 6552,
            "time": 24.588,
            "value": 0.8503937007874016
          },
          {
            "number": 11,
            "ticks": 6559,
            "time": 24.616,
            "value": 0.8582677165354331
          },
          {
            "number": 11,
            "ticks": 6566,
            "time": 24.644000000000002,
            "value": 0.8661417322834646
          },
          {
            "number": 11,
            "ticks": 6572,
            "time": 24.668,
            "value": 0.8740157480314961
          },
          {
            "number": 11,
            "ticks": 6579,
            "time": 24.696,
            "value": 0.8818897637795275
          },
          {
            "number": 11,
            "ticks": 6586,
            "time": 24.724,
            "value": 0.889763779527559
          },
          {
            "number": 11,
            "ticks": 6593,
            "time": 24.752000000000002,
            "value": 0.8976377952755905
          },
          {
            "number": 11,
            "ticks": 6599,
            "time": 24.776,
            "value": 0.905511811023622
          },
          {
            "number": 11,
            "ticks": 6606,
            "time": 24.804,
            "value": 0.9133858267716536
          },
          {
            "number": 11,
            "ticks": 6613,
            "time": 24.832,
            "value": 0.9212598425196851
          },
          {
            "number": 11,
            "ticks": 6620,
            "time": 24.86,
            "value": 0.9291338582677166
          },
          {
            "number": 11,
            "ticks": 6626,
            "time": 24.884,
            "value": 0.937007874015748
          },
          {
            "number": 11,
            "ticks": 6633,
            "time": 24.912,
            "value": 0.9448818897637795
          },
          {
            "number": 11,
            "ticks": 6640,
            "time": 24.94,
            "value": 0.952755905511811
          },
          {
            "number": 11,
            "ticks": 6647,
            "time": 24.968,
            "value": 0.9606299212598425
          },
          {
            "number": 11,
            "ticks": 6653,
            "time": 24.992,
            "value": 0.968503937007874
          },
          {
            "number": 11,
            "ticks": 6660,
            "time": 25.02,
            "value": 0.9763779527559056
          },
          {
            "number": 11,
            "ticks": 6667,
            "time": 25.048,
            "value": 0.984251968503937
          },
          {
            "number": 11,
            "ticks": 6674,
            "time": 25.076,
            "value": 0.9921259842519685
          },
          {
            "number": 11,
            "ticks": 6680,
            "time": 25.099999999999998,
            "value": 1
          }
        ]
      },
      "pitchBends": [
        {
          "ticks": 600,
          "time": 0.78,
          "value": 0.004150390625
        }
      ],
      "instrument": {
        "family": "ensemble",
        "number": 48,
        "name": "string ensemble 1"
      },
      "name": "",
      "notes": [
        {
          "duration": 6.856000000000001,
          "durationTicks": 1714,
          "midi": 76,
          "name": "E5",
          "ticks": 2395,
          "time": 7.96,
          "velocity": 0.5039370078740157
        }
      ]
    },
    {
      "channel": 2,
      "controlChanges": {
        "1": [
          {
            "number": 1,
            "ticks": 600,
            "time": 0.78,
            "value": 0.12598425196850394
          }
        ],
        "11": [
          {
            "number": 11,
            "ticks": 16886,
            "time": 65.92399999999999,
            "value": 0.7559055118110236
          },
          {
            "number": 11,
            "ticks": 17743,
            "time": 69.35199999999999,
            "value": 1
          },
          {
            "number": 11,
            "ticks": 34886,
            "time": 137.924,
            "value": 0.7559055118110236
          },
          {
            "number": 11,
            "ticks": 35743,
            "time": 141.352,
            "value": 1
          }
        ],
        "120": [
          {
            "number": 120,
            "ticks": 43457,
            "time": 172.208,
            "value": 0
          }
        ]
      },
      "pitchBends": [],
      "instrument": {
        "family": "synth lead",
        "number": 87,
        "name": "lead 8 (bass + lead)"
      },
      "name": "",
      "notes": [
        {
          "duration": 3.428000000000001,
          "durationTicks": 857,
          "midi": 28,
          "name": "E1",
          "ticks": 7457,
          "time": 28.208,
          "velocity": 0.7559055118110236
        },
        {
          "duration": 3.4279999999999937,
          "durationTicks": 857,
          "midi": 28,
          "name": "E1",
          "ticks": 8314,
          "time": 31.636,
          "velocity": 0.7559055118110236
        },
        {
          "duration": 3.432000000000002,
          "durationTicks": 858,
          "midi": 28,
          "name": "E1",
          "ticks": 9171,
          "time": 35.06399999999999,
          "velocity": 0.7559055118110236
        },
        {
          "duration": 3.4280000000000044,
          "durationTicks": 857,
          "midi": 28,
          "name": "E1",
          "ticks": 10029,
          "time": 38.495999999999995,
          "velocity": 0.7559055118110236
        },
        {
          "duration": 3.4279999999999973,
          "durationTicks": 857,
          "midi": 29,
          "name": "F1",
          "ticks": 10886,
          "time": 41.924,
          "velocity": 0.7559055118110236
        },
        {
          "duration": 3.4279999999999973,
          "durationTicks": 857,
          "midi": 29,
          "name": "F1",
          "ticks": 11743,
          "time": 45.352,
          "velocity": 0.7559055118110236
        },
        {
          "duration": 3.4279999999999973,
          "durationTicks": 857,
          "midi": 28,
          "name": "E1",
          "ticks": 12600,
          "time": 48.779999999999994,
          "velocity": 0.7559055118110236
        },
        {
          "duration": 3.4280000000000044,
          "durationTicks": 857,
          "midi": 28,
          "name": "E1",
          "ticks": 13457,
          "time": 52.20799999999999,
          "velocity": 0.7559055118110236
        },
        {
          "duration": 3.4279999999999973,
          "durationTicks": 857,
          "midi": 29,
          "name": "F1",
          "ticks": 14314,
          "time": 55.635999999999996,
          "velocity": 0.7559055118110236
        },
        {
          "duration": 3.431999999999995,
          "durationTicks": 858,
          "midi": 29,
          "name": "F1",
          "ticks": 15171,
          "time": 59.06399999999999,
          "velocity": 0.7559055118110236
        },
        {
          "duration": 3.4280000000000044,
          "durationTicks": 857,
          "midi": 28,
          "name": "E1",
          "ticks": 16029,
          "time": 62.49599999999999,
          "velocity": 0.7559055118110236
        },
        {
          "duration": 3.4279999999999973,
          "durationTicks": 857,
          "midi": 28,
          "name": "E1",
          "ticks": 16886,
          "time": 65.92399999999999,
          "velocity": 0.7559055118110236
        },
        {
          "duration": 3.4280000000000115,
          "durationTicks": 857,
          "midi": 29,
          "name": "F1",
          "ticks": 17743,
          "time": 69.35199999999999,
          "velocity": 0.7559055118110236
        },
        {
          "duration": 3.4279999999999973,
          "durationTicks": 857,
          "midi": 29,
          "name": "F1",
          "ticks": 18600,
          "time": 72.78,
          "velocity": 0.7559055118110236
        },
        {
          "duration": 3.4279999999999973,
          "durationTicks": 857,
          "midi": 28,
          "name": "E1",
          "ticks": 19457,
          "time": 76.208,
          "velocity": 0.7559055118110236
        },
        {
          "duration": 3.4279999999999973,
          "durationTicks": 857,
          "midi": 28,
          "name": "E1",
          "ticks": 20314,
          "time": 79.636,
          "velocity": 0.7559055118110236
        },
        {
          "duration": 3.432000000000002,
          "durationTicks": 858,
          "midi": 29,
          "name": "F1",
          "ticks": 21171,
          "time": 83.064,
          "velocity": 0.7559055118110236
        },
        {
          "duration": 3.4279999999999973,
          "durationTicks": 857,
          "midi": 29,
          "name": "F1",
          "ticks": 22029,
          "time": 86.496,
          "velocity": 0.7559055118110236
        },
        {
          "duration": 3.4279999999999973,
          "durationTicks": 857,
          "midi": 28,
          "name": "E1",
          "ticks": 22886,
          "time": 89.92399999999999,
          "velocity": 0.7559055118110236
        },
        {
          "duration": 5.1440000000000055,
          "durationTicks": 1286,
          "midi": 28,
          "name": "E1",
          "ticks": 23743,
          "time": 93.35199999999999,
          "velocity": 0.7559055118110236
        },
        {
          "duration": 3.4279999999999973,
          "durationTicks": 857,
          "midi": 28,
          "name": "E1",
          "ticks": 25457,
          "time": 100.208,
          "velocity": 0.7559055118110236
        },
        {
          "duration": 3.4279999999999973,
          "durationTicks": 857,
          "midi": 28,
          "name": "E1",
          "ticks": 26314,
          "time": 103.636,
          "velocity": 0.7559055118110236
        },
        {
          "duration": 3.431999999999988,
          "durationTicks": 858,
          "midi": 28,
          "name": "E1",
          "ticks": 27171,
          "time": 107.064,
          "velocity": 0.7559055118110236
        },
        {
          "duration": 3.4280000000000115,
          "durationTicks": 857,
          "midi": 28,
          "name": "E1",
          "ticks": 28029,
          "time": 110.49599999999998,
          "velocity": 0.7559055118110236
        },
        {
          "duration": 3.4279999999999973,
          "durationTicks": 857,
          "midi": 29,
          "name": "F1",
          "ticks": 28886,
          "time": 113.92399999999999,
          "velocity": 0.7559055118110236
        },
        {
          "duration": 3.4279999999999973,
          "durationTicks": 857,
          "midi": 29,
          "name": "F1",
          "ticks": 29743,
          "time": 117.35199999999999,
          "velocity": 0.7559055118110236
        },
        {
          "duration": 3.4279999999999973,
          "durationTicks": 857,
          "midi": 28,
          "name": "E1",
          "ticks": 30600,
          "time": 120.77999999999999,
          "velocity": 0.7559055118110236
        },
        {
          "duration": 3.4280000000000257,
          "durationTicks": 857,
          "midi": 28,
          "name": "E1",
          "ticks": 31457,
          "time": 124.20799999999998,
          "velocity": 0.7559055118110236
        },
        {
          "duration": 3.4280000000000115,
          "durationTicks": 857,
          "midi": 29,
          "name": "F1",
          "ticks": 32314,
          "time": 127.63600000000001,
          "velocity": 0.7559055118110236
        },
        {
          "duration": 3.431999999999988,
          "durationTicks": 858,
          "midi": 29,
          "name": "F1",
          "ticks": 33171,
          "time": 131.06400000000002,
          "velocity": 0.7559055118110236
        },
        {
          "duration": 3.4279999999999973,
          "durationTicks": 857,
          "midi": 28,
          "name": "E1",
          "ticks": 34029,
          "time": 134.496,
          "velocity": 0.7559055118110236
        },
        {
          "duration": 3.4279999999999973,
          "durationTicks": 857,
          "midi": 28,
          "name": "E1",
          "ticks": 34886,
          "time": 137.924,
          "velocity": 0.7559055118110236
        },
        {
          "duration": 3.4279999999999973,
          "durationTicks": 857,
          "midi": 29,
          "name": "F1",
          "ticks": 35743,
          "time": 141.352,
          "velocity": 0.7559055118110236
        },
        {
          "duration": 3.4279999999999973,
          "durationTicks": 857,
          "midi": 29,
          "name": "F1",
          "ticks": 36600,
          "time": 144.78,
          "velocity": 0.7559055118110236
        },
        {
          "duration": 3.4280000000000257,
          "durationTicks": 857,
          "midi": 28,
          "name": "E1",
          "ticks": 37457,
          "time": 148.208,
          "velocity": 0.7559055118110236
        },
        {
          "duration": 3.4279999999999973,
          "durationTicks": 857,
          "midi": 28,
          "name": "E1",
          "ticks": 38314,
          "time": 151.63600000000002,
          "velocity": 0.7559055118110236
        },
        {
          "duration": 3.431999999999988,
          "durationTicks": 858,
          "midi": 29,
          "name": "F1",
          "ticks": 39171,
          "time": 155.06400000000002,
          "velocity": 0.7559055118110236
        },
        {
          "duration": 3.4279999999999973,
          "durationTicks": 857,
          "midi": 29,
          "name": "F1",
          "ticks": 40029,
          "time": 158.496,
          "velocity": 0.7559055118110236
        },
        {
          "duration": 3.4279999999999973,
          "durationTicks": 857,
          "midi": 28,
          "name": "E1",
          "ticks": 40886,
          "time": 161.924,
          "velocity": 0.7559055118110236
        },
        {
          "duration": 5.1440000000000055,
          "durationTicks": 1286,
          "midi": 28,
          "name": "E1",
          "ticks": 41743,
          "time": 165.352,
          "velocity": 0.7559055118110236
        }
      ]
    },
    {
      "channel": 3,
      "controlChanges": {
        "0": [
          {
            "number": 0,
            "ticks": 600,
            "time": 0.78,
            "value": 0
          }
        ],
        "1": [
          {
            "number": 1,
            "ticks": 7658,
            "time": 29.012,
            "value": 0.12598425196850394
          }
        ],
        "11": [
          {
            "number": 11,
            "ticks": 16886,
            "time": 65.92399999999999,
            "value": 0.7559055118110236
          },
          {
            "number": 11,
            "ticks": 34886,
            "time": 137.924,
            "value": 0.7559055118110236
          }
        ],
        "32": [
          {
            "number": 32,
            "ticks": 600,
            "time": 0.78,
            "value": 0
          }
        ]
      },
      "pitchBends": [],
      "instrument": {
        "family": "piano",
        "number": 0,
        "name": "acoustic grand piano"
      },
      "name": "",
      "notes": [
        {
          "duration": 0.21600000000000108,
          "durationTicks": 54,
          "midi": 62,
          "name": "D4",
          "ticks": 7671,
          "time": 29.064,
          "velocity": 0.5669291338582677
        },
        {
          "duration": 0.42799999999999727,
          "durationTicks": 107,
          "midi": 62,
          "name": "D4",
          "ticks": 7725,
          "time": 29.28,
          "velocity": 0.5669291338582677
        },
        {
          "duration": 0.42799999999999727,
          "durationTicks": 107,
          "midi": 67,
          "name": "G4",
          "ticks": 7725,
          "time": 29.28,
          "velocity": 0.5669291338582677
        },
        {
          "duration": 1.9280000000000008,
          "durationTicks": 482,
          "midi": 62,
          "name": "D4",
          "ticks": 7832,
          "time": 29.708,
          "velocity": 0.5669291338582677
        },
        {
          "duration": 1.9280000000000008,
          "durationTicks": 482,
          "midi": 67,
          "name": "G4",
          "ticks": 7832,
          "time": 29.708,
          "velocity": 0.5669291338582677
        },
        {
          "duration": 0.2120000000000033,
          "durationTicks": 53,
          "midi": 62,
          "name": "D4",
          "ticks": 8529,
          "time": 32.495999999999995,
          "velocity": 0.5669291338582677
        },
        {
          "duration": 0.2120000000000033,
          "durationTicks": 53,
          "midi": 67,
          "name": "G4",
          "ticks": 8529,
          "time": 32.495999999999995,
          "velocity": 0.5669291338582677
        },
        {
          "duration": 0.42799999999999727,
          "durationTicks": 107,
          "midi": 62,
          "name": "D4",
          "ticks": 8582,
          "time": 32.708,
          "velocity": 0.5669291338582677
        },
        {
          "duration": 0.42799999999999727,
          "durationTicks": 107,
          "midi": 67,
          "name": "G4",
          "ticks": 8582,
          "time": 32.708,
          "velocity": 0.5669291338582677
        },
        {
          "duration": 1.9279999999999973,
          "durationTicks": 482,
          "midi": 62,
          "name": "D4",
          "ticks": 8689,
          "time": 33.135999999999996,
          "velocity": 0.5669291338582677
        },
        {
          "duration": 1.9279999999999973,
          "durationTicks": 482,
          "midi": 67,
          "name": "G4",
          "ticks": 8689,
          "time": 33.135999999999996,
          "velocity": 0.5669291338582677
        },
        {
          "duration": 0.2119999999999962,
          "durationTicks": 53,
          "midi": 62,
          "name": "D4",
          "ticks": 9386,
          "time": 35.924,
          "velocity": 0.5669291338582677
        },
        {
          "duration": 0.2119999999999962,
          "durationTicks": 53,
          "midi": 67,
          "name": "G4",
          "ticks": 9386,
          "time": 35.924,
          "velocity": 0.5669291338582677
        },
        {
          "duration": 0.42799999999999727,
          "durationTicks": 107,
          "midi": 62,
          "name": "D4",
          "ticks": 9439,
          "time": 36.135999999999996,
          "velocity": 0.5669291338582677
        },
        {
          "duration": 0.42799999999999727,
          "durationTicks": 107,
          "midi": 67,
          "name": "G4",
          "ticks": 9439,
          "time": 36.135999999999996,
          "velocity": 0.5669291338582677
        },
        {
          "duration": 1.9320000000000022,
          "durationTicks": 483,
          "midi": 62,
          "name": "D4",
          "ticks": 9546,
          "time": 36.56399999999999,
          "velocity": 0.5669291338582677
        },
        {
          "duration": 1.9320000000000022,
          "durationTicks": 483,
          "midi": 67,
          "name": "G4",
          "ticks": 9546,
          "time": 36.56399999999999,
          "velocity": 0.5669291338582677
        },
        {
          "duration": 0.2119999999999962,
          "durationTicks": 53,
          "midi": 62,
          "name": "D4",
          "ticks": 10243,
          "time": 39.352,
          "velocity": 0.5669291338582677
        },
        {
          "duration": 0.2119999999999962,
          "durationTicks": 53,
          "midi": 67,
          "name": "G4",
          "ticks": 10243,
          "time": 39.352,
          "velocity": 0.5669291338582677
        },
        {
          "duration": 0.43200000000000216,
          "durationTicks": 108,
          "midi": 62,
          "name": "D4",
          "ticks": 10296,
          "time": 39.56399999999999,
          "velocity": 0.5669291338582677
        },
        {
          "duration": 0.43200000000000216,
          "durationTicks": 108,
          "midi": 67,
          "name": "G4",
          "ticks": 10296,
          "time": 39.56399999999999,
          "velocity": 0.5669291338582677
        },
        {
          "duration": 1.9280000000000044,
          "durationTicks": 482,
          "midi": 62,
          "name": "D4",
          "ticks": 10404,
          "time": 39.995999999999995,
          "velocity": 0.5669291338582677
        },
        {
          "duration": 1.9280000000000044,
          "durationTicks": 482,
          "midi": 67,
          "name": "G4",
          "ticks": 10404,
          "time": 39.995999999999995,
          "velocity": 0.5669291338582677
        },
        {
          "duration": 0.21600000000000108,
          "durationTicks": 54,
          "midi": 60,
          "name": "C4",
          "ticks": 11100,
          "time": 42.779999999999994,
          "velocity": 0.5669291338582677
        },
        {
          "duration": 0.21600000000000108,
          "durationTicks": 54,
          "midi": 67,
          "name": "G4",
          "ticks": 11100,
          "time": 42.779999999999994,
          "velocity": 0.5669291338582677
        },
        {
          "duration": 0.4280000000000044,
          "durationTicks": 107,
          "midi": 60,
          "name": "C4",
          "ticks": 11154,
          "time": 42.995999999999995,
          "velocity": 0.5669291338582677
        },
        {
          "duration": 0.4280000000000044,
          "durationTicks": 107,
          "midi": 67,
          "name": "G4",
          "ticks": 11154,
          "time": 42.995999999999995,
          "velocity": 0.5669291338582677
        },
        {
          "duration": 1.9279999999999973,
          "durationTicks": 482,
          "midi": 60,
          "name": "C4",
          "ticks": 11261,
          "time": 43.424,
          "velocity": 0.5669291338582677
        },
        {
          "duration": 1.9279999999999973,
          "durationTicks": 482,
          "midi": 67,
          "name": "G4",
          "ticks": 11261,
          "time": 43.424,
          "velocity": 0.5669291338582677
        },
        {
          "duration": 0.21600000000000108,
          "durationTicks": 54,
          "midi": 60,
          "name": "C4",
          "ticks": 11957,
          "time": 46.208,
          "velocity": 0.5669291338582677
        },
        {
          "duration": 0.21600000000000108,
          "durationTicks": 54,
          "midi": 67,
          "name": "G4",
          "ticks": 11957,
          "time": 46.208,
          "velocity": 0.5669291338582677
        },
        {
          "duration": 0.42799999999999727,
          "durationTicks": 107,
          "midi": 60,
          "name": "C4",
          "ticks": 12011,
          "time": 46.424,
          "velocity": 0.5669291338582677
        },
        {
          "duration": 0.42799999999999727,
          "durationTicks": 107,
          "midi": 67,
          "name": "G4",
          "ticks": 12011,
          "time": 46.424,
          "velocity": 0.5669291338582677
        },
        {
          "duration": 1.9279999999999973,
          "durationTicks": 482,
          "midi": 60,
          "name": "C4",
          "ticks": 12118,
          "time": 46.852,
          "velocity": 0.5669291338582677
        },
        {
          "duration": 1.9279999999999973,
          "durationTicks": 482,
          "midi": 67,
          "name": "G4",
          "ticks": 12118,
          "time": 46.852,
          "velocity": 0.5669291338582677
        },
        {
          "duration": 0.21600000000000108,
          "durationTicks": 54,
          "midi": 62,
          "name": "D4",
          "ticks": 12814,
          "time": 49.635999999999996,
          "velocity": 0.5669291338582677
        },
        {
          "duration": 0.21600000000000108,
          "durationTicks": 54,
          "midi": 67,
          "name": "G4",
          "ticks": 12814,
          "time": 49.635999999999996,
          "velocity": 0.5669291338582677
        },
        {
          "duration": 0.42799999999999727,
          "durationTicks": 107,
          "midi": 62,
          "name": "D4",
          "ticks": 12868,
          "time": 49.852,
          "velocity": 0.5669291338582677
        },
        {
          "duration": 0.42799999999999727,
          "durationTicks": 107,
          "midi": 67,
          "name": "G4",
          "ticks": 12868,
          "time": 49.852,
          "velocity": 0.5669291338582677
        },
        {
          "duration": 1.9279999999999973,
          "durationTicks": 482,
          "midi": 62,
          "name": "D4",
          "ticks": 12975,
          "time": 50.279999999999994,
          "velocity": 0.5669291338582677
        },
        {
          "duration": 1.9279999999999973,
          "durationTicks": 482,
          "midi": 67,
          "name": "G4",
          "ticks": 12975,
          "time": 50.279999999999994,
          "velocity": 0.5669291338582677
        },
        {
          "duration": 0.21600000000000108,
          "durationTicks": 54,
          "midi": 62,
          "name": "D4",
          "ticks": 13671,
          "time": 53.06399999999999,
          "velocity": 0.5669291338582677
        },
        {
          "duration": 0.21600000000000108,
          "durationTicks": 54,
          "midi": 67,
          "name": "G4",
          "ticks": 13671,
          "time": 53.06399999999999,
          "velocity": 0.5669291338582677
        },
        {
          "duration": 0.42799999999999727,
          "durationTicks": 107,
          "midi": 62,
          "name": "D4",
          "ticks": 13725,
          "time": 53.279999999999994,
          "velocity": 0.5669291338582677
        },
        {
          "duration": 0.42799999999999727,
          "durationTicks": 107,
          "midi": 67,
          "name": "G4",
          "ticks": 13725,
          "time": 53.279999999999994,
          "velocity": 0.5669291338582677
        },
        {
          "duration": 1.9280000000000044,
          "durationTicks": 482,
          "midi": 62,
          "name": "D4",
          "ticks": 13832,
          "time": 53.70799999999999,
          "velocity": 0.5669291338582677
        },
        {
          "duration": 1.9280000000000044,
          "durationTicks": 482,
          "midi": 67,
          "name": "G4",
          "ticks": 13832,
          "time": 53.70799999999999,
          "velocity": 0.5669291338582677
        },
        {
          "duration": 0.2119999999999962,
          "durationTicks": 53,
          "midi": 60,
          "name": "C4",
          "ticks": 14529,
          "time": 56.495999999999995,
          "velocity": 0.5669291338582677
        },
        {
          "duration": 0.2119999999999962,
          "durationTicks": 53,
          "midi": 67,
          "name": "G4",
          "ticks": 14529,
          "time": 56.495999999999995,
          "velocity": 0.5669291338582677
        },
        {
          "duration": 0.4280000000000044,
          "durationTicks": 107,
          "midi": 60,
          "name": "C4",
          "ticks": 14582,
          "time": 56.70799999999999,
          "velocity": 0.5669291338582677
        },
        {
          "duration": 0.4280000000000044,
          "durationTicks": 107,
          "midi": 67,
          "name": "G4",
          "ticks": 14582,
          "time": 56.70799999999999,
          "velocity": 0.5669291338582677
        },
        {
          "duration": 1.9279999999999973,
          "durationTicks": 482,
          "midi": 60,
          "name": "C4",
          "ticks": 14689,
          "time": 57.135999999999996,
          "velocity": 0.5669291338582677
        },
        {
          "duration": 1.9279999999999973,
          "durationTicks": 482,
          "midi": 67,
          "name": "G4",
          "ticks": 14689,
          "time": 57.135999999999996,
          "velocity": 0.5669291338582677
        },
        {
          "duration": 0.2120000000000033,
          "durationTicks": 53,
          "midi": 60,
          "name": "C4",
          "ticks": 15386,
          "time": 59.92399999999999,
          "velocity": 0.5669291338582677
        },
        {
          "duration": 0.2120000000000033,
          "durationTicks": 53,
          "midi": 67,
          "name": "G4",
          "ticks": 15386,
          "time": 59.92399999999999,
          "velocity": 0.5669291338582677
        },
        {
          "duration": 0.42799999999999727,
          "durationTicks": 107,
          "midi": 60,
          "name": "C4",
          "ticks": 15439,
          "time": 60.135999999999996,
          "velocity": 0.5669291338582677
        },
        {
          "duration": 0.42799999999999727,
          "durationTicks": 107,
          "midi": 67,
          "name": "G4",
          "ticks": 15439,
          "time": 60.135999999999996,
          "velocity": 0.5669291338582677
        },
        {
          "duration": 1.931999999999995,
          "durationTicks": 483,
          "midi": 60,
          "name": "C4",
          "ticks": 15546,
          "time": 60.56399999999999,
          "velocity": 0.5669291338582677
        },
        {
          "duration": 1.931999999999995,
          "durationTicks": 483,
          "midi": 67,
          "name": "G4",
          "ticks": 15546,
          "time": 60.56399999999999,
          "velocity": 0.5669291338582677
        },
        {
          "duration": 3.4280000000000044,
          "durationTicks": 857,
          "midi": 66,
          "name": "F#4",
          "ticks": 16029,
          "time": 62.49599999999999,
          "velocity": 0.5669291338582677
        },
        {
          "duration": 3.4280000000000044,
          "durationTicks": 857,
          "midi": 59,
          "name": "B3",
          "ticks": 16029,
          "time": 62.49599999999999,
          "velocity": 0.5669291338582677
        },
        {
          "duration": 72.00000000000001,
          "durationTicks": 18000,
          "midi": 66,
          "name": "F#4",
          "ticks": 16886,
          "time": 65.92399999999999,
          "velocity": 0.5669291338582677
        },
        {
          "duration": 72.00000000000001,
          "durationTicks": 18000,
          "midi": 59,
          "name": "B3",
          "ticks": 16886,
          "time": 65.92399999999999,
          "velocity": 0.5669291338582677
        },
        {
          "duration": 0.21599999999999397,
          "durationTicks": 54,
          "midi": 62,
          "name": "D4",
          "ticks": 25671,
          "time": 101.064,
          "velocity": 0.5669291338582677
        },
        {
          "duration": 0.21599999999999397,
          "durationTicks": 54,
          "midi": 67,
          "name": "G4",
          "ticks": 25671,
          "time": 101.064,
          "velocity": 0.5669291338582677
        },
        {
          "duration": 0.4280000000000115,
          "durationTicks": 107,
          "midi": 62,
          "name": "D4",
          "ticks": 25725,
          "time": 101.27999999999999,
          "velocity": 0.5669291338582677
        },
        {
          "duration": 0.4280000000000115,
          "durationTicks": 107,
          "midi": 67,
          "name": "G4",
          "ticks": 25725,
          "time": 101.27999999999999,
          "velocity": 0.5669291338582677
        },
        {
          "duration": 1.9279999999999973,
          "durationTicks": 482,
          "midi": 62,
          "name": "D4",
          "ticks": 25832,
          "time": 101.708,
          "velocity": 0.5669291338582677
        },
        {
          "duration": 1.9279999999999973,
          "durationTicks": 482,
          "midi": 67,
          "name": "G4",
          "ticks": 25832,
          "time": 101.708,
          "velocity": 0.5669291338582677
        },
        {
          "duration": 0.2120000000000175,
          "durationTicks": 53,
          "midi": 62,
          "name": "D4",
          "ticks": 26529,
          "time": 104.49599999999998,
          "velocity": 0.5669291338582677
        },
        {
          "duration": 0.2120000000000175,
          "durationTicks": 53,
          "midi": 67,
          "name": "G4",
          "ticks": 26529,
          "time": 104.49599999999998,
          "velocity": 0.5669291338582677
        },
        {
          "duration": 0.42799999999999727,
          "durationTicks": 107,
          "midi": 62,
          "name": "D4",
          "ticks": 26582,
          "time": 104.708,
          "velocity": 0.5669291338582677
        },
        {
          "duration": 0.42799999999999727,
          "durationTicks": 107,
          "midi": 67,
          "name": "G4",
          "ticks": 26582,
          "time": 104.708,
          "velocity": 0.5669291338582677
        },
        {
          "duration": 1.9279999999999973,
          "durationTicks": 482,
          "midi": 62,
          "name": "D4",
          "ticks": 26689,
          "time": 105.136,
          "velocity": 0.5669291338582677
        },
        {
          "duration": 1.9279999999999973,
          "durationTicks": 482,
          "midi": 67,
          "name": "G4",
          "ticks": 26689,
          "time": 105.136,
          "velocity": 0.5669291338582677
        },
        {
          "duration": 0.2120000000000033,
          "durationTicks": 53,
          "midi": 62,
          "name": "D4",
          "ticks": 27386,
          "time": 107.92399999999999,
          "velocity": 0.5669291338582677
        },
        {
          "duration": 0.2120000000000033,
          "durationTicks": 53,
          "midi": 67,
          "name": "G4",
          "ticks": 27386,
          "time": 107.92399999999999,
          "velocity": 0.5669291338582677
        },
        {
          "duration": 0.42799999999999727,
          "durationTicks": 107,
          "midi": 62,
          "name": "D4",
          "ticks": 27439,
          "time": 108.136,
          "velocity": 0.5669291338582677
        },
        {
          "duration": 0.42799999999999727,
          "durationTicks": 107,
          "midi": 67,
          "name": "G4",
          "ticks": 27439,
          "time": 108.136,
          "velocity": 0.5669291338582677
        },
        {
          "duration": 1.931999999999988,
          "durationTicks": 483,
          "midi": 62,
          "name": "D4",
          "ticks": 27546,
          "time": 108.564,
          "velocity": 0.5669291338582677
        },
        {
          "duration": 1.931999999999988,
          "durationTicks": 483,
          "midi": 67,
          "name": "G4",
          "ticks": 27546,
          "time": 108.564,
          "velocity": 0.5669291338582677
        },
        {
          "duration": 0.2120000000000033,
          "durationTicks": 53,
          "midi": 62,
          "name": "D4",
          "ticks": 28243,
          "time": 111.35199999999999,
          "velocity": 0.5669291338582677
        },
        {
          "duration": 0.2120000000000033,
          "durationTicks": 53,
          "midi": 67,
          "name": "G4",
          "ticks": 28243,
          "time": 111.35199999999999,
          "velocity": 0.5669291338582677
        },
        {
          "duration": 0.43199999999998795,
          "durationTicks": 108,
          "midi": 62,
          "name": "D4",
          "ticks": 28296,
          "time": 111.564,
          "velocity": 0.5669291338582677
        },
        {
          "duration": 0.43199999999998795,
          "durationTicks": 108,
          "midi": 67,
          "name": "G4",
          "ticks": 28296,
          "time": 111.564,
          "velocity": 0.5669291338582677
        },
        {
          "duration": 1.9280000000000115,
          "durationTicks": 482,
          "midi": 62,
          "name": "D4",
          "ticks": 28404,
          "time": 111.99599999999998,
          "velocity": 0.5669291338582677
        },
        {
          "duration": 1.9280000000000115,
          "durationTicks": 482,
          "midi": 67,
          "name": "G4",
          "ticks": 28404,
          "time": 111.99599999999998,
          "velocity": 0.5669291338582677
        },
        {
          "duration": 0.21599999999999397,
          "durationTicks": 54,
          "midi": 60,
          "name": "C4",
          "ticks": 29100,
          "time": 114.77999999999999,
          "velocity": 0.5669291338582677
        },
        {
          "duration": 0.21599999999999397,
          "durationTicks": 54,
          "midi": 67,
          "name": "G4",
          "ticks": 29100,
          "time": 114.77999999999999,
          "velocity": 0.5669291338582677
        },
        {
          "duration": 0.4280000000000115,
          "durationTicks": 107,
          "midi": 60,
          "name": "C4",
          "ticks": 29154,
          "time": 114.99599999999998,
          "velocity": 0.5669291338582677
        },
        {
          "duration": 0.4280000000000115,
          "durationTicks": 107,
          "midi": 67,
          "name": "G4",
          "ticks": 29154,
          "time": 114.99599999999998,
          "velocity": 0.5669291338582677
        },
        {
          "duration": 1.9279999999999973,
          "durationTicks": 482,
          "midi": 60,
          "name": "C4",
          "ticks": 29261,
          "time": 115.42399999999999,
          "velocity": 0.5669291338582677
        },
        {
          "duration": 1.9279999999999973,
          "durationTicks": 482,
          "midi": 67,
          "name": "G4",
          "ticks": 29261,
          "time": 115.42399999999999,
          "velocity": 0.5669291338582677
        },
        {
          "duration": 0.21599999999999397,
          "durationTicks": 54,
          "midi": 60,
          "name": "C4",
          "ticks": 29957,
          "time": 118.208,
          "velocity": 0.5669291338582677
        },
        {
          "duration": 0.21599999999999397,
          "durationTicks": 54,
          "midi": 67,
          "name": "G4",
          "ticks": 29957,
          "time": 118.208,
          "velocity": 0.5669291338582677
        },
        {
          "duration": 0.42799999999999727,
          "durationTicks": 107,
          "midi": 60,
          "name": "C4",
          "ticks": 30011,
          "time": 118.42399999999999,
          "velocity": 0.5669291338582677
        },
        {
          "duration": 0.42799999999999727,
          "durationTicks": 107,
          "midi": 67,
          "name": "G4",
          "ticks": 30011,
          "time": 118.42399999999999,
          "velocity": 0.5669291338582677
        },
        {
          "duration": 1.9279999999999973,
          "durationTicks": 482,
          "midi": 60,
          "name": "C4",
          "ticks": 30118,
          "time": 118.85199999999999,
          "velocity": 0.5669291338582677
        },
        {
          "duration": 1.9279999999999973,
          "durationTicks": 482,
          "midi": 67,
          "name": "G4",
          "ticks": 30118,
          "time": 118.85199999999999,
          "velocity": 0.5669291338582677
        },
        {
          "duration": 0.21599999999999397,
          "durationTicks": 54,
          "midi": 62,
          "name": "D4",
          "ticks": 30814,
          "time": 121.636,
          "velocity": 0.5669291338582677
        },
        {
          "duration": 0.21599999999999397,
          "durationTicks": 54,
          "midi": 67,
          "name": "G4",
          "ticks": 30814,
          "time": 121.636,
          "velocity": 0.5669291338582677
        },
        {
          "duration": 0.42799999999999727,
          "durationTicks": 107,
          "midi": 62,
          "name": "D4",
          "ticks": 30868,
          "time": 121.85199999999999,
          "velocity": 0.5669291338582677
        },
        {
          "duration": 0.42799999999999727,
          "durationTicks": 107,
          "midi": 67,
          "name": "G4",
          "ticks": 30868,
          "time": 121.85199999999999,
          "velocity": 0.5669291338582677
        },
        {
          "duration": 1.9279999999999973,
          "durationTicks": 482,
          "midi": 62,
          "name": "D4",
          "ticks": 30975,
          "time": 122.27999999999999,
          "velocity": 0.5669291338582677
        },
        {
          "duration": 1.9279999999999973,
          "durationTicks": 482,
          "midi": 67,
          "name": "G4",
          "ticks": 30975,
          "time": 122.27999999999999,
          "velocity": 0.5669291338582677
        },
        {
          "duration": 0.21599999999999397,
          "durationTicks": 54,
          "midi": 62,
          "name": "D4",
          "ticks": 31671,
          "time": 125.064,
          "velocity": 0.5669291338582677
        },
        {
          "duration": 0.21599999999999397,
          "durationTicks": 54,
          "midi": 67,
          "name": "G4",
          "ticks": 31671,
          "time": 125.064,
          "velocity": 0.5669291338582677
        },
        {
          "duration": 0.42799999999999727,
          "durationTicks": 107,
          "midi": 62,
          "name": "D4",
          "ticks": 31725,
          "time": 125.27999999999999,
          "velocity": 0.5669291338582677
        },
        {
          "duration": 0.42799999999999727,
          "durationTicks": 107,
          "midi": 67,
          "name": "G4",
          "ticks": 31725,
          "time": 125.27999999999999,
          "velocity": 0.5669291338582677
        },
        {
          "duration": 1.9280000000000257,
          "durationTicks": 482,
          "midi": 62,
          "name": "D4",
          "ticks": 31832,
          "time": 125.70799999999998,
          "velocity": 0.5669291338582677
        },
        {
          "duration": 1.9280000000000257,
          "durationTicks": 482,
          "midi": 67,
          "name": "G4",
          "ticks": 31832,
          "time": 125.70799999999998,
          "velocity": 0.5669291338582677
        },
        {
          "duration": 0.21199999999998909,
          "durationTicks": 53,
          "midi": 60,
          "name": "C4",
          "ticks": 32529,
          "time": 128.496,
          "velocity": 0.5669291338582677
        },
        {
          "duration": 0.21199999999998909,
          "durationTicks": 53,
          "midi": 67,
          "name": "G4",
          "ticks": 32529,
          "time": 128.496,
          "velocity": 0.5669291338582677
        },
        {
          "duration": 0.4280000000000257,
          "durationTicks": 107,
          "midi": 60,
          "name": "C4",
          "ticks": 32582,
          "time": 128.708,
          "velocity": 0.5669291338582677
        },
        {
          "duration": 0.4280000000000257,
          "durationTicks": 107,
          "midi": 67,
          "name": "G4",
          "ticks": 32582,
          "time": 128.708,
          "velocity": 0.5669291338582677
        },
        {
          "duration": 1.9279999999999973,
          "durationTicks": 482,
          "midi": 60,
          "name": "C4",
          "ticks": 32689,
          "time": 129.13600000000002,
          "velocity": 0.5669291338582677
        },
        {
          "duration": 1.9279999999999973,
          "durationTicks": 482,
          "midi": 67,
          "name": "G4",
          "ticks": 32689,
          "time": 129.13600000000002,
          "velocity": 0.5669291338582677
        },
        {
          "duration": 0.2120000000000175,
          "durationTicks": 53,
          "midi": 60,
          "name": "C4",
          "ticks": 33386,
          "time": 131.924,
          "velocity": 0.5669291338582677
        },
        {
          "duration": 0.2120000000000175,
          "durationTicks": 53,
          "midi": 67,
          "name": "G4",
          "ticks": 33386,
          "time": 131.924,
          "velocity": 0.5669291338582677
        },
        {
          "duration": 0.42799999999999727,
          "durationTicks": 107,
          "midi": 60,
          "name": "C4",
          "ticks": 33439,
          "time": 132.13600000000002,
          "velocity": 0.5669291338582677
        },
        {
          "duration": 0.42799999999999727,
          "durationTicks": 107,
          "midi": 67,
          "name": "G4",
          "ticks": 33439,
          "time": 132.13600000000002,
          "velocity": 0.5669291338582677
        },
        {
          "duration": 1.931999999999988,
          "durationTicks": 483,
          "midi": 60,
          "name": "C4",
          "ticks": 33546,
          "time": 132.56400000000002,
          "velocity": 0.5669291338582677
        },
        {
          "duration": 1.931999999999988,
          "durationTicks": 483,
          "midi": 67,
          "name": "G4",
          "ticks": 33546,
          "time": 132.56400000000002,
          "velocity": 0.5669291338582677
        }
      ]
    },
    {
      "channel": 3,
      "controlChanges": {
        "0": [
          {
            "number": 0,
            "ticks": 600,
            "time": 0.78,
            "value": 0.06299212598425197
          },
          {
            "number": 0,
            "ticks": 7658,
            "time": 29.012,
            "value": 0
          }
        ],
        "1": [
          {
            "number": 1,
            "ticks": 600,
            "time": 0.78,
            "value": 0.25196850393700787
          }
        ],
        "10": [
          {
            "number": 10,
            "ticks": 600,
            "time": 0.78,
            "value": 0
          }
        ]
      },
      "pitchBends": [],
      "instrument": {
        "family": "brass",
        "number": 63,
        "name": "synthbrass 2"
      },
      "name": "",
      "notes": [
        {
          "duration": 3.428,
          "durationTicks": 857,
          "midi": 61,
          "name": "C#4",
          "ticks": 600,
          "time": 0.78,
          "velocity": 0.4409448818897638
        },
        {
          "duration": 13.716000000000001,
          "durationTicks": 3429,
          "midi": 64,
          "name": "E4",
          "ticks": 600,
          "time": 0.78,
          "velocity": 0.4409448818897638
        },
        {
          "duration": 3.427999999999999,
          "durationTicks": 857,
          "midi": 60,
          "name": "C4",
          "ticks": 1457,
          "time": 4.208,
          "velocity": 0.4409448818897638
        },
        {
          "duration": 3.428000000000001,
          "durationTicks": 857,
          "midi": 61,
          "name": "C#4",
          "ticks": 2314,
          "time": 7.635999999999999,
          "velocity": 0.4409448818897638
        },
        {
          "duration": 3.4320000000000004,
          "durationTicks": 858,
          "midi": 60,
          "name": "C4",
          "ticks": 3171,
          "time": 11.064,
          "velocity": 0.4409448818897638
        },
        {
          "duration": 13.711999999999998,
          "durationTicks": 3428,
          "midi": 59,
          "name": "B3",
          "ticks": 4029,
          "time": 14.496,
          "velocity": 0.4409448818897638
        },
        {
          "duration": 13.711999999999998,
          "durationTicks": 3428,
          "midi": 66,
          "name": "F#4",
          "ticks": 4029,
          "time": 14.496,
          "velocity": 0.4409448818897638
        }
      ]
    },
    {
      "channel": 4,
      "controlChanges": {
        "0": [
          {
            "number": 0,
            "ticks": 600,
            "time": 0.78,
            "value": 0.06299212598425197
          },
          {
            "number": 0,
            "ticks": 7658,
            "time": 29.012,
            "value": 0
          }
        ],
        "1": [
          {
            "number": 1,
            "ticks": 600,
            "time": 0.78,
            "value": 0.25196850393700787
          }
        ],
        "10": [
          {
            "number": 10,
            "ticks": 600,
            "time": 0.78,
            "value": 1
          }
        ]
      },
      "pitchBends": [
        {
          "ticks": 600,
          "time": 0.78,
          "value": 0.004150390625
        }
      ],
      "instrument": {
        "family": "brass",
        "number": 63,
        "name": "synthbrass 2"
      },
      "name": "",
      "notes": [
        {
          "duration": 3.4319999999999995,
          "durationTicks": 858,
          "midi": 61,
          "name": "C#4",
          "ticks": 613,
          "time": 0.8320000000000001,
          "velocity": 0.4409448818897638
        },
        {
          "duration": 13.716,
          "durationTicks": 3429,
          "midi": 64,
          "name": "E4",
          "ticks": 613,
          "time": 0.8320000000000001,
          "velocity": 0.4409448818897638
        },
        {
          "duration": 3.428,
          "durationTicks": 857,
          "midi": 60,
          "name": "C4",
          "ticks": 1471,
          "time": 4.263999999999999,
          "velocity": 0.4409448818897638
        },
        {
          "duration": 3.4280000000000017,
          "durationTicks": 857,
          "midi": 61,
          "name": "C#4",
          "ticks": 2328,
          "time": 7.691999999999999,
          "velocity": 0.4409448818897638
        },
        {
          "duration": 3.427999999999999,
          "durationTicks": 857,
          "midi": 60,
          "name": "C4",
          "ticks": 3185,
          "time": 11.120000000000001,
          "velocity": 0.4409448818897638
        },
        {
          "duration": 13.716,
          "durationTicks": 3429,
          "midi": 59,
          "name": "B3",
          "ticks": 4042,
          "time": 14.548,
          "velocity": 0.4409448818897638
        },
        {
          "duration": 13.716,
          "durationTicks": 3429,
          "midi": 66,
          "name": "F#4",
          "ticks": 4042,
          "time": 14.548,
          "velocity": 0.4409448818897638
        }
      ]
    },
    {
      "channel": 5,
      "controlChanges": {
        "0": [
          {
            "number": 0,
            "ticks": 9158,
            "time": 35.01199999999999,
            "value": 0
          }
        ],
        "1": [
          {
            "number": 1,
            "ticks": 600,
            "time": 0.78,
            "value": 0.31496062992125984
          }
        ],
        "32": [
          {
            "number": 32,
            "ticks": 9158,
            "time": 35.01199999999999,
            "value": 0
          }
        ]
      },
      "pitchBends": [],
      "instrument": {
        "family": "pipe",
        "number": 72,
        "name": "piccolo"
      },
      "name": "",
      "notes": [
        {
          "duration": 0.8559999999999999,
          "durationTicks": 214,
          "midi": 71,
          "name": "B4",
          "ticks": 600,
          "time": 0.78,
          "velocity": 0.7559055118110236
        },
        {
          "duration": 0.8600000000000001,
          "durationTicks": 215,
          "midi": 69,
          "name": "A4",
          "ticks": 814,
          "time": 1.636,
          "velocity": 0.7559055118110236
        },
        {
          "duration": 0.8559999999999999,
          "durationTicks": 214,
          "midi": 68,
          "name": "G#4",
          "ticks": 1029,
          "time": 2.496,
          "velocity": 0.7559055118110236
        },
        {
          "duration": 0.8560000000000003,
          "durationTicks": 214,
          "midi": 66,
          "name": "F#4",
          "ticks": 1243,
          "time": 3.352,
          "velocity": 0.7559055118110236
        },
        {
          "duration": 0.8559999999999999,
          "durationTicks": 214,
          "midi": 69,
          "name": "A4",
          "ticks": 1457,
          "time": 4.208,
          "velocity": 0.7559055118110236
        },
        {
          "duration": 0.8599999999999994,
          "durationTicks": 215,
          "midi": 68,
          "name": "G#4",
          "ticks": 1671,
          "time": 5.064,
          "velocity": 0.7559055118110236
        },
        {
          "duration": 0.8559999999999999,
          "durationTicks": 214,
          "midi": 66,
          "name": "F#4",
          "ticks": 1886,
          "time": 5.9239999999999995,
          "velocity": 0.7559055118110236
        },
        {
          "duration": 0.8559999999999999,
          "durationTicks": 214,
          "midi": 64,
          "name": "E4",
          "ticks": 2100,
          "time": 6.779999999999999,
          "velocity": 0.7559055118110236
        },
        {
          "duration": 0.8600000000000012,
          "durationTicks": 215,
          "midi": 71,
          "name": "B4",
          "ticks": 2314,
          "time": 7.635999999999999,
          "velocity": 0.7559055118110236
        },
        {
          "duration": 0.8559999999999999,
          "durationTicks": 214,
          "midi": 69,
          "name": "A4",
          "ticks": 2529,
          "time": 8.496,
          "velocity": 0.7559055118110236
        },
        {
          "duration": 0.8559999999999999,
          "durationTicks": 214,
          "midi": 68,
          "name": "G#4",
          "ticks": 2743,
          "time": 9.352,
          "velocity": 0.7559055118110236
        },
        {
          "duration": 0.8559999999999999,
          "durationTicks": 214,
          "midi": 66,
          "name": "F#4",
          "ticks": 2957,
          "time": 10.208,
          "velocity": 0.7559055118110236
        },
        {
          "duration": 0.8599999999999994,
          "durationTicks": 215,
          "midi": 69,
          "name": "A4",
          "ticks": 3171,
          "time": 11.064,
          "velocity": 0.7559055118110236
        },
        {
          "duration": 0.8560000000000016,
          "durationTicks": 214,
          "midi": 68,
          "name": "G#4",
          "ticks": 3386,
          "time": 11.924,
          "velocity": 0.7559055118110236
        },
        {
          "duration": 0.8559999999999999,
          "durationTicks": 214,
          "midi": 66,
          "name": "F#4",
          "ticks": 3600,
          "time": 12.780000000000001,
          "velocity": 0.7559055118110236
        },
        {
          "duration": 0.8599999999999994,
          "durationTicks": 215,
          "midi": 64,
          "name": "E4",
          "ticks": 3814,
          "time": 13.636000000000001,
          "velocity": 0.7559055118110236
        },
        {
          "duration": 1.711999999999998,
          "durationTicks": 428,
          "midi": 64,
          "name": "E4",
          "ticks": 4029,
          "time": 14.496,
          "velocity": 0.7559055118110236
        },
        {
          "duration": 1.716000000000001,
          "durationTicks": 429,
          "midi": 63,
          "name": "D#4",
          "ticks": 4457,
          "time": 16.208,
          "velocity": 0.7559055118110236
        },
        {
          "duration": 1.7119999999999997,
          "durationTicks": 428,
          "midi": 61,
          "name": "C#4",
          "ticks": 4886,
          "time": 17.924,
          "velocity": 0.7559055118110236
        },
        {
          "duration": 1.716000000000001,
          "durationTicks": 429,
          "midi": 63,
          "name": "D#4",
          "ticks": 5314,
          "time": 19.636,
          "velocity": 0.7559055118110236
        },
        {
          "duration": 1.7119999999999997,
          "durationTicks": 428,
          "midi": 64,
          "name": "E4",
          "ticks": 5743,
          "time": 21.352,
          "velocity": 0.7559055118110236
        },
        {
          "duration": 1.716000000000001,
          "durationTicks": 429,
          "midi": 63,
          "name": "D#4",
          "ticks": 6171,
          "time": 23.064,
          "velocity": 0.7559055118110236
        },
        {
          "duration": 1.716000000000001,
          "durationTicks": 429,
          "midi": 61,
          "name": "C#4",
          "ticks": 6600,
          "time": 24.78,
          "velocity": 0.7559055118110236
        },
        {
          "duration": 1.7119999999999962,
          "durationTicks": 428,
          "midi": 63,
          "name": "D#4",
          "ticks": 7029,
          "time": 26.496000000000002,
          "velocity": 0.7559055118110236
        }
      ]
    },
    {
      "channel": 6,
      "controlChanges": {
        "0": [
          {
            "number": 0,
            "ticks": 9319,
            "time": 35.65599999999999,
            "value": 0
          }
        ],
        "1": [
          {
            "number": 1,
            "ticks": 600,
            "time": 0.78,
            "value": 0.3779527559055118
          }
        ],
        "32": [
          {
            "number": 32,
            "ticks": 9319,
            "time": 35.65599999999999,
            "value": 0
          }
        ]
      },
      "pitchBends": [
        {
          "ticks": 600,
          "time": 0.78,
          "value": 0.004150390625
        }
      ],
      "instrument": {
        "family": "pipe",
        "number": 72,
        "name": "piccolo"
      },
      "name": "",
      "notes": [
        {
          "duration": 0.8559999999999997,
          "durationTicks": 214,
          "midi": 71,
          "name": "B4",
          "ticks": 761,
          "time": 1.4240000000000002,
          "velocity": 0.5669291338582677
        },
        {
          "duration": 0.8559999999999999,
          "durationTicks": 214,
          "midi": 69,
          "name": "A4",
          "ticks": 975,
          "time": 2.28,
          "velocity": 0.5669291338582677
        },
        {
          "duration": 0.8599999999999999,
          "durationTicks": 215,
          "midi": 68,
          "name": "G#4",
          "ticks": 1189,
          "time": 3.1359999999999997,
          "velocity": 0.5669291338582677
        },
        {
          "duration": 0.8559999999999999,
          "durationTicks": 214,
          "midi": 66,
          "name": "F#4",
          "ticks": 1404,
          "time": 3.9959999999999996,
          "velocity": 0.5669291338582677
        },
        {
          "duration": 0.8560000000000008,
          "durationTicks": 214,
          "midi": 69,
          "name": "A4",
          "ticks": 1618,
          "time": 4.851999999999999,
          "velocity": 0.5669291338582677
        },
        {
          "duration": 0.8559999999999999,
          "durationTicks": 214,
          "midi": 68,
          "name": "G#4",
          "ticks": 1832,
          "time": 5.708,
          "velocity": 0.5669291338582677
        },
        {
          "duration": 0.8599999999999994,
          "durationTicks": 215,
          "midi": 66,
          "name": "F#4",
          "ticks": 2046,
          "time": 6.564,
          "velocity": 0.5669291338582677
        },
        {
          "duration": 0.8559999999999999,
          "durationTicks": 214,
          "midi": 64,
          "name": "E4",
          "ticks": 2261,
          "time": 7.4239999999999995,
          "velocity": 0.5669291338582677
        },
        {
          "duration": 0.8560000000000016,
          "durationTicks": 214,
          "midi": 71,
          "name": "B4",
          "ticks": 2475,
          "time": 8.28,
          "velocity": 0.5669291338582677
        },
        {
          "duration": 0.8599999999999994,
          "durationTicks": 215,
          "midi": 69,
          "name": "A4",
          "ticks": 2689,
          "time": 9.136000000000001,
          "velocity": 0.5669291338582677
        },
        {
          "duration": 0.8559999999999999,
          "durationTicks": 214,
          "midi": 68,
          "name": "G#4",
          "ticks": 2904,
          "time": 9.996,
          "velocity": 0.5669291338582677
        },
        {
          "duration": 0.8559999999999999,
          "durationTicks": 214,
          "midi": 66,
          "name": "F#4",
          "ticks": 3118,
          "time": 10.852,
          "velocity": 0.5669291338582677
        },
        {
          "duration": 0.8559999999999999,
          "durationTicks": 214,
          "midi": 69,
          "name": "A4",
          "ticks": 3332,
          "time": 11.708,
          "velocity": 0.5669291338582677
        },
        {
          "duration": 0.8599999999999994,
          "durationTicks": 215,
          "midi": 68,
          "name": "G#4",
          "ticks": 3546,
          "time": 12.564,
          "velocity": 0.5669291338582677
        },
        {
          "duration": 0.8559999999999999,
          "durationTicks": 214,
          "midi": 66,
          "name": "F#4",
          "ticks": 3761,
          "time": 13.424,
          "velocity": 0.5669291338582677
        },
        {
          "duration": 0.8560000000000016,
          "durationTicks": 214,
          "midi": 64,
          "name": "E4",
          "ticks": 3975,
          "time": 14.28,
          "velocity": 0.5669291338582677
        },
        {
          "duration": 1.7159999999999993,
          "durationTicks": 429,
          "midi": 64,
          "name": "E4",
          "ticks": 4189,
          "time": 15.136000000000001,
          "velocity": 0.5669291338582677
        },
        {
          "duration": 1.7119999999999997,
          "durationTicks": 428,
          "midi": 63,
          "name": "D#4",
          "ticks": 4618,
          "time": 16.852,
          "velocity": 0.5669291338582677
        },
        {
          "duration": 1.716000000000001,
          "durationTicks": 429,
          "midi": 61,
          "name": "C#4",
          "ticks": 5046,
          "time": 18.564,
          "velocity": 0.5669291338582677
        },
        {
          "duration": 1.716000000000001,
          "durationTicks": 429,
          "midi": 63,
          "name": "D#4",
          "ticks": 5475,
          "time": 20.28,
          "velocity": 0.5669291338582677
        },
        {
          "duration": 1.7119999999999962,
          "durationTicks": 428,
          "midi": 64,
          "name": "E4",
          "ticks": 5904,
          "time": 21.996000000000002,
          "velocity": 0.5669291338582677
        },
        {
          "duration": 1.716000000000001,
          "durationTicks": 429,
          "midi": 63,
          "name": "D#4",
          "ticks": 6332,
          "time": 23.708,
          "velocity": 0.5669291338582677
        },
        {
          "duration": 1.7119999999999997,
          "durationTicks": 428,
          "midi": 61,
          "name": "C#4",
          "ticks": 6761,
          "time": 25.424,
          "velocity": 0.5669291338582677
        },
        {
          "duration": 1.0719999999999992,
          "durationTicks": 268,
          "midi": 63,
          "name": "D#4",
          "ticks": 7189,
          "time": 27.136,
          "velocity": 0.5669291338582677
        }
      ]
    },
    {
      "channel": 7,
      "controlChanges": {
        "1": [
          {
            "number": 1,
            "ticks": 600,
            "time": 0.78,
            "value": 0.06299212598425197
          }
        ],
        "11": [
          {
            "number": 11,
            "ticks": 17850,
            "time": 69.78,
            "value": 1
          },
          {
            "number": 11,
            "ticks": 17957,
            "time": 70.208,
            "value": 0.8188976377952756
          },
          {
            "number": 11,
            "ticks": 18064,
            "time": 70.636,
            "value": 0.6299212598425197
          },
          {
            "number": 11,
            "ticks": 18279,
            "time": 71.496,
            "value": 1
          },
          {
            "number": 11,
            "ticks": 18386,
            "time": 71.92399999999999,
            "value": 0.8188976377952756
          },
          {
            "number": 11,
            "ticks": 18493,
            "time": 72.35199999999999,
            "value": 0.6299212598425197
          },
          {
            "number": 11,
            "ticks": 18707,
            "time": 73.208,
            "value": 1
          },
          {
            "number": 11,
            "ticks": 18814,
            "time": 73.636,
            "value": 0.8188976377952756
          },
          {
            "number": 11,
            "ticks": 18921,
            "time": 74.064,
            "value": 0.6299212598425197
          },
          {
            "number": 11,
            "ticks": 19136,
            "time": 74.92399999999999,
            "value": 1
          },
          {
            "number": 11,
            "ticks": 19243,
            "time": 75.35199999999999,
            "value": 0.8188976377952756
          },
          {
            "number": 11,
            "ticks": 19350,
            "time": 75.78,
            "value": 0.6299212598425197
          },
          {
            "number": 11,
            "ticks": 19564,
            "time": 76.636,
            "value": 1
          },
          {
            "number": 11,
            "ticks": 19671,
            "time": 77.064,
            "value": 0.8188976377952756
          },
          {
            "number": 11,
            "ticks": 19779,
            "time": 77.496,
            "value": 0.6299212598425197
          },
          {
            "number": 11,
            "ticks": 19993,
            "time": 78.35199999999999,
            "value": 1
          },
          {
            "number": 11,
            "ticks": 20100,
            "time": 78.78,
            "value": 0.8188976377952756
          },
          {
            "number": 11,
            "ticks": 20207,
            "time": 79.208,
            "value": 0.6299212598425197
          },
          {
            "number": 11,
            "ticks": 20421,
            "time": 80.064,
            "value": 1
          },
          {
            "number": 11,
            "ticks": 20435,
            "time": 80.11999999999999,
            "value": 0.9921259842519685
          },
          {
            "number": 11,
            "ticks": 20449,
            "time": 80.17599999999999,
            "value": 0.984251968503937
          },
          {
            "number": 11,
            "ticks": 20463,
            "time": 80.232,
            "value": 0.9763779527559056
          },
          {
            "number": 11,
            "ticks": 20476,
            "time": 80.28399999999999,
            "value": 0.968503937007874
          },
          {
            "number": 11,
            "ticks": 20490,
            "time": 80.33999999999999,
            "value": 0.9606299212598425
          },
          {
            "number": 11,
            "ticks": 20504,
            "time": 80.396,
            "value": 0.952755905511811
          },
          {
            "number": 11,
            "ticks": 20517,
            "time": 80.448,
            "value": 0.9448818897637795
          },
          {
            "number": 11,
            "ticks": 20531,
            "time": 80.50399999999999,
            "value": 0.937007874015748
          },
          {
            "number": 11,
            "ticks": 20544,
            "time": 80.55599999999998,
            "value": 0.9291338582677166
          },
          {
            "number": 11,
            "ticks": 20558,
            "time": 80.612,
            "value": 0.9212598425196851
          },
          {
            "number": 11,
            "ticks": 20572,
            "time": 80.66799999999999,
            "value": 0.9133858267716536
          },
          {
            "number": 11,
            "ticks": 20585,
            "time": 80.71999999999998,
            "value": 0.905511811023622
          },
          {
            "number": 11,
            "ticks": 20599,
            "time": 80.776,
            "value": 0.8976377952755905
          },
          {
            "number": 11,
            "ticks": 20613,
            "time": 80.832,
            "value": 0.889763779527559
          },
          {
            "number": 11,
            "ticks": 20627,
            "time": 80.888,
            "value": 0.8818897637795275
          },
          {
            "number": 11,
            "ticks": 20640,
            "time": 80.94,
            "value": 0.8740157480314961
          },
          {
            "number": 11,
            "ticks": 20654,
            "time": 80.996,
            "value": 0.8661417322834646
          },
          {
            "number": 11,
            "ticks": 20668,
            "time": 81.05199999999999,
            "value": 0.8582677165354331
          },
          {
            "number": 11,
            "ticks": 20681,
            "time": 81.104,
            "value": 0.8503937007874016
          },
          {
            "number": 11,
            "ticks": 20695,
            "time": 81.16,
            "value": 0.84251968503937
          },
          {
            "number": 11,
            "ticks": 20709,
            "time": 81.216,
            "value": 0.8346456692913385
          },
          {
            "number": 11,
            "ticks": 20722,
            "time": 81.268,
            "value": 0.8267716535433071
          },
          {
            "number": 11,
            "ticks": 20736,
            "time": 81.324,
            "value": 0.8188976377952756
          },
          {
            "number": 11,
            "ticks": 20750,
            "time": 81.38,
            "value": 0.8110236220472441
          },
          {
            "number": 11,
            "ticks": 20763,
            "time": 81.432,
            "value": 0.8031496062992126
          },
          {
            "number": 11,
            "ticks": 20777,
            "time": 81.488,
            "value": 0.7952755905511811
          },
          {
            "number": 11,
            "ticks": 20791,
            "time": 81.544,
            "value": 0.7874015748031497
          },
          {
            "number": 11,
            "ticks": 20804,
            "time": 81.596,
            "value": 0.7795275590551181
          },
          {
            "number": 11,
            "ticks": 20818,
            "time": 81.65199999999999,
            "value": 0.7716535433070866
          },
          {
            "number": 11,
            "ticks": 20832,
            "time": 81.708,
            "value": 0.7637795275590551
          },
          {
            "number": 11,
            "ticks": 20846,
            "time": 81.764,
            "value": 0.7559055118110236
          },
          {
            "number": 11,
            "ticks": 20859,
            "time": 81.81599999999999,
            "value": 0.7480314960629921
          },
          {
            "number": 11,
            "ticks": 20873,
            "time": 81.87199999999999,
            "value": 0.7401574803149606
          },
          {
            "number": 11,
            "ticks": 20886,
            "time": 81.924,
            "value": 0.7322834645669292
          },
          {
            "number": 11,
            "ticks": 20900,
            "time": 81.97999999999999,
            "value": 0.7244094488188977
          },
          {
            "number": 11,
            "ticks": 20914,
            "time": 82.03599999999999,
            "value": 0.7165354330708661
          },
          {
            "number": 11,
            "ticks": 20927,
            "time": 82.088,
            "value": 0.7086614173228346
          },
          {
            "number": 11,
            "ticks": 20941,
            "time": 82.14399999999999,
            "value": 0.7007874015748031
          },
          {
            "number": 11,
            "ticks": 20955,
            "time": 82.19999999999999,
            "value": 0.6929133858267716
          },
          {
            "number": 11,
            "ticks": 20969,
            "time": 82.256,
            "value": 0.6850393700787402
          },
          {
            "number": 11,
            "ticks": 20982,
            "time": 82.30799999999999,
            "value": 0.6771653543307087
          },
          {
            "number": 11,
            "ticks": 20996,
            "time": 82.36399999999999,
            "value": 0.6692913385826772
          },
          {
            "number": 11,
            "ticks": 21010,
            "time": 82.42,
            "value": 0.6614173228346457
          },
          {
            "number": 11,
            "ticks": 21023,
            "time": 82.472,
            "value": 0.6535433070866141
          },
          {
            "number": 11,
            "ticks": 21037,
            "time": 82.52799999999999,
            "value": 0.6456692913385826
          },
          {
            "number": 11,
            "ticks": 21051,
            "time": 82.584,
            "value": 0.6377952755905512
          },
          {
            "number": 11,
            "ticks": 21064,
            "time": 82.636,
            "value": 0.6299212598425197
          },
          {
            "number": 11,
            "ticks": 21279,
            "time": 83.496,
            "value": 1
          },
          {
            "number": 11,
            "ticks": 21386,
            "time": 83.92399999999999,
            "value": 0.8188976377952756
          },
          {
            "number": 11,
            "ticks": 21493,
            "time": 84.35199999999999,
            "value": 0.6299212598425197
          },
          {
            "number": 11,
            "ticks": 21707,
            "time": 85.208,
            "value": 1
          },
          {
            "number": 11,
            "ticks": 21814,
            "time": 85.636,
            "value": 0.8188976377952756
          },
          {
            "number": 11,
            "ticks": 21921,
            "time": 86.064,
            "value": 0.6299212598425197
          },
          {
            "number": 11,
            "ticks": 22136,
            "time": 86.92399999999999,
            "value": 1
          },
          {
            "number": 11,
            "ticks": 22243,
            "time": 87.35199999999999,
            "value": 0.8188976377952756
          },
          {
            "number": 11,
            "ticks": 22350,
            "time": 87.77999999999999,
            "value": 0.6299212598425197
          },
          {
            "number": 11,
            "ticks": 22564,
            "time": 88.636,
            "value": 1
          },
          {
            "number": 11,
            "ticks": 22671,
            "time": 89.064,
            "value": 0.8188976377952756
          },
          {
            "number": 11,
            "ticks": 22779,
            "time": 89.496,
            "value": 0.6299212598425197
          },
          {
            "number": 11,
            "ticks": 22993,
            "time": 90.35199999999999,
            "value": 1
          },
          {
            "number": 11,
            "ticks": 23100,
            "time": 90.77999999999999,
            "value": 0.8188976377952756
          },
          {
            "number": 11,
            "ticks": 23207,
            "time": 91.208,
            "value": 0.6299212598425197
          },
          {
            "number": 11,
            "ticks": 23421,
            "time": 92.064,
            "value": 1
          },
          {
            "number": 11,
            "ticks": 23529,
            "time": 92.496,
            "value": 0.8188976377952756
          },
          {
            "number": 11,
            "ticks": 23636,
            "time": 92.92399999999999,
            "value": 0.6299212598425197
          },
          {
            "number": 11,
            "ticks": 23850,
            "time": 93.77999999999999,
            "value": 1
          },
          {
            "number": 11,
            "ticks": 35957,
            "time": 142.208,
            "value": 0.8188976377952756
          },
          {
            "number": 11,
            "ticks": 36064,
            "time": 142.63600000000002,
            "value": 0.6299212598425197
          },
          {
            "number": 11,
            "ticks": 36279,
            "time": 143.496,
            "value": 1
          },
          {
            "number": 11,
            "ticks": 36386,
            "time": 143.924,
            "value": 0.8188976377952756
          },
          {
            "number": 11,
            "ticks": 36493,
            "time": 144.352,
            "value": 0.6299212598425197
          },
          {
            "number": 11,
            "ticks": 36707,
            "time": 145.208,
            "value": 1
          },
          {
            "number": 11,
            "ticks": 36814,
            "time": 145.63600000000002,
            "value": 0.8188976377952756
          },
          {
            "number": 11,
            "ticks": 36921,
            "time": 146.06400000000002,
            "value": 0.6299212598425197
          },
          {
            "number": 11,
            "ticks": 37136,
            "time": 146.924,
            "value": 1
          },
          {
            "number": 11,
            "ticks": 37243,
            "time": 147.352,
            "value": 0.8188976377952756
          },
          {
            "number": 11,
            "ticks": 37350,
            "time": 147.78,
            "value": 0.6299212598425197
          },
          {
            "number": 11,
            "ticks": 37564,
            "time": 148.63600000000002,
            "value": 1
          },
          {
            "number": 11,
            "ticks": 37671,
            "time": 149.06400000000002,
            "value": 0.8188976377952756
          },
          {
            "number": 11,
            "ticks": 37779,
            "time": 149.496,
            "value": 0.6299212598425197
          },
          {
            "number": 11,
            "ticks": 37993,
            "time": 150.352,
            "value": 1
          },
          {
            "number": 11,
            "ticks": 38100,
            "time": 150.78,
            "value": 0.8188976377952756
          },
          {
            "number": 11,
            "ticks": 38207,
            "time": 151.208,
            "value": 0.6299212598425197
          },
          {
            "number": 11,
            "ticks": 38421,
            "time": 152.06400000000002,
            "value": 1
          },
          {
            "number": 11,
            "ticks": 38435,
            "time": 152.12,
            "value": 0.9921259842519685
          },
          {
            "number": 11,
            "ticks": 38449,
            "time": 152.17600000000002,
            "value": 0.984251968503937
          },
          {
            "number": 11,
            "ticks": 38463,
            "time": 152.232,
            "value": 0.9763779527559056
          },
          {
            "number": 11,
            "ticks": 38476,
            "time": 152.284,
            "value": 0.968503937007874
          },
          {
            "number": 11,
            "ticks": 38490,
            "time": 152.34,
            "value": 0.9606299212598425
          },
          {
            "number": 11,
            "ticks": 38504,
            "time": 152.39600000000002,
            "value": 0.952755905511811
          },
          {
            "number": 11,
            "ticks": 38517,
            "time": 152.448,
            "value": 0.9448818897637795
          },
          {
            "number": 11,
            "ticks": 38531,
            "time": 152.504,
            "value": 0.937007874015748
          },
          {
            "number": 11,
            "ticks": 38544,
            "time": 152.556,
            "value": 0.9291338582677166
          },
          {
            "number": 11,
            "ticks": 38558,
            "time": 152.612,
            "value": 0.9212598425196851
          },
          {
            "number": 11,
            "ticks": 38572,
            "time": 152.668,
            "value": 0.9133858267716536
          },
          {
            "number": 11,
            "ticks": 38585,
            "time": 152.72000000000003,
            "value": 0.905511811023622
          },
          {
            "number": 11,
            "ticks": 38599,
            "time": 152.776,
            "value": 0.8976377952755905
          },
          {
            "number": 11,
            "ticks": 38613,
            "time": 152.832,
            "value": 0.889763779527559
          },
          {
            "number": 11,
            "ticks": 38627,
            "time": 152.888,
            "value": 0.8818897637795275
          },
          {
            "number": 11,
            "ticks": 38640,
            "time": 152.94,
            "value": 0.8740157480314961
          },
          {
            "number": 11,
            "ticks": 38654,
            "time": 152.996,
            "value": 0.8661417322834646
          },
          {
            "number": 11,
            "ticks": 38668,
            "time": 153.05200000000002,
            "value": 0.8582677165354331
          },
          {
            "number": 11,
            "ticks": 38681,
            "time": 153.10399999999998,
            "value": 0.8503937007874016
          },
          {
            "number": 11,
            "ticks": 38695,
            "time": 153.16,
            "value": 0.84251968503937
          },
          {
            "number": 11,
            "ticks": 38709,
            "time": 153.216,
            "value": 0.8346456692913385
          },
          {
            "number": 11,
            "ticks": 38722,
            "time": 153.268,
            "value": 0.8267716535433071
          },
          {
            "number": 11,
            "ticks": 38736,
            "time": 153.324,
            "value": 0.8188976377952756
          },
          {
            "number": 11,
            "ticks": 38750,
            "time": 153.38000000000002,
            "value": 0.8110236220472441
          },
          {
            "number": 11,
            "ticks": 38763,
            "time": 153.432,
            "value": 0.8031496062992126
          },
          {
            "number": 11,
            "ticks": 38777,
            "time": 153.488,
            "value": 0.7952755905511811
          },
          {
            "number": 11,
            "ticks": 38791,
            "time": 153.544,
            "value": 0.7874015748031497
          },
          {
            "number": 11,
            "ticks": 38804,
            "time": 153.596,
            "value": 0.7795275590551181
          },
          {
            "number": 11,
            "ticks": 38818,
            "time": 153.65200000000002,
            "value": 0.7716535433070866
          },
          {
            "number": 11,
            "ticks": 38832,
            "time": 153.70800000000003,
            "value": 0.7637795275590551
          },
          {
            "number": 11,
            "ticks": 38846,
            "time": 153.76399999999998,
            "value": 0.7559055118110236
          },
          {
            "number": 11,
            "ticks": 38859,
            "time": 153.816,
            "value": 0.7480314960629921
          },
          {
            "number": 11,
            "ticks": 38873,
            "time": 153.872,
            "value": 0.7401574803149606
          },
          {
            "number": 11,
            "ticks": 38886,
            "time": 153.924,
            "value": 0.7322834645669292
          },
          {
            "number": 11,
            "ticks": 38900,
            "time": 153.98000000000002,
            "value": 0.7244094488188977
          },
          {
            "number": 11,
            "ticks": 38914,
            "time": 154.03600000000003,
            "value": 0.7165354330708661
          },
          {
            "number": 11,
            "ticks": 38927,
            "time": 154.088,
            "value": 0.7086614173228346
          },
          {
            "number": 11,
            "ticks": 38941,
            "time": 154.144,
            "value": 0.7007874015748031
          },
          {
            "number": 11,
            "ticks": 38955,
            "time": 154.20000000000002,
            "value": 0.6929133858267716
          },
          {
            "number": 11,
            "ticks": 38969,
            "time": 154.256,
            "value": 0.6850393700787402
          },
          {
            "number": 11,
            "ticks": 38982,
            "time": 154.30800000000002,
            "value": 0.6771653543307087
          },
          {
            "number": 11,
            "ticks": 38996,
            "time": 154.364,
            "value": 0.6692913385826772
          },
          {
            "number": 11,
            "ticks": 39010,
            "time": 154.42,
            "value": 0.6614173228346457
          },
          {
            "number": 11,
            "ticks": 39023,
            "time": 154.472,
            "value": 0.6535433070866141
          },
          {
            "number": 11,
            "ticks": 39037,
            "time": 154.52800000000002,
            "value": 0.6456692913385826
          },
          {
            "number": 11,
            "ticks": 39051,
            "time": 154.584,
            "value": 0.6377952755905512
          },
          {
            "number": 11,
            "ticks": 39064,
            "time": 154.63600000000002,
            "value": 0.6299212598425197
          },
          {
            "number": 11,
            "ticks": 39279,
            "time": 155.496,
            "value": 1
          },
          {
            "number": 11,
            "ticks": 39386,
            "time": 155.924,
            "value": 0.8188976377952756
          },
          {
            "number": 11,
            "ticks": 39493,
            "time": 156.352,
            "value": 0.6299212598425197
          },
          {
            "number": 11,
            "ticks": 39707,
            "time": 157.208,
            "value": 1
          },
          {
            "number": 11,
            "ticks": 39814,
            "time": 157.63600000000002,
            "value": 0.8188976377952756
          },
          {
            "number": 11,
            "ticks": 39921,
            "time": 158.06400000000002,
            "value": 0.6299212598425197
          },
          {
            "number": 11,
            "ticks": 40136,
            "time": 158.924,
            "value": 1
          },
          {
            "number": 11,
            "ticks": 40243,
            "time": 159.352,
            "value": 0.8188976377952756
          },
          {
            "number": 11,
            "ticks": 40350,
            "time": 159.78,
            "value": 0.6299212598425197
          },
          {
            "number": 11,
            "ticks": 40564,
            "time": 160.63600000000002,
            "value": 1
          },
          {
            "number": 11,
            "ticks": 40671,
            "time": 161.06400000000002,
            "value": 0.8188976377952756
          },
          {
            "number": 11,
            "ticks": 40779,
            "time": 161.496,
            "value": 0.6299212598425197
          },
          {
            "number": 11,
            "ticks": 40993,
            "time": 162.352,
            "value": 1
          },
          {
            "number": 11,
            "ticks": 41100,
            "time": 162.78,
            "value": 0.8188976377952756
          },
          {
            "number": 11,
            "ticks": 41207,
            "time": 163.208,
            "value": 0.6299212598425197
          },
          {
            "number": 11,
            "ticks": 41421,
            "time": 164.06400000000002,
            "value": 1
          },
          {
            "number": 11,
            "ticks": 41529,
            "time": 164.496,
            "value": 0.8188976377952756
          },
          {
            "number": 11,
            "ticks": 41636,
            "time": 164.924,
            "value": 0.6299212598425197
          },
          {
            "number": 11,
            "ticks": 41850,
            "time": 165.78,
            "value": 1
          }
        ],
        "120": [
          {
            "number": 120,
            "ticks": 43457,
            "time": 172.208,
            "value": 0
          }
        ]
      },
      "pitchBends": [],
      "instrument": {
        "family": "chromatic percussion",
        "number": 10,
        "name": "music box"
      },
      "name": "",
      "notes": [
        {
          "duration": 0.21599999999999397,
          "durationTicks": 54,
          "midi": 72,
          "name": "C5",
          "ticks": 17850,
          "time": 69.78,
          "velocity": 0.5039370078740157
        },
        {
          "duration": 0.2120000000000033,
          "durationTicks": 53,
          "midi": 74,
          "name": "D5",
          "ticks": 17904,
          "time": 69.996,
          "velocity": 0.5039370078740157
        },
        {
          "duration": 0.21599999999999397,
          "durationTicks": 54,
          "midi": 72,
          "name": "C5",
          "ticks": 17957,
          "time": 70.208,
          "velocity": 0.5039370078740157
        },
        {
          "duration": 0.2120000000000033,
          "durationTicks": 53,
          "midi": 74,
          "name": "D5",
          "ticks": 18011,
          "time": 70.42399999999999,
          "velocity": 0.5039370078740157
        },
        {
          "duration": 0.21599999999999397,
          "durationTicks": 54,
          "midi": 72,
          "name": "C5",
          "ticks": 18064,
          "time": 70.636,
          "velocity": 0.5039370078740157
        },
        {
          "duration": 0.2120000000000033,
          "durationTicks": 53,
          "midi": 74,
          "name": "D5",
          "ticks": 18118,
          "time": 70.85199999999999,
          "velocity": 0.5039370078740157
        },
        {
          "duration": 0.2120000000000033,
          "durationTicks": 53,
          "midi": 72,
          "name": "C5",
          "ticks": 18279,
          "time": 71.496,
          "velocity": 0.5039370078740157
        },
        {
          "duration": 0.21599999999999397,
          "durationTicks": 54,
          "midi": 74,
          "name": "D5",
          "ticks": 18332,
          "time": 71.708,
          "velocity": 0.5039370078740157
        },
        {
          "duration": 0.2120000000000033,
          "durationTicks": 53,
          "midi": 72,
          "name": "C5",
          "ticks": 18386,
          "time": 71.92399999999999,
          "velocity": 0.5039370078740157
        },
        {
          "duration": 0.21599999999999397,
          "durationTicks": 54,
          "midi": 74,
          "name": "D5",
          "ticks": 18439,
          "time": 72.136,
          "velocity": 0.5039370078740157
        },
        {
          "duration": 0.2120000000000033,
          "durationTicks": 53,
          "midi": 72,
          "name": "C5",
          "ticks": 18493,
          "time": 72.35199999999999,
          "velocity": 0.5039370078740157
        },
        {
          "duration": 0.21600000000000819,
          "durationTicks": 54,
          "midi": 74,
          "name": "D5",
          "ticks": 18546,
          "time": 72.564,
          "velocity": 0.5039370078740157
        },
        {
          "duration": 0.21599999999999397,
          "durationTicks": 54,
          "midi": 72,
          "name": "C5",
          "ticks": 18707,
          "time": 73.208,
          "velocity": 0.5039370078740157
        },
        {
          "duration": 0.2120000000000033,
          "durationTicks": 53,
          "midi": 74,
          "name": "D5",
          "ticks": 18761,
          "time": 73.42399999999999,
          "velocity": 0.5039370078740157
        },
        {
          "duration": 0.21599999999999397,
          "durationTicks": 54,
          "midi": 72,
          "name": "C5",
          "ticks": 18814,
          "time": 73.636,
          "velocity": 0.5039370078740157
        },
        {
          "duration": 0.2120000000000033,
          "durationTicks": 53,
          "midi": 74,
          "name": "D5",
          "ticks": 18868,
          "time": 73.85199999999999,
          "velocity": 0.5039370078740157
        },
        {
          "duration": 0.21600000000000819,
          "durationTicks": 54,
          "midi": 72,
          "name": "C5",
          "ticks": 18921,
          "time": 74.064,
          "velocity": 0.5039370078740157
        },
        {
          "duration": 0.21599999999999397,
          "durationTicks": 54,
          "midi": 74,
          "name": "D5",
          "ticks": 18975,
          "time": 74.28,
          "velocity": 0.5039370078740157
        },
        {
          "duration": 0.2120000000000033,
          "durationTicks": 53,
          "midi": 72,
          "name": "C5",
          "ticks": 19136,
          "time": 74.92399999999999,
          "velocity": 0.5039370078740157
        },
        {
          "duration": 0.21599999999999397,
          "durationTicks": 54,
          "midi": 74,
          "name": "D5",
          "ticks": 19189,
          "time": 75.136,
          "velocity": 0.5039370078740157
        },
        {
          "duration": 0.2120000000000033,
          "durationTicks": 53,
          "midi": 72,
          "name": "C5",
          "ticks": 19243,
          "time": 75.35199999999999,
          "velocity": 0.5039370078740157
        },
        {
          "duration": 0.21600000000000819,
          "durationTicks": 54,
          "midi": 74,
          "name": "D5",
          "ticks": 19296,
          "time": 75.564,
          "velocity": 0.5039370078740157
        },
        {
          "duration": 0.21599999999999397,
          "durationTicks": 54,
          "midi": 72,
          "name": "C5",
          "ticks": 19350,
          "time": 75.78,
          "velocity": 0.5039370078740157
        },
        {
          "duration": 0.2120000000000033,
          "durationTicks": 53,
          "midi": 74,
          "name": "D5",
          "ticks": 19404,
          "time": 75.996,
          "velocity": 0.5039370078740157
        },
        {
          "duration": 0.21599999999999397,
          "durationTicks": 54,
          "midi": 71,
          "name": "B4",
          "ticks": 19564,
          "time": 76.636,
          "velocity": 0.5039370078740157
        },
        {
          "duration": 0.2120000000000033,
          "durationTicks": 53,
          "midi": 72,
          "name": "C5",
          "ticks": 19618,
          "time": 76.85199999999999,
          "velocity": 0.5039370078740157
        },
        {
          "duration": 0.21600000000000819,
          "durationTicks": 54,
          "midi": 71,
          "name": "B4",
          "ticks": 19671,
          "time": 77.064,
          "velocity": 0.5039370078740157
        },
        {
          "duration": 0.21599999999999397,
          "durationTicks": 54,
          "midi": 72,
          "name": "C5",
          "ticks": 19725,
          "time": 77.28,
          "velocity": 0.5039370078740157
        },
        {
          "duration": 0.2120000000000033,
          "durationTicks": 53,
          "midi": 71,
          "name": "B4",
          "ticks": 19779,
          "time": 77.496,
          "velocity": 0.5039370078740157
        },
        {
          "duration": 0.21599999999999397,
          "durationTicks": 54,
          "midi": 72,
          "name": "C5",
          "ticks": 19832,
          "time": 77.708,
          "velocity": 0.5039370078740157
        },
        {
          "duration": 0.2120000000000033,
          "durationTicks": 53,
          "midi": 71,
          "name": "B4",
          "ticks": 19993,
          "time": 78.35199999999999,
          "velocity": 0.5039370078740157
        },
        {
          "duration": 0.21600000000000819,
          "durationTicks": 54,
          "midi": 72,
          "name": "C5",
          "ticks": 20046,
          "time": 78.564,
          "velocity": 0.5039370078740157
        },
        {
          "duration": 0.21599999999999397,
          "durationTicks": 54,
          "midi": 71,
          "name": "B4",
          "ticks": 20100,
          "time": 78.78,
          "velocity": 0.5039370078740157
        },
        {
          "duration": 0.2120000000000033,
          "durationTicks": 53,
          "midi": 72,
          "name": "C5",
          "ticks": 20154,
          "time": 78.996,
          "velocity": 0.5039370078740157
        },
        {
          "duration": 0.21599999999999397,
          "durationTicks": 54,
          "midi": 71,
          "name": "B4",
          "ticks": 20207,
          "time": 79.208,
          "velocity": 0.5039370078740157
        },
        {
          "duration": 0.2120000000000033,
          "durationTicks": 53,
          "midi": 72,
          "name": "C5",
          "ticks": 20261,
          "time": 79.42399999999999,
          "velocity": 0.5039370078740157
        },
        {
          "duration": 0.21600000000000819,
          "durationTicks": 54,
          "midi": 95,
          "name": "B6",
          "ticks": 20421,
          "time": 80.064,
          "velocity": 0.8818897637795275
        },
        {
          "duration": 0.21599999999999397,
          "durationTicks": 54,
          "midi": 95,
          "name": "B6",
          "ticks": 20475,
          "time": 80.28,
          "velocity": 0.8818897637795275
        },
        {
          "duration": 0.2120000000000033,
          "durationTicks": 53,
          "midi": 91,
          "name": "G6",
          "ticks": 20529,
          "time": 80.496,
          "velocity": 0.8818897637795275
        },
        {
          "duration": 0.21599999999999397,
          "durationTicks": 54,
          "midi": 91,
          "name": "G6",
          "ticks": 20582,
          "time": 80.708,
          "velocity": 0.8818897637795275
        },
        {
          "duration": 0.2120000000000033,
          "durationTicks": 53,
          "midi": 88,
          "name": "E6",
          "ticks": 20636,
          "time": 80.92399999999999,
          "velocity": 0.8818897637795275
        },
        {
          "duration": 0.21599999999999397,
          "durationTicks": 54,
          "midi": 88,
          "name": "E6",
          "ticks": 20689,
          "time": 81.136,
          "velocity": 0.8818897637795275
        },
        {
          "duration": 0.2120000000000033,
          "durationTicks": 53,
          "midi": 91,
          "name": "G6",
          "ticks": 20743,
          "time": 81.35199999999999,
          "velocity": 0.8818897637795275
        },
        {
          "duration": 0.21600000000000819,
          "durationTicks": 54,
          "midi": 91,
          "name": "G6",
          "ticks": 20796,
          "time": 81.564,
          "velocity": 0.8818897637795275
        },
        {
          "duration": 0.21599999999999397,
          "durationTicks": 54,
          "midi": 88,
          "name": "E6",
          "ticks": 20850,
          "time": 81.78,
          "velocity": 0.8818897637795275
        },
        {
          "duration": 0.2120000000000033,
          "durationTicks": 53,
          "midi": 88,
          "name": "E6",
          "ticks": 20904,
          "time": 81.996,
          "velocity": 0.8818897637795275
        },
        {
          "duration": 0.21599999999999397,
          "durationTicks": 54,
          "midi": 83,
          "name": "B5",
          "ticks": 20957,
          "time": 82.208,
          "velocity": 0.8818897637795275
        },
        {
          "duration": 0.2120000000000033,
          "durationTicks": 53,
          "midi": 83,
          "name": "B5",
          "ticks": 21011,
          "time": 82.42399999999999,
          "velocity": 0.8818897637795275
        },
        {
          "duration": 0.21599999999999397,
          "durationTicks": 54,
          "midi": 79,
          "name": "G5",
          "ticks": 21064,
          "time": 82.636,
          "velocity": 0.8818897637795275
        },
        {
          "duration": 0.2120000000000033,
          "durationTicks": 53,
          "midi": 79,
          "name": "G5",
          "ticks": 21118,
          "time": 82.85199999999999,
          "velocity": 0.8818897637795275
        },
        {
          "duration": 0.2120000000000033,
          "durationTicks": 53,
          "midi": 72,
          "name": "C5",
          "ticks": 21279,
          "time": 83.496,
          "velocity": 0.5039370078740157
        },
        {
          "duration": 0.21599999999999397,
          "durationTicks": 54,
          "midi": 74,
          "name": "D5",
          "ticks": 21332,
          "time": 83.708,
          "velocity": 0.5039370078740157
        },
        {
          "duration": 0.2120000000000033,
          "durationTicks": 53,
          "midi": 72,
          "name": "C5",
          "ticks": 21386,
          "time": 83.92399999999999,
          "velocity": 0.5039370078740157
        },
        {
          "duration": 0.21599999999999397,
          "durationTicks": 54,
          "midi": 74,
          "name": "D5",
          "ticks": 21439,
          "time": 84.136,
          "velocity": 0.5039370078740157
        },
        {
          "duration": 0.2120000000000033,
          "durationTicks": 53,
          "midi": 72,
          "name": "C5",
          "ticks": 21493,
          "time": 84.35199999999999,
          "velocity": 0.5039370078740157
        },
        {
          "duration": 0.21599999999999397,
          "durationTicks": 54,
          "midi": 74,
          "name": "D5",
          "ticks": 21546,
          "time": 84.564,
          "velocity": 0.5039370078740157
        },
        {
          "duration": 0.21599999999999397,
          "durationTicks": 54,
          "midi": 72,
          "name": "C5",
          "ticks": 21707,
          "time": 85.208,
          "velocity": 0.5039370078740157
        },
        {
          "duration": 0.2120000000000033,
          "durationTicks": 53,
          "midi": 74,
          "name": "D5",
          "ticks": 21761,
          "time": 85.42399999999999,
          "velocity": 0.5039370078740157
        },
        {
          "duration": 0.21599999999999397,
          "durationTicks": 54,
          "midi": 72,
          "name": "C5",
          "ticks": 21814,
          "time": 85.636,
          "velocity": 0.5039370078740157
        },
        {
          "duration": 0.2120000000000033,
          "durationTicks": 53,
          "midi": 74,
          "name": "D5",
          "ticks": 21868,
          "time": 85.85199999999999,
          "velocity": 0.5039370078740157
        },
        {
          "duration": 0.21599999999999397,
          "durationTicks": 54,
          "midi": 72,
          "name": "C5",
          "ticks": 21921,
          "time": 86.064,
          "velocity": 0.5039370078740157
        },
        {
          "duration": 0.21600000000000819,
          "durationTicks": 54,
          "midi": 74,
          "name": "D5",
          "ticks": 21975,
          "time": 86.27999999999999,
          "velocity": 0.5039370078740157
        },
        {
          "duration": 0.2120000000000033,
          "durationTicks": 53,
          "midi": 72,
          "name": "C5",
          "ticks": 22136,
          "time": 86.92399999999999,
          "velocity": 0.5039370078740157
        },
        {
          "duration": 0.21599999999999397,
          "durationTicks": 54,
          "midi": 74,
          "name": "D5",
          "ticks": 22189,
          "time": 87.136,
          "velocity": 0.5039370078740157
        },
        {
          "duration": 0.2120000000000033,
          "durationTicks": 53,
          "midi": 72,
          "name": "C5",
          "ticks": 22243,
          "time": 87.35199999999999,
          "velocity": 0.5039370078740157
        },
        {
          "duration": 0.21599999999999397,
          "durationTicks": 54,
          "midi": 74,
          "name": "D5",
          "ticks": 22296,
          "time": 87.564,
          "velocity": 0.5039370078740157
        },
        {
          "duration": 0.21600000000000819,
          "durationTicks": 54,
          "midi": 72,
          "name": "C5",
          "ticks": 22350,
          "time": 87.77999999999999,
          "velocity": 0.5039370078740157
        },
        {
          "duration": 0.2120000000000033,
          "durationTicks": 53,
          "midi": 74,
          "name": "D5",
          "ticks": 22404,
          "time": 87.996,
          "velocity": 0.5039370078740157
        },
        {
          "duration": 0.21599999999999397,
          "durationTicks": 54,
          "midi": 72,
          "name": "C5",
          "ticks": 22564,
          "time": 88.636,
          "velocity": 0.5039370078740157
        },
        {
          "duration": 0.2120000000000033,
          "durationTicks": 53,
          "midi": 74,
          "name": "D5",
          "ticks": 22618,
          "time": 88.85199999999999,
          "velocity": 0.5039370078740157
        },
        {
          "duration": 0.21599999999999397,
          "durationTicks": 54,
          "midi": 72,
          "name": "C5",
          "ticks": 22671,
          "time": 89.064,
          "velocity": 0.5039370078740157
        },
        {
          "duration": 0.21600000000000819,
          "durationTicks": 54,
          "midi": 74,
          "name": "D5",
          "ticks": 22725,
          "time": 89.27999999999999,
          "velocity": 0.5039370078740157
        },
        {
          "duration": 0.2120000000000033,
          "durationTicks": 53,
          "midi": 72,
          "name": "C5",
          "ticks": 22779,
          "time": 89.496,
          "velocity": 0.5039370078740157
        },
        {
          "duration": 0.21599999999999397,
          "durationTicks": 54,
          "midi": 74,
          "name": "D5",
          "ticks": 22832,
          "time": 89.708,
          "velocity": 0.5039370078740157
        },
        {
          "duration": 0.2120000000000033,
          "durationTicks": 53,
          "midi": 71,
          "name": "B4",
          "ticks": 22993,
          "time": 90.35199999999999,
          "velocity": 0.5039370078740157
        },
        {
          "duration": 0.21599999999999397,
          "durationTicks": 54,
          "midi": 72,
          "name": "C5",
          "ticks": 23046,
          "time": 90.564,
          "velocity": 0.5039370078740157
        },
        {
          "duration": 0.21600000000000819,
          "durationTicks": 54,
          "midi": 71,
          "name": "B4",
          "ticks": 23100,
          "time": 90.77999999999999,
          "velocity": 0.5039370078740157
        },
        {
          "duration": 0.2120000000000033,
          "durationTicks": 53,
          "midi": 72,
          "name": "C5",
          "ticks": 23154,
          "time": 90.996,
          "velocity": 0.5039370078740157
        },
        {
          "duration": 0.21599999999999397,
          "durationTicks": 54,
          "midi": 71,
          "name": "B4",
          "ticks": 23207,
          "time": 91.208,
          "velocity": 0.5039370078740157
        },
        {
          "duration": 0.2120000000000033,
          "durationTicks": 53,
          "midi": 72,
          "name": "C5",
          "ticks": 23261,
          "time": 91.42399999999999,
          "velocity": 0.5039370078740157
        },
        {
          "duration": 0.21599999999999397,
          "durationTicks": 54,
          "midi": 71,
          "name": "B4",
          "ticks": 23421,
          "time": 92.064,
          "velocity": 0.5039370078740157
        },
        {
          "duration": 0.21600000000000819,
          "durationTicks": 54,
          "midi": 72,
          "name": "C5",
          "ticks": 23475,
          "time": 92.27999999999999,
          "velocity": 0.5039370078740157
        },
        {
          "duration": 0.2120000000000033,
          "durationTicks": 53,
          "midi": 71,
          "name": "B4",
          "ticks": 23529,
          "time": 92.496,
          "velocity": 0.5039370078740157
        },
        {
          "duration": 0.21599999999999397,
          "durationTicks": 54,
          "midi": 72,
          "name": "C5",
          "ticks": 23582,
          "time": 92.708,
          "velocity": 0.5039370078740157
        },
        {
          "duration": 0.2120000000000033,
          "durationTicks": 53,
          "midi": 71,
          "name": "B4",
          "ticks": 23636,
          "time": 92.92399999999999,
          "velocity": 0.5039370078740157
        },
        {
          "duration": 0.21599999999999397,
          "durationTicks": 54,
          "midi": 72,
          "name": "C5",
          "ticks": 23689,
          "time": 93.136,
          "velocity": 0.5039370078740157
        },
        {
          "duration": 0.21600000000000819,
          "durationTicks": 54,
          "midi": 72,
          "name": "C5",
          "ticks": 35850,
          "time": 141.78,
          "velocity": 0.5039370078740157
        },
        {
          "duration": 0.21199999999998909,
          "durationTicks": 53,
          "midi": 74,
          "name": "D5",
          "ticks": 35904,
          "time": 141.996,
          "velocity": 0.5039370078740157
        },
        {
          "duration": 0.21600000000000819,
          "durationTicks": 54,
          "midi": 72,
          "name": "C5",
          "ticks": 35957,
          "time": 142.208,
          "velocity": 0.5039370078740157
        },
        {
          "duration": 0.2120000000000175,
          "durationTicks": 53,
          "midi": 74,
          "name": "D5",
          "ticks": 36011,
          "time": 142.424,
          "velocity": 0.5039370078740157
        },
        {
          "duration": 0.21599999999997976,
          "durationTicks": 54,
          "midi": 72,
          "name": "C5",
          "ticks": 36064,
          "time": 142.63600000000002,
          "velocity": 0.5039370078740157
        },
        {
          "duration": 0.2120000000000175,
          "durationTicks": 53,
          "midi": 74,
          "name": "D5",
          "ticks": 36118,
          "time": 142.852,
          "velocity": 0.5039370078740157
        },
        {
          "duration": 0.21199999999998909,
          "durationTicks": 53,
          "midi": 72,
          "name": "C5",
          "ticks": 36279,
          "time": 143.496,
          "velocity": 0.5039370078740157
        },
        {
          "duration": 0.21600000000000819,
          "durationTicks": 54,
          "midi": 74,
          "name": "D5",
          "ticks": 36332,
          "time": 143.708,
          "velocity": 0.5039370078740157
        },
        {
          "duration": 0.2120000000000175,
          "durationTicks": 53,
          "midi": 72,
          "name": "C5",
          "ticks": 36386,
          "time": 143.924,
          "velocity": 0.5039370078740157
        },
        {
          "duration": 0.21599999999997976,
          "durationTicks": 54,
          "midi": 74,
          "name": "D5",
          "ticks": 36439,
          "time": 144.13600000000002,
          "velocity": 0.5039370078740157
        },
        {
          "duration": 0.2120000000000175,
          "durationTicks": 53,
          "midi": 72,
          "name": "C5",
          "ticks": 36493,
          "time": 144.352,
          "velocity": 0.5039370078740157
        },
        {
          "duration": 0.21599999999997976,
          "durationTicks": 54,
          "midi": 74,
          "name": "D5",
          "ticks": 36546,
          "time": 144.56400000000002,
          "velocity": 0.5039370078740157
        },
        {
          "duration": 0.21600000000000819,
          "durationTicks": 54,
          "midi": 72,
          "name": "C5",
          "ticks": 36707,
          "time": 145.208,
          "velocity": 0.5039370078740157
        },
        {
          "duration": 0.2120000000000175,
          "durationTicks": 53,
          "midi": 74,
          "name": "D5",
          "ticks": 36761,
          "time": 145.424,
          "velocity": 0.5039370078740157
        },
        {
          "duration": 0.21599999999997976,
          "durationTicks": 54,
          "midi": 72,
          "name": "C5",
          "ticks": 36814,
          "time": 145.63600000000002,
          "velocity": 0.5039370078740157
        },
        {
          "duration": 0.2120000000000175,
          "durationTicks": 53,
          "midi": 74,
          "name": "D5",
          "ticks": 36868,
          "time": 145.852,
          "velocity": 0.5039370078740157
        },
        {
          "duration": 0.21599999999997976,
          "durationTicks": 54,
          "midi": 72,
          "name": "C5",
          "ticks": 36921,
          "time": 146.06400000000002,
          "velocity": 0.5039370078740157
        },
        {
          "duration": 0.21600000000000819,
          "durationTicks": 54,
          "midi": 74,
          "name": "D5",
          "ticks": 36975,
          "time": 146.28,
          "velocity": 0.5039370078740157
        },
        {
          "duration": 0.2120000000000175,
          "durationTicks": 53,
          "midi": 72,
          "name": "C5",
          "ticks": 37136,
          "time": 146.924,
          "velocity": 0.5039370078740157
        },
        {
          "duration": 0.21599999999997976,
          "durationTicks": 54,
          "midi": 74,
          "name": "D5",
          "ticks": 37189,
          "time": 147.13600000000002,
          "velocity": 0.5039370078740157
        },
        {
          "duration": 0.2120000000000175,
          "durationTicks": 53,
          "midi": 72,
          "name": "C5",
          "ticks": 37243,
          "time": 147.352,
          "velocity": 0.5039370078740157
        },
        {
          "duration": 0.21599999999997976,
          "durationTicks": 54,
          "midi": 74,
          "name": "D5",
          "ticks": 37296,
          "time": 147.56400000000002,
          "velocity": 0.5039370078740157
        },
        {
          "duration": 0.21600000000000819,
          "durationTicks": 54,
          "midi": 72,
          "name": "C5",
          "ticks": 37350,
          "time": 147.78,
          "velocity": 0.5039370078740157
        },
        {
          "duration": 0.21199999999998909,
          "durationTicks": 53,
          "midi": 74,
          "name": "D5",
          "ticks": 37404,
          "time": 147.996,
          "velocity": 0.5039370078740157
        },
        {
          "duration": 0.21599999999997976,
          "durationTicks": 54,
          "midi": 71,
          "name": "B4",
          "ticks": 37564,
          "time": 148.63600000000002,
          "velocity": 0.5039370078740157
        },
        {
          "duration": 0.2120000000000175,
          "durationTicks": 53,
          "midi": 72,
          "name": "C5",
          "ticks": 37618,
          "time": 148.852,
          "velocity": 0.5039370078740157
        },
        {
          "duration": 0.21599999999997976,
          "durationTicks": 54,
          "midi": 71,
          "name": "B4",
          "ticks": 37671,
          "time": 149.06400000000002,
          "velocity": 0.5039370078740157
        },
        {
          "duration": 0.21600000000000819,
          "durationTicks": 54,
          "midi": 72,
          "name": "C5",
          "ticks": 37725,
          "time": 149.28,
          "velocity": 0.5039370078740157
        },
        {
          "duration": 0.21199999999998909,
          "durationTicks": 53,
          "midi": 71,
          "name": "B4",
          "ticks": 37779,
          "time": 149.496,
          "velocity": 0.5039370078740157
        },
        {
          "duration": 0.21600000000000819,
          "durationTicks": 54,
          "midi": 72,
          "name": "C5",
          "ticks": 37832,
          "time": 149.708,
          "velocity": 0.5039370078740157
        },
        {
          "duration": 0.2120000000000175,
          "durationTicks": 53,
          "midi": 71,
          "name": "B4",
          "ticks": 37993,
          "time": 150.352,
          "velocity": 0.5039370078740157
        },
        {
          "duration": 0.21599999999997976,
          "durationTicks": 54,
          "midi": 72,
          "name": "C5",
          "ticks": 38046,
          "time": 150.56400000000002,
          "velocity": 0.5039370078740157
        },
        {
          "duration": 0.21600000000000819,
          "durationTicks": 54,
          "midi": 71,
          "name": "B4",
          "ticks": 38100,
          "time": 150.78,
          "velocity": 0.5039370078740157
        },
        {
          "duration": 0.21199999999998909,
          "durationTicks": 53,
          "midi": 72,
          "name": "C5",
          "ticks": 38154,
          "time": 150.996,
          "velocity": 0.5039370078740157
        },
        {
          "duration": 0.21600000000000819,
          "durationTicks": 54,
          "midi": 71,
          "name": "B4",
          "ticks": 38207,
          "time": 151.208,
          "velocity": 0.5039370078740157
        },
        {
          "duration": 0.2120000000000175,
          "durationTicks": 53,
          "midi": 72,
          "name": "C5",
          "ticks": 38261,
          "time": 151.424,
          "velocity": 0.5039370078740157
        },
        {
          "duration": 0.21599999999997976,
          "durationTicks": 54,
          "midi": 95,
          "name": "B6",
          "ticks": 38421,
          "time": 152.06400000000002,
          "velocity": 0.8818897637795275
        },
        {
          "duration": 0.21600000000000819,
          "durationTicks": 54,
          "midi": 95,
          "name": "B6",
          "ticks": 38475,
          "time": 152.28,
          "velocity": 0.8818897637795275
        },
        {
          "duration": 0.21199999999998909,
          "durationTicks": 53,
          "midi": 91,
          "name": "G6",
          "ticks": 38529,
          "time": 152.496,
          "velocity": 0.8818897637795275
        },
        {
          "duration": 0.21600000000000819,
          "durationTicks": 54,
          "midi": 91,
          "name": "G6",
          "ticks": 38582,
          "time": 152.708,
          "velocity": 0.8818897637795275
        },
        {
          "duration": 0.2120000000000175,
          "durationTicks": 53,
          "midi": 88,
          "name": "E6",
          "ticks": 38636,
          "time": 152.924,
          "velocity": 0.8818897637795275
        },
        {
          "duration": 0.21599999999997976,
          "durationTicks": 54,
          "midi": 88,
          "name": "E6",
          "ticks": 38689,
          "time": 153.13600000000002,
          "velocity": 0.8818897637795275
        },
        {
          "duration": 0.2120000000000175,
          "durationTicks": 53,
          "midi": 91,
          "name": "G6",
          "ticks": 38743,
          "time": 153.352,
          "velocity": 0.8818897637795275
        },
        {
          "duration": 0.21599999999997976,
          "durationTicks": 54,
          "midi": 91,
          "name": "G6",
          "ticks": 38796,
          "time": 153.56400000000002,
          "velocity": 0.8818897637795275
        },
        {
          "duration": 0.21600000000000819,
          "durationTicks": 54,
          "midi": 88,
          "name": "E6",
          "ticks": 38850,
          "time": 153.78,
          "velocity": 0.8818897637795275
        },
        {
          "duration": 0.21199999999998909,
          "durationTicks": 53,
          "midi": 88,
          "name": "E6",
          "ticks": 38904,
          "time": 153.996,
          "velocity": 0.8818897637795275
        },
        {
          "duration": 0.21600000000000819,
          "durationTicks": 54,
          "midi": 83,
          "name": "B5",
          "ticks": 38957,
          "time": 154.208,
          "velocity": 0.8818897637795275
        },
        {
          "duration": 0.2120000000000175,
          "durationTicks": 53,
          "midi": 83,
          "name": "B5",
          "ticks": 39011,
          "time": 154.424,
          "velocity": 0.8818897637795275
        },
        {
          "duration": 0.21599999999997976,
          "durationTicks": 54,
          "midi": 79,
          "name": "G5",
          "ticks": 39064,
          "time": 154.63600000000002,
          "velocity": 0.8818897637795275
        },
        {
          "duration": 0.2120000000000175,
          "durationTicks": 53,
          "midi": 79,
          "name": "G5",
          "ticks": 39118,
          "time": 154.852,
          "velocity": 0.8818897637795275
        },
        {
          "duration": 0.21199999999998909,
          "durationTicks": 53,
          "midi": 72,
          "name": "C5",
          "ticks": 39279,
          "time": 155.496,
          "velocity": 0.5039370078740157
        },
        {
          "duration": 0.21600000000000819,
          "durationTicks": 54,
          "midi": 74,
          "name": "D5",
          "ticks": 39332,
          "time": 155.708,
          "velocity": 0.5039370078740157
        },
        {
          "duration": 0.2120000000000175,
          "durationTicks": 53,
          "midi": 72,
          "name": "C5",
          "ticks": 39386,
          "time": 155.924,
          "velocity": 0.5039370078740157
        },
        {
          "duration": 0.21599999999997976,
          "durationTicks": 54,
          "midi": 74,
          "name": "D5",
          "ticks": 39439,
          "time": 156.13600000000002,
          "velocity": 0.5039370078740157
        },
        {
          "duration": 0.2120000000000175,
          "durationTicks": 53,
          "midi": 72,
          "name": "C5",
          "ticks": 39493,
          "time": 156.352,
          "velocity": 0.5039370078740157
        },
        {
          "duration": 0.21599999999997976,
          "durationTicks": 54,
          "midi": 74,
          "name": "D5",
          "ticks": 39546,
          "time": 156.56400000000002,
          "velocity": 0.5039370078740157
        },
        {
          "duration": 0.21600000000000819,
          "durationTicks": 54,
          "midi": 72,
          "name": "C5",
          "ticks": 39707,
          "time": 157.208,
          "velocity": 0.5039370078740157
        },
        {
          "duration": 0.2120000000000175,
          "durationTicks": 53,
          "midi": 74,
          "name": "D5",
          "ticks": 39761,
          "time": 157.424,
          "velocity": 0.5039370078740157
        },
        {
          "duration": 0.21599999999997976,
          "durationTicks": 54,
          "midi": 72,
          "name": "C5",
          "ticks": 39814,
          "time": 157.63600000000002,
          "velocity": 0.5039370078740157
        },
        {
          "duration": 0.2120000000000175,
          "durationTicks": 53,
          "midi": 74,
          "name": "D5",
          "ticks": 39868,
          "time": 157.852,
          "velocity": 0.5039370078740157
        },
        {
          "duration": 0.21599999999997976,
          "durationTicks": 54,
          "midi": 72,
          "name": "C5",
          "ticks": 39921,
          "time": 158.06400000000002,
          "velocity": 0.5039370078740157
        },
        {
          "duration": 0.21600000000000819,
          "durationTicks": 54,
          "midi": 74,
          "name": "D5",
          "ticks": 39975,
          "time": 158.28,
          "velocity": 0.5039370078740157
        },
        {
          "duration": 0.2120000000000175,
          "durationTicks": 53,
          "midi": 72,
          "name": "C5",
          "ticks": 40136,
          "time": 158.924,
          "velocity": 0.5039370078740157
        },
        {
          "duration": 0.21599999999997976,
          "durationTicks": 54,
          "midi": 74,
          "name": "D5",
          "ticks": 40189,
          "time": 159.13600000000002,
          "velocity": 0.5039370078740157
        },
        {
          "duration": 0.2120000000000175,
          "durationTicks": 53,
          "midi": 72,
          "name": "C5",
          "ticks": 40243,
          "time": 159.352,
          "velocity": 0.5039370078740157
        },
        {
          "duration": 0.21599999999997976,
          "durationTicks": 54,
          "midi": 74,
          "name": "D5",
          "ticks": 40296,
          "time": 159.56400000000002,
          "velocity": 0.5039370078740157
        },
        {
          "duration": 0.21600000000000819,
          "durationTicks": 54,
          "midi": 72,
          "name": "C5",
          "ticks": 40350,
          "time": 159.78,
          "velocity": 0.5039370078740157
        },
        {
          "duration": 0.21199999999998909,
          "durationTicks": 53,
          "midi": 74,
          "name": "D5",
          "ticks": 40404,
          "time": 159.996,
          "velocity": 0.5039370078740157
        },
        {
          "duration": 0.21599999999997976,
          "durationTicks": 54,
          "midi": 72,
          "name": "C5",
          "ticks": 40564,
          "time": 160.63600000000002,
          "velocity": 0.5039370078740157
        },
        {
          "duration": 0.2120000000000175,
          "durationTicks": 53,
          "midi": 74,
          "name": "D5",
          "ticks": 40618,
          "time": 160.852,
          "velocity": 0.5039370078740157
        },
        {
          "duration": 0.21599999999997976,
          "durationTicks": 54,
          "midi": 72,
          "name": "C5",
          "ticks": 40671,
          "time": 161.06400000000002,
          "velocity": 0.5039370078740157
        },
        {
          "duration": 0.21600000000000819,
          "durationTicks": 54,
          "midi": 74,
          "name": "D5",
          "ticks": 40725,
          "time": 161.28,
          "velocity": 0.5039370078740157
        },
        {
          "duration": 0.21199999999998909,
          "durationTicks": 53,
          "midi": 72,
          "name": "C5",
          "ticks": 40779,
          "time": 161.496,
          "velocity": 0.5039370078740157
        },
        {
          "duration": 0.21600000000000819,
          "durationTicks": 54,
          "midi": 74,
          "name": "D5",
          "ticks": 40832,
          "time": 161.708,
          "velocity": 0.5039370078740157
        },
        {
          "duration": 0.2120000000000175,
          "durationTicks": 53,
          "midi": 71,
          "name": "B4",
          "ticks": 40993,
          "time": 162.352,
          "velocity": 0.5039370078740157
        },
        {
          "duration": 0.21599999999997976,
          "durationTicks": 54,
          "midi": 72,
          "name": "C5",
          "ticks": 41046,
          "time": 162.56400000000002,
          "velocity": 0.5039370078740157
        },
        {
          "duration": 0.21600000000000819,
          "durationTicks": 54,
          "midi": 71,
          "name": "B4",
          "ticks": 41100,
          "time": 162.78,
          "velocity": 0.5039370078740157
        },
        {
          "duration": 0.21199999999998909,
          "durationTicks": 53,
          "midi": 72,
          "name": "C5",
          "ticks": 41154,
          "time": 162.996,
          "velocity": 0.5039370078740157
        },
        {
          "duration": 0.21600000000000819,
          "durationTicks": 54,
          "midi": 71,
          "name": "B4",
          "ticks": 41207,
          "time": 163.208,
          "velocity": 0.5039370078740157
        },
        {
          "duration": 0.2120000000000175,
          "durationTicks": 53,
          "midi": 72,
          "name": "C5",
          "ticks": 41261,
          "time": 163.424,
          "velocity": 0.5039370078740157
        },
        {
          "duration": 0.21599999999997976,
          "durationTicks": 54,
          "midi": 71,
          "name": "B4",
          "ticks": 41421,
          "time": 164.06400000000002,
          "velocity": 0.5039370078740157
        },
        {
          "duration": 0.21600000000000819,
          "durationTicks": 54,
          "midi": 72,
          "name": "C5",
          "ticks": 41475,
          "time": 164.28,
          "velocity": 0.5039370078740157
        },
        {
          "duration": 0.21199999999998909,
          "durationTicks": 53,
          "midi": 71,
          "name": "B4",
          "ticks": 41529,
          "time": 164.496,
          "velocity": 0.5039370078740157
        },
        {
          "duration": 0.21600000000000819,
          "durationTicks": 54,
          "midi": 72,
          "name": "C5",
          "ticks": 41582,
          "time": 164.708,
          "velocity": 0.5039370078740157
        },
        {
          "duration": 0.2120000000000175,
          "durationTicks": 53,
          "midi": 71,
          "name": "B4",
          "ticks": 41636,
          "time": 164.924,
          "velocity": 0.5039370078740157
        },
        {
          "duration": 0.21599999999997976,
          "durationTicks": 54,
          "midi": 72,
          "name": "C5",
          "ticks": 41689,
          "time": 165.13600000000002,
          "velocity": 0.5039370078740157
        }
      ]
    },
    {
      "channel": 8,
      "controlChanges": {
        "1": [
          {
            "number": 1,
            "ticks": 600,
            "time": 0.78,
            "value": 0.12598425196850394
          }
        ],
        "10": [
          {
            "number": 10,
            "ticks": 18011,
            "time": 70.42399999999999,
            "value": 1
          },
          {
            "number": 10,
            "ticks": 18038,
            "time": 70.532,
            "value": 0.5039370078740157
          },
          {
            "number": 10,
            "ticks": 18064,
            "time": 70.636,
            "value": 0
          },
          {
            "number": 10,
            "ticks": 18091,
            "time": 70.74399999999999,
            "value": 0.5039370078740157
          },
          {
            "number": 10,
            "ticks": 18118,
            "time": 70.85199999999999,
            "value": 1
          },
          {
            "number": 10,
            "ticks": 18145,
            "time": 70.96,
            "value": 0.5039370078740157
          },
          {
            "number": 10,
            "ticks": 18171,
            "time": 71.064,
            "value": 0
          },
          {
            "number": 10,
            "ticks": 18198,
            "time": 71.172,
            "value": 0.5039370078740157
          },
          {
            "number": 10,
            "ticks": 18225,
            "time": 71.28,
            "value": 1
          },
          {
            "number": 10,
            "ticks": 18252,
            "time": 71.38799999999999,
            "value": 0.5039370078740157
          },
          {
            "number": 10,
            "ticks": 18279,
            "time": 71.496,
            "value": 0
          },
          {
            "number": 10,
            "ticks": 18305,
            "time": 71.6,
            "value": 0.5039370078740157
          },
          {
            "number": 10,
            "ticks": 18439,
            "time": 72.136,
            "value": 1
          },
          {
            "number": 10,
            "ticks": 18466,
            "time": 72.24399999999999,
            "value": 0.5039370078740157
          },
          {
            "number": 10,
            "ticks": 18493,
            "time": 72.35199999999999,
            "value": 0
          },
          {
            "number": 10,
            "ticks": 18520,
            "time": 72.46,
            "value": 0.5039370078740157
          },
          {
            "number": 10,
            "ticks": 18546,
            "time": 72.564,
            "value": 1
          },
          {
            "number": 10,
            "ticks": 18573,
            "time": 72.672,
            "value": 0.5039370078740157
          },
          {
            "number": 10,
            "ticks": 18600,
            "time": 72.78,
            "value": 0
          },
          {
            "number": 10,
            "ticks": 18627,
            "time": 72.88799999999999,
            "value": 0.5039370078740157
          },
          {
            "number": 10,
            "ticks": 18654,
            "time": 72.996,
            "value": 1
          },
          {
            "number": 10,
            "ticks": 18680,
            "time": 73.1,
            "value": 0.5039370078740157
          },
          {
            "number": 10,
            "ticks": 18707,
            "time": 73.208,
            "value": 0
          },
          {
            "number": 10,
            "ticks": 18734,
            "time": 73.316,
            "value": 0.5039370078740157
          },
          {
            "number": 10,
            "ticks": 18868,
            "time": 73.85199999999999,
            "value": 1
          },
          {
            "number": 10,
            "ticks": 18895,
            "time": 73.96,
            "value": 0.5039370078740157
          },
          {
            "number": 10,
            "ticks": 18921,
            "time": 74.064,
            "value": 0
          },
          {
            "number": 10,
            "ticks": 18948,
            "time": 74.172,
            "value": 0.5039370078740157
          },
          {
            "number": 10,
            "ticks": 18975,
            "time": 74.28,
            "value": 1
          },
          {
            "number": 10,
            "ticks": 19002,
            "time": 74.38799999999999,
            "value": 0.5039370078740157
          },
          {
            "number": 10,
            "ticks": 19029,
            "time": 74.496,
            "value": 0
          },
          {
            "number": 10,
            "ticks": 19055,
            "time": 74.6,
            "value": 0.5039370078740157
          },
          {
            "number": 10,
            "ticks": 19082,
            "time": 74.708,
            "value": 1
          },
          {
            "number": 10,
            "ticks": 19109,
            "time": 74.816,
            "value": 0.5039370078740157
          },
          {
            "number": 10,
            "ticks": 19136,
            "time": 74.92399999999999,
            "value": 0
          },
          {
            "number": 10,
            "ticks": 19163,
            "time": 75.032,
            "value": 0.5039370078740157
          },
          {
            "number": 10,
            "ticks": 19296,
            "time": 75.564,
            "value": 1
          },
          {
            "number": 10,
            "ticks": 19323,
            "time": 75.672,
            "value": 0.5039370078740157
          },
          {
            "number": 10,
            "ticks": 19350,
            "time": 75.78,
            "value": 0
          },
          {
            "number": 10,
            "ticks": 19377,
            "time": 75.88799999999999,
            "value": 0.5039370078740157
          },
          {
            "number": 10,
            "ticks": 19404,
            "time": 75.996,
            "value": 1
          },
          {
            "number": 10,
            "ticks": 19430,
            "time": 76.1,
            "value": 0.5039370078740157
          },
          {
            "number": 10,
            "ticks": 19457,
            "time": 76.208,
            "value": 0
          },
          {
            "number": 10,
            "ticks": 19484,
            "time": 76.316,
            "value": 0.5039370078740157
          },
          {
            "number": 10,
            "ticks": 19511,
            "time": 76.42399999999999,
            "value": 1
          },
          {
            "number": 10,
            "ticks": 19538,
            "time": 76.532,
            "value": 0.5039370078740157
          },
          {
            "number": 10,
            "ticks": 19564,
            "time": 76.636,
            "value": 0
          },
          {
            "number": 10,
            "ticks": 19591,
            "time": 76.74399999999999,
            "value": 0.5039370078740157
          },
          {
            "number": 10,
            "ticks": 19725,
            "time": 77.28,
            "value": 1
          },
          {
            "number": 10,
            "ticks": 19752,
            "time": 77.38799999999999,
            "value": 0.5039370078740157
          },
          {
            "number": 10,
            "ticks": 19779,
            "time": 77.496,
            "value": 0
          },
          {
            "number": 10,
            "ticks": 19805,
            "time": 77.6,
            "value": 0.5039370078740157
          },
          {
            "number": 10,
            "ticks": 19832,
            "time": 77.708,
            "value": 1
          },
          {
            "number": 10,
            "ticks": 19859,
            "time": 77.816,
            "value": 0.5039370078740157
          },
          {
            "number": 10,
            "ticks": 19886,
            "time": 77.92399999999999,
            "value": 0
          },
          {
            "number": 10,
            "ticks": 19913,
            "time": 78.032,
            "value": 0.5039370078740157
          },
          {
            "number": 10,
            "ticks": 19939,
            "time": 78.136,
            "value": 1
          },
          {
            "number": 10,
            "ticks": 19966,
            "time": 78.24399999999999,
            "value": 0.5039370078740157
          },
          {
            "number": 10,
            "ticks": 19993,
            "time": 78.35199999999999,
            "value": 0
          },
          {
            "number": 10,
            "ticks": 20020,
            "time": 78.46,
            "value": 0.5039370078740157
          },
          {
            "number": 10,
            "ticks": 20154,
            "time": 78.996,
            "value": 1
          },
          {
            "number": 10,
            "ticks": 20180,
            "time": 79.1,
            "value": 0.5039370078740157
          },
          {
            "number": 10,
            "ticks": 20207,
            "time": 79.208,
            "value": 0
          },
          {
            "number": 10,
            "ticks": 20234,
            "time": 79.316,
            "value": 0.5039370078740157
          },
          {
            "number": 10,
            "ticks": 20261,
            "time": 79.42399999999999,
            "value": 1
          },
          {
            "number": 10,
            "ticks": 20288,
            "time": 79.532,
            "value": 0.5039370078740157
          },
          {
            "number": 10,
            "ticks": 20314,
            "time": 79.636,
            "value": 0
          },
          {
            "number": 10,
            "ticks": 20341,
            "time": 79.74399999999999,
            "value": 0.5039370078740157
          },
          {
            "number": 10,
            "ticks": 20368,
            "time": 79.85199999999999,
            "value": 1
          },
          {
            "number": 10,
            "ticks": 20395,
            "time": 79.96,
            "value": 0.5039370078740157
          },
          {
            "number": 10,
            "ticks": 20421,
            "time": 80.064,
            "value": 0
          },
          {
            "number": 10,
            "ticks": 20448,
            "time": 80.172,
            "value": 0.5039370078740157
          },
          {
            "number": 10,
            "ticks": 20582,
            "time": 80.708,
            "value": 1
          },
          {
            "number": 10,
            "ticks": 20609,
            "time": 80.816,
            "value": 0.5039370078740157
          },
          {
            "number": 10,
            "ticks": 20636,
            "time": 80.92399999999999,
            "value": 0
          },
          {
            "number": 10,
            "ticks": 20663,
            "time": 81.032,
            "value": 0.5039370078740157
          },
          {
            "number": 10,
            "ticks": 20689,
            "time": 81.136,
            "value": 1
          },
          {
            "number": 10,
            "ticks": 20716,
            "time": 81.24399999999999,
            "value": 0.5039370078740157
          },
          {
            "number": 10,
            "ticks": 20743,
            "time": 81.35199999999999,
            "value": 0
          },
          {
            "number": 10,
            "ticks": 20770,
            "time": 81.46,
            "value": 0.5039370078740157
          },
          {
            "number": 10,
            "ticks": 20796,
            "time": 81.564,
            "value": 1
          },
          {
            "number": 10,
            "ticks": 20823,
            "time": 81.672,
            "value": 0.5039370078740157
          },
          {
            "number": 10,
            "ticks": 20850,
            "time": 81.78,
            "value": 0
          },
          {
            "number": 10,
            "ticks": 20877,
            "time": 81.88799999999999,
            "value": 0.5039370078740157
          },
          {
            "number": 10,
            "ticks": 20904,
            "time": 81.996,
            "value": 1
          },
          {
            "number": 10,
            "ticks": 20930,
            "time": 82.1,
            "value": 0.5039370078740157
          },
          {
            "number": 10,
            "ticks": 20957,
            "time": 82.208,
            "value": 0
          },
          {
            "number": 10,
            "ticks": 20984,
            "time": 82.316,
            "value": 0.5039370078740157
          },
          {
            "number": 10,
            "ticks": 21011,
            "time": 82.42399999999999,
            "value": 1
          },
          {
            "number": 10,
            "ticks": 21038,
            "time": 82.532,
            "value": 0.5039370078740157
          },
          {
            "number": 10,
            "ticks": 21064,
            "time": 82.636,
            "value": 0
          },
          {
            "number": 10,
            "ticks": 21091,
            "time": 82.74399999999999,
            "value": 0.5039370078740157
          },
          {
            "number": 10,
            "ticks": 21118,
            "time": 82.85199999999999,
            "value": 1
          },
          {
            "number": 10,
            "ticks": 21145,
            "time": 82.96,
            "value": 0.5039370078740157
          },
          {
            "number": 10,
            "ticks": 21171,
            "time": 83.064,
            "value": 0
          },
          {
            "number": 10,
            "ticks": 21198,
            "time": 83.172,
            "value": 0.5039370078740157
          },
          {
            "number": 10,
            "ticks": 21225,
            "time": 83.28,
            "value": 1
          },
          {
            "number": 10,
            "ticks": 21252,
            "time": 83.38799999999999,
            "value": 0.5039370078740157
          },
          {
            "number": 10,
            "ticks": 21279,
            "time": 83.496,
            "value": 0
          },
          {
            "number": 10,
            "ticks": 21305,
            "time": 83.6,
            "value": 0.5039370078740157
          },
          {
            "number": 10,
            "ticks": 21439,
            "time": 84.136,
            "value": 1
          },
          {
            "number": 10,
            "ticks": 21466,
            "time": 84.24399999999999,
            "value": 0.5039370078740157
          },
          {
            "number": 10,
            "ticks": 21493,
            "time": 84.35199999999999,
            "value": 0
          },
          {
            "number": 10,
            "ticks": 21520,
            "time": 84.46,
            "value": 0.5039370078740157
          },
          {
            "number": 10,
            "ticks": 21546,
            "time": 84.564,
            "value": 1
          },
          {
            "number": 10,
            "ticks": 21573,
            "time": 84.672,
            "value": 0.5039370078740157
          },
          {
            "number": 10,
            "ticks": 21600,
            "time": 84.77999999999999,
            "value": 0
          },
          {
            "number": 10,
            "ticks": 21627,
            "time": 84.88799999999999,
            "value": 0.5039370078740157
          },
          {
            "number": 10,
            "ticks": 21654,
            "time": 84.996,
            "value": 1
          },
          {
            "number": 10,
            "ticks": 21680,
            "time": 85.1,
            "value": 0.5039370078740157
          },
          {
            "number": 10,
            "ticks": 21707,
            "time": 85.208,
            "value": 0
          },
          {
            "number": 10,
            "ticks": 21734,
            "time": 85.316,
            "value": 0.5039370078740157
          },
          {
            "number": 10,
            "ticks": 21868,
            "time": 85.85199999999999,
            "value": 1
          },
          {
            "number": 10,
            "ticks": 21895,
            "time": 85.96,
            "value": 0.5039370078740157
          },
          {
            "number": 10,
            "ticks": 21921,
            "time": 86.064,
            "value": 0
          },
          {
            "number": 10,
            "ticks": 21948,
            "time": 86.172,
            "value": 0.5039370078740157
          },
          {
            "number": 10,
            "ticks": 21975,
            "time": 86.27999999999999,
            "value": 1
          },
          {
            "number": 10,
            "ticks": 22002,
            "time": 86.38799999999999,
            "value": 0.5039370078740157
          },
          {
            "number": 10,
            "ticks": 22029,
            "time": 86.496,
            "value": 0
          },
          {
            "number": 10,
            "ticks": 22055,
            "time": 86.6,
            "value": 0.5039370078740157
          },
          {
            "number": 10,
            "ticks": 22082,
            "time": 86.708,
            "value": 1
          },
          {
            "number": 10,
            "ticks": 22109,
            "time": 86.816,
            "value": 0.5039370078740157
          },
          {
            "number": 10,
            "ticks": 22136,
            "time": 86.92399999999999,
            "value": 0
          },
          {
            "number": 10,
            "ticks": 22163,
            "time": 87.032,
            "value": 0.5039370078740157
          },
          {
            "number": 10,
            "ticks": 22296,
            "time": 87.564,
            "value": 1
          },
          {
            "number": 10,
            "ticks": 22323,
            "time": 87.672,
            "value": 0.5039370078740157
          },
          {
            "number": 10,
            "ticks": 22350,
            "time": 87.77999999999999,
            "value": 0
          },
          {
            "number": 10,
            "ticks": 22377,
            "time": 87.88799999999999,
            "value": 0.5039370078740157
          },
          {
            "number": 10,
            "ticks": 22404,
            "time": 87.996,
            "value": 1
          },
          {
            "number": 10,
            "ticks": 22430,
            "time": 88.1,
            "value": 0.5039370078740157
          },
          {
            "number": 10,
            "ticks": 22457,
            "time": 88.208,
            "value": 0
          },
          {
            "number": 10,
            "ticks": 22484,
            "time": 88.316,
            "value": 0.5039370078740157
          },
          {
            "number": 10,
            "ticks": 22511,
            "time": 88.42399999999999,
            "value": 1
          },
          {
            "number": 10,
            "ticks": 22538,
            "time": 88.532,
            "value": 0.5039370078740157
          },
          {
            "number": 10,
            "ticks": 22564,
            "time": 88.636,
            "value": 0
          },
          {
            "number": 10,
            "ticks": 22591,
            "time": 88.74399999999999,
            "value": 0.5039370078740157
          },
          {
            "number": 10,
            "ticks": 22725,
            "time": 89.27999999999999,
            "value": 1
          },
          {
            "number": 10,
            "ticks": 22752,
            "time": 89.38799999999999,
            "value": 0.5039370078740157
          },
          {
            "number": 10,
            "ticks": 22779,
            "time": 89.496,
            "value": 0
          },
          {
            "number": 10,
            "ticks": 22805,
            "time": 89.6,
            "value": 0.5039370078740157
          },
          {
            "number": 10,
            "ticks": 22832,
            "time": 89.708,
            "value": 1
          },
          {
            "number": 10,
            "ticks": 22859,
            "time": 89.816,
            "value": 0.5039370078740157
          },
          {
            "number": 10,
            "ticks": 22886,
            "time": 89.92399999999999,
            "value": 0
          },
          {
            "number": 10,
            "ticks": 22913,
            "time": 90.032,
            "value": 0.5039370078740157
          },
          {
            "number": 10,
            "ticks": 22939,
            "time": 90.136,
            "value": 1
          },
          {
            "number": 10,
            "ticks": 22966,
            "time": 90.24399999999999,
            "value": 0.5039370078740157
          },
          {
            "number": 10,
            "ticks": 22993,
            "time": 90.35199999999999,
            "value": 0
          },
          {
            "number": 10,
            "ticks": 23020,
            "time": 90.46,
            "value": 0.5039370078740157
          },
          {
            "number": 10,
            "ticks": 23154,
            "time": 90.996,
            "value": 1
          },
          {
            "number": 10,
            "ticks": 23180,
            "time": 91.1,
            "value": 0.5039370078740157
          },
          {
            "number": 10,
            "ticks": 23207,
            "time": 91.208,
            "value": 0
          },
          {
            "number": 10,
            "ticks": 23234,
            "time": 91.316,
            "value": 0.5039370078740157
          },
          {
            "number": 10,
            "ticks": 23261,
            "time": 91.42399999999999,
            "value": 1
          },
          {
            "number": 10,
            "ticks": 23288,
            "time": 91.532,
            "value": 0.5039370078740157
          },
          {
            "number": 10,
            "ticks": 23314,
            "time": 91.636,
            "value": 0
          },
          {
            "number": 10,
            "ticks": 23341,
            "time": 91.74399999999999,
            "value": 0.5039370078740157
          },
          {
            "number": 10,
            "ticks": 23368,
            "time": 91.85199999999999,
            "value": 1
          },
          {
            "number": 10,
            "ticks": 23395,
            "time": 91.96,
            "value": 0.5039370078740157
          },
          {
            "number": 10,
            "ticks": 23421,
            "time": 92.064,
            "value": 0
          },
          {
            "number": 10,
            "ticks": 23448,
            "time": 92.172,
            "value": 0.5039370078740157
          },
          {
            "number": 10,
            "ticks": 23582,
            "time": 92.708,
            "value": 1
          },
          {
            "number": 10,
            "ticks": 23609,
            "time": 92.816,
            "value": 0.5039370078740157
          },
          {
            "number": 10,
            "ticks": 23636,
            "time": 92.92399999999999,
            "value": 0
          },
          {
            "number": 10,
            "ticks": 23663,
            "time": 93.032,
            "value": 0.5039370078740157
          },
          {
            "number": 10,
            "ticks": 23689,
            "time": 93.136,
            "value": 1
          },
          {
            "number": 10,
            "ticks": 23716,
            "time": 93.24399999999999,
            "value": 0.5039370078740157
          },
          {
            "number": 10,
            "ticks": 23743,
            "time": 93.35199999999999,
            "value": 0
          },
          {
            "number": 10,
            "ticks": 23770,
            "time": 93.46,
            "value": 0.5039370078740157
          },
          {
            "number": 10,
            "ticks": 23796,
            "time": 93.564,
            "value": 1
          },
          {
            "number": 10,
            "ticks": 23823,
            "time": 93.672,
            "value": 0.5039370078740157
          },
          {
            "number": 10,
            "ticks": 23850,
            "time": 93.77999999999999,
            "value": 0
          },
          {
            "number": 10,
            "ticks": 23877,
            "time": 93.88799999999999,
            "value": 0.5039370078740157
          },
          {
            "number": 10,
            "ticks": 36011,
            "time": 142.424,
            "value": 1
          },
          {
            "number": 10,
            "ticks": 36038,
            "time": 142.532,
            "value": 0.5039370078740157
          },
          {
            "number": 10,
            "ticks": 36064,
            "time": 142.63600000000002,
            "value": 0
          },
          {
            "number": 10,
            "ticks": 36091,
            "time": 142.744,
            "value": 0.5039370078740157
          },
          {
            "number": 10,
            "ticks": 36118,
            "time": 142.852,
            "value": 1
          },
          {
            "number": 10,
            "ticks": 36145,
            "time": 142.96,
            "value": 0.5039370078740157
          },
          {
            "number": 10,
            "ticks": 36171,
            "time": 143.06400000000002,
            "value": 0
          },
          {
            "number": 10,
            "ticks": 36198,
            "time": 143.172,
            "value": 0.5039370078740157
          },
          {
            "number": 10,
            "ticks": 36225,
            "time": 143.28,
            "value": 1
          },
          {
            "number": 10,
            "ticks": 36252,
            "time": 143.388,
            "value": 0.5039370078740157
          },
          {
            "number": 10,
            "ticks": 36279,
            "time": 143.496,
            "value": 0
          },
          {
            "number": 10,
            "ticks": 36305,
            "time": 143.60000000000002,
            "value": 0.5039370078740157
          },
          {
            "number": 10,
            "ticks": 36439,
            "time": 144.13600000000002,
            "value": 1
          },
          {
            "number": 10,
            "ticks": 36466,
            "time": 144.244,
            "value": 0.5039370078740157
          },
          {
            "number": 10,
            "ticks": 36493,
            "time": 144.352,
            "value": 0
          },
          {
            "number": 10,
            "ticks": 36520,
            "time": 144.46,
            "value": 0.5039370078740157
          },
          {
            "number": 10,
            "ticks": 36546,
            "time": 144.56400000000002,
            "value": 1
          },
          {
            "number": 10,
            "ticks": 36573,
            "time": 144.672,
            "value": 0.5039370078740157
          },
          {
            "number": 10,
            "ticks": 36600,
            "time": 144.78,
            "value": 0
          },
          {
            "number": 10,
            "ticks": 36627,
            "time": 144.888,
            "value": 0.5039370078740157
          },
          {
            "number": 10,
            "ticks": 36654,
            "time": 144.996,
            "value": 1
          },
          {
            "number": 10,
            "ticks": 36680,
            "time": 145.10000000000002,
            "value": 0.5039370078740157
          },
          {
            "number": 10,
            "ticks": 36707,
            "time": 145.208,
            "value": 0
          },
          {
            "number": 10,
            "ticks": 36734,
            "time": 145.316,
            "value": 0.5039370078740157
          },
          {
            "number": 10,
            "ticks": 36868,
            "time": 145.852,
            "value": 1
          },
          {
            "number": 10,
            "ticks": 36895,
            "time": 145.96,
            "value": 0.5039370078740157
          },
          {
            "number": 10,
            "ticks": 36921,
            "time": 146.06400000000002,
            "value": 0
          },
          {
            "number": 10,
            "ticks": 36948,
            "time": 146.172,
            "value": 0.5039370078740157
          },
          {
            "number": 10,
            "ticks": 36975,
            "time": 146.28,
            "value": 1
          },
          {
            "number": 10,
            "ticks": 37002,
            "time": 146.388,
            "value": 0.5039370078740157
          },
          {
            "number": 10,
            "ticks": 37029,
            "time": 146.496,
            "value": 0
          },
          {
            "number": 10,
            "ticks": 37055,
            "time": 146.60000000000002,
            "value": 0.5039370078740157
          },
          {
            "number": 10,
            "ticks": 37082,
            "time": 146.708,
            "value": 1
          },
          {
            "number": 10,
            "ticks": 37109,
            "time": 146.816,
            "value": 0.5039370078740157
          },
          {
            "number": 10,
            "ticks": 37136,
            "time": 146.924,
            "value": 0
          },
          {
            "number": 10,
            "ticks": 37163,
            "time": 147.032,
            "value": 0.5039370078740157
          },
          {
            "number": 10,
            "ticks": 37296,
            "time": 147.56400000000002,
            "value": 1
          },
          {
            "number": 10,
            "ticks": 37323,
            "time": 147.672,
            "value": 0.5039370078740157
          },
          {
            "number": 10,
            "ticks": 37350,
            "time": 147.78,
            "value": 0
          },
          {
            "number": 10,
            "ticks": 37377,
            "time": 147.888,
            "value": 0.5039370078740157
          },
          {
            "number": 10,
            "ticks": 37404,
            "time": 147.996,
            "value": 1
          },
          {
            "number": 10,
            "ticks": 37430,
            "time": 148.10000000000002,
            "value": 0.5039370078740157
          },
          {
            "number": 10,
            "ticks": 37457,
            "time": 148.208,
            "value": 0
          },
          {
            "number": 10,
            "ticks": 37484,
            "time": 148.316,
            "value": 0.5039370078740157
          },
          {
            "number": 10,
            "ticks": 37511,
            "time": 148.424,
            "value": 1
          },
          {
            "number": 10,
            "ticks": 37538,
            "time": 148.532,
            "value": 0.5039370078740157
          },
          {
            "number": 10,
            "ticks": 37564,
            "time": 148.63600000000002,
            "value": 0
          },
          {
            "number": 10,
            "ticks": 37591,
            "time": 148.744,
            "value": 0.5039370078740157
          },
          {
            "number": 10,
            "ticks": 37725,
            "time": 149.28,
            "value": 1
          },
          {
            "number": 10,
            "ticks": 37752,
            "time": 149.388,
            "value": 0.5039370078740157
          },
          {
            "number": 10,
            "ticks": 37779,
            "time": 149.496,
            "value": 0
          },
          {
            "number": 10,
            "ticks": 37805,
            "time": 149.60000000000002,
            "value": 0.5039370078740157
          },
          {
            "number": 10,
            "ticks": 37832,
            "time": 149.708,
            "value": 1
          },
          {
            "number": 10,
            "ticks": 37859,
            "time": 149.816,
            "value": 0.5039370078740157
          },
          {
            "number": 10,
            "ticks": 37886,
            "time": 149.924,
            "value": 0
          },
          {
            "number": 10,
            "ticks": 37913,
            "time": 150.032,
            "value": 0.5039370078740157
          },
          {
            "number": 10,
            "ticks": 37939,
            "time": 150.13600000000002,
            "value": 1
          },
          {
            "number": 10,
            "ticks": 37966,
            "time": 150.244,
            "value": 0.5039370078740157
          },
          {
            "number": 10,
            "ticks": 37993,
            "time": 150.352,
            "value": 0
          },
          {
            "number": 10,
            "ticks": 38020,
            "time": 150.46,
            "value": 0.5039370078740157
          },
          {
            "number": 10,
            "ticks": 38154,
            "time": 150.996,
            "value": 1
          },
          {
            "number": 10,
            "ticks": 38180,
            "time": 151.10000000000002,
            "value": 0.5039370078740157
          },
          {
            "number": 10,
            "ticks": 38207,
            "time": 151.208,
            "value": 0
          },
          {
            "number": 10,
            "ticks": 38234,
            "time": 151.316,
            "value": 0.5039370078740157
          },
          {
            "number": 10,
            "ticks": 38261,
            "time": 151.424,
            "value": 1
          },
          {
            "number": 10,
            "ticks": 38288,
            "time": 151.532,
            "value": 0.5039370078740157
          },
          {
            "number": 10,
            "ticks": 38314,
            "time": 151.63600000000002,
            "value": 0
          },
          {
            "number": 10,
            "ticks": 38341,
            "time": 151.744,
            "value": 0.5039370078740157
          },
          {
            "number": 10,
            "ticks": 38368,
            "time": 151.852,
            "value": 1
          },
          {
            "number": 10,
            "ticks": 38395,
            "time": 151.96,
            "value": 0.5039370078740157
          },
          {
            "number": 10,
            "ticks": 38421,
            "time": 152.06400000000002,
            "value": 0
          },
          {
            "number": 10,
            "ticks": 38448,
            "time": 152.172,
            "value": 0.5039370078740157
          },
          {
            "number": 10,
            "ticks": 38582,
            "time": 152.708,
            "value": 1
          },
          {
            "number": 10,
            "ticks": 38609,
            "time": 152.816,
            "value": 0.5039370078740157
          },
          {
            "number": 10,
            "ticks": 38636,
            "time": 152.924,
            "value": 0
          },
          {
            "number": 10,
            "ticks": 38663,
            "time": 153.032,
            "value": 0.5039370078740157
          },
          {
            "number": 10,
            "ticks": 38689,
            "time": 153.13600000000002,
            "value": 1
          },
          {
            "number": 10,
            "ticks": 38716,
            "time": 153.244,
            "value": 0.5039370078740157
          },
          {
            "number": 10,
            "ticks": 38743,
            "time": 153.352,
            "value": 0
          },
          {
            "number": 10,
            "ticks": 38770,
            "time": 153.46,
            "value": 0.5039370078740157
          },
          {
            "number": 10,
            "ticks": 38796,
            "time": 153.56400000000002,
            "value": 1
          },
          {
            "number": 10,
            "ticks": 38823,
            "time": 153.672,
            "value": 0.5039370078740157
          },
          {
            "number": 10,
            "ticks": 38850,
            "time": 153.78,
            "value": 0
          },
          {
            "number": 10,
            "ticks": 38877,
            "time": 153.888,
            "value": 0.5039370078740157
          },
          {
            "number": 10,
            "ticks": 38904,
            "time": 153.996,
            "value": 1
          },
          {
            "number": 10,
            "ticks": 38930,
            "time": 154.10000000000002,
            "value": 0.5039370078740157
          },
          {
            "number": 10,
            "ticks": 38957,
            "time": 154.208,
            "value": 0
          },
          {
            "number": 10,
            "ticks": 38984,
            "time": 154.316,
            "value": 0.5039370078740157
          },
          {
            "number": 10,
            "ticks": 39011,
            "time": 154.424,
            "value": 1
          },
          {
            "number": 10,
            "ticks": 39038,
            "time": 154.532,
            "value": 0.5039370078740157
          },
          {
            "number": 10,
            "ticks": 39064,
            "time": 154.63600000000002,
            "value": 0
          },
          {
            "number": 10,
            "ticks": 39091,
            "time": 154.744,
            "value": 0.5039370078740157
          },
          {
            "number": 10,
            "ticks": 39118,
            "time": 154.852,
            "value": 1
          },
          {
            "number": 10,
            "ticks": 39145,
            "time": 154.96,
            "value": 0.5039370078740157
          },
          {
            "number": 10,
            "ticks": 39171,
            "time": 155.06400000000002,
            "value": 0
          },
          {
            "number": 10,
            "ticks": 39198,
            "time": 155.172,
            "value": 0.5039370078740157
          },
          {
            "number": 10,
            "ticks": 39225,
            "time": 155.28,
            "value": 1
          },
          {
            "number": 10,
            "ticks": 39252,
            "time": 155.388,
            "value": 0.5039370078740157
          },
          {
            "number": 10,
            "ticks": 39279,
            "time": 155.496,
            "value": 0
          },
          {
            "number": 10,
            "ticks": 39305,
            "time": 155.60000000000002,
            "value": 0.5039370078740157
          },
          {
            "number": 10,
            "ticks": 39439,
            "time": 156.13600000000002,
            "value": 1
          },
          {
            "number": 10,
            "ticks": 39466,
            "time": 156.244,
            "value": 0.5039370078740157
          },
          {
            "number": 10,
            "ticks": 39493,
            "time": 156.352,
            "value": 0
          },
          {
            "number": 10,
            "ticks": 39520,
            "time": 156.46,
            "value": 0.5039370078740157
          },
          {
            "number": 10,
            "ticks": 39546,
            "time": 156.56400000000002,
            "value": 1
          },
          {
            "number": 10,
            "ticks": 39573,
            "time": 156.672,
            "value": 0.5039370078740157
          },
          {
            "number": 10,
            "ticks": 39600,
            "time": 156.78,
            "value": 0
          },
          {
            "number": 10,
            "ticks": 39627,
            "time": 156.888,
            "value": 0.5039370078740157
          },
          {
            "number": 10,
            "ticks": 39654,
            "time": 156.996,
            "value": 1
          },
          {
            "number": 10,
            "ticks": 39680,
            "time": 157.10000000000002,
            "value": 0.5039370078740157
          },
          {
            "number": 10,
            "ticks": 39707,
            "time": 157.208,
            "value": 0
          },
          {
            "number": 10,
            "ticks": 39734,
            "time": 157.316,
            "value": 0.5039370078740157
          },
          {
            "number": 10,
            "ticks": 39868,
            "time": 157.852,
            "value": 1
          },
          {
            "number": 10,
            "ticks": 39895,
            "time": 157.96,
            "value": 0.5039370078740157
          },
          {
            "number": 10,
            "ticks": 39921,
            "time": 158.06400000000002,
            "value": 0
          },
          {
            "number": 10,
            "ticks": 39948,
            "time": 158.172,
            "value": 0.5039370078740157
          },
          {
            "number": 10,
            "ticks": 39975,
            "time": 158.28,
            "value": 1
          },
          {
            "number": 10,
            "ticks": 40002,
            "time": 158.388,
            "value": 0.5039370078740157
          },
          {
            "number": 10,
            "ticks": 40029,
            "time": 158.496,
            "value": 0
          },
          {
            "number": 10,
            "ticks": 40055,
            "time": 158.60000000000002,
            "value": 0.5039370078740157
          },
          {
            "number": 10,
            "ticks": 40082,
            "time": 158.708,
            "value": 1
          },
          {
            "number": 10,
            "ticks": 40109,
            "time": 158.816,
            "value": 0.5039370078740157
          },
          {
            "number": 10,
            "ticks": 40136,
            "time": 158.924,
            "value": 0
          },
          {
            "number": 10,
            "ticks": 40163,
            "time": 159.032,
            "value": 0.5039370078740157
          },
          {
            "number": 10,
            "ticks": 40296,
            "time": 159.56400000000002,
            "value": 1
          },
          {
            "number": 10,
            "ticks": 40323,
            "time": 159.672,
            "value": 0.5039370078740157
          },
          {
            "number": 10,
            "ticks": 40350,
            "time": 159.78,
            "value": 0
          },
          {
            "number": 10,
            "ticks": 40377,
            "time": 159.888,
            "value": 0.5039370078740157
          },
          {
            "number": 10,
            "ticks": 40404,
            "time": 159.996,
            "value": 1
          },
          {
            "number": 10,
            "ticks": 40430,
            "time": 160.10000000000002,
            "value": 0.5039370078740157
          },
          {
            "number": 10,
            "ticks": 40457,
            "time": 160.208,
            "value": 0
          },
          {
            "number": 10,
            "ticks": 40484,
            "time": 160.316,
            "value": 0.5039370078740157
          },
          {
            "number": 10,
            "ticks": 40511,
            "time": 160.424,
            "value": 1
          },
          {
            "number": 10,
            "ticks": 40538,
            "time": 160.532,
            "value": 0.5039370078740157
          },
          {
            "number": 10,
            "ticks": 40564,
            "time": 160.63600000000002,
            "value": 0
          },
          {
            "number": 10,
            "ticks": 40591,
            "time": 160.744,
            "value": 0.5039370078740157
          },
          {
            "number": 10,
            "ticks": 40725,
            "time": 161.28,
            "value": 1
          },
          {
            "number": 10,
            "ticks": 40752,
            "time": 161.388,
            "value": 0.5039370078740157
          },
          {
            "number": 10,
            "ticks": 40779,
            "time": 161.496,
            "value": 0
          },
          {
            "number": 10,
            "ticks": 40805,
            "time": 161.60000000000002,
            "value": 0.5039370078740157
          },
          {
            "number": 10,
            "ticks": 40832,
            "time": 161.708,
            "value": 1
          },
          {
            "number": 10,
            "ticks": 40859,
            "time": 161.816,
            "value": 0.5039370078740157
          },
          {
            "number": 10,
            "ticks": 40886,
            "time": 161.924,
            "value": 0
          },
          {
            "number": 10,
            "ticks": 40913,
            "time": 162.032,
            "value": 0.5039370078740157
          },
          {
            "number": 10,
            "ticks": 40939,
            "time": 162.13600000000002,
            "value": 1
          },
          {
            "number": 10,
            "ticks": 40966,
            "time": 162.244,
            "value": 0.5039370078740157
          },
          {
            "number": 10,
            "ticks": 40993,
            "time": 162.352,
            "value": 0
          },
          {
            "number": 10,
            "ticks": 41020,
            "time": 162.46,
            "value": 0.5039370078740157
          },
          {
            "number": 10,
            "ticks": 41154,
            "time": 162.996,
            "value": 1
          },
          {
            "number": 10,
            "ticks": 41180,
            "time": 163.10000000000002,
            "value": 0.5039370078740157
          },
          {
            "number": 10,
            "ticks": 41207,
            "time": 163.208,
            "value": 0
          },
          {
            "number": 10,
            "ticks": 41234,
            "time": 163.316,
            "value": 0.5039370078740157
          },
          {
            "number": 10,
            "ticks": 41261,
            "time": 163.424,
            "value": 1
          },
          {
            "number": 10,
            "ticks": 41288,
            "time": 163.532,
            "value": 0.5039370078740157
          },
          {
            "number": 10,
            "ticks": 41314,
            "time": 163.63600000000002,
            "value": 0
          },
          {
            "number": 10,
            "ticks": 41341,
            "time": 163.744,
            "value": 0.5039370078740157
          },
          {
            "number": 10,
            "ticks": 41368,
            "time": 163.852,
            "value": 1
          },
          {
            "number": 10,
            "ticks": 41395,
            "time": 163.96,
            "value": 0.5039370078740157
          },
          {
            "number": 10,
            "ticks": 41421,
            "time": 164.06400000000002,
            "value": 0
          },
          {
            "number": 10,
            "ticks": 41448,
            "time": 164.172,
            "value": 0.5039370078740157
          },
          {
            "number": 10,
            "ticks": 41582,
            "time": 164.708,
            "value": 1
          },
          {
            "number": 10,
            "ticks": 41609,
            "time": 164.816,
            "value": 0.5039370078740157
          },
          {
            "number": 10,
            "ticks": 41636,
            "time": 164.924,
            "value": 0
          },
          {
            "number": 10,
            "ticks": 41663,
            "time": 165.032,
            "value": 0.5039370078740157
          },
          {
            "number": 10,
            "ticks": 41689,
            "time": 165.13600000000002,
            "value": 1
          },
          {
            "number": 10,
            "ticks": 41716,
            "time": 165.244,
            "value": 0.5039370078740157
          },
          {
            "number": 10,
            "ticks": 41743,
            "time": 165.352,
            "value": 0
          },
          {
            "number": 10,
            "ticks": 41770,
            "time": 165.46,
            "value": 0.5039370078740157
          },
          {
            "number": 10,
            "ticks": 41796,
            "time": 165.56400000000002,
            "value": 1
          },
          {
            "number": 10,
            "ticks": 41823,
            "time": 165.672,
            "value": 0.5039370078740157
          },
          {
            "number": 10,
            "ticks": 41850,
            "time": 165.78,
            "value": 0
          },
          {
            "number": 10,
            "ticks": 41877,
            "time": 165.888,
            "value": 0.5039370078740157
          }
        ],
        "11": [
          {
            "number": 11,
            "ticks": 17984,
            "time": 70.316,
            "value": 1
          },
          {
            "number": 11,
            "ticks": 18091,
            "time": 70.74399999999999,
            "value": 0.8188976377952756
          },
          {
            "number": 11,
            "ticks": 18198,
            "time": 71.172,
            "value": 0.6299212598425197
          },
          {
            "number": 11,
            "ticks": 18413,
            "time": 72.032,
            "value": 1
          },
          {
            "number": 11,
            "ticks": 18520,
            "time": 72.46,
            "value": 0.8188976377952756
          },
          {
            "number": 11,
            "ticks": 18627,
            "time": 72.88799999999999,
            "value": 0.6299212598425197
          },
          {
            "number": 11,
            "ticks": 18841,
            "time": 73.74399999999999,
            "value": 1
          },
          {
            "number": 11,
            "ticks": 18948,
            "time": 74.172,
            "value": 0.8188976377952756
          },
          {
            "number": 11,
            "ticks": 19055,
            "time": 74.6,
            "value": 0.6299212598425197
          },
          {
            "number": 11,
            "ticks": 19270,
            "time": 75.46,
            "value": 1
          },
          {
            "number": 11,
            "ticks": 19377,
            "time": 75.88799999999999,
            "value": 0.8188976377952756
          },
          {
            "number": 11,
            "ticks": 19484,
            "time": 76.316,
            "value": 0.6299212598425197
          },
          {
            "number": 11,
            "ticks": 19698,
            "time": 77.172,
            "value": 1
          },
          {
            "number": 11,
            "ticks": 19805,
            "time": 77.6,
            "value": 0.8188976377952756
          },
          {
            "number": 11,
            "ticks": 19913,
            "time": 78.032,
            "value": 0.6299212598425197
          },
          {
            "number": 11,
            "ticks": 20127,
            "time": 78.88799999999999,
            "value": 1
          },
          {
            "number": 11,
            "ticks": 20234,
            "time": 79.316,
            "value": 0.8188976377952756
          },
          {
            "number": 11,
            "ticks": 20341,
            "time": 79.74399999999999,
            "value": 0.6299212598425197
          },
          {
            "number": 11,
            "ticks": 20555,
            "time": 80.6,
            "value": 1
          },
          {
            "number": 11,
            "ticks": 20569,
            "time": 80.65599999999999,
            "value": 0.9921259842519685
          },
          {
            "number": 11,
            "ticks": 20583,
            "time": 80.712,
            "value": 0.984251968503937
          },
          {
            "number": 11,
            "ticks": 20596,
            "time": 80.764,
            "value": 0.9763779527559056
          },
          {
            "number": 11,
            "ticks": 20610,
            "time": 80.82,
            "value": 0.968503937007874
          },
          {
            "number": 11,
            "ticks": 20624,
            "time": 80.876,
            "value": 0.9606299212598425
          },
          {
            "number": 11,
            "ticks": 20638,
            "time": 80.93199999999999,
            "value": 0.952755905511811
          },
          {
            "number": 11,
            "ticks": 20651,
            "time": 80.984,
            "value": 0.9448818897637795
          },
          {
            "number": 11,
            "ticks": 20665,
            "time": 81.03999999999999,
            "value": 0.937007874015748
          },
          {
            "number": 11,
            "ticks": 20678,
            "time": 81.092,
            "value": 0.9291338582677166
          },
          {
            "number": 11,
            "ticks": 20692,
            "time": 81.148,
            "value": 0.9212598425196851
          },
          {
            "number": 11,
            "ticks": 20706,
            "time": 81.204,
            "value": 0.9133858267716536
          },
          {
            "number": 11,
            "ticks": 20719,
            "time": 81.256,
            "value": 0.905511811023622
          },
          {
            "number": 11,
            "ticks": 20733,
            "time": 81.312,
            "value": 0.8976377952755905
          },
          {
            "number": 11,
            "ticks": 20747,
            "time": 81.368,
            "value": 0.889763779527559
          },
          {
            "number": 11,
            "ticks": 20760,
            "time": 81.41999999999999,
            "value": 0.8818897637795275
          },
          {
            "number": 11,
            "ticks": 20774,
            "time": 81.476,
            "value": 0.8740157480314961
          },
          {
            "number": 11,
            "ticks": 20788,
            "time": 81.53199999999998,
            "value": 0.8661417322834646
          },
          {
            "number": 11,
            "ticks": 20802,
            "time": 81.588,
            "value": 0.8582677165354331
          },
          {
            "number": 11,
            "ticks": 20815,
            "time": 81.64,
            "value": 0.8503937007874016
          },
          {
            "number": 11,
            "ticks": 20829,
            "time": 81.69599999999998,
            "value": 0.84251968503937
          },
          {
            "number": 11,
            "ticks": 20843,
            "time": 81.752,
            "value": 0.8346456692913385
          },
          {
            "number": 11,
            "ticks": 20856,
            "time": 81.804,
            "value": 0.8267716535433071
          },
          {
            "number": 11,
            "ticks": 20870,
            "time": 81.85999999999999,
            "value": 0.8188976377952756
          },
          {
            "number": 11,
            "ticks": 20884,
            "time": 81.916,
            "value": 0.8110236220472441
          },
          {
            "number": 11,
            "ticks": 20897,
            "time": 81.968,
            "value": 0.8031496062992126
          },
          {
            "number": 11,
            "ticks": 20911,
            "time": 82.02399999999999,
            "value": 0.7952755905511811
          },
          {
            "number": 11,
            "ticks": 20925,
            "time": 82.08,
            "value": 0.7874015748031497
          },
          {
            "number": 11,
            "ticks": 20938,
            "time": 82.13199999999999,
            "value": 0.7795275590551181
          },
          {
            "number": 11,
            "ticks": 20952,
            "time": 82.18799999999999,
            "value": 0.7716535433070866
          },
          {
            "number": 11,
            "ticks": 20966,
            "time": 82.244,
            "value": 0.7637795275590551
          },
          {
            "number": 11,
            "ticks": 20979,
            "time": 82.29599999999999,
            "value": 0.7559055118110236
          },
          {
            "number": 11,
            "ticks": 20993,
            "time": 82.35199999999999,
            "value": 0.7480314960629921
          },
          {
            "number": 11,
            "ticks": 21007,
            "time": 82.408,
            "value": 0.7401574803149606
          },
          {
            "number": 11,
            "ticks": 21020,
            "time": 82.46,
            "value": 0.7322834645669292
          },
          {
            "number": 11,
            "ticks": 21034,
            "time": 82.51599999999999,
            "value": 0.7244094488188977
          },
          {
            "number": 11,
            "ticks": 21048,
            "time": 82.572,
            "value": 0.7165354330708661
          },
          {
            "number": 11,
            "ticks": 21061,
            "time": 82.624,
            "value": 0.7086614173228346
          },
          {
            "number": 11,
            "ticks": 21075,
            "time": 82.67999999999999,
            "value": 0.7007874015748031
          },
          {
            "number": 11,
            "ticks": 21089,
            "time": 82.736,
            "value": 0.6929133858267716
          },
          {
            "number": 11,
            "ticks": 21102,
            "time": 82.788,
            "value": 0.6850393700787402
          },
          {
            "number": 11,
            "ticks": 21116,
            "time": 82.844,
            "value": 0.6771653543307087
          },
          {
            "number": 11,
            "ticks": 21130,
            "time": 82.9,
            "value": 0.6692913385826772
          },
          {
            "number": 11,
            "ticks": 21144,
            "time": 82.95599999999999,
            "value": 0.6614173228346457
          },
          {
            "number": 11,
            "ticks": 21157,
            "time": 83.008,
            "value": 0.6535433070866141
          },
          {
            "number": 11,
            "ticks": 21171,
            "time": 83.064,
            "value": 0.6456692913385826
          },
          {
            "number": 11,
            "ticks": 21185,
            "time": 83.11999999999999,
            "value": 0.6377952755905512
          },
          {
            "number": 11,
            "ticks": 21198,
            "time": 83.172,
            "value": 0.6299212598425197
          },
          {
            "number": 11,
            "ticks": 21413,
            "time": 84.032,
            "value": 1
          },
          {
            "number": 11,
            "ticks": 21520,
            "time": 84.46,
            "value": 0.8188976377952756
          },
          {
            "number": 11,
            "ticks": 21627,
            "time": 84.88799999999999,
            "value": 0.6299212598425197
          },
          {
            "number": 11,
            "ticks": 21841,
            "time": 85.74399999999999,
            "value": 1
          },
          {
            "number": 11,
            "ticks": 21948,
            "time": 86.172,
            "value": 0.8188976377952756
          },
          {
            "number": 11,
            "ticks": 22055,
            "time": 86.6,
            "value": 0.6299212598425197
          },
          {
            "number": 11,
            "ticks": 22270,
            "time": 87.46,
            "value": 1
          },
          {
            "number": 11,
            "ticks": 22377,
            "time": 87.88799999999999,
            "value": 0.8188976377952756
          },
          {
            "number": 11,
            "ticks": 22484,
            "time": 88.316,
            "value": 0.6299212598425197
          },
          {
            "number": 11,
            "ticks": 22698,
            "time": 89.172,
            "value": 1
          },
          {
            "number": 11,
            "ticks": 22805,
            "time": 89.6,
            "value": 0.8188976377952756
          },
          {
            "number": 11,
            "ticks": 22913,
            "time": 90.032,
            "value": 0.6299212598425197
          },
          {
            "number": 11,
            "ticks": 23127,
            "time": 90.88799999999999,
            "value": 1
          },
          {
            "number": 11,
            "ticks": 23234,
            "time": 91.316,
            "value": 0.8188976377952756
          },
          {
            "number": 11,
            "ticks": 23341,
            "time": 91.74399999999999,
            "value": 0.6299212598425197
          },
          {
            "number": 11,
            "ticks": 23555,
            "time": 92.6,
            "value": 1
          },
          {
            "number": 11,
            "ticks": 23663,
            "time": 93.032,
            "value": 0.8188976377952756
          },
          {
            "number": 11,
            "ticks": 23770,
            "time": 93.46,
            "value": 0.6299212598425197
          },
          {
            "number": 11,
            "ticks": 23984,
            "time": 94.316,
            "value": 1
          },
          {
            "number": 11,
            "ticks": 36091,
            "time": 142.744,
            "value": 0.8188976377952756
          },
          {
            "number": 11,
            "ticks": 36198,
            "time": 143.172,
            "value": 0.6299212598425197
          },
          {
            "number": 11,
            "ticks": 36413,
            "time": 144.032,
            "value": 1
          },
          {
            "number": 11,
            "ticks": 36520,
            "time": 144.46,
            "value": 0.8188976377952756
          },
          {
            "number": 11,
            "ticks": 36627,
            "time": 144.888,
            "value": 0.6299212598425197
          },
          {
            "number": 11,
            "ticks": 36841,
            "time": 145.744,
            "value": 1
          },
          {
            "number": 11,
            "ticks": 36948,
            "time": 146.172,
            "value": 0.8188976377952756
          },
          {
            "number": 11,
            "ticks": 37055,
            "time": 146.60000000000002,
            "value": 0.6299212598425197
          },
          {
            "number": 11,
            "ticks": 37270,
            "time": 147.46,
            "value": 1
          },
          {
            "number": 11,
            "ticks": 37377,
            "time": 147.888,
            "value": 0.8188976377952756
          },
          {
            "number": 11,
            "ticks": 37484,
            "time": 148.316,
            "value": 0.6299212598425197
          },
          {
            "number": 11,
            "ticks": 37698,
            "time": 149.172,
            "value": 1
          },
          {
            "number": 11,
            "ticks": 37805,
            "time": 149.60000000000002,
            "value": 0.8188976377952756
          },
          {
            "number": 11,
            "ticks": 37913,
            "time": 150.032,
            "value": 0.6299212598425197
          },
          {
            "number": 11,
            "ticks": 38127,
            "time": 150.888,
            "value": 1
          },
          {
            "number": 11,
            "ticks": 38234,
            "time": 151.316,
            "value": 0.8188976377952756
          },
          {
            "number": 11,
            "ticks": 38341,
            "time": 151.744,
            "value": 0.6299212598425197
          },
          {
            "number": 11,
            "ticks": 38555,
            "time": 152.60000000000002,
            "value": 1
          },
          {
            "number": 11,
            "ticks": 38569,
            "time": 152.656,
            "value": 0.9921259842519685
          },
          {
            "number": 11,
            "ticks": 38583,
            "time": 152.712,
            "value": 0.984251968503937
          },
          {
            "number": 11,
            "ticks": 38596,
            "time": 152.764,
            "value": 0.9763779527559056
          },
          {
            "number": 11,
            "ticks": 38610,
            "time": 152.82,
            "value": 0.968503937007874
          },
          {
            "number": 11,
            "ticks": 38624,
            "time": 152.876,
            "value": 0.9606299212598425
          },
          {
            "number": 11,
            "ticks": 38638,
            "time": 152.93200000000002,
            "value": 0.952755905511811
          },
          {
            "number": 11,
            "ticks": 38651,
            "time": 152.98399999999998,
            "value": 0.9448818897637795
          },
          {
            "number": 11,
            "ticks": 38665,
            "time": 153.04,
            "value": 0.937007874015748
          },
          {
            "number": 11,
            "ticks": 38678,
            "time": 153.092,
            "value": 0.9291338582677166
          },
          {
            "number": 11,
            "ticks": 38692,
            "time": 153.148,
            "value": 0.9212598425196851
          },
          {
            "number": 11,
            "ticks": 38706,
            "time": 153.204,
            "value": 0.9133858267716536
          },
          {
            "number": 11,
            "ticks": 38719,
            "time": 153.25600000000003,
            "value": 0.905511811023622
          },
          {
            "number": 11,
            "ticks": 38733,
            "time": 153.31199999999998,
            "value": 0.8976377952755905
          },
          {
            "number": 11,
            "ticks": 38747,
            "time": 153.368,
            "value": 0.889763779527559
          },
          {
            "number": 11,
            "ticks": 38760,
            "time": 153.42000000000002,
            "value": 0.8818897637795275
          },
          {
            "number": 11,
            "ticks": 38774,
            "time": 153.476,
            "value": 0.8740157480314961
          },
          {
            "number": 11,
            "ticks": 38788,
            "time": 153.532,
            "value": 0.8661417322834646
          },
          {
            "number": 11,
            "ticks": 38802,
            "time": 153.58800000000002,
            "value": 0.8582677165354331
          },
          {
            "number": 11,
            "ticks": 38815,
            "time": 153.64,
            "value": 0.8503937007874016
          },
          {
            "number": 11,
            "ticks": 38829,
            "time": 153.696,
            "value": 0.84251968503937
          },
          {
            "number": 11,
            "ticks": 38843,
            "time": 153.752,
            "value": 0.8346456692913385
          },
          {
            "number": 11,
            "ticks": 38856,
            "time": 153.804,
            "value": 0.8267716535433071
          },
          {
            "number": 11,
            "ticks": 38870,
            "time": 153.86,
            "value": 0.8188976377952756
          },
          {
            "number": 11,
            "ticks": 38884,
            "time": 153.91600000000003,
            "value": 0.8110236220472441
          },
          {
            "number": 11,
            "ticks": 38897,
            "time": 153.968,
            "value": 0.8031496062992126
          },
          {
            "number": 11,
            "ticks": 38911,
            "time": 154.024,
            "value": 0.7952755905511811
          },
          {
            "number": 11,
            "ticks": 38925,
            "time": 154.08,
            "value": 0.7874015748031497
          },
          {
            "number": 11,
            "ticks": 38938,
            "time": 154.132,
            "value": 0.7795275590551181
          },
          {
            "number": 11,
            "ticks": 38952,
            "time": 154.18800000000002,
            "value": 0.7716535433070866
          },
          {
            "number": 11,
            "ticks": 38966,
            "time": 154.244,
            "value": 0.7637795275590551
          },
          {
            "number": 11,
            "ticks": 38979,
            "time": 154.296,
            "value": 0.7559055118110236
          },
          {
            "number": 11,
            "ticks": 38993,
            "time": 154.352,
            "value": 0.7480314960629921
          },
          {
            "number": 11,
            "ticks": 39007,
            "time": 154.40800000000002,
            "value": 0.7401574803149606
          },
          {
            "number": 11,
            "ticks": 39020,
            "time": 154.46,
            "value": 0.7322834645669292
          },
          {
            "number": 11,
            "ticks": 39034,
            "time": 154.51600000000002,
            "value": 0.7244094488188977
          },
          {
            "number": 11,
            "ticks": 39048,
            "time": 154.572,
            "value": 0.7165354330708661
          },
          {
            "number": 11,
            "ticks": 39061,
            "time": 154.624,
            "value": 0.7086614173228346
          },
          {
            "number": 11,
            "ticks": 39075,
            "time": 154.68,
            "value": 0.7007874015748031
          },
          {
            "number": 11,
            "ticks": 39089,
            "time": 154.73600000000002,
            "value": 0.6929133858267716
          },
          {
            "number": 11,
            "ticks": 39102,
            "time": 154.788,
            "value": 0.6850393700787402
          },
          {
            "number": 11,
            "ticks": 39116,
            "time": 154.844,
            "value": 0.6771653543307087
          },
          {
            "number": 11,
            "ticks": 39130,
            "time": 154.9,
            "value": 0.6692913385826772
          },
          {
            "number": 11,
            "ticks": 39144,
            "time": 154.956,
            "value": 0.6614173228346457
          },
          {
            "number": 11,
            "ticks": 39157,
            "time": 155.008,
            "value": 0.6535433070866141
          },
          {
            "number": 11,
            "ticks": 39171,
            "time": 155.06400000000002,
            "value": 0.6456692913385826
          },
          {
            "number": 11,
            "ticks": 39185,
            "time": 155.12,
            "value": 0.6377952755905512
          },
          {
            "number": 11,
            "ticks": 39198,
            "time": 155.172,
            "value": 0.6299212598425197
          },
          {
            "number": 11,
            "ticks": 39413,
            "time": 156.032,
            "value": 1
          },
          {
            "number": 11,
            "ticks": 39520,
            "time": 156.46,
            "value": 0.8188976377952756
          },
          {
            "number": 11,
            "ticks": 39627,
            "time": 156.888,
            "value": 0.6299212598425197
          },
          {
            "number": 11,
            "ticks": 39841,
            "time": 157.744,
            "value": 1
          },
          {
            "number": 11,
            "ticks": 39948,
            "time": 158.172,
            "value": 0.8188976377952756
          },
          {
            "number": 11,
            "ticks": 40055,
            "time": 158.60000000000002,
            "value": 0.6299212598425197
          },
          {
            "number": 11,
            "ticks": 40270,
            "time": 159.46,
            "value": 1
          },
          {
            "number": 11,
            "ticks": 40377,
            "time": 159.888,
            "value": 0.8188976377952756
          },
          {
            "number": 11,
            "ticks": 40484,
            "time": 160.316,
            "value": 0.6299212598425197
          },
          {
            "number": 11,
            "ticks": 40698,
            "time": 161.172,
            "value": 1
          },
          {
            "number": 11,
            "ticks": 40805,
            "time": 161.60000000000002,
            "value": 0.8188976377952756
          },
          {
            "number": 11,
            "ticks": 40913,
            "time": 162.032,
            "value": 0.6299212598425197
          },
          {
            "number": 11,
            "ticks": 41127,
            "time": 162.888,
            "value": 1
          },
          {
            "number": 11,
            "ticks": 41234,
            "time": 163.316,
            "value": 0.8188976377952756
          },
          {
            "number": 11,
            "ticks": 41341,
            "time": 163.744,
            "value": 0.6299212598425197
          },
          {
            "number": 11,
            "ticks": 41555,
            "time": 164.60000000000002,
            "value": 1
          },
          {
            "number": 11,
            "ticks": 41663,
            "time": 165.032,
            "value": 0.8188976377952756
          },
          {
            "number": 11,
            "ticks": 41770,
            "time": 165.46,
            "value": 0.6299212598425197
          },
          {
            "number": 11,
            "ticks": 41984,
            "time": 166.316,
            "value": 1
          }
        ],
        "120": [
          {
            "number": 120,
            "ticks": 43457,
            "time": 172.208,
            "value": 0
          }
        ]
      },
      "pitchBends": [
        {
          "ticks": 600,
          "time": 0.78,
          "value": 0.004150390625
        }
      ],
      "instrument": {
        "family": "chromatic percussion",
        "number": 10,
        "name": "music box"
      },
      "name": "",
      "notes": [
        {
          "duration": 0.21599999999999397,
          "durationTicks": 54,
          "midi": 72,
          "name": "C5",
          "ticks": 17984,
          "time": 70.316,
          "velocity": 0.31496062992125984
        },
        {
          "duration": 0.21199999999998909,
          "durationTicks": 53,
          "midi": 74,
          "name": "D5",
          "ticks": 18038,
          "time": 70.532,
          "velocity": 0.31496062992125984
        },
        {
          "duration": 0.21600000000000819,
          "durationTicks": 54,
          "midi": 72,
          "name": "C5",
          "ticks": 18091,
          "time": 70.74399999999999,
          "velocity": 0.31496062992125984
        },
        {
          "duration": 0.2120000000000033,
          "durationTicks": 53,
          "midi": 74,
          "name": "D5",
          "ticks": 18145,
          "time": 70.96,
          "velocity": 0.31496062992125984
        },
        {
          "duration": 0.21599999999999397,
          "durationTicks": 54,
          "midi": 72,
          "name": "C5",
          "ticks": 18198,
          "time": 71.172,
          "velocity": 0.31496062992125984
        },
        {
          "duration": 0.2120000000000033,
          "durationTicks": 53,
          "midi": 74,
          "name": "D5",
          "ticks": 18252,
          "time": 71.38799999999999,
          "velocity": 0.31496062992125984
        },
        {
          "duration": 0.21199999999998909,
          "durationTicks": 53,
          "midi": 72,
          "name": "C5",
          "ticks": 18413,
          "time": 72.032,
          "velocity": 0.31496062992125984
        },
        {
          "duration": 0.21600000000000819,
          "durationTicks": 54,
          "midi": 74,
          "name": "D5",
          "ticks": 18466,
          "time": 72.24399999999999,
          "velocity": 0.31496062992125984
        },
        {
          "duration": 0.2120000000000033,
          "durationTicks": 53,
          "midi": 72,
          "name": "C5",
          "ticks": 18520,
          "time": 72.46,
          "velocity": 0.31496062992125984
        },
        {
          "duration": 0.21599999999999397,
          "durationTicks": 54,
          "midi": 74,
          "name": "D5",
          "ticks": 18573,
          "time": 72.672,
          "velocity": 0.31496062992125984
        },
        {
          "duration": 0.2120000000000033,
          "durationTicks": 53,
          "midi": 72,
          "name": "C5",
          "ticks": 18627,
          "time": 72.88799999999999,
          "velocity": 0.31496062992125984
        },
        {
          "duration": 0.21600000000000819,
          "durationTicks": 54,
          "midi": 74,
          "name": "D5",
          "ticks": 18680,
          "time": 73.1,
          "velocity": 0.31496062992125984
        },
        {
          "duration": 0.21600000000000819,
          "durationTicks": 54,
          "midi": 72,
          "name": "C5",
          "ticks": 18841,
          "time": 73.74399999999999,
          "velocity": 0.31496062992125984
        },
        {
          "duration": 0.2120000000000033,
          "durationTicks": 53,
          "midi": 74,
          "name": "D5",
          "ticks": 18895,
          "time": 73.96,
          "velocity": 0.31496062992125984
        },
        {
          "duration": 0.21599999999999397,
          "durationTicks": 54,
          "midi": 72,
          "name": "C5",
          "ticks": 18948,
          "time": 74.172,
          "velocity": 0.31496062992125984
        },
        {
          "duration": 0.2120000000000033,
          "durationTicks": 53,
          "midi": 74,
          "name": "D5",
          "ticks": 19002,
          "time": 74.38799999999999,
          "velocity": 0.31496062992125984
        },
        {
          "duration": 0.21600000000000819,
          "durationTicks": 54,
          "midi": 72,
          "name": "C5",
          "ticks": 19055,
          "time": 74.6,
          "velocity": 0.31496062992125984
        },
        {
          "duration": 0.21599999999999397,
          "durationTicks": 54,
          "midi": 74,
          "name": "D5",
          "ticks": 19109,
          "time": 74.816,
          "velocity": 0.31496062992125984
        },
        {
          "duration": 0.2120000000000033,
          "durationTicks": 53,
          "midi": 72,
          "name": "C5",
          "ticks": 19270,
          "time": 75.46,
          "velocity": 0.31496062992125984
        },
        {
          "duration": 0.21599999999999397,
          "durationTicks": 54,
          "midi": 74,
          "name": "D5",
          "ticks": 19323,
          "time": 75.672,
          "velocity": 0.31496062992125984
        },
        {
          "duration": 0.2120000000000033,
          "durationTicks": 53,
          "midi": 72,
          "name": "C5",
          "ticks": 19377,
          "time": 75.88799999999999,
          "velocity": 0.31496062992125984
        },
        {
          "duration": 0.21600000000000819,
          "durationTicks": 54,
          "midi": 74,
          "name": "D5",
          "ticks": 19430,
          "time": 76.1,
          "velocity": 0.31496062992125984
        },
        {
          "duration": 0.21599999999999397,
          "durationTicks": 54,
          "midi": 72,
          "name": "C5",
          "ticks": 19484,
          "time": 76.316,
          "velocity": 0.31496062992125984
        },
        {
          "duration": 0.21199999999998909,
          "durationTicks": 53,
          "midi": 74,
          "name": "D5",
          "ticks": 19538,
          "time": 76.532,
          "velocity": 0.31496062992125984
        },
        {
          "duration": 0.21599999999999397,
          "durationTicks": 54,
          "midi": 71,
          "name": "B4",
          "ticks": 19698,
          "time": 77.172,
          "velocity": 0.31496062992125984
        },
        {
          "duration": 0.2120000000000033,
          "durationTicks": 53,
          "midi": 72,
          "name": "C5",
          "ticks": 19752,
          "time": 77.38799999999999,
          "velocity": 0.31496062992125984
        },
        {
          "duration": 0.21600000000000819,
          "durationTicks": 54,
          "midi": 71,
          "name": "B4",
          "ticks": 19805,
          "time": 77.6,
          "velocity": 0.31496062992125984
        },
        {
          "duration": 0.21599999999999397,
          "durationTicks": 54,
          "midi": 72,
          "name": "C5",
          "ticks": 19859,
          "time": 77.816,
          "velocity": 0.31496062992125984
        },
        {
          "duration": 0.21199999999998909,
          "durationTicks": 53,
          "midi": 71,
          "name": "B4",
          "ticks": 19913,
          "time": 78.032,
          "velocity": 0.31496062992125984
        },
        {
          "duration": 0.21600000000000819,
          "durationTicks": 54,
          "midi": 72,
          "name": "C5",
          "ticks": 19966,
          "time": 78.24399999999999,
          "velocity": 0.31496062992125984
        },
        {
          "duration": 0.2120000000000033,
          "durationTicks": 53,
          "midi": 71,
          "name": "B4",
          "ticks": 20127,
          "time": 78.88799999999999,
          "velocity": 0.31496062992125984
        },
        {
          "duration": 0.21600000000000819,
          "durationTicks": 54,
          "midi": 72,
          "name": "C5",
          "ticks": 20180,
          "time": 79.1,
          "velocity": 0.31496062992125984
        },
        {
          "duration": 0.21599999999999397,
          "durationTicks": 54,
          "midi": 71,
          "name": "B4",
          "ticks": 20234,
          "time": 79.316,
          "velocity": 0.31496062992125984
        },
        {
          "duration": 0.21199999999998909,
          "durationTicks": 53,
          "midi": 72,
          "name": "C5",
          "ticks": 20288,
          "time": 79.532,
          "velocity": 0.31496062992125984
        },
        {
          "duration": 0.21600000000000819,
          "durationTicks": 54,
          "midi": 71,
          "name": "B4",
          "ticks": 20341,
          "time": 79.74399999999999,
          "velocity": 0.31496062992125984
        },
        {
          "duration": 0.2120000000000033,
          "durationTicks": 53,
          "midi": 72,
          "name": "C5",
          "ticks": 20395,
          "time": 79.96,
          "velocity": 0.31496062992125984
        },
        {
          "duration": 0.21600000000000819,
          "durationTicks": 54,
          "midi": 95,
          "name": "B6",
          "ticks": 20555,
          "time": 80.6,
          "velocity": 0.5511811023622047
        },
        {
          "duration": 0.21599999999999397,
          "durationTicks": 54,
          "midi": 95,
          "name": "B6",
          "ticks": 20609,
          "time": 80.816,
          "velocity": 0.5511811023622047
        },
        {
          "duration": 0.21199999999998909,
          "durationTicks": 53,
          "midi": 91,
          "name": "G6",
          "ticks": 20663,
          "time": 81.032,
          "velocity": 0.5511811023622047
        },
        {
          "duration": 0.21600000000000819,
          "durationTicks": 54,
          "midi": 91,
          "name": "G6",
          "ticks": 20716,
          "time": 81.24399999999999,
          "velocity": 0.5511811023622047
        },
        {
          "duration": 0.2120000000000033,
          "durationTicks": 53,
          "midi": 88,
          "name": "E6",
          "ticks": 20770,
          "time": 81.46,
          "velocity": 0.5511811023622047
        },
        {
          "duration": 0.21599999999999397,
          "durationTicks": 54,
          "midi": 88,
          "name": "E6",
          "ticks": 20823,
          "time": 81.672,
          "velocity": 0.5511811023622047
        },
        {
          "duration": 0.2120000000000033,
          "durationTicks": 53,
          "midi": 91,
          "name": "G6",
          "ticks": 20877,
          "time": 81.88799999999999,
          "velocity": 0.5511811023622047
        },
        {
          "duration": 0.21600000000000819,
          "durationTicks": 54,
          "midi": 91,
          "name": "G6",
          "ticks": 20930,
          "time": 82.1,
          "velocity": 0.5511811023622047
        },
        {
          "duration": 0.21599999999999397,
          "durationTicks": 54,
          "midi": 88,
          "name": "E6",
          "ticks": 20984,
          "time": 82.316,
          "velocity": 0.5511811023622047
        },
        {
          "duration": 0.21199999999998909,
          "durationTicks": 53,
          "midi": 88,
          "name": "E6",
          "ticks": 21038,
          "time": 82.532,
          "velocity": 0.5511811023622047
        },
        {
          "duration": 0.21600000000000819,
          "durationTicks": 54,
          "midi": 83,
          "name": "B5",
          "ticks": 21091,
          "time": 82.74399999999999,
          "velocity": 0.5511811023622047
        },
        {
          "duration": 0.2120000000000033,
          "durationTicks": 53,
          "midi": 83,
          "name": "B5",
          "ticks": 21145,
          "time": 82.96,
          "velocity": 0.5511811023622047
        },
        {
          "duration": 0.21599999999999397,
          "durationTicks": 54,
          "midi": 79,
          "name": "G5",
          "ticks": 21198,
          "time": 83.172,
          "velocity": 0.5511811023622047
        },
        {
          "duration": 0.2120000000000033,
          "durationTicks": 53,
          "midi": 79,
          "name": "G5",
          "ticks": 21252,
          "time": 83.38799999999999,
          "velocity": 0.5511811023622047
        },
        {
          "duration": 0.21199999999998909,
          "durationTicks": 53,
          "midi": 72,
          "name": "C5",
          "ticks": 21413,
          "time": 84.032,
          "velocity": 0.31496062992125984
        },
        {
          "duration": 0.21600000000000819,
          "durationTicks": 54,
          "midi": 74,
          "name": "D5",
          "ticks": 21466,
          "time": 84.24399999999999,
          "velocity": 0.31496062992125984
        },
        {
          "duration": 0.2120000000000033,
          "durationTicks": 53,
          "midi": 72,
          "name": "C5",
          "ticks": 21520,
          "time": 84.46,
          "velocity": 0.31496062992125984
        },
        {
          "duration": 0.21599999999999397,
          "durationTicks": 54,
          "midi": 74,
          "name": "D5",
          "ticks": 21573,
          "time": 84.672,
          "velocity": 0.31496062992125984
        },
        {
          "duration": 0.2120000000000033,
          "durationTicks": 53,
          "midi": 72,
          "name": "C5",
          "ticks": 21627,
          "time": 84.88799999999999,
          "velocity": 0.31496062992125984
        },
        {
          "duration": 0.21600000000000819,
          "durationTicks": 54,
          "midi": 74,
          "name": "D5",
          "ticks": 21680,
          "time": 85.1,
          "velocity": 0.31496062992125984
        },
        {
          "duration": 0.21600000000000819,
          "durationTicks": 54,
          "midi": 72,
          "name": "C5",
          "ticks": 21841,
          "time": 85.74399999999999,
          "velocity": 0.31496062992125984
        },
        {
          "duration": 0.2120000000000033,
          "durationTicks": 53,
          "midi": 74,
          "name": "D5",
          "ticks": 21895,
          "time": 85.96,
          "velocity": 0.31496062992125984
        },
        {
          "duration": 0.21599999999999397,
          "durationTicks": 54,
          "midi": 72,
          "name": "C5",
          "ticks": 21948,
          "time": 86.172,
          "velocity": 0.31496062992125984
        },
        {
          "duration": 0.2120000000000033,
          "durationTicks": 53,
          "midi": 74,
          "name": "D5",
          "ticks": 22002,
          "time": 86.38799999999999,
          "velocity": 0.31496062992125984
        },
        {
          "duration": 0.21600000000000819,
          "durationTicks": 54,
          "midi": 72,
          "name": "C5",
          "ticks": 22055,
          "time": 86.6,
          "velocity": 0.31496062992125984
        },
        {
          "duration": 0.21599999999999397,
          "durationTicks": 54,
          "midi": 74,
          "name": "D5",
          "ticks": 22109,
          "time": 86.816,
          "velocity": 0.31496062992125984
        },
        {
          "duration": 0.2120000000000033,
          "durationTicks": 53,
          "midi": 72,
          "name": "C5",
          "ticks": 22270,
          "time": 87.46,
          "velocity": 0.31496062992125984
        },
        {
          "duration": 0.21599999999999397,
          "durationTicks": 54,
          "midi": 74,
          "name": "D5",
          "ticks": 22323,
          "time": 87.672,
          "velocity": 0.31496062992125984
        },
        {
          "duration": 0.2120000000000033,
          "durationTicks": 53,
          "midi": 72,
          "name": "C5",
          "ticks": 22377,
          "time": 87.88799999999999,
          "velocity": 0.31496062992125984
        },
        {
          "duration": 0.21600000000000819,
          "durationTicks": 54,
          "midi": 74,
          "name": "D5",
          "ticks": 22430,
          "time": 88.1,
          "velocity": 0.31496062992125984
        },
        {
          "duration": 0.21599999999999397,
          "durationTicks": 54,
          "midi": 72,
          "name": "C5",
          "ticks": 22484,
          "time": 88.316,
          "velocity": 0.31496062992125984
        },
        {
          "duration": 0.21199999999998909,
          "durationTicks": 53,
          "midi": 74,
          "name": "D5",
          "ticks": 22538,
          "time": 88.532,
          "velocity": 0.31496062992125984
        },
        {
          "duration": 0.21599999999999397,
          "durationTicks": 54,
          "midi": 72,
          "name": "C5",
          "ticks": 22698,
          "time": 89.172,
          "velocity": 0.31496062992125984
        },
        {
          "duration": 0.2120000000000033,
          "durationTicks": 53,
          "midi": 74,
          "name": "D5",
          "ticks": 22752,
          "time": 89.38799999999999,
          "velocity": 0.31496062992125984
        },
        {
          "duration": 0.21600000000000819,
          "durationTicks": 54,
          "midi": 72,
          "name": "C5",
          "ticks": 22805,
          "time": 89.6,
          "velocity": 0.31496062992125984
        },
        {
          "duration": 0.21599999999999397,
          "durationTicks": 54,
          "midi": 74,
          "name": "D5",
          "ticks": 22859,
          "time": 89.816,
          "velocity": 0.31496062992125984
        },
        {
          "duration": 0.21199999999998909,
          "durationTicks": 53,
          "midi": 72,
          "name": "C5",
          "ticks": 22913,
          "time": 90.032,
          "velocity": 0.31496062992125984
        },
        {
          "duration": 0.21600000000000819,
          "durationTicks": 54,
          "midi": 74,
          "name": "D5",
          "ticks": 22966,
          "time": 90.24399999999999,
          "velocity": 0.31496062992125984
        },
        {
          "duration": 0.2120000000000033,
          "durationTicks": 53,
          "midi": 71,
          "name": "B4",
          "ticks": 23127,
          "time": 90.88799999999999,
          "velocity": 0.31496062992125984
        },
        {
          "duration": 0.21600000000000819,
          "durationTicks": 54,
          "midi": 72,
          "name": "C5",
          "ticks": 23180,
          "time": 91.1,
          "velocity": 0.31496062992125984
        },
        {
          "duration": 0.21599999999999397,
          "durationTicks": 54,
          "midi": 71,
          "name": "B4",
          "ticks": 23234,
          "time": 91.316,
          "velocity": 0.31496062992125984
        },
        {
          "duration": 0.21199999999998909,
          "durationTicks": 53,
          "midi": 72,
          "name": "C5",
          "ticks": 23288,
          "time": 91.532,
          "velocity": 0.31496062992125984
        },
        {
          "duration": 0.21600000000000819,
          "durationTicks": 54,
          "midi": 71,
          "name": "B4",
          "ticks": 23341,
          "time": 91.74399999999999,
          "velocity": 0.31496062992125984
        },
        {
          "duration": 0.2120000000000033,
          "durationTicks": 53,
          "midi": 72,
          "name": "C5",
          "ticks": 23395,
          "time": 91.96,
          "velocity": 0.31496062992125984
        },
        {
          "duration": 0.21600000000000819,
          "durationTicks": 54,
          "midi": 71,
          "name": "B4",
          "ticks": 23555,
          "time": 92.6,
          "velocity": 0.31496062992125984
        },
        {
          "duration": 0.21599999999999397,
          "durationTicks": 54,
          "midi": 72,
          "name": "C5",
          "ticks": 23609,
          "time": 92.816,
          "velocity": 0.31496062992125984
        },
        {
          "duration": 0.21199999999998909,
          "durationTicks": 53,
          "midi": 71,
          "name": "B4",
          "ticks": 23663,
          "time": 93.032,
          "velocity": 0.31496062992125984
        },
        {
          "duration": 0.21600000000000819,
          "durationTicks": 54,
          "midi": 72,
          "name": "C5",
          "ticks": 23716,
          "time": 93.24399999999999,
          "velocity": 0.31496062992125984
        },
        {
          "duration": 0.2120000000000033,
          "durationTicks": 53,
          "midi": 71,
          "name": "B4",
          "ticks": 23770,
          "time": 93.46,
          "velocity": 0.31496062992125984
        },
        {
          "duration": 0.21599999999999397,
          "durationTicks": 54,
          "midi": 72,
          "name": "C5",
          "ticks": 23823,
          "time": 93.672,
          "velocity": 0.31496062992125984
        },
        {
          "duration": 0.21600000000000819,
          "durationTicks": 54,
          "midi": 72,
          "name": "C5",
          "ticks": 35984,
          "time": 142.316,
          "velocity": 0.31496062992125984
        },
        {
          "duration": 0.21199999999998909,
          "durationTicks": 53,
          "midi": 74,
          "name": "D5",
          "ticks": 36038,
          "time": 142.532,
          "velocity": 0.31496062992125984
        },
        {
          "duration": 0.21600000000000819,
          "durationTicks": 54,
          "midi": 72,
          "name": "C5",
          "ticks": 36091,
          "time": 142.744,
          "velocity": 0.31496062992125984
        },
        {
          "duration": 0.21199999999998909,
          "durationTicks": 53,
          "midi": 74,
          "name": "D5",
          "ticks": 36145,
          "time": 142.96,
          "velocity": 0.31496062992125984
        },
        {
          "duration": 0.21600000000000819,
          "durationTicks": 54,
          "midi": 72,
          "name": "C5",
          "ticks": 36198,
          "time": 143.172,
          "velocity": 0.31496062992125984
        },
        {
          "duration": 0.2120000000000175,
          "durationTicks": 53,
          "midi": 74,
          "name": "D5",
          "ticks": 36252,
          "time": 143.388,
          "velocity": 0.31496062992125984
        },
        {
          "duration": 0.21199999999998909,
          "durationTicks": 53,
          "midi": 72,
          "name": "C5",
          "ticks": 36413,
          "time": 144.032,
          "velocity": 0.31496062992125984
        },
        {
          "duration": 0.21600000000000819,
          "durationTicks": 54,
          "midi": 74,
          "name": "D5",
          "ticks": 36466,
          "time": 144.244,
          "velocity": 0.31496062992125984
        },
        {
          "duration": 0.21199999999998909,
          "durationTicks": 53,
          "midi": 72,
          "name": "C5",
          "ticks": 36520,
          "time": 144.46,
          "velocity": 0.31496062992125984
        },
        {
          "duration": 0.21600000000000819,
          "durationTicks": 54,
          "midi": 74,
          "name": "D5",
          "ticks": 36573,
          "time": 144.672,
          "velocity": 0.31496062992125984
        },
        {
          "duration": 0.2120000000000175,
          "durationTicks": 53,
          "midi": 72,
          "name": "C5",
          "ticks": 36627,
          "time": 144.888,
          "velocity": 0.31496062992125984
        },
        {
          "duration": 0.21599999999997976,
          "durationTicks": 54,
          "midi": 74,
          "name": "D5",
          "ticks": 36680,
          "time": 145.10000000000002,
          "velocity": 0.31496062992125984
        },
        {
          "duration": 0.21600000000000819,
          "durationTicks": 54,
          "midi": 72,
          "name": "C5",
          "ticks": 36841,
          "time": 145.744,
          "velocity": 0.31496062992125984
        },
        {
          "duration": 0.21199999999998909,
          "durationTicks": 53,
          "midi": 74,
          "name": "D5",
          "ticks": 36895,
          "time": 145.96,
          "velocity": 0.31496062992125984
        },
        {
          "duration": 0.21600000000000819,
          "durationTicks": 54,
          "midi": 72,
          "name": "C5",
          "ticks": 36948,
          "time": 146.172,
          "velocity": 0.31496062992125984
        },
        {
          "duration": 0.2120000000000175,
          "durationTicks": 53,
          "midi": 74,
          "name": "D5",
          "ticks": 37002,
          "time": 146.388,
          "velocity": 0.31496062992125984
        },
        {
          "duration": 0.21599999999997976,
          "durationTicks": 54,
          "midi": 72,
          "name": "C5",
          "ticks": 37055,
          "time": 146.60000000000002,
          "velocity": 0.31496062992125984
        },
        {
          "duration": 0.21600000000000819,
          "durationTicks": 54,
          "midi": 74,
          "name": "D5",
          "ticks": 37109,
          "time": 146.816,
          "velocity": 0.31496062992125984
        },
        {
          "duration": 0.21199999999998909,
          "durationTicks": 53,
          "midi": 72,
          "name": "C5",
          "ticks": 37270,
          "time": 147.46,
          "velocity": 0.31496062992125984
        },
        {
          "duration": 0.21600000000000819,
          "durationTicks": 54,
          "midi": 74,
          "name": "D5",
          "ticks": 37323,
          "time": 147.672,
          "velocity": 0.31496062992125984
        },
        {
          "duration": 0.2120000000000175,
          "durationTicks": 53,
          "midi": 72,
          "name": "C5",
          "ticks": 37377,
          "time": 147.888,
          "velocity": 0.31496062992125984
        },
        {
          "duration": 0.21599999999997976,
          "durationTicks": 54,
          "midi": 74,
          "name": "D5",
          "ticks": 37430,
          "time": 148.10000000000002,
          "velocity": 0.31496062992125984
        },
        {
          "duration": 0.21600000000000819,
          "durationTicks": 54,
          "midi": 72,
          "name": "C5",
          "ticks": 37484,
          "time": 148.316,
          "velocity": 0.31496062992125984
        },
        {
          "duration": 0.21199999999998909,
          "durationTicks": 53,
          "midi": 74,
          "name": "D5",
          "ticks": 37538,
          "time": 148.532,
          "velocity": 0.31496062992125984
        },
        {
          "duration": 0.21600000000000819,
          "durationTicks": 54,
          "midi": 71,
          "name": "B4",
          "ticks": 37698,
          "time": 149.172,
          "velocity": 0.31496062992125984
        },
        {
          "duration": 0.2120000000000175,
          "durationTicks": 53,
          "midi": 72,
          "name": "C5",
          "ticks": 37752,
          "time": 149.388,
          "velocity": 0.31496062992125984
        },
        {
          "duration": 0.21599999999997976,
          "durationTicks": 54,
          "midi": 71,
          "name": "B4",
          "ticks": 37805,
          "time": 149.60000000000002,
          "velocity": 0.31496062992125984
        },
        {
          "duration": 0.21600000000000819,
          "durationTicks": 54,
          "midi": 72,
          "name": "C5",
          "ticks": 37859,
          "time": 149.816,
          "velocity": 0.31496062992125984
        },
        {
          "duration": 0.21199999999998909,
          "durationTicks": 53,
          "midi": 71,
          "name": "B4",
          "ticks": 37913,
          "time": 150.032,
          "velocity": 0.31496062992125984
        },
        {
          "duration": 0.21600000000000819,
          "durationTicks": 54,
          "midi": 72,
          "name": "C5",
          "ticks": 37966,
          "time": 150.244,
          "velocity": 0.31496062992125984
        },
        {
          "duration": 0.2120000000000175,
          "durationTicks": 53,
          "midi": 71,
          "name": "B4",
          "ticks": 38127,
          "time": 150.888,
          "velocity": 0.31496062992125984
        },
        {
          "duration": 0.21599999999997976,
          "durationTicks": 54,
          "midi": 72,
          "name": "C5",
          "ticks": 38180,
          "time": 151.10000000000002,
          "velocity": 0.31496062992125984
        },
        {
          "duration": 0.21600000000000819,
          "durationTicks": 54,
          "midi": 71,
          "name": "B4",
          "ticks": 38234,
          "time": 151.316,
          "velocity": 0.31496062992125984
        },
        {
          "duration": 0.21199999999998909,
          "durationTicks": 53,
          "midi": 72,
          "name": "C5",
          "ticks": 38288,
          "time": 151.532,
          "velocity": 0.31496062992125984
        },
        {
          "duration": 0.21600000000000819,
          "durationTicks": 54,
          "midi": 71,
          "name": "B4",
          "ticks": 38341,
          "time": 151.744,
          "velocity": 0.31496062992125984
        },
        {
          "duration": 0.21199999999998909,
          "durationTicks": 53,
          "midi": 72,
          "name": "C5",
          "ticks": 38395,
          "time": 151.96,
          "velocity": 0.31496062992125984
        },
        {
          "duration": 0.21599999999997976,
          "durationTicks": 54,
          "midi": 95,
          "name": "B6",
          "ticks": 38555,
          "time": 152.60000000000002,
          "velocity": 0.5511811023622047
        },
        {
          "duration": 0.21600000000000819,
          "durationTicks": 54,
          "midi": 95,
          "name": "B6",
          "ticks": 38609,
          "time": 152.816,
          "velocity": 0.5511811023622047
        },
        {
          "duration": 0.21199999999998909,
          "durationTicks": 53,
          "midi": 91,
          "name": "G6",
          "ticks": 38663,
          "time": 153.032,
          "velocity": 0.5511811023622047
        },
        {
          "duration": 0.21600000000000819,
          "durationTicks": 54,
          "midi": 91,
          "name": "G6",
          "ticks": 38716,
          "time": 153.244,
          "velocity": 0.5511811023622047
        },
        {
          "duration": 0.21199999999998909,
          "durationTicks": 53,
          "midi": 88,
          "name": "E6",
          "ticks": 38770,
          "time": 153.46,
          "velocity": 0.5511811023622047
        },
        {
          "duration": 0.21600000000000819,
          "durationTicks": 54,
          "midi": 88,
          "name": "E6",
          "ticks": 38823,
          "time": 153.672,
          "velocity": 0.5511811023622047
        },
        {
          "duration": 0.2120000000000175,
          "durationTicks": 53,
          "midi": 91,
          "name": "G6",
          "ticks": 38877,
          "time": 153.888,
          "velocity": 0.5511811023622047
        },
        {
          "duration": 0.21599999999997976,
          "durationTicks": 54,
          "midi": 91,
          "name": "G6",
          "ticks": 38930,
          "time": 154.10000000000002,
          "velocity": 0.5511811023622047
        },
        {
          "duration": 0.21600000000000819,
          "durationTicks": 54,
          "midi": 88,
          "name": "E6",
          "ticks": 38984,
          "time": 154.316,
          "velocity": 0.5511811023622047
        },
        {
          "duration": 0.21199999999998909,
          "durationTicks": 53,
          "midi": 88,
          "name": "E6",
          "ticks": 39038,
          "time": 154.532,
          "velocity": 0.5511811023622047
        },
        {
          "duration": 0.21600000000000819,
          "durationTicks": 54,
          "midi": 83,
          "name": "B5",
          "ticks": 39091,
          "time": 154.744,
          "velocity": 0.5511811023622047
        },
        {
          "duration": 0.21199999999998909,
          "durationTicks": 53,
          "midi": 83,
          "name": "B5",
          "ticks": 39145,
          "time": 154.96,
          "velocity": 0.5511811023622047
        },
        {
          "duration": 0.21600000000000819,
          "durationTicks": 54,
          "midi": 79,
          "name": "G5",
          "ticks": 39198,
          "time": 155.172,
          "velocity": 0.5511811023622047
        },
        {
          "duration": 0.2120000000000175,
          "durationTicks": 53,
          "midi": 79,
          "name": "G5",
          "ticks": 39252,
          "time": 155.388,
          "velocity": 0.5511811023622047
        },
        {
          "duration": 0.21199999999998909,
          "durationTicks": 53,
          "midi": 72,
          "name": "C5",
          "ticks": 39413,
          "time": 156.032,
          "velocity": 0.31496062992125984
        },
        {
          "duration": 0.21600000000000819,
          "durationTicks": 54,
          "midi": 74,
          "name": "D5",
          "ticks": 39466,
          "time": 156.244,
          "velocity": 0.31496062992125984
        },
        {
          "duration": 0.21199999999998909,
          "durationTicks": 53,
          "midi": 72,
          "name": "C5",
          "ticks": 39520,
          "time": 156.46,
          "velocity": 0.31496062992125984
        },
        {
          "duration": 0.21600000000000819,
          "durationTicks": 54,
          "midi": 74,
          "name": "D5",
          "ticks": 39573,
          "time": 156.672,
          "velocity": 0.31496062992125984
        },
        {
          "duration": 0.2120000000000175,
          "durationTicks": 53,
          "midi": 72,
          "name": "C5",
          "ticks": 39627,
          "time": 156.888,
          "velocity": 0.31496062992125984
        },
        {
          "duration": 0.21599999999997976,
          "durationTicks": 54,
          "midi": 74,
          "name": "D5",
          "ticks": 39680,
          "time": 157.10000000000002,
          "velocity": 0.31496062992125984
        },
        {
          "duration": 0.21600000000000819,
          "durationTicks": 54,
          "midi": 72,
          "name": "C5",
          "ticks": 39841,
          "time": 157.744,
          "velocity": 0.31496062992125984
        },
        {
          "duration": 0.21199999999998909,
          "durationTicks": 53,
          "midi": 74,
          "name": "D5",
          "ticks": 39895,
          "time": 157.96,
          "velocity": 0.31496062992125984
        },
        {
          "duration": 0.21600000000000819,
          "durationTicks": 54,
          "midi": 72,
          "name": "C5",
          "ticks": 39948,
          "time": 158.172,
          "velocity": 0.31496062992125984
        },
        {
          "duration": 0.2120000000000175,
          "durationTicks": 53,
          "midi": 74,
          "name": "D5",
          "ticks": 40002,
          "time": 158.388,
          "velocity": 0.31496062992125984
        },
        {
          "duration": 0.21599999999997976,
          "durationTicks": 54,
          "midi": 72,
          "name": "C5",
          "ticks": 40055,
          "time": 158.60000000000002,
          "velocity": 0.31496062992125984
        },
        {
          "duration": 0.21600000000000819,
          "durationTicks": 54,
          "midi": 74,
          "name": "D5",
          "ticks": 40109,
          "time": 158.816,
          "velocity": 0.31496062992125984
        },
        {
          "duration": 0.21199999999998909,
          "durationTicks": 53,
          "midi": 72,
          "name": "C5",
          "ticks": 40270,
          "time": 159.46,
          "velocity": 0.31496062992125984
        },
        {
          "duration": 0.21600000000000819,
          "durationTicks": 54,
          "midi": 74,
          "name": "D5",
          "ticks": 40323,
          "time": 159.672,
          "velocity": 0.31496062992125984
        },
        {
          "duration": 0.2120000000000175,
          "durationTicks": 53,
          "midi": 72,
          "name": "C5",
          "ticks": 40377,
          "time": 159.888,
          "velocity": 0.31496062992125984
        },
        {
          "duration": 0.21599999999997976,
          "durationTicks": 54,
          "midi": 74,
          "name": "D5",
          "ticks": 40430,
          "time": 160.10000000000002,
          "velocity": 0.31496062992125984
        },
        {
          "duration": 0.21600000000000819,
          "durationTicks": 54,
          "midi": 72,
          "name": "C5",
          "ticks": 40484,
          "time": 160.316,
          "velocity": 0.31496062992125984
        },
        {
          "duration": 0.21199999999998909,
          "durationTicks": 53,
          "midi": 74,
          "name": "D5",
          "ticks": 40538,
          "time": 160.532,
          "velocity": 0.31496062992125984
        },
        {
          "duration": 0.21600000000000819,
          "durationTicks": 54,
          "midi": 72,
          "name": "C5",
          "ticks": 40698,
          "time": 161.172,
          "velocity": 0.31496062992125984
        },
        {
          "duration": 0.2120000000000175,
          "durationTicks": 53,
          "midi": 74,
          "name": "D5",
          "ticks": 40752,
          "time": 161.388,
          "velocity": 0.31496062992125984
        },
        {
          "duration": 0.21599999999997976,
          "durationTicks": 54,
          "midi": 72,
          "name": "C5",
          "ticks": 40805,
          "time": 161.60000000000002,
          "velocity": 0.31496062992125984
        },
        {
          "duration": 0.21600000000000819,
          "durationTicks": 54,
          "midi": 74,
          "name": "D5",
          "ticks": 40859,
          "time": 161.816,
          "velocity": 0.31496062992125984
        },
        {
          "duration": 0.21199999999998909,
          "durationTicks": 53,
          "midi": 72,
          "name": "C5",
          "ticks": 40913,
          "time": 162.032,
          "velocity": 0.31496062992125984
        },
        {
          "duration": 0.21600000000000819,
          "durationTicks": 54,
          "midi": 74,
          "name": "D5",
          "ticks": 40966,
          "time": 162.244,
          "velocity": 0.31496062992125984
        },
        {
          "duration": 0.2120000000000175,
          "durationTicks": 53,
          "midi": 71,
          "name": "B4",
          "ticks": 41127,
          "time": 162.888,
          "velocity": 0.31496062992125984
        },
        {
          "duration": 0.21599999999997976,
          "durationTicks": 54,
          "midi": 72,
          "name": "C5",
          "ticks": 41180,
          "time": 163.10000000000002,
          "velocity": 0.31496062992125984
        },
        {
          "duration": 0.21600000000000819,
          "durationTicks": 54,
          "midi": 71,
          "name": "B4",
          "ticks": 41234,
          "time": 163.316,
          "velocity": 0.31496062992125984
        },
        {
          "duration": 0.21199999999998909,
          "durationTicks": 53,
          "midi": 72,
          "name": "C5",
          "ticks": 41288,
          "time": 163.532,
          "velocity": 0.31496062992125984
        },
        {
          "duration": 0.21600000000000819,
          "durationTicks": 54,
          "midi": 71,
          "name": "B4",
          "ticks": 41341,
          "time": 163.744,
          "velocity": 0.31496062992125984
        },
        {
          "duration": 0.21199999999998909,
          "durationTicks": 53,
          "midi": 72,
          "name": "C5",
          "ticks": 41395,
          "time": 163.96,
          "velocity": 0.31496062992125984
        },
        {
          "duration": 0.21599999999997976,
          "durationTicks": 54,
          "midi": 71,
          "name": "B4",
          "ticks": 41555,
          "time": 164.60000000000002,
          "velocity": 0.31496062992125984
        },
        {
          "duration": 0.21600000000000819,
          "durationTicks": 54,
          "midi": 72,
          "name": "C5",
          "ticks": 41609,
          "time": 164.816,
          "velocity": 0.31496062992125984
        },
        {
          "duration": 0.21199999999998909,
          "durationTicks": 53,
          "midi": 71,
          "name": "B4",
          "ticks": 41663,
          "time": 165.032,
          "velocity": 0.31496062992125984
        },
        {
          "duration": 0.21600000000000819,
          "durationTicks": 54,
          "midi": 72,
          "name": "C5",
          "ticks": 41716,
          "time": 165.244,
          "velocity": 0.31496062992125984
        },
        {
          "duration": 0.21199999999998909,
          "durationTicks": 53,
          "midi": 71,
          "name": "B4",
          "ticks": 41770,
          "time": 165.46,
          "velocity": 0.31496062992125984
        },
        {
          "duration": 0.21600000000000819,
          "durationTicks": 54,
          "midi": 72,
          "name": "C5",
          "ticks": 41823,
          "time": 165.672,
          "velocity": 0.31496062992125984
        }
      ]
    },
    {
      "channel": 0,
      "controlChanges": {
        "1": [
          {
            "number": 1,
            "ticks": 7444,
            "time": 28.156,
            "value": 0
          },
          {
            "number": 1,
            "ticks": 25444,
            "time": 100.15599999999999,
            "value": 0
          },
          {
            "number": 1,
            "ticks": 43444,
            "time": 172.156,
            "value": 0
          }
        ],
        "11": [
          {
            "number": 11,
            "ticks": 16886,
            "time": 65.92399999999999,
            "value": 0.7559055118110236
          },
          {
            "number": 11,
            "ticks": 34886,
            "time": 137.924,
            "value": 0.7559055118110236
          }
        ],
        "120": [
          {
            "number": 120,
            "ticks": 43457,
            "time": 172.208,
            "value": 0
          }
        ]
      },
      "pitchBends": [],
      "instrument": {
        "family": "synth lead",
        "number": 81,
        "name": "lead 2 (sawtooth)"
      },
      "name": "",
      "notes": [
        {
          "duration": 3.428000000000001,
          "durationTicks": 857,
          "midi": 40,
          "name": "E2",
          "ticks": 7457,
          "time": 28.208,
          "velocity": 0.5039370078740157
        },
        {
          "duration": 3.4279999999999937,
          "durationTicks": 857,
          "midi": 40,
          "name": "E2",
          "ticks": 8314,
          "time": 31.636,
          "velocity": 0.5039370078740157
        },
        {
          "duration": 3.432000000000002,
          "durationTicks": 858,
          "midi": 40,
          "name": "E2",
          "ticks": 9171,
          "time": 35.06399999999999,
          "velocity": 0.5039370078740157
        },
        {
          "duration": 3.4280000000000044,
          "durationTicks": 857,
          "midi": 40,
          "name": "E2",
          "ticks": 10029,
          "time": 38.495999999999995,
          "velocity": 0.5039370078740157
        },
        {
          "duration": 3.4279999999999973,
          "durationTicks": 857,
          "midi": 41,
          "name": "F2",
          "ticks": 10886,
          "time": 41.924,
          "velocity": 0.5039370078740157
        },
        {
          "duration": 3.4279999999999973,
          "durationTicks": 857,
          "midi": 41,
          "name": "F2",
          "ticks": 11743,
          "time": 45.352,
          "velocity": 0.5039370078740157
        },
        {
          "duration": 3.4279999999999973,
          "durationTicks": 857,
          "midi": 40,
          "name": "E2",
          "ticks": 12600,
          "time": 48.779999999999994,
          "velocity": 0.5039370078740157
        },
        {
          "duration": 3.4280000000000044,
          "durationTicks": 857,
          "midi": 40,
          "name": "E2",
          "ticks": 13457,
          "time": 52.20799999999999,
          "velocity": 0.5039370078740157
        },
        {
          "duration": 3.4279999999999973,
          "durationTicks": 857,
          "midi": 41,
          "name": "F2",
          "ticks": 14314,
          "time": 55.635999999999996,
          "velocity": 0.5039370078740157
        },
        {
          "duration": 3.431999999999995,
          "durationTicks": 858,
          "midi": 41,
          "name": "F2",
          "ticks": 15171,
          "time": 59.06399999999999,
          "velocity": 0.5039370078740157
        },
        {
          "duration": 3.4280000000000044,
          "durationTicks": 857,
          "midi": 40,
          "name": "E2",
          "ticks": 16029,
          "time": 62.49599999999999,
          "velocity": 0.5039370078740157
        },
        {
          "duration": 37.712,
          "durationTicks": 9428,
          "midi": 40,
          "name": "E2",
          "ticks": 16886,
          "time": 65.92399999999999,
          "velocity": 0.5039370078740157
        },
        {
          "duration": 6.8559999999999945,
          "durationTicks": 1714,
          "midi": 40,
          "name": "E2",
          "ticks": 25457,
          "time": 100.208,
          "velocity": 0.5039370078740157
        },
        {
          "duration": 6.859999999999985,
          "durationTicks": 1715,
          "midi": 40,
          "name": "E2",
          "ticks": 26314,
          "time": 103.636,
          "velocity": 0.5039370078740157
        },
        {
          "duration": 6.859999999999999,
          "durationTicks": 1715,
          "midi": 40,
          "name": "E2",
          "ticks": 27171,
          "time": 107.064,
          "velocity": 0.5039370078740157
        },
        {
          "duration": 13.712000000000003,
          "durationTicks": 3428,
          "midi": 40,
          "name": "E2",
          "ticks": 28029,
          "time": 110.49599999999998,
          "velocity": 0.5039370078740157
        },
        {
          "duration": 3.4279999999999973,
          "durationTicks": 857,
          "midi": 41,
          "name": "F2",
          "ticks": 28886,
          "time": 113.92399999999999,
          "velocity": 0.5039370078740157
        },
        {
          "duration": 3.4279999999999973,
          "durationTicks": 857,
          "midi": 41,
          "name": "F2",
          "ticks": 29743,
          "time": 117.35199999999999,
          "velocity": 0.5039370078740157
        },
        {
          "duration": 6.856000000000023,
          "durationTicks": 1714,
          "midi": 40,
          "name": "E2",
          "ticks": 30600,
          "time": 120.77999999999999,
          "velocity": 0.5039370078740157
        },
        {
          "duration": 13.716000000000022,
          "durationTicks": 3429,
          "midi": 40,
          "name": "E2",
          "ticks": 31457,
          "time": 124.20799999999998,
          "velocity": 0.5039370078740157
        },
        {
          "duration": 3.4280000000000115,
          "durationTicks": 857,
          "midi": 41,
          "name": "F2",
          "ticks": 32314,
          "time": 127.63600000000001,
          "velocity": 0.5039370078740157
        },
        {
          "duration": 3.431999999999988,
          "durationTicks": 858,
          "midi": 41,
          "name": "F2",
          "ticks": 33171,
          "time": 131.06400000000002,
          "velocity": 0.5039370078740157
        }
      ]
    },
    {
      "channel": 1,
      "controlChanges": {
        "1": [
          {
            "number": 1,
            "ticks": 7444,
            "time": 28.156,
            "value": 0
          },
          {
            "number": 1,
            "ticks": 25444,
            "time": 100.15599999999999,
            "value": 0
          },
          {
            "number": 1,
            "ticks": 43444,
            "time": 172.156,
            "value": 0
          }
        ],
        "11": [
          {
            "number": 11,
            "ticks": 16886,
            "time": 65.92399999999999,
            "value": 0.7559055118110236
          },
          {
            "number": 11,
            "ticks": 34886,
            "time": 137.924,
            "value": 0.7559055118110236
          }
        ],
        "120": [
          {
            "number": 120,
            "ticks": 43457,
            "time": 172.208,
            "value": 0
          }
        ]
      },
      "pitchBends": [],
      "instrument": {
        "family": "synth lead",
        "number": 81,
        "name": "lead 2 (sawtooth)"
      },
      "name": "",
      "notes": [
        {
          "duration": 3.428000000000001,
          "durationTicks": 857,
          "midi": 40,
          "name": "E2",
          "ticks": 7457,
          "time": 28.208,
          "velocity": 0.5039370078740157
        },
        {
          "duration": 3.4279999999999937,
          "durationTicks": 857,
          "midi": 40,
          "name": "E2",
          "ticks": 8314,
          "time": 31.636,
          "velocity": 0.5039370078740157
        },
        {
          "duration": 3.432000000000002,
          "durationTicks": 858,
          "midi": 40,
          "name": "E2",
          "ticks": 9171,
          "time": 35.06399999999999,
          "velocity": 0.5039370078740157
        },
        {
          "duration": 3.4280000000000044,
          "durationTicks": 857,
          "midi": 40,
          "name": "E2",
          "ticks": 10029,
          "time": 38.495999999999995,
          "velocity": 0.5039370078740157
        },
        {
          "duration": 3.4279999999999973,
          "durationTicks": 857,
          "midi": 41,
          "name": "F2",
          "ticks": 10886,
          "time": 41.924,
          "velocity": 0.5039370078740157
        },
        {
          "duration": 3.4279999999999973,
          "durationTicks": 857,
          "midi": 41,
          "name": "F2",
          "ticks": 11743,
          "time": 45.352,
          "velocity": 0.5039370078740157
        },
        {
          "duration": 3.4279999999999973,
          "durationTicks": 857,
          "midi": 40,
          "name": "E2",
          "ticks": 12600,
          "time": 48.779999999999994,
          "velocity": 0.5039370078740157
        },
        {
          "duration": 3.4280000000000044,
          "durationTicks": 857,
          "midi": 40,
          "name": "E2",
          "ticks": 13457,
          "time": 52.20799999999999,
          "velocity": 0.5039370078740157
        },
        {
          "duration": 3.4279999999999973,
          "durationTicks": 857,
          "midi": 41,
          "name": "F2",
          "ticks": 14314,
          "time": 55.635999999999996,
          "velocity": 0.5039370078740157
        },
        {
          "duration": 3.431999999999995,
          "durationTicks": 858,
          "midi": 41,
          "name": "F2",
          "ticks": 15171,
          "time": 59.06399999999999,
          "velocity": 0.5039370078740157
        },
        {
          "duration": 3.4280000000000044,
          "durationTicks": 857,
          "midi": 40,
          "name": "E2",
          "ticks": 16029,
          "time": 62.49599999999999,
          "velocity": 0.5039370078740157
        },
        {
          "duration": 37.712,
          "durationTicks": 9428,
          "midi": 40,
          "name": "E2",
          "ticks": 16886,
          "time": 65.92399999999999,
          "velocity": 0.5039370078740157
        },
        {
          "duration": 6.8559999999999945,
          "durationTicks": 1714,
          "midi": 40,
          "name": "E2",
          "ticks": 25457,
          "time": 100.208,
          "velocity": 0.5039370078740157
        },
        {
          "duration": 6.859999999999985,
          "durationTicks": 1715,
          "midi": 40,
          "name": "E2",
          "ticks": 26314,
          "time": 103.636,
          "velocity": 0.5039370078740157
        },
        {
          "duration": 6.859999999999999,
          "durationTicks": 1715,
          "midi": 40,
          "name": "E2",
          "ticks": 27171,
          "time": 107.064,
          "velocity": 0.5039370078740157
        },
        {
          "duration": 13.712000000000003,
          "durationTicks": 3428,
          "midi": 40,
          "name": "E2",
          "ticks": 28029,
          "time": 110.49599999999998,
          "velocity": 0.5039370078740157
        },
        {
          "duration": 3.4279999999999973,
          "durationTicks": 857,
          "midi": 41,
          "name": "F2",
          "ticks": 28886,
          "time": 113.92399999999999,
          "velocity": 0.5039370078740157
        },
        {
          "duration": 3.4279999999999973,
          "durationTicks": 857,
          "midi": 41,
          "name": "F2",
          "ticks": 29743,
          "time": 117.35199999999999,
          "velocity": 0.5039370078740157
        },
        {
          "duration": 6.856000000000023,
          "durationTicks": 1714,
          "midi": 40,
          "name": "E2",
          "ticks": 30600,
          "time": 120.77999999999999,
          "velocity": 0.5039370078740157
        },
        {
          "duration": 13.716000000000022,
          "durationTicks": 3429,
          "midi": 40,
          "name": "E2",
          "ticks": 31457,
          "time": 124.20799999999998,
          "velocity": 0.5039370078740157
        },
        {
          "duration": 3.4280000000000115,
          "durationTicks": 857,
          "midi": 41,
          "name": "F2",
          "ticks": 32314,
          "time": 127.63600000000001,
          "velocity": 0.5039370078740157
        },
        {
          "duration": 3.431999999999988,
          "durationTicks": 858,
          "midi": 41,
          "name": "F2",
          "ticks": 33171,
          "time": 131.06400000000002,
          "velocity": 0.5039370078740157
        }
      ]
    },
    {
      "channel": 5,
      "controlChanges": {
        "1": [
          {
            "number": 1,
            "ticks": 9158,
            "time": 35.01199999999999,
            "value": 0.06299212598425197
          }
        ]
      },
      "pitchBends": [],
      "instrument": {
        "family": "piano",
        "number": 0,
        "name": "acoustic grand piano"
      },
      "name": "",
      "notes": [
        {
          "duration": 0.21600000000000108,
          "durationTicks": 54,
          "midi": 78,
          "name": "F#5",
          "ticks": 9171,
          "time": 35.06399999999999,
          "velocity": 0.7559055118110236
        },
        {
          "duration": 0.21600000000000108,
          "durationTicks": 54,
          "midi": 90,
          "name": "F#6",
          "ticks": 9171,
          "time": 35.06399999999999,
          "velocity": 0.7559055118110236
        },
        {
          "duration": 0.21600000000000108,
          "durationTicks": 54,
          "midi": 76,
          "name": "E5",
          "ticks": 9225,
          "time": 35.279999999999994,
          "velocity": 0.7559055118110236
        },
        {
          "duration": 0.21600000000000108,
          "durationTicks": 54,
          "midi": 88,
          "name": "E6",
          "ticks": 9225,
          "time": 35.279999999999994,
          "velocity": 0.7559055118110236
        },
        {
          "duration": 0.2120000000000033,
          "durationTicks": 53,
          "midi": 78,
          "name": "F#5",
          "ticks": 9279,
          "time": 35.495999999999995,
          "velocity": 0.7559055118110236
        },
        {
          "duration": 0.2120000000000033,
          "durationTicks": 53,
          "midi": 90,
          "name": "F#6",
          "ticks": 9279,
          "time": 35.495999999999995,
          "velocity": 0.7559055118110236
        },
        {
          "duration": 0.21600000000000108,
          "durationTicks": 54,
          "midi": 83,
          "name": "B5",
          "ticks": 9332,
          "time": 35.708,
          "velocity": 0.7559055118110236
        },
        {
          "duration": 0.21600000000000108,
          "durationTicks": 54,
          "midi": 95,
          "name": "B6",
          "ticks": 9332,
          "time": 35.708,
          "velocity": 0.7559055118110236
        },
        {
          "duration": 1.7119999999999962,
          "durationTicks": 428,
          "midi": 78,
          "name": "F#5",
          "ticks": 9386,
          "time": 35.924,
          "velocity": 0.7559055118110236
        },
        {
          "duration": 1.7119999999999962,
          "durationTicks": 428,
          "midi": 90,
          "name": "F#6",
          "ticks": 9386,
          "time": 35.924,
          "velocity": 0.7559055118110236
        },
        {
          "duration": 0.8599999999999994,
          "durationTicks": 215,
          "midi": 76,
          "name": "E5",
          "ticks": 9814,
          "time": 37.635999999999996,
          "velocity": 0.7559055118110236
        },
        {
          "duration": 0.8599999999999994,
          "durationTicks": 215,
          "midi": 88,
          "name": "E6",
          "ticks": 9814,
          "time": 37.635999999999996,
          "velocity": 0.7559055118110236
        },
        {
          "duration": 0.2120000000000033,
          "durationTicks": 53,
          "midi": 78,
          "name": "F#5",
          "ticks": 10029,
          "time": 38.495999999999995,
          "velocity": 0.7559055118110236
        },
        {
          "duration": 0.2120000000000033,
          "durationTicks": 53,
          "midi": 90,
          "name": "F#6",
          "ticks": 10029,
          "time": 38.495999999999995,
          "velocity": 0.7559055118110236
        },
        {
          "duration": 0.21600000000000108,
          "durationTicks": 54,
          "midi": 76,
          "name": "E5",
          "ticks": 10082,
          "time": 38.708,
          "velocity": 0.7559055118110236
        },
        {
          "duration": 0.21600000000000108,
          "durationTicks": 54,
          "midi": 88,
          "name": "E6",
          "ticks": 10082,
          "time": 38.708,
          "velocity": 0.7559055118110236
        },
        {
          "duration": 0.2119999999999962,
          "durationTicks": 53,
          "midi": 78,
          "name": "F#5",
          "ticks": 10136,
          "time": 38.924,
          "velocity": 0.7559055118110236
        },
        {
          "duration": 0.2119999999999962,
          "durationTicks": 53,
          "midi": 90,
          "name": "F#6",
          "ticks": 10136,
          "time": 38.924,
          "velocity": 0.7559055118110236
        },
        {
          "duration": 0.21600000000000108,
          "durationTicks": 54,
          "midi": 83,
          "name": "B5",
          "ticks": 10189,
          "time": 39.135999999999996,
          "velocity": 0.7559055118110236
        },
        {
          "duration": 0.21600000000000108,
          "durationTicks": 54,
          "midi": 95,
          "name": "B6",
          "ticks": 10189,
          "time": 39.135999999999996,
          "velocity": 0.7559055118110236
        },
        {
          "duration": 1.7119999999999962,
          "durationTicks": 428,
          "midi": 78,
          "name": "F#5",
          "ticks": 10243,
          "time": 39.352,
          "velocity": 0.7559055118110236
        },
        {
          "duration": 1.7119999999999962,
          "durationTicks": 428,
          "midi": 90,
          "name": "F#6",
          "ticks": 10243,
          "time": 39.352,
          "velocity": 0.7559055118110236
        },
        {
          "duration": 0.8600000000000065,
          "durationTicks": 215,
          "midi": 74,
          "name": "D5",
          "ticks": 10671,
          "time": 41.06399999999999,
          "velocity": 0.7559055118110236
        },
        {
          "duration": 0.8600000000000065,
          "durationTicks": 215,
          "midi": 86,
          "name": "D6",
          "ticks": 10671,
          "time": 41.06399999999999,
          "velocity": 0.7559055118110236
        },
        {
          "duration": 0.8559999999999945,
          "durationTicks": 214,
          "midi": 76,
          "name": "E5",
          "ticks": 10886,
          "time": 41.924,
          "velocity": 0.7559055118110236
        },
        {
          "duration": 0.8559999999999945,
          "durationTicks": 214,
          "midi": 88,
          "name": "E6",
          "ticks": 10886,
          "time": 41.924,
          "velocity": 0.7559055118110236
        },
        {
          "duration": 3.4280000000000044,
          "durationTicks": 857,
          "midi": 81,
          "name": "A5",
          "ticks": 11100,
          "time": 42.779999999999994,
          "velocity": 0.7559055118110236
        },
        {
          "duration": 3.4280000000000044,
          "durationTicks": 857,
          "midi": 93,
          "name": "A6",
          "ticks": 11100,
          "time": 42.779999999999994,
          "velocity": 0.7559055118110236
        },
        {
          "duration": 0.21600000000000108,
          "durationTicks": 54,
          "midi": 78,
          "name": "F#5",
          "ticks": 12600,
          "time": 48.779999999999994,
          "velocity": 0.7559055118110236
        },
        {
          "duration": 0.21600000000000108,
          "durationTicks": 54,
          "midi": 90,
          "name": "F#6",
          "ticks": 12600,
          "time": 48.779999999999994,
          "velocity": 0.7559055118110236
        },
        {
          "duration": 0.2120000000000033,
          "durationTicks": 53,
          "midi": 76,
          "name": "E5",
          "ticks": 12654,
          "time": 48.995999999999995,
          "velocity": 0.7559055118110236
        },
        {
          "duration": 0.2120000000000033,
          "durationTicks": 53,
          "midi": 88,
          "name": "E6",
          "ticks": 12654,
          "time": 48.995999999999995,
          "velocity": 0.7559055118110236
        },
        {
          "duration": 0.21600000000000108,
          "durationTicks": 54,
          "midi": 78,
          "name": "F#5",
          "ticks": 12707,
          "time": 49.208,
          "velocity": 0.7559055118110236
        },
        {
          "duration": 0.21600000000000108,
          "durationTicks": 54,
          "midi": 90,
          "name": "F#6",
          "ticks": 12707,
          "time": 49.208,
          "velocity": 0.7559055118110236
        },
        {
          "duration": 0.2119999999999962,
          "durationTicks": 53,
          "midi": 83,
          "name": "B5",
          "ticks": 12761,
          "time": 49.424,
          "velocity": 0.7559055118110236
        },
        {
          "duration": 0.2119999999999962,
          "durationTicks": 53,
          "midi": 95,
          "name": "B6",
          "ticks": 12761,
          "time": 49.424,
          "velocity": 0.7559055118110236
        },
        {
          "duration": 1.716000000000001,
          "durationTicks": 429,
          "midi": 78,
          "name": "F#5",
          "ticks": 12814,
          "time": 49.635999999999996,
          "velocity": 0.7559055118110236
        },
        {
          "duration": 1.716000000000001,
          "durationTicks": 429,
          "midi": 90,
          "name": "F#6",
          "ticks": 12814,
          "time": 49.635999999999996,
          "velocity": 0.7559055118110236
        },
        {
          "duration": 0.8559999999999945,
          "durationTicks": 214,
          "midi": 76,
          "name": "E5",
          "ticks": 13243,
          "time": 51.352,
          "velocity": 0.7559055118110236
        },
        {
          "duration": 0.8559999999999945,
          "durationTicks": 214,
          "midi": 88,
          "name": "E6",
          "ticks": 13243,
          "time": 51.352,
          "velocity": 0.7559055118110236
        },
        {
          "duration": 0.21600000000000819,
          "durationTicks": 54,
          "midi": 78,
          "name": "F#5",
          "ticks": 13457,
          "time": 52.20799999999999,
          "velocity": 0.7559055118110236
        },
        {
          "duration": 0.21600000000000819,
          "durationTicks": 54,
          "midi": 90,
          "name": "F#6",
          "ticks": 13457,
          "time": 52.20799999999999,
          "velocity": 0.7559055118110236
        },
        {
          "duration": 0.2119999999999962,
          "durationTicks": 53,
          "midi": 76,
          "name": "E5",
          "ticks": 13511,
          "time": 52.424,
          "velocity": 0.7559055118110236
        },
        {
          "duration": 0.2119999999999962,
          "durationTicks": 53,
          "midi": 88,
          "name": "E6",
          "ticks": 13511,
          "time": 52.424,
          "velocity": 0.7559055118110236
        },
        {
          "duration": 0.21600000000000108,
          "durationTicks": 54,
          "midi": 78,
          "name": "F#5",
          "ticks": 13564,
          "time": 52.635999999999996,
          "velocity": 0.7559055118110236
        },
        {
          "duration": 0.21600000000000108,
          "durationTicks": 54,
          "midi": 90,
          "name": "F#6",
          "ticks": 13564,
          "time": 52.635999999999996,
          "velocity": 0.7559055118110236
        },
        {
          "duration": 0.2119999999999962,
          "durationTicks": 53,
          "midi": 83,
          "name": "B5",
          "ticks": 13618,
          "time": 52.852,
          "velocity": 0.7559055118110236
        },
        {
          "duration": 0.2119999999999962,
          "durationTicks": 53,
          "midi": 95,
          "name": "B6",
          "ticks": 13618,
          "time": 52.852,
          "velocity": 0.7559055118110236
        },
        {
          "duration": 1.716000000000001,
          "durationTicks": 429,
          "midi": 78,
          "name": "F#5",
          "ticks": 13671,
          "time": 53.06399999999999,
          "velocity": 0.7559055118110236
        },
        {
          "duration": 1.716000000000001,
          "durationTicks": 429,
          "midi": 90,
          "name": "F#6",
          "ticks": 13671,
          "time": 53.06399999999999,
          "velocity": 0.7559055118110236
        },
        {
          "duration": 0.8560000000000016,
          "durationTicks": 214,
          "midi": 74,
          "name": "D5",
          "ticks": 14100,
          "time": 54.779999999999994,
          "velocity": 0.7559055118110236
        },
        {
          "duration": 0.8560000000000016,
          "durationTicks": 214,
          "midi": 86,
          "name": "D6",
          "ticks": 14100,
          "time": 54.779999999999994,
          "velocity": 0.7559055118110236
        },
        {
          "duration": 0.8599999999999994,
          "durationTicks": 215,
          "midi": 76,
          "name": "E5",
          "ticks": 14314,
          "time": 55.635999999999996,
          "velocity": 0.7559055118110236
        },
        {
          "duration": 0.8599999999999994,
          "durationTicks": 215,
          "midi": 88,
          "name": "E6",
          "ticks": 14314,
          "time": 55.635999999999996,
          "velocity": 0.7559055118110236
        },
        {
          "duration": 1.7119999999999962,
          "durationTicks": 428,
          "midi": 69,
          "name": "A4",
          "ticks": 14529,
          "time": 56.495999999999995,
          "velocity": 0.7559055118110236
        },
        {
          "duration": 1.7119999999999962,
          "durationTicks": 428,
          "midi": 81,
          "name": "A5",
          "ticks": 14529,
          "time": 56.495999999999995,
          "velocity": 0.7559055118110236
        },
        {
          "duration": 0.8560000000000016,
          "durationTicks": 214,
          "midi": 72,
          "name": "C5",
          "ticks": 14957,
          "time": 58.20799999999999,
          "velocity": 0.7559055118110236
        },
        {
          "duration": 0.8560000000000016,
          "durationTicks": 214,
          "midi": 84,
          "name": "C6",
          "ticks": 14957,
          "time": 58.20799999999999,
          "velocity": 0.7559055118110236
        },
        {
          "duration": 0.8599999999999994,
          "durationTicks": 215,
          "midi": 76,
          "name": "E5",
          "ticks": 15171,
          "time": 59.06399999999999,
          "velocity": 0.7559055118110236
        },
        {
          "duration": 0.8599999999999994,
          "durationTicks": 215,
          "midi": 88,
          "name": "E6",
          "ticks": 15171,
          "time": 59.06399999999999,
          "velocity": 0.7559055118110236
        },
        {
          "duration": 1.7120000000000033,
          "durationTicks": 428,
          "midi": 69,
          "name": "A4",
          "ticks": 15386,
          "time": 59.92399999999999,
          "velocity": 0.7559055118110236
        },
        {
          "duration": 1.7120000000000033,
          "durationTicks": 428,
          "midi": 81,
          "name": "A5",
          "ticks": 15386,
          "time": 59.92399999999999,
          "velocity": 0.7559055118110236
        },
        {
          "duration": 0.8599999999999923,
          "durationTicks": 215,
          "midi": 74,
          "name": "D5",
          "ticks": 15814,
          "time": 61.635999999999996,
          "velocity": 0.7559055118110236
        },
        {
          "duration": 0.8599999999999923,
          "durationTicks": 215,
          "midi": 86,
          "name": "D6",
          "ticks": 15814,
          "time": 61.635999999999996,
          "velocity": 0.7559055118110236
        },
        {
          "duration": 3.4280000000000044,
          "durationTicks": 857,
          "midi": 71,
          "name": "B4",
          "ticks": 16029,
          "time": 62.49599999999999,
          "velocity": 0.7559055118110236
        },
        {
          "duration": 3.4280000000000044,
          "durationTicks": 857,
          "midi": 83,
          "name": "B5",
          "ticks": 16029,
          "time": 62.49599999999999,
          "velocity": 0.7559055118110236
        },
        {
          "duration": 0.21599999999999397,
          "durationTicks": 54,
          "midi": 78,
          "name": "F#5",
          "ticks": 27171,
          "time": 107.064,
          "velocity": 0.7559055118110236
        },
        {
          "duration": 0.21599999999999397,
          "durationTicks": 54,
          "midi": 90,
          "name": "F#6",
          "ticks": 27171,
          "time": 107.064,
          "velocity": 0.7559055118110236
        },
        {
          "duration": 0.21599999999999397,
          "durationTicks": 54,
          "midi": 76,
          "name": "E5",
          "ticks": 27225,
          "time": 107.27999999999999,
          "velocity": 0.7559055118110236
        },
        {
          "duration": 0.21599999999999397,
          "durationTicks": 54,
          "midi": 88,
          "name": "E6",
          "ticks": 27225,
          "time": 107.27999999999999,
          "velocity": 0.7559055118110236
        },
        {
          "duration": 0.2120000000000175,
          "durationTicks": 53,
          "midi": 78,
          "name": "F#5",
          "ticks": 27279,
          "time": 107.49599999999998,
          "velocity": 0.7559055118110236
        },
        {
          "duration": 0.2120000000000175,
          "durationTicks": 53,
          "midi": 90,
          "name": "F#6",
          "ticks": 27279,
          "time": 107.49599999999998,
          "velocity": 0.7559055118110236
        },
        {
          "duration": 0.21599999999999397,
          "durationTicks": 54,
          "midi": 83,
          "name": "B5",
          "ticks": 27332,
          "time": 107.708,
          "velocity": 0.7559055118110236
        },
        {
          "duration": 0.21599999999999397,
          "durationTicks": 54,
          "midi": 95,
          "name": "B6",
          "ticks": 27332,
          "time": 107.708,
          "velocity": 0.7559055118110236
        },
        {
          "duration": 1.7120000000000033,
          "durationTicks": 428,
          "midi": 78,
          "name": "F#5",
          "ticks": 27386,
          "time": 107.92399999999999,
          "velocity": 0.7559055118110236
        },
        {
          "duration": 1.7120000000000033,
          "durationTicks": 428,
          "midi": 90,
          "name": "F#6",
          "ticks": 27386,
          "time": 107.92399999999999,
          "velocity": 0.7559055118110236
        },
        {
          "duration": 0.8599999999999852,
          "durationTicks": 215,
          "midi": 76,
          "name": "E5",
          "ticks": 27814,
          "time": 109.636,
          "velocity": 0.7559055118110236
        },
        {
          "duration": 0.8599999999999852,
          "durationTicks": 215,
          "midi": 88,
          "name": "E6",
          "ticks": 27814,
          "time": 109.636,
          "velocity": 0.7559055118110236
        },
        {
          "duration": 0.2120000000000175,
          "durationTicks": 53,
          "midi": 78,
          "name": "F#5",
          "ticks": 28029,
          "time": 110.49599999999998,
          "velocity": 0.7559055118110236
        },
        {
          "duration": 0.2120000000000175,
          "durationTicks": 53,
          "midi": 90,
          "name": "F#6",
          "ticks": 28029,
          "time": 110.49599999999998,
          "velocity": 0.7559055118110236
        },
        {
          "duration": 0.21599999999999397,
          "durationTicks": 54,
          "midi": 76,
          "name": "E5",
          "ticks": 28082,
          "time": 110.708,
          "velocity": 0.7559055118110236
        },
        {
          "duration": 0.21599999999999397,
          "durationTicks": 54,
          "midi": 88,
          "name": "E6",
          "ticks": 28082,
          "time": 110.708,
          "velocity": 0.7559055118110236
        },
        {
          "duration": 0.2120000000000033,
          "durationTicks": 53,
          "midi": 78,
          "name": "F#5",
          "ticks": 28136,
          "time": 110.92399999999999,
          "velocity": 0.7559055118110236
        },
        {
          "duration": 0.2120000000000033,
          "durationTicks": 53,
          "midi": 90,
          "name": "F#6",
          "ticks": 28136,
          "time": 110.92399999999999,
          "velocity": 0.7559055118110236
        },
        {
          "duration": 0.21599999999999397,
          "durationTicks": 54,
          "midi": 83,
          "name": "B5",
          "ticks": 28189,
          "time": 111.136,
          "velocity": 0.7559055118110236
        },
        {
          "duration": 0.21599999999999397,
          "durationTicks": 54,
          "midi": 95,
          "name": "B6",
          "ticks": 28189,
          "time": 111.136,
          "velocity": 0.7559055118110236
        },
        {
          "duration": 1.7120000000000033,
          "durationTicks": 428,
          "midi": 78,
          "name": "F#5",
          "ticks": 28243,
          "time": 111.35199999999999,
          "velocity": 0.7559055118110236
        },
        {
          "duration": 1.7120000000000033,
          "durationTicks": 428,
          "midi": 90,
          "name": "F#6",
          "ticks": 28243,
          "time": 111.35199999999999,
          "velocity": 0.7559055118110236
        },
        {
          "duration": 0.8599999999999994,
          "durationTicks": 215,
          "midi": 74,
          "name": "D5",
          "ticks": 28671,
          "time": 113.064,
          "velocity": 0.7559055118110236
        },
        {
          "duration": 0.8599999999999994,
          "durationTicks": 215,
          "midi": 86,
          "name": "D6",
          "ticks": 28671,
          "time": 113.064,
          "velocity": 0.7559055118110236
        },
        {
          "duration": 0.8559999999999945,
          "durationTicks": 214,
          "midi": 76,
          "name": "E5",
          "ticks": 28886,
          "time": 113.92399999999999,
          "velocity": 0.7559055118110236
        },
        {
          "duration": 0.8559999999999945,
          "durationTicks": 214,
          "midi": 88,
          "name": "E6",
          "ticks": 28886,
          "time": 113.92399999999999,
          "velocity": 0.7559055118110236
        },
        {
          "duration": 3.4280000000000115,
          "durationTicks": 857,
          "midi": 81,
          "name": "A5",
          "ticks": 29100,
          "time": 114.77999999999999,
          "velocity": 0.7559055118110236
        },
        {
          "duration": 3.4280000000000115,
          "durationTicks": 857,
          "midi": 93,
          "name": "A6",
          "ticks": 29100,
          "time": 114.77999999999999,
          "velocity": 0.7559055118110236
        },
        {
          "duration": 0.21599999999999397,
          "durationTicks": 54,
          "midi": 78,
          "name": "F#5",
          "ticks": 30600,
          "time": 120.77999999999999,
          "velocity": 0.7559055118110236
        },
        {
          "duration": 0.21599999999999397,
          "durationTicks": 54,
          "midi": 90,
          "name": "F#6",
          "ticks": 30600,
          "time": 120.77999999999999,
          "velocity": 0.7559055118110236
        },
        {
          "duration": 0.2120000000000175,
          "durationTicks": 53,
          "midi": 76,
          "name": "E5",
          "ticks": 30654,
          "time": 120.99599999999998,
          "velocity": 0.7559055118110236
        },
        {
          "duration": 0.2120000000000175,
          "durationTicks": 53,
          "midi": 88,
          "name": "E6",
          "ticks": 30654,
          "time": 120.99599999999998,
          "velocity": 0.7559055118110236
        },
        {
          "duration": 0.21599999999999397,
          "durationTicks": 54,
          "midi": 78,
          "name": "F#5",
          "ticks": 30707,
          "time": 121.208,
          "velocity": 0.7559055118110236
        },
        {
          "duration": 0.21599999999999397,
          "durationTicks": 54,
          "midi": 90,
          "name": "F#6",
          "ticks": 30707,
          "time": 121.208,
          "velocity": 0.7559055118110236
        },
        {
          "duration": 0.2120000000000033,
          "durationTicks": 53,
          "midi": 83,
          "name": "B5",
          "ticks": 30761,
          "time": 121.42399999999999,
          "velocity": 0.7559055118110236
        },
        {
          "duration": 0.2120000000000033,
          "durationTicks": 53,
          "midi": 95,
          "name": "B6",
          "ticks": 30761,
          "time": 121.42399999999999,
          "velocity": 0.7559055118110236
        },
        {
          "duration": 1.7160000000000082,
          "durationTicks": 429,
          "midi": 78,
          "name": "F#5",
          "ticks": 30814,
          "time": 121.636,
          "velocity": 0.7559055118110236
        },
        {
          "duration": 1.7160000000000082,
          "durationTicks": 429,
          "midi": 90,
          "name": "F#6",
          "ticks": 30814,
          "time": 121.636,
          "velocity": 0.7559055118110236
        },
        {
          "duration": 0.8559999999999803,
          "durationTicks": 214,
          "midi": 76,
          "name": "E5",
          "ticks": 31243,
          "time": 123.352,
          "velocity": 0.7559055118110236
        },
        {
          "duration": 0.8559999999999803,
          "durationTicks": 214,
          "midi": 88,
          "name": "E6",
          "ticks": 31243,
          "time": 123.352,
          "velocity": 0.7559055118110236
        },
        {
          "duration": 0.21599999999999397,
          "durationTicks": 54,
          "midi": 78,
          "name": "F#5",
          "ticks": 31457,
          "time": 124.20799999999998,
          "velocity": 0.7559055118110236
        },
        {
          "duration": 0.21599999999999397,
          "durationTicks": 54,
          "midi": 90,
          "name": "F#6",
          "ticks": 31457,
          "time": 124.20799999999998,
          "velocity": 0.7559055118110236
        },
        {
          "duration": 0.21200000000003172,
          "durationTicks": 53,
          "midi": 76,
          "name": "E5",
          "ticks": 31511,
          "time": 124.42399999999998,
          "velocity": 0.7559055118110236
        },
        {
          "duration": 0.21200000000003172,
          "durationTicks": 53,
          "midi": 88,
          "name": "E6",
          "ticks": 31511,
          "time": 124.42399999999998,
          "velocity": 0.7559055118110236
        },
        {
          "duration": 0.21599999999999397,
          "durationTicks": 54,
          "midi": 78,
          "name": "F#5",
          "ticks": 31564,
          "time": 124.63600000000001,
          "velocity": 0.7559055118110236
        },
        {
          "duration": 0.21599999999999397,
          "durationTicks": 54,
          "midi": 90,
          "name": "F#6",
          "ticks": 31564,
          "time": 124.63600000000001,
          "velocity": 0.7559055118110236
        },
        {
          "duration": 0.21199999999998909,
          "durationTicks": 53,
          "midi": 83,
          "name": "B5",
          "ticks": 31618,
          "time": 124.852,
          "velocity": 0.7559055118110236
        },
        {
          "duration": 0.21199999999998909,
          "durationTicks": 53,
          "midi": 95,
          "name": "B6",
          "ticks": 31618,
          "time": 124.852,
          "velocity": 0.7559055118110236
        },
        {
          "duration": 1.715999999999994,
          "durationTicks": 429,
          "midi": 78,
          "name": "F#5",
          "ticks": 31671,
          "time": 125.064,
          "velocity": 0.7559055118110236
        },
        {
          "duration": 1.715999999999994,
          "durationTicks": 429,
          "midi": 90,
          "name": "F#6",
          "ticks": 31671,
          "time": 125.064,
          "velocity": 0.7559055118110236
        },
        {
          "duration": 0.856000000000023,
          "durationTicks": 214,
          "midi": 74,
          "name": "D5",
          "ticks": 32100,
          "time": 126.77999999999999,
          "velocity": 0.7559055118110236
        },
        {
          "duration": 0.856000000000023,
          "durationTicks": 214,
          "midi": 86,
          "name": "D6",
          "ticks": 32100,
          "time": 126.77999999999999,
          "velocity": 0.7559055118110236
        },
        {
          "duration": 0.8599999999999994,
          "durationTicks": 215,
          "midi": 76,
          "name": "E5",
          "ticks": 32314,
          "time": 127.63600000000001,
          "velocity": 0.7559055118110236
        },
        {
          "duration": 0.8599999999999994,
          "durationTicks": 215,
          "midi": 88,
          "name": "E6",
          "ticks": 32314,
          "time": 127.63600000000001,
          "velocity": 0.7559055118110236
        },
        {
          "duration": 1.711999999999989,
          "durationTicks": 428,
          "midi": 69,
          "name": "A4",
          "ticks": 32529,
          "time": 128.496,
          "velocity": 0.7559055118110236
        },
        {
          "duration": 1.711999999999989,
          "durationTicks": 428,
          "midi": 81,
          "name": "A5",
          "ticks": 32529,
          "time": 128.496,
          "velocity": 0.7559055118110236
        },
        {
          "duration": 0.856000000000023,
          "durationTicks": 214,
          "midi": 72,
          "name": "C5",
          "ticks": 32957,
          "time": 130.208,
          "velocity": 0.7559055118110236
        },
        {
          "duration": 0.856000000000023,
          "durationTicks": 214,
          "midi": 84,
          "name": "C6",
          "ticks": 32957,
          "time": 130.208,
          "velocity": 0.7559055118110236
        },
        {
          "duration": 0.8599999999999852,
          "durationTicks": 215,
          "midi": 76,
          "name": "E5",
          "ticks": 33171,
          "time": 131.06400000000002,
          "velocity": 0.7559055118110236
        },
        {
          "duration": 0.8599999999999852,
          "durationTicks": 215,
          "midi": 88,
          "name": "E6",
          "ticks": 33171,
          "time": 131.06400000000002,
          "velocity": 0.7559055118110236
        },
        {
          "duration": 1.7120000000000175,
          "durationTicks": 428,
          "midi": 69,
          "name": "A4",
          "ticks": 33386,
          "time": 131.924,
          "velocity": 0.7559055118110236
        },
        {
          "duration": 1.7120000000000175,
          "durationTicks": 428,
          "midi": 81,
          "name": "A5",
          "ticks": 33386,
          "time": 131.924,
          "velocity": 0.7559055118110236
        },
        {
          "duration": 0.8599999999999852,
          "durationTicks": 215,
          "midi": 74,
          "name": "D5",
          "ticks": 33814,
          "time": 133.63600000000002,
          "velocity": 0.7559055118110236
        },
        {
          "duration": 0.8599999999999852,
          "durationTicks": 215,
          "midi": 86,
          "name": "D6",
          "ticks": 33814,
          "time": 133.63600000000002,
          "velocity": 0.7559055118110236
        },
        {
          "duration": 3.4279999999999973,
          "durationTicks": 857,
          "midi": 71,
          "name": "B4",
          "ticks": 34029,
          "time": 134.496,
          "velocity": 0.7559055118110236
        },
        {
          "duration": 3.4279999999999973,
          "durationTicks": 857,
          "midi": 83,
          "name": "B5",
          "ticks": 34029,
          "time": 134.496,
          "velocity": 0.7559055118110236
        }
      ]
    },
    {
      "channel": 0,
      "controlChanges": {
        "1": [
          {
            "number": 1,
            "ticks": 17729,
            "time": 69.29599999999999,
            "value": 0.3779527559055118
          },
          {
            "number": 1,
            "ticks": 35729,
            "time": 141.29600000000002,
            "value": 0.3779527559055118
          }
        ],
        "11": [
          {
            "number": 11,
            "ticks": 17743,
            "time": 69.35199999999999,
            "value": 1
          },
          {
            "number": 11,
            "ticks": 35743,
            "time": 141.352,
            "value": 1
          }
        ]
      },
      "pitchBends": [],
      "instrument": {
        "family": "strings",
        "number": 43,
        "name": "contrabass"
      },
      "name": "",
      "notes": [
        {
          "duration": 3.4280000000000115,
          "durationTicks": 857,
          "midi": 41,
          "name": "F2",
          "ticks": 17743,
          "time": 69.35199999999999,
          "velocity": 0.6929133858267716
        },
        {
          "duration": 3.4279999999999973,
          "durationTicks": 857,
          "midi": 41,
          "name": "F2",
          "ticks": 18600,
          "time": 72.78,
          "velocity": 0.6929133858267716
        },
        {
          "duration": 3.4279999999999973,
          "durationTicks": 857,
          "midi": 40,
          "name": "E2",
          "ticks": 19457,
          "time": 76.208,
          "velocity": 0.6929133858267716
        },
        {
          "duration": 3.4279999999999973,
          "durationTicks": 857,
          "midi": 40,
          "name": "E2",
          "ticks": 20314,
          "time": 79.636,
          "velocity": 0.6929133858267716
        },
        {
          "duration": 3.432000000000002,
          "durationTicks": 858,
          "midi": 41,
          "name": "F2",
          "ticks": 21171,
          "time": 83.064,
          "velocity": 0.6929133858267716
        },
        {
          "duration": 3.4279999999999973,
          "durationTicks": 857,
          "midi": 41,
          "name": "F2",
          "ticks": 22029,
          "time": 86.496,
          "velocity": 0.6929133858267716
        },
        {
          "duration": 3.4279999999999973,
          "durationTicks": 857,
          "midi": 40,
          "name": "E2",
          "ticks": 22886,
          "time": 89.92399999999999,
          "velocity": 0.6929133858267716
        },
        {
          "duration": 5.1440000000000055,
          "durationTicks": 1286,
          "midi": 40,
          "name": "E2",
          "ticks": 23743,
          "time": 93.35199999999999,
          "velocity": 0.6929133858267716
        },
        {
          "duration": 3.4279999999999973,
          "durationTicks": 857,
          "midi": 41,
          "name": "F2",
          "ticks": 35743,
          "time": 141.352,
          "velocity": 0.6929133858267716
        },
        {
          "duration": 3.4279999999999973,
          "durationTicks": 857,
          "midi": 41,
          "name": "F2",
          "ticks": 36600,
          "time": 144.78,
          "velocity": 0.6929133858267716
        },
        {
          "duration": 3.4280000000000257,
          "durationTicks": 857,
          "midi": 40,
          "name": "E2",
          "ticks": 37457,
          "time": 148.208,
          "velocity": 0.6929133858267716
        },
        {
          "duration": 3.4279999999999973,
          "durationTicks": 857,
          "midi": 40,
          "name": "E2",
          "ticks": 38314,
          "time": 151.63600000000002,
          "velocity": 0.6929133858267716
        },
        {
          "duration": 3.431999999999988,
          "durationTicks": 858,
          "midi": 41,
          "name": "F2",
          "ticks": 39171,
          "time": 155.06400000000002,
          "velocity": 0.6929133858267716
        },
        {
          "duration": 3.4279999999999973,
          "durationTicks": 857,
          "midi": 41,
          "name": "F2",
          "ticks": 40029,
          "time": 158.496,
          "velocity": 0.6929133858267716
        },
        {
          "duration": 3.4279999999999973,
          "durationTicks": 857,
          "midi": 40,
          "name": "E2",
          "ticks": 40886,
          "time": 161.924,
          "velocity": 0.6929133858267716
        },
        {
          "duration": 5.1440000000000055,
          "durationTicks": 1286,
          "midi": 40,
          "name": "E2",
          "ticks": 41743,
          "time": 165.352,
          "velocity": 0.6929133858267716
        }
      ]
    },
    {
      "channel": 1,
      "controlChanges": {
        "1": [
          {
            "number": 1,
            "ticks": 17729,
            "time": 69.29599999999999,
            "value": 0.3779527559055118
          },
          {
            "number": 1,
            "ticks": 35729,
            "time": 141.29600000000002,
            "value": 0.3779527559055118
          }
        ],
        "11": [
          {
            "number": 11,
            "ticks": 17743,
            "time": 69.35199999999999,
            "value": 1
          },
          {
            "number": 11,
            "ticks": 35743,
            "time": 141.352,
            "value": 1
          }
        ]
      },
      "pitchBends": [],
      "instrument": {
        "family": "strings",
        "number": 43,
        "name": "contrabass"
      },
      "name": "",
      "notes": [
        {
          "duration": 3.4280000000000115,
          "durationTicks": 857,
          "midi": 41,
          "name": "F2",
          "ticks": 17743,
          "time": 69.35199999999999,
          "velocity": 0.6929133858267716
        },
        {
          "duration": 3.4279999999999973,
          "durationTicks": 857,
          "midi": 41,
          "name": "F2",
          "ticks": 18600,
          "time": 72.78,
          "velocity": 0.6929133858267716
        },
        {
          "duration": 3.4279999999999973,
          "durationTicks": 857,
          "midi": 40,
          "name": "E2",
          "ticks": 19457,
          "time": 76.208,
          "velocity": 0.6929133858267716
        },
        {
          "duration": 3.4279999999999973,
          "durationTicks": 857,
          "midi": 40,
          "name": "E2",
          "ticks": 20314,
          "time": 79.636,
          "velocity": 0.6929133858267716
        },
        {
          "duration": 3.432000000000002,
          "durationTicks": 858,
          "midi": 41,
          "name": "F2",
          "ticks": 21171,
          "time": 83.064,
          "velocity": 0.6929133858267716
        },
        {
          "duration": 3.4279999999999973,
          "durationTicks": 857,
          "midi": 41,
          "name": "F2",
          "ticks": 22029,
          "time": 86.496,
          "velocity": 0.6929133858267716
        },
        {
          "duration": 3.4279999999999973,
          "durationTicks": 857,
          "midi": 40,
          "name": "E2",
          "ticks": 22886,
          "time": 89.92399999999999,
          "velocity": 0.6929133858267716
        },
        {
          "duration": 5.1440000000000055,
          "durationTicks": 1286,
          "midi": 40,
          "name": "E2",
          "ticks": 23743,
          "time": 93.35199999999999,
          "velocity": 0.6929133858267716
        },
        {
          "duration": 3.4279999999999973,
          "durationTicks": 857,
          "midi": 41,
          "name": "F2",
          "ticks": 35743,
          "time": 141.352,
          "velocity": 0.6929133858267716
        },
        {
          "duration": 3.4279999999999973,
          "durationTicks": 857,
          "midi": 41,
          "name": "F2",
          "ticks": 36600,
          "time": 144.78,
          "velocity": 0.6929133858267716
        },
        {
          "duration": 3.4280000000000257,
          "durationTicks": 857,
          "midi": 40,
          "name": "E2",
          "ticks": 37457,
          "time": 148.208,
          "velocity": 0.6929133858267716
        },
        {
          "duration": 3.4279999999999973,
          "durationTicks": 857,
          "midi": 40,
          "name": "E2",
          "ticks": 38314,
          "time": 151.63600000000002,
          "velocity": 0.6929133858267716
        },
        {
          "duration": 3.431999999999988,
          "durationTicks": 858,
          "midi": 41,
          "name": "F2",
          "ticks": 39171,
          "time": 155.06400000000002,
          "velocity": 0.6929133858267716
        },
        {
          "duration": 3.4279999999999973,
          "durationTicks": 857,
          "midi": 41,
          "name": "F2",
          "ticks": 40029,
          "time": 158.496,
          "velocity": 0.6929133858267716
        },
        {
          "duration": 3.4279999999999973,
          "durationTicks": 857,
          "midi": 40,
          "name": "E2",
          "ticks": 40886,
          "time": 161.924,
          "velocity": 0.6929133858267716
        },
        {
          "duration": 5.1440000000000055,
          "durationTicks": 1286,
          "midi": 40,
          "name": "E2",
          "ticks": 41743,
          "time": 165.352,
          "velocity": 0.6929133858267716
        }
      ]
    },
    {
      "channel": 3,
      "controlChanges": {
        "11": [
          {
            "number": 11,
            "ticks": 17743,
            "time": 69.35199999999999,
            "value": 1
          },
          {
            "number": 11,
            "ticks": 35743,
            "time": 141.352,
            "value": 1
          }
        ],
        "120": [
          {
            "number": 120,
            "ticks": 43457,
            "time": 172.208,
            "value": 0
          }
        ]
      },
      "pitchBends": [],
      "instrument": {
        "family": "strings",
        "number": 46,
        "name": "orchestral harp"
      },
      "name": "",
      "notes": [
        {
          "duration": 0.2120000000000033,
          "durationTicks": 53,
          "midi": 88,
          "name": "E6",
          "ticks": 17743,
          "time": 69.35199999999999,
          "velocity": 0.5039370078740157
        },
        {
          "duration": 0.21600000000000819,
          "durationTicks": 54,
          "midi": 84,
          "name": "C6",
          "ticks": 17796,
          "time": 69.564,
          "velocity": 0.5039370078740157
        },
        {
          "duration": 0.21599999999999397,
          "durationTicks": 54,
          "midi": 81,
          "name": "A5",
          "ticks": 17850,
          "time": 69.78,
          "velocity": 0.5039370078740157
        },
        {
          "duration": 0.2120000000000033,
          "durationTicks": 53,
          "midi": 77,
          "name": "F5",
          "ticks": 17904,
          "time": 69.996,
          "velocity": 0.5039370078740157
        },
        {
          "duration": 0.21599999999999397,
          "durationTicks": 54,
          "midi": 88,
          "name": "E6",
          "ticks": 17957,
          "time": 70.208,
          "velocity": 0.5039370078740157
        },
        {
          "duration": 0.2120000000000033,
          "durationTicks": 53,
          "midi": 84,
          "name": "C6",
          "ticks": 18011,
          "time": 70.42399999999999,
          "velocity": 0.5039370078740157
        },
        {
          "duration": 0.21599999999999397,
          "durationTicks": 54,
          "midi": 81,
          "name": "A5",
          "ticks": 18064,
          "time": 70.636,
          "velocity": 0.5039370078740157
        },
        {
          "duration": 0.2120000000000033,
          "durationTicks": 53,
          "midi": 77,
          "name": "F5",
          "ticks": 18118,
          "time": 70.85199999999999,
          "velocity": 0.5039370078740157
        },
        {
          "duration": 0.21600000000000819,
          "durationTicks": 54,
          "midi": 88,
          "name": "E6",
          "ticks": 18171,
          "time": 71.064,
          "velocity": 0.5039370078740157
        },
        {
          "duration": 0.21599999999999397,
          "durationTicks": 54,
          "midi": 84,
          "name": "C6",
          "ticks": 18225,
          "time": 71.28,
          "velocity": 0.5039370078740157
        },
        {
          "duration": 0.2120000000000033,
          "durationTicks": 53,
          "midi": 81,
          "name": "A5",
          "ticks": 18279,
          "time": 71.496,
          "velocity": 0.5039370078740157
        },
        {
          "duration": 0.21599999999999397,
          "durationTicks": 54,
          "midi": 77,
          "name": "F5",
          "ticks": 18332,
          "time": 71.708,
          "velocity": 0.5039370078740157
        },
        {
          "duration": 0.2120000000000033,
          "durationTicks": 53,
          "midi": 88,
          "name": "E6",
          "ticks": 18386,
          "time": 71.92399999999999,
          "velocity": 0.5039370078740157
        },
        {
          "duration": 0.21599999999999397,
          "durationTicks": 54,
          "midi": 84,
          "name": "C6",
          "ticks": 18439,
          "time": 72.136,
          "velocity": 0.5039370078740157
        },
        {
          "duration": 0.2120000000000033,
          "durationTicks": 53,
          "midi": 81,
          "name": "A5",
          "ticks": 18493,
          "time": 72.35199999999999,
          "velocity": 0.5039370078740157
        },
        {
          "duration": 0.21600000000000819,
          "durationTicks": 54,
          "midi": 77,
          "name": "F5",
          "ticks": 18546,
          "time": 72.564,
          "velocity": 0.5039370078740157
        },
        {
          "duration": 0.21599999999999397,
          "durationTicks": 54,
          "midi": 88,
          "name": "E6",
          "ticks": 18600,
          "time": 72.78,
          "velocity": 0.5039370078740157
        },
        {
          "duration": 0.2120000000000033,
          "durationTicks": 53,
          "midi": 84,
          "name": "C6",
          "ticks": 18654,
          "time": 72.996,
          "velocity": 0.5039370078740157
        },
        {
          "duration": 0.21599999999999397,
          "durationTicks": 54,
          "midi": 81,
          "name": "A5",
          "ticks": 18707,
          "time": 73.208,
          "velocity": 0.5039370078740157
        },
        {
          "duration": 0.2120000000000033,
          "durationTicks": 53,
          "midi": 77,
          "name": "F5",
          "ticks": 18761,
          "time": 73.42399999999999,
          "velocity": 0.5039370078740157
        },
        {
          "duration": 0.21599999999999397,
          "durationTicks": 54,
          "midi": 88,
          "name": "E6",
          "ticks": 18814,
          "time": 73.636,
          "velocity": 0.5039370078740157
        },
        {
          "duration": 0.2120000000000033,
          "durationTicks": 53,
          "midi": 84,
          "name": "C6",
          "ticks": 18868,
          "time": 73.85199999999999,
          "velocity": 0.5039370078740157
        },
        {
          "duration": 0.21600000000000819,
          "durationTicks": 54,
          "midi": 81,
          "name": "A5",
          "ticks": 18921,
          "time": 74.064,
          "velocity": 0.5039370078740157
        },
        {
          "duration": 0.21599999999999397,
          "durationTicks": 54,
          "midi": 77,
          "name": "F5",
          "ticks": 18975,
          "time": 74.28,
          "velocity": 0.5039370078740157
        },
        {
          "duration": 0.2120000000000033,
          "durationTicks": 53,
          "midi": 88,
          "name": "E6",
          "ticks": 19029,
          "time": 74.496,
          "velocity": 0.5039370078740157
        },
        {
          "duration": 0.21599999999999397,
          "durationTicks": 54,
          "midi": 84,
          "name": "C6",
          "ticks": 19082,
          "time": 74.708,
          "velocity": 0.5039370078740157
        },
        {
          "duration": 0.2120000000000033,
          "durationTicks": 53,
          "midi": 81,
          "name": "A5",
          "ticks": 19136,
          "time": 74.92399999999999,
          "velocity": 0.5039370078740157
        },
        {
          "duration": 0.21599999999999397,
          "durationTicks": 54,
          "midi": 77,
          "name": "F5",
          "ticks": 19189,
          "time": 75.136,
          "velocity": 0.5039370078740157
        },
        {
          "duration": 0.2120000000000033,
          "durationTicks": 53,
          "midi": 88,
          "name": "E6",
          "ticks": 19243,
          "time": 75.35199999999999,
          "velocity": 0.5039370078740157
        },
        {
          "duration": 0.21600000000000819,
          "durationTicks": 54,
          "midi": 84,
          "name": "C6",
          "ticks": 19296,
          "time": 75.564,
          "velocity": 0.5039370078740157
        },
        {
          "duration": 0.21599999999999397,
          "durationTicks": 54,
          "midi": 81,
          "name": "A5",
          "ticks": 19350,
          "time": 75.78,
          "velocity": 0.5039370078740157
        },
        {
          "duration": 0.2120000000000033,
          "durationTicks": 53,
          "midi": 77,
          "name": "F5",
          "ticks": 19404,
          "time": 75.996,
          "velocity": 0.5039370078740157
        },
        {
          "duration": 0.21599999999999397,
          "durationTicks": 54,
          "midi": 86,
          "name": "D6",
          "ticks": 19457,
          "time": 76.208,
          "velocity": 0.5039370078740157
        },
        {
          "duration": 0.2120000000000033,
          "durationTicks": 53,
          "midi": 83,
          "name": "B5",
          "ticks": 19511,
          "time": 76.42399999999999,
          "velocity": 0.5039370078740157
        },
        {
          "duration": 0.21599999999999397,
          "durationTicks": 54,
          "midi": 79,
          "name": "G5",
          "ticks": 19564,
          "time": 76.636,
          "velocity": 0.5039370078740157
        },
        {
          "duration": 0.2120000000000033,
          "durationTicks": 53,
          "midi": 76,
          "name": "E5",
          "ticks": 19618,
          "time": 76.85199999999999,
          "velocity": 0.5039370078740157
        },
        {
          "duration": 0.21600000000000819,
          "durationTicks": 54,
          "midi": 86,
          "name": "D6",
          "ticks": 19671,
          "time": 77.064,
          "velocity": 0.5039370078740157
        },
        {
          "duration": 0.21599999999999397,
          "durationTicks": 54,
          "midi": 83,
          "name": "B5",
          "ticks": 19725,
          "time": 77.28,
          "velocity": 0.5039370078740157
        },
        {
          "duration": 0.2120000000000033,
          "durationTicks": 53,
          "midi": 79,
          "name": "G5",
          "ticks": 19779,
          "time": 77.496,
          "velocity": 0.5039370078740157
        },
        {
          "duration": 0.21599999999999397,
          "durationTicks": 54,
          "midi": 76,
          "name": "E5",
          "ticks": 19832,
          "time": 77.708,
          "velocity": 0.5039370078740157
        },
        {
          "duration": 0.2120000000000033,
          "durationTicks": 53,
          "midi": 86,
          "name": "D6",
          "ticks": 19886,
          "time": 77.92399999999999,
          "velocity": 0.5039370078740157
        },
        {
          "duration": 0.21599999999999397,
          "durationTicks": 54,
          "midi": 83,
          "name": "B5",
          "ticks": 19939,
          "time": 78.136,
          "velocity": 0.5039370078740157
        },
        {
          "duration": 0.2120000000000033,
          "durationTicks": 53,
          "midi": 79,
          "name": "G5",
          "ticks": 19993,
          "time": 78.35199999999999,
          "velocity": 0.5039370078740157
        },
        {
          "duration": 0.21600000000000819,
          "durationTicks": 54,
          "midi": 76,
          "name": "E5",
          "ticks": 20046,
          "time": 78.564,
          "velocity": 0.5039370078740157
        },
        {
          "duration": 0.21599999999999397,
          "durationTicks": 54,
          "midi": 86,
          "name": "D6",
          "ticks": 20100,
          "time": 78.78,
          "velocity": 0.5039370078740157
        },
        {
          "duration": 0.2120000000000033,
          "durationTicks": 53,
          "midi": 83,
          "name": "B5",
          "ticks": 20154,
          "time": 78.996,
          "velocity": 0.5039370078740157
        },
        {
          "duration": 0.21599999999999397,
          "durationTicks": 54,
          "midi": 79,
          "name": "G5",
          "ticks": 20207,
          "time": 79.208,
          "velocity": 0.5039370078740157
        },
        {
          "duration": 0.2120000000000033,
          "durationTicks": 53,
          "midi": 76,
          "name": "E5",
          "ticks": 20261,
          "time": 79.42399999999999,
          "velocity": 0.5039370078740157
        },
        {
          "duration": 0.21599999999999397,
          "durationTicks": 54,
          "midi": 86,
          "name": "D6",
          "ticks": 20314,
          "time": 79.636,
          "velocity": 0.5039370078740157
        },
        {
          "duration": 0.2120000000000033,
          "durationTicks": 53,
          "midi": 83,
          "name": "B5",
          "ticks": 20368,
          "time": 79.85199999999999,
          "velocity": 0.5039370078740157
        },
        {
          "duration": 0.21600000000000819,
          "durationTicks": 54,
          "midi": 79,
          "name": "G5",
          "ticks": 20421,
          "time": 80.064,
          "velocity": 0.5039370078740157
        },
        {
          "duration": 0.21599999999999397,
          "durationTicks": 54,
          "midi": 76,
          "name": "E5",
          "ticks": 20475,
          "time": 80.28,
          "velocity": 0.5039370078740157
        },
        {
          "duration": 0.2120000000000033,
          "durationTicks": 53,
          "midi": 86,
          "name": "D6",
          "ticks": 20529,
          "time": 80.496,
          "velocity": 0.5039370078740157
        },
        {
          "duration": 0.21599999999999397,
          "durationTicks": 54,
          "midi": 83,
          "name": "B5",
          "ticks": 20582,
          "time": 80.708,
          "velocity": 0.5039370078740157
        },
        {
          "duration": 0.2120000000000033,
          "durationTicks": 53,
          "midi": 79,
          "name": "G5",
          "ticks": 20636,
          "time": 80.92399999999999,
          "velocity": 0.5039370078740157
        },
        {
          "duration": 0.21599999999999397,
          "durationTicks": 54,
          "midi": 76,
          "name": "E5",
          "ticks": 20689,
          "time": 81.136,
          "velocity": 0.5039370078740157
        },
        {
          "duration": 0.2120000000000033,
          "durationTicks": 53,
          "midi": 86,
          "name": "D6",
          "ticks": 20743,
          "time": 81.35199999999999,
          "velocity": 0.5039370078740157
        },
        {
          "duration": 0.21600000000000819,
          "durationTicks": 54,
          "midi": 83,
          "name": "B5",
          "ticks": 20796,
          "time": 81.564,
          "velocity": 0.5039370078740157
        },
        {
          "duration": 0.21599999999999397,
          "durationTicks": 54,
          "midi": 79,
          "name": "G5",
          "ticks": 20850,
          "time": 81.78,
          "velocity": 0.5039370078740157
        },
        {
          "duration": 0.2120000000000033,
          "durationTicks": 53,
          "midi": 76,
          "name": "E5",
          "ticks": 20904,
          "time": 81.996,
          "velocity": 0.5039370078740157
        },
        {
          "duration": 0.21599999999999397,
          "durationTicks": 54,
          "midi": 86,
          "name": "D6",
          "ticks": 20957,
          "time": 82.208,
          "velocity": 0.5039370078740157
        },
        {
          "duration": 0.2120000000000033,
          "durationTicks": 53,
          "midi": 83,
          "name": "B5",
          "ticks": 21011,
          "time": 82.42399999999999,
          "velocity": 0.5039370078740157
        },
        {
          "duration": 0.21599999999999397,
          "durationTicks": 54,
          "midi": 79,
          "name": "G5",
          "ticks": 21064,
          "time": 82.636,
          "velocity": 0.5039370078740157
        },
        {
          "duration": 0.2120000000000033,
          "durationTicks": 53,
          "midi": 76,
          "name": "E5",
          "ticks": 21118,
          "time": 82.85199999999999,
          "velocity": 0.5039370078740157
        },
        {
          "duration": 0.21600000000000819,
          "durationTicks": 54,
          "midi": 88,
          "name": "E6",
          "ticks": 21171,
          "time": 83.064,
          "velocity": 0.5039370078740157
        },
        {
          "duration": 0.21599999999999397,
          "durationTicks": 54,
          "midi": 84,
          "name": "C6",
          "ticks": 21225,
          "time": 83.28,
          "velocity": 0.5039370078740157
        },
        {
          "duration": 0.2120000000000033,
          "durationTicks": 53,
          "midi": 81,
          "name": "A5",
          "ticks": 21279,
          "time": 83.496,
          "velocity": 0.5039370078740157
        },
        {
          "duration": 0.21599999999999397,
          "durationTicks": 54,
          "midi": 77,
          "name": "F5",
          "ticks": 21332,
          "time": 83.708,
          "velocity": 0.5039370078740157
        },
        {
          "duration": 0.2120000000000033,
          "durationTicks": 53,
          "midi": 88,
          "name": "E6",
          "ticks": 21386,
          "time": 83.92399999999999,
          "velocity": 0.5039370078740157
        },
        {
          "duration": 0.21599999999999397,
          "durationTicks": 54,
          "midi": 84,
          "name": "C6",
          "ticks": 21439,
          "time": 84.136,
          "velocity": 0.5039370078740157
        },
        {
          "duration": 0.2120000000000033,
          "durationTicks": 53,
          "midi": 81,
          "name": "A5",
          "ticks": 21493,
          "time": 84.35199999999999,
          "velocity": 0.5039370078740157
        },
        {
          "duration": 0.21599999999999397,
          "durationTicks": 54,
          "midi": 77,
          "name": "F5",
          "ticks": 21546,
          "time": 84.564,
          "velocity": 0.5039370078740157
        },
        {
          "duration": 0.21600000000000819,
          "durationTicks": 54,
          "midi": 88,
          "name": "E6",
          "ticks": 21600,
          "time": 84.77999999999999,
          "velocity": 0.5039370078740157
        },
        {
          "duration": 0.2120000000000033,
          "durationTicks": 53,
          "midi": 84,
          "name": "C6",
          "ticks": 21654,
          "time": 84.996,
          "velocity": 0.5039370078740157
        },
        {
          "duration": 0.21599999999999397,
          "durationTicks": 54,
          "midi": 81,
          "name": "A5",
          "ticks": 21707,
          "time": 85.208,
          "velocity": 0.5039370078740157
        },
        {
          "duration": 0.2120000000000033,
          "durationTicks": 53,
          "midi": 77,
          "name": "F5",
          "ticks": 21761,
          "time": 85.42399999999999,
          "velocity": 0.5039370078740157
        },
        {
          "duration": 0.21599999999999397,
          "durationTicks": 54,
          "midi": 88,
          "name": "E6",
          "ticks": 21814,
          "time": 85.636,
          "velocity": 0.5039370078740157
        },
        {
          "duration": 0.2120000000000033,
          "durationTicks": 53,
          "midi": 84,
          "name": "C6",
          "ticks": 21868,
          "time": 85.85199999999999,
          "velocity": 0.5039370078740157
        },
        {
          "duration": 0.21599999999999397,
          "durationTicks": 54,
          "midi": 81,
          "name": "A5",
          "ticks": 21921,
          "time": 86.064,
          "velocity": 0.5039370078740157
        },
        {
          "duration": 0.21600000000000819,
          "durationTicks": 54,
          "midi": 77,
          "name": "F5",
          "ticks": 21975,
          "time": 86.27999999999999,
          "velocity": 0.5039370078740157
        },
        {
          "duration": 0.2120000000000033,
          "durationTicks": 53,
          "midi": 88,
          "name": "E6",
          "ticks": 22029,
          "time": 86.496,
          "velocity": 0.5039370078740157
        },
        {
          "duration": 0.21599999999999397,
          "durationTicks": 54,
          "midi": 84,
          "name": "C6",
          "ticks": 22082,
          "time": 86.708,
          "velocity": 0.5039370078740157
        },
        {
          "duration": 0.2120000000000033,
          "durationTicks": 53,
          "midi": 81,
          "name": "A5",
          "ticks": 22136,
          "time": 86.92399999999999,
          "velocity": 0.5039370078740157
        },
        {
          "duration": 0.21599999999999397,
          "durationTicks": 54,
          "midi": 77,
          "name": "F5",
          "ticks": 22189,
          "time": 87.136,
          "velocity": 0.5039370078740157
        },
        {
          "duration": 0.2120000000000033,
          "durationTicks": 53,
          "midi": 88,
          "name": "E6",
          "ticks": 22243,
          "time": 87.35199999999999,
          "velocity": 0.5039370078740157
        },
        {
          "duration": 0.21599999999999397,
          "durationTicks": 54,
          "midi": 84,
          "name": "C6",
          "ticks": 22296,
          "time": 87.564,
          "velocity": 0.5039370078740157
        },
        {
          "duration": 0.21600000000000819,
          "durationTicks": 54,
          "midi": 81,
          "name": "A5",
          "ticks": 22350,
          "time": 87.77999999999999,
          "velocity": 0.5039370078740157
        },
        {
          "duration": 0.2120000000000033,
          "durationTicks": 53,
          "midi": 77,
          "name": "F5",
          "ticks": 22404,
          "time": 87.996,
          "velocity": 0.5039370078740157
        },
        {
          "duration": 0.21599999999999397,
          "durationTicks": 54,
          "midi": 88,
          "name": "E6",
          "ticks": 22457,
          "time": 88.208,
          "velocity": 0.5039370078740157
        },
        {
          "duration": 0.2120000000000033,
          "durationTicks": 53,
          "midi": 84,
          "name": "C6",
          "ticks": 22511,
          "time": 88.42399999999999,
          "velocity": 0.5039370078740157
        },
        {
          "duration": 0.21599999999999397,
          "durationTicks": 54,
          "midi": 81,
          "name": "A5",
          "ticks": 22564,
          "time": 88.636,
          "velocity": 0.5039370078740157
        },
        {
          "duration": 0.2120000000000033,
          "durationTicks": 53,
          "midi": 77,
          "name": "F5",
          "ticks": 22618,
          "time": 88.85199999999999,
          "velocity": 0.5039370078740157
        },
        {
          "duration": 0.21599999999999397,
          "durationTicks": 54,
          "midi": 88,
          "name": "E6",
          "ticks": 22671,
          "time": 89.064,
          "velocity": 0.5039370078740157
        },
        {
          "duration": 0.21600000000000819,
          "durationTicks": 54,
          "midi": 84,
          "name": "C6",
          "ticks": 22725,
          "time": 89.27999999999999,
          "velocity": 0.5039370078740157
        },
        {
          "duration": 0.2120000000000033,
          "durationTicks": 53,
          "midi": 81,
          "name": "A5",
          "ticks": 22779,
          "time": 89.496,
          "velocity": 0.5039370078740157
        },
        {
          "duration": 0.21599999999999397,
          "durationTicks": 54,
          "midi": 77,
          "name": "F5",
          "ticks": 22832,
          "time": 89.708,
          "velocity": 0.5039370078740157
        },
        {
          "duration": 0.2120000000000033,
          "durationTicks": 53,
          "midi": 86,
          "name": "D6",
          "ticks": 22886,
          "time": 89.92399999999999,
          "velocity": 0.5039370078740157
        },
        {
          "duration": 0.21599999999999397,
          "durationTicks": 54,
          "midi": 83,
          "name": "B5",
          "ticks": 22939,
          "time": 90.136,
          "velocity": 0.5039370078740157
        },
        {
          "duration": 0.2120000000000033,
          "durationTicks": 53,
          "midi": 79,
          "name": "G5",
          "ticks": 22993,
          "time": 90.35199999999999,
          "velocity": 0.5039370078740157
        },
        {
          "duration": 0.21599999999999397,
          "durationTicks": 54,
          "midi": 76,
          "name": "E5",
          "ticks": 23046,
          "time": 90.564,
          "velocity": 0.5039370078740157
        },
        {
          "duration": 0.21600000000000819,
          "durationTicks": 54,
          "midi": 86,
          "name": "D6",
          "ticks": 23100,
          "time": 90.77999999999999,
          "velocity": 0.5039370078740157
        },
        {
          "duration": 0.2120000000000033,
          "durationTicks": 53,
          "midi": 83,
          "name": "B5",
          "ticks": 23154,
          "time": 90.996,
          "velocity": 0.5039370078740157
        },
        {
          "duration": 0.21599999999999397,
          "durationTicks": 54,
          "midi": 79,
          "name": "G5",
          "ticks": 23207,
          "time": 91.208,
          "velocity": 0.5039370078740157
        },
        {
          "duration": 0.2120000000000033,
          "durationTicks": 53,
          "midi": 76,
          "name": "E5",
          "ticks": 23261,
          "time": 91.42399999999999,
          "velocity": 0.5039370078740157
        },
        {
          "duration": 0.21599999999999397,
          "durationTicks": 54,
          "midi": 86,
          "name": "D6",
          "ticks": 23314,
          "time": 91.636,
          "velocity": 0.5039370078740157
        },
        {
          "duration": 0.2120000000000033,
          "durationTicks": 53,
          "midi": 83,
          "name": "B5",
          "ticks": 23368,
          "time": 91.85199999999999,
          "velocity": 0.5039370078740157
        },
        {
          "duration": 0.21599999999999397,
          "durationTicks": 54,
          "midi": 79,
          "name": "G5",
          "ticks": 23421,
          "time": 92.064,
          "velocity": 0.5039370078740157
        },
        {
          "duration": 0.21600000000000819,
          "durationTicks": 54,
          "midi": 76,
          "name": "E5",
          "ticks": 23475,
          "time": 92.27999999999999,
          "velocity": 0.5039370078740157
        },
        {
          "duration": 0.2120000000000033,
          "durationTicks": 53,
          "midi": 86,
          "name": "D6",
          "ticks": 23529,
          "time": 92.496,
          "velocity": 0.5039370078740157
        },
        {
          "duration": 0.21599999999999397,
          "durationTicks": 54,
          "midi": 83,
          "name": "B5",
          "ticks": 23582,
          "time": 92.708,
          "velocity": 0.5039370078740157
        },
        {
          "duration": 0.2120000000000033,
          "durationTicks": 53,
          "midi": 79,
          "name": "G5",
          "ticks": 23636,
          "time": 92.92399999999999,
          "velocity": 0.5039370078740157
        },
        {
          "duration": 0.21599999999999397,
          "durationTicks": 54,
          "midi": 76,
          "name": "E5",
          "ticks": 23689,
          "time": 93.136,
          "velocity": 0.5039370078740157
        },
        {
          "duration": 0.8560000000000088,
          "durationTicks": 214,
          "midi": 95,
          "name": "B6",
          "ticks": 23743,
          "time": 93.35199999999999,
          "velocity": 0.5039370078740157
        },
        {
          "duration": 0.8560000000000088,
          "durationTicks": 214,
          "midi": 91,
          "name": "G6",
          "ticks": 23743,
          "time": 93.35199999999999,
          "velocity": 0.5039370078740157
        },
        {
          "duration": 0.8559999999999945,
          "durationTicks": 214,
          "midi": 91,
          "name": "G6",
          "ticks": 23957,
          "time": 94.208,
          "velocity": 0.5039370078740157
        },
        {
          "duration": 0.8559999999999945,
          "durationTicks": 214,
          "midi": 86,
          "name": "D6",
          "ticks": 23957,
          "time": 94.208,
          "velocity": 0.5039370078740157
        },
        {
          "duration": 0.8599999999999994,
          "durationTicks": 215,
          "midi": 86,
          "name": "D6",
          "ticks": 24171,
          "time": 95.064,
          "velocity": 0.5039370078740157
        },
        {
          "duration": 0.8599999999999994,
          "durationTicks": 215,
          "midi": 83,
          "name": "B5",
          "ticks": 24171,
          "time": 95.064,
          "velocity": 0.5039370078740157
        },
        {
          "duration": 2.5720000000000027,
          "durationTicks": 643,
          "midi": 83,
          "name": "B5",
          "ticks": 24386,
          "time": 95.92399999999999,
          "velocity": 0.5039370078740157
        },
        {
          "duration": 2.5720000000000027,
          "durationTicks": 643,
          "midi": 79,
          "name": "G5",
          "ticks": 24386,
          "time": 95.92399999999999,
          "velocity": 0.5039370078740157
        },
        {
          "duration": 0.2120000000000175,
          "durationTicks": 53,
          "midi": 88,
          "name": "E6",
          "ticks": 35743,
          "time": 141.352,
          "velocity": 0.5039370078740157
        },
        {
          "duration": 0.21599999999997976,
          "durationTicks": 54,
          "midi": 84,
          "name": "C6",
          "ticks": 35796,
          "time": 141.56400000000002,
          "velocity": 0.5039370078740157
        },
        {
          "duration": 0.21600000000000819,
          "durationTicks": 54,
          "midi": 81,
          "name": "A5",
          "ticks": 35850,
          "time": 141.78,
          "velocity": 0.5039370078740157
        },
        {
          "duration": 0.21199999999998909,
          "durationTicks": 53,
          "midi": 77,
          "name": "F5",
          "ticks": 35904,
          "time": 141.996,
          "velocity": 0.5039370078740157
        },
        {
          "duration": 0.21600000000000819,
          "durationTicks": 54,
          "midi": 88,
          "name": "E6",
          "ticks": 35957,
          "time": 142.208,
          "velocity": 0.5039370078740157
        },
        {
          "duration": 0.2120000000000175,
          "durationTicks": 53,
          "midi": 84,
          "name": "C6",
          "ticks": 36011,
          "time": 142.424,
          "velocity": 0.5039370078740157
        },
        {
          "duration": 0.21599999999997976,
          "durationTicks": 54,
          "midi": 81,
          "name": "A5",
          "ticks": 36064,
          "time": 142.63600000000002,
          "velocity": 0.5039370078740157
        },
        {
          "duration": 0.2120000000000175,
          "durationTicks": 53,
          "midi": 77,
          "name": "F5",
          "ticks": 36118,
          "time": 142.852,
          "velocity": 0.5039370078740157
        },
        {
          "duration": 0.21599999999997976,
          "durationTicks": 54,
          "midi": 88,
          "name": "E6",
          "ticks": 36171,
          "time": 143.06400000000002,
          "velocity": 0.5039370078740157
        },
        {
          "duration": 0.21600000000000819,
          "durationTicks": 54,
          "midi": 84,
          "name": "C6",
          "ticks": 36225,
          "time": 143.28,
          "velocity": 0.5039370078740157
        },
        {
          "duration": 0.21199999999998909,
          "durationTicks": 53,
          "midi": 81,
          "name": "A5",
          "ticks": 36279,
          "time": 143.496,
          "velocity": 0.5039370078740157
        },
        {
          "duration": 0.21600000000000819,
          "durationTicks": 54,
          "midi": 77,
          "name": "F5",
          "ticks": 36332,
          "time": 143.708,
          "velocity": 0.5039370078740157
        },
        {
          "duration": 0.2120000000000175,
          "durationTicks": 53,
          "midi": 88,
          "name": "E6",
          "ticks": 36386,
          "time": 143.924,
          "velocity": 0.5039370078740157
        },
        {
          "duration": 0.21599999999997976,
          "durationTicks": 54,
          "midi": 84,
          "name": "C6",
          "ticks": 36439,
          "time": 144.13600000000002,
          "velocity": 0.5039370078740157
        },
        {
          "duration": 0.2120000000000175,
          "durationTicks": 53,
          "midi": 81,
          "name": "A5",
          "ticks": 36493,
          "time": 144.352,
          "velocity": 0.5039370078740157
        },
        {
          "duration": 0.21599999999997976,
          "durationTicks": 54,
          "midi": 77,
          "name": "F5",
          "ticks": 36546,
          "time": 144.56400000000002,
          "velocity": 0.5039370078740157
        },
        {
          "duration": 0.21600000000000819,
          "durationTicks": 54,
          "midi": 88,
          "name": "E6",
          "ticks": 36600,
          "time": 144.78,
          "velocity": 0.5039370078740157
        },
        {
          "duration": 0.21199999999998909,
          "durationTicks": 53,
          "midi": 84,
          "name": "C6",
          "ticks": 36654,
          "time": 144.996,
          "velocity": 0.5039370078740157
        },
        {
          "duration": 0.21600000000000819,
          "durationTicks": 54,
          "midi": 81,
          "name": "A5",
          "ticks": 36707,
          "time": 145.208,
          "velocity": 0.5039370078740157
        },
        {
          "duration": 0.2120000000000175,
          "durationTicks": 53,
          "midi": 77,
          "name": "F5",
          "ticks": 36761,
          "time": 145.424,
          "velocity": 0.5039370078740157
        },
        {
          "duration": 0.21599999999997976,
          "durationTicks": 54,
          "midi": 88,
          "name": "E6",
          "ticks": 36814,
          "time": 145.63600000000002,
          "velocity": 0.5039370078740157
        },
        {
          "duration": 0.2120000000000175,
          "durationTicks": 53,
          "midi": 84,
          "name": "C6",
          "ticks": 36868,
          "time": 145.852,
          "velocity": 0.5039370078740157
        },
        {
          "duration": 0.21599999999997976,
          "durationTicks": 54,
          "midi": 81,
          "name": "A5",
          "ticks": 36921,
          "time": 146.06400000000002,
          "velocity": 0.5039370078740157
        },
        {
          "duration": 0.21600000000000819,
          "durationTicks": 54,
          "midi": 77,
          "name": "F5",
          "ticks": 36975,
          "time": 146.28,
          "velocity": 0.5039370078740157
        },
        {
          "duration": 0.21199999999998909,
          "durationTicks": 53,
          "midi": 88,
          "name": "E6",
          "ticks": 37029,
          "time": 146.496,
          "velocity": 0.5039370078740157
        },
        {
          "duration": 0.21600000000000819,
          "durationTicks": 54,
          "midi": 84,
          "name": "C6",
          "ticks": 37082,
          "time": 146.708,
          "velocity": 0.5039370078740157
        },
        {
          "duration": 0.2120000000000175,
          "durationTicks": 53,
          "midi": 81,
          "name": "A5",
          "ticks": 37136,
          "time": 146.924,
          "velocity": 0.5039370078740157
        },
        {
          "duration": 0.21599999999997976,
          "durationTicks": 54,
          "midi": 77,
          "name": "F5",
          "ticks": 37189,
          "time": 147.13600000000002,
          "velocity": 0.5039370078740157
        },
        {
          "duration": 0.2120000000000175,
          "durationTicks": 53,
          "midi": 88,
          "name": "E6",
          "ticks": 37243,
          "time": 147.352,
          "velocity": 0.5039370078740157
        },
        {
          "duration": 0.21599999999997976,
          "durationTicks": 54,
          "midi": 84,
          "name": "C6",
          "ticks": 37296,
          "time": 147.56400000000002,
          "velocity": 0.5039370078740157
        },
        {
          "duration": 0.21600000000000819,
          "durationTicks": 54,
          "midi": 81,
          "name": "A5",
          "ticks": 37350,
          "time": 147.78,
          "velocity": 0.5039370078740157
        },
        {
          "duration": 0.21199999999998909,
          "durationTicks": 53,
          "midi": 77,
          "name": "F5",
          "ticks": 37404,
          "time": 147.996,
          "velocity": 0.5039370078740157
        },
        {
          "duration": 0.21600000000000819,
          "durationTicks": 54,
          "midi": 86,
          "name": "D6",
          "ticks": 37457,
          "time": 148.208,
          "velocity": 0.5039370078740157
        },
        {
          "duration": 0.2120000000000175,
          "durationTicks": 53,
          "midi": 83,
          "name": "B5",
          "ticks": 37511,
          "time": 148.424,
          "velocity": 0.5039370078740157
        },
        {
          "duration": 0.21599999999997976,
          "durationTicks": 54,
          "midi": 79,
          "name": "G5",
          "ticks": 37564,
          "time": 148.63600000000002,
          "velocity": 0.5039370078740157
        },
        {
          "duration": 0.2120000000000175,
          "durationTicks": 53,
          "midi": 76,
          "name": "E5",
          "ticks": 37618,
          "time": 148.852,
          "velocity": 0.5039370078740157
        },
        {
          "duration": 0.21599999999997976,
          "durationTicks": 54,
          "midi": 86,
          "name": "D6",
          "ticks": 37671,
          "time": 149.06400000000002,
          "velocity": 0.5039370078740157
        },
        {
          "duration": 0.21600000000000819,
          "durationTicks": 54,
          "midi": 83,
          "name": "B5",
          "ticks": 37725,
          "time": 149.28,
          "velocity": 0.5039370078740157
        },
        {
          "duration": 0.21199999999998909,
          "durationTicks": 53,
          "midi": 79,
          "name": "G5",
          "ticks": 37779,
          "time": 149.496,
          "velocity": 0.5039370078740157
        },
        {
          "duration": 0.21600000000000819,
          "durationTicks": 54,
          "midi": 76,
          "name": "E5",
          "ticks": 37832,
          "time": 149.708,
          "velocity": 0.5039370078740157
        },
        {
          "duration": 0.2120000000000175,
          "durationTicks": 53,
          "midi": 86,
          "name": "D6",
          "ticks": 37886,
          "time": 149.924,
          "velocity": 0.5039370078740157
        },
        {
          "duration": 0.21599999999997976,
          "durationTicks": 54,
          "midi": 83,
          "name": "B5",
          "ticks": 37939,
          "time": 150.13600000000002,
          "velocity": 0.5039370078740157
        },
        {
          "duration": 0.2120000000000175,
          "durationTicks": 53,
          "midi": 79,
          "name": "G5",
          "ticks": 37993,
          "time": 150.352,
          "velocity": 0.5039370078740157
        },
        {
          "duration": 0.21599999999997976,
          "durationTicks": 54,
          "midi": 76,
          "name": "E5",
          "ticks": 38046,
          "time": 150.56400000000002,
          "velocity": 0.5039370078740157
        },
        {
          "duration": 0.21600000000000819,
          "durationTicks": 54,
          "midi": 86,
          "name": "D6",
          "ticks": 38100,
          "time": 150.78,
          "velocity": 0.5039370078740157
        },
        {
          "duration": 0.21199999999998909,
          "durationTicks": 53,
          "midi": 83,
          "name": "B5",
          "ticks": 38154,
          "time": 150.996,
          "velocity": 0.5039370078740157
        },
        {
          "duration": 0.21600000000000819,
          "durationTicks": 54,
          "midi": 79,
          "name": "G5",
          "ticks": 38207,
          "time": 151.208,
          "velocity": 0.5039370078740157
        },
        {
          "duration": 0.2120000000000175,
          "durationTicks": 53,
          "midi": 76,
          "name": "E5",
          "ticks": 38261,
          "time": 151.424,
          "velocity": 0.5039370078740157
        },
        {
          "duration": 0.21599999999997976,
          "durationTicks": 54,
          "midi": 86,
          "name": "D6",
          "ticks": 38314,
          "time": 151.63600000000002,
          "velocity": 0.5039370078740157
        },
        {
          "duration": 0.2120000000000175,
          "durationTicks": 53,
          "midi": 83,
          "name": "B5",
          "ticks": 38368,
          "time": 151.852,
          "velocity": 0.5039370078740157
        },
        {
          "duration": 0.21599999999997976,
          "durationTicks": 54,
          "midi": 79,
          "name": "G5",
          "ticks": 38421,
          "time": 152.06400000000002,
          "velocity": 0.5039370078740157
        },
        {
          "duration": 0.21600000000000819,
          "durationTicks": 54,
          "midi": 76,
          "name": "E5",
          "ticks": 38475,
          "time": 152.28,
          "velocity": 0.5039370078740157
        },
        {
          "duration": 0.21199999999998909,
          "durationTicks": 53,
          "midi": 86,
          "name": "D6",
          "ticks": 38529,
          "time": 152.496,
          "velocity": 0.5039370078740157
        },
        {
          "duration": 0.21600000000000819,
          "durationTicks": 54,
          "midi": 83,
          "name": "B5",
          "ticks": 38582,
          "time": 152.708,
          "velocity": 0.5039370078740157
        },
        {
          "duration": 0.2120000000000175,
          "durationTicks": 53,
          "midi": 79,
          "name": "G5",
          "ticks": 38636,
          "time": 152.924,
          "velocity": 0.5039370078740157
        },
        {
          "duration": 0.21599999999997976,
          "durationTicks": 54,
          "midi": 76,
          "name": "E5",
          "ticks": 38689,
          "time": 153.13600000000002,
          "velocity": 0.5039370078740157
        },
        {
          "duration": 0.2120000000000175,
          "durationTicks": 53,
          "midi": 86,
          "name": "D6",
          "ticks": 38743,
          "time": 153.352,
          "velocity": 0.5039370078740157
        },
        {
          "duration": 0.21599999999997976,
          "durationTicks": 54,
          "midi": 83,
          "name": "B5",
          "ticks": 38796,
          "time": 153.56400000000002,
          "velocity": 0.5039370078740157
        },
        {
          "duration": 0.21600000000000819,
          "durationTicks": 54,
          "midi": 79,
          "name": "G5",
          "ticks": 38850,
          "time": 153.78,
          "velocity": 0.5039370078740157
        },
        {
          "duration": 0.21199999999998909,
          "durationTicks": 53,
          "midi": 76,
          "name": "E5",
          "ticks": 38904,
          "time": 153.996,
          "velocity": 0.5039370078740157
        },
        {
          "duration": 0.21600000000000819,
          "durationTicks": 54,
          "midi": 86,
          "name": "D6",
          "ticks": 38957,
          "time": 154.208,
          "velocity": 0.5039370078740157
        },
        {
          "duration": 0.2120000000000175,
          "durationTicks": 53,
          "midi": 83,
          "name": "B5",
          "ticks": 39011,
          "time": 154.424,
          "velocity": 0.5039370078740157
        },
        {
          "duration": 0.21599999999997976,
          "durationTicks": 54,
          "midi": 79,
          "name": "G5",
          "ticks": 39064,
          "time": 154.63600000000002,
          "velocity": 0.5039370078740157
        },
        {
          "duration": 0.2120000000000175,
          "durationTicks": 53,
          "midi": 76,
          "name": "E5",
          "ticks": 39118,
          "time": 154.852,
          "velocity": 0.5039370078740157
        },
        {
          "duration": 0.21599999999997976,
          "durationTicks": 54,
          "midi": 88,
          "name": "E6",
          "ticks": 39171,
          "time": 155.06400000000002,
          "velocity": 0.5039370078740157
        },
        {
          "duration": 0.21600000000000819,
          "durationTicks": 54,
          "midi": 84,
          "name": "C6",
          "ticks": 39225,
          "time": 155.28,
          "velocity": 0.5039370078740157
        },
        {
          "duration": 0.21199999999998909,
          "durationTicks": 53,
          "midi": 81,
          "name": "A5",
          "ticks": 39279,
          "time": 155.496,
          "velocity": 0.5039370078740157
        },
        {
          "duration": 0.21600000000000819,
          "durationTicks": 54,
          "midi": 77,
          "name": "F5",
          "ticks": 39332,
          "time": 155.708,
          "velocity": 0.5039370078740157
        },
        {
          "duration": 0.2120000000000175,
          "durationTicks": 53,
          "midi": 88,
          "name": "E6",
          "ticks": 39386,
          "time": 155.924,
          "velocity": 0.5039370078740157
        },
        {
          "duration": 0.21599999999997976,
          "durationTicks": 54,
          "midi": 84,
          "name": "C6",
          "ticks": 39439,
          "time": 156.13600000000002,
          "velocity": 0.5039370078740157
        },
        {
          "duration": 0.2120000000000175,
          "durationTicks": 53,
          "midi": 81,
          "name": "A5",
          "ticks": 39493,
          "time": 156.352,
          "velocity": 0.5039370078740157
        },
        {
          "duration": 0.21599999999997976,
          "durationTicks": 54,
          "midi": 77,
          "name": "F5",
          "ticks": 39546,
          "time": 156.56400000000002,
          "velocity": 0.5039370078740157
        },
        {
          "duration": 0.21600000000000819,
          "durationTicks": 54,
          "midi": 88,
          "name": "E6",
          "ticks": 39600,
          "time": 156.78,
          "velocity": 0.5039370078740157
        },
        {
          "duration": 0.21199999999998909,
          "durationTicks": 53,
          "midi": 84,
          "name": "C6",
          "ticks": 39654,
          "time": 156.996,
          "velocity": 0.5039370078740157
        },
        {
          "duration": 0.21600000000000819,
          "durationTicks": 54,
          "midi": 81,
          "name": "A5",
          "ticks": 39707,
          "time": 157.208,
          "velocity": 0.5039370078740157
        },
        {
          "duration": 0.2120000000000175,
          "durationTicks": 53,
          "midi": 77,
          "name": "F5",
          "ticks": 39761,
          "time": 157.424,
          "velocity": 0.5039370078740157
        },
        {
          "duration": 0.21599999999997976,
          "durationTicks": 54,
          "midi": 88,
          "name": "E6",
          "ticks": 39814,
          "time": 157.63600000000002,
          "velocity": 0.5039370078740157
        },
        {
          "duration": 0.2120000000000175,
          "durationTicks": 53,
          "midi": 84,
          "name": "C6",
          "ticks": 39868,
          "time": 157.852,
          "velocity": 0.5039370078740157
        },
        {
          "duration": 0.21599999999997976,
          "durationTicks": 54,
          "midi": 81,
          "name": "A5",
          "ticks": 39921,
          "time": 158.06400000000002,
          "velocity": 0.5039370078740157
        },
        {
          "duration": 0.21600000000000819,
          "durationTicks": 54,
          "midi": 77,
          "name": "F5",
          "ticks": 39975,
          "time": 158.28,
          "velocity": 0.5039370078740157
        },
        {
          "duration": 0.21199999999998909,
          "durationTicks": 53,
          "midi": 88,
          "name": "E6",
          "ticks": 40029,
          "time": 158.496,
          "velocity": 0.5039370078740157
        },
        {
          "duration": 0.21600000000000819,
          "durationTicks": 54,
          "midi": 84,
          "name": "C6",
          "ticks": 40082,
          "time": 158.708,
          "velocity": 0.5039370078740157
        },
        {
          "duration": 0.2120000000000175,
          "durationTicks": 53,
          "midi": 81,
          "name": "A5",
          "ticks": 40136,
          "time": 158.924,
          "velocity": 0.5039370078740157
        },
        {
          "duration": 0.21599999999997976,
          "durationTicks": 54,
          "midi": 77,
          "name": "F5",
          "ticks": 40189,
          "time": 159.13600000000002,
          "velocity": 0.5039370078740157
        },
        {
          "duration": 0.2120000000000175,
          "durationTicks": 53,
          "midi": 88,
          "name": "E6",
          "ticks": 40243,
          "time": 159.352,
          "velocity": 0.5039370078740157
        },
        {
          "duration": 0.21599999999997976,
          "durationTicks": 54,
          "midi": 84,
          "name": "C6",
          "ticks": 40296,
          "time": 159.56400000000002,
          "velocity": 0.5039370078740157
        },
        {
          "duration": 0.21600000000000819,
          "durationTicks": 54,
          "midi": 81,
          "name": "A5",
          "ticks": 40350,
          "time": 159.78,
          "velocity": 0.5039370078740157
        },
        {
          "duration": 0.21199999999998909,
          "durationTicks": 53,
          "midi": 77,
          "name": "F5",
          "ticks": 40404,
          "time": 159.996,
          "velocity": 0.5039370078740157
        },
        {
          "duration": 0.21600000000000819,
          "durationTicks": 54,
          "midi": 88,
          "name": "E6",
          "ticks": 40457,
          "time": 160.208,
          "velocity": 0.5039370078740157
        },
        {
          "duration": 0.2120000000000175,
          "durationTicks": 53,
          "midi": 84,
          "name": "C6",
          "ticks": 40511,
          "time": 160.424,
          "velocity": 0.5039370078740157
        },
        {
          "duration": 0.21599999999997976,
          "durationTicks": 54,
          "midi": 81,
          "name": "A5",
          "ticks": 40564,
          "time": 160.63600000000002,
          "velocity": 0.5039370078740157
        },
        {
          "duration": 0.2120000000000175,
          "durationTicks": 53,
          "midi": 77,
          "name": "F5",
          "ticks": 40618,
          "time": 160.852,
          "velocity": 0.5039370078740157
        },
        {
          "duration": 0.21599999999997976,
          "durationTicks": 54,
          "midi": 88,
          "name": "E6",
          "ticks": 40671,
          "time": 161.06400000000002,
          "velocity": 0.5039370078740157
        },
        {
          "duration": 0.21600000000000819,
          "durationTicks": 54,
          "midi": 84,
          "name": "C6",
          "ticks": 40725,
          "time": 161.28,
          "velocity": 0.5039370078740157
        },
        {
          "duration": 0.21199999999998909,
          "durationTicks": 53,
          "midi": 81,
          "name": "A5",
          "ticks": 40779,
          "time": 161.496,
          "velocity": 0.5039370078740157
        },
        {
          "duration": 0.21600000000000819,
          "durationTicks": 54,
          "midi": 77,
          "name": "F5",
          "ticks": 40832,
          "time": 161.708,
          "velocity": 0.5039370078740157
        },
        {
          "duration": 0.2120000000000175,
          "durationTicks": 53,
          "midi": 86,
          "name": "D6",
          "ticks": 40886,
          "time": 161.924,
          "velocity": 0.5039370078740157
        },
        {
          "duration": 0.21599999999997976,
          "durationTicks": 54,
          "midi": 83,
          "name": "B5",
          "ticks": 40939,
          "time": 162.13600000000002,
          "velocity": 0.5039370078740157
        },
        {
          "duration": 0.2120000000000175,
          "durationTicks": 53,
          "midi": 79,
          "name": "G5",
          "ticks": 40993,
          "time": 162.352,
          "velocity": 0.5039370078740157
        },
        {
          "duration": 0.21599999999997976,
          "durationTicks": 54,
          "midi": 76,
          "name": "E5",
          "ticks": 41046,
          "time": 162.56400000000002,
          "velocity": 0.5039370078740157
        },
        {
          "duration": 0.21600000000000819,
          "durationTicks": 54,
          "midi": 86,
          "name": "D6",
          "ticks": 41100,
          "time": 162.78,
          "velocity": 0.5039370078740157
        },
        {
          "duration": 0.21199999999998909,
          "durationTicks": 53,
          "midi": 83,
          "name": "B5",
          "ticks": 41154,
          "time": 162.996,
          "velocity": 0.5039370078740157
        },
        {
          "duration": 0.21600000000000819,
          "durationTicks": 54,
          "midi": 79,
          "name": "G5",
          "ticks": 41207,
          "time": 163.208,
          "velocity": 0.5039370078740157
        },
        {
          "duration": 0.2120000000000175,
          "durationTicks": 53,
          "midi": 76,
          "name": "E5",
          "ticks": 41261,
          "time": 163.424,
          "velocity": 0.5039370078740157
        },
        {
          "duration": 0.21599999999997976,
          "durationTicks": 54,
          "midi": 86,
          "name": "D6",
          "ticks": 41314,
          "time": 163.63600000000002,
          "velocity": 0.5039370078740157
        },
        {
          "duration": 0.2120000000000175,
          "durationTicks": 53,
          "midi": 83,
          "name": "B5",
          "ticks": 41368,
          "time": 163.852,
          "velocity": 0.5039370078740157
        },
        {
          "duration": 0.21599999999997976,
          "durationTicks": 54,
          "midi": 79,
          "name": "G5",
          "ticks": 41421,
          "time": 164.06400000000002,
          "velocity": 0.5039370078740157
        },
        {
          "duration": 0.21600000000000819,
          "durationTicks": 54,
          "midi": 76,
          "name": "E5",
          "ticks": 41475,
          "time": 164.28,
          "velocity": 0.5039370078740157
        },
        {
          "duration": 0.21199999999998909,
          "durationTicks": 53,
          "midi": 86,
          "name": "D6",
          "ticks": 41529,
          "time": 164.496,
          "velocity": 0.5039370078740157
        },
        {
          "duration": 0.21600000000000819,
          "durationTicks": 54,
          "midi": 83,
          "name": "B5",
          "ticks": 41582,
          "time": 164.708,
          "velocity": 0.5039370078740157
        },
        {
          "duration": 0.2120000000000175,
          "durationTicks": 53,
          "midi": 79,
          "name": "G5",
          "ticks": 41636,
          "time": 164.924,
          "velocity": 0.5039370078740157
        },
        {
          "duration": 0.21599999999997976,
          "durationTicks": 54,
          "midi": 76,
          "name": "E5",
          "ticks": 41689,
          "time": 165.13600000000002,
          "velocity": 0.5039370078740157
        },
        {
          "duration": 0.8559999999999945,
          "durationTicks": 214,
          "midi": 95,
          "name": "B6",
          "ticks": 41743,
          "time": 165.352,
          "velocity": 0.5039370078740157
        },
        {
          "duration": 0.8559999999999945,
          "durationTicks": 214,
          "midi": 91,
          "name": "G6",
          "ticks": 41743,
          "time": 165.352,
          "velocity": 0.5039370078740157
        },
        {
          "duration": 0.856000000000023,
          "durationTicks": 214,
          "midi": 91,
          "name": "G6",
          "ticks": 41957,
          "time": 166.208,
          "velocity": 0.5039370078740157
        },
        {
          "duration": 0.856000000000023,
          "durationTicks": 214,
          "midi": 86,
          "name": "D6",
          "ticks": 41957,
          "time": 166.208,
          "velocity": 0.5039370078740157
        },
        {
          "duration": 0.8599999999999852,
          "durationTicks": 215,
          "midi": 86,
          "name": "D6",
          "ticks": 42171,
          "time": 167.06400000000002,
          "velocity": 0.5039370078740157
        },
        {
          "duration": 0.8599999999999852,
          "durationTicks": 215,
          "midi": 83,
          "name": "B5",
          "ticks": 42171,
          "time": 167.06400000000002,
          "velocity": 0.5039370078740157
        },
        {
          "duration": 2.5720000000000027,
          "durationTicks": 643,
          "midi": 83,
          "name": "B5",
          "ticks": 42386,
          "time": 167.924,
          "velocity": 0.5039370078740157
        },
        {
          "duration": 2.5720000000000027,
          "durationTicks": 643,
          "midi": 79,
          "name": "G5",
          "ticks": 42386,
          "time": 167.924,
          "velocity": 0.5039370078740157
        }
      ]
    },
    {
      "channel": 4,
      "controlChanges": {
        "11": [
          {
            "number": 11,
            "ticks": 17743,
            "time": 69.35199999999999,
            "value": 1
          },
          {
            "number": 11,
            "ticks": 35743,
            "time": 141.352,
            "value": 1
          }
        ],
        "120": [
          {
            "number": 120,
            "ticks": 43457,
            "time": 172.208,
            "value": 0
          }
        ]
      },
      "pitchBends": [],
      "instrument": {
        "family": "strings",
        "number": 46,
        "name": "orchestral harp"
      },
      "name": "",
      "notes": [
        {
          "duration": 0.21599999999999397,
          "durationTicks": 54,
          "midi": 88,
          "name": "E6",
          "ticks": 17756,
          "time": 69.404,
          "velocity": 0.5039370078740157
        },
        {
          "duration": 0.2120000000000033,
          "durationTicks": 53,
          "midi": 84,
          "name": "C6",
          "ticks": 17810,
          "time": 69.61999999999999,
          "velocity": 0.5039370078740157
        },
        {
          "duration": 0.21600000000000819,
          "durationTicks": 54,
          "midi": 81,
          "name": "A5",
          "ticks": 17863,
          "time": 69.832,
          "velocity": 0.5039370078740157
        },
        {
          "duration": 0.21599999999999397,
          "durationTicks": 54,
          "midi": 77,
          "name": "F5",
          "ticks": 17917,
          "time": 70.048,
          "velocity": 0.5039370078740157
        },
        {
          "duration": 0.21199999999998909,
          "durationTicks": 53,
          "midi": 88,
          "name": "E6",
          "ticks": 17971,
          "time": 70.264,
          "velocity": 0.5039370078740157
        },
        {
          "duration": 0.21600000000000819,
          "durationTicks": 54,
          "midi": 84,
          "name": "C6",
          "ticks": 18024,
          "time": 70.47599999999998,
          "velocity": 0.5039370078740157
        },
        {
          "duration": 0.2120000000000033,
          "durationTicks": 53,
          "midi": 81,
          "name": "A5",
          "ticks": 18078,
          "time": 70.692,
          "velocity": 0.5039370078740157
        },
        {
          "duration": 0.21599999999999397,
          "durationTicks": 54,
          "midi": 77,
          "name": "F5",
          "ticks": 18131,
          "time": 70.904,
          "velocity": 0.5039370078740157
        },
        {
          "duration": 0.2120000000000033,
          "durationTicks": 53,
          "midi": 88,
          "name": "E6",
          "ticks": 18185,
          "time": 71.11999999999999,
          "velocity": 0.5039370078740157
        },
        {
          "duration": 0.21600000000000819,
          "durationTicks": 54,
          "midi": 84,
          "name": "C6",
          "ticks": 18238,
          "time": 71.332,
          "velocity": 0.5039370078740157
        },
        {
          "duration": 0.21599999999999397,
          "durationTicks": 54,
          "midi": 81,
          "name": "A5",
          "ticks": 18292,
          "time": 71.548,
          "velocity": 0.5039370078740157
        },
        {
          "duration": 0.21199999999998909,
          "durationTicks": 53,
          "midi": 77,
          "name": "F5",
          "ticks": 18346,
          "time": 71.764,
          "velocity": 0.5039370078740157
        },
        {
          "duration": 0.21600000000000819,
          "durationTicks": 54,
          "midi": 88,
          "name": "E6",
          "ticks": 18399,
          "time": 71.97599999999998,
          "velocity": 0.5039370078740157
        },
        {
          "duration": 0.2120000000000033,
          "durationTicks": 53,
          "midi": 84,
          "name": "C6",
          "ticks": 18453,
          "time": 72.192,
          "velocity": 0.5039370078740157
        },
        {
          "duration": 0.21599999999999397,
          "durationTicks": 54,
          "midi": 81,
          "name": "A5",
          "ticks": 18506,
          "time": 72.404,
          "velocity": 0.5039370078740157
        },
        {
          "duration": 0.2120000000000033,
          "durationTicks": 53,
          "midi": 77,
          "name": "F5",
          "ticks": 18560,
          "time": 72.61999999999999,
          "velocity": 0.5039370078740157
        },
        {
          "duration": 0.21600000000000819,
          "durationTicks": 54,
          "midi": 88,
          "name": "E6",
          "ticks": 18613,
          "time": 72.832,
          "velocity": 0.5039370078740157
        },
        {
          "duration": 0.21599999999999397,
          "durationTicks": 54,
          "midi": 84,
          "name": "C6",
          "ticks": 18667,
          "time": 73.048,
          "velocity": 0.5039370078740157
        },
        {
          "duration": 0.21199999999998909,
          "durationTicks": 53,
          "midi": 81,
          "name": "A5",
          "ticks": 18721,
          "time": 73.264,
          "velocity": 0.5039370078740157
        },
        {
          "duration": 0.21600000000000819,
          "durationTicks": 54,
          "midi": 77,
          "name": "F5",
          "ticks": 18774,
          "time": 73.47599999999998,
          "velocity": 0.5039370078740157
        },
        {
          "duration": 0.2120000000000033,
          "durationTicks": 53,
          "midi": 88,
          "name": "E6",
          "ticks": 18828,
          "time": 73.692,
          "velocity": 0.5039370078740157
        },
        {
          "duration": 0.21599999999999397,
          "durationTicks": 54,
          "midi": 84,
          "name": "C6",
          "ticks": 18881,
          "time": 73.904,
          "velocity": 0.5039370078740157
        },
        {
          "duration": 0.2120000000000033,
          "durationTicks": 53,
          "midi": 81,
          "name": "A5",
          "ticks": 18935,
          "time": 74.11999999999999,
          "velocity": 0.5039370078740157
        },
        {
          "duration": 0.21600000000000819,
          "durationTicks": 54,
          "midi": 77,
          "name": "F5",
          "ticks": 18988,
          "time": 74.332,
          "velocity": 0.5039370078740157
        },
        {
          "duration": 0.21599999999999397,
          "durationTicks": 54,
          "midi": 88,
          "name": "E6",
          "ticks": 19042,
          "time": 74.548,
          "velocity": 0.5039370078740157
        },
        {
          "duration": 0.21199999999998909,
          "durationTicks": 53,
          "midi": 84,
          "name": "C6",
          "ticks": 19096,
          "time": 74.764,
          "velocity": 0.5039370078740157
        },
        {
          "duration": 0.21600000000000819,
          "durationTicks": 54,
          "midi": 81,
          "name": "A5",
          "ticks": 19149,
          "time": 74.97599999999998,
          "velocity": 0.5039370078740157
        },
        {
          "duration": 0.2120000000000033,
          "durationTicks": 53,
          "midi": 77,
          "name": "F5",
          "ticks": 19203,
          "time": 75.192,
          "velocity": 0.5039370078740157
        },
        {
          "duration": 0.21599999999999397,
          "durationTicks": 54,
          "midi": 88,
          "name": "E6",
          "ticks": 19256,
          "time": 75.404,
          "velocity": 0.5039370078740157
        },
        {
          "duration": 0.2120000000000033,
          "durationTicks": 53,
          "midi": 84,
          "name": "C6",
          "ticks": 19310,
          "time": 75.61999999999999,
          "velocity": 0.5039370078740157
        },
        {
          "duration": 0.21600000000000819,
          "durationTicks": 54,
          "midi": 81,
          "name": "A5",
          "ticks": 19363,
          "time": 75.832,
          "velocity": 0.5039370078740157
        },
        {
          "duration": 0.21599999999999397,
          "durationTicks": 54,
          "midi": 77,
          "name": "F5",
          "ticks": 19417,
          "time": 76.048,
          "velocity": 0.5039370078740157
        },
        {
          "duration": 0.21199999999998909,
          "durationTicks": 53,
          "midi": 86,
          "name": "D6",
          "ticks": 19471,
          "time": 76.264,
          "velocity": 0.5039370078740157
        },
        {
          "duration": 0.21600000000000819,
          "durationTicks": 54,
          "midi": 83,
          "name": "B5",
          "ticks": 19524,
          "time": 76.47599999999998,
          "velocity": 0.5039370078740157
        },
        {
          "duration": 0.2120000000000033,
          "durationTicks": 53,
          "midi": 79,
          "name": "G5",
          "ticks": 19578,
          "time": 76.692,
          "velocity": 0.5039370078740157
        },
        {
          "duration": 0.21599999999999397,
          "durationTicks": 54,
          "midi": 76,
          "name": "E5",
          "ticks": 19631,
          "time": 76.904,
          "velocity": 0.5039370078740157
        },
        {
          "duration": 0.2120000000000033,
          "durationTicks": 53,
          "midi": 86,
          "name": "D6",
          "ticks": 19685,
          "time": 77.11999999999999,
          "velocity": 0.5039370078740157
        },
        {
          "duration": 0.21600000000000819,
          "durationTicks": 54,
          "midi": 83,
          "name": "B5",
          "ticks": 19738,
          "time": 77.332,
          "velocity": 0.5039370078740157
        },
        {
          "duration": 0.21599999999999397,
          "durationTicks": 54,
          "midi": 79,
          "name": "G5",
          "ticks": 19792,
          "time": 77.548,
          "velocity": 0.5039370078740157
        },
        {
          "duration": 0.21199999999998909,
          "durationTicks": 53,
          "midi": 76,
          "name": "E5",
          "ticks": 19846,
          "time": 77.764,
          "velocity": 0.5039370078740157
        },
        {
          "duration": 0.21600000000000819,
          "durationTicks": 54,
          "midi": 86,
          "name": "D6",
          "ticks": 19899,
          "time": 77.97599999999998,
          "velocity": 0.5039370078740157
        },
        {
          "duration": 0.2120000000000033,
          "durationTicks": 53,
          "midi": 83,
          "name": "B5",
          "ticks": 19953,
          "time": 78.192,
          "velocity": 0.5039370078740157
        },
        {
          "duration": 0.21599999999999397,
          "durationTicks": 54,
          "midi": 79,
          "name": "G5",
          "ticks": 20006,
          "time": 78.404,
          "velocity": 0.5039370078740157
        },
        {
          "duration": 0.2120000000000033,
          "durationTicks": 53,
          "midi": 76,
          "name": "E5",
          "ticks": 20060,
          "time": 78.61999999999999,
          "velocity": 0.5039370078740157
        },
        {
          "duration": 0.21600000000000819,
          "durationTicks": 54,
          "midi": 86,
          "name": "D6",
          "ticks": 20113,
          "time": 78.832,
          "velocity": 0.5039370078740157
        },
        {
          "duration": 0.21599999999999397,
          "durationTicks": 54,
          "midi": 83,
          "name": "B5",
          "ticks": 20167,
          "time": 79.048,
          "velocity": 0.5039370078740157
        },
        {
          "duration": 0.21199999999998909,
          "durationTicks": 53,
          "midi": 79,
          "name": "G5",
          "ticks": 20221,
          "time": 79.264,
          "velocity": 0.5039370078740157
        },
        {
          "duration": 0.21600000000000819,
          "durationTicks": 54,
          "midi": 76,
          "name": "E5",
          "ticks": 20274,
          "time": 79.47599999999998,
          "velocity": 0.5039370078740157
        },
        {
          "duration": 0.2120000000000033,
          "durationTicks": 53,
          "midi": 86,
          "name": "D6",
          "ticks": 20328,
          "time": 79.692,
          "velocity": 0.5039370078740157
        },
        {
          "duration": 0.21599999999999397,
          "durationTicks": 54,
          "midi": 83,
          "name": "B5",
          "ticks": 20381,
          "time": 79.904,
          "velocity": 0.5039370078740157
        },
        {
          "duration": 0.2120000000000033,
          "durationTicks": 53,
          "midi": 79,
          "name": "G5",
          "ticks": 20435,
          "time": 80.11999999999999,
          "velocity": 0.5039370078740157
        },
        {
          "duration": 0.21600000000000819,
          "durationTicks": 54,
          "midi": 76,
          "name": "E5",
          "ticks": 20488,
          "time": 80.332,
          "velocity": 0.5039370078740157
        },
        {
          "duration": 0.21599999999999397,
          "durationTicks": 54,
          "midi": 86,
          "name": "D6",
          "ticks": 20542,
          "time": 80.548,
          "velocity": 0.5039370078740157
        },
        {
          "duration": 0.21199999999998909,
          "durationTicks": 53,
          "midi": 83,
          "name": "B5",
          "ticks": 20596,
          "time": 80.764,
          "velocity": 0.5039370078740157
        },
        {
          "duration": 0.21600000000000819,
          "durationTicks": 54,
          "midi": 79,
          "name": "G5",
          "ticks": 20649,
          "time": 80.97599999999998,
          "velocity": 0.5039370078740157
        },
        {
          "duration": 0.2120000000000033,
          "durationTicks": 53,
          "midi": 76,
          "name": "E5",
          "ticks": 20703,
          "time": 81.192,
          "velocity": 0.5039370078740157
        },
        {
          "duration": 0.21599999999999397,
          "durationTicks": 54,
          "midi": 86,
          "name": "D6",
          "ticks": 20756,
          "time": 81.404,
          "velocity": 0.5039370078740157
        },
        {
          "duration": 0.2120000000000033,
          "durationTicks": 53,
          "midi": 83,
          "name": "B5",
          "ticks": 20810,
          "time": 81.61999999999999,
          "velocity": 0.5039370078740157
        },
        {
          "duration": 0.21600000000000819,
          "durationTicks": 54,
          "midi": 79,
          "name": "G5",
          "ticks": 20863,
          "time": 81.832,
          "velocity": 0.5039370078740157
        },
        {
          "duration": 0.21599999999999397,
          "durationTicks": 54,
          "midi": 76,
          "name": "E5",
          "ticks": 20917,
          "time": 82.048,
          "velocity": 0.5039370078740157
        },
        {
          "duration": 0.21199999999998909,
          "durationTicks": 53,
          "midi": 86,
          "name": "D6",
          "ticks": 20971,
          "time": 82.264,
          "velocity": 0.5039370078740157
        },
        {
          "duration": 0.21600000000000819,
          "durationTicks": 54,
          "midi": 83,
          "name": "B5",
          "ticks": 21024,
          "time": 82.47599999999998,
          "velocity": 0.5039370078740157
        },
        {
          "duration": 0.2120000000000033,
          "durationTicks": 53,
          "midi": 79,
          "name": "G5",
          "ticks": 21078,
          "time": 82.692,
          "velocity": 0.5039370078740157
        },
        {
          "duration": 0.21599999999999397,
          "durationTicks": 54,
          "midi": 76,
          "name": "E5",
          "ticks": 21131,
          "time": 82.904,
          "velocity": 0.5039370078740157
        },
        {
          "duration": 0.2120000000000033,
          "durationTicks": 53,
          "midi": 88,
          "name": "E6",
          "ticks": 21185,
          "time": 83.11999999999999,
          "velocity": 0.5039370078740157
        },
        {
          "duration": 0.21600000000000819,
          "durationTicks": 54,
          "midi": 84,
          "name": "C6",
          "ticks": 21238,
          "time": 83.332,
          "velocity": 0.5039370078740157
        },
        {
          "duration": 0.21599999999999397,
          "durationTicks": 54,
          "midi": 81,
          "name": "A5",
          "ticks": 21292,
          "time": 83.548,
          "velocity": 0.5039370078740157
        },
        {
          "duration": 0.21199999999998909,
          "durationTicks": 53,
          "midi": 77,
          "name": "F5",
          "ticks": 21346,
          "time": 83.764,
          "velocity": 0.5039370078740157
        },
        {
          "duration": 0.21600000000000819,
          "durationTicks": 54,
          "midi": 88,
          "name": "E6",
          "ticks": 21399,
          "time": 83.97599999999998,
          "velocity": 0.5039370078740157
        },
        {
          "duration": 0.2120000000000033,
          "durationTicks": 53,
          "midi": 84,
          "name": "C6",
          "ticks": 21453,
          "time": 84.192,
          "velocity": 0.5039370078740157
        },
        {
          "duration": 0.21599999999999397,
          "durationTicks": 54,
          "midi": 81,
          "name": "A5",
          "ticks": 21506,
          "time": 84.404,
          "velocity": 0.5039370078740157
        },
        {
          "duration": 0.2120000000000033,
          "durationTicks": 53,
          "midi": 77,
          "name": "F5",
          "ticks": 21560,
          "time": 84.61999999999999,
          "velocity": 0.5039370078740157
        },
        {
          "duration": 0.21600000000000819,
          "durationTicks": 54,
          "midi": 88,
          "name": "E6",
          "ticks": 21613,
          "time": 84.832,
          "velocity": 0.5039370078740157
        },
        {
          "duration": 0.21599999999999397,
          "durationTicks": 54,
          "midi": 84,
          "name": "C6",
          "ticks": 21667,
          "time": 85.048,
          "velocity": 0.5039370078740157
        },
        {
          "duration": 0.21199999999998909,
          "durationTicks": 53,
          "midi": 81,
          "name": "A5",
          "ticks": 21721,
          "time": 85.264,
          "velocity": 0.5039370078740157
        },
        {
          "duration": 0.21600000000000819,
          "durationTicks": 54,
          "midi": 77,
          "name": "F5",
          "ticks": 21774,
          "time": 85.47599999999998,
          "velocity": 0.5039370078740157
        },
        {
          "duration": 0.2120000000000033,
          "durationTicks": 53,
          "midi": 88,
          "name": "E6",
          "ticks": 21828,
          "time": 85.692,
          "velocity": 0.5039370078740157
        },
        {
          "duration": 0.21599999999999397,
          "durationTicks": 54,
          "midi": 84,
          "name": "C6",
          "ticks": 21881,
          "time": 85.904,
          "velocity": 0.5039370078740157
        },
        {
          "duration": 0.2120000000000033,
          "durationTicks": 53,
          "midi": 81,
          "name": "A5",
          "ticks": 21935,
          "time": 86.11999999999999,
          "velocity": 0.5039370078740157
        },
        {
          "duration": 0.21600000000000819,
          "durationTicks": 54,
          "midi": 77,
          "name": "F5",
          "ticks": 21988,
          "time": 86.332,
          "velocity": 0.5039370078740157
        },
        {
          "duration": 0.21599999999999397,
          "durationTicks": 54,
          "midi": 88,
          "name": "E6",
          "ticks": 22042,
          "time": 86.548,
          "velocity": 0.5039370078740157
        },
        {
          "duration": 0.21199999999998909,
          "durationTicks": 53,
          "midi": 84,
          "name": "C6",
          "ticks": 22096,
          "time": 86.764,
          "velocity": 0.5039370078740157
        },
        {
          "duration": 0.21600000000000819,
          "durationTicks": 54,
          "midi": 81,
          "name": "A5",
          "ticks": 22149,
          "time": 86.97599999999998,
          "velocity": 0.5039370078740157
        },
        {
          "duration": 0.2120000000000033,
          "durationTicks": 53,
          "midi": 77,
          "name": "F5",
          "ticks": 22203,
          "time": 87.192,
          "velocity": 0.5039370078740157
        },
        {
          "duration": 0.21599999999999397,
          "durationTicks": 54,
          "midi": 88,
          "name": "E6",
          "ticks": 22256,
          "time": 87.404,
          "velocity": 0.5039370078740157
        },
        {
          "duration": 0.2120000000000033,
          "durationTicks": 53,
          "midi": 84,
          "name": "C6",
          "ticks": 22310,
          "time": 87.61999999999999,
          "velocity": 0.5039370078740157
        },
        {
          "duration": 0.21600000000000819,
          "durationTicks": 54,
          "midi": 81,
          "name": "A5",
          "ticks": 22363,
          "time": 87.832,
          "velocity": 0.5039370078740157
        },
        {
          "duration": 0.21599999999999397,
          "durationTicks": 54,
          "midi": 77,
          "name": "F5",
          "ticks": 22417,
          "time": 88.048,
          "velocity": 0.5039370078740157
        },
        {
          "duration": 0.21199999999998909,
          "durationTicks": 53,
          "midi": 88,
          "name": "E6",
          "ticks": 22471,
          "time": 88.264,
          "velocity": 0.5039370078740157
        },
        {
          "duration": 0.21600000000000819,
          "durationTicks": 54,
          "midi": 84,
          "name": "C6",
          "ticks": 22524,
          "time": 88.47599999999998,
          "velocity": 0.5039370078740157
        },
        {
          "duration": 0.2120000000000033,
          "durationTicks": 53,
          "midi": 81,
          "name": "A5",
          "ticks": 22578,
          "time": 88.692,
          "velocity": 0.5039370078740157
        },
        {
          "duration": 0.21599999999999397,
          "durationTicks": 54,
          "midi": 77,
          "name": "F5",
          "ticks": 22631,
          "time": 88.904,
          "velocity": 0.5039370078740157
        },
        {
          "duration": 0.2120000000000033,
          "durationTicks": 53,
          "midi": 88,
          "name": "E6",
          "ticks": 22685,
          "time": 89.11999999999999,
          "velocity": 0.5039370078740157
        },
        {
          "duration": 0.21600000000000819,
          "durationTicks": 54,
          "midi": 84,
          "name": "C6",
          "ticks": 22738,
          "time": 89.332,
          "velocity": 0.5039370078740157
        },
        {
          "duration": 0.21599999999999397,
          "durationTicks": 54,
          "midi": 81,
          "name": "A5",
          "ticks": 22792,
          "time": 89.548,
          "velocity": 0.5039370078740157
        },
        {
          "duration": 0.21199999999998909,
          "durationTicks": 53,
          "midi": 77,
          "name": "F5",
          "ticks": 22846,
          "time": 89.764,
          "velocity": 0.5039370078740157
        },
        {
          "duration": 0.21600000000000819,
          "durationTicks": 54,
          "midi": 86,
          "name": "D6",
          "ticks": 22899,
          "time": 89.97599999999998,
          "velocity": 0.5039370078740157
        },
        {
          "duration": 0.2120000000000033,
          "durationTicks": 53,
          "midi": 83,
          "name": "B5",
          "ticks": 22953,
          "time": 90.192,
          "velocity": 0.5039370078740157
        },
        {
          "duration": 0.21599999999999397,
          "durationTicks": 54,
          "midi": 79,
          "name": "G5",
          "ticks": 23006,
          "time": 90.404,
          "velocity": 0.5039370078740157
        },
        {
          "duration": 0.2120000000000033,
          "durationTicks": 53,
          "midi": 76,
          "name": "E5",
          "ticks": 23060,
          "time": 90.61999999999999,
          "velocity": 0.5039370078740157
        },
        {
          "duration": 0.21600000000000819,
          "durationTicks": 54,
          "midi": 86,
          "name": "D6",
          "ticks": 23113,
          "time": 90.832,
          "velocity": 0.5039370078740157
        },
        {
          "duration": 0.21599999999999397,
          "durationTicks": 54,
          "midi": 83,
          "name": "B5",
          "ticks": 23167,
          "time": 91.048,
          "velocity": 0.5039370078740157
        },
        {
          "duration": 0.21199999999998909,
          "durationTicks": 53,
          "midi": 79,
          "name": "G5",
          "ticks": 23221,
          "time": 91.264,
          "velocity": 0.5039370078740157
        },
        {
          "duration": 0.21600000000000819,
          "durationTicks": 54,
          "midi": 76,
          "name": "E5",
          "ticks": 23274,
          "time": 91.47599999999998,
          "velocity": 0.5039370078740157
        },
        {
          "duration": 0.2120000000000033,
          "durationTicks": 53,
          "midi": 86,
          "name": "D6",
          "ticks": 23328,
          "time": 91.692,
          "velocity": 0.5039370078740157
        },
        {
          "duration": 0.21599999999999397,
          "durationTicks": 54,
          "midi": 83,
          "name": "B5",
          "ticks": 23381,
          "time": 91.904,
          "velocity": 0.5039370078740157
        },
        {
          "duration": 0.2120000000000033,
          "durationTicks": 53,
          "midi": 79,
          "name": "G5",
          "ticks": 23435,
          "time": 92.11999999999999,
          "velocity": 0.5039370078740157
        },
        {
          "duration": 0.21600000000000819,
          "durationTicks": 54,
          "midi": 76,
          "name": "E5",
          "ticks": 23488,
          "time": 92.332,
          "velocity": 0.5039370078740157
        },
        {
          "duration": 0.21599999999999397,
          "durationTicks": 54,
          "midi": 86,
          "name": "D6",
          "ticks": 23542,
          "time": 92.548,
          "velocity": 0.5039370078740157
        },
        {
          "duration": 0.21199999999998909,
          "durationTicks": 53,
          "midi": 83,
          "name": "B5",
          "ticks": 23596,
          "time": 92.764,
          "velocity": 0.5039370078740157
        },
        {
          "duration": 0.21600000000000819,
          "durationTicks": 54,
          "midi": 79,
          "name": "G5",
          "ticks": 23649,
          "time": 92.97599999999998,
          "velocity": 0.5039370078740157
        },
        {
          "duration": 0.2120000000000033,
          "durationTicks": 53,
          "midi": 76,
          "name": "E5",
          "ticks": 23703,
          "time": 93.192,
          "velocity": 0.5039370078740157
        },
        {
          "duration": 0.8599999999999994,
          "durationTicks": 215,
          "midi": 95,
          "name": "B6",
          "ticks": 23756,
          "time": 93.404,
          "velocity": 0.5039370078740157
        },
        {
          "duration": 0.8599999999999994,
          "durationTicks": 215,
          "midi": 91,
          "name": "G6",
          "ticks": 23756,
          "time": 93.404,
          "velocity": 0.5039370078740157
        },
        {
          "duration": 0.8559999999999945,
          "durationTicks": 214,
          "midi": 91,
          "name": "G6",
          "ticks": 23971,
          "time": 94.264,
          "velocity": 0.5039370078740157
        },
        {
          "duration": 0.8559999999999945,
          "durationTicks": 214,
          "midi": 86,
          "name": "D6",
          "ticks": 23971,
          "time": 94.264,
          "velocity": 0.5039370078740157
        },
        {
          "duration": 0.8559999999999945,
          "durationTicks": 214,
          "midi": 86,
          "name": "D6",
          "ticks": 24185,
          "time": 95.11999999999999,
          "velocity": 0.5039370078740157
        },
        {
          "duration": 0.8559999999999945,
          "durationTicks": 214,
          "midi": 83,
          "name": "B5",
          "ticks": 24185,
          "time": 95.11999999999999,
          "velocity": 0.5039370078740157
        },
        {
          "duration": 2.572000000000017,
          "durationTicks": 643,
          "midi": 83,
          "name": "B5",
          "ticks": 24399,
          "time": 95.97599999999998,
          "velocity": 0.5039370078740157
        },
        {
          "duration": 2.572000000000017,
          "durationTicks": 643,
          "midi": 79,
          "name": "G5",
          "ticks": 24399,
          "time": 95.97599999999998,
          "velocity": 0.5039370078740157
        },
        {
          "duration": 0.21600000000000819,
          "durationTicks": 54,
          "midi": 88,
          "name": "E6",
          "ticks": 35756,
          "time": 141.404,
          "velocity": 0.5039370078740157
        },
        {
          "duration": 0.2120000000000175,
          "durationTicks": 53,
          "midi": 84,
          "name": "C6",
          "ticks": 35810,
          "time": 141.62,
          "velocity": 0.5039370078740157
        },
        {
          "duration": 0.21599999999997976,
          "durationTicks": 54,
          "midi": 81,
          "name": "A5",
          "ticks": 35863,
          "time": 141.83200000000002,
          "velocity": 0.5039370078740157
        },
        {
          "duration": 0.21600000000000819,
          "durationTicks": 54,
          "midi": 77,
          "name": "F5",
          "ticks": 35917,
          "time": 142.048,
          "velocity": 0.5039370078740157
        },
        {
          "duration": 0.21199999999998909,
          "durationTicks": 53,
          "midi": 88,
          "name": "E6",
          "ticks": 35971,
          "time": 142.264,
          "velocity": 0.5039370078740157
        },
        {
          "duration": 0.21600000000000819,
          "durationTicks": 54,
          "midi": 84,
          "name": "C6",
          "ticks": 36024,
          "time": 142.476,
          "velocity": 0.5039370078740157
        },
        {
          "duration": 0.21199999999998909,
          "durationTicks": 53,
          "midi": 81,
          "name": "A5",
          "ticks": 36078,
          "time": 142.692,
          "velocity": 0.5039370078740157
        },
        {
          "duration": 0.21600000000000819,
          "durationTicks": 54,
          "midi": 77,
          "name": "F5",
          "ticks": 36131,
          "time": 142.904,
          "velocity": 0.5039370078740157
        },
        {
          "duration": 0.2120000000000175,
          "durationTicks": 53,
          "midi": 88,
          "name": "E6",
          "ticks": 36185,
          "time": 143.12,
          "velocity": 0.5039370078740157
        },
        {
          "duration": 0.21599999999997976,
          "durationTicks": 54,
          "midi": 84,
          "name": "C6",
          "ticks": 36238,
          "time": 143.33200000000002,
          "velocity": 0.5039370078740157
        },
        {
          "duration": 0.21600000000000819,
          "durationTicks": 54,
          "midi": 81,
          "name": "A5",
          "ticks": 36292,
          "time": 143.548,
          "velocity": 0.5039370078740157
        },
        {
          "duration": 0.21199999999998909,
          "durationTicks": 53,
          "midi": 77,
          "name": "F5",
          "ticks": 36346,
          "time": 143.764,
          "velocity": 0.5039370078740157
        },
        {
          "duration": 0.21600000000000819,
          "durationTicks": 54,
          "midi": 88,
          "name": "E6",
          "ticks": 36399,
          "time": 143.976,
          "velocity": 0.5039370078740157
        },
        {
          "duration": 0.21199999999998909,
          "durationTicks": 53,
          "midi": 84,
          "name": "C6",
          "ticks": 36453,
          "time": 144.192,
          "velocity": 0.5039370078740157
        },
        {
          "duration": 0.21600000000000819,
          "durationTicks": 54,
          "midi": 81,
          "name": "A5",
          "ticks": 36506,
          "time": 144.404,
          "velocity": 0.5039370078740157
        },
        {
          "duration": 0.2120000000000175,
          "durationTicks": 53,
          "midi": 77,
          "name": "F5",
          "ticks": 36560,
          "time": 144.62,
          "velocity": 0.5039370078740157
        },
        {
          "duration": 0.21599999999997976,
          "durationTicks": 54,
          "midi": 88,
          "name": "E6",
          "ticks": 36613,
          "time": 144.83200000000002,
          "velocity": 0.5039370078740157
        },
        {
          "duration": 0.21600000000000819,
          "durationTicks": 54,
          "midi": 84,
          "name": "C6",
          "ticks": 36667,
          "time": 145.048,
          "velocity": 0.5039370078740157
        },
        {
          "duration": 0.21199999999998909,
          "durationTicks": 53,
          "midi": 81,
          "name": "A5",
          "ticks": 36721,
          "time": 145.264,
          "velocity": 0.5039370078740157
        },
        {
          "duration": 0.21600000000000819,
          "durationTicks": 54,
          "midi": 77,
          "name": "F5",
          "ticks": 36774,
          "time": 145.476,
          "velocity": 0.5039370078740157
        },
        {
          "duration": 0.21199999999998909,
          "durationTicks": 53,
          "midi": 88,
          "name": "E6",
          "ticks": 36828,
          "time": 145.692,
          "velocity": 0.5039370078740157
        },
        {
          "duration": 0.21600000000000819,
          "durationTicks": 54,
          "midi": 84,
          "name": "C6",
          "ticks": 36881,
          "time": 145.904,
          "velocity": 0.5039370078740157
        },
        {
          "duration": 0.2120000000000175,
          "durationTicks": 53,
          "midi": 81,
          "name": "A5",
          "ticks": 36935,
          "time": 146.12,
          "velocity": 0.5039370078740157
        },
        {
          "duration": 0.21599999999997976,
          "durationTicks": 54,
          "midi": 77,
          "name": "F5",
          "ticks": 36988,
          "time": 146.33200000000002,
          "velocity": 0.5039370078740157
        },
        {
          "duration": 0.21600000000000819,
          "durationTicks": 54,
          "midi": 88,
          "name": "E6",
          "ticks": 37042,
          "time": 146.548,
          "velocity": 0.5039370078740157
        },
        {
          "duration": 0.21199999999998909,
          "durationTicks": 53,
          "midi": 84,
          "name": "C6",
          "ticks": 37096,
          "time": 146.764,
          "velocity": 0.5039370078740157
        },
        {
          "duration": 0.21600000000000819,
          "durationTicks": 54,
          "midi": 81,
          "name": "A5",
          "ticks": 37149,
          "time": 146.976,
          "velocity": 0.5039370078740157
        },
        {
          "duration": 0.21199999999998909,
          "durationTicks": 53,
          "midi": 77,
          "name": "F5",
          "ticks": 37203,
          "time": 147.192,
          "velocity": 0.5039370078740157
        },
        {
          "duration": 0.21600000000000819,
          "durationTicks": 54,
          "midi": 88,
          "name": "E6",
          "ticks": 37256,
          "time": 147.404,
          "velocity": 0.5039370078740157
        },
        {
          "duration": 0.2120000000000175,
          "durationTicks": 53,
          "midi": 84,
          "name": "C6",
          "ticks": 37310,
          "time": 147.62,
          "velocity": 0.5039370078740157
        },
        {
          "duration": 0.21599999999997976,
          "durationTicks": 54,
          "midi": 81,
          "name": "A5",
          "ticks": 37363,
          "time": 147.83200000000002,
          "velocity": 0.5039370078740157
        },
        {
          "duration": 0.21600000000000819,
          "durationTicks": 54,
          "midi": 77,
          "name": "F5",
          "ticks": 37417,
          "time": 148.048,
          "velocity": 0.5039370078740157
        },
        {
          "duration": 0.21199999999998909,
          "durationTicks": 53,
          "midi": 86,
          "name": "D6",
          "ticks": 37471,
          "time": 148.264,
          "velocity": 0.5039370078740157
        },
        {
          "duration": 0.21600000000000819,
          "durationTicks": 54,
          "midi": 83,
          "name": "B5",
          "ticks": 37524,
          "time": 148.476,
          "velocity": 0.5039370078740157
        },
        {
          "duration": 0.21199999999998909,
          "durationTicks": 53,
          "midi": 79,
          "name": "G5",
          "ticks": 37578,
          "time": 148.692,
          "velocity": 0.5039370078740157
        },
        {
          "duration": 0.21600000000000819,
          "durationTicks": 54,
          "midi": 76,
          "name": "E5",
          "ticks": 37631,
          "time": 148.904,
          "velocity": 0.5039370078740157
        },
        {
          "duration": 0.2120000000000175,
          "durationTicks": 53,
          "midi": 86,
          "name": "D6",
          "ticks": 37685,
          "time": 149.12,
          "velocity": 0.5039370078740157
        },
        {
          "duration": 0.21599999999997976,
          "durationTicks": 54,
          "midi": 83,
          "name": "B5",
          "ticks": 37738,
          "time": 149.33200000000002,
          "velocity": 0.5039370078740157
        },
        {
          "duration": 0.21600000000000819,
          "durationTicks": 54,
          "midi": 79,
          "name": "G5",
          "ticks": 37792,
          "time": 149.548,
          "velocity": 0.5039370078740157
        },
        {
          "duration": 0.21199999999998909,
          "durationTicks": 53,
          "midi": 76,
          "name": "E5",
          "ticks": 37846,
          "time": 149.764,
          "velocity": 0.5039370078740157
        },
        {
          "duration": 0.21600000000000819,
          "durationTicks": 54,
          "midi": 86,
          "name": "D6",
          "ticks": 37899,
          "time": 149.976,
          "velocity": 0.5039370078740157
        },
        {
          "duration": 0.21199999999998909,
          "durationTicks": 53,
          "midi": 83,
          "name": "B5",
          "ticks": 37953,
          "time": 150.192,
          "velocity": 0.5039370078740157
        },
        {
          "duration": 0.21600000000000819,
          "durationTicks": 54,
          "midi": 79,
          "name": "G5",
          "ticks": 38006,
          "time": 150.404,
          "velocity": 0.5039370078740157
        },
        {
          "duration": 0.2120000000000175,
          "durationTicks": 53,
          "midi": 76,
          "name": "E5",
          "ticks": 38060,
          "time": 150.62,
          "velocity": 0.5039370078740157
        },
        {
          "duration": 0.21599999999997976,
          "durationTicks": 54,
          "midi": 86,
          "name": "D6",
          "ticks": 38113,
          "time": 150.83200000000002,
          "velocity": 0.5039370078740157
        },
        {
          "duration": 0.21600000000000819,
          "durationTicks": 54,
          "midi": 83,
          "name": "B5",
          "ticks": 38167,
          "time": 151.048,
          "velocity": 0.5039370078740157
        },
        {
          "duration": 0.21199999999998909,
          "durationTicks": 53,
          "midi": 79,
          "name": "G5",
          "ticks": 38221,
          "time": 151.264,
          "velocity": 0.5039370078740157
        },
        {
          "duration": 0.21600000000000819,
          "durationTicks": 54,
          "midi": 76,
          "name": "E5",
          "ticks": 38274,
          "time": 151.476,
          "velocity": 0.5039370078740157
        },
        {
          "duration": 0.21199999999998909,
          "durationTicks": 53,
          "midi": 86,
          "name": "D6",
          "ticks": 38328,
          "time": 151.692,
          "velocity": 0.5039370078740157
        },
        {
          "duration": 0.21600000000000819,
          "durationTicks": 54,
          "midi": 83,
          "name": "B5",
          "ticks": 38381,
          "time": 151.904,
          "velocity": 0.5039370078740157
        },
        {
          "duration": 0.2120000000000175,
          "durationTicks": 53,
          "midi": 79,
          "name": "G5",
          "ticks": 38435,
          "time": 152.12,
          "velocity": 0.5039370078740157
        },
        {
          "duration": 0.21599999999997976,
          "durationTicks": 54,
          "midi": 76,
          "name": "E5",
          "ticks": 38488,
          "time": 152.33200000000002,
          "velocity": 0.5039370078740157
        },
        {
          "duration": 0.21600000000000819,
          "durationTicks": 54,
          "midi": 86,
          "name": "D6",
          "ticks": 38542,
          "time": 152.548,
          "velocity": 0.5039370078740157
        },
        {
          "duration": 0.21199999999998909,
          "durationTicks": 53,
          "midi": 83,
          "name": "B5",
          "ticks": 38596,
          "time": 152.764,
          "velocity": 0.5039370078740157
        },
        {
          "duration": 0.21600000000000819,
          "durationTicks": 54,
          "midi": 79,
          "name": "G5",
          "ticks": 38649,
          "time": 152.976,
          "velocity": 0.5039370078740157
        },
        {
          "duration": 0.21199999999998909,
          "durationTicks": 53,
          "midi": 76,
          "name": "E5",
          "ticks": 38703,
          "time": 153.192,
          "velocity": 0.5039370078740157
        },
        {
          "duration": 0.21600000000000819,
          "durationTicks": 54,
          "midi": 86,
          "name": "D6",
          "ticks": 38756,
          "time": 153.404,
          "velocity": 0.5039370078740157
        },
        {
          "duration": 0.2120000000000175,
          "durationTicks": 53,
          "midi": 83,
          "name": "B5",
          "ticks": 38810,
          "time": 153.62,
          "velocity": 0.5039370078740157
        },
        {
          "duration": 0.21599999999997976,
          "durationTicks": 54,
          "midi": 79,
          "name": "G5",
          "ticks": 38863,
          "time": 153.83200000000002,
          "velocity": 0.5039370078740157
        },
        {
          "duration": 0.21600000000000819,
          "durationTicks": 54,
          "midi": 76,
          "name": "E5",
          "ticks": 38917,
          "time": 154.048,
          "velocity": 0.5039370078740157
        },
        {
          "duration": 0.21199999999998909,
          "durationTicks": 53,
          "midi": 86,
          "name": "D6",
          "ticks": 38971,
          "time": 154.264,
          "velocity": 0.5039370078740157
        },
        {
          "duration": 0.21600000000000819,
          "durationTicks": 54,
          "midi": 83,
          "name": "B5",
          "ticks": 39024,
          "time": 154.476,
          "velocity": 0.5039370078740157
        },
        {
          "duration": 0.21199999999998909,
          "durationTicks": 53,
          "midi": 79,
          "name": "G5",
          "ticks": 39078,
          "time": 154.692,
          "velocity": 0.5039370078740157
        },
        {
          "duration": 0.21600000000000819,
          "durationTicks": 54,
          "midi": 76,
          "name": "E5",
          "ticks": 39131,
          "time": 154.904,
          "velocity": 0.5039370078740157
        },
        {
          "duration": 0.2120000000000175,
          "durationTicks": 53,
          "midi": 88,
          "name": "E6",
          "ticks": 39185,
          "time": 155.12,
          "velocity": 0.5039370078740157
        },
        {
          "duration": 0.21599999999997976,
          "durationTicks": 54,
          "midi": 84,
          "name": "C6",
          "ticks": 39238,
          "time": 155.33200000000002,
          "velocity": 0.5039370078740157
        },
        {
          "duration": 0.21600000000000819,
          "durationTicks": 54,
          "midi": 81,
          "name": "A5",
          "ticks": 39292,
          "time": 155.548,
          "velocity": 0.5039370078740157
        },
        {
          "duration": 0.21199999999998909,
          "durationTicks": 53,
          "midi": 77,
          "name": "F5",
          "ticks": 39346,
          "time": 155.764,
          "velocity": 0.5039370078740157
        },
        {
          "duration": 0.21600000000000819,
          "durationTicks": 54,
          "midi": 88,
          "name": "E6",
          "ticks": 39399,
          "time": 155.976,
          "velocity": 0.5039370078740157
        },
        {
          "duration": 0.21199999999998909,
          "durationTicks": 53,
          "midi": 84,
          "name": "C6",
          "ticks": 39453,
          "time": 156.192,
          "velocity": 0.5039370078740157
        },
        {
          "duration": 0.21600000000000819,
          "durationTicks": 54,
          "midi": 81,
          "name": "A5",
          "ticks": 39506,
          "time": 156.404,
          "velocity": 0.5039370078740157
        },
        {
          "duration": 0.2120000000000175,
          "durationTicks": 53,
          "midi": 77,
          "name": "F5",
          "ticks": 39560,
          "time": 156.62,
          "velocity": 0.5039370078740157
        },
        {
          "duration": 0.21599999999997976,
          "durationTicks": 54,
          "midi": 88,
          "name": "E6",
          "ticks": 39613,
          "time": 156.83200000000002,
          "velocity": 0.5039370078740157
        },
        {
          "duration": 0.21600000000000819,
          "durationTicks": 54,
          "midi": 84,
          "name": "C6",
          "ticks": 39667,
          "time": 157.048,
          "velocity": 0.5039370078740157
        },
        {
          "duration": 0.21199999999998909,
          "durationTicks": 53,
          "midi": 81,
          "name": "A5",
          "ticks": 39721,
          "time": 157.264,
          "velocity": 0.5039370078740157
        },
        {
          "duration": 0.21600000000000819,
          "durationTicks": 54,
          "midi": 77,
          "name": "F5",
          "ticks": 39774,
          "time": 157.476,
          "velocity": 0.5039370078740157
        },
        {
          "duration": 0.21199999999998909,
          "durationTicks": 53,
          "midi": 88,
          "name": "E6",
          "ticks": 39828,
          "time": 157.692,
          "velocity": 0.5039370078740157
        },
        {
          "duration": 0.21600000000000819,
          "durationTicks": 54,
          "midi": 84,
          "name": "C6",
          "ticks": 39881,
          "time": 157.904,
          "velocity": 0.5039370078740157
        },
        {
          "duration": 0.2120000000000175,
          "durationTicks": 53,
          "midi": 81,
          "name": "A5",
          "ticks": 39935,
          "time": 158.12,
          "velocity": 0.5039370078740157
        },
        {
          "duration": 0.21599999999997976,
          "durationTicks": 54,
          "midi": 77,
          "name": "F5",
          "ticks": 39988,
          "time": 158.33200000000002,
          "velocity": 0.5039370078740157
        },
        {
          "duration": 0.21600000000000819,
          "durationTicks": 54,
          "midi": 88,
          "name": "E6",
          "ticks": 40042,
          "time": 158.548,
          "velocity": 0.5039370078740157
        },
        {
          "duration": 0.21199999999998909,
          "durationTicks": 53,
          "midi": 84,
          "name": "C6",
          "ticks": 40096,
          "time": 158.764,
          "velocity": 0.5039370078740157
        },
        {
          "duration": 0.21600000000000819,
          "durationTicks": 54,
          "midi": 81,
          "name": "A5",
          "ticks": 40149,
          "time": 158.976,
          "velocity": 0.5039370078740157
        },
        {
          "duration": 0.21199999999998909,
          "durationTicks": 53,
          "midi": 77,
          "name": "F5",
          "ticks": 40203,
          "time": 159.192,
          "velocity": 0.5039370078740157
        },
        {
          "duration": 0.21600000000000819,
          "durationTicks": 54,
          "midi": 88,
          "name": "E6",
          "ticks": 40256,
          "time": 159.404,
          "velocity": 0.5039370078740157
        },
        {
          "duration": 0.2120000000000175,
          "durationTicks": 53,
          "midi": 84,
          "name": "C6",
          "ticks": 40310,
          "time": 159.62,
          "velocity": 0.5039370078740157
        },
        {
          "duration": 0.21599999999997976,
          "durationTicks": 54,
          "midi": 81,
          "name": "A5",
          "ticks": 40363,
          "time": 159.83200000000002,
          "velocity": 0.5039370078740157
        },
        {
          "duration": 0.21600000000000819,
          "durationTicks": 54,
          "midi": 77,
          "name": "F5",
          "ticks": 40417,
          "time": 160.048,
          "velocity": 0.5039370078740157
        },
        {
          "duration": 0.21199999999998909,
          "durationTicks": 53,
          "midi": 88,
          "name": "E6",
          "ticks": 40471,
          "time": 160.264,
          "velocity": 0.5039370078740157
        },
        {
          "duration": 0.21600000000000819,
          "durationTicks": 54,
          "midi": 84,
          "name": "C6",
          "ticks": 40524,
          "time": 160.476,
          "velocity": 0.5039370078740157
        },
        {
          "duration": 0.21199999999998909,
          "durationTicks": 53,
          "midi": 81,
          "name": "A5",
          "ticks": 40578,
          "time": 160.692,
          "velocity": 0.5039370078740157
        },
        {
          "duration": 0.21600000000000819,
          "durationTicks": 54,
          "midi": 77,
          "name": "F5",
          "ticks": 40631,
          "time": 160.904,
          "velocity": 0.5039370078740157
        },
        {
          "duration": 0.2120000000000175,
          "durationTicks": 53,
          "midi": 88,
          "name": "E6",
          "ticks": 40685,
          "time": 161.12,
          "velocity": 0.5039370078740157
        },
        {
          "duration": 0.21599999999997976,
          "durationTicks": 54,
          "midi": 84,
          "name": "C6",
          "ticks": 40738,
          "time": 161.33200000000002,
          "velocity": 0.5039370078740157
        },
        {
          "duration": 0.21600000000000819,
          "durationTicks": 54,
          "midi": 81,
          "name": "A5",
          "ticks": 40792,
          "time": 161.548,
          "velocity": 0.5039370078740157
        },
        {
          "duration": 0.21199999999998909,
          "durationTicks": 53,
          "midi": 77,
          "name": "F5",
          "ticks": 40846,
          "time": 161.764,
          "velocity": 0.5039370078740157
        },
        {
          "duration": 0.21600000000000819,
          "durationTicks": 54,
          "midi": 86,
          "name": "D6",
          "ticks": 40899,
          "time": 161.976,
          "velocity": 0.5039370078740157
        },
        {
          "duration": 0.21199999999998909,
          "durationTicks": 53,
          "midi": 83,
          "name": "B5",
          "ticks": 40953,
          "time": 162.192,
          "velocity": 0.5039370078740157
        },
        {
          "duration": 0.21600000000000819,
          "durationTicks": 54,
          "midi": 79,
          "name": "G5",
          "ticks": 41006,
          "time": 162.404,
          "velocity": 0.5039370078740157
        },
        {
          "duration": 0.2120000000000175,
          "durationTicks": 53,
          "midi": 76,
          "name": "E5",
          "ticks": 41060,
          "time": 162.62,
          "velocity": 0.5039370078740157
        },
        {
          "duration": 0.21599999999997976,
          "durationTicks": 54,
          "midi": 86,
          "name": "D6",
          "ticks": 41113,
          "time": 162.83200000000002,
          "velocity": 0.5039370078740157
        },
        {
          "duration": 0.21600000000000819,
          "durationTicks": 54,
          "midi": 83,
          "name": "B5",
          "ticks": 41167,
          "time": 163.048,
          "velocity": 0.5039370078740157
        },
        {
          "duration": 0.21199999999998909,
          "durationTicks": 53,
          "midi": 79,
          "name": "G5",
          "ticks": 41221,
          "time": 163.264,
          "velocity": 0.5039370078740157
        },
        {
          "duration": 0.21600000000000819,
          "durationTicks": 54,
          "midi": 76,
          "name": "E5",
          "ticks": 41274,
          "time": 163.476,
          "velocity": 0.5039370078740157
        },
        {
          "duration": 0.21199999999998909,
          "durationTicks": 53,
          "midi": 86,
          "name": "D6",
          "ticks": 41328,
          "time": 163.692,
          "velocity": 0.5039370078740157
        },
        {
          "duration": 0.21600000000000819,
          "durationTicks": 54,
          "midi": 83,
          "name": "B5",
          "ticks": 41381,
          "time": 163.904,
          "velocity": 0.5039370078740157
        },
        {
          "duration": 0.2120000000000175,
          "durationTicks": 53,
          "midi": 79,
          "name": "G5",
          "ticks": 41435,
          "time": 164.12,
          "velocity": 0.5039370078740157
        },
        {
          "duration": 0.21599999999997976,
          "durationTicks": 54,
          "midi": 76,
          "name": "E5",
          "ticks": 41488,
          "time": 164.33200000000002,
          "velocity": 0.5039370078740157
        },
        {
          "duration": 0.21600000000000819,
          "durationTicks": 54,
          "midi": 86,
          "name": "D6",
          "ticks": 41542,
          "time": 164.548,
          "velocity": 0.5039370078740157
        },
        {
          "duration": 0.21199999999998909,
          "durationTicks": 53,
          "midi": 83,
          "name": "B5",
          "ticks": 41596,
          "time": 164.764,
          "velocity": 0.5039370078740157
        },
        {
          "duration": 0.21600000000000819,
          "durationTicks": 54,
          "midi": 79,
          "name": "G5",
          "ticks": 41649,
          "time": 164.976,
          "velocity": 0.5039370078740157
        },
        {
          "duration": 0.21199999999998909,
          "durationTicks": 53,
          "midi": 76,
          "name": "E5",
          "ticks": 41703,
          "time": 165.192,
          "velocity": 0.5039370078740157
        },
        {
          "duration": 0.8600000000000136,
          "durationTicks": 215,
          "midi": 95,
          "name": "B6",
          "ticks": 41756,
          "time": 165.404,
          "velocity": 0.5039370078740157
        },
        {
          "duration": 0.8600000000000136,
          "durationTicks": 215,
          "midi": 91,
          "name": "G6",
          "ticks": 41756,
          "time": 165.404,
          "velocity": 0.5039370078740157
        },
        {
          "duration": 0.8559999999999945,
          "durationTicks": 214,
          "midi": 91,
          "name": "G6",
          "ticks": 41971,
          "time": 166.264,
          "velocity": 0.5039370078740157
        },
        {
          "duration": 0.8559999999999945,
          "durationTicks": 214,
          "midi": 86,
          "name": "D6",
          "ticks": 41971,
          "time": 166.264,
          "velocity": 0.5039370078740157
        },
        {
          "duration": 0.8559999999999945,
          "durationTicks": 214,
          "midi": 86,
          "name": "D6",
          "ticks": 42185,
          "time": 167.12,
          "velocity": 0.5039370078740157
        },
        {
          "duration": 0.8559999999999945,
          "durationTicks": 214,
          "midi": 83,
          "name": "B5",
          "ticks": 42185,
          "time": 167.12,
          "velocity": 0.5039370078740157
        },
        {
          "duration": 2.5720000000000027,
          "durationTicks": 643,
          "midi": 83,
          "name": "B5",
          "ticks": 42399,
          "time": 167.976,
          "velocity": 0.5039370078740157
        },
        {
          "duration": 2.5720000000000027,
          "durationTicks": 643,
          "midi": 79,
          "name": "G5",
          "ticks": 42399,
          "time": 167.976,
          "velocity": 0.5039370078740157
        }
      ]
    },
    {
      "channel": 5,
      "controlChanges": {
        "120": [
          {
            "number": 120,
            "ticks": 43457,
            "time": 172.208,
            "value": 0
          }
        ]
      },
      "pitchBends": [],
      "instrument": {
        "family": "ensemble",
        "number": 48,
        "name": "string ensemble 1"
      },
      "name": "",
      "notes": [
        {
          "duration": 0.2120000000000033,
          "durationTicks": 53,
          "midi": 88,
          "name": "E6",
          "ticks": 17743,
          "time": 69.35199999999999,
          "velocity": 0.7559055118110236
        },
        {
          "duration": 0.21600000000000819,
          "durationTicks": 54,
          "midi": 86,
          "name": "D6",
          "ticks": 17796,
          "time": 69.564,
          "velocity": 0.7559055118110236
        },
        {
          "duration": 1.2839999999999918,
          "durationTicks": 321,
          "midi": 88,
          "name": "E6",
          "ticks": 17850,
          "time": 69.78,
          "velocity": 0.7559055118110236
        },
        {
          "duration": 0.43200000000000216,
          "durationTicks": 108,
          "midi": 81,
          "name": "A5",
          "ticks": 18171,
          "time": 71.064,
          "velocity": 0.7559055118110236
        },
        {
          "duration": 0.42799999999999727,
          "durationTicks": 107,
          "midi": 83,
          "name": "B5",
          "ticks": 18279,
          "time": 71.496,
          "velocity": 0.7559055118110236
        },
        {
          "duration": 0.42799999999999727,
          "durationTicks": 107,
          "midi": 84,
          "name": "C6",
          "ticks": 18386,
          "time": 71.92399999999999,
          "velocity": 0.7559055118110236
        },
        {
          "duration": 0.4280000000000115,
          "durationTicks": 107,
          "midi": 86,
          "name": "D6",
          "ticks": 18493,
          "time": 72.35199999999999,
          "velocity": 0.7559055118110236
        },
        {
          "duration": 0.21599999999999397,
          "durationTicks": 54,
          "midi": 88,
          "name": "E6",
          "ticks": 18600,
          "time": 72.78,
          "velocity": 0.7559055118110236
        },
        {
          "duration": 0.2120000000000033,
          "durationTicks": 53,
          "midi": 86,
          "name": "D6",
          "ticks": 18654,
          "time": 72.996,
          "velocity": 0.7559055118110236
        },
        {
          "duration": 1.2879999999999967,
          "durationTicks": 322,
          "midi": 88,
          "name": "E6",
          "ticks": 18707,
          "time": 73.208,
          "velocity": 0.7559055118110236
        },
        {
          "duration": 0.42799999999999727,
          "durationTicks": 107,
          "midi": 81,
          "name": "A5",
          "ticks": 19029,
          "time": 74.496,
          "velocity": 0.7559055118110236
        },
        {
          "duration": 0.42799999999999727,
          "durationTicks": 107,
          "midi": 83,
          "name": "B5",
          "ticks": 19136,
          "time": 74.92399999999999,
          "velocity": 0.7559055118110236
        },
        {
          "duration": 0.4280000000000115,
          "durationTicks": 107,
          "midi": 84,
          "name": "C6",
          "ticks": 19243,
          "time": 75.35199999999999,
          "velocity": 0.7559055118110236
        },
        {
          "duration": 0.42799999999999727,
          "durationTicks": 107,
          "midi": 88,
          "name": "E6",
          "ticks": 19350,
          "time": 75.78,
          "velocity": 0.7559055118110236
        },
        {
          "duration": 0.21599999999999397,
          "durationTicks": 54,
          "midi": 86,
          "name": "D6",
          "ticks": 19457,
          "time": 76.208,
          "velocity": 0.7559055118110236
        },
        {
          "duration": 0.2120000000000033,
          "durationTicks": 53,
          "midi": 84,
          "name": "C6",
          "ticks": 19511,
          "time": 76.42399999999999,
          "velocity": 0.7559055118110236
        },
        {
          "duration": 1.2879999999999967,
          "durationTicks": 322,
          "midi": 86,
          "name": "D6",
          "ticks": 19564,
          "time": 76.636,
          "velocity": 0.7559055118110236
        },
        {
          "duration": 0.42799999999999727,
          "durationTicks": 107,
          "midi": 79,
          "name": "G5",
          "ticks": 19886,
          "time": 77.92399999999999,
          "velocity": 0.7559055118110236
        },
        {
          "duration": 0.4280000000000115,
          "durationTicks": 107,
          "midi": 81,
          "name": "A5",
          "ticks": 19993,
          "time": 78.35199999999999,
          "velocity": 0.7559055118110236
        },
        {
          "duration": 0.42799999999999727,
          "durationTicks": 107,
          "midi": 83,
          "name": "B5",
          "ticks": 20100,
          "time": 78.78,
          "velocity": 0.7559055118110236
        },
        {
          "duration": 0.42799999999999727,
          "durationTicks": 107,
          "midi": 84,
          "name": "C6",
          "ticks": 20207,
          "time": 79.208,
          "velocity": 0.7559055118110236
        },
        {
          "duration": 0.21599999999999397,
          "durationTicks": 54,
          "midi": 86,
          "name": "D6",
          "ticks": 20314,
          "time": 79.636,
          "velocity": 0.7559055118110236
        },
        {
          "duration": 0.2120000000000033,
          "durationTicks": 53,
          "midi": 84,
          "name": "C6",
          "ticks": 20368,
          "time": 79.85199999999999,
          "velocity": 0.7559055118110236
        },
        {
          "duration": 1.2879999999999967,
          "durationTicks": 322,
          "midi": 86,
          "name": "D6",
          "ticks": 20421,
          "time": 80.064,
          "velocity": 0.7559055118110236
        },
        {
          "duration": 0.4280000000000115,
          "durationTicks": 107,
          "midi": 79,
          "name": "G5",
          "ticks": 20743,
          "time": 81.35199999999999,
          "velocity": 0.7559055118110236
        },
        {
          "duration": 0.42799999999999727,
          "durationTicks": 107,
          "midi": 81,
          "name": "A5",
          "ticks": 20850,
          "time": 81.78,
          "velocity": 0.7559055118110236
        },
        {
          "duration": 0.42799999999999727,
          "durationTicks": 107,
          "midi": 83,
          "name": "B5",
          "ticks": 20957,
          "time": 82.208,
          "velocity": 0.7559055118110236
        },
        {
          "duration": 0.42799999999999727,
          "durationTicks": 107,
          "midi": 86,
          "name": "D6",
          "ticks": 21064,
          "time": 82.636,
          "velocity": 0.7559055118110236
        },
        {
          "duration": 0.21600000000000819,
          "durationTicks": 54,
          "midi": 88,
          "name": "E6",
          "ticks": 21171,
          "time": 83.064,
          "velocity": 0.7559055118110236
        },
        {
          "duration": 0.21599999999999397,
          "durationTicks": 54,
          "midi": 86,
          "name": "D6",
          "ticks": 21225,
          "time": 83.28,
          "velocity": 0.7559055118110236
        },
        {
          "duration": 1.2839999999999918,
          "durationTicks": 321,
          "midi": 88,
          "name": "E6",
          "ticks": 21279,
          "time": 83.496,
          "velocity": 0.7559055118110236
        },
        {
          "duration": 0.4280000000000115,
          "durationTicks": 107,
          "midi": 81,
          "name": "A5",
          "ticks": 21600,
          "time": 84.77999999999999,
          "velocity": 0.7559055118110236
        },
        {
          "duration": 0.42799999999999727,
          "durationTicks": 107,
          "midi": 83,
          "name": "B5",
          "ticks": 21707,
          "time": 85.208,
          "velocity": 0.7559055118110236
        },
        {
          "duration": 0.42799999999999727,
          "durationTicks": 107,
          "midi": 84,
          "name": "C6",
          "ticks": 21814,
          "time": 85.636,
          "velocity": 0.7559055118110236
        },
        {
          "duration": 0.43200000000000216,
          "durationTicks": 108,
          "midi": 86,
          "name": "D6",
          "ticks": 21921,
          "time": 86.064,
          "velocity": 0.7559055118110236
        },
        {
          "duration": 0.2120000000000033,
          "durationTicks": 53,
          "midi": 88,
          "name": "E6",
          "ticks": 22029,
          "time": 86.496,
          "velocity": 0.7559055118110236
        },
        {
          "duration": 0.21599999999999397,
          "durationTicks": 54,
          "midi": 86,
          "name": "D6",
          "ticks": 22082,
          "time": 86.708,
          "velocity": 0.7559055118110236
        },
        {
          "duration": 1.284000000000006,
          "durationTicks": 321,
          "midi": 88,
          "name": "E6",
          "ticks": 22136,
          "time": 86.92399999999999,
          "velocity": 0.7559055118110236
        },
        {
          "duration": 0.42799999999999727,
          "durationTicks": 107,
          "midi": 81,
          "name": "A5",
          "ticks": 22457,
          "time": 88.208,
          "velocity": 0.7559055118110236
        },
        {
          "duration": 0.42799999999999727,
          "durationTicks": 107,
          "midi": 83,
          "name": "B5",
          "ticks": 22564,
          "time": 88.636,
          "velocity": 0.7559055118110236
        },
        {
          "duration": 0.43200000000000216,
          "durationTicks": 108,
          "midi": 84,
          "name": "C6",
          "ticks": 22671,
          "time": 89.064,
          "velocity": 0.7559055118110236
        },
        {
          "duration": 0.42799999999999727,
          "durationTicks": 107,
          "midi": 88,
          "name": "E6",
          "ticks": 22779,
          "time": 89.496,
          "velocity": 0.7559055118110236
        },
        {
          "duration": 0.2120000000000033,
          "durationTicks": 53,
          "midi": 86,
          "name": "D6",
          "ticks": 22886,
          "time": 89.92399999999999,
          "velocity": 0.7559055118110236
        },
        {
          "duration": 0.21599999999999397,
          "durationTicks": 54,
          "midi": 84,
          "name": "C6",
          "ticks": 22939,
          "time": 90.136,
          "velocity": 0.7559055118110236
        },
        {
          "duration": 1.284000000000006,
          "durationTicks": 321,
          "midi": 86,
          "name": "D6",
          "ticks": 22993,
          "time": 90.35199999999999,
          "velocity": 0.7559055118110236
        },
        {
          "duration": 0.42799999999999727,
          "durationTicks": 107,
          "midi": 91,
          "name": "G6",
          "ticks": 23314,
          "time": 91.636,
          "velocity": 0.7559055118110236
        },
        {
          "duration": 0.43200000000000216,
          "durationTicks": 108,
          "midi": 93,
          "name": "A6",
          "ticks": 23421,
          "time": 92.064,
          "velocity": 0.7559055118110236
        },
        {
          "duration": 0.42799999999999727,
          "durationTicks": 107,
          "midi": 95,
          "name": "B6",
          "ticks": 23529,
          "time": 92.496,
          "velocity": 0.7559055118110236
        },
        {
          "duration": 0.42799999999999727,
          "durationTicks": 107,
          "midi": 96,
          "name": "C7",
          "ticks": 23636,
          "time": 92.92399999999999,
          "velocity": 0.7559055118110236
        },
        {
          "duration": 0.8560000000000088,
          "durationTicks": 214,
          "midi": 98,
          "name": "D7",
          "ticks": 23743,
          "time": 93.35199999999999,
          "velocity": 0.7559055118110236
        },
        {
          "duration": 0.8559999999999945,
          "durationTicks": 214,
          "midi": 95,
          "name": "B6",
          "ticks": 23957,
          "time": 94.208,
          "velocity": 0.7559055118110236
        },
        {
          "duration": 0.8599999999999994,
          "durationTicks": 215,
          "midi": 91,
          "name": "G6",
          "ticks": 24171,
          "time": 95.064,
          "velocity": 0.7559055118110236
        },
        {
          "duration": 2.5720000000000027,
          "durationTicks": 643,
          "midi": 86,
          "name": "D6",
          "ticks": 24386,
          "time": 95.92399999999999,
          "velocity": 0.7559055118110236
        },
        {
          "duration": 0.2120000000000175,
          "durationTicks": 53,
          "midi": 88,
          "name": "E6",
          "ticks": 35743,
          "time": 141.352,
          "velocity": 0.7559055118110236
        },
        {
          "duration": 0.21599999999997976,
          "durationTicks": 54,
          "midi": 86,
          "name": "D6",
          "ticks": 35796,
          "time": 141.56400000000002,
          "velocity": 0.7559055118110236
        },
        {
          "duration": 1.2840000000000202,
          "durationTicks": 321,
          "midi": 88,
          "name": "E6",
          "ticks": 35850,
          "time": 141.78,
          "velocity": 0.7559055118110236
        },
        {
          "duration": 0.43199999999998795,
          "durationTicks": 108,
          "midi": 81,
          "name": "A5",
          "ticks": 36171,
          "time": 143.06400000000002,
          "velocity": 0.7559055118110236
        },
        {
          "duration": 0.42799999999999727,
          "durationTicks": 107,
          "midi": 83,
          "name": "B5",
          "ticks": 36279,
          "time": 143.496,
          "velocity": 0.7559055118110236
        },
        {
          "duration": 0.42799999999999727,
          "durationTicks": 107,
          "midi": 84,
          "name": "C6",
          "ticks": 36386,
          "time": 143.924,
          "velocity": 0.7559055118110236
        },
        {
          "duration": 0.42799999999999727,
          "durationTicks": 107,
          "midi": 86,
          "name": "D6",
          "ticks": 36493,
          "time": 144.352,
          "velocity": 0.7559055118110236
        },
        {
          "duration": 0.21600000000000819,
          "durationTicks": 54,
          "midi": 88,
          "name": "E6",
          "ticks": 36600,
          "time": 144.78,
          "velocity": 0.7559055118110236
        },
        {
          "duration": 0.21199999999998909,
          "durationTicks": 53,
          "midi": 86,
          "name": "D6",
          "ticks": 36654,
          "time": 144.996,
          "velocity": 0.7559055118110236
        },
        {
          "duration": 1.288000000000011,
          "durationTicks": 322,
          "midi": 88,
          "name": "E6",
          "ticks": 36707,
          "time": 145.208,
          "velocity": 0.7559055118110236
        },
        {
          "duration": 0.42799999999999727,
          "durationTicks": 107,
          "midi": 81,
          "name": "A5",
          "ticks": 37029,
          "time": 146.496,
          "velocity": 0.7559055118110236
        },
        {
          "duration": 0.42799999999999727,
          "durationTicks": 107,
          "midi": 83,
          "name": "B5",
          "ticks": 37136,
          "time": 146.924,
          "velocity": 0.7559055118110236
        },
        {
          "duration": 0.42799999999999727,
          "durationTicks": 107,
          "midi": 84,
          "name": "C6",
          "ticks": 37243,
          "time": 147.352,
          "velocity": 0.7559055118110236
        },
        {
          "duration": 0.42799999999999727,
          "durationTicks": 107,
          "midi": 88,
          "name": "E6",
          "ticks": 37350,
          "time": 147.78,
          "velocity": 0.7559055118110236
        },
        {
          "duration": 0.21600000000000819,
          "durationTicks": 54,
          "midi": 86,
          "name": "D6",
          "ticks": 37457,
          "time": 148.208,
          "velocity": 0.7559055118110236
        },
        {
          "duration": 0.2120000000000175,
          "durationTicks": 53,
          "midi": 84,
          "name": "C6",
          "ticks": 37511,
          "time": 148.424,
          "velocity": 0.7559055118110236
        },
        {
          "duration": 1.2879999999999825,
          "durationTicks": 322,
          "midi": 86,
          "name": "D6",
          "ticks": 37564,
          "time": 148.63600000000002,
          "velocity": 0.7559055118110236
        },
        {
          "duration": 0.42799999999999727,
          "durationTicks": 107,
          "midi": 79,
          "name": "G5",
          "ticks": 37886,
          "time": 149.924,
          "velocity": 0.7559055118110236
        },
        {
          "duration": 0.42799999999999727,
          "durationTicks": 107,
          "midi": 81,
          "name": "A5",
          "ticks": 37993,
          "time": 150.352,
          "velocity": 0.7559055118110236
        },
        {
          "duration": 0.42799999999999727,
          "durationTicks": 107,
          "midi": 83,
          "name": "B5",
          "ticks": 38100,
          "time": 150.78,
          "velocity": 0.7559055118110236
        },
        {
          "duration": 0.4280000000000257,
          "durationTicks": 107,
          "midi": 84,
          "name": "C6",
          "ticks": 38207,
          "time": 151.208,
          "velocity": 0.7559055118110236
        },
        {
          "duration": 0.21599999999997976,
          "durationTicks": 54,
          "midi": 86,
          "name": "D6",
          "ticks": 38314,
          "time": 151.63600000000002,
          "velocity": 0.7559055118110236
        },
        {
          "duration": 0.2120000000000175,
          "durationTicks": 53,
          "midi": 84,
          "name": "C6",
          "ticks": 38368,
          "time": 151.852,
          "velocity": 0.7559055118110236
        },
        {
          "duration": 1.2879999999999825,
          "durationTicks": 322,
          "midi": 86,
          "name": "D6",
          "ticks": 38421,
          "time": 152.06400000000002,
          "velocity": 0.7559055118110236
        },
        {
          "duration": 0.42799999999999727,
          "durationTicks": 107,
          "midi": 79,
          "name": "G5",
          "ticks": 38743,
          "time": 153.352,
          "velocity": 0.7559055118110236
        },
        {
          "duration": 0.42799999999999727,
          "durationTicks": 107,
          "midi": 81,
          "name": "A5",
          "ticks": 38850,
          "time": 153.78,
          "velocity": 0.7559055118110236
        },
        {
          "duration": 0.4280000000000257,
          "durationTicks": 107,
          "midi": 83,
          "name": "B5",
          "ticks": 38957,
          "time": 154.208,
          "velocity": 0.7559055118110236
        },
        {
          "duration": 0.42799999999999727,
          "durationTicks": 107,
          "midi": 86,
          "name": "D6",
          "ticks": 39064,
          "time": 154.63600000000002,
          "velocity": 0.7559055118110236
        },
        {
          "duration": 0.21599999999997976,
          "durationTicks": 54,
          "midi": 88,
          "name": "E6",
          "ticks": 39171,
          "time": 155.06400000000002,
          "velocity": 0.7559055118110236
        },
        {
          "duration": 0.21600000000000819,
          "durationTicks": 54,
          "midi": 86,
          "name": "D6",
          "ticks": 39225,
          "time": 155.28,
          "velocity": 0.7559055118110236
        },
        {
          "duration": 1.2839999999999918,
          "durationTicks": 321,
          "midi": 88,
          "name": "E6",
          "ticks": 39279,
          "time": 155.496,
          "velocity": 0.7559055118110236
        },
        {
          "duration": 0.42799999999999727,
          "durationTicks": 107,
          "midi": 81,
          "name": "A5",
          "ticks": 39600,
          "time": 156.78,
          "velocity": 0.7559055118110236
        },
        {
          "duration": 0.4280000000000257,
          "durationTicks": 107,
          "midi": 83,
          "name": "B5",
          "ticks": 39707,
          "time": 157.208,
          "velocity": 0.7559055118110236
        },
        {
          "duration": 0.42799999999999727,
          "durationTicks": 107,
          "midi": 84,
          "name": "C6",
          "ticks": 39814,
          "time": 157.63600000000002,
          "velocity": 0.7559055118110236
        },
        {
          "duration": 0.43199999999998795,
          "durationTicks": 108,
          "midi": 86,
          "name": "D6",
          "ticks": 39921,
          "time": 158.06400000000002,
          "velocity": 0.7559055118110236
        },
        {
          "duration": 0.21199999999998909,
          "durationTicks": 53,
          "midi": 88,
          "name": "E6",
          "ticks": 40029,
          "time": 158.496,
          "velocity": 0.7559055118110236
        },
        {
          "duration": 0.21600000000000819,
          "durationTicks": 54,
          "midi": 86,
          "name": "D6",
          "ticks": 40082,
          "time": 158.708,
          "velocity": 0.7559055118110236
        },
        {
          "duration": 1.2839999999999918,
          "durationTicks": 321,
          "midi": 88,
          "name": "E6",
          "ticks": 40136,
          "time": 158.924,
          "velocity": 0.7559055118110236
        },
        {
          "duration": 0.4280000000000257,
          "durationTicks": 107,
          "midi": 81,
          "name": "A5",
          "ticks": 40457,
          "time": 160.208,
          "velocity": 0.7559055118110236
        },
        {
          "duration": 0.42799999999999727,
          "durationTicks": 107,
          "midi": 83,
          "name": "B5",
          "ticks": 40564,
          "time": 160.63600000000002,
          "velocity": 0.7559055118110236
        },
        {
          "duration": 0.43199999999998795,
          "durationTicks": 108,
          "midi": 84,
          "name": "C6",
          "ticks": 40671,
          "time": 161.06400000000002,
          "velocity": 0.7559055118110236
        },
        {
          "duration": 0.42799999999999727,
          "durationTicks": 107,
          "midi": 88,
          "name": "E6",
          "ticks": 40779,
          "time": 161.496,
          "velocity": 0.7559055118110236
        },
        {
          "duration": 0.2120000000000175,
          "durationTicks": 53,
          "midi": 86,
          "name": "D6",
          "ticks": 40886,
          "time": 161.924,
          "velocity": 0.7559055118110236
        },
        {
          "duration": 0.21599999999997976,
          "durationTicks": 54,
          "midi": 84,
          "name": "C6",
          "ticks": 40939,
          "time": 162.13600000000002,
          "velocity": 0.7559055118110236
        },
        {
          "duration": 1.2840000000000202,
          "durationTicks": 321,
          "midi": 86,
          "name": "D6",
          "ticks": 40993,
          "time": 162.352,
          "velocity": 0.7559055118110236
        },
        {
          "duration": 0.42799999999999727,
          "durationTicks": 107,
          "midi": 91,
          "name": "G6",
          "ticks": 41314,
          "time": 163.63600000000002,
          "velocity": 0.7559055118110236
        },
        {
          "duration": 0.43199999999998795,
          "durationTicks": 108,
          "midi": 93,
          "name": "A6",
          "ticks": 41421,
          "time": 164.06400000000002,
          "velocity": 0.7559055118110236
        },
        {
          "duration": 0.42799999999999727,
          "durationTicks": 107,
          "midi": 95,
          "name": "B6",
          "ticks": 41529,
          "time": 164.496,
          "velocity": 0.7559055118110236
        },
        {
          "duration": 0.42799999999999727,
          "durationTicks": 107,
          "midi": 96,
          "name": "C7",
          "ticks": 41636,
          "time": 164.924,
          "velocity": 0.7559055118110236
        },
        {
          "duration": 0.8559999999999945,
          "durationTicks": 214,
          "midi": 98,
          "name": "D7",
          "ticks": 41743,
          "time": 165.352,
          "velocity": 0.7559055118110236
        },
        {
          "duration": 0.856000000000023,
          "durationTicks": 214,
          "midi": 95,
          "name": "B6",
          "ticks": 41957,
          "time": 166.208,
          "velocity": 0.7559055118110236
        },
        {
          "duration": 0.8599999999999852,
          "durationTicks": 215,
          "midi": 91,
          "name": "G6",
          "ticks": 42171,
          "time": 167.06400000000002,
          "velocity": 0.7559055118110236
        },
        {
          "duration": 2.5720000000000027,
          "durationTicks": 643,
          "midi": 86,
          "name": "D6",
          "ticks": 42386,
          "time": 167.924,
          "velocity": 0.7559055118110236
        }
      ]
    },
    {
      "channel": 6,
      "controlChanges": {
        "10": [
          {
            "number": 10,
            "ticks": 17930,
            "time": 70.1,
            "value": 0.06299212598425197
          },
          {
            "number": 10,
            "ticks": 17957,
            "time": 70.208,
            "value": 0.5039370078740157
          },
          {
            "number": 10,
            "ticks": 17984,
            "time": 70.316,
            "value": 0.9448818897637795
          },
          {
            "number": 10,
            "ticks": 18011,
            "time": 70.42399999999999,
            "value": 0.5039370078740157
          },
          {
            "number": 10,
            "ticks": 18038,
            "time": 70.532,
            "value": 0.06299212598425197
          },
          {
            "number": 10,
            "ticks": 18064,
            "time": 70.636,
            "value": 0.5039370078740157
          },
          {
            "number": 10,
            "ticks": 18091,
            "time": 70.74399999999999,
            "value": 0.9448818897637795
          },
          {
            "number": 10,
            "ticks": 18118,
            "time": 70.85199999999999,
            "value": 0.5039370078740157
          },
          {
            "number": 10,
            "ticks": 18145,
            "time": 70.96,
            "value": 0.06299212598425197
          },
          {
            "number": 10,
            "ticks": 18171,
            "time": 71.064,
            "value": 0.5039370078740157
          },
          {
            "number": 10,
            "ticks": 18198,
            "time": 71.172,
            "value": 0.9448818897637795
          },
          {
            "number": 10,
            "ticks": 18225,
            "time": 71.28,
            "value": 0.5039370078740157
          },
          {
            "number": 10,
            "ticks": 18252,
            "time": 71.38799999999999,
            "value": 0.06299212598425197
          },
          {
            "number": 10,
            "ticks": 18279,
            "time": 71.496,
            "value": 0.5039370078740157
          },
          {
            "number": 10,
            "ticks": 18305,
            "time": 71.6,
            "value": 0.9448818897637795
          },
          {
            "number": 10,
            "ticks": 18332,
            "time": 71.708,
            "value": 0.5039370078740157
          },
          {
            "number": 10,
            "ticks": 18359,
            "time": 71.816,
            "value": 0.06299212598425197
          },
          {
            "number": 10,
            "ticks": 18386,
            "time": 71.92399999999999,
            "value": 0.5039370078740157
          },
          {
            "number": 10,
            "ticks": 18413,
            "time": 72.032,
            "value": 0.9448818897637795
          },
          {
            "number": 10,
            "ticks": 18439,
            "time": 72.136,
            "value": 0.5039370078740157
          },
          {
            "number": 10,
            "ticks": 18466,
            "time": 72.24399999999999,
            "value": 0.06299212598425197
          },
          {
            "number": 10,
            "ticks": 18493,
            "time": 72.35199999999999,
            "value": 0.5039370078740157
          },
          {
            "number": 10,
            "ticks": 18520,
            "time": 72.46,
            "value": 0.9448818897637795
          },
          {
            "number": 10,
            "ticks": 18546,
            "time": 72.564,
            "value": 0.5039370078740157
          },
          {
            "number": 10,
            "ticks": 18573,
            "time": 72.672,
            "value": 0.06299212598425197
          },
          {
            "number": 10,
            "ticks": 18600,
            "time": 72.78,
            "value": 0.5039370078740157
          },
          {
            "number": 10,
            "ticks": 18627,
            "time": 72.88799999999999,
            "value": 0.9448818897637795
          },
          {
            "number": 10,
            "ticks": 18654,
            "time": 72.996,
            "value": 0.5039370078740157
          },
          {
            "number": 10,
            "ticks": 18680,
            "time": 73.1,
            "value": 0.06299212598425197
          },
          {
            "number": 10,
            "ticks": 18707,
            "time": 73.208,
            "value": 0.5039370078740157
          },
          {
            "number": 10,
            "ticks": 18734,
            "time": 73.316,
            "value": 0.9448818897637795
          },
          {
            "number": 10,
            "ticks": 18761,
            "time": 73.42399999999999,
            "value": 0.5039370078740157
          },
          {
            "number": 10,
            "ticks": 18788,
            "time": 73.532,
            "value": 0.06299212598425197
          },
          {
            "number": 10,
            "ticks": 18814,
            "time": 73.636,
            "value": 0.5039370078740157
          },
          {
            "number": 10,
            "ticks": 18841,
            "time": 73.74399999999999,
            "value": 0.9448818897637795
          },
          {
            "number": 10,
            "ticks": 18868,
            "time": 73.85199999999999,
            "value": 0.5039370078740157
          },
          {
            "number": 10,
            "ticks": 18895,
            "time": 73.96,
            "value": 0.06299212598425197
          },
          {
            "number": 10,
            "ticks": 18921,
            "time": 74.064,
            "value": 0.5039370078740157
          },
          {
            "number": 10,
            "ticks": 18948,
            "time": 74.172,
            "value": 0.9448818897637795
          },
          {
            "number": 10,
            "ticks": 18975,
            "time": 74.28,
            "value": 0.5039370078740157
          },
          {
            "number": 10,
            "ticks": 19002,
            "time": 74.38799999999999,
            "value": 0.06299212598425197
          },
          {
            "number": 10,
            "ticks": 19029,
            "time": 74.496,
            "value": 0.5039370078740157
          },
          {
            "number": 10,
            "ticks": 19055,
            "time": 74.6,
            "value": 0.9448818897637795
          },
          {
            "number": 10,
            "ticks": 19082,
            "time": 74.708,
            "value": 0.5039370078740157
          },
          {
            "number": 10,
            "ticks": 19109,
            "time": 74.816,
            "value": 0.06299212598425197
          },
          {
            "number": 10,
            "ticks": 19136,
            "time": 74.92399999999999,
            "value": 0.5039370078740157
          },
          {
            "number": 10,
            "ticks": 19163,
            "time": 75.032,
            "value": 0.9448818897637795
          },
          {
            "number": 10,
            "ticks": 19189,
            "time": 75.136,
            "value": 0.5039370078740157
          },
          {
            "number": 10,
            "ticks": 19216,
            "time": 75.24399999999999,
            "value": 0.06299212598425197
          },
          {
            "number": 10,
            "ticks": 19243,
            "time": 75.35199999999999,
            "value": 0.5039370078740157
          },
          {
            "number": 10,
            "ticks": 19270,
            "time": 75.46,
            "value": 0.9448818897637795
          },
          {
            "number": 10,
            "ticks": 19296,
            "time": 75.564,
            "value": 0.5039370078740157
          },
          {
            "number": 10,
            "ticks": 19323,
            "time": 75.672,
            "value": 0.06299212598425197
          },
          {
            "number": 10,
            "ticks": 19350,
            "time": 75.78,
            "value": 0.5039370078740157
          },
          {
            "number": 10,
            "ticks": 19377,
            "time": 75.88799999999999,
            "value": 0.9448818897637795
          },
          {
            "number": 10,
            "ticks": 19404,
            "time": 75.996,
            "value": 0.5039370078740157
          },
          {
            "number": 10,
            "ticks": 19430,
            "time": 76.1,
            "value": 0.06299212598425197
          },
          {
            "number": 10,
            "ticks": 19457,
            "time": 76.208,
            "value": 0.5039370078740157
          },
          {
            "number": 10,
            "ticks": 19484,
            "time": 76.316,
            "value": 0.9448818897637795
          },
          {
            "number": 10,
            "ticks": 19511,
            "time": 76.42399999999999,
            "value": 0.5039370078740157
          },
          {
            "number": 10,
            "ticks": 19538,
            "time": 76.532,
            "value": 0.06299212598425197
          },
          {
            "number": 10,
            "ticks": 19564,
            "time": 76.636,
            "value": 0.5039370078740157
          },
          {
            "number": 10,
            "ticks": 19591,
            "time": 76.74399999999999,
            "value": 0.9448818897637795
          },
          {
            "number": 10,
            "ticks": 19618,
            "time": 76.85199999999999,
            "value": 0.5039370078740157
          },
          {
            "number": 10,
            "ticks": 19645,
            "time": 76.96,
            "value": 0.06299212598425197
          },
          {
            "number": 10,
            "ticks": 19671,
            "time": 77.064,
            "value": 0.5039370078740157
          },
          {
            "number": 10,
            "ticks": 19698,
            "time": 77.172,
            "value": 0.9448818897637795
          },
          {
            "number": 10,
            "ticks": 19725,
            "time": 77.28,
            "value": 0.5039370078740157
          },
          {
            "number": 10,
            "ticks": 19752,
            "time": 77.38799999999999,
            "value": 0.06299212598425197
          },
          {
            "number": 10,
            "ticks": 19779,
            "time": 77.496,
            "value": 0.5039370078740157
          },
          {
            "number": 10,
            "ticks": 19805,
            "time": 77.6,
            "value": 0.9448818897637795
          },
          {
            "number": 10,
            "ticks": 19832,
            "time": 77.708,
            "value": 0.5039370078740157
          },
          {
            "number": 10,
            "ticks": 19859,
            "time": 77.816,
            "value": 0.06299212598425197
          },
          {
            "number": 10,
            "ticks": 19886,
            "time": 77.92399999999999,
            "value": 0.5039370078740157
          },
          {
            "number": 10,
            "ticks": 19913,
            "time": 78.032,
            "value": 0.9448818897637795
          },
          {
            "number": 10,
            "ticks": 19939,
            "time": 78.136,
            "value": 0.5039370078740157
          },
          {
            "number": 10,
            "ticks": 19966,
            "time": 78.24399999999999,
            "value": 0.06299212598425197
          },
          {
            "number": 10,
            "ticks": 19993,
            "time": 78.35199999999999,
            "value": 0.5039370078740157
          },
          {
            "number": 10,
            "ticks": 20020,
            "time": 78.46,
            "value": 0.9448818897637795
          },
          {
            "number": 10,
            "ticks": 20046,
            "time": 78.564,
            "value": 0.5039370078740157
          },
          {
            "number": 10,
            "ticks": 20073,
            "time": 78.672,
            "value": 0.06299212598425197
          },
          {
            "number": 10,
            "ticks": 20100,
            "time": 78.78,
            "value": 0.5039370078740157
          },
          {
            "number": 10,
            "ticks": 20127,
            "time": 78.88799999999999,
            "value": 0.9448818897637795
          },
          {
            "number": 10,
            "ticks": 20154,
            "time": 78.996,
            "value": 0.5039370078740157
          },
          {
            "number": 10,
            "ticks": 20180,
            "time": 79.1,
            "value": 0.06299212598425197
          },
          {
            "number": 10,
            "ticks": 20207,
            "time": 79.208,
            "value": 0.5039370078740157
          },
          {
            "number": 10,
            "ticks": 20234,
            "time": 79.316,
            "value": 0.9448818897637795
          },
          {
            "number": 10,
            "ticks": 20261,
            "time": 79.42399999999999,
            "value": 0.5039370078740157
          },
          {
            "number": 10,
            "ticks": 20288,
            "time": 79.532,
            "value": 0.06299212598425197
          },
          {
            "number": 10,
            "ticks": 20314,
            "time": 79.636,
            "value": 0.5039370078740157
          },
          {
            "number": 10,
            "ticks": 20341,
            "time": 79.74399999999999,
            "value": 0.9448818897637795
          },
          {
            "number": 10,
            "ticks": 20368,
            "time": 79.85199999999999,
            "value": 0.5039370078740157
          },
          {
            "number": 10,
            "ticks": 20395,
            "time": 79.96,
            "value": 0.06299212598425197
          },
          {
            "number": 10,
            "ticks": 20421,
            "time": 80.064,
            "value": 0.5039370078740157
          },
          {
            "number": 10,
            "ticks": 20448,
            "time": 80.172,
            "value": 0.9448818897637795
          },
          {
            "number": 10,
            "ticks": 20475,
            "time": 80.28,
            "value": 0.5039370078740157
          },
          {
            "number": 10,
            "ticks": 20502,
            "time": 80.38799999999999,
            "value": 0.06299212598425197
          },
          {
            "number": 10,
            "ticks": 20529,
            "time": 80.496,
            "value": 0.5039370078740157
          },
          {
            "number": 10,
            "ticks": 20555,
            "time": 80.6,
            "value": 0.9448818897637795
          },
          {
            "number": 10,
            "ticks": 20582,
            "time": 80.708,
            "value": 0.5039370078740157
          },
          {
            "number": 10,
            "ticks": 20609,
            "time": 80.816,
            "value": 0.06299212598425197
          },
          {
            "number": 10,
            "ticks": 20636,
            "time": 80.92399999999999,
            "value": 0.5039370078740157
          },
          {
            "number": 10,
            "ticks": 20663,
            "time": 81.032,
            "value": 0.9448818897637795
          },
          {
            "number": 10,
            "ticks": 20689,
            "time": 81.136,
            "value": 0.5039370078740157
          },
          {
            "number": 10,
            "ticks": 20716,
            "time": 81.24399999999999,
            "value": 0.06299212598425197
          },
          {
            "number": 10,
            "ticks": 20743,
            "time": 81.35199999999999,
            "value": 0.5039370078740157
          },
          {
            "number": 10,
            "ticks": 20770,
            "time": 81.46,
            "value": 0.9448818897637795
          },
          {
            "number": 10,
            "ticks": 20796,
            "time": 81.564,
            "value": 0.5039370078740157
          },
          {
            "number": 10,
            "ticks": 20823,
            "time": 81.672,
            "value": 0.06299212598425197
          },
          {
            "number": 10,
            "ticks": 20850,
            "time": 81.78,
            "value": 0.5039370078740157
          },
          {
            "number": 10,
            "ticks": 20877,
            "time": 81.88799999999999,
            "value": 0.9448818897637795
          },
          {
            "number": 10,
            "ticks": 20904,
            "time": 81.996,
            "value": 0.5039370078740157
          },
          {
            "number": 10,
            "ticks": 20930,
            "time": 82.1,
            "value": 0.06299212598425197
          },
          {
            "number": 10,
            "ticks": 20957,
            "time": 82.208,
            "value": 0.5039370078740157
          },
          {
            "number": 10,
            "ticks": 20984,
            "time": 82.316,
            "value": 0.9448818897637795
          },
          {
            "number": 10,
            "ticks": 21011,
            "time": 82.42399999999999,
            "value": 0.5039370078740157
          },
          {
            "number": 10,
            "ticks": 21038,
            "time": 82.532,
            "value": 0.06299212598425197
          },
          {
            "number": 10,
            "ticks": 21064,
            "time": 82.636,
            "value": 0.5039370078740157
          },
          {
            "number": 10,
            "ticks": 21091,
            "time": 82.74399999999999,
            "value": 0.9448818897637795
          },
          {
            "number": 10,
            "ticks": 21118,
            "time": 82.85199999999999,
            "value": 0.5039370078740157
          },
          {
            "number": 10,
            "ticks": 21145,
            "time": 82.96,
            "value": 0.06299212598425197
          },
          {
            "number": 10,
            "ticks": 21171,
            "time": 83.064,
            "value": 0.5039370078740157
          },
          {
            "number": 10,
            "ticks": 21198,
            "time": 83.172,
            "value": 0.9448818897637795
          },
          {
            "number": 10,
            "ticks": 21225,
            "time": 83.28,
            "value": 0.5039370078740157
          },
          {
            "number": 10,
            "ticks": 21252,
            "time": 83.38799999999999,
            "value": 0.06299212598425197
          },
          {
            "number": 10,
            "ticks": 21279,
            "time": 83.496,
            "value": 0.5039370078740157
          },
          {
            "number": 10,
            "ticks": 21305,
            "time": 83.6,
            "value": 0.9448818897637795
          },
          {
            "number": 10,
            "ticks": 21332,
            "time": 83.708,
            "value": 0.5039370078740157
          },
          {
            "number": 10,
            "ticks": 21359,
            "time": 83.816,
            "value": 0.06299212598425197
          },
          {
            "number": 10,
            "ticks": 21386,
            "time": 83.92399999999999,
            "value": 0.5039370078740157
          },
          {
            "number": 10,
            "ticks": 21413,
            "time": 84.032,
            "value": 0.9448818897637795
          },
          {
            "number": 10,
            "ticks": 21439,
            "time": 84.136,
            "value": 0.5039370078740157
          },
          {
            "number": 10,
            "ticks": 21466,
            "time": 84.24399999999999,
            "value": 0.06299212598425197
          },
          {
            "number": 10,
            "ticks": 21493,
            "time": 84.35199999999999,
            "value": 0.5039370078740157
          },
          {
            "number": 10,
            "ticks": 21520,
            "time": 84.46,
            "value": 0.9448818897637795
          },
          {
            "number": 10,
            "ticks": 21546,
            "time": 84.564,
            "value": 0.5039370078740157
          },
          {
            "number": 10,
            "ticks": 21573,
            "time": 84.672,
            "value": 0.06299212598425197
          },
          {
            "number": 10,
            "ticks": 21600,
            "time": 84.77999999999999,
            "value": 0.5039370078740157
          },
          {
            "number": 10,
            "ticks": 21627,
            "time": 84.88799999999999,
            "value": 0.9448818897637795
          },
          {
            "number": 10,
            "ticks": 21654,
            "time": 84.996,
            "value": 0.5039370078740157
          },
          {
            "number": 10,
            "ticks": 21680,
            "time": 85.1,
            "value": 0.06299212598425197
          },
          {
            "number": 10,
            "ticks": 21707,
            "time": 85.208,
            "value": 0.5039370078740157
          },
          {
            "number": 10,
            "ticks": 21734,
            "time": 85.316,
            "value": 0.9448818897637795
          },
          {
            "number": 10,
            "ticks": 21761,
            "time": 85.42399999999999,
            "value": 0.5039370078740157
          },
          {
            "number": 10,
            "ticks": 21788,
            "time": 85.532,
            "value": 0.06299212598425197
          },
          {
            "number": 10,
            "ticks": 21814,
            "time": 85.636,
            "value": 0.5039370078740157
          },
          {
            "number": 10,
            "ticks": 21841,
            "time": 85.74399999999999,
            "value": 0.9448818897637795
          },
          {
            "number": 10,
            "ticks": 21868,
            "time": 85.85199999999999,
            "value": 0.5039370078740157
          },
          {
            "number": 10,
            "ticks": 21895,
            "time": 85.96,
            "value": 0.06299212598425197
          },
          {
            "number": 10,
            "ticks": 21921,
            "time": 86.064,
            "value": 0.5039370078740157
          },
          {
            "number": 10,
            "ticks": 21948,
            "time": 86.172,
            "value": 0.9448818897637795
          },
          {
            "number": 10,
            "ticks": 21975,
            "time": 86.27999999999999,
            "value": 0.5039370078740157
          },
          {
            "number": 10,
            "ticks": 22002,
            "time": 86.38799999999999,
            "value": 0.06299212598425197
          },
          {
            "number": 10,
            "ticks": 22029,
            "time": 86.496,
            "value": 0.5039370078740157
          },
          {
            "number": 10,
            "ticks": 22055,
            "time": 86.6,
            "value": 0.9448818897637795
          },
          {
            "number": 10,
            "ticks": 22082,
            "time": 86.708,
            "value": 0.5039370078740157
          },
          {
            "number": 10,
            "ticks": 22109,
            "time": 86.816,
            "value": 0.06299212598425197
          },
          {
            "number": 10,
            "ticks": 22136,
            "time": 86.92399999999999,
            "value": 0.5039370078740157
          },
          {
            "number": 10,
            "ticks": 22163,
            "time": 87.032,
            "value": 0.9448818897637795
          },
          {
            "number": 10,
            "ticks": 22189,
            "time": 87.136,
            "value": 0.5039370078740157
          },
          {
            "number": 10,
            "ticks": 22216,
            "time": 87.24399999999999,
            "value": 0.06299212598425197
          },
          {
            "number": 10,
            "ticks": 22243,
            "time": 87.35199999999999,
            "value": 0.5039370078740157
          },
          {
            "number": 10,
            "ticks": 22270,
            "time": 87.46,
            "value": 0.9448818897637795
          },
          {
            "number": 10,
            "ticks": 22296,
            "time": 87.564,
            "value": 0.5039370078740157
          },
          {
            "number": 10,
            "ticks": 22323,
            "time": 87.672,
            "value": 0.06299212598425197
          },
          {
            "number": 10,
            "ticks": 22350,
            "time": 87.77999999999999,
            "value": 0.5039370078740157
          },
          {
            "number": 10,
            "ticks": 22377,
            "time": 87.88799999999999,
            "value": 0.9448818897637795
          },
          {
            "number": 10,
            "ticks": 22404,
            "time": 87.996,
            "value": 0.5039370078740157
          },
          {
            "number": 10,
            "ticks": 22430,
            "time": 88.1,
            "value": 0.06299212598425197
          },
          {
            "number": 10,
            "ticks": 22457,
            "time": 88.208,
            "value": 0.5039370078740157
          },
          {
            "number": 10,
            "ticks": 22484,
            "time": 88.316,
            "value": 0.9448818897637795
          },
          {
            "number": 10,
            "ticks": 22511,
            "time": 88.42399999999999,
            "value": 0.5039370078740157
          },
          {
            "number": 10,
            "ticks": 22538,
            "time": 88.532,
            "value": 0.06299212598425197
          },
          {
            "number": 10,
            "ticks": 22564,
            "time": 88.636,
            "value": 0.5039370078740157
          },
          {
            "number": 10,
            "ticks": 22591,
            "time": 88.74399999999999,
            "value": 0.9448818897637795
          },
          {
            "number": 10,
            "ticks": 22618,
            "time": 88.85199999999999,
            "value": 0.5039370078740157
          },
          {
            "number": 10,
            "ticks": 22645,
            "time": 88.96,
            "value": 0.06299212598425197
          },
          {
            "number": 10,
            "ticks": 22671,
            "time": 89.064,
            "value": 0.5039370078740157
          },
          {
            "number": 10,
            "ticks": 22698,
            "time": 89.172,
            "value": 0.9448818897637795
          },
          {
            "number": 10,
            "ticks": 22725,
            "time": 89.27999999999999,
            "value": 0.5039370078740157
          },
          {
            "number": 10,
            "ticks": 22752,
            "time": 89.38799999999999,
            "value": 0.06299212598425197
          },
          {
            "number": 10,
            "ticks": 22779,
            "time": 89.496,
            "value": 0.5039370078740157
          },
          {
            "number": 10,
            "ticks": 22805,
            "time": 89.6,
            "value": 0.9448818897637795
          },
          {
            "number": 10,
            "ticks": 22832,
            "time": 89.708,
            "value": 0.5039370078740157
          },
          {
            "number": 10,
            "ticks": 22859,
            "time": 89.816,
            "value": 0.06299212598425197
          },
          {
            "number": 10,
            "ticks": 22886,
            "time": 89.92399999999999,
            "value": 0.5039370078740157
          },
          {
            "number": 10,
            "ticks": 22913,
            "time": 90.032,
            "value": 0.9448818897637795
          },
          {
            "number": 10,
            "ticks": 22939,
            "time": 90.136,
            "value": 0.5039370078740157
          },
          {
            "number": 10,
            "ticks": 22966,
            "time": 90.24399999999999,
            "value": 0.06299212598425197
          },
          {
            "number": 10,
            "ticks": 22993,
            "time": 90.35199999999999,
            "value": 0.5039370078740157
          },
          {
            "number": 10,
            "ticks": 23020,
            "time": 90.46,
            "value": 0.9448818897637795
          },
          {
            "number": 10,
            "ticks": 23046,
            "time": 90.564,
            "value": 0.5039370078740157
          },
          {
            "number": 10,
            "ticks": 23073,
            "time": 90.672,
            "value": 0.06299212598425197
          },
          {
            "number": 10,
            "ticks": 23100,
            "time": 90.77999999999999,
            "value": 0.5039370078740157
          },
          {
            "number": 10,
            "ticks": 23127,
            "time": 90.88799999999999,
            "value": 0.9448818897637795
          },
          {
            "number": 10,
            "ticks": 23154,
            "time": 90.996,
            "value": 0.5039370078740157
          },
          {
            "number": 10,
            "ticks": 23180,
            "time": 91.1,
            "value": 0.06299212598425197
          },
          {
            "number": 10,
            "ticks": 23207,
            "time": 91.208,
            "value": 0.5039370078740157
          },
          {
            "number": 10,
            "ticks": 23234,
            "time": 91.316,
            "value": 0.9448818897637795
          },
          {
            "number": 10,
            "ticks": 23261,
            "time": 91.42399999999999,
            "value": 0.5039370078740157
          },
          {
            "number": 10,
            "ticks": 23288,
            "time": 91.532,
            "value": 0.06299212598425197
          },
          {
            "number": 10,
            "ticks": 23314,
            "time": 91.636,
            "value": 0.5039370078740157
          },
          {
            "number": 10,
            "ticks": 23341,
            "time": 91.74399999999999,
            "value": 0.9448818897637795
          },
          {
            "number": 10,
            "ticks": 23368,
            "time": 91.85199999999999,
            "value": 0.5039370078740157
          },
          {
            "number": 10,
            "ticks": 23395,
            "time": 91.96,
            "value": 0.06299212598425197
          },
          {
            "number": 10,
            "ticks": 23421,
            "time": 92.064,
            "value": 0.5039370078740157
          },
          {
            "number": 10,
            "ticks": 23448,
            "time": 92.172,
            "value": 0.9448818897637795
          },
          {
            "number": 10,
            "ticks": 23475,
            "time": 92.27999999999999,
            "value": 0.5039370078740157
          },
          {
            "number": 10,
            "ticks": 23502,
            "time": 92.38799999999999,
            "value": 0.06299212598425197
          },
          {
            "number": 10,
            "ticks": 23529,
            "time": 92.496,
            "value": 0.5039370078740157
          },
          {
            "number": 10,
            "ticks": 23555,
            "time": 92.6,
            "value": 0.9448818897637795
          },
          {
            "number": 10,
            "ticks": 23582,
            "time": 92.708,
            "value": 0.5039370078740157
          },
          {
            "number": 10,
            "ticks": 23609,
            "time": 92.816,
            "value": 0.06299212598425197
          },
          {
            "number": 10,
            "ticks": 23636,
            "time": 92.92399999999999,
            "value": 0.5039370078740157
          },
          {
            "number": 10,
            "ticks": 23663,
            "time": 93.032,
            "value": 0.9448818897637795
          },
          {
            "number": 10,
            "ticks": 23689,
            "time": 93.136,
            "value": 0.5039370078740157
          },
          {
            "number": 10,
            "ticks": 23716,
            "time": 93.24399999999999,
            "value": 0.06299212598425197
          },
          {
            "number": 10,
            "ticks": 23743,
            "time": 93.35199999999999,
            "value": 0.5039370078740157
          },
          {
            "number": 10,
            "ticks": 23770,
            "time": 93.46,
            "value": 0.9448818897637795
          },
          {
            "number": 10,
            "ticks": 23796,
            "time": 93.564,
            "value": 0.5039370078740157
          },
          {
            "number": 10,
            "ticks": 23823,
            "time": 93.672,
            "value": 0.06299212598425197
          },
          {
            "number": 10,
            "ticks": 23850,
            "time": 93.77999999999999,
            "value": 0.5039370078740157
          },
          {
            "number": 10,
            "ticks": 23877,
            "time": 93.88799999999999,
            "value": 0.9448818897637795
          },
          {
            "number": 10,
            "ticks": 23904,
            "time": 93.996,
            "value": 0.5039370078740157
          },
          {
            "number": 10,
            "ticks": 23930,
            "time": 94.1,
            "value": 0.06299212598425197
          },
          {
            "number": 10,
            "ticks": 23957,
            "time": 94.208,
            "value": 0.5039370078740157
          },
          {
            "number": 10,
            "ticks": 23984,
            "time": 94.316,
            "value": 0.9448818897637795
          },
          {
            "number": 10,
            "ticks": 24011,
            "time": 94.42399999999999,
            "value": 0.5039370078740157
          },
          {
            "number": 10,
            "ticks": 24038,
            "time": 94.532,
            "value": 0.06299212598425197
          },
          {
            "number": 10,
            "ticks": 24064,
            "time": 94.636,
            "value": 0.5039370078740157
          },
          {
            "number": 10,
            "ticks": 24091,
            "time": 94.74399999999999,
            "value": 0.9448818897637795
          },
          {
            "number": 10,
            "ticks": 24118,
            "time": 94.85199999999999,
            "value": 0.5039370078740157
          },
          {
            "number": 10,
            "ticks": 24145,
            "time": 94.96,
            "value": 0.06299212598425197
          },
          {
            "number": 10,
            "ticks": 24171,
            "time": 95.064,
            "value": 0.5039370078740157
          },
          {
            "number": 10,
            "ticks": 24198,
            "time": 95.172,
            "value": 0.9448818897637795
          },
          {
            "number": 10,
            "ticks": 24225,
            "time": 95.27999999999999,
            "value": 0.5039370078740157
          },
          {
            "number": 10,
            "ticks": 24252,
            "time": 95.38799999999999,
            "value": 0.06299212598425197
          },
          {
            "number": 10,
            "ticks": 24279,
            "time": 95.496,
            "value": 0.5039370078740157
          },
          {
            "number": 10,
            "ticks": 24305,
            "time": 95.6,
            "value": 0.9448818897637795
          },
          {
            "number": 10,
            "ticks": 24332,
            "time": 95.708,
            "value": 0.5039370078740157
          },
          {
            "number": 10,
            "ticks": 24359,
            "time": 95.816,
            "value": 0.06299212598425197
          },
          {
            "number": 10,
            "ticks": 24386,
            "time": 95.92399999999999,
            "value": 0.5039370078740157
          },
          {
            "number": 10,
            "ticks": 24413,
            "time": 96.032,
            "value": 0.9448818897637795
          },
          {
            "number": 10,
            "ticks": 24439,
            "time": 96.136,
            "value": 0.5039370078740157
          },
          {
            "number": 10,
            "ticks": 24466,
            "time": 96.24399999999999,
            "value": 0.06299212598425197
          },
          {
            "number": 10,
            "ticks": 24493,
            "time": 96.35199999999999,
            "value": 0.5039370078740157
          },
          {
            "number": 10,
            "ticks": 24520,
            "time": 96.46,
            "value": 0.9448818897637795
          },
          {
            "number": 10,
            "ticks": 24546,
            "time": 96.564,
            "value": 0.5039370078740157
          },
          {
            "number": 10,
            "ticks": 24573,
            "time": 96.672,
            "value": 0.06299212598425197
          },
          {
            "number": 10,
            "ticks": 24600,
            "time": 96.77999999999999,
            "value": 0.5039370078740157
          },
          {
            "number": 10,
            "ticks": 24627,
            "time": 96.88799999999999,
            "value": 0.9448818897637795
          },
          {
            "number": 10,
            "ticks": 24654,
            "time": 96.996,
            "value": 0.5039370078740157
          },
          {
            "number": 10,
            "ticks": 24680,
            "time": 97.1,
            "value": 0.06299212598425197
          },
          {
            "number": 10,
            "ticks": 24707,
            "time": 97.208,
            "value": 0.5039370078740157
          },
          {
            "number": 10,
            "ticks": 24734,
            "time": 97.316,
            "value": 0.9448818897637795
          },
          {
            "number": 10,
            "ticks": 24761,
            "time": 97.42399999999999,
            "value": 0.5039370078740157
          },
          {
            "number": 10,
            "ticks": 24788,
            "time": 97.532,
            "value": 0.06299212598425197
          },
          {
            "number": 10,
            "ticks": 24814,
            "time": 97.636,
            "value": 0.5039370078740157
          },
          {
            "number": 10,
            "ticks": 24841,
            "time": 97.74399999999999,
            "value": 0.9448818897637795
          },
          {
            "number": 10,
            "ticks": 24868,
            "time": 97.85199999999999,
            "value": 0.5039370078740157
          },
          {
            "number": 10,
            "ticks": 24895,
            "time": 97.96,
            "value": 0.06299212598425197
          },
          {
            "number": 10,
            "ticks": 24921,
            "time": 98.064,
            "value": 0.5039370078740157
          },
          {
            "number": 10,
            "ticks": 24948,
            "time": 98.172,
            "value": 0.9448818897637795
          },
          {
            "number": 10,
            "ticks": 24975,
            "time": 98.27999999999999,
            "value": 0.5039370078740157
          },
          {
            "number": 10,
            "ticks": 25002,
            "time": 98.38799999999999,
            "value": 0.06299212598425197
          },
          {
            "number": 10,
            "ticks": 25029,
            "time": 98.496,
            "value": 0.5039370078740157
          },
          {
            "number": 10,
            "ticks": 25055,
            "time": 98.6,
            "value": 0.9448818897637795
          },
          {
            "number": 10,
            "ticks": 25082,
            "time": 98.708,
            "value": 0.5039370078740157
          },
          {
            "number": 10,
            "ticks": 35930,
            "time": 142.10000000000002,
            "value": 0.06299212598425197
          },
          {
            "number": 10,
            "ticks": 35957,
            "time": 142.208,
            "value": 0.5039370078740157
          },
          {
            "number": 10,
            "ticks": 35984,
            "time": 142.316,
            "value": 0.9448818897637795
          },
          {
            "number": 10,
            "ticks": 36011,
            "time": 142.424,
            "value": 0.5039370078740157
          },
          {
            "number": 10,
            "ticks": 36038,
            "time": 142.532,
            "value": 0.06299212598425197
          },
          {
            "number": 10,
            "ticks": 36064,
            "time": 142.63600000000002,
            "value": 0.5039370078740157
          },
          {
            "number": 10,
            "ticks": 36091,
            "time": 142.744,
            "value": 0.9448818897637795
          },
          {
            "number": 10,
            "ticks": 36118,
            "time": 142.852,
            "value": 0.5039370078740157
          },
          {
            "number": 10,
            "ticks": 36145,
            "time": 142.96,
            "value": 0.06299212598425197
          },
          {
            "number": 10,
            "ticks": 36171,
            "time": 143.06400000000002,
            "value": 0.5039370078740157
          },
          {
            "number": 10,
            "ticks": 36198,
            "time": 143.172,
            "value": 0.9448818897637795
          },
          {
            "number": 10,
            "ticks": 36225,
            "time": 143.28,
            "value": 0.5039370078740157
          },
          {
            "number": 10,
            "ticks": 36252,
            "time": 143.388,
            "value": 0.06299212598425197
          },
          {
            "number": 10,
            "ticks": 36279,
            "time": 143.496,
            "value": 0.5039370078740157
          },
          {
            "number": 10,
            "ticks": 36305,
            "time": 143.60000000000002,
            "value": 0.9448818897637795
          },
          {
            "number": 10,
            "ticks": 36332,
            "time": 143.708,
            "value": 0.5039370078740157
          },
          {
            "number": 10,
            "ticks": 36359,
            "time": 143.816,
            "value": 0.06299212598425197
          },
          {
            "number": 10,
            "ticks": 36386,
            "time": 143.924,
            "value": 0.5039370078740157
          },
          {
            "number": 10,
            "ticks": 36413,
            "time": 144.032,
            "value": 0.9448818897637795
          },
          {
            "number": 10,
            "ticks": 36439,
            "time": 144.13600000000002,
            "value": 0.5039370078740157
          },
          {
            "number": 10,
            "ticks": 36466,
            "time": 144.244,
            "value": 0.06299212598425197
          },
          {
            "number": 10,
            "ticks": 36493,
            "time": 144.352,
            "value": 0.5039370078740157
          },
          {
            "number": 10,
            "ticks": 36520,
            "time": 144.46,
            "value": 0.9448818897637795
          },
          {
            "number": 10,
            "ticks": 36546,
            "time": 144.56400000000002,
            "value": 0.5039370078740157
          },
          {
            "number": 10,
            "ticks": 36573,
            "time": 144.672,
            "value": 0.06299212598425197
          },
          {
            "number": 10,
            "ticks": 36600,
            "time": 144.78,
            "value": 0.5039370078740157
          },
          {
            "number": 10,
            "ticks": 36627,
            "time": 144.888,
            "value": 0.9448818897637795
          },
          {
            "number": 10,
            "ticks": 36654,
            "time": 144.996,
            "value": 0.5039370078740157
          },
          {
            "number": 10,
            "ticks": 36680,
            "time": 145.10000000000002,
            "value": 0.06299212598425197
          },
          {
            "number": 10,
            "ticks": 36707,
            "time": 145.208,
            "value": 0.5039370078740157
          },
          {
            "number": 10,
            "ticks": 36734,
            "time": 145.316,
            "value": 0.9448818897637795
          },
          {
            "number": 10,
            "ticks": 36761,
            "time": 145.424,
            "value": 0.5039370078740157
          },
          {
            "number": 10,
            "ticks": 36788,
            "time": 145.532,
            "value": 0.06299212598425197
          },
          {
            "number": 10,
            "ticks": 36814,
            "time": 145.63600000000002,
            "value": 0.5039370078740157
          },
          {
            "number": 10,
            "ticks": 36841,
            "time": 145.744,
            "value": 0.9448818897637795
          },
          {
            "number": 10,
            "ticks": 36868,
            "time": 145.852,
            "value": 0.5039370078740157
          },
          {
            "number": 10,
            "ticks": 36895,
            "time": 145.96,
            "value": 0.06299212598425197
          },
          {
            "number": 10,
            "ticks": 36921,
            "time": 146.06400000000002,
            "value": 0.5039370078740157
          },
          {
            "number": 10,
            "ticks": 36948,
            "time": 146.172,
            "value": 0.9448818897637795
          },
          {
            "number": 10,
            "ticks": 36975,
            "time": 146.28,
            "value": 0.5039370078740157
          },
          {
            "number": 10,
            "ticks": 37002,
            "time": 146.388,
            "value": 0.06299212598425197
          },
          {
            "number": 10,
            "ticks": 37029,
            "time": 146.496,
            "value": 0.5039370078740157
          },
          {
            "number": 10,
            "ticks": 37055,
            "time": 146.60000000000002,
            "value": 0.9448818897637795
          },
          {
            "number": 10,
            "ticks": 37082,
            "time": 146.708,
            "value": 0.5039370078740157
          },
          {
            "number": 10,
            "ticks": 37109,
            "time": 146.816,
            "value": 0.06299212598425197
          },
          {
            "number": 10,
            "ticks": 37136,
            "time": 146.924,
            "value": 0.5039370078740157
          },
          {
            "number": 10,
            "ticks": 37163,
            "time": 147.032,
            "value": 0.9448818897637795
          },
          {
            "number": 10,
            "ticks": 37189,
            "time": 147.13600000000002,
            "value": 0.5039370078740157
          },
          {
            "number": 10,
            "ticks": 37216,
            "time": 147.244,
            "value": 0.06299212598425197
          },
          {
            "number": 10,
            "ticks": 37243,
            "time": 147.352,
            "value": 0.5039370078740157
          },
          {
            "number": 10,
            "ticks": 37270,
            "time": 147.46,
            "value": 0.9448818897637795
          },
          {
            "number": 10,
            "ticks": 37296,
            "time": 147.56400000000002,
            "value": 0.5039370078740157
          },
          {
            "number": 10,
            "ticks": 37323,
            "time": 147.672,
            "value": 0.06299212598425197
          },
          {
            "number": 10,
            "ticks": 37350,
            "time": 147.78,
            "value": 0.5039370078740157
          },
          {
            "number": 10,
            "ticks": 37377,
            "time": 147.888,
            "value": 0.9448818897637795
          },
          {
            "number": 10,
            "ticks": 37404,
            "time": 147.996,
            "value": 0.5039370078740157
          },
          {
            "number": 10,
            "ticks": 37430,
            "time": 148.10000000000002,
            "value": 0.06299212598425197
          },
          {
            "number": 10,
            "ticks": 37457,
            "time": 148.208,
            "value": 0.5039370078740157
          },
          {
            "number": 10,
            "ticks": 37484,
            "time": 148.316,
            "value": 0.9448818897637795
          },
          {
            "number": 10,
            "ticks": 37511,
            "time": 148.424,
            "value": 0.5039370078740157
          },
          {
            "number": 10,
            "ticks": 37538,
            "time": 148.532,
            "value": 0.06299212598425197
          },
          {
            "number": 10,
            "ticks": 37564,
            "time": 148.63600000000002,
            "value": 0.5039370078740157
          },
          {
            "number": 10,
            "ticks": 37591,
            "time": 148.744,
            "value": 0.9448818897637795
          },
          {
            "number": 10,
            "ticks": 37618,
            "time": 148.852,
            "value": 0.5039370078740157
          },
          {
            "number": 10,
            "ticks": 37645,
            "time": 148.96,
            "value": 0.06299212598425197
          },
          {
            "number": 10,
            "ticks": 37671,
            "time": 149.06400000000002,
            "value": 0.5039370078740157
          },
          {
            "number": 10,
            "ticks": 37698,
            "time": 149.172,
            "value": 0.9448818897637795
          },
          {
            "number": 10,
            "ticks": 37725,
            "time": 149.28,
            "value": 0.5039370078740157
          },
          {
            "number": 10,
            "ticks": 37752,
            "time": 149.388,
            "value": 0.06299212598425197
          },
          {
            "number": 10,
            "ticks": 37779,
            "time": 149.496,
            "value": 0.5039370078740157
          },
          {
            "number": 10,
            "ticks": 37805,
            "time": 149.60000000000002,
            "value": 0.9448818897637795
          },
          {
            "number": 10,
            "ticks": 37832,
            "time": 149.708,
            "value": 0.5039370078740157
          },
          {
            "number": 10,
            "ticks": 37859,
            "time": 149.816,
            "value": 0.06299212598425197
          },
          {
            "number": 10,
            "ticks": 37886,
            "time": 149.924,
            "value": 0.5039370078740157
          },
          {
            "number": 10,
            "ticks": 37913,
            "time": 150.032,
            "value": 0.9448818897637795
          },
          {
            "number": 10,
            "ticks": 37939,
            "time": 150.13600000000002,
            "value": 0.5039370078740157
          },
          {
            "number": 10,
            "ticks": 37966,
            "time": 150.244,
            "value": 0.06299212598425197
          },
          {
            "number": 10,
            "ticks": 37993,
            "time": 150.352,
            "value": 0.5039370078740157
          },
          {
            "number": 10,
            "ticks": 38020,
            "time": 150.46,
            "value": 0.9448818897637795
          },
          {
            "number": 10,
            "ticks": 38046,
            "time": 150.56400000000002,
            "value": 0.5039370078740157
          },
          {
            "number": 10,
            "ticks": 38073,
            "time": 150.672,
            "value": 0.06299212598425197
          },
          {
            "number": 10,
            "ticks": 38100,
            "time": 150.78,
            "value": 0.5039370078740157
          },
          {
            "number": 10,
            "ticks": 38127,
            "time": 150.888,
            "value": 0.9448818897637795
          },
          {
            "number": 10,
            "ticks": 38154,
            "time": 150.996,
            "value": 0.5039370078740157
          },
          {
            "number": 10,
            "ticks": 38180,
            "time": 151.10000000000002,
            "value": 0.06299212598425197
          },
          {
            "number": 10,
            "ticks": 38207,
            "time": 151.208,
            "value": 0.5039370078740157
          },
          {
            "number": 10,
            "ticks": 38234,
            "time": 151.316,
            "value": 0.9448818897637795
          },
          {
            "number": 10,
            "ticks": 38261,
            "time": 151.424,
            "value": 0.5039370078740157
          },
          {
            "number": 10,
            "ticks": 38288,
            "time": 151.532,
            "value": 0.06299212598425197
          },
          {
            "number": 10,
            "ticks": 38314,
            "time": 151.63600000000002,
            "value": 0.5039370078740157
          },
          {
            "number": 10,
            "ticks": 38341,
            "time": 151.744,
            "value": 0.9448818897637795
          },
          {
            "number": 10,
            "ticks": 38368,
            "time": 151.852,
            "value": 0.5039370078740157
          },
          {
            "number": 10,
            "ticks": 38395,
            "time": 151.96,
            "value": 0.06299212598425197
          },
          {
            "number": 10,
            "ticks": 38421,
            "time": 152.06400000000002,
            "value": 0.5039370078740157
          },
          {
            "number": 10,
            "ticks": 38448,
            "time": 152.172,
            "value": 0.9448818897637795
          },
          {
            "number": 10,
            "ticks": 38475,
            "time": 152.28,
            "value": 0.5039370078740157
          },
          {
            "number": 10,
            "ticks": 38502,
            "time": 152.388,
            "value": 0.06299212598425197
          },
          {
            "number": 10,
            "ticks": 38529,
            "time": 152.496,
            "value": 0.5039370078740157
          },
          {
            "number": 10,
            "ticks": 38555,
            "time": 152.60000000000002,
            "value": 0.9448818897637795
          },
          {
            "number": 10,
            "ticks": 38582,
            "time": 152.708,
            "value": 0.5039370078740157
          },
          {
            "number": 10,
            "ticks": 38609,
            "time": 152.816,
            "value": 0.06299212598425197
          },
          {
            "number": 10,
            "ticks": 38636,
            "time": 152.924,
            "value": 0.5039370078740157
          },
          {
            "number": 10,
            "ticks": 38663,
            "time": 153.032,
            "value": 0.9448818897637795
          },
          {
            "number": 10,
            "ticks": 38689,
            "time": 153.13600000000002,
            "value": 0.5039370078740157
          },
          {
            "number": 10,
            "ticks": 38716,
            "time": 153.244,
            "value": 0.06299212598425197
          },
          {
            "number": 10,
            "ticks": 38743,
            "time": 153.352,
            "value": 0.5039370078740157
          },
          {
            "number": 10,
            "ticks": 38770,
            "time": 153.46,
            "value": 0.9448818897637795
          },
          {
            "number": 10,
            "ticks": 38796,
            "time": 153.56400000000002,
            "value": 0.5039370078740157
          },
          {
            "number": 10,
            "ticks": 38823,
            "time": 153.672,
            "value": 0.06299212598425197
          },
          {
            "number": 10,
            "ticks": 38850,
            "time": 153.78,
            "value": 0.5039370078740157
          },
          {
            "number": 10,
            "ticks": 38877,
            "time": 153.888,
            "value": 0.9448818897637795
          },
          {
            "number": 10,
            "ticks": 38904,
            "time": 153.996,
            "value": 0.5039370078740157
          },
          {
            "number": 10,
            "ticks": 38930,
            "time": 154.10000000000002,
            "value": 0.06299212598425197
          },
          {
            "number": 10,
            "ticks": 38957,
            "time": 154.208,
            "value": 0.5039370078740157
          },
          {
            "number": 10,
            "ticks": 38984,
            "time": 154.316,
            "value": 0.9448818897637795
          },
          {
            "number": 10,
            "ticks": 39011,
            "time": 154.424,
            "value": 0.5039370078740157
          },
          {
            "number": 10,
            "ticks": 39038,
            "time": 154.532,
            "value": 0.06299212598425197
          },
          {
            "number": 10,
            "ticks": 39064,
            "time": 154.63600000000002,
            "value": 0.5039370078740157
          },
          {
            "number": 10,
            "ticks": 39091,
            "time": 154.744,
            "value": 0.9448818897637795
          },
          {
            "number": 10,
            "ticks": 39118,
            "time": 154.852,
            "value": 0.5039370078740157
          },
          {
            "number": 10,
            "ticks": 39145,
            "time": 154.96,
            "value": 0.06299212598425197
          },
          {
            "number": 10,
            "ticks": 39171,
            "time": 155.06400000000002,
            "value": 0.5039370078740157
          },
          {
            "number": 10,
            "ticks": 39198,
            "time": 155.172,
            "value": 0.9448818897637795
          },
          {
            "number": 10,
            "ticks": 39225,
            "time": 155.28,
            "value": 0.5039370078740157
          },
          {
            "number": 10,
            "ticks": 39252,
            "time": 155.388,
            "value": 0.06299212598425197
          },
          {
            "number": 10,
            "ticks": 39279,
            "time": 155.496,
            "value": 0.5039370078740157
          },
          {
            "number": 10,
            "ticks": 39305,
            "time": 155.60000000000002,
            "value": 0.9448818897637795
          },
          {
            "number": 10,
            "ticks": 39332,
            "time": 155.708,
            "value": 0.5039370078740157
          },
          {
            "number": 10,
            "ticks": 39359,
            "time": 155.816,
            "value": 0.06299212598425197
          },
          {
            "number": 10,
            "ticks": 39386,
            "time": 155.924,
            "value": 0.5039370078740157
          },
          {
            "number": 10,
            "ticks": 39413,
            "time": 156.032,
            "value": 0.9448818897637795
          },
          {
            "number": 10,
            "ticks": 39439,
            "time": 156.13600000000002,
            "value": 0.5039370078740157
          },
          {
            "number": 10,
            "ticks": 39466,
            "time": 156.244,
            "value": 0.06299212598425197
          },
          {
            "number": 10,
            "ticks": 39493,
            "time": 156.352,
            "value": 0.5039370078740157
          },
          {
            "number": 10,
            "ticks": 39520,
            "time": 156.46,
            "value": 0.9448818897637795
          },
          {
            "number": 10,
            "ticks": 39546,
            "time": 156.56400000000002,
            "value": 0.5039370078740157
          },
          {
            "number": 10,
            "ticks": 39573,
            "time": 156.672,
            "value": 0.06299212598425197
          },
          {
            "number": 10,
            "ticks": 39600,
            "time": 156.78,
            "value": 0.5039370078740157
          },
          {
            "number": 10,
            "ticks": 39627,
            "time": 156.888,
            "value": 0.9448818897637795
          },
          {
            "number": 10,
            "ticks": 39654,
            "time": 156.996,
            "value": 0.5039370078740157
          },
          {
            "number": 10,
            "ticks": 39680,
            "time": 157.10000000000002,
            "value": 0.06299212598425197
          },
          {
            "number": 10,
            "ticks": 39707,
            "time": 157.208,
            "value": 0.5039370078740157
          },
          {
            "number": 10,
            "ticks": 39734,
            "time": 157.316,
            "value": 0.9448818897637795
          },
          {
            "number": 10,
            "ticks": 39761,
            "time": 157.424,
            "value": 0.5039370078740157
          },
          {
            "number": 10,
            "ticks": 39788,
            "time": 157.532,
            "value": 0.06299212598425197
          },
          {
            "number": 10,
            "ticks": 39814,
            "time": 157.63600000000002,
            "value": 0.5039370078740157
          },
          {
            "number": 10,
            "ticks": 39841,
            "time": 157.744,
            "value": 0.9448818897637795
          },
          {
            "number": 10,
            "ticks": 39868,
            "time": 157.852,
            "value": 0.5039370078740157
          },
          {
            "number": 10,
            "ticks": 39895,
            "time": 157.96,
            "value": 0.06299212598425197
          },
          {
            "number": 10,
            "ticks": 39921,
            "time": 158.06400000000002,
            "value": 0.5039370078740157
          },
          {
            "number": 10,
            "ticks": 39948,
            "time": 158.172,
            "value": 0.9448818897637795
          },
          {
            "number": 10,
            "ticks": 39975,
            "time": 158.28,
            "value": 0.5039370078740157
          },
          {
            "number": 10,
            "ticks": 40002,
            "time": 158.388,
            "value": 0.06299212598425197
          },
          {
            "number": 10,
            "ticks": 40029,
            "time": 158.496,
            "value": 0.5039370078740157
          },
          {
            "number": 10,
            "ticks": 40055,
            "time": 158.60000000000002,
            "value": 0.9448818897637795
          },
          {
            "number": 10,
            "ticks": 40082,
            "time": 158.708,
            "value": 0.5039370078740157
          },
          {
            "number": 10,
            "ticks": 40109,
            "time": 158.816,
            "value": 0.06299212598425197
          },
          {
            "number": 10,
            "ticks": 40136,
            "time": 158.924,
            "value": 0.5039370078740157
          },
          {
            "number": 10,
            "ticks": 40163,
            "time": 159.032,
            "value": 0.9448818897637795
          },
          {
            "number": 10,
            "ticks": 40189,
            "time": 159.13600000000002,
            "value": 0.5039370078740157
          },
          {
            "number": 10,
            "ticks": 40216,
            "time": 159.244,
            "value": 0.06299212598425197
          },
          {
            "number": 10,
            "ticks": 40243,
            "time": 159.352,
            "value": 0.5039370078740157
          },
          {
            "number": 10,
            "ticks": 40270,
            "time": 159.46,
            "value": 0.9448818897637795
          },
          {
            "number": 10,
            "ticks": 40296,
            "time": 159.56400000000002,
            "value": 0.5039370078740157
          },
          {
            "number": 10,
            "ticks": 40323,
            "time": 159.672,
            "value": 0.06299212598425197
          },
          {
            "number": 10,
            "ticks": 40350,
            "time": 159.78,
            "value": 0.5039370078740157
          },
          {
            "number": 10,
            "ticks": 40377,
            "time": 159.888,
            "value": 0.9448818897637795
          },
          {
            "number": 10,
            "ticks": 40404,
            "time": 159.996,
            "value": 0.5039370078740157
          },
          {
            "number": 10,
            "ticks": 40430,
            "time": 160.10000000000002,
            "value": 0.06299212598425197
          },
          {
            "number": 10,
            "ticks": 40457,
            "time": 160.208,
            "value": 0.5039370078740157
          },
          {
            "number": 10,
            "ticks": 40484,
            "time": 160.316,
            "value": 0.9448818897637795
          },
          {
            "number": 10,
            "ticks": 40511,
            "time": 160.424,
            "value": 0.5039370078740157
          },
          {
            "number": 10,
            "ticks": 40538,
            "time": 160.532,
            "value": 0.06299212598425197
          },
          {
            "number": 10,
            "ticks": 40564,
            "time": 160.63600000000002,
            "value": 0.5039370078740157
          },
          {
            "number": 10,
            "ticks": 40591,
            "time": 160.744,
            "value": 0.9448818897637795
          },
          {
            "number": 10,
            "ticks": 40618,
            "time": 160.852,
            "value": 0.5039370078740157
          },
          {
            "number": 10,
            "ticks": 40645,
            "time": 160.96,
            "value": 0.06299212598425197
          },
          {
            "number": 10,
            "ticks": 40671,
            "time": 161.06400000000002,
            "value": 0.5039370078740157
          },
          {
            "number": 10,
            "ticks": 40698,
            "time": 161.172,
            "value": 0.9448818897637795
          },
          {
            "number": 10,
            "ticks": 40725,
            "time": 161.28,
            "value": 0.5039370078740157
          },
          {
            "number": 10,
            "ticks": 40752,
            "time": 161.388,
            "value": 0.06299212598425197
          },
          {
            "number": 10,
            "ticks": 40779,
            "time": 161.496,
            "value": 0.5039370078740157
          },
          {
            "number": 10,
            "ticks": 40805,
            "time": 161.60000000000002,
            "value": 0.9448818897637795
          },
          {
            "number": 10,
            "ticks": 40832,
            "time": 161.708,
            "value": 0.5039370078740157
          },
          {
            "number": 10,
            "ticks": 40859,
            "time": 161.816,
            "value": 0.06299212598425197
          },
          {
            "number": 10,
            "ticks": 40886,
            "time": 161.924,
            "value": 0.5039370078740157
          },
          {
            "number": 10,
            "ticks": 40913,
            "time": 162.032,
            "value": 0.9448818897637795
          },
          {
            "number": 10,
            "ticks": 40939,
            "time": 162.13600000000002,
            "value": 0.5039370078740157
          },
          {
            "number": 10,
            "ticks": 40966,
            "time": 162.244,
            "value": 0.06299212598425197
          },
          {
            "number": 10,
            "ticks": 40993,
            "time": 162.352,
            "value": 0.5039370078740157
          },
          {
            "number": 10,
            "ticks": 41020,
            "time": 162.46,
            "value": 0.9448818897637795
          },
          {
            "number": 10,
            "ticks": 41046,
            "time": 162.56400000000002,
            "value": 0.5039370078740157
          },
          {
            "number": 10,
            "ticks": 41073,
            "time": 162.672,
            "value": 0.06299212598425197
          },
          {
            "number": 10,
            "ticks": 41100,
            "time": 162.78,
            "value": 0.5039370078740157
          },
          {
            "number": 10,
            "ticks": 41127,
            "time": 162.888,
            "value": 0.9448818897637795
          },
          {
            "number": 10,
            "ticks": 41154,
            "time": 162.996,
            "value": 0.5039370078740157
          },
          {
            "number": 10,
            "ticks": 41180,
            "time": 163.10000000000002,
            "value": 0.06299212598425197
          },
          {
            "number": 10,
            "ticks": 41207,
            "time": 163.208,
            "value": 0.5039370078740157
          },
          {
            "number": 10,
            "ticks": 41234,
            "time": 163.316,
            "value": 0.9448818897637795
          },
          {
            "number": 10,
            "ticks": 41261,
            "time": 163.424,
            "value": 0.5039370078740157
          },
          {
            "number": 10,
            "ticks": 41288,
            "time": 163.532,
            "value": 0.06299212598425197
          },
          {
            "number": 10,
            "ticks": 41314,
            "time": 163.63600000000002,
            "value": 0.5039370078740157
          },
          {
            "number": 10,
            "ticks": 41341,
            "time": 163.744,
            "value": 0.9448818897637795
          },
          {
            "number": 10,
            "ticks": 41368,
            "time": 163.852,
            "value": 0.5039370078740157
          },
          {
            "number": 10,
            "ticks": 41395,
            "time": 163.96,
            "value": 0.06299212598425197
          },
          {
            "number": 10,
            "ticks": 41421,
            "time": 164.06400000000002,
            "value": 0.5039370078740157
          },
          {
            "number": 10,
            "ticks": 41448,
            "time": 164.172,
            "value": 0.9448818897637795
          },
          {
            "number": 10,
            "ticks": 41475,
            "time": 164.28,
            "value": 0.5039370078740157
          },
          {
            "number": 10,
            "ticks": 41502,
            "time": 164.388,
            "value": 0.06299212598425197
          },
          {
            "number": 10,
            "ticks": 41529,
            "time": 164.496,
            "value": 0.5039370078740157
          },
          {
            "number": 10,
            "ticks": 41555,
            "time": 164.60000000000002,
            "value": 0.9448818897637795
          },
          {
            "number": 10,
            "ticks": 41582,
            "time": 164.708,
            "value": 0.5039370078740157
          },
          {
            "number": 10,
            "ticks": 41609,
            "time": 164.816,
            "value": 0.06299212598425197
          },
          {
            "number": 10,
            "ticks": 41636,
            "time": 164.924,
            "value": 0.5039370078740157
          },
          {
            "number": 10,
            "ticks": 41663,
            "time": 165.032,
            "value": 0.9448818897637795
          },
          {
            "number": 10,
            "ticks": 41689,
            "time": 165.13600000000002,
            "value": 0.5039370078740157
          },
          {
            "number": 10,
            "ticks": 41716,
            "time": 165.244,
            "value": 0.06299212598425197
          },
          {
            "number": 10,
            "ticks": 41743,
            "time": 165.352,
            "value": 0.5039370078740157
          },
          {
            "number": 10,
            "ticks": 41770,
            "time": 165.46,
            "value": 0.9448818897637795
          },
          {
            "number": 10,
            "ticks": 41796,
            "time": 165.56400000000002,
            "value": 0.5039370078740157
          },
          {
            "number": 10,
            "ticks": 41823,
            "time": 165.672,
            "value": 0.06299212598425197
          },
          {
            "number": 10,
            "ticks": 41850,
            "time": 165.78,
            "value": 0.5039370078740157
          },
          {
            "number": 10,
            "ticks": 41877,
            "time": 165.888,
            "value": 0.9448818897637795
          },
          {
            "number": 10,
            "ticks": 41904,
            "time": 165.996,
            "value": 0.5039370078740157
          },
          {
            "number": 10,
            "ticks": 41930,
            "time": 166.10000000000002,
            "value": 0.06299212598425197
          },
          {
            "number": 10,
            "ticks": 41957,
            "time": 166.208,
            "value": 0.5039370078740157
          },
          {
            "number": 10,
            "ticks": 41984,
            "time": 166.316,
            "value": 0.9448818897637795
          },
          {
            "number": 10,
            "ticks": 42011,
            "time": 166.424,
            "value": 0.5039370078740157
          },
          {
            "number": 10,
            "ticks": 42038,
            "time": 166.532,
            "value": 0.06299212598425197
          },
          {
            "number": 10,
            "ticks": 42064,
            "time": 166.63600000000002,
            "value": 0.5039370078740157
          },
          {
            "number": 10,
            "ticks": 42091,
            "time": 166.744,
            "value": 0.9448818897637795
          },
          {
            "number": 10,
            "ticks": 42118,
            "time": 166.852,
            "value": 0.5039370078740157
          },
          {
            "number": 10,
            "ticks": 42145,
            "time": 166.96,
            "value": 0.06299212598425197
          },
          {
            "number": 10,
            "ticks": 42171,
            "time": 167.06400000000002,
            "value": 0.5039370078740157
          },
          {
            "number": 10,
            "ticks": 42198,
            "time": 167.172,
            "value": 0.9448818897637795
          },
          {
            "number": 10,
            "ticks": 42225,
            "time": 167.28,
            "value": 0.5039370078740157
          },
          {
            "number": 10,
            "ticks": 42252,
            "time": 167.388,
            "value": 0.06299212598425197
          },
          {
            "number": 10,
            "ticks": 42279,
            "time": 167.496,
            "value": 0.5039370078740157
          },
          {
            "number": 10,
            "ticks": 42305,
            "time": 167.60000000000002,
            "value": 0.9448818897637795
          },
          {
            "number": 10,
            "ticks": 42332,
            "time": 167.708,
            "value": 0.5039370078740157
          },
          {
            "number": 10,
            "ticks": 42359,
            "time": 167.816,
            "value": 0.06299212598425197
          },
          {
            "number": 10,
            "ticks": 42386,
            "time": 167.924,
            "value": 0.5039370078740157
          },
          {
            "number": 10,
            "ticks": 42413,
            "time": 168.032,
            "value": 0.9448818897637795
          },
          {
            "number": 10,
            "ticks": 42439,
            "time": 168.13600000000002,
            "value": 0.5039370078740157
          },
          {
            "number": 10,
            "ticks": 42466,
            "time": 168.244,
            "value": 0.06299212598425197
          },
          {
            "number": 10,
            "ticks": 42493,
            "time": 168.352,
            "value": 0.5039370078740157
          },
          {
            "number": 10,
            "ticks": 42520,
            "time": 168.46,
            "value": 0.9448818897637795
          },
          {
            "number": 10,
            "ticks": 42546,
            "time": 168.56400000000002,
            "value": 0.5039370078740157
          },
          {
            "number": 10,
            "ticks": 42573,
            "time": 168.672,
            "value": 0.06299212598425197
          },
          {
            "number": 10,
            "ticks": 42600,
            "time": 168.78,
            "value": 0.5039370078740157
          },
          {
            "number": 10,
            "ticks": 42627,
            "time": 168.888,
            "value": 0.9448818897637795
          },
          {
            "number": 10,
            "ticks": 42654,
            "time": 168.996,
            "value": 0.5039370078740157
          },
          {
            "number": 10,
            "ticks": 42680,
            "time": 169.10000000000002,
            "value": 0.06299212598425197
          },
          {
            "number": 10,
            "ticks": 42707,
            "time": 169.208,
            "value": 0.5039370078740157
          },
          {
            "number": 10,
            "ticks": 42734,
            "time": 169.316,
            "value": 0.9448818897637795
          },
          {
            "number": 10,
            "ticks": 42761,
            "time": 169.42399999999998,
            "value": 0.5039370078740157
          },
          {
            "number": 10,
            "ticks": 42788,
            "time": 169.532,
            "value": 0.06299212598425197
          },
          {
            "number": 10,
            "ticks": 42814,
            "time": 169.63600000000002,
            "value": 0.5039370078740157
          },
          {
            "number": 10,
            "ticks": 42841,
            "time": 169.744,
            "value": 0.9448818897637795
          },
          {
            "number": 10,
            "ticks": 42868,
            "time": 169.852,
            "value": 0.5039370078740157
          },
          {
            "number": 10,
            "ticks": 42895,
            "time": 169.96,
            "value": 0.06299212598425197
          },
          {
            "number": 10,
            "ticks": 42921,
            "time": 170.06400000000002,
            "value": 0.5039370078740157
          },
          {
            "number": 10,
            "ticks": 42948,
            "time": 170.172,
            "value": 0.9448818897637795
          },
          {
            "number": 10,
            "ticks": 42975,
            "time": 170.28,
            "value": 0.5039370078740157
          },
          {
            "number": 10,
            "ticks": 43002,
            "time": 170.388,
            "value": 0.06299212598425197
          },
          {
            "number": 10,
            "ticks": 43029,
            "time": 170.496,
            "value": 0.5039370078740157
          },
          {
            "number": 10,
            "ticks": 43055,
            "time": 170.60000000000002,
            "value": 0.9448818897637795
          },
          {
            "number": 10,
            "ticks": 43082,
            "time": 170.708,
            "value": 0.5039370078740157
          }
        ],
        "120": [
          {
            "number": 120,
            "ticks": 43457,
            "time": 172.208,
            "value": 0
          }
        ]
      },
      "pitchBends": [],
      "instrument": {
        "family": "ensemble",
        "number": 48,
        "name": "string ensemble 1"
      },
      "name": "",
      "notes": [
        {
          "duration": 0.2120000000000033,
          "durationTicks": 53,
          "midi": 88,
          "name": "E6",
          "ticks": 17904,
          "time": 69.996,
          "velocity": 0.5669291338582677
        },
        {
          "duration": 0.21599999999999397,
          "durationTicks": 54,
          "midi": 86,
          "name": "D6",
          "ticks": 17957,
          "time": 70.208,
          "velocity": 0.5669291338582677
        },
        {
          "duration": 1.284000000000006,
          "durationTicks": 321,
          "midi": 88,
          "name": "E6",
          "ticks": 18011,
          "time": 70.42399999999999,
          "velocity": 0.5669291338582677
        },
        {
          "duration": 0.42799999999999727,
          "durationTicks": 107,
          "midi": 81,
          "name": "A5",
          "ticks": 18332,
          "time": 71.708,
          "velocity": 0.5669291338582677
        },
        {
          "duration": 0.42799999999999727,
          "durationTicks": 107,
          "midi": 83,
          "name": "B5",
          "ticks": 18439,
          "time": 72.136,
          "velocity": 0.5669291338582677
        },
        {
          "duration": 0.43200000000000216,
          "durationTicks": 108,
          "midi": 84,
          "name": "C6",
          "ticks": 18546,
          "time": 72.564,
          "velocity": 0.5669291338582677
        },
        {
          "duration": 0.42799999999999727,
          "durationTicks": 107,
          "midi": 86,
          "name": "D6",
          "ticks": 18654,
          "time": 72.996,
          "velocity": 0.5669291338582677
        },
        {
          "duration": 0.2120000000000033,
          "durationTicks": 53,
          "midi": 88,
          "name": "E6",
          "ticks": 18761,
          "time": 73.42399999999999,
          "velocity": 0.5669291338582677
        },
        {
          "duration": 0.21599999999999397,
          "durationTicks": 54,
          "midi": 86,
          "name": "D6",
          "ticks": 18814,
          "time": 73.636,
          "velocity": 0.5669291338582677
        },
        {
          "duration": 1.284000000000006,
          "durationTicks": 321,
          "midi": 88,
          "name": "E6",
          "ticks": 18868,
          "time": 73.85199999999999,
          "velocity": 0.5669291338582677
        },
        {
          "duration": 0.42799999999999727,
          "durationTicks": 107,
          "midi": 81,
          "name": "A5",
          "ticks": 19189,
          "time": 75.136,
          "velocity": 0.5669291338582677
        },
        {
          "duration": 0.43200000000000216,
          "durationTicks": 108,
          "midi": 83,
          "name": "B5",
          "ticks": 19296,
          "time": 75.564,
          "velocity": 0.5669291338582677
        },
        {
          "duration": 0.42799999999999727,
          "durationTicks": 107,
          "midi": 84,
          "name": "C6",
          "ticks": 19404,
          "time": 75.996,
          "velocity": 0.5669291338582677
        },
        {
          "duration": 0.42799999999999727,
          "durationTicks": 107,
          "midi": 88,
          "name": "E6",
          "ticks": 19511,
          "time": 76.42399999999999,
          "velocity": 0.5669291338582677
        },
        {
          "duration": 0.2120000000000033,
          "durationTicks": 53,
          "midi": 86,
          "name": "D6",
          "ticks": 19618,
          "time": 76.85199999999999,
          "velocity": 0.5669291338582677
        },
        {
          "duration": 0.21600000000000819,
          "durationTicks": 54,
          "midi": 84,
          "name": "C6",
          "ticks": 19671,
          "time": 77.064,
          "velocity": 0.5669291338582677
        },
        {
          "duration": 1.2839999999999918,
          "durationTicks": 321,
          "midi": 86,
          "name": "D6",
          "ticks": 19725,
          "time": 77.28,
          "velocity": 0.5669291338582677
        },
        {
          "duration": 0.43200000000000216,
          "durationTicks": 108,
          "midi": 79,
          "name": "G5",
          "ticks": 20046,
          "time": 78.564,
          "velocity": 0.5669291338582677
        },
        {
          "duration": 0.42799999999999727,
          "durationTicks": 107,
          "midi": 81,
          "name": "A5",
          "ticks": 20154,
          "time": 78.996,
          "velocity": 0.5669291338582677
        },
        {
          "duration": 0.42799999999999727,
          "durationTicks": 107,
          "midi": 83,
          "name": "B5",
          "ticks": 20261,
          "time": 79.42399999999999,
          "velocity": 0.5669291338582677
        },
        {
          "duration": 0.4280000000000115,
          "durationTicks": 107,
          "midi": 84,
          "name": "C6",
          "ticks": 20368,
          "time": 79.85199999999999,
          "velocity": 0.5669291338582677
        },
        {
          "duration": 0.21599999999999397,
          "durationTicks": 54,
          "midi": 86,
          "name": "D6",
          "ticks": 20475,
          "time": 80.28,
          "velocity": 0.5669291338582677
        },
        {
          "duration": 0.2120000000000033,
          "durationTicks": 53,
          "midi": 84,
          "name": "C6",
          "ticks": 20529,
          "time": 80.496,
          "velocity": 0.5669291338582677
        },
        {
          "duration": 1.2879999999999967,
          "durationTicks": 322,
          "midi": 86,
          "name": "D6",
          "ticks": 20582,
          "time": 80.708,
          "velocity": 0.5669291338582677
        },
        {
          "duration": 0.42799999999999727,
          "durationTicks": 107,
          "midi": 79,
          "name": "G5",
          "ticks": 20904,
          "time": 81.996,
          "velocity": 0.5669291338582677
        },
        {
          "duration": 0.42799999999999727,
          "durationTicks": 107,
          "midi": 81,
          "name": "A5",
          "ticks": 21011,
          "time": 82.42399999999999,
          "velocity": 0.5669291338582677
        },
        {
          "duration": 0.4280000000000115,
          "durationTicks": 107,
          "midi": 83,
          "name": "B5",
          "ticks": 21118,
          "time": 82.85199999999999,
          "velocity": 0.5669291338582677
        },
        {
          "duration": 0.42799999999999727,
          "durationTicks": 107,
          "midi": 86,
          "name": "D6",
          "ticks": 21225,
          "time": 83.28,
          "velocity": 0.5669291338582677
        },
        {
          "duration": 0.21599999999999397,
          "durationTicks": 54,
          "midi": 88,
          "name": "E6",
          "ticks": 21332,
          "time": 83.708,
          "velocity": 0.5669291338582677
        },
        {
          "duration": 0.2120000000000033,
          "durationTicks": 53,
          "midi": 86,
          "name": "D6",
          "ticks": 21386,
          "time": 83.92399999999999,
          "velocity": 0.5669291338582677
        },
        {
          "duration": 1.2879999999999967,
          "durationTicks": 322,
          "midi": 88,
          "name": "E6",
          "ticks": 21439,
          "time": 84.136,
          "velocity": 0.5669291338582677
        },
        {
          "duration": 0.42799999999999727,
          "durationTicks": 107,
          "midi": 81,
          "name": "A5",
          "ticks": 21761,
          "time": 85.42399999999999,
          "velocity": 0.5669291338582677
        },
        {
          "duration": 0.42799999999999727,
          "durationTicks": 107,
          "midi": 83,
          "name": "B5",
          "ticks": 21868,
          "time": 85.85199999999999,
          "velocity": 0.5669291338582677
        },
        {
          "duration": 0.4280000000000115,
          "durationTicks": 107,
          "midi": 84,
          "name": "C6",
          "ticks": 21975,
          "time": 86.27999999999999,
          "velocity": 0.5669291338582677
        },
        {
          "duration": 0.42799999999999727,
          "durationTicks": 107,
          "midi": 86,
          "name": "D6",
          "ticks": 22082,
          "time": 86.708,
          "velocity": 0.5669291338582677
        },
        {
          "duration": 0.21599999999999397,
          "durationTicks": 54,
          "midi": 88,
          "name": "E6",
          "ticks": 22189,
          "time": 87.136,
          "velocity": 0.5669291338582677
        },
        {
          "duration": 0.2120000000000033,
          "durationTicks": 53,
          "midi": 86,
          "name": "D6",
          "ticks": 22243,
          "time": 87.35199999999999,
          "velocity": 0.5669291338582677
        },
        {
          "duration": 1.2879999999999967,
          "durationTicks": 322,
          "midi": 88,
          "name": "E6",
          "ticks": 22296,
          "time": 87.564,
          "velocity": 0.5669291338582677
        },
        {
          "duration": 0.42799999999999727,
          "durationTicks": 107,
          "midi": 81,
          "name": "A5",
          "ticks": 22618,
          "time": 88.85199999999999,
          "velocity": 0.5669291338582677
        },
        {
          "duration": 0.4280000000000115,
          "durationTicks": 107,
          "midi": 83,
          "name": "B5",
          "ticks": 22725,
          "time": 89.27999999999999,
          "velocity": 0.5669291338582677
        },
        {
          "duration": 0.42799999999999727,
          "durationTicks": 107,
          "midi": 84,
          "name": "C6",
          "ticks": 22832,
          "time": 89.708,
          "velocity": 0.5669291338582677
        },
        {
          "duration": 0.42799999999999727,
          "durationTicks": 107,
          "midi": 88,
          "name": "E6",
          "ticks": 22939,
          "time": 90.136,
          "velocity": 0.5669291338582677
        },
        {
          "duration": 0.21599999999999397,
          "durationTicks": 54,
          "midi": 86,
          "name": "D6",
          "ticks": 23046,
          "time": 90.564,
          "velocity": 0.5669291338582677
        },
        {
          "duration": 0.21600000000000819,
          "durationTicks": 54,
          "midi": 84,
          "name": "C6",
          "ticks": 23100,
          "time": 90.77999999999999,
          "velocity": 0.5669291338582677
        },
        {
          "duration": 1.2839999999999918,
          "durationTicks": 321,
          "midi": 86,
          "name": "D6",
          "ticks": 23154,
          "time": 90.996,
          "velocity": 0.5669291338582677
        },
        {
          "duration": 0.4280000000000115,
          "durationTicks": 107,
          "midi": 91,
          "name": "G6",
          "ticks": 23475,
          "time": 92.27999999999999,
          "velocity": 0.5669291338582677
        },
        {
          "duration": 0.42799999999999727,
          "durationTicks": 107,
          "midi": 93,
          "name": "A6",
          "ticks": 23582,
          "time": 92.708,
          "velocity": 0.5669291338582677
        },
        {
          "duration": 0.42799999999999727,
          "durationTicks": 107,
          "midi": 95,
          "name": "B6",
          "ticks": 23689,
          "time": 93.136,
          "velocity": 0.5669291338582677
        },
        {
          "duration": 0.43200000000000216,
          "durationTicks": 108,
          "midi": 96,
          "name": "C7",
          "ticks": 23796,
          "time": 93.564,
          "velocity": 0.5669291338582677
        },
        {
          "duration": 0.8559999999999945,
          "durationTicks": 214,
          "midi": 98,
          "name": "D7",
          "ticks": 23904,
          "time": 93.996,
          "velocity": 0.5669291338582677
        },
        {
          "duration": 0.8560000000000088,
          "durationTicks": 214,
          "midi": 95,
          "name": "B6",
          "ticks": 24118,
          "time": 94.85199999999999,
          "velocity": 0.5669291338582677
        },
        {
          "duration": 0.8559999999999945,
          "durationTicks": 214,
          "midi": 91,
          "name": "G6",
          "ticks": 24332,
          "time": 95.708,
          "velocity": 0.5669291338582677
        },
        {
          "duration": 1.9320000000000022,
          "durationTicks": 483,
          "midi": 86,
          "name": "D6",
          "ticks": 24546,
          "time": 96.564,
          "velocity": 0.5669291338582677
        },
        {
          "duration": 0.21199999999998909,
          "durationTicks": 53,
          "midi": 88,
          "name": "E6",
          "ticks": 35904,
          "time": 141.996,
          "velocity": 0.5669291338582677
        },
        {
          "duration": 0.21600000000000819,
          "durationTicks": 54,
          "midi": 86,
          "name": "D6",
          "ticks": 35957,
          "time": 142.208,
          "velocity": 0.5669291338582677
        },
        {
          "duration": 1.2839999999999918,
          "durationTicks": 321,
          "midi": 88,
          "name": "E6",
          "ticks": 36011,
          "time": 142.424,
          "velocity": 0.5669291338582677
        },
        {
          "duration": 0.4280000000000257,
          "durationTicks": 107,
          "midi": 81,
          "name": "A5",
          "ticks": 36332,
          "time": 143.708,
          "velocity": 0.5669291338582677
        },
        {
          "duration": 0.42799999999999727,
          "durationTicks": 107,
          "midi": 83,
          "name": "B5",
          "ticks": 36439,
          "time": 144.13600000000002,
          "velocity": 0.5669291338582677
        },
        {
          "duration": 0.43199999999998795,
          "durationTicks": 108,
          "midi": 84,
          "name": "C6",
          "ticks": 36546,
          "time": 144.56400000000002,
          "velocity": 0.5669291338582677
        },
        {
          "duration": 0.42799999999999727,
          "durationTicks": 107,
          "midi": 86,
          "name": "D6",
          "ticks": 36654,
          "time": 144.996,
          "velocity": 0.5669291338582677
        },
        {
          "duration": 0.2120000000000175,
          "durationTicks": 53,
          "midi": 88,
          "name": "E6",
          "ticks": 36761,
          "time": 145.424,
          "velocity": 0.5669291338582677
        },
        {
          "duration": 0.21599999999997976,
          "durationTicks": 54,
          "midi": 86,
          "name": "D6",
          "ticks": 36814,
          "time": 145.63600000000002,
          "velocity": 0.5669291338582677
        },
        {
          "duration": 1.2840000000000202,
          "durationTicks": 321,
          "midi": 88,
          "name": "E6",
          "ticks": 36868,
          "time": 145.852,
          "velocity": 0.5669291338582677
        },
        {
          "duration": 0.42799999999999727,
          "durationTicks": 107,
          "midi": 81,
          "name": "A5",
          "ticks": 37189,
          "time": 147.13600000000002,
          "velocity": 0.5669291338582677
        },
        {
          "duration": 0.43199999999998795,
          "durationTicks": 108,
          "midi": 83,
          "name": "B5",
          "ticks": 37296,
          "time": 147.56400000000002,
          "velocity": 0.5669291338582677
        },
        {
          "duration": 0.42799999999999727,
          "durationTicks": 107,
          "midi": 84,
          "name": "C6",
          "ticks": 37404,
          "time": 147.996,
          "velocity": 0.5669291338582677
        },
        {
          "duration": 0.42799999999999727,
          "durationTicks": 107,
          "midi": 88,
          "name": "E6",
          "ticks": 37511,
          "time": 148.424,
          "velocity": 0.5669291338582677
        },
        {
          "duration": 0.2120000000000175,
          "durationTicks": 53,
          "midi": 86,
          "name": "D6",
          "ticks": 37618,
          "time": 148.852,
          "velocity": 0.5669291338582677
        },
        {
          "duration": 0.21599999999997976,
          "durationTicks": 54,
          "midi": 84,
          "name": "C6",
          "ticks": 37671,
          "time": 149.06400000000002,
          "velocity": 0.5669291338582677
        },
        {
          "duration": 1.2840000000000202,
          "durationTicks": 321,
          "midi": 86,
          "name": "D6",
          "ticks": 37725,
          "time": 149.28,
          "velocity": 0.5669291338582677
        },
        {
          "duration": 0.43199999999998795,
          "durationTicks": 108,
          "midi": 79,
          "name": "G5",
          "ticks": 38046,
          "time": 150.56400000000002,
          "velocity": 0.5669291338582677
        },
        {
          "duration": 0.42799999999999727,
          "durationTicks": 107,
          "midi": 81,
          "name": "A5",
          "ticks": 38154,
          "time": 150.996,
          "velocity": 0.5669291338582677
        },
        {
          "duration": 0.42799999999999727,
          "durationTicks": 107,
          "midi": 83,
          "name": "B5",
          "ticks": 38261,
          "time": 151.424,
          "velocity": 0.5669291338582677
        },
        {
          "duration": 0.42799999999999727,
          "durationTicks": 107,
          "midi": 84,
          "name": "C6",
          "ticks": 38368,
          "time": 151.852,
          "velocity": 0.5669291338582677
        },
        {
          "duration": 0.21600000000000819,
          "durationTicks": 54,
          "midi": 86,
          "name": "D6",
          "ticks": 38475,
          "time": 152.28,
          "velocity": 0.5669291338582677
        },
        {
          "duration": 0.21199999999998909,
          "durationTicks": 53,
          "midi": 84,
          "name": "C6",
          "ticks": 38529,
          "time": 152.496,
          "velocity": 0.5669291338582677
        },
        {
          "duration": 1.288000000000011,
          "durationTicks": 322,
          "midi": 86,
          "name": "D6",
          "ticks": 38582,
          "time": 152.708,
          "velocity": 0.5669291338582677
        },
        {
          "duration": 0.42799999999999727,
          "durationTicks": 107,
          "midi": 79,
          "name": "G5",
          "ticks": 38904,
          "time": 153.996,
          "velocity": 0.5669291338582677
        },
        {
          "duration": 0.42799999999999727,
          "durationTicks": 107,
          "midi": 81,
          "name": "A5",
          "ticks": 39011,
          "time": 154.424,
          "velocity": 0.5669291338582677
        },
        {
          "duration": 0.42799999999999727,
          "durationTicks": 107,
          "midi": 83,
          "name": "B5",
          "ticks": 39118,
          "time": 154.852,
          "velocity": 0.5669291338582677
        },
        {
          "duration": 0.42799999999999727,
          "durationTicks": 107,
          "midi": 86,
          "name": "D6",
          "ticks": 39225,
          "time": 155.28,
          "velocity": 0.5669291338582677
        },
        {
          "duration": 0.21600000000000819,
          "durationTicks": 54,
          "midi": 88,
          "name": "E6",
          "ticks": 39332,
          "time": 155.708,
          "velocity": 0.5669291338582677
        },
        {
          "duration": 0.2120000000000175,
          "durationTicks": 53,
          "midi": 86,
          "name": "D6",
          "ticks": 39386,
          "time": 155.924,
          "velocity": 0.5669291338582677
        },
        {
          "duration": 1.2879999999999825,
          "durationTicks": 322,
          "midi": 88,
          "name": "E6",
          "ticks": 39439,
          "time": 156.13600000000002,
          "velocity": 0.5669291338582677
        },
        {
          "duration": 0.42799999999999727,
          "durationTicks": 107,
          "midi": 81,
          "name": "A5",
          "ticks": 39761,
          "time": 157.424,
          "velocity": 0.5669291338582677
        },
        {
          "duration": 0.42799999999999727,
          "durationTicks": 107,
          "midi": 83,
          "name": "B5",
          "ticks": 39868,
          "time": 157.852,
          "velocity": 0.5669291338582677
        },
        {
          "duration": 0.42799999999999727,
          "durationTicks": 107,
          "midi": 84,
          "name": "C6",
          "ticks": 39975,
          "time": 158.28,
          "velocity": 0.5669291338582677
        },
        {
          "duration": 0.4280000000000257,
          "durationTicks": 107,
          "midi": 86,
          "name": "D6",
          "ticks": 40082,
          "time": 158.708,
          "velocity": 0.5669291338582677
        },
        {
          "duration": 0.21599999999997976,
          "durationTicks": 54,
          "midi": 88,
          "name": "E6",
          "ticks": 40189,
          "time": 159.13600000000002,
          "velocity": 0.5669291338582677
        },
        {
          "duration": 0.2120000000000175,
          "durationTicks": 53,
          "midi": 86,
          "name": "D6",
          "ticks": 40243,
          "time": 159.352,
          "velocity": 0.5669291338582677
        },
        {
          "duration": 1.2879999999999825,
          "durationTicks": 322,
          "midi": 88,
          "name": "E6",
          "ticks": 40296,
          "time": 159.56400000000002,
          "velocity": 0.5669291338582677
        },
        {
          "duration": 0.42799999999999727,
          "durationTicks": 107,
          "midi": 81,
          "name": "A5",
          "ticks": 40618,
          "time": 160.852,
          "velocity": 0.5669291338582677
        },
        {
          "duration": 0.42799999999999727,
          "durationTicks": 107,
          "midi": 83,
          "name": "B5",
          "ticks": 40725,
          "time": 161.28,
          "velocity": 0.5669291338582677
        },
        {
          "duration": 0.4280000000000257,
          "durationTicks": 107,
          "midi": 84,
          "name": "C6",
          "ticks": 40832,
          "time": 161.708,
          "velocity": 0.5669291338582677
        },
        {
          "duration": 0.42799999999999727,
          "durationTicks": 107,
          "midi": 88,
          "name": "E6",
          "ticks": 40939,
          "time": 162.13600000000002,
          "velocity": 0.5669291338582677
        },
        {
          "duration": 0.21599999999997976,
          "durationTicks": 54,
          "midi": 86,
          "name": "D6",
          "ticks": 41046,
          "time": 162.56400000000002,
          "velocity": 0.5669291338582677
        },
        {
          "duration": 0.21600000000000819,
          "durationTicks": 54,
          "midi": 84,
          "name": "C6",
          "ticks": 41100,
          "time": 162.78,
          "velocity": 0.5669291338582677
        },
        {
          "duration": 1.2839999999999918,
          "durationTicks": 321,
          "midi": 86,
          "name": "D6",
          "ticks": 41154,
          "time": 162.996,
          "velocity": 0.5669291338582677
        },
        {
          "duration": 0.42799999999999727,
          "durationTicks": 107,
          "midi": 91,
          "name": "G6",
          "ticks": 41475,
          "time": 164.28,
          "velocity": 0.5669291338582677
        },
        {
          "duration": 0.4280000000000257,
          "durationTicks": 107,
          "midi": 93,
          "name": "A6",
          "ticks": 41582,
          "time": 164.708,
          "velocity": 0.5669291338582677
        },
        {
          "duration": 0.42799999999999727,
          "durationTicks": 107,
          "midi": 95,
          "name": "B6",
          "ticks": 41689,
          "time": 165.13600000000002,
          "velocity": 0.5669291338582677
        },
        {
          "duration": 0.43199999999998795,
          "durationTicks": 108,
          "midi": 96,
          "name": "C7",
          "ticks": 41796,
          "time": 165.56400000000002,
          "velocity": 0.5669291338582677
        },
        {
          "duration": 0.8559999999999945,
          "durationTicks": 214,
          "midi": 98,
          "name": "D7",
          "ticks": 41904,
          "time": 165.996,
          "velocity": 0.5669291338582677
        },
        {
          "duration": 0.8559999999999945,
          "durationTicks": 214,
          "midi": 95,
          "name": "B6",
          "ticks": 42118,
          "time": 166.852,
          "velocity": 0.5669291338582677
        },
        {
          "duration": 0.856000000000023,
          "durationTicks": 214,
          "midi": 91,
          "name": "G6",
          "ticks": 42332,
          "time": 167.708,
          "velocity": 0.5669291338582677
        },
        {
          "duration": 1.931999999999988,
          "durationTicks": 483,
          "midi": 86,
          "name": "D6",
          "ticks": 42546,
          "time": 168.56400000000002,
          "velocity": 0.5669291338582677
        }
      ]
    }
  ]
}